<svg clip-rule="evenodd" fill-rule="evenodd" height="512" image-rendering="optimizeQuality" shape-rendering="geometricPrecision" text-rendering="geometricPrecision" viewBox="0 0 512 512" width="512" xmlns="http://www.w3.org/2000/svg"><g id="Layer_x0020_1"><g id="_604049840"><g><path d="m449 512h-387c-3 0-5-2-5-5v-502c0-3 2-5 5-5h387c3 0 5 2 5 5v502c0 3-2 5-5 5zm-382-10h377v-492h-377z"/></g><g><path d="m414 477h-316c-3 0-5-2-5-5v-432c0-3 2-5 5-5h316c3 0 5 2 5 5v432c0 3-2 5-5 5zm-311-10h306v-422h-306z"/></g><g><path d="m98 45c-1 0-2 0-3-1l-36-35c-2-2-2-5-1-7 2-2 6-2 8-1l36 35c2 2 2 6 0 8-1 1-3 1-4 1z"/></g><g><path d="m414 45c-1 0-3 0-4-1-2-2-2-6 1-8l36-35c2-1 5-1 7 1s2 5-1 7l-36 35c0 1-2 1-3 1z"/></g><g><path d="m450 512c-1 0-3 0-3-1l-36-35c-2-2-2-5-1-7 2-2 6-2 7-1l36 35c2 2 2 6 1 8-1 1-3 1-4 1z"/></g><g><path d="m62 512c-1 0-3 0-4-1-1-2-1-6 1-8l36-35c2-1 5-1 7 1s2 5 0 7l-36 35c-1 1-3 1-4 1z"/></g><g><path d="m256 350c-27 0-52-10-71-29s-29-44-29-71 10-52 29-71 44-29 71-29 52 10 71 29 29 44 29 71-10 52-29 71-44 29-71 29zm0-190c-50 0-90 40-90 90 0 51 40 90 90 90 51 0 90-39 90-90 0-50-39-90-90-90z"/></g><g><path d="m256 319c-37 0-68-31-68-69 0-18 7-35 20-48s30-20 48-20c38 0 69 31 69 68 0 18-7 36-20 49s-31 20-49 20zm0-127c-32 0-58 26-58 58 0 33 26 59 58 59s59-27 59-59-26-58-59-58z"/></g><g><path d="m139 372c-1 0-3 0-3-1-2-2-2-6 0-8l233-234c2-2 6-2 8 0s2 6 0 8l-234 234c-1 1-3 1-4 1z"/></g><g><path d="m373 372c-1 0-3 0-3-1l-234-234c-2-2-2-6 0-8s5-2 7 0l234 234c2 2 2 6 0 8-1 1-3 1-4 1z"/></g><g><path d="m346 165c-1 0-3 0-3-1-24-23-54-36-87-36s-63 13-86 36c-2 2-6 2-8 0s-2-6 0-8c25-24 58-38 94-38 35 0 69 14 93 38 2 2 2 6 0 8 0 1-2 1-3 1z"/></g><g><path d="m256 382c-35 0-69-14-93-38-2-2-2-6 0-8s5-2 7 0c23 23 53 36 86 36s64-13 87-36c2-2 5-2 7 0s2 6 0 8c-25 24-58 38-94 38z"/></g><g><path d="m169 113c-13 0-24-10-24-23 0-14 10-24 24-24 13 0 23 11 23 24s-10 23-23 23zm0-37c-8 0-14 6-14 14 0 7 6 13 14 13 7 0 13-6 13-13 0-8-6-14-13-14z"/></g><g><path d="m342 117c-14 0-24-10-24-24 0-13 10-23 24-23 13 0 23 10 23 23 0 14-10 24-23 24zm0-37c-8 0-14 6-14 13 0 8 6 14 14 14 7 0 13-6 13-14 0-7-6-13-13-13z"/></g><g><path d="m342 428c-13 0-24-11-24-24s11-24 24-24c12 0 23 11 23 24s-11 24-23 24zm0-38c-9 0-14 7-14 14s5 14 14 14c7 0 13-6 13-14 0-7-6-14-13-14z"/></g><g><path d="m180 446c-13 0-23-10-23-24 0-13 10-23 23-23 14 0 24 10 24 23 0 14-10 24-24 24zm0-37c-7 0-13 6-13 13 0 8 6 14 13 14 8 0 14-6 14-14 0-7-6-13-14-13z"/></g></g><path d="m93 470v-428l-26-25v478z" fill="#8a482b"/><path d="m103 45v422h306v-422zm79 272c-17-18-26-42-26-67s9-49 26-67l-19-19s0 0-1 0c0-1 0-1 0-1l-26-26c-2-2-2-6 0-8s5-2 7 0l23 24c24-23 56-35 90-35s66 12 90 35l23-24c2-2 6-2 8 0s2 6 0 8l-47 46c17 18 26 42 26 67s-9 49-26 67l19 19h1v1l27 26c2 2 2 6 0 8-1 1-3 1-4 1s-3 0-3-1l-24-24c-25 23-56 35-90 35s-66-12-90-35l-23 24c-1 1-3 1-4 1s-3 0-3-1c-2-2-2-6 0-8l27-27zm160 111c-13 0-24-11-24-24s11-24 24-24c12 0 23 11 23 24s-11 24-23 24zm-185-6c0-13 10-23 23-23 14 0 24 10 24 23 0 14-10 24-24 24-13 0-23-10-23-24zm185-305c-14 0-24-10-24-24 0-13 10-23 24-23 13 0 23 10 23 23 0 14-10 24-23 24zm-173-4c-13 0-24-10-24-23 0-14 10-24 24-24 13 0 23 11 23 24s-10 23-23 23z" fill="#fff4f4"/><path d="m173 160 16 16c18-17 42-26 67-26s49 9 67 26l16-16c-23-21-52-32-83-32s-60 11-83 32z" fill="#e23c50"/><path d="m256 160c-23 0-44 8-60 23l16 15c12-10 27-16 44-16s33 6 45 16l15-15c-16-15-37-23-60-23z" fill="#916bca"/><path d="m204 205-15-15c-14 16-23 37-23 60s8 44 23 60l15-15c-10-12-16-28-16-45s6-32 16-45z" fill="#916bca"/><g fill="#fdc931"><path d="m256 192c-14 0-27 5-37 14l37 37 38-38c-11-8-24-13-38-13z"/><path d="m249 250-37-37c-9 10-14 23-14 37s5 27 13 38z"/><path d="m301 212-38 38 38 38c9-11 14-24 14-38s-5-28-14-38z"/><path d="m294 295-38-38-38 38c10 9 24 14 38 14s28-5 38-14z"/></g><path d="m325 250c0 17-6 32-17 45l15 15c15-16 23-37 23-60s-8-44-23-60l-15 15c11 12 17 28 17 45z" fill="#916bca"/><path d="m301 302c-12 11-28 17-45 17s-33-6-45-17l-15 15c16 15 37 23 60 23s44-8 60-23z" fill="#916bca"/><path d="m323 324c-18 17-42 26-67 26s-49-9-67-26l-16 16c23 21 52 32 83 32s60-11 83-32z" fill="#e23c50"/><path d="m342 390c-9 0-14 7-14 14s5 14 14 14c7 0 13-6 13-14 0-7-6-14-13-14z" fill="#fc9d33"/><path d="m194 422c0-7-6-13-14-13-7 0-13 6-13 13 0 8 6 14 13 14 8 0 14-6 14-14z" fill="#fdc931"/><path d="m412 477h-312l-26 25h364z" fill="#9e4c2b"/><path d="m419 42v428l25 24v-476z" fill="#8a482b"/><path d="m342 107c7 0 13-6 13-14 0-7-6-13-13-13-8 0-14 6-14 13 0 8 6 14 14 14z" fill="#916bca"/><path d="m182 90c0-8-6-14-13-14-8 0-14 6-14 14 0 7 6 13 14 13 7 0 13-6 13-13z" fill="#e23c50"/><path d="m100 35h312l26-25h-364z" fill="#9e4c2b"/></g></svg>