<svg enable-background="new 0 0 512 512" viewBox="0 0 512 512" xmlns="http://www.w3.org/2000/svg"><g id="_x31_0_x2C__Ace_Of_Spades_x2C__Poker_x2C__Casino_x2C__Gambler_x2C__Gambling_x2C__Cards_x2C__Shapes_x2C__Bet"><g><path d="m421 41v430c0 16.57-13.43 30-30 30h-270c-16.57 0-30-13.43-30-30v-430c0-16.57 13.43-30 30-30h270c16.57 0 30 13.43 30 30z" fill="#eae4f0"/><g fill="#df6378"><path d="m375.84 402.59c7.31 8.75 6.85 21.8-1.37 30.02-4.35 4.35-10.06 6.53-15.76 6.53-5.1 0-10.19-1.74-14.33-5.22-8.76 7.37-21.85 6.93-30.09-1.31-4.35-4.35-6.53-10.05-6.53-15.76 0-5.07 1.72-10.14 5.17-14.26.42-.52.88-1.02 1.36-1.5l30.09-30.09 30.09 30.09c.48.48.94.98 1.37 1.5z"/><path d="m199.08 82.59c7.31 8.75 6.85 21.8-1.37 30.02-4.35 4.35-10.06 6.53-15.76 6.53-5.1 0-10.2-1.74-14.33-5.22-8.76 7.37-21.85 6.93-30.09-1.31-4.35-4.35-6.53-10.05-6.53-15.76 0-5.07 1.72-10.14 5.16-14.26.43-.52.89-1.02 1.37-1.5l30.09-30.09 30.09 30.09c.48.48.94.98 1.37 1.5z"/><path d="m333.62 230.19c18.04 21.61 16.92 53.8-3.37 74.09-10.74 10.74-24.82 16.11-38.89 16.11-12.58 0-25.16-4.29-35.36-12.87-21.61 18.18-53.91 17.1-74.25-3.24-10.74-10.74-16.11-24.81-16.11-38.89 0-12.52 4.25-25.03 12.74-35.2 1.05-1.27 2.18-2.5 3.37-3.69l74.25-74.25 74.25 74.25c1.19 1.19 2.32 2.42 3.37 3.69z"/></g><g><path d="m391 1h-270c-22.056 0-40 17.944-40 40v430c0 22.056 17.944 40 40 40h270c22.056 0 40-17.944 40-40v-430c0-22.056-17.944-40-40-40zm20 470c0 11.028-8.972 20-20 20h-270c-11.028 0-20-8.972-20-20v-430c0-11.028 8.972-20 20-20h270c11.028 0 20 8.972 20 20z"/><path d="m306.001 359.75c0-5.523-4.478-10-10-10h-30v-24.514c23.538 9.96 51.868 5.567 71.321-13.885 23.848-23.848 25.414-61.889 4.007-87.532-3.339-4.039-1.389-1.644-78.257-78.64-3.906-3.905-10.236-3.905-14.143 0l-74.248 74.249c-25.214 25.197-25.561 66.365-.002 91.923 19.195 19.196 47.568 23.965 71.321 13.903v24.496h-30.002c-5.522 0-10 4.477-10 10s4.478 10 10 10h80.002c5.523 0 10.001-4.477 10.001-10zm-117.179-62.542c-16.826-16.825-17.331-43.163-2.733-60.647 2.191-2.649-.735.566 69.912-70.169l67.181 67.18c17.694 17.703 17.69 45.944-.002 63.636-16.223 16.224-42.263 17.926-60.784 2.626-3.635-3.033-9.056-3.132-12.832.033-17.689 14.881-44.37 13.714-60.742-2.659z"/><path d="m157.619 141c0 5.523 4.478 10 10 10s10-4.477 10-10v-12.164c28.999 3.932 48.061-29.987 29.168-52.616-1.631-1.977-.303-.432-32.097-32.292-3.906-3.905-10.236-3.905-14.143 0-31.606 31.673-30.447 30.298-32.062 32.249-10.512 12.591-10.044 31.491 1.971 43.505 7.303 7.302 17.466 10.373 27.162 9.095v12.223zm-16.619-44.149c0-3.157 1.227-6.313 3.6-8.689l23.02-23.02 23.02 23.02c7.644 7.63 2.281 20.979-8.689 20.979-2.803 0-5.553-.931-7.93-2.896-3.74-3.121-9.158-3.055-12.837.029-7.849 6.602-20.184 1.084-20.184-9.423z"/><path d="m351.453 363.929c-3.89-3.889-10.225-3.916-14.143 0-31.767 31.833-30.477 30.327-32.061 32.248-10.515 12.592-10.043 31.494 1.97 43.506 7.303 7.303 17.466 10.372 27.162 9.095v12.222c0 5.523 4.478 10 10 10s10-4.477 10-10v-12.806c10.714.551 22.586-3.937 27.161-8.511 12.691-12.692 12.703-32.951 0-45.663zm15.947 61.611c-4.382 4.383-11.488 4.945-16.619.704-3.653-3.049-9.063-3.115-12.798-.002-5.105 4.238-12.3 3.619-16.623-.702-4.548-4.549-4.783-11.726-.724-16.588.577-.698-.461.418 23.744-23.81 24.298 24.322 23.133 23.072 23.779 23.852 4.029 4.825 3.695 12.092-.759 16.546z"/></g></g></g><g id="Layer_1"/></svg>