<svg viewBox="0 0 64 64" xmlns="http://www.w3.org/2000/svg"><g id="Acorn"><path d="m32 63a4.00458 4.00458 0 0 1 -4-4v-.98584l-.70752-.21631a20.35476 20.35476 0 0 1 -14.29248-19.32178v-11.47607h38v11.47607a20.35476 20.35476 0 0 1 -14.29248 19.32178l-.70752.21631v.98584a4.00458 4.00458 0 0 1 -4 4z" fill="#f2b46b"/><path d="m25.11279 18.189c-2.70947 0-7.50927-2.58544-8.34814-3.42431a3.33783 3.33783 0 0 1 0-4.71436q.12158-.12084.25244-.228l.62061-.50782-.36084-.71631a3.46145 3.46145 0 0 1 .27343-4.04785 2.81262 2.81262 0 0 1 2.04395-.77835 4.49561 4.49561 0 0 1 2.0039.50489l.71631.36084.50782-.62061q.10692-.1311.228-.25244a3.339 3.339 0 0 1 4.71436 0 18.38668 18.38668 0 0 1 2.58691 4.79443c1.05908 2.771.96143 4.228.55567 4.63379l-4.71436 4.71436a1.59334 1.59334 0 0 1 -1.0791.28173z" fill="#57ceb7"/><path d="m29 15-.64453-1.71875a15.43012 15.43012 0 0 1 .64453-12.28125l9 3a17.07437 17.07437 0 0 0 -4.7998 9.59961l-.2002 1.40039z" fill="#8e5454"/><path d="m32 29.45313a90.75669 90.75669 0 0 1 -21-2.45313l.88574-5.31543a7.975 7.975 0 0 1 7.89112-6.68457h24.44628a7.975 7.975 0 0 1 7.89112 6.68457l.88574 5.31543a90.75669 90.75669 0 0 1 -21 2.45313z" fill="#a06d67"/><g fill="#38342b"><path d="m53.10059 21.52017a8.97192 8.97192 0 0 0 -8.87745-7.52h-10.07019l.037-.25879a16.06976 16.06976 0 0 1 4.51705-9.0342 1.00005 1.00005 0 0 0 -.39062-1.65576l-9-3a1.00031 1.00031 0 0 0 -1.21094.50147 16.22285 16.22285 0 0 0 -.73309 1.7276 4.32981 4.32981 0 0 0 -5.04181.7846q-.14942.15528-.28174.31788a4.45712 4.45712 0 0 0 -5.20606.46 4.45815 4.45815 0 0 0 -.45947 5.20654q-.16845.137-.33057.29346a4.32373 4.32373 0 0 0 -.38629 5.65075 8.96591 8.96591 0 0 0 -4.767 6.52649l-.88574 5.31543a.99969.99969 0 0 0 .75488 1.13721c.40906.09741.82105.18231 1.23145.274v10.23328a21.09039 21.09039 0 0 0 4.38672 12.91895 21.31627 21.31627 0 0 0 10.61328 7.35449v.24658a5 5 0 1 0 10 0v-.24609a21.23125 21.23125 0 0 0 15-20.27393v-10.23333c.4104-.09168.82239-.17658 1.23145-.274a.99969.99969 0 0 0 .75488-1.13721zm-23.56885-19.28857 6.69238 2.231a18.096 18.096 0 0 0 -4.01367 8.99609l-.07745.5415h-2.43982l-.40118-1.06986a14.43224 14.43224 0 0 1 .23974-10.69873zm-12.06494 11.82129a2.33047 2.33047 0 0 1 -.01221-3.28369 2.4393 2.4393 0 0 1 .70117-.48487 1.00034 1.00034 0 0 0 .40088-1.50533c-.92187-1.25683-1.05029-2.771-.2998-3.522.75146-.74951 2.26513-.62207 3.522.2998a1.00034 1.00034 0 0 0 1.50537-.40087 2.41746 2.41746 0 0 1 .47266-.689 2.32774 2.32774 0 0 1 3.046-.204 16.42079 16.42079 0 0 0 .32556 8.45154l-2.58543-2.58541a.99989.99989 0 0 0 -1.41406 1.41406l2.457 2.457h-5.80908a9.06181 9.06181 0 0 0 -2.077.248 2.29561 2.29561 0 0 1 -.23306-.19523zm-4.59473 7.79638a6.97811 6.97811 0 0 1 6.90479-5.84912h9.21991l.00323.00049.00269-.00049h15.22045a6.97811 6.97811 0 0 1 6.90479 5.84912l.73145 4.38965a90.14172 90.14172 0 0 1 -39.71875 0zm37.12793 16.63086a19.22677 19.22677 0 0 1 -14.25781 18.55371 1.00015 1.00015 0 0 0 -.74219.96631v1a3 3 0 1 1 -6 0v-1a1 1 0 0 0 -.74219-.96631 19.30031 19.30031 0 0 1 -10.28369-6.85156 19.10637 19.10637 0 0 1 -3.97412-11.70215v-9.80743a91.97113 91.97113 0 0 0 18 1.78058 91.97113 91.97113 0 0 0 18-1.78058z"/><path d="m24.707 20.70718a.99962.99962 0 0 0 0-1.41406 3.83175 3.83175 0 0 0 -5.41406 0 .99989.99989 0 0 0 1.41406 1.41406 1.83071 1.83071 0 0 1 2.58594 0 .99963.99963 0 0 0 1.41406 0z"/><path d="m24.293 24.29312a.99989.99989 0 0 0 1.414 1.41406 1.83071 1.83071 0 0 1 2.58594 0 .99989.99989 0 0 0 1.41406-1.41406 3.83175 3.83175 0 0 0 -5.414 0z"/><path d="m34.293 25.70718a.99962.99962 0 0 0 1.41406 0 1.83071 1.83071 0 0 1 2.58594 0 .99989.99989 0 0 0 1.414-1.41406 3.83175 3.83175 0 0 0 -5.41406 0 .99962.99962 0 0 0 .00006 1.41406z"/><path d="m33.293 20.70718a.99989.99989 0 0 0 1.414-1.41406 3.83175 3.83175 0 0 0 -5.41406 0 .99989.99989 0 0 0 1.41406 1.41406 1.83071 1.83071 0 0 1 2.586 0z"/><path d="m40.707 20.70718a1.83071 1.83071 0 0 1 2.58594 0 .99989.99989 0 0 0 1.41406-1.41406 3.83175 3.83175 0 0 0 -5.41406 0 .99989.99989 0 0 0 1.41406 1.41406z"/><circle cx="35" cy="51" r="1"/><circle cx="39" cy="51" r="1"/><circle cx="37" cy="47" r="1"/></g></g></svg>