<svg enable-background="new 0 0 512 512" viewBox="0 0 512 512" xmlns="http://www.w3.org/2000/svg"><g id="_x34_5_x2C__Air_Hockey_x2C__Hockey_x2C__Air_x2C__Air_Hockey_x2C__Board_Game_x2C__Childhood_x2C__Gaming_x2C__Entertainment_x2C_"><g><path d="m441.76 41.12v429.76c0 16.63-13.49 30.12-30.13 30.12h-311.26c-16.64 0-30.13-13.49-30.13-30.12v-429.76c0-16.63 13.49-30.12 30.13-30.12h311.26c16.64 0 30.13 13.49 30.13 30.12z" fill="#4e5f7e"/><path d="m321.27 51-65.27 16-65.27-16h-79.73v205l142.8 19 147.2-19v-205z" fill="#81e491"/><path d="m111 256v205h79.73l60.27-16.4 70.27 16.4h79.73v-205z" fill="#6dc07d"/><circle cx="331" cy="361" fill="#df6378" r="20"/><path d="m251 301c0 11.05-8.95 20-20 20s-20-8.95-20-20c0-7.17 3.77-13.46 9.45-16.98 3.06-1.92 6.68-3.02 10.55-3.02 11.05 0 20 8.95 20 20z" fill="#f2d744"/><circle cx="191" cy="151" fill="#f2d744" r="20"/><g fill="#eae4f0"><path d="m256 210.73c25 0 45.27 20.27 45.27 45.27s-20.27 45.27-45.27 45.27c-1.69 0-3.36-.09-5-.27 0-11.05-8.95-20-20-20-3.87 0-7.49 1.1-10.55 3.02-6.09-7.71-9.72-17.44-9.72-28.02 0-25 20.27-45.27 45.27-45.27z"/><path d="m190.73 420.16h130.54v40.84h-130.54z"/><path d="m190.73 51h130.54v40h-130.54z"/></g><g><path d="m411.633 1h-311.266c-22.123 0-40.122 17.999-40.122 40.122v429.756c0 22.123 17.999 40.122 40.122 40.122h311.266c22.123 0 40.122-17.999 40.122-40.122v-429.756c0-22.123-17.999-40.122-40.122-40.122zm20.122 469.878c0 11.096-9.026 20.122-20.122 20.122h-311.266c-11.096 0-20.122-9.026-20.122-20.122v-429.756c0-11.096 9.026-20.122 20.122-20.122h311.266c11.096 0 20.122 9.026 20.122 20.122z"/><path d="m401 41c-15.354 0-277.68 0-290 0-5.522 0-10 4.478-10 10v410c0 5.522 4.478 10 10 10h290c5.522 0 10-4.478 10-10v-410c0-5.522-4.478-10-10-10zm-89.734 20v20h-110.532v-20zm-130.532 0v30c0 5.522 4.478 10 10 10h130.531c5.522 0 10-4.478 10-10v-30h59.735v185h-80.653c-4.722-25.716-27.286-45.27-54.347-45.27-27.06 0-49.625 19.553-54.346 45.27h-80.654v-185zm78.584 230.111c-4.925-14.061-19.707-22.788-34.894-19.376-11.308-22.39 4.561-51.005 31.576-51.005 19.448 0 35.271 15.822 35.271 35.27 0 18.442-14.177 33.44-31.953 35.111zm-28.318-.111c5.514 0 10 4.486 10 10s-4.486 10-10 10-10-4.486-10-10 4.486-10 10-10zm-30.266 160v-20.837h110.531v20.837zm130.532 0v-30.837c0-5.522-4.478-10-10-10h-130.532c-5.522 0-10 4.478-10 10v30.837h-59.734v-185h80.633c1.047 5.772 2.996 11.303 5.817 16.448-15.449 19.569-1.449 48.552 23.55 48.552 12.969 0 24.04-8.273 28.218-19.818 25.446-1.46 46.58-20.371 51.129-45.182h80.653v185z"/><path d="m191 181c16.542 0 30-13.458 30-30s-13.458-30-30-30-30 13.458-30 30 13.458 30 30 30zm0-40c5.514 0 10 4.486 10 10s-4.486 10-10 10-10-4.486-10-10 4.486-10 10-10z"/><path d="m331 331c-16.542 0-30 13.458-30 30s13.458 30 30 30 30-13.458 30-30-13.458-30-30-30zm0 40c-5.514 0-10-4.486-10-10s4.486-10 10-10 10 4.486 10 10-4.486 10-10 10z"/></g></g></g><g id="Layer_1"/></svg>