<svg height="512" viewBox="0 0 128 128" width="512" xmlns="http://www.w3.org/2000/svg"><g><rect fill="#e6f2ff" height="57.127" rx="5.002" width="115.386" x="6.307" y="23.183"/><path d="m15.996 60.828h96.008v9.793h-96.008z" fill="#cce6ff"/><path d="m112.004 23.183-5.519 9.689h-84.97l-5.519-9.689z" fill="#9cf"/><g><path d="m116.691 21.433h-17.591a1.75 1.75 0 0 0 0 3.5h9.892l-3.526 6.189h-82.933l-3.526-6.189h56.7a1.75 1.75 0 0 0 0-3.5h-64.4a6.76 6.76 0 0 0 -6.752 6.752v47.123a6.76 6.76 0 0 0 6.752 6.752h16.628a1.75 1.75 0 1 0 0-3.5h-16.626a3.256 3.256 0 0 1 -3.252-3.252v-47.123a3.256 3.256 0 0 1 3.252-3.252h3.67l5.021 8.805a1.749 1.749 0 0 0 1.521.884h84.968a1.75 1.75 0 0 0 1.521-.884l5.016-8.8h3.67a3.256 3.256 0 0 1 3.252 3.252v47.118a3.256 3.256 0 0 1 -3.252 3.252h-79.396a1.75 1.75 0 0 0 0 3.5h79.393a6.76 6.76 0 0 0 6.752-6.752v-47.123a6.76 6.76 0 0 0 -6.754-6.752z"/><path d="m85.364 24.933h4.5a1.75 1.75 0 0 0 0-3.5h-4.5a1.75 1.75 0 0 0 0 3.5z"/><path d="m112 72.371a1.75 1.75 0 0 0 1.75-1.75v-9.793a1.749 1.749 0 0 0 -1.75-1.75h-96a1.75 1.75 0 0 0 -1.75 1.75v9.793a1.751 1.751 0 0 0 1.75 1.75zm-62.252-9.793h12.5v6.293h-12.5zm-3.5 6.293h-12.5v-6.293h12.5zm32 0h-12.498v-6.293h12.5zm3.5-6.293h12.5v6.293h-12.5zm28.5 6.293h-12.5v-6.293h12.5zm-92.502-6.293h12.5v6.293h-12.5z"/><path d="m89.752 90.09a1.75 1.75 0 0 0 -3.5 0c0 9.625 2.28 15.172 2.377 15.4a1.75 1.75 0 0 0 3.229-1.35c-.02-.047-2.106-5.192-2.106-14.05z"/><path d="m105.753 90.09a1.75 1.75 0 0 0 -3.5 0c0 9.907 4.692 15.614 4.891 15.851a1.75 1.75 0 1 0 2.682-2.249c-.041-.048-4.073-4.955-4.073-13.602z"/><path d="m72 88.34a1.749 1.749 0 0 0 -1.75 1.75v14.727a1.75 1.75 0 0 0 3.5 0v-14.727a1.749 1.749 0 0 0 -1.75-1.75z"/><path d="m40 88.34a1.75 1.75 0 0 0 -1.75 1.75c0 8.828-2.071 13.969-2.106 14.054a1.75 1.75 0 0 0 3.229 1.35c.1-.232 2.377-5.779 2.377-15.4a1.75 1.75 0 0 0 -1.75-1.754z"/><path d="m24 88.34a1.749 1.749 0 0 0 -1.75 1.75c0 8.526-4 13.51-4.077 13.607a1.75 1.75 0 0 0 2.685 2.244c.2-.237 4.892-5.944 4.892-15.851a1.75 1.75 0 0 0 -1.75-1.75z"/><path d="m56 88.34a1.75 1.75 0 0 0 -1.75 1.75v14.727a1.75 1.75 0 0 0 3.5 0v-14.727a1.749 1.749 0 0 0 -1.75-1.75z"/></g></g></svg>