<svg id="Layer_1" viewBox="0 0 1000 1000" xmlns="http://www.w3.org/2000/svg" data-name="Layer 1"><path d="m116.07 462.93a80.14 80.14 0 0 0 80 76.93h607.93a80.14 80.14 0 0 0 80-76.93zm690.59 54.73h-613.32a16 16 0 0 1 0-32h613.32a16 16 0 1 1 0 32z" fill="#42a5f5"/><path d="m853.82 216.4h-707.64a30.21 30.21 0 0 0 -30.18 30.17v184.36h768v-184.36a30.21 30.21 0 0 0 -30.18-30.17zm-700.3 48.71a16 16 0 0 1 16-16h652a16 16 0 0 1 0 32h-652a16 16 0 0 1 -16-16zm705 105.18a41.46 41.46 0 0 1 -41.42 41.41h-65.28a41.46 41.46 0 0 1 -41.42-41.41v-26.58a41.47 41.47 0 0 1 41.42-41.42h65.28a41.47 41.47 0 0 1 41.42 41.42z" fill="#64b5f6"/><path d="m826.52 343.71v26.58a9.43 9.43 0 0 1 -9.42 9.41h-65.28a9.43 9.43 0 0 1 -9.42-9.41v-26.58a9.44 9.44 0 0 1 9.42-9.42h65.28a9.44 9.44 0 0 1 9.42 9.42z" fill="#bdbdbd"/><g fill="#fff" opacity=".5"><path d="m106.07 472.93a80.14 80.14 0 0 0 80 76.93h607.93a80.14 80.14 0 0 0 80-76.93zm690.59 54.73h-613.32a16 16 0 0 1 0-32h613.32a16 16 0 1 1 0 32z"/><path d="m843.82 226.4h-707.64a30.21 30.21 0 0 0 -30.18 30.17v184.36h768v-184.36a30.21 30.21 0 0 0 -30.18-30.17zm-700.3 48.71a16 16 0 0 1 16-16h652a16 16 0 0 1 0 32h-652a16 16 0 0 1 -16-16zm705 105.18a41.46 41.46 0 0 1 -41.42 41.41h-65.28a41.46 41.46 0 0 1 -41.42-41.41v-26.58a41.47 41.47 0 0 1 41.42-41.42h65.28a41.47 41.47 0 0 1 41.42 41.42z"/><path d="m816.52 353.71v26.58a9.43 9.43 0 0 1 -9.42 9.41h-65.28a9.43 9.43 0 0 1 -9.42-9.41v-26.58a9.44 9.44 0 0 1 9.42-9.42h65.28a9.44 9.44 0 0 1 9.42 9.42z"/></g><g fill="#413b32"><path d="m817.1 302.29h-65.28a41.47 41.47 0 0 0 -41.42 41.42v26.58a41.46 41.46 0 0 0 41.42 41.41h65.28a41.46 41.46 0 0 0 41.42-41.41v-26.58a41.47 41.47 0 0 0 -41.42-41.42zm9.42 68a9.43 9.43 0 0 1 -9.42 9.41h-65.28a9.43 9.43 0 0 1 -9.42-9.41v-26.58a9.44 9.44 0 0 1 9.42-9.42h65.28a9.44 9.44 0 0 1 9.42 9.42z"/><path d="m853.82 184.4h-707.64a62.24 62.24 0 0 0 -62.18 62.17v213.24a112.17 112.17 0 0 0 112.05 112.05h607.95a112.17 112.17 0 0 0 112-112v-213.29a62.24 62.24 0 0 0 -62.18-62.17zm-49.82 355.46h-607.95a80.14 80.14 0 0 1 -80-76.93c0-1-.07-2.07-.07-3.12v-213.24a30.21 30.21 0 0 1 30.18-30.17h707.66a30.21 30.21 0 0 1 30.18 30.17v213.24c0 1.05 0 2.09-.07 3.12a80.14 80.14 0 0 1 -79.93 76.93z"/><path d="m837.53 265.11a16 16 0 0 1 -16 16h-652a16 16 0 1 1 0-32h652a16 16 0 0 1 16 16z"/><path d="m913.72 446.93a16 16 0 0 1 -16 16h-788.72a16 16 0 1 1 0-32h788.72a16 16 0 0 1 16 16z"/><path d="m904.77 446.93a16 16 0 0 1 -16 16h-786.49a16 16 0 0 1 0-32h786.49a16 16 0 0 1 16 16z"/><path d="m822.66 501.66a16 16 0 0 1 -16 16h-613.32a16 16 0 0 1 0-32h613.32a16 16 0 0 1 16 16z"/><path d="m751.19 815.6a16 16 0 0 1 -14-8.22c-1.17-2.1-28.46-52.06-3.86-90.33 14.23-22.12-.5-50.63-.65-50.91a16 16 0 1 1 28.19-15.14c1 1.83 23.91 45.21-.62 83.36-14.13 22 4.71 57.12 4.9 57.47a16 16 0 0 1 -14 23.78z"/><path d="m586.32 815.6a16 16 0 0 1 -14-8.22c-1.18-2.1-28.47-52.06-3.86-90.33 14.2-22.08-.46-50.56-.62-50.84a16 16 0 1 1 28.16-15.21c1 1.83 23.92 45.2-.61 83.36-14.13 22 4.7 57.12 4.9 57.47a16 16 0 0 1 -14 23.78z"/><path d="m421.43 815.59a16 16 0 0 1 -14-8.2c-1.18-2.11-28.47-52.07-3.86-90.34 14.19-22.08-.47-50.56-.62-50.84a16 16 0 1 1 28.19-15.21c1 1.83 23.92 45.2-.62 83.36-11.79 18.35-.44 47.73 4.93 57.51a16 16 0 0 1 -14 23.73z"/><path d="m256.59 815.6a16 16 0 0 1 -14-8.22c-1.17-2.1-28.46-52.06-3.86-90.33 14.23-22.12-.5-50.63-.65-50.91a16 16 0 1 1 28.2-15.14c1 1.83 23.91 45.21-.62 83.36-14.13 22 4.7 57.12 4.9 57.47a16 16 0 0 1 -14 23.78z"/></g></svg>