<svg id="Layer_1" enable-background="new 0 0 512 512" viewBox="0 0 512 512" xmlns="http://www.w3.org/2000/svg"><g clip-rule="evenodd" fill-rule="evenodd"><g><path d="m270.578 103.49h30.359v142.002h-30.359z" fill="#a9b0bb"/><path d="m403.64 103.49h30.359v142.002h-30.359z" fill="#a9b0bb"/><path d="m73.059 101.171h97.067v144.148h-97.067z" fill="#636c77"/><path d="m51.731 16h139.723c11.418 0 20.731 9.313 20.731 20.731v57.889c0 11.418-9.313 20.73-20.731 20.73h-139.723c-11.418 0-20.731-9.313-20.731-20.73v-57.889c.001-11.418 9.313-20.731 20.731-20.731z" fill="#a9b0bb"/><g fill="#cad0d7"><path d="m94.269 16h54.647v99.35h-54.647z"/><circle cx="418.82" cy="95.352" r="62.18"/><circle cx="285.758" cy="95.352" r="41.125"/></g><ellipse cx="418.82" cy="95.352" fill="#a9b0bb" rx="28.949" ry="28.949" transform="matrix(.973 -.23 .23 .973 -10.704 98.776)"/><path d="m123.722 205.091h264.557c59.247 0 107.722 48.475 107.722 107.722s-48.475 107.722-107.722 107.722h-264.557c-59.247-.001-107.722-48.475-107.722-107.722s48.475-107.722 107.722-107.722z" fill="#f76c82"/><circle cx="125.493" cy="438.128" fill="#636c77" r="57.872"/><circle cx="125.493" cy="438.127" fill="#e4e8eb" r="26.783"/><circle cx="386.507" cy="438.128" fill="#636c77" r="57.872"/><circle cx="386.507" cy="438.127" fill="#e4e8eb" r="26.783"/><path d="m54.549 230.398 34.174 52.471c1.901 2.919 4.896 4.542 8.379 4.542h317.795c3.484 0 6.478-1.623 8.379-4.542l34.174-52.471c-7.102-5.975-14.979-11.055-23.453-15.06-9.459-4.471-19.661-7.602-30.359-9.147-5.02-.725-10.149-1.1-15.362-1.1h-87.341-30.359-100.45-46.404c-18.283 0-35.539 4.616-50.662 12.74-6.609 3.55-12.81 7.77-18.511 12.567z" fill="#eb5463"/></g><path d="m112.115 252.779h287.79c3.863 0 7.002 3.143 7.002 7.002 0 3.872-3.139 7.002-7.002 7.002h-287.79c-3.868 0-6.997-3.129-6.997-7.002 0-3.859 3.129-7.002 6.997-7.002zm274.402 205.132c-10.912 0-19.782-8.879-19.782-19.791 0-10.907 8.87-19.777 19.782-19.777 10.907 0 19.777 8.87 19.777 19.777 0 10.912-8.869 19.791-19.777 19.791zm0-53.572c-18.629 0-33.781 15.161-33.781 33.781 0 18.629 15.152 33.79 33.781 33.79s33.776-15.161 33.776-33.79c0-18.62-15.147-33.781-33.776-33.781zm-261.02 53.572c-10.903 0-19.782-8.879-19.782-19.791 0-10.907 8.879-19.777 19.782-19.777 10.907 0 19.787 8.87 19.787 19.777 0 10.912-8.88 19.791-19.787 19.791zm0-53.572c-18.62 0-33.781 15.161-33.781 33.781 0 18.629 15.161 33.79 33.781 33.79 18.629 0 33.79-15.161 33.79-33.79 0-18.62-15.161-33.781-33.79-33.781zm313.341-4.508c31.075-18.121 50.18-50.909 50.18-87.019 0-28.068-11.529-53.492-30.162-71.769l-32.67 50.189c-1.289 1.981-3.487 3.181-5.858 3.181h-328.64c-2.362 0-4.574-1.2-5.863-3.181l-32.689-50.189c-18.577 18.276-30.129 43.7-30.129 71.769 0 36.11 19.081 68.898 50.18 87.019 11.811-16.102 30.859-26.581 52.321-26.581 27.061 0 50.302 16.672 60.009 40.284h140.978c9.712-23.612 32.953-40.284 60.024-40.284 21.446 0 40.498 10.479 52.319 26.581zm-52.321 89.17c28.05 0 50.867-22.831 50.867-50.881s-22.817-50.871-50.867-50.871-50.871 22.822-50.871 50.871c0 28.05 22.821 50.881 50.871 50.881zm-261.01 0c28.05 0 50.871-22.831 50.871-50.881s-22.822-50.871-50.871-50.871c-28.064 0-50.881 22.822-50.881 50.871 0 28.05 22.817 50.881 50.881 50.881zm-45.442-366.65h83.071v75.74h-39.409c-15.453 0-30.191 3.073-43.663 8.639v-84.379zm-42.058-27.729v-57.892c0-7.571 6.16-13.731 13.726-13.731h35.546v85.354h-35.546c-7.566 0-13.726-6.16-13.726-13.731zm63.271 2.889h40.646v10.841h-40.646zm40.646-63.68h-40.646v-10.832h40.646zm-40.646 38.84h40.646v10.842h-40.646zm0-24.841h40.646v10.841h-40.646zm103.916-11.1v57.892c0 7.571-6.159 13.731-13.731 13.731h-35.536v-85.354h35.536c7.572 0 13.731 6.16 13.731 13.731zm72.39 106.034c2.442.419 4.95.659 7.501.697l8.86 1.464v53.167h-16.361zm-25.951-47.413c0-18.817 15.312-34.129 34.134-34.129 18.817 0 34.119 15.312 34.119 34.129s-15.302 34.12-34.119 34.12c-18.822 0-34.134-15.302-34.134-34.12zm222.374 0c0 30.431-24.751 55.182-55.181 55.182-30.431 0-55.177-24.751-55.177-55.182s24.746-55.181 55.177-55.181c30.43 0 55.181 24.751 55.181 55.181zm-46.999 109.469c-5.294-1.901-10.752-3.43-16.361-4.541v-36.247c2.687.32 5.411.499 8.178.499 2.771 0 5.501-.179 8.183-.499zm-38.722 7.27h-264.558c-22.403 0-43.112 7.35-59.859 19.773l31.617 48.547h321.039l31.602-48.547c-16.719-12.422-37.443-19.773-59.841-19.773zm-74.008-77.998 54.556 9.011c-11.867-12.432-19.189-29.254-19.189-47.752 0-18.422 7.251-35.169 19.029-47.578l-54.339 8.88c11.853 8.766 19.551 22.85 19.551 38.698 0 15.872-7.722 29.97-19.608 38.741zm82.37 27.791-88.704-14.648v50.857h80.342c2.809 0 5.6.099 8.362.301zm44.359 49.059v-50.081c27.306-9.27 46.975-35.122 46.975-65.51 0-38.152-31.009-69.18-69.157-69.18-5.28 0-10.432.612-15.368 1.741l-.009-.01-118.353 19.34c-26.229.362-47.46 21.8-47.46 48.109 0 18.54 10.55 34.652 25.951 42.693v60.047h-86.45v-75.74h14.328c15.293 0 27.735-12.441 27.735-27.73v-57.891c0-15.288-12.442-27.73-27.735-27.73h-139.731c-15.288 0-27.729 12.442-27.729 27.73v57.892c0 15.288 12.441 27.73 27.729 27.73h14.333v91.32c-34.101 19.899-57.059 56.89-57.059 99.141 0 21.57 6.089 42.627 17.608 60.899 9.952 15.773 23.541 28.873 39.55 38.232-3.548 8.009-5.538 16.869-5.538 26.177 0 35.771 29.099 64.88 64.88 64.88 35.771 0 64.87-29.108 64.87-64.88 0-3.6-.311-7.138-.88-10.587h133.02c-.56 3.449-.871 6.988-.871 10.587 0 35.771 29.099 64.88 64.87 64.88 35.767 0 64.856-29.108 64.856-64.88 0-9.307-1.976-18.168-5.505-26.177 15.999-9.359 29.598-22.46 39.526-38.232 11.528-18.272 17.599-39.329 17.599-60.899.001-44.261-25.174-82.752-61.985-101.871zm-155.24-105.592c5.51 0 9.999-4.489 9.999-9.999s-4.489-9.999-9.999-9.999-10 4.489-10 9.999c.001 5.51 4.49 9.999 10 9.999zm133.058-31.95c-12.098 0-21.951 9.854-21.951 21.951 0 12.103 9.854 21.951 21.951 21.951 12.103 0 21.951-9.848 21.951-21.951.001-12.098-9.848-21.951-21.951-21.951zm0 57.901c19.82 0 35.936-16.13 35.936-35.95s-16.116-35.95-35.936-35.95-35.95 16.13-35.95 35.95 16.13 35.95 35.95 35.95z"/></g></svg>