<svg id="Layer_1-2" viewBox="0 0 64 64" xmlns="http://www.w3.org/2000/svg"><g id="Cooler"><path d="m14 59h6v4h-6z" fill="#95bcf4"/><path d="m44 59h6v4h-6z" fill="#95bcf4"/><path d="m12 59c-1.10253906 0-2-.89746094-2-2v-47.67578125c0-2.58691406 1.6484375-4.87402344 4.10253906-5.69042969 5.24023438-1.74804688 10.69726562-2.63378906 16.22167969-2.63378906h3.3515625c5.52441406 0 10.98144531.88574219 16.22167969 2.6328125 2.45410156.81738281 4.10253906 3.10449219 4.10253906 5.69140625v47.67578125c0 1.10253906-.89746094 2-2 2z" fill="#b6d4ff"/><path d="m16 47v-35.95996094c2.00488281-.58886719 4.05664062-1.05273438 6.09960938-1.37988281 2.70703125-.43847656 5.47265625-.66015625 8.22070312-.66015625h3.359375c4.83984375 0 9.65722656.68652344 14.31933594 2.04003906l.00097656 35.95996094z" fill="#95bcf4"/><circle cx="32" cy="54" fill="#95bcf4" r="2"/><circle cx="23" cy="54" fill="#95bcf4" r="2"/><circle cx="41" cy="54" fill="#95bcf4" r="2"/><g fill="#433d4c"><path d="m50.21386719 2.68457031c-5.34179688-1.78125-10.90527344-2.68457031-16.53808594-2.68457031h-3.3515625c-5.6328125 0-11.19628906.90332031-16.53808594 2.68457031-2.86230469.953125-4.78613281 3.62207031-4.78613281 6.63964844v47.67578125c0 1.65429688 1.34570312 3 3 3h1v3c0 .55273438.44726562 1 1 1h6c.55273438 0 1-.44726562 1-1v-3h22v3c0 .55273438.44726562 1 1 1h6c.55273438 0 1-.44726562 1-1v-3h1c1.65429688 0 3-1.34570312 3-3v-47.67578125c0-3.01757812-1.92382812-5.68652344-4.78613281-6.63964844zm-31.21386719 59.31542969h-4v-2h4zm30 0h-4v-2h4zm4-5c0 .55175781-.44824219 1-1 1h-40c-.55175781 0-1-.44824219-1-1v-47.67578125c0-2.15527344 1.37402344-4.06152344 3.41894531-4.74316406 5.13671875-1.71289062 10.48828125-2.58105469 15.90527344-2.58105469h3.3515625c5.41699219 0 10.76855469.86816406 15.90527344 2.58105469 2.04492188.68164062 3.41894531 2.58789062 3.41894531 4.74316406z"/><path d="m48.27832031 10.08007812c-4.75488281-1.38085938-9.66601562-2.08007812-14.59863281-2.08007812h-3.359375c-4.92156982 0-9.87902832.69464111-14.6015625 2.08007812-.42578125.125-.71875.51660156-.71875.95996094v35.95996094c0 .55273438.44726562 1 1 1h32c.55273438 0 1-.44726562 1-1v-35.95996094c0-.4453125-.29394531-.8359375-.72167969-.95996094zm-29.27832031 35.91992188h-2v-34.20507812c.66186523-.18334961 1.33105469-.33953857 2-.49462891zm12 0h-10v-4h10zm0-6h-10v-6h10zm0-8h-10v-6h10zm0-8h-10v-6h10zm0-8h-10v-5.1137085c2.9755249-.5592041 5.8494873-.8862915 9.3203125-.8862915h.6796875zm12 30h-10v-4h10zm0-6h-10v-6h10zm0-8h-10v-6h10zm0-8h-10v-6h10zm-10-8v-6h.6796875c3.12835693 0 6.24597168.31176758 9.3203125.89202881v5.10797119zm14 30h-2v-34.68048096c.66772461.15423584 1.33789062.29577637 2 .47735596z"/><circle cx="32" cy="5" r="1"/><circle cx="27" cy="5" r="1"/><circle cx="37" cy="5" r="1"/><path d="m32 50c-1.65429688 0-3 1.34570312-3 3s1.34570312 3 3 3 3-1.34570312 3-3-1.34570312-3-3-3zm0 4c-.55175781 0-1-.44824219-1-1s.44824219-1 1-1 1 .44824219 1 1-.44824219 1-1 1z"/><path d="m23 50c-1.65429688 0-3 1.34570312-3 3s1.34570312 3 3 3 3-1.34570312 3-3-1.34570312-3-3-3zm0 4c-.55175781 0-1-.44824219-1-1s.44824219-1 1-1 1 .44824219 1 1-.44824219 1-1 1z"/><path d="m41 50c-1.65429688 0-3 1.34570312-3 3s1.34570312 3 3 3 3-1.34570312 3-3-1.34570312-3-3-3zm0 4c-.55175781 0-1-.44824219-1-1s.44824219-1 1-1 1 .44824219 1 1-.44824219 1-1 1z"/></g></g></svg>