<svg id="Layer_1-2" viewBox="0 0 64 64" xmlns="http://www.w3.org/2000/svg"><g id="Airport"><circle cx="55" cy="17" fill="#4c8ff2" r="3"/><path d="m6 25-3-12h20l-3 12z" fill="#66a8ff"/><path d="m19 63v-28h14.21777344l.23535156-.66699219c1.125-3.19042969 4.15820312-5.33300781 7.546875-5.33300781s6.421875 2.14257812 7.546875 5.33300781l.23535156.66699219h12.21777344c1.10253906 0 2 .89746094 2 2v26z" fill="#d0e3fc"/><path d="m19 40v-5h14.21777344l.23535156-.66699219c1.125-3.18945312 4.15820312-5.33300781 7.546875-5.33300781s6.421875 2.14355469 7.546875 5.33300781l.23535156.66699219h12.21777344c1.10253906 0 2 .89746094 2 2v3z" fill="#66a8ff"/><path d="m7 35h12v28h-12z" fill="#e6f0ff"/><g fill="#66a8ff"><path d="m10 5h6v4h-6z"/><path d="m25 45h32v18h-32z"/><path d="m54 28c-5.51367188 0-10-4.48632812-10-10 0-2.66894531 1.04101562-5.1796875 2.9296875-7.0703125l14.140625 14.140625c-1.890625 1.88867188-4.40136719 2.9296875-7.0703125 2.9296875z"/></g><path d="m5 35-3-10h22l-3 10z" fill="#7dc1ff"/><path d="m3 13c-1.10253906 0-2-.89746094-2-2s.89746094-2 2-2h20c1.10253906 0 2 .89746094 2 2s-.89746094 2-2 2z" fill="#7dc1ff"/><path d="m61 34h-11.50976562c-.34619141-.98083496-.85754395-1.871521-1.49023438-2.65356445v-4.13885498c1.72741699 1.1295166 3.78643799 1.79241943 6 1.79241943 2.93652344 0 5.69824219-1.14453125 7.77734375-3.22265625.1875-.1875.29296875-.44140625.29296875-.70703125 0-.26464844-.10546875-.51953125-.29296875-.70703125l-4.26116943-4.26116943c.91711426-.73876953 1.48382568-1.85626221 1.48382568-3.10211182 0-2.20605469-1.79394531-4-4-4-1.24597168 0-2.36340332.56658936-3.10223389 1.48370361l-4.26104736-4.26104736c-.37597656-.37597656-1.04003906-.37402344-1.4140625 0-2.078125 2.07910156-3.22265625 4.84082031-3.22265625 7.77734375 0 2.91241455 1.14569092 5.55664062 3 7.52648926v3.99462891c-1.44329834-.96411133-3.16784668-1.52111816-5-1.52111816-3.84472656 0-7.23046875 2.43066406-8.49023438 6h-10.16564941l2.6138916-8.71289062c.09082031-.30273438.03320312-.63085938-.15527344-.88378906-.18945312-.25390625-.48632812-.40332031-.80273438-.40332031h-2.71972656l2.53143311-10.12567139c1.25842285-.35662842 2.18829346-1.50317383 2.18829346-2.87432861 0-1.65429688-1.34570312-3-3-3h-6v-3c0-.55273438-.44726562-1-1-1h-2v-3.00000002c0-.55273438-.44726562-1-1-1s-1 .44726562-1 1v3h-2c-.55273438 0-1 .44726562-1 1v3h-6c-1.65429688 0-3 1.34570312-3 3 0 1.37115479.92987061 2.5177002 2.18829346 2.87432861l2.53143311 10.12567139h-2.71972656c-.31640625 0-.61328125.14941406-.80273438.40332031-.18847656.25292969-.24609375.58105469-.15527344.88378906l3 10c.12695312.42285156.51660156.71289062.95800781.71289062h1v27c0 .55273438.44726562 1 1 1h56c.55273438 0 1-.44726562 1-1v-26c0-1.65429688-1.34570312-3-3-3zm-6-19c1.10253906 0 2 .89746094 2 2 0 .69818115-.35693359 1.31134033-.91601562 1.66992188l-2.75360107-2.75360107c.35827637-.55938721.97125244-.9163208 1.6696167-.9163208zm-8.03125-2.6171875 12.6484375 12.6484375c-1.59082031 1.27636719-3.55175781 1.96875-5.6171875 1.96875-4.96289062 0-9-4.03710938-9-9 0-2.06542969.69238281-4.02636719 1.96875-5.6171875zm-13.71875 23.6171875c.45605469 0 .85449219-.30859375.96875-.75.796875-3.09082031 3.58496094-5.25 6.78125-5.25s5.984375 2.15917969 6.78125 5.25c.11425781.44140625.51269531.75.96875.75h12.25c.55175781 0 1 .44824219 1 1v2h-42v-3zm-28.96875-22h7.71875v4h-6.71875zm9.71875 0h7.71875l-1 4h-6.71875zm6.21875 6-1 4h-5.21875v-4zm-9.21875-14h4v2h-4zm-8 4h20c.55175781 0 1 .44824219 1 1s-.44824219 1-1 1h-20c-.55175781 0-1-.44824219-1-1s.44824219-1 1-1zm2.78125 10h6.21875v4h-5.21875zm-2.4375 6h19.3125l-2.40039062 8h-14.51171876zm4.65625 10h10v26h-10zm38 10v7h-10v-7zm10 0v7h-8v-7zm-10 9v7h-10v-7zm-12-2h-8v-7h8zm-8 2h8v7h-8zm22 7v-7h8v7zm14 0h-4v-17c0-.55273438-.44726562-1-1-1h-32c-.55273438 0-1 .44726562-1 1v17h-4v-21h42z" fill="#292930"/><path d="m11 31h4c.55273438 0 1-.44726562 1-1s-.44726562-1-1-1h-4c-.55273438 0-1 .44726562-1 1s.44726562 1 1 1z" fill="#292930"/></g></svg>