<svg id="Layer_1" enable-background="new 0 0 64 64" viewBox="0 0 64 64" xmlns="http://www.w3.org/2000/svg"><g><g><ellipse cx="32" cy="32.83" fill="#ffeba8" rx="22.16" ry="22.16" transform="matrix(.707 -.707 .707 .707 -13.841 32.244)"/></g><g><ellipse cx="32" cy="32.83" fill="#ff8f83" rx="17.58" ry="17.58" transform="matrix(.385 -.923 .923 .385 -10.614 49.736)"/></g><g><path d="m17.11 10.67-8.86 11.6s-5.98-5.45-1.8-10.72c4.21-5.31 10.66-.88 10.66-.88z" fill="#ffa669"/></g><g><path d="m46.89 10.67 8.86 11.59s5.98-5.45 1.8-10.72c-4.21-5.3-10.66-.87-10.66-.87z" fill="#ffa669"/></g><g><path d="m18.94 50.73-3.42 5.54c-.61.98-.29 2.28.7 2.87.8.48 1.83.37 2.51-.28l5.52-5.27z" fill="#ffeba8"/></g><g><path d="m45.05 50.73 3.42 5.54c.61.98.29 2.28-.7 2.87-.8.48-1.83.37-2.51-.28l-5.52-5.27z" fill="#ffeba8"/></g><g><path d="m28.2 4.39h8.03v2.97h-8.03z" fill="#ffeba8"/></g><g><path d="m32 55.99c-12.77 0-23.16-10.39-23.16-23.16.01-12.77 10.39-23.16 23.16-23.16s23.16 10.39 23.16 23.16-10.39 23.16-23.16 23.16zm0-44.32c-11.67 0-21.16 9.49-21.16 21.16s9.49 21.16 21.16 21.16 21.16-9.49 21.16-21.16-9.49-21.16-21.16-21.16z"/></g><g><path d="m32 51.41c-10.25 0-18.58-8.34-18.58-18.58s8.33-18.58 18.58-18.58 18.58 8.34 18.58 18.58-8.33 18.58-18.58 18.58zm0-35.16c-9.14 0-16.58 7.44-16.58 16.58s7.44 16.58 16.58 16.58 16.58-7.44 16.58-16.58-7.43-16.58-16.58-16.58z"/></g><g><path d="m35.64 33.83h-3.64c-.55 0-1-.45-1-1v-7.22c0-.55.45-1 1-1s1 .45 1 1v6.22h2.64c.55 0 1 .45 1 1s-.45 1-1 1z"/></g><g><path d="m8.25 23.27c-.25 0-.49-.09-.67-.26-2.31-2.1-5.67-7.34-1.91-12.08 3.79-4.78 9.51-2.8 12.01-1.08.23.16.38.4.42.67s-.03.55-.19.76l-8.86 11.6c-.17.22-.43.36-.71.39-.03 0-.06 0-.09 0zm3.46-13.33c-1.51 0-3.13.54-4.48 2.23-2.72 3.43-.39 7 .94 8.56l7.46-9.76c-.9-.45-2.35-1.03-3.92-1.03z"/></g><g><path d="m6.45 12.55c-.2 0-.41-.06-.59-.19l-1.48-1.08c-.45-.33-.54-.95-.22-1.4.33-.45.95-.54 1.4-.22l1.48 1.08c.45.33.54.95.22 1.4-.2.27-.5.41-.81.41z"/></g><g><path d="m15.22 19.37c-.22 0-.44-.07-.62-.22l-2.48-1.97c-.43-.34-.5-.97-.16-1.41.34-.43.97-.5 1.41-.16l2.48 1.97c.43.34.5.97.16 1.41-.21.25-.5.38-.79.38z"/></g><g><path d="m55.75 23.27c-.03 0-.06 0-.09 0-.28-.03-.54-.17-.71-.39l-8.86-11.59c-.17-.22-.24-.49-.19-.76.04-.27.2-.51.42-.67 2.5-1.71 8.22-3.7 12.01 1.08 3.76 4.74.39 9.97-1.91 12.08-.18.16-.43.25-.67.25zm-7.38-12.3 7.46 9.76c1.33-1.56 3.66-5.13.94-8.56-2.75-3.46-6.64-2.09-8.4-1.2z"/></g><g><path d="m57.55 12.55c-.31 0-.61-.14-.81-.41-.33-.45-.23-1.07.22-1.4l1.48-1.08c.45-.33 1.07-.23 1.4.22s.23 1.07-.22 1.4l-1.48 1.08c-.18.13-.38.19-.59.19z"/></g><g><path d="m48.78 19.37c-.3 0-.59-.13-.78-.38-.34-.43-.27-1.06.16-1.41l2.48-1.97c.43-.34 1.06-.27 1.41.16.34.43.27 1.06-.16 1.41l-2.48 1.97c-.19.15-.41.22-.63.22z"/></g><g><path d="m17.29 60.44c-.55 0-1.09-.14-1.58-.44-.71-.43-1.21-1.11-1.4-1.91-.2-.81-.06-1.64.37-2.34l3.42-5.54c.29-.47.91-.62 1.38-.33s.62.91.33 1.38l-3.42 5.54c-.15.25-.2.54-.13.82s.24.52.49.67c.42.25.95.19 1.3-.14l5.52-5.27c.4-.38 1.03-.37 1.41.03s.37 1.03-.03 1.41l-5.52 5.27c-.6.56-1.37.85-2.14.85z"/></g><g><path d="m46.71 60.44c-.77 0-1.54-.29-2.13-.85l-5.52-5.27c-.4-.38-.41-1.01-.03-1.41s1.02-.41 1.41-.03l5.52 5.27c.35.33.88.4 1.3.14.25-.15.42-.39.49-.67s.02-.57-.13-.82l-3.42-5.54c-.29-.47-.14-1.09.33-1.38s1.09-.15 1.38.33l3.42 5.54c.44.71.57 1.54.37 2.34-.2.81-.69 1.48-1.4 1.91-.5.29-1.05.44-1.59.44z"/></g><g><path d="m32 19.37c-.55 0-1-.45-1-1v-3.12c0-.55.45-1 1-1s1 .45 1 1v3.12c0 .55-.45 1-1 1z"/></g><g><path d="m32 51.41c-.55 0-1-.45-1-1v-3.12c0-.55.45-1 1-1s1 .45 1 1v3.12c0 .56-.45 1-1 1z"/></g><g><path d="m49.58 33.83h-3.12c-.55 0-1-.45-1-1s.45-1 1-1h3.12c.55 0 1 .45 1 1s-.44 1-1 1z"/></g><g><path d="m17.54 33.83h-3.12c-.55 0-1-.45-1-1s.45-1 1-1h3.12c.55 0 1 .45 1 1s-.45 1-1 1z"/></g><g><path d="m42.23 23.6c-.26 0-.51-.1-.71-.29-.39-.39-.39-1.02 0-1.41l2.21-2.21c.39-.39 1.02-.39 1.41 0s.39 1.02 0 1.41l-2.21 2.21c-.19.2-.45.29-.7.29z"/></g><g><path d="m19.57 46.26c-.26 0-.51-.1-.71-.29-.39-.39-.39-1.02 0-1.41l2.21-2.21c.39-.39 1.02-.39 1.41 0s.39 1.02 0 1.41l-2.21 2.21c-.19.2-.45.29-.7.29z"/></g><g><path d="m44.43 46.26c-.26 0-.51-.1-.71-.29l-2.21-2.21c-.39-.39-.39-1.02 0-1.41s1.02-.39 1.41 0l2.21 2.21c.39.39.39 1.02 0 1.41-.18.2-.44.29-.7.29z"/></g><g><path d="m21.78 23.6c-.26 0-.51-.1-.71-.29l-2.21-2.21c-.39-.39-.39-1.02 0-1.41s1.02-.39 1.41 0l2.21 2.21c.39.39.39 1.02 0 1.41-.19.2-.45.29-.7.29z"/></g><g><path d="m11.35 49.29c-.28 0-.56-.12-.76-.35-6.58-7.71-5.59-18.39-5.54-18.84.06-.55.54-.96 1.09-.89.55.05.95.54.9 1.09-.01.1-.94 10.29 5.08 17.34.36.42.31 1.05-.11 1.41-.2.16-.43.24-.66.24z"/></g><g><path d="m52.96 49.29c-.23 0-.46-.08-.65-.24-.42-.36-.47-.99-.11-1.41 6.04-7.07 5.09-17.24 5.08-17.34-.06-.55.34-1.04.89-1.1.56-.05 1.04.35 1.1.89.04.45 1.04 11.13-5.54 18.84-.21.24-.49.36-.77.36z"/></g><g><path d="m32 11.67c-.55 0-1-.45-1-1v-3.31c0-.55.45-1 1-1s1 .45 1 1v3.32c0 .55-.45.99-1 .99z"/></g><g><path d="m36.23 8.36h-8.03c-.55 0-1-.45-1-1v-2.97c0-.55.45-1 1-1h8.03c.55 0 1 .45 1 1v2.97c0 .55-.44 1-1 1zm-7.03-2h6.03v-.97h-6.03z"/></g></g></svg>