<svg enable-background="new 0 0 512 512" viewBox="0 0 512 512" xmlns="http://www.w3.org/2000/svg"><g id="_x30_7_x2C__Flasher_Light_x2C__Alarm_x2C__Casino_x2C__Warning_x2C__Lights_x2C__Winner_x2C__Light_Bulb_x2C__Technology"><g><path d="m148.69 121c-35.99 0-63.89 31.47-59.57 67.2l30.55 252.8 56.569 20.94 79.761-20.94 7.8-154-7.8-166z" fill="#df6378"/><path d="m363.31 121h-107.31v320l80 20.94 56.33-20.94 30.55-252.8c4.32-35.73-23.58-67.2-59.57-67.2z" fill="#cf1273"/><circle cx="256" cy="281" fill="#f2d744" r="40"/><path d="m461 471v30h-410v-30c0-16.57 13.43-30 30-30h38.67 136.33 136.33 38.67c16.57 0 30 13.43 30 30z" fill="#eae4f0"/><g><path d="m431 431h-27.389l29.196-241.602c5.052-41.805-27.661-78.398-69.494-78.398h-214.626c-42.109 0-74.513 36.867-69.494 78.398l29.196 241.602h-27.389c-22.056 0-40 17.944-40 40v30c0 5.523 4.477 10 10 10h410c5.523 0 10-4.477 10-10v-30c0-22.056-17.944-40-40-40zm-18.048-244.001-29.486 244.001h-117.466v-101.006c22.795-4.646 40-24.847 40-48.994s-17.205-44.348-40-48.994v-101.006h97.313c30.021 0 53.229 26.284 49.639 55.999zm-156.952 64.001c16.542 0 30 13.458 30 30s-13.458 30-30 30-30-13.458-30-30 13.458-30 30-30zm-156.952-64.001c-3.601-29.805 19.708-55.999 49.639-55.999h97.313v101.006c-22.795 4.646-40 24.847-40 48.994s17.205 44.348 40 48.994v101.006h-117.466zm351.952 304.001h-390v-20c0-11.028 8.972-20 20-20h350c11.028 0 20 8.972 20 20z"/><path d="m256 91c5.523 0 10-4.477 10-10v-70c0-5.523-4.477-10-10-10s-10 4.477-10 10v70c0 5.523 4.477 10 10 10z"/><path d="m203.929 88.071c3.905 3.905 10.238 3.905 14.143 0s3.905-10.237 0-14.143l-49.498-49.498c-3.905-3.905-10.237-3.905-14.143 0-3.905 3.905-3.905 10.237 0 14.143z"/><path d="m308.071 88.071 49.498-49.498c3.905-3.905 3.905-10.237 0-14.143-3.905-3.905-10.237-3.905-14.143 0l-49.498 49.498c-3.905 3.905-3.905 10.237 0 14.143 3.906 3.906 10.239 3.905 14.143 0z"/></g></g></g><g id="Layer_1"/></svg>