<svg id="Filled_Expand" height="512" viewBox="0 0 64 64" width="512" xmlns="http://www.w3.org/2000/svg" data-name="Filled Expand"><path d="m40 5h12a3 3 0 0 1 3 3v5a0 0 0 0 1 0 0h-18a0 0 0 0 1 0 0v-5a3 3 0 0 1 3-3z" fill="#5f6482"/><path d="m11 6h4a3 3 0 0 1 3 3v4a0 0 0 0 1 0 0h-10a0 0 0 0 1 0 0v-4a3 3 0 0 1 3-3z" fill="#5f6482"/><path d="m21 6h4a3 3 0 0 1 3 3v4a0 0 0 0 1 0 0h-10a0 0 0 0 1 0 0v-4a3 3 0 0 1 3-3z" fill="#464b69"/><rect fill="#f55a8c" height="42" rx="3" width="60" x="2" y="13"/><path d="m2 20h60v28h-60z" fill="#96e1ff"/><path d="m9 39.25a1.75 1.75 0 0 0 0 3.5h4a1.75 1.75 0 0 0 0-3.5h-.25v-12.25a1.749 1.749 0 0 0 -1.75-1.75h-2a1.75 1.75 0 0 0 0 3.5h.25v10.5z"/><path d="m19 39.25a1.75 1.75 0 0 0 0 3.5h4a1.75 1.75 0 0 0 0-3.5h-.25v-12.25a1.749 1.749 0 0 0 -1.75-1.75h-2a1.75 1.75 0 0 0 0 3.5h.25v10.5z"/><path d="m37.5 42.75a5.256 5.256 0 0 0 5.25-5.25v-7a5.25 5.25 0 0 0 -10.5 0v7a5.256 5.256 0 0 0 5.25 5.25zm-1.75-12.25a1.75 1.75 0 0 1 3.5 0v7a1.75 1.75 0 0 1 -3.5 0z"/><path d="m51.5 42.75a5.256 5.256 0 0 0 5.25-5.25v-7a5.25 5.25 0 0 0 -10.5 0v7a5.256 5.256 0 0 0 5.25 5.25zm-1.75-12.25a1.75 1.75 0 0 1 3.5 0v7a1.75 1.75 0 0 1 -3.5 0z"/><circle cx="28" cy="30.5" r="1.75"/><circle cx="28" cy="37.5" r="1.75"/><path d="m59 11.25h-2.25v-3.25a4.756 4.756 0 0 0 -4.75-4.75h-12a4.756 4.756 0 0 0 -4.75 4.75v3.25h-5.5v-2.25a4.756 4.756 0 0 0 -4.75-4.75h-4a4.732 4.732 0 0 0 -3 1.071 4.732 4.732 0 0 0 -3-1.071h-4a4.756 4.756 0 0 0 -4.75 4.75v2.25h-1.25a4.756 4.756 0 0 0 -4.75 4.75v36a4.756 4.756 0 0 0 4.75 4.75h.25v2.25a1.75 1.75 0 0 0 3.5 0v-2.25h46.5v2.25a1.75 1.75 0 0 0 3.5 0v-2.25h.25a4.756 4.756 0 0 0 4.75-4.75v-36a4.756 4.756 0 0 0 -4.75-4.75zm-20.25-3.25a1.252 1.252 0 0 1 1.25-1.25h12a1.252 1.252 0 0 1 1.25 1.25v3.25h-14.5zm-19 1a1.252 1.252 0 0 1 1.25-1.25h4a1.252 1.252 0 0 1 1.25 1.25v2.25h-6.5zm-10 0a1.252 1.252 0 0 1 1.25-1.25h4a1.252 1.252 0 0 1 1.25 1.25v2.25h-6.5zm50.5 43a1.252 1.252 0 0 1 -1.25 1.25h-54a1.252 1.252 0 0 1 -1.25-1.25v-2.25h56.5zm0-5.75h-56.5v-24.5h56.5zm0-28h-56.5v-2.25a1.252 1.252 0 0 1 1.25-1.25h54a1.252 1.252 0 0 1 1.25 1.25z"/></svg>