<svg id="Layer_1" enable-background="new 0 0 512 512" viewBox="0 0 512 512" xmlns="http://www.w3.org/2000/svg"><g clip-rule="evenodd" fill-rule="evenodd"><g><g><path d="m420.24 19.384h19.168c3.287 0 5.976 2.688 5.976 5.976v372.747c0 3.288-2.689 5.976-5.976 5.976h-19.168c-3.287 0-5.976-2.688-5.976-5.976v-372.747c0-3.288 2.689-5.976 5.976-5.976zm-349.64 0h23.152c2.191 0 3.984 1.793 3.984 3.983v376.733c0 2.19-1.793 3.983-3.984 3.983h-23.152c-2.191 0-3.984-1.793-3.984-3.983v-376.733c0-2.19 1.793-3.983 3.984-3.983z" fill="#7a8c98"/><path d="m427.737 19.384h11.671c3.287 0 5.976 2.688 5.976 5.976v372.747c0 3.288-2.689 5.976-5.976 5.976h-11.671c3.287 0 5.976-2.688 5.976-5.976v-372.747c-.001-3.288-2.69-5.976-5.976-5.976zm-345.656 0h11.671c2.191 0 3.984 1.793 3.984 3.983v376.733c0 2.19-1.793 3.983-3.984 3.983h-11.671c2.191 0 3.984-1.793 3.984-3.983v-376.733c-.001-2.19-1.793-3.983-3.984-3.983z" fill="#596c76"/><path d="m48.313 382.297h67.726c3.287 0 5.976 2.689 5.976 5.976v19.678c0 3.287-2.689 5.976-5.976 5.976h-67.726c-3.287 0-5.975-2.689-5.975-5.976v-19.678c-.001-3.287 2.688-5.976 5.975-5.976zm347.648 0h67.726c3.287 0 5.975 2.689 5.975 5.976v19.678c0 3.287-2.689 5.976-5.975 5.976h-67.726c-3.287 0-5.976-2.689-5.976-5.976v-19.678c0-3.287 2.689-5.976 5.976-5.976z" fill="#8d9ca8"/><path d="m112.014 382.297h4.024c3.287 0 5.976 2.689 5.976 5.976v19.678c0 3.287-2.689 5.976-5.976 5.976h-67.725c-3.287 0-5.975-2.689-5.975-5.976v-4.024h63.702c3.287 0 5.976-2.689 5.976-5.976v-15.654zm347.648 0h4.025c3.287 0 5.975 2.689 5.975 5.976v19.678c0 3.287-2.689 5.976-5.975 5.976h-67.726c-3.287 0-5.976-2.689-5.976-5.976v-4.024h63.702c3.287 0 5.975-2.689 5.975-5.976z" fill="#7a8c98"/></g><g><path d="m14.976 50.653h482.048c3.288 0 5.976 2.689 5.976 5.976v208.551c0 3.287-2.688 5.976-5.976 5.976h-482.048c-3.288 0-5.976-2.689-5.976-5.976v-208.551c0-3.287 2.689-5.976 5.976-5.976z" fill="#ffda2d"/><path d="m483 50.653h14.024c3.288 0 5.976 2.689 5.976 5.976v208.551c0 3.287-2.688 5.976-5.976 5.976h-482.048c-3.288 0-5.976-2.689-5.976-5.976v-14.024h468.024c3.288 0 5.976-2.689 5.976-5.976z" fill="#ffc700"/></g><g><path d="m340.98 201.932 159.712 266.526c6.393 10.669-1.25 24.158-13.688 24.158h-312.748c-12.437 0-20.081-13.489-13.687-24.158l159.713-266.526c4.673-7.801 16.024-7.801 20.698 0z" fill="#fc685b"/><path d="m340.98 201.932 159.712 266.526c6.393 10.669-1.25 24.158-13.688 24.158h-312.748c-9.776 0-16.588-8.334-15.952-17.082h298.94c12.437 0 20.081-13.489 13.688-24.158l-150.034-250.374c4.989-6.857 15.602-6.547 20.082.93z" fill="#f35244"/><path d="m330.631 432.325c9.419 0 17.055 7.635 17.055 17.054 0 9.42-7.635 17.055-17.055 17.055-9.419 0-17.054-7.635-17.054-17.055-.001-9.419 7.635-17.054 17.054-17.054zm13.253-33.657c0 16.601-26.506 16.601-26.506 0l-8.136-118.13c0-26.794 42.778-26.795 42.778 0z" fill="#ffda2d"/><path d="m330.631 432.325c5.886 0 11.076 2.982 14.141 7.517-1.029-.194-2.091-.297-3.177-.297-9.419 0-17.054 7.635-17.054 17.054 0 3.533 1.074 6.815 2.914 9.537-7.901-1.488-13.878-8.424-13.878-16.758-.001-9.418 7.635-17.053 17.054-17.053zm-1.266-21.257c-6.179-.495-11.988-4.629-11.988-12.4l-8.136-118.13c0-21.911 28.603-25.9 39.029-11.975-12.376-3.428-28.065 2.968-28.065 19.195l8.136 118.13c.001 1.959.374 3.684 1.024 5.18z" fill="#ffc700"/></g></g><path d="m335.889 398.118c-.014.184-.019.363-.019.552 0 4.013-3.674 4.452-5.253 4.452-1.58 0-5.249-.439-5.249-4.452 0-.189-.009-.368-.019-.552l-8.111-117.828c.16-11.511 12.021-11.851 13.379-11.851 1.363 0 13.223.34 13.393 11.851zm-5.272-145.679c-14.6 0-29.388 9.653-29.388 28.101 0 .179.009.358.019.552l8.121 117.88c.16 11.507 9.238 20.151 21.249 20.151s21.098-8.644 21.254-20.151l8.116-117.88c.009-.193.024-.372.024-.552-.002-18.448-14.786-28.101-29.395-28.101zm0 205.989c-4.989 0-9.05-4.06-9.05-9.05 0-4.989 4.06-9.045 9.05-9.045 4.989 0 9.059 4.056 9.059 9.045 0 4.99-4.07 9.05-9.059 9.05zm0-34.095c-13.808 0-25.05 11.228-25.05 25.045 0 13.812 11.242 25.05 25.05 25.05 13.822 0 25.059-11.238 25.059-25.05 0-13.817-11.238-25.045-25.059-25.045zm163.32 56.259c.693-1.212 2.051-4.414-.118-8.022l-159.713-266.528c-1.061-1.768-2.787-1.962-3.49-1.962-.689 0-2.419.193-3.49 1.962l-159.707 266.529c-2.165 3.608-.802 6.81-.118 8.022.684 1.207 2.735 4.027 6.941 4.027h312.758c4.207 0 6.258-2.821 6.937-4.028zm-257.065-217.429 54.797-204.512h53.547l-41.72 155.7-29.243 48.813h-37.381zm-147.15 111.136h-15.119v-95.135h15.119zm24.281 31.633h-63.676v-15.632h63.677v15.632zm-49.246-347.281-47.766 178.269v-178.269zm9.846-31.27h15.119v15.269h-15.119zm146.952 31.27h53.548l-54.797 204.512h-53.547zm-70.118 0h53.552l-54.797 204.512h-53.552zm-16.567 0h-53.551l-54.797 204.512h53.552zm287.388-31.27h15.109v15.269h-15.109zm24.96 235.782 47.77-178.274v178.274zm-40.961 16.001v16.147l-9.691-16.147zm-37.547-46.502-20.881-34.84c-3.65-6.102-10.092-9.743-17.212-9.743-1.217 0-2.429.122-3.598.33l34.769-129.758h53.547zm18.279 30.501-6.833-11.393 51.741-193.119h53.561l-54.802 204.512zm50.378 84.087-15.109-25.239v-42.847h15.109zm70.18 117.101-54.179-90.401v-94.787h43.64c7.71 0 13.982-6.272 13.982-13.982v-208.553c0-7.706-6.272-13.978-13.982-13.978h-43.64v-17.288c0-7.71-6.258-13.982-13.968-13.982h-19.17c-7.715 0-13.973 6.272-13.973 13.982v17.288h-300.535v-19.278c0-6.612-5.371-11.992-11.983-11.992h-23.149c-6.611 0-11.987 5.381-11.987 11.992v19.278h-43.635c-7.71 0-13.977 6.272-13.977 13.978v208.554c0 7.71 6.267 13.982 13.977 13.982h43.635v95.135h-10.304c-7.705 0-13.972 6.272-13.972 13.973v19.679c0 7.71 6.267 13.982 13.972 13.982h67.728c7.71 0 13.978-6.272 13.978-13.982v-19.679c0-7.701-6.267-13.973-13.978-13.973h-10.304v-95.135h158.945l-110.972 185.187c-4.504 7.507-4.622 16.529-.316 24.131 4.305 7.597 12.105 12.138 20.862 12.138h312.758c8.757 0 16.557-4.541 20.858-12.138 4.31-7.602 4.192-16.623-.311-24.131z"/></g></svg>