<svg id="Capa_1" enable-background="new 0 0 512 512" height="512" viewBox="0 0 512 512" width="512" xmlns="http://www.w3.org/2000/svg"><g><g><path d="m483.95 236.804c-25.278 10.712-43.012 35.75-43.012 64.934v24.24c0 22.117-17.416 40.727-39.526 41.248-22.776.537-41.474-17.833-41.474-40.488v-215.312c0-50.169-35.549-92.033-82.831-101.782h-18.959l-44.333 29.524-24.442 52v210.667l4.903 8.241c.164-.016.324-.044.49-.053 7.796-.444 14.257 5.746 14.257 13.446v41.531c0 36.175-29.325 65.5-65.5 65.5h-26c-36.927 0-68.958 20.958-84.848 51.628-5.22 10.076 1.883 22.466 13.23 22.371 5.581-.047 10.689-3.183 13.224-8.163 10.82-21.265 32.9-35.836 58.395-35.836h26c52.743 0 95.5-42.757 95.5-95.5v-37.567c0-9.523 7.792-17.609 17.313-17.43 9.232.173 16.663 7.711 16.663 16.985v38.012c0 52.743 42.757 95.5 95.5 95.5h26c25.408 0 47.425 14.473 58.284 35.621 2.517 4.901 7.466 8.204 12.973 8.372 11.451.349 19.046-11.653 13.902-21.758-15.781-31-47.99-52.234-85.159-52.234h-26c-36.175 0-65.5-29.325-65.5-65.5v-41.151c0-7.252 5.573-13.492 12.817-13.834 7.735-.365 14.121 5.799 14.121 13.453 0 44.437 33.372 73.412 69.805 73.765 39.191.38 71.195-31.391 71.195-70.497v-25c0-16.671 10.075-30.981 24.467-37.19 5.297-2.286 9.087-7.162 9.107-14.279.029-10.54-10.858-17.576-20.562-13.464z" fill="#23f1a8"/><g><path d="m41.086 325.839c0 38.814 30.993 71.02 69.805 71.396 36.46.353 70.968-27.482 71.194-73.311.035-7.063 5.221-13.185 12.191-13.847v-198.65c0-50.169 35.549-92.033 82.831-101.782-6.812-1.404-13.867-2.144-21.095-2.144-57.397 0-103.926 46.529-103.926 103.926v214.552c0 22.117-17.415 40.726-39.526 41.248-22.776.538-41.474-17.833-41.474-40.488v-25c0-29.296-17.87-54.414-43.304-65.057-9.146-3.827-20.552 2.268-20.265 14.769.133 5.811 3.897 10.831 9.227 13.151 14.325 6.238 24.342 20.514 24.342 37.136v24.101z" fill="#26d192"/></g><path d="m318.949 138.092c-12.706-17.908-32.854-30.159-55.941-32.236l-8.195 1.312-15.333 11-9.833 15.747-1.823 12.863v40.085l.448-.446h56.25l3.424 4.179c12.466-5.681 23.155-14.585 31.003-25.647 5.716-8.054 5.716-18.801 0-26.857z" fill="#f9f6f6"/><path d="m228.799 153.207c0-22.07 14.342-40.78 34.209-47.35-2.305-.207-4.638-.316-6.997-.316-25.989 0-48.963 12.857-62.938 32.552-5.716 8.056-5.716 18.803 0 26.858 7.849 11.062 18.537 19.966 31.003 25.647l4.195-4.179h13.204c-7.879-8.82-12.676-20.454-12.676-33.212z" fill="#e2d8ec"/><path d="m271.789 137.413h-6.475l-17.833 19.423-4 17 1.753 14.5 4.607 8.922c2.036.161 4.094.246 6.171.246 11.392 0 22.205-2.471 31.934-6.905 3.426-5.642 5.399-12.265 5.399-19.348 0-14.981-8.825-27.892-21.556-33.838z" fill="#5169cd"/><path d="m247.361 178.033c0-17.605 9.897-32.893 24.428-40.62-4.793-2.239-10.137-3.497-15.777-3.497-20.619 0-37.333 16.715-37.333 37.333 0 7.083 1.973 13.706 5.399 19.348 8.471 3.861 17.764 6.232 27.544 6.781-2.732-5.881-4.261-12.434-4.261-19.345z" fill="#3351c5"/><path d="m138.985 9.886h-3.713l-6.5 9.033v14.125l6.5 7 3.713.445c5.281-3.059 8.843-8.758 8.843-15.301s-3.561-12.243-8.843-15.302z" fill="#23f1a8"/><path d="m130.142 25.187c0-6.543 3.562-12.242 8.844-15.301-2.604-1.508-5.618-2.385-8.844-2.385-9.768 0-17.687 7.919-17.687 17.687s7.919 17.687 17.687 17.687c3.226 0 6.24-.877 8.844-2.385-5.282-3.061-8.844-8.76-8.844-15.303z" fill="#26d192"/><path d="m390.725 9.886h-3.713l-6.5 9.033v14.125l6.5 7 3.713.445c5.281-3.059 8.843-8.758 8.843-15.301s-3.562-12.243-8.843-15.302z" fill="#23f1a8"/><path d="m381.882 25.187c0-6.543 3.562-12.242 8.844-15.301-2.604-1.508-5.618-2.385-8.844-2.385-9.768 0-17.687 7.919-17.687 17.687s7.919 17.687 17.687 17.687c3.226 0 6.24-.877 8.844-2.385-5.282-3.061-8.844-8.76-8.844-15.303z" fill="#26d192"/></g><g><path d="m301.262 233.762c-2.086-3.579-6.682-4.787-10.257-2.7-21.558 12.574-48.423 12.591-70.01 0-3.578-2.087-8.17-.878-10.257 2.7-2.087 3.577-.878 8.17 2.7 10.257.99.578 1.996 1.127 3.007 1.663l-4.506 10.588c-1.622 3.811.153 8.216 3.965 9.838 3.82 1.624 8.218-.16 9.838-3.965l4.534-10.654c16.314 5.201 34.214 5.494 51.447 0l4.534 10.654c1.62 3.805 6.018 5.589 9.838 3.965 3.812-1.622 5.587-6.027 3.965-9.838l-4.506-10.588c1.011-.536 2.017-1.085 3.007-1.663 3.579-2.087 4.788-6.68 2.701-10.257z"/><path d="m325.055 169.291c7.541-10.628 7.541-24.91 0-35.538-12.018-16.938-29.724-28.841-49.858-33.515-4.044-.939-8.065 1.575-9.002 5.609-.937 4.035 1.575 8.065 5.609 9.002 16.558 3.844 31.125 13.64 41.017 27.583 3.857 5.437 3.857 12.742 0 18.179-3.483 4.909-7.553 9.285-12.07 13.071 1.406-25.881-19.286-47.266-44.75-47.266-25.458 0-46.156 21.381-44.75 47.266-4.517-3.786-8.587-8.162-12.07-13.071-3.857-5.437-3.857-12.742 0-18.179 9.893-13.943 24.46-23.739 41.017-27.583 4.034-.937 6.546-4.967 5.609-9.002-.937-4.034-4.97-6.549-9.002-5.609-20.133 4.674-37.84 16.576-49.858 33.515-7.541 10.628-7.541 24.91 0 35.538 33.792 47.624 104.388 47.52 138.108 0zm-42.407 15.384c-8.608 3.575-17.713 5.328-26.648 5.328-8.962 0-18.068-1.764-26.648-5.328-9.998-19.837 4.524-43.259 26.648-43.259s36.647 23.421 26.648 43.259z"/><path d="m502.127 231.866c-6.28-4.173-14.174-4.909-21.116-1.967-28.906 12.249-47.585 40.448-47.585 71.839v24.24c0 18.191-14.446 33.331-32.203 33.75-18.447.463-33.797-14.411-33.797-32.99v-94.235c0-4.143-3.357-7.5-7.5-7.5s-7.5 3.357-7.5 7.5v94.235c0 26.896 22.107 48.588 49.15 47.986 25.833-.609 46.85-22.477 46.85-48.746v-24.24c0-25.355 15.088-48.133 38.438-58.028 2.323-.982 4.861-.745 6.964.65 2.023 1.344 3.18 3.49 3.173 5.888-.01 3.613-1.55 6.107-4.578 7.413-17.614 7.6-28.996 24.9-28.996 44.077v25c0 34.759-28.229 63-62.998 63-.207 0-.417-.001-.625-.003-30.238-.293-62.377-23.617-62.377-66.266 0-11.651-9.657-21.497-21.974-20.945-11.194.527-19.964 9.895-19.964 21.326v41.15c0 40.252 32.748 73 73 73h26c33.29 0 63.36 18.445 78.476 48.137 1.729 3.396.321 6.276-.363 7.356-3.127 4.929-10.35 4.669-13.156-.798-12.572-24.485-37.462-39.695-64.956-39.695h-26c-48.523 0-88-39.477-88-88v-38.012c0-13.251-10.776-24.234-24.022-24.484-13.862-.254-24.954 11.349-24.954 24.93v37.566c0 48.523-39.477 88-88 88h-26c-27.608 0-52.545 15.302-65.079 39.935-2.503 4.92-9.653 5.692-12.804.556-1.496-2.437-1.61-5.394-.307-7.911 15.205-29.348 45.166-47.579 78.189-47.579h26c40.252 0 73-32.748 73-73v-41.531c0-11.684-9.748-21.626-22.185-20.935-11.021.628-19.698 10.007-19.754 21.352-.207 41.863-31.554 66.189-63.621 65.849-34.396-.334-62.378-28.998-62.378-63.896v-24.101c0-19.105-11.323-36.382-28.849-44.013-2.807-1.223-4.66-3.753-4.723-6.447-.091-3.967 1.652-6.002 3.131-7.011 1.955-1.334 4.537-1.589 6.741-.667 23.509 9.837 38.699 32.657 38.699 58.138v25c0 26.891 22.108 48.594 49.151 47.986 25.832-.609 46.849-22.477 46.849-48.746v-214.553c0-14.836 3.371-28.899 9.383-41.467 6.112 2.747 12.859 4.961 20.257 6.295 4.083.735 7.977-1.98 8.712-6.05.735-4.076-1.974-7.977-6.05-8.712-5.541-.999-10.649-2.612-15.348-4.609 17.402-25.276 46.532-41.882 79.472-41.882s62.07 16.607 79.472 41.883c-4.699 1.997-9.807 3.61-15.348 4.609-4.076.735-6.785 4.636-6.05 8.712.735 4.074 4.632 6.784 8.712 6.05 7.397-1.334 14.145-3.548 20.257-6.295 6.012 12.568 9.383 26.631 9.383 41.467v86.076c0 4.143 3.357 7.5 7.5 7.5s7.5-3.357 7.5-7.5v-86.076c0-17.462-4.042-33.997-11.233-48.724 6.697-4.427 12.306-9.324 16.832-13.936 2.754 1.036 5.733 1.608 8.845 1.608 13.888 0 25.187-11.299 25.187-25.187s-11.299-25.187-25.187-25.187-25.187 11.299-25.187 25.187c0 5.291 1.644 10.203 4.442 14.261-3.472 3.415-7.624 6.949-12.435 10.208-20.001-29.916-54.081-49.656-92.69-49.656s-72.689 19.741-92.69 49.655c-4.811-3.259-8.963-6.793-12.435-10.208 2.798-4.058 4.442-8.97 4.442-14.261 0-13.888-11.299-25.187-25.187-25.187s-25.187 11.299-25.187 25.187 11.299 25.187 25.187 25.187c3.112 0 6.092-.571 8.845-1.608 4.526 4.613 10.136 9.509 16.832 13.936-7.191 14.727-11.233 31.262-11.233 48.724v214.552c0 18.191-14.446 33.331-32.202 33.75-18.41.485-33.798-14.398-33.798-32.99v-25c0-31.545-18.806-59.797-47.908-71.976-6.942-2.903-14.787-2.114-20.985 2.114-6.337 4.323-9.862 11.521-9.674 19.746.196 8.515 5.586 16.309 13.73 19.854 12.051 5.248 19.837 17.126 19.837 30.261v24.101c0 43.09 34.646 78.482 77.232 78.896.249.002.494.003.742.003 40.415-.002 77.779-31.156 78.024-80.778.017-3.438 2.479-6.271 5.607-6.448 3.516-.194 6.331 2.575 6.331 5.958v41.531c0 31.981-26.019 58-58 58h-26c-38.65 0-73.714 21.335-91.508 55.679-3.746 7.229-3.431 15.7.842 22.659 9.212 15.004 31.068 13.9 38.956-1.601 9.961-19.576 29.775-31.737 51.71-31.737h26c56.794 0 103-46.206 103-103v-37.566c0-5.279 4.302-10.028 9.672-9.932 5.131.097 9.305 4.352 9.305 9.486v38.012c0 56.794 46.206 103 103 103h26c21.844 0 41.62 12.088 51.612 31.547 8.126 15.824 29.859 16.656 39.167 1.98 4.294-6.771 4.692-15.067 1.063-22.195-17.688-34.747-52.881-56.332-91.843-56.332h-26c-31.981 0-58-26.019-58-58v-41.15c0-3.35 2.543-6.195 5.67-6.343 3.596-.135 6.268 2.683 6.268 5.962 0 47.379 35.506 80.86 77.232 81.266.258.002.516.004.774.004 43.041-.002 77.993-34.938 77.993-78.001v-25c0-13.184 7.826-25.078 19.938-30.304 8.513-3.672 13.61-11.577 13.637-21.145.022-7.416-3.669-14.303-9.871-18.423zm-120.257-216.865c5.617 0 10.187 4.569 10.187 10.187s-4.569 10.187-10.187 10.187-10.187-4.569-10.187-10.187 4.57-10.187 10.187-10.187zm-251.74 20.373c-5.617 0-10.187-4.569-10.187-10.187s4.569-10.187 10.187-10.187 10.187 4.569 10.187 10.187-4.57 10.187-10.187 10.187z"/></g></g></svg>