<svg id="Capa_1" enable-background="new 0 0 511.958 511.958" height="512" viewBox="0 0 511.958 511.958" width="512" xmlns="http://www.w3.org/2000/svg"><g><g><path d="m413.255 491.749c-5.874-46.9-16.078-100.245-32.489-106.887-29.965-12.129-69.204 0-79.906-32.819-3.204-9.824-4.545-18.521-4.863-25.897l-4.871-2.496h-22.403l-20.233 42.65-56.037 11.684-23.664 10-27.663 104s4.652 6.015 9.432 12.475h251.504c6.798-.001 12.038-5.966 11.193-12.71z" fill="#26d192"/><path d="m152.946 491.749c5.874-46.9 16.078-100.245 32.489-106.887 29.965-12.129 69.204 0 79.906-32.819 3.204-9.824 4.544-18.521 4.863-25.897l5.405-2.496h-54.221l-5.405 2.496c-.318 7.377-1.659 16.073-4.863 25.897-10.702 32.819-49.941 20.69-79.906 32.819-16.411 6.642-26.615 59.986-32.489 106.887-.845 6.745 4.395 12.709 11.193 12.709h54.221c-6.798 0-12.038-5.965-11.193-12.709z" fill="#19a56f"/><path d="m317.66 20.525c-11.167-4.949-22.769-8.488-34.559-10.625h-34.61l-72.44 38.519-10.823 90.931 27.226 126.93 56.037 59.919 33.199 9.804s.296.541.783 1.498c.689-.481 1.372-.975 2.041-1.498 17.127-13.401 37.991-35.108 50.697-67.436 16.245-41.332 52.281-29.881 47.558-79.208-.979-10.227.255-20.542 3.502-30.289 9.979-29.963 20.948-98.855-68.611-138.545z" fill="#23f1a8"/><path d="m281.689 336.001c-17.127-13.401-37.991-35.108-50.697-67.436-16.245-41.332-52.281-29.881-47.558-79.208.979-10.227-.255-20.542-3.502-30.289-9.981-29.962-20.95-98.853 68.61-138.544 11.167-4.949 22.769-8.488 34.559-10.625-29.719-5.388-60.631-1.849-88.78 10.625-89.559 39.69-78.59 108.582-68.61 138.544 3.247 9.748 4.481 20.062 3.502 30.289-4.723 49.326 31.313 37.875 47.558 79.208 12.706 32.328 33.569 54.035 50.697 67.436 16.258 12.721 39.013 13.071 55.632 1.057-.474-.343-.946-.693-1.411-1.057z" fill="#26d192"/><path d="m212.252 173.07c-6.53 4.066-11.393 9.955-13.496 17.236-4.498 15.575 5.05 32.498 22.007 41.444 8.484-3.526 14.944-9.908 17.372-18.316 4.589-15.891-6.863-33.331-25.883-40.364z" fill="#3351c5"/><path d="m350.195 191.384c-2.386-8.262-8.669-14.561-16.936-18.123-16.973 8.768-26.576 25.602-22.105 41.086 2.111 7.311 7.047 13.199 13.663 17.215 18.719-7.152 29.927-24.428 25.378-40.178z" fill="#3351c5"/><g fill="#213993"><path d="m200.971 191.384c2.148-7.438 7.454-13.287 14.522-16.98-2.137-.968-4.38-1.809-6.727-2.487-21.083-6.089-42.117 2.627-46.981 19.467s8.285 35.428 29.369 41.517c11.771 3.4 23.524 2.18 32.458-2.487-17.054-7.727-26.963-24.065-22.641-39.03z"/><path d="m313.032 213.434c-4.322-14.965 5.587-31.302 22.642-39.029-8.935-4.667-20.688-5.887-32.459-2.487-21.083 6.089-34.232 24.676-29.369 41.517 4.863 16.84 25.897 25.556 46.981 19.467 2.348-.678 4.591-1.519 6.728-2.487-7.069-3.694-12.375-9.543-14.523-16.981z"/></g></g><g><path d="m245.329 215.515c6.003-20.786-9.471-43.577-34.494-50.803-24.556-7.092-50.096 3.223-56.267 24.591-6.002 20.786 9.471 43.576 34.493 50.803 24.58 7.1 50.1-3.233 56.268-24.591zm-52.106 10.181c-17.076-4.932-27.952-19.391-24.244-32.23 3.669-12.705 20.604-19.278 37.694-14.343 17.077 4.932 27.953 19.391 24.245 32.23-3.69 12.775-20.722 19.244-37.695 14.343z"/><path d="m301.122 164.712c-25.022 7.226-40.497 30.017-34.494 50.803 6.176 21.386 31.737 31.677 56.268 24.591 25.022-7.227 40.496-30.017 34.493-50.803-6.174-21.381-31.731-31.679-56.267-24.591zm17.612 60.984c-16.989 4.906-34.008-1.579-37.694-14.343-3.708-12.84 7.168-27.299 24.245-32.23 15.585-4.5 33.721.585 37.694 14.343 3.707 12.839-7.169 27.298-24.245 32.23z"/><path d="m287.955 146.154c1.149 3.978 5.306 6.269 9.286 5.125 14.862-4.293 30.403-3.606 43.758 1.928 3.839 1.589 8.218-.241 9.8-4.058 1.585-3.826-.231-8.214-4.058-9.8-16.487-6.831-35.543-7.713-53.662-2.482-3.978 1.149-6.273 5.307-5.124 9.287z"/><path d="m170.958 153.207c13.356-5.533 28.896-6.222 43.758-1.928 3.977 1.146 8.137-1.146 9.286-5.125s-1.146-8.138-5.125-9.287c-18.115-5.23-37.173-4.351-53.661 2.482-3.827 1.586-5.643 5.973-4.058 9.8 1.585 3.824 5.969 5.644 9.8 4.058z"/><path d="m267.151 279.138h-22.345c-4.142 0-7.5 3.357-7.5 7.5s3.358 7.5 7.5 7.5h22.345c4.142 0 7.5-3.357 7.5-7.5s-3.358-7.5-7.5-7.5z"/><path d="m297.936 104.129c0-4.143-3.358-7.5-7.5-7.5h-68.914c-4.142 0-7.5 3.357-7.5 7.5s3.358 7.5 7.5 7.5h68.914c4.142 0 7.5-3.357 7.5-7.5z"/><path d="m238.75 55.918h34.457c4.142 0 7.5-3.357 7.5-7.5s-3.358-7.5-7.5-7.5h-34.457c-4.142 0-7.5 3.357-7.5 7.5s3.358 7.5 7.5 7.5z"/><path d="m215.268 83.774h81.421c4.142 0 7.5-3.357 7.5-7.5s-3.358-7.5-7.5-7.5h-81.421c-4.142 0-7.5 3.357-7.5 7.5s3.358 7.5 7.5 7.5z"/><path d="m278.512 416.634 26.595-9.021c3.923-1.331 6.024-5.589 4.693-9.512-1.331-3.922-5.588-6.024-9.512-4.693l-26.595 9.021c-7.237 2.455-13.329 6.991-17.714 12.801-4.385-5.81-10.478-10.346-17.714-12.801l-26.595-9.021c-3.923-1.329-8.181.771-9.512 4.693-1.331 3.923.771 8.181 4.693 9.512l26.595 9.021c8.991 3.05 15.033 11.479 15.033 20.974v15.402c0 4.143 3.358 7.5 7.5 7.5s7.5-3.357 7.5-7.5v-15.402c0-9.495 6.041-17.924 15.033-20.974z"/><path d="m414.534 450.149c-.747-4.074-4.66-6.77-8.729-6.024-4.074.746-6.772 4.654-6.025 8.729 2.166 11.815 4.191 25.215 6.021 39.826.284 2.272-1.466 4.277-3.751 4.277h-40.336l-3.587-29.819c-.495-4.113-4.235-7.04-8.342-6.551-4.112.495-7.045 4.229-6.55 8.342l3.372 28.028h-73.128c-4.142 0-7.5 3.357-7.5 7.5s3.358 7.5 7.5 7.5h128.572c11.29 0 20.041-9.914 18.635-21.141-1.865-14.891-3.935-28.573-6.152-40.667z"/><path d="m238.479 496.958h-73.128l3.372-28.028c.495-4.112-2.438-7.847-6.55-8.342-4.117-.502-7.848 2.438-8.342 6.551l-3.587 29.819h-40.336c-2.277 0-4.036-1.997-3.751-4.277 11.251-89.824 25.183-99.782 27.861-100.866 9.37-3.793 20.236-5.03 30.745-6.227 21.077-2.4 44.967-5.12 53.478-31.22 1.457-4.466 2.618-8.923 3.478-13.342 2.852 2.271 5.625 4.269 9.668 6.354 7.713 3.979 16.151 5.98 24.593 5.98 11.979 0 23.599-3.843 34.262-12.334.86 4.419 2.021 8.875 3.478 13.342 8.51 26.1 32.4 28.819 53.477 31.22 10.509 1.196 21.375 2.434 30.745 6.227 1.136.46 7.16 3.953 14.162 27.624 1.175 3.972 5.346 6.238 9.319 5.065 3.972-1.176 6.239-5.348 5.064-9.319-6.418-21.699-13.701-33.544-22.918-37.274-11.267-4.561-23.167-5.916-34.676-7.226-22.603-2.574-35.647-4.816-40.913-20.967-2.279-6.987-3.711-13.902-4.283-20.604 13.744-13.492 28.53-32.486 38.481-57.805 6.138-15.617 15.4-22.723 24.357-29.594 13.175-10.108 26.799-20.561 23.687-53.071-.875-9.146.185-18.298 3.152-27.204 5.617-16.863 10.721-42.696 3.133-70.002-9.288-33.423-34.797-59.589-75.82-77.769-41.123-18.225-88.293-18.225-129.416 0-41.023 18.18-66.532 44.346-75.82 77.769-7.587 27.306-2.484 53.139 3.133 70.002 2.967 8.906 4.027 18.059 3.152 27.204-3.113 32.511 10.511 42.963 23.687 53.071 8.957 6.871 18.219 13.977 24.357 29.594 9.951 25.319 24.737 44.313 38.481 57.805-.572 6.704-2.004 13.617-4.282 20.604-5.267 16.15-18.311 18.393-40.914 20.967-11.509 1.31-23.409 2.665-34.676 7.226-10.39 4.205-25.541 20.484-37.117 112.907-1.406 11.226 7.346 21.141 18.635 21.141h128.572c4.142 0 7.5-3.357 7.5-7.5s-3.358-7.501-7.5-7.501zm-54.739-231.136c-7.662-19.495-19.597-28.651-29.188-36.009-12.167-9.335-20.206-15.502-17.885-39.74 1.076-11.242-.22-22.471-3.852-33.374-10.918-32.776-17.053-93.16 64.532-129.317 37.265-16.514 80-16.512 117.262 0 81.585 36.157 75.451 96.541 64.532 129.317-3.632 10.903-4.928 22.132-3.852 33.374 2.321 24.238-5.718 30.405-17.885 39.74-9.59 7.357-21.525 16.514-29.188 36.009-10.197 25.945-27.386 47.881-48.338 64.272-14.072 11.011-33.729 11.01-47.8.001-21.072-16.487-38.198-38.475-48.338-64.273z"/></g></g></svg>