<svg id="Capa_1" enable-background="new 0 0 512 512" height="512" viewBox="0 0 512 512" width="512" xmlns="http://www.w3.org/2000/svg"><g><g><path d="m318.301 504.5 47.807-147.154c1.521-4.681-1.461-9.623-6.311-10.46l-58.338-10.073v-77.783h-90.915v77.783l-67.531 11.66 50.689 156.027z" fill="#df646e"/></g><g><path d="m318.301 504.5 47.807-147.154c1.521-4.681-1.461-9.623-6.311-10.46l-14.353-2.478-44.857 129.618z" fill="#dc4955"/></g><g><path d="m193.702 504.5-47.807-147.154c-1.521-4.681 1.461-9.623 6.311-10.46l14.353-2.478 44.857 129.618z" fill="#dc4955"/></g><g><path d="m166.135 109.922v112.477c0 14.74 5.915 28.864 16.418 39.206l27.126 26.708c10.293 10.134 24.158 15.815 38.603 15.815h15.441c14.445 0 28.31-5.68 38.603-15.815l27.126-26.708c10.503-10.342 16.418-24.466 16.418-39.206v-112.477z" fill="#fed2a4"/></g><g><path d="m317.441 222.399c0 14.74-5.914 28.864-16.418 39.206l-27.126 26.708c-8.738 8.603-20.053 13.981-32.109 15.414 2.145.255 4.311.4 6.493.4h15.441c14.445 0 28.31-5.68 38.603-15.815l27.126-26.708c10.503-10.342 16.418-24.466 16.418-39.206v-112.476h-28.427v112.477z" fill="#ffbd86"/></g><g><path d="m133.428 130.073v35.798h32.706v46.473l25.651-47.837c3.518-6.561 10.36-10.656 17.805-10.656h31.695c9.505 0 18.706-3.351 25.985-9.464l17.876-15.012c3.307-2.778 7.488-4.3 11.807-4.3 7.389 0 14.057 4.429 16.923 11.239l31.991 76.03v-46.473h32.706v-35.798c.002-67.695-54.876-122.573-122.571-122.573-67.696 0-122.574 54.878-122.574 122.573z" fill="#3a67c1"/></g><g><path d="m330.247 32.547c-8.205 31.657-29.641 67.826-61.674 99.859-7.728 7.728-15.697 14.834-23.785 21.291 8.244-.717 16.102-3.953 22.482-9.311l17.876-15.012c3.307-2.778 7.488-4.3 11.807-4.3 7.389 0 14.057 4.429 16.923 11.239l31.991 76.03v-46.473h32.706v-35.798c.002-39.782-18.957-75.132-48.326-97.525z" fill="#30569f"/></g><g><path d="m156.995 212.344c-16.152 0-29.247-13.094-29.247-29.247s13.094-29.247 29.247-29.247h9.14v58.493h-9.14z" fill="#f6a96c"/></g><g><path d="m355.008 212.344c16.152 0 29.247-13.094 29.247-29.247s-13.094-29.247-29.247-29.247h-9.14v58.493h9.14z" fill="#f6a96c"/></g><g><path d="m318.301 504.5-62.299-107.171-62.3 107.171z" fill="#f7e365"/></g><g><path d="m256.002 397.329-12.237 21.049 50.063 86.122h24.473z" fill="#f3d332"/></g><g><path d="m430.95 341.617 11.526 65.907h-40.671v96.976h-83.504l47.806-147.153c1.521-4.681-1.461-9.623-6.312-10.461l-12.276-2.119 5.853-23.509c1.428-5.737 7.456-9.027 13.054-7.124l57.824 19.658c3.495 1.189 6.064 4.189 6.7 7.825z" fill="#b2e5fb"/></g><g><path d="m349.541 421.667v68.691c0 4.974.909 9.738 2.56 14.142h49.704v-96.976h40.671l-4.593-26.264h-47.935c-22.28 0-40.407 18.127-40.407 40.407z" fill="#91dafa"/></g><g><path d="m442.476 504.5h-52.528c-7.811 0-14.142-6.332-14.142-14.142v-68.691c0-7.811 6.332-14.142 14.142-14.142h52.528c7.811 0 14.142 6.332 14.142 14.142v68.691c0 7.81-6.331 14.142-14.142 14.142z" fill="#fed2a4"/></g><g><path d="m442.476 407.524h-24.244c7.811 0 14.142 6.332 14.142 14.142v68.691c0 7.811-6.332 14.142-14.142 14.142h24.244c7.811 0 14.142-6.332 14.142-14.142v-68.691c0-7.81-6.331-14.142-14.142-14.142z" fill="#ffbd86"/></g><g><path d="m81.053 341.617-11.526 65.907h40.671v96.976h83.504l-47.806-147.153c-1.521-4.681 1.461-9.623 6.312-10.461l12.276-2.119-5.853-23.509c-1.428-5.737-7.456-9.027-13.054-7.124l-57.824 19.658c-3.495 1.189-6.064 4.189-6.7 7.825z" fill="#b2e5fb"/></g><g><path d="m162.462 421.667v68.691c0 4.974-.909 9.738-2.56 14.142h-49.704v-96.976h-40.671l4.593-26.264h47.935c22.28 0 40.407 18.127 40.407 40.407z" fill="#91dafa"/></g><g><path d="m69.527 504.5h52.528c7.811 0 14.142-6.332 14.142-14.142v-68.691c0-7.811-6.332-14.142-14.142-14.142h-52.528c-7.811 0-14.142 6.332-14.142 14.142v68.691c0 7.81 6.332 14.142 14.142 14.142z" fill="#fed2a4"/></g><g><path d="m122.056 407.524h-24.244c7.811 0 14.142 6.332 14.142 14.142v68.691c0 7.811-6.332 14.142-14.142 14.142h24.244c7.811 0 14.142-6.332 14.142-14.142v-68.691c0-7.81-6.332-14.142-14.142-14.142z" fill="#ffbd86"/></g><path d="m456.615 440.91c4.143 0 7.5-3.357 7.5-7.5v-11.74c0-9.682-6.385-17.899-15.164-20.659l-10.613-60.685c-1.108-6.338-5.581-11.562-11.673-13.633l-57.824-19.658c-4.647-1.582-9.787-1.138-14.098 1.214-4.311 2.353-7.462 6.435-8.647 11.198l-4.168 16.74-32.969-5.689v-38.191l25.754-25.358c11.855-11.673 18.655-27.911 18.655-44.55v-2.555h1.64c20.263 0 36.747-16.484 36.747-36.746 0-7.198-2.089-13.914-5.68-19.589v-33.439c0-15.369-2.653-30.411-7.887-44.708-1.423-3.889-5.729-5.889-9.621-4.465-3.89 1.424-5.889 5.731-4.465 9.621 4.627 12.64 6.973 25.947 6.973 39.552v19.986c-4.857-2.371-10.309-3.706-16.067-3.706h-9.14c-4.143 0-7.5 3.357-7.5 7.5v21.329l-17.577-41.776c-4.047-9.616-13.403-15.83-23.836-15.83-6.073 0-11.979 2.15-16.631 6.057l-17.876 15.013c-5.918 4.97-13.434 7.707-21.163 7.707h-31.695c-10.227 0-19.583 5.599-24.415 14.612l-11.541 21.523v-28.635c0-4.143-3.358-7.5-7.5-7.5h-9.14c-5.76 0-11.213 1.335-16.07 3.708v-19.988c0-30.736 11.969-59.633 33.703-81.366 21.735-21.734 50.635-33.704 81.378-33.704 36.312 0 70.911 17.451 92.552 46.683 2.464 3.33 7.161 4.03 10.49 1.564 3.329-2.464 4.029-7.161 1.564-10.49-24.456-33.034-63.561-52.757-104.606-52.757-34.75 0-67.417 13.53-91.983 38.097-24.567 24.567-38.097 57.23-38.097 91.974v33.443c-3.589 5.674-5.676 12.388-5.676 19.584 0 20.262 16.484 36.746 36.747 36.746h1.64v2.555c0 16.639 6.8 32.876 18.655 44.55l25.754 25.358v38.19l-32.966 5.689-4.165-16.739c-1.187-4.764-4.338-8.846-8.647-11.198-4.31-2.354-9.449-2.799-14.105-1.22l-57.82 19.66c-6.103 2.076-10.577 7.307-11.672 13.638l-10.619 60.689c-8.779 2.76-15.164 10.973-15.164 20.651v68.69c0 11.934 9.708 21.643 21.642 21.643h372.948c11.933 0 21.64-9.707 21.64-21.64v-21.95c0-4.143-3.357-7.5-7.5-7.5s-7.5 3.357-7.5 7.5v21.95c0 3.661-2.979 6.64-6.64 6.64h-52.53c-3.661 0-6.64-2.979-6.64-6.64v-10.686h6.643c4.143 0 7.5-3.357 7.5-7.5s-3.357-7.5-7.5-7.5h-6.643v-17.324h6.643c4.143 0 7.5-3.357 7.5-7.5s-3.357-7.5-7.5-7.5h-6.643v-10.68c0-3.649 2.951-6.619 6.588-6.648.019 0 .039.004.058.004.029 0 .056-.007.084-.007h52.188c.047.002.094-.001.141 0h.11c3.661 0 6.64 2.983 6.64 6.65v11.74c-.001 4.144 3.356 7.501 7.499 7.501zm-103.247-279.559h1.64c11.991 0 21.747 9.756 21.747 21.747s-9.756 21.746-21.747 21.746h-1.64zm-218.119 21.747c0-11.991 9.755-21.747 21.747-21.747h1.64v43.493h-1.64c-11.992 0-21.747-9.755-21.747-21.746zm38.386 39.3v-8.171l24.76-46.177c2.216-4.133 6.506-6.7 11.195-6.7h31.695c11.252 0 22.194-3.985 30.809-11.221l17.876-15.012c1.953-1.641 4.434-2.544 6.984-2.544 4.381 0 8.311 2.609 10.01 6.647l31.403 74.636v8.54c0 12.646-5.168 24.989-14.179 33.862l-27.126 26.708c-8.946 8.809-20.787 13.659-33.341 13.659h-15.441c-12.554 0-24.395-4.851-33.34-13.658l-27.126-26.709c-9.011-8.87-14.179-21.213-14.179-33.86zm-104.108 274.602c-3.663 0-6.642-2.979-6.642-6.643v-68.69c0-3.663 2.979-6.643 6.642-6.643h52.501c.008 0 .016.002.024.002.006 0 .011-.001.017-.001 3.656.008 6.628 2.984 6.628 6.642v10.683h-6.643c-4.142 0-7.5 3.357-7.5 7.5s3.358 7.5 7.5 7.5h6.643v17.325h-6.643c-4.142 0-7.5 3.357-7.5 7.5s3.358 7.5 7.5 7.5h6.643v10.683c0 3.663-2.98 6.643-6.643 6.643h-52.527zm73.124 0c.677-2.094 1.047-4.326 1.047-6.643v-68.69c0-9.913-6.701-18.284-15.81-20.838l-5.562-18.689c-1.181-3.969-5.357-6.227-9.328-5.049-3.97 1.182-6.231 5.357-5.049 9.328l4.049 13.604h-33.547l9.995-57.125c.161-.933.822-1.702 1.724-2.009l57.814-19.658c.945-.32 1.717-.024 2.092.182.375.204 1.041.692 1.281 1.657l3.902 15.681-4.319.745c-4.456.763-8.353 3.421-10.693 7.292-2.343 3.877-2.884 8.57-1.485 12.878l10.84 33.36c1.28 3.939 5.51 6.094 9.451 4.815 3.939-1.28 6.095-5.511 4.815-9.45l-10.839-33.36c-.021-.062-.083-.254.057-.484.134-.223.316-.254.396-.268l58.338-10.076c3.597-.62 6.225-3.74 6.225-7.391v-32.976c9.158 5.075 19.495 7.791 30.237 7.791h15.441c10.742 0 21.078-2.715 30.236-7.791v32.976c0 3.65 2.628 6.771 6.225 7.391l58.337 10.073c.072.013.262.045.399.272.137.228.077.409.055.479l-42.622 131.195-53.866-92.666c-1.343-2.31-3.812-3.73-6.484-3.73-2.671 0-5.142 1.421-6.484 3.73l-53.866 92.664-20.974-64.541c-1.28-3.939-5.511-6.095-9.451-4.814-3.939 1.28-6.095 5.512-4.815 9.451l22.969 70.684zm64.086 0 49.265-84.748 49.263 84.748zm121.886 0 44.617-137.335c1.398-4.302.86-8.99-1.477-12.863-2.337-3.874-6.234-6.536-10.692-7.306l-4.324-.747 3.904-15.679c.239-.965.903-1.451 1.277-1.655.376-.204 1.144-.498 2.084-.18l57.824 19.658c.9.307 1.562 1.079 1.726 2.016l9.988 57.11h-33.544l4.047-13.601c1.182-3.97-1.079-8.146-5.05-9.327-3.966-1.179-8.146 1.08-9.327 5.05l-5.559 18.682c-9.11 2.553-15.812 10.928-15.812 20.846v68.69c0 2.316.37 4.546 1.046 6.64h-40.728z"/></g></svg>