<svg id="Layer_1" viewBox="0 0 1000 1000" xmlns="http://www.w3.org/2000/svg" data-name="Layer 1"><path d="m877.29 273.3q-2 13-4.44 25.74a287.07 287.07 0 0 1 -104.77-67.12 287.07 287.07 0 0 1 -67.08-104.77q12.7-2.48 25.74-4.44a320.22 320.22 0 0 0 62.61 88 320.22 320.22 0 0 0 87.94 62.59z" fill="#616161"/><path d="m881.42 239.55a289.51 289.51 0 0 1 -69.48-51.49 289.51 289.51 0 0 1 -51.49-69.48 597.58 597.58 0 0 1 120.12.85 596.84 596.84 0 0 1 .85 120.12z" fill="#6d4c41"/><path d="m299.05 872.85q-12.72 2.48-25.75 4.44a320.22 320.22 0 0 0 -62.61-88 320.22 320.22 0 0 0 -88-62.61q2-13 4.44-25.74a287.07 287.07 0 0 1 104.77 67.12 287.48 287.48 0 0 1 67.15 104.79z" fill="#616161"/><path d="m239.54 881.42a596.74 596.74 0 0 1 -120.11-.85 596.84 596.84 0 0 1 -.85-120.12 289.51 289.51 0 0 1 69.48 51.49 289.2 289.2 0 0 1 51.48 69.48z" fill="#6d4c41"/><path d="m745.45 254.55a319 319 0 0 1 -76-120.43c-165.23 41.06-286.24 141.53-340.9 194.43-52.9 54.66-153.37 175.67-194.43 340.92a319 319 0 0 1 120.43 76 319 319 0 0 1 76 120.43c165.25-41.06 286.26-141.53 340.92-194.43 52.9-54.66 153.37-175.67 194.43-340.92a319 319 0 0 1 -120.45-76zm-31.45 129.05a16 16 0 0 1 -22.63 0l-21.33-21.33c-24 18.05-47.73 36.93-70.75 56.36l18.85 18.85a16 16 0 1 1 -22.62 22.63l-20.52-20.55c-19.94 17.51-39.59 35.65-58.65 54.16l19.65 19.69a16 16 0 1 1 -22.59 22.59l-19.69-19.68c-18.51 19.07-36.65 38.71-54.16 58.65l20.55 20.55a16 16 0 1 1 -22.63 22.62l-18.85-18.85c-19.43 23-38.31 46.73-56.35 70.76l21.32 21.35a16 16 0 1 1 -22.6 22.6l-62.23-62.22a16 16 0 1 1 22.63-22.63l18.05 18.05c18.11-24 37-47.64 56.49-70.62l-20.68-20.58a16 16 0 1 1 22.63-22.63l19 19c17.54-19.92 35.69-39.54 54.2-58.6l-19.91-19.91a16 16 0 0 1 22.63-22.63l19.91 19.91c19.06-18.51 38.68-36.66 58.6-54.2l-19-19a16 16 0 1 1 22.68-22.68l20.66 20.66c23-19.45 46.63-38.38 70.62-56.49l-18.05-18.05a16 16 0 1 1 22.63-22.63l62.14 62.25a16 16 0 0 1 0 22.6z" fill="#6d4c41"/><g fill="#fff" opacity=".5"><path d="m867.29 283.3q-2 13-4.44 25.74a287.07 287.07 0 0 1 -104.77-67.12 287.07 287.07 0 0 1 -67.08-104.77q12.7-2.47 25.74-4.44a320.22 320.22 0 0 0 62.61 88 320.22 320.22 0 0 0 87.94 62.59z"/><path d="m871.42 249.55a289.51 289.51 0 0 1 -69.48-51.49 289.51 289.51 0 0 1 -51.49-69.48 597.58 597.58 0 0 1 120.12.85 596.84 596.84 0 0 1 .85 120.12z"/><path d="m289.05 882.85q-12.72 2.48-25.75 4.44a320.22 320.22 0 0 0 -62.61-88 320.22 320.22 0 0 0 -88-62.61q2-13 4.44-25.74a287.07 287.07 0 0 1 104.77 67.12 287.48 287.48 0 0 1 67.15 104.79z"/><path d="m229.54 891.42a596.74 596.74 0 0 1 -120.11-.85 596.84 596.84 0 0 1 -.85-120.12 289.51 289.51 0 0 1 69.48 51.49 289.2 289.2 0 0 1 51.48 69.48z"/><path d="m735.45 264.55a319 319 0 0 1 -76-120.43c-165.23 41.06-286.24 141.53-340.9 194.43-52.9 54.66-153.37 175.67-194.43 340.92a319 319 0 0 1 120.43 76 319 319 0 0 1 76 120.43c165.25-41.06 286.26-141.53 340.92-194.43 52.9-54.66 153.37-175.67 194.43-340.92a319 319 0 0 1 -120.45-76zm-31.45 129.05a16 16 0 0 1 -22.63 0l-21.33-21.33c-24 18.05-47.73 36.93-70.75 56.36l18.85 18.85a16 16 0 1 1 -22.62 22.63l-20.52-20.55c-19.94 17.51-39.59 35.65-58.65 54.16l19.65 19.69a16 16 0 1 1 -22.59 22.59l-19.69-19.68c-18.51 19.07-36.65 38.71-54.16 58.65l20.55 20.55a16 16 0 1 1 -22.63 22.62l-18.85-18.85c-19.43 23-38.31 46.73-56.35 70.76l21.32 21.35a16 16 0 1 1 -22.6 22.6l-62.23-62.22a16 16 0 1 1 22.63-22.63l18.05 18.05c18.11-24 37-47.64 56.49-70.62l-20.68-20.58a16 16 0 1 1 22.63-22.63l19 19c17.54-19.92 35.69-39.54 54.2-58.6l-19.91-19.91a16 16 0 0 1 22.63-22.63l19.91 19.91c19.06-18.51 38.68-36.66 58.6-54.2l-19-19a16 16 0 1 1 22.68-22.68l20.66 20.66c23-19.45 46.63-38.38 70.62-56.49l-18.05-18.05a16 16 0 1 1 22.63-22.63l62.14 62.25a16 16 0 0 1 0 22.6z"/></g><g fill="#413b32"><path d="m910.85 103a16 16 0 0 0 -13.85-13.85c-127.57-16.42-255.12 6.24-379.11 67.35-102.22 50.38-176.57 115.13-211.79 149.24l-.36.36c-34.11 35.22-98.86 109.57-149.24 211.79-61.11 123.99-83.77 251.55-67.35 379.11a16 16 0 0 0 13.85 13.85 631.43 631.43 0 0 0 80.5 5.15c100.59 0 200.72-24.28 298.61-72.53 102.22-50.35 176.57-115.1 211.79-149.21l.36-.36c34.11-35.22 98.86-109.57 149.24-211.79 61.11-123.99 83.77-251.55 67.35-379.11zm-239.4 568.45c-54.66 52.9-175.67 153.37-340.92 194.43q-15.48 3.84-31.48 7-12.72 2.48-25.75 4.44-16.64 2.52-33.76 4.13a596.74 596.74 0 0 1 -120.11-.85 596.84 596.84 0 0 1 -.85-120.12q1.61-17.12 4.13-33.75 2-13 4.44-25.74 3.12-16 7-31.49c41.06-165.25 141.53-286.26 194.43-340.92 54.66-52.9 175.67-153.37 340.92-194.43q15.49-3.84 31.49-7 12.7-2.48 25.74-4.44 16.62-2.52 33.75-4.13a597.58 597.58 0 0 1 120.12.85 596.84 596.84 0 0 1 .85 120.12q-1.6 17.12-4.13 33.75-2 13-4.44 25.74-3.12 16-7 31.49c-41.06 165.25-141.53 286.26-194.43 340.92z"/><path d="m383.6 714a16 16 0 0 1 -22.6 0l-62.23-62.22a16 16 0 1 1 22.63-22.63l18.05 18.05 22.85 22.85 21.3 21.35a16 16 0 0 1 0 22.6z"/><path d="m460.11 618.17a16 16 0 0 1 -22.63 0l-62.22-62.17a16 16 0 1 1 22.63-22.63l19 19 22.67 22.63 20.55 20.55a16 16 0 0 1 0 22.62z"/><path d="m536 536a16 16 0 0 1 -22.62 0l-19.69-19.68-22.63-22.63-19.91-19.91a16 16 0 0 1 22.63-22.63l42.54 42.54 19.68 19.72a16 16 0 0 1 0 22.59z"/><path d="m618.17 460.11a16 16 0 0 1 -22.62 0l-20.55-20.55-22.68-22.67-19-19a16 16 0 1 1 22.68-22.63l62.22 62.22a16 16 0 0 1 -.05 22.63z"/><path d="m714 383.6a16 16 0 0 1 -22.63 0l-21.33-21.33-22.84-22.84-18.05-18.05a16 16 0 1 1 22.63-22.63l62.22 62.25a16 16 0 0 1 0 22.6z"/><path d="m681.1 354.06q-5.52 4.08-11 8.21c-24 18.05-47.73 36.93-70.75 56.36q-6.6 5.55-13.12 11.18-5.61 4.85-11.2 9.75c-19.94 17.51-39.59 35.65-58.65 54.16q-5.76 5.58-11.43 11.2t-11.2 11.43c-18.51 19.07-36.65 38.71-54.16 58.65q-4.9 5.58-9.75 11.2-5.62 6.52-11.18 13.12c-19.43 23-38.31 46.73-56.35 70.76q-4.15 5.5-8.22 11a16 16 0 0 1 -25.75-19q5.51-7.46 11.12-14.88c18.11-24 37-47.64 56.49-70.62q4.8-5.68 9.65-11.31 5.61-6.51 11.32-13c17.54-19.92 35.69-39.54 54.2-58.6q5.55-5.72 11.15-11.37l.11-.11q5.65-5.6 11.37-11.15c19.06-18.51 38.68-36.66 58.6-54.2q6.46-5.72 13-11.32 5.63-4.85 11.31-9.65c23-19.45 46.63-38.38 70.62-56.49q7.42-5.62 14.88-11.12a16 16 0 1 1 19 25.75z"/><path d="m900 324.22a16 16 0 0 1 -19.85 10.87q-7.18-2.1-14.27-4.56a319 319 0 0 1 -120.43-76 319 319 0 0 1 -76-120.43q-2.45-7.1-4.54-14.25a16 16 0 1 1 30.71-9q2.4 8.22 5.34 16.28a287.07 287.07 0 0 0 67.12 104.77 287.07 287.07 0 0 0 104.77 67.1q8.05 2.94 16.28 5.34a16 16 0 0 1 10.87 19.88z"/><path d="m909.35 270a16 16 0 0 1 -21 8.32q-5.56-2.41-11-5a320.22 320.22 0 0 1 -88-62.61 320.22 320.22 0 0 1 -62.61-88q-2.62-5.46-5-11a16 16 0 0 1 29.26-12.71q4.32 10 9.41 19.61a289.51 289.51 0 0 0 51.49 69.48 289.51 289.51 0 0 0 69.48 51.49q9.62 5.06 19.62 9.42a16 16 0 0 1 8.35 21z"/><path d="m270 909.35a16 16 0 0 1 -21-8.35q-4.34-10-9.42-19.61a289.2 289.2 0 0 0 -51.48-69.48 289.51 289.51 0 0 0 -69.48-51.49q-9.62-5.06-19.62-9.42a16 16 0 0 1 12.72-29.37q5.57 2.42 11 5a320.22 320.22 0 0 1 88 62.61 320.22 320.22 0 0 1 62.61 88q2.63 5.46 5 11a16 16 0 0 1 -8.33 21.11z"/><path d="m330.53 865.88q-15.48 3.84-31.48 7a287.48 287.48 0 0 0 -67.13-104.77 287.07 287.07 0 0 0 -104.77-67.11q3.12-16 7-31.49a319 319 0 0 1 120.43 76 319 319 0 0 1 75.95 120.37z"/><path d="m119.85 664.91q7.19 2.1 14.27 4.56-3.84 15.48-7 31.49-8.06-2.94-16.28-5.34a16 16 0 1 1 9-30.71z"/><path d="m324.22 900a16 16 0 0 1 -19.84-10.87q-2.4-8.22-5.33-16.28 16-3.11 31.48-7 2.46 7.08 4.56 14.27a16 16 0 0 1 -10.87 19.88z"/></g></svg>