<svg id="Layer_1" viewBox="0 0 1000 1000" xmlns="http://www.w3.org/2000/svg" data-name="Layer 1"><path d="m897.42 633.89c-.06-.45-.12-.9-.19-1.35a907.79 907.79 0 0 0 -18.11-94.54c-28.34-113.67-76.87-205.46-144.25-272.85s-159.18-115.93-272.87-144.27a905.36 905.36 0 0 0 -94.57-18.11l-1.33-.19a1124.74 1124.74 0 0 0 -162.71-10c-30.45.32-58.43 11.71-78.79 32.06s-31.72 48.36-32.04 78.77a1124.61 1124.61 0 0 0 10 162.7c.06.45.12.9.19 1.35a907.79 907.79 0 0 0 18.13 94.54c28.34 113.67 76.87 205.46 144.25 272.85s159.18 115.93 272.87 144.27a910 910 0 0 0 94.62 18.13l1.24.16a1118.25 1118.25 0 0 0 151 10.09c4 0 8 0 11.79-.06 30.45-.32 58.43-11.71 78.79-32.06a107.43 107.43 0 0 0 23.54-35.61 117.69 117.69 0 0 0 8.52-43.18 1124.61 1124.61 0 0 0 -10.08-162.7zm-5 162.55c-.57 55-41 95.43-96 96a1109.17 1109.17 0 0 1 -146.11-8q-9.29-1.14-18.73-2.49c-119.85-17.11-257.58-59.44-355.84-157.69s-140.58-236-157.67-355.86q-1.35-9.45-2.49-18.73a1109.17 1109.17 0 0 1 -8-146.11c.57-55.05 40.95-95.43 96-96 3.84 0 7.76-.06 11.79-.06a1104.38 1104.38 0 0 1 134.32 8.08q9.29 1.14 18.73 2.49c119.86 17.09 257.58 59.43 355.84 157.67s140.58 236 157.67 355.86q1.35 9.45 2.49 18.73a1109.17 1109.17 0 0 1 8.02 146.11z"/><path d="m892.44 796.44c-.57 55-41 95.43-96 96a1109.17 1109.17 0 0 1 -146.11-8l234.09-234.11a1109.17 1109.17 0 0 1 8.02 146.11z" fill="#fb8c00"/><path d="m349.67 115.58-234.09 234.09a1109.17 1109.17 0 0 1 -8-146.11c.57-55.05 40.95-95.43 96-96 3.84 0 7.76-.06 11.79-.06a1104.38 1104.38 0 0 1 134.3 8.08z" fill="#fb8c00"/><path d="m724.26 275.74c-98.26-98.24-235.98-140.58-355.86-157.67l-250.33 250.33c17.09 119.88 59.43 257.6 157.67 355.86s236 140.58 355.86 157.67l250.33-250.33c-17.09-119.88-59.43-257.6-157.67-355.86zm-17 333.14-43.87 43.88 25.74 25.74a7.5 7.5 0 0 1 -10.61 10.61l-25.74-25.74-43.88 43.87a7.5 7.5 0 0 1 -10.61-10.61l43.88-43.87-65.79-65.76-43.88 43.86a7.5 7.5 0 1 1 -10.61-10.61l43.88-43.87-65.77-65.77-43.88 43.87a7.5 7.5 0 1 1 -10.6-10.6l43.88-43.88-65.77-65.77-43.88 43.87a7.5 7.5 0 0 1 -10.61-10.61l43.86-43.86-65.77-65.77-43.88 43.87a7.5 7.5 0 0 1 -10.61-10.61l43.88-43.87-25.73-25.75a7.5 7.5 0 0 1 10.61-10.61l25.75 25.75 43.87-43.88a7.5 7.5 0 0 1 10.61 10.61l-43.87 43.88 65.77 65.75 43.87-43.88a7.5 7.5 0 0 1 10.61 10.61l-43.87 43.88 65.76 65.79 43.87-43.88a7.5 7.5 0 1 1 10.6 10.6l-43.86 43.88 65.77 65.77 43.87-43.88a7.5 7.5 0 1 1 10.61 10.61l-43.86 43.88 65.77 65.77 43.87-43.88a7.5 7.5 0 0 1 10.61 10.61z" fill="#ffcc80"/><path d="m371.09 115.38-2.69 2.69-250.33 250.33-2.69 2.69a7.5 7.5 0 0 1 -10.61 0 7.33 7.33 0 0 1 -2-3.63 6.86 6.86 0 0 1 -.19-1.35 7.48 7.48 0 0 1 2.19-5.63l10.81-10.81 234.09-234.09 10.81-10.81a7.48 7.48 0 0 1 5.64-2.19 6.66 6.66 0 0 1 1.33.19 7.36 7.36 0 0 1 3.64 2 7.5 7.5 0 0 1 0 10.61z"/><path d="m897.42 633.89a7.48 7.48 0 0 1 -2.19 5.63l-10.81 10.81-234.09 234.09-10.81 10.81a7.52 7.52 0 0 1 -5.31 2.2 2.3 2.3 0 0 1 -.37 0 6.58 6.58 0 0 1 -1.24-.16 7.5 7.5 0 0 1 -3.69-12.63l255.71-255.73a7.5 7.5 0 0 1 10.61 0 7.33 7.33 0 0 1 2 3.63 6.86 6.86 0 0 1 .19 1.35z"/><path d="m689.11 689.11a7.52 7.52 0 0 1 -10.61 0l-367.61-367.61a7.5 7.5 0 0 1 10.61-10.61l36.36 36.36 65.77 65.75 10.61 10.61 65.76 65.79 10.6 10.6 65.77 65.77 10.63 10.61 65.77 65.77 10.61 10.61 25.74 25.74a7.52 7.52 0 0 1 -.01 10.61z"/><path d="m401.73 303.37-43.87 43.88-10.61 10.61-43.88 43.87a7.5 7.5 0 0 1 -10.61-10.61l43.88-43.87 10.61-10.61 43.87-43.88a7.5 7.5 0 0 1 10.61 10.61z"/><path d="m478.11 379.75-43.87 43.88-10.61 10.61-43.88 43.87a7.5 7.5 0 0 1 -10.61-10.61l43.86-43.87 10.63-10.63 43.87-43.88a7.5 7.5 0 0 1 10.61 10.61z"/><path d="m554.48 456.12-43.87 43.88-10.61 10.61-43.88 43.87a7.5 7.5 0 1 1 -10.6-10.6l43.88-43.88 10.6-10.6 43.87-43.88a7.5 7.5 0 1 1 10.6 10.6z"/><path d="m630.86 532.5-43.86 43.88-10.62 10.62-43.88 43.86a7.5 7.5 0 1 1 -10.61-10.61l43.88-43.87 10.61-10.61 43.87-43.88a7.5 7.5 0 1 1 10.61 10.61z"/><path d="m707.24 608.88-43.87 43.88-10.61 10.61-43.88 43.87a7.5 7.5 0 0 1 -10.61-10.61l43.88-43.87 10.61-10.61 43.87-43.88a7.5 7.5 0 0 1 10.61 10.61z"/></svg>