<svg id="Capa_1" enable-background="new 0 0 511.998 511.998" height="512" viewBox="0 0 511.998 511.998" width="512" xmlns="http://www.w3.org/2000/svg"><g><path d="m85.157 473.436h62.125v31.062h-62.125z" fill="#544f56"/><path d="m85.157 473.436h20v31.062h-20z" fill="#444145"/><path d="m364.717 473.436h62.125v31.062h-62.125z" fill="#544f56"/><path d="m364.717 473.436h20v31.062h-20z" fill="#444145"/><path d="m54.094 69.626h403.809v403.809h-403.809z" fill="#b1abb4"/><path d="m54.094 69.626h15v403.809h-15z" fill="#9e97a1"/><path d="m162.812 7.502h186.374v31.062h-186.374z" fill="#544f56"/><path d="m162.812 7.502h31.062v62.125h-31.062z" fill="#544f56"/><path d="m318.124 7.502h31.062v62.125h-31.062z" fill="#544f56"/><path d="m85.157 100.689h341.685v124.249h-341.685z" fill="#f9b419"/><path d="m85.157 100.689h20v124.249h-20z" fill="#f29e22"/><path d="m85.157 224.891h341.685v217.482h-341.685z" fill="#544f56"/><path d="m85.157 224.891h20v217.482h-20z" fill="#444145"/><path d="m116.219 69.626v31.063h-31.062v31.062h-31.063v-62.125z" fill="#c8c3ca"/><path d="m54.094 69.626h15v62.125h-15z" fill="#b1abb4"/><path d="m395.779 69.626v31.063h31.062v31.062h31.063v-62.125z" fill="#c8c3ca"/><path d="m426.841 411.311h31.063v62.125h-62.125v-31.062h31.062z" fill="#c8c3ca"/><path d="m85.157 411.311h-31.063v62.125h62.125v-31.062h-31.062z" fill="#c8c3ca"/><path d="m54.094 411.311h15v62.125h-15z" fill="#b1abb4"/><g fill="#ffd527"><circle cx="147.281" cy="162.813" r="31.062"/><path d="m240.468 131.751h31.062v62.125h-31.062z"/><path d="m302.592 131.751h31.062v62.125h-31.062z"/><path d="m364.717 131.751h31.062v62.125h-31.062z"/><path d="m209.406 380.249h93.187v31.062h-93.187z"/></g><g><g><path d="m116.219 263.5c-4.142 0-7.5-3.358-7.5-7.5 0-4.142 3.358-7.5 7.5-7.5 4.142 0 7.5 3.358 7.5 7.5 0 4.142-3.358 7.5-7.5 7.5z"/><path d="m178.343 263.5c-4.142 0-7.5-3.358-7.5-7.5 0-4.142 3.358-7.5 7.5-7.5 4.142 0 7.5 3.358 7.5 7.5 0 4.142-3.357 7.5-7.5 7.5z"/><path d="m302.592 263.5c-4.142 0-7.5-3.358-7.5-7.5 0-4.142 3.358-7.5 7.5-7.5 4.142 0 7.5 3.358 7.5 7.5 0 4.142-3.357 7.5-7.5 7.5z"/><path d="m240.468 263.5c-4.142 0-7.5-3.358-7.5-7.5 0-4.142 3.358-7.5 7.5-7.5 4.142 0 7.5 3.358 7.5 7.5 0 4.142-3.358 7.5-7.5 7.5z"/><path d="m364.717 263.5c-4.142 0-7.5-3.358-7.5-7.5 0-4.142 3.358-7.5 7.5-7.5 4.142 0 7.5 3.358 7.5 7.5 0 4.142-3.358 7.5-7.5 7.5z"/><path d="m147.281 294.562c-4.142 0-7.5-3.358-7.5-7.5 0-4.142 3.358-7.5 7.5-7.5 4.142 0 7.5 3.358 7.5 7.5 0 4.142-3.358 7.5-7.5 7.5z"/><path d="m209.406 294.562c-4.142 0-7.5-3.358-7.5-7.5 0-4.142 3.358-7.5 7.5-7.5 4.142 0 7.5 3.358 7.5 7.5 0 4.142-3.358 7.5-7.5 7.5z"/><path d="m333.655 294.562c-4.142 0-7.5-3.358-7.5-7.5 0-4.142 3.358-7.5 7.5-7.5 4.142 0 7.5 3.358 7.5 7.5 0 4.142-3.358 7.5-7.5 7.5z"/><path d="m271.53 294.562c-4.142 0-7.5-3.358-7.5-7.5 0-4.142 3.358-7.5 7.5-7.5 4.142 0 7.5 3.358 7.5 7.5 0 4.142-3.358 7.5-7.5 7.5z"/><path d="m395.779 294.562c-4.142 0-7.5-3.358-7.5-7.5 0-4.142 3.358-7.5 7.5-7.5 4.142 0 7.5 3.358 7.5 7.5 0 4.142-3.358 7.5-7.5 7.5z"/><path d="m116.219 325.625c-4.142 0-7.5-3.358-7.5-7.5 0-4.142 3.358-7.5 7.5-7.5 4.142 0 7.5 3.358 7.5 7.5 0 4.142-3.358 7.5-7.5 7.5z"/><path d="m178.343 325.625c-4.142 0-7.5-3.358-7.5-7.5 0-4.142 3.358-7.5 7.5-7.5 4.142 0 7.5 3.358 7.5 7.5 0 4.142-3.357 7.5-7.5 7.5z"/><path d="m302.592 325.625c-4.142 0-7.5-3.358-7.5-7.5 0-4.142 3.358-7.5 7.5-7.5 4.142 0 7.5 3.358 7.5 7.5 0 4.142-3.357 7.5-7.5 7.5z"/><path d="m240.468 325.625c-4.142 0-7.5-3.358-7.5-7.5 0-4.142 3.358-7.5 7.5-7.5 4.142 0 7.5 3.358 7.5 7.5 0 4.142-3.358 7.5-7.5 7.5z"/><path d="m364.717 325.625c-4.142 0-7.5-3.358-7.5-7.5 0-4.142 3.358-7.5 7.5-7.5 4.142 0 7.5 3.358 7.5 7.5 0 4.142-3.358 7.5-7.5 7.5z"/><path d="m147.281 356.687c-4.142 0-7.5-3.358-7.5-7.5 0-4.142 3.358-7.5 7.5-7.5 4.142 0 7.5 3.358 7.5 7.5 0 4.142-3.358 7.5-7.5 7.5z"/><path d="m116.219 387.749c-4.142 0-7.5-3.358-7.5-7.5 0-4.142 3.358-7.5 7.5-7.5 4.142 0 7.5 3.358 7.5 7.5 0 4.142-3.358 7.5-7.5 7.5z"/><path d="m178.343 387.749c-4.142 0-7.5-3.358-7.5-7.5 0-4.142 3.358-7.5 7.5-7.5 4.142 0 7.5 3.358 7.5 7.5 0 4.142-3.357 7.5-7.5 7.5z"/><path d="m147.281 418.811c-4.142 0-7.5-3.358-7.5-7.5 0-4.142 3.358-7.5 7.5-7.5 4.142 0 7.5 3.358 7.5 7.5 0 4.142-3.358 7.5-7.5 7.5z"/><path d="m209.406 356.687c-4.142 0-7.5-3.358-7.5-7.5 0-4.142 3.358-7.5 7.5-7.5 4.142 0 7.5 3.358 7.5 7.5 0 4.142-3.358 7.5-7.5 7.5z"/><path d="m333.655 356.687c-4.142 0-7.5-3.358-7.5-7.5 0-4.142 3.358-7.5 7.5-7.5 4.142 0 7.5 3.358 7.5 7.5 0 4.142-3.358 7.5-7.5 7.5z"/><path d="m271.53 356.687c-4.142 0-7.5-3.358-7.5-7.5 0-4.142 3.358-7.5 7.5-7.5 4.142 0 7.5 3.358 7.5 7.5 0 4.142-3.358 7.5-7.5 7.5z"/><path d="m395.779 356.687c-4.142 0-7.5-3.358-7.5-7.5 0-4.142 3.358-7.5 7.5-7.5 4.142 0 7.5 3.358 7.5 7.5 0 4.142-3.358 7.5-7.5 7.5z"/><path d="m364.717 387.749c-4.142 0-7.5-3.358-7.5-7.5 0-4.142 3.358-7.5 7.5-7.5 4.142 0 7.5 3.358 7.5 7.5 0 4.142-3.358 7.5-7.5 7.5z"/><path d="m333.655 418.811c-4.142 0-7.5-3.358-7.5-7.5 0-4.142 3.358-7.5 7.5-7.5 4.142 0 7.5 3.358 7.5 7.5 0 4.142-3.358 7.5-7.5 7.5z"/><path d="m395.779 418.811c-4.142 0-7.5-3.358-7.5-7.5 0-4.142 3.358-7.5 7.5-7.5 4.142 0 7.5 3.358 7.5 7.5 0 4.142-3.358 7.5-7.5 7.5z"/></g><g><path d="m457.899 216.1c4.142 0 7.5-3.358 7.5-7.5l.005-138.974c0-4.142-3.358-7.5-7.5-7.5l-101.218.004.003-54.63c0-4.142-3.358-7.5-7.5-7.5h-76.85c-4.142 0-7.5 3.358-7.5 7.5s3.358 7.5 7.5 7.5h38.285v16.06h-109.249v-16.06h38.285c4.142 0 7.5-3.358 7.5-7.5s-3.358-7.5-7.5-7.5h-76.85c-4.142 0-7.5 3.358-7.5 7.5l.003 54.63-101.219-.004c-4.142 0-7.5 3.358-7.5 7.5v403.809c.534 4.667 3.036 7.168 7.505 7.504h23.558v23.558c0 4.142 3.358 7.5 7.5 7.5h62.125c4.142 0 7.5-3.358 7.5-7.5v-23.557h202.436v23.558c0 4.142 3.358 7.5 7.5 7.5h62.125c4.142 0 7.5-3.358 7.5-7.5v-23.558h23.558c4.469-.336 6.971-2.838 7.505-7.504l-.005-232.156c0-4.142-3.358-7.5-7.5-7.5s-7.5 3.358-7.5 7.5v162.531h-16.06v-264.56h16.06v69.349c-.002 4.142 3.356 7.5 7.498 7.5zm-334.18 249.836v-16.066h264.561v16.065h-264.561zm295.62-357.746v109.248h-326.68v-109.248zm-334.182-15.001c-4.142 0-7.5 3.358-7.5 7.5v23.562h-16.058v-47.121h47.12v16.059zm0 356.685h23.562v16.062h-47.12v-47.125h16.058v23.563c0 4.142 3.358 7.5 7.5 7.5zm334.182-15.004h-326.68v-100.4c0-4.142-3.358-7.5-7.5-7.5s-7.5 3.358-7.5 7.5v69.341h-16.06v-264.56h16.06v162.529c0 4.142 3.358 7.5 7.5 7.5s7.5-3.358 7.5-7.5v-69.342h326.68zm-295.62-341.68v-16.06h264.561v16.06zm201.905-31.064v-47.124h16.062v47.125h-16.062zm-139.249-47.124v47.125h-16.062v-47.125zm15 31.058h109.249v16.07h-109.249zm-61.594 450.938h-47.124v-16.058h47.125v16.058zm279.56 0h-47.125v-16.058h47.125zm15-78.187h16.058v47.125h-47.12v-16.062h23.562c4.142 0 7.5-3.358 7.5-7.5zm0-294.56v-23.562c0-4.142-3.358-7.5-7.5-7.5h-23.562v-16.059h47.12v47.121z"/><path d="m147.281 201.375c21.263 0 38.562-17.299 38.562-38.562 0-21.264-17.299-38.563-38.562-38.563-21.264 0-38.563 17.299-38.563 38.563.001 21.264 17.3 38.562 38.563 38.562zm0-62.124c12.992 0 23.562 10.57 23.562 23.563s-10.57 23.562-23.562 23.562-23.563-10.57-23.563-23.562 10.571-23.563 23.563-23.563z"/><path d="m240.468 201.375h31.063c4.142 0 7.5-3.358 7.5-7.5v-62.125c0-4.142-3.358-7.5-7.5-7.5h-31.063c-4.142 0-7.5 3.358-7.5 7.5v62.125c0 4.143 3.358 7.5 7.5 7.5zm7.5-62.124h16.063v47.125h-16.063z"/><path d="m302.592 201.375h31.063c4.142 0 7.5-3.358 7.5-7.5v-62.125c0-4.142-3.358-7.5-7.5-7.5h-31.063c-4.142 0-7.5 3.358-7.5 7.5v62.125c0 4.143 3.358 7.5 7.5 7.5zm7.5-62.124h16.063v47.125h-16.063z"/><path d="m364.717 201.375h31.063c4.142 0 7.5-3.358 7.5-7.5v-62.125c0-4.142-3.358-7.5-7.5-7.5h-31.063c-4.142 0-7.5 3.358-7.5 7.5v62.125c0 4.143 3.358 7.5 7.5 7.5zm7.5-62.124h16.063v47.125h-16.063z"/><path d="m209.406 418.811h93.187c4.142 0 7.5-3.358 7.5-7.5v-31.062c0-4.142-3.358-7.5-7.5-7.5h-93.187c-4.142 0-7.5 3.358-7.5 7.5v31.062c0 4.142 3.358 7.5 7.5 7.5zm7.5-31.062h78.187v16.062h-78.187z"/></g></g></g></svg>