<svg id="Layer_1" viewBox="0 0 1000 1000" xmlns="http://www.w3.org/2000/svg" data-name="Layer 1"><path d="m812.62 646.88c-4.43 34.51-16.48 72.34-35.85 112.43a7.5 7.5 0 0 1 -13.24.49l-23-39.69c-5.53 14.51-16.28 36.95-36.26 62.12-19.79 24.92-44.62 47.42-73.81 66.88-36.31 24.2-79.5 43.75-128.39 58.09a7.57 7.57 0 0 1 -4.22 0c-48.85-14.34-92.04-33.89-128.35-58.09-29.19-19.46-54-42-73.81-66.88-20-25.17-30.73-47.61-36.26-62.12l-23 39.69a7.5 7.5 0 0 1 -13.24-.49c-19.37-40.09-31.42-77.92-35.85-112.43-3.58-28-2.2-53.85 4.11-77 10.94-40 32.89-57.86 33.82-58.6a7.51 7.51 0 0 1 11.29 2.34c35.1 65.7 104.69 128.6 105.44 129.23a7.51 7.51 0 0 1 -1.18 12l-34.64 20.57c33.71 41 75.2 60.15 104.75 69a224.82 224.82 0 0 0 53.07 9.25v-335.91a7.5 7.5 0 0 1 15 0v343.53a7.51 7.51 0 0 1 -7.22 7.5c-1.15 0-28.39.9-64.59-9.82-33.4-9.9-81-32-118.19-81.07a7.51 7.51 0 0 1 2.15-11l33.35-19.8c-18.31-17.43-65.9-65.14-96.18-117.47-6.55 7.75-16.63 22.54-22.67 45.41-8.38 31.74-10.41 85.58 25 164.78l24.29-42a7.49 7.49 0 0 1 13.84 2.27c.07.32 7.16 33.5 39.23 73.58 29.47 36.84 86.65 87.17 191.94 118.5 105.87-31.48 163.15-82.17 192.61-119.27 31.75-40 38.54-72.47 38.61-72.8a7.49 7.49 0 0 1 13.83-2.27l24.29 42c35.78-79.91 33.44-134.07 24.74-165.94-6.12-22.39-15.92-36.74-22.33-44.29-30.28 52.35-77.89 100.08-96.21 117.51l33.39 19.82a7.51 7.51 0 0 1 2.15 11c-37.15 49.07-84.78 71.14-118.18 81.07-36.2 10.72-63.44 9.86-64.59 9.82a7.51 7.51 0 0 1 -7.22-7.5v-343.56a7.5 7.5 0 0 1 15 0v335.91a224.82 224.82 0 0 0 53.08-9.24c29.55-8.83 71-27.93 104.75-69l-34.64-20.57a7.51 7.51 0 0 1 -1.18-12c.7-.63 70.32-63.59 105.35-129.18a7.51 7.51 0 0 1 11.29-2.34c.93.74 22.88 18.55 33.82 58.6 6.31 23.06 7.69 48.98 4.11 76.94z"/><path d="m536 225.41v137.21a7.5 7.5 0 0 1 -15 0v-137.21a7.5 7.5 0 1 1 15 0z"/><path d="m479 225.42v137.2a7.5 7.5 0 0 1 -15 0v-137.2a7.5 7.5 0 0 1 15 0z"/><path d="m500 92.5a73.44 73.44 0 0 0 -36 137.43 73.37 73.37 0 0 0 72.08 0 73.44 73.44 0 0 0 -36.08-137.43zm0 131.89a58.45 58.45 0 1 1 58.45-58.39 58.51 58.51 0 0 1 -58.45 58.39z"/><path d="m500 107.5a58.45 58.45 0 1 0 58.45 58.5 58.52 58.52 0 0 0 -58.45-58.5zm0 98.5a40.07 40.07 0 1 1 40.06-40 40.1 40.1 0 0 1 -40.06 40z" fill="#78909c"/><path d="m500 125.88a40.07 40.07 0 1 0 40.06 40.12 40.11 40.11 0 0 0 -40.06-40.12zm0 65.12a25.07 25.07 0 1 1 25.06-25 25.09 25.09 0 0 1 -25.06 25z"/><path d="m525.06 166a25.06 25.06 0 1 1 -25.06-25.12 25.09 25.09 0 0 1 25.06 25.12z" fill="#78909c"/><path d="m641.73 417.76a7.5 7.5 0 0 1 -7.5 7.5h-105.69a7.5 7.5 0 0 1 0-15h105.69a7.5 7.5 0 0 1 7.5 7.5z"/><path d="m479 417.76a7.5 7.5 0 0 1 -7.5 7.5h-105.73a7.5 7.5 0 0 1 0-15h105.69a7.5 7.5 0 0 1 7.54 7.5z"/><path d="m641.73 362.62a7.5 7.5 0 0 1 -7.5 7.5h-105.69a7.5 7.5 0 0 1 0-15h105.69a7.5 7.5 0 0 1 7.5 7.5z"/><path d="m479 362.62a7.5 7.5 0 0 1 -7.5 7.5h-105.73a7.5 7.5 0 0 1 0-15h105.69a7.5 7.5 0 0 1 7.54 7.5z"/><path d="m672.54 335.5a54.69 54.69 0 1 0 54.69 54.69 54.56 54.56 0 0 0 -54.69-54.69zm0 94.38a39.69 39.69 0 1 1 39.69-39.69 39.74 39.74 0 0 1 -39.69 39.69z"/><circle cx="672.54" cy="390.19" fill="#78909c" r="39.69" transform="matrix(.707 -.707 .707 .707 -78.92 589.84)"/><path d="m378.33 370.12a54.63 54.63 0 1 0 3.82 20.07 54.6 54.6 0 0 0 -3.82-20.07zm-50.87 59.76a39.69 39.69 0 1 1 39.69-39.69 39.74 39.74 0 0 1 -39.69 39.69z"/><circle cx="327.46" cy="390.19" fill="#78909c" r="39.69" transform="matrix(.23 -.973 .973 .23 -127.53 619.24)"/><path d="m769.3 739.82-24.29-42a7.49 7.49 0 0 0 -13.84 2.27c-.07.33-6.86 32.82-38.61 72.8-29.46 37.11-86.74 87.8-192.56 119.29-105.29-31.33-162.47-81.66-191.94-118.5-32.06-40.08-39.16-73.26-39.23-73.58a7.49 7.49 0 0 0 -13.83-2.27l-24.29 42c-35.46-79.2-33.43-133-25-164.78 6-22.87 16.12-37.66 22.67-45.41 30.28 52.33 77.87 100 96.18 117.47l-33.39 19.82a7.51 7.51 0 0 0 -2.15 11c37.1 49.07 84.73 71.14 118.13 81.07 36.2 10.72 63.44 9.86 64.59 9.82a7.51 7.51 0 0 0 7.22-7.5v-343.56a7.5 7.5 0 0 0 -7.5-7.5h-93.13a54.63 54.63 0 0 0 0-40.14h93.13a7.5 7.5 0 0 0 7.5-7.5v-126.31a73.4 73.4 0 0 0 42.08 0v126.31a7.5 7.5 0 0 0 7.5 7.5h93.13a54.63 54.63 0 0 0 0 40.14h-93.13a7.5 7.5 0 0 0 -7.5 7.5v343.53a7.51 7.51 0 0 0 7.22 7.5c1.15 0 28.39.9 64.59-9.82 33.4-9.9 81-32 118.19-81.07a7.51 7.51 0 0 0 -2.15-11l-33.39-19.8c18.32-17.43 65.93-65.16 96.21-117.51 6.41 7.55 16.21 21.9 22.33 44.29 8.7 31.87 11.04 86.03-24.74 165.94z" fill="#b0bec5"/></svg>