<svg enable-background="new 0 0 512 512" viewBox="0 0 512 512" xmlns="http://www.w3.org/2000/svg"><g id="_x31_2_x2C__ant_x2C__mammal_x2C__animal_x2C__wildlife_x2C__animal_kingdom_x2C__zoo"><g><path d="m279.71 325.521h-47.42c-38.796 7.256-53.395 34.145-51.07 72.92h149.56c.15-2.5.22-4.98.22-7.44 0-37.715-17.531-59.166-51.29-65.48z" fill="#f7e45b"/><path d="m295.62 212.811h-79.24c-33.077 32.755-24.52 93.148 15.91 112.71 14.665 7.121 31.981 7.496 47.42 0 40.43-19.562 48.987-79.955 15.91-112.71z" fill="#555a66"/><path d="m326.31 176.541c-4.598 33.409-36.432 41.96-70.31 41.96-39.124 0-70.88-11.475-70.88-50.62 0-39.07 31.695-84.38 70.88-84.38 42.209 0 75.925 52.85 70.31 93.04z" fill="#707788"/><path d="m181.22 398.441c1.1 18.6 6.21 37.81 14.22 54.63h121.12c8.01-16.82 13.12-36.03 14.22-54.63-46.642-19.91-102.815-19.953-149.56 0z" fill="#edb92b"/><path d="m316.56 453.071c-13.64 28.68-35.69 50.43-60.56 50.43s-46.92-21.75-60.56-50.43c38.688-12.765 82.423-12.768 121.12 0z" fill="#f7e45b"/><g><path d="m482.976 356.156-49.74-58.78c-22.116-26.138-54.388-42.527-88.54-44.966l-22.183-1.587c-2.007-12.983-7.06-25.175-14.651-35.314 13.225-7.287 21.553-18.143 24.873-32.479 42.444-8.22 78.386-37.763 94.521-78.086l4.46-11.16c1.537-3.847-.335-8.211-4.182-9.748-3.844-1.534-8.21.335-9.748 4.182l-4.458 11.157c-13.664 34.147-43.424 59.532-78.959 67.954-.171-24.806-11.943-51.869-30.496-70.046l9.227-25.373c6.098-16.796 5.804-35.179-.826-51.764l-5.77-14.43c-1.537-3.848-5.901-5.718-9.748-4.18s-5.718 5.902-4.18 9.748l5.77 14.43c5.261 13.16 5.493 27.748.655 41.072l-7.445 20.471c-22.617-15.005-48.469-15.021-71.112 0l-7.444-20.466c-4.839-13.328-4.606-27.916.654-41.076l5.77-14.43c1.538-3.846-.333-8.21-4.18-9.748-3.846-1.538-8.21.333-9.748 4.18l-5.77 14.43c-6.63 16.585-6.924 34.968-.825 51.768l9.226 25.369c-18.554 18.178-30.326 45.244-30.496 70.051-35.505-8.401-65.287-33.794-78.957-67.956l-4.46-11.16c-1.538-3.847-5.905-5.715-9.748-4.182-3.847 1.537-5.719 5.901-4.182 9.748l4.462 11.163c16.142 40.34 52.11 69.893 94.52 78.086 3.313 14.305 11.62 25.174 24.872 32.476-7.591 10.139-12.644 22.331-14.651 35.314-18.554 1.493-25.497 1.342-36.805 3.489-4.07.771-6.743 4.696-5.971 8.766.682 3.598 3.828 6.104 7.359 6.104 1.755 0 5.488-1.182 14.304-1.811l20.18-1.443c.665 23.073 10.746 43.538 26.114 56.807-15.49 6.07-26.051 15.848-32.674 28.617l-1.211.203c-38.661 6.454-71.753 29.805-90.791 64.064l-46.8 84.24c-2.011 3.621-.706 8.188 2.914 10.199 3.614 2.006 8.182.714 10.199-2.914l46.799-84.24c15.602-28.076 41.9-47.844 72.897-55.093-12.824 54.617 24.857 143.189 79.999 143.189 54.976 0 92.883-88.319 79.998-143.191 30.996 7.249 57.295 27.017 72.896 55.094l46.8 84.24c1.371 2.467 3.928 3.858 6.563 3.858 5.658 0 9.34-6.118 6.55-11.144l-46.801-84.24c-32.28-58.092-91.16-63.922-92.001-64.267-6.623-12.77-17.185-22.548-32.674-28.617 15.368-13.269 25.449-33.733 26.114-56.807l20.181 1.444c30.148 2.153 58.636 16.621 78.158 39.694l49.74 58.78c2.675 3.162 7.406 3.556 10.57.881 3.163-2.676 3.557-7.408.882-10.57zm-289.782-179.802c-.013-.544-.081-1.079-.207-1.594-4.081-36.095 25.699-83.759 63.013-83.759 37.168 0 67.116 47.472 63.013 83.759-.126.516-.194 1.05-.207 1.594-4.186 28.528-33.877 34.646-62.806 34.646-28.917.001-58.624-6.144-62.806-34.646zm62.806 319.647c-21.296 0-39.064-19.325-49.743-38.361 32.092-8.852 67.347-8.866 99.486 0-10.633 18.954-28.464 38.361-49.743 38.361zm67.444-108.476c-11.664-4.182-23.86-7.272-36.401-9.188-4.08-.619-7.921 2.185-8.547 6.281-.626 4.095 2.187 7.921 6.281 8.547 13.199 2.017 25.978 5.423 38.066 10.138-1.389 13.682-5.006 27.703-10.432 40.637-36.317-10.583-76.439-10.603-112.823 0-5.426-12.934-9.042-26.955-10.432-40.637 12.088-4.715 24.867-8.121 38.066-10.138 4.095-.626 6.907-4.452 6.281-8.547-.626-4.096-4.459-6.908-8.547-6.281-12.541 1.916-24.736 5.006-36.401 9.188.962-31.497 15.272-48.298 42.895-54.181 15.478 6.74 32.99 7.014 49.097 0 27.626 5.883 41.935 22.685 42.897 54.181zm-67.444-64.024c-28.948 0-52.5-26.916-52.5-60 0-15.8 5.469-30.869 15.109-42.063 20.817 6.114 53.897 6.134 74.783 0 9.639 11.193 15.109 26.262 15.109 42.063-.001 33.084-23.553 60-52.501 60z"/><path d="m104.712 292.776c3.2-2.63 3.663-7.356 1.033-10.557-2.632-3.202-7.358-3.662-10.557-1.033-14.865 12.216-17.87 18.766-66.164 74.97-2.676 3.162-2.281 7.895.881 10.57 3.16 2.674 7.894 2.282 10.57-.881 48.007-55.956 50.961-62.161 64.237-73.069z"/><path d="m226 173.501c4.143 0 7.5-3.357 7.5-7.5v-7.5c0-4.143-3.357-7.5-7.5-7.5s-7.5 3.357-7.5 7.5v7.5c0 4.142 3.357 7.5 7.5 7.5z"/><path d="m286 173.501c4.143 0 7.5-3.357 7.5-7.5v-7.5c0-4.143-3.357-7.5-7.5-7.5s-7.5 3.357-7.5 7.5v7.5c0 4.142 3.357 7.5 7.5 7.5z"/><circle cx="256" cy="383.501" r="7.5"/><circle cx="125.867" cy="271.901" r="7.5"/></g></g></g><g id="Layer_1"/></svg>