<svg id="Capa_1" enable-background="new 0 0 512 512" height="512" viewBox="0 0 512 512" width="512" xmlns="http://www.w3.org/2000/svg"><g><g><path d="m312.057 196.85-5.319-37.234c-.711-4.977-4.973-8.673-10-8.673h-83.494c-5.027 0-9.289 3.696-10 8.673l-5.319 37.234c-2.192 15.346-12.415 28.353-26.808 34.111-16.454 6.582-27.244 22.518-27.244 40.24v202.995c0 16.737 13.568 30.305 30.305 30.305h161.626c16.737 0 30.305-13.568 30.305-30.305v-202.996c0-17.722-10.789-33.658-27.244-40.24-14.393-5.757-24.616-18.764-26.808-34.11z" fill="#edf6ff"/></g><g><path d="m338.865 230.96c-14.393-5.757-24.616-18.764-26.808-34.111l-5.319-37.234c-.711-4.977-4.973-8.673-10-8.673h-34.346c5.027 0 9.289 3.696 10 8.673l5.319 37.234c2.192 15.346 12.415 28.353 26.808 34.111 16.454 6.582 27.244 22.518 27.244 40.24v202.995c0 16.737-13.568 30.305-30.305 30.305h34.346c16.737 0 30.305-13.568 30.305-30.305v-202.995c0-17.722-10.79-33.658-27.244-40.24z" fill="#ddebfd"/></g><g><path d="m360.048 64.069h-24.244v-48.488h24.244c4.463 0 8.081 3.618 8.081 8.081v32.325c0 4.464-3.618 8.082-8.081 8.082z" fill="#e175a5"/></g><g><path d="m327.723 7.5h-109.407c-7.963 0-14.74 5.8-15.969 13.667l-5.856 37.477c-1.218 7.797 3.372 15.333 10.858 17.828l9.048 3.016c4.95 1.65 8.289 6.282 8.289 11.5v27.629h60.61v-26.427c0-5.778 4.079-10.753 9.745-11.887l34.267-6.853c3.777-.755 6.496-4.072 6.496-7.924v-49.945c0-4.463-3.618-8.081-8.081-8.081z" fill="#4172ca"/></g><g><path d="m327.723 7.5h-24.106c-3.628 23.376-18.601 51.109-42.643 75.151-11.541 11.541-23.934 20.992-36.287 28.105v7.862h60.61v-26.428c0-5.778 4.079-10.753 9.745-11.887l34.267-6.853c3.777-.755 6.496-4.072 6.496-7.924v-49.945c-.001-4.463-3.619-8.081-8.082-8.081z" fill="#3a67c1"/></g><g><path d="m295.397 150.943h-80.813v-24.244c0-4.463 3.618-8.081 8.081-8.081h64.65c4.463 0 8.081 3.618 8.081 8.081v24.244z" fill="#e175a5"/></g><g><path d="m287.316 118.618h-30.305c4.463 0 8.081 3.618 8.081 8.081v24.244h30.305v-24.244c0-4.463-3.618-8.081-8.081-8.081z" fill="#de5791"/></g><g><path d="m254.991 303.478c24.244 9.091 24.244 36.366 24.244 36.366 0 13.39-10.854 24.244-24.244 24.244s-24.244-10.854-24.244-24.244c0 0 0-27.275 24.244-36.366z" fill="#e0bba4"/></g><g><ellipse cx="254.991" cy="291.356" fill="#d8ab8c" rx="16.163" ry="20.203"/></g><g><path d="m279.235 459.043h-48.488c-4.463 0-8.081-3.618-8.081-8.081v-16.163c0-4.463 3.618-8.081 8.081-8.081h48.488c4.463 0 8.081 3.618 8.081 8.081v16.163c0 4.463-3.618 8.081-8.081 8.081z" fill="#eab14d"/></g><g><path d="m330.793 80.803c5.161-1.04 9.303-4.603 11.266-9.233h17.989c8.591 0 15.581-6.989 15.581-15.581v-32.326c0-8.592-6.99-15.582-15.581-15.582h-18.678c-2.655-4.812-7.776-8.081-13.649-8.081h-63.49c-4.142 0-7.5 3.357-7.5 7.5s3.358 7.5 7.5 7.5h63.49c.32 0 .58.26.58.58v49.95c0 .273-.198.513-.46.565l-34.279 6.852c-9.138 1.838-15.771 9.932-15.771 19.243v18.928h-45.61v-20.128c0-8.462-5.389-15.943-13.406-18.614l-9.059-3.023c-4.026-1.338-6.472-5.356-5.815-9.554l5.86-37.471c.664-4.246 4.263-7.328 8.56-7.328h10.91c4.142 0 7.5-3.357 7.5-7.5s-3.358-7.5-7.5-7.5h-10.91c-11.735 0-21.567 8.416-23.38 20.011l-5.859 37.47c-1.794 11.469 4.895 22.447 15.895 26.104l9.053 3.021c1.885.628 3.151 2.391 3.151 4.385v21.144c-5.89 2.226-10.097 7.906-10.097 14.565v17.87c-5.869 2.218-10.343 7.503-11.268 13.99l-5.321 37.231c-1.805 12.649-10.296 23.458-22.159 28.206-9.466 3.784-17.497 10.249-23.228 18.701-5.717 8.448-8.738 18.304-8.738 28.503v107.71c0 4.143 3.358 7.5 7.5 7.5s7.5-3.357 7.5-7.5v-107.711c0-7.19 2.13-14.14 6.157-20.091 4.04-5.958 9.703-10.518 16.38-13.187 16.832-6.737 28.877-22.069 31.438-40.013l5.32-37.231c.182-1.276 1.289-2.238 2.575-2.238h83.5c1.286 0 2.393.963 2.575 2.24l5.321 37.233c1.266 8.831 4.843 17.204 10.347 24.221 5.516 7.017 12.809 12.476 21.092 15.789 13.689 5.473 22.534 18.534 22.534 33.276v16.801c0 4.143 3.358 7.5 7.5 7.5s7.5-3.357 7.5-7.5v-16.8c0-20.913-12.547-39.441-31.964-47.204-5.839-2.335-10.98-6.185-14.865-11.125-3.879-4.946-6.403-10.854-7.296-17.082l-5.32-37.229c-.926-6.489-5.4-11.774-11.269-13.992v-17.87c0-6.663-4.212-12.346-10.106-14.569v-19.939c0-2.194 1.568-4.104 3.72-4.536l10.579-2.114v4.392c0 8.74 3.657 17.181 10.033 23.158l24.663 23.122c1.447 1.356 3.29 2.028 5.128 2.028 2 0 3.997-.796 5.473-2.37 2.833-3.022 2.68-7.769-.341-10.602l-24.663-23.122c-3.363-3.152-5.292-7.605-5.292-12.215v-7.39zm29.836-57.14v32.325c0 .32-.261.581-.581.581h-16.747v-33.488h16.747c.32 0 .581.261.581.582zm-138.545 103.036c0-.32.261-.581.581-.581h64.65c.321 0 .582.261.582.581v16.741h-65.813z"/><path d="m366.111 315.5c-4.142 0-7.5 3.357-7.5 7.5v151.2c0 12.572-10.232 22.8-22.81 22.8h-161.62c-12.578 0-22.81-10.228-22.81-22.8v-60.29c0-4.143-3.358-7.5-7.5-7.5s-7.5 3.357-7.5 7.5v60.29c0 20.843 16.961 37.8 37.81 37.8h161.62c20.849 0 37.81-16.957 37.81-37.8v-151.2c0-4.143-3.358-7.5-7.5-7.5z"/><path d="m341.284 317.62c0-47.582-38.711-86.293-86.293-86.293s-86.292 38.711-86.292 86.293 38.71 86.293 86.292 86.293 86.293-38.711 86.293-86.293zm-15 0c0 16.96-5.962 32.547-15.888 44.798l-23.695-23.695c-.11-2.275-.598-7.706-2.705-14.086l8.648 1.081 5.19 5.932c1.483 1.695 3.56 2.562 5.647 2.562 1.753 0 3.513-.611 4.936-1.855 3.117-2.728 3.433-7.466.706-10.583l-7.071-8.081c-1.211-1.385-2.889-2.275-4.714-2.504l-15.889-1.986 8.938-2.554c1.83-.522 3.392-1.721 4.371-3.353l6.061-10.102c2.131-3.552.979-8.158-2.572-10.29-3.554-2.131-8.16-.979-10.29 2.573l-4.538 7.562-4.916 1.405c.097-1.015.151-2.044.151-3.088 0-15.275-10.615-27.703-23.663-27.703-10.923 0-20.137 8.712-22.849 20.512l-21.949-21.949c12.252-9.925 27.839-15.888 44.798-15.888 39.311-.001 71.293 31.981 71.293 71.292zm-71.293-13.561c-4.696 0-8.663-5.817-8.663-12.703s3.967-12.703 8.663-12.703 8.663 5.817 8.663 12.703-3.967 12.703-8.663 12.703zm-9.248 14.92 25.361 25.361c-1.971 7.052-8.44 12.247-16.113 12.247-9.232 0-16.744-7.511-16.744-16.708.001-.139.215-11.853 7.496-20.9zm-62.045-1.359c0-16.959 5.962-32.547 15.887-44.798l10.964 10.964c-2.596 2.355-3.258 6.288-1.386 9.408l6.061 10.102c.979 1.632 2.541 2.83 4.371 3.353l8.938 2.554-15.889 1.986c-1.825.229-3.503 1.119-4.714 2.504l-7.071 8.081c-2.728 3.117-2.412 7.854.705 10.583 1.423 1.245 3.183 1.855 4.936 1.855 2.087 0 4.165-.866 5.647-2.562l5.191-5.932 8.648-1.081c-1.204 3.645-1.88 6.981-2.257 9.598l-7.376 7.376c-2.929 2.93-2.929 7.678 0 10.607 1.464 1.464 3.384 2.196 5.303 2.196 1.562 0 3.12-.494 4.436-1.463 5 10.979 16.069 18.635 28.899 18.635 11.728 0 21.983-6.398 27.479-15.881l17.319 17.319c-12.252 9.925-27.839 15.888-44.798 15.888-39.311.001-71.293-31.98-71.293-71.292z"/><path d="m230.747 419.218c-8.592 0-15.582 6.989-15.582 15.581v16.162c0 8.592 6.99 15.582 15.582 15.582h48.488c8.591 0 15.581-6.99 15.581-15.582v-16.162c0-8.592-6.99-15.581-15.581-15.581zm49.069 15.581v16.162c0 .321-.261.582-.581.582h-48.488c-.321 0-.582-.261-.582-.582v-16.162c0-.32.261-.581.582-.581h48.488c.32 0 .581.261.581.581z"/></g></g></svg>