<svg clip-rule="evenodd" fill-rule="evenodd" height="512" image-rendering="optimizeQuality" shape-rendering="geometricPrecision" text-rendering="geometricPrecision" viewBox="0 0 512 512" width="512" xmlns="http://www.w3.org/2000/svg"><g id="Layer_x0020_1"><g id="_522186912"><g><path d="m346 512h-200c-30 0-56-25-56-55v-402c0-30 26-55 56-55h200c30 0 56 25 56 55v402c0 30-26 55-56 55zm-200-502c-25 0-46 21-46 45v402c0 24 21 45 46 45h200c25 0 46-21 46-45v-402c0-24-21-45-46-45z"/></g><g><path d="m346 490h-200c-18 0-33-15-33-33v-402c0-18 15-33 33-33h200c18 0 33 15 33 33v402c0 18-15 33-33 33zm-200-458c-13 0-23 10-23 23v402c0 13 10 23 23 23h200c13 0 23-10 23-23v-402c0-13-10-23-23-23z"/></g><g><path d="m246 79c-10 0-17-8-17-18 0-8 7-17 17-17s17 9 17 17c0 10-8 18-17 18zm0-25c-4 0-7 4-7 7 0 4 3 8 7 8s7-4 7-8c0-3-3-7-7-7z"/></g><g><path d="m318 458h-144c-3 0-5-2-5-5s2-5 5-5h144c3 0 5 2 5 5s-2 5-5 5z"/></g><g><path d="m417 155h-20c-3 0-5-2-5-5s2-5 5-5h15v-47h-15c-3 0-5-2-5-5s2-5 5-5h20c3 0 5 2 5 5v57c0 3-2 5-5 5z"/></g><g><path d="m417 235h-20c-3 0-5-2-5-5s2-5 5-5h15v-47h-15c-3 0-5-2-5-5s2-5 5-5h20c3 0 5 2 5 5v57c0 3-2 5-5 5z"/></g><g><path d="m417 341h-20c-3 0-5-2-5-5s2-5 5-5h15v-47h-15c-3 0-5-2-5-5s2-5 5-5h20c3 0 5 2 5 5v57c0 3-2 5-5 5z"/></g><g><path d="m344 271h-196c-9 0-17-8-17-18 0-9 8-17 17-17h196c10 0 17 9 17 17 0 10-8 18-17 18zm-196-25c-3 0-7 4-7 7 0 4 4 8 7 8h196c4 0 7-4 7-8 0-3-3-7-7-7z"/></g><g><path d="m324 246c-1 0-3-1-4-2l-74-85-74 85c-2 2-5 3-7 1s-3-5-1-7l78-90c1-1 3-2 4-2 2 0 3 1 4 2l78 90c2 2 1 5-1 7-1 1-2 1-3 1z"/></g><g><path d="m356 384h-220c-3 0-5-2-5-5v-24c0-3 2-5 5-5h220c3 0 5 2 5 5v24c0 3-2 5-5 5zm-215-10h210v-14h-210z"/></g><g><path d="m342 360c-3 0-5-2-5-5v-88c0-3 2-5 5-5s5 2 5 5v88c0 3-2 5-5 5zm-192 0c-3 0-5-2-5-5v-88c0-3 2-5 5-5s5 2 5 5v88c0 3-2 5-5 5z"/></g><g><path d="m341 246c-3 0-5-2-5-5v-62c0-3 2-5 5-5s5 2 5 5v62c0 3-2 5-5 5zm-190 0c-3 0-5-2-5-5v-62c0-3 2-5 5-5s5 2 5 5v62c0 3-2 5-5 5z"/></g><g><path d="m342 184h-71c-3 0-5-2-5-5s2-5 5-5h71c2 0 3-1 3-3 0-1-1-3-3-3h-85c-3 0-5-2-5-5s2-5 5-5h85c8 0 13 7 13 13 0 8-5 13-13 13zm-120 0h-72c-8 0-13-5-13-13 0-6 5-13 13-13h85c3 0 5 2 5 5s-2 5-5 5h-85c-2 0-3 2-3 3 0 2 1 3 3 3h72c3 0 5 2 5 5s-2 5-5 5z"/></g><g><path d="m332 168c-3 0-5-2-5-5 0-11-9-20-20-20h-122c-11 0-20 9-20 20 0 3-2 5-5 5s-5-2-5-5c0-16 14-30 30-30h122c16 0 30 14 30 30 0 3-2 5-5 5z"/></g><g><path d="m279 360c-3 0-5-2-5-5v-67h-56v67c0 3-2 5-5 5s-5-2-5-5v-72c0-3 2-5 5-5h66c3 0 5 2 5 5v72c0 3-2 5-5 5z"/></g><g><path d="m246 360c-3 0-5-2-5-5v-72c0-3 2-5 5-5s5 2 5 5v72c0 3-2 5-5 5z"/></g><g><path d="m258 328c-3 0-5-2-5-5v-7c0-3 2-5 5-5s5 2 5 5v7c0 3-2 5-5 5z"/></g><g><path d="m235 328c-3 0-5-2-5-5v-7c0-3 2-5 5-5s5 2 5 5v7c0 3-2 5-5 5z"/></g><g><path d="m246 229c-14 0-25-11-25-25s11-25 25-25 25 11 25 25-11 25-25 25zm0-40c-8 0-15 7-15 15s7 15 15 15 15-7 15-15-7-15-15-15z"/></g><g><path d="m189 360c-3 0-5-2-5-5v-89c0-3 2-5 5-5s5 2 5 5v89c0 3-2 5-5 5zm-17 0c-3 0-5-2-5-5v-89c0-3 2-5 5-5s5 2 5 5v89c0 3-2 5-5 5z"/></g><g><path d="m320 360c-3 0-5-2-5-5v-89c0-3 2-5 5-5s5 2 5 5v89c0 3-2 5-5 5zm-17 0c-3 0-5-2-5-5v-89c0-3 2-5 5-5s5 2 5 5v89c0 3-2 5-5 5z"/></g></g><path d="m369 457v-402c0-13-10-23-23-23h-200c-13 0-23 10-23 23v402c0 13 10 23 23 23h200c13 0 23-10 23-23zm-184-324h122c15 0 27 11 30 25h5c8 0 13 7 13 13s-3 11-9 12v53c9 1 15 9 15 17 0 9-6 16-14 18v79h9c3 0 5 2 5 5v24c0 3-2 5-5 5h-220c-3 0-5-2-5-5v-24c0-3 2-5 5-5h9v-79c-8-2-14-9-14-18 0-8 7-16 15-17v-53c-6-1-9-6-9-12s5-13 13-13h5c3-14 15-25 30-25zm61-54c-10 0-17-8-17-18 0-8 7-17 17-17s17 9 17 17c0 10-8 18-17 18zm-72 369h144c3 0 5 2 5 5s-2 5-5 5h-144c-3 0-5-2-5-5s2-5 5-5z" fill="#9ff"/><path d="m113 55c0-18 15-33 33-33h200c18 0 33 15 33 33v402c0 18-15 33-33 33h-200c-18 0-33-15-33-33zm33 447h200c25 0 46-21 46-45v-121-57-49-57-23-57-38c0-24-21-45-46-45h-200c-25 0-46 21-46 45v402c0 24 21 45 46 45z" fill="#2c4489"/><path d="m307 143h-122c-9 0-17 7-19 15h67l9-10c1-1 3-2 4-2 2 0 3 1 4 2l9 10h67c-2-8-10-15-19-15z" fill="#8898a1"/><path d="m261 204c0-8-7-15-15-15s-15 7-15 15 7 15 15 15 15-7 15-15z" fill="#fff"/><path d="m166 236 45-52h-55v52z" fill="#8898a1"/><path d="m151 174h68l6-6h-65-10c-2 0-3 2-3 3 0 2 1 3 3 3z" fill="#7d8b94"/><path d="m271 204c0 14-11 25-25 25s-25-11-25-25 11-25 25-25 25 11 25 25zm-46-21-46 53h134l-67-77-19 22c-1 1-2 2-2 2z" fill="#7d8b94"/><path d="m281 184 45 52h10v-52z" fill="#8898a1"/><path d="m273 174h68 1c2 0 3-1 3-3 0-1-1-3-3-3h-10-65z" fill="#7d8b94"/><path d="m324 246h-173-3c-3 0-7 4-7 7 0 4 4 8 7 8h24 17 114 17 24c4 0 7-4 7-8 0-3-3-7-7-7h-3z" fill="#7d8b94"/><path d="m274 288h-23v62h23zm-16 23c3 0 5 2 5 5v7c0 3-2 5-5 5s-5-2-5-5v-7c0-3 2-5 5-5z" fill="#77838a"/><path d="m241 350v-62h-23v62zm-11-34c0-3 2-5 5-5s5 2 5 5v7c0 3-2 5-5 5s-5-2-5-5z" fill="#77838a"/><path d="m213 278h33 33c3 0 5 2 5 5v67h14v-79h-104v79h14v-67c0-3 2-5 5-5z" fill="#b3bcc6"/><path d="m325 271v79h12v-79z" fill="#b3bcc6"/><path d="m315 350v-79h-7v79z" fill="#77838a"/><path d="m303 360h-24-33-33-24-17-22-9v14h210v-14h-9-22z" fill="#8898a1"/><path d="m167 350v-79h-12v79z" fill="#b3bcc6"/><path d="m177 271v79h7v-79z" fill="#77838a"/><path d="m239 61c0 4 3 8 7 8s7-4 7-8c0-3-3-7-7-7s-7 4-7 7z" fill="#2c4489"/><g fill="#162864"><path d="m402 98v47h10v-47z"/><path d="m412 178h-10v47h10z"/><path d="m412 284h-10v47h10z"/></g></g></svg>