<svg id="apple" viewBox="0 0 64 64" xmlns="http://www.w3.org/2000/svg"><path d="m32 23s-3-8-15-15l3-5s12 6 12 20z" fill="#e07c1d"/><path d="m26.06403 14.85248c4.55988 4.51117 5.93597 8.14752 5.93597 8.14752 0-14-12-20-12-20l-1.36993 2.28326c7.96948 4.70721 8.55597 7.763 7.43396 9.56921z" fill="#cf721b"/><path d="m34 11s4-15 21-4c0 0-10 13-21 4z" fill="#7f813c"/><path d="m51.2677 4.89954c-2.6203 6.2774-11.7677 6.4624-17.22638 5.96045-.02661.08673-.04132.14001-.04132.14001 11 9 21-4 21-4-1.32465-.85712-2.56128-1.53967-3.7323-2.10046z" fill="#707335"/><path d="m41 20c-3.33801 0-6.43542.34485-9 2.63971-2.56458-2.29486-5.66199-2.63971-9-2.63971-8.83655 0-16 6.40198-16 18s9.16345 24 18 24c3.33801 0 4.43542-1.34491 7-3.63977 2.56458 2.29486 3.66199 3.63977 7 3.63977 8.83655 0 18-12.40204 18-24s-7.16345-18-16-18z" fill="#b2163c"/><path d="m47.42999 21.27649c6.30939 32.93213-18.81738 35.22717-34.26312 33.69135 3.33337 4.20844 7.61926 7.03217 11.83313 7.03217 3.33801 0 4.43542-1.34491 7-3.63977 2.56458 2.29486 3.66199 3.63977 7 3.63977 8.83655 0 18-12.40204 18-24 0-8.59381-3.93756-14.32599-9.57001-16.72351z" fill="#961333"/><path d="m12.26172 32.00049c-.12793 0-.25781-.0249-.38379-.07715-.50977-.21191-.75195-.79688-.54004-1.30713 1.09863-2.64258 2.88574-4.72266 5.16992-6.01465.47852-.27344 1.09082-.10303 1.3623.37744.27246.48096.10352 1.09082-.37793 1.36279-1.91895 1.08643-3.36816 2.78271-4.30664 5.04199-.16016.38428-.53223.6167-.92383.6167z" fill="#fff"/><path d="m11.08789 37c-.0293 0-.05957-.00146-.08984-.00391-.5498-.04932-.95605-.53467-.90723-1.08496.03223-.35547.07129-.70459.11914-1.04736.07422-.54688.5791-.93262 1.12598-.85449.54785.0752.92969.57959.85449 1.12695-.04199.31152-.0791.62939-.10742.95264-.04688.52002-.48242.91113-.99512.91113z" fill="#fff"/><path d="m41 19c-3.13849 0-5.78668.33008-8.10999 1.74188-.24402-2.60742-.89355-4.92242-1.7796-6.95557.54431-.61871 1.26929-1.33105 2.24335-2.0271.00513.00439.00818.01044.01343.01471 2.76172 2.26025 5.70312 3.40039 8.76074 3.40039.47754 0 .95703-.02783 1.43945-.0835 7.01855-.80811 12.01562-7.20898 12.22559-7.48096.16992-.22168.24023-.50391.19238-.7793-.04688-.27539-.20801-.51855-.44238-.66992-6.08398-3.93799-11.30469-5.10889-15.51074-3.48828-3.68842 1.422-5.58801 4.61072-6.43237 6.52911-1.47009.83313-2.59869 1.78046-3.44519 2.64661-3.67639-6.64014-9.62109-9.69916-9.7074-9.74261-.46875-.23242-1.03516-.06689-1.30469.37988l-3 5c-.1377.22949-.17773.50439-.11133.76318s.23438.48047.46484.61523c6.58521 3.84143 10.39539 8.00879 12.45551 10.88428-1.77997-.5863-3.74469-.74805-5.9516-.74805-10.16797 0-17 7.63574-17 19 0 12.3833 9.58887 25 19 25 3.38379 0 4.79395-1.28369 6.92969-3.22705l.07031-.06396.07031.06396c2.13574 1.94336 3.5459 3.22705 6.92969 3.22705 9.41113 0 19-12.6167 19-25 0-11.36426-6.83203-19-17-19zm3.91699-10.00342c.56055.04785 1.0332-.36426 1.0791-.91357.0459-.55029-.3623-1.03369-.91309-1.07959-3.38934-.28265-6.1554.12415-8.41766.85858.90894-1.28613 2.22455-2.61047 4.10223-3.32977 3.36426-1.28857 7.6377-.37939 12.7168 2.69775-1.53809 1.67676-5.38184 5.3252-10.14551 5.87402-2.82318.32446-5.56256-.50006-8.1604-2.45068 2.3158-1.1748 5.49286-2.01044 9.73853-1.65674zm-26.54297-1.34229 1.97754-3.29639c2.22363 1.38428 8.42578 5.90283 10.18066 14.12695-2.10742-2.92822-5.84766-6.98975-12.1582-10.83057zm20.62598 53.3457c-2.61035 0-3.54199-.84814-5.58301-2.70605l-.75-.67871c-.19043-.16992-.42871-.25488-.66699-.25488s-.47656.08496-.66699.25488l-.75.67871c-2.04102 1.85791-2.97266 2.70605-5.58301 2.70605-8.26172 0-17-11.82227-17-23 0-10.16846 6.02832-17 15-17 3.40234 0 6.12109.40576 8.33301 2.38477.38086.33984.95312.33984 1.33398 0 2.21191-1.979 4.93066-2.38477 8.33301-2.38477 8.97168 0 15 6.83154 15 17 0 11.17773-8.73828 23-17 23z" fill="#490b2b"/></svg>