<svg viewBox="0 0 64 64" xmlns="http://www.w3.org/2000/svg"><g id="Apple_Pie" data-name="Apple Pie"><path d="m11.16211 60a2.994 2.994 0 0 1 -2.84473-2.05127l-5.31738-15.94873h58l-5.31641 15.94873a2.99609 2.99609 0 0 1 -2.8457 2.05127z" fill="#f9edd2"/><path d="m4 42c0-12.68213 12.56055-23 28-23s28 10.31787 28 23z" fill="#f2b46b"/><ellipse cx="7" cy="42" fill="#e29052" rx="6" ry="5"/><ellipse cx="17" cy="42" fill="#d37546" rx="6" ry="5"/><ellipse cx="27" cy="42" fill="#e29052" rx="6" ry="5"/><ellipse cx="37" cy="42" fill="#d37546" rx="6" ry="5"/><ellipse cx="47" cy="42" fill="#e29052" rx="6" ry="5"/><ellipse cx="57" cy="42" fill="#d37546" rx="6" ry="5"/><circle cx="32" cy="17" fill="#f76c61" r="6"/><path d="m11.16211 60a2.994 2.994 0 0 1 -2.84473-2.05127l-1.31638-3.94873h49.998l-1.31543 3.94873a2.99609 2.99609 0 0 1 -2.84568 2.05127z" fill="#efd8b9"/><g fill="#38342b"><path d="m64 42.00043a5.96132 5.96132 0 0 0 -3.7323-5.30206c-2.43158-8.95026-10.7373-15.89423-21.48151-18.01221a6.96055 6.96055 0 0 0 -5.584-8.57489 5.72165 5.72165 0 0 1 2.35248-3.27881 1 1 0 1 0 -1.10936-1.66406 7.70937 7.70937 0 0 0 -3.27514 4.88586 6.96469 6.96469 0 0 0 -5.95636 8.6319c-10.74414 2.118-19.04993 9.062-21.48151 18.01221a5.96132 5.96132 0 0 0 -3.7323 5.30206 5.95792 5.95792 0 0 0 3.71411 5.29457l3.656 10.96667a3.97523 3.97523 0 0 0 3.79 2.73877h41.67973a3.97306 3.97306 0 0 0 3.78809-2.7334l3.658-10.972a5.95792 5.95792 0 0 0 3.71407-5.29461zm-32.98-29.90094a.98348.98348 0 0 0 1.96 0 5 5 0 1 1 -1.96 0zm-5.02948 8.47217a6.98065 6.98065 0 0 0 12.01892 0c9.71356 1.79134 17.34356 7.73266 19.99068 15.49725a8.12964 8.12964 0 0 0 -1.00012-.06848 7.58429 7.58429 0 0 0 -5.00269 1.81157 7.806 7.806 0 0 0 -10 0 7.806 7.806 0 0 0 -10 0 7.806 7.806 0 0 0 -10 0 7.806 7.806 0 0 0 -10 0 7.58938 7.58938 0 0 0 -4.99731-1.81157 8.12964 8.12964 0 0 0 -1.00012.06848c2.64712-7.76459 10.27722-13.70591 19.99066-15.49725zm-13.99052 21.42877c0-2.20557 2.24316-4 5-4a5.56137 5.56137 0 0 1 3.72858 1.35132 5.1788 5.1788 0 0 0 0 5.29736 5.56132 5.56132 0 0 1 -3.72858 1.35132c-2.75684 0-5-1.79443-5-4zm10 0c0-2.20557 2.24316-4 5-4a5.56137 5.56137 0 0 1 3.72858 1.35132 5.1788 5.1788 0 0 0 0 5.29736 5.56132 5.56132 0 0 1 -3.72858 1.35132c-2.75684 0-5-1.79443-5-4zm10 0c0-2.20557 2.24316-4 5-4a5.56137 5.56137 0 0 1 3.72858 1.35132 5.1788 5.1788 0 0 0 0 5.29736 5.56132 5.56132 0 0 1 -3.72858 1.35132c-2.75684 0-5-1.79443-5-4zm10 0c0-2.20557 2.24316-4 5-4a5.56137 5.56137 0 0 1 3.72858 1.35132 5.1788 5.1788 0 0 0 0 5.29736 5.56132 5.56132 0 0 1 -3.72858 1.35132c-2.75684 0-5-1.79443-5-4zm-40 0c0-2.20557 2.24316-4 5-4a5.56137 5.56137 0 0 1 3.72858 1.35132 5.1788 5.1788 0 0 0 0 5.29736 5.56132 5.56132 0 0 1 -3.72858 1.35132c-2.75684 0-5-1.79443-5-4zm50.83984 17h-41.67968a1.98246 1.98246 0 0 1 -1.89161-1.36621l-.878-2.63379h47.21883l-.87989 2.63916a1.98027 1.98027 0 0 1 -1.88965 1.36084zm3.43634-6h-48.55249l-1.68823-5.06384a8.13834 8.13834 0 0 0 .96454.06384 7.58938 7.58938 0 0 0 4.99731-1.81152 7.806 7.806 0 0 0 10 0 7.806 7.806 0 0 0 10 0 7.806 7.806 0 0 0 10 0 7.806 7.806 0 0 0 10 0 7.58429 7.58429 0 0 0 5.00269 1.81152 8.13738 8.13738 0 0 0 .96448-.06378zm.72382-7c-2.75684 0-5-1.79443-5-4s2.24316-4 5-4 5 1.79443 5 4-2.24316 4-5 4z"/><path d="m32 33.00043a.99974.99974 0 0 0 1-1v-4a1 1 0 0 0 -2 0v4a.99974.99974 0 0 0 1 1z"/><path d="m18.001 33.00043a.99711.99711 0 0 0 .624-.21924l5-4a1.00011 1.00011 0 1 0 -1.25-1.56152l-5 4a1 1 0 0 0 .626 1.78076z"/><path d="m45.375 32.78119a1.00011 1.00011 0 1 0 1.25-1.56152l-5-4a1.00011 1.00011 0 1 0 -1.25 1.56152z"/><path d="m59.59863 20.79975-.43066.64648a.99971.99971 0 1 0 1.66406 1.1084l.43067-.64551a4.46208 4.46208 0 0 0 -.5557-5.61572 2.45617 2.45617 0 0 1 -.30566-3.09229l.43066-.64648a.99971.99971 0 1 0 -1.66406-1.1084l-.43067.64551a4.46208 4.46208 0 0 0 .55567 5.61572 2.45617 2.45617 0 0 1 .30569 3.09229z"/><path d="m49.59863 12.79975-.43066.64648a.99971.99971 0 1 0 1.66406 1.1084l.43067-.64551a4.46208 4.46208 0 0 0 -.5557-5.61572 2.45617 2.45617 0 0 1 -.30566-3.09229l.43066-.64648a.99971.99971 0 1 0 -1.664-1.1084l-.43067.64551a4.46208 4.46208 0 0 0 .55567 5.61572 2.45617 2.45617 0 0 1 .30563 3.09229z"/><path d="m2.7373 21.90815.43067.64648a.99971.99971 0 1 0 1.66403-1.1084l-.43066-.64746a2.45492 2.45492 0 0 1 .30566-3.09131 4.46084 4.46084 0 0 0 .55567-5.61474l-.43067-.64649a.99971.99971 0 1 0 -1.664 1.1084l.43066.64746a2.45492 2.45492 0 0 1 -.30566 3.09131 4.46085 4.46085 0 0 0 -.5557 5.61475z"/><path d="m12.7373 13.90815.43067.64648a.99971.99971 0 1 0 1.66406-1.1084l-.43066-.64746a2.45492 2.45492 0 0 1 .30563-3.09131 4.46084 4.46084 0 0 0 .55567-5.61474l-.43067-.64649a.99971.99971 0 1 0 -1.664 1.1084l.43066.64746a2.45492 2.45492 0 0 1 -.30566 3.09131 4.46085 4.46085 0 0 0 -.5557 5.61475z"/></g></g></svg>