<svg clip-rule="evenodd" fill-rule="evenodd" height="512" stroke-linejoin="round" stroke-miterlimit="2" viewBox="0 0 512 512" width="512" xmlns="http://www.w3.org/2000/svg"><g><path d="m256 143.652c12.151-3.408 24.966-5.231 38.204-5.231 78.053 0 141.423 63.37 141.423 141.423s-63.37 193.57-141.423 193.57c-7.327 0-14.525-.559-21.552-1.635-11.035-1.71-22.268-1.71-33.304 0-7.027 1.076-14.225 1.635-21.552 1.635-78.053 0-141.423-115.517-141.423-193.57s63.37-141.423 141.423-141.423c13.238 0 26.053 1.823 38.204 5.231z" fill="#ff7a82"/><path d="m277.233 139.452c5.563-.687 11.227-1.031 16.971-1.031 78.053 0 141.423 63.37 141.423 141.423s-63.37 193.57-141.423 193.57c-6.537 0-12.971-.445-19.27-1.328 71.254-13.033 126.914-119.091 126.914-192.242 0-72.363-54.467-132.105-124.615-140.392z" fill="#f57179"/><path d="m122.159 254.555c8.277-42.903 41.274-72.665 73.639-66.42 50.366 9.717 19.922 41.146 11.644 84.048-8.278 42.903 2.054 71.42-41.64 71.42-32.962 0-51.921-46.146-43.643-89.048z" fill="#ffa0a5"/><path d="m409.219 63.62c-7.595 28.452-29.783 52.15-60.247 60.313-30.465 8.163-61.529-1.266-82.333-22.109 7.595-28.451 29.783-52.15 60.248-60.313 30.464-8.162 61.529 1.267 82.332 22.109z" fill="#aeffa5"/><path d="m394.122 51.643c5.466 3.374 10.529 7.4 15.097 11.977-7.595 28.452-29.783 52.15-60.247 60.313-30.465 8.163-61.529-1.266-82.333-22.109 1.285-4.814 2.988-9.492 5.111-13.966 19.321 12.159 43.461 16.503 67.235 10.132 25.31-6.781 44.907-24.286 55.137-46.347z" fill="#99ff8e"/><path d="m266.247 80.125c-1.819-4.758-4.14-9.644-7.06-14.62-2.328-3.967-7.438-5.298-11.405-2.97-3.966 2.328-5.297 7.438-2.969 11.405 15.498 26.409 10.228 49.635 6.449 59.91-10.76-2.461-21.962-3.762-33.466-3.762-82.653 0-149.756 67.103-149.756 149.756 0 48.542 23.55 111.101 59.942 153.351 25.111 29.153 56.319 48.552 89.814 48.552 7.756 0 15.375-.591 22.814-1.731.004 0 .009-.001.014-.002 10.19-1.579 20.562-1.579 30.752 0 .005.001.009.001.014.002 7.439 1.14 15.058 1.731 22.814 1.731 33.495 0 64.703-19.399 89.814-48.552 36.392-42.25 59.942-104.809 59.942-153.351 0-69.437-47.359-127.899-111.514-144.82 6.198-.373 12.452-1.372 18.682-3.042 33.445-8.961 57.804-34.978 66.143-66.213.766-2.871-.054-5.933-2.154-8.036-22.838-22.881-56.942-33.232-90.387-24.271-26.157 7.009-46.757 24.45-58.483 46.663zm-12.497 71.55c1.472.413 3.028.413 4.5 0 11.435-3.206 23.496-4.92 35.954-4.92 73.454 0 133.089 59.635 133.089 133.089 0 45.122-22.075 103.2-55.903 142.474-21.703 25.196-48.237 42.762-77.186 42.762-6.897 0-13.673-.525-20.288-1.538-11.873-1.839-23.959-1.839-35.832 0-6.615 1.013-13.391 1.538-20.288 1.538-28.949 0-55.483-17.566-77.186-42.762-33.828-39.274-55.903-97.352-55.903-142.474 0-73.454 59.635-133.089 133.089-133.089 12.458 0 24.519 1.714 35.954 4.92zm18.019-34.514c-.428 5.657-1.387 10.709-2.515 15.001 8.114-1.364 16.45-2.074 24.95-2.074.785 0 1.569.006 2.347.018-8.867-3.055-17.227-7.426-24.782-12.945zm127.986-51.005c-7.93 23.56-27.147 42.816-52.94 49.728-25.794 6.911-52.064-.157-70.712-16.595 7.93-23.561 27.147-42.817 52.941-49.728 25.793-6.912 52.063.156 70.711 16.595z" fill="#8d4ba0"/></g></svg>