<svg id="Layer_1" viewBox="0 0 1000 1000" xmlns="http://www.w3.org/2000/svg" data-name="Layer 1"><path d="m637.17 299.91a15.15 15.15 0 0 1 -.12-1.9v-156.19a25.82 25.82 0 1 0 -51.64 0v.59 54.33a85.42 85.42 0 0 1 -170.83 0v-54.91a25.81 25.81 0 1 0 -51.62 0v156.17a16.5 16.5 0 0 1 -.19 2.44c-12.13 99.75-62.55 156.69-79.87 173.56v341.62h434.21v-341.56c-17.34-16.92-67.93-74.06-79.94-174.15zm8.34 411.26a16 16 0 0 1 -11.23 15.28l-130.07 40.6a16.19 16.19 0 0 1 -9.58 0l-128.94-40.6a16 16 0 0 1 -11.19-15.27v-184.63a16 16 0 0 1 16-16h259a16 16 0 0 1 16 16z" fill="#fbc02d"/><path d="m386.5 542.55h227.01v23.93h-227.01z" fill="#f9a825"/><path d="m613.51 598.48v100.93l-114.05 35.6-112.96-35.57v-100.96z" fill="#f9a825"/><path d="m282.9 847.62h434.21v36.38h-434.21z" fill="#f9a825"/><g fill="#fff" opacity=".5"><path d="m627.17 309.91a15.15 15.15 0 0 1 -.12-1.9v-156.19a25.82 25.82 0 1 0 -51.64 0v.59 54.33a85.42 85.42 0 0 1 -170.83 0v-54.91a25.81 25.81 0 1 0 -51.62 0v156.17a16.5 16.5 0 0 1 -.19 2.44c-12.13 99.75-62.55 156.69-79.87 173.56v341.62h434.21v-341.56c-17.34-16.92-67.93-74.06-79.94-174.15zm8.34 411.26a16 16 0 0 1 -11.23 15.28l-130.07 40.6a16.19 16.19 0 0 1 -9.58 0l-128.94-40.6a16 16 0 0 1 -11.19-15.27v-184.63a16 16 0 0 1 16-16h259a16 16 0 0 1 16 16z"/><path d="m376.5 552.55h227.01v23.93h-227.01z"/><path d="m603.51 608.48v100.93l-114.05 35.6-112.96-35.57v-100.96z"/><path d="m272.9 857.62h434.21v36.38h-434.21z"/></g><g fill="#413b32"><path d="m749.11 467.05v432.95a16 16 0 0 1 -16 16h-466.21a16 16 0 0 1 -16-16v-432.95c0-.38 0-.75 0-1.13 0-.08 0-.16 0-.24 0-.32.06-.64.11-1a11.61 11.61 0 0 1 .33-1.66c.07-.26.14-.51.22-.76s.16-.5.25-.74.19-.49.29-.73.25-.59.4-.88.3-.58.46-.86a13.88 13.88 0 0 1 1-1.61c.31-.41.64-.8 1-1.18.15-.17.31-.34.47-.5l.16-.16.46-.43.52-.46.07-.06a15.93 15.93 0 0 1 10.11-3.6c.47 0 .94 0 1.4.06h.3a15 15 0 0 1 2.14.38l.45.11.48.14c.2.07.4.13.6.21a14.26 14.26 0 0 1 2.42 1.1l.45.25a11.78 11.78 0 0 1 1 .67c.2.13.39.28.58.43a3.47 3.47 0 0 1 .37.3c.19.15.37.31.56.48l.55.53c.18.18.36.37.53.56s.34.38.5.58.33.4.48.6a14.63 14.63 0 0 1 1.18 1.83l.26.48a14.51 14.51 0 0 1 .83 1.94c.05.15.11.31.15.47a15.67 15.67 0 0 1 .76 4.85v416.98h434.37v-416.95c0-.17 0-.34 0-.51v-.07-.38q0-.4.06-.81a14.79 14.79 0 0 1 .52-2.65c0-.17.1-.34.15-.51.16-.47.33-.94.52-1.39.07-.15.13-.3.21-.45s.22-.46.34-.68v-.07c.1-.19.2-.37.31-.55s.34-.56.52-.83.3-.45.46-.66q.23-.3.48-.6a13.94 13.94 0 0 1 1-1.14c.22-.22.44-.43.67-.63l.46-.4c.2-.17.4-.33.61-.48a13.48 13.48 0 0 1 1.27-.86l.51-.29c.28-.17.56-.31.85-.45l.71-.32a12.94 12.94 0 0 1 1.47-.54l.67-.19c.24-.07.49-.13.74-.18l.62-.11c.33-.07.67-.11 1-.15h.3q.69-.06 1.41-.06a15.9 15.9 0 0 1 10.08 3.57l.08.07.07.06a14.18 14.18 0 0 1 1.14 1.05l.45.47s.05.05.05.07a6.06 6.06 0 0 1 .47.54 14.82 14.82 0 0 1 1.69 2.08c.11.18.21.37.31.56s.26.51.38.78a8 8 0 0 1 .34.8c.11.26.21.54.3.81s.17.55.25.82.18.7.25 1.05.13.71.18 1.06c0 .2 0 .39.07.59s0 .09 0 .13 0 .23 0 .35 0 .3 0 .44a1.62 1.62 0 0 0 0 .22c.02.17.03.3.03.44z"/><path d="m749.11 467.05v432.95a16 16 0 0 1 -16 16h-466.21a16 16 0 0 1 -16-16v-432.95c0-.38 0-.75 0-1.13 0-.08 0-.16 0-.24 0-.32.06-.64.11-1a11.61 11.61 0 0 1 .33-1.66c.07-.26.14-.51.22-.76s.16-.5.25-.74.19-.49.29-.73.25-.59.4-.88.3-.58.46-.86a13.88 13.88 0 0 1 1-1.61c.31-.41.64-.8 1-1.18.15-.17.31-.34.47-.5l.16-.16.46-.43.52-.46.07-.06a15.93 15.93 0 0 1 10.11-3.6c.47 0 .94 0 1.4.06h.3a15 15 0 0 1 2.14.38l.45.11.48.14c.2.07.4.13.6.21a14.26 14.26 0 0 1 2.42 1.1l.45.25a11.78 11.78 0 0 1 1 .67c.2.13.39.28.58.43a3.47 3.47 0 0 1 .37.3c.19.15.37.31.56.48l.55.53c.18.18.36.37.53.56s.34.38.5.58.33.4.48.6a14.63 14.63 0 0 1 1.18 1.83l.26.48a14.51 14.51 0 0 1 .83 1.94c.05.15.11.31.15.47a15.67 15.67 0 0 1 .76 4.85v416.98h434.37v-416.95c0-.17 0-.34 0-.51v-.07-.38q0-.4.06-.81a14.79 14.79 0 0 1 .52-2.65c0-.17.1-.34.15-.51.16-.47.33-.94.52-1.39.07-.15.13-.3.21-.45s.22-.46.34-.68v-.07c.1-.19.2-.37.31-.55s.34-.56.52-.83.3-.45.46-.66q.23-.3.48-.6a13.94 13.94 0 0 1 1-1.14c.22-.22.44-.43.67-.63l.46-.4c.2-.17.4-.33.61-.48a13.48 13.48 0 0 1 1.27-.86l.51-.29c.28-.17.56-.31.85-.45l.71-.32a12.94 12.94 0 0 1 1.47-.54l.67-.19c.24-.07.49-.13.74-.18l.62-.11c.33-.07.67-.11 1-.15h.3q.69-.06 1.41-.06a15.9 15.9 0 0 1 10.08 3.57l.08.07.07.06a14.18 14.18 0 0 1 1.14 1.05l.45.47s.05.05.05.07a6.06 6.06 0 0 1 .47.54 14.82 14.82 0 0 1 1.69 2.08c.11.18.21.37.31.56s.26.51.38.78a8 8 0 0 1 .34.8c.11.26.21.54.3.81s.17.55.25.82.18.7.25 1.05.13.71.18 1.06c0 .2 0 .39.07.59s0 .09 0 .13 0 .23 0 .35 0 .3 0 .44a1.62 1.62 0 0 0 0 .22c.02.17.03.3.03.44z"/><path d="m745.4 477.28a15.93 15.93 0 0 1 -10.4 5.66h-.18a15.43 15.43 0 0 1 -1.67.09 16.64 16.64 0 0 1 -3.14-.32 16 16 0 0 1 -7.08-3.38c-.46-.38-2.53-2.14-5.76-5.29-17.34-16.92-67.93-74-79.94-174.15a15.15 15.15 0 0 1 -.12-1.9v-156.17a25.82 25.82 0 1 0 -51.64 0v.59 54.33a85.42 85.42 0 0 1 -170.83 0v-54.91a25.81 25.81 0 1 0 -51.62 0v156.17a16.5 16.5 0 0 1 -.19 2.44c-12.19 99.75-62.61 156.69-79.93 173.56-2.43 2.38-4.22 4-5.15 4.77l-.32.28a.45.45 0 0 1 -.13.11l-.18.15a16.52 16.52 0 0 1 -1.69 1.23 12.43 12.43 0 0 1 -1.28.73l-.63.3-.64.28c-.21.09-.42.17-.64.24l-.59.2c-.28.09-.57.17-.85.24l-.54.12-.59.12a7 7 0 0 1 -.8.11 6.18 6.18 0 0 1 -.62.07h-.58-.73a16.61 16.61 0 0 1 -1.71-.09h-.17a16 16 0 0 1 -14.12-15.2v-.69c0-.05 0-.1 0-.15 0-.33 0-.66 0-1s.07-.81.13-1.2a11.61 11.61 0 0 1 .33-1.66c.07-.26.14-.51.22-.76s.16-.5.25-.74.19-.49.29-.73a14.92 14.92 0 0 1 1.91-3.35 12 12 0 0 1 1-1.18c.15-.17.31-.34.47-.5l.16-.16.46-.43.52-.46c.3-.27 1.83-1.61 4.27-4a213.67 213.67 0 0 0 28.15-35.37c15.43-23.83 35.14-63.69 41.9-118.28v-155.17a57.81 57.81 0 1 1 115.62 0v54.91a53.42 53.42 0 0 0 106.83 0v-54.91c0-.23 0-.46 0-.68a57.82 57.82 0 0 1 115.63.67v155.18c10.92 89 55.68 139.61 69.92 153.68 2.41 2.38 3.94 3.71 4.29 4l.07.06a14.18 14.18 0 0 1 1.14 1.05l.45.47s.05.05.05.07a6.06 6.06 0 0 1 .47.54 14.82 14.82 0 0 1 1.53 2.13c.11.18.21.37.31.56s.26.51.38.78a8 8 0 0 1 .34.8c.11.26.21.54.3.81s.17.55.25.82a16 16 0 0 1 -3.18 14.51z"/><path d="m629.51 510.55h-259a16 16 0 0 0 -16 16v184.62a16 16 0 0 0 11.19 15.27l128.93 40.56a16.19 16.19 0 0 0 9.58 0l130.07-40.6a16 16 0 0 0 11.23-15.28v-184.57a16 16 0 0 0 -16-16zm-16 188.86-114 35.6-113-35.57v-156.89h227z"/><path d="m645.51 582.48a16 16 0 0 1 -16 16h-259a16 16 0 0 1 0-32h259a16 16 0 0 1 16 16z"/><path d="m749.11 831.62a16 16 0 0 1 -16 16h-466.21a16 16 0 1 1 0-32h466.21a16 16 0 0 1 16 16z"/><path d="m128 675.51a16 16 0 0 1 -2.13-31.85c20-2.73 22.44-30.08 22.64-33v-70.92a84.57 84.57 0 0 1 12.07-44.38c31.8-51.75 105-44.55 108.05-44.22a16 16 0 0 1 -3.4 31.86c-.76-.07-56.28-5.23-77.41 29.16a52.62 52.62 0 0 0 -7.34 27.62v71.34.7c-.86 19.74-12.5 58.45-50.31 63.58a16.08 16.08 0 0 1 -2.17.11z"/><path d="m872 675.51a16.08 16.08 0 0 1 -2.18-.15c-37.81-5.13-49.45-43.84-50.31-63.58 0-.24 0-.47 0-.7v-71.34a52.62 52.62 0 0 0 -7.34-27.62c-21.17-34.46-76.84-29.21-77.41-29.12a16 16 0 0 1 -3.36-31.82c3.1-.33 76.25-7.52 108.05 44.22a84.57 84.57 0 0 1 12.07 44.38v70.88c.21 3.07 2.65 30.32 22.64 33a16 16 0 0 1 -2.16 31.85z"/></g></svg>