<svg id="Layer_1" viewBox="0 0 1000 1000" xmlns="http://www.w3.org/2000/svg" data-name="Layer 1"><path d="m551.23 338.89v54a4.18 4.18 0 0 1 -.07.72l-.09.35a3.58 3.58 0 0 1 -3.4 2.47h-95.33a3.58 3.58 0 0 1 -3.41-2.5l-.09-.35a4.18 4.18 0 0 1 -.07-.72v-54c0-.12 0-.24 0-.37a3.57 3.57 0 0 1 3.55-3.2h95.32a3.57 3.57 0 0 1 3.55 3.2c.03.16.04.28.04.4z" fill="#ffb74d"/><path d="m416.77 353.94v28h-43.65a121.91 121.91 0 0 0 -82.74 32.49c-26.49 24.44-76.26 61.88-163 101.46a13.91 13.91 0 0 1 -8 1.1l-11.38-10.51a14 14 0 0 1 7.78-16.06c83.35-38 130.64-73.51 155.63-96.57a149.8 149.8 0 0 1 101.72-39.91z" fill="#ffe0b2"/><path d="m892 506.47-11.39 10.53a13.54 13.54 0 0 1 -2.21.18 13.83 13.83 0 0 1 -5.8-1.28c-86.71-39.58-136.48-77-163-101.46a121.86 121.86 0 0 0 -82.73-32.49h-43.64v-28h43.65a149.8 149.8 0 0 1 101.71 39.9c25 23.07 72.29 58.54 155.64 96.58a14 14 0 0 1 7.77 16.04z" fill="#ffe0b2"/><g fill="#fff" opacity=".5"><path d="m541.23 348.89v54a4.18 4.18 0 0 1 -.07.72l-.09.35a3.58 3.58 0 0 1 -3.4 2.47h-95.33a3.58 3.58 0 0 1 -3.41-2.5l-.09-.35a4.18 4.18 0 0 1 -.07-.72v-54c0-.12 0-.24 0-.37a3.57 3.57 0 0 1 3.55-3.2h95.32a3.57 3.57 0 0 1 3.55 3.2c.03.16.04.28.04.4z"/><path d="m406.77 363.94v28h-43.65a121.91 121.91 0 0 0 -82.74 32.49c-26.49 24.44-76.26 61.88-163 101.46a13.91 13.91 0 0 1 -8 1.1l-11.38-10.51a14 14 0 0 1 7.78-16.06c83.35-38 130.64-73.51 155.63-96.57a149.8 149.8 0 0 1 101.72-39.91z"/><path d="m882 516.47-11.39 10.53a13.54 13.54 0 0 1 -2.21.18 13.83 13.83 0 0 1 -5.8-1.28c-86.71-39.58-136.48-77-163-101.46a121.86 121.86 0 0 0 -82.73-32.49h-43.64v-28h43.65a149.8 149.8 0 0 1 101.71 39.9c25 23.07 72.29 58.54 155.64 96.58a14 14 0 0 1 7.77 16.04z"/></g><g fill="#413b32"><path d="m449.42 397.94a16 16 0 0 1 -16 16h-60.3a90 90 0 0 0 -61.05 24c-27.56 25.43-78.47 63.92-165.34 104.25-2 .93-4 1.86-6 2.79a45.61 45.61 0 0 1 -35.18 1.26c-1-.37-2-.77-2.9-1.2a45.62 45.62 0 0 1 -22.67-22.39c-.12-.24-.24-.48-.34-.73a46.06 46.06 0 0 1 22.9-60.6c79.51-36.28 124-69.5 147.23-91a181.7 181.7 0 0 1 123.41-48.39h59.62a16 16 0 0 1 16 16v.58s0 .25 0 .37a16 16 0 0 1 -16 15h-59.68a149.8 149.8 0 0 0 -101.72 39.97c-25 23.06-72.28 58.53-155.63 96.57a14 14 0 0 0 -7.77 16.06 14 14 0 0 0 8.71 9.8 14.34 14.34 0 0 0 2.68.71 13.91 13.91 0 0 0 8-1.1c86.72-39.58 136.49-77 163-101.46a121.91 121.91 0 0 1 82.74-32.49h60.3a16 16 0 0 1 15.42 11.71l.09.35a16 16 0 0 1 .48 3.94z"/><path d="m920.49 521.72c0 .13-.1.25-.16.38s-.16.36-.25.54l-.06.12a46.15 46.15 0 0 1 -41.63 26.41 45.53 45.53 0 0 1 -19.1-4.18c-2-.93-4-1.85-6-2.78-86.89-40.32-137.8-78.82-165.37-104.21a89.94 89.94 0 0 0 -61-24h-60.3a16 16 0 0 1 -16-16c0-.42 0-.83 0-1.24 0-.2 0-.4 0-.59s0-.23.05-.34c0-.27.08-.55.13-.81s.13-.63.2-.93l.09-.35a16 16 0 0 1 15.42-11.71h60.3a121.86 121.86 0 0 1 82.73 32.49c26.5 24.44 76.27 61.88 163 101.46a13.83 13.83 0 0 0 5.8 1.28 13.54 13.54 0 0 0 2.21-.18 14 14 0 0 0 3.62-26.57c-83.35-38-130.64-73.51-155.64-96.58a149.8 149.8 0 0 0 -101.71-39.9h-59.62a16 16 0 0 1 -16-15c0-.12 0-.24 0-.37s0-.38 0-.58a16 16 0 0 1 16-16h59.68a181.69 181.69 0 0 1 123.4 48.38c23.29 21.49 67.73 54.71 147.23 91a46 46 0 0 1 22.98 60.26z"/><path d="m566.58 413.94a16 16 0 0 1 -16-16c0-.42 0-.83 0-1.24 0-.2 0-.4 0-.59s0-.23.05-.34c0-.27.08-.55.13-.81s.13-.63.2-.93a3.58 3.58 0 0 1 -3.4 2.47h-95.22a3.58 3.58 0 0 1 -3.41-2.5l-.09-.35a4.18 4.18 0 0 1 -.07-.72v-54a16 16 0 0 1 -16 15h-16v39a35.61 35.61 0 0 0 35.57 35.57h95.32a35.53 35.53 0 0 0 28.68-14.56zm12.34-92a35.56 35.56 0 0 0 -31.26-18.62h-95.32a35.6 35.6 0 0 0 -35.57 35.57v54a35.61 35.61 0 0 0 35.57 35.57h95.32a35.61 35.61 0 0 0 35.57-35.57v-54a35.27 35.27 0 0 0 -4.31-16.95zm-31.26 74.56h-95.32a3.58 3.58 0 0 1 -3.41-2.5l-.09-.35a4.18 4.18 0 0 1 -.07-.72v-54c0-.12 0-.24 0-.37a3.57 3.57 0 0 1 3.55-3.2h95.32a3.57 3.57 0 0 1 3.55 3.2v.37 54a4.18 4.18 0 0 1 -.07.72l-.09.35a3.58 3.58 0 0 1 -3.37 2.5zm18.92 17.44a16 16 0 0 1 -16-16c0-.42 0-.83 0-1.24 0-.2 0-.4 0-.59s0-.23.05-.34c0-.27.08-.55.13-.81s.12-.62.2-.93a3.58 3.58 0 0 1 -3.4 2.47h-95.22a3.58 3.58 0 0 1 -3.41-2.5l-.09-.35a4.18 4.18 0 0 1 -.07-.72v-54a16 16 0 0 1 -16 15h-16v39a35.61 35.61 0 0 0 35.57 35.57h95.32a35.53 35.53 0 0 0 28.68-14.56z"/><path d="m425.3 241a16 16 0 0 1 -13.39-24.73l74.68-114.77a16 16 0 0 1 26.82 17.5l-74.68 114.73a16 16 0 0 1 -13.43 7.27z"/><path d="m574.7 241a16 16 0 0 1 -13.43-7.27l-74.68-114.73a16 16 0 0 1 26.82-17.45l74.68 114.77a16 16 0 0 1 -13.39 24.68z"/><path d="m417.54 780.24a16 16 0 0 1 -7.74-30l82.47-45.48a16 16 0 0 1 15.46 28l-82.48 45.47a15.94 15.94 0 0 1 -7.71 2.01z"/><path d="m431.83 842.9a16 16 0 0 1 -7.74-30l68.18-37.6a16 16 0 0 1 15.46 28l-68.18 37.6a16 16 0 0 1 -7.72 2z"/><path d="m582.46 780.24a15.94 15.94 0 0 1 -7.71-2l-82.48-45.47a16 16 0 0 1 15.46-28l82.47 45.48a16 16 0 0 1 -7.74 30z"/><path d="m568.17 842.9a16 16 0 0 1 -7.72-2l-68.18-37.6a16 16 0 0 1 15.46-28l68.18 37.6a16 16 0 0 1 -7.74 30z"/><path d="m500 335.31a16 16 0 0 1 -16-16v-209.08a16 16 0 0 1 32 0v209.08a16 16 0 0 1 -16 16z"/><path d="m516 412.5v477.27a16 16 0 0 1 -4.78 11.41q-.32.32-.66.6c-.39.35-.79.67-1.2 1a7.52 7.52 0 0 1 -.75.5c-.29.2-.59.37-.89.54l-.46.24c-.27.14-.55.28-.84.4l-.83.34-.74.25a15.43 15.43 0 0 1 -2.11.51l-.56.09a14.44 14.44 0 0 1 -2.18.16h-.81l-.81-.06-.8-.1-.8-.14-.7-.16a16 16 0 0 1 -3.87-1.54c-.24-.13-.48-.27-.71-.42s-.38-.24-.56-.37l-.4-.28-.44-.33c-.33-.26-.64-.53-1-.81l-386.49-356.54-2.09-1.93-17.07-15.76a15.8 15.8 0 0 1 -3.51-4.7c-.12-.24-.24-.48-.34-.73a16 16 0 0 1 25.57-18l2.84 2.62 11.37 10.44 2.84 2.62 24.51 22.6 287.46 265.1 24.81 22.87 25 23.06v-440.75a16 16 0 0 1 32 0z"/><path d="m920.49 521.72c0 .13-.1.25-.16.38s-.16.36-.25.54l-.06.12a16 16 0 0 1 -3.47 4.62l-19.14 17.62-318.63 293.88-67.56 62.3-.37.35a3.47 3.47 0 0 1 -.29.25c-.2.18-.39.34-.59.5l-.56.43a15.77 15.77 0 0 1 -3.94 2.1c-.2.08-.41.14-.62.21s-.69.21-1.05.29-.7.16-1.06.22l-.56.09a15.86 15.86 0 0 1 -2.18.15h-.81a15.83 15.83 0 0 1 -4.13-.76c-.32-.1-.63-.21-.94-.34-.32-.13-.64-.27-1-.42s-.63-.31-.94-.48a17.15 17.15 0 0 1 -2.11-1.4l-.62-.53a15.52 15.52 0 0 1 -1.24-1.2 16 16 0 0 1 .91-22.61l26.88-24.78 25-23.06 24.81-22.88 287.45-265.1 27.34-25.21 11.4-10.53 2.84-2.62a16 16 0 0 1 25.64 17.87z"/></g></svg>