<svg id="Layer_1" enable-background="new 0 0 512.007 512.007" viewBox="0 0 512.007 512.007" xmlns="http://www.w3.org/2000/svg"><g><g><path d="m179.599 305.135 7.576 36.9c.728 3.546-.281 7.225-2.716 9.904l-11.185 12.303c-1.445 1.59-3.494 2.496-5.643 2.496h-20.227c-2.257 0-3.535-2.586-2.165-4.379l12.561-16.437s-14.522-31.516-14.522-43.299c.002-11.784 36.321 2.512 36.321 2.512z" fill="#ffc4c8"/><path d="m145.222 304.785-.925 38.752c-.099 2.673-1.141 5.224-2.94 7.203l-12.273 13.501c-1.445 1.59-3.494 2.496-5.643 2.496h-20.227c-2.257 0-3.535-2.586-2.165-4.379l12.561-16.437s-6.325-37.284-6.325-49.067c.001-11.783 37.937 7.931 37.937 7.931z" fill="#fdb4ba"/><path d="m327.682 287.964 12.642 55.373c.743 2.702.052 5.596-1.833 7.669l-12.032 13.235c-1.445 1.59-3.494 2.496-5.643 2.496h-20.227c-2.257 0-3.535-2.586-2.165-4.379l12.561-16.437s-21.395-30.741-21.395-42.524c.001-11.783 38.092-15.433 38.092-15.433z" fill="#fdb4ba"/><path d="m368.769 274.434 19.145 56.946 1.087 27.732c0 4.212-3.414 7.626-7.626 7.626h-14.777c-4.926 0-8.559-4.6-7.419-9.391l4.838-18.205s-27.588-28.882-34.962-44.983c-7.373-16.103 39.714-19.725 39.714-19.725z" fill="#ffc4c8"/><path d="m385.596 206.877s39.271 57.791 67.574 76.875c19.255 12.984 36.015 22.232 48.57 28.459 4.88 2.42 2.837 9.795-2.593 9.377-17.526-1.35-39.228-4.185-50.518-10.133-34.525-18.189-72.662-62.217-72.662-62.217z" fill="#fdb4ba"/><g fill="#ffc4c8"><path d="m66.952 162.175s-18.574 31.601-7.157 49.356l-29.882 26.894c-2.141 1.927-3.363 4.672-3.363 7.552v11.433l-16.394 21.859c-4.966 6.621-2.723 16.122 4.68 19.824l1.617.809c3.441 1.72 7.457 1.865 11.01.39 15.018-6.232 56.427-23.024 74.221-26.259v-67.155z"/><path d="m66.952 162.175s-18.574 31.601-7.157 49.356l-29.882 26.894c-2.141 1.927-3.363 4.672-3.363 7.552v11.433l-16.394 21.859c-4.966 6.621-2.723 16.122 4.68 19.824l1.617.809c3.441 1.72 7.457 1.865 11.01.39 15.018-6.232 56.427-23.024 74.221-26.259v-67.155z"/><path d="m101.68 206.879v67.15c-7.89 1.44-20.42 5.54-33.23 10.2-16.09 5.85-32.63 12.59-40.99 16.06-3.55 1.48-7.57 1.33-11.01-.39l-1.61-.81c-7.41-3.7-9.65-13.2-4.68-19.82l16.39-21.86v-11.43c0-2.88 1.22-5.63 3.36-7.55l29.89-26.9c-11.42-17.75 7.15-49.35 7.15-49.35l19.76 25.44z"/></g><path d="m101.68 206.879v67.15c-7.89 1.44-20.42 5.54-33.23 10.2-2.68-4.37-4.73-8.88-6-13.52-10.46-38.4 9.18-67.44 24.26-83.09z" fill="#fdb4ba"/><path d="m347.7 287.329c-49.21 16.62-54.73 27.93-54.73 27.93s-36.36-17.29-65.62-16.63c-29.26.67-51.86 16.63-51.86 16.63s-81.12 1.33-88.43-44.55c-7.32-45.88 14.62-63.83 14.62-63.83s28.5-28.5 68.65-46.81c18.99-8.65 40.58-15.03 63-15.03 18.68 0 35.84 2.32 51.37 6.07 64.59 15.57 100.9 55.77 100.9 55.77s11.3 63.83-37.9 80.45z" fill="#b5adb6"/><path d="m385.6 206.879s-9.63-10.661-27.791-23.128c.786 25.824-1.832 83.758-39.784 96.578-33.751 11.399-46.949 20.299-51.911 24.767 15.312 4.674 26.856 10.163 26.856 10.163s5.52-11.31 54.73-27.93c49.2-16.62 37.9-80.45 37.9-80.45z" fill="#a79ba7"/><path d="m292.97 315.259s-36.36-17.29-65.62-16.63c-29.26.67-51.86 16.63-51.86 16.63s16.39-93.39-5.15-155.18l-.01-.01c18.99-8.65 40.58-15.03 63-15.03 18.68 0 35.84 2.32 51.37 6.07 0 0 30.85 77.23 8.27 164.15z" fill="#918291"/><path d="m266.114 305.096c15.312 4.674 26.856 10.163 26.856 10.163 2.44-9.394 4.254-18.674 5.553-27.756-19.677 7.944-28.544 14.114-32.409 17.593z" fill="#7a6d79"/></g><g><path d="m505.073 305.491c-11.988-5.947-24.279-12.896-36.531-20.65-3.501-2.217-8.133-1.174-10.348 2.325-2.216 3.5-1.174 8.134 2.326 10.349 8.737 5.531 17.503 10.67 26.181 15.351-16.088-1.872-28.14-4.656-34.573-8.04-23.794-12.539-49.743-38.248-62.39-51.642 1.112-3.473 2.03-7.123 2.737-10.954.703-3.813 1.148-7.53 1.414-11.049 9.94 13.196 23.742 30.421 37.417 43.871 1.46 1.437 3.36 2.153 5.259 2.153 1.94 0 3.879-.748 5.347-2.24 2.905-2.953 2.866-7.702-.087-10.606-24.112-23.718-49.763-61.317-50.019-61.694-43.5-49.739-154.332-87.358-224.661-49.372-16.435 7.501-31.001 16.649-42.692 25.071-3.361 2.421-4.123 7.107-1.702 10.469 2.422 3.361 7.108 4.125 10.469 1.701 9.18-6.613 20.232-13.707 32.562-19.956 14.072 49.601 6.255 116.389 3.298 137.037-13.778-.088-45.036-5.278-58.459-15.054-33.529-19.479-10.315-80.597-4.185-79.878 3.103-2.458 3.651-7.319 1.173-10.406l-34.732-44.701c-1.525-1.963-3.924-3.044-6.406-2.883-2.481.16-4.722 1.54-5.982 3.684-1.949 3.317-17.362 30.607-9.88 51.338l-25.705 23.134c-3.719 3.336-5.852 8.123-5.852 13.133v8.931l-14.89 19.853c-3.709 4.941-5.022 11.222-3.604 17.232 1.419 6.011 5.403 11.041 10.912 13.791 5.746 3.31 12.725 4.043 18.864 1.428 10.382-4.308 34.883-14.281 54.275-20.675 3.76 6.891 9.178 12.473 15.526 16.994 1.052 12.427 4.255 32.568 5.543 40.411l-10.584 13.854c-2.381 3.111-2.782 7.227-1.046 10.741s5.247 5.697 9.162 5.697h20.23c4.261 0 8.343-1.811 11.188-4.953l2.805-3.083c.952 4.641 5.228 8.092 9.968 8.036h20.23c4.261 0 8.343-1.811 11.187-4.953l11.199-12.309c4.024-4.438 5.707-10.591 4.501-16.455l-5.044-24.593c8.671-4.235 22.408-9.443 38.047-9.798 23.05-.529 51.692 11.24 59.917 14.854 4.4 9.152 10.63 19.041 14.325 24.655l-9.297 12.16c-2.381 3.11-2.782 7.226-1.046 10.739 1.736 3.516 5.251 5.699 9.172 5.699h20.23c4.241 0 8.316-1.804 11.189-4.954l12.045-13.247c3.583-3.965 4.902-9.376 3.545-14.511l-2.892-12.667c4.414 5.171 8.425 9.591 10.996 12.371l-3.772 14.191c-.017.063-.033.127-.048.19-1.078 4.529-.041 9.223 2.845 12.876 2.886 3.654 7.213 5.75 11.872 5.75h14.78c8.337 0 15.12-6.787 15.12-15.13 0-.099-.002-.196-.006-.295l-1.09-27.729c-.028-.713-.158-1.418-.385-2.095l-17.734-52.758c2.151-2.547 4.109-5.296 5.863-8.247 14.316 14.728 38.818 37.9 61.99 50.112 10.127 5.327 28.105 9.019 53.434 10.97.338.026.674.039 1.008.039 5.609 0 10.446-3.648 11.962-9.154 1.605-5.827-1.056-11.773-6.471-14.459zm-126.564-95.161c.576 4.748 1.575 16.705-.86 29.567-3.946 20.84-14.831 34.408-32.353 40.327-18.997 6.418-31.921 12.175-40.723 17.003 10.55-59.346-1.106-111.215-8.241-135.068 29.365 7.759 69.546 33.943 82.177 48.171zm-132.526 82.269c7.194-57.213-5.233-117.322-10.769-140.037 4.963.044 9.812.256 14.539.624 4.91 19.484 21.838 93.091 11.105 142.611-4.787-1.258-9.8-2.373-14.875-3.198zm28.858-90.216c-2.955-19.956-6.678-36.973-9.17-47.347 4.597.713 9.066 1.555 13.391 2.515 5.32 15.429 24.087 77.588 8.699 147.275-3.4-1.382-7.67-3.02-12.521-4.675 5.647-24.91 5.531-57.728-.399-97.768zm-81.946-43.074c1.953 8.835 5.157 24.658 7.685 43.589 4.802 35.956 5.13 67.722.985 92.293-6.322 1.834-11.902 4.059-16.499 6.192 1.239-9.901 2.682-23.967 3.416-40.207 1.753-38.777-1.262-71.329-8.94-96.943 4.343-1.802 8.8-3.458 13.353-4.924zm-168.319 134.058c-2.141.999-4.48.128-6.385-.987-2.101-1.049-2.802-2.849-3.034-3.827-.231-.979-.409-2.903 1.003-4.784l16.39-21.86c.974-1.298 1.5-2.877 1.5-4.499v-11.43c0-.755.316-1.472.877-1.975l29.89-26.9c2.689-2.368 3.273-6.642 1.286-9.63-5.009-7.79-1.603-21.21 2.364-31.125l23.437 30.164c-6.968 8.81-18.115 30.371-12.168 65.842-19.89 6.575-44.642 16.646-55.16 21.011zm111.237 52.325-12.28 13.5c-.004.005-.088.042-.092.047h-10.568l6.697-8.766c1.263-1.653 1.783-3.757 1.435-5.807-.04-.24-3.026-17.915-4.845-32.441 6.957 2.87 14.238 4.962 21.231 6.484l-.586 24.587c-.043.888-.395 1.739-.992 2.396zm43.1 1.2-11.19 12.3c-.004.004-.088.042-.092.047h-10.568l6.697-8.766c1.687-2.208 2.015-5.169.852-7.692-.064-.139-4.773-10.397-8.703-21.101 10.499 1.134 18.193 1.095 19.581 1.076h.007c.005 0 .009-.001.013-.001.016 0 .036 0 .05-.001l4.263 20.784c.247 1.2-.096 2.457-.91 3.354zm48.267-55.757c-3.407.077-6.723.347-9.934.762 7.275-52.532-5.048-115.202-9.834-136.494 4.12-.884 8.296-1.58 12.514-2.066 4.759 19.142 18.339 80.98 11.123 137.809-1.298-.031-2.59-.04-3.869-.011zm105.761 54.829-12.023 13.223c-.038.042-.081.053-.098.053h-10.573l6.701-8.764c1.98-2.59 2.06-6.163.198-8.839-.102-.147-9.109-13.141-15.119-24.976 3.097-2.473 9.456-6.69 21.739-12.133l9.242 40.481c.026.113.055.227.085.338.06.214-.002.452-.152.617zm48.555 13.18c-.015.058-.066.095-.115.095h-14.781c-.046 0-.063 0-.101-.048-.025-.031-.031-.049-.03-.07l4.799-18.055c.671-2.525-.021-5.218-1.825-7.107-6.177-6.468-21.384-23.359-29.569-35.917 3.163-1.167 6.565-2.371 10.223-3.607 5.488-1.854 10.498-4.31 15.018-7.33l15.342 45.644z"/><path d="m56.085 240.043c-4.142 0-7.5 3.357-7.5 7.5v6.427c0 4.143 3.358 7.5 7.5 7.5s7.5-3.357 7.5-7.5v-6.427c0-4.143-3.358-7.5-7.5-7.5z"/></g></g><g/><g/><g/><g/><g/><g/><g/><g/><g/><g/><g/><g/><g/><g/><g/></svg>