<svg clip-rule="evenodd" fill-rule="evenodd" stroke-linejoin="round" stroke-miterlimit="2" viewBox="0 0 96 96" xmlns="http://www.w3.org/2000/svg"><g><g><path d="m15.171 53.142c.7-2.941.7-8.998-.001-11.94-.701-2.971-1.097-6.336-1.097-9.9 0-9.814 6.704-23.902 9.171-28.755.173-.336.52-.547.898-.547s.724.211.897.547c2.467 4.853 9.171 18.941 9.171 28.755 0 3.564-.396 6.929-1.098 9.9-.7 2.941-.7 8.999.001 11.94.701 2.971 1.097 40.858 1.097 40.858h-20.137s.396-37.887 1.098-40.858z" fill="#72a962"/><path d="m29.924 53.142c.7-2.941.7-8.998-.001-11.94-.701-2.971-1.097-6.336-1.097-9.9 0-9.814 6.704-23.902 9.171-28.755.173-.336.52-.547.898-.547s.724.211.897.547c2.467 4.853 9.171 18.941 9.171 28.755 0 3.564-.396 6.929-1.098 9.9-.7 2.941-.7 8.999.001 11.94.701 2.971 1.097 40.858 1.097 40.858h-20.137s.396-37.887 1.098-40.858z" fill="#669858"/><path d="m46.406 53.142c.7-2.941.7-8.998-.001-11.94-.701-2.971-1.097-6.336-1.097-9.9 0-9.814 6.704-23.902 9.171-28.755.173-.336.52-.547.898-.547s.724.211.897.547c2.467 4.853 9.171 18.941 9.171 28.755 0 3.564-.396 6.929-1.098 9.9-.7 2.941-.7 8.999.001 11.94.701 2.971 1.097 40.858 1.097 40.858h-20.137s.396-37.887 1.098-40.858z" fill="#72a962"/><path d="m62.888 53.142c.7-2.941.7-8.998-.001-11.94-.701-2.971-1.097-6.336-1.097-9.9 0-9.814 6.704-23.902 9.171-28.755.173-.336.52-.547.898-.547s.724.211.897.547c2.467 4.853 9.171 18.941 9.171 28.755 0 3.564-.396 6.929-1.098 9.9-.7 2.941-.7 8.999.001 11.94.701 2.971 1.097 40.858 1.097 40.858h-20.137s.396-37.887 1.098-40.858z" fill="#669858"/></g><g><path d="m28.826 92.5h-13.237c.076-7.052.43-36.422 1.042-39.013.74-3.11.74-9.52-.002-12.632-.107-.454-.207-.921-.299-1.396-.158-.813-.946-1.344-1.759-1.186s-1.344.946-1.186 1.758c.1.515.209 1.021.325 1.516.001.001.001.002.001.003.66 2.77.66 8.475.001 11.245 0 0 0 .001-.001.002-.707 2.995-1.138 41.187-1.138 41.187-.004.401.152.786.434 1.071.281.285.665.445 1.066.445h14.753c.828 0 1.5-.672 1.5-1.5s-.672-1.5-1.5-1.5zm-4.684-88.399c.789 1.586 1.86 3.827 2.976 6.43.327.76 1.209 1.113 1.97.787.761-.327 1.114-1.21.787-1.97-1.369-3.19-2.67-5.851-3.499-7.481-.001-.002-.002-.005-.004-.007-.43-.835-1.291-1.36-2.23-1.36-.94 0-1.801.525-2.231 1.36-.001.002-.003.005-.004.007-2.524 4.965-9.334 19.395-9.334 29.435 0 .985.029 1.956.086 2.908.05.826.761 1.457 1.587 1.408.826-.05 1.457-.761 1.408-1.587-.054-.894-.081-1.805-.081-2.729 0-9.053 5.884-21.816 8.569-27.201z"/><path d="m17.542 21.274c2.269.284 4.099 1.438 5.226 4.006.333.759 1.218 1.104 1.976.771.758-.332 1.104-1.218.771-1.976-1.634-3.723-4.311-5.366-7.6-5.778-.822-.103-1.572.48-1.675 1.302-.103.821.48 1.572 1.302 1.675z"/><path d="m15.723 55.401c3.07.298 5.589 1.445 7.113 4.139.408.72 1.324.974 2.044.566.721-.408.975-1.324.567-2.044-2.037-3.599-5.333-5.249-9.434-5.647-.824-.08-1.558.524-1.638 1.348s.524 1.558 1.348 1.638z"/><path d="m45.308 92.5h-14.965c.014-1.255.038-3.216.071-5.608.012-.828-.651-1.509-1.479-1.521-.828-.011-1.509.652-1.52 1.479-.059 4.246-.089 7.134-.089 7.134-.004.401.152.786.434 1.071.281.285.665.445 1.066.445h16.482c.828 0 1.5-.672 1.5-1.5s-.672-1.5-1.5-1.5zm-6.413-88.399c1.741 3.498 4.837 10.15 6.8 16.888.232.795 1.065 1.252 1.86 1.021.795-.232 1.252-1.065 1.021-1.86-2.201-7.552-5.778-15.001-7.447-18.283-.001-.002-.002-.005-.004-.007-.43-.835-1.291-1.36-2.231-1.36-.939 0-1.8.525-2.23 1.36-.001.002-.003.005-.004.007-2.524 4.965-9.334 19.395-9.334 29.435 0 3.688.412 7.17 1.137 10.245 0 .001.001.002.001.003.66 2.77.66 8.475.001 11.245 0 0 0 .001-.001.002-.431 1.825-.778 16.679-.96 28.062-.013.828.648 1.511 1.476 1.524.827.014 1.51-.648 1.523-1.475.179-11.123.459-25.637.881-27.421.74-3.11.74-9.52-.002-12.632-.676-2.865-1.056-6.113-1.056-9.553 0-9.053 5.884-21.816 8.569-27.201z"/><path d="m61.79 92.5h-14.965c.042-3.611.161-13.077.35-21.837.018-.827-.639-1.514-1.467-1.532s-1.514.64-1.532 1.468c-.24 11.124-.368 23.385-.368 23.385-.004.401.152.786.434 1.071.281.285.665.445 1.066.445h16.482c.828 0 1.5-.672 1.5-1.5s-.672-1.5-1.5-1.5zm-6.413-88.399c1.741 3.498 4.838 10.152 6.8 16.889.232.794 1.065 1.252 1.86 1.02.795-.231 1.252-1.065 1.021-1.859-2.2-7.55-5.778-15.001-7.447-18.284-.001-.002-.002-.005-.004-.007-.43-.835-1.291-1.36-2.231-1.36-.939 0-1.8.525-2.23 1.36-.001.002-.003.005-.004.007-2.524 4.965-9.334 19.395-9.334 29.435 0 3.688.412 7.17 1.137 10.245 0 .001.001.002.001.003.66 2.77.66 8.475.001 11.245 0 0 0 .001-.001.002-.238 1.01-.467 5.95-.633 12.107-.023.828.631 1.518 1.459 1.54.827.023 1.517-.631 1.54-1.459.158-5.846.327-10.539.554-11.498.74-3.11.74-9.52-.002-12.632-.676-2.865-1.056-6.113-1.056-9.553 0-9.053 5.883-21.816 8.569-27.201z"/><path d="m61.429 52.795s-.001.001-.001.002c-.708 2.995-1.138 41.187-1.138 41.187-.004.401.152.786.433 1.071.282.285.666.445 1.067.445h20.137c.401 0 .785-.16 1.066-.445.282-.285.438-.67.434-1.071 0 0-.431-38.191-1.137-41.187-.001-.001-.001-.002-.001-.003-.66-2.77-.66-8.474-.001-11.245 0 0 0-.001.001-.002.726-3.075 1.138-6.557 1.138-10.245 0-10.04-6.81-24.47-9.334-29.435-.001-.002-.002-.005-.004-.007-.43-.835-1.291-1.36-2.231-1.36-.939 0-1.8.525-2.23 1.36-.001.002-.003.005-.004.007-2.524 4.965-9.334 19.395-9.334 29.435 0 3.688.412 7.17 1.137 10.245 0 .001.001.002.001.003.66 2.77.66 8.475.001 11.245zm10.43-48.694c2.679 5.374 8.568 18.144 8.568 27.201 0 3.439-.38 6.688-1.058 9.555-.74 3.11-.74 9.52.002 12.632.61 2.589.964 31.959 1.04 39.011h-17.106c.077-7.052.43-36.422 1.043-39.013l-.001.002c.741-3.112.741-9.522-.001-12.634-.676-2.865-1.056-6.113-1.056-9.553 0-9.053 5.883-21.816 8.569-27.201z"/><path d="m32.295 21.274c2.269.284 4.099 1.438 5.226 4.006.333.759 1.218 1.104 1.976.771.758-.332 1.104-1.218.771-1.976-1.634-3.723-4.311-5.366-7.6-5.778-.822-.103-1.572.48-1.675 1.302-.103.821.48 1.572 1.302 1.675z"/><path d="m48.777 21.274c2.269.284 4.099 1.438 5.226 4.006.239.546.778.898 1.373.898.596 0 1.135-.352 1.374-.898 1.127-2.568 2.957-3.722 5.226-4.006.822-.103 1.405-.854 1.302-1.675-.103-.822-.853-1.405-1.675-1.302-2.488.311-4.625 1.327-6.226 3.415-1.602-2.088-3.739-3.104-6.227-3.415-.822-.103-1.572.48-1.675 1.302-.103.821.48 1.572 1.302 1.675z"/><path d="m65.259 21.274c2.269.284 4.099 1.438 5.226 4.006.239.546.778.898 1.373.898.596 0 1.135-.352 1.374-.898 1.127-2.568 2.957-3.722 5.226-4.006.822-.103 1.405-.854 1.302-1.675-.103-.822-.853-1.405-1.675-1.302-2.488.311-4.626 1.327-6.226 3.415-1.602-2.088-3.739-3.104-6.227-3.415-.822-.103-1.572.48-1.675 1.302-.103.821.48 1.572 1.302 1.675z"/><path d="m30.476 55.401c3.07.298 5.589 1.445 7.113 4.139.266.47.765.761 1.306.761.54 0 1.039-.291 1.305-.761 1.524-2.694 4.043-3.841 7.113-4.139.824-.08 1.428-.814 1.348-1.638s-.814-1.428-1.638-1.348c-3.316.322-6.105 1.462-8.128 3.789-2.024-2.327-4.813-3.467-8.129-3.789-.824-.08-1.558.524-1.638 1.348s.524 1.558 1.348 1.638z"/><path d="m46.958 55.401c3.07.298 5.589 1.445 7.113 4.139.266.47.765.761 1.305.761.541 0 1.04-.291 1.306-.761 1.524-2.694 4.043-3.841 7.113-4.139.824-.08 1.428-.814 1.348-1.638s-.814-1.428-1.638-1.348c-3.316.322-6.105 1.462-8.128 3.789-2.024-2.327-4.813-3.467-8.129-3.789-.824-.08-1.558.524-1.638 1.348s.524 1.558 1.348 1.638z"/><path d="m63.44 55.401c3.07.298 5.589 1.445 7.113 4.139.266.47.765.761 1.305.761.541 0 1.04-.291 1.306-.761 1.524-2.694 4.043-3.841 7.113-4.139.824-.08 1.428-.814 1.348-1.638s-.814-1.428-1.638-1.348c-3.316.322-6.105 1.462-8.129 3.789-2.023-2.327-4.812-3.467-8.128-3.789-.824-.08-1.558.524-1.638 1.348s.524 1.558 1.348 1.638z"/><path d="m9.447 35.62h77.106c.828 0 1.5-.672 1.5-1.5s-.672-1.5-1.5-1.5h-77.106c-.828 0-1.5.672-1.5 1.5s.672 1.5 1.5 1.5z"/><path d="m9.447 66.445h77.106c.828 0 1.5-.672 1.5-1.5s-.672-1.5-1.5-1.5h-77.106c-.828 0-1.5.672-1.5 1.5s.672 1.5 1.5 1.5z"/></g></g></svg>