<svg clip-rule="evenodd" fill-rule="evenodd" stroke-linejoin="round" stroke-miterlimit="2" viewBox="0 0 96 96" xmlns="http://www.w3.org/2000/svg"><g><g><path d="m94 64.143c-1.756-.298-3.562-.453-5.403-.453-16.988 0-30.918 13.2-32.082 29.894h37.485z" fill="#e6e9fe"/><g fill="#b0b9fb"><path d="m65.604 83.027c-2.003 1.146-2.96 3.246-2.136 4.685.824 1.44 3.119 1.678 5.122.532 2.003-1.147 2.96-3.246 2.136-4.686s-3.119-1.678-5.122-.531z"/><path d="m94 69.887c-.719-.577-1.592-1.059-2.577-1.389-3.314-1.11-6.653-.076-7.45 2.306-.798 2.382 1.246 5.217 4.56 6.327 2.002.67 4.013.559 5.467-.16z"/><path d="m84.753 82.984c-2.185-.731-4.386-.05-4.912 1.521-.525 1.57.822 3.439 3.007 4.17 2.184.732 4.385.051 4.911-1.52.526-1.57-.821-3.439-3.006-4.171z"/></g><path d="m66.116 35.812c-.745-.985-.809-2.325-.163-3.378 1.366-2.226 3.834-6.246 6.17-10.052 3.162-5.151 1.563-11.885-3.568-15.067-.015-.009-.066-.041-.076-.047-5.162-3.147-11.901-1.526-15.066 3.63-2.659 4.333-5.513 8.983-6.809 11.093-.452.738-1.201 1.244-2.054 1.388-4.785.813-20.725 3.522-20.725 3.522-2.557.434-4.279 2.863-3.845 5.419s2.862 4.279 5.419 3.845c0 0 5.518-.938 9.616-1.634.774-.132 1.553.201 1.992.852.44.65.458 1.497.048 2.166-2.544 4.144-6.282 10.234-6.282 10.234l-17.237 6.984s-2.917-4.418-2.917-4.418c-1.429-2.164-4.346-2.761-6.51-1.332s-2.76 4.346-1.332 6.51l5.038 7.628c1.233 1.867 3.612 2.606 5.685 1.766l23.725-6.634s-5.681 24.752-5.681 24.752c-.323 1.892.537 3.791 2.173 4.795l8.237 5.056c2.21 1.356 5.105.663 6.462-1.547 1.356-2.21.664-5.105-1.546-6.462l-5.529-3.393 8.141-22.221s5.757-9.379 8.587-13.989c.346-.564.948-.92 1.608-.952.661-.032 1.294.265 1.692.792 1.321 1.748 2.898 3.836 2.898 3.836 1.262 1.67 3.476 2.304 5.43 1.556l15.081-5.777c2.421-.928 3.634-3.647 2.706-6.068-.927-2.422-3.646-3.635-6.068-2.707l-11.781 4.513s-2.111-2.795-3.519-4.659z" fill="#e6e9fe"/><path d="m25.693 61.511-3.909-10.085-8.248 3.341s-2.917-4.418-2.917-4.418c-1.429-2.164-4.346-2.761-6.51-1.332s-2.76 4.346-1.332 6.51l5.038 7.628c1.233 1.867 3.612 2.606 5.685 1.766z" fill="#c28b1d"/><path d="m43.523 75.532-9.766-2.134-2.213 9.641c-.323 1.892.537 3.791 2.173 4.795l8.237 5.056c2.21 1.356 5.105.663 6.462-1.547 1.356-2.21.664-5.105-1.546-6.462l-5.529-3.393z" fill="#c28b1d"/><path d="m67.659 20.248c.72-1.173.353-2.707-.82-3.426-1.574-.967-3.711-2.278-5.285-3.245-1.173-.719-2.706-.352-3.426.82-1.118 1.822-2.76 4.497-4.123 6.717-.649 1.057-.851 2.329-.563 3.535.289 1.207 1.045 2.249 2.102 2.898.516.316 1.044.64 1.559.957 1.057.649 2.329.851 3.535.562 1.207-.288 2.249-1.044 2.898-2.101 1.363-2.22 3.005-4.895 4.123-6.717z" fill="#b0b9fb"/><path d="m52.132 54.949-18.709-11.484 3.016-4.912 18.709 11.484z" fill="#c28b1d"/><path d="m50.975 39.584 2.998 1.84c.706.433 1.63.212 2.063-.493.433-.706.212-1.63-.493-2.063l-2.999-1.841c-.705-.433-1.63-.212-2.063.494-.433.705-.212 1.63.494 2.063z" fill="#c28b1d"/><path d="m67.233 37.291c-.224.041-.441.134-.634.281l-6.279 4.777c-.62.472-.77 1.334-.368 1.983.525.047 1.014.3 1.355.708.291-.015.58-.114.829-.303l6.279-4.778c.191-.144.336-.326.436-.526zm-32.424-12.256-2.806.476c-.022.145-.024.295-.001.447l1.17 7.985c.047.326.197.612.412.831l1.431-.243c.298-.051.596-.033.875.046.208-.301.307-.679.25-1.069l-1.17-7.985c-.026-.176-.081-.34-.161-.488z" fill="#c28b1d"/><circle cx="20.801" cy="10.751" fill="#bc9445" r="8.335"/><path d="m28.058 6.652c.303-.197.676-.286 1.06-.223 2.975.489 5.211 1.277 6.299 2.12.87.674 1.22 1.46 1.22 2.202 0 .973-.727 2.136-2.48 2.944-2.515 1.161-7.577 2-13.415 2-5.837 0-10.899-.839-13.414-2-1.753-.808-2.48-1.971-2.48-2.944 0-.736.343-1.514 1.196-2.184 1.065-.836 3.254-1.621 6.173-2.113.463-.078.913.066 1.241.354-.434.806-.74 1.692-.888 2.63-1.631.282-2.984.641-3.934 1.069-.134.06-.278.143-.409.225.356.2.874.466 1.365.627 2.515.82 6.576 1.336 11.15 1.336 4.575 0 8.636-.516 11.151-1.336.491-.161 1.009-.427 1.365-.627-.139-.086-.294-.174-.443-.24-.926-.411-2.222-.758-3.779-1.033-.157-1.007-.494-1.954-.978-2.807z" fill="#f3ae24"/><path d="m16.017 73.284h-.823c-.828 0-1.5.672-1.5 1.5s.672 1.5 1.5 1.5h.823v.823c0 .828.672 1.5 1.5 1.5s1.5-.672 1.5-1.5v-.823h.823c.828 0 1.5-.672 1.5-1.5s-.672-1.5-1.5-1.5h-.823v-.823c0-.828-.672-1.5-1.5-1.5s-1.5.672-1.5 1.5zm42.231-12.41h-.823c-.828 0-1.5.672-1.5 1.5s.672 1.5 1.5 1.5h.823v.823c0 .827.672 1.5 1.5 1.5.827 0 1.5-.673 1.5-1.5v-.823h.823c.827 0 1.5-.672 1.5-1.5s-.673-1.5-1.5-1.5h-.823v-.823c0-.828-.673-1.5-1.5-1.5-.828 0-1.5.672-1.5 1.5zm-13.626-56.711h-.823c-.828 0-1.5.672-1.5 1.5s.672 1.5 1.5 1.5h.823v.823c0 .828.672 1.5 1.5 1.5s1.5-.672 1.5-1.5v-.823h.823c.827 0 1.5-.672 1.5-1.5s-.673-1.5-1.5-1.5h-.823v-.823c0-.828-.672-1.5-1.5-1.5s-1.5.672-1.5 1.5z" fill="#f3ae24"/></g><g><path d="m94.251 62.664c-1.838-.312-3.727-.474-5.654-.474-17.781 0-32.36 13.817-33.578 31.289-.058.826.566 1.544 1.392 1.601.826.058 1.543-.566 1.601-1.392 1.109-15.914 14.389-28.498 30.585-28.498 1.756 0 3.478.148 5.152.432.816.138 1.591-.412 1.73-1.228.138-.817-.412-1.592-1.228-1.73z"/><path d="m64.859 81.725c-2.82 1.614-3.853 4.705-2.693 6.733 1.161 2.027 4.349 2.702 7.169 1.088 2.821-1.615 3.853-4.706 2.693-6.733-1.16-2.028-4.349-2.703-7.169-1.088zm1.49 2.603c.703-.402 1.453-.581 2.103-.514.412.043.79.17.972.489.183.319.101.709-.07 1.086-.272.595-.806 1.151-1.509 1.553s-1.452.581-2.103.514c-.411-.043-.789-.169-.972-.489-.183-.319-.101-.709.071-1.085.271-.596.805-1.151 1.508-1.554z"/><path d="m94.939 68.718c-.849-.682-1.877-1.253-3.04-1.642-4.206-1.409-8.336.228-9.349 3.252-1.012 3.023 1.3 6.817 5.507 8.225 2.42.811 4.85.631 6.608-.237.742-.367 1.047-1.267.68-2.01-.367-.742-1.267-1.047-2.01-.68-1.15.569-2.742.613-4.326.083-1.331-.446-2.418-1.222-3.081-2.141-.522-.724-.785-1.535-.533-2.288s.95-1.242 1.803-1.506c1.083-.335 2.418-.299 3.749.146.807.271 1.524.664 2.114 1.137.646.518 1.59.415 2.109-.231.518-.645.415-1.59-.231-2.108z"/><path d="m85.229 81.562c-3.078-1.031-6.069.254-6.81 2.466-.741 2.213.874 5.039 3.952 6.07 3.078 1.03 6.07-.254 6.81-2.467.741-2.212-.874-5.039-3.952-6.069zm-.952 2.845c.766.256 1.397.696 1.779 1.225.24.334.397.699.281 1.047-.117.348-.462.545-.855.667-.624.193-1.392.164-2.158-.093s-1.397-.696-1.779-1.225c-.241-.335-.397-.7-.281-1.047.116-.348.461-.545.855-.667.623-.193 1.391-.164 2.158.093z"/><path d="m52.135 10.113c-2.66 4.333-5.514 8.983-6.809 11.094-.226.368-.601.621-1.027.694 0 0-20.725 3.521-20.725 3.521-3.373.573-5.646 3.777-5.073 7.149.573 3.373 3.777 5.646 7.149 5.073l9.616-1.634c.194-.033.389.05.498.213.11.162.115.374.012.541 0 0-4.273 6.962-4.273 6.962-1.137 1.853-2.838 3.293-4.853 4.109 0 0-12.299 4.984-12.299 4.984s-2.508-3.338-2.508-3.338c-1.894-2.821-5.719-3.592-8.561-1.715-2.854 1.885-3.641 5.733-1.756 8.587 0 0 5.038 7.629 5.038 7.629 1.611 2.44 4.707 3.419 7.424 2.359-.009.003 20.934-5.853 20.934-5.853s-4.844 22.231-4.844 22.231c-.005.023-.009.045-.013.067-.426 2.497.709 5.001 2.867 6.326 0 0 8.237 5.056 8.237 5.056 2.916 1.79 6.736.876 8.525-2.04 1.79-2.915.876-6.735-2.04-8.525 0 0-4.482-2.751-4.482-2.751s7.179-19.595 7.179-19.595c.324-.886.736-1.738 1.23-2.542 1.692-2.757 5.593-9.112 7.767-12.653.086-.14.236-.23.402-.237.165-.008.323.066.423.198l2.897 3.835c1.665 2.203 4.585 3.04 7.163 2.052 0 0 15.081-5.777 15.081-5.777 3.195-1.223 4.795-4.81 3.571-8.005s-4.811-4.795-8.005-3.571c0 0-10.728 4.11-10.728 4.11s-2.84-3.759-2.84-3.759c-.372-.493-.404-1.163-.081-1.689 0 0 6.17-10.052 6.17-10.052 3.594-5.855 1.777-13.51-4.055-17.127-.017-.01-.075-.046-.086-.053-4.122-2.512-9.129-2.351-12.99 0-.707.43-.931 1.354-.501 2.061.431.707 1.355.932 2.062.501 2.933-1.786 6.736-1.909 9.867 0 .009.005.054.033.066.04 4.43 2.748 5.81 8.562 3.08 13.009l-6.17 10.052c-.969 1.578-.872 3.589.245 5.066 1.408 1.865 3.519 4.659 3.519 4.659.403.533 1.11.736 1.734.497l11.781-4.513c1.648-.632 3.499.194 4.13 1.842.632 1.649-.194 3.499-1.842 4.131 0 0-15.081 5.777-15.081 5.777-1.33.51-2.837.078-3.696-1.059 0 0-1.577-2.088-2.898-3.836-.697-.923-1.806-1.442-2.961-1.386-1.156.056-2.209.679-2.814 1.665-2.174 3.541-6.074 9.895-7.767 12.653-.598.974-1.097 2.005-1.49 3.079-1.818 4.961-7.601 20.747-7.601 20.747-.246.67.015 1.421.623 1.794l5.529 3.394c1.504.923 1.976 2.894 1.053 4.399-.924 1.504-2.895 1.976-4.399 1.052 0 0-8.237-5.056-8.237-5.056-1.102-.676-1.687-1.948-1.486-3.223.001-.01 5.367-24.64 5.367-24.64.112-.514-.053-1.049-.436-1.41s-.926-.496-1.433-.354l-23.418 6.548c-.054.015-.107.033-.159.054-1.412.572-3.031.069-3.87-1.201 0 0-5.038-7.629-5.038-7.629-.973-1.473-.566-3.458.907-4.431 1.472-.973 3.458-.567 4.431.906.017.026.034.05.052.075l3.227 4.293c.408.544 1.132.745 1.762.489 0 0 8.888-3.601 13.369-5.416 2.608-1.057 4.81-2.922 6.283-5.321 1.279-2.084 2.94-4.79 4.273-6.961.718-1.171.686-2.653-.083-3.791s-2.132-1.721-3.486-1.491c-4.098.696-9.616 1.634-9.616 1.634-1.741.296-3.394-.877-3.689-2.617-.296-1.741.877-3.393 2.617-3.689 0 0 15.94-2.709 20.725-3.522 1.28-.217 2.403-.976 3.082-2.082 1.295-2.11 4.149-6.76 6.809-11.093.433-.706.212-1.63-.494-2.063-.705-.433-1.63-.212-2.063.493z"/><path d="m27.091 60.969-3.909-10.086c-.299-.772-1.169-1.155-1.94-.856-.772.299-1.156 1.169-.857 1.941l3.909 10.085c.299.772 1.169 1.156 1.941.857s1.156-1.169.856-1.941z"/><path d="m43.441 73.979-9.364-2.046c-.809-.177-1.609.336-1.786 1.145-.176.809.337 1.609 1.145 1.785l9.365 2.046c.808.177 1.609-.336 1.785-1.145.177-.809-.336-1.609-1.145-1.785z"/><path d="m64.814 27.749 4.123-6.717c1.153-1.878.565-4.336-1.313-5.489l-5.285-3.244c-1.879-1.153-4.336-.565-5.49 1.314l-4.123 6.716c-.857 1.397-1.124 3.076-.743 4.669.382 1.594 1.38 2.97 2.777 3.827.515.317 1.043.641 1.559.957 1.396.857 3.075 1.125 4.669.743 1.593-.381 2.969-1.38 3.826-2.776zm1.567-8.286-4.123 6.717c-.441.718-1.149 1.232-1.969 1.428-.819.196-1.683.058-2.401-.383l-1.559-.956c-.718-.441-1.232-1.149-1.428-1.969-.196-.819-.059-1.683.382-2.401 0 0 4.123-6.717 4.123-6.717.287-.467.897-.613 1.363-.326 0 0 5.285 3.244 5.285 3.244.467.286.613.897.327 1.363z"/><path d="m52.917 53.671-14.247-8.745c-.706-.433-1.63-.212-2.063.494-.433.705-.212 1.63.494 2.063l14.247 8.745c.705.433 1.63.212 2.063-.494.433-.705.212-1.63-.494-2.063zm-17.263-13.84 18.709 11.484c.706.433 1.63.212 2.063-.494.433-.705.212-1.63-.493-2.063l-18.71-11.484c-.705-.433-1.63-.212-2.063.494-.433.705-.212 1.63.494 2.063z"/><path d="m50.975 39.584 2.998 1.84c.706.433 1.63.212 2.063-.493.433-.706.212-1.63-.493-2.063l-2.999-1.841c-.705-.433-1.63-.212-2.063.494-.433.705-.212 1.63.494 2.063z"/><path d="m32.002 25.958 1.17 7.985c.12.819.882 1.387 1.701 1.267s1.387-.883 1.267-1.702l-1.17-7.985c-.12-.819-.883-1.387-1.702-1.267s-1.386.883-1.266 1.702z"/><path d="m66.599 37.572-2.918 2.22c-.659.501-.787 1.443-.286 2.102.502.659 1.444.787 2.102.285l2.918-2.22c.659-.501.787-1.443.286-2.102-.501-.658-1.443-.786-2.102-.285z"/><path d="m20.801.916c-5.428 0-9.835 4.407-9.835 9.835s4.407 9.835 9.835 9.835 9.835-4.407 9.835-9.835-4.407-9.835-9.835-9.835zm0 3c3.772 0 6.835 3.063 6.835 6.835s-3.063 6.835-6.835 6.835-6.835-3.063-6.835-6.835 3.063-6.835 6.835-6.835z"/><path d="m33.258 10.732c-.356.2-.874.466-1.365.627-2.515.82-6.576 1.336-11.151 1.336-4.574 0-8.635-.516-11.15-1.336-.491-.161-1.009-.427-1.365-.627.131-.082.275-.165.409-.225.979-.441 2.384-.809 4.08-1.094.816-.138 1.367-.912 1.23-1.729-.138-.816-.912-1.367-1.729-1.23-2.919.492-5.108 1.277-6.173 2.113-.853.67-1.196 1.448-1.196 2.184 0 .973.727 2.136 2.48 2.944 2.515 1.161 7.577 2 13.414 2 5.838 0 10.9-.839 13.415-2 1.753-.808 2.48-1.971 2.48-2.944 0-.742-.35-1.528-1.22-2.202-1.088-.843-3.324-1.631-6.299-2.12-.817-.134-1.589.421-1.723 1.237-.135.817.42 1.59 1.237 1.724 1.737.285 3.178.656 4.183 1.102.149.066.304.154.443.24z"/><path d="m44.622 3.34v4.646c0 .828.672 1.5 1.5 1.5s1.5-.672 1.5-1.5v-4.646c0-.828-.672-1.5-1.5-1.5s-1.5.672-1.5 1.5z"/><path d="m58.248 60.051v4.646c0 .827.672 1.5 1.5 1.5.827 0 1.5-.673 1.5-1.5v-4.646c0-.828-.673-1.5-1.5-1.5-.828 0-1.5.672-1.5 1.5z"/><path d="m16.017 72.461v4.646c0 .828.672 1.5 1.5 1.5s1.5-.672 1.5-1.5v-4.646c0-.828-.672-1.5-1.5-1.5s-1.5.672-1.5 1.5z"/><path d="m43.799 7.163h4.646c.827 0 1.5-.672 1.5-1.5s-.673-1.5-1.5-1.5h-4.646c-.828 0-1.5.672-1.5 1.5s.672 1.5 1.5 1.5z"/><path d="m57.425 63.874h4.646c.827 0 1.5-.672 1.5-1.5s-.673-1.5-1.5-1.5h-4.646c-.828 0-1.5.672-1.5 1.5s.672 1.5 1.5 1.5z"/><path d="m15.194 76.284h4.646c.828 0 1.5-.672 1.5-1.5s-.672-1.5-1.5-1.5h-4.646c-.828 0-1.5.672-1.5 1.5s.672 1.5 1.5 1.5z"/></g></g></svg>