<svg id="Layer_1" viewBox="0 0 512 512" xmlns="http://www.w3.org/2000/svg" data-name="Layer 1"><circle cx="256" cy="251.58" fill="#8bcaff" r="72.25" transform="matrix(.998 -.062 .062 .998 -15.14 16.39)"/><circle cx="464.74" cy="165.61" fill="#98db7c" r="31.26"/><path d="m204.89 493.61a31.26 31.26 0 1 0 -31.26-31.25 31.31 31.31 0 0 0 31.26 31.25z" fill="#fe646f" fill-rule="evenodd"/><circle cx="47.26" cy="165.57" fill="#ffe177" r="31.26"/><path d="m448.4 361.18c-14.45 25.1-45.46 39.16-87.79 40 10.64-23 18.66-49 23.78-77 21.84-18.54 40.38-38.55 54.84-59 20.37 37 23.66 70.9 9.17 96zm-192.4 111.1a63.71 63.71 0 0 1 -13.14-1.39 39.91 39.91 0 0 0 1.31-10 39.23 39.23 0 0 0 -59.48-33.63c-2.5-3.51-4.93-7.18-7.23-11 25.21-2.28 51.78-8.36 78.54-17.91 26.76 9.55 53.37 15.63 78.58 17.91-21.88 36.22-49.59 56-78.58 56zm-51.1 11.84a23.26 23.26 0 1 0 -23.27-23.26 23.3 23.3 0 0 0 23.27 23.26zm-141.34-122.94c-14.49-25.08-11.16-58.94 9.21-96 14.46 20.51 33.08 40.56 55 59.13 5.2 28 13.22 54.08 23.74 76.87-42.37-.84-73.42-14.91-87.91-40zm-39.56-197.11a23.25 23.25 0 1 1 23.23 23.26 23.27 23.27 0 0 1 -23.23-23.26zm127.39-65.07c-37.76.77-66.55 12.05-82.59 32.32a39.25 39.25 0 0 1 -10 70.31 156 156 0 0 0 14 33.42c14.57-20.69 33.12-40.66 54.76-59 5.12-28 13.14-54 23.78-77zm104.61-71.11c29 0 56.7 19.82 78.58 56-25.21 2.28-51.82 8.37-78.58 17.91-26.76-9.54-53.33-15.63-78.58-17.91 21.92-36.22 49.59-56 78.58-56zm132.09 172.87a428.71 428.71 0 0 1 2.85 49.32 422.45 422.45 0 0 1 -2.82 49.07 291 291 0 0 0 41.88-49.15 284.89 284.89 0 0 0 -41.93-49.25zm-45.09-101.43a285.51 285.51 0 0 0 -63.67 11.67 427.71 427.71 0 0 1 44.15 22.18 423.54 423.54 0 0 1 41.26 27.14 284.27 284.27 0 0 0 -21.72-61zm-174.08 0a285.43 285.43 0 0 1 63.75 11.67 426.24 426.24 0 0 0 -85.45 49.33 286.34 286.34 0 0 1 21.72-61zm-44.92 199.88a423.57 423.57 0 0 1 0-98.45 284.89 284.89 0 0 0 -42 49.24 290.5 290.5 0 0 0 42 49.2zm23.39 40.69a286.23 286.23 0 0 0 21.61 60.93 285.51 285.51 0 0 0 63.69-11.7 423.73 423.73 0 0 1 -44.17-22.13 423 423 0 0 1 -41.18-27.05zm168.12 13.19a395.44 395.44 0 0 0 54.2-37.59 397.62 397.62 0 0 0 5.28-65.42 399.81 399.81 0 0 0 -5.32-65.61 408 408 0 0 0 -113.67-65.61 409.56 409.56 0 0 0 -113.64 65.61 406.49 406.49 0 0 0 .08 131.1 392.64 392.64 0 0 0 54.12 37.52 399.81 399.81 0 0 0 59.44 28.21 398.34 398.34 0 0 0 59.48-28.21zm27.49 47.74a284 284 0 0 0 21.72-61 423 423 0 0 1 -41.24 27.17 427.71 427.71 0 0 1 -44.15 22.18 285.51 285.51 0 0 0 63.67 11.65zm100.2-269.52a39.25 39.25 0 0 0 10 70.32 160.1 160.1 0 0 1 -14 33.38c-14.57-20.69-33.16-40.66-54.76-59-5.12-28-13.14-54-23.78-77 37.76.77 66.55 12.06 82.59 32.35zm44.8 32.8a23.25 23.25 0 1 0 -23.27 23.26 23.28 23.28 0 0 0 23.27-23.26zm16 0a39.29 39.29 0 0 0 -39.27-39.25 40.13 40.13 0 0 0 -6 .46c-19.73-28.23-57.1-43.2-106.26-42.32-25.41-45.88-59.64-71.11-96.47-71.11s-71 25.23-96.49 71.07c-49.14-.85-86.51 14.12-106.15 42.33a39.25 39.25 0 1 0 -10.72 77.76c4 15.54 10.91 31.39 20.32 47.12-26.96 44.89-31.64 87.14-13.26 119.01 18 31.08 55.43 48.07 105.86 48.07h4a209.85 209.85 0 0 0 13.3 21 39.23 39.23 0 0 0 62.54 47.32 80.36 80.36 0 0 0 20.6 2.7c36.85 0 71.08-25.23 96.49-71.06h3.93c50.43 0 87.91-17 105.86-48.07 18.42-31.87 13.7-74.12-13.22-119 9.41-15.7 16.31-31.54 20.29-47.07a39.3 39.3 0 0 0 34.66-39zm-248 150.22a64.25 64.25 0 1 1 64.25-64.25 64.33 64.33 0 0 1 -64.25 64.25zm0-144.49a80.24 80.24 0 1 1 -80.25 80.24 80.32 80.32 0 0 1 80.25-80.24z" fill="#242222" fill-rule="evenodd"/></svg>