<svg clip-rule="evenodd" fill-rule="evenodd" height="1.707in" image-rendering="optimizeQuality" shape-rendering="geometricPrecision" text-rendering="geometricPrecision" viewBox="0 0 1.70666 1.70666" width="1.707in" xmlns="http://www.w3.org/2000/svg"><g id="Layer_x0020_1"><path d="m.853319 1.05014c-.135953 0-.246563-.110622-.246563-.246563 0-.135957.11061-.246563.246563-.246563.135957 0 .246579.110606.246579.246563 0 .135941-.110606.246563-.246579.246563zm-.428937.393673c-.0426535 0-.0819921-.00495276-.117197-.0147362-.0218228.0291693-.0566417.0480866-.0957953.0480866-.0659331 0-.119571-.0536535-.119571-.119587 0-.0343858.0145945-.0654252.0379134-.0872638-.0420866-.1235.00577953-.293374.122358-.466571-.0880039-.130465-.137476-.259953-.137476-.370437 0-.082878.0289449-.151669.0836929-.198917.0546496-.0471654.130689-.0710787.226012-.0710787.0079685 0 .0161142.00017323.0243622.00051575.0149685-.0489606.0605709-.0846732.114382-.0846732.022874 0 .0442638.00645669.0624528.0176378.0694016-.0633898.14785-.0967835.227795-.0967835.112579 0 .216138.0661929.297768.176661.0456142-.00881496.0895906-.0133976.131189-.0133976.0426654 0 .0819961.00494882.117205.0147362.0218228-.0291654.0566378-.0480787.0957835-.0480787.0659331 0 .119587.0536378.119587.119583 0 .0343898-.0145984.0654213-.0379094.0872559.0420866.123504-.0057874.293394-.122374.466598.0880039.130469.137484.259949.137484.370433 0 .0828858-.0289449.151665-.0836929.198913-.0546772.0472047-.130728.0711339-.226035.0711339-.041063 0-.0844488-.00447638-.129437-.0130669-.0516024.0697441-.112512.121976-.180098.151008.0000748.00175197.00012598.00351969.00012598.00529134 0 .0659291-.0536378.119583-.119587.119583-.0659409 0-.119583-.0536535-.119583-.119583 0-.00176378.00004724-.00352362.00012205-.00526772-.0676063-.0290315-.128539-.0812717-.180154-.151047-.0449488.00857874-.0882953.0130472-.129323.0130512zm-.147217-.675921c.0323819-.0446024.0692205-.0892205.11013-.133134.0159528-.126126.0496575-.244484.0987992-.344594-.00202756-.00170866-.004-.00348819-.00590945-.00532677l-.00001181-.00001181-.00000394-.00000394-.00000394-.00000394c-.00066929-.00064173-.00133071-.00129921-.00198425-.00195669l-.00185039-.00190945-.00018504-.00018898-.00153543-.00165748-.00027953-.00030709-.00022441-.00025591-.00161417-.00182677-.00001181-.00001575-.00168898-.00200787-.00011811-.0001378-.00023228-.00028347-.00144488-.00180709-.00012992-.00016142c-.00055118-.00070079-.00109055-.00140945-.00162598-.00212598l-.00007087-.00009449c-.00053543-.00071654-.00105906-.00142913-.00157874-.00216142l-.00002756-.00003937v-.00000394l-.00123228-.00177165-.00066929-.00098425-.00097638-.00148031-.00057874-.00089764-.00008661-.0001378-.00085039-.00135827-.00024803-.00040158-.00015354-.00025984-.00102756-.00172047-.00056299-.00097638-.00083465-.00148425-.00037795-.0006811-.00093307-.00175197-.00048819-.00094488-.00094488-.00188189-.00027165-.00055906-.00069685-.0014685-.00068504-.00149606-.00055118-.00124409-.00034646-.00079134-.00079528-.00190945-.00037008-.00091732-.00008661-.00021654-.00058661-.00151575-.00006693-.00018504-.00036614-.00098032-.0002874-.00079134-.00079134-.00227165-.00023228-.00070079c-.00047638-.00144094-.0009252-.00288583-.00134646-.00435039l-.00044095-.0015748-.00040158-.00151575-.00007874-.00031496-.00062205-.00254724-.00016142-.00070079-.00059843-.0027874-.00003937-.00020472c-.00120472-.00601181-.00196063-.0121772-.00220866-.0184685-.00650394-.00021654-.0129331-.00034252-.0192362-.00034252-.0854606 0-.152709.0206417-.199886.0613622-.0463386.0399803-.0698307.0967205-.0698307.168638 0 .0977205.0444803.21515.122551.334602zm.157846-.182189c.0260945-.0257165.0535827-.0510827.0823937-.0759488.092937-.0802087.192276-.14902.291969-.203681-.046252-.0222047-.0924528-.0412283-.137976-.0566929-.00762598.0162953-.018752.0304331-.0323031.0415906l-.00000787.00000787-.00190551.00153543-.00062992.00049213-.00148031.00113386-.00049606.00038189-.00011417.00008268-.00168898.00123228c-.0196339.0141378-.0437126.0224724-.0697047.0224724-.00409449-.00000394-.00816929-.0002126-.0122126-.00062598h-.00001575c-.00090158-.00009055-.00179921-.00019291-.00269685-.00030709l-.0002874-.00003543-.00038583-.00005118-.00259449-.00037008-.00008661-.00001181-.00266929-.00044095-.00019685-.00003543-.0004685-.00008661-.00246063-.00047638-.00019685-.00003937c-.0061811-.00127559-.012248-.00303543-.0181378-.00527559-.0394803.0811811-.0684685.174902-.0856457.27515zm.418051-.302654c.0872677-.0441929.174126-.0772402.256528-.0973031-.0720118-.0916299-.160579-.145728-.256248-.145728-.0685 0-.136429.0287244-.197484.0832913.0102283.0125591.0177559.0270118.0221811.0424882l.00006299.00022441c.00026772.00093307.00051575.00187402.00075984.00281496l.00001968.00006693.00065354.00266929.00004331.00017717.00004724.00020866.00054331.00249213.00004331.00020079.00005512.0002874.00047638.0024685.00005906.00034646.00045276.00274016.00000787.00003937.0000315.00020472c.00012598.00084252.00025197.00168898.00035827.00253937l.0000315.00023228.0000315.00028347.00029921.00261417.00001968.00020472c.00009843.0009685.00018504.00194488.00025984.00292126l.00001181.0001378c.00022835.00299606.00034252.00601575.00034252.00905118 0 .00406693-.00020472.00808661-.00060236.0120512.0563937.0190315.113776.0433465.171016.0722756zm.564417-.0503346c-.0003937.00183465-.00072441.0036811-.00098819.00554331l-.00008661.00061811-.00015748.00124409-.00007087.00062205-.00012598.00124803-.00005906.00062598-.00009843.00124803-.00004331.00062992-.00003543.00062598-.0000315.00062598-.00002756.00062598-.00002362.00062992-.00000394.00011024-.00001181.00051969-.00001181.00062598-.00000787.00062992-.00000394.00062992c0 .00068504.00000394.00137008.00002362.00205118h.00000394c.00001575.0006811.00003543.0013622.00007087.00203937h.00000394l.00012598.00202362h.00000394l.00017717.00201181h.00000394l.00022441.00199606h.00000394c.00008268.00066142.00016929.00132283.00027165.00198031h.00000394l.00032284.0019685h.00000394l.00037008.00194882h.00000394l.00041732.00193307h.00000394l.00046457.00191339h.00000394c.00016535.00063386.00033071.00127165.00051181.00189764h.00000394l.00055512.00187795h.00000394l.00059843.00185827h.00000394l.00064567.00183465h.00000394l.00068898.0018189h.00000394l.00072835.00179528h.00000394l.00077559.00177559h.00000394l.00081102.00174803h.00000394l.00085827.00172835h.00000394l.0008937.00170472h.00000394l.00093701.00167717h.00000394l.00097244.00165354h.00000394l.00101575.00162992h.00000394l.00104724.00159843h.00000394l.00109055.0015748h.00000394l.00112205.00154724h.00000394l.00116142.00151969h.00000394l.00119685.00148819h.00000394l.00122835.00146063h.00000394l.00126378.00142913h.00000394l.00129921.00139764h.00000394l.00133071.00136614h.00000394l.0013622.00133465h.00000394l.0013937.00130315h.00000394l.0014252.00126772h.00000394l.00145669.00123622h.00000394l.00148425.00119685h.00000394c.001.0007874.00202362.00155512.00305906.00229528h.00000394l.00157087.00109055h.00000394l.00159843.00105512h.00000394l.00162205.00101969h.00000394l.00164961.00097638h.00000394l.00167323.00094095h.00000787l.00169685.00089764h.00000394l.00172441.00086221h.00000394l.00174409.0008189h.00000787l.00176772.00077559h.00000394l.00179134.00073622h.00000394l.00181102.00069291h.00000394l.00183465.00064567h.00000394l.00185433.0006063h.00000394l.00187008.00055906h.00000787l.00188976.00051575h.00000787l.00190551.0004685h.00000787l.0019252.00042126h.00000787l.00194094.00037402h.00000787l.00196063.00032677h.00000394l.00197638.00027559h.00000787l.00198819.00022835h.00000787l.00200394.0001811h.00000787l.00201575.00012992h.00000787l.0020315.0000748h.00000787l.00204331.00002756h.00000787l.00203937-.00002756h.00000394l.00031102-.00000787.00155906-.00005906.00016929-.00000787.00005118-.00000394c.0419685-.00216142.0754291-.0369764.0754291-.0794764 0-.0438898-.0356969-.0795866-.0795709-.0795866-.035622 0-.0658504.0235315-.0759646.055878l-.00001968.00006693-.00005906.00019291-.00035827.00119685-.00014173.00048819-.00002756.00011024-.00016929.00060236-.00016142.00060236-.00000394.00001181-.00030709.00120079-.00014567.0006063-.00028347.00121654-.00013386.00061024zm.0120276.606476c-.0323268.0445276-.0690945.0890748-.109925.132917-.0204843.16487-.0705866.311689-.141819.422587.0362126.00601969.0712047.00913386.104551.00913386.0854331 0 .152693-.0206496.199913-.0613976.0463346-.04.0698189-.0967362.0698189-.16865 0-.0977165-.0444764-.215142-.122539-.334591zm-.158055.182394c-.0260394.0256496-.0534606.0509567-.0822008.0757598-.0930748.0803228-.192571.149217-.292421.203909.0812717.0391339.161626.0679921.237531.0849567.0643346-.0954016.112449-.222154.137091-.364626zm-.418138.302587c-.0869488.0440039-.173488.0769449-.25561.097.0428661.0546535.091752.0961969.14487.120756.0138228-.0340315.0426417-.0597165.0776772-.0697795l.00098425-.00027953.00149606-.00040551.00119291-.00031102.0012126-.00029528.00259843-.00059843.0009252-.00020079.0015315-.00031102.00098425-.00018898.00162992-.00029528.0006811-.00011417c.00116929-.00019685.00233858-.00037008.00351969-.00053543l.00041732-.00005906.00188189-.00023228.00061417-.00007087.0018189-.00019291.00079921-.00007087c.00100787-.00009055.00201181-.00016535.00302362-.00023228l.00109449-.00007087.00134252-.00006299.00135039-.00005118.00156693-.00004331.00076378-.00001181.0016378-.00001968.00002362.00000394.00231102.00002362.00015354.00000394.00136614.00003937.00170472.00006299.00095276.00004724.00212205.00013386.00055118.00003543.00002756.00000394.00041339.00003543.00223622.00019685.00101181.0001063.00179921.00020866.00082284.00010236.00268898.00037795.00004724.00000394.00275197.00045669.00046457.00008661.00227953.00043701.00056299.00011417c.0389764.00805118.0715197.035122.0865079.071937.0531063-.0245512.101972-.0660787.144835-.120713-.0821339-.0200591-.168681-.0530118-.255638-.0970276zm-.527583.068437c.0297205.00743307.0627913.0112047.0986496.0112047.0333228-.00000394.0682835-.00311417.104469-.00912598-.0712205-.110886-.121323-.257685-.141807-.422535-.0407283-.0436811-.0775039-.0881496-.109913-.132697-.0997008.152902-.143528.301173-.112693.408079.0147087-.00629528.0305984-.00955512.0469449-.00955512.0370984 0 .0702992.0169843.092252.0435787l.00179528.00222441.00000787.00001575c.00059055.00074803.00116929.0015.00174016.00226378l.00000787.00001575c.00057087.00076378.0011378.0015315.00168898.00231102l.00000787.00001575c.00055118.00077559.00109843.00155512.00163386.00234646l.00000787.00001575c.00053543.00079134.00105906.00158661.0015748.0023937l.00000787.00001575c.00051575.00080315.00102756.00161024.00152362.00242913l.00000787.00001575c.00049606.00081496.00098425.00164173.00146063.0024685l.00000787.00001575.00140551.00250787.00000787.00001575c.00045669.00084252.00090551.00168898.00134252.00254331l.00000787.00001575c.00043701.00085433.00086614.0017126.00128346.00257874l.00000787.00001575c.00041732.00086614.00082677.00173622.00122441.00261417l.00000787.00001575c.00039764.00087795.00077953.00175984.00115748.00264961l.00000787.00001575c.00037795.00088976.00074409.0017874.00109843.00268504l.00000787.00001575c.00035433.00090158.00069685.00179921.0010315.0027126l.00000787.00001575c.00033465.00090945.00065748.00182283.0009685.00274409l.00000787.00001575c.00031102.00092126.0006063.00185039.00089764.00277953l.00000787.00001575c.00029134.00092913.00056693.0018622.00083465.00280315l.00000787.00001575c.00026772.00094095.00051969.00188583.00076378.00283465l.00000787.00001575c.00024409.00094882.00047244.00190157.00069685.00285827.00200787.00868898.0030748.0177323.0030748.0269882l-.00000787.00054331-.00000394.00055512-.00000787.00055906-.00000787.00055906v.00008661l-.00002362.00102756-.00001968.00055512v.00005118l-.00003937.00106299-.00002362.00055906-.00000394.00009055-.00005512.00101969-.0000315.00055906-.00003543.00055512-.00003543.00055512-.00003937.00055512-.0000748.00095276-.00001181.00015748-.00005118.00055512-.00004724.00055118-.00001181.00011024-.00015354.00155118-.00006299.00055512-.00006299.00055118-.00027559.00220472-.00007874.00055118-.00007874.00055118-.00024803.00164567-.00009055.00055118-.00009055.00054724c-.00030709.00183071-.00065748.00364961-.00104724.00544882l-.00011811.00054331-.00049606.00214173-.00000394.00001968-.00013386.00053937-.00053543.00209843-.00001181.00004724-.00014567.00053543-.00014567.00053543-.00044095.00155118-.00001181.00004724-.00015748.0005315-.00015748.0005315-.00016142.0005315zm.246571-.00640945c.0759055-.0169646.156252-.045811.237528-.0849449-.0998425-.0546969-.199339-.123583-.292421-.203917-.028685-.0247559-.0560945-.0500472-.0821772-.0757165.0246378.142453.072748.269185.137071.364579zm.281028-.106831c.105315-.0552362.211114-.127157.309791-.212315.0422992-.0365079.081752-.0743071.118059-.11278.00572835-.0489606.00873622-.0993898.00873622-.150724 0-.0515118-.00293701-.101843-.00853543-.150512-.0364882-.0386693-.0760394-.0765512-.118272-.112996-.0974409-.0840984-.203417-.156311-.310173-.21213-.105181.0552126-.210839.127075-.30939.21213-.0423386.0365433-.0818268.0743819-.118165.112886-.00569685.0492362-.00862205.0996614-.00862205.150622 0 .0513386.00301575.101764.00874803.150728.0364291.0385906.0758976.0763898.118043.112764.0986772.0851614.204472.157087.30978.212327zm.472906-.375024c.028815-.0334528.0551969-.0672165.0789685-.100886-.0238504-.0337244-.0502913-.0674685-.0790669-.100839.00248031.0330591.00374803.0667441.00374803.100921 0 .0341102-.00124409.067752-.00364961.100803zm.103283-.136697c.0997008-.152909.143524-.301193.112693-.408114-.0119528.00512205-.0246614.00822047-.0377717.00920866l-.00003937.00000394c-.00094488.00007087-.00189764.00012598-.00284646.00017717l-.00015748.00001181h-.00003543l-.00016929.00000787-.0025.00009843-.00070472.00001575-.0022126.00002756-.00051969.00000787-.00000394-.00000394c-.00102756 0-.00205512-.00000787-.00307874-.00003543l-.00000394-.00000394c-.00102362-.00002756-.00203937-.00006299-.00305512-.00011417l-.00000394-.00000394c-.00101575-.00005118-.00202756-.00011417-.00303937-.00018898l-.00000394-.00000394c-.00100787-.00007874-.00201969-.00016142-.00301969-.00026378l-.00000394-.00000394c-.00100394-.00010236-.002-.0002126-.00299606-.00033858l-.00000394-.00000394c-.00099606-.00012598-.00198425-.00026772-.00297244-.00041732l-.00000394-.00000394c-.00098819-.00014961-.0019685-.00030709-.00294882-.00048425l-.00000394-.00000394c-.00098032-.00017717-.00195276-.00035827-.0029252-.00055906l-.00000394-.00000394c-.00097244-.00020079-.00193701-.00040551-.00289764-.00062992l-.00000394-.00000394c-.00096063-.00022441-.00192126-.00045276-.00287402-.00070079l-.00000394-.00000394c-.00095276-.00024409-.00190157-.0005-.00284646-.00076772l-.00000394-.00000394c-.00094488-.00026772-.00187795-.00054724-.00281496-.00083858l-.00000394-.00000394-.0027874-.00090158-.00000394-.00000394-.00275591-.00097244-.00000394-.00000394c-.00091339-.00033465-.00182677-.00067717-.00272835-.00103543l-.00000394-.00000394c-.00090158-.00035827-.00180315-.00072047-.00269291-.00109843l-.00000394-.00000394c-.0008937-.00037795-.00177953-.00076772-.00266142-.00116535l-.00000394-.00000394c-.00088189-.00039764-.00175591-.00080315-.00262598-.00122441l-.00000394-.00000394c-.00174409-.00084252-.00345669-.00172441-.00514961-.00264173l-.00000394-.00000394c-.00169685-.00092126-.0033622-.00188189-.00500394-.00287795l-.00000394-.00000394-.00244094-.00152362-.00000394-.00000394c-.00080709-.00051969-.00161024-.00104331-.00240157-.00158268l-.00000394-.00000394c-.00079528-.00053543-.00158268-.00108268-.0023622-.0016378l-.00000394-.00000394c-.00078347-.00055512-.00155512-.00112205-.00232283-.00169685-.00076772-.00057087-.00152756-.00115354-.00227953-.00174409l-.00000394-.00000394c-.00075197-.00059055-.00149606-.00118898-.00223228-.00179921l-.00000394-.00000394c-.00073622-.0006063-.0014685-.00122441-.00218898-.00185039l-.00000394-.00000394-.00214173-.00190157-.00000394-.00000394c-.00070866-.00064173-.00140551-.00129134-.00209843-.00195276l-.00000394-.00000394c-.00069291-.00065748-.00137402-.00132677-.00205118-.002l-.00000394-.00000787-.002-.00204724-.00000394-.00000394c-.00065748-.00068898-.00131102-.0013937-.00195276-.00209843l-.00000394-.00000394c-.00064173-.00070472-.00127559-.00142126-.00190157-.00214173l-.00000394-.00000787c-.00062598-.00072047-.00124016-.00144882-.00185039-.00218504l-.00000394-.00000787-.00179921-.00223228-.00000394-.00000394-.00174803-.00227559-.00000394-.00000787c-.00057087-.00076378-.0011378-.00153543-.00168898-.00231496l-.00000394-.00000787-.0016378-.00235827-.00000394-.00000787c-.00053543-.00079134-.00106693-.00159055-.00158268-.00239764l-.00000394-.00000787-.00152362-.00244094-.00000394-.00000394c-.0005-.0008189-.00098425-.00164961-.00146457-.00248031l-.00000394-.00000394c-.00048032-.00083071-.00094882-.00167717-.00140945-.00251969l-.00000394-.00000394-.00135039-.00255512-.00000394-.00000394c-.00044095-.00085827-.00087008-.00172047-.0012874-.00259055l-.00000394-.00000787c-.00041732-.00086614-.00082677-.00174016-.00122441-.00262205l-.00000394-.00000787c-.00039764-.00087795-.00079134-.00176378-.00116535-.00265748l-.00000394-.00000787c-.00037795-.00088976-.00074409-.00179134-.00109843-.00269291l-.00000394-.00000394c-.00035827-.00090158-.00069685-.00181102-.00103543-.00272441l-.00000394-.00000394-.00097244-.00275591-.00000394-.00000787c-.00031102-.00092126-.00061024-.00185433-.00090158-.0027874l-.00000394-.00000394c-.00029134-.00093307-.00057087-.00187402-.00083858-.00281496l-.00000394-.00000787c-.00026772-.00094095-.00052362-.00188976-.00076772-.00284252l-.00000394-.00000394c-.00024409-.00095276-.00048032-.00190945-.00070079-.00287402l-.00000394-.00000394c-.00022441-.00096063-.00042913-.00192913-.00062992-.00289764l-.00000394-.00000787c-.00019685-.0009685-.00038583-.00194488-.00055906-.0029252l-.00000394-.00000394c-.00017717-.00098032-.00033071-.00196063-.00048425-.00294882l-.00000394-.00000394c-.00014961-.00098819-.00029134-.00197638-.00041732-.00297244l-.00000394-.00000394c-.00012598-.00099606-.00023622-.00199213-.00033858-.00299606l-.00000394-.00000787c-.00010236-.001-.00018504-.00200787-.00026378-.00301575l-.00000394-.00000394c-.0000748-.00100787-.0001378-.00202362-.00018898-.00303937l-.00000394-.00000394c-.00005118-.00101575-.00009055-.00203543-.00011417-.00305906l-.00000394-.00000394c-.00002756-.00102362-.00003543-.00204724-.00003543-.00307874l-.00000394-.00000394c0-.00204331.00005118-.00408661.00015748-.00612205l.00000394-.00001968c.00004724-.00092126.00010236-.00183858.00017323-.00275591l.00001968-.0002874.00002362-.00026772.00019291-.00219685.00011811-.00112598.00005906-.00055118.00006299-.00055118.00006693-.00055118.0002126-.00165354.00007874-.00055118.00032677-.00219685.00009055-.00054724.00009055-.00054724c.00080709-.00478346.00189764-.0094685.00325197-.0140394l.00015748-.0005315.00015748-.0005315c-.0297205-.00744488-.0627874-.0112087-.0986614-.0112087-.0338937 0-.0694843.00321654-.106331.00943307.0710945.110457.12228.256831.143311.421866.0408701.0437992.0777717.0884016.110272.133079zm-.294484-.546917c-.076185.0169606-.156858.0459055-.238461.0852165.100965.0552244.200591.124366.292657.203819.0288307.0248819.056378.0503071.0825787.0761102-.0245394-.144039-.0727835-.270374-.136776-.365146zm-.754551.481945c-.0288346.0334724-.0552323.067248-.0790197.100941.023811.0336693.0502008.0673583.0789213.100677-.00240157-.0330315-.00364567-.0666535-.00364567-.100744 0-.0339016.00126378-.0675827.00374409-.100874zm.165945-.426118.00111024.00022835.00003543.00000787.00066142.00012992.00066142.00012205.00009055.00001968h.00000394l.00057087.00009843.00066535.00011024.00066535.0001063.00005906.00001181h.00000394l.0006063.00008661.00133465.00018504.00003937.00000394h.00000394l.00197244.00022835h.00001968.00000394l.002.0001811h.00000787.00000394l.00201575.00012992h.00000394.00000394l.0020315.0000748h.00000394.00000394l.0020315.00002756h.00001575.00000394l.0016811-.00001968.00035039-.00000787.00053543-.00001968.00115354-.00004331.00084646-.00004331.00119685-.00007874.00059055-.00004331.00175197-.00015748h.00000394.00001575l.00023228-.00002362.00164567-.00019291.00009843-.00001181.0011378-.00015748.00048819-.00006693c.00101969-.00015354.0020315-.00032284.00303937-.00051181l.00035039-.00007087c.00261417-.00050394.00519685-.0011378.00771654-.0018937l.00148819-.00046063.00006299-.00002362.00153937-.00051575.00001575-.00000394.00151181-.00053937.00009449-.00003543.00141732-.00053937.00016929-.00006693.00017717-.00007087c.0294094-.0117047.050252-.0404449.050252-.0739882 0-.0116772-.00255118-.0230315-.00733071-.0333661l-.00015748-.00034252c-.00046063-.00098425-.00094488-.00196063-.00144882-.0029252l-.00058268-.00110236-.00008268-.00015748-.00021654-.0003937c-.0135591-.0245906-.0397441-.0412795-.0697441-.0412795-.0400039 0-.0731929.0296614-.0787598.0681299l-.00003543.00025591-.00002362.00017323-.00002362.00017323-.00007087.00051181v.00000787l-.00002362.00016929-.00000394.00002756-.00001968.00014961-.00001968.00017323c-.00039764.00320866-.00060236.00647638-.00060236.00979528 0 .0130591.00316142.0253937.00875591.0362795l.00074409.00141339c.00100787.00187008.00209055.00368898.00324016.00546457l.00002756.00003937c.00113386.00174409.00232677.00344488.00359055.00509055l.00008268.00011024c.00190551.00248031.00394882.00483858.00612598.00707874l.00010236.00010236c.00217717.00222835.00448425.00433071.00690551.00629134l.00016535.0001378.00101575.00080315.00042913.00032677.00094882.00072047.00127953.00093701.00080315.00056299.00065354.00044882.00080709.00054331.00056299.00037008.00105512.00067717.00015354.00009449c.00087008.00054724.00175197.00107874.00264567.00159055l.00138976.00077953.00114173.00061024.00035433.00018504.00105512.00053937.00048032.00023622.00114173.00055512.00033858.00015748.00111024.00051181.00010236.00004724.00141732.00061811.00005512.00001968.00148425.00061024.00135827.00052756.00020472.0000748.0011378.00041732.00066929.00023622.00103543.00035039.0003937.00012598.00129134.00041339.00155512.00046063.00000787.00000394.00038189.0001063.00127953.00034646.00001968.00000394.00020866.00005906h.00000787l.00016535.00003937.00141339.00034646.00082284.00018898.00065748.00014567.00017323.00003543zm.30689 1.23095c-.0376929 0-.0693504.0263346-.0775315.061563l-.00001181.00005512c-.00133858.00577165-.00203937.0117795-.00203937.0179488 0 .043874.0356969.0795669.0795827.0795669.043874 0 .0795709-.0356929.0795709-.0795669s-.0356811-.0795669-.0795709-.0795669zm.592843-1.19541c.001.0007874.00202362.00155512.00305906.00229528m-1.23783.963598c-.043874 0-.0795709.0356969-.0795709.0795709s.0356969.0795669.0795709.0795669c.0438858 0 .0795827-.0356929.0795827-.0795669s-.0356969-.0795709-.0795827-.0795709zm.470646-1.09139c.00009843.0009685.00018504.00194488.00025984.00292126m.171024.407472c-.113898 0-.206579.0926654-.206579.206567 0 .113898.0926654.206563.206579.206563.113917 0 .206563-.0926654.206563-.206563.00001575-.113909-.0926457-.206567-.206563-.206567z" fill="#000002"/><path d="m.64674.803571c0 .113898.0926654.206563.206579.206563.113917 0 .206563-.0926654.206563-.206563.00001575-.113909-.0926457-.206567-.206563-.206567-.113898 0-.206579.0926654-.206579.206567z" fill="#e64c3c"/><path d="m.290972 1.35757c0-.043874-.0356969-.0795709-.0795827-.0795709-.043874 0-.0795709.0356969-.0795709.0795709s.0356969.0795669.0795709.0795669c.0438858 0 .0795827-.0356929.0795827-.0795669z" fill="#f0c419"/><path d="m.773736 1.58707c0 .043874.0356969.0795669.0795827.0795669.043874 0 .0795709-.0356929.0795709-.0795669s-.0356811-.0795669-.0795709-.0795669c-.0445157 0-.0795827.036311-.0795827.0795669z" fill="#3b97d3"/><path d="m1.45736.31948c.00390945.0009685.0180866.0110512.0420354.00951181.0419685-.00216142.0754291-.0369764.0754291-.0794764 0-.0438898-.0356969-.0795866-.0795709-.0795866-.0382913 0-.0699094.0269252-.0777756.0627835l-.00175984.0188543.0000748.00203937.00012992.00202362.0001811.00201181.00022835.00199606.00027559.00198031.00032677.0019685.00037402.00194882.00042126.00193307.0004685.00191339.00051575.00189764.00055906.00187795.00060236.00185827.00064961.00183465.00069291.0018189.00073228.00179528.00077953.00177559.00081496.00174803.00086221.00172835.00089764.00170472.00094095.00167717.00097638.00165354.00101969.00162992.00105118.00159843.00109449.0015748.00112598.00154724.00116535.00151969.00120079.00148819.00123228.00146063.00126772.00142913.00130315.00139764.00133071.00136614.0183465.0137165z" fill="#e64c3c"/><path d="m.642626.19872c0-.0429882-.0347323-.0795669-.079563-.0795669-.0402244 0-.0735157.0299528-.0788425.0687323-.00537795.0391457.0187283.0755984.0555157.0869331l.00669291.00173622c.0475591.00978346.0961969-.0249606.0961969-.0778346z" fill="#4fba6f"/></g></svg>