<?xml version="1.0" encoding="UTF-8"?>
<svg xmlns="http://www.w3.org/2000/svg" width="512" height="512" viewBox="0 0 128 128"><g><g><path d="M90.086,110.75h-.195a6.662,6.662,0,0,1-6.654-6.654,3.158,3.158,0,0,0-3.154-3.155h-.425A3.158,3.158,0,0,0,76.5,104.1a6.662,6.662,0,0,1-6.654,6.654h-.195A6.662,6.662,0,0,1,63,104.1V92.917a1.75,1.75,0,1,1,3.5,0V104.1a3.158,3.158,0,0,0,3.154,3.154h.195A3.158,3.158,0,0,0,73,104.1a6.662,6.662,0,0,1,6.654-6.655h.425a6.662,6.662,0,0,1,6.654,6.655,3.158,3.158,0,0,0,3.154,3.154h.195A3.158,3.158,0,0,0,93.24,104.1V87.17a1.75,1.75,0,0,1,3.5,0V104.1A6.662,6.662,0,0,1,90.086,110.75Z" fill="#f79f63"/><path d="M79.862,84.593v8.324H52.111a4.162,4.162,0,1,1,0-8.324Z" fill="#f5c464"/><path d="M79.862,51.843v32.75H52.111a4.164,4.164,0,0,0-4.167,4.162V56.005a4.164,4.164,0,0,1,4.167-4.162Z" fill="#009d8f"/><g><path d="M56.265,84.59V65.52a1.75,1.75,0,0,0-3.5,0V84.59Z" fill="#008f7e"/><path d="M56.265,51.84v5a1.75,1.75,0,0,1-3.5,0v-5Z" fill="#008f7e"/></g><path d="M37.715,62.36V82.4a4.776,4.776,0,0,1-4.77,4.77h-.51a4.769,4.769,0,0,1-4.77-4.77V62.36a4.768,4.768,0,0,1,4.77-4.77h.51A4.776,4.776,0,0,1,37.715,62.36Z" fill="#f5c464"/><path d="M27.665,62.77V81.99h-.83a7.927,7.927,0,0,1-7.93-7.92V70.69a7.9,7.9,0,0,1,5.76-7.61,7.8,7.8,0,0,1,2.17-.31Z" fill="#f26e53"/><path d="M108.775,70.69v3.38a7.927,7.927,0,0,1-7.93,7.92h-.83V62.77h.83a7.8,7.8,0,0,1,2.17.31A7.9,7.9,0,0,1,108.775,70.69Z" fill="#f26e53"/><path d="M100.015,62.36V82.4a4.769,4.769,0,0,1-4.77,4.77h-.51a4.776,4.776,0,0,1-4.77-4.77V62.36a4.776,4.776,0,0,1,4.77-4.77h.51a4.768,4.768,0,0,1,4.77,4.77Z" fill="#f5c464"/><path d="M103.015,53.59v9.49a7.8,7.8,0,0,0-2.17-.31h-.83v-.41a4.764,4.764,0,0,0-3-4.43V53.59c0-15.53-14.88-28.15-33.17-28.15s-33.18,12.62-33.18,28.15v4.34a4.764,4.764,0,0,0-3,4.43v.41h-.83a7.8,7.8,0,0,0-2.17.31V53.59c0-18.83,17.57-34.15,39.18-34.15S103.015,34.76,103.015,53.59Z" fill="#009d8f"/><path d="M71.769,63.306H63.84a1.75,1.75,0,0,1,0-3.5h7.929a1.75,1.75,0,0,1,0,3.5Z" fill="#250a66"/></g><g><path d="M104.86,61.858V53.59c0-19.8-18.357-35.9-40.92-35.9a45.637,45.637,0,0,0-18.992,4.1,1.75,1.75,0,1,0,1.465,3.178A42.137,42.137,0,0,1,63.94,21.19c20.633,0,37.42,14.535,37.42,32.4v6.294a6.442,6.442,0,0,0-2.5-3V53.59c0-16.487-15.665-29.9-34.92-29.9S29.01,37.1,29.01,53.59v3.294a6.436,6.436,0,0,0-2.5,3V53.59a28.973,28.973,0,0,1,4.34-15.128,1.75,1.75,0,0,0-2.984-1.83A32.474,32.474,0,0,0,23.01,53.59v8.27a9.679,9.679,0,0,0-5.76,8.83v3.38a9.681,9.681,0,0,0,8.891,9.63,6.531,6.531,0,0,0,6.389,5.22h.51a6.528,6.528,0,0,0,6.52-6.52V62.36a6.528,6.528,0,0,0-6.52-6.52h-.53V53.59c0-14.557,14.1-26.4,31.43-26.4s31.42,11.843,31.42,26.4v2.251h-.53a6.528,6.528,0,0,0-6.52,6.52V82.4a6.526,6.526,0,0,0,5.025,6.34V104.1a3.158,3.158,0,0,1-3.154,3.154h-.195a3.158,3.158,0,0,1-3.154-3.154,6.662,6.662,0,0,0-6.654-6.655h-.425A6.662,6.662,0,0,0,73.1,104.1a3.158,3.158,0,0,1-3.154,3.154H69.75A3.158,3.158,0,0,1,66.6,104.1V94.667H79.957a1.749,1.749,0,0,0,1.75-1.75V72.38a1.75,1.75,0,0,0-3.5,0V82.843H56.363V65.522a1.75,1.75,0,1,0-3.5,0V82.843h-.657a5.874,5.874,0,0,0-2.416.521V56.005a2.417,2.417,0,0,1,2.416-2.412h.657v3.244a1.75,1.75,0,0,0,3.5,0V53.593H78.207V61.9a1.75,1.75,0,1,0,3.5,0V51.843a1.749,1.749,0,0,0-1.75-1.75H52.206a5.921,5.921,0,0,0-5.916,5.912v32.75a5.908,5.908,0,0,0,5.916,5.912H63.1V104.1a6.662,6.662,0,0,0,6.654,6.654h.195A6.662,6.662,0,0,0,76.6,104.1a3.158,3.158,0,0,1,3.154-3.155h.425a3.158,3.158,0,0,1,3.154,3.155,6.662,6.662,0,0,0,6.654,6.654h.195a6.662,6.662,0,0,0,6.654-6.654V88.74a6.534,6.534,0,0,0,4.894-5.04,9.681,9.681,0,0,0,8.891-9.63V70.69A9.681,9.681,0,0,0,104.86,61.858ZM20.75,74.07V70.69a6.231,6.231,0,0,1,5.26-6.1V80.172A6.183,6.183,0,0,1,20.75,74.07ZM33.04,59.34a3.024,3.024,0,0,1,3.02,3.02V82.4a3.024,3.024,0,0,1-3.02,3.02h-.51a3.024,3.024,0,0,1-3.02-3.02V62.36a3,3,0,0,1,1.9-2.8,2.961,2.961,0,0,1,1.121-.215ZM50.5,90.462a2.413,2.413,0,0,1,1.71-4.119h26v4.824h-26A2.414,2.414,0,0,1,50.5,90.462ZM98.36,82.4a3.024,3.024,0,0,1-3.02,3.02h-.51a3.024,3.024,0,0,1-3.02-3.02V62.36a3.024,3.024,0,0,1,3.02-3.02h.51a2.96,2.96,0,0,1,1.123.216,3,3,0,0,1,1.9,2.8V82.4Zm8.76-8.33a6.182,6.182,0,0,1-5.26,6.1V64.592a6.088,6.088,0,0,1,.779.174,6.163,6.163,0,0,1,4.481,5.924Z" fill="#250a66"/><path d="M35.428,31.94a1.749,1.749,0,0,0,1.187-.465q.622-.576,1.276-1.125a1.75,1.75,0,0,0-2.252-2.68q-.717.6-1.4,1.234a1.751,1.751,0,0,0,1.189,3.036Z" fill="#250a66"/></g></g></svg>
