<svg clip-rule="evenodd" fill-rule="evenodd" height="512" stroke-linejoin="round" stroke-miterlimit="2" viewBox="0 0 512 512" width="512" xmlns="http://www.w3.org/2000/svg"><g><g><path d="m60.461 232.5c19.275-27.67 29.609-60.581 29.608-94.302h.074c0-50.647 41.118-91.766 91.765-91.766s91.765 41.119 91.765 91.766c0 33.736 10.338 66.662 29.622 94.343 16.907 24.006 26.797 53.278 26.797 84.842 0 81.785-66.399 148.185-148.184 148.185s-148.184-66.4-148.184-148.185c0-31.564 9.89-60.836 26.737-84.883z" fill="#c0fe64"/><path d="m234.21 62.832c23.85 16.567 39.463 44.157 39.463 75.366 0 33.736 10.338 66.662 29.622 94.343 16.907 24.006 26.797 53.278 26.797 84.842 0 81.785-66.399 148.185-148.184 148.185-46.765 0-88.499-21.71-115.636-55.612 25.353 20.373 57.552 32.548 92.572 32.548 81.785 0 148.184-66.399 148.184-148.184 0-31.564-9.89-60.837-26.797-84.843-19.283-27.681-29.621-60.607-29.621-94.343 0-19.438-6.057-37.473-16.4-52.302z" fill="#aaf43e"/><path d="m88.664 319.874c13.47-9.83 29.76 7.354 46.811 30.72 17.052 23.365 28.448 44.121 14.979 53.95-13.47 9.83-42.493 1.938-59.544-21.428-17.052-23.365-15.716-53.413-2.246-63.242z" fill="#e3ffba"/><path d="m81.939 133.063c-.092 2.978-.203 5.135-.203 5.135 0 32.016-9.81 63.263-28.109 89.533-17.791 25.4-28.236 56.316-28.236 89.652 0 86.385 70.133 156.518 156.517 156.518s156.517-70.133 156.517-156.518c0-33.34-10.447-64.259-28.302-89.619-18.304-26.281-28.116-57.539-28.116-89.566 0-55.246-44.853-100.099-100.099-100.099-53.522 0-97.29 42.098-99.969 94.964zm-14.653 104.218c.005-.006.009-.012.013-.018 19.277-27.672 30.04-60.334 31.029-93.97.098-3.336.148-5.085.148-5.095 0-46.048 37.385-83.432 83.432-83.432s83.432 37.384 83.432 83.432c0 35.439 10.86 70.028 31.117 99.107.008.011.017.023.025.035 15.95 22.647 25.277 50.265 25.277 80.043 0 77.186-62.665 139.851-139.851 139.851s-139.851-62.665-139.851-139.851c0-29.785 9.331-57.409 25.229-80.102z" fill="#8d4ba0"/></g><g><path d="m208.645 232.5c19.275-27.67 29.609-60.581 29.609-94.302h.073c0-50.647 41.118-91.766 91.765-91.766s91.765 41.119 91.765 91.766c0 33.736 10.338 66.662 29.622 94.343 16.907 24.006 26.797 53.278 26.797 84.842 0 81.785-66.399 148.185-148.184 148.185s-148.184-66.4-148.184-148.185c0-31.564 9.89-60.836 26.737-84.883z" fill="#c0fe64"/><path d="m369.522 55.334c30.936 14.749 52.335 46.327 52.335 82.864 0 33.736 10.338 66.662 29.622 94.343 16.907 24.006 26.797 53.278 26.797 84.842 0 81.785-66.399 148.185-148.184 148.185-41.825 0-79.626-17.366-106.559-45.308 21.947 12.918 47.518 20.308 74.802 20.308 81.785 0 148.184-66.4 148.184-148.185 0-31.564-9.89-60.836-26.797-84.842-19.284-27.681-29.622-60.607-29.622-94.343 0-21.935-7.713-42.083-20.578-57.864z" fill="#aaf43e"/><path d="m240.837 231.166c15.886-20.778 24.494-46.206 24.494-72.362h.002c0-43.591 24.966-86.372 64.759-86.372s64.759 42.781 64.759 86.372c0 26.156 8.607 51.585 24.494 72.364 16.959 22.156 27.174 50.711 27.174 81.859 0 70.392-52.169 127.541-116.427 127.541s-116.427-57.149-116.427-127.541c0-31.148 10.215-59.703 27.172-81.861z" fill="#fed964"/><path d="m403.125 202.414c4.017 10.227 9.46 19.912 16.22 28.754 16.959 22.156 27.174 50.711 27.174 81.859 0 70.392-52.169 127.541-116.427 127.541-33.253 0-63.269-15.305-84.463-39.848 15.809 8.864 33.73 13.848 52.706 13.848 64.257 0 116.426-57.149 116.426-127.541 0-31.148-2.697-58.508-11.656-84.663" fill="#f2ca49"/><path d="m330.092 241.568c34.771 0 63 46.636 63 85.967 0 39.33-28.229 52.033-63 52.033s-63-12.703-63-52.033c0-39.331 28.229-85.967 63-85.967z" fill="#c87b6b"/><path d="m354.69 249.529c22.565 14.99 38.402 48.547 38.402 78.006 0 39.33-28.229 52.033-63 52.033-25.904 0-48.178-7.05-57.841-26.913 10.666 5.571 24.127 7.816 38.745 7.816 34.771 0 63-12.702 63-52.032 0-20.138-7.4-42.19-19.306-58.91z" fill="#c26f5e"/><path d="m321.467 277.032c6.985 2.867 4.217 13.225-.755 25.343-4.972 12.117-10.278 21.435-17.264 18.568-6.985-2.866-10.821-15.935-5.848-28.052 4.972-12.118 16.881-18.725 23.867-15.859z" fill="#dc9687"/><path d="m332.056 105.495c10.941 3.558 7.918 19.615 1.745 38.595-6.172 18.98-13.171 33.744-24.112 30.186-10.942-3.559-18.262-22.978-12.089-41.959 6.172-18.98 23.514-30.38 34.456-26.822z" fill="#ffe89f"/><g fill="#8d4ba0"><path d="m230.123 133.063c-.091 2.094-.203 5.135-.203 5.135 0 32.016-9.81 63.263-28.109 89.533-17.791 25.4-28.236 56.316-28.236 89.652 0 86.385 70.133 156.518 156.517 156.518s156.517-70.133 156.517-156.518c0-33.34-10.447-64.259-28.302-89.619-18.304-26.281-28.116-57.539-28.116-89.566 0-55.246-44.853-100.099-100.099-100.099-53.522 0-97.29 42.098-99.969 94.964zm-14.653 104.218c.005-.006.009-.012.013-.018 19.277-27.672 30.04-60.334 31.029-93.97.284-2.465.148-5.086.148-5.095 0-46.048 37.385-83.432 83.432-83.432s83.432 37.384 83.432 83.432c0 35.439 10.86 70.028 31.117 99.107.008.011.017.023.025.035 15.95 22.647 25.277 50.265 25.277 80.043 0 77.186-62.665 139.851-139.851 139.851s-139.851-62.665-139.851-139.851c0-29.785 9.331-57.409 25.229-80.102z"/><path d="m257.001 158.668-.004.136c0 24.326-8.005 47.976-22.78 67.301l.002-.003c-18.008 23.531-28.887 53.846-28.887 86.925 0 75.191 56.121 135.874 124.76 135.874s124.76-60.683 124.76-135.874c0-33.079-10.879-63.394-28.89-86.924-14.772-19.322-22.778-42.972-22.778-67.299 0-48.306-28.995-94.705-73.092-94.705-44.058 0-73.04 46.315-73.091 94.569zm16.663.225.002-.089c0-20.045 5.653-39.93 15.968-54.778 9.624-13.853 23.385-23.26 40.458-23.26s30.834 9.407 40.458 23.26c10.315 14.848 15.968 34.733 15.968 54.778 0 27.986 9.209 55.193 26.207 77.425.001.002.002.003.003.004 15.907 20.782 25.457 47.577 25.457 76.794 0 65.593-48.216 119.207-108.093 119.207s-108.093-53.614-108.093-119.207c0-29.217 9.55-56.012 25.456-76.796.001-.001.001-.002.002-.003 16.979-22.207 26.187-49.379 26.207-77.335z"/><path d="m330.092 233.234c-16.152 0-31.254 8.339-43.363 21.662-16.95 18.646-27.97 47.066-27.97 72.639 0 18.322 5.53 31.589 14.434 41.025 12.877 13.648 33.473 19.341 56.899 19.341s44.022-5.693 56.899-19.341c8.904-9.436 14.434-22.703 14.434-41.025 0-25.573-11.02-53.993-27.969-72.639-12.11-13.323-27.212-21.662-43.364-21.662zm0 16.667c11.665 0 22.285 6.584 31.03 16.205 14.332 15.767 23.637 39.805 23.637 61.429 0 13.143-3.503 22.818-9.89 29.587-10.06 10.662-26.476 14.112-44.777 14.112s-34.717-3.45-44.777-14.112c-6.387-6.769-9.89-16.444-9.89-29.587 0-21.624 9.305-45.662 23.637-61.429 8.745-9.621 19.365-16.205 31.03-16.205z"/></g></g></g></svg>