<svg height="512" viewBox="0 0 64 64" width="512" xmlns="http://www.w3.org/2000/svg"><g id="Avocado"><path d="m21.307 11.25a9.967 9.967 0 0 0 -2.278-.25 10.666 10.666 0 0 0 -1.751.141c.561-4.162 2.115-9.3 6.33-10.14l.78 3.92c-1.947.391-2.8 4.557-3.08 6.33z" fill="#635c4c"/><path d="m19.031 63a19.054 19.054 0 0 1 -2.125-.12 18 18 0 0 1 -10.979-30.246 11.506 11.506 0 0 0 3.073-7.662c.166-6.372 2.033-13.972 10-13.972 7.858 0 9.77 7.42 9.989 13.645a12.452 12.452 0 0 0 3.187 8.1 17.992 17.992 0 0 1 -1.188 25.684 17.684 17.684 0 0 1 -11.957 4.571z" fill="#1c8e6b"/><path d="m28.039 11.25a12.585 12.585 0 0 0 -6.731 0c3.1 1.625 1.061 7.164 4.378 7.792 6.6 1.25 7.958 2.479 7.958 2.479-2.833-2.5-.544-8.729-5.605-10.271z" fill="#35bc92"/><path d="m41.992 63.009a18 18 0 0 1 -5.544-35.109 11.512 11.512 0 0 0 6.352-5.275c3.285-5.708 7.105-8.726 11.048-8.726a9.227 9.227 0 0 1 4.4 1.205c6.908 3.744 5.054 11.178 2.281 16.756a12.447 12.447 0 0 0 -1.054 8.64 17.993 17.993 0 0 1 -13.283 22.014 18.29 18.29 0 0 1 -4.2.495z" fill="#35bc92"/><path d="m42.033 59a14 14 0 0 1 -12.9-19.416 13.857 13.857 0 0 1 8.555-7.884 15.494 15.494 0 0 0 8.582-7.08c2.49-4.328 5.189-6.712 7.6-6.712a5.187 5.187 0 0 1 2.476.713c1.227.665 4.964 2.69.6 11.459a16.458 16.458 0 0 0 -1.346 11.42 14 14 0 0 1 -13.567 17.5z" fill="#fff18f"/><path d="m41.647 53.831a7.58 7.58 0 0 1 -2.336-.388 9.085 9.085 0 0 1 -1.9-.879 8.585 8.585 0 0 1 -1.538-1.19 6.859 6.859 0 0 1 -.68-9.263 7.621 7.621 0 0 1 5.942-3.111 7.282 7.282 0 0 1 3.52.943l.143.077a7.2 7.2 0 0 1 3.15 9.436 7.028 7.028 0 0 1 -6.301 4.375z" fill="#c8866a"/><g fill="#352d34"><path d="m26.609 60.2a17 17 0 0 1 -19.957-26.887 12.494 12.494 0 0 0 3.348-8.323c.146-5.928 1.83-12.99 9-12.99a9.064 9.064 0 0 1 1.94.2c.979.59 1.219 1.919 1.465 3.331.314 1.8.7 4.041 3.1 4.494.74.14 1.41.279 2.018.416a25.955 25.955 0 0 1 .472 4.235 15.316 15.316 0 0 0 .321 2.622 1 1 0 1 0 1.956-.416 13.222 13.222 0 0 1 -.278-2.275 29.366 29.366 0 0 0 -.342-3.628 11.991 11.991 0 0 1 3.327 1.283l.01.009a1 1 0 0 0 1.333-1.49l-.014-.014c-.908-.8-1.167-2.282-1.443-3.846-.434-2.47-.975-5.545-4.528-6.628a13.172 13.172 0 0 0 -5.757-.337c.579-2.606 1.407-3.934 2.013-4.055a1 1 0 0 0 .784-1.176l-.788-3.925a1 1 0 0 0 -1.177-.785c-4.544.907-6.331 5.935-7.02 10.276-5.226 1.223-8.183 6.309-8.392 14.65a10.5 10.5 0 0 1 -2.8 7 19 19 0 0 0 11.592 31.93 19.409 19.409 0 0 0 2.2.126 18.987 18.987 0 0 0 8.508-2.008 1 1 0 1 0 -.894-1.789zm1.137-48c2.379.725 2.732 2.734 3.142 5.06.125.715.253 1.438.445 2.13a44.555 44.555 0 0 0 -5.463-1.337c-.939-.178-1.167-.971-1.5-2.873a9.5 9.5 0 0 0 -1.018-3.32 10.891 10.891 0 0 1 4.394.34zm-4.9-9.919.407 2.046c-1.486.985-2.3 3.446-2.757 5.765a11.979 11.979 0 0 0 -1.5-.1c-.181 0-.351.019-.528.027.52-2.829 1.702-6.53 4.377-7.736z"/><path d="m58.725 14.221c-6.02-3.264-11.982-.456-16.791 7.9a10.51 10.51 0 0 1 -5.8 4.82 19.005 19.005 0 0 0 5.856 37.059 19.247 19.247 0 0 0 4.431-.522 18.991 18.991 0 0 0 14.019-23.235 11.449 11.449 0 0 1 .985-7.942c4.196-8.442 3.237-14.863-2.7-18.08zm.909 17.189a13.444 13.444 0 0 0 -1.129 9.335 17 17 0 1 1 -21.749-11.9 12.5 12.5 0 0 0 6.911-5.723c2.315-4.021 5.785-8.208 10.2-8.208a8.131 8.131 0 0 1 3.9 1.068c6.211 3.36 4.443 10.245 1.867 15.428z"/><path d="m56.818 17.738a6.133 6.133 0 0 0 -2.952-.834c-3.566 0-6.572 3.922-8.466 7.212a14.489 14.489 0 0 1 -8.024 6.627 15 15 0 0 0 -3.976 26.513 15 15 0 0 0 23.167-16.009 15.454 15.454 0 0 1 1.275-10.726c3.177-6.393 2.834-10.694-1.024-12.783zm-.767 11.892a17.45 17.45 0 0 0 -1.419 12.119 13 13 0 1 1 -16.632-9.104 16.5 16.5 0 0 0 9.138-7.531c2.27-3.947 4.724-6.21 6.731-6.21a4.22 4.22 0 0 1 2 .591c1.122.611 4.111 2.23.182 10.135z"/><path d="m45.273 39.139-.138-.075a8.238 8.238 0 0 0 -10.749 2.449 7.825 7.825 0 0 0 .784 10.572 9.632 9.632 0 0 0 1.718 1.33 10.09 10.09 0 0 0 2.112.975 7.849 7.849 0 0 0 9.864-4.541 8.175 8.175 0 0 0 -3.591-10.71zm1.754 9.918a5.841 5.841 0 0 1 -7.408 3.431 8.034 8.034 0 0 1 -1.692-.783 7.582 7.582 0 0 1 -1.362-1.052 5.831 5.831 0 0 1 -.573-7.953 6.2 6.2 0 0 1 8.184-1.882l.138.075a6.229 6.229 0 0 1 2.713 8.164z"/><path d="m6.063 46.286a.983.983 0 0 0 -1.09-.9 1 1 0 0 0 -.9 1.089 14.987 14.987 0 0 0 9.9 12.669 1 1 0 0 0 .667-1.885 12.982 12.982 0 0 1 -8.577-10.973z"/></g></g></svg>