<svg id="Layer_1" viewBox="0 0 512 512" xmlns="http://www.w3.org/2000/svg" data-name="Layer 1"><path d="m63.17 425.19c-6.04-.47-11.95-2.64-16.98-6.45l-13.47 13.47 23.53 23.53 13.25-13.25c-4.73-4.73-6.83-11.1-6.33-17.3z" fill="#f45d5d"/><path d="m24.25 446.36c-.97 6.31.94 12.99 5.8 17.84l8.87 8.87 6.02-6.02z" fill="#f45d5d"/><path d="m204.08 282.87c-5.77 12.59-22.76 18.4-36.56 23.11-2.07.71-4.55 1.55-6.9 2.42l21.49 21.49 34.49-34.49-12.53-12.53z" fill="#f45d5d"/><path d="m227.92 284.08 10.37-10.37-13.65-13.65-.01-.01-9.87-9.87-10.37 10.37z" fill="#565e75"/><path d="m431 65.01-185.36 185.36-4.03 4.03 7.99 8 4.04-4.04 218.34-218.34z" fill="#d8ecfe"/><path d="m122.54 343.77c-.15-.31-.3-.61-.47-.91l-64.33 64.33c1.2.66 2.47 1.15 3.78 1.49 4.09 1.06 8.55.57 12.32-1.57l48.13-48.13c2.72-4.77 2.82-10.45.56-15.2z" fill="#565e75"/><path d="m162.92 349.08s0 0 0 0l-5.54 5.54c-4.14-4.13-9.65-6.41-15.52-6.41-.62 0-1.22.04-1.83.09-.1-1.34-.31-2.66-.57-3.97-.72-3.5-2.01-6.89-3.87-10.01-.61-1.02-1.25-2.03-1.98-2.99l5.61-5.61 8.05-8.05 23.53 23.53z" fill="#f45d5d"/><path d="m146.06 365.94c-1.11-1.11-2.61-1.72-4.21-1.72s-3.1.61-4.21 1.73l-53.32 53.32.06.09c-.14.1-.3.19-.44.29l-3.12 3.12c-2.32 2.32-2.32 6.1 0 8.42l40.03-40.03 25.2-25.2z" fill="#565e75"/><g fill="#db4d4d"><path d="m62.46 488c1.07 0 2.13-.1 3.17-.26l-20.68-20.68-6.02 6.02 8.88 8.88c3.89 3.89 9.1 6.04 14.66 6.04z"/><path d="m182.11 329.89 21.47 21.47c.87-2.34 1.73-4.83 2.48-7.01 4.73-13.74 10.55-30.66 23.08-36.41l-12.53-12.53-34.49 34.49z"/><path d="m93.26 465.82c-3.87-5.07-6.04-10.96-6.46-16.99-.59.05-1.18.08-1.76.08-5.62 0-11.24-2.14-15.53-6.42s0 0 0 0l-13.25 13.25 23.54 23.54z"/><path d="m80.82 431.18 40.03-40.03z"/></g><path d="m251.46 307.62 10.37-10.37-9.87-9.87-.01-.01h-.01l-13.65-13.66-10.37 10.37z" fill="#4b5165"/><path d="m471.98 40.02-218.34 218.34-4.04 4.04 8.01 8 4.03-4.03 185.36-185.36 25-41z" fill="#cfe7fc"/><path d="m168.17 389.51c-4.83-2.19-10.62-1.96-15.47.84l-47.04 47.03c-2.75 4.09-3.54 8.74-2.45 13.03.34 1.34.86 2.64 1.57 3.88l64.32-64.33c-.31-.16-.62-.32-.94-.46z" fill="#4b5165"/><path d="m120.85 391.15-40.03 40.03s0 0 0 0c1.11 1.11 2.61 1.73 4.21 1.73s3.1-.61 4.21-1.73l56.82-56.81c2.32-2.32 2.32-6.1 0-8.42l-25.2 25.2z" fill="#4b5165"/><path d="m194.34 364.74-8.06 8.06-5.61 5.61c-.99-.73-2.02-1.38-3.07-1.99-3.14-1.81-6.53-3.07-10.04-3.75-1.28-.25-2.56-.43-3.86-.53.56-6.26-1.54-12.72-6.33-17.51l5.54-5.54s0 0 0 0l7.88-7.88 23.54 23.54z" fill="#db4d4d"/><path d="m501.67 10.34c-2.61-2.61-6.67-3.1-9.82-1.17l-69.99 42.67c-.54.33-1.04.72-1.49 1.17l-186.04 186.04-4.03 4.03-9.88-9.88c-2.24-2.24-5.48-2.87-8.29-1.89-1.1.38-2.14 1.01-3.02 1.89l-21.68 21.68s-.02.02-.03.03c-.13.14-.26.28-.38.42-.05.05-.1.11-.14.16-.13.15-.24.32-.35.48-.04.05-.08.1-.11.15-.11.16-.21.33-.3.5-.03.06-.07.11-.1.17-.09.16-.16.33-.24.5-.03.07-.06.14-.09.21-.07.16-.12.33-.18.49-.03.08-.06.16-.08.24-.05.16-.09.33-.12.49-.02.09-.04.17-.06.26-.03.18-.06.35-.08.53 0 .08-.03.16-.03.24-.02.22-.03.43-.03.65v.11c0 1.24.29 2.47.87 3.62.03.05.05.11.08.16.07.13.15.26.23.39.06.1.12.21.19.31.01.02.02.03.03.05 2.09 3.05 4.36 7.36 3.31 10.54-.35 1.07-1.05 2.1-2.01 3.09-4.96 5.15-17 9.26-25.42 12.14-6.55 2.24-12.12 4.14-16.31 6.57-1.71.99-3.2 2.07-4.43 3.29l-122.92 122.91c-14.32 14.32-14.32 37.62 0 51.95l17.75 17.75c6.92 6.92 16.14 10.72 25.97 10.72s19.06-3.81 25.97-10.72l122.7-122.7c1.25-1.25 2.36-2.78 3.37-4.52 2.47-4.26 4.41-9.89 6.69-16.51 3.05-8.86 7.03-20.45 12.09-25.3 1-.96 2.04-1.66 3.13-2.02 3.17-1.05 7.47 1.22 10.52 3.31.01.01.03.02.05.03.15.1.31.2.47.29.07.04.15.09.22.13.15.08.3.15.46.22.09.04.18.09.27.13.13.05.26.1.39.14.12.04.24.09.36.13.1.03.2.05.29.07.16.04.31.08.47.11l.21.03c.19.03.37.06.56.08.06 0 .12 0 .19.01.19.01.38.03.58.03h.02c.08 0 .16 0 .24-.01.17 0 .33 0 .5-.02.12-.01.25-.03.37-.05.13-.02.26-.03.38-.06.15-.03.29-.07.44-.1.1-.03.2-.04.3-.07.15-.04.29-.1.43-.15.1-.04.2-.07.3-.1.12-.05.24-.11.37-.17.12-.05.23-.1.35-.16.1-.05.19-.11.28-.16.14-.08.27-.15.41-.24.07-.05.14-.1.21-.15.15-.11.3-.21.45-.33.06-.05.11-.1.17-.15.15-.12.29-.25.43-.39.01-.01.03-.02.04-.03l21.68-21.68c.87-.87 1.5-1.91 1.9-3.05.29-.83.45-1.71.45-2.61 0-2.12-.84-4.16-2.34-5.66l-9.88-9.88 4.03-4.03s186.02-186.05 186.02-186.05c.45-.45.84-.95 1.17-1.49l42.67-69.99c1.92-3.15 1.44-7.21-1.17-9.82zm-29.67 29.67-25 41-185.36 185.36-4.03 4.03-8-8-8-8 4.03-4.03 185.36-185.36 40.98-24.99h.02zm-247.37 220.03s0 0 0 0l13.65 13.65 13.65 13.66s0 0 0 0l9.87 9.87-10.37 10.37-23.54-23.54-23.53-23.53 10.37-10.37 9.88 9.88zm-194.58 204.17c-4.85-4.85-6.77-11.53-5.8-17.84l20.69 20.69 20.68 20.68c-1.04.16-2.09.26-3.17.26-5.56 0-10.77-2.14-14.66-6.04l-8.88-8.88-8.87-8.87zm26.21-8.47-23.53-23.53 13.47-13.47c5.03 3.81 10.93 5.98 16.98 6.45-.5 6.2 1.6 12.57 6.33 17.3 4.28 4.28 9.9 6.42 15.53 6.42.59 0 1.18-.04 1.76-.08.42 6.03 2.59 11.92 6.46 16.99l-13.46 13.46zm89.81-89.8c2.32 2.32 2.32 6.1 0 8.42l-56.82 56.81c-1.11 1.11-2.61 1.73-4.21 1.73s-3.1-.61-4.21-1.73c-2.32-2.32-2.32-6.1 0-8.42l3.12-3.12c.15-.1.3-.18.44-.29l-.06-.09 53.32-53.32c1.11-1.11 2.61-1.73 4.21-1.73s3.09.61 4.21 1.72zm-88.31 41.24 64.33-64.33c.17.3.32.6.47.91 2.26 4.75 2.16 10.43-.56 15.2l-48.13 48.13c-3.77 2.14-8.23 2.63-12.32 1.57-1.31-.34-2.58-.84-3.78-1.49zm111.36-17.21-64.32 64.33c-.71-1.24-1.23-2.54-1.57-3.88-1.09-4.29-.3-8.94 2.45-13.03l47.04-47.03c4.84-2.8 10.64-3.03 15.47-.84.32.14.63.3.94.46zm17.17-17.17-5.61 5.61c-.99-.73-2.02-1.38-3.07-1.99-3.14-1.81-6.53-3.07-10.04-3.75-1.28-.25-2.56-.43-3.86-.53.56-6.26-1.54-12.72-6.33-17.51-4.14-4.13-9.65-6.41-15.52-6.41-.62 0-1.22.04-1.83.09-.1-1.34-.31-2.66-.57-3.97-.72-3.5-2.01-6.89-3.87-10.01-.61-1.02-1.25-2.03-1.98-2.99l5.61-5.61 8.05-8.05 23.53 23.53 23.54 23.54-8.06 8.06zm19.78-28.46c-.75 2.18-1.61 4.68-2.48 7.01l-21.47-21.47-21.49-21.49c2.35-.87 4.83-1.72 6.9-2.42 13.8-4.71 30.79-10.52 36.56-23.11l12.53 12.53 12.53 12.53c-12.53 5.76-18.35 22.67-23.08 36.41z"/></svg>