<svg id="Layer_1" viewBox="0 0 1000 1000" xmlns="http://www.w3.org/2000/svg" data-name="Layer 1"><path d="m314.84 308.56v15h370.32v-15zm0 0v15h370.32v-15zm498.48 438.09s0-.07 0-.11l-51.14-431.37a7.5 7.5 0 0 0 -7.45-6.61h-509.46a7.5 7.5 0 0 0 -7.45 6.61l-51.13 431.37s0 .07 0 .11a144 144 0 0 0 143 160.85h340.6a144 144 0 0 0 143-160.85zm-46.58 102.53a129.13 129.13 0 0 1 -96.45 43.32h-340.58a129 129 0 0 1 -128.71-137.58c.14-2.2.35-4.41.61-6.62l1-8.38 49.35-416.36h496.11l49.35 416.36 1 8.38c.26 2.21.47 4.42.61 6.62a129.14 129.14 0 0 1 -32.29 94.26zm-451.9-540.62v15h370.32v-15z"/><path d="m748.07 323.56h-47.91v56a40 40 0 1 1 -15 0v-56h-370.32v56a40 40 0 1 1 -15 0v-56h-47.91l-49.35 416.36h594.84zm-123.07 239.23-70.1 50.93 26.78 82.4a7.51 7.51 0 0 1 -11.55 8.39l-70.13-50.93-70.09 50.93a7.51 7.51 0 0 1 -11.55-8.39l26.78-82.4-70.14-50.93a7.5 7.5 0 0 1 4.41-13.56h86.64l26.78-82.4a7.49 7.49 0 0 1 14.26 0l26.78 82.4h86.64a7.5 7.5 0 0 1 4.49 13.56z" fill="#fff59d"/><path d="m766.74 849.18a129.13 129.13 0 0 1 -96.45 43.32h-340.58a129 129 0 0 1 -128.71-137.58h598a129.14 129.14 0 0 1 -32.26 94.26z" fill="#ffab91"/><path d="m813.36 747.42a7.5 7.5 0 0 1 -7.5 7.5h-611.72a7.5 7.5 0 0 1 -7.5-7.5 6.62 6.62 0 0 1 0-.77 7.5 7.5 0 0 1 7.46-6.73h611.76a7.5 7.5 0 0 1 7.46 6.73 6.62 6.62 0 0 1 .04.77z"/><path d="m700.16 292.66v126.22a7.5 7.5 0 0 1 -15 0v-126.22c0-102.1-83.06-185.16-185.16-185.16s-185.16 83.06-185.16 185.16v126.22a7.5 7.5 0 0 1 -15 0v-126.22c0-110.37 89.79-200.16 200.16-200.16s200.16 89.79 200.16 200.16z"/><path d="m314.84 379.59a40 40 0 0 0 -15 0 40 40 0 1 0 15 0zm-7.5 64.29a25 25 0 1 1 25-25 25 25 0 0 1 -25 25z"/><path d="m332.34 418.88a25 25 0 1 1 -32.5-23.88v23.85a7.5 7.5 0 0 0 15 0v-23.85a25.06 25.06 0 0 1 17.5 23.88z" fill="#e0f7fa"/><path d="m700.16 379.59a40 40 0 0 0 -15 0 40 40 0 1 0 15 0zm-7.5 64.29a25 25 0 1 1 25-25 25 25 0 0 1 -25 25z"/><path d="m717.66 418.88a25 25 0 1 1 -32.5-23.88v23.86a7.5 7.5 0 0 0 15 0v-23.86a25 25 0 0 1 17.5 23.88z" fill="#e0f7fa"/><path d="m627.68 554.41a7.49 7.49 0 0 0 -7.13-5.18h-86.64l-26.78-82.4a7.49 7.49 0 0 0 -14.26 0l-26.78 82.4h-86.64a7.5 7.5 0 0 0 -4.45 13.56l70.1 50.93-26.78 82.4a7.51 7.51 0 0 0 11.55 8.39l70.13-50.93 70.09 50.93a7.51 7.51 0 0 0 11.55-8.39l-26.78-82.4 70.14-50.93a7.51 7.51 0 0 0 2.68-8.38zm-86 50.38a7.5 7.5 0 0 0 -2.73 8.38l21.33 65.63-55.83-40.56a7.52 7.52 0 0 0 -8.82 0l-55.87 40.56 21.33-65.63a7.5 7.5 0 0 0 -2.73-8.38l-55.82-40.56h69a7.52 7.52 0 0 0 7.14-5.19l21.32-65.63 21.32 65.59a7.52 7.52 0 0 0 7.14 5.19h69z"/><path d="m538.91 613.17 21.33 65.63-55.83-40.56a7.52 7.52 0 0 0 -8.82 0l-55.83 40.56 21.33-65.63a7.5 7.5 0 0 0 -2.73-8.38l-55.82-40.56h69a7.52 7.52 0 0 0 7.14-5.19l21.32-65.63 21.32 65.59a7.52 7.52 0 0 0 7.14 5.19h69l-55.82 40.56a7.5 7.5 0 0 0 -2.73 8.42z" fill="#e53935"/></svg>