<svg height="512" viewBox="0 0 128 128" width="512" xmlns="http://www.w3.org/2000/svg"><g><g><path d="m95.4 61.28v33.56a14.061 14.061 0 0 1 -.94 5.08 14.259 14.259 0 0 1 -13.34 9.2h-34.138a14.259 14.259 0 0 1 -13.34-9.2 14.061 14.061 0 0 1 -.94-5.08v-33.56a20.884 20.884 0 0 1 2.01-8.98 17.118 17.118 0 0 0 15.13 9.09h8.558v3.65a2.684 2.684 0 0 0 2.69 2.69h5.92a2.684 2.684 0 0 0 2.69-2.69v-3.65h8.56a17.118 17.118 0 0 0 15.13-9.09 20.884 20.884 0 0 1 2.01 8.98z" fill="#fc852d"/><path d="m51.067 76.729h25.968a5.092 5.092 0 0 1 5.092 5.092v3.944a12.063 12.063 0 0 1 -12.064 12.062h-12.025a12.063 12.063 0 0 1 -12.063-12.062v-3.945a5.091 5.091 0 0 1 5.092-5.091z" fill="#fecd1a"/><path d="m72.678 30.22h-17.255a1.751 1.751 0 0 1 -1.75-1.75v-4.106a7.243 7.243 0 0 1 7.235-7.234h6.286a7.242 7.242 0 0 1 7.234 7.234v4.106a1.75 1.75 0 0 1 -1.75 1.75zm-15.5-3.5h13.75v-2.356a3.738 3.738 0 0 0 -3.734-3.734h-6.286a3.738 3.738 0 0 0 -3.735 3.734z" fill="#0e49b5"/><path d="m47.212 21.89v6.58h-5.39a9.056 9.056 0 0 0 -5.23 1.65v-8.23a3 3 0 0 1 3-3.01h4.62a3 3 0 0 1 3 3.01z" fill="#fc852d"/><path d="m95.4 37.58v6.67a17.145 17.145 0 0 1 -17.14 17.14h-8.56v-3.65a2.684 2.684 0 0 0 -2.69-2.69h-5.92a2.684 2.684 0 0 0 -2.69 2.69v3.65h-8.56a17.145 17.145 0 0 1 -17.14-17.14v-6.67a9.123 9.123 0 0 1 9.12-9.11h44.46a9.123 9.123 0 0 1 9.12 9.11z" fill="#fecd1a"/><path d="m91.512 21.89v8.23a9.056 9.056 0 0 0 -5.23-1.65h-5.39v-6.58a3 3 0 0 1 3-3.01h4.62a3 3 0 0 1 3 3.01z" fill="#fc852d"/><rect fill="#0e49b5" height="12.68" rx="2.69" width="11.3" x="58.402" y="55.05"/><g fill="#fecd1a"><path d="m32.7 94.84a14.061 14.061 0 0 0 .94 5.08h-3.61a6.376 6.376 0 0 1 -6.37-6.38v-8.08a6.368 6.368 0 0 1 6.37-6.37h2.67z"/><path d="m104.442 85.46v8.08a6.376 6.376 0 0 1 -6.37 6.38h-3.61a14.061 14.061 0 0 0 .94-5.08v-15.75h2.67a6.368 6.368 0 0 1 6.37 6.37z"/></g></g><g fill="#212f68"><path d="m62.675 107.37h-.635a1.75 1.75 0 1 0 0 3.5h.635a1.75 1.75 0 1 0 0-3.5z"/><path d="m83.824 85.765v-3.945a6.849 6.849 0 0 0 -6.842-6.841h-25.967a6.849 6.849 0 0 0 -6.842 6.841v3.945a13.829 13.829 0 0 0 13.813 13.813h12.025a13.829 13.829 0 0 0 13.813-13.813zm-13.813 10.313h-12.025a10.325 10.325 0 0 1 -10.313-10.313v-3.945a3.345 3.345 0 0 1 3.342-3.341h25.967a3.345 3.345 0 0 1 3.342 3.341v3.945a10.325 10.325 0 0 1 -10.313 10.313z"/><path d="m98.019 77.34h-.919v-16.06a22.526 22.526 0 0 0 -1.83-8.938 18.93 18.93 0 0 0 1.83-8.092v-6.67a10.843 10.843 0 0 0 -3.89-8.3v-7.39a4.76 4.76 0 0 0 -4.75-4.76h-4.62a4.76 4.76 0 0 0 -4.75 4.76v4.83h-4.714v-2.356a7.242 7.242 0 0 0 -7.234-7.234h-6.287a7.242 7.242 0 0 0 -7.234 7.234v2.356h-4.711v-4.83a4.76 4.76 0 0 0 -4.75-4.76h-4.62a4.76 4.76 0 0 0 -4.75 4.76v7.388a10.846 10.846 0 0 0 -3.89 8.3v6.67a18.924 18.924 0 0 0 1.83 8.092 22.526 22.526 0 0 0 -1.83 8.94v16.06h-.92a8.129 8.129 0 0 0 -8.12 8.12v8.08a8.134 8.134 0 0 0 8.12 8.13h2.453a16.109 16.109 0 0 0 14.5 9.2h4.436a1.75 1.75 0 0 0 0-3.5h-4.439a12.58 12.58 0 0 1 -11.707-8.08 12.307 12.307 0 0 1 -.823-4.45v-33.56a19.238 19.238 0 0 1 .7-5.166 18.846 18.846 0 0 0 14.69 7.026h6.81v1.9a4.445 4.445 0 0 0 4.44 4.44h5.92a4.445 4.445 0 0 0 4.44-4.44v-1.9h6.81a18.845 18.845 0 0 0 14.69-7.026 19.238 19.238 0 0 1 .7 5.166v33.56a12.309 12.309 0 0 1 -.827 4.459 12.576 12.576 0 0 1 -11.7 8.071h-9.147a1.75 1.75 0 1 0 0 3.5h9.144a16.107 16.107 0 0 0 14.5-9.2h2.452a8.135 8.135 0 0 0 8.121-8.13v-8.08a8.129 8.129 0 0 0 -8.124-8.12zm-15.429-55.45a1.256 1.256 0 0 1 1.25-1.26h4.62a1.256 1.256 0 0 1 1.25 1.26v5.41a10.835 10.835 0 0 0 -3.48-.575h-3.64zm-25.469 2.474a3.738 3.738 0 0 1 3.734-3.734h6.287a3.738 3.738 0 0 1 3.734 3.734v2.356h-13.755zm-17.581-3.734h4.62a1.256 1.256 0 0 1 1.25 1.26v4.83h-3.641a10.856 10.856 0 0 0 -3.479.575v-5.405a1.256 1.256 0 0 1 1.25-1.26zm-14.18 72.91v-8.08a4.626 4.626 0 0 1 4.62-4.62h.92v14a15.933 15.933 0 0 0 .363 3.33h-1.283a4.631 4.631 0 0 1 -4.62-4.63zm42.54-28.5a.93.93 0 0 1 -.94.94h-5.92a.93.93 0 0 1 -.94-.94v-7.3a.93.93 0 0 1 .94-.94h5.92a.93.93 0 0 1 .94.94zm10.31-5.4h-6.81v-1.9a1.783 1.783 0 0 0 -.035-.353 4.432 4.432 0 0 0 -4.405-4.087h-5.92a4.432 4.432 0 0 0 -4.405 4.087 1.783 1.783 0 0 0 -.035.353v1.9h-6.81a15.4 15.4 0 0 1 -15.39-15.39v-6.67a7.374 7.374 0 0 1 7.369-7.36h44.461a7.373 7.373 0 0 1 7.37 7.36v6.67a15.4 15.4 0 0 1 -15.39 15.39zm24.43 33.9a4.631 4.631 0 0 1 -4.621 4.63h-1.282a15.94 15.94 0 0 0 .363-3.33v-14h.919a4.626 4.626 0 0 1 4.621 4.62z"/></g></g></svg>