<svg fill="none" height="24" viewBox="0 0 24 24" width="24" xmlns="http://www.w3.org/2000/svg"><path d="m5.15665 19.2424c-.73993-1.4799-.44989-3.2672.72004-4.4371l8.92881-8.92885c1.17-1.16993 2.9573-1.45997 4.4371-.72004.5867.29333.7136 1.07522.2498 1.53903l-12.79672 12.79666c-.4638.4638-1.24569.337-1.53903-.2497z" fill="#decd72"/><g clip-rule="evenodd" fill="#1e3317" fill-rule="evenodd"><path d="m19.019 5.60363c-1.2873-.64368-2.8421-.39137-3.8599.62639l-8.92884 8.92888c-1.01775 1.0177-1.27007 2.5725-.62638 3.8599.14071.2814.51578.3423.73826.1198l12.79666-12.7967c.2225-.22248.1617-.59755-.1198-.73827zm-4.567-.08072c1.3221-1.32211 3.3419-1.64988 5.0143-.8137.8919.44596 1.0848 1.63467.3797 2.3398l-12.79675 12.79669c-.70513.7051-1.89384.5122-2.3398-.3797-.83618-1.6723-.50841-3.6921.8137-5.0142z"/><path d="m5.39936 15.2828c-.19526-.1953-.19526-.5119 0-.7072.20952-.2095.57587-.4559 1.03027-.5299.48541-.079 1.02983.0477 1.51212.5299.19526.1953.19526.5119 0 .7072-.19526.1952-.51185.1952-.70711 0-.25183-.2519-.4721-.2781-.64434-.2501-.20324.0331-.38747.1537-.48383.2501-.19527.1952-.51185.1952-.70711 0z"/><path d="m7.23466 13.4473c-.19527-.1953-.19527-.5118 0-.7071.20951-.2095.57587-.456 1.03027-.53.4854-.079 1.02983.0477 1.51211.53.19527.1953.19527.5118 0 .7071-.19526.1953-.51184.1953-.7071 0-.25183-.2518-.4721-.2781-.64434-.25-.20324.033-.38747.1536-.48384.25-.19526.1953-.51184.1953-.7071 0z"/><path d="m9.06992 11.6119c-.19526-.1953-.19526-.5119 0-.7072.20952-.2095.57587-.4559 1.03028-.5299.4854-.079 1.0298.0477 1.5121.5299.1953.1953.1953.5119 0 .7072-.1953.1952-.5118.1952-.7071 0-.2518-.2519-.4721-.2781-.6443-.2501-.2033.0331-.38751.1537-.48387.2501-.19526.1952-.51184.1952-.70711 0z"/><path d="m10.9052 9.77689c-.1952-.19526-.1952-.51184 0-.7071.2095-.20952.5759-.45598 1.0303-.52995.4854-.07902 1.0298.04766 1.5121.52995.1953.19526.1953.51184 0 .7071-.1953.19527-.5118.19527-.7071 0-.2518-.25182-.4721-.27808-.6443-.25004-.2033.03308-.3875.15368-.4839.25004-.1952.19527-.5118.19527-.7071 0z"/><path d="m12.7405 7.94144c-.1953-.19526-.1953-.51184 0-.7071.2095-.20952.5759-.45598 1.0303-.52995.4854-.07902 1.0298.04766 1.5121.52995.1952.19526.1952.51184 0 .7071-.1953.19527-.5119.19527-.7071 0-.2519-.25182-.4721-.27808-.6444-.25004-.2032.03308-.3874.15368-.4838.25004-.1953.19527-.5119.19527-.7071 0z"/></g></svg>