<svg height="512" viewBox="0 0 128 128" width="512" xmlns="http://www.w3.org/2000/svg"><g><path d="m102.633 52.15 7.788-11.894h-59.5l-7.784 11.894a21.335 21.335 0 0 0 -3.484 11.684v41.186h59.5v-41.186a21.335 21.335 0 0 1 3.48-11.684z" fill="#fa7578"/><path d="m85.684 22.98a5.011 5.011 0 1 1 -10.022 0h-24.737v17.276h59.5v-17.276z" fill="#f9545b"/><path d="m35.622 54.962c-12.322 5.581-17.199 13.059-19.072 17.371a7.487 7.487 0 0 0 .064 6.068 7.531 7.531 0 0 0 9.966 3.754l35.442-16.048a7.529 7.529 0 0 0 3.754-9.966 7.487 7.487 0 0 0 -4.517-4.051c-4.477-1.438-13.313-2.708-25.637 2.872z" fill="#e6a537"/><path d="m71.1 68.018h-40.591a10 10 0 0 1 10 10v24a3 3 0 0 1 -3 3h40.591a3 3 0 0 0 3-3v-24a10 10 0 0 0 -10-10z" fill="#fdca74"/><path d="m121.693 105.02h-22.544v-41.186a21.335 21.335 0 0 1 3.484-11.684l7.788-11.894 7.788 11.894a21.335 21.335 0 0 1 3.484 11.684z" fill="#f9545b"/><path d="m16.307 68.018h14.2a10 10 0 0 1 10 10v24a3 3 0 0 1 -3 3h-28.2a3 3 0 0 1 -3-3v-24a10 10 0 0 1 10-10z" fill="#f3f5e6"/><g><path d="m17.668 78.278a1.791 1.791 0 1 0 1.791 1.79 1.79 1.79 0 0 0 -1.791-1.79z"/><path d="m29.534 87.309a1.791 1.791 0 1 0 -1.79-1.79 1.79 1.79 0 0 0 1.79 1.79z"/><path d="m21.458 97.321a1.791 1.791 0 1 0 -1.79-1.791 1.791 1.791 0 0 0 1.79 1.791z"/><path d="m60.522 103.27h-4.5a1.75 1.75 0 0 0 0 3.5h4.5a1.75 1.75 0 1 0 0-3.5z"/><path d="m119.673 51.191-7.5-11.457v-16.754a1.75 1.75 0 0 0 -1.75-1.75h-7.907a1.75 1.75 0 0 0 0 3.5h6.157v13.776h-56v-13.776h21.469a6.762 6.762 0 0 0 13.062 0h5.947a1.75 1.75 0 0 0 0-3.5h-7.467a1.75 1.75 0 0 0 -1.75 1.75 3.261 3.261 0 1 1 -6.522 0 1.75 1.75 0 0 0 -1.75-1.75h-24.737a1.75 1.75 0 0 0 -1.75 1.75v16.754l-7.213 11.018a51.831 51.831 0 0 0 -7.062 2.617c-7.318 3.314-12.952 7.657-16.8 12.9h-1.793a11.763 11.763 0 0 0 -11.75 11.75v24a4.755 4.755 0 0 0 4.75 4.75h37.479a1.75 1.75 0 0 0 0-3.5h-4.715a4.7 4.7 0 0 0 .188-1.25v-24a11.709 11.709 0 0 0 -3.4-8.25h32.241a8.26 8.26 0 0 1 8.25 8.25v24a1.252 1.252 0 0 1 -1.25 1.25h-7.921a1.75 1.75 0 0 0 0 3.5h51.514a1.75 1.75 0 0 0 1.75-1.75v-41.185a23.022 23.022 0 0 0 -3.77-12.643zm-83.329 5.366c11.951-5.41 20.4-4.078 24.38-2.8a5.781 5.781 0 0 1 .576 10.756l-3.877 1.755h-34.832a40.243 40.243 0 0 1 13.753-9.711zm2.415 21.461v24a1.252 1.252 0 0 1 -1.25 1.25h-28.202a1.251 1.251 0 0 1 -1.25-1.25v-24a8.259 8.259 0 0 1 8.25-8.25h14.2a8.259 8.259 0 0 1 8.252 8.25zm32.341-11.75h-6.122a9.276 9.276 0 0 0 -3.184-15.844 31.9 31.9 0 0 0 -14.925-.778l5-7.64h55.312l-6.013 9.185a23.023 23.023 0 0 0 -3.768 12.643v39.436h-14.737a4.66 4.66 0 0 0 .189-1.25v-24a11.764 11.764 0 0 0 -11.752-11.752zm29.8-2.434a19.538 19.538 0 0 1 3.2-10.725l4.573-6.986v57.147h-7.773zm19.044 39.436h-7.772v-57.147l4.574 6.986a19.537 19.537 0 0 1 3.2 10.725z"/></g></g></svg>