<svg height="512" viewBox="0 0 128 128" width="512" xmlns="http://www.w3.org/2000/svg"><g><path d="m57.894 25.275h12.212v10.628h-12.212z" fill="#fa7578"/><path d="m10.307 96.372h107.386a4 4 0 0 1 4 4v13.45a0 0 0 0 1 0 0h-115.386a0 0 0 0 1 0 0v-13.45a4 4 0 0 1 4-4z" fill="#55c2e3"/><path d="m10.445 96.372 22.3-56.666a6 6 0 0 1 5.584-3.8h51.338a6 6 0 0 1 5.583 3.8l22.305 56.666z" fill="#80e2ff"/><path d="m109.425 25.275h-90.85a6 6 0 0 1 -5.491-3.581l-6.777-15.387h115.386l-6.777 15.387a6 6 0 0 1 -5.491 3.581z" fill="#80e2ff"/><circle cx="64" cy="66.138" fill="#f3f5e6" r="18.592"/><g fill="#fa7578"><circle cx="64" cy="66.138" r="3.634"/><path d="m17.51 113.822h13.745v7.871h-13.745z"/><path d="m96.745 113.822h13.745v7.871h-13.745z"/></g><g><path d="m118.788 94.729-21.909-55.664a7.705 7.705 0 0 0 -7.212-4.912h-17.811v-7.128h37.569a7.755 7.755 0 0 0 7.093-4.627l6.782-15.386a1.75 1.75 0 0 0 -1.6-2.455h-115.393a1.75 1.75 0 0 0 -1.6 2.455l6.775 15.388a7.755 7.755 0 0 0 7.093 4.627h7.318a1.75 1.75 0 0 0 0-3.5h-7.318a4.254 4.254 0 0 1 -3.89-2.537l-5.696-12.933h110.022l-5.7 12.931a4.251 4.251 0 0 1 -3.889 2.537h-60.137a1.75 1.75 0 0 0 0 3.5h6.859v7.128h-17.811a7.706 7.706 0 0 0 -7.212 4.912l-21.909 55.664a5.757 5.757 0 0 0 -4.655 5.643v13.45a1.749 1.749 0 0 0 1.75 1.75h9.453v6.121a1.749 1.749 0 0 0 1.75 1.75h13.745a1.749 1.749 0 0 0 1.75-1.75v-6.121h44.93a1.75 1.75 0 0 0 0-3.5h-69.878v-11.7a2.253 2.253 0 0 1 2.25-2.25h107.386a2.253 2.253 0 0 1 2.25 2.25v11.7h-32.643a1.75 1.75 0 0 0 0 3.5h7.7v6.121a1.749 1.749 0 0 0 1.75 1.75h13.74a1.749 1.749 0 0 0 1.75-1.75v-6.121h9.453a1.749 1.749 0 0 0 1.75-1.75v-13.45a5.757 5.757 0 0 0 -4.655-5.643zm-89.283 25.214h-10.245v-4.371h10.245zm30.139-92.918h8.712v7.128h-8.712zm-25.267 13.322a4.228 4.228 0 0 1 3.956-2.694h51.334a4.225 4.225 0 0 1 3.955 2.694l21.364 54.275h-101.972zm74.363 79.6h-10.24v-4.371h10.24z"/><path d="m40.047 27.025a1.75 1.75 0 0 0 0-3.5h-4.5a1.75 1.75 0 0 0 0 3.5z"/><path d="m64 86.479a20.342 20.342 0 1 0 -20.343-20.341 20.364 20.364 0 0 0 20.343 20.341zm0-37.179a16.842 16.842 0 1 1 -16.843 16.838 16.862 16.862 0 0 1 16.843-16.838z"/><path d="m64 71.522a5.39 5.39 0 0 0 5.384-5.384 5.314 5.314 0 0 0 -.562-2.348l4.443-4.442a1.75 1.75 0 0 0 -2.475-2.475l-4.443 4.443a5.31 5.31 0 0 0 -2.347-.562 5.384 5.384 0 0 0 0 10.768zm0-7.268a1.884 1.884 0 1 1 -1.884 1.884 1.886 1.886 0 0 1 1.884-1.884z"/></g></g></svg>