<svg enable-background="new 0 0 32 32" viewBox="0 0 32 32" xmlns="http://www.w3.org/2000/svg"><g id="Grid" display="none"/><g id="bow_tie"/><g id="balloon_1_"><path d="m16.001 20.775-1.801 2.609c-.221.32-.031.764.354.81.43.052.915.087 1.446.087.406 0 .888-.02 1.426-.084.389-.046.597-.491.375-.813z" fill="#ffd731"/><path d="m17.43 24.2c-.54.06-1.02.08-1.43.08-.23 0-.44-.01-.65-.02.27 0 .55-.03.86-.06.39-.05.6-.49.37-.82l-1.19-1.72.61-.88 1.8 2.6c.22.33.02.77-.37.82z" fill="#ffc933"/><path d="m18.047 19.389c6.856-3.973 8.892-15.301.061-17.169-1.385-.293-2.829-.293-4.214 0-8.832 1.868-6.796 13.196.061 17.169 1.251.726 2.839.726 4.092 0z" fill="#ffd731"/><path d="m18.05 19.39c-.94.53-2.05.67-3.08.42.37-.13.72-.32 1.04-.55 6.27-4.6 7.25-15.64-.93-17.21 1.01-.1 2.03-.04 3.03.17 8.83 1.87 6.79 13.2-.06 17.17z" fill="#ffc933"/><path d="m17.16 21.89h-2.32c-.568 0-1.028-.46-1.028-1.028 0-.568.46-1.028 1.028-1.028h2.32c.568 0 1.028.46 1.028 1.028-.001.568-.461 1.028-1.028 1.028z" fill="#efc48f"/><path d="m18.19 20.86c0 .57-.46 1.03-1.03 1.03h-1.46c.57 0 1.03-.46 1.03-1.03s-.46-1.03-1.03-1.03h1.46c.57 0 1.03.46 1.03 1.03z" fill="#eab478"/><path d="m24.301 7.892c-.511-3.2-2.678-5.362-6.103-6.087-1.438-.3-2.957-.3-4.395 0-3.426.724-5.593 2.886-6.104 6.087-.697 4.366 1.899 9.467 6.038 11.866.034.02.073.033.108.052-.28.265-.458.638-.458 1.053 0 .669.456 1.227 1.071 1.396l-.609.88c-.193.281-.223.633-.081.943.138.299.413.498.735.532.317.044.684.067 1.071.079l-.001 2.115c0 1.995 1.623 3.618 3.618 3.618.235 0 .425-.19.425-.425s-.19-.425-.425-.425c-1.526 0-2.768-1.242-2.768-2.768l.001-2.126c.349-.011.699-.019 1.051-.058.337-.043.616-.249.753-.55.138-.303.109-.65-.077-.928l-.612-.886c.616-.169 1.071-.727 1.071-1.396 0-.415-.177-.788-.457-1.053.035-.019.075-.032.109-.052 4.14-2.4 6.736-7.502 6.039-11.867zm-15.762.133c.452-2.828 2.383-4.742 5.439-5.389 1.323-.277 2.722-.276 4.045 0 3.055.647 4.987 2.561 5.438 5.389.645 4.037-1.773 8.765-5.625 10.997-.294.171-.634.301-1.011.387h-1.652c-.376-.086-.717-.216-1.009-.387-3.852-2.231-6.27-6.959-5.625-10.997zm6.069 15.744c-.074-.061-.089-.104-.058-.148l.903-1.306h1.094l.903 1.307c.024.037.017.074.006.099-1.144.232-2.081.155-2.848.048zm2.552-2.304h-2.32c-.333 0-.603-.271-.603-.603s.271-.603.603-.603h2.319c.333 0 .603.271.603.603s-.27.603-.602.603z"/><g fill="#ffe576"><path d="m14.691 3.942c-.048-.23-.271-.376-.504-.328-1.848.391-3.185 1.268-3.974 2.606-.119.202-.052.463.15.582.068.04.142.059.215.059.146 0 .288-.075.367-.209.663-1.125 1.813-1.867 3.417-2.206.231-.049.378-.275.329-.504z"/><path d="m10.052 7.665c-.231-.043-.452.109-.495.34l-.031.179c-.036.232.122.449.354.485.022.003.044.005.066.005.206 0 .387-.15.419-.359l.027-.155c.044-.23-.109-.452-.34-.495z"/></g></g><g id="placeholder"/><g id="mic"/><g id="speaker"/><g id="champagne"/><g id="gift"/><g id="theater"/><g id="_camera"/><g id="video_camera"/><g id="party_hat"/><g id="champagne_glass"/><g id="man"/><g id="woman"/><g id="skewer"/><g id="ticket"/><g id="cake"/><g id="lights"/><g id="photo"/><g id="invitation"/></svg>