<svg enable-background="new 0 0 512 512" viewBox="0 0 512 512" xmlns="http://www.w3.org/2000/svg"><g id="_x30_7_x2C__Bamboo_x2C__plant_x2C__nature_x2C__tree_x2C__botanical_x2C__garden"><g><path d="m68.502 346.05-7.5 4.05-7.5-4.05c-24.85 0-45-20.15-45-45h15c24.85 0 45 20.15 45 45z" fill="#7bd94c"/><path d="m68.502 346.05c0 24.85-20.15 45-45 45h-15c0-24.85 20.15-45 45-45z" fill="#b5f84d"/><path d="m451.002 166.05c28.973 0 52.5 23.499 52.5 52.5h-22.5c-28.973 0-52.5-23.5-52.5-52.5l10.9-5.55z" fill="#7bd94c"/><g fill="#b5f84d"><path d="m466.002 128.55h22.5c0 20.71-16.79 37.5-37.5 37.5h-22.5c0-20.71 16.79-37.5 37.5-37.5z"/><path d="m293.502 8.55h105c-9.88 44.46-9.88 90.541 0 135l-52.5 13.35-52.5-13.35c9.88-44.46 9.88-90.541 0-135z"/><path d="m293.502 188.55 49.3-16.05 55.7 16.05c-9.88 44.46-9.88 90.541 0 135l-58.1 22.5-46.9-22.5c9.88-44.46 9.88-90.541 0-135z"/><path d="m398.502 368.55-52.5-8.45-52.5 8.45c4.4 19.78 6.84 39.89 7.31 60.03l90.36 14.15c-.609-22.662 1.642-48.582 7.33-74.18z"/><path d="m98.502 368.55c5.921 26.646 8.219 53.874 7.18 79.23l90.5-18.64c.335-4.728.022-27.781 7.32-60.59l-58.7-8.45z"/><path d="m98.502 188.55 52.5-16.05 52.5 16.05c-9.88 44.46-9.88 90.541 0 135l-52.5 22.5-52.5-22.5c9.88-44.46 9.88-90.541 0-135z"/><path d="m98.502 8.55h105c-9.88 44.46-9.88 90.541 0 135l-52.5 9.35-52.5-9.35c9.88-44.46 9.88-90.541 0-135z"/></g><path d="m211.002 323.55c12.43 0 22.5 10.07 22.5 22.5 0 12.339-9.986 22.5-22.5 22.5-14.606 0-106.436 0-120 0-12.43 0-22.5-10.07-22.5-22.5 0-12.339 9.986-22.5 22.5-22.5h112.5z" fill="#7bd94c"/><path d="m211.002 143.55c12.43 0 22.5 10.07 22.5 22.5 0 12.339-9.986 22.5-22.5 22.5-13.564 0-105.394 0-120 0-12.43 0-22.5-10.07-22.5-22.5 0-12.339 9.986-22.5 22.5-22.5z" fill="#7bd94c"/><path d="m406.002 323.55c12.43 0 22.5 10.07 22.5 22.5 0 12.339-9.986 22.5-22.5 22.5-13.564 0-105.394 0-120 0-12.43 0-22.5-10.07-22.5-22.5 0-12.339 9.986-22.5 22.5-22.5h112.5z" fill="#7bd94c"/><path d="m406.002 143.55c12.43 0 22.5 10.07 22.5 22.5 0 12.339-9.986 22.5-22.5 22.5-13.564 0-105.394 0-120 0-12.43 0-22.5-10.07-22.5-22.5 0-12.339 9.986-22.5 22.5-22.5h7.5z" fill="#7bd94c"/><path d="m503.502 503.45h-495c58.731-48.875 132.186-74.9 207.09-74.9 83.763.01 81.182-.025 85.22.03 74.102 1.009 145.651 27.402 202.69 74.87z" fill="#9a7870"/><g><path d="m508.3 497.686c-32.408-26.969-69.361-47.384-109.705-60.473-.077-20.234 1.882-40.768 5.991-61.163h1.416c16.542 0 30-13.458 30-30s-13.458-30-30-30h-1.416c-7.831-38.867-8.148-79.56 0-120 .744-.13 11.159 1.138 20.916-7.23 8.987 21.823 30.473 37.23 55.5 37.23h22.5c4.143 0 7.5-3.357 7.5-7.5 0-23.526-13.617-43.921-33.377-53.749 11.135-8.2 18.377-21.393 18.377-36.251 0-4.143-3.357-7.5-7.5-7.5h-22.5c-16.927 0-31.694 9.397-39.375 23.245-10.015-9.5-21.286-8.106-22.023-8.245-8.316-41.347-7.924-84.729 1.219-125.873 1.039-4.68-2.524-9.127-7.321-9.127h-105c-4.794 0-8.361 4.444-7.321 9.127 9.144 41.144 9.535 84.526 1.219 125.873h-1.398c-16.542 0-30 13.458-30 30s13.458 30 30 30h1.402c1.706 8.471 3.079 17.079 4.056 25.686.467 4.117 4.2 7.068 8.298 6.606 4.116-.467 7.073-4.183 6.606-8.298-.911-8.027-2.136-16.063-3.653-23.994h86.582c-7.304 38.112-7.891 78.813-.001 120h-86.583c2.199-11.484 3.772-23.09 4.689-34.615.328-4.129-2.753-7.743-6.882-8.071-4.131-.32-7.743 2.753-8.071 6.882-.948 11.925-2.64 23.941-5.028 35.805h-1.415c-16.542 0-30 13.458-30 30s13.458 30 30 30h1.409c2.989 14.825 4.879 29.906 5.619 45-79.091.08-77.716-.175-89.063.221.735-15.179 2.625-30.333 5.626-45.221h1.409c16.542 0 30-13.458 30-30s-13.458-30-30-30h-1.398c-7.921-39.386-7.921-80.614 0-120h1.398c16.542 0 30-13.458 30-30s-13.458-30-30-30h-1.398c-8.316-41.347-7.924-84.729 1.219-125.873 1.039-4.68-2.524-9.127-7.321-9.127h-105c-4.794 0-8.361 4.444-7.321 9.127 9.144 41.144 9.535 84.526 1.219 125.873h-1.398c-16.542 0-30 13.458-30 30s13.458 30 30 30h1.398c7.921 39.386 7.921 80.614 0 120-.747.135-11.522-1.191-21.4 7.665-8.408-17.808-26.534-30.165-47.499-30.165h-15c-4.143 0-7.5 3.357-7.5 7.5 0 19.077 10.231 35.806 25.491 45-15.26 9.194-25.491 25.923-25.491 45 0 4.143 3.357 7.5 7.5 7.5h15c20.964 0 39.09-12.356 47.499-30.165 9.874 8.852 20.679 7.532 21.417 7.665 4.429 21.983 6.407 44.399 5.922 66.465-34.447 13.027-66.267 31.562-94.636 55.171-5.381 4.478-2.201 13.265 4.798 13.265h225c4.143 0 7.5-3.357 7.5-7.5s-3.357-7.5-7.5-7.5h-203.115c52.774-38.162 117.419-59.9 185.206-59.9h80.82c66.304 0 131.258 20.889 185.205 59.9h-188.115c-4.143 0-7.5 3.357-7.5 7.5s3.357 7.5 7.5 7.5h210c3.158 0 5.979-1.979 7.053-4.949s.173-6.297-2.255-8.317zm-12.923-286.636h-14.375c-22.258 0-40.794-16.244-44.375-37.5h14.375c22.258 0 40.794 16.244 44.375 37.5zm-29.375-75h14.051c-3.339 12.925-15.098 22.5-29.051 22.5h-14.051c3.339-12.925 15.098-22.5 29.051-22.5zm-163.293-120h86.586c-7.536 39.441-7.536 80.559 0 120h-86.586c7.536-39.442 7.536-80.559 0-120zm-16.707 165c-8.271 0-15-6.729-15-15s6.729-15 15-15h120c8.271 0 15 6.729 15 15s-6.729 15-15 15h-7.5c-12.134 0-98.346 0-112.5 0zm-178.293-165h86.586c-7.536 39.441-7.536 80.559 0 120h-86.586c7.536-39.442 7.536-80.559 0-120zm-31.707 150c0-8.271 6.729-15 15-15h120c8.271 0 15 6.729 15 15s-6.729 15-15 15c-14.606 0-106.436 0-120 0-8.271 0-15-6.729-15-15zm31.707 30h86.586c-7.536 39.441-7.536 80.559 0 120h-86.586c7.536-39.442 7.536-80.559 0-120zm-90.954 112.5h6.747c18.109 0 33.262 12.904 36.747 30h-6.747c-18.109 0-33.261-12.904-36.747-30zm6.747 75h-6.747c3.485-17.096 18.638-30 36.747-30h6.747c-3.485 17.096-18.637 30-36.747 30zm52.5-37.5c0-8.271 6.729-15 15-15h120c8.271 0 15 6.729 15 15s-6.729 15-15 15c-14.606 0-106.436 0-120 0-8.271 0-15-6.729-15-15zm118.289 30c-2.911 15.19-4.714 30.631-5.384 46.085-25.665 2.065-50.937 7.116-75.501 15.091.076-20.499-1.829-40.995-5.696-61.177h86.581zm76.711-30c0-8.271 6.729-15 15-15h120c8.271 0 15 6.729 15 15s-6.729 15-15 15c-14.606 0-106.436 0-120 0-8.271 0-15-6.729-15-15zm118.291 30c-3.578 18.675-5.464 37.694-5.662 56.702-24.67-6.734-50.018-10.589-75.575-11.487-.698-15.153-2.485-30.3-5.343-45.214h86.58z"/><circle cx="300.302" cy="250.85" r="7.5"/><circle cx="263.502" cy="503.45" r="7.5"/></g></g></g><g id="Layer_1"/></svg>