<svg height="512" viewBox="0 0 64 64" width="512" xmlns="http://www.w3.org/2000/svg"><g id="Banana"><path d="m15.479 36.44a39.574 39.574 0 0 1 -14.479-12.57l3.3-3.69a72.085 72.085 0 0 0 20.95 3.549c13.106 0 20.355-5.106 24.129-9.389l1.61.14c-1.632 5.78-8.36 19.489-35.51 21.96z" fill="#e2af30"/><path d="m15.479 36.44c27.15-2.471 33.878-16.18 35.51-21.96l-1.61-.14a24.4 24.4 0 0 1 -2.454 2.412c-3.045 6.37-11.67 15.948-35.968 16.978a38.729 38.729 0 0 0 4.522 2.71z" fill="#d39a29"/><path d="m3.887 27.516a30.492 30.492 0 0 1 -2.887-3.646l3.3-3.69c1.636.5 3.287.965 4.928 1.374z" fill="#443e30"/><path d="m24.99 48.66a39.632 39.632 0 0 1 -17.72-7.33l1.96-4.53c32.232-.781 39.942-15.869 41.76-22.32l.48.04c.4 2.126 3.06 21.145-26.47 34.14z" fill="#efc43a"/><path d="m11.168 43.874a30.233 30.233 0 0 1 -3.9-2.542l1.962-4.532c1.72-.042 3.4-.129 5.1-.264z" fill="#5b5443"/><path d="m31.131 57.816a42.073 42.073 0 0 1 -7.86-.746 30.857 30.857 0 0 1 -4.505-1.17l.414-4.922c1.539-.552 3.1-1.161 4.76-1.86 30.678-13.018 27.942-32.428 27.53-34.598l6.57.57.679 3.527.124.176a22.7 22.7 0 0 1 4.157 13.127 21.834 21.834 0 0 1 -6.86 16.06 35.292 35.292 0 0 1 -25.009 9.836z" fill="#ffdf57"/><path d="m45.179 13.977 2.147-7.79 15.674 4.319-1.349 4.892h.001z" fill="#706955"/><path d="m23.267 57.07a30.945 30.945 0 0 1 -4.5-1.168l.414-4.922c1.538-.552 3.094-1.161 4.758-1.859z" fill="#706955"/><path d="m24.99 48.66h.01c29.53-12.995 26.871-32.014 26.47-34.14l-.48-.04a23.032 23.032 0 0 1 -2.43 5.556c-.84 6.442-5.45 17.693-25.782 26.318-1.015.426-1.981.807-2.933 1.171a38.509 38.509 0 0 0 5.145 1.135z" fill="#e2af30"/><path d="m59.654 18.216-.384-2.016 2.292.2a.853.853 0 0 0 .087 0 1 1 0 0 0 .963-.734l1.349-4.892a1 1 0 0 0 -.7-1.23l-15.672-4.323a1 1 0 0 0 -1.229.7l-2.147 7.79a1 1 0 0 0 .878 1.262l2.111.182c-5.718 5.414-18.095 11.63-42.61 4.077a1.006 1.006 0 0 0 -1.04.29l-3.297 3.678a1 1 0 0 0 -.1 1.205 39.884 39.884 0 0 0 9.759 9.815 1 1 0 1 0 1.167-1.62 40.9 40.9 0 0 1 -5.837-5.1l4.316-4.823c23.186 5.639 34.8-1.548 40.006-7.059a22.552 22.552 0 0 1 -2.321 4.591c-8.091 12.352-25.145 15.297-38.037 15.591a1 1 0 0 0 -.894.6l-1.963 4.534a1 1 0 0 0 .289 1.175 39.787 39.787 0 0 0 12.36 6.204 1 1 0 0 0 .588-1.913 40.611 40.611 0 0 1 -7.137-2.977l2.558-5.929c12.336-1.05 26.528-4.917 33.91-16.188a25.142 25.142 0 0 0 1.839-3.335c-.071 9.817-8.144 22.5-27.219 30.219-1.438.62-3.02 1.242-4.7 1.85a1 1 0 0 0 -.657.857l-.411 4.926a1 1 0 0 0 .649 1.021 31.756 31.756 0 0 0 4.657 1.211 43.164 43.164 0 0 0 8.053.765 36.58 36.58 0 0 0 25.692-10.12 22.821 22.821 0 0 0 7.178-16.783 23.653 23.653 0 0 0 -4.346-13.701zm-55.754 7.784c-.732-.857-1.291-1.581-1.63-2.048l2.345-2.619c.939.283 1.857.542 2.762.786zm6.8 16.437c-.979-.591-1.726-1.097-2.2-1.437l1.4-3.218c.935-.027 1.894-.073 2.864-.131zm37.322-35.023 13.745 3.786-.862 3.127-14.445-1.245zm-27.904 44.286c.936-.345 1.824-.693 2.684-1.042l-.44 5.207c-1.11-.246-1.979-.49-2.536-.662zm35.332-4.451c-11 10.384-23.878 10.218-31.113 9l.545-6.454c20.992-8.706 28.986-23.468 27.752-34.172l4.566.394.53 2.788a.992.992 0 0 0 .17.4 21.668 21.668 0 0 1 4.1 12.712 20.841 20.841 0 0 1 -6.55 15.332z" fill="#352d34"/></g></svg>