<svg id="a" height="512" viewBox="0 0 512 512" width="512" xmlns="http://www.w3.org/2000/svg" data-name="Layer 1"><path d="m443.6213908 399.9936381c-1.1306847-7.3751635-5.3946419-15.2380651-17.2038371-19.3222777-26.0594112-9.015769-142.9981463-67.8176429-177.7456666-117.9339241-26.1013351-37.6468733-54.4664803-97.1656048-74.3282007-118.7861609-3.8511086-4.1929355-7.3836449-6.9602645-10.5180551-7.8663269-1.3684722-6.8369785-2.7560784-13.9349058-3.9219477-19.9593292-1.8498479-11.0879271 6.0067785-17.4149547 16.0906175-19.257676 8.3337341-2.8805075 18.8783439-6.8003597 23.6085932-15.0412018 3.9961095-8.3114501.4748206-14.6094116-5.2203786-21.093556-4.3819511-5.5747159-11.9936436-7.4369379-18.4672649-4.5425248-16.9698514 7.6609225-53.5529155 21.3215876-92.7661205 22.0712006-9.0132813.1922322-15.925359 8.0797863-14.9917548 17.0487201.822761 7.8949406 7.4786667 13.861088 15.3760537 13.861088 4.6695013-.0930618 10.0142664-.3679808 16.4721934-.9655842 8.53049-.7981209 16.0953241 5.461154 16.8663566 13.9940548 0 0 2.4764849 27.3783453 2.4764849 27.3783453-16.7670043 13.9235648-24.6384768 70.9050199-16.3485402 113.1584806 12.1332429 117.7133777 192.9392281 243.0665671 312.8109938 176.1331699 14.1076116-8.5130754 30.7973231-20.4483845 27.8104731-38.8764977z" fill="#eac924"/><g><path d="m154.4030918 137.9875746c3.2220169-.6537445 5.9837069-3.1023373 9.422489-1.9026261-1.3684218-6.8369785-2.7560745-13.9349058-3.9218973-19.9593292-1.8498181-11.0879147 6.0067542-17.4149447 16.0905942-19.257676 8.3337058-2.8805121 18.8783724-6.8003364 23.6085885-15.0412018 3.9961186-8.3114626.4748696-14.6094366-5.2203971-21.093556-4.3819511-5.5747159-11.993597-7.4369379-18.4672183-4.5425248-16.9698751 7.6609227-53.5529423 21.3215887-92.7661456 22.0712006-9.0132562.1922322-15.9253339 8.0797863-14.9917297 17.0487201.8227377 7.8949406 7.4786434 13.861088 15.3760304 13.861088 4.6695271-.0930618 10.0142649-.3679808 16.4722167-.9655842 8.53049-.7981209 16.0953241 5.461154 16.8663333 13.9940548l2.4765082 27.3783453c6.0696566-5.8102959 27.2316872-9.0718299 35.0546277-11.5909107z" fill="#88a538"/><path d="m159.1548336 136.2903941c1.4933039-.6578948 3.005955-.6792996 4.6707472-.2054456-1.3684489-6.8369086-2.7560745-13.9349058-3.9218973-19.9593292-1.5494283-8.0131702 3.3870677-15.8834816 11.2943343-17.8984422 10.060174-2.910833 22.5554733-6.7631826 28.4049459-16.4002858 4.0036946-8.3251748.4643051-14.6133133-5.2204839-21.0937103-4.3819618-5.5747115-11.9936077-7.4369335-18.4672291-4.5425204-17.0239757 7.6116228-52.2494468 20.9726697-91.679805 22.0417697-2.2751732 9.5407977 5.6345518 19.2215573 15.4525578 18.8023021 4.4436931-.1008117 9.8506611-.3718032 16.1173456-.958035 8.5304772-.7981085 16.0953346 5.4611665 16.8663439 13.9941371l2.9608009 32.7594259c3.6882115-1.0896078 20.3804418-4.8594468 23.5223396-6.5398665z" fill="#9bbc50"/><path d="m443.6214141 399.9936381c-1.1306847-7.3751635-5.3946885-15.2380651-17.2038604-19.3222777-26.0594345-9.015769-142.998123-67.8176429-177.7456899-117.9339241-26.1013351-37.6468733-54.466457-97.1656048-74.3282007-118.7861609-3.851062-4.1929355-7.3836216-6.9602645-10.5180823-7.8663269-3.4383102-1.1987402-6.200836 1.2481891-9.4225168 1.9026243.0000278.0000018-18.7705701 4.8426878-18.7705701 4.8426878-11.5308607 2.1926724-21.1122741 7.699316-25.2266081 19.2882851-33.3574761 94.3363826 11.4634362 211.4905209 124.2355 267.000288 62.326163 31.632472 125.2996583 39.4919364 181.1668986 9.7552383 14.1219208-8.4978443 30.7915105-20.4661217 27.8131298-38.8804338z" fill="#eac924"/><path d="m435.1993333 424.2351459c-5.7001656 5.5449338-12.2057562 10.4395346-19.3912722 14.6370138-114.9626275 23.7602908-259.0478983-87.4898673-269.7467205-191.6322581-8.2226114-43.8121838-.4730767-94.1908368 14.2783527-111.3387287 3.9092914-.8547767 8.6487069 2.2194508 14.0039698 8.0501258 19.8617438 21.6205561 48.2268656 81.1392643 74.3282007 118.7861842 34.7475437 50.1162346 151.6862555 108.9181318 177.7456899 117.9338542 21.6918373 7.6513169 21.7976777 30.1962425 8.7817796 43.5638088z" fill="#ffe239"/><path d="m172.1208144 203.25587c-1.4308809 17.5442189 65.7919682 184.1758684 222.2115027 199.7839546 16.71347-1.2234598-71.5752869-2.4466265-140.3698507-90.5145125-68.7945449-88.0679093-83.4725449-151.6725078-81.841652-109.2694421z" fill="#ffe98f"/><path d="m122.545628 231.7578164c7.6314984 35.6205884 29.5372592 104.7248468 89.6234453 154.8130502 2.2665838 1.8894377-.2297071 5.414541-2.766169 3.9066352-33.6207494-19.9873138-90.3879719-67.1484593-91.607224-158.1762111-.0388662-2.9012403 4.1420924-3.3805901 4.7499476-.5434743z" fill="#ffe239"/></g></svg>