<svg clip-rule="evenodd" fill-rule="evenodd" height="512" stroke-linejoin="round" stroke-miterlimit="2" viewBox="0 0 512 512" width="512" xmlns="http://www.w3.org/2000/svg"><g><path d="m355.95 78.54s-6.145 20.366 5.94 36.397c12.085 16.032 68.801 45.323 69.997 123.865 1.13 74.264-47.497 177.547-174.757 212.05-104.842 28.425-170.843-32.602-176.592-45.696 0 0-4.636-21.714 15.415-34.166 20.052-12.452 245.285 16.855 241.794-230.243 0 0-1.462-29.342-23.393-58.496 0 0 3.844-12.587 9.658-24.325s26.032 3.35 31.938 20.614z" fill="#ffe268"/><path d="m376.649 129.031c21.069 18.568 54.325 49.824 55.238 109.771 1.13 74.264-49.914 169.625-174.757 212.05-74.967 25.476-121.505 8.599-147.959-11.806 27.694 11.686 67.488 15.898 122.706-2.866 124.842-42.425 175.887-137.786 174.756-212.05-.793-52.142-14.723-79.076-30.144-94.874-16.04-16.432-6.375-5.984.16-.225z" fill="#f2d45a"/><path d="m327.605 104.466c-3.251-7.077-7.562-14.653-13.251-22.215 0 0 3.844-12.587 9.658-24.325s26.032 3.35 31.938 20.614c0 0-3.035 10.059-.623 21.597-9.241 5.089-18.481 6.231-27.722 4.329z" fill="#f0b46b"/><path d="m323.089 57.48c6.883-8.436 25.275 5.947 30.861 22.278 0 0-3.035 10.059-.623 21.596-8.681 4.78-17.406 2.375-13.094 0-1.645-7.869-.756-15.05-.082-18.833.412-2.105.171-4.287-.691-6.252-3.682-8.037-10.174-15.197-16.371-18.789z" fill="#ce9b5c"/><path d="m344.489 238.898s-5.876 46.587-45.037 86.631c-19.588 20.03-47.139 38.817-87.036 49.305-3.016.699-4.896 3.715-4.197 6.731.699 3.015 3.715 4.896 6.731 4.197 43.624-8.783 74.826-27.024 96.703-47.874 45.505-43.366 51.339-96.809 51.339-96.809.602-5.106-3.054-9.74-8.161-10.342-5.106-.602-9.74 3.054-10.342 8.161z" fill="#ffed9e"/><path d="m363.928 80.948c.504-1.67.471-3.455-.093-5.105-3.537-10.339-11.372-20.017-19.181-25.362-11.595-7.938-22.939-6.692-28.109 3.746-6.116 12.348-10.161 25.59-10.161 25.59-.778 2.548-.291 5.314 1.311 7.444 19.427 25.826 21.581 51.757 21.721 53.775 1.04 76.065-20.061 125.024-50.381 156.674-45.642 47.644-111.435 56.054-150.729 59.982-12.214 1.221-22.037 2.029-28.249 3.266-3.863.769-6.703 1.837-8.5 2.952-25.178 15.636-19.169 42.986-19.169 42.986.118.553.292 1.093.52 1.611 1.974 4.495 9.824 14.249 23.547 24.372 29.268 21.591 86.092 46.828 162.856 26.016 131.992-35.786 182.08-143.194 180.908-220.22-.884-58.111-30.405-90.77-52.491-110.914-8.458-7.716-15.759-13.297-19.184-17.84-9.614-12.754-4.616-28.973-4.616-28.973zm-13.694 30.463c-3.344 1.083-6.689 1.764-10.032 2.072 5.365 15.667 5.868 26.849 5.868 26.849.005.099.008.198.01.297 1.012 71.635-16.818 120.756-43.076 154.749-39.545 51.192-98.6 68.327-144.052 75.326-18.881 2.907-35.311 4.068-46.745 5.339-5.808.646-10.01.879-11.857 2.026-12.887 8.003-12.215 21.082-11.79 24.509 2.025 3.556 8.259 9.859 17.789 16.889 26.695 19.693 78.585 42.324 148.601 23.342 122.528-33.22 169.693-132.377 168.604-203.881-.789-51.847-27.352-80.88-47.057-98.854-9.452-8.621-17.435-15.044-21.262-20.121-2.088-2.77-3.727-5.647-5.001-8.542zm-3.98-16.996c-.398-6.498.377-12.029 1.012-15.255l-.001-.001c-2.622-6.127-7.322-11.706-12.026-14.925-1.214-.832-3.12-1.571-4.095-1.92-3.412 6.998-6.072 14.211-7.543 18.491 3.809 5.44 6.975 10.85 9.607 16.07 4.341.366 8.681-.165 13.023-1.729-.022-.285-.013-.528.023-.731z" fill="#8d4ba0"/></g></svg>