<svg id="Layer_1" enable-background="new 0 0 511.767 511.767" viewBox="0 0 511.767 511.767" xmlns="http://www.w3.org/2000/svg"><g><g><path d="m445.624 363.662c-15.96 4.22-29.2 9.43-40.42 9.48-42.562 37.719-103.153 61.533-165.11 57.13-52.835-19.574-78.202-69.773-66.049-106.91 11.068-33.819 49.828-46.345 54.859-47.891 86.632-1.208 170.943 3.596 258.18 15.52 8.922 31.476-9.676 64.252-41.46 72.671z" fill="#ffd9a0"/><path d="m240.094 388.482v41.79c-47.027-2.836-96.022-23.39-133.66-57.14-13.57-2.79-27.09-5.96-40.56-9.54-31.887-8.454-50.022-41.505-41.19-72.6 60.76-8.3 129.23-14.33 204.22-15.52-31.837 33.281-26.241 86.785 11.19 113.01z" fill="#fdc072"/><path d="m65.435 250.647c-17.806-39.4 10.841-85.015 54.919-85.015 12.646 0 24.382 3.897 34.073 10.556 29.959 35.096 19.576 83.448-7.479 99.174-22.661 13.172-59.88 5.119-81.513-24.715z" fill="#ff5f7f"/><path d="m446.332 250.647c17.806-39.4-10.841-85.015-54.919-85.015-12.646 0-24.382 3.897-34.073 10.556-27.643 33.167-17.66 79.514 9.995 95.561 22.83 13.248 58.203 6.138 78.997-21.102z" fill="#ff899f"/><path d="m256.784 60.229c4.797-9.477 11.074-18.154 18.574-25.673 6.628-6.646 17.633-5.74 22.995 1.963 4.118 5.917 3.5 13.983-1.608 19.071-4.571 4.553-8.5 9.716-11.67 15.328-3.095 7.115-10.339 11.069-16.838 9.863-8.106-1.503-14.192-10.876-11.453-20.552z" fill="#b1ecd0"/><path d="m447.591 416.068c-14.034 39.92-51.688 65.596-92.894 65.596h-197.629c-41.174 0-78.852-25.679-92.891-65.596 124.713-14.991 253.119-15.737 383.414 0z" fill="#c2c2f0"/><path d="m368.814 227.442h-164.34c-1.677-3.849-14.808-35.442 2.474-67.047 13.301-24.323 39.541-39.375 68.095-39.253h23.2c42.331 17.13 71.221 58.74 70.571 106.3z" fill="#60daa8"/><path d="m275.043 121.142c-42.31 17.13-71.22 58.73-70.57 106.3h-61.52c-.65-47.57 28.25-89.17 70.57-106.3z" fill="#00ce8e"/><path d="m257.543 256.807c-18.886 6.837-33.567 20.699-41.79 37.485-23.91 5.25-41.76 14.01-51.46 19.36-4.99 1.48-12.66 3.85-21.72 2.61-23.23-3.18-35.34-26.2-58.21-26.51-13.4-.19-32.47 15.9-59.68 1.24 8.22-28.96 38.07-47.98 69.24-41.01 11.44 2.55 22.91 4.825 34.41 6.825z" fill="#ffa93f"/><path d="m487.084 290.992c-27.174 14.655-46.293-1.429-59.68-1.24-29.05.4-40.74 37.44-79.93 23.9-40.215-22.253-86.835-29.246-131.72-19.36 8.217-16.772 22.883-30.641 41.79-37.485h125.89c11.66-2.03 23.25-4.345 34.76-6.925 31.03-6.95 60.71 12.22 68.89 41.11z" fill="#fdc072"/><circle cx="255.884" cy="105.397" fill="#ff899f" r="45.176"/><path d="m361.314 306.762c-17.117 11.946-39.602 12.581-57.27 1.94-6.401-3.855-14.453-3.964-21.02 0-16.681 10.034-37.598 10.031-54.28 0-5.12-3.09-11.23-3.74-16.77-1.94-24.474.778-44.796-18.608-45.477-41.851-.713-24.346 20.342-45.483 45.997-44.399 5.28 1.63 11.04 1.02 15.88-1.95 16.817-10.336 38.186-10.308 55.02 0 6.417 3.929 14.25 3.667 20.45-.11 16.377-9.975 38.493-11.092 56.95 2.06 31.56 22.477 29.726 65.847.52 86.25z" fill="#b1ecd0"/><path d="m211.974 306.762c-1.47.47-2.89 1.12-4.25 1.94-35.466 21.36-81.518-5.09-79.79-47.39 1.05-25.83 23.69-48.9 49.49-50.41 19.628-1.157 29.229 7.799 35.07 9.61-31.561 22.478-29.727 65.847-.52 86.25z" fill="#60daa8"/><path d="m483.264 413.882c-89.524 5.971-183.039 8.358-260.23 7.38-12.041-.496-21.659-10.567-21.602-22.609.057-12.029 9.75-22.002 21.782-22.401 56.988.935 165.211-1.147 257.05-7.28 12.39-.82 23.12 8.56 23.95 20.96.829 12.399-8.55 23.12-20.95 23.95z" fill="#efedff"/><path d="m223.034 421.262c-65.01-.62-129.96-3.08-194.53-7.38-12.4-.83-21.78-11.55-20.95-23.95s11.56-21.77 23.95-20.96c63.63 4.25 127.64 6.68 191.71 7.28-10.12 2.87-17.34 11.66-17.81 21.39-.5 10.5 6.93 20.439 17.63 23.62z" fill="#d9d9f9"/></g><g><path d="m511.7 389.427c-1.102-16.499-15.431-29.022-31.931-27.935-4.323.289-8.648.567-12.974.838 25.45-16.627 35.339-47.786 27.456-73.541-5.651-19.794-20.14-35.295-38.158-42.806 2.017-6.477 3.056-13.211 3.056-20.118 0-50.746-54.048-83.449-98.899-60.147-12.219-21.143-30.535-38.204-52.977-48.791 3.795-16.92-.917-34.426-12.629-47.159 2.191-3.172 4.661-6.144 7.395-8.866 7.674-7.644 8.713-19.7 2.471-28.669-8.03-11.54-24.531-12.93-34.461-2.977-7.012 7.029-12.994 14.955-17.832 23.604-31.734 2.195-54.855 32.268-47.722 64.066-22.44 10.586-40.757 27.646-52.977 48.791-52.98-27.526-113.819 22.857-95.814 80.36-17.932 7.461-32.463 22.812-38.164 42.648-.089.282-.164.566-.219.852-7.632 27.965 3.793 57.201 27.546 72.744-4.294-.27-8.586-.546-12.877-.832-16.508-1.061-30.821 11.451-31.922 27.938-1.101 16.504 11.431 30.828 27.937 31.931 10.252.684 20.572 1.317 30.899 1.912 16.104 39.612 54.923 65.892 98.166 65.892h197.629c43.249 0 82.067-26.279 98.167-65.889 10.314-.593 20.615-1.228 30.899-1.915 16.504-1.101 29.036-15.425 27.935-31.931zm-33.966-102.39c-21.176 8.006-36.199-5.086-50.432-4.79-24.44.338-37.018 21.281-55.755 25.913 13.273-12.044 19.968-28.328 19.816-45.178 9.518-1.745 19.063-3.676 28.463-5.78 24.241-5.43 48.446 7.55 57.908 29.835zm-86.321-113.906c35.618 0 61.068 34.782 50.263 68.722-8.222-1.365-16.732-1.167-25.125.71-9.028 2.021-18.192 3.881-27.335 5.563-2.479-8.619-6.986-16.636-12.912-23.443-.152-15.806-3.354-31.208-9.388-45.527 7.517-3.954 15.875-6.025 24.497-6.025zm-110.745-133.279c3.294-3.302 8.808-2.958 11.529.951 2.08 2.988 1.766 6.972-.745 9.473-3.097 3.084-5.923 6.423-8.459 9.976-4.343-2.618-9.092-4.627-14.129-5.909 3.436-5.205 7.381-10.056 11.804-14.491zm-24.785 27.868c20.775 0 37.676 16.901 37.676 37.676s-16.901 37.677-37.676 37.677-37.676-16.901-37.676-37.677c0-20.775 16.901-37.676 37.676-37.676zm-46.024 63.259c20.143 36.093 71.905 36.093 92.048 0 31.792 15.383 53.638 45.406 58.418 80.398-19.634-11.539-42.6-10.153-60.385.667-1.969 1.198-4.197 1.837-6.443 1.847-4.142.019-7.485 3.391-7.467 7.533.018 4.131 3.373 7.467 7.5 7.467 4.836 0 9.817-1.36 14.208-4.032 17.18-10.453 39.376-8.689 55.081 7.076.365.486.785.927 1.255 1.312 23.452 25.348 11.261 63.601-19.016 73.312-10.701 3.69-25.096 2.972-37.148-4.285-8.87-5.343-19.892-5.343-28.762 0-14.271 8.595-32.261 8.595-46.532 0-8.87-5.343-19.892-5.343-28.762 0-7.002 4.217-15.047 6.446-23.266 6.446-38.422 0-60.449-45.695-32.896-75.474.47-.384.889-.825 1.253-1.31 15.652-15.714 37.838-17.568 55.081-7.077 8.802 5.355 19.632 5.391 28.266.092 8.983-5.513 19.621-7.678 30.055-6.185 4.103.591 7.901-2.259 8.489-6.359.587-4.101-2.26-7.9-6.36-8.488-13.641-1.958-27.856.776-40.031 8.249-3.813 2.341-8.649 2.293-12.622-.123-17.764-10.808-40.669-12.252-60.384-.666 4.782-34.993 26.629-65.017 58.42-80.4zm-65.008 48.178c-6.033 14.319-9.235 29.722-9.388 45.527-5.932 6.812-10.441 14.839-12.919 23.466-9.032-1.665-18.078-3.501-26.981-5.492-8.507-1.901-17.126-2.101-25.445-.712-14.455-45.113 33.486-84.486 74.733-62.789zm-52.561 78.14c9.275 2.074 18.702 3.981 28.112 5.708-.145 16.771 6.496 33.064 19.816 45.154-18.74-4.633-31.312-25.575-55.754-25.913-14.273-.284-29.257 12.792-50.417 4.796 9.383-22.016 33.486-35.283 58.243-29.745zm-24.49 99.048c-23.954-6.357-40.205-29.361-37.537-54.708 25.391 8.88 43.992-4.447 53.994-4.393 24.438.337 39.013 36.846 80.115 24.268 15.95 4.423 33.043 2.149 47.223-6.39 4.096-2.469 9.186-2.469 13.283 0 19.031 11.462 42.98 11.462 62.011 0 4.096-2.469 9.186-2.469 13.283 0 14.18 8.54 31.271 10.814 47.222 6.39 41.102 12.583 55.673-23.931 80.115-24.268 9.772-.104 28.679 13.25 53.995 4.394 2.665 25.438-13.739 48.398-37.804 54.769-12.958 3.429-26.213 6.54-39.407 9.256-98.78 4.347-198.167 4.345-296.952-.006-13.212-2.726-26.512-5.854-39.541-9.312zm414.965 50.048c-117.266 7.825-236.572 9.56-354.602 5.154-4.154-.117-7.62 3.077-7.774 7.215-.155 4.14 3.076 7.62 7.215 7.775 100.517 3.752 203.866 3.149 308.382-2.337-15.245 30.29-46.604 49.963-81.288 49.963h-197.63c-34.678 0-66.035-19.674-81.284-49.963 7.229.38 14.449.745 21.636 1.077 4.135.178 7.646-3.01 7.838-7.146.191-4.138-3.009-7.646-7.146-7.838-22.937-1.059-46.188-2.37-69.108-3.899-8.253-.551-14.52-7.713-13.969-15.966.55-8.243 7.725-14.504 15.965-13.968 144.953 9.674 296.51 10.228 449.766 0 8.244-.557 15.417 5.718 15.968 13.967.55 8.252-5.717 15.415-13.969 15.966z"/><path d="m194.361 242.096c-11.726 0-21.265 9.54-21.265 21.266 0 4.143 3.358 7.5 7.5 7.5s7.5-3.357 7.5-7.5c0-3.455 2.811-6.266 6.265-6.266s6.265 2.811 6.265 6.266c0 4.143 3.358 7.5 7.5 7.5 14.1 0 7.483-28.766-13.765-28.766z"/><path d="m303.641 270.862c4.142 0 7.5-3.357 7.5-7.5 0-3.455 2.811-6.266 6.265-6.266s6.265 2.811 6.265 6.266c0 4.143 3.358 7.5 7.5 7.5 14.1 0 7.483-28.766-13.765-28.766-21.227 0-27.932 28.766-13.765 28.766z"/><path d="m264.831 274.523c-4.74 5.436-13.155 5.436-17.895 0-2.722-3.124-7.459-3.449-10.582-.726-3.123 2.721-3.448 7.459-.726 10.581 18.702 21.46 52.054.111 39.784-10.581-3.122-2.722-7.86-2.397-10.581.726z"/></g></g><g/><g/><g/><g/><g/><g/><g/><g/><g/><g/><g/><g/><g/><g/><g/></svg>