<svg id="Banana_Split" enable-background="new 0 0 64 64" viewBox="0 0 64 64" xmlns="http://www.w3.org/2000/svg"><g><g><path d="m33.85624 8.51106c-.06511 0-.13194-.00694-.19791-.02257-.47915-.1085-.77862-.58505-.66925-1.06334l.4019-1.76558c.35676-1.5694 1.85151-4.4721 4.33842-5.58145.4479-.20138.97567 0 1.17532.44964.19965.44877-.00174.97393-.44964 1.17358-1.77686.79165-3.03811 3.06589-3.3315 4.35231l-.4019 1.76558c-.09376.41232-.46007.69183-.86544.69183z" fill="#101016"/><path d="m34.25696 6.58791c-1.63379-2.69745-4.88302-1.3639-5.49977 1.34446-.62092 2.72669 1.08638 5.441 3.81318 6.06195s5.44102-1.0865 6.06195-3.81318c.61675-2.70837-1.7347-5.31731-4.37536-3.59323z" fill="#ea5385"/><path d="m33.69478 15.01001c-.43575 0-.87845-.04774-1.32114-.1493-1.55117-.35242-2.87145-1.28816-3.71778-2.63448-.84633-1.34545-1.11803-2.94089-.76474-4.49206.40971-1.80377 1.80116-3.19609 3.46084-3.46518 1.19094-.1901 2.32719.24218 3.16485 1.17879 1.15969-.48089 2.37233-.38193 3.36189.30728 1.38017.96091 2.0312 2.8185 1.61975 4.62314-.62846 2.75773-3.08846 4.63181-5.80367 4.63181zm-1.78207-9.00843c-.09114 0-.18316.00781-.2769.02257-.93661.15191-1.76384 1.01733-2.0121 2.10498-.24739 1.08764-.05729 2.20654.53731 3.15096.59373.94355 1.51906 1.59978 2.6067 1.84804 2.2456.50433 4.48599-.90015 4.99813-3.14488.24652-1.08764-.12326-2.2265-.90275-2.76902-.61457-.42534-1.34719-.38714-2.11974.11718-.20312.13107-.45138.17621-.68314.12239-.23524-.05295-.43836-.19965-.56335-.40537-.41752-.68923-.96091-1.04685-1.58416-1.04685z" fill="#101016"/></g><g><path d="m17.82085 23.27585c.7927-2.33059 2.73865-3.70617 4.98466-4.00585-.68791-.98149-1.5273-2.95063-1.31838-5.72849.26603-3.53706 2.19181-7.15638 3.60354-6.98526.75075.09098.72689.76615 1.55628 2.12123 3.0564 4.99365 11.40071 2.43007 14.71762 7.11942.59536.84169 1.26373 2.24922 1.22874 4.59504.25381.08531 3.48152 1.43115 3.94323 5.30773.44241 3.71447-4.09758 6.5181-14.6775 6.58451-8.80328.05526-16.22609-2.5758-14.03819-9.00833z" fill="#f0f0fc"/><path d="m46.54372 25.69558c.37014 3.15463-2.81977 5.63965-10.22181 6.36218 1.9034-2.32636 2.83741-4.74082 2.55548-7.01426-.12338-.98693-.52869-2.23826-1.60372-3.63051.45813-.705 1.1102-1.97386 1.18077-3.63051.07046-1.97386-.72264-3.61298-1.60383-4.7761 1.79766.49341 3.43667 1.25133 4.5117 2.7846.59926.84591 1.26897 2.2558 1.23369 4.5998.24675.08811 3.47195 1.42754 3.94772 5.3048z" opacity=".1"/><g fill="#101016"><path d="m27.98053 21.72077c-.01736 0-.03559-.00087-.05295-.00174-.90796-.05295-1.81419-.20746-2.69264-.45832-.99563-.28558-1.96262-.69529-2.87319-1.22045-.42533-.24479-.57203-.78817-.32638-1.21351.24392-.42447.78817-.5729 1.21351-.32638.78557.45224 1.61801.80553 2.47476 1.05032.75345.21614 1.53034.34808 2.3081.39409.48957.02865.86369.44877.83505.93921-.02778.4722-.41926.83678-.88626.83678z"/><path d="m36.75113 22.30756c-.12847 0-.25694-.00087-.38541-.00347-.49044-.01042-.88018-.41579-.87064-.90709.00955-.49044.45051-.87671.90709-.87064 1.24562.02604 2.46955-.08333 3.6466-.32291.77949-.15972 1.52947-.37586 2.22911-.64234.45658-.17361.97393.05469 1.1458.51387.17534.45919-.05382.9722-.51387 1.14754-.78817.30034-1.6319.54339-2.50688.7222-1.18052.24131-2.40792.36284-3.6518.36284z"/><path d="m31.59241 33.17358c-4.15527 0-11.22192-.60155-13.98486-4.43477-1.1649-1.61628-1.37583-3.55025-.62759-5.74898.72047-2.11973 2.34629-3.67351 4.46342-4.32888-.50867-1.10414-1.01907-2.84194-.84286-5.18649.21961-2.91225 1.5017-6.02588 2.98256-7.24199.66144-.54426 1.24216-.60502 1.61454-.55901.98348.11979 1.32028.81595 1.64666 1.48954.13628.28211.30468.63193.56075 1.05032 1.3576 2.21695 4.02854 2.74385 6.85745 3.30199 2.94957.58158 5.9981 1.18313 7.82791 3.76899.86282 1.21959 1.32983 2.74645 1.38712 4.54502 1.13712.60675 3.52594 2.28032 3.94086 5.76547.16492 1.37757-.24826 2.67354-1.19615 3.74643-2.17182 2.46174-7.13696 3.78636-14.35812 3.8315-.08854.00086-.17968.00086-.27169.00086zm-6.63263-25.75972c-.59373.08246-2.33153 2.80635-2.58673 6.19428-.21961 2.92961.83244 4.6839 1.16056 5.15264.17795.25433.21006.58245.08594.86716-.125.28385-.38888.48263-.69703.52342-2.06331.27517-3.61622 1.51819-4.2603 3.41137-.55988 1.64579-.43315 2.99818.38714 4.13617 1.697 2.3541 6.42951 3.71865 12.80434 3.69608 8.91209-.05555 11.99186-2.04769 13.03524-3.22995.61977-.70224.86977-1.47478.76561-2.36018-.40798-3.41831-3.31936-4.56151-3.34887-4.57192-.35763-.12934-.60588-.47481-.60068-.85414.0243-1.66575-.33332-3.03377-1.06594-4.0676-1.41836-2.00602-3.99381-2.51382-6.7203-3.052-3.08064-.60675-6.26546-1.23521-8.02929-4.11707-.29426-.48089-.4887-.88105-.64582-1.20483-.09985-.20659-.22485-.4644-.28387-.52343zm-7.1387 15.86242h.01736z"/></g></g><g><circle cx="22.007" cy="38.202" fill="#79b6ef" r="11.706"/><circle cx="16.462" cy="33.319" fill="#fff" opacity=".4" r="2.015"/><path d="m33.71115 38.19938c0 6.47096-5.24432 11.71518-11.69749 11.71518-2.27544 0-4.40874-.65775-6.20426-1.79542 4.40884-2.16888 5.20874-3.11103 6.52435-4.39105 1.17325-1.42216 2.57762-3.69771 3.1821-5.47544 1.63548-4.69312.58668-9.03079-.21332-11.28854 4.85316 1.42217 8.40862 5.90208 8.40862 11.23527z" opacity=".1"/><path d="m22.00673 50.79723c-6.94512 0-12.59514-5.65089-12.59514-12.59601 0-6.94426 5.65002-12.59428 12.59514-12.59428s12.59514 5.65002 12.59514 12.59428c.00001 6.94513-5.65001 12.59601-12.59514 12.59601zm0-23.41255c-5.96511 0-10.81741 4.8523-10.81741 10.81655 0 5.96598 4.8523 10.81828 10.81741 10.81828s10.81741-4.8523 10.81741-10.81828c.00001-5.96426-4.85229-10.81655-10.81741-10.81655z" fill="#101016"/></g><g><path d="m57.51441 38.11684c2.73025-1.43232 5.98388.92949 5.21198 3.91444-2.54252 9.83206-11.94256 18.46995-30.73595 18.77958-18.79424-.31316-28.18042-8.94939-30.71721-18.781-.77021-2.98504 2.48355-5.34517 5.21322-3.91248 6.66556 3.49849 15.61583 5.9416 25.50484 5.91777 9.89025.02587 18.85182-2.41846 25.52312-5.91831z" fill="#ffdc6e"/><path d="m62.72852 42.03192c-2.54522 9.82261-11.93756 18.46204-30.74017 18.78477-5.07262-.08971-9.44616-.77084-13.19239-1.93586-.01783 0-.03577-.01794-.05371-.01794 10.32443 1.14718 25.79314-3.62075 27.49587-16.52618 4.19434-1.05758 8.01223-2.50945 11.27448-4.21228 2.72441-1.43393 5.98665.91415 5.21592 3.90749z" opacity=".1"/><path d="m32.00559 61.69971c-24.09136-.40103-30.11897-13.734-31.59376-19.44738-.43054-1.67183.1467-3.38099 1.50864-4.45908 1.41663-1.12323 3.3723-1.30639 4.97903-.46353 7.15085 3.7525 16.00564 5.81668 24.94724 5.81668h.296c8.94941 0 17.80507-2.06244 24.95766-5.81668 1.60586-.84286 3.56067-.66144 4.97903.4644 1.36281 1.07896 1.93919 2.78812 1.50864 4.45995-1.47913 5.71511-7.51542 19.04982-31.58248 19.44564zm-27.23537-23.1261c-.69529 0-1.31333.26996-1.74561.61283-.81508.64581-1.14754 1.62495-.8906 2.62146 2.90183 11.24448 13.78956 17.84674 29.87158 18.11409 16.05686-.26388 26.95066-6.86613 29.8603-18.11235.25694-.9965-.07465-1.97738-.8906-2.62233-.69095-.5486-1.85759-.91143-3.04853-.28298-7.44424 3.90701-16.63149 6.06841-25.93766 6.0198-9.25409-.0191-18.47519-2.11452-25.91596-6.0198-.44617-.23437-.88887-.33072-1.30292-.33072z" fill="#101016"/></g><g><path d="m53.69469 38.19619c0-6.45283-5.23387-11.70464-11.70464-11.70464-6.47066 0-11.70453 5.25182-11.70453 11.70464 0 2.13289.57359 4.12257 1.55941 5.84324h.14342c.8164.00181 1.62388-.01806 2.42508-.05207.59188-.02513 1.08397.44954 1.08397 1.04195v.57138c0 1.42222 1.07328 2.66404 2.49254 2.75587 1.55516.10062 2.84778-1.131 2.84778-2.6644v-.87726c0-.81115.58405-1.50445 1.38329-1.64295 4.10902-.71207 7.92708-1.82785 11.33025-3.2192.10755-.5736.14343-1.16513.14343-1.75656z" fill="#af4646"/><circle cx="36.446" cy="33.319" fill="#fff" opacity=".4" r="2.015"/><path d="m53.69281 38.19938c0 .58668-.03548 1.17325-.14214 1.75993-3.23548 1.3155-6.8798 2.39989-10.77304 3.11103 1.17326-1.42216 2.09771-3.03996 2.70208-4.81769 1.63559-4.69312.58668-9.03079-.21332-11.28854 4.87097 1.40437 8.42642 5.91987 8.42642 11.23527z" opacity=".1"/><path d="m38.17209 49.2504c-.07986 0-.15972-.00174-.23958-.00694-1.86366-.12152-3.32369-1.72044-3.32369-3.64227v-.57116l-.19531-1.04337.03819.88886c-.81421.03472-1.62148.05382-2.46521.05208-.3177 0-.75432-.17187-.9123-.44617-1.09806-1.91488-1.67791-4.08843-1.67791-6.28542 0-6.94426 5.64915-12.59341 12.59341-12.59341s12.59341 5.64915 12.59341 12.59341c0 .72741-.05208 1.355-.15798 1.92096-.05556.29513-.25694.54338-.53645.65797-3.59886 1.47218-7.47375 2.57285-11.51705 3.27248-.37499.06597-.64582.38714-.64582.76734v.87671c0 .98087-.40971 1.92703-1.12497 2.59888-.66663.62325-1.52251.96005-2.42874.96005zm-3.71517-6.15261c.50172 0 .97219.1875 1.33503.53645.37759.36283.5946.8715.5946 1.39579v.57116c0 .98782.72915 1.80724 1.66055 1.86801.49304.04861.97567-.13715 1.3385-.47742.36284-.34027.56248-.80206.56248-1.30031v-.87671c0-1.24823.89234-2.30723 2.12147-2.51903 3.74122-.64755 7.3314-1.64926 10.67853-2.97821.03819-.3368.05729-.70745.05729-1.1215 0-5.96338-4.8523-10.81568-10.81568-10.81568s-10.81568 4.8523-10.81568 10.81568c0 1.71783.41318 3.41918 1.19875 4.95212.72394-.00347 1.36541-.02257 2.00255-.05035zm19.09496-3.14575h.01736z" fill="#101016"/></g><g><path d="m47.59649 63.11041h-31.19202c-3.88505 0-7.64139-1.3932-10.58688-3.92658l-2.87526-2.47295c-1.25549-1.07986-.49181-3.13894 1.16426-3.13894h55.78777c1.65607 0 2.41975 2.05907 1.16426 3.13894l-2.87526 2.47295c-2.94548 2.53338-6.70182 3.92658-10.58687 3.92658z" fill="#b9eded"/><path d="m61.06586 56.71014-2.89034 2.46738c-2.94315 2.53773-6.69704 3.93008-10.57431 3.93008h-6.15071c3.04889-1.28651 5.39289-3.40139 6.5032-6.09789.29958-.74017.68725-1.9034.74017-3.43667h11.20874c1.65666 0 2.41448 2.06207 1.16325 3.1371z" opacity=".1"/><path d="m47.59718 64h-31.19272c-4.09451 0-8.06054-1.47045-11.16636-4.14225l-2.8758-2.47389c-.85675-.73609-1.15622-1.89752-.763-2.95652.39322-1.06074 1.3767-1.74475 2.50688-1.74475h55.78755c1.13018 0 2.11452.68401 2.50687 1.74475.39409 1.059.09375 2.22042-.76213 2.95652l-2.87492 2.47389c-3.10756 2.6718-7.07273 4.14225-11.16637 4.14225zm-43.491-9.53967c-.57811 0-.78904.44791-.84026.58506-.05035.13715-.18229.61457.25607.99129l2.87579 2.47389c2.78291 2.39403 6.33663 3.7117 10.00667 3.7117h31.19273c3.6683 0 7.22203-1.31767 10.00667-3.7117l2.87492-2.47389c.43922-.37672.30728-.85415.2552-.99129-.05035-.13715-.26215-.58506-.84025-.58506z" fill="#101016"/></g></g></svg>