<svg height="512" viewBox="0 0 64 64" width="512" xmlns="http://www.w3.org/2000/svg"><g id="Barcode-2" data-name="Barcode"><path d="m20.5 42 1.56-9.36 5.85.88-1 5.97a2.984 2.984 0 0 1 -2.95 2.51z" fill="#4878d8"/><path d="m7.361 63a2 2 0 0 1 -1.973-2.329l4.966-29.785 11.709 1.757-3.393 20.357h13.33v.19l-1.63 9.81z" fill="#609aef"/><path d="m41 30v-24h4a2 2 0 0 1 2 2v20a2 2 0 0 1 -2 2z" fill="#609aef"/><path d="m38 35a3.044 3.044 0 0 1 -.446-.034l-32.3-4.844a4.971 4.971 0 0 1 -4.254-4.945v-14.354a4.971 4.971 0 0 1 4.258-4.945l32.3-4.844a3 3 0 0 1 3.442 2.966v28a3 3 0 0 1 -3 3z" fill="#ebeeff"/><path d="m24.829 63 1.661-10h5.51v.19l-1.63 9.81z" fill="#4878d8"/><path d="m7 21v-6l28-2v10z" fill="#609aef"/><path d="m38 35a3.044 3.044 0 0 1 -.446-.034l-2.554-.383v-33.166l2.555-.383a3 3 0 0 1 3.445 2.966v28a3 3 0 0 1 -3 3z" fill="#4878d8"/><g fill="#352d34"><path d="m45 5h-3v-1a4 4 0 0 0 -4.594-3.955l-32.296 4.845a5.962 5.962 0 0 0 -5.11 5.933v14.354a5.962 5.962 0 0 0 5.11 5.933l4.091.614-4.801 28.782a3 3 0 0 0 2.961 3.494h23.009a1 1 0 0 0 .986-.836l1.63-9.81a.9.9 0 0 0 .014-.164v-.19a1 1 0 0 0 -1-1h-12.149l1.5-9h2.605a3.988 3.988 0 0 0 3.944-3.34l.836-5 8.669 1.3a4 4 0 0 0 4.595-3.96v-1h3a3 3 0 0 0 3-3v-20a3 3 0 0 0 -3-3zm-11 16.926-26-1.857v-4.138l26-1.857zm-32 3.251v-14.354a3.977 3.977 0 0 1 3.407-3.956l28.593-4.289v9.491l-27.071 1.931a1 1 0 0 0 -.929 1v6a1 1 0 0 0 .929 1l27.071 1.931v9.491l-28.593-4.289a3.977 3.977 0 0 1 -3.407-3.956zm27.522 36.823h-3.514l1.33-8h3.514zm-4.212-8-1.329 8h-16.62a1 1 0 0 1 -.986-1.165l4.8-28.814 9.735 1.459-3.226 19.355a1 1 0 0 0 .986 1.165zm.618-14.67a1.993 1.993 0 0 1 -1.972 1.67h-2.272l1.2-7.223 3.871.581zm14.072-7.33a2 2 0 0 1 -2.3 1.978l-1.7-.256v-31.444l1.7-.256a2.12 2.12 0 0 1 .3-.022 2 2 0 0 1 2 2zm6-4a1 1 0 0 1 -1 1h-3v-22h3a1 1 0 0 1 1 1z"/><path d="m51.944 13.049a1 1 0 0 0 -1.408 1.421 4.988 4.988 0 0 1 0 7.06 1 1 0 0 0 1.408 1.421 6.989 6.989 0 0 0 0-9.9z"/><path d="m55.487 9.513a1 1 0 1 0 -1.414 1.414 10.009 10.009 0 0 1 0 14.146 1 1 0 1 0 1.414 1.414 12.008 12.008 0 0 0 0-16.974z"/><path d="m59.028 5.974a1 1 0 1 0 -1.416 1.412 15.031 15.031 0 0 1 0 21.228 1 1 0 1 0 1.416 1.412 17.03 17.03 0 0 0 0-24.052z"/></g></g></svg>