<svg height="512" viewBox="0 0 48 48" width="512" xmlns="http://www.w3.org/2000/svg"><g id="Line"><g fill="#f2f2f2"><path d="m12.6 26.41 3.4-1.89v10.29l-.88 2.19h-6.12v-4.47c0-2.54 1.38-4.88 3.6-6.12z"/><path d="m29.49 23.13.51.28v10.59h-12v-10.59l.51-.28c.15-.09.32-.13.49-.13h10c.17 0 .34.04.49.13z"/><path d="m39 32.53v4.47h-6.12l-.88-2.19v-10.29l3.4 1.89c2.22 1.24 3.6 3.58 3.6 6.12z"/></g><g><path d="m36.48 46h-24.96c.662-1.665 3.891-9.726 4.48-11.19v-10.29l2-1.11v10.59h12v-10.59l2 1.11v10.29c.581 1.436 3.835 9.579 4.48 11.19z" fill="#7f6654"/></g><g fill="#ffd889"><path d="m9 37h6.12l-3.6 9h-1.52c-.55 0-1-.45-1-1z"/><path d="m39 37v8c0 .55-.45 1-1 1h-1.52l-3.6-9z"/></g><path d="m19.704 8.344c1.276-3.22-6.265 8.041-5.698 7.766.164 5.429 4.494 9.924 9.994 9.89 5.499.033 9.831-4.46 9.993-9.89.062-.548-13.739-7.705-14.289-7.766z" fill="#ffd889"/><path d="m17.98 11.804-1-5c-.128-.762-1.158-1.078-1.688-.511-1.478 1.478-2.292 3.444-2.292 5.536v4.171c-.012.537.466 1.012 1 1 2.384-.448 4.134-2.786 3.98-5.196z" fill="#7f6654"/><path d="m32.707 4.293c-1.478-1.479-3.444-2.293-5.536-2.293h-6.336c-3.357-.057-5.888 3.205-5.835 6.408.094 6.933 8.884 8.38 14.352 8.592h4.648c.552 0 1-.448 1-1v-6.171c0-2.092-.814-4.058-2.293-5.536z" fill="#997e6c"/><path d="m38 46c.552 0 1-.448 1-1v-12.47c0-2.541-1.379-4.885-3.6-6.119l-4.982-2.768c1.878-1.59 3.169-3.867 3.459-6.484l.018-.159c.586.049 1.109-.405 1.105-1v-6.171c0-2.091-.814-4.057-2.293-5.536s-3.444-2.293-5.536-2.293h-6.336c-1.45 0-2.814.565-3.839 1.59-.761.76-1.313 1.671-1.643 2.663-1.532 1.445-2.346 3.475-2.353 5.576v4.171c0 .321.154.623.416.811.199.139.451.223.688.172l.02.176c.291 2.617 1.581 4.894 3.459 6.484l-4.983 2.769c-2.221 1.233-3.6 3.578-3.6 6.118v12.47c0 .552.448 1 1 1 .812-.004 27.997 0 28 0zm-20.323-10h12.645l3.2 8h-19.045zm18 8-2-5h3.323v5zm1.323-11.47v4.47h-4.123l-.877-2.192v-7.997l2.428 1.349c1.587.881 2.572 2.556 2.572 4.37zm-16.165-28.53h6.336c3.133-.064 5.894 2.695 5.829 5.829v5.171c-4.489.152-9.309-.124-13.34-2.288-3.91-1.697-3.371-8.522 1.175-8.712zm-5.835 7.829c.173-2.533.241-1.208 1 .171 0 .896-.375 1.724-1 2.309zm1.11 5.109-.098-.877c.752-.587 1.321-1.371 1.653-2.264.343.262.703.506 1.1.704 4.012 2.088 8.64 2.678 13.114 2.499-1.265 9.298-14.575 9.246-15.769-.062zm7.89 9.062c1.636 0 3.183-.4 4.551-1.105l1.449.805v8.3h-12v-8.3l1.449-.805c1.368.705 2.915 1.105 4.551 1.105zm-10.428 2.16 2.428-1.349v7.997l-.877 2.192h-4.123v-4.47c0-1.814.985-3.489 2.572-4.37zm-2.572 10.84h3.323l-2 5h-1.323z"/></g></svg>