<svg id="Capa_1" enable-background="new 0 0 512 512" height="512" viewBox="0 0 512 512" width="512" xmlns="http://www.w3.org/2000/svg"><g><g><path d="m185.986 128.048c0 15.942-12.924 28.866-28.867 28.866-15.942 0-28.864-12.924-28.864-28.866v-91.683c0-15.941 12.922-28.865 28.864-28.865 15.943 0 28.867 12.924 28.867 28.865z" fill="#fd7a6e"/></g><g><path d="m157.12 130.444v-91.682c0-11.512 6.743-21.448 16.491-26.081-4.675-3.262-10.358-5.181-16.491-5.181-15.942 0-28.864 12.924-28.864 28.865v91.683c0 15.942 12.922 28.866 28.864 28.866 4.431 0 8.626-1.001 12.376-2.783-7.479-5.217-12.376-13.878-12.376-23.687z" fill="#fb695b"/></g><g><path d="m396.43 146.196-140.36-68.862-140.499 68.862-40.905 79.406v238.898c0 22.091 17.909 40 40 40h37.085l106.905-30.351 101.594 30.351h37.085c22.091 0 40-17.909 40-40v-238.898z" fill="#fd7a6e"/></g><g><path d="m360.25 504.5v-156.812c0-14.276-11.596-25.849-25.902-25.849h-156.696c-14.304 0-25.901 11.573-25.901 25.849v156.812z" fill="#f9ee80"/></g><g><path d="m227.652 321.839h-50c-14.304 0-25.901 11.573-25.901 25.849v156.812h50v-156.812c0-14.276 11.597-25.849 25.901-25.849z" fill="#f4e74d"/></g><g><g><path d="m208.505 231.182c0 12.896-13.128 23.35-29.32 23.35-16.194 0-29.322-10.455-29.322-23.35 0-12.896 13.128-23.35 29.322-23.35 16.193-.001 29.32 10.454 29.32 23.35" fill="#fff"/></g><g><path d="m308.795 231.182c0 12.896 13.128 23.35 29.32 23.35 16.195 0 29.322-10.455 29.322-23.35 0-12.896-13.127-23.35-29.322-23.35-16.192-.001-29.32 10.454-29.32 23.35" fill="#fff"/></g><g><path d="m196.274 216.204c-4.143 0-7.5-3.358-7.5-7.5v-11.986c0-4.142 3.357-7.5 7.5-7.5s7.5 3.358 7.5 7.5v11.986c0 4.142-3.358 7.5-7.5 7.5z"/></g><g><path d="m321.029 216.204c-4.143 0-7.5-3.358-7.5-7.5v-11.986c0-4.142 3.357-7.5 7.5-7.5s7.5 3.358 7.5 7.5v11.986c0 4.142-3.358 7.5-7.5 7.5z"/></g><g><path d="m258.651 223.338c-8.472 0-16.526-3.668-22.1-10.064-2.722-3.123-2.396-7.861.728-10.582 3.122-2.719 7.859-2.396 10.581.728 2.724 3.126 6.657 4.918 10.791 4.918s8.066-1.793 10.791-4.919c2.723-3.123 7.459-3.449 10.582-.726 3.123 2.721 3.447 7.459.727 10.582-5.575 6.395-13.63 10.063-22.1 10.063z"/></g></g><g><path d="m500.401 272.714-85.602-138.544c-.28-.456-.578-.895-.882-1.327-2.183-3.852-5.328-7.15-9.313-9.429l-136.935-78.345c-3.742-2.14-7.774-3.125-11.739-3.076-3.964-.05-7.998.935-11.74 3.076l-136.935 78.345c-3.986 2.28-7.131 5.578-9.313 9.429-.303.432-.601.871-.882 1.327l-85.599 138.544c-7.404 11.982-4.32 28.112 6.89 36.026 11.207 7.914 26.294 4.617 33.697-7.365l83.523-135.18 120.36-68.862 120.359 68.862 83.523 135.18c7.403 11.982 22.491 15.279 33.697 7.365 11.21-7.914 14.293-24.044 6.891-36.026z" fill="#e4996d"/></g><g><path d="m396.43 146.196-140.36-68.862-140.499 68.862-40.905 79.406v238.898c0 22.091 17.909 40 40 40h37.085l3.755-1.066c-17.675-4.143-30.84-19.996-30.84-38.934v-223.58l32.42-52.47 98.846-56.553 98.845 56.553 79.516 128.694c.946 1.532 1.975 2.985 3.044 4.397v-95.939z" fill="#fb695b"/></g><g><path d="m500.401 272.714-85.602-138.544c-.28-.456-.578-.895-.882-1.327-2.183-3.852-5.328-7.15-9.313-9.429l-136.935-78.345c-3.742-2.14-7.774-3.125-11.739-3.076-3.964-.05-7.998.935-11.74 3.076l-136.935 78.345c-3.986 2.28-7.131 5.578-9.313 9.429-.303.432-.601.871-.882 1.327l-85.599 138.544c-7.404 11.982-4.32 28.112 6.89 36.026 11.207 7.914 26.294 4.617 33.697-7.365l83.523-135.18 120.36-68.862 120.359 68.862 83.523 135.18c7.403 11.982 22.491 15.279 33.697 7.365 11.21-7.914 14.293-24.044 6.891-36.026z" fill="#e4996d"/></g><g><path d="m227.931 69.662c0-7.971 3.336-15.159 8.682-20.258l-129.356 74.009c-3.986 2.28-7.131 5.578-9.313 9.429-.303.432-.601.871-.882 1.327l-85.601 138.545c-7.404 11.982-4.32 28.112 6.89 36.026 11.207 7.914 26.294 4.617 33.697-7.365l83.523-135.18 119.81-68.547c-15.21-.294-27.45-12.706-27.45-27.986z" fill="#df8a57"/></g><path d="m506.85 268.771-85.592-138.528c-.299-.486-.611-.958-.933-1.421-2.904-4.996-7.021-9.112-11.927-11.917l-136.935-78.347c-4.74-2.71-10.066-4.136-15.463-4.065-5.383-.065-10.723 1.355-15.464 4.066l-46.98 26.879v-29.073c0-20.052-16.314-36.365-36.366-36.365s-36.364 16.313-36.364 36.365v70.685l-17.222 9.853c-4.907 2.805-9.025 6.922-11.93 11.919-.32.462-.632.932-.922 1.405l-85.602 138.544c-9.436 15.272-5.423 35.951 8.944 46.095 5.304 3.746 11.415 5.689 17.666 5.689 2.033 0 4.082-.206 6.121-.622 8.55-1.744 15.872-6.936 20.616-14.616l8.738-14.142v173.325c0 26.191 21.309 47.5 47.5 47.5h282.528c26.191 0 47.5-21.309 47.5-47.5v-173.326l8.738 14.143c4.746 7.682 12.067 12.873 20.618 14.617 8.308 1.698 16.758-.104 23.784-5.067 14.371-10.144 18.383-30.823 8.947-46.096zm-371.025-232.406c0-11.781 9.584-21.365 21.364-21.365 11.781 0 21.366 9.584 21.366 21.365v37.655l-42.73 24.448zm23.426 311.323c0-1.318.146-2.601.412-3.84l84.758 72.067-85.17 72.418zm9.331-15.946c2.68-1.522 5.771-2.403 9.069-2.403h156.696c3.298 0 6.389.881 9.069 2.403l-87.416 74.328zm87.418 94.018 83.786 71.24h-167.571zm233.252-123.146c-3.61 2.551-7.922 3.484-12.134 2.623-4.452-.908-8.308-3.679-10.855-7.804l-83.523-135.18c-.658-1.064-1.571-1.946-2.656-2.567l-120.359-68.862c-2.309-1.32-5.141-1.32-7.449 0l-39.351 22.514c-3.596 2.057-4.842 6.639-2.785 10.234 2.056 3.594 6.637 4.842 10.234 2.785l35.626-20.383 114.98 65.785 58.783 95.138v197.603c0 17.92-14.579 32.5-32.5 32.5h-29.515v-63.827c0-4.142-3.357-7.5-7.5-7.5s-7.5 3.358-7.5 7.5v55.16l-85.171-72.418 84.758-72.067c.266 1.24.413 2.523.413 3.841v55.485c0 4.142 3.357 7.5 7.5 7.5s7.5-3.358 7.5-7.5v-55.485c0-7.283-2.357-14.022-6.339-19.513-.233-.414-.505-.812-.824-1.187-.158-.186-.324-.361-.496-.527-6.131-7.399-15.395-12.122-25.742-12.122h-156.695c-10.342 0-19.601 4.718-25.732 12.112-.175.17-.345.348-.506.538-.321.378-.596.78-.83 1.197-3.978 5.489-6.332 12.225-6.332 19.503v149.31h-29.516c-17.921 0-32.5-14.58-32.5-32.5v-197.602l58.784-95.139 50.051-28.636c3.595-2.057 4.842-6.639 2.785-10.234s-6.64-4.843-10.234-2.785l-51.705 29.583c-1.085.621-1.998 1.503-2.656 2.567l-83.523 135.18c-2.547 4.124-6.402 6.895-10.854 7.803-4.215.86-8.523-.072-12.137-2.624-8.014-5.658-10.183-17.302-4.835-25.957l85.61-138.559c.198-.323.411-.632.626-.938.141-.2.271-.407.392-.62 1.586-2.799 3.837-5.086 6.512-6.616l136.934-78.345c2.48-1.419 5.146-2.134 7.922-2.087.062.001.126.001.187 0 2.824-.039 5.443.668 7.922 2.086l136.935 78.346c2.674 1.529 4.926 3.817 6.512 6.617.12.212.251.418.392.618.215.305.428.615.636.953l85.601 138.543c5.344 8.657 3.175 20.301-4.841 25.96z"/></g></svg>