<svg id="Layer_1" viewBox="0 0 64 64" xmlns="http://www.w3.org/2000/svg" data-name="Layer 1"><path d="m56 32.66v28.34h-48v-28.38l5.88-13.17 18.12-11.61 16.92 10.64z" fill="#e76161"/><path d="m21 37h22v24h-22z" fill="#c38154"/><path d="m21 33h22v4h-22z" fill="#884a39"/><path d="m56.17 33-7.25-14.52-16.92-10.64-18.12 11.61-6.05 13.55-4.83-.97 7.25-15.48 21.75-13.55 21.75 13.55 7.25 15.48z" fill="#213555"/><circle cx="32" cy="22" fill="#f1c376" r="7"/><path d="m61 60h-4v-26.15l4.2-.84c.3-.06.56-.26.7-.53s.14-.6.01-.87l-7.25-15.48c-.08-.18-.21-.32-.38-.42l-21.75-13.56c-.32-.2-.73-.2-1.06 0l-21.75 13.55c-.16.1-.29.25-.38.42l-7.25 15.49c-.13.28-.13.6.01.87s.4.47.7.53l4.2.84v26.15h-4c-.55 0-1 .45-1 1s.45 1 1 1h58c.55 0 1-.45 1-1s-.45-1-1-1zm-49.97-42.76 20.97-13.06 20.97 13.06 6.58 14.06-2.83.57-6.91-13.83c-.08-.16-.21-.3-.36-.4l-16.92-10.65c-.16-.1-.35-.15-.53-.15s-.38.05-.54.16l-18.12 11.61c-.16.1-.29.26-.37.43l-5.72 12.82-2.8-.56zm-2.1 15.76 5.74-12.87 17.34-11.11 16.14 10.16 6.9 13.82h-.05v27h-11v-27c0-.55-.45-1-1-1h-22c-.55 0-1 .45-1 1v27h-11v-27zm22.07 8.47v14.12l-3.38-7.07zm-4.49 4.73-3.92-8.21h7.86zm6.49-4.71 3.36 7.03-3.36 7zm.55-3.49h7.86l-3.94 8.21zm8.45 3.39v14.28l-3.42-7.15zm0-5.39h-20v-2h20zm-20 5.41 3.4 7.11-3.4 7.09zm4.51 9.43 4.38 9.17h-8.78zm10.96 0 4.38 9.17h-8.78z"/><path d="m32 30c4.41 0 8-3.59 8-8s-3.59-8-8-8-8 3.59-8 8 3.59 8 8 8zm0-14c3.31 0 6 2.69 6 6s-2.69 6-6 6-6-2.69-6-6 2.69-6 6-6z"/></svg>