<svg id="Layer_1" viewBox="0 0 1000 1000" xmlns="http://www.w3.org/2000/svg" data-name="Layer 1"><path d="m279.74 179.16h440.52v150.45h-440.52z" fill="#f9a825"/><path d="m279.74 424.77h440.52v150.46h-440.52z" fill="#f9a825"/><path d="m770.71 129.49v4.18a13.5 13.5 0 0 1 -13.48 13.49h-514.46a13.5 13.5 0 0 1 -13.48-13.49v-4.18a13.5 13.5 0 0 1 13.48-13.49h514.46a13.5 13.5 0 0 1 13.48 13.49z" fill="#616161"/><path d="m770.71 375.1v4.19a13.5 13.5 0 0 1 -13.48 13.48h-514.46a13.5 13.5 0 0 1 -13.48-13.48v-4.19a13.5 13.5 0 0 1 13.48-13.49h514.46a13.5 13.5 0 0 1 13.48 13.49z" fill="#616161"/><path d="m770.71 620.71v4.19a13.5 13.5 0 0 1 -13.48 13.49h-514.46a13.5 13.5 0 0 1 -13.48-13.49v-4.19a13.5 13.5 0 0 1 13.48-13.48h514.46a13.5 13.5 0 0 1 13.48 13.48z" fill="#616161"/><path d="m770.71 866.33v4.18a13.5 13.5 0 0 1 -13.48 13.49h-514.46a13.5 13.5 0 0 1 -13.48-13.49v-4.18a13.5 13.5 0 0 1 13.48-13.49h514.46a13.5 13.5 0 0 1 13.48 13.49z" fill="#616161"/><path d="m279.74 670.39h440.52v150.45h-440.52z" fill="#f9a825"/><g fill="#fff" opacity=".5"><path d="m269.74 189.16h440.52v150.45h-440.52z"/><path d="m269.74 434.77h440.52v150.46h-440.52z"/><path d="m760.71 139.49v4.18a13.5 13.5 0 0 1 -13.48 13.49h-514.46a13.5 13.5 0 0 1 -13.48-13.49v-4.18a13.5 13.5 0 0 1 13.48-13.49h514.46a13.5 13.5 0 0 1 13.48 13.49z"/><path d="m760.71 385.1v4.19a13.5 13.5 0 0 1 -13.48 13.48h-514.46a13.5 13.5 0 0 1 -13.48-13.48v-4.19a13.5 13.5 0 0 1 13.48-13.49h514.46a13.5 13.5 0 0 1 13.48 13.49z"/><path d="m760.71 630.71v4.19a13.5 13.5 0 0 1 -13.48 13.49h-514.46a13.5 13.5 0 0 1 -13.48-13.49v-4.19a13.5 13.5 0 0 1 13.48-13.48h514.46a13.5 13.5 0 0 1 13.48 13.48z"/><path d="m760.71 876.33v4.18a13.5 13.5 0 0 1 -13.48 13.49h-514.46a13.5 13.5 0 0 1 -13.48-13.49v-4.18a13.5 13.5 0 0 1 13.48-13.49h514.46a13.5 13.5 0 0 1 13.48 13.49z"/><path d="m269.74 680.39h440.52v150.45h-440.52z"/></g><g fill="#413b32"><path d="m752.26 654.39v182.45a16 16 0 0 1 -32 0v-182.45a16 16 0 0 1 32 0z"/><path d="m752.26 408.77v182.46a16 16 0 0 1 -32 0v-182.46a16 16 0 0 1 32 0z"/><path d="m279.74 654.39v182.45a16 16 0 0 1 -32 0v-182.45a16 16 0 0 1 32 0z"/><path d="m279.74 408.77v182.46a16 16 0 0 1 -32 0v-182.46a16 16 0 0 1 32 0z"/><path d="m752.26 163.15v182.47a16 16 0 0 1 -15.59 16h-.82a16 16 0 0 1 -15.59-16v-166.47h-440.52v166.47a16 16 0 0 1 -15.59 16h-.82a16 16 0 0 1 -15.59-16v-182.47a16 16 0 0 1 15.59-16h473.34a16 16 0 0 1 15.59 16z"/><path d="m752.26 900a16 16 0 0 1 -16 16h-472.52a16 16 0 0 1 0-32h472.52a16 16 0 0 1 16 16z"/><path d="m757.23 84h-514.46a45.53 45.53 0 0 0 -45.48 45.49v4.18a45.54 45.54 0 0 0 45.48 45.49h514.46a45.54 45.54 0 0 0 45.48-45.49v-4.18a45.53 45.53 0 0 0 -45.48-45.49zm13.48 49.67a13.5 13.5 0 0 1 -13.48 13.49h-514.46a13.5 13.5 0 0 1 -13.48-13.49v-4.18a13.5 13.5 0 0 1 13.48-13.49h514.46a13.5 13.5 0 0 1 13.48 13.49z"/><path d="m720.26 345.62v-16h-440.52v16a16 16 0 0 1 -15.59 16h471.7a16 16 0 0 1 -15.59-16zm37-16h-514.49a45.54 45.54 0 0 0 -45.48 45.49v4.19a45.53 45.53 0 0 0 45.48 45.48h514.46a45.53 45.53 0 0 0 45.48-45.48v-4.2a45.54 45.54 0 0 0 -45.48-45.49zm13.48 49.68a13.5 13.5 0 0 1 -13.48 13.48h-514.49a13.5 13.5 0 0 1 -13.48-13.48v-4.2a13.5 13.5 0 0 1 13.48-13.49h514.46a13.5 13.5 0 0 1 13.48 13.49zm-50.45-33.67v-16h-440.55v16a16 16 0 0 1 -15.59 16h471.7a16 16 0 0 1 -15.59-16.01z"/><path d="m720.26 591.23v-16h-440.52v16a16 16 0 0 1 -16 16h472.52a16 16 0 0 1 -16-16zm37-16h-514.49a45.53 45.53 0 0 0 -45.48 45.48v4.19a45.54 45.54 0 0 0 45.48 45.49h514.46a45.54 45.54 0 0 0 45.48-45.49v-4.19a45.53 45.53 0 0 0 -45.48-45.48zm13.48 49.67a13.5 13.5 0 0 1 -13.48 13.49h-514.49a13.5 13.5 0 0 1 -13.48-13.49v-4.19a13.5 13.5 0 0 1 13.48-13.48h514.46a13.5 13.5 0 0 1 13.48 13.48zm-50.45-33.67v-16h-440.55v16a16 16 0 0 1 -16 16h472.52a16 16 0 0 1 -16-16z"/><path d="m720.26 836.84v-16h-440.52v16a16 16 0 0 1 -16 16h472.52a16 16 0 0 1 -16-16zm37-16h-514.49a45.54 45.54 0 0 0 -45.48 45.49v4.18a45.53 45.53 0 0 0 45.48 45.49h514.46a45.53 45.53 0 0 0 45.48-45.49v-4.18a45.54 45.54 0 0 0 -45.48-45.49zm13.48 49.67a13.5 13.5 0 0 1 -13.51 13.49h-514.46a13.5 13.5 0 0 1 -13.48-13.49v-4.18a13.5 13.5 0 0 1 13.48-13.49h514.46a13.5 13.5 0 0 1 13.48 13.49zm-50.45-33.67v-16h-440.55v16a16 16 0 0 1 -16 16h472.52a16 16 0 0 1 -16-16z"/></g></svg>