<svg id="Layer_1" enable-background="new 0 0 512 512" viewBox="0 0 512 512" xmlns="http://www.w3.org/2000/svg"><g><path d="m57.243 90.799h31.734v330.402h-31.734z" fill="#262626"/></g><g><path d="m88.977 429.201h-31.734c-4.418 0-8-3.582-8-8v-330.402c0-4.418 3.582-8 8-8h31.734c4.418 0 8 3.582 8 8v330.402c0 4.418-3.581 8-8 8zm-23.734-16h15.734v-314.402h-15.734z"/></g><g><path d="m423.023 90.799h31.734v330.402h-31.734z" fill="#262626"/></g><g><path d="m454.76 429.2h-31.74c-4.418 0-8-3.582-8-8v-330.4c0-4.418 3.582-8 8-8h31.74c4.418 0 8 3.582 8 8v265.49c0 4.418-3.582 8-8 8s-8-3.582-8-8v-257.49h-15.74v314.4h15.74v-16.91c0-4.418 3.582-8 8-8s8 3.582 8 8v24.91c0 4.418-3.582 8-8 8z"/></g><g><g><path d="m194.93 245.391-73.83 73.83h-90.58v-1.02l72.8-72.81z" fill="#fdb732"/></g><g><path d="m121.1 327.221h-90.58c-4.418 0-8-3.582-8-8v-1.02c0-2.121.843-4.156 2.343-5.656l72.8-72.81c1.501-1.501 3.535-2.344 5.657-2.344h91.61c3.236 0 6.153 1.949 7.391 4.939 1.238 2.989.554 6.43-1.734 8.718l-73.83 73.83c-1.5 1.5-3.535 2.343-5.657 2.343zm-72.288-16h68.974l57.83-57.83h-68.982z"/></g></g><g><g><path d="m373.57 245.391-73.84 73.83h-91.6l73.83-73.83z" fill="#fdb732"/></g><g><path d="m299.73 327.221h-91.6c-3.236 0-6.153-1.949-7.391-4.939-1.238-2.989-.554-6.431 1.734-8.719l73.83-73.829c1.501-1.501 3.535-2.343 5.657-2.343h91.61c3.235 0 6.153 1.949 7.392 4.939 1.237 2.989.553 6.43-1.735 8.718l-73.84 73.83c-1.5 1.5-3.535 2.343-5.657 2.343zm-72.286-16h68.973l57.838-57.83h-68.981z"/></g></g><g><g><path d="m481.48 245.391v73.83h-94.72l73.83-73.83z" fill="#fdb732"/></g><g><path d="m481.48 327.221h-94.72c-3.235 0-6.152-1.949-7.391-4.939-1.238-2.989-.555-6.431 1.733-8.719l73.83-73.829c1.501-1.501 3.535-2.343 5.657-2.343h20.891c4.418 0 8 3.582 8 8v73.83c0 4.418-3.582 8-8 8zm-75.407-16h67.407v-57.83h-9.577z"/></g></g><g><g><path d="m103.32 245.391-72.8 72.81v-72.81z" fill="#4d4d4e"/></g><g><path d="m30.518 326.201c-1.03 0-2.069-.199-3.059-.608-2.99-1.238-4.939-4.156-4.939-7.392v-72.81c0-4.418 3.582-8 8-8h72.8c3.236 0 6.153 1.949 7.391 4.939 1.238 2.989.554 6.43-1.734 8.718l-72.8 72.81c-1.53 1.53-3.577 2.343-5.659 2.343zm8.002-72.81v45.495l45.488-45.495z"/></g></g><g><g><path d="m281.96 245.391-73.83 73.83h-87.03l73.83-73.83z" fill="#4d4d4e"/></g><g><path d="m208.13 327.221h-87.03c-3.236 0-6.153-1.949-7.391-4.939-1.238-2.989-.554-6.431 1.734-8.719l73.83-73.829c1.5-1.501 3.535-2.343 5.657-2.343h87.03c3.235 0 6.152 1.949 7.391 4.939 1.238 2.989.555 6.43-1.733 8.718l-73.831 73.83c-1.5 1.5-3.536 2.343-5.657 2.343zm-67.716-16h64.402l57.83-57.83h-64.403z"/></g></g><g><g><path d="m460.59 245.391-73.83 73.83h-87.03l73.84-73.83z" fill="#4d4d4e"/></g><g><path d="m386.76 327.221h-87.03c-3.235 0-6.153-1.949-7.392-4.939-1.237-2.99-.553-6.431 1.735-8.719l73.84-73.83c1.5-1.5 3.535-2.343 5.656-2.343h87.02c3.235 0 6.152 1.949 7.391 4.939 1.238 2.989.555 6.43-1.733 8.718l-73.83 73.83c-1.501 1.501-3.535 2.344-5.657 2.344zm-67.714-16h64.4l57.83-57.83h-64.393z"/></g></g><g><path d="m194.93 126.49-73.83 73.83h-90.58v-1.02l72.8-72.81z" fill="#fdb732"/></g><g><path d="m121.1 208.32h-90.58c-4.418 0-8-3.582-8-8v-1.02c0-2.122.843-4.156 2.343-5.656l72.8-72.81c1.5-1.501 3.535-2.344 5.657-2.344h17.09c4.418 0 8 3.582 8 8s-3.582 8-8 8h-13.776l-57.822 57.83h68.975l57.83-57.83h-15.207c-4.418 0-8-3.582-8-8s3.582-8 8-8h34.52c3.236 0 6.153 1.949 7.391 4.938s.554 6.43-1.734 8.718l-73.83 73.83c-1.5 1.501-3.535 2.344-5.657 2.344zm-90.58-9.02h.01z"/></g><g><g><path d="m373.57 126.49-73.84 73.83h-91.6l73.83-73.83z" fill="#fdb732"/></g><g><path d="m299.73 208.32h-91.6c-3.236 0-6.153-1.949-7.391-4.938s-.554-6.43 1.734-8.718l73.83-73.83c1.501-1.501 3.535-2.343 5.657-2.343h91.61c3.235 0 6.153 1.949 7.392 4.939 1.237 2.989.553 6.43-1.735 8.718l-73.84 73.83c-1.5 1.499-3.535 2.342-5.657 2.342zm-72.286-16h68.973l57.838-57.83h-68.981z"/></g></g><g><g><path d="m481.48 126.49v73.83h-94.72l73.83-73.83z" fill="#fdb732"/></g><g><path d="m481.48 208.32h-94.72c-3.235 0-6.152-1.949-7.391-4.938-1.238-2.989-.555-6.43 1.733-8.718l73.83-73.83c1.501-1.501 3.535-2.343 5.657-2.343h20.891c4.418 0 8 3.582 8 8v73.83c0 4.417-3.582 7.999-8 7.999zm-75.407-16h67.407v-57.83h-9.577z"/></g></g><g><g><path d="m103.32 126.49-72.8 72.81v-72.81z" fill="#4d4d4e"/></g><g><path d="m30.518 207.3c-1.03 0-2.069-.199-3.059-.609-2.99-1.238-4.939-4.155-4.939-7.391v-72.81c0-4.418 3.582-8 8-8h72.8c3.236 0 6.153 1.949 7.391 4.939 1.238 2.989.554 6.43-1.734 8.718l-72.8 72.81c-1.53 1.53-3.577 2.343-5.659 2.343zm8.002-72.81v45.494l45.488-45.494z"/></g></g><g><g><path d="m281.96 126.49-73.83 73.83h-87.03l73.83-73.83z" fill="#4d4d4e"/></g><g><path d="m208.13 208.32h-87.03c-3.236 0-6.153-1.949-7.391-4.938s-.554-6.43 1.734-8.718l73.83-73.83c1.5-1.501 3.535-2.343 5.657-2.343h87.03c3.235 0 6.152 1.949 7.391 4.939 1.238 2.989.555 6.43-1.733 8.718l-73.831 73.83c-1.5 1.499-3.536 2.342-5.657 2.342zm-67.716-16h64.402l57.83-57.83h-64.403z"/></g></g><g><g><path d="m460.59 126.49-73.83 73.83h-87.03l73.84-73.83z" fill="#4d4d4e"/></g><g><path d="m386.76 208.32h-87.03c-3.235 0-6.153-1.949-7.392-4.939-1.237-2.989-.553-6.43 1.735-8.718l73.84-73.83c1.5-1.5 3.535-2.343 5.656-2.343h87.02c3.235 0 6.152 1.949 7.391 4.939 1.238 2.989.555 6.43-1.733 8.718l-73.83 73.83c-1.501 1.5-3.535 2.343-5.657 2.343zm-67.714-16h64.4l57.83-57.83h-64.393z"/></g></g></svg>