<svg id="Layer_1" viewBox="0 0 96 96" xmlns="http://www.w3.org/2000/svg" data-name="Layer 1"><path d="m92.01 23v-5c0-2.21-1.79-4-4-4h-4.03c-1.42-2.86-3-5.62-4.73-8.21-.74-1.12-1.99-1.79-3.33-1.79h-55.82c-1.34 0-2.58.67-3.33 1.79-1.72 2.59-3.3 5.35-4.72 8.21h-4.04c-2.2 0-4 1.79-4 4v5c0 1.87 1.29 3.43 3.03 3.86-2.21 7.56-3.23 15.35-3.03 23.17.17 6.47 1.19 12.9 3.01 19.14-1.72.44-3.01 2-3.01 3.86v5c0 2.21 1.8 4 4 4h4.04c1.42 2.84 3 5.6 4.73 8.19.73 1.11 1.97 1.78 3.32 1.78h55.82c1.35 0 2.59-.66 3.33-1.77 1.76-2.64 3.34-5.4 4.73-8.2h4.03c2.21 0 4-1.79 4-4v-5c0-1.87-1.29-3.43-3.03-3.87 1.98-6.88 3.03-14.17 3.03-21.16s-1.02-14.24-3.02-21.14c1.73-.43 3.02-1.99 3.02-3.86zm-16.09-17c.67 0 1.3.33 1.67.89 1.5 2.26 2.88 4.64 4.15 7.11h-16.7c-1.38-2.78-2.92-5.47-4.59-8zm-26.91 0h7.97c.67 0 1.3.33 1.67.89 1.5 2.26 2.88 4.64 4.15 7.11h-13.79zm-9.97 0h7.97v8h-13.78c1.26-2.47 2.65-4.85 4.14-7.11.38-.56 1-.89 1.67-.89zm-20.61.89c.38-.56 1-.89 1.67-.89h15.47c-1.67 2.53-3.2 5.22-4.58 8h-16.7c1.27-2.47 2.65-4.86 4.14-7.11zm-12.42 43.08c-.2-7.75.84-15.48 3.07-22.97h16.86c-1.98 6.85-2.99 13.91-2.99 21s1.05 14.19 3.01 21.03h-16.9c-1.84-6.21-2.88-12.61-3.05-19.06zm22.01-22.97h18.99v42.03h-18.97c-2.02-6.83-3.09-14.08-3.09-21.03s1.04-14.15 3.07-21zm-7.92 63c-.67 0-1.29-.33-1.65-.88-1.5-2.26-2.89-4.64-4.15-7.09h16.7c1.34 2.72 2.88 5.39 4.58 7.97zm26.91 0h-7.96c-.67 0-1.29-.33-1.65-.87-1.53-2.3-2.92-4.68-4.16-7.1h13.77zm9.96 0h-7.96v-7.97h13.78c-1.25 2.42-2.63 4.8-4.16 7.1-.36.54-.98.87-1.66.87zm20.61-.87c-.36.54-.99.87-1.66.87h-15.47c1.69-2.57 3.23-5.25 4.58-7.97h16.71c-1.24 2.42-2.63 4.8-4.16 7.1zm12.43-16.1v5c0 1.1-.89 2-2 2h-80c-1.1 0-2-.9-2-2v-5c0-1.1.9-2 2-2h80c1.11 0 2 .9 2 2zm-41-4v-42.03h19c2.03 6.84 3.06 13.9 3.06 21s-1.07 14.2-3.08 21.03zm41-21.03c0 6.95-1.07 14.2-3.07 21.03h-16.87c1.96-6.84 3-14.08 3-21.03s-1.01-14.15-2.98-21h16.86c2.03 6.85 3.06 13.91 3.06 21zm0-25c0 1.1-.89 2-2 2h-80c-1.1 0-2-.9-2-2v-5c0-1.1.9-2 2-2h80c1.11 0 2 .9 2 2z"/><g fill="#795548"><path d="m81.74 82.03c-1.24 2.42-2.63 4.8-4.16 7.1-.36.54-.99.87-1.66.87h-15.47c1.69-2.57 3.23-5.25 4.58-7.97z"/><path d="m62.79 82.03c-1.25 2.42-2.63 4.8-4.16 7.1-.36.54-.98.87-1.66.87h-7.96v-7.97z"/><path d="m47.01 82.03v7.97h-7.96c-.67 0-1.29-.33-1.65-.87-1.53-2.3-2.92-4.68-4.16-7.1z"/><path d="m35.58 90h-15.48c-.67 0-1.29-.33-1.65-.88-1.5-2.26-2.89-4.64-4.15-7.09h16.7c1.34 2.72 2.88 5.39 4.58 7.97z"/><path d="m25.96 69.03h-16.9c-1.84-6.21-2.88-12.61-3.05-19.06-.2-7.75.84-15.48 3.07-22.97h16.86c-1.98 6.85-2.99 13.91-2.99 21s1.05 14.19 3.01 21.03z"/><path d="m47.01 27v42.03h-18.97c-2.02-6.83-3.09-14.08-3.09-21.03s1.04-14.15 3.07-21z"/><path d="m71.07 48c0 6.95-1.07 14.2-3.08 21.03h-18.98v-42.03h19c2.03 6.84 3.06 13.9 3.06 21z"/><path d="m90.01 48c0 6.95-1.07 14.2-3.07 21.03h-16.87c1.96-6.84 3-14.08 3-21.03s-1.01-14.15-2.98-21h16.86c2.03 6.85 3.06 13.91 3.06 21z"/><path d="m81.74 14h-16.7c-1.38-2.78-2.92-5.47-4.59-8h15.47c.67 0 1.3.33 1.67.89 1.5 2.26 2.88 4.64 4.15 7.11z"/><path d="m62.8 14h-13.79v-8h7.97c.67 0 1.3.33 1.67.89 1.5 2.26 2.88 4.64 4.15 7.11z"/><path d="m47.01 6v8h-13.78c1.26-2.47 2.65-4.85 4.14-7.11.38-.56 1-.89 1.67-.89z"/><path d="m35.57 6c-1.67 2.53-3.2 5.22-4.58 8h-16.7c1.27-2.47 2.65-4.86 4.14-7.11.38-.56 1-.89 1.67-.89z"/></g><path d="m90.01 18v5c0 1.1-.89 2-2 2h-80c-1.1 0-2-.9-2-2v-5c0-1.1.9-2 2-2h80c1.11 0 2 .9 2 2z" fill="#4e342e"/><path d="m90.01 73.03v5c0 1.1-.89 2-2 2h-80c-1.1 0-2-.9-2-2v-5c0-1.1.9-2 2-2h80c1.11 0 2 .9 2 2z" fill="#4e342e"/></svg>