<svg id="Layer_1" viewBox="0 0 1000 1000" xmlns="http://www.w3.org/2000/svg" data-name="Layer 1"><path d="m171.28 754.81a16 16 0 0 0 16 16h2.47a158.42 158.42 0 0 1 -8.59 22.3h-12.86a16 16 0 0 0 -6.24 30.74q-2.77 3.49-5.75 6.84a158.71 158.71 0 0 1 0-211.37q3 3.34 5.76 6.84a16 16 0 0 0 6.24 30.73h12.86a158.42 158.42 0 0 1 8.59 22.3h-2.47a16 16 0 1 0 0 32h8.65q.62 6.87.61 13.81t-.61 13.81h-8.65a16 16 0 0 0 -16.01 16z" fill="#bdbdbd"/><path d="m434 725a158.37 158.37 0 0 1 -40.31 105.69q-3-3.35-5.75-6.84a16 16 0 0 0 -6.24-30.74h-12.86a158.42 158.42 0 0 1 -8.59-22.3h2.48a16 16 0 0 0 0-32h-8.66q-.61-6.87-.61-13.81t.61-13.81h8.66a16 16 0 0 0 0-32h-2.48a159.66 159.66 0 0 1 8.59-22.3h12.86a16 16 0 0 0 6.24-30.73q2.78-3.49 5.76-6.84a158.32 158.32 0 0 1 40.3 105.68z" fill="#bdbdbd"/><path d="m349.85 825.11a190.42 190.42 0 0 0 20.27 27.22 158.68 158.68 0 0 1 -190.24 0 189.67 189.67 0 0 0 20.27-27.22h13.63a16 16 0 0 0 2.1-31.86 192.07 192.07 0 0 0 7.05-22.44h9.82a16 16 0 0 0 0-32h-4.75q.51-6.87.51-13.81t-.51-13.81h4.72a16 16 0 0 0 0-32h-9.82a190.23 190.23 0 0 0 -7.06-22.44 16 16 0 0 0 -2.09-31.86h-13.61a190.26 190.26 0 0 0 -20.26-27.21 158.68 158.68 0 0 1 190.24 0 190.26 190.26 0 0 0 -20.26 27.21h-13.63a16 16 0 0 0 -2.09 31.86 190.23 190.23 0 0 0 -7.06 22.44h-9.82a16 16 0 0 0 0 32h4.74q-.51 6.87-.51 13.81t.51 13.81h-4.71a16 16 0 0 0 0 32h9.82a190.18 190.18 0 0 0 7.05 22.44 16 16 0 0 0 2.1 31.86z" fill="#bdbdbd"/><path d="m884 839.33a6.26 6.26 0 0 1 -1.84 4.44l-38.4 38.39a6.27 6.27 0 0 1 -8.87 0l-10.44-10.43a6.28 6.28 0 0 1 0-8.88l38.4-38.39a6.27 6.27 0 0 1 8.87 0l10.44 10.43a6.26 6.26 0 0 1 1.84 4.44z" fill="#616161"/><path d="m709.76 677.8-32 32c-8.87-7-18.48-14.7-28.94-23.19-163.14-132.44-322.07-268.68-472.38-405l-12.4-11.25-26.04-26.04a75.17 75.17 0 0 1 106.32-106.32l26.06 26 11.24 12.42c136.23 150.26 272.47 309.18 405 472.35 8.45 10.54 16.12 20.15 23.14 29.03z" fill="#ffa726"/><path d="m764.62 745.87-18.76 18.75c-14.09-12.08-27.68-23-42.77-34.89l26.64-26.64c11.92 15.09 22.81 28.69 34.89 42.78z" fill="#616161"/><path d="m828.58 813.47-15.11 15.11c-16.52-16.89-30.67-30.65-43.66-42.65l16.12-16.12c12 13 25.75 27.19 42.65 43.66z" fill="#616161"/><g fill="#fff" opacity=".5"><path d="m161.28 764.81a16 16 0 0 0 16 16h2.47a158.42 158.42 0 0 1 -8.59 22.3h-12.86a16 16 0 0 0 -6.24 30.74q-2.77 3.49-5.75 6.84a158.71 158.71 0 0 1 0-211.37q3 3.34 5.76 6.84a16 16 0 0 0 6.24 30.73h12.86a158.42 158.42 0 0 1 8.59 22.3h-2.47a16 16 0 1 0 0 32h8.65q.62 6.87.61 13.81t-.61 13.81h-8.65a16 16 0 0 0 -16.01 16z"/><path d="m424 735a158.37 158.37 0 0 1 -40.31 105.69q-3-3.35-5.75-6.84a16 16 0 0 0 -6.24-30.74h-12.86a158.42 158.42 0 0 1 -8.59-22.3h2.48a16 16 0 0 0 0-32h-8.66q-.61-6.87-.61-13.81t.61-13.81h8.66a16 16 0 0 0 0-32h-2.48a159.66 159.66 0 0 1 8.59-22.3h12.86a16 16 0 0 0 6.24-30.73q2.78-3.49 5.76-6.84a158.32 158.32 0 0 1 40.3 105.68z"/><path d="m339.85 835.11a190.42 190.42 0 0 0 20.27 27.22 158.68 158.68 0 0 1 -190.24 0 189.67 189.67 0 0 0 20.27-27.22h13.63a16 16 0 0 0 2.1-31.86 192.07 192.07 0 0 0 7.05-22.44h9.82a16 16 0 0 0 0-32h-4.75q.51-6.87.51-13.81t-.51-13.81h4.72a16 16 0 0 0 0-32h-9.82a190.23 190.23 0 0 0 -7.06-22.44 16 16 0 0 0 -2.09-31.86h-13.61a190.26 190.26 0 0 0 -20.26-27.21 158.68 158.68 0 0 1 190.24 0 190.26 190.26 0 0 0 -20.26 27.21h-13.63a16 16 0 0 0 -2.09 31.86 190.23 190.23 0 0 0 -7.06 22.44h-9.82a16 16 0 0 0 0 32h4.74q-.51 6.87-.51 13.81t.51 13.81h-4.71a16 16 0 0 0 0 32h9.82a190.18 190.18 0 0 0 7.05 22.44 16 16 0 0 0 2.1 31.86z"/><path d="m874 849.33a6.26 6.26 0 0 1 -1.84 4.44l-38.4 38.39a6.27 6.27 0 0 1 -8.87 0l-10.44-10.43a6.28 6.28 0 0 1 0-8.88l38.4-38.39a6.27 6.27 0 0 1 8.87 0l10.44 10.43a6.26 6.26 0 0 1 1.84 4.44z"/><path d="m699.76 687.8-32 32c-8.87-7-18.48-14.7-28.94-23.19-163.14-132.44-322.07-268.68-472.38-405l-12.4-11.25-26.04-26.04a75.17 75.17 0 0 1 106.32-106.32l26.06 26 11.24 12.42c136.23 150.26 272.47 309.18 405 472.35 8.45 10.54 16.12 20.15 23.14 29.03z"/><path d="m754.62 755.87-18.76 18.75c-14.09-12.08-27.68-23-42.77-34.89l26.64-26.64c11.92 15.09 22.81 28.69 34.89 42.78z"/><path d="m818.58 823.47-15.11 15.11c-16.52-16.89-30.67-30.65-43.66-42.65l16.12-16.12c12 13 25.75 27.19 42.65 43.66z"/></g><g fill="#413b32"><path d="m405.32 585.48-1.66-1.48-.09-.07a190.66 190.66 0 0 0 -257.13 0 .13.13 0 0 0 -.07.06c-.61.55-1.21 1.1-1.8 1.66a190.71 190.71 0 0 0 0 278.77c.58.55 1.17 1.09 1.77 1.64l.09.07a190.66 190.66 0 0 0 257.13 0l.09-.07 1.66-1.53a190.75 190.75 0 0 0 0-279zm-130.32 298.52a158.18 158.18 0 0 1 -95.12-31.67 160.09 160.09 0 0 1 -23.57-21.64 158.71 158.71 0 0 1 0-211.37 160.21 160.21 0 0 1 23.58-21.64 158.68 158.68 0 0 1 190.24 0 160.21 160.21 0 0 1 23.58 21.64 159 159 0 0 1 -118.71 264.68z"/><path d="m228.54 725q0 6.93-.51 13.81a189.82 189.82 0 0 1 -5.1 32 192.07 192.07 0 0 1 -7.05 22.44 192.83 192.83 0 0 1 -15.73 31.86 189.67 189.67 0 0 1 -20.27 27.22q-6 6.75-12.72 12.95a16 16 0 0 1 -20.72.85l-.09-.07a16 16 0 0 1 -1.77-1.64 16 16 0 0 1 .89-22.61q5.73-5.29 10.87-11.09 3-3.35 5.75-6.84a159 159 0 0 0 19.1-30.74 159.88 159.88 0 0 0 14.77-54.3q.62-6.87.61-13.81t-.61-13.81a159.88 159.88 0 0 0 -14.77-54.3 158.9 158.9 0 0 0 -19.1-30.73q-2.77-3.49-5.76-6.84-5.13-5.79-10.86-11.09a16 16 0 0 1 -.89-22.61 14.06 14.06 0 0 1 1.8-1.66.13.13 0 0 1 .07-.06 16 16 0 0 1 20.72.85q6.69 6.19 12.72 12.95a190.26 190.26 0 0 1 20.26 27.21 191.28 191.28 0 0 1 15.73 31.86 190.23 190.23 0 0 1 7.06 22.44 191 191 0 0 1 5.1 32q.5 6.82.5 13.76z"/><path d="m229.78 809.11a16 16 0 0 1 -16 16h-45.48a16 16 0 0 1 0-32h45.48a16.22 16.22 0 0 1 2.1.14 16 16 0 0 1 13.9 15.86z"/><path d="m248.75 754.81a16 16 0 0 1 -16 16h-45.47a16 16 0 1 1 0-32h45.47a16 16 0 0 1 16 16z"/><path d="m248.75 695.19a16 16 0 0 1 -16 16h-45.47a16 16 0 1 1 0-32h45.47a16 16 0 0 1 16 16z"/><path d="m229.78 640.89a16 16 0 0 1 -16 16h-45.48a16 16 0 0 1 0-32h45.48a16 16 0 0 1 16 16z"/><path d="m404.56 841.78a16 16 0 0 1 .89 22.61l-.13.14a15.83 15.83 0 0 1 -1.66 1.53l-.09.07a16 16 0 0 1 -20.73-.85q-6.69-6.18-12.72-12.95a191.71 191.71 0 0 1 -48.12-113.52q-.51-6.87-.51-13.81t.51-13.81a191.68 191.68 0 0 1 48.15-113.51q6-6.75 12.72-12.95a16 16 0 0 1 20.73-.85l.09.07a15.83 15.83 0 0 1 1.66 1.53l.13.14a16 16 0 0 1 -.89 22.61q-5.73 5.29-10.86 11.09-3 3.34-5.76 6.84a159.8 159.8 0 0 0 -33.87 85q-.61 6.87-.61 13.81t.61 13.81a159.85 159.85 0 0 0 33.87 85q2.78 3.49 5.75 6.84 5.1 5.86 10.84 11.16z"/><path d="m397.7 809.11a16 16 0 0 1 -16 16h-45.47a16 16 0 0 1 -2.1-31.86 16.22 16.22 0 0 1 2.1-.14h45.47a16 16 0 0 1 16 16z"/><path d="m378.73 754.81a16 16 0 0 1 -16 16h-45.47a16 16 0 0 1 0-32h45.47a16 16 0 0 1 16 16z"/><path d="m378.73 695.19a16 16 0 0 1 -16 16h-45.47a16 16 0 0 1 0-32h45.47a16 16 0 0 1 16 16z"/><path d="m397.7 640.89a16 16 0 0 1 -16 16h-45.47a16 16 0 0 1 0-32h45.47a16 16 0 0 1 16 16z"/><path d="m862.91 824.39a16 16 0 0 1 -22.62.44q-6.1-5.87-11.71-11.36c-16.9-16.52-30.65-30.66-42.65-43.66-7.7-8.35-14.69-16.22-21.31-23.94-12.08-14.09-23-27.69-34.89-42.78l-7.81-9.9q-5.76-7.32-12.16-15.39c-7-8.88-14.69-18.49-23.19-29-132.48-163.17-268.72-322.09-405-472.35l-11.24-12.42-26.06-26a75.17 75.17 0 0 0 -106.27 106.29l26.06 26.06 12.4 11.25c150.31 136.27 309.24 272.51 472.38 405 10.46 8.49 20.07 16.16 28.94 23.19 5.42 4.29 10.55 8.34 15.45 12.19l9.85 7.77c15.09 11.92 28.68 22.81 42.77 34.89 7.72 6.62 15.6 13.61 23.95 21.31 13 12 27.14 25.76 43.66 42.65q5.5 5.61 11.36 11.71a16 16 0 0 1 -23.07 22.18c-3-3.07-5.82-6-8.63-8.91-22.55-23.16-40.58-40.36-57.25-55.16-20.89-18.55-39.63-33.32-62.45-51.31l-3.81-3-.86-.68c-11.82-9.31-25-19.77-40-32-163.65-132.84-323.03-269.46-473.75-406.13l-12.7-11.51-.56-.53-26.36-26.29a107.17 107.17 0 0 1 151.62-151.61l26.33 26.33c.19.19.37.38.55.58l11.46 12.7c136.66 150.68 273.23 310.05 406.08 473.67 12.25 15.1 22.77 28.4 32.14 40.28l3.49 4.42c17.88 22.71 32.59 41.36 51 62.13a2.29 2.29 0 0 1 .21.23c.24.24.46.5.67.75 14.69 16.49 31.76 34.36 54.65 56.67q4.3 4.19 8.89 8.6a16 16 0 0 1 .44 22.64z"/><path d="m904.79 812.26-10.44-10.43a38.28 38.28 0 0 0 -54.13 0l-11.64 11.64-15.11 15.11-11.64 11.64a37.95 37.95 0 0 0 -11.22 27.07 38 38 0 0 0 11.22 27.06l10.43 10.44a38.33 38.33 0 0 0 54.13 0l38.4-38.39a38.29 38.29 0 0 0 0-54.14zm-22.63 31.51-38.4 38.39a6.27 6.27 0 0 1 -8.87 0l-10.44-10.43a6.28 6.28 0 0 1 0-8.88l38.4-38.39a6.27 6.27 0 0 1 8.87 0l10.44 10.43a6.28 6.28 0 0 1 0 8.88z"/><path d="m742.46 690.36-12.73 12.73-26.64 26.64-12.73 12.73a16 16 0 0 1 -20.74 1.61l-.86-.68c-.34-.29-.67-.59-1-.91a16 16 0 0 1 0-22.63l10.06-10.06 32-32 10.07-10.07a16 16 0 0 1 22.63 0 15.73 15.73 0 0 1 1.1 1.22 16 16 0 0 1 -1.16 21.42z"/><path d="m797.83 757.91-28 28-11.9 11.9a16 16 0 0 1 -22 .57c-.21-.18-.4-.37-.6-.57a16 16 0 0 1 0-22.62l10.58-10.59 18.76-18.75 10.58-10.59a16 16 0 0 1 22.63 0l.22.23a2.29 2.29 0 0 1 .21.23c.24.24.46.5.67.75a16 16 0 0 1 -1.15 21.44z"/></g></svg>