<svg height="512" viewBox="0 0 128 128" width="512" xmlns="http://www.w3.org/2000/svg"><g><g><path d="m106.985 64.089a42.988 42.988 0 0 1 -42.98 42.98h-.26a42.981 42.981 0 0 1 0-85.96h.26a42.988 42.988 0 0 1 42.98 42.98z" fill="#fd3a69"/><path d="m106.985 64.089c0-.587-.023-1.168-.046-1.75h-24.85a40.791 40.791 0 0 1 12.762-28.1c.011-.01.018-.023.028-.033-.405-.418-.813-.833-1.234-1.235s-.856-.794-1.3-1.179a44.252 44.252 0 0 0 -13.756 30.547h-13.089v-40.312a1.746 1.746 0 0 0 .254-.875c-.579-.023-1.159-.043-1.744-.043h-.26c-.587 0-1.169.027-1.75.053v41.177h-12.579a44.292 44.292 0 0 0 -13.752-30.551c-.438.386-.872.778-1.294 1.181s-.831.816-1.236 1.234c.011.011.018.023.029.034a40.825 40.825 0 0 1 12.753 28.1h-24.851c-.023.582-.045 1.163-.045 1.75s.022 1.169.045 1.75h24.851a40.827 40.827 0 0 1 -12.753 28.1c-.011.01-.018.023-.029.033.4.418.814.833 1.236 1.234s.856.8 1.294 1.181a44.288 44.288 0 0 0 13.752-30.546h12.579v41.177c.581.027 1.163.05 1.75.053h.26c.585 0 1.165-.019 1.744-.043a1.742 1.742 0 0 0 -.254-.874v-40.313h13.089a44.254 44.254 0 0 0 13.761 30.55c.439-.386.873-.777 1.3-1.18s.829-.817 1.234-1.235c-.01-.01-.017-.022-.028-.032a40.793 40.793 0 0 1 -12.762-28.1h24.85c.018-.584.041-1.166.041-1.753z" fill="#fff8cd"/></g><g fill="#282d66"><path d="m108.529 59.859a1.75 1.75 0 1 0 -3.484.329c.067.716.112 1.441.142 2.167h-23.105a40.739 40.739 0 0 1 11.548-26.887c.782.808 1.543 1.636 2.254 2.5a1.75 1.75 0 1 0 2.7-2.221 44.969 44.969 0 0 0 -3.68-3.965h-.005c-.018-.018-.036-.038-.054-.055a44.476 44.476 0 0 0 -30.845-12.351h-.271a44.731 44.731 0 0 0 .011 89.46h.26a44.739 44.739 0 0 0 44.73-44.731c-.002-1.416-.069-2.845-.201-4.246zm-46.541 2.5h-12.574a44.228 44.228 0 0 0 -12.514-29.313 40.936 40.936 0 0 1 25.088-10.118zm0 3.5v39.429a40.947 40.947 0 0 1 -25.088-10.122 44.235 44.235 0 0 0 12.514-29.311zm3.5 0h13.094a44.205 44.205 0 0 0 12.523 29.307 40.946 40.946 0 0 1 -25.617 10.134zm13.094-3.5h-13.094v-39.448a40.954 40.954 0 0 1 25.617 10.135 44.2 44.2 0 0 0 -12.523 29.309zm-44.215-26.898a40.771 40.771 0 0 1 11.547 26.894h-23.1a40.708 40.708 0 0 1 11.553-26.894zm-11.567 30.394h23.11a40.771 40.771 0 0 1 -11.549 26.9 40.716 40.716 0 0 1 -11.561-26.9zm70.835 26.9a40.741 40.741 0 0 1 -11.557-26.9h23.11a40.786 40.786 0 0 1 -11.549 26.898z"/><path d="m101.723 47.442a1.75 1.75 0 1 0 3.2-1.412q-.195-.443-.4-.878a1.75 1.75 0 0 0 -3.169 1.485c.127.263.246.536.369.805z"/></g></g></svg>