<svg id="Capa_1" enable-background="new 0 0 512 512" height="512" viewBox="0 0 512 512" width="512" xmlns="http://www.w3.org/2000/svg"><g><g><path d="m336.245 130.392-.745-.351c-51.237-19.335-107.536-19.42-158.773-.086l-1.536.628-76.83 56.149-44.111 70.724-1.633 34.468c-13.844 39.975 2.708 82.67 37.234 107.117l102.128 72.372 133.451 3.626 102.796-72.735c34.526-24.447 48.752-68.761 34.908-108.736l-41.732-121.328z" fill="#8b818e"/><path d="m193.5 459.041-.6 16h-6.209l-102.911-72.74c-25.7-18.19-40.16-47.4-40.16-77.62 0-10.39 1.71-20.89 5.25-31.11l5.38-36.12 1.43-2.29.19 22.41c0 46.4.38 84.29 34.91 108.73z" fill="#756e78"/><g><path d="m206.75 301.041c0-33.137-26.863-60-60-60-12.885 0-24.816 4.068-34.593 10.981 0 0-23.407 18.876-23.407 49.019 0 33.137 24.863 58 58 58 19.18 0 47.242-21.007 47.242-21.007 7.993-10.192 12.758-23.036 12.758-36.993z" fill="#faf8f8"/><path d="m159.367 349.041c-33.137 0-60-26.863-60-60 0-13.971 4.783-26.822 12.79-37.019-15.368 10.865-25.407 28.767-25.407 49.019 0 33.137 26.863 60 60 60 19.167 0 36.258-9.017 47.242-23.007-9.777 6.913-21.74 11.007-34.625 11.007z" fill="#f0e9e6"/></g><g><path d="m425.25 301.041c0-33.137-26.863-60-60-60-12.885 0-24.816 4.068-34.593 10.981 0 0-23.407 18.62-23.407 49.019 0 33.137 24.863 58 58 58 27.069 0 47.212-20.983 47.212-20.983 8.007-10.197 12.788-23.047 12.788-37.017z" fill="#faf8f8"/><path d="m377.867 349.041c-33.137 0-60-26.863-60-60 0-13.971 4.783-26.822 12.79-37.019-15.368 10.865-25.407 28.767-25.407 49.019 0 33.137 26.863 60 60 60 19.167 0 36.228-8.993 47.212-22.983-9.777 6.913-21.71 10.983-34.595 10.983z" fill="#f0e9e6"/></g><path d="m303 321.041c-11.405 0-21.919-6.166-27.487-16.119-8.535-15.257-30.491-15.257-39.026 0-5.568 9.953-16.082 16.119-27.487 16.119-1.554 0-3.088.066-4.6.195-.394.034-.786.071-1.176.113 0 0-1.23.411-1.819.495-25.991 3.697-44.745 26.002-44.745 53.25 0 21.007 10.826 38.306 28.34 47.234 3.948 2.012 12.12 5.402 12.12 5.402 3.822.858 5.82 1.711 9.901 1.711l48.543 6.909 48.032-5.851c2.701 0 4.76-1.656 7.355-2.039 26.054-3.845 46.049-26.297 46.049-53.419 0-29.823-24.177-54-54-54z" fill="#fcb5ba"/><path d="m197.12 427.731c-10.14-2.28-19.21-7.41-26.3-14.51-9.78-9.77-15.82-23.27-15.82-38.18s6.04-28.41 15.82-38.18c8.487-8.496 19.796-14.174 32.403-15.512-6.138 2.998-11.724 7.706-16.403 12.892-9.78 10.82-15.82 25.77-15.82 42.28 0 16.5 6.04 31.45 15.82 42.27 3.09 3.42 6.54 6.42 10.3 8.94z" fill="#fc9aa1"/><path d="m275.894 500.52-37.787-1.532c-31.677 0-56.766-21.429-56.766-53.106 0-7.94 10.16-16.44 10.16-16.44 1.173-.262 2.392-.4 3.643-.4h121.713c9.192 0 16.643 7.452 16.643 16.643 0 17.873-8.175 33.837-20.99 44.356 0 0-4.964 1.568-6.935 2.82-8.879 5.638-18.385 7.659-29.681 7.659z" fill="#fcb5ba"/><path d="m312.55 490.008c-9.9 8.12-22.61 13.034-36.41 13.034h-40.28c-31.68 0-57.36-25.68-57.36-57.36 0-4.6 1.86-8.76 4.87-11.77 2.19-2.19 4.99-3.77 8.13-4.47v10.03c0 27.93 22.64 50.57 50.57 50.57z" fill="#fc9aa1"/><path d="m263.604 457.277c-4.859-2.068-10.35-2.068-15.209 0-9.064 3.857-19.579.318-24.466-8.235l-3.596-6.293-4.631-14.676 40.298-29.032 41.755 29.702-6.089 14.006-3.596 6.293c-4.886 8.553-15.402 12.092-24.466 8.235z" fill="#fc9aa1"/><path d="m302.766 423.35-11.099 19.4c-1.62.19-3.257.292-4.927.292-10.362 0-20.374-3.874-28.036-10.73-1.534-1.372-3.874-1.372-5.408 0-7.662 6.856-17.674 10.73-28.036 10.73-1.67 0-3.307-.102-4.927-.292l-11.972-20.868 47.639-22.841z" fill="#fb8189"/><path d="m286.736 429.041c-7.801 0-15.247-3.256-20.544-8.982l-2.691-2.909-4.565-7.481c-1.583-1.712-4.289-1.712-5.873 0l-4.565 7.481-2.691 2.909c-5.297 5.726-12.743 8.982-20.544 8.982-15.456 0-27.985-12.529-27.985-27.985v-24.029c0-15.456 12.529-27.985 27.985-27.985 7.801 0 15.247 3.256 20.544 8.982 5.496 5.941 14.887 5.941 20.383 0 5.297-5.726 12.743-8.982 20.544-8.982 15.456 0 27.985 12.529 27.985 27.985v24.029c.002 15.456-12.528 27.985-27.983 27.985z" fill="#fc9aa1"/><g><path d="m96.149 186.648-47.489 99.574c-26.58-34.36-37.617-70.432-37.617-113.872 0-28.77 4.508-55.819 15.468-81.809 6.697-15.881 23.469-45.278 23.469-45.278 6.615-8.847 13.948-17.222 21.96-25.032l10.43-10.17c1.01-.99 2.37-1.31 3.6-1.05l-5.651 59.764c-7.023 39.075 1.536 70.85 21.293 104.725 1.398 2.398-7.031 10.817-5.463 13.148z" fill="#fcb5ba"/><path d="m175.936 133.515c0 11.5-5.543 20.459-12.383 28.899-6.85 8.43-16.388 14.928-27.638 17.298l-35.415 9.33c-23.73-35.27-32.8-78.4-25.28-120.24l10.75-59.79c1.21.24 2.3 1.04 2.86 2.3l13.09 29.68c9.41 21.34 26.11 38.62 47.1 48.77 8.4 4.06 15.27 10.34 20.04 17.95 3.49 5.56 5.855 11.826 6.874 18.443 0-.001.002 4.855.002 7.36z" fill="#8b818e"/><path d="m92.25 175.391-36.265 72.023c-2.586 5.135-9.922 5.139-12.512.006-14.359-28.465-21.973-60.2-21.973-92.608 0-29.54 5.81-58.45 16.77-85.14 3.52-8.58 7.58-16.93 12.14-24.99-10.58 14.06-19.35 29.33-26.14 45.43-10.96 25.99-16.77 54.15-16.77 82.92 0 38.206 11.159 75.459 31.931 107.258l-.001.002c.002.003.005.003.006.006 2.844 4.353 6.231 9.134 9.431 13.271l9.783-20.827 41.85-83.7.5-7.67z" fill="#fc9aa1"/><path d="m176.5 133.561c0 11.5-4.03 22.22-10.87 30.66-6.85 8.43-16.51 14.58-27.76 16.95l-37.37 7.87c-2.98-4.43-5.73-8.99-8.24-13.65l45.61-9.22c11.25-2.37 20.91-8.52 27.76-16.95 5.32-6.57 8.955-14.505 10.295-23.125.39 2.45.575 4.935.575 7.465z" fill="#756e78"/></g><g><path d="m415.851 186.648 47.489 99.574c26.58-34.36 37.617-70.432 37.617-113.872 0-28.77-4.508-55.819-15.468-81.809-6.697-15.881-23.469-45.278-23.469-45.278-6.615-8.847-13.948-17.222-21.96-25.032l-10.43-10.17c-1.01-.99-2.37-1.31-3.6-1.05l5.651 59.764c7.023 39.075-1.536 70.85-21.293 104.725-1.398 2.398 7.031 10.817 5.463 13.148z" fill="#fcb5ba"/><path d="m336.064 133.515c0 11.5 5.543 20.459 12.383 28.899 6.85 8.43 16.388 14.928 27.638 17.298l35.415 9.33c23.73-35.27 32.8-78.4 25.28-120.24l-10.75-59.79c-1.21.24-2.3 1.04-2.86 2.3l-13.09 29.68c-9.41 21.34-26.11 38.62-47.1 48.77-8.4 4.06-15.27 10.34-20.04 17.95-3.49 5.56-5.855 11.826-6.874 18.443 0-.001-.002 4.855-.002 7.36z" fill="#8b818e"/><path d="m419.75 175.391 36.265 72.023c2.586 5.135 9.922 5.139 12.512.006 14.359-28.465 21.973-60.2 21.973-92.608 0-29.54-5.81-58.45-16.77-85.14-3.52-8.58-7.58-16.93-12.14-24.99 10.58 14.06 19.35 29.33 26.14 45.43 10.96 25.99 16.77 54.15 16.77 82.92 0 38.206-11.159 75.459-31.931 107.258l.001.002c-.002.003-.005.003-.006.006-2.844 4.353-6.231 9.134-9.431 13.271l-9.783-20.827-41.85-83.7-.5-7.67z" fill="#fc9aa1"/><path d="m335.5 133.561c0 11.5 4.03 22.22 10.87 30.66 6.85 8.43 16.51 14.58 27.76 16.95l37.37 7.87c2.98-4.43 5.73-8.99 8.24-13.65l-45.61-9.22c-11.25-2.37-20.91-8.52-27.76-16.95-5.32-6.57-8.955-14.505-10.295-23.125-.39 2.45-.575 4.935-.575 7.465z" fill="#756e78"/></g></g><g><path d="m147 287.483c-4.142 0-7.5 3.358-7.5 7.5v15c0 4.142 3.358 7.5 7.5 7.5s7.5-3.358 7.5-7.5v-15c0-4.142-3.358-7.5-7.5-7.5z"/><path d="m365 317.483c4.142 0 7.5-3.358 7.5-7.5v-15c0-4.142-3.358-7.5-7.5-7.5s-7.5 3.358-7.5 7.5v15c0 4.142 3.358 7.5 7.5 7.5z"/><path d="m226.5 377.983c-4.142 0-7.5 3.358-7.5 7.5v15c0 4.142 3.358 7.5 7.5 7.5s7.5-3.358 7.5-7.5v-15c0-4.142-3.358-7.5-7.5-7.5z"/><path d="m285.5 377.983c-4.142 0-7.5 3.358-7.5 7.5v15c0 4.142 3.358 7.5 7.5 7.5s7.5-3.358 7.5-7.5v-15c0-4.142-3.358-7.5-7.5-7.5z"/><path d="m494.641 88.641c-11.519-27.313-28.123-51.652-49.351-72.343l-14.555-14.186c-3.224-3.142-9.704-3.033-12.103 2.359l-15.415 34.94c-8.683 19.682-24.131 35.676-43.5 45.037-15.113 7.304-26.028 21.09-30.034 37.022-47.844-15.979-99.524-15.979-147.368.001-3.57-14.224-12.642-26.803-25.421-34.523-3.547-2.142-8.156-1.004-10.298 2.541s-1.004 8.156 2.541 10.298c12.252 7.401 19.863 20.897 19.863 35.219 0 19.349-13.742 36.285-32.675 40.271l-32.329 6.806c-20.707-32.982-28.307-72.023-21.391-110.515l6.937-38.608 5.517 12.506c5.661 12.833 13.686 24.243 23.85 33.912 3.001 2.855 7.749 2.736 10.604-.265s2.736-7.749-.265-10.604c-8.722-8.297-15.607-18.087-20.465-29.099l-15.414-34.939c-1.66-4.289-8.469-6.251-12.104-2.359l-14.555 14.186c-21.228 20.69-37.832 45.03-49.351 72.343-11.518 27.313-17.359 56.192-17.359 85.835 0 43.741 14.377 86.894 40.537 121.913-6.088 20.026-5.929 41.065.504 61.105 6.845 21.322 20.123 39.433 38.399 52.374l101.696 72.008c11.522 18.081 31.737 30.108 54.72 30.108h40.287c22.983 0 43.197-12.027 54.72-30.108l50.63-35.85c3.38-2.394 4.181-7.075 1.787-10.455-2.395-3.381-7.076-4.181-10.455-1.787l-32.554 23.051c.478-3.168.729-6.409.729-9.708 0-6.803-2.833-12.953-7.375-17.346 20.007-11.559 33.274-34.748 30.509-59.821 37.112.762 68.776-29.886 68.616-67.476 0-37.22-30.28-67.5-67.5-67.5s-67.5 30.28-67.5 67.5c0 4.094.373 8.144 1.095 12.124-7.025-1.238-13.237-5.558-16.787-11.905-5.353-9.568-15.094-15.281-26.058-15.281-.001 0 0 0 0 0-10.963 0-20.706 5.713-26.059 15.281-3.55 6.347-9.762 10.667-16.787 11.905.723-3.98 1.096-8.03 1.096-12.124 0-37.22-30.28-67.5-67.5-67.5s-67.5 30.28-67.5 67.5c-.095 37.145 31.009 68.281 68.631 67.476-3.053 23.29 10.427 48.905 30.493 59.822-4.542 4.393-7.375 10.543-7.375 17.346 0 3.299.251 6.54.729 9.707l-83.62-59.209c-31.48-22.291-44.723-63.24-32.305-99.725l49.806-100.829 33.804-7.117c25.263-5.319 43.741-27.537 44.547-53.205 46.654-16.365 97.423-16.365 144.077 0 .805 25.668 19.284 47.887 44.547 53.205l33.804 7.117 49.784 100.764c12.458 36.501-.783 77.485-32.282 99.789l-22.466 15.908c-3.38 2.394-4.181 7.075-1.787 10.455 1.462 2.064 3.777 3.167 6.127 3.167 1.499 0 3.012-.448 4.328-1.379l22.466-15.908c18.276-12.941 31.554-31.052 38.399-52.374 6.436-20.046 6.592-41.093.5-61.117 8.149-10.904 15.229-22.638 21.041-34.944 1.769-3.745.167-8.215-3.579-9.984-3.745-1.769-8.215-.167-9.984 3.579-4.182 8.855-9.076 17.389-14.586 25.495l-44.229-89.521c2.822-4.431 5.421-8.965 7.806-13.585l33.703 28.771c1.413 1.206 3.144 1.796 4.866 1.796 2.119 0 4.224-.893 5.708-2.63 2.689-3.15 2.316-7.885-.834-10.574l-36.933-31.529c3.067-7.562 5.577-15.309 7.519-23.189l27.242 4.807c.441.078.879.116 1.312.116 3.571 0 6.735-2.56 7.377-6.198.72-4.079-2.003-7.969-6.083-8.689l-26.905-4.748c1.085-7.039 1.725-14.155 1.918-21.312l13.942-4.403c3.95-1.247 6.141-5.46 4.894-9.41s-5.461-6.14-9.41-4.894l-9.718 3.069c-.419-6.492-1.199-12.996-2.365-19.486l-7.127-39.663c38.142 38.348 59.968 91.087 59.968 145.225 0 16.572-2.187 33.087-6.499 49.086-1.078 4 1.291 8.115 5.29 9.193.654.176 1.31.26 1.957.26 3.307 0 6.335-2.205 7.237-5.55 4.655-17.272 7.015-35.1 7.015-52.99 0-29.642-5.841-58.521-17.359-85.834zm-218.497 408.342h-40.287c-27.491 0-49.856-22.366-49.856-49.856 0-5.042 4.102-9.144 9.144-9.144h13.004l9.27 16.222c4.926 8.621 13.982 13.568 23.388 13.568 3.526 0 7.102-.695 10.526-2.153 2.967-1.263 6.369-1.262 9.336 0 12.562 5.348 27.142.438 33.915-11.415l9.27-16.222h13.004c5.042 0 9.144 4.102 9.144 9.144-.002 27.49-22.368 49.856-49.858 49.856zm-24.83-70.389 4.686-5.066 4.686 5.066c6.66 7.199 16.09 11.341 25.893 11.385l-5.019 8.784c-3 5.25-9.457 7.422-15.018 5.055-6.699-2.851-14.383-2.85-21.082 0-5.562 2.364-12.018.194-15.018-5.055l-5.019-8.784c9.802-.044 19.231-4.186 25.891-11.385zm55.907-24.096c0 11.295-9.189 20.485-20.485 20.485-5.692 0-11.173-2.396-15.038-6.575l-8.197-8.862v-17.063c0-4.142-3.358-7.5-7.5-7.5s-7.5 3.358-7.5 7.5v17.063l-8.197 8.862c-3.865 4.178-9.346 6.575-15.039 6.575-11.295 0-20.485-9.19-20.485-20.485v-24.029c0-11.295 9.19-20.485 20.485-20.485 5.692 0 11.173 2.396 15.038 6.575 4.035 4.362 9.756 6.863 15.697 6.863s11.663-2.501 15.697-6.863c3.865-4.178 9.346-6.575 15.039-6.575 11.295 0 20.485 9.19 20.485 20.485zm58.029-152.515c28.949 0 52.5 23.551 52.5 52.5.065 30.397-26.554 55.139-57.295 52.279-3.065-7.974-7.808-15.303-14.079-21.532-8.808-8.751-19.828-14.585-31.804-16.997-1.207-4.459-1.822-9.067-1.822-13.75 0-28.949 23.551-52.5 52.5-52.5zm-218.5 105c-28.949 0-52.5-23.551-52.5-52.5s23.551-52.5 52.5-52.5 52.5 23.551 52.5 52.5c0 4.69-.618 9.304-1.829 13.77-20.971 4.288-38.213 19.106-45.779 38.499-1.624.149-3.258.231-4.892.231zm15.75 21.524c.081-25.208 20.966-46.067 46.568-46.524 14.079-.025 27.089-7.667 33.964-19.958 2.664-4.762 7.511-7.604 12.967-7.604s10.304 2.842 12.968 7.604c6.875 12.29 19.883 19.932 33.962 19.958 25.638.481 46.523 21.335 46.57 46.5 0 20.712-13.615 38.299-32.363 44.296 3.225-5.343 5.084-11.599 5.084-18.281v-24.029c0-19.567-15.918-35.485-35.485-35.485-9.859 0-19.354 4.151-26.05 11.389-1.222 1.321-2.886 2.049-4.686 2.049s-3.463-.728-4.686-2.049c-6.696-7.238-16.19-11.389-26.05-11.389-19.566 0-35.485 15.918-35.485 35.485v24.029c0 6.683 1.859 12.939 5.084 18.281-18.747-5.997-32.362-23.579-32.362-44.272zm-87.532-347.255-7.127 39.663c-1.166 6.49-1.946 12.993-2.365 19.485l-9.718-3.069c-3.951-1.249-8.163.943-9.41 4.894-1.248 3.95.943 8.163 4.894 9.41l13.942 4.403c.193 7.157.832 14.273 1.918 21.312l-26.905 4.748c-4.079.72-6.803 4.61-6.083 8.689.642 3.639 3.806 6.198 7.377 6.198.433 0 .872-.038 1.312-.116l27.242-4.807c1.942 7.88 4.452 15.627 7.519 23.189l-36.934 31.528c-3.15 2.689-3.524 7.423-.834 10.574 1.483 1.738 3.589 2.63 5.708 2.63 1.722 0 3.454-.59 4.866-1.796l33.703-28.771c2.385 4.62 4.984 9.155 7.806 13.585l-44.228 89.536c-21.125-31.128-32.651-68.36-32.651-106.061 0-54.138 21.827-106.877 59.968-145.224zm268.032 105.753c0-15.684 9.124-30.228 23.245-37.053 22.572-10.909 40.577-29.55 50.696-52.487l5.517-12.506 6.937 38.607c6.917 38.492-.683 77.534-21.391 110.516l-32.329-6.806c-18.933-3.985-32.675-20.922-32.675-40.271z"/></g></g></svg>