<svg id="Layer_1" enable-background="new 0 0 512.001 512.001" viewBox="0 0 512.001 512.001" xmlns="http://www.w3.org/2000/svg"><g><g><path d="m98.995 354.56-61.196-80.263-30.298-118.862s44.91 55.352 83.634 59.431c0 0 28.236 67.005 67.856 69.918 0 0 29.625 58.974 53.021 75.162l-82.737 20.976z" fill="#b5adb6"/><path d="m212.011 359.951-25.09 6.36h-.01c-23.4-16.21-59.16-80.69-59.16-80.69-39.62-2.91-56.24-55.62-56.24-55.62-16.51-1.74-35.96-15.54-52.86-30.81l-11.15-43.76s44.91 55.36 83.63 59.44c0 0 28.24 67 67.86 69.91 0 0 29.63 58.98 53.02 75.17z" fill="#a79ba7"/><path d="m28.757 443.122c2.511-3.537 5.519-7.747 8.797-12.283 6.282-8.69 10.242-31.264 12.112-44.635.917-6.576 4.926-12.296 10.768-15.424l9.935-5.308h-.001l-5.137-35.672c-.637-4.421 4.251-7.553 7.978-5.091 16.885 11.157 27.631 21.894 34.412 30.522l27.747 2.154h.012l89.71 6.991 160.733 59.4 49.668-5.493c3.612-.4 7.083 1.523 8.66 4.797 2.308 4.792-.263 10.507-5.38 11.959l-43.381 12.311c-7.025 1.994-14.427 2.264-21.579.787l-80.338-16.59s-29.614 35.249-57.334 47.239c-13.738 5.94-39.27.098-62.467-7.443-9.362-3.043-18.333-6.355-26.009-9.289-11.672-4.473-20.325-8.042-22.684-8.397-7.761-1.161-23.271-4.485-33.134 0-7.374 3.349-26.932 10.985-36.367 14.638-3.309 1.281-7.016.995-10.09-.776l-12.921-7.447c-5.991-3.452-7.713-11.312-3.71-16.95z" fill="#918291"/><g fill="#7a6d79"><path d="m262.971 431.892c-10.353 11.579-35.198 37.677-56.506 46.894-.591.256-1.212.482-1.846.694 12.54 2.264 23.863 2.616 31.521-.694 27.72-11.99 57.334-47.239 57.334-47.239l-18.083-3.752c-4.576-.949-9.305.613-12.42 4.097z"/><path d="m444.152 423.078c-1.577-3.274-5.048-5.197-8.66-4.797l-30.652 3.39c-.331 3.368-2.649 6.412-6.188 7.416l-34.709 9.851c-8.031 2.28-21.292 2.763-29.469 1.075l39.338 8.123c7.152 1.477 14.554 1.207 21.579-.787l43.382-12.313c5.116-1.451 7.687-7.166 5.379-11.958z"/></g><path d="m118.636 374.445s16.158 55.855 6.343 79.212l-6.343 19.201 29.028-10.804 10.914 42.215s8.788-14.251 15.094-32.927c5.867-17.392 9.57-38.622 1.992-55.769l17.099-17.087s-28.844-30.922-57.383-41.103h-.012l-27.747-2.154z" fill="#e08d63"/><path d="m175.661 415.571c7.58 17.15 3.88 38.38-1.99 55.77-6.31 18.68-15.09 32.93-15.09 32.93l-8.48-32.77c.02-.05.04-.11.06-.16 5.87-17.39 9.57-38.62 2-55.77l10.6-10.6c3.64-3.63 3.58-9.55-.14-13.09-10.17-9.67-50.76-34.5-50.76-34.5l-4.24-2.15 27.75 2.15h.01c28.54 10.18 57.38 41.11 57.38 41.11z" fill="#d77f4a"/><path d="m186.921 361.404 38.182 11.599 131.29 39.893c-33.782-60.732 76.401-83.22 76.401-83.22-18.187-77.953 57.163-144.991 57.163-144.991-31.705-81.583 14.544-176.952 14.544-176.952-50.869 6.808-152.068 94.819-195.774 134.81-13.004 11.904-20.924 19.543-20.924 19.543z" fill="#b5adb6"/><path d="m504.501 7.733c-10.192 1.364-22.408 5.994-35.774 12.838-12.834 29.175-39.485 102.879-14.71 166.629 0 0-68.21 40.312-50.023 118.265 0 0-98.592 41.469-81.704 97.069l34.104 10.363c-33.782-60.732 76.4-83.22 76.4-83.22-18.187-77.953 57.163-144.991 57.163-144.991-31.705-81.584 14.544-176.953 14.544-176.953z" fill="#a79ba7"/><path d="m186.921 361.404 38.182 11.599 59.211-128.886 24.413-101.575c-13.004 11.904-20.924 19.543-20.924 19.543z" fill="#7a6d79"/></g><g><path d="m73.12 400.685c-4.142 0-7.5 3.358-7.5 7.5v9.424c0 4.142 3.358 7.5 7.5 7.5s7.5-3.358 7.5-7.5v-9.424c0-4.142-3.358-7.5-7.5-7.5z"/><path d="m481.689 84.397c4.069.734 7.979-1.963 8.72-6.039 6.981-38.418 20.704-67.072 20.84-67.353 1.205-2.484.947-5.43-.671-7.667-1.619-2.237-4.337-3.408-7.072-3.039-23.353 3.125-58.37 22.099-104.08 56.396-36.677 27.519-72.32 58.865-95.764 80.316-12.927 11.833-20.987 19.6-21.067 19.677-.604.583-1.106 1.263-1.485 2.012l-35.528 70.195-17.468-2.239c-4.112-.528-7.866 2.377-8.393 6.485s2.377 7.866 6.485 8.393l12.188 1.562-55.898 110.442c-16.051-1.254-55.52-4.333-71.082-5.535-7.086-8.482-15.981-16.634-26.541-24.329l-27.513-36.086c30.89 6.053 69.279 6.174 97.197 4.946 2.755 5.23 7.825 14.582 14.198 25.094 2.148 3.543 6.761 4.673 10.302 2.525 3.542-2.147 4.673-6.76 2.525-10.302-9.228-15.221-15.826-28.307-15.891-28.438-1.174-2.319-3.561-3.911-6.152-4.112-28.682-2.106-54.119-47.885-61.499-65.343-1.016-2.489-3.466-4.282-6.125-4.545-14.217-1.499-32.187-11.61-51.966-29.243-15.471-13.792-26.518-27.33-26.626-27.463-2.22-2.736-6.044-3.559-9.191-1.977-3.147 1.582-4.771 5.141-3.9 8.554l27.915 109.513h-6.813c-4.142 0-7.5 3.358-7.5 7.5s3.358 7.5 7.5 7.5h12.749l28.433 37.293c-3.576 2.8-5.369 7.198-4.709 11.778l4.388 30.466-5.303 2.833c-7.936 4.25-13.415 12.101-14.655 20.997-2.866 20.49-6.889 35.922-10.764 41.282-3.291 4.555-6.311 8.782-8.833 12.333-3.127 4.405-4.259 9.958-3.105 15.236 1.154 5.28 4.502 9.856 9.185 12.555l12.92 7.446c2.968 1.711 6.268 2.578 9.589 2.578 2.344 0 4.699-.433 6.955-1.306 10.553-4.086 29.361-11.442 36.764-14.805 5.097-2.318 13.329-1.711 20.131-.775l-3.567 10.796c-.904 2.738-.159 5.753 1.918 7.754 2.077 2 5.115 2.632 7.82 1.627l21.232-7.903 8.832 34.162c.752 2.91 3.17 5.09 6.142 5.539.375.057.749.084 1.121.084 2.574 0 5.003-1.328 6.382-3.563.33-.536 7.234-11.809 13.315-27.557 17.886 5.423 32.142 8.111 43.344 8.11 6.96 0 12.745-1.035 17.496-3.089 24.084-10.417 48.733-36.482 57.13-45.892l76.048 15.704c8.298 1.713 16.992 1.396 25.144-.917l43.381-12.312c4.574-1.298 8.316-4.529 10.267-8.865s1.886-9.28-.177-13.562c-2.951-6.13-9.477-9.746-16.242-8.999l-47.906 5.299-25.065-9.264c-5.022-10.119-5.578-19.184-1.695-27.641 5.425-11.816 19.728-22.811 41.362-31.796 17.144-7.12 32.778-10.369 32.93-10.4 4.029-.749 6.814-5.074 5.804-9.053-7.047-30.207-.113-62.409 20.609-95.713 15.791-25.378 34.057-41.811 34.236-41.97 2.308-2.02 3.137-5.47 2.005-8.32-7.964-20.493-11.468-43.866-10.414-69.47.17-4.139-3.046-7.632-7.185-7.802-4.127-.161-7.631 3.047-7.802 7.185-.975 23.693 1.709 45.715 7.966 65.637-11.968.61-33.336 2.336-59.679 7.222-33.233 6.164-80.188 18.647-124.01 43.585l19.659-81.794c23.198-21.166 57.619-51.33 92.947-77.837 34.45-25.848 62.836-42.866 83.298-50.028-4.9 12.657-11.689 32.866-16.077 57.011-.738 4.076 1.965 7.98 6.041 8.721zm-187.773 82.218c.561-.536 1.104-1.053 1.702-1.621l-18.425 76.659-56.173 122.272-23.375-7.101zm-167.431 111.498c-23.619-.04-55.371-1.505-77.613-7.956 6.648-10.732 20.483-30.554 39.164-44.207 3.351 6.735 8.811 16.81 16.029 27.093 7.308 10.412 14.794 18.773 22.42 25.07zm-52.801-60.022c-14.487 11.874-25.734 26.3-33.02 37.078l-18.65-73.169c13.561 13.099 32.372 28.597 51.67 36.091zm15.059 228.737c-7.325 3.328-27.597 11.229-35.973 14.473-1.197.464-2.523.362-3.637-.28l-12.921-7.446c-1.411-.813-1.872-2.08-2.021-2.763-.149-.682-.259-2.023.682-3.348 2.501-3.522 5.496-7.715 8.76-12.231 5.553-7.682 10.083-23.828 13.462-47.994.582-4.171 3.153-7.852 6.874-9.845l9.935-5.309c2.784-1.488 4.339-4.56 3.889-7.684l-4.391-30.493c11.558 8.103 20.961 16.694 28.021 25.587 14.703 21.395 21.331 56.656 18.258 85.722-9.218-1.42-21.42-2.716-30.938 1.611zm72.168 36.505-5.987-23.157c-.987-4.207-5.867-6.749-9.877-5.151l-14.391 5.356c12.155-32.171-1.259-82.927-9.475-96.577l12.598.978c19.392 7.245 39.276 24.914 48.383 33.695l-11.799 11.791c-2.192 2.19-2.811 5.502-1.559 8.337 8.631 21.309.201 45.773-7.893 64.728zm225.737-52.104 49.668-5.494c.453-.055.882.19 1.079.598.143.297.147.6.012.9-.135.301-.364.499-.682.589l-43.382 12.313c-5.84 1.657-12.069 1.884-18.015.657l-80.338-16.59c-2.695-.554-5.485.411-7.257 2.519-.286.339-28.828 34.046-54.57 45.181-6.108 2.641-19.746 3.656-50.12-5.485 5.37-18.97 5.835-35.397 1.363-48.977l13.658-13.648c2.859-2.857 2.94-7.465.183-10.421-.785-.841-12.989-13.815-29.493-25.861l16.767 1.308 168.487 51.193 29.215 10.798c1.094.404 2.267.547 3.425.42zm-40.27-58.288c-4.13 8.983-5.019 18.442-2.675 28.261l-108.199-32.875 53.183-115.764c26.159 5.511 57.604 20.816 91.398 44.542 15.638 10.979 28.705 21.613 37.163 28.833-20.859 6.15-58.735 20.608-70.87 47.003zm124.922-179.815c-6.767 7.645-15.166 18.143-23.106 30.847-18.235 29.178-26.89 58.825-25.545 86.878-8.501-7.091-20.112-16.301-33.763-25.894-30.986-21.776-59.463-36.516-84.941-44.002 63.054-35.678 134.314-45.261 167.355-47.829z"/></g></g><g/><g/><g/><g/><g/><g/><g/><g/><g/><g/><g/><g/><g/><g/><g/></svg>