<svg id="Layer_1" enable-background="new 0 0 512 512" height="512" viewBox="0 0 512 512" width="512" xmlns="http://www.w3.org/2000/svg"><g><path d="m198.077 107.485h-83.77c0-23.13 18.75-41.88 41.88-41.88s41.89 18.75 41.89 41.88z" fill="#616262"/><path d="m198.097 115.485c-.008 0-.014 0-.02 0h-83.77c-4.418 0-8-3.582-8-8 0-27.504 22.376-49.88 49.88-49.88 27.301 0 49.551 22.041 49.886 49.258.016.206.024.413.024.622 0 4.419-3.582 8-8 8zm-74.836-16h65.862c-3.605-14.834-17.004-25.88-32.936-25.88-15.927 0-29.322 11.046-32.926 25.88z"/></g><g><path d="m457.955 286.44h-403.911-9.946v46.193c0 44.923 27.122 85.304 70.261 113.15h283.284c43.139-27.847 70.26-68.228 70.26-113.15v-46.193z" fill="#488fcc"/><path d="m397.643 453.784h-283.285c-1.539 0-3.045-.444-4.339-1.278-46.979-30.326-73.922-74.018-73.922-119.872v-46.194c0-4.418 3.582-8 8-8h423.805c4.418 0 8 3.582 8 8v46.193c0 45.855-26.943 89.547-73.921 119.872-1.293.835-2.799 1.279-4.338 1.279zm-280.901-16h278.517c41.116-27.245 64.644-65.459 64.644-105.15v-38.194h-407.805v38.193c0 39.691 23.527 77.906 64.644 105.151z"/></g><g><g><path d="m164.564 479.56h-35.625v-33.776h45.035z" fill="#95c8ec"/><path d="m164.564 487.56h-35.625c-4.418 0-8-3.582-8-8v-33.775c0-4.418 3.582-8 8-8h45.034c2.501 0 4.858 1.17 6.371 3.161 1.512 1.992 2.007 4.576 1.335 6.985l-9.409 33.775c-.963 3.46-4.114 5.854-7.706 5.854zm-27.625-16h21.549l4.952-17.775h-26.501z"/></g><g><path d="m383.061 479.56h-35.625l-9.409-33.776h45.034z" fill="#95c8ec"/><path d="m383.061 487.56h-35.625c-3.592 0-6.743-2.394-7.707-5.854l-9.408-33.775c-.671-2.409-.177-4.993 1.336-6.985 1.513-1.991 3.87-3.161 6.371-3.161h45.033c4.418 0 8 3.582 8 8v33.775c0 4.418-3.582 8-8 8zm-29.549-16h21.549v-17.775h-26.5z"/></g></g><g><path d="m34.387 250.5h443.227v35.94h-443.227z" fill="#95c8ec"/><path d="m477.613 294.44h-443.226c-4.418 0-8-3.582-8-8v-35.94c0-4.418 3.582-8 8-8h443.227c4.418 0 8 3.582 8 8v35.94c-.001 4.418-3.583 8-8.001 8zm-435.226-16h427.227v-19.94h-427.227z"/></g><g><g><path d="m69.667 258.501c-4.418 0-8-3.582-8-8v-218.061c0-4.418 3.582-8 8-8h86.524c4.418 0 8 3.582 8 8v27.608c0 4.418-3.582 8-8 8s-8-3.582-8-8v-19.608h-70.524v210.06c0 4.419-3.582 8.001-8 8.001z"/></g></g></svg>