<svg clip-rule="evenodd" fill-rule="evenodd" height="1.707in" image-rendering="optimizeQuality" shape-rendering="geometricPrecision" text-rendering="geometricPrecision" viewBox="0 0 1.70666 1.70666" width="1.707in" xmlns="http://www.w3.org/2000/svg"><g id="Layer_x0020_1"><path d="m1.1255.316472h-.544366l-.00072047-.00001575h-.0439724v.00001575c-.040937 0-.0743465.0327874-.075374.0734843h.784504c-.00101969-.0407047-.0344488-.0735-.075374-.0735h-.0439764l-.00072047.00001575zm-.564366-.0400157v-.0943189c0-.0110394.00896063-.02.02-.02h.0666654v-.0796496c0-.0454724.032752-.0824724.0730118-.0824724l.26376.00000394c.0409606 0 .0742913.0376693.0742913.0839843v.0781339h.0666378c.0110354 0 .0199961.00896063.0199961.02v.0943189h.0247008c.0636339 0 .115413.0517795.115413.115417v1.19936c-.00001575.0636496-.0517795.115413-.115413.115413h-.633756c-.0636339 0-.115398-.0517795-.115398-.115413v-.0175512l-.00000787-.00050787v-.101189-.960862-.101165-.00000787-.0180748c0-.0636378.0517795-.115417.115402-.115417h.0246969zm.04 0h.504354v-.0743189h-.0666378-.371051-.0666654v.0743189zm-.140091.1535v.0611654h.784535v-.0611654zm0 .101165v.920862h.784535v-.920862zm0 .960862v.0611772h.784535v-.0611772zm.00002362.101189c.00102756.0406811.0344528.0734724.075374.0734724h.633756c.0409213 0 .0743465-.0327913.075374-.0734724zm.664862-.22215h-.545209c-.0213504 0-.0387244-.017374-.0387244-.0387087v-.119315c0-.0213504.0173583-.0387244.0387244-.0387244h.545209c.0213465 0 .0387244.017374.0387244.0387244v.119315c0 .0213346-.0173622.0387087-.0387244.0387087zm-.543933-.04h.542642v-.11672l-.542642.00000394v.116717zm.543933-.237693h-.545209c-.0213504 0-.0387244-.017374-.0387244-.0387047v-.119307c0-.0213504.0173583-.0387244.0387244-.0387244l.545209.00000787c.0213465 0 .0387244.017374.0387244.0387205v.119307c0 .0213346-.0173622.0387008-.0387244.0387008zm-.543933-.0400079h.542642v-.116709h-.542642zm.105787-.891185h.00001575.331051v-.0781496c0-.0238465-.0156969-.0439843-.0342795-.0439843h-.263776c-.0178976 0-.0330118.0194606-.0330118.0424882v.0796457zm.165524.666717c-.0110394 0-.02-.00896063-.02-.02v-.0749882h-.0749685c-.0110394 0-.02-.00896063-.02-.0199961 0-.0110394.00896063-.02.02-.02h.0749685v-.0749961c0-.0110394.00896063-.02.02-.02.0110394 0 .02.00896063.02.02v.0749961h.0750118c.0110394 0 .02.00896063.02.02 0 .0110354-.0089685.0199961-.0200079.0199961h-.0750039v.0749882c.00001575.0110394-.00895276.02-.02.02z" fill="#000002"/><path d="m.601138.276457h.504352v-.074319h-.06664-.371047-.066665z" fill="#607d8b"/><path d="m1.125504.31647275h-.544366l-.00072047-.00001575-.0439724.00001575c-.040937 0-.0743465.0327874-.075374.0734843h.784504c-.00101969-.0407047-.0344488-.0735-.075374-.0735h-.0439764l-.00072047.00001575z" fill="#556d78"/><path d="m1.24558.429957h-.784533v.061165h.784533z" fill="#607d8b"/><path d="m1.24558.531122h-.784535v.920862h.784535zm-.664858.365472.545209.00000787c.0213465 0 .0387244.017374.0387244.0387205v.119307c0 .0213346-.0173622.0387008-.0387244.0387008h-.545209c-.0213504 0-.0387244-.017374-.0387244-.0387047v-.119307c0-.0213504.0173583-.0387244.0387244-.0387244zm0 .277681h.545209c.0213465 0 .0387244.017374.0387244.0387244v.119315c0 .0213346-.0173622.0387087-.0387244.0387087h-.545209c-.0213504 0-.0387244-.017374-.0387244-.0387087v-.119315c0-.0213504.0173583-.0387244.0387244-.0387244zm.292587-.365421c.00001575.0110394-.00895276.02-.02.02-.0110394 0-.02-.00896063-.02-.02v-.0749882h-.0749685c-.0110394 0-.02-.00896063-.02-.0199961 0-.0110394.00896063-.02.02-.02h.0749685v-.0749961c0-.0110394.00896063-.02.02-.02.0110394 0 .02.00896063.02.02v.0749961h.0750118c.0110394 0 .02.00896063.02.02 0 .0110354-.0089685.0199961-.0200079.0199961h-.0750039z" fill="#f8f8f8"/><path d="m1.12464.936614h-.54264v.116706h.54264z" fill="#06c458"/><path d="m1.12464 1.2143-.54264.00001v.11671h.54264z" fill="#8ad64d"/><path d="m1.24558 1.49198h-.784533v.06118h.784533z" fill="#607d8b"/><path d="m1.24557 1.59317h-.784504c.00102756.0406811.0344528.0734724.075374.0734724h.633756c.0409213 0 .0743465-.0327913.075374-.0734724z" fill="#556d78"/></g></svg>