<svg height="512" viewBox="0 0 128 128" width="512" xmlns="http://www.w3.org/2000/svg"><g><g><g fill="#385b60"><path d="m46.738 85.565h9v27.854h-9z" transform="matrix(.707 -.707 .707 .707 -55.344 65.372)"/><path d="m66.401 64.659h9v21.854h-9z" transform="matrix(.707 -.707 .707 .707 -32.681 72.273)"/><path d="m23.411 65.375h30v6h-30z" transform="matrix(.707 -.707 .707 .707 -37.098 47.188)"/></g><path d="m15.304 69.951h73.488v12h-73.488z" fill="#537980" transform="matrix(.707 -.707 .707 .707 -38.461 59.05)"/><path d="m35.937 100.548-10.389 14.632-12.728-12.728 14.632-10.389z" fill="#95d70b"/><path d="m85.325 53.871s13.74-10.823 21.51-18.592c5.053-5.054 10.909-16.879 14.386-24.531a3 3 0 0 0 -3.97-3.969c-7.651 3.477-19.476 9.333-24.53 14.386-7.769 7.77-18.592 21.51-18.592 21.51z" fill="#95d70b"/><path d="m24.789 120.182a4.5 4.5 0 0 1 -6.364 0l-10.607-10.607a4.5 4.5 0 0 1 0-6.364 4.5 4.5 0 0 1 6.364 0l10.607 10.607a4.5 4.5 0 0 1 0 6.364z" fill="#385b60"/><path d="m85.455 57.394a3 3 0 0 1 -4.242 0l-10.607-10.607a3 3 0 0 1 0-4.242 3 3 0 0 1 4.243 0l10.606 10.606a3 3 0 0 1 0 4.243z" fill="#90c202"/></g><g fill="#102a3f"><path d="m50.977 103.122a1.75 1.75 0 1 0 -2.477 2.478l2.461 2.462a1.75 1.75 0 1 0 2.474-2.475z"/><path d="m121.849 6.151a4.705 4.705 0 0 0 -5.324-.964c-8.625 3.924-19.973 9.665-25.043 14.736-6.161 6.16-14.2 16.006-17.543 20.168a4.731 4.731 0 0 0 -5.962 4.575 4.7 4.7 0 0 0 1.235 3.167l-18.07 18.067-1.767-1.77 1.782-1.783a1.746 1.746 0 0 0 2.28-2.634l-6.364-6.363a1.746 1.746 0 0 0 -2.633 2.28l-2.124 2.123a1.75 1.75 0 0 0 2.475 2.475l2.109-2.105 1.769 1.767-18.743 18.738-1.768-1.768 10.033-10.032a1.75 1.75 0 1 0 -2.474-2.475l-10.051 10.047a1.746 1.746 0 0 0 -2.28 2.633l6.364 6.367a1.746 1.746 0 0 0 2.633-2.281l1.786-1.786 1.767 1.767-9.619 9.617-13.61 9.665a6.272 6.272 0 0 0 -1.707-.238 6.249 6.249 0 0 0 -4.419 10.669l10.606 10.606a6.25 6.25 0 0 0 8.839 0 6.251 6.251 0 0 0 1.589-6.124l9.667-13.613 3.653-3.653 2.878 2.879a1.75 1.75 0 0 0 2.475-2.475l-2.879-2.879 3.89-3.89 14.495 14.5-3.894 3.882-.6-.6a1.75 1.75 0 1 0 -2.475 2.474l1.838 1.838a1.749 1.749 0 0 0 2.474 0l6.369-6.36a1.75 1.75 0 0 0 0-2.475l-9.372-9.372.881-.881a7.744 7.744 0 0 0 0-10.967l-.88-.88 6.579-6.581 11.5 11.486a1.749 1.749 0 0 0 2.474 0l6.36-6.36a1.75 1.75 0 0 0 0-2.474l-11.492-11.494 8.611-8.612a4.711 4.711 0 0 0 7.741-4.729c4.162-3.341 14.008-11.382 20.169-17.542a47.6 47.6 0 0 0 6.623-9.15 1.751 1.751 0 0 0 -3.014-1.782 44.218 44.218 0 0 1 -6.084 8.456c-5.937 5.939-15.434 13.712-19.668 17.115l-9.09-9.091c3.4-4.233 11.176-13.731 17.113-19.667 3.667-3.667 12.2-8.648 24.02-14.026a1.221 1.221 0 0 1 1.4.254 1.2 1.2 0 0 1 .253 1.4c-1.2 2.644-2.412 5.18-3.6 7.537a1.75 1.75 0 1 0 3.127 1.571c1.2-2.4 2.435-4.974 3.654-7.657a4.7 4.7 0 0 0 -.962-5.326zm-44.174 50.18-9.845 9.848-31.89 31.9-6.015-6.019 41.745-41.735zm-41.031 20.528 10.256-10.259 1.768 1.768-10.257 10.259zm-13.092 42.085a2.817 2.817 0 0 1 -3.89 0l-10.606-10.607a2.749 2.749 0 0 1 3.888-3.888l10.608 10.606a2.755 2.755 0 0 1 0 3.889zm2.021-6.817-9.7-9.7 11.385-8.085 6.4 6.4zm28.97-25.95a4.243 4.243 0 0 1 0 6.015l-.883.883-3.887-3.886 3.89-3.891zm24.792-6.047-3.886 3.886-10.257-10.25 3.89-3.89zm4.883-23.973a1.283 1.283 0 0 1 -1.768 0l-10.606-10.608a1.249 1.249 0 1 1 1.767-1.767l10.607 10.607a1.251 1.251 0 0 1 0 1.768z"/><path d="m88.644 31.846c-1.091 1.25-2.168 2.5-3.2 3.72a1.751 1.751 0 0 0 2.674 2.26c1.016-1.2 2.079-2.442 3.158-3.677a1.75 1.75 0 0 0 -2.636-2.3z"/></g></g></svg>