<svg id="Layer_1" enable-background="new 0 0 512 512" height="512" viewBox="0 0 512 512" width="512" xmlns="http://www.w3.org/2000/svg"><g id="XMLID_1_"><g id="XMLID_3966_"><circle id="XMLID_1690_" cx="256" cy="256" fill="#ffc96f" r="251"/><path id="XMLID_2170_" d="m382.7 39.3c21.8 37.2 34.3 80.5 34.3 126.7 0 138.6-112.4 251-251 251-46.2 0-89.5-12.5-126.7-34.3 43.6 74.4 124.3 124.3 216.7 124.3 138.6 0 251-112.4 251-251 0-92.4-49.9-173.1-124.3-216.7z" fill="#ffb234"/><path id="XMLID_1689_" d="m375.5 136.5c-161.8-161.8-297-58-297-58 62.6-62.6 150-85.2 230.5-67.9 41.8 35.5 66.3 78.8 66.5 125.9z" fill="#d84861"/><path id="XMLID_1688_" d="m433.5 433.5s103.8-135.2-58-297c47.1.2 90.4 24.7 125.9 66.5 17.3 80.5-5.3 167.9-67.9 230.5z" fill="#c22945"/><path id="XMLID_1686_" d="m201 500.9c-44.9-10-87.6-32.5-122.5-67.4s-57.4-77.6-67.4-122.5c112.1-139 323.8-174.6 364.4-174.5.1 40.6-35.4 252.3-174.5 364.4z" fill="#d84861"/><ellipse id="XMLID_1687_" cx="375.5" cy="136.5" fill="#cde9fe" rx="60" ry="40" transform="matrix(.707 .707 -.707 .707 206.501 -225.54)"/><ellipse id="XMLID_2228_" cx="125.8" cy="125.8" fill="#ffdca4" rx="60" ry="24.9" transform="matrix(.707 -.707 .707 .707 -52.106 125.794)"/><path id="XMLID_762_" d="m166 417c-46.2 0-89.5-12.5-126.8-34.3 10.6 18.1 23.7 35.2 39.3 50.8 34.9 34.9 77.6 57.4 122.5 67.4 42.8-34.5 75.8-78.4 100.9-123.9-39.1 25.3-85.8 40-135.9 40z" fill="#c22945"/></g><g id="XMLID_3612_"><g id="XMLID_426_"><path id="XMLID_3399_" d="m256 512c-68.4 0-132.7-26.6-181-75-48.4-48.3-75-112.6-75-181s26.6-132.7 75-181c48.3-48.4 112.6-75 181-75s132.7 26.6 181 75c48.4 48.4 75 112.6 75 181s-26.6 132.7-75 181c-48.3 48.4-112.6 75-181 75zm0-502c-135.6 0-246 110.4-246 246s110.4 246 246 246 246-110.4 246-246-110.4-246-246-246z" fill="#4d2419"/></g><g id="XMLID_511_"><path id="XMLID_3398_" d="m351.3 67.7c-10.8-18.9-26.2-36.8-45.5-53.3l6.5-7.6c20.2 17.2 36.3 36 47.7 55.9z" fill="#4d2419"/></g><g id="XMLID_514_"><path id="XMLID_3397_" d="m327.3 101.4c-71.2-52.4-134.1-54.8-174.4-47.5-43.8 7.9-71.1 28.5-71.4 28.7l-6.1-7.9c1.2-.9 29.2-22.1 75.2-30.5 27-4.9 54.5-4.4 81.9 1.6 34.1 7.5 68 23.5 100.7 47.6z" fill="#4d2419"/></g><g id="XMLID_2479_"><path id="XMLID_3396_" d="m437.5 436.5-7.9-6.1c.2-.3 20.8-27.6 28.7-71.4 7.3-40.3 4.9-103.2-47.5-174.4l8.1-5.9c24.1 32.7 40.1 66.6 47.6 100.7 6 27.4 6.6 54.9 1.6 81.9-8.6 46-29.8 74.1-30.6 75.2z" fill="#4d2419"/></g><g id="XMLID_2477_"><path id="XMLID_3395_" d="m497.5 206.2c-22.5-26.4-47.4-45.1-73.9-55.4l3.6-9.3c28.1 10.9 54.3 30.5 77.9 58.3z" fill="#4d2419"/></g><g id="XMLID_86_"><path id="XMLID_3392_" d="m395.2 192.5c-3.4 0-7-.4-10.7-1.1-14.3-2.9-28.8-11.1-40.8-23.1s-20.2-26.5-23.1-40.8c-3-15 .2-28.2 8.9-36.9 8.8-8.8 21.9-12 36.9-8.9 14.3 2.9 28.8 11.1 40.8 23.1s20.2 26.5 23.1 40.8c3 15-.2 28.2-8.9 36.9-6.6 6.6-15.6 10-26.2 10zm-39.4-102c-7.9 0-14.5 2.4-19.2 7.1-6.3 6.3-8.5 16.2-6.2 27.9 2.5 12.4 9.7 25.1 20.3 35.7 21.4 21.4 50 27.8 63.6 14.1 6.3-6.3 8.5-16.2 6.2-27.9-2.5-12.4-9.7-25.1-20.3-35.7s-23.3-17.9-35.7-20.3c-3-.6-5.9-.9-8.7-.9z" fill="#4d2419"/></g><g id="XMLID_2478_"><path id="XMLID_3391_" d="m28.3 298.6-7.4-6.7c101.6-111.5 262.1-147 308.9-155.2l1.7 9.8c-46 8.1-203.8 43-303.2 152.1z" fill="#4d2419"/></g><g id="XMLID_513_"><path id="XMLID_3390_" d="m204.2 504.8-6.3-7.8c121-97.6 158.8-267 167.6-316.5l9.8 1.7c-8.9 50.5-47.4 222.9-171.1 322.6z" fill="#4d2419"/></g></g></g></svg>