<svg id="Beach_Towel" enable-background="new 0 0 64 64" viewBox="0 0 64 64" xmlns="http://www.w3.org/2000/svg"><g><g fill="#101016"><path d="m14.79991 12.91493c-.49132 0-.88889-.39757-.88889-.88889v-11.13715c0-.49132.39757-.88889.88889-.88889s.88889.39757.88889.88889v11.13715c0 .49132-.39757.88889-.88889.88889z"/><path d="m21.73655 12.91493c-.49132 0-.88889-.39757-.88889-.88889v-11.13715c0-.49132.39757-.88889.88889-.88889s.88889.39757.88889.88889v11.13715c-.00001.49132-.39757.88889-.88889.88889z"/><path d="m28.67318 12.91493c-.49132 0-.88889-.39757-.88889-.88889v-11.13715c0-.49132.39757-.88889.88889-.88889s.88889.39757.88889.88889v11.13715c0 .49132-.39757.88889-.88889.88889z"/><path d="m35.60981 12.91493c-.49132 0-.88889-.39757-.88889-.88889v-11.13715c0-.49132.39757-.88889.88889-.88889s.88889.39757.88889.88889v11.13715c0 .49132-.39757.88889-.88889.88889z"/><path d="m42.54557 12.91493c-.49132 0-.88889-.39757-.88889-.88889v-11.13715c0-.49132.39757-.88889.88889-.88889s.88889.39757.88889.88889v11.13715c0 .49132-.39757.88889-.88889.88889z"/><path d="m49.48307 12.91493c-.49132 0-.88889-.39757-.88889-.88889v-11.13715c0-.49132.39757-.88889.88889-.88889s.88889.39757.88889.88889v11.13715c0 .49132-.39757.88889-.88889.88889z"/></g><g fill="#101016"><path d="m14.79991 64c-.49132 0-.88889-.39757-.88889-.88889v-11.13889c0-.49132.39757-.88889.88889-.88889s.88889.39757.88889.88889v11.13889c0 .49132-.39757.88889-.88889.88889z"/><path d="m21.73655 64c-.49132 0-.88889-.39757-.88889-.88889v-11.13889c0-.49132.39757-.88889.88889-.88889s.88889.39757.88889.88889v11.13889c-.00001.49132-.39757.88889-.88889.88889z"/><path d="m28.67318 64c-.49132 0-.88889-.39757-.88889-.88889v-11.13889c0-.49132.39757-.88889.88889-.88889s.88889.39757.88889.88889v11.13889c0 .49132-.39757.88889-.88889.88889z"/><path d="m35.60981 64c-.49132 0-.88889-.39757-.88889-.88889v-11.13889c0-.49132.39757-.88889.88889-.88889s.88889.39757.88889.88889v11.13889c0 .49132-.39757.88889-.88889.88889z"/><path d="m42.54557 64c-.49132 0-.88889-.39757-.88889-.88889v-11.13889c0-.49132.39757-.88889.88889-.88889s.88889.39757.88889.88889v11.13889c0 .49132-.39757.88889-.88889.88889z"/><path d="m49.48307 64c-.49132 0-.88889-.39757-.88889-.88889v-11.13889c0-.49132.39757-.88889.88889-.88889s.88889.39757.88889.88889v11.13889c0 .49132-.39757.88889-.88889.88889z"/></g><g><path d="m47.41212 59.96541h-30.82602c-2.18713 0-3.96014-1.77302-3.96014-3.96014v-48.01063c0-2.18713 1.77302-3.96014 3.96014-3.96014h30.82602c2.18713 0 3.96014 1.77302 3.96014 3.96014v48.01063c0 2.18712-1.77302 3.96014-3.96014 3.96014z" fill="#79b6ef"/><path d="m12.629 12.026h38.743v7.995h-38.743z" fill="#f0f0fc"/><path d="m12.629 28.002h38.743v7.995h-38.743z" fill="#f0f0fc"/><path d="m12.629 43.992h38.743v7.98h-38.743z" fill="#f0f0fc"/><path d="m51.36578 7.99332v48.01162c0 2.18055-1.76344 3.96298-3.96298 3.96298h-19.32221c11.6426-6.1469 19.07446-36.72385 10.94107-55.93769h8.38114c2.19953 0 3.96298 1.78242 3.96298 3.96309z" opacity=".1"/><g fill="#101016"><path d="m51.3737 20.91059h-38.74393c-.49132 0-.88889-.39757-.88889-.88889v-7.99566c0-.49132.39757-.88889.88889-.88889h38.74393c.49132 0 .88889.39757.88889.88889v7.99566c0 .49132-.39757.88889-.88889.88889zm-37.85504-1.77778h36.96615v-6.21788h-36.96615z"/><path d="m51.3737 36.88542h-38.74393c-.49132 0-.88889-.39757-.88889-.88889v-7.99479c0-.49132.39757-.88889.88889-.88889h38.74393c.49132 0 .88889.39757.88889.88889v7.99479c0 .49132-.39757.88889-.88889.88889zm-37.85504-1.77778h36.96615v-6.21701h-36.96615z"/><path d="m51.3737 52.86111h-38.74393c-.49132 0-.88889-.39757-.88889-.88889v-7.97916c0-.49132.39757-.88889.88889-.88889h38.74393c.49132 0 .88889.39757.88889.88889v7.97916c0 .49132-.39757.88889-.88889.88889zm-37.85504-1.77778h36.96615v-6.20139h-36.96615z"/><path d="m47.41189 60.85417h-30.82552c-2.67361 0-4.84896-2.17535-4.84896-4.84896v-48.01042c0-2.67361 2.17535-4.84896 4.84896-4.84896h30.82552c2.67361 0 4.84896 2.17535 4.84896 4.84896v48.01041c0 2.67362-2.17535 4.84897-4.84896 4.84897zm-30.82552-55.93056c-1.69358 0-3.07118 1.3776-3.07118 3.07118v48.01041c0 1.69271 1.3776 3.07118 3.07118 3.07118h30.82552c1.69271 0 3.07118-1.37847 3.07118-3.07118v-48.01041c0-1.69358-1.37848-3.07118-3.07118-3.07118z"/></g></g></g></svg>