<svg id="color_Line_copy" height="512" viewBox="0 0 256 256" width="512" xmlns="http://www.w3.org/2000/svg" data-name="color Line copy"><g fill="#2a8bbe"><path d="m90.022 94.941h11v117.036h-11z"/><path d="m152.8569 162.1394a62.8347 62.8347 0 1 1 62.8348-62.8348 62.9058 62.9058 0 0 1 -62.8348 62.8348zm0-114.6694a51.8347 51.8347 0 1 0 51.8348 51.8345 51.8932 51.8932 0 0 0 -51.8348-51.8345z"/><path d="m215.692 94.941v117.036h-11v-117.036"/></g><path d="m136.993 143.846h25.6v25.6h-25.6z" fill="#1da441" transform="matrix(.995 .098 -.098 .995 16.148 -13.985)"/><rect fill="#b22d28" height="29.53" rx="9.464" transform="matrix(.886 .463 -.463 .886 83.429 -41.467)" width="18.929" x="116.678" y="134.365"/><path d="m168.6662 211.9767h-11v-90.4831a21.0769 21.0769 0 0 0 -21.0528-21.0531h-65.7385a21.077 21.077 0 0 0 -21.0531 21.0531v90.4831h-11v-90.4831a32.0894 32.0894 0 0 1 32.0531-32.053h65.7384a32.0893 32.0893 0 0 1 32.0528 32.0531z" fill="#0e5f87"/><rect fill="#ff7c1e" height="23.819" rx="11.909" width="23.819" x="198.37" y="181.788"/><path d="m31.528 180.245h25.6v25.6h-25.6z" fill="#1da441"/><rect fill="#ff7c1e" height="27.392" rx="13.696" width="27.392" x="30.632" y="152.942"/><rect fill="#b22d28" height="29.53" rx="9.464" transform="matrix(1 .013 -.013 1 1.211 -1.358)" width="18.929" x="98.253" y="80.098"/><rect fill="#b22d28" height="29.53" rx="9.464" transform="matrix(.01 1 -1 .01 380.507 -39.639)" width="18.929" x="200.815" y="157.648"/><path d="m82.5243 87.5577-13.3271-9.2307a2.75 2.75 0 0 0 -4.3158 2.2607v28.6649a2.75 2.75 0 0 0 4.2742 2.289l13.2855-8.8467a5.5 5.5 0 0 0 2.4516-4.5779v-6.0379a5.5 5.5 0 0 0 -2.3684-4.5214z" fill="#ff4a44"/><path d="m192.0656 47.9961-6.9262-14.6576a2.75 2.75 0 0 0 -4.868-.2l-14.3324 24.8244a2.75 2.75 0 0 0 2.5571 4.1194l15.9289-1.0188a5.5 5.5 0 0 0 4.4121-2.7388l3.0189-5.2289a5.5 5.5 0 0 0 .2096-5.0997z" fill="#ff4a44"/><rect fill="#ff4a44" height="215.542" rx="6.6" transform="matrix(0 1 -1 0 344.384 88.709)" width="21.395" x="117.14" y="108.775"/><path d="m229.0088 203.3486h-8.061a14.34 14.34 0 0 0 -.6536-19.9893 11.9383 11.9383 0 0 0 -2.1028-22.6493v-65.77a2.4809 2.4809 0 0 0 -.2427-1.0586 65.24 65.24 0 0 0 -22.9165-44.4184 7.9786 7.9786 0 0 0 -.707-2.5352l-6.9258-14.6572a5.2493 5.2493 0 0 0 -9.293-.3818l-3.3821 5.8577a65.3021 65.3021 0 0 0 -86.0129 49.1935h-3.1988a7.9742 7.9742 0 0 0 -1.5643-1.4385l-13.3272-9.229a5.2493 5.2493 0 0 0 -8.2393 4.3154v7.4121a34.6118 34.6118 0 0 0 -26.06 33.4936v31.0843a16.1423 16.1423 0 0 0 -3.75 25.1677h-1.0445a2.5 2.5 0 0 0 -2.5 2.5v23.1035h-2.3613a9.11 9.11 0 0 0 -9.1 9.1v8.1953a9.11 9.11 0 0 0 9.1 9.1h202.3428a9.11 9.11 0 0 0 9.1-9.1v-8.1953a9.11 9.11 0 0 0 -9.1-9.1005zm-8.5566-35.9658a6.9637 6.9637 0 0 1 -4.8018 11.9385l-10.6.11c-.0244 0-.0488.001-.0732.001a6.9645 6.9645 0 0 1 -.07-13.9287l10.6-.11a7.0428 7.0428 0 0 1 4.9449 1.9892zm-.7637 26.3145a9.41 9.41 0 1 1 -10.7275-9.3058l2.4688-.0257a9.4174 9.4174 0 0 1 8.2587 9.3315zm-20.0785 9.6513h-28.444v-41.3386a65.46 65.46 0 0 0 31.0254-19.9445v18.7745a11.9462 11.9462 0 0 0 -9.1768 11.7509v.001a11.9769 11.9769 0 0 0 7.1777 10.8327 14.3441 14.3441 0 0 0 -.582 19.9241zm-62.9967-105.4086h-16.969l.0757-6h16.8933a29.5856 29.5856 0 0 1 29.5527 29.5527v81.8555h-6v-81.855a23.579 23.579 0 0 0 -23.5527-23.5532zm-43.9713 5h3.3807a11.8767 11.8767 0 0 0 3.0613 5.5742c.09.0927.1895.1733.2822.2627a54.3155 54.3155 0 0 0 17.8909 31.5231l-2.854 5.4605a60.2557 60.2557 0 0 1 -21.7611-42.8205zm5.88 32.5981v67.81h-6v-78.9971a65.2524 65.2524 0 0 0 6.0005 11.1876zm2.1641-35.4634.1348-10.6006a6.9734 6.9734 0 0 1 6.9639-6.877c.0293 0 .0586 0 .0879.001a6.9718 6.9718 0 0 1 6.875 7.0527l-.1338 10.6a6.9715 6.9715 0 0 1 -6.9619 6.876c-.0312 0-.0811-.0088-.0908-.001a6.964 6.964 0 0 1 -6.875-7.0508zm16.8291 50.5254 4.91-9.3945a6.9642 6.9642 0 1 1 12.3438 6.4521l-4.91 9.3945a6.9642 6.9642 0 1 1 -12.3437-6.4521zm-13.9932-8.5349a65.8885 65.8885 0 0 0 8.7029 8.3461 11.9587 11.9587 0 0 0 20.6381 11.0868c.3464.1116.693.2225 1.0419.3284l-.5986 6.0509a2.501 2.501 0 0 0 2.2422 2.7344l19.6172 1.94v30.7962h-51.6432zm35.0068 23.8162 2.0283-20.499 14.6084 1.4456v20.6989zm1.27-25.5992a11.9342 11.9342 0 0 0 -19.7716-4.193 49.398 49.398 0 0 1 -14.8792-24.2233 12.0826 12.0826 0 0 0 2.3506.26h-.001c.0518 0 .1035.001.1553.001a11.98 11.98 0 0 0 11.6271-9.1869h17.3335a18.5732 18.5732 0 0 1 18.5527 18.5527v20.31zm-3.1855-53.3422h-17.1646a11.9085 11.9085 0 0 0 -10.9008-9.3041 49.2732 49.2732 0 0 1 57.995-25.72l-2.77 4.7969a5.25 5.25 0 0 0 4.543 7.875c.1133 0 .2256-.0039.3389-.0107l15.9287-1.0186a8.0156 8.0156 0 0 0 1.8579-.3461 49.2812 49.2812 0 0 1 -15.2759 81.89v-23.6092a34.5915 34.5915 0 0 0 -34.5522-34.5532zm65.5781 35.0907v11.9417a60.5757 60.5757 0 0 1 -31.0254 22.8182v-6.3342a54.6212 54.6212 0 0 0 31.0254-28.4253zm-11.1894-62.4555 2.6816-4.6453a60.1994 60.1994 0 0 1 19.3328 40.0106h.175v65.4766l-6 .0625v-65.5396a2.4734 2.4734 0 0 0 -.2764-1.12 54.2033 54.2033 0 0 0 -16.3525-33.582c.1538-.2145.3057-.4312.4395-.6628zm-8.5654-25.1865a.221.221 0 0 1 .2119-.125h.0146a.2218.2218 0 0 1 .2158.1436l6.9258 14.6572h.001a3.0032 3.0032 0 0 1 -.1143 2.7813l-3.02 5.2295a2.991 2.991 0 0 1 -2.4062 1.4932l-15.93 1.0186a.2173.2173 0 0 1 -.2285-.1172.2247.2247 0 0 1 -.0039-.2568zm-29.58 4.5811a60.0531 60.0531 0 0 1 19.3193 3.1909l-3.0586 5.2972a54.3269 54.3269 0 0 0 -66.5745 31.3661 11.9963 11.9963 0 0 0 -6.429 8.1165h-2.3125a60.4347 60.4347 0 0 1 59.0551-47.9705zm-57.0675 52.9702-.0762 6h-8.32v-5.8609c0-.0467-.0077-.0921-.0085-.1387zm-28.4073-11.3521a.224.224 0 0 1 .1338-.2217.2615.2615 0 0 1 .1221-.0332.2289.2289 0 0 1 .1357.05l13.3271 9.23a2.9969 2.9969 0 0 1 1.292 2.4658v6.0381a2.9931 2.9931 0 0 1 -1.3369 2.4961l-13.2856 8.8479a.2213.2213 0 0 1 -.2559.0127.2242.2242 0 0 1 -.1318-.2207zm-2.2285 33.293a5.243 5.243 0 0 0 5.3877-.2578l13.2861-8.8477a7.9874 7.9874 0 0 0 1.9351-1.835h1.76v100.4082h-27.8952v-23.1035a2.5 2.5 0 0 0 -2.5-2.5h-1.0447a16.1423 16.1423 0 0 0 -3.76-25.174v-31.0779a18.5588 18.5588 0 0 1 10.06-16.4758v4.2356a5.2417 5.2417 0 0 0 2.771 4.6279zm-23.8311 7.6123a29.6011 29.6011 0 0 1 21.0596-28.3032v6.3411a23.5863 23.5863 0 0 0 -15.06 21.962v29.2383a15.6683 15.6683 0 0 0 -6 .0015zm3.0049 33.9492a11.1953 11.1953 0 1 1 -11.1953 11.1953 11.2085 11.2085 0 0 1 11.1953-11.1953zm10.3 27.3027v20.6h-20.6v-20.6h8.62a16.106 16.106 0 0 0 3.3606 0zm178.4814 37.8984a4.104 4.104 0 0 1 -4.1 4.1h-202.3425a4.104 4.104 0 0 1 -4.1-4.1v-8.1953a4.104 4.104 0 0 1 4.1-4.1h202.3428a4.104 4.104 0 0 1 4.1 4.1z"/></svg>