<svg id="Capa_1" enable-background="new 0 0 511.999 511.999" height="512" viewBox="0 0 511.999 511.999" width="512" xmlns="http://www.w3.org/2000/svg"><g><g><path d="m216.285 307.85c-30.329 29.038-79.231 27.19-109.227-4.132-29.996-31.319-29.729-80.245.601-109.287 30.326-29.035 79.229-27.187 109.224 4.133 29.996 31.319 29.728 80.249-.598 109.286z" fill="#adc0ed"/></g><g><path d="m140.974 470.758-49.067-73.609-44.898 70.457c-6.759 10.606 2.743 24.071 15.003 21.26z" fill="#d97c41"/></g><g><path d="m139.049 362.674c-30.329 29.04-79.231 27.19-109.227-4.13-29.996-31.321-29.728-80.246.601-109.287 30.327-29.037 79.229-27.188 109.226 4.131 29.994 31.32 29.726 80.248-.6 109.286z" fill="#c1cff2"/></g><g><path d="m78.756 334.686c-28.821-30.094-29.686-76.431-2.808-105.776-16.605 1.355-32.722 8.087-45.525 20.346-30.329 29.041-30.597 77.966-.601 109.287 29.995 31.32 78.897 33.17 109.227 4.13 1.188-1.137 2.311-2.314 3.406-3.509-22.726 1.856-46.368-6.38-63.699-24.478z" fill="#adc0ed"/></g><g><path d="m326.45 324.828c29.103 59.839.054 133.94-64.881 165.513-64.936 31.573-141.168 8.661-170.27-51.177s-.055-133.94 64.88-165.512c64.937-31.573 141.169-8.661 170.271 51.176z" fill="#f9d171"/></g><g><path d="m156.956 443.827c-29.102-59.838-.055-133.939 64.88-165.511 12.052-5.86 24.494-9.839 36.952-12.058-31.742-10.713-68.713-9.087-102.609 7.394-64.935 31.572-93.983 105.674-64.88 165.512 23.701 48.731 78.659 72.968 133.319 63.235-29.067-9.811-53.751-29.97-67.662-58.572z" fill="#f6ca56"/></g><g><ellipse cx="352.379" cy="254.267" fill="#f9ee80" rx="152.121" ry="152.099" transform="matrix(1 -.012 .012 1 -2.916 4.091)"/></g><g><path d="m269.286 252.266c0-70.588 48.095-129.936 113.305-147.093-9.765-1.967-19.866-3.005-30.211-3.005-84.014 0-152.121 68.096-152.121 152.098s68.107 152.1 152.121 152.1c13.416 0 26.423-1.744 38.815-5.005-69.54-14.011-121.909-75.437-121.909-149.095z" fill="#f4e74d"/></g><g><g><path d="m301.88 257.156c-.029 12.984-13.271 23.483-29.58 23.446-16.309-.033-29.506-10.59-29.477-23.575.027-12.984 13.27-23.483 29.58-23.448 16.308.037 29.504 10.593 29.477 23.577" fill="#ffa1ac"/></g><g><path d="m402.878 257.377c-.027 12.986 13.17 23.542 29.477 23.577 16.31.035 29.553-10.461 29.58-23.448.029-12.984-13.168-23.54-29.477-23.577-16.309-.034-29.551 10.464-29.58 23.448" fill="#ffa1ac"/></g><g><path d="m289.845 247.078c-4.143 0-7.5-3.357-7.5-7.5v-11.998c0-4.143 3.357-7.5 7.5-7.5s7.5 3.357 7.5 7.5v11.998c0 4.143-3.357 7.5-7.5 7.5z"/></g><g><path d="m414.742 247.078c-4.143 0-7.5-3.357-7.5-7.5v-11.998c0-4.143 3.357-7.5 7.5-7.5s7.5 3.357 7.5 7.5v11.998c0 4.143-3.358 7.5-7.5 7.5z"/></g><path d="m381.386 239.233c-4.143 0-7.5 3.357-7.5 7.5 0 3.835-3.12 6.954-6.955 6.954s-6.955-3.119-6.955-6.954c0-4.143-3.357-7.5-7.5-7.5s-7.5 3.357-7.5 7.5c0 3.835-3.121 6.954-6.957 6.954-3.835 0-6.955-3.119-6.955-6.954 0-4.143-3.357-7.5-7.5-7.5s-7.5 3.357-7.5 7.5c0 12.105 9.849 21.954 21.955 21.954 5.533 0 10.591-2.062 14.457-5.451 3.865 3.389 8.922 5.451 14.455 5.451 12.106 0 21.955-9.849 21.955-21.954 0-4.143-3.357-7.5-7.5-7.5z"/></g><g><path d="m504.499 57.49c0 17.112-13.874 30.982-30.989 30.982-17.114 0-30.987-13.871-30.987-30.982s13.873-30.984 30.987-30.984c17.115 0 30.989 13.872 30.989 30.984z" fill="#d97c41"/></g><g><path d="m301.066 447.582c-84.015 0-152.122-68.098-152.122-152.1 0-6.328.395-12.562 1.146-18.687-12.677 6.927-23.855 15.522-33.349 25.315-1.31 8.028-1.997 16.266-1.997 24.665 0 84.002 68.107 152.1 152.122 152.1 5.16 0 10.256-.272 15.284-.774 12.333-8.822 22.839-19.359 31.288-31.027-4.081.328-8.205.508-12.372.508z" fill="#d97c41"/></g><g><path d="m412.104 38.507c0 17.112-13.874 30.982-30.989 30.982-17.114 0-30.987-13.871-30.987-30.982s13.873-30.984 30.987-30.984c17.115 0 30.989 13.872 30.989 30.984z" fill="#d97c41"/></g><g><path d="m429.482 114.564c-.039-2.711.408-18.809 15.578-31.185 7.044 7.733 17.19 12.594 28.451 12.594 21.223 0 38.488-17.263 38.488-38.482 0-21.221-17.266-38.484-38.488-38.484s-38.487 17.264-38.487 38.484c0 4.533.794 8.883 2.24 12.925-16.023 12.143-20.826 27.672-22.224 37.072-19.248-8.246-40.428-12.819-62.659-12.819-5.596 0-11.182.314-16.735.9 1.739-7.42 6.704-18.66 20.686-27.652 6.701 5.655 15.349 9.073 24.784 9.073 21.223 0 38.488-17.263 38.488-38.482 0-21.221-17.266-38.484-38.488-38.484s-38.486 17.264-38.486 38.484c0 6.352 1.557 12.344 4.294 17.631-20.783 13.925-25.759 32.245-26.884 41.852-14.385 2.968-28.335 7.887-41.323 14.655-3.673 1.914-5.1 6.443-3.186 10.117s6.443 5.1 10.117 3.186c20.439-10.65 43.516-16.279 66.732-16.279 79.743 0 144.619 64.866 144.619 144.598 0 59.26-37.119 113.463-92.367 134.876-3.861 1.497-5.779 5.842-4.282 9.704 1.151 2.971 3.988 4.791 6.995 4.791.901 0 1.817-.164 2.709-.509 29.69-11.508 55.051-31.448 73.337-57.666 18.716-26.832 28.608-58.367 28.608-91.196 0-60.062-33.358-112.472-82.517-139.704zm44.029-80.558c12.951 0 23.488 10.535 23.488 23.484 0 12.948-10.537 23.482-23.488 23.482s-23.487-10.534-23.487-23.482c0-12.949 10.536-23.484 23.487-23.484zm-92.395-18.983c12.951 0 23.488 10.535 23.488 23.484 0 12.948-10.537 23.482-23.488 23.482-12.95 0-23.486-10.534-23.486-23.482-.001-12.949 10.535-23.484 23.486-23.484z"/><path d="m375.076 397.097c-7.456 1.174-15.092 1.77-22.695 1.77-79.745 0-144.622-64.867-144.622-144.601 0-42.791 18.805-83.145 51.593-110.716 3.17-2.666 3.579-7.396.913-10.567-2.665-3.169-7.396-3.581-10.567-.913-16.83 14.152-30.317 31.36-39.935 50.468-33.123-23.673-78.305-21.275-107.29 6.476-9.328 8.933-16.396 19.987-20.629 32.172-20.529.089-40.863 7.579-56.607 22.653-16.148 15.463-25.11 36.475-25.234 59.165-.124 22.598 8.543 44.165 24.404 60.727 12.979 13.553 29.881 22.563 48.058 25.758-.025 7.192.588 14.341 1.835 21.386-.106.143-.214.285-.311.438l-33.304 52.262c-4.794 7.523-4.577 16.726.565 24.015 4.15 5.882 10.548 9.159 17.433 9.159 1.648 0 3.326-.188 5.007-.573l54.072-12.399c22.993 18.276 52.414 28.201 83.09 28.201 21.307 0 43.221-4.789 63.998-14.891 7.516-3.655 14.635-7.903 21.312-12.656.224-.142.441-.294.647-.459 24.624-17.729 43.045-42.479 52.165-70.673 4.422.369 8.891.568 13.406.568 8.383 0 16.804-.657 25.029-1.953 4.092-.645 6.886-4.483 6.241-8.575-.643-4.093-4.477-6.885-8.574-6.242zm-262.23-197.249c24.484-23.441 63.186-24.72 90.682-3.251-7.013 18.104-10.742 37.542-10.767 57.468-12.062 2.066-23.863 5.64-35.191 10.682-3.485-5.955-7.673-11.5-12.505-16.546-13.357-13.947-30.187-22.537-47.693-25.674 3.524-8.532 8.787-16.275 15.474-22.679zm-77.606 153.508c-13.154-13.734-20.341-31.587-20.238-50.27.102-18.592 7.421-35.785 20.608-48.413 27.293-26.132 71.535-24.381 98.622 3.902 3.8 3.969 7.111 8.311 9.908 12.952-28.814 16.405-50.871 41.501-62.647 71.543-4.045 10.319-6.727 20.837-8.057 31.358-14.428-2.883-27.814-10.231-38.196-21.072zm25.095 128.198c-3.98.908-6.233-1.77-6.829-2.612-.596-.844-2.366-3.863-.172-7.307l26.195-41.106c1.453 4.034 3.127 8.01 5.026 11.915 5.27 10.835 12.005 20.527 19.881 28.998zm37.708-45.671c-13.147-27.034-14.065-58.051-2.585-87.338 3.137-8.002 7.101-15.61 11.797-22.744-.002.324-.01.649-.01.973 0 83.498 64.463 152.215 146.241 159.034-60.029 26.354-128.906 4.636-155.443-49.925zm181.353 34.93c-4.226.365-8.433.561-12.529.561-79.744 0-144.621-64.867-144.621-144.6 0-7.07.524-14.177 1.548-21.165 5.415-5.376 11.34-10.306 17.722-14.725-.044 1.536-.071 3.07-.071 4.598 0 86.693 69.49 157.461 155.701 159.55-5.382 5.741-11.32 11.029-17.75 15.781zm29.97-30.997c-2.803.162-5.591.266-8.3.266-79.745 0-144.622-64.867-144.622-144.6 0-4.611.233-9.276.677-13.916.775-.395 1.552-.787 2.337-1.169 10.895-5.297 22.309-9.061 34-11.235 6.653 71.526 60.702 129.508 130.359 142.141-3.526 10.092-8.404 19.665-14.451 28.513z"/></g></g></svg>