<svg height="512" viewBox="0 0 64 64" width="512" xmlns="http://www.w3.org/2000/svg"><g id="_16-Bee" data-name="16-Bee"><path d="m32 20.32v7l-12.63 17.86a9 9 0 0 1 -16.37-5.18 9 9 0 0 1 5.09-8.11z" fill="#e7eaef"/><path d="m32 20.32-3 1.44v5.56a1 1 0 0 1 -.18.57l-12.64 17.86a10 10 0 0 1 -3.77 3.25 8.77 8.77 0 0 0 7-3.81l12.59-17.87z" fill="#d8dbe0"/><path d="m32 20.32v7l12.63 17.86a9 9 0 0 0 16.37-5.18 9 9 0 0 0 -5.09-8.11z" fill="#e7eaef"/><path d="m32 61c0-5 11-8 11-25 0-15.33-11-17-11-17s-11 1.67-11 17c0 17 11 20 11 25z" fill="#fcb860"/><path d="m42.64 41a24.78 24.78 0 0 1 -2.53 8h-16.21a24.53 24.53 0 0 1 -2.54-8z" fill="#b38051"/><path d="m42.85 33h-21.7c1.33-12.55 10.85-14 10.85-14s9.52 1.45 10.85 14z" fill="#b38051"/><path d="m61 40a9 9 0 0 0 -4.07-7.53 10 10 0 0 1 1.69 5.53 9.85 9.85 0 0 1 -7 9.54 10.32 10.32 0 0 1 -3.13.49q-.37 0-.75 0a9 9 0 0 0 13.26-8.03z" fill="#d8dbe0"/><path d="m30.65 57.84a5.29 5.29 0 0 1 1.35 3.16c0-5 11-8 11-25 0-15.33-11-17-11-17s-.25 0-.67.15c3.51 1.79 8.67 6.23 8.67 16.85 0 11.41-4.89 16.84-8.13 20.44-.46.5-.87.96-1.22 1.4z" fill="#fcaa52"/><path d="m42.64 41a24.78 24.78 0 0 1 -2.53 8h-2.89a26.32 26.32 0 0 0 2.44-8z" fill="#aa744c"/><path d="m42.85 33h-3c-.87-8.48-5.36-12.23-8.52-13.85.42-.15.67-.15.67-.15s9.52 1.45 10.85 14z" fill="#aa744c"/><circle cx="32" cy="18" fill="#fcb860" r="9"/><path d="m32.39 27a9 9 0 0 0 0-18 10 10 0 0 1 0 18z" fill="#fcaa52"/><path d="m60.47 34.65a10 10 0 0 0 -4.13-3.65l-15.87-7.71a10 10 0 0 0 -3.47-13.92c.28-4.52 3.13-5.37 3.24-5.37a1 1 0 0 0 .76-1.24 1 1 0 0 0 -1.24-.76c-.18 0-4 1.09-4.67 6.47a9.8 9.8 0 0 0 -6.18 0c-.63-5.35-4.49-6.4-4.67-6.47a1 1 0 0 0 -1.2.72 1 1 0 0 0 .71 1.28c.12 0 3 .88 3.22 5.39a10.34 10.34 0 0 0 -2.68 2.27 1 1 0 0 0 .14 1.34 1 1 0 0 0 1.4-.14 8.14 8.14 0 1 1 -1.59 3.18 1 1 0 1 0 -1.94-.48 10 10 0 0 0 -.3 2.44 9.92 9.92 0 0 0 1.53 5.29l-15.87 7.71a10.05 10.05 0 0 0 -5.66 9 9.84 9.84 0 0 0 7 9.54 10.31 10.31 0 0 0 3.1.46 9.82 9.82 0 0 0 8.08-4.25l.9-1.26a28.09 28.09 0 0 0 7.05 11.95c1.67 1.85 2.87 3.19 2.87 4.56a1 1 0 0 0 2 0c0-1.37 1.2-2.71 2.87-4.56a28 28 0 0 0 7.05-11.95l.89 1.27a9.81 9.81 0 0 0 8.07 4.24 10.32 10.32 0 0 0 1.24-.08 1 1 0 1 0 -.24-2 7.74 7.74 0 0 1 -7.43-3.34l-1.93-2.74a34.73 34.73 0 0 0 .48-5.84 23.08 23.08 0 0 0 -1.9-9.7l13.37 6.46a8 8 0 0 1 4.53 7.24 7.78 7.78 0 0 1 -3.54 6.66 1 1 0 0 0 .54 1.81 1 1 0 0 0 .54-.16 9.74 9.74 0 0 0 4.46-8.31 10.08 10.08 0 0 0 -1.53-5.35zm-28.47-6.65a10 10 0 0 0 7.1-3 16.74 16.74 0 0 1 2.6 7h-19.4a16.74 16.74 0 0 1 2.6-7 10 10 0 0 0 7.1 3zm-9.45 14h18.9a23.22 23.22 0 0 1 -2 6h-15a23.22 23.22 0 0 1 -1.9-6zm19.45-6a35.36 35.36 0 0 1 -.23 4h-19.54a35.36 35.36 0 0 1 -.23-4c0-.69 0-1.35.07-2h19.86c.07.65.07 1.31.07 2zm-23.45 8.6a7.9 7.9 0 0 1 -9 3 7.89 7.89 0 0 1 -5.55-7.6 8 8 0 0 1 4.53-7.21l13.37-6.49a23.08 23.08 0 0 0 -1.9 9.7 34.85 34.85 0 0 0 .48 5.87zm15.83 10.5a25.5 25.5 0 0 0 -2.38 2.9 25.5 25.5 0 0 0 -2.38-2.91 35.29 35.29 0 0 1 -4-5.1h12.76a35.29 35.29 0 0 1 -4 5.11z"/></g></svg>