<svg clip-rule="evenodd" fill-rule="evenodd" stroke-linejoin="round" stroke-miterlimit="2" viewBox="0 0 96 96" xmlns="http://www.w3.org/2000/svg"><g><g><ellipse cx="48" cy="51.541" fill="#f3ae24" rx="18.552" ry="35.209"/><path d="m66.063 59.597c-1.921 15.555-9.284 27.153-18.063 27.153s-16.142-11.598-18.063-27.153c12.042-6.267 24.084-6.074 36.126 0z" fill="#f2af0d"/><path d="m66.063 59.597c-1.921 15.555-9.284 27.153-18.063 27.153s-16.142-11.598-18.063-27.153c12.042-6.267 24.084-6.074 36.126 0z" fill="#b6821b"/><path d="m35.217 31.394c.98-.238 2.013.037 2.744.731.732.693 1.061 1.711.876 2.701-1.079 5.873-3.873 16.302-10.391 22.675-9.456 9.247-18.087 10.427-23.192 6.475-5.104-3.952-4.761-11.548 4.695-20.795 6.721-6.572 18.828-10.224 25.268-11.787z" fill="#c8c8c8"/><path d="m60.783 31.394c-.98-.238-2.013.037-2.744.731-.732.693-1.061 1.711-.876 2.701 1.079 5.873 3.873 16.302 10.391 22.675 9.456 9.247 18.087 10.427 23.192 6.475 5.104-3.952 4.761-11.548-4.695-20.795-6.721-6.572-18.828-10.224-25.268-11.787z" fill="#c8c8c8"/><g fill="#ebebeb"><path d="m35.32 30.98c.892-.596 2.037-.661 2.991-.17s1.567 1.461 1.6 2.533c.196 5.061-.081 13.027-3.028 18.841-4.653 9.181-10.155 11.747-14.212 9.541s-5.143-8.353-.49-17.534c2.92-5.762 9.009-10.489 13.139-13.211z"/><path d="m60.68 30.98c-.892-.596-2.037-.661-2.991-.17s-1.567 1.461-1.6 2.533c-.196 5.061.081 13.027 3.028 18.841 4.653 9.181 10.155 11.747 14.212 9.541s5.143-8.353.49-17.534c-2.92-5.762-9.009-10.489-13.139-13.211z"/></g></g><g><path d="m64.411 59.883c-1.242 8.612-4.189 15.876-8.158 20.295-2.432 2.708-5.232 4.322-8.253 4.322s-5.821-1.614-8.253-4.322c-3.969-4.419-6.916-11.683-8.158-20.295-.119-.819-.88-1.388-1.699-1.27-.82.118-1.389.879-1.271 1.699 1.341 9.295 4.612 17.1 8.895 21.87 3.069 3.418 6.673 5.318 10.486 5.318s7.417-1.9 10.486-5.318c4.283-4.77 7.554-12.575 8.895-21.87.118-.82-.451-1.581-1.271-1.699-.819-.118-1.58.451-1.699 1.27zm-27.261-34.943c2.934-4.818 6.67-7.858 10.85-7.858 2.842 0 5.491 1.431 7.821 3.856 2.515 2.619 4.642 6.376 6.224 10.893.274.781 1.131 1.193 1.912.92.781-.274 1.193-1.13.92-1.912-2.102-5.999-5.132-10.752-8.661-13.611-2.521-2.042-5.304-3.146-8.216-3.146-5.093 0-9.838 3.428-13.412 9.298-.431.707-.206 1.631.501 2.061.707.431 1.631.206 2.061-.501z"/><path d="m41.968 56.235c6.678-1.175 13.355-.332 20.034 2.403.766.314 1.642-.053 1.956-.819.314-.767-.053-1.643-.82-1.957-7.229-2.961-14.46-3.853-21.69-2.581-.815.143-1.361.922-1.217 1.737.143.815.922 1.361 1.737 1.217z"/><path d="m31.911 67.234c10.717-5.157 21.435-5.003 32.153.007.75.351 1.644.027 1.994-.723.351-.75.026-1.644-.724-1.994-11.574-5.411-23.149-5.563-34.724.007-.746.359-1.06 1.256-.701 2.002s1.256 1.06 2.002.701z"/><path d="m33.914 73.707c1.569-.66 3.139-1.206 4.709-1.641.798-.221 1.267-1.048 1.046-1.846-.221-.797-1.048-1.266-1.846-1.045-1.69.468-3.381 1.056-5.071 1.766-.763.32-1.123 1.2-.802 1.964.32.763 1.2 1.122 1.964.802zm10.233-2.71c5.952-.658 11.903.278 17.855 2.715.766.314 1.642-.054 1.956-.82s-.053-1.642-.82-1.956c-6.44-2.637-12.881-3.633-19.321-2.921-.823.091-1.417.833-1.326 1.656s.833 1.417 1.656 1.326z"/><path d="m37.023 79.923c7.308-2.377 14.616-2.314 21.923.045.788.255 1.634-.179 1.888-.966.255-.788-.178-1.634-.966-1.889-7.924-2.558-15.849-2.621-23.773-.043-.787.257-1.218 1.104-.962 1.891s1.103 1.218 1.89.962z"/><path d="m46.451 21.581v32.637c0 .828.672 1.5 1.5 1.5s1.5-.672 1.5-1.5v-32.637c0-.828-.672-1.5-1.5-1.5s-1.5.672-1.5 1.5z"/><path d="m22.268 59.965c-6.596 4.57-12.371 4.958-16.096 2.075-2.11-1.634-3.075-4.029-2.554-6.964.591-3.327 2.947-7.238 7.38-11.573 3.066-2.998 7.308-5.348 11.571-7.167 4.447-1.898 8.927-3.212 12.204-4.037.803-.202 1.29-1.018 1.088-1.821s-1.018-1.29-1.821-1.088c-3.396.855-8.039 2.22-12.649 4.187-4.609 1.966-9.175 4.54-12.49 7.781-10.425 10.194-10.192 18.698-4.565 23.054 4.53 3.507 11.617 3.578 19.64-1.981.681-.472.851-1.407.379-2.088-.471-.68-1.407-.85-2.087-.378z"/><path d="m61.96 29.39c-.705-.178-1.435.175-1.734.838-.299.662-.08 1.443.52 1.854 3.898 2.671 9.138 6.914 11.735 12.037 2.17 4.282 3.046 7.844 2.863 10.605-.157 2.356-1.117 4.055-2.731 4.933-.114.062-.229.119-.345.17-.495.221-.833.691-.884 1.231-.05.539.194 1.064.64 1.373 8.023 5.559 15.11 5.488 19.64 1.981 5.627-4.356 5.86-12.86-4.565-23.054-6.634-6.487-18.345-10.257-25.139-11.968zm13.657 31.781c1.55-1.426 2.538-3.518 2.72-6.248.21-3.159-.697-7.261-3.18-12.16-1.567-3.093-4.002-5.907-6.584-8.297l-.001-.001c5.723 1.96 12.187 4.889 16.43 9.038 4.433 4.335 6.789 8.246 7.38 11.573.521 2.935-.444 5.33-2.554 6.964-3.366 2.605-8.406 2.539-14.211-.869z"/><path d="m34.487 28.983c-4.3 2.835-10.605 7.784-13.644 13.78-2.483 4.899-3.39 9.001-3.18 12.16.237 3.564 1.849 6.042 4.292 7.37 2.469 1.342 5.383 1.302 8.384-.54 2.636-1.62 5.393-4.729 7.882-9.641 3.063-6.043 3.393-14.317 3.188-19.577-.049-1.605-.972-3.068-2.411-3.809-1.439-.74-3.166-.642-4.511.257zm1.659 2.5c.002-.002.005-.004.008-.006.439-.293 1.002-.325 1.471-.083.469.241.77.718.786 1.246 0 .004 0 .008.001.012.188 4.861-.036 12.519-2.867 18.104-2.163 4.269-4.484 7.033-6.776 8.44-1.929 1.185-3.794 1.324-5.382.461-1.614-.878-2.574-2.577-2.731-4.933-.183-2.761.693-6.323 2.863-10.605 2.8-5.524 8.667-10.027 12.627-12.636zm-1.659-2.5.008-.005z"/><path d="m61.513 28.983c-1.345-.899-3.072-.997-4.511-.257-1.439.741-2.362 2.204-2.412 3.821-.204 5.248.126 13.522 3.189 19.565 2.489 4.912 5.246 8.021 7.882 9.641 3.001 1.842 5.915 1.882 8.384.54 2.443-1.328 4.055-3.806 4.292-7.37.21-3.159-.697-7.261-3.18-12.16-3.039-5.996-9.344-10.945-13.644-13.78zm-1.667 2.494c.003.002.006.004.008.006 3.96 2.609 9.827 7.112 12.627 12.636 2.17 4.282 3.046 7.844 2.863 10.605-.157 2.356-1.117 4.055-2.731 4.933-1.588.863-3.453.724-5.382-.461-2.292-1.407-4.613-4.171-6.776-8.44-2.831-5.585-3.055-13.243-2.867-18.104.001-.004.001-.008.001-.012.016-.528.317-1.005.786-1.246.469-.242 1.032-.21 1.471.083zm1.659-2.499.008.005z"/><path d="m54.216 20.222s1.148-7.546 7.822-8.746c.815-.146 1.358-.926 1.211-1.741-.146-.815-.927-1.358-1.742-1.211-8.648 1.554-10.254 11.224-10.254 11.224-.131.818.427 1.588 1.244 1.719.818.13 1.588-.427 1.719-1.245z"/><path d="m44.747 19.748s-1.606-9.67-10.254-11.224c-.815-.147-1.596.396-1.742 1.211-.147.815.396 1.595 1.211 1.741 6.674 1.2 7.822 8.746 7.822 8.746.131.818.901 1.375 1.719 1.245.817-.131 1.375-.901 1.244-1.719z"/><path d="m64.502 62.691s2.634 12.324 11.966 17.834c.713.421 1.633.184 2.054-.528.421-.713.184-1.634-.529-2.055-8.281-4.89-10.555-15.869-10.555-15.869-.171-.81-.967-1.329-1.777-1.159-.81.171-1.329.967-1.159 1.777z"/><path d="m28.562 62.073s-2.274 10.979-10.555 15.869c-.713.421-.95 1.342-.529 2.055.421.712 1.341.949 2.054.528 9.332-5.51 11.966-17.834 11.966-17.834.17-.81-.349-1.606-1.159-1.777-.81-.17-1.606.349-1.777 1.159z"/></g></g></svg>