<svg id="Layer_2" enable-background="new 0 0 64 64" viewBox="0 0 64 64" xmlns="http://www.w3.org/2000/svg"><g><path d="m7.57 20.45v8.66c0 1.38 1.12 2.49 2.49 2.49 1.38 0 2.49-1.12 2.49-2.49v-7.63c0-1.07.86-1.93 1.93-1.93 1.07 0 1.93.86 1.93 1.93v2.57c0 .96.81 1.73 1.77 1.69.9-.04 1.61-.78 1.61-1.69v-.65c0-.87.73-1.57 1.61-1.52.81.04 1.45.71 1.45 1.52v13.34c0 1.24 1.01 2.25 2.25 2.25 1.24 0 2.25-1.01 2.25-2.25v-14.23c0-1.28 1.04-2.32 2.32-2.32 1.28 0 2.32 1.04 2.32 2.32v9.32c0 1.22.96 2.22 2.18 2.26 1.28.05 2.34-.98 2.34-2.26v-9.23c0-1.26 1-2.29 2.25-2.33 1.32-.05 2.41 1.01 2.41 2.33v.72c0 1.86 1.51 3.38 3.38 3.38 1.86 0 3.38-1.51 3.38-3.38v-.09c0-2.66 1.75-5.01 4.3-5.77 1.86-.55 3.02-2.41 2.7-4.32-.42-2.51-3.12-3.93-5.43-2.85-1.03.48-2.16.71-3.29.67l-1.26-.05c-.85-.03-1.53-.72-1.56-1.57-.09-2.19-1.89-3.94-4.09-3.94h-1.87c-1.15 0-2.09.91-2.13 2.05-.05 1.29-1.08 2.32-2.37 2.36-1.39.05-2.54-1.07-2.54-2.45v-2.28c0-1.69-1.37-3.05-3.05-3.05-1.69 0-3.05 1.37-3.05 3.05v1.3c0 1.82-1.53 3.27-3.35 3.16-1.31-.08-2.49-.83-3.1-1.99-.97-1.82-3.21-2.52-5.04-1.58-.01 0-5.23 1.52-5.23 14.48z" fill="#ffeba8"/><path d="m41.16 23.32v-.72c0-1.32-1.09-2.37-2.41-2.33-1.26.04-2.25 1.07-2.25 2.33v9.23c0 1.28-1.06 2.31-2.34 2.26-1.22-.04-2.18-1.04-2.18-2.26v-9.32c0-1.28-1.04-2.32-2.32-2.32s-2.32 1.04-2.32 2.32v14.24c0 1.24-1.01 2.25-2.25 2.25s-2.25-1.01-2.25-2.25v-13.35c0-.81-.64-1.48-1.45-1.52-.87-.05-1.61.65-1.61 1.52v.64c0 .9-.71 1.64-1.61 1.69-.96.05-1.77-.72-1.77-1.69v-2.57c0-1.07-.86-1.93-1.93-1.93s-1.93.86-1.93 1.93v7.63c0 .94-.52 1.74-1.29 2.17v22.83c0 2.22 1.8 4.02 4.02 4.02h25.23c2.22 0 4.02-1.8 4.02-4.02v-27.4c-1.85 0-3.36-1.51-3.36-3.38z" fill="#ffc68d"/><path d="m56.02 33.98-1.52 11.65c-.25 1.9-1.87 3.32-3.79 3.32h-6.18v-4.66h3.25c1.18 0 2.17-.87 2.32-2.04l.68-5.29c.18-1.39-.91-2.63-2.32-2.63h-3.93v-4.66h7.7c2.31 0 4.09 2.02 3.79 4.31z" fill="#ffc68d"/><path d="m61.41 62.89h-2.77c-.5 0-.91-.41-.91-.91s.41-.91.91-.91h2.77c.5 0 .91.41.91.91s-.41.91-.91.91z"/><path d="m54.07 62.89h-44.73c-.5 0-.91-.41-.91-.91s.41-.91.91-.91h44.73c.5 0 .91.41.91.91.01.5-.4.91-.91.91z"/><path d="m5.16 62.89h-2.57c-.5 0-.91-.41-.91-.91s.41-.91.91-.91h2.57c.5 0 .91.41.91.91s-.41.91-.91.91z"/><path d="m25.09 39.9c-1.74 0-3.16-1.42-3.16-3.16v-13.34c0-.33-.25-.6-.58-.61-.17-.02-.33.05-.46.17-.12.12-.19.27-.19.44v.64c0 1.39-1.09 2.53-2.48 2.6-.72.04-1.4-.22-1.92-.72s-.81-1.16-.81-1.88v-2.57c0-.56-.46-1.02-1.02-1.02s-1.02.46-1.02 1.02v7.63c0 1.88-1.53 3.4-3.4 3.4s-3.4-1.53-3.4-3.4v-8.66c0-12.66 4.96-15.02 5.77-15.32 2.25-1.12 5.02-.23 6.21 2 .47.88 1.37 1.45 2.36 1.51.62.04 1.22-.18 1.68-.61s.71-1.01.71-1.64v-1.3c0-2.19 1.78-3.97 3.97-3.97s3.97 1.78 3.97 3.97v2.28c0 .42.17.81.47 1.11.3.29.71.45 1.12.43.8-.03 1.46-.68 1.49-1.48.06-1.65 1.4-2.93 3.04-2.93h1.87c2.71 0 4.9 2.12 4.98 4.84.01.37.31.67.68.68l1.26.05c.99.03 1.98-.17 2.87-.59 1.36-.64 2.9-.61 4.24.09 1.33.7 2.24 1.95 2.48 3.43.39 2.36-1.04 4.66-3.34 5.34-2.15.64-3.65 2.65-3.65 4.89 0 2.46-1.92 4.38-4.29 4.38-2.36 0-4.29-1.92-4.29-4.29v-.71c0-.39-.15-.75-.43-1.02s-.66-.41-1.03-.4c-.77.03-1.37.65-1.37 1.42v9.23c0 .87-.34 1.68-.97 2.29-.63.6-1.45.91-2.32.89-1.72-.06-3.06-1.46-3.06-3.17v-9.32c0-.77-.63-1.4-1.41-1.4-.77 0-1.4.63-1.4 1.4v14.24c-.01 1.73-1.43 3.14-3.17 3.14zm-3.77-18.94h.13c1.3.07 2.31 1.14 2.31 2.44v13.34c0 .74.6 1.34 1.34 1.34s1.34-.6 1.34-1.34v-14.23c0-1.78 1.45-3.23 3.23-3.23s3.23 1.45 3.23 3.23v9.32c0 .73.57 1.32 1.3 1.35.37.01.72-.12.99-.38s.41-.6.41-.97v-9.23c0-1.76 1.38-3.18 3.13-3.24.86-.03 1.73.29 2.37.91s.99 1.44.99 2.33v.72c0 1.36 1.1 2.46 2.46 2.46s2.46-1.1 2.46-2.46c0-3.14 2.04-5.87 4.95-6.74 1.42-.42 2.3-1.84 2.06-3.29-.15-.91-.71-1.68-1.53-2.12-.82-.43-1.77-.45-2.61-.06-1.15.54-2.44.8-3.71.76l-1.26-.05c-1.33-.05-2.4-1.12-2.44-2.45-.05-1.72-1.44-3.07-3.16-3.07h-1.87c-.66 0-1.19.52-1.22 1.17-.06 1.76-1.49 3.18-3.25 3.24-.89.03-1.79-.31-2.45-.95s-1.03-1.5-1.03-2.42v-2.26c0-1.18-.96-2.14-2.14-2.14s-2.14.96-2.14 2.14v1.3c0 1.14-.46 2.19-1.28 2.97-.83.78-1.9 1.17-3.04 1.1-1.62-.1-3.09-1.04-3.85-2.47-.73-1.37-2.44-1.91-3.82-1.2-.05.03-.11.05-.16.06-.03.01-4.56 1.67-4.56 13.6v8.66c0 .87.71 1.58 1.58 1.58s1.58-.71 1.58-1.58v-7.63c0-1.57 1.27-2.84 2.84-2.84s2.84 1.27 2.84 2.84v2.57c0 .21.08.41.24.56.15.15.34.22.57.21.41-.02.74-.36.74-.77v-.64c0-.67.28-1.31.76-1.77.44-.43 1.04-.67 1.67-.67z"/><path d="m40.52 59.03h-25.23c-2.72 0-4.93-2.21-4.93-4.93v-22.83c0-.33.18-.64.47-.8.5-.28.82-.81.82-1.37v-7.63c0-1.57 1.27-2.84 2.84-2.84s2.84 1.27 2.84 2.84v2.57c0 .21.08.41.24.56.15.15.34.22.57.21.41-.02.74-.36.74-.77v-.64c0-.67.28-1.31.76-1.77s1.14-.7 1.81-.67c1.3.07 2.31 1.14 2.31 2.44v13.34c0 .74.6 1.34 1.34 1.34s1.34-.6 1.34-1.34v-14.23c0-1.78 1.45-3.23 3.23-3.23s3.23 1.45 3.23 3.23v9.32c0 .73.57 1.32 1.3 1.35.37.01.72-.12.99-.38s.41-.6.41-.97v-9.23c0-1.76 1.38-3.18 3.13-3.24.86-.03 1.73.29 2.37.91s.99 1.44.99 2.33v.72c0 1.36 1.1 2.46 2.46 2.46.5 0 .91.41.91.91v27.4c-.01 2.73-2.22 4.94-4.94 4.94zm-28.34-27.27v22.34c0 1.71 1.39 3.1 3.1 3.1h25.23c1.71 0 3.1-1.39 3.1-3.1v-26.59c-1.93-.42-3.38-2.14-3.38-4.19v-.72c0-.39-.15-.75-.43-1.02s-.66-.41-1.03-.4c-.77.03-1.37.65-1.37 1.42v9.23c0 .87-.34 1.68-.97 2.29-.63.6-1.45.91-2.32.89-1.72-.06-3.06-1.46-3.06-3.17v-9.32c0-.77-.63-1.4-1.41-1.4-.77 0-1.4.63-1.4 1.4v14.24c0 1.74-1.42 3.16-3.16 3.16s-3.16-1.42-3.16-3.16v-13.36c0-.33-.25-.6-.58-.61-.17-.02-.33.05-.46.17-.12.12-.19.27-.19.44v.64c0 1.39-1.09 2.53-2.48 2.6-.72.04-1.4-.22-1.92-.72s-.81-1.16-.81-1.88v-2.57c0-.56-.46-1.02-1.02-1.02s-1.02.46-1.02 1.02v7.63c.03 1.04-.45 2.02-1.26 2.66z"/><path d="m50.72 49.87h-6.18c-.5 0-.91-.41-.91-.91s.41-.91.91-.91h6.18c1.46 0 2.69-1.09 2.88-2.53l1.52-11.64c.11-.83-.15-1.67-.7-2.29-.55-.63-1.35-.99-2.19-.99h-7.7c-.5 0-.91-.41-.91-.91s.41-.91.91-.91h7.7c1.36 0 2.66.59 3.56 1.61s1.31 2.38 1.14 3.73l-1.52 11.64c-.3 2.34-2.32 4.11-4.69 4.11z"/><path d="m47.79 45.21h-3.25c-.5 0-.91-.41-.91-.91s.41-.91.91-.91h3.25c.71 0 1.32-.53 1.41-1.24l.68-5.29c.05-.41-.07-.81-.34-1.12s-.65-.48-1.07-.48h-3.93c-.5 0-.91-.41-.91-.91s.41-.91.91-.91h3.93c.93 0 1.82.4 2.44 1.1s.9 1.63.78 2.56l-.68 5.29c-.21 1.6-1.6 2.82-3.22 2.82z"/><path d="m18.76 53.56c-.24 0-.47-.1-.64-.26-.17-.17-.27-.41-.27-.65s.1-.48.27-.65c.25-.25.66-.34.99-.19.11.04.22.11.3.19.17.17.27.41.27.65s-.1.47-.27.65c-.17.16-.41.26-.65.26z"/><path d="m18.77 49.87c-.5 0-.91-.41-.91-.91v-14.63c0-.5.41-.91.91-.91s.91.41.91.91v14.62c0 .51-.41.92-.91.92z"/><path d="m27.76 53.56c-.24 0-.47-.1-.64-.26-.17-.17-.27-.41-.27-.65s.1-.48.27-.65c.21-.21.52-.31.82-.25.06.02.12.03.17.06.11.04.22.11.3.19.17.17.27.41.27.65s-.1.47-.27.65c-.17.16-.4.26-.65.26z"/><path d="m27.77 49.87c-.5 0-.91-.41-.91-.91v-7.31c0-.5.41-.91.91-.91s.91.41.91.91v7.31c0 .5-.41.91-.91.91z"/><path d="m36.76 53.56c-.12 0-.23-.02-.34-.07-.12-.04-.22-.11-.3-.19-.17-.17-.27-.41-.27-.65 0-.12.03-.24.07-.35.05-.11.11-.21.2-.3.33-.33.95-.34 1.29 0 .08.09.15.19.2.3.04.11.07.23.07.35 0 .24-.1.47-.27.65-.08.08-.19.15-.3.19-.05.03-.11.04-.17.05-.06.02-.12.02-.18.02z"/><path d="m36.77 49.87c-.5 0-.91-.41-.91-.91v-12.54c0-.5.41-.91.91-.91s.91.41.91.91v12.54c0 .5-.41.91-.91.91z"/></g></svg>