<svg id="Capa_1" enable-background="new 0 0 512.007 512.007" height="512" viewBox="0 0 512.007 512.007" width="512" xmlns="http://www.w3.org/2000/svg"><g><g><g><g><path d="m191.649 212.605-63.816-21.271c-5.513-1.838-9.232-6.998-9.232-12.809v-61.838c0-1.227-.747-2.33-1.886-2.785l-44.634-17.855c-6.924-2.769-10.291-10.627-7.522-17.551 2.769-6.923 10.627-10.291 17.55-7.521l55.008 22.003c5.126 2.05 8.488 7.015 8.488 12.536v61.116c0 1.291.826 2.438 2.051 2.846l52.532 17.511z" fill="#665e66"/></g><g><path d="m21.812 326.182c-.52-7.439 5.089-13.891 12.528-14.411l41.737-2.918c1.052-.074 1.989-.694 2.466-1.635l28.668-56.49c3.05-6.01 10.064-8.85 16.436-6.656l60.774 20.926-8.792 25.533-47.188-16.248c-1.416-.487-2.974.144-3.652 1.479l-26.4 52.018c-2.148 4.233-6.362 7.028-11.098 7.358l-51.068 3.571c-7.439.521-13.891-5.088-14.411-12.527z" fill="#665e66"/></g><g><path d="m29.089 497.806c-3.761-6.439-1.591-14.707 4.848-18.469l43.333-25.315c.712-.416 1.221-1.106 1.408-1.909l13.385-57.374c1.084-4.647 4.542-8.377 9.094-9.811l67.688-21.312 8.11 25.758-58.712 18.485c-1.011.318-1.78 1.147-2.021 2.18l-12.861 55.126c-.843 3.612-3.135 6.72-6.338 8.59l-49.466 28.897c-6.438 3.764-14.707 1.593-18.468-4.846z" fill="#665e66"/></g><g><path d="m320.358 212.605 63.816-21.271c5.513-1.838 9.232-6.998 9.232-12.809v-61.838c0-1.227.747-2.33 1.886-2.785l44.634-17.854c6.924-2.769 10.291-10.627 7.522-17.551-2.769-6.923-10.627-10.291-17.55-7.521l-55.008 22.002c-5.126 2.05-8.487 7.015-8.487 12.536v61.116c0 1.291-.826 2.438-2.051 2.846l-52.532 17.511z" fill="#665e66"/></g><g><path d="m490.195 326.182c.52-7.439-5.089-13.891-12.528-14.411l-41.737-2.918c-1.052-.074-1.989-.694-2.466-1.635l-28.668-56.49c-3.05-6.01-10.064-8.85-16.436-6.656l-60.774 20.926 8.792 25.533 47.188-16.248c1.416-.487 2.974.144 3.652 1.479l26.398 52.018c2.148 4.233 6.362 7.028 11.098 7.358l51.068 3.571c7.441.521 13.893-5.088 14.413-12.527z" fill="#665e66"/></g><g><path d="m482.919 497.806c3.761-6.439 1.591-14.707-4.848-18.469l-43.333-25.315c-.712-.416-1.221-1.106-1.408-1.909l-13.385-57.374c-1.084-4.647-4.542-8.377-9.094-9.811l-67.688-21.312-8.11 25.758 58.712 18.485c1.011.318 1.78 1.147 2.021 2.18l12.861 55.126c.843 3.612 3.135 6.72 6.338 8.59l49.466 28.897c6.438 3.764 14.706 1.593 18.468-4.846z" fill="#665e66"/></g></g><g fill="#8fd1f9"><circle cx="210.614" cy="138.518" r="25.003"/><circle cx="302.627" cy="138.518" r="25.003"/></g><g><path d="m280.624 100.513h-49.008c-8.285 0-12.399 13.521-12.399 21.806l1.191 5.532 75.218-.458v-11.878c0-8.285-6.717-15.002-15.002-15.002z" fill="#c4e2ff"/><path d="m256.12 116.517c-6.439 0-12.726.803-18.758 2.317-2.914.731-5.747-1.425-5.747-4.429l.001-13.892c-8.285.001-15.001 6.717-15.001 15.002v12.535 25.471h79.011v-16-10.127c-11.655-6.949-25.214-10.877-39.506-10.877z" fill="#aadaf7"/></g><g><path d="m256.12 131.517c-12.765 0-24.942 3.138-35.703 8.757 0 0-24.333 15.151-33.95 48.792l-4.858 18.462h149.022l1.053-15-.911-3.462c-8.925-33.912-39.586-57.549-74.653-57.549z" fill="#8b818e"/><path d="m215.699 192.528c-9.649 0-16.688-9.13-14.232-18.462 3.431-13.036 10.079-24.551 18.95-33.792-18.802 9.818-33.274 27.223-38.95 48.792l-4.858 18.462 2.948 3h153.105l2.969-3-3.947-15z" fill="#756e78"/></g><g><path d="m256.12 501.213-7.509 3.035c-58.67-3.86-102.246-57.345-102.246-116.992l.191-148.218c0-10.836 3.072-23.277 11.967-28.11 4.044-2.197 8.645-3.428 13.57-3.428h51.262l31.649 6 33.882-6h51.262c15.761 0 28.537 12.777 28.537 28.537v155.899c0 59.647-46.393 108.454-105.063 112.314z" fill="#aadaf7"/><path d="m158.556 393.936-.033-183.008c-8.931 4.822-14.967 14.248-14.967 25.11v155.899c0 59.638 46.398 108.438 105.055 112.312-51.372-10.436-90.055-55.86-90.055-110.313z" fill="#8fd1f9"/></g><g><path d="m255.03 248.374c-18.096 0-29.686-20.13-29.686-38.225l13.011-2.649h50.53v9.512c0 15.514-10.784 28.505-25.264 31.897-2.409.565-8.591-.535-8.591-.535z" fill="#8b818e"/><path d="m238.355 217.012v-9.512h-15v9.512c0 18.096 14.669 32.765 32.765 32.765 2.582 0 5.091-.303 7.501-.868-14.479-3.392-25.266-16.383-25.266-31.897z" fill="#756e78"/></g></g><g><path d="m382.305 282.65 24.625 48.524c3.323 6.548 9.938 10.934 17.263 11.445 3.91.217 48.341 3.486 52.564 3.624 5.059 0 9.893-1.802 13.747-5.153 4.234-3.681 6.781-8.789 7.172-14.385.392-5.597-1.42-11.011-5.101-15.244-3.681-4.234-8.789-6.781-14.385-7.172l-39.192-2.741-27.513-54.214c-4.718-9.297-15.709-13.746-25.566-10.354l-9.735 3.352v-4.297c0-11.982-5.883-22.61-14.907-29.166l25.269-8.423c8.589-2.863 14.36-10.87 14.36-19.925v-58.791l41.806-16.722c5.209-2.084 9.295-6.071 11.504-11.228 2.21-5.156 2.279-10.864.196-16.072-2.084-5.209-6.07-9.295-11.227-11.504-5.157-2.212-10.864-2.281-16.072-.196l-55.007 22.003c-8.021 3.207-13.204 10.861-13.204 19.5v57.873l-26.387 8.795c-1.868-3.906-4.014-7.637-6.421-11.164 5.751-5.973 9.036-13.956 9.036-22.5.077-17.77-15.507-33.558-34.089-32.448-2.931-6.311-8.7-11.043-15.661-12.547 2.756-12.598 12.817-22.633 25.932-24.998 4.076-.735 6.785-4.636 6.05-8.712s-4.633-6.784-8.712-6.05c-20.11 3.626-35.305 19.579-38.426 39.249h-28.204c-3.607-22.643-23.266-40.005-46.908-40.005h-27.703c-10.5 0-19.268-8.283-19.547-18.465-.142-5.185 1.767-10.082 5.374-13.79 3.61-3.71 8.447-5.753 13.622-5.753 4.142 0 7.5-3.357 7.5-7.5s-3.358-7.496-7.5-7.496c-9.259 0-17.915 3.655-24.373 10.293-6.456 6.635-9.872 15.394-9.617 24.66.499 18.227 15.995 33.055 34.542 33.055h27.703c15.525 0 28.534 10.942 31.741 25.517-6.943 1.503-12.7 6.218-15.636 12.508-17.676-.496-33.112 14.443-33.107 32.486 0 8.198 3.078 15.961 8.47 21.879-2.595 3.73-4.902 7.689-6.888 11.852l-26.589-8.863v-57.873c0-8.639-5.182-16.293-13.202-19.5l-55.007-22.003c-5.209-2.084-10.917-2.013-16.073.196s-9.143 6.295-11.227 11.503c-2.083 5.209-2.014 10.917.196 16.073 2.209 5.156 6.295 9.144 11.504 11.228l41.806 16.722v58.791c0 9.055 5.771 17.062 14.36 19.925l25.427 8.476c-8.982 6.56-14.833 17.164-14.833 29.113v4.377l-9.968-3.432c-9.856-3.398-20.848 1.057-25.566 10.352l-27.513 54.215-39.191 2.741c-5.597.391-10.706 2.938-14.386 7.172-3.681 4.233-5.492 9.647-5.101 15.244.392 5.596 2.938 10.704 7.172 14.385 3.196 2.744 9.296 5.618 15.244 5.101l51.067-3.571c7.325-.512 13.94-4.897 17.263-11.445l24.625-48.524 6.354 2.188v81.24l-37.152 11.698c-7.046 2.219-12.466 8.066-14.144 15.26l-12.945 55.488-41.661 24.337c-4.844 2.83-8.296 7.376-9.72 12.803-1.424 5.426-.65 11.082 2.179 15.926s7.376 8.296 12.802 9.72c1.777.467 3.578.697 5.368.697 3.675 0 7.301-.974 10.558-2.877l49.464-28.896c4.961-2.896 8.556-7.768 9.861-13.363l12.278-52.628 14.429-4.543c8.611 57.807 58.58 102.297 118.748 102.297 30.833 0 60.139-11.668 82.521-32.854 3.009-2.848 3.139-7.595.292-10.603-2.85-3.01-7.597-3.139-10.603-.292-17.761 16.812-40.506 26.773-64.71 28.483v-145.862c0-4.143-3.358-7.5-7.5-7.5s-7.5 3.357-7.5 7.5v145.857c-54.446-3.859-97.564-49.382-97.564-104.793v-155.899c0-11.6 9.438-21.037 21.038-21.037h43.762c-1.059 19.695 13.538 38.069 32.765 41.566v59.264c0 4.143 3.358 7.5 7.5 7.5s7.5-3.357 7.5-7.5v-59.264c18.955-3.454 33.663-21.297 32.765-41.566h43.762c11.6 0 21.037 9.438 21.037 21.037v155.899c0 17.66-4.463 35.121-12.906 50.495-1.994 3.631-.668 8.19 2.963 10.184 3.63 1.997 8.19.668 10.184-2.963 6.794-12.368 11.323-25.916 13.417-39.886l14.222 4.477 12.277 52.628c1.306 5.597 4.9 10.468 9.859 13.361l49.466 28.897c3.322 1.941 6.963 2.864 10.559 2.863 7.226 0 14.269-3.727 18.169-10.403 2.83-4.844 3.604-10.5 2.18-15.926-1.424-5.427-4.876-9.973-9.72-12.802l-41.661-24.338-12.945-55.488c-1.678-7.193-7.099-13.041-14.146-15.26l-36.918-11.624v-81.394zm8.498-31.485c2.812-.972 5.957.301 7.306 2.958l29.438 58.006c1.194 2.352 3.534 3.903 6.165 4.087l43.434 3.037c1.599.112 3.059.84 4.11 2.05s1.569 2.757 1.458 4.357c-.112 1.599-.84 3.059-2.05 4.11s-2.759 1.571-4.356 1.458l-51.067-3.571c-2.094-.146-3.984-1.4-4.934-3.271l-27.58-54.347c-1.695-3.338-5.589-4.915-9.131-3.698l-7.411 2.552v-12.694zm-204.458-51.165 2.375-9.025c8.05-30.592 35.766-51.957 67.4-51.957 31.633 0 59.349 21.366 67.4 51.958l2.375 9.024s-116.755 0-139.55 0zm182.429-24.093c3.062-1.021 5.128-3.887 5.128-7.115v-63.278c0-2.469 1.48-4.656 3.773-5.572l55.009-22.003c1.486-.597 3.119-.576 4.592.056 1.474.631 2.613 1.799 3.208 3.288.596 1.488.576 3.119-.056 4.593s-1.799 2.613-3.287 3.208l-46.521 18.607c-2.848 1.14-4.715 3.897-4.715 6.964v63.869c0 2.588-1.649 4.876-4.104 5.694l-40.956 13.652c-.379-1.38-2.719-10.455-3.08-11.626zm-48.644-37.388c0 3.985-1.333 7.74-3.702 10.767-4.053-4.108-8.51-7.791-13.302-10.992v-17.254c9.419.267 17.004 7.996 17.004 17.479zm-88.513-30.506h49.007c4.137 0 7.502 3.365 7.502 7.502v14.805c-9.946-4.069-20.769-6.302-32.006-6.302s-22.06 2.233-32.005 6.302v-14.804c-.001-4.138 3.365-7.503 7.502-7.503zm-38.506 30.506c0-9.145 7.053-16.663 16.004-17.428v17.203c-4.566 3.05-8.835 6.532-12.733 10.409-2.098-2.931-3.271-6.475-3.271-10.184zm-67.01 40.004v-63.869c0-3.066-1.867-5.824-4.715-6.964l-46.52-18.607c-1.488-.595-2.656-1.734-3.288-3.208-.631-1.474-.651-3.105-.056-4.594.596-1.488 1.735-2.656 3.208-3.287s3.104-.652 4.593-.056l55.009 22.003c2.292.916 3.772 3.104 3.772 5.572v63.278c0 3.229 2.066 6.094 5.128 7.115l31.222 10.408c-.043.045-2.862 10.814-3.079 11.626l-41.172-13.724c-2.452-.817-4.102-3.105-4.102-5.693zm2.31 87.818c-3.542-1.219-7.436.359-9.13 3.697l-27.581 54.348c-.95 1.871-2.84 3.125-4.934 3.271l-51.066 3.572c-1.603.104-3.146-.406-4.356-1.458s-1.938-2.512-2.05-4.111c-.112-1.6.405-3.146 1.457-4.356s2.512-1.938 4.111-2.05l43.433-3.037c2.631-.184 4.972-1.735 6.165-4.087l29.437-58.007c1.349-2.656 4.491-3.928 7.306-2.957l14.852 5.114v12.694zm-14.052 134.88c-2.529.796-4.449 2.867-5.051 5.449l-13.25 56.794c-.373 1.598-1.399 2.989-2.817 3.817l-49.466 28.897c-1.384.809-3.001 1.028-4.55.623-1.551-.407-2.85-1.394-3.659-2.778s-1.03-3-.623-4.552c.407-1.55 1.394-2.85 2.778-3.658l44.448-25.966c1.779-1.039 3.053-2.765 3.521-4.771l13.679-58.632c.479-2.056 2.029-3.727 4.042-4.36l32.647-10.279c.021 5.43-.045 7.317.031 12.573zm167.026-184.208c0 13.931-11.334 25.265-25.265 25.265-14.221.071-26.219-12.57-25.265-27.277h50.53zm127.212 175.07c2.015.635 3.563 2.306 4.043 4.361l13.679 58.632c.468 2.007 1.741 3.732 3.521 4.771l44.448 25.967c1.385.808 2.371 2.107 2.778 3.658.406 1.55.186 3.166-.623 4.551-1.67 2.857-5.354 3.825-8.21 2.155l-49.469-28.899c-1.416-.826-2.442-2.218-2.815-3.816l-13.249-56.793c-.603-2.582-2.522-4.653-5.052-5.45l-21.504-6.77c.048-.084.042-11.785.04-12.572z"/><path d="m344.988 53.007c-4.143.032-7.474 3.417-7.441 7.559.032 4.122 3.384 7.441 7.499 7.441h.06c18.712-.146 33.764-14.665 34.268-33.053.255-9.268-3.161-18.025-9.616-24.661-6.459-6.638-15.116-10.293-24.375-10.293-4.143 0-7.5 3.357-7.5 7.5s3.357 7.5 7.5 7.5c5.175 0 10.013 2.043 13.622 5.753 3.607 3.708 5.517 8.605 5.374 13.79-.277 10.1-8.976 18.383-19.391 18.464z"/><path d="m175.274 393.42c-4.142 0-7.495 3.357-7.495 7.5s3.363 7.5 7.505 7.5 7.5-3.357 7.5-7.5-3.358-7.5-7.5-7.5z"/><path d="m206.982 393.42c-4.142 0-7.495 3.357-7.495 7.5s3.363 7.5 7.505 7.5 7.5-3.357 7.5-7.5-3.358-7.5-7.5-7.5z"/><path d="m191.128 419.844c-4.142 0-7.495 3.357-7.495 7.5s3.363 7.5 7.505 7.5 7.5-3.357 7.5-7.5-3.358-7.5-7.5-7.5z"/><path d="m340.167 234.879h-.01c-4.142 0-7.495 3.357-7.495 7.5s3.363 7.5 7.505 7.5c4.143 0 7.5-3.357 7.5-7.5s-3.358-7.5-7.5-7.5z"/><path d="m308.431 234.777c-4.142 0-7.495 3.357-7.495 7.5s3.363 7.5 7.505 7.5c4.143 0 7.5-3.357 7.5-7.5s-3.357-7.5-7.5-7.5z"/><path d="m324.302 261.303c-4.142 0-7.495 3.357-7.495 7.5s3.363 7.5 7.505 7.5c4.143 0 7.5-3.357 7.5-7.5s-3.357-7.5-7.5-7.5z"/></g></g></svg>