<svg height="512" viewBox="0 0 48 48" width="512" xmlns="http://www.w3.org/2000/svg"><g id="Line"><g fill="#f8a358"><path d="m38 33h-28c-.552 0-1 .447-1 1v4c0 .553.448 1 1 1h28c.553 0 1-.447 1-1v-4c0-.553-.447-1-1-1z"/><path d="m24 15c.552 0 1-.447 1-1v-4c0-.553-.448-1-1-1s-1 .447-1 1v4c0 .553.448 1 1 1z"/></g><path d="m43 37h-38c-1.654 0-3 1.346-3 3s1.346 3 3 3h38c3.944-.099 3.965-5.895 0-6z" fill="#7f6654"/><g fill="#ffd267"><path d="m24 13c-11.41-.031-20.521 9.634-20 21 0 .553.448 1 1 1h38c.553 0 1-.447 1-1 .52-11.366-8.589-21.031-20-21z"/><path d="m21 11h6c1.654 0 3-1.346 3-3s-1.346-3-3-3h-6c-3.954.103-3.957 5.897 0 6z"/></g><path d="m43 37h-4v-2h4c.553 0 1-.447 1-1 .505-11.022-8.06-20.438-19-20.949v-2.051h2c3.95-.096 3.958-5.9 0-6h-6c-3.958.11-3.955 5.893 0 6h2v2.051c-10.939.511-19.506 9.928-19 20.949 0 .553.448 1 1 1h4v2h-4c-1.654 0-3 1.346-3 3s1.346 3 3 3h38c3.948-.105 3.964-5.892 0-6zm-23-29c0-.552.449-1 1-1h6c.552 0 1 .448 1 1s-.448 1-1 1h-6c-.551 0-1-.448-1-1zm4 7c9.925 0 18 8.075 18 18h-36c0-9.925 8.075-18 18-18zm-13 20h26v2h-26zm32 6h-38c-1.301-.019-1.325-1.976 0-2h38c1.301.019 1.325 1.976 0 2z"/></g></svg>