<svg height="512" viewBox="0 0 128 128" width="512" xmlns="http://www.w3.org/2000/svg"><g><path d="m105.941 121.693v-36.057a12 12 0 0 0 -8.615-11.512l-23.842-7.012h-18.968l-23.842 7.012a12 12 0 0 0 -8.615 11.512v36.057z" fill="#ff415b"/><path d="m42.39 39.905h-1.956a4.168 4.168 0 0 0 -4.124 4.767l.191 1.32a7 7 0 0 0 4.634 5.608l2.986 1.036h39.758l2.986-1.036a7 7 0 0 0 4.635-5.608l.191-1.32a4.168 4.168 0 0 0 -4.124-4.767z" fill="#f1d0a4"/><path d="m85.61 27.528s-4.474 8.672-21.61 8.672-21.61-8.667-21.61-8.667v13.774c0 13.464 6.321 21.377 12.126 25.8a15.64 15.64 0 0 0 18.967 0c5.806-4.428 12.127-12.341 12.127-25.8z" fill="#ffe3c1"/><path d="m42.39 6.307v21.221s4.474 8.672 21.61 8.672 21.61-8.667 21.61-8.667v-21.226z" fill="#405580"/><path d="m42.39 19.407h43.221v8.121h-43.221z" fill="#ffdd70"/><g><circle cx="64" cy="119.379" r="2.314"/><path d="m22.059 108.719a1.75 1.75 0 0 0 -1.75 1.75v11.224a1.75 1.75 0 1 0 3.5 0v-11.224a1.75 1.75 0 0 0 -1.75-1.75z"/><path d="m22.059 94.982a1.751 1.751 0 0 0 -1.75 1.75v4.5a1.75 1.75 0 0 0 3.5 0v-4.5a1.751 1.751 0 0 0 -1.75-1.75z"/><path d="m97.82 72.445-20.734-6.1a31.444 31.444 0 0 0 8.143-12.329l2.21-.766a8.721 8.721 0 0 0 5.791-7.01l.192-1.32a5.918 5.918 0 0 0 -5.856-6.768h-.206v-31.845a1.75 1.75 0 0 0 -1.75-1.75h-8.033a1.75 1.75 0 0 0 0 3.5h6.283v9.6h-39.72v-9.6h24.074a1.75 1.75 0 0 0 0-3.5h-25.824a1.75 1.75 0 0 0 -1.75 1.75v31.848h-.206a5.918 5.918 0 0 0 -5.856 6.768l.192 1.32a8.721 8.721 0 0 0 5.791 7.01l2.21.766a31.452 31.452 0 0 0 8.143 12.329l-20.734 6.1a13.826 13.826 0 0 0 -9.871 13.191v1.44a1.75 1.75 0 0 0 3.5 0v-1.44a10.307 10.307 0 0 1 7.358-9.839l23.038-6.775a17.312 17.312 0 0 0 6.385 2.678l-6.9 3.689a1.749 1.749 0 0 0 -.924 1.543v44.755a1.75 1.75 0 0 0 3.5 0v-43.703l12.2-6.52a17.294 17.294 0 0 0 5.334-2.439l23.033 6.772a10.307 10.307 0 0 1 7.358 9.833v36.057a1.75 1.75 0 1 0 3.5 0v-36.054a13.826 13.826 0 0 0 -9.871-13.191zm-8.426-29.954a2.383 2.383 0 0 1 .564 1.929l-.191 1.32a5.227 5.227 0 0 1 -3.336 4.147 38.885 38.885 0 0 0 .919-8.232h.216a2.383 2.383 0 0 1 1.828.836zm-5.534-21.334v4.621h-39.72v-4.621zm-2.06 8.121c-2.642 2.254-7.961 5.167-17.8 5.167s-15.163-2.917-17.8-5.167zm-43.567 16.462-.191-1.32a2.418 2.418 0 0 1 2.392-2.765h.216a38.893 38.893 0 0 0 .919 8.232 5.227 5.227 0 0 1 -3.336-4.147zm5.907-4.433v-9.215c3.264 2.7 9.334 5.853 19.86 5.853s16.6-3.155 19.86-5.853v9.215c0 12.968-6.22 20.434-11.438 24.414a13.921 13.921 0 0 1 -16.844 0c-5.218-3.98-11.438-11.446-11.438-24.414z"/><path d="m39 93.811a1.751 1.751 0 0 0 -1.75 1.75v26.132a1.75 1.75 0 0 0 3.5 0v-26.132a1.751 1.751 0 0 0 -1.75-1.75z"/><path d="m89 93.811a1.751 1.751 0 0 0 -1.75 1.75v26.132a1.75 1.75 0 0 0 3.5 0v-26.132a1.751 1.751 0 0 0 -1.75-1.75z"/><circle cx="64" cy="83.984" r="2.314"/><circle cx="72" cy="42.219" r="2.314"/><circle cx="56" cy="42.219" r="2.314"/><circle cx="64" cy="95.782" r="2.314"/><circle cx="64" cy="107.581" r="2.314"/><path d="m55.989 54.781a1.75 1.75 0 0 0 -.087 2.473 12.072 12.072 0 0 0 16.2 0 1.75 1.75 0 0 0 -2.549-2.4 8.639 8.639 0 0 1 -11.1 0 1.75 1.75 0 0 0 -2.464-.073z"/></g></g></svg>