<svg clip-rule="evenodd" fill-rule="evenodd" height="512" image-rendering="optimizeQuality" shape-rendering="geometricPrecision" text-rendering="geometricPrecision" viewBox="0 0 512 512" width="512" xmlns="http://www.w3.org/2000/svg" xmlns:xodm="http://www.corel.com/coreldraw/odm/2003"><g id="Layer_x0020_1"><path d="m461.91 285.62h-416.79c-2.76 0-5-2.23-5-5v-196.69c0-2.76 2.24-5 5-5h416.79c2.76 0 5 2.24 5 5v196.69c0 2.77-2.24 5-5 5z" fill="#a28671"/><path d="m387.68 386.38h-277.72c-13.16 0-13.16-20 0-20h277.72c13.16 0 13.16 20 0 20z" fill="#747474"/><path d="m96.72 433.07h-48.96c-2.76 0-5-2.24-5-5v-103.38c0-5.21 6.26-6.3 8.88-3.26h67.69c2.95-3.66 10.14-1.06 8.71 4.5l-26.48 103.37c-.56 2.22-2.56 3.77-4.84 3.77z" fill="#2b2b2b"/><path d="m449.88 433.07h-48.96c-2.28 0-4.28-1.55-4.84-3.76l-26.48-103.38c-1.49-5.78 6.34-8.36 9.03-4.04h67.03c2.34-3.59 9.22-2.66 9.22 2.8v103.37c0 2.77-2.24 5.01-5 5.01z" fill="#2b2b2b"/><g fill="#5f4534"><path d="m497.48 329.69h-482.96c-7.99 0-14.49-6.51-14.49-14.5v-25.07c0-7.99 6.5-14.5 14.49-14.5h482.96c7.99 0 14.49 6.51 14.49 14.5v25.07c0 7.99-6.5 14.5-14.49 14.5z"/><path d="m466.91 150.9h-426.79v62.76h426.79z"/></g></g></svg>