<svg height="512" viewBox="0 0 128 128" width="512" xmlns="http://www.w3.org/2000/svg"><g><g><path d="m110.905 64c0 4.029-4.462 7.418-5.455 11.134-1.028 3.845 1.112 9-.836 12.371-1.976 3.414-7.532 4.13-10.3 6.9s-3.486 8.328-6.9 10.3c-3.366 1.948-8.526-.192-12.37.836-3.716.993-7.105 5.455-11.134 5.455s-7.418-4.462-11.134-5.455c-3.845-1.028-9.005 1.112-12.371-.836-3.415-1.976-4.13-7.532-6.9-10.3s-8.328-3.486-10.3-6.9c-1.948-3.366.191-8.525-.836-12.37-.993-3.716-5.455-7.105-5.455-11.134s4.462-7.418 5.455-11.134c1.027-3.845-1.112-9.005.836-12.371 1.976-3.414 7.532-4.13 10.3-6.9s3.486-8.328 6.9-10.3c3.366-1.948 8.525.192 12.37-.836 3.712-.998 7.101-5.46 11.13-5.46s7.418 4.462 11.134 5.455c3.845 1.028 9-1.112 12.371.836 3.414 1.976 4.13 7.532 6.9 10.3s8.328 3.486 10.3 6.9c1.948 3.366-.192 8.525.836 12.37.997 3.721 5.459 7.11 5.459 11.139z" fill="#f5c464"/><circle cx="63.905" cy="64" fill="#f26e53" r="33.169"/><path d="m78.7 63.135a4.693 4.693 0 0 0 -4.693-4.692h-4.118a9.993 9.993 0 0 0 2.126-2.515c1.387-1.953 2.079-5.656.83-7.643a2.628 2.628 0 0 0 -4.752.555c-2.322 6.191-10.173 9.6-10.173 9.6v21.234h11.6a9.18 9.18 0 0 0 9.18-9.18z" fill="#fff7ed"/><path d="m46.435 55.916h11.485v25.065h-11.485z" fill="#f5c464"/></g><g fill="#250a66"><path d="m74.422 47.354a4.491 4.491 0 0 0 -4.231-2.062 4.354 4.354 0 0 0 -3.641 2.933c-1.27 3.387-4.544 5.9-6.83 7.308a1.75 1.75 0 0 0 -1.7-1.367h-11.49a1.75 1.75 0 0 0 -1.75 1.75v25.065a1.75 1.75 0 0 0 1.75 1.75h11.485a1.746 1.746 0 0 0 1.685-1.307h9.915a10.942 10.942 0 0 0 10.93-10.93v-7.359a6.451 6.451 0 0 0 -6.445-6.443h-.4c1.655-2.53 2.332-6.777.722-9.338zm-26.142 10.312h7.985v21.565h-7.985zm25.82 2.526a2.947 2.947 0 0 1 2.943 2.943v7.359a7.438 7.438 0 0 1 -7.43 7.43h-9.848v-18.387c2.367-1.229 8.021-4.642 10.062-10.083.236-.632.6-.668.719-.681a1 1 0 0 1 .913.443c.746 1.188.348 4.117-.776 5.7a15 15 0 0 1 -1.619 2.02 1.576 1.576 0 0 0 -.966 1.843 1.861 1.861 0 0 0 1.886 1.414z"/><path d="m109.554 71.447c1.5-2.156 3.2-4.6 3.2-7.447s-1.7-5.291-3.195-7.447a14.924 14.924 0 0 1 -2.32-4.138 15.534 15.534 0 0 1 -.084-4.942c.218-2.7.443-5.486-.927-7.854-1.391-2.4-3.941-3.607-6.406-4.77a15.214 15.214 0 0 1 -4.174-2.492 15.231 15.231 0 0 1 -2.493-4.175c-1.163-2.465-2.365-5.015-4.77-6.406-2.367-1.369-5.156-1.144-7.853-.927a15.562 15.562 0 0 1 -4.942-.084 14.92 14.92 0 0 1 -4.139-2.319c-2.156-1.5-4.6-3.2-7.447-3.2a9.058 9.058 0 0 0 -4.182 1.134 1.75 1.75 0 1 0 1.6 3.11 5.617 5.617 0 0 1 2.578-.74c1.75 0 3.548 1.248 5.45 2.57a17.534 17.534 0 0 0 5.232 2.826 18.214 18.214 0 0 0 6.128.191c2.262-.182 4.4-.353 5.819.469 1.458.843 2.381 2.8 3.357 4.869a17.875 17.875 0 0 0 3.183 5.157 17.846 17.846 0 0 0 5.156 3.182c2.07.977 4.026 1.9 4.869 3.358.824 1.422.651 3.558.469 5.819a18.181 18.181 0 0 0 .191 6.127 17.522 17.522 0 0 0 2.826 5.232c1.322 1.9 2.57 3.7 2.57 5.45s-1.249 3.547-2.57 5.451a17.505 17.505 0 0 0 -2.826 5.231 18.213 18.213 0 0 0 -.192 6.128c.183 2.261.355 4.4-.468 5.818-.843 1.459-2.8 2.381-4.87 3.358a17.881 17.881 0 0 0 -5.156 3.182 17.859 17.859 0 0 0 -3.183 5.158c-.976 2.07-1.9 4.025-3.356 4.869-1.423.823-3.558.65-5.819.468a18.189 18.189 0 0 0 -6.128.192 17.509 17.509 0 0 0 -5.232 2.825c-1.9 1.322-3.7 2.57-5.45 2.57s-3.548-1.248-5.45-2.57a17.534 17.534 0 0 0 -5.232-2.826 18.189 18.189 0 0 0 -6.128-.191c-2.263.183-4.4.354-5.819-.469-1.458-.843-2.381-2.8-3.357-4.869a17.9 17.9 0 0 0 -3.183-5.157 17.846 17.846 0 0 0 -5.156-3.182c-2.071-.977-4.026-1.9-4.869-3.358-.824-1.422-.651-3.558-.469-5.819a18.155 18.155 0 0 0 -.192-6.127 17.5 17.5 0 0 0 -2.825-5.232c-1.322-1.9-2.57-3.7-2.57-5.45s1.25-3.547 2.57-5.451a17.48 17.48 0 0 0 2.825-5.231 18.187 18.187 0 0 0 .193-6.128c-.183-2.261-.355-4.4.468-5.818.843-1.459 2.8-2.381 4.87-3.358a17.881 17.881 0 0 0 5.156-3.182 17.859 17.859 0 0 0 3.183-5.158c.976-2.07 1.9-4.025 3.357-4.869a1.75 1.75 0 1 0 -1.754-3.029c-2.4 1.391-3.605 3.94-4.768 6.405a15.253 15.253 0 0 1 -2.493 4.176 15.238 15.238 0 0 1 -4.174 2.491c-2.466 1.163-5.015 2.366-6.407 4.771-1.37 2.367-1.144 5.156-.927 7.853a15.54 15.54 0 0 1 -.084 4.943 14.944 14.944 0 0 1 -2.319 4.138c-1.5 2.156-3.2 4.6-3.2 7.447s1.7 5.291 3.2 7.447a14.924 14.924 0 0 1 2.32 4.138 15.534 15.534 0 0 1 .084 4.942c-.218 2.7-.443 5.486.927 7.854 1.391 2.4 3.941 3.607 6.406 4.77a15.214 15.214 0 0 1 4.174 2.492 15.231 15.231 0 0 1 2.493 4.175c1.163 2.465 2.365 5.015 4.77 6.406 2.368 1.37 5.158 1.145 7.853.927a15.5 15.5 0 0 1 4.942.084 14.92 14.92 0 0 1 4.139 2.319c2.156 1.5 4.6 3.2 7.447 3.2s5.291-1.7 7.447-3.2a14.889 14.889 0 0 1 4.139-2.318 15.472 15.472 0 0 1 4.942-.085c2.7.219 5.486.443 7.854-.927 2.4-1.391 3.6-3.94 4.768-6.405a15.253 15.253 0 0 1 2.493-4.176 15.238 15.238 0 0 1 4.174-2.491c2.466-1.163 5.015-2.366 6.407-4.771 1.37-2.367 1.144-5.156.927-7.853a15.54 15.54 0 0 1 .084-4.943 14.944 14.944 0 0 1 2.318-4.138z"/><path d="m50.922 24.485h.082a10.855 10.855 0 0 0 2.313-.337 1.75 1.75 0 0 0 -.9-3.382 7.4 7.4 0 0 1 -1.573.223 1.75 1.75 0 0 0 .08 3.5z"/><path d="m91.6 82.485a1.75 1.75 0 0 0 2.4-.606 34.862 34.862 0 1 0 -22.108 16.144 1.75 1.75 0 0 0 -.788-3.41 31.416 31.416 0 1 1 19.896-14.528 1.751 1.751 0 0 0 .6 2.4z"/><path d="m83.065 88.975q-.725.555-1.484 1.068a1.75 1.75 0 0 0 1.961 2.9q.843-.572 1.652-1.189a1.75 1.75 0 0 0 -2.129-2.779z"/></g></g></svg>