<svg height="512" viewBox="0 0 128 128" width="512" xmlns="http://www.w3.org/2000/svg"><g><circle cx="44.153" cy="20.759" fill="#ffdd70" r="14.452"/><path d="m88.978 121.693a5.006 5.006 0 0 0 4.891-6.025 95.776 95.776 0 0 1 1.516-42.48c6.59-25.633-.057-52.429-.057-52.429h-51.175s-6.647 26.8-.057 52.429a95.8 95.8 0 0 1 1.517 42.48 5 5 0 0 0 4.89 6.025z" fill="#e6f2ff"/><path d="m91.038 40.445c.583 8.935.365 20.117-2.433 31a107.808 107.808 0 0 0 -3.305 22.195 15.538 15.538 0 0 1 -15.56 14.815 15.538 15.538 0 0 1 -15.555-14.815 107.818 107.818 0 0 0 -3.309-22.2c-2.789-10.846-3-22.044-2.417-31a25.961 25.961 0 0 1 14.031-3.759c11.731 0 13.001 7.865 28.548 3.764z" fill="#ff415b"/><g fill="#e21e49"><circle cx="62.636" cy="53.349" r="4.997"/><path d="m79.368 69.571a3.839 3.839 0 1 1 -3.839-3.839 3.838 3.838 0 0 1 3.839 3.839z"/><path d="m74.745 90.2a5 5 0 1 1 -5-5 5 5 0 0 1 5 5z"/></g><g><path d="m44.153 16.75a1.749 1.749 0 0 0 1.747-1.75v-2.62a1.75 1.75 0 0 0 -3.5 0v2.62a1.75 1.75 0 0 0 1.753 1.75z"/><path d="m98.165 54.283a1.745 1.745 0 0 0 -1.862 1.63 92.462 92.462 0 0 1 -2.613 16.839 97.925 97.925 0 0 0 -1.536 43.266 3.28 3.28 0 0 1 -.672 2.738 3.219 3.219 0 0 1 -2.5 1.187h-38.482a3.22 3.22 0 0 1 -2.5-1.187 3.277 3.277 0 0 1 -.672-2.738 88.061 88.061 0 0 0 1.666-14.534 1.75 1.75 0 0 0 -1.694-1.808 1.72 1.72 0 0 0 -1.809 1.689 84.654 84.654 0 0 1 -1.6 13.954 6.755 6.755 0 0 0 6.6 8.124h38.486a6.755 6.755 0 0 0 6.606-8.125 94.36 94.36 0 0 1 1.5-41.695 95.916 95.916 0 0 0 2.717-17.477 1.751 1.751 0 0 0 -1.635-1.863z"/><path d="m47.105 93.814h.111a1.749 1.749 0 0 0 1.636-1.857 103.389 103.389 0 0 0 -3.061-19.2c-5.579-21.7-1.432-44.568-.235-50.242h48.372c.394 1.853 1.107 5.54 1.685 10.386a1.75 1.75 0 0 0 3.476-.417 108.8 108.8 0 0 0 -2.062-12.14 1.751 1.751 0 0 0 -1.7-1.329h-35.07a16.2 16.2 0 1 0 -20.3 17.4c-.92 10.115-1.018 23.75 2.444 37.216a99.8 99.8 0 0 1 2.958 18.551 1.751 1.751 0 0 0 1.746 1.632zm-15.654-73.054a12.7 12.7 0 0 1 25.27-1.75h-12.568a1.749 1.749 0 0 0 -1.7 1.329 109.288 109.288 0 0 0 -2.129 12.528 12.622 12.622 0 0 1 -8.873-12.107z"/><path d="m96.407 42.406c.07 1.483.115 2.972.133 4.427a1.749 1.749 0 0 0 1.749 1.728h.021a1.75 1.75 0 0 0 1.73-1.771c-.019-1.495-.064-3.026-.137-4.55a1.75 1.75 0 0 0 -3.5.166z"/><path d="m38.394 19.01h-2.621a1.75 1.75 0 0 0 0 3.5h2.621a1.75 1.75 0 0 0 0-3.5z"/><path d="m92.06 39.025a1.765 1.765 0 0 0 -1.469-.272c-8.659 2.284-12.362.7-16.65-1.122a26.723 26.723 0 0 0 -11.45-2.7 27.582 27.582 0 0 0 -15.041 4.085 1.752 1.752 0 0 0 -.737 1.315 100.821 100.821 0 0 0 2.468 31.549 106.218 106.218 0 0 1 3.255 21.835 17.324 17.324 0 0 0 34.608 0 106.257 106.257 0 0 1 3.256-21.835 100.794 100.794 0 0 0 2.484-31.549 1.751 1.751 0 0 0 -.724-1.306zm-5.15 31.984a109.754 109.754 0 0 0 -3.363 22.556 13.823 13.823 0 0 1 -27.613 0 109.728 109.728 0 0 0 -3.364-22.556 96.623 96.623 0 0 1 -2.42-29.552 25.373 25.373 0 0 1 12.341-3.026 23.126 23.126 0 0 1 10.078 2.42c4.145 1.765 8.419 3.589 16.841 1.784a95.585 95.585 0 0 1 -2.5 28.374z"/><path d="m69.383 53.35a6.747 6.747 0 1 0 -6.747 6.75 6.754 6.754 0 0 0 6.747-6.75zm-6.747 3.25a3.247 3.247 0 1 1 3.247-3.247 3.251 3.251 0 0 1 -3.247 3.247z"/><path d="m75.529 63.982a5.589 5.589 0 1 0 5.589 5.588 5.595 5.595 0 0 0 -5.589-5.588zm0 7.677a2.089 2.089 0 1 1 2.089-2.089 2.091 2.091 0 0 1 -2.089 2.089z"/><path d="m69.748 83.456a6.747 6.747 0 1 0 6.752 6.744 6.754 6.754 0 0 0 -6.752-6.744zm0 9.994a3.247 3.247 0 1 1 3.252-3.25 3.251 3.251 0 0 1 -3.252 3.25z"/></g></g></svg>