<svg id="Capa_1" enable-background="new 0 0 511.989 511.989" height="512" viewBox="0 0 511.989 511.989" width="512" xmlns="http://www.w3.org/2000/svg"><g><g><circle cx="357.839" cy="198.755" fill="#ffd086" r="17.978"/><g fill="#ffb640"><circle cx="409.849" cy="452.169" r="16.727"/><circle cx="102.156" cy="266.56" r="16.727"/><path d="m222.737 25.178c-2.526-7.007-7.677-12.31-13.943-15.206h-5.322l-12.258 13.594-1.405 19.167 5.996 9.167 6.835 6.333 6.149.29c12.475-5.747 18.692-20.184 13.948-33.345z"/></g><path d="m194.846 43.316c-4.744-13.161 1.472-27.598 13.948-33.344-6.16-2.847-13.399-3.369-20.287-.886-13.896 5.009-21.101 20.334-16.092 34.23s20.334 21.101 34.23 16.092c.735-.265 1.447-.565 2.144-.886-6.267-2.896-11.417-8.198-13.943-15.206z" fill="#ffa90f"/><path d="m185.447 156.233c-2.526-7.007-7.677-12.31-13.943-15.206h-5.79l-8.743 10.724-4.453 11.482v11.638l10.726 12.529 2.469 1.667 5.784.511c12.478-5.747 18.694-20.184 13.95-33.345z" fill="#ffd086"/><path d="m157.556 174.371c-4.744-13.161 1.472-27.598 13.948-33.344-6.16-2.847-13.399-3.369-20.287-.886-13.896 5.009-21.101 20.334-16.092 34.23s20.334 21.101 34.23 16.092c.735-.265 1.447-.565 2.144-.886-6.267-2.896-11.417-8.199-13.943-15.206z" fill="#ffb640"/><path d="m262.146 257.491c-2.526-7.008-7.677-12.31-13.943-15.206h-4.065l-11.667 11.614-3.254 11.667v12.833l9.42 9.333 4.707 2.333 4.853.77c12.477-5.746 18.693-20.183 13.949-33.344z" fill="#ffb640"/><path d="m234.255 275.629c-4.744-13.161 1.472-27.598 13.948-33.344-6.16-2.847-13.399-3.369-20.287-.886-13.896 5.009-21.101 20.334-16.092 34.23s20.334 21.1 34.23 16.092c.735-.265 1.447-.565 2.144-.886-6.267-2.896-11.418-8.198-13.943-15.206z" fill="#ffa90f"/><path d="m207.878 411.965c-2.526-7.008-7.677-12.31-13.943-15.206h-4.065l-11.667 11.614-3.254 11.667v12.833l9.42 9.333 4.707 2.333 4.853.77c12.477-5.747 18.693-20.184 13.949-33.344z" fill="#ffb640"/><path d="m179.987 430.103c-4.744-13.161 1.472-27.598 13.948-33.344-6.16-2.847-13.399-3.369-20.287-.886-13.896 5.009-21.101 20.334-16.092 34.23s20.334 21.1 34.23 16.092c.735-.265 1.447-.565 2.144-.886-6.267-2.896-11.417-8.199-13.943-15.206z" fill="#ffa90f"/><path d="m338.265 468.672c-2.526-7.008-7.677-12.31-13.943-15.206h-4.065l-11.667 11.614-3.254 11.667v12.833l9.42 9.333 4.707 2.333 4.853.77c12.477-5.746 18.693-20.183 13.949-33.344z" fill="#ffb640"/><path d="m310.374 486.81c-4.744-13.161 1.472-27.598 13.948-33.344-6.16-2.847-13.399-3.369-20.287-.886-13.896 5.009-21.101 20.334-16.092 34.23s20.334 21.1 34.23 16.092c.735-.265 1.447-.565 2.144-.886-6.267-2.896-11.417-8.198-13.943-15.206z" fill="#ffa90f"/><path d="m402.488 341.818c-2.526-7.007-7.677-12.31-13.943-15.206h-5.79l-8.743 10.724-4.453 11.482v11.638l10.726 12.529 2.469 1.667 5.784.511c12.478-5.747 18.694-20.184 13.95-33.345z" fill="#ffd086"/><path d="m374.597 359.956c-4.744-13.161 1.472-27.598 13.948-33.344-6.16-2.847-13.399-3.369-20.287-.886-13.896 5.009-21.101 20.334-16.092 34.23s20.334 21.101 34.23 16.092c.735-.265 1.447-.565 2.144-.886-6.267-2.896-11.417-8.199-13.943-15.206z" fill="#ffb640"/></g><g><path d="m349.189 174.787c-13.216 4.763-20.093 19.391-15.33 32.608 4.766 13.22 19.397 20.091 32.607 15.329 13.216-4.763 20.093-19.391 15.33-32.607-4.773-13.246-19.359-20.108-32.607-15.33zm12.192 33.825c-5.434 1.96-11.45-.869-13.41-6.304-1.959-5.435.869-11.451 6.306-13.41 5.454-1.967 11.448.865 13.409 6.304 1.957 5.436-.871 11.451-6.305 13.41z"/><path d="m432.629 443.953c-4.53-12.566-18.44-19.107-31.006-14.576-12.566 4.529-19.106 18.438-14.577 31.007 4.531 12.568 18.44 19.105 31.007 14.576 12.597-4.541 19.117-18.409 14.576-31.007zm-19.662 16.895c-4.791 1.723-10.084-.766-11.81-5.55-1.725-4.787.766-10.084 5.552-11.81 4.788-1.724 10.083.766 11.809 5.552 1.729 4.797-.754 10.08-5.551 11.808z"/><path d="m93.929 243.769c-12.567 4.529-19.106 18.438-14.577 31.006 4.53 12.566 18.438 19.106 31.007 14.576 12.598-4.541 19.117-18.409 14.576-31.007-4.54-12.594-18.407-19.118-31.006-14.575zm11.344 31.471c-4.787 1.723-10.083-.765-11.81-5.551-1.725-4.786.766-10.083 5.553-11.809 4.794-1.73 10.078.753 11.808 5.551 1.73 4.797-.753 10.08-5.551 11.809z"/><path d="m148.663 133.085c-17.807 6.418-27.023 26.021-20.604 43.829 6.403 17.767 25.981 27.037 43.828 20.604.88-.317 1.738-.676 2.581-1.058l36.363 48.006c-7.62 9.048-10.365 21.8-6.073 33.706 2.669 7.406 7.655 13.309 13.834 17.237l-31.964 91.616c-5.093-.596-10.393-.062-15.534 1.792-17.765 6.403-27.008 26.064-20.604 43.83 1.99 5.52 5.384 10.46 9.814 14.287 3.135 2.707 7.871 2.362 10.579-.774 2.707-3.135 2.36-7.871-.774-10.578-2.485-2.146-4.39-4.92-5.508-8.021-3.607-10.007 1.571-21.024 11.579-24.632 9.985-3.597 21.032 1.597 24.631 11.579 2.68 7.435.464 15.907-5.514 21.082-3.131 2.711-3.473 7.447-.762 10.579 2.712 3.132 7.449 3.472 10.58.762 1.978-1.713 3.723-3.63 5.225-5.699l69.132 30.067c-1.131 5.846-.759 12.059 1.403 18.056 6.406 17.773 26.074 27.004 43.829 20.604 17.765-6.403 27.008-26.065 20.604-43.829-2.162-5.997-5.838-11.017-10.439-14.798l34.045-67.248c6.883 1.757 13.751 1.277 20.012-.98 5.519-1.988 10.459-5.382 14.287-9.813 2.708-3.134 2.361-7.871-.772-10.578s-7.87-2.362-10.579.772c-2.147 2.486-4.921 4.391-8.021 5.508-9.982 3.601-21.033-1.597-24.632-11.579-3.598-9.983 1.597-21.033 11.579-24.631 7.434-2.679 15.906-.464 21.081 5.514 2.711 3.132 7.448 3.472 10.579.762 3.132-2.711 3.474-7.447.763-10.579-9.205-10.634-24.281-14.576-37.509-9.808-5.167 1.862-9.606 4.852-13.155 8.584l-83.091-49.927c2.342-7.038 2.438-14.877-.267-22.381-6.403-17.764-26.068-27.007-43.829-20.604-.883.318-1.739.678-2.579 1.06l-36.35-47.99c7.596-9.016 10.393-21.701 6.059-33.724-2.874-7.973-8.469-14.462-15.86-18.469l19.008-66.802c4.724.273 9.187-.387 13.538-1.955 17.765-6.403 27.008-26.065 20.604-43.829-6.401-17.765-26.067-27.006-43.828-20.604-17.765 6.403-27.008 26.065-20.604 43.829 2.957 8.203 8.751 14.568 15.869 18.435l-19.008 66.805c-4.544-.258-9.136.396-13.546 1.985zm170.956 362.762c-9.98 3.597-21.033-1.595-24.632-11.579-3.599-9.983 1.596-21.033 11.579-24.631 9.986-3.599 21.034 1.598 24.632 11.579 3.599 9.983-1.596 21.032-11.579 24.631zm-57.877-205.654 83.09 49.927c-2.341 7.038-2.438 14.877.267 22.38 2.12 5.881 5.719 10.956 10.427 14.822l-34.037 67.232c-6.403-1.63-13.34-1.433-20.008.971-6.67 2.404-12.138 6.677-16.028 12.017l-69.163-30.081c1.142-5.928.75-12.165-1.367-18.041-2.714-7.528-7.814-13.517-14.137-17.442l31.912-91.468c5.526.705 10.814.095 15.888-1.734 5.166-1.862 9.606-4.851 13.156-8.583zm-31.295-41.738c9.986-3.599 21.034 1.598 24.632 11.579 3.599 9.983-1.596 21.033-11.579 24.631-9.98 3.597-21.032-1.596-24.632-11.579-3.599-9.983 1.596-21.032 11.579-24.631zm-50.988-207.682c-3.599-9.983 1.596-21.033 11.579-24.631 9.986-3.599 21.034 1.598 24.632 11.579 3.599 9.983-1.596 21.033-11.579 24.631-9.98 3.599-21.033-1.595-24.632-11.579zm-1.079 118.003c3.607 10.007-1.571 21.024-11.579 24.631-10.007 3.606-21.023-1.57-24.631-11.579-3.607-10.007 1.571-21.024 11.579-24.631 10.008-3.606 21.023 1.57 24.631 11.579z"/><path d="m271.216 83.027c-4.143 0-7.5 3.358-7.5 7.5v5.27h-5.27c-4.143 0-7.5 3.358-7.5 7.5s3.357 7.5 7.5 7.5h5.27v5.27c0 4.142 3.357 7.5 7.5 7.5s7.5-3.358 7.5-7.5v-5.27h5.27c4.143 0 7.5-3.358 7.5-7.5s-3.357-7.5-7.5-7.5h-5.27v-5.27c0-4.142-3.358-7.5-7.5-7.5z"/><path d="m126.174 316.635c-4.143 0-7.5 3.358-7.5 7.5v10.355h-10.355c-4.143 0-7.5 3.358-7.5 7.5s3.357 7.5 7.5 7.5h10.355v10.355c0 4.142 3.357 7.5 7.5 7.5s7.5-3.358 7.5-7.5v-10.355h10.355c4.143 0 7.5-3.358 7.5-7.5s-3.357-7.5-7.5-7.5h-10.355v-10.355c0-4.142-3.358-7.5-7.5-7.5z"/></g></g></svg>