<svg id="Capa_1" enable-background="new 0 0 512 512" height="512" viewBox="0 0 512 512" width="512" xmlns="http://www.w3.org/2000/svg"><g><path d="m512 256c0 38.233-16.764 72.552-43.342 96.007-22.564 19.912-52.2 11.39-84.658 11.39-32.461 0-62.089 8.52-84.661-11.394-26.579-23.447-43.34-57.773-43.34-96.003s16.761-72.556 43.34-96.003c22.571-19.914 52.199-11.394 84.661-11.394 32.458 0 62.095-8.522 84.658 11.39 26.578 23.455 43.342 57.774 43.342 96.007z" fill="#ffe04a"/><path d="m383.999 128c-32.459 0-62.09 12.088-84.653 32h169.306c-22.564-19.911-52.195-32-84.653-32z" fill="#f5fcff"/><path d="m383.999 383.999c32.459 0 62.09-12.088 84.653-32h-169.307c22.564 19.912 52.195 32 84.654 32z" fill="#f5fcff"/><path d="m319.943 352.003h-20.604c-26.579-23.447-43.34-57.773-43.34-96.003s16.761-72.556 43.34-96.003h20.604c-26.579 23.457-43.34 57.773-43.34 96.003s16.761 72.546 43.34 96.003z" fill="#ffcb39"/><circle cx="128" cy="256" fill="#356487" r="127.999"/><path d="m20.604 256c0-67.224 51.823-122.339 117.698-127.586-3.399-.271-6.834-.413-10.302-.413-70.693-.001-128 57.307-128 127.999s57.307 127.999 127.999 127.999c3.468 0 6.903-.143 10.302-.413-65.874-5.247-117.697-60.362-117.697-127.586z" fill="#20526b"/><circle cx="128" cy="256" fill="#f5fcff" r="64"/><path d="m151.726 240c0-13.083-10.644-23.726-23.726-23.726s-23.727 10.643-23.727 23.726c0 6.16 2.361 11.778 6.224 16-3.863 4.222-6.224 9.84-6.224 16 0 13.083 10.644 23.726 23.726 23.726s23.726-10.644 23.726-23.726c0-6.16-2.361-11.778-6.224-16 3.864-4.222 6.225-9.84 6.225-16zm-23.727-8.274c4.562 0 8.274 3.711 8.274 8.274s-3.711 8.274-8.274 8.274-8.274-3.711-8.274-8.274 3.712-8.274 8.274-8.274zm0 48.548c-4.562 0-8.274-3.711-8.274-8.274 0-4.562 3.711-8.274 8.274-8.274s8.274 3.711 8.274 8.274c0 4.562-3.711 8.274-8.274 8.274z" fill="#20526b"/><circle cx="383.998" cy="256" fill="#f5fcff" r="64"/><path d="m383.999 216.273c-13.083 0-23.726 10.644-23.726 23.726 0 13.083 10.644 23.726 23.726 23.726 2.909 0 5.696-.529 8.274-1.491v10.135c0 4.358-3.545 7.903-7.902 7.903h-16.371c-4.268 0-7.726 3.459-7.726 7.726 0 4.268 3.459 7.726 7.726 7.726h16.371c12.878 0 23.355-10.478 23.355-23.356v-32.368c-.001-13.083-10.645-23.727-23.727-23.727zm0 32.001c-4.562 0-8.274-3.711-8.274-8.274s3.711-8.274 8.274-8.274c4.562 0 8.274 3.711 8.274 8.274s-3.712 8.274-8.274 8.274z" fill="#20526b"/><g fill="#dff1f7"><path d="m383.999 128c-32.459 0-62.096 12.088-84.66 32h20.61c20.152-17.784 45.944-29.319 74.351-31.583-3.399-.27-6.833-.417-10.301-.417z"/><path d="m394.299 383.59c.001-.002.002-.004.002-.004s-54.207-13.802-74.36-31.586h-20.595c22.563 19.912 52.194 32 84.653 32 3.467 0 6.902-.139 10.3-.41z"/></g></g></svg>