<svg id="Layer_1" viewBox="0 0 64 64" xmlns="http://www.w3.org/2000/svg" data-name="Layer 1"><path d="m25 53h14v9h-14z" fill="#b3541e"/><path d="m48.94 17.2-3.97 29.8h-26l-3.97-29.8 16.97-8.94z" fill="#c38154"/><path d="m5 47h54v6h-54z" fill="#884a39"/><path d="m60 23-28-14.74-28 14.74-1-5.26 29-14.74 29 14.74z" fill="#884a39"/><circle cx="32" cy="25" fill="#567189" r="10"/><circle cx="32" cy="41" fill="#b3541e" r="3"/><path d="m61.45 16.85-29-14.74c-.29-.14-.62-.14-.91 0l-28.99 14.74c-.4.2-.61.64-.53 1.08l1 5.26c.06.31.26.58.55.71.29.14.62.13.9-.02l9.76-5.14 3.63 27.25h-12.86c-.55 0-1 .45-1 1v6c0 .55.45 1 1 1h19v7c0 .55.45 1 1 1s1-.45 1-1v-7h12v7c0 .55.45 1 1 1s1-.45 1-1v-7h19c.55 0 1-.45 1-1v-6c0-.55-.45-1-1-1h-12.86l3.63-27.25 9.76 5.14c.15.08.31.12.47.12.15 0 .3-.03.43-.1.29-.14.49-.4.55-.71l1-5.26c.08-.44-.13-.88-.53-1.08zm-3.45 35.15h-52v-4h52zm-13.88-6h-24.24l-3.77-28.24 15.89-8.36 15.89 8.36zm15.15-24.51-26.8-14.11c-.15-.08-.31-.12-.47-.12s-.32.04-.47.12l-26.8 14.11-.61-3.2 27.88-14.17 27.88 14.17z"/><path d="m21 25c0 6.07 4.93 11 11 11s11-4.93 11-11-4.93-11-11-11-11 4.93-11 11zm20 0c0 4.96-4.04 9-9 9s-9-4.04-9-9 4.04-9 9-9 9 4.04 9 9z"/><path d="m32 37c-2.21 0-4 1.79-4 4s1.79 4 4 4 4-1.79 4-4-1.79-4-4-4zm0 6c-1.1 0-2-.9-2-2s.9-2 2-2 2 .9 2 2-.9 2-2 2z"/></svg>