<svg id="Capa_1" enable-background="new 0 0 512 512" height="512" viewBox="0 0 512 512" width="512" xmlns="http://www.w3.org/2000/svg"><g><g><path d="m389.342 407.524h-266.683c-4.463 0-8.081-3.618-8.081-8.081v-16.163c0-4.463 3.618-8.081 8.081-8.081h266.683c4.463 0 8.081 3.618 8.081 8.081v16.163c0 4.463-3.618 8.081-8.081 8.081z" fill="#4172ca"/></g><g><path d="m389.342 375.199h-30.305c4.463 0 8.081 3.618 8.081 8.081v16.163c0 4.463-3.618 8.081-8.081 8.081h30.305c4.463 0 8.081-3.618 8.081-8.081v-16.163c0-4.463-3.618-8.081-8.081-8.081z" fill="#3a67c1"/></g><g><path d="m227.716 407.524h56.569v96.976h-56.569z" fill="#e0bba4"/></g><g><path d="m227.716 407.524h56.569v26.264h-56.569z" fill="#d8ab8c"/></g><g><path d="m376.209 375.199 30.305-172.738-150.514-150.514-150.514 150.514 30.305 172.738z" fill="#eab14d"/></g><g><path d="m349.945 375.199h26.264l30.305-172.738s-16.695-16.695-22.344-22.344z" fill="#e7a52e"/></g><g><path d="m256 51.947 163.646 163.646 22.224-22.223-185.87-185.87-185.87 185.87 22.224 22.223z" fill="#e0bba4"/></g><g><path d="m347.077 98.577c-.807 12.601-2.512 25.774-5.139 39.308 38.756 38.756 77.708 77.708 77.708 77.708l22.224-22.224z" fill="#d8ab8c"/></g><g><circle cx="256" cy="213.573" fill="#67463e" r="64.65"/></g><g><circle cx="256" cy="294.386" fill="#f6e266" r="16.163"/></g><path d="m447.174 188.066-33.05-33.05c-2.93-2.928-7.678-2.928-10.607 0-2.929 2.93-2.929 7.678 0 10.607l27.747 27.746-11.613 11.613-158.348-158.336c-2.928-2.928-7.678-2.928-10.605 0l-158.349 158.337-11.613-11.613 175.264-175.264 122.776 122.777c2.931 2.928 7.679 2.927 10.607 0 2.929-2.93 2.929-7.678 0-10.607l-128.079-128.08c-2.93-2.928-7.678-2.928-10.607 0l-185.87 185.87c-2.929 2.93-2.929 7.678 0 10.607l22.22 22.22c2.929 2.927 7.678 2.929 10.606 0l2.938-2.937 5.149 29.349c.008.044.014.09.024.134l11.329 64.574c.004.02.006.041.011.061l9.759 55.626h-4.201c-8.591 0-15.58 6.989-15.58 15.58v16.16c0 8.591 6.989 15.579 15.58 15.579h97.556v33.492h-40.987c-4.143 0-7.5 3.357-7.5 7.5s3.357 7.5 7.5 7.5h40.987v40.989c0 4.143 3.357 7.5 7.5 7.5s7.5-3.357 7.5-7.5v-89.481h41.569v89.481c0 4.143 3.357 7.5 7.5 7.5s7.5-3.357 7.5-7.5v-40.988h40.987c4.143 0 7.5-3.357 7.5-7.5s-3.357-7.5-7.5-7.5h-40.987v-33.492h38.975c4.143 0 7.5-3.357 7.5-7.5s-3.357-7.5-7.5-7.5h-208.1c-.325 0-.58-.254-.58-.579v-16.16c0-.32.26-.58.58-.58h37.938c4.143 0 7.5-3.357 7.5-7.5s-3.357-7.5-7.5-7.5h-18.51l-3.04-17.326h233.9l-3.04 17.326h-174.31c-4.143 0-7.5 3.357-7.5 7.5s3.357 7.5 7.5 7.5h193.74c.325 0 .58.255.58.58v16.16c0 .325-.255.579-.58.579h-23.58c-4.143 0-7.5 3.357-7.5 7.5s3.357 7.5 7.5 7.5h23.58c8.591 0 15.58-6.988 15.58-15.579v-16.16c0-8.591-6.989-15.58-15.58-15.58h-4.201l9.759-55.626c.004-.02.007-.041.011-.061l11.329-64.574c.009-.044.015-.09.024-.134l5.149-29.349 2.938 2.937c1.464 1.464 3.384 2.196 5.303 2.196s3.839-.732 5.304-2.196l22.22-22.22c2.927-2.93 2.927-7.678-.002-10.608zm-317.374.682h58.452c-2.02 5.495-3.387 11.301-4.012 17.325h-70.507l-.188-1.071zm32.327-32.325h49.907c-6.286 4.847-11.756 10.7-16.159 17.325h-51.075zm32.328-32.326h123.09l17.326 17.325h-157.743zm-10.215 96.976c.625 6.024 1.992 11.831 4.012 17.325h-68.847l-3.04-17.325zm-62.204 32.325h73.84c4.403 6.625 9.873 12.478 16.159 17.325h-86.959zm76.814-39.825c0-31.513 25.638-57.15 57.15-57.15s57.15 25.638 57.15 57.15-25.638 57.15-57.15 57.15-57.15-25.637-57.15-57.15zm117.274 39.825h73.84l-3.04 17.325h-86.959c6.287-4.847 11.756-10.7 16.159-17.325zm7.624-15c2.02-5.495 3.387-11.301 4.012-17.325h67.875l-3.04 17.325zm4.012-32.325c-.625-6.024-1.992-11.831-4.012-17.325h58.452l16.255 16.254-.188 1.071zm-11.636-32.325c-4.403-6.625-9.873-12.478-16.159-17.325h49.907l17.326 17.325zm-188.417 111.975h106.279c-1.06 2.685-1.649 5.605-1.649 8.662s.589 5.978 1.65 8.663h-103.24zm119.63 8.663c0-4.776 3.887-8.662 8.663-8.662s8.663 3.886 8.663 8.662-3.887 8.663-8.663 8.663-8.663-3.887-8.663-8.663zm30.677-8.663h106.279l-3.04 17.325h-103.24c1.06-2.685 1.65-5.606 1.65-8.663 0-3.056-.589-5.977-1.649-8.662zm-22.014-223.167 46.544 46.541h-93.088zm-119.582 272.818-3.04-17.325h245.243l-3.04 17.325z"/></g></svg>