<svg id="Capa_1" enable-background="new 0 0 512 512" height="512" viewBox="0 0 512 512" width="512" xmlns="http://www.w3.org/2000/svg"><g><g><path d="m488.337 441.87h-464.674c-8.926 0-16.163 7.236-16.163 16.163 0 8.926 7.236 16.163 16.163 16.163h25.63l-2.714 2.714c-6.312 6.312-6.312 16.546 0 22.857 6.312 6.312 16.545 6.312 22.857 0l25.571-25.571h393.33c8.926 0 16.163-7.236 16.163-16.163 0-8.927-7.236-16.163-16.163-16.163z" fill="#d88a55"/></g><g><path d="m488.337 441.87h-30.305c8.926 0 16.163 7.236 16.163 16.163 0 8.926-7.236 16.163-16.163 16.163h30.305c8.926 0 16.163-7.236 16.163-16.163 0-8.927-7.236-16.163-16.163-16.163z" fill="#c57a44"/></g><g><path d="m192.36 71.14v144.453l-21.443 11.591c-32.814 17.737-53.183 52.113-52.98 89.414l.136 25.036c.301 55.447 45.335 100.236 100.783 100.236 55.662 0 100.784-45.123 100.784-100.784v-269.946c0-35.148-28.493-63.64-63.64-63.64-35.148 0-63.64 28.493-63.64 63.64z" fill="#c5d3dd"/></g><g><path d="m218.856 441.87c55.662 0 100.784-45.123 100.784-100.784v-269.946c0-35.148-28.493-63.64-63.64-63.64-4.922 0-9.706.577-14.306 1.635 28.255 6.494 49.334 31.78 49.334 62.006v68.864c0 7.384-4.515 13.971-11.349 16.766-39.277 16.063-67.116 55.033-67.116 100.244v56.21c0 33.207 10.022 65.431 28.001 92.608 6.09 9.205 2.701 21.657-7.272 26.384-8.936 4.236-18.593 7.196-28.742 8.638 4.674.664 9.449 1.015 14.306 1.015z" fill="#b6c4cf"/></g><g><path d="m217.178 202.409-24.818 13.184v-144.453h12.122c11.158 0 20.203 9.045 20.203 20.203v98.576c0 5.232-2.888 10.036-7.507 12.49z" fill="#edf6ff"/></g><g><path d="m192.36 117.608h-64.651l64.651-46.468z" fill="#f6e266"/></g><g><path d="m192.36 117.608h-64.651l64.651-46.468z" fill="#f6e266"/></g><g><g><path d="m158.014 490.358c-8.926 0-16.163-7.236-16.163-16.163v-64.65c0-8.926 7.236-16.163 16.163-16.163 8.926 0 16.163 7.236 16.163 16.163v64.65c0 8.926-7.236 16.163-16.163 16.163z" fill="#f6e266"/></g><g><path d="m190.339 490.358c-8.926 0-16.163-7.236-16.163-16.163v-64.65c0-8.926 7.236-16.163 16.163-16.163 8.926 0 16.163 7.236 16.163 16.163v64.65c0 8.926-7.236 16.163-16.163 16.163z" fill="#ebb044"/></g></g><g><g><path d="m254.99 490.358c-8.926 0-16.163-7.236-16.163-16.163v-64.65c0-8.926 7.236-16.163 16.163-16.163 8.926 0 16.163 7.236 16.163 16.163v64.65c-.001 8.926-7.237 16.163-16.163 16.163z" fill="#f6e266"/></g><g><path d="m287.315 490.358c-8.926 0-16.163-7.236-16.163-16.163v-64.65c0-8.926 7.236-16.163 16.163-16.163 8.926 0 16.163 7.236 16.163 16.163v64.65c0 8.926-7.237 16.163-16.163 16.163z" fill="#ebb044"/></g></g><g><path d="m400.453 504.5-104.602-77.798c-35.878-26.684-57.024-68.764-57.024-113.478v-56.21c0-44.56 35.641-81.495 80.2-81.825 44.913-.333 81.426 35.975 81.426 80.811z" fill="#8d9ca8"/></g><g><path d="m319.028 175.189c-4.603.034-9.105.48-13.488 1.263 37.864 6.708 66.629 39.757 66.629 79.547v227.463l28.285 21.037v-248.499c-.001-44.836-36.514-81.144-81.426-80.811z" fill="#7a8c98"/></g><path d="m488.338 434.37h-80.388v-82.77c0-4.143-3.357-7.5-7.5-7.5s-7.5 3.357-7.5 7.5v137.975l-17.322-12.884v-103.512c0-4.143-3.357-7.5-7.5-7.5s-7.5 3.357-7.5 7.5v92.355l-17.325-12.886v-109.774c0-4.143-3.357-7.5-7.5-7.5s-7.5 3.357-7.5 7.5v98.617l-17.325-12.886v-116.036c0-4.143-3.357-7.5-7.5-7.5s-7.5 3.357-7.5 7.5v104.718c-6.313-5.117-12.103-10.775-17.325-16.881v-108.04c0-4.143-3.357-7.5-7.5-7.5s-7.5 3.357-7.5 7.5v86.578c-11.174-19.85-17.322-42.484-17.322-65.724v-56.21c-.108-65.328 78.83-99.056 124.957-53.041 13.97 13.867 21.663 32.346 21.663 52.031v60.6c0 4.143 3.357 7.5 7.5 7.5s7.5-3.357 7.5-7.5v-60.6c0-23.713-9.268-45.972-26.096-62.677-14.881-14.772-34.07-23.578-54.715-25.302v-32.911c0-4.143-3.357-7.5-7.5-7.5s-7.5 3.357-7.5 7.5v32.899c-45.145 3.874-80.81 42.434-80.81 89v56.21c0 25.84 6.836 51.007 19.259 73.079-10.951 2.069-19.262 11.703-19.262 23.246v24.825h-17.325v-24.825c0-13.048-10.615-23.663-23.662-23.663-6.245 0-11.93 2.436-16.163 6.403-4.233-3.967-9.917-6.403-16.162-6.403-6.535 0-12.459 2.663-16.746 6.961-10.067-15.104-15.595-32.948-15.699-51.252l-.13-25.033c-.195-34.604 18.599-66.322 49.046-82.78l46.21-24.745c7.086-3.765 11.488-11.088 11.488-19.112v-98.576c0-15.275-12.428-27.703-27.703-27.703h-4.113c1.613-12.151 7.121-23.383 15.936-32.197 10.602-10.604 24.701-16.444 39.696-16.444 30.955 0 56.14 25.185 56.14 56.14v28.971c0 4.143 3.357 7.5 7.5 7.5s7.5-3.357 7.5-7.5v-28.971c0-39.227-31.913-71.14-71.14-71.14-19.002 0-36.867 7.399-50.304 20.837-12.506 12.507-19.774 28.851-20.722 46.376l-61.642 44.305c-2.645 1.9-3.76 5.29-2.762 8.39.998 3.099 3.883 5.2 7.139 5.2h57.151v86.011l-17.507 9.464c-35.331 19.098-57.139 55.905-56.913 96.057l.13 25.034c.139 24.414 8.584 48.125 23.801 67.112-.008.253-.019.505-.019.76v24.825h-39.452c-4.143 0-7.5 3.357-7.5 7.5s3.357 7.5 7.5 7.5h39.451v17.33h-39.341c-1.988 0-3.895.789-5.301 2.194l-25.592 25.571c-1.629 1.634-3.798 2.534-6.107 2.534-2.315 0-4.488-.9-6.131-2.548-1.633-1.63-2.532-3.801-2.532-6.113 0-2.314.901-4.49 2.537-6.125l2.71-2.71c2.145-2.146 2.786-5.371 1.625-8.174-1.16-2.803-3.896-4.63-6.929-4.63h-25.63c-4.775 0-8.66-3.89-8.66-8.67 0-2.312.903-4.487 2.544-6.127 1.633-1.634 3.805-2.533 6.116-2.533h36.24c4.143 0 7.5-3.357 7.5-7.5s-3.357-7.5-7.5-7.5h-36.24c-6.317 0-12.257 2.46-16.724 6.926-4.472 4.474-6.936 10.417-6.936 16.734 0 13.052 10.614 23.67 23.66 23.67h11.626c-.619 2.129-.939 4.359-.939 6.639 0 6.323 2.463 12.265 6.922 16.716 4.464 4.478 10.41 6.945 16.741 6.945 6.326 0 12.269-2.467 16.721-6.935l23.383-23.365h37.464c3.146 9.378 12.011 16.157 22.436 16.157 6.245 0 11.929-2.436 16.162-6.403 4.233 3.967 9.918 6.403 16.163 6.403 10.426 0 19.292-6.781 22.437-16.162h19.776c3.145 9.381 12.011 16.162 22.438 16.162 6.245 0 11.929-2.436 16.162-6.403 4.233 3.967 9.917 6.403 16.163 6.403 10.426 0 19.292-6.781 22.437-16.162h47.472l38.751 28.822c1.318.981 2.893 1.482 4.477 1.482 1.148 0 2.302-.264 3.366-.799 2.534-1.272 4.133-3.866 4.133-6.701v-22.805h80.388c13.047 0 23.662-10.615 23.662-23.663-.001-13.046-10.616-23.661-23.663-23.661zm-271.153-343.026v98.576c0 2.463-1.351 4.711-3.525 5.866l-13.799 7.331v-124.476h4.621c7.004 0 12.703 5.698 12.703 12.703zm-66.191 18.763 33.866-24.341v24.341zm80.333 339.263v17.325h-17.325v-17.325zm-73.312 33.487c-4.776 0-8.663-3.886-8.663-8.662v-64.65c0-4.776 3.887-8.663 8.663-8.663s8.662 3.887 8.662 8.663v64.65c0 4.777-3.886 8.662-8.662 8.662zm40.987-8.662c0 4.776-3.886 8.662-8.662 8.662s-8.663-3.886-8.663-8.662v-64.65c0-4.776 3.887-8.663 8.663-8.663s8.662 3.887 8.662 8.663zm55.988 8.662c-4.776 0-8.663-3.886-8.663-8.662v-64.65c0-4.776 3.887-8.663 8.663-8.663s8.662 3.887 8.662 8.663v64.65c0 4.777-3.885 8.662-8.662 8.662zm32.325 0c-4.776 0-8.663-3.886-8.663-8.662v-52.116c4.022 3.763 8.261 7.322 12.722 10.639l4.604 3.424v38.053c0 4.777-3.886 8.662-8.663 8.662zm23.663-16.162v-19.397l26.079 19.397zm177.36 0h-80.388v-17.325h80.388c4.776 0 8.662 3.886 8.662 8.662s-3.886 8.663-8.662 8.663z"/></g></svg>