<svg height="512" viewBox="0 0 128 128" width="512" xmlns="http://www.w3.org/2000/svg"><g><path d="m50.118 13.207c0-3.717 3.882-6.9 3.882-6.9s3.882 3.183 3.882 6.9a3.882 3.882 0 0 1 -7.764 0z" fill="#fa7578"/><path d="m50.118 21.538h7.763v13.084h-7.763z" fill="#80e2ff"/><path d="m70.118 13.207c0-3.717 3.882-6.9 3.882-6.9s3.882 3.183 3.882 6.9a3.882 3.882 0 0 1 -7.764 0z" fill="#fa7578"/><path d="m70.118 21.538h7.763v13.084h-7.763z" fill="#80e2ff"/><path d="m30.507 65.186v-27.062a3.5 3.5 0 0 1 3.5-3.5h59.984a3.5 3.5 0 0 1 3.5 3.5v27.062z" fill="#f3f5e6"/><path d="m97.488 38.12v9.78a7.94 7.94 0 0 0 -9.56 0 7.955 7.955 0 0 1 -9.57 0 7.955 7.955 0 0 0 -9.57 0 7.955 7.955 0 0 1 -9.57 0 7.955 7.955 0 0 0 -9.57 0 7.955 7.955 0 0 1 -9.57 0 7.955 7.955 0 0 0 -9.57 0v-9.78a3.5 3.5 0 0 1 3.5-3.5h59.98a3.5 3.5 0 0 1 3.5 3.5z" fill="#a8503c"/><path d="m15.773 110.021v-39.83a5.005 5.005 0 0 1 5-5h86.444a5.005 5.005 0 0 1 5.005 5v39.83z" fill="#f3f5e6"/><path d="m112.228 70.19v13.81a8.88 8.88 0 0 0 -10.72 0 8.905 8.905 0 0 1 -10.708 0 8.88 8.88 0 0 0 -10.72 0 8.92 8.92 0 0 1 -10.72 0 8.88 8.88 0 0 0 -10.72 0 8.905 8.905 0 0 1 -10.71 0 8.88 8.88 0 0 0 -10.72 0 8.92 8.92 0 0 1 -10.72 0 8.866 8.866 0 0 0 -10.71 0v-13.81a5 5 0 0 1 5-5h86.44a5 5 0 0 1 5.008 5z" fill="#a8503c"/><path d="m10.807 110.021h106.386a4.5 4.5 0 0 1 4.5 4.5v7.172a0 0 0 0 1 0 0h-115.386a0 0 0 0 1 0 0v-7.172a4.5 4.5 0 0 1 4.5-4.5z" fill="#fb8d4b"/><g><path d="m30.507 94.363a2.349 2.349 0 1 0 2.35 2.349 2.349 2.349 0 0 0 -2.35-2.349z"/><path d="m52.836 97.974a2.349 2.349 0 1 0 2.349 2.349 2.348 2.348 0 0 0 -2.349-2.349z"/><path d="m75.164 93.363a2.349 2.349 0 1 0 2.349 2.349 2.349 2.349 0 0 0 -2.349-2.349z"/><path d="m97.492 96.712a2.349 2.349 0 1 0 2.35 2.349 2.349 2.349 0 0 0 -2.35-2.349z"/><path d="m117.193 108.271h-3.216v-38.08a6.763 6.763 0 0 0 -6.755-6.755h-7.98v-25.312a5.257 5.257 0 0 0 -5.251-5.251h-14.359v-11.334a1.749 1.749 0 0 0 -1.75-1.75h-2.132v-1.232a5.64 5.64 0 0 0 3.882-5.35c0-4.493-4.338-8.1-4.523-8.253a1.748 1.748 0 0 0 -2.218 0c-.185.151-4.523 3.76-4.523 8.253a5.639 5.639 0 0 0 3.882 5.35v1.232h-2.132a1.749 1.749 0 0 0 -1.75 1.75v11.334h-8.736v-11.334a1.749 1.749 0 0 0 -1.75-1.75h-2.132v-1.232a5.64 5.64 0 0 0 3.882-5.35c0-4.493-4.338-8.1-4.523-8.253a1.748 1.748 0 0 0 -2.218 0c-.185.151-4.523 3.76-4.523 8.253a5.639 5.639 0 0 0 3.882 5.35v1.232h-2.132a1.749 1.749 0 0 0 -1.75 1.75v11.334h-14.359a5.257 5.257 0 0 0 -5.251 5.251v17.7a1.75 1.75 0 1 0 3.5 0v-6.962a6.212 6.212 0 0 1 6.764.439 9.731 9.731 0 0 0 11.679 0 6.219 6.219 0 0 1 7.46 0 9.731 9.731 0 0 0 11.679 0 6.215 6.215 0 0 1 7.46 0 9.732 9.732 0 0 0 11.677 0 6.208 6.208 0 0 1 6.765-.44v14.575h-74.964a6.763 6.763 0 0 0 -6.755 6.755v38.08h-3.216a6.257 6.257 0 0 0 -6.25 6.25v7.172a1.75 1.75 0 0 0 1.75 1.75h76.855a1.75 1.75 0 0 0 0-3.5h-75.105v-5.422a2.753 2.753 0 0 1 2.75-2.75h106.386a2.753 2.753 0 0 1 2.75 2.75v5.422h-13.388a1.75 1.75 0 0 0 0 3.5h15.138a1.75 1.75 0 0 0 1.75-1.75v-7.172a6.257 6.257 0 0 0 -6.25-6.25zm-43.193-99.51a7.363 7.363 0 0 1 2.135 4.446 2.132 2.132 0 0 1 -4.264 0 7.468 7.468 0 0 1 2.129-4.446zm-20 0a7.363 7.363 0 0 1 2.135 4.446 2.132 2.132 0 0 1 -4.264 0 7.468 7.468 0 0 1 2.129-4.446zm17.868 14.528h4.264v9.584h-4.264zm-20 0h4.264v9.584h-4.264zm35 23.219a6.216 6.216 0 0 1 -7.46 0 9.732 9.732 0 0 0 -11.679 0 6.216 6.216 0 0 1 -7.46 0 9.728 9.728 0 0 0 -11.676 0 6.219 6.219 0 0 1 -7.461 0 9.741 9.741 0 0 0 -8.874-1.464v-6.92a1.753 1.753 0 0 1 1.751-1.751h59.982a1.753 1.753 0 0 1 1.751 1.751v6.92a9.739 9.739 0 0 0 -8.874 1.464zm-66.09 20.428h86.444a3.258 3.258 0 0 1 3.255 3.255v10.9a10.693 10.693 0 0 0 -10.022 1.509 7.172 7.172 0 0 1 -8.608 0 10.691 10.691 0 0 0 -12.827 0 7.172 7.172 0 0 1 -8.607 0 10.691 10.691 0 0 0 -12.826 0 7.174 7.174 0 0 1 -8.609 0 10.689 10.689 0 0 0 -12.826 0 7.172 7.172 0 0 1 -8.608 0 10.69 10.69 0 0 0 -10.021-1.506v-10.9a3.258 3.258 0 0 1 3.255-3.258zm-3.255 18.017a7.163 7.163 0 0 1 7.912.439 10.688 10.688 0 0 0 12.826 0 7.178 7.178 0 0 1 8.609 0 10.687 10.687 0 0 0 12.826 0 7.173 7.173 0 0 1 8.608 0 10.689 10.689 0 0 0 12.825 0 7.178 7.178 0 0 1 8.609 0 10.688 10.688 0 0 0 12.825 0 7.164 7.164 0 0 1 7.914-.44v23.318h-92.954z"/><path d="m97.317 119.943h-4.5a1.75 1.75 0 0 0 0 3.5h4.5a1.75 1.75 0 0 0 0-3.5z"/></g></g></svg>