<svg id="Capa_1" enable-background="new 0 0 512 512" height="512" viewBox="0 0 512 512" width="512" xmlns="http://www.w3.org/2000/svg"><g><g><path d="m272.899 120.765h-23.361c-11.327 0-20.51 9.183-20.51 20.51v139.282c0 11.327 9.183 20.51 20.51 20.51h23.361c11.327 0 20.51-9.183 20.51-20.51v-139.282c0-11.327-9.182-20.51-20.51-20.51z" fill="#ef8bbd"/><path d="m229.028 148.615v34.671l64.381 27.63v-34.672z" fill="#fff"/><path d="m290.627 65.404c0 16.242-13.167 29.409-29.409 29.409s-29.409-13.167-29.409-29.409 13.167-53.242 29.409-53.242c16.243 0 29.409 37 29.409 53.242z" fill="#ffe266"/><path d="m397.879 239.927h-299.948c-13.454 0-24.361 10.907-24.361 24.361v184.531c0 13.454 10.907 24.361 24.361 24.361h316.139c13.454 0 24.361-10.907 24.361-24.361v-168.341c-.001-22.396-18.156-40.551-40.552-40.551z" fill="#ffdcb6"/><path d="m74.798 345.697h305.628v46.979h-305.628z" fill="#f7c4db"/><path d="m59.526 257.184c0 14.469 7.67 27.833 20.124 35.199 6.676 3.948 12.223 8.595 25.28 8.595 22.701 0 22.701-14.047 45.401-14.047 22.701 0 22.701 14.047 45.402 14.047 22.702 0 22.702-14.047 45.404-14.047 22.701 0 22.701 14.047 45.403 14.047 22.704 0 22.704-14.047 45.409-14.047.473 0 .936.006 1.39.018 24.6.647 44.041 21.158 44.117 45.767l.464 149.442h48.319c14.49 0 26.236-11.746 26.236-26.236v-182.547c0-23.431-18.995-42.427-42.427-42.427h-324.286c-14.49 0-26.236 11.746-26.236 26.236z" fill="#b07676"/><path d="m410.363 233.519h-58.434c17.103 0 30.968 13.865 30.968 30.968v110.883c0 10.275-8.329 18.604-18.603 18.604h-272.12c-10.275 0-18.604-8.329-18.604-18.604v75.081c0 13.972 11.326 25.298 25.298 25.298h328.308c13.972 0 25.298-11.326 25.298-25.298v-174.821c0-23.257-18.854-42.111-42.111-42.111z" fill="#efa5b6"/><path d="m410.363 233.518h-58.434c17.103 0 30.968 13.865 30.968 30.968v110.884c0 4.754-1.798 9.077-4.731 12.365v88.014h49.011c13.972 0 25.298-11.327 25.298-25.298v-174.82c-.001-23.258-18.855-42.113-42.112-42.113z" fill="#a45775"/><path d="m474.497 500.649h-436.993c-15.171 0-27.47-12.299-27.47-27.47 0-15.171 12.299-27.47 27.47-27.47h436.993c15.171 0 27.47 12.299 27.47 27.47-.001 15.172-12.299 27.47-27.47 27.47z" fill="#b2e7f1"/></g><g><path d="m474.496 435.676h-11.988v-162.301c0-28.927-23.533-52.46-52.46-52.46h-106.605v-79.639c0-16.842-13.702-30.544-30.544-30.544h-1.646v-7.183c16.904-4.451 29.408-19.863 29.408-38.145 0-9.991-3.847-24.857-9.572-36.993-8.112-17.194-18.441-26.283-29.87-26.283s-21.758 9.089-29.87 26.283c-5.726 12.136-9.573 27.003-9.573 36.993 0 18.282 12.505 33.695 29.409 38.145v7.183h-1.648c-16.842 0-30.543 13.702-30.543 30.544v79.639h-133.232c-19.999 0-36.27 16.27-36.27 36.27 0 13.137 5.185 25.666 14.044 35.024v143.468h-26.032c-20.68-.001-37.504 16.823-37.504 37.502 0 20.68 16.824 37.504 37.504 37.504h436.993c20.68 0 37.504-16.824 37.504-37.504-.001-20.679-16.825-37.503-37.505-37.503zm-232.652-370.272c0-6.066 2.629-17.779 7.654-28.43 5.216-11.057 10.233-14.778 11.721-14.778 1.487 0 6.504 3.721 11.72 14.778 5.026 10.652 7.655 22.365 7.655 28.431 0 10.683-8.691 19.375-19.374 19.375-10.685-.001-19.376-8.693-19.376-19.376zm-2.782 94.068 44.313 19.017v21.57l-44.313-19.017zm10.476-28.673h23.361c5.777 0 10.477 4.7 10.477 10.477v24.112l-44.313-19.017v-5.094c-.001-5.779 4.698-10.478 10.475-10.478zm-10.476 63.345 44.313 19.017v7.754h-44.313zm-153.3 46.838h324.286c17.862 0 32.393 14.531 32.393 32.393v162.301h-54.632l-.32-102.992c-.045-14.53-5.605-28.303-15.654-38.782-10.136-10.57-23.714-16.601-38.227-16.983-.542-.015-1.094-.022-1.66-.022-14.206 0-21.846 4.727-27.984 8.525-5.181 3.206-8.925 5.522-17.425 5.522-8.497 0-12.24-2.316-17.422-5.522-6.138-3.798-13.777-8.525-27.981-8.525s-21.843 4.727-27.982 8.525c-5.181 3.206-8.925 5.522-17.423 5.522-8.497 0-12.241-2.316-17.422-5.522-6.138-3.798-13.777-8.525-27.98-8.525s-21.842 4.727-27.98 8.525c-5.181 3.206-8.924 5.522-17.422 5.522s-12.241-2.316-17.423-5.522c-.909-.562-1.819-1.125-2.749-1.675-9.374-5.544-15.198-15.723-15.198-26.563.002-8.934 7.271-16.202 16.205-16.202zm-2.159 65.313c5.161 2.565 11.747 4.716 21.326 4.716 14.204 0 21.843-4.727 27.981-8.525 5.18-3.206 8.924-5.522 17.421-5.522s12.24 2.316 17.421 5.522c6.138 3.798 13.777 8.525 27.981 8.525s21.843-4.727 27.981-8.525c5.181-3.206 8.925-5.522 17.423-5.522s12.241 2.316 17.422 5.522c6.138 3.798 13.777 8.525 27.98 8.525 14.205 0 21.845-4.727 27.983-8.525 5.181-3.206 8.925-5.522 17.426-5.522.381 0 .754.005 1.126.015 18.88.497 34.288 16.542 34.348 35.768l.03 9.579h-283.849zm0 48.071h283.885l.1 32.29h-283.985zm0 44.331h284.023l.115 36.979h-284.138zm390.893 91.919h-436.992c-9.614 0-17.436-7.822-17.436-17.436s7.822-17.436 17.436-17.436h436.993c9.614 0 17.436 7.822 17.436 17.436s-7.822 17.436-17.437 17.436z" fill="#440a29"/><g fill="#fff"><path d="m201.482 269.617c-.01 0-.02 0-.03 0-9.905-.029-26.106-.035-35.021-.021-5.538.046-10.04-4.477-10.049-10.019-.008-5.541 4.477-10.04 10.018-10.049 8.939-.013 25.179-.008 35.11.021 5.542.016 10.02 4.521 10.004 10.063-.015 5.532-4.504 10.005-10.032 10.005z"/><path d="m121.178 269.617h-12.399c-5.541 0-10.034-4.492-10.034-10.034s4.492-10.034 10.034-10.034h12.399c5.541 0 10.034 4.492 10.034 10.034s-4.492 10.034-10.034 10.034z"/></g></g><g><path d="m149.572 66.219 8.242 23.175c.353.992 1.052 1.779 1.933 2.176l20.59 9.276c2.909 1.311 2.909 5.946 0 7.256l-20.59 9.277c-.882.397-1.58 1.184-1.933 2.176l-8.242 23.175c-1.164 3.274-5.282 3.274-6.447 0l-8.242-23.175c-.353-.992-1.051-1.779-1.933-2.176l-20.59-9.277c-2.909-1.311-2.909-5.946 0-7.256l20.59-9.276c.882-.397 1.58-1.184 1.933-2.176l8.242-23.175c1.165-3.274 5.283-3.274 6.447 0z" fill="#ffc7b6"/><path d="m382.817 57.629 6.114 17.191c.262.736.78 1.319 1.434 1.614l15.274 6.881c2.158.972 2.158 4.41 0 5.382l-15.274 6.881c-.654.295-1.172.878-1.434 1.614l-6.114 17.191c-.864 2.429-3.918 2.429-4.782 0l-6.114-17.191c-.262-.736-.78-1.319-1.434-1.614l-15.274-6.881c-2.158-.972-2.158-4.41 0-5.382l15.274-6.881c.654-.295 1.172-.878 1.434-1.614l6.114-17.191c.863-2.428 3.918-2.428 4.782 0z" fill="#ffc7b6"/><g fill="#ffa585"><ellipse cx="345.556" cy="19.314" rx="17.997" ry="17.997" transform="matrix(.924 -.383 .383 .924 18.913 133.709)"/><circle cx="100.906" cy="144.348" r="7.763"/></g></g></g></svg>