<?xml version="1.0" encoding="UTF-8"?>
<svg xmlns="http://www.w3.org/2000/svg" width="512" height="512" viewBox="0 0 128 128"><g><path d="M121.693,83.231a9.645,9.645,0,0,0-3.053-7.043,9.65,9.65,0,0,0-5.391-13.014,9.649,9.649,0,0,0-9.961-9.961,9.65,9.65,0,0,0-13.014-5.391,9.65,9.65,0,0,0-14.086,0,9.65,9.65,0,0,0-13.014,5.391,9.649,9.649,0,0,0-9.961,9.961,9.65,9.65,0,0,0-5.391,13.014,9.65,9.65,0,0,0,0,14.086,9.65,9.65,0,0,0,5.391,13.014,9.649,9.649,0,0,0,9.961,9.961,9.65,9.65,0,0,0,13.014,5.391,9.65,9.65,0,0,0,14.086,0,9.65,9.65,0,0,0,13.014-5.391,9.649,9.649,0,0,0,9.961-9.961,9.65,9.65,0,0,0,5.391-13.014A9.645,9.645,0,0,0,121.693,83.231Z" fill="#e6a537"/><path d="M83.231,44.769a9.645,9.645,0,0,0-3.053-7.043,9.652,9.652,0,0,0-5.391-13.015,9.649,9.649,0,0,0-9.961-9.96A9.65,9.65,0,0,0,51.812,9.36a9.65,9.65,0,0,0-14.086,0,9.65,9.65,0,0,0-13.014,5.391,9.649,9.649,0,0,0-9.961,9.96A9.652,9.652,0,0,0,9.36,37.726a9.65,9.65,0,0,0,0,14.086,9.65,9.65,0,0,0,5.391,13.014,9.649,9.649,0,0,0,9.961,9.961,9.65,9.65,0,0,0,13.014,5.391,9.65,9.65,0,0,0,14.086,0,9.65,9.65,0,0,0,13.014-5.391,9.649,9.649,0,0,0,9.961-9.961,9.65,9.65,0,0,0,5.391-13.014A9.645,9.645,0,0,0,83.231,44.769Z" fill="#fdca74"/><g><circle cx="44.769" cy="44.769" r="2.282"/><path d="M44.769,25.312a2.282,2.282,0,1,0,2.281,2.281A2.282,2.282,0,0,0,44.769,25.312Z"/><path d="M64.879,16.5a8.041,8.041,0,0,1,4.963,1.545,1.75,1.75,0,0,0,2.086-2.811A11.451,11.451,0,0,0,64.773,13a1.75,1.75,0,0,0-1.7,1.8A1.727,1.727,0,0,0,64.879,16.5Z"/><path d="M44.769,59.663a2.282,2.282,0,1,0,2.281,2.282A2.282,2.282,0,0,0,44.769,59.663Z"/><path d="M31.035,34.205a2.282,2.282,0,1,0,.835,3.117A2.282,2.282,0,0,0,31.035,34.205Z"/><path d="M60.784,51.381a2.282,2.282,0,1,0,.835,3.117A2.281,2.281,0,0,0,60.784,51.381Z"/><path d="M28.754,51.381a2.282,2.282,0,1,0,3.116.835A2.282,2.282,0,0,0,28.754,51.381Z"/><path d="M57.668,37.322a2.281,2.281,0,1,0,.835-3.117A2.281,2.281,0,0,0,57.668,37.322Z"/><path d="M83.231,85.513a2.282,2.282,0,1,0-2.282-2.282A2.282,2.282,0,0,0,83.231,85.513Z"/><path d="M83.231,68.337a2.282,2.282,0,1,0-2.282-2.282A2.282,2.282,0,0,0,83.231,68.337Z"/><path d="M83.231,102.688a2.282,2.282,0,1,0-2.282-2.281A2.282,2.282,0,0,0,83.231,102.688Z"/><path d="M99.246,89.843a2.282,2.282,0,1,0,.836,3.117A2.281,2.281,0,0,0,99.246,89.843Z"/><path d="M69.5,93.8a2.282,2.282,0,1,0-3.117-.835A2.282,2.282,0,0,0,69.5,93.8Z"/><path d="M96.965,72.667a2.282,2.282,0,1,0,3.116.835A2.282,2.282,0,0,0,96.965,72.667Z"/><path d="M123.443,83.231a11.293,11.293,0,0,0-2.769-7.448,11.4,11.4,0,0,0-5.7-13.761A11.4,11.4,0,0,0,104.44,51.488a11.4,11.4,0,0,0-13.761-5.7,11.265,11.265,0,0,0-5.823-2.645,11.256,11.256,0,0,0-2.644-5.822,11.4,11.4,0,0,0-6.805-14.246,1.75,1.75,0,0,0-1.24,3.274,7.9,7.9,0,0,1,4.415,10.658,1.75,1.75,0,0,0,.4,1.993,7.9,7.9,0,0,1,0,11.538,1.751,1.751,0,0,0-.4,1.993A7.9,7.9,0,0,1,74.167,63.19a1.75,1.75,0,0,0-1.129,1.689,7.9,7.9,0,0,1-8.159,8.159,1.712,1.712,0,0,0-1.689,1.129,7.9,7.9,0,0,1-10.66,4.415,1.748,1.748,0,0,0-1.992.4,7.9,7.9,0,0,1-11.538,0,1.753,1.753,0,0,0-1.993-.4,7.9,7.9,0,0,1-10.659-4.416,1.713,1.713,0,0,0-1.69-1.128A7.9,7.9,0,0,1,16.5,64.879a1.75,1.75,0,0,0-1.129-1.689,7.9,7.9,0,0,1-4.415-10.659,1.751,1.751,0,0,0-.4-1.993A7.9,7.9,0,0,1,10.56,39a1.75,1.75,0,0,0,.4-1.993,7.9,7.9,0,0,1,4.415-10.658,1.753,1.753,0,0,0,1.129-1.69,7.85,7.85,0,0,1,2.31-5.849,7.956,7.956,0,0,1,5.848-2.31,1.723,1.723,0,0,0,1.69-1.128,7.9,7.9,0,0,1,10.659-4.416A1.754,1.754,0,0,0,39,10.56a7.9,7.9,0,0,1,11.538,0,1.751,1.751,0,0,0,1.992.4,7.876,7.876,0,0,1,5-.515A1.75,1.75,0,1,0,58.3,7.027a11.482,11.482,0,0,0-6.078.3,11.4,11.4,0,0,0-14.9,0,11.4,11.4,0,0,0-13.762,5.7A11.4,11.4,0,0,0,13.026,23.56a11.4,11.4,0,0,0-5.7,13.761,11.4,11.4,0,0,0,0,14.9,11.4,11.4,0,0,0,5.7,13.761A11.4,11.4,0,0,0,23.56,76.512a11.4,11.4,0,0,0,13.761,5.7,11.265,11.265,0,0,0,5.823,2.645,11.256,11.256,0,0,0,2.644,5.822,11.4,11.4,0,0,0,6.8,14.246,1.751,1.751,0,0,0,1.241-3.274,7.9,7.9,0,0,1-4.415-10.658,1.75,1.75,0,0,0-.4-1.993,7.865,7.865,0,0,1-2.343-4.181,11.263,11.263,0,0,0,5.538-2.607,11.4,11.4,0,0,0,13.761-5.7A11.4,11.4,0,0,0,76.511,65.978a11.4,11.4,0,0,0,5.7-13.761,11.256,11.256,0,0,0,2.606-5.539A7.859,7.859,0,0,1,89,49.022a1.752,1.752,0,0,0,1.993.4,7.9,7.9,0,0,1,10.659,4.416,1.734,1.734,0,0,0,1.69,1.128,7.9,7.9,0,0,1,8.158,8.159,1.749,1.749,0,0,0,1.129,1.689,7.9,7.9,0,0,1,4.415,10.659,1.749,1.749,0,0,0,.4,1.993,7.9,7.9,0,0,1,0,11.538,1.749,1.749,0,0,0-.4,1.993,7.9,7.9,0,0,1-4.415,10.658,1.751,1.751,0,0,0-1.129,1.69,7.9,7.9,0,0,1-8.158,8.159,1.716,1.716,0,0,0-1.69,1.128,7.9,7.9,0,0,1-10.659,4.416,1.752,1.752,0,0,0-1.993.4,7.9,7.9,0,0,1-11.538,0,1.752,1.752,0,0,0-1.992-.4,7.9,7.9,0,0,1-10.66-4.415,1.751,1.751,0,0,0-1.689-1.129,7.994,7.994,0,0,1-5.377-1.874,1.75,1.75,0,1,0-2.269,2.666,11.379,11.379,0,0,0,6.546,2.68,11.4,11.4,0,0,0,13.762,5.7,11.4,11.4,0,0,0,14.9,0,11.4,11.4,0,0,0,13.762-5.7,11.4,11.4,0,0,0,10.533-10.534,11.4,11.4,0,0,0,5.7-13.761A11.3,11.3,0,0,0,123.443,83.231Z"/></g></g></svg>
