<svg id="Layer_1" enable-background="new 0 0 511.945 511.945" viewBox="0 0 511.945 511.945" xmlns="http://www.w3.org/2000/svg"><g><g><path d="m307.764 446.244c.201-.085.402-.171.603-.259 4.672-2.051 10.129-1.496 14.338 1.388 16.273 11.147 39.123 4.116 46.314-14.251 1.86-4.751 6.06-8.277 11.077-9.207 22.049-4.09 37.749-24.04 36.79-46.26-.229-5.306 2.537-10.291 7.039-13.108 13.664-8.551 21.758-23.844 21.144-39.952-.205-5.366 2.475-10.428 7.028-13.275 13.667-8.547 21.766-23.838 21.156-39.946-.201-5.307 2.367-10.397 6.884-13.19 18.915-11.697 26.59-35.895 17.577-56.431-2.051-4.672-1.496-10.129 1.388-14.338 11.147-16.273 4.116-39.123-14.251-46.314-4.751-1.86-8.277-6.06-9.207-11.077-4.09-22.049-24.04-37.749-46.26-36.79-5.306.229-10.291-2.537-13.108-7.039-8.548-13.66-23.835-21.754-39.938-21.144-5.307.201-10.397-2.367-13.191-6.884-11.697-18.915-35.895-26.59-56.431-17.577-4.672 2.051-10.129 1.496-14.338-1.388-16.273-11.147-39.123-4.116-46.314 14.251-1.86 4.751-6.06 8.277-11.077 9.207-17.04 3.161-30.289 15.795-34.985 31.628z" fill="#fdc072"/><path d="m341.287 182.254c9.186 4.863 20.575 1.359 25.438-7.827s1.359-20.575-7.827-25.438-20.575-1.359-25.438 7.827c-5.209 9.838 1.156 21.905 7.827 25.438z" fill="#ffa93f"/><path d="m332.745 335.039c-2.66 4.59-2.77 10.29-.09 14.88 11.25 19.19 6.7 44.16-10.87 58.09-4 3.17-6.06 8.26-5.48 13.32 2.24 19.6-14.67 36.51-34.26 34.27-5.07-.58-10.16 1.48-13.32 5.48-13.94 17.57-38.91 22.11-58.1 10.87-4.58-2.69-10.28-2.57-14.88.09-5.841 3.387-12.345 5-12.93 5-21.15 1.21-58.92-17.3-56.49-38.64.64-5.69-1.67-11.4-6.16-14.95-32.726-25.959-11.452-253.633-16.428-297.2-2.44-21.34 57.928-39.84 79.088-38.64 4.48.97 8.85 2.64 12.92 5 4.6 2.66 10.3 2.78 14.88.09 19.19-11.24 44.16-6.7 58.1 10.87 3.17 4 8.25 6.06 13.32 5.48 19.59-2.24 36.5 14.67 34.26 34.27-.58 5.07 1.48 10.15 5.48 13.32 17.58 13.93 22.11 38.91 10.87 58.09-2.68 4.59-2.57 10.29.09 14.88 8.07 13.95 8.07 31.26-.01 45.2-2.69 4.65-2.69 10.38 0 15.03 8.08 13.94 8.08 31.25.01 45.2z" fill="#ffd9a0"/><path d="m182.815 477.039c-10.85 2.38-22.39.71-32.26-5-4.6-2.66-10.3-2.78-14.88-.09-19.19 11.24-44.17 6.7-58.1-10.87-3.17-4-8.25-6.06-13.32-5.48-19.59 2.24-36.49-14.68-34.26-34.26.58-5.07-1.48-10.16-5.48-13.33-17.58-13.93-22.12-38.91-10.87-58.09 2.68-4.59 2.57-10.29-.09-14.88-8.08-13.95-8.07-31.26.01-45.2 2.69-4.65 2.69-10.38 0-15.03-8.08-13.94-8.09-31.25-.01-45.2 2.66-4.59 2.77-10.29.09-14.88-11.25-19.18-6.71-44.16 10.87-58.09 3.99-3.17 6.06-8.25 5.48-13.32-2.24-19.6 14.66-36.51 34.26-34.27 5.07.58 10.15-1.48 13.32-5.48 13.94-17.57 38.91-22.11 58.1-10.87 4.58 2.69 10.28 2.57 14.88-.09 9.87-5.71 21.42-7.38 32.27-5-21.16-1.2-38.94 17.3-36.5 38.64.65 5.69-1.67 11.4-6.16 14.95-19.73 15.65-24.83 43.69-12.2 65.24 3.01 5.14 2.89 11.54-.1 16.7-9.07 15.66-9.07 35.09.01 50.75 3.02 5.22 3.02 11.65 0 16.87-9.08 15.66-9.08 35.09-.01 50.75 2.99 5.16 3.11 11.56.1 16.71-12.63 21.54-7.53 49.58 12.2 65.23 4.49 3.55 6.8 9.26 6.16 14.95-2.43 21.34 15.34 39.85 36.49 38.64z" fill="#fdc072"/><ellipse cx="89.584" cy="289.137" fill="#ffa1ac" rx="30.834" ry="24.555"/><ellipse cx="256.714" cy="289.137" fill="#ffa1ac" rx="30.834" ry="24.555"/><circle cx="173.151" cy="199.503" fill="#fdc072" r="15.059"/><circle cx="97.857" cy="169.386" fill="#ffa93f" r="15.059"/><circle cx="248.445" cy="169.386" fill="#fdc072" r="15.059"/><circle cx="173.151" cy="365.15" fill="#fdc072" r="15.059"/><circle cx="97.857" cy="395.268" fill="#ffa93f" r="15.059"/><circle cx="248.445" cy="395.268" fill="#fdc072" r="15.059"/><circle cx="426.93" cy="178.703" fill="#ffa93f" r="15.059"/></g><g><path d="m115.048 265.202v-12c0-4.142-3.357-7.5-7.5-7.5s-7.5 3.358-7.5 7.5v12c0 4.142 3.357 7.5 7.5 7.5s7.5-3.358 7.5-7.5z"/><path d="m195.364 259.475c-3.125-2.721-7.862-2.396-10.582.727-6.162 7.071-17.116 7.072-23.278.001-2.721-3.124-7.458-3.449-10.581-.728s-3.449 7.458-.728 10.582c12.136 13.929 33.758 13.928 45.896.001 2.722-3.124 2.395-7.861-.727-10.583z"/><path d="m227.149 272.368c4.143 0 7.5-3.358 7.5-7.5 0-3.532 2.874-6.406 6.406-6.406s6.406 2.874 6.406 6.406c0 4.142 3.357 7.5 7.5 7.5s7.5-3.358 7.5-7.5c0-11.803-9.603-21.406-21.406-21.406s-21.406 9.603-21.406 21.406c0 4.142 3.357 7.5 7.5 7.5z"/><path d="m150.586 199.507c0 12.439 10.12 22.559 22.56 22.559 12.438 0 22.559-10.12 22.559-22.559s-10.12-22.559-22.559-22.559c-12.44.001-22.56 10.121-22.56 22.559zm22.56-7.558c4.168 0 7.559 3.391 7.559 7.559s-3.391 7.559-7.559 7.559-7.56-3.391-7.56-7.559 3.392-7.559 7.56-7.559z"/><path d="m180.665 139.272c0-4.118-3.329-7.5-7.51-7.5-4.142 0-7.495 3.358-7.495 7.5s3.363 7.5 7.505 7.5c4.143 0 7.5-3.358 7.5-7.5z"/><path d="m75.282 237.125c4.143 0 7.5-3.358 7.5-7.5s-3.357-7.5-7.5-7.5c-4.174 0-7.505 3.376-7.505 7.5 0 4.142 3.364 7.5 7.505 7.5z"/><path d="m271.047 222.125c-4.174 0-7.505 3.376-7.505 7.5 0 4.142 3.363 7.5 7.505 7.5 4.143 0 7.5-3.358 7.5-7.5s-3.357-7.5-7.5-7.5z"/><path d="m75.282 342.537c4.143 0 7.5-3.358 7.5-7.5s-3.357-7.5-7.5-7.5c-4.174 0-7.505 3.376-7.505 7.5 0 4.142 3.364 7.5 7.505 7.5z"/><path d="m278.547 335.037c0-4.118-3.329-7.5-7.51-7.5-4.142 0-7.495 3.358-7.495 7.5s3.363 7.5 7.505 7.5c4.143 0 7.5-3.358 7.5-7.5z"/><path d="m173.155 417.89c-4.142 0-7.495 3.358-7.495 7.5s3.363 7.5 7.505 7.5c4.143 0 7.5-3.358 7.5-7.5 0-4.118-3.329-7.5-7.51-7.5z"/><path d="m97.852 146.831c-12.439 0-22.56 10.12-22.56 22.559s10.12 22.559 22.56 22.559c12.438 0 22.559-10.12 22.559-22.559s-10.121-22.559-22.559-22.559zm0 30.118c-4.168 0-7.56-3.391-7.56-7.559s3.392-7.559 7.56-7.559 7.559 3.391 7.559 7.559-3.391 7.559-7.559 7.559z"/><path d="m248.44 191.949c12.438 0 22.559-10.12 22.559-22.559s-10.12-22.559-22.559-22.559-22.559 10.12-22.559 22.559 10.12 22.559 22.559 22.559zm0-30.118c4.168 0 7.559 3.391 7.559 7.559s-3.391 7.559-7.559 7.559-7.559-3.391-7.559-7.559 3.391-7.559 7.559-7.559z"/><path d="m195.704 365.155c0-12.439-10.12-22.559-22.559-22.559s-22.56 10.12-22.56 22.559 10.12 22.559 22.56 22.559c12.439 0 22.559-10.12 22.559-22.559zm-22.558 7.559c-4.168 0-7.56-3.391-7.56-7.559s3.392-7.559 7.56-7.559 7.559 3.391 7.559 7.559-3.391 7.559-7.559 7.559z"/><path d="m97.852 417.831c12.438 0 22.559-10.12 22.559-22.559s-10.12-22.559-22.559-22.559-22.56 10.12-22.56 22.559 10.12 22.559 22.56 22.559zm0-30.117c4.168 0 7.559 3.391 7.559 7.559s-3.391 7.559-7.559 7.559-7.56-3.391-7.56-7.559 3.392-7.559 7.56-7.559z"/><path d="m248.44 417.831c12.438 0 22.559-10.12 22.559-22.559s-10.12-22.559-22.559-22.559-22.559 10.12-22.559 22.559 10.12 22.559 22.559 22.559zm0-30.117c4.168 0 7.559 3.391 7.559 7.559s-3.391 7.559-7.559 7.559-7.559-3.391-7.559-7.559 3.391-7.559 7.559-7.559z"/><path d="m505.283 191.655c13.878-20.257 5.161-48.585-17.704-57.537-2.364-.925-4.114-3.018-4.567-5.46-4.747-25.59-27.981-44.028-53.957-42.915-2.536.108-4.999-1.24-6.428-3.525-9.964-15.92-27.798-25.379-46.58-24.66-2.682.095-5.192-1.176-6.527-3.334-6.488-10.491-16.572-18.399-28.396-22.268-3.938-1.291-8.173.86-9.46 4.795-1.288 3.937.858 8.172 4.796 9.46 8.463 2.77 15.673 8.417 20.302 15.901 4.169 6.743 11.799 10.724 19.853 10.435 13.424-.521 26.175 6.247 33.297 17.627 4.286 6.853 11.874 10.899 19.79 10.555 18.585-.806 35.171 12.38 38.562 30.665 1.391 7.497 6.696 13.893 13.847 16.692 13.879 5.434 19.221 22.796 10.798 35.092-4.34 6.336-5.133 14.609-2.068 21.591 7.474 17.028 1.174 37.25-14.653 47.038-6.741 4.168-10.74 11.775-10.435 19.853.508 13.42-6.25 26.182-17.638 33.303-6.812 4.259-10.854 11.893-10.546 19.92.512 13.421-6.243 26.184-17.628 33.309-6.853 4.289-10.896 11.872-10.554 19.79.803 18.593-12.381 35.171-30.664 38.563-7.498 1.39-13.895 6.696-16.692 13.847-5.436 13.88-22.796 19.223-35.093 10.798-1.708-1.17-3.561-2.074-5.488-2.723 2.178-5.656 3.007-11.794 2.3-17.98-.288-2.522.742-5.048 2.689-6.591 20.395-16.168 25.846-45.301 12.681-67.767-1.282-2.189-1.241-4.999.108-7.329 7.723-13.341 9.202-29.345 4.058-43.908-1.38-3.907-5.666-5.954-9.569-4.574-3.905 1.38-5.953 5.665-4.573 9.57 3.68 10.417 2.624 21.86-2.897 31.397-4.049 6.995-4.074 15.588-.067 22.427 9.409 16.056 5.516 36.876-9.058 48.428-5.976 4.737-9.146 12.419-8.273 20.048 1.691 14.806-11.155 27.657-25.961 25.962-7.623-.871-15.312 2.299-20.05 8.274-11.554 14.572-32.373 18.465-48.428 9.057-6.84-4.009-15.435-3.981-22.429.068-11.619 6.725-26.056 6.727-37.675 0-6.996-4.049-15.59-4.076-22.429-.068-16.056 9.409-36.875 5.515-48.428-9.058-4.736-5.975-12.417-9.14-20.048-8.274-14.805 1.691-27.649-11.157-25.961-25.962.868-7.63-2.303-15.312-8.276-20.048-14.572-11.552-18.466-32.372-9.058-48.427 4.008-6.838 3.982-15.433-.066-22.429-6.729-11.623-6.727-26.063.006-37.686 4.026-6.951 4.026-15.588-.001-22.54-6.732-11.622-6.734-26.062-.005-37.686 4.049-6.996 4.074-15.59.066-22.428-9.408-16.056-5.515-36.876 9.059-48.428 5.975-4.737 9.146-12.419 8.273-20.048-1.69-14.807 11.152-27.649 25.962-25.96 7.637.871 15.312-2.299 20.05-8.274 11.553-14.571 32.371-18.465 48.428-9.058 6.84 4.008 15.434 3.983 22.429-.067 11.618-6.726 26.055-6.728 37.675 0 6.996 4.049 15.588 4.076 22.428.067 16.056-9.408 36.877-5.515 48.429 9.059 4.736 5.974 12.42 9.143 20.048 8.273 14.812-1.689 27.654 11.15 25.963 25.961-.872 7.631 2.299 15.314 8.274 20.049 14.572 11.553 18.466 32.373 9.057 48.429-4.007 6.838-3.981 15.432.067 22.427 5.521 9.539 6.577 20.984 2.896 31.4-1.38 3.905.667 8.19 4.572 9.571 3.905 1.38 8.19-.667 9.57-4.572 5.147-14.562 3.669-30.568-4.056-43.913-1.35-2.332-1.391-5.141-.108-7.33 4.903-8.367 7.22-17.658 7.149-26.861 10.895 1.605 21.795-3.749 27.078-13.729 6.807-12.855 1.911-28.77-10.945-35.575-12.317-6.522-27.48-2.309-34.708 9.44-.415-.35-.826-.703-1.254-1.043-1.947-1.543-2.978-4.069-2.689-6.592 2.785-24.378-18.147-45.351-42.567-42.566-2.522.29-5.049-.742-6.592-2.689-14.276-18.01-38.662-24.357-59.643-16.53 5.505-6.316 13.024-10.794 21.401-12.348 7.496-1.391 13.893-6.696 16.692-13.847 5.436-13.88 22.794-19.222 35.092-10.798 6.336 4.34 14.609 5.133 21.594 2.067.542-.238 1.087-.462 1.634-.672 3.867-1.483 5.801-5.821 4.317-9.688-1.482-3.868-5.821-5.801-9.688-4.317-.77.295-1.535.609-2.293.942-2.277 1-4.992.727-7.087-.708-20.257-13.877-48.584-5.161-57.535 17.704-.926 2.364-3.019 4.114-5.462 4.568-16.69 3.096-30.545 13.897-37.749 28.939-15.562-7.446-34.006-6.823-49.073 1.898-2.331 1.35-5.14 1.391-7.329.107-22.467-13.166-51.599-7.714-67.766 12.68-1.543 1.947-4.062 2.984-6.594 2.69-24.399-2.782-45.353 18.169-42.565 42.567.288 2.522-.742 5.048-2.689 6.591-20.399 16.171-25.851 45.305-12.686 67.771 1.283 2.189 1.242 4.998-.106 7.329-9.414 16.26-9.411 36.461.007 52.718 1.341 2.314 1.341 5.189 0 7.503-9.418 16.258-9.421 36.459-.008 52.718 1.35 2.332 1.391 5.14.107 7.331-13.164 22.465-7.713 51.598 12.681 67.765 1.947 1.544 2.979 4.072 2.69 6.597-2.778 24.393 18.176 45.348 42.568 42.563 2.521-.29 5.047.742 6.591 2.689 16.167 20.394 45.3 25.845 67.766 12.681 2.189-1.282 4.998-1.242 7.329.108 16.256 9.41 36.45 9.41 52.706 0 2.331-1.35 5.14-1.39 7.329-.108 22.466 13.164 51.599 7.713 67.766-12.68 1.544-1.947 4.076-2.979 6.594-2.689 11.296 1.29 22.432-2.501 30.736-10.395 2.156-.738 4.608-.418 6.54.904 20.267 13.883 48.581 5.17 57.537-17.705.925-2.364 3.017-4.113 5.46-4.566 25.588-4.746 44.038-27.943 42.915-53.958-.109-2.535 1.241-4.997 3.524-6.426 15.927-9.967 25.376-27.821 24.659-46.597-.102-2.671 1.243-5.212 3.511-6.63 15.931-9.963 25.385-27.815 24.674-46.588-.102-2.692 1.176-5.193 3.335-6.528 22.146-13.696 30.958-41.994 20.499-65.825-.998-2.276-.727-4.99.708-7.086zm-144.378-29.358c3.201 10.41-8.785 18.888-17.552 12.426-1.177-3.415-2.697-6.72-4.565-9.85.827-12.48 18.438-14.53 22.117-2.576z"/><path d="m374.492 124.36c4.143 0 7.5-3.358 7.5-7.5s-3.357-7.5-7.5-7.5c-4.174 0-7.505 3.376-7.505 7.5 0 4.142 3.364 7.5 7.505 7.5z"/><path d="m418.714 235.011c-4.142 0-7.495 3.358-7.495 7.5s3.363 7.5 7.505 7.5c4.143 0 7.5-3.358 7.5-7.5 0-4.118-3.329-7.5-7.51-7.5z"/><path d="m369.402 328.173c-4.174 0-7.505 3.376-7.505 7.5 0 4.142 3.363 7.5 7.505 7.5 4.143 0 7.5-3.358 7.5-7.5s-3.357-7.5-7.5-7.5z"/><path d="m433.559 200.268c5.759-1.772 10.483-5.681 13.304-11.006 5.818-10.993 1.609-24.672-9.383-30.492-10.995-5.822-24.674-1.61-30.493 9.383-9.3 17.569 7.267 38.055 26.572 32.115zm-13.315-25.098c1.95-3.683 6.535-5.091 10.217-3.144 3.684 1.951 5.094 6.535 3.145 10.218-1.956 3.692-6.525 5.098-10.218 3.144-3.684-1.951-5.094-6.534-3.144-10.218z"/></g></g><g/><g/><g/><g/><g/><g/><g/><g/><g/><g/><g/><g/><g/><g/><g/></svg>