<svg id="Layer_1" viewBox="0 0 1000 1000" xmlns="http://www.w3.org/2000/svg" data-name="Layer 1"><path d="m818.27 372.87a16 16 0 0 1 0-22.62l41.4-41.4-168.52-168.52-41.4 41.4a16 16 0 0 1 -22.62 0l-59.13-59.1-445.37 445.37 59.1 59.1a16 16 0 0 1 0 22.62l-41.4 41.4 168.52 168.55 41.4-41.4a16 16 0 0 1 22.62 0l59.1 59.1 445.4-445.37zm-30.62-56.08a16 16 0 0 1 -22.63 0l-29.59-29.59-31.9 31.9c18.22 25.56 19.91 55.6 2.49 73-8.19 8.2-19.19 12.16-31.2 12.16-13.51 0-28.29-5-41.82-14.66l-31.9 31.9 29.59 29.59a16 16 0 1 1 -22.62 22.63l-29.59-29.59-19.42 19.41a69.42 69.42 0 0 1 -95.51 95.52l-19.4 19.4 29.59 29.59a16 16 0 1 1 -22.62 22.62l-29.59-29.57-31.91 31.9a79.93 79.93 0 0 1 13.38 29.83c3.5 17-.47 32.77-10.89 43.19-7.94 7.94-19 12.14-31.3 12.14a59.4 59.4 0 0 1 -11.89-1.24 79.82 79.82 0 0 1 -29.82-13.41l-31.9 31.92 29.59 29.57a16 16 0 1 1 -22.63 22.62l-40.9-40.9-40.9-40.9a16 16 0 0 1 22.64-22.61l29.59 29.59 31.91-31.91a90.68 90.68 0 0 1 -5-7.81 76.26 76.26 0 0 1 -8.43-22c-3.5-17 .47-32.77 10.9-43.19s26.16-14.39 43.19-10.89a79.93 79.93 0 0 1 29.84 13.38l31.91-31.91-29.59-29.59a16 16 0 1 1 22.62-22.62l29.59 29.59 19.4-19.4a69.41 69.41 0 0 1 95.51-95.51l19.42-19.42-29.59-29.59a16 16 0 0 1 22.63-22.62l29.59 29.59 31.88-31.9c-9.64-13.53-14.65-28.32-14.65-41.82 0-12 4-23 12.16-31.2 17.42-17.42 47.46-15.73 73 2.49l31.9-31.9-29.57-29.57a16 16 0 0 1 22.63-22.63l40.9 40.91 40.91 40.9a16 16 0 0 1 0 22.61z" fill="#bdbdbd"/><path d="m808.27 382.87a16 16 0 0 1 0-22.62l41.4-41.4-168.52-168.52-41.4 41.4a16 16 0 0 1 -22.62 0l-59.13-59.1-445.37 445.37 59.1 59.1a16 16 0 0 1 0 22.62l-41.4 41.4 168.52 168.55 41.4-41.4a16 16 0 0 1 22.62 0l59.1 59.1 445.4-445.37zm-30.62-56.08a16 16 0 0 1 -22.63 0l-29.59-29.59-31.9 31.9c18.22 25.56 19.91 55.6 2.49 73-8.19 8.2-19.19 12.16-31.2 12.16-13.51 0-28.29-5-41.82-14.66l-31.9 31.9 29.59 29.59a16 16 0 1 1 -22.62 22.63l-29.59-29.59-19.42 19.41a69.42 69.42 0 0 1 -95.51 95.52l-19.4 19.4 29.59 29.59a16 16 0 1 1 -22.62 22.62l-29.59-29.57-31.91 31.9a79.93 79.93 0 0 1 13.38 29.83c3.5 17-.47 32.77-10.89 43.19-7.94 7.94-19 12.14-31.3 12.14a59.4 59.4 0 0 1 -11.89-1.24 79.82 79.82 0 0 1 -29.82-13.41l-31.9 31.92 29.59 29.57a16 16 0 1 1 -22.63 22.62l-40.9-40.9-40.9-40.9a16 16 0 0 1 22.64-22.61l29.59 29.59 31.91-31.91a90.68 90.68 0 0 1 -5-7.81 76.26 76.26 0 0 1 -8.43-22c-3.5-17 .47-32.77 10.9-43.19s26.16-14.39 43.19-10.89a79.93 79.93 0 0 1 29.84 13.38l31.91-31.91-29.59-29.59a16 16 0 1 1 22.62-22.62l29.59 29.59 19.4-19.4a69.41 69.41 0 0 1 95.51-95.51l19.42-19.42-29.59-29.59a16 16 0 0 1 22.63-22.62l29.59 29.59 31.88-31.9c-9.64-13.53-14.65-28.32-14.65-41.82 0-12 4-23 12.16-31.2 17.42-17.42 47.46-15.73 73 2.49l31.9-31.9-29.57-29.57a16 16 0 0 1 22.63-22.63l40.9 40.91 40.91 40.9a16 16 0 0 1 0 22.61z" fill="#fff" opacity=".5"/><g fill="#413b32"><path d="m911.31 420.66-59.1-59.1 41.4-41.39a16 16 0 0 0 0-22.63l-191.15-191.15a16 16 0 0 0 -22.63 0l-41.39 41.4-59.1-59.1a16 16 0 0 0 -22.63 0l-468 468a16 16 0 0 0 0 22.63l59.1 59.1-41.4 41.39a16 16 0 0 0 0 22.63l191.13 191.17a16 16 0 0 0 22.63 0l41.39-41.4 59.1 59.1a16 16 0 0 0 22.63 0l468-468a16 16 0 0 0 .02-22.65zm-479.31 456.71-59.1-59.1a16 16 0 0 0 -22.62 0l-41.4 41.4-168.55-168.52 41.4-41.4a16 16 0 0 0 0-22.62l-59.1-59.13 445.37-445.37 59.1 59.1a16 16 0 0 0 22.62 0l41.4-41.4 168.55 168.52-41.4 41.4a16 16 0 0 0 0 22.62l59.1 59.1z"/><path d="m473.56 549.07-10 10-19.4 19.4-64.9 64.9a16 16 0 1 1 -22.63-22.63l94.31-94.31a16 16 0 0 1 22.63 22.63z"/><path d="m746.74 275.89-53.59 53.59a16 16 0 0 1 -22.63-22.63l53.59-53.59a16 16 0 0 1 22.63 22.63z"/><path d="m643.38 379.24-10.38 10.38-31.9 31.9-22.62 22.63-19.42 19.41-10 10a16 16 0 1 1 -22.62-22.63l10-10 19.42-19.42 22.63-22.62 31.88-31.89 10.39-10.39a16 16 0 0 1 22.48-.13l.14.14.14.13a16 16 0 0 1 -.14 22.49z"/><path d="m329.48 693.14-10.37 10.37-31.91 31.92-11.32 11.31a16 16 0 0 1 -22.62-22.63l43.22-43.22 10.37-10.37a16 16 0 1 1 22.63 22.62z"/><path d="m787.65 316.79a16 16 0 0 1 -22.63 0l-29.59-29.59-22.63-22.63-29.59-29.57a16 16 0 0 1 22.63-22.63l40.9 40.91 40.91 40.9a16 16 0 0 1 0 22.61z"/><path d="m630.69 473.74a16 16 0 0 1 -22.62 0l-81.81-81.81a16 16 0 0 1 22.63-22.62l81.8 81.8a16 16 0 0 1 0 22.63z"/><path d="m473.74 630.69a16 16 0 0 1 -22.62 0l-29.59-29.59-22.63-22.63-29.59-29.59a16 16 0 1 1 22.62-22.62l29.59 29.59 22.63 22.63 29.59 29.59a16 16 0 0 1 0 22.62z"/><path d="m316.79 787.64a16 16 0 0 1 -22.63 0l-40.9-40.9-40.9-40.9a16 16 0 0 1 22.64-22.63l81.79 81.79a16 16 0 0 1 0 22.64z"/><path d="m703.53 319.1a97.49 97.49 0 0 0 -22.63-22.63c-25.56-18.22-55.6-19.91-73-2.49-8.2 8.19-12.16 19.19-12.16 31.2 0 13.5 5 28.29 14.65 41.82a98.22 98.22 0 0 0 22.61 22.62c13.53 9.65 28.31 14.66 41.82 14.66 12 0 23-4 31.2-12.16 17.42-17.42 15.73-47.46-2.49-73.02zm-20.13 50.39c-6.26 6.25-25 2.05-39.88-12.74l-.14-.13-.14-.14c-14.78-14.88-19-33.62-12.73-39.88s25.12-2 40 12.88 19.16 33.74 12.89 40.01z"/><path d="m559.06 463.56a69.4 69.4 0 1 0 -10 85.51 69 69 0 0 0 10-85.51zm-32.61 62.88a37.38 37.38 0 1 1 0-52.89 37.16 37.16 0 0 1 0 52.89z"/><path d="m403 662.83a79.93 79.93 0 0 0 -13.38-29.83 97.49 97.49 0 0 0 -22.62-22.62 79.93 79.93 0 0 0 -29.83-13.38c-17-3.5-32.77.47-43.19 10.89s-14.4 26.16-10.9 43.19a76.26 76.26 0 0 0 8.43 22 90.68 90.68 0 0 0 5 7.81 96.17 96.17 0 0 0 22.63 22.62 79.82 79.82 0 0 0 29.82 13.41 59.4 59.4 0 0 0 11.89 1.24c12.33 0 23.36-4.2 31.3-12.14 10.39-10.42 14.36-26.16 10.85-43.19zm-33.51 20.57c-3.8 3.8-11.14 2.78-14.11 2.17a45 45 0 0 1 -13.29-5.27 62.57 62.57 0 0 1 -12.61-9.78c-7.78-7.78-13.27-17.22-15.05-25.9-.61-3-1.63-10.31 2.17-14.11 2.18-2.18 5.51-2.78 8.52-2.78a28.65 28.65 0 0 1 5.6.6c8.68 1.78 18.11 7.27 25.9 15s13.27 17.22 15.05 25.9c.61 3.02 1.62 10.36-2.18 14.17z"/></g></svg>