<svg id="Capa_1" enable-background="new 0 0 512 512" height="512" viewBox="0 0 512 512" width="512" xmlns="http://www.w3.org/2000/svg"><g><g><path d="m280.244 108.641h-32.325v-32.325h22.224c5.579 0 10.102 4.523 10.102 10.102v22.223z" fill="#e490d0"/></g><g><path d="m247.919 108.641v-60.61l-95.132 14.864c-19.669 3.073-34.169 20.015-34.169 39.922v5.823h129.301z" fill="#3a67c1"/></g><g><g><path d="m185.195 379.364h-24.111v-48.488h42.427l-8.426 40.446c-.977 4.685-5.105 8.042-9.89 8.042z" fill="#e490d0"/></g><g><path d="m161.083 357.141h36.956l5.471-26.264h-42.427z" fill="#df73c1"/></g><g><path d="m150.982 463.97h-38.58c-4.635 0-8.676-3.155-9.8-7.652l-38.494-153.974h96.976v151.524c-.001 5.579-4.523 10.102-10.102 10.102z" fill="#acacac"/></g><g><path d="m76.123 350.405c13.388 4.365 27.669 6.735 42.495 6.735h42.466v-54.797h-96.976z" fill="#9c9c9c"/></g><g><path d="m474.195 189.454c-10.793 0-20.261 5.647-25.63 14.142h-24.878v32.325h24.878c5.369 8.496 14.837 14.142 25.63 14.142 16.737 0 30.305-13.568 30.305-30.305s-13.568-30.304-30.305-30.304z" fill="#26447e"/></g><g><path d="m280.244 203.596h33.493v32.325h-33.493z" fill="#26447e"/></g><g><path d="m118.618 330.877c-61.369 0-111.118-49.75-111.118-111.118s49.749-111.118 111.118-111.118h161.626v222.236z" fill="#cecece"/></g><g><path d="m251.719 108.641v140.354c0 29.468-23.889 53.357-53.357 53.357h-108.269c-23.397 0-45.1-7.237-63.006-19.587 20.042 29.061 53.559 48.112 91.531 48.112h161.626v-222.236z" fill="#bfbfbf"/></g><g><path d="m423.687 320.273c0 5.932-5.093 10.646-10.996 10.066-56.207-5.522-100.122-52.923-100.122-110.581s43.915-105.058 100.122-110.58c5.903-.58 10.996 4.134 10.996 10.066z" fill="#3a67c1"/></g><g><path d="m389.161 213.66c-21.165 21.165-45.254 36.524-69.364 45.58 14.664 38.565 50.177 66.855 92.772 71.087 5.951.591 11.119-4.077 11.119-10.057v-152.148c-8.815 15.909-20.368 31.378-34.527 45.538z" fill="#30569f"/></g><g><circle cx="118.618" cy="219.759" fill="#b7e546" r="16.163"/></g><g><path d="m120.05 173.291h111.706c8.926 0 16.163-7.236 16.163-16.163 0-8.926-7.236-16.163-16.163-16.163h-111.706c-8.926 0-16.163 7.236-16.163 16.163 0 8.927 7.237 16.163 16.163 16.163z" fill="#e490d0"/></g></g><g><path d="m474.195 181.953c-11.6 0-22.338 5.217-29.48 14.143h-13.525v-76.855c0-4.967-2.112-9.73-5.795-13.069-3.654-3.312-8.547-4.937-13.438-4.455-29.158 2.863-56.13 16.412-75.947 38.148-14.556 15.965-24.334 35.387-28.562 56.231h-19.708v-21.466c0-4.143-3.357-7.5-7.5-7.5s-7.5 3.357-7.5 7.5v148.75h-154.12c-57.136 0-103.62-46.483-103.62-103.62s46.484-103.62 103.62-103.62h154.12v23.49c0 4.143 3.357 7.5 7.5 7.5s7.5-3.357 7.5-7.5l.004-53.213c0-9.705-7.896-17.602-17.602-17.602h-14.724v-20.784c0-2.191-.958-4.273-2.623-5.698-1.665-1.424-3.866-2.052-6.035-1.712l-95.132 14.865c-22.998 3.594-39.807 22.777-40.479 45.896-61.939 3.869-111.149 55.48-111.149 118.378 0 44.815 24.984 83.902 61.752 104.073l33.573 134.302c1.971 7.851 8.993 13.334 17.074 13.334h38.58c9.71 0 17.61-7.899 17.61-17.609v-21.95c0-4.143-3.358-7.5-7.5-7.5s-7.5 3.357-7.5 7.5v21.95c0 1.438-1.171 2.609-2.61 2.609h-38.579c-1.193 0-2.232-.817-2.524-1.979l-30.715-122.866c12.351 4.369 25.63 6.756 39.459 6.756h34.97v58.53c0 4.143 3.358 7.5 7.5 7.5s7.5-3.357 7.5-7.5v-10.046h16.605c8.293 0 15.54-5.893 17.231-14.013l7.182-34.472h70.632c4.143 0 7.5-3.357 7.5-7.5v-87.459h19.707c4.227 20.846 14.005 40.268 28.561 56.234 19.818 21.737 46.79 35.285 75.947 38.148.564.056 1.128.083 1.69.083 4.308 0 8.512-1.609 11.743-4.538 3.687-3.342 5.801-8.108 5.801-13.079v-19.039c0-4.143-3.357-7.5-7.5-7.5s-7.5 3.357-7.5 7.5v19.039c0 1.021-.548 1.669-.875 1.966-.375.34-1.012.723-1.892.641-25.46-2.5-49.016-14.336-66.33-33.326-17.426-19.114-27.023-43.899-27.023-69.79s9.598-50.675 27.023-69.789c17.313-18.991 40.87-30.826 66.331-33.327.88-.089 1.52.3 1.896.641.324.295.869.94.869 1.956v146.99c0 4.143 3.357 7.5 7.5 7.5s7.5-3.357 7.5-7.5v-22.81h13.523c7.143 8.926 17.881 14.143 29.481 14.143 20.846 0 37.805-16.959 37.805-37.805s-16.956-37.805-37.802-37.805zm-204.052-98.137c1.435 0 2.602 1.167 2.602 2.602v14.723h-17.326v-17.325zm-116.199-13.51 86.474-13.513v44.347h-114.256c.771-15.571 12.214-28.401 27.782-30.834zm33.798 299.486c-.25 1.201-1.321 2.072-2.547 2.072h-16.605v-33.484h25.696zm99.998-141.371v-17.325h17.648c-.209 2.873-.318 5.762-.318 8.664 0 2.901.109 5.789.318 8.661zm186.455 14.143c-7.865 0-15.076-3.98-19.289-10.648-1.375-2.176-3.768-3.494-6.341-3.494h-17.375v-17.325h17.375c2.572 0 4.966-1.318 6.34-3.493 4.214-6.669 11.425-10.649 19.29-10.649 12.574 0 22.805 10.23 22.805 22.806 0 12.572-10.23 22.803-22.805 22.803z"/><path d="m118.618 196.096c-13.047 0-23.663 10.615-23.663 23.663 0 13.047 10.615 23.662 23.663 23.662s23.663-10.615 23.663-23.662c-.001-13.048-10.616-23.663-23.663-23.663zm0 32.325c-4.776 0-8.663-3.886-8.663-8.662s3.886-8.663 8.663-8.663 8.663 3.887 8.663 8.663-3.887 8.662-8.663 8.662z"/><path d="m191.931 209.657v20.204c0 4.143 3.358 7.5 7.5 7.5s7.5-3.357 7.5-7.5v-20.204c0-4.143-3.358-7.5-7.5-7.5s-7.5 3.357-7.5 7.5z"/><path d="m224.256 209.657v20.204c0 4.143 3.358 7.5 7.5 7.5s7.5-3.357 7.5-7.5v-20.204c0-4.143-3.358-7.5-7.5-7.5s-7.5 3.357-7.5 7.5z"/><path d="m159.605 209.657v20.204c0 4.143 3.358 7.5 7.5 7.5s7.5-3.357 7.5-7.5v-20.204c0-4.143-3.358-7.5-7.5-7.5s-7.5 3.357-7.5 7.5z"/><path d="m255.418 157.128c0-13.047-10.615-23.662-23.662-23.662h-111.706c-13.048 0-23.663 10.615-23.663 23.662 0 13.048 10.615 23.663 23.663 23.663h111.707c13.047 0 23.661-10.615 23.661-23.663zm-23.662 8.663h-111.706c-4.776 0-8.663-3.887-8.663-8.663s3.886-8.662 8.663-8.662h111.707c4.776 0 8.662 3.886 8.662 8.662s-3.886 8.663-8.663 8.663z"/><path d="m128.72 258.726h-20.204c-4.142 0-7.5 3.357-7.5 7.5s3.358 7.5 7.5 7.5h20.204c4.142 0 7.5-3.357 7.5-7.5s-3.358-7.5-7.5-7.5z"/><path d="m128.72 291.051h-20.204c-4.142 0-7.5 3.357-7.5 7.5s3.358 7.5 7.5 7.5h20.204c4.142 0 7.5-3.357 7.5-7.5s-3.358-7.5-7.5-7.5z"/></g></g></svg>