<svg id="color_Line_copy" height="512" viewBox="0 0 256 256" width="512" xmlns="http://www.w3.org/2000/svg" data-name="color Line copy"><rect fill="#2a8bbe" height="72.378" rx="6.635" transform="matrix(0 1 -1 0 270.904 156.664)" width="21.51" x="46.365" y="177.595"/><rect fill="#ff4a44" height="72.378" rx="6.635" transform="matrix(0 1 -1 0 343.093 84.475)" width="21.51" x="118.554" y="177.595"/><rect fill="#56cc56" height="72.378" rx="6.635" transform="matrix(0 1 -1 0 415.281 12.286)" width="21.51" x="190.743" y="177.595"/><path d="m38.743 77.5959 54.0457-41.0454a11.0589 11.0589 0 0 1 13.3771 0l54.0457 41.0454a6.6354 6.6354 0 0 1 -4.0131 11.92h-113.4423a6.6354 6.6354 0 0 1 -4.0131-11.92z" fill="#56cc56"/><rect fill="#ffc139" height="72.262" rx="6.635" width="35.622" x="36.884" y="130.827"/><rect fill="#ffc139" height="72.262" rx="6.635" width="35.622" x="126.448" y="130.827"/><path d="m36.8844 96.3935v27.6855a6.6354 6.6354 0 0 0 6.6354 6.6354h23.1228a6.6832 6.6832 0 0 0 6.5009-5.3093 26.968 26.968 0 0 1 52.6676 0 6.6832 6.6832 0 0 0 6.5009 5.3093h23.1228a6.6354 6.6354 0 0 0 6.6354-6.6354v-27.6855a6.6354 6.6354 0 0 0 -6.6354-6.6354h-111.9148a6.6354 6.6354 0 0 0 -6.6356 6.6354z" fill="#2a8bbe"/><path d="m163.6335 134.1545 22.5251-28.2781a6.6354 6.6354 0 0 1 10.38 0l22.5251 28.2781a6.6354 6.6354 0 0 1 -5.19 10.77h-45.05a6.6354 6.6354 0 0 1 -5.1902-10.77z" fill="#ff4a44"/><path d="m162.29 151.6068v44.847a6.6354 6.6354 0 0 0 6.6354 6.6354h44.847a6.6354 6.6354 0 0 0 6.6354-6.6354v-44.847a6.6354 6.6354 0 0 0 -6.6354-6.6354h-44.847a6.6354 6.6354 0 0 0 -6.6354 6.6354z" fill="#2a8bbe"/><circle cx="191.349" cy="174.03" fill="#fff" r="18.247"/><path d="m231.0508 200.5288h-9.1145a9.0677 9.0677 0 0 0 .9709-4.0752v-44.8467a9.1023 9.1023 0 0 0 -2.8467-6.61 9.1693 9.1693 0 0 0 2.043-2.7421 9.0663 9.0663 0 0 0 -1.085-9.6577l-22.5244-28.2788a9.1353 9.1353 0 0 0 -14.291 0l-21.75 27.3057a9.1882 9.1882 0 0 0 -.821-.8536 9.1017 9.1017 0 0 0 2.938-6.6919v-27.6849a9.1017 9.1017 0 0 0 -2.6172-6.3887 9.139 9.139 0 0 0 2.9033-4.2094 9.0139 9.0139 0 0 0 -3.1328-10.19l-54.0457-41.0464a13.6015 13.6015 0 0 0 -16.4 0l-54.0463 41.0459a9.0139 9.0139 0 0 0 -3.1328 10.19 9.1326 9.1326 0 0 0 2.9028 4.21 9.1021 9.1021 0 0 0 -2.6167 6.3885v27.6855a9.1029 9.1029 0 0 0 2.9373 6.6919 9.1029 9.1029 0 0 0 -2.9373 6.6919v58.9907a9.0677 9.0677 0 0 0 .9709 4.0752h-7.7892a9.1453 9.1453 0 0 0 -9.1348 9.1353v8.2393a9.1453 9.1453 0 0 0 9.1348 9.1353h59.1074a9.1041 9.1041 0 0 0 6.5408-2.7711 9.1025 9.1025 0 0 0 6.54 2.7711h59.1074a9.1044 9.1044 0 0 0 6.541-2.7714 9.1044 9.1044 0 0 0 6.541 2.7714h59.1064a9.1461 9.1461 0 0 0 9.1357-9.1353v-8.2393a9.1461 9.1461 0 0 0 -9.1353-9.1352zm-190.7959-120.9424 54.0459-41.0454a8.5872 8.5872 0 0 1 10.3535 0l54.0457 41.0454a4.1362 4.1362 0 0 1 -2.502 7.4292h-113.4421a4.1358 4.1358 0 0 1 -2.501-7.4292zm115.18 48.6279h-23.123a4.1734 4.1734 0 0 1 -4.06-3.3457 29.4672 29.4672 0 0 0 -57.55 0 4.1726 4.1726 0 0 1 -4.06 3.3457h-23.1219a4.1394 4.1394 0 0 1 -4.1348-4.1353v-27.6854a4.1394 4.1394 0 0 1 4.1348-4.1353h111.915a4.14 4.14 0 0 1 4.1357 4.1353v27.6855a4.14 4.14 0 0 1 -4.1361 4.1353zm4.1357 9.2485v58.9907a4.1407 4.1407 0 0 1 -4.1357 4.1357h-22.3519a4.14 4.14 0 0 1 -4.1348-4.1357v-58.9906a4.1394 4.1394 0 0 1 4.1348-4.1353h22.3516a4.14 4.14 0 0 1 4.1354 4.1353zm-89.5645 0v58.9907a4.14 4.14 0 0 1 -4.1348 4.1357h-22.3513a4.14 4.14 0 0 1 -4.1348-4.1357v-58.9906a4.1394 4.1394 0 0 1 4.1348-4.1353h22.3511a4.1394 4.1394 0 0 1 4.1348 4.1353zm20.67 81.4309a4.1338 4.1338 0 0 1 -4.0024 3.1448h-59.1073a4.1394 4.1394 0 0 1 -4.1348-4.1353v-8.2393a4.1394 4.1394 0 0 1 4.1348-4.1353h14.9336a9.1744 9.1744 0 0 0 1.02.0605h22.3511a9.1744 9.1744 0 0 0 1.02-.0605h19.7827a4.1338 4.1338 0 0 1 4.0024 3.1448 9.1537 9.1537 0 0 0 -.0562.99v8.2393a9.1537 9.1537 0 0 0 .0563.9911zm-4.0024-18.365h-12.6388a9.0677 9.0677 0 0 0 .9709-4.0752v-58.9906a9.0976 9.0976 0 0 0 -2.5645-6.3311 9.2921 9.2921 0 0 0 3.1436-5.19 24.468 24.468 0 0 1 47.7842 0 9.2977 9.2977 0 0 0 3.144 5.189 9.0975 9.0975 0 0 0 -2.5649 6.3315v58.9907a9.0677 9.0677 0 0 0 .9709 4.0752h-25.1642a9.1025 9.1025 0 0 0 -6.54 2.7711 9.1041 9.1041 0 0 0 -6.5411-2.7705zm76.1909 18.365a4.1338 4.1338 0 0 1 -4.0024 3.1448h-59.1073a4.1394 4.1394 0 0 1 -4.1348-4.1353v-8.2393a4.1394 4.1394 0 0 1 4.1348-4.1353h32.3086a9.1744 9.1744 0 0 0 1.02.0605h22.3516a9.1744 9.1744 0 0 0 1.02-.0605h2.4082a4.1338 4.1338 0 0 1 4.0024 3.1448 9.1536 9.1536 0 0 0 -.0562.99v8.2393a9.1536 9.1536 0 0 0 .0552.9911zm2.7241-83.1814 22.5244-28.2778a4.1361 4.1361 0 0 1 6.4707 0l22.5244 28.2783a4.1358 4.1358 0 0 1 -3.2344 6.7119h-45.0506a4.1358 4.1358 0 0 1 -3.2344-6.7119zm-.7988 60.7412v-44.8466a4.14 4.14 0 0 1 4.1348-4.1357h44.8477a4.14 4.14 0 0 1 4.1348 4.1357v44.8467a4.14 4.14 0 0 1 -4.1348 4.1357h-44.8476a4.14 4.14 0 0 1 -4.1348-4.1357zm70.3965 21.45a4.14 4.14 0 0 1 -4.1357 4.1353h-59.1064a4.14 4.14 0 0 1 -4.1357-4.1353v-8.2393a4.1293 4.1293 0 0 1 3.5369-4.0747h42.427a9.1744 9.1744 0 0 0 1.02-.0605h16.2588a4.14 4.14 0 0 1 4.1357 4.1353z"/><path d="m191.3486 194.7773a20.7471 20.7471 0 1 0 -20.747-20.7473 20.77 20.77 0 0 0 20.747 20.7473zm0-36.4941a15.7471 15.7471 0 1 1 -15.747 15.7468 15.765 15.765 0 0 1 15.747-15.7468z"/></svg>