<svg viewBox="0 0 64 64" xmlns="http://www.w3.org/2000/svg"><g id="Blouse"><path d="m63 53-6-35-11-7a31.28357 31.28357 0 0 1 -28 0l-11 7-6 35h10l4.31-15.97a84.78572 84.78572 0 0 1 1.67529 14.997.99634.99634 0 0 0 .99951.973h28.0304a.99634.99634 0 0 0 .99951-.973 84.78572 84.78572 0 0 1 1.67529-14.997l4.31 15.97z" fill="#eaacde"/><g fill="#d188c3"><path d="m1.686 49-.686 4h10l1.08-4z"/><path d="m51.92 49 1.08 4h10l-.686-4z"/><path d="m18 11 14 22 14-22a31.28357 31.28357 0 0 1 -28 0z"/></g><g fill="#2c3638"><path d="m57.98535 17.83105a.99878.99878 0 0 0 -.44824-.6748l-11-7a1.1175 1.1175 0 0 0 -.98438-.05078 30.44963 30.44963 0 0 1 -27.10546 0 1.11359 1.11359 0 0 0 -.98438.05078l-11 7a.99871.99871 0 0 0 -.44824.6748l-6 35a.99952.99952 0 0 0 .98535 1.16895h10a1.00063 1.00063 0 0 0 .96582-.73975l3.14349-11.66272a90.4107 90.4107 0 0 1 .88678 11.40247 1.00026 1.00026 0 0 0 1 1h30.00782a1.00026 1.00026 0 0 0 1-1 90.4107 90.4107 0 0 1 .88678-11.40247l3.14349 11.66272a1.00063 1.00063 0 0 0 .96582.73975h10a.99952.99952 0 0 0 .98535-1.169zm-14.57727-4.621-11.40808 17.92716-11.40808-17.92713a32.43355 32.43355 0 0 0 11.40808 2.07654 32.43355 32.43355 0 0 0 11.40808-2.07654zm-41.22253 38.78995.34289-2h8.244l-.53906 2zm50.34472-24.84814a1.00006 1.00006 0 0 0 -1.37793.31835c-4.44334 7.10889-5.05273 20.70508-5.13574 24.52979h-28.0332c-.083-3.82471-.69238-17.4209-5.13574-24.52979a.9996.9996 0 1 0 -1.69532 1.05958 28.00461 28.00461 0 0 1 3.12159 8.47991l-2.96235 10.9903h-8.44024l5.03979-29.394 9.78223-6.22559 13.46289 21.1567a1.0398 1.0398 0 0 0 1.6875 0l13.46289-21.15674 9.78223 6.22563 5.03979 29.394h-8.44024l-2.96235-10.9903a28.00461 28.00461 0 0 1 3.12159-8.47991 1.00008 1.00008 0 0 0 -.31739-1.37793zm1.23633 24.84814-.53906-2h8.244l.34289 2z"/><circle cx="32" cy="38" r="1"/><circle cx="32" cy="43" r="1"/><circle cx="32" cy="48" r="1"/></g></g></svg>