<svg id="Layer_1" enable-background="new 0 0 511.999 511.999" viewBox="0 0 511.999 511.999" xmlns="http://www.w3.org/2000/svg"><g><g><path d="m29.098 106.125c-8.479 25.341-29.774 163.353 80.817 249.54 63.688 49.638 139.852 46.179 193 34.318l.009.008c39.14-8.739 65.8-22.033 65.8-22.033s64.896 74.698 135.774 40.795c0 0-27.819-26.799-42.313-21.372 0 0-9.142-38.187-50.007-35.712 0 0 34.227-18.025 25.711-45.989 0 0 28.352-21.085 26.514-42.05 0 0-66.573 17.244-99.536 75.06 0 0-106.975-15.414-150.986-68.819-44.004-53.413-52.281-168.963-158.252-165.782 0 0-18.035-23.307-26.531 2.036z" fill="#8795de"/><g fill="#6c7fd8"><path d="m184.206 269.872c59.107 74.483 180.661 68.819 180.661 68.819s-106.975-15.414-150.986-68.819c-44.004-53.414-52.281-168.964-158.252-165.783 59.629 28.64 93.789 121.946 128.577 165.783z"/><path d="m55.629 104.089s-1.671-2.157-4.233-4.446c.917 1.941 2.253 3.495 4.233 4.446z"/><path d="m462.186 387.382s-9.142-38.187-50.007-35.712c0 0 34.227-18.025 25.711-45.989 0 0 28.352-21.085 26.514-42.05 0 0-17.375 4.504-38.765 16.614-6.205 23.072-20.084 46.59-29.608 60.967-4.584 6.92-1.988 16.286 5.516 19.834 19.105 9.031 34.148 22.542 43.627 32.598 6.096 6.467 3.787 17.091-4.497 20.311l-.157.061c19.453 5.309 41.411 5.533 63.979-5.262 0 0-27.82-26.8-42.313-21.372z"/></g><path d="m52.281 269.131s-20.425 15.472-39.95 23.909c-6.486 2.803-6.432 11.965.097 14.666 14.806 6.124 35.834 11.205 52.098.721z" fill="#8795de"/><path d="m29.098 106.125c-8.479 25.341-29.774 163.353 80.817 249.54 63.688 49.638 139.852 46.179 193 34.318-143.91-45.039-193.588-157.343-199.25-194.593-5.672-37.258-48.036-91.301-48.036-91.301s-18.035-23.307-26.531 2.036z" fill="#eef5f6"/><path d="m145.17 321.787s13.633 32.258-2.903 69.685c-2.779 6.29-3.266 13.888-2.885 20.625.288 5.079-6.054 7.605-9.296 3.685-16.544-20.003-43.125-57.953-33.378-85.54 13.83-39.144 21.045-43.924 21.045-43.924z" fill="#8795de"/><path d="m145.17 321.787-27.417-35.47s-3.792 2.522-11.142 18.801l12.884 16.668s13.633 32.258-2.903 69.684c-.606 1.372-1.085 2.814-1.488 4.288 5.11 7.639 10.426 14.513 14.982 20.022 3.242 3.92 9.583 1.395 9.296-3.685-.381-6.737.106-14.335 2.885-20.625 16.536-37.425 2.903-69.683 2.903-69.683z" fill="#6c7fd8"/></g><g><path d="m509.702 403.352c-4.507-4.341-25.228-23.394-42.396-24.13-1.696-4.15-4.522-9.789-8.943-15.312-5.381-6.722-13.864-14.183-26.492-17.743.614-.605 1.227-1.232 1.833-1.88 10.342-11.045 14.623-23.306 12.552-35.74 2.924-2.501 7.115-6.36 11.243-11.11 10.487-12.068 15.325-23.663 14.378-34.462-.193-2.197-1.344-4.198-3.145-5.471-1.803-1.273-4.075-1.688-6.208-1.134-2.843.736-70.031 18.727-104.171 78.606-2.052 3.599-.798 8.179 2.801 10.23 3.6 2.052 8.178.798 10.23-2.801 22.901-40.168 63.56-59.966 83.388-67.607-4.8 10.685-16.138 20.963-21.356 24.864-2.542 1.89-3.622 5.173-2.699 8.203 6.588 21.635-21.76 37.024-22.032 37.168-3.126 1.646-4.68 5.252-3.728 8.656.952 3.403 4.163 5.676 7.676 5.467 33.905-2.063 41.942 28.693 42.261 29.971.501 2.091 1.874 3.866 3.772 4.876 1.899 1.01 4.142 1.156 6.151.401 4.493-1.681 15.381 4.175 25.426 11.958-23.84 7.572-49.388 3.693-76.117-11.592-23.796-13.609-39.587-31.557-39.738-31.731-2.242-2.579-5.947-3.316-9.005-1.795-.256.127-25.496 12.557-62.101 20.971-74.833-23.882-120.678-65.949-146.005-97.174-14.808-18.254-41.198-57.916-46.191-90.777-4.251-27.934-27.184-63.658-40.32-82.274 24.338 2.153 43.871 11.87 60.694 29.995 18.097 19.495 30.436 46.054 42.368 71.738 10.586 22.787 20.586 44.311 34.267 60.918 15.799 19.17 49.536 45.85 120.543 64.088.626.161 1.254.238 1.871.238 3.342 0 6.39-2.25 7.26-5.636 1.03-4.012-1.387-8.1-5.398-9.13-30.317-7.787-85.272-25.819-112.698-59.098-1.708-2.073-3.358-4.26-4.968-6.53 5.281-1.135 12.802-1.466 21.061 2.176 3.79 1.67 8.218-.046 9.889-3.835 1.672-3.79-.046-8.217-3.836-9.889-14.675-6.473-27.848-4.172-35.48-1.65-6.617-11.529-12.656-24.517-18.906-37.97-24.177-52.039-51.504-110.88-127.487-110.88-.312 0-.633.001-.946.003-5.43-5.694-13.02-10.858-21.252-9.497-7.178.868-13.13 8.198-15.762 16.71-5.271 15.746-16.01 75.264 3.146 140.003 1.175 3.971 5.344 6.239 9.319 5.064 3.972-1.175 6.239-5.348 5.063-9.32-18.363-62.061-7.289-119.067-3.311-130.966.847-2.551 2.957-7.492 4.843-6.652 4.37 1.495 7.79 5.428 11.777 10.948-4.429 12.718-15.413 53.463-1.897 116.06.759 3.516 3.867 5.919 7.324 5.918.523 0 1.057-.055 1.59-.17 4.049-.874 6.622-4.865 5.748-8.914-9.94-46.037-5.696-79.541-1.626-97.084 4.703 7.013 9.995 15.365 14.938 24.198-2.543 11.033-9.569 49.865 4.555 95.274.999 3.213 3.962 5.274 7.159 5.274.737 0 1.488-.11 2.229-.34 3.955-1.23 6.164-5.434 4.934-9.389-8.131-26.142-8.56-50.202-7.23-66.828 2.728 6.859 4.771 13.553 5.706 19.701 5.3 34.877 49.271 139.586 177.449 191.018-34.74 4.508-77.319 3.762-117.961-13.512 6.458-30.531-3.163-53.973-3.664-55.158-.252-.595-.579-1.155-.975-1.667l-27.416-35.469c-2.403-3.11-6.801-3.835-10.075-1.666-2.788 1.847-10.679 10.156-23.825 47.255-15.693-16.548-28.527-35.334-38.225-56.022-1.825-4.105-7.384-5.618-11.035-3.001-6.468 4.436-19.118 12.654-31.173 17.861-5.731 2.476-9.402 8.098-9.354 14.324.048 6.215 3.802 11.77 9.56 14.151 11.828 4.896 22.857 7.343 32.813 7.343 7.258 0 13.939-1.314 19.947-3.916 7.479 9.916 15.789 19.233 24.893 27.904.861 17.179 9.699 41.476 37.094 74.597 2.478 2.995 6.093 4.626 9.809 4.626 1.562 0 3.141-.288 4.66-.884 5.155-2.022 8.408-7.099 8.095-12.63-.396-6.995.385-12.932 2.258-17.17.887-2.007 1.673-3.995 2.405-5.969 65.299 29.551 160.661 14.044 215.431-11.487 6.431 6.564 20.415 19.639 39.327 30.523 20.194 11.623 40.396 17.462 59.88 17.462 14.34 0 28.291-3.163 41.564-9.512 2.218-1.061 3.775-3.142 4.168-5.569.391-2.426-.431-4.892-2.201-6.598zm-494.408-102.58c-.17-.07-.293-.121-.295-.408-.002-.304.14-.365.303-.436 9.367-4.046 18.816-9.55 26.519-14.491 3.54 6.865 7.408 13.524 11.604 19.96-12.444 3.905-27.158-.084-38.131-4.625zm120.113 87.668c-2.182 4.939-3.388 10.81-3.604 17.515-13.672-17.442-35.986-50.68-28.024-73.216 6.306-17.846 11.081-28.085 14.234-33.823l20.558 26.597c1.813 4.955 10.497 32.008-3.164 62.927z"/><path d="m125.302 175.426v4.944c0 4.142 3.357 7.5 7.5 7.5s7.5-3.358 7.5-7.5v-4.944c0-4.142-3.357-7.5-7.5-7.5s-7.5 3.358-7.5 7.5z"/></g></g><g/><g/><g/><g/><g/><g/><g/><g/><g/><g/><g/><g/><g/><g/><g/></svg>