<svg id="Capa_1" enable-background="new 0 0 512 512" height="512" viewBox="0 0 512 512" width="512" xmlns="http://www.w3.org/2000/svg"><g><g><g fill="#8b818e"><path d="m433.289 82.013c-15.634-34.537-12.217-61.247-10.144-70.79.424-1.951-1.119-3.761-3.113-3.642-16.021.959-74.151 7.814-86.703 56.804 0 0 1.319 12.961 1.319 20.338 0 28.266 22.074 72.523 50.34 72.523 33.187 0 52.127-20.715 52.651-48.083.068-3.533.618-10.728.618-10.728-.879-5.493-2.522-11.019-4.968-16.422z"/><path d="m78.668 82.013c15.634-34.537 12.217-61.247 10.144-70.79-.424-1.951 1.119-3.761 3.113-3.642 16.019.959 74.134 7.812 86.697 56.783 0 0-.992 13.91-.992 21.295 0 28.266-20.037 69.358-48.303 69.358-28.084 0-47.561-11.676-52.844-33.523-1.766-7.302-2.783-23.059-2.783-23.059.88-5.493 2.523-11.019 4.968-16.422z"/><path d="m397.301 429.035-72.806 42.389h-137.394l-65.535-42.179c-39.712-23.121-56.538-72.59-37.431-114.382l49.321-105.939 5.235-14.17h237.267l5.618 14.17 9.881 12.251 42.344 93.897c18.817 41.73 3.059 90.931-36.5 113.963z"/></g><path d="m187.099 471.425-72.44-42.18c-39.71-23.12-55.42-72.59-36.31-114.38l48.43-105.94h13.8l-45.23 98.94c-19.11 41.79-3.4 91.26 36.31 114.38l72.44 42.18z" fill="#756e78"/><g fill="#faf8f8"><path d="m255.942 494.952h-30.386c-25.606 0-49.141-8.804-65.471-28.528-8.163-9.859-13.961-21.084-16.844-33.564-.818-3.541-2.874-10.506-2.874-10.506-1.158-15.043 1.56-30.746 4.054-41.301.897-3.798 6.153-4.19 7.599-.565 4.665 11.688 13.641 29.328 28.55 41.106 3.254 8.954 18.758 16.356 32.91 16.356l42.463-4.026v61.028z"/><path d="m255.942 494.952h30.461c25.606 0 48.43-8.804 64.76-28.528 8.163-9.859 14.897-20.919 17.78-33.399.817-3.538 2.649-10.661 2.649-10.661 1.16-15.046-1.559-30.753-4.053-41.311-.897-3.798-6.153-4.19-7.599-.565-4.665 11.688-13.641 29.328-28.55 41.106 0 0-3.388 5.105-5.878 6.56-7.851 4.589-18.25 8.31-28.995 8.31h-40.575z"/></g><path d="m355.799 450.215c-6.902 8.101-15.241 14.723-24.498 19.717-2.722 1.469-5.622-1.597-3.985-4.222 1.877-3.009 3.454-6.268 4.684-9.745 4.1-11.58 3.71-23.69-.61-34.37-9.22 7.29-20.72 12.33-34.87 12.33h-81.08c-14.15 0-25.65-5.04-34.87-12.33-4.32 10.68-4.71 22.79-.61 34.37 1.23 3.477 2.807 6.736 4.684 9.745 1.637 2.625-1.263 5.691-3.985 4.222-9.257-4.994-17.597-11.616-24.498-19.717-7.02-8.24-12.47-17.69-15.79-27.86.28 3.71.8 7.38 1.62 10.92 2.88 12.48 8.86 24.08 17.03 33.94 16.33 19.73 40.93 30.71 66.54 30.71h30.38 30.46c25.61 0 50.21-10.98 66.54-30.71 8.17-9.86 14.15-21.46 17.03-33.94.82-3.54 1.34-7.2 1.62-10.91-3.332 10.16-8.772 19.61-15.792 27.85z" fill="#f0e9e6"/><path d="m294.08 466.425c0 8.081-3.231 21.73-3.231 21.73-7.681 9.836-20.435 16.27-34.87 16.27s-27.189-6.434-34.87-16.27c0 0-3.515-13.649-3.515-21.73z" fill="#8b818e"/><path d="m298.479 466.425c0 8.08-2.82 15.58-7.63 21.73-1.55.16-3.12.23-4.71.23h-60.32c-1.59 0-3.16-.07-4.71-.23-4.81-6.15-7.63-13.65-7.63-21.73z" fill="#756e78"/><path d="m236.131 389.407-30.84 24.946c-.682.551-1.333 1.118-1.954 1.7 0 0-4.544 7.455-6.221 11.332-8.637 19.967 7.083 42.66 32.119 42.66l56.147.44c11.411 0 26.89-11.097 26.89-11.097 9.613-13.03 9.449-32.857-5.605-45.034l-30.84-24.946c-11.576-9.364-28.121-9.364-39.696-.001z" fill="#cf9875"/><path d="m312.272 459.387c-5.66 7.68-14.723 12.998-26.133 12.998h-60.32c-29.89 0-43.66-36.51-22.48-56.33-9.29 18.53 3.38 43.33 27 43.33z" fill="#c7865b"/><path d="m438.259 98.435c-3.091 18.759-15.483 34.72-35.254 40.585-2.402.713-4.974-.449-5.994-2.738-8.556-19.178-20.459-36.394-35.152-50.468-8.75-8.38-18.3-15.54-28.53-21.43-.757 2.949-1.344 6.049-1.749 9.305 0-.002-.001-.003-.001-.005-1.25 8.287-.759 19.798 2.55 30.23 6.05 20.37 20.06 42.8 36.39 52.09 9.31 5.827 23.577 5.284 34.313 1.344.081.036.128.058.128.058 24.922-8.441 37.402-33.353 33.299-58.971z" fill="#756e78"/><path d="m180.378 73.715c-.001-.01.002-.02.001-.03-.001.006-.002.012-.003.017-.408-3.27-.995-6.382-1.754-9.338-10.25 5.88-19.813 13.051-28.573 21.441-14.685 14.066-26.591 31.285-35.149 50.465-1.022 2.29-3.595 3.452-5.998 2.736-19.741-5.878-32.114-21.829-35.202-40.571-4.106 25.636 8.394 50.564 33.35 58.989 9.684 3.113 23.401 5.163 34.31-1.369 16.38-9.27 30.44-31.78 36.49-52.21 2.975-10.002 3.903-19.289 2.528-30.13z" fill="#756e78"/><path d="m218.148 255.925s-14.979-56.287-46.065-56.287c-26.857 0-28.104 31.528-28.104 31.528l-10.743-10.15c-11.515-8.798-15.642-21.111-13.541-35.45 7.732-52.771 38.134-99.298 89.161-117.069 2.812-.979 8.472-3.012 8.472-3.012 11.982-3.29 24.881-5.062 38.623-5.062 77.924 0 128.768 56.977 138.665 124.59.381 2.604.499 5.209.367 7.78 0 0-2.465 6.277-3.36 9.286-2.372 7.97-5.461 15.165-12.289 20.393l-11.353 8.692c-.006-.354-1.288-31.528-28.162-31.528-31.086 0-46.065 56.287-46.065 56.287" fill="#8b818e"/></g><g><path d="m440.637 312.065-44.204-98.021c5.054-8.99 7.141-19.528 5.602-30.041-.852-5.82-2-11.552-3.423-17.176 14.631-2.724 27.126-10.18 35.77-21.543 10.845-14.258 14.673-33.227 10.502-52.043-.897-4.044-4.904-6.598-8.945-5.699-4.044.896-6.596 4.901-5.699 8.945 3.214 14.501.373 28.977-7.796 39.716-6.752 8.877-16.424 14.404-28.185 16.175-6.293-17.928-15.522-34.399-27.226-48.479-1.551-13.169 2.132-29.728 15.329-36.938 3.568-2.104 4.754-6.703 2.65-10.271-2.104-3.567-6.701-4.753-10.271-2.65-12.552 7.403-20.819 20.272-22.513 34.53-4.32-3.853-8.834-7.405-13.527-10.65 2.057-25.305 16.218-43.481 42.16-54.05 12.737-5.189 25.566-7.343 33.91-8.237-1.422 10.173-2.021 27.096 3.868 48.166 1.114 3.989 5.252 6.322 9.242 5.205 3.989-1.115 6.319-5.252 5.205-9.242-8.279-29.627-1.906-49.689-1.852-49.854.776-2.29.401-4.812-1.008-6.777s-3.678-3.131-6.096-3.131c-.986 0-24.438.111-48.507 9.808-28.986 11.677-46.416 32.141-50.982 59.588-20.491-10.795-43.718-16.396-68.692-16.396-24.956 0-48.168 5.594-68.649 16.374-2.3-13.817-7.853-25.898-16.61-36.011-2.711-3.131-7.448-3.472-10.579-.761-3.132 2.711-3.472 7.448-.761 10.579 8.12 9.379 12.779 21.042 13.9 34.703-4.693 3.241-9.207 6.79-13.528 10.64-1.706-14.239-9.967-27.089-22.506-34.484-3.568-2.103-8.166-.918-10.271 2.65-2.104 3.568-.917 8.166 2.65 10.271 12.819 6.924 16.842 22.778 15.327 36.87-11.727 14.09-20.972 30.579-27.276 48.529-13.25-2.035-23.985-8.917-30.58-19.746-8.275-13.587-8.86-31.319-1.566-47.433 14.02-30.969 13.578-56.126 11.694-69.546 8.892.954 22.869 3.338 36.407 9.296 3.79 1.668 8.217-.052 9.886-3.844 1.668-3.791-.052-8.217-3.844-9.886-25.162-11.074-50.74-11.201-51.816-11.201-2.417 0-4.687 1.165-6.095 3.13s-1.784 4.488-1.008 6.777c.096.283 9.373 28.748-8.888 69.088-9.34 20.634-8.436 43.595 2.419 61.42 8.629 14.169 22.294 23.327 39.032 26.411-1.421 5.617-2.568 11.342-3.42 17.153-1.582 10.799.666 21.617 6.038 30.775l-41.067 89.826c-1.723 3.767-.065 8.217 3.702 9.939 1.011.462 2.071.681 3.114.681 2.845 0 5.565-1.627 6.825-4.383l38.159-83.466c3.526 3.275 9.712 5.675 16.183 3.953 5.102-1.485 9.078-5.194 10.909-10.178 3.439-9.361 9.442-13.912 18.353-13.912 20.705 0 35.039 36.604 38.817 50.715 1.065 4.003 5.172 6.385 9.176 5.319 4.003-1.065 6.384-5.173 5.319-9.176-.672-2.526-16.88-61.858-53.312-61.858-15.291 0-26.809 8.431-32.433 23.74-.221.602-.676.848-1.02.947-.352.103-.883.14-1.475-.312-9.378-7.166-14.148-18.828-12.447-30.436 8.408-64.146 60.932-119.678 131.241-118.153 78.712 0 122.633 59.354 131.244 118.176 1.697 11.597-3.062 23.252-12.421 30.418-.008.006-.017.013-.025.019-.558.414-1.124.335-1.414.251-.337-.098-.783-.336-.995-.917-5.605-15.305-17.156-23.734-32.522-23.734-36.433 0-52.641 59.332-53.313 61.858-1.065 4.003 1.316 8.111 5.319 9.176.646.172 1.295.254 1.934.254 3.316 0 6.35-2.217 7.243-5.573 3.754-14.106 18.045-50.715 38.818-50.715 8.982 0 15.014 4.544 18.438 13.894 1.822 4.974 5.791 8.677 10.89 10.16 4.868 1.214 11.754.473 16.65-4.326l41.169 91.291c17.294 38.35 2.92 83.231-33.436 104.397l-15.572 9.067c5.358-29.44-6.31-64.108-6.828-65.623-1.073-3.139-4.085-5.191-7.397-5.062-3.315.133-6.149 2.432-6.969 5.646-.103.403-9.855 37.582-35.773 53.099-2.426-4.165-5.642-7.955-9.604-11.16l-30.84-24.946c-14.234-11.514-34.896-11.514-49.13 0l-30.84 24.946c-3.962 3.205-7.178 6.995-9.604 11.159-25.918-15.517-35.67-52.696-35.77-53.09-.812-3.22-3.645-5.523-6.963-5.66-3.319-.143-6.331 1.923-7.406 5.066-.52 1.519-12.251 36.367-6.789 65.857l-15.612-9.09c-28.504-16.596-44.216-48.446-40.027-81.141.527-4.108-2.377-7.866-6.486-8.392-4.112-.526-7.866 2.377-8.392 6.486-4.957 38.688 13.632 76.375 47.357 96.01l30.371 17.682c3.198 6.573 7.221 12.839 11.984 18.592 17.586 21.241 43.945 33.423 72.317 33.423h4.582c7.555 4.134 16.402 6.5 25.842 6.5 9.442 0 18.289-2.366 25.844-6.5h4.579c12.67 0 24.979-2.426 36.586-7.21 3.83-1.579 5.655-5.963 4.076-9.792-1.579-3.83-5.962-5.653-9.792-4.076-5.833 2.405-11.884 4.086-18.084 5.065 2.753-4.301 4.763-9.065 5.853-14.161 8.652-4.572 15.464-12.292 18.942-22.123 2.232-6.308 2.846-12.804 1.986-19.028 17.856-9.542 29.441-26.58 36.427-40.666 1.977 11.605 3.103 25.855.263 38.151-2.894 12.116-9.391 24.758-19.087 34.885-2.865 2.992-2.762 7.739.23 10.604 1.454 1.392 3.321 2.083 5.186 2.083 1.974 0 3.945-.775 5.418-2.313 5.192-5.197 12.717-15.657 16.44-23.728l30.229-17.6c43.017-25.042 60.025-78.147 39.562-123.524zm-275.845 150.446c-7.592-9.17-12.95-19.838-15.494-30.85-2.841-12.297-1.714-26.545.262-38.151 6.987 14.087 18.571 31.124 36.428 40.666-.86 6.223-.246 12.719 1.986 19.027 3.478 9.83 10.29 17.551 18.943 22.123 1.093 5.104 3.107 9.875 5.868 14.182-18.895-2.956-35.933-12.43-47.993-26.997zm91.187 34.489c-13.793 0-25.759-6.865-31.457-17.065 4.127.051 58.801.046 62.916 0-5.698 10.201-17.664 17.065-31.459 17.065zm53.863-48.8c-2.867 8.102-10.6 16.76-23.708 16.76h-60.312c-13.107 0-20.841-8.658-23.708-16.76s-2.299-19.697 7.892-27.94l30.84-24.946c8.768-7.092 21.495-7.092 30.263 0l30.84 24.946c10.192 8.243 10.76 19.838 7.893 27.94z"/><path d="m276.063 418.971c-4.142 0-7.5 3.358-7.5 7.5v15.45c0 4.142 3.358 7.5 7.5 7.5s7.5-3.358 7.5-7.5v-15.45c0-4.142-3.358-7.5-7.5-7.5z"/><path d="m234.864 418.971c-4.142 0-7.5 3.358-7.5 7.5v15.45c0 4.142 3.358 7.5 7.5 7.5s7.5-3.358 7.5-7.5v-15.45c0-4.142-3.358-7.5-7.5-7.5z"/><path d="m204.926 362.402c2.605 3.221 7.328 3.719 10.548 1.114 23.47-18.984 57.539-18.984 81.009 0 1.388 1.123 3.056 1.669 4.712 1.669 2.186 0 4.354-.952 5.835-2.784 2.605-3.221 2.106-7.943-1.114-10.548-14.086-11.394-31.821-17.669-49.938-17.669s-35.852 6.275-49.938 17.669c-3.22 2.606-3.719 7.329-1.114 10.549z"/><path d="m225.622 320.287c17.59-9.485 43.123-9.485 60.713 0 1.132.61 2.351.9 3.553.9 2.668 0 5.252-1.428 6.608-3.942 1.966-3.646.604-8.195-3.042-10.161-22.064-11.898-52.887-11.898-74.951 0-3.646 1.966-5.008 6.516-3.042 10.161 1.966 3.647 6.517 5.006 10.161 3.042z"/><path d="m288.508 200.819c1.379 1.097 3.026 1.629 4.661 1.629 2.208 0 4.396-.971 5.876-2.834 11.614-14.614 24.746-22.024 39.032-22.024 10.035 0 17.572 2.434 22.401 7.234 2.938 2.92 7.687 2.906 10.606-.032 2.92-2.938 2.906-7.687-.032-10.606-7.741-7.694-18.836-11.596-32.976-11.596-18.821 0-36.379 9.576-50.775 27.692-2.575 3.242-2.036 7.96 1.207 10.537z"/><path d="m173.88 162.589c-14.14 0-25.235 3.901-32.977 11.596-2.938 2.92-2.952 7.669-.032 10.606 2.92 2.938 7.669 2.953 10.606.032 4.83-4.801 12.367-7.235 22.402-7.235 14.286 0 27.418 7.41 39.033 22.024 1.481 1.863 3.668 2.834 5.876 2.834 1.635 0 3.282-.533 4.662-1.629 3.243-2.577 3.782-7.295 1.205-10.538-14.397-18.114-31.954-27.69-50.775-27.69z"/><path d="m181.979 241v-12c0-4.142-3.358-7.5-7.5-7.5s-7.5 3.358-7.5 7.5v12c0 4.142 3.358 7.5 7.5 7.5s7.5-3.358 7.5-7.5z"/><path d="m337.479 248.5c4.142 0 7.5-3.358 7.5-7.5v-12c0-4.142-3.358-7.5-7.5-7.5s-7.5 3.358-7.5 7.5v12c0 4.142 3.358 7.5 7.5 7.5z"/></g></g></svg>