<svg enable-background="new 0 0 32 32" viewBox="0 0 32 32" xmlns="http://www.w3.org/2000/svg"><g id="Grid" display="none"/><g id="coin"/><g id="bomb"><path d="m17.241 12.366c.04.017.082.031.126.043.5.131 1.011-.167 1.144-.666.406-1.541 1.665-2.925 3.206-3.525.482-.188.72-.73.533-1.211-.188-.482-.731-.72-1.211-.533-2.113.823-3.775 2.659-4.337 4.793-.122.455.116.92.539 1.099z" fill="#ffeab7"/><path d="m20.237 15.811c.225-.453.567-1.268.666-2.319.036-.382.034-.729.011-1.031-.04-.537-.304-1.027-.712-1.379-1.193-1.029-2.702-1.594-4.278-1.601-.539-.002-1.06.194-1.442.573-.216.214-.445.473-.669.786-.615.857-.892 1.697-1.02 2.186z" fill="#3a3a3a"/><path d="m20.901 13.494c-.096 1.05-.436 1.865-.663 2.313l-1.686-.628c.254-.518.62-1.403.723-2.531.042-.432.037-.813.014-1.154-.041-.546-.285-1.035-.671-1.421.567.252 1.099.593 1.584 1.004.405.356.678.844.709 1.38.03.302.024.654-.01 1.037z" fill="#333"/><circle cx="13.95" cy="21.273" fill="#3a3a3a" r="8.731"/><path d="m22.125 24.337c-1.692 4.514-6.716 6.802-11.239 5.111-1.32-.496-2.445-1.274-3.333-2.236.219.108.447.197.676.286 4.524 1.701 9.567-.597 11.259-5.121 1.196-3.185.417-6.625-1.727-8.966 4.014 1.945 5.958 6.66 4.364 10.926z" fill="#333"/><path d="m13.952 13.955c-1.481 0-2.916.449-4.147 1.297-.193.133-.242.398-.109.591.083.12.215.184.351.184.083 0 .167-.024.241-.075 1.089-.751 2.356-1.148 3.665-1.148.235 0 .425-.19.425-.425s-.192-.424-.426-.424z" fill="#515151"/><path d="m8.392 16.522-.095.113c-.151.18-.127.448.053.599.08.067.176.099.273.099.121 0 .242-.052.326-.152l.087-.103c.153-.178.134-.446-.044-.6-.179-.153-.446-.134-.6.044z" fill="#515151"/><path d="m26.642 6.685-1.416.479c-.973.329-1.759 1.06-2.158 2.007l-.58 1.378c-.076.18-.334.17-.396-.014l-.479-1.416c-.329-.973-1.06-1.759-2.007-2.158l-1.378-.58c-.18-.076-.17-.334.014-.396l1.416-.479c.973-.329 1.759-1.06 2.158-2.007l.58-1.378c.076-.18.334-.17.396.014l.479 1.416c.329.973 1.06 1.759 2.007 2.158l1.378.58c.18.076.171.334-.014.396z" fill="#ffd731"/><path d="m26.641 6.686-1.415.482c-.973.326-1.762 1.053-2.158 2.007l-.582 1.376c-.07.174-.331.169-.392-.018l-.482-1.415c-.025-.079-.049-.147-.083-.216l.379-.902c.396-.944 1.185-1.681 2.158-2.007l1.051-.361c.052.027.113.054.165.081l1.376.582c.175.069.169.33-.017.391z" fill="#ffc933"/><path d="m26.822 5.898-1.378-.581c-.834-.352-1.479-1.045-1.769-1.903l-.479-1.416c-.085-.253-.313-.422-.58-.432-.25-.007-.506.143-.61.389l-.581 1.377c-.352.834-1.045 1.479-1.903 1.77l-1.416.479c-.253.085-.422.313-.432.58s.143.506.389.61l.929.391c-.725.554-1.341 1.235-1.823 2.007-.408-.076-.825-.116-1.245-.119-.668 0-1.287.25-1.733.697-.258.247-.502.53-.721.839-.436.603-.699 1.184-.86 1.632-3.185.477-6.028 2.62-7.234 5.844-.857 2.291-.771 4.778.243 7.003 1.014 2.226 2.833 3.924 5.124 4.781 1.045.391 2.13.586 3.213.586 1.292 0 2.58-.277 3.791-.829 2.226-1.014 3.924-2.833 4.781-5.124s.771-4.778-.243-7.003c-.361-.794-.83-1.517-1.381-2.162.211-.582.363-1.177.424-1.776.045-.437.031-.807.011-1.116-.048-.64-.353-1.23-.855-1.659-.231-.2-.486-.366-.739-.533.377-.483.839-.901 1.354-1.222.036.082.084.158.113.244l.479 1.416c.085.253.313.423.581.433h.024c.257 0 .485-.151.586-.39l.581-1.378c.352-.834 1.045-1.479 1.902-1.769l1.416-.479c.253-.086.423-.313.433-.581.007-.263-.146-.503-.392-.606zm-5.092 18.285c-.778 2.078-2.318 3.729-4.337 4.648-2.02.919-4.276.998-6.354.22s-3.729-2.318-4.648-4.337c-.919-2.02-.998-4.276-.22-6.354 1.248-3.334 4.422-5.396 7.789-5.396.965 0 1.946.169 2.902.527 2.078.778 3.729 2.318 4.648 4.337.919 2.021.997 4.278.22 6.355zm-1.241-11.699c.018.269.03.595-.008.97-.039.39-.129.777-.242 1.161-.877-.828-1.917-1.482-3.08-1.917-1.185-.444-2.404-.625-3.595-.573.141-.317.329-.673.596-1.042.19-.268.398-.51.624-.726.294-.293.698-.455 1.137-.455 1.471.009 2.893.544 4.006 1.508.332.282.531.666.562 1.074zm-1.49-2.674c-.316-.157-.638-.293-.973-.4.488-.718 1.111-1.338 1.838-1.823.304.188.57.422.793.697-.642.397-1.203.914-1.658 1.526zm6.091-3.048c-1.088.368-1.967 1.186-2.413 2.244l-.362.86-.299-.884c-.368-1.088-1.187-1.967-2.245-2.413l-.86-.362.884-.299c1.088-.368 1.968-1.187 2.414-2.245l.362-.86.299.884c.368 1.088 1.186 1.968 2.245 2.414l.86.362zm1.416-.479c-.001 0 0 0 0 0z"/></g><g id="gem"/><g id="ufo"/><g id="medal"/><g id="viking_helmet"/><g id="sword"/><g id="rocket"/><g id="torch"/><g id="spear"/><g id="money_bag"/><g id="crown"/><g id="heart"/><g id="skull"/><g id="star"/><g id="shield"/><g id="crystal"/><g id="gift"/><g id="map"/><g id="poison"/><g id="axe"/><g id="fried_chicken"/><g id="witch_hat"/><g id="fire"/><g id="lightning"/></svg>