<svg enable-background="new 0 0 512 512" height="512" viewBox="0 0 512 512" width="512" xmlns="http://www.w3.org/2000/svg"><g id="_x34_0_Bonfire"><g><g><path d="m87.306 289.717 342.639 123.233-7.861 95.764-350.748-126.15c-4.641-1.669-8.585-4.957-10.819-9.353-11.08-21.799-12.653-45.962 2.571-74.302 4.64-8.638 14.991-12.511 24.218-9.192z" fill="#a36941"/><ellipse cx="423.792" cy="460.705" fill="#b37f59" rx="47.974" ry="36.543" transform="matrix(.082 -.997 .997 .082 -70.043 845.382)"/><path d="m408.135 244.96-322.094 169.834 21.146 93.73 329.716-173.854c4.363-2.3 7.809-6.106 9.408-10.771 7.93-23.132 6.116-47.278-12.913-73.216-5.8-7.906-16.589-10.297-25.263-5.723z" fill="#b37f59"/><ellipse cx="98.797" cy="461.224" fill="#a36941" rx="36.543" ry="47.974" transform="matrix(.976 -.22 .22 .976 -99.083 33.051)"/><path d="m253.065 391.13c-85.363-2.071-116.904-42.365-124.344-102.872-3.231-26.278-1.294-52.943 4.575-78.76 8.797-38.701 22.033-74.452 42.775-105.213 2.027-3.006 6.734-1.235 6.376 2.372-2.136 21.525-.746 38.627 5.246 49.957 2.777 5.252 10.474 4.756 12.615-.786 6.025-15.594 17.085-44.22 23.045-59.645 3.081-7.974 5.414-16.237 6.617-24.7 2.682-18.875 2.347-39.235-6.072-63.573-1.014-2.93 2.012-5.677 4.79-4.3 33.143 16.427 55.759 46.112 74.859 80.224 9.576 18.824 12.051 50.835 12.86 85.937.147 6.351 7.961 9.203 12.197 4.468 5.62-6.283 10.169-15.357 12.081-31.306.391-3.262 4.752-4.132 6.458-1.325 34.112 56.131 39.935 98.262 37.598 136.356-1.827 86.391-52.934 115.766-131.676 113.166z" fill="#f8664f"/><path d="m384.736 277.969c-.391 18.681-3.101 34.705-7.869 48.306.182-2.892.313-5.836.365-8.859 2.345-38.093-3.491-80.224-37.598-136.346-1.694-2.814-6.071-1.928-6.462 1.329-1.902 15.946-6.462 25.013-12.064 31.292-4.247 4.742-12.064 1.902-12.194-4.455-.834-35.096-3.309-67.118-12.871-85.93-17.066-30.484-36.946-57.425-64.617-74.544-.26-12.506-2.371-25.925-7.53-40.854-1.016-2.918 2.006-5.68 4.794-4.299 33.142 16.441 55.758 46.118 74.856 80.224 9.562 18.838 12.037 50.834 12.871 85.93.13 6.357 7.947 9.223 12.194 4.481 5.602-6.279 10.161-15.372 12.064-31.318.391-3.257 4.768-4.117 6.462-1.329 34.108 56.149 39.944 98.28 37.599 136.372z" opacity=".1"/><g><path d="m157.166 326.329c-5.714-11.644-9.287-26.237-10.811-38.798-.216-1.786 1.056-3.41 2.842-3.626 1.763-.204 3.41 1.056 3.626 2.842 1.432 11.849 4.823 25.765 10.19 36.711.794 1.616.125 3.567-1.488 4.359-1.634.8-3.576.109-4.359-1.488z" fill="#fff"/></g><g><path d="m148.179 274.008c-1.73 0-3.17-1.361-3.252-3.109-.122-2.71-.183-5.57-.183-8.745 0-1.799 1.458-3.257 3.257-3.257s3.257 1.458 3.257 3.257c0 3.076.059 5.839.178 8.45.084 1.849-1.391 3.404-3.257 3.404z" fill="#fff"/></g><path d="m257.872 391.202c46.344-1.124 63.468-23 67.507-55.85 1.754-14.266.702-28.743-2.484-42.759-4.776-21.011-11.962-40.42-23.223-57.12-1.1-1.632-3.656-.671-3.461 1.288 1.16 11.686.405 20.971-2.848 27.122-1.508 2.851-5.686 2.582-6.849-.426-3.271-8.466-9.275-24.007-12.511-32.381-1.673-4.329-2.939-8.815-3.592-13.41-1.456-10.247-1.274-21.301 3.296-34.514.55-1.591-1.092-3.082-2.601-2.334-17.994 8.918-30.272 25.034-40.641 43.554-5.199 10.22-6.542 27.599-6.982 46.656-.08 3.448-4.322 4.996-6.622 2.426-3.051-3.411-5.521-8.338-6.559-16.996-.212-1.771-2.58-2.243-3.506-.719-18.519 30.474-21.681 53.347-20.412 74.028.993 46.899 28.739 62.846 71.488 61.435z" fill="#f9e109"/></g><g><path d="m431.402 410.175c-1.04-.616 5.423 1.915-77.684-28.05l84.519-44.571c5.247-2.748 9.147-7.221 10.977-12.587 9.129-26.584 4.761-51.51-13.353-76.201-6.702-9.137-19.353-12.007-29.419-6.687l-18.466 9.735c-1.639-28.937-10.091-65.614-38.219-111.897-1.758-2.897-5.3-4.057-8.586-2.675-2.24.942-3.631 3.2-3.927 5.612-1.614 13.164-5.188 22.45-11.237 29.211-1.585 1.771-3.537 1.239-4.094 1.031-.555-.204-2.364-1.051-2.417-3.404-.735-31.788-2.88-67.023-13.277-87.45-23.379-41.756-46.822-66.882-75.987-81.419-2.013-1.003-4.452-1.121-6.416-.025-2.987 1.668-4.229 5.097-3.168 8.173 7.229 20.898 9.056 40.034 5.926 62.051-1.094 7.707-3.257 15.776-6.43 23.984l-23.045 59.647c-1.137 2.944-5.23 3.216-6.704.426-5.359-10.144-7.013-26.199-4.915-47.72.273-2.802-.971-5.679-3.452-7.01-3.188-1.71-6.881-.768-8.826 2.111-19.373 28.727-33.52 63.502-43.253 106.312-6.224 27.386-7.783 54.263-4.631 79.88.509 4.139 1.137 8.139 1.869 12.024l-38.936-14.016c-10.722-3.873-22.847.72-28.208 10.694-14.488 26.992-15.343 52.286-2.613 77.328 2.572 5.051 7.061 8.936 12.641 10.941l38.13 13.709c-26.808 14.223-23.377 12.177-24.291 12.93-19.258 6.747-29.98 31.681-24.109 57.719 5.204 23.05 24.057 44.447 46.828 41.764 2.113.256 11.63-2.059 19.026-9.352l109.101-57.535 167.808 60.355c9.543 7.103 19.553 6.8 19.291 6.745 18.996 0 39.03-18.732 41.434-48.001 2.182-26.582-11.895-49.766-31.887-53.782zm-12.458 94.942c-19.932-2.469-30.214-26.221-28.495-47.138 1.786-21.761 16.322-42.66 35.787-41.886zm-9.462-257.278c7.239-3.832 16.32-1.771 21.126 4.778 16.758 22.844 20.829 45.818 12.44 70.239-1.29 3.786-4.071 6.957-7.842 8.931l-301.332 158.91c5.693-11.934 6.431-25.577 3.576-38.234-4.994-22.13-20.467-38.389-37.459-41.44l71.395-37.641c22.907 15.033 56.398 21.159 81.186 21.159 37.14 0 75.203-2.844 103.386-29.541 20.335-19.261 31.057-48.523 31.867-86.839.364-5.932.57-12.301.429-19.132zm-300.016 256.707-19.66-87.102c17.597-3.222 35.966 12.855 41.288 36.455 4.586 20.322-2.153 45.392-21.628 50.647zm95.737-131.179c-10.168-9.633-15.315-23.92-15.737-43.805-1.048-17.058.338-38.525 18.017-68.901 1.184 6.247 3.317 10.999 6.596 14.752 1.362 1.559 3.3 2.629 5.37 2.596 4.085-.064 7.034-3.177 7.119-6.911.384-16.692 1.473-35.121 6.567-45.141 11.391-20.34 22.691-33.04 36.281-40.66-3.272 10.824-4.033 21.343-2.402 32.823.649 4.56 1.919 9.313 3.779 14.124l12.511 32.381c1.008 2.605 3.366 4.326 6.158 4.491 2.827.206 5.313-1.259 6.61-3.715 2.954-5.588 4.147-13.348 3.616-23.62 8.705 14.19 15.221 31.111 19.862 51.533 3.249 14.292 4.066 28.302 2.427 41.64-4.827 39.235-29.791 54.208-68.977 52.919-.008 0-.018-.003-.028-.003-17.239-.418-34.469-1.908-47.769-14.503zm-68.903-163.15c12.945-56.937 36.634-98.339 41.782-103.446.344-.341.911-.031.865.451-2.182 22.883-.317 39.543 5.697 50.912 4.054 7.669 15.367 7.058 18.531-1.135l23.045-59.647c3.351-8.666 5.638-17.218 6.801-25.414 3.242-22.783 1.265-43.467-6.216-65.094-.023-.066-.059-.165.267-.318 28.037 13.898 50.693 38.23 73.4 78.781 9.707 19.079 11.776 53.226 12.5 84.19.08 3.397 1.626 6.695 4.457 8.574 4.451 2.955 10.055 2.112 13.431-1.665 7.028-7.855 11.124-18.368 12.905-33.164l.422.056c29.107 47.895 36.698 84.211 37.527 113.776-.001.158-.008.308.014.466.184 7.156-.021 13.922-.415 20.354-.776 36.643-10.814 64.357-29.836 82.376-13.048 12.358-30.29 20.511-52.141 24.616 16.704-9.288 26.188-25.434 29.104-49.14 1.733-14.086.878-28.849-2.539-43.879-5.289-23.271-12.975-42.22-23.497-57.919-1.326-1.978-3.821-3.052-6.079-2.296-2.347.785-3.768 2.982-3.527 5.426 1.142 11.496.305 20.002-2.483 25.276-.041.076-.188.252-.468.26-.344-.02-.435-.26-.466-.336l-12.511-32.381c-1.682-4.354-2.827-8.623-3.407-12.694-1.662-11.71-.69-21.885 3.153-32.994.853-2.472-.244-5.245-2.796-6.425-1.427-.659-3.119-.495-4.525.207-16.091 8.035-29.003 21.858-41.904 44.898-5.73 11.267-6.913 29.755-7.336 48.057-.003.109-.008.364-.338.486-.349.125-.529-.079-.598-.155-1.93-2.162-4.619-6.061-5.725-14.987-.184-1.485-.865-2.936-2.102-3.777-2.642-1.798-5.96-.924-7.45 1.525-20.559 33.836-21.959 58.347-20.885 75.789.45 21.287 6.427 37.525 17.768 48.266 1.188 1.125 2.469 2.153 3.769 3.161-46.122-13.151-66.853-45.736-72.713-93.397-3.058-24.868-1.537-50.992 4.519-77.64zm-64.026 169.274c-4.013-1.44-7.224-4.198-9.038-7.763-11.692-22.999-10.86-46.319 2.544-71.293 3.842-7.147 12.549-10.432 20.261-7.649l42.733 15.382c6.296 26.643 18.387 46.834 36.697 60.969l-49.463 26.077zm-6.117 89.056c-4.871-21.598 2.84-42.184 17.423-49.093l19.402 85.96c-18.347.03-32.661-18.399-36.825-36.867zm279.76-82.309 69.394 24.961c-16.392 5.397-29.497 23.627-31.355 46.246-1.053 12.84 1.536 26.29 8.865 37.346l-150.264-54.046zm110.878 77.187c-1.809 22.061-15.353 39.368-31.311 41.624l7.199-87.808c15.413 4.803 25.925 24.114 24.112 46.184z"/><path d="m234.536 461.17-7.974 4.193c-1.59.837-2.203 2.807-1.366 4.399.842 1.599 2.819 2.198 4.399 1.366l7.974-4.193c1.59-.837 2.203-2.807 1.366-4.399-.837-1.59-2.811-2.203-4.399-1.366z"/><path d="m211.422 473.34-43.487 22.928c-1.59.837-2.201 2.809-1.361 4.399.845 1.606 2.832 2.194 4.399 1.361l43.487-22.928c1.59-.837 2.201-2.809 1.361-4.399-.837-1.59-2.809-2.205-4.399-1.361z"/><path d="m308.493 57.922c.96 1.525 2.977 1.978 4.491 1.02 1.522-.957 1.98-2.967 1.02-4.491-10.107-16.066-20.376-29.32-31.388-40.518-1.262-1.277-3.32-1.298-4.608-.038-1.282 1.262-1.298 3.326-.038 4.608 10.681 10.858 20.665 23.753 30.523 39.419z"/><path d="m321.095 80.26c.703 1.654 2.615 2.424 4.272 1.723 1.656-.705 2.427-2.618 1.723-4.272-2.227-5.231-3.145-6.337-4.191-8.336-.875-1.57-2.862-2.132-4.43-1.259-1.572.875-2.135 2.86-1.259 4.43.865 1.654 1.854 2.94 3.885 7.714z"/></g></g></g></svg>