<svg id="Capa_1" enable-background="new 0 0 511.998 511.998" height="512" viewBox="0 0 511.998 511.998" width="512" xmlns="http://www.w3.org/2000/svg"><g><path d="m235.81 232.704h66.783l9.509 77.656h-84.058z" fill="#725539"/><path d="m302.593 341.422h186.374v31.062h-186.374z" fill="#725539"/><path d="m302.593 341.422h30v31.062h-30z" fill="#6b4c32"/><path d="m475.655 341.422h-159.749l-13.313-108.718h186.374z" fill="#ed8945"/><path d="m302.593 232.704 13.313 108.718h20l-13.313-108.718z" fill="#d76f42"/><path d="m488.967 201.642h-186.374v-15.533c0-17.154 13.906-31.06 31.06-31.06h124.254c17.154 0 31.06 13.906 31.06 31.06z" fill="#ffd527"/><path d="m363.653 155.049h-30c-17.154 0-31.06 13.906-31.06 31.06v15.533h30v-15.533c0-17.154 13.907-31.06 31.06-31.06z" fill="#ffbd29"/><path d="m23.033 341.422h217.436v31.062h-217.436z" fill="#725539"/><path d="m23.033 341.422h30v31.062h-30z" fill="#6b4c32"/><path d="m224.938 341.422h-186.374l-15.531-155.311h217.436z" fill="#ed8945"/><path d="m23.033 186.111 15.531 155.311h20l-15.531-155.311z" fill="#d76f42"/><path d="m240.469 155.049h-217.436v-15.533c0-17.154 13.906-31.06 31.06-31.06h155.316c17.154 0 31.06 13.906 31.06 31.06z" fill="#ffd527"/><path d="m84.093 108.455h-30c-17.154 0-31.06 13.906-31.06 31.06v15.533h30v-15.533c0-17.154 13.906-31.06 31.06-31.06z" fill="#ffbd29"/><path d="m256 155.049h-248.498v31.062h62.124v31.062h31.063v-31.062h62.124v31.062h31.062v-31.062h62.125z" fill="#725539"/><g><g><g><path d="m69.626 186.111h15v31.062h-15z" fill="#6b4c32"/></g><g><path d="m7.502 155.049h15v31.062h-15z" fill="#6b4c32"/></g><g><path d="m162.813 186.111h15v31.062h-15z" fill="#6b4c32"/></g></g></g><path d="m504.498 201.642h-217.436v31.062h46.594v31.063h31.062v-31.063h62.124v31.063h31.063v-31.063h46.593z" fill="#725539"/><g><g><g><path d="m333.656 232.704h15v31.062h-15z" fill="#6b4c32"/></g><g><path d="m287.062 201.642h15v31.062h-15z" fill="#6b4c32"/></g><g><path d="m426.842 232.704h15v31.062h-15z" fill="#6b4c32"/></g></g></g><path d="m504.498 194.142h-8.031c1.919-23.288-13.042-46.593-38.56-46.593h-124.254c-25.132 0-40.383 23.394-38.56 46.593h-8.031c-4.143 0-7.5 3.357-7.5 7.5v23.563h-35.464l3.159-31.593h8.743c4.143 0 7.5-3.357 7.5-7.5v-31.061c0-4.143-3.357-7.5-7.5-7.5h-8.03c1.921-23.29-13.039-46.6-38.56-46.6h-155.32c-25.135 0-40.385 23.399-38.56 46.6h-8.03c-4.142 0-7.5 3.357-7.5 7.5v31.061c0 4.143 3.358 7.5 7.5 7.5h8.743l5.545 55.426c.387 3.868 3.647 6.755 7.454 6.755.25 0 .502-.013.755-.038 4.122-.412 7.128-4.088 6.716-8.209l-5.396-53.934h30.813v23.56c0 4.143 3.358 7.5 7.5 7.5h8.028v109.25h-32.31l-5.385-53.846c-.412-4.122-4.093-7.132-8.209-6.717-4.122.412-7.129 4.088-6.717 8.209l5.236 52.354h-7.239c-4.142 0-7.5 3.357-7.5 7.5v31.063c0 4.143 3.358 7.5 7.5 7.5h54.625v23.563c0 4.143 3.358 7.5 7.5 7.5s7.5-3.357 7.5-7.5v-23.563h78.187v23.563c0 4.143 3.358 7.5 7.5 7.5s7.5-3.357 7.5-7.5v-23.563h54.625c4.142 0 7.5-3.357 7.5-7.5v-31.063c0-4.143-3.358-7.5-7.5-7.5h-7.241l1.606-16.062h70.634l1.968 16.061h-4.845c-4.143 0-7.5 3.357-7.5 7.5v31.061c0 4.143 3.357 7.5 7.5 7.5h39.097v23.565c0 4.143 3.357 7.5 7.5 7.5s7.5-3.357 7.5-7.5v-23.565h22.754c4.143 0 7.5-3.357 7.5-7.5s-3.357-7.5-7.5-7.5h-22.754v-16.061h78.187v16.061h-22.757c-4.143 0-7.5 3.357-7.5 7.5s3.357 7.5 7.5 7.5h22.753v23.565c0 4.143 3.357 7.5 7.5 7.5s7.5-3.357 7.5-7.5v-23.565h39.097c4.143 0 7.5-3.357 7.5-7.5v-31.061c0-4.143-3.357-7.5-7.5-7.5h-4.844l11.481-93.717h8.891c4.143 0 7.5-3.357 7.5-7.5v-31.063c0-4.142-3.357-7.499-7.5-7.499zm-170.845-31.593h124.254c17.813 0 25.001 16.789 23.56 31.593h-171.373c0-19.641 6.073-31.593 23.559-31.593zm-115.5 171.372h-32.309v-109.25h8.036c4.142 0 7.5-3.357 7.5-7.5v-23.56h30.803zm-141.023-147.81c0-4.143-3.358-7.5-7.5-7.5h-54.63v-16.061h100.41c4.142 0 7.5-3.357 7.5-7.5s-3.358-7.5-7.5-7.5h-84.88c-1.443-14.806 5.744-31.6 23.56-31.6h155.32c17.816 0 25.003 16.794 23.56 31.6h-84.88c-4.142 0-7.5 3.357-7.5 7.5s3.358 7.5 7.5 7.5h100.41v16.061h-54.62c-4.142 0-7.5 3.357-7.5 7.5v23.56h-16.07v-23.56c0-4.143-3.358-7.5-7.5-7.5h-62.12c-4.142 0-7.5 3.357-7.5 7.5v23.56h-16.06zm15.528 38.56h8.032c4.142 0 7.5-3.357 7.5-7.5v-23.56h47.12v23.56c0 4.143 3.358 7.5 7.5 7.5h8.034v109.25h-78.186zm-62.125 140.313v-16.063h47.125v16.063zm62.125 0v-16.063h78.187v16.063zm140.311 0h-47.125v-16.063h47.125zm3.364-62.124 6.265-62.656h53.354l7.676 62.656zm74.732-62.656h15.09v23.563c0 4.143 3.357 7.5 7.5 7.5h8.031v62.654h-19.141zm30.622 124.777h-31.597v-16.061h31.597zm15-31.06v-62.654h8.031c4.143 0 7.5-3.357 7.5-7.5v-23.563h47.125v23.563c0 4.143 3.357 7.5 7.5 7.5h8.03v62.654zm124.783 31.06h-31.597v-16.061h31.597zm-12.457-31.06h-19.14v-62.654h8.031c4.143 0 7.5-3.357 7.5-7.5v-23.563h15.09zm27.985-108.717-39.098-.003c-4.143 0-7.5 3.357-7.5 7.5 0 .026.004.051.004.077v23.488h-16.062v-23.563c-.43-4.572-2.931-7.073-7.503-7.503h-62.12c-4.751.646-7.252 3.147-7.502 7.503v23.563h-16.063v-23.469c0-.032.005-.064.005-.097 0-4.143-3.357-7.5-7.5-7.5l-39.098.003v-16.063h202.436v16.064z"/></g></svg>