<svg id="Layer_1" viewBox="0 0 1000 1000" xmlns="http://www.w3.org/2000/svg" data-name="Layer 1"><path d="m116 560.5h768v82.09h-768z" fill="#ffcc80"/><path d="m231.85 674.59h29.77v137.95h-29.77z" fill="#ffe0b2"/><path d="m738.38 674.59h29.77v137.95h-29.77z" fill="#ffe0b2"/><path d="m139.35 477.03h91.39v51.47h-91.39z" fill="#ef5350"/><path d="m139.35 279.47h91.39v165.56h-91.39z" fill="#e53935"/><path d="m230.74 211.1v36.37h-91.39v-36.37a12.47 12.47 0 0 1 12.46-12.46h66.47a12.47 12.47 0 0 1 12.46 12.46z" fill="#ef5350"/><path d="m308.03 279.47h91.38v165.56h-91.38z" fill="#689f38"/><path d="m308.03 477.03h91.38v51.47h-91.38z" fill="#7cb342"/><path d="m399.41 211.1v36.37h-91.41v-36.37a12.47 12.47 0 0 1 12.46-12.46h66.54a12.47 12.47 0 0 1 12.41 12.46z" fill="#7cb342"/><path d="m476.7 477.03h91.39v51.47h-91.39z" fill="#fdd835"/><path d="m476.7 279.47h91.39v165.56h-91.39z" fill="#fbc02d"/><path d="m568.09 211.1v36.37h-91.39v-36.37a12.47 12.47 0 0 1 12.46-12.46h66.47a12.47 12.47 0 0 1 12.46 12.46z" fill="#fdd835"/><path d="m699.37 228.91-84.63 34.47-13.74-33.68a12.47 12.47 0 0 1 6.84-16.24l61.55-25.08a12.46 12.46 0 0 1 16.24 6.84z" fill="#039be5"/><path d="m773.91 411.86-84.62 34.48-62.47-153.32 84.63-34.48z" fill="#0277bd"/><path d="m707.69 456.84h91.38v51.46h-91.38z" fill="#039be5" transform="matrix(.926 -.377 .377 .926 -126.39 319.93)"/><g fill="#fff" opacity=".5"><path d="m106 570.5h768v82.09h-768z"/><path d="m221.85 684.59h29.77v137.95h-29.77z"/><path d="m728.38 684.59h29.77v137.95h-29.77z"/><path d="m129.35 487.03h91.39v51.47h-91.39z"/><path d="m129.35 289.47h91.39v165.56h-91.39z"/><path d="m220.74 221.1v36.37h-91.39v-36.37a12.47 12.47 0 0 1 12.46-12.46h66.47a12.47 12.47 0 0 1 12.46 12.46z"/><path d="m298.03 289.47h91.38v165.56h-91.38z"/><path d="m298.03 487.03h91.38v51.47h-91.38z"/><path d="m389.41 221.1v36.37h-91.41v-36.37a12.47 12.47 0 0 1 12.46-12.46h66.54a12.47 12.47 0 0 1 12.41 12.46z"/><path d="m466.7 487.03h91.39v51.47h-91.39z"/><path d="m466.7 289.47h91.39v165.56h-91.39z"/><path d="m558.09 221.1v36.37h-91.39v-36.37a12.47 12.47 0 0 1 12.46-12.46h66.47a12.47 12.47 0 0 1 12.46 12.46z"/><path d="m689.37 238.91-84.63 34.47-13.74-33.68a12.47 12.47 0 0 1 6.84-16.24l61.55-25.08a12.46 12.46 0 0 1 16.24 6.84z"/><path d="m763.91 421.86-84.62 34.48-62.47-153.32 84.63-34.48z"/><path d="m697.69 466.84h91.38v51.46h-91.38z" transform="matrix(.926 -.377 .377 .926 -130.91 316.89)"/></g><g fill="#413b32"><path d="m900 528.5h-800a16 16 0 0 0 -16 16v114.11.95s0 .31 0 .47a3.91 3.91 0 0 0 .05.48c0 .22 0 .44.09.65s.1.58.16.86.08.36.13.55l.15.54c0 .18.11.36.17.54s.12.36.19.53a1.75 1.75 0 0 0 .12.32c.1.25.21.5.32.75s.21.44.33.66a.47.47 0 0 0 0 .1c.12.24.25.47.39.71s.36.59.56.88l.39.56a16 16 0 0 0 12.95 6.43h800a16 16 0 0 0 12.83-6.43l.39-.56c.2-.29.38-.58.56-.88s.27-.47.39-.71a.47.47 0 0 0 .05-.1q.18-.33.33-.66c.11-.25.22-.5.32-.75a1.75 1.75 0 0 0 .12-.32c.07-.17.13-.35.19-.53s.12-.36.17-.54l.15-.54c0-.19.09-.37.13-.55s.12-.57.16-.86.07-.43.09-.65a3.91 3.91 0 0 0 0-.48c0-.16 0-.31 0-.47s0-.64 0-.95v-114.11a16 16 0 0 0 -15.88-16zm-784 114.09v-82.09h768v82.09zm581.18-92.06-9-22h-88.09v16a16 16 0 0 1 -16 16h127.91a16 16 0 0 1 -14.82-10z"/><path d="m277.62 642.59h-61.77a16 16 0 0 0 -16 16v169.95a16 16 0 0 0 2.61 8.77l.17.25c.14.21.29.42.45.62l.43.54a13.94 13.94 0 0 0 1 1.14l.28.28.12.11c.22.2.44.4.67.58a.17.17 0 0 0 .08.07 8.34 8.34 0 0 0 .75.58l.46.33a12.23 12.23 0 0 0 1.34.81l.67.34.35.17.36.15.73.29a14.77 14.77 0 0 0 1.6.49l.34.08a13.63 13.63 0 0 0 1.42.26l.5.06c.27 0 .54 0 .82.06h.82 61.77a16 16 0 0 0 16-16v-169.93a16 16 0 0 0 -15.97-16zm-16 169.95h-29.77v-137.95h29.77z"/><path d="m215.87 844.55a16 16 0 0 1 -13.24-7l-115.85-169.95a16 16 0 1 1 26.44-18l115.85 169.93a16 16 0 0 1 -13.2 25z"/><path d="m784.15 642.59h-61.77a16 16 0 0 0 -16 16v169.95a16 16 0 0 0 16 16h61.77.82c.28 0 .55 0 .82-.06l.5-.06a13.63 13.63 0 0 0 1.42-.26l.34-.08a14.77 14.77 0 0 0 1.6-.49l.73-.29.36-.15.35-.17.67-.34a12.23 12.23 0 0 0 1.34-.81l.36-.25.21-.15c.17-.13.33-.25.49-.39a3.05 3.05 0 0 0 .36-.29c.18-.15.35-.3.52-.47l.14-.12.28-.28a13.94 13.94 0 0 0 1-1.14l.43-.54c.16-.2.31-.41.45-.62l.17-.25a16 16 0 0 0 2.61-8.77v-169.97a16 16 0 0 0 -15.97-16zm-16 169.95h-29.77v-137.95h29.77z"/><path d="m784.13 844.55a16 16 0 0 1 -13.2-25l115.85-169.97a16 16 0 0 1 26.44 18l-115.85 170a16 16 0 0 1 -13.24 6.97z"/><path d="m218.28 166.64h-66.47a44.51 44.51 0 0 0 -44.46 44.46v333.4a16 16 0 0 0 16 16h123.39a16 16 0 0 0 16-16v-333.4a44.51 44.51 0 0 0 -44.46-44.46zm-78.93 361.86v-317.4a12.47 12.47 0 0 1 12.46-12.46h66.47a12.47 12.47 0 0 1 12.46 12.46v317.4z"/><path d="m262.74 263.47a16 16 0 0 1 -16 16h-123.39a16 16 0 1 1 0-32h123.39a16 16 0 0 1 16 16z"/><path d="m262.74 461a16 16 0 0 1 -16 16h-123.39a16 16 0 0 1 0-32h123.39a16 16 0 0 1 16 16z"/><path d="m415.41 247.47h-16v281h-91.41v-281h-16a16 16 0 0 0 -16 16v281a16 16 0 0 0 16 16h123.41a16 16 0 0 0 16-16v-281a16 16 0 0 0 -16-16z"/><path d="m431.41 211.1v52.37a16 16 0 0 0 -16-16h-16v-36.37a12.47 12.47 0 0 0 -12.41-12.46h-66.51a12.47 12.47 0 0 0 -12.49 12.46v36.37h-16a16 16 0 0 0 -16 16v-52.37a44.5 44.5 0 0 1 44.46-44.46h66.54a44.5 44.5 0 0 1 44.41 44.46z"/><path d="m431.41 263.47a16 16 0 0 1 -16 16h-123.41a16 16 0 1 1 0-32h123.41a16 16 0 0 1 16 16z"/><path d="m431.41 461a16 16 0 0 1 -16 16h-123.41a16 16 0 0 1 0-32h123.41a16 16 0 0 1 16 16z"/><path d="m592 185.58a44.42 44.42 0 0 0 -36.38-18.94h-66.46a44.51 44.51 0 0 0 -44.46 44.46v333.4a16 16 0 0 0 16 16h123.39a16 16 0 0 0 16-16v-333.4a44.16 44.16 0 0 0 -8.09-25.52zm-115.3 342.92v-317.4a12.47 12.47 0 0 1 12.46-12.46h66.47a12.47 12.47 0 0 1 12.46 12.46v317.4z"/><path d="m600.09 263.47a15.73 15.73 0 0 1 -1.39 6.5 16 16 0 0 1 -12.05 9.3 16.58 16.58 0 0 1 -2.56.2h-123.39a16 16 0 1 1 0-32h123.39a16 16 0 0 1 16 16z"/><path d="m600.09 461a16 16 0 0 1 -16 16h-123.39a16 16 0 0 1 0-32h123.39a16 16 0 0 1 16 16z"/><path d="m841.08 491.9-31.43-77.13-.06-.17c0-.06-.05-.13-.08-.19l-74.51-182.76-19.76-48.5a44.51 44.51 0 0 0 -57.95-24.4l-61.55 25.08c-1.3.53-2.55 1.11-3.77 1.75a44.44 44.44 0 0 0 -20.63 56.2l2.32 5.69 12.95 31.8 4.42 10.83.07.18.05.12 8.9 21.84 65.6 161 22.55 55.26 9 22a16 16 0 0 0 20.8 8.81l75.63-30.81 38.63-15.74a16 16 0 0 0 8.78-20.86zm-120.3 31.74-19.42-47.64-12.07-29.64-62.47-153.36-12.08-29.64-13.74-33.66a12.47 12.47 0 0 1 6.84-16.24l61.55-25.08a12.46 12.46 0 0 1 16.24 6.84l13.72 33.69 12.08 29.63 62.46 153.32 12.11 29.64 19.42 47.66z"/><path d="m726.26 252.5-14.81 6-84.63 34.5-14.82 6a16 16 0 0 1 -20.81-8.66l-.05-.12-.07-.18a16 16 0 0 1 7.63-20.04c.4-.19.8-.38 1.22-.55l.17-.07 14.65-6 84.63-34.47 14.82-6a16 16 0 1 1 12.07 29.63z"/><path d="m800.81 435.46-14.82 6-84.63 34.54-14.82 6a16 16 0 0 1 -12.07-29.64l14.82-6 84.62-34.48 14.82-6a16 16 0 0 1 20.78 8.59c0 .06 0 .13.08.19l.06.17a16 16 0 0 1 -8.84 20.63z"/></g></svg>