<svg clip-rule="evenodd" fill-rule="evenodd" height="1.707in" image-rendering="optimizeQuality" shape-rendering="geometricPrecision" text-rendering="geometricPrecision" viewBox="0 0 1.70666 1.70666" width="1.707in" xmlns="http://www.w3.org/2000/svg"><g id="Layer_x0020_1"><path d="m.915382.859689c-.00467323 0-.00927953-.00012992-.0137953-.00037402h-.185882c-.00451575.00024409-.00911811.00037402-.0137913.00037402-.00446063 0-.00899606-.00012598-.0135787-.00037402h-.39685v.0494173h.931906c.0785157 0 .142413.0639016.142413.142429 0 .0784803-.0639055.142386-.142413.142386h-.931906v.0493425l.931906.00000787c.105748 0 .191787-.0860157.191787-.19178 0-.10576-.0860236-.191803-.191787-.191803h-.294429c-.00458268.00024803-.00911811.00037402-.0135787.00037402zm.519795.846795h-.951898c-.127807 0-.231787-.10398-.231787-.231787 0-.0796535.0403937-.150051.101772-.191791h-.0817795c-.0110394 0-.02-.00897244-.02-.02v-.0893583-.00001575l.00000787-.0005v-.00001575l.00001968-.00049606v-.00001575l.0000315-.00049213v-.00001968l.00004331-.00048819v-.00001575l.00005906-.00048425v-.00001968l.00007087-.00048032v-.00001575l.00007874-.00047638v-.00001968l.00009449-.0004685c.00185039-.00911024.00991732-.0159921.0195945-.0159921l.00053543.00000787c.0562283-.00029134.101878-.0461102.101878-.102406 0-.0564567-.0459409-.102402-.102413-.102402-.0103622 0-.0188937-.00790945-.0198976-.018l-.00004331-.00046457v-.00004331l-.0000315-.00046457v-.00004331l-.00001968-.0004685v-.00004331l-.00000787-.00047244v-.00004331-.089374c0-.0110394.00896063-.02.02-.02h.303583c-.0467441-.0351614-.0878307-.0981299-.108898-.20672-.0642913-.331354.106819-.405008.160803-.419689.0210945-.00573622.0402165-.0085315.0584961-.0085315.0355276 0 .059874.0105591.0813465.019874.00537795.00233071.0104921.00455118.0155079.0064685.00135039-.015563.00373228-.0316142.00751575-.0475157-.00782283.00144882-.0157874.00218504-.0237874.00218504-.0228189 0-.045374-.00607087-.0652323-.0175276-.0402638-.023252-.0653189-.0666102-.0653583-.113154 0-.00716535.00380315-.0137795.0100157-.0173504.0396496-.0228425.0908583-.0229685.130677.00001575.0242717.0140157.0430118.0353386.0540827.0602598.00490157-.00593701.0102559-.0115866.0161102-.0168898.0081811-.00740157.0208465-.00677559.028252.00140157.00741732.00819291.00677953.0208346-.00140157.028252-.0144094.0130512-.0250472.029185-.0328268.0468268-.00030315.00085827-.00065748.00169291-.0010748.00249606-.0100197.0237165-.0150236.0499921-.0171063.0751496.00922835-.00235433.018311-.00629134.0282913-.0106181.0214685-.00930709.0458189-.019874.0813465-.019874.0182638 0 .0374016.00279528.0584961.0085315.0539843.0146811.225094.0883346.160803.419689-.0210669.108587-.0621535.171559-.108898.20672h.181161c.127807 0 .231787.103972.231787.23178 0 .0796575-.0404016.150063-.101783.191811h.0817835c.0110394 0 .02.00897244.02.02v.089374.00001575l-.00000787.0005v.00001575l-.00001968.00049606v.00001575l-.0000315.00049213v.00001968l-.00004331.00048819v.00001575l-.00005906.00048425v.00001968l-.00007087.00048032v.00001575l-.00007874.00047638v.00001968l-.00009449.0004685c-.00185433.00911024-.0099252.0159921-.0195945.0159921l-.00053543-.00000787c-.0562283.00029134-.101878.0461102-.101878.102394 0 .0564724.0459409.102413.102413.102413.0110394 0 .02.00897244.02.02l-.00001575.00072047v.0886969c.00001575.0110118-.00894488.0199724-.0199843.0199724zm-.02-.374205v-.0493583h-.931898c-.105748 0-.191787.0860236-.191787.191787 0 .105764.0860394.191787.191787.191787h.931882v-.0493701h-.931882c-.0785315 0-.142413-.0638976-.142413-.142429 0-.0785118.0638898-.142409.142413-.142409l.931898-.00000787zm-.931898.0400157c-.0564724 0-.102429.0459409-.102429.102402 0 .0564724.0459409.102413.102429.102413h.853024c-.0268465-.0258976-.0435669-.062248-.0435669-.102413 0-.0401614.0167205-.0764961.0435512-.102402h-.853008zm.72089.122402h-.681185c-.0110394 0-.02-.0089685-.02-.02 0-.0110276.00896063-.02.02-.02h.681185c.0110394 0 .02.00897244.02.02 0 .0110315-.00896063.02-.02.02zm-.514512-.675382h.0247795c.0481339-.00276378.0850984-.020374.0855079-.020563.00274409-.00130709.00572835-.00197638.00870472-.00197638.0029685 0 .00595669.00066929.00868898.002.00037402.0001811.0376024.0177283.0853465.0205394h.0251535c.0956181-.0056811.157508-.0777008.184012-.214327.0389685-.200772-.0103898-.340398-.132024-.373465-.017626-.00479134-.0333189-.00712205-.048-.00712205-.0272323 0-.0457874.00805906-.0654331.0165669-.0140472.00608661-.0284843.0123425-.0453307.014937.00051181.0217087.00258268.0404685.0043622.0530512.0341535-.00335827.0639449-.016811.0785551-.0361693.00664961-.00879921.0191811-.010563.0280157-.00391339.0088189.00664961.0105827.0191969.00391339.0280157-.0245669.0325433-.0731181.0527795-.126839.0528858h-.00006693-.00006299l-.00006693.00000394h-.00006299-.00006299-.00006693-.0000315-.0000315l-.00043307-.00000394c-.0536811-.00011811-.102232-.0203425-.126799-.0528701-.00665354-.00880315-.00492126-.0213622.00389764-.0280157.0088189-.00666535.0213622-.00491732.0280157.00389764.0136102.0180079.040378.0309173.0715591.0353268-.00187008-.0143543-.00370866-.0337008-.004-.0556535-.0106063-.00309843-.0203898-.00733858-.0299843-.0115079-.0196378-.00851575-.0381929-.0165669-.0654173-.0165669-.0146811 0-.0303701.00233465-.0479961.00712205-.121638.0330709-.171.172693-.132028.373465.0265394.13674.0884843.208768.184224.214343zm-.319295.334217h.853028c.0564567 0 .102406-.0459409.102406-.102402 0-.0564724-.0459409-.102413-.102406-.102413h-.853028c.0268346.0259016.0435394.0622362.0435394.102402 0 .0401693-.0167047.0765157-.0435394.102413zm.813335-.0823976h-.681197c-.0110394 0-.02-.0089685-.02-.02 0-.0110276.00896063-.02.02-.02h.681197c.0110394 0 .02.00897244.02.02 0 .0110315-.00896063.02-.02.02zm-.507425-1.02443c.00374803.0276102.0200984.0524016.0445551.0665276.0241535.0139409.0543622.0157913.079874.0053189-.00374803-.0276142-.0200984-.0524055-.0445551-.0665315-.0241535-.0139685-.0543583-.0158031-.079874-.00531496z" fill="#000002"/><path d="m.817339.798776c.0182047.00883858.0583189.0220866.1105.0205394.0956181-.0056811.157508-.0777008.184012-.214327.0389685-.200772-.0103898-.340398-.132024-.373465-.0846811-.0230197-.106441.0163228-.158764.0243819.00051181.0217087.00258268.0404685.0043622.0530512.0341535-.00335827.0639449-.016811.0785551-.0361693.0157953-.0209134.0477559.00315748.0319291.0241024-.0532283.0704488-.201291.0704724-.254524.00001575-.015815-.0209331.0161063-.0450472.0319134-.0241181.0136102.0180079.040378.0309173.0715591.0353268-.00187008-.0143543-.00370866-.0337008-.004-.0556535-.0482756-.0141024-.0682008-.0413858-.143398-.0209528-.121638.0330709-.171.172693-.132028.373465.0265394.13674.0884843.208768.184224.214343h.0247795c.0481339-.00276378.0850984-.020374.0855079-.020563.00556693-.00261024.0118465-.00266929.0173937.00002362z" fill="#f94848"/><path d="m.676272.0467047c.00793701.0584724.0696969.094315.124429.0718465-.00793701-.0584724-.0696969-.0943425-.124429-.0718465z" fill="#a3e261"/><path d="m1.22339.948717h-.853028c.0580433.0560236.0580472.148795 0 .204815h.853028c.0564567 0 .102406-.0459409.102406-.102402 0-.0564724-.0459409-.102413-.102406-.102413zm-.72089.0824173h.681197c.0263228 0 .0263268.04 0 .04h-.681197c-.0263268 0-.0263228-.04 0-.04z" fill="#ffe7c0"/><path d="m.291484.908732h.931906c.0785157 0 .142413.0639016.142413.142429 0 .0784803-.0639055.142386-.142413.142386h-.931906v.0493425l.931906.00000787c.105748 0 .191787-.0860157.191787-.19178 0-.10576-.0860236-.191803-.191787-.191803l-.308008.00037402c-.00467323 0-.00927953-.00012992-.0137953-.00037402h-.610102v.0494173z" fill="#453d83"/><path d="m1.41518 1.28292h-.931898c-.105748 0-.191787.0860236-.191787.191787 0 .105764.0860394.191787.191787.191787h.931882v-.0493701h-.931882c-.0785315 0-.142413-.0638976-.142413-.142429 0-.0785118.0638898-.142409.142413-.142409l.931898-.00000787v-.0493583z" fill="#ffc14f"/><path d="m1.33629 1.3723h-.853008c-.0564724 0-.102429.0459409-.102429.102402 0 .0564724.0459409.102413.102429.102413h.853024c-.0580866-.0560315-.0580669-.148764-.00001575-.204815zm-.813303.0824016h.681185c.0263228 0 .0263268.04 0 .04h-.681185c-.0263268 0-.0263228-.04 0-.04z" fill="#ffe7c0"/></g></svg>