<?xml version="1.0"?>
<svg xmlns="http://www.w3.org/2000/svg" viewBox="0 0 64 64"><g id="Boots"><path d="M35.06738,49a6.80312,6.80312,0,0,1-3.78808-1.147l-1.24707-.83057-.57129.46338A6.73362,6.73362,0,0,1,25.17188,49H21a2.00229,2.00229,0,0,1-2-2V42H57v5a2.00229,2.00229,0,0,1-2,2Z" style="fill:#4b4f59"/><path d="M37.41016,44A3.43773,3.43773,0,0,1,35.04,43.03955,3.50717,3.50717,0,0,0,32.61523,42H19V37.23a11.49485,11.49485,0,0,1,.83008-4.2998,11.68268,11.68268,0,0,0,.68945-6.0503l-.18066-1.19043A115.58947,115.58947,0,0,1,19,8.21V1H41V20.86572l-.01953.44043-.4707,5.52393a7.15375,7.15375,0,0,0,5.50976,7.58984l6.35059,1.49024A5.98268,5.98268,0,0,1,57,41.75V44Z" style="fill:#a56862"/><path d="M30.51563,24.7334q-.5083,0-1.01758-.02588a19.51373,19.51373,0,0,1-9.71094-3.189A115.372,115.372,0,0,1,19,8.21V7H41V20.86572l-.01953.44043-.03418.39893A19.39864,19.39864,0,0,1,30.51563,24.7334Z" style="fill:#b78577"/><path d="M31.499,41.08447l.47852-5.65088L32,34.86572V15a3.00328,3.00328,0,0,0-3-3H19.07306a115.89578,115.89578,0,0,0,1.26581,13.68945l.18066,1.19043a11.68268,11.68268,0,0,1-.68945,6.0503A11.49485,11.49485,0,0,0,19,37.23V42H31.53333A4.219,4.219,0,0,1,31.499,41.08447Z" style="fill:#965553"/><path d="M19,47a2.00229,2.00229,0,0,0,2,2h4.17188a6.73362,6.73362,0,0,0,4.28906-1.51416l.57129-.46338,1.24707.83057A6.80312,6.80312,0,0,0,35.06738,49h9.8833a9.005,9.005,0,0,0-3.895-2.01074l-6.34472-1.48877A4.15725,4.15725,0,0,1,31.53333,42H19Z" style="fill:#393e49"/><path d="M29,12H19.072c.10809,3.14221.34308,6.32776.71509,9.51855a19.51373,19.51373,0,0,0,9.71094,3.189q.50976.02563,1.01758.02588c.49737,0,.99206-.022,1.48437-.05927V15A3.00328,3.00328,0,0,0,29,12Z" style="fill:#a56862"/><path d="M23.06738,63a6.80312,6.80312,0,0,1-3.78808-1.147l-1.24707-.83057-.57129.46338A6.73362,6.73362,0,0,1,13.17188,63H9a2.00229,2.00229,0,0,1-2-2V56H45v5a2.00229,2.00229,0,0,1-2,2Z" style="fill:#4b4f59"/><path d="M25.41016,58A3.43773,3.43773,0,0,1,23.04,57.03955,3.50717,3.50717,0,0,0,20.61523,56H7V51.23a11.49485,11.49485,0,0,1,.83008-4.2998,11.68268,11.68268,0,0,0,.68945-6.0503l-.18066-1.19043A115.58947,115.58947,0,0,1,7,22.21V15H29V34.86572l-.01953.44043-.4707,5.52393a7.15375,7.15375,0,0,0,5.50976,7.58984l6.35059,1.49024A5.98268,5.98268,0,0,1,45,55.75V58Z" style="fill:#b78577"/><path d="M18.51563,38.7334q-.5083,0-1.01758-.02588a19.51373,19.51373,0,0,1-9.71094-3.189A115.372,115.372,0,0,1,7,22.21V21H29V34.86572l-.01953.44043-.03418.39893A19.39864,19.39864,0,0,1,18.51563,38.7334Z" style="fill:#c69f91"/><path d="M7,55V51.23a11.48738,11.48738,0,0,1,.749-4.09131,10.74752,10.74752,0,0,1,3.1543.97022,10.99829,10.99829,0,0,1,5.60645,6.42138L16.666,55Z" style="fill:#c69f91"/><path d="M52.59863,34.93652,46.25,33.44678a6.16026,6.16026,0,0,1-4.74414-6.53272l.42969-5.10693C41.95681,21.504,42,20.98019,42,20.7002V1a.99974.99974,0,0,0-1-1H19a.99974.99974,0,0,0-1,1c0,.20217-.00251,9.81723,0,10.0127a1.00008,1.00008,0,0,0,2-.0254c-.00779-.59808-.00313-1.30944,0-2.9873H40V20.7002c0,.06738.002.13525-.00977.2998l-.00848.10211a18.40886,18.40886,0,0,1-7.10968,2.476.99992.99992,0,0,0,.127,1.99169.95224.95224,0,0,0,.12891-.0083,20.41872,20.41872,0,0,0,6.65369-2.05017l-.26892,3.23719a8.15083,8.15083,0,0,0,6.27832,8.645l6.34961,1.48975A4.98583,4.98583,0,0,1,56,41.75V43H37.41016a2.42676,2.42676,0,0,1-1.70313-.707A4.46084,4.46084,0,0,0,32.5498,41a.98244.98244,0,0,0-.97949,1,1.01659,1.01659,0,0,0,1.01953,1,2.42676,2.42676,0,0,1,1.70313.707A4.43733,4.43733,0,0,0,37.41016,45H56v2a1.001,1.001,0,0,1-1,1H46.37988a1,1,0,0,0,0,2H55a3.00328,3.00328,0,0,0,3-3V41.75A6.9793,6.9793,0,0,0,52.59863,34.93652ZM20,6V2H40V6Z" style="fill:#38342b"/><path d="M40.60352,48.938l-6.34961-1.49414A6.219,6.219,0,0,1,29.50977,40.915l.46191-5.53418c.01953-.22607.02832-.45264.02832-.67969V15a.99974.99974,0,0,0-1-1H7a.99974.99974,0,0,0-1,1c0,8.35785-.18511,14.86617,1.34863,24.83887l.18262,1.19189a10.56791,10.56791,0,0,1-.63281,5.52979A12.51486,12.51486,0,0,0,6,51.22705V61a3.00328,3.00328,0,0,0,3,3h4.17188a7.76789,7.76789,0,0,0,4.91894-1.7373l.63379.42236A7.80256,7.80256,0,0,0,23.06738,64H43a3.00328,3.00328,0,0,0,3-3V55.752A6.97391,6.97391,0,0,0,40.60352,48.938ZM8,51.22705a10.50785,10.50785,0,0,1,.41553-2.92889,9.86408,9.86408,0,0,1,7.146,6.54852L15.61267,55H8ZM8,22.21V22H28V34.70117c0,.13678-.00763.27326-.01636.41a18.546,18.546,0,0,1-19.26489-.181A114.31849,114.31849,0,0,1,8,22.21ZM8,16H28v4H8ZM43,62H23.06738a5.81085,5.81085,0,0,1-3.2334-.979l-1.27929-.853a1.00065,1.00065,0,0,0-1.26172.125A5.79065,5.79065,0,0,1,13.17188,62H9a1.001,1.001,0,0,1-1-1V57h8.99689L17,57.00049,17.003,57h3.583a2.397,2.397,0,0,1,1.707.70752A4.38642,4.38642,0,0,0,25.41406,59H44v2A1.001,1.001,0,0,1,43,62Zm1-5H25.41406a2.397,2.397,0,0,1-1.707-.70752A4.38642,4.38642,0,0,0,20.58594,55H17.72046l-.2605-.78174a11.84962,11.84962,0,0,0-8.40985-7.82275,12.54567,12.54567,0,0,0,.4577-5.668l-.18261-1.1919c-.10846-.70538-.19-1.41674-.28516-2.12524a20.46913,20.46913,0,0,0,18.7486.09113L27.51758,40.749a8.22972,8.22972,0,0,0,6.27734,8.64209l6.35059,1.49414A4.98011,4.98011,0,0,1,44,55.752Z" style="fill:#38342b"/></g></svg>
