<svg id="Layer_1" viewBox="0 0 1000 1000" xmlns="http://www.w3.org/2000/svg" data-name="Layer 1"><path d="m620.6 722.67v4.46 131.12a25.78 25.78 0 0 1 -25.76 25.75h-189.68a25.78 25.78 0 0 1 -25.75-25.75v-131.12c0-1.5 0-3 0-4.46 0-8.95-.09-23.94 2.74-26.77.4-.41 2.24-1.16 6.35-1.16h223c4.11 0 6 .75 6.35 1.16 2.84 2.83 2.78 17.82 2.75 26.77z" fill="#90caf9"/><path d="m620.59 622.59v2.73c0 37.42-3.84 37.42-14.1 37.42h-213c-10.26 0-14.1 0-14.1-37.42v-2.73c0-37.42 3.84-37.42 14.1-37.42h213c10.26 0 14.1 0 14.1 37.42z" fill="#42a5f5"/><path d="m620.59 513v2.73c0 37.41-3.84 37.41-14.1 37.41h-213c-10.26 0-14.1 0-14.1-37.41v-2.73c0-37.42 3.84-37.42 14.1-37.42h213c10.26.03 14.1.03 14.1 37.42z" fill="#42a5f5"/><path d="m620.59 403.47v2.72c0 37.42-3.84 37.42-14.1 37.42h-213c-10.26 0-14.1 0-14.1-37.42v-2.72c0-37.42 3.84-37.42 14.1-37.42h213c10.26 0 14.1 0 14.1 37.42z" fill="#42a5f5"/><path d="m620.59 278.48v16.89c0 38.68-4.81 38.68-15.36 38.68h-210.46c-10.55 0-15.36 0-15.36-38.68v-16.89a66.24 66.24 0 0 1 66.17-66.17h108.84a66.24 66.24 0 0 1 66.17 66.17z" fill="#90caf9"/><path d="m540.91 133.35v47h-81.54v-47a17.38 17.38 0 0 1 17.36-17.35h46.82a17.38 17.38 0 0 1 17.36 17.35z" fill="#bdbdbd"/><g fill="#fff" opacity=".5"><path d="m610.6 732.67v4.46 131.12a25.78 25.78 0 0 1 -25.76 25.75h-189.68a25.78 25.78 0 0 1 -25.75-25.75v-131.12c0-1.5 0-3 0-4.46 0-8.95-.09-23.94 2.74-26.77.4-.41 2.24-1.16 6.35-1.16h223c4.11 0 6 .75 6.35 1.16 2.84 2.83 2.78 17.82 2.75 26.77z"/><path d="m610.59 632.59v2.73c0 37.42-3.84 37.42-14.1 37.42h-213c-10.26 0-14.1 0-14.1-37.42v-2.73c0-37.42 3.84-37.42 14.1-37.42h213c10.26 0 14.1 0 14.1 37.42z"/><path d="m610.59 523v2.73c0 37.41-3.84 37.41-14.1 37.41h-213c-10.26 0-14.1 0-14.1-37.41v-2.73c0-37.42 3.84-37.42 14.1-37.42h213c10.26.03 14.1.03 14.1 37.42z"/><path d="m610.59 413.47v2.72c0 37.42-3.84 37.42-14.1 37.42h-213c-10.26 0-14.1 0-14.1-37.42v-2.72c0-37.42 3.84-37.42 14.1-37.42h213c10.26 0 14.1 0 14.1 37.42z"/><path d="m610.59 288.48v16.89c0 38.68-4.81 38.68-15.36 38.68h-210.46c-10.55 0-15.36 0-15.36-38.68v-16.89a66.24 66.24 0 0 1 66.17-66.17h108.84a66.24 66.24 0 0 1 66.17 66.17z"/><path d="m530.91 143.35v47h-81.54v-47a17.38 17.38 0 0 1 17.36-17.35h46.82a17.38 17.38 0 0 1 17.36 17.35z"/></g><g fill="#413b32"><path d="m643.52 676.73a45.39 45.39 0 0 0 4-7.74c5.11-12.88 5.11-29.24 5.11-43.67v-2.73c0-14.43 0-30.79-5.11-43.67a43.89 43.89 0 0 0 -5.35-9.75 43.61 43.61 0 0 0 5.35-9.74c5.11-12.89 5.11-29.24 5.11-43.67v-2.76c0-14.43 0-30.79-5.11-43.68a43.83 43.83 0 0 0 -5.35-9.74 43.61 43.61 0 0 0 5.35-9.74c5.11-12.89 5.11-29.24 5.11-43.68v-2.72c0-14.43 0-30.79-5.11-43.68a43.19 43.19 0 0 0 -5.71-10.22 44.34 44.34 0 0 0 5.26-9.45c5.14-12.51 5.56-27.67 5.56-44.75v-16.86a98.31 98.31 0 0 0 -79.68-96.41 97.17 97.17 0 0 0 -18.49-1.76h-108.88a98.15 98.15 0 0 0 -98.17 98.17v16.89c0 17.08.42 32.24 5.56 44.75a44.34 44.34 0 0 0 5.26 9.45 43.19 43.19 0 0 0 -5.71 10.22c-5.11 12.89-5.11 29.25-5.11 43.68v2.72c0 14.44 0 30.79 5.11 43.68a43.61 43.61 0 0 0 5.35 9.74 43.83 43.83 0 0 0 -5.35 9.74c-5.11 12.89-5.11 29.25-5.11 43.68v2.73c0 14.43 0 30.78 5.11 43.67a43.61 43.61 0 0 0 5.35 9.74 43.89 43.89 0 0 0 -5.35 9.75c-5.11 12.88-5.11 29.24-5.11 43.67v2.73c0 14.43 0 30.79 5.11 43.67a45.39 45.39 0 0 0 4 7.74c-9.2 12.06-9.14 28.62-9.08 46v4.35 131.17a57.81 57.81 0 0 0 57.72 57.75h189.68a57.81 57.81 0 0 0 57.75-57.75v-131.12c0-1.46 0-2.91 0-4.35.07-17.43.13-33.99-9.07-46.05zm-22.92 45.94v4.46 131.12a25.78 25.78 0 0 1 -25.76 25.75h-189.68a25.78 25.78 0 0 1 -25.75-25.75v-131.12c0-1.5 0-3 0-4.46 0-8.95-.09-23.94 2.74-26.77.4-.41 2.24-1.16 6.35-1.16h5a16 16 0 0 0 0-32c-10.26 0-14.1 0-14.1-37.42v-2.73c0-37.42 3.84-37.42 14.1-37.42a16 16 0 0 0 0-32c-10.26 0-14.1 0-14.1-37.41v-2.76c0-37.42 3.84-37.42 14.1-37.42a16 16 0 0 0 0-32c-10.26 0-14.1 0-14.1-37.42v-2.72c0-37.42 3.84-37.42 14.1-37.42h1.26a16 16 0 0 0 0-32c-10.55 0-15.36 0-15.36-38.68v-16.86a66.24 66.24 0 0 1 66.17-66.17h108.85a66.24 66.24 0 0 1 66.17 66.17v16.89c0 38.68-4.81 38.68-15.36 38.68a16 16 0 0 0 0 32h1.26c10.26 0 14.1 0 14.1 37.42v2.72c0 37.42-3.84 37.42-14.1 37.42a16 16 0 0 0 0 32c10.26 0 14.1 0 14.1 37.42v2.73c0 37.41-3.84 37.41-14.1 37.41a16 16 0 0 0 0 32c10.26 0 14.1 0 14.1 37.42v2.73c0 37.42-3.84 37.42-14.1 37.42a16 16 0 0 0 0 32h5c4.11 0 6 .75 6.35 1.16 2.85 2.83 2.79 17.82 2.76 26.77z"/><path d="m523.55 84h-46.82a49.41 49.41 0 0 0 -49.36 49.35v63a16 16 0 0 0 16 16h113.54a16 16 0 0 0 16-16v-63a49.41 49.41 0 0 0 -49.36-49.35zm-64.18 96.31v-47a17.38 17.38 0 0 1 17.36-17.31h46.82a17.38 17.38 0 0 1 17.36 17.35v47z"/><path d="m605.23 366.05h-210.46a16 16 0 0 0 0-32h210.46a16 16 0 0 0 0 32z"/><path d="m410.77 350.05a16 16 0 0 1 -16 16h-1.26a16 16 0 0 1 0-32h1.26a16 16 0 0 1 16 16z"/><circle cx="605.23" cy="350.05" r="16"/><path d="m622.49 459.61a16 16 0 0 1 -16 16h-213a16 16 0 0 1 0-32h213a16 16 0 0 1 16 16z"/><path d="m622.49 569.17a16 16 0 0 1 -16 16h-213a16 16 0 0 1 0-32h213a16 16 0 0 1 16 16z"/><path d="m622.49 678.74a16 16 0 0 1 -16 16h-213a16 16 0 0 1 0-32h213a16 16 0 0 1 16 16z"/></g></svg>