<svg id="Capa_1" enable-background="new 0 0 512 512" height="512" viewBox="0 0 512 512" width="512" xmlns="http://www.w3.org/2000/svg"><g><g><path d="m158.014 376.209v63.64l-65.66 64.651v-62.63z" fill="#f3d332"/></g><g><path d="m135.791 353.986h-63.64l-64.651 65.66h62.63z" fill="#f7e365"/></g><g><path d="m504.5 7.5-144.259 62.63 65.466 16.163 16.163 65.466z" fill="#9c9c9c"/></g><g><g><path d="m494.398 504.5h-14.142c-5.579 0-10.102-4.523-10.102-10.102v-74.71l-377.843-377.842h-74.71c-5.579 0-10.102-4.523-10.102-10.102v-14.142c.001-5.579 4.524-10.102 10.103-10.102h81.823c4.555 0 8.923 1.809 12.143 5.03l387.902 387.902c3.221 3.22 5.03 7.588 5.03 12.143v81.823c0 5.579-4.523 10.102-10.102 10.102z" fill="#e69642"/></g></g><g><path d="m276.203 176.646h34.345v83.957h-34.345z" fill="#e38523" transform="matrix(.707 -.707 .707 .707 -68.663 271.482)"/></g><g><path d="m499.47 400.432-134.463-134.462c-.115 15.984-.727 31.618-1.799 46.773l106.946 106.945v74.71c0 5.579 4.523 10.102 10.102 10.102h14.142c5.579 0 10.102-4.523 10.102-10.102v-81.823c0-4.555-1.81-8.923-5.03-12.143z" fill="#e38523"/></g><g><path d="m430.107 104.116-380.18 380.18-22.223-22.223 380.18-380.18 17.823 4.4z" fill="#3a67c1"/></g><g><path d="m407.884 81.893-21.696 21.696 11.9 2.938c3.643.899 6.487 3.743 7.386 7.386l2.938 11.9 21.696-21.696-4.4-17.823z" fill="#30569f"/></g><g><path d="m504.5 7.5-144.259 62.63 65.466 16.163 16.163 65.466z" fill="#cecece"/></g><g><path d="m453.735 29.54c-1.119 16.483-6.536 35.758-16.263 54.884-2.664 5.238-5.53 10.218-8.545 14.913l12.942 52.422 62.631-144.259z" fill="#bfbfbf"/></g><path d="m504.772 395.126-77.583-77.573c-1.369-1.475-3.326-2.397-5.499-2.397-4.143 0-7.5 3.362-7.5 7.505 0 1.989.79 3.897 2.197 5.304l77.77 77.761c1.833 1.838 2.842 4.272 2.842 6.855v81.82c0 1.434-1.166 2.6-2.6 2.6h-14.141c-1.438 0-2.609-1.166-2.609-2.6v-74.71c0-1.989-.79-3.896-2.196-5.303l-172.496-172.507 13.678-13.678 75.001 75.01c1.406 1.407 3.314 2.197 5.304 2.197h.01c4.143 0 7.495-3.357 7.495-7.5 0-2.128-.888-4.049-2.312-5.414l-74.891-74.9 98.772-98.772 8.575 34.732c.771 3.123 3.448 5.406 6.653 5.676.212.018.422.026.631.026 2.966 0 5.68-1.757 6.877-4.514l62.63-144.259c1.227-2.824.601-6.112-1.576-8.29-2.178-2.176-5.464-2.8-8.29-1.576l-144.259 62.631c-2.951 1.281-4.757 4.302-4.487 7.508.27 3.205 2.553 5.883 5.676 6.653l34.732 8.575-98.771 98.771-177.54-177.538c-4.669-4.655-10.864-7.219-17.445-7.219h-81.82c-9.704 0-17.6 7.896-17.6 17.6v14.141c0 7.357 4.537 13.667 10.955 16.296l46.974 309.702-55.773 56.646c-2.12 2.153-2.741 5.37-1.573 8.159 1.168 2.788 3.896 4.603 6.918 4.603h44.517l-29.62 29.62c-2.929 2.93-2.929 7.678 0 10.607l22.229 22.229c1.465 1.464 3.385 2.196 5.304 2.196s3.839-.732 5.304-2.196l29.62-29.62v44.517c0 3.022 1.814 5.75 4.603 6.918.937.392 1.92.582 2.896.582 1.933 0 3.833-.746 5.264-2.155l56.645-55.773 309.702 46.974c2.63 6.418 8.939 10.955 16.296 10.955h14.139c9.704 0 17.6-7.896 17.6-17.6v-81.82c0-6.582-2.564-12.777-7.228-17.455zm-14.722-373.176-46.22 106.461-10.843-43.915c-.668-2.704-2.779-4.815-5.483-5.483l-43.914-10.844zm-475.05-4.35c0-1.434 1.166-2.6 2.6-2.6h81.82c2.583 0 5.018 1.009 6.847 2.834l177.531 177.531-13.677 13.678-115.577-115.577c-2.93-2.928-7.678-2.928-10.607 0-2.929 2.93-2.929 7.678 0 10.607l115.575 115.577-126.834 126.835h-60.527c-.252 0-.503.013-.752.038l-45.073-297.173h62.878l29.983 29.984c2.929 2.927 7.677 2.929 10.607 0 2.929-2.93 2.929-7.678 0-10.607l-32.181-32.181c-1.407-1.406-3.314-2.196-5.304-2.196h-74.709c-1.434 0-2.6-1.171-2.6-2.609zm10.41 394.546 49.881-50.661h42.386l-50.661 50.661zm24.52 61.547-11.623-11.623 371.883-371.883 9.322 2.301 2.301 9.322-165.997 165.997c-2.929 2.93-2.929 7.678 0 10.607 1.465 1.464 3.385 2.196 5.304 2.196s3.839-.732 5.304-2.196l25.927-25.927 170.3 170.309v62.878l-297.173-45.073c.025-.249.038-.499.038-.751v-60.527l76.169-76.169c2.929-2.93 2.929-7.678 0-10.607-2.93-2.928-7.678-2.928-10.607 0zm49.924-28.71 50.661-50.661v42.387l-50.661 49.881z"/></g></svg>