<svg height="512" viewBox="0 0 128 128" width="512" xmlns="http://www.w3.org/2000/svg"><g><g><path d="m84.154 121.5a3 3 0 0 1 -3-3v-.5a28.579 28.579 0 0 1 13.4-24.3 22.611 22.611 0 0 0 10.6-19.222v-20.956a22.611 22.611 0 0 0 -10.601-19.222 28.579 28.579 0 0 1 -13.399-24.3v-.5a3 3 0 0 1 3-3 3 3 0 0 1 3 3v.5a22.836 22.836 0 0 0 10.666 19.267 28.58 28.58 0 0 1 13.334 24.255v20.956a28.67 28.67 0 0 1 -13.372 24.279 22.611 22.611 0 0 0 -10.628 19.243v.5a3 3 0 0 1 -3 3z" fill="#f2a66c"/><rect fill="#663325" height="24" rx="3" width="9" x="103.654" y="52"/><path d="m106.654 52h3a3 3 0 0 1 3 3v3a0 0 0 0 1 0 0h-9a0 0 0 0 1 0 0v-3a3 3 0 0 1 3-3z" fill="#4f2217"/><path d="m103.654 64h9v6h-9z" fill="#4f2217"/><path d="m48.346 18.455h6v91.878h-6z" fill="#ededf9"/><path d="m51.346 103.5v14.946l-7 3.054v-14.946z" fill="#fb9401"/><path d="m51.346 103.5v14.946l7 3.054v-14.946z" fill="#f9d42f"/><path d="m51.346 6.5 8.139 18h-16.278z" fill="#f9d42f"/><path d="m20.485 18.455h6v91.878h-6z" fill="#ededf9"/><path d="m23.485 103.5v14.946l-7 3.054v-14.946z" fill="#fb9401"/><g fill="#f9d42f"><path d="m23.485 103.5v14.946l7 3.054v-14.946z"/><path d="m23.485 6.5 8.139 18h-16.278z"/></g></g><g fill="#102a3f"><path d="m112.82 51.485a30.472 30.472 0 0 0 -14.062-23.693 21.018 21.018 0 0 1 -9.858-17.792v-.5a4.756 4.756 0 0 0 -4.75-4.75 4.756 4.756 0 0 0 -4.75 4.75v.5a30.593 30.593 0 0 0 2.2 11.423v85.16a30.562 30.562 0 0 0 -2.2 11.417v.5a4.75 4.75 0 0 0 9.5 0v-.5a20.866 20.866 0 0 1 9.812-17.76 30.394 30.394 0 0 0 14.108-23.725 4.722 4.722 0 0 0 1.58-3.515v-18a4.722 4.722 0 0 0 -1.58-3.515zm-3.166 2.265a1.251 1.251 0 0 1 1.246 1.25v1.25h-5.5v-1.25a1.25 1.25 0 0 1 1.25-1.25zm1.25 8.5h-5.5v-2.5h5.5zm0 6h-5.5v-2.5h5.5zm-4.25 6a1.25 1.25 0 0 1 -1.254-1.25v-1.25h5.5v1.25a1.251 1.251 0 0 1 -1.25 1.25zm-21.554-46.457a30.525 30.525 0 0 0 6.155 6.34 1.75 1.75 0 0 0 2.134-2.774 26.726 26.726 0 0 1 -8.389-10.867c-.019-.052-.037-.105-.061-.155a27.08 27.08 0 0 1 -2.039-10.337v-.5a1.249 1.249 0 0 1 2.144-.872 1.21 1.21 0 0 1 .356.872v.5a24.5 24.5 0 0 0 11.481 20.747 26.975 26.975 0 0 1 12.311 19.5h-2.515a24.168 24.168 0 0 0 -5.145-12.05 1.75 1.75 0 0 0 -2.732 2.197 20.7 20.7 0 0 1 4.5 11.248 4.734 4.734 0 0 0 -1.4 3.358v18a4.734 4.734 0 0 0 1.4 3.364 20.948 20.948 0 0 1 -9.684 15.856 30.525 30.525 0 0 0 -8.516 8zm11.748 69.485a24.346 24.346 0 0 0 -11.448 20.722v.5a1.25 1.25 0 0 1 -2.5 0v-.5a26.833 26.833 0 0 1 12.583-22.819 24.453 24.453 0 0 0 11.185-17.431h2.525a26.89 26.89 0 0 1 -12.345 19.528z"/><path d="m52.941 5.779a1.751 1.751 0 0 0 -3.19 0l-8.139 18a1.751 1.751 0 0 0 1.595 2.471h3.393v14.238a1.75 1.75 0 0 0 3.5 0v-14.238h2.5v75.887l-.554-.241a1.757 1.757 0 0 0 -1.4 0l-.546.238v-52.234a1.75 1.75 0 0 0 -3.5 0v53.762l-2.954 1.288a1.752 1.752 0 0 0 -1.05 1.605v14.945a1.751 1.751 0 0 0 2.45 1.6l6.3-2.749 6.3 2.749a1.75 1.75 0 0 0 2.45-1.6v-14.946a1.751 1.751 0 0 0 -1.05-1.605l-2.946-1.285v-77.414h3.385a1.75 1.75 0 0 0 1.595-2.471zm-6.841 101.921 3.5-1.526v11.126l-3.5 1.527zm10.5 11.128-3.5-1.528v-11.127l3.5 1.526zm-10.681-96.078 5.427-12 5.427 12z"/><path d="m26.489 78.879a1.75 1.75 0 0 0 -1.75 1.75v4.377a1.75 1.75 0 0 0 3.5 0v-4.377a1.749 1.749 0 0 0 -1.75-1.75z"/><path d="m25.08 5.779a1.75 1.75 0 0 0 -3.189 0l-8.14 18a1.751 1.751 0 0 0 1.6 2.471h3.393v77.411l-2.953 1.288a1.752 1.752 0 0 0 -1.051 1.605v14.946a1.751 1.751 0 0 0 2.45 1.6l6.3-2.749 6.3 2.749a1.749 1.749 0 0 0 2.449-1.6v-14.946a1.751 1.751 0 0 0 -1.05-1.605l-2.946-1.285v-13.294a1.75 1.75 0 0 0 -3.5 0v11.767l-.554-.241a1.754 1.754 0 0 0 -1.4 0l-.547.238v-75.884h2.5v48.238a1.75 1.75 0 0 0 3.5 0v-48.238h3.385a1.75 1.75 0 0 0 1.6-2.471zm-6.845 101.921 3.5-1.526v11.126l-3.5 1.527zm10.5 11.128-3.5-1.527v-11.128l3.5 1.526zm-10.677-96.078 5.427-12 5.428 12z"/></g></g></svg>