<svg enable-background="new 0 0 32 32" viewBox="0 0 32 32" xmlns="http://www.w3.org/2000/svg"><g id="Grid" display="none"/><g id="bow_tie"><path d="m12.125 18.357c.132 2.458-1.381 4.579-3.742 5.31-.258.08-2.55.758-4.467-.214-2.43-1.232-1.869-3.906-1.843-4.017.327-1.419 1.664-2.674 3.343-3.323.109-.042.109-.185 0-.227-1.68-.65-3.016-1.905-3.343-3.323-.026-.111-.587-2.785 1.843-4.017 1.916-.971 4.209-.294 4.467-.214 2.361.731 3.875 2.851 3.742 5.31z" fill="#e96565"/><path d="m19.875 18.357c-.132 2.458 1.381 4.579 3.742 5.31.258.08 2.55.758 4.467-.214 2.43-1.232 1.869-3.906 1.843-4.017-.327-1.419-1.664-2.674-3.343-3.323-.109-.042-.109-.185 0-.227 1.68-.65 3.016-1.905 3.343-3.323.026-.111.587-2.785-1.843-4.017-1.916-.971-4.209-.294-4.467-.214-2.361.731-3.875 2.851-3.742 5.31z" fill="#e96565"/><path d="m12.13 16.599v1.76c.13 2.46-1.39 4.58-3.75 5.31-.25.08-2.55.76-4.46-.22-2.43-1.23-1.87-3.9-1.85-4.01.03-.11.06-.22.1-.33.21.75.7 1.55 1.75 2.08 1.91.97 4.21.29 4.46.21 2.2-.68 3.66-2.55 3.75-4.8z" fill="#e05353"/><path d="m28.08 23.449c-1.91.98-4.21.3-4.46.22-2.36-.73-3.88-2.85-3.75-5.31v-1.76c.09 2.25 1.55 4.12 3.75 4.8.25.08 2.55.76 4.46-.21 1.05-.53 1.54-1.33 1.75-2.08.04.11.07.22.1.33.02.11.58 2.78-1.85 4.01z" fill="#e05353"/><path d="m18.754 11.147c1.944.184 3.483 1.756 3.572 3.706.017.37.026.752.026 1.146 0 .334-.007.688-.022 1.06-.084 1.98-1.602 3.605-3.575 3.792-.861.082-1.781.13-2.754.13-.826 0-1.744-.035-2.738-.129-1.977-.186-3.509-1.818-3.592-3.801-.015-.37-.022-.721-.022-1.052 0-.394.009-.777.026-1.147.089-1.949 1.637-3.522 3.579-3.706.997-.094 1.918-.13 2.746-.13.973 0 1.893.049 2.754.131z" fill="#e96565"/><path d="m22.35 15.999c0 .33 0 .69-.02 1.06-.08 1.98-1.6 3.61-3.58 3.79-.86.08-1.78.13-2.75.13-.83 0-1.74-.03-2.74-.13-1.97-.18-3.51-1.81-3.59-3.8-.02-.37-.02-.72-.02-1.05 0-.39.01-.78.02-1.15.11 1.95 1.64 3.55 3.59 3.74 1 .09 1.91.13 2.74.13.97 0 1.89-.05 2.75-.13 1.96-.19 3.47-1.79 3.58-3.74.01.37.02.76.02 1.15z" fill="#e05353"/><path d="m4.561 9.816c-.539.273-.907.714-1.063 1.275-.063.226.07.46.296.523.038.01.076.016.114.016.187 0 .357-.124.41-.312.093-.333.298-.577.628-.745.209-.106.293-.362.187-.571-.106-.208-.361-.291-.572-.186z" fill="#ff9292"/><path d="m27.381 16c1.542-.772 2.654-2.014 2.968-3.37.274-1.434-.106-3.462-2.075-4.459-2.074-1.064-4.513-.333-4.778-.248-1.614.495-2.882 1.612-3.551 3.087-.365-.14-.746-.25-1.15-.288-1.849-.174-3.726-.175-5.581 0-.407.039-.79.148-1.157.29-.669-1.476-1.937-2.593-3.546-3.087-.274-.087-2.711-.818-4.783.245-1.971.998-2.351 3.026-2.072 4.486.31 1.332 1.418 2.569 2.963 3.343-1.542.772-2.654 2.014-2.968 3.37-.274 1.434.106 3.462 2.077 4.46.859.436 1.775.569 2.575.569 1.143 0 2.046-.272 2.202-.322 1.626-.499 2.894-1.618 3.554-3.095.369.144.754.256 1.164.295.92.086 1.854.13 2.778.13.927 0 1.868-.044 2.794-.132.404-.038.784-.148 1.148-.29.668 1.478 1.937 2.596 3.548 3.091.159.051 1.064.324 2.208.324.799 0 1.715-.133 2.573-.569 1.971-.998 2.351-3.027 2.072-4.486-.309-1.332-1.418-2.57-2.963-3.344zm-19.131 7.265c-.094.029-2.325.727-4.138-.194-1.998-1.011-1.705-3.128-1.628-3.535.285-1.225 1.497-2.414 3.082-3.027.22-.08.362-.28.362-.509s-.142-.429-.354-.506c-1.592-.616-2.805-1.805-3.087-3.022-.08-.414-.373-2.532 1.627-3.544 1.802-.923 4.042-.223 4.142-.191 1.388.427 2.475 1.387 3.04 2.655-.901.567-1.577 1.44-1.873 2.471l-.5-.167c-1.247-.409-1.954-1.23-2.059-1.682-.053-.229-.281-.37-.51-.318-.229.053-.371.281-.318.51.173.749 1.067 1.788 2.62 2.298l.612.204c-.003.042-.016.082-.017.125-.018.376-.027.766-.027 1.167 0 .336.007.694.022 1.07.003.074.022.144.029.217l-.617.21c-1.551.509-2.446 1.531-2.621 2.265-.054.229.087.458.315.512.033.008.066.012.099.012.192 0 .367-.132.413-.327.105-.441.813-1.246 2.063-1.656l.511-.174c.306 1.03.973 1.901 1.862 2.468-.555 1.271-1.644 2.236-3.05 2.668zm10.464-2.837c-1.795.171-3.621.171-5.412.001-1.754-.166-3.133-1.625-3.208-3.396-.015-.363-.022-.709-.022-1.035 0-.388.009-.764.026-1.128.078-1.718 1.452-3.137 3.194-3.302.898-.085 1.809-.128 2.707-.128.901 0 1.814.043 2.714.129 1.739.165 3.109 1.585 3.188 3.303.017.363.026.739.026 1.126 0 .328-.007.676-.022 1.042-.074 1.766-1.447 3.223-3.191 3.388zm9.174 2.643c-1.813.921-4.044.224-4.143.192-1.391-.427-2.48-1.391-3.044-2.663.89-.567 1.558-1.44 1.863-2.472l.513.175c1.246.409 1.954 1.214 2.059 1.655.046.195.221.327.413.327.033 0 .066-.004.099-.012.228-.055.369-.284.315-.512-.175-.734-1.069-1.756-2.617-2.264l-.621-.211c.006-.071.025-.138.028-.21.016-.378.022-.739.022-1.078 0-.401-.009-.79-.027-1.166-.002-.043-.014-.083-.018-.126l.61-.203c1.554-.51 2.448-1.549 2.621-2.298.053-.229-.09-.457-.318-.51s-.457.09-.51.318c-.104.452-.812 1.273-2.06 1.683l-.498.166c-.297-1.032-.972-1.906-1.873-2.472.565-1.268 1.652-2.228 3.045-2.656.095-.03 2.334-.731 4.138.194 1.998 1.011 1.705 3.128 1.628 3.535-.285 1.225-1.497 2.414-3.082 3.027-.22.08-.362.28-.362.509s.142.429.354.506c1.592.616 2.805 1.805 3.087 3.022.083.415.376 2.533-1.622 3.544z"/><g fill="#ff9292"><path d="m16 12.442h-.051c-.235 0-.399.19-.399.425s.215.425.45.425.425-.19.425-.425-.19-.425-.425-.425z"/><path d="m14.178 12.501c-.264.018-.528.039-.79.063-.84.079-1.584.562-1.989 1.292-.114.205-.04.464.166.578.065.036.136.054.206.054.149 0 .294-.079.372-.219.269-.485.764-.806 1.325-.858.254-.024.51-.045.766-.062.234-.016.412-.218.396-.452s-.226-.414-.452-.396z"/></g></g><g id="balloon_1_"/><g id="placeholder"/><g id="mic"/><g id="speaker"/><g id="champagne"/><g id="gift"/><g id="theater"/><g id="_camera"/><g id="video_camera"/><g id="party_hat"/><g id="champagne_glass"/><g id="man"/><g id="woman"/><g id="skewer"/><g id="ticket"/><g id="cake"/><g id="lights"/><g id="photo"/><g id="invitation"/></svg>