<svg id="Filled_Expand" height="512" viewBox="0 0 64 64" width="512" xmlns="http://www.w3.org/2000/svg" data-name="Filled Expand"><path d="m5 37h54a0 0 0 0 1 0 0v19a6 6 0 0 1 -6 6h-42a6 6 0 0 1 -6-6v-19a0 0 0 0 1 0 0z" fill="#ebf5ff"/><path d="m5 30h54a3 3 0 0 1 3 3v4a0 0 0 0 1 0 0h-60a0 0 0 0 1 0 0v-4a3 3 0 0 1 3-3z" fill="#f55a8c"/><path d="m10 9h44a0 0 0 0 1 0 0v15a6 6 0 0 1 -6 6h-32a6 6 0 0 1 -6-6v-15a0 0 0 0 1 0 0z" fill="#ebf5ff"/><path d="m10 2h44a3 3 0 0 1 3 3v4a0 0 0 0 1 0 0h-50a0 0 0 0 1 0 0v-4a3 3 0 0 1 3-3z" fill="#f55a8c"/><path d="m5 37h54v7h-54z" fill="#96e1ff"/><path d="m10 9h44v7h-44z" fill="#96e1ff"/><path d="m59 28.25h-4.524a7.705 7.705 0 0 0 1.274-4.25v-13.25h1.25a1.75 1.75 0 0 0 1.75-1.75v-4a4.756 4.756 0 0 0 -4.75-4.75h-44a4.756 4.756 0 0 0 -4.75 4.75v4a1.75 1.75 0 0 0 1.75 1.75h1.25v13.25a7.705 7.705 0 0 0 1.274 4.25h-4.524a4.756 4.756 0 0 0 -4.75 4.75v4a1.75 1.75 0 0 0 1.75 1.75h1.25v17.25a7.759 7.759 0 0 0 7.75 7.75h42a7.759 7.759 0 0 0 7.75-7.75v-17.25h1.25a1.75 1.75 0 0 0 1.75-1.75v-4a4.756 4.756 0 0 0 -4.75-4.75zm-50.25-21v-2.25a1.252 1.252 0 0 1 1.25-1.25h44a1.252 1.252 0 0 1 1.25 1.25v2.25zm3 7v-3.5h40.5v3.5zm40.5 3.5v6.25a4.255 4.255 0 0 1 -4.25 4.25h-32a4.255 4.255 0 0 1 -4.25-4.25v-6.25zm5 38.25a4.255 4.255 0 0 1 -4.25 4.25h-42a4.255 4.255 0 0 1 -4.25-4.25v-10.25h50.5zm0-13.75h-50.5v-3.5h50.5zm3-7h-56.5v-2.25a1.252 1.252 0 0 1 1.25-1.25h54a1.252 1.252 0 0 1 1.25 1.25z"/></svg>