<svg id="Layer_1" viewBox="0 0 1000 1000" xmlns="http://www.w3.org/2000/svg" data-name="Layer 1"><path d="m774.14 724.05v20a15 15 0 0 1 -15 15h-59.26v-35z" fill="#ff9100"/><path d="m774.14 672v20h-90.26a16 16 0 0 0 -16 16v51h-59.28a15 15 0 0 1 -15-15v-72.15a15 15 0 0 1 15-14.81h150.55a15 15 0 0 1 14.99 14.96z" fill="#546e7a"/><path d="m884 401.75v.14 4.38 16.85c-.3 19.42-7.37 58.31-19.91 109.54a243.1 243.1 0 0 1 -50.41 99.23 169.16 169.16 0 0 1 -14.57 15.35 47 47 0 0 0 -39.9-22.2h-150.61a46.74 46.74 0 0 0 -28.66 9.78 399.62 399.62 0 0 1 -16.85-74.7c-.36-3.25-.86-23-1.23-37.39-.7-27.56-1.07-40.07-1.67-44.22-1-7.07-2.58-19.37-4-35.79a138.28 138.28 0 0 0 103.81 46.83h45.86a138.62 138.62 0 0 0 97.71-40.35 49.48 49.48 0 0 0 21.24-3.36 16 16 0 0 0 -11.81-29.73 19.82 19.82 0 0 1 -11.06.77 14 14 0 0 0 -1.79-.39c-14.23-3.54-29.58-17.54-35.13-23.76-8.28-9.68-11.9-19.33-11.07-29.47 1.05-13.56 10.49-25.26 24.05-29.92 14.39-4.92 29.57-5 45.29-.4.39.14.79.26 1.19.37a.07.07 0 0 1 .06 0 101.65 101.65 0 0 1 13.12 5.12 82.5 82.5 0 0 1 41.71 43.26c4.56 11.31 4.63 18.69 4.63 20.06z" fill="#ff3d00"/><path d="m812.43 291.88v6.37a102.65 102.65 0 0 0 -44.83 4.81c-25.55 8.73-43.46 31.33-45.62 57.57-1.53 18.61 5 36.95 18.76 53l.14.16a139.51 139.51 0 0 0 24.57 21.21c1.08.72 2.14 1.41 3.2 2.06a106.65 106.65 0 0 1 -62.8 20.49h-45.85a106.72 106.72 0 0 1 -106.6-106.55v-59.12a51 51 0 0 1 50.94-50.94h157.15a51 51 0 0 1 50.94 50.94z" fill="#ff3d00"/><path d="m300.12 724.05v35h-59.27a15 15 0 0 1 -15-15v-20z" fill="#ff9100"/><path d="m406.39 671.85v72.22a15 15 0 0 1 -15 15h-59.27v-51a16 16 0 0 0 -16-16h-90.26v-20.07a15 15 0 0 1 15-15h150.54a15 15 0 0 1 14.99 14.85z" fill="#546e7a"/><path d="m443.78 442.72c-1.39 16.42-3 28.72-4 35.79-.6 4.15-1 16.66-1.67 44.22-.37 14.41-.87 34.14-1.22 37.33a400.42 400.42 0 0 1 -16.89 74.74 46.67 46.67 0 0 0 -28.6-9.8h-150.55a47 47 0 0 0 -39.9 22.2 169.16 169.16 0 0 1 -14.57-15.35 243.1 243.1 0 0 1 -50.38-99.19c-12.54-51.23-19.61-90.12-19.91-109.55v-16.84c0-1.46 0-2.92 0-4.38v-.14c0-1.37.07-8.79 4.68-20.05a82.5 82.5 0 0 1 41.71-43.26 101.21 101.21 0 0 1 13.09-5.11c.47-.15 1-.3 1.42-.43 15.69-4.62 30.83-4.47 45.19.45 13.47 4.62 22.9 16.34 24 29.86.85 10.16-2.77 19.81-11.06 29.5-5.58 6.25-20.94 20.25-35.17 23.78a15.33 15.33 0 0 0 -1.76.38 19.81 19.81 0 0 1 -11.08-.76 16 16 0 0 0 -11.84 29.73 49.48 49.48 0 0 0 21.24 3.36 138.62 138.62 0 0 0 97.71 40.35h45.78a138.28 138.28 0 0 0 103.78-46.83z" fill="#ff3d00"/><path d="m446.6 291.88v59.12a106.72 106.72 0 0 1 -106.6 106.55h-45.85a106.65 106.65 0 0 1 -62.8-20.49c1.06-.65 2.12-1.34 3.2-2.06a139.51 139.51 0 0 0 24.57-21.18l.14-.16c13.82-16.11 20.31-34.47 18.75-53.11-2.18-26.18-20.06-48.74-45.55-57.47a102.63 102.63 0 0 0 -44.89-4.83v-6.37a51 51 0 0 1 50.94-50.94h157.15a51 51 0 0 1 50.94 50.94z" fill="#ff3d00"/><g fill="#fff" opacity=".5"><path d="m764.14 734.05v20a15 15 0 0 1 -15 15h-59.26v-35z"/><path d="m764.14 682v20h-90.26a16 16 0 0 0 -16 16v51h-59.28a15 15 0 0 1 -15-15v-72.15a15 15 0 0 1 15-14.81h150.55a15 15 0 0 1 14.99 14.96z"/><path d="m874 411.75v.14 4.38 16.85c-.3 19.42-7.37 58.31-19.91 109.54a243.1 243.1 0 0 1 -50.41 99.23 169.16 169.16 0 0 1 -14.57 15.35 47 47 0 0 0 -39.9-22.2h-150.61a46.74 46.74 0 0 0 -28.66 9.78 399.62 399.62 0 0 1 -16.85-74.7c-.36-3.25-.86-23-1.23-37.39-.7-27.56-1.07-40.07-1.67-44.22-1-7.07-2.58-19.37-4-35.79a138.28 138.28 0 0 0 103.81 46.83h45.86a138.62 138.62 0 0 0 97.71-40.35 49.48 49.48 0 0 0 21.24-3.36 16 16 0 0 0 -11.81-29.73 19.82 19.82 0 0 1 -11.06.77 14 14 0 0 0 -1.79-.39c-14.23-3.54-29.58-17.54-35.13-23.76-8.28-9.68-11.9-19.33-11.07-29.47 1.05-13.56 10.49-25.26 24.05-29.92 14.39-4.92 29.57-5 45.29-.4.39.14.79.26 1.19.37a.07.07 0 0 1 .06 0 101.65 101.65 0 0 1 13.12 5.12 82.5 82.5 0 0 1 41.71 43.26c4.56 11.31 4.63 18.69 4.63 20.06z"/><path d="m802.43 301.88v6.37a102.65 102.65 0 0 0 -44.83 4.81c-25.55 8.73-43.46 31.33-45.62 57.57-1.53 18.61 5 36.95 18.76 53l.14.16a139.51 139.51 0 0 0 24.57 21.21c1.08.72 2.14 1.41 3.2 2.06a106.65 106.65 0 0 1 -62.8 20.49h-45.85a106.72 106.72 0 0 1 -106.6-106.55v-59.12a51 51 0 0 1 50.94-50.94h157.15a51 51 0 0 1 50.94 50.94z"/><path d="m290.12 734.05v35h-59.27a15 15 0 0 1 -15-15v-20z"/><path d="m396.39 681.85v72.22a15 15 0 0 1 -15 15h-59.27v-51a16 16 0 0 0 -16-16h-90.26v-20.07a15 15 0 0 1 15-15h150.54a15 15 0 0 1 14.99 14.85z"/><path d="m433.78 452.72c-1.39 16.42-3 28.72-4 35.79-.6 4.15-1 16.66-1.67 44.22-.37 14.41-.87 34.14-1.22 37.33a400.42 400.42 0 0 1 -16.89 74.74 46.67 46.67 0 0 0 -28.6-9.8h-150.55a47 47 0 0 0 -39.9 22.2 169.16 169.16 0 0 1 -14.57-15.35 243.1 243.1 0 0 1 -50.38-99.19c-12.54-51.23-19.61-90.12-19.91-109.55v-16.84c0-1.46 0-2.92 0-4.38v-.14c0-1.37.07-8.79 4.68-20.05a82.5 82.5 0 0 1 41.71-43.26 101.21 101.21 0 0 1 13.09-5.11c.47-.15 1-.3 1.42-.43 15.69-4.62 30.83-4.47 45.19.45 13.47 4.62 22.9 16.34 24 29.86.85 10.16-2.77 19.81-11.06 29.5-5.58 6.25-20.94 20.25-35.17 23.78a15.33 15.33 0 0 0 -1.76.38 19.81 19.81 0 0 1 -11.08-.76 16 16 0 0 0 -11.84 29.73 49.48 49.48 0 0 0 21.24 3.36 138.62 138.62 0 0 0 97.71 40.35h45.78a138.28 138.28 0 0 0 103.78-46.83z"/><path d="m436.6 301.88v59.12a106.72 106.72 0 0 1 -106.6 106.55h-45.85a106.65 106.65 0 0 1 -62.8-20.49c1.06-.65 2.12-1.34 3.2-2.06a139.51 139.51 0 0 0 24.57-21.18l.14-.16c13.82-16.11 20.31-34.47 18.75-53.11-2.18-26.18-20.06-48.74-45.55-57.47a102.63 102.63 0 0 0 -44.89-4.83v-6.37a51 51 0 0 1 50.94-50.94h157.15a51 51 0 0 1 50.94 50.94z"/></g><g fill="#413b32"><path d="m799.05 647.24a47 47 0 0 0 -39.9-22.2h-150.55a47 47 0 0 0 -47 47v72a47 47 0 0 0 47 47h150.55a47 47 0 0 0 47-47v-72.04a46.71 46.71 0 0 0 -7.1-24.76zm-24.91 96.83a15 15 0 0 1 -15 15h-150.54a15 15 0 0 1 -15-15v-72.22a15 15 0 0 1 15-14.81h150.55a15 15 0 0 1 15 15z"/><path d="m844.43 291.88v25.93a16 16 0 0 1 -19.94 15.51.07.07 0 0 0 -.06 0c-.4-.14-.8-.26-1.19-.37a16 16 0 0 1 -10.81-15.13v-25.94a51 51 0 0 0 -50.94-50.94h-157.15a51 51 0 0 0 -50.94 50.94v59.12a106.72 106.72 0 0 0 106.6 106.55h45.86a106.64 106.64 0 0 0 79.73-35.88 16 16 0 0 1 14.49-5.19 14 14 0 0 1 1.79.39 16 16 0 0 1 7.62 26q-2.88 3.25-6 6.3a138.62 138.62 0 0 1 -97.71 40.35h-45.78a138.78 138.78 0 0 1 -138.5-133.11c-.06-1.8-.1-3.61-.1-5.43v-59.1a83 83 0 0 1 82.94-82.94h157.15a83 83 0 0 1 82.94 82.94z"/><path d="m593.61 671.85v.44a16 16 0 0 1 -30.19 7.11c-.14-.28-.79-1.53-1.81-3.72-5.61-12-22.55-51.93-30.26-111.51-.5-3.87-.84-15.35-1.48-40.62-.4-15.63-.94-37-1.37-40.6-3-21.26-8-65.93-7.09-125.11 0-.48 0-1 .09-1.43a16 16 0 0 1 15.9-14.29h.26a16 16 0 0 1 15.74 16.25c-.53 33.67 1 62.64 2.82 84.38 1.39 16.42 3 28.72 4 35.79.6 4.15 1 16.66 1.67 44.22.37 14.41.87 34.14 1.23 37.39a399.62 399.62 0 0 0 16.85 74.7c6.36 19.08 11.77 29.63 11.87 29.83a15.82 15.82 0 0 1 1.77 7.17z"/><path d="m908.94 369.59a114.4 114.4 0 0 0 -57.73-60.11q-3.39-1.59-6.78-3a120.41 120.41 0 0 0 -32-8.27 102.65 102.65 0 0 0 -44.83 4.81c-25.55 8.73-43.46 31.33-45.62 57.57-1.53 18.61 5 36.95 18.76 53l.14.16a139.51 139.51 0 0 0 24.57 21.25c1.08.72 2.14 1.41 3.2 2.06 13.4 8.33 25.11 11.61 34.91 12.14a49.48 49.48 0 0 0 21.24-3.36 16 16 0 0 0 -11.8-29.73 19.82 19.82 0 0 1 -11.06.77c-.59-.11-1.19-.24-1.79-.39-14.23-3.54-29.58-17.54-35.13-23.76-8.28-9.68-11.9-19.33-11.07-29.47 1.05-13.56 10.49-25.26 24.05-29.92 14.39-4.92 29.57-5 45.29-.4.39.11.79.23 1.19.37a.07.07 0 0 1 .06 0 101.65 101.65 0 0 1 13.12 5.12 82.5 82.5 0 0 1 41.71 43.26c4.61 11.26 4.7 18.68 4.68 20.05v.14 4.38 16.85c-.3 19.42-7.37 58.31-19.91 109.54a243.1 243.1 0 0 1 -50.41 99.23 169.16 169.16 0 0 1 -14.57 15.35c-7.46 6.83-11.67 8.83-12.56 9.21a16 16 0 0 0 -12.46 15.56 15.5 15.5 0 0 0 .15 2.14 16 16 0 0 0 15.83 13.86 15.79 15.79 0 0 0 2.16-.15c2.49-.33 7.1-1.57 13.86-5.78 7.77-4.84 18.38-13.62 31.87-29.49a275.37 275.37 0 0 0 57.1-112.34c13.5-55.15 20.51-94.45 20.83-116.81v-17.16c0-1.25 0-2.5 0-3.75v-.14c.16-5.54-.61-17.17-7-32.79z"/><path d="m420 634.8a46.67 46.67 0 0 0 -28.6-9.8h-150.55a47 47 0 0 0 -47 47v72a47 47 0 0 0 47 47h150.55a47 47 0 0 0 47-47v-72a46.88 46.88 0 0 0 -18.4-37.2zm-13.61 109.27a15 15 0 0 1 -15 15h-150.54a15 15 0 0 1 -15-15v-72.07a15 15 0 0 1 15-15h150.55a15 15 0 0 1 15 14.81z"/><path d="m478.6 291.88v59.12c0 1.82 0 3.63-.1 5.43a138.78 138.78 0 0 1 -138.5 133.12h-45.85a138.62 138.62 0 0 1 -97.71-40.35q-3.08-3-6-6.3a16 16 0 0 1 7.64-26 15.33 15.33 0 0 1 1.76-.38 16 16 0 0 1 14.53 5.18 106.64 106.64 0 0 0 79.73 35.88h45.9a106.72 106.72 0 0 0 106.6-106.58v-59.12a51 51 0 0 0 -50.94-50.94h-157.15a51 51 0 0 0 -50.94 50.94v25.93a16 16 0 0 1 -10.67 15.09c-.47.13-1 .28-1.42.43a16.23 16.23 0 0 1 -3.91.48 16 16 0 0 1 -16-16v-25.93a83 83 0 0 1 82.94-82.94h157.15a83 83 0 0 1 82.94 82.94z"/><path d="m471.49 483c-.42 3.48-1 24.88-1.36 40.51-.64 25.27-1 36.75-1.48 40.62-7.71 59.58-24.65 99.53-30.26 111.51-1 2.19-1.67 3.44-1.81 3.72a16 16 0 0 1 -30.19-7.12v-.43a16 16 0 0 1 1.78-7.17c.11-.2 5.21-10.24 11.32-28.3.18-.52.35-1 .53-1.58a400.42 400.42 0 0 0 16.9-74.74c.35-3.19.85-22.92 1.22-37.33.7-27.56 1.07-40.07 1.67-44.22 1-7.07 2.58-19.37 4-35.79 1.84-21.74 3.35-50.71 2.82-84.38a16 16 0 0 1 15.74-16.25h.26a16 16 0 0 1 15.9 14.29c.05.47.08.95.09 1.43.91 59.23-4.08 103.92-7.13 125.23z"/><path d="m278 360.55c-2.18-26.18-20.06-48.74-45.55-57.47a102.63 102.63 0 0 0 -44.89-4.83 120.41 120.41 0 0 0 -32 8.27q-3.39 1.37-6.78 3a114.43 114.43 0 0 0 -57.73 60.11c-6.39 15.62-7.16 27.25-7 32.79v.14 3.75 17.19c.32 22.36 7.33 61.66 20.83 116.81a275.37 275.37 0 0 0 57.12 112.3c13.49 15.87 24.1 24.65 31.87 29.49 6.76 4.21 11.37 5.45 13.86 5.78a15.68 15.68 0 0 0 2.16.15 16 16 0 0 0 15.83-13.86 15.5 15.5 0 0 0 .15-2.14 16 16 0 0 0 -12.35-15.55c-.89-.38-5.1-2.38-12.56-9.21a169.16 169.16 0 0 1 -14.57-15.35 243.1 243.1 0 0 1 -50.39-99.26c-12.54-51.23-19.61-90.12-19.91-109.55v-16.84c0-1.46 0-2.92 0-4.38v-.14c0-1.37.07-8.79 4.68-20.05a82.5 82.5 0 0 1 41.71-43.26 101.21 101.21 0 0 1 13.09-5.11c.47-.15 1-.3 1.42-.43 15.69-4.62 30.83-4.47 45.19.45 13.47 4.62 22.9 16.34 24 29.86.85 10.16-2.77 19.81-11.06 29.5-5.58 6.25-20.94 20.25-35.17 23.78-.59.14-1.17.27-1.76.38a19.81 19.81 0 0 1 -11.08-.76 16 16 0 0 0 -11.84 29.73 49.48 49.48 0 0 0 21.24 3.36c9.8-.53 21.51-3.81 34.91-12.14 1.06-.65 2.12-1.34 3.2-2.06a139.51 139.51 0 0 0 24.57-21.18l.14-.16c13.75-16.11 20.24-34.47 18.67-53.11z"/><path d="m806.14 708.05a16 16 0 0 1 -16 16h-90.26v51a16 16 0 0 1 -32 0v-67a16 16 0 0 1 16-16h106.26a16 16 0 0 1 16 16z"/><path d="m332.12 708.05v67a16 16 0 0 1 -32 0v-51h-90.26a16 16 0 0 1 0-32h106.26a16 16 0 0 1 16 16z"/></g></svg>