<?xml version="1.0"?>
<svg xmlns="http://www.w3.org/2000/svg" viewBox="0 0 64 64"><g id="Bra"><path d="M48.89465,7.32228c-2.32117,3.30413-5.10887,11.208-3.66191,29.97l-3.7838,3.52816C38.22264,7.09775,46.78,5,46.78,5H48Z" style="fill:#d188c3"/><path d="M15.10535,7.32228c2.32117,3.30413,5.10887,11.208,3.66191,29.97l3.7838,3.52816C25.77736,7.09775,17.22,5,17.22,5H16Z" style="fill:#d188c3"/><path d="M62.13477,43.9C56.00928,42.462,54,26,54,26s1.34161-12.09106-2.30267-19.41833a2.93635,2.93635,0,0,0-2.64417-1.58173L46.77673,5C51.55341,12,50,26,50,26,44,41,32,45,32,45S20,41,14,26c0,0-1.55341-14,3.22327-21l-2.27643-.00006a2.93635,2.93635,0,0,0-2.64417,1.58173C8.65839,13.90894,10,26,10,26S7.99072,42.462,1.86523,43.9A1.00945,1.00945,0,0,0,1.06274,44.941l.875,13.12549A1.00007,1.00007,0,0,0,2.93555,59h58.1289a1.00007,1.00007,0,0,0,.99781-.93347l.875-13.12549A1.00945,1.00945,0,0,0,62.13477,43.9Z" style="fill:#eaacde"/><path d="M63,43.99991C56.197,44,54,26,54,26s1.40849-12.69378-2.581-19.9506A2.01783,2.01783,0,0,0,49.6517,4.9999L46.77673,5C51.55341,12,50,26,50,26,44,41,32,45,32,45S20,41,14,26c0,0-1.55341-14,3.22327-21l-2.875-.0001A2.01783,2.01783,0,0,0,12.581,6.0494C8.59151,13.30622,10,26,10,26S7.803,44,1,43.99991L2,59H62Z" style="fill:#eaacde"/><polygon points="1.733 55 2 59 62 59 62.267 55 1.733 55" style="fill:#d188c3"/><path d="M63.73047,43.31641A1.00122,1.00122,0,0,0,63,43c-4.78613,0-7.41992-12.46973-7.99316-17.00879.13964-1.36328,1.165-12.65918-2.41407-19.85449A3.95569,3.95569,0,0,0,49.05273,4H46.77637a1.95667,1.95667,0,0,0-.27576.03955c-1.05511.28265-8.81952,3.43274-6.26623,34.37354a.94564.94564,0,0,0,.02868.10266A28.78283,28.78283,0,0,1,32,43.93066a28.78283,28.78283,0,0,1-8.26306-5.41491.948.948,0,0,0,.02869-.10266C26.31891,7.47229,18.5545,4.3222,17.49939,4.03955A1.79756,1.79756,0,0,0,17.22363,4H14.94727a3.95569,3.95569,0,0,0-3.54,2.13672C7.82813,13.333,8.85352,24.62891,8.99316,25.99121,8.4209,30.53027,5.79,43,1,43a.99946.99946,0,0,0-.998,1.06641l1,15A1.00043,1.00043,0,0,0,2,60H62a1.00043,1.00043,0,0,0,.998-.93359l1-15A1.00228,1.00228,0,0,0,63.73047,43.31641ZM45.91168,31.77686c-.4024-10.89863.81677-17.2414,2.2627-20.91779,1.59131,6.29022.95007,13.81525.84515,14.89972A36.48355,36.48355,0,0,1,45.91168,31.77686Zm.52954-25.41828a14.58866,14.58866,0,0,1,.82831,1.70691c-2.0086,3.69629-4.089,11.21881-3.23456,26.36127q-.9516,1.21719-1.9234,2.257C40.42242,13.63824,44.78357,7.73956,46.44122,6.35858ZM21.88831,36.68365q-.96909-1.0371-1.92328-2.25689c.85443-15.14246-1.226-22.665-3.23456-26.36127a14.60233,14.60233,0,0,1,.82843-1.70715C19.21686,7.74005,23.57721,13.63947,21.88831,36.68365ZM15.82562,10.85907c1.44593,3.67639,2.6651,10.01916,2.2627,20.91779a36.48355,36.48355,0,0,1-3.10785-6.01807C14.87555,24.67432,14.23431,17.14929,15.82562,10.85907Zm-4.83343,15.262a1.01961,1.01961,0,0,0,.00195-.23144c-.01367-.11817-1.26953-11.87891,2.2041-18.86231A1.94269,1.94269,0,0,1,14.94727,6h.52929c-3.81445,7.48828-2.53125,19.56348-2.4707,20.11035a.99211.99211,0,0,0,.06543.26074C19.17383,41.627,31.17578,45.7793,31.68359,45.94824a1.002,1.002,0,0,0,.63282,0c.50781-.16894,12.50976-4.32129,18.6123-19.57715a.99172.99172,0,0,0,.06543-.26074C51.05469,25.56348,52.33789,13.48828,48.52344,6h.52929a1.94269,1.94269,0,0,1,1.749,1.02734c3.46875,6.97461,2.21777,18.74414,2.2041,18.86231a1.01913,1.01913,0,0,0,.002.23144c.22364,1.83789,2.30078,17.25586,8.93164,18.76075L61.33124,54H2.66876l-.60821-9.11816C8.69141,43.377,10.76855,27.959,10.99219,26.12109ZM2.93555,58l-.13343-2H61.19788l-.13343,2Z" style="fill:#2c3638"/></g></svg>
