<svg id="Layer_1" viewBox="0 0 96 96" xmlns="http://www.w3.org/2000/svg" data-name="Layer 1"><path d="m89.64 6.39-2.99-2.25c-.4-.3-.96-.26-1.31.1l-4 4c-5.72 5.72-6.27 12.35-6.29 12.7 0 4.69-6.77 7.57-10.81 8.88 1.46-1.53 2.39-3.09 2.78-4.63.71-2.84.93-5.2 1-6.35.05-.96-.58-1.83-1.52-2.06l-2.18-.55c-.53-.13-1.07-.05-1.53.23s-.78.72-.9 1.24c-.52 2.2-1.77 5.88-1.79 5.92 0 .05-.03.09-.03.14-.34 1.81-3.09 2.86-6.47 3.95l.94-.98c3.25-3.37 2.49-7.01 2.34-7.58l-.71-4.37c-.05-.28-.21-.53-.45-.68-.25-.15-.54-.19-.82-.12-.16.05-3.99 1.22-5.32 5.5-1.06 3.41-.26 8.02.06 9.52-1.69.58-3.42 1.23-5.04 2.05-4.28 2.17-8 5.62-11.1 10.27-.61-1.1-1.75-2.49-3.83-4.16-1.09-.87-1.86-1.96-2.41-3.12.49.1 1.07.18 1.72.18 1.25 0 2.74-.28 4.26-1.17 3.66-2.13 6.51-7.3 6.63-7.52.18-.32.16-.71-.03-1.01-.2-.31-.54-.48-.91-.46l-4.46.29c-4.68.31-6.57 3.5-6.85 4.02l-1.42 2.19c-.25-1.51-.25-2.87-.22-3.72.05-.99-.63-1.86-1.6-2.05l-3.36-.67c-.95-.19-1.89.32-2.25 1.21-.94 2.36-2.6 8.76 2.42 17.13 4.2 7-8.35 19.91-16.43 26.44-.44.35-.71.87-.74 1.43-.23 3.72.13 7.38 1.06 10.87 1.05 3.92 2.05 7.62 5.47 9.61 1.42.83 3.06 1.25 4.88 1.25.39 0 .79-.02 1.2-.06.64-.06 1.2-.41 1.53-.95 1.47-2.43 4.89-8.36 4.89-11.09.04-.3.89-1.29 3.22-2.49 4.86-2.52 14.55-5.02 21.33-1.63 1.63.81 3.27 1.35 4.86 1.67-.68 1.15-1.47 2.94-1.09 4.63.25 1.16 1.02 2.09 2.23 2.7l6 3c.14.07.3.1.45.1.29 0 .58-.13.78-.37.25-.32 2.48-3.2 1.9-5.82-.25-1.17-1.03-2.1-2.23-2.7l-2.37-1.18c4.57-.32 8.24-1.93 9.71-2.68.79-.4 1.22-1.29 1.04-2.17l-.62-3.11c-.11-.57-.47-1.07-.98-1.35-.51-.29-1.12-.33-1.67-.13-4.86 1.79-11.12 3.1-12.76.91-2.46-3.28-9.3-4.67-13.15-5.2l5.14-8.57c2.57-2.5 8.09-6.71 10.61-4.83 3.29 2.47 9.7 4.27 12.31 4.92.54.14 1.11.04 1.57-.26.47-.31.79-.8.88-1.35l.61-3.64c.1-.61-.08-1.21-.49-1.67-.4-.45-.97-.7-1.58-.66-1.58.09-4.58-.04-7.1-1.94-3.02-2.26-8.55-3.42-11.57-3.93 1.61-1.03 5.18-2.27 12.97-2.27 2.96 0 5.47-.64 7.59-1.61.18 1.3.89 4.05 3.7 5.93 3.52 2.35 9.41 2.67 9.66 2.68h.05c.35 0 .67-.18.85-.47.19-.31.2-.7.02-1.02l-2.21-3.89c-2.32-4.07-6.02-4.37-6.62-4.39l-2.78-.36c1.82-1.25 3.24-2.72 4.31-4.09 3.58-4.59 5.07-10.33 4.4-13.02-.45-1.79 2.58-5.79 7.72-10.2.47-.4.72-.97.7-1.58s-.31-1.17-.8-1.53zm-60.31 23.04s.04-.07.06-.11c.05-.11 1.42-2.73 5.21-2.98l2.52-.16c-1.06 1.6-2.88 3.97-4.88 5.14-1.82 1.07-3.56.98-4.64.76zm22.16-9.35c.63-2.01 1.97-3.12 2.92-3.69l.51 3.13s.01.08.02.11c.04.12.79 2.98-1.84 5.72l-1.76 1.82c-.28-1.9-.54-4.88.15-7.09zm8.11 60.76c.67.33 1.05.77 1.18 1.33.24 1.11-.47 2.58-1.05 3.49l-5.23-2.61c-.67-.33-1.05-.77-1.18-1.34-.25-1.1.47-2.57 1.05-3.49zm16.29-41.68h.13s3.04.05 4.95 3.39l1.25 2.2c-1.9-.26-4.83-.86-6.76-2.15-1.75-1.17-2.44-2.77-2.71-3.84zm4.19-18.97c.47 1.89-.69 7.01-4.04 11.3-2.3 2.94-6.42 6.45-12.99 6.45s-11.41.9-14.05 2.59c-.71.46-1.06 1.28-.89 2.1s.81 1.43 1.64 1.57c2.29.37 7.93 1.46 10.7 3.54 3.03 2.28 6.57 2.44 8.4 2.34l-.61 3.64c-2.48-.62-8.59-2.32-11.59-4.58-4.33-3.25-11.76 3.59-13.2 4.99-.13.12-.23.26-.32.41l-5.15 8.57c-.34.58-.38 1.28-.09 1.89s.86 1.02 1.53 1.12c5.95.82 10.37 2.48 11.83 4.42 2.71 3.62 10.59 1.41 15.05-.24l.63 3.11c-2.29 1.17-10.39 4.66-18.43.64-7.78-3.89-19.19-.88-24.46 2.38-1.99 1.23-2.99 2.41-2.99 3.51 0 1.84-2.48 6.57-4.61 10.07-1.88.17-3.52-.14-4.89-.93-2.7-1.58-3.51-4.59-4.54-8.4-.88-3.28-1.21-6.72-.99-10.22h-.01c3.86-3.11 22.81-19.16 16.9-29.02-4.56-7.6-3.12-13.27-2.28-15.35l3.36.67c-.11 2.44.1 8.51 4.43 11.97 3.38 2.71 3.82 4.42 3.73 4.78l.9.44.86.51c3.14-5.4 7.04-9.3 11.59-11.62 2.37-1.2 4.95-2.02 7.44-2.81 4.52-1.43 8.43-2.67 9.08-5.82.17-.52 1.3-3.88 1.81-6.03l2.19.55c-.07 1.08-.27 3.3-.94 5.98-.3 1.21-1.07 2.46-2.29 3.73-.63.67-.73 1.65-.24 2.43.49.79 1.42 1.13 2.31.85 5.56-1.79 12.19-5.11 12.19-10.69 0-.06.51-6.17 5.71-11.37l3.38-3.39 2.3 1.72c-4.29 3.68-9.22 8.78-8.36 12.21z"/><g fill="#66bb6a"><path d="m37.12 26.18c-1.06 1.6-2.88 3.97-4.88 5.14-1.82 1.07-3.56.98-4.64.76l1.73-2.65s.04-.07.06-.11c.05-.11 1.42-2.73 5.21-2.98z"/><path d="m53.1 25.35-1.76 1.82c-.28-1.9-.54-4.88.15-7.09.63-2.01 1.97-3.12 2.92-3.69l.51 3.13s.01.08.02.11c.04.12.79 2.98-1.84 5.72z"/><path d="m82.22 44.75c-1.9-.26-4.83-.86-6.76-2.15-1.75-1.17-2.44-2.77-2.71-3.84l3.14.4h.13s3.04.05 4.95 3.39z"/><path d="m59.73 85.66-5.23-2.61c-.67-.33-1.05-.77-1.18-1.34-.25-1.1.47-2.57 1.05-3.49l5.23 2.62c.67.33 1.05.77 1.18 1.33.24 1.11-.47 2.58-1.05 3.49z"/></g><path d="m88.44 7.98-2.3-1.72-3.38 3.39c-5.2 5.2-5.71 11.31-5.71 11.37 0 5.58-6.63 8.9-12.19 10.69-.89.28-1.82-.06-2.31-.85-.49-.78-.39-1.76.24-2.43 1.22-1.27 1.99-2.52 2.29-3.73.67-2.68.87-4.9.94-5.98l-2.19-.55c-.51 2.15-1.64 5.51-1.81 6.03-.65 3.15-4.56 4.39-9.08 5.82-2.49.79-5.07 1.61-7.44 2.81-4.55 2.32-8.45 6.22-11.59 11.62l-.86-.51-.9-.44c.09-.36-.35-2.07-3.73-4.78-4.33-3.46-4.54-9.53-4.43-11.97l-3.36-.67c-.84 2.08-2.28 7.75 2.28 15.35 5.91 9.86-13.04 25.91-16.9 29.02h.01c-.22 3.5.11 6.94.99 10.22 1.03 3.81 1.84 6.82 4.54 8.4 1.37.79 3.01 1.1 4.89.93 2.13-3.5 4.61-8.23 4.61-10.07 0-1.1 1-2.28 2.99-3.51 5.27-3.26 16.68-6.27 24.46-2.38 8.04 4.02 16.14.53 18.43-.64l-.63-3.11c-4.46 1.65-12.34 3.86-15.05.24-1.46-1.94-5.88-3.6-11.83-4.42-.67-.1-1.24-.51-1.53-1.12s-.25-1.31.09-1.89l5.15-8.57c.09-.15.19-.29.32-.41 1.44-1.4 8.87-8.24 13.2-4.99 3 2.26 9.11 3.96 11.59 4.58l.61-3.64c-1.83.1-5.37-.06-8.4-2.34-2.77-2.08-8.41-3.17-10.7-3.54-.83-.14-1.47-.75-1.64-1.57s.18-1.64.89-2.1c2.64-1.69 7.5-2.59 14.05-2.59s10.69-3.51 12.99-6.45c3.35-4.29 4.51-9.41 4.04-11.3-.86-3.43 4.07-8.53 8.36-12.21zm-53.39 61.96c-.09 0-8.71.05-13.38 3.78-4.74 3.8-7.67 10.55-7.7 10.62-.17.38-.53.6-.92.6-.13 0-.27-.02-.4-.08-.5-.22-.74-.8-.52-1.31.13-.3 3.16-7.28 8.29-11.39 5.22-4.17 14.25-4.22 14.63-4.22.55 0 1 .45 1 1s-.45 1-1 1z" fill="#795548"/><path d="m36.05 68.94c0 .56-.45 1-1 1-.09 0-8.71.05-13.38 3.78-4.74 3.8-7.67 10.55-7.7 10.62-.17.38-.53.6-.92.6-.13 0-.27-.02-.4-.08-.5-.22-.74-.8-.52-1.31.13-.3 3.16-7.28 8.29-11.39 5.22-4.17 14.25-4.22 14.63-4.22.55 0 1 .45 1 1z"/><path d="m86.5 86.05-4-2c-4.19-2.09-7.44-.29-7.94.02l-3.96 1.98c-.26.13-.44.36-.52.64-.07.27-.02.57.14.81.09.14 2.35 3.44 6.83 3.44 4.23 0 9.3-3.01 9.51-3.14.32-.19.5-.53.49-.89-.02-.37-.23-.7-.55-.86zm-9.45 2.89c-2.11 0-3.57-.94-4.38-1.69l2.83-1.41s.07-.04.1-.06c.1-.07 2.6-1.64 6 .06l2.27 1.13c-1.73.84-4.5 1.97-6.82 1.97z"/><path d="m83.87 86.97c-1.73.84-4.5 1.97-6.82 1.97-2.11 0-3.57-.94-4.38-1.69l2.83-1.41s.07-.04.1-.06c.1-.07 2.6-1.64 6 .06z" fill="#66bb6a"/><path d="m91.71 76.25-3.36-2.95c-3.52-3.1-7.11-2.18-7.68-2.01l-4.33.91c-.28.05-.52.23-.66.48-.15.25-.17.55-.08.82.05.16 1.39 3.93 5.73 5.07 1.01.27 2.13.37 3.23.37 3.34 0 6.59-.92 6.77-.98.35-.1.62-.38.69-.74.08-.36-.04-.73-.31-.97zm-9.87.39c-2.04-.54-3.21-1.83-3.81-2.75l3.1-.65s.08-.02.11-.03c.12-.04 2.94-.92 5.79 1.59l1.9 1.67c-1.88.37-4.85.76-7.09.17z"/><path d="m88.93 76.47c-1.88.37-4.85.76-7.09.17-2.04-.54-3.21-1.83-3.81-2.75l3.1-.65s.08-.02.11-.03c.12-.04 2.94-.92 5.79 1.59z" fill="#66bb6a"/><path d="m43.82 90.14-2.86-3.44c-2.99-3.61-6.69-3.26-7.28-3.18l-4.41.22c-.29.02-.56.15-.74.38-.17.22-.25.51-.2.79.03.17.76 4.1 4.87 5.91 2.07.91 4.72 1.13 6.77 1.13 1.77 0 3.09-.17 3.2-.18.37-.05.67-.29.81-.63.13-.34.07-.72-.16-1zm-9.82-1.15c-1.92-.85-2.88-2.31-3.33-3.32l3.16-.15s.08 0 .12 0c.12-.03 3.05-.46 5.47 2.46l1.62 1.95c-1.92.08-4.9 0-7.04-.93z"/><path d="m41.04 89.92c-1.92.08-4.9 0-7.04-.93-1.92-.85-2.88-2.31-3.33-3.32l3.16-.15s.08 0 .12 0c.12-.03 3.05-.46 5.47 2.46l1.62 1.95z" fill="#66bb6a"/></svg>