<svg id="Layer_1" enable-background="new 0 0 512 512" height="512" viewBox="0 0 512 512" width="512" xmlns="http://www.w3.org/2000/svg"><g id="_x30_8_Branch"><g><path d="m451.1 458.8-1.8 6.4c-1.7 5.9-7.8 9.2-13.7 7.4-70.1-21.4-130.5-55.8-181.6-95.3-3.3-2.6-7.8-3.1-11.5-1.2-36.8 18.3-73.5 23.9-104.6 23.9-30.2 0-55.2-5.3-70.1-9.4-8.1-2.2-12.4-11-9.4-18.8v-.1c2.6-6.7 9.9-10.3 16.9-8.5 23.2 6.3 76.7 16.4 133.1-3.4 7.6-2.7 9.6-12.4 3.6-17.8-44.7-40.7-80.6-84.1-108.1-122.6-58.9-82.4-90.4-156.4-99.9-180.4-1.7-4.4.5-9.3 4.9-10.9 3.5-1.3 7.6-2.7 11-4 4.2-1.5 8.9.6 10.5 4.8 7.7 19.3 30.9 73.8 71.8 137.6 4.9 7.6 16.5 6.2 19.2-2.3 17.7-54.9 7.8-106.1 1.7-128.4-1.9-6.8 1.7-13.9 8.2-16.4.1-.1.3-.1.4-.2 7.8-3.1 16.6 1.3 18.8 9.4 8.5 30.6 21.7 103.1-15.3 176.2-1.8 3.5-1.4 7.8 1 11 49.2 66.1 123 144 223.1 195.4 5.3 2.7 11.8.6 14.3-4.8 28.7-62.7 16.9-124.8 10-150-1.9-6.8 1.7-13.8 8.2-16.4.1-.1.3-.1.4-.2 7.8-3.1 16.6 1.3 18.8 9.4 8.2 29.5 20.7 98-11.5 168.4-2.5 5.5 0 12.1 5.7 14.3 12.5 5 25.3 9.5 38.5 13.5 5.9 1.8 9 7.7 7.4 13.4z" fill="#b37f59"/><g fill="#a1d51c"><path d="m460.1 292.5c-6.4.2-11.8-2.1-14.3-8.9-1.8-4.9-1.9-11.2-.3-16.6-4.1-.9-7.3-3.4-9.2-8.4-.7-1.9-.8-4.1-.4-6.4 1.8-12.2 14.2-20 26.2-16.8 6.9 1.8 14.8 3.9 21.3 5.7 9.5 3.1 17.8 4.3 22.6 4.5 2.2.1 3.6 2.3 2.7 4.3-2.5 5.5-7.5 14.4-14 21.1-7.3 8.5-16.6 14.1-22.4 17.6-3.7 2.4-7.9 3.8-12.2 3.9z"/><path d="m148.8 315.7c3.2 5.4 3.8 11.1-.8 16.5-3.3 3.9-8.7 7-14.1 8.1 1.1 3.9.5 7.9-2.8 11.8-1.3 1.5-3.1 2.6-5.3 3.4-11.4 4.2-23.8-2.7-26.8-14.5-1.7-6.8-3.7-14.5-5.2-21-1.9-9.6-4.8-17.3-6.9-21.5-1-1.9.3-4.2 2.4-4.4 5.9-.5 15.9-.4 24.7 2 10.8 2.2 20 7.6 25.7 10.8 3.8 2.2 7 5.1 9.1 8.8z"/><path d="m372.5 317.5c4.7 4.4 6.9 9.8 3.9 16.4-2.2 4.8-6.6 9.3-11.6 12 2.2 3.5 2.7 7.6.6 12.4-.8 1.8-2.3 3.4-4.2 4.8-9.9 7.4-24.1 4.1-30.4-6.6-3.6-6.1-7.7-13.2-11.1-19.1-4.6-8.9-9.5-15.6-12.8-19.1-1.5-1.6-.9-4.2 1.2-5 5.6-2.1 15.5-4.9 24.8-5.1 11.2-.9 21.7 1.8 28.3 3.3 4.2 1.1 8.2 3.1 11.3 6z"/><path d="m204.1 156.1c-6.7.2-12.3-2.2-15-9.3-1.9-5.1-2-11.8-.3-17.4-4.3-1-7.6-3.6-9.6-8.8-.7-2-.8-4.2-.5-6.7 1.9-12.8 14.8-20.9 27.4-17.6 7.2 1.9 15.5 4.1 22.3 5.9 9.9 3.2 18.6 4.5 23.6 4.7 2.3.1 3.8 2.4 2.8 4.5-2.6 5.7-7.8 15.1-14.6 22.1-7.7 8.9-17.4 14.8-23.4 18.4-3.7 2.6-8.1 4-12.7 4.2z"/><path d="m198.7 463.8c-4.7-6.4-6.1-13.4-1-20.7 3.7-5.3 10-9.8 16.7-11.8-1.9-4.8-1.6-9.8 2.1-15.1 1.4-2 3.6-3.6 6.1-4.9 13.7-6.7 30.1.5 35.2 14.8 3 8.2 6.4 17.7 9.1 25.5 3.5 11.8 8 21 11.2 26 1.4 2.3.1 5.3-2.5 5.8-7.3 1.3-19.8 2.4-31.1.5-13.7-1.5-25.8-7-33.4-10.4-4.9-2.2-9.3-5.4-12.4-9.7z"/></g><g><path d="m81.5 224.1c1.5-1 1.8-3.1.8-4.5-1.8-2.5-3.5-5-5.2-7.5-1-1.5-3-1.9-4.5-.9s-1.9 3-.9 4.5c1.7 2.5 3.4 5 5.2 7.6 1.1 1.5 3.1 1.8 4.6.8z"/><path d="m66.5 202.1c1.5-1 1.9-3 1-4.5-9.1-13.9-17.8-28.1-26-42.2-.9-1.6-2.9-2.1-4.5-1.2s-2.1 2.9-1.2 4.5c8.2 14.2 17.1 28.5 26.2 42.5 1 1.5 3 1.9 4.5.9z"/><path d="m458.7 482.5c-2.2 2.2-4.7 3.9-7.4 5.3-1.6.8-2.3 2.7-1.5 4.4.8 1.6 2.7 2.3 4.4 1.5 3.4-1.7 6.5-3.9 9.2-6.5 1.3-1.3 1.3-3.3 0-4.6-1.4-1.4-3.4-1.4-4.7-.1z"/><path d="m436.1 490.6c-8.6-.7-42.6-13.7-51-17.1-1.7-.7-3.6.1-4.3 1.8s.1 3.6 1.8 4.3c9.1 3.7 43.3 16.8 52.9 17.6 1.8.1 3.4-1.2 3.5-3 .2-1.9-1.1-3.5-2.9-3.6z"/><path d="m511 245.4c-1.1-1.8-3-2.9-5.2-3s-10.4-.7-21.8-4.4c-6.5-1.8-14.5-3.9-21.4-5.7-6.8-1.8-14-.6-19.8 3.3-9.5 6.3-12.3 17.7-9.8 24.2 1.3 3.3 3.1 5.9 5.6 7.7-3.5 2-8.6 4.2-13.2 3.7-2.7-.3-4.9-1.6-6.7-3.7-1.5-7.7-3.1-14.1-4.4-19.1-2.6-9.2-12.2-14.9-21.7-12.1-8.4 2.4-14.8 10.9-12 20.9 4.7 16.9 12.1 53.1 5.8 95.1-3.7-4.3-9.2-6.7-13.7-8.1 2.9-2.6 5.2-5.8 6.7-9 2.3-5.1 3.3-12.6-4.6-20.1-6-5.6-13.1-6.8-13.5-6.9-6.9-1.6-17.3-4.1-28.4-3.3-9.4.2-19.5 2.9-25.9 5.3-2 .8-3.4 2.4-3.9 4.5s.1 4.2 1.5 5.8c1.5 1.6 6.9 7.8 12.4 18.5 3.3 5.9 7.5 13 11.1 19.1 3.5 6 9.5 10.3 16.3 11.7 6.9 1.4 13.6-.2 18.8-4.1 5.4-3.9 7.6-10.1 6.8-15.5 3.9 1.1 9.1 3.1 12 6.8 2.8 3.6 2.1 6.9 2.1 8.6-2.8 12.9-7.1 26.2-13.1 39.5-1.7 3.7-6.3 5.1-9.8 3.3-103.4-53.1-177.8-135-222-194.5-1.6-2.2-1.9-5.1-.7-7.6 11.7-23.2 18.4-46.5 21.9-68.3 2.1 1.3 4.5 2.2 7.1 2.5.7.1 1.5.1 2.2.1 5.5 0 10.9-2.2 14.9-4.4-.2 4.1.3 8.3 1.7 11.8 2.8 7.4 8.8 11.7 18.1 11.4 12.7-.4 30.9-14.6 38.4-23.4 6.8-7.1 12.3-16.5 15.2-23 .9-2 .7-4.2-.4-6.1-1.1-1.8-3.1-3-5.3-3.1-2.3-.1-10.9-.7-22.9-4.6-6.8-1.9-15.1-4.1-22.3-5.9-14.2-3.7-29.2 5.4-31.4 20.3-1.1 7 1.9 13.1 6.6 16.5-3.9 2.3-9.4 4.5-14.1 4-2.7-.3-4.9-1.5-6.8-3.6 5.7-45.4-2.3-83.9-7.5-102.7-3.3-11.9-14.6-14.8-23.3-11.5-7.5 2.8-13.2 10.2-10.4 20.4 5.4 19.7 16.1 71.6-1.7 126.6-1.9 5.9-9.9 6.9-13.4 1.6-40.6-63.4-63.5-117-71.5-137-2.3-5.8-8.8-8.7-14.7-6.6l-11 4c-6.1 2.2-9.3 9-6.9 15.1 41.5 105.6 118.4 221.8 208.9 304.3 4.1 3.7 2.7 10.5-2.5 12.3-23.5 8.3-46.7 11.2-67.1 11.4.2-4.7 3.3-14.1-1.8-25.8 4.7-1.7 9.1-4.6 12.1-8.1 6.7-7.9 6.8-18.4-9.7-30.4-6-3.4-15.2-8.6-25.9-10.8-8.9-2.4-19.2-2.6-25.8-2.1-2.1.2-3.9 1.4-5 3.2-1 1.8-1.1 4-.1 5.9s4.3 9.2 6.6 20.8c1.6 6.4 3.5 14.2 5.3 21 3.4 13.4 17.7 21.7 31.1 16.7 3.8-1.4 5.9-3.2 7.6-5.6.6 4.8-.9 14.9-.9 15.2-25.6-.5-46.4-5-57.5-8-8.6-2.3-17.5 2.2-20.8 10.5-3.8 9.6 1.6 20.4 11.5 23.1 39 10.8 82.8 12.8 123.3 4-1.4 14.5 10.6 26.8 17.6 32.6-5.2 2.6-9.8 6.5-12.9 10.8-5.4 7.7-5 16.2 1 24.5 3.4 4.6 8.1 8.3 13.7 10.8 11.1 5 21.6 9.3 34.2 10.6 10.1 1.7 22.5 1.2 32.2-.6 2.3-.4 4.3-2 5.2-4.1.9-2.2.8-4.6-.5-6.6-1.5-2.3-6.6-11-10.8-25.3-2.5-7.2-5.8-16.5-9.1-25.6-2.8-7.9-8.9-14.2-16.7-17.3-7.6-3.1-15.8-2.8-23.1.7-6.8 3.3-10.4 9.1-11.1 15.3-6.4-5.9-15.4-16.3-12.9-27.4 16.3-4 32-9.7 46.9-17.2 2.6-1.3 5.7-1 8.1.9 56.9 44 118.3 76.2 182.6 95.8 3.6 1.1 7.5.8 11-1.1 3.4-1.8 5.8-4.9 6.8-8.5l1.8-6.4c2.1-7.3-2.2-15.1-9.4-17.3-12.8-3.9-25.7-8.4-38.3-13.4-1.9-.7-3.3-2.2-4.1-4-.8-1.9-.7-4 .2-5.9 24.8-54.2 23.3-107.6 17.7-142.4 2.1.9 4.3 1.3 6.6 1.3 5.2 0 10.3-2 14.1-4.1-.5 11 4.2 20.6 15.6 21.9 9.9 1.1 17.6-4.3 18-4.5 6-3.7 15.1-9.3 22.4-17.8 6.5-6.8 11.8-15.8 14.6-22.1.6-2.2.5-4.4-.7-6.2zm-151.9 115.1c-3.9 2.9-8.8 4-13.6 3-5-1-9.4-4.2-12-8.6-3.6-6.1-7.7-13.2-11-18.9-5.6-11-11.3-17.6-13.1-19.7 5.9-2.2 15-4.6 23.7-4.8 10.3-.8 20.1 1.6 26.6 3.1.4.1 5.8.9 10.5 5.3 4.2 4 5.2 8 3.1 12.7-1.6 3.6-4.7 7-8.4 9.4l-15.5-11.2c-1.5-1.1-3.5-.7-4.6.7-1.1 1.5-.7 3.5.7 4.6l16.6 12c2.2 3.8 1.7 8.9-3 12.4zm-177.2-246c1.6-11 12.8-17.7 23.3-14.9 7.2 1.9 15.5 4.1 22.1 5.9 12.7 4.1 21.9 4.7 24.5 4.8-2.7 6-7.8 14.7-14.1 21.3-6.7 7.9-23.4 20.9-33.8 21.3-6.2.2-9.9-2.1-11.8-7.2-1.5-3.9-1.7-8.9-.7-13.4l19.8-3.2c1.8-.3 3-2 2.7-3.7-.3-1.8-2-3-3.7-2.7l-21.2 3.4c-4.5-1.3-8.1-5.5-7.1-11.6zm41.9 299.7c5.6-2.7 11.9-2.9 17.8-.5 6 2.5 10.8 7.4 13 13.5 3.3 9 6.6 18.3 9 25.4 4.4 14.9 9.9 24.3 11.5 26.8.1.2.1.3 0 .5s-.2.3-.4.3c-7.6 1.4-19.5 2.3-30.2.5-11.8-1.3-22-5.5-32.4-10.1-4.5-2-8.4-5-11.1-8.7-4.4-6.1-4.7-11.4-.9-16.9 2.9-4.2 7.8-7.9 13.1-9.9l16.5 17.3c1.2 1.3 3.3 1.4 4.6.1 1.3-1.2 1.4-3.3.1-4.6l-17.4-18.4c-1.9-5.5.1-12 6.8-15.3zm-99.3-61.8c-9.6 3.6-20-2.4-22.5-12.2-1.7-6.7-3.7-14.5-5.2-20.8-2.3-11.7-5.8-19.5-7-22 6.1-.5 15.3-.2 23.4 1.9 9.9 2.1 18.5 6.9 24.2 10.1 8 5.8 14.3 13 7.9 20.5-2.5 2.9-6.3 5.3-10.3 6.5-5.4-7.8-12.3-11.4-12.4-11.4-1.6-.8-3.6-.2-4.4 1.5-.8 1.6-.2 3.6 1.5 4.4.1.1 6.7 3.5 11.1 11 .8 4-1 8.6-6.3 10.5zm272.1 63.9c-1.6 3.5-1.7 7.5-.3 11s4.2 6.3 7.7 7.7c12.7 5.1 25.8 9.6 38.8 13.6 3.9 1.2 6.1 5.3 5 9.3l-1.8 6.4c-.6 2-1.8 3.6-3.6 4.6s-3.9 1.2-5.9.6c-63.5-19.4-124.3-51.2-180.5-94.7-4.4-3.4-10.1-4-15-1.5-54.4 27-117.5 29.5-172.5 14.3-6.2-1.7-9.6-8.4-7.2-14.6 2-5.2 7.6-7.9 13-6.5 26.4 7.1 79 16.2 135-3.5 9.9-3.5 12.5-16.2 4.8-23.3-89.4-81.6-165.8-196.6-207.2-301.9-1-2.7.3-5.6 3-6.6l11-4c2.6-.9 5.4.3 6.4 2.9 8.1 20.3 31.2 74.3 72.1 138.2 6.4 9.9 21.5 8.1 25.1-3.1 17.6-54.6 8.7-105.1 1.7-130.3-1.8-6.4 1.9-11 6.8-12.7 5.5-1.9 12.3 0 14.4 7.3 7.7 28 21.8 100.9-15 173.9-2.4 4.7-1.9 10.2 1.3 14.4 44.6 60 119.7 142.7 224.3 196.4 6.9 3.5 15.5.8 18.8-6.4 29.4-64.1 16.9-127.8 10.2-152.2-1.7-6.1 2.3-11.4 7.6-12.9 5.8-1.7 12 1.6 13.6 7.6 7.1 26.3 20.7 95.6-11.6 166zm95.4-147.3c-6.7 7.9-15.3 13.1-21 16.6-.9.4-6.5 4.5-14 3.6-8.9-1.2-10.7-11.2-9-19.2l18.8-3c1.8-.3 3-2 2.7-3.7-.3-1.8-2-3-3.7-2.7l-20.2 3.3c-3.1-.9-5.1-2.8-6.4-6.2-1.4-3.6.3-11.9 7.3-16.5 4.2-2.8 9.5-3.7 14.6-2.4 6.9 1.8 14.8 3.9 21.1 5.6 11.7 3.8 20.4 4.5 23.2 4.6-2.6 5.6-7.4 13.8-13.4 20z"/></g></g></g></svg>