<svg height="512" viewBox="0 0 128 128" width="512" xmlns="http://www.w3.org/2000/svg"><g><g><path d="m109.052 48.027c0-11.2-11.758-20.284-26.271-20.284h-37.468a32.746 32.746 0 0 1 5.09.389 29.212 29.212 0 0 1 4.744 1.091 27.831 27.831 0 0 1 8.905 4.593c4.658 3.675 7.522 8.678 7.522 14.211a16.374 16.374 0 0 1 -2.248 8.214c0 .065.011.129.011.2v34.068a9.746 9.746 0 0 1 -9.748 9.748h37.468a9.75 9.75 0 0 0 9.747-9.748v-34.063c0-.076-.01-.14-.01-.2a16.384 16.384 0 0 0 2.258-8.219z" fill="#fc852d"/><path d="m69.326 56.241c0 .065.011.129.011.2v34.068a9.746 9.746 0 0 1 -9.748 9.748h-28.552a9.75 9.75 0 0 1 -9.748-9.748v-34.063c0-.076.011-.14.011-.2a16.487 16.487 0 0 1 -2.248-8.214c0-11.2 11.758-20.284 26.261-20.284a32.746 32.746 0 0 1 5.09.389 29.212 29.212 0 0 1 4.744 1.091 27.831 27.831 0 0 1 8.905 4.593c4.658 3.675 7.522 8.678 7.522 14.211a16.374 16.374 0 0 1 -2.248 8.209z" fill="#fecd1a"/><g fill="#212f68"><path d="m81.657 92.259a1.749 1.749 0 0 1 -1.75-1.75v-34.063c0-.047-.011-.159-.011-.2a1.751 1.751 0 0 1 .233-.873 14.579 14.579 0 0 0 2.015-7.341 14.331 14.331 0 0 0 -1.028-5.312 1.75 1.75 0 1 1 3.252-1.293 17.8 17.8 0 0 1 -.961 15.255v33.827a1.749 1.749 0 0 1 -1.75 1.75z"/><path d="m94.669 92.259a1.749 1.749 0 0 1 -1.75-1.75v-34.063c0-.047-.011-.159-.011-.2a1.751 1.751 0 0 1 .233-.873 14.583 14.583 0 0 0 2.014-7.341 14.319 14.319 0 0 0 -1.028-5.312 1.75 1.75 0 1 1 3.252-1.293 17.8 17.8 0 0 1 -.96 15.255v33.827a1.75 1.75 0 0 1 -1.75 1.75z"/></g></g><g fill="#212f68"><path d="m21.237 72.435a1.75 1.75 0 0 0 1.75-1.75v-1.269a1.75 1.75 0 0 0 -3.5 0v1.269a1.75 1.75 0 0 0 1.75 1.75z"/><path d="m82.728 25.993h-37.467c-15.446 0-28.011 9.884-28.011 22.034a18.058 18.058 0 0 0 2.237 8.647v2.592a1.75 1.75 0 0 0 3.5 0v-2.791c0-.047.011-.188.011-.234a1.747 1.747 0 0 0 -.23-.868 14.685 14.685 0 0 1 -2.018-7.346c0-10.22 11-18.534 24.511-18.534a31.011 31.011 0 0 1 4.839.371 27.493 27.493 0 0 1 4.475 1.03 26.243 26.243 0 0 1 8.341 4.3c4.421 3.487 6.855 8.046 6.855 12.837a14.578 14.578 0 0 1 -2.014 7.341 1.741 1.741 0 0 0 -.234.873c0 .046.007.158.011.2v34.064a7.993 7.993 0 0 1 -8 8h-28.549a8.007 8.007 0 0 1 -8-8v-9.78a1.75 1.75 0 0 0 -3.5 0v9.78a11.511 11.511 0 0 0 11.5 11.5h66.015a11.511 11.511 0 0 0 11.5-11.5v-33.832a17.952 17.952 0 0 0 2.248-8.65c.002-12.15-12.568-22.034-28.02-22.034zm22.5 29.375a1.741 1.741 0 0 0 -.234.873c0 .046.007.158.011.2v34.068a8.007 8.007 0 0 1 -8 8h-29.238a11.438 11.438 0 0 0 3.267-8v-33.832a17.955 17.955 0 0 0 2.237-8.65c0-5.885-2.908-11.42-8.191-15.587a27.878 27.878 0 0 0 -4.672-2.947h22.32c13.522 0 24.522 8.314 24.522 18.534a14.6 14.6 0 0 1 -2.025 7.341z"/></g></g></svg>