<svg height="512" viewBox="0 0 128 128" width="512" xmlns="http://www.w3.org/2000/svg"><g><circle cx="65.188" cy="64" fill="#e6f2ff" r="34.376"/><circle cx="65.188" cy="64" fill="#cce6ff" r="21.157"/><path d="m6.307 44.271v2.584a6.209 6.209 0 0 0 5.036 6.1l-.6 47.165a3.672 3.672 0 1 0 7.343 0l-.6-47.165a6.209 6.209 0 0 0 5.035-6.1v-2.584z" fill="#e6f2ff"/><path d="m121.693 70.449v29.434a3.951 3.951 0 0 1 -3.951 3.951 3.951 3.951 0 0 1 -3.952-3.951v-29.434z" fill="#cce6ff"/><path d="m108.908 70.449h12.785v-46.283a39.979 39.979 0 0 0 -12.783 29.3z" fill="#e6f2ff"/><g><path d="m65.188 27.873a36.127 36.127 0 1 0 36.127 36.127 36.168 36.168 0 0 0 -36.127-36.127zm0 68.754a32.627 32.627 0 1 1 32.627-32.627 32.665 32.665 0 0 1 -32.627 32.627z"/><path d="m65.188 41.093a22.907 22.907 0 1 0 22.912 22.907 22.934 22.934 0 0 0 -22.912-22.907zm0 42.314a19.407 19.407 0 1 1 19.412-19.407 19.429 19.429 0 0 1 -19.412 19.407z"/><path d="m22.519 22.416a1.749 1.749 0 0 0 -1.75 1.75v18.355h-4.606v-18.355a1.75 1.75 0 0 0 -3.5 0v18.355h-4.606v-18.355a1.75 1.75 0 0 0 -3.5 0v22.689a7.971 7.971 0 0 0 5.019 7.4l-.585 45.845a5.422 5.422 0 1 0 10.843 0l-.215-16.848a1.75 1.75 0 0 0 -1.75-1.727h-.022a1.75 1.75 0 0 0 -1.728 1.772l.215 16.848a1.907 1.907 0 0 1 -.554 1.374 1.969 1.969 0 0 1 -2.734 0 1.906 1.906 0 0 1 -.555-1.374l.6-47.165a1.752 1.752 0 0 0 -1.421-1.742 4.46 4.46 0 0 1 -3.615-4.377v-.834h12.714v.834a4.461 4.461 0 0 1 -3.616 4.377 1.752 1.752 0 0 0 -1.421 1.742l.268 20.949a1.75 1.75 0 0 0 1.75 1.727h.022a1.75 1.75 0 0 0 1.728-1.772l-.251-19.633a7.972 7.972 0 0 0 5.02-7.4v-22.685a1.75 1.75 0 0 0 -1.75-1.75z"/><path d="m122.612 22.678a1.754 1.754 0 0 0 -2.111.206 41.852 41.852 0 0 0 -13.344 30.586v16.979a1.749 1.749 0 0 0 1.75 1.75h3.133v27.684a5.7 5.7 0 0 0 11.4 0v-35.359a1.75 1.75 0 0 0 -3.5 0v4.176h-9.286v-15.23a38.366 38.366 0 0 1 9.289-24.97v12.632a1.75 1.75 0 0 0 3.5 0v-16.966a1.751 1.751 0 0 0 -.831-1.488zm-4.871 79.406a2.2 2.2 0 0 1 -2.2-2.2v-27.684h4.4v27.683a2.2 2.2 0 0 1 -2.2 2.201z"/><path d="m121.693 49.039a1.75 1.75 0 0 0 -1.75 1.75v4.5a1.75 1.75 0 0 0 3.5 0v-4.5a1.749 1.749 0 0 0 -1.75-1.75z"/></g></g></svg>