<svg id="Layer_1" enable-background="new 0 0 100 100" viewBox="0 0 100 100" xmlns="http://www.w3.org/2000/svg"><g><path d="m87.858 34.269c-2.059-3.449-5.337-5.875-9.232-6.858-3.79-.957-7.724-.393-11.12 1.534-4.799-5.18-12.575-6.32-18.699-2.649-2.846 1.705-5.049 4.327-6.255 7.396-3.318-.406-6.583.275-9.494 2.019-2.846 1.705-5.049 4.327-6.242 7.409-3.278-.407-6.635.288-9.494 2.006-3.449 2.059-5.888 5.337-6.858 9.232-.983 3.895-.393 7.933 1.665 11.369 2.819 4.708 7.815 7.33 12.943 7.33 2.531 0 5.088-.656 7.435-2.006 2.885 3.095 6.884 4.799 10.989 4.799 2.623 0 5.271-.682 7.684-2.124l31.498-18.83c3.436-2.059 5.875-5.35 6.858-9.245.984-3.895.394-7.934-1.678-11.382zm-38.369-6.846c5.508-3.305 12.497-2.334 16.89 2.242-2.426 1.691-4.314 4.065-5.389 6.832-3.213-.393-6.386.249-9.232 1.875-2.098-2.269-4.852-3.816-7.881-4.458 1.127-2.701 3.081-4.982 5.612-6.491zm-15.749 9.416c2.793-1.665 5.953-2.295 9.14-1.796 2.964.472 5.691 1.901 7.75 4.039-2.426 1.691-4.314 4.078-5.376 6.845-3.186-.393-6.425.249-9.232 1.862-2.098-2.269-4.852-3.816-7.881-4.445 1.114-2.702 3.068-4.997 5.599-6.505zm-20.483 28.219c-3.881-6.491-1.757-14.923 4.734-18.804 2.754-1.652 6.006-2.282 9.153-1.77 2.964.446 5.691 1.875 7.75 4.013-6.425 4.471-8.405 13.218-4.327 20.037.328.538.682 1.036 1.049 1.508-6.426 3.526-14.556 1.363-18.359-4.984zm75.007-19.722c-.892 3.554-3.121 6.557-6.268 8.432l-31.485 18.83c-6.491 3.881-14.936 1.757-18.817-4.734s-1.757-14.936 4.734-18.817c2.754-1.639 5.993-2.269 9.14-1.77 4.052.616 7.579 2.99 9.677 6.504.184.302.577.406.892.223s.42-.59.236-.905c-2.164-3.606-5.717-6.098-9.809-6.95 1.101-2.662 3.016-4.931 5.494-6.438.013-.013.013-.013.013-.013s0 0 .013 0c.026-.026.052-.039.092-.066 2.78-1.665 5.94-2.282 9.127-1.783 4.065.629 7.592 3.003 9.691 6.504.184.315.59.42.892.236.315-.184.42-.59.223-.905-2.151-3.606-5.704-6.098-9.795-6.963 1.101-2.662 3.029-4.917 5.494-6.439h.013c.039-.026.066-.039.092-.065 3.147-1.875 6.845-2.426 10.399-1.534s6.543 3.121 8.419 6.255c1.887 3.147 2.425 6.844 1.533 10.398z"/><g fill="#fdb97e"><path d="m66.378 29.666c-2.426 1.691-4.314 4.065-5.389 6.832-3.213-.393-6.386.249-9.232 1.875-2.098-2.269-4.852-3.816-7.881-4.458 1.128-2.701 3.082-4.983 5.612-6.491 5.508-3.305 12.498-2.335 16.89 2.242z"/><path d="m50.63 39.081c-2.426 1.691-4.314 4.078-5.376 6.845-3.186-.393-6.425.249-9.232 1.862-2.098-2.269-4.852-3.816-7.881-4.445 1.115-2.701 3.068-4.996 5.599-6.504 2.793-1.665 5.953-2.295 9.14-1.796 2.963.471 5.691 1.901 7.75 4.038z"/><path d="m30.567 68.533c.328.538.682 1.036 1.049 1.508-6.425 3.527-14.555 1.364-18.358-4.983-3.881-6.491-1.757-14.923 4.734-18.804 2.754-1.652 6.006-2.282 9.153-1.77 2.964.446 5.691 1.875 7.75 4.013-6.426 4.471-8.407 13.217-4.328 20.036z"/><path d="m88.264 45.336c-.892 3.554-3.121 6.557-6.268 8.432l-31.485 18.83c-6.491 3.881-14.936 1.757-18.817-4.734s-1.757-14.936 4.734-18.817c2.754-1.639 5.993-2.269 9.14-1.77 4.052.616 7.579 2.99 9.677 6.504.184.302.577.406.892.223s.42-.59.236-.905c-2.164-3.606-5.717-6.098-9.809-6.95 1.101-2.662 3.016-4.931 5.494-6.438.013-.013.013-.013.013-.013s0 0 .013 0c.026-.026.052-.039.092-.066 2.78-1.665 5.94-2.282 9.127-1.783 4.065.629 7.592 3.003 9.691 6.504.184.315.59.42.892.236.315-.184.42-.59.223-.905-2.151-3.606-5.704-6.098-9.795-6.963 1.101-2.662 3.029-4.917 5.494-6.439h.013c.039-.026.066-.039.092-.065 3.147-1.875 6.845-2.426 10.399-1.534s6.543 3.121 8.419 6.255c1.887 3.147 2.425 6.844 1.533 10.398z"/></g></g></svg>