<svg id="Layer_1" viewBox="0 0 1000 1000" xmlns="http://www.w3.org/2000/svg" data-name="Layer 1"><path d="m388.16 572.54v56a14.51 14.51 0 0 1 -29 0v-56a1 1 0 0 1 1-1h27.11a1 1 0 0 1 .89 1z" fill="#ffeb3b"/><path d="m640.86 572.38v56a14.51 14.51 0 0 1 -29 0v-56a1 1 0 0 1 .95-1h27.09a1 1 0 0 1 .96 1z" fill="#ffeb3b"/><path d="m823.13 318.18h-646.26c-33 0-60.87 18.05-60.87 39.43v203.08c0 .91 2.9 4.08 8.69 5.51.29 0 .58.12.87.2a25.8 25.8 0 0 0 5.22.51 16.78 16.78 0 0 1 2.35.17c9.44 1.4 17.72 2.59 25.32 3.63 55.94 7.76 112.59 13.66 168.65 17.57v-15.74a33 33 0 0 1 33-33h27.11a33 33 0 0 1 33 33v20.52c53 1.72 106.63 1.72 159.68 0v-20.68a33 33 0 0 1 32.95-33h27.06a33 33 0 0 1 33 33v15.91c56.06-3.91 112.71-9.81 168.63-17.57 7.62-1 15.9-2.23 25.34-3.63a16.78 16.78 0 0 1 2.35-.17 25.8 25.8 0 0 0 5.22-.51c.29-.08.58-.15.87-.2 5.79-1.43 8.69-4.6 8.69-5.51v-203.09c0-21.38-27.88-39.43-60.87-39.43zm23.8 116a63.87 63.87 0 0 1 -63.79 63.82h-566.28a63.87 63.87 0 0 1 -63.79-63.8v-4.2a63.87 63.87 0 0 1 63.79-63.79h566.28a63.87 63.87 0 0 1 63.79 63.79z" fill="#4e342e"/><path d="m783.14 398.24h-566.28a31.82 31.82 0 0 0 -31.79 31.76v4.16a31.83 31.83 0 0 0 31.79 31.84h566.28a31.83 31.83 0 0 0 31.79-31.8v-4.2a31.82 31.82 0 0 0 -31.79-31.76zm-8.54 49.87h-549.2a16 16 0 1 1 0-32h549.2a16 16 0 0 1 0 32z" fill="#ffeb3b"/><path d="m636.33 269.58v15.68h-29.93v-15.68c0-19.68-15.8-35.69-35.22-35.69h-144.68c-19.42 0-35.22 16-35.22 35.69v15.68h-29.94v-15.68c0-36.19 29.23-65.63 65.16-65.63h144.68c35.93.05 65.15 29.44 65.15 65.63z" fill="#424242"/><path d="m845.87 602.42c-57.37 8-115.51 14-173 18v8a46.51 46.51 0 0 1 -93 0v-3.31q-39.87 1.24-79.87 1.24t-79.84-1.27v3.47a46.51 46.51 0 0 1 -93 0v-8.18c-57.5-4-115.64-10-173-18-5.18-.71-10.68-1.49-16.65-2.36v178.2a17.86 17.86 0 0 0 17.84 17.84h689.35a17.86 17.86 0 0 0 17.84-17.84v-178.15c-5.97.87-11.48 1.65-16.67 2.36zm-56.66 147.41h-578.42a16 16 0 1 1 0-32h578.42a16 16 0 0 1 0 32z" fill="#a1887f"/><g fill="#fff" opacity=".5"><path d="m378.16 582.54v56a14.51 14.51 0 0 1 -29 0v-56a1 1 0 0 1 1-1h27.11a1 1 0 0 1 .89 1z"/><path d="m630.86 582.38v56a14.51 14.51 0 0 1 -29 0v-56a1 1 0 0 1 .95-1h27.09a1 1 0 0 1 .96 1z"/><path d="m813.13 328.18h-646.26c-33 0-60.87 18.05-60.87 39.43v203.08c0 .91 2.9 4.08 8.69 5.51.29 0 .58.12.87.2a25.8 25.8 0 0 0 5.22.51 16.78 16.78 0 0 1 2.35.17c9.44 1.4 17.72 2.59 25.32 3.63 55.94 7.76 112.59 13.66 168.65 17.57v-15.74a33 33 0 0 1 33-33h27.11a33 33 0 0 1 33 33v20.52c53 1.72 106.63 1.72 159.68 0v-20.68a33 33 0 0 1 32.95-33h27.06a33 33 0 0 1 33 33v15.91c56.06-3.91 112.71-9.81 168.63-17.57 7.62-1 15.9-2.23 25.34-3.63a16.78 16.78 0 0 1 2.35-.17 25.8 25.8 0 0 0 5.22-.51c.29-.08.58-.15.87-.2 5.79-1.43 8.69-4.6 8.69-5.51v-203.09c0-21.38-27.88-39.43-60.87-39.43zm23.8 116a63.87 63.87 0 0 1 -63.79 63.82h-566.28a63.87 63.87 0 0 1 -63.79-63.8v-4.2a63.87 63.87 0 0 1 63.79-63.79h566.28a63.87 63.87 0 0 1 63.79 63.79z"/><path d="m773.14 408.24h-566.28a31.82 31.82 0 0 0 -31.79 31.76v4.16a31.83 31.83 0 0 0 31.79 31.84h566.28a31.83 31.83 0 0 0 31.79-31.8v-4.2a31.82 31.82 0 0 0 -31.79-31.76zm-8.54 49.87h-549.2a16 16 0 1 1 0-32h549.2a16 16 0 0 1 0 32z"/><path d="m626.33 279.58v15.68h-29.93v-15.68c0-19.68-15.8-35.69-35.22-35.69h-144.68c-19.42 0-35.22 16-35.22 35.69v15.68h-29.94v-15.68c0-36.19 29.23-65.63 65.16-65.63h144.68c35.93.05 65.15 29.44 65.15 65.63z"/><path d="m835.87 612.42c-57.37 8-115.51 14-173 18v8a46.51 46.51 0 0 1 -93 0v-3.31q-39.87 1.24-79.87 1.24t-79.84-1.27v3.47a46.51 46.51 0 0 1 -93 0v-8.18c-57.5-4-115.64-10-173-18-5.18-.71-10.68-1.49-16.65-2.36v178.2a17.86 17.86 0 0 0 17.84 17.84h689.35a17.86 17.86 0 0 0 17.84-17.84v-178.15c-5.97.87-11.48 1.65-16.67 2.36zm-56.66 147.41h-578.42a16 16 0 1 1 0-32h578.42a16 16 0 0 1 0 32z"/></g><g fill="#413b32"><path d="m611.82 607.89a16 16 0 0 1 -15.37 16.61q-8.3.32-16.61.58-39.84 1.27-79.84 1.27t-79.84-1.27q-8.31-.26-16.61-.58a16 16 0 0 1 1.23-32q7.68.3 15.38.54c53 1.72 106.63 1.72 159.68 0q7.7-.24 15.38-.54a16 16 0 0 1 16.6 15.39z"/><path d="m916 357.61v203.08c0 13.75-8.46 25.59-21.46 32.31a55 55 0 0 1 -24.1 5.91l-7.9 1.15c-6 .87-11.48 1.65-16.67 2.36-57.37 8-115.51 14-173 18q-7.5.52-15 1h-1a16 16 0 0 1 -16-15c0-.34 0-.68 0-1a16 16 0 0 1 15-16q8.49-.54 17-1.14c56.06-3.91 112.71-9.81 168.63-17.57 7.62-1 15.9-2.23 25.34-3.63a16.78 16.78 0 0 1 2.35-.17 25.8 25.8 0 0 0 5.22-.51l.87-.2c5.79-1.43 8.69-4.6 8.69-5.51v-203.08c0-21.38-27.88-39.43-60.87-39.43h-646.23c-33 0-60.87 18.05-60.87 39.43v203.08c0 .91 2.9 4.08 8.69 5.51l.87.2a25.8 25.8 0 0 0 5.22.51 16.78 16.78 0 0 1 2.35.17c9.44 1.4 17.72 2.59 25.32 3.63 55.94 7.76 112.59 13.66 168.65 17.57q8.52.62 17 1.14a16 16 0 0 1 15 16v1a16 16 0 0 1 -17 15q-7.49-.48-15-1c-57.5-4-115.64-10-173-18-5.18-.71-10.68-1.49-16.65-2.36l-7.9-1.15a55 55 0 0 1 -24.1-5.91c-12.99-6.72-21.45-18.56-21.45-32.31v-203.08c0-19.8 10.63-38.82 29.16-52.18 17.22-12.43 39.84-19.25 63.71-19.25h646.26c23.86 0 46.49 6.83 63.71 19.25 18.53 13.36 29.16 32.38 29.16 52.18z"/><path d="m894.54 581.87v196.34a49.9 49.9 0 0 1 -49.84 49.84h-689.4a49.9 49.9 0 0 1 -49.84-49.84v-196.34a16 16 0 0 1 16-16 15.73 15.73 0 0 1 3.23.33l.87.2a16 16 0 0 1 11.86 15.46v196.35a17.86 17.86 0 0 0 17.84 17.84h689.44a17.86 17.86 0 0 0 17.84-17.84v-196.34a16 16 0 0 1 11.86-15.46l.87-.2a15.73 15.73 0 0 1 3.23-.33 16 16 0 0 1 16.04 15.99z"/><path d="m387.21 539.58h-27.11a33 33 0 0 0 -33 33v56a46.51 46.51 0 0 0 93 0v-56a33 33 0 0 0 -32.89-33zm1 89a14.51 14.51 0 0 1 -29 0v-56a1 1 0 0 1 1-1h27.11a1 1 0 0 1 1 1z"/><path d="m639.9 539.43h-27.11a33 33 0 0 0 -32.95 33v56a46.51 46.51 0 0 0 93 0v-56a33 33 0 0 0 -32.94-33zm1 89a14.51 14.51 0 0 1 -29 0v-56a1 1 0 0 1 .95-1h27.05a1 1 0 0 1 1 1z"/><path d="m783.14 366.24h-566.28a63.87 63.87 0 0 0 -63.79 63.76v4.16a63.87 63.87 0 0 0 63.79 63.84h566.28a63.87 63.87 0 0 0 63.79-63.8v-4.2a63.87 63.87 0 0 0 -63.79-63.76zm31.79 67.95a31.83 31.83 0 0 1 -31.79 31.81h-566.28a31.83 31.83 0 0 1 -31.79-31.8v-4.2a31.82 31.82 0 0 1 31.79-31.79h566.28a31.82 31.82 0 0 1 31.79 31.79z"/><path d="m790.6 432.11a16 16 0 0 1 -16 16h-549.2a16 16 0 1 1 0-32h549.2a16 16 0 0 1 16 16z"/><path d="m571.18 172h-144.68c-53.58 0-97.16 43.8-97.16 97.63v31.68a16 16 0 0 0 16 16h61.94a16 16 0 0 0 16-16v-31.73a3.52 3.52 0 0 1 3.22-3.69h144.68a3.53 3.53 0 0 1 3.22 3.69v31.68a16 16 0 0 0 16 16h61.93a16 16 0 0 0 16-16v-31.68c0-53.83-43.58-97.58-97.15-97.58zm0 61.94h-144.68c-19.42 0-35.22 16-35.22 35.69v15.68h-29.94v-15.73c0-36.19 29.23-65.63 65.16-65.63h144.68c35.93 0 65.15 29.44 65.15 65.63v15.68h-29.93v-15.68c0-19.68-15.8-35.69-35.22-35.69z"/><path d="m805.21 733.83a16 16 0 0 1 -16 16h-578.42a16 16 0 1 1 0-32h578.42a16 16 0 0 1 16 16z"/></g></svg>