<svg id="Layer_1" viewBox="0 0 1000 1000" xmlns="http://www.w3.org/2000/svg" data-name="Layer 1"><path d="m711.46 791.5a7.5 7.5 0 0 1 7.54 7.5v7.5h36.61a7.5 7.5 0 0 0 7.5-7.5v-7.5zm-60.64-529.58v-7.5h-301.64v7.5a7.5 7.5 0 0 1 -7.5 7.5h316.64a7.5 7.5 0 0 1 -7.5-7.5zm-450.5 529.58a7.5 7.5 0 0 1 7.5 7.5v7.5h36.61a7.5 7.5 0 0 0 7.5-7.5v-7.5zm511.14 0a7.5 7.5 0 0 1 7.54 7.5v7.5h36.61a7.5 7.5 0 0 0 7.5-7.5v-7.5zm-511.14 0a7.5 7.5 0 0 1 7.5 7.5v7.5h36.61a7.5 7.5 0 0 0 7.5-7.5v-7.5zm511.14 0a7.5 7.5 0 0 1 7.54 7.5v7.5h36.61a7.5 7.5 0 0 0 7.5-7.5v-7.5zm-511.14 0a7.5 7.5 0 0 1 7.5 7.5v7.5h36.61a7.5 7.5 0 0 0 7.5-7.5v-7.5zm0 0a7.5 7.5 0 0 1 7.5 7.5v7.5h36.61a7.5 7.5 0 0 0 7.5-7.5v-7.5zm626.83-537.08h-654.3a80.43 80.43 0 0 0 -80.35 80.35v391.38a80.45 80.45 0 0 0 80.35 80.35h654.3a80.45 80.45 0 0 0 80.35-80.35v-391.38a80.43 80.43 0 0 0 -80.35-80.35zm65.35 471.73a65.43 65.43 0 0 1 -65.35 65.35h-654.3a65.43 65.43 0 0 1 -65.35-65.35v-391.38a65.43 65.43 0 0 1 65.35-65.35h654.3a65.43 65.43 0 0 1 65.35 65.35zm-692.18 65.35a7.5 7.5 0 0 1 7.5 7.5v7.5h36.61a7.5 7.5 0 0 0 7.5-7.5v-7.5zm511.14 0a7.5 7.5 0 0 1 7.54 7.5v7.5h36.61a7.5 7.5 0 0 0 7.5-7.5v-7.5zm-511.14 0a7.5 7.5 0 0 1 7.5 7.5v7.5h36.61a7.5 7.5 0 0 0 7.5-7.5v-7.5zm511.14 0a7.5 7.5 0 0 1 7.54 7.5v7.5h36.61a7.5 7.5 0 0 0 7.5-7.5v-7.5zm-511.14 0a7.5 7.5 0 0 1 7.5 7.5v7.5h36.61a7.5 7.5 0 0 0 7.5-7.5v-7.5zm511.14 0a7.5 7.5 0 0 1 7.54 7.5v7.5h36.61a7.5 7.5 0 0 0 7.5-7.5v-7.5zm-511.14 0a7.5 7.5 0 0 1 7.5 7.5v7.5h36.61a7.5 7.5 0 0 0 7.5-7.5v-7.5zm450.5-529.58v-7.5h-301.64v7.5a7.5 7.5 0 0 1 -7.5 7.5h316.64a7.5 7.5 0 0 1 -7.5-7.5zm60.64 529.58a7.5 7.5 0 0 1 7.54 7.5v7.5h36.61a7.5 7.5 0 0 0 7.5-7.5v-7.5z"/><path d="m236.93 538v253.5h-64.08a65.43 65.43 0 0 1 -65.35-65.35v-221.84a80.31 80.31 0 0 0 65.35 33.69z" fill="#cfd8dc"/><path d="m748.07 538v253.5h-496.14v-253.5h115.28v36a7.5 7.5 0 0 0 7.5 7.5h250.58a7.5 7.5 0 0 0 7.5-7.5v-36z" fill="#ffab91"/><path d="m892.5 504.31v221.84a65.43 65.43 0 0 1 -65.35 65.35h-64.08v-253.5h64.08a80.31 80.31 0 0 0 65.35-33.69z" fill="#cfd8dc"/><path d="m892.5 334.77v122.84a65.43 65.43 0 0 1 -65.35 65.39h-64.08v-253.58h64.08a65.43 65.43 0 0 1 65.35 65.35z" fill="#cfd8dc"/><path d="m748.07 269.42v253.58h-115.28v-30.81a7.5 7.5 0 0 0 -7.5-7.5h-250.58a7.5 7.5 0 0 0 -7.5 7.5v30.81h-115.28v-253.58z" fill="#ffab91"/><path d="m236.93 269.42v253.58h-64.08a65.43 65.43 0 0 1 -65.35-65.35v-122.88a65.43 65.43 0 0 1 65.35-65.35z" fill="#cfd8dc"/><path d="m907.5 334.77v122.84a80.42 80.42 0 0 1 -80.35 80.39h-201.86a7.5 7.5 0 0 1 0-15h201.86a65.43 65.43 0 0 0 65.35-65.35v-122.88a65.43 65.43 0 0 0 -65.35-65.35h-654.3a65.43 65.43 0 0 0 -65.35 65.35v122.84a65.43 65.43 0 0 0 65.35 65.39h201.86a7.5 7.5 0 1 1 0 15h-201.86a80.42 80.42 0 0 1 -80.35-80.39v-122.84a80.43 80.43 0 0 1 80.35-80.35h654.3a80.43 80.43 0 0 1 80.35 80.35z"/><path d="m665.82 212v49.93a7.5 7.5 0 0 1 -15 0v-49.93a16.58 16.58 0 0 0 -16.56-16.57h-268.52a16.58 16.58 0 0 0 -16.56 16.57v49.93a7.5 7.5 0 0 1 -15 0v-49.93a31.6 31.6 0 0 1 31.56-31.57h268.52a31.6 31.6 0 0 1 31.56 31.57z"/><path d="m694.82 212v42.43h-29v-42.43a31.6 31.6 0 0 0 -31.56-31.57h-268.52a31.6 31.6 0 0 0 -31.56 31.57v42.43h-29v-42.43a60.63 60.63 0 0 1 60.56-60.57h268.52a60.63 60.63 0 0 1 60.56 60.57z" fill="#b0bec5"/><path d="m709.82 212v49.93a7.5 7.5 0 0 1 -15 0v-49.93a60.63 60.63 0 0 0 -60.56-60.57h-268.52a60.63 60.63 0 0 0 -60.56 60.57v49.93a7.5 7.5 0 0 1 -15 0v-49.93a75.65 75.65 0 0 1 75.56-75.57h268.52a75.65 75.65 0 0 1 75.56 75.57z"/><path d="m625.29 484.69h-250.58a7.5 7.5 0 0 0 -7.5 7.5v81.73a7.5 7.5 0 0 0 7.5 7.5h250.58a7.5 7.5 0 0 0 7.5-7.5v-81.73a7.5 7.5 0 0 0 -7.5-7.5zm-7.5 81.73h-235.58v-66.73h235.58z"/><path d="m382.21 499.69h235.58v66.73h-235.58z" fill="#ff7043"/><path d="m718.96 806.5h73.22v42.08h-73.22z" fill="#b0bec5"/><path d="m807.18 799v57.08a7.5 7.5 0 0 1 -7.5 7.5h-88.22a7.5 7.5 0 0 1 -7.5-7.5v-57.08a7.5 7.5 0 0 1 15 0v49.58h73.22v-49.58a7.5 7.5 0 0 1 15 0z"/><path d="m207.82 806.5h73.22v42.08h-73.22z" fill="#b0bec5"/><path d="m296 799v57.08a7.5 7.5 0 0 1 -7.5 7.5h-88.18a7.5 7.5 0 0 1 -7.5-7.5v-57.08a7.5 7.5 0 0 1 15 0v49.58h73.18v-49.58a7.5 7.5 0 0 1 15 0z"/><path d="m763.07 261.92v537.08a7.5 7.5 0 0 1 -15 0v-537.08a7.5 7.5 0 0 1 15 0z"/><path d="m251.93 261.92v537.08a7.5 7.5 0 0 1 -15 0v-537.08a7.5 7.5 0 1 1 15 0z"/></svg>