<svg id="Layer_1" enable-background="new 0 0 512 512" viewBox="0 0 512 512" xmlns="http://www.w3.org/2000/svg"><g clip-rule="evenodd" fill-rule="evenodd"><path d="m186.087 481c6.597-113.314-26.535-193.004-69.593-239.062 12.737-11.82 21.715-23.383 26.275-28.957 28.583 24.775 62.884 53.45 70.736 86.431l9.748-110.668h52.042l9.748 110.668c7.852-32.98 42.153-61.656 70.736-86.431 4.56 5.574 13.537 17.136 26.274 28.957-43.058 46.058-76.19 125.748-69.593 239.062z" fill="#46c373"/><path d="m122.711 136.163c2.809 0 5.583.154 8.313.452 7.584-59.566 58.456-105.615 120.084-105.615 61.387 0 112.095 45.692 119.987 104.92 5.829-1.438 11.921-2.202 18.194-2.202 41.872 0 75.816 33.944 75.816 75.816s-33.944 75.815-75.816 75.815c-30.636 0-57.025-18.173-68.984-44.326-6.457 1.789-13.257 2.749-20.283 2.749-15.67 0-30.23-4.755-42.315-12.899-12.713 9.629-28.553 15.345-45.73 15.345-7.026 0-13.826-.96-20.283-2.749-11.958 26.152-38.347 44.326-68.984 44.326-41.872 0-75.815-33.944-75.815-75.815.001-41.873 33.944-75.817 75.816-75.817z" fill="#a5dc69"/><path d="m324.135 129.72c.674 2.671-.951 5.39-3.629 6.069-.407.101-.819.152-1.231.152-2.229 0-4.266-1.511-4.837-3.771-8.316-32.9-26.624-51.49-55.968-56.84-2.716-.49-4.519-3.1-4.022-5.82.496-2.711 3.1-4.511 5.816-4.02 33.132 6.05 54.624 27.649 63.871 64.23zm65.15 150.629c39.051 0 70.821-31.768 70.821-70.809 0-39.05-31.77-70.82-70.821-70.82-5.74 0-11.458.691-16.997 2.061-1.381.34-2.833.07-4.013-.729-1.166-.801-1.948-2.062-2.14-3.472-7.641-57.339-57.091-100.58-115.03-100.58-58.281 0-107.773 43.529-115.12 101.25-.347 2.7-2.791 4.63-5.507 4.341-2.561-.282-5.174-.421-7.768-.421-39.051 0-70.816 31.759-70.816 70.81 0 39.05 31.765 70.821 70.816 70.821 27.645 0 52.934-16.26 64.439-41.41 1.021-2.231 3.516-3.391 5.881-2.739 6.148 1.71 12.521 2.57 18.945 2.57 15.569 0 30.337-4.961 42.712-14.33 1.704-1.29 4.041-1.359 5.815-.159 11.692 7.879 25.36 12.039 39.519 12.039 6.424 0 12.802-.86 18.945-2.559 2.374-.66 4.86.499 5.881 2.74 11.509 25.147 36.799 41.396 64.438 41.396zm-103.798-32.89c4.762.871 9.622 1.312 14.534 1.312 3.507 0 7.005-.23 10.46-.681-9.744 10.49-17.109 20.319-22.311 29.85zm-93.09 5.431c.698-1.18 1.372-2.371 2.009-3.59 5.75 1.271 11.645 1.92 17.568 1.92.253 0 .506-.009.758-.02l-2.36 26.77c-4.424-8.119-10.403-16.44-17.975-25.08zm114.793 223.11h-115.832c3.474-72.819-9.337-138.14-37.178-189.63 12.68-5.37 23.88-13.93 32.406-24.91 11.879 13.95 19.118 26.79 22.054 39.108.538 2.272 2.561 3.841 4.86 3.841.122 0 .243 0 .37-.011 2.444-.179 4.396-2.1 4.612-4.549l4.35-49.36c12.591-1.681 24.507-6.27 35.043-13.561 5.478 3.351 11.294 6.021 17.343 7.96l4.842 54.961c.215 2.449 2.173 4.369 4.617 4.549.122.011.248.011.37.011 2.294 0 4.317-1.569 4.86-3.841 3.587-15.069 13.382-30.609 30.627-48.548 7.014 11.3 16.641 20.579 27.874 27.169-22.072 37.871-45.783 101.562-41.218 196.811zm82.095-347.281c-4.72 0-9.43.41-14.056 1.22-10.573-59.619-62.996-103.939-124.124-103.939-61.699 0-114.338 44.929-124.349 105.269-1.349-.07-2.702-.099-4.046-.099-44.562 0-80.818 36.25-80.818 80.809 0 44.561 36.256 80.82 80.818 80.82 7.515 0 14.876-1.059 21.909-3.049 28.155 51.299 40.769 117.21 36.476 190.959-.08 1.381.407 2.72 1.353 3.721.946 1 2.262 1.569 3.638 1.569h126.372c1.381 0 2.688-.569 3.638-1.569.941-1.001 1.428-2.339 1.353-3.721-5.595-96.16 18.046-159.719 39.879-196.981 9.931 4.28 20.78 6.621 31.957 6.621 44.562 0 80.822-36.25 80.822-80.811.001-44.569-36.26-80.819-80.822-80.819z"/></g></svg>