<svg height="512" viewBox="0 0 128 128" width="512" xmlns="http://www.w3.org/2000/svg"><g><circle cx="64" cy="27.046" fill="#fa7578" r="8.952" transform="matrix(.914 -.406 .406 .914 -5.468 28.34)"/><path d="m35.153 35.999h57.693v39.832h-57.693z" fill="#a8503c"/><path d="m35.153 45.01h3.226a4.27 4.27 0 0 1 4.27 4.27v1.976a4.27 4.27 0 0 0 4.27 4.27 4.27 4.27 0 0 0 4.27-4.27v-1.976a4.271 4.271 0 0 1 4.271-4.27 4.27 4.27 0 0 1 4.27 4.27v6.976a4.27 4.27 0 0 0 4.27 4.27 4.27 4.27 0 0 0 4.27-4.27v-6.976a4.27 4.27 0 0 1 4.27-4.27 4.27 4.27 0 0 1 4.27 4.27v1.976a4.271 4.271 0 0 0 4.271 4.27 4.27 4.27 0 0 0 4.27-4.27v-1.976a4.27 4.27 0 0 1 4.27-4.27h3.225v-9.01h-57.693z" fill="#f3f5e6"/><path d="m6.307 75.831h115.386v39.832h-115.386z" fill="#a8503c"/><path d="m121.693 75.831h-115.386v9.011h3.226a4.27 4.27 0 0 1 4.27 4.27v1.976a4.27 4.27 0 0 0 4.27 4.27 4.27 4.27 0 0 0 4.27-4.27v-1.976a4.27 4.27 0 0 1 4.27-4.27 4.27 4.27 0 0 1 4.27 4.27v6.976a4.27 4.27 0 0 0 4.27 4.27 4.271 4.271 0 0 0 4.271-4.27v-6.976a4.269 4.269 0 0 1 4.27-4.27 4.27 4.27 0 0 1 4.27 4.27v1.976a4.27 4.27 0 0 0 4.27 4.27 4.27 4.27 0 0 0 4.27-4.27v-1.976a4.27 4.27 0 0 1 4.27-4.27h6.452a4.27 4.27 0 0 1 4.27 4.27v1.976a4.27 4.27 0 0 0 4.27 4.27 4.27 4.27 0 0 0 4.27-4.27v-1.976a4.27 4.27 0 0 1 4.27-4.27 4.27 4.27 0 0 1 4.27 4.27v6.976a4.27 4.27 0 0 0 4.27 4.27 4.271 4.271 0 0 0 4.271-4.27v-6.976a4.269 4.269 0 0 1 4.27-4.27 4.27 4.27 0 0 1 4.27 4.27v1.976a4.27 4.27 0 0 0 4.27 4.27 4.27 4.27 0 0 0 4.27-4.27v-1.976a4.27 4.27 0 0 1 4.27-4.27h3.226z" fill="#f3f5e6"/><g><path d="m54.258 65.875a2.349 2.349 0 1 0 -2.349 2.35 2.349 2.349 0 0 0 2.349-2.35z"/><path d="m78.892 67.346a2.35 2.35 0 1 0 -2.349 2.349 2.349 2.349 0 0 0 2.349-2.349z"/><path d="m95.746 113.913h-4.5a1.75 1.75 0 0 0 0 3.5h4.5a1.75 1.75 0 0 0 0-3.5z"/><path d="m121.693 74.081h-27.093v-38.081a1.751 1.751 0 0 0 -1.75-1.75h-20.957a10.652 10.652 0 0 0 -1.457-15.733 12.842 12.842 0 0 1 6.132-4.49 1.75 1.75 0 0 0 -.913-3.379 16.136 16.136 0 0 0 -8.345 6.227 10.685 10.685 0 0 0 -11.2 17.375h-20.957a1.751 1.751 0 0 0 -1.753 1.75v15.762a1.75 1.75 0 0 0 3.5 0v-5h1.476a2.522 2.522 0 0 1 2.52 2.52v1.976a6.02 6.02 0 0 0 12.04 0v-1.978a2.521 2.521 0 0 1 5.041 0v6.976a6.02 6.02 0 1 0 12.04 0v-6.976a2.52 2.52 0 1 1 5.04 0v1.976a6.021 6.021 0 0 0 12.041 0v-1.976a2.522 2.522 0 0 1 2.52-2.52h1.482v27.321h-54.2v-12.956a1.75 1.75 0 0 0 -3.5 0v12.956h-27.093a1.75 1.75 0 0 0 -1.75 1.75v39.832a1.751 1.751 0 0 0 1.75 1.75h75.284a1.75 1.75 0 0 0 0-3.5h-15.841v-27.321h1.476a2.523 2.523 0 0 1 2.52 2.52v1.976a6.02 6.02 0 0 0 12.04 0v-1.976a2.52 2.52 0 0 1 5.04 0v6.976a6.021 6.021 0 0 0 12.041 0v-6.976a2.52 2.52 0 0 1 5.04 0v1.976a6.02 6.02 0 0 0 12.04 0v-1.976a2.523 2.523 0 0 1 2.52-2.52h1.476v27.321h-14.959a1.75 1.75 0 0 0 0 3.5h16.709a1.751 1.751 0 0 0 1.75-1.75v-39.832a1.75 1.75 0 0 0 -1.75-1.75zm-64.893-47.035a7.2 7.2 0 1 1 7.2 7.2 7.21 7.21 0 0 1 -7.2-7.2zm32.821 16.214a6.026 6.026 0 0 0 -6.02 6.02v1.976a2.521 2.521 0 0 1 -5.041 0v-1.976a6.02 6.02 0 1 0 -12.04 0v6.976a2.52 2.52 0 1 1 -5.04 0v-6.976a6.021 6.021 0 0 0 -12.041 0v1.976a2.52 2.52 0 0 1 -5.04 0v-1.976a6.026 6.026 0 0 0 -6.02-6.02h-1.479v-5.511h54.2v5.511zm-27.371 34.321v5.511h-1.476a6.027 6.027 0 0 0 -6.02 6.02v1.976a2.52 2.52 0 0 1 -5.04 0v-1.976a6.02 6.02 0 0 0 -12.04 0v6.976a2.521 2.521 0 0 1 -5.041 0v-6.976a6.02 6.02 0 0 0 -12.04 0v1.976a2.52 2.52 0 1 1 -5.04 0v-1.976a6.027 6.027 0 0 0 -6.02-6.02h-1.476v-5.511zm0 36.332h-54.193v-27.321h1.476a2.523 2.523 0 0 1 2.52 2.52v1.976a6.02 6.02 0 1 0 12.04 0v-1.976a2.52 2.52 0 0 1 5.04 0v6.976a6.021 6.021 0 0 0 12.041 0v-6.976a2.52 2.52 0 1 1 5.04 0v1.976a6.02 6.02 0 1 0 12.04 0v-1.976a2.523 2.523 0 0 1 2.52-2.52h1.476zm56.217-30.821a6.027 6.027 0 0 0 -6.02 6.02v1.976a2.52 2.52 0 0 1 -5.04 0v-1.976a6.02 6.02 0 0 0 -12.04 0v6.976a2.521 2.521 0 0 1 -5.041 0v-6.976a6.02 6.02 0 0 0 -12.04 0v1.976a2.52 2.52 0 0 1 -5.04 0v-1.976a6.027 6.027 0 0 0 -6.02-6.02h-1.476v-5.511h54.193v5.511z"/><path d="m21.062 103.358a2.349 2.349 0 1 0 2.349 2.349 2.349 2.349 0 0 0 -2.349-2.349z"/><path d="m51.37 102.9a2.349 2.349 0 1 0 2.349 2.349 2.35 2.35 0 0 0 -2.349-2.349z"/><path d="m80.406 102.1a2.349 2.349 0 1 0 2.349 2.349 2.349 2.349 0 0 0 -2.349-2.349z"/><path d="m113.045 105.6a2.349 2.349 0 1 0 -2.349 2.35 2.349 2.349 0 0 0 2.349-2.35z"/></g></g></svg>