<svg id="Layer_1" enable-background="new 0 0 512 512" height="512" viewBox="0 0 512 512" width="512" xmlns="http://www.w3.org/2000/svg"><g><path d="m426.45 199.75-18.58-67.28c-3.59-13.01-15.42-22.01-28.92-22.01h-245.92c-13.5 0-25.33 9-28.92 22.01l-18.92 68.51c-2.49 9.03-.62 18.7 5.05 26.15 5.67 7.46 14.5 11.83 23.87 11.83h283.76.02c16.57 0 30-13.43 30-30 0-3.21-.5-6.31-1.44-9.21zm-312.33 9.21 18.92-68.5h245.92l18.92 68.5z" fill="#4e352e"/><path d="m397.89 246.96h-283.78c-11.801 0-23.105-5.604-30.239-14.989-7.135-9.374-9.526-21.755-6.394-33.117l18.921-68.513c4.53-16.416 19.593-27.881 36.631-27.881h245.92c17.038 0 32.102 11.466 36.632 27.882l18.536 67.12c1.176 3.692 1.771 7.56 1.771 11.498.002 20.953-17.045 38-37.998 38zm-264.86-128.5c-9.865 0-18.586 6.636-21.208 16.138l-18.92 68.511c-1.813 6.576-.429 13.745 3.705 19.175 4.13 5.434 10.672 8.675 17.504 8.675h283.78c12.131 0 22-9.869 22-22 0-2.325-.354-4.594-1.05-6.744-.036-.111-.07-.224-.101-.336l-18.58-67.28c-2.623-9.503-11.344-16.14-21.209-16.14h-245.921zm264.85 98.5h-283.76c-2.498 0-4.853-1.167-6.366-3.154-1.513-1.988-2.011-4.568-1.346-6.976l18.92-68.5c.958-3.468 4.113-5.87 7.711-5.87h245.92c3.598 0 6.753 2.402 7.711 5.87l18.92 68.5c.665 2.408.168 4.988-1.346 6.976-1.512 1.987-3.866 3.154-6.364 3.154zm-273.251-16h262.742l-14.501-52.5h-233.74z"/></g><g><path d="m476.51 228.964v74.87h-441.02v-74.87c0-11 9-20 20-20h401.02c11 0 20 9 20 20z" fill="#7a5649"/><path d="m476.51 311.834h-441.02c-4.418 0-8-3.582-8-8v-74.87c0-15.439 12.561-28 28-28h401.02c15.439 0 28 12.561 28 28v74.87c0 4.418-3.582 8-8 8zm-433.02-16h425.02v-66.87c0-6.617-5.383-12-12-12h-401.02c-6.617 0-12 5.383-12 12z"/></g><g><path d="m486.666 401.544h-461.332l20-97.71h421.332z" fill="#fff3e1"/><path d="m486.686 409.544c-.008-.001-.015-.001-.02 0h-461.332c-2.403 0-4.679-1.08-6.198-2.942-1.519-1.861-2.121-4.308-1.639-6.662l20-97.71c.762-3.723 4.038-6.396 7.837-6.396h421.332c3.8 0 7.075 2.673 7.838 6.396l19.883 97.139c.195.691.299 1.422.299 2.176 0 4.417-3.582 7.999-8 7.999zm-451.549-16h441.725l-16.725-81.71h-408.275z"/></g><g><path d="m256 409.544c-4.418 0-8-3.582-8-8v-62c0-4.418 3.582-8 8-8s8 3.582 8 8v62c0 4.418-3.582 8-8 8z"/></g><g><path d="m165 409.544c-4.418 0-8-3.582-8-8v-48.855c0-4.418 3.582-8 8-8s8 3.582 8 8v48.855c0 4.418-3.582 8-8 8z"/></g><g><path d="m349.667 409.544c-4.418 0-8-3.582-8-8v-39.333c0-4.418 3.582-8 8-8s8 3.582 8 8v39.333c0 4.418-3.582 8-8 8z"/></g><g><path d="m84.116 409.544c-.147 0-.296-.004-.445-.012-4.412-.242-7.792-4.015-7.549-8.427l2.891-52.667c.242-4.41 4.009-7.782 8.426-7.55 4.412.242 7.792 4.015 7.549 8.427l-2.891 52.667c-.234 4.262-3.764 7.562-7.981 7.562z"/></g><g><path d="m438.599 409.544c-4.218 0-7.747-3.299-7.981-7.562l-2.892-52.667c-.242-4.411 3.138-8.185 7.55-8.427 4.427-.229 8.184 3.138 8.427 7.55l2.892 52.667c.242 4.411-3.138 8.185-7.55 8.427-.15.008-.299.012-.446.012z"/></g></svg>