<svg id="Capa_1" enable-background="new 0 0 512 512" viewBox="0 0 512 512" xmlns="http://www.w3.org/2000/svg"><g><g><g><g><g><path d="m325.103 53.137v-15.637c0-16.569-13.432-30-30-30h-78.205c-16.568 0-30 13.431-30 30v15.637z" fill="#fe646f"/><path d="m295.103 7.5h-13.443c.997 2.987 1.545 6.178 1.545 9.5 0 8.636-7.001 15.637-15.637 15.637h-80.273c-.258 1.583-.398 3.207-.398 4.863v15.637h138.205v-15.637c.001-16.569-13.431-30-29.999-30z" fill="#fd4755"/><path d="m190.758 291h130.483c42.753-23.192 71.782-68.468 71.782-120.524 0-50.472-27.293-94.564-67.922-118.339h-138.204c-40.628 23.776-67.922 67.867-67.922 118.339.001 52.056 29.03 97.332 71.783 120.524z" fill="#dff6fd"/><path d="m190.758 291h130.483c42.753-23.192 71.782-68.468 71.782-120.524 0-50.472-27.293-94.564-67.922-118.339h-138.204c-40.628 23.776-67.922 67.867-67.922 118.339.001 52.056 29.03 97.332 71.783 120.524z" fill="#dff6fd"/><g><path d="m352.454 73.171c6.153 15.575 9.546 32.541 9.546 50.304 0 47.275-23.941 88.958-60.361 113.586-6.671 4.512-14.535 6.938-22.589 6.938h-138.684c12.505 19.628 29.862 35.863 50.392 47h130.483c42.753-23.192 71.782-68.468 71.782-120.524.001-38.054-15.52-72.476-40.569-97.304z" fill="#c8effe"/></g><g><path d="m304.632 158.824c0 5.107-1.448 10.081-4.188 14.384l-.654 1.028c.052.078.103.156.156.233l1.124.251c3.578.801 6.898 2.302 9.869 4.462l.587.428.588-.427c4.615-3.348 10.048-5.117 15.711-5.117 5.459 0 10.541 1.643 14.782 4.456 5.049-5.037 8.174-12.002 8.174-19.698 0-15.367-12.458-27.824-27.825-27.824-9.681 0-18.204 4.947-23.188 12.448 3.06 4.358 4.864 9.659 4.864 15.376z" fill="#62dbfb"/><path d="m169.393 178.522c4.242-2.812 9.323-4.456 14.782-4.456 5.69 0 11.13 1.765 15.731 5.103l.587.426.587-.426c2.973-2.156 6.292-3.654 9.866-4.452l1.107-.247c.056-.083.111-.167.166-.25l-.647-1.016c-2.751-4.316-4.205-9.289-4.205-14.38 0-5.718 1.804-11.019 4.864-15.376-4.983-7.501-13.505-12.448-23.187-12.448-15.367 0-27.825 12.458-27.825 27.824.001 7.696 3.125 14.661 8.174 19.698z" fill="#ffe177"/></g><g><path d="m327.824 173.066c-6.479 0-12.435 2.22-17.164 5.933 6.861 4.863 11.351 12.86 11.351 21.891 0 4.919-1.337 9.528-3.657 13.496 5.028 3.374 8.857 8.401 10.701 14.297 14.795-.645 26.594-12.839 26.594-27.793 0-15.367-12.457-27.824-27.825-27.824z" fill="#fe646f"/><path d="m348.67 182.47c-6.434 13.465-15.001 25.71-25.264 36.307 2.538 2.828 4.488 6.194 5.649 9.907 14.795-.645 26.594-12.839 26.594-27.793 0-7.067-2.639-13.514-6.979-18.421z" fill="#fd4755"/><g><path d="m193.645 214.386c-2.32-3.968-3.657-8.577-3.657-13.496 0-9.031 4.491-17.028 11.351-21.891-4.729-3.713-10.685-5.933-17.164-5.933-15.367 0-27.825 12.458-27.825 27.825 0 14.954 11.798 27.149 26.594 27.793 1.844-5.897 5.674-10.924 10.701-14.298z" fill="#fff"/><g><g><path d="m216.812 174.066c7.122 0 13.831 2.764 18.89 7.782l.704.698.704-.698c4.545-4.509 10.56-7.244 16.937-7.704l1.626-.117-.842-1.396c-2.518-4.177-3.849-8.951-3.849-13.807 0-6.193 2.115-11.897 5.653-16.443-5.064-6.9-13.228-11.382-22.443-11.382-15.367 0-27.825 12.458-27.825 27.824 0 5.876 1.826 11.322 4.934 15.813 1.781-.371 3.623-.57 5.511-.57z" fill="#80d261"/><path d="m256 174.066c7.726 0 14.695 3.287 19.594 8.531 4.899-5.244 11.868-8.531 19.594-8.531 1.888 0 3.731.199 5.51.572 3.109-4.491 4.934-9.938 4.934-15.813 0-15.367-12.457-27.824-27.825-27.824-15.367 0-27.824 12.458-27.824 27.824 0 5.646 1.686 10.895 4.575 15.282.478-.026.958-.041 1.442-.041z" fill="#fe646f"/></g><g><path d="m282.824 200.891c0 6.302-2.232 12.427-6.287 17.248l-.541.644.541.644c.862 1.025 1.651 2.117 2.344 3.246l.822 1.337c.015.01.03.019.044.029l.839-1.366c4.929-8.029 13.475-12.822 22.86-12.822 5.876 0 11.313 1.904 15.738 5.121 2.429-4.131 3.828-8.941 3.828-14.08 0-15.367-12.458-27.825-27.825-27.825-8.007 0-15.22 3.387-20.296 8.802 4.896 4.861 7.933 11.593 7.933 19.022z" fill="#fff"/><path d="m303.447 208.85c-10.45 0-19.549 5.764-24.306 14.283 2.337 3.978 3.683 8.605 3.683 13.542s-1.347 9.564-3.683 13.542c4.757 8.519 13.856 14.282 24.306 14.282 15.367 0 27.824-12.458 27.824-27.824 0-15.368-12.457-27.825-27.824-27.825z" fill="#ffe177"/><path d="m324.116 218.05c-6.781 7.106-14.312 13.491-22.477 19.012-5.902 3.991-12.737 6.347-19.811 6.838-.626 2.235-1.534 4.353-2.685 6.313 4.755 8.521 13.853 14.286 24.304 14.286 15.367 0 27.824-12.458 27.824-27.824 0-7.164-2.709-13.693-7.155-18.625z" fill="#ffd15b"/><path d="m208.554 209.85c9.386 0 17.932 4.793 22.86 12.822l.839 1.366c.015-.01.03-.019.044-.029l.822-1.337c.691-1.128 1.48-2.22 2.343-3.246l.541-.644-.541-.644c-4.054-4.82-6.286-10.946-6.286-17.248 0-7.429 3.037-14.161 7.933-19.023-5.077-5.414-12.289-8.802-20.296-8.802-15.367 0-27.825 12.458-27.825 27.825 0 5.139 1.399 9.949 3.828 14.08 4.424-3.216 9.862-5.12 15.738-5.12z" fill="#fe646f"/><path d="m229.176 236.675c0-4.938 1.347-9.564 3.683-13.542-4.757-8.519-13.856-14.283-24.306-14.283-15.367 0-27.824 12.457-27.824 27.825 0 15.367 12.457 27.824 27.824 27.824 10.45 0 19.549-5.764 24.306-14.282-2.337-3.978-3.683-8.605-3.683-13.542z" fill="#80d261"/><path d="m230.201 244h-48.49c3.216 11.812 14.012 20.499 26.843 20.499 10.451 0 19.549-5.765 24.304-14.286-1.135-1.93-2.032-4.014-2.657-6.213z" fill="#68ca44"/></g></g></g></g><path d="m256 209.85c8.289 0 15.71 3.78 20.634 9.706 4.468-4.936 7.19-11.482 7.19-18.665 0-15.367-12.457-27.825-27.824-27.825s-27.824 12.458-27.824 27.825c0 7.182 2.722 13.729 7.19 18.665 4.924-5.926 12.345-9.706 20.634-9.706z" fill="#ffe177"/><g><circle cx="256" cy="236.675" fill="#62dbfb" r="27.825"/></g><path d="m279.05 244h-49.893c3.216 11.812 14.012 20.499 26.843 20.499 12.901 0 23.747-8.781 26.897-20.691-1.275.123-2.558.192-3.847.192z" fill="#01d0fb"/></g><path d="m213.5 363.169c0-23.435 19.065-42.5 42.5-42.5s42.5 19.065 42.5 42.5v103.331h86.552l-41.695-168.897c-1.102-4.466-5.109-7.603-9.708-7.603h-155.297c-4.6 0-8.606 3.138-9.708 7.603l-41.696 168.897h86.552z" fill="#fe646f"/><path d="m346.014 466.5h39.037l-41.695-168.897c-1.102-4.466-5.109-7.603-9.708-7.603h-31.206z" fill="#fd4755"/><g fill="#fd8087"><path d="m213.5 465.5h-107.5c-5.523 0-10 4.477-10 10v19c0 5.523 4.477 10 10 10h107.5z"/><path d="m406 465.5h-107.5v39h107.5c5.523 0 10-4.477 10-10v-19c0-5.523-4.477-10-10-10z"/></g><g fill="#fe646f"><path d="m213.5 484h-117.5v10.5c0 5.523 4.477 10 10 10h107.5z"/><path d="m406 465.5h-20v8.5c0 5.523-4.477 10-10 10h-77.5v20.5h107.5c5.523 0 10-4.477 10-10v-19c0-5.523-4.477-10-10-10z"/></g><path d="m295.15 416h-78.3l-4.35 1v87.5h87v-87.5z" fill="#fb2b3a"/><path d="m295.15 416h-20.15v57.831c0 5.523-4.477 10-10 10h-52.5v20.669h87v-87.5z" fill="#e41f2d"/><path d="m299.5 417h-87v-53.831c0-24.024 19.476-43.5 43.5-43.5 24.024 0 43.5 19.476 43.5 43.5z" fill="#fff"/><g><path d="m275 324.048v92.952h24.5v-53.831c0-17.209-10-32.068-24.5-39.121z" fill="#f2fbff"/></g><circle cx="256" cy="363.5" fill="#fe646f" r="16.5"/></g><path d="m260.953 347.759c.666 1.79 1.047 3.719 1.047 5.741 0 9.113-7.387 16.5-16.5 16.5-1.726 0-3.389-.267-4.953-.759 2.334 6.278 8.363 10.759 15.453 10.759 9.113 0 16.5-7.387 16.5-16.5 0-7.387-4.855-13.638-11.547-15.741z" fill="#fd4755"/></g></g><g><path d="m363.149 200.891c0-9.394-3.694-17.937-9.696-24.271 3.154-5.393 4.827-11.499 4.827-17.795 0-19.478-15.847-35.324-35.324-35.324-8.309 0-16.287 2.969-22.569 8.183-6.127-5.105-14-8.183-22.58-8.183-8.217 0-15.781 2.828-21.789 7.551-6.158-4.86-13.782-7.551-21.825-7.551-8.58 0-16.453 3.077-22.58 8.183-6.283-5.214-14.261-8.183-22.569-8.183-19.478 0-35.324 15.847-35.324 35.324 0 6.296 1.672 12.402 4.827 17.795-6.002 6.334-9.696 14.877-9.696 24.271 0 15.49 10.246 28.954 24.453 33.592-.045.726-.075 1.456-.075 2.193 0 19.478 15.847 35.324 35.325 35.324 8.966 0 17.336-3.323 23.738-9.161 6.273 5.69 14.593 9.161 23.708 9.161s17.436-3.472 23.708-9.161c6.402 5.839 14.772 9.161 23.738 9.161 19.479 0 35.325-15.847 35.325-35.324 0-.737-.03-1.467-.075-2.193 14.208-4.638 24.453-18.103 24.453-33.592zm-19.869-42.067c0 3.267-.787 6.44-2.268 9.306-4.078-1.647-8.527-2.563-13.188-2.563-5.754 0-11.308 1.382-16.323 4.008-.018-.01-.037-.019-.055-.028 1.1-3.448 1.686-7.056 1.686-10.722 0-5.488-1.259-10.688-3.502-15.326 3.666-3.181 8.397-4.998 13.326-4.998 11.207-.001 20.324 9.116 20.324 20.323zm-39.834 42.526c-4.26 0-8.381.763-12.228 2.174.066-.874.106-1.752.106-2.633 0-6.668-1.859-12.909-5.083-18.235 2.753-1.354 5.792-2.089 8.946-2.089 11.207 0 20.324 9.117 20.324 20.324 0 .855-.051 1.699-.153 2.531-3.723-1.339-7.733-2.072-11.912-2.072zm-106.805 2.072c-.102-.832-.153-1.676-.153-2.531 0-11.207 9.117-20.324 20.324-20.324 3.154 0 6.193.735 8.946 2.089-3.224 5.327-5.083 11.568-5.083 18.235 0 .881.04 1.759.106 2.633-3.847-1.411-7.968-2.174-12.228-2.174-4.178 0-8.188.733-11.912 2.072zm40.036 3.703c-.647-2.002-1.002-4.102-1.002-6.235 0-11.207 9.117-20.324 20.324-20.324s20.324 9.117 20.324 20.324c0 2.132-.355 4.232-1.002 6.235-5.557-3.646-12.194-5.776-19.323-5.776s-13.764 2.13-19.321 5.776zm61.455-48.301c0 2.33-.405 4.62-1.174 6.787-.586-.029-1.176-.045-1.77-.045-7.082 0-13.852 2.078-19.611 5.938-4.91-3.282-10.684-5.359-16.903-5.827-.782-2.187-1.191-4.504-1.191-6.854 0-11.207 9.117-20.324 20.324-20.324s20.325 9.118 20.325 20.325zm-63.939-20.324c4.491 0 8.756 1.465 12.245 4.113-2.522 4.859-3.956 10.37-3.956 16.212 0 3.045.405 6.059 1.17 8.974-2.563.96-4.986 2.208-7.228 3.707-5.76-3.861-12.529-5.938-19.611-5.938-.594 0-1.183.016-1.77.045-.769-2.167-1.174-4.458-1.174-6.787-.001-11.209 9.117-20.326 20.324-20.326zm-45.149 0c4.929 0 9.66 1.817 13.326 4.998-2.243 4.638-3.502 9.838-3.502 15.327 0 3.666.586 7.274 1.686 10.722-.018.01-.037.019-.055.028-5.015-2.626-10.569-4.008-16.323-4.008-4.661 0-9.11.916-13.188 2.563-1.481-2.865-2.268-6.039-2.268-9.306 0-11.207 9.117-20.324 20.324-20.324zm-25.193 62.391c0-11.207 9.118-20.324 20.325-20.324 1.201 0 2.384.114 3.545.319-3.927 5.692-6.233 12.583-6.233 20.006 0 3.787.623 7.55 1.806 11.124-2.317 2.373-4.305 5.066-5.886 8.012-7.903-2.82-13.557-10.413-13.557-19.137zm44.703 56.108c-11.207 0-20.325-9.117-20.325-20.324s9.118-20.325 20.325-20.325c5.771 0 11.122 2.386 14.93 6.528-1.806 4.241-2.808 8.904-2.808 13.798 0 4.893 1.001 9.556 2.808 13.797-3.809 4.14-9.159 6.526-14.93 6.526zm47.446 0c-11.207 0-20.324-9.117-20.324-20.324s9.117-20.325 20.324-20.325 20.324 9.118 20.324 20.325-9.117 20.324-20.324 20.324zm47.446 0c-5.771 0-11.121-2.386-14.93-6.528 1.806-4.241 2.808-8.904 2.808-13.797s-1.001-9.556-2.808-13.798c3.808-4.142 9.159-6.528 14.93-6.528 11.207 0 20.325 9.118 20.325 20.325s-9.118 20.326-20.325 20.326zm31.146-36.972c-1.581-2.946-3.569-5.639-5.886-8.012 1.183-3.575 1.806-7.337 1.806-11.124 0-7.422-2.306-14.314-6.233-20.006 1.161-.204 2.345-.319 3.545-.319 11.207 0 20.325 9.117 20.325 20.324 0 8.725-5.654 16.318-13.557 19.137z"/><path d="m409 458h-18.322l-40.041-162.194c-1.069-4.33-3.685-7.932-7.17-10.293 35.604-27.121 57.057-69.611 57.057-115.037 0-7.008-.524-14.131-1.559-21.17-.602-4.099-4.42-6.936-8.51-6.33-4.099.602-6.933 4.412-6.33 8.51.928 6.32 1.398 12.709 1.398 18.99 0 46.108-24.656 88.852-64.482 112.024h-130.083c-39.826-23.173-64.482-65.916-64.482-112.024 0-23.028 6.119-45.639 17.695-65.388 10.903-18.601 26.362-34.279 44.791-45.451h134.076c23.061 13.988 41.519 35.213 52.106 59.969 1.627 3.808 6.033 5.573 9.845 3.946 3.809-1.628 5.575-6.036 3.946-9.845-11.534-26.97-31.452-50.165-56.333-65.768v-10.439c0-20.678-16.822-37.5-37.5-37.5h-78.205c-20.678 0-37.5 16.822-37.5 37.5v10.417c-19.764 12.38-36.361 29.445-48.167 49.585-12.924 22.048-19.755 47.281-19.755 72.974 0 45.426 21.453 87.916 57.057 115.037-3.485 2.362-6.102 5.964-7.17 10.293l-7.179 29.079c-.993 4.021 1.462 8.087 5.483 9.079 4.029.995 8.086-1.463 9.079-5.483l7.179-29.079c.276-1.119 1.274-1.901 2.427-1.901h155.297c1.152 0 2.15.782 2.427 1.901l39.153 158.598h-26.228c-4.143 0-7.5 3.357-7.5 7.5s3.357 7.5 7.5 7.5h58.498c.457.552 1.002 1.502 1.002 2.5v19c0 1.379-1.121 2.5-2.5 2.5h-99v-24h7c4.143 0 7.5-3.357 7.5-7.5s-3.357-7.5-7.5-7.5h-7v-94.831c0-28.121-22.879-51-51-51s-51 22.879-51 51v94.831h-68.228l23.573-95.488c.993-4.021-1.462-8.087-5.483-9.079-4.022-.992-8.086 1.463-9.079 5.483l-24.461 99.084h-15.322c-9.649 0-17.5 7.851-17.5 17.5v19c0 9.649 7.851 17.5 17.5 17.5h300c9.649 0 17.5-7.851 17.5-17.5v-19c0-8.995-7.047-17.5-14.5-17.5zm-214.603-420.5c0-12.406 10.094-22.5 22.5-22.5h78.205c12.406 0 22.5 10.094 22.5 22.5v7.137h-123.205zm25.603 325.669c0-19.851 16.149-36 36-36s36 16.149 36 36v46.331h-72zm-116.5 131.331v-19c0-1.379 1.121-2.5 2.5-2.5h99v24h-99c-1.379 0-2.5-1.121-2.5-2.5zm116.5-70h72v72.5h-72z"/><path d="m256 339.5c-13.233 0-24 10.767-24 24s10.767 24 24 24 24-10.767 24-24-10.767-24-24-24zm0 33c-4.963 0-9-4.037-9-9s4.037-9 9-9 9 4.037 9 9-4.037 9-9 9z"/></g></g><g/><g/><g/><g/><g/><g/><g/><g/><g/><g/><g/><g/><g/><g/><g/></svg>