<svg height="512" viewBox="0 0 64 64" width="512" xmlns="http://www.w3.org/2000/svg"><g id="_25-Bucket" data-name="25-Bucket"><path d="m45.47 61h-26.94a4 4 0 0 1 -4-3.5l-3.53-28.5h42l-3.56 28.5a4 4 0 0 1 -3.97 3.5z" fill="#fcb860"/><path d="m52 37-1 8h-38l-1-8z" fill="#fcaa52"/><rect fill="#fcc67c" height="6" rx="2.04" width="48" x="8" y="23"/><path d="m53 29h-42l.38 3h38.25l-3.2 25.62a4.94 4.94 0 0 1 -2 3.38h1a4 4 0 0 0 4-3.5z" fill="#fcaa52"/><path d="m48.01 45h2.99l1-8h-2.99z" fill="#fc9e3a"/><path d="m54 23h-1.81a3 3 0 0 1 .81 2v2a3 3 0 0 1 -.81 2h1.81a2 2 0 0 0 2-2v-2a2 2 0 0 0 -2-2z" fill="#fcb860"/><path d="m54 22a20 20 0 0 0 -20-20h-4a20 20 0 0 0 -20 20 3 3 0 0 0 -3 3v2a3.05 3.05 0 0 0 3 3h.08l3.45 27.62a5 5 0 0 0 5 4.38h26.94a5 5 0 0 0 5-4.38l.31-2.5a1 1 0 0 0 -.91-1.12 1 1 0 0 0 -1.11.87l-.31 2.5a3 3 0 0 1 -3 2.62h-26.92a3 3 0 0 1 -3-2.62l-1.4-11.37h35.74l-.61 4.88a1 1 0 0 0 .87 1.12h.12a1 1 0 0 0 1-.88l2.63-21.12h.12a3.05 3.05 0 0 0 3-3v-2a3 3 0 0 0 -3-3zm-24-18h4a18 18 0 0 1 18 18h-40a18 18 0 0 1 18-18zm-16.87 34h37.74l-.25 2h-37.24zm.75 6-.25-2h36.74l-.25 2zm41.12-17a1 1 0 0 1 -1 1h-33a1 1 0 0 0 0 2h30.87l-.75 6h-38.24l-.75-6h4.87a1 1 0 0 0 0-2h-7a1 1 0 0 1 -1-1v-2a1 1 0 0 1 1-1h44a1 1 0 0 1 1 1z"/></g></svg>