<svg id="Capa_1" enable-background="new 0 0 512 512" height="512" viewBox="0 0 512 512" width="512" xmlns="http://www.w3.org/2000/svg"><g><g><g fill="#7ebae6"><path d="m474.634 497.232h-91.218v-360.684h103.79v348.111c.001 6.944-5.628 12.573-12.572 12.573z"/><path d="m474.634 497.232h-91.218v-360.684h103.79v348.111c.001 6.944-5.628 12.573-12.572 12.573z"/><path d="m474.634 497.232h-91.218v-360.684h103.79v348.111c.001 6.944-5.628 12.573-12.572 12.573z"/></g><path d="m464.796 136.548v348.112c0 6.944-5.629 12.573-12.573 12.573h22.41c6.944 0 12.573-5.629 12.573-12.573v-348.112z" fill="#4da6d1"/><path d="m400.71 304.523h94.89c4.92 0 8.9 3.98 8.9 8.89v11.75c0 4.91-3.98 8.9-8.9 8.9h-112.18v-24.14z" fill="#4da6d1"/><path d="m495.6 304.523h-22.411c4.92 0 8.9 3.98 8.9 8.89v11.75c0 4.91-3.98 8.9-8.9 8.9h22.411c4.92 0 8.9-3.99 8.9-8.9v-11.75c0-4.91-3.98-8.89-8.9-8.89z" fill="#3f96bf"/><path d="m453.527 228.977h-35.71v-43.471c0-9.806 7.95-17.756 17.756-17.756h.198c9.806 0 17.756 7.95 17.756 17.756z" fill="#4da6d1"/><path d="m435.771 167.75h-.198c-3.341 0-6.455.94-9.124 2.544 5.165 3.105 8.632 8.746 8.632 15.212v43.471h18.446v-43.471c0-9.806-7.949-17.756-17.756-17.756z" fill="#3f96bf"/><path d="m453.527 440.9h-35.71v-43.471c0-9.806 7.95-17.756 17.756-17.756h.198c9.806 0 17.756 7.95 17.756 17.756z" fill="#4da6d1"/><path d="m435.771 379.673h-.198c-3.341 0-6.455.94-9.124 2.544 5.165 3.105 8.632 8.746 8.632 15.212v43.471h18.446v-43.471c0-9.806-7.949-17.756-17.756-17.756z" fill="#3f96bf"/><path d="m37.508 497.232h91.218v-360.684h-103.791v348.111c0 6.944 5.629 12.573 12.573 12.573z" fill="#7ebae6"/><path d="m106.315 136.548h22.41v360.684h-22.41z" fill="#4da6d1"/><path d="m16.468 334.06h112.257v-29.54h-112.257c-4.914 0-8.898 3.984-8.898 8.898v11.745c0 4.913 3.984 8.897 8.898 8.897z" fill="#4da6d1"/><path d="m106.315 304.519h22.41v29.54h-22.41z" fill="#3f96bf"/><path d="m58.473 228.977h35.71v-43.471c0-9.806-7.95-17.756-17.756-17.756h-.198c-9.806 0-17.756 7.95-17.756 17.756z" fill="#4da6d1"/><path d="m76.427 167.75h-.198c-3.341 0-6.455.94-9.124 2.544 5.165 3.105 8.632 8.746 8.632 15.212v43.471h18.446v-43.471c0-9.806-7.95-17.756-17.756-17.756z" fill="#3f96bf"/><path d="m58.473 440.9h35.71v-43.471c0-9.806-7.95-17.756-17.756-17.756h-.198c-9.806 0-17.756 7.95-17.756 17.756z" fill="#4da6d1"/><path d="m76.427 379.673h-.198c-3.341 0-6.455.94-9.124 2.544 5.165 3.105 8.632 8.746 8.632 15.212v43.471h18.446v-43.471c0-9.806-7.95-17.756-17.756-17.756z" fill="#3f96bf"/><path d="m128.725 91.756h254.69v405.463h-254.69z" fill="#bbe0ff"/><path d="m360.97 91.756h22.446v405.463h-22.446z" fill="#9dc9eb"/><path d="m391.702 58.429-124.733-41.884c-7.117-2.39-14.821-2.39-21.938 0l-124.733 41.884c-6.762 2.27-11.318 8.606-11.318 15.739v17.602h294.04v-17.602c0-7.133-4.556-13.469-11.318-15.739z" fill="#7ebae6"/><path d="m391.702 58.429-124.733-41.884c-7.117-2.39-14.821-2.39-21.938 0l-5.152 1.73c4.965-.557 10.019-.058 14.81 1.551l114.568 38.603c6.762 2.271 11.318 8.606 11.318 15.739v17.602h22.446v-17.602c-.001-7.133-4.557-13.469-11.319-15.739z" fill="#4da6d1"/><path d="m330.979 279.06h29.991v218.172h-29.991z" fill="#9dc9eb"/><path d="m128.725 279.06h29.991v218.172h-29.991z" fill="#ffcebf"/><path d="m353.425 279.06h29.991v218.172h-29.991z" fill="#ffcebf"/><path d="m240.202 91.77h31.596v157.75h-31.596z" fill="#ffdfcf"/><path d="m400.638 279.06h-289.276v-23.8c0-3.17 2.57-5.74 5.74-5.74h277.797c3.17 0 5.74 2.57 5.74 5.74v23.8z" fill="#ffcebf"/><path d="m394.898 249.519h-18.446c3.17 0 5.74 2.57 5.74 5.74v23.8h18.446v-23.8c0-3.17-2.57-5.74-5.74-5.74z" fill="#ffb09e"/><path d="m319.673 497.232h-127.346v-93.477c0-34.97 28.349-63.319 63.32-63.319h.706c34.97 0 63.319 28.349 63.319 63.319v93.477z" fill="#4da6d1"/><path d="m256.353 340.436h-.706c-3.708 0-7.336.337-10.87.949 29.788 5.157 52.45 31.109 52.45 62.371v93.477h22.446v-93.477c0-34.971-28.35-63.32-63.32-63.32z" fill="#3f96bf"/><path d="m281.637 497.232h-51.274v-85.465c0-14.08 11.414-25.495 25.495-25.495h.284c14.08 0 25.495 11.414 25.495 25.495z" fill="#a3847e"/><path d="m256.142 386.272h-.284c-3.971 0-7.73.909-11.081 2.528 8.53 4.123 14.414 12.857 14.414 22.967v85.465h22.446v-85.465c0-14.08-11.414-25.495-25.495-25.495z" fill="#8e746e"/><path d="m209.92 214.601h-51.274v-62.417c0-14.08 11.414-25.495 25.495-25.495h.284c14.08 0 25.495 11.414 25.495 25.495z" fill="#4da6d1"/><path d="m184.425 126.688h-.284c-3.971 0-7.73.909-11.081 2.528 8.53 4.123 14.414 12.857 14.414 22.967v62.417h22.446v-62.417c0-14.08-11.415-25.495-25.495-25.495z" fill="#3f96bf"/><path d="m353.425 214.601h-51.274v-62.417c0-14.08 11.414-25.495 25.495-25.495h.284c14.08 0 25.495 11.414 25.495 25.495z" fill="#4da6d1"/><path d="m327.93 126.688h-.284c-3.971 0-7.73.909-11.081 2.528 8.53 4.123 14.414 12.857 14.414 22.967v62.417h22.446v-62.417c0-14.08-11.414-25.495-25.495-25.495z" fill="#3f96bf"/><path d="m158.646 319.289-47.284-14.77v-25.459h47.284z" fill="#ffdfcf"/><path d="m400.71 304.519-47.285 14.77v-40.229h47.285z" fill="#ffdfcf"/><path d="m382.264 279.06v25.459l-28.839 9.008v5.762l47.284-14.77v-25.459z" fill="#ffcebf"/></g><g><path d="m302.151 222.1h51.273c4.143 0 7.5-3.357 7.5-7.5v-62.417c0-18.193-14.801-32.995-32.994-32.995h-.284c-18.193 0-32.995 14.802-32.995 32.995v62.417c0 4.143 3.358 7.5 7.5 7.5zm7.5-15v-26.639h36.273v26.639zm17.995-72.912h.284c9.922 0 17.994 8.072 17.994 17.995v13.278h-36.273v-13.278c0-9.923 8.073-17.995 17.995-17.995z"/><path d="m217.42 152.183c0-18.193-14.802-32.995-32.995-32.995h-.284c-18.193 0-32.995 14.802-32.995 32.995v62.417c0 4.143 3.357 7.5 7.5 7.5h51.274c4.143 0 7.5-3.357 7.5-7.5zm-33.279-17.995h.284c9.923 0 17.995 8.072 17.995 17.995v13.278h-36.274v-13.278c0-9.923 8.072-17.995 17.995-17.995zm-17.995 72.912v-26.639h36.274v26.639z"/><path d="m495.6 297.023h-87.39l-.071-41.764c0-7.301-5.939-13.24-13.24-13.24h-3.979v-97.967h88.79v124.728c0 4.143 3.357 7.5 7.5 7.5s7.5-3.357 7.5-7.5v-124.732h9.79c4.143 0 7.5-3.357 7.5-7.5s-3.357-7.5-7.5-7.5l-113.58.004v-29.782h32.475c4.143 0 7.5-3.357 7.5-7.5s-3.357-7.5-7.5-7.5h-12.875v-10.103c0-10.366-6.603-19.548-16.43-22.849l-124.735-41.883c-8.611-2.891-18.099-2.891-26.712 0l-124.733 41.884c-9.827 3.301-16.43 12.482-16.43 22.849v10.102h-12.875c-4.143 0-7.5 3.357-7.5 7.5s3.357 7.5 7.5 7.5h32.625v142.749h-4.129c-7.301 0-13.24 5.939-13.24 13.24v41.764h-71.431v-152.971h59.753c4.143 0 7.5-3.357 7.5-7.5s-3.357-7.5-7.5-7.5l-84.683-.004c-4.143 0-7.5 3.357-7.5 7.5s3.357 7.5 7.5 7.5h9.93v152.975c-8.41-.567-17.446 6.86-17.359 16.39v11.75c-.049 8.715 7.871 16.874 17.359 16.4v143.1c0 11.066 9.008 20.07 20.08 20.07h437.12c11.072 0 20.08-9.004 20.08-20.07v-143.1h.89c9.043 0 16.4-7.357 16.4-16.4v-11.75c0-9.038-7.357-16.39-16.4-16.39zm-303.273 133.875c4.143 0 7.5-3.357 7.5-7.5v-19.643c0-30.779 25.04-55.819 55.819-55.819h.707c30.779 0 55.819 25.04 55.819 55.819v85.967h-23.036v-77.955c0-18.193-14.801-32.995-32.994-32.995h-.285c-18.193 0-32.994 14.802-32.994 32.995v77.955h-23.036v-30.901c0-4.143-3.357-7.5-7.5-7.5s-7.5 3.357-7.5 7.5v30.901h-18.61v-203.162h179.708v203.162h-18.752v-85.967c0-39.05-31.77-70.819-70.819-70.819h-.707c-39.05 0-70.819 31.77-70.819 70.819v19.643c-.001 4.143 3.357 7.5 7.499 7.5zm81.81 58.824h-36.273v-77.955c0-9.923 8.072-17.995 17.994-17.995h.285c9.922 0 17.994 8.072 17.994 17.995zm-155.276-203.162h32.284v22.529l-32.284-10.085zm17.369 203.162v-155.659-13.918l14.986 4.681v164.896zm239.69 0h-14.995v-164.918l14.995-4.684zm-14.995-180.633v-22.529h32.285v12.444zm14.995-67.07h-96.622v-142.749h96.622zm-128.218-142.749h16.596v142.749h-16.596zm-131.222-25.103c0-3.915 2.493-7.382 6.205-8.628l124.732-41.884c5.535-1.859 11.63-1.858 17.163-.001l124.734 41.886v-.001c3.712 1.247 6.205 4.714 6.205 8.629v10.102h-279.039zm19.75 25.103h96.472v142.749h-96.472zm-17.369 157.749h274.277v14.541h-274.277zm-103.791 68.144v-11.75c0-.767.628-1.39 1.399-1.39h93.759l11.002 3.437v11.103h-104.76c-.772 0-1.4-.628-1.4-1.4zm17.36 159.5v-143.1h88.801v148.17h-83.721c-2.801 0-5.08-2.275-5.08-5.07zm447.28 0c0 2.796-2.279 5.07-5.08 5.07h-83.71v-148.17h88.79zm17.29-159.5c0 .772-.628 1.4-1.4 1.4h-104.68v-11.128l10.923-3.412h93.757c.772 0 1.4.623 1.4 1.39z"/><path d="m435.573 160.25c-13.926 0-25.256 11.33-25.256 25.256v43.471c0 4.143 3.357 7.5 7.5 7.5h35.71c4.143 0 7.5-3.357 7.5-7.5v-43.471c0-13.926-11.33-25.256-25.256-25.256zm10.454 25.256v35.971h-20.71v-35.971c0-5.655 4.601-10.256 10.256-10.256h.198c5.656 0 10.256 4.601 10.256 10.256z"/><path d="m417.817 448.4h35.71c4.143 0 7.5-3.357 7.5-7.5v-43.471c0-13.926-11.33-25.256-25.256-25.256h-.198c-13.926 0-25.256 11.33-25.256 25.256v43.471c0 4.142 3.358 7.5 7.5 7.5zm7.5-50.971c0-5.655 4.601-10.256 10.256-10.256h.198c5.655 0 10.256 4.601 10.256 10.256v35.971h-20.71z"/><path d="m76.427 160.25h-.198c-13.926 0-25.256 11.33-25.256 25.256v43.471c0 4.143 3.357 7.5 7.5 7.5h35.71c4.143 0 7.5-3.357 7.5-7.5v-43.471c0-13.925-11.33-25.256-25.256-25.256zm10.256 61.227h-20.71v-35.971c0-5.655 4.601-10.256 10.256-10.256h.198c5.655 0 10.256 4.601 10.256 10.256z"/><path d="m76.427 372.173h-.198c-13.926 0-25.256 11.33-25.256 25.256v43.471c0 4.143 3.357 7.5 7.5 7.5h35.71c4.143 0 7.5-3.357 7.5-7.5v-43.471c0-13.926-11.33-25.256-25.256-25.256zm10.256 61.227h-20.71v-35.971c0-5.655 4.601-10.256 10.256-10.256h.198c5.655 0 10.256 4.601 10.256 10.256z"/><path d="m237.554 319.43c4.118 0 7.456-3.338 7.456-7.456s-3.338-7.456-7.456-7.456-7.455 3.338-7.455 7.456 3.338 7.456 7.455 7.456z"/><circle cx="202.205" cy="311.975" r="7.456"/><circle cx="309.795" cy="311.975" r="7.456"/><path d="m274.446 319.43c4.118 0 7.455-3.338 7.455-7.456s-3.338-7.456-7.455-7.456-7.456 3.338-7.456 7.456 3.338 7.456 7.456 7.456z"/></g></g></svg>