<svg id="Layer_1" enable-background="new 0 0 512 512" viewBox="0 0 512 512" xmlns="http://www.w3.org/2000/svg"><g clip-rule="evenodd" fill-rule="evenodd"><g><g><path d="m127.79 410.496 2.228-135.515-100.344-26.888 5.156-19.297 120.728 11.671c9.585 2.561 15.669 11.674 14.725 21.235l-2.694 152.224c2.133 2.059 3.836 4.421 4.996 6.994 14.202 1.451 25.187 11.267 25.187 23.162 0 12.894-12.908 23.347-28.83 23.347-10.563 0-19.797-4.601-24.818-11.463-5.206 6.071-13.877 10.048-23.696 10.048-15.922 0-28.83-10.453-28.83-23.347 0-12.559 12.246-22.801 27.596-23.325 1.941-3.488 4.911-6.521 8.596-8.846z" fill="#8d9ca8"/><path d="m127.79 410.496 2.228-135.515 11.528 3.089-2.228 135.515c-3.685 2.325-6.655 5.358-8.596 8.848-15.35.524-27.596 10.765-27.596 23.325 0 8.572 5.706 16.064 14.209 20.124-14.467-1.25-25.736-11.165-25.736-23.213 0-12.559 12.246-22.801 27.596-23.325 1.94-3.49 4.91-6.523 8.595-8.848zm-86.588-159.314-11.528-3.089 5.156-19.297 120.728 11.671c2.076.555 3.988 1.418 5.7 2.526l-114.9-11.108zm124.646 216.115c-5.28-.456-10.134-2.067-14.169-4.514 1.479-1.124 2.811-2.373 3.972-3.726 2.484 3.395 6 6.236 10.197 8.24z" fill="#7a8c98"/><path d="m9 145.432 103.201 27.653-25.108 93.704-78.093-20.925z" fill="#64b5f6"/><path d="m108.278 172.034 3.923 1.051-25.108 93.704-78.093-20.925v-15.691l78.093 20.925z" fill="#42a5f5"/><path d="m109.612 158.537 12.106 3.244c3.197.857 5.111 4.173 4.255 7.37l-28.92 107.932c-.857 3.197-4.173 5.112-7.37 4.255l-12.107-3.244c-3.197-.857-5.111-4.173-4.255-7.37l28.921-107.932c.856-3.197 4.172-5.112 7.37-4.255z" fill="#b4d2d7"/><path d="m120.478 161.449 1.24.332c3.197.857 5.111 4.173 4.255 7.37l-28.92 107.932c-.857 3.197-4.173 5.112-7.37 4.255l-12.107-3.244c-3.197-.857-5.111-4.173-4.255-7.37l.038-.141 10.867 2.912c3.197.857 6.513-1.058 7.37-4.255z" fill="#9bb9c3"/></g><g><path d="m13 355.909h90.707v46.812h-30.697c-2.2 0-4 1.8-4 4v36.842c0 2.2 1.8 4 4 4h149.154c2.2 0 4-1.8 4-4v-36.842c0-2.2-1.8-4-4-4h-30.697v-46.812h307.533c2.203 0 4 1.797 4 4v138.245c0 2.203-1.797 4-4 4h-486c-2.203 0-4-1.797-4-4v-138.245c0-2.203 1.797-4 4-4z" fill="#da8c36"/><path d="m87.1 355.909h16.607v46.812h-30.697c-2.2 0-4 1.8-4 4v36.842h-12.607c-2.2 0-4-1.8-4-4v-48.066c0-2.2 1.8-4 4-4h30.697zm135.064 46.813h-30.697v-15.224h26.697c2.2 0 4 1.8 4 4zm264.229-46.813v127.02c0 2.203-1.797 4-4 4h-473.393v11.224c0 2.203 1.797 4 4 4h486c2.203 0 4-1.797 4-4v-138.244c0-2.203-1.797-4-4-4z" fill="#c97629"/></g><g><path d="m324.532 307.339h79.76c2.2 0 4 1.8 4 4v132.224c0 2.2-1.8 4-4 4h-79.76c-2.2 0-4-1.8-4-4v-132.224c0-2.2 1.8-4 4-4z" fill="#8d9ca8"/><path d="m391.65 307.339h12.642c2.2 0 4 1.8 4 4v132.224c0 2.2-1.8 4-4 4h-12.642c2.2 0 4-1.8 4-4v-132.224c0-2.2-1.799-4-4-4z" fill="#7a8c98"/><path d="m289.835 402.722h149.154c2.2 0 4 1.8 4 4v36.842c0 2.2-1.8 4-4 4h-149.154c-2.2 0-4-1.8-4-4v-36.842c0-2.201 1.8-4 4-4z" fill="#596c76"/><path d="m430.754 402.722h8.236c2.2 0 4 1.8 4 4v36.842c0 2.2-1.8 4-4 4h-149.155c-2.2 0-4-1.8-4-4v-8.236h140.918c2.2 0 4-1.8 4-4v-28.606z" fill="#465a61"/></g></g><path d="m495.018 494.19h-477.989v-130.249h78.706v30.822h-22.73c-6.602 0-11.978 5.376-11.978 11.997v36.84c0 6.612 5.376 12.002 11.978 12.002h149.159c6.649 0 12.025-5.39 12.025-12.002v-36.84c0-6.621-5.376-11.997-12.025-11.997h-22.683v-30.822h113.084v30.822h-22.73c-6.602 0-11.978 5.376-11.978 11.997v36.84c0 6.612 5.376 12.002 11.978 12.002h149.159c6.649 0 12.025-5.39 12.025-12.002v-36.84c0-6.621-5.376-11.997-12.025-11.997h-22.683v-30.822h78.706v130.249zm-375.515-66.822c-9.526.335-17.495 5.565-19.429 12.233h88.75c-2.358-5.55-8.866-9.851-17.024-10.691-2.829-.288-5.329-2.07-6.508-4.669-.707-1.622-1.792-3.141-3.254-4.522-1.603-1.547-2.452-3.678-2.452-5.899l2.688-152.22c.047-.217.047-.429.047-.651.566-5.659-2.877-10.851-8.253-12.558l-39.99-3.857-4.48 16.727 22.494 6.031c3.537.948 5.989 4.188 5.942 7.861l-2.216 135.507c-.047 2.702-1.462 5.192-3.726 6.63-2.594 1.632-4.621 3.688-5.895 5.98-1.366 2.452-3.912 4.013-6.694 4.098zm-29.663-154.238-8.252-2.221 27.87-104.1 8.3 2.221zm-72.811-117.238v83.87l52.58 14.091 20.938-78.253zm360.378-91.071-38.056 36.052v-36.052zm-48.855 329.942h71.774v-79.394h-71.774zm106.434 15.996h-141.142v28.842h141.142zm-45.459-299.299v-36.047l-38.103 36.047zm0 62.639h-38.103l38.103-36.047zm0 89.222v36.052h-38.103zm-50.176-10.582v36.052l38.056-36.052zm50.176-15.996h-38.103l38.103-36.052zm-50.176-46.643v36.052l38.056-36.052zm0-62.64v36.052l38.056-36.052zm163.684 220.48h-86.723v-36.57c0-6.21-4.763-11.327-10.799-11.94v-289.618c0-4.423-3.584-8.003-8.017-8.003-4.386 0-7.97 3.579-7.97 8.003v39.008h-50.176v-39.008c0-4.423-3.584-8.003-8.017-8.003s-8.017 3.579-8.017 8.003v289.618c-6.036.613-10.752 5.73-10.752 11.94v36.571h-121.052c-4.433 0-8.017 3.589-8.017 8.003v46.818c0 4.409 3.584 7.998 8.017 7.998h26.644v28.842h-12.78c-2.122-12.61-13.11-22.942-27.681-25.951-.613-.939-1.273-1.858-2.028-2.749l2.641-148.721c1.179-13.549-7.498-25.88-20.655-29.412-.424-.108-.849-.189-1.32-.226l-38.056-3.678 15.42-57.613c2.028-7.46-2.452-15.161-9.903-17.161l-12.072-3.249c-7.262-1.938-14.76 2.221-16.977 9.309l-83.658-22.409c-2.405-.641-4.952-.142-6.932 1.377-1.981 1.514-3.16 3.862-3.16 6.352v100.431c0 3.617 2.452 6.791 5.942 7.729l58.523 15.68c-.755 3.419-.189 6.951 1.556 10.011 1.886 3.249 4.904 5.569 8.488 6.541l12.119 3.24c1.226.321 2.452.476 3.631.476 6.178 0 11.884-4.136 13.534-10.389l.66-2.48 16.505 4.423-2.075 125.279c-1.933 1.608-3.678 3.391-5.187 5.319-16.552 2.179-29.285 13.619-30.888 27.87h-6.791v-28.842h26.691c4.433 0 8.017-3.589 8.017-7.998v-46.818c0-4.414-3.584-8.003-8.017-8.003h-94.691c-4.433 0-8.017 3.589-8.017 8.003v146.245c0 4.423 3.584 8.003 8.017 8.003h494.022c4.386 0 7.97-3.579 7.97-8.003v-146.245c0-4.414-3.584-8.003-7.969-8.003z"/></g></svg>