<svg clip-rule="evenodd" fill-rule="evenodd" height="512" image-rendering="optimizeQuality" shape-rendering="geometricPrecision" text-rendering="geometricPrecision" viewBox="0 0 512 512" width="512" xmlns="http://www.w3.org/2000/svg" xmlns:xodm="http://www.corel.com/coreldraw/odm/2003"><g id="Layer_x0020_1"><path d="m180.96 122.62h-105.72c-2.76 0-5-2.24-5-5v-22.95c0-15.41 12.54-27.94 27.95-27.94h59.83c15.41 0 27.94 12.53 27.94 27.94v22.95c0 2.76-2.24 5-5 5z" fill="#99d8aa"/><path d="m180.96 354.69h-105.72c-2.76 0-5-2.24-5-5v-22.95c0-15.41 12.54-27.95 27.95-27.95h59.83c15.41 0 27.94 12.54 27.94 27.95v22.95c0 2.76-2.24 5-5 5z" fill="#99d8aa"/><path d="m466.36 192.76c-139.06 0-278.71 0-420.72 0-2.77 0-5-2.24-5-5v-70.14c0-2.76 2.23-5 5-5h420.72c2.76 0 5 2.24 5 5v70.14c0 2.76-2.24 5-5 5z" fill="#b36435"/><path d="m466.36 424.83c-138.55 0-277.91 0-420.72 0-2.77 0-5-2.24-5-5v-70.14c0-2.76 2.23-5 5-5h420.72c2.77 0 5 2.24 5 5v70.14c0 2.76-2.24 5-5 5z" fill="#b36435"/><path d="m45.64 511.98h-33.09c-2.77 0-5-2.24-5-5v-501.95c0-2.77 2.23-5 5-5h33.09c2.76 0 5 2.23 5 5v501.95c0 2.76-2.24 5-5 5z" fill="#c2825b"/><path d="m499.45 511.98h-33.09c-2.76 0-5-2.24-5-5v-501.95c0-2.77 2.24-5 5-5h33.09c2.77 0 5 2.23 5 5v501.95c0 2.76-2.23 5-5 5z" fill="#c2825b"/><g fill="#a7a7a7"><path d="m414.79 172.25h-75.02c-6.59 0-6.59-9.99 0-9.99h75.02c6.59 0 6.58 9.99 0 9.99z"/><path d="m414.79 230.27h-75.02c-6.59 0-6.59-10 0-10h75.02c6.59 0 6.58 10 0 10z"/><path d="m414.79 288.29h-75.02c-6.59 0-6.59-10 0-10h75.02c6.59 0 6.58 10 0 10z"/><path d="m414.79 346.3h-75.02c-6.59 0-6.59-10 0-10h75.02c6.59 0 6.58 10 0 10z"/><path d="m414.79 404.32h-75.02c-6.59 0-6.59-10 0-10h75.02c6.59 0 6.58 10 0 10z"/><path d="m414.79 462.34h-75.02c-6.59 0-6.59-10 0-10h75.02c6.59 0 6.58 10 0 10z"/></g><path d="m414.79 511.97h-75.02c-2.77 0-5-2.23-5-5v-394.35h85.02v394.35c0 2.77-2.24 5-5 5zm-70.03-10h65.03v-379.35h-65.03z" fill="#cdcdcd"/></g></svg>