<svg id="Layer_1" viewBox="0 0 1000 1000" xmlns="http://www.w3.org/2000/svg" data-name="Layer 1"><path d="m861 514v360.47a7.5 7.5 0 0 1 -7.5 7.5c-20.08 0-29.51 5.45-40.43 11.76-11.18 6.45-23.84 13.77-48 13.77s-36.77-7.32-47.94-13.77c-10.87-6.31-20.3-11.73-40.39-11.73s-29.51 5.45-40.43 11.76c-11.18 6.45-23.84 13.77-47.94 13.77s-36.77-7.32-47.94-13.77c-10.92-6.34-20.36-11.76-40.43-11.76s-29.51 5.45-40.43 11.76c-11.18 6.45-23.84 13.77-47.94 13.77s-36.77-7.32-47.94-13.77c-10.94-6.34-20.37-11.76-40.45-11.76s-29.52 5.45-40.44 11.76c-11.17 6.45-23.83 13.77-47.93 13.77s-36.77-7.32-47.94-13.77c-10.93-6.34-20.35-11.76-40.43-11.76a7.5 7.5 0 0 1 -7.5-7.5v-360.5a7.5 7.5 0 0 1 7.5-7.5c24.1 0 36.76 7.31 47.94 13.77 10.92 6.31 20.35 11.76 40.43 11.76s29.51-5.45 40.43-11.76c11.17-6.45 23.83-13.77 47.94-13.77s36.77 7.31 47.94 13.77c10.92 6.31 20.35 11.76 40.44 11.76a86 86 0 0 0 11.71-.75 59.86 59.86 0 0 0 17.85-5.18 7.5 7.5 0 0 1 6.3 13.62c-1 .45-1.93.87-2.9 1.27-10 4.16-20.31 6-32.95 6-24.11 0-36.77-7.32-47.94-13.77-10.93-6.31-20.36-11.76-40.44-11.76s-29.53 5.54-40.45 11.83c-11.17 6.45-23.83 13.77-47.93 13.77s-36.77-7.32-47.94-13.77c-9.46-5.47-17.81-10.29-32.93-11.48v345.41c19.35 1.34 30.48 7.77 40.44 13.52 10.92 6.31 20.35 11.76 40.43 11.76s29.51-5.45 40.43-11.76c11.17-6.45 23.83-13.77 47.94-13.77s36.77 7.31 47.94 13.77c10.92 6.31 20.35 11.76 40.44 11.76s29.51-5.45 40.43-11.76c11.17-6.46 23.84-13.74 47.95-13.74s36.77 7.31 47.94 13.77c10.92 6.31 20.35 11.76 40.44 11.76s29.51-5.45 40.43-11.76c11.19-6.49 23.83-13.77 47.93-13.77s36.77 7.31 47.94 13.77c10.92 6.31 20.36 11.76 40.44 11.76s29.52-5.45 40.44-11.76c10-5.75 21.09-12.18 40.44-13.52v-345.44c-15.12 1.19-23.47 6-32.93 11.48-11.18 6.45-23.84 13.77-48 13.77s-36.77-7.32-47.94-13.77c-10.92-6.31-20.35-11.76-40.44-11.76s-29.51 5.45-40.43 11.76c-11.18 6.45-23.84 13.77-47.94 13.77-12.65 0-23-1.87-32.94-6-1-.4-1.94-.82-2.91-1.27a7.5 7.5 0 0 1 6.3-13.62 59.85 59.85 0 0 0 17.86 5.18 87.56 87.56 0 0 0 11.69.74c20.08 0 29.51-5.45 40.43-11.76 11.17-6.46 23.84-13.77 47.94-13.77s36.77 7.31 47.94 13.77c10.92 6.31 20.36 11.76 40.44 11.76s29.52-5.45 40.44-11.76c11.18-6.46 23.84-13.77 47.94-13.77a7.5 7.5 0 0 1 7.55 7.44z"/><path d="m861 634.17a7.49 7.49 0 0 1 -7.5 7.5c-2.68 0-5.17.1-7.5.29-15.12 1.18-23.47 6-32.94 11.47-11.17 6.46-23.83 13.78-47.94 13.78s-36.77-7.32-47.94-13.78c-10.92-6.31-20.35-11.76-40.44-11.76s-29.51 5.45-40.43 11.76c-11.18 6.46-23.84 13.78-47.94 13.78s-36.77-7.32-47.94-13.78c-10.92-6.31-20.36-11.76-40.44-11.76s-29.51 5.45-40.43 11.76c-11.18 6.46-23.84 13.78-47.94 13.78s-36.77-7.32-47.94-13.78c-10.92-6.31-20.35-11.76-40.44-11.76s-29.51 5.45-40.43 11.76c-11.17 6.46-23.84 13.78-47.94 13.78s-36.77-7.32-47.94-13.78c-9.46-5.43-17.81-10.29-32.93-11.43-2.33-.19-4.82-.29-7.5-.29a7.5 7.5 0 0 1 0-15q3.94 0 7.5.26c19.35 1.33 30.48 7.77 40.43 13.52 10.93 6.31 20.36 11.76 40.44 11.76s29.51-5.45 40.43-11.76c11.18-6.46 23.84-13.78 47.94-13.78s36.76 7.29 47.94 13.74c10.92 6.31 20.36 11.76 40.44 11.76s29.51-5.45 40.43-11.76c11.17-6.46 23.84-13.78 47.94-13.78s36.77 7.32 47.94 13.78c10.92 6.31 20.35 11.76 40.44 11.76s29.51-5.45 40.43-11.76c11.17-6.46 23.84-13.78 47.94-13.78s36.77 7.32 47.94 13.78c10.93 6.31 20.36 11.76 40.44 11.76s29.52-5.45 40.44-11.76c10-5.75 21.09-12.19 40.44-13.52q3.56-.25 7.5-.26a7.5 7.5 0 0 1 7.5 7.5z"/><path d="m861 634.17a7.49 7.49 0 0 1 -7.5 7.5c-2.68 0-5.17.1-7.5.29-15.12 1.18-23.47 6-32.94 11.47-11.17 6.46-23.83 13.78-47.94 13.78s-36.77-7.32-47.94-13.78c-10.92-6.31-20.35-11.76-40.44-11.76s-29.51 5.45-40.43 11.76c-11.18 6.46-23.84 13.78-47.94 13.78s-36.77-7.32-47.94-13.78c-10.92-6.31-20.36-11.76-40.44-11.76s-29.51 5.45-40.43 11.76c-11.18 6.46-23.84 13.78-47.94 13.78s-36.77-7.32-47.94-13.78c-10.92-6.31-20.35-11.76-40.44-11.76s-29.51 5.45-40.43 11.76c-11.17 6.46-23.84 13.78-47.94 13.78s-36.77-7.32-47.94-13.78c-9.46-5.43-17.81-10.29-32.93-11.43-2.33-.19-4.82-.29-7.5-.29a7.5 7.5 0 0 1 0-15q3.94 0 7.5.26c19.35 1.33 30.48 7.77 40.43 13.52 10.93 6.31 20.36 11.76 40.44 11.76s29.51-5.45 40.43-11.76c11.18-6.46 23.84-13.78 47.94-13.78s36.76 7.29 47.94 13.74c10.92 6.31 20.36 11.76 40.44 11.76s29.51-5.45 40.43-11.76c11.17-6.46 23.84-13.78 47.94-13.78s36.77 7.32 47.94 13.78c10.92 6.31 20.35 11.76 40.44 11.76s29.51-5.45 40.43-11.76c11.17-6.46 23.84-13.78 47.94-13.78s36.77 7.32 47.94 13.78c10.93 6.31 20.36 11.76 40.44 11.76s29.52-5.45 40.44-11.76c10-5.75 21.09-12.19 40.44-13.52q3.56-.25 7.5-.26a7.5 7.5 0 0 1 7.5 7.5z"/><path d="m861 754.32a7.5 7.5 0 0 1 -7.5 7.5c-2.68 0-5.17.1-7.5.29-15.12 1.18-23.47 6-32.94 11.47-11.17 6.45-23.83 13.77-47.94 13.77s-36.77-7.32-47.94-13.77c-10.92-6.31-20.35-11.76-40.44-11.76s-29.51 5.45-40.43 11.76c-11.18 6.45-23.84 13.77-47.94 13.77s-36.77-7.35-47.94-13.77c-10.92-6.31-20.36-11.76-40.44-11.76s-29.51 5.45-40.43 11.76c-11.18 6.45-23.84 13.77-47.94 13.77s-36.77-7.32-47.94-13.77c-10.92-6.31-20.35-11.76-40.44-11.76s-29.51 5.45-40.43 11.76c-11.17 6.42-23.81 13.77-47.94 13.77s-36.77-7.35-47.94-13.77c-9.46-5.47-17.81-10.29-32.93-11.47-2.33-.19-4.82-.29-7.5-.29a7.5 7.5 0 0 1 0-15q3.94 0 7.5.26c19.35 1.33 30.48 7.76 40.43 13.51 10.93 6.31 20.36 11.76 40.44 11.76s29.51-5.45 40.43-11.76c11.18-6.45 23.84-13.77 47.94-13.77s36.77 7.32 47.94 13.77c10.92 6.31 20.36 11.76 40.44 11.76s29.51-5.45 40.43-11.76c11.17-6.45 23.84-13.77 47.94-13.77s36.77 7.32 47.94 13.77c10.92 6.31 20.35 11.76 40.44 11.76s29.51-5.45 40.43-11.76c11.17-6.45 23.84-13.77 47.94-13.77s36.77 7.32 47.94 13.77c10.93 6.31 20.36 11.76 40.44 11.76s29.52-5.45 40.44-11.76c10-5.75 21.09-12.18 40.44-13.51q3.56-.26 7.5-.26a7.5 7.5 0 0 1 7.5 7.5z"/><path d="m846 642v105.08c-19.35 1.33-30.49 7.76-40.44 13.51-10.92 6.31-20.35 11.76-40.44 11.76s-29.51-5.45-40.44-11.76c-11.17-6.45-23.83-13.77-47.94-13.77s-36.74 7.32-47.94 13.77c-10.92 6.31-20.35 11.76-40.43 11.76s-29.52-5.45-40.44-11.76c-11.17-6.45-23.83-13.77-47.94-13.77s-36.77 7.32-47.94 13.77c-10.92 6.31-20.35 11.76-40.43 11.76s-29.52-5.45-40.44-11.76c-11.17-6.45-23.83-13.77-47.94-13.77s-36.76 7.32-47.94 13.77c-10.92 6.31-20.35 11.76-40.43 11.76s-29.51-5.45-40.44-11.76c-10-5.75-21.08-12.18-40.43-13.51v-105.08c15.12 1.18 23.47 6 32.93 11.47 11.17 6.46 23.83 13.78 47.94 13.78s36.77-7.32 47.94-13.78c10.92-6.31 20.35-11.76 40.43-11.76s29.52 5.45 40.44 11.76c11.17 6.46 23.83 13.78 47.94 13.78s36.76-7.32 47.94-13.78c10.92-6.31 20.35-11.76 40.43-11.76s29.52 5.45 40.44 11.76c11.17 6.46 23.83 13.78 47.94 13.78s36.76-7.32 47.94-13.78c10.92-6.31 20.35-11.76 40.43-11.76s29.52 5.45 40.44 11.76c11.17 6.46 23.84 13.78 47.94 13.78s36.77-7.32 47.94-13.78c9.47-5.47 17.82-10.33 32.94-11.47z" fill="#b2ebf2"/><path d="m846 762.11v105.11c-19.35 1.34-30.48 7.77-40.44 13.52-10.92 6.31-20.35 11.76-40.44 11.76s-29.52-5.45-40.44-11.76c-11.17-6.46-23.83-13.74-47.94-13.74s-36.74 7.28-47.94 13.74c-10.92 6.31-20.35 11.76-40.43 11.76s-29.52-5.45-40.44-11.76c-11.17-6.46-23.83-13.74-47.93-13.74s-36.77 7.31-47.94 13.77c-10.92 6.31-20.35 11.76-40.43 11.76s-29.52-5.45-40.44-11.76c-11.19-6.49-23.85-13.77-47.95-13.77s-36.77 7.32-47.94 13.77c-10.92 6.31-20.35 11.76-40.43 11.76s-29.51-5.45-40.43-11.76c-10-5.75-21.09-12.18-40.44-13.52v-105.14c15.12 1.18 23.47 6 32.93 11.47 11.17 6.45 23.83 13.77 47.94 13.77s36.77-7.32 47.94-13.77c10.92-6.31 20.35-11.76 40.43-11.76s29.52 5.45 40.44 11.76c11.17 6.45 23.83 13.77 47.94 13.77s36.76-7.32 47.94-13.77c10.92-6.31 20.35-11.76 40.43-11.76s29.52 5.45 40.44 11.76c11.17 6.45 23.83 13.77 47.94 13.77s36.76-7.32 47.94-13.77c10.92-6.31 20.35-11.76 40.43-11.76s29.52 5.45 40.44 11.76c11.17 6.45 23.84 13.77 47.94 13.77s36.77-7.32 47.94-13.77c9.47-5.47 17.82-10.29 32.94-11.47z" fill="#b2ebf2"/><path d="m861 754.32a7.5 7.5 0 0 1 -7.5 7.5c-2.68 0-5.17.1-7.5.29-15.12 1.18-23.47 6-32.94 11.47-11.17 6.45-23.83 13.77-47.94 13.77s-36.77-7.32-47.94-13.77c-10.92-6.31-20.35-11.76-40.44-11.76s-29.51 5.45-40.43 11.76c-11.18 6.45-23.84 13.77-47.94 13.77s-36.77-7.35-47.94-13.77c-10.92-6.31-20.36-11.76-40.44-11.76s-29.51 5.45-40.43 11.76c-11.18 6.45-23.84 13.77-47.94 13.77s-36.77-7.32-47.94-13.77c-10.92-6.31-20.35-11.76-40.44-11.76s-29.51 5.45-40.43 11.76c-11.17 6.42-23.81 13.77-47.94 13.77s-36.77-7.35-47.94-13.77c-9.46-5.47-17.81-10.29-32.93-11.47-2.33-.19-4.82-.29-7.5-.29a7.5 7.5 0 0 1 0-15q3.94 0 7.5.26c19.35 1.33 30.48 7.76 40.43 13.51 10.93 6.31 20.36 11.76 40.44 11.76s29.51-5.45 40.43-11.76c11.18-6.45 23.84-13.77 47.94-13.77s36.77 7.32 47.94 13.77c10.92 6.31 20.36 11.76 40.44 11.76s29.51-5.45 40.43-11.76c11.17-6.45 23.84-13.77 47.94-13.77s36.77 7.32 47.94 13.77c10.92 6.31 20.35 11.76 40.44 11.76s29.51-5.45 40.43-11.76c11.17-6.45 23.84-13.77 47.94-13.77s36.77 7.32 47.94 13.77c10.93 6.31 20.36 11.76 40.44 11.76s29.52-5.45 40.44-11.76c10-5.75 21.09-12.18 40.44-13.51q3.56-.26 7.5-.26a7.5 7.5 0 0 1 7.5 7.5z"/><path d="m652.28 330.19h-304.56a7.5 7.5 0 0 0 -7.5 7.5v53.48a159.88 159.88 0 0 0 83.11 140.14 156.88 156.88 0 0 0 21.24 9.69 159.84 159.84 0 0 0 110.84 0 160 160 0 0 0 21.24-9.71 159.93 159.93 0 0 0 83.1-140.15v-53.45a7.5 7.5 0 0 0 -7.47-7.5zm-7.5 61c0 79.83-64.95 144.77-144.78 144.77s-144.78-64.96-144.78-144.79v-46h289.56z"/><path d="m846 521.81v105.12c-19.35 1.33-30.49 7.77-40.44 13.52-10.92 6.31-20.35 11.76-40.44 11.76s-29.51-5.45-40.44-11.76c-11.17-6.46-23.83-13.78-47.94-13.78s-36.74 7.33-47.94 13.78c-10.92 6.31-20.35 11.76-40.43 11.76s-29.52-5.45-40.44-11.76c-11.17-6.45-23.83-13.78-47.93-13.78s-36.77 7.32-47.94 13.78c-10.92 6.31-20.35 11.76-40.43 11.76s-29.52-5.45-40.44-11.76c-11.19-6.45-23.84-13.78-47.95-13.78s-36.76 7.33-47.94 13.78c-10.92 6.31-20.35 11.76-40.43 11.76s-29.51-5.45-40.44-11.76c-10-5.75-21.08-12.19-40.43-13.52v-105.12c15.12 1.19 23.47 6 32.93 11.48 11.17 6.45 23.84 13.77 47.94 13.77s36.76-7.32 47.93-13.77c10.92-6.31 20.36-11.76 40.44-11.76s29.51 5.45 40.44 11.76c11.17 6.45 23.83 13.77 47.94 13.77 12.64 0 22.95-1.88 32.95-6a159.84 159.84 0 0 0 110.84 0c10 4.16 20.29 6 32.94 6 24.1 0 36.76-7.32 47.94-13.77 10.92-6.31 20.35-11.76 40.43-11.76s29.52 5.45 40.44 11.76c11.17 6.45 23.83 13.77 47.94 13.77s36.77-7.32 48-13.77c9.43-5.47 17.78-10.29 32.9-11.48z" fill="#b2ebf2"/><path d="m644.78 345.19v46c0 79.83-64.95 144.77-144.78 144.77s-144.78-64.96-144.78-144.79v-46z" fill="#ffab91"/><path d="m572.39 330.19h-144.78l22.32-111.15h100.14z" fill="#e53935"/><path d="m583 345a7.61 7.61 0 0 1 -1.49.15 7.49 7.49 0 0 1 -7.34-6l-1.8-9-22.3-111.15h-100.14l-22.32 111.19-1.8 9a7.48 7.48 0 0 1 -7.34 6 7.61 7.61 0 0 1 -1.47-.19 7.5 7.5 0 0 1 -5.88-8.83l1.21-6 24-119.42.14-.7a7.51 7.51 0 0 1 7.36-6h112.38a7.51 7.51 0 0 1 7.36 6l.15.75 24 119.37 1.21 6a7.5 7.5 0 0 1 -5.93 8.83z"/><path d="m548.72 182.65v21.35h-97.43v-21.35a21.29 21.29 0 0 1 21.26-21.26h54.9a21.29 21.29 0 0 1 21.27 21.26z" fill="#e53935"/><path d="m563.72 182.65v28.89a7.5 7.5 0 0 1 -15 0v-28.89a21.29 21.29 0 0 0 -21.27-21.26h-54.9a21.29 21.29 0 0 0 -21.26 21.26v28.89a7.5 7.5 0 1 1 -15 0v-28.89a36.32 36.32 0 0 1 29.59-35.65 35.74 35.74 0 0 1 6.67-.62h54.9a35.74 35.74 0 0 1 6.67.62 36.32 36.32 0 0 1 29.6 35.65z"/><path d="m519.12 126.62v19.77h-38.24v-19.77a19.12 19.12 0 0 1 32.64-13.52 19 19 0 0 1 5.6 13.52z" fill="#e53935"/><path d="m534.12 126.62v27.26a7.5 7.5 0 0 1 -15 0v-27.26a19.12 19.12 0 0 0 -19.12-19.12 19.15 19.15 0 0 0 -19.12 19.12v27.26a7.5 7.5 0 0 1 -15 0v-27.26a34.12 34.12 0 1 1 68.24 0z"/></svg>