<svg clip-rule="evenodd" fill-rule="evenodd" stroke-linejoin="round" stroke-miterlimit="2" viewBox="0 0 96 96" xmlns="http://www.w3.org/2000/svg"><g><g><path d="m40.238 17.961c0-1.657-1.343-3-3-3-.78 0-1.62 0-2.401 0-1.657 0-3 1.343-3 3v8.762h8.401s0-5.277 0-8.762z" fill="#c28b1d"/><path d="m91.721 70.736v-44.206c0-.795-.316-1.558-.879-2.121-.563-.562-1.326-.879-2.121-.879-11.748 0-54.504 0-65.288 0-1.441 0-2.678 1.025-2.947 2.44-.858 4.509-2.673 14.055-3.442 18.095-.217 1.14-1.072 2.053-2.197 2.344-2.216.572-5.934 1.532-8.318 2.147-1.324.342-2.25 1.537-2.25 2.905v19.275z" fill="#f3ae24"/><path d="m45.33 31.302c0-.53-.211-1.039-.586-1.414s-.884-.586-1.414-.586c-3.573 0-11.011 0-14.584 0-.531 0-1.039.211-1.414.586s-.586.884-.586 1.414v39.434h18.584z" fill="#4f4f4f"/><path d="m91 70.736c1.657 0 3-1.343 3-3 0-.18 0-.361 0-.54 0-1.657-1.343-3-3-3-13.915 0-72.085 0-86 0-1.657 0-3 1.343-3 3v.54c0 1.657 1.343 3 3 3z" fill="#c28b1d"/><circle cx="18.714" cy="70.736" fill="#4f4f4f" r="10.303"/><circle cx="75.326" cy="70.736" fill="#4f4f4f" r="10.303"/><g fill="#e6e9fe"><circle cx="18.714" cy="70.736" r="4.069"/><circle cx="75.326" cy="70.736" r="4.069"/></g></g><g><path d="m5.779 64.196v-12.735c0-.684.463-1.281 1.125-1.452l8.318-2.148c1.687-.435 2.971-1.805 3.296-3.516.768-4.04 2.584-13.586 3.441-18.095.135-.707.754-1.22 1.474-1.22h65.288c.398 0 .779.159 1.06.44.282.281.44.663.44 1.06v37.666c0 .827.672 1.5 1.5 1.5s1.5-.673 1.5-1.5c0 0 0-28.265 0-37.666 0-1.193-.474-2.338-1.318-3.182-.844-.843-1.989-1.318-3.182-1.318-11.748 0-54.504 0-65.288 0-2.161 0-4.017 1.537-4.421 3.66-.857 4.509-2.673 14.054-3.441 18.094-.109.571-.537 1.027-1.099 1.172-2.216.572-5.934 1.533-8.318 2.148-1.987.513-3.375 2.305-3.375 4.357v12.735c0 .827.672 1.5 1.5 1.5s1.5-.673 1.5-1.5z"/><path d="m28.246 57.558v-25.256c0-.398.158-.779.439-1.06.282-.282.663-.44 1.061-.44h12.584c.398 0 .779.158 1.061.44.281.281.439.662.439 1.06v31.244c0 .827.672 1.5 1.5 1.5s1.5-.673 1.5-1.5c0 0 0-22.895 0-31.244 0-1.193-.474-2.338-1.318-3.182s-1.989-1.318-3.182-1.318c-3.462 0-9.122 0-12.584 0-1.194 0-2.338.474-3.182 1.318s-1.318 1.989-1.318 3.182v25.256c0 .828.672 1.5 1.5 1.5s1.5-.672 1.5-1.5z"/><path d="m34.538 29.93v34.266c0 .827.672 1.5 1.5 1.5s1.5-.673 1.5-1.5v-34.266c0-.828-.672-1.5-1.5-1.5s-1.5.672-1.5 1.5z"/><path d="m83.284 65.696h8.716c.276 0 .5.223.5.499v2.541c0 .277-.224.5-.5.5h-5.61c-.828 0-1.5.673-1.5 1.5 0 .828.672 1.5 1.5 1.5h5.61c1.933 0 3.5-1.567 3.5-3.5v-2.541c0-1.933-1.567-3.499-3.5-3.499-3.101 0-8.716 0-8.716 0-.828 0-1.5.672-1.5 1.5 0 .827.672 1.5 1.5 1.5zm-74.873 3.54h-4.411c-.276 0-.5-.223-.5-.5v-2.54c0-.277.224-.5.5-.5h6.756c.828 0 1.5-.673 1.5-1.5 0-.828-.672-1.5-1.5-1.5 0 0-4.172 0-6.756 0-1.933 0-3.5 1.566-3.5 3.499v2.541c0 1.933 1.567 3.5 3.5 3.5h4.411c.828 0 1.5-.672 1.5-1.5 0-.827-.672-1.5-1.5-1.5zm56.612 0h-36.006c-.828 0-1.5.673-1.5 1.5 0 .828.672 1.5 1.5 1.5h36.006c.828 0 1.5-.672 1.5-1.5 0-.827-.672-1.5-1.5-1.5zm-38.351-3.54h40.695c.828 0 1.5-.673 1.5-1.5 0-.828-.672-1.5-1.5-1.5h-40.695c-.828 0-1.5.672-1.5 1.5 0 .827.672 1.5 1.5 1.5z"/><path d="m87.129 41.066v-8.764c0-2.485-2.015-4.5-4.5-4.5-6.481 0-21.726 0-28.207 0-2.485 0-4.5 2.015-4.5 4.5v8.764c0 2.485 2.015 4.5 4.5 4.5h28.207c2.485 0 4.5-2.015 4.5-4.5zm-3-8.764v8.764c0 .829-.672 1.5-1.5 1.5h-28.207c-.828 0-1.5-.671-1.5-1.5v-8.764c0-.828.672-1.5 1.5-1.5h28.207c.828 0 1.5.672 1.5 1.5z"/><path d="m18.714 58.933c-6.514 0-11.803 5.289-11.803 11.803 0 6.515 5.289 11.803 11.803 11.803s11.803-5.288 11.803-11.803c0-6.514-5.289-11.803-11.803-11.803zm0 3c4.858 0 8.803 3.945 8.803 8.803 0 4.859-3.945 8.803-8.803 8.803-4.859 0-8.803-3.944-8.803-8.803 0-4.858 3.944-8.803 8.803-8.803z"/><path d="m75.326 58.933c-6.515 0-11.803 5.289-11.803 11.803 0 6.515 5.288 11.803 11.803 11.803 6.514 0 11.803-5.288 11.803-11.803 0-6.514-5.289-11.803-11.803-11.803zm0 3c4.858 0 8.803 3.945 8.803 8.803 0 4.859-3.945 8.803-8.803 8.803-4.859 0-8.803-3.944-8.803-8.803 0-4.858 3.944-8.803 8.803-8.803z"/><path d="m18.714 68.167c1.418 0 2.569 1.152 2.569 2.569 0 1.418-1.151 2.569-2.569 2.569s-2.569-1.151-2.569-2.569c0-.827-.672-1.5-1.5-1.5s-1.5.673-1.5 1.5c0 3.074 2.495 5.569 5.569 5.569s5.569-2.495 5.569-5.569c0-3.073-2.495-5.569-5.569-5.569-.828 0-1.5.673-1.5 1.5 0 .828.672 1.5 1.5 1.5z"/><path d="m75.326 68.167c1.417 0 2.569 1.152 2.569 2.569 0 1.418-1.152 2.569-2.569 2.569-1.418 0-2.569-1.151-2.569-2.569 0-.827-.672-1.5-1.5-1.5s-1.5.673-1.5 1.5c0 3.074 2.495 5.569 5.569 5.569 3.073 0 5.569-2.495 5.569-5.569 0-3.073-2.496-5.569-5.569-5.569-.828 0-1.5.673-1.5 1.5 0 .828.672 1.5 1.5 1.5z"/><path d="m45.33 51.028h46.391c.828 0 1.5-.672 1.5-1.5s-.672-1.5-1.5-1.5h-46.391c-.828 0-1.5.672-1.5 1.5s.672 1.5 1.5 1.5z"/><path d="m53.256 56.981h38.465c.828 0 1.5-.672 1.5-1.5s-.672-1.5-1.5-1.5h-38.465c-.828 0-1.5.672-1.5 1.5s.672 1.5 1.5 1.5z"/><path d="m41.738 23.53v-5.569c0-1.194-.474-2.338-1.318-3.182-.843-.844-1.988-1.318-3.182-1.318-.78 0-1.62 0-2.401 0-2.485 0-4.5 2.014-4.5 4.5v1.153c0 .828.672 1.5 1.5 1.5s1.5-.672 1.5-1.5v-1.153c0-.829.672-1.5 1.5-1.5h2.401c.398 0 .78.158 1.061.439s.439.663.439 1.061v5.569c0 .828.673 1.5 1.5 1.5.828 0 1.5-.672 1.5-1.5z"/><path d="m60.772 29.302v14.764c0 .828.672 1.5 1.5 1.5s1.5-.672 1.5-1.5v-14.764c0-.828-.672-1.5-1.5-1.5s-1.5.672-1.5 1.5z"/><path d="m72.768 29.302v14.764c0 .828.672 1.5 1.5 1.5s1.5-.672 1.5-1.5v-14.764c0-.828-.672-1.5-1.5-1.5s-1.5.672-1.5 1.5z"/></g></g></svg>