<svg height="512" viewBox="0 0 128 128" width="512" xmlns="http://www.w3.org/2000/svg"><g><g><rect fill="#0e49b5" height="11.118" rx="5.25" width="90" x="19.052" y="61.65"/><path d="m27.588 72.768h72.928a0 0 0 0 1 0 0v.941a16 16 0 0 1 -16 16h-40.928a16 16 0 0 1 -16-16v-.941a0 0 0 0 1 0 0z" fill="#2ca7e5"/><path d="m30.599 39.517h38.062v22.133h-38.062z" fill="#fecd1a"/><path d="m73.633 38.903h8.381v22.133h-8.381z" fill="#fc852d" transform="matrix(.866 -.5 .5 .866 -14.559 45.606)"/><path d="m87.703 40.061h8.381v22.133h-8.381z" fill="#fecd1a" transform="matrix(.67 -.743 .743 .67 -7.611 85.148)"/></g><g fill="#212f68"><path d="m103.75 59.9h-2.562l2.979-3.3a1.75 1.75 0 0 0 -.128-2.472l-16.439-14.822a1.751 1.751 0 0 0 -2.472.128l-4.011 4.449-3.734-6.467a1.752 1.752 0 0 0 -2.391-.641l-4.639 2.679a1.746 1.746 0 0 0 -1.744-1.687h-21.881a1.75 1.75 0 0 0 0 3.5h20.131v18.633h-34.559v-18.633h3.858a1.75 1.75 0 0 0 0-3.5h-5.611a1.75 1.75 0 0 0 -1.75 1.75v20.383h-4.547a7.008 7.008 0 0 0 -7 7v.618a7.008 7.008 0 0 0 7 7h1.577a17.757 17.757 0 0 0 17.709 16.941h14.879a1.75 1.75 0 0 0 0-3.5h-14.879a14.268 14.268 0 0 1 -14.227-13.441h69.382a14.268 14.268 0 0 1 -14.227 13.441h-2.058a1.75 1.75 0 0 0 0 3.5h2.058a17.757 17.757 0 0 0 17.709-16.941h1.577a7.009 7.009 0 0 0 7-7v-.618a7.009 7.009 0 0 0 -7-7zm-17.194-16.823 13.844 12.476-3.268 3.625-13.844-12.478zm6.144 16.823h-6.5l1.6-.925a1.751 1.751 0 0 0 .64-2.391l-.622-1.077zm-17.473-19.218 9.316 16.136-4.227 2.441-9.316-16.137zm-4.868 8.331 6.286 10.887h-6.286zm36.891 18.505a3.5 3.5 0 0 1 -3.5 3.5h-79.5a3.5 3.5 0 0 1 -3.5-3.5v-.618a3.5 3.5 0 0 1 3.5-3.5h79.5a3.5 3.5 0 0 1 3.5 3.5z"/><path d="m70.2 87.959h-1.11a1.75 1.75 0 0 0 0 3.5h1.11a1.75 1.75 0 1 0 0-3.5z"/></g></g></svg>