<svg id="Capa_1" enable-background="new 0 0 511.74 511.74" height="512" viewBox="0 0 511.74 511.74" width="512" xmlns="http://www.w3.org/2000/svg"><g><g><path d="m446.711 424.933-41.032 10.119-36.937-149.773c-1.058-4.29 1.562-8.625 5.852-9.683l25.497-6.288c4.29-1.058 8.625 1.562 9.683 5.852z" fill="#ffe17d"/><path d="m160.458 222.352h157.696v41.987h-157.696z" fill="#eef5ff" transform="matrix(.707 -.707 .707 .707 -101.98 240.489)"/><path d="m309.908 202.44-111.51 111.5-15.34-15.34 111.5-111.51z" fill="#dfe9fb"/><path d="m388.213 50.905-119.224 119.224c-3.124 3.124-3.124 8.19 0 11.314l40.428 40.428c3.124 3.124 8.19 3.124 11.314 0l24.472-24.472c3.124-3.124 3.124-8.19 0-11.314l-2.798-2.798c-3.124-3.124-3.124-8.19 0-11.314l83.439-83.439c4.686-4.686 4.686-12.284 0-16.971l-20.66-20.66c-4.687-4.684-12.285-4.684-16.971.002z" fill="#aa9ea9"/><path d="m446.708 424.93-21.36 5.27-36.93-149.77c-1.04-4.2-5.21-6.8-9.41-5.92l21.08-5.2c4.29-1.06 8.63 1.56 9.69 5.85z" fill="#ffd164"/><path d="m361.204 270.092h-256.174c-22.091 0-40 17.909-40 40v122.261h304.174v-154.261c0-4.418-3.582-8-8-8z" fill="#ffe17d"/><path d="m369.208 278.09v154.26h-25v-154.26c0-4.42-3.59-8-8-8h25c4.41 0 8 3.58 8 8z" fill="#ffd164"/><path d="m482.722 464.35h-453.703c-4.816 0-9.166-2.879-11.047-7.313l-9.511-22.416c-3.358-7.913 2.45-16.687 11.047-16.687h472.725c8.596 0 14.404 8.774 11.047 16.687l-9.511 22.416c-1.882 4.434-6.231 7.313-11.047 7.313z" fill="#eef5ff"/><path d="m503.278 434.62-9.51 22.42c-1.88 4.43-6.23 7.31-11.05 7.31h-25c4.82 0 9.17-2.88 11.05-7.31l9.51-22.42c3.36-7.91-2.45-16.69-11.05-16.69h25c8.6 0 14.41 8.78 11.05 16.69z" fill="#dfe9fb"/><path d="m342.408 171.97c-3.13 3.13-3.13 8.19 0 11.32l2.79 2.8c3.13 3.12 3.13 8.18 0 11.31l-24.47 24.47c-3.12 3.13-8.19 3.13-11.31 0l-17.68-17.68c3.13 3.13 8.24 3.08 11.42-.1l24.94-24.94c3.19-3.19 3.24-8.3.11-11.43l-2.8-2.79c-3.12-3.13-3.07-8.24.11-11.43l85.04-85.03c2.37-2.38 3.58-5.49 3.62-8.58l11.67 11.67c4.68 4.69 4.68 12.29 0 16.98z" fill="#9b8e99"/></g><g><path d="m508.495 419.166c-3.622-5.474-9.702-8.741-16.265-8.741h-41.375l-33.801-137.054c-.984-4.021-3.479-7.417-7.022-9.561-3.547-2.146-7.718-2.78-11.738-1.787l-25.143 6.202c-2.845-3.442-7.146-5.64-11.95-5.64h-90.973l34.69-34.69c2.819 2.461 6.38 3.817 10.159 3.817 4.146 0 8.04-1.617 10.959-4.544l24.47-24.47c2.934-2.934 4.547-6.831 4.544-10.975-.004-4.138-1.62-8.027-4.544-10.941l-2.792-2.792c-.2-.201-.2-.529-.009-.721l83.439-83.43c3.686-3.685 5.715-8.583 5.715-13.793s-2.029-10.109-5.714-13.793l-20.66-20.66c-7.595-7.594-19.963-7.596-27.577 0l-77.75 77.75c-2.929 2.929-2.929 7.678 0 10.606 2.93 2.929 7.678 2.929 10.607 0l77.743-77.744c1.761-1.756 4.616-1.759 6.369-.006l20.661 20.661c.852.852 1.32 1.983 1.32 3.187s-.469 2.334-1.32 3.186l-83.448 83.439c-6.021 6.041-6.021 15.869.008 21.917l2.809 2.81c.039.039.143.141.143.338 0 .205-.113.318-.151.356l-24.478 24.479c-.035.035-.142.142-.344.142s-.309-.107-.352-.15l-40.438-40.439c-.035-.035-.143-.142-.143-.343 0-.202.107-.309.151-.352l16.67-16.67c2.929-2.929 2.929-7.678 0-10.606-2.93-2.929-7.678-2.929-10.607 0l-16.661 16.662c-2.936 2.927-4.553 6.822-4.553 10.967 0 3.333 1.061 6.493 2.991 9.124l-77.68 77.68h-79.423c-26.191 0-47.5 21.309-47.5 47.5v49.54c0 4.142 3.358 7.5 7.5 7.5s7.5-3.358 7.5-7.5v-49.54c0-17.92 14.58-32.5 32.5-32.5h256.17c.275 0 .5.224.5.5v132.34h-289.171v-15.8c0-4.142-3.358-7.5-7.5-7.5s-7.5 3.358-7.5 7.5v15.8h-38.02c-6.563 0-12.644 3.268-16.266 8.742-3.621 5.472-4.251 12.343-1.688 18.377l9.51 22.421c3.063 7.217 10.11 11.88 17.954 11.88h389.84c4.143 0 7.5-3.358 7.5-7.5s-3.357-7.5-7.5-7.5h-389.841c-1.812 0-3.439-1.075-4.146-2.739l-9.512-22.423c-.852-2.005-.01-3.632.391-4.238.402-.607 1.572-2.02 3.757-2.02h472.72c2.184 0 3.354 1.412 3.756 2.019.401.606 1.242 2.233.39 4.242l-9.509 22.417c-.707 1.666-2.335 2.741-4.147 2.741h-28.859c-4.143 0-7.5 3.358-7.5 7.5s3.357 7.5 7.5 7.5h28.859c7.843 0 14.891-4.663 17.955-11.881l9.509-22.417c2.563-6.039 1.933-12.91-1.689-18.382zm-235.894-223.514 21.673 21.673-45.26 45.26h-43.347zm129.288 80.934c.049-.012.202-.049.378.057.172.104.208.249.222.308l32.917 133.474h-28.071l-30.634-124.194v-3.432zm-25.188 72.28 15.184 61.559h-15.184z"/></g></g></svg>