<svg id="Layer_1" enable-background="new 0 0 512 512" viewBox="0 0 512 512" xmlns="http://www.w3.org/2000/svg"><g clip-rule="evenodd" fill-rule="evenodd"><path d="m312.467 325.727-33.677 79.105c-18.218 42.791-72.469 55.947-109.288 34.689l-72.098-41.625c-36.819-21.258-52.553-74.816-24.603-111.991l51.668-68.718c12.549-16.689-16.182-49.141 3.795-64.362 21.912-16.695 6.47-43.892 33.414-45.762 27.654-1.919 7.905-36.294 47.353-28.768 27.516 5.251 20.564-29.588 55.681-23.704 21.273 3.564 20.351-27.931 38.388-19.588 32.771 15.159 28.266-9.327 53.561-2.903 18.211 18.695-5.247 27.036 24.266 47.837 16.244 11.449-11.493 26.398 2.23 43.039 22.654 27.47-10.993 38.869 7.312 60.073 26.242 30.4-13.402 30.483-1.238 55.392 11.853 24.269-19.422 24.495-22.924 51.819-3.191 24.911-45.661 16.256-53.84 35.467z" fill="#a5dc69"/><path d="m112.832 352.172c-8.849-19.726-9.844-41.482 3.399-61.924l41.353-63.832c11.355-17.525-16.723-63.799 3.252-79.019 21.91-16.693 17.328-34.122 44.272-35.991 27.654-1.919 7.905-36.294 47.353-28.767 27.516 5.25 20.564-29.588 55.68-23.705 21.273 3.563 25.782-19.788 43.817-11.446 32.769 15.156 17.079-8.997 42.375-2.575 6.381 7.556 7.716 13.035 7.322 17.59-15.934.579-16.419 17.084-44.738 3.983-18.037-8.342-17.115 23.153-38.388 19.589-35.117-5.885-28.165 28.954-55.681 23.704-39.447-7.526-19.699 26.849-47.352 28.768-26.945 1.87-11.503 29.067-33.415 45.762-19.977 15.221 8.755 47.673-3.794 64.362l-51.669 68.718c-7.996 10.634-12.41 22.608-13.786 34.783z" fill="#d7fa91"/><path d="m366.282 357.212-33.677 79.105c-18.218 42.791-72.469 55.947-109.288 34.689l-72.098-41.625c-36.819-21.258-52.553-74.816-24.602-111.991l51.668-68.718c12.549-16.689-16.182-49.141 3.795-64.362 21.912-16.695 6.47-43.892 33.415-45.762 27.654-1.919 7.905-36.294 47.353-28.768 27.516 5.251 20.564-29.588 55.681-23.704 21.273 3.564 20.351-27.932 38.388-19.588 32.771 15.159 28.266-9.327 53.561-2.903 18.211 18.695-5.247 27.036 24.266 47.837 16.244 11.449-11.493 26.398 2.23 43.039 22.655 27.47-10.993 38.869 7.312 60.073 26.241 30.4-13.403 30.484-1.238 55.392 11.853 24.269-19.422 24.495-22.924 51.819-3.193 24.91-45.663 16.256-53.842 35.467z" fill="#a5dc69"/><path d="m231.729 338.501c11.57-46.252 6.681-88.653-14.674-127.199 24.318 31.464 35.687 65.457 34.115 101.98 53.869-71.209 106.752-152.141 119.874-193.307 3.658 33.074-26.059 91.087-64.572 152.951 26.157-8.683 64.387-12.215 114.699-10.595-57.12 5.901-101.652 19.324-133.604 40.261-34.691 53.337-72.944 107.042-99.528 148.045l-36.192-20.895c20.881-19.611 49.801-52.954 79.882-91.241z" fill="#d7fa91"/><path d="m443.215 243.594c-4.809 6.204-11.387 14.703-4.64 28.53 4.884 9.997 1.03 13.616-6.64 20.827-6.658 6.255-14.941 14.042-16.749 28.164-1.217 9.529-10.091 12.61-24.54 16.543-11.93 3.235-24.259 6.598-28.937 17.596l-33.68 79.113c-7.59 17.831-22.414 31.208-41.724 37.66-20.307 6.78-42.918 4.79-60.468-5.352l-30.702-17.718c12.01-18.369 26.212-39.163 41.181-61.091 18.102-26.502 36.822-53.903 54.891-81.656 31.077-20.078 74.979-33.165 130.502-38.901 2.617-.272 4.579-2.519 4.476-5.151-.089-2.627-2.201-4.734-4.827-4.818-43.204-1.395-78.05 1.054-103.873 7.281 43.031-70.633 61.68-116.932 58.553-145.19-.262-2.346-2.121-4.196-4.472-4.429-2.35-.239-4.546 1.208-5.258 3.46-10.943 34.303-53.73 104.042-110.204 179.943-1.728-31.976-13.499-62.238-35.066-90.154-1.601-2.069-4.533-2.561-6.71-1.124-2.182 1.437-2.889 4.317-1.62 6.602 20.457 36.934 25.318 78.153 14.45 122.537-29.541 37.538-56.329 68.287-75.962 87.218-16.248-10.409-28.239-28.169-32.317-48.121-1.54-7.557-1.892-15.049-1.11-22.288.009-.052.019-.112.019-.173 1.311-11.809 5.647-22.929 12.849-32.51l51.67-68.714c7.183-9.556 3.919-21.918.772-33.867-3.821-14.482-5.59-23.697 2.056-29.522 11.322-8.63 13.921-19.694 16.014-28.581 2.407-10.254 3.619-15.4 14.721-16.168 15.349-1.068 19.418-11.018 22.386-18.285 2.744-6.701 4.734-11.589 14.473-11.589 2.5 0 5.53.323 9.21 1.025 15.878 3.034 23.018-5.619 28.75-12.572 6.078-7.375 11.331-13.738 27.041-11.111 13.64 2.285 20.326-6.841 25.219-13.508 5.319-7.244 7.047-8.714 11.888-6.471 19.202 8.878 27.523 5.577 36.401.333 4.71-2.781 8.479-5.01 16.65-3.254 5.609 6.199 5.572 10.582 5.511 16.051-.098 10.311 1.198 19.169 18.486 31.353 4.364 3.072 3.952 5.31.342 13.532-3.329 7.566-7.89 17.929.913 28.6 10.128 12.286 7.248 20.017 3.896 28.969-3.161 8.442-7.08 18.945 3.493 31.189 11.948 13.843 8.259 18.595 2.686 25.792zm-201.678 26.671c2.72 22.199 1.082 45.4-4.931 69.448-.168.693-.492 1.33-.918 1.882-29.091 37.009-55.654 67.632-75.564 87.153l26.329 15.199c12.132-18.57 26.484-39.571 41.603-61.713 18.27-26.736 37.15-54.399 55.341-82.362.379-.581.871-1.077 1.447-1.456 19.062-12.483 42.661-22.4 70.563-29.663-18.809 1.728-34.631 4.706-47.339 8.925-2.004.665-4.205.005-5.502-1.648-1.302-1.658-1.428-3.952-.319-5.741 30.037-48.252 49.371-85.898 58.319-113.716-24.039 46.566-67.281 109.361-105.39 159.734-1.32 1.737-3.62 2.43-5.68 1.69s-3.39-2.739-3.301-4.926c.633-14.623-.926-28.914-4.658-42.806zm-176.473 73.611c4.285 20.991 17.311 39.561 34.86 49.698l20.073 11.579c-5.141-8.466-8.892-17.886-10.91-27.79-1.69-8.269-2.111-16.477-1.353-24.428-9.936-23.089-8.456-45.672 4.322-65.403l41.35-63.83c3.952-6.097 1.302-19.043-1.269-31.564-3.69-17.99-7.881-38.377 5.689-48.715 7.909-6.031 12.16-12.263 15.901-17.76 6.279-9.224 12.217-17.933 31.058-19.24 9.14-.637 11.003-5.193 13.822-12.094 3.718-9.098 8.807-21.558 34.809-16.599 10.072 1.92 13.691-2.467 19.17-9.117 6.682-8.105 15.012-18.196 36.401-14.604 8.26 1.377 13.148-2.154 18.818-6.246 6.392-4.603 14.333-10.334 26.273-4.809 1.831.843 3.46 1.55 4.921 2.14-.669-2.552-2.051-5.281-4.921-8.47-8.171-1.756-11.949.473-16.66 3.254-8.882 5.24-17.198 8.545-36.391-.333-4.851-2.243-6.579-.772-11.889 6.476-4.893 6.663-11.58 15.793-25.233 13.504-15.709-2.631-20.958 3.736-27.026 11.111-5.741 6.949-12.872 15.606-28.764 12.572-17.957-3.423-20.228 2.14-23.679 10.564-2.969 7.267-7.038 17.217-22.391 18.28-11.088.773-12.296 5.918-14.707 16.173-2.093 8.887-4.692 19.952-16.023 28.581-7.637 5.825-5.881 15.04-2.051 29.522 3.151 11.954 6.415 24.311-.777 33.867l-51.67 68.718c-11.65 15.495-15.822 35.011-11.753 54.963zm315.544-292.01c-6.242 6.649-12.712 8.499-30.721.164-6.358-2.936-9.749-.824-16.229 3.844-6.214 4.486-13.939 10.067-26.324 7.997-15.695-2.636-20.949 3.732-27.026 11.106-5.741 6.953-12.872 15.611-28.759 12.577-17.961-3.427-20.242 2.14-23.683 10.559-2.969 7.267-7.038 17.222-22.386 18.285-14 .974-17.573 6.214-23.482 14.895-3.971 5.825-8.911 13.078-18.111 20.087-8.569 6.527-5.207 22.911-1.957 38.751 3.109 15.156 6.05 29.475-.122 39.008l-41.359 63.83c-9.243 14.267-10.362 28.436-8.241 40.488 2.519-6.752 6.003-13.162 10.441-19.071l51.661-68.714c4.279-5.684 1.761-15.217-.904-25.308-3.68-13.939-7.838-29.733 5.67-40.029 8.47-6.452 10.432-14.82 12.343-22.915 2.482-10.582 5.301-22.574 23.749-23.857 9.149-.632 11.008-5.193 13.832-12.09 3.718-9.103 8.808-21.562 34.809-16.604 10.072 1.924 13.691-2.467 19.17-9.112 6.682-8.105 14.993-18.2 36.4-14.609 7.202 1.204 10.592-2.847 15.508-9.557 4.814-6.56 11.401-15.536 24.151-9.641 15.962 7.384 20.883 4.481 27.111.801 2.837-1.672 6.031-3.549 10.231-4.542-.562-2.238-1.892-5.108-4.818-8.821-7.166-1.563-8.697.076-10.954 2.478zm67.491 159.406c-6.701-7.759-4.711-13.087-1.69-21.155 3.68-9.842 8.245-22.091-5.549-38.831-4.654-5.638-2.833-10.596.515-18.214 3.273-7.44 7.759-17.639-3.727-25.734-14.37-10.128-14.324-15.845-14.248-23.079.056-6.438.136-14.45-9.323-24.161-.642-.66-1.452-1.128-2.35-1.358-1.868-.473-3.61-.787-5.24-.983-.81-5.179-3.521-10.39-8.311-16.065-.67-.796-1.578-1.363-2.589-1.62-13.139-3.334-18.032.436-22.269 4.949-1.049 1.119-2.009 2.135-3.858 2.435-.464-5.792-2.332-11.799-9.191-18.842-.641-.66-1.461-1.128-2.351-1.358-13.138-3.329-20.04.74-25.579 4.013-6.232 3.68-11.149 6.588-27.111-.796-12.759-5.9-19.348 3.076-24.161 9.632-4.917 6.714-8.297 10.769-15.508 9.561-21.394-3.587-29.709 6.499-36.401 14.609-5.479 6.644-9.098 11.032-19.169 9.117-25.992-4.968-31.081 7.501-34.799 16.594-2.823 6.902-4.692 11.458-13.832 12.095-18.449 1.278-21.272 13.274-23.758 23.857-1.901 8.091-3.872 16.463-12.343 22.915-13.508 10.296-9.336 26.095-5.661 40.029 2.664 10.09 5.17 19.619.904 25.303l-51.67 68.723c-13.391 17.811-18.21 40.179-13.56 62.968 4.846 23.749 19.666 44.81 39.66 56.362l47.718 27.537c1.971 1.414 4.003 2.734 6.101 3.942l72.09 41.621c12.193 7.038 26.488 10.648 40.999 10.648 9.29 0 18.673-1.48 27.64-4.477 22.063-7.375 39.023-22.723 47.75-43.232l33.68-79.099c2.781-6.541 12.291-9.13 22.358-11.87 13.916-3.793 29.686-8.072 31.84-24.924 1.353-10.564 7.623-16.449 13.682-22.143 7.922-7.45 16.889-15.887 8.78-32.505-4.027-8.236-1.007-12.128 3.558-18.022 6.019-7.768 14.26-18.411-3.027-38.442z"/></g></svg>