<svg id="Layer_2" enable-background="new 0 0 64 64" viewBox="0 0 64 64" xmlns="http://www.w3.org/2000/svg"><g><path d="m4.38 28.94 42.6-22.15c1.19-.62 2.64-.47 3.67.4 3.42 2.88 10.08 10.35 5.67 22.26v16.29l-25.8-.91.56-14.21z" fill="#ffeba8"/><path d="m50.68 32.38v9.65c0 1.5-1.22 2.71-2.71 2.71-1.5 0-2.71-1.22-2.71-2.71v-10.3c0-1.26-1.02-2.29-2.29-2.29-1.26 0-2.29 1.02-2.29 2.29v6.3c0 1.5-1.22 2.71-2.71 2.71-1.5 0-2.71-1.22-2.71-2.71v-5.65c0-1.62-1.31-2.93-2.93-2.93h-28.94v30.54c0 .65.53 1.18 1.18 1.18h50.57c.65 0 1.18-.53 1.18-1.18v-30.54h-2.71c-1.62 0-2.93 1.31-2.93 2.93z" fill="#ffc68d"/><path d="m56.32 61.16 2.61-2.87c1.08-1.19 1.68-2.74 1.68-4.35v-25.45l-4.83.96z" fill="#ffc68d"/><path d="m56.32 30.45c-.12 0-.23-.02-.35-.06-.52-.19-.78-.77-.59-1.28 4.08-11.03-1.62-17.98-5.38-21.15-.72-.61-1.73-.71-2.57-.28l-4.04 2.1c-.49.25-1.09.06-1.35-.43-.25-.49-.06-1.09.43-1.35l4.04-2.1c1.56-.81 3.44-.61 4.78.52 3.35 2.82 10.63 10.74 5.96 23.37-.14.41-.52.66-.93.66z"/><path d="m38.59 12.16c-.13 0-.26-.03-.38-.08s-.23-.12-.32-.22c-.19-.19-.3-.44-.3-.71 0-.26.11-.52.3-.7.09-.09.2-.17.32-.22.25-.1.52-.1.77 0 .12.05.23.13.32.22.19.18.29.44.29.7 0 .27-.1.52-.29.71-.19.18-.44.3-.71.3z"/><path d="m3.39 30.45c-.36 0-.71-.2-.89-.54-.25-.49-.06-1.09.43-1.35l31.72-16.49c.49-.25 1.09-.06 1.35.43.25.49.06 1.09-.43 1.35l-31.72 16.49c-.14.07-.3.11-.46.11z"/><path d="m55.14 62.16h-50.57c-1.2 0-2.18-.98-2.18-2.18v-30.53c0-.55.45-1 1-1h28.93c2.17 0 3.93 1.76 3.93 3.93v5.65c0 .95.77 1.71 1.71 1.71s1.71-.77 1.71-1.71v-6.29c0-1.81 1.47-3.29 3.29-3.29s3.29 1.47 3.29 3.29v10.29c0 .95.77 1.71 1.71 1.71.95 0 1.71-.77 1.71-1.71v-9.65c0-2.17 1.76-3.93 3.93-3.93h2.71c.55 0 1 .45 1 1v30.54c.01 1.2-.97 2.17-2.17 2.17zm-50.75-31.71v29.54c0 .1.08.18.18.18h50.57c.1 0 .18-.08.18-.18v-29.54h-1.71c-1.06 0-1.93.87-1.93 1.93v9.65c0 2.05-1.67 3.71-3.71 3.71-2.05 0-3.71-1.67-3.71-3.71v-10.29c0-.71-.58-1.29-1.29-1.29s-1.29.58-1.29 1.29v6.29c0 2.05-1.67 3.71-3.71 3.71-2.05 0-3.71-1.67-3.71-3.71v-5.65c0-1.06-.87-1.93-1.93-1.93z"/><path d="m29.86 38.08c-.14 0-.27-.03-.39-.08s-.23-.12-.32-.21c-.19-.19-.29-.44-.29-.71 0-.13.02-.26.07-.38.05-.13.13-.23.22-.33.23-.23.58-.34.9-.27.07.01.13.03.19.06.06.02.12.05.17.09.06.03.11.08.15.12.1.1.17.2.22.33.05.12.08.25.08.38 0 .27-.11.52-.3.71-.09.09-.2.16-.32.21-.12.04-.25.08-.38.08z"/><path d="m24.61 38.07h-21.22c-.55 0-1-.45-1-1s.45-1 1-1h21.21c.55 0 1 .45 1 1 .01.56-.44 1-.99 1z"/><path d="m41.11 46.74h-37.72c-.55 0-1-.45-1-1s.45-1 1-1h37.71c.55 0 1 .45 1 1 .01.55-.44 1-.99 1z"/><path d="m51.18 55.18h-47.79c-.55 0-1-.45-1-1s.45-1 1-1h47.79c.55 0 1 .45 1 1s-.45 1-1 1z"/><path d="m52.46 24.66c-.05 0-.09 0-.14-.01-.55-.08-.93-.58-.85-1.13.87-6.1-3.56-11-3.6-11.05-.37-.41-.35-1.04.06-1.41s1.04-.35 1.41.06c.21.23 5.12 5.63 4.11 12.69-.07.49-.5.85-.99.85z"/><path d="m56.32 62.16c-.24 0-.48-.09-.67-.26-.41-.37-.44-1-.07-1.41l2.61-2.87c.92-1.01 1.42-2.31 1.42-3.67v-25.46c0-.55.45-1 1-1s1 .45 1 1v25.47c0 1.86-.69 3.64-1.94 5.02l-2.61 2.87c-.2.2-.47.31-.74.31z"/><path d="m14 18.73c-.35 0-.7-.19-.88-.52-.27-.48-.09-1.09.39-1.36l27.12-14.89c.48-.26 1.09-.09 1.36.39s.09 1.09-.4 1.36l-27.11 14.9c-.15.08-.32.12-.48.12z"/></g></svg>