<svg height="512" viewBox="0 0 128 128" width="512" xmlns="http://www.w3.org/2000/svg"><g><path d="m15.773 99.952v-55.585a5 5 0 0 1 5-5h86.454a5 5 0 0 1 5 5v55.585z" fill="#f3f5e6"/><circle cx="64" cy="30.414" fill="#fa7578" r="8.952"/><path d="m112.225 44.37v6.35h-4.16a5.514 5.514 0 0 0 -5.51 5.51v2.55a5.505 5.505 0 1 1 -11.01 0v-2.55a5.51 5.51 0 0 0 -11.02 0v9a5.51 5.51 0 1 1 -11.02 0v-9a5.505 5.505 0 1 0 -11.01 0v9a5.51 5.51 0 1 1 -11.02 0v-9a5.51 5.51 0 0 0 -11.02 0v2.55a5.505 5.505 0 1 1 -11.01 0v-2.55a5.514 5.514 0 0 0 -5.51-5.51h-4.16v-6.35a5 5 0 0 1 5-5h86.45a5 5 0 0 1 5 5z" fill="#a8503c"/><path d="m15.773 81.146h96.454v18.806h-96.454z" fill="#fb8d4b"/><path d="m108.281 112.294h-88.562a8 8 0 0 1 -6.348-3.131l-7.064-9.211h115.386l-7.065 9.211a8 8 0 0 1 -6.347 3.131z" fill="#80e2ff"/><g><path d="m31.065 87.013a2.349 2.349 0 1 0 2.349 2.349 2.349 2.349 0 0 0 -2.349-2.349z"/><path d="m53.022 89.362a2.349 2.349 0 1 0 2.349 2.349 2.35 2.35 0 0 0 -2.349-2.349z"/><path d="m74.978 87.013a2.349 2.349 0 1 0 2.349 2.349 2.349 2.349 0 0 0 -2.349-2.349z"/><path d="m96.935 89.362a2.349 2.349 0 1 0 2.349 2.349 2.349 2.349 0 0 0 -2.349-2.349z"/><path d="m123.263 99.179a1.751 1.751 0 0 0 -1.57-.976h-7.716v-53.836a6.758 6.758 0 0 0 -6.75-6.75h-35.334a10.651 10.651 0 0 0 -1.458-15.733 12.85 12.85 0 0 1 6.132-4.49 1.75 1.75 0 0 0 -.913-3.379 16.148 16.148 0 0 0 -8.344 6.228 10.685 10.685 0 0 0 -11.2 17.374h-12.036a1.75 1.75 0 0 0 0 3.5h63.153a3.254 3.254 0 0 1 3.25 3.25v4.606h-2.411a7.265 7.265 0 0 0 -7.258 7.257v2.55a3.759 3.759 0 0 1 -7.517 0v-2.55a7.259 7.259 0 0 0 -14.517 0v9a3.758 3.758 0 1 1 -7.516 0v-9a7.259 7.259 0 0 0 -14.517 0v9a3.758 3.758 0 1 1 -7.515 0v-9a7.259 7.259 0 0 0 -14.517 0v2.55a3.759 3.759 0 0 1 -7.517 0v-2.55a7.266 7.266 0 0 0 -7.258-7.257h-2.411v-4.606a3.254 3.254 0 0 1 3.25-3.25h13.938a1.75 1.75 0 0 0 0-3.5h-13.938a6.758 6.758 0 0 0 -6.75 6.75v53.833h-7.716a1.75 1.75 0 0 0 -1.389 2.815l7.064 9.211a9.814 9.814 0 0 0 7.738 3.815h55.18a1.75 1.75 0 0 0 0-3.5h-55.18a6.288 6.288 0 0 1 -4.96-2.446l-4.906-6.395h108.291l-4.905 6.4a6.288 6.288 0 0 1 -4.96 2.446h-9.98a1.75 1.75 0 0 0 0 3.5h9.984a9.812 9.812 0 0 0 7.738-3.816l7.064-9.21a1.75 1.75 0 0 0 .177-1.841zm-66.463-68.764a7.2 7.2 0 1 1 7.2 7.2 7.21 7.21 0 0 1 -7.2-7.2zm-36.866 22.058a3.762 3.762 0 0 1 3.758 3.757v2.55a7.259 7.259 0 0 0 14.517 0v-2.55a3.759 3.759 0 0 1 7.517 0v9a7.258 7.258 0 1 0 14.515 0v-9a3.759 3.759 0 0 1 7.517 0v9a7.258 7.258 0 1 0 14.516 0v-9a3.759 3.759 0 0 1 7.517 0v2.55a7.259 7.259 0 0 0 14.517 0v-2.55a3.762 3.762 0 0 1 3.758-3.757h2.411v26.927h-92.954v-26.927zm-2.411 30.427h92.954v15.3h-92.954z"/><path d="m89.058 110.544h-4.5a1.75 1.75 0 0 0 0 3.5h4.5a1.75 1.75 0 0 0 0-3.5z"/></g></g></svg>