<svg fill="none" height="24" viewBox="0 0 24 24" width="24" xmlns="http://www.w3.org/2000/svg"><path d="m4.5 13.5v-2h13c.5523 0 1 .4477 1 1v1z" fill="#ff3d83"/><path d="m18.5 17v2h-13c-.55228 0-1-.4477-1-1v-1z" fill="#ff3d83"/><path d="m4.5 17v-3.5h14v3.5z" fill="#72cbde"/><path d="m3.47369 10.5789c0-.5232.42416-.94735.94737-.94735h11.13854c.7538 0 1.4767-.29943 2.0097-.83243l.6699-.66989c.2512-.25126.592-.39241.9473-.39241.74 0 1.3398.59984 1.3398 1.33978v9.0813c0 1.5696-1.2724 2.8421-2.8421 2.8421h-13.26314c-.52321 0-.94737-.4242-.94737-.9474s.42416-.9474.94737-.9474h13.26314c.5232 0 .9474-.4241.9474-.9473v-5.6842c0-.5233-.4242-.9474-.9474-.9474h-13.26314c-.52321 0-.94737-.4242-.94737-.9474z" fill="#d3f1f8"/><g clip-rule="evenodd" fill="#1e3317" fill-rule="evenodd"><path d="m17.8856 7.77568c.345-.34503.813-.53886 1.3009-.53886 1.0161 0 1.8398.82369 1.8398 1.83978v9.0813c0 1.8458-1.4963 3.3421-3.3421 3.3421h-13.26314c-.79936 0-1.44737-.648-1.44737-1.4474s.64801-1.4474 1.44737-1.4474h13.26314c.2471 0 .4474-.2003.4474-.4473v-5.6842c0-.2471-.2003-.4474-.4474-.4474h-13.26314c-.79936 0-1.44737-.648-1.44737-1.4474 0-.79934.64801-1.44735 1.44737-1.44735h11.13854c.6212 0 1.2169-.24675 1.6561-.68598zm1.3009.46114c-.2227 0-.4363.08847-.5938.24596l-.6699.66989c-.6267.62677-1.4768.97893-2.3632.97893h-11.13854c-.24707 0-.44737.2002-.44737.4473s.2003.4474.44737.4474h13.26314c.7994 0 1.4474.648 1.4474 1.4474v5.6842c0 .7993-.648 1.4473-1.4474 1.4473h-13.26314c-.24707 0-.44737.2003-.44737.4474s.2003.4474.44737.4474h13.26314c1.2935 0 2.3421-1.0486 2.3421-2.3421v-9.0813c0-.4638-.376-.83978-.8398-.83978z"/><path d="m3.92105 11.5264c0-.2762.22386-.5.5-.5h13.26315c.7994 0 1.4474.648 1.4474 1.4473v5.6842c0 .7994-.648 1.4474-1.4474 1.4474h-13.26315c-.27614 0-.5-.2238-.5-.5zm1 .5v6.5789h12.76315c.2471 0 .4474-.2003.4474-.4474v-5.6842c0-.247-.2003-.4473-.4474-.4473z"/><path d="m3.92105 13.4209c0-.2761.22386-.5.5-.5h14.21055c.2761 0 .5.2239.5.5s-.2239.5-.5.5h-14.21055c-.27614 0-.5-.2239-.5-.5z"/><path d="m3.92105 17.2104c0-.2761.22386-.5.5-.5h14.21055c.2761 0 .5.2239.5.5 0 .2762-.2239.5-.5.5h-14.21055c-.27614 0-.5-.2238-.5-.5z"/></g><path d="m12.9474 7.73702c0 1.04644-.8483 1.89474-1.8948 1.89474-1.0464 0-1.8947-.8483-1.8947-1.89474 0-1.04643.8483-1.89473 1.8947-1.89473 1.0465 0 1.8948.8483 1.8948 1.89473z" fill="#ff3d83"/><path clip-rule="evenodd" d="m3.97382 14.6491c.1235-.247.42384-.3471.67083-.2236l.98626.4931c.39266.1963.85483.1963 1.24749 0l.13891-.0695c.67419-.3371 1.46774-.3371 2.14192 0l.13891.0695c.39266.1963.85486.1963 1.24746 0l.1389-.0695c.6742-.3371 1.4678-.3371 2.142 0l.1389.0695c.3926.1963.8548.1963 1.2475 0l.1389-.0695c.6745-.3372 1.4694-.3362 2.1432.0007.4481.224.9828.1911 1.3989-.0863l.4603-.3069c.2298-.1531.5402-.091.6934.1387.1532.2298.0911.5402-.1387.6934l-.4603.3069c-.7155.4769-1.6326.5327-2.4008.1486-.3931-.1965-.8565-.1968-1.2488-.0006l-.1389.0694c-.6742.3371-1.4678.3371-2.1419 0l-.139-.0694c-.3926-.1964-.8548-.1964-1.2474 0l-.139.0694c-.6741.3371-1.46769.3371-2.14187 0l-.13891-.0694c-.39266-.1964-.85484-.1964-1.24749 0l-.13892.0694c-.67418.3371-1.46773.3371-2.14191 0l-.98627-.4931c-.24699-.1235-.3471-.4238-.22361-.6708z" fill="#1e3317" fill-rule="evenodd"/><path clip-rule="evenodd" d="m11.0526 6.34229c-.7703 0-1.3947.62444-1.3947 1.39473s.6244 1.39474 1.3947 1.39474 1.3948-.62445 1.3948-1.39474-.6245-1.39473-1.3948-1.39473zm-2.3947 1.39473c0-1.32257 1.07216-2.39473 2.3947-2.39473 1.3226 0 2.3948 1.07216 2.3948 2.39473 0 1.32258-1.0722 2.39478-2.3948 2.39478-1.32254 0-2.3947-1.0722-2.3947-2.39478z" fill="#1e3317" fill-rule="evenodd"/><path clip-rule="evenodd" d="m13.4376 2.90204c.0542.27078-.1214.53419-.3922.58835-.7876.15751-1.169.56367-1.36.98371-.2039.44865-.2057.95376-.1425 1.27004.0542.27078-.1214.5342-.3922.58835-.2708.05416-.5342-.12145-.5884-.39223-.0946-.4732-.0965-1.19966.2128-1.87996.3222-.7089.967-1.32906 2.0742-1.55049.2708-.05416.5342.12145.5883.39223z" fill="#1e3317" fill-rule="evenodd"/></svg>