<svg id="Filled_Expand" height="512" viewBox="0 0 64 64" width="512" xmlns="http://www.w3.org/2000/svg" data-name="Filled Expand"><path d="m51.916 62h-39.832a4 4 0 0 1 -3.869-2.982l-4.215-16.018h56l-4.215 16.018a4 4 0 0 1 -3.869 2.982z" fill="#c3875a"/><path d="m37.6 43-1 19h9.2l3-19z" fill="#b4784b"/><path d="m15.2 43 3 19h9.2l-1-19z" fill="#b4784b"/><path d="m58.5 35.55c-2.415-8.29-13.359-14.55-26.5-14.55s-24.085 6.26-26.5 14.55a6 6 0 1 0 6.5 9.913 5.973 5.973 0 0 0 8 0 5.973 5.973 0 0 0 8 0 5.973 5.973 0 0 0 8 0 5.973 5.973 0 0 0 8 0 5.973 5.973 0 0 0 8 0 6 6 0 1 0 6.5-9.913z" fill="#ffe664"/><path d="m59.947 34.337c-3.067-8.786-14.647-15.087-27.947-15.087s-24.88 6.301-27.947 15.087a7.738 7.738 0 0 0 -.773 12.8l3.243 12.326a5.754 5.754 0 0 0 5.56 4.287h39.834a5.754 5.754 0 0 0 5.56-4.287l3.243-12.322a7.738 7.738 0 0 0 -.773-12.8zm-47.864 25.913a2.249 2.249 0 0 1 -2.175-1.678l-2.594-9.854c.226.02.455.032.686.032a7.719 7.719 0 0 0 4-1.118 7.517 7.517 0 0 0 2.3.907l1.852 11.711zm7.612 0-1.854-11.745a7.489 7.489 0 0 0 2.159-.873 7.826 7.826 0 0 0 4.946 1.033l.609 11.585zm15.245 0h-5.88l-.652-12.391a7.911 7.911 0 0 0 7.184 0zm9.365 0h-5.86l.609-11.585a7.826 7.826 0 0 0 4.946-1.033 7.489 7.489 0 0 0 2.159.873zm9.787-1.678a2.25 2.25 0 0 1 -2.175 1.678h-4.069l1.852-11.711a7.517 7.517 0 0 0 2.3-.907 7.719 7.719 0 0 0 4 1.118c.231 0 .46-.012.686-.032zm1.908-13.322a4.233 4.233 0 0 1 -2.831-1.09 1.752 1.752 0 0 0 -2.338 0 4.327 4.327 0 0 1 -5.662 0 1.752 1.752 0 0 0 -2.338 0 4.327 4.327 0 0 1 -5.662 0 1.752 1.752 0 0 0 -2.338 0 4.327 4.327 0 0 1 -5.662 0 1.752 1.752 0 0 0 -2.338 0 4.327 4.327 0 0 1 -5.662 0 1.752 1.752 0 0 0 -2.338 0 4.327 4.327 0 0 1 -5.662 0 1.752 1.752 0 0 0 -2.338 0 4.245 4.245 0 1 1 -4.6-7.019 1.75 1.75 0 0 0 .95-1.1c2.243-7.702 12.681-13.291 24.819-13.291s22.576 5.589 24.819 13.29a1.75 1.75 0 0 0 .95 1.1 4.247 4.247 0 0 1 -1.769 8.11z"/><path d="m32 27.25a1.751 1.751 0 0 0 -1.75 1.75v6a1.75 1.75 0 0 0 3.5 0v-6a1.751 1.751 0 0 0 -1.75-1.75z"/><path d="m40.516 28.125a1.751 1.751 0 0 0 -2.391-.641 1.751 1.751 0 0 0 -.641 2.391l2.31 4a1.75 1.75 0 0 0 2.39.641 1.751 1.751 0 0 0 .64-2.391z"/><path d="m25.875 27.484a1.751 1.751 0 0 0 -2.391.641l-2.309 4a1.751 1.751 0 0 0 .64 2.391 1.75 1.75 0 0 0 2.39-.641l2.31-4a1.751 1.751 0 0 0 -.64-2.391z"/><path d="m18.331 14.608.149.26a1.75 1.75 0 0 0 3.04-1.736 4.312 4.312 0 0 1 -.02-4.232 7.583 7.583 0 0 0 .168-7.508l-.149-.261a1.75 1.75 0 0 0 -3.04 1.736 4.314 4.314 0 0 1 .021 4.233 7.583 7.583 0 0 0 -.169 7.508z"/><path d="m30.331 14.608.149.26a1.75 1.75 0 1 0 3.04-1.736 4.312 4.312 0 0 1 -.02-4.232 7.583 7.583 0 0 0 .168-7.508l-.149-.261a1.75 1.75 0 0 0 -3.04 1.736 4.314 4.314 0 0 1 .021 4.233 7.583 7.583 0 0 0 -.169 7.508z"/><path d="m42.331 14.608.149.26a1.75 1.75 0 1 0 3.04-1.736 4.312 4.312 0 0 1 -.02-4.232 7.583 7.583 0 0 0 .168-7.508l-.149-.261a1.75 1.75 0 0 0 -3.04 1.736 4.314 4.314 0 0 1 .021 4.233 7.583 7.583 0 0 0 -.169 7.508z"/></svg>