<svg enable-background="new 0 0 32 32" viewBox="0 0 32 32" xmlns="http://www.w3.org/2000/svg"><g id="Grid" display="none"/><g id="bow_tie"/><g id="balloon_1_"/><g id="placeholder"/><g id="mic"/><g id="speaker"/><g id="champagne"/><g id="gift"/><g id="theater"/><g id="_camera"/><g id="video_camera"/><g id="party_hat"/><g id="champagne_glass"/><g id="man"/><g id="woman"/><g id="skewer"/><g id="ticket"/><g id="cake"><circle cx="15.999" cy="6.482" fill="#e96565" r="2.576"/><path d="m18.579 6.48c0 1.43-1.16 2.58-2.58 2.58-.26 0-.51-.04-.75-.11 1.05-.32 1.83-1.3 1.83-2.47 0-1.16-.78-2.14-1.83-2.46.24-.07.49-.11.75-.11 1.42 0 2.58 1.15 2.58 2.57z" fill="#e05353"/><path d="m25.29 18.177h-18.583v-5.719c0-1.628 1.32-2.948 2.948-2.948h12.688c1.628 0 2.948 1.32 2.948 2.948v5.719z" fill="#efc48f"/><path d="m25.289 12.46v5.72h-3.38v-5.72c0-1.63-1.31-2.95-2.94-2.95h3.37c1.63 0 2.95 1.32 2.95 2.95z" fill="#eab478"/><path d="m26.225 12.305c0 .659-.335 1.272-.89 1.627l-.215.138c-.782.501-1.785.501-2.567-.001l-1.361-.873c-.783-.502-1.788-.502-2.57.002l-1.348.867c-.784.504-1.789.504-2.573 0l-1.346-.866c-.784-.504-1.789-.504-2.573 0l-1.346.866c-.784.504-1.79.504-2.573 0l-.202-.13c-.554-.356-.889-.97-.889-1.629 0-1.793 1.454-3.247 3.247-3.247h13.958c1.794-.001 3.248 1.453 3.248 3.246z" fill="#ffb2c1"/><path d="m26.229 12.31c0 .65-.34 1.27-.89 1.62l-.22.14c-.78.5-1.78.5-2.57 0l-1.36-.87c-.15-.1-.3-.18-.46-.23.08-.21.12-.43.12-.66 0-1.8-1.45-3.25-3.25-3.25h5.38c1.79 0 3.25 1.45 3.25 3.25z" fill="#f99bb2"/><path d="m26.085 29.989h-20.172c-1.077 0-1.951-.873-1.951-1.951v-5.458c0-2.109 1.71-3.819 3.819-3.819h16.436c2.109 0 3.819 1.71 3.819 3.819v5.458c-.001 1.078-.874 1.951-1.951 1.951z" fill="#efc48f"/><path d="m28.039 22.58v5.46c0 1.08-.88 1.95-1.95 1.95h-4.21c1.07 0 1.95-.87 1.95-1.95v-5.46c0-2.11-1.71-3.82-3.82-3.82h4.21c2.11 0 3.82 1.71 3.82 3.82z" fill="#eab478"/><path d="m29.246 22.383c0 .853-.434 1.647-1.153 2.107l-.279.179c-1.013.649-2.312.649-3.325-.001l-1.763-1.131c-1.015-.651-2.316-.65-3.33.002l-1.746 1.123c-1.015.653-2.318.653-3.333 0l-1.743-1.122c-1.015-.653-2.318-.653-3.333 0l-1.743 1.121c-1.015.653-2.318.653-3.333 0l-.262-.169c-.718-.462-1.151-1.257-1.151-2.11 0-2.323 1.883-4.207 4.207-4.207h18.081c2.322.002 4.206 1.885 4.206 4.208z" fill="#ffb2c1"/><path d="m29.249 22.38c0 .86-.44 1.65-1.16 2.11l-.27.18c-1.02.65-2.32.65-3.33 0l-1.76-1.13c-.29-.18-.61-.32-.94-.39.08-.24.12-.5.12-.77 0-2.32-1.88-4.2-4.2-4.2h7.33c2.32 0 4.21 1.88 4.21 4.2z" fill="#f99bb2"/><path d="m8.164 11.634c.094 0 .189-.031.268-.095.166-.135.369-.206.588-.206h.556c.235 0 .425-.19.425-.425s-.19-.425-.425-.425h-.556c-.411 0-.81.141-1.124.396-.182.148-.21.416-.062.598.084.103.206.157.33.157z" fill="#ffcfda"/><path d="m29.67 22.384c0-2.322-1.724-4.233-3.956-4.563v-3.656c.581-.445.935-1.119.935-1.859 0-2.024-1.647-3.672-3.672-3.672h-4.895c.564-.546.918-1.307.918-2.152 0-1.47-1.063-2.69-2.46-2.946.067-.164.166-.344.318-.515.389-.438.888-.561 1.084-.593.231-.037.389-.256.351-.487-.038-.232-.255-.39-.488-.351-.355.058-1.033.247-1.583.867-.317.358-.484.738-.572 1.059-1.489.175-2.652 1.43-2.652 2.966 0 .845.353 1.606.917 2.151h-4.895c-2.025 0-3.672 1.647-3.672 3.672 0 .743.354 1.419.938 1.864v3.65c-2.233.329-3.958 2.24-3.958 4.564 0 .941.456 1.799 1.208 2.352v3.305c0 1.31 1.065 2.375 2.375 2.375h20.17c1.315 0 2.385-1.065 2.385-2.375v-3.31c.749-.55 1.204-1.407 1.204-2.346zm-20.003-7.962 1.346-.865c.642-.412 1.472-.412 2.113 0l1.346.865c.92.593 2.111.595 3.033 0l1.348-.866c.642-.414 1.47-.412 2.111-.002l1.361.873c.459.295.986.442 1.513.442.352 0 .696-.09 1.028-.222v3.105h-17.731v-3.102c.827.322 1.767.262 2.532-.228zm4.18-7.94c0-1.187.965-2.151 2.151-2.151s2.151.965 2.151 2.151-.965 2.151-2.151 2.151-2.151-.964-2.151-2.151zm-4.827 3.001h13.958c1.556 0 2.822 1.267 2.822 2.822 0 .516-.26.99-.694 1.269l-.215.139c-.641.409-1.469.408-2.108-.001l-1.361-.873c-.459-.295-.986-.443-1.513-.443-.528 0-1.056.148-1.517.445l-1.348.866c-.642.414-1.471.414-2.113 0l-1.346-.865c-.922-.592-2.112-.592-3.033 0l-1.346.865c-.641.412-1.47.413-2.114 0l-.202-.13c-.435-.279-.694-.755-.694-1.271.001-1.556 1.267-2.823 2.824-2.823zm17.06 20.082h-20.17c-.841 0-1.525-.685-1.525-1.525v-2.776c1.072.485 2.336.404 3.344-.245l1.743-1.121c.873-.563 2.001-.563 2.873 0l1.744 1.121c1.152.742 2.641.742 3.793 0l1.746-1.122c.871-.56 1.998-.561 2.87-.003l1.763 1.131c.575.369 1.234.554 1.893.554.5 0 .999-.107 1.462-.32v2.78c-.001.842-.69 1.526-1.536 1.526zm1.783-5.431-.278.178c-.87.559-1.995.558-2.866-.001l-1.763-1.131c-.575-.369-1.233-.553-1.892-.553-.66 0-1.321.186-1.897.556l-1.746 1.122c-.873.563-2.001.563-2.873 0l-1.744-1.121c-1.152-.742-2.641-.742-3.793 0l-1.743 1.121c-.873.563-2 .563-2.874 0l-.262-.169c-.599-.386-.957-1.04-.957-1.752 0-2.085 1.697-3.782 3.782-3.782h18.081c2.085 0 3.782 1.697 3.782 3.782.001.712-.357 1.366-.957 1.75z"/><g fill="#ffcfda"><path d="m10.039 19.602h-.083c-.235 0-.383.19-.383.425s.232.425.467.425.425-.19.425-.425-.191-.425-.426-.425z"/><path d="m8.183 19.602h-1.225c-.835 0-1.619.371-2.151 1.02-.149.182-.123.449.059.598.079.065.174.097.27.097.123 0 .245-.053.329-.155.37-.45.914-.709 1.494-.709h1.225c.235 0 .425-.19.425-.425s-.191-.426-.426-.426z"/></g></g><g id="lights"/><g id="photo"/><g id="invitation"/></svg>