<svg height="512" viewBox="0 0 64 64" width="512" xmlns="http://www.w3.org/2000/svg"><g id="_29-Calendar" data-name="29-Calendar"><rect fill="#e7eaef" height="53" rx="2" width="58" x="3" y="8"/><path d="m61 10v9h-58v-9a2 2 0 0 1 2-2h54a2 2 0 0 1 2 2z" fill="#fc6067"/><g fill="#e7eaef"><rect height="10" rx="2" width="4" x="36" y="3"/><rect height="10" rx="2" width="4" x="48" y="3"/><rect height="10" rx="2" width="4" x="24" y="3"/><rect height="10" rx="2" width="4" x="12" y="3"/></g><path d="m46 50a6.26 6.26 0 0 0 -1.68.24 6 6 0 0 0 -5.32-3.24 6.26 6.26 0 0 0 -1.68.24 6 6 0 0 0 -10.64 0 6.26 6.26 0 0 0 -1.68-.24 6 6 0 0 0 -5.32 3.24 6.26 6.26 0 0 0 -1.68-.24 6 6 0 0 0 -6 6h40a6 6 0 0 0 -6-6z" fill="#b38051"/><path d="m20 26h6a6 6 0 0 1 6 6v1a0 0 0 0 1 0 0h-6a6 6 0 0 1 -6-6v-1a0 0 0 0 1 0 0z" fill="#59e78b" transform="matrix(-1 0 0 -1 52 59)"/><path d="m38 33h6a0 0 0 0 1 0 0v1a6 6 0 0 1 -6 6h-6a0 0 0 0 1 0 0v-1a6 6 0 0 1 6-6z" fill="#59e78b"/><path d="m59 8h-1.78a3 3 0 0 1 .78 2v49a3 3 0 0 1 -.78 2h1.78a2 2 0 0 0 2-2v-49a2 2 0 0 0 -2-2z" fill="#d8dbe0"/><path d="m58 19h3v-9a2 2 0 0 0 -2-2h-1.78a3 3 0 0 1 .78 2z" fill="#fb4b5b"/><path d="m26 26h-.41a7 7 0 0 1 3.41 6v1h3v-1a6 6 0 0 0 -6-6z" fill="#31e170"/><path d="m44 33h-3v1a7 7 0 0 1 -3.41 6h.41a6 6 0 0 0 6-6z" fill="#31e170"/><path d="m52 56a6 6 0 0 0 -5.65-6 7.78 7.78 0 0 1 2.65 5.91.29.29 0 0 1 0 .09z" fill="#aa744c"/><path d="m59 7h-6v-2a3 3 0 0 0 -6 0v2h-6v-2a3 3 0 0 0 -6 0v2h-6v-2a3 3 0 0 0 -6 0v2h-6v-2a3 3 0 0 0 -6 0v2h-6a3 3 0 0 0 -3 3v15a1 1 0 0 0 2 0v-5h56v31a1 1 0 0 0 2 0v-41a3 3 0 0 0 -3-3zm-10-2a1 1 0 0 1 2 0v6a1 1 0 0 1 -2 0zm-12 0a1 1 0 0 1 2 0v6a1 1 0 0 1 -2 0zm-12 0a1 1 0 0 1 2 0v6a1 1 0 0 1 -2 0zm-12 0a1 1 0 0 1 2 0v6a1 1 0 0 1 -2 0zm-9 13v-8a1 1 0 0 1 1-1h6v2a3 3 0 0 0 6 0v-2h6v2a3 3 0 0 0 6 0v-2h6v2a3 3 0 0 0 6 0v-2h6v2a3 3 0 0 0 6 0v-2h6a1 1 0 0 1 1 1v8zm58 37v4a3 3 0 0 1 -3 3h-54a3 3 0 0 1 -3-3v-30a1 1 0 0 1 2 0v30a1 1 0 0 0 1 1h54a1 1 0 0 0 1-1v-4a1 1 0 0 1 2 0zm-31-11.92a7 7 0 0 0 -4.81 3 7 7 0 0 0 -7 3 8 8 0 0 0 -1.19-.08 7 7 0 0 0 -7 7 1 1 0 0 0 1 1h40a1 1 0 0 0 1-1 7 7 0 0 0 -7-7 8 8 0 0 0 -1.19.1 7 7 0 0 0 -7-3 7 7 0 0 0 -4.81-3v-2.1h5a7 7 0 0 0 7-7v-1a1 1 0 0 0 -1-1h-6a7 7 0 0 0 -5 2.11v-10.11a1 1 0 0 0 -2 0v3.11a7 7 0 0 0 -5-2.11h-6a1 1 0 0 0 -1 1v1a7 7 0 0 0 7 7h5zm-5-11.08a5 5 0 0 1 -5-5h5a5 5 0 0 1 5 5zm10.44 15.7a1 1 0 0 0 1.16.5 5 5 0 0 1 5.84 2.5 1 1 0 0 0 1.16.5 5.15 5.15 0 0 1 1.4-.2 5 5 0 0 1 4.9 4h-37.8a5 5 0 0 1 4.9-4 5.15 5.15 0 0 1 1.4.2 1 1 0 0 0 1.16-.5 5 5 0 0 1 5.84-2.5 1 1 0 0 0 1.16-.5 5 5 0 0 1 8.88 0zm1.56-13.7h5a5 5 0 0 1 -5 5h-5a5 5 0 0 1 5-5z"/></g></svg>