<svg id="Layer_1" viewBox="0 0 1000 1000" xmlns="http://www.w3.org/2000/svg" data-name="Layer 1"><path d="m116 359.68v468.81c0 30.61 26.54 55.51 59.15 55.51h649.69c32.62 0 59.16-24.9 59.16-55.51v-468.81zm177 445.25a32.81 32.81 0 0 1 -32.77 32.78h-51.65a32.82 32.82 0 0 1 -32.78-32.78v-47.5a32.81 32.81 0 0 1 32.78-32.77h51.69a32.81 32.81 0 0 1 32.73 32.77zm0-159.34a32.81 32.81 0 0 1 -32.77 32.77h-51.65a32.81 32.81 0 0 1 -32.78-32.77v-47.5a32.81 32.81 0 0 1 32.78-32.77h51.69a32.81 32.81 0 0 1 32.73 32.77zm0-159.34a32.81 32.81 0 0 1 -32.73 32.75h-51.69a32.81 32.81 0 0 1 -32.78-32.77v-47.5a32.81 32.81 0 0 1 32.78-32.73h51.69a32.81 32.81 0 0 1 32.73 32.75zm177 318.68a32.81 32.81 0 0 1 -32.77 32.78h-51.7a32.81 32.81 0 0 1 -32.77-32.78v-47.5a32.81 32.81 0 0 1 32.77-32.77h51.7a32.81 32.81 0 0 1 32.77 32.77zm0-159.34a32.81 32.81 0 0 1 -32.77 32.77h-51.7a32.81 32.81 0 0 1 -32.77-32.77v-47.5a32.81 32.81 0 0 1 32.77-32.77h51.7a32.81 32.81 0 0 1 32.77 32.77zm0-159.34a32.81 32.81 0 0 1 -32.68 32.75h-51.7a32.81 32.81 0 0 1 -32.77-32.77v-47.5a32.81 32.81 0 0 1 32.77-32.73h51.7a32.81 32.81 0 0 1 32.77 32.77zm177.15 318.68a32.82 32.82 0 0 1 -32.78 32.78h-51.69a32.82 32.82 0 0 1 -32.78-32.78v-47.5a32.81 32.81 0 0 1 32.78-32.77h51.69a32.81 32.81 0 0 1 32.78 32.77zm0-159.34a32.81 32.81 0 0 1 -32.78 32.77h-51.69a32.81 32.81 0 0 1 -32.78-32.77v-47.5a32.81 32.81 0 0 1 32.78-32.77h51.69a32.81 32.81 0 0 1 32.78 32.77zm0-159.34a32.81 32.81 0 0 1 -32.78 32.75h-51.69a32.81 32.81 0 0 1 -32.78-32.77v-47.5a32.81 32.81 0 0 1 32.78-32.73h51.69a32.81 32.81 0 0 1 32.78 32.77zm177.05 318.68a32.82 32.82 0 0 1 -32.78 32.78h-51.69a32.82 32.82 0 0 1 -32.73-32.78v-47.5a32.81 32.81 0 0 1 32.78-32.77h51.69a32.81 32.81 0 0 1 32.78 32.77zm0-159.34a32.81 32.81 0 0 1 -32.78 32.77h-51.69a32.81 32.81 0 0 1 -32.73-32.77v-47.5a32.81 32.81 0 0 1 32.78-32.77h51.69a32.81 32.81 0 0 1 32.78 32.77zm0-159.34a32.81 32.81 0 0 1 -32.78 32.75h-51.69a32.81 32.81 0 0 1 -32.73-32.75v-47.5a32.81 32.81 0 0 1 32.73-32.75h51.69a32.81 32.81 0 0 1 32.78 32.77z" fill="#bdbdbd"/><path d="m261 757.43v47.5a.83.83 0 0 1 -.77.78h-51.65a.83.83 0 0 1 -.78-.78v-47.5a.82.82 0 0 1 .78-.77h51.69a.82.82 0 0 1 .73.77z" fill="#ffc400"/><path d="m261 598.09v47.5a.82.82 0 0 1 -.77.77h-51.65a.82.82 0 0 1 -.78-.77v-47.5a.82.82 0 0 1 .78-.77h51.69a.82.82 0 0 1 .73.77z" fill="#ffc400"/><path d="m261 438.75v47.5a.82.82 0 0 1 -.77.77h-51.65a.82.82 0 0 1 -.78-.77v-47.5a.82.82 0 0 1 .78-.77h51.69a.82.82 0 0 1 .73.77z" fill="#ffc400"/><rect fill="#ffc400" height="49.04" rx=".77" width="53.24" x="384.85" y="437.98"/><rect fill="#ffc400" height="49.04" rx=".77" width="53.24" x="384.85" y="597.32"/><path d="m438.09 757.43v47.5a.83.83 0 0 1 -.77.78h-51.7a.83.83 0 0 1 -.77-.78v-47.5a.82.82 0 0 1 .77-.77h51.7a.82.82 0 0 1 .77.77z" fill="#ffc400"/><path d="m615.15 757.43v47.5a.84.84 0 0 1 -.78.78h-51.69a.84.84 0 0 1 -.78-.78v-47.5a.83.83 0 0 1 .78-.77h51.69a.83.83 0 0 1 .78.77z" fill="#ffc400"/><path d="m615.15 598.09v47.5a.83.83 0 0 1 -.78.77h-51.69a.83.83 0 0 1 -.78-.77v-47.5a.83.83 0 0 1 .78-.77h51.69a.83.83 0 0 1 .78.77z" fill="#ffc400"/><path d="m615.15 438.75v47.5a.83.83 0 0 1 -.78.77h-51.69a.83.83 0 0 1 -.78-.77v-47.5a.83.83 0 0 1 .78-.77h51.69a.83.83 0 0 1 .78.77z" fill="#ffc400"/><path d="m792.2 438.75v47.5a.83.83 0 0 1 -.78.77h-51.69a.82.82 0 0 1 -.78-.77v-47.5a.82.82 0 0 1 .78-.77h51.69a.83.83 0 0 1 .78.77z" fill="#ffc400"/><path d="m792.2 757.43v47.5a.84.84 0 0 1 -.78.78h-51.69a.83.83 0 0 1 -.78-.78v-47.5a.82.82 0 0 1 .78-.77h51.69a.83.83 0 0 1 .78.77z" fill="#ffc400"/><path d="m792.2 598.09v47.5a.83.83 0 0 1 -.78.77h-51.69a.82.82 0 0 1 -.78-.77v-47.5a.82.82 0 0 1 .78-.77h51.69a.83.83 0 0 1 .78.77z" fill="#ffc400"/><path d="m754 130v130a14 14 0 0 1 -28 0v-130a14 14 0 0 1 28 0z" fill="#78909c"/><path d="m594 130v130a14 14 0 0 1 -28 0v-130a14 14 0 0 1 28 0z" fill="#78909c"/><path d="m434 130v130a14 14 0 0 1 -28 0v-130a14 14 0 0 1 28 0z" fill="#78909c"/><path d="m274 130v130a14 14 0 0 1 -28 0v-130a14 14 0 0 1 28 0z" fill="#78909c"/><path d="m884 266.51v61.17h-768v-61.17c0-30.61 26.54-55.51 59.15-55.51h38.85v49a46 46 0 0 0 92 0v-49h68v49a46 46 0 0 0 92 0v-49h68v49a46 46 0 0 0 92 0v-49h68v49a46 46 0 0 0 92 0v-49h38.84c32.62 0 59.16 24.9 59.16 55.51z" fill="#ff3d00"/><g fill="#fff" opacity=".5"><path d="m106 369.68v468.81c0 30.61 26.54 55.51 59.15 55.51h649.69c32.62 0 59.16-24.9 59.16-55.51v-468.81zm177 445.25a32.81 32.81 0 0 1 -32.77 32.78h-51.65a32.82 32.82 0 0 1 -32.78-32.78v-47.5a32.81 32.81 0 0 1 32.78-32.77h51.69a32.81 32.81 0 0 1 32.73 32.77zm0-159.34a32.81 32.81 0 0 1 -32.77 32.77h-51.65a32.81 32.81 0 0 1 -32.78-32.77v-47.5a32.81 32.81 0 0 1 32.78-32.77h51.69a32.81 32.81 0 0 1 32.73 32.77zm0-159.34a32.81 32.81 0 0 1 -32.73 32.75h-51.69a32.81 32.81 0 0 1 -32.78-32.77v-47.5a32.81 32.81 0 0 1 32.78-32.73h51.69a32.81 32.81 0 0 1 32.73 32.75zm177 318.68a32.81 32.81 0 0 1 -32.77 32.78h-51.7a32.81 32.81 0 0 1 -32.77-32.78v-47.5a32.81 32.81 0 0 1 32.77-32.77h51.7a32.81 32.81 0 0 1 32.77 32.77zm0-159.34a32.81 32.81 0 0 1 -32.77 32.77h-51.7a32.81 32.81 0 0 1 -32.77-32.77v-47.5a32.81 32.81 0 0 1 32.77-32.77h51.7a32.81 32.81 0 0 1 32.77 32.77zm0-159.34a32.81 32.81 0 0 1 -32.68 32.75h-51.7a32.81 32.81 0 0 1 -32.77-32.77v-47.5a32.81 32.81 0 0 1 32.77-32.73h51.7a32.81 32.81 0 0 1 32.77 32.77zm177.15 318.68a32.82 32.82 0 0 1 -32.78 32.78h-51.69a32.82 32.82 0 0 1 -32.78-32.78v-47.5a32.81 32.81 0 0 1 32.78-32.77h51.69a32.81 32.81 0 0 1 32.78 32.77zm0-159.34a32.81 32.81 0 0 1 -32.78 32.77h-51.69a32.81 32.81 0 0 1 -32.78-32.77v-47.5a32.81 32.81 0 0 1 32.78-32.77h51.69a32.81 32.81 0 0 1 32.78 32.77zm0-159.34a32.81 32.81 0 0 1 -32.78 32.75h-51.69a32.81 32.81 0 0 1 -32.78-32.77v-47.5a32.81 32.81 0 0 1 32.78-32.73h51.69a32.81 32.81 0 0 1 32.78 32.77zm177.05 318.68a32.82 32.82 0 0 1 -32.78 32.78h-51.69a32.82 32.82 0 0 1 -32.73-32.78v-47.5a32.81 32.81 0 0 1 32.78-32.77h51.69a32.81 32.81 0 0 1 32.78 32.77zm0-159.34a32.81 32.81 0 0 1 -32.78 32.77h-51.69a32.81 32.81 0 0 1 -32.73-32.77v-47.5a32.81 32.81 0 0 1 32.78-32.77h51.69a32.81 32.81 0 0 1 32.78 32.77zm0-159.34a32.81 32.81 0 0 1 -32.78 32.75h-51.69a32.81 32.81 0 0 1 -32.73-32.75v-47.5a32.81 32.81 0 0 1 32.73-32.75h51.69a32.81 32.81 0 0 1 32.78 32.77z"/><path d="m251 767.43v47.5a.83.83 0 0 1 -.77.78h-51.65a.83.83 0 0 1 -.78-.78v-47.5a.82.82 0 0 1 .78-.77h51.69a.82.82 0 0 1 .73.77z"/><path d="m251 608.09v47.5a.82.82 0 0 1 -.77.77h-51.65a.82.82 0 0 1 -.78-.77v-47.5a.82.82 0 0 1 .78-.77h51.69a.82.82 0 0 1 .73.77z"/><path d="m251 448.75v47.5a.82.82 0 0 1 -.77.77h-51.65a.82.82 0 0 1 -.78-.77v-47.5a.82.82 0 0 1 .78-.77h51.69a.82.82 0 0 1 .73.77z"/><rect height="49.04" rx=".77" width="53.24" x="374.85" y="447.98"/><rect height="49.04" rx=".77" width="53.24" x="374.85" y="607.32"/><path d="m428.09 767.43v47.5a.83.83 0 0 1 -.77.78h-51.7a.83.83 0 0 1 -.77-.78v-47.5a.82.82 0 0 1 .77-.77h51.7a.82.82 0 0 1 .77.77z"/><path d="m605.15 767.43v47.5a.84.84 0 0 1 -.78.78h-51.69a.84.84 0 0 1 -.78-.78v-47.5a.83.83 0 0 1 .78-.77h51.69a.83.83 0 0 1 .78.77z"/><path d="m605.15 608.09v47.5a.83.83 0 0 1 -.78.77h-51.69a.83.83 0 0 1 -.78-.77v-47.5a.83.83 0 0 1 .78-.77h51.69a.83.83 0 0 1 .78.77z"/><path d="m605.15 448.75v47.5a.83.83 0 0 1 -.78.77h-51.69a.83.83 0 0 1 -.78-.77v-47.5a.83.83 0 0 1 .78-.77h51.69a.83.83 0 0 1 .78.77z"/><path d="m782.2 448.75v47.5a.83.83 0 0 1 -.78.77h-51.69a.82.82 0 0 1 -.78-.77v-47.5a.82.82 0 0 1 .78-.77h51.69a.83.83 0 0 1 .78.77z"/><path d="m782.2 767.43v47.5a.84.84 0 0 1 -.78.78h-51.69a.83.83 0 0 1 -.78-.78v-47.5a.82.82 0 0 1 .78-.77h51.69a.83.83 0 0 1 .78.77z"/><path d="m782.2 608.09v47.5a.83.83 0 0 1 -.78.77h-51.69a.82.82 0 0 1 -.78-.77v-47.5a.82.82 0 0 1 .78-.77h51.69a.83.83 0 0 1 .78.77z"/><path d="m744 140v130a14 14 0 0 1 -28 0v-130a14 14 0 0 1 28 0z"/><path d="m584 140v130a14 14 0 0 1 -28 0v-130a14 14 0 0 1 28 0z"/><path d="m424 140v130a14 14 0 0 1 -28 0v-130a14 14 0 0 1 28 0z"/><path d="m264 140v130a14 14 0 0 1 -28 0v-130a14 14 0 0 1 28 0z"/><path d="m874 276.51v61.17h-768v-61.17c0-30.61 26.54-55.51 59.15-55.51h38.85v49a46 46 0 0 0 92 0v-49h68v49a46 46 0 0 0 92 0v-49h68v49a46 46 0 0 0 92 0v-49h68v49a46 46 0 0 0 92 0v-49h38.84c32.62 0 59.16 24.9 59.16 55.51z"/></g><g fill="#413b32"><path d="m566 195a16 16 0 0 1 -16 16h-100a16 16 0 0 1 0-32h100a16 16 0 0 1 16 16z"/><path d="m916 266.51v562c0 48.25-40.89 87.51-91.16 87.51h-649.69c-50.26-.02-91.15-39.28-91.15-87.53v-562c0-48.23 40.89-87.49 91.15-87.49h54.85a16 16 0 0 1 0 32h-54.85c-32.61 0-59.15 24.9-59.15 55.51v562c0 30.59 26.54 55.49 59.15 55.49h649.69c32.62 0 59.16-24.9 59.16-55.51v-562c0-30.59-26.54-55.49-59.16-55.49h-54.84a16 16 0 0 1 0-32h54.84c50.27 0 91.16 39.26 91.16 87.51z"/><path d="m726 195a16 16 0 0 1 -16 16h-100a16 16 0 0 1 0-32h100a16 16 0 0 1 16 16z"/><path d="m406 195a16 16 0 0 1 -16 16h-100a16 16 0 0 1 0-32h100a16 16 0 0 1 16 16z"/><path d="m791.42 406h-51.69a32.81 32.81 0 0 0 -32.73 32.75v47.5a32.81 32.81 0 0 0 32.73 32.75h51.69a32.81 32.81 0 0 0 32.78-32.77v-47.5a32.81 32.81 0 0 0 -32.78-32.73zm.78 80.27a.83.83 0 0 1 -.78.77h-51.69a.82.82 0 0 1 -.78-.77v-47.5a.82.82 0 0 1 .78-.77h51.69a.83.83 0 0 1 .78.77z"/><path d="m614.37 406h-51.69a32.81 32.81 0 0 0 -32.78 32.77v47.5a32.81 32.81 0 0 0 32.78 32.73h51.69a32.81 32.81 0 0 0 32.78-32.77v-47.5a32.81 32.81 0 0 0 -32.78-32.73zm.78 80.27a.83.83 0 0 1 -.78.77h-51.69a.83.83 0 0 1 -.78-.77v-47.5a.83.83 0 0 1 .78-.77h51.69a.83.83 0 0 1 .78.77z"/><path d="m437.32 406h-51.7a32.81 32.81 0 0 0 -32.77 32.77v47.5a32.81 32.81 0 0 0 32.77 32.73h51.7a32.81 32.81 0 0 0 32.77-32.77v-47.5a32.81 32.81 0 0 0 -32.77-32.73zm.77 80.27a.82.82 0 0 1 -.77.77h-51.7a.82.82 0 0 1 -.77-.77v-47.5a.82.82 0 0 1 .77-.77h51.7a.82.82 0 0 1 .77.77z"/><path d="m260.27 406h-51.69a32.81 32.81 0 0 0 -32.78 32.77v47.5a32.81 32.81 0 0 0 32.78 32.73h51.69a32.81 32.81 0 0 0 32.73-32.75v-47.5a32.81 32.81 0 0 0 -32.73-32.75zm.77 80.27a.82.82 0 0 1 -.77.77h-51.69a.82.82 0 0 1 -.78-.77v-47.5a.82.82 0 0 1 .78-.77h51.69a.82.82 0 0 1 .77.77z"/><path d="m791.42 565.32h-51.69a32.81 32.81 0 0 0 -32.73 32.77v47.5a32.81 32.81 0 0 0 32.78 32.77h51.69a32.81 32.81 0 0 0 32.78-32.77v-47.5a32.81 32.81 0 0 0 -32.83-32.77zm.78 80.27a.83.83 0 0 1 -.78.77h-51.69a.82.82 0 0 1 -.78-.77v-47.5a.82.82 0 0 1 .78-.77h51.69a.83.83 0 0 1 .78.77z"/><path d="m614.37 565.32h-51.69a32.81 32.81 0 0 0 -32.78 32.77v47.5a32.81 32.81 0 0 0 32.78 32.77h51.69a32.81 32.81 0 0 0 32.78-32.77v-47.5a32.81 32.81 0 0 0 -32.78-32.77zm.78 80.27a.83.83 0 0 1 -.78.77h-51.69a.83.83 0 0 1 -.78-.77v-47.5a.83.83 0 0 1 .78-.77h51.69a.83.83 0 0 1 .78.77z"/><path d="m437.32 565.32h-51.7a32.81 32.81 0 0 0 -32.77 32.77v47.5a32.81 32.81 0 0 0 32.77 32.77h51.7a32.81 32.81 0 0 0 32.77-32.77v-47.5a32.81 32.81 0 0 0 -32.77-32.77zm.77 80.27a.82.82 0 0 1 -.77.77h-51.7a.82.82 0 0 1 -.77-.77v-47.5a.82.82 0 0 1 .77-.77h51.7a.82.82 0 0 1 .77.77z"/><path d="m260.27 565.32h-51.69a32.81 32.81 0 0 0 -32.78 32.77v47.5a32.81 32.81 0 0 0 32.78 32.77h51.69a32.81 32.81 0 0 0 32.73-32.77v-47.5a32.81 32.81 0 0 0 -32.73-32.77zm.77 80.27a.82.82 0 0 1 -.77.77h-51.69a.82.82 0 0 1 -.78-.77v-47.5a.82.82 0 0 1 .78-.77h51.69a.82.82 0 0 1 .77.77z"/><path d="m791.42 724.66h-51.69a32.81 32.81 0 0 0 -32.73 32.77v47.5a32.82 32.82 0 0 0 32.78 32.78h51.69a32.82 32.82 0 0 0 32.78-32.78v-47.5a32.81 32.81 0 0 0 -32.83-32.77zm.78 80.27a.84.84 0 0 1 -.78.78h-51.69a.83.83 0 0 1 -.78-.78v-47.5a.82.82 0 0 1 .78-.77h51.69a.83.83 0 0 1 .78.77z"/><path d="m614.37 724.66h-51.69a32.81 32.81 0 0 0 -32.78 32.77v47.5a32.82 32.82 0 0 0 32.78 32.78h51.69a32.82 32.82 0 0 0 32.78-32.78v-47.5a32.81 32.81 0 0 0 -32.78-32.77zm.78 80.27a.84.84 0 0 1 -.78.78h-51.69a.84.84 0 0 1 -.78-.78v-47.5a.83.83 0 0 1 .78-.77h51.69a.83.83 0 0 1 .78.77z"/><path d="m437.32 724.66h-51.7a32.81 32.81 0 0 0 -32.77 32.77v47.5a32.81 32.81 0 0 0 32.77 32.78h51.7a32.81 32.81 0 0 0 32.77-32.78v-47.5a32.81 32.81 0 0 0 -32.77-32.77zm.77 80.27a.83.83 0 0 1 -.77.78h-51.7a.83.83 0 0 1 -.77-.78v-47.5a.82.82 0 0 1 .77-.77h51.7a.82.82 0 0 1 .77.77z"/><path d="m260.27 724.66h-51.69a32.81 32.81 0 0 0 -32.78 32.77v47.5a32.82 32.82 0 0 0 32.78 32.78h51.69a32.81 32.81 0 0 0 32.73-32.78v-47.5a32.81 32.81 0 0 0 -32.73-32.77zm.77 80.27a.83.83 0 0 1 -.77.78h-51.69a.83.83 0 0 1 -.78-.78v-47.5a.82.82 0 0 1 .78-.77h51.69a.82.82 0 0 1 .77.77z"/><path d="m916 343.68a16 16 0 0 1 -16 16h-800a16 16 0 0 1 0-32h800a16 16 0 0 1 16 16z"/><path d="m740 84a46.06 46.06 0 0 0 -46 46v130a46 46 0 0 0 92 0v-130a46.06 46.06 0 0 0 -46-46zm14 176a14 14 0 0 1 -28 0v-130a14 14 0 0 1 28 0z"/><path d="m580 84a46.06 46.06 0 0 0 -46 46v130a46 46 0 0 0 92 0v-130a46.06 46.06 0 0 0 -46-46zm14 176a14 14 0 0 1 -28 0v-130a14 14 0 0 1 28 0z"/><path d="m420 84a46.06 46.06 0 0 0 -46 46v130a46 46 0 0 0 92 0v-130a46.06 46.06 0 0 0 -46-46zm14 176a14 14 0 0 1 -28 0v-130a14 14 0 0 1 28 0z"/><path d="m260 84a46.06 46.06 0 0 0 -46 46v130a46 46 0 0 0 92 0v-130a46.06 46.06 0 0 0 -46-46zm14 176a14 14 0 0 1 -28 0v-130a14 14 0 0 1 28 0z"/></g></svg>