<svg id="calendar" viewBox="0 0 64 64" xmlns="http://www.w3.org/2000/svg"><path d="m13 59c0 1.10457.89543 2 2 2h42c1.10457 0 2-.89543 2-2v-35h-46z" fill="#454545"/><rect fill="#b2163c" height="16" rx="2" width="50" x="11" y="8"/><path d="m59 8h-6.82666c-.29944 15.29401-29.28851 12.59412-41.17334 10.84155v3.15845c0 1.10455.89545 2 2 2h46c1.10455 0 2-.89545 2-2v-12c0-1.10461-.89545-2-2-2z" fill="#961333"/><rect fill="#e8e4dc" height="14" rx="3" width="8" x="17" y="3"/><path d="m13 57h34c4.41828 0 8-3.58172 8-8v-25h-42z" fill="#e8e4dc"/><path d="m22 3v8c0 1.65686-1.34314 3-3 3h-2c0 1.65686 1.34314 3 3 3h2c1.65686 0 3-1.34314 3-3v-8c0-1.65686-1.34314-3-3-3z" fill="#ded9d0"/><path d="m48.32233 24c1.27393 22.33295-22.97363 20.78534-35.32233 18.57336v14.42664h34c4.41827 0 8-3.58173 8-8v-25z" fill="#ded9d0"/><path d="m11 57c-4.41828 0-8-3.58172-8-8h36c0 4.41828 3.58172 8 8 8z" fill="#e8e4dc"/><path d="m39 49h-4c0 2.20911-1.79083 4-4 4h-26.92102c1.38385 2.38892 3.96161 4 6.92102 4h36c-4.41827 0-8-3.58173-8-8z" fill="#ded9d0"/><rect fill="#e8e4dc" height="14" rx="3" width="8" x="47" y="3"/><path d="m52 3v8c0 1.65686-1.34314 3-3 3h-2c0 1.65686 1.34314 3 3 3h2c1.65686 0 3-1.34314 3-3v-8c0-1.65686-1.34314-3-3-3z" fill="#ded9d0"/><path d="m59 7h-3v-1c0-2.20557-1.79443-4-4-4h-2c-2.20557 0-4 1.79443-4 4v1h-20v-1c0-2.20557-1.79443-4-4-4h-2c-2.20557 0-4 1.79443-4 4v1h-3c-1.6543 0-3 1.3457-3 3v12c0 1.30194.8385 2.40155 2 2.81567v23.18433h-9c-.55225 0-1 .44775-1 1 0 4.9624 4.0376 9 9 9h1v1c0 1.6543 1.3457 3 3 3h42c1.6543 0 3-1.3457 3-3v-34.18427c1.1615-.41412 2-1.51379 2-2.81573v-12c0-1.6543-1.3457-3-3-3zm-11-1c0-1.10303.89697-2 2-2h2c1.10303 0 2 .89697 2 2v8c0 1.10303-.89697 2-2 2h-2c-1.10303 0-2-.89697-2-2zm-30 0c0-1.10303.89697-2 2-2h2c1.10303 0 2 .89697 2 2v8c0 1.10303-.89697 2-2 2h-2c-1.10303 0-2-.89697-2-2zm-4 19h40v24c0 3.85986-3.14014 7-7 7s-7-3.14014-7-7c0-.55225-.44775-1-1-1h-25zm-9.92871 25h33.98389c.26855 2.41602 1.49658 4.54639 3.29395 6h-30.34913c-3.52051 0-6.44189-2.6123-6.92871-6zm53.92871 9c0 .55127-.44873 1-1 1h-42c-.55127 0-1-.44873-1-1v-1h33c4.9624 0 9-4.0376 9-9v-24h2zm2-37c0 .55127-.44873 1-1 1h-46c-.55127 0-1-.44873-1-1v-12c0-.55127.44873-1 1-1h3v5c0 2.20557 1.79443 4 4 4h2c2.20557 0 4-1.79443 4-4v-5h20v5c0 2.20557 1.79443 4 4 4h2c2.20557 0 4-1.79443 4-4v-5h3c.55127 0 1 .44873 1 1z" fill="#490b2b"/><path d="m34 32 8-3-1 3 8-1-5 6 2 1-6 3 6 4h-10l-9-2 2-4-7-4 9-7z" fill="#ffa63b"/><path d="m44 37 5-6-5.33319.66663c-4.42969 8.203-10.83032 9.71942-15.70471 9.40918l-.9621 1.92419 9 2h10l-6-4 6-3z" fill="#fe9000"/><path d="m49.87744 30.52051c-.19678-.36084-.59912-.56348-1.00146-.5127l-6.42529.80322.49805-1.49463c.12207-.36572.02295-.76904-.25488-1.03662-.27734-.26758-.68506-.34961-1.04492-.21631l-7.29834 2.7373-2.55078-3.40088c-.16064-.21436-.40137-.35547-.66699-.39111-.26807-.03564-.53516.0376-.74658.20166l-9 7c-.26367.20508-.40723.52783-.38379.86035.02393.33301.21191.63184.50146.79736l4.84497 2.76862c-4.96991 2.11932-7.8175 4.45215-7.98901 4.59515-.42383.35303-.48145.98291-.12842 1.40723.19775.23779.48242.36035.76953.36035.2251 0 .45166-.07568.63818-.23047.03967-.03308 2.76355-2.25494 7.49951-4.28241l-1.0332 2.0661c-.1377.27539-.14062.59912-.0083.87695.13232.27832.38525.47949.68604.54639l9 2c.07129.01611.14404.02393.2168.02393h10c.44043 0 .82959-.28857.95703-.71045.12793-.42139-.03564-.87695-.40234-1.12158l-4.56641-3.04395 4.45898-2.22949c.33887-.16943.55273-.51562.55273-.89453s-.21387-.7251-.55273-.89453l-.87061-.43506 4.19141-5.03027c.26318-.31543.30615-.75928.10938-1.11963zm-6.64551 5.83936c-.1958.23486-.27344.5459-.21094.84473.0625.29932.2583.55322.53174.68994l.21143.10547-4.21143 2.10547c-.31885.15967-.52881.47656-.55078.83252-.02197.35547.14697.69629.44336.89404l3.25195 2.16797h-6.5874l-7.64258-1.69824 1.42725-2.85449c.00403-.008.00317-.01685.00696-.0249 1.60754-.55487 3.37286-1.05756 5.2948-1.44189.5415-.1084.89258-.63525.78418-1.17676-.10791-.54102-.63184-.89111-1.17676-.78418-2.22595.44519-4.24225 1.03632-6.05658 1.68433l-4.95465-2.8313 7.01807-5.4585 2.38965 3.18604c.26562.35498.73291.49219 1.15088.33643l6.0376-2.26416-.3374 1.01123c-.1084.32617-.04248.68457.17529.9502.21826.26611.55469.40527.89746.3584l5.48535-.68555-3.37744 4.05322z" fill="#490b2b"/><g fill="#fff"><rect height="6" rx="1" width="2" x="16" y="27"/><circle cx="17" cy="36" r="1"/></g></svg>