<svg enable-background="new 0 0 32 32" viewBox="0 0 32 32" xmlns="http://www.w3.org/2000/svg"><g id="Grid" display="none"/><g id="bow_tie"/><g id="balloon_1_"/><g id="placeholder"/><g id="mic"/><g id="speaker"/><g id="champagne"/><g id="gift"/><g id="theater"/><g id="_camera"/><g id="video_camera"/><g id="party_hat"/><g id="champagne_glass"/><g id="man"><path d="m25.332 30h-18.667c-2.062 0-3.733-1.671-3.733-3.733v-18.667c0-2.062 1.671-3.733 3.733-3.733h18.667c2.062 0 3.733 1.671 3.733 3.733v18.667c0 2.062-1.671 3.733-3.733 3.733z" fill="#efefef"/><path d="m29.068 10.92v15.35c0 2.06-1.67 3.73-3.74 3.73h-3.93c2.06 0 3.73-1.67 3.73-3.73v-15.35z" fill="#ddd"/><path d="m29.065 7.6v3.323h-26.133v-3.323c0-2.063 1.671-3.733 3.733-3.733h18.667c2.062 0 3.733 1.67 3.733 3.733z" fill="#e96565"/><path d="m29.068 7.6v3.32h-3.94v-3.32c0-2.06-1.67-3.73-3.73-3.73h3.93c2.07 0 3.74 1.67 3.74 3.73z" fill="#e05353"/><path d="m18.143 20.461 1.875-1.875c.592-.592.592-1.551 0-2.143s-1.551-.592-2.143 0l-1.875 1.876-1.875-1.875c-.592-.592-1.551-.592-2.143 0s-.592 1.551 0 2.143l1.875 1.875-1.875 1.875c-.592.592-.592 1.551 0 2.143.296.296.684.444 1.071.444s.775-.148 1.071-.444l1.876-1.876 1.875 1.875c.296.296.684.444 1.071.444.388 0 .775-.148 1.071-.444.592-.592.592-1.551 0-2.143z" fill="#e96565"/><path d="m10.068 6.986c-.757 0-1.371-.614-1.371-1.371v-2.244c0-.757.614-1.371 1.371-1.371.757 0 1.371.614 1.371 1.371v2.245c0 .757-.614 1.37-1.371 1.37z" fill="#ffd731"/><path d="m21.929 6.986c-.757 0-1.371-.614-1.371-1.371v-2.244c0-.757.614-1.371 1.371-1.371.757 0 1.371.614 1.371 1.371v2.245c0 .757-.614 1.37-1.371 1.37z" fill="#ffd731"/><path d="m25.33 3.445h-1.605v-.074c0-.99-.806-1.796-1.796-1.796s-1.796.806-1.796 1.796v.074h-8.27v-.074c0-.99-.806-1.796-1.796-1.796s-1.795.806-1.795 1.796v.074h-1.612c-2.291 0-4.155 1.863-4.155 4.154v18.67c0 2.291 1.864 4.155 4.155 4.155h18.67c2.291 0 4.154-1.864 4.154-4.155v-18.669c0-2.291-1.863-4.155-4.154-4.155zm-4.348-.074c0-.521.425-.946.946-.946s.946.425.946.946v2.244c0 .521-.425.946-.946.946s-.946-.425-.946-.946zm-11.86 0c0-.521.424-.946.945-.946s.946.425.946.946v2.244c0 .521-.425.946-.946.946s-.945-.424-.945-.946zm-2.462.924h1.612v1.32c0 .99.805 1.796 1.795 1.796s1.796-.806 1.796-1.796v-1.32h8.27v1.32c0 .99.806 1.796 1.796 1.796s1.796-.806 1.796-1.796v-1.32h1.605c1.822 0 3.305 1.482 3.305 3.305v2.898h-25.281v-2.898c0-1.823 1.484-3.305 3.306-3.305zm18.67 25.28h-18.67c-1.822 0-3.306-1.483-3.306-3.306v-14.921h25.28v14.922c.001 1.822-1.482 3.305-3.304 3.305z"/><path d="m4.742 7.771c.019.003.037.004.057.004.209 0 .392-.155.42-.369.067-.507.404-.948.879-1.15.217-.092.317-.341.225-.557-.092-.218-.344-.318-.557-.225-.75.318-1.282 1.016-1.389 1.82-.031.232.133.446.365.477z" fill="#ff9292"/><path d="m4.781 9.474c.234 0 .425-.216.425-.45s-.19-.425-.425-.425-.425.19-.425.425v.05c0 .234.191.4.425.4z" fill="#ff9292"/><path d="m20.318 16.145c-.732-.734-2.012-.733-2.744-.001l-1.574 1.574-1.574-1.573c-.732-.734-2.012-.733-2.744-.001-.756.757-.756 1.987 0 2.744l1.574 1.573-1.574 1.574c-.756.757-.756 1.987 0 2.744.734.732 2.01.732 2.744 0l1.574-1.575 1.574 1.575c.367.366.854.568 1.372.568s1.005-.202 1.372-.568c.756-.757.756-1.987 0-2.744l-1.574-1.574 1.574-1.573c.756-.757.756-1.988 0-2.743zm-.601 2.141-1.875 1.874c-.079.08-.124.188-.124.301s.045.221.124.301l1.875 1.875c.425.425.425 1.116 0 1.541-.412.412-1.129.412-1.541 0l-1.875-1.875c-.083-.083-.192-.124-.301-.124s-.218.041-.301.124l-1.875 1.875c-.412.412-1.129.412-1.541 0-.425-.425-.425-1.116 0-1.541l1.875-1.875c.079-.08.124-.188.124-.301s-.045-.221-.124-.301l-1.875-1.874c-.425-.425-.425-1.116 0-1.542.412-.412 1.129-.413 1.541.001l1.875 1.874c.166.166.436.166.602 0l1.875-1.875c.412-.412 1.129-.413 1.541.001.425.425.425 1.116 0 1.541z"/></g><g id="woman"/><g id="skewer"/><g id="ticket"/><g id="cake"/><g id="lights"/><g id="photo"/><g id="invitation"/></svg>