<svg enable-background="new 0 0 32 32" viewBox="0 0 32 32" xmlns="http://www.w3.org/2000/svg"><g id="Grid" display="none"/><g id="bow_tie"/><g id="balloon_1_"/><g id="placeholder"/><g id="mic"/><g id="speaker"/><g id="champagne"/><g id="gift"/><g id="theater"/><g id="_camera"><path d="m30 12.379v12.771c0 1.657-1.343 3-3 3h-22c-1.657 0-3-1.343-3-3v-12.771c0-1.482 1.085-2.753 2.551-2.969 1.419-.209 2.787-.37 4.094-.49.205-.019.374-.155.435-.352.159-.508.348-1.116.529-1.7.459-1.479 1.734-2.544 3.264-2.778 1.043-.159 2.085-.24 3.127-.24s2.084.081 3.126.24c1.531.234 2.805 1.299 3.264 2.778.181.584.37 1.192.529 1.7.061.197.23.333.436.352 1.307.12 2.675.281 4.094.49 1.466.216 2.551 1.486 2.551 2.969z" fill="#72d98b"/><path d="m30 12.38v2.18h-3.52v-2.49c0-1.38-.87-2.59-2.13-3.05 1 .1 2.03.23 3.1.39 1.47.22 2.55 1.49 2.55 2.97z" fill="#5fc174"/><path d="m26.48 21.83h3.52v3.32c0 1.66-1.34 3-3 3h-1.41c.56-.58.89-1.37.89-2.22z" fill="#5fc174"/><path d="m2 14.563h28v7.27h-28z" fill="#ffd731"/><path d="m26.48 14.56h3.52v7.27h-3.52z" fill="#ffc933"/><path d="m18.671 8.06c-.052 0-.104-.004-.156-.012-1.666-.263-3.363-.263-5.029 0-.549.084-1.057-.287-1.144-.832-.086-.546.287-1.058.833-1.144 1.871-.295 3.779-.295 5.65 0 .546.086.919.598.833 1.144-.078.493-.503.844-.987.844z" fill="#3a3a3a"/><circle cx="16" cy="18.198" fill="#efefef" r="7.656"/><path d="m23.66 18.2c0 4.23-3.43 7.65-7.66 7.65-1.77 0-3.4-.6-4.7-1.62.66.19 1.36.29 2.08.29 4.22 0 7.65-3.43 7.65-7.66 0-2.45-1.16-4.64-2.96-6.04 3.22.9 5.59 3.87 5.59 7.38z" fill="#ddd"/><circle cx="16" cy="18.198" fill="#83dcff" r="5.344"/><path d="m21.34 18.2c0 2.95-2.39 5.34-5.34 5.34-.85 0-1.66-.2-2.37-.56 3.01-.17 5.4-2.66 5.4-5.72 0-1.71-.75-3.25-1.94-4.3 2.43.5 4.25 2.66 4.25 5.24z" fill="#7acfea"/><path d="m27.51 8.989c-1.358-.2-2.743-.366-4.185-.548l-.528-1.699c-.507-1.632-1.889-2.809-3.607-3.072-2.129-.326-4.252-.326-6.381 0-1.718.262-3.1 1.439-3.606 3.071l-.598 1.756c-1.372.127-2.756.292-4.115.492-1.662.245-2.915 1.702-2.915 3.39v12.771c0 1.889 1.536 3.425 3.425 3.425h22c1.889 0 3.425-1.536 3.425-3.425v-12.771c0-1.688-1.253-3.145-2.915-3.39zm-25.085 5.996h6.164c-.429.986-.67 2.071-.67 3.213 0 1.14.24 2.223.667 3.208h-6.161zm6.344 3.213c0-3.987 3.244-7.231 7.231-7.231s7.231 3.244 7.231 7.231-3.244 7.231-7.231 7.231-7.231-3.244-7.231-7.231zm14.642-3.213h6.164v6.42h-6.161c.427-.984.667-2.068.667-3.208 0-1.141-.241-2.227-.67-3.212zm-18.798-5.155c1.345-.198 2.714-.362 4.069-.487.375-.034.69-.288.803-.648l.53-1.701c.409-1.319 1.529-2.271 2.923-2.484 1.023-.156 2.052-.235 3.062-.235s2.039.08 3.062.235c1.394.213 2.514 1.165 2.923 2.484l.53 1.701c.112.36.428.614.802.648 1.356.125 2.726.289 4.07.487 1.247.184 2.188 1.28 2.188 2.549v1.756h-6.601c-1.403-2.399-4-4.019-6.974-4.019s-5.571 1.619-6.974 4.019h-6.601v-1.756c0-1.269.941-2.365 2.188-2.549zm22.387 17.895h-22c-1.42 0-2.575-1.155-2.575-2.575v-2.895h6.598c1.402 2.402 4.001 4.024 6.978 4.024s5.575-1.622 6.978-4.024h6.598v2.895c-.002 1.42-1.157 2.575-2.577 2.575z"/><path d="m8.685 11.199c.015 0 .029 0 .044-.002l.124-.012c.234-.021.406-.228.385-.462s-.245-.397-.461-.385l-.134.013c-.233.024-.403.232-.38.466.022.22.207.382.422.382z" fill="#b0f4bc"/><path d="m4.06 12.14c.134 0 .265-.063.348-.18.115-.165.285-.271.476-.299.694-.102 1.396-.195 2.1-.278.233-.027.399-.239.372-.472s-.242-.399-.472-.372c-.711.084-1.421.178-2.124.281-.418.062-.8.299-1.047.651-.135.192-.089.458.104.592.073.052.158.077.243.077z" fill="#b0f4bc"/><path d="m13.552 8.468c1.625-.257 3.271-.257 4.896 0 .075.012.149.017.223.017.705 0 1.297-.505 1.407-1.203.122-.776-.41-1.507-1.187-1.629-1.92-.302-3.865-.302-5.783 0-.776.123-1.309.854-1.187 1.63.124.773.861 1.307 1.631 1.185zm-.311-1.976c1.83-.289 3.688-.289 5.518 0 .313.049.529.344.479.657-.045.281-.283.486-.567.486l-.09-.007c-.856-.135-1.719-.203-2.581-.203s-1.724.068-2.579.203c-.324.045-.608-.162-.659-.478-.05-.314.166-.608.479-.658z"/><path d="m16 23.966c3.181 0 5.769-2.588 5.769-5.769s-2.588-5.768-5.769-5.768-5.769 2.588-5.769 5.769 2.588 5.768 5.769 5.768zm0-10.687c2.712 0 4.919 2.207 4.919 4.919s-2.207 4.919-4.919 4.919-4.919-2.207-4.919-4.919 2.207-4.919 4.919-4.919z"/><path d="m12.704 16.962c.063.033.13.048.196.048.153 0 .301-.083.377-.229.351-.672.934-1.189 1.641-1.456.22-.083.33-.328.247-.548-.083-.219-.324-.329-.548-.247-.902.341-1.646 1-2.094 1.857-.108.21-.028.467.181.575z" fill="#c2f4ff"/></g><g id="video_camera"/><g id="party_hat"/><g id="champagne_glass"/><g id="man"/><g id="woman"/><g id="skewer"/><g id="ticket"/><g id="cake"/><g id="lights"/><g id="photo"/><g id="invitation"/></svg>