<svg id="Capa_1" enable-background="new 0 0 512 512" height="512" viewBox="0 0 512 512" width="512" xmlns="http://www.w3.org/2000/svg"><g><g><path d="m416.227 489.836h-320.454c-47.322 0-85.684-38.362-85.684-85.684v-150.925c0-47.322 38.362-85.684 85.684-85.684h320.455c47.322 0 85.684 38.362 85.684 85.684v150.925c-.001 47.322-38.363 85.684-85.685 85.684z" fill="#ffe266"/><path d="m416.227 167.544h-41.266c28.234 0 51.122 22.888 51.122 51.121v164.148c0 28.234-22.888 51.122-51.122 51.122h-313.75c-28.234 0-51.122-22.888-51.122-51.122v21.34c0 47.322 38.362 85.684 85.683 85.684h320.455c47.322 0 85.684-38.362 85.684-85.684v-150.926c0-47.322-38.362-85.683-85.684-85.683z" fill="#efaa66"/><ellipse cx="94.529" cy="287.283" fill="#ef8bbd" rx="38.208" ry="38.209" transform="matrix(.928 -.374 .374 .928 -100.564 56.185)"/><path d="m420.636 263.546h-58.141c-8.499 0-15.388-6.889-15.388-15.388v-26.042c0-8.499 6.889-15.388 15.388-15.388h58.141c8.498 0 15.388 6.889 15.388 15.388v26.042c0 8.498-6.889 15.388-15.388 15.388z" fill="#fff"/><path d="m276.836 263.546h-41.672c-8.799 0-15.931-7.133-15.931-15.931v-24.955c0-8.799 7.133-15.931 15.931-15.931h41.672c8.799 0 15.931 7.133 15.931 15.931v24.955c0 8.798-7.133 15.931-15.931 15.931z" fill="#b2e7f1"/><path d="m10.089 378.034v26.119c0 47.321 38.362 85.683 85.684 85.683h320.455c47.322 0 85.684-38.362 85.684-85.683v-26.119z" fill="#8bb6ef"/><path d="m426.083 382.813c0 28.234-22.888 51.122-51.122 51.122h-313.75c-28.234 0-51.122-22.888-51.122-51.122v21.339c0 4.437.337 8.795.987 13.049 6.284 41.128 41.811 72.635 84.696 72.635h320.455c42.885 0 78.412-31.506 84.696-72.635.65-4.254.987-8.612.987-13.049v-26.119h-75.828v4.78z" fill="#8388ef"/><ellipse cx="256" cy="378.638" fill="#a183e2" rx="61.507" ry="61.507" transform="matrix(.707 -.707 .707 .707 -192.757 291.92)"/></g><g><g fill="#440a29"><path d="m416.227 157.455h-320.454c-52.81 0-95.773 42.963-95.773 95.772v150.925c0 52.81 42.963 95.773 95.773 95.773h320.454c52.81 0 95.773-42.964 95.773-95.773v-150.925c0-52.809-42.963-95.772-95.773-95.772zm-320.454 20.178h320.454c41.683 0 75.595 33.911 75.595 75.594v115.322h-164.95c-4.92-34.716-34.819-61.507-70.872-61.507s-65.952 26.791-70.872 61.507h-164.95v-115.322c0-41.683 33.912-75.594 75.595-75.594zm211.645 201.005c0 28.352-23.066 51.418-51.418 51.418s-51.418-23.066-51.418-51.418c0-28.351 23.066-51.417 51.418-51.417s51.418 23.066 51.418 51.417zm108.809 101.109h-320.454c-41.683 0-75.594-33.912-75.594-75.595v-15.424h164.95c4.92 34.716 34.819 61.507 70.872 61.507s65.952-26.791 70.872-61.507h164.95v15.424c-.001 41.683-33.913 75.595-75.596 75.595z"/><path d="m94.529 331.545c24.406 0 44.262-19.856 44.262-44.262s-19.856-44.261-44.262-44.261-44.262 19.855-44.262 44.261 19.856 44.262 44.262 44.262zm0-76.416c17.73 0 32.155 14.424 32.155 32.154 0 17.731-14.424 32.155-32.155 32.155-17.73 0-32.155-14.424-32.155-32.155 0-17.73 14.425-32.154 32.155-32.154z"/><path d="m362.496 269.599h58.14c11.823 0 21.441-9.618 21.441-21.441v-26.042c0-11.823-9.619-21.441-21.441-21.441h-58.14c-11.823 0-21.442 9.618-21.442 21.441v26.042c0 11.823 9.619 21.441 21.442 21.441zm-9.335-47.483c0-5.147 4.187-9.334 9.335-9.334h58.14c5.147 0 9.335 4.187 9.335 9.334v26.042c0 5.147-4.187 9.335-9.335 9.335h-58.14c-5.147 0-9.335-4.187-9.335-9.335z"/><path d="m235.164 269.599h41.672c12.122 0 21.985-9.863 21.985-21.985v-24.954c0-12.123-9.863-21.985-21.985-21.985h-41.672c-12.122 0-21.985 9.862-21.985 21.985v24.954c0 12.123 9.863 21.985 21.985 21.985zm-9.878-46.939c0-5.447 4.431-9.878 9.878-9.878h41.672c5.447 0 9.878 4.432 9.878 9.878v24.954c0 5.447-4.431 9.878-9.878 9.878h-41.672c-5.447 0-9.878-4.432-9.878-9.878z"/><circle cx="256" cy="378.638" r="20.139"/></g><path d="m138.987 221.192c-5.561 0-10.076-4.502-10.089-10.066-.013-5.573 4.494-10.1 10.066-10.113 11.15-.026 22.145-.026 33.615 0 5.572.013 10.079 4.54 10.066 10.112-.012 5.564-4.527 10.066-10.089 10.066-.008 0-.015 0-.023 0-11.438-.026-22.403-.026-33.523 0-.008.001-.015.001-.023.001z" fill="#fff"/><path d="m90.014 221.192h-9.733c-5.572 0-10.089-4.517-10.089-10.089s4.517-10.089 10.089-10.089h9.733c5.572 0 10.089 4.518 10.089 10.089s-4.516 10.089-10.089 10.089z" fill="#fff"/></g><g><g fill="#fef2a8"><path d="m410.77 14.544 8.288 23.304c.355.998 1.057 1.788 1.944 2.188l20.704 9.328c2.925 1.318 2.925 5.978 0 7.296l-20.704 9.328c-.887.399-1.589 1.19-1.944 2.188l-8.288 23.304c-1.171 3.292-5.311 3.292-6.482 0l-8.288-23.304c-.355-.998-1.057-1.788-1.944-2.188l-20.704-9.328c-2.925-1.318-2.925-5.978 0-7.296l20.704-9.328c.887-.4 1.589-1.19 1.944-2.188l8.288-23.304c1.171-3.292 5.311-3.292 6.482 0z"/><path d="m61.4 50.472 8.288 23.304c.355.998 1.057 1.788 1.944 2.188l20.704 9.328c2.925 1.318 2.925 5.978 0 7.296l-20.704 9.328c-.886.399-1.589 1.19-1.944 2.188l-8.288 23.303c-1.171 3.292-5.312 3.292-6.482 0l-8.288-23.304c-.355-.998-1.057-1.788-1.944-2.188l-20.704-9.328c-2.925-1.318-2.925-5.978 0-7.296l20.704-9.328c.886-.399 1.589-1.19 1.944-2.188l8.288-23.304c1.17-3.291 5.311-3.291 6.482.001z"/><path d="m278.543 65.414 6.148 17.286c.263.74.784 1.327 1.442 1.623l15.358 6.919c2.17.978 2.17 4.435 0 5.412l-15.358 6.919c-.658.296-1.179.883-1.442 1.623l-6.148 17.286c-.868 2.442-3.94 2.442-4.808 0l-6.148-17.286c-.263-.74-.784-1.327-1.442-1.623l-15.358-6.919c-2.17-.978-2.17-4.435 0-5.412l15.358-6.919c.658-.296 1.179-.883 1.442-1.623l6.148-17.286c.868-2.442 3.94-2.442 4.808 0z"/></g><ellipse cx="180.061" cy="48.003" fill="#ffe266" rx="18.097" ry="18.097" transform="matrix(.529 -.849 .849 .529 44.095 175.437)"/><path d="m465.615 109.209c0 4.311-3.495 7.806-7.806 7.806s-7.806-3.495-7.806-7.806 3.495-7.806 7.806-7.806 7.806 3.494 7.806 7.806z" fill="#ffe266"/></g></g></svg>