<svg id="Layer_1" viewBox="0 0 96 96" xmlns="http://www.w3.org/2000/svg" data-name="Layer 1"><path d="m82.93 78.25c-.75-1.09-1.98-1.74-3.3-1.74h-14.13v-45c0-.55-.45-1-1-1h-15.49l.04-3.06c1.35-.15 3.15-.63 4.78-2.02 2.68-2.3 2.96-5.47 3.08-6.83.29-3.16-.67-6.34-1.72-7.47-.49-.53-1.01-.62-1.29-.62-1.12.02-1.54 1.17-1.88 2.1-.05.13-.11.31-.17.47-.28-.63-.6-1.67-.83-2.43-.83-2.71-1.77-5.78-3.94-6.13-3.43-.56-6.86 6.33-7.71 11.32-.34 2.04-.78 4.58.68 7.16 1.38 2.45 4.07 4.13 7 4.44l-.04 3.07h-15.51c-.55 0-1 .45-1 1v45h-14.13c-1.32 0-2.55.65-3.3 1.74-.75 1.08-.91 2.47-.44 3.7l2.7 7c.59 1.53 2.09 2.56 3.73 2.56h57.88c1.64 0 3.14-1.03 3.73-2.56l2.7-7c.47-1.23.31-2.62-.44-3.7zm-41.14-56.23c-1.11-1.96-.75-4.02-.45-5.84.86-5.08 3.92-9.69 5.32-9.69.03 0 .06 0 .09.01.94.15 1.82 3.02 2.34 4.74.75 2.45 1.33 4.41 2.9 4.27 1.13-.09 1.56-1.27 1.9-2.22.04-.1.08-.22.13-.35.5.98 1.1 3.16.89 5.48-.11 1.21-.33 3.72-2.39 5.49-1.68 1.44-3.62 1.61-4.65 1.6-2.54-.05-4.93-1.42-6.09-3.49zm-9.29 10.49h31v8h-8.69c-1.89 0-3.54 1.34-3.91 3.2-.66 3.3-3.62 5.8-6.9 5.8s-6.24-2.5-6.9-5.81c-.37-1.85-2.02-3.19-3.91-3.19h-.69zm0 10h.69c.94 0 1.76.67 1.95 1.58.85 4.3 4.58 7.42 8.86 7.42s8.01-3.12 8.86-7.41c.19-.92 1.01-1.59 1.95-1.59h8.69v34h-31zm49 38.72-2.69 7c-.3.77-1.05 1.28-1.87 1.28h-57.88c-.82 0-1.57-.51-1.87-1.28l-2.69-7c-.24-.63-.16-1.3.22-1.85s.98-.87 1.65-.87h63.26c.67 0 1.27.32 1.65.87s.46 1.22.22 1.85z"/><path d="m54.92 18.42c-.11 1.21-.33 3.72-2.39 5.49-1.68 1.44-3.62 1.61-4.65 1.6-2.54-.05-4.93-1.42-6.09-3.49-1.11-1.96-.75-4.02-.45-5.84.86-5.08 3.92-9.69 5.32-9.69.03 0 .06 0 .09.01.94.15 1.82 3.02 2.34 4.74.75 2.45 1.33 4.41 2.9 4.27 1.13-.09 1.56-1.27 1.9-2.22.04-.1.08-.22.13-.35.5.98 1.1 3.16.89 5.48z" fill="#ef5350"/><path d="m63.5 32.51v8h-8.69c-1.89 0-3.54 1.34-3.91 3.2-.66 3.3-3.62 5.8-6.9 5.8s-6.24-2.5-6.9-5.81c-.37-1.85-2.02-3.19-3.91-3.19h-.69v-8z" fill="#ffa726"/><path d="m63.5 42.51v34h-31v-34h.69c.94 0 1.76.67 1.95 1.58.85 4.3 4.58 7.42 8.86 7.42s8.01-3.12 8.86-7.41c.19-.92 1.01-1.59 1.95-1.59z" fill="#ffee58"/><path d="m81.5 81.23-2.69 7c-.3.77-1.05 1.28-1.87 1.28h-57.88c-.82 0-1.57-.51-1.87-1.28l-2.69-7c-.24-.63-.16-1.3.22-1.85s.98-.87 1.65-.87h63.26c.67 0 1.27.32 1.65.87s.46 1.22.22 1.85z" fill="#795548"/></svg>