<svg id="Capa_1" enable-background="new 0 0 512 512" viewBox="0 0 512 512" xmlns="http://www.w3.org/2000/svg"><g><g><g><g><circle cx="392.879" cy="61" fill="#ffe177" r="26"/><path d="m225.563 174.185c.724.622 1.648.964 2.603.964s1.879-.342 2.604-.964l11.751-10.075c.363-.311.825-.481 1.303-.481.477 0 .939.171 1.302.481l11.751 10.076c.323.277.691.489 1.078.649 4.295-4.637 6.923-10.84 6.923-17.659 0-14.359-11.641-26-26-26s-26 11.641-26 26c0 2.406.334 4.734.946 6.945z" fill="#80d261"/><path d="m264.879 157.176c0-12.136-8.315-22.329-19.559-25.195 1.49 3.33 2.329 7.014 2.329 10.898 0 14.762-11.967 26.729-26.729 26.729-.243 0-.482-.017-.723-.023l5.367 4.601c.724.622 1.648.964 2.603.964s1.879-.342 2.604-.964l11.751-10.075c.363-.311.825-.481 1.303-.481.477 0 .939.171 1.302.481l11.751 10.076c.323.277.691.489 1.078.649 4.294-4.638 6.923-10.841 6.923-17.66z" fill="#68ca44"/><path d="m292.748 173.25 11.751-10.076c1.124-.963 2.782-.963 3.905 0l20.764 17.803c.665.57 1.047 1.402 1.047 2.277v268.706c0 .673.226 1.327.643 1.856l10.378 13.184c.416.529.643 1.182.643 1.856v32.644c0 1.657-1.343 3-3 3h-221.425c-1.657 0-3-1.343-3-3v-32.645c0-.673.226-1.327.643-1.856l10.377-13.183c.416-.529.643-1.182.643-1.856v-268.705c0-.876.383-1.708 1.047-2.277l20.764-17.803c1.124-.963 2.782-.963 3.906 0l11.752 10.076c1.124.963 2.782.963 3.905 0l11.752-10.076c1.124-.963 2.782-.963 3.905 0l11.752 10.076c1.124.963 2.782.963 3.905 0l11.752-10.076c1.124-.963 2.782-.963 3.905 0l11.752 10.076c1.124.963 2.782.963 3.905 0l11.752-10.076c1.124-.963 2.782-.963 3.905 0l11.752 10.076c1.124.963 2.782.963 3.905 0l11.752-10.076c1.124-.963 2.782-.963 3.905 0l11.752 10.076c1.124.963 2.782.963 3.906-.001z" fill="#fe646f"/><path d="m292.748 173.25 11.751-10.076c1.124-.963 2.782-.963 3.905 0l20.764 17.803c.665.57 1.047 1.402 1.047 2.277v268.706c0 .673.226 1.327.643 1.856l10.378 13.184c.416.529.643 1.182.643 1.856v32.644c0 1.657-1.343 3-3 3h-221.425c-1.657 0-3-1.343-3-3v-32.645c0-.673.226-1.327.643-1.856l10.377-13.183c.416-.529.643-1.182.643-1.856v-268.705c0-.876.383-1.708 1.047-2.277l20.764-17.803c1.124-.963 2.782-.963 3.906 0l11.752 10.076c1.124.963 2.782.963 3.905 0l11.752-10.076c1.124-.963 2.782-.963 3.905 0l11.752 10.076c1.124.963 2.782.963 3.905 0l11.752-10.076c1.124-.963 2.782-.963 3.905 0l11.752 10.076c1.124.963 2.782.963 3.905 0l11.752-10.076c1.124-.963 2.782-.963 3.905 0l11.752 10.076c1.124.963 2.782.963 3.905 0l11.752-10.076c1.124-.963 2.782-.963 3.905 0l11.752 10.076c1.124.963 2.782.963 3.906-.001z" fill="#fe646f"/><path d="m341.236 467-10.377-13.184c-.416-.529-.643-1.182-.643-1.855v-268.706c0-.876-.382-1.708-1.047-2.277l-20.764-17.803c-1.124-.963-2.782-.963-3.906 0l-10.307 8.837v281.844c0 8.284-6.716 15-15 15h-164.738v32.644c0 1.657 1.343 3 3 3h221.425c1.657 0 3-1.343 3-3v-32.645c0-.673-.227-1.326-.643-1.855z" fill="#fd4755"/><circle cx="299.879" cy="86" fill="#62dbfb" r="26"/><circle cx="393.879" cy="174" fill="#fe646f" r="26"/><path d="m400.492 148.851c1.606 3.379 2.508 7.159 2.508 11.149 0 14.359-11.641 26-26 26-2.286 0-4.501-.297-6.613-.851 4.174 8.78 13.123 14.851 23.492 14.851 14.359 0 26-11.641 26-26 0-12.074-8.231-22.223-19.387-25.149z" fill="#fd4755"/><path d="m306.492 60.851c1.606 3.379 2.508 7.159 2.508 11.149 0 14.359-11.641 26-26 26-2.286 0-4.501-.297-6.613-.851 4.174 8.78 13.123 14.851 23.492 14.851 14.359 0 26-11.641 26-26 0-12.074-8.231-22.223-19.387-25.149z" fill="#01d0fb"/><path d="m399.492 35.851c1.606 3.379 2.508 7.159 2.508 11.149 0 14.359-11.641 26-26 26-2.286 0-4.501-.297-6.613-.851 4.174 8.78 13.123 14.851 23.492 14.851 14.359 0 26-11.641 26-26 0-12.074-8.231-22.223-19.387-25.149z" fill="#ffd15b"/><circle cx="431.879" cy="272" fill="#80d261" r="26"/><ellipse cx="228.166" cy="313.932" fill="#fff" rx="67.834" ry="91.068"/><ellipse cx="228.166" cy="313.932" fill="#fff" rx="67.834" ry="91.068"/><path d="m259.813 233.368c6.866 14.236 10.854 31.205 10.854 49.427 0 50.296-30.37 91.068-67.834 91.068-11.43 0-22.198-3.801-31.646-10.505 12.085 25.059 33.089 41.642 56.979 41.642 37.464 0 67.834-40.773 67.834-91.068 0-34.95-14.668-65.296-36.187-80.564z" fill="#f2fbff"/><path d="m252.073 361.297c0-10.404 6.069-19.415 14.852-23.683-8.094-3.933-13.878-11.895-14.736-21.262-1.074.134-2.164.211-3.274.211-4.57 0-8.87-1.173-12.619-3.23-8.761 4.563-14.748 13.72-14.748 24.282 0 15.114 12.253 27.367 27.367 27.367 1.154 0 2.288-.08 3.404-.218-.154-1.141-.246-2.297-.246-3.467z" fill="#62dbfb"/><path d="m252.073 313.932c0-10.403 6.069-19.415 14.852-23.683-8.783-4.268-14.852-13.279-14.852-23.683 0-1.17.093-2.325.246-3.466-1.116-.139-2.25-.218-3.404-.218-15.114 0-27.367 12.253-27.367 27.367s12.253 27.367 27.367 27.367c1.15 0 2.281-.079 3.393-.217-.15-1.136-.235-2.291-.235-3.467z" fill="#fe646f"/><path d="m293.487 289.388c-4.08-19.61-12.909-36.561-24.74-48.437-10.357 3.9-17.727 13.895-17.727 25.615 0 15.114 12.253 27.367 27.367 27.367 5.582 0 10.771-1.675 15.1-4.545z" fill="#fe9738"/><path d="m268.747 240.951c-1.677.631-3.265 1.438-4.766 2.37 4.285 11.942 6.687 25.332 6.687 39.475 0 3.35-.139 6.656-.401 9.912 2.566.796 5.293 1.226 8.121 1.226 5.582 0 10.772-1.675 15.1-4.545-4.081-19.611-12.91-36.562-24.741-48.438z" fill="#fe860a"/><path d="m278.387 333.931c-15.114 0-27.367 12.253-27.367 27.367 0 11.721 7.37 21.716 17.727 25.615 11.831-11.876 20.659-28.827 24.74-48.437-4.329-2.87-9.518-4.545-15.1-4.545z" fill="#68ca44"/><path d="m251.02 313.932c0 15.114 12.253 27.367 27.367 27.367 5.762 0 11.105-1.785 15.515-4.826 1.367-7.209 2.098-14.76 2.098-22.541s-.73-15.332-2.098-22.541c-4.41-3.041-9.753-4.826-15.515-4.826-15.114 0-27.367 12.253-27.367 27.367z" fill="#ffe177"/><path d="m293.902 291.391c-4.41-3.041-9.753-4.826-15.515-4.826-2.718 0-5.34.402-7.818 1.14-.668 16.878-4.759 32.535-11.358 45.745 4.938 4.852 11.706 7.848 19.176 7.848 5.762 0 11.105-1.785 15.515-4.826 1.368-7.209 2.098-14.76 2.098-22.541 0-7.78-.73-15.331-2.098-22.54z" fill="#ffd15b"/></g><path d="m438.492 246.851c1.606 3.379 2.508 7.159 2.508 11.149 0 14.359-11.641 26-26 26-2.286 0-4.501-.297-6.613-.851 4.174 8.78 13.123 14.851 23.492 14.851 14.359 0 26-11.641 26-26 0-12.074-8.231-22.223-19.387-25.149z" fill="#68ca44"/></g><g><path d="m106.871 151.582-1.185 15.434c-.113 1.476-1.286 2.648-2.762 2.762l-27.271 2.093c-.873.067-1.732-.251-2.351-.87l-18.302-18.303c-1.172-1.172-1.172-3.071 0-4.243l140.077-140.076c1.172-1.172 3.071-1.172 4.243 0l18.303 18.303c.619.619.937 1.478.87 2.351l-2.093 27.271c-.113 1.476-1.286 2.648-2.762 2.762l-15.435 1.185c-1.476.113-2.648 1.286-2.762 2.762l-1.185 15.435c-.113 1.476-1.286 2.648-2.762 2.762l-15.435 1.185c-1.476.113-2.648 1.286-2.762 2.762l-1.185 15.435c-.113 1.476-1.286 2.648-2.762 2.762l-15.435 1.185c-1.476.113-2.648 1.286-2.762 2.762l-1.185 15.435c-.113 1.476-1.286 2.648-2.762 2.762l-15.435 1.185c-1.476.113-2.648 1.286-2.762 2.762l-1.185 15.435c-.113 1.476-1.286 2.648-2.762 2.762l-15.435 1.185c-1.47.107-2.643 1.279-2.756 2.755z" fill="#fe646f"/><path d="m212.553 21.612-123.559 123.56c-3.905 3.905-10.237 3.905-14.142 0l-8.284-8.284-11.568 11.568c-1.172 1.172-1.172 3.071 0 4.243l18.303 18.303c.619.619 1.478.937 2.351.87l27.271-2.093c1.476-.113 2.648-1.286 2.761-2.762l1.185-15.434c.113-1.476 1.286-2.648 2.762-2.762l15.435-1.185c1.476-.113 2.648-1.286 2.761-2.761l1.185-15.435c.113-1.476 1.286-2.648 2.761-2.762l15.435-1.185c1.476-.113 2.648-1.286 2.762-2.762l1.185-15.435c.113-1.476 1.286-2.648 2.762-2.762l15.434-1.185c1.476-.113 2.648-1.286 2.762-2.762l1.185-15.435c.113-1.476 1.286-2.648 2.762-2.762l15.435-1.185c1.476-.113 2.648-1.286 2.761-2.761l1.185-15.435c.113-1.476 1.286-2.648 2.761-2.762l15.435-1.185c1.476-.113 2.648-1.286 2.762-2.762l2.093-27.271c.067-.873-.251-1.732-.87-2.351z" fill="#fd4755"/></g></g><g><path d="m182.22 246.415c-3.429-2.326-8.093-1.433-10.417 1.995-12.232 18.027-18.97 41.296-18.97 65.521 0 25.929 7.583 50.389 21.354 68.875 14.262 19.148 33.433 29.693 53.979 29.693 20.548 0 39.718-10.545 53.98-29.693 13.771-18.486 21.354-42.946 21.354-68.875s-7.583-50.389-21.354-68.875c-14.263-19.148-33.434-29.693-53.98-29.693-9.6 0-18.954 2.319-27.805 6.894-3.68 1.902-5.121 6.427-3.22 10.106 1.902 3.681 6.43 5.116 10.106 3.22 6.701-3.464 13.738-5.22 20.918-5.22 10.054 0 19.534 3.443 27.879 9.493-4.931 4.148-8.652 9.596-10.705 15.709-17.552 1.796-31.292 16.665-31.292 34.684 0 9.145 3.544 17.474 9.324 23.699-5.888 6.366-9.324 14.799-9.324 23.667 0 18.019 13.74 32.888 31.292 34.684 2.054 6.113 5.774 11.56 10.705 15.708-8.345 6.05-17.825 9.492-27.879 9.492-33.268 0-60.333-37.488-60.333-83.568 0-21.253 5.817-41.531 16.382-57.1 2.327-3.426 1.433-8.09-1.994-10.416zm84.917 131.241c-5.286-3.658-8.616-9.763-8.616-16.358 0-5.798 2.57-11.276 6.881-15.017 4.016 1.618 8.397 2.518 12.985 2.518 1.583 0 3.149-.122 4.698-.331-3.718 11.296-9.193 21.25-15.948 29.188zm21.363-63.724c0 6.128-.492 12.098-1.401 17.855-2.698 1.322-5.662 2.013-8.713 2.013-10.954 0-19.866-8.912-19.866-19.867 0-10.954 8.912-19.866 19.866-19.866 3.051 0 6.015.69 8.713 2.012.909 5.755 1.401 11.724 1.401 17.853zm-5.415-34.535c-1.549-.209-3.115-.331-4.698-.331-4.589 0-8.969.9-12.985 2.518-4.311-3.74-6.881-9.219-6.881-15.017 0-6.595 3.33-12.701 8.617-16.358 6.754 7.937 12.23 17.891 15.947 29.188zm-39.267-8.327c.946 7.194 4.141 13.892 9.019 19.17-4.811 5.185-8.063 11.83-9.016 19.19-8.49-2.258-14.773-9.989-14.773-19.181 0-9.19 6.281-16.92 14.77-19.179zm-14.77 66.545c0-5.795 2.576-11.272 6.895-15.012 2.947 1.186 6.088 1.988 9.366 2.327 1.59 4.771 4.181 9.086 7.529 12.694-4.877 5.279-8.073 11.976-9.019 19.17-8.49-2.259-14.771-9.989-14.771-19.179z"/><path d="m159.166 457.5h138c4.143 0 7.5-3.357 7.5-7.5s-3.357-7.5-7.5-7.5h-138c-4.143 0-7.5 3.357-7.5 7.5s3.357 7.5 7.5 7.5z"/><path d="m337.716 450.402v-32.402c0-4.143-3.357-7.5-7.5-7.5s-7.5 3.357-7.5 7.5v33.961c0 2.346.799 4.652 2.249 6.494l9.414 11.959v26.586h-212.425v-26.586l9.413-11.958c1.451-1.843 2.25-4.149 2.25-6.495v-266.637l16.264-13.944 8.825 7.567c3.959 3.391 9.707 3.392 13.666-.003l8.822-7.564 8.826 7.567c3.959 3.391 9.707 3.392 13.666-.003l8.823-7.564 8.822 7.564c3.962 3.397 9.709 3.396 13.669 0l8.823-7.564 8.822 7.564c3.962 3.397 9.709 3.396 13.669 0l8.823-7.564 8.822 7.564c3.962 3.397 9.709 3.396 13.669 0l8.823-7.564 16.263 13.944v197.676c0 4.143 3.357 7.5 7.5 7.5s7.5-3.357 7.5-7.5v-199.745c0-3.065-1.334-5.969-3.665-7.971l-20.764-17.803c-3.959-3.397-9.71-3.396-13.669 0l-8.822 7.564-8.823-7.564c-2.752-2.361-6.368-3.077-9.647-2.156-.964-17.614-15.596-31.65-33.447-31.65-18.472 0-33.5 15.028-33.5 33.5 0 .182.012.365.015.547l-8.541 7.323-8.82-7.562c-3.961-3.398-9.711-3.398-13.672-.002l-8.822 7.564-8.822-7.564c-3.961-3.396-9.711-3.396-13.67 0l-20.769 17.807c-2.326 1.998-3.66 4.901-3.66 7.967v267.147l-9.417 11.963c-1.448 1.843-2.246 4.147-2.246 6.49v32.645c0 5.79 4.71 10.5 10.5 10.5h221.425c5.79 0 10.5-4.71 10.5-10.5v-32.645c0-2.343-.798-4.647-2.249-6.494zm-98.837-311.726c10.201 0 18.5 8.299 18.5 18.5 0 1.832-.289 3.637-.816 5.368l-5.905-5.062c-3.961-3.398-9.712-3.396-13.669 0l-8.822 7.564-7.721-6.62c-.029-.417-.067-.836-.067-1.25 0-10.201 8.299-18.5 18.5-18.5z"/><path d="m392.879 94.5c18.472 0 33.5-15.028 33.5-33.5s-15.028-33.5-33.5-33.5-33.5 15.028-33.5 33.5 15.028 33.5 33.5 33.5zm0-52c10.201 0 18.5 8.299 18.5 18.5s-8.299 18.5-18.5 18.5-18.5-8.299-18.5-18.5 8.299-18.5 18.5-18.5z"/><path d="m299.879 119.5c18.472 0 33.5-15.028 33.5-33.5s-15.028-33.5-33.5-33.5-33.5 15.028-33.5 33.5 15.028 33.5 33.5 33.5zm0-52c10.201 0 18.5 8.299 18.5 18.5s-8.299 18.5-18.5 18.5-18.5-8.299-18.5-18.5 8.299-18.5 18.5-18.5z"/><path d="m427.379 174c0-18.472-15.028-33.5-33.5-33.5s-33.5 15.028-33.5 33.5 15.028 33.5 33.5 33.5 33.5-15.028 33.5-33.5zm-33.5 18.5c-10.201 0-18.5-8.299-18.5-18.5s8.299-18.5 18.5-18.5 18.5 8.299 18.5 18.5-8.299 18.5-18.5 18.5z"/><path d="m431.879 238.5c-18.472 0-33.5 15.028-33.5 33.5s15.028 33.5 33.5 33.5 33.5-15.028 33.5-33.5-15.028-33.5-33.5-33.5zm0 52c-10.201 0-18.5-8.299-18.5-18.5s8.299-18.5 18.5-18.5 18.5 8.299 18.5 18.5-8.299 18.5-18.5 18.5z"/><path d="m113.164 167.586.89-11.588 11.588-.89c5.201-.398 9.267-4.464 9.665-9.665l.89-11.588 11.588-.89c5.201-.398 9.267-4.464 9.665-9.665l.89-11.588 11.588-.89c5.201-.398 9.267-4.464 9.665-9.665l.89-11.588 11.588-.89c5.201-.398 9.267-4.464 9.665-9.665l.89-11.588 11.588-.89c5.201-.398 9.267-4.464 9.665-9.665l2.093-27.269c.236-3.061-.873-6.061-3.043-8.231l-18.305-18.301c-4.095-4.093-10.754-4.095-14.851 0l-24.475 24.475c-2.929 2.93-2.929 7.678 0 10.607 2.93 2.928 7.678 2.928 10.607 0l21.292-21.293 13.657 13.657-1.639 21.361-11.588.89c-5.201.398-9.267 4.464-9.665 9.665l-.89 11.588-11.588.89c-5.201.398-9.267 4.464-9.665 9.665l-.89 11.588-11.588.89c-5.201.398-9.267 4.464-9.665 9.665l-.89 11.588-11.588.89c-5.201.398-9.267 4.464-9.665 9.665l-.89 11.588-11.588.89c-5.201.398-9.267 4.464-9.665 9.665l-.89 11.588-21.36 1.639-13.658-13.657 87.672-87.671c2.929-2.93 2.929-7.678 0-10.607-2.93-2.928-7.678-2.928-10.607 0l-90.851 90.852c-1.985 1.983-3.078 4.621-3.078 7.427s1.093 5.443 3.075 7.425l18.306 18.3c1.979 1.979 4.647 3.076 7.419 3.075.27 0 .54-.01.811-.031l27.271-2.093c5.2-.398 9.266-4.464 9.664-9.665z"/></g></g><g/><g/><g/><g/><g/><g/><g/><g/><g/><g/><g/><g/><g/><g/><g/></svg>