<svg height="512" viewBox="0 0 128 128" width="512" xmlns="http://www.w3.org/2000/svg"><g><g><path d="m76.055 71.3v27.564h-24.3v-32.354a5.122 5.122 0 0 0 7.01-4.77v-1.76a5.14 5.14 0 1 1 10.28 0v6.55a5.128 5.128 0 0 0 5.13 5.13 4.917 4.917 0 0 0 1.88-.36z" fill="#f79f63"/><path d="m79.315 50.92v15.61a5.075 5.075 0 0 1 -1.51 3.63 5.188 5.188 0 0 1 -3.63 1.5 5.128 5.128 0 0 1 -5.13-5.13v-6.55a5.14 5.14 0 0 0 -10.28 0v1.76a5.135 5.135 0 0 1 -10.27 0v-10.82a3.978 3.978 0 0 1 3.98-3.98h22.86a3.978 3.978 0 0 1 3.98 3.98z" fill="#f5c464"/><g fill="#f26e53"><path d="m46.693 98.864h34.424a5.678 5.678 0 0 1 5.678 5.678v4.458a0 0 0 0 1 0 0h-45.781a0 0 0 0 1 0 0v-4.458a5.678 5.678 0 0 1 5.679-5.678z"/><path d="m71.306 31.4a7.4 7.4 0 1 1 -14.8 0c0-4.087 7.4-12.4 7.4-12.4s7.4 8.314 7.4 12.4z"/></g></g><g fill="#250a66"><path d="m51.85 86.678a1.751 1.751 0 0 0 1.75-1.75v-.9a1.75 1.75 0 0 0 -3.5 0v.9a1.75 1.75 0 0 0 1.75 1.75z"/><path d="m81.212 97.113h-3.312v-24.739a6.86 6.86 0 0 0 3.26-5.844v-15.61a5.736 5.736 0 0 0 -5.73-5.73h-22.86a5.736 5.736 0 0 0 -5.73 5.73v10.82a6.821 6.821 0 0 0 3.26 5.833v8.39a1.75 1.75 0 0 0 3.5 0v-7.349c.043 0 .087.006.13.006a6.871 6.871 0 0 0 6.88-6.88v-1.76a3.39 3.39 0 1 1 6.78 0v6.55a6.887 6.887 0 0 0 6.879 6.88c.045 0 .087 0 .131-.006v23.709h-20.8v-3.053a1.75 1.75 0 0 0 -3.5 0v3.053h-3.312a7.437 7.437 0 0 0 -7.429 7.429v4.458a1.751 1.751 0 0 0 1.75 1.75h45.782a1.751 1.751 0 0 0 1.75-1.75v-4.458a7.437 7.437 0 0 0 -7.429-7.429zm-10.322-30.583v-6.55a6.89 6.89 0 0 0 -13.78 0v1.76a3.354 3.354 0 0 1 -.98 2.386 3.417 3.417 0 0 1 -3.641.755 3.361 3.361 0 0 1 -2.149-3.141v-10.82a2.233 2.233 0 0 1 2.23-2.23h22.86a2.233 2.233 0 0 1 2.23 2.23v15.61a3.332 3.332 0 0 1 -1 2.392 3.231 3.231 0 0 1 -1.183.761 3.159 3.159 0 0 1 -1.211.227 3.383 3.383 0 0 1 -3.376-3.38zm14.251 40.72h-42.282v-2.708a3.934 3.934 0 0 1 3.929-3.929h34.424a3.934 3.934 0 0 1 3.929 3.929z"/><path d="m64 40.552a9.16 9.16 0 0 0 9.15-9.152c0-4.524-6.533-12.093-7.842-13.565a1.809 1.809 0 0 0 -2.616 0c-1.309 1.473-7.842 9.042-7.842 13.565a9.16 9.16 0 0 0 9.15 9.152zm0-18.852c2.67 3.268 5.65 7.685 5.65 9.7a5.65 5.65 0 1 1 -11.3 0c0-2.015 2.98-6.432 5.65-9.7z"/></g></g></svg>