<svg id="Layer_1" enable-background="new 0 0 511.942 511.942" viewBox="0 0 511.942 511.942" xmlns="http://www.w3.org/2000/svg"><g><g><g fill="#fdc072"><path d="m24.433 424.496c-6.695-6.919-13.002-24.213-15.695-33.457-5.269-18.089 6.848-36.613 25.474-39.446 9.237-1.405 18.525-2.451 27.847-3.135 25.77 9.27 46.958 24.025 46.519 38.096-.537 17.198-33.472 36.435-84.145 37.942z"/><path d="m87.446 487.509c6.931 6.708 24.196 12.997 33.457 15.695 18.089 5.269 36.613-6.848 39.446-25.474 1.405-9.237 2.45-18.525 3.134-27.847-12.287-32.012-30.63-56.276-45.351-54.589-16.935 1.941-32.882 38.669-30.686 92.215z"/><path d="m424.496 24.433c-6.931-6.708-24.196-12.997-33.457-15.695-18.089-5.269-36.613 6.848-39.446 25.474-1.405 9.237-2.45 18.525-3.134 27.847 2.724 7.894 23.173 65.959 43.092 64.201 16.286-1.436 29.47-42.619 32.945-101.827z"/></g><path d="m133.76 418.051c-8.504 18.994-18.371 37.361-29.526 54.967-11.74 18.53-36.745 23.441-53.094 10.109-8.179-6.669-15.657-14.147-22.326-22.326-13.331-16.348-8.421-41.354 10.109-53.093 17.601-11.151 35.968-21.02 54.968-29.527 12.839-4.479 26.931-.647 35.08 9.37 10.733 13.195 5.091 29.666 4.789 30.5z" fill="#ffd9a0"/><path d="m487.509 87.446c6.709 6.934 12.996 24.193 15.695 33.457 5.269 18.089-6.848 36.613-25.474 39.446-9.237 1.405-18.525 2.451-27.847 3.135-42.273-20.845-64.761-52.464-58.718-68.189 6.265-16.306 47.004-25.411 96.344-7.849z" fill="#fdc072"/><path d="m184.451 405.432c2.312 2.917 4.59 5.863 6.835 8.835 7.035 9.317 6.164 22.387-2.091 30.642-9.923 9.923-26.322 8.936-34.921-2.155-24.673-31.826-53.261-60.413-85.087-85.087-11.091-8.598-12.078-24.997-2.155-34.921 8.255-8.255 21.325-9.127 30.642-2.092 11.441 8.642 1.387-.612 86.777 84.778z" fill="#ffa93f"/><path d="m418.051 133.76c18.994-8.504 37.361-18.371 54.967-29.526 18.53-11.74 23.44-36.745 10.109-53.094-6.669-8.179-14.147-15.657-22.326-22.326-16.349-13.331-41.354-8.421-53.094 10.109-11.151 17.601-21.02 35.968-29.526 54.968 2.331 20.925 17.938 37.761 39.87 39.869z" fill="#ffd9a0"/><path d="m414.268 191.286c9.317 7.035 22.387 6.164 30.642-2.091 9.923-9.923 8.936-26.322-2.155-34.921-31.826-24.673-60.414-53.261-85.087-85.087-8.598-11.091-24.997-12.078-34.92-2.155-8.255 8.255-9.127 21.325-2.091 30.642 2.245 2.973 4.523 5.918 6.835 8.835 85.383 85.384 75.349 76.147 86.776 84.777z" fill="#ffa93f"/><path d="m347.711 375.161c-282.51-46.46-113.89-283.37-113.89-283.37 14.74-1.976 29.085-1.876 42.38-.24 113.159 46.118 150.186 188.549 71.51 283.61z" fill="#ffd9a0"/><path d="m347.711 375.161c-13.08 15.8-28.93 29.53-47.14 40.38-21.065 5.882-43.185 7.494-64.83 4.85-127.992-67.116-143.311-238.705-24.37-323.99 7.43-2.08 14.96-3.6 22.45-4.61-23.73 65.23-55.54 214.42 113.89 283.37z" fill="#fdc072"/><path d="m235.741 420.391c-81.94-9.97-145.42-79.79-145.42-164.42 0-76.03 51.23-140.1 121.05-159.57-24.32 26.6-59 76.14-60.81 144.51-1.83 69.01 30.4 135.05 85.18 179.48z" fill="#ff5f7f"/><path d="m421.621 255.971c0 76.03-51.23 140.1-121.05 159.57 93.301-102.048 74.618-243.704-24.37-323.99 81.94 9.97 145.42 79.79 145.42 164.42z" fill="#ff899f"/><path d="m275.671 242.121c-10.26-10.324-18.704-3.862-27.93 5.307s-15.742 17.572-5.482 27.896 26.057 11.261 35.283 2.092c9.227-9.168 8.389-24.971-1.871-35.295z" fill="#485c70"/></g><g><path d="m510.405 118.805c-2.671-9.17-8.641-25.16-14.343-32.823 4.568-14.316 1.466-29.049-7.122-39.581-6.973-8.552-14.845-16.425-23.398-23.399-10.538-8.594-25.276-11.687-39.582-7.122-7.666-5.705-23.648-11.669-32.822-14.342-22.388-6.521-45.436 8.4-48.958 31.547-.991 6.516-1.801 13.115-2.443 19.708-21-1.691-37.603 17.741-32.306 38.488-132.769-43.202-262.116 83.029-218.149 218.149-20.626-5.266-40.166 11.163-38.489 32.305-6.595.643-13.194 1.452-19.708 2.443-23.144 3.52-38.069 26.567-31.548 48.958 2.672 9.172 8.641 25.159 14.343 32.824-4.567 14.315-1.467 29.048 7.122 39.582 6.973 8.552 14.846 16.424 23.398 23.398 10.567 8.617 25.304 11.678 39.582 7.122 7.664 5.704 23.65 11.67 32.823 14.342 22.413 6.528 45.44-8.423 48.958-31.547.991-6.516 1.801-13.115 2.443-19.709 21.144 1.705 37.565-17.885 32.305-38.488 132.63 43.158 262.164-82.91 218.146-218.158 20.717 5.291 40.161-11.236 38.492-32.297 6.595-.643 13.194-1.452 19.708-2.443 23.144-3.519 38.069-26.566 31.548-48.957zm-54.343-84.179c7.77 6.335 14.92 13.486 21.253 21.253 10.695 13.116 6.113 32.88-8.311 42.019-15.878 10.06-32.545 19.116-49.598 26.989-11.299-10.254-22.098-21.052-32.352-32.352 7.873-17.052 16.929-33.72 26.989-49.599 9.293-14.666 29.094-18.849 42.019-8.31zm-97.053.714c2.103-13.822 15.882-23.493 29.933-19.401 7.445 2.168 14.732 4.981 21.712 8.373-3.579 2.999-6.723 6.559-9.282 10.597-9.224 14.56-17.63 29.764-25.098 45.315-13.83-16.346-13.689-18.221-19.939-22.379.655-7.52 1.542-15.068 2.674-22.505zm-343.069 353.602c-4.092-14.045 5.568-27.83 19.401-29.934 7.434-1.13 14.981-2.017 22.503-2.672 4.184 6.287 5.798 5.909 22.38 19.939-15.551 7.467-30.754 15.873-45.314 25.098-4.038 2.558-7.598 5.703-10.597 9.281-3.394-6.982-6.206-14.269-8.373-21.712zm39.94 88.373c-7.769-6.335-14.919-13.485-21.253-21.253-10.543-12.93-6.352-32.729 8.31-42.019 15.88-10.061 32.548-19.118 49.599-26.99 11.299 10.254 22.098 21.052 32.352 32.352-7.872 17.052-16.928 33.72-26.99 49.599-9.295 14.671-29.094 18.849-42.018 8.311zm97.053-.714c-2.103 13.822-15.882 23.493-29.933 19.401-7.445-2.168-14.732-4.981-21.712-8.373 3.579-2.999 6.723-6.56 9.281-10.598 9.226-14.56 17.631-29.763 25.099-45.314 13.791 16.299 13.689 18.221 19.939 22.379-.656 7.52-1.542 15.068-2.674 22.505zm32.367-57.814c8.101 10.729-.006 26.302-13.634 25.438-4.585-.289-8.657-2.443-11.465-6.065-24.705-31.866-53.912-61.217-86.42-86.419-7.673-5.948-8.047-17.089-1.445-23.69 5.563-5.564 14.513-6.17 20.818-1.409 2.514 1.898 5.024 3.841 7.496 5.787 16.883 34.159 44.704 61.979 78.862 78.863 1.962 2.491 3.908 5.004 5.788 7.495zm138.774-20.102c52.724-71.93 57.022-157.131 23.241-228.739-1.768-3.747-6.238-5.349-9.983-3.583-3.746 1.768-5.351 6.237-3.583 9.983 35.352 74.935 25.247 162.922-37.232 232.493-18.708 4.967-38.225 6.458-57.733 4.34-17.029-14.078-31.837-30.367-44.024-48.458-2.316-3.436-6.976-4.344-10.411-2.03s-4.344 6.975-2.03 10.41c8.248 12.243 17.619 23.709 28.001 34.289-65.015-19.638-112.496-80.084-112.496-151.42 0-62.833 36.835-117.221 90.043-142.715-52.724 71.93-57.022 157.131-23.241 228.739 1.766 3.745 6.233 5.35 9.983 3.583 3.746-1.768 5.351-6.237 3.583-9.983-35.352-74.935-25.247-162.922 37.232-232.493 18.708-4.966 38.224-6.458 57.733-4.34 17.183 14.206 32.101 30.656 44.347 48.938 2.306 3.442 6.963 4.364 10.405 2.058 3.441-2.305 4.362-6.964 2.058-10.405-8.33-12.435-17.815-24.073-28.342-34.8 65.013 19.639 112.493 80.084 112.493 151.419-.001 62.832-36.836 117.22-90.044 142.714zm115.532-214.795c-5.562 5.564-14.513 6.17-20.818 1.409-2.514-1.898-5.024-3.841-7.496-5.787-16.883-34.159-44.704-61.979-78.862-78.863-1.962-2.492-3.908-5.005-5.788-7.496-8.084-10.705-.023-26.291 13.633-25.438 4.586.289 8.658 2.443 11.466 6.065 24.948 32.178 54.241 61.472 86.42 86.419 7.672 5.95 8.046 17.091 1.445 23.691zm36.995-30.957c-7.434 1.13-14.981 2.017-22.503 2.672-4.184-6.288-5.8-5.911-22.38-19.939 15.552-7.468 30.755-15.873 45.313-25.098 4.039-2.558 7.599-5.703 10.598-9.282 3.393 6.981 6.205 14.269 8.373 21.712 4.092 14.046-5.568 27.831-19.401 29.935z"/><path d="m280.991 236.834c-8.464-8.517-16.626-8.239-21.981-6.505-5.787 1.873-10.804 6.063-16.556 11.779-6.591 6.55-22.025 21.888-5.516 38.503 6.979 7.023 16.048 10.589 24.838 10.589 17.078 0 30.574-13.518 29.627-31.395-.451-8.511-4.149-16.669-10.412-22.971zm-33.412 33.203c-4.117-4.143-5.478-6.432 5.449-17.29 2.515-2.5 8.476-8.418 12.022-8.418 3.414 0 10.889 7.127 11.374 16.269.805 15.207-17.13 21.23-28.845 9.439z"/><path d="m194.553 282.067c-8.393 8.339-8.435 21.878-.095 30.27 2.92 2.938 7.668 2.953 10.606.033s2.952-7.668.032-10.606c-1.205-1.213-1.866-2.824-1.861-4.534.019-5.655 6.911-8.554 10.946-4.494 2.92 2.938 7.669 2.953 10.606.033 2.938-2.919 2.953-7.668.034-10.606-8.317-8.372-21.897-8.415-30.268-.096z"/><path d="m297.867 188.235c-19.052 0-28.627 23.028-15.25 36.491 1.466 1.476 3.393 2.214 5.32 2.214 6.621 0 10.025-8.053 5.32-12.786-3.995-4.021-1.127-10.919 4.542-10.919 1.718 0 3.333.671 4.543 1.89 2.92 2.938 7.669 2.953 10.606.033 2.938-2.919 2.953-7.668.034-10.606-4.029-4.056-9.397-6.299-15.115-6.317z"/></g></g><g/><g/><g/><g/><g/><g/><g/><g/><g/><g/><g/><g/><g/><g/><g/></svg>