<svg id="Layer_1" enable-background="new 0 0 512.01 512.01" viewBox="0 0 512.01 512.01" xmlns="http://www.w3.org/2000/svg"><g><g><path d="m385.21 330.353-32.094 52.778c-2.899 4.767.533 10.87 6.112 10.87h34.285l12.783-39.522-7.094-20.268z" fill="#918291"/><path d="m258.859 289.067s-5.078 23.357-17.238 35.011l16.392 60.911c1.223 4.545-2.201 9.013-6.908 9.013h-10.905c-5.581 0-10.613-3.362-12.749-8.518l-11.165-26.951-4.56-38.509-9.121-33.442 49.656-31.163z" fill="#918291"/><path d="m7.527 161.2s-1.52 36.71 20.775 51.405c0 0 76.004.507 86.138 4.56 0 0 33.442 38.002 47.123 50.163s23.91 87.152 23.91 87.152l-15.265 29.04c-2.504 4.764.951 10.482 6.332 10.482h13.483c5.227 0 10.005-2.953 12.343-7.628l13.92-27.841-4.56-38.509s16.214-19.761 16.721-39.016c0 0 77.018 25.841 137.821 11.654 0 0 19.761 49.656 40.029 61.817l-17.944 28.563c-2.993 4.764.431 10.959 6.058 10.959h14.906c4.178 0 8.13-1.893 10.75-5.147l24.807-30.821c2.808-3.488 3.695-8.146 2.366-12.422l-14.089-45.348s77.991-48.794 70.897-86.796-85.085-102.201-194.531-92.067-115.527 29.388-165.183 12.161c-25.129-8.718-40.525-12.895-49.605-14.894-6.944-1.529-14.204-.36-20.334 3.243z" fill="#e08d63"/><path d="m433.155 300.266 14.09 45.35c1.32 4.27.44 8.93-2.37 12.42l-24.81 30.82c-2.62 3.25-6.57 5.15-10.75 5.15h-14.9c-2.59 0-4.71-1.31-5.96-3.19.7-.57 1.36-1.23 1.94-1.96l24.8-30.82c2.81-3.49 3.7-8.15 2.37-12.42l-10.77-34.69c-1.94-6.21.36-12.97 5.69-16.71 20.31-14.21 67.47-50.83 61.89-80.75-6.24-33.47-67.49-87.25-156.77-92.69 105.19-6.34 179.53 55.63 186.44 92.69 7.1 38-70.89 86.8-70.89 86.8z" fill="#d77f4a"/><path d="m118.747 155.854c14.441-6.08 24.459-20.388 8.867-30.908-16.295-10.996-28.882 10.641-28.882 10.641z" fill="#e08d63"/></g><g><path d="m511.418 212.09c-4.234-22.694-28.775-49.863-62.522-69.214-40.583-23.271-90.326-33.555-140.073-28.947-43.975 4.074-71.521 9.628-91.634 13.683-30.019 6.053-42.443 8.557-70.405-1.145-3.408-1.178-6.628-2.269-9.687-3.294-6.192-6.79-16.632-10.83-25.313-7.884-5.7-1.614-10.883-2.94-15.436-3.947-8.807-1.94-17.952-.484-25.752 4.098l-66.87 39.29c-2.197 1.291-3.589 3.61-3.694 6.156-.069 1.672-1.402 41.142 24.146 57.982 1.211.799 2.627 1.229 4.078 1.238.27.002 27.194.191 50.754 1.181.107.005.214.007.32.007 3.997 0 7.319-3.154 7.488-7.186.174-4.139-3.04-7.634-7.178-7.808-19.728-.829-41.75-1.103-48.903-1.173-13.058-10.148-15.31-30.965-15.667-39.665l63.125-37.09c4.528-2.658 9.83-3.505 14.921-2.384.905.2 1.847.419 2.808.646-2.104 2.558-3.363 4.647-3.673 5.18-2.077 3.57-.868 8.133 2.693 10.225 3.561 2.09 8.15.895 10.258-2.655 1.296-2.187 6.177-8.692 11.422-9.87 1.4-.317 3.632-.488 6.797 1.648 3.217 2.171 4.746 4.309 4.546 6.355-.32 3.274-4.589 8.249-12.128 11.424-3.818 1.607-5.609 6.005-4.002 9.822 1.207 2.867 3.988 4.592 6.916 4.592.97 0 1.957-.189 2.907-.59 11.352-4.779 19.191-13.036 20.948-21.878 31.324 10.736 46.857 7.616 77.548 1.427 19.783-3.988 46.875-9.45 90.053-13.451 46.695-4.32 93.3 5.274 131.228 27.024 34.221 19.623 52.401 43.748 55.238 58.955 2.713 14.521-11.396 35.385-39.728 58.747-3.196 2.635-3.65 7.361-1.015 10.558 1.483 1.799 3.628 2.729 5.791 2.729 1.68 0 3.37-.562 4.767-1.714 33.681-27.773 48.798-52.359 44.928-73.072z"/><path d="m440.317 298.04c-1.229-3.955-5.432-6.171-9.387-4.937-3.956 1.229-6.166 5.432-4.937 9.388l14.087 45.341c.587 1.9.196 3.957-1.047 5.501l-24.807 30.816c-1.208 1.497-2.998 2.356-4.911 2.356h-14.276l17.608-28.041c1.072-1.707 1.412-3.773.942-5.733-.469-1.961-1.707-3.649-3.436-4.687-15.163-9.281-31.676-45.148-36.964-58.249-6.965-15.055-1.315-37.465-1.196-37.76 1.068-3.998-1.303-8.106-5.301-9.18-3.996-1.072-8.114 1.298-9.188 5.298-.257.954-5.379 20.525-1.015 38.831-47.316 8.088-102.815-6.318-120.186-11.409.371-9.216.255-27.123-4.762-42.943-1.252-3.949-5.468-6.138-9.417-4.883-3.948 1.252-6.134 5.468-4.882 9.416 10.181 35.724 1.507 63.722-11.317 78.104-1.274 1.588-1.895 3.555-1.649 5.639l4.296 36.281-12.914 25.827c-1.062 2.119-3.273 3.489-5.634 3.489h-12.918l15.006-28.539c.727-1.382 1.004-2.957.793-4.504-.106-.776-2.643-19.248-6.917-39.547-8.106-38.501-14.978-48.228-19.441-52.195-13.181-11.716-46.152-49.134-46.483-49.51-2.737-3.11-7.477-3.41-10.585-.675-3.109 2.737-3.411 7.477-.674 10.585 1.378 1.566 33.913 38.487 47.777 50.811 7.001 6.224 16.286 45.953 21.132 80.189l-14.152 26.913c-2.405 4.589-2.24 9.974.44 14.405 2.677 4.425 7.362 7.066 12.532 7.066h13.49c8.11 0 15.408-4.51 19.048-11.775l6.574-13.147 4.878 11.769c3.305 7.99 11.026 13.153 19.67 13.153h10.91c4.593 0 8.83-2.09 11.625-5.733 2.798-3.647 3.72-8.287 2.526-12.735l-15.311-56.902c7.375-8.781 11.923-20.683 14.268-28.232 17.375 3.478 38.988 6.543 61.219 6.542 12.119-.001 24.435-.913 36.326-3.166 2.212 5.062 5.8 12.869 10.31 21.277 1.466 2.732 2.924 5.326 4.376 7.796l-29.735 48.882c-2.75 4.515-2.849 10.184-.259 14.795 2.591 4.611 7.486 7.477 12.774 7.477h50.09c6.473 0 12.52-2.895 16.592-7.946l24.81-30.82c4.376-5.436 5.757-12.665 3.69-19.349zm-205.934 27.985 16.274 60.48h-10.462c-2.553 0-4.833-1.525-5.812-3.892l-10.773-25.991-4.08-34.459c3.831-5.228 12.02-17.575 15.163-31.405 3.864 1.11 8.895 2.472 14.82 3.902-2.487 7.62-6.919 18.102-13.076 24-1.979 1.896-2.766 4.719-2.054 7.365zm151.166 18.224c3.643 4.909 7.227 8.942 10.737 12.065l-14.281 22.743c-1.43 2.276-2.177 4.854-2.238 7.449h-19.923z"/><path d="m59.31 155.854v5.067c0 4.143 3.358 7.5 7.5 7.5s7.5-3.357 7.5-7.5v-5.067c0-4.143-3.358-7.5-7.5-7.5s-7.5 3.358-7.5 7.5z"/></g></g><g/><g/><g/><g/><g/><g/><g/><g/><g/><g/><g/><g/><g/><g/><g/></svg>