<svg id="Layer_1-2" viewBox="0 0 64 64" xmlns="http://www.w3.org/2000/svg"><g id="Car-2"><path d="m21 9-15 1 .000005.000002c3.01982475 1.20792991 4.999995 4.13270662 4.999995 7.38515742v1.61484058z" fill="#f48851"/><path d="m62 47v-9.7199707c0-1.91003418-1.34997559-3.55004883-3.2199707-3.92004395l-6.7800293-1.35998535-.73999023-6.14001465c-1.29003906-10.76000977-10.41998291-18.85998535-21.26000977-18.85998535-5.41998291 0-10.40997314 2.02001953-14.21002197 5.40002441-3.79998779 3.35998535-6.40997314 8.07995605-7.04998779 13.45996094l-.73999023 6.14001465-3.26000977 1.09002686c-1.64001465.53997803-2.73999023 2.06994629-2.73999023 3.78997803v10.11999512c-.54998779 0-1 .45001221-1 1v4c0 .54998779.45001221 1 1 1h60c.54998779 0 1-.45001221 1-1v-4c0-.54998779-.45001221-1-1-1z" fill="#ffab6c"/><rect fill="#536170" height="6" rx="1" width="62" x="1" y="47"/><circle cx="14" cy="50" fill="#748793" r="7"/><circle cx="14" cy="50" fill="#657482" r="3"/><circle cx="50" cy="50" fill="#748793" r="7"/><circle cx="50" cy="50" fill="#657482" r="3"/><path d="m51.26373291 25.86462402c-.49359131-4.11352539-2.13861084-7.8324585-4.58007812-10.86462402h-11.68365479c-1.10455322 0-2 .89544678-2 2v13c0 1.10455322.89544678 2 2 2h17z" fill="#657482"/><path d="m26 15c-3.08862305 0-6.05810547 1.33807373-8.00079346 3.73919678-1.76812744 2.18530273-2.95452881 4.87329102-3.3092041 7.84082031l-.65002441 5.41998291h11.96002197c1.10455322 0 2-.89544678 2-2v-13c0-1.10455322-.89544678-2-2-2z" fill="#657482"/><path d="m58.78448486 33.35687256-1.78448486-.35687256v5c0 1.65686035 1.34313965 3 3 3h2v-3.72088623c0-1.90667725-1.3458252-3.54833984-3.21551514-3.92224121z" fill="#ffd488"/><path d="m4.73510742 33.08831787c-1.63336182.54443359-2.73510742 2.07299805-2.73510742 3.79473877v3.11694336h1c1.65686035 0 3-1.34313965 3-3v-4.33331299z" fill="#ffd488"/><g fill="#292930"><path d="m63 46v-8.72070312c0-2.375-1.69042969-4.43701172-4.01904297-4.90283203l-6.07421875-1.21484375-.65039062-5.41601562c-1.35058594-11.25683594-10.91894531-19.74560547-22.25634766-19.74560547-3.27954102 0-6.40124512.72906494-9.2286377 2.01123047l-14.83825684.99121094c-.46582031.03076172-.84863281.38085938-.92089844.84228516-.07275391.46191406.18408203.91210938.61865234 1.08447266 1.29003906.51269531 2.38623047 1.39794922 3.16992188 2.56005859.78466797 1.16308594 1.19921875 2.51220703 1.19921875 3.90087891v.93579102c-1.14819336 2.27197266-1.93780518 4.76464844-2.25634766 7.41967773l-.66113281 5.50585938-2.6640625.88818359c-2.04443359.68164062-3.41845703 2.58789062-3.41845703 4.74316406v9.1171875c-.55224609 0-1 .44775391-1 1v6c0 .55224609.44775391 1 1 1h6.0824585c1.38586426 2.38708496 3.9642334 4 6.9175415 4s5.53167725-1.61291504 6.9175415-4h22.16491699c1.38586426 2.38708496 3.9642334 4 6.9175415 4s5.53167725-1.61291504 6.9175415-4h6.0824585c.55224609 0 1-.44775391 1-1v-6c0-.55224609-.44775391-1-1-1zm-2-8.72070312v2.72070312h-1c-1.10302734 0-2-.89697266-2-2v-3.78027344l.58837891.11767578c1.39746094.27978516 2.41162109 1.51660156 2.41162109 2.94189453zm-10.12701416-6.27929688h-15.87298584c-.55126953 0-1-.44873047-1-1v-13c0-.55126953.44873047-1 1-1h11c.05926514 0 .11065674-.02386475.16711426-.03375244 2.18212891 2.82818604 3.65167236 6.25 4.10388184 10.01763916l.60198975 5.01611328zm-40.41400146-18.62890625c-.39257812-.58154297-.84570312-1.10986328-1.3515625-1.57666016l7.74499512-.51824951c-1.9642334 1.425354-3.67956543 3.17077637-5.0947876 5.15454102-.24395752-1.08190918-.66558838-2.12121582-1.29864502-3.05963135zm-7.45898438 24.51171875c0-1.27416992.80249023-2.40026855 2-2.82397461v2.94116211c0 1.10302734-.89697266 2-2 2zm0 4.1171875c2.20556641 0 4-1.79443359 4-4v-3.61248779l1.31640625-.43878174c.36669922-.12255859.63037109-.4453125.67626953-.82958984l.73632812-6.13525391c1.23046875-10.25244141 9.94482422-17.98388672 20.27099609-17.98388672 5.59838867 0 10.71081543 2.28527832 14.42590332 6h-9.42590332c-1.65429688 0-3 1.34570312-3 3v13c0 1.65429688 1.34570312 3 3 3h16.90136719l4.09863281.81970215v4.18029785c0 2.20556641 1.79443359 4 4 4h1v4h-4.0824585c-1.38586426-2.38708496-3.9642334-4-6.9175415-4s-5.53167725 1.61291504-6.9175415 4h-22.16491699c-1.38586426-2.38708496-3.9642334-4-6.9175415-4s-5.53167725 1.61291504-6.9175415 4h-4.0824585zm-1 11v-4h4.26330566c-.16583252.64056396-.26330566 1.30834961-.26330566 2s.09747314 1.35943604.26330566 2zm12 4c-3.30859375 0-6-2.69140625-6-6s2.69140625-6 6-6 6 2.69140625 6 6-2.69140625 6-6 6zm7.73669434-4c.16583252-.64056396.26330566-1.30834961.26330566-2s-.09747314-1.35943604-.26330566-2h20.52661133c-.16583252.64056396-.26330566 1.30834961-.26330566 2s.09747314 1.35943604.26330566 2zm28.26330566 4c-3.30859375 0-6-2.69140625-6-6s2.69140625-6 6-6 6 2.69140625 6 6-2.69140625 6-6 6zm12-4h-4.26330566c.16583252-.64056396.26330566-1.30834961.26330566-2s-.09747314-1.35943604-.26330566-2h4.26330566z"/><path d="m14 46c-2.20556641 0-4 1.79443359-4 4s1.79443359 4 4 4 4-1.79443359 4-4-1.79443359-4-4-4zm0 6c-1.10302734 0-2-.89697266-2-2s.89697266-2 2-2 2 .89697266 2 2-.89697266 2-2 2z"/><path d="m50 46c-2.20556641 0-4 1.79443359-4 4s1.79443359 4 4 4 4-1.79443359 4-4-1.79443359-4-4-4zm0 6c-1.10302734 0-2-.89697266-2-2s.89697266-2 2-2 2 .89697266 2 2-.89697266 2-2 2z"/><path d="m14.04003906 33h11.95996094c1.65429688 0 3-1.34570312 3-3v-13c0-1.65429688-1.34570312-3-3-3-3.46533203 0-6.66503906 1.49804688-8.77832031 4.11035156-1.93945312 2.39697266-3.15820312 5.28466797-3.52441406 8.35058594l-.64990234 5.41992188c-.03417969.28417969.0546875.56884766.24462891.78271484s.46191406.33642578.74804688.33642578zm1.64306641-6.30126953c.32128906-2.69189453 1.39111328-5.2265625 3.09326172-7.33056641 1.73193359-2.140625 4.36474609-3.36816406 7.22363281-3.36816406.55126953 0 1 .44873047 1 1v13c0 .55126953-.44873047 1-1 1h-10.83300781z"/><path d="m28 35h-4c-.55224609 0-1 .44775391-1 1s.44775391 1 1 1h4c.55224609 0 1-.44775391 1-1s-.44775391-1-1-1z"/><path d="m33 37h4c.55224609 0 1-.44775391 1-1s-.44775391-1-1-1h-4c-.55224609 0-1 .44775391-1 1s.44775391 1 1 1z"/></g></g></svg>