<svg id="Layer_1" enable-background="new 0 0 511.973 511.973" viewBox="0 0 511.973 511.973" xmlns="http://www.w3.org/2000/svg"><g><g><path d="m232.416 331.959-46.595-51.046c-33.609 36.818-18.516 21.084-67.571 70.019-17.34 17.3-39.31 29.26-63.27 34.39-46.014 9.857-63.319 67.096-30.53 100.85 33.692 34.668 91.621 17.204 101.96-28.64 5.46-24.23 17.13-46.62 34.7-64.19 10.11-10.11 23.38-23.37 40.85-40.84z" fill="#ffd9a0"/><path d="m396.167 136.336c8.081-5.31 16.957-9.335 26.351-11.898 9.94-2.712 15.797-12.966 13.053-22.898-2.839-10.277-13.762-16.204-23.83-12.695-13.883 4.839-26.343 13.679-35.598 25.921l-26.457 43.909 15.059 6.662z" fill="#e7896e"/><path d="m377.261 147.033-36.43 241.59-25.39 6.83c-11.49 1.32-22.63 1.38-33.23.3-152.65-114.71-30.31-247.19-30.31-247.19l-.3-1.53z" fill="#b1ecd0"/><path d="m282.211 395.753c-44.58-4.51-79.48-29.07-89.97-63.63-1.63-5.36-5.79-9.53-11.15-11.15-54.5-16.54-84.1-93.76-49.56-173.94h119.45c-23.86 67.55-27.47 153.46 31.23 248.72z" fill="#60daa8"/><path d="m474.141 257.933c-1.34 11.4-4.31 22.75-8.95 33.68l-17.98 29.91c-2.8 3.46-5.82 6.82-9.04 10.06-23.49 23.59-48.35 40.04-72.91 50.48l-43.62 11.72-2.99-13.09c-25.65-17.7 12.46-67.13-5.45-87.4-6.9-7.81-13.26-3.11-23.33-11.66-23.886-20.309.145-55.276-28.69-77.82l-22.2-8.1c-37.72-102.9 71.03-150.28 71.03-150.28 31.93 11.83 58.4 38.08 68.54 77.55 1.47 5.72 5.96 10.21 11.68 11.67 42.01 10.79 69.05 40.1 79.65 74.8z" fill="#eaaa83"/><path d="m308.33 45.133c-27.66 34.94-59.35 86.86-69.93 150.37l-21.24-7.74c-40.16-7.15-85.88-7.07-85.63-40.73 8.18-19 19.97-38.17 35.89-56.73l37.91-33.93c19.89-12.14 42.08-18.08 63.83-18.13z" fill="#e7896e"/><ellipse cx="268.563" cy="131.969" fill="#fff" rx="23.515" ry="29.529" transform="matrix(.709 -.706 .706 .709 -14.867 227.933)"/><ellipse cx="381.492" cy="245.393" fill="#fff" rx="23.515" ry="29.529" transform="matrix(.709 -.706 .706 .709 -61.992 340.659)"/><circle cx="372.66" cy="315.467" fill="#b1ecd0" r="16.492"/><path d="m430.978 315.478c-11.456-11.456-1.058-30.913 14.828-27.736l29.153 5.831c8.895 1.779 14.666 10.433 12.886 19.33-1.779 8.896-10.434 14.665-19.33 12.886-30.989-6.197-32.906-5.68-37.537-10.311z" fill="#efedff"/><path d="m279.911 54.359-13.953-20.929c-4.906-7.359-3.473-17.462 3.646-22.71 7.602-5.604 18.255-3.669 23.432 4.099l14.211 21.316c5.033 7.549 2.993 17.748-4.556 22.781-7.549 5.032-17.748 2.992-22.78-4.557z" fill="#b1ecd0"/><path d="m165.415 85.448-3.481-17.347c-1.493-7.441 3.329-14.684 10.77-16.177l17.347-3.481c7.441-1.493 14.684 3.329 16.177 10.77l3.481 17.347c1.493 7.441-3.329 14.684-10.77 16.177l-17.347 3.481c-7.441 1.493-14.684-3.329-16.177-10.77z" fill="#efedff"/><path d="m466.643 253.403-11.435-13.5c-4.905-5.791-4.187-14.462 1.604-19.368l13.5-11.435c5.791-4.905 14.462-4.187 19.368 1.604l11.435 13.5c4.905 5.791 4.187 14.462-1.604 19.368l-13.5 11.435c-5.791 4.905-14.463 4.187-19.368-1.604z" fill="#b1ecd0"/><g fill="#efedff"><path d="m315.975 388.245 5.903-16.679c2.532-7.155 10.385-10.902 17.54-8.369l16.679 5.903c7.155 2.532 10.902 10.385 8.369 17.54l-5.903 16.679c-2.532 7.155-10.385 10.902-17.54 8.369l-16.679-5.903c-7.154-2.532-10.901-10.385-8.369-17.54z"/><path d="m233.186 219.472-14.421-10.25c-6.186-4.397-7.636-12.976-3.239-19.162l10.25-14.421c4.397-6.186 12.976-7.636 19.162-3.239l14.421 10.25c6.186 4.397 7.636 12.976 3.239 19.162l-10.25 14.421c-4.396 6.186-12.976 7.636-19.162 3.239z"/></g></g><g><path d="m305.566 115.559c-2.929-2.929-7.678-2.929-10.606 0l-8.485 8.485c-4.739 4.738-1.318 12.803 5.303 12.803 4.124 0 5.327-2.221 13.789-10.682 2.928-2.928 2.928-7.677-.001-10.606z"/><path d="m371.281 208.378c-2.929 2.929-2.929 7.678 0 10.606 2.929 2.929 7.678 2.929 10.606 0 1.21-1.21 2.819-1.876 4.53-1.876 5.647 0 8.588 6.878 4.53 10.936-4.739 4.738-1.318 12.803 5.303 12.803 6.823 0 11.573-10.068 11.573-17.333.001-19.023-23.146-28.531-36.542-15.136z"/><path d="m358.333 196.445c-2.929-2.929-7.678-2.929-10.606 0-2.711 2.711-7.125 2.712-9.836 0-2.712-2.712-2.712-7.125 0-9.837 1.464-1.465 2.196-3.384 2.196-5.304 0-6.627-8.071-10.036-12.804-5.303-1.313 1.314-3.06 2.037-4.918 2.037-6.182 0-9.271-7.522-4.918-11.874 2.929-2.929 2.928-7.678 0-10.607-2.93-2.929-7.678-2.928-10.607 0-13.313 13.314-4.613 36.22 14.072 37.434 1.237 18.647 24.046 27.436 37.421 14.06 2.929-2.929 2.929-7.678 0-10.606z"/><path d="m355.737 298.508c-9.354 9.354-9.354 24.575 0 33.93 4.677 4.677 10.821 7.016 16.964 7.016 6.144 0 12.288-2.338 16.965-7.016 9.354-9.354 9.354-24.575 0-33.93s-24.575-9.355-33.929 0zm23.323 23.323c-3.506 3.506-9.21 3.506-12.716 0s-3.506-9.211 0-12.717c1.753-1.753 4.056-2.629 6.358-2.629s4.605.876 6.358 2.629c3.505 3.506 3.505 9.211 0 12.717z"/><path d="m506.879 219.362-11.436-13.5c-5.362-6.33-13.658-8.712-21.221-6.887-11.036-28.604-32.113-50.878-59.986-63.745 3.349-1.398 6.783-2.592 10.298-3.551 13.949-3.805 22.158-18.194 18.309-32.13-3.899-14.114-19.038-22.832-33.528-17.78-11.541 4.022-21.933 10.456-30.598 18.859-12.351-27.609-33.998-48.982-61.731-60.505-1.268-5.806-2.523-6.743-17.666-29.458-7.405-11.111-22.862-14.276-34.124-5.977-8.425 6.209-11.544 17.019-8.43 26.697-17.195 1.706-33.957 6.861-49.318 15.175-5.203-4.944-12.159-6.805-18.831-5.466l-17.347 3.481c-11.511 2.31-18.958 13.495-16.648 25.006 3.845 19.16 3.565 17.991 4.046 19.532-31.434 38.084-51.886 85.745-49.195 135.446.223 4.121 3.738 7.304 7.895 7.083 4.136-.224 7.307-3.759 7.083-7.895-.977-18.042 1.432-36.448 6.981-54.623 14.502 17.839 46.703 20.138 74.574 24.405-1.719 7.946 1.206 16.657 8.455 21.81l14.421 10.25c9.547 6.785 22.835 4.539 29.621-5.008l3.764-5.296c6.872 8.653 7.282 18.969 7.739 30.579.548 13.915 1.169 29.687 15.053 41.487 11.181 9.5 18.168 5.939 22.563 10.911 13.123 14.852-19.816 61.964 2.277 84.789-.944 2.668-1.293 3.461-1.722 5.537-58.827 4.242-98.546-25.107-108.722-58.642-2.354-7.759-8.392-13.796-16.15-16.15-22.782-6.914-44.488-26.96-54.264-61.781-1.12-3.988-5.261-6.315-9.248-5.193-3.988 1.12-6.313 5.26-5.193 9.248 6.406 22.817 17.97 41.637 33.225 54.813l-34.83 34.745c-16.379 16.341-36.969 27.533-59.543 32.366-4.05.867-6.631 4.854-5.764 8.904.754 3.521 3.865 5.931 7.327 5.931.52 0 1.048-.054 1.578-.167 25.403-5.439 48.57-18.031 66.997-36.415l36.542-36.453c5.896 3.533 12.189 6.343 18.819 8.355 7.632 2.316 4.553 7.531 13.558 23.243l-36.66 36.651c-18.093 18.093-30.789 41.553-36.713 67.843-9.089 40.3-59.841 55.338-89.264 25.064-19.514-20.088-19.655-52.9-.316-73.144 2.861-2.995 2.752-7.743-.243-10.604-2.995-2.862-7.743-2.753-10.604.242-25.031 26.201-24.845 67.966.404 93.958 37.808 38.903 102.984 19.53 114.655-32.218 5.3-23.519 16.604-44.452 32.687-60.536l34.753-34.745c25.68 30.91 68.783 42.799 109.383 39.548 4.938 8.577 11.564 9.502 27.97 15.31 11.042 3.908 23.204-1.896 27.112-12.937l5.903-16.678c.222-.627.408-1.261.569-1.898 32.322-14.6 61.481-38.439 77.935-57.427 18.455 3.569 18.434 3.794 21.705 3.793 11.167-.001 21.184-7.878 23.456-19.237 2.593-12.968-5.802-25.562-18.77-28.156l-1.056-.211c2.307-6.7 4.046-13.57 5.235-20.543 7.438-1.223 9.958-4.488 23.749-16.17 8.96-7.585 10.068-20.977 2.48-29.935zm-92.627-123.429c6.076-2.119 12.479 1.625 14.132 7.61 1.639 5.935-1.859 12.044-7.798 13.666-8.986 2.451-17.549 6.146-25.512 10.987-7.814-2.195-7.751-2.44-10.544-11.836 7.9-9.345 18.1-16.377 29.722-20.427zm-140.156-79.17c4.141-3.052 9.922-2.01 12.742 2.222l14.21 21.316c2.737 4.105 1.629 9.644-2.476 12.38-4.095 2.73-9.649 1.62-12.38-2.476l-13.952-20.929c-2.747-4.121-1.915-9.734 1.856-12.513zm-99.875 42.52 17.347-3.481c3.382-.679 6.669 1.51 7.348 4.892l3.481 17.347c.679 3.383-1.509 6.669-4.892 7.348l-17.347 3.481c-3.44.692-6.682-1.574-7.348-4.892l-3.481-17.347c-.679-3.383 1.509-6.669 4.892-7.348zm63.352 154.082-14.421-10.25c-2.812-1.998-3.471-5.893-1.472-8.704l10.25-14.421c2.001-2.816 5.897-3.467 8.704-1.472l14.421 10.25c2.812 1.998 3.471 5.893 1.472 8.704l-10.25 14.421c-2.001 2.815-5.897 3.468-8.704 1.472zm119.864 170.778-5.903 16.679c-1.148 3.245-4.724 4.951-7.967 3.801l-16.678-5.903c-3.277-1.16-4.942-4.744-3.802-7.967l5.903-16.679c1.148-3.245 4.724-4.95 7.967-3.801l16.679 5.903c3.251 1.151 4.952 4.716 3.801 7.967zm123.096-72.705c-.965 4.827-5.681 7.968-10.505 7.003-30.364-6.072-31.047-5.602-33.705-8.26-6.15-6.15-.688-16.825 8.054-15.078l29.153 5.831c4.837.966 7.971 5.664 7.003 10.504zm-33.215-31.045c-23.173-4.626-38.312 23.685-21.603 40.394.313 0 2.305 3.103 7.648 5.115-15.03 15.659-37.938 33.579-63.306 45.773-2.517-4.498-6.513-7.903-11.417-9.639l-16.679-5.903c-9.432-3.336-19.48.367-24.716 8.202-2.695-21.157 19.153-56.156 1.617-76.005-8.892-10.056-15.888-5.439-24.089-12.407-8.868-7.537-9.27-17.735-9.778-30.647-.526-13.338-1.176-29.596-14.114-42.858 3.936-8.891 1.36-19.836-7.136-25.876l-14.421-10.25c-9.57-6.801-22.818-4.562-29.621 5.008l-5.888 8.284c-37.548-6.175-73.555-7.53-74.701-31.049 7.22-16.346 16.992-32.306 29.142-47.428 8.752 5.103 15.112 2.418 32.199-1.011 11.511-2.31 18.958-13.495 16.648-25.006l-3.023-15.064c15.819-8.663 33.328-13.536 51.164-14.202l8.468 12.701c10.199 15.297 33.372 13.86 41.431-2.844 28.182 13.008 47.995 37.28 56.186 69.161 2.147 8.389 8.692 14.934 17.075 17.079 34.936 8.972 61.215 32.57 72.803 65.101l-9.202 7.794c-8.937 7.571-10.049 21.001-2.479 29.938 11.981 14.144 12.639 15.445 16.41 17.792-1.165 6.974-2.971 13.829-5.396 20.49zm49.573-46.787c-.285 3.434-1.278 3.478-15.687 15.684-2.625 2.224-6.573 1.898-8.797-.729l-11.435-13.5c-2.225-2.626-1.897-6.573.729-8.798l13.5-11.435c2.627-2.224 6.574-1.897 8.797.729 12.2 14.402 13.176 14.621 12.893 18.049z"/></g></g><g/><g/><g/><g/><g/><g/><g/><g/><g/><g/><g/><g/><g/><g/><g/></svg>