<svg id="Capa_1" enable-background="new 0 0 512 512" height="512" viewBox="0 0 512 512" width="512" xmlns="http://www.w3.org/2000/svg"><g><path d="m224 146.606h64v308.605h-64z" fill="#356487"/><path d="m224 146.606h30.906v308.605h-30.906z" fill="#20526b"/><path d="m512 156.909-256-128-256 128 30.906 10.302h448z" fill="#ea4959"/><path d="m160 156.908 96-127.999 96 128-32 10.302-128-.001z" fill="#f5fcff"/><g><g><g><path d="m358.697 325.643c-3.323 0-6.393-2.161-7.397-5.508l-38.705-129.001c-1.226-4.087 1.093-8.394 5.18-9.621 4.088-1.225 8.395 1.093 9.621 5.18l38.704 129.001c1.226 4.087-1.093 8.394-5.18 9.621-.74.222-1.488.328-2.223.328z" fill="#356487"/></g><g><path d="m451.678 359.072c-3.026 0-5.898-1.789-7.135-4.757l-67.674-162.43c-1.642-3.939.221-8.462 4.16-10.104 3.942-1.641 8.463.222 10.104 4.161l67.674 162.43c1.642 3.939-.221 8.462-4.16 10.104-.972.405-1.979.596-2.969.596z" fill="#356487"/></g><g><path d="m153.303 325.643c-.735 0-1.483-.106-2.223-.328-4.088-1.226-6.406-5.534-5.18-9.621l38.705-129.001c1.226-4.087 5.534-6.408 9.621-5.18 4.088 1.226 6.406 5.534 5.18 9.621l-38.706 129.001c-1.004 3.346-4.074 5.508-7.397 5.508z" fill="#356487"/></g><g><path d="m60.322 359.072c-.991 0-1.997-.192-2.969-.596-3.939-1.641-5.802-6.165-4.16-10.104l67.674-162.43c1.642-3.94 6.165-5.801 10.104-4.161 3.939 1.641 5.802 6.165 4.16 10.104l-67.674 162.43c-1.236 2.968-4.108 4.757-7.135 4.757z" fill="#356487"/></g></g></g><path d="m256 28.909-256 128h30.906l240.547-120.273z" fill="#d83a51"/><circle cx="464" cy="381.264" fill="#ffe04a" r="32.355"/><path d="m452.249 381.264c0-14.266 9.237-26.366 22.053-30.67-3.237-1.087-6.699-1.685-10.302-1.685-17.869 0-32.355 14.486-32.355 32.355s14.486 32.355 32.355 32.355c3.603 0 7.065-.598 10.302-1.685-12.816-4.303-22.053-16.404-22.053-30.67z" fill="#ffcb39"/><circle cx="368" cy="348.909" fill="#ea4959" r="32.355"/><path d="m356.249 348.909c0-14.266 9.237-26.366 22.053-30.67-3.237-1.087-6.698-1.685-10.302-1.685-17.869 0-32.355 14.486-32.355 32.355s14.486 32.355 32.355 32.355c3.603 0 7.065-.598 10.302-1.685-12.816-4.303-22.053-16.404-22.053-30.67z" fill="#d83a51"/><circle cx="144" cy="348.909" fill="#ea4959" r="32.355"/><path d="m132.249 348.909c0-14.266 9.237-26.366 22.053-30.67-3.237-1.087-6.699-1.685-10.302-1.685-17.869 0-32.355 14.486-32.355 32.355s14.486 32.355 32.355 32.355c3.603 0 7.065-.598 10.302-1.685-12.816-4.303-22.053-16.404-22.053-30.67z" fill="#d83a51"/><circle cx="48" cy="381.264" fill="#ffe04a" r="32.355"/><path d="m36.249 381.264c0-14.266 9.237-26.366 22.053-30.67-3.237-1.087-6.699-1.685-10.302-1.685-17.869 0-32.355 14.486-32.355 32.355s14.486 32.355 32.355 32.355c3.603 0 7.065-.598 10.302-1.685-12.816-4.303-22.053-16.404-22.053-30.67z" fill="#ffcb39"/><path d="m480 220.909c-17.673 0-32-14.327-32-32v-32h64v32c0 17.674-14.327 32-32 32z" fill="#f5fcff"/><path d="m478 188.909v-32h-30v32c0 17.673 14.327 32 32 32 5.42 0 10.526-1.348 15-3.727-10.114-5.376-17-16.02-17-28.273z" fill="#dff1f7"/><path d="m352 220.909c-17.673 0-32-14.327-32-32v-32h64v32c0 17.674-14.327 32-32 32z" fill="#f5fcff"/><path d="m350 188.909v-32h-30v32c0 17.673 14.327 32 32 32 5.42 0 10.526-1.348 15-3.727-10.114-5.376-17-16.02-17-28.273z" fill="#dff1f7"/><path d="m31.062 220.909c-17.155 0-31.062-13.907-31.062-31.062v-32.938h64v31.062c0 18.192-14.747 32.938-32.938 32.938z" fill="#ea4959"/><path d="m30 189.847v-32.938h-30v32.938c0 17.155 13.907 31.062 31.062 31.062 5.496 0 10.678-1.347 15.234-3.728-9.704-5.253-16.296-15.523-16.296-27.334z" fill="#d83a51"/><path d="m190.906 156.908 80.547-107.395-15.453-20.604-96 127.999z" fill="#dff1f7"/><path d="m224 220.909c-17.673 0-32-14.327-32-32v-32h64v32c0 17.674-14.327 32-32 32z" fill="#fff"/><path d="m222 188.909v-32h-30v32c0 17.673 14.327 32 32 32 5.42 0 10.526-1.348 15-3.727-10.114-5.376-17-16.02-17-28.273z" fill="#dff1f7"/><path d="m288 220.909c-17.673 0-32-14.327-32-32v-32h64v32c0 17.674-14.327 32-32 32z" fill="#ea4959"/><path d="m286 188.909v-32h-30v32c0 17.673 14.327 32 32 32 5.42 0 10.526-1.348 15-3.727-10.114-5.376-17-16.02-17-28.273z" fill="#d83a51"/><path d="m96 220.909c-17.673 0-32-14.327-32-32v-32h64v32c0 17.674-14.327 32-32 32z" fill="#f5fcff"/><path d="m94 188.909v-32h-30v32c0 17.673 14.327 32 32 32 5.42 0 10.526-1.348 15-3.727-10.114-5.376-17-16.02-17-28.273z" fill="#dff1f7"/><path d="m160 220.909c-17.673 0-32-14.327-32-32v-32h64v32c0 17.674-14.327 32-32 32z" fill="#ea4959"/><path d="m158 188.909v-32h-30v32c0 17.673 14.327 32 32 32 5.42 0 10.526-1.348 15-3.727-10.114-5.376-17-16.02-17-28.273z" fill="#d83a51"/><path d="m416 220.909c-17.673 0-32-14.327-32-32v-32h64v32c0 17.674-14.327 32-32 32z" fill="#ea4959"/><path d="m414 188.909v-32h-30v32c0 17.673 14.327 32 32 32 5.42 0 10.526-1.348 15-3.727-10.114-5.376-17-16.02-17-28.273z" fill="#d83a51"/><path d="m383.996 487.211h-255.996v-35.302c0-3.866 3.134-7 7-7h241.996c3.866 0 7 3.134 7 7z" fill="#618baa"/><path d="m128 451.909v35.302h30.906v-42.302h-23.906c-3.866 0-7 3.134-7 7z" fill="#4e7693"/><path d="m505 508.909h-498c-3.866 0-7-3.134-7-7v-18c0-3.866 3.134-7 7-7h498c3.866 0 7 3.134 7 7v18c0 3.866-3.134 7-7 7z" fill="#356487"/><path d="m0 483.909v18c0 3.866 3.134 7 7 7h23.906v-32h-23.906c-3.866 0-7 3.134-7 7z" fill="#20526b"/><circle cx="256" cy="19.091" fill="#356487" r="16"/></g></svg>