<svg height="512" viewBox="0 0 64 64" width="512" xmlns="http://www.w3.org/2000/svg"><g id="_14-Carrot" data-name="14-Carrot"><path d="m31.41 22.16-1.41-1.41 5.91-9.85a3.91 3.91 0 0 1 6.09-.76 3.9 3.9 0 0 1 -.75 6.11z" fill="#20d665"/><path d="m38.78 17.11-7.78 4.66.39.39 9.86-5.91a3.89 3.89 0 0 0 -2-7.23 4.81 4.81 0 0 1 .48.42 4.9 4.9 0 0 1 -.95 7.67z" fill="#1dca5f"/><path d="m34 20.75-1.41 1.41-9.86-5.91a3.9 3.9 0 0 1 -.73-6.11 3.91 3.91 0 0 1 6.11.76z" fill="#31e170"/><path d="m32.59 22.16 1.41-1.41-5.91-9.85a3.88 3.88 0 0 0 -4.24-1.77 4.7 4.7 0 0 1 1.09 1.25l5.92 9.86a1 1 0 0 1 .05.92z" fill="#20d665"/><path d="m33 19h-2l-2.79-11.15a3.91 3.91 0 0 1 3.79-4.85 3.91 3.91 0 0 1 3.79 4.85z" fill="#59e78b"/><path d="m32 3a3.91 3.91 0 0 0 -.91.11 4.43 4.43 0 0 1 .78.78 4.87 4.87 0 0 1 .89 4.2l-2.24 9 .48 1.91h2l2.79-11.15a3.91 3.91 0 0 0 -3.79-4.85z" fill="#31e170"/><path d="m32 61a3.67 3.67 0 0 1 -3.6-2.94l-6-29.3a9.8 9.8 0 0 1 9.6-11.76 9.8 9.8 0 0 1 9.6 11.76l-6 29.3a3.67 3.67 0 0 1 -3.6 2.94z" fill="#fcb860"/><path d="m32.85 17.05a10.79 10.79 0 0 1 5.93 11.95l-6 29.3a4.63 4.63 0 0 1 -1.59 2.64 3.63 3.63 0 0 0 4.41-2.84l6-29.3a9.79 9.79 0 0 0 -8.75-11.75z" fill="#fcaa52"/><path d="m11 53a7.91 7.91 0 0 1 3.26.7 8 8 0 0 1 10.74-2.61 8 8 0 0 1 14 0 8 8 0 0 1 10.74 2.61 7.91 7.91 0 0 1 3.26-.7 8 8 0 0 1 8 8h-58a8 8 0 0 1 8-8z" fill="#b38051"/><path d="m53.13 53a9 9 0 0 1 4.87 8h3a8 8 0 0 0 -7.87-8z" fill="#aa744c"/><path d="m53 52a9 9 0 0 0 -2.9.48 9 9 0 0 0 -10.77-2.69 8.68 8.68 0 0 0 -.82-1l4.07-19.79a10.76 10.76 0 0 0 -2.22-9 9.85 9.85 0 0 0 -1.23-1.27l2.65-1.59a4.91 4.91 0 1 0 -5.2-8.32l.18-.7a4.91 4.91 0 1 0 -9.52 0l.18.7a4.92 4.92 0 0 0 -2.08-.82 4.9 4.9 0 0 0 -3.12 9.07l2.65 1.59a11.15 11.15 0 0 0 -1.57 1.71 1 1 0 1 0 1.62 1.18 8.69 8.69 0 0 1 7.08-3.55 8.79 8.79 0 0 1 8.62 10.56l-1.12 5.44h-6.5a1 1 0 0 0 0 2h6.09l-2.33 11.38a8.9 8.9 0 0 0 -9.52 0l-1.1-5.38h4.86a1 1 0 0 0 0-2h-5.27l-2.14-10.4h7.41a1 1 0 0 0 0-2h-7.76a9.34 9.34 0 0 1 .1-2.42 1 1 0 0 0 -2-.36 10.88 10.88 0 0 0 0 4.14l4.07 19.85a8.68 8.68 0 0 0 -.82 1 9 9 0 0 0 -10.69 2.67 9 9 0 0 0 -11.9 8.52 1 1 0 0 0 1 1h48a1 1 0 0 0 0-2h-46.93a7 7 0 0 1 9.78-5.39 1 1 0 0 0 1.25-.37 7 7 0 0 1 9.42-2.24 1 1 0 0 0 .77.1 1 1 0 0 0 .6-.48 7 7 0 0 1 12.22 0 1 1 0 0 0 .6.48 1 1 0 0 0 .77-.1 7 7 0 0 1 9.42 2.28 1 1 0 0 0 1.25.37 7 7 0 0 1 9.78 5.35h-4.93a1 1 0 0 0 0 2h6a1 1 0 0 0 1-1 9 9 0 0 0 -9-9zm-16.23-40.59a2.9 2.9 0 1 1 4 4l-3.39 2a10.68 10.68 0 0 0 -2.67-1.08l.64-2.53zm-13.52 4a2.86 2.86 0 0 1 -1.39-2.13 2.89 2.89 0 0 1 .83-2.41 2.9 2.9 0 0 1 4.54.56l1.44 2.41.64 2.52a10.71 10.71 0 0 0 -2.67 1.09zm8 .65-2.07-8.45a2.91 2.91 0 1 1 5.64 0l-2.11 8.39c-.24 0-.47 0-.71 0s-.47 0-.71 0z"/></g></svg>