<svg height="512" viewBox="0 0 64 64" width="512" xmlns="http://www.w3.org/2000/svg"><g id="Cashier"><path d="m26.73 15.56-1.16-.29c-.52-.13-1.04-.25-1.57-.36v5.09h2a2 2 0 0 1 1 .27v-4.66a2.558 2.558 0 0 1 -.27-.05z" fill="#54555b"/><path d="m7.27 15.56a2.558 2.558 0 0 1 -.27.05v4.66a2 2 0 0 1 1-.27h2v-5.09c-.53.11-1.05.23-1.57.36z" fill="#54555b"/><path d="m26 20h-18a2 2 0 0 0 -2 2v1a2 2 0 0 0 2 2h18a2 2 0 0 0 2-2v-1a2 2 0 0 0 -2-2z" fill="#e8c4c4"/><path d="m21 27.74v4.26l-4 4-4-4v-4.26a6.979 6.979 0 0 0 8 0z" fill="#e8c4c4"/><path d="m10 13.91v8.09a7 7 0 0 0 14 0v-8.09a34.742 34.742 0 0 0 -14 0z" fill="#ffe1e1"/><path d="m31 40.47v5.53h-28v-5.53a4.02 4.02 0 0 1 2.21-3.58l3.79-1.89 4-3 4 4 4-4 4 3 3.79 1.89a4.02 4.02 0 0 1 2.21 3.58z" fill="#f25353"/><path d="m21 1h-8a6 6 0 0 0 -6 6v4.29l.02-.01a40.623 40.623 0 0 1 19.96 0l.02.01v-4.29a6 6 0 0 0 -6-6z" fill="#d63e3e"/><path d="m26.726 15.561-1.16-.294a34.815 34.815 0 0 0 -17.132 0l-1.16.294a2.1 2.1 0 0 1 -2.5-1.337 2.105 2.105 0 0 1 1.466-2.745l.783-.2a40.567 40.567 0 0 1 19.958 0l.783.2a2.105 2.105 0 0 1 1.466 2.745 2.1 2.1 0 0 1 -2.504 1.337z" fill="#f25353"/><path d="m21 39 4-4-4-3-4 4z" fill="#d63e3e"/><path d="m13 39-4-4 4-3 4 4z" fill="#d63e3e"/><path d="m40 35h6v4h-6z" fill="#3b3d44"/><path d="m5 53h54v10h-54z" fill="#f2933d"/><path d="m36 39h22v8h-22z" fill="#54555b"/><rect fill="#54555b" height="10" rx="3" width="14" x="36" y="25"/><path d="m39 28h8v4h-8z" fill="#3b3d44"/><path d="m1 47h62v6h-62z" fill="#ffac5a"/><g fill="#352d34"><path d="m63 46h-4v-7a1 1 0 0 0 -1-1h-11v-2a4 4 0 0 0 4-4v-4a4 4 0 0 0 -4-4h-8a4 4 0 0 0 -4 4v4a4 4 0 0 0 4 4v2h-3a1 1 0 0 0 -1 1v7h-3v-5.528a4.973 4.973 0 0 0 -2.764-4.472l-3.709-1.855-3.527-2.645v-3.265a8.056 8.056 0 0 0 1.918-2.235h2.082a3 3 0 0 0 3-3v-1a2.985 2.985 0 0 0 -1-2.22v-3.257a3.1 3.1 0 0 0 .008-6.012h-.008v-3.511a7.008 7.008 0 0 0 -7-7h-8a7.008 7.008 0 0 0 -7 7v3.508h-.008a3.106 3.106 0 0 0 -2.163 4.048 3.081 3.081 0 0 0 2.171 1.971v3.253a2.985 2.985 0 0 0 -1 2.22v1a3 3 0 0 0 3 3h2.082a8.056 8.056 0 0 0 1.918 2.235v3.265l-3.527 2.645-3.709 1.855a4.973 4.973 0 0 0 -2.764 4.472v5.528h-1a1 1 0 0 0 -1 1v6a1 1 0 0 0 1 1h3v9a1 1 0 0 0 2 0v-9h52v9a1 1 0 0 0 2 0v-9h3a1 1 0 0 0 1-1v-6a1 1 0 0 0 -1-1zm-26-14v-4a2 2 0 0 1 2-2h8a2 2 0 0 1 2 2v4a2 2 0 0 1 -2 2h-8a2 2 0 0 1 -2-2zm4 4h4v2h-4zm-4 4h20v6h-20zm-15.906-6.68 2.384 1.788-2.572 2.572-2.384-1.788zm-10.094-11.32v-6.259a33.928 33.928 0 0 1 12 0v6.259a6 6 0 0 1 -12 0zm16 1a1 1 0 0 1 -1 1h-1.263a7.953 7.953 0 0 0 .263-2v-1h1a1 1 0 0 1 1 1zm-2-4v-2.835c.106.026.215.044.321.071l.679.173v2.591zm-12-17h8a5.006 5.006 0 0 1 5 5v3.04a41.682 41.682 0 0 0 -18 0v-3.04a5.006 5.006 0 0 1 5-5zm-7.286 11.89a1.105 1.105 0 0 1 .771-1.442l.782-.2a39.675 39.675 0 0 1 19.466 0l.783.2a1.105 1.105 0 1 1 -.544 2.142 37.209 37.209 0 0 0 -9.972-1.39 37.082 37.082 0 0 0 -9.972 1.391 1.1 1.1 0 0 1 -1.314-.701zm2.286 2.519.68-.173c.106-.027.214-.045.32-.07v2.834h-1zm0 7.591a1 1 0 0 1 -1-1v-1a1 1 0 0 1 1-1h1v1a7.953 7.953 0 0 0 .263 2zm9 6a7.945 7.945 0 0 0 3-.589v2.175l-3 3-3-3v-2.175a7.945 7.945 0 0 0 3 .589zm-4.094 3.32 2.572 2.572-2.384 1.788-2.572-2.572zm-8.906 7.152a2.983 2.983 0 0 1 1.658-2.683l3.142-1.572 3.49 3.49a1 1 0 0 0 1.31.093l3.4-2.55 3.4 2.55a1 1 0 0 0 1.307-.093l3.49-3.49 3.145 1.572a2.983 2.983 0 0 1 1.658 2.683v5.528h-4v-3a1 1 0 0 0 -2 0v3h-14v-3a1 1 0 0 0 -2 0v3h-4zm58 11.528h-60v-4h60z"/><path d="m47 33a1 1 0 0 0 1-1v-4a1 1 0 0 0 -1-1h-8a1 1 0 0 0 -1 1v4a1 1 0 0 0 1 1zm-7-4h6v2h-6z"/></g></g></svg>