<svg height="512" viewBox="0 0 128 128" width="512" xmlns="http://www.w3.org/2000/svg"><g><g><g fill="#ffccbe"><path d="m26.537 39.375a1.75 1.75 0 0 0 -1.75 1.75v4.775a1.75 1.75 0 0 0 3.5 0v-4.77a1.75 1.75 0 0 0 -1.75-1.755z"/><path d="m34.748 39.375a1.75 1.75 0 0 0 -1.748 1.75v4.775a1.75 1.75 0 0 0 3.5 0v-4.77a1.75 1.75 0 0 0 -1.752-1.755z"/><path d="m42.958 39.375a1.75 1.75 0 0 0 -1.75 1.75v4.775a1.75 1.75 0 1 0 3.5 0v-4.77a1.75 1.75 0 0 0 -1.75-1.755z"/><path d="m85.042 39.375a1.75 1.75 0 0 0 -1.75 1.75v4.775a1.75 1.75 0 1 0 3.5 0v-4.77a1.75 1.75 0 0 0 -1.75-1.755z"/><path d="m93.252 39.375a1.75 1.75 0 0 0 -1.75 1.75v4.775a1.75 1.75 0 0 0 3.5 0v-4.77a1.75 1.75 0 0 0 -1.75-1.755z"/><path d="m101.463 39.375a1.75 1.75 0 0 0 -1.75 1.75v4.775a1.75 1.75 0 1 0 3.5 0v-4.77a1.75 1.75 0 0 0 -1.75-1.755z"/></g><path d="m51.375 45.895h25.25v33.534h-25.25z" fill="#ffddce"/><path d="m79.671 45.895h-31.342l15.671-19.358z" fill="#fff4f4"/><path d="m76.625 64v8.417h-8.417v-8.417h-8.416v8.417h-8.417v-8.417h-8.417v36.987h42.084v-36.987z" fill="#ffccbe"/><path d="m26.537 45.895h16.421v55.093h-16.421z" fill="#ffddce"/><path d="m64 84.333a7.667 7.667 0 0 0 -7.667 7.667v8.987h15.334v-8.987a7.667 7.667 0 0 0 -7.667-7.667z" fill="#ffddce"/><path d="m34.748 54.051a3.36 3.36 0 0 0 -3.36 3.36v3.939h6.72v-3.939a3.36 3.36 0 0 0 -3.36-3.36z" fill="#ffccbe"/><path d="m34.748 70.991a3.36 3.36 0 0 0 -3.36 3.36v3.94h6.72v-3.94a3.36 3.36 0 0 0 -3.36-3.36z" fill="#ffccbe"/><path d="m85.042 45.895h16.421v55.093h-16.421z" fill="#ffddce"/><g fill="#ffccbe"><path d="m93.252 54.051a3.36 3.36 0 0 0 -3.36 3.36v3.939h6.72v-3.939a3.36 3.36 0 0 0 -3.36-3.36z"/><path d="m93.252 70.991a3.36 3.36 0 0 0 -3.36 3.36v3.94h6.72v-3.94a3.36 3.36 0 0 0 -3.36-3.36z"/></g></g><g fill="#002e49"><path d="m55.064 37.576a1.748 1.748 0 0 0 2.461-.26l.489-.6a1.75 1.75 0 1 0 -2.721-2.2l-.488.6a1.748 1.748 0 0 0 .259 2.46z"/><path d="m49.625 65.75v6.667a1.75 1.75 0 0 0 1.75 1.75h8.417a1.75 1.75 0 0 0 0-3.5h-6.667v-23.022h26.546a1.751 1.751 0 0 0 1.36-2.852l-15.671-19.356a1.749 1.749 0 0 0 -2.72 0l-3.981 4.916a1.75 1.75 0 0 0 2.721 2.2l2.62-3.234 12 14.826h-24l1.809-2.234a1.751 1.751 0 0 0 -2.721-2.2l-4.117 5.085a1.751 1.751 0 0 0 1.36 2.852h1.3v14.6h-4.923v-21.123a1.75 1.75 0 0 0 -3.5 0v3.02h-4.708v-3.02a1.75 1.75 0 0 0 -3.5 0v3.02h-4.713v-3.02a1.75 1.75 0 0 0 -3.5 0v59.862a1.749 1.749 0 0 0 1.75 1.75h16.421a1.749 1.749 0 0 0 1.75-1.75v-35.237zm-8.417 33.487h-12.921v-51.592h12.921z"/><path d="m34.748 52.3a5.116 5.116 0 0 0 -5.11 5.11v3.94a1.75 1.75 0 0 0 3.5 0v-3.939a1.61 1.61 0 0 1 3.22 0v3.939a1.75 1.75 0 0 0 3.5 0v-3.939a5.116 5.116 0 0 0 -5.11-5.111z"/><path d="m34.748 69.241a5.117 5.117 0 0 0 -5.11 5.111v3.939a1.75 1.75 0 0 0 1.75 1.75h6.72a1.75 1.75 0 0 0 1.75-1.75v-3.939a5.117 5.117 0 0 0 -5.11-5.111zm1.61 7.3h-3.22v-2.189a1.61 1.61 0 1 1 3.22 0z"/><path d="m88.142 57.411v3.939a1.75 1.75 0 0 0 1.75 1.75h6.72a1.75 1.75 0 0 0 1.75-1.75v-3.939a5.11 5.11 0 1 0 -10.22 0zm6.72 0v2.189h-3.22v-2.189a1.61 1.61 0 1 1 3.22 0z"/><path d="m93.252 69.241a5.117 5.117 0 0 0 -5.11 5.111v3.939a1.75 1.75 0 0 0 3.5 0v-3.939a1.61 1.61 0 1 1 3.22 0v3.939a1.75 1.75 0 0 0 3.5 0v-3.939a5.117 5.117 0 0 0 -5.11-5.111z"/><path d="m101.463 39.375a1.75 1.75 0 0 0 -1.75 1.75v3.02h-4.713v-3.02a1.75 1.75 0 0 0 -3.5 0v3.02h-4.71v-3.02a1.75 1.75 0 0 0 -3.5 0v21.125h-4.915v-10.615a1.75 1.75 0 1 0 -3.5 0v19.032h-4.917v-6.667a1.75 1.75 0 0 0 -1.75-1.75h-8.416a1.75 1.75 0 0 0 -1.75 1.75v3a1.75 1.75 0 0 0 3.5 0v-1.25h4.916v6.667a1.75 1.75 0 0 0 1.75 1.75h8.417a1.75 1.75 0 0 0 1.75-1.75v-6.667h4.917v33.487h-25.209v-7.237a5.917 5.917 0 0 1 11.834 0v3.667a1.75 1.75 0 0 0 3.5 0v-3.667a9.417 9.417 0 0 0 -18.834 0v7.237h-5.083a1.75 1.75 0 0 0 0 3.5h51.963a1.749 1.749 0 0 0 1.75-1.75v-59.862a1.75 1.75 0 0 0 -1.75-1.75zm-1.75 59.862h-12.921v-51.592h12.921z"/></g></g></svg>