<svg id="Layer_1" viewBox="0 0 1000 1000" xmlns="http://www.w3.org/2000/svg" data-name="Layer 1"><path d="m116 825.39h768v37.36h-768z" fill="#616161"/><path d="m884 425.78v367.61h-22.2v-73a47.59 47.59 0 0 0 -47.54-47.54h-8.84a47.59 47.59 0 0 0 -47.54 47.54v73h-22.19v-367.61z" fill="#ffcc80"/><path d="m829.8 720.34v73h-39.92v-73a15.56 15.56 0 0 1 15.54-15.54h8.84a15.56 15.56 0 0 1 15.54 15.54z" fill="#8d6e63"/><path d="m264.31 425.78v367.61h-22.19v-73a47.59 47.59 0 0 0 -47.54-47.54h-8.84a47.59 47.59 0 0 0 -47.54 47.54v73h-22.2v-367.61z" fill="#ffcc80"/><path d="m210.12 720.34v73h-39.92v-73a15.56 15.56 0 0 1 15.54-15.54h8.84a15.56 15.56 0 0 1 15.54 15.54z" fill="#8d6e63"/><path d="m703.69 484.73v308.66h-63.18v-185.68a33.3 33.3 0 0 0 -16.9-29l-107.27-60.51a33.37 33.37 0 0 0 -32.68 0l-107.27 60.56a33.3 33.3 0 0 0 -16.9 29v185.63h-63.18v-308.66h34.21a16 16 0 0 0 16-16v-46.88a20 20 0 1 1 39.92 0v46.88a16 16 0 0 0 16 16h61.56a16 16 0 0 0 16-16v-46.88a20 20 0 0 1 39.92 0v46.88a16 16 0 0 0 16 16h61.6a16 16 0 0 0 16-16v-46.88a20 20 0 1 1 39.92 0v46.88a16 16 0 0 0 16 16z" fill="#ffcc80"/><path d="m608.51 607.71v185.68h-31.15v-132.39a16 16 0 0 0 -32 0v132.39h-29.36v-175.88a16 16 0 0 0 -32 0v175.88h-29.36v-132.39a16 16 0 0 0 -32 0v132.39h-31.15v-185.68a1.26 1.26 0 0 1 .63-1.09l107.27-60.56a1.26 1.26 0 0 1 1.22 0l107.27 60.56a1.26 1.26 0 0 1 .63 1.09z" fill="#8d6e63"/><path d="m869.08 267.57v126.21h-12.94v-55.93a46.11 46.11 0 0 0 -92.22 0v55.93h-13.31v-126.21z" fill="#ffcc80"/><path d="m824.14 337.85v55.93h-28.22v-55.93a14.11 14.11 0 0 1 28.22 0z" fill="#8d6e63"/><path d="m857.37 235.57h-95.05l47.52-82.32z" fill="#e53935"/><path d="m249.39 267.57v126.21h-12.93v-55.93a46.12 46.12 0 0 0 -92.23 0v55.93h-13.31v-126.21z" fill="#ffcc80"/><path d="m204.46 337.85v55.93h-28.23v-55.93a14.12 14.12 0 0 1 28.23 0z" fill="#8d6e63"/><path d="m237.68 235.57h-95.05l47.53-82.32z" fill="#e53935"/><g fill="#fff" opacity=".5"><path d="m106 835.39h768v37.36h-768z"/><path d="m874 435.78v367.61h-22.2v-73a47.59 47.59 0 0 0 -47.54-47.54h-8.84a47.59 47.59 0 0 0 -47.54 47.54v73h-22.19v-367.61z"/><path d="m819.8 730.34v73h-39.92v-73a15.56 15.56 0 0 1 15.54-15.54h8.84a15.56 15.56 0 0 1 15.54 15.54z"/><path d="m254.31 435.78v367.61h-22.19v-73a47.59 47.59 0 0 0 -47.54-47.54h-8.84a47.59 47.59 0 0 0 -47.54 47.54v73h-22.2v-367.61z"/><path d="m200.12 730.34v73h-39.92v-73a15.56 15.56 0 0 1 15.54-15.54h8.84a15.56 15.56 0 0 1 15.54 15.54z"/><path d="m693.69 494.73v308.66h-63.18v-185.68a33.3 33.3 0 0 0 -16.9-29l-107.27-60.51a33.37 33.37 0 0 0 -32.68 0l-107.27 60.56a33.3 33.3 0 0 0 -16.9 29v185.63h-63.18v-308.66h34.21a16 16 0 0 0 16-16v-46.88a20 20 0 1 1 39.92 0v46.88a16 16 0 0 0 16 16h61.56a16 16 0 0 0 16-16v-46.88a20 20 0 1 1 39.92 0v46.88a16 16 0 0 0 16 16h61.6a16 16 0 0 0 16-16v-46.88a20 20 0 1 1 39.92 0v46.88a16 16 0 0 0 16 16z"/><path d="m598.51 617.71v185.68h-31.15v-132.39a16 16 0 0 0 -32 0v132.39h-29.36v-175.88a16 16 0 0 0 -32 0v175.88h-29.36v-132.39a16 16 0 0 0 -32 0v132.39h-31.15v-185.68a1.26 1.26 0 0 1 .63-1.09l107.27-60.56a1.26 1.26 0 0 1 1.22 0l107.27 60.56a1.26 1.26 0 0 1 .63 1.09z"/><path d="m859.08 277.57v126.21h-12.94v-55.93a46.11 46.11 0 0 0 -92.22 0v55.93h-13.31v-126.21z"/><path d="m814.14 347.85v55.93h-28.22v-55.93a14.11 14.11 0 0 1 28.22 0z"/><path d="m847.37 245.57h-95.05l47.52-82.32z"/><path d="m239.39 277.57v126.21h-12.93v-55.93a46.12 46.12 0 0 0 -92.23 0v55.93h-13.31v-126.21z"/><path d="m194.46 347.85v55.93h-28.23v-55.93a14.12 14.12 0 0 1 28.23 0z"/><path d="m227.68 245.57h-95.05l47.53-82.32z"/></g><g fill="#413b32"><path d="m757.88 809.39v-16h-22.19v16a16 16 0 0 1 -16 16h54.19a16 16 0 0 1 -16-16zm-54.19 0v-16h-407.38v16a16 16 0 0 1 -16 16h439.38a16 16 0 0 1 -16-16zm54.19 0v-16h-22.19v16a16 16 0 0 1 -16 16h54.19a16 16 0 0 1 -16-16zm-54.19 0v-16h-407.38v16a16 16 0 0 1 -16 16h439.38a16 16 0 0 1 -16-16zm54.19 0v-16h-22.19v16a16 16 0 0 1 -16 16h54.19a16 16 0 0 1 -16-16zm-54.19 0v-16h-407.38v16a16 16 0 0 1 -16 16h439.38a16 16 0 0 1 -16-16zm-158.33 0v-16h-90.72v16a16 16 0 0 1 -16 16h122.72a16 16 0 0 1 -16-16zm354.64-16h-800a16 16 0 0 0 -16 16v69.36a16 16 0 0 0 16 16h800a16 16 0 0 0 16-16v-69.36a16 16 0 0 0 -16-16zm-16 69.36h-768v-37.36h768zm-180.31-53.36v-16h-407.38v16a16 16 0 0 1 -16 16h439.38a16 16 0 0 1 -16-16zm54.19 0v-16h-22.19v16a16 16 0 0 1 -16 16h54.19a16 16 0 0 1 -16-16zm-54.19 0v-16h-407.38v16a16 16 0 0 1 -16 16h439.38a16 16 0 0 1 -16-16zm54.19 0v-16h-22.19v16a16 16 0 0 1 -16 16h54.19a16 16 0 0 1 -16-16zm-54.19 0v-16h-407.38v16a16 16 0 0 1 -16 16h439.38a16 16 0 0 1 -16-16zm54.19 0v-16h-22.19v16a16 16 0 0 1 -16 16h54.19a16 16 0 0 1 -16-16z"/><path d="m901.08 393.82c-.36 0-.72 0-1.08 0h-180.31c-.36 0-.72 0-1.08 0a16 16 0 0 0 -14.92 16v399.57a16 16 0 0 0 16 16h180.31a16 16 0 0 0 16-16v-399.61a16 16 0 0 0 -14.92-15.96zm-165.39 399.57v-367.61h148.31v367.61z"/><path d="m814.26 672.8h-8.84a47.59 47.59 0 0 0 -47.54 47.54v89a16 16 0 0 0 16 16h71.92a16 16 0 0 0 16-16v-89a47.59 47.59 0 0 0 -47.54-47.54zm-24.38 120.59v-73a15.56 15.56 0 0 1 15.54-15.54h8.84a15.56 15.56 0 0 1 15.54 15.54v73z"/><path d="m281.39 393.82c-.36 0-.72 0-1.08 0h-180.31c-.36 0-.72 0-1.08 0a16 16 0 0 0 -14.92 16v399.57a16 16 0 0 0 16 16h180.31a16 16 0 0 0 16-16v-399.61a16 16 0 0 0 -14.92-15.96zm-165.39 399.57v-367.61h148.31v367.61z"/><path d="m194.58 672.8h-8.84a47.59 47.59 0 0 0 -47.54 47.54v89a16 16 0 0 0 16 16h71.92a16 16 0 0 0 16-16v-89a47.59 47.59 0 0 0 -47.54-47.54zm-24.38 120.59v-73a15.56 15.56 0 0 1 15.54-15.54h8.84a15.56 15.56 0 0 1 15.54 15.54v73z"/><path d="m719.69 452.73h-34.21v-30.88a52 52 0 1 0 -103.92 0v30.88h-29.56v-30.88a52 52 0 0 0 -103.92 0v30.88h-29.6v-30.88a52 52 0 1 0 -103.92 0v30.88h-34.25a16 16 0 0 0 -16 16v340.66a16 16 0 0 0 16 16h439.38a16 16 0 0 0 16-16v-340.66a16 16 0 0 0 -16-16zm-423.38 340.66v-308.66h34.21a16 16 0 0 0 16-16v-46.88a20 20 0 1 1 39.92 0v46.88a16 16 0 0 0 16 16h61.56a16 16 0 0 0 16-16v-46.88a20 20 0 0 1 39.92 0v46.88a16 16 0 0 0 16 16h61.6a16 16 0 0 0 16-16v-46.88a20 20 0 1 1 39.92 0v46.88a16 16 0 0 0 16 16h34.21v308.66z"/><path d="m623.61 578.76-107.27-60.56a33.37 33.37 0 0 0 -32.68 0l-107.27 60.56a33.3 33.3 0 0 0 -16.9 29v201.63a16 16 0 0 0 16 16h249a16 16 0 0 0 16-16v-201.68a33.3 33.3 0 0 0 -16.88-28.95zm-232.12 214.63v-185.68a1.26 1.26 0 0 1 .63-1.09l107.27-60.56a1.26 1.26 0 0 1 1.22 0l107.27 60.56a1.26 1.26 0 0 1 .63 1.09v185.68z"/><path d="m901.05 250.66c0-.12 0-.24 0-.35s0-.45-.07-.68a1.64 1.64 0 0 0 0-.22c-.05-.31-.1-.62-.16-.93s-.13-.61-.2-.91-.17-.6-.26-.89-.1-.3-.16-.45a3.25 3.25 0 0 0 -.15-.4 4.14 4.14 0 0 0 -.19-.49c-.12-.29-.25-.58-.4-.87s-.31-.6-.48-.9l-.2-.35a16 16 0 0 0 -13.66-7.65h-150.51a16 16 0 0 0 -13.68 7.7l-.18.3-.06.11c-.15.26-.29.52-.42.79s-.28.58-.4.87a4.14 4.14 0 0 0 -.19.49 3.25 3.25 0 0 0 -.15.4c-.06.15-.11.3-.16.45-.12.39-.23.78-.32 1.17s-.18.8-.25 1.21v.11c0 .25-.07.51-.1.76a14.11 14.11 0 0 0 -.08 1.59v158.26a16 16 0 0 0 16 16h150.46a16 16 0 0 0 16-16v-158.21c0-.31 0-.57-.03-.91zm-150.44 143.12v-126.21h118.47v126.21z"/><path d="m810 291.74a46.16 46.16 0 0 0 -46.11 46.11v71.93a16 16 0 0 0 16 16h60.22a16 16 0 0 0 16-16v-71.93a46.16 46.16 0 0 0 -46.11-46.11zm-14.11 102v-55.89a14.11 14.11 0 0 1 28.22 0v55.93z"/><path d="m901.05 250.66c0-.12 0-.24 0-.35s0-.45-.07-.68a1.64 1.64 0 0 0 0-.22c-.05-.31-.1-.62-.16-.93s-.13-.61-.2-.91-.17-.6-.26-.89-.1-.3-.16-.45a3.25 3.25 0 0 0 -.15-.4 4.14 4.14 0 0 0 -.19-.49c-.12-.29-.25-.58-.4-.87s-.31-.6-.48-.9l-.2-.35-75-130a16 16 0 0 0 -27.71 0l-75.06 130-.18.3-.06.11c-.15.26-.29.52-.42.79s-.28.58-.4.87a4.14 4.14 0 0 0 -.19.49 3.25 3.25 0 0 0 -.15.4c-.06.15-.11.3-.16.45-.12.39-.23.78-.32 1.17s-.18.8-.25 1.21v.11c0 .25-.07.51-.1.76a14.11 14.11 0 0 0 -.08 1.59v.39a16 16 0 0 0 16 15.66h150.38a16 16 0 0 0 16-16c0-.26 0-.52-.03-.86zm-138.73-15.09 47.52-82.32 47.53 82.32z"/><path d="m281.31 249.93-.09-.76a.43.43 0 0 1 0-.11 10 10 0 0 0 -.25-1.21c-.09-.39-.2-.78-.32-1.17-.05-.15-.1-.3-.16-.45a3.25 3.25 0 0 0 -.15-.4 4.14 4.14 0 0 0 -.19-.49c-.12-.29-.25-.58-.4-.87s-.27-.53-.42-.79l-.06-.11-.18-.3a16 16 0 0 0 -13.68-7.7h-150.49a16 16 0 0 0 -13.66 7.65l-.2.35q-.25.45-.48.9c-.15.29-.28.58-.4.87a4.14 4.14 0 0 0 -.19.49 3.25 3.25 0 0 0 -.15.4c-.06.15-.11.3-.16.45s-.18.59-.26.89-.14.6-.2.91-.11.62-.15.93a.83.83 0 0 0 0 .22c0 .23-.05.45-.07.68s0 .23 0 .35v.91 158.21a16 16 0 0 0 16 16h150.39a16 16 0 0 0 16-16v-158.26a14.11 14.11 0 0 0 -.08-1.59zm-150.39 143.85v-126.21h118.47v126.21z"/><path d="m190.34 291.74a46.16 46.16 0 0 0 -46.11 46.11v71.93a16 16 0 0 0 16 16h60.23a16 16 0 0 0 16-16v-71.93a46.17 46.17 0 0 0 -46.12-46.11zm-14.11 102v-55.89a14.12 14.12 0 0 1 28.23 0v55.93z"/><path d="m281.31 249.93-.09-.76a.43.43 0 0 1 0-.11 10 10 0 0 0 -.25-1.21c-.09-.39-.2-.78-.32-1.17-.05-.15-.1-.3-.16-.45a3.25 3.25 0 0 0 -.15-.4 4.14 4.14 0 0 0 -.19-.49c-.12-.29-.25-.58-.4-.87s-.27-.53-.42-.79l-.06-.11-.18-.3-75.09-130.02a16.14 16.14 0 0 0 -5.86-5.86 16 16 0 0 0 -21.85 5.86l-75 130-.2.35q-.25.45-.48.9c-.15.29-.28.58-.4.87a4.14 4.14 0 0 0 -.19.49 3.25 3.25 0 0 0 -.15.4c-.06.15-.11.3-.16.45s-.18.59-.26.89-.14.6-.2.91-.11.62-.15.93a.83.83 0 0 0 0 .22c0 .23-.05.45-.07.68s0 .23 0 .35v.91a16 16 0 0 0 16 16h150.36a16 16 0 0 0 16-15.66v-.39a14.11 14.11 0 0 0 -.08-1.62zm-138.68-14.36 47.53-82.32 47.52 82.32z"/><path d="m454.64 661v148.39a16 16 0 0 1 -32 0v-148.39a16 16 0 0 1 32 0z"/><path d="m516 617.51v191.88a16 16 0 0 1 -32 0v-191.88a16 16 0 0 1 32 0z"/><path d="m577.36 661v148.39a16 16 0 0 1 -32 0v-148.39a16 16 0 0 1 32 0z"/></g></svg>