<svg id="Capa_1" enable-background="new 0 0 512 512" height="512" viewBox="0 0 512 512" width="512" xmlns="http://www.w3.org/2000/svg"><g><g><path d="m365.358 320.683 30.305 86.842h-279.326l30.305-86.842z" fill="#30569f"/></g><g><path d="m365.358 320.683h-218.716l-20.786 59.563c14.961 7.122 31.687 11.115 49.33 11.115h161.626c17.643 0 34.37-3.993 49.331-11.116z" fill="#26447e"/></g><g><path d="m322.797 56.391s-30.377-16.565-66.797-16.565-66.797 16.565-66.797 16.565l-73.838-48.89v248.499h281.271v-248.499z" fill="#4172ca"/></g><g><path d="m327.143 53.512c3.763 16.6 5.792 34.23 5.792 52.505 0 62.93-24.02 118.242-60.294 149.983h123.993v-248.499z" fill="#3a67c1"/></g><g><path d="m304.488 48.604v23.365c0 8.93-7.233 16.163-16.163 16.163s-16.163-7.233-16.163-16.163v-31.103c12.496 1.576 23.669 4.697 32.326 7.738z" fill="#688ed5"/></g><g><path d="m239.837 40.866v31.103c0 8.93-7.233 16.163-16.163 16.163s-16.163-7.233-16.163-16.163v-23.365c8.658-3.041 19.831-6.162 32.326-7.738z" fill="#688ed5"/></g><g><path d="m115.365 7.501 34.926 68.362s-28.266 18.676-34.926 49.678z" fill="#e0bba4"/></g><g><path d="m396.635 7.501-34.925 68.362s28.266 18.676 34.926 49.678v-118.04z" fill="#e0bba4"/></g><g><path d="m417.626 472.175h-323.252c-5.579 0-10.102-4.523-10.102-10.102v-44.447c0-5.579 4.523-10.102 10.102-10.102h323.252c5.579 0 10.102 4.523 10.102 10.102v44.447c-.001 5.579-4.523 10.102-10.102 10.102z" fill="#d6f6b2"/></g><g><path d="m417.626 407.525h-30.305c5.579 0 10.102 4.523 10.102 10.102v44.447c0 5.579-4.523 10.102-10.102 10.102h30.305c5.579 0 10.102-4.523 10.102-10.102v-44.447c-.001-5.58-4.523-10.102-10.102-10.102z" fill="#b3e59f"/></g><g><path d="m336.813 367.118h-161.626c-50.211 0-90.914-40.704-90.914-90.914 0-50.211 40.704-90.914 90.914-90.914h161.626c50.211 0 90.914 40.704 90.914 90.914 0 50.21-40.703 90.914-90.914 90.914z" fill="#8face0"/></g><g><path d="m388.746 201.579c7.191 13.015 11.289 27.979 11.289 43.901 0 50.211-40.704 90.914-90.914 90.914h-161.627c-19.31 0-37.209-6.025-51.933-16.29 15.487 28.029 45.337 47.014 79.625 47.014h161.626c50.211 0 90.914-40.704 90.914-90.915.001-30.901-15.419-58.196-38.98-74.624z" fill="#688ed5"/></g><g><circle cx="256" cy="456.012" fill="#f6e266" r="48.488"/></g><g><path d="m279.278 413.472c3.789 6.91 5.948 14.841 5.948 23.278 0 26.779-21.709 48.488-48.488 48.488-8.437 0-16.368-2.158-23.278-5.948 8.238 15.023 24.198 25.21 42.54 25.21 26.779 0 48.488-21.709 48.488-48.488 0-18.342-10.187-34.302-25.21-42.54z" fill="#ffd064"/></g><g><path d="m302.467 472.175h-92.935c-8.926 0-16.163-7.236-16.163-16.163 0-8.926 7.236-16.163 16.163-16.163h92.935c8.926 0 16.163 7.236 16.163 16.163 0 8.927-7.236 16.163-16.163 16.163z" fill="#f9efaf"/></g><g><path d="m256 216.347c16.119 0 27.797 7.111 27.797 15.884s-10.746 22.503-27.797 22.503-27.797-13.73-27.797-22.502 11.678-15.885 27.797-15.885z" fill="#7a8c98"/></g><g><path d="m270.75 218.645c.011.187.023.374.023.562 0 8.772-10.746 22.502-27.797 22.502-4.976 0-9.411-1.175-13.203-3.049 3.562 7.804 12.994 16.073 26.226 16.073 17.051 0 27.797-13.73 27.797-22.502.001-5.758-5.03-10.8-13.046-13.586z" fill="#596c76"/></g><g><path d="m417.63 400.02h-16.642l-13.73-39.345c28.71-17.21 47.97-48.632 47.97-84.472 0-28.245-11.965-53.745-31.087-71.709v-31.633c0-4.143-3.358-7.5-7.5-7.5s-7.5 3.357-7.5 7.5v20.03c-15.168-9.561-33.111-15.102-52.327-15.102h-161.627c-19.216 0-37.16 5.541-52.327 15.102v-66.455c6.182-27.115 31.322-44.154 31.564-44.316 3.187-2.105 4.282-6.269 2.544-9.67l-21.93-42.925 50.021 33.119c2.312 1.53 5.285 1.656 7.723.336.086-.047 2.713-1.448 7.23-3.39v12.379c0 13.047 10.615 23.662 23.663 23.662s23.663-10.615 23.663-23.662v-24.305c2.841-.211 5.732-.333 8.663-.333s5.821.122 8.663.333v24.305c0 13.047 10.615 23.662 23.663 23.662 13.047 0 23.663-10.615 23.663-23.662v-12.379c4.515 1.94 7.139 3.34 7.223 3.385 2.438 1.331 5.414 1.202 7.73-.331l50.021-33.119-21.93 42.925c-1.732 3.391-.636 7.55 2.532 9.661.255.17 25.395 17.21 31.577 44.325v11.424c0 4.143 3.358 7.5 7.5 7.5s7.5-3.357 7.5-7.5v-130.359c0-2.762-1.518-5.3-3.951-6.607-2.433-1.307-5.387-1.172-7.69.354l-70.228 46.499c-9.815-4.64-35.886-15.415-66.271-15.415s-56.456 10.775-66.271 15.415l-70.231-46.5c-2.303-1.523-5.257-1.659-7.69-.354-2.433 1.308-3.951 3.846-3.951 6.607v196.993c-19.123 17.964-31.087 43.464-31.087 71.709 0 35.84 19.26 67.261 47.97 84.472l-13.73 39.345h-16.643c-9.705 0-17.6 7.9-17.6 17.61v44.44c0 9.704 7.896 17.6 17.6 17.6h110.882c9.116 19.537 28.875 32.331 50.748 32.331s41.632-12.794 50.747-32.33h55.153c4.142 0 7.5-3.357 7.5-7.5s-3.358-7.5-7.5-7.5h-37.418c1.059-2.684 1.648-5.603 1.648-8.658 0-11.515-8.27-21.131-19.183-23.231-3.109-6.813-7.508-12.815-12.84-17.761h123.523c1.434 0 2.6 1.171 2.6 2.61v44.44c0 1.434-1.167 2.6-2.6 2.6h-20.73c-4.142 0-7.5 3.357-7.5 7.5s3.358 7.5 7.5 7.5h20.73c9.705 0 17.6-7.896 17.6-17.6v-44.44c0-9.71-7.896-17.61-17.6-17.61zm-46.378-326.35 17.888-35.014v53.677c-6.387-8.562-13.265-14.889-17.888-18.663zm-74.264-1.701c0 4.776-3.886 8.662-8.663 8.662s-8.663-3.886-8.663-8.662v-22.307c6.327 1.205 12.171 2.759 17.325 4.38v17.927zm-64.651 0c0 4.776-3.886 8.662-8.663 8.662-4.776 0-8.663-3.886-8.663-8.662v-17.927c5.155-1.622 10.998-3.176 17.325-4.381v22.308zm-109.477 20.362v-53.675l17.888 35.014c-4.623 3.774-11.501 10.1-17.888 18.661zm-31.087 183.872c0-45.995 37.419-83.414 83.414-83.414h161.626c45.995 0 83.414 37.419 83.414 83.414s-37.419 83.415-83.414 83.415h-161.626c-45.995 0-83.414-37.42-83.414-83.415zm164.227 220.797c-13.507 0-25.915-6.661-33.474-17.325h66.948c-7.559 10.664-19.967 17.325-33.474 17.325zm46.467-32.325h-92.934c-4.776 0-8.663-3.887-8.663-8.663s3.886-8.662 8.663-8.662h92.934c4.776 0 8.663 3.887 8.663 8.663s-3.886 8.662-8.663 8.662zm-79.941-32.325c7.559-10.665 19.967-17.325 33.474-17.325s25.915 6.661 33.474 17.325zm-17.473.431c-10.912 2.1-19.183 11.716-19.183 23.232 0 3.055.588 5.974 1.648 8.657h-93.148c-1.434 0-2.6-1.166-2.6-2.6v-44.44c0-1.439 1.167-2.61 2.6-2.61h44.91c4.142 0 7.5-3.357 7.5-7.5s-3.358-7.5-7.5-7.5h-12.381l11.374-32.592c11.406 4.632 23.866 7.191 36.915 7.191h161.626c13.049 0 25.509-2.559 36.915-7.191l11.374 32.592h-210.823c-4.142 0-7.5 3.357-7.5 7.5s3.358 7.5 7.5 7.5h43.613c-5.332 4.946-9.731 10.948-12.84 17.761z"/><path d="m231.756 328.183c9.71 0 18.416-4.383 24.244-11.273 5.828 6.891 14.534 11.273 24.244 11.273 17.503 0 31.744-14.24 31.744-31.743 0-4.143-3.358-7.5-7.5-7.5s-7.5 3.357-7.5 7.5c0 9.232-7.511 16.743-16.744 16.743s-16.744-7.511-16.744-16.743c0-.219-.014-.435-.033-.65.018-.215.033-.43.033-.65v-33.629c17.396-3.408 27.797-18.256 27.797-29.279 0-13.55-14.844-23.385-35.297-23.385s-35.297 9.835-35.297 23.385c0 11.023 10.401 25.871 27.797 29.279v33.629c0 .219.014.435.033.65-.018.215-.033.43-.033.65 0 9.232-7.511 16.743-16.744 16.743-9.232 0-16.744-7.511-16.744-16.743 0-4.143-3.358-7.5-7.5-7.5s-7.5 3.357-7.5 7.5c0 17.503 14.24 31.743 31.744 31.743zm3.947-95.951c0-2.926 6.971-8.385 20.297-8.385s20.297 5.459 20.297 8.385c0 4.354-7.112 15.002-20.297 15.002s-20.297-10.649-20.297-15.002z"/><path d="m361.281 245.378c3.347 0 6.061-2.714 6.061-6.061s-2.714-6.061-6.061-6.061-6.061 2.714-6.061 6.061c0 3.348 2.713 6.061 6.061 6.061z"/><circle cx="385.457" cy="262.356" r="6.061"/><circle cx="352.915" cy="270.976" r="6.061"/><path d="m156.78 239.318c0-3.347-2.714-6.061-6.061-6.061s-6.061 2.714-6.061 6.061 2.714 6.061 6.061 6.061c3.348-.001 6.061-2.714 6.061-6.061z"/><circle cx="126.543" cy="262.356" r="6.061"/><circle cx="159.085" cy="270.976" r="6.061"/></g></g></svg>