<svg id="Capa_1" enable-background="new 0 0 512 512" height="512" viewBox="0 0 512 512" width="512" xmlns="http://www.w3.org/2000/svg"><g><g><path d="m111.275 104.05c0 7.14-1.49 14.3-4.49 20.99-2.68 5.97-6.5 11.34-11.18 15.91-19.72 19.23-32.984 38.153-42.464 62.983l-10.597-14.003-3.51-6.95c-4.47-8.76-6.7-18.34-6.7-27.92 0-9.02 1.98-18.05 5.95-26.41 2.8-5.89 4.23-12.31 4.23-18.77 0-2.89-.28-5.79-.86-8.65-2.93-14.47-4.39-29.17-4.39-43.87 0-12.25 1.01-24.51 3.05-36.65.64-3.81 2.61-7.11 5.39-9.46.943-.797 1.978-1.484 3.086-2.045 0 0 4.774-.928 7.325-.928 4.23 0 6.849 1.606 9.819 4.606l38.8 66.107c4.351 7.76 6.541 16.4 6.541 25.06z" fill="#ffc5c9"/><path d="m116.661 102.103c0 7.14 2.306 16.761-.694 23.451-2.68 5.97-7.235 17.217-11.915 21.787-19.72 19.23-52.458 60.51-52.458 60.51l-9.049-17.92c9.11-17.92 21.189-34.479 36.059-48.979 4.68-4.57 8.5-9.94 11.18-15.91 3-6.69 4.49-13.85 4.49-20.99 0-8.66-2.19-17.3-6.54-25.06l-38.943-69.787c2.16-1.1 4.593-1.705 7.142-1.705 4.23 0 8.28 1.69 11.25 4.69l42.938 64.853c4.35 7.76 6.54 16.4 6.54 25.06z" fill="#fcb5ba"/><path d="m400.595 104.05c0 7.14 1.49 14.3 4.49 20.99 2.68 5.97 6.5 11.34 11.18 15.91 19.72 19.23 32.984 38.153 42.464 62.983l10.597-14.004 3.51-6.95c4.47-8.76 6.7-18.34 6.7-27.92 0-9.02-1.98-18.05-5.95-26.41-2.8-5.89-4.23-12.31-4.23-18.77 0-2.89.28-5.79.86-8.65 2.93-14.47 4.39-29.17 4.39-43.87 0-12.25-1.01-24.51-3.05-36.65-.64-3.81-2.61-7.11-5.39-9.46-.943-.797-1.978-1.484-3.086-2.045 0 0-4.774-.928-7.325-.928-4.23 0-6.849 1.606-9.819 4.606l-38.8 66.107c-4.351 7.761-6.541 16.401-6.541 25.061z" fill="#ffc5c9"/><path d="m395.209 102.103c0 7.14-2.306 16.761.694 23.451 2.68 5.97 7.235 17.217 11.915 21.787 19.72 19.23 51.426 62.596 51.426 62.596l10.082-20.007c-9.11-17.92-21.189-34.479-36.059-48.979-4.68-4.57-8.5-9.94-11.18-15.91-3-6.69-4.49-13.85-4.49-20.99 0-8.66 2.19-17.3 6.54-25.06l38.943-69.785c-2.16-1.1-4.593-1.705-7.142-1.705-4.23 0-8.28 1.69-11.25 4.69l-42.938 64.853c-4.351 7.759-6.541 16.399-6.541 25.059z" fill="#fcb5ba"/><path d="m264.185 504.5h-17c-12.681 0-24.018-5.757-31.539-14.801 0 0 .159-6.989-1.094-9.252-3.253-5.876-8.367-9.755-8.367-16.947v-13l49.5-14.819 49.5 14.819v13c0 6.83-3.19 12.836-6.144 18.5-1.355 2.598-3.318 7.699-3.318 7.699-7.52 9.044-18.857 14.801-31.538 14.801z" fill="#756e78"/><path d="m472.185 275.5c0 51.304-24.978 102.577-65.214 140.626 0 0-3.887.42-4.61 1.087-4.877 4.494-7.514 9.721-12.806 13.807-9.44 26.8-37.45 46.23-70.55 46.23-8.31 0-16.28-1.23-23.7-3.49-16.56-5.04-31.377-22.817-40.327-36.037-8.96 13.23-22.113 31.017-38.843 36.057-7.47 2.25-15.47 3.47-23.77 3.47-33.1 0-57.394-21.365-66.834-48.165-50.32-38.86-81.83-95.097-81.83-153.447 0-23.32 2.661-45.857 10.851-67.277 6.096-15.967 11.852-31.557 22.245-45.447.902-1.206 2.341-3.655 2.341-3.655 5.036-6.401 10.529-12.519 16.467-18.31 4.68-4.57 8.5-9.94 11.18-15.91 3-6.69 4.49-13.85 4.49-20.99 0-8.66-2.19-17.3-6.54-25.06l-37.55-66.8 88.12 88.93 9.97-1.014 5.236-4.93c25.156-8.771 53.673-13.677 85.173-13.677 31.731 0 60.324 4.931 85.551 13.757l6.438 5.025 8.771.938v.02l88.24-89.05-37.42 66.55c-8.01 14.32-8.79 31.59-2.1 46.57 1.35 3.01 2.97 5.87 4.86 8.56 1.88 2.69 4.01 5.2 6.36 7.51 19.55 19.22 34.19 42 43.56 66.75 8.081 21.342 12.241 44.142 12.241 67.372z" fill="#8b818e"/><path d="m406.815 412.87c-1.37-18.99-10.98-36.39-27.06-49-15.32-12.02-35.25-18.63-56.13-18.63-2.38 0-4.81.09-7.2.26-5.35.39-10.58 1.19-15.64 2.37-1.27.3-2.6-.01-3.58-.87-6.13-5.42-14.08-8.5-22.47-8.5h-37.6c-8.44 0-16.43 3.11-22.58 8.59-.98.87-2.32 1.18-3.6.88-5.17-1.24-10.53-2.07-16.01-2.47-2.39-.17-4.82-.26-7.2-.26-20.88 0-40.81 6.61-56.13 18.63-9.535 7.479-16.784 16.645-21.399 26.828-.914 2.017-3.635 2.358-5.043.65-30.45-36.961-48.739-84.314-48.739-135.938 0-34.68 8.25-67.42 22.9-96.39-11.79 14.92-21.08 31.39-27.74 48.83v.01c-8.19 21.42-12.41 44.32-12.41 67.64 0 58.35 32.31 116.66 82.63 155.52 7.66 21.75 27.56 38.65 52.49 44.24.016-.087.028-.172.044-.259 5.655 1.458 11.673 2.249 18.018 2.249 8.3 0 16.3-1.22 23.77-3.47 16.73-5.04 29.88-22.83 38.84-36.06 8.95 13.22 23.77 31 40.33 36.04 7.42 2.26 15.39 3.49 23.7 3.49 33.1 0 61.11-19.43 70.55-46.23 6.07-4.69 11.896-9.664 17.416-14.894-.021-1.08-.077-2.166-.157-3.256z" fill="#756e78"/><path d="m305.185 450.5v13c0 9.96-3.55 19.09-9.46 26.2-14.281-3.705-27.189-10.658-37.293-20.123-1.552-1.454-3.942-1.454-5.494 0-10.104 9.465-23.011 16.417-37.292 20.122-5.91-7.11-9.461-16.239-9.461-26.199v-13l49.5-14.82z" fill="#665e66"/><path d="m392.847 413.876c-2.369-32.881-36.133-57.242-75.414-54.412-28.299 2.039-51.737 17.634-61.748 38.488-10.011-20.854-33.449-36.45-61.748-38.488-18.542-1.336-35.855 3.387-49.217 12.205 0 0-6.319 5.233-9.36 8.267-9.218 9.2-11.698 21.542-12.638 34.596-2.369 32.881 23.655 58.064 62.936 60.894 25.894 1.865 49.078-4.98 62.76-21.399 1.415-1.699 2.726-6.515 3.923-8.346 1.581-2.418 5.105-2.418 6.686 0 1.331 2.036 2.803 7.042 4.402 8.913 13.747 16.08 36.986 25.786 62.58 23.942 39.283-2.83 69.206-31.779 66.838-64.66z" fill="#f0e9e6"/><path d="m246.953 455.71c-13.84 15.41-36.6 24.62-61.59 22.83-39.29-2.83-69.21-31.78-66.84-64.66 1.27-17.6 11.52-32.75 26.81-42.6-7.93 8.8-12.95 19.64-13.81 31.6-2.37 32.88 27.55 61.83 66.84 64.66 18.26 1.31 35.32-3.25 48.59-11.83z" fill="#e5dcd8"/><g><path d="m210.435 271.25c0-24.853-20.147-45-45-45-9.439 0-18.198 2.906-25.434 7.872-1.372.942-2.108 2.114-3.364 3.197-9.566 8.252-15.17 20.306-15.17 33.931 0 24.853 19.828 42.239 44.681 42.239 13.255 0 24.007-3.231 32.242-12.351 1.353-1.498 4.204-4.499 4.204-4.499 4.947-7.226 7.841-15.97 7.841-25.389z" fill="#faf8f8"/><path d="m202.688 296.501c-8.09 11.92-21.763 19.749-37.253 19.749-24.85 0-45-20.15-45-45 0-15.49 7.83-29.16 19.75-37.25-4.89 7.2-7.75 15.89-7.75 25.25 0 24.85 20.15 45 45 45 9.35 0 18.053-2.859 25.253-7.749z" fill="#f0e9e6"/></g><g><path d="m391.435 271.25c0-24.853-20.147-45-45-45-9.439 0-18.198 2.906-25.434 7.872-1.372.942-2.108 2.114-3.364 3.197-9.566 8.252-15.17 20.306-15.17 33.931 0 24.853 19.828 42.239 44.681 42.239 13.255 0 24.007-3.231 32.242-12.351 1.353-1.498 4.204-4.499 4.204-4.499 4.947-7.226 7.841-15.97 7.841-25.389z" fill="#faf8f8"/><path d="m383.688 296.501c-8.09 11.92-21.763 19.749-37.253 19.749-24.85 0-45-20.15-45-45 0-15.49 7.83-29.16 19.75-37.25-4.89 7.2-7.75 15.89-7.75 25.25 0 24.85 20.15 45 45 45 9.35 0 18.053-2.859 25.253-7.749z" fill="#f0e9e6"/></g><path d="m274.731 352.5h-37.593c-6.687 0-12.932 3.342-16.641 8.906l-8.88 13.32c-2.215 3.323.167 7.773 4.16 7.773 7.286 0 13.372 5.141 14.827 11.994.217 1.02 1.043 2.134 1.043 3.219l.62 6.116c0 1.208.546 2.352 1.486 3.111l20.307 16.368c1.091.882 2.648.89 3.748.018l20.498-16.362c.958-.759 1.516-1.914 1.516-3.136l.335-6.02c0-1.165.908-2.451 1.157-3.541 1.54-6.739 7.571-11.768 14.777-11.768 3.993 0 6.375-4.451 4.16-7.773l-8.88-13.32c-3.708-5.563-9.953-8.905-16.64-8.905z" fill="#8b818e"/><path d="m281.315 394.268c-.26 1.09-.38 2.222-.38 3.392v6.91c0 1.22-.56 2.37-1.52 3.13l-21.85 17.31c-1.1.87-2.66.86-3.75-.02l-21.39-17.29c-.94-.76-1.49-1.9-1.49-3.11v-6.93c0-1.15-.13-2.31-.38-3.39l23.02 16.72c1.22.88 2.95.89 4.18.02z" fill="#756e78"/></g><g><path d="m51.601 314.45c-3.262-13.008-4.916-26.111-4.916-38.95 0-49.24 19.233-95.117 54.157-129.18 5.445-5.312 9.746-11.439 12.782-18.213 7.573-16.893 6.698-36.624-2.341-52.781l-10.258-18.333 66.185 66.787c2.97 2.997 7.842 2.963 10.768-.118 2.828-2.977 2.555-7.748-.336-10.664l-9.033-9.116c13.068-4.881 26.91-8.615 41.315-11.094 4.06-.699 7.092-4.388 6.531-8.47-.579-4.218-4.524-7.09-8.692-6.378-17.778 3.031-34.786 7.86-50.659 14.333l-83.809-84.573c-3.625-3.972-10.221-7.615-17.359-7.7-11.44 0-21.119 8.188-23.015 19.469-4.656 27.704-4.192 55.711 1.378 83.244 1.542 7.625.553 15.695-2.787 22.721-9.131 19.212-8.816 41.998.844 60.95l11.073 21.723c-7.719 21.247-11.744 43.969-11.744 67.393 0 14.146 1.825 28.557 5.425 42.834.858 3.401 3.912 5.668 7.267 5.668.86 0 1.743-.149 2.609-.467 3.626-1.332 5.554-5.339 4.615-9.085zm-5.632-134.389c-7.652-15.012-8.284-32.824-.992-48.014 4.79-9.978 6.218-21.46 4.024-32.308-5.16-25.502-5.631-51.44-1.4-77.105.327-1.981 1.207-3.866 2.647-5.266 1.503-1.461 3.276-2.199 5.045-2.341 3.047-.245 5.911 1.514 7.404 4.182l35.495 63.441c6.734 12.037 7.386 26.736 1.745 39.321-2.261 5.044-5.48 9.623-9.568 13.61-16.404 16-29.608 34.405-39.31 54.463z"/><path d="m479.685 275.5c0-23.235-3.942-45.781-11.508-66.876l11.16-21.895c9.715-19.059 10.585-41.727 1.188-60.945-3.475-7.107-4.524-15.318-2.955-23.07 1.292-6.381 2.321-12.899 3.062-19.374.47-4.115-2.485-7.833-6.6-8.303-4.116-.465-7.832 2.485-8.303 6.6-.691 6.049-1.653 12.139-2.86 18.102-2.182 10.785-.782 22.198 3.941 32.134 7.146 15.036 6.899 32.868-.661 47.7l-5.555 10.898c-9.601-20.049-22.684-38.446-38.946-54.438-4.121-4.053-7.362-8.688-9.634-13.778-5.695-12.759-5.022-27.655 1.8-39.849l35.386-63.247c1.353-2.419 3.838-4.116 6.609-4.158 2.018-.031 4.093.694 5.813 2.367 1.439 1.4 2.319 3.281 2.645 5.262 1.38 8.373 2.267 16.908 2.638 25.379.181 4.138 3.671 7.333 7.821 7.164 4.138-.181 7.346-3.683 7.164-7.821-.408-9.309-1.398-18.69-2.943-27.882-1.894-11.282-11.573-19.47-23.013-19.47-5.186-.012-12.793 2.584-17.36 7.7l-83.885 84.647c-29.756-12.169-63.029-18.347-99.004-18.347-4.059 0-8.147.081-12.156.241-3.828.153-7.135 3.03-7.455 6.848-.385 4.59 3.343 8.345 7.779 8.151 3.897-.159 7.879-.24 11.833-.24 31.674 0 61.051 5.03 87.508 14.949l-8.964 9.046c-2.969 2.996-3.116 8.047-.057 10.949 1.446 1.372 3.303 2.056 5.159 2.056 1.931 0 3.861-.741 5.327-2.221l66.185-66.787-10.121 18.09c-9.123 16.305-10.022 36.226-2.407 53.288 3.039 6.808 7.35 12.984 12.813 18.358 34.535 33.962 53.555 79.694 53.555 128.773 0 48.723-23.831 98.914-64.281 136.484-2.372-36.006-34.981-61.712-79.305-61.712-9.448 0-17.988 2.015-25.437 4.397-5.191-6.103-12.802-9.669-20.931-9.669h-37.593c-8.184 0-15.839 3.616-21.032 9.794-9.568-2.818-20.419-4.56-28.988-4.56-18.908 0-37.936 6.719-52.206 18.434-14.225 11.677-22.512 27.036-23.652 43.596-20.478-18.962-37.037-41.468-48.258-65.718-1.711-3.697-6.071-5.581-9.825-3.998-3.925 1.656-5.671 6.216-3.901 10.053 11.21 24.306 27.388 46.965 47.299 66.398h-39.325c-4.107 0-7.688 3.164-7.811 7.269-.128 4.247 3.278 7.731 7.497 7.731h57c2.057 6.377 5.184 12.384 9.219 17.872l-47.651 9.266c-4.066.791-6.721 4.728-5.931 8.794.559 2.835 4.216 6.821 8.794 5.931l57.068-11.097c14.52 11.949 34.347 19.332 56.19 19.332 3.823 0 7.605-.233 11.326-.677 7.752 17.299 24.889 28.58 44.234 28.58h17c19.369 0 36.507-11.291 44.25-28.611 3.812.467 7.69.709 11.609.709 21.863 0 41.706-7.396 56.229-19.363l57.23 11.128c2.855.563 6.606-.884 8.314-4.631.378-.829.607-1.735.618-2.646.044-3.556-2.455-6.744-6.069-7.448l-47.827-9.3c4.023-5.479 7.141-11.474 9.193-17.838h56.887c4.107 0 7.688-3.164 7.811-7.269.128-4.247-3.278-7.731-7.497-7.731h-40.149c40.927-39.93 64.902-92.364 64.902-143.501zm-242.548 84.5h37.594c4.18 0 8.083 2.089 10.402 5.567l6.573 9.859c-10.401 2.049-18.271 11.238-18.271 22.231v5.216l-10.101 8v-21.059c0-4.107-3.164-7.688-7.269-7.811-4.247-.128-7.731 3.278-7.731 7.497v21.417l-9.899-7.999v-5.261c0-10.993-7.87-20.182-18.271-22.231l6.573-9.86c2.319-3.477 6.221-5.566 10.4-5.566zm-80.847 100.71 30.076-5.848c4.066-.791 6.721-4.728 5.931-8.794-.791-4.065-4.727-6.716-8.794-5.931l-43.598 8.477c-4.219-4.378-7.61-9.298-9.97-14.615h22.685c4.107 0 7.688-3.164 7.811-7.269.128-4.247-3.278-7.731-7.497-7.731h-26.732c-2.216-31.254 30.574-53.984 60.915-53.766 6.373 0 13.641 1.148 20.019 2.692l-1.568 2.351c-2.402 3.603-2.991 8.207-1.268 12.18 1.983 4.572 6.417 7.482 11.32 7.542 4.29.053 7.813 3.368 7.813 7.658v8.843c0 2.266 1.024 4.41 2.786 5.833l22.113 17.869v12.447c-11.746 16.365-33.245 26.448-56.709 26.448-13.006.002-25.129-3.087-35.333-8.386zm107.895 36.29h-17c-12.194 0-23.101-6.497-28.988-16.707 14.862-4.377 28.007-12.361 37.638-23.074 9.575 10.652 22.625 18.606 37.382 22.999-5.875 10.255-16.802 16.782-29.032 16.782zm107.61-48.418-43.429-8.445c-4.063-.785-8.003 1.865-8.794 5.931s1.865 8.003 5.931 8.794l29.93 5.82c-10.215 5.316-22.358 8.416-35.389 8.416-23.465 0-44.964-10.083-56.709-26.448v-12.641l22.257-17.63c1.796-1.423 2.843-3.588 2.843-5.879v-8.843c0-4.29 3.523-7.605 7.813-7.658 4.903-.06 9.337-2.97 11.32-7.542 1.723-3.973 1.134-8.577-1.268-12.18l-1.741-2.612c5.176-1.408 10.668-2.393 16.54-2.393 37.923.112 66.251 22.452 64.366 53.728h-26.216c-4.107 0-7.688 3.164-7.811 7.269-.128 4.247 3.278 7.731 7.497 7.731h22.798c-2.354 5.303-5.734 10.212-9.938 14.582z"/><path d="m165.435 218.75h-44.686c-4.107 0-7.688 3.164-7.811 7.269-.128 4.247 3.278 7.731 7.497 7.731h8.308c-10.438 10.216-16.652 24.731-15.715 40.656 1.553 26.369 22.882 47.698 49.251 49.251 15.925.938 30.44-5.276 40.656-15.715v8.243c0 4.107 3.164 7.688 7.269 7.811 4.247.128 7.731-3.278 7.731-7.497v-45c0-.028-.004-.055-.004-.084 0-.056.004-.111.004-.166 0-28.948-23.551-52.499-52.5-52.499zm4.072 89.784c-23.866 2.529-43.885-17.49-41.356-41.356 1.843-17.389 15.823-31.369 33.212-33.212 23.866-2.529 43.885 17.49 41.356 41.356-1.843 17.389-15.823 31.369-33.212 33.212z"/><path d="m398.931 226.019c-.123-4.105-3.704-7.269-7.811-7.269h-44.686c-28.949 0-52.5 23.551-52.5 52.5 0 .123.008.243.009.366v44.57c0 4.107 3.164 7.688 7.269 7.811 4.247.128 7.731-3.278 7.731-7.497v-8.548c9.536 9.739 22.816 15.798 37.491 15.798 6.196 0 12.26-1.07 18.032-3.18 3.665-1.341 5.972-5.166 5.024-8.952-1.109-4.427-5.764-6.785-9.913-5.233-4.194 1.569-8.616 2.365-13.142 2.365-20.555 0-37.293-16.625-37.491-37.134v-.116c0-.039-.005-.078-.006-.117 0-.045-.003-.088-.003-.133 0-20.678 16.822-37.5 37.5-37.5s37.5 16.822 37.5 37.5c0 5.402-1.12 10.608-3.331 15.477-1.662 3.661-.264 8.135 3.316 9.967 3.826 1.958 8.466.321 10.239-3.54 3.169-6.895 4.776-14.265 4.776-21.904 0-14.679-6.063-27.963-15.808-37.5h8.308c4.219 0 7.624-3.483 7.496-7.731z"/><g><g><path d="m165.435 287.75c-4.142 0-7.5-3.358-7.5-7.5v-18c0-4.142 3.358-7.5 7.5-7.5s7.5 3.358 7.5 7.5v18c0 4.142-3.358 7.5-7.5 7.5z"/></g><g><path d="m346.435 287.75c-4.142 0-7.5-3.358-7.5-7.5v-18c0-4.142 3.358-7.5 7.5-7.5s7.5 3.358 7.5 7.5v18c0 4.142-3.358 7.5-7.5 7.5z"/></g></g></g></g></svg>