<svg height="512" viewBox="0 0 128 128" width="512" xmlns="http://www.w3.org/2000/svg"><g><path d="m75.497 61.907-10.228.001v27.876h-38.448v10.229h48.676z" fill="#405580"/><path d="m113.561 27.038v22.462a5 5 0 0 1 -5 5h-76.356a5 5 0 0 1 -5-5v-8.473h44.3l14.3-10.06z" fill="#405580"/><path d="m113.561 27.038v22.462a5 5 0 0 1 -5 5h-7.8v-25.65z" fill="#283d66"/><path d="m79.389 54.5a9.006 9.006 0 0 1 -18.012 0z" fill="#e6f2ff"/><circle cx="70.383" cy="94.899" fill="#e6f2ff" r="9.006"/><path d="m18.293 83.849 8.528 3.497v15.106l-8.528 3.496z" fill="#cce6ff"/><path d="m6.307 76.003h11.986v37.792h-11.986z" fill="#e6f2ff"/><path d="m71.507 41.027h-44.302v-26.822h94.488v11.682l-35.889 5.08z" fill="#e6f2ff"/><path d="m51.729 27.616a3.907 3.907 0 1 1 -3.907-3.907 3.908 3.908 0 0 1 3.907 3.907z" fill="#ff415b"/><g><path d="m121.693 12.455h-15.527a1.75 1.75 0 0 0 0 3.5h13.777v8.412l-34.383 4.868a1.738 1.738 0 0 0 -.762.3l-13.844 9.742h-42v-23.322h53.819a1.75 1.75 0 0 0 0-3.5h-55.568a1.75 1.75 0 0 0 -1.75 1.75v35.295a6.758 6.758 0 0 0 6.75 6.75h27.578a10.75 10.75 0 0 0 3.736 6.523v23.854a10.819 10.819 0 0 0 -1.408 1.407h-33.54v-.688a1.749 1.749 0 0 0 -1.086-1.619l-7.442-3.051v-6.676a1.75 1.75 0 0 0 -1.75-1.75h-11.986a1.75 1.75 0 0 0 0 3.5h10.236v34.292h-10.236a1.75 1.75 0 0 0 0 3.5h11.986a1.75 1.75 0 0 0 1.75-1.75v-6.673l7.442-3.051a1.749 1.749 0 0 0 1.086-1.619v-.689h9.429a1.75 1.75 0 0 0 0-3.5h-9.429v-6.726h31.6a10.621 10.621 0 0 0 0 6.729h-12.808a1.75 1.75 0 0 0 0 3.5h14.748a10.75 10.75 0 1 0 15.136-15.137v-23.858a10.748 10.748 0 0 0 3.736-6.523h27.578a6.758 6.758 0 0 0 6.75-6.75v-20.937l6.627-.939a1.749 1.749 0 0 0 1.5-1.732v-11.682a1.75 1.75 0 0 0 -1.745-1.75zm-96.622 88.823-5.028 2.062v-16.882l5.028 2.062zm3.884-51.778v-6.723h42.552a1.749 1.749 0 0 0 1.007-.318l13.953-9.817 12.546-1.777v21.88h-66.808a3.254 3.254 0 0 1 -3.25-3.245zm41.428 52.659a7.255 7.255 0 1 1 7.256-7.259 7.264 7.264 0 0 1 -7.256 7.254zm3.364-17.469a10.636 10.636 0 0 0 -6.728 0v-19.99a10.627 10.627 0 0 0 6.728 0zm-3.364-22.939a7.262 7.262 0 0 1 -7.033-5.506h14.066a7.262 7.262 0 0 1 -7.033 5.506zm41.428-12.251a3.254 3.254 0 0 1 -3.25 3.25h-6.048v-22.38l9.3-1.317z"/><path d="m92.011 15.955h4.5a1.75 1.75 0 0 0 0-3.5h-4.5a1.75 1.75 0 0 0 0 3.5z"/><path d="m42.165 27.616a5.657 5.657 0 1 0 5.657-5.657 5.664 5.664 0 0 0 -5.657 5.657zm7.814 0a2.157 2.157 0 1 1 -2.157-2.157 2.159 2.159 0 0 1 2.157 2.157z"/></g></g></svg>