<svg height="512" viewBox="0 0 128 128" width="512" xmlns="http://www.w3.org/2000/svg"><g><path d="m6.307 6.307h78.206v115.386h-78.206z" fill="#80e2ff"/><circle cx="45.41" cy="64" fill="#f3f5e6" r="27.303"/><path d="m84.513 6.307h21.555v115.386h-21.555z" fill="#55c2e3"/><path d="m116.49 75.689a6.181 6.181 0 0 0 -7.561-6.042 6.2 6.2 0 0 0 -8.816-7.3c0-.052.008-.1.008-.155a6.189 6.189 0 0 0 -9.841-5.005 6.19 6.19 0 0 0 -11.533 0 6.19 6.19 0 0 0 -9.842 5.005c0 .052.007.1.008.155a6.2 6.2 0 0 0 -8.815 7.3 6.182 6.182 0 0 0 -7.562 6.042z" fill="#fdca74"/><path d="m62.958 113.444h43.11v8.249h-43.11z" fill="#f9545b"/><path d="m106.355 113.444h-43.683a9 9 0 0 1 -8.8-7.122l-6.539-30.633h74.36l-6.536 30.633a9 9 0 0 1 -8.802 7.122z" fill="#fa7578"/><g><path d="m123.053 74.588a1.748 1.748 0 0 0 -1.36-.649h-3.655a7.957 7.957 0 0 0 -7.085-6.17 7.933 7.933 0 0 0 -3.135-6.255v-55.207a1.749 1.749 0 0 0 -1.75-1.75h-99.761a1.75 1.75 0 0 0 -1.75 1.75v19.438a1.75 1.75 0 0 0 3.5 0v-17.688h74.706v43.643a7.864 7.864 0 0 0 -4.709 3.116 7.877 7.877 0 0 0 -5.172-.246 29.067 29.067 0 1 0 -23.682 38.23l2.962 13.886a10.808 10.808 0 0 0 9.05 8.395v4.86h-53.155v-70.803a1.75 1.75 0 0 0 -3.5 0v72.555a1.75 1.75 0 0 0 1.75 1.75h99.761a1.749 1.749 0 0 0 1.75-1.75v-6.61a10.807 10.807 0 0 0 9.05-8.395l.727-3.407a1.75 1.75 0 1 0 -3.423-.73l-.727 3.406a7.286 7.286 0 0 1 -7.09 5.737h-43.684a7.288 7.288 0 0 1 -7.09-5.737l-6.081-28.518h70.03l-3.4 15.94a1.75 1.75 0 1 0 3.423.73l3.847-18.055a1.744 1.744 0 0 0 -.347-1.466zm-58.345 45.355v-4.749h39.61v4.749zm39.61-59.949a7.634 7.634 0 0 0 -2.751.014 7.947 7.947 0 0 0 -10.595-5.2 7.864 7.864 0 0 0 -4.709-3.108v-43.643h18.055zm-26.6-1.4a1.749 1.749 0 0 0 2.661-.775 4.44 4.44 0 0 1 8.274 0 1.75 1.75 0 0 0 2.661.775 4.439 4.439 0 0 1 7.06 3.556c0 .025-.006.116-.007.14a1.751 1.751 0 0 0 2.568 1.6 4.382 4.382 0 0 1 2.073-.515 4.449 4.449 0 0 1 4.251 5.758 1.749 1.749 0 0 0 2.059 2.22 4.4 4.4 0 0 1 5.061 2.585h-59.729a4.4 4.4 0 0 1 5.061-2.585 1.749 1.749 0 0 0 2.059-2.22 4.452 4.452 0 0 1 4.251-5.758 4.386 4.386 0 0 1 2.074.515 1.751 1.751 0 0 0 2.568-1.6l-.008-.1a4.452 4.452 0 0 1 4.445-4.448 4.406 4.406 0 0 1 2.615.858zm-32.096 17.46 2.84 13.312a26.087 26.087 0 0 1 -3.052.187 25.553 25.553 0 1 1 24.353-33.243 7.962 7.962 0 0 0 -2.3 3.7 7.943 7.943 0 0 0 -9.385 7.761 7.959 7.959 0 0 0 -7.086 6.17h-3.659a1.75 1.75 0 0 0 -1.711 2.115z"/><path d="m6.307 41.649a1.75 1.75 0 0 0 1.75-1.75v-4.499a1.75 1.75 0 0 0 -3.5 0v4.5a1.75 1.75 0 0 0 1.75 1.749z"/><path d="m90.979 68.011a2.245 2.245 0 0 1 2.957 1.137 1.751 1.751 0 0 0 1.6 1.04 1.726 1.726 0 0 0 .71-.152 1.75 1.75 0 0 0 .888-2.309 5.747 5.747 0 0 0 -7.578-2.913 1.749 1.749 0 1 0 1.422 3.2z"/><path d="m72.78 70.037a1.749 1.749 0 0 0 2.31-.889 2.241 2.241 0 0 1 2.958-1.137 1.749 1.749 0 1 0 1.422-3.2 5.738 5.738 0 0 0 -7.578 2.913 1.75 1.75 0 0 0 .888 2.313z"/><path d="m91.542 18.186h7.5a1.75 1.75 0 0 0 0-3.5h-7.5a1.75 1.75 0 0 0 0 3.5z"/><path d="m91.542 28.316h7.5a1.75 1.75 0 0 0 0-3.5h-7.5a1.75 1.75 0 0 0 0 3.5z"/><path d="m99.04 34.947h-7.5a1.75 1.75 0 0 0 0 3.5h7.5a1.75 1.75 0 1 0 0-3.5z"/></g></g></svg>