<svg id="Layer_1" enable-background="new 0 0 128 128" height="512" viewBox="0 0 128 128" width="512" xmlns="http://www.w3.org/2000/svg"><g><g><path d="m93.8 89.3v14.5l-6.7-3.3-6.6 3.3v-14.5l3.1-.3 3.5 2.6 3.6-2.6z" fill="#f79f63"/><path d="m100.3 79.4.5 4.3-3.5 1.5-.6.2-1.7 4.1-1.2-.2-3.1-.3-3.6 2.6-3.5-2.6-4.3.5-1.8-4.1-.5-.2-3.5-1.5.5-4.3-2.6-3.6 2.6-3.5-.5-4.3 4-1.8 1.8-4 4.3.5 3.5-2.6 3.6 2.6 4.3-.5 1.7 4 4.1 1.8-.5 4.3 2.6 3.5z" fill="#f5c464"/><circle cx="87.2" cy="75.8" fill="#f26e53" r="5.7"/><path d="m109.2 30v49.5c0 3.2-2.6 5.8-5.8 5.8h-6.2l3.4-1.5-.5-4.3 2.6-3.5-2.6-3.5.5-4.3-4-1.7-1.7-4-4.3.5-3.5-2.6-3.5 2.6-4.3-.5-1.8 4-4 1.7.5 4.3-2.6 3.5 2.6 3.5-.5 4.3 3.4 1.5h-52.6c-3.2 0-5.8-2.6-5.8-5.8v-49.5c0-3.2 2.6-5.8 5.8-5.8h79.1c3.3 0 5.8 2.6 5.8 5.8z" fill="#009d8f"/><g fill="#fff7ed"><path d="m46.2 75.3h-10.3c-1 0-1.8-.8-1.8-1.8s.8-1.8 1.8-1.8h10.3c1 0 1.8.8 1.8 1.8s-.9 1.8-1.8 1.8z"/><path d="m91.9 50.9h-56c-1 0-1.8-.8-1.8-1.8s.8-1.8 1.8-1.8h56c1 0 1.8.8 1.8 1.8s-.8 1.8-1.8 1.8z"/><path d="m91.9 40h-56c-1 0-1.8-.8-1.8-1.8s.8-1.8 1.8-1.8h56c1 0 1.8.8 1.8 1.8s-.8 1.8-1.8 1.8z"/></g></g><g fill="#250a66"><path d="m103.6 22.4h-79.2c-4.1 0-7.5 3.4-7.5 7.5v11.8c0 1 .8 1.8 1.8 1.8s1.8-.8 1.8-1.8v-11.7c0-2.2 1.8-4 4-4h79.1c2.2 0 4 1.8 4 4v49.5c0 2.2-1.8 4-4 4h-1l-.4-3.6 2.2-3c.5-.6.5-1.5 0-2.1l-2.2-3 .4-3.7c.1-.8-.3-1.5-1-1.8l-3.4-1.5-1.5-3.4c-.3-.7-1-1.1-1.8-1l-3.7.4-3-2.2c-.6-.5-1.5-.5-2.1 0l-3 2.2-3.7-.4c-.8-.1-1.5.3-1.8 1l-1.5 3.4-3.4 1.5c-.7.3-1.1 1-1 1.8l.4 3.7-2.2 3c-.5.6-.5 1.5 0 2.1l2.2 3-.4 3.6h-47.3c-2.2 0-4-1.8-4-4v-15.5c0-1-.8-1.8-1.8-1.8s-1.7.8-1.7 1.8v15.5c0 4.1 3.4 7.5 7.5 7.5h51.9l1.4 3.2c.2.5.6.8 1.1 1v12.7c0 1 .8 1.8 1.8 1.7.3 0 .5-.1.8-.2l5.8-2.9 5.8 2.9c.9.4 1.9.1 2.3-.8.1-.2.2-.5.2-.8v-3.7c0-1-.8-1.8-1.8-1.8s-1.8.8-1.8 1.8v.9l-4.1-2c-.5-.2-1.1-.2-1.6 0l-4.1 2v-10.1l.9-.1 3 2.2c.6.5 1.5.5 2.1 0l3-2.2.9.1v2.6c0 1 .8 1.8 1.8 1.8s1.8-.8 1.8-1.8v-2.3c.5-.1.9-.5 1.1-1l1.4-3.2h5.5c4.1 0 7.5-3.4 7.5-7.5v-49.5c0-4.2-3.4-7.6-7.5-7.6zm-8.4 62.3-1.2 2.9-3.1-.3c-.4-.1-.9.1-1.2.3l-2.5 1.8-2.5-1.8c-.3-.2-.7-.3-1-.3-.1 0-.1 0-.2 0l-3.1.3-1.2-2.8c-.2-.4-.5-.7-.9-.9l-.6-.3-2.2-1 .3-3.1c0-.4-.1-.9-.3-1.2l-1.8-2.5 1.8-2.5c.3-.4.4-.8.3-1.2l-.3-3.1 2.8-1.2c.4-.2.7-.5.9-.9l1.2-2.8 3.1.3c.4 0 .9-.1 1.2-.3l2.5-1.8 2.5 1.8c.4.3.8.4 1.2.3l3.1-.3 1.2 2.8c.2.4.5.7.9.9l2.8 1.2-.3 3.1c0 .4.1.9.3 1.2l1.8 2.5-1.7 2.5c-.3.4-.4.8-.3 1.2l.3 3.1-2.2 1-.6.3c-.5.1-.8.4-1 .8z"/><path d="m87.2 68.3c-4.1 0-7.5 3.4-7.5 7.5s3.4 7.5 7.5 7.5 7.5-3.4 7.5-7.5c0-4.1-3.3-7.5-7.5-7.5zm0 11.5c-2.2 0-4-1.8-4-4s1.8-4 4-4 4 1.8 4 4c0 2.2-1.8 4-4 4z"/><path d="m18.7 55.4c1 0 1.7-.8 1.8-1.8v-1.5c0-1-.8-1.8-1.8-1.8s-1.8.8-1.8 1.8v1.5c0 1.1.8 1.8 1.8 1.8z"/><path d="m36 75.3h10.3c1 0 1.8-.8 1.8-1.8s-.8-1.8-1.8-1.8h-10.3c-1 0-1.8.8-1.8 1.8s.8 1.8 1.8 1.8z"/><path d="m36 50.9h56c1 0 1.8-.8 1.8-1.8s-.8-1.7-1.8-1.7h-56c-1 0-1.8.8-1.8 1.8s.8 1.7 1.8 1.7z"/><path d="m36 40h56c1 0 1.8-.8 1.8-1.8s-.8-1.7-1.8-1.7h-56c-1 0-1.8.8-1.8 1.8s.8 1.7 1.8 1.7z"/></g></g></svg>