<svg id="Layer_1" viewBox="0 0 512 512" xmlns="http://www.w3.org/2000/svg" data-name="Layer 1"><rect fill="#c48958" height="38.28" rx="9.86" width="480" x="16" y="439.89"/><path d="m47.65 164.9h416.7a13.9 13.9 0 0 1 13.86 13.86v261.13h-444.42v-261.13a13.9 13.9 0 0 1 13.86-13.86z" fill="#ecba78" fill-rule="evenodd"/><circle cx="256" cy="62.82" fill="#ffe177" r="28.99"/><rect fill="#5bb68d" height="218.03" rx="5" width="391.96" x="60.02" y="193.38"/><g fill-rule="evenodd"><path d="m91.86 411.41h79.57v-18.52a18.58 18.58 0 0 0 -18.52-18.53h-42.52a18.59 18.59 0 0 0 -18.53 18.53z" fill="#484e53"/><path d="m364.58 376.68 14.05-14a6 6 0 0 1 8.5 0l62.25 62.26a6 6 0 0 1 0 8.5l-14.05 14a6 6 0 0 1 -8.49 0l-62.26-62.25a6 6 0 0 1 0-8.51z" fill="#f4f4f4"/><path d="m208.77 322c9.53-21 33.87-39.93 59.2-46.14 16-3.92 30.18-1.89 39.91 5.71a8.63 8.63 0 0 1 1.66 1.8c3 4.33 5.37 11.47 0 20.93-2.89 5.12-7.34 9.79-11.63 14.3-3.26 3.41-8.62 9-9.13 11.46 3.93 6 11.12 4.78 25.21.81 11.48-3.22 23.35-6.56 33-.1 6.27 4.2 10 11.58 11.27 22.54a8 8 0 0 1 -7 8.89 7.59 7.59 0 0 1 -.92.06 8 8 0 0 1 -7.94-7.06c-.71-5.79-2.22-9.74-4.29-11.13-3.53-2.36-12.15.07-19.77 2.21-13.74 3.86-32.56 9.15-43.24-8-7.15-11.45 3.06-22.16 11.24-30.76 4.56-4.78 10.64-11.18 10.28-14.35-5.84-3.68-14.57-4.33-24.86-1.81-20.21 5-41 21-48.44 37.22a8 8 0 0 1 -14.55-6.58zm279.23 146.3a1.89 1.89 0 0 1 -1.87 1.87h-460.29a1.88 1.88 0 0 1 -1.84-1.87v-18.55a1.87 1.87 0 0 1 1.83-1.86h390.17l5.2 5.2a14.06 14.06 0 0 0 9.93 4.1 13.89 13.89 0 0 0 9.88-4.1l5.21-5.2h39.94a1.88 1.88 0 0 1 1.87 1.86v18.55zm-116.35-87.37 11.23-11.23 59.44 59.43-11.23 11.24zm-218.75-14.57a26.54 26.54 0 0 1 26.53 26.52v10.53h192.06l-12.55-12.57a14 14 0 0 1 0-19.82l14.06-14.02a14 14 0 0 1 19.77 0l46.46 46.44h4.77v-202h-376v202h15.85v-10.56a26.56 26.56 0 0 1 26.52-26.52zm-13.26 16h13.26a10.53 10.53 0 0 1 10.52 10.52v10.53h-23.78zm-39.79 21.05v-10.53a10.54 10.54 0 0 1 10.52-10.52h13.27v21.05zm-52.21-230.51a5.86 5.86 0 0 0 -5.84 5.86v253.13h358.2l-12.47-12.48h-327.53a8 8 0 0 1 -8-8v-218a8 8 0 0 1 8-8h392a8 8 0 0 1 8 8v218a8 8 0 0 1 -5.28 7.5l.32.32a13.83 13.83 0 0 1 3.81 12.66h11.35v-253.13a5.86 5.86 0 0 0 -5.84-5.86zm188.49-78.9a36.88 36.88 0 0 0 39.74 0l62.9 62.91h-165.54zm19.87-52.17a21 21 0 1 1 -21 21 21 21 0 0 1 21-21zm230.2 390.06v-253.13a21.89 21.89 0 0 0 -21.84-21.86h-103l-74.17-74.22a37 37 0 1 0 -62.38 0l-74.21 74.22h-103a21.86 21.86 0 0 0 -21.8 21.86v253.13a17.86 17.86 0 0 0 -17.8 17.86v18.55a17.86 17.86 0 0 0 17.83 17.87h460.29a17.89 17.89 0 0 0 17.88-17.87v-18.55a17.89 17.89 0 0 0 -17.8-17.86z" fill="#242222"/></g></svg>