<svg id="Capa_1" enable-background="new 0 0 512 512" height="512" viewBox="0 0 512 512" width="512" xmlns="http://www.w3.org/2000/svg"><g><g><path d="m340.177 16.593c-102.36 0-164.313 71.823-164.313 71.823l-.003.003v105.963c0 22.316-18.091 40.407-40.407 40.407l272.808.01c35.366.394 63.913 29.173 63.913 64.64v131.321c0-26.779-21.708-48.488-48.488-48.488-26.779 0-48.488 21.708-48.488 48.488 0 35.992 29.401 65.108 65.499 64.645 35.532-.456 63.802-30.073 63.802-65.608v-248.881c0-90.753-73.57-164.323-164.323-164.323z" fill="#66b394"/></g><g><path d="m418.807 36.596c-12.77 63.466-46.878 133.277-99.484 198.199l88.938.003c35.366.394 63.913 29.173 63.913 64.64v131.322c0-26.779-21.708-48.488-48.488-48.488-26.779 0-48.488 21.708-48.488 48.488 0 35.992 29.401 65.108 65.499 64.645 35.532-.456 63.802-30.073 63.802-65.608v-248.881c.001-62.268-34.636-116.444-85.692-144.32z" fill="#5aa687"/></g><g><path d="m340.177 16.593c-102.36 0-164.313 71.823-164.313 71.823l-.003.003v32.325l.003-.003s61.953-71.823 164.313-71.823c90.753 0 164.323 73.57 164.323 164.323v-32.325c0-90.753-73.57-164.323-164.323-164.323z" fill="#d6f6b2"/></g><g><path d="m418.807 36.596c-1.898 9.43-4.264 18.999-7.095 28.673 54.916 26.598 92.788 82.861 92.788 147.973v-32.325c0-62.269-34.637-116.445-85.693-144.321z" fill="#b3e59f"/></g><g><path d="m472.175 273.234h-454.573c-5.579 0-10.102 4.523-10.102 10.102v44.447c0 5.579 4.523 10.102 10.102 10.102h58.886l-24.818 24.818c-6.312 6.312-6.312 16.545 0 22.857 6.312 6.312 16.545 6.312 22.857 0l47.675-47.676h349.972v-64.65z" fill="#d88a55"/></g><g><path d="m445.911 337.885h26.264v-64.65h-36.637c6.427 6.866 10.373 16.081 10.373 26.205z" fill="#c57a44"/></g><g><path d="m135.454 234.789h-111.118c-9.298 0-16.836-7.538-16.836-16.836v-10.102c0-74.386 60.302-134.688 134.688-134.688h16.836c9.298 0 16.836 7.538 16.836 16.836v104.383c0 22.316-18.09 40.407-40.406 40.407z" fill="#95d6a4"/></g><g><path d="m159.024 73.163h-6.734v117.852c0 11.158-9.045 20.203-20.203 20.203h-124.587v6.734c0 9.298 7.538 16.836 16.836 16.836h111.118c22.316 0 40.406-18.091 40.406-40.407v-104.382c0-9.299-7.537-16.836-16.836-16.836z" fill="#78c2a4"/></g><g><g><circle cx="111.21" cy="147.915" fill="#f6e266" r="32.325"/></g></g><g><g><circle cx="111.21" cy="147.915" fill="#f6e266" r="32.325"/></g></g><g><g><path d="m361.729 209.329 22.288 50.63-11.984 30.831-27.591 35.063c-2.31 2.936.26 7.166 3.93 6.468l26.842-5.103 16.349 21.891c2.236 2.993 6.988 1.61 7.267-2.116l3.332-44.493 12.431-31.983c2.819-7.253 2.642-15.329-.493-22.451l-22.786-51.762z" fill="#5aa687"/></g></g><g><g><path d="m234.433 209.329 22.288 50.63-11.984 30.831-27.591 35.063c-2.31 2.936.26 7.166 3.93 6.468l26.842-5.103 16.349 21.891c2.236 2.993 6.988 1.61 7.267-2.116l3.332-44.493 12.432-31.983c2.819-7.253 2.642-15.329-.493-22.451l-22.786-51.762z" fill="#66b394"/></g></g><g><path d="m461.674 59.419c-32.445-32.454-75.592-50.327-121.494-50.327-54.677 0-97.918 20.163-124.563 37.078-17.214 10.927-29.808 21.817-37.318 28.998-4.455-5.775-11.437-9.506-19.278-9.506h-16.831c-78.404 0-142.19 63.786-142.19 142.19v10.101c0 13.421 10.919 24.34 24.34 24.34l216.407-.004 7.857 17.85-2.175 5.595h-144.709c-4.143 0-7.5 3.357-7.5 7.5s3.357 7.5 7.5 7.5h138.88l-2.448 6.299-26.9 34.185c-2.1 2.67-2.88 5.99-2.301 9.166h-68.635l2.684-2.684c2.929-2.93 2.929-7.678 0-10.607-2.93-2.928-7.678-2.928-10.607 0l-63.185 63.167c-1.629 1.634-3.798 2.534-6.107 2.534-2.315 0-4.488-.9-6.131-2.548-1.632-1.63-2.531-3.8-2.531-6.11 0-2.314.902-4.492 2.537-6.129l40.308-40.307c2.929-2.93 2.929-7.678 0-10.607-2.93-2.928-7.678-2.928-10.607 0l-13.291 13.291h-55.786c-1.434 0-2.6-1.166-2.6-2.6v-44.45c0-1.434 1.166-2.6 2.6-2.6h49.14c4.143 0 7.5-3.357 7.5-7.5s-3.357-7.5-7.5-7.5h-49.14c-9.704 0-17.6 7.896-17.6 17.6v44.45c0 9.704 7.896 17.6 17.6 17.6h40.779l-12.017 12.021c-4.465 4.472-6.925 10.414-6.925 16.73 0 6.322 2.463 12.262 6.921 16.713 4.465 4.479 10.41 6.945 16.741 6.945 6.326 0 12.269-2.467 16.723-6.937l45.484-45.474h126.816l6.135 8.214c2.23 2.987 5.628 4.648 9.195 4.648 1.086 0 2.188-.154 3.277-.472 4.668-1.358 7.919-5.369 8.283-10.218l.162-2.169h100.246l6.132 8.21c2.23 2.987 5.628 4.648 9.196 4.648 1.086 0 2.188-.154 3.278-.472 4.668-1.359 7.919-5.371 8.281-10.218l.162-2.169h58.198v47.271c-10.229-10.996-24.814-17.885-40.979-17.885-30.873 0-55.99 25.117-55.99 55.99 0 19.451 7.623 37.688 21.465 51.352 13.609 13.433 31.565 20.795 50.662 20.795.321 0 .646-.002.968-.007 39.263-.497 71.205-33.29 71.205-73.1v-142.148c0-4.143-3.357-7.5-7.5-7.5s-7.5 3.357-7.5 7.5v142.149c0 31.644-25.299 57.707-56.397 58.102-.257.003-.511.005-.768.005-15.128 0-29.355-5.832-40.132-16.47-10.965-10.823-17.003-25.269-17.003-40.677 0-22.603 18.388-40.99 40.99-40.99 22.596 0 40.979 18.388 40.979 40.99 0 .021.003.042.003.064-.036 13.658-11.157 24.76-24.823 24.76-13.688 0-24.825-11.137-24.825-24.825 0-4.776 3.886-8.662 8.662-8.662s8.663 3.886 8.663 8.662c0 4.143 3.357 7.5 7.5 7.5s7.5-3.357 7.5-7.5c0-13.047-10.615-23.662-23.663-23.662-13.047 0-23.662 10.615-23.662 23.662 0 21.96 17.865 39.825 39.825 39.825s39.825-17.865 39.825-39.825c0-.033-.004-.064-.005-.097v-131.221c0-19.134-7.408-37.158-20.86-50.751-12.281-12.409-28.306-19.802-45.55-21.151l-15.081-34.258c-1.669-3.792-6.095-5.512-9.886-3.843s-5.512 6.095-3.843 9.886l22.786 51.762c2.35 5.34 2.48 11.276.367 16.714l-12.432 31.982c-.269.69-.434 1.417-.489 2.156l-2.642 35.275-10.818-14.485c-1.716-2.297-4.595-3.415-7.409-2.88l-17.761 3.376 21.874-27.799c.459-.582.828-1.229 1.097-1.921l11.983-30.831c.721-1.854.676-3.918-.126-5.738l-22.287-50.63c-1.669-3.791-6.095-5.512-9.886-3.843s-5.512 6.095-3.843 9.886l6.575 14.938h-75.589l-14.969-34.005c-1.669-3.791-6.096-5.512-9.886-3.843-3.791 1.669-5.512 6.095-3.843 9.886l22.785 51.762c2.351 5.34 2.481 11.275.368 16.714l-12.432 31.982c-.269.69-.434 1.417-.489 2.156l-2.642 35.275-10.818-14.485c-1.716-2.297-4.594-3.415-7.409-2.88l-17.762 3.377 21.874-27.8c.459-.582.828-1.229 1.097-1.921l11.984-30.831c.721-1.854.676-3.918-.126-5.738l-22.288-50.63c-1.669-3.792-6.096-5.511-9.886-3.843-3.791 1.669-5.512 6.095-3.843 9.886l6.576 14.938h-63.921c8.133-8.59 13.137-20.171 13.137-32.906v-23.25c0-4.143-3.357-7.5-7.5-7.5s-7.5 3.357-7.5 7.5v23.25c0 18.095-14.681 32.823-32.756 32.906h-.147c-.026 0-.051.004-.077.004h-111.034c-5.15 0-9.34-4.189-9.34-9.34v-6.221h20.825c2.982 0 5.976-.693 8.654-2.006l10.66-5.222c1.832-.896 4.011-.512 5.425.956l3.826 3.974c1.472 1.529 3.437 2.298 5.403 2.298 1.872 0 3.746-.696 5.201-2.098 2.983-2.873 3.073-7.621.2-10.604l-3.826-3.974c-5.948-6.179-15.123-7.798-22.827-4.022l-10.66 5.222c-.637.312-1.348.477-2.057.477h-20.332c5.652-64.944 60.313-116.069 126.698-116.069h16.829c5.15 0 9.341 4.189 9.341 9.34v46.13c0 4.143 3.357 7.5 7.5 7.5s7.5-3.357 7.5-7.5v-12.463c10.737-11.29 68.442-67.25 156.816-67.25 86.473 0 156.824 70.351 156.824 156.822v39.411c0 4.143 3.357 7.5 7.5 7.5s7.5-3.357 7.5-7.5v-71.74c0-45.892-17.873-89.04-50.326-121.493zm-8.093 206.316h-29.957c1.132-6.952.246-14.09-2.659-20.69l-.554-1.258c13.498 3.143 25.197 11.101 33.17 21.948zm-44.023 38.441 9.111-23.44h42.819c2.053 5.872 3.183 12.165 3.183 18.707v30.943h-57.075zm-41.515-61.888 7.857 17.85-2.176 5.598h-77.397c1.132-6.953.245-14.091-2.66-20.69l-1.214-2.757h75.59zm-85.781 61.888 9.111-23.44h76.522l-2.447 6.296-26.899 34.184c-2.102 2.671-2.882 5.993-2.301 9.171h-55.948zm57.915-262.757c-54.677 0-97.916 20.164-124.562 37.079-13.805 8.765-24.632 17.501-32.255 24.323v-11.485c4.794-5.049 18.917-19 40.743-32.787 24.886-15.72 65.225-34.458 116.076-34.458 41.895 0 81.275 16.312 110.887 45.934 14.975 14.974 26.542 32.445 34.325 51.471-30.489-48.087-84.183-80.077-145.214-80.077z"/><circle cx="99.426" cy="136.13" r="8.081"/><path d="m111.21 108.089c-21.96 0-39.825 17.865-39.825 39.825s17.865 39.826 39.825 39.826 39.825-17.866 39.825-39.826-17.865-39.825-39.825-39.825zm0 64.651c-13.688 0-24.825-11.137-24.825-24.826 0-13.688 11.137-24.825 24.825-24.825s24.825 11.137 24.825 24.825c0 13.69-11.137 24.826-24.825 24.826z"/></g></g></svg>