<svg enable-background="new 0 0 32 32" viewBox="0 0 32 32" xmlns="http://www.w3.org/2000/svg"><g id="Grid" display="none"/><g id="bow_tie"/><g id="balloon_1_"/><g id="placeholder"/><g id="mic"/><g id="speaker"/><g id="champagne"/><g id="gift"/><g id="theater"/><g id="_camera"/><g id="video_camera"/><g id="party_hat"/><g id="champagne_glass"><path d="m20.862 18.936c-.475.783-1.139 1.448-1.932 1.925-.93.559-1.553 1.509-1.553 2.594v3.865h-2.754v-3.865c0-1.085-.624-2.035-1.553-2.594-.793-.476-1.457-1.141-1.932-1.925z" fill="#efefef"/><path d="m20.86 18.94c-.47.78-1.14 1.44-1.93 1.92-.91.55-1.53 1.47-1.55 2.53-.45.09-.91.13-1.38.13s-.93-.04-1.38-.13c-.02-1.06-.64-1.98-1.55-2.53-.79-.48-1.46-1.14-1.93-1.92z" fill="#ddd"/><path d="m16 21.666c-3.424 0-6.074-3-5.651-6.398l1.523-12.232c.075-.592.578-1.036 1.174-1.036h5.908c.597 0 1.1.444 1.173 1.036l1.523 12.232c.424 3.398-2.226 6.398-5.65 6.398z" fill="#efefef"/><path d="m20.93 9.5h-2.56l-.81-6.46c-.07-.6-.57-1.04-1.17-1.04h2.56c.6 0 1.1.44 1.18 1.04z" fill="#ddd"/><path d="m19.237 30h-6.475c-.285 0-.516-.231-.516-.516v-.598c0-.866.702-1.567 1.567-1.567h4.372c.866 0 1.567.702 1.567 1.567v.598c.001.285-.23.516-.515.516z" fill="#efefef"/><path d="m19.75 28.89v.59c0 .29-.23.52-.51.52h-2c.28 0 .51-.23.51-.52v-.59c0-.87-.7-1.57-1.56-1.57h2c.86 0 1.56.7 1.56 1.57z" fill="#ddd"/><path d="m16 21.67c-3.42 0-6.07-3-5.65-6.4l.72-5.77h9.86l.72 5.77c.42 3.4-2.23 6.4-5.65 6.4z" fill="#ffd731"/><path d="m16 21.67c-.22 0-.44-.01-.65-.04-.21-.02-.42-.06-.62-.11 2.76-.64 4.73-3.29 4.36-6.25l-.72-5.77h2.56l.72 5.77c.42 3.4-2.23 6.4-5.65 6.4z" fill="#ffc933"/><path d="m19.149 21.226c.529-.319 1.029-.74 1.438-1.203 1.161-1.314 1.702-3.066 1.485-4.807l-1.523-12.233c-.1-.803-.786-1.408-1.595-1.408h-5.907c-.809 0-1.495.605-1.595 1.408l-1.524 12.233c-.217 1.74.325 3.492 1.485 4.807.409.463.909.884 1.438 1.203.843.507 1.347 1.34 1.347 2.229v3.439h-.384c-1.098 0-1.992.894-1.992 1.992v.598c0 .519.422.94.94.94h6.475c.519 0 .94-.422.94-.94v-.598c0-1.099-.894-1.992-1.992-1.992h-.384v-3.439c.001-.89.505-1.723 1.348-2.229zm-6.854-18.137c.047-.378.37-.664.751-.664h5.907c.381 0 .705.286.751.664l.746 5.986h-8.901zm-.245 16.371c-1-1.132-1.466-2.641-1.279-4.139l.672-5.396h9.113l.672 5.396c.187 1.498-.279 3.007-1.279 4.139s-2.439 1.781-3.95 1.781-2.949-.649-3.949-1.781zm7.278 9.427v.598c0 .05-.041.091-.091.091h-6.475c-.05 0-.091-.041-.091-.091v-.598c0-.63.512-1.143 1.142-1.143h4.372c.631 0 1.143.513 1.143 1.143zm-4.28-1.992v-3.439c0-.533-.138-1.047-.383-1.514.435.097.882.15 1.336.15s.901-.052 1.336-.15c-.245.467-.383.981-.383 1.514v3.439z"/><g fill="#ffe576"><path d="m12.608 15.549.253-2.031c.029-.233-.136-.445-.369-.475-.236-.027-.445.136-.475.369l-.253 2.032c-.055.449-.04.901.047 1.345.04.203.217.344.417.344.027 0 .055-.003.082-.008.23-.045.38-.269.335-.499-.069-.355-.082-.718-.037-1.077z"/><path d="m13.356 18.14c-.15-.181-.417-.204-.598-.056-.181.149-.206.418-.056.599l.104.123c.084.094.201.142.317.142.101 0 .202-.035.283-.107.175-.156.191-.425.035-.601z"/></g></g><g id="man"/><g id="woman"/><g id="skewer"/><g id="ticket"/><g id="cake"/><g id="lights"/><g id="photo"/><g id="invitation"/></svg>