<svg enable-background="new 0 0 32 32" viewBox="0 0 32 32" xmlns="http://www.w3.org/2000/svg"><g id="Grid" display="none"/><g id="bow_tie"/><g id="balloon_1_"/><g id="placeholder"/><g id="mic"/><g id="speaker"/><g id="champagne"><path d="m18.975 8.461v4.462c0 .534.172 1.053.49 1.481l1.351 1.816c1.056 1.419 1.626 3.141 1.626 4.91v6.798c0 1.145-.928 2.072-2.072 2.072h-8.741c-1.145 0-2.072-.928-2.072-2.072v-6.798c0-1.769.57-3.491 1.626-4.91l1.351-1.816c.318-.428.49-.947.49-1.481v-4.462z" fill="#72d98b"/><path d="m20.32 15.54c-1.28.22-2.73.38-4.32.38-1.22 0-2.68-.09-4.32-.38l.85-1.14c.32-.42.49-.94.49-1.48v-4.46h5.96v4.46c0 .54.17 1.06.49 1.48z" fill="#ffd731"/><path d="m22.44 21.13v6.8c0 1.14-.92 2.07-2.07 2.07h-2.17c1.15 0 2.07-.93 2.07-2.07v-6.8c0-1.77-.57-3.49-1.62-4.91l-1.35-1.82c-.32-.42-.49-.94-.49-1.48v-4.46h2.17v4.46c0 .54.17 1.06.49 1.48l1.35 1.82c1.05 1.42 1.62 3.14 1.62 4.91z" fill="#5fc174"/><path d="m19.07 13.57c-.68.06-1.39.11-2.13.13-.09-.24-.13-.51-.13-.78v-4.46h2.17v4.46c0 .22.03.44.09.65z" fill="#ffc933"/><path d="m18.465 5.63h-4.931l-.392-2.664c-.074-.509.32-.966.835-.966h4.047c.515 0 .909.457.834.966z" fill="#d39a62"/><path d="m18.86 2.97-.39 2.66h-1.73l.39-2.66c.07-.51-.32-.97-.84-.97h1.73c.52 0 .91.46.84.97z" fill="#c68c58"/><path d="m18.859 8.461h-5.718c-.782 0-1.415-.634-1.415-1.415 0-.782.634-1.415 1.415-1.415h5.718c.782 0 1.415.634 1.415 1.415 0 .781-.633 1.415-1.415 1.415z" fill="#ffd731"/><path d="m20.27 7.05c0 .78-.63 1.41-1.41 1.41h-2.34c.79 0 1.42-.63 1.42-1.41 0-.79-.63-1.42-1.42-1.42h2.34c.78 0 1.41.63 1.41 1.42z" fill="#ffc933"/><path d="m22.44 21.13v5.63h-12.88v-5.63c0-.23.01-.47.03-.7h12.82c.02.23.03.47.03.7z" fill="#efefef"/><path d="m20.32 15.54c-1.28.22-2.73.38-4.32.38-1.22 0-2.68-.09-4.32-.38l.85-1.14c.19-.25.32-.53.4-.83 1.12.11 2.15.15 3.07.15 1.07 0 2.1-.06 3.07-.15.08.3.21.58.4.83z" fill="#e96565"/><path d="m22.44 21.13v5.63h-2.17v-5.63c0-.23-.01-.47-.03-.7h2.17c.02.23.03.47.03.7z" fill="#ddd"/><path d="m20.32 15.54c-.62.11-1.28.2-1.98.26l-1.04-1.4c-.16-.21-.28-.44-.36-.7.74-.02 1.45-.07 2.13-.13.01.07.04.15.07.22.04.12.09.23.16.34.05.09.1.18.17.27z" fill="#e05353"/><path d="m21.158 15.965-1.351-1.816c-.262-.352-.406-.788-.406-1.227v-4.127c.749-.233 1.299-.924 1.299-1.749 0-.981-.774-1.778-1.743-1.83l.322-2.188c.054-.365-.053-.734-.294-1.013s-.591-.439-.96-.439h-4.047c-.369 0-.719.16-.96.439s-.348.648-.294 1.013l.322 2.188c-.969.052-1.743.849-1.743 1.83 0 .825.549 1.516 1.299 1.749v4.128c0 .439-.145.875-.406 1.227l-1.351 1.816c-1.103 1.482-1.71 3.316-1.71 5.164v6.798c0 1.377 1.12 2.497 2.498 2.497h8.741c1.377 0 2.498-1.12 2.498-2.497v-6.798c-.004-1.849-.611-3.683-1.714-5.165zm-11.177 5.164c0-.092.019-.183.022-.274h11.992c.003.092.022.182.022.274v5.206h-12.036zm3.468-12.244h5.102v4.037c0 .086.013.171.021.257-1.828.147-3.489.142-5.143.002.008-.086.021-.172.021-.259v-4.037zm.211-6.315c.081-.093.193-.145.316-.145h4.047c.124 0 .236.052.316.145s.115.212.097.334l-.339 2.302h-4.197l-.339-2.302c-.016-.122.019-.241.099-.334zm-1.51 4.475c0-.546.444-.99.991-.99h5.718c.546 0 .991.444.991.99s-.444.99-.991.99h-5.718c-.546.001-.991-.444-.991-.99zm.725 7.612c.146-.196.258-.414.35-.64.916.08 1.847.127 2.775.127.892 0 1.808-.046 2.775-.127.092.226.204.444.35.64l.414.556c-2.439.353-4.763.346-7.079.003zm-1.351 1.816.356-.478c1.362.226 2.745.35 4.12.35 1.354 0 2.708-.122 4.12-.35l.356.479c.77 1.034 1.263 2.259 1.451 3.532h-11.854c.188-1.274.681-2.499 1.451-3.533zm8.847 13.102h-8.741c-.909 0-1.648-.739-1.648-1.647v-.743h12.037v.743c0 .908-.74 1.647-1.648 1.647z"/><path d="m11.678 19.25c.05.019.101.028.151.028.171 0 .333-.104.397-.274.132-.347.297-.682.49-.996.123-.2.06-.462-.14-.584-.2-.124-.462-.06-.585.139-.221.359-.409.742-.56 1.138-.082.22.028.465.247.549z" fill="#b0f4bc"/><path d="m14.87 12.383c.235 0 .425-.19.425-.425v-1.648c0-.235-.19-.425-.425-.425s-.425.19-.425.425v1.648c0 .235.19.425.425.425z" fill="#ffe576"/><path d="m16.177 22.027.435.882.973.141c.162.024.226.222.109.337l-.704.686.166.969c.028.161-.142.284-.286.208l-.87-.457-.87.458c-.145.076-.314-.047-.286-.208l.166-.969-.704-.686c-.117-.114-.052-.313.109-.337l.973-.141.435-.882c.072-.148.282-.148.354-.001z" fill="#ffd731"/></g><g id="gift"/><g id="theater"/><g id="_camera"/><g id="video_camera"/><g id="party_hat"/><g id="champagne_glass"/><g id="man"/><g id="woman"/><g id="skewer"/><g id="ticket"/><g id="cake"/><g id="lights"/><g id="photo"/><g id="invitation"/></svg>