<svg height="512" viewBox="0 0 128 128" width="512" xmlns="http://www.w3.org/2000/svg"><g><g><path d="m24.929 46.351h39.071a0 0 0 0 1 0 0v22.743a9.575 9.575 0 0 1 -9.575 9.575h-19.925a9.575 9.575 0 0 1 -9.575-9.575v-22.743a0 0 0 0 1 .004 0z" fill="#fecd1a"/><path d="m30.889 35.37h27.157v10.981h-27.157z" fill="#fc852d"/><path d="m36.221 37.12a1.75 1.75 0 0 1 -1.75-1.75v-12.913a1.75 1.75 0 0 1 3.5 0v12.913a1.751 1.751 0 0 1 -1.75 1.75z" fill="#120078"/><path d="m52.714 37.12a1.75 1.75 0 0 1 -1.75-1.75v-12.913a1.75 1.75 0 1 1 3.5 0v12.913a1.75 1.75 0 0 1 -1.75 1.75z" fill="#120078"/><path d="m36.246 78.669h16.442a0 0 0 0 1 0 0v6.745a3.4 3.4 0 0 1 -3.4 3.4h-9.637a3.4 3.4 0 0 1 -3.4-3.4v-6.745a0 0 0 0 1 -.005 0z" fill="#fc852d"/><path d="m86.73 110.839h-27.776a16.255 16.255 0 0 1 -16.237-16.239v-5.782a1.75 1.75 0 0 1 3.5 0v5.782a12.752 12.752 0 0 0 12.737 12.737h27.776a12.752 12.752 0 0 0 12.737-12.737v-30.511a1.75 1.75 0 0 1 3.5 0v30.511a16.255 16.255 0 0 1 -16.237 16.239z" fill="#120078"/><path d="m93.429 50.181h15.571a0 0 0 0 1 0 0v10.044a3.865 3.865 0 0 1 -3.865 3.865h-7.842a3.864 3.864 0 0 1 -3.864-3.864v-10.045a0 0 0 0 1 0 0z" fill="#fd3a69"/><path d="m96.097 42.127h10.24v8.054h-10.24z" fill="#fecd1a"/></g><g fill="#282d66"><path d="m24.923 63.236a1.749 1.749 0 0 0 1.75-1.75v-.427a1.75 1.75 0 0 0 -3.5 0v.427a1.749 1.749 0 0 0 1.75 1.75z"/><path d="m109 48.448h-.918v-6.3a1.749 1.749 0 0 0 -1.75-1.75h-10.242a1.749 1.749 0 0 0 -1.75 1.75v6.3h-.918a1.749 1.749 0 0 0 -1.75 1.75v10.043a5.621 5.621 0 0 0 5.614 5.615h2.174v28.763a12.751 12.751 0 0 1 -12.736 12.737h-27.777a12.751 12.751 0 0 1 -12.736-12.737v-4.034h3.066a5.161 5.161 0 0 0 5.155-5.154v-5a11.337 11.337 0 0 0 11.316-11.321v-22.742a1.749 1.749 0 0 0 -1.748-1.75h-4.211v-9.231a1.749 1.749 0 0 0 -1.75-1.75h-3.582v-11.164a1.75 1.75 0 0 0 -3.5 0v11.164h-12.993v-11.164a1.75 1.75 0 0 0 -3.5 0v11.164h-3.582a1.749 1.749 0 0 0 -1.75 1.75v9.231h-4.209a1.749 1.749 0 0 0 -1.75 1.75v3.832a1.75 1.75 0 0 0 3.5 0v-2.08h35.575v20.99a7.833 7.833 0 0 1 -7.824 7.825h-19.924a7.87 7.87 0 0 1 -7.5-5.6 1.75 1.75 0 1 0 -3.355 1 11.389 11.389 0 0 0 10.85 8.1v5a5.161 5.161 0 0 0 5.155 5.154h3.067v4.034a16.255 16.255 0 0 0 16.236 16.237h27.771a16.255 16.255 0 0 0 16.236-16.241v-28.763h2.174a5.621 5.621 0 0 0 5.614-5.615v-10.041a1.749 1.749 0 0 0 -1.748-1.752zm-76.366-3.83v-7.481h23.655v7.481zm5.357 40.813v-5h12.941v5a1.657 1.657 0 0 1 -1.655 1.654h-9.633a1.656 1.656 0 0 1 -1.655-1.654zm59.849-41.537h6.74v4.554h-6.74zm9.408 16.347a2.117 2.117 0 0 1 -2.114 2.115h-7.848a2.117 2.117 0 0 1 -2.114-2.115v-8.293h12.076z"/></g></g></svg>