<svg height="512" viewBox="0 0 512 512" width="512" xmlns="http://www.w3.org/2000/svg"><g id="_6.Cheese" data-name="6.Cheese"><path d="m467.9668 421.5539c-87.7017 82.6124-195.8606 84.4461-212.0884 84.4461-102.6073 0-175.0168-51.1541-211.19-84.1841a44.044 44.044 0 0 1 -8.42-54.547l57.7276-99.9911a36.843 36.843 0 0 1 30.44-18.2768q.252-.0108.5045-.0243a46.1654 46.1654 0 0 0 38.3395-67.5418 36.5931 36.5931 0 0 1 .6842-35.3467l75.3617-130.5365a19.118 19.118 0 0 1 33.1049 0q101.6343 176.0456 203.2821 352.1039a43.9078 43.9078 0 0 1 -7.7461 53.8983z" fill="#f5d367"/><g fill="#ffebb9"><circle cx="171.058" cy="343.844" r="48.647"/><circle cx="292.052" cy="202.892" r="29.937"/><circle cx="341.946" cy="370.038" r="29.937"/></g><path d="m64.6894 421.8186c34.89 31.86 103.51 80.59 200.43 83.98-4.21.18-7.35.2-9.24.2-102.61 0-175.02-51.15-211.19-84.18a44.0472 44.0472 0 0 1 -8.42-54.55l57.7306-99.99a36.828 36.828 0 0 1 30.44-18.28c.16-.01.33-.01.5-.02a46.1781 46.1781 0 0 0 38.34-67.55 36.6016 36.6016 0 0 1 .68-35.34l75.37-130.54a19.1314 19.1314 0 0 1 26.55-6.75 18.7956 18.7956 0 0 0 -6.55 6.75l-75.37 130.54a36.6016 36.6016 0 0 0 -.68 35.34 46.1781 46.1781 0 0 1 -38.34 67.55c-.17.01-.34.01-.5.02a36.828 36.828 0 0 0 -30.44 18.28l-57.73 99.99a44.0472 44.0472 0 0 0 8.4194 54.55z" fill="#ddbc5f"/><g id="stroke"><path d="m255.88 511a305.7709 305.7709 0 0 1 -132.6631-30.1914 341.465 341.465 0 0 1 -81.8984-55.2959 49.3538 49.3538 0 0 1 -9.3785-60.7427l57.73-99.99a41.67 41.67 0 0 1 34.5562-20.7754c.0393-.0029.1728-.0078.3083-.0117l.1077-.0039a41.1772 41.1772 0 0 0 34.2131-60.23 41.3905 41.3905 0 0 1 .7747-40.169l14.49-25.09a5 5 0 0 1 8.66 5.001l-14.49 25.09a31.44 31.44 0 0 0 -.5847 30.5118 51.1774 51.1774 0 0 1 -42.4971 74.8706c-.1035.0063-.24.0112-.3747.0151-.03.0019-.1495.0063-.1795.0078a31.7184 31.7184 0 0 0 -26.3227 15.7822l-57.7313 99.9915a39.2918 39.2918 0 0 0 7.4622 48.3589c33.8924 30.9492 105.9605 82.8711 207.8178 82.8711 20.1159 0 124.7153-4.0059 208.6616-83.09a38.71 38.71 0 0 0 6.8394-47.7486l-203.281-352.1114a14.1179 14.1179 0 0 0 -24.4409.0024l-30.8591 53.4476a5 5 0 1 1 -8.66-5l30.86-53.45a24.1177 24.1177 0 0 1 41.7585-.0024l203.2815 352.1124a48.67 48.67 0 0 1 -8.6421 60.0293c-37.5163 35.3437-82.9282 60.374-134.9733 74.3955-38.24 10.3029-69.0662 11.4152-80.5446 11.4152z"/><path d="m190.5654 105.001a5.0019 5.0019 0 0 1 -4.3261-7.5l5.77-10a5 5 0 0 1 8.6616 4.998l-5.77 10a4.9987 4.9987 0 0 1 -4.3355 2.502z"/><path d="m171.0581 397.49a53.6467 53.6467 0 1 1 53.647-53.6464 53.7076 53.7076 0 0 1 -53.647 53.6464zm0-97.2934a43.6467 43.6467 0 1 0 43.647 43.647 43.6965 43.6965 0 0 0 -43.647-43.6468z"/><path d="m292.0518 237.8286a34.9365 34.9365 0 1 1 34.9365-34.9365 34.976 34.976 0 0 1 -34.9365 34.9365zm0-59.873a24.9365 24.9365 0 1 0 24.9365 24.9365 24.9649 24.9649 0 0 0 -24.9365-24.9365z"/><path d="m341.946 404.9746a34.9365 34.9365 0 1 1 34.9366-34.9365 34.9763 34.9763 0 0 1 -34.9366 34.9365zm0-59.873a24.9365 24.9365 0 1 0 24.9366 24.9365 24.9648 24.9648 0 0 0 -24.9366-24.9365z"/></g></g></svg>