<svg height="512" viewBox="0 0 128 128" width="512" xmlns="http://www.w3.org/2000/svg"><g><g><ellipse cx="64.052" cy="44.18" fill="#fecd1a" rx="37.24" ry="13.88"/><path d="m109.052 81.03c0 9.26-20.15 16.77-45 16.77s-45-7.51-45-16.77c0-3.49 2.86-6.73 7.76-9.42v4.23c0 7.66 16.67 13.88 37.24 13.88s37.24-6.22 37.24-13.88v-4.23c4.9 2.69 7.76 5.93 7.76 9.42z" fill="#fd3a69"/><path d="m64.052 80.36c-20.57 0-37.24-6.22-37.24-13.88v9.36c0 7.66 16.67 13.88 37.24 13.88s37.24-6.22 37.24-13.88v-9.36c0 7.66-16.67 13.88-37.24 13.88z" fill="#9d0191"/><path d="m64.052 58.06c-20.57 0-37.24-6.21-37.24-13.88v22.3c0 7.66 16.67 13.88 37.24 13.88s37.24-6.22 37.24-13.88v-22.3c0 7.67-16.67 13.88-37.24 13.88z" fill="#fd3a69"/></g><g fill="#212f68"><path d="m42.052 34.713a1.776 1.776 0 0 0 .48-.067l.182-.051c.143-.024.294-.061.482-.108a1.75 1.75 0 1 0 -.843-3.4l-.17.041a4.326 4.326 0 0 0 -.61.148 1.75 1.75 0 0 0 .479 3.433z"/><path d="m102.99 70.6v-26.42c0-8.91-16.762-15.63-38.99-15.63a98.246 98.246 0 0 0 -11.141.621 1.749 1.749 0 1 0 .4 3.476 94.926 94.926 0 0 1 10.741-.597c20.915 0 35.49 6.392 35.49 12.13s-14.575 12.13-35.49 12.13-35.49-6.393-35.49-12.13c0-1.914 1.627-3.575 2.992-4.63a19.183 19.183 0 0 1 2.463-1.6 1.75 1.75 0 1 0 -1.692-3.064 22.709 22.709 0 0 0 -2.912 1.891c-3.6 2.782-4.351 5.559-4.351 7.4v26.423c-6.373 3.777-7.76 7.727-7.76 10.428 0 10.385 20.535 18.52 46.75 18.52s46.75-8.135 46.75-18.52c0-2.699-1.387-6.649-7.76-10.428zm-38.99-10.79c16.183 0 29.461-3.563 35.49-8.94v15.61c0 2.667-3.14 5.482-8.615 7.722a1.75 1.75 0 1 0 1.325 3.239 25.87 25.87 0 0 0 7.29-4.249v2.648c0 5.737-14.575 12.13-35.49 12.13s-35.49-6.393-35.49-12.13v-2.67c6.029 5.376 19.307 8.94 35.49 8.94a94.525 94.525 0 0 0 15.388-1.21 1.75 1.75 0 1 0 -.572-3.453 90.989 90.989 0 0 1 -14.816 1.163c-20.915 0-35.49-6.392-35.49-12.13v-15.61c6.029 5.377 19.307 8.94 35.49 8.94zm0 36.24c-20.457 0-43.25-6.168-43.25-15.02 0-2.083 1.492-4.251 4.26-6.258v1.068c0 8.91 16.762 15.63 38.99 15.63s38.99-6.72 38.99-15.63v-1.068c2.768 2.007 4.26 4.175 4.26 6.258 0 8.852-22.794 15.02-43.25 15.02z"/></g></g></svg>