<svg height="512" viewBox="0 0 128 128" width="512" xmlns="http://www.w3.org/2000/svg"><g><path d="m64 34.847h9.7a17.639 17.639 0 0 0 15.178-8.653l3.533-5.968h-9.7a17.637 17.637 0 0 0 -15.178 8.653z" fill="#4cc7b3"/><path d="m64 34.847h-9.7a17.639 17.639 0 0 1 -15.178-8.653l-3.533-5.968h9.7a17.637 17.637 0 0 1 15.178 8.653z" fill="#4cc7b3"/><path d="m15.773 95.432v-55.585a5 5 0 0 1 5-5h86.454a5 5 0 0 1 5 5v55.585z" fill="#f3f5e6"/><path d="m108.281 107.774h-88.562a8 8 0 0 1 -6.347-3.131l-7.065-9.211h115.386l-7.065 9.211a8 8 0 0 1 -6.347 3.131z" fill="#80e2ff"/><path d="m112.23 39.85v27.18a5.65 5.65 0 0 1 -11.3 0v-7.89a5 5 0 1 0 -9.99 0v7.89a5.668 5.668 0 0 1 -5.65 5.65 5.651 5.651 0 0 1 -5.65-5.65v-7.89a5 5 0 1 0 -9.99 0v7.89a5.65 5.65 0 0 1 -11.3 0v-7.89a5 5 0 1 0 -9.99 0v7.89a5.668 5.668 0 0 1 -5.65 5.65 5.651 5.651 0 0 1 -5.65-5.65v-7.89a5 5 0 1 0 -9.99 0v7.89a5.65 5.65 0 0 1 -11.3 0v-27.18a5 5 0 0 1 5-5h86.46a5 5 0 0 1 5 5z" fill="#fb8d4b"/><g><path d="m45.138 106.024h-4.5a1.75 1.75 0 1 0 0 3.5h4.5a1.75 1.75 0 1 0 0-3.5z"/><path d="m123.262 94.658a1.748 1.748 0 0 0 -1.569-.976h-7.716v-36.274a1.75 1.75 0 1 0 -3.5 0v9.618a3.9 3.9 0 0 1 -7.8 0v-7.891a6.746 6.746 0 1 0 -13.491 0v7.891a3.9 3.9 0 0 1 -7.8 0v-7.891a6.746 6.746 0 1 0 -13.491 0v7.894a3.9 3.9 0 0 1 -7.8 0v-7.894a6.746 6.746 0 1 0 -13.491 0v7.891a3.9 3.9 0 0 1 -7.8 0v-7.891a6.746 6.746 0 1 0 -13.491 0v7.891a3.9 3.9 0 0 1 -7.8 0v-27.179a3.254 3.254 0 0 1 3.25-3.25h86.454a3.254 3.254 0 0 1 3.25 3.25v8.2a1.75 1.75 0 0 0 3.5 0v-8.2a6.757 6.757 0 0 0 -6.75-6.75h-22.446a19.33 19.33 0 0 0 5.609-6.012l3.533-5.968a1.749 1.749 0 0 0 -1.506-2.641h-9.7a19.472 19.472 0 0 0 -16.684 9.511l-2.023 3.424-2.027-3.424a19.472 19.472 0 0 0 -16.684-9.511h-9.7a1.749 1.749 0 0 0 -1.506 2.641l3.533 5.968a19.33 19.33 0 0 0 5.613 6.015h-22.456a6.757 6.757 0 0 0 -6.75 6.75v53.832h-7.716a1.751 1.751 0 0 0 -1.389 2.818l7.065 9.211a9.808 9.808 0 0 0 7.736 3.816h11.681a1.75 1.75 0 1 0 0-3.5h-11.681a6.287 6.287 0 0 1 -4.959-2.446l-4.9-6.4h108.29l-4.905 6.4a6.289 6.289 0 0 1 -4.959 2.446h-53.492a1.75 1.75 0 1 0 0 3.5h53.487a9.809 9.809 0 0 0 7.736-3.816l7.064-9.211a1.748 1.748 0 0 0 .181-1.842zm-54.223-64.888a15.955 15.955 0 0 1 13.672-7.794h6.626l-1.969 3.324a15.956 15.956 0 0 1 -13.668 7.8h-6.63zm-28.407-4.47-1.969-3.326h6.626a15.955 15.955 0 0 1 13.672 7.796l1.969 3.33h-6.63a15.956 15.956 0 0 1 -13.668-7.8zm-23.109 48a7.385 7.385 0 0 0 11.3-6.278v-7.887a3.246 3.246 0 1 1 6.491 0v7.894a7.4 7.4 0 0 0 14.8 0v-7.894a3.246 3.246 0 1 1 6.491 0v7.891a7.4 7.4 0 0 0 14.8 0v-7.891a3.246 3.246 0 1 1 6.491 0v7.894a7.4 7.4 0 0 0 14.8 0v-7.894a3.246 3.246 0 1 1 6.491 0v7.894a7.384 7.384 0 0 0 11.3 6.274v20.379h-92.964z"/></g></g></svg>