<?xml version="1.0" encoding="UTF-8"?>
<svg xmlns="http://www.w3.org/2000/svg" width="512" height="512" viewBox="0 0 128 128"><g><path d="M106.176,121.693V97.51A14,14,0,0,0,95.563,83.926L73.321,78.38H54.679L32.437,83.926A14,14,0,0,0,21.823,97.51v24.183Z" fill="#f3f5e6"/><path d="M41.308,44.1v7.348c0,19.836,11.973,27.012,18.525,29.455a11.906,11.906,0,0,0,8.334,0c6.552-2.443,18.525-9.619,18.525-29.455V44.1Z" fill="#fdca74"/><path d="M91.311,16.038A9.725,9.725,0,0,0,72.79,11.885a9.715,9.715,0,0,0-17.58,0,9.724,9.724,0,1,0-13.9,12.421V44.1H86.692v-19.8A9.713,9.713,0,0,0,91.311,16.038Z" fill="#f3f5e6"/><rect x="41.308" y="33.157" width="45.385" height="10.946" fill="#d7d9cc"/><g><path d="M55,117a2.349,2.349,0,1,0,2.349,2.349A2.349,2.349,0,0,0,55,117Z"/><path d="M55,105a2.349,2.349,0,1,0,2.349,2.349A2.349,2.349,0,0,0,55,105Z"/><path d="M55,93a2.349,2.349,0,1,0,2.349,2.349A2.349,2.349,0,0,0,55,93Z"/><path d="M73,117a2.349,2.349,0,1,0,2.349,2.349A2.349,2.349,0,0,0,73,117Z"/><path d="M73,105a2.349,2.349,0,1,0,2.349,2.349A2.349,2.349,0,0,0,73,105Z"/><path d="M73,93a2.349,2.349,0,1,0,2.349,2.349A2.349,2.349,0,0,0,73,93Z"/><path d="M21.823,101.484a1.75,1.75,0,0,0-1.75,1.75v18.459a1.75,1.75,0,0,0,3.5,0V103.234A1.75,1.75,0,0,0,21.823,101.484Z"/><path d="M24.607,88.949a1.747,1.747,0,0,0-2.392.631A15.689,15.689,0,0,0,20.4,94.294a1.75,1.75,0,0,0,3.428.711,12.179,12.179,0,0,1,1.406-3.663A1.749,1.749,0,0,0,24.607,88.949Z"/><path d="M95.986,82.228l-18.531-4.62c5.707-4.656,10.987-12.621,10.987-26.157V25.231a11.4,11.4,0,0,0,4.619-9.193,1.75,1.75,0,1,0-3.5,0,7.934,7.934,0,0,1-3.791,6.781,1.754,1.754,0,0,0-.828,1.488v7.1H43.058v-7.1a1.752,1.752,0,0,0-.829-1.488A7.974,7.974,0,0,1,46.42,8.057a8.018,8.018,0,0,1,7.208,4.577,1.751,1.751,0,0,0,3.164,0,7.964,7.964,0,0,1,14.416,0,1.751,1.751,0,0,0,3.164,0,7.972,7.972,0,0,1,11.3-3.451,1.75,1.75,0,0,0,1.8-3A11.46,11.46,0,0,0,72.79,8.673a11.444,11.444,0,0,0-17.58,0,11.47,11.47,0,0,0-20.272,7.365,11.4,11.4,0,0,0,4.62,9.193v26.22c0,13.536,5.279,21.5,10.987,26.157l-18.532,4.62a15.813,15.813,0,0,0-1.559.475,1.75,1.75,0,1,0,1.19,3.291c.4-.143.807-.268,1.215-.37l21.525-5.366a31.659,31.659,0,0,0,4.838,2.288,13.688,13.688,0,0,0,9.556,0,31.659,31.659,0,0,0,4.838-2.288l21.525,5.366a12.231,12.231,0,0,1,9.286,11.886v24.183a1.75,1.75,0,0,0,3.5,0V97.51A15.725,15.725,0,0,0,95.986,82.228ZM84.942,34.906v7.447H43.058V34.906ZM67.556,79.267a10.18,10.18,0,0,1-7.112,0c-6.493-2.421-17.386-9.253-17.386-27.816v-5.6H84.942v5.6C84.942,70.014,74.049,76.846,67.556,79.267Z"/><path d="M69.771,65.757A7.942,7.942,0,0,1,64,68.122a7.846,7.846,0,0,1-5.772-2.365,1.75,1.75,0,0,0-2.7,2.226,11.684,11.684,0,0,0,16.946,0,1.75,1.75,0,0,0-2.7-2.226Z"/><path d="M72.2,50.666a5.993,5.993,0,0,0-4.521,1.974,1.75,1.75,0,0,0,2.7,2.226,2.719,2.719,0,0,1,3.642,0,1.75,1.75,0,0,0,2.7-2.226A6,6,0,0,0,72.2,50.666Z"/><path d="M57.624,54.866a1.75,1.75,0,0,0,2.7-2.226,6.166,6.166,0,0,0-9.044,0,1.75,1.75,0,0,0,2.7,2.226,2.719,2.719,0,0,1,3.642,0Z"/></g></g></svg>
