<svg fill="none" height="24" viewBox="0 0 24 24" width="24" xmlns="http://www.w3.org/2000/svg"><path d="m5.5 21h6.5 5.5v-9l.5-.5 2-1 .5-2-1-2-2.5-.5-2 1-.5-1.5-2.5-1.5-3 .5-1 2-1.5-.5h-2.5l-1 2.5.5 2 2 1z" fill="#d3f1f8"/><g clip-rule="evenodd" fill="#1e3317" fill-rule="evenodd"><path d="m5.6922 11.3706c.27614 0 .5.2239.5.5v8.6295h10.8056v-8.6295c0-.2761.2238-.5.5-.5.2761 0 .5.2239.5.5v9.1295c0 .2761-.2239.5-.5.5h-11.8056c-.13261 0-.25979-.0527-.35355-.1465-.09377-.0937-.14645-.2209-.14645-.3535v-9.1295c0-.2761.22386-.5.5-.5z"/><path d="m4.88941 6.43562c-.45556.12354-.84759.4088-1.11111.93587-.2742.54842-.43837 1.56597-.04197 2.41497.36827.78874 1.29725 1.58334 3.52994 1.58334.27614 0 .5.2239.5.5s-.22386.5-.5.5c-2.48953 0-3.85422-.9142-4.43604-2.1603-.55368-1.18585-.32434-2.52924.05363-3.28521.39347-.78696 1.0186-1.25713 1.74381-1.45381.70928-.19235 1.4839-.11642 2.20391.11791 1.4187.46172 2.81355 1.60538 3.27012 2.97518.0874.26197-.0542.54513-.3162.63245-.26197.08733-.54513-.05425-.63246-.31623-.33043-.99131-1.42674-1.94858-2.63094-2.34049-.59144-.19249-1.1612-.23155-1.63269-.10368z"/><path d="m9.31446 5.0063c-.47504.3167-.76115.76173-.76115 1.35481.00001.27614-.22385.5-.49999.5-.27615 0-.5-.22385-.50001-.5 0-.98099.50093-1.71651 1.20645-2.18686.6907-.46046 1.58054-.67425 2.44174-.67425 1.7491 0 3.0927.8787 3.7736 2.01359.6742 1.12365.7199 2.5703-.2719 3.56219-.1953.19526-.5119.19526-.7071 0-.1953-.19527-.1953-.51185 0-.70711.5822-.58219.6279-1.49665.1215-2.34059-.4996-.83271-1.5171-1.52808-2.9161-1.52808-.7129 0-1.39718.17973-1.88704.5063z"/><path d="m18.9138 6.83549c-1.5948-.53145-2.7569-.00026-3.4236.66647-.1953.19526-.5118.19526-.7071 0s-.1953-.51184 0-.7071c.9073-.90734 2.4576-1.57096 4.4468-.90808 1.4873.4956 2.1544 2.18488 1.6972 3.67119-.4773 1.55113-2.1023 2.81263-5.0034 2.81263-.2761 0-.5-.2238-.5-.5 0-.2761.2239-.5.5-.5 2.6082 0 3.7378-1.0998 4.0476-2.1067.3297-1.07174-.1837-2.13721-1.0575-2.42841z"/><path d="m5.80151 18.167c0-.2762.22386-.5.5-.5h10.62499c.2762 0 .5.2238.5.5 0 .2761-.2238.5-.5.5h-10.62499c-.27614 0-.5-.2239-.5-.5z"/></g></svg>