<svg id="Layer_1" viewBox="0 0 1000 1000" xmlns="http://www.w3.org/2000/svg" data-name="Layer 1"><path d="m656.45 239.48c-.63 2.36-6.78 23.81-25.47 32.32a41.85 41.85 0 0 1 -12.39 3.4h-.06q-.75 0-1.47.15c-14.55 1.31-32.41-3.53-53.32-14.47a16 16 0 1 0 -14.83 28.35c19.74 10.33 38 16.3 54.67 17.89v44.92h-207.16v-44.14c30.5-1.73 54.55-20.46 55.77-21.42a16 16 0 0 0 -19.87-25.09c-.24.19-24.31 18.58-48.44 13.88a3.28 3.28 0 0 0 -.41-.08l-.83-.18c-15.13-3.45-28.07-16-38.46-37.35-7.2-14.8-7-31.78.66-45.43 11.14-20 34.05-28.91 68.08-26.57a16 16 0 0 0 14.83-7.75 103.07 103.07 0 0 1 34.52-31.91c23.42-13.11 52.23-13.29 75.19-.48 13.59 7.59 23.3 18.48 28.86 32.37a16 16 0 0 0 18.4 9.66c11.46-2.57 44.92-5.66 61.85 10.7 11.96 11.56 15.28 32.16 9.88 61.23z" fill="#bdbdbd"/><path d="m603.58 413.59v.71s.51 33.37-11.63 67.66c-15.27 43.04-42.95 67.26-82.18 71.88h-19.55c-39-4.59-66.58-28.52-81.9-71.12-11.53-32.06-11.9-63.7-11.9-68v-30.7h207.16z" fill="#ffab91"/><path d="m436.55 569.19a44.09 44.09 0 0 1 -19.36 28.75c-1.92 1.1-7.63 3.16-17 6.13-1.62.51-2.88.92-3.56 1.16a201.32 201.32 0 0 0 -36 16.7c-12.82-82.67-4.73-142.53 4.93-179.27.16-.62.33-1.24.5-1.85a242.47 242.47 0 0 0 11.79 51.83c12.49 35.14 32.39 60.96 58.7 76.55z" fill="#8d6e63"/><path d="m639.33 621.94a201.09 201.09 0 0 0 -36-16.71c-.68-.24-1.94-.65-3.56-1.16-9.35-3-15.06-5-17-6.13a44.09 44.09 0 0 1 -19.36-28.75c26.3-15.59 46.21-41.41 58.65-76.55a241.58 241.58 0 0 0 11.81-52c10.87 40.14 18.13 100.03 5.46 181.3z" fill="#8d6e63"/><path d="m549.89 611.36-46.54 24.87-50.5-28.15a76.65 76.65 0 0 0 13.51-26.33 137.67 137.67 0 0 0 21.21 4 14.55 14.55 0 0 0 1.75.1h21.36a14.67 14.67 0 0 0 1.75-.1 137.67 137.67 0 0 0 21.21-4 76.6 76.6 0 0 0 16.25 29.61z" fill="#ffab91"/><path d="m469.79 654.16-17.24 9.21c-47.21 14.26-47.75 51.14-47.75 52.73v167.9h-24.44v-122.09a16 16 0 0 0 -32 0v122.09h-53c-4-23.35-10.39-76.66 2.69-129.12a170.94 170.94 0 0 1 60.54-92.94l.36-.28.25-.19a170.16 170.16 0 0 1 48-26c.52-.18 1.46-.47 2.67-.86 6.14-2 11.21-3.64 15.35-5.25z" fill="#bdbdbd"/><path d="m701.91 754.88a171 171 0 0 0 -60.55-92.94l-.36-.28-.26-.2a169.9 169.9 0 0 0 -47.92-26c-.52-.18-1.46-.47-2.67-.86-3.61-1.15-6.85-2.2-9.75-3.21l-69.19 37a10.28 10.28 0 0 1 -.93.49l-44.08 23.56a15.82 15.82 0 0 1 -3.17 1.28c-25.08 7.11-26.2 22.3-26.2 22.45v167.83h182.81v-122.09a16 16 0 0 1 32 0v122.09h52.94c3.99-23.4 10.42-76.85-2.67-129.12zm-201.44 99.67h-25.93a16 16 0 1 1 0-32h25.93a16 16 0 0 1 0 32zm0-61h-25.93a16 16 0 1 1 0-32h25.93a16 16 0 0 1 0 32z" fill="#bdbdbd"/><g fill="#fff" opacity=".5"><path d="m646.45 249.48c-.63 2.36-6.78 23.81-25.47 32.32a41.85 41.85 0 0 1 -12.39 3.4h-.06q-.75 0-1.47.15c-14.55 1.31-32.41-3.53-53.32-14.47a16 16 0 1 0 -14.83 28.35c19.74 10.33 38 16.3 54.67 17.89v44.92h-207.16v-44.14c30.5-1.73 54.55-20.46 55.77-21.42a16 16 0 1 0 -19.87-25.09c-.24.19-24.31 18.58-48.44 13.88a3.28 3.28 0 0 0 -.41-.08l-.83-.18c-15.13-3.45-28.07-16-38.46-37.35-7.2-14.8-7-31.78.66-45.43 11.14-20 34.05-28.91 68.08-26.57a16 16 0 0 0 14.83-7.75 103.07 103.07 0 0 1 34.52-31.91c23.42-13.11 52.23-13.29 75.19-.48 13.59 7.59 23.3 18.48 28.86 32.37a16 16 0 0 0 18.4 9.66c11.46-2.57 44.92-5.66 61.85 10.7 11.96 11.56 15.28 32.16 9.88 61.23z"/><path d="m593.58 423.59v.71s.51 33.37-11.63 67.66c-15.27 43.04-42.95 67.26-82.18 71.88h-19.55c-39-4.59-66.58-28.52-81.9-71.12-11.53-32.06-11.9-63.7-11.9-68v-30.7h207.16z"/><path d="m426.55 579.19a44.09 44.09 0 0 1 -19.36 28.75c-1.92 1.1-7.63 3.16-17 6.13-1.62.51-2.88.92-3.56 1.16a201.32 201.32 0 0 0 -36 16.7c-12.82-82.67-4.73-142.53 4.93-179.27.16-.62.33-1.24.5-1.85a242.47 242.47 0 0 0 11.79 51.83c12.49 35.14 32.39 60.96 58.7 76.55z"/><path d="m629.33 631.94a201.09 201.09 0 0 0 -36-16.71c-.68-.24-1.94-.65-3.56-1.16-9.35-3-15.06-5-17-6.13a44.09 44.09 0 0 1 -19.36-28.75c26.3-15.59 46.21-41.41 58.65-76.55a241.58 241.58 0 0 0 11.81-52c10.87 40.14 18.13 100.03 5.46 181.3z"/><path d="m539.89 621.36-46.54 24.87-50.5-28.15a76.65 76.65 0 0 0 13.51-26.33 137.67 137.67 0 0 0 21.21 4 14.55 14.55 0 0 0 1.75.1h21.36a14.67 14.67 0 0 0 1.75-.1 137.67 137.67 0 0 0 21.21-4 76.6 76.6 0 0 0 16.25 29.61z"/><path d="m459.79 664.16-17.24 9.21c-47.21 14.26-47.75 51.14-47.75 52.73v167.9h-24.44v-122.09a16 16 0 0 0 -32 0v122.09h-53c-4-23.35-10.39-76.66 2.69-129.12a170.94 170.94 0 0 1 60.54-92.94l.36-.28.25-.19a170.16 170.16 0 0 1 48-26c.52-.18 1.46-.47 2.67-.86 6.14-2 11.21-3.64 15.35-5.25z"/><path d="m691.91 764.88a171 171 0 0 0 -60.55-92.94l-.36-.28-.26-.2a169.9 169.9 0 0 0 -47.92-26c-.52-.18-1.46-.47-2.67-.86-3.61-1.15-6.85-2.2-9.75-3.21l-69.19 37a10.28 10.28 0 0 1 -.93.49l-44.08 23.56a15.82 15.82 0 0 1 -3.17 1.28c-25.08 7.11-26.2 22.3-26.2 22.45v167.83h182.81v-122.09a16 16 0 0 1 32 0v122.09h52.94c3.99-23.4 10.42-76.85-2.67-129.12zm-201.44 99.67h-25.93a16 16 0 1 1 0-32h25.93a16 16 0 0 1 0 32zm0-61h-25.93a16 16 0 1 1 0-32h25.93a16 16 0 0 1 0 32z"/></g><g fill="#413b32"><path d="m687.81 245.84c0 .18-.07.36-.11.54-.35 1.57-9 38.58-43 54.35a70.35 70.35 0 0 1 -9.09 3.48 81.63 81.63 0 0 1 -32 2.92c-16.66-1.59-34.93-7.56-54.67-17.89a16 16 0 1 1 14.83-28.35c20.91 10.94 38.77 15.78 53.32 14.47.49 0 1-.09 1.47-.15h.06a41.85 41.85 0 0 0 12.38-3.41c18.69-8.51 24.84-30 25.47-32.32 5.4-29.07 2.08-49.67-9.88-61.22-16.93-16.36-50.39-13.27-61.85-10.7a16 16 0 0 1 -18.4-9.66c-5.56-13.89-15.27-24.78-28.86-32.37-23-12.81-51.77-12.63-75.19.48a103.07 103.07 0 0 0 -34.52 31.9 16 16 0 0 1 -14.83 7.75c-34-2.34-56.94 6.59-68.08 26.57-7.62 13.65-7.86 30.63-.66 45.43 10.39 21.33 23.33 33.9 38.46 37.35l.83.18a3.28 3.28 0 0 1 .41.08c24.13 4.7 48.2-13.69 48.44-13.88a16 16 0 0 1 19.87 25.09c-1.22 1-25.27 19.69-55.77 21.42-1.48.09-3 .13-4.49.13a73.72 73.72 0 0 1 -16.4-1.82 71.66 71.66 0 0 1 -11.11-3.49c-20-8.09-36.43-25.21-49-51.05-11.78-24.2-11.23-52.25 1.49-75 11.53-20.66 36.3-44.29 89.1-43.3a137.16 137.16 0 0 1 40.64-35.25c33.06-18.5 73.83-18.68 106.42-.49 16.24 9.07 28.77 21.4 37.4 36.76 18.93-2 54.49-2 78.22 20.77 20.29 19.52 26.76 50.04 19.1 90.68z"/><path d="m635.58 291.17v76.88a16 16 0 0 1 -16 16h-239.16a16 16 0 0 1 -16-16v-77.16a16 16 0 0 1 16-16 15.39 15.39 0 0 1 3.05.3 3.28 3.28 0 0 1 .41.08 16 16 0 0 1 12.54 15.62v61.16h207.16v-60.88a16 16 0 0 1 13.48-15.81c.49 0 1-.09 1.47-.15h.06 1a16 16 0 0 1 15.99 15.96z"/><path d="m396.42 368.05v45.95a16 16 0 0 1 -26 12.46c-1.46 4.47-2.9 9.27-4.28 14.37-.17.61-.34 1.23-.5 1.85-9.66 36.74-17.75 96.6-4.93 179.27q1.81 11.7 4.21 24a16 16 0 0 1 -5.64 15.51l-.25.19-.36.28a16 16 0 0 1 -6.39 2.79 16 16 0 0 1 -18.76-12.65q-.93-4.76-1.77-9.44c-30.5-168.8 18.86-258.51 32.71-279.62 1.81-2.76 3-4.35 3.36-4.79a16 16 0 0 1 28.64 9.82z"/><path d="m668.29 642.65c-.56 3.11-1.15 6.26-1.77 9.43a16 16 0 0 1 -15.69 12.92 16.31 16.31 0 0 1 -3.08-.3 16 16 0 0 1 -6.39-2.79l-.36-.28-.26-.2a16 16 0 0 1 -5.6-15.48q2.4-12.32 4.22-24c12.67-81.27 5.41-141.16-5.42-181.26q-2.05-7.62-4.25-14.27a235.38 235.38 0 0 0 -11.26-28.42c-2.86-6-5.45-10.66-7.44-14-2.42-4-4-6.05-4-6.18a15.94 15.94 0 0 1 -3.36-9.17v-.65c0-.55 0-1.1.08-1.63 0-.27.06-.54.1-.8s.07-.4.11-.59.08-.43.13-.64.08-.34.13-.5.1-.37.16-.55v-.1c.07-.22.14-.44.22-.65 0 0 0-.08 0-.12.08-.22.17-.43.26-.64a10.57 10.57 0 0 1 .67-1.4c.16-.3.33-.59.51-.88s.38-.57.57-.84a2.94 2.94 0 0 1 .31-.41c.1-.14.22-.28.33-.42a15.92 15.92 0 0 1 2.57-2.49l.51-.38.53-.36.12-.08c.16-.1.33-.21.5-.3s.39-.23.58-.33.66-.34 1-.49l.2-.09.61-.25.37-.14.48-.16.4-.12.63-.17h.18c.3-.08.6-.14.9-.19h.19c.21 0 .43-.07.64-.09l.5-.05.63-.05h.8.68.47l.63.06c.29 0 .57.07.86.12h.13l.77.16c.29.06.58.14.87.22s.57.17.86.27.56.2.83.32.52.21.77.33a18.52 18.52 0 0 1 1.79 1c.18.11.35.23.52.35s.38.27.56.42.37.28.55.44.35.3.52.46.34.32.51.48.36.37.53.56.34.38.5.58.24.28.35.43l.17.22c.52.68 1.61 2.18 3.14 4.5 13.88 21.15 63.21 110.86 32.73 279.64z"/><path d="m635.58 368.05v45.95a1.93 1.93 0 0 1 0 .24 16 16 0 0 1 -32-.24v-45.95c0-.55 0-1.1.08-1.63 0-.27.06-.54.1-.8s.07-.4.11-.59.08-.43.13-.64.08-.34.13-.5.1-.37.16-.55v-.1c.07-.22.14-.44.22-.65 0 0 0-.08 0-.12.08-.22.17-.43.26-.64a13.84 13.84 0 0 1 .67-1.4 15.09 15.09 0 0 1 1.08-1.72 2.94 2.94 0 0 1 .31-.41c.1-.14.22-.28.33-.42a15.92 15.92 0 0 1 2.57-2.49l.51-.38.53-.36.12-.08c.16-.1.33-.21.5-.3s.39-.23.58-.33a15.22 15.22 0 0 1 2.18-1l.48-.16.4-.12.63-.17h.18c.3-.08.6-.14.9-.19h.19c.21 0 .43-.07.64-.09l.5-.05.63-.05h.8 1.14l.63.06c.29 0 .57.07.86.12h.13l.77.16c.29.06.58.14.87.22s.57.17.86.27.56.2.83.32.52.21.77.33a18.52 18.52 0 0 1 1.79 1c.18.11.35.23.52.35a16.72 16.72 0 0 1 2.14 1.8c.18.18.36.37.53.56s.34.38.5.58.24.28.35.43l.17.22a16 16 0 0 1 3.22 9.52z"/><path d="m633.91 440.68a241.58 241.58 0 0 1 -11.81 52c-12.44 35.14-32.35 61-58.65 76.55a120.45 120.45 0 0 1 -29.81 12.56 137.67 137.67 0 0 1 -21.21 4 14.67 14.67 0 0 1 -1.75.1h-21.36a14.55 14.55 0 0 1 -1.75-.1 137.67 137.67 0 0 1 -21.21-4 120.29 120.29 0 0 1 -29.81-12.56c-26.31-15.59-46.21-41.41-58.66-76.55a242.47 242.47 0 0 1 -11.79-51.83 214.49 214.49 0 0 1 -1.67-27.14 16 16 0 0 1 32 .3v.78c0 4.27.37 35.91 11.9 68 15.32 42.6 42.87 66.53 81.9 71.12h19.55c39.22-4.69 66.9-28.91 82.16-71.91 12.14-34.29 11.64-67.33 11.63-67.66s0-.48 0-.71a16 16 0 0 1 14.86-15.63h.82.33a16 16 0 0 1 16 15.69v.55a219 219 0 0 1 -1.67 26.44z"/><path d="m733.29 903.78a16 16 0 0 1 -15.55 12.22h-435.48a16 16 0 0 1 -15.55-12.22c-.78-3.21-18.91-79.51.34-156.64a202.9 202.9 0 0 1 64.66-104.5q3.75-3.23 7.66-6.26a202.71 202.71 0 0 1 57.28-31.15c.68-.24 1.94-.65 3.56-1.16 9.35-3 15.06-5 17-6.13a44.09 44.09 0 0 0 19.36-28.75 59.12 59.12 0 0 0 1.24-9.78 16 16 0 1 1 32 1.54 89.27 89.27 0 0 1 -3.39 20.8 76.65 76.65 0 0 1 -13.51 26.33 77.59 77.59 0 0 1 -18.18 16.66 51.14 51.14 0 0 1 -9.44 4.58c-4.14 1.61-9.21 3.3-15.35 5.25-1.21.39-2.15.68-2.67.86a170.16 170.16 0 0 0 -48 26l-.25.19-.36.28a170.94 170.94 0 0 0 -60.54 92.94c-13.12 52.5-6.72 105.81-2.72 129.16h409.18c4-23.4 10.37-76.85-2.67-129.12a171 171 0 0 0 -60.55-92.94l-.36-.28-.26-.2a169.9 169.9 0 0 0 -47.92-26c-.52-.18-1.46-.47-2.67-.86-3.61-1.15-6.85-2.2-9.75-3.21-6.76-2.34-11.66-4.39-15-6.62a77.39 77.39 0 0 1 -15.43-13.38 76.6 76.6 0 0 1 -16.25-29.61 89.36 89.36 0 0 1 -3.39-20.82 16 16 0 0 1 32-1.52 59.12 59.12 0 0 0 1.24 9.78 44.09 44.09 0 0 0 19.36 28.75c1.92 1.1 7.63 3.16 17 6.13 1.62.51 2.88.92 3.56 1.16a203.1 203.1 0 0 1 57.27 31.15q3.92 3 7.67 6.27a202.91 202.91 0 0 1 64.57 104.46c19.2 77.13 1.07 153.43.29 156.64z"/><path d="m510.25 668.81-44.08 23.56a15.82 15.82 0 0 1 -3.17 1.28c-25.08 7.11-26.2 22.3-26.2 22.45v167.9h-32v-167.9c0-1.59.54-38.47 47.75-52.73l17.24-9.21 25.61 14.27a15.95 15.95 0 0 0 14.85.38z"/><path d="m404.8 884h32v16a16 16 0 0 1 -32 0z"/><path d="m586.38 628.15-6 3.21-69.19 37a10.28 10.28 0 0 1 -.93.49 15.95 15.95 0 0 1 -14.85-.38l-25.61-14.27 33.56-17.93 46.54-24.87 21.41-11.44a16 16 0 0 1 15.08 28.23z"/><path d="m517.17 662.24a16.05 16.05 0 0 1 -6 6.08 10.28 10.28 0 0 1 -.93.49 15.95 15.95 0 0 1 -14.85-.38l-25.61-14.27-44.56-24.84-7.13-4a16 16 0 0 1 -6.19-21.77 15.84 15.84 0 0 1 5.28-5.64 16 16 0 0 1 16.49-.55l19.17 10.69 50.5 28.15 7.63 4.25a16 16 0 0 1 6.2 21.79z"/><path d="m380.36 761.91v138.09a16 16 0 0 1 -32 0v-138.09a16 16 0 0 1 32 0z"/><path d="m651.64 761.91v138.09a16 16 0 0 1 -32 0v-138.09a16 16 0 0 1 32 0z"/><path d="m516.47 777.55a16 16 0 0 1 -16 16h-25.93a16 16 0 1 1 0-32h25.93a16 16 0 0 1 16 16z"/><path d="m516.47 838.55a16 16 0 0 1 -16 16h-25.93a16 16 0 1 1 0-32h25.93a16 16 0 0 1 16 16z"/></g></svg>