<svg height="512" viewBox="0 0 128 128" width="512" xmlns="http://www.w3.org/2000/svg"><g><g><path d="m99.88 96.179-22.265-38.564v-28.926h-27.415v28.926l-22.27 38.564a8.459 8.459 0 0 0 7.326 12.689h57.3a8.459 8.459 0 0 0 7.324-12.689z" fill="#f5c464"/><rect fill="#f79f63" height="9.689" rx="4.342" width="41.725" x="43.043" y="19"/><path d="m80.747 83.039c-.922-.3-1.835-.621-2.731-.959-11.419-4.307-12.9 2.537-29.159 3.172a26.232 26.232 0 0 1 -3.04-.055l-5.084 8.803a3.243 3.243 0 0 0 2.809 4.865h40.726a3.243 3.243 0 0 0 2.809-4.865z" fill="#f26e53"/></g><g fill="#250a66"><path d="m101.491 95.3-22.031-38.153v-26.708h1.06a6.1 6.1 0 0 0 6.092-6.092v-1a6.1 6.1 0 0 0 -6.092-6.097h-4.42a1.75 1.75 0 0 0 0 3.5h4.42a2.6 2.6 0 0 1 2.592 2.593v1a2.6 2.6 0 0 1 -2.592 2.592h-33.04a2.6 2.6 0 0 1 -2.592-2.592v-1a2.6 2.6 0 0 1 2.592-2.593h18.262a1.75 1.75 0 0 0 0-3.5h-18.262a6.1 6.1 0 0 0 -6.092 6.093v1a6.1 6.1 0 0 0 6.092 6.092h1.06v26.712l-1.34 2.315a1.75 1.75 0 1 0 3.031 1.75l1.572-2.722a1.751 1.751 0 0 0 .234-.875v-27.176h23.923v27.176a1.751 1.751 0 0 0 .234.875l22.265 38.564a6.709 6.709 0 0 1 -5.81 10.064h-57.3a6.709 6.709 0 0 1 -5.809-10.064l8.094-14.019a1.75 1.75 0 0 0 -3.031-1.75l-8.094 14.015a10.21 10.21 0 0 0 8.842 15.314h57.3a10.21 10.21 0 0 0 8.84-15.314z"/><path d="m82.357 82.164a1.745 1.745 0 0 0 -.969-.787c-.9-.3-1.787-.6-2.66-.935-7.026-2.65-10.744-1.383-15.449.219a45.186 45.186 0 0 1 -14.4 2.842 24.686 24.686 0 0 1 -2.837-.051 1.773 1.773 0 0 0 -1.651.87l-5.084 8.806a4.994 4.994 0 0 0 4.325 7.49h40.731a4.994 4.994 0 0 0 4.324-7.49zm3.3 14.207a1.465 1.465 0 0 1 -1.293.747h-40.727a1.494 1.494 0 0 1 -1.293-2.24l4.545-7.873c.7.024 1.415.023 2.131 0a48.852 48.852 0 0 0 15.388-3.026c4.511-1.536 7.233-2.465 13.085-.257q1.07.4 2.165.771l6 10.389a1.466 1.466 0 0 1 -.002 1.489z"/><path d="m41.42 72.978a1.748 1.748 0 0 0 2.39-.64l.843-1.46a1.75 1.75 0 1 0 -3.031-1.75l-.843 1.46a1.75 1.75 0 0 0 .641 2.39z"/></g></g></svg>