<svg id="Layer_1" viewBox="0 0 96 96" xmlns="http://www.w3.org/2000/svg" data-name="Layer 1"><path d="m73.47 50.16-.38-1.88c-.96-4.69-2.77-9.04-5.4-12.94-1.14-1.69-2.38-3.19-3.66-4.53.73.12 1.52.2 2.36.2 1.62 0 3.39-.28 5.19-1.06 5.87-2.53 8.6-11.59 8.6-16.91 0-.56-.45-1-1-1-2.95 0-12.9.46-16.84 6.45-2.02 3.07-2.41 6.32-2.33 8.7-3-2.32-5.9-3.87-8-4.81-.01-1.3.18-3.07.91-4.96 1.13-2.88 2.98-4.73 4.33-5.77.91-.7 1.49-1.7 1.63-2.83.15-1.13-.15-2.25-.85-3.15-.69-.91-1.7-1.49-2.82-1.63-1.14-.15-2.25.15-3.16.85-2.21 1.7-5.23 4.72-7.07 9.43-1.05 2.67-1.55 5.45-1.51 8.3-4.49 2.06-10.57 5.9-15.16 12.72-2.63 3.9-4.44 8.25-5.4 12.94l-.38 1.88c-10.42 1.23-18.53 10.1-18.53 20.84 0 11.58 9.42 21 21 21s21-9.42 21-21c0-9.47-6.3-17.48-14.92-20.1l.24-1.14c.74-3.5 2.11-6.75 4.06-9.65 3.94-5.83 9.45-8.83 12.62-10.16 3.17 1.33 8.68 4.33 12.62 10.16 1.95 2.9 3.32 6.15 4.06 9.65l.24 1.14c-8.62 2.62-14.92 10.63-14.92 20.1 0 11.58 9.42 21 21 21s21-9.42 21-21c0-10.74-8.11-19.61-18.53-20.84zm-9.46-30.57c3.04-4.62 10.65-5.42 14.14-5.54-.32 5-2.86 12.12-7.37 14.07-2.82 1.22-5.62.97-7.62.48l8.69-7.82c.41-.37.44-1 .07-1.41s-1-.45-1.41-.08l-8.5 7.65c-.04-2.05.31-4.78 2-7.35zm-20.01 51.41c0 10.48-8.52 19-19 19s-19-8.52-19-19 8.52-19 19-19 19 8.52 19 19zm18.28-32.01c-4.39-6.51-10.6-9.72-13.91-11.05l-.37-.15-.37.15c-3.31 1.33-9.52 4.54-13.91 11.05-2.1 3.12-3.56 6.6-4.36 10.36l-.22 1.06c-1.34-.26-2.72-.41-4.14-.41-.14 0-.27.02-.4.02l.27-1.34c.9-4.43 2.62-8.54 5.1-12.22 4.54-6.74 10.62-10.4 14.93-12.29l.62-.27-.03-.69c-.13-2.8.33-5.55 1.35-8.17 1.67-4.28 4.42-7.02 6.43-8.57.48-.37 1.07-.53 1.68-.45.6.08 1.13.39 1.5.87s.53 1.07.45 1.67-.39 1.13-.87 1.5c-1.55 1.2-3.68 3.32-4.97 6.63-.99 2.54-1.11 4.88-1.04 6.41l.03.62.58.25c3.66 1.55 10.51 5.23 15.4 12.49 2.48 3.68 4.2 7.79 5.1 12.22l.27 1.34c-.13 0-.26-.02-.4-.02-1.42 0-2.8.15-4.14.41l-.22-1.06c-.8-3.76-2.26-7.24-4.36-10.36zm8.72 51.01c-10.48 0-19-8.52-19-19s8.52-19 19-19 19 8.52 19 19-8.52 19-19 19z"/><circle cx="71" cy="71" fill="#ef5350" r="19"/><circle cx="25" cy="71" fill="#ef5350" r="19"/><path d="m71.4 50.02c-.13 0-.26-.02-.4-.02-1.42 0-2.8.15-4.14.41l-.22-1.06c-.8-3.76-2.26-7.24-4.36-10.36-4.39-6.51-10.6-9.72-13.91-11.05l-.37-.15-.37.15c-3.31 1.33-9.52 4.54-13.91 11.05-2.1 3.12-3.56 6.6-4.36 10.36l-.22 1.06c-1.34-.26-2.72-.41-4.14-.41-.14 0-.27.02-.4.02l.27-1.34c.9-4.43 2.62-8.54 5.1-12.22 4.54-6.74 10.62-10.4 14.93-12.29l.62-.27-.03-.69c-.13-2.8.33-5.55 1.35-8.17 1.67-4.28 4.42-7.02 6.43-8.57.48-.37 1.07-.53 1.68-.45.6.08 1.13.39 1.5.87s.53 1.07.45 1.67-.39 1.13-.87 1.5c-1.55 1.2-3.68 3.32-4.97 6.63-.99 2.54-1.11 4.88-1.04 6.41l.03.62.58.25c3.66 1.55 10.51 5.23 15.4 12.49 2.48 3.68 4.2 7.79 5.1 12.22z" fill="#795548"/><path d="m78.15 14.05c-.32 5-2.86 12.12-7.37 14.07-2.82 1.22-5.62.97-7.62.48l8.69-7.82c.41-.37.44-1 .07-1.41s-1-.45-1.41-.08l-8.5 7.65c-.04-2.05.31-4.78 2-7.35 3.04-4.62 10.65-5.42 14.14-5.54z" fill="#66bb6a"/><path d="m26 86c.06 0 .12 0 .18-.02 1.33-.25 8.17-1.81 11.7-8.52 2.99-5.66 1.57-11.21 1.07-12.77-.17-.53-.73-.81-1.26-.65-.53.17-.81.73-.65 1.26.44 1.38 1.69 6.26-.93 11.23-3.11 5.89-9.12 7.27-10.3 7.48-.54.1-.9.62-.8 1.16.09.48.51.82.98.82z"/><path d="m85.21 64.69c-.17-.53-.73-.81-1.26-.65-.53.17-.82.73-.65 1.26.44 1.38 1.68 6.26-.93 11.23-3.11 5.89-9.12 7.27-10.3 7.48-.54.1-.9.62-.8 1.16.09.48.51.82.98.82.06 0 .12 0 .18-.02 1.33-.25 8.17-1.81 11.7-8.52 2.98-5.65 1.57-11.21 1.07-12.77z"/></svg>