<svg id="Layer_1" viewBox="0 0 1000 1000" xmlns="http://www.w3.org/2000/svg" data-name="Layer 1"><path d="m644.27 553.56q-3.72-.16-7.48-.16t-7.51.16a176.85 176.85 0 0 0 -129.28 64.55q-4.91 6-9.3 12.37a176.71 176.71 0 0 0 0 199.92q4.38 6.39 9.3 12.37a176.78 176.78 0 0 0 136.79 64.73c97.63 0 177.06-79.42 177.06-177 0-95.17-75.4-173.01-169.58-176.94zm-7.48 338.94c-89.35 0-162-72.7-162-162s72.64-162 162-162.05h.1c89.36 0 162.05 72.69 162.05 162.05s-72.79 162-162.15 162z"/><path d="m636.8 568.4h-.1c-89.31.05-162 72.72-162 162.05s72.69 162 162 162 162.06-72.7 162.06-162-72.6-162.04-161.96-162.05zm0 283.18a7.5 7.5 0 0 1 0-15 106.25 106.25 0 0 0 106.13-106.13 7.5 7.5 0 0 1 15 0 121.27 121.27 0 0 1 -121.14 121.13z" fill="#d32f2f"/><path d="m757.93 730.45a121.27 121.27 0 0 1 -121.14 121.13 7.5 7.5 0 0 1 0-15 106.25 106.25 0 0 0 106.14-106.13 7.5 7.5 0 0 1 15 0z"/><path d="m506.05 835.07q-2.9 3.95-6 7.72a176.77 176.77 0 0 1 -136.84 64.71c-97.63 0-177.06-79.43-177.06-177.06s79.43-177 177.06-177q6.92 0 13.82.55 7.53.59 15 1.81a176.62 176.62 0 0 1 108 62.35q3.12 3.78 6 7.72a7.5 7.5 0 0 1 -12.1 8.88q-1.57-2.15-3.21-4.22a162.79 162.79 0 0 0 -127.51-62.13c-89.36 0-162.06 72.69-162.06 162s72.7 162.1 162.06 162.1a162.79 162.79 0 0 0 127.53-62.08q1.63-2.07 3.21-4.22a7.5 7.5 0 0 1 12.1 8.88z"/><path d="m490.74 630.48a162.79 162.79 0 0 0 -127.53-62.08c-89.36 0-162.06 72.69-162.06 162s72.7 162.1 162.06 162.1a162.79 162.79 0 0 0 127.53-62.08 176.71 176.71 0 0 1 0-199.92zm-127.54 221.1a121.27 121.27 0 0 1 -121.13-121.13 7.5 7.5 0 0 1 15 0 106.25 106.25 0 0 0 106.13 106.13 7.5 7.5 0 0 1 0 15z" fill="#e53935"/><path d="m370.7 844.08a7.5 7.5 0 0 1 -7.5 7.5 121.27 121.27 0 0 1 -121.13-121.13 7.5 7.5 0 0 1 15 0 106.25 106.25 0 0 0 106.13 106.13 7.5 7.5 0 0 1 7.5 7.5z"/><path d="m644.29 561a7.49 7.49 0 0 1 -7.49 7.4h-.1a7.49 7.49 0 0 1 -7.4-7.59c0-.12 0-2.65 0-7.25a997.79 997.79 0 0 0 -9.76-123.1c-9.21-65.17-29.12-157.08-71.86-230.82q-2.29-4-4.67-7.84a7.5 7.5 0 1 1 12.76-7.8c.93 1.52 1.86 3 2.76 4.59 45.47 76.47 66.34 172.41 75.88 240.02a1013.45 1013.45 0 0 1 9.86 124.95c.05 4.72.02 7.32.02 7.44z"/><path d="m384.51 568.4a7.49 7.49 0 0 1 -7.51-7.4c0-.57-.63-57.85 9.89-132.39 9.73-69 31.27-167.42 78.63-244.65a7.5 7.5 0 0 1 12.79 7.84c-46 75-67 171.16-76.53 238.66-10.38 73.45-9.78 129.79-9.78 130.35a7.49 7.49 0 0 1 -7.4 7.59z"/><path d="m510.65 92.5a60 60 0 0 0 -60 60v1.18a59.35 59.35 0 0 0 9.66 31.32c.78 1.21 1.6 2.38 2.46 3.52a61.15 61.15 0 0 0 10.88 11.1 59.91 59.91 0 0 0 74 0 61 61 0 0 0 10.87-11.09 59.95 59.95 0 0 0 -47.87-96.03zm-45 60a45 45 0 1 1 45 45 45 45 0 0 1 -44.97-45.03z"/><circle cx="510.65" cy="152.47" fill="#ffcc80" r="44.97"/><path d="m464.63 161.59a144.54 144.54 0 0 0 -13.93-7.94c-19.49-9.89-56.34-24.18-91.31-13.49-48.83 14.93-73.47 72.28-75.2 76.46-.1.22-.18.45-.26.68s-.07.24-.1.36a2.13 2.13 0 0 0 -.1.42 4 4 0 0 0 -.09.5 2.6 2.6 0 0 0 -.05.39v.65s0 .36 0 .54 0 .41.07.61a9.75 9.75 0 0 0 .24 1 5.89 5.89 0 0 0 .21.59 4 4 0 0 0 .21.47 7.12 7.12 0 0 0 1.27 1.86 2.28 2.28 0 0 0 .22.22 5.17 5.17 0 0 0 .71.62l.39.28a2 2 0 0 1 .23.16h.06c3.95 2.6 39.37 25 78.55 25a89.88 89.88 0 0 0 26.4-3.8c35-10.7 57.56-43.17 68.17-62.26a143.6 143.6 0 0 0 7.09-14.35 7.5 7.5 0 0 0 -2.78-8.97zm-76.88 71.35c-28.37 8.67-59.62-2.64-77.57-11.32-3.81-1.84-7-3.56-9.47-5 1.26-2.52 3-5.74 5.08-9.39 10-17.24 29.61-44.09 58-52.77 34.39-10.52 73 8.32 87.05 16.27-7.2 14.5-28.61 51.66-63.09 62.21z"/><path d="m450.82 170.78c-7.18 14.45-28.59 51.61-63.07 62.16-28.37 8.67-59.62-2.64-77.57-11.32l79.74-24.38a7.5 7.5 0 0 0 -4.38-14.35l-79.75 24.39c10-17.24 29.61-44.09 58-52.77 34.37-10.51 72.98 8.32 87.03 16.27z" fill="#43a047"/><path d="m389.92 197.24-79.74 24.38-16.93 5.17a7.61 7.61 0 0 1 -2.19.33 7.45 7.45 0 0 1 -3.87-1.08h-.06a1.88 1.88 0 0 1 -.23-.16 4.73 4.73 0 0 1 -.39-.28 5.17 5.17 0 0 1 -.71-.62 2.28 2.28 0 0 1 -.22-.22 7.12 7.12 0 0 1 -1.27-1.86 4 4 0 0 1 -.21-.47 5.89 5.89 0 0 1 -.21-.59 9.75 9.75 0 0 1 -.24-1c0-.2 0-.4-.07-.61s0-.36 0-.54 0-.44 0-.65a2.6 2.6 0 0 1 .05-.39 4 4 0 0 1 .09-.5 2.13 2.13 0 0 1 .1-.42c0-.12.06-.24.1-.36s.16-.46.26-.68a7.51 7.51 0 0 1 4.68-4.17l16.92-5.17 79.75-24.39a7.5 7.5 0 0 1 4.38 14.35z"/></svg>