<svg id="Capa_1" enable-background="new 0 0 511.905 511.905" height="512" viewBox="0 0 511.905 511.905" width="512" xmlns="http://www.w3.org/2000/svg"><g><path d="m158.96 447.254-19.22 10.407h-61.646l-16.11-10.407 13.957-129.29 17.263-10.434 33.396-.053 16.197 10.382z" fill="#f5fcff"/><path d="m75.941 317.964-13.957 129.29 16.11 10.407 15.11-10.407 13.956-129.29-13.956-10.434z" fill="#dff1f7"/><path d="m158.96 479.579-19.674 10h-56.667l-20.635-10c-8.926 0-16.163-7.236-16.163-16.163 0-8.926 7.236-16.163 16.163-16.163h96.976c8.926 0 16.163 7.236 16.163 16.163-.001 8.927-7.237 16.163-16.163 16.163z" fill="#dff1f7"/><path d="m77.041 463.417c0-8.926 7.236-16.163 16.163-16.163h-31.22c-8.926 0-16.163 7.236-16.163 16.163 0 8.926 7.236 16.163 16.163 16.163h31.22c-8.927-.001-16.163-7.237-16.163-16.163z" fill="#c3e4ed"/><circle cx="110.483" cy="226.15" fill="#dff1f7" r="32.389"/><path d="m109.314 226.15c0-12.227 6.778-22.868 16.779-28.381-4.63-2.552-9.949-4.008-15.61-4.008-17.888 0-32.389 14.501-32.389 32.389s14.501 32.389 32.389 32.389c5.661 0 10.98-1.456 15.61-4.008-10.001-5.513-16.779-16.154-16.779-28.381z" fill="#c3e4ed"/><path d="m142.719 285.438-16.119 10.407h-33.396l-14.98-10.407c-8.969 0-16.24-7.271-16.24-16.24 0-8.969 7.271-16.24 16.24-16.24h64.495c8.969 0 16.24 7.271 16.24 16.24.001 8.969-7.27 16.24-16.24 16.24z" fill="#f5fcff"/><path d="m93.204 269.198c0-8.969 7.271-16.24 16.24-16.24h-31.22c-8.969 0-16.24 7.271-16.24 16.24s7.271 16.24 16.24 16.24h31.22c-8.969 0-16.24-7.271-16.24-16.24z" fill="#dff1f7"/><path d="m158.96 317.859h-96.976c-8.926 0-16.163-7.236-16.163-16.163 0-8.926 7.236-16.163 16.163-16.163h96.976c8.926 0 16.163 7.236 16.163 16.163-.001 8.926-7.237 16.163-16.163 16.163z" fill="#dff1f7"/><path d="m77.041 301.696c0-8.926 7.236-16.163 16.163-16.163h-31.22c-8.926 0-16.163 7.236-16.163 16.163 0 8.926 7.236 16.163 16.163 16.163h31.22c-8.927-.001-16.163-7.237-16.163-16.163z" fill="#c3e4ed"/><path d="m191.308 511.905h-161.649c0-17.853 14.472-32.325 32.325-32.325h129.324z" fill="#f5fcff"/><path d="m93.204 479.579h-31.22c-17.853 0-32.325 14.472-32.325 32.325h31.22c-.001-17.852 14.472-32.325 32.325-32.325z" fill="#dff1f7"/><path d="m449.898 447.254-16.088 10.407h-64.777l-16.111-10.407 13.957-129.29 17.263-10.434 32.889-.052 16.704 10.381z" fill="#f5fcff"/><path d="m384.142 307.53-17.263 10.434-13.957 129.29 16.111 10.407 15.109-10.407 13.957-129.29z" fill="#dff1f7"/><path d="m320.597 447.254-32.262 10.407h-65.819l-31.22-10.407 16.163-226.213 30.881-10.506 40.153-.13 25.941 10.322z" fill="#dff1f7"/><path d="m207.459 221.041-16.163 226.213 31.22 10.407v-10.407l16.163-226.213-.339-10.506z" fill="#c3e4ed"/><path d="m449.898 479.579-17.612 10h-56.776l-22.588-10c-8.926 0-16.163-7.236-16.163-16.163 0-8.926 7.236-16.163 16.163-16.163h96.976c8.926 0 16.163 7.236 16.163 16.163-.001 8.927-7.237 16.163-16.163 16.163z" fill="#dff1f7"/><path d="m381.3 447.254h-28.378c-8.926 0-16.163 7.236-16.163 16.163 0 8.926 7.236 16.163 16.163 16.163h28.378c1.837-5.046 2.842-10.489 2.842-16.163s-1.005-11.116-2.842-16.163z" fill="#c3e4ed"/><path d="m304.519 220.872h-97.399c-8.88 0-16.078-7.198-16.078-16.078 0-8.88 7.198-16.078 16.078-16.078l19.225-10.407h61.99l16.183 10.407c8.88 0 16.078 7.198 16.078 16.078.001 8.88-7.197 16.078-16.077 16.078z" fill="#f5fcff"/><path d="m222.262 204.794c0-8.88 7.198-16.078 16.078-16.078h-31.22c-8.88 0-16.078 7.198-16.078 16.078s7.198 16.078 16.078 16.078h31.22c-8.88 0-16.078-7.198-16.078-16.078z" fill="#dff1f7"/><circle cx="401.421" cy="226.286" fill="#dff1f7" r="32.389"/><path d="m400.252 226.286c0-12.227 6.778-22.869 16.779-28.381-4.63-2.552-9.949-4.008-15.61-4.008-17.888 0-32.389 14.501-32.389 32.389s14.501 32.389 32.389 32.389c5.661 0 10.98-1.456 15.61-4.008-10.001-5.512-16.779-16.154-16.779-28.381z" fill="#c3e4ed"/><path d="m433.658 285.575-13.807 10.407h-35.708l-14.979-10.407c-8.969 0-16.24-7.271-16.24-16.24 0-8.969 7.271-16.24 16.24-16.24h64.495c8.969 0 16.24 7.271 16.24 16.24-.001 8.969-7.272 16.24-16.241 16.24z" fill="#f5fcff"/><path d="m384.142 269.335c0-8.969 7.271-16.24 16.24-16.24h-31.22c-8.969 0-16.24 7.271-16.24 16.24s7.271 16.24 16.24 16.24h31.22c-8.969 0-16.24-7.271-16.24-16.24z" fill="#dff1f7"/><path d="m449.898 317.859h-96.976c-8.926 0-16.163-7.236-16.163-16.163 0-8.926 7.236-16.163 16.163-16.163h96.976c8.926 0 16.163 7.236 16.163 16.163-.001 8.926-7.237 16.163-16.163 16.163z" fill="#dff1f7"/><path d="m367.979 301.696c0-8.926 7.236-16.163 16.163-16.163h-31.22c-8.926 0-16.163 7.236-16.163 16.163 0 8.926 7.236 16.163 16.163 16.163h31.22c-8.926-.001-16.163-7.237-16.163-16.163z" fill="#c3e4ed"/><path d="m336.76 479.579-29.141 10h-104l-28.485-10c-8.926 0-16.163-7.236-16.163-16.163 0-8.926 7.236-16.163 16.163-16.163h161.626c8.926 0 16.163 7.236 16.163 16.163-.001 8.927-7.237 16.163-16.163 16.163z" fill="#f5fcff"/><path d="m190.191 463.417c0-8.926 7.236-16.163 16.163-16.163h-31.22c-8.926 0-16.163 7.236-16.163 16.163 0 8.926 7.236 16.163 16.163 16.163h31.22c-8.927-.001-16.163-7.237-16.163-16.163z" fill="#dff1f7"/><g><circle cx="255.952" cy="32.389" fill="#f5fcff" r="32.389"/><path d="m254.783 32.389c0-12.227 6.778-22.868 16.779-28.381-4.63-2.552-9.949-4.008-15.61-4.008-17.888 0-32.389 14.501-32.389 32.389s14.501 32.389 32.389 32.389c5.661 0 10.98-1.456 15.61-4.008-10.001-5.513-16.779-16.154-16.779-28.381z" fill="#dff1f7"/><path d="m304.44 124.014-30.103 10.407h-35.913l-30.96-10.407-8.484-33.416c-4.024-15.848 7.953-31.246 24.304-31.246h65.203c16.313 0 28.283 15.33 24.327 31.156z" fill="#dff1f7"/><path d="m254.505 59.352h-31.22c-16.351 0-28.328 15.398-24.304 31.246l8.484 33.416 30.96 10.407.26-10.407-8.485-33.416c-4.023-15.848 7.954-31.246 24.305-31.246z" fill="#c3e4ed"/><path d="m304.446 156.328-19.008 10.407h-62.874l-15.359-10.407c-8.923 0-16.157-7.234-16.157-16.157 0-8.923 7.234-16.157 16.157-16.157h97.242c8.923 0 16.157 7.234 16.157 16.157-.001 8.923-7.235 16.157-16.158 16.157z" fill="#f5fcff"/><path d="m222.267 140.171c0-8.923 7.234-16.157 16.157-16.157h-31.22c-8.923 0-16.157 7.234-16.157 16.157 0 8.923 7.234 16.157 16.157 16.157h31.22c-8.923 0-16.157-7.234-16.157-16.157z" fill="#dff1f7"/><path d="m320.561 188.748h-129.217c-8.949 0-16.204-7.255-16.204-16.204 0-8.949 7.255-16.204 16.204-16.204h129.217c8.949 0 16.204 7.255 16.204 16.204 0 8.949-7.255 16.204-16.204 16.204z" fill="#dff1f7"/><path d="m206.359 172.544c0-8.949 7.255-16.204 16.204-16.204h-31.22c-8.949 0-16.204 7.255-16.204 16.204 0 8.949 7.255 16.204 16.204 16.204h31.22c-8.949 0-16.204-7.255-16.204-16.204z" fill="#c3e4ed"/></g><path d="m482.246 511.905h-161.649v-32.325h130.587c17.155 0 31.062 13.907 31.062 31.062z" fill="#f5fcff"/><path d="m320.597 479.579v32.325h95.87c0-11.798-3.242-22.848-8.867-32.325z" fill="#c3e4ed"/><path d="m385.247 511.905h-258.647v-1.263c0-17.155 13.907-31.062 31.062-31.062h196.523c17.155 0 31.062 13.907 31.062 31.062z" fill="#dff1f7"/><path d="m190.145 479.579h-32.483c-17.155 0-31.062 13.907-31.062 31.062v1.263h31.22c0-17.852 14.472-32.325 32.325-32.325z" fill="#c3e4ed"/></g></svg>