<svg id="chestnut" viewBox="0 0 64 64" xmlns="http://www.w3.org/2000/svg"><g fill="#545817"><path d="m36 14 9-7-2 12z"/><path d="m31 15-10-10v14z"/><path d="m11.44444 26.99999-5.44444-6.99999 8 .66667z"/><path d="m16 42h-9l5-7z"/><path d="m31 49-8 8s0-10 0-11z"/></g><circle cx="31" cy="31" fill="#e07c1d" r="18"/><path d="m47.68622 24.26892c-2.66687-6.60382-9.12695-11.26892-16.68622-11.26892-9.9411 0-18 8.05884-18 18 0 6.51428 3.47229 12.20306 8.65527 15.36285 4.19983-14.47296 17.27661-19.99982 26.03094-22.09393z" fill="#8d4705"/><path d="m23 31 25.10144-12.15863c-3.80695-5.34442-10.03986-8.84137-17.10144-8.84137-11.59796 0-21 9.40198-21 21s9.40204 21 21 21c9.86853 0 18.12421-6.81628 20.37372-15.99121z" fill="#7f813c"/><g fill="#707335"><path d="m37.6153 23.92065 10.48615-5.07928c-2.47296-3.47168-5.97345-6.15558-10.05585-7.61597.44348 4.8576.25134 9.06238-.4303 12.69525z"/><path d="m34.38013 33.00891c-4.44983 7.83838-11.91351 11.32812-18.20758 12.86017 3.79858 3.78802 9.03906 6.13092 14.82745 6.13092 9.86853 0 18.12421-6.81628 20.37372-15.99121z"/></g><path d="m61 51c0-8.83656-9-19-16-19s-16 10.16344-16 19 7.16344 10 16 10 16-1.16344 16-10z" fill="#e07c1d"/><path d="m52.26086 34.96838c-.95953 19.52966-17.05365 15.69604-23.04089 13.57666-.14282.82355-.21997 1.64484-.21997 2.45496 0 8.83655 7.16345 10 16 10s16-1.16345 16-10c0-5.88995-3.99957-12.3653-8.73914-16.03162z" fill="#cf721b"/><path d="m35 17-4-14-4 14s4 4 8 0z" fill="#7f813c"/><path d="m17 35-14-4 14-4s3 3 0 8z" fill="#7f813c"/><path d="m16 22s-1-7-5-12c0 0 6.90098 6 12 6 0 0-1 6-7 6z" fill="#7f813c"/><path d="m27 22-5-1v5s5 1 5-4z" fill="#7f813c"/><path d="m28 38-4 3-2-5s4-2 6 2z" fill="#7f813c"/><path d="m29.00061 50.98077c0 .00641-.00061.01288-.00061.01923 0 8.83655 7.16345 10 16 10s16-1.16345 16-10c0-.00946-.00092-.0191-.00092-.02856-4.60822 4.02252-12.04987 4.02856-15.99908 4.02856-3.94812 0-11.39087 0-15.99939-4.01923z" fill="#8d4705"/><path d="m35.74316 43.99951c-.1875 0-.37695-.05225-.54541-.1626-.46289-.30176-.59277-.92139-.29102-1.38379 1.3335-2.04346 3.03516-3.90723 4.79102-5.24805.43945-.33545 1.06641-.25146 1.40186.18799.33496.43896.25098 1.06641-.18799 1.40186-1.58008 1.20605-3.11768 2.89355-4.33008 4.75098-.19189.29395-.51172.45361-.83838.45361z" fill="#fff"/><path d="m33.4292 49.00049c-.08691 0-.1748-.01172-.2627-.03564-.5332-.14502-.84766-.69434-.70264-1.22705.09717-.35742.20898-.71436.33398-1.07031.18359-.52051.75586-.79248 1.27588-.61084.52051.18359.79443.75488.61084 1.27588-.10938.30908-.20654.61914-.29102.92969-.12109.44531-.52393.73828-.96436.73828z" fill="#fff"/><path d="m22 27c-.55225 0-1-.44775-1-1v-5c0-.2998.13428-.5835.36621-.77344s.53467-.26709.83008-.20703l5 1c.5415.1084.89258.63525.78418 1.17676-.10791.54102-.63232.8916-1.17676.78418l-3.80371-.76074v3.78027c0 .55225-.44775 1-1 1z" fill="#490b2b"/><path d="m24 42c-.09033 0-.18115-.01221-.27002-.03711-.29932-.08398-.54297-.30273-.65869-.59131l-2-5c-.20508-.51318.04443-1.09473.55713-1.30029.51562-.2041 1.09521.04492 1.30029.55713l1.51514 3.78857 2.95605-2.2168c.44336-.33203 1.06934-.24121 1.3999.19971.33154.44189.24219 1.06885-.19971 1.3999l-4 3c-.17529.13135-.38623.2002-.6001.2002z" fill="#490b2b"/><path d="m22 46s-7 1-12 5c0 0 5-5.90098 5-11 0 0 7 0 7 6z" fill="#7f813c"/><path d="m49.95068 32.30157c.02948-.43298.04932-.86682.04932-1.30157 0-3.78516-1.10016-7.37769-3.1344-10.44885l1.672-.80994c.26465-.12842.45996-.3667.53271-.65234.07324-.28516.0166-.58789-.1543-.82764-1.16498-1.63544-2.53436-3.08392-4.05896-4.32111l1.12927-6.77557c.06787-.40625-.12061-.8125-.47461-1.02344-.35352-.21191-.80127-.18359-1.12549.06934l-5.49707 4.27551c-1.62634-.62769-3.33093-1.05884-5.07788-1.28632l-1.84985-6.47455c-.12256-.4292-.51514-.7251-.96143-.7251s-.83887.2959-.96143.7251l-1.84863 6.47021c-.45911.05896-.91394.12982-1.36371.21686l-5.1192-5.1192c-.28662-.28613-.7168-.37207-1.08984-.2168-.37354.15479-.61719.51953-.61719.92383v6.96478c-.56024.3255-1.09937.68213-1.62714 1.05402-3.57599-1.67908-6.76788-3.81702-6.81427-3.8479-.40967-.27588-.95898-.21143-1.29395.15137-.33496.36377-.354.9165-.04541 1.30225 1.4519 1.81476 2.63739 4.36737 3.53882 6.77954-.53479.67596-1.03595 1.37842-1.49017 2.11462l-6.18488-.51526c-.38818-.0293-.77344.1709-.9624.52051-.18896.34863-.15381.77686.08984 1.08984l4.34021 5.58032c-.14746.65448-.26398 1.31958-.3512 1.99469l-6.47437 1.84979c-.4292.12256-.7251.51514-.7251.96143s.2959.83887.7251.96143l6.47968 1.85132c.11609.9079.28534 1.79797.50891 2.66754l-3.52765 4.93866c-.21729.30469-.24658.70557-.0752 1.03857s.51465.54248.88916.54248h5.57635c.13983.21454.29181.42004.43878.62939-1.67993 3.57739-3.81519 6.76849-3.84424 6.81152-.27637.40967-.21191.95996.15137 1.29443.19092.17578.43408.26465.67773.26465.2207 0 .44141-.07275.62451-.21924 1.80945-1.44763 4.35248-2.63074 6.75836-3.53113 1.40942 1.11609 2.95551 2.06494 4.61713 2.81342v5.93695c0 .4043.24365.76904.61719.92383.12402.05127.25391.07617.38281.07617.26025 0 .51562-.10156.70703-.29297l4.47388-4.47388c1.2323 8.02686 9.24927 8.76685 16.81909 8.76685 8.2251 0 17-.8501 17-11 0-7.25232-5.7785-15.55438-12.04932-18.69843zm-1.95068-1.30157c0 .16302-.01855.32477-.02319.48761-1.00079-.31659-2-.48761-2.97681-.48761-1.93848 0-3.96545.67285-5.91687 1.82379l-12.86536-2.27106 18.83136-9.12177c1.91516 2.7951 2.95087 6.09167 2.95087 9.56903zm-4.40723-21.63867-.54352 3.26086c-.67438-.4422-1.37103-.84833-2.0885-1.21368zm-21.59277-1.94727 2.5611 2.5611c-.87927.27057-1.73236.59821-2.5611.9726v-3.53369zm-13.81104 13.77197 3.03137.2525c-.37323.76581-.71411 1.54993-.99774 2.36194zm.75439 19.81396 1.52362-2.13312c.28107.73224.60797 1.44067.96259 2.13312zm10.70233 6.46472c.97729-.31396 1.8739-.57227 2.61554-.77283.5332-.14404.84814-.69336.7041-1.22656-.14453-.5332-.69434-.84863-1.22656-.7041-2.59473.70215-5.84766 1.75098-8.70068 3.1792 1.23193-2.18506 2.66553-5.04297 3.42334-7.6626.15381-.53027-.15186-1.08496-.68262-1.23828-.52832-.15381-1.08496.15088-1.23828.68262-.16119.55682-.36005 1.1297-.58118 1.70636-1.29279-2.11444-2.21185-4.48004-2.64844-7.01404l5.41418 1.54694c.0918.02637.18457.03906.27539.03906.43506 0 .83545-.28662.96094-.72559.15186-.53125-.15576-1.08447-.68652-1.23633l-10.63477-3.03857 10.63477-3.03857c.53076-.15186.83838-.70508.68652-1.23633-.15186-.53076-.70557-.83936-1.23633-.68652l-5.40021 1.54291c.50409-2.89062 1.617-5.57166 3.22308-7.89539.30798.96124.56238 1.84393.76013 2.57513.12061.4458.52393.73926.96484.73926.08643 0 .17432-.01172.26172-.03516.5332-.14404.84814-.69336.7041-1.22656-.70215-2.59424-1.75098-5.84717-3.17871-8.70068 2.48438 1.40137 5.83936 3.0625 8.72559 3.69531.54102.12158 1.07275-.22266 1.19092-.76221.11865-.53955-.22314-1.07275-.76221-1.19092-.83514-.18317-1.72498-.4715-2.62494-.81586 2.1073-1.29095 4.46838-2.20251 6.99249-2.64099l-1.54333 5.40167c-.15186.53125.15576 1.08447.68652 1.23633.53174.15234 1.08496-.15576 1.23633-.68652l3.03857-10.63477 3.03857 10.63477c.12549.43896.52588.72559.96094.72559.09082 0 .18359-.0127.27539-.03906.53076-.15186.83838-.70508.68652-1.23633l-1.54218-5.39764c4.74377.83264 9.08606 3.34521 12.14862 7.14569l-24.00391 11.62695c-.39014.18896-.61426.60791-.5542 1.0376.05957.42969.38916.77148.81641.84717l13.93732 2.46051c-4.80463 3.88538-8.65985 10.43048-8.75647 16.32812-3.08167-.46155-5.92004-1.62085-8.36133-3.30878zm4.35431 7.12122v-2.72668c.69598.23389 1.41138.42474 2.13782.58887l-2.13782 2.13782zm21-21.58594c6.08594 0 14.66687 8.97961 14.97137 17.53424-4.34009 3.46344-11.14581 3.46576-14.97137 3.46576-3.62311 0-10.5882-.00385-14.97076-3.47638.31122-8.55151 8.88733-17.52362 14.97076-17.52362zm0 27c-8.55615 0-13.85248-1.21051-14.82343-6.9472 4.83722 2.93677 11.29565 2.9472 14.82343 2.9472 3.45642 0 9.96783-.0105 14.82416-2.95184-.96893 5.74066-6.26569 6.95184-14.82416 6.95184z" fill="#490b2b"/></svg>