<svg id="Capa_1" enable-background="new 0 0 511.999 511.999" height="512" viewBox="0 0 511.999 511.999" width="512" xmlns="http://www.w3.org/2000/svg"><g><g><path d="m153.042 306.917c-20.177 44.877-61.083 70.221-91.37 56.605-30.285-13.616-38.479-61.035-18.303-105.913 20.178-44.879 61.084-70.222 91.371-56.606 30.285 13.616 38.479 61.034 18.302 105.914z" fill="#f2e03d"/></g><g><path d="m358.958 306.917c20.177 44.877 61.083 70.221 91.37 56.605 30.285-13.616 38.479-61.035 18.303-105.913-20.178-44.879-61.084-70.222-91.371-56.606-30.286 13.616-38.48 61.034-18.302 105.914z" fill="#f4e74d"/></g><g><path d="m201.79 66.694c10.981 29.365 33.025 50.608 49.235 47.451 16.209-3.157 20.447-29.521 9.465-58.885-10.982-29.365-33.025-50.607-49.233-47.45-16.211 3.158-20.448 29.52-9.467 58.884z" fill="#fd7a6e"/></g><g><path d="m222.451 51.698c-6.324-16.91-7.591-32.815-4.44-43.875-2.328-.408-4.594-.433-6.754-.012-16.211 3.157-20.448 29.52-9.467 58.883 10.981 29.365 33.025 50.608 49.235 47.451 6.874-1.339 11.586-6.863 13.906-15.008-15.138-2.652-32.963-21.989-42.48-47.439z" fill="#fb695b"/></g><g><path d="m312.58 66.694c-10.981 29.365-33.025 50.608-49.234 47.451-16.21-3.157-20.448-29.521-9.467-58.885 10.983-29.365 33.026-50.607 49.235-47.45 16.21 3.158 20.449 29.52 9.466 58.884z" fill="#fd7a6e"/></g><g><path d="m279.873 58.593c7.651-20.456 20.668-36.959 33.343-44.029-2.534-3.564-5.915-5.938-10.102-6.753-16.209-3.157-38.252 18.085-49.235 47.45-10.981 29.364-6.742 55.727 9.467 58.885 4.917.958 10.372-.342 15.892-3.421-7.274-10.235-7.51-30.353.635-52.132z" fill="#fb695b"/></g><g><ellipse clip-rule="evenodd" cx="257.416" cy="266.459" fill="#f9ee80" fill-rule="evenodd" rx="149.495" ry="190.48"/></g><g><path clip-rule="evenodd" d="m183.687 266.459c0-88.52 47.394-162.932 111.612-184.302-12.099-4.026-24.794-6.177-37.883-6.177-82.562 0-149.495 85.281-149.495 190.479 0 105.199 66.932 190.48 149.495 190.48 13.09 0 25.785-2.15 37.883-6.177-64.217-21.371-111.612-95.783-111.612-184.303z" fill="#f4e74d" fill-rule="evenodd"/></g><g><g><g><path d="m210.35 195.673c0 12.103-12.321 21.916-27.522 21.916-15.199 0-27.519-9.813-27.519-21.916s12.32-21.915 27.519-21.915c15.201-.001 27.522 9.811 27.522 21.915" fill="#ffa1ac"/></g><g><path d="m304.483 195.673c0 12.103 12.321 21.916 27.52 21.916 15.201 0 27.52-9.813 27.52-21.916s-12.319-21.915-27.52-21.915c-15.199-.001-27.52 9.811-27.52 21.915" fill="#ffa1ac"/></g><g><path d="m198.869 181.029c-7.61 0-14.848-3.296-19.855-9.042-2.722-3.122-2.397-7.86.726-10.581 3.122-2.724 7.86-2.398 10.581.726 2.159 2.477 5.275 3.897 8.549 3.897 3.272 0 6.386-1.42 8.543-3.896 2.721-3.123 7.459-3.448 10.582-.729 3.123 2.721 3.449 7.458.729 10.582-5.008 5.747-12.244 9.043-19.855 9.043z"/></g><g><path d="m315.965 181.029c-7.613 0-14.851-3.297-19.856-9.044-2.72-3.124-2.393-7.861.73-10.582 3.124-2.721 7.86-2.395 10.582.73 2.155 2.476 5.27 3.896 8.544 3.896 3.272 0 6.387-1.42 8.545-3.896 2.721-3.124 7.458-3.449 10.581-.728s3.449 7.459.728 10.581c-5.007 5.747-12.245 9.043-19.854 9.043z"/></g></g></g><g><path d="m392.46 286.381-7.703 3.408c-7.519 3.327-16.192 2.749-23.203-1.546l-39.101-23.954c-8.446-5.174-19.149-4.881-27.299.748l-23.512 16.24c-8.561 5.913-19.888 5.913-28.449 0l-23.512-16.24c-8.15-5.629-18.853-5.923-27.299-.748l-39.102 23.954c-7.011 4.295-15.684 4.873-23.203 1.546l-7.703-3.408c-16.547-7.322-35.157 4.793-35.157 22.889v25.03c0 93.999 76.201 170.2 170.2 170.2s170.2-76.201 170.2-170.2v-25.03c0-18.095-18.61-30.211-35.157-22.889z" fill="#fff1cf"/></g><g><path d="m175.298 308.091v-28.884c0-1.597.124-3.148.336-4.658l-22.355 13.695c-7.011 4.295-15.684 4.873-23.203 1.546l-7.703-3.408c-16.547-7.322-35.157 4.793-35.157 22.889v25.03c0 93.999 76.201 170.2 170.2 170.2 16.273 0 32.012-2.288 46.916-6.552-74.282-22.272-129.034-98.827-129.034-189.858z" fill="#ffeab7"/></g><g><g><path d="m288.082 203.383c0 21.536-19.655 38.994-30.898 38.994s-30.898-17.458-30.898-38.994 61.796-21.536 61.796 0z" fill="#fd7a6e"/></g></g><g><path d="m256.279 203.383c0-7.147 6.808-11.919 15.902-14.322-18.309-4.839-45.894-.067-45.894 14.322 0 21.536 19.655 38.994 30.898 38.994 4.293 0 9.812-2.552 14.996-6.899-8.391-7.036-15.902-18.783-15.902-32.095z" fill="#fb695b"/></g><g><path d="m475.471 254.533c-15.968-35.517-44.356-60.305-73.069-64.176-6.874-20.856-16.592-40.238-28.889-57.259-2.425-3.359-7.116-4.114-10.471-1.688-3.358 2.425-4.113 7.113-1.688 10.471 24.542 33.972 38.058 78.214 38.058 124.577 0 3.478-.083 6.976-.234 10.451-3.317.353-6.606 1.221-9.754 2.614l-7.702 3.408c-5.266 2.33-11.341 1.925-16.25-1.083l-39.102-23.953c-10.968-6.719-24.894-6.339-35.479.973l-23.511 16.24c-5.961 4.115-13.968 4.115-19.925 0l-23.513-16.24c-10.584-7.311-24.512-7.691-35.479-.973l-39.102 23.953c-4.911 3.009-10.985 3.412-16.25 1.083l-7.702-3.408c-3.142-1.39-6.426-2.257-9.737-2.611-.152-3.478-.252-6.977-.252-10.453 0-100.896 63.699-182.979 141.995-182.979 30.148 0 58.961 12.059 83.32 34.873 3.024 2.833 7.771 2.676 10.601-.347 2.832-3.023 2.677-7.77-.347-10.601-11.458-10.732-23.837-19.322-36.869-25.681 2.047-4.005 3.894-8.151 5.483-12.403 8.279-22.136 8.815-43.226 1.435-56.414-3.8-6.789-9.502-11.097-16.492-12.458-10.306-2.011-22.104 2.783-33.215 13.49-5.151 4.965-9.935 10.982-14.146 17.705-13.555-21.634-32.092-34.165-47.364-31.195-6.989 1.361-12.691 5.669-16.49 12.457-7.382 13.188-6.846 34.278 1.433 56.415 1.612 4.31 3.484 8.508 5.562 12.559-20.243 9.929-38.78 25.205-54.519 45.26-14.419 18.372-25.639 39.707-33.32 62.905-29.386 2.499-59.48 27.836-75.959 64.49-10.364 23.054-14.029 47.57-10.321 69.032 3.895 22.537 15.397 39.157 32.39 46.797 6.435 2.892 13.314 4.345 20.535 4.345 1.692 0 3.404-.088 5.132-.247 5.261 22.828 15.026 44.413 28.986 63.75 2.427 3.359 7.114 4.115 10.471 1.691 3.358-2.425 4.116-7.112 1.691-10.471-20.08-27.814-30.694-60.71-30.694-95.132v-25.03c0-6.04 2.903-11.395 7.966-14.69s11.133-3.783 16.656-1.34l7.702 3.408c9.773 4.324 21.044 3.572 30.156-2.009l39.102-23.953c5.91-3.622 13.416-3.415 19.119.523l23.512 16.24c11.059 7.638 25.918 7.638 36.975 0l23.512-16.24c5.703-3.939 13.207-4.146 19.118-.523l39.102 23.953c9.114 5.582 20.388 6.334 30.156 2.009l7.702-3.408c5.521-2.443 11.595-1.955 16.657 1.34 5.062 3.296 7.966 8.65 7.966 14.69v25.029c0 89.713-72.987 162.7-162.7 162.7-41.816 0-81.554-15.834-111.894-44.585-3.007-2.848-7.753-2.722-10.604.285-2.849 3.007-2.721 7.754.285 10.604 33.139 31.402 76.541 48.696 122.212 48.696 84.113 0 154.761-58.744 173.079-137.36.789.034 1.578.065 2.36.065 7.23 0 14.12-1.453 20.547-4.342 16.992-7.64 28.495-24.26 32.39-46.797 3.706-21.461.041-45.978-10.323-69.032zm-173.792-239.362c2.597.506 4.647 2.161 6.271 5.061 5.099 9.109 4.158 26.315-2.395 43.835-1.521 4.069-3.295 8.03-5.288 11.826-13.726-4.879-28.039-7.39-42.662-7.411.869-3.493 1.967-7.035 3.298-10.594 10.408-27.828 29.834-44.835 40.776-42.717zm-92.864 48.896c-6.552-17.521-7.491-34.727-2.394-43.835 1.622-2.899 3.674-4.555 6.27-5.061 8.99-1.746 24.893 9.87 36.225 32.333-.722 1.689-1.413 3.397-2.061 5.128-2.106 5.632-3.718 11.258-4.826 16.779-9.499 1.153-18.811 3.377-27.853 6.615-2.021-3.834-3.82-7.84-5.361-11.959zm-114.317 217.942c-9.256 6.025-14.781 16.217-14.781 27.261v25.029c0 8.541.605 16.995 1.787 25.319-5.986.349-11.611-.623-16.757-2.937-12.302-5.53-20.74-18.198-23.759-35.67-3.205-18.546.07-39.971 9.222-60.327 12.91-28.717 35.659-49.935 57.659-54.797-4.897 19.327-7.448 39.705-7.448 60.572 0 4.123.12 8.278.321 12.394-2.161.82-4.257 1.863-6.244 3.156zm376.513 39.002c-3.019 17.472-11.457 30.14-23.759 35.67-4.331 1.947-9.01 2.954-13.958 3.015 1.193-8.297 1.823-16.774 1.823-25.396v-25.03c0-11.044-5.525-21.235-14.781-27.261-1.981-1.29-4.072-2.331-6.228-3.151.201-4.118.304-8.273.304-12.4 0-20.518-2.504-40.666-7.306-59.83 21.188 6.019 42.328 26.575 54.683 54.056 9.152 20.356 12.427 41.781 9.222 60.327z"/><path d="m218.786 203.383c0 25.665 23.235 46.494 38.398 46.494s38.397-20.829 38.397-46.494c0-14.147-15.431-23.652-38.398-23.652-22.966 0-38.397 9.505-38.397 23.652zm61.796 0c0 17.863-16.612 31.494-23.397 31.494s-23.398-13.631-23.398-31.494c0-4.093 9.609-8.652 23.397-8.652 6.925 0 13.515 1.218 18.082 3.34 1.985.922 5.316 2.839 5.316 5.312z"/></g></g></svg>