<svg id="Capa_1" enable-background="new 0 0 512.002 512.002" height="512" viewBox="0 0 512.002 512.002" width="512" xmlns="http://www.w3.org/2000/svg"><g><g><path d="m421.389 496.35-24.997-111.378c-12.029-53.597-18.777-108.245-20.147-163.158l-.934-37.472c-1.116-44.757-37.72-80.459-82.491-80.459h-73.031c-44.771 0-77.113 35.702-78.229 80.459l.681 36.913c-1.369 54.914-10.098 110.828-22.128 164.426l-26.128 108.51c-.982 4.375 2.346 8.533 6.83 8.533l4.489 2.159h309.255c4.484 0 7.812-4.158 6.83-8.533z" fill="#f0e9e6"/><path d="m235.481 103.5c-44.77 0-81.37 35.7-82.49 80.46l-.93 37.47c-1.37 54.91-8.12 109.56-20.15 163.16l-26.91 119.91h-7.25c-4.49 0-7.82-4.16-6.83-8.53l24.99-111.38c12.03-53.6 18.78-108.25 20.15-163.16l.93-37.47c1.12-44.76 37.72-80.46 82.49-80.46z" fill="#e5dcd8"/><path d="m304.001 55.5c0-23.958-17.553-43.817-40.5-47.418 0 0-4.948.375-7.5.375-26.51 0-44.021 20.629-44.021 47.138s44.021 199.905 44.021 199.905 5.656-35.21 16.362-76.33c.278-1.066 4.642-2.136 4.921-3.21 12.833-49.431 26.717-106.203 26.717-120.46z" fill="#fc9aa1"/><path d="m263.5 227.975c3.819-14.157 8.719-32.508 13.783-52.015-7.409-3.187-16.625-5.096-26.063-4.238-1.463.133-2.807-.802-3.174-2.225-12.338-47.81-25.045-100.359-25.045-113.997 0-23.96 17.55-43.82 40.5-47.42-2.44-.38-4.95-.58-7.5-.58-26.51 0-48 21.49-48 48 0 26.266 47.118 196.81 47.987 199.951.004.015.013.049.013.049s.009-.031.012-.042c.2-.724 3.145-11.379 7.488-27.478-.001-.001-.001-.003-.001-.005z" fill="#fb8189"/><path d="m295.001 274.5h-78l2.383-49.798c0-13.404 4.915-25.141 15.207-32.16 1.373-.936 3.741-2.827 3.741-2.827 5.296-2.69 11.322-4.215 17.668-4.215 21.539 0 39 17.461 39 39v1.95l-2.979 3.55z" fill="#fc9aa1"/><path d="m168.32 412.191c36.019-20.582 47.915-55.489 47.915-55.489l7.02 9.006c11.255 25.743 15.021 80.015-14.743 109.778-7.947 7.947-18.406 11.851-28.822 11.712 0 0-3.881-.941-5.849-1.262-7.982-1.304-14.749-7.057-20.904-13.213-15.621-15.621-14.315-43.561 15.383-60.532z" fill="#fc9aa1"/><path d="m163.941 477.49c4.58 4.58 9.99 7.819 15.75 9.709-10.05-.13-20.07-4.029-27.75-11.709-15.62-15.62-18.38-46.67 11.32-63.64 36.02-20.59 53.03-57.28 53.03-57.28 2.47 2.47 4.854 6.298 6.964 11.138-7.45 12.22-23.234 33.982-47.994 48.142-29.7 16.97-26.94 48.02-11.32 63.64z" fill="#fb8189"/><path d="m348.744 411.847c-27.337-15.621-43.726-40.522-50.039-51.619l-3.236-3.228c-15.621 15.621-22.079 81.453 13.277 116.809 11.75 11.75 25.71 14.663 38.617 9.223 4.253-1.792 8.501-3.618 12.372-7.489.103-.103.632-.368.632-.368 15.347-15.72 17.879-46.47-11.623-63.328z" fill="#fc9aa1"/><path d="m360.438 475.101c-.12.13-.247.259-.377.389-15.62 15.62-40.95 15.62-56.57 0-35.36-35.36-23.4-105.3-7.78-120.92 0 0 .994 2.128 2.994 5.658-10.41 26.62-13.044 78.432 15.786 107.262 12.43 12.43 31.007 14.971 45.947 7.611z" fill="#fb8189"/><path d="m322.501 286.5h-133l1.5 17.834c0 5.523.54 15.986.54 15.986 7.08 27.145 31.763 47.18 61.126 47.18h6.667c29.363 0 54.046-20.035 61.126-47.18 0 0-.438-10.463-.438-15.986z" fill="#ffd15b"/><path d="m322.501 286.5v17.83c0 5.53-.71 10.88-2.04 15.99l-43.399 25.15c-6.39 3.71-13.67 5.66-21.06 5.66s-14.67-1.95-21.06-5.66l-43.399-25.15c-1.33-5.11-2.04-10.46-2.04-15.99v-17.83z" fill="#f7c359"/><path d="m256.001 209.99c-6.737 0-13.319 1.252-19.459 3.607-2.782 1.067-5.705-1.203-5.389-4.166.735-6.891 3.178-14.28 7.179-19.716-12.66 6.454-21.332 19.606-21.332 34.785v1.95 48.05h14 64v-48.05c-10.219-10.5-24.249-16.46-38.999-16.46z" fill="#fb8189"/><path d="m308.369 263.217-21.731-25.195c-8.21-9.519-19.748-14.196-31.228-14.03 0 0-3.844.979-5.803 1.295-9.011 1.457-17.242 7.608-23.755 15.16l-51.245 61.913c-1.504 2.256 1.029 5.015 3.405 3.708l.842-.463c3.829-2.106 6.44-1.536 10.636-.953 2.522.35 4.991 1.185 7.264 2.502l45.204 26.205c8.685 5.035 19.401 5.035 28.086 0l45.204-26.205c6.053-3.509 13.501-3.593 19.632-.221l.842.463c2.376 1.307 4.909-1.452 3.405-3.708-9.409-14.112-19.681-27.628-30.758-40.471z" fill="#ffe177"/><path d="m255.411 223.992-36.91 42.798c-10.4 12.05-20.069 24.694-28.999 37.863-4.2-.58-8.551.176-12.381 2.276l-.84.47c-1.88 1.03-3.86-.48-3.86-2.28 0-.47.14-.96.45-1.43 9.41-14.11 19.68-27.63 30.76-40.47l21.73-25.2c7.93-9.199 18.97-13.877 30.05-14.027z" fill="#ffd15b"/></g><g><path d="m107.6 421.632c-4.044-.905-8.053 1.635-8.96 5.676l-16.957 75.55c-.907 4.042 1.634 8.054 5.675 8.961.553.124 1.105.184 1.649.184 3.432 0 6.528-2.371 7.311-5.859l16.957-75.55c.908-4.043-1.633-8.055-5.675-8.962z"/><path d="m430.319 502.857-26.912-119.91c-10.202-45.454-16.618-92.089-19.071-138.612l-2.153-61.827c-.411-11.824-2.891-22.931-7.369-33.012-12.7-28.589-39.734-48.557-70.38-52.691 4.697-21.181 7.068-35.01 7.068-41.305 0-30.603-24.897-55.5-55.5-55.5-13.93 0-27.251 5.183-37.509 14.594-3.053 2.8-3.257 7.544-.457 10.597 2.8 3.052 7.545 3.256 10.597.456 7.483-6.866 17.203-10.647 27.368-10.647 22.332 0 40.5 18.168 40.5 40.5 0 6.48-3.695 31.299-27.95 124.235-3.995-1.122-8.201-1.735-12.55-1.735s-8.554.613-12.55 1.735c-24.256-92.943-27.95-117.758-27.95-124.235 0-1.252.058-2.515.171-3.754.377-4.125-2.66-7.774-6.785-8.152-4.136-.383-7.775 2.66-8.152 6.785-.155 1.692-.233 3.415-.233 5.121 0 6.293 2.37 20.119 7.066 41.294-26.196 3.485-49.707 18.364-64.083 40.968-8.368 13.154-13.093 28.758-13.666 45.123l-2.151 61.448c-2.452 46.519-8.868 93.156-19.07 138.614l-2.323 10.348c-.907 4.041 1.634 8.054 5.675 8.961.553.124 1.105.184 1.649.184 3.432 0 6.528-2.371 7.311-5.859l2.323-10.348c10.391-46.299 16.924-93.798 19.417-141.177.005-.047 2.15-61.416 2.16-61.646.479-13.696 4.397-26.697 11.332-37.598 12.236-19.238 32.404-31.761 54.783-34.318 4.679 19.987 10.924 44.92 18.72 74.727-12.156 8.396-20.142 22.42-20.142 38.279v20.43l-11.547 13.389c-11.235 13.026-21.772 26.891-31.319 41.21-2.586 3.881-2.189 8.989.965 12.424 3.154 3.434 8.21 4.265 12.301 2.013.353-.149.452-.385 2.612-1.243 2.151 18.008 11.131 33.965 24.255 45.223-5.892 10.35-21.439 34.067-47.23 48.805-14.896 8.512-24.195 21.381-26.185 36.237-1.917 14.319 3.05 28.979 13.289 39.218 8.681 8.681 20.218 13.617 32.486 13.899.059.001.118.002.176.002 4.062 0 7.4-3.245 7.495-7.327.095-4.142-3.185-7.575-7.325-7.671-8.393-.193-16.285-3.57-22.225-9.511-6.85-6.85-10.309-17.05-9.028-26.62 1.374-10.261 7.861-18.977 18.76-25.204 25.173-14.385 41.437-35.92 49.674-49.094 3.742 8.813 6.852 22.09 7.333 37.305.47 14.841-1.39 42.613-19.116 61.881-2.804 3.049-2.606 7.793.442 10.598s7.793 2.606 10.597-.441c21.334-23.19 23.611-55.385 23.069-72.511-.403-12.733-2.506-25.046-5.795-35.278 6.198 1.789 12.73 2.767 19.483 2.767h6.667c6.773 0 13.327-.986 19.544-2.79-3.436 10.676-5.607 23.585-5.893 36.67-.386 17.588 2.376 50.502 25.199 73.325 17.08 17.879 49.237 18.71 67.175 0 9.273-9.272 14.363-22.653 13.615-35.793-.751-13.208-7.32-25.374-18.496-34.259-3.243-2.577-7.961-2.039-10.538 1.204-2.577 3.242-2.038 7.96 1.204 10.538 9.977 7.931 12.497 17.086 12.854 23.368.509 8.939-2.947 18.036-9.246 24.335-11.46 11.966-33.477 12.959-45.961-.001-27.425-27.424-23.036-78.23-13.444-100.939 5.417 8.65 14.306 20.926 26.913 32.426 3.062 2.791 7.804 2.575 10.596-.486 2.791-3.061 2.573-7.804-.486-10.596-13.958-12.732-22.965-26.754-27.14-34.076 13.12-11.259 22.108-27.211 24.261-45.205.627.285.133-.063 2.615 1.247 4.088 2.248 9.145 1.416 12.297-2.019 3.153-3.436 3.549-8.544.962-12.423-9.543-14.314-20.08-28.18-31.317-41.209l-11.548-13.389v-20.429c0-15.859-7.986-29.883-20.141-38.279 7.796-29.804 14.04-54.735 18.718-74.722 26.102 3.022 49.252 19.832 60.027 44.087 3.695 8.316 5.743 17.55 6.088 27.443.003.064 2.149 61.764 2.161 62.025 2.494 47.384 9.027 94.883 19.417 141.178l26.912 119.91c.783 3.488 3.879 5.859 7.312 5.859.544 0 1.097-.06 1.649-.184 4.039-.906 6.58-4.918 5.673-8.96zm-170.984-142.857h-6.667c-26.336 0-48.545-18.515-54.239-43.206l39.768 23.055c5.491 3.183 11.647 4.773 17.804 4.773s12.314-1.592 17.805-4.774l39.766-23.053c-5.701 24.681-27.933 43.205-54.237 43.205zm66.047-63.016c-.039 0-.078-.001-.118-.001-4.773 0-9.547 1.229-13.778 3.683l-45.202 26.204c-6.343 3.677-14.222 3.676-20.564.001l-45.204-26.205c-4.23-2.453-9.001-3.682-13.776-3.682-.04 0-.08 0-.12 0 7.125-9.962 14.727-19.635 22.692-28.869l21.73-25.195c6.267-7.266 15.363-11.433 24.958-11.433s18.692 4.167 24.958 11.433l21.73 25.195c7.968 9.237 15.57 18.909 22.694 28.869zm-37.881-68.682c-8.676-7.565-19.83-11.815-31.5-11.815s-22.824 4.25-31.5 11.815v-3.802c0-17.369 14.131-31.5 31.5-31.5s31.5 14.131 31.5 31.5z"/><path d="m188.501 231v-20c0-4.143-3.358-7.5-7.5-7.5s-7.5 3.357-7.5 7.5v20c0 4.143 3.358 7.5 7.5 7.5s7.5-3.357 7.5-7.5z"/><path d="m323.501 211v20c0 4.143 3.357 7.5 7.5 7.5s7.5-3.357 7.5-7.5v-20c0-4.143-3.357-7.5-7.5-7.5s-7.5 3.357-7.5 7.5z"/></g></g></svg>