<svg id="Filled_Expand" height="512" viewBox="0 0 64 64" width="512" xmlns="http://www.w3.org/2000/svg" data-name="Filled Expand"><path d="m47.808 3.464a5 5 0 0 1 8.485 4.243 5 5 0 0 1 4.243 8.485" fill="#ebf5ff"/><path d="m60.536 16.192a5 5 0 0 1 -7.072 0l-19.091 19.092-5.657-5.657 19.092-19.091a5 5 0 0 1 0-7.072" fill="#ebf5ff"/><path d="m34.435 56.435a19 19 0 0 1 -26.87-26.87" fill="#f5aa50"/><path d="m7.565 29.565a18.972 18.972 0 0 1 16.114-5.376 11.019 11.019 0 0 0 9.342-3.109 3 3 0 0 1 4.242 0l5.657 5.657a3 3 0 0 1 0 4.242 11.019 11.019 0 0 0 -3.109 9.342 18.972 18.972 0 0 1 -5.376 16.114" fill="#f5aa50"/><path d="m61.776 7.881a6.78 6.78 0 0 0 -3.759-1.9 6.749 6.749 0 1 0 -12.517 4.389l-8.484 8.484a4.755 4.755 0 0 0 -5.242 1 9.315 9.315 0 0 1 -7.859 2.614 20.75 20.75 0 1 0 11.747 35.214 20.591 20.591 0 0 0 5.871-17.6 9.317 9.317 0 0 1 2.615-7.859 4.754 4.754 0 0 0 1-5.24l8.482-8.483a6.75 6.75 0 0 0 8.146-10.62zm-20.1 21.871a12.833 12.833 0 0 0 -3.605 10.824 17.251 17.251 0 1 1 -14.648-14.644 12.834 12.834 0 0 0 10.825-3.6 1.251 1.251 0 0 1 1.768 0l5.657 5.657a1.252 1.252 0 0 1 0 1.763zm17.624-14.8a3.254 3.254 0 0 1 -4.6 0 1.749 1.749 0 0 0 -2.475 0l-9.319 9.32-3.177-3.182 9.319-9.32a1.749 1.749 0 0 0 0-2.475 3.25 3.25 0 1 1 5.516-1.838 1.812 1.812 0 0 0 1.979 1.979 3.251 3.251 0 0 1 2.757 5.516z"/><path d="m22.99 49.26a1.75 1.75 0 1 0 1.75 1.75 1.749 1.749 0 0 0 -1.75-1.75z"/><circle cx="22.99" cy="44.01" r="1.75"/><path d="m27.99 45.76a1.75 1.75 0 1 0 1.75 1.75 1.749 1.749 0 0 0 -1.75-1.75z"/></svg>