<svg height="512" viewBox="0 0 128 128" width="512" xmlns="http://www.w3.org/2000/svg"><g><path d="m96.831 42.472-8.308-9.014-7.183-4.226-1.613-7.322-7.767-7.295-5.033-8.308h-53.016v115.386h82.92z" fill="#993e29"/><g fill="#a8503c"><path d="m88.52 33.46v8.54h-16.56v-27.38l7.77 7.29 1.61 7.32z"/><path d="m47.09 14.615h16.562v27.384h-16.562z"/><path d="m22.219 14.615h16.562v27.384h-16.562z"/><path d="m71.96 86h16.562v27.384h-16.562z"/><path d="m47.09 86h16.562v27.384h-16.562z"/><path d="m22.219 86h16.562v27.384h-16.562z"/><path d="m71.96 50.308h16.562v27.384h-16.562z"/><path d="m47.09 50.308h16.562v27.384h-16.562z"/><path d="m22.219 50.308h16.562v27.384h-16.562z"/></g><path d="m109.905 45.689-7.21-9.915-6.645-5.029-.755-7.459-6.871-8.144-4.038-8.835 29.703 3.46z" fill="#993e29"/><path d="m88.424 15.142 16.452 1.916-2.181 18.716-6.645-5.029-.755-7.459z" fill="#a8503c"/><g><path d="m47.09 43.75h16.562a1.749 1.749 0 0 0 1.748-1.75v-27.385a1.749 1.749 0 0 0 -1.75-1.75h-16.56a1.749 1.749 0 0 0 -1.75 1.75v27.385a1.749 1.749 0 0 0 1.75 1.75zm1.75-27.385h13.06v23.885h-13.06z"/><path d="m22.219 43.75h16.562a1.749 1.749 0 0 0 1.75-1.75v-27.385a1.749 1.749 0 0 0 -1.75-1.75h-16.562a1.749 1.749 0 0 0 -1.75 1.75v27.385a1.749 1.749 0 0 0 1.75 1.75zm1.75-27.385h13.062v23.885h-13.062z"/><path d="m70.21 113.385a1.749 1.749 0 0 0 1.75 1.75h16.562a1.749 1.749 0 0 0 1.75-1.75v-27.385a1.749 1.749 0 0 0 -1.75-1.75h-16.562a1.749 1.749 0 0 0 -1.75 1.75zm3.5-25.635h13.062v23.885h-13.062z"/><path d="m45.34 113.385a1.749 1.749 0 0 0 1.75 1.75h16.562a1.749 1.749 0 0 0 1.75-1.75v-27.385a1.749 1.749 0 0 0 -1.75-1.75h-16.562a1.749 1.749 0 0 0 -1.75 1.75zm3.5-25.635h13.06v23.885h-13.06z"/><path d="m20.469 113.385a1.749 1.749 0 0 0 1.75 1.75h16.562a1.749 1.749 0 0 0 1.75-1.75v-27.385a1.749 1.749 0 0 0 -1.75-1.75h-16.562a1.749 1.749 0 0 0 -1.75 1.75zm3.5-25.635h13.062v23.885h-13.062z"/><path d="m71.96 79.442h16.562a1.749 1.749 0 0 0 1.75-1.75v-27.384a1.749 1.749 0 0 0 -1.75-1.75h-16.562a1.749 1.749 0 0 0 -1.75 1.75v27.384a1.749 1.749 0 0 0 1.75 1.75zm1.75-27.384h13.062v23.884h-13.062z"/><path d="m45.34 77.692a1.749 1.749 0 0 0 1.75 1.75h16.562a1.749 1.749 0 0 0 1.75-1.75v-27.384a1.749 1.749 0 0 0 -1.75-1.75h-16.562a1.749 1.749 0 0 0 -1.75 1.75zm3.5-25.634h13.06v23.884h-13.06z"/><path d="m20.469 77.692a1.749 1.749 0 0 0 1.75 1.75h16.562a1.749 1.749 0 0 0 1.75-1.75v-27.384a1.749 1.749 0 0 0 -1.75-1.75h-16.562a1.749 1.749 0 0 0 -1.75 1.75zm3.5-25.634h13.062v23.884h-13.062z"/><path d="m96.831 99.157a1.749 1.749 0 0 0 -1.75 1.75v19.036h-79.42v-84.058a1.75 1.75 0 0 0 -3.5 0v85.808a1.749 1.749 0 0 0 1.75 1.75h82.92a1.749 1.749 0 0 0 1.75-1.75v-20.786a1.749 1.749 0 0 0 -1.75-1.75z"/><path d="m89.81 32.272a1.774 1.774 0 0 0 -.4-.322l-6.525-3.84-1.449-6.576a1.749 1.749 0 0 0 -.51-.9l-7.593-7.134-4.909-8.1a1.75 1.75 0 0 0 -1.5-.843h-53.013a1.749 1.749 0 0 0 -1.75 1.75v20.215a1.75 1.75 0 0 0 3.5 0v-18.465h50.279l4.27 7.043v26.9a1.749 1.749 0 0 0 1.75 1.75h16.562a1.749 1.749 0 0 0 1.75-1.75v-4.061l4.809 5.217v34.359a1.75 1.75 0 0 0 3.5 0v-35.042a1.746 1.746 0 0 0 -.463-1.186zm-16.1 7.978v-21.59l4.425 4.155 1.5 6.792a1.744 1.744 0 0 0 .821 1.132l6.32 3.72v5.791z"/><path d="m96.831 85.422a1.749 1.749 0 0 0 -1.75 1.75v4.5a1.75 1.75 0 0 0 3.5 0v-4.5a1.749 1.749 0 0 0 -1.75-1.75z"/><path d="m114.291 8.028-29.7-3.46a1.751 1.751 0 0 0 -1.794 2.466l4.039 8.835a1.732 1.732 0 0 0 .254.4l6.518 7.731.7 6.92a1.745 1.745 0 0 0 .685 1.22l6.439 4.873 7.057 9.7a1.749 1.749 0 0 0 1.415.721 1.73 1.73 0 0 0 .444-.058 1.753 1.753 0 0 0 1.3-1.49l4.183-35.923a1.752 1.752 0 0 0 -1.54-1.935zm-17.255 15.082a1.749 1.749 0 0 0 -.4-.952l-4.021-4.767 10.323 1.2-1.624 13.938-3.6-2.722zm11.649 17.926-4.172-5.736 2.1-18.038a1.751 1.751 0 0 0 -1.536-1.941l-15.471-1.8-2.337-5.121 24.879 2.9z"/></g></g></svg>