<svg id="Layer_1" enable-background="new 0 0 512.056 512.056" viewBox="0 0 512.056 512.056" xmlns="http://www.w3.org/2000/svg"><g><g><path d="m504.498 256.028c0 110.98-72.76 204.97-173.18 236.85-335.153 13.351-335.117-487.933 0-473.7 100.42 31.88 173.18 125.87 173.18 236.85z" fill="#efedff"/><path d="m331.318 492.878c-23.75 7.55-49.04 11.62-75.29 11.62-137.23 0-248.47-111.24-248.47-248.47s111.24-248.47 248.47-248.47c26.25 0 51.54 4.07 75.29 11.62-86.947 27.585-152.464 101.531-168.99 191.24-23.256 123.233 49.873 244.669 168.99 282.46z" fill="#d9d9f9"/><path d="m429.208 256.028c0 107.268-96.798 189.215-203.27 170.58-61.279-33.837-99.946-97.869-101.039-167.515-1.127-71.797 37.845-138.729 101.039-173.645 106.515-18.643 203.27 63.351 203.27 170.58z" fill="#d9d9f9"/><path d="m225.938 426.608c-81.3-14.25-143.09-85.2-143.09-170.58s61.79-156.33 143.09-170.58c-90.603 95.883-90.241 245.657 0 341.16z" fill="#c2c2f0"/><path d="m337.226 229.307c-15.862 3.712-36.085-10.297-35.024-31.448.272-5.416.608-10.81 1.002-16.182.259-3.53-3.157-6.254-6.502-5.147-15.421 5.1-26.879-6.715-26.487-19.246.653-20.866 2.314-40.001 4.456-57.129 1.348-10.776 11-18.384 21.792-17.176 22.744 2.544 34.882 4.741 56.973 9.377l15.782 25.655c-.553 1.604-1.324 3.224-2.334 4.842-1.866 2.989-.027 6.952 3.465 7.534 5.313.887 10.633 1.835 15.96 2.851 18.136 3.46 27.174 21.355 24.319 35.517-18.615 26.119-43.608 47.031-73.402 60.552z" fill="#e7896e"/><path d="m377.684 163.562c7.729-7.629 20.019-7.629 27.748 0 13.415 13.242 26.402 27.278 38.864 42.11 5.469 6.509 6.4 15.998 1.834 23.2l-4.112 25.876c.759.861 1.517 1.725 2.274 2.591 16.196 18.556 4.605 47.961-19.808 49.817-16.578 1.26-33.209 1.568-49.813.921l-28.039-4.462c-15.717-8.696-21.042-31.11-7.805-46.276 3.566-4.086 7.169-8.114 10.804-12.089 2.389-2.612 1.392-6.866-1.92-8.068-15.269-5.54-16.953-21.913-8.888-31.512 13.427-15.981 26.575-29.981 38.861-42.108z" fill="#eaaa83"/><circle cx="353.91" cy="187.936" fill="#ffd9a0" r="15.059"/><circle cx="361.44" cy="300.877" fill="#b1ecd0" r="15.059"/><path d="m290.098 273.258c-8.34 15.31-28.52 20.11-43.35 10.89l-3.68-2.29c-4.23-2.62-9.44 1.7-7.5 6.22l29.3 68.01c6.67 15.49-2.74 33.23-19.6 36.95-12.01 2.65-24.29-2.8-30.08-13.35l-9.42-20.49c-2.43-4.42-9.28-2.91-9.62 2.12.064 23.963.233 22.975-.44 26.15-39.878-44.012-49.981-102.484-35.97-159.82l52.06-11.47c23.46 1.15 45.75 7.18 65.82 17.29 14.76 7.44 20.37 25.31 12.48 39.79z" fill="#e7896e"/><path d="m195.708 387.468c-2.15 10.39-10.38 18.78-21.18 21.16-16.86 3.72-32.86-8.43-33.32-25.28l-2.01-74.03c-.13-4.92-6.68-6.65-9.41-2.49l-2.38 3.62c-9.58 14.61-29.91 18.73-43.91 8.35-13.25-9.82-15.67-28.39-5.4-41.35 13.95-17.61 31.64-32.45 52.45-43.36l29.19-6.44c-6.366 55.918 6.156 112.087 35.97 159.82z" fill="#e37858"/><path d="m211.798 216.178c-13.582 16.374-33.426 24.787-53.19 24.48-2.568-4.929-18.398-36.598-4.548-73.178 12.403-32.759 39.898-46.452 45.718-49.192 31.267 22.937 37.062 67.677 12.02 97.89z" fill="#eaaa83"/><path d="m199.778 118.288c-25.211 37.775-38.669 80.34-41.17 122.37-30.72-.44-58.22-21.87-65.13-53.18-13.393-60.809 56.128-106.067 106.3-69.19z" fill="#e7896e"/><circle cx="183.967" cy="283.186" fill="#ffd9a0" r="15.059"/><circle cx="361.44" cy="105.113" fill="#b1ecd0" r="15.059"/><path d="m315.871 367.091c12.579-.71 22.759 16.667 10.465 26.97l-45.933 38.492c-6.191 5.188-7.53 14.409-2.64 20.837 5.222 6.863 15.05 7.905 21.584 2.429l45.615-38.226c19.071-15.982 22.2-45.158 6.17-64.188-9.692-11.506-23.96-16.95-37.935-15.903-19.498 1.461-16.357 30.662 2.674 29.589z" fill="#ff899f"/><g fill="#b1ecd0"><circle cx="436.734" cy="240.642" r="15.059"/><circle cx="271.088" cy="134.013" r="15.059"/></g></g><g><path d="m437.027 75.03c-100.039-100.04-261.959-100.04-361.997 0-100.039 100.038-100.039 261.959 0 361.997 100.038 100.039 261.959 100.039 361.997 0 100.039-100.039 100.039-261.959 0-361.997zm-180.999 421.969c-132.872 0-240.971-108.099-240.971-240.971s108.1-240.971 240.971-240.971 240.971 108.099 240.971 240.971-108.099 240.971-240.971 240.971z"/><path d="m455.043 227.488c3.058-8.864 1.292-19.144-5.006-26.64-10.016-11.92-20.583-23.56-31.495-34.726 1.39-17.861-10.786-36.428-30.827-40.252-4.146-.791-8.399-1.561-12.685-2.297.114-.238.212-.479.318-.719 5.261-4.134 8.65-10.547 8.65-17.741 0-16.247-16.774-27.205-31.637-20.645-8.23-1.715-14.232-2.901-19.699-3.895-4.075-.739-7.979 1.963-8.72 6.039-.74 4.075 1.963 7.979 6.039 8.72 3.13.569 6.452 1.205 10.294 1.973-5.067 13.689 4.105 28.537 18.552 30.211.914 5.369 5.109 9.403 10.286 10.268 5.335.891 10.647 1.839 15.79 2.82 6.947 1.326 12.28 5.42 15.573 11.198-9.484-3.335-20.345-1.193-28.063 6.424-3.061 3.022-6.1 6.108-9.112 9.208-19.899-9.152-39.926 12.925-28.883 31.839-5.648 6.677-8.674 13.489-7.698 22.384-9.453-2.661-17.615-11.731-17.029-23.421.264-5.255.597-10.642.992-16.01.65-8.875-7.941-15.595-16.337-12.816-9.887 3.272-16.884-3.935-16.636-11.891.021-.662.052-1.32.075-1.981 19.62-6.08 21.499-33.19 2.908-41.924.436-4.186.899-8.377 1.418-12.528.845-6.756 6.831-11.403 13.517-10.654 1.618.181 3.182.36 4.699.539 4.115.481 7.841-2.459 8.325-6.572.484-4.114-2.458-7.841-6.572-8.325-6.417-.754-11.476-1.545-18.471 1.382-40.145-6.148-80.709 1.348-115.385 20.659-6.139-.701-12.386-.662-18.618.184-4.104.557-6.98 4.336-6.423 8.44s4.333 6.984 8.44 6.423c30.799-4.178 60.183 16.358 66.884 46.759 7.152 32.451-13.429 64.671-45.88 71.824-32.453 7.152-64.672-13.429-71.824-45.88-5.229-23.726 4.203-48.133 24.029-62.179 3.38-2.395 4.179-7.076 1.785-10.456-2.395-3.38-7.077-4.178-10.456-1.785-25.501 18.066-37.402 50.013-29.225 80.823-9.202 24.385-12.923 50.186-11.159 76.19-1.206 1.425-2.399 2.864-3.562 4.333-16.351 20.64-6.453 51.229 19.317 58.048 10.1 22.147 24.85 42.362 42.91 58.813 3.63 17.146 20.107 29.209 38.52 26.842 28.809 14.932 61.996 22.134 95.862 19.759-8.497 21.98 17.905 39.922 35.338 25.314l45.615-38.226c7.53-6.311 13.16-14.706 16.306-24.025 28.085-21.616 49.549-51.535 60.964-84.903 27.434-3.58 41.193-35.172 25.876-58.087 7.654-7.897 8.474-20.02 2.12-28.838zm-101.162-122.375c0-4.168 3.391-7.559 7.559-7.559s7.559 3.391 7.559 7.559-3.391 7.559-7.559 7.559-7.559-3.391-7.559-7.559zm90.412 135.529c0 4.168-3.391 7.559-7.559 7.559s-7.559-3.391-7.559-7.559 3.391-7.559 7.559-7.559 7.559 3.391 7.559 7.559zm-90.383-60.265c4.168 0 7.559 3.391 7.559 7.559s-3.391 7.559-7.559 7.559-7.559-3.391-7.559-7.559 3.391-7.559 7.559-7.559zm-75.316-45.475c-.79 6.671-9.302 9.044-13.443 3.79-3.93-4.986-.289-12.239 5.921-12.239 4.54-.001 8.056 3.941 7.522 8.449zm-162.908 99.066c-9.066 5.651-17.516 12.076-25.302 19.245.226-13.672 2.098-27.103 5.59-40.137 5.106 8.102 11.763 15.185 19.712 20.892zm-7.232 97.397c9.322-1.789 17.702-6.926 23.454-14.32l1.363 50.228c-9.8-10.83-18.177-22.959-24.817-35.908zm40.253 51.78-2.009-74.029c-.332-12.211-16.426-16.698-23.183-6.399l-2.375 3.62c-7.113 10.84-22.485 14.36-33.175 6.438-9.845-7.298-11.638-21.017-3.99-30.669 12.912-16.299 28.686-29.599 46.885-39.658 29.09 12.116 62.757 4.638 84.089-18.556 20.833 1.473 40.764 6.937 59.291 16.277 17.731 8.938 15.249 35.07-4.816 40.36-10.508 2.768-17.291-1.863-22.395-5.035-10.46-6.507-23.177 4.332-18.345 15.552l29.299 68.014c2.233 5.183 2.02 11.069-.585 16.152-7.267 14.184-27.837 14.658-35.516 1.082l-9.542-20.704c-6.017-10.967-22.808-7.261-23.656 5.219v22.796c-1.258 15.542-20.093 23.769-32.656 13.951-4.499-3.518-7.167-8.77-7.321-14.411zm191.438 28.7-45.615 38.226c-1.587 1.33-3.592 1.938-5.653 1.705-6.726-.752-8.862-9.111-3.656-13.474l45.933-38.493c17.654-14.796 4.295-41.335-15.705-40.207-7.198.407-7.873-6.604-7.925-7.404-.132-2.02.209-6.766 6.233-7.217 22.322-1.671 42.117 16.459 40.036 40.423-.893 10.284-5.868 19.921-13.648 26.441zm28.592-34.419c-2.47-29.161-28.156-49.5-56.101-47.403-14.112 1.057-20.783 12.45-20.081 23.157.721 10.981 9.279 22.216 23.738 21.398 5.59-.305 11.806 8.219 5.225 13.733l-36.903 30.926c-32.567 5.658-64.948 1.363-93.39-10.7 7.136-5.962 11.818-14.617 12.466-24.159.028-.427.013-1.782-.015-11.775 4.368 9.499 4.732 10.317 4.937 10.69 13.276 24.201 49.302 23.803 62.135-1.243 4.652-9.078 5.021-19.622 1.012-28.927l-26.322-61.103c17.878 9.213 41.156 3.342 51.246-15.17 9.938-18.233 2.851-40.73-15.692-50.078-17.575-8.86-36.295-14.538-55.803-16.955 21.862-38.75 5.553-87.763-35.128-105.779 24.843-10.772 52.08-15.363 79.557-13.134-2.284 4.895-2.507 8.309-3.847 21.197-21.421 5.189-23.243 34.906-2.974 42.88-.024.69-.057 1.377-.079 2.068-.532 16.998 14.346 31.439 32.758 27.569-.296 4.321-.553 8.634-.766 12.865-1.191 23.75 19.493 41.235 39.41 39.84 2.145 2.166 4.696 4.005 7.618 5.454-2.922 3.226-5.793 6.455-8.565 9.63-15.304 17.534-10.987 43.713 7.01 56.018 5.766 16.188 26.86 20.31 38.247 7.265 10.245.304 19.707.326 32.274-.217-9.043 23.424-23.523 44.768-41.967 61.953zm-7.297-68.99c-4.168 0-7.559-3.391-7.559-7.559s3.391-7.559 7.559-7.559 7.559 3.391 7.559 7.559-3.391 7.559-7.559 7.559zm62.473-8.757c-13.224 1.005-26.612 1.382-39.916 1.149-.027-12.416-10.135-22.509-22.558-22.509-8.149 0-15.302 4.344-19.267 10.836-4.852-8.055-4.753-18.8 2.302-26.883 3.438-3.938 7.034-7.962 10.689-11.959 5.994-6.556 3.432-17.157-4.897-20.179-4.407-1.599-7.279-4.47-8.307-8.303-1.033-3.851-.035-8.194 2.604-11.334.423-.504.853-.998 1.277-1.5 19.145 7.363 37.418-12.846 28.245-31.137 2.932-3.016 5.889-6.019 8.867-8.959 4.826-4.763 12.385-4.763 17.211 0 13.373 13.2 26.289 27.195 38.39 41.597 1.964 2.338 2.979 5.243 2.995 8.109-14.137-3.086-27.373 7.749-27.373 22.036 0 13.349 11.63 23.931 25.103 22.412 11.255 14.025 2.506 35.265-15.365 36.624z"/><path d="m384.048 248.201c-4.179 0-7.505 3.381-7.505 7.5 0 4.142 3.363 7.5 7.505 7.5s7.5-3.358 7.5-7.5-3.358-7.5-7.5-7.5z"/><path d="m399.107 203.024c-4.179 0-7.505 3.381-7.505 7.5 0 4.142 3.363 7.5 7.505 7.5s7.5-3.358 7.5-7.5-3.358-7.5-7.5-7.5z"/><path d="m320.571 131.288c4.142 0 7.5-3.358 7.5-7.5s-3.358-7.5-7.5-7.5c-4.179 0-7.505 3.381-7.505 7.5 0 4.142 3.363 7.5 7.505 7.5z"/><path d="m126.102 189.912c7.756 15.313 24.89 23.41 41.652 19.715 16.771-3.697 28.904-18.254 29.503-35.399.145-4.14-3.094-7.613-7.233-7.758-4.125-.133-7.613 3.094-7.758 7.233-.36 10.303-7.656 19.052-17.741 21.275-10.087 2.224-20.383-2.648-25.042-11.845-1.871-3.695-6.384-5.173-10.08-3.301-3.694 1.872-5.173 6.385-3.301 10.08z"/><path d="m183.964 305.747c7.497 0 14.733-3.715 19.015-10.417 10.807-16.919-4.368-38.477-23.867-34.174-12.147 2.677-19.852 14.738-17.174 26.886 2.318 10.518 11.671 17.706 22.026 17.705zm-1.623-29.943c4.079-.901 8.109 1.675 9.008 5.754.899 4.08-1.674 8.109-5.754 9.009-4.069.894-8.112-1.684-9.009-5.754s1.684-8.112 5.755-9.009z"/><path d="m193.712 319.803c-4.179 0-7.505 3.381-7.505 7.5 0 4.142 3.363 7.5 7.505 7.5s7.5-3.358 7.5-7.5-3.358-7.5-7.5-7.5z"/></g></g><g/><g/><g/><g/><g/><g/><g/><g/><g/><g/><g/><g/><g/><g/><g/></svg>