<svg height="512" viewBox="0 0 128 128" width="512" xmlns="http://www.w3.org/2000/svg"><g><g><path d="m64 24.787a1.75 1.75 0 0 0 -1.75 1.75v12.963a1.75 1.75 0 0 0 3.5 0v-12.963a1.75 1.75 0 0 0 -1.75-1.75z" fill="#b373f0"/><path d="m99.075 57.412c-21.198-1.562-35.075-23.412-35.075-23.412s-13.877 21.85-35.075 23.412a2.546 2.546 0 0 0 .162 5.088h69.826a2.546 2.546 0 0 0 .162-5.088z" fill="#ff7ceb"/><path d="m89.9 68.975v-6.475h-51.8v6.475s-.025 22.783-11.563 32.488h74.926c-11.538-9.705-11.563-32.488-11.563-32.488z" fill="#b373f0"/><path d="m31.625 62.5a6.475 6.475 0 0 0 12.95 0z" fill="#ffd322"/><path d="m44.575 62.5a6.475 6.475 0 1 0 12.95 0z" fill="#fff07e"/><path d="m57.525 62.5a6.475 6.475 0 1 0 12.95 0z" fill="#ffd322"/><path d="m70.475 62.5a6.475 6.475 0 1 0 12.95 0z" fill="#fff07e"/><path d="m83.425 62.5a6.475 6.475 0 1 0 12.95 0z" fill="#ffd322"/><path d="m64 75.5s-1.167 18.425-12 25.963h24c-10.833-7.538-12-25.963-12-25.963z" fill="#ff7ceb"/></g><g fill="#002e49"><path d="m45.792 53.452a1.748 1.748 0 0 0 .91-.256q.414-.253.822-.513a1.75 1.75 0 0 0 -1.888-2.948q-.375.242-.758.473a1.75 1.75 0 0 0 .914 3.244z"/><path d="m52 48.986a1.741 1.741 0 0 0 1.118-.4 65.193 65.193 0 0 0 12.359-13.648 1.737 1.737 0 0 0 .269-.938v-7.463a1.75 1.75 0 0 0 -3.5 0v6.933a63.843 63.843 0 0 1 -11.364 12.421 1.75 1.75 0 0 0 1.118 3.095z"/><path d="m92.017 74.545a1.75 1.75 0 1 0 -3.48.377c.695 6.409 2.745 17.386 8.777 24.791h-20.733c-9.612-7.152-10.823-24.151-10.834-24.324a1.751 1.751 0 0 0 -1.747-1.638 1.75 1.75 0 0 0 -1.746 1.639c-.006.111-.769 11.249-6.176 19.323a1.75 1.75 0 1 0 2.908 1.947 39.756 39.756 0 0 0 5.014-11.373c1.3 4.693 3.557 10.2 7.407 14.426h-40.714c7.646-9.347 8.908-24.293 9.116-29.17a8.227 8.227 0 0 0 4.766-2.989 8.2 8.2 0 0 0 12.95 0 8.211 8.211 0 0 0 14.508-3.3h9.3a4.725 4.725 0 0 1 -4.38 2.975 4.678 4.678 0 0 1 -1.983-.434 1.75 1.75 0 0 0 -1.47 3.172 8.212 8.212 0 0 0 9.929-2.413 8.211 8.211 0 0 0 14.508-3.3h.98a4.3 4.3 0 0 0 .29-8.583c-13.796-1.021-24.484-11.239-29.627-17.24a1.75 1.75 0 1 0 -2.657 2.277c5.5 6.414 16.967 17.34 32.023 18.449a.8.8 0 0 1 -.033 1.593h-69.826a.8.8 0 0 1 -.033-1.593 37.012 37.012 0 0 0 11.7-2.888 1.75 1.75 0 1 0 -1.364-3.223 33.572 33.572 0 0 1 -10.59 2.621 4.3 4.3 0 0 0 .29 8.583h.98a8.244 8.244 0 0 0 6.23 6.27c-.258 5.172-1.792 21.954-10.887 29.6a1.75 1.75 0 0 0 1.127 3.089h74.924a1.75 1.75 0 0 0 1.127-3.089c-7.469-6.276-9.831-18.72-10.574-25.575zm2.272-10.3a4.725 4.725 0 0 1 -8.778 0zm-25.9 0a4.725 4.725 0 0 1 -8.778 0zm-12.95 0a4.725 4.725 0 0 1 -8.778 0zm-21.728 0h8.778a4.725 4.725 0 0 1 -8.778 0z"/></g></g></svg>