<svg id="Capa_1" enable-background="new 0 0 512.054 512.054" height="512" viewBox="0 0 512.054 512.054" width="512" xmlns="http://www.w3.org/2000/svg"><g><path d="m463.304 512.054h-403.062c-3.866 0-7-3.134-7-7v-49.418l10-7.609-10-7.883v-16.589l10-7.529-10-7.964v-16.59l10-7.447-10-8.046v-16.59l10-7.365-10-8.128v-80.752l10-7.12-10-8.373v-40.376l20-28.123h377.062l20 28.123v40.376l-10 8.374 10 7.119v80.752l-10 8.128 10 7.365v16.59l-10 8.046 10 7.447v16.59l-10 7.964 10 7.529v16.589l-10 7.883 10 7.609v49.418c0 3.866-3.134 7-7 7z" fill="#618baa"/><path d="m53.242 159.156h144.368l19.29 10 28.832-10h48.123l19.545 10 28.578-10h48.122l21.3 10 26.823-10h25.082c3.866 0 7 3.134 7 7v41.123h-417.063z" fill="#356487"/><path d="m46.822 111.372 85.788-24.599 36.29-1.245 9.968-12.019 46.258-13.264 34.773-1.217 11.485-12.048 46.258-13.264 33.257-1.688 13.002-11.576 70.369-20.179c3.716-1.066 7.593 1.083 8.658 4.799l9.405 32.801c1.066 3.716-1.083 7.593-4.799 8.658l-24.11 6.913-33.324 1.083-12.934 12.182-46.258 13.264-37.053.054-9.205 13.211-46.258 13.264-37.491-.975-8.767 14.239-138.776 39.794-11.335-39.53c-1.066-3.716 1.083-7.592 4.799-8.658z" fill="#356487"/><g fill="#f5fcff"><path d="m132.61 86.773 59.523 32.994 46.258-13.265-59.522-32.994z"/><path d="m225.127 60.244 59.523 32.994 46.258-13.265-59.523-32.993z"/><path d="m317.644 33.715 59.522 32.994 46.259-13.264-59.523-32.994z"/></g><path d="m73.242 179.156-20 28.123v40.376l10 8.373-10 7.12v80.752l10 8.128-10 7.365v16.59l10 8.046-10 7.447v16.59l10 7.964-10 7.529v16.589l10 7.883-10 7.609v49.418c0 3.866 3.134 7 7 7h13.656v-332.902z" fill="#4e7693"/><path d="m149.488 207.278 48.122-48.122h48.123l-48.123 48.122z" fill="#f5fcff"/><path d="m245.733 207.278 48.122-48.122h48.123l-48.123 48.122z" fill="#f5fcff"/><path d="m341.978 207.278 48.122-48.122h48.123l-48.123 48.122z" fill="#f5fcff"/><path d="m149.488 173.251c0-9.025-3.585-17.68-9.966-24.061l-28.191-28.19c-6.381-6.381-15.037-9.966-24.061-9.966h-27.028c-3.866 0-7 3.134-7 7v89.245h62.217c18.794-.001 34.029-15.235 34.029-34.028z" fill="#fff"/><path d="m73.899 111.033h-13.657c-3.866 0-7 3.134-7 7v89.245h20.656v-96.245z" fill="#dff1f7"/><path d="m317.642 375.982v-16.59h152.662v-15.492h-120.58v-80.752h120.581v-15.492h-417.063v15.492h120.581v80.752h-120.581v15.492h248.908v16.59h-248.908v15.492h248.908v16.59h-248.908v15.492h417.062v-15.492h-152.662v-16.59h152.662v-15.492zm-128.327-32.082v-80.752h144.916v80.752z" fill="#f5fcff"/><path d="m53.242 440.144h417.062v15.492h-417.062z" fill="#f5fcff"/><g><g fill="#356487"><circle cx="117.406" cy="183.217" r="7.73"/><circle cx="85.324" cy="183.217" r="7.73"/><circle cx="85.324" cy="135.095" r="7.73"/></g></g></g></svg>