<svg height="512" viewBox="0 0 128 128" width="512" xmlns="http://www.w3.org/2000/svg"><g><path d="m105.941 121.693v-36.057a12 12 0 0 0 -8.615-11.512l-23.843-7.012h-18.967l-23.842 7.012a12 12 0 0 0 -8.615 11.512v36.057z" fill="#9cf"/><path d="m81.454 69.45v.01l-9.67 14.79-7.78-13.93-7.79 13.93-9.67-14.79v-.01l7.97-2.34h18.97z" fill="#405580"/><path d="m42.389 39.905h-1.955a4.168 4.168 0 0 0 -4.124 4.767l.191 1.32a7 7 0 0 0 4.634 5.608l2.986 1.036h39.758l2.986-1.036a7 7 0 0 0 4.635-5.608l.191-1.32a4.168 4.168 0 0 0 -4.124-4.767z" fill="#f1d0a4"/><path d="m42.39 27.528v-3.146a18.074 18.074 0 0 1 18.075-18.075h7.07a18.074 18.074 0 0 1 18.075 18.075v3.146z" fill="#9cf"/><path d="m85.61 27.528v13.779c0 13.464-6.321 21.377-12.127 25.8a15.64 15.64 0 0 1 -18.967 0c-5.8-4.428-12.126-12.341-12.126-25.8v-13.779z" fill="#ffe3c1"/><path d="m70.583 95.562h11.835v5.459h-11.835z" fill="#e6f2ff"/><path d="m42.39 27.528s1.939 7.577 8.493 8.136c4.846.413 7.226-3.164 13.117-3.164s8.271 3.575 13.117 3.162c6.554-.559 8.493-8.136 8.493-8.136a41.567 41.567 0 0 0 -43.22 0z" fill="#405580"/><g><path d="m22.059 108.719a1.75 1.75 0 0 0 -1.75 1.75v11.224a1.75 1.75 0 1 0 3.5 0v-11.224a1.75 1.75 0 0 0 -1.75-1.75z"/><path d="m22.059 94.982a1.751 1.751 0 0 0 -1.75 1.75v4.5a1.75 1.75 0 0 0 3.5 0v-4.5a1.751 1.751 0 0 0 -1.75-1.75z"/><path d="m97.82 72.445-20.734-6.1a31.444 31.444 0 0 0 8.143-12.329l2.21-.766a8.721 8.721 0 0 0 5.791-7.01l.192-1.32a5.919 5.919 0 0 0 -5.856-6.768h-.206v-13.77a19.665 19.665 0 0 0 -1.778-8.217 1.75 1.75 0 0 0 -3.182 1.452 16.183 16.183 0 0 1 1.463 6.765v.151a45.089 45.089 0 0 0 -18.11-4.764v-11.712h1.786a16.172 16.172 0 0 1 9.927 3.364 1.75 1.75 0 0 0 2.13-2.777 19.641 19.641 0 0 0 -12.06-4.087h-7.072a19.847 19.847 0 0 0 -19.824 19.825v13.773h-.206a5.918 5.918 0 0 0 -5.856 6.768l.191 1.32a8.722 8.722 0 0 0 5.792 7.01l2.21.766a31.452 31.452 0 0 0 8.143 12.329l-20.734 6.1a13.826 13.826 0 0 0 -9.871 13.191v1.44a1.75 1.75 0 0 0 3.5 0v-1.44a10.307 10.307 0 0 1 7.358-9.839l14.627-4.3 8.957 13.7a1.749 1.749 0 0 0 1.465.8h.06a1.752 1.752 0 0 0 1.468-.9l4.506-8.064v44.658a1.75 1.75 0 0 0 3.5 0v-44.659l4.506 8.065a1.75 1.75 0 0 0 2.993.1l8.956-13.7 14.627 4.3a10.307 10.307 0 0 1 7.359 9.833v36.057a1.75 1.75 0 1 0 3.5 0v-36.054a13.826 13.826 0 0 0 -9.871-13.191zm-8.426-29.954a2.383 2.383 0 0 1 .564 1.929l-.191 1.32a5.227 5.227 0 0 1 -3.336 4.147 38.885 38.885 0 0 0 .919-8.232h.216a2.383 2.383 0 0 1 1.828.836zm-25.394-19.272a41.7 41.7 0 0 1 19.488 5.087c-.777 1.872-2.7 5.289-6.52 5.614-1.977.172-3.439-.469-5.3-1.276a17.869 17.869 0 0 0 -7.668-1.892 17.869 17.869 0 0 0 -7.672 1.892c-1.857.807-3.324 1.448-5.3 1.276-3.839-.327-5.755-3.736-6.526-5.614a41.522 41.522 0 0 1 19.498-5.087zm-3.536-15.162h1.786v11.712a45.089 45.089 0 0 0 -18.11 4.764v-.151a16.343 16.343 0 0 1 16.324-16.325zm-22.231 37.683-.192-1.32a2.419 2.419 0 0 1 2.393-2.765h.216a38.893 38.893 0 0 0 .919 8.232 5.227 5.227 0 0 1 -3.336-4.147zm5.907-4.433v-7.147a10.043 10.043 0 0 0 6.594 3.248c.319.027.627.04.928.04a14.544 14.544 0 0 0 6.062-1.595 14.552 14.552 0 0 1 6.276-1.601 14.552 14.552 0 0 1 6.276 1.6 13.576 13.576 0 0 0 6.99 1.555 10.043 10.043 0 0 0 6.594-3.247v7.147c0 12.968-6.22 20.434-11.438 24.414a13.921 13.921 0 0 1 -16.844 0c-5.218-3.98-11.438-11.446-11.438-24.414zm11.96 39.561-6.8-10.4 4.9-1.442a17.327 17.327 0 0 0 6.949 2.792zm15.8 0-5.055-9.048a17.325 17.325 0 0 0 6.95-2.792l4.9 1.442z"/><path d="m39 93.811a1.751 1.751 0 0 0 -1.75 1.75v26.132a1.75 1.75 0 0 0 3.5 0v-26.132a1.751 1.751 0 0 0 -1.75-1.75z"/><path d="m89 93.811a1.751 1.751 0 0 0 -1.75 1.75v26.132a1.75 1.75 0 0 0 3.5 0v-26.132a1.751 1.751 0 0 0 -1.75-1.75z"/><circle cx="72" cy="42.219" r="2.314"/><circle cx="56" cy="42.219" r="2.314"/><path d="m55.989 54.781a1.75 1.75 0 0 0 -.087 2.473 12.072 12.072 0 0 0 16.2 0 1.75 1.75 0 0 0 -2.549-2.4 8.639 8.639 0 0 1 -11.1 0 1.75 1.75 0 0 0 -2.464-.073z"/><path d="m82.417 93.811h-11.835a1.751 1.751 0 0 0 -1.75 1.75v5.46a1.751 1.751 0 0 0 1.75 1.75h11.835a1.75 1.75 0 0 0 1.75-1.75v-5.46a1.75 1.75 0 0 0 -1.75-1.75zm-1.75 5.46h-8.335v-1.96h8.335z"/></g></g></svg>