<svg id="Capa_1" enable-background="new 0 0 510.553 510.553" height="512" viewBox="0 0 510.553 510.553" width="512" xmlns="http://www.w3.org/2000/svg"><g><g><path d="m466 58.466-159.29 159.3-47.59-47.59 159.29-159.3c4.52-4.51 11.83-4.51 16.34 0l31.25 31.25c4.52 4.51 4.52 11.83 0 16.34z" fill="#aa9ea9"/><path d="m466 58.466-159.29 159.3-17.68-17.68 159.29-159.3c4.52-4.51 4.52-11.83 0-16.34l17.68 17.68c4.52 4.51 4.52 11.83 0 16.34z" fill="#9b8e99"/><path d="m271.486 132.73h78.029v67.302h-78.029z" fill="#ff8087" transform="matrix(.707 -.707 .707 .707 -26.697 268.32)"/><path d="m286.441 168.835h78.029v25.003h-78.029z" fill="#e6646e" transform="matrix(.707 -.707 .707 .707 -32.891 283.277)"/><path d="m412.45 303.856-175.47 175.48c-31.63 31.63-82.92 31.63-114.55 0l-40-40.01-37.75-37.75c-4.69-4.68-4.69-12.28 0-16.97l232.75-232.74 135.02 135.02c4.69 4.691 4.69 12.29 0 16.97z" fill="#c4d7fb"/><path d="m372.45 263.856-175.47 175.47c-31.63 31.63-82.92 31.63-114.55 0l-17.68-17.68c31.63 31.63 82.92 31.63 114.55 0l175.47-175.47c4.69-4.69 4.69-12.29 0-16.97l17.68 17.68c4.69 4.68 4.69 12.28 0 16.97z" fill="#a9c6f9"/><path d="m412.45 303.856-175.47 175.48c-31.63 31.63-82.92 31.63-114.55 0l-40-40.01c31.63 31.63 82.92 31.63 114.55 0l175.47-175.47c4.69-4.69 4.69-12.29 0-16.97l40 40c4.69 4.691 4.69 12.29 0 16.97z" fill="#eef5ff"/><path d="m412.45 303.856-175.47 175.48c-31.63 31.63-82.92 31.63-114.55 0l-17.52-17.52c31.64 31.47 82.81 31.42 114.39-.16l175.47-175.48c4.69-4.68 4.69-12.28 0-16.97l17.68 17.68c4.69 4.691 4.69 12.29 0 16.97z" fill="#dfe9fb"/></g><g><path d="m471.306 36.817-31.256-31.255c-7.434-7.418-19.52-7.415-26.94.005l-11.54 11.54c-2.929 2.93-2.929 7.678 0 10.607 2.929 2.928 7.678 2.928 10.606 0l11.54-11.54c1.579-1.579 4.154-1.577 5.733 0l31.25 31.249c1.581 1.581 1.581 4.154 0 5.734l-98.823 98.823-36.983-36.983 62.543-62.543c2.929-2.93 2.929-7.678 0-10.607-2.929-2.928-7.678-2.928-10.606 0l-104.71 104.71-232.755 232.746c-7.587 7.603-7.587 19.973.005 27.581l77.76 77.749c16.714 16.715 38.937 25.92 62.573 25.92s45.859-9.205 62.573-25.919l126.61-126.609c2.929-2.93 2.929-7.678 0-10.607-2.929-2.928-7.678-2.928-10.606 0l-126.61 126.61c-13.881 13.881-32.336 21.525-51.967 21.525-19.63 0-38.085-7.645-51.967-21.526l-5.19-5.19c5.659 1.11 11.405 1.668 17.151 1.668 22.663 0 45.325-8.627 62.578-25.879l175.469-175.47c1.088-1.087 2.012-2.291 2.802-3.566l26.604 26.604c1.753 1.752 1.75 4.609.001 6.361l-24.12 24.11c-2.93 2.929-2.931 7.678-.002 10.606 2.928 2.931 7.677 2.93 10.606.003l24.126-24.117c7.593-7.607 7.59-19.977-.005-27.571l-82.136-82.136 135.687-135.686c7.428-7.429 7.428-19.518-.001-26.947zm-104.162 215.376c.848.846 1.314 1.971 1.315 3.169.001 1.203-.468 2.335-1.321 3.188l-175.47 175.47c-28.109 28.111-73.509 28.647-102.279 1.614-.03-.028-.067-.042-.105-.053l-39.302-39.297c-1.756-1.76-1.756-4.624-.005-6.378l227.447-227.438 89.71 89.71c.004.004.005.01.01.015zm-79.114-100.332 26.256-26.256 36.983 36.983-26.256 26.256z"/></g></g></svg>