<svg id="Capa_1" enable-background="new 0 0 512.019 512.019" height="512" viewBox="0 0 512.019 512.019" width="512" xmlns="http://www.w3.org/2000/svg"><g><g><path d="m401.16 473.345c0 17.208-13.95 31.157-31.157 31.157h-286.629c-17.207 0-31.157-13.95-31.157-31.157v-386.473c0-17.207 13.95-31.157 31.157-31.157h286.629c17.207 0 31.157 13.95 31.157 31.157z" fill="#c6c6c6"/></g><g><path d="m167.845 473.345v-386.473c0-17.207 13.949-31.157 31.157-31.157h-115.628c-17.207 0-31.157 13.95-31.157 31.157v386.473c0 17.208 13.95 31.157 31.157 31.157h115.628c-17.208 0-31.157-13.95-31.157-31.157z" fill="#b7b7b7"/></g><g><path d="m345.63 467.011h-237.88c-8.28 0-15.055-6.775-15.055-15.055v-341.485c0-8.28 6.775-15.055 15.055-15.055h237.88c8.28 0 15.055 6.775 15.055 15.055v341.485c-.001 8.28-6.775 15.055-15.055 15.055z" fill="#fff8e6"/></g><g><path d="m153.626 451.956v-341.485c0-8.28 6.775-15.055 15.055-15.055h-60.93c-8.28 0-15.055 6.775-15.055 15.055v341.485c0 8.28 6.775 15.055 15.055 15.055h60.93c-8.28 0-15.055-6.775-15.055-15.055z" fill="#fff1cf"/></g><g><g><path d="m176.433 213.402c0 12.926-13.158 23.402-29.388 23.402-16.231 0-29.388-10.477-29.388-23.402s13.156-23.402 29.388-23.402c16.23-.001 29.388 10.477 29.388 23.402" fill="#ffa1ac"/></g><g><path d="m276.946 213.402c0 12.926 13.157 23.402 29.388 23.402 16.23 0 29.388-10.477 29.388-23.402s-13.157-23.402-29.388-23.402c-16.23-.001-29.388 10.477-29.388 23.402" fill="#ffa1ac"/></g><g><path d="m250.383 195.421c0-14.643-10.608-16.02-23.693-16.02s-23.693 1.376-23.693 16.02c0 14.643 10.608 26.513 23.693 26.513s23.693-11.87 23.693-26.513" fill="#495560"/></g><g><path d="m151.957 192.962c-4.143 0-7.5-3.358-7.5-7.5v-12c0-4.142 3.357-7.5 7.5-7.5s7.5 3.358 7.5 7.5v12c0 4.142-3.357 7.5-7.5 7.5z"/></g><g><path d="m226.69 229.434c-17.2 0-31.194-15.258-31.194-34.013 0-23.52 21.859-23.52 31.194-23.52 9.334 0 31.193 0 31.193 23.52 0 18.755-13.993 34.013-31.193 34.013zm0-42.532c-15.539 0-16.194 2.612-16.194 8.52 0 10.483 7.265 19.013 16.194 19.013s16.193-8.529 16.193-19.013c0-5.908-.655-8.52-16.193-8.52z"/></g><g><path d="m301.422 192.962c-4.143 0-7.5-3.358-7.5-7.5v-12c0-4.142 3.357-7.5 7.5-7.5s7.5 3.358 7.5 7.5v12c0 4.142-3.357 7.5-7.5 7.5z"/></g></g><g><path d="m160.525 283.234c0 8.653-7.014 15.667-15.666 15.667s-15.667-7.014-15.667-15.667c0-8.652 7.015-15.667 15.667-15.667 8.653 0 15.666 7.015 15.666 15.667z" fill="#9cda82"/></g><g><path d="m141.192 283.234c0-6.526 3.993-12.116 9.667-14.471-1.849-.768-3.874-1.195-6-1.195-8.652 0-15.667 7.014-15.667 15.667s7.015 15.667 15.667 15.667c2.126 0 4.151-.428 6-1.195-5.673-2.356-9.667-7.947-9.667-14.473z" fill="#8dd470"/></g><g><path d="m160.525 347.234c0 8.653-7.014 15.667-15.666 15.667s-15.667-7.014-15.667-15.667c0-8.652 7.015-15.667 15.667-15.667 8.653 0 15.666 7.015 15.666 15.667z" fill="#9cda82"/></g><g><path d="m141.192 347.234c0-6.526 3.993-12.116 9.667-14.471-1.849-.768-3.874-1.195-6-1.195-8.652 0-15.667 7.014-15.667 15.667s7.015 15.667 15.667 15.667c2.126 0 4.151-.428 6-1.195-5.673-2.357-9.667-7.947-9.667-14.473z" fill="#8dd470"/></g><g><path d="m160.525 412.234c0 8.653-7.014 15.667-15.666 15.667s-15.667-7.014-15.667-15.667c0-8.652 7.015-15.667 15.667-15.667 8.653 0 15.666 7.015 15.666 15.667z" fill="#9cda82"/></g><g><path d="m141.192 412.234c0-6.526 3.993-12.116 9.667-14.471-1.849-.767-3.874-1.195-6-1.195-8.652 0-15.667 7.014-15.667 15.667s7.015 15.667 15.667 15.667c2.126 0 4.151-.428 6-1.195-5.673-2.357-9.667-7.947-9.667-14.473z" fill="#8dd470"/></g><g><path d="m410.774 372.994c-11.991 15.834-31.316 21.379-43.164 12.386-11.848-8.994-11.731-29.12.26-44.955 11.991-15.834 40.949-34.099 52.797-25.105 11.847 8.993 2.098 41.84-9.893 57.674z" fill="#ace094"/></g><g><path d="m335.011 372.994c11.991 15.834 31.316 21.379 43.164 12.386 11.848-8.994 11.731-29.12-.26-44.955-11.991-15.834-40.949-34.099-52.797-25.105-11.847 8.993-2.098 41.84 9.893 57.674z" fill="#8dd470"/></g><g><path d="m384.953 361.545c0-22.317 15.813-40.936 36.833-45.239-.35-.354-.721-.685-1.119-.987-11.848-8.994-40.806 9.271-52.797 25.105s-12.108 35.961-.26 44.955c6.837 5.19 16.164 5.53 25.134 1.853-4.92-7.344-7.791-16.179-7.791-25.687z" fill="#9cda82"/></g><g><path d="m376.986 363.583c-24.082 0-43.604-19.545-43.604-43.656 0-2.372.192-4.7.555-6.969-3.436-.132-6.466.576-8.819 2.362-11.848 8.994-2.099 41.84 9.893 57.674 11.991 15.834 31.316 21.379 43.164 12.386 6.644-5.044 9.524-13.589 8.658-22.915-3.164.731-6.461 1.118-9.847 1.118z" fill="#7dce5c"/></g><g><path clip-rule="evenodd" d="m457.07 401.628c-5.05-15.076-14.572-26.672-30.879-32.907-9.712-3.714-20.092-3.473-30.17-1.261-3.577.785-7.134 1.667-10.682 2.557-7.478 1.875-15.079 2.31-22.625.537-7.876-1.85-15.652-4.507-23.892-4.503-18.835.011-32.718 8.205-42.237 22.642-9.934 15.065-10.819 31.501-6.873 48.237 4.038 17.126 11.744 32.962 22.965 47.116 11.931 15.05 27.697 23.426 48.75 19.484 8.205-1.536 16.344-1.695 24.573-.039 5.946 1.196 11.998 1.387 18.024.233 10.749-2.057 19.454-7.302 26.833-14.549 7.659-7.525 12.867-16.463 17.387-25.763 6.663-13.716 11.592-27.837 11.552-44.363.083-5.064-.687-11.332-2.726-17.421z" fill="#fd7a6e" fill-rule="evenodd"/></g><g><path clip-rule="evenodd" d="m371.744 502.36c-27.184-16.27-45.148-44.377-45.148-76.33 0-22.332 8.777-42.784 23.34-58.633-3.644-.785-7.33-1.347-11.115-1.345-18.835.011-32.718 8.205-42.237 22.642-9.934 15.065-10.819 31.501-6.873 48.237 4.038 17.126 11.744 32.962 22.965 47.116 11.931 15.05 27.697 23.426 48.75 19.484 3.448-.645 6.883-1.044 10.318-1.171z" fill="#fb695b" fill-rule="evenodd"/></g><g><path d="m282.522 35.973h-27.359c0-15.725-12.748-28.473-28.473-28.473s-28.473 12.748-28.473 28.473h-27.361c-22.552 0-40.833 18.282-40.833 40.833 0 22.552 18.282 40.833 40.833 40.833h111.667c22.552 0 40.833-18.282 40.833-40.833-.001-22.551-18.282-40.833-40.834-40.833z" fill="#ffaa75"/></g><g><path d="m200.022 76.807c0-22.552 18.282-40.833 40.833-40.833h14.308c0-15.725-12.748-28.473-28.473-28.473s-28.473 12.748-28.473 28.473h-27.361c-22.552 0-40.833 18.282-40.833 40.833 0 22.552 18.282 40.833 40.833 40.833h70c-22.552 0-40.834-18.282-40.834-40.833z" fill="#ff9a5c"/></g><g><path d="m464.181 399.245c-6.127-18.286-18.008-30.913-35.312-37.529-.862-.33-1.739-.626-2.623-.907 7.598-17.511 12.197-41.411-1.044-51.463-4.332-3.289-9.898-4.503-16.541-3.63v-218.844c0-21.315-17.342-38.657-38.657-38.657h-48.544c-8.807-11.962-22.978-19.742-38.938-19.742h-20.645c-3.46-16.247-17.922-28.473-35.187-28.473s-31.728 12.226-35.188 28.473h-20.647c-15.96 0-30.132 7.78-38.938 19.742h-48.543c-21.315 0-38.657 17.342-38.657 38.657v304.976c0 4.142 3.357 7.5 7.5 7.5s7.5-3.358 7.5-7.5v-304.976c0-13.044 10.612-23.657 23.657-23.657h41.106c-1.267 4.315-1.959 8.873-1.959 13.592 0 3.824.46 7.54 1.303 11.11h-16.074c-12.437 0-22.555 10.118-22.555 22.554v341.485c0 12.437 10.118 22.555 22.555 22.555h189.228c2.93 4.894 6.203 9.631 9.822 14.196 2.435 3.072 4.977 5.829 7.614 8.295h-231.04c-13.045 0-23.657-10.613-23.657-23.657v-50.497c0-4.142-3.357-7.5-7.5-7.5s-7.5 3.358-7.5 7.5v50.497c0 21.316 17.342 38.657 38.657 38.657h266.146c.135 0 .267-.013.401-.02.431.01.857.037 1.291.037 3.755 0 7.623-.372 11.596-1.115 7.671-1.436 14.773-1.455 21.714-.059 7.184 1.445 14.218 1.528 20.913.247 11.544-2.209 21.579-7.627 30.679-16.565 4.982-4.895 9.402-10.688 13.514-17.709 2.093-3.575.892-8.169-2.684-10.262-3.576-2.092-8.169-.891-10.262 2.684-3.432 5.863-7.057 10.635-11.079 14.587-6.922 6.798-14.441 10.898-22.988 12.534-4.774.914-9.866.84-15.134-.22-8.863-1.783-17.836-1.776-27.434.02-16.523 3.097-30.093-2.392-41.492-16.771-10.508-13.255-17.756-28.118-21.542-44.178-3.92-16.625-2.012-30.49 5.834-42.388 8.543-12.958 20.312-19.261 35.979-19.27h.017c5.375 0 10.803 1.407 16.549 2.897 1.868.484 3.735.968 5.607 1.407 8.192 1.924 16.996 1.735 26.165-.564 3.371-.846 6.955-1.736 10.464-2.506 10.016-2.198 18.481-1.89 25.884.94 13.098 5.007 21.748 14.259 26.447 28.283 1.564 4.673 2.417 10.11 2.338 14.917-.001.047-.001.094-.001.141.018 7.251-1.009 14.36-3.138 21.732-1.149 3.979 1.145 8.137 5.124 9.287 3.978 1.147 8.138-1.145 9.286-5.125 2.522-8.733 3.742-17.194 3.728-25.862.097-6.516-1.007-13.564-3.115-19.856zm-293.326-355.772h27.361c4.143 0 7.5-3.358 7.5-7.5 0-11.564 9.409-20.973 20.974-20.973s20.974 9.409 20.974 20.973c0 4.142 3.357 7.5 7.5 7.5h27.358c18.38 0 33.333 14.953 33.333 33.333s-14.953 33.333-33.333 33.333h-111.667c-18.38 0-33.333-14.953-33.333-33.333s14.953-33.333 33.333-33.333zm119.468 341.092c-4.179 6.338-7.061 13.044-8.702 20.169h-90.776c-4.143 0-7.5 3.358-7.5 7.5s3.357 7.5 7.5 7.5h89.163c.046 6.009.845 12.303 2.404 18.917 1.692 7.178 4 14.138 6.892 20.859h-181.554c-4.166 0-7.555-3.389-7.555-7.555v-341.484c0-4.166 3.389-7.554 7.555-7.554h22.463c8.61 13.355 23.604 22.223 40.642 22.223h111.667c17.037 0 32.032-8.868 40.642-22.223h22.466c4.166 0 7.555 3.389 7.555 7.554v51.335c0 4.142 3.357 7.5 7.5 7.5s7.5-3.358 7.5-7.5v-51.335c0-12.437-10.118-22.554-22.555-22.554h-16.078c.843-3.57 1.303-7.286 1.303-11.11 0-4.719-.692-9.277-1.959-13.592h41.107c13.045 0 23.657 10.613 23.657 23.657v223.652c-7.311 3.508-14.59 8.492-20.753 13.847-1.488-1.292-3.068-2.585-4.724-3.856v-123.458c0-4.142-3.357-7.5-7.5-7.5s-7.5 3.358-7.5 7.5v113.965c-11.622-5.806-23.958-8.237-32.6-1.676-8.301 6.301-9.54 18.14-7.451 30.389h-122.287c-4.143 0-7.5 3.358-7.5 7.5s3.357 7.5 7.5 7.5h126.31c.835 2.328 1.742 4.584 2.689 6.737-11.971 3.905-22.001 11.687-29.521 23.093zm48.494-26.013c-1.267.001-2.519.037-3.757.106-8.104-16.305-9.925-33.934-5.406-37.364 4.336-3.293 19.665 2.58 32.817 13.859-.195.249-.394.498-.581.745-5.571 7.357-9.102 15.84-10.209 24.201-4.096-.891-8.34-1.547-12.839-1.547zm55.596 1.583c-3.711.814-7.419 1.735-10.898 2.608-6.166 1.546-11.793 1.839-17.138.901.461-6.265 3.079-12.889 7.473-18.691 8.697-11.485 25.831-22.868 36.667-24.358 2.562-.352 4.558-.104 5.616.699 4.498 3.415 2.798 20.691-5.272 37.085-5.226-.083-10.716.498-16.448 1.756z"/><path d="m190.845 290.734h133.342c4.143 0 7.5-3.358 7.5-7.5s-3.357-7.5-7.5-7.5h-133.342c-4.143 0-7.5 3.358-7.5 7.5s3.358 7.5 7.5 7.5z"/><path d="m144.86 260.067c-12.774 0-23.167 10.393-23.167 23.167s10.393 23.167 23.167 23.167c12.773 0 23.166-10.393 23.166-23.167s-10.393-23.167-23.166-23.167zm0 31.334c-4.503 0-8.167-3.664-8.167-8.167s3.664-8.167 8.167-8.167 8.166 3.664 8.166 8.167-3.663 8.167-8.166 8.167z"/><path d="m144.86 324.067c-12.774 0-23.167 10.393-23.167 23.167s10.393 23.167 23.167 23.167c12.773 0 23.166-10.393 23.166-23.167s-10.393-23.167-23.166-23.167zm0 31.334c-4.503 0-8.167-3.664-8.167-8.167s3.664-8.167 8.167-8.167 8.166 3.664 8.166 8.167-3.663 8.167-8.166 8.167z"/><path d="m144.86 389.067c-12.774 0-23.167 10.393-23.167 23.167s10.393 23.167 23.167 23.167c12.773 0 23.166-10.393 23.166-23.167s-10.393-23.167-23.166-23.167zm0 31.334c-4.503 0-8.167-3.664-8.167-8.167s3.664-8.167 8.167-8.167 8.166 3.664 8.166 8.167-3.663 8.167-8.166 8.167z"/><circle cx="284.446" cy="76.806" r="7.5"/><circle cx="168.931" cy="76.806" r="7.5"/></g></g></svg>