<svg id="_x30_1_Cloud" enable-background="new 0 0 48 48" height="512" viewBox="0 0 48 48" width="512" xmlns="http://www.w3.org/2000/svg"><path d="m39.8497 19.532c.0963-.4962.1503-1.0076.1503-1.532 0-4.4183-3.5817-8-8-8-1.4458 0-2.7983.3892-3.9688 1.06-1.8218-2.4589-4.7359-4.06-8.0312-4.06-5.5228 0-10 4.4772-10 10 0 .6992.073 1.3812.2095 2.0399-4.047.3972-7.2095 3.8087-7.2095 7.9601 0 4.4183 3.5817 8 8 8 2.1696 0 4.1345-.8669 5.5756-2.2693 1.3235 3.6538 4.8139 6.2693 8.9244 6.2693 3.5011 0 6.5518-1.8994 8.1996-4.7185 1.0072.4573 2.1222.7185 3.3004.7185 4.4183 0 8-3.5817 8-8 0-3.413-2.1412-6.3187-5.1503-7.468z" fill="#ccc"/><path d="m32 10c-1.4458 0-2.7983.3892-3.9688 1.06-1.8218-2.4589-4.7358-4.06-8.0312-4.06-5.5228 0-10 4.4772-10 10 0 .6992.073 1.3812.2095 2.0399-4.0469.3972-7.2095 3.8087-7.2095 7.9601 0 4.4183 3.5817 8 8 8 .367 0 .7253-.0334 1.0791-.0814l23.8703-23.8703c-1.1659-.664-2.5117-1.0483-3.9494-1.0483z" fill="#efefef"/><path d="m25.5002 40c-3.9307 0-7.5146-2.2236-9.3047-5.6543-1.5108 1.0747-3.3125 1.6543-5.1954 1.6543-4.9629 0-9-4.0376-9-9 0-4.2944 2.9717-7.9053 7.0664-8.7915-.0439-.4023-.0664-.8062-.0664-1.2085 0-6.0654 4.9346-11 11-11 3.2275 0 6.209 1.3745 8.3027 3.7993 1.1602-.5249 2.4229-.7993 3.6973-.7993 4.9629 0 9 4.0376 9 9 0 .3047-.0166.6133-.0488.9224 3.0498 1.4966 5.0488 4.6475 5.0488 8.0776 0 4.9624-4.0371 9-9 9-.9941 0-1.9668-.1631-2.9043-.4858-1.954 2.7871-5.1738 4.4858-8.5956 4.4858zm-8.9249-8.2695c.0742 0 .1494.0083.2236.0254.3311.0757.6006.3145.7168.6338 1.2159 3.3559 4.4249 5.6103 7.9845 5.6103 3.0029 0 5.8135-1.6182 7.3359-4.2231.2588-.4424.8096-.6187 1.2764-.4063.9199.4175 1.8916.6294 2.8876.6294 3.8594 0 7-3.1401 7-7 0-2.8784-1.8115-5.5039-4.5068-6.5337-.4541-.1733-.7178-.6479-.625-1.125.0879-.4497.1318-.9014.1318-1.3413 0-3.8599-3.1406-7-7-7-1.2129 0-2.4131.3208-3.4717.9277-.4395.252-.9971.1357-1.3008-.2725-1.7216-2.3227-4.3554-3.6552-7.2274-3.6552-4.9629 0-9 4.0376-9 9 0 .6133.0635 1.2314.1885 1.8384.0576.2773-.0059.5664-.1748.7949-.168.228-.4248.3745-.707.4019-3.5958.353-6.3067 3.3471-6.3067 6.9648 0 3.8599 3.1406 7 7 7 1.8301 0 3.5625-.7056 4.8779-1.9858.1885-.1841.4394-.2837.6972-.2837z" fill="#474747"/></svg>