<svg id="Layer_1" viewBox="0 0 1000 1000" xmlns="http://www.w3.org/2000/svg" data-name="Layer 1"><path d="m639 227.44-139 139-139-139-.16-.16a65.28 65.28 0 0 1 92.48-92.17l35.38 35.38a16 16 0 0 0 22.62 0l35.38-35.38a65.28 65.28 0 0 1 92.3 92.33z" fill="#76ff03"/><path d="m754 435.77a65.28 65.28 0 1 1 -92.33 92.32l-139-139 139-139a65.28 65.28 0 0 1 92.33 92.3l-35.38 35.38a16 16 0 0 0 0 22.62z" fill="#76ff03"/><path d="m477.38 389.08-139 139a65.28 65.28 0 0 1 -92.38-92.31l35.38-35.38a16 16 0 0 0 0-22.62l-35.38-35.38a65.28 65.28 0 0 1 92.33-92.32z" fill="#76ff03"/><path d="m639 643.05a65.3 65.3 0 0 1 -87.24 4.57l-.59-.47q-2.32-1.93-4.49-4.1l-35.38-35.38a16 16 0 0 0 -22.62 0l-35.38 35.38c-.39.39-.78.76-1.17 1.14a65.28 65.28 0 0 1 -91.13-93.47l139-139 139 139a65.37 65.37 0 0 1 0 92.33z" fill="#76ff03"/><path d="m524.62 666.23c-7.29 63.77-25.52 116.83-54.2 157.77-24.3 34.64-50.22 51.69-63.51 58.76a11.24 11.24 0 0 1 -16.12-7.38 10.86 10.86 0 0 1 2.27-9.69 371.21 371.21 0 0 0 85.36-202.49l21.58-21.59 24.06 24.07z" fill="#6d4c41"/><g fill="#fff" opacity=".5"><path d="m629 237.44-139 139-139-139-.16-.16a65.28 65.28 0 0 1 92.48-92.17l35.38 35.38a16 16 0 0 0 22.62 0l35.38-35.38a65.28 65.28 0 0 1 92.3 92.33z"/><path d="m744 445.77a65.28 65.28 0 1 1 -92.33 92.32l-139-139 139-139a65.28 65.28 0 0 1 92.33 92.3l-35.38 35.38a16 16 0 0 0 0 22.62z"/><path d="m467.38 399.08-139 139a65.28 65.28 0 0 1 -92.38-92.31l35.38-35.38a16 16 0 0 0 0-22.62l-35.38-35.38a65.28 65.28 0 0 1 92.33-92.32z"/><path d="m629 653.05a65.3 65.3 0 0 1 -87.24 4.57l-.59-.47q-2.32-1.93-4.49-4.1l-35.38-35.38a16 16 0 0 0 -22.62 0l-35.38 35.38c-.39.39-.78.76-1.17 1.14a65.28 65.28 0 0 1 -91.13-93.47l139-139 139 139a65.37 65.37 0 0 1 0 92.33z"/><path d="m514.62 676.23c-7.29 63.77-25.52 116.83-54.2 157.77-24.3 34.64-50.22 51.69-63.51 58.76a11.24 11.24 0 0 1 -16.12-7.38 10.86 10.86 0 0 1 2.27-9.69 371.21 371.21 0 0 0 85.36-202.49l21.58-21.59 24.06 24.07z"/></g><g fill="#413b32"><path d="m688.06 201a96.67 96.67 0 0 0 -49 26.42 65.28 65.28 0 0 0 -92.32-92.33l-35.38 35.38a16 16 0 0 0 0-22.63l-11.36-11.29 24.06-24.07a97.25 97.25 0 0 1 164 88.54z"/><path d="m511.31 170.49a16 16 0 0 1 -22.62-22.63l11.31-11.31 11.31 11.31a16 16 0 0 1 0 22.63z"/><path d="m688.06 201a96.67 96.67 0 0 1 -26.42 49l-139 139-11.31 11.31a16 16 0 0 1 -22.62-22.62l11.29-11.23 139-139a96.67 96.67 0 0 1 49.06-26.46z"/><path d="m511.31 377.77a16 16 0 1 1 -22.62 22.62l-11.31-11.31-139-139a97.29 97.29 0 0 1 137.56-137.6l24.06 24.07 11.31 11.31a16 16 0 0 1 -22.62 22.63l-35.38-35.38a65.28 65.28 0 0 0 -92.48 92.17l.16.16 139 139z"/><path d="m511.31 400.39a16 16 0 0 1 -22.62 0l-11.31-11.31-139-139a65.28 65.28 0 0 0 -92.38 92.31l35.38 35.38a16 16 0 1 1 -22.63 22.62l-11.31-11.31-24.04-24.08a97.29 97.29 0 0 1 137.43-137.72l.16.16 139 139 11.31 11.31a16 16 0 0 1 .01 22.64z"/><path d="m511.31 400.39-11.31 11.31-139 139a97.28 97.28 0 0 1 -137.6-137.55l24.07-24.07 11.31-11.31a16 16 0 1 1 22.63 22.62l-35.41 35.38a65.28 65.28 0 0 0 92.33 92.32l139-139 11.31-11.31a16 16 0 0 1 22.62 22.62z"/><path d="m805.08 296.22a96.68 96.68 0 0 1 -28.48 68.78l-24.07 24.06-11.31 11.31a16 16 0 1 1 -22.63-22.62l35.41-35.36a65.28 65.28 0 1 0 -92.33-92.32l-139 139-11.31 11.31a16 16 0 0 1 -22.62-22.62l11.26-11.3 139-139a97.28 97.28 0 0 1 166.07 68.78z"/><path d="m805.08 481.94a97.32 97.32 0 0 1 -166.08 68.78l-139-139-11.31-11.31a16 16 0 0 1 22.62-22.62l11.31 11.31 139 139a65.28 65.28 0 0 0 92.38-92.33l-35.38-35.38a16 16 0 1 1 22.63-22.62l11.31 11.31 24.07 24.07a96.66 96.66 0 0 1 28.45 68.79z"/><path d="m661.64 665.68a97.13 97.13 0 0 1 -137 .55l-.56-.55-24.08-24.07-11.31-11.31a16 16 0 1 1 22.62-22.63l35.38 35.38q2.16 2.16 4.49 4.1l.59.47a65.28 65.28 0 0 0 87.23-96.9l-139-139-11.31-11.31a16 16 0 0 1 22.62-22.62l11.31 11.31 139 139a97.42 97.42 0 0 1 0 137.59z"/><path d="m511.31 607.67a16 16 0 0 1 0 22.63l-11.31 11.31-21.58 21.59-2.48 2.48a97.29 97.29 0 0 1 -137.58-137.59l139-139 11.31-11.31a16 16 0 0 1 22.62 22.62l-11.29 11.3-139 139a65.28 65.28 0 0 0 91.12 93.5c.39-.38.78-.75 1.17-1.14l35.38-35.38a16 16 0 0 1 22.64-.01z"/><path d="m557.33 661.4q-1.27 12.84-3 24.85c-22 150.39-99 207-132.33 224.71a43.21 43.21 0 0 1 -53.42-65.87 338.37 338.37 0 0 0 74.15-157.6c2.16-11.75 3.54-22.75 4.38-32.76a16 16 0 0 1 5-10.51 16 16 0 0 1 26.89 11.69v1.34c-.16 2-.35 3.93-.55 5.94a371.21 371.21 0 0 1 -85.36 202.45 10.86 10.86 0 0 0 -2.27 9.69 11.24 11.24 0 0 0 16.12 7.38c13.29-7.07 39.21-24.12 63.51-58.76 28.68-40.9 46.91-93.93 54.2-157.73q.46-4 .86-8a16 16 0 0 1 25.7-11.1l.59.47a16 16 0 0 1 5.53 13.81z"/></g></svg>