<svg id="Capa_1" enable-background="new 0 0 512 512" height="512" viewBox="0 0 512 512" width="512" xmlns="http://www.w3.org/2000/svg"><g><path d="m447.804 230.062c0-23.053-17.21-42.073-39.481-44.948-5.007-14.608-18.85-25.114-35.156-25.114-20.526 0-37.165 16.639-37.165 37.165v74.637c0 20.526 16.639 37.165 37.165 37.165 19.54 0 35.547-15.084 37.04-34.241 21.35-3.673 37.597-22.265 37.597-44.664z" fill="#ffe04a"/><path d="m372.605 160.005c-20.266.302-36.603 16.824-36.603 37.161v74.637c0 16.237 10.413 30.042 24.925 35.102 7.476-15.364 11.679-32.613 11.679-50.817v-96.083z" fill="#ffcb39"/><path d="m313.218 309.519h-114.432v78.427l57.216 43.096 57.216-43.096z" fill="#ffdec7"/><path d="m219.389 387.946v-78.427h-20.604v78.427l57.217 43.096 10.302-7.76z" fill="#fec5a5"/><path d="m478.79 480.281v31.719h-445.576v-31.719c0-23.911 15.504-45.06 38.313-52.241l127.29-40.095 57.186 43.093 57.186-43.093 127.29 40.095c22.807 7.18 38.311 28.33 38.311 52.241z" fill="#8af9ba"/><path d="m92.13 428.04 112.758-35.517-6.073-4.577-127.289 40.094c-22.806 7.184-38.316 28.331-38.316 52.241v31.717h20.604v-31.717c0-23.91 15.51-45.057 38.316-52.241z" fill="#77eda6"/><path d="m64.003 230.062c0-23.053 17.21-42.073 39.481-44.948 5.007-14.608 18.85-25.114 35.156-25.114 20.526 0 37.165 16.639 37.165 37.165v74.637c0 20.526-16.639 37.165-37.165 37.165-19.54 0-35.547-15.084-37.04-34.241-21.35-3.673-37.597-22.265-37.597-44.664z" fill="#ffe04a"/><path d="m122.204 274.727c-21.35-3.674-37.597-22.266-37.597-44.665 0-23.053 17.21-42.073 39.481-44.947 3.907-11.4 13.22-20.306 24.861-23.666-3.267-.939-6.739-1.448-10.308-1.448-16.306 0-30.149 10.506-35.156 25.114-22.27 2.874-39.481 21.895-39.481 44.947 0 22.399 16.248 40.991 37.597 44.665 1.493 19.157 17.499 34.241 37.04 34.241 3.572 0 7.039-.508 10.308-1.448-14.604-4.212-25.526-17.144-26.745-32.793z" fill="#ffcb39"/><path d="m256.091 415.604 88.765-56.117c15.129-4.178 30.526 5.671 34.825 22.276 5.727 22.12 5.761 45.572.099 67.713l-.118.46c-4.278 16.728-19.808 26.633-35.013 22.331z" fill="#ea4959"/><path d="m255.958 415.604-88.765-56.117c-15.129-4.178-30.526 5.671-34.825 22.276-5.727 22.12-5.761 45.572-.099 67.713l.118.46c4.278 16.728 19.808 26.633 35.013 22.331z" fill="#ea4959"/><path d="m152.99 449.936-.118-.46c-5.662-22.14-5.628-45.593.099-67.713 2.514-9.709 8.824-17.102 16.654-20.738l-2.433-1.538c-15.129-4.178-30.526 5.671-34.825 22.276-5.727 22.12-5.761 45.572-.099 67.713l.118.46c4.278 16.728 19.808 26.633 35.013 22.331l2.308-1.476c-7.874-3.643-14.218-11.081-16.717-20.855z" fill="#d83a51"/><path d="m198.786 309.519v47.298c16.911 9.659 36.475 15.182 57.305 15.182 20.757 0 40.257-5.485 57.128-15.08v-47.4z" fill="#fec5a5"/><path d="m256.091 351.999c-52.97 0-95.911-42.941-95.911-95.911v-96.089l20.604-10.302h155.218l16 10.302v96.089c0 52.97-42.941 95.911-95.911 95.911z" fill="#ffdec7"/><g><g><path d="m256.092 327.711c-7.774 0-15.546-2.959-21.464-8.875-3.017-3.018-3.017-7.909 0-10.928 3.018-3.016 7.909-3.016 10.928 0 5.808 5.81 15.262 5.812 21.072 0 3.018-3.016 7.909-3.016 10.928 0 3.017 3.018 3.017 7.909 0 10.928-5.919 5.916-13.692 8.875-21.464 8.875z" fill="#356487"/></g></g><circle cx="255.608" cy="255.605" fill="#ea4959" r="31.605"/><path d="m244.606 255.605c0-13.847 8.908-25.606 21.304-29.879-3.23-1.114-6.693-1.727-10.302-1.727-17.455 0-31.606 14.15-31.606 31.606 0 17.455 14.15 31.605 31.606 31.605 3.608 0 7.072-.613 10.302-1.727-12.396-4.273-21.304-16.032-21.304-29.878z" fill="#d83a51"/><g><g><path d="m320.001 215.725c-4.268 0-7.726-3.459-7.726-7.726 0-4.561-3.711-8.273-8.273-8.273s-8.274 3.711-8.274 8.273c0 4.268-3.459 7.726-7.726 7.726-4.268 0-7.726-3.459-7.726-7.726 0-13.083 10.644-23.725 23.726-23.725s23.725 10.643 23.725 23.725c.001 4.267-3.458 7.726-7.726 7.726z" fill="#356487"/></g></g><g><g><path d="m224.002 215.725c-4.268 0-7.726-3.459-7.726-7.726 0-4.561-3.711-8.273-8.274-8.273-4.561 0-8.273 3.711-8.273 8.273 0 4.268-3.459 7.726-7.726 7.726s-7.726-3.459-7.726-7.726c0-13.083 10.643-23.725 23.725-23.725 13.083 0 23.726 10.643 23.726 23.725 0 4.267-3.458 7.726-7.726 7.726z" fill="#356487"/></g></g><g><g><path d="m320.047 423.725h-32.044c-4.268 0-7.726-3.459-7.726-7.726 0-4.268 3.459-7.726 7.726-7.726h32.044c4.268 0 7.726 3.459 7.726 7.726s-3.459 7.726-7.726 7.726z" fill="#d83a51"/></g></g><g><g><path d="m224.002 423.725h-31.999c-4.268 0-7.726-3.459-7.726-7.726 0-4.268 3.459-7.726 7.726-7.726h31.999c4.268 0 7.726 3.459 7.726 7.726s-3.458 7.726-7.726 7.726z" fill="#d83a51"/></g></g><g><g><path d="m263.821 511.928v.072h-15.453v-.052l-.093-63.944c-.01-4.265 3.451-7.726 7.716-7.736h.01c4.265 0 7.716 3.451 7.726 7.716z" fill="#77eda6"/></g></g><path d="m352.002 138.301h-191.822v-107.125c0-17.218 13.958-31.176 31.176-31.176h129.47c17.218 0 31.176 13.958 31.176 31.176z" fill="#356487"/><path d="m180.784 32.117c0-17.738 14.379-32.117 32.117-32.117h-21.545c-17.218 0-31.176 13.958-31.176 31.176v96.824h20.604z" fill="#20526b"/><path d="m160.18 96h191.821v32h-191.821z" fill="#ea4959"/><path d="m160.18 96h20.604v42.302h-20.604z" fill="#d83a51"/><path d="m352.002 180.603v-20.604l-16-10.302h-155.218l-20.604 10.302v96.089c0 52.97 42.941 95.911 95.911 95.911 3.481 0 6.917-.19 10.302-.552-48.125-5.14-85.609-45.87-85.609-95.359v-60.485c0-8.284 6.716-15 15-15z" fill="#fec5a5"/><path d="m368.002 160h-224c-8.837 0-16-7.163-16-16 0-8.837 7.163-16 16-16h223.999c8.837 0 16 7.163 16 16 0 8.837-7.163 16-15.999 16z" fill="#356487"/><path d="m148.606 144c0-8.837 7.164-16 16-16h-20.604c-8.837 0-16 7.164-16 16 0 8.837 7.163 16 16 16h20.604c-8.836 0-16-7.163-16-16z" fill="#20526b"/><circle cx="256.002" cy="415.998" fill="#ffe04a" r="32"/><path d="m244.606 415.998c0-14.067 9.081-26.006 21.698-30.295-3.234-1.099-6.696-1.705-10.302-1.705-17.673 0-32 14.327-32 32s14.327 32 32 32c3.606 0 7.068-.605 10.302-1.705-12.617-4.289-21.698-16.227-21.698-30.295z" fill="#ffcb39"/></g></svg>