<svg id="Capa_1" enable-background="new 0 0 512 512" height="512" viewBox="0 0 512 512" width="512" xmlns="http://www.w3.org/2000/svg"><g><g><path d="m362.333 502.021v-29.531c0-60.327-48.905-109.232-109.232-109.232-60.327 0-109.232 48.905-109.232 109.232v29.531" fill="#ffe266"/><ellipse cx="411.798" cy="319.794" fill="#d49c8d" rx="36.174" ry="36.174" transform="matrix(.851 -.526 .526 .851 -106.624 264.256)"/><ellipse cx="94.403" cy="319.794" fill="#d49c8d" rx="36.174" ry="36.174" transform="matrix(.23 -.973 .973 .23 -238.525 338.198)"/><path d="m283.926 409.19h-61.65c-76.608 0-138.712-62.103-138.712-138.712 0-76.608 62.103-138.712 138.712-138.712h61.65c76.608 0 138.712 62.103 138.712 138.712-.001 76.609-62.104 138.712-138.712 138.712z" fill="#fff"/><path d="m283.925 136.467h-17.788c62.107 0 112.455 50.348 112.455 112.455v9.55c0 62.107-50.348 112.455-112.455 112.455h-70.119c-59.435 0-108.094-46.11-112.172-104.508-.181 2.897-.283 5.816-.283 8.759 0 76.608 62.103 138.712 138.712 138.712h61.65c76.608 0 138.712-62.103 138.712-138.712 0-76.607-62.103-138.711-138.712-138.711z" fill="#ffbffc"/><ellipse cx="253.101" cy="306.026" fill="#ef8bbd" rx="27.716" ry="27.716" transform="matrix(.29 -.957 .957 .29 -113.139 459.585)"/><path d="m256.502 283.003c6.719 3.336 11.34 10.264 11.34 18.274 0 11.264-9.131 20.395-20.395 20.395-11.263 0-20.395-9.131-20.395-20.395 0-.885.063-1.755.172-2.61-1.67 3.565-2.608 7.542-2.608 11.739 0 15.307 12.409 27.716 27.716 27.716s27.716-12.409 27.716-27.716c0-13.889-10.218-25.391-23.546-27.403z" fill="#e068bd"/><path d="m260.752 405.983c21.09 9.486 35.925 31.999 35.925 58.271v6.321c0 9.84-7.977 17.817-17.817 17.817h-98.674v18.007h145.829v-27.902c0-37.686-28.591-68.688-65.263-72.514z" fill="#efaa66"/><g fill="#8bb6ef"><path d="m247.814 425.606 34.518 28.717c11.773 9.795 29.63 1.423 29.63-13.893v-29.65c0-15.315-17.857-23.688-29.63-13.893z"/><path d="m256.897 425.606-34.518 28.717c-11.773 9.795-29.63 1.423-29.63-13.893v-29.65c0-15.315 17.857-23.688 29.63-13.893z"/><path d="m257.992 444.935h-11.272c-6.484 0-11.741-5.257-11.741-11.741v-15.176c0-6.484 5.256-11.741 11.741-11.741h11.272c6.484 0 11.741 5.257 11.741 11.741v15.176c-.001 6.484-5.257 11.741-11.741 11.741z"/></g><path d="m401.403 177.896c2.528-7.848 3.89-16.194 3.89-24.847 0-46.123-38.692-83.513-86.422-83.513-28.089 0-53.044 12.953-68.829 33.012-15.785-20.058-40.74-33.012-68.83-33.012-47.73 0-86.422 37.39-86.422 83.513 0 8.569 1.338 16.835 3.819 24.618-31.773 5.515-55.889 32.344-55.889 64.633 0 36.28 30.435 65.691 67.979 65.691s67.979-29.411 67.979-65.691c0-1.952-.105-3.879-.278-5.787.934.029 1.869.049 2.81.049 28.089 0 53.045-12.953 68.83-33.012 15.785 20.059 40.74 33.012 68.829 33.012.471 0 .939-.01 1.408-.017-.171 1.898-.276 3.815-.276 5.756 0 36.28 30.436 65.691 67.979 65.691 37.544 0 67.979-29.411 67.979-65.691.002-31.84-23.441-58.383-54.556-64.405z" fill="#78eac4"/><path d="m401.403 177.896c2.528-7.848 3.89-16.194 3.89-24.847 0-46.123-38.693-83.513-86.423-83.513-9.659 0-18.949 1.532-27.622 4.358 26.467 9.662 45.295 34.361 45.295 63.32 0 4.846-.527 9.573-1.529 14.13-.715 3.254 1.214 6.528 4.395 7.518 22.16 6.892 38.195 26.975 38.195 50.68 0 29.12-24.199 52.765-54.223 53.214 8.9 26.261 34.45 45.236 64.601 45.236 37.544 0 67.979-29.411 67.979-65.691 0-31.84-23.443-58.383-54.558-64.405z" fill="#71afc4"/><path d="m214.634 183.031c-1.989-2.444-5.702-2.592-7.862-.297-12.81 13.611-31.281 22.157-51.821 22.157h-.023c-1.201 0-2.155 1.003-2.094 2.203.042.811.065 1.626.065 2.448 0 29.401-24.665 53.235-55.089 53.235-24.847 0-45.845-15.899-52.712-37.741-1.548 5.501-2.378 11.288-2.378 17.264 0 36.28 30.435 65.691 67.979 65.691s67.979-29.411 67.979-65.691c0-1.952-.105-3.879-.278-5.787.934.029 1.869.049 2.81.049 26.151 0 49.58-11.231 65.428-28.966-13.466-3.733-22.968-13.461-32.004-24.565z" fill="#71afc4"/></g><g><g fill="#440a29"><path d="m162.465 395.146c-17.806 20.834-28.575 47.854-28.575 77.344v29.531c0 5.512 4.468 9.979 9.979 9.979s9.979-4.468 9.979-9.979v-29.531c0-27.151 10.962-51.787 28.689-69.725-6.965-1.684-13.679-4.294-20.072-7.619z"/><path d="m340.538 395.412c-5.271 2.887-10.884 5.686-16.715 7.515 17.633 17.924 28.531 42.493 28.531 69.563v29.531c0 5.512 4.468 9.979 9.979 9.979s9.979-4.468 9.979-9.979v-29.531c0-29.983-11.131-57.413-29.472-78.385-.766.437-1.528.882-2.302 1.307z"/><path d="m191.796 424.198c-10.993 13.562-17.598 30.82-17.598 49.598v31.568c0 3.307 2.681 5.988 5.988 5.988s5.988-2.681 5.988-5.988v-31.568c0-10.533 2.453-20.5 6.807-29.374-1.15-6.648-1.429-13.431-1.185-20.224z"/><path d="m314.445 424.249c-.238 6.265-1.038 12.516-1.956 18.746 4.805 9.227 7.538 19.698 7.538 30.801v31.568c0 3.307 2.681 5.988 5.987 5.988 3.307 0 5.988-2.681 5.988-5.988v-31.568c.001-18.754-6.588-35.992-17.557-49.547z"/><path d="m442.245 285.151c-5.432 4.472-11.069 8.654-17.125 12.101 7.698 4.567 12.872 12.959 12.872 22.541 0 14.444-11.751 26.195-26.194 26.195-3.314 0-6.483-.625-9.405-1.753-4.058 5.477-8.18 10.902-12.471 16.186 6.514 3.522 13.965 5.525 21.876 5.525 25.449 0 46.153-20.704 46.153-46.153 0-13.789-6.087-26.177-15.706-34.642z"/><path d="m102.953 344.548c-2.682.929-5.557 1.44-8.55 1.44-14.444 0-26.194-11.751-26.194-26.195 0-8.724 4.291-16.46 10.869-21.223-6.738-2.463-12.977-5.672-18.472-10.16-7.659 8.242-12.355 19.272-12.355 31.384 0 25.449 20.704 46.153 46.153 46.153 6.723 0 13.108-1.457 18.875-4.053-4-5.46-7.56-11.231-10.326-17.346z"/><path d="m192.408 410.718c1.915-4.966 4.819-9.34 8.226-13.329-48.473-8.241-87.8-43.674-101.69-89.998-7.634-.591-15.3-2.975-22.214-6.435 11.978 57.276 57.014 102.544 114.161 114.873.373-1.722.868-3.428 1.517-5.111z"/><path d="m408.598 302.612c-12.231 47.428-50.895 84.32-99.269 94.044 3.26 6.03 5.411 12.481 5.673 19.232 59.953-12.799 106.642-61.836 115.927-123.001-6.838 4.552-14.382 7.953-22.331 9.725z"/><ellipse cx="170.345" cy="319.614" rx="15.485" ry="15.485" transform="matrix(.16 -.987 .987 .16 -172.429 436.563)"/><path d="m252.332 344.109c-18.584 0-33.703-15.119-33.703-33.703s15.119-33.703 33.703-33.703 33.703 15.119 33.703 33.703-15.119 33.703-33.703 33.703zm0-55.431c-11.981 0-21.728 9.747-21.728 21.728s9.747 21.728 21.728 21.728 21.728-9.747 21.728-21.728-9.747-21.728-21.728-21.728z"/><ellipse cx="335.857" cy="319.614" rx="15.485" ry="15.485" transform="matrix(.23 -.973 .973 .23 -52.371 573.054)"/><path d="m304.104 388.997c-8.539-4.004-18.349-2.744-25.6 3.289l-17.229 14.333c4.34 1.114 8.522 3.188 10.864 6.539l14.023-11.667c3.697-3.077 8.505-3.693 12.859-1.651s6.954 6.132 6.954 10.941v29.65c0 4.81-2.6 8.9-6.954 10.942-4.353 2.042-9.161 1.425-12.859-1.651l-16.591-13.803c-1.753 2.808-4.225 5.234-7.289 7.076-.574.345-1.172.658-1.781.956l18.003 14.977c4.443 3.696 9.845 5.601 15.327 5.601 3.466 0 6.966-.762 10.272-2.312 8.541-4.004 13.846-12.352 13.846-21.784v-29.65c.001-9.435-5.304-17.782-13.845-21.786z"/><path d="m239.606 442.511c-2.067-1.785-3.657-3.938-4.821-6.298l-16.235 13.508c-3.697 3.076-8.505 3.694-12.86 1.651-4.354-2.042-6.954-6.132-6.954-10.942v-29.65c0-4.809 2.6-8.9 6.954-10.941 1.698-.796 3.462-1.188 5.204-1.188 2.729 0 5.399.961 7.656 2.839l16.045 13.35c1.659-3.794 4.223-7.077 7.574-9.276l-15.961-13.279c-7.25-6.032-17.06-7.293-25.601-3.289s-13.846 12.352-13.846 21.784v29.65c0 9.433 5.305 17.78 13.846 21.784 3.308 1.551 6.806 2.312 10.272 2.312 5.483 0 10.887-1.905 15.328-5.601l16.978-14.125c-1.266-.583-2.472-1.333-3.579-2.289z"/><path d="m257.992 450.922h-11.272c-9.775 0-17.729-7.953-17.729-17.728v-15.176c0-9.775 7.953-17.728 17.729-17.728h11.272c9.776 0 17.728 7.953 17.728 17.728v15.176c0 9.775-7.953 17.728-17.728 17.728zm-11.272-38.657c-3.172 0-5.754 2.581-5.754 5.753v15.176c0 3.172 2.581 5.753 5.754 5.753h11.272c3.172 0 5.753-2.581 5.753-5.753v-15.176c0-3.172-2.581-5.753-5.753-5.753z"/><path d="m387.982 317.971c-41.651 0-75.777-31.87-77.858-71.806-22.932-1.979-44.05-11.717-60.083-27.639-16.359 16.247-38.016 26.055-61.489 27.751-2.139 39.883-36.241 71.694-77.852 71.694-42.986 0-77.958-33.945-77.958-75.67 0-33.163 22.04-61.934 53.725-71.929-1.101-5.69-1.656-11.484-1.656-17.322 0-51.552 43.246-93.492 96.401-93.492 26.277 0 50.777 10.086 68.829 28.015 18.053-17.928 42.553-28.015 68.829-28.015 53.156 0 96.401 41.94 96.401 93.492 0 5.988-.582 11.925-1.737 17.748 30.911 10.406 52.405 39.01 52.405 71.503.001 41.724-34.971 75.67-77.957 75.67zm-67.704-91.406c2.772 0 5.423 1.154 7.313 3.189 1.925 2.073 2.88 4.866 2.626 7.684-.159 1.765-.236 3.356-.236 4.863 0 30.72 26.019 55.712 58 55.712s58-24.992 58-55.712c0-26.43-19.545-49.395-46.475-54.607-2.804-.543-5.24-2.26-6.693-4.718-1.454-2.458-1.784-5.421-.909-8.139 2.262-7.023 3.409-14.353 3.409-21.787 0-40.547-34.292-73.534-76.443-73.534-24.152 0-46.381 10.644-60.987 29.204-1.892 2.404-4.783 3.808-7.842 3.808-3.06 0-5.951-1.404-7.842-3.808-14.605-18.559-36.834-29.204-60.987-29.204-42.15 0-76.443 32.987-76.443 73.534 0 7.356 1.127 14.618 3.348 21.586.876 2.748.52 5.74-.975 8.206-1.496 2.466-3.985 4.165-6.826 4.658-27.591 4.79-47.616 27.837-47.616 54.802 0 30.72 26.019 55.712 58 55.712s58-24.992 58-55.712c0-1.524-.078-3.123-.237-4.89-.257-2.846.717-5.665 2.677-7.744s4.701-3.232 7.573-3.129c.83.026 1.661.044 2.499.044 24.154 0 46.383-10.644 60.987-29.204 1.892-2.404 4.782-3.808 7.842-3.808 3.059 0 5.95 1.403 7.842 3.808 14.605 18.559 36.834 29.204 60.987 29.204.322 0 .641-.006.962-.011l.29-.004c.053-.002.104-.003.156-.003z"/><path d="m253.101 375.439c-10.131 0-18.373-8.242-18.373-18.373 0-3.307 2.681-5.988 5.988-5.988s5.988 2.681 5.988 5.988c0 3.528 2.87 6.398 6.398 6.398s6.398-2.87 6.398-6.398c0-3.307 2.681-5.988 5.988-5.988s5.987 2.681 5.987 5.988c-.001 10.131-8.243 18.373-18.374 18.373z"/></g><path d="m169.552 121.828c-3.633 0-7.135-1.991-8.899-5.45-2.502-4.91-.55-10.92 4.36-13.422 1.769-.901 3.606-1.753 5.46-2.53 5.076-2.131 10.93.259 13.063 5.341 2.132 5.082-.26 10.931-5.342 13.063-1.401.588-2.786 1.23-4.117 1.909-1.452.739-3 1.089-4.525 1.089z" fill="#fff"/><path d="m139.52 174.146c-5.131 0-9.492-3.933-9.932-9.139-1.005-11.881 1.791-24.007 8.547-37.07 2.533-4.895 8.556-6.809 13.449-4.28 4.895 2.531 6.812 8.552 4.28 13.448-5.045 9.755-7.075 18.087-6.387 26.219.464 5.492-3.612 10.32-9.103 10.785-.288.025-.571.037-.854.037z" fill="#fff"/></g><g><path d="m65.368 2.442 8.197 23.05c.351.987 1.046 1.769 1.923 2.164l20.479 9.226c2.893 1.304 2.893 5.913 0 7.217l-20.479 9.226c-.877.395-1.572 1.177-1.923 2.164l-8.197 23.05c-1.158 3.256-5.254 3.256-6.412 0l-8.197-23.05c-.351-.987-1.046-1.769-1.923-2.164l-20.479-9.226c-2.893-1.303-2.893-5.913 0-7.217l20.479-9.226c.877-.395 1.572-1.177 1.923-2.164l8.197-23.05c1.158-3.256 5.254-3.256 6.412 0z" fill="#bdf4e3"/><path d="m433.766 12.267 6.081 17.098c.26.732.776 1.312 1.426 1.605l15.191 6.844c2.146.967 2.146 4.386 0 5.353l-15.191 6.844c-.65.293-1.166.873-1.426 1.605l-6.081 17.098c-.859 2.415-3.897 2.415-4.756 0l-6.081-17.098c-.26-.732-.776-1.312-1.426-1.605l-15.191-6.844c-2.146-.967-2.146-4.386 0-5.353l15.191-6.844c.65-.293 1.166-.873 1.426-1.605l6.081-17.098c.859-2.415 3.897-2.415 4.756 0z" fill="#bdf4e3"/><g fill="#78eac4"><ellipse cx="483.355" cy="125.582" rx="17.899" ry="17.899" transform="matrix(.924 -.383 .383 .924 -11.265 194.532)"/><circle cx="143.869" cy="19.746" r="7.721"/><circle cx="18.467" cy="136.467" r="7.721"/></g></g></g></svg>