<svg viewBox="0 0 64 64" xmlns="http://www.w3.org/2000/svg"><g id="Coat-2" data-name="Coat"><path d="m55.94 10.51-10.94-4.51-4-5-.43.1a39.63945 39.63945 0 0 1 -17.14 0l-.43-.1-4 5-10.94 4.51-7.06 39.49 5.99991 6.9999h.00011l6.43998-23.8699c.44 4.42.67 8.84.77 12.87l.06 4c.04443 5.61005-.12482 10.03693-.21582 11.959a.99538.99538 0 0 0 .99916 1.041h33.89332a.99538.99538 0 0 0 .99914-1.041c-.091-1.922-.26025-6.34893-.21582-11.959l.06-4c.1-4.03.33-8.45.77-12.87l6.44002 23.86988h.00011l5.99989-6.99988z" fill="#ffcda4"/><path d="m55.94 10.51c-2.95 5.77-4.55 14.2-5.38 22.62l6.44 23.86988h.00011l5.99989-6.99988z" fill="#f7b692"/><path d="m8.06 10.51-7.06 39.49 5.99991 6.9999h.00011l6.43998-23.8699c-.83-8.42-2.43-16.85-5.38-22.62z" fill="#f7b692"/><path d="m38.28 5.53-3.28 5.47h-6l-3.28-5.47a39.49149 39.49149 0 0 0 12.56 0z" fill="#db8972"/><path d="m26 15 3-4-6-10-4 5z" fill="#f7b692"/><path d="m38 15-3-4 6-10 4 5z" fill="#f7b692"/><g fill="#e89d80"><path d="m41 1-2.72 4.53a39.49149 39.49149 0 0 1 -12.56 0l-2.72-4.53.43.1a39.63945 39.63945 0 0 0 17.14 0z"/><path d="m13 46h13v4h-13z"/><path d="m31 46h20v4h-20z"/></g><path d="m26 44h5v8h-5z" fill="#f7b692"/><g fill="#2c3638"><path d="m56.91992 10.33252a1.099 1.099 0 0 0 -.59863-.74707l-10.70087-4.411-3.83917-4.79896a.97853.97853 0 0 0 -.22614-.20049c-.0177-.0119-.0357-.02106-.05407-.0318a1.00279 1.00279 0 0 0 -.31397-.1232.94972.94972 0 0 0 -.25445-.01758c-.10206.00641-.47965.09491-.582.11768a38.75081 38.75081 0 0 1 -16.70069 0l-.43313-.09617-.14991-.02149a1.0614 1.0614 0 0 0 -.84765.37305l-3.83869 4.79834-10.70184 4.41162a1.09932 1.09932 0 0 0 -.59863.74707l-7.06445 39.49121a1.00115 1.00115 0 0 0 .22509.82715l6 7a1.00009 1.00009 0 0 0 1.72461-.39063l4.93567-18.30389c.13025 2.08868.219 4.115.27783 6.04364h-.17883a1 1 0 0 0 -1 1v4a1 1 0 0 0 1 1h.2749c.02472 6.93579-.26971 11.8877-.27295 11.93945a1.00054 1.00054 0 0 0 .99805 1.06055h36a.99976.99976 0 0 0 .998-1.06055c-.00281-.05175-.29767-5.00366-.27253-11.93945h.27453a.99974.99974 0 0 0 1-1v-4a.99974.99974 0 0 0 -1-1h-.17847c.05872-1.92816.14728-3.95392.27741-6.042l4.93524 18.30224a.99991.99991 0 0 0 1.72461.39063l6-7a1.00148 1.00148 0 0 0 .22559-.82715zm-22.48614-.33252h-4.86756l-1.92559-3.20935a40.37806 40.37806 0 0 0 4.35937.24304 40.38 40.38 0 0 0 4.35938-.243zm6.68341-7.25244 2.60937 3.26123-5.71191 7.34375-1.81152-2.41454zm-9.11719.28271a40.70535 40.70535 0 0 0 6.98138-.60962l-1.31115 2.18525a38.4036 38.4036 0 0 1 -11.34052-.00007l-1.31116-2.1853a40.70779 40.70779 0 0 0 6.98145.60974zm-9.11768-.28271 4.91407 8.19044-1.811 2.41455-5.71195-7.34376zm-4.20471 4.46686 1.68079 2.161-9.92957 4.09405c-.31665-.84521-.64593-1.66894-1.004-2.44067zm-12.15027 47.69769-4.45947-5.20264 6.4-35.77691c2.06311 5.37762 3.26879 12.28137 3.95489 19.11688zm7.90088-21.88411c-.00238-.027-.003-.05286-.00757-.07941a87.36375 87.36375 0 0 0 -3.33258-17.58783l9.91193-4.08676v33.726h-5.82043c-.11243-3.7182-.3379-7.81781-.75135-11.972zm35.57178 13.972v2h-18v-2zm-20 4h-3v-6h3zm-5-2h-11v-2h11zm-9.72424 2h5.72424v11h-5.94727c.08619-1.83014.24134-5.88116.22303-11zm33.67151 11h-25.94727v-11h2v1a1 1 0 0 0 1 1h5a1 1 0 0 0 1-1v-1h16.72467c-.01862 5.11884.13641 9.16986.2226 11zm-16.94727-17v-1a1 1 0 0 0 -1-1h-5a1 1 0 0 0 -1 1v1h-2v-32.22821l2.21045 2.842a1.00106 1.00106 0 0 0 .78955.38621h.00879a1.00123 1.00123 0 0 0 .791-.3999l2.70009-3.6001h5.00024l2.70008 3.6001a1.00051 1.00051 0 0 0 .791.3999h.0088a.9994.9994 0 0 0 .78906-.38623l6.53308-8.39966 9.25306 3.8147c-2.71326 5.84741-4.19947 13.962-4.996 21.91937-.00464.027-.00525.05322-.00763.08063-.41349 4.15393-.63901 8.25329-.75157 11.97119zm25.47266 9.91211-5.89533-21.86395c.686-6.83423 1.89185-13.73676 3.955-19.11408l6.39929 35.77539z"/><circle cx="28" cy="39" r="1"/><circle cx="28" cy="31" r="1"/><circle cx="28" cy="23" r="1"/><circle cx="36" cy="39" r="1"/><circle cx="28" cy="57" r="1"/><circle cx="36" cy="57" r="1"/><circle cx="36" cy="31" r="1"/><circle cx="36" cy="23" r="1"/></g></g></svg>