<svg clip-rule="evenodd" fill-rule="evenodd" height="512" image-rendering="optimizeQuality" shape-rendering="geometricPrecision" text-rendering="geometricPrecision" viewBox="0 0 512 512" width="512" xmlns="http://www.w3.org/2000/svg" xmlns:xodm="http://www.corel.com/coreldraw/odm/2003"><g id="Layer_x0020_1"><path d="m276.26 441.17c-2.42 0-4.44-1.73-4.9-4.02h-30.72c-.46 2.29-2.48 4.02-4.91 4.02-2.76 0-5-2.24-5-5 0-139.9 0-274.16 0-412.44 0-13.07 10.64-23.7 23.71-23.7h3.12c13.07 0 23.7 10.63 23.7 23.7v412.44c0 2.76-2.23 5-5 5z" fill="#bdc3c7"/><g fill="#95a5a5"><path d="m325.36 137.57h-138.72c-34.92 0-63.33-28.41-63.33-63.34v-12.47c0-2.76 2.24-5 5-5h24.94c2.76 0 5 2.24 5 5v12.47c0 15.66 12.74 28.4 28.39 28.4h138.71c15.66 0 28.4-12.74 28.4-28.4v-12.47c0-2.76 2.24-5 5-5h24.94c2.76 0 5 2.24 5 5v12.47c0 34.93-28.41 63.34-63.33 63.34z"/><path d="m325.36 296.4h-138.72c-34.92 0-63.33-28.41-63.33-63.33v-12.47c0-2.77 2.24-5 5-5h24.94c2.76 0 5 2.23 5 5v12.47c0 15.65 12.74 28.39 28.39 28.39h138.71c15.66 0 28.4-12.74 28.4-28.39v-12.47c0-2.77 2.24-5 5-5h24.94c2.76 0 5 2.23 5 5v12.47c0 34.92-28.41 63.33-63.33 63.33z"/><path d="m383.69 511.97h-24.94c-2.76 0-5-2.24-5-5v-12.47c0-15.65-12.74-28.39-28.39-28.39h-138.72c-15.65 0-28.39 12.74-28.39 28.39v12.47c0 2.76-2.24 5-5 5h-24.94c-2.76 0-5-2.24-5-5v-12.47c0-34.92 28.41-63.33 63.33-63.33h138.72c34.92 0 63.33 28.41 63.33 63.33v12.47c0 2.76-2.24 5-5 5z"/></g></g></svg>