<svg height="512" viewBox="0 0 128 128" width="512" xmlns="http://www.w3.org/2000/svg"><g><circle cx="48.183" cy="20.759" fill="#73e6ac" r="14.452"/><path d="m72.881 81.437a25.059 25.059 0 0 0 21.219-27.698l-3.861-32.98h-42.056l-3.862 32.98a25.06 25.06 0 0 0 21.216 27.7v32.7l-15.785 7.557h38.914l-15.785-7.557z" fill="#e6f2ff"/><path d="m85.014 36.36 2.13 18.193a18.058 18.058 0 1 1 -35.871 0l2.127-18.193a22.612 22.612 0 0 1 10.948-2.8c7.777-.005 9.835 5.26 20.666 2.8z" fill="#ffdd70"/><g><path d="m63.787 82.907v12.06a1.75 1.75 0 1 0 3.5 0v-13.531a1.75 1.75 0 0 0 -1.5-1.731 23.448 23.448 0 0 1 -19.727-25.762l3.679-31.434h38.94l.721 6.169a1.75 1.75 0 0 0 3.477-.407l-.9-7.715a1.751 1.751 0 0 0 -1.739-1.547h-25.952a16.2 16.2 0 1 0 -19.714 17.54l-1.989 16.987a26.643 26.643 0 0 0 21.204 29.371zm-28.307-62.148a12.7 12.7 0 0 1 25.27-1.75h-12.567a1.751 1.751 0 0 0 -1.739 1.547l-1.462 12.487a12.689 12.689 0 0 1 -9.502-12.284z"/><path d="m92.058 36.319a1.752 1.752 0 0 0 -1.536 1.942l.523 4.465a1.75 1.75 0 0 0 3.476-.408l-.521-4.464a1.754 1.754 0 0 0 -1.942-1.535z"/><path d="m89.422 120.114-14.791-7.081v-30.126a26.645 26.645 0 0 0 21.2-29.371l-.24-2.05a1.75 1.75 0 1 0 -3.477.407l.24 2.05a23.449 23.449 0 0 1 -19.727 25.762 1.75 1.75 0 0 0 -1.5 1.731v32.7a1.75 1.75 0 0 0 .994 1.578l8.833 4.229h-23.494l8.833-4.229a1.75 1.75 0 0 0 .994-1.578v-9.806a1.75 1.75 0 0 0 -3.5 0v8.7l-14.787 7.084a1.75 1.75 0 0 0 .756 3.329h38.91a1.75 1.75 0 0 0 .756-3.329z"/><path d="m86.023 34.931a1.751 1.751 0 0 0 -1.4-.278 17.643 17.643 0 0 1 -12.1-1.022 20.913 20.913 0 0 0 -8.176-1.826 24.29 24.29 0 0 0 -11.869 3.067 1.75 1.75 0 0 0 -.817 1.284l-2.126 18.194a19.808 19.808 0 1 0 39.348 0l-2.131-18.194a1.747 1.747 0 0 0 -.729-1.225zm-4.631 32.563a16.308 16.308 0 0 1 -28.38-12.737l2.025-17.293a21.444 21.444 0 0 1 9.315-2.159 17.8 17.8 0 0 1 6.915 1.595 20.743 20.743 0 0 0 12.233 1.539l1.911 16.318a16.324 16.324 0 0 1 -4.019 12.737z"/><path d="m48.183 16.75a1.751 1.751 0 0 0 1.75-1.75v-2.621a1.75 1.75 0 1 0 -3.5 0v2.621a1.75 1.75 0 0 0 1.75 1.75z"/><path d="m42.423 19.009h-2.623a1.75 1.75 0 0 0 0 3.5h2.62a1.75 1.75 0 0 0 0-3.5z"/></g></g></svg>