<svg height="512" viewBox="0 0 46 61" width="512" xmlns="http://www.w3.org/2000/svg"><g id="Page-1" fill="none" fill-rule="evenodd"><g id="030---Coconut-with-Face"><g id="Icons_copy" transform="translate(1 1)"><path id="Path" d="m44 36.087c0 12.1502645-9.8497355 22-22 22s-22-9.8497355-22-22c0-12.102 9.85-26.087 22-26.087s22 13.985 22 26.087z" fill="#a0522d"/><path id="Path" d="m22 10c-.5 0-1 .033-1.5.08 11.45 1.087 20.5 14.407 20.5 26.007-.022221 11.5429982-8.9820949 21.0959721-20.5 21.857.5.033 1 .056 1.5.056 12.1261361.0237718 21.9757235-9.7868649 22-21.913 0-12.102-9.85-26.087-22-26.087z" fill="#783e22"/><circle id="Oval" cx="11.5" cy="30.5" fill="#f5f5f5" r="2.5"/><circle id="Oval" cx="26.5" cy="30.5" fill="#f5f5f5" r="2.5"/><path id="Path" d="m18.96 2.211c3 2.726 3.04 7.735 3.04 7.735s-4.832.589-7.836-2.137-3.04-7.735-3.04-7.735 4.832-.589 7.836 2.137z" fill="#60a917"/><path id="Path" d="m18.96 2.211c-3-2.726-7.836-2.137-7.836-2.137v.077c1.7806237.18956652 3.4639744.90692325 4.834 2.06 2.792 2.535 3.02 7.037 3.038 7.658.9936746.1413902 2.0003805.167229 3 .077 0 0-.033-5.009-3.036-7.735z" fill="#549414"/><path id="Path" d="m25.04 2.211c-3 2.726-3.04 7.735-3.04 7.735s4.832.589 7.836-2.137 3.04-7.735 3.04-7.735-4.832-.589-7.836 2.137z" fill="#60a917"/><path id="Path" d="m29.874.151c-.018.621-.246 5.123-3.038 7.658-1.3705758 1.15344131-3.0546758 1.87082052-4.836 2.06v.077s4.833.589 7.836-2.137 3.04-7.735 3.04-7.735c-1.0002814-.09038407-2.0076675-.06454505-3.002.077z" fill="#549414"/></g><g id="Icons" fill="#000"><path id="Shape" d="m0 37.087c0 12.7025492 10.2974508 23 23 23s23-10.2974508 23-23c0-10.5-7.058-22.419-16.967-26.006.9068245-.3648088 1.7440575-.8830476 2.475-1.532 3.292-2.986 3.366-8.249 3.368-8.468.0037331-.50828726-.3744321-.93850929-.879-1-.215-.026-5.324-.61-8.629 2.389-1.0522751.99377133-1.8624084 2.21581358-2.368 3.572-.5057268-1.35582756-1.3158518-2.57751517-2.368-3.571-3.305-3-8.414-2.416-8.632-2.39-.5045679.06149071-.8827331.49171274-.879 1 0 .223.078 5.482 3.368 8.469.7310779.6485168 1.5682918 1.1664055 2.475 1.531-9.906 3.588-16.964 15.509-16.964 26.006zm26.712-33.136c1.851-1.681 4.582-1.93 6.04-1.93h.048c-.172 1.478-.743 4.326-2.639 6.046-1.848 1.682-4.579 1.933-6.037 1.933h-.051c.172-1.48.743-4.328 2.639-6.049zm-13.512-1.929c1.423.008 4.217.229 6.091 1.929 1.9 1.721 2.467 4.569 2.639 6.047-1.405-.016-4.217-.229-6.091-1.929-1.899-1.721-2.47-4.569-2.639-6.047zm9.21 10c.943969 1.8281947 1.4860896 3.8371093 1.59 5.892 0 .5522847.4477153 1 1 1s1-.4477153 1-1c-.0427119-1.6979152-.3835655-3.3751045-1.007-4.955 3.185 1.923 6.037 5.924 8.041 11.386.1446866.3936326.5196186.6551666.939.655.1173305-.0002978.2337209-.0209368.344-.061.2491009-.0914172.451656-.2780894.5630654-.5189137.1114093-.2408242.1225377-.5160537.0309346-.7650863-1.106-3.016-3.213-7.587-6.581-10.683 9.035 3.32 15.67 14.553 15.67 24.115-.0000002 11.5979796-9.4020204 20.9999997-21 20.9999997s-20.99999983-9.4020201-21-20.9999997c0-11.168 9.051-24.608 20.407-25.065z" fill-rule="nonzero"/><path id="Path" d="m28.22 52.569c.3142885.4532138.9361756.5664062 1.39.253 5.314-3.674 8.39-7.589 8.39-16.722-.0129833-1.7020207-.1783098-3.3994622-.494-5.072-.1096045-.5323405-.6243262-.8796722-1.1590008-.782088s-.8935136.6043508-.8079992 1.141088c.2937688 1.5541287.4480492 3.1314032.461 4.713 0 8.346-2.535 11.626-7.526 15.079-.4535536.3139717-.5672039.9359158-.254 1.39z"/><path id="Shape" d="m12.5 35c1.9329966 0 3.5-1.5670034 3.5-3.5s-1.5670034-3.5-3.5-3.5-3.5 1.5670034-3.5 3.5 1.5670034 3.5 3.5 3.5zm0-5c.8284271 0 1.5.6715729 1.5 1.5s-.6715729 1.5-1.5 1.5-1.5-.6715729-1.5-1.5.6715729-1.5 1.5-1.5z" fill-rule="nonzero"/><path id="Shape" d="m27.5 35c1.9329966 0 3.5-1.5670034 3.5-3.5s-1.5670034-3.5-3.5-3.5-3.5 1.5670034-3.5 3.5 1.5670034 3.5 3.5 3.5zm0-5c.8284271 0 1.5.6715729 1.5 1.5s-.6715729 1.5-1.5 1.5-1.5-.6715729-1.5-1.5.6715729-1.5 1.5-1.5z" fill-rule="nonzero"/><path id="Path" d="m12.925 40.7c-.2090398-.5114156-.7930843-.7565397-1.3045-.5474999-.5114156.2090397-.7565397.7930842-.5475 1.3044999 1.5989089 3.467084 5.1104221 5.6474713 8.927 5.543 3.8161089.1048233 7.3274933-2.0746974 8.927-5.541.2082114-.511968-.038032-1.0957886-.55-1.304s-1.0957886.038032-1.304.55c-1.3060553 2.6996927-4.0752201 4.381237-7.073 4.295-3.0032025.0996408-5.7804561-1.5883013-7.075-4.3z"/><path id="Path" d="m12.886 22.434c.2373497.1186659.5121326.1381283.7638386.0541012.251706-.084027.4596935-.2646527.5781614-.5021012.579981-1.222361 1.3308296-2.3560415 2.23-3.367.3784551-.3929089.3721707-1.0166378-.0141242-1.4018415-.3862949-.3852036-1.0100391-.3897235-1.4018758-.0101585-1.0540405 1.1592824-1.9302468 2.4685369-2.6 3.885-.2476928.493211-.0489755 1.0938387.444 1.342z"/></g></g></g></svg>