<svg id="Layer_1" enable-background="new 0 0 512 512" height="512" viewBox="0 0 512 512" width="512" xmlns="http://www.w3.org/2000/svg"><g id="XMLID_1_"><g id="XMLID_3952_"><path id="XMLID_2230_" d="m61 312c0-195 87.3-195 195-195s195 0 195 195c0 107.7-87.3 195-195 195s-195-87.3-195-195z" fill="#47b85c"/><path id="XMLID_2238_" d="m378.6 132.7c14.3 28.7 22.4 70 22.4 129.3 0 107.7-87.3 195-195 195-41.1 0-79.2-12.7-110.6-34.4 35.2 51 94 84.4 160.6 84.4 107.7 0 195-87.3 195-195 0-110.9-28.2-158.7-72.4-179.3z" fill="#399349"/><path id="XMLID_1696_" d="m447 247.2-12.4 24.6c-10.3 20.4-33.2 31.3-55.5 26.3l-49.9-11.1-31.4 19.2c-25.7 15.8-58 15.8-83.7 0l-31.4-19.2-49.9 11.1c-22.3 5-45.2-5.9-55.5-26.3l-12.3-24.6c18.3-130.2 96.9-130.2 191-130.2s172.7 0 191 130.2z" fill="#ffc96f"/><path id="XMLID_1358_" d="m329.2 287.1-31.4 19.3c-25.7 15.8-58 15.8-83.7 0l-31.4-19.3 18-92 112.5-.3z" fill="#ffdca4"/><ellipse id="XMLID_1695_" cx="256" cy="167" fill="#ffb234" rx="125" ry="31.3"/><path id="XMLID_1694_" d="m234.4 197.8c-8.9-.4-17.5-1-25.7-1.9l-25.8-131.6c-1.5-7.5-7.1-13.6-14.6-15.5l-70.8-18.6c-10.5-7.7-4.2-25.2 6-25.2l74 19.4c14.9 3.9 26.2 15.9 29.1 31z" fill="#3279af"/><path id="XMLID_1691_" d="m385.3 96.8-72 97.9c-8.4 1.1-17.3 1.9-26.7 2.5l82.6-112.2z" fill="#c22945"/><path id="XMLID_1693_" d="m451 157-40-112h-124z" fill="#e17084"/><path id="XMLID_1692_" d="m401.9 123.5 9.1-78.5-75 33.5z" fill="#d84861"/><ellipse id="XMLID_33_" cx="141.8" cy="399.7" fill="#ffc96f" rx="15.5" ry="26.7" transform="matrix(.707 -.707 .707 .707 -241.064 217.357)"/></g><g id="XMLID_3626_"><g id="XMLID_379_"><path id="XMLID_3416_" d="m256 512c-110.3 0-200-89.7-200-200 0-155.1 54.7-191.4 136.8-198.3l.8 10c-44.4 3.7-71.8 15.4-91.5 39.1-24.3 29.1-36.1 77.9-36.1 149.2 0 104.8 85.2 190 190 190s190-85.2 190-190c0-57.7-7.6-100.1-23.2-129.8-13.4-25.5-32.5-41.5-60.2-50.5l3.1-9.5c29.9 9.6 51.4 27.7 65.9 55.3 16.4 31.2 24.4 75.2 24.4 134.5 0 110.3-89.7 200-200 200z" fill="#4d2419"/></g><g id="XMLID_178_"><path id="XMLID_3415_" d="m340.3 126.4c-25.3-4.4-54-4.4-84.3-4.4-5.8 0-11.6 0-17.3 0l-.1-10h17.4c30.8 0 59.9 0 86 4.5z" fill="#4d2419"/></g><g id="XMLID_13_"><path id="XMLID_3414_" d="m256 323.2c-15.4 0-30.7-4.2-44.5-12.6l-29.6-18.2-47.9 10.6c-24.6 5.5-49.7-6.4-61.1-29l8.9-4.5c9.3 18.4 29.8 28.2 50 23.7l49.9-11.1c1.3-.3 2.6-.1 3.7.6l31.4 19.2c24.2 14.9 54.3 14.8 78.5 0l31.4-19.2c1.1-.7 2.4-.9 3.7-.6l49.9 11.1c20.1 4.5 40.7-5.3 50-23.7l12.4-24.6 8.9 4.5-12.4 24.6c-11.3 22.5-36.4 34.4-61.1 29l-47.9-10.6-29.6 18.2c-13.9 8.4-29.2 12.6-44.6 12.6z" fill="#4d2419"/></g><g id="XMLID_157_"><path id="XMLID_3413_" d="m256 203.3c-33.8 0-65.6-3.3-89.6-9.3-26.8-6.7-40.4-15.8-40.4-26.9 0-20.2 44.5-29.1 71-32.6l1.3 9.9c-45.4 6-62.3 17.1-62.3 22.7 0 3.4 6.9 10.8 32.8 17.2 23.2 5.8 54.2 9 87.2 9s64-3.2 87.2-9c25.9-6.5 32.8-13.9 32.8-17.2 0-3-5.8-9.7-27.7-15.9l2.7-9.6c23.2 6.6 35 15.1 35 25.5 0 11.2-13.6 20.2-40.4 26.9-24 5.9-55.8 9.3-89.6 9.3z" fill="#4d2419"/></g><g id="XMLID_21_"><path id="XMLID_3412_" d="m308.6 143.7c-16.5-1.9-34.2-2.9-52.6-2.9-10.9 0-21.7.4-32.2 1.1l-.7-10c10.7-.7 21.7-1.1 32.8-1.1 18.8 0 36.9 1 53.8 3z" fill="#4d2419"/></g><g id="XMLID_394_"><path id="XMLID_3409_" d="m234.4 202.8c-.1 0-.1 0-.2 0-8.8-.4-17.6-1-26-1.9-2.2-.2-4-1.9-4.4-4l-25.8-131.7c-1.1-5.6-5.4-10.2-10.9-11.6l-70.9-18.6c-.6-.2-1.2-.4-1.7-.8-6.6-4.9-9.1-13.4-6.3-21.7 2.5-7.6 8.5-12.5 15.3-12.5.4 0 .9.1 1.3.2l74 19.4c16.6 4.3 29.5 18 32.8 34.9l27.8 142.4c.3 1.5-.1 3.1-1.1 4.2-1.1 1-2.4 1.7-3.9 1.7zm-21.5-11.5c5 .5 10.2.9 15.4 1.2l-26.6-136.1c-2.6-13.1-12.6-23.8-25.5-27.1l-73.2-19.3c-2.2.3-4.3 2.5-5.3 5.6s-.9 7.2 2.1 9.9l69.9 18.3c9.2 2.4 16.4 10 18.2 19.4z" fill="#4d2419"/></g><g id="XMLID_382_"><path id="XMLID_3406_" d="m451 162c-1 0-2-.3-2.8-.9l-164-112c-1.8-1.2-2.6-3.5-2-5.6s2.6-3.5 4.8-3.5h124c2.1 0 4 1.3 4.7 3.3l40 112c.7 2 .1 4.3-1.7 5.6-.8.8-1.9 1.1-3 1.1zm-147.8-112 137.9 94.2-33.6-94.2z" fill="#4d2419"/></g><g id="XMLID_85_"><path id="XMLID_3403_" d="m401.9 128.5c-1 0-2-.3-2.8-.9l-65.9-45c-1.5-1-2.3-2.8-2.2-4.6.2-1.8 1.3-3.4 2.9-4.1l75-33.5c1.6-.7 3.5-.5 5 .5 1.4 1.1 2.2 2.8 2 4.6l-9.1 78.5c-.2 1.7-1.3 3.2-2.9 4-.6.3-1.3.5-2 .5zm-55.7-49.1 51.7 35.3 7.1-61.5z" fill="#4d2419"/></g><g id="XMLID_175_"><path id="XMLID_3402_" d="m286.7 202.3c-1.8 0-3.5-1-4.4-2.6-.9-1.7-.8-3.8.4-5.4l74.6-101.6 8.1 5.9-68.2 92.8c4.6-.4 9.1-.9 13.5-1.4l63.2-86 8.1 5.9-64.5 87.7c-.8 1.1-2 1.8-3.4 2-8.7 1.1-17.7 2-27 2.6-.2.1-.3.1-.4.1z" fill="#4d2419"/></g><g id="XMLID_176_"><path id="XMLID_2323_" d="m287.1 246.5h72.1v10h-72.1z" fill="#4d2419" transform="matrix(.169 .986 -.986 .169 516.412 -109.45)"/></g><g id="XMLID_177_"><path id="XMLID_2322_" d="m186.8 194.2h10v93.8h-10z" fill="#4d2419" transform="matrix(.981 .193 -.193 .981 50.015 -32.429)"/></g></g></g></svg>