<svg clip-rule="evenodd" fill-rule="evenodd" height="512" stroke-linejoin="round" stroke-miterlimit="2" viewBox="0 0 512 512" width="512" xmlns="http://www.w3.org/2000/svg"><g><g><path d="m354.458 167.353s.972 12.014.972 18.144c0 92.57-75.155 167.725-167.725 167.725s-167.725-75.155-167.725-167.725c0-8.168 1.716-24.056 1.716-24.056z" fill="#e8ae74"/><path d="m331.597 166.947 22.861.406s.972 12.014.972 18.144c0 92.57-75.155 167.725-167.725 167.725-52.321 0-99.078-24.009-129.827-61.6 28.918 23.689 65.875 37.897 106.125 37.897 90.848 0 164.923-72.385 167.594-162.572z" fill="#daa066"/><ellipse cx="187.705" cy="161.441" fill="#ffe3c6" rx="167.725" ry="57.467"/><path d="m284.407 114.513c42.957 10.391 71.023 27.545 71.023 46.928 0 31.717-75.155 57.467-167.725 57.467-49.608 0-94.215-7.395-124.927-19.151 27.334 6.645 60.701 10.54 96.701 10.54 92.57 0 167.725-25.75 167.725-57.467 0-14.72-16.188-28.155-42.797-38.317z" fill="#f4d5b7"/><ellipse cx="187.705" cy="161.441" fill="#ffefe0" rx="122.09" ry="26.785"/><path d="m286.441 145.739c14.692 4.378 23.354 9.82 23.354 15.702 0 14.783-54.707 26.785-122.09 26.785s-122.09-12.002-122.09-26.785c0-1.351.457-2.679 1.347-3.972 22.189 6.732 58.165 11.083 98.736 11.083 61.225 0 111.984-9.908 120.743-22.813z" fill="#f2e5da"/><path d="m82.348 244.932c6.612-4.824 21.89 4.84 34.095 21.569 12.206 16.728 16.747 34.226 10.134 39.051-6.612 4.824-21.89-4.84-34.095-21.569-12.205-16.728-16.746-34.226-10.134-39.051z" fill="#ffcea0"/><g fill="#8d4ba0"><path d="m12.987 168.726c-.471 5.369-.98 12.225-.98 16.771 0 96.97 78.727 175.698 175.698 175.698 96.97 0 175.698-78.728 175.698-175.698 0-4.948-.606-13.6-.874-17.173.582-2.282.874-4.58.874-6.883 0-11.722-7.567-23.312-22.311-33.053-28.767-19.004-86.641-32.388-153.387-32.388s-124.62 13.384-153.387 32.388c-14.745 9.741-22.311 21.331-22.311 33.053 0 2.439.327 4.873.98 7.285zm334.41 21.137c-1.929 1.583-4.032 3.129-6.305 4.631-28.767 19.004-86.641 32.388-153.387 32.388s-124.62-13.384-153.387-32.388c-2.274-1.502-4.377-3.048-6.306-4.631 2.323 86.16 72.987 155.385 159.693 155.385s157.37-69.225 159.692-155.385zm-159.692-77.916c54.145 0 102.206 8.879 131.97 22.787 9.155 4.278 16.489 8.975 21.482 14.11 3.895 4.005 6.299 8.145 6.299 12.597 0 4.451-2.404 8.592-6.299 12.597-4.993 5.134-12.327 9.832-21.482 14.11-29.764 13.908-77.825 22.787-131.97 22.787s-102.207-8.879-131.97-22.787c-9.155-4.278-16.489-8.976-21.482-14.11-3.895-4.005-6.299-8.146-6.299-12.597 0-4.452 2.404-8.592 6.299-12.597 4.993-5.135 12.327-9.832 21.482-14.11 29.763-13.908 77.825-22.787 131.97-22.787z"/><path d="m187.705 126.682c-48.532 0-90.644 6.263-111.56 15.111-6.584 2.785-11.339 5.972-14.178 9.142-3.012 3.363-4.325 6.951-4.325 10.506s1.313 7.143 4.325 10.505c2.839 3.171 7.594 6.358 14.178 9.143 20.916 8.848 63.028 15.11 111.56 15.11 48.531 0 90.644-6.262 111.56-15.11 6.584-2.785 11.339-5.972 14.178-9.143 3.012-3.362 4.325-6.95 4.325-10.505s-1.313-7.143-4.325-10.506c-2.839-3.17-7.594-6.357-14.178-9.142-20.916-8.848-63.029-15.111-111.56-15.111zm113.651 34.759c-.384.397-.902.9-1.358 1.235-1.78 1.309-4.126 2.534-6.946 3.726-19.741 8.351-59.542 13.85-105.347 13.85s-85.606-5.499-105.348-13.85c-2.819-1.192-5.166-2.417-6.945-3.726-.456-.335-.974-.838-1.358-1.235.384-.398.902-.901 1.358-1.236 1.779-1.309 4.126-2.533 6.945-3.726 19.742-8.35 59.543-13.85 105.348-13.85s85.606 5.5 105.347 13.85c2.82 1.193 5.166 2.417 6.946 3.726.456.335.974.838 1.358 1.236z"/></g></g><g><path d="m484.521 271.36s.972 12.014.972 18.144c0 92.57-75.155 167.725-167.725 167.725s-167.725-75.155-167.725-167.725c0-8.167 1.716-24.056 1.716-24.056z" fill="#e8ae74"/><path d="m461.66 270.954 22.861.406s.972 12.014.972 18.144c0 92.57-75.155 167.725-167.725 167.725-52.32 0-99.078-24.008-129.827-61.6 28.918 23.689 65.875 37.898 106.125 37.898 90.848 0 164.923-72.386 167.594-162.573z" fill="#daa066"/><ellipse cx="317.768" cy="265.448" fill="#ffe3c6" rx="167.725" ry="57.467"/><path d="m414.47 218.52c42.957 10.392 71.023 27.546 71.023 46.928 0 31.717-75.155 57.467-167.725 57.467-49.608 0-94.215-7.395-124.927-19.151 27.334 6.646 60.701 10.54 96.701 10.54 92.57 0 167.725-25.75 167.725-57.467 0-14.72-16.188-28.155-42.797-38.317z" fill="#f4d5b7"/><ellipse cx="317.768" cy="265.448" fill="#ffefe0" rx="122.09" ry="26.785"/><path d="m416.504 249.746c14.692 4.378 23.354 9.82 23.354 15.702 0 14.783-54.707 26.785-122.09 26.785s-122.09-12.002-122.09-26.785c0-1.351.457-2.679 1.347-3.972 22.189 6.732 58.165 11.083 98.737 11.083 61.224 0 111.983-9.908 120.742-22.813z" fill="#f2e5da"/><path d="m212.411 348.939c6.612-4.824 21.89 4.84 34.095 21.569 12.206 16.728 16.747 34.226 10.134 39.051-6.612 4.824-21.889-4.84-34.095-21.569-12.205-16.728-16.746-34.226-10.134-39.051z" fill="#ffcea0"/><g fill="#8d4ba0"><path d="m143.05 272.733c-.471 5.369-.98 12.225-.98 16.771 0 96.971 78.728 175.698 175.698 175.698 96.971 0 175.698-78.727 175.698-175.698 0-4.948-.606-13.599-.874-17.173.582-2.281.874-4.58.874-6.883 0-11.722-7.566-23.312-22.311-33.053-28.767-19.004-86.641-32.388-153.387-32.388s-124.62 13.384-153.387 32.388c-14.744 9.741-22.311 21.331-22.311 33.053 0 2.439.328 4.873.98 7.285zm334.411 21.137c-1.929 1.583-4.032 3.129-6.306 4.631-28.767 19.004-86.641 32.388-153.387 32.388s-124.62-13.384-153.387-32.388c-2.273-1.502-4.376-3.048-6.305-4.631 2.322 86.16 72.987 155.385 159.692 155.385 86.706 0 157.37-69.225 159.693-155.385zm-159.693-77.916c54.146 0 102.207 8.879 131.97 22.787 9.155 4.278 16.489 8.975 21.482 14.11 3.895 4.005 6.299 8.146 6.299 12.597s-2.404 8.592-6.299 12.597c-4.993 5.135-12.327 9.832-21.482 14.11-29.763 13.908-77.824 22.787-131.97 22.787-54.145 0-102.206-8.879-131.97-22.787-9.155-4.278-16.489-8.975-21.482-14.11-3.895-4.005-6.299-8.146-6.299-12.597s2.404-8.592 6.299-12.597c4.993-5.135 12.327-9.832 21.482-14.11 29.764-13.908 77.825-22.787 131.97-22.787z"/><path d="m317.768 230.69c-48.531 0-90.644 6.262-111.56 15.11-6.584 2.785-11.339 5.972-14.178 9.142-3.012 3.363-4.325 6.951-4.325 10.506s1.313 7.143 4.325 10.506c2.839 3.17 7.594 6.357 14.178 9.142 20.916 8.848 63.029 15.11 111.56 15.11 48.532 0 90.644-6.262 111.56-15.11 6.584-2.785 11.339-5.972 14.178-9.142 3.012-3.363 4.325-6.951 4.325-10.506s-1.313-7.143-4.325-10.506c-2.839-3.17-7.594-6.357-14.178-9.142-20.916-8.848-63.028-15.11-111.56-15.11zm113.651 34.758c-.384.398-.902.9-1.358 1.236-1.779 1.308-4.126 2.533-6.945 3.725-19.742 8.351-59.543 13.851-105.348 13.851s-85.606-5.5-105.347-13.851c-2.82-1.192-5.166-2.417-6.946-3.725-.456-.336-.974-.838-1.358-1.236.384-.398.902-.9 1.358-1.236 1.78-1.308 4.126-2.533 6.946-3.725 19.741-8.351 59.542-13.851 105.347-13.851s85.606 5.5 105.348 13.851c2.819 1.192 5.166 2.417 6.945 3.725.456.336.974.838 1.358 1.236z"/></g></g></g></svg>