<svg height="512" viewBox="0 0 48 48" width="512" xmlns="http://www.w3.org/2000/svg"><g id="Line"><path d="m40.989 6.854c-.072-.49-.493-.854-.989-.854h-32c-.496 0-.917.364-.989.854l-5 34c-.099.583.395 1.161.989 1.146h42c.291 0 .566-.126.757-.346.189-.22.274-.512.232-.799z" fill="#997e6c"/><g><path d="m16 42c-.552 0-1-.448-1-1v-34c0-.552.448-1 1-1s1 .448 1 1v34c0 .552-.448 1-1 1z" fill="#b18f78"/></g><g><path d="m32 42c-.553 0-1-.448-1-1v-34c0-.552.447-1 1-1s1 .448 1 1v34c0 .552-.447 1-1 1z" fill="#b18f78"/></g><g><path d="m28 31h-8c-1.305-.005-1.31-1.994 0-2h8c1.305.005 1.31 1.994 0 2z" fill="#b18f78"/></g><g fill="#7f6654"><path d="m8 8h32c.553 0 1-.448 1-1v-4c0-.552-.447-1-1-1h-32c-.552 0-1 .448-1 1v4c0 .552.448 1 1 1z"/><path d="m45.788 40.385c-.189-.243-.48-.385-.788-.385h-42c-.629-.016-1.14.634-.97 1.243 0 0 1 4 1 4 .111.445.511.757.97.757h40c.459 0 .858-.313.97-.757l1-4c.075-.299.008-.616-.182-.858z"/></g><path d="m28.028 22.178c-.318 2.51-2.91 4.92-5.47 4.89-2.243.069-3.911-1.962-3.51-4.18.277-2.299 2.551-4.564 4.85-4.84 2.477-.445 4.571 1.647 4.13 4.13z" fill="#7f6654"/><g><path d="m27.668 19.818-6.84 6.85c-.603-.3-1.117-.809-1.42-1.41 0 0 6.85-6.86 6.85-6.86.6.314 1.111.812 1.41 1.42z" fill="#997e6c"/></g><path d="m2.029 41.2c0 .018-.002.034.003.052l.998 3.991c.111.445.511.757.97.757h40c.459 0 .858-.313.97-.757.003-.011.998-3.99 1-4 .013-.126.044-.254.02-.388 0 0-4.989-33.927-4.989-33.927v-3.928c0-.552-.447-1-1-1h-32.001c-.552 0-1 .448-1 1v3.928l-4.989 33.926c-.018.119-.005.235.018.346zm6.835-33.2h6.136v32h-10.842zm22.136 0v32h-14v-32zm8.136 0 4.706 32h-10.842v-32zm4.083 36h-38.438l-.5-2h39.438zm-34.219-40h30v2h-30z"/><path d="m22.538 27.062c3.791.168 7.328-5.299 4.533-8.061-1.56-1.559-4.414-1.243-6.364.707-2.815 2.681-2.019 7.345 1.831 7.354zm2.412-3.112c-.765.764-1.733 1.153-2.524 1.109l3.634-3.634c.044.792-.345 1.76-1.11 2.525zm-2.828-2.828c.766-.744 1.696-1.182 2.52-1.105 0 0-3.63 3.63-3.63 3.63-.045-.792.345-1.76 1.11-2.525z"/><path d="m20 29c-1.305.005-1.31 1.994 0 2h8c1.305-.005 1.31-1.994 0-2z"/></g></svg>