<svg height="512" viewBox="0 0 48 48" width="512" xmlns="http://www.w3.org/2000/svg"><g id="Line"><g fill="#f2f2f2"><path d="m36.851 2.474c-.183-.294-.504-.474-.851-.474h-20c-.347 0-.668.18-.851.474-.182.295-.199.663-.044.973l6 12c.17.339.516.553.895.553h8c.379 0 .725-.214.895-.553l6-12c.155-.31.138-.678-.044-.973z"/><path d="m28 18h-4c-.631-.016-1.139.634-.97 1.243 0 0 1 4 1 4 .111.445.511.757.97.757h2c.459 0 .858-.313.97-.757l1-4c.169-.608-.339-1.259-.97-1.243z"/></g><path d="m31 31h-10c-.552 0-1 .448-1 1h-.935c-1.856-.05-3.424 1.776-3.004 3.594.441 2.252 2.673 3.631 4.939 3.406.942 1.159 2.349 2.018 4 2h2c2.757 0 5-2.243 5-5v-4c0-.552-.447-1-1-1zm-12.979 4.189c-.098-.763.411-1.152 1.045-1.189h.935c.015.689-.062 2.327.099 2.981-1.021-.095-1.878-.814-2.079-1.792z" fill="#f2f2f2"/><g fill="#7f6654"><path d="m41 40h-38c-.552 0-1 .448-1 1v4c0 .552.448 1 1 1h38c.553 0 1-.448 1-1v-4c0-.552-.447-1-1-1z"/><path d="m41 14h-30c-3.946.1-3.964 5.895 0 6h30c.553 0 1-.448 1-1v-4c0-.552-.447-1-1-1z"/></g><path d="m45 12h-4c-.553 0-1 .448-1 1v32c0 .552.447 1 1 1h4c.553 0 1-.448 1-1v-32c0-.552-.447-1-1-1z" fill="#997e6c"/><path d="m45 12h-4c-.553 0-1 .448-1 1v1h-8.382l5.276-10.553c.341-.63-.173-1.471-.894-1.447h-20c-.719-.018-1.237.81-.895 1.447 0 0 5.276 10.553 5.276 10.553h-9.381c-1.654 0-3 1.346-3 3s1.346 3 3 3h12.219l.811 3.243c.111.445.511.757.97.757h2c.459 0 .858-.313.97-.757l.81-3.243h11.22v20h-10.031c1.225-.912 2.031-2.359 2.031-4v-4c0-.552-.447-1-1-1h-10c-.552 0-1 .448-1 1h-.935c-5.106.494-3.163 7.109 1.259 7h.675c.316.323.632.732 1.031 1h-19.03c-.552 0-1 .448-1 1v4c0 .552.448 1 1 1h38 4c.553 0 1-.448 1-1v-32c0-.552-.447-1-1-1zm-26.979 23.189c-.098-.763.411-1.152 1.045-1.189h.935c.015.689-.062 2.327.099 2.981-1.021-.095-1.878-.814-2.079-1.792zm3.979-2.189h8v3c0 1.654-1.346 3-3 3h-2c-1.654 0-3-1.346-3-3zm-4.382-29h16.764l-5 10h-6.764zm8.601 18h-.438l-.5-2h1.438zm-15.219-4c-1.306-.021-1.321-1.976 0-2h29v2zm-7 24h36v2h-36zm40 2h-2v-3c0-3.761 0-23.673 0-27h2z"/></g></svg>