<svg id="Layer_1" viewBox="0 0 1000 1000" xmlns="http://www.w3.org/2000/svg" data-name="Layer 1"><path d="m629 327.84c-2.51 3.06-14.31 13.86-60.6 23.85-40.46 8.72-93.1 13.53-148.21 13.53s-107.76-4.81-148.19-13.53c-46.29-10-58.09-20.79-60.6-23.85 2.51-3 14.3-13.86 60.6-23.84 40.46-8.72 93.1-13.53 148.22-13.53s107.72 4.81 148.18 13.53c46.3 10 58.09 20.79 60.6 23.84z" fill="#bdbdbd"/><path d="m789.1 502.27v128.94c0 73.79-55.94 134.79-127.63 142.79v-33.86a110.25 110.25 0 0 0 94.09-108.93v-128.94a37.91 37.91 0 0 0 -37.87-37.87h-56.22v-33.53h56.22a71.49 71.49 0 0 1 71.41 71.4z" fill="#bdbdbd"/><path d="m583.17 381.15c-43.72 10.36-101.6 16.07-163 16.07s-119.27-5.71-163-16.07q-28.33-6.72-46.3-15.38v471.07a31 31 0 0 0 25.51 30.41 1021.23 1021.23 0 0 0 367.56 0 31 31 0 0 0 25.5-30.41v-471.07q-17.95 8.69-46.27 15.38zm-15.25 226.13c-10.33 38-34.59 77.48-68.31 111.19a296.85 296.85 0 0 1 -54 42.93c-18.84 11.57-38.2 20.22-57.2 25.38a145.3 145.3 0 0 1 -37.94 5.43c-24.59 0-45.45-7.74-60.58-22.88-22.42-22.42-28.62-57.41-17.44-98.52 10.32-38 34.58-77.47 68.3-111.19s73.21-58 111.19-68.3c41.11-11.18 76.1-5 98.52 17.44s28.63 57.41 17.46 98.52z" fill="#0277bd"/><path d="m537 598.89c-4.44 16.35-12 33.13-22.17 49.55a264.88 264.88 0 0 1 -37.83 47.41c-53.93 53.92-122.33 77.91-156.7 56.94 2.11-.46 4.25-.9 6.41-1.35 21-4.34 44.78-9.25 72.35-36.82s32.47-51.35 36.81-72.34c3.92-19 7.3-35.39 28.1-56.19s37.19-24.17 56.17-28.09c6.33-1.31 12.77-2.64 19.47-4.6 2.97 12.6 2.16 28.09-2.61 45.49z" fill="#6d4c41"/><path d="m520.08 525.31c-2.11.46-4.25.9-6.41 1.35-21 4.33-44.78 9.24-72.34 36.8s-32.48 51.36-36.81 72.35c-3.92 19-7.31 35.4-28.1 56.19s-37.19 24.18-56.18 28.1c-6.35 1.3-12.81 2.64-19.54 4.61-8.82-36.85 15.44-95.22 62.68-142.46 40.82-40.82 89.94-64.48 126.31-64.48 11.68 0 22.03 2.44 30.39 7.54z" fill="#6d4c41"/><g fill="#fff" opacity=".5"><path d="m619 337.84c-2.51 3.06-14.31 13.86-60.6 23.85-40.46 8.72-93.1 13.53-148.21 13.53s-107.76-4.81-148.19-13.53c-46.29-10-58.09-20.79-60.6-23.85 2.51-3 14.3-13.86 60.6-23.84 40.46-8.72 93.1-13.53 148.22-13.53s107.72 4.81 148.18 13.53c46.3 10 58.09 20.79 60.6 23.84z"/><path d="m779.1 512.27v128.94c0 73.79-55.94 134.79-127.63 142.79v-33.86a110.25 110.25 0 0 0 94.09-108.93v-128.94a37.91 37.91 0 0 0 -37.87-37.87h-56.22v-33.53h56.22a71.49 71.49 0 0 1 71.41 71.4z"/><path d="m573.17 391.15c-43.72 10.36-101.6 16.07-163 16.07s-119.27-5.71-163-16.07q-28.33-6.72-46.3-15.38v471.07a31 31 0 0 0 25.51 30.41 1021.23 1021.23 0 0 0 367.56 0 31 31 0 0 0 25.5-30.41v-471.07q-17.95 8.69-46.27 15.38zm-15.25 226.13c-10.33 38-34.59 77.48-68.31 111.19a296.85 296.85 0 0 1 -54 42.93c-18.84 11.57-38.2 20.22-57.2 25.38a145.3 145.3 0 0 1 -37.94 5.43c-24.59 0-45.45-7.74-60.58-22.88-22.42-22.42-28.62-57.41-17.44-98.52 10.32-38 34.58-77.47 68.3-111.19s73.21-58 111.19-68.3c41.11-11.18 76.1-5 98.52 17.44s28.63 57.41 17.46 98.52z"/><path d="m527 608.89c-4.44 16.35-12 33.13-22.17 49.55a264.88 264.88 0 0 1 -37.83 47.41c-53.93 53.92-122.33 77.91-156.7 56.94 2.11-.46 4.25-.9 6.41-1.35 21-4.34 44.78-9.25 72.35-36.82s32.47-51.35 36.81-72.34c3.92-19 7.3-35.39 28.1-56.19s37.19-24.17 56.17-28.09c6.33-1.31 12.77-2.64 19.47-4.6 2.97 12.6 2.16 28.09-2.61 45.49z"/><path d="m510.08 535.31c-2.11.46-4.25.9-6.41 1.35-21 4.33-44.78 9.24-72.34 36.8s-32.48 51.36-36.81 72.35c-3.92 19-7.31 35.4-28.1 56.19s-37.19 24.18-56.18 28.1c-6.35 1.3-12.81 2.64-19.54 4.61-8.82-36.85 15.44-95.22 62.68-142.46 40.82-40.82 89.94-64.48 126.31-64.48 11.68 0 22.03 2.44 30.39 7.54z"/></g><g fill="#413b32"><path d="m661.45 327c-.59-23-26.21-40.15-78.28-52.49-43.72-10.35-101.6-16.06-163-16.06s-119.27 5.71-163 16.06c-52.04 12.36-77.66 29.49-78.25 52.49v.82c0 15 10.54 27.55 32 37.92q18 8.69 46.3 15.38c43.72 10.36 101.6 16.07 163 16.07s119.26-5.71 163-16.07q28.35-6.72 46.3-15.38c21.46-10.37 32-22.92 32-37.92-.05-.26-.06-.53-.07-.82zm-93.05 24.69c-40.46 8.72-93.1 13.53-148.21 13.53s-107.76-4.81-148.19-13.53c-46.29-10-58.09-20.79-60.6-23.85 2.51-3 14.3-13.86 60.6-23.84 40.46-8.72 93.1-13.53 148.22-13.53s107.72 4.81 148.18 13.53c46.3 10 58.09 20.79 60.6 23.84-2.51 3.06-14.31 13.86-60.6 23.85z"/><path d="m661.47 327.84v509a62.94 62.94 0 0 1 -51.77 61.89 1056 1056 0 0 1 -189.51 17.19 1056 1056 0 0 1 -189.52-17.19 62.94 62.94 0 0 1 -51.77-61.89v-509c0-.28 0-.55 0-.82a16 16 0 0 1 32 .83v509a31 31 0 0 0 25.51 30.41 1021.23 1021.23 0 0 0 367.56 0 31 31 0 0 0 25.5-30.41v-509a16 16 0 0 1 32-.83c-.01.27 0 .54 0 .82z"/><path d="m717.69 398.87h-72.22a16 16 0 0 0 -16 16v65.53a16 16 0 0 0 16 16h72.22a5.88 5.88 0 0 1 5.87 5.87v128.94a78.05 78.05 0 0 1 -78.09 78.09 16 16 0 0 0 -16 16v65.54a16 16 0 0 0 16 16q8.09 0 16-.73c89.37-8.1 159.63-83.45 159.63-174.9v-128.94a103.52 103.52 0 0 0 -103.41-103.4zm71.41 232.34c0 73.79-55.94 134.79-127.63 142.79v-33.86a110.25 110.25 0 0 0 94.09-108.93v-128.94a37.91 37.91 0 0 0 -37.87-37.87h-56.22v-33.53h56.22a71.49 71.49 0 0 1 71.41 71.4z"/><path d="m550.47 508.76c-22.42-22.42-57.41-28.62-98.52-17.44-38 10.32-77.47 34.58-111.19 68.3s-58 73.21-68.3 111.19c-11.18 41.11-5 76.1 17.44 98.52 15.13 15.14 36 22.88 60.58 22.88a145.3 145.3 0 0 0 37.94-5.43c19-5.16 38.36-13.81 57.2-25.38a296.85 296.85 0 0 0 54-42.93c33.72-33.71 58-73.2 68.31-111.19 11.16-41.11 4.97-76.1-17.46-98.52zm-13.47 90.13c-4.44 16.35-12 33.13-22.17 49.55a264.88 264.88 0 0 1 -37.83 47.41c-53.93 53.92-122.33 77.91-156.7 56.94a41.14 41.14 0 0 1 -7.76-6.08 45.4 45.4 0 0 1 -11.83-22c-8.82-36.85 15.44-95.22 62.68-142.46 40.82-40.82 89.94-64.48 126.31-64.48 11.68 0 22 2.44 30.39 7.54a40.74 40.74 0 0 1 7.76 6.08c5.75 5.75 9.68 13.18 11.75 22 2.98 12.61 2.17 28.1-2.6 45.5z"/><path d="m555.43 547.59a116.87 116.87 0 0 1 -15.83 5.81c-6.7 2-13.14 3.29-19.47 4.6-19 3.92-35.38 7.3-56.17 28.09s-24.18 37.2-28.1 56.19c-4.34 21-9.24 44.78-36.81 72.34s-51.36 32.48-72.35 36.82c-2.16.45-4.3.89-6.41 1.35a108.2 108.2 0 0 0 -22.15 6.86 16 16 0 1 1 -13.2-29.15 118.64 118.64 0 0 1 15.76-5.79c6.73-2 13.19-3.31 19.54-4.61 19-3.92 35.39-7.31 56.18-28.1s24.18-37.19 28.1-56.19c4.33-21 9.24-44.78 36.81-72.35s51.35-32.47 72.34-36.8c2.16-.45 4.3-.89 6.41-1.35a109.25 109.25 0 0 0 22.15-6.87 16 16 0 0 1 13.19 29.15z"/><path d="m273.07 246.8a16 16 0 0 1 -16-16c0-17.54 9.4-26.92 15.62-33.13 5.2-5.19 6.22-6.55 6.22-10.47s-1-5.28-6.22-10.48c-6.22-6.21-15.62-15.59-15.62-33.12s9.4-26.92 15.62-33.13c5.2-5.19 6.22-6.55 6.22-10.47a16 16 0 0 1 32 0c0 17.54-9.4 26.92-15.62 33.12-5.21 5.2-6.22 6.56-6.22 10.48s1 5.28 6.22 10.47c6.22 6.21 15.62 15.59 15.62 33.13s-9.4 26.92-15.62 33.12c-5.2 5.2-6.22 6.56-6.22 10.48a16 16 0 0 1 -16 16z"/><path d="m363.86 246.8a16 16 0 0 1 -16-16c0-17.54 9.4-26.92 15.62-33.13 5.21-5.19 6.23-6.55 6.23-10.47s-1-5.28-6.23-10.48c-6.22-6.21-15.62-15.59-15.62-33.12s9.4-26.92 15.62-33.13c5.21-5.19 6.23-6.55 6.23-10.47a16 16 0 0 1 32 0c0 17.54-9.4 26.92-15.62 33.12-5.21 5.2-6.23 6.56-6.23 10.48s1 5.28 6.23 10.47c6.22 6.21 15.62 15.59 15.62 33.13s-9.4 26.92-15.62 33.12c-5.21 5.2-6.23 6.56-6.23 10.48a16 16 0 0 1 -16 16z"/><path d="m454.66 246.8a16 16 0 0 1 -16-16c0-17.54 9.4-26.92 15.62-33.13 5.21-5.19 6.23-6.55 6.23-10.47s-1-5.28-6.23-10.48c-6.22-6.21-15.62-15.59-15.62-33.12s9.4-26.92 15.62-33.13c5.21-5.19 6.23-6.55 6.23-10.47a16 16 0 0 1 32 0c0 17.54-9.4 26.92-15.62 33.12-5.21 5.2-6.23 6.56-6.23 10.48s1 5.28 6.23 10.47c6.22 6.21 15.62 15.59 15.62 33.13s-9.4 26.92-15.62 33.12c-5.21 5.2-6.23 6.56-6.23 10.48a16 16 0 0 1 -16 16z"/><path d="m545.46 246.8a16 16 0 0 1 -16-16c0-17.54 9.4-26.92 15.62-33.13 5.2-5.19 6.22-6.55 6.22-10.47s-1-5.28-6.22-10.48c-6.22-6.21-15.62-15.59-15.62-33.12s9.4-26.92 15.62-33.13c5.21-5.19 6.22-6.55 6.22-10.47a16 16 0 0 1 32 0c0 17.54-9.4 26.92-15.62 33.12-5.2 5.2-6.22 6.56-6.22 10.48s1 5.28 6.22 10.47c6.22 6.21 15.62 15.59 15.62 33.13s-9.4 26.92-15.62 33.12c-5.2 5.2-6.22 6.56-6.22 10.48a16 16 0 0 1 -16 16z"/></g></svg>