<svg height="512" viewBox="0 0 48 48" width="512" xmlns="http://www.w3.org/2000/svg"><g id="Line"><path d="m42 6h-36c-.553 0-1 .448-1 1v25c0 .265.105.52.293.707l13 13c.187.188.441.293.707.293h23c.553 0 1-.448 1-1v-38c0-.552-.447-1-1-1z" fill="#ffd267"/><path d="m45 2h-42c-.553 0-1 .448-1 1v4c0 .552.447 1 1 1h42c.553 0 1-.448 1-1v-4c0-.552-.447-1-1-1z" fill="#f8a358"/><path d="m19.975 44.775-3-13c-.105-.454-.509-.775-.975-.775h-11c-.493 0-.913.36-.988.848l-2 13c-.105.585.392 1.166.988 1.152h16c.623.015 1.131-.62.975-1.225z" fill="#997e6c"/><path d="m24 9c-8.146.03-13.764 7.071-13 15 0 .552.447 1 1 1h24c.553 0 1-.448 1-1 .764-7.928-4.854-14.971-13-15z" fill="#7f6654"/><g><path d="m14 37h-6c-.553 0-1-.448-1-1s.447-1 1-1h6c1.306.005 1.309 1.995 0 2z" fill="#b18f78"/></g><g><path d="m15 41h-8c-1.305-.005-1.31-1.994 0-2h8c1.305.005 1.31 1.994 0 2z" fill="#b18f78"/></g><path d="m38 23h-28c-.553 0-1 .448-1 1v4c0 .552.447 1 1 1h28c.553 0 1-.448 1-1v-4c0-.552-.447-1-1-1z" fill="#f8a358"/><path d="m29.028 35.11c-.318 2.51-2.91 4.92-5.47 4.89-2.243.069-3.911-1.962-3.51-4.18.277-2.299 2.551-4.564 4.85-4.84 2.477-.445 4.571 1.648 4.13 4.13z" fill="#997e6c"/><g><path d="m28.668 32.75-6.84 6.85c-.603-.3-1.117-.809-1.42-1.41 0 0 6.85-6.86 6.85-6.86.6.314 1.111.812 1.41 1.42z" fill="#7f6654"/></g><path d="m45 2h-42c-.553 0-1 .448-1 1v4c0 .552.447 1 1 1h2v23c-.493 0-.913.36-.988.848l-2 13c-.104.583.392 1.168.988 1.152h39c.553 0 1-.448 1-1v-37h2c.553 0 1-.448 1-1v-4c0-.552-.447-1-1-1zm-40.834 42 1.692-11h9.346l2.539 11zm36.834 0h-21.204l-2.821-12.225c-.105-.454-.509-.775-.975-.775h-9v-23h34zm3-38h-40v-2h40z"/><path d="m21.636 32.708c-4.638 4.981 1.069 10.127 5.657 5.657 4.558-4.774-.885-10.217-5.657-5.657zm1.414 1.414c.766-.744 1.696-1.182 2.52-1.105 0 0-3.63 3.63-3.63 3.63-.044-.792.345-1.76 1.11-2.525zm2.829 2.828c-.765.765-1.733 1.154-2.525 1.11l3.634-3.634c.044.791-.345 1.759-1.109 2.524z"/><path d="m10 29h28c.553 0 1-.448 1-1v-4c0-.552-.447-1-1-1h-1c.491-7.502-5.433-14.031-13-14-7.566-.03-13.491 6.498-13 14h-1c-.553 0-1 .448-1 1v4c0 .552.447 1 1 1zm3-7c.767-15.213 22.483-14.279 22 1h-22zm-2 3h26v2h-26z"/><path d="m8 37h6c.553 0 1-.448 1-1s-.447-1-1-1h-6c-1.306.005-1.309 1.995 0 2z"/><path d="m7 39c-1.305.005-1.31 1.994 0 2h8c1.305-.005 1.31-1.994 0-2z"/></g></svg>