<svg height="512" viewBox="0 0 48 48" width="512" xmlns="http://www.w3.org/2000/svg"><g id="Line"><path d="m10.87 36h26.26l-1.14 9.12c-.06.5-.49.88-.99.88h-22c-.5 0-.93-.38-.99-.88z" fill="#ffd267"/><path d="m39.99 13.12-.86 6.88h-30.26l-.86-6.88c-.09-.575.409-1.136.99-1.12h30c.58-.016 1.082.545.99 1.12z" fill="#ffd267"/><path d="m38.895 6.553-2-4c-.17-.339-.516-.553-.895-.553h-24c-.379 0-.725.214-.895.553l-2 4c-.338.634.173 1.469.895 1.447h28c.717.021 1.238-.813.895-1.447z" fill="#997e6c"/><path d="m40 6h-32c-.552 0-1 .447-1 1v6c0 .553.448 1 1 1h32c.553 0 1-.447 1-1v-6c0-.553-.447-1-1-1z" fill="#b18f78"/><g><path d="m39.13 20-2 16h-26.26l-2-16z" fill="#b18f78"/></g><path d="m28.492 27.644c-.318 2.51-2.91 4.92-5.47 4.89-2.243.069-3.911-1.962-3.51-4.18.277-2.299 2.551-4.564 4.85-4.84 2.477-.445 4.571 1.647 4.13 4.13z" fill="#997e6c"/><g><path d="m28.132 25.284-6.84 6.85c-.603-.3-1.117-.809-1.42-1.41 0 0 6.85-6.86 6.85-6.86.6.314 1.111.812 1.41 1.42z" fill="#7f6654"/></g><path d="m7 7v6c-.002.602.526 1.052 1.117 1 0 0 3.89 31.124 3.89 31.124.063.5.489.876.993.876h22c.504 0 .93-.376.992-.876.114-.008 3.697-31.35 4.008-31.124.553 0 1-.447 1-1v-6c-.053-1.298-1.514-.962-2.382-1 0 0-1.724-3.447-1.724-3.447-.169-.339-.515-.553-.894-.553h-24c-.379 0-.725.214-.895.553l-1.723 3.447h-1.382c-.552 0-1 .447-1 1zm28.367 27h-22.734l-1.5-12h25.734zm-1.25 10h-20.234l-1-8h22.234zm3-24h-26.234l-.75-6h27.735zm-24.499-16h22.764l1 2h-24.764zm-3.618 4h30v4h-30z"/><path d="m27.535 24.465c-3.849-3.62-10.691 3.221-7.071 7.07 3.881 3.622 10.677-3.228 7.071-7.07zm-6.045 4.177c.175-1.441 1.711-2.977 3.152-3.151.127-.018.317-.035.472-.018l-3.637 3.637c-.01-.178-.005-.344.013-.468zm5.02-1.284c-.174 1.441-1.711 2.977-3.151 3.151-.124.018-.291.023-.468.014l3.633-3.633c.008.178.003.344-.014.468z"/></g></svg>