<svg height="512" viewBox="0 0 512 512" width="512" xmlns="http://www.w3.org/2000/svg"><g id="_11_Coffee" data-name="11,Coffee"><path d="m413.4059 390.0222-11.2775 79.8551a41.63 41.63 0 0 1 -40.9978 36.1227h-210.2612a41.63 41.63 0 0 1 -40.9978-36.1227l-11.2775-79.8551a26.7891 26.7891 0 0 0 9.4652 1.7157h295.8814a26.7891 26.7891 0 0 0 9.4652-1.7157z" fill="#cfdce5"/><path d="m172.42 506h-21.55a41.6317 41.6317 0 0 1 -41-36.12l-11.28-79.86a26.7727 26.7727 0 0 0 9.47 1.72h12.02l11.73 79.22a41.0534 41.0534 0 0 0 40.61 35.04z" fill="#c2cace"/><path d="m447.58 148.1414-16.4143 116.1886a26.82 26.82 0 0 0 -16.7035-5.7889h-316.9244a26.82 26.82 0 0 0 -16.7035 5.7889l-16.4138-116.1886z" fill="#cfdce5"/><path d="m100.36 258.54h-2.82a26.8435 26.8435 0 0 0 -16.71 5.79l-16.41-116.19h19.6z" fill="#c2cace"/><path d="m441.5421 290.1166-10.5213 77.6234a27.6744 27.6744 0 0 1 -17.6149 22.2819 26.7891 26.7891 0 0 1 -9.4652 1.7157h-295.8814a26.7891 26.7891 0 0 1 -9.4652-1.7157 27.6744 27.6744 0 0 1 -17.6149-22.2819l-10.5213-77.6234a27.9448 27.9448 0 0 1 10.3764-25.7866 26.82 26.82 0 0 1 16.7035-5.7889h316.9244a26.82 26.82 0 0 1 16.7035 5.7889 27.9448 27.9448 0 0 1 10.3764 25.7866z" fill="#fcd8d8"/><path d="m120.08 391.74h-12.02a26.7727 26.7727 0 0 1 -9.47-1.72 27.6776 27.6776 0 0 1 -17.61-22.28l-10.52-77.62a27.9479 27.9479 0 0 1 10.37-25.79 26.8435 26.8435 0 0 1 16.71-5.79h2.82z" fill="#e2c3c3"/><path d="m478.6465 118.6412a29.661 29.661 0 0 1 -8.502 20.8611 28.6864 28.6864 0 0 1 -20.5146 8.6412h-387.2599a29.2662 29.2662 0 0 1 -29.0166-29.5023 29.636 29.636 0 0 1 8.502-20.85 28.6864 28.6864 0 0 1 20.5146-8.6412h387.26a29.2638 29.2638 0 0 1 29.0165 29.4912z" fill="#ffebb9"/><path d="m62.37 148.14a29.2692 29.2692 0 0 1 -29.02-29.5 29.642 29.642 0 0 1 8.51-20.85 28.6513 28.6513 0 0 1 20.51-8.64h4.67l16.96 58.85z" fill="#e5d2a8"/><path d="m445.8191 81.74a36.3188 36.3188 0 0 1 -.7663 7.41h-378.1056a36.3188 36.3188 0 0 1 -.7663-7.41 35.47 35.47 0 0 1 10.1591-24.9346 34.2916 34.2916 0 0 1 24.522-10.3254h310.276c19.158 0 34.6811 15.788 34.6811 35.26z" fill="#f5d367"/><path d="m358.8441 46.4817h-45.9516v-17.5059a22.9758 22.9758 0 0 1 22.9757-22.9758 22.9758 22.9758 0 0 1 22.9758 22.9758z" fill="#e9986b"/><path d="m361.13 511h-210.26c-22.95 0-42.7036-17.3789-45.9492-40.4258l-11.2772-79.8525a4.999 4.999 0 0 1 6.7128-5.3779 21.7989 21.7989 0 0 0 7.7032 1.3945h295.8804a21.7985 21.7985 0 0 0 7.7032-1.3945 4.999 4.999 0 0 1 6.7128 5.3779l-11.2773 79.8545c-3.2447 23.0449-22.9981 40.4238-45.9487 40.4238zm-256.5646-114.4512 10.2569 72.6289c2.5551 18.1423 18.0517 31.8223 36.0477 31.8223h210.26c17.9956 0 33.4922-13.68 36.0468-31.82l10.2574-72.6309a32.2155 32.2155 0 0 1 -3.4942.1895h-295.88a32.2155 32.2155 0 0 1 -3.4946-.1898z"/><path d="m80.83 269.33a5.0011 5.0011 0 0 1 -4.9507-4.3013l-5.55-39.33a5 5 0 1 1 9.9019-1.3974l4.5009 31.894a31.7957 31.7957 0 0 1 12.8079-2.6553h316.92a31.7875 31.7875 0 0 1 12.809 2.6558l14.5552-103.0558h-371.6489l2.7056 19.1607a5 5 0 1 1 -9.9014 1.3984l-3.51-24.86a5 5 0 0 1 4.9505-5.6991h383.16a5 5 0 0 1 4.9507 5.6993l-16.41 116.19a5 5 0 0 1 -8.0469 3.2266 21.7752 21.7752 0 0 0 -13.6138-4.7159h-316.92a21.7752 21.7752 0 0 0 -13.6137 4.7159 4.9967 4.9967 0 0 1 -3.0963 1.0741z"/><path d="m72.3037 209.0005a5.0011 5.0011 0 0 1 -4.9448-4.3023l-1.41-10a5 5 0 0 1 9.9024-1.3964l1.41 10a5.0006 5.0006 0 0 1 -4.2529 5.6494 5.0741 5.0741 0 0 1 -.7047.0493z"/><path d="m403.94 396.7383h-295.88a31.7434 31.7434 0 0 1 -11.2276-2.0371 32.6268 32.6268 0 0 1 -20.8085-26.2912l-10.52-77.6221a33.1063 33.1063 0 0 1 12.2422-30.39 31.6492 31.6492 0 0 1 19.792-6.8569h316.9243a31.6574 31.6574 0 0 1 19.8008 6.8638 33.1023 33.1023 0 0 1 12.2334 30.3838l-10.521 77.6235a32.6287 32.6287 0 0 1 -20.815 26.2925 31.7351 31.7351 0 0 1 -11.2206 2.0337zm-306.4024-133.1973a21.751 21.751 0 0 0 -13.6055 4.7134 23.0728 23.0728 0 0 0 -8.52 21.19l10.521 77.624a22.6465 22.6465 0 0 0 14.4155 18.272 21.8041 21.8041 0 0 0 7.71 1.3975h295.8814a21.7771 21.7771 0 0 0 7.7032-1.3955 22.6458 22.6458 0 0 0 14.4227-18.2724l10.5215-77.625a23.0687 23.0687 0 0 0 -8.5107-21.1836 21.76 21.76 0 0 0 -13.6143-4.72z"/><path d="m449.63 153.1436h-387.26c-18.7568 0-34.0166-15.4776-34.0166-34.5025a34.5139 34.5139 0 0 1 9.9376-24.3569 33.5574 33.5574 0 0 1 24.079-10.1348h387.26c18.7568 0 34.0166 15.4732 34.0166 34.4917a34.5265 34.5265 0 0 1 -9.9375 24.3677 33.5578 33.5578 0 0 1 -24.0791 10.1348zm-387.26-58.9942a23.6307 23.6307 0 0 0 -16.9507 7.148 24.57 24.57 0 0 0 -7.0659 17.3437 24.2907 24.2907 0 0 0 24.0166 24.5025h387.26a23.6307 23.6307 0 0 0 16.9507-7.148 24.5836 24.5836 0 0 0 7.0659-17.3545 24.2851 24.2851 0 0 0 -24.0166-24.4917z"/><path d="m445.0527 94.1494h-378.1054a4.9994 4.9994 0 0 1 -4.8951-3.9814 41.4735 41.4735 0 0 1 -.8715-8.4283 40.3322 40.3322 0 0 1 11.5922-28.4379 39.1394 39.1394 0 0 1 28.0889-11.8218h310.2764c21.88 0 39.6811 18.0605 39.6811 40.26a41.4735 41.4735 0 0 1 -.8715 8.4283 4.9994 4.9994 0 0 1 -4.8951 3.9811zm-373.7778-10h369.45q.0938-1.2063.0942-2.41c0-16.685-13.3149-30.26-29.6811-30.26h-310.2762a29.2129 29.2129 0 0 0 -20.958 8.832 30.3892 30.3892 0 0 0 -8.7231 21.4286q0 1.2017.0942 2.4094z"/><path d="m358.8442 51.4819h-45.9516a5 5 0 0 1 -5-5v-17.5063a27.9758 27.9758 0 0 1 55.9516 0v17.5063a5 5 0 0 1 -5 5zm-40.9516-10h35.9516v-12.5063a17.9758 17.9758 0 0 0 -35.9516 0z"/></g></svg>