<svg id="Layer_1" enable-background="new 0 0 64 64" viewBox="0 0 64 64" xmlns="http://www.w3.org/2000/svg"><g><g><path d="m16.73 27.18v19.89c0 1.39 1.13 2.52 2.52 2.52h33.15c1.31 0 2.37 1.06 2.37 2.37v2.64c0 1.31-1.06 2.37-2.37 2.37h-46.14c-1.31 0-2.37-1.06-2.37-2.37v-40.42c0-1.31 1.06-2.37 2.37-2.37h46.14c1.31 0 2.37 1.06 2.37 2.37v8.09c0 1.31-1.06 2.37-2.37 2.37h-33.15c-1.39.02-2.52 1.15-2.52 2.54z" fill="#ff8f83"/></g><g><path d="m41.49 24.66h-16.87v4.95c0 1.35 1.1 2.45 2.45 2.45h11.98c1.35 0 2.45-1.1 2.45-2.45v-4.95z" fill="#ffeba8"/></g><g><path d="m51.32 27h9.54v3.73h-9.54z" fill="#ffeba8"/></g><g><path d="m33.33 40.86h-9.3s-.05 8.74 9.3 8.74 9.15-8.74 9.15-8.74z" fill="#ffa669"/></g><g><path d="m46.63 7.02h-35.04c-1.24 0-2.25 1.01-2.25 2.25v2.55h39.53v-2.55c.01-1.25-1-2.25-2.24-2.25z" fill="#ffa669"/></g><g><path d="m52.4 57.98h-46.14c-1.86 0-3.37-1.51-3.37-3.37v-40.43c0-1.86 1.51-3.37 3.37-3.37h46.14c1.86 0 3.37 1.51 3.37 3.37v8.09c0 1.86-1.51 3.37-3.37 3.37h-33.15c-.84 0-1.53.68-1.53 1.52v19.89c0 .84.68 1.52 1.53 1.52h33.15c1.86 0 3.37 1.51 3.37 3.37v2.64c0 1.89-1.51 3.4-3.37 3.4zm-46.14-45.16c-.75 0-1.37.61-1.37 1.37v40.43c0 .75.61 1.37 1.37 1.37h46.14c.76 0 1.37-.62 1.37-1.37v-2.64c0-.76-.62-1.37-1.37-1.37h-33.15c-1.94 0-3.53-1.58-3.53-3.52v-19.91c0-1.94 1.58-3.52 3.53-3.52h33.15c.76 0 1.37-.62 1.37-1.37v-8.09c0-.76-.62-1.37-1.37-1.37h-46.14z"/></g><g><path d="m19.25 25.66h-15.36c-.55 0-1-.45-1-1s.45-1 1-1h15.37c.55 0 1 .45 1 1-.01.55-.45 1-1.01 1z"/></g><g><path d="m39.05 33.05h-11.98c-1.9 0-3.45-1.55-3.45-3.45v-4.95c0-.55.45-1 1-1h16.87c.55 0 1 .45 1 1v4.95c0 1.9-1.55 3.45-3.44 3.45zm-13.43-7.39v3.95c0 .8.65 1.45 1.45 1.45h11.98c.8 0 1.45-.65 1.45-1.45v-3.95z"/></g><g><path d="m51.32 29.87h-9.82c-.55 0-1-.45-1-1s.45-1 1-1h9.82c.55 0 1 .45 1 1s-.45 1-1 1z"/></g><g><path d="m60.85 31.73h-9.54c-.55 0-1-.45-1-1v-3.73c0-.55.45-1 1-1h9.54c.55 0 1 .45 1 1v3.73c0 .55-.45 1-1 1zm-8.53-2h7.54v-1.73h-7.54z"/></g><g><path d="m33.33 50.6c-3.14 0-5.65-.92-7.46-2.74-2.83-2.85-2.84-6.84-2.84-7.01 0-.55.45-.99 1-.99h18.45c.54 0 .99.43 1 .98 0 .17.06 4.17-2.72 7.02-1.79 1.82-4.29 2.74-7.43 2.74zm-8.21-8.74c.12.77.38 1.88.97 2.96 1.35 2.51 3.79 3.78 7.24 3.78 2.58 0 4.59-.72 5.98-2.13 1.46-1.49 1.94-3.45 2.09-4.61z"/></g><g><path d="m39.98 48.21c-.53 0-.97-.41-1-.94-.03-.55.39-1.02.94-1.05.05 0 5.07-.36 5.49-2.81.07-.4-.04-.6-.15-.73-.53-.63-2.14-.81-2.78-.81h-.01c-.55 0-1-.44-1-.99s.44-1 .99-1.01c.3-.01 3.04.01 4.32 1.51.55.64.76 1.46.6 2.36-.7 4.05-7.08 4.45-7.35 4.47-.01 0-.03 0-.05 0z"/></g><g><path d="m48.88 12.82h-39.54c-.55 0-1-.45-1-1v-2.55c0-1.79 1.46-3.25 3.25-3.25h35.03c1.79 0 3.25 1.46 3.25 3.25v2.55c.01.55-.44 1-.99 1zm-38.54-2h37.53v-1.55c0-.69-.56-1.25-1.25-1.25h-35.03c-.69 0-1.25.56-1.25 1.25z"/></g><g><path d="m15.95 19.3h-4.38c-.55 0-1-.45-1-1s.45-1 1-1h4.38c.55 0 1 .45 1 1s-.45 1-1 1z"/></g><g><path d="m24.62 19.3h-4.38c-.55 0-1-.45-1-1s.45-1 1-1h4.38c.55 0 1 .45 1 1s-.45 1-1 1z"/></g></g></svg>