<svg clip-rule="evenodd" fill-rule="evenodd" height="1.707in" image-rendering="optimizeQuality" shape-rendering="geometricPrecision" text-rendering="geometricPrecision" viewBox="0 0 1.70666 1.70666" width="1.707in" xmlns="http://www.w3.org/2000/svg"><g id="Layer_x0020_1"><path d="m1.0701 1.36122c-.0031811 0-.00638976-.00076378-.00933465-.0023189l-.207441-.109508-.207429.109508c-.00755118.00401575-.0167913.00273622-.0230276-.00311417-.00623622-.00584646-.00805906-.0149843-.00455512-.0227913l.21676-.482185c.00322441-.0071811.010374-.0118071.0182362-.0118071.00786614 0 .0150157.00462598.0182362.0118071l.216764.482185c.0035.00780709.00166929.0169449-.00455512.0227913-.00376378.00358661-.00869291.00543307-.0136535.00543307zm-.216776.345429c-.109614 0-.212531-.0292323-.301366-.0803071-.0006378-.00028347-.00126772-.00060236-.00188583-.00095669-.00074409-.00042913-.00144882-.0008937-.00211417-.00140157-.0902244-.0527992-.165654-.128232-.218461-.218449-.00051969-.0006811-.001-.00140157-.00144094-.00216142-.00037402-.00065354-.00070866-.00131102-.00100394-.00198819-.0510472-.0888071-.080248-.191697-.080248-.301268 0-.109634.0292441-.212567.0803307-.301413.00027953-.00061811.00059055-.00122835.00093701-.00183071.00041339-.00072047.00086614-.00140157.00135039-.00204724.0528228-.0903031.128315-.16578.21861-.21861.00064173-.00048032.0013189-.00092913.0020315-.00133858.00058661-.00033858.00118504-.00064173.0017874-.00091339.0324685-.0186811.0668425-.0344055.10272-.0468819v-.0802717c-.0444606-.0492638-.0688543-.112575-.0688543-.179177 0-.147571.120055-.26761.267606-.26761s.267626.120055.267626.26761c0 .0666142-.0243976.129921-.0688504.179173v.0802835c.0358622.0124764.0702165.0281969.102681.0468661.00061024.00027559.0012126.00057874.00180315.00092126.00070079.00040551.00136614.00084646.002.0013189.0902874.0528031.16576.128276.218594.218539.00050787.00066929.00098425.00137795.00141339.00212205.00037008.00064173.00070079.00129921.00099213.00196457.0509724.0886732.0801732.191394.0802638.300791l.00000787.00050394v.00001181l-.00000787.00051575c-.00009449.109402-.0292913.212114-.0802638.300795-.00029134.00065748-.00061811.00131102-.00098819.00194882-.0004252.00073622-.00088976.00143307-.0013937.00209449-.0528228.0902795-.128307.165736-.218591.218555-.0006378.00047638-.00131102.00092126-.00201575.00133071-.00062598.00036614-.00126378.00069291-.00190945.00098032-.0888228.0510748-.191748.0802992-.301362.0802992zm-.00148425-1.21303.00148425-.00001968.00148425.00001968c.00423622.00001181.0084685.00005906.0126929.00015748l.0030315.00007874c.00414961.00011811.00829528.00027559.012437.00047638l.00301969.00015354c.00423622.00022441.00847244.00049213.0126969.00080709l.00254331.00019685c.00425591.00033465.00851181.0007126.012752.00113386l.00242126.00024803c.00434646.00044882.0086811.00094488.0130118.00148819l.00206299.00026378c.00443307.00057087.0088622.00119291.0132795.0018622l.00164567.00025197c.00459843.00070866.00918504.00147244.0137638.0022874l.00069685.00012205c.0172283.00308268.0343189.0069252.0512244.0114961v-.086126c0-.00135433-.00042913-.00262992-.00115748-.00369685l-.0000748-.00011417-.00001575-.00001575-.00007874-.00011417-.00001575-.00001575-.00008268-.00011417-.00001575-.00001575-.00008661-.0001063-.00001575-.00001575-.00009055-.00011024-.00001575-.00001575-.00009055-.00010236-.00001575-.00001575-.00009449-.00010236-.00001575-.00001575-.00009449-.00009843-.00001575-.00001575-.00009843-.00009843-.00001575-.00001575-.00010236-.00009449-.00001575-.00001575-.0001063-.00009055-.00001575-.00001575-.0001063-.00009055-.00001575-.00001575-.00011024-.00008268-.00001575-.00001575-.00011024-.00008268-.00001575-.00001575-.00011417-.00008268-.00001575-.00001575-.00011417-.0000748c-.0010748-.00072835-.0023189-.00115748-.00368504-.00115748l-.304209-.00000394c-.00288189 0-.00540551.00194094-.00631102.00455512l-.00005118.00014173v.00001181l-.00004724.00014567v.00001181l-.00004724.00014567v.00001181l-.00003937.00014567v.00001181l-.00003543.00014961v.00001181l-.0000315.00014961v.00001181l-.00002756.00014961v.00001181l-.00002362.00015354v.00001181l-.00001968.00015354v.00001181l-.00001575.00015354v.00001181l-.00001181.00015354v.00001181l-.00000394.00015748v.00001181l-.00000394.00015748v.00001181.0104291.075685c.0170039-.00460236.034185-.00845669.0515157-.0115551h.00001968c.00483071-.00086221.00966929-.00166929.0145197-.00241339l.0010315-.00015748c.00462992-.00070472.00926772-.00135827.0139173-.00195276l.00140551-.00017323c.0044685-.00056299.00895276-.00108268.013437-.00154331l.00205118-.00020472c.00437402-.00043701.00875591-.00083071.0131417-.00117323l.00244488-.00018504c.00429528-.0003189.00859449-.00059055.0129016-.0008189l.00250394-.00012598c.00420866-.00020472.0084252-.00036614.0126417-.00048425l.00304724-.00007874c.00422441-.00009843.00845276-.00014567.012685-.00015748zm-.103583.0498031c-.0021063.00039764-.0042126.00079528-.00631102.0012126l-.0042874.00087008c-.0531024.011063-.1035.0295827-.150043.0544134l.0318898.0552283c.0596732-.0314843.126394-.0513307.197142-.0564488l.00025984-.00001968.00026378-.00001968.00025984-.00001575c.00270472-.00018898.00540157-.00036614.00809055-.00051575l.00025984-.00001181.00025984-.00001575.00286614-.00014567.00025984-.00001575.00415748-.0001811v-.0636693c-.0285394.00099213-.0570039.00410236-.0850669.00933465zm-.195244.0765512c-.0726378.0455984-.134256.107201-.17985.179843l.0552205.0318819c.039937-.0630118.0935039-.116563.156512-.156504l-.0318819-.0552205zm-.199909.214445c-.0393346.0737598-.0628268.157181-.0659173.245713h.0637756l.00011024-.0026063.00001181-.00025984.00001181-.00026378c.00009055-.00200394.00019685-.00400787.00031496-.00600394l.00001575-.00025984.00001575-.00025984.00001575-.00026378.00001575-.00025984.00001575-.00025984.00001575-.00026378.00001575-.00025984.00001575-.00025984.00001575-.00026378.00003543-.00051969.00001575-.00026378.00001575-.00025984.00001575-.00025984.00001968-.00026378.00001575-.00025984.00001575-.00025984.00001968-.00026378.00001575-.00025984.00001968-.00025984.00001575-.00026378c.00488976-.0715079.0247953-.138953.0565827-.199205l-.0552362-.0318898zm-.0659213.285713c.00309055.0885236.0265669.171949.0659094.245697l.0552362-.0318898c-.0320157-.0606929-.0519724-.128681-.0566732-.200776l-.00001575-.00025984-.00001575-.00025984-.00001968-.00026378-.00001575-.00025984-.00001575-.00025984-.00001575-.00025984c-.00019291-.00303543-.00035039-.00607874-.00049213-.00912598l-.00001181-.00025984-.00000787-.00025984-.00001181-.00025984-.00001181-.00025984-.00001181-.00026378-.00004331-.00103937h-.0637835zm.0859685.280299c.0456102.0726457.107213.134268.179866.179866l.0318819-.0552205c-.0630118-.0399449-.116579-.0935118-.156524-.156528l-.0552244.0318819zm.214465.199921c.0737598.0393346.157185.0628268.245709.0659173v-.0637598l-.00415354-.00018504h-.00001181l-.00025984-.00001181-.00312598-.00016142-.00026378-.00001575-.00025984-.00001575c-.00277953-.00015748-.00556299-.00033465-.00834646-.0005315l-.00025984-.00001968c-.0707441-.00512205-.137465-.0249646-.197138-.0564488l-.0318898.0552323zm.285709.0659173c.0885354-.00309055.171976-.0265748.245732-.0659291l-.0318898-.0552283c-.0596772.0314882-.126409.0513307-.197165.0564567l-.00025984.00001968-.00025984.00001575-.00026378.00001968c-.00251969.00017717-.00504331.00033858-.00756299.00048032l-.00025984.00001575-.00025984.00001575-.00338583.00017717-.00025984.00001181-.00026378.00001181-.00025984.00001181-.00364173.00016142v.0637598zm.280331-.0859843c.0726299-.0456024.134244-.107201.179835-.179846l-.0552126-.031878c-.0399409.0630039-.0934961.116563-.156504.156504l.0318819.0552205zm.199894-.214449c.0393268-.0737598.0628228-.157177.0659094-.245705h-.0637362l-.00023622.00520472-.00001575.00025984-.00002362.00051969-.00001575.00025984-.00001181.00025984-.00001575.00025984c-.00017717.00329921-.00038976.00660236-.00062598.00990551l-.0000315.00035827c-.00516929.0706142-.0249961.13722-.0564252.196791l.0552283.0318858zm.0659094-.285705c-.00309055-.0885315-.026563-.171969-.0659134-.24572l-.0552402.0318898c.0314213.0595433.051252.126102.0564331.196681l.00003937.00045669c.00023622.00330709.00044488.00661417.00061811.00991732l.00001575.00025984v.00000787l.00005512.00103543.00001181.00026378.00001181.00025984.00001181.00025984.0002126.00468898h.0637441zm-.0859724-.280319c-.0456024-.0726339-.107201-.134252-.179846-.179843l-.0318858.0552244c.0630079.039937.116567.0934961.156512.1565l.0552205-.0318819zm-.214449-.199894c-.046622-.0248661-.0970984-.0434134-.150295-.0544685l-.00364173-.00073622c-.00240157-.00048425-.0048189-.00094095-.00723228-.0013937-.0278898-.00517323-.0561811-.00825197-.0845433-.00923228v.0636693l.00416142.0001811.00025984.00001575.00286614.00014567.00025984.00001575.00025984.00001181c.00286614.00015748.00574016.00035039.00861811.00055118l.00025984.00001968c.0707441.00512598.137465.0249685.197138.0564528l.0318898-.0552323zm-.266028.0374291c-.00354331.00000394-.00708268.00004331-.0106063.00012992l-.00048032.00000787-.0001063.00000394-.00084646.00002362-.00048032.00001181-.00239764.00009449v.0440433c0 .00840551.00684646.0152362.0152323.0152362.00838976 0 .0152362-.00683465.0152362-.0152362v-.0440433l-.00238976-.00009449-.00048032-.00001181-.00083465-.00002362-.00011811-.00000394-.00047638-.00000787c-.00347244-.00008268-.00694882-.00012598-.0104488-.00012992h-.00047638-.00032677zm-.0549173.00330315c-.211106.0252244-.379004.193122-.40424.40422h.0410394c.0304567 0 .0552323.0247756.0552323.055248s-.0247913.055248-.0552323.055248h-.0410394c.0252283.211106.193126.378996.404236.40422v-.0410157c0-.0304567.0247756-.055252.0552323-.055252s.055248.0247795.055248.055252v.0410157c.211102-.0252283.378992-.193114.404217-.40422h-.0410039c-.0304567 0-.055248-.0247756-.055248-.055248s.0247756-.055248.055248-.055248h.0410039c-.0252362-.211094-.193102-.378988-.404213-.404217v.0410236c0 .0304567-.0247756.0552323-.055248.0552323-.0304567 0-.0552323-.0247756-.0552323-.0552323v-.0410276zm-.407276.444228-.00003543.00092126-.00000787.00022835-.00000787.00023228-.00000787.00022835-.00000787.00022835-.00007874.00294094v.00004331l-.00000394.00022835-.00000394.00023228c-.0000748.00314567-.00011024.00631102-.00011417.00947244l.00000787.00049606-.00000787.00049606c.00000394.00315748.00004331.00630709.00011417.00945276l.00000394.00022835.00000394.00023228v.0000315l.00007874.00294488.00000787.00022835.00000787.00022835.00000787.00023228.00000787.00022835.00003543.00091732h.0440591c.00840551 0 .0152323-.00683465.0152323-.0152323 0-.00839764-.00683465-.0152323-.0152323-.0152323l-.0440591-.00000787zm.447276.477744c.00107087.00003543.00214567.00009449.00322047.00012205l.00008661.00000394h.00004724.00004724c.00382677.00009843.00766535.00014173.0115157.00014567h.00033071.00047244c.00380315-.00000394.00759449-.00004724.011374-.00014567h.0000315.0000315l.00005906-.00000394c.00109055-.00002756.00216929-.00008661.00325591-.00012205v-.0440512c0-.00838976-.00683465-.0152362-.0152323-.0152362-.00840157 0-.0152362.00683465-.0152362.0152362l-.00000394.0440512zm.477728-.447256c.00016535-.00506299.00027559-.0101339.00027559-.0152362 0-.00509843-.00011024-.0101693-.00027559-.0152283l-.0440394-.00000787c-.00838976 0-.0152323.00683465-.0152323.0152362 0 .00839764.00683465.0152323.0152323.0152323l.0440394.00000394zm-.462496-1.07536c-.125508 0-.227606.10211-.227606.22761 0 .0469567.014252.0919803.0406654.129886.00855512-.00959449.0210118-.0156535.0348465-.0156535h.304193c.00712992 0 .0139016.00161024.0199567.00448819l.00027165.00012992.00000394.00000394.0008189.00040158.00018898.00009843.00035039.0001811c.00053937.00027953.00107087.00057087.00159843.00087402l.00003543.00002362c.00156693.00090158.0030748.0018937.00451969.00296063l.00017323.00012992.00030709.00023228.00141732.00112205.00003937.00003543.00085433.00072047.00002756.00002362.00045276.00039764.00035827.00032284.0008189.00076378.00014961.00014173.00042913.00042126.00022441.00022047.00020472.00020472.00041732.00042913.00016142.00016929.00066535.00070866.00009843.00011024.00030315.00033858c.0264134-.0378898.0406654-.0829173.0406654-.129886 0-.1255-.102094-.22761-.22761-.22761zm-.0051811 1.13868c-.0162087 0-.0314409-.00632283-.0429016-.0177795-.0114567-.0114449-.0177638-.0266811-.0177638-.0428858s.00632283-.0314449.0177795-.0429016c.0114449-.0114449.0266811-.0177638.0428858-.0177638s.0314449.00630315.0429055.0177638c.0114567.0114567.0177598.026689.0177598.0429016 0 .0162087-.00630315.0314409-.0177598.0429016-.0114606.0114567-.0266929.0177638-.0429055.0177638zm0-.0813425c-.00551181 0-.0107087.00214961-.0146063.00605512-.00390157.00391732-.00605906.00909843-.00605906.014626 0 .00552756.00215354.0107087.00605906.0146102.00780315.0078189.0214173.0078189.0292205 0 .00390157-.00390157.00607087-.00908268.00607087-.0146102 0-.00552756-.00215354-.0107087-.00607087-.0146102-.00391339-.00389764-.00908661-.00607087-.0146142-.00607087zm.0051811.109441c.00320866 0 .00641732.00077559.00933465.0023189l.165346.0872913-.174681-.388583-.174689.388594.165358-.0872913c.00293307-.00155512.00612598-.00233071.00933071-.00233071z" fill="#000002"/><path d="m.694575.514638c.0514724-.0139331.104008-.020874.157264-.0210236.0519291-.00068898.110646.00761024.160248.0210236v-.086126c0-.00360236-.0030315-.00664961-.00663386-.00664961l-.304209-.00000394c-.00899606 0-.00666929.0115512-.00666929.0170945v.075685z" fill="#ff901d"/><g fill="#ffb123"><path d="m.748256.543417c-.0569724.0107559-.11063.029815-.160642.0564961l.0318898.0552283c.0660197-.0348346.137067-.0540472.213819-.0573898v-.0636693c-.0285394.00099213-.0570039.00410236-.0850669.00933465z"/><path d="m.584894.675189-.0318819-.0552205c-.0726378.0455984-.134256.107201-.17985.179843l.0552205.0318819c.039937-.0630118.0935039-.116563.156512-.156504z"/><path d="m.350961 1.08013c.00322441-.0762047.0225354-.147776.057378-.213823l-.0552362-.0318898c-.0393346.0737598-.0628268.157181-.0659173.245713h.0637756z"/><path d="m.408327 1.33393c-.0345-.0654016-.0541693-.13722-.0573622-.213807h-.0637835c.00309055.0885236.0265669.171949.0659094.245697l.0552362-.0318898z"/><path d="m.428374 1.36854-.0552244.0318819c.0456102.0726457.107213.134268.179866.179866l.0318819-.0552205c-.0630118-.0399449-.116579-.0935118-.156524-.156528z"/><path d="m.619504 1.54511-.0318898.0552323c.0737598.0393346.157185.0628268.245709.0659173v-.0637598c-.0770315-.00343307-.147748-.0225315-.213819-.0573898z"/><path d="m1.08717 1.54511c-.0662008.0349291-.137004.0539921-.213843.0573976v.0637598c.0885354-.00309055.171976-.0265748.245732-.0659291l-.0318898-.0552283z"/><path d="m1.12177 1.52506.0318819.0552205c.0726299-.0456024.134244-.107201.179835-.179846l-.0552126-.031878c-.0399409.0630039-.0934961.116563-.156504.156504z"/><path d="m1.35572 1.12013c-.0035.0771339-.0225.147665-.0574016.213819l.0552283.0318858c.0393268-.0737598.0628228-.157177.0659094-.245705h-.0637362z"/><path d="m1.2983.866295c.0349409.0662165.0539094.136665.0574094.213831h.0637441c-.00309055-.0885315-.026563-.171969-.0659134-.24572l-.0552402.0318898z"/><path d="m1.27826.831689.0552205-.0318819c-.0456024-.0726339-.107201-.134252-.179846-.179843l-.0318858.0552244c.0630079.039937.116567.0934961.156512.1565z" stroke="#ffb123" stroke-width=".003"/><path d="m1.08715.655146.0318898-.0552323c-.0762835-.040685-.159394-.0628465-.245713-.0658307v.0636693c.0768701.00334646.147984.0226575.213823.0573937z"/></g><path d="m.868559.681657v-.0440433l-.0155512-.00027165-.0149173.00027165v.0440433c0 .0200551.0304685.0200472.0304685 0z" fill="#0072a2"/><path d="m.853323.736906c-.0304567 0-.0552323-.0247756-.0552323-.0552323v-.0410276c-.211106.0252244-.379004.193122-.40424.40422h.0410394c.0304567 0 .0552323.0247756.0552323.055248s-.0247913.055248-.0552323.055248h-.0410394c.0252283.211106.193126.378996.404236.40422v-.0410157c0-.0304567.0247756-.055252.0552323-.055252s.055248.0247795.055248.055252v.0410157c.211102-.0252283.378992-.193114.404217-.40422h-.0410039c-.0304567 0-.055248-.0247756-.055248-.055248s.0247756-.055248.055248-.055248h.0410039c-.0252362-.211094-.193102-.378988-.404213-.404217v.0410236c0 .0304567-.0247756.0552323-.055248.0552323zm-.018252.113902c.00705118-.0156929.0294252-.0156929.0364724 0l.216764.482185c.00595276.0132598-.00381102.0282244-.0182087.0282244-.0031811 0-.00638976-.00076378-.00933465-.0023189l-.207441-.109508-.207429.109508c-.0167283.0088622-.0353386-.0086378-.0275827-.0259055l.21676-.482185z" fill="#fff"/><path d="m.434874 1.08488-.0440591-.00000787v.0304724h.0440591c.0200512 0 .0200433-.0304646 0-.0304646z" fill="#0072a2"/><path d="m.848142 1.09734c-.018315 0-.027626.0222677-.0146063.0352913.0123622.0123661.0352913.00422047.0352913-.0146102 0-.011437-.00932283-.0206811-.020685-.0206811z" fill="#ff4c4d" stroke="#ff4c4d" stroke-width=".003"/><path d="m.805256 1.07511c.0380866-.0380866.103551-.011063.103551.0429016 0 .0335433-.027122.0606654-.0606654.0606654-.0538701 0-.0810472-.0654055-.0428858-.103567zm.0480669-.167307-.174689.388594.165358-.0872913c.00293307-.00155512.00612598-.00233071.00933071-.00233071.00320866 0 .00641732.00077559.00933465.0023189l.165346.0872913-.174681-.388583z" fill="#ff4c4d"/><path d="m1.27178 1.08489c-.0200394 0-.0200551.0304685 0 .0304685l.0440394.00000394v-.0304646l-.0440394-.00000787z" fill="#0072a2"/><path d="m.868563 1.56262v-.0440512c0-.0200472-.0304685-.0200591-.0304685 0l-.00000394.0440512h.0304724z" fill="#0072a2" stroke="#0072a2" stroke-width=".003"/></g></svg>