<svg id="Capa_1" enable-background="new 0 0 512 512" height="512" viewBox="0 0 512 512" width="512" xmlns="http://www.w3.org/2000/svg"><g><g><path d="m313.874 280.874-9.018-18.273c-1.418-2.874-4.16-4.866-7.332-5.327l-20.165-2.93c-7.987-1.161-11.176-10.976-5.397-16.609l14.592-14.223c2.295-2.237 3.342-5.46 2.801-8.619l-3.445-20.084c-1.364-7.954 6.985-14.021 14.128-10.265l18.036 9.482c2.837 1.491 6.226 1.491 9.062 0l18.036-9.482c7.144-3.756 15.493 2.311 14.128 10.265l-3.445 20.084c-.542 3.159.506 6.382 2.801 8.619l14.592 14.223c5.779 5.633 2.59 15.448-5.397 16.609l-20.165 2.93c-3.172.461-5.913 2.453-7.332 5.327l-9.018 18.273c-3.57 7.237-13.89 7.237-17.462 0z" fill="#ffe266"/><path d="m317.455 311.056c-.425 2.987-1.581 5.912-3.508 8.503l-17.704 23.799c-6.685 8.987-17.609 13.607-28.508 12.055l-21.39-3.046c-10.899-1.552-20.1-9.037-24.01-19.534l-11.465-29.657-23.251 30.36c-6.16 8.281-17.867 10-26.149 3.84-8.281-6.16-10-17.867-3.84-26.149l17.704-23.799c6.687-8.988 17.61-13.607 28.508-12.055l21.39 3.046c10.899 1.552 20.099 9.037 24.01 19.534l10.498 30.774 24.219-31.476c6.16-8.281 17.867-10.001 26.148-3.841 5.69 4.233 8.283 11.086 7.348 17.646z" fill="#78eac4"/><path d="m212.873 300.71-.796 5.588 10.257 26.534c3.361 9.022 10.632 15.815 19.528 18.533 5.465-6.734 10.632-13.702 15.7-20.748l.831-5.836-9.152-26.829c-3.521-9.45-11.33-16.456-20.805-18.893-5.146 7.248-10.305 14.487-15.563 21.651z" fill="#71afc4"/><path d="m191.399 137.3c-1.448 2.806-3.596 5.299-6.392 7.197l-25.684 17.433c-9.699 6.584-22.085 7.392-32.324 2.109l-20.094-10.368c-10.239-5.283-16.758-15.846-17.013-27.567l-1.131-33.256-33.424 22.01c-8.937 6.066-21.1 3.738-27.166-5.199s-3.738-21.099 5.198-27.166l25.684-17.433c9.701-6.584 22.086-7.392 32.324-2.11l20.094 10.368c10.238 5.283 16.757 15.845 17.012 27.566l-.209 34.028 34.764-22.78c8.937-6.066 21.1-3.739 27.166 5.198 4.17 6.142 4.374 13.807 1.195 19.97z" fill="#ffa585"/><path d="m91.589 91.102-2.709 5.249 1.011 29.754c.219 10.074 5.068 19.289 12.927 25.035 7.718-4.776 15.221-9.886 22.654-15.107l2.829-5.482.183-29.666c-.23-10.551-5.538-20.162-14.065-25.829-7.58 5.392-15.169 10.773-22.83 16.046z" fill="#ef7c85"/><path d="m500.263 501.969-110.847-273.162c-36.835-36.835-199.15 125.48-162.315 162.315z" fill="#ef8bbd"/><path d="m478.504 448.349-19.709-48.571-119.114 37.028 76.324 30.972z" fill="#8bb6ef"/><path d="m389.416 228.807c-19.078-19.078-71.816 15.268-113.112 57.933 28.309-27.291 61.434-47.566 73.782-35.218l58.025 146.522c6.879 17.37-10.314 34.562-27.684 27.684l-146.522-58.025c-6.467-6.467-3.983-18.637 3.768-32.827-15.106 24.057-21.323 45.497-10.573 56.247l273.162 110.847z" fill="#e068bd"/><path d="m461.41 455.813c5.906-1.961 11.781-4.02 17.651-6.09l-22.217-54.75c-16.116 6.465-32.374 12.573-48.643 18.656-4.041 10.214-15.865 16.816-27.774 12.099l-2.144-.849c-11.557 4.398-23.078 8.889-34.514 13.587l75.074 30.465c13.979-4.937 28.477-8.438 42.567-13.118z" fill="#8388ef"/><path d="m86.645 314.235-17.836-9.853c-2.805-1.55-6.194-1.62-9.06-.188l-18.229 9.107c-7.22 3.607-15.442-2.63-13.913-10.555l3.859-20.008c.607-3.147-.373-6.391-2.622-8.675l-14.294-14.522c-5.662-5.752-2.27-15.499 5.739-16.494l20.221-2.512c3.18-.395 5.963-2.33 7.44-5.174l9.394-18.082c3.721-7.162 14.039-6.948 17.46.361l8.638 18.455c1.359 2.903 4.059 4.951 7.22 5.477l20.1 3.347c7.961 1.325 10.946 11.204 5.052 16.717l-14.883 13.919c-2.341 2.189-3.454 5.39-2.978 8.559l3.029 20.151c1.2 7.98-7.272 13.872-14.337 9.97z" fill="#ffe266"/><path d="m221.267 75.508 7.466-15.376c1.174-2.418 1.083-5.26-.243-7.598l-8.434-14.868c-3.34-5.889 1.521-13.052 8.227-12.121l16.931 2.349c2.663.369 5.337-.595 7.151-2.579l11.534-12.615c4.568-4.997 12.883-2.586 14.07 4.079l2.998 16.828c.471 2.647 2.215 4.892 4.663 6.004l15.562 7.071c6.164 2.8 6.44 11.453.469 14.642l-15.078 8.051c-2.372 1.266-3.968 3.618-4.269 6.29l-1.916 16.985c-.759 6.728-8.902 9.664-13.78 4.97l-12.318-11.852c-1.937-1.864-4.667-2.656-7.301-2.117l-16.746 3.427c-6.633 1.357-11.943-5.48-8.986-11.57z" fill="#78eac4"/><ellipse cx="378.592" cy="100.15" fill="#ffa585" rx="25.095" ry="25.095" transform="matrix(.159 -.987 .987 .159 219.542 458.012)"/><path d="m400.128 255.206-10.712-26.399c-20.521-20.521-79.987 20.77-122.267 67.738z" fill="#8bb6ef"/><path d="m439.125 351.306-19.327-47.627-196.289 61.02c-3.112 11.182-2.379 20.453 3.592 26.424l36.412 14.776z" fill="#8bb6ef"/><g fill="#8388ef"><g><path d="m227.101 391.122 36.412 14.775 37.447-11.641-67.054-26.555c-1.476-1.476-2.464-3.261-3.051-5.287l-7.346 2.284c-3.112 11.183-2.379 20.453 3.592 26.424z"/><path d="m395.031 365.013 44.094-13.708-19.327-47.627-43.68 13.579z"/></g><path d="m389.416 228.807c-19.07-19.07-71.769 15.241-113.058 57.881 28.297-27.265 61.388-47.507 73.728-35.167l6.784 17.132 43.258-13.448z"/></g></g><g><g fill="#440a29"><path d="m190.639 152.797c4.078-2.768 7.423-6.536 9.673-10.898 4.979-9.65 4.286-21.222-1.808-30.201-4.438-6.539-11.158-10.958-18.92-12.444-7.733-1.48-15.578.129-22.101 4.528l-19.062 12.491.094-15.326c.001-.093 0-.187-.002-.281-.336-15.397-8.935-29.291-22.442-36.26l-20.094-10.368c-13.506-6.969-29.812-5.925-42.557 2.724l-25.684 17.433c-13.498 9.163-17.026 27.6-7.864 41.098 9.148 13.477 27.541 17.016 41.033 7.908l18.439-12.142.521 15.328c.358 15.372 8.952 29.238 22.44 36.197l20.094 10.368c5.941 3.065 12.422 4.58 18.904 4.58 8.256 0 16.514-2.459 23.652-7.304zm-90.72-26.911c-.001-.041-.002-.081-.004-.122l-.945-27.807 14.631-10.231c2.962 3.662 4.716 8.298 4.852 13.25l-.177 28.74-13.582 9.445c-2.937-3.678-4.667-8.321-4.775-13.275zm-50.098-19.405c-.039.026-.078.052-.117.078-4.349 2.949-10.285 1.813-13.235-2.533s-1.814-10.283 2.533-13.234l25.684-17.432c6.657-4.519 15.122-5.092 22.093-1.495l8.343 4.304-11.855 8.29c-.007.004-.015.007-.022.012zm81.777 48.645-8.453-4.362 12.289-8.545c.016-.011.029-.024.044-.034l33.059-21.663c.046-.03.091-.06.136-.091 2.106-1.429 4.642-1.954 7.141-1.475 2.5.479 4.663 1.901 6.092 4.007 1.963 2.893 2.186 6.624.579 9.737 0 .001-.001.001-.001.001-.73 1.414-1.776 2.59-3.111 3.496l-25.684 17.433c-6.656 4.519-15.12 5.094-22.091 1.496z"/><path d="m509.557 498.198-110.847-273.163c-.504-1.243-1.253-2.372-2.201-3.321-5.587-5.587-14.974-10.233-30.365-7.463l3.044-17.747c1.281-7.47-1.732-14.878-7.864-19.334-6.132-4.454-14.108-5.031-20.818-1.505l-17.9 9.411-17.9-9.411c-6.71-3.527-14.687-2.95-20.818 1.505-6.132 4.455-9.145 11.863-7.864 19.334l3.418 19.932-14.482 14.115c-5.427 5.29-7.344 13.055-5.002 20.264s8.457 12.364 15.958 13.454l7.835 1.139c-3.421 3.182-6.832 6.456-10.214 9.837-5.563 5.563-10.868 11.201-15.868 16.844-5.648-12.697-17.321-21.651-31.025-23.602l-21.389-3.045c-14.537-2.07-29.088 4.06-37.97 15.998l-17.704 23.8c-9.45 12.706-6.803 30.732 5.902 40.182 12.684 9.437 30.671 6.813 40.135-5.837l12.343-16.117 4.997 12.927c1.535 4.101 3.702 7.836 6.341 11.142-12.933 28.014-7.005 42.965.708 50.678.949.948 2.078 1.697 3.321 2.201l273.162 110.847c1.221.496 2.501.737 3.77.737 2.611 0 5.176-1.02 7.095-2.938 2.85-2.851 3.718-7.13 2.202-10.864zm-231.455-198.756 114.685-35.651 15.128 37.28-169.341 52.643c.633-1.29 1.293-2.596 2.011-3.938 8.098-15.127 21.474-33.006 37.517-50.334zm18.136-18.243c17.791-16.663 36.269-30.576 51.831-38.908 15.308-8.196 27.4-10.862 32.998-7.384l7.178 17.69zm-63.036 101.574c-1.925-3.099-1.959-8.194-.224-14.716l179.48-55.795 14.785 36.434-157.42 48.937zm198.582-22.883 15.128 37.28-100.92 31.373-58.581-23.772zm-68.204 75.79 87.874-27.317 15.168 37.379-44.306 13.773zm-64.613-188.332-19.578-2.846 14.167-13.808c4.66-4.542 6.785-11.083 5.685-17.497l-3.343-19.498 17.51 9.206c5.76 3.028 12.638 3.028 18.397 0l17.511-9.206-3.344 19.498c-.442 2.577-.355 5.172.2 7.652-2.427 1.112-4.943 2.349-7.571 3.757-11.068 5.926-23.082 14.082-35.319 23.891-1.378-.535-2.82-.932-4.315-1.149zm-56.18 62.75c-4.394 5.724-8.399 11.373-11.963 16.877l-8.633-22.332 9.598-13.284c3.574 2.324 6.417 5.782 8.009 9.975zm-63.131 17.339c-.029.037-.057.074-.085.112-1.38 1.855-3.4 3.062-5.689 3.398-2.287.336-4.57-.239-6.426-1.619-3.83-2.849-4.628-8.284-1.779-12.114l17.704-23.799c4.492-6.037 11.793-9.144 19.047-8.111l8.15 1.16-7.656 10.595c-.005.006-.01.012-.015.018zm260.248 139.214 31.26-9.718 10.883 26.819z"/><path d="m112.41 235.025-19.948-3.321-8.573-18.315c-3.213-6.865-9.916-11.227-17.494-11.384-7.562-.141-14.457 3.924-17.951 10.65l-9.323 17.946-20.068 2.493c-7.522.934-13.742 5.962-16.233 13.12-2.491 7.159-.735 14.962 4.582 20.364l14.186 14.412-3.83 19.857c-1.436 7.442 1.424 14.911 7.462 19.492 6.038 4.58 14.001 5.324 20.782 1.936l18.091-9.039 17.702 9.779c3.009 1.662 6.296 2.486 9.572 2.486 3.945 0 7.872-1.195 11.272-3.56 6.223-4.328 9.389-11.672 8.263-19.167l-3.006-19.998 14.771-13.813c5.536-5.178 7.612-12.901 5.42-20.157-2.193-7.255-8.199-12.536-15.677-13.781zm-18.328 33.204c-4.753 4.445-7.013 10.94-6.046 17.376l2.939 19.563-17.316-9.566c-2.971-1.641-6.262-2.465-9.558-2.465-3.023 0-6.05.693-8.834 2.084l-17.698 8.841 3.747-19.425c1.232-6.39-.758-12.973-5.322-17.611l-13.877-14.099 19.631-2.439c6.458-.803 12.104-4.729 15.104-10.504l9.121-17.555 8.387 17.918c2.758 5.893 8.237 10.049 14.657 11.118l19.514 3.25z"/><path d="m219.283 56.631-7.039 14.496c0 .001 0 .001-.001.001-3.047 6.277-2.281 13.6 1.999 19.111 4.28 5.51 11.183 8.066 18.021 6.666l15.787-3.23 11.611 11.173c3.466 3.335 7.964 5.101 12.574 5.1 2.078 0 4.18-.359 6.219-1.095 6.564-2.368 11.127-8.145 11.909-15.079l1.806-16.013 14.215-7.59c6.155-3.287 9.84-9.661 9.616-16.636-.223-6.974-4.308-13.1-10.661-15.986l-14.671-6.666-2.826-15.865c-1.224-6.87-6.148-12.344-12.85-14.287-6.702-1.944-13.791.05-18.498 5.199l-10.873 11.893-15.962-2.215c-6.916-.96-13.64 2.031-17.559 7.806-3.919 5.773-4.214 13.13-.771 19.199zm24.553-18.802c5.929.823 11.889-1.325 15.932-5.746l8.988-9.831 2.336 13.113c1.05 5.898 4.933 10.899 10.388 13.378l12.127 5.51-11.751 6.274c-5.285 2.822-8.84 8.061-9.511 14.013l-1.493 13.237-9.599-9.237c-3.425-3.295-7.959-5.085-12.617-5.085-1.214 0-2.437.122-3.65.37l-13.05 2.67 5.818-11.982c2.617-5.388 2.415-11.716-.542-16.928l-6.572-11.586z"/><path d="m378.592 135.276c19.368 0 35.125-15.757 35.125-35.125s-15.757-35.125-35.125-35.125-35.125 15.757-35.125 35.125 15.757 35.125 35.125 35.125zm0-50.19c8.307 0 15.064 6.758 15.064 15.064s-6.758 15.065-15.064 15.065c-8.307 0-15.065-6.758-15.065-15.065s6.758-15.064 15.065-15.064z"/></g><path d="m287.57 328.713c-2.147 0-4.308-.686-6.136-2.102-4.379-3.393-5.179-9.693-1.786-14.072 2.016-2.603 3.914-4.898 5.801-7.016 3.685-4.136 10.026-4.502 14.161-.817 4.136 3.685 4.502 10.025.817 14.161-1.579 1.773-3.189 3.722-4.923 5.958-1.975 2.551-4.939 3.888-7.934 3.888z" fill="#fff"/><path d="m299.143 380.317c-1.732 0-3.487-.449-5.086-1.392-4.772-2.814-6.358-8.964-3.544-13.735l3.122-5.293c2.813-4.772 8.965-6.359 13.735-3.544 4.772 2.814 6.358 8.964 3.544 13.735l-3.122 5.293c-1.871 3.172-5.216 4.936-8.649 4.936z" fill="#fff"/></g><g><path d="m476.161 138.454 8.239 23.167c.353.992 1.051 1.778 1.932 2.175l20.583 9.273c2.908 1.31 2.908 5.943 0 7.254l-20.583 9.273c-.881.397-1.58 1.183-1.932 2.175l-8.239 23.167c-1.164 3.273-5.281 3.273-6.445 0l-8.239-23.167c-.353-.992-1.051-1.778-1.932-2.175l-20.583-9.273c-2.908-1.31-2.908-5.943 0-7.254l20.583-9.273c.881-.397 1.58-1.183 1.932-2.175l8.239-23.167c1.164-3.273 5.281-3.273 6.445 0z" fill="#bdf4e3"/><path d="m101.356 369.68 6.112 17.185c.262.736.78 1.319 1.433 1.614l15.269 6.879c2.157.972 2.157 4.409 0 5.381l-15.269 6.879c-.654.295-1.172.878-1.433 1.614l-6.112 17.185c-.863 2.428-3.917 2.428-4.78 0l-6.112-17.185c-.262-.736-.78-1.319-1.433-1.614l-15.269-6.879c-2.157-.972-2.157-4.409 0-5.381l15.269-6.879c.654-.295 1.172-.878 1.433-1.614l6.112-17.185c.863-2.428 3.916-2.428 4.78 0z" fill="#fef2a8"/><circle cx="212.078" cy="206.494" fill="#ffa585" r="17.991"/><circle cx="458.675" cy="54.974" fill="#ffe266" r="7.761"/></g></g></svg>