<svg id="Capa_1" enable-background="new 0 0 512 512" height="512" viewBox="0 0 512 512" width="512" xmlns="http://www.w3.org/2000/svg"><g><g><path d="m199.361 455.54c-2.949 2.831-6.625 4.987-10.846 6.141l-38.768 10.602c-14.64 4.004-30.154-.192-40.485-10.952l-20.276-21.118c-10.332-10.761-13.895-26.432-9.299-40.898l12.542-41.218-50.168 12.968c-13.49 3.689-27.416-4.256-31.106-17.746-3.689-13.489 4.256-27.415 17.746-31.106l38.769-10.603c14.642-4.004 30.155.193 40.486 10.953l20.276 21.118c10.331 10.76 13.894 26.431 9.299 40.897l-14.507 41.602 52.132-13.35c13.49-3.689 27.416 4.256 31.106 17.746 2.534 9.269-.425 18.746-6.901 24.964z" fill="#8bb6ef"/><path d="m96.425 357.14-5.517 5.297-11.221 36.877c-3.951 12.434-1.868 25.755 5.353 36.085 11.456-2.619 22.789-5.737 34.082-9.021l5.761-5.532 12.648-36.269c4.137-13.023 1.659-27.022-6.414-37.535-11.547 3.432-23.097 6.847-34.692 10.098z" fill="#8388ef"/><path d="m365.141 461.245c3.792 1.526 8.008 2.153 12.354 1.648l39.923-4.636c15.077-1.75 27.902-11.434 33.471-25.273l10.928-27.16c5.568-13.839 3.024-29.708-6.64-41.413l-27.022-33.557 51.382-6.696c13.892-1.613 23.846-14.182 22.233-28.074s-14.182-23.845-28.074-22.233l-39.924 4.636c-15.078 1.751-27.903 11.436-33.471 25.273l-10.928 27.16c-5.568 13.839-3.024 29.707 6.639 41.412l28.988 33.179-53.348 7.075c-13.892 1.613-23.846 14.182-22.233 28.074 1.11 9.546 7.393 17.233 15.722 20.585z" fill="#a183e2"/><path d="m423.906 331.534 7.095 2.855 24.176 30.023c8.306 10.06 11.347 23.196 8.504 35.476-11.605 1.846-23.283 3.184-34.985 4.353l-7.41-2.981-25.272-28.927c-8.7-10.538-11.625-24.449-8.06-37.217 11.992-1.127 23.982-2.271 35.952-3.582z" fill="#9762e2"/><path d="m252.313 339.028c3.696-1.746 7.02-4.413 9.602-7.946l23.72-32.446c8.958-12.252 10.565-28.243 4.192-41.73l-12.507-26.47c-6.373-13.488-19.746-22.401-34.901-23.261l-42.981-2.968 29.993-42.254c8.254-11.29 5.792-27.133-5.497-35.387-11.29-8.254-27.133-5.792-35.388 5.497l-23.72 32.446c-8.958 12.254-10.564 28.244-4.192 41.731l12.507 26.47c6.372 13.487 19.745 22.4 34.899 23.261l44.04 1.269-31.05 43.953c-8.254 11.29-5.793 27.133 5.497 35.387 7.759 5.671 17.668 6.283 25.786 2.448z" fill="#ffa585"/><path d="m197.05 207.786 6.915-3.267 38.455 2.655c13.025.739 24.73 7.431 31.81 17.86-6.529 9.771-13.481 19.249-20.573 28.63l-7.222 3.412-38.395-1.106c-13.643-.775-25.839-8.079-32.786-19.368 7.321-9.565 14.627-19.141 21.796-28.816z" fill="#ef7c85"/><path d="m72.036 262.302-21.232-10.616c-6.334-3.167-8.901-10.87-5.734-17.204l10.616-21.231c3.167-6.334 10.87-8.901 17.204-5.734l21.231 10.616c6.334 3.167 8.901 10.869 5.734 17.204l-10.617 21.231c-3.166 6.334-10.868 8.901-17.202 5.734z" fill="#ffe266"/><path d="m249.919 453.292 22.825-6.52c6.809-1.945 13.906 1.998 15.852 8.807l6.52 22.825c1.945 6.809-1.998 13.906-8.807 15.852l-22.825 6.52c-6.809 1.945-13.906-1.998-15.852-8.807l-6.52-22.825c-1.946-6.81 1.998-13.907 8.807-15.852z" fill="#ef8bbd"/><path d="m412.697 215.104-29.971 17.304c-8.941 5.162-20.374 2.099-25.537-6.842l-17.304-29.971c-5.162-8.941-2.099-20.374 6.843-25.537l29.971-17.304c8.941-5.162 20.374-2.099 25.537 6.842l17.304 29.971c5.161 8.942 2.098 20.375-6.843 25.537z" fill="#78eac4"/></g><g fill="#440a29"><path d="m199.366 406.526c-8.181-4.667-17.685-5.88-26.775-3.419l-33.901 8.681 8.334-23.9c.031-.088.06-.177.088-.266 5.713-17.98 1.257-37.486-11.629-50.905l-20.276-21.118c-12.884-13.419-32.191-18.663-50.39-13.688l-38.769 10.602c-18.815 5.147-29.937 24.642-24.791 43.457 5.14 18.791 24.592 29.906 43.383 24.811l32.751-8.465-7.308 24.017c-5.682 17.962-1.221 37.437 11.649 50.842l20.276 21.118c9.668 10.07 22.95 15.536 36.669 15.536 4.564 0 9.179-.606 13.721-1.848l38.767-10.602c5.684-1.554 10.926-4.523 15.158-8.587 9.366-8.993 13.058-22.354 9.635-34.87-2.491-9.114-8.384-16.713-16.592-21.396zm-108.722 18.52c-3.225-6.943-3.808-15.029-1.375-22.688.013-.039.025-.078.036-.117l10.951-35.987 26.238-7.569c3.273 6.941 3.898 15.043 1.493 22.723l-12.769 36.618zm-51.1-63.717c-.045.012-.09.024-.136.036-8.125 2.221-16.535-2.58-18.755-10.699-2.22-8.12 2.58-16.534 10.7-18.755l38.768-10.602c11.086-3.033 22.805.118 30.581 8.218l11.781 12.27-22.729 6.557c-.014.004-.028.005-.043.008zm152.853 86.958c-1.844 1.771-4.043 3.014-6.534 3.695l-38.768 10.603c-11.088 3.029-22.803-.117-30.581-8.218l-11.902-12.396 23.316-6.661c.026-.007.051-.019.077-.026l49.644-12.713c.053-.014.106-.027.158-.042 3.936-1.074 8.052-.555 11.593 1.466 3.543 2.021 6.086 5.3 7.162 9.234 1.479 5.402-.118 11.172-4.165 15.058z"/><path d="m511.759 294.925c-2.25-19.376-19.844-33.31-39.222-31.062l-39.923 4.636c-18.74 2.176-34.694 14.249-41.639 31.507l-10.928 27.161c-6.943 17.258-3.796 37.017 8.214 51.565.06.072.121.144.182.214l16.654 19.062-34.69 4.6c-19.331 2.293-33.218 19.863-30.972 39.211 1.497 12.889 9.91 23.906 21.955 28.753 4.183 1.682 8.677 2.544 13.19 2.544 1.36 0 2.722-.078 4.077-.236l39.924-4.636c18.739-2.175 34.694-14.248 41.639-31.507l10.928-27.16c6.937-17.242 3.804-36.976-8.175-51.519l-15.742-19.55 33.544-4.371c9.357-1.106 17.728-5.781 23.579-13.169 5.864-7.408 8.495-16.657 7.405-26.043zm-95.5 153.345-39.924 4.636c-2.566.295-5.069-.035-7.44-.989-.001 0-.001 0-.001 0-5.205-2.094-8.84-6.852-9.486-12.416-.971-8.363 5.043-15.956 13.405-16.928.054-.006.108-.013.162-.02l50.795-6.736c.03-.003.059-.002.089-.005l24.117-2.524-6.415 15.943c-4.192 10.419-13.887 17.714-25.302 19.039zm31.086-77.553c.027.032.052.064.079.096 5.116 6.196 7.594 13.916 7.194 21.56l-25.419 2.661-25.514-29.204c-5.099-6.228-7.544-13.978-7.098-21.64l27.166-2.771zm41.242-62.233c-2.532 3.197-6.158 5.217-10.209 5.688-.047.005-.093.011-.139.017l-51.382 6.696c-.015.002-.029.007-.044.009l-23.533 2.401 6.35-15.781c4.192-10.418 13.887-17.713 25.303-19.039l39.922-4.635c8.365-.973 15.957 5.043 16.928 13.405.47 4.05-.665 8.042-3.196 11.239z"/><path d="m256.607 348.119h.001c5.305-2.507 9.947-6.346 13.423-11.102l23.721-32.446c11.135-15.229 13.114-35.139 5.167-51.96l-12.506-26.47c-7.939-16.803-24.548-27.911-43.359-29.002l-25.04-1.729 19.579-27.583c11.459-15.743 8.003-37.88-7.724-49.379-15.745-11.511-37.925-8.067-49.438 7.68l-23.722 32.446c-11.133 15.231-13.112 35.141-5.166 51.96l12.507 26.47c7.947 16.821 24.586 27.934 43.42 29.004.094.005.188.009.281.012l25.302.729-20.19 28.579c-5.54 7.616-7.793 16.93-6.347 26.24 1.45 9.337 6.451 17.551 14.079 23.128 6.173 4.513 13.5 6.822 20.881 6.822 5.141 0 10.311-1.121 15.131-3.399zm-83.665-177.677 23.721-32.445c4.969-6.796 14.541-8.282 21.337-3.315 6.796 4.969 8.282 14.541 3.314 21.337-.028.038-.055.076-.082.114l-29.992 42.254c-.007.009-.011.02-.018.029l-14.23 18.907-7.266-15.379c-4.798-10.154-3.565-22.225 3.216-31.502zm35.536 75.482c-8.034-.489-15.38-3.96-20.699-9.492l16.422-21.819 37.528 2.591c.04.003.082.005.122.008 8.023.456 15.371 3.882 20.709 9.369l-15.316 20.46zm23.983 82.538c-3.292-2.407-5.449-5.952-6.076-9.981-.626-4.03.355-8.062 2.761-11.354.032-.044.065-.088.096-.133l29.573-41.862c.015-.02.033-.036.048-.056l14.531-19.412 7.341 15.537c4.798 10.154 3.565 22.225-3.217 31.501l-23.722 32.447c-1.524 2.085-3.468 3.695-5.78 4.788-5.072 2.396-11.032 1.832-15.555-1.475z"/><path d="m365.938 243.987c2.476.664 4.99.992 7.487.992 4.981 0 9.899-1.306 14.328-3.864l29.972-17.304c6.65-3.84 11.408-10.039 13.395-17.457s.967-15.165-2.873-21.815l-17.303-29.971c-7.927-13.727-25.541-18.448-39.272-10.522l-29.971 17.303c-13.728 7.926-18.449 25.543-10.523 39.272l17.304 29.97c3.839 6.652 10.038 11.409 17.456 13.396zm-14.183-65.222 29.97-17.304c1.357-.783 2.841-1.156 4.306-1.156 2.988 0 5.898 1.549 7.497 4.318l17.303 29.971c1.154 1.998 1.461 4.326.863 6.556-.597 2.229-2.027 4.092-4.025 5.246l-29.971 17.304c-1.998 1.153-4.325 1.462-6.556.863-2.229-.597-4.092-2.027-5.245-4.025l-17.304-29.97c-2.381-4.126-.964-9.421 3.162-11.803z"/><path d="m46.307 260.679 21.232 10.616h.001c3.275 1.637 6.758 2.413 10.193 2.413 8.397 0 16.496-4.637 20.5-12.644l10.616-21.231c2.733-5.466 3.174-11.669 1.241-17.466-1.932-5.798-6.006-10.495-11.471-13.228l-21.232-10.616c-5.463-2.733-11.666-3.174-17.465-1.242-5.798 1.933-10.496 6.007-13.228 11.473l-10.616 21.231c-5.643 11.282-1.053 25.051 10.229 30.694zm7.757-21.701 10.616-21.232c.424-.847 1.104-1.222 1.6-1.387.494-.166 1.263-.275 2.112.15l21.233 10.616c.847.424 1.222 1.104 1.387 1.6.166.496.274 1.266-.15 2.114l-10.616 21.231c-.682 1.366-2.349 1.921-3.715 1.238h.001l-21.232-10.616c-1.364-.682-1.92-2.348-1.236-3.714z"/><path d="m298.263 452.818c-1.678-5.876-5.545-10.746-10.886-13.714s-11.518-3.678-17.395-2l-22.824 6.52c-12.129 3.466-19.178 16.152-15.713 28.281l6.52 22.826c2.869 10.038 12.051 16.595 22.006 16.595 2.074 0 4.184-.285 6.275-.883l22.825-6.52c5.876-1.679 10.746-5.544 13.714-10.886 2.967-5.342 3.677-11.52 1.998-17.395zm-13.057 30.452c-.253.457-.748 1.056-1.659 1.317l-22.825 6.52c-1.472.42-3.002-.434-3.422-1.901l-6.52-22.825c-.419-1.467.434-3.003 1.902-3.422l22.824-6.52c.911-.261 1.648-.012 2.104.242.458.254 1.058.748 1.318 1.659l6.52 22.826c.26.912.012 1.648-.242 2.104z"/></g><g><path d="m94.492 48.956 8.259 23.224c.354.994 1.054 1.782 1.937 2.18l20.633 9.296c2.915 1.313 2.915 5.958 0 7.271l-20.633 9.296c-.883.398-1.583 1.186-1.937 2.18l-8.259 23.224c-1.167 3.281-5.293 3.281-6.46 0l-8.259-23.224c-.354-.994-1.054-1.782-1.937-2.18l-20.633-9.296c-2.915-1.313-2.915-5.958 0-7.271l20.633-9.296c.883-.398 1.584-1.186 1.937-2.18l8.259-23.224c1.166-3.28 5.293-3.28 6.46 0z" fill="#cab4ef"/><path d="m402.836 2.499 6.127 17.227c.262.738.782 1.322 1.437 1.617l15.306 6.896c2.162.974 2.162 4.419 0 5.394l-15.306 6.896c-.655.295-1.175.88-1.437 1.617l-6.127 17.227c-.866 2.434-3.926 2.434-4.792 0l-6.127-17.227c-.262-.738-.781-1.322-1.437-1.617l-15.306-6.896c-2.162-.974-2.162-4.419 0-5.394l15.306-6.896c.655-.295 1.175-.88 1.437-1.617l6.127-17.227c.865-2.433 3.926-2.433 4.792 0z" fill="#ffc7b6"/><circle cx="311.72" cy="91.968" fill="#8bb6ef" r="18.035"/><circle cx="148.997" cy="38.716" fill="#ef8bbd" r="7.78"/><circle cx="469.953" cy="157.61" fill="#ffe266" r="7.78"/></g></g></svg>