<svg id="Layer_1" enable-background="new 0 0 512 512" viewBox="0 0 512 512" xmlns="http://www.w3.org/2000/svg"><g clip-rule="evenodd" fill-rule="evenodd"><g><g><path d="m399.73 445.385c-7.025-93.638-85.839-168.079-181.195-168.079s-174.169 74.442-181.194 168.079c-.555 7.398 5.222 13.624 12.64 13.624h337.107c7.42 0 13.196-6.225 12.642-13.624z" fill="#72d561"/><path d="m399.73 445.386c-7.025-93.638-85.839-168.08-181.195-168.08-4.284 0-8.533.156-12.746.452 89.545 6.282 161.739 78.197 168.449 167.628.554 7.398-5.222 13.623-12.641 13.623h25.491c7.42 0 13.196-6.225 12.642-13.623z" fill="#3cbe52"/><circle cx="218.535" cy="179.102" fill="#ffd6bd" r="98.205"/><path d="m218.536 80.897c54.237 0 98.205 43.968 98.205 98.205s-43.968 98.205-98.205 98.205c-3.647 0-7.245-.205-10.789-.592 49.16-5.373 87.416-47.022 87.416-97.612s-38.256-92.239-87.416-97.612c3.543-.389 7.142-.594 10.789-.594z" fill="#f9c6aa"/></g><g><path d="m218.536 379.274-65.09-89.846c-15.411 5.961-29.824 13.97-42.9 23.69 4.202 48.631-1.664 97.261-17.597 145.892h251.175c-15.934-48.631-21.799-97.261-17.598-145.892-13.076-9.719-27.489-17.729-42.9-23.69z" fill="#ffda2d"/><g fill="#ffc700"><path d="m325.322 334.773c.18-7.217.58-14.434 1.204-21.651-.087-.065-.172-.132-.26-.197l-.053-.039c-1.102-.816-2.214-1.62-3.335-2.411l-.038-.027c-1.12-.79-2.25-1.568-3.389-2.333l-.074-.05c-1.137-.763-2.282-1.515-3.437-2.253l-.038-.024c-1.163-.743-2.335-1.474-3.516-2.191l-.041-.025c-1.182-.718-2.373-1.422-3.572-2.114l-.018-.011c-1.2-.691-2.408-1.37-3.625-2.034l-.052-.028c-1.206-.659-2.421-1.304-3.645-1.936l-.066-.034c-1.228-.634-2.464-1.255-3.709-1.862l-.038-.018c-1.246-.607-2.5-1.201-3.761-1.78l-.043-.02c-1.268-.582-2.543-1.15-3.827-1.703l-.014-.006c-1.279-.551-2.565-1.088-3.859-1.611l-.059-.024c-.809-.326-1.626-.637-2.441-.952l-6.326 8.731c17.986 9.487 34.211 21.902 48.032 36.603z"/><path d="m218.536 379.274-10.97-10.06v89.795h10.97z"/><path d="m218.536 379.274-65.09-89.846c-3.303 1.277-6.561 2.649-9.769 4.112l68.485 94.533zm112.838 79.735h12.749c-15.934-48.631-21.799-97.261-17.598-145.892-13.076-9.72-27.489-17.729-42.9-23.69l-2.98 4.112c11.759 5.361 22.858 11.941 33.131 19.577-4.201 48.632 1.665 97.262 17.598 145.893z"/></g></g><g><path d="m110.829 150.016v-16.951c0-59.238 48.468-107.706 107.707-107.706 59.24 0 107.708 48.468 107.708 107.706v16.951z" fill="#ffda2d"/><path d="m212.499 25.533c1.999-.112 4.01-.174 6.036-.174 59.24 0 107.708 48.467 107.708 107.706v16.951h-12.073v-16.951c.001-57.213-45.211-104.373-101.671-107.532z" fill="#ffc700"/><path d="m237.698 153.625-38.325-2.204v-131.154c0-6.197 5.071-11.268 11.268-11.268h15.789c6.197 0 11.268 5.071 11.268 11.268z" fill="#ffc700"/><path d="m237.698 153.625-10.582-.609v-132.749c0-6.197-5.07-11.268-11.268-11.268h10.582c6.197 0 11.268 5.071 11.268 11.268z" fill="#fdb800"/><path d="m111.062 140.326h214.946c7.212 0 13.112 5.901 13.112 13.113v4.682c0 7.212-5.901 13.113-13.112 13.113h-214.946c-7.212 0-13.112-5.901-13.112-13.113v-4.682c0-7.212 5.901-13.113 13.112-13.113z" fill="#ffda2d"/><path d="m338.695 161.43c.278-1.058.426-2.167.426-3.309v-4.682c0-7.212-5.9-13.113-13.112-13.113h-214.947c-7.212 0-13.112 5.901-13.112 13.113v4.682c0 1.142.149 2.251.426 3.309 1.476-5.623 6.617-9.803 12.686-9.803h214.947c6.069 0 11.21 4.18 12.686 9.803z" fill="#ffc700"/></g><g><path d="m474.695 326.255c-66.036-39.178-108.444-39.179-174.48 0v75.296c0 25.334 10.89 46.575 31.462 61.361l55.778 40.089 55.776-40.089c20.572-14.786 31.464-36.026 31.464-61.361z" fill="#72d561"/><path d="m474.695 326.255c-4.626-2.745-9.133-5.29-13.543-7.65v73.212c0 25.335-10.892 46.575-31.464 61.361l-55.776 40.088-42.241-30.359.006.005 55.778 40.089 55.776-40.089c20.572-14.786 31.464-36.026 31.464-61.361z" fill="#3cbe52"/><path d="m446.797 342.543c-44.497-23.634-74.187-23.635-118.684 0v59.008c0 16.348 6.571 29.166 19.846 38.707l39.496 28.387 39.495-28.386c13.276-9.541 19.848-22.359 19.848-38.707v-59.009z" fill="#3cbe52"/><path d="m339.852 336.709c-3.807 1.752-7.711 3.695-11.739 5.834v59.008c0 16.348 6.571 29.166 19.846 38.707l39.496 28.387 11.739-8.437-39.496-28.386c-13.275-9.541-19.846-22.359-19.846-38.707z" fill="#30aa44"/></g></g><path d="m379.322 396.299 30.794-31.089c3.112-3.13 8.158-3.161 11.318-.051 3.112 3.111 3.16 8.171.047 11.31l-36.406 36.731c-1.556 1.578-3.584 2.369-5.659 2.369-2.028 0-4.056-.759-5.564-2.269l-20.325-19.789c-3.159-3.08-3.207-8.14-.141-11.31 3.065-3.161 8.158-3.231 11.318-.14zm59.465 5.25v-54.15c-38.292-19.41-64.37-19.41-102.662 0v54.15c0 13.69 5.376 24.231 16.505 32.211l34.849 25.031 34.802-25.031c11.13-7.991 16.506-18.521 16.506-32.211zm-51.354-84.729c-19.335 0-38.764 5.749-63.097 18.658-2.594 1.391-4.244 4.101-4.244 7.061v59.009c0 18.941 7.828 34.151 23.202 45.201l39.518 28.389c1.368 1 3.018 1.501 4.669 1.501 1.603 0 3.254-.501 4.622-1.501l39.518-28.389c15.373-11.05 23.202-26.26 23.202-45.201v-59.008c0-2.949-1.651-5.67-4.291-7.061-24.286-12.909-43.762-18.658-63.05-18.658-.049-.001-.002-.001-.049-.001zm79.271 84.729v-70.709c-60.126-34.751-98.37-34.751-158.496 0v70.709c0 22.671 9.714 41.641 28.153 54.87l51.119 36.73 51.072-36.73c18.391-13.229 28.152-32.199 28.152-54.87zm-420.173 47.981c-.896-.951-1.32-2.211-1.226-3.55 3.49-46.461 25.418-87.741 58.24-116.822 1.65 40.5-3.867 81.391-16.458 121.851h-37.113c-1.321 0-2.547-.53-3.443-1.479zm81.818-270.301h180.378c-.047 49.68-40.508 90.08-90.165 90.08-49.704 0-90.165-40.401-90.213-90.08zm-22.399-21.11v-4.679c0-2.771 2.358-5.11 5.093-5.11h214.944c2.783 0 5.14 2.339 5.14 5.11v4.679c0 2.771-2.358 5.11-5.14 5.11h-214.944c-2.736 0-5.093-2.34-5.093-5.11zm50.458-103.019 3.961 59.079c.283 4.22 3.773 7.46 7.97 7.46.189 0 .33 0 .519-.011 4.433-.301 7.781-4.11 7.451-8.52l-4.528-68.108c6.131-3.27 12.685-5.909 19.57-7.852v95.182h-72.481c.189-30.952 14.62-58.96 37.538-77.23zm54.231-38.098h15.798c1.745 0 3.254 1.5 3.254 3.268v112.059h-22.305v-112.059c-.001-1.769 1.461-3.268 3.253-3.268zm54.656 27.998-4.527 68.109c-.33 4.41 3.018 8.22 7.451 8.52.141.011.33.011.519.011 4.197 0 7.687-3.24 7.97-7.46l3.961-59.079c22.919 18.27 37.349 46.278 37.585 77.229h-72.575v-95.182c6.883 1.943 13.438 4.582 19.616 7.852zm-54.75 336.87-59.843-82.621c-11.271 4.811-21.928 10.791-31.831 17.782 3.301 44.488-1.792 89.489-15.043 133.979h106.717zm8.017-16.231-52.344-72.19c16.552-5.29 34.142-8.14 52.344-8.14 17.967 0 35.557 2.739 52.298 8.079zm89.505 85.37h-81.535v-69.14l59.89-82.691c8.158 3.491 16.034 7.611 23.626 12.351-4.527 2.41-9.149 5.02-13.911 7.849-2.405 1.44-3.914 4.051-3.914 6.88v75.29c-.001 18.802 5.422 35.542 15.844 49.461zm170.71-131.63c-35.557-21.099-63.71-30.509-91.297-30.509-19.24 0-38.763 4.579-60.833 14.479-19.099-13.35-40.131-22.92-62.295-28.44 35.651-17.12 60.362-53.57 60.409-95.68h1.226c11.648 0 21.127-9.47 21.127-21.11v-4.679c0-8.721-5.329-16.222-12.874-19.442v-.928c0-27.191-9.714-53.651-27.351-74.511-15.939-18.87-37.49-32.159-61.21-37.931v-.358c0-10.629-8.63-19.268-19.24-19.268h-15.798c-10.611 0-19.287 8.639-19.287 19.268v.358c-23.673 5.772-45.224 19.061-61.163 37.931-17.637 20.86-27.351 47.319-27.351 74.511v.928c-7.545 3.22-12.874 10.721-12.874 19.442v4.679c0 11.64 9.479 21.11 21.08 21.11h1.273c.047 42.151 24.805 78.621 60.503 95.721-77.53 19.45-137.231 87.099-143.456 169.84-.424 5.729 1.556 11.428 5.423 15.619 3.914 4.191 9.431 6.6 15.185 6.6h273.844c1.038.811 2.122 1.619 3.207 2.4l55.787 40.089c1.368 1 3.018 1.5 4.669 1.5 1.603 0 3.254-.499 4.622-1.5l55.787-40.089c22.777-16.36 34.802-39.83 34.802-67.861v-75.29c-.001-2.828-1.463-5.439-3.915-6.879z"/></g></svg>