<svg id="Layer_1" viewBox="0 0 1000 1000" xmlns="http://www.w3.org/2000/svg" data-name="Layer 1"><path d="m516 330.31v409.22c21.53-11.57 46.28-22.17 73.93-31.63 64.59-22.12 133.29-33.91 204.35-35.09v-423.69c-168.07-8.53-258.23 63.01-278.28 81.19zm199.82 83.46a62 62 0 0 1 -24.89 46.41l7.07 131.47v1.15s0 .6 0 .9a43.23 43.23 0 0 1 -13.49 29.87 42.39 42.39 0 0 1 -29.39 11.77h-1.45a43.14 43.14 0 0 1 -41.46-42c0-.44 0-.88 0-1.31l7.1-131.82a62 62 0 0 1 -24.89-46.41 141.86 141.86 0 0 1 2.88-35.09c.43-2.08.85-4.33 1.26-6.68 6.08-34.46 29.77-48 42.81-50.61l.36-.06a66.11 66.11 0 0 1 10.4-1c.93-.05 1.88-.08 2.87-.08h.19c1 0 1.95 0 2.88.08a66.11 66.11 0 0 1 10.4 1l.36.06c13 2.59 36.73 16.15 42.8 50.59.42 2.37.84 4.62 1.27 6.71a141.82 141.82 0 0 1 2.92 35.05z" fill="#bbdefb"/><path d="m415.67 286.4c-42.55-20-112.83-42.17-210-37.28v423.69c71.07 1.18 139.76 13 204.35 35.09 27.65 9.46 52.41 20.06 73.94 31.63v-409.21c-8.86-8.05-31.56-26.63-68.29-43.92zm23.72 335.73a16 16 0 0 1 -20.94 8.56c-73.4-30.79-128-36.92-153.95-37.84a16 16 0 0 1 1.12-32c34.42 1.21 91 9.2 165.21 40.32a16 16 0 0 1 8.56 20.96zm0-82a16 16 0 0 1 -20.94 8.56c-73.4-30.79-128-36.92-153.95-37.84a16 16 0 0 1 1.12-32c34.42 1.22 91 9.2 165.21 40.32a16 16 0 0 1 8.56 20.91zm0-82.05a16 16 0 0 1 -20.94 8.56c-73.4-30.79-128-36.92-153.95-37.84a16 16 0 0 1 1.12-32c34.42 1.21 91 9.2 165.21 40.32a16 16 0 0 1 8.56 20.88zm0-82a16 16 0 0 1 -20.94 8.56c-73.4-30.79-128-36.92-153.95-37.84a16 16 0 0 1 1.12-32c34.42 1.22 91 9.2 165.21 40.32a16 16 0 0 1 8.56 20.88z" fill="#bbdefb"/><path d="m884 309.75v441.84h-319q16.63-7 35.29-13.42c64.85-22.2 134.12-33.46 205.89-33.46h4.1a16 16 0 0 0 16-16v-379z" fill="#90caf9"/><path d="m435 751.59h-319v-441.84h57.71v379a16 16 0 0 0 16 16h4.11c71.76 0 141 11.26 205.88 33.46q18.66 6.34 35.3 13.38z" fill="#90caf9"/><path d="m683.88 411.93c-.61 10.54-6.41 19.91-15.13 24.47l-1 .49a16 16 0 0 0 -9.3 15.39l7.55 140.65a11.47 11.47 0 0 1 -3.53 7.44 10.74 10.74 0 0 1 -7.74 3 11.09 11.09 0 0 1 -10.51-10.42l7.57-140.64a16 16 0 0 0 -9.3-15.39l-1-.49c-8.71-4.56-14.51-13.93-15.12-24.47-.64-11.09 1.38-22.43 2.29-26.81.49-2.39 1-4.95 1.43-7.59 3.48-19.77 15.39-24.11 17.65-24.77a33.36 33.36 0 0 1 5-.43h1s.88 0 1.37 0 .94 0 1.37 0 .66 0 1 0a32.62 32.62 0 0 1 5.22.47c1.09.29 13.8 4.1 17.43 24.71.47 2.66 1 5.23 1.45 7.62.92 4.34 2.94 15.69 2.3 26.77z" fill="#bdbdbd"/><g fill="#fff" opacity=".5"><path d="m506 340.31v409.22c21.53-11.57 46.28-22.17 73.93-31.63 64.59-22.12 133.29-33.91 204.35-35.09v-423.69c-168.07-8.53-258.23 63.01-278.28 81.19zm199.82 83.46a62 62 0 0 1 -24.89 46.41l7.07 131.47v1.15s0 .6 0 .9a43.23 43.23 0 0 1 -13.49 29.87 42.39 42.39 0 0 1 -29.39 11.77h-1.45a43.14 43.14 0 0 1 -41.46-42c0-.44 0-.88 0-1.31l7.1-131.82a62 62 0 0 1 -24.89-46.41 141.86 141.86 0 0 1 2.88-35.09c.43-2.08.85-4.33 1.26-6.68 6.08-34.46 29.77-48 42.81-50.61l.36-.06a66.11 66.11 0 0 1 10.4-1c.93-.05 1.88-.08 2.87-.08h.19c1 0 1.95 0 2.88.08a66.11 66.11 0 0 1 10.4 1l.36.06c13 2.59 36.73 16.15 42.8 50.59.42 2.37.84 4.62 1.27 6.71a141.82 141.82 0 0 1 2.92 35.05z"/><path d="m405.67 296.4c-42.55-20-112.83-42.17-210-37.28v423.69c71.07 1.18 139.76 13 204.35 35.09 27.65 9.46 52.41 20.06 73.94 31.63v-409.21c-8.86-8.05-31.56-26.63-68.29-43.92zm23.72 335.73a16 16 0 0 1 -20.94 8.56c-73.4-30.79-128-36.92-153.95-37.84a16 16 0 0 1 1.12-32c34.42 1.21 91 9.2 165.21 40.32a16 16 0 0 1 8.56 20.96zm0-82a16 16 0 0 1 -20.94 8.56c-73.4-30.79-128-36.92-153.95-37.84a16 16 0 0 1 1.12-32c34.42 1.22 91 9.2 165.21 40.32a16 16 0 0 1 8.56 20.91zm0-82.05a16 16 0 0 1 -20.94 8.56c-73.4-30.79-128-36.92-153.95-37.84a16 16 0 0 1 1.12-32c34.42 1.21 91 9.2 165.21 40.32a16 16 0 0 1 8.56 20.88zm0-82a16 16 0 0 1 -20.94 8.56c-73.4-30.79-128-36.92-153.95-37.84a16 16 0 0 1 1.12-32c34.42 1.22 91 9.2 165.21 40.32a16 16 0 0 1 8.56 20.88z"/><path d="m874 319.75v441.84h-319q16.63-7 35.29-13.42c64.85-22.2 134.12-33.46 205.89-33.46h4.1a16 16 0 0 0 16-16v-379z"/><path d="m425 761.59h-319v-441.84h57.71v379a16 16 0 0 0 16 16h4.11c71.76 0 141 11.26 205.88 33.46q18.66 6.34 35.3 13.38z"/><path d="m673.88 421.93c-.61 10.54-6.41 19.91-15.13 24.47l-1 .49a16 16 0 0 0 -9.3 15.39l7.55 140.65a11.47 11.47 0 0 1 -3.53 7.44 10.74 10.74 0 0 1 -7.74 3 11.09 11.09 0 0 1 -10.51-10.42l7.57-140.64a16 16 0 0 0 -9.3-15.39l-1-.49c-8.71-4.56-14.51-13.93-15.12-24.47-.64-11.09 1.38-22.43 2.29-26.81.49-2.39 1-4.95 1.43-7.59 3.48-19.77 15.39-24.11 17.65-24.77a33.36 33.36 0 0 1 5-.43h1s.88 0 1.37 0 .94 0 1.37 0 .66 0 1 0a32.62 32.62 0 0 1 5.22.47c1.09.29 13.8 4.1 17.43 24.71.47 2.66 1 5.23 1.45 7.62.92 4.34 2.94 15.69 2.3 26.77z"/></g><g fill="#413b32"><path d="m811.51 218.16c-49.66-3.82-97.43-1.35-142 7.35a421.5 421.5 0 0 0 -100.51 32.76c-33.53 16-56.37 32.9-69 43.53a146.45 146.45 0 0 0 -11.69 10.77 16 16 0 0 0 -4.31 10.93v444.09a15.65 15.65 0 0 0 .15 2.18c0 .17.05.35.08.52s.06.33.09.5q.1.5.24 1a13.47 13.47 0 0 0 .59 1.76c.08.19.15.38.24.56a.42.42 0 0 0 .06.14c.11.24.22.47.34.7a4.92 4.92 0 0 0 .24.45l.25.44c.18.29.36.57.55.85s.2.29.31.43l.33.42c.22.28.45.55.68.82s.59.61.89.89.51.47.78.69.4.33.6.48l.53.38.41.27.23.15.63.36.39.21a5.28 5.28 0 0 0 .53.27l.24.11.46.2.15.06.21.08.16.06.45.16.63.2a5.12 5.12 0 0 0 .56.15h.09.24.08c.29.08.58.13.87.18h.3l.52.07.72.06a3.91 3.91 0 0 0 .49 0h.67.71.36.46.19.18.12.16q.39 0 .75-.12a.4.4 0 0 0 .15 0 4.1 4.1 0 0 0 .48-.1.58.58 0 0 0 .18 0h.22l.2-.05.45-.13.3-.09h.06l.24-.08.61-.22a1.53 1.53 0 0 0 .27-.11l.15-.06a1.69 1.69 0 0 0 .28-.12l.29-.13a4.44 4.44 0 0 0 .49-.24.42.42 0 0 0 .13-.07l.39-.21a.18.18 0 0 0 .08-.05l.33-.18.32-.2a2.2 2.2 0 0 0 .28-.18l.28-.18c15.91-10.51 34.65-20.28 55.91-29.28q16.63-7 35.29-13.42c64.85-22.2 134.12-33.46 205.89-33.46h4.1a16 16 0 0 0 16-16v-454.6a16 16 0 0 0 -14.77-15.95zm-17.23 454.65c-71.06 1.18-139.76 13-204.35 35.09-27.65 9.46-52.4 20.06-73.93 31.63v-409.22c20-18.18 110.21-89.72 278.28-81.19z"/><path d="m511.68 312.57a143 143 0 0 0 -11.68-10.77c-12.6-10.63-35.44-27.55-69-43.53a421.5 421.5 0 0 0 -100.57-32.76c-44.55-8.7-92.31-11.17-142-7.35a16 16 0 0 0 -14.77 16v454.6a16 16 0 0 0 16 16h4.11c71.76 0 141 11.26 205.88 33.46q18.66 6.38 35.3 13.42c21.27 9 40 18.77 55.95 29.2l.41.27.23.15.63.36.39.21a14.82 14.82 0 0 0 2.83 1.14 5.12 5.12 0 0 0 .56.15l.33.08h.08a.15.15 0 0 0 .09 0 4.48 4.48 0 0 0 .5.11l.28.05h.3l.52.07h.4.32a3.91 3.91 0 0 0 .49 0h.67.71.36.44.36.2.16q.39 0 .75-.12a.4.4 0 0 0 .15 0 4.1 4.1 0 0 0 .48-.1h.14.22.07a5.5 5.5 0 0 0 .58-.16l.3-.09h.06l.24-.08.61-.22a1.53 1.53 0 0 0 .27-.11l.15-.06a1.69 1.69 0 0 0 .28-.12l.29-.13a4.44 4.44 0 0 0 .49-.24.42.42 0 0 0 .13-.07 1.66 1.66 0 0 0 .27-.13l.12-.08a.18.18 0 0 0 .08-.05l.33-.18.32-.2a2.2 2.2 0 0 0 .28-.18l.14-.09.26-.18c.13-.09.26-.18.38-.28l.37-.29a3.47 3.47 0 0 0 .37-.3c.26-.22.52-.44.76-.68a.19.19 0 0 0 .07-.06 17.41 17.41 0 0 0 1.41-1.56c.19-.24.37-.49.55-.74a.47.47 0 0 0 .09-.12c.17-.24.34-.5.5-.76s.44-.77.64-1.16.27-.56.39-.85a1.17 1.17 0 0 0 0-.11c.12-.3.24-.59.34-.89s.23-.68.32-1a13.63 13.63 0 0 0 .44-2.11c0-.35.09-.71.11-1.06 0-.36 0-.73 0-1.09v-444.28a16 16 0 0 0 -4.23-10.93zm-101.62 395.33c-64.59-22.12-133.28-33.9-204.35-35.09v-423.69c97.13-4.89 167.41 17.26 210 37.28 36.73 17.29 59.43 35.87 68.33 43.92v409.21c-21.57-11.53-46.33-22.17-73.98-31.63z"/><path d="m916 293.75v473.84a16 16 0 0 1 -16 16h-400c-.23 0-.45 0-.67 0a3.91 3.91 0 0 1 -.49 0h-.32-.4l-.52-.07h-.3c-.29-.05-.58-.1-.87-.18a1.83 1.83 0 0 1 -.32-.07c-.22-.05-.44-.11-.65-.18l-.63-.2-.45-.16-.16-.06-.21-.08-.15-.06-.46-.2-.24-.11a5.28 5.28 0 0 1 -.53-.27l-.39-.21-.63-.36-.25-.16-.41-.27-.53-.38q-.3-.23-.6-.48t-.78-.69c-.3-.28-.6-.58-.89-.89s-.46-.54-.68-.82l-.33-.42c-.11-.14-.21-.29-.31-.43s-.37-.56-.55-.85l-.25-.44a4.92 4.92 0 0 1 -.24-.45c-.12-.23-.23-.46-.34-.7a.42.42 0 0 1 -.06-.14c-.09-.18-.16-.37-.24-.56a13.47 13.47 0 0 1 -.59-1.76q-.13-.49-.24-1c0-.17-.07-.33-.09-.5s-.05-.35-.08-.52a15.65 15.65 0 0 1 -.15-2.18 16 16 0 0 1 16-16h384v-441.99h-73.72a16 16 0 0 1 0-32h89.72a16 16 0 0 1 16 16z"/><path d="m516 767.59v1.09c0 .35-.06.71-.11 1.06a13.63 13.63 0 0 1 -.44 2.11c-.09.34-.2.68-.32 1a15.63 15.63 0 0 1 -2.56 4.63 13.07 13.07 0 0 1 -1.41 1.56.19.19 0 0 1 -.07.06c-.24.24-.5.46-.76.68a12.82 12.82 0 0 1 -1.24 1l-.28.18a2.2 2.2 0 0 1 -.28.18l-.32.2-.54.31a1.66 1.66 0 0 1 -.27.13.42.42 0 0 1 -.13.07 4.44 4.44 0 0 1 -.49.24l-.29.13a1.69 1.69 0 0 1 -.28.12l-.15.06a1.53 1.53 0 0 1 -.27.11l-.61.22-.24.08h-.06l-.3.09c-.21.07-.43.13-.65.18h-.22a.58.58 0 0 1 -.18 0 4.1 4.1 0 0 1 -.48.1.4.4 0 0 1 -.15 0q-.36.07-.75.12h-.16-.23-.65-.36-.71-400.04a16 16 0 0 1 -16-16v-473.55a16 16 0 0 1 16-16h89.71a16 16 0 1 1 0 32h-73.71v441.84h384a16 16 0 0 1 16 16z"/><path d="m712.94 378.69c-.43-2.09-.85-4.34-1.27-6.71-6.07-34.44-29.76-48-42.8-50.59l-.36-.06a66.11 66.11 0 0 0 -10.4-1c-.93-.05-1.88-.08-2.88-.08h-.23c-1 0-1.94 0-2.87.08a66.11 66.11 0 0 0 -10.4 1l-.36.06c-13 2.59-36.73 16.15-42.81 50.61-.41 2.35-.83 4.6-1.26 6.68a141.86 141.86 0 0 0 -2.88 35.09 62 62 0 0 0 24.89 46.41l-7.06 131.82v1.31a43.14 43.14 0 0 0 41.46 42h1.45a42.39 42.39 0 0 0 29.39-11.77 43.23 43.23 0 0 0 13.45-29.84c0-.3 0-.6 0-.9s0-.77 0-1.15l-7.07-131.47a62 62 0 0 0 24.89-46.41 141.82 141.82 0 0 0 -2.88-35.08zm-29.06 33.24c-.61 10.54-6.41 19.91-15.13 24.47l-1 .49a16 16 0 0 0 -9.3 15.39l7.55 140.65a11.47 11.47 0 0 1 -3.53 7.44 10.74 10.74 0 0 1 -7.74 3 11.09 11.09 0 0 1 -10.51-10.42l7.57-140.64a16 16 0 0 0 -9.3-15.39l-1-.49c-8.71-4.56-14.51-13.93-15.12-24.47-.64-11.09 1.38-22.43 2.29-26.81.49-2.39 1-4.95 1.43-7.59 3.48-19.77 15.39-24.11 17.65-24.77a33.36 33.36 0 0 1 5-.43h1s.88 0 1.37 0 .94 0 1.37 0 .66 0 1 0a32.62 32.62 0 0 1 5.22.47c1.09.29 13.8 4.1 17.43 24.71.47 2.66 1 5.23 1.45 7.62.92 4.34 2.94 15.69 2.3 26.77z"/><path d="m439.39 376a16 16 0 0 1 -20.94 8.56c-73.4-30.79-128-36.92-153.95-37.84a16 16 0 0 1 1.12-32c34.42 1.22 91 9.2 165.21 40.32a16 16 0 0 1 8.56 20.96z"/><path d="m439.39 458a16 16 0 0 1 -20.94 8.56c-73.4-30.79-128-36.92-153.95-37.84a16 16 0 0 1 1.12-32c34.42 1.21 91 9.2 165.21 40.32a16 16 0 0 1 8.56 20.96z"/><path d="m439.39 540.08a16 16 0 0 1 -20.94 8.56c-73.4-30.79-128-36.92-153.95-37.84a16 16 0 0 1 1.12-32c34.42 1.22 91 9.2 165.21 40.32a16 16 0 0 1 8.56 20.96z"/><path d="m439.39 622.13a16 16 0 0 1 -20.94 8.56c-73.4-30.79-128-36.92-153.95-37.84a16 16 0 0 1 1.12-32c34.42 1.21 91 9.2 165.21 40.32a16 16 0 0 1 8.56 20.96z"/></g></svg>