<svg id="Layer_1" enable-background="new 0 0 64 64" viewBox="0 0 64 64" xmlns="http://www.w3.org/2000/svg"><g><g><path d="m51.18 25c4.55 2.89 7.56 7.96 7.56 13.74 0 8.97-7.27 16.25-16.25 16.25-5.2 0-9.82-2.44-12.78-6.23 0 0 3.87-6.66 3.39-9.94 0 0 12.69 3.1 17.4-12.64z" fill="#ffa669"/></g><g><ellipse cx="18.3" cy="39.33" fill="#ffa669" rx="14.8" ry="14.8" transform="matrix(.707 -.707 .707 .707 -22.449 24.458)"/></g><g><path d="m20.74 31.18c0 1.61-1.31 2.92-2.92 2.92s-2.92-1.31-2.92-2.92 1.31-2.92 2.92-2.92 2.92 1.31 2.92 2.92z" fill="#ffeba8"/></g><g><path d="m27.63 38.46c0 1.12-.91 2.03-2.03 2.03s-2.03-.91-2.03-2.03.91-2.03 2.03-2.03 2.03.91 2.03 2.03z" fill="#ffeba8"/></g><g><path d="m18.29 47.07c0 1.39-1.12 2.51-2.51 2.51s-2.51-1.12-2.51-2.51 1.12-2.51 2.51-2.51 2.51 1.13 2.51 2.51z" fill="#ffeba8"/></g><g><path d="m10.23 38.15c0 .97-.79 1.76-1.76 1.76s-1.76-.79-1.76-1.76.79-1.76 1.76-1.76c.98 0 1.76.79 1.76 1.76z" fill="#ffeba8"/></g><g><path d="m52.73 37.78c0 1.23-1 2.23-2.23 2.23s-2.23-1-2.23-2.23 1-2.23 2.23-2.23 2.23 1 2.23 2.23z" fill="#ffeba8"/></g><g><path d="m42.48 47.24c0 1.52-1.23 2.75-2.75 2.75s-2.75-1.23-2.75-2.75 1.23-2.75 2.75-2.75c1.52-.01 2.75 1.22 2.75 2.75z" fill="#ffeba8"/></g><g><path d="m33.1 39.25c.47.05.95.06 1.43.06 9.3 0 16.83-7.54 16.83-16.84s-7.53-16.84-16.83-16.84-16.84 7.54-16.84 16.84c0 .69.05 1.38.13 2.06z" fill="#ffa669"/></g><g><path d="m37.31 11.7c0 1.84-1.49 3.32-3.32 3.32-1.84 0-3.32-1.49-3.32-3.32 0-1.84 1.49-3.32 3.32-3.32s3.32 1.49 3.32 3.32z" fill="#ffeba8"/></g><g><circle cx="42.83" cy="21.49" fill="#ffeba8" r="2.31"/></g><g><path d="m32.15 34.09c1.35-.22 2.37-1.39 2.37-2.81 0-1.57-1.27-2.85-2.85-2.85-.92 0-1.74.44-2.26 1.13z" fill="#ffeba8"/></g><g><path d="m25.95 20.65c0 1.01-.82 1.83-1.83 1.83s-1.83-.82-1.83-1.83.82-1.83 1.83-1.83c1.01.01 1.83.82 1.83 1.83z" fill="#ffeba8"/></g><g><path d="m18.3 55.13c-8.71 0-15.8-7.09-15.8-15.8s7.09-15.8 15.8-15.8 15.8 7.09 15.8 15.8-7.09 15.8-15.8 15.8zm0-29.61c-7.61 0-13.8 6.19-13.8 13.8s6.19 13.8 13.8 13.8 13.8-6.19 13.8-13.8-6.19-13.8-13.8-13.8z"/></g><g><path d="m17.82 35.1c-2.16 0-3.92-1.76-3.92-3.92s1.76-3.92 3.92-3.92 3.92 1.76 3.92 3.92-1.76 3.92-3.92 3.92zm0-5.84c-1.06 0-1.92.86-1.92 1.92s.86 1.92 1.92 1.92 1.92-.86 1.92-1.92-.86-1.92-1.92-1.92z"/></g><g><path d="m25.59 41.49c-1.67 0-3.03-1.36-3.03-3.03s1.36-3.03 3.03-3.03 3.03 1.36 3.03 3.03c.01 1.67-1.35 3.03-3.03 3.03zm0-4.06c-.57 0-1.03.46-1.03 1.03s.46 1.03 1.03 1.03 1.03-.46 1.03-1.03c.01-.57-.46-1.03-1.03-1.03z"/></g><g><path d="m15.78 50.58c-1.93 0-3.51-1.57-3.51-3.51 0-1.93 1.57-3.51 3.51-3.51 1.93 0 3.51 1.57 3.51 3.51s-1.57 3.51-3.51 3.51zm0-5.02c-.83 0-1.51.68-1.51 1.51s.68 1.51 1.51 1.51 1.51-.68 1.51-1.51-.68-1.51-1.51-1.51z"/></g><g><path d="m8.48 40.91c-1.52 0-2.76-1.24-2.76-2.76s1.24-2.76 2.76-2.76 2.76 1.24 2.76 2.76c-.01 1.52-1.24 2.76-2.76 2.76zm0-3.52c-.42 0-.76.34-.76.76s.34.76.76.76.76-.34.76-.76c-.01-.42-.35-.76-.76-.76z"/></g><g><path d="m11.14 34.37c-.4 0-.77-.24-.93-.62l-.24-.59c-.21-.51.04-1.09.55-1.3s1.09.04 1.3.55l.24.59c.21.51-.04 1.09-.55 1.3-.12.05-.25.07-.37.07z"/></g><g><path d="m10.23 46.22c-.39 0-.77-.24-.93-.62l-.24-.59c-.21-.51.04-1.09.55-1.3s1.1.04 1.3.55l.24.59c.21.51-.04 1.09-.55 1.3-.11.05-.24.07-.37.07z"/></g><g><path d="m17.82 40.91c-.39 0-.77-.24-.93-.62l-.24-.59c-.21-.51.04-1.09.55-1.3s1.09.04 1.3.55l.24.59c.21.51-.04 1.09-.55 1.3-.12.04-.25.07-.37.07z"/></g><g><path d="m24.5 48.87c-.4 0-.77-.24-.93-.62l-.24-.59c-.21-.51.04-1.09.55-1.3s1.09.04 1.3.55l.24.59c.21.51-.04 1.09-.55 1.3-.12.05-.25.07-.37.07z"/></g><g><path d="m26.19 32.8c-.39 0-.77-.24-.93-.62l-.24-.59c-.21-.51.04-1.09.55-1.3s1.09.04 1.3.55l.24.59c.21.51-.04 1.09-.55 1.3-.12.05-.25.07-.37.07z"/></g><g><path d="m42.49 55.99c-5.34 0-10.29-2.41-13.57-6.61-.34-.43-.26-1.06.17-1.4.44-.34 1.06-.26 1.4.17 2.9 3.71 7.27 5.84 11.99 5.84 8.41 0 15.25-6.84 15.25-15.25 0-5.26-2.65-10.08-7.09-12.9-.47-.3-.6-.91-.31-1.38.3-.47.92-.6 1.38-.31 5.02 3.19 8.02 8.64 8.02 14.58.01 9.52-7.73 17.26-17.24 17.26z"/></g><g><path d="m50.5 41.01c-1.78 0-3.23-1.45-3.23-3.23s1.45-3.23 3.23-3.23 3.23 1.45 3.23 3.23-1.45 3.23-3.23 3.23zm0-4.46c-.68 0-1.23.55-1.23 1.23s.55 1.23 1.23 1.23 1.23-.55 1.23-1.23-.55-1.23-1.23-1.23z"/></g><g><path d="m39.73 50.99c-2.07 0-3.75-1.68-3.75-3.75s1.68-3.75 3.75-3.75 3.75 1.68 3.75 3.75-1.68 3.75-3.75 3.75zm0-5.51c-.97 0-1.75.79-1.75 1.75s.79 1.75 1.75 1.75c.97 0 1.75-.79 1.75-1.75s-.79-1.75-1.75-1.75z"/></g><g><path d="m55.13 43.83c-.39 0-.77-.24-.93-.62l-.26-.65c-.21-.51.04-1.09.55-1.3s1.09.04 1.3.55l.26.65c.21.51-.04 1.09-.55 1.3-.12.04-.24.07-.37.07z"/></g><g><path d="m35.57 44.48c-.39 0-.77-.24-.93-.62l-.26-.65c-.21-.51.04-1.09.55-1.3s1.09.04 1.3.55l.26.65c.21.51-.04 1.09-.55 1.3-.12.05-.24.07-.37.07z"/></g><g><path d="m42.96 41.82c-.39 0-.77-.24-.93-.62l-.26-.65c-.21-.51.04-1.09.55-1.3s1.09.04 1.3.55l.26.65c.21.51-.04 1.09-.55 1.3-.12.04-.25.07-.37.07z"/></g><g><path d="m49.29 49.12c-.39 0-.77-.24-.93-.62l-.26-.65c-.21-.51.04-1.09.55-1.3s1.09.04 1.3.55l.26.65c.21.51-.04 1.09-.55 1.3-.11.04-.24.07-.37.07z"/></g><g><path d="m52.86 32.83c-.39 0-.77-.24-.93-.62l-.26-.65c-.21-.51.04-1.09.55-1.3s1.09.04 1.3.55l.26.65c.21.51-.04 1.09-.55 1.3-.12.05-.24.07-.37.07z"/></g><g><path d="m34.53 40.32c-.55 0-1.05-.02-1.53-.07-.55-.05-.95-.54-.9-1.09s.55-.95 1.09-.9c.41.04.85.06 1.33.06 8.73 0 15.83-7.11 15.83-15.84s-7.1-15.84-15.83-15.84-15.84 7.11-15.84 15.84c0 .62.04 1.28.12 1.94.07.55-.32 1.05-.87 1.11-.55.08-1.05-.32-1.11-.87-.09-.74-.14-1.47-.14-2.18 0-9.84 8-17.84 17.84-17.84 9.83 0 17.83 8 17.83 17.84s-7.99 17.84-17.82 17.84z"/></g><g><path d="m33.98 16.03c-2.38 0-4.32-1.94-4.32-4.32s1.94-4.32 4.32-4.32 4.32 1.94 4.32 4.32c.01 2.38-1.93 4.32-4.32 4.32zm0-6.65c-1.28 0-2.32 1.04-2.32 2.32s1.04 2.32 2.32 2.32 2.32-1.04 2.32-2.32c.01-1.28-1.04-2.32-2.32-2.32z"/></g><g><path d="m42.83 24.8c-1.83 0-3.31-1.49-3.31-3.31s1.49-3.31 3.31-3.31c1.83 0 3.31 1.49 3.31 3.31s-1.49 3.31-3.31 3.31zm0-4.62c-.72 0-1.31.59-1.31 1.31s.59 1.31 1.31 1.31 1.31-.59 1.31-1.31-.59-1.31-1.31-1.31z"/></g><g><path d="m32.15 35.09c-.48 0-.91-.35-.99-.84-.09-.54.28-1.06.83-1.15.89-.15 1.53-.91 1.53-1.82 0-1.02-.83-1.85-1.85-1.85-.58 0-1.11.27-1.46.73-.33.44-.96.53-1.4.2s-.53-.96-.2-1.4c.72-.95 1.86-1.52 3.06-1.52 2.12 0 3.85 1.73 3.85 3.85 0 1.89-1.35 3.49-3.21 3.79-.05 0-.11.01-.16.01z"/></g><g><path d="m24.12 23.48c-1.56 0-2.83-1.27-2.83-2.83s1.27-2.83 2.83-2.83 2.83 1.27 2.83 2.83-1.27 2.83-2.83 2.83zm0-3.65c-.46 0-.83.37-.83.83s.37.83.83.83.83-.37.83-.83-.37-.83-.83-.83z"/></g><g><path d="m26.39 16.7c-.39 0-.77-.24-.93-.62l-.27-.68c-.21-.51.04-1.09.55-1.3s1.09.04 1.3.55l.27.68c.21.51-.04 1.09-.55 1.3-.12.05-.25.07-.37.07z"/></g><g><path d="m33.98 24.14c-.39 0-.77-.24-.93-.62l-.27-.67c-.21-.51.04-1.1.55-1.3.51-.21 1.1.04 1.3.55l.27.67c.21.51-.04 1.1-.55 1.3-.11.04-.24.07-.37.07z"/></g><g><path d="m41.58 33.2c-.39 0-.77-.24-.93-.62l-.27-.68c-.21-.51.04-1.09.55-1.3s1.09.04 1.3.55l.27.68c.21.51-.04 1.09-.55 1.3-.12.04-.24.07-.37.07z"/></g><g><path d="m43.5 14.92c-.4 0-.77-.24-.93-.62l-.27-.68c-.21-.51.04-1.09.55-1.3s1.09.04 1.3.55l.27.68c.21.51-.04 1.09-.55 1.3-.12.05-.24.07-.37.07z"/></g><g><path d="m14.38 20.83c-.54 0-.99-.43-1-.98-.19-8.57 7.64-14.03 7.97-14.25.45-.31 1.08-.19 1.39.26s.2 1.08-.26 1.39c-.07.05-7.27 5.09-7.1 12.56.01.55-.43 1.01-.98 1.02-.01 0-.01 0-.02 0z"/></g><g><path d="m42.3 59.37c-1.11 0-1.82-.08-1.92-.09-.55-.06-.94-.56-.88-1.11s.56-.95 1.11-.88c.09.01 8.8.95 14.22-4.52.39-.39 1.02-.4 1.41-.01s.4 1.02.01 1.41c-4.51 4.57-10.81 5.2-13.95 5.2z"/></g></g></svg>