<svg id="Capa_1" enable-background="new 0 0 512 512" viewBox="0 0 512 512" xmlns="http://www.w3.org/2000/svg"><g><g><g><g><path d="m311.219 175.704c10.609 0 20.981 1.025 31.033 2.96-15.594-10.142-22.109-30.317-14.519-47.99 1.032-2.404 2.279-4.649 3.707-6.724 2.707-3.934 1.234-9.285-2.969-11.553-.41-.221-.818-.453-1.223-.696-12.066-7.226-17.743-22.015-13.561-35.444.444-1.425.978-2.792 1.594-4.095 1.371-2.905.983-6.35-1.141-8.759-30.216-34.278-74.45-55.903-123.737-55.903-91.03 0-164.832 73.761-164.898 164.776-.055 76.151 51.769 140.42 122.012 159.353 4.173-86.684 76.001-155.925 163.702-155.925z" fill="#c96e59"/><path d="m327.734 130.674c1.032-2.404 2.279-4.649 3.707-6.724 2.707-3.934 1.234-9.285-2.969-11.553-.41-.221-.818-.453-1.223-.696-12.066-7.226-17.743-22.015-13.561-35.444.444-1.425.978-2.792 1.594-4.095 1.371-2.905.983-6.35-1.141-8.759-19.245-21.831-44.181-38.517-72.481-47.766 5.273 16.136 8.136 33.363 8.136 51.261 0 91.071-73.827 164.898-164.898 164.898-17.887 0-35.104-2.859-51.232-8.127 17.221 52.517 60.153 93.486 113.851 107.96 4.173-86.685 76.001-155.925 163.702-155.925 10.609 0 20.981 1.025 31.033 2.96-15.594-10.142-22.109-30.316-14.518-47.99z" fill="#bb5d4c"/><circle cx="311.219" cy="339.602" fill="#ffd15b" r="164.898"/><path d="m424.703 219.972c6.527 17.743 10.093 36.918 10.093 56.926 0 91.071-73.827 164.898-164.898 164.898-43.972 0-83.921-17.214-113.484-45.268 23.181 63.019 83.742 107.972 154.805 107.972 91.071 0 164.898-73.827 164.898-164.898 0-47.098-19.749-89.582-51.414-119.63z" fill="#ffc344"/><circle cx="389.055" cy="388.61" fill="#c96e59" r="14.414"/><path d="m379.893 399.738c2.491 2.053 5.682 3.286 9.162 3.286 7.961 0 14.414-6.453 14.414-14.414 0-3.808-1.488-7.261-3.899-9.838-5.94 7.55-12.53 14.562-19.677 20.966z" fill="#bb5d4c"/><circle cx="198.788" cy="320.575" fill="#c96e59" r="14.414"/><circle cx="272.589" cy="237.55" fill="#c96e59" r="14.414"/><circle cx="299.111" cy="452.032" fill="#bb5d4c" r="14.414"/><g fill="#c96e59"><circle cx="291.319" cy="352.839" r="26.522"/><circle cx="378.566" cy="265.592" r="26.522"/></g></g><path d="m369.747 126c0 2.44-.302 4.809-.87 7.072-2.619 10.426 4.288 21.016 15.006 21.842 1.056.081 2.127.106 3.211.071 14.798-.476 27.07-12.358 27.987-27.135 1.046-16.855-12.314-30.85-28.943-30.85-.647 0-1.289.021-1.925.063-10.861.713-17.982 11.317-15.334 21.874.567 2.261.868 4.626.868 7.063z" fill="#c96e59"/><path d="m390.861 97.386c2.798 4.785 4.273 10.439 3.899 16.463-.878 14.155-12.177 25.645-26.132 27.007 1.371 7.375 7.249 13.44 15.255 14.056 1.056.081 2.127.106 3.211.071 14.798-.476 27.07-12.358 27.987-27.135.944-15.222-9.865-28.11-24.22-30.462z" fill="#bb5d4c"/><path d="m347.25 37.121 9.192-9.192c3.905-3.905 10.237-3.905 14.142 0l9.192 9.192c3.905 3.905 3.905 10.237 0 14.142l-9.192 9.192c-3.905 3.905-10.237 3.905-14.142 0l-9.192-9.192c-3.906-3.905-3.906-10.236 0-14.142z" fill="#c96e59"/><g><path d="m379.777 37.121-4.782-4.782-23.335 23.335 4.782 4.782c3.905 3.905 10.237 3.905 14.142 0l9.192-9.192c3.906-3.906 3.906-10.237.001-14.143z" fill="#bb5d4c"/></g><path d="m442 49h17c5.523 0 10 4.477 10 10v17c0 5.523-4.477 10-10 10h-17c-5.523 0-10-4.477-10-10v-17c0-5.523 4.477-10 10-10z" fill="#c96e59"/><path d="m459 49h-5v12c0 5.523-4.477 10-10 10h-12v5c0 5.523 4.477 10 10 10h17c5.523 0 10-4.477 10-10v-17c0-5.523-4.477-10-10-10z" fill="#bb5d4c"/><circle cx="460" cy="173" fill="#c96e59" r="15"/><path d="m464.353 158.647c.417 1.378.647 2.839.647 4.353 0 8.284-6.716 15-15 15-1.515 0-2.975-.229-4.353-.647 1.866 6.16 7.583 10.647 14.353 10.647 8.284 0 15-6.716 15-15 0-6.77-4.486-12.487-10.647-14.353z" fill="#bb5d4c"/></g><circle cx="459.973" cy="340.755" fill="#bb5d4c" r="26.522"/><path d="m177.246 440.39c0-14.648 11.874-26.522 26.522-26.522s26.522 11.874 26.522 26.522-11.874 26.522-26.522 26.522-26.522-11.874-26.522-26.522z" fill="#c96e59"/><g fill="#bb5d4c"><path d="m203.768 466.912c14.648 0 26.522-11.874 26.522-26.522 0-1.167-.083-2.313-.229-3.44-15.205-3.773-29.575-9.659-42.785-17.323-6.109 4.859-10.03 12.351-10.03 20.763 0 14.648 11.875 26.522 26.522 26.522z"/><circle cx="378.1" cy="473.365" r="26.522"/></g></g><g><path d="m111.99 254.842c-4.143 0-7.5 3.358-7.5 7.5s3.357 7.5 7.5 7.5h17.297c4.143 0 7.5-3.358 7.5-7.5s-3.357-7.5-7.5-7.5z"/><path d="m150.615 186.235c0 4.142 3.357 7.5 7.5 7.5h17.297c4.143 0 7.5-3.358 7.5-7.5s-3.357-7.5-7.5-7.5h-17.297c-4.142 0-7.5 3.358-7.5 7.5z"/><path d="m294.297 134.926c4.143 0 7.5-3.358 7.5-7.5s-3.357-7.5-7.5-7.5h-17.297c-4.143 0-7.5 3.358-7.5 7.5s3.357 7.5 7.5 7.5z"/><path d="m261.897 86.494c4.143 0 7.5-3.358 7.5-7.5s-3.357-7.5-7.5-7.5h-17.297c-4.143 0-7.5 3.358-7.5 7.5s3.357 7.5 7.5 7.5z"/><path d="m148.318 134.345c0-4.142-3.357-7.5-7.5-7.5h-17.297c-4.143 0-7.5 3.358-7.5 7.5s3.357 7.5 7.5 7.5h17.297c4.143 0 7.5-3.358 7.5-7.5z"/><path d="m86.384 198.683c-2.929 2.929-2.929 7.678 0 10.606l12.23 12.23c1.465 1.464 3.385 2.197 5.304 2.197s3.839-.732 5.304-2.197c2.929-2.929 2.929-7.678 0-10.606l-12.23-12.23c-2.93-2.929-7.679-2.929-10.608 0z"/><path d="m189.25 90.653c1.919 0 3.839-.732 5.303-2.197 2.93-2.929 2.93-7.677.001-10.606l-12.23-12.231c-2.929-2.929-7.678-2.93-10.606 0-2.93 2.929-2.93 7.677-.001 10.606l12.23 12.231c1.464 1.465 3.383 2.197 5.303 2.197z"/><path d="m221.23 150.616c1.919 0 3.839-.732 5.304-2.197 2.929-2.929 2.929-7.678 0-10.606l-12.23-12.23c-2.93-2.929-7.678-2.929-10.607 0s-2.929 7.678 0 10.606l12.23 12.23c1.465 1.464 3.385 2.197 5.303 2.197z"/><path d="m123.529 69.532-12.23 12.23c-2.929 2.929-2.929 7.678 0 10.606 1.465 1.464 3.385 2.197 5.304 2.197s3.839-.732 5.304-2.197l12.23-12.23c2.929-2.929 2.929-7.678 0-10.606-2.93-2.928-7.678-2.928-10.608 0z"/><path d="m61.824 142.417v17.297c0 4.142 3.357 7.5 7.5 7.5s7.5-3.358 7.5-7.5v-17.297c0-4.142-3.357-7.5-7.5-7.5s-7.5 3.357-7.5 7.5z"/><path d="m156.362 367.9c-1.687-9.289-2.541-18.809-2.541-28.298 0-86.79 70.608-157.398 157.397-157.398 30.308 0 59.735 8.635 85.103 24.971 3.481 2.242 8.123 1.237 10.366-2.245 2.242-3.483 1.237-8.124-2.245-10.367-18.672-12.025-39.353-20.221-60.979-24.319-10.739-8.864-14.391-23.683-8.838-36.612.818-1.907 1.826-3.734 2.994-5.432 2.453-3.565 3.276-8.031 2.259-12.251-1.042-4.325-3.901-8.025-7.847-10.154-.312-.168-.621-.345-.929-.529-9.081-5.438-13.394-16.7-10.255-26.777.334-1.072.744-2.125 1.215-3.124 2.675-5.663 1.773-12.305-2.296-16.922-32.741-37.141-79.892-58.443-129.363-58.443-40.645 0-80.116 14.425-111.143 40.619-3.165 2.672-3.565 7.404-.893 10.569 2.671 3.165 7.404 3.566 10.568.893 28.326-23.912 64.361-37.081 101.468-37.081 45.166 0 88.216 19.45 118.111 53.362.099.112.093.369-.017.6-.768 1.628-1.431 3.332-1.972 5.065-5.172 16.607 1.923 35.158 16.87 44.108.502.301 1.007.588 1.513.861.273.147.36.357.387.469.033.135 0 .183-.034.233-1.726 2.508-3.213 5.205-4.42 8.016-5.682 13.231-4.832 27.802 1.498 39.863-3.693-.236-7.4-.373-11.121-.373-88.921 0-162.328 67.672-171.44 154.219-63.353-21.551-106.822-81.612-106.773-149.142.026-35.119 11.371-68.338 32.81-96.064 2.533-3.277 1.931-7.987-1.346-10.521-3.277-2.533-7.987-1.932-10.521 1.346-23.485 30.375-35.914 66.762-35.942 105.229-.054 75.343 49.348 142.197 120.851 164.627-.014.901-.034 1.8-.034 2.704 0 10.385.936 20.807 2.781 30.977.658 3.623 3.815 6.162 7.371 6.162.444 0 .896-.04 1.348-.122 4.074-.74 6.779-4.643 6.039-8.719z"/><path d="m383.722 89.579c-7.205.473-13.785 4.103-18.053 9.959-4.438 6.091-5.92 13.827-4.064 21.225.427 1.698.643 3.46.643 5.236 0 1.778-.217 3.543-.645 5.245-1.848 7.358-.396 15.069 3.985 21.155 4.178 5.805 10.636 9.446 17.721 9.992.938.072 1.888.108 2.833.108.398 0 .797-.007 1.193-.02 18.604-.598 34.08-15.605 35.231-34.167.633-10.193-2.857-19.891-9.827-27.307-6.873-7.313-16.568-11.507-26.601-11.507-.807.002-1.621.029-2.416.081zm23.874 37.806c-.678 10.92-9.789 19.751-20.745 20.103-.798.026-1.602.008-2.392-.053-2.705-.208-5.084-1.558-6.697-3.799-1.793-2.491-2.38-5.676-1.61-8.738.727-2.896 1.096-5.89 1.096-8.898 0-3.006-.368-5.997-1.094-8.887-.77-3.069-.173-6.255 1.639-8.74 1.664-2.284 4.119-3.642 6.914-3.826.474-.031.951-.047 1.433-.047 5.996 0 11.562 2.408 15.67 6.78 4.104 4.367 6.159 10.087 5.786 16.105z"/><path d="m351.139 65.759c3.412 3.412 7.894 5.117 12.375 5.117 4.48 0 8.962-1.706 12.374-5.117l9.192-9.192c6.823-6.823 6.823-17.926 0-24.749l-9.193-9.193c-6.823-6.823-17.925-6.821-24.748 0l-9.192 9.192c-6.823 6.823-6.823 17.926 0 24.749zm1.415-23.335 9.191-9.192c.487-.487 1.128-.731 1.769-.731.64 0 1.28.244 1.767.73l9.192 9.192c.638.637.732 1.381.732 1.768s-.095 1.131-.732 1.768l-9.192 9.192c-.637.637-1.381.732-1.768.732-.386 0-1.13-.095-1.767-.732l-9.192-9.192c-.638-.637-.732-1.381-.732-1.768s.094-1.129.732-1.767z"/><path d="m442 93.5h17c9.649 0 17.5-7.851 17.5-17.5v-17c0-9.649-7.851-17.5-17.5-17.5h-17c-9.649 0-17.5 7.851-17.5 17.5v17c0 9.649 7.851 17.5 17.5 17.5zm-2.5-34.5c0-1.378 1.121-2.5 2.5-2.5h17c1.379 0 2.5 1.122 2.5 2.5v17c0 1.378-1.121 2.5-2.5 2.5h-17c-1.379 0-2.5-1.122-2.5-2.5z"/><path d="m460 150.5c-12.406 0-22.5 10.093-22.5 22.5s10.094 22.5 22.5 22.5 22.5-10.093 22.5-22.5-10.094-22.5-22.5-22.5zm0 30c-4.136 0-7.5-3.364-7.5-7.5s3.364-7.5 7.5-7.5 7.5 3.364 7.5 7.5-3.364 7.5-7.5 7.5z"/><path d="m367.141 388.61c0 12.083 9.831 21.914 21.914 21.914 12.084 0 21.915-9.831 21.915-21.914s-9.831-21.914-21.915-21.914c-12.083 0-21.914 9.831-21.914 21.914zm28.829 0c0 3.812-3.103 6.914-6.915 6.914s-6.914-3.102-6.914-6.914 3.102-6.914 6.914-6.914 6.915 3.102 6.915 6.914z"/><path d="m176.874 320.575c0 12.083 9.831 21.915 21.914 21.915s21.914-9.831 21.914-21.915-9.831-21.914-21.914-21.914-21.914 9.831-21.914 21.914zm28.828 0c0 3.812-3.102 6.915-6.914 6.915s-6.914-3.102-6.914-6.915 3.102-6.914 6.914-6.914 6.914 3.102 6.914 6.914z"/><path d="m294.503 237.55c0-12.083-9.831-21.914-21.914-21.914s-21.914 9.831-21.914 21.914 9.831 21.914 21.914 21.914 21.914-9.831 21.914-21.914zm-28.828 0c0-3.812 3.102-6.914 6.914-6.914s6.914 3.102 6.914 6.914-3.102 6.914-6.914 6.914-6.914-3.102-6.914-6.914z"/><path d="m299.11 430.118c-12.083 0-21.914 9.831-21.914 21.915s9.831 21.914 21.914 21.914c12.084 0 21.915-9.831 21.915-21.914s-9.831-21.915-21.915-21.915zm0 28.829c-3.812 0-6.914-3.102-6.914-6.914s3.102-6.915 6.914-6.915 6.915 3.102 6.915 6.915-3.102 6.914-6.915 6.914z"/><path d="m291.319 318.817c-18.76 0-34.022 15.262-34.022 34.022s15.263 34.022 34.022 34.022 34.022-15.262 34.022-34.022-15.262-34.022-34.022-34.022zm0 53.044c-10.489 0-19.022-8.533-19.022-19.022s8.533-19.022 19.022-19.022 19.022 8.533 19.022 19.022-8.532 19.022-19.022 19.022z"/><path d="m378.565 231.57c-18.76 0-34.021 15.262-34.021 34.022s15.262 34.022 34.021 34.022 34.022-15.262 34.022-34.022c.001-18.759-15.262-34.022-34.022-34.022zm0 53.045c-10.488 0-19.021-8.534-19.021-19.022s8.533-19.022 19.021-19.022c10.489 0 19.022 8.533 19.022 19.022s-8.532 19.022-19.022 19.022z"/><path d="m493.995 340.755c0-10.446-4.736-19.804-12.17-26.05-5.299-36.492-22.528-70.849-48.74-97.045-2.929-2.929-7.678-2.927-10.606.003-2.929 2.93-2.927 7.679.003 10.606 21.592 21.579 36.508 49.217 42.771 78.874-1.721-.269-3.484-.412-5.28-.412-18.76 0-34.021 15.262-34.021 34.022s15.262 34.022 34.021 34.022c1.613 0 3.198-.121 4.752-.339-7.789 34.338-27.073 65.299-54.561 87.563-4.688-13.188-17.287-22.659-32.063-22.659-18.76 0-34.022 15.262-34.022 34.022 0 6.975 2.113 13.464 5.728 18.868-12.553 3.164-25.484 4.767-38.587 4.767-31.962 0-63.211-9.802-89.351-27.823 9.556-6.03 15.922-16.676 15.922-28.787 0-18.76-15.262-34.022-34.021-34.022-11.338 0-21.391 5.58-27.577 14.132-3.956-6.586-7.426-13.448-10.365-20.514-1.591-3.825-5.98-5.633-9.805-4.045-3.824 1.591-5.636 5.98-4.045 9.805 4.738 11.393 10.745 22.293 17.846 32.459-.046.723-.078 1.45-.078 2.185 0 18.76 15.263 34.022 34.022 34.022h.008c30.409 24.26 68.442 37.591 107.443 37.591 17.784 0 35.285-2.694 52.073-8.009 4.479 2.175 9.504 3.397 14.809 3.397 16.552 0 30.374-11.884 33.399-27.566 37.35-26.762 62.629-67.505 69.899-112.664 7.679-6.243 12.596-15.758 12.596-26.403zm-309.249 99.635c0-10.489 8.533-19.022 19.022-19.022 10.488 0 19.021 8.533 19.021 19.022s-8.533 19.022-19.021 19.022c-10.489 0-19.022-8.533-19.022-19.022zm193.355 51.998c-10.489 0-19.022-8.533-19.022-19.022s8.533-19.022 19.022-19.022c10.488 0 19.021 8.533 19.021 19.022 0 10.488-8.533 19.022-19.021 19.022zm62.85-151.633c0-10.489 8.533-19.022 19.021-19.022 10.489 0 19.022 8.533 19.022 19.022s-8.533 19.022-19.022 19.022c-10.488 0-19.021-8.533-19.021-19.022z"/></g></g><g/><g/><g/><g/><g/><g/><g/><g/><g/><g/><g/><g/><g/><g/><g/></svg>