<svg id="Capa_1" enable-background="new 0 0 511.67 511.67" height="512" viewBox="0 0 511.67 511.67" width="512" xmlns="http://www.w3.org/2000/svg"><g><g><path d="m175.066 209.146-53.629 18.922-64.448-182.66c-5.225-14.809 2.544-31.05 17.354-36.276 14.809-5.225 31.05 2.544 36.276 17.354z" fill="#aa9ea9"/><path d="m488.877 205.224h-466.087c-4.418 0-8-3.582-8-8v-27.603c0-4.418 3.582-8 8-8h466.087c4.418 0 8 3.582 8 8v27.603c0 4.419-3.582 8-8 8z" fill="#aa9ea9"/><path d="m175.068 209.148-23.57 8.32-64.46-182.67c-3.73-10.57-13.08-17.56-23.51-18.79 2.94-3 6.59-5.39 10.81-6.88 3.13-1.1 6.32-1.63 9.45-1.63 11.73 0 22.7 7.31 26.83 18.99z" fill="#9b8e99"/><path d="m85.355 340.254h340.957v46.614h-340.957z" fill="#aa9ea9"/><path d="m401.308 340.258h25v46.61h-25z" fill="#9b8e99"/><path d="m440.224 344.902h-368.781c-6.31 0-11.542-4.887-11.972-11.182l-12.762-186.89c-.473-6.933 5.023-12.818 11.972-12.818h394.305c6.949 0 12.446 5.884 11.972 12.818l-12.762 186.89c-.43 6.295-5.662 11.182-11.972 11.182z" fill="#c4d7fb"/><path d="m464.955 146.825-12.76 186.89c-.43 6.3-5.66 11.19-11.97 11.19h-25c6.31 0 11.54-4.89 11.97-11.19l12.76-186.89c.48-6.93-5.02-12.81-11.97-12.81h25c6.95 0 12.45 5.88 11.97 12.81z" fill="#a9c6f9"/><g fill="#ffe17d"><path d="m221.298 134.012v95.674c0 20.098 16.293 36.391 36.391 36.391 20.098 0 36.391-16.293 36.391-36.391v-40.702c0 14.219 11.527 25.746 25.746 25.746 14.219 0 25.746-11.527 25.746-25.746v2.615c0 20.098 16.293 36.391 36.391 36.391 20.098 0 36.391-16.293 36.391-36.391v-57.587z"/><circle cx="211.355" cy="43.689" r="31.114"/><circle cx="322.866" cy="78.386" r="31.114"/></g><path d="m490.673 504.172h-469.679c-7.624 0-13.316-7.018-11.741-14.478l21.388-101.348c1.171-5.55 6.069-9.522 11.741-9.522h426.903c5.672 0 10.57 3.972 11.741 9.522l21.388 101.348c1.574 7.46-4.117 14.478-11.741 14.478z" fill="#ff8087"/><path d="m490.668 504.168h-25c7.63 0 13.32-7.01 11.75-14.47l-21.39-101.35c-1.17-5.55-6.07-9.52-11.74-9.52h25c5.67 0 10.57 3.97 11.74 9.52l21.39 101.35c1.57 7.46-4.12 14.47-11.75 14.47z" fill="#e6646e"/><circle cx="255.835" cy="441.5" fill="#eef5ff" r="37.708"/><circle cx="255.835" cy="441.5" fill="#eef5ff" r="37.708"/><path d="m286.053 464.058c-9.78 13.09-26.44 18.03-41.22 13.51 7.42-2.26 14.22-6.82 19.22-13.51 12.46-16.69 9.02-40.32-7.67-52.78-3.59-2.68-7.5-4.62-11.55-5.85 11.08-3.37 23.56-1.61 33.55 5.85 16.691 12.46 20.13 36.09 7.67 52.78z" fill="#dfe9fb"/><path d="m418.358 134.008v57.59c0 10.05-4.07 19.15-10.66 25.73-6.59 6.59-15.69 10.66-25.73 10.66-4.39 0-8.6-.78-12.5-2.21 5.02-1.83 9.52-4.74 13.23-8.45 6.59-6.58 10.66-15.68 10.66-25.73v-57.59z" fill="#ffd164"/><path d="m353.978 78.388c0 17.18-13.93 31.11-31.11 31.11-4.45 0-8.68-.93-12.5-2.61 10.96-4.82 18.61-15.77 18.61-28.5 0-12.74-7.65-23.69-18.61-28.51 3.82-1.68 8.05-2.61 12.5-2.61 17.18 0 31.11 13.93 31.11 31.12z" fill="#ffd164"/><path d="m242.468 43.688c0 17.18-13.93 31.12-31.11 31.12-4.44 0-8.67-.93-12.5-2.61 10.96-4.82 18.61-15.78 18.61-28.51s-7.65-23.68-18.61-28.5c3.83-1.68 8.06-2.61 12.5-2.61 17.18 0 31.11 13.93 31.11 31.11z" fill="#ffd164"/></g><g><path d="m211.357 82.305c21.292 0 38.614-17.322 38.614-38.613 0-21.292-17.322-38.614-38.614-38.614s-38.614 17.322-38.614 38.614c-.001 21.29 17.322 38.613 38.614 38.613zm0-62.228c13.021 0 23.614 10.594 23.614 23.614s-10.594 23.613-23.614 23.613-23.614-10.593-23.614-23.613 10.593-23.614 23.614-23.614z"/><path d="m322.868 117.002c21.291 0 38.613-17.322 38.613-38.613 0-21.292-17.322-38.614-38.613-38.614-21.292 0-38.614 17.322-38.614 38.614 0 21.291 17.322 38.613 38.614 38.613zm0-62.228c13.021 0 23.613 10.594 23.613 23.614s-10.593 23.613-23.613 23.613-23.614-10.593-23.614-23.613 10.594-23.614 23.614-23.614z"/><path d="m509.753 488.151-21.389-101.35c-1.892-8.965-9.916-15.472-19.079-15.472h-35.47v-18.929h6.409c10.212 0 18.757-7.98 19.453-18.17l8.296-121.501h20.902c8.547 0 15.5-6.953 15.5-15.5v-27.609c0-8.547-6.953-15.5-15.5-15.5h-16.9l.462-6.772c.371-5.368-1.522-10.705-5.196-14.642-3.675-3.938-8.871-6.196-14.256-6.196h-50.07c-4.143 0-7.5 3.357-7.5 7.5s3.357 7.5 7.5 7.5h7.939v50.09c0 7.724-3.004 14.977-8.467 20.431-5.446 5.456-12.7 8.46-20.423 8.46-15.93 0-28.89-12.96-28.89-28.891v-2.609c0-4.143-3.357-7.5-7.5-7.5s-7.5 3.357-7.5 7.5c0 4.871-1.897 9.451-5.343 12.896s-8.03 5.343-12.907 5.343c-10.058 0-18.24-8.182-18.24-18.239 0-4.143-3.357-7.5-7.5-7.5s-7.5 3.357-7.5 7.5v40.7c0 7.723-3.004 14.976-8.464 20.426-5.457 5.458-12.712 8.464-20.426 8.464-15.936 0-28.9-12.96-28.9-28.89v-88.181h139.12c4.143 0 7.5-3.357 7.5-7.5s-3.357-7.5-7.5-7.5h-214.052l-36.173-102.515c-5.063-14.352-18.684-23.995-33.894-23.995-4.041 0-8.057.691-11.948 2.058-18.687 6.6-28.522 27.168-21.924 45.847l27.733 78.604h-18.971c-5.385 0-10.581 2.259-14.256 6.196-3.674 3.937-5.567 9.273-5.196 14.635l.463 6.779h-16.9c-8.547 0-15.5 6.953-15.5 15.5v27.609c0 8.547 6.953 15.5 15.5 15.5h20.902l8.295 121.502c.696 10.188 9.241 18.169 19.453 18.169h6.409v18.93h-35.47c-9.163 0-17.188 6.507-19.078 15.471l-21.391 101.355c-1.217 5.777.219 11.719 3.938 16.303 3.719 4.583 9.237 7.212 15.141 7.212h397.359c4.143 0 7.5-3.357 7.5-7.5s-3.357-7.5-7.5-7.5h-397.359c-1.864 0-2.989-1.042-3.493-1.663-.504-.622-1.292-1.937-.909-3.758l21.391-101.352c.436-2.066 2.287-3.567 4.401-3.567h426.9c2.114 0 3.966 1.501 4.402 3.568l21.389 101.347c.384 1.825-.404 3.14-.908 3.762-.504.621-1.629 1.663-3.493 1.663h-37.32c-4.143 0-7.5 3.357-7.5 7.5s3.357 7.5 7.5 7.5h37.32c5.903 0 11.422-2.629 15.141-7.212 3.719-4.584 5.155-10.525 3.937-16.307zm-20.878-319.031c.275 0 .5.225.5.5v27.609c0 .271-.229.5-.5.5h-19.877l1.953-28.609zm-424.807-126.207c-3.844-10.884 1.888-22.866 12.764-26.707 2.277-.801 4.619-1.206 6.963-1.206 8.861 0 16.797 5.62 19.748 13.986l34.412 97.523h-44.393zm-41.273 154.816c-.271 0-.5-.229-.5-.5v-27.609c0-.275.225-.5.5-.5h17.925l1.953 28.609zm70.06 154.671h15.9c4.143 0 7.5-3.357 7.5-7.5s-3.357-7.5-7.5-7.5h-37.31c-2.356 0-4.327-1.842-4.488-4.191l-12.76-186.896c-.117-1.691.7-2.839 1.198-3.372.498-.534 1.589-1.431 3.289-1.431h155.11v88.181c0 24.201 19.693 43.89 43.9 43.89 11.721 0 22.742-4.566 31.029-12.853 8.293-8.281 12.86-19.304 12.86-31.037v-12.924c5.239 3.452 11.51 5.463 18.24 5.463 8.883 0 17.233-3.457 23.514-9.735.008-.009.016-.016.023-.024 7.436 13.699 21.951 23.021 38.603 23.021 11.733 0 22.757-4.567 31.03-12.853 8.292-8.281 12.859-19.304 12.859-31.038v-50.09h27.131c1.7 0 2.791.896 3.289 1.431.498.533 1.315 1.681 1.198 3.379l-12.76 186.889c-.161 2.351-2.132 4.192-4.488 4.192h-296.47c-4.143 0-7.5 3.357-7.5 7.5s3.357 7.5 7.5 7.5h275.061v18.93h-325.958z"/><path d="m219.606 414.463c-14.908 19.978-10.785 48.36 9.192 63.27 8.1 6.045 17.577 8.96 26.982 8.96 13.791 0 27.422-6.274 36.286-18.151 14.909-19.978 10.786-48.359-9.191-63.27-19.975-14.909-48.359-10.787-63.269 9.191zm60.439 45.106c-9.963 13.348-28.929 16.103-42.276 6.142-11.274-8.414-14.991-23.251-9.871-35.702l23.453 17.503c1.346 1.005 2.919 1.489 4.479 1.489 2.286 0 4.544-1.041 6.017-3.015 2.478-3.319 1.795-8.019-1.525-10.496l-23.453-17.503c10.48-8.452 25.761-9.111 37.035-.695 13.349 9.964 16.104 28.929 6.141 42.277z"/><path d="m69.388 434.884c-4.143 0-7.5 3.357-7.5 7.5s3.357 7.5 7.5 7.5h113.739c4.143 0 7.5-3.357 7.5-7.5s-3.357-7.5-7.5-7.5z"/><path d="m449.782 441.5c0-4.143-3.357-7.5-7.5-7.5h-113.739c-4.143 0-7.5 3.357-7.5 7.5s3.357 7.5 7.5 7.5h113.739c4.143 0 7.5-3.357 7.5-7.5z"/></g></g></svg>