<svg id="Layer_1" enable-background="new 0 0 512 512" viewBox="0 0 512 512" xmlns="http://www.w3.org/2000/svg"><g clip-rule="evenodd" fill-rule="evenodd"><ellipse cx="296.096" cy="205.124" fill="#f5b955" rx="213.644" ry="91.794" transform="matrix(.707 -.707 .707 .707 -58.321 269.451)"/><path d="m43.278 404.976c5.694 11.661 13.367 22.581 23.024 32.238 47.072 47.072 121.131 43.904 171.171 0 81.176-71.219 123.531-167.181 243.527-213.657-51.017-18.484-134.334-4.339-223.207 35.579 28.947-74.193 31.796-156.993 19.519-204.083-47.851 71.929-140.749 140.729-211.01 210.99-37.416 37.415-45.087 93.753-23.024 138.933z" fill="#a5dc69"/><path d="m465.991 224.386c-16.669-3.81-36.25-4.759-57.991-2.919-.14.009-.281.02-.421.029-16.487 1.419-34.237 4.421-52.929 8.981-.009 0-.009.009-.009.009-22.419 5.46-46.187 13.16-70.788 23.031-7.96 3.19-15.92 6.579-23.87 10.138-.084.04-.173.08-.253.121-75.25 33.77-149.007 83.591-210.28 142.261 15.939 30.249 43.85 51.299 77.1 57.97 37.679 7.57 76.922-3.561 107.661-30.53 26.802-23.499 49.802-50.3 72.062-76.21 42.607-49.63 86.584-100.86 159.718-132.881zm-421.014 172.111c-18.079-43.31-8.48-93.521 24.891-126.901 23.332-23.32 49.652-46.92 75.1-69.75 47.928-42.979 97.393-87.329 129.982-132.54 8.517 45.1 5.488 118.89-21.061 188.141-74.669 33.769-147.798 83.06-208.912 141.05zm232.011-181.26 29.639-29.642-20.415-20.419c-1.971 16.27-4.991 33.11-9.224 50.061zm10.68-62.751 19.034-19.03 26.039 26.029-19.039 19.04zm1.47-36.599c.033 6.949-.136 14.129-.52 21.498l11.013-11zm-.59-18.501c6.762-4.969 13.551-9.641 20.312-13.979l16.871 16.869-19.029 19.03-17.943-17.93c-.056-1.35-.131-2.68-.211-3.99zm29.021-19.41 15.232 15.23 19.039-19.031-9.641-9.639c-8.068 3.93-16.309 8.431-24.63 13.44zm34.29-17.92 7.051 7.051 15.489-15.501c-7.239 2.22-14.791 5.049-22.54 8.45zm14.121 14.12 19.029-19.04 26.039 26.04-19.029 19.031zm25.449-26.759 30.182 30.18c.019.02.028.029.047.049.014.011.023.02.042.04l32.163 32.171c3.278-17.961 3.09-38.971-10.208-52.241-13.236-13.25-34.203-13.469-52.226-10.199zm59.812 73.95v-.011l-19.043 19.031 9.07 9.059c4.214-9.679 7.585-19.08 9.973-28.079zm-14.468 37.759c-3.905 8.061-8.405 16.28-13.443 24.61l-17.24-17.239 19.029-19.04zm-82.892 59.581 19.038-19.04 14.248 14.259c-10.287 1.52-20.939 3.581-31.896 6.171zm-21.08-111.361-19.034 19.031 26.043 26.04 19.029-19.031zm52.148-.059-19.039 19.029-26.029-26.04 19.029-19.03zm-19.039 33.17 26.039 26.04-19.029 19.029-26.039-26.04zm59.209-7.141 19.053-19.03-26.053-26.04-19.029 19.04zm-33.1-18.96-19.038 19.03 26.039 26.04 19.034-19.038zm-78.317 78.311 26.039 26.04-7.431 7.429c-16.87 4.9-34.331 10.939-52.18 18.1-4.509 1.809-9.009 3.689-13.508 5.61 1.761-5.001 3.409-10.02 4.94-15.04zm33.109 18.96 19.039-19.029-26.039-26.04-19.029 19.039zm71.069-19.2-18.861-18.861-19.029 19.031 19.699 19.71c1.634-.181 3.25-.34 4.86-.49 4.752-6.501 9.201-12.97 13.331-19.39zm68.151 31.099c.047 2.079-1.217 3.96-3.184 4.721-78.827 30.528-124.667 83.909-168.995 135.53-22.47 26.179-45.723 53.249-73.045 77.219-26.268 23.051-58.38 35.341-90.88 35.341-8.456 0-16.927-.83-25.35-2.52-37.496-7.53-68.755-31.82-85.757-66.62-23.679-48.501-14.043-106.64 23.978-144.67 23.519-23.51 49.942-47.211 75.498-70.12 50.804-45.562 103.345-92.682 134.894-140.101 1.086-1.641 3.039-2.489 4.977-2.16 1.953.32 3.521 1.759 4.022 3.67 2.379 9.16 4.242 19.909 5.441 31.89 31.971-22.819 63.408-38.589 91.339-45.779 31.812-8.201 56.633-4.521 71.757 10.62 15.03 15.04 18.776 39.659 10.769 71.19-6.883 27.249-22.054 57.91-43.986 89.17 25.116-1.149 47.217 1.45 65.244 7.971 1.967.709 3.278 2.558 3.278 4.648zm-250.342 152.021c2.042 1.849 2.201 5.018.342 7.06-28.904 31.869-62.013 47.948-98.62 47.948-5.642 0-11.35-.379-17.161-1.149-2.73-.36-4.663-2.87-4.303-5.61.361-2.731 2.861-4.661 5.609-4.3 40.034 5.269 76.051-9.411 107.062-43.61 1.865-2.04 5.021-2.199 7.071-.339z"/></g></svg>