<svg height="512" viewBox="0 0 64 64" width="512" xmlns="http://www.w3.org/2000/svg"><g id="Coupon"><path d="m32 46-2-2-2 2h-26v-8a5.959 5.959 0 0 0 4.242-1.756 5.959 5.959 0 0 0 1.758-4.244 6.006 6.006 0 0 0 -6-6v-8h26l2 2 2-2h30v8a6 6 0 0 0 0 12v8z" fill="#ffdf57"/><path d="m37 31h12v10h-12z" fill="#d63e3e"/><path d="m36 31h14v3h-14z" fill="#ba2b2b"/><circle cx="15" cy="28" fill="#f25353" r="2"/><circle cx="23" cy="36" fill="#f25353" r="2"/><path d="m41 31h4v10h-4z" fill="#ba2b2b"/><path d="m39 27a2 2 0 0 1 0-4 3.962 3.962 0 0 1 3.2 1.628l.8 1.077.8-1.077a3.962 3.962 0 0 1 3.2-1.628 2 2 0 0 1 0 4z" fill="#ba2b2b"/><path d="m35 27h16v4h-16z" fill="#f25353"/><path d="m40 27h6v4h-6z" fill="#d63e3e"/><path d="m41 31h4v3h-4z" fill="#9e1818"/><g fill="#352d34"><path d="m62 27a1 1 0 0 0 1-1v-8a1 1 0 0 0 -1-1h-30a1 1 0 0 0 -.707.293l-1.293 1.293-1.293-1.293a1 1 0 0 0 -.707-.293h-26a1 1 0 0 0 -1 1v8a1 1 0 0 0 1 1 5 5 0 0 1 5 5 5 5 0 0 1 -5 5 1 1 0 0 0 -1 1v8a1 1 0 0 0 1 1h26a1 1 0 0 0 .707-.293l1.293-1.293 1.293 1.293a1 1 0 0 0 .707.293h30a1 1 0 0 0 1-1v-8a1 1 0 0 0 -1-1 5 5 0 0 1 0-10zm-7 5a7.011 7.011 0 0 0 6 6.929v6.071h-28.586l-1.707-1.707a1 1 0 0 0 -1.414 0l-1.707 1.707h-24.586v-6.07a6.947 6.947 0 0 0 3.949-1.979 6.955 6.955 0 0 0 2.051-4.951 7.009 7.009 0 0 0 -6-6.927v-6.073h24.586l1.707 1.707a1 1 0 0 0 1.414 0l1.707-1.707h28.586v6.071a7.011 7.011 0 0 0 -6 6.929z"/><path d="m18 28a3 3 0 1 0 -3 3 3 3 0 0 0 3-3zm-4 0a1 1 0 1 1 1 1 1 1 0 0 1 -1-1z"/><path d="m23 33a3 3 0 1 0 3 3 3 3 0 0 0 -3-3zm0 4a1 1 0 1 1 1-1 1 1 0 0 1 -1 1z"/><path d="m24.707 26.293a1 1 0 0 0 -1.414 0l-10 10a1 1 0 0 0 1.414 1.414l10-10a1 1 0 0 0 0-1.414z"/><path d="m30 38a1 1 0 0 0 -1 1v1a1 1 0 0 0 2 0v-1a1 1 0 0 0 -1-1z"/><path d="m30 33a1 1 0 0 0 -1 1v1a1 1 0 0 0 2 0v-1a1 1 0 0 0 -1-1z"/><path d="m30 28a1 1 0 0 0 -1 1v1a1 1 0 0 0 2 0v-1a1 1 0 0 0 -1-1z"/><path d="m30 23a1 1 0 0 0 -1 1v1a1 1 0 0 0 2 0v-1a1 1 0 0 0 -1-1z"/><path d="m51 26h-1.184a2.966 2.966 0 0 0 .184-1 3 3 0 0 0 -3-3 4.982 4.982 0 0 0 -4 2.031 4.982 4.982 0 0 0 -4-2.031 3 3 0 0 0 -3 3 2.966 2.966 0 0 0 .184 1h-1.184a1 1 0 0 0 -1 1v4a1 1 0 0 0 1 1h1v9a1 1 0 0 0 1 1h12a1 1 0 0 0 1-1v-9h1a1 1 0 0 0 1-1v-4a1 1 0 0 0 -1-1zm-6 4h-4v-2h4zm2-6a1 1 0 0 1 0 2h-2.829a3.006 3.006 0 0 1 2.829-2zm-9 1a1 1 0 0 1 1-1 3.006 3.006 0 0 1 2.829 2h-2.829a1 1 0 0 1 -1-1zm-2 3h3v2h-3zm2 4h2v8h-2zm4 8v-8h2v8zm6 0h-2v-8h2zm2-10h-3v-2h3z"/></g></g></svg>