<svg id="Layer_1" viewBox="0 0 64 64" xmlns="http://www.w3.org/2000/svg" data-name="Layer 1"><path d="m16.46 17-.58-12.91c-.02-.46.27-.87.69-.98.08-.02.15-.03.23-.03.33 0 .64.19.81.49l5.81 10.61" fill="#69698c"/><path d="m40.11 13.72 6.05-10.15c.21-.35.6-.57.98-.57.05 0 .09 0 .14.01.45.06.75.43.72.89l-1 13.12" fill="#69698c"/><path d="m17.13 45-2.56-11.04c-.76-3.26-.76-6.66 0-9.93 1.5-6.47 7.2-11.04 13.76-11.04h7.35c6.56 0 12.25 4.57 13.76 11.04.76 3.26.76 6.66 0 9.93l-2.56 11.04" fill="#ddd"/><path d="m17.96 17.58-1.5-.96-.81-.52c-2.63-1.4-5.76-1.47-8.46-.2l-4.19 1.98 2.41 2.2c2.51 2.28 5.73 3.62 9.11 3.78" fill="#69698c"/><path d="m46.07 17.61.93-.59 1.22-.78c2.63-1.4 5.76-1.47 8.46-.2l4.19 1.98-2.41 2.2c-2.49 2.26-5.69 3.6-9.04 3.78h-.07" fill="#69698c"/><path d="m39.34 21.85c-1.34 1.07-3.02 1.65-4.75 1.65-.3 0-.6 0-.9-.05l-2.06-.25c-1.55-.19-2.88 1.07-2.71 2.58l.16 1.39c.34 2.95-.72 5.88-2.89 7.97-1.91 1.85-4.5 2.86-7.15 2.86-.66 0-1.32-.06-1.98-.19l-1.63-.32-.86-3.7c-.76-3.26-.76-6.66 0-9.93.75-3.23 2.55-5.99 4.98-7.94s5.5-3.09 8.77-3.09h7.35c2.12 0 4.14.48 5.97 1.34s.05.15.05.15c.85 2.73-.08 5.7-2.35 7.53z" fill="#8d8daa"/><ellipse cx="32" cy="51" fill="#ff9eaa" rx="18" ry="10"/><ellipse cx="27" cy="51" rx="2" ry="3"/><ellipse cx="37" cy="51" rx="2" ry="3"/><ellipse cx="23" cy="28" rx="2" ry="5"/><ellipse cx="41" cy="28" rx="2" ry="5"/><path d="m61.3 17.12-4.19-1.98c-2.82-1.33-6.11-1.3-8.96.05l.86-11.22c.06-.98-.62-1.82-1.53-1.94-.85-.17-1.72.27-2.17 1.03l-5.65 9.48c-1.27-.35-2.6-.54-3.98-.54h-7.35c-1.54 0-3.03.24-4.44.68l-5.41-9.61c-.43-.75-1.37-1.13-2.14-.93-.89.21-1.5 1.04-1.46 1.97l.5 10.77c-2.73-1.19-5.89-1.16-8.61.12l-4.19 1.98c-.3.14-.51.43-.56.76s.07.66.32.89l2.41 2.2c2.41 2.19 5.46 3.56 8.67 3.94-.58 3.11-.52 6.35.19 9.43l2.49 10.73c-1.95 1.73-3.09 3.81-3.09 6.08 0 6.17 8.35 11 19 11s19-4.83 19-11c0-2.27-1.13-4.35-3.09-6.08l2.49-10.73c.71-3.04.78-6.23.22-9.3 3.15-.41 6.14-1.77 8.51-3.93l2.41-2.2c.25-.22.36-.56.32-.89-.05-.33-.26-.61-.56-.76zm-14.32-12.96-.91 12.01c-1.3-1.24-2.82-2.24-4.48-2.95l5.4-9.06zm-24.98 9.23c-1.56.72-2.97 1.71-4.19 2.9l-.37-.24-.54-11.73 5.11 9.07zm-17.22 4.76 2.84-1.34c2.4-1.13 5.23-1.06 7.49.13l1.35.86c-1.14 1.46-2.02 3.14-2.58 4.99-2.88-.29-5.63-1.49-7.79-3.46l-1.31-1.19zm10.77 6.12c1.41-6.04 6.66-10.26 12.78-10.26h7.35c1.81 0 3.54.38 5.12 1.05.59 2.27-.2 4.67-2.08 6.19-1.16.92-2.62 1.43-4.13 1.43-.26 0-.51 0-.78-.04l-2.06-.25c-1.06-.13-2.11.22-2.86.97-.73.72-1.08 1.71-.96 2.72l.16 1.39c.31 2.66-.64 5.26-2.59 7.14-1.69 1.64-4.04 2.58-6.45 2.58-.61 0-1.21-.06-1.79-.17l-1-.2-.71-3.07c-.72-3.1-.72-6.38 0-9.47zm33.46 26.74c0 4.88-7.79 9-17 9s-17-4.12-17-9 7.79-9 17-9 17 4.12 17 9zm-.54-17.26-2.29 9.88c-3.45-2.23-8.47-3.61-14.16-3.61s-10.71 1.39-14.16 3.61l-1.09-4.67.12.02c.7.14 1.43.21 2.17.21 2.92 0 5.79-1.15 7.84-3.14 2.41-2.32 3.57-5.53 3.19-8.8l-.16-1.39c-.05-.4.09-.78.38-1.07.32-.31.75-.46 1.21-.4l2.05.25c.39.05.76.06 1.03.06 1.96 0 3.87-.66 5.38-1.87 2.04-1.64 3.11-4.07 3.01-6.56 2.69 1.82 4.69 4.64 5.48 8.03.72 3.1.72 6.38 0 9.47zm9.33-14.26c-2.12 1.92-4.8 3.12-7.63 3.44-.56-1.89-1.44-3.6-2.59-5.08l1.12-.72c2.33-1.24 5.16-1.31 7.56-.18l2.84 1.34-1.31 1.19z"/></svg>