<svg height="512" viewBox="0 0 128 128" width="512" xmlns="http://www.w3.org/2000/svg"><g><rect fill="#fec300" height="76.924" rx="4.861" width="76.924" x="44.769" y="44.769"/><rect fill="#feea61" height="76.924" rx="4.861" width="76.924" x="6.307" y="6.307"/><g><path d="m20.323 22.6a2.282 2.282 0 1 0 -2.282-2.281 2.281 2.281 0 0 0 2.282 2.281z"/><path d="m36.62 22.6a2.282 2.282 0 1 0 -2.281-2.281 2.282 2.282 0 0 0 2.281 2.281z"/><circle cx="52.918" cy="20.323" r="2.281"/><circle cx="69.215" cy="20.323" r="2.281"/><path d="m20.323 38.9a2.282 2.282 0 1 0 -2.282-2.282 2.282 2.282 0 0 0 2.282 2.282z"/><path d="m36.62 38.9a2.282 2.282 0 1 0 -2.281-2.282 2.282 2.282 0 0 0 2.281 2.282z"/><circle cx="52.918" cy="36.62" r="2.282"/><circle cx="69.215" cy="36.62" r="2.282"/><path d="m20.323 71.5a2.282 2.282 0 1 0 -2.282-2.282 2.282 2.282 0 0 0 2.282 2.282z"/><path d="m36.62 71.5a2.282 2.282 0 1 0 -2.281-2.282 2.282 2.282 0 0 0 2.281 2.282z"/><path d="m52.918 71.5a2.282 2.282 0 1 0 -2.282-2.282 2.282 2.282 0 0 0 2.282 2.282z"/><path d="m69.215 71.5a2.282 2.282 0 1 0 -2.281-2.282 2.282 2.282 0 0 0 2.281 2.282z"/><path d="m20.323 55.2a2.282 2.282 0 1 0 -2.282-2.281 2.281 2.281 0 0 0 2.282 2.281z"/><path d="m36.62 55.2a2.282 2.282 0 1 0 -2.281-2.281 2.282 2.282 0 0 0 2.281 2.281z"/><path d="m52.918 55.2a2.282 2.282 0 1 0 -2.282-2.281 2.281 2.281 0 0 0 2.282 2.281z"/><path d="m69.215 55.2a2.282 2.282 0 1 0 -2.281-2.281 2.282 2.282 0 0 0 2.281 2.281z"/><path d="m6.307 59.419a1.75 1.75 0 0 0 1.75-1.75v-4.5a1.75 1.75 0 0 0 -3.5 0v4.5a1.75 1.75 0 0 0 1.75 1.75z"/><circle cx="91.38" cy="58.785" r="2.281"/><circle cx="107.677" cy="58.785" r="2.281"/><circle cx="91.38" cy="75.082" r="2.281"/><circle cx="107.677" cy="75.082" r="2.281"/><path d="m58.785 105.4a2.282 2.282 0 1 0 2.281 2.281 2.282 2.282 0 0 0 -2.281-2.281z"/><path d="m75.082 105.4a2.282 2.282 0 1 0 2.282 2.281 2.281 2.281 0 0 0 -2.282-2.281z"/><path d="m91.38 105.4a2.282 2.282 0 1 0 2.281 2.281 2.282 2.282 0 0 0 -2.281-2.281z"/><path d="m107.677 109.959a2.282 2.282 0 1 0 -2.281-2.282 2.282 2.282 0 0 0 2.281 2.282z"/><path d="m58.785 89.1a2.282 2.282 0 1 0 2.281 2.282 2.282 2.282 0 0 0 -2.281-2.282z"/><path d="m75.082 89.1a2.282 2.282 0 1 0 2.282 2.282 2.282 2.282 0 0 0 -2.282-2.282z"/><path d="m91.38 89.1a2.282 2.282 0 1 0 2.281 2.282 2.282 2.282 0 0 0 -2.281-2.282z"/><path d="m107.677 93.661a2.282 2.282 0 1 0 -2.277-2.281 2.282 2.282 0 0 0 2.277 2.281z"/><path d="m116.832 43.019h-13.016a1.75 1.75 0 0 0 0 3.5h13.016a3.114 3.114 0 0 1 3.111 3.111v67.2a3.114 3.114 0 0 1 -3.111 3.111h-67.2a3.114 3.114 0 0 1 -3.11-3.111v-31.849h31.849a6.617 6.617 0 0 0 6.61-6.611v-31.851h9.473a1.75 1.75 0 0 0 0-3.5h-9.473v-31.851a6.617 6.617 0 0 0 -6.61-6.611h-67.2a6.617 6.617 0 0 0 -6.61 6.611v32.347a1.75 1.75 0 0 0 3.5 0v-32.347a3.114 3.114 0 0 1 3.11-3.111h67.2a3.114 3.114 0 0 1 3.11 3.111v67.2a3.114 3.114 0 0 1 -3.11 3.111h-67.2a3.114 3.114 0 0 1 -3.11-3.111v-11.461a1.75 1.75 0 0 0 -3.5 0v11.463a6.617 6.617 0 0 0 6.61 6.611h31.848v31.851a6.617 6.617 0 0 0 6.61 6.611h67.2a6.618 6.618 0 0 0 6.611-6.611v-67.202a6.618 6.618 0 0 0 -6.608-6.611z"/></g></g></svg>