<svg id="Capa_1" enable-background="new 0 0 512 512" viewBox="0 0 512 512" xmlns="http://www.w3.org/2000/svg"><g><path d="m359.102 83.274h30v137.891h-30z" fill="#fdcb02" transform="matrix(.602 -.798 .798 .602 27.305 359.233)"/><path d="m179.497 512h-30v-82.95l37.511-83.294 27.353 12.318-34.864 77.419z" fill="#fd8c02"/><path d="m252.12 512h-30v-81.355l20.413-92.998 29.303 6.432-19.716 89.819z" fill="#fd6717"/><g><path d="m293.774 152.32c28.898-12.108 48.497-40.562 48.497-73.065 0-43.701-35.553-79.255-79.255-79.255-4.031 0-7.991.307-11.861.891l-10 204.82 10 153.802c49.69-10.071 82.406-46.672 82.406-95.828 0-34.612-12.648-58.202-24.88-81.016-5.144-9.595-10.412-19.42-14.907-30.349z" fill="#efe2dd"/><path d="m183.761 79.255c0 49.539 16.503 86.398 28.553 113.312 3.25 7.26 6.278 14.023 8.487 19.975h-35.996c-61.294 0-110.983 49.341-110.983 110.983v56.511c12.128 0 24.613-6.874 30-17.74h118.755c10.022 0 19.577-.958 28.578-2.782v-358.623c-38.095 5.741-67.394 38.693-67.394 78.364z" fill="#f5f0eb"/></g><path d="m251.154 67.924h30v30h-30z" fill="#404040"/><path d="m148.659 362.295h-22.989v-87.312h97.312v12.989c0 40.982-33.34 74.323-74.323 74.323z" fill="#bebebe"/></g><g/><g/><g/><g/><g/><g/><g/><g/><g/><g/><g/><g/><g/><g/><g/></svg>