<svg id="Capa_1" enable-background="new 0 0 512.001 512.001" height="512" viewBox="0 0 512.001 512.001" width="512" xmlns="http://www.w3.org/2000/svg"><g><g><path d="m339.232 222.903c0-31.678-25.345-57.434-56.863-58.102-5.246-26.706-28.78-46.853-57.023-46.853-15.879 0-30.268 6.371-40.758 16.693-10.194-16.771-28.638-27.973-49.699-27.973-29.043 0-53.108 21.304-57.426 49.136-30.917 1.332-55.574 26.814-55.574 58.059 0 29.494 21.971 53.854 50.439 57.612-.513 3.106-.785 6.294-.785 9.546 0 32.097 26.02 58.118 58.118 58.118 23.047 0 42.961-13.416 52.358-32.864 9.961 17.699 28.922 29.655 50.678 29.655 31.291 0 56.801-24.73 58.064-55.71 27.506-4.597 48.471-28.507 48.471-57.317z" fill="#8dd470"/></g><g><path d="m339.232 222.903c0-31.678-25.345-57.434-56.863-58.102-5.246-26.706-28.78-46.853-57.023-46.853-15.879 0-30.268 6.371-40.758 16.693-10.194-16.771-28.638-27.973-49.699-27.973-29.043 0-53.108 21.304-57.426 49.136-30.917 1.332-55.574 26.814-55.574 58.059 0 29.494 21.971 53.854 50.439 57.612-.513 3.106-.785 6.294-.785 9.546 0 32.097 26.02 58.118 58.118 58.118 23.047 0 42.961-13.416 52.358-32.864 9.961 17.699 28.922 29.655 50.678 29.655 31.291 0 56.801-24.73 58.064-55.71 27.506-4.597 48.471-28.507 48.471-57.317z" fill="#8dd470"/></g><g><path d="m339.232 222.903c0-31.678-25.345-57.434-56.863-58.102-5.246-26.706-28.78-46.853-57.023-46.853-15.879 0-30.268 6.371-40.758 16.693-10.194-16.771-28.638-27.973-49.699-27.973-29.043 0-53.108 21.304-57.426 49.136-30.917 1.332-55.574 26.814-55.574 58.059 0 29.494 21.971 53.854 50.439 57.612-.513 3.106-.785 6.294-.785 9.546 0 32.097 26.02 58.118 58.118 58.118 23.047 0 42.961-13.416 52.358-32.864 9.961 17.699 28.922 29.655 50.678 29.655 31.291 0 56.801-24.73 58.064-55.71 27.506-4.597 48.471-28.507 48.471-57.317z" fill="#9cda82"/></g><g><path d="m91.926 258.938c0-59.223 35.88-110.061 87.086-131.975-10.659-12.423-26.47-20.296-44.123-20.296-29.043 0-53.108 21.304-57.426 49.136-30.917 1.332-55.574 26.814-55.574 58.059 0 29.494 21.971 53.854 50.439 57.612-.513 3.106-.785 6.294-.785 9.546 0 27.113 18.567 49.888 43.679 56.308-14.727-22.535-23.296-49.46-23.296-78.39z" fill="#8dd470"/></g><g><path d="m392.196 92.678c-15.387 24.924-37.449 39.209-49.275 31.913-11.827-7.303-8.945-33.425 6.443-58.353 15.385-24.924 37.446-39.213 49.273-31.913 11.826 7.302 8.943 33.428-6.441 58.353z" fill="#9cda82"/></g><g><path d="m365.1 73.398c11.451-18.554 26.598-31.205 38.472-33.455-1.184-2.395-2.821-4.312-4.936-5.617-11.827-7.3-33.888 6.989-49.273 31.913-15.388 24.927-18.27 51.049-6.443 58.353 3.021 1.865 6.717 2.313 10.794 1.539-5.446-10.998-1.248-32.264 11.386-52.733z" fill="#8dd470"/></g><g><path d="m284.707 59.214c-1.482 29.256 8.572 53.542 22.45 54.238 13.884.71 26.338-22.437 27.819-51.691 1.484-29.257-8.569-53.54-22.451-54.245-13.881-.7-26.336 22.443-27.818 51.698z" fill="#9cda82"/></g><g><path d="m302.746 60.422c1.149-22.689 8.902-41.695 18.797-48.759-2.732-2.507-5.767-3.981-9.018-4.147-13.881-.7-26.336 22.443-27.819 51.698-1.482 29.256 8.572 53.542 22.45 54.238 3.117.16 6.162-.891 9.023-2.935-8.934-8.211-14.567-27.687-13.433-50.095z" fill="#8dd470"/></g><g><path d="m365.618 73.344c-8.704 27.967-26.522 47.294-39.793 43.161-13.273-4.131-16.97-30.153-8.264-58.122 8.705-27.968 26.524-47.29 39.793-43.159 13.274 4.131 16.975 30.153 8.264 58.12z" fill="#9cda82"/></g><g><path d="m333.806 59.982c6.4-20.565 17.729-36.441 28.552-41.771-1.48-1.384-3.144-2.408-5.004-2.987-13.269-4.131-31.089 15.191-39.793 43.159-8.706 27.968-5.009 53.99 8.264 58.122 3.513 1.092 7.347.531 11.242-1.391-9.053-8.49-10.744-31.085-3.261-55.132z" fill="#8dd470"/></g><g><path d="m383.804 153.234c.137-6.39-.743-12.465-2.511-18.174-5.088-19.421-21.699-36.738-44.801-43.931-21.181-6.594-42.697-3.079-57.853 7.645-6.452 4.147-12.067 9.67-16.597 16.552-22.503 34.169-32.353 76.698-35.684 117.053-.93 11.233-.962 22.687.554 33.879 1.301 9.611 4.361 20.39 9.291 29.314 5.333 11.862 14.751 21.222 27.075 25.499.284.124.535.211.749.253.199.065.395.145.6.209.201.062.407.113.613.167.196.087.455.156.76.22 12.574 3.471 25.638 1.11 36.765-5.624 9.118-4.547 17.759-11.686 24.284-18.86 7.6-8.358 14.074-17.804 19.692-27.583 20.163-35.108 36.193-75.713 37.063-116.619z" fill="#ffaa75"/></g><g><path d="m383.804 153.234c.137-6.39-.743-12.465-2.511-18.174-5.088-19.421-21.699-36.738-44.801-43.931-21.181-6.594-42.697-3.079-57.853 7.645-6.452 4.147-12.067 9.67-16.597 16.552-22.503 34.169-32.353 76.698-35.684 117.053-.93 11.233-.962 22.687.554 33.879 1.301 9.611 4.361 20.39 9.291 29.314 5.333 11.862 14.751 21.222 27.075 25.499.284.124.535.211.749.253.199.065.395.145.6.209.201.062.407.113.613.167.196.087.455.156.76.22 12.574 3.471 25.638 1.11 36.765-5.624 9.118-4.547 17.759-11.686 24.284-18.86 7.6-8.358 14.074-17.804 19.692-27.583 20.163-35.108 36.193-75.713 37.063-116.619z" fill="#ffaa75"/></g><g><path d="m293.886 287.772c-4.811-10.219-8.225-21.152-10.716-32.145-8.958-39.488-12.353-83.011-1.167-122.365 2.25-7.925 5.945-14.882 10.851-20.777 8.528-11.228 21.807-19.589 37.416-23-19.109-4.189-37.959-.384-51.632 9.29-6.452 4.147-12.068 9.671-16.597 16.552-22.503 34.169-32.353 76.698-35.684 117.052-.93 11.233-.962 22.687.553 33.879 1.301 9.611 4.361 20.39 9.291 29.314 5.333 11.862 14.751 21.222 27.075 25.499.284.124.536.211.749.253.199.065.395.145.6.209.201.062.407.113.613.167.196.087.455.156.76.22 12.574 3.471 25.638 1.11 36.765-5.624 2.613-1.303 5.184-2.824 7.68-4.493-6.882-6.884-12.64-15.708-16.557-24.031z" fill="#ff9a5c"/></g><g><path d="m199.32 121.857c3.446 7.794-.081 16.907-7.876 20.352-7.796 3.444-16.907-.082-20.353-7.878l-37.944-85.861c-3.444-7.795.084-16.907 7.877-20.352 7.796-3.446 16.907.081 20.352 7.876z" fill="#9cda82"/></g><g><path d="m185.224 126.006-37.944-85.862c-1.964-4.445-1.654-9.316.415-13.322-2.225-.065-4.498.336-6.67 1.296-7.794 3.445-11.321 12.556-7.877 20.352l37.944 85.861c3.446 7.795 12.557 11.322 20.353 7.878 3.348-1.481 5.903-4.011 7.462-7.03-5.762-.167-11.197-3.551-13.683-9.173z" fill="#8dd470"/></g><g><path d="m196.447 122.169c-1.691 8.352 3.71 16.495 12.062 18.186 8.353 1.691 16.495-3.71 18.186-12.063l18.629-92.005c1.692-8.353-3.709-16.495-12.063-18.186-8.351-1.692-16.494 3.709-18.186 12.061z" fill="#9cda82"/></g><g><path d="m213.638 117.391 18.629-92.005c.513-2.534 1.627-4.789 3.152-6.664-.697-.25-1.409-.47-2.158-.62-8.351-1.692-16.494 3.709-18.186 12.061l-18.629 92.006c-1.691 8.352 3.71 16.495 12.062 18.186 5.819 1.178 11.53-1.091 15.033-5.398-7.093-2.544-11.443-9.96-9.903-17.566z" fill="#8dd470"/></g><g><ellipse cx="374.707" cy="258.939" fill="#fd7a6e" rx="112.557" ry="88.073"/></g><g><path d="m212.615 114.726c.92 8.473-5.203 16.087-13.676 17.007-8.472.92-16.087-5.203-17.007-13.675l-10.134-93.324c-.92-8.472 5.203-16.087 13.675-17.007 8.473-.92 16.087 5.203 17.007 13.675z" fill="#9cda82"/></g><g><path d="m197.273 116.392-10.134-93.324c-.616-5.675 1.936-10.953 6.229-14.105-2.4-1.062-5.097-1.54-7.895-1.236-8.472.92-14.595 8.534-13.675 17.007l10.134 93.324c.92 8.473 8.535 14.595 17.007 13.675 2.798-.304 5.33-1.349 7.446-2.902-4.87-2.156-8.495-6.764-9.112-12.439z" fill="#8dd470"/></g><g><path d="m261.019 138.075c-2.451-7.047-5.66-13.294-9.495-18.744-12.24-18.957-33.655-30.466-56.64-28.011-21.073 2.25-38.37 15.702-47.237 34.192-3.944 7.414-6.605 15.959-7.775 25.504-5.821 47.399 2.726 98.285 16.064 143.883 3.712 12.695 8.293 25.228 14.115 36.787 4.998 9.926 11.999 20.34 19.875 27.892 9.412 10.585 21.367 16.608 33.807 15.782.297.007.55-.009.749-.056.201-.019.406-.018.609-.042.201-.02.4-.058.601-.09.204.008.459-.032.747-.099 12.333-1.822 22.745-10.235 29.712-22.568 6.101-9.041 10.744-20.703 13.534-31.458 3.245-12.53 5.074-25.745 6.026-38.942 3.407-47.385 1.01-98.931-14.692-144.03z" fill="#fff1cf"/></g><g><path d="m309.842 258.939c0-42.238 38.002-77.526 88.711-86.086-7.687-1.298-15.663-1.987-23.846-1.987-62.164 0-112.557 39.432-112.557 88.073s50.393 88.072 112.557 88.072c8.183 0 16.159-.69 23.846-1.987-50.709-8.56-88.711-43.847-88.711-86.085z" fill="#fb695b"/></g><g><path d="m229.476 349.831c-7.877-7.553-14.877-17.965-19.876-27.892-5.821-11.559-10.403-24.092-14.114-36.787-13.338-45.598-21.885-96.485-16.064-143.883 1.17-9.545 3.832-18.09 7.775-25.504 4.731-9.867 11.864-18.297 20.689-24.358-4.24-.511-8.593-.558-13.003-.088-21.073 2.25-38.37 15.702-47.237 34.192-3.944 7.414-6.605 15.959-7.775 25.504-5.821 47.399 2.726 98.285 16.064 143.883 3.712 12.695 8.293 25.228 14.115 36.787 4.998 9.926 11.999 20.34 19.875 27.892 9.412 10.585 21.367 16.608 33.807 15.782.297.007.55-.009.749-.056.201-.019.406-.018.609-.042.201-.02.4-.058.601-.09.204.008.459-.032.747-.099 8.29-1.224 15.706-5.438 21.798-11.807-6.851-2.609-13.245-7.23-18.76-13.434z" fill="#ffeab7"/></g><g><path d="m484.436 345.16h-456.87c-10.997 0-19.994-8.997-19.994-19.994v-39.682c0-10.997 8.997-19.994 19.994-19.994h456.87c10.997 0 19.994 8.997 19.994 19.994v39.682c0 10.996-8.998 19.994-19.994 19.994z" fill="#e4996d"/></g><g><path d="m87.549 325.165v-39.682c0-10.997 8.997-19.994 19.994-19.994h-79.977c-10.997 0-19.994 8.997-19.994 19.994v39.682c0 10.997 8.997 19.994 19.994 19.994h79.977c-10.997.001-19.994-8.997-19.994-19.994z" fill="#df8a57"/></g><g><path d="m484.436 424.83h-456.87c-10.997 0-19.994-8.997-19.994-19.994v-39.682c0-10.997 8.997-19.994 19.994-19.994h456.87c10.997 0 19.994 8.997 19.994 19.994v39.682c0 10.997-8.998 19.994-19.994 19.994z" fill="#df8a57"/></g><g><path d="m87.549 404.836v-39.682c0-10.997 8.997-19.994 19.994-19.994h-79.977c-10.997 0-19.994 8.997-19.994 19.994v39.682c0 10.997 8.997 19.994 19.994 19.994h79.977c-10.997 0-19.994-8.997-19.994-19.994z" fill="#d97c41"/></g><g><path d="m484.436 504.501h-456.87c-10.997 0-19.994-8.997-19.994-19.994v-39.682c0-10.997 8.997-19.994 19.994-19.994h456.87c10.997 0 19.994 8.997 19.994 19.994v39.682c0 10.997-8.998 19.994-19.994 19.994z" fill="#e4996d"/></g><g><path d="m87.549 484.507v-39.682c0-10.997 8.997-19.994 19.994-19.994h-79.977c-10.997 0-19.994 8.997-19.994 19.994v39.682c0 10.997 8.997 19.994 19.994 19.994h79.977c-10.997 0-19.994-8.997-19.994-19.994z" fill="#df8a57"/></g><g><path d="m422.246 168.743c-1.608-.774-3.223-1.481-4.836-2.123-.933-.372-1.126-1.594-.372-2.257.006-.005.011-.01.017-.015 15.192-13.403 20.862-30.131 12.663-37.364s-27.161-2.231-42.353 11.171c-4.865 4.292-8.749 8.925-11.517 13.478-.524.862-1.759.862-2.283 0-2.768-4.553-6.652-9.186-11.517-13.478-15.192-13.403-34.154-18.404-42.353-11.171s-2.529 23.961 12.663 37.364c.006.005.012.01.017.015.753.664.56 1.886-.372 2.257-1.612.642-3.227 1.349-4.836 2.123-18.863 9.074-29.655 23.71-24.104 32.691s25.342 8.905 44.205-.169c1.82-.876 3.563-1.804 5.224-2.774.995-.581 2.193.256 1.998 1.392-.505 2.946-.778 6.05-.778 9.26 0 18.954 9.399 34.32 20.994 34.32s20.994-15.365 20.994-34.32c0-3.21-.272-6.314-.777-9.26-.195-1.135 1.004-1.972 1.998-1.392 1.661.97 3.404 1.898 5.224 2.774 18.863 9.074 38.654 9.15 44.205.169s-5.241-23.617-24.104-32.691z" fill="#9cda82"/></g><g><path d="m422.399 152.871c1.618 0 3.226.033 4.827.086 7.07-10.393 8.465-20.704 2.492-25.973-8.199-7.233-27.161-2.232-42.353 11.171-4.865 4.292-8.749 8.925-11.517 13.478-.524.862-1.759.862-2.283 0-2.768-4.553-6.652-9.186-11.517-13.478-15.192-13.403-34.154-18.404-42.353-11.171s-2.529 23.961 12.663 37.364c.006.005.012.01.017.015.753.664.56 1.886-.372 2.257-1.612.642-3.227 1.349-4.836 2.123-18.863 9.074-29.655 23.71-24.104 32.691 2.513 4.066 7.951 6.269 14.894 6.627 16.652-32.352 57.135-55.19 104.442-55.19z" fill="#8dd470"/></g><g><circle cx="61.223" cy="304.924" r="7.498"/><ellipse cx="108.557" cy="304.924" rx="7.498" ry="7.498" transform="matrix(.987 -.16 .16 .987 -47.442 21.326)"/><circle cx="61.223" cy="385.901" r="7.498"/><ellipse cx="108.557" cy="385.901" rx="7.498" ry="7.498" transform="matrix(.707 -.707 .707 .707 -241.077 189.79)"/><circle cx="61.223" cy="464.265" r="7.498"/><ellipse cx="108.557" cy="464.265" rx="7.498" ry="7.498" transform="matrix(.987 -.16 .16 .987 -72.965 23.384)"/><circle cx="403.444" cy="306.23" r="7.498"/><circle cx="450.778" cy="306.23" r="7.498"/><circle cx="403.444" cy="387.207" r="7.498"/><circle cx="450.778" cy="387.207" r="7.498"/><circle cx="403.444" cy="465.572" r="7.498"/><circle cx="450.778" cy="465.572" r="7.498"/><path d="m216.961 192.284c.408 3.851 3.662 6.71 7.449 6.71.264 0 .531-.014.799-.042l16.301-1.727c4.119-.437 7.104-4.129 6.668-8.249-.437-4.119-4.124-7.104-8.249-6.668l-16.301 1.728c-4.117.436-7.103 4.129-6.667 8.248z"/><path d="m216.281 225.027-16.301 1.728c-4.119.436-7.104 4.129-6.668 8.248.408 3.851 3.662 6.71 7.449 6.71.264 0 .531-.014.799-.042l16.301-1.727c4.119-.437 7.104-4.129 6.668-8.249-.436-4.118-4.13-7.1-8.248-6.668z"/><path d="m511.93 325.165v-39.682c0-11.516-7.121-21.395-17.188-25.482.005-.354.021-.709.021-1.062 0-27.982-15.236-54.377-41.823-72.546-3.979-8.442-12.739-16.678-24.435-22.888 7.917-8.96 12.469-18.805 12.469-27.414 0-6.005-2.176-11.099-6.294-14.731-10.338-9.12-30.046-5.858-47.507 7.288-1.341-3.861-3.073-7.59-5.148-11.151 6.023-5.879 11.691-13.002 16.554-20.879 18.125-29.368 19.844-58.891 3.998-68.674-7.142-4.407-16.452-3.915-26.409 1.145-2.675-11.107-8.453-18.496-16.583-21.026-8.127-2.528-17.079.274-25.587 7.901-5.328-9.816-12.721-15.513-21.094-15.938-18.598-.961-33.94 24.343-35.687 58.809-.545 10.756.359 21.128 2.594 30.34-1.845 1.039-3.638 2.165-5.368 3.382-7.385 4.775-13.665 11.048-18.665 18.646-.123.186-.242.381-.364.569-4.23-5.787-9.197-10.787-14.703-14.907l11.963-59.086c1.216-6.003.021-12.121-3.365-17.226-3.386-5.104-8.557-8.584-14.559-9.8-6.001-1.217-12.12-.022-17.226 3.364-3.138 2.082-5.656 4.842-7.418 8.052l-.171-1.574c-.661-6.089-3.654-11.557-8.428-15.395s-10.759-5.592-16.845-4.926c-12.57 1.365-21.687 12.702-20.322 25.272l.171 1.575c-2.41-2.757-5.461-4.913-8.973-6.272-5.712-2.211-11.944-2.064-17.546.412-11.564 5.111-16.815 18.678-11.706 30.243l21.642 48.972c-4.265-.861-8.621-1.306-13.04-1.306-15.753 0-30.985 5.667-42.89 15.957-10.266 8.874-17.506 20.68-20.769 33.704-32.316 4.285-56.841 31.792-56.841 65.035 0 16.594 6.238 32.236 17.041 44.126h-3.865c-15.16 0-27.494 12.334-27.494 27.494v39.682c0 7.872 3.331 14.977 8.651 19.994-5.32 5.017-8.651 12.122-8.651 19.995v39.682c0 7.872 3.331 14.977 8.651 19.994-5.32 5.017-8.651 12.122-8.651 19.995v39.682c0 15.16 12.334 27.494 27.494 27.494h456.87c15.16 0 27.494-12.334 27.494-27.494v-39.682c0-7.873-3.331-14.978-8.651-19.995 5.32-5.017 8.651-12.122 8.651-19.994v-39.682c0-7.873-3.331-14.978-8.651-19.995 5.322-5.02 8.653-12.124 8.653-19.997zm-32.184-67.176h-210.08c.303-19.585 9.945-38.326 26.904-52.819.041.068.071.139.112.206 7.269 11.758 28.063 13.493 49.534 4.574.284 23.062 12.696 41.012 28.489 41.012 15.794 0 28.205-17.95 28.489-41.012 21.471 8.921 42.266 7.186 49.535-4.574.042-.067.072-.138.112-.206 16.957 14.494 26.602 33.244 26.905 52.819zm-54.99-125.381c.333.293 1.217 1.074 1.217 3.483 0 5.17-4.292 14.173-13.881 22.632-.006.005-.013.011-.019.017-2.326 2.053-3.399 5.102-2.869 8.156.528 3.045 2.558 5.547 5.431 6.692 1.465.583 2.933 1.227 4.36 1.914 12.451 5.99 19.536 13.844 21.035 18.972.579 1.981.098 2.76-.061 3.017-2.588 4.188-17.698 5.133-34.575-2.985-1.604-.771-3.183-1.61-4.691-2.491-2.958-1.729-6.687-1.586-9.498.362-2.813 1.95-4.256 5.394-3.676 8.774.444 2.588.669 5.277.669 7.991 0 15.35-7.125 26.82-13.494 26.82s-13.494-11.47-13.494-26.82c0-2.712.226-5.401.67-7.991.58-3.38-.863-6.825-3.676-8.774-1.502-1.041-3.265-1.566-5.033-1.566-1.541 0-3.086.399-4.463 1.204-1.508.88-3.087 1.719-4.693 2.491-16.876 8.119-31.986 7.173-34.574 2.984-.158-.256-.64-1.035-.061-3.016 1.499-5.127 8.584-12.982 21.035-18.972 1.43-.688 2.897-1.332 4.363-1.916 2.872-1.145 4.901-3.647 5.429-6.693.528-3.052-.543-6.098-2.867-8.151l-.022-.019c-9.589-8.459-13.881-17.462-13.881-22.632 0-2.409.885-3.189 1.218-3.483 4.03-3.555 18.665-.971 32.429 11.171 4.13 3.644 7.612 7.707 10.071 11.752 1.619 2.66 4.44 4.248 7.549 4.248h.002c3.109-.001 5.931-1.59 7.548-4.25 2.458-4.044 5.94-8.107 10.07-11.75 13.765-12.142 28.401-14.726 32.432-11.171zm-30.059-91.9c6.129 3.784 5.716 24.376-8.883 48.031-3.835 6.213-8.206 11.856-12.826 16.599-2.818-3.043-5.919-5.879-9.278-8.462 3.604-6.462 6.713-13.73 9.068-21.301 3.199-10.27 4.908-20.582 5.041-30 7.081-4.985 13.588-6.896 16.878-4.867zm-39.571-18.323c3.347 1.042 6.098 6.412 7.179 14.016 1.387 9.755-.016 22.407-3.849 34.714-1.973 6.342-4.533 12.403-7.481 17.798-3.892-1.95-7.986-3.616-12.254-4.945-5.966-1.857-12.028-2.994-18.046-3.443.585-6.409 1.954-13.188 4.047-19.913 3.83-12.305 9.857-23.517 16.538-30.762 5.206-5.646 10.517-8.506 13.866-7.465zm-62.929 37.209c1.393-27.475 12.521-44.592 19.724-44.592.075 0 .151.002.225.005 3.848.195 8.138 5.476 11.136 13.588-5.237 7.829-9.685 17.289-12.881 27.559-2.584 8.302-4.204 16.737-4.79 24.706-4.011.487-7.944 1.294-11.753 2.415-1.489-7.226-2.08-15.408-1.661-23.681zm-23.891 59.856c3.875-5.886 8.715-10.72 14.388-14.366.094-.06.186-.123.277-.187 13.874-9.816 33.048-12.287 51.292-6.606 19.909 6.198 35.15 21.016 39.776 38.671.028.107.058.213.091.319.295.952.552 1.921.789 2.895-.069.082-.143.162-.212.244-2.296-2.751-4.887-5.41-7.697-7.889-18.511-16.331-40.985-21.132-52.276-11.171-4.118 3.633-6.294 8.727-6.295 14.731 0 8.609 4.552 18.454 12.469 27.415-11.698 6.211-20.459 14.448-24.437 22.891-5.307 3.627-10.161 7.579-14.532 11.807-2.638-22.733-7.273-43.741-13.836-62.592-1.146-3.294-2.47-6.462-3.946-9.504 1.336-2.262 2.729-4.501 4.149-6.658zm-22.916 4.196c3.502 4.978 6.377 10.661 8.546 16.895 7.407 21.276 12.238 45.558 14.359 72.17.041.509.132 1.002.267 1.475-8.858 13.334-13.705 28.309-13.896 43.803h-100.399c-7.033-32.528-9.826-62.686-8.345-89.951l15.133-1.603c4.119-.437 7.104-4.129 6.668-8.249-.437-4.12-4.138-7.101-8.249-6.668l-12.256 1.298c.035-.294.061-.595.097-.888 1.039-8.472 3.378-16.175 6.953-22.895.049-.092.096-.186.141-.28 8.092-16.875 23.521-28.082 41.271-29.978 19.413-2.073 38.398 7.362 49.543 24.622.054.085.11.168.167.249zm-30.162-56.443 7.198-35.552c.421-2.076 1.625-3.865 3.391-5.036 1.765-1.171 3.878-1.585 5.957-1.163 2.077.42 3.866 1.624 5.037 3.39 1.171 1.765 1.584 3.88 1.164 5.957l-10.957 54.112c-3.251-1.406-6.603-2.558-10.033-3.426l-1.917-17.651c.059-.206.116-.415.16-.631zm-28.945-52.019c2.105-.23 4.175.376 5.826 1.704s2.686 3.218 2.915 5.324l6.656 61.291c-2.518-.026-5.051.086-7.593.358-2.773.296-5.5.77-8.172 1.405l-1.938-17.851-4.723-43.49c-.472-4.348 2.681-8.269 7.029-8.741zm-42.226 19.794c1.938-.857 4.092-.907 6.068-.143 1.976.765 3.535 2.253 4.392 4.19l12.895 29.18c.001.001.001.002.001.004l1.909 4.32c.044.1.104.188.153.286l1.932 17.792c-3.136 1.599-6.141 3.451-8.992 5.536l-22.408-50.705c-1.766-4 .05-8.692 4.05-10.46zm-114.668 178.885c0-27.186 21.258-49.397 48.396-50.566 3.573-.154 6.541-2.81 7.088-6.343 3.784-24.392 25.286-42.786 50.015-42.786 3.364 0 6.68.331 9.926.976-1.4 2.234-2.695 4.56-3.863 6.984-4.4 8.316-7.268 17.727-8.524 27.974-3.947 32.136-1.761 68.396 6.491 107.888h-83.712c-15.945-8.98-25.817-25.799-25.817-44.127zm145.872 123.796c-4.142 0-7.5 3.358-7.5 7.5s3.358 7.5 7.5 7.5h309.175c6.889 0 12.494 5.605 12.494 12.495v39.682c0 6.889-5.605 12.494-12.494 12.494h-65.436c-4.142 0-7.5 3.358-7.5 7.5s3.358 7.5 7.5 7.5h65.436c6.889 0 12.494 5.605 12.494 12.495v39.682c0 6.889-5.605 12.494-12.494 12.494h-456.871c-6.889 0-12.494-5.605-12.494-12.494v-39.682c0-6.89 5.605-12.495 12.494-12.495h361.442c4.142 0 7.5-3.358 7.5-7.5s-3.358-7.5-7.5-7.5h-361.442c-6.889 0-12.494-5.605-12.494-12.494v-39.682c0-6.89 5.605-12.495 12.494-12.495h117.704c4.142 0 7.5-3.358 7.5-7.5s-3.358-7.5-7.5-7.5h-117.704c-6.889 0-12.494-5.605-12.494-12.494v-39.682c0-6.889 5.605-12.494 12.494-12.494h456.87c6.889 0 12.494 5.605 12.494 12.494v39.682c0 6.889-5.605 12.494-12.494 12.494z"/></g></g></svg>