<svg enable-background="new 0 0 512 512" viewBox="0 0 512 512" xmlns="http://www.w3.org/2000/svg"><g id="_x34_0_x2C__Credit_Card_x2C__Card_x2C__Business_and_Finance_x2C__Pay_Card_x2C__Payment_x2C__Chip_x2C__Credit_x2C__Money"><g><path d="m322.9 344.05 127.41-77.53c15.74-9.72 36.38-4.84 46.1 10.9 9.73 15.75 4.86 36.38-10.89 46.1l-222.47 137.45c-1.01.62-2.17.95-3.35.95-11.72 0-187.35 0-199.1 0l-13.19-90.92 13.19-79.29c24.85-14.38 56.25-14.49 81.55.91 9.23 5.62 19.92 8.38 30.73 8.38h132.15c13.71 0 25.29 10.79 25.57 24.49.15 7.29-2.83 13.9-7.7 18.56z" fill="#ffd9b3"/><path d="m60.6 461.92v19.08h-50v-220h50v30.71z" fill="#80e2f8"/><path d="m416.01 51v30l-150 6-170-6v-30c0-11.05 8.95-20 20-20h280c11.05 0 20 8.95 20 20z" fill="#f2d744"/><path d="m416.01 121v100c0 11.05-8.95 20-20 20h-280c-11.05 0-20-8.95-20-20v-100l153-14z" fill="#f2d744"/><path d="m266.01 161h110v40h-110z" fill="#eae4f0"/><path d="m96.01 81h320v40h-320z" fill="#df6378"/><g><path d="m504.919 272.165c-12.603-20.406-39.457-26.756-59.807-14.188l-104.777 63.758c-2.159-17.243-17.293-30.735-35.303-30.735h-132.152c-9.272 0-18.101-2.392-25.53-6.918-23.342-14.216-51.541-16.885-76.749-7.947v-15.135c0-5.522-4.478-10-10-10h-50c-5.522 0-10 4.478-10 10v220c0 5.522 4.478 10 10 10h50c5.522 0 10-4.478 10-10v-9.08h189.101c3.042 0 6.018-.845 8.605-2.444l222.468-137.447c20.402-12.599 26.748-39.454 14.144-59.864zm-454.318 198.835h-30v-200h30zm429.664-155.987-221.594 136.907h-188.07v-154.171c21.17-10.073 46.107-8.911 66.345 3.415 10.565 6.435 22.991 9.836 35.935 9.836h132.151c8.421 0 15.404 6.589 15.566 14.688.168 8.427-6.582 15.312-14.997 15.312h-75c-5.522 0-10 4.478-10 10s4.478 10 10 10h75c9 0 17.175-3.384 23.361-8.932l126.603-77.04c11.023-6.808 25.531-3.378 32.338 7.646 6.808 11.026 3.382 25.533-7.638 32.339z"/><path d="m116.01 251h280c16.542 0 30-13.458 30-30 0-53.769 0-118.491 0-170 0-16.542-13.458-30-30-30h-280c-16.542 0-30 13.458-30 30v170c0 16.542 13.458 30 30 30zm280-20h-280c-5.514 0-10-4.486-10-10v-90h300v90c0 5.514-4.486 10-10 10zm-290-140h300v20h-300zm10-50h280c5.514 0 10 4.486 10 10v20h-300v-20c0-5.514 4.486-10 10-10z"/><path d="m376.01 151h-110c-5.522 0-10 4.478-10 10v40c0 5.522 4.478 10 10 10h110c5.522 0 10-4.478 10-10v-40c0-5.522-4.477-10-10-10zm-10 40h-90v-20h90z"/><path d="m226.01 151h-90c-5.522 0-10 4.478-10 10s4.478 10 10 10h90c5.522 0 10-4.478 10-10s-4.477-10-10-10z"/><path d="m226.01 191h-90c-5.522 0-10 4.478-10 10s4.478 10 10 10h90c5.522 0 10-4.478 10-10s-4.477-10-10-10z"/></g></g></g><g id="Layer_1"/></svg>