<svg height="512" viewBox="0 0 128 128" width="512" xmlns="http://www.w3.org/2000/svg"><g><path d="m64 57.3v-.011a44 44 0 0 1 49.629-11.7 50.989 50.989 0 0 0 -99.256 0 44 44 0 0 1 49.627 11.711z" fill="#fb8d4b"/><g fill="#feea61"><circle cx="65" cy="25.006" r="6.173"/><path d="m81.255 45.273.055-.013a44.16 44.16 0 0 1 11.174-2.667l.048-.011a7.851 7.851 0 1 0 -11.277 2.691z"/><path d="m34.017 42.458a44.122 44.122 0 0 1 18.549 5.557l.3.091a10.31 10.31 0 1 0 -18.856-5.764v.114z"/></g><path d="m71.173 68.5h-.015c10.735 1.029 17.929 4.192 21.68 6.311l20.79-29.218a44 44 0 0 0 -49.628 11.7v.007a43.855 43.855 0 0 1 7.173 11.2z" fill="#e6a537"/><path d="m64 68.162c2.542 0 4.925.124 7.159.338h.014a44.022 44.022 0 0 0 -56.8-22.9l20.79 29.218c4.53-2.566 14.079-6.656 28.837-6.656z" fill="#fdca74"/><path d="m95.925 76.825-31.925 44.868-31.925-44.868s10.446-8.663 31.925-8.663 31.925 8.663 31.925 8.663z" fill="#fa7578"/><g><path d="m63.718 42.273a2.282 2.282 0 1 0 2.282-2.282 2.282 2.282 0 0 0 -2.282 2.282z"/><path d="m79.1 22.189a2.282 2.282 0 1 0 2.281-2.282 2.281 2.281 0 0 0 -2.281 2.282z"/><circle cx="47.32" cy="22.724" r="2.281"/><path d="m92.068 16.841c1.171.814 2.319 1.689 3.412 2.6a1.75 1.75 0 1 0 2.241-2.689c-1.171-.976-2.4-1.912-3.653-2.784a1.75 1.75 0 0 0 -2 2.873z"/><path d="m115.331 45.237a.338.338 0 0 0 0-.045c-.006-.026-.015-.053-.021-.079v-.008a52.9 52.9 0 0 0 -10.826-21.6 1.75 1.75 0 1 0 -2.685 2.244 49.468 49.468 0 0 1 9.246 17.042 45.584 45.584 0 0 0 -15.977-2.164 9.594 9.594 0 1 0 -16.95 4.054 45.53 45.53 0 0 0 -14.118 10.024 45.674 45.674 0 0 0 -8.783-7.186 12.056 12.056 0 1 0 -22.817-6.945 45.638 45.638 0 0 0 -15.45 2.226 49.26 49.26 0 0 1 66.986-30.538 1.75 1.75 0 1 0 1.42-3.2 52.765 52.765 0 0 0 -72.688 36.13.384.384 0 0 0 0 .048 1.738 1.738 0 0 0 .278 1.367l19.692 27.676a19.233 19.233 0 0 0 -1.681 1.195 1.751 1.751 0 0 0 -.308 2.362l14.157 19.9a1.75 1.75 0 0 0 2.852-2.029l-13.139-18.47c3.355-2.161 13.1-7.329 29.481-7.329 16.305 0 26.1 5.177 29.478 7.334l-29.478 41.429-10.972-15.42a1.75 1.75 0 1 0 -2.851 2.029l12.4 17.424a1.751 1.751 0 0 0 2.852 0l31.923-44.868a1.751 1.751 0 0 0 -.309-2.362 19.361 19.361 0 0 0 -1.681-1.2l19.692-27.675a1.744 1.744 0 0 0 .277-1.366zm-35.769-6.462a6.1 6.1 0 1 1 11.8 2.165 45.784 45.784 0 0 0 -9.806 2.34 6.1 6.1 0 0 1 -1.994-4.505zm-35.242-4.994a8.531 8.531 0 0 1 7.834 11.975 45.4 45.4 0 0 0 -16.254-4.938 8.569 8.569 0 0 1 8.42-7.037zm-8.634 38.749-18.574-26.1a42.033 42.033 0 0 1 48.254 15.408 42.644 42.644 0 0 1 2.886 4.69c-1.369-.074-2.783-.116-4.252-.116-13.807 0-23.172 3.469-28.314 6.118zm56.627 0a57.147 57.147 0 0 0 -19.981-5.67 46.144 46.144 0 0 0 -4.114-7.051c-.606-.852-1.243-1.669-1.9-2.468a42.189 42.189 0 0 1 44.565-10.914z"/><path d="m72.923 25.006a7.923 7.923 0 1 0 -7.923 7.923 7.932 7.932 0 0 0 7.923-7.923zm-7.923 4.423a4.423 4.423 0 1 1 4.423-4.423 4.428 4.428 0 0 1 -4.423 4.423z"/></g></g></svg>