<svg enable-background="new 0 0 512 512" viewBox="0 0 512 512" xmlns="http://www.w3.org/2000/svg"><g id="_x31_9_x2C__crocodile_x2C__mammal_x2C__animal_x2C__wildlife_x2C__animal_kingdom_x2C__zoo"><g><path d="m308.128 454.11-37.05 11.89c.86 21.02 8.89 37.5 18.67 37.5 12.412 0 20.601-25.068 18.38-49.39z" fill="#e2e6e9"/><path d="m203.868 454.11c-2.222 24.327 6.02 49.39 18.38 49.39 9.78 0 17.81-16.48 18.67-37.5z" fill="#e2e6e9"/><path d="m355.998 226-13.733 31.7 1.703 40.49 24.23-8.55c31.64-11.17 52.8-41.08 52.8-74.64v-14.4z" fill="#7bd94c"/><path d="m155.998 226-65-25.4v14.4c0 33.56 21.16 63.47 52.8 74.64l24.23 8.55 3.77-34.09z" fill="#7bd94c"/><path d="m439.748 151c0 41.662-33.838 75-75 75h-8.75c-.147.882-33.601 201.596-33.67 202.01-3.646 21.856-22.571 37.99-44.84 37.99-15.517 0-27.53 0-42.98 0-22.247 0-41.19-16.11-44.84-37.99-.662-3.974-33.487-200.914-33.67-202.01h-8.75c-21.957 0-42.233-9.496-56.25-25.4-31.275-35.399-22.36-90.802 18.81-114.58-2.021-41.942 43.617-68.852 79.24-47.66 35.76-39.774 98.069-39.853 133.9 0 7.85-4.67 17.01-7.36 26.8-7.36 30.017 0 53.881 25.119 52.44 55.02 22.633 13.072 37.56 37.432 37.56 64.98z" fill="#b5f84d"/><g><path d="m409.725 81.851c-1.164-42.937-46.152-70.955-85.267-52.76-10.321-10.169-22.806-17.964-36.419-22.694-3.918-1.36-8.187.71-9.546 4.622-1.36 3.912.709 8.187 4.622 9.546 13.069 4.542 24.915 12.431 34.257 22.812 2.395 2.661 6.334 3.261 9.41 1.429 6.934-4.125 14.875-6.306 22.965-6.306 25.721 0 46.179 21.589 44.949 47.158-.136 2.805 1.308 5.451 3.74 6.855 20.255 11.701 33.811 33.56 33.811 58.486 0 37.491-30.473 67.5-67.5 67.5h-8.75c-3.666 0-6.795 2.65-7.398 6.268l-17.219 103.298c-.763 4.571 2.762 8.735 7.406 8.735 3.6 0 6.777-2.6 7.389-6.267l4.458-26.743 20.062-7.079c34.573-12.206 57.803-45.043 57.803-81.712v-11.663c30.971-37.658 22.774-94.405-18.773-121.485zm-44.023 200.716-12.251 4.323 8.9-53.391c1.335-.204 26.487 2.078 51.095-15.918-1.055 29.272-19.971 55.181-47.744 64.986z"/><path d="m330.15 381.062c-4.091-.679-7.951 2.08-8.631 6.166l-6.589 39.548c-3 17.973-18.576 31.725-37.442 31.725h-42.98c-18.846 0-34.44-13.732-37.441-31.724l-33.67-202.009c-.604-3.617-3.732-6.268-7.398-6.268h-8.75c-19.885 0-37.995-8.538-50.63-22.866-28.218-31.939-19.954-81.81 16.94-103.12 2.433-1.404 3.876-4.051 3.74-6.855-1.727-35.915 37.376-59.02 67.914-40.853 3.076 1.831 7.016 1.232 9.41-1.429 9.342-10.382 21.188-18.271 34.257-22.812 3.913-1.359 5.982-5.634 4.622-9.546-1.359-3.912-5.634-5.982-9.546-4.622-13.613 4.73-26.098 12.525-36.419 22.694-39.248-18.257-84.106 9.945-85.267 52.76-40.979 26.721-50.121 83.377-18.772 121.488v11.661c0 36.669 23.229 69.506 57.804 81.712l20.059 7.079 20.91 125.454c1.741 10.432 6.634 20.167 13.883 27.789-.093 1.739-.155 3.481-.155 5.217 0 24.226 9.017 48.75 26.25 48.75 12.983 0 23.035-15.09 25.61-37.5h16.281c2.574 22.41 12.627 37.5 25.61 37.5 17.233 0 26.25-24.524 26.25-48.75 0-1.736-.062-3.479-.155-5.218 7.252-7.627 12.143-17.36 13.884-27.79l6.59-39.55c.678-4.087-2.083-7.95-6.169-8.631zm-183.855-98.495c-27.769-9.803-46.684-35.704-47.746-64.968 14.049 10.32 30.944 15.901 48.699 15.901h2.396l8.899 53.39zm75.953 213.433c-2.962 0-9.808-9.735-11.053-27.909 6.667 3.274 13.989 5.116 21.533 5.368-2.094 14.889-7.922 22.541-10.48 22.541zm67.5 0c-2.559 0-8.386-7.652-10.48-22.541 7.544-.252 14.868-2.094 21.533-5.367-1.246 18.174-8.092 27.908-11.053 27.908z"/><path d="m154.748 83.5v7.5c0 4.143 3.357 7.5 7.5 7.5s7.5-3.357 7.5-7.5v-7.5c0-4.143-3.357-7.5-7.5-7.5s-7.5 3.357-7.5 7.5z"/><path d="m357.248 91v-7.5c0-4.143-3.357-7.5-7.5-7.5s-7.5 3.357-7.5 7.5v7.5c0 4.143 3.357 7.5 7.5 7.5s7.5-3.357 7.5-7.5z"/><path d="m280.694 400.696-7.5 7.5c-4.74 4.741-1.318 12.804 5.304 12.804 1.919 0 3.839-.732 5.304-2.196l7.5-7.5c2.929-2.93 2.929-7.678 0-10.607-2.93-2.928-7.678-2.928-10.608-.001z"/><path d="m220.694 400.696c-2.929 2.93-2.929 7.678 0 10.607l7.5 7.5c1.465 1.464 3.385 2.196 5.304 2.196 6.624 0 10.041-8.065 5.304-12.804l-7.5-7.5c-2.93-2.926-7.678-2.926-10.608.001z"/><path d="m298.424 131.073c-23.395-23.393-61.459-23.393-84.854 0-2.929 2.93-2.929 7.678 0 10.607 2.93 2.928 7.678 2.928 10.607 0 17.584-17.586 46.051-17.59 63.639 0 2.931 2.929 7.678 2.928 10.607 0 2.93-2.929 2.93-7.677.001-10.607z"/><path d="m298.424 190.696c-23.395-23.393-61.459-23.393-84.854 0-2.929 2.93-2.929 7.678 0 10.607 2.93 2.928 7.678 2.928 10.607 0 17.584-17.586 46.051-17.59 63.639 0 1.465 1.464 3.385 2.196 5.304 2.196 6.624.001 10.042-8.064 5.304-12.803z"/><path d="m298.424 250.319c-23.395-23.393-61.459-23.393-84.854 0-2.929 2.93-2.929 7.678 0 10.607 2.93 2.928 7.678 2.928 10.607 0 17.584-17.586 46.051-17.59 63.639 0 1.465 1.464 3.385 2.196 5.304 2.196 6.624.001 10.042-8.064 5.304-12.803z"/><path d="m298.423 309.942c-23.393-23.393-61.459-23.393-84.852 0-2.93 2.929-2.93 7.678-.001 10.606s7.678 2.93 10.606.001c17.547-17.545 46.094-17.545 63.641 0 2.928 2.928 7.677 2.929 10.606-.001 2.93-2.928 2.93-7.677 0-10.606z"/><circle cx="333.198" cy="358.767" r="7.5"/><circle cx="255.998" cy="8.5" r="7.5"/></g></g></g><g id="Layer_1"/></svg>