<svg height="512" viewBox="0 0 128 128" width="512" xmlns="http://www.w3.org/2000/svg"><g><g><path d="m59.3 35.352-9.1 12.714a12 12 0 0 0 -1.984 9.4 12.235 12.235 0 0 0 3.994 6.818l13.529 11.704a12.216 12.216 0 0 0 7.321 2.974 11.41 11.41 0 0 0 2.17-.064 12 12 0 0 0 6.845-3.248l11.268-10.837a11.66 11.66 0 0 0 3.376-6.031 11.468 11.468 0 0 0 .216-1.4 12.216 12.216 0 0 0 -4.19-10.433l-15.668-13.561a12.235 12.235 0 0 0 -10.934-2.657 11.821 11.821 0 0 0 -6.843 4.621z" fill="#fecd1a"/><path d="m73.06 78.962 6.989 10.864a8.5 8.5 0 0 0 6.357 3.913 8.165 8.165 0 0 0 2.5-.149 9.021 9.021 0 0 0 3.2-1.286l10.535-6.675a10.051 10.051 0 0 0 3.084-3.074 9.788 9.788 0 0 0 .654-1.157 10.327 10.327 0 0 0 -.428-10.066l-8.641-13.407c-.123-.19-.253-.371-.375-.544a11.468 11.468 0 0 1 -.216 1.4 11.66 11.66 0 0 1 -3.376 6.031l-11.268 10.838a12 12 0 0 1 -6.845 3.25 11.41 11.41 0 0 1 -2.17.062z" fill="#fc852d"/><path d="m88.907 93.59 1.763 7.336a5.35 5.35 0 0 0 2.9 3.689 4.937 4.937 0 0 0 3.5.194l7.211-2.187a6.2 6.2 0 0 0 2.9-1.952 7.31 7.31 0 0 0 1.6-6.42l-2.439-10.117a6.332 6.332 0 0 0 -.613-1.578 10.051 10.051 0 0 1 -3.084 3.074l-10.54 6.671a9.021 9.021 0 0 1 -3.198 1.29z" fill="#fecd1a"/><path d="m37.377 29.145-5.094 11.384a9 9 0 0 0 -.814 3.35 8.193 8.193 0 0 0 .211 2.5 8.5 8.5 0 0 0 4.785 5.73l11.754 5.358a12 12 0 0 1 1.984-9.4l9.1-12.714a11.821 11.821 0 0 1 6.84-4.621c-.189-.1-.387-.2-.584-.285l-14.508-6.629a10.325 10.325 0 0 0 -10.023 1.021 9.66 9.66 0 0 0 -1.051.813 10.062 10.062 0 0 0 -2.6 3.493z" fill="#fc852d"/><path d="m21.841 26.813a6.191 6.191 0 0 0 -1.516 3.148l-1.13 7.45a4.937 4.937 0 0 0 .7 3.439 5.35 5.35 0 0 0 4.066 2.336l7.513.693a9 9 0 0 1 .814-3.35l5.094-11.384a10.062 10.062 0 0 1 2.6-3.493 6.342 6.342 0 0 0 -1.65-.38l-10.367-.962a7.31 7.31 0 0 0 -6.124 2.503z" fill="#fecd1a"/></g><g fill="#212f68"><path d="m81.317 39.417a1.75 1.75 0 0 0 2.289-2.647l-.858-.743a1.75 1.75 0 1 0 -2.289 2.647z"/><path d="m110.425 93.84-2.438-10.115a7.946 7.946 0 0 0 -.353-1.093c.084-.157.182-.3.261-.462a12.07 12.07 0 0 0 -.527-11.786l-8.641-13.408c-.024-.039-.052-.078-.078-.117a14.009 14.009 0 0 0 -4.81-11.234l-3.423-2.962a1.75 1.75 0 1 0 -2.291 2.646l3.423 2.962a10.52 10.52 0 0 1 3.593 8.947 9.761 9.761 0 0 1 -.184 1.194 9.953 9.953 0 0 1 -2.879 5.139l-11.266 10.835a10.219 10.219 0 0 1 -5.836 2.774 9.8 9.8 0 0 1 -1.871.055 10.4 10.4 0 0 1 -6.273-2.55l-13.526-11.707a10.541 10.541 0 0 1 -3.424-5.844 10.3 10.3 0 0 1 1.691-8.029l9.1-12.715a10.121 10.121 0 0 1 5.832-3.939 10.522 10.522 0 0 1 6.762.613 1.75 1.75 0 0 0 1.433-3.195 14.036 14.036 0 0 0 -8.368-.949c-.03-.014-.066-.033-.095-.046l-14.514-6.629a12.074 12.074 0 0 0 -11.723 1.164c-.159.107-.3.216-.451.325a7.859 7.859 0 0 0 -1.108-.185l-10.351-.96a9.054 9.054 0 0 0 -7.609 3.086 7.936 7.936 0 0 0 -1.938 4.045l-1.131 7.455a6.692 6.692 0 0 0 .958 4.645 7.124 7.124 0 0 0 5.373 3.125l5.964.549a10.529 10.529 0 0 0 .222 1.315 10.252 10.252 0 0 0 5.758 6.9l10.986 5.008a14.08 14.08 0 0 0 4.342 6.9l13.526 11.714a14.065 14.065 0 0 0 7.453 3.309l6.531 10.152a10.257 10.257 0 0 0 7.672 4.71q.478.043.947.043c.126 0 .247-.015.371-.019l1.4 5.835a7.122 7.122 0 0 0 3.88 4.87 6.528 6.528 0 0 0 2.692.579 7.065 7.065 0 0 0 2.035-.306l7.212-2.188a7.916 7.916 0 0 0 3.712-2.481 9.065 9.065 0 0 0 1.979-7.975zm-89.111-53.929a3.182 3.182 0 0 1 -.441-2.238l1.127-7.45a4.46 4.46 0 0 1 1.108-2.265 5.607 5.607 0 0 1 4.639-1.9l8.839.82a11.891 11.891 0 0 0 -.863 1.557l-5.09 11.376a11.028 11.028 0 0 0 -.722 2.177l-5.845-.539a3.59 3.59 0 0 1 -2.752-1.538zm12.016 6.059a6.5 6.5 0 0 1 -.165-2.014 7.319 7.319 0 0 1 .663-2.712l5.094-11.384a8.305 8.305 0 0 1 2.17-2.9 8.011 8.011 0 0 1 .873-.673 8.554 8.554 0 0 1 8.306-.873l11.512 5.258a13.575 13.575 0 0 0 -3.955 3.665l-9.1 12.716a13.761 13.761 0 0 0 -2.534 7.591l-9.054-4.128a6.767 6.767 0 0 1 -3.81-4.546zm48.139 42.909-5.378-8.359a13.684 13.684 0 0 0 7.144-3.608l11.265-10.83a13.372 13.372 0 0 0 3.078-4.436l6.851 10.631a8.562 8.562 0 0 1 .323 8.362 7.9 7.9 0 0 1 -.55.972 8.253 8.253 0 0 1 -2.547 2.54l-10.544 6.68a7.338 7.338 0 0 1 -2.632 1.05 6.459 6.459 0 0 1 -1.956.119 6.774 6.774 0 0 1 -5.054-3.121zm24.322 10.658a4.446 4.446 0 0 1 -2.071 1.41l-7.207 2.186a3.177 3.177 0 0 1 -2.266-.107 3.6 3.6 0 0 1 -1.929-2.508l-1.373-5.718a10.9 10.9 0 0 0 2.044-1.021l10.536-6.675a11.824 11.824 0 0 0 1.418-1.076l2.082 8.64a5.6 5.6 0 0 1 -1.234 4.869z"/></g></g></svg>