<svg id="Layer_1" enable-background="new 0 0 511.993 511.993" viewBox="0 0 511.993 511.993" xmlns="http://www.w3.org/2000/svg"><g><g><path d="m156.32 380.103c-.682 18.513 2.196 37.011 8.527 54.557 6.022 16.689.536 35.344-13.454 46.255-18.596 14.503-43.258 10.857-56.966-5.266-29.002-34.113-47.25-73.85-53.884-116.171l53.802-67.545z" fill="#fdc072"/><path d="m205.244 311.531c-2.999 7.099-5.568 14.216-7.747 21.325-11.616 37.902-50.257 60.914-89.032 52.672-20.456-4.348-40.438-11.352-59.444-21.019-28.133-14.309-44.579-44.763-41.046-76.127 3.612-32.061 14.022-62.162 30.318-89.629l128.974-41.211z" fill="#ffa93f"/><path d="m489.344 193.802c7.375 42.198 2.924 85.697-13.521 127.343-7.773 19.684-29.94 31.091-52.22 23.364-16.762-5.814-27.974-21.701-27.659-39.441.332-18.65-2.913-37.087-9.531-54.39l24.935-74.998z" fill="#fdc072"/><path d="m230.437 298.517c-206.12-83.97-31.84-276.53-31.84-276.53 17.2.1 34.23 7.25 46.41 21.01 110.086 124.413 112.713 148.765-14.57 255.52z" fill="#ffd9a0"/><path d="m230.437 298.517c-.16.14-.31.27-.47.4-20.45 17.12-49.63 19.28-72.42 5.43-35.294-21.415-68.818-46.103-99.88-73.58-24.58-21.73-28.28-58.74-8.46-84.88 31.2-41.16 68.43-78.78 111.2-111.19 11.38-8.62 24.84-12.79 38.19-12.71-24.27 65.58-55.8 194.98 31.84 276.53z" fill="#fdc072"/><path d="m207.907 159.922c-10.26-10.324-18.704-3.862-27.93 5.307s-15.742 17.572-5.482 27.896 26.057 11.261 35.283 2.092c9.227-9.169 8.389-24.971-1.871-35.295z" fill="#485c70"/><path d="m331.714 218.582c.161.221.322.443.482.664 23.123 31.989 66.859 41.553 100.8 21.404 18.136-10.766 34.949-23.936 49.947-39.35 22.149-22.762 27.81-56.66 14.251-85.38-9.538-20.202-21.857-38.462-36.599-54.667-11.146-12.252-29.567-14.531-43.314-5.29l-25.231 16.963c-9.915 6.666-18.812 16.062-20.293 27.917l-38.38 83.213c-8.543 9.711-9.278 24.072-1.663 34.526z" fill="#ffd9a0"/><g fill="#e7896e"><circle cx="188.207" cy="75.889" r="15.059"/><circle cx="419.07" cy="188.61" r="15.059"/><circle cx="195.736" cy="256.595" r="15.059"/><circle cx="75.266" cy="316.831" r="15.059"/><path d="m345.252 47.567c-23.23-15.49-52.04-20.16-78.99-12.82l-23.07 6.3c16.04 16.296 27.839 42.47 27.839 70.754v122.709c0 11.341 8.69 22.086 23.09 22.086 4.613.365 7.028 3.664 7.028 6.942 0 14.421 10.671 23.175 22.086 23.175h1.004c12.198 0 22.086-9.887 22.086-22.085 0-19.421 0-47.743 0-68.463 0-16.446 7.588-33.072 15.878-47.275 16.778-28.747 4.328-50.49 22.919-70.103-10.921-13.001-20.304-18.176-39.87-31.22z"/></g></g><g><path d="m503.968 112.642c-9.724-20.589-22.453-39.6-37.831-56.5-13.549-14.912-36.352-17.695-53.045-6.471-27.306 18.355-25.691 17.234-27.296 18.432-51.695-56.754-105.838-44.823-140.342-35.516-24.013-22.283-62.407-24.529-89.578-3.939-22.031 16.696-43.063 35.134-62.511 54.803-4.669 4.723-1.295 12.773 5.333 12.773 1.934 0 3.866-.743 5.333-2.227 18.948-19.164 39.439-37.128 60.904-53.395 42.915-32.517 98.59 9.757 98.59 71.126v61.747c0 4.142 3.357 7.5 7.5 7.5s7.5-3.358 7.5-7.5v-61.747c0-24.126-8.024-48.179-21.868-66.568 32.31-8.105 76.011-13.54 118.628 33.682-8.863 12.345-9.075 25.583-10.921 40.489-.947 6.571-4.587 13.068-8.794 20.564-19.97 35.574-16.75 39.812-16.751 124.661 0 18.81-30.176 20.432-30.176-1.091 0-8.45-7.097-14.442-14.527-14.442-10.235 0-15.59-7.338-15.59-14.586v-30.836c0-4.142-3.357-7.5-7.5-7.5s-7.5 3.358-7.5 7.5v30.836c0 6.25 2.037 12.67 5.978 17.927-14.121 14.2-29.013 27.88-44.361 40.729-18.292 15.306-44.016 16.731-63.714 4.771-34.886-21.179-68.128-45.669-98.805-72.788-21.521-19.024-24.79-51.849-7.441-74.729 8.182-10.791 16.861-21.425 25.798-31.607 2.732-3.113 2.424-7.852-.689-10.584-3.113-2.733-7.853-2.424-10.584.689-9.172 10.45-18.08 21.364-26.478 32.439-12.16 16.037-16.834 36.353-12.89 56.172-16.214 28.107-26.257 58.37-29.823 90.016-3.337 29.621 9.694 58.689 33.125 76.193 7.261 42.569 26.256 82.884 55.065 116.771 34.622 40.721 101.495 2.344 83.189-48.392-5.517-15.288-8.254-31.194-8.17-47.342 19.96-10.676 34.453-28.567 40.936-49.718 1.79-5.84 3.86-11.64 6.142-17.306 8.719-2.723 16.94-7.201 23.967-13.081 16.173-13.54 31.845-27.984 46.674-42.98 3.565 1.476 7.635 2.35 12.202 2.406.267 17.211 12.895 30.121 29.582 30.121 17.153 0 30.59-12.995 30.59-29.584v-16.456c8.509 4.682 17.687 7.802 27.087 9.336 5.284 15.252 7.822 31.183 7.534 47.427-.373 20.996 12.768 39.747 32.699 46.66 24.889 8.633 52.049-3.371 61.654-27.695 16.33-41.354 21.305-85.623 14.454-128.243 16.263-23.528 19.914-54.999 6.721-82.947zm-403.833 358.077c-24.196-28.461-41.021-61.717-49.179-96.969 19.378 9.279 51.568 20.876 73.338 20.874 8.314 0 16.574-1.249 24.523-3.697.568 15.747 3.571 31.244 8.971 46.206 12.554 34.8-33.499 61.995-57.653 33.586zm90.185-140.132c-10.476 34.189-45.324 54.967-80.302 47.534-20.016-4.254-39.396-11.107-57.603-20.368-25.3-12.868-40.166-40.438-36.993-68.603 2.85-25.3 10.139-49.67 21.681-72.656 3.918 7.418 9.161 14.142 15.585 19.821 31.344 27.708 65.31 52.73 100.955 74.372 11.773 7.147 25.734 10.756 39.958 10.044-1.164 3.266-2.269 6.554-3.281 9.856zm278.522-12.267c-6.708 16.985-25.101 25.166-42.788 19.033-13.785-4.781-22.874-17.729-22.616-32.221.282-15.901-1.875-31.535-6.415-46.62 13.792-.406 27.517-4.199 39.79-11.485 17.171-10.185 33.053-22.406 47.292-36.359 3.652 35.999-1.542 72.906-15.263 107.652zm8.719-122.324c-14.374 14.776-30.658 27.604-48.403 38.13-23.213 13.782-53.062 12.404-75.338-3.764v-34.268c0-38.074 22.573-51.793 25.498-75.365 2.312-18.438 1.412-24.725 11.617-37.288 3.116-3.15 2.856-2.721 30.528-21.322 10.558-7.1 24.992-5.335 33.577 4.114 14.379 15.803 26.278 33.573 35.365 52.813 12.129 25.701 6.97 56.622-12.844 76.95z"/><path d="m169.169 198.341c21.167 21.298 56.017 8.482 54.465-20.806-.451-8.51-4.149-16.668-10.412-22.971-16.508-16.613-31.945-1.276-38.537 5.274-6.591 6.55-22.026 21.888-5.516 38.503zm16.09-27.864c6.218-6.179 9.636-8.396 12.186-8.396 3.172 0 10.721 7.008 11.211 16.248.81 15.32-17.258 21.101-28.846 9.439-4.117-4.144-5.478-6.433 5.449-17.291z"/><path d="m141.868 193.576c-5.691 0-11.047 2.208-15.085 6.222-12.551 12.471-3.911 32.483 5.225 32.483 6.626 0 10.02-8.057 5.319-12.787-1.205-1.213-1.866-2.824-1.861-4.534.019-5.657 6.914-8.555 10.947-4.494 2.92 2.938 7.669 2.953 10.606.033 2.938-2.919 2.953-7.668.034-10.606-4.03-4.056-9.398-6.299-15.116-6.317-.023 0-.045 0-.069 0z"/><path d="m234.573 122.854c2.92 2.939 7.669 2.954 10.606.034 10.034-9.969-15.058-25.784-30.235-10.702-12.522 12.442-4.006 32.483 5.225 32.483 6.626 0 10.02-8.057 5.319-12.787-1.205-1.213-1.866-2.824-1.861-4.534.019-5.654 6.913-8.553 10.946-4.494z"/><path d="m188.201 53.259c-12.438 0-22.559 10.12-22.559 22.559s10.12 22.559 22.559 22.559 22.56-10.12 22.56-22.559-10.12-22.559-22.56-22.559zm0 30.118c-4.168 0-7.559-3.391-7.559-7.559s3.391-7.559 7.559-7.559 7.56 3.391 7.56 7.559-3.392 7.559-7.56 7.559z"/><path d="m411.786 167.186c-11.773 4.013-18.087 16.856-14.074 28.631 3.194 9.371 11.98 15.282 21.371 15.282 2.408 0 4.856-.389 7.26-1.208 11.771-4.013 18.087-16.856 14.074-28.63s-16.856-18.086-28.631-14.075zm9.717 28.507c-3.949 1.345-8.249-.771-9.594-4.715-1.344-3.945.771-8.25 4.717-9.594.805-.275 1.625-.405 2.433-.405 3.146 0 6.091 1.981 7.161 5.12 1.344 3.946-.772 8.25-4.717 9.594z"/><path d="m195.731 233.965c-12.438 0-22.559 10.12-22.559 22.559s10.12 22.559 22.559 22.559 22.56-10.12 22.56-22.559-10.121-22.559-22.56-22.559zm0 30.118c-4.168 0-7.559-3.391-7.559-7.559s3.391-7.559 7.559-7.559 7.56 3.391 7.56 7.559-3.392 7.559-7.56 7.559z"/><path d="m75.261 294.201c-12.439 0-22.56 10.12-22.56 22.559s10.12 22.559 22.56 22.559c12.438 0 22.559-10.12 22.559-22.559s-10.121-22.559-22.559-22.559zm0 30.117c-4.168 0-7.56-3.391-7.56-7.559s3.392-7.559 7.56-7.559 7.559 3.391 7.559 7.559-3.391 7.559-7.559 7.559z"/><path d="m456.825 128.4h-.01c-4.142 0-7.495 3.358-7.495 7.5s3.363 7.5 7.505 7.5c4.143 0 7.5-3.358 7.5-7.5s-3.357-7.5-7.5-7.5z"/><path d="m158.074 113.465c0-4.118-3.329-7.5-7.51-7.5-4.142 0-7.495 3.358-7.495 7.5s3.363 7.5 7.505 7.5c4.143 0 7.5-3.358 7.5-7.5z"/><path d="m105.398 422.201h-.01c-4.142 0-7.495 3.358-7.495 7.5s3.363 7.5 7.505 7.5c4.143 0 7.5-3.358 7.5-7.5s-3.358-7.5-7.5-7.5z"/><path d="m436.411 278.545h-.01c-4.142 0-7.495 3.358-7.495 7.5s3.363 7.5 7.505 7.5c4.143 0 7.5-3.358 7.5-7.5s-3.357-7.5-7.5-7.5z"/></g></g><g/><g/><g/><g/><g/><g/><g/><g/><g/><g/><g/><g/><g/><g/><g/></svg>