<svg height="512" viewBox="0 0 128 128" width="512" xmlns="http://www.w3.org/2000/svg"><g><g fill="#fdca74"><path d="m121.625 89.952a60.022 60.022 0 0 0 -12.318-27.432l-.028.031a5.683 5.683 0 0 1 -1.185 2.112l-14.572 16.237a5.691 5.691 0 0 1 -1.422 1.137l-.008.01a88.418 88.418 0 0 0 23.919 12.765 4.3 4.3 0 0 0 5.614-4.86z"/><path d="m34.477 80.9-14.571-16.237a5.683 5.683 0 0 1 -1.185-2.112l-.028-.031a60.022 60.022 0 0 0 -12.318 27.432 4.3 4.3 0 0 0 5.609 4.86 88.407 88.407 0 0 0 23.916-12.765l-.008-.01a5.714 5.714 0 0 1 -1.415-1.137z"/><path d="m77.727 75.181 12.846-25.861a7.162 7.162 0 0 0 -2.3-9.048 41.646 41.646 0 0 0 -24.273-7.323 41.646 41.646 0 0 0 -24.268 7.323 7.162 7.162 0 0 0 -2.3 9.048l12.841 25.861a7.155 7.155 0 0 0 6.407 3.971h14.64a7.156 7.156 0 0 0 6.407-3.971z"/></g><path d="m91.3 45.574a53 53 0 0 1 16.646 11.28 5.719 5.719 0 0 1 .15 7.809l-14.574 16.237a5.722 5.722 0 0 1 -6.983 1.211l-9.884-5.351h-25.31l-9.884 5.351a5.723 5.723 0 0 1 -6.984-1.211l-14.571-16.237a5.719 5.719 0 0 1 .15-7.809 52.986 52.986 0 0 1 16.644-11.28z" fill="#e6a537"/><path d="m77.727 75.181 12.846-25.861a7.162 7.162 0 0 0 -2.3-9.048 41.646 41.646 0 0 0 -24.273-7.323 41.646 41.646 0 0 0 -24.268 7.323 7.162 7.162 0 0 0 -2.3 9.048l12.841 25.861a7.155 7.155 0 0 0 6.407 3.971h14.64a7.156 7.156 0 0 0 6.407-3.971z" fill="#fdca74"/><g><path d="m50 48.273a2.35 2.35 0 1 0 -2.35-2.35 2.35 2.35 0 0 0 2.35 2.35z"/><path d="m66.354 50.273a2.349 2.349 0 1 0 -2.349 2.349 2.35 2.35 0 0 0 2.349-2.349z"/><path d="m53.931 59.111a2.349 2.349 0 1 0 2.349-2.349 2.349 2.349 0 0 0 -2.349 2.349z"/><path d="m73.591 59.111a2.349 2.349 0 1 0 -2.349 2.349 2.349 2.349 0 0 0 2.349-2.349z"/><path d="m33.555 57.111a2.349 2.349 0 1 0 2.345 2.349 2.349 2.349 0 0 0 -2.345-2.349z"/><path d="m94.445 58.821a2.35 2.35 0 1 0 2.349 2.35 2.349 2.349 0 0 0 -2.349-2.35z"/><path d="m81.283 47.213a2.35 2.35 0 1 0 -2.35 2.35 2.35 2.35 0 0 0 2.35-2.35z"/><path d="m49.553 37.04a1.733 1.733 0 0 0 .568-.1 40.327 40.327 0 0 1 4.059-1.159 1.75 1.75 0 0 0 -.784-3.411 43.809 43.809 0 0 0 -4.412 1.26 1.75 1.75 0 0 0 .569 3.406z"/><path d="m123.349 89.65a62.43 62.43 0 0 0 -12.147-27.6 7.48 7.48 0 0 0 -2-6.42 54.438 54.438 0 0 0 -16.3-11.25 8.9 8.9 0 0 0 -3.625-5.544 43.341 43.341 0 0 0 -25.277-7.636h-.638a1.75 1.75 0 0 0 .021 3.5h.02.6a39.861 39.861 0 0 1 23.26 7 5.389 5.389 0 0 1 1.746 6.838l-12.85 25.862a5.438 5.438 0 0 1 -.822 1.211c-.014.015-.026.031-.039.046a5.368 5.368 0 0 1 -3.978 1.743h-14.64a5.369 5.369 0 0 1 -3.98-1.742l-.037-.044a5.448 5.448 0 0 1 -.823-1.212l-12.846-25.861a5.388 5.388 0 0 1 1.746-6.841c.491-.347 1.024-.7 1.6-1.06a1.75 1.75 0 1 0 -1.856-2.968c-.629.394-1.214.785-1.756 1.166a8.9 8.9 0 0 0 -3.628 5.548 54.446 54.446 0 0 0 -16.3 11.248 7.483 7.483 0 0 0 -2 6.421 62.43 62.43 0 0 0 -12.149 27.595 6.057 6.057 0 0 0 2.049 5.707 5.953 5.953 0 0 0 3.88 1.444 6.1 6.1 0 0 0 1.978-.333 90.086 90.086 0 0 0 23.542-12.401 7.382 7.382 0 0 0 6.19-.417l8.763-4.744a8.857 8.857 0 0 0 5.627 1.994h14.64a8.857 8.857 0 0 0 5.623-1.995l8.763 4.744a7.379 7.379 0 0 0 6.194.415 92.589 92.589 0 0 0 8.752 5.674 1.75 1.75 0 0 0 1.733-3.041c-2.553-1.453-5.046-3.051-7.447-4.754l14.462-16.111c.052-.058.1-.12.146-.179a60.362 60.362 0 0 1 10.359 24.6 2.59 2.59 0 0 1 -.869 2.442 2.459 2.459 0 0 1 -2.448.463c-2.011-.692-4.064-1.5-6.1-2.388a1.75 1.75 0 0 0 -1.406 3.206c2.124.931 4.266 1.769 6.368 2.492a6.1 6.1 0 0 0 1.978.333 5.953 5.953 0 0 0 3.88-1.444 6.057 6.057 0 0 0 2.041-5.707zm-111.933 3.507a2.455 2.455 0 0 1 -2.448-.457 2.588 2.588 0 0 1 -.868-2.447 60.567 60.567 0 0 1 10.362-24.6c.049.058.092.119.142.176l14.462 16.12a86.275 86.275 0 0 1 -21.65 11.208zm29.212-12.585a3.961 3.961 0 0 1 -4.848-.841l-14.571-16.237a3.986 3.986 0 0 1 .1-5.422 50.272 50.272 0 0 1 13.869-9.849 9.036 9.036 0 0 0 .678 1.875l12.85 25.861c.032.064.074.119.107.182zm66.163-17.078-14.571 16.237a3.961 3.961 0 0 1 -4.848.841l-8.185-4.431c.033-.063.075-.118.107-.182l12.847-25.859a8.975 8.975 0 0 0 .677-1.875 50.234 50.234 0 0 1 13.869 9.85 3.983 3.983 0 0 1 .104 5.419z"/></g></g></svg>