<svg id="Cruise" enable-background="new 0 0 64 64" viewBox="0 0 64 64" xmlns="http://www.w3.org/2000/svg"><g><g><path d="m22.17682 7.00061h-2.97331c-.753 0-1.36343.61043-1.36343 1.36343v9.5473h5.70017v-9.5473c0-.753-.61043-1.36343-1.36343-1.36343z" fill="#ea5385"/><path d="m23.54026 18.80024h-5.70017c-.49092 0-.8889-.39798-.8889-.8889v-9.54729c0-1.24193 1.0104-2.25232 2.25232-2.25232h2.97332c1.24192 0 2.25232 1.0104 2.25232 2.25232v9.54729c.00001.49091-.39798.8889-.88889.8889zm-4.81128-1.7778h3.92238v-8.65839c0-.26165-.21288-.47453-.47453-.47453h-2.97332c-.26165 0-.47453.21288-.47453.47453z" fill="#101016"/></g><g><path d="m34.00063 7.00061h-2.97331c-.753 0-1.36343.61043-1.36343 1.36343v9.5473h5.70016v-9.5473c0-.753-.61043-1.36343-1.36342-1.36343z" fill="#ea5385"/><path d="m35.36405 18.80024h-5.70018c-.49091 0-.8889-.39798-.8889-.8889v-9.54729c0-1.24193 1.0104-2.25232 2.25232-2.25232h2.97332c1.24195 0 2.2523 1.0104 2.2523 2.25232v9.54729c.00001.49091-.39794.8889-.88886.8889zm-4.81128-1.7778h3.92241v-8.65839c0-.26165-.21291-.47453-.47456-.47453h-2.97332c-.26165 0-.47453.21288-.47453.47453z" fill="#101016"/></g><g><path d="m38.5862 13.46986h-23.2268c-1.46584 0-2.65413 1.1883-2.65413 2.65413v8.48565h31.95283l-3.59156-9.4303c-.392-1.02927-1.37894-1.70948-2.48034-1.70948z" fill="#dedeea"/><path d="m22.17299 24.60856h-9.47559v-8.47993c0-1.47559 1.19108-2.66667 2.66667-2.66667h7.66222c-1.40441 4.03549-1.51107 7.78669-.8533 11.1466z" opacity=".1"/><path d="m44.65811 25.49854h-31.95284c-.49091 0-.8889-.39798-.8889-.8889v-8.48567c0-1.95362 1.58939-3.54302 3.54302-3.54302h23.22679c1.46058 0 2.79119.91706 3.31105 2.28198l3.59157 9.43034c.10403.27318.06712.58009-.09879.8208-.16591.24073-.43955.38447-.7319.38447zm-31.06394-1.77779h29.77423l-3.13255-8.22505c-.25898-.68005-.92196-1.13694-1.64967-1.13694h-23.22678c-.97335 0-1.76523.79187-1.76523 1.76523z" fill="#101016"/></g><g><path d="m19.43692 20.0003h-1.87654c-.51498 0-.93246-.41748-.93246-.93246v-1.87654c0-.51498.41748-.93246.93246-.93246h1.87654c.51498 0 .93246.41748.93246.93246v1.87654c0 .51498-.41747.93246-.93246.93246z" fill="#79b6ef"/><path d="m19.43692 20.88918h-1.87653c-1.00429 0-1.82135-.81706-1.82135-1.82136v-1.87652c0-1.00429.81706-1.82136 1.82135-1.82136h1.87653c1.00429 0 1.82136.81706 1.82136 1.82136v1.87653c-.00001 1.00429-.81707 1.82135-1.82136 1.82135zm-1.87653-3.74145c-.02402 0-.04356.01955-.04356.04356v1.87653c0 .02402.01955.04356.04356.04356h1.87653c.02402 0 .04356-.01955.04356-.04356v-1.87652c0-.02402-.01955-.04356-.04356-.04356h-1.87653z" fill="#101016"/></g><g><path d="m27.54034 20.0003h-1.87654c-.51498 0-.93246-.41748-.93246-.93246v-1.87654c0-.51498.41748-.93246.93246-.93246h1.87654c.51498 0 .93246.41748.93246.93246v1.87654c0 .51498-.41748.93246-.93246.93246z" fill="#79b6ef"/><path d="m27.54033 20.88918h-1.87653c-1.00429 0-1.82136-.81706-1.82136-1.82136v-1.87652c0-1.00429.81706-1.82136 1.82136-1.82136h1.87653c1.00429 0 1.82136.81706 1.82136 1.82136v1.87653c0 1.00429-.81707 1.82135-1.82136 1.82135zm-1.87653-3.74145c-.02402 0-.04356.01955-.04356.04356v1.87653c0 .02402.01954.04356.04356.04356h1.87653c.02402 0 .04356-.01955.04356-.04356v-1.87652c0-.02402-.01955-.04356-.04356-.04356h-1.87653z" fill="#101016"/></g><g><path d="m35.64376 20.0003h-1.87654c-.51498 0-.93246-.41748-.93246-.93246v-1.87654c0-.51498.41748-.93246.93246-.93246h1.87654c.51498 0 .93246.41748.93246.93246v1.87654c0 .51498-.41748.93246-.93246.93246z" fill="#79b6ef"/><path d="m35.64375 20.88918h-1.87653c-1.00429 0-1.82138-.81706-1.82138-1.82136v-1.87652c0-1.00429.81709-1.82136 1.82138-1.82136h1.87653c1.00429 0 1.82135.81706 1.82135 1.82136v1.87653c0 1.00429-.81706 1.82135-1.82135 1.82135zm-1.87653-3.74145c-.02404 0-.04362.01955-.04362.04356v1.87653c0 .02402.01957.04356.04362.04356h1.87653c.02404 0 .04362-.01955.04362-.04356v-1.87652c0-.02402-.01957-.04356-.04362-.04356h-1.87653z" fill="#101016"/></g><g><path d="m45.65278 22.78928h-33.24541c-1.46584 0-2.65413 1.1883-2.65413 2.65413v8.48565h41.97144l-3.59156-9.4303c-.39201-1.02926-1.37895-1.70948-2.48034-1.70948z" fill="#f0f0fc"/><path d="m26.43959 33.92411h-16.69325v-8.47993c0-1.45779 1.19108-2.64887 2.66667-2.64887h9.47548c.48003 4.44444 2.32888 8.2488 4.5511 11.1288z" opacity=".1"/><path d="m51.72469 34.8179h-41.97145c-.49091 0-.8889-.39796-.8889-.88887v-8.48561c0-1.95365 1.58939-3.54305 3.54302-3.54305h33.24539c1.46058 0 2.79119.91709 3.31105 2.28204l3.59157 9.43023c.10403.27321.06712.58011-.09879.82083-.1659.24071-.43955.38443-.73189.38443zm-41.08255-1.77774h39.79283l-3.13255-8.22502c-.25898-.68005-.92197-1.13697-1.64967-1.13697h-33.24538c-.97335 0-1.76523.7919-1.76523 1.76525z" fill="#101016"/></g><g><path d="m17.64261 29.31972h-1.87654c-.51498 0-.93246-.41748-.93246-.93246v-1.87654c0-.51498.41748-.93246.93246-.93246h1.87654c.51498 0 .93246.41748.93246.93246v1.87654c0 .51498-.41748.93246-.93246.93246z" fill="#8ec8ee"/><path d="m17.64261 30.20863h-1.87653c-1.00429 0-1.82136-.81706-1.82136-1.82136v-1.87656c0-1.00429.81706-1.82136 1.82136-1.82136h1.87653c1.00429 0 1.82136.81706 1.82136 1.82136v1.87656c-.00001 1.00429-.81707 1.82136-1.82136 1.82136zm-1.87654-3.74148c-.02402 0-.04356.01954-.04356.04356v1.87656c0 .02402.01955.04356.04356.04356h1.87653c.02402 0 .04356-.01955.04356-.04356v-1.87656c0-.02402-.01955-.04356-.04356-.04356z" fill="#101016"/></g><g><path d="m25.74603 29.31972h-1.87654c-.51499 0-.93246-.41748-.93246-.93246v-1.87654c0-.51498.41748-.93246.93246-.93246h1.87654c.51498 0 .93246.41748.93246.93246v1.87654c0 .51498-.41748.93246-.93246.93246z" fill="#8ec8ee"/><path d="m25.74602 30.20863h-1.87653c-1.00429 0-1.82136-.81706-1.82136-1.82136v-1.87656c0-1.00429.81706-1.82136 1.82136-1.82136h1.87653c1.00429 0 1.82136.81706 1.82136 1.82136v1.87656c0 1.00429-.81707 1.82136-1.82136 1.82136zm-1.87653-3.74148c-.02402 0-.04356.01954-.04356.04356v1.87656c0 .02402.01955.04356.04356.04356h1.87653c.02402 0 .04356-.01955.04356-.04356v-1.87656c0-.02402-.01955-.04356-.04356-.04356z" fill="#101016"/></g><g><path d="m33.84945 29.31972h-1.87655c-.51498 0-.93246-.41748-.93246-.93246v-1.87654c0-.51498.41748-.93246.93246-.93246h1.87655c.51498 0 .93246.41748.93246.93246v1.87654c0 .51498-.41748.93246-.93246.93246z" fill="#8ec8ee"/><path d="m33.84943 30.20863h-1.87653c-1.00429 0-1.82136-.81706-1.82136-1.82136v-1.87656c0-1.00429.81706-1.82136 1.82136-1.82136h1.87653c1.00429 0 1.82136.81706 1.82136 1.82136v1.87656c0 1.00429-.81706 1.82136-1.82136 1.82136zm-1.87653-3.74148c-.02402 0-.04356.01954-.04356.04356v1.87656c0 .02402.01954.04356.04356.04356h1.87653c.02404 0 .04362-.01955.04362-.04356v-1.87656c0-.02402-.01957-.04356-.04362-.04356z" fill="#101016"/></g><g><path d="m41.95286 29.31972h-1.87654c-.51498 0-.93246-.41748-.93246-.93246v-1.87654c0-.51498.41748-.93246.93246-.93246h1.87654c.51498 0 .93246.41748.93246.93246v1.87654c0 .51498-.41747.93246-.93246.93246z" fill="#8ec8ee"/><path d="m41.95285 30.20863h-1.87653c-1.00429 0-1.82135-.81706-1.82135-1.82136v-1.87656c0-1.00429.81706-1.82136 1.82135-1.82136h1.87653c1.00429 0 1.82135.81706 1.82135 1.82136v1.87656c0 1.00429-.81706 1.82136-1.82135 1.82136zm-1.87653-3.74148c-.02404 0-.04362.01954-.04362.04356v1.87656c0 .02402.01957.04356.04362.04356h1.87653c.02404 0 .04362-.01955.04362-.04356v-1.87656c0-.02402-.01957-.04356-.04362-.04356z" fill="#101016"/></g><g><path d="m46.73973 52.88016h-37.66544l-3.98184-17.01314c-.44945-1.92038 1.008-3.75832 2.98027-3.75832h48.54677c1.9091 0 3.03202 2.14471 1.94441 3.71371z" fill="#3b3b44"/><path d="m58.56406 35.82634-1.1377 1.65332h-51.96453l-.37326-1.61773c-.44444-1.92003 1.01335-3.75109 2.98665-3.75109h48.55112c1.90224 0 3.02225 2.15105 1.93772 3.7155z" fill="#ea5385"/><path d="m24.53747 52.87528h-15.4667l-3.9822-17.01335c-.44444-1.92003 1.01335-3.75109 2.98665-3.75109h7.92882c-.37326 1.90224-.53331 4.19553-.15994 6.75554 1.06663 7.1467 5.77778 11.76889 8.69337 14.0089z" opacity=".1"/><g fill="#101016"><path d="m46.73975 53.76903h-37.66547c-.41289 0-.7714-.28428-.86551-.68632l-3.98183-17.01315c-.27643-1.18111-.0027-2.40365.75101-3.35413s1.88171-1.49562 3.09477-1.49562h48.54677c1.21502 0 2.31985.66868 2.88344 1.74505s.48367 2.36538-.20849 3.36395l-11.82415 17.05775c-.16607.23957-.43906.38247-.73054.38247zm-36.96058-1.77774h36.49519l11.55901-16.67528c.31884-.46.35423-1.03068.0946-1.5265-.25958-.49588-.74875-.79193-1.30847-.79193h-48.54678c-.66707 0-1.28734.29976-1.70179.82246-.41447.52265-.56498 1.1949-.41298 1.84442z"/><path d="m57.42636 38.36853h-51.96453c-.41393 0-.77306-.28569-.86613-.68905l-.37326-1.61771c-.27299-1.1792.00234-2.39929.75554-3.34671.75431-.9489 1.88324-1.49311 3.09725-1.49311h48.55114c1.20984 0 2.31118.66816 2.87433 1.74374.56446 1.07811.4859 2.36745-.20489 3.3653l-1.13716 1.65256c-.16586.24104-.43973.38498-.73229.38498zm-51.25738-1.77774h50.79002l.87278-1.26834c.0006-.00087.0012-.00169.00174-.00251.31857-.45956.35303-1.03139.09214-1.52966-.25914-.49501-.74488-.79057-1.29931-.79057h-48.55112c-.66887 0-1.29053.29949-1.70563.82164-.41393.52068-.5652 1.19141-.41502 1.84011z"/></g></g><g><path d="m63.11113 47.65422v10.23405h-62.22224v-10.23405c3.89153 0 3.89153 2.08327 7.76877 2.08327 3.89162 0 3.89162-2.08327 7.78315-2.08327 3.89162 0 3.89162 2.08327 7.76886 2.08327 3.89153 0 3.89153-2.08327 7.78315-2.08327s3.89162 2.08327 7.76877 2.08327c3.89162 0 3.89162-2.08327 7.78324-2.08327 3.89153 0 3.89153 2.08327 7.78315 2.08327s3.89162-2.08327 7.78315-2.08327z" fill="#79b6ef"/><path d="m55.32798 50.62634c-2.16877 0-3.30691-.60928-4.31109-1.14681-.93865-.50247-1.74923-.93641-3.47206-.93641-1.72284 0-2.53347.43394-3.47211.93641-1.00418.53753-2.14233 1.14681-4.3111 1.14681-2.1601 0-3.29502-.60868-4.29637-1.14567-.938-.50307-1.74808-.93756-3.47241-.93756-1.72289 0-2.53352.43394-3.47211.93641-1.00418.53759-2.14235 1.14681-4.31104 1.14681-2.16013 0-3.29511-.60868-4.29646-1.14567-.93799-.50307-1.74811-.93756-3.47241-.93756-1.72281 0-2.53341.43394-3.472.93641-1.00418.53753-2.14238 1.14681-4.31115 1.14681-2.16015 0-3.29511-.60868-4.29646-1.14572-.93799-.50302-1.74808-.9375-3.4723-.9375-.49093.00001-.88891-.39794-.88891-.88885 0-.49092.39798-.88887.8889-.88887 2.17087 0 3.30866.61021 4.31254 1.14856.9351.50154 1.74271.93467 3.45622.93467 1.72289 0 2.53349-.43394 3.47214-.93641 1.00416-.53753 2.14233-1.14681 4.31101-1.14681 2.17092 0 3.30877.61021 4.31265 1.14861.9351.50149 1.74271.93462 3.45622.93462 1.72278 0 2.53341-.43394 3.472-.93641 1.00418-.53753 2.14238-1.14681 4.31115-1.14681 2.17092 0 3.30874.61021 4.31265 1.14861.9351.50149 1.74268.93462 3.45614.93462 1.72284 0 2.53347-.43394 3.47211-.93641 1.00418-.53753 2.14233-1.14681 4.3111-1.14681 2.16871 0 3.30685.60928 4.31104 1.14681.93865.50247 1.74928.93641 3.47211.93641 1.72284 0 2.53347-.43394 3.47211-.93641 1.00418-.53753 2.14233-1.14681 4.31104-1.14681.49092 0 .88887.39795.88887.88887 0 .49091-.39795.88887-.88887.88887-1.72284 0-2.53341.43394-3.47206.93641-1.00418.5375-2.14232 1.14678-4.31109 1.14678z" fill="#101016"/></g></g></svg>