<svg id="Layer_1" viewBox="0 0 1000 1000" xmlns="http://www.w3.org/2000/svg" data-name="Layer 1"><path d="m806.89 290.7-128.8 53.36-87.01-87.01 53.36-128.8z" fill="#9575cd"/><path d="m819.14 320.26v359.48l-128.81-53.36v-252.76z" fill="#9575cd"/><path d="m806.89 709.3-162.45 162.45-53.36-128.8 87.01-87.01z" fill="#9575cd"/><path d="m408.92 742.95-53.36 128.8-162.45-162.45 128.8-53.36z" fill="#9575cd"/><path d="m614.88 884h-229.76l53.36-128.81h123.04z" fill="#9575cd"/><path d="m309.67 373.62v252.76l-128.81 53.36v-359.48z" fill="#9575cd"/><path d="m408.92 257.05-87.01 87.01-128.8-53.36 162.45-162.45z" fill="#9575cd"/><path d="m614.88 116-53.36 128.81h-123.04l-53.36-128.81z" fill="#9575cd"/><path d="m565.58 276.81h-131.16l-92.75 92.75v260.88l92.75 92.75h131.16l92.75-92.75v-260.88zm-65.58 396.41c-58.86 0-105-76.09-105-173.22s46.11-173.22 105-173.22 105 76.09 105 173.22-46.14 173.22-105 173.22z" fill="#5e35b1"/><path d="m573 500c0 39.28-8.52 76-24 103.29-13.85 24.46-31.24 37.93-49 37.93s-35.14-13.47-49-37.93c-15.46-27.33-24-64-24-103.29s8.52-76 24-103.29c13.85-24.46 31.24-37.93 49-37.93s35.14 13.47 49 37.93c15.45 27.29 24 64.01 24 103.29z" fill="#7e57c2"/><g fill="#fff" opacity=".5"><path d="m796.89 300.7-128.8 53.36-87.01-87.01 53.36-128.8z"/><path d="m809.14 330.26v359.48l-128.81-53.36v-252.76z"/><path d="m796.89 719.3-162.45 162.45-53.36-128.8 87.01-87.01z"/><path d="m398.92 752.95-53.36 128.8-162.45-162.45 128.8-53.36z"/><path d="m604.88 894h-229.76l53.36-128.81h123.04z"/><path d="m299.67 383.62v252.76l-128.81 53.36v-359.48z"/><path d="m398.92 267.05-87.01 87.01-128.8-53.36 162.45-162.45z"/><path d="m604.88 126-53.36 128.81h-123.04l-53.36-128.81z"/><path d="m555.58 286.81h-131.16l-92.75 92.75v260.88l92.75 92.75h131.16l92.75-92.75v-260.88zm-65.58 396.41c-58.86 0-105-76.09-105-173.22s46.11-173.22 105-173.22 105 76.09 105 173.22-46.14 173.22-105 173.22z"/><path d="m563 510c0 39.28-8.52 76-24 103.29-13.85 24.46-31.24 37.93-49 37.93s-35.14-13.47-49-37.93c-15.46-27.33-24-64-24-103.29s8.52-76 24-103.29c13.85-24.46 31.24-37.93 49-37.93s35.14 13.47 49 37.93c15.45 27.29 24 64.01 24 103.29z"/></g><g fill="#413b32"><path d="m851.11 295.41c0-.23 0-.45-.05-.67 0-.4-.09-.8-.17-1.2a3.89 3.89 0 0 0 -.09-.47c0-.2-.08-.39-.13-.59s-.09-.37-.15-.56a.56.56 0 0 0 0-.12c-.08-.28-.17-.56-.27-.83s-.19-.51-.29-.77a15.37 15.37 0 0 0 -.73-1.53c-.1-.19-.21-.38-.32-.56s-.2-.34-.31-.5l-.33-.49c-.22-.32-.46-.64-.71-.94q-.16-.21-.36-.42c-.3-.35-.62-.68-.95-1l-195.74-195.69-.38-.38-.57-.55c-.39-.34-.78-.66-1.2-1s-.85-.6-1.3-.87l-.68-.38-.7-.35c-.23-.12-.47-.22-.71-.32a15.18 15.18 0 0 0 -1.51-.54c-.26-.08-.51-.15-.77-.21a14.85 14.85 0 0 0 -2.26-.39h-.67c-.3 0-.61 0-.91 0h-277.67c-.3 0-.61 0-.91 0h-.67a14.85 14.85 0 0 0 -2.26.39c-.26.06-.51.13-.77.21a15.18 15.18 0 0 0 -1.51.54c-.24.1-.48.2-.71.32l-.7.35-.68.38c-.45.27-.88.56-1.3.87s-.81.63-1.2 1l-.57.55-.38.38-195.73 195.69-.25.25c-.14.14-.29.29-.42.44a4.12 4.12 0 0 0 -.28.31q-.19.21-.36.42a14.49 14.49 0 0 0 -1.35 1.93c-.11.18-.22.37-.32.56a15.37 15.37 0 0 0 -.73 1.53 16.17 16.17 0 0 0 -.93 3.1c-.05.24-.09.48-.12.71s-.05.35-.07.52a1.49 1.49 0 0 0 0 .21c0 .22 0 .44-.05.67s0 .61 0 .91v407.36.91s0 .45.05.67v.15s.05.38.08.58a13.77 13.77 0 0 0 .3 1.53c.06.23.12.47.19.7a7.32 7.32 0 0 0 .25.75c0 .14.09.28.15.41s.1.28.16.42c.16.38.33.76.52 1.13s.34.65.53 1l.09.15c.2.33.41.65.64 1s.41.56.63.83l.17.2c.23.27.47.54.72.79l.16.17 196 195.94.13.14.25.24.57.55.59.5.61.47c.42.31.85.6 1.3.87l.68.38.7.35.18.09.53.23c.21.09.41.17.62.24a15.49 15.49 0 0 0 1.56.48l.55.13.55.11c.28 0 .58.1.87.13h.19.39c.45 0 .89.06 1.34.06h277.67c.45 0 .89 0 1.34-.06h.39.19a8.7 8.7 0 0 0 .87-.13l.55-.11.55-.13a15.49 15.49 0 0 0 1.56-.48c.21-.07.41-.15.62-.24l.53-.23.18-.09.7-.35.68-.38c.45-.27.88-.56 1.3-.87l.61-.47.59-.5.57-.55.25-.24.13-.14 196.02-196.01.16-.17c.25-.25.49-.52.72-.79s.55-.67.8-1 .44-.63.64-1l.09-.15c.19-.31.36-.63.53-1s.36-.75.52-1.13.22-.55.32-.83.13-.38.18-.56.18-.59.25-.89.12-.51.17-.76.09-.46.12-.68.08-.55.1-.82 0-.44.05-.67 0-.61 0-.91v-407.32c.03-.32.02-.61 0-.91zm-218.92 588.59h-264.38l-186.95-187v-394l186.95-187h264.38l186.95 187v394.1z"/><path d="m685.65 351.62-102.13-102.13a16 16 0 0 0 -11.31-4.68h-144.42a16 16 0 0 0 -11.31 4.68l-102.13 102.13a16 16 0 0 0 -4.68 11.31v274.14a16 16 0 0 0 4.68 11.31l102.13 102.13a16 16 0 0 0 11.31 4.68h144.42a16 16 0 0 0 11.31-4.68l102.13-102.13a16 16 0 0 0 4.68-11.31v-274.14a16 16 0 0 0 -4.68-11.31zm-120.07 371.57h-131.16l-92.75-92.75v-260.88l92.75-92.75h131.16l92.75 92.75v260.88z"/><path d="m653.6 106.12-9.16 22.13-53.36 128.8-4.08 9.88a16 16 0 1 1 -29.56-12.25l4.09-9.87 53.35-128.81 9.12-22.12a16 16 0 0 1 14.82-9.88h.91.67a14.85 14.85 0 0 1 2.26.39c.26.06.51.13.77.21a15.18 15.18 0 0 1 1.51.54c.24.1.48.2.71.32l.7.35.68.38c.45.27.88.56 1.3.87s.81.63 1.2 1l.57.55.38.38a16 16 0 0 1 3.12 17.13z"/><path d="m433.91 275.59a16 16 0 0 1 -20.9-8.66l-4.09-9.88-53.36-128.8-9.16-22.13a16 16 0 0 1 3.09-17.05l.38-.38.57-.55c.39-.34.78-.66 1.2-1s.85-.6 1.3-.87l.68-.38.7-.35c.23-.12.47-.22.71-.32a15.18 15.18 0 0 1 1.51-.54c.26-.08.51-.15.77-.21a14.85 14.85 0 0 1 2.26-.39h.67.91a16 16 0 0 1 14.85 9.8l9.12 22.12 53.36 128.81 4.09 9.87a16 16 0 0 1 -8.66 20.91z"/><path d="m340.45 369.05a16 16 0 0 1 -20.91 8.66l-9.87-4.09-128.81-53.36-22.12-9.16a16 16 0 0 1 -9.88-14.78c0-.3 0-.61 0-.91s0-.45.05-.67a1.49 1.49 0 0 1 0-.21c0-.17 0-.34.07-.52s.07-.47.12-.71a16.17 16.17 0 0 1 .93-3.1 15.37 15.37 0 0 1 .73-1.53c.1-.19.21-.38.32-.56a14.49 14.49 0 0 1 1.35-1.93q.17-.21.36-.42a4.12 4.12 0 0 1 .28-.31c.13-.15.28-.3.42-.44l.25-.25a16 16 0 0 1 17.26-3.22l22.13 9.16 128.8 53.36 9.88 4.09a16 16 0 0 1 8.64 20.9z"/><path d="m851.14 296.32a16 16 0 0 1 -9.88 14.78l-22.12 9.16-128.81 53.36-9.87 4.09a16 16 0 1 1 -12.25-29.56l9.88-4.09 128.8-53.36 22.11-9.16a16 16 0 0 1 17.19 3.22c.33.32.65.65.95 1q.2.21.36.42c.25.3.49.62.71.94l.33.49c.11.16.21.33.31.5s.22.37.32.56a15.37 15.37 0 0 1 .73 1.53c.1.26.2.51.29.77s.19.55.27.83a.56.56 0 0 1 0 .12c.06.19.1.37.15.56s.1.39.13.59a3.89 3.89 0 0 1 .09.47c.08.4.13.8.17 1.2 0 .22 0 .44.05.67s.09.59.09.91z"/><path d="m851.14 703.68v.91s0 .45-.05.67-.06.54-.1.82-.07.45-.12.68-.11.51-.17.76-.15.59-.25.89-.12.37-.18.56-.21.55-.32.83-.33.76-.52 1.13-.34.65-.53 1l-.09.15c-.2.33-.41.65-.64 1s-.52.7-.8 1-.47.54-.72.79a16 16 0 0 1 -17.6 3.64l-22.13-9.16-128.8-53.36-9.88-4.09a16 16 0 1 1 12.25-29.56l9.87 4.09 128.81 53.36 22.12 9.16a16 16 0 0 1 9.85 14.73z"/><path d="m331.79 651.85-9.88 4.09-128.8 53.36-22.11 9.16a16 16 0 0 1 -17.6-3.64c-.25-.25-.49-.52-.72-.79l-.17-.2c-.22-.27-.43-.55-.63-.83s-.44-.63-.64-1l-.09-.15c-.19-.31-.36-.63-.53-1s-.36-.75-.52-1.13c-.06-.14-.11-.28-.16-.42s-.1-.27-.15-.41a7.32 7.32 0 0 1 -.25-.75c-.07-.23-.13-.47-.19-.7a13.77 13.77 0 0 1 -.35-1.44c0-.2-.06-.39-.08-.58s0-.1 0-.15c0-.22 0-.44-.05-.67s0-.61 0-.91a16 16 0 0 1 9.88-14.78l22.12-9.16 128.81-53.36 9.87-4.09a16 16 0 1 1 12.25 29.56z"/><path d="m442.57 745.32-4.09 9.87-53.36 128.81-9.12 22.12a16 16 0 0 1 -14.83 9.88c-.45 0-.89 0-1.34-.06h-.39-.19a8.7 8.7 0 0 1 -.87-.13l-.55-.11-.55-.13a15.49 15.49 0 0 1 -1.56-.48c-.21-.07-.41-.15-.62-.24l-.53-.23-.18-.09-.7-.35-.68-.38c-.45-.27-.88-.56-1.3-.87l-.61-.47-.59-.5c-.29-.25-.56-.52-.82-.79l-.13-.14a16 16 0 0 1 -3.09-17l9.16-22.13 53.29-128.9 4.09-9.88a16 16 0 1 1 29.56 12.25z"/><path d="m650.51 910.93-.13.14c-.26.27-.53.54-.82.79l-.59.5-.61.47c-.42.31-.85.6-1.3.87l-.68.38-.7.35-.18.09-.53.23c-.21.09-.41.17-.62.24a15.49 15.49 0 0 1 -1.56.48l-.55.13-.55.11a8.7 8.7 0 0 1 -.87.13h-.19-.39c-.45 0-.89.06-1.34.06a16 16 0 0 1 -14.9-9.78l-9.12-22.12-53.36-128.81-4.09-9.87a16 16 0 1 1 29.57-12.25l4.09 9.88 53.36 128.8 9.16 22.13a16 16 0 0 1 -3.1 17.05z"/><path d="m500 326.78c-58.86 0-105 76.09-105 173.22s46.11 173.22 105 173.22 105-76.09 105-173.22-46.14-173.22-105-173.22zm49 276.51c-13.85 24.46-31.24 37.93-49 37.93s-35.14-13.47-49-37.93c-15.46-27.33-24-64-24-103.29s8.52-76 24-103.29c13.85-24.46 31.24-37.93 49-37.93s35.14 13.47 49 37.93c15.46 27.33 24 64 24 103.29s-8.55 76-24 103.29z"/></g></svg>