<svg height="512" viewBox="0 0 128 128" width="512" xmlns="http://www.w3.org/2000/svg"><g><g><circle cx="64" cy="57.855" fill="#b373f0" r="24.559"/><path d="m89.25 101.463h-50.5l1.342-8.157a4.775 4.775 0 0 1 4.711-4h38.397a4.775 4.775 0 0 1 4.711 4z" fill="#09627d"/><path d="m47.833 82.414h32.333v6.893h-32.333z" fill="#07485e"/><path d="m60.1 34.053a15.766 15.766 0 0 1 -6.415-6.415 2.124 2.124 0 0 0 -3.722 0 15.766 15.766 0 0 1 -6.415 6.415 2.123 2.123 0 0 0 0 3.722 15.766 15.766 0 0 1 6.415 6.415 2.123 2.123 0 0 0 3.722 0 15.766 15.766 0 0 1 6.415-6.415 2.123 2.123 0 0 0 0-3.722z" fill="#fff07e"/><path d="m84.783 38.556a11.033 11.033 0 0 1 -4.49-4.49 1.486 1.486 0 0 0 -2.605 0 11.036 11.036 0 0 1 -4.489 4.49 1.486 1.486 0 0 0 0 2.6 11.036 11.036 0 0 1 4.489 4.49 1.486 1.486 0 0 0 2.605 0 11.033 11.033 0 0 1 4.49-4.49 1.486 1.486 0 0 0 0-2.6z" fill="#ffd322"/><path d="m69.792 55.231a11.033 11.033 0 0 1 -4.49-4.49 1.486 1.486 0 0 0 -2.6 0 11.033 11.033 0 0 1 -4.49 4.49 1.486 1.486 0 0 0 0 2.6 11.033 11.033 0 0 1 4.49 4.49 1.486 1.486 0 0 0 2.6 0 11.033 11.033 0 0 1 4.49-4.49 1.486 1.486 0 0 0 0-2.6z" fill="#ffd322"/><path d="m64 77.318a19.476 19.476 0 0 1 -18.462-25.64 1.75 1.75 0 1 1 3.319 1.111 15.976 15.976 0 0 0 15.143 21.029 1.75 1.75 0 0 1 0 3.5z" fill="#fff4f4"/></g><g fill="#002e49"><path d="m39.451 55.958a1.749 1.749 0 0 0 1.987-1.475 22.891 22.891 0 0 1 5.462-11.717 14.085 14.085 0 0 1 1.518 2.253 3.873 3.873 0 0 0 6.8 0 13.962 13.962 0 0 1 5.7-5.7 3.82 3.82 0 0 0 1.926-4.222 23.239 23.239 0 0 1 9.868 1.7c-.12.072-.229.158-.352.224a3.236 3.236 0 0 0 0 5.688 9.237 9.237 0 0 1 3.776 3.776 3.22 3.22 0 0 0 2.854 1.685 3.219 3.219 0 0 0 2.843-1.692 9.24 9.24 0 0 1 3.778-3.778 3.236 3.236 0 0 0 0-5.688 9.242 9.242 0 0 1 -3.777-3.777 3.22 3.22 0 0 0 -2.843-1.691 3.219 3.219 0 0 0 -2.843 1.692 9.354 9.354 0 0 1 -.625.984 26.672 26.672 0 0 0 -15.66-2.35 13.943 13.943 0 0 1 -4.637-5.06 3.872 3.872 0 0 0 -6.8 0 13.954 13.954 0 0 1 -5.7 5.7 3.873 3.873 0 0 0 0 6.8 14.065 14.065 0 0 1 1.648 1.043 26.413 26.413 0 0 0 -6.391 13.612 1.75 1.75 0 0 0 1.468 1.993zm39.54-20.638a12.716 12.716 0 0 0 4.538 4.538 12.708 12.708 0 0 0 -4.538 4.542 12.724 12.724 0 0 0 -4.538-4.538 12.732 12.732 0 0 0 4.538-4.542zm-34.615.28a17.442 17.442 0 0 0 7.129-7.129.373.373 0 0 1 .638 0 17.446 17.446 0 0 0 7.129 7.129.373.373 0 0 1 0 .638 17.452 17.452 0 0 0 -7.128 7.129.34.34 0 0 1 -.638 0 17.448 17.448 0 0 0 -7.129-7.129.374.374 0 0 1 0-.638z"/><path d="m38.139 62.714a1.751 1.751 0 0 0 1.718 1.429 1.784 1.784 0 0 0 .324-.03 1.751 1.751 0 0 0 1.4-2.042c-.085-.451-.156-.905-.213-1.365a1.75 1.75 0 1 0 -3.473.432c.064.53.147 1.056.244 1.576z"/><path d="m90.977 101.178-1.342-8.157a6.5 6.5 0 0 0 -6.435-5.464h-33.617v-3.393h30.584a1.75 1.75 0 0 0 0-3.5h-3.081a26.31 26.31 0 0 0 10.74-33.982 1.75 1.75 0 0 0 -3.168 1.488 22.815 22.815 0 0 1 -41.134 19.747 1.75 1.75 0 0 0 -3.14 1.546 26.255 26.255 0 0 0 10.476 11.2h-3.027a1.751 1.751 0 0 0 -1.75 1.75v5.143h-1.283a6.5 6.5 0 0 0 -6.438 5.465l-1.342 8.156a1.75 1.75 0 0 0 1.727 2.034h16.397a1.75 1.75 0 0 0 0-3.5h-14.332l1.006-6.121a3.016 3.016 0 0 1 2.982-2.533h38.4a3.016 3.016 0 0 1 2.985 2.533l1.006 6.122h-23.191a1.75 1.75 0 1 0 0 3.5h25.25a1.75 1.75 0 0 0 1.727-2.034z"/><path d="m66.844 63.153a9.246 9.246 0 0 1 3.776-3.777 3.235 3.235 0 0 0 0-5.687 1.75 1.75 0 0 0 -2.031 2.811 12.729 12.729 0 0 0 -4.589 4.571 12.716 12.716 0 0 0 -4.538-4.538 12.732 12.732 0 0 0 4.538-4.533c.165.28.341.555.526.82a1.75 1.75 0 0 0 2.872-2 9.159 9.159 0 0 1 -.554-.9 3.236 3.236 0 0 0 -5.688 0 9.243 9.243 0 0 1 -3.776 3.776 3.235 3.235 0 0 0 0 5.687 9.246 9.246 0 0 1 3.776 3.777 3.236 3.236 0 0 0 5.688 0z"/><path d="m47.753 50.574a1.752 1.752 0 0 0 -2.215 1.1 19.476 19.476 0 0 0 18.462 25.644 1.75 1.75 0 0 0 0-3.5 15.976 15.976 0 0 1 -15.143-21.029 1.75 1.75 0 0 0 -1.104-2.215z"/></g></g></svg>