<svg clip-rule="evenodd" fill-rule="evenodd" stroke-linejoin="round" stroke-miterlimit="2" viewBox="0 0 96 96" xmlns="http://www.w3.org/2000/svg"><g><g><path d="m52.591 31.708c1.269-2.495 1.022-5.492-.638-7.746.005-.005.005-.005.005-.005-1.389-1.886-3.59-3.001-5.933-3.006-2.342-.005-4.758.961-5.945 2.98-8.124 13.813-19.523 23.299-33.293 29.404-2.731 1.211-4.257 4.187-4.684 7.144-.426 2.957.48 5.951 2.475 8.176-.006.005-.006.006-.005.006 4.373 4.876 11.821 5.419 16.855 1.229 12.499-10.345 22.807-21.854 31.163-38.182z" fill="#72a962"/><path d="m89.907 28.97c.904-3.719 1.397-7.509-.873-10.591.008-.006.008-.006.008-.007-1.9-2.578-4.909-4.103-8.112-4.11-3.202-.007-6.525 1.303-8.129 4.075-10.992 19.001-26.947 31.6-45.52 40.203-3.707 1.717-5.821 5.724-6.404 9.768-.583 4.043.657 8.137 3.384 11.178-.008.008-.008.008-.007.008 5.979 6.668 14.919 5.445 23.046 1.68 21.344-9.888 36.005-25.057 42.607-52.204z" fill="#669858"/></g><g><path d="m49.691 40.012c1.464-2.421 2.875-4.952 4.235-7.61 0-.001.001-.002.001-.003 1.483-2.914 1.245-6.399-.599-9.08-.054-.079-.255-.365-.302-.425-1.677-2.157-4.257-3.426-6.997-3.432-2.868-.006-5.789 1.248-7.242 3.719-7.957 13.528-19.123 22.814-32.608 28.794-3.195 1.417-5.062 4.842-5.56 8.301-.454 3.144.404 6.324 2.351 8.806.155.197.917 1.055 1.145 1.277 2.685 2.609 6.218 3.916 9.752 3.858.828-.014 1.489-.697 1.475-1.524-.013-.828-.696-1.489-1.524-1.476-2.758.045-5.517-.973-7.612-3.009-.175-.17-.757-.827-.875-.978-1.443-1.839-2.079-4.196-1.743-6.526.354-2.456 1.538-4.981 3.807-5.987 14.054-6.232 25.686-15.916 33.978-30.015.921-1.566 2.831-2.244 4.649-2.24 1.816.004 3.525.845 4.636 2.273.031.041.162.232.198.284 1.223 1.778 1.38 4.087.398 6.019-1.327 2.592-2.703 5.061-4.13 7.422-.428.709-.201 1.632.508 2.06.708.428 1.631.201 2.059-.508z"/><path d="m24.361 58.625c-2.777 2.262-4.445 5.848-4.968 9.479-.557 3.858.383 7.757 2.583 10.918.355.51 2.231 2.599 2.798 3.079 6.355 5.377 15.124 4.167 23.156.445 21.757-10.08 36.705-25.539 43.434-53.211.948-3.899 1.367-7.862-.679-11.178-.135-.219-.684-.991-.817-1.153-2.191-2.663-5.464-4.223-8.935-4.231-3.73-.008-7.562 1.595-9.43 4.824-10.323 17.844-25.098 29.946-42.305 38.38-.744.364-1.052 1.263-.687 2.007.364.743 1.263 1.051 2.007.686 17.733-8.691 32.943-21.182 43.581-39.571 1.34-2.315 4.153-3.332 6.828-3.326 2.573.006 5 1.162 6.624 3.137.095.115.485.666.581.822 1.626 2.635 1.071 5.796.317 8.894-6.474 26.622-20.848 41.501-41.78 51.198-6.921 3.207-14.481 4.62-19.957-.013-.461-.39-1.985-2.088-2.273-2.502-1.769-2.541-2.524-5.676-2.077-8.776.417-2.892 1.682-5.78 3.893-7.581.642-.523.739-1.469.216-2.111-.522-.642-1.468-.739-2.11-.216z"/><path d="m87.051 16.312s.778-1.086 2.032-1.979c1.113-.792 2.641-1.476 4.35-.78.767.313 1.643-.056 1.956-.822.312-.767-.056-1.643-.823-1.955-2.29-.934-4.4-.487-6.106.42-2.343 1.246-3.856 3.381-3.856 3.381-.479.675-.319 1.612.356 2.091s1.613.319 2.091-.356z"/><path d="m51.675 22.793s.836-1.168 2.186-2.129c1.207-.86 2.867-1.597 4.722-.841.767.313 1.643-.056 1.956-.822.312-.767-.056-1.643-.823-1.956-2.406-.981-4.624-.51-6.417.443-2.474 1.316-4.071 3.57-4.071 3.57-.479.675-.319 1.612.356 2.091.676.479 1.613.319 2.091-.356z"/></g></g></svg>