<svg id="Layer_1" viewBox="0 0 1000 1000" xmlns="http://www.w3.org/2000/svg" data-name="Layer 1"><path d="m432.2 124.8v204.92c0 25.92-14.73 49.63-39.39 63.42l-22.91 12.86c-1.14.64-2.76 1.45-4.67 2.35s-4.14 1.91-6.49 2.92a44.16 44.16 0 0 0 -26.48 42l15.94 403.9a25.78 25.78 0 1 1 -51.51 0l15.94-403.88a44.17 44.17 0 0 0 -26.47-42c-4.71-2-8.88-4-11.16-5.27l-22.94-12.83c-24.65-13.79-39.36-37.48-39.36-63.39v-205.55a7.16 7.16 0 0 1 2.32-5.07 12 12 0 0 1 8.37-3.18h.32c5.62.13 10.36 4.16 10.36 8.8v196.12c0 20.27 17.43 36.77 38.84 36.77s38.85-16.5 38.85-36.77v-196.67a7.16 7.16 0 0 1 2.32-5.07 12 12 0 0 1 8.69-3.18c5.62.13 10.36 4.16 10.36 8.8v196.12c0 20.27 17.43 36.77 38.85 36.77s38.84-16.5 38.84-36.77v-196.67a7.17 7.17 0 0 1 2.33-5.07 11.94 11.94 0 0 1 8.69-3.18c5.61.13 10.36 4.16 10.36 8.8z" fill="#757575"/><path d="m787.3 283c0 71.2-30.06 134.72-74.82 158a45.5 45.5 0 0 0 -24.2 42.06l14.72 374.12a25.78 25.78 0 1 1 -51.51 0l14.76-374.08a45.5 45.5 0 0 0 -24.16-42.1c-44.76-23.33-74.83-86.85-74.83-158 0-45.67 12.11-88.39 34.09-120.3 20.73-30.1 47.7-46.67 75.93-46.67s55.21 16.57 75.94 46.67c21.98 31.88 34.08 74.6 34.08 120.3z" fill="#757575"/><g fill="#fff" opacity=".5"><path d="m422.2 134.8v204.92c0 25.92-14.73 49.63-39.39 63.42l-22.91 12.86c-1.14.64-2.76 1.45-4.67 2.35s-4.14 1.91-6.49 2.92a44.16 44.16 0 0 0 -26.48 42l15.94 403.9a25.78 25.78 0 1 1 -51.51 0l15.94-403.88a44.17 44.17 0 0 0 -26.47-42c-4.71-2-8.88-4-11.16-5.27l-22.94-12.83c-24.65-13.79-39.36-37.48-39.36-63.39v-205.55a7.16 7.16 0 0 1 2.32-5.07 12 12 0 0 1 8.37-3.18h.32c5.62.13 10.36 4.16 10.36 8.8v196.12c0 20.27 17.43 36.77 38.84 36.77s38.85-16.5 38.85-36.77v-196.67a7.16 7.16 0 0 1 2.32-5.07 12 12 0 0 1 8.69-3.18c5.62.13 10.36 4.16 10.36 8.8v196.12c0 20.27 17.43 36.77 38.85 36.77s38.84-16.5 38.84-36.77v-196.67a7.17 7.17 0 0 1 2.33-5.07 11.94 11.94 0 0 1 8.69-3.18c5.61.13 10.36 4.16 10.36 8.8z"/><path d="m777.3 293c0 71.2-30.06 134.72-74.82 158a45.5 45.5 0 0 0 -24.2 42.06l14.72 374.12a25.78 25.78 0 1 1 -51.51 0l14.76-374.08a45.5 45.5 0 0 0 -24.16-42.1c-44.76-23.33-74.83-86.85-74.83-158 0-45.67 12.11-88.39 34.09-120.3 20.73-30.1 47.7-46.67 75.93-46.67s55.21 16.57 75.94 46.67c21.98 31.88 34.08 74.6 34.08 120.3z"/></g><g fill="#413b32"><path d="m422.58 84a44.29 44.29 0 0 0 -31.8 12.28 38.92 38.92 0 0 0 -12 28v196.64c0 2.26-2.81 4.77-6.84 4.77s-6.85-2.51-6.85-4.77v-196.12c0-22-18.66-40.25-41.61-40.79a44.23 44.23 0 0 0 -31.8 12.28 38.92 38.92 0 0 0 -12 28v196.63c0 2.26-2.81 4.77-6.85 4.77s-6.84-2.51-6.84-4.77v-196.12c0-22-18.67-40.25-41.61-40.79a44.23 44.23 0 0 0 -31.8 12.28 38.88 38.88 0 0 0 -12 28v205.45c0 37.09 21.36 72.08 55.74 91.32l22.94 12.83c4.2 2.35 10 5 14.11 6.73a12 12 0 0 1 7.17 11.4l-15.82 403.86a57.77 57.77 0 1 0 115.45 0l-15.93-403.88c0-.16 0-.32 0-.48a12 12 0 0 1 7.17-10.92c4.12-1.77 9.91-4.38 14.12-6.74l22.91-12.81c34.4-19.24 55.77-54.24 55.77-91.35v-204.9c-.01-21.96-18.68-40.25-41.63-40.8zm9.62 245.71c0 25.92-14.73 49.63-39.39 63.42l-22.91 12.87c-1.14.64-2.76 1.45-4.67 2.35s-4.14 1.91-6.49 2.92a44.16 44.16 0 0 0 -26.48 42l15.94 403.9a25.78 25.78 0 1 1 -51.51 0l15.94-403.88a44.17 44.17 0 0 0 -26.47-42c-4.71-2-8.88-4-11.16-5.27l-22.94-12.83c-24.65-13.79-39.36-37.48-39.36-63.39v-205.55a7.16 7.16 0 0 1 2.32-5.07 12 12 0 0 1 8.37-3.18h.32c5.62.13 10.36 4.16 10.36 8.8v196.12c0 20.27 17.43 36.77 38.84 36.77s38.85-16.5 38.85-36.77v-196.67a7.16 7.16 0 0 1 2.32-5.07 12 12 0 0 1 8.69-3.18c5.62.13 10.36 4.16 10.36 8.8v196.12c0 20.27 17.43 36.77 38.85 36.77s38.84-16.5 38.84-36.77v-196.67a7.17 7.17 0 0 1 2.33-5.07 11.94 11.94 0 0 1 8.69-3.18c5.61.13 10.36 4.16 10.36 8.8z"/><path d="m779.57 144.51c-26.88-39.02-63.2-60.51-102.29-60.51s-75.4 21.49-102.28 60.51c-25.62 37.2-39.74 86.37-39.74 138.46 0 40.87 8.69 80.1 25.13 113.44 16.54 33.55 39.68 58.79 66.9 73a13.41 13.41 0 0 1 7 12.43l-14.73 374.04a57.77 57.77 0 1 0 115.45 0l-14.76-374.06a13.4 13.4 0 0 1 7-12.43c27.23-14.19 50.37-39.43 66.91-73 16.46-33.32 25.14-72.55 25.14-113.39 0-52.12-14.11-101.29-39.73-138.49zm-67.09 296.49a45.5 45.5 0 0 0 -24.2 42.06l14.72 374.12a25.78 25.78 0 1 1 -51.51 0l14.76-374.08a45.5 45.5 0 0 0 -24.16-42.1c-44.76-23.33-74.83-86.85-74.83-158 0-45.67 12.11-88.39 34.09-120.3 20.73-30.1 47.7-46.67 75.93-46.67s55.21 16.57 75.94 46.67c22 31.91 34.08 74.63 34.08 120.3 0 71.17-30.06 134.69-74.82 158z"/></g></svg>