<svg id="Layer_1-2" viewBox="0 0 64 64" xmlns="http://www.w3.org/2000/svg"><g id="Cutlery"><path d="m18 63c-3.30859375 0-6-2.69140625-6-6v-.6796875c0-.21289062.01123047-.42675781.03417969-.63916016l2.96582031-27.68115234h6l2.96582031 27.68115234c.02294922.21289062.03417969.42626953.03417969.63916016v.6796875c0 3.30859375-2.69140625 6-6 6z" fill="#95bcf4"/><path d="m13.82128906 39 1.17871094-11h6l1.17822266 11z" fill="#7ea9e8"/><path d="m46 63c-3.30859375 0-6-2.69140625-6-6v-.6796875c0-.21289062.01123047-.42675781.03417969-.63916016l2.96582031-27.68115234h6l2.96582031 27.68115234c.02294922.21289062.03417969.42626953.03417969.63916016v.6796875c0 3.30859375-2.69140625 6-6 6z" fill="#f4a37a"/><path d="m18 31c-6.06542969 0-11-5.28710938-11-11.78564453 0-6.07470703 4.75537109-18.21435547 11-18.21435547s11 12.13964844 11 18.21435547c0 6.49853516-4.93457031 11.78564453-11 11.78564453z" fill="#b6d4ff"/><path d="m41.82128906 39 1.17871094-11h6l1.17822266 11z" fill="#e87e5d"/><path d="m43 29c-4.41113281 0-8-3.58886719-8-8v-18c0-1.10302734.89697266-2 2-2s2 .89697266 2 2v16h5v-16c0-1.10302734.89697266-2 2-2s2 .89697266 2 2v16h5v-16c0-1.10302734.89697266-2 2-2s2 .89697266 2 2v18c0 4.41113281-3.58886719 8-8 8z" fill="#ffc299"/><g fill="#433d4c"><path d="m55 0c-1.65429688 0-3 1.34570312-3 3v15h-3v-15c0-1.65429688-1.34570312-3-3-3s-3 1.34570312-3 3v15h-3v-15c0-1.65429688-1.34570312-3-3-3s-3 1.34570312-3 3v18c0 4.55010986 3.39770508 8.31298828 7.78717041 8.90844727l-2.75299072 25.67700195c-.02294922.24072266-.03417969.49316406-.03417969.734375v.68017578c0 1.87841797.72998047 3.63671875 2.04931641 4.94433594 1.31396484 1.32568359 3.07226562 2.05566406 4.95068359 2.05566406 3.85986328 0 7-3.14013672 7-7v-.68017578c0-.24121094-.01123047-.49365234-.03564453-.74609375l-2.75152588-25.6652832c4.38952637-.59545898 7.78717041-4.3583374 7.78717041-8.90844727v-18c0-1.65429688-1.34570312-3-3-3zm-4.02539062 55.77490234c.01708984.17919922.02539062.36621094.02539062.54492188v.68017578c0 2.75683594-2.24316406 5-5 5-1.34082031 0-2.59472656-.52001953-3.53613281-1.47021484-.94384766-.93505859-1.46386719-2.18896484-1.46386719-3.52978516v-.68017578c0-.17871094.00830078-.36572266.02392578-.53320312l1.69244385-15.78662109h6.56713867l1.69110107 15.77490234zm-8.04382324-17.77490234.85766602-8h4.42303467l.85760498 8h-6.13830566zm13.06921387-17c0 3.85986328-3.14013672 7-7 7h-6c-3.85986328 0-7-3.14013672-7-7v-18c0-.55126953.44873047-1 1-1s1 .44873047 1 1v16c0 .55224609.44775391 1 1 1h5c.55224609 0 1-.44775391 1-1v-16c0-.55126953.44873047-1 1-1s1 .44873047 1 1v16c0 .55224609.44775391 1 1 1h5c.55224609 0 1-.44775391 1-1v-16c0-.55126953.44873047-1 1-1s1 .44873047 1 1z"/><path d="m18 0c-6.93261719 0-12 12.63671875-12 19.21435547 0 5.41583252 3.18225098 10.04467773 7.65490723 11.90478516l-2.62072754 24.46630859c-.02294922.24072266-.03417969.49316406-.03417969.734375v.68017578c0 1.87841797.72998047 3.63671875 2.04931641 4.94433594 1.31396484 1.32568359 3.07226562 2.05566406 4.95068359 2.05566406 3.85986328 0 7-3.14013672 7-7v-.68017578c0-.24121094-.01123047-.49365234-.03564453-.74609375l-2.6192627-24.45458984c4.47265625-1.86010742 7.65490723-6.48895264 7.65490723-11.90478516 0-6.57763672-5.06738281-19.21435547-12-19.21435547zm4.97460938 55.77490234c.01708984.17919922.02539062.36621094.02539062.54492188v.68017578c0 2.75683594-2.24316406 5-5 5-1.34082031 0-2.59472656-.52001953-3.53613281-1.47021484-.94384766-.93505859-1.46386719-2.18896484-1.46386719-3.52978516v-.68017578c0-.17871094.00830078-.36572266.02392578-.53320312l1.69085693-15.78662109h6.5703125l1.68951416 15.77490234zm-8.04559326-17.77490234.67028809-6.25787354c.77593994.1685791 1.57867432.25787354 2.4006958.25787354s1.62475586-.08929443 2.4006958-.25787354l.67022705 6.25787354zm3.07098389-8c-5.51416016 0-10-4.83837891-10-10.78564453 0-6.47509766 4.84375-17.21435547 10-17.21435547s10 10.73925781 10 17.21435547c0 5.94726562-4.48583984 10.78564453-10 10.78564453z"/><path d="m15.3203125 7.01269531c-.4609375-.30517578-1.08105469-.17871094-1.38574219.28222656-1.89501953 2.86376953-3.93457031 7.81542969-3.93457031 11.91943359 0 .55224609.44775391 1 1 1s1-.44775391 1-1c0-3.69042969 1.8671875-8.19384766 3.60253906-10.81591797.3046875-.46044922.17822266-1.08105469-.28222656-1.38574219z"/></g></g></svg>