<svg id="Layer_1" viewBox="0 0 1000 1000" xmlns="http://www.w3.org/2000/svg" data-name="Layer 1"><path d="m584.57 166h-404.12a64.52 64.52 0 0 0 -64.45 64.45v539.1a64.52 64.52 0 0 0 64.45 64.45h404.12a64.52 64.52 0 0 0 64.43-64.45v-539.1a64.52 64.52 0 0 0 -64.43-64.45zm-59.09 114.43a60.06 60.06 0 0 1 -60 60h-166a60.06 60.06 0 0 1 -60-60v-1.11a60.06 60.06 0 0 1 60-60h166a60.06 60.06 0 0 1 60 60z" fill="#ffcc80"/><path d="m884 177.62v417.59h-94.6c-4-203.81 27.05-310 54.25-363.37 14.41-28.29 29.1-44.77 40.35-54.22z" fill="#bdbdbd"/><path d="m876.43 816.31a16.41 16.41 0 0 1 -3 10.94c-1.33 1.76-5.37 7.14-18.36 6.73l-3-.1c-3.44-.11-7-.22-10.65-.22h-19a16 16 0 0 1 -8.6-2.22c-2-1.29-6.26-4-4.28-15.07a7.72 7.72 0 0 1 3.38-5.4 3.86 3.86 0 0 1 1.88-.62 16 16 0 0 0 15.16-18.69l-5.87-34.33c0-.14 0-.28-.08-.41-.09-.47-9.17-47.32 1.33-81 .58-1.88 1.35-4 2.35-6.35a51.31 51.31 0 0 0 -1-42.35h53.55a377.72 377.72 0 0 0 -6.08 59.35c-.9 39.03.13 96.02 2.27 129.74z" fill="#e53935"/><g fill="#fff" opacity=".5"><path d="m574.57 176h-404.12a64.52 64.52 0 0 0 -64.45 64.45v539.1a64.52 64.52 0 0 0 64.45 64.45h404.12a64.52 64.52 0 0 0 64.43-64.45v-539.1a64.52 64.52 0 0 0 -64.43-64.45zm-59.09 114.43a60.06 60.06 0 0 1 -60 60h-166a60.06 60.06 0 0 1 -60-60v-1.11a60.06 60.06 0 0 1 60-60h166a60.06 60.06 0 0 1 60 60z"/><path d="m874 187.62v417.59h-94.6c-4-203.81 27.05-310 54.25-363.37 14.41-28.29 29.1-44.77 40.35-54.22z"/><path d="m866.43 826.31a16.41 16.41 0 0 1 -3 10.94c-1.33 1.76-5.37 7.14-18.36 6.73l-3-.1c-3.44-.11-7-.22-10.65-.22h-19a16 16 0 0 1 -8.6-2.22c-2-1.29-6.26-4-4.28-15.07a7.72 7.72 0 0 1 3.38-5.4 3.86 3.86 0 0 1 1.88-.62 16 16 0 0 0 15.16-18.69l-5.87-34.33c0-.14 0-.28-.08-.41-.09-.47-9.17-47.32 1.33-81 .58-1.88 1.35-4 2.35-6.35a51.31 51.31 0 0 0 -1-42.35h53.55a377.72 377.72 0 0 0 -6.08 59.35c-.9 39.03.13 96.02 2.27 129.74z"/></g><g fill="#413b32"><path d="m584.57 134h-404.12a96.56 96.56 0 0 0 -96.45 96.45v539.1a96.56 96.56 0 0 0 96.45 96.45h404.12a96.56 96.56 0 0 0 96.43-96.45v-539.1a96.56 96.56 0 0 0 -96.43-96.45zm64.43 635.55a64.52 64.52 0 0 1 -64.43 64.45h-404.12a64.52 64.52 0 0 1 -64.45-64.45v-539.1a64.52 64.52 0 0 1 64.45-64.45h404.12a64.52 64.52 0 0 1 64.43 64.45z"/><path d="m465.49 219.33h-166a60.06 60.06 0 0 0 -60 60v1.11a60.06 60.06 0 0 0 60 60h166a60.06 60.06 0 0 0 60-60v-1.11a60.06 60.06 0 0 0 -60-60zm28 61.1a28 28 0 0 1 -28 28h-166a28 28 0 0 1 -28-28v-1.11a28 28 0 0 1 28-28h166a28 28 0 0 1 28 28z"/><path d="m910 137.55a16 16 0 0 0 -13.43-3.19c-4.28.93-42.8 11-78.33 76.95-20 37.14-35.35 85.3-45.62 143.11-12.62 71.24-17.62 157.79-14.84 257.24a16 16 0 0 0 16 15.55h126.22a16 16 0 0 0 15.32-11.36l.11-.42a13.73 13.73 0 0 0 .43-2.12c0-.3.07-.59.09-.88 0-.1 0-.21 0-.32 0-.3 0-.61 0-.91v-461.2a16 16 0 0 0 -5.95-12.45zm-120.6 457.66c-4-203.81 27.05-310 54.25-363.37 14.41-28.29 29.1-44.77 40.35-54.22v417.59z"/><path d="m916 611.2v.91.32c0 .29-.05.58-.09.88a15.93 15.93 0 0 1 -.43 2.12l-.11.42c-.46 1.79-2.34 9.27-4.28 20.55a346.59 346.59 0 0 0 -5 50.83c-.81 38.28.19 94.09 2.28 127.06a48.33 48.33 0 0 1 -9.37 32.24c-6.77 9-19.6 19.47-42.56 19.47h-2.28l-3.13-.1c-3.33-.11-6.49-.21-9.61-.21h-19a47.87 47.87 0 0 1 -25.75-7.2c-15.5-9.83-22.29-27.23-18.63-47.72a39.49 39.49 0 0 1 18.1-27l-3.57-20.81c-.85-4.41-10.38-56.08 2.22-96.52.88-2.85 2-5.85 3.38-9.18 2.75-6.58 4.24-18.94-14.93-30q-1.51-.87-3.21-1.74a16 16 0 0 1 14.49-28.52c16.6 8.46 26.69 19.14 32.09 30.25a51.31 51.31 0 0 1 1 42.35c-1 2.39-1.77 4.47-2.35 6.35-10.5 33.69-1.42 80.54-1.33 81 0 .13 0 .27.08.41l5.87 34.33a16 16 0 0 1 -15.16 18.69 3.86 3.86 0 0 0 -1.88.62 7.72 7.72 0 0 0 -3.38 5.4c-2 11.1 2.25 13.78 4.28 15.07a16 16 0 0 0 8.6 2.22h19c3.64 0 7.21.11 10.65.22l3 .1c13 .41 17-5 18.36-6.73a16.41 16.41 0 0 0 3-10.94c-2.14-33.72-3.17-90.71-2.35-129.75a377.72 377.72 0 0 1 6.08-59.35c2.22-12.13 4.24-19.58 4.41-20.23a16 16 0 0 1 31.51 4.19z"/></g></svg>