<svg height="512" viewBox="0 0 128 128" width="512" xmlns="http://www.w3.org/2000/svg"><g><g><circle cx="36.281" cy="90.57" fill="#fc852d" r="17.233"/><circle cx="91.728" cy="90.57" fill="#fc852d" r="17.233"/><g fill="#120078"><path d="m57.635 88.822h-18.356l13.28-23.571a1.749 1.749 0 1 0 -3.048-1.718l-14.75 26.18a1.749 1.749 0 0 0 1.524 2.609h21.35a1.75 1.75 0 0 0 0-3.5z"/><path d="m55.767 65.677a1.75 1.75 0 1 0 -3.345 1.03l5.85 19.02a1.75 1.75 0 0 0 3.346-1.027z"/><path d="m93.388 90.013-8.109-24.172a.2.2 0 0 0 0-.026l-1.69-5.031-2.282-6.8a1.75 1.75 0 0 0 -3.319 1.113l1.512 4.509-19.622.116a1.75 1.75 0 0 0 .011 3.5h.01l20.769-.122.958 2.858-14.335 15.736a1.75 1.75 0 0 0 2.588 2.357l13.021-14.295 7.168 21.37a1.75 1.75 0 1 0 3.319-1.113z"/></g><path d="m91.465 52.352a3.5 3.5 0 0 1 -3.88 3.08l-15.45-1.75a3.454 3.454 0 0 1 -2.19-1.12l-7.4-8.12-9.24 13.17 6.58 3.86 11.64 6.83a3.511 3.511 0 0 1 1.44 4.41l-4.38 10.16-5.42 12.55a3.516 3.516 0 0 1 -3.22 2.12 3.5 3.5 0 0 1 -3.21-4.89l.9-2.08 2.31-5.36 5.37-12.43-11.215-6.59-3.06-1.8-4.54-2.67a3.5 3.5 0 0 1 -1.1-5.02l13.93-19.86a3.469 3.469 0 0 1 2.64-1.48 3.512 3.512 0 0 1 2.81 1.13l9.46 10.38 14.14 1.61a3.511 3.511 0 0 1 3.085 3.87z" fill="#fecd1a"/><circle cx="74.019" cy="27.865" fill="#fc852d" r="7.489"/></g><g fill="#282d66"><path d="m91.722 71.6a18.94 18.94 0 0 0 -4.347.521l-2.1-6.267c0-.009 0-.018 0-.027l-1.698-5.027-1.409-4.2 5.214.591a5.248 5.248 0 1 0 1.184-10.431l-13.487-1.536-9.025-9.9a5.243 5.243 0 0 0 -4.195-1.689 5.183 5.183 0 0 0 -3.973 2.222l-1.181 1.682a1.75 1.75 0 0 0 2.865 2.011l1.182-1.684a1.716 1.716 0 0 1 1.321-.738 1.758 1.758 0 0 1 1.4.563l9.459 10.379a1.746 1.746 0 0 0 1.095.56l14.139 1.611a1.747 1.747 0 1 1 -.394 3.472l-15.458-1.755a1.7 1.7 0 0 1 -1.083-.558l-7.4-8.12a1.749 1.749 0 0 0 -2.726.174l-9.24 13.17a1.75 1.75 0 0 0 .547 2.514l18.215 10.687a1.762 1.762 0 0 1 .724 2.211l-9.8 22.7a1.777 1.777 0 0 1 -2.316.922 1.717 1.717 0 0 1 -.925-.953 1.743 1.743 0 0 1 .022-1.345l.9-2.078.013-.028 7.67-17.764a1.75 1.75 0 0 0 -.72-2.2l-18.833-11.067a1.7 1.7 0 0 1 -.815-1.132 1.737 1.737 0 0 1 .275-1.369l2.755-3.936a1.75 1.75 0 0 0 -2.867-2.007l-2.755 3.936a5.242 5.242 0 0 0 1.645 7.532l3.059 1.8-4.637 8.23a18.977 18.977 0 1 0 10.737 21.562 5.316 5.316 0 0 0 .301 1.161 5.262 5.262 0 0 0 4.878 3.308 5.27 5.27 0 0 0 4.827-3.176l5.3-12.273 12.829-14.087 1.161 3.463a18.956 18.956 0 1 0 7.667-1.635zm-31.506 8.578-3.132-10.178 6 3.529zm-8.537-13.359.934.549 5.464 17.763-1.6 3.708h-1.309a18.979 18.979 0 0 0 -8.095-13.845zm-.028 22.02h-12.379l6.071-10.775a15.474 15.474 0 0 1 6.308 10.775zm-15.377 17.23a15.483 15.483 0 1 1 6.031-29.742l-7.551 13.4a1.75 1.75 0 0 0 1.524 2.609h15.372a15.5 15.5 0 0 1 -15.376 13.733zm26.442-58.817 5.925 6.5a5.182 5.182 0 0 0 3.29 1.686l6.4.724 1.16 3.461-19.142.113-4.529-2.656zm11.607 26.732.241-.561a5.27 5.27 0 0 0 -2.164-6.613l-6.146-3.61 14.407-.085.959 2.857zm17.4 32.085a15.471 15.471 0 0 1 -6.546-29.494l4.886 14.568a1.75 1.75 0 1 0 3.319-1.113l-4.892-14.582a15.481 15.481 0 1 1 3.232 30.621z"/><path d="m52.284 46.889a1.75 1.75 0 0 0 2.438-.429l.4-.572a1.75 1.75 0 0 0 -2.867-2.009l-.4.573a1.75 1.75 0 0 0 .429 2.437z"/><path d="m74.013 37.121a9.239 9.239 0 1 0 -9.24-9.239 9.249 9.249 0 0 0 9.24 9.239zm0-14.978a5.739 5.739 0 1 1 -5.74 5.739 5.745 5.745 0 0 1 5.74-5.739z"/></g></g></svg>