<svg height="512" viewBox="0 0 128 128" width="512" xmlns="http://www.w3.org/2000/svg"><g><g><path d="m54 82.7s-2-17.254-2-33.705c0-22.158 12-42.495 12-42.495s12 20.337 12 42.492c0 16.451-2 33.708-2 33.708z" fill="#ededf9"/><path d="m57 89.112h14a0 0 0 0 1 0 0v26.388a6 6 0 0 1 -6 6h-2a6 6 0 0 1 -6-6v-26.388a0 0 0 0 1 0 0z" fill="#537980"/><path d="m54 82.7h20a0 0 0 0 1 0 0v5.8a3 3 0 0 1 -3 3h-14a3 3 0 0 1 -3-3v-5.8a0 0 0 0 1 0 0z" fill="#0f89cc"/><path d="m84.5 79.5a4.312 4.312 0 0 0 -.583.059v-.059h-40.417a4.5 4.5 0 1 0 4.224 6h32.551a4.493 4.493 0 1 0 4.225-6z" fill="#3ea7fb"/><path d="m57 97.5h14v6h-14z" fill="#ededf9" transform="matrix(-1 0 0 -1 128 201)"/><path d="m57 103.5h14v6h-14z" fill="#dddde3" transform="matrix(-1 0 0 -1 128 213)"/></g><g fill="#102a3f"><path d="m54.2 31.542a1.746 1.746 0 0 0 2.136-1.249c.405-1.542.861-3.113 1.354-4.667a1.75 1.75 0 1 0 -3.336-1.06c-.511 1.611-.983 3.239-1.4 4.839a1.751 1.751 0 0 0 1.246 2.137z"/><path d="m69.008 39.8a1.756 1.756 0 0 0 1.726-2.05c-.331-1.906-.751-3.876-1.247-5.855a1.749 1.749 0 1 0 -3.394.85c.474 1.9.876 3.782 1.192 5.6a1.753 1.753 0 0 0 1.723 1.455z"/><path d="m86.225 77.991a1.75 1.75 0 1 0 -.965 3.364 2.749 2.749 0 1 1 -3.336 3.559 1.749 1.749 0 0 0 -1.649-1.164h-32.55a1.749 1.749 0 0 0 -1.649 1.164 2.743 2.743 0 1 1 -2.576-3.664h33.812a1.75 1.75 0 1 0 0-3.5h-1.046c.556-5.963 1.484-17.575 1.484-28.76 0-22.371-11.743-42.532-12.243-43.379a1.749 1.749 0 0 0 -3.014 0 94.99 94.99 0 0 0 -6.163 13.295 1.75 1.75 0 1 0 3.27 1.246 103.32 103.32 0 0 1 4.4-9.952c3.169 6.261 10.25 22.1 10.25 38.79 0 11.251-.953 22.963-1.5 28.76h-7v-28.25a1.75 1.75 0 0 0 -3.5 0v28.25h-7c-.546-5.8-1.5-17.509-1.5-28.76a69.608 69.608 0 0 1 1.262-12.837 1.75 1.75 0 1 0 -3.439-.65 73.065 73.065 0 0 0 -1.323 13.487c0 11.181.928 22.794 1.484 28.76h-8.234a6.25 6.25 0 1 0 5.319 9.5h3.431v1.25a4.749 4.749 0 0 0 3 4.406v19.7a1.75 1.75 0 0 0 3.5 0v-1.356h10.5v4.25a4.255 4.255 0 0 1 -4.25 4.25h-2a4.212 4.212 0 0 1 -2.481-.8 1.75 1.75 0 1 0 -2.049 2.838 7.693 7.693 0 0 0 4.53 1.462h2a7.759 7.759 0 0 0 7.75-7.75v-22.594a4.749 4.749 0 0 0 3-4.406v-1.25h3.431a6.243 6.243 0 1 0 7.044-9.259zm-27.475 21.259h10.5v2.5h-10.5zm10.5-3.5h-10.5v-2.5h10.5zm-10.5 12v-2.5h10.5v2.5zm13.5-19.25a1.251 1.251 0 0 1 -1.25 1.25h-14a1.25 1.25 0 0 1 -1.25-1.25v-1.25h16.5z"/></g></g></svg>