<svg id="Capa_1" enable-background="new 0 0 512 512" viewBox="0 0 512 512" xmlns="http://www.w3.org/2000/svg"><g><g><g><path d="m153.838 289c-4.74 0-9.412-.299-14-.873v206.373c0 5.523 4.477 10 10 10h8c5.523 0 10-4.477 10-10v-206.374c-4.587.575-9.259.874-14 .874z" fill="#c8effe"/><g><circle cx="153.838" cy="177" fill="#ffbd86" r="113"/><path d="m211.41 79.755c9.704 16.677 15.266 36.061 15.266 56.745 0 62.408-50.592 113-113 113-21.028 0-40.71-5.75-57.572-15.755 19.573 33.639 56.011 56.255 97.734 56.255 62.408 0 113-50.592 113-113 0-41.38-22.246-77.558-55.428-97.245z" fill="#f6a96c"/><path d="m166.888 119.112 8.812 17.856c2.12 4.295 6.217 7.272 10.957 7.961l19.705 2.863c11.936 1.734 16.702 16.403 8.065 24.822l-14.259 13.899c-3.43 3.343-4.995 8.16-4.185 12.881l3.366 19.625c2.039 11.888-10.439 20.954-21.115 15.341l-17.625-9.266c-4.239-2.229-9.304-2.229-13.544 0l-17.625 9.266c-10.676 5.613-23.154-3.453-21.115-15.341l3.366-19.625c.81-4.721-.755-9.538-4.185-12.881l-14.259-13.899c-8.637-8.419-3.871-23.088 8.065-24.822l19.705-2.863c4.74-.689 8.837-3.666 10.957-7.961l8.812-17.856c5.34-10.816 20.764-10.816 26.102 0z" fill="#ea9b58"/></g><g><path d="m344.162 231.626v50.31c9.873 2.094 19.27 5.49 28 10.003v-60.313c-4.587.574-9.259.873-14 .873-4.741.001-9.413-.298-14-.873z" fill="#c8effe"/><g><circle cx="358.162" cy="120.5" fill="#ffbd86" r="113"/><path d="m415.734 23.255c9.704 16.677 15.266 36.06 15.266 56.745 0 8.822-1.031 17.401-2.944 25.641.753 10.817-2.994 21.888-11.262 30.157l-49.276 49.276c-4.076 4.076-10.144 4.922-15.063 2.569-10.863 3.474-22.439 5.357-34.455 5.357-21.028 0-40.71-5.75-57.572-15.755 19.573 33.639 56.011 56.255 97.734 56.255 62.408 0 113-50.592 113-113 0-41.38-22.247-77.558-55.428-97.245z" fill="#f6a96c"/><path d="m361.904 80.909-3.743 3.743-3.743-3.743c-15.157-15.157-39.732-15.157-54.889 0-15.157 15.157-15.157 39.732 0 54.889l49.276 49.276c5.167 5.167 13.545 5.167 18.712 0l49.276-49.276c15.157-15.157 15.157-39.732 0-54.889-15.156-15.158-39.731-15.158-54.889 0z" fill="#ea9b58"/></g></g><g><g><circle cx="320.897" cy="391.5" fill="#ffbd86" r="113"/></g><path d="m378.47 294.255c9.704 16.677 15.266 36.061 15.266 56.745 0 62.408-50.592 113-113 113-21.028 0-40.71-5.75-57.572-15.755 19.573 33.639 56.011 56.255 97.734 56.255 62.408 0 113-50.592 113-113-.001-41.38-22.247-77.558-55.428-97.245z" fill="#f6a96c"/><path d="m310.881 328.282-53.418 92.522c-4.451 7.71 1.113 17.348 10.016 17.348h106.835c8.903 0 14.467-9.638 10.016-17.348l-53.418-92.522c-4.45-7.71-15.579-7.71-20.031 0z" fill="#ea9b58"/></g></g></g><g><path d="m207.44 140.37-19.705-2.863c-2.297-.334-4.282-1.776-5.31-3.858l-8.812-17.855c-3.742-7.582-11.319-12.293-19.774-12.293 0 0 0 0-.001 0-8.455 0-16.032 4.71-19.775 12.293l-8.812 17.855c-1.027 2.082-3.013 3.524-5.311 3.858l-19.705 2.863c-8.368 1.216-15.189 6.967-17.802 15.009s-.475 16.704 5.58 22.606l14.259 13.897c1.662 1.621 2.42 3.955 2.027 6.243l-3.364 19.626c-1.43 8.333 1.932 16.598 8.772 21.568s15.739 5.614 23.224 1.679l17.625-9.267c2.054-1.079 4.508-1.081 6.563 0l17.625 9.267c3.255 1.711 6.777 2.557 10.282 2.557 4.553 0 9.077-1.428 12.942-4.236 6.84-4.97 10.201-13.234 8.771-21.567l-3.365-19.626c-.393-2.288.365-4.622 2.028-6.242l14.259-13.899c6.055-5.901 8.192-14.564 5.58-22.606-2.611-8.042-9.432-13.793-17.801-15.009zm1.752 26.873-14.259 13.899c-5.198 5.067-7.569 12.364-6.342 19.519l3.366 19.626c.464 2.706-.585 5.284-2.806 6.897-2.219 1.613-4.996 1.817-7.428.537l-17.625-9.267c-3.213-1.688-6.737-2.533-10.262-2.533s-7.049.845-10.262 2.533l-17.625 9.267c-2.429 1.277-5.207 1.077-7.427-.537-2.221-1.613-3.27-4.191-2.805-6.897l3.364-19.626c1.228-7.154-1.143-14.451-6.341-19.52l-14.259-13.898c-1.966-1.916-2.634-4.618-1.785-7.229.849-2.61 2.977-4.405 5.692-4.8l19.705-2.863c7.184-1.043 13.392-5.553 16.605-12.063l8.812-17.855c1.215-2.462 3.579-3.932 6.325-3.932 2.744 0 5.108 1.47 6.323 3.932l8.812 17.855c3.214 6.511 9.421 11.021 16.604 12.063l19.705 2.863c2.716.395 4.845 2.189 5.692 4.8.854 2.611.187 5.313-1.779 7.229z"/><path d="m422.098 141.102c18.057-18.058 18.057-47.438-.001-65.497-17.546-17.545-45.784-18.041-63.935-1.49-18.151-16.55-46.389-16.055-63.937 1.491-18.056 18.058-18.056 47.438 0 65.496l9.962 9.962c2.93 2.928 7.678 2.928 10.607 0 2.929-2.93 2.929-7.678 0-10.607l-9.962-9.961c-12.208-12.209-12.208-32.074-.001-44.283 12.21-12.207 32.075-12.209 44.283 0l3.743 3.743c1.407 1.406 3.314 2.196 5.305 2.196 1.989 0 3.896-.791 5.303-2.197l3.741-3.742c12.209-12.209 32.074-12.208 44.283-.001 12.209 12.21 12.209 32.075 0 44.283l-49.276 49.276c-2.235 2.236-5.871 2.235-8.104 0l-14.565-14.565c-2.93-2.928-7.678-2.928-10.607 0-2.929 2.93-2.929 7.678 0 10.607l14.565 14.565c3.916 3.915 9.122 6.071 14.659 6.071 5.538 0 10.744-2.156 14.66-6.071z"/><path d="m304.386 324.532-53.417 92.522c-3.446 5.968-3.446 13.096 0 19.064 3.446 5.97 9.618 9.533 16.511 9.533h106.835c6.893 0 13.065-3.564 16.512-9.534 3.446-5.969 3.445-13.096-.001-19.063l-19.843-34.37c-2.071-3.588-6.66-4.814-10.245-2.745-3.587 2.071-4.816 6.658-2.745 10.245l19.843 34.371c1.06 1.833.354 3.452 0 4.063-.353.611-1.402 2.033-3.521 2.033h-106.836c-2.118 0-3.167-1.422-3.521-2.033-.353-.611-1.059-2.23 0-4.064l53.417-92.521c1.06-1.835 2.815-2.033 3.521-2.033s2.462.198 3.521 2.032l16.058 27.813c2.07 3.588 6.659 4.815 10.245 2.745 3.587-2.071 4.816-6.658 2.745-10.245l-16.058-27.814c-3.447-5.968-9.619-9.531-16.512-9.531-6.89 0-13.062 3.563-16.509 9.532z"/><path d="m478.662 120.5c0-66.444-54.056-120.5-120.5-120.5-57.175 0-105.174 40.026-117.454 93.528-22.565-23.426-53.966-37.028-86.87-37.028-66.444 0-120.5 54.056-120.5 120.5 0 59.108 42.778 108.409 99 118.577v94.423c0 4.143 3.357 7.5 7.5 7.5s7.5-3.357 7.5-7.5v-92.677c2.153.115 4.319.177 6.5.177 2.175 0 4.341-.065 6.5-.18v197.18c0 1.379-1.121 2.5-2.5 2.5h-8c-1.379 0-2.5-1.121-2.5-2.5v-69.5c0-4.143-3.357-7.5-7.5-7.5s-7.5 3.357-7.5 7.5v69.5c0 9.649 7.851 17.5 17.5 17.5h8c9.649 0 17.5-7.851 17.5-17.5v-198.927c22.417-4.044 43.299-14.374 60.285-30.081 17.981-16.628 30.318-38.056 35.683-61.556 17.219 17.918 39.909 30.539 65.356 35.141v32.955c-5.161-.677-10.422-1.031-15.765-1.031-66.444 0-120.5 54.056-120.5 120.5s54.056 120.499 120.5 120.499 120.5-54.056 120.5-120.5c0-45.119-24.931-84.519-61.735-105.166v-47.258c56.222-10.167 99-59.468 99-118.576zm-253.224 133.979c-19.539 18.069-44.968 28.021-71.601 28.021-58.173 0-105.5-47.327-105.5-105.5s47.327-105.5 105.5-105.5c32.929 0 64.145 15.559 84.049 41.746-.143 2.401-.225 4.818-.225 7.254 0 25.196 7.778 48.606 21.052 67.967-2.73 25.277-14.483 48.635-33.275 66.012zm27.224-133.979c0-58.173 47.327-105.5 105.5-105.5s105.5 47.327 105.5 105.5-47.327 105.5-105.5 105.5-105.5-47.327-105.5-105.5zm173.735 271c0 58.173-47.327 105.5-105.5 105.5s-105.5-47.327-105.5-105.5 47.328-105.5 105.5-105.5 105.5 47.327 105.5 105.5zm-61.735-112.271c-4.223-1.652-8.562-3.07-13-4.242v-34.163c2.153.115 4.319.177 6.5.177s4.347-.062 6.5-.177z"/></g></g><g/><g/><g/><g/><g/><g/><g/><g/><g/><g/><g/><g/><g/><g/><g/></svg>