<svg id="Capa_1" enable-background="new 0 0 512 512" height="512" viewBox="0 0 512 512" width="512" xmlns="http://www.w3.org/2000/svg"><g><circle cx="224" cy="256" fill="#f5fcff" r="224"/><path d="m20.604 256c0-120.258 94.77-218.37 213.698-223.755-3.416-.155-6.848-.245-10.302-.245-123.712 0-224 100.288-224 224s100.288 224 224 224c3.454 0 6.886-.09 10.302-.245-118.928-5.385-213.698-103.497-213.698-223.755z" fill="#dff1f7"/><g fill="#ea4959"><path d="m224 64c-106.039 0-192 85.961-192 192s85.961 192 192 192 192-85.961 192-192-85.961-192-192-192zm0 352c-88.366 0-160-71.634-160-160s71.634-160 160-160 160 71.634 160 160-71.634 160-160 160z"/><path d="m224.008 128.008c-70.688 0-127.992 57.304-127.992 127.992s57.304 127.992 127.992 127.992 127.992-57.304 127.992-127.992-57.304-127.992-127.992-127.992zm-.008 223.992c-53.019 0-96-42.981-96-96s42.981-96 96-96 96 42.981 96 96-42.981 96-96 96z"/><circle cx="224.012" cy="256" r="63.988"/></g><path d="m180.628 256c0-31.831 23.246-58.223 53.686-63.151-3.355-.543-6.794-.837-10.302-.837-35.34 0-63.988 28.648-63.988 63.988s28.648 63.988 63.988 63.988c3.508 0 6.947-.293 10.302-.837-30.44-4.928-53.686-31.32-53.686-63.151z" fill="#d83a51"/><g><g><path d="m240 263.726h-15.988c-4.267 0-7.726-3.459-7.726-7.726s3.459-7.726 7.726-7.726h15.988c4.267 0 7.726 3.459 7.726 7.726s-3.459 7.726-7.726 7.726z" fill="#356487"/></g></g><path d="m260.933 273.999-22.648-11.797c-5.019-2.614-5.022-9.794-.006-12.413l22.654-11.828h155.067l10.302 18.039-10.302 17.999z" fill="#01d0fb"/><path d="m487.997 304h-39.997l-32-29.96v-18.045h71.997c13.256 0 24.003 10.746 24.003 24.003 0 13.256-10.746 24.002-24.003 24.002z" fill="#ffcb39"/><path d="m487.997 208h-39.997l-32 29.96v18.045h71.997c13.256 0 24.003-10.746 24.003-24.003 0-13.256-10.746-24.002-24.003-24.002z" fill="#ffe04a"/></g></svg>