<svg id="Layer_1" viewBox="0 0 1000 1000" xmlns="http://www.w3.org/2000/svg" data-name="Layer 1"><path d="m363 813.78v1.22c0 11.67-7.73 21.17-17.25 21.17h-30.96c-9.52 0-17.26-9.5-17.26-21.17v-1.22z" fill="#f9a825"/><path d="m597.2 813.78v1.22c0 11.67-7.74 21.17-17.25 21.17h-30.95c-9.51 0-17.25-9.5-17.25-21.17v-1.22z" fill="#f9a825"/><path d="m668.7 750.79a46.38 46.38 0 0 1 -43.71 31h-9.35a16.63 16.63 0 0 0 -4.88 0h-92.55a16.63 16.63 0 0 0 -4.88 0h-131.93a16.63 16.63 0 0 0 -4.88 0h-92.52a16.39 16.39 0 0 0 -2.44-.18 16.16 16.16 0 0 0 -2.43.18h-9.36a46.4 46.4 0 0 1 -43.71-31z" fill="#f9a825"/><path d="m779 511.23a11.4 11.4 0 0 1 -11.42 11c-.36 0-.73 0-1.09 0-2.74.18-34.77 2.63-63.14 20.05v-43h63.54a12.5 12.5 0 0 1 8.94 3.79 11.08 11.08 0 0 1 3.17 8.16z" fill="#f9a825"/><path d="m223.41 461v115a16.08 16.08 0 0 1 0 5.62v137.17h447.91v-257.79zm212.26 14.23h23.39a16 16 0 0 1 0 32h-23.39a16 16 0 0 1 0-32zm-94.08 16a16 16 0 0 1 16-16h23.41a16 16 0 0 1 0 32h-23.41a16 16 0 0 1 -16-16.04zm105.78 211.9a73.14 73.14 0 0 1 -16-144.5v-12.47a16 16 0 0 1 32 0v12.47a73.14 73.14 0 0 1 -16 144.5zm89.77-195.94h-23.38a16 16 0 0 1 0-32h23.38a16 16 0 0 1 0 32z" fill="#fbc02d"/><path d="m488.5 630a41.14 41.14 0 1 1 -57.13-37.9v37.9a16 16 0 0 0 32 0v-37.9a41.2 41.2 0 0 1 25.13 37.9z" fill="#e53935"/><path d="m191.41 499.38v42.79c-28.17-17.17-59.81-19.68-62.84-19.88-.38 0-.76 0-1.15 0a11.4 11.4 0 0 1 -11.41-11 11.08 11.08 0 0 1 3.17-8.06 12.5 12.5 0 0 1 8.94-3.79z" fill="#f9a825"/><path d="m884 174.9a11.07 11.07 0 0 1 -11.07 11.1h-111.22a38.18 38.18 0 0 1 -34.61-22.14h145.83a11.08 11.08 0 0 1 11.07 11.04z" fill="#616161"/><g fill="#fff" opacity=".5"><path d="m353 823.78v1.22c0 11.67-7.73 21.17-17.25 21.17h-30.96c-9.52 0-17.26-9.5-17.26-21.17v-1.22z"/><path d="m587.2 823.78v1.22c0 11.67-7.74 21.17-17.25 21.17h-30.95c-9.51 0-17.25-9.5-17.25-21.17v-1.22z"/><path d="m658.7 760.79a46.38 46.38 0 0 1 -43.71 31h-9.35a16.63 16.63 0 0 0 -4.88 0h-92.55a16.63 16.63 0 0 0 -4.88 0h-131.93a16.63 16.63 0 0 0 -4.88 0h-92.52a16.39 16.39 0 0 0 -2.44-.18 16.16 16.16 0 0 0 -2.43.18h-9.36a46.4 46.4 0 0 1 -43.71-31z"/><path d="m769 521.23a11.4 11.4 0 0 1 -11.42 11c-.36 0-.73 0-1.09 0-2.74.18-34.77 2.63-63.14 20.05v-43h63.54a12.5 12.5 0 0 1 8.94 3.79 11.08 11.08 0 0 1 3.17 8.16z"/><path d="m213.41 471v115a16.08 16.08 0 0 1 0 5.62v137.17h447.91v-257.79zm212.26 14.23h23.39a16 16 0 0 1 0 32h-23.39a16 16 0 1 1 0-32zm-94.08 16a16 16 0 0 1 16-16h23.41a16 16 0 0 1 0 32h-23.41a16 16 0 0 1 -16-16.04zm105.78 211.9a73.14 73.14 0 0 1 -16-144.5v-12.47a16 16 0 0 1 32 0v12.47a73.14 73.14 0 0 1 -16 144.5zm89.77-195.94h-23.38a16 16 0 1 1 0-32h23.38a16 16 0 0 1 0 32z"/><path d="m478.5 640a41.14 41.14 0 1 1 -57.13-37.9v37.9a16 16 0 0 0 32 0v-37.9a41.2 41.2 0 0 1 25.13 37.9z"/><path d="m181.41 509.38v42.79c-28.17-17.17-59.81-19.68-62.84-19.88-.38 0-.76 0-1.15 0a11.4 11.4 0 0 1 -11.41-11 11.08 11.08 0 0 1 3.17-8.06 12.5 12.5 0 0 1 8.94-3.79z"/><path d="m874 184.9a11.07 11.07 0 0 1 -11.07 11.1h-111.22a38.18 38.18 0 0 1 -34.61-22.14h145.83a11.08 11.08 0 0 1 11.07 11.04z"/></g><g fill="#413b32"><path d="m395 797.6v17.4c0 29.32-22.09 53.17-49.25 53.17h-30.96c-27.16 0-49.26-23.85-49.26-53.17v-17.4a16 16 0 0 1 16-16 16.39 16.39 0 0 1 2.44.18l.71.13.26.05h.09l.46.11.76.22c.23.07.46.14.68.23h.12l.51.21.15.07c.23.09.46.19.68.3l.69.35.37.21.2.12.2.12c.25.15.49.31.73.48s.24.16.35.25l.2.15.15.12.24.19.1.07.32.28c.22.18.43.38.64.59a3.85 3.85 0 0 1 .35.35c.1.1.21.21.31.33l.08.09a4.19 4.19 0 0 1 .39.45 10.46 10.46 0 0 1 .81 1c.1.13.19.27.28.41s.35.55.51.83l.1.17c.16.28.31.57.45.86v.07c.1.21.2.43.29.64s.25.62.36.94a.33.33 0 0 1 0 .13c.05.15.11.3.15.45s.1.31.14.46v.06c0 .1.06.2.08.3l.06.26s0 0 0 .07c.05.23.1.46.14.69v.07c0 .19.07.37.1.56a.45.45 0 0 0 0 .11s0 0 0 .07 0 .08 0 .12 0 .3 0 .46a14.39 14.39 0 0 1 .07 1.48v17.54c0 11.67 7.74 21.17 17.26 21.17h30.92c9.52 0 17.25-9.5 17.25-21.17v-17.4a14.39 14.39 0 0 1 .07-1.48c0-.16 0-.31.05-.46s0-.08 0-.12 0 0 0-.07 0-.08 0-.11 0-.23.05-.34l.06-.35c0-.21.09-.43.13-.64s.1-.42.16-.62v-.06c.05-.15.09-.31.14-.46a4 4 0 0 1 .15-.45.33.33 0 0 1 0-.13c.11-.32.23-.63.36-.94s.19-.43.29-.64v-.07c.14-.29.29-.58.45-.86l.1-.17c.16-.28.33-.56.51-.83s.18-.28.28-.41a10.46 10.46 0 0 1 .81-1 4.19 4.19 0 0 1 .39-.45c.12-.14.26-.28.39-.42l.35-.35.25-.24.26-.24c.35-.3.71-.6 1.08-.88s.76-.54 1.15-.78l.2-.12.2-.12.37-.21.69-.35c.22-.11.45-.21.68-.3h.08.05.06.08l.43-.17h.12c.23-.09.45-.16.68-.23l.76-.22.46-.11h.09l.26-.05.71-.13a16.63 16.63 0 0 1 4.88 0 16 16 0 0 1 14.04 15.58z"/><path d="m629.2 797.6v17.4c0 29.32-22.09 53.17-49.25 53.17h-30.95c-27.16 0-49.25-23.85-49.25-53.17v-17.4a16 16 0 0 1 13.56-15.82 16.63 16.63 0 0 1 4.88 0l.71.13.26.05h.09l.46.11.76.22c.23.07.46.14.68.23h.12l.51.21.15.07c.23.09.46.19.68.3l.69.35.37.21.2.12.2.12c.25.15.49.31.73.48s.24.16.35.25l.2.15.15.12.24.19.1.07.32.28c.22.18.43.38.64.59a3.85 3.85 0 0 1 .35.35c.1.1.21.21.31.33l.08.09a4.19 4.19 0 0 1 .39.45 10.46 10.46 0 0 1 .81 1c.1.13.19.27.28.41s.35.55.51.83l.1.17c.16.28.31.57.45.86v.07c.1.21.2.43.29.64s.25.62.36.94a.33.33 0 0 1 0 .13c.05.15.11.3.15.45s.1.31.14.46v.06c0 .1.06.2.08.3l.06.26s0 0 0 .07c0 .23.1.46.14.69v.07c0 .19.07.37.1.56a.45.45 0 0 0 0 .11s0 0 0 .07 0 .08 0 .12 0 .3.05.46a14.39 14.39 0 0 1 .07 1.48v17.54c0 11.67 7.74 21.17 17.25 21.17h31.23c9.51 0 17.25-9.5 17.25-21.17v-17.4a14.39 14.39 0 0 1 .07-1.48c0-.16 0-.31.05-.46s0-.08 0-.12 0 0 0-.07 0-.08 0-.11 0-.23 0-.34l.06-.35c0-.21.09-.43.13-.64s.1-.42.16-.62v-.06c0-.05 0-.11.05-.16s0 0 0-.06v-.12-.12a.09.09 0 0 0 0 0c.05-.13.09-.27.14-.4a.33.33 0 0 1 0-.13c.11-.32.23-.63.36-.94s.19-.43.29-.64.25-.52.38-.76.22-.4.34-.59l.18-.29.19-.29.08-.13a.61.61 0 0 0 .07-.1l.16-.23.07-.11.08-.1.06-.09.16-.2c.08-.11.17-.21.26-.32s.2-.25.31-.37.31-.35.47-.52.57-.58.87-.86.74-.64 1.14-.94l.6-.43c.2-.14.41-.27.62-.4l.2-.12.2-.12.37-.21.69-.35c.22-.11.45-.21.68-.3l.15-.07h.08l.43-.17h.12c.22-.09.45-.16.68-.23l.76-.22.46-.11h.09l.26-.05.71-.13a16.63 16.63 0 0 1 4.88 0 16 16 0 0 1 13.84 15.63z"/><path d="m811 512.34a43.41 43.41 0 0 1 -42.72 41.91c-3.93.33-44.54 4.38-64.91 29.73-1 1.18-1.85 2.4-2.71 3.68a16 16 0 1 1 -26.66-17.83 93.7 93.7 0 0 1 29.28-27.49c28.37-17.42 60.4-19.87 63.14-20.05h1.09a11.4 11.4 0 0 0 11.42-11 11.08 11.08 0 0 0 -3.17-8.06 12.5 12.5 0 0 0 -8.94-3.79h-79.5a16 16 0 0 1 0-32h79.54a44.64 44.64 0 0 1 31.95 13.56 42.69 42.69 0 0 1 12.19 31.34z"/><path d="m223.41 581.54a16 16 0 0 1 -29 6.12c-.93-1.38-1.91-2.7-3-4-20.35-24.92-60.81-29.11-64.67-29.44a43.41 43.41 0 0 1 -42.74-41.88 42.74 42.74 0 0 1 12.13-31.4 44.66 44.66 0 0 1 32-13.56h79.29a16 16 0 0 1 0 32h-79.3a12.5 12.5 0 0 0 -8.94 3.79 11.08 11.08 0 0 0 -3.17 8.06 11.4 11.4 0 0 0 11.41 11h1.15c3 .2 34.67 2.71 62.84 19.88a94 94 0 0 1 29.53 27.66 15.92 15.92 0 0 1 2.47 11.71z"/><path d="m463.37 558.63a73.14 73.14 0 1 0 57.13 71.37 72.71 72.71 0 0 0 -57.13-71.37zm-16 112.5a41.14 41.14 0 1 1 41.13-41.13 41.18 41.18 0 0 1 -41.13 41.13z"/><path d="m518.21 781.78.71.13.26.05h.09l.46.11.76.22c.23.07.46.14.68.23h.12l.51.21.15.07c.23.09.46.19.68.3l.69.35.37.21.2.12.2.12c.25.15.49.31.73.48s.24.16.35.25l.2.15.15.12.24.19.1.08.32.28c.22.18.43.38.64.59a3.85 3.85 0 0 1 .35.35c.1.1.21.21.31.33l.08.09a4.19 4.19 0 0 1 .39.45 10.46 10.46 0 0 1 .81 1c.1.13.19.27.28.41s.35.55.51.83l.1.17c.16.28.31.57.45.86v.07c.1.21.2.43.29.64s.25.62.36.94a.33.33 0 0 1 0 .13c.05.15.11.3.15.45s.1.31.14.46v.06c0 .1.06.2.08.3l.06.26s0 0 0 .07c0 .23.1.46.14.69v.07c0 .19.07.37.1.56a.45.45 0 0 0 0 .11s0 0 0 .07 0 .08 0 .12 0 .3.05.46a14.39 14.39 0 0 1 .07 1.48v16.18h65.66v-16.05a14.39 14.39 0 0 1 .07-1.48c0-.16 0-.31.05-.46s0-.08 0-.12 0 0 0-.07 0-.08 0-.11 0-.23 0-.34l.06-.35c0-.21.09-.43.13-.64s.1-.42.16-.62v-.06c0-.05 0-.11.05-.16s0 0 0-.06v-.12a.56.56 0 0 0 0-.12.09.09 0 0 0 0 0c.05-.13.09-.27.14-.4a.33.33 0 0 1 0-.13c.11-.32.23-.63.36-.94s.19-.43.29-.64.25-.52.38-.76.22-.4.34-.59l.18-.29.19-.29.08-.13a.61.61 0 0 0 .07-.1l.16-.23.07-.11.08-.1.12-.15.1-.14c.08-.11.17-.21.26-.32s.2-.25.31-.37.31-.35.47-.52.57-.58.87-.86.74-.64 1.14-.94l.6-.43c.2-.14.41-.27.62-.4l.2-.12.2-.12.37-.21.69-.35c.22-.11.45-.21.68-.3l.15-.07h.08l.43-.17h.12c.22-.09.45-.16.68-.23l.76-.22.46-.11h.09l.26-.05.71-.13zm-234.24 0 .71.13.26.05h.09l.46.11.76.22c.23.07.46.14.68.23h.12l.51.21.15.07c.23.09.46.19.68.3l.69.35.37.21.2.12.2.12c.25.15.49.31.73.48s.24.16.35.25l.2.15.15.12.24.19.1.08.32.28c.22.18.43.38.64.59a3.85 3.85 0 0 1 .35.35c.1.1.21.21.31.33l.08.09a4.19 4.19 0 0 1 .39.45 10.46 10.46 0 0 1 .81 1c.1.13.19.27.28.41s.35.55.51.83l.1.17c.16.28.31.57.45.86v.07c.1.21.2.43.29.64s.25.62.36.94a.33.33 0 0 1 0 .13c.05.15.11.3.15.45s.1.31.14.46v.06c0 .1.06.2.08.3l.06.26s0 0 0 .07c.05.23.1.46.14.69v.07c0 .19.07.37.1.56a.45.45 0 0 0 0 .11s0 0 0 .07 0 .08 0 .12 0 .3 0 .46a14.39 14.39 0 0 1 .07 1.48v16.18h65.75v-16.05a14.39 14.39 0 0 1 .07-1.48c0-.16 0-.31.05-.46s0-.08 0-.12 0 0 0-.07 0-.08 0-.11 0-.23.05-.34l.06-.35c0-.21.09-.43.13-.64s.1-.42.16-.62v-.06c.05-.15.09-.31.14-.46s.09-.3.15-.45a.33.33 0 0 1 0-.13c.11-.32.23-.63.36-.94s.19-.43.29-.64v-.07c.14-.29.29-.58.45-.86l.1-.17c.16-.28.33-.56.51-.83s.18-.28.28-.41a10.46 10.46 0 0 1 .81-1 4.19 4.19 0 0 1 .39-.45c.12-.14.26-.28.39-.42l.35-.35.25-.24.26-.24c.35-.3.71-.6 1.08-.88s.76-.54 1.15-.78l.2-.12.2-.12.37-.21.69-.35c.22-.11.45-.21.68-.3h.08.05.06.08l.43-.17h.12c.23-.09.45-.16.68-.23l.76-.22.46-.11h.09l.26-.05.71-.13zm-76.56-282.4h-16v42.79a94 94 0 0 1 29.53 27.66 15.94 15.94 0 0 1 2.47 6.09v-92.54a16 16 0 0 1 -16 16zm310.8 282.4.71.13.26.05h.09l.46.11.76.22c.23.07.46.14.68.23h.12l.51.21.15.07c.23.09.46.19.68.3l.69.35.37.21.2.12.2.12c.25.15.49.31.73.48s.24.16.35.25l.2.15.15.12.24.19.1.07.32.28c.22.18.43.38.64.59a3.85 3.85 0 0 1 .35.35c.1.1.21.21.31.33l.08.09a4.19 4.19 0 0 1 .39.45 10.46 10.46 0 0 1 .81 1c.1.13.19.27.28.41s.35.55.51.83l.1.17c.16.28.31.57.45.86v.07c.1.21.2.43.29.64s.25.62.36.94a.33.33 0 0 1 0 .13c.05.15.11.3.15.45s.1.31.14.46v.06c0 .1.06.2.08.3l.06.26s0 0 0 .07c0 .23.1.46.14.69v.07c0 .19.07.37.1.56a.45.45 0 0 0 0 .11s0 0 0 .07 0 .08 0 .12 0 .3.05.46a14.39 14.39 0 0 1 .07 1.48v16.18h65.66v-16.04a14.39 14.39 0 0 1 .07-1.48c0-.16 0-.31.05-.46s0-.08 0-.12 0 0 0-.07 0-.08 0-.11 0-.23 0-.34l.06-.35c0-.21.09-.43.13-.64s.1-.42.16-.62v-.06c0-.05 0-.11.05-.16s0 0 0-.06v-.12-.12c.05-.13.09-.27.14-.4a.33.33 0 0 1 0-.13c.11-.32.23-.63.36-.94s.19-.43.29-.64.25-.52.38-.76.22-.4.34-.59l.18-.29.19-.29.08-.13a.61.61 0 0 0 .07-.1l.16-.23.07-.11.08-.1.06-.09.06-.06.1-.14c.08-.11.17-.21.26-.32s.2-.25.31-.37a5.66 5.66 0 0 1 .47-.52c.28-.29.57-.58.87-.86s.74-.64 1.14-.94l.6-.43c.2-.14.41-.27.62-.4l.2-.12.2-.12.37-.21.69-.35c.22-.11.45-.21.68-.3l.15-.07h.08l.43-.17h.12c.22-.09.45-.16.68-.23l.76-.22.46-.11h.09l.26-.05.71-.13zm-234.24 0 .71.13.26.05h.09l.46.11.76.22c.23.07.46.14.68.23h.12l.51.21.15.07c.23.09.46.19.68.3l.69.35.37.21.2.12.2.12c.25.15.49.31.73.48s.24.16.35.25l.2.15.15.12.24.19.1.07.32.28c.22.18.43.38.64.59a3.85 3.85 0 0 1 .35.35c.1.1.21.21.31.33l.08.09a4.19 4.19 0 0 1 .39.45 10.46 10.46 0 0 1 .81 1c.1.13.19.27.28.41s.35.55.51.83l.1.17c.16.28.31.57.45.86v.07c.1.21.2.43.29.64s.25.62.36.94a.33.33 0 0 1 0 .13c.05.15.11.3.15.45s.1.31.14.46v.06c0 .1.06.2.08.3l.06.26s0 0 0 .07c.05.23.1.46.14.69v.07c0 .19.07.37.1.56a.45.45 0 0 0 0 .11s0 0 0 .07 0 .08 0 .12 0 .3 0 .46a14.39 14.39 0 0 1 .07 1.48v16.18h65.75v-16.04a14.39 14.39 0 0 1 .07-1.48c0-.16 0-.31.05-.46s0-.08 0-.12 0 0 0-.07 0-.08 0-.11 0-.23.05-.34l.06-.35c0-.21.09-.43.13-.64s.1-.42.16-.62v-.06c.05-.15.09-.31.14-.46s.09-.3.15-.45a.33.33 0 0 1 0-.13c.11-.32.23-.63.36-.94s.19-.43.29-.64v-.07c.14-.29.29-.58.45-.86l.1-.17c.16-.28.33-.56.51-.83s.18-.28.28-.41a10.46 10.46 0 0 1 .81-1 4.19 4.19 0 0 1 .39-.45c.12-.14.26-.28.39-.42l.35-.35.25-.24.26-.24c.35-.3.71-.6 1.08-.88s.76-.54 1.15-.78l.2-.12.2-.12.37-.21.69-.35c.22-.11.45-.21.68-.3h.08.05.06.08l.43-.17h.12c.23-.09.45-.16.68-.23l.76-.22.46-.11h.09l.26-.05.71-.13zm234.24 0 .71.13.26.05h.09l.46.11.76.22c.23.07.46.14.68.23h.12l.51.21.15.07c.23.09.46.19.68.3l.69.35.37.21.2.12.2.12c.25.15.49.31.73.48s.24.16.35.25l.2.15.15.12.24.19.1.07.32.28c.22.18.43.38.64.59a3.85 3.85 0 0 1 .35.35c.1.1.21.21.31.33l.08.09a4.19 4.19 0 0 1 .39.45 10.46 10.46 0 0 1 .81 1c.1.13.19.27.28.41s.35.55.51.83l.1.17c.16.28.31.57.45.86v.07c.1.21.2.43.29.64s.25.62.36.94a.33.33 0 0 1 0 .13c.05.15.11.3.15.45s.1.31.14.46v.06c0 .1.06.2.08.3l.06.26s0 0 0 .07c0 .23.1.46.14.69v.07c0 .19.07.37.1.56a.45.45 0 0 0 0 .11s0 0 0 .07 0 .08 0 .12 0 .3.05.46a14.39 14.39 0 0 1 .07 1.48v16.18h65.66v-16.04a14.39 14.39 0 0 1 .07-1.48c0-.16 0-.31.05-.46s0-.08 0-.12 0 0 0-.07 0-.08 0-.11 0-.23 0-.34l.06-.35c0-.21.09-.43.13-.64s.1-.42.16-.62v-.06c0-.05 0-.11.05-.16s0 0 0-.06v-.12-.12c.05-.13.09-.27.14-.4a.33.33 0 0 1 0-.13c.11-.32.23-.63.36-.94s.19-.43.29-.64.25-.52.38-.76.22-.4.34-.59l.18-.29.19-.29.08-.13a.61.61 0 0 0 .07-.1l.16-.23.07-.11.08-.1.06-.09.16-.2c.08-.11.17-.21.26-.32s.2-.25.31-.37a5.66 5.66 0 0 1 .47-.52c.28-.29.57-.58.87-.86s.74-.64 1.14-.94l.6-.43c.2-.14.41-.27.62-.4l.2-.12.2-.12.37-.21.69-.35c.22-.11.45-.21.68-.3l.15-.07h.08l.43-.17h.12c.22-.09.45-.16.68-.23l.76-.22.46-.11h.09l.26-.05.71-.13zm-234.24 0 .71.13.26.05h.09l.46.11.76.22c.23.07.46.14.68.23h.12l.51.21.15.07c.23.09.46.19.68.3l.69.35.37.21.2.12.2.12c.25.15.49.31.73.48s.24.16.35.25l.2.15.15.12.24.19.1.07.32.28c.22.18.43.38.64.59a3.85 3.85 0 0 1 .35.35c.1.1.21.21.31.33l.08.09a4.19 4.19 0 0 1 .39.45 10.46 10.46 0 0 1 .81 1c.1.13.19.27.28.41s.35.55.51.83l.1.17c.16.28.31.57.45.86v.07c.1.21.2.43.29.64s.25.62.36.94a.33.33 0 0 1 0 .13c.05.15.11.3.15.45s.1.31.14.46v.06c0 .1.06.2.08.3l.06.26s0 0 0 .07c.05.23.1.46.14.69v.07c0 .19.07.37.1.56a.45.45 0 0 0 0 .11s0 0 0 .07 0 .08 0 .12 0 .3 0 .46a14.39 14.39 0 0 1 .07 1.48v16.18h65.75v-16.04a14.39 14.39 0 0 1 .07-1.48c0-.16 0-.31.05-.46s0-.08 0-.12 0 0 0-.07 0-.08 0-.11 0-.23.05-.34l.06-.35c0-.21.09-.43.13-.64s.1-.42.16-.62v-.06c.05-.15.09-.31.14-.46s.09-.3.15-.45a.33.33 0 0 1 0-.13c.11-.32.23-.63.36-.94s.19-.43.29-.64v-.07c.14-.29.29-.58.45-.86l.1-.17c.16-.28.33-.56.51-.83s.18-.28.28-.41a10.46 10.46 0 0 1 .81-1 4.19 4.19 0 0 1 .39-.45c.12-.14.26-.28.39-.42l.35-.35.25-.24.26-.24c.35-.3.71-.6 1.08-.88s.76-.54 1.15-.78l.2-.12.2-.12.37-.21.69-.35c.22-.11.45-.21.68-.3h.08.05.06.08l.43-.17h.12c.23-.09.45-.16.68-.23l.76-.22.46-.11h.09l.26-.05.71-.13zm403.35-352.78h-479.91a16 16 0 0 0 -16 16v290.45a78.43 78.43 0 0 0 74.12 78.22c1.4.07 2.8.11 4.21.11h355.26c1.41 0 2.82 0 4.21-.11a78.44 78.44 0 0 0 74.12-78.22v-290.45a16 16 0 0 0 -16.01-16zm-62.32 352.78h-355.26a46.4 46.4 0 0 1 -43.71-31 45.89 45.89 0 0 1 -2.62-15.34v-274.44h447.91v274.45a45.89 45.89 0 0 1 -2.62 15.34 46.38 46.38 0 0 1 -43.7 30.99zm-341 0 .71.13.26.05h.09l.46.11.76.22c.23.07.46.14.68.23h.12l.51.21.15.07c.23.09.46.19.68.3l.69.35.37.21.2.12.2.12c.25.15.49.31.73.48s.24.16.35.25l.2.15.15.12.24.19.1.07.32.28c.22.18.43.38.64.59a3.85 3.85 0 0 1 .35.35c.1.1.21.21.31.33l.08.09a4.19 4.19 0 0 1 .39.45 10.46 10.46 0 0 1 .81 1c.1.13.19.27.28.41s.35.55.51.83l.1.17c.16.28.31.57.45.86v.07c.1.21.2.43.29.64s.25.62.36.94a.33.33 0 0 1 0 .13c.05.15.11.3.15.45s.1.31.14.46v.06c0 .1.06.2.08.3l.06.26s0 0 0 .07c.05.23.1.46.14.69v.07c0 .19.07.37.1.56a.45.45 0 0 0 0 .11s0 0 0 .07 0 .08 0 .12 0 .3 0 .46a14.39 14.39 0 0 1 .07 1.48v16.18h65.72v-16.04a14.39 14.39 0 0 1 .07-1.48c0-.16 0-.31.05-.46s0-.08 0-.12 0 0 0-.07 0-.08 0-.11 0-.23.05-.34l.06-.35c0-.21.09-.43.13-.64s.1-.42.16-.62v-.06c.05-.15.09-.31.14-.46a4 4 0 0 1 .15-.45.33.33 0 0 1 0-.13c.11-.32.23-.63.36-.94s.19-.43.29-.64v-.07c.14-.29.29-.58.45-.86l.1-.17c.16-.28.33-.56.51-.83s.18-.28.28-.41a10.46 10.46 0 0 1 .81-1 4.19 4.19 0 0 1 .39-.45c.12-.14.26-.28.39-.42l.35-.35.25-.24.26-.24c.35-.3.71-.6 1.08-.88s.76-.54 1.15-.78l.2-.12.2-.12.37-.21.69-.35c.22-.11.45-.21.68-.3h.08.05.06.08l.43-.17h.12c.23-.09.45-.16.68-.23l.76-.22.46-.11h.09l.26-.05.71-.13zm234.24 0 .71.13.26.05h.09l.46.11.76.22c.23.07.46.14.68.23h.12l.51.21.15.07c.23.09.46.19.68.3l.69.35.37.21.2.12.2.12c.25.15.49.31.73.48s.24.16.35.25l.2.15.15.12.24.19.1.07.32.28c.22.18.43.38.64.59a3.85 3.85 0 0 1 .35.35c.1.1.21.21.31.33l.08.09a4.19 4.19 0 0 1 .39.45 10.46 10.46 0 0 1 .81 1c.1.13.19.27.28.41s.35.55.51.83l.1.17c.16.28.31.57.45.86v.07c.1.21.2.43.29.64s.25.62.36.94a.33.33 0 0 1 0 .13c.05.15.11.3.15.45s.1.31.14.46v.06c0 .1.06.2.08.3l.06.26s0 0 0 .07c0 .23.1.46.14.69v.07c0 .19.07.37.1.56a.45.45 0 0 0 0 .11s0 0 0 .07 0 .08 0 .12 0 .3.05.46a14.39 14.39 0 0 1 .07 1.48v16.18h65.63v-16.04a14.39 14.39 0 0 1 .07-1.48c0-.16 0-.31.05-.46s0-.08 0-.12 0 0 0-.07 0-.08 0-.11 0-.23 0-.34l.06-.35c0-.21.09-.43.13-.64s.1-.42.16-.62v-.06c0-.05 0-.11.05-.16s0 0 0-.06v-.12-.12c.05-.13.09-.27.14-.4a.33.33 0 0 1 0-.13c.11-.32.23-.63.36-.94s.19-.43.29-.64.25-.52.38-.76.22-.4.34-.59l.18-.29.19-.29.08-.13a.61.61 0 0 0 .07-.1l.16-.23.07-.11.08-.1.06-.09.06-.06.1-.14c.08-.11.17-.21.26-.32s.2-.25.31-.37a5.66 5.66 0 0 1 .47-.52c.28-.29.57-.58.87-.86s.74-.64 1.14-.94l.6-.43c.2-.14.41-.27.62-.4l.2-.12.2-.12.37-.21.69-.35c.22-.11.45-.21.68-.3l.15-.07h.08l.43-.17h.12c.22-.09.45-.16.68-.23l.76-.22.46-.11h.09l.26-.05.71-.13zm-310.8-282.4h-16v42.79a94 94 0 0 1 29.53 27.66 15.94 15.94 0 0 1 2.47 6.09v-92.54a16 16 0 0 1 -16.03 16zm76.56 282.4.71.13.26.05h.09l.46.11.76.22c.23.07.46.14.68.23h.12l.51.21.15.07c.23.09.46.19.68.3l.69.35.37.21.2.12.2.12c.25.15.49.31.73.48s.24.16.35.25l.2.15.15.12.24.19.1.08.32.28c.22.18.43.38.64.59a3.85 3.85 0 0 1 .35.35c.1.1.21.21.31.33l.08.09a4.19 4.19 0 0 1 .39.45 10.46 10.46 0 0 1 .81 1c.1.13.19.27.28.41s.35.55.51.83l.1.17c.16.28.31.57.45.86v.07c.1.21.2.43.29.64s.25.62.36.94a.33.33 0 0 1 0 .13c.05.15.11.3.15.45s.1.31.14.46v.06c0 .1.06.2.08.3l.06.26s0 0 0 .07c.05.23.1.46.14.69v.07c0 .19.07.37.1.56a.45.45 0 0 0 0 .11s0 0 0 .07 0 .08 0 .12 0 .3 0 .46a14.39 14.39 0 0 1 .07 1.48v16.18h65.72v-16.05a14.39 14.39 0 0 1 .07-1.48c0-.16 0-.31.05-.46s0-.08 0-.12 0 0 0-.07 0-.08 0-.11 0-.23.05-.34l.06-.35c0-.21.09-.43.13-.64s.1-.42.16-.62v-.06c.05-.15.09-.31.14-.46s.09-.3.15-.45a.33.33 0 0 1 0-.13c.11-.32.23-.63.36-.94s.19-.43.29-.64v-.07c.14-.29.29-.58.45-.86l.1-.17c.16-.28.33-.56.51-.83s.18-.28.28-.41a10.46 10.46 0 0 1 .81-1 4.19 4.19 0 0 1 .39-.45c.12-.14.26-.28.39-.42l.35-.35.25-.24.26-.24c.35-.3.71-.6 1.08-.88s.76-.54 1.15-.78l.2-.12.2-.12.37-.21.69-.35c.22-.11.45-.21.68-.3h.08.05.06.08l.43-.17h.12c.23-.09.45-.16.68-.23l.76-.22.46-.11h.09l.26-.05.71-.13zm234.24 0 .71.13.26.05h.09l.46.11.76.22c.23.07.46.14.68.23h.12l.51.21.15.07c.23.09.46.19.68.3l.69.35.37.21.2.12.2.12c.25.15.49.31.73.48s.24.16.35.25l.2.15.15.12.24.19.1.08.32.28c.22.18.43.38.64.59a3.85 3.85 0 0 1 .35.35c.1.1.21.21.31.33l.08.09a4.19 4.19 0 0 1 .39.45 10.46 10.46 0 0 1 .81 1c.1.13.19.27.28.41s.35.55.51.83l.1.17c.16.28.31.57.45.86v.07c.1.21.2.43.29.64s.25.62.36.94a.33.33 0 0 1 0 .13c.05.15.11.3.15.45s.1.31.14.46v.06c0 .1.06.2.08.3l.06.26s0 0 0 .07c0 .23.1.46.14.69v.07c0 .19.07.37.1.56a.45.45 0 0 0 0 .11s0 0 0 .07 0 .08 0 .12 0 .3.05.46a14.39 14.39 0 0 1 .07 1.48v16.18h65.63v-16.05a14.39 14.39 0 0 1 .07-1.48c0-.16 0-.31.05-.46s0-.08 0-.12 0 0 0-.07 0-.08 0-.11 0-.23 0-.34l.06-.35c0-.21.09-.43.13-.64s.1-.42.16-.62v-.06c0-.05 0-.11.05-.16s0 0 0-.06v-.12a.56.56 0 0 0 0-.12.09.09 0 0 0 0 0c.05-.13.09-.27.14-.4a.33.33 0 0 1 0-.13c.11-.32.23-.63.36-.94s.19-.43.29-.64.25-.52.38-.76.22-.4.34-.59l.18-.29.19-.29.08-.13a.61.61 0 0 0 .07-.1l.16-.23.07-.11.08-.1.06-.09.06-.06.1-.14c.08-.11.17-.21.26-.32s.2-.25.31-.37a5.66 5.66 0 0 1 .47-.52c.28-.29.57-.58.87-.86s.74-.64 1.14-.94l.6-.43c.2-.14.41-.27.62-.4l.2-.12.2-.12.37-.21.69-.35c.22-.11.45-.21.68-.3l.15-.07h.08l.43-.17h.12c.22-.09.45-.16.68-.23l.76-.22.46-.11h.09l.26-.05.71-.13z"/><path d="m703.32 734.79a16 16 0 0 1 -16 16h-479.9a16 16 0 1 1 0-32h479.9a16 16 0 0 1 16 16z"/><path d="m463.37 546.16v83.84a16 16 0 0 1 -32 0v-83.84a16 16 0 0 1 32 0z"/><path d="m553.14 491.19a16 16 0 0 1 -16 16h-23.38a16 16 0 0 1 0-32h23.38a16 16 0 0 1 16 16z"/><path d="m475.06 491.19a16 16 0 0 1 -16 16h-23.39a16 16 0 0 1 0-32h23.39a16 16 0 0 1 16 16z"/><path d="m397 491.19a16 16 0 0 1 -16 16h-23.41a16 16 0 0 1 0-32h23.41a16 16 0 0 1 16 16z"/><path d="m565.54 461h-236.1a83.21 83.21 0 0 1 -83.12-83.11v-155.14a16 16 0 0 1 16-16h370.34a16 16 0 0 1 16 16v155.09a83.21 83.21 0 0 1 -83.12 83.16zm-287.22-222.25v139.09a51.17 51.17 0 0 0 51.12 51.16h236.1a51.17 51.17 0 0 0 51.12-51.11v-139.14z"/><path d="m632.66 386.89h-370.34a16 16 0 0 1 0-32h370.34a16 16 0 0 1 0 32z"/><path d="m632.66 312.82h-370.34a16 16 0 0 1 0-32h370.34a16 16 0 0 1 0 32z"/><path d="m336.39 461a16 16 0 0 1 -16-16v-222.25a16 16 0 0 1 32 0v222.25a16 16 0 0 1 -16 16z"/><path d="m484.52 461a16 16 0 0 1 -16-16v-222.25a16 16 0 0 1 32 0v222.25a16 16 0 0 1 -16 16z"/><path d="m410.46 461a16 16 0 0 1 -16-16v-222.25a16 16 0 0 1 32 0v222.25a16 16 0 0 1 -16 16z"/><path d="m558.59 461a16 16 0 0 1 -16-16v-222.25a16 16 0 0 1 32 0v222.25a16 16 0 0 1 -16 16z"/><path d="m632.66 238.75a16 16 0 0 1 -11.32-27.31l74.92-74.92a16 16 0 1 1 22.63 22.63l-74.89 74.92a16 16 0 0 1 -11.34 4.68z"/><path d="m872.93 131.83h-165.35a17.42 17.42 0 0 0 -2.3.16h-.25l-.68.12-.8.19c-.25.06-.49.13-.73.21l-.74.25a15.15 15.15 0 0 0 -1.44.61 14.69 14.69 0 0 0 -1.35.73l-.63.41q-.37.26-.75.54l-.48.38c-.39.33-.77.67-1.14 1a16 16 0 0 0 -4.68 11.32 70.15 70.15 0 0 0 70.1 70.25h111.22a43.07 43.07 0 1 0 0-86.14zm0 54.14h-111.22a38.18 38.18 0 0 1 -34.61-22.14h145.83a11.07 11.07 0 1 1 0 22.14z"/></g></svg>