<svg enable-background="new 0 0 512 512" viewBox="0 0 512 512" xmlns="http://www.w3.org/2000/svg"><g id="Layer_1" display="none"><g display="inline" fill="none" stroke="#6d6e71" stroke-miterlimit="10" stroke-width=".284"><path d="m0 0h512v512h-512z"/><circle cx="256" cy="256" r="256"/><path d="m75 75h362v362h-362z"/><path d="m128 0h256v512h-256z"/><path d="m256 0v512"/><path d="m0 128h512v256h-512z"/><path d="m0 256h512"/><path d="m512 0-512 512"/><path d="m0 0 512 512"/><circle cx="256" cy="256" r="181.3"/><circle cx="256" cy="256" r="128"/><circle cx="256" cy="256" r="64"/></g></g><g id="Layer_2"><g><g><g><path d="m353.7 168.7c10.1-6.8 22.2-13.4 35.6-19.3 42.5-18.5 95.7-21.2 88.3-7.2-21.3 40-53.7 62-91.2 68.4" fill="#e38a47"/><path d="m386.4 218.9c-3.9 0-7.4-2.8-8.1-6.8-.8-4.5 2.2-8.7 6.7-9.5 35.5-6.1 64.2-26.9 83.3-60.4-11.2-1.9-44.1 1.1-75.7 14.8-12.5 5.4-24.3 11.8-34.2 18.5-3.8 2.5-8.9 1.6-11.4-2.2s-1.6-8.9 2.2-11.4c10.7-7.3 23.5-14.2 36.9-20 31.1-13.5 84.4-24.2 97.3-10.2 3.7 4 4.3 9.4 1.6 14.4-21.5 40.4-55 65.5-97.1 72.7-.6.1-1.1.1-1.5.1z" fill="#231f20"/></g><g><path d="m125.6 210.7c-37.5-6.4-69.9-28.4-91.2-68.4-7.4-13.9 45.8-11.2 88.3 7.2 13.4 5.8 25.5 12.5 35.6 19.3" fill="#e38a47"/><path d="m125.6 218.9c-.5 0-.9 0-1.4-.1-42.1-7.2-75.6-32.3-97.1-72.7-2.7-5.1-2.1-10.4 1.6-14.4 12.9-14 66.3-3.3 97.3 10.2 13.4 5.8 26.1 12.7 36.9 20 3.8 2.5 4.8 7.7 2.2 11.4s-7.7 4.8-11.4 2.2c-9.9-6.7-21.8-13.1-34.2-18.5-31.6-13.7-64.5-16.7-75.7-14.8 19 33.5 47.7 54.3 83.3 60.4 4.5.8 7.5 5 6.7 9.5-.8 4-4.2 6.8-8.2 6.8z" fill="#231f20"/></g></g><g><path d="m402.9 278.4c0 38.3-32.7 111-67.3 177.1-33.6 64.3-125.6 64.3-159.3 0-34.6-66.1-67.3-138.8-67.3-177.1 0-81.1 65.8-146.9 146.9-146.9s147 65.8 147 146.9z" fill="#ffc211"/><path d="m256 512c-17.5 0-34.5-4.6-49.4-13.2-15.8-9.2-28.8-22.8-37.5-39.5-45.3-86.6-68.2-147.4-68.2-180.9 0-85.5 69.6-155.1 155.1-155.1s155.1 69.6 155.1 155.1c0 33.5-22.9 94.3-68.2 180.9-8.7 16.7-21.7 30.3-37.5 39.5-14.9 8.6-31.9 13.2-49.4 13.2zm0-372.3c-76.5 0-138.7 62.2-138.7 138.7 0 30.3 22.9 90.3 66.3 173.3 14.4 27.5 41.4 43.8 72.3 43.8s58-16.4 72.3-43.8c43.4-83 66.3-142.9 66.3-173.3.2-76.4-62-138.7-138.5-138.7z" fill="#231f20"/></g><g><g><path d="m258.7 408.8h-5.5c-5.3 0-9.7-4.3-9.7-9.7 0-1.6 1.3-2.9 2.9-2.9h19c1.6 0 2.9 1.3 2.9 2.9.1 5.3-4.3 9.7-9.6 9.7z" fill="#f97c82"/><path d="m258.7 417h-5.5c-9.9 0-17.9-8-17.9-17.9 0-6.1 5-11.1 11.1-11.1h19c6.1 0 11.1 5 11.1 11.1.1 9.9-7.9 17.9-17.8 17.9z" fill="#231f20"/></g><g><g><path d="m289.4 453.2c-28.5 0-39.7-23.9-41.6-36.5-.7-4.5 2.4-8.7 6.9-9.4s8.7 2.4 9.4 6.9c.4 2.3 4.3 22.6 25.3 22.6 4.5 0 8.2 3.7 8.2 8.2.1 4.5-3.6 8.2-8.2 8.2z" fill="#231f20"/></g><g><path d="m222.6 453.2c-4.5 0-8.2-3.7-8.2-8.2s3.7-8.2 8.2-8.2c21.1 0 25-17.6 25.3-19.6.8-4.5 5-7.5 9.5-6.7s7.5 5 6.7 9.5c-1.9 11.4-13.1 33.2-41.5 33.2z" fill="#231f20"/></g></g></g><g><g><g><circle cx="333.6" cy="277.9" fill="#ffc211" r="13.9"/><path d="m333.6 300c-12.2 0-22.1-9.9-22.1-22.1s9.9-22.1 22.1-22.1 22.1 9.9 22.1 22.1c.1 12.2-9.9 22.1-22.1 22.1zm0-27.8c-3.1 0-5.7 2.5-5.7 5.7 0 3.1 2.5 5.7 5.7 5.7 3.1 0 5.7-2.5 5.7-5.7 0-3.1-2.6-5.7-5.7-5.7z" fill="#231f20"/></g></g><g><g><circle cx="178.4" cy="277.9" fill="#ffc211" r="13.9"/><path d="m178.4 300c-12.2 0-22.1-9.9-22.1-22.1s9.9-22.1 22.1-22.1 22.1 9.9 22.1 22.1-9.9 22.1-22.1 22.1zm0-27.8c-3.1 0-5.7 2.5-5.7 5.7 0 3.1 2.5 5.7 5.7 5.7 3.1 0 5.7-2.5 5.7-5.7 0-3.1-2.6-5.7-5.7-5.7z" fill="#231f20"/></g></g></g><g><g><g><g><path d="m223.4 139.7c-4.5 0-8.2-3.7-8.2-8.2 0-42-34.2-44.5-89.9-45.1-28.1-.3-57.1-.6-79.9-10.1-27.4-11.3-40.7-33.6-40.7-68.1 0-4.5 3.7-8.2 8.2-8.2s8.2 3.7 8.2 8.2c0 56.5 39.4 61 104.3 61.7 26.2.3 51 .6 70.6 7.8 23.6 8.7 35.6 26.8 35.6 53.8 0 4.6-3.7 8.2-8.2 8.2z" fill="#231f20"/></g><g><path d="m107.3 86.1c-4.5 0-8.2-3.7-8.2-8.2v-69.7c0-4.5 3.7-8.2 8.2-8.2s8.2 3.7 8.2 8.2v69.7c0 4.5-3.7 8.2-8.2 8.2z" fill="#231f20"/></g></g></g><g><g><g><path d="m288.6 139.7c-4.5 0-8.2-3.7-8.2-8.2 0-27 12-45.1 35.6-53.8 19.6-7.2 44.4-7.5 70.6-7.8 64.9-.7 104.3-5.2 104.3-61.7 0-4.5 3.7-8.2 8.2-8.2s8.2 3.7 8.2 8.2c0 34.5-13.3 56.7-40.7 68.1-22.7 9.4-51.8 9.8-79.9 10.1-55.7.6-89.9 3.1-89.9 45.1 0 4.6-3.6 8.2-8.2 8.2z" fill="#231f20"/></g><g><path d="m404.7 86.1c-4.5 0-8.2-3.7-8.2-8.2v-69.7c0-4.5 3.7-8.2 8.2-8.2s8.2 3.7 8.2 8.2v69.7c0 4.5-3.6 8.2-8.2 8.2z" fill="#231f20"/></g></g></g></g></g></g></svg>