<svg id="Layer_1-2" viewBox="0 0 64 64" xmlns="http://www.w3.org/2000/svg"><g id="Delivery_Truck"><path d="m63 33v17h-62v-40h45c4.41998291 0 8 3.58001709 8 8h.52001953c.88000488 0 1.65997314.57000732 1.90997314 1.40997314l3.57000732 11.59002686 3 2z" fill="#7dc1ff"/><path d="m1 10h36v34h-36z" fill="#e6f0ff"/><path d="m1 36h36v8h-36z" fill="#d4e6ff"/><path d="m60 31h-13.95049925c-.02733851 0-.04950075-.02216224-.04950075-.04950075v-12.95049925h8.52285069c.87800971 0 1.65334779.57264505 1.91155802 1.4118283z" fill="#657482"/><path d="m1 44h62v6h-62z" fill="#536170"/><circle cx="14" cy="47" fill="#748793" r="7"/><circle cx="14" cy="47" fill="#657482" r="3"/><circle cx="50" cy="47" fill="#748793" r="7"/><circle cx="50" cy="47" fill="#657482" r="3"/><path d="m37 10h9.000008c4.41531578 0 7.999992 3.58467622 7.999992 7.999992v.000008h-17z" fill="#66a8ff"/><path d="m59 35h4v5h-4z" fill="#ffd278"/><path d="m1 26h6v10h-6z" fill="#ffd278"/><path d="m1 31h6v5h-6z" fill="#f9bd5f"/><g fill="#292930"><path d="m63.5546875 32.16796875-2.70361328-1.80224609-3.4609375-11.24853516c-.34735107-1.12878418-1.30212402-1.92321777-2.44396973-2.08331299-.48388672-4.50946045-4.31036377-8.03387451-8.94616699-8.03387451h-45c-.55224609 0-1 .44775391-1 1v40c0 .55224609.44775391 1 1 1h6.0824585c1.38586426 2.38708496 3.9642334 4 6.9175415 4s5.53167725-1.61291504 6.9175415-4h22.16491699c1.38586426 2.38708496 3.9642334 4 6.9175415 4s5.53167725-1.61291504 6.9175415-4h6.0824585c.55224609 0 1-.44775391 1-1v-17c0-.33447266-.16699219-.64648438-.4453125-.83203125zm-1.5546875 6.83203125h-2v-3h2zm0-5h-3c-.55224609 0-1 .44775391-1 1v5c0 .55224609.44775391 1 1 1h3v2h-5.0824585c-1.38586426-2.38708496-3.9642334-4-6.9175415-4s-5.53167725 1.61291504-6.9175415 4h-5.0824585v-24h7v12c0 .55224609.44775391 1 1 1h13.69726562l2.30273438 1.53515625zm-41.0824585 9c-1.38586426-2.38708496-3.9642334-4-6.9175415-4s-5.53167725 1.61291504-6.9175415 4h-5.0824585v-6h34v6zm-18.9175415-11h4v3h-4zm4-2h-4v-3h4zm49.47900391-10.29443359 3.16699219 10.29443359h-11.64599609v-11h7.52294922c.44189453 0 .82568359.28369141.95605469.70556641zm-2.55029297-2.70556641h-14.92871094v-6h8c3.52050781 0 6.44189453 2.61230469 6.92871094 6zm-16.92871094-6v24h-28v-9c0-.55224609-.44775391-1-1-1h-5v-14zm-34 38v-4h4.26330566c-.16583252.64056396-.26330566 1.30834961-.26330566 2s.09747314 1.35943604.26330566 2zm12 4c-3.30859375 0-6-2.69140625-6-6s2.69140625-6 6-6 6 2.69140625 6 6-2.69140625 6-6 6zm7.73669434-4c.16583252-.64056396.26330566-1.30834961.26330566-2s-.09747314-1.35943604-.26330566-2h20.52661133c-.16583252.64056396-.26330566 1.30834961-.26330566 2s.09747314 1.35943604.26330566 2zm28.26330566 4c-3.30859375 0-6-2.69140625-6-6s2.69140625-6 6-6 6 2.69140625 6 6-2.69140625 6-6 6zm12-4h-4.26330566c.16583252-.64056396.26330566-1.30834961.26330566-2s-.09747314-1.35943604-.26330566-2h4.26330566z"/><path d="m14 43c-2.20556641 0-4 1.79443359-4 4s1.79443359 4 4 4 4-1.79443359 4-4-1.79443359-4-4-4zm0 6c-1.10302734 0-2-.89697266-2-2s.89697266-2 2-2 2 .89697266 2 2-.89697266 2-2 2z"/><path d="m50 43c-2.20556641 0-4 1.79443359-4 4s1.79443359 4 4 4 4-1.79443359 4-4-1.79443359-4-4-4zm0 6c-1.10302734 0-2-.89697266-2-2s.89697266-2 2-2 2 .89697266 2 2-.89697266 2-2 2z"/></g></g></svg>