<svg height="512" viewBox="0 0 64 64" width="512" xmlns="http://www.w3.org/2000/svg"><g id="Truck"><path d="m5 38v-25a2 2 0 0 1 2-2h30a2 2 0 0 1 2 2v25z" fill="#ffdf57"/><path d="m1 38h38v10h-38z" fill="#d7dfff"/><path d="m22 19-4.998 2.999-.002-10.999h10v11z" fill="#efc43a"/><path d="m39 48v-25h17l7 10v15z" fill="#ebeeff"/><path d="m46 33v-10h9.491l7.509 10z" fill="#609aef"/><path d="m58 38h5v5h-5z" fill="#609aef"/><circle cx="50" cy="48" fill="#54555b" r="5"/><circle cx="12" cy="48" fill="#54555b" r="5"/><circle cx="50" cy="48" fill="#3b3d44" r="2"/><circle cx="12" cy="48" fill="#3b3d44" r="2"/><g fill="#352d34"><path d="m63.819 32.427-7-10a1 1 0 0 0 -.819-.427h-16v-9a3 3 0 0 0 -3-3h-30a3 3 0 0 0 -3 3v24h-3a1 1 0 0 0 -1 1v10a1 1 0 0 0 1 1h5.09a5.993 5.993 0 0 0 11.82 0h26.18a5.993 5.993 0 0 0 11.82 0h7.09a1 1 0 0 0 1-1v-15a1.18 1.18 0 0 0 -.181-.573zm-45.819-20.427h8v8.234l-3.485-2.091a1 1 0 0 0 -1.03 0l-3.485 2.091zm-6 40a4 4 0 1 1 4-4 4 4 0 0 1 -4 4zm26-5h-20.09a5.993 5.993 0 0 0 -11.82 0h-4.09v-8h36zm0-10h-32v-24a1 1 0 0 1 1-1h9v10a1 1 0 0 0 1.515.857l4.485-2.691 4.485 2.691a1 1 0 0 0 1.515-.857v-10h9a1 1 0 0 1 1 1zm9-13h8.479l5.6 8h-14.079zm3 28a4 4 0 1 1 4-4 4 4 0 0 1 -4 4zm12-10h-3v-3h3zm0-5h-4a1 1 0 0 0 -1 1v5a1 1 0 0 0 1 1h4v3h-6.09a5.993 5.993 0 0 0 -11.82 0h-4.09v-23h5v9a1 1 0 0 0 1 1h16z"/><path d="m50 45a3 3 0 1 0 3 3 3 3 0 0 0 -3-3zm0 4a1 1 0 1 1 1-1 1 1 0 0 1 -1 1z"/><path d="m12 45a3 3 0 1 0 3 3 3 3 0 0 0 -3-3zm0 4a1 1 0 1 1 1-1 1 1 0 0 1 -1 1z"/><path d="m19 29h-10a1 1 0 0 0 0 2h10a1 1 0 0 0 0-2z"/><path d="m14 33h-5a1 1 0 0 0 0 2h5a1 1 0 0 0 0-2z"/><path d="m45 37a1 1 0 0 0 1 1h2a1 1 0 0 0 0-2h-2a1 1 0 0 0 -1 1z"/></g></g></svg>