<svg height="512" viewBox="0 0 128 128" width="512" xmlns="http://www.w3.org/2000/svg"><g><g><path d="m36.031 100.06h45.26a6.243 6.243 0 0 1 6.243 6.243v2.697a0 0 0 0 1 0 0h-57.746a0 0 0 0 1 0 0v-2.7a6.243 6.243 0 0 1 6.243-6.24z" fill="#009d8f"/><path d="m54.21 92.5v7.559h-11.888v-7.559a5.817 5.817 0 0 1 .054-.754 5.923 5.923 0 0 1 5.524-5.18 2.05 2.05 0 0 1 .366-.022 5.951 5.951 0 0 1 5.944 5.956z" fill="#f1b152"/><g fill="#f26e53"><path d="m47.9 86.569a5.923 5.923 0 0 0 -5.524 5.18l-15.787-20.934a6.272 6.272 0 0 0 1.562.185 7.186 7.186 0 0 0 5.793-2.919z"/><path d="m67.434 36.043-32.424 25.446a7.216 7.216 0 0 0 -5.987-4.889l34.039-26.695a5.685 5.685 0 0 0 .862 1.551z"/></g><path d="m103.152 35.041 1.665 2.177-32.9 25.165-1.666-2.178a17.219 17.219 0 0 1 -.176-20.7 16.754 16.754 0 0 1 3.394-3.459l5.518-4.221a16.749 16.749 0 0 1 4.227-2.37 17.22 17.22 0 0 1 19.938 5.586z" fill="#009d8f"/><path d="m83.221 29.453a16.644 16.644 0 0 0 -4.232 2.369l-5.514 4.221a16.915 16.915 0 0 0 -3.4 3.457l-2.639-3.457-3.51-4.587a5.685 5.685 0 0 1 -.862-1.551 6.362 6.362 0 0 1 2.046-7.366l3.037-2.315a6.353 6.353 0 0 1 8.916 1.185z" fill="#f1b152"/><path d="m95.747 44.157a9.29 9.29 0 0 1 -14.758 11.288z" fill="#f5c464"/><path d="m35.376 63.772a7.242 7.242 0 0 1 -7.225 7.228 6.272 6.272 0 0 1 -1.562-.183 7.219 7.219 0 0 1 1.562-14.269 7.988 7.988 0 0 1 .872.054 7.216 7.216 0 0 1 5.987 4.889 7.292 7.292 0 0 1 .366 2.281z" fill="#f1b152"/><path d="m65.297 93.305h8.067v6.755h-8.067z" fill="#008f7e"/></g><g fill="#250a66"><path d="m42.826 47.6a1.733 1.733 0 0 0 1.078-.373l.664-.52a1.75 1.75 0 0 0 -2.158-2.755l-.664.521a1.75 1.75 0 0 0 1.08 3.127z"/><path d="m106.3 36.155-1.665-2.178a19.217 19.217 0 0 0 -2.137-2.358 1.75 1.75 0 1 0 -2.389 2.558 15.744 15.744 0 0 1 1.746 1.927l.6.788-15.055 11.519-7.38 5.644-7.68 5.875-.6-.787a15.53 15.53 0 0 1 -.159-18.6.354.354 0 0 0 .019-.033 15.2 15.2 0 0 1 3.037-3.078l5.512-4.221a14.942 14.942 0 0 1 3.788-2.122l.019-.01a15.452 15.452 0 0 1 7.513-.935 1.75 1.75 0 0 0 .429-3.474 19.029 19.029 0 0 0 -7.958.714l-5.39-7.039a8.1 8.1 0 0 0 -11.37-1.512l-3.04 2.316a8.138 8.138 0 0 0 -3 8.113l-12.04 9.445a1.75 1.75 0 1 0 2.16 2.753l11.38-8.926 2.447 3.2-29.38 23.059a9.014 9.014 0 0 0 -2.992-2.793l3.828-3a1.75 1.75 0 0 0 -2.16-2.754l-5.825 4.568c-.1 0-.208-.019-.312-.019a8.969 8.969 0 0 0 -2.594 17.557l15.03 19.931c0 .073-.015.144-.015.218v5.809h-4.541a8 8 0 0 0 -7.993 7.993v2.697a1.75 1.75 0 0 0 1.75 1.75h57.746a1.75 1.75 0 0 0 1.75-1.75v-2.7a8 8 0 0 0 -7.992-7.993h-6.178v-5a1.749 1.749 0 0 0 -1.75-1.75h-8.067a1.749 1.749 0 0 0 -1.75 1.75v5h-7.586v-5.807a7.706 7.706 0 0 0 -7.187-7.679l-12.705-16.831a8.865 8.865 0 0 0 1.058-4.218 9.08 9.08 0 0 0 -.149-1.6l30.14-23.654.8 1.05a19.054 19.054 0 0 0 .942 21.7l1.666 2.177a1.75 1.75 0 0 0 2.453.327l7.8-5.97a11.022 11.022 0 0 0 17.299-13.226l7.8-5.968a1.749 1.749 0 0 0 .327-2.453zm-83.531 27.617a5.484 5.484 0 0 1 5.477-5.472 6.248 6.248 0 0 1 .666.042 5.466 5.466 0 0 1 4.53 3.7 5.555 5.555 0 0 1 .28 1.738 5.387 5.387 0 0 1 -1.083 3.258l-.005.008a5.469 5.469 0 0 1 -4.385 2.207 4.7 4.7 0 0 1 -1.192-.143 5.477 5.477 0 0 1 -4.288-5.338zm11.1 6.989 11.17 14.8a7.664 7.664 0 0 0 -3.054 2.64l-11.81-15.665a9 9 0 0 0 3.696-1.775zm52.01 35.539v.947h-54.246v-.947a4.5 4.5 0 0 1 4.493-4.493h6.267.024 11.889.024 27.057a4.5 4.5 0 0 1 4.492 4.493zm-18.737-11.245h4.567v3.255h-4.567zm-14.586-2.555v5.81h-8.389v-5.81a4.248 4.248 0 0 1 3.927-4.186.775.775 0 0 0 .159-.018h.108a4.205 4.205 0 0 1 4.195 4.204zm13.708-68.569 3.043-2.319a4.556 4.556 0 0 1 2.793-.952 4.683 4.683 0 0 1 .612.041 4.574 4.574 0 0 1 3.059 1.772l4.825 6.3a19.023 19.023 0 0 0 -2.572 1.659l-5.512 4.221a19.024 19.024 0 0 0 -2.282 2.047l-1.3-1.7-.011-.017-3.52-4.6a4.022 4.022 0 0 1 -.613-1.116 4.617 4.617 0 0 1 1.478-5.336zm29.088 22.8a7.541 7.541 0 0 1 -11.652 8.916l5.826-4.456z"/></g></g></svg>