<svg id="Layer_1" viewBox="0 0 512 512" xmlns="http://www.w3.org/2000/svg" data-name="Layer 1"><circle cx="326.66" cy="175.87" fill="#fee570" r="64.41" transform="matrix(.707 -.707 .707 .707 -28.68 282.49)"/><path d="m193.32 42.49h45.42v95.73h-45.42z" fill="#343b41" transform="matrix(.614 -.79 .79 .614 12.1 205.46)"/><path d="m86.49 198.97h45.42v253.22h-45.42z" fill="#343b41" transform="matrix(.841 -.541 .541 .841 -158.68 110.71)"/><path d="m70.31 418.78h178.11a38.72 38.72 0 0 1 38.58 38.61v33.61a5 5 0 0 1 -5 5h-245.3a5 5 0 0 1 -5-5v-33.61a38.72 38.72 0 0 1 38.61-38.61z" fill="#ecba78" fill-rule="evenodd"/><path d="m-9.04 122.93h253.22v45.42h-253.22z" fill="#343b41" transform="matrix(.559 -.829 .829 .559 -68.92 161.58)"/><path d="m56.39 280.77a45 45 0 1 0 -45-45 45.07 45.07 0 0 0 45 45z" fill="#ffe177" fill-rule="evenodd"/><circle cx="168.15" cy="413.27" fill="#ffe177" r="44.98" transform="matrix(.997 -.082 .082 .997 -33.51 15.28)"/><circle cx="168.15" cy="413.27" fill="#f4f4f4" r="22.89" transform="matrix(.383 -.924 .924 .383 -278.01 410.47)"/><path d="m56.39 258.68a22.89 22.89 0 1 0 -22.89-22.89 22.94 22.94 0 0 0 22.89 22.89z" fill="#f4f4f4" fill-rule="evenodd"/><circle cx="178.24" cy="60.98" fill="#ffe177" r="44.98" transform="matrix(.999 -.036 .036 .999 -2.06 6.39)"/><circle cx="178.24" cy="60.98" fill="#f4f4f4" r="22.89" transform="matrix(.707 -.707 .707 .707 9.09 143.9)"/><g fill-rule="evenodd"><path d="m246.51 106.71a105.88 105.88 0 0 1 145.26-14.32 5 5 0 0 1 .7 7.21l-131.62 152.54a5 5 0 0 1 -7.24.35 105.87 105.87 0 0 1 -7.1-145.78z" fill="#484e53"/><path d="m379 328.56a8 8 0 0 1 -7.16 8.77 7.32 7.32 0 0 1 -.81 0 8 8 0 0 1 -8-7.2l-4.56-45.28a8 8 0 0 1 15.92-1.6zm118.46-145-45.27 4.57c-.27 0-.54 0-.81 0a8 8 0 0 1 -.8-16l45.28-4.56a8 8 0 1 1 1.6 15.92zm-36 89.62a8 8 0 0 1 -11.26 1.13l-35.2-28.8a8 8 0 0 1 10.13-12.39l35.24 28.79a8 8 0 0 1 1.13 11.26zm-200.59-28.69a97.86 97.86 0 0 1 127.44-147.69zm126-72.76a56 56 0 0 0 -13.72-32.91l-73 84.55a56.41 56.41 0 0 0 86.69-51.64zm-173.51-67.91 18.92 14.7a113 113 0 0 1 12.17-17q2.81-3.26 5.81-6.25l-18.82-14.67a53.32 53.32 0 0 1 -18.08 23.22zm-31.13-5.82a37 37 0 1 1 37-37 37 37 0 0 1 -37 37zm-81 104.09 61.89-91.68a53.35 53.35 0 0 1 -23.43-17.87l-62.75 93a53.34 53.34 0 0 1 24.29 16.6zm53.62 161.11a53.15 53.15 0 0 0 -24.06 17l-59.48-92.57a52.8 52.8 0 0 0 26-13.93l57.52 89.5zm17.29 13.09a37 37 0 1 0 37 37 37 37 0 0 0 -37-37zm51.23 50.49h29a30.65 30.65 0 0 1 30.63 30.61v30.61h-239.31v-30.61a30.64 30.64 0 0 1 30.61-30.61h46.6a53 53 0 0 0 102.47 0zm-200-191a37 37 0 1 1 37 37 37 37 0 0 1 -37-37zm381.63-146.12a114.06 114.06 0 0 0 -142.43-5.09l-27.41-21.34c0-.75.06-1.49.06-2.25a53 53 0 1 0 -103.77 15.11l-72.06 106.74a53 53 0 0 0 -6.73 105.38l69.34 107.92a52.69 52.69 0 0 0 -2.8 14.65h-44.9a46.66 46.66 0 0 0 -46.61 46.61v38.61a8 8 0 0 0 8 8h255.31a8 8 0 0 0 8-8v-38.61a46.66 46.66 0 0 0 -46.61-46.61h-27.33a53 53 0 0 0 -52.92-50.49h-.14l-64.49-100.35a52.87 52.87 0 0 0 2.59-42.45l69.9-103.58c.73 0 1.46.06 2.2.06a52.9 52.9 0 0 0 15.24-2.24l27.61 21.46a114.08 114.08 0 0 0 31.18 128.88 8 8 0 0 0 5.23 1.94 5.62 5.62 0 0 0 .58 0 8 8 0 0 0 5.48-2.75l22.14-25.67a71.68 71.68 0 0 0 40.85 12.71c1.8 0 3.61-.06 5.42-.19a72.51 72.51 0 0 0 66.9-77.54 71.78 71.78 0 0 0 -19.14-43.93l22.18-25.64a8 8 0 0 0 -.87-11.34zm-222.77-13.79a14.89 14.89 0 1 0 -14.88-14.87 14.91 14.91 0 0 0 14.88 14.89zm0-45.77a30.89 30.89 0 1 0 30.89 30.9 30.91 30.91 0 0 0 -30.89-30.9zm-121.86 220.58a14.89 14.89 0 1 0 -14.88-14.89 14.91 14.91 0 0 0 14.88 14.89zm0-45.78a30.89 30.89 0 1 0 30.89 30.89 30.92 30.92 0 0 0 -30.89-30.89zm111.77 193.48a14.89 14.89 0 1 1 -14.89 14.89 14.91 14.91 0 0 1 14.89-14.89zm0 45.78a30.89 30.89 0 1 1 30.86-30.89 30.93 30.93 0 0 1 -30.86 30.89z" fill="#242222"/></g></svg>