<svg id="Layer_1" viewBox="0 0 1000 1000" xmlns="http://www.w3.org/2000/svg" data-name="Layer 1"><g fill="#64b5f6"><path d="m867.09 363.03-310.62 395.57 158.64-395.57z"/><path d="m443.53 758.6-310.62-395.57h151.98z"/><path d="m484 363.03v410.52l-164.64-410.52z"/><path d="m680.64 363.03-164.64 410.52v-410.52z"/></g><path d="m871.76 331h-157.08l-76.45-171.43h122.42a14.85 14.85 0 0 1 12.68 7.19z" fill="#90caf9"/><path d="m679.64 331.03h-163.64v-171.46h87.19z" fill="#90caf9"/><path d="m484 159.57v171.46h-163.64l76.45-171.46z" fill="#90caf9"/><path d="m361.77 159.57-76.45 171.43h-157.08l98.43-164.27a14.85 14.85 0 0 1 12.68-7.19z" fill="#90caf9"/><g fill="#fff" opacity=".5"><path d="m857.09 373.03-310.62 395.57 158.64-395.57z"/><path d="m433.53 768.6-310.62-395.57h151.98z"/><path d="m474 373.03v410.52l-164.64-410.52z"/><path d="m670.64 373.03-164.64 410.52v-410.52z"/><path d="m861.76 341h-157.08l-76.45-171.43h122.42a14.85 14.85 0 0 1 12.68 7.19z"/><path d="m669.64 341.03h-163.64v-171.46h87.19z"/><path d="m474 169.57v171.46h-163.64l76.45-171.46z"/><path d="m351.77 169.57-76.45 171.43h-157.08l98.43-164.27a14.85 14.85 0 0 1 12.68-7.19z"/></g><path d="m916 346c0-.3 0-.6-.08-.9 0-.12 0-.25 0-.37s-.08-.48-.13-.72a2.21 2.21 0 0 0 -.05-.25c0-.23-.1-.46-.16-.68-.11-.44-.24-.88-.39-1.31s-.24-.65-.38-1-.25-.58-.4-.86a5.84 5.84 0 0 0 -.35-.65 2.64 2.64 0 0 0 -.15-.29l-.09-.15a16 16 0 0 0 -13.82-7.82h-800a16 16 0 0 0 -13.73 7.78l-.09.15a2.64 2.64 0 0 0 -.15.29 5.84 5.84 0 0 0 -.35.65c-.15.28-.28.57-.4.86s-.26.64-.38 1-.28.87-.39 1.31c-.06.22-.12.45-.16.68a2.21 2.21 0 0 0 0 .25c0 .24-.09.48-.13.72s0 .25 0 .37c0 .3-.06.6-.08.9s0 .7 0 1.06 0 .64 0 1v.11c0 .3 0 .6.09.9s.07.52.12.78.06.34.1.51a15 15 0 0 0 .86 2.82 6.21 6.21 0 0 0 .26.59c.12.28.26.55.4.82a1.62 1.62 0 0 0 .1.18l.06.11c.08.14.16.29.25.43a12.47 12.47 0 0 0 1 1.53l.11.15 399.51 508.87c.13.18.26.35.4.52l.57.68.31.33a15.47 15.47 0 0 0 2.76 2.34l.11.07a15.39 15.39 0 0 0 3 1.56l.38.14a9.69 9.69 0 0 0 1.08.34l.44.11h.09l.65.14.35.07h.31a15.14 15.14 0 0 0 1.51.15h.91s.61 0 .91 0a15.14 15.14 0 0 0 1.51-.15h.31l.35-.07.65-.14h.09l.44-.11a9.69 9.69 0 0 0 1.08-.34l.38-.14a15.39 15.39 0 0 0 3-1.56l.11-.07a15.47 15.47 0 0 0 2.76-2.34l.54-.35.57-.68c.14-.17.27-.34.4-.52l399.61-508.89.11-.15a12.47 12.47 0 0 0 1-1.53c.09-.14.17-.29.25-.43l.06-.11a1.62 1.62 0 0 0 .1-.18 8.86 8.86 0 0 0 .4-.82 6.21 6.21 0 0 0 .26-.59 15 15 0 0 0 .86-2.82c0-.17.07-.34.1-.51s.09-.52.12-.78.06-.6.09-.9v-.09q0-.48 0-1c.07-.34.07-.69.07-1zm-359.53 412.6-40.47 51.54-16 20.38-16-20.38-40.47-51.54-310.62-395.6h734.18z" fill="#413b32"/><path d="m320.36 331-7.28 16.33 6.28 15.67h164.64v-32zm595.64 15c0-.3 0-.6-.08-.9 0-.12 0-.25 0-.37s-.08-.48-.13-.72a2.21 2.21 0 0 0 -.05-.25c0-.23-.1-.46-.16-.68-.11-.44-.24-.88-.39-1.31s-.24-.65-.38-1-.25-.58-.4-.86a5.84 5.84 0 0 0 -.35-.65 2.64 2.64 0 0 0 -.15-.29l-.09-.15-113-188.5a47 47 0 0 0 -40.13-22.74h-521.34a47 47 0 0 0 -40.13 22.74l-112.95 188.49-.09.15a2.64 2.64 0 0 0 -.15.29 5.84 5.84 0 0 0 -.35.65c-.15.28-.28.57-.4.86s-.26.64-.38 1-.28.87-.39 1.31c-.06.22-.12.45-.16.68a2.21 2.21 0 0 0 0 .25c0 .24-.09.48-.13.72s0 .25 0 .37c0 .3-.06.6-.08.9s0 .7 0 1.06 0 .64 0 1v.11c0 .3 0 .6.09.9s.07.52.12.78.06.34.1.51a15 15 0 0 0 .86 2.82 6.21 6.21 0 0 0 .26.59c.12.28.26.55.4.82a1.62 1.62 0 0 0 .1.18l.06.11.06.12a3.21 3.21 0 0 0 .19.31 12.47 12.47 0 0 0 1 1.53 16 16 0 0 0 12.62 6.17h800a16 16 0 0 0 12.69-6.27 12.47 12.47 0 0 0 1-1.53 3.21 3.21 0 0 0 .19-.31l.06-.12.06-.11a1.62 1.62 0 0 0 .1-.18 8.86 8.86 0 0 0 .4-.82 6.21 6.21 0 0 0 .26-.59 15 15 0 0 0 .86-2.82c0-.17.07-.34.1-.51s.09-.52.12-.78.06-.6.09-.9v-.06q0-.48 0-1c.07-.34.07-.69.07-1zm-787.76-15 98.43-164.27a14.85 14.85 0 0 1 12.68-7.19h521.3a14.85 14.85 0 0 1 12.68 7.19l98.43 164.27zm192.12 0-7.28 16.33 6.28 15.67h164.64v-32z" fill="#413b32"/><path d="m719.14 353-4 10-158.67 395.6-41.47 103.33a15.47 15.47 0 0 1 -1.25 2.63c-.1.17-.2.34-.31.51s-.34.51-.51.75-.26.35-.4.52l-.53.66a2.09 2.09 0 0 1 -.14.17l-.09.09a15.47 15.47 0 0 1 -2.76 2.34l-.11.07a15.39 15.39 0 0 1 -3 1.56l-.38.14a9.69 9.69 0 0 1 -1.08.34h-.09l-.35.08h-.09l-.65.14-.35.07h-.31a15.14 15.14 0 0 1 -1.51.15c-.3 0-.6 0-.91 0s-.61 0-.91 0a15.14 15.14 0 0 1 -1.51-.15h-.31l-.35-.07-.65-.14h-.09l-.35-.08h-.09a9.69 9.69 0 0 1 -1.08-.34l-.38-.14a15.39 15.39 0 0 1 -3-1.56l-.11-.07a15.47 15.47 0 0 1 -2.76-2.34l-.09-.09a2.09 2.09 0 0 1 -.5-.17l-.57-.68c-.14-.17-.27-.34-.4-.52s-.35-.49-.51-.75-.21-.34-.31-.51a15.47 15.47 0 0 1 -1.25-2.63l-41.43-103.31-158.64-395.6-4-10a16 16 0 0 1 .23-12.47l4.23-9.48 76.45-171.46 10-22.52a16 16 0 0 1 14.06-9.48h1a16 16 0 0 1 14.14 22.49l-4.23 9.49-76.41 171.43-7.28 16.33 6.28 15.67 164.64 410.55 16 39.9 16-39.9 164.64-410.55 6.28-15.67-7.28-16.33-76.45-171.43-4.19-9.49a16 16 0 0 1 14.19-22.51h1a16 16 0 0 1 14.06 9.48l10 22.52 76.43 171.43 4.23 9.48a16 16 0 0 1 .23 12.52z" fill="#413b32"/><path d="m516 143.57v712.86a15.91 15.91 0 0 1 -1 5.5 15.47 15.47 0 0 1 -1.25 2.63c-.1.17-.2.34-.31.51s-.34.51-.51.75-.26.35-.4.52l-.53.66a2.09 2.09 0 0 1 -.14.17l-.09.09h-.05a15.47 15.47 0 0 1 -2.76 2.34l-.11.07a15.39 15.39 0 0 1 -3 1.56l-.38.14a9.69 9.69 0 0 1 -1.08.34h-.09l-.44.11-.65.14-.35.07h-.31a15.14 15.14 0 0 1 -1.51.15c-.3 0-.6 0-.91 0s-.61 0-.91 0a15.14 15.14 0 0 1 -1.51-.15h-.31l-.35-.07-.65-.14-.44-.11h-.09a9.69 9.69 0 0 1 -1.08-.34l-.38-.14a15.39 15.39 0 0 1 -3-1.56l-.11-.07a15.47 15.47 0 0 1 -2.76-2.34h-.05l-.09-.09a2.09 2.09 0 0 1 -.4-.17l-.57-.68c-.14-.17-.27-.34-.4-.52s-.35-.49-.51-.75-.21-.34-.31-.51a15.47 15.47 0 0 1 -1.25-2.63 15.91 15.91 0 0 1 -1-5.5v-712.84a16 16 0 1 1 32 0z" fill="#413b32"/></svg>