<svg id="Layer_1" enable-background="new 0 0 128 128" height="512" viewBox="0 0 128 128" width="512" xmlns="http://www.w3.org/2000/svg"><g><g><path d="m37.1 19h48.6c2.9 0 5.3 2.4 5.3 5.3v70.7c0 2.9-2.4 5.3-5.3 5.3h-48.6z" fill="#009d8f"/><path d="m37.1 100.3h-7.8c-2.5 0-4.6-2.1-4.6-4.6v-72.1c0-2.5 2.1-4.6 4.6-4.6h7.8z" fill="#f5c464"/><path d="m85.3 109-8.1-2-8.1 2v-8.7h16.2z" fill="#ee404c"/><path d="m91 26.7h7.5v10h-7.5z" fill="#f5c464"/><path d="m91 63.9h7.5v10h-7.5z" fill="#ee404c"/><path d="m91 82.5h11.5v10h-11.5z" fill="#f5c464"/><path d="m91 45.3h11.5v10h-11.5z" fill="#f79f63"/><path d="m46.4 37.2h35.4v20.3h-35.4z" fill="#fff7ed"/></g><g fill="#250a66"><path d="m24.9 52.1c1 0 1.8-.8 1.8-1.8v-2.1c0-1-.8-1.8-1.8-1.8s-1.8.8-1.8 1.8v2.1c0 1 .8 1.8 1.8 1.8z"/><path d="m102.6 57.1c1 0 1.8-.8 1.8-1.8v-10c0-1-.8-1.7-1.7-1.8h-9.8v-5.1h5.8c1 0 1.7-.8 1.8-1.8v-10c0-1-.8-1.8-1.8-1.8h-5.8v-.7c0-3.9-3.2-7-7-7h-56.4c-3.5 0-6.3 2.8-6.3 6.3v13.6c0 1 .8 1.8 1.8 1.8s1.8-.8 1.8-1.8v-13.4c0-1.6 1.3-2.8 2.8-2.8h6v77.8h-6c-1.6 0-2.8-1.3-2.8-2.8v-34.7c0-1-.8-1.8-1.8-1.8s-1.8.8-1.8 1.8v34.6c0 3.5 2.8 6.3 6.3 6.3h38v6.9c0 1 .8 1.8 1.7 1.8.1 0 .3 0 .4-.1l7.7-1.9 7.7 1.9c.1 0 .3.1.4.1 1 0 1.7-.8 1.8-1.8v-7.1c3.3-.6 5.7-3.5 5.7-6.9v-.7h9.8c1 0 1.8-.8 1.8-1.8v-10c0-1-.8-1.7-1.7-1.8h-9.8v-5.1h5.8c1 0 1.7-.8 1.8-1.8v-10c0-1-.8-1.8-1.8-1.8h-5.8v-5.1h9.6zm-1.7-10v6.5h-8v-6.5zm-4-18.6v6.5h-4v-6.5zm-13.3 78.2-5.9-1.5c-.3-.1-.6-.1-.8 0l-5.9 1.5v-4.7h12.7v4.7zm5.8-11.7c0 2-1.6 3.5-3.5 3.5h-46.9v-77.8h46.9c2 0 3.5 1.6 3.5 3.5zm11.5-10.7v6.5h-8v-6.5zm-4-18.6v6.5h-4v-6.5z"/><path d="m81.9 35.4h-6.8c-1 0-1.8.8-1.8 1.8s.8 1.8 1.8 1.8h5.1v16.8h-32v-16.9h15.8c1 0 1.8-.8 1.8-1.8s-.8-1.7-1.8-1.7h-17.5c-1 0-1.7.8-1.8 1.8v20.3c0 1 .8 1.7 1.8 1.8h35.4c1 0 1.7-.8 1.8-1.8v-20.4c-.1-.9-.8-1.7-1.8-1.7z"/></g></g><g fill="#250a66"><path d="m55.9 40.9h-.2c-2.7 0-4.9 2.2-4.9 4.9v2.4 3.8c0 1 .8 1.8 1.8 1.8s1.8-.8 1.8-1.8v-2h3v2c0 1 .8 1.8 1.8 1.8s1.8-.8 1.8-1.8v-3.8-2.4c-.2-2.7-2.4-4.9-5.1-4.9zm1.4 5.5h-3v-.6c0-.8.6-1.4 1.4-1.4h.2c.8 0 1.4.6 1.4 1.4z"/><path d="m75.8 50.2h-3.1l4.6-6.6c.4-.5.4-1.2.1-1.8s-.9-.9-1.6-.9h-6.5c-1 0-1.8.8-1.8 1.8s.8 1.8 1.8 1.8h3.1l-4.5 6.5c-.4.5-.4 1.2-.1 1.8s.9.9 1.6.9h6.5c1 0 1.8-.8 1.8-1.8s-.9-1.7-1.9-1.7z"/><path d="m65.5 45.6h-1.2c-1 0-1.8.8-1.8 1.8s.8 1.8 1.8 1.8h1.2c1 0 1.8-.8 1.8-1.8s-.8-1.8-1.8-1.8z"/></g></svg>