<svg id="Layer_1" viewBox="0 0 512 512" xmlns="http://www.w3.org/2000/svg" data-name="Layer 1"><rect fill="#c9defb" height="480" rx="20.29" width="305.13" x="103.44" y="15.99"/><path d="m186.88 16h138.24l-9 31.4a4.93 4.93 0 0 1 -4.77 3.6h-110.7a4.93 4.93 0 0 1 -4.81-3.62z" fill="#8c8c8c" fill-rule="evenodd"/><rect fill="#b5c8e2" height="30.23" rx="15.11" width="68.02" x="221.99" y="428.08"/><rect fill="#484e53" height="256.46" rx="6.54" width="399.52" x="56.24" y="122.33"/><g fill-rule="evenodd"><path d="m99.52 93.79c56 24.84 146.88-1.42 156.17 27.41a6.29 6.29 0 0 1 .31 2v240.2a6.54 6.54 0 0 1 -10.22 5.41c-28.12-19.11-89.08-16.72-148.78-15.17a6.54 6.54 0 0 1 -6.71-6.54v-247.33a6.54 6.54 0 0 1 9.2-6z" fill="#f4f4f4"/><path d="m412.48 93.79c-56 24.84-146.88-1.42-156.17 27.41a6.29 6.29 0 0 0 -.31 2v240.2a6.54 6.54 0 0 0 10.22 5.41c28.12-19.11 89.08-16.72 148.78-15.17a6.54 6.54 0 0 0 6.71-6.54v-247.33a6.54 6.54 0 0 0 -9.2-6z" fill="#f4f4f4"/><path d="m277.88 188.68c11.66-13.09 32.07-12.85 53.68-12.61 19.41.22 41.4.48 58.36-9a8 8 0 1 1 7.82 14c-20.68 11.61-44.95 11.33-66.36 11.08-17.87-.21-34.74-.4-41.56 7.25a8 8 0 1 1 -11.94-10.64zm0 34.66a8 8 0 1 0 11.94 10.66c6.82-7.65 23.69-7.46 41.55-7.25 21.42.25 45.69.52 66.37-11.08a8 8 0 1 0 -7.82-14c-17 9.51-38.95 9.25-58.36 9-21.61-.24-42-.48-53.68 12.61zm0 34.66c11.66-13.09 32.07-12.85 53.68-12.61 19.41.22 41.4.48 58.36-9a8 8 0 1 1 7.82 13.95c-20.68 11.6-44.95 11.33-66.36 11.08-17.87-.21-34.74-.4-41.56 7.25a8 8 0 1 1 -11.94-10.67zm0-104a8 8 0 1 0 11.94 10.64c6.82-7.65 23.69-7.46 41.55-7.25 21.42.25 45.69.53 66.37-11.08a8 8 0 1 0 -7.82-14c-17 9.51-38.95 9.25-58.36 9-21.61-.25-42-.48-53.68 12.61zm119.86 165.63c-20.68 11.6-45 11.32-66.36 11.08-17.87-.21-34.74-.4-41.56 7.25a8 8 0 1 1 -11.94-10.64c11.66-13.09 32.07-12.86 53.68-12.61 19.41.23 41.4.48 58.36-9a8 8 0 1 1 7.82 13.95zm-119.86-27a8 8 0 1 0 11.94 10.64c6.82-7.65 23.69-7.46 41.55-7.25 21.42.24 45.69.52 66.37-11.08a8 8 0 1 0 -7.82-14c-17 9.51-38.95 9.25-58.36 9-21.61-.24-42-.48-53.68 12.61zm-166.69-53.21a8 8 0 0 1 10.89-3.06c17 9.51 39 9.25 58.36 9 21.61-.24 42-.48 53.68 12.61a8 8 0 1 1 -11.94 10.64c-6.82-7.65-23.7-7.46-41.56-7.25-21.41.24-45.68.52-66.36-11.08a8 8 0 0 1 -3.07-10.89zm0-34.66a8 8 0 0 0 3.07 10.89c20.68 11.6 45 11.32 66.37 11.08 17.86-.21 34.73-.4 41.55 7.25a8 8 0 0 0 11.94-10.64c-11.66-13.09-32.07-12.86-53.68-12.61-19.4.22-41.4.48-58.36-9a8 8 0 0 0 -10.89 3.06zm0-34.66a8 8 0 0 1 10.89-3.1c17 9.51 39 9.25 58.36 9 21.61-.24 42-.48 53.68 12.61a8 8 0 1 1 -11.94 10.64c-6.82-7.65-23.7-7.46-41.56-7.25-21.41.24-45.68.52-66.36-11.08a8 8 0 0 1 -3.07-10.89zm0-34.66a8 8 0 0 0 3.07 10.89c20.68 11.61 45 11.32 66.37 11.08 17.86-.21 34.73-.4 41.55 7.25a8 8 0 0 0 11.94-10.66c-11.66-13.09-32.07-12.85-53.68-12.61-19.4.22-41.4.48-58.36-9a8 8 0 0 0 -10.89 3.06zm0 173.3a8 8 0 0 1 10.89-3.06c17 9.51 39 9.26 58.36 9 21.61-.25 42-.48 53.68 12.61a8 8 0 1 1 -11.94 10.71c-6.82-7.65-23.7-7.46-41.56-7.25-21.41.25-45.68.52-66.36-11.08a8 8 0 0 1 -3.07-10.89zm0-34.66a8 8 0 0 0 3.07 10.92c20.68 11.6 45 11.33 66.37 11.08 17.86-.21 34.73-.4 41.55 7.25a8 8 0 0 0 11.94-10.64c-11.66-13.09-32.07-12.85-53.68-12.61-19.41.22-41.4.48-58.36-9a8 8 0 0 0 -10.89 3.06zm336.57 98.79v-240.46h-18.08v223.49a8 8 0 0 1 -8.2 8l-13.48-.35c-32.33-.86-65.77-1.74-92.55 1.14-15.12 1.63-27.1 4.34-36.1 8.18zm-47.2 102.84a12.3 12.3 0 0 1 -12.28 12.29h-264.55a12.31 12.31 0 0 1 -12.29-12.29v-86.84h289.12zm-336.32-343.3v240.46h168.41c-9-3.84-21-6.55-36.1-8.18-26.78-2.88-60.22-2-92.55-1.14l-13.48.35a8 8 0 0 1 -8.2-8v-223.49zm47.2-96.12a12.3 12.3 0 0 1 12.29-12.29h57.11l8.35 29.21a8 8 0 0 0 7.69 5.79h118.24a8 8 0 0 0 7.69-5.81l8.35-29.19h57.12a12.3 12.3 0 0 1 12.28 12.29v55.62c-23.95 7.93-53.42 8.06-80.05 8.16-27.47.11-52.07.22-64.51 10.18-12.44-10-37-10.07-64.51-10.18-26.63-.1-56.1-.23-80.05-8.16zm203.08-12.29h-117l5.43 19h106.14zm-50.52 101.6v237.21c29.82-18.29 85.76-16.81 144.42-15.25l5.26.13v-243.63c-28.26 11.76-63.8 11.9-93.11 12-26.13.11-53.13.22-56.57 9.53zm-165.68-21.54v243.63l5.26-.13c16.26-.44 32.34-.86 47.69-.86 40 0 75.18 2.89 96.73 16.1v-237.24c-3.5-9.28-30.47-9.38-56.57-9.49-29.31-.11-64.85-.25-93.11-12zm357.44 12.35h-26.08v-25.29a8 8 0 0 0 -12.12-6.86l-1 .58v-48.55a28.32 28.32 0 0 0 -28.28-28.29h-264.55a28.32 28.32 0 0 0 -28.29 28.29v48.55l-1-.58a8 8 0 0 0 -12.12 6.86v25.29h-26.08a8 8 0 0 0 -8 8v256.46a8 8 0 0 0 8 8h39.2v86.84a28.32 28.32 0 0 0 28.29 28.29h264.55a28.32 28.32 0 0 0 28.28-28.29v-86.84h39.2a8 8 0 0 0 8-8v-256.46a8 8 0 0 0 -8-8zm-173.76 326.78a7.12 7.12 0 0 0 -7.12-7.11h-37.77a7.12 7.12 0 1 0 0 14.23h37.78a7.12 7.12 0 0 0 7.12-7.12zm-44.9-23.11a23.12 23.12 0 1 0 0 46.23h37.78a23.12 23.12 0 1 0 0-46.23z" fill="#242222"/></g></svg>