<svg clip-rule="evenodd" fill-rule="evenodd" height="512" image-rendering="optimizeQuality" shape-rendering="geometricPrecision" text-rendering="geometricPrecision" viewBox="0 0 512 512" width="512" xmlns="http://www.w3.org/2000/svg" xmlns:xodm="http://www.corel.com/coreldraw/odm/2003"><g id="Layer_x0020_1"><path d="m341.31 492.85h-170.61c-13.16 0-13.16-20 0-20h170.61c13.16 0 13.16 20 0 20z" fill="#d7af87"/><path d="m170.7 511.97h-33.89c-2.77 0-5-2.23-5-5v-168.58c0-2.76 2.23-5 5-5h33.89c2.76 0 5 2.24 5 5v168.58c0 2.77-2.24 5-5 5z" fill="#ebc9a0"/><path d="m375.19 511.97h-33.89c-2.76 0-5-2.23-5-5v-168.58c0-2.76 2.24-5 5-5h33.89c2.77 0 5 2.24 5 5v168.58c0 2.77-2.23 5-5 5z" fill="#ebc9a0"/><path d="m375.19 343.39h-243.38v-40.11c0-2.76 2.23-5 5-5h238.38c2.77 0 5 2.24 5 5v40.11z" fill="#d7af87"/><path d="m354.51 274.54h-197.02c-2.76 0-5-2.24-5-5v-225.33c0-24.36 19.82-44.18 44.18-44.18h118.66c24.36 0 44.18 19.82 44.18 44.18v225.33c0 2.76-2.24 5-5 5z" fill="#a0a6bc"/><path d="m328.16 274.54h-144.32c-2.76 0-5-2.24-5-5v-165.06c0-18.59 15.12-33.71 33.7-33.71l86.92.01c18.58 0 33.7 15.11 33.7 33.7v165.06c0 2.76-2.24 5-5 5z" fill="#8a90a7"/><path d="m387.71 308.28h-263.42c-2.76 0-5-2.24-5-5v-33.74c0-2.76 2.24-5 5-5h263.42c2.76 0 5 2.24 5 5v33.74c0 2.76-2.24 5-5 5z" fill="#afb9d2"/></g></svg>