<svg id="Capa_1" enable-background="new 0 0 511.774 511.774" height="512" viewBox="0 0 511.774 511.774" width="512" xmlns="http://www.w3.org/2000/svg"><g><g><path d="m165.424 253.842-7.808 41.271c-.391 2.066-.423 4.184-.095 6.261l2.499 15.837c.77 4.88 3.479 9.243 7.512 12.097l26.912 19.046c8.122 5.8 9.41 19.197.036 26.031l-64.601 50.979 34.225 9.567 41.038-9.567 21.375-34.711c1.616-2.624 2.771-5.505 3.415-8.519l5.954-27.871c.733-3.431.791-6.971.17-10.424l-12.575-69.922z" fill="#78c2a4"/><path d="m236.056 343.837-12.575-69.922-58.057-20.073-1.319 6.974 37.886 13.099 12.575 69.922c.621 3.453.563 6.993-.17 10.424l-5.954 27.871c-.644 3.014-1.799 5.895-3.415 8.519l-21.375 34.711 7.46 3.271 14.03-3.271 21.375-34.711c1.616-2.624 2.771-5.505 3.415-8.519l5.954-27.871c.734-3.431.791-6.972.17-10.424z" fill="#489b77"/><path d="m503.734 319.773c-1.86 4.58-6.88 7.04-11.73 6.08l-152.38-29.65c-1.9-.37-3.56 1.33-3.15 3.23l8.28 38.08c.65 11.23 4.8 41.89.54 52.07l-14.99 35.78-19.51 6.48-21.18 7.03-38.69-13.51 61.79-52.54c6.91-8.77 4.65-22.73-4.13-27.73l-26.07-14.86c-7.02-3.96-13.08-14.14-17.85-19.68-2.12-2.71-5.46-4.17-8.87-3.68l-23.39 3.35c-12.84 1.84-25.82-2.26-35.27-11.14l-61.18-57.51c-10.28-9.66-16.12-23.14-16.12-37.25 0-.22.01-.45.01-.67 0-14.12-6.93-27.36-16.29-37.14-2.02-2.1-4.82-3.29-7.74-3.29h-63.11c-7.71 0-14.76-4.31-18.27-11.17l-6.15-12c-1.91-3.73-.21-8.31 3.67-9.88l54.25-22 9.28-3.77c2.9-1.18 3.51-5.01 1.12-7.04l-35.47-30.02c-5.96-5.1-6.45-13.03-7.96-19.5-.26-1.23-.39-2.46-.39-3.68 0-5.55 2.64-10.86 7.25-14.19 10.29-7.42 23.87-8.44 35.15-2.62l50.1 25.87 19.55 1.68c7.05 1.04 9.22 7.98 8.42 13.38 0 2.45 1.06 4.79 2.92 6.4 4.83 3.46 9.67 9.69 9.25 14.79v27.92c.34 8.13 12.8 19.65 19.91 21.39l38.54 5.08c8.57 1.13 16.64 4.67 23.27 10.22l97.11 81.23c3.46 2.89 7.29 5.3 11.4 7.14l142.82 64.15c4.96 2.23 7.36 8 5.26 13.17z" fill="#8ce1a4"/><path d="m503.734 319.773c-1.86 4.58-6.88 7.04-11.73 6.08l-14.16-2.76c.95-.91 1.72-2.03 2.24-3.32 2.1-5.17-.3-10.94-5.26-13.17l-142.82-64.15c-4.11-1.84-7.95-4.25-11.4-7.14l-97.11-81.23c-6.63-5.55-14.7-9.09-23.27-10.22l-38.54-5.08c-7.11-1.74-19.57-13.26-19.91-21.39v-27.92c.42-5.1-4.42-11.33-9.26-14.79-1.85-1.61-2.91-3.95-2.91-6.4.8-5.4-1.37-12.34-8.42-13.38l-19.55-1.68-50.1-25.87c-1.18-.61-2.39-1.14-3.61-1.6 8.78-3.3 18.68-2.82 27.26 1.6l50.1 25.87 19.55 1.68c7.05 1.04 9.22 7.98 8.42 13.38 0 2.45 1.06 4.79 2.92 6.4 4.83 3.46 9.67 9.69 9.25 14.79v27.92c.34 8.13 12.8 19.65 19.91 21.39l38.54 5.08c8.57 1.13 16.64 4.67 23.27 10.22l97.11 81.23c3.46 2.89 7.29 5.3 11.4 7.14l142.82 64.15c4.96 2.23 7.36 8 5.26 13.17z" fill="#78c2a4"/><path d="m345.294 389.583-14.99 35.78-19.51 6.48-1.97-6.48 14.98-35.78c1.58-3.78 2.28-7.86 2.05-11.95l-2.01-35.9c-.08-1.42-.27-2.83-.57-4.22l-15.21-67.2c-1.41-6.23 3.64-12.04 10.01-11.5 2.9.24 5.54 1.41 7.62 3.23 2.08 1.83 3.58 4.3 4.2 7.14l6.58 30.25 8.28 38.08c.65 11.229 4.8 41.89.54 52.07z" fill="#78c2a4"/><path d="m408.469 425.362h-311.6c-3.035 0-5.661 2.112-6.311 5.076l-10.28 46.856c-1.229 5.603 3.037 10.906 8.773 10.906h327.235c5.736 0 10.002-5.303 8.773-10.906l-10.28-46.856c-.65-2.964-3.275-5.076-6.31-5.076z" fill="#ffdfcf"/><path d="m425.059 477.294-10.28-46.855c-.65-2.964-3.276-5.077-6.311-5.077h-21.49c3.035 0 5.661 2.112 6.311 5.077l10.28 46.855c1.229 5.603-3.037 10.906-8.773 10.906h21.49c5.736.001 10.002-5.303 8.773-10.906z" fill="#ffcebf"/></g><g><path d="m422.106 428.832c-1.394-6.356-7.129-10.97-13.637-10.97h-66.889c3.8-10.572 14.236-28.535 13.257-40.648-.892-11.224-1.191-31.529-2.75-41.296l-16.936-77.883c-.88-4.048-4.874-6.609-8.922-5.735-4.047.881-6.615 4.875-5.735 8.923l16.936 77.881c.434-.475 2.329 38.542 2.431 38.952 1.451 5.463-12.783 34.381-14.543 39.807h-53.993l46.251-39.323c4.324-4.117 7.152-12.125 6.567-19.579 0-8.409-4.538-16.219-11.843-20.382l-26.068-14.858c-3.521-1.152-13.377-15.131-15.632-17.751-6.938-6.251-2.856-43.901-3.874-52.128 0-4.143-3.358-7.5-7.5-7.5s-7.5 3.357-7.5 7.5c.253 10.75-.552 36.704.4 45.978-15.921 2.577-36.862 7.308-49.855-6.204l-44.291-41.629c5.547-5.301 9.827-14.675 9.249-23.329l-1.268-20.808c-.252-4.135-3.8-7.252-7.942-7.03-4.134.252-7.282 3.808-7.03 7.942l1.268 20.808c.269 3.099-1.499 8.684-5.211 12.14-11.07-9.056-19.748-21.53-19.707-37.39 0-15.145-5.758-29.517-16.21-40.466-2.77-2.434-6.327-8.447-10.959-8.127h-67.476c-4.905 0-9.343-2.716-11.583-7.093l-5.976-11.661 34.69-14.07c3.838-1.557 5.688-5.931 4.131-9.77-1.557-3.838-5.93-5.686-9.769-4.131l-35.048 14.215c-3.797 1.536-6.794 4.621-8.223 8.464-1.43 3.847-1.176 8.145.695 11.789l6.15 12.001c4.815 9.409 14.369 15.255 24.933 15.255h64.264c7.982 7.297 14.45 18.561 15.237 30.171l-11.919 9.802c-4.89 4.021-11.56 5.012-17.407 2.583l-16.065-6.672c-3.825-1.589-8.214.225-9.803 4.05-1.589 3.826.225 8.215 4.05 9.804l16.065 6.672c11.295 5.319 27.452 1.426 37.023-8.417 1.911 8.178 7.621 19.372 14.817 26.484-1.994 4.359-7.256 9.121-13.287 9.994l-36.671 5.27c-4.1.589-6.946 4.391-6.357 8.49.537 3.739 3.745 6.435 7.415 6.435.355 0 .714-.025 1.076-.077l36.671-5.27c9.105-1.309 17.313-6.583 22.321-14.25 1.458 1.366 13.202 12.4 14.687 13.799l-4.565 24.124c-.605 12.533 1.092 33.581 12.957 41.715l26.902 19.038c3.404 3.029 5.923 9.737-.272 14.023l-62.556 49.369h-30.408c-6.507 0-12.242 4.613-13.637 10.969l-10.28 46.855c-2.117 8.867 5.014 20.088 16.099 20.014h327.235c9.114.168 18.547-9.202 16.099-20.014zm-223.113-48.459c11.977-7.714 13.116-29.431-.221-38.146l-26.907-19.041c-5.881-4.373-6.543-19.354-6.881-26.68l2.788-14.732 24.224 22.768c21.15 19.803 43.592 12.565 65.981 9.59 5.706 6.861 12.276 17.826 20.827 22.619l26.068 14.859c2.634 1.501 4.27 4.317 4.27 7.35-.245 3.557.886 3.45-1.779 8.573l-59.197 50.329h-29.6l14.325-23.264c2.076-3.355 3.547-7.022 4.373-10.896 1.508-9.322 7.893-29.92 6.418-39.597-.541-4.107-4.307-6.991-8.416-6.455-4.107.542-6.997 4.31-6.455 8.416 1.354 2.728-5.743 31.211-6.216 34.505-.466 2.186-1.294 4.25-2.468 6.148l-19.176 31.142h-49.462zm218.448 99.775c-.203.252-.568.553-1.154.553h-327.236c-.321-.285-1.104.438-1.447-1.799l10.101-46.039h153.22 156.708l10.101 46.039c.125.572-.09.993-.293 1.246z"/><path d="m275.21 449.282h-45.083c-4.142 0-7.5 3.357-7.5 7.5s3.358 7.5 7.5 7.5h45.083c4.142 0 7.5-3.357 7.5-7.5s-3.358-7.5-7.5-7.5z"/><path d="m501.545 299.763-6.849-3.076.935-2.215c1.611-3.815-.175-8.216-3.991-9.827-3.814-1.61-8.215.175-9.827 3.991l-.804 1.903-21.458-9.638 1.321-2.707c1.816-3.723.271-8.213-3.452-10.029-3.722-1.818-8.213-.272-10.029 3.451l-1.53 3.136-28.319-12.72 1.564-2.641c2.111-3.564.934-8.164-2.63-10.275-3.563-2.11-8.164-.935-10.275 2.629l-2.43 4.102-30.922-13.889 2.392-4.615c1.906-3.678.47-8.204-3.208-10.11-3.679-1.904-8.204-.469-10.11 3.208l-2.779 5.362c-6.61-2.157-23.259-17.544-28.678-21.798l5.275-6.738c2.553-3.262 1.979-7.976-1.283-10.528-3.262-2.555-7.976-1.979-10.529 1.282l-4.975 6.355-24.02-20.091 5.644-7.09c2.58-3.241 2.044-7.959-1.196-10.539-3.241-2.581-7.958-2.044-10.539 1.195l-5.419 6.806-26.237-21.946 6.218-9.056c2.344-3.415 1.477-8.083-1.938-10.428-3.417-2.346-8.083-1.477-10.428 1.938l-5.772 8.407c-7.491-5.02-19.992-7.499-29.654-8.368v-9.323c0-4.143-3.358-7.5-7.5-7.5s-7.5 3.357-7.5 7.5v7.348l-15.933-2.098-11.756-11.718v-29.945c.424-7.731-5.547-15.954-12.169-20.734 1.39-9.549-4.382-20.331-15.276-21.307l-18.073-1.552-48.785-25.183c-13.86-7.156-30.327-5.931-42.974 3.198-8.049 5.809-11.896 15.831-9.801 25.534 1.599 8.16 3.072 17.395 10.446 23.646l54.786 46.369c3.162 2.676 7.894 2.282 10.57-.879 2.676-3.162 2.282-7.895-.879-10.57l-54.787-46.37c-3.052-1.455-4.781-12.149-5.474-15.362-.837-3.878.7-7.883 3.917-10.204 8.04-5.802 18.507-6.579 27.315-2.034l50.104 25.865c.871.45 1.822.725 2.799.809l19.552 1.679c.889.076 1.56.807 1.56 1.699v8.073c-.215 7.018 11.711 9.613 12.169 17.323v33.016c.125 1.252.275 3.593 2.203 5.353l15.762 15.711c1.167 1.163 2.683 1.909 4.316 2.124l42.692 5.621c7.166.947 13.887 3.903 19.438 8.549l97.101 81.218c3.985 3.34 8.409 6.112 13.146 8.238l142.81 64.146c1.434.646 3.181 4.584-1.628 5.113l-121.412-23.989c-4.064-.812-8.008 1.841-8.812 5.903-.803 4.063 1.841 8.009 5.904 8.812l121.408 23.989c20.6 3.484 29.302-24.404 10.693-33.509z"/><path d="m122.859 92.981c2.65 0 5.219-1.407 6.583-3.895 1.992-3.632.663-8.19-2.969-10.183l-14.811-8.123c-3.632-1.993-8.191-.662-10.183 2.97s-.662 8.19 2.97 10.183l14.811 8.123c1.144.628 2.38.925 3.599.925z"/></g></g></svg>