<svg id="Layer_1" enable-background="new 0 0 128 128" height="512" viewBox="0 0 128 128" width="512" xmlns="http://www.w3.org/2000/svg"><g><g><path d="m90.9 19v51.4c-.4-.7-1-1.3-1.8-1.7-1.4-.4-3.1.9-4.6.9s-3.3-1.3-4.6-.9c-1.4.5-2 2.6-3.2 3.4s-3.4.8-4.3 2-.1 3.3-.6 4.7c-.4 1.4-2.3 2.6-2.3 4.1s1.8 2.8 2.3 4.1c.5 1.4-.3 3.5.6 4.7.3.4.6.6 1.1.8v3.5h-45.2v-59.9l17.1-17.1z" fill="#f5c464"/><path d="m97.2 87.1c-.5 1.4.3 3.5-.6 4.7-.3.4-.7.6-1.1.8-1 .4-2.3.6-3.2 1.2-.6.5-1.1 1.1-1.5 1.8-.1.2-.2.3-.3.5-.3.5-.8 1-1.4 1.2-1.4.4-3.1-.9-4.6-.9s-3.3 1.3-4.6.9c-.6-.2-1.1-.7-1.4-1.2-.5-.8-1.1-1.6-1.8-2.2-.8-.6-2.2-.8-3.2-1.2-.4-.2-.8-.4-1.1-.8-.9-1.2-.1-3.3-.6-4.7-.4-1.4-2.3-2.6-2.3-4.1s1.8-2.8 2.3-4.1c.5-1.4-.3-3.5.6-4.7s3.1-1.1 4.3-2 1.8-3 3.2-3.4 3.1.9 4.6.9 3.3-1.3 4.6-.9c.8.3 1.4.9 1.8 1.7.4.7.9 1.3 1.5 1.8 1.2.9 3.4.8 4.3 2s.1 3.3.6 4.7c.4 1.4 2.3 2.6 2.3 4.1s-1.9 2.5-2.4 3.9z" fill="#ee404c"/><path d="m86.7 78.1c.3.9 1.1 1.5 2.1 1.5 1.2 0 2.2 1 2.2 2.2 0 .7-.3 1.4-.9 1.8-.8.6-1.1 1.6-.8 2.5.4 1.2-.2 2.4-1.4 2.8-.7.2-1.4.1-2-.3-.8-.6-1.8-.6-2.6 0-1 .7-2.4.5-3.1-.5-.4-.6-.5-1.3-.3-2 .3-.9 0-1.9-.8-2.5-1-.7-1.2-2.1-.5-3.1.4-.6 1.1-.9 1.8-.9 1 0 1.8-.6 2.1-1.5.4-1.2 1.6-1.8 2.8-1.4.7.2 1.2.7 1.4 1.4z" fill="#f26e53"/><path d="m95.6 92.6v16.4l-11-5-11.1 5v-16.4c1 .4 2.3.6 3.2 1.2.7.7 1.3 1.4 1.8 2.2.3.5.8 1 1.4 1.2 1.4.4 3.1-.9 4.6-.9s3.3 1.3 4.6.9c.6-.2 1.1-.7 1.4-1.2.1-.2.2-.3.3-.5.4-.7.9-1.3 1.5-1.8.9-.5 2.3-.7 3.3-1.1z" fill="#f68f54"/><path d="m45.4 36.1h-17.1l17.1-17.1z" fill="#009d8f"/><g fill="#fff7ed"><path d="m68.2 32.1h9.2c1 0 1.8-.8 1.8-1.8s-.8-1.8-1.8-1.8h-9.2c-1 0-1.8.8-1.8 1.8s.8 1.8 1.8 1.8z"/><path d="m77.4 43.7h-35.6c-1 0-1.8.8-1.8 1.8s.8 1.8 1.8 1.8h35.5c1 0 1.8-.8 1.8-1.8s-.8-1.8-1.7-1.8z"/><path d="m77.4 55.8h-35.6c-1 0-1.8.8-1.8 1.8s.8 1.8 1.8 1.8h35.5c1 0 1.8-.8 1.8-1.8s-.8-1.8-1.7-1.8z"/><path d="m63.9 67.9h-22.1c-1 0-1.8.8-1.8 1.8s.8 1.8 1.8 1.8h22.1c1 0 1.8-.8 1.8-1.8s-.8-1.8-1.8-1.8z"/><path d="m59.6 79.8h-17.8c-1 0-1.8.8-1.8 1.8s.8 1.8 1.8 1.8h17.8c1 0 1.8-.8 1.8-1.8s-.8-1.8-1.8-1.8z"/></g></g><g fill="#250a66"><path d="m91 72.1c-1 0-1.7-.8-1.8-1.8v-15.4c0-1 .8-1.8 1.8-1.8s1.8.8 1.8 1.8v15.5c0 1-.8 1.7-1.8 1.7z"/><path d="m91 47.2c-1 0-1.7-.8-1.8-1.8v-1.3c0-1 .8-1.8 1.8-1.8s1.8.8 1.8 1.8v1.3c0 1-.8 1.8-1.8 1.8z"/><path d="m73.6 97.8h-45.2c-1 0-1.8-.8-1.8-1.8v-59.9c0-.5.2-.9.5-1.2l17.1-17.1c.3-.3.8-.5 1.2-.5h45.6c1 0 1.8.8 1.8 1.8v14.8c0 1-.8 1.8-1.8 1.8s-1.8-.8-1.8-1.8v-13h-43l-16.1 15.9v57.4h43.4c1 0 1.8.8 1.8 1.8s-.8 1.8-1.7 1.8z"/><path d="m88.6 99.1c-.9 0-1.7-.2-2.6-.6-.5-.2-1-.3-1.5-.4-.5.1-1 .2-1.5.4-1.2.5-2.5.7-3.7.4-.9-.3-1.7-1-2.3-1.8-.2-.2-.4-.5-.5-.8-.2-.4-.5-.8-.9-1.1-.4-.2-.9-.4-1.3-.5-.5-.1-1-.3-1.5-.5-.7-.3-1.3-.8-1.8-1.4-.7-1.1-.9-2.4-.8-3.7 0-.5 0-1-.1-1.5-.2-.4-.5-.8-.8-1.2-.9-1-1.5-2.2-1.6-3.5.1-1.3.7-2.6 1.6-3.5.3-.3.6-.7.8-1.2.1-.5.1-1 .1-1.5-.2-1.3.1-2.6.8-3.7.9-1 2-1.6 3.3-1.9.5-.1.9-.3 1.4-.5.3-.3.6-.7.9-1.1.6-1.2 1.6-2.1 2.8-2.6 1.2-.3 2.6-.1 3.7.4.5.2 1 .3 1.5.4.5-.1 1-.2 1.5-.4 1.2-.5 2.5-.7 3.7-.4 1.1.5 2.1 1.3 2.7 2.3l.2.3c.2.4.5.7.8 1 .4.2.9.4 1.4.5 1.3.2 2.4.9 3.3 1.9.7 1.1.9 2.4.8 3.7 0 .5 0 1 .1 1.5.2.4.5.8.8 1.1.9 1 1.5 2.2 1.6 3.5-.1 1.3-.7 2.6-1.6 3.5-.3.3-.6.7-.8 1.2-.1.5-.1 1-.1 1.5.2 1.3-.1 2.6-.8 3.7-.5.6-1.1 1.1-1.8 1.4-.5.2-1 .4-1.5.5s-.9.3-1.4.5c-.3.3-.6.7-.9 1.1l-.2.3c-.1.1-.2.3-.3.5-.6.9-1.4 1.5-2.3 1.9-.4.2-.8.3-1.2.3zm-4-4.5c.9 0 1.8.2 2.6.6.5.2 1 .3 1.5.4.1 0 .2-.1.6-.6.1-.1.2-.2.2-.3l.2-.4c.4-.7 1-1.4 1.7-1.9s1.6-.8 2.4-1c.4-.1.7-.2 1.1-.4.1 0 .3-.1.4-.2.1-.5.2-1 .1-1.5-.1-.9 0-1.8.2-2.7.3-.8.8-1.6 1.3-2.2.4-.4.7-.9.8-1.4-.2-.5-.5-1-.8-1.4-.6-.7-1-1.4-1.3-2.2-.2-.9-.3-1.8-.2-2.7.1-.5 0-1-.1-1.5-.4-.3-.9-.5-1.4-.6-.9-.2-1.7-.6-2.4-1-.7-.5-1.2-1.2-1.7-1.9l-.2-.3c-.4-.6-.7-.9-.9-1-.5 0-1 .2-1.5.4-1.7.8-3.6.8-5.3 0-.5-.2-1-.3-1.5-.4-.3.1-.7.8-1 1.2-.8 1.6-2.4 2.7-4.2 3-.5.1-1 .3-1.4.6-.1.5-.2 1-.1 1.5.1.9 0 1.8-.2 2.7-.3.8-.8 1.6-1.3 2.2-.4.4-.7.9-.8 1.4.2.5.5 1 .8 1.4.6.7 1 1.4 1.3 2.2.2.9.3 1.8.2 2.7-.1.5 0 1 .1 1.5.1.1.2.2.3.2.4.1.7.3 1.1.4.9.2 1.7.6 2.4 1 .7.5 1.3 1.2 1.7 2 .1.2.3.4.4.6.4.5.5.6.6.6.5 0 1-.2 1.5-.4 1-.4 1.9-.6 2.8-.6z"/><path d="m95.7 110.7c-.2 0-.5-.1-.7-.2l-10.3-4.7-10.3 4.7c-.9.4-1.9 0-2.3-.9-.1-.2-.2-.5-.2-.7v-16.3c0-1 .8-1.8 1.8-1.8s1.8.8 1.8 1.8v13.7l8.6-3.9c.5-.2 1-.2 1.4 0l8.6 3.9v-13.7c0-1 .8-1.8 1.8-1.8s1.8.8 1.8 1.8v16.4c-.3 1-1.1 1.7-2 1.7z"/><path d="m45.5 37.9h-17.1c-1 0-1.8-.8-1.8-1.7 0-.5.2-.9.5-1.2l17.1-17.1c.7-.7 1.8-.7 2.5 0 .3.3.5.8.5 1.2v17.1c.1.9-.7 1.7-1.7 1.7zm-12.9-3.5h11.1v-11.2z"/><path d="m77.5 32.1h-9.2c-1 0-1.8-.8-1.8-1.8s.8-1.8 1.8-1.8h9.2c1 0 1.8.8 1.8 1.8s-.9 1.8-1.8 1.8z"/><path d="m77.5 47.2h-35.6c-1 0-1.8-.8-1.8-1.8s.8-1.8 1.8-1.8h35.5c1 0 1.8.8 1.8 1.8s-.8 1.8-1.7 1.8z"/><path d="m77.5 59.3h-35.6c-1 0-1.8-.8-1.8-1.8s.8-1.8 1.8-1.8h35.5c1 0 1.8.8 1.8 1.8s-.8 1.8-1.7 1.8z"/><path d="m64 71.4h-22.1c-1 0-1.8-.8-1.8-1.8s.8-1.8 1.8-1.8h22.1c1 0 1.8.8 1.8 1.8s-.8 1.8-1.8 1.8z"/><path d="m59.7 83.3h-17.8c-1 0-1.8-.8-1.8-1.8s.8-1.8 1.8-1.8h17.8c1 0 1.8.8 1.8 1.8s-.8 1.8-1.8 1.8z"/></g></g><g><path d="m87.2 90.7c-.8 0-1.6-.3-2.3-.8-.2-.1-.4-.1-.5 0-1 .7-2.4 1-3.6.6-1-.3-1.8-1-2.3-2-.5-.9-.6-2-.2-3 .1-.2 0-.4-.2-.5-1-.7-1.6-1.9-1.6-3.2 0-1.1.4-2 1.2-2.8.7-.7 1.7-1.1 2.8-1.1.2 0 .4-.1.4-.3.4-1.2 1.3-2.2 2.5-2.5 1-.3 2.1-.2 3 .2.9.5 1.6 1.3 2 2.3.1.2.2.3.4.3 1.3 0 2.5.6 3.2 1.6.6.9.9 1.9.7 2.9s-.7 2-1.6 2.6c-.2.1-.2.3-.2.5.4 1.2.2 2.5-.6 3.6-.6.9-1.5 1.4-2.6 1.6-.1 0-.3 0-.5 0zm-2.6-4.3c.8 0 1.6.3 2.3.8.1.1.3.1.3.1.1 0 .2-.1.3-.2s.1-.3.1-.4c-.5-1.6 0-3.4 1.4-4.4.1-.1.2-.2.2-.3s0-.2-.1-.3-.2-.2-.4-.2c-1.7 0-3.2-1.1-3.8-2.7 0-.1-.1-.2-.2-.3-.1 0-.2-.1-.3 0-.1 0-.2.2-.3.3-.5 1.6-2 2.7-3.8 2.7-.3 0-.5.2-.5.4 0 .1.1.3.2.4 1.4 1 2 2.8 1.4 4.4v.3c0 .1.1.2.3.2.1 0 .3 0 .4-.1.9-.5 1.7-.7 2.5-.7z" fill="#250a66"/></g></svg>