<svg height="512" viewBox="0 0 64 64" width="512" xmlns="http://www.w3.org/2000/svg"><g id="Discount"><path d="m32 63c-1.2 0-2.278-1.1-3.322-2.157a6.59 6.59 0 0 0 -2.742-2.036 2.653 2.653 0 0 0 -.6-.065 9.31 9.31 0 0 0 -2.853.705 9.238 9.238 0 0 1 -2.819.7 2.238 2.238 0 0 1 -1-.211c-1.051-.512-1.525-1.894-2.027-3.357a6.768 6.768 0 0 0 -1.619-3.079 6.759 6.759 0 0 0 -3.354-.921c-1.52-.169-2.955-.329-3.678-1.244s-.558-2.352-.385-3.88a6.972 6.972 0 0 0 -.149-3.52 6.662 6.662 0 0 0 -2.592-2.267c-1.314-.827-2.55-1.6-2.812-2.77-.25-1.109.509-2.323 1.312-3.607a7.021 7.021 0 0 0 1.401-3.291 7.019 7.019 0 0 0 -1.4-3.288c-.805-1.287-1.564-2.5-1.314-3.61.262-1.164 1.5-1.943 2.806-2.766a6.672 6.672 0 0 0 2.6-2.267 6.958 6.958 0 0 0 .147-3.514c-.173-1.532-.336-2.975.383-3.883s2.159-1.076 3.678-1.245a6.756 6.756 0 0 0 3.355-.921 6.77 6.77 0 0 0 1.622-3.082c.5-1.464.976-2.847 2.03-3.36a2.229 2.229 0 0 1 1-.211 9.2 9.2 0 0 1 2.816.7 9.328 9.328 0 0 0 2.857.706 2.6 2.6 0 0 0 .6-.066 6.588 6.588 0 0 0 2.74-2.035c1.041-1.058 2.119-2.158 3.319-2.158s2.278 1.1 3.322 2.157a6.59 6.59 0 0 0 2.742 2.036 2.706 2.706 0 0 0 .6.065 9.333 9.333 0 0 0 2.848-.7 9.252 9.252 0 0 1 2.827-.7 2.25 2.25 0 0 1 1 .21c1.051.513 1.525 1.895 2.027 3.358a6.768 6.768 0 0 0 1.622 3.083 6.759 6.759 0 0 0 3.354.921c1.52.169 2.955.329 3.678 1.244s.558 2.352.385 3.88a6.972 6.972 0 0 0 .149 3.52 6.662 6.662 0 0 0 2.592 2.262c1.314.827 2.55 1.606 2.812 2.77.25 1.109-.509 2.323-1.312 3.607a7.021 7.021 0 0 0 -1.407 3.287 7.019 7.019 0 0 0 1.4 3.288c.8 1.287 1.564 2.5 1.314 3.61-.262 1.165-1.5 1.943-2.806 2.766a6.672 6.672 0 0 0 -2.6 2.267 6.958 6.958 0 0 0 -.149 3.514c.173 1.532.336 2.975-.383 3.883s-2.159 1.076-3.678 1.245a6.756 6.756 0 0 0 -3.355.921 6.77 6.77 0 0 0 -1.622 3.082c-.5 1.464-.976 2.847-2.03 3.36a2.235 2.235 0 0 1 -.994.21 9.224 9.224 0 0 1 -2.817-.7 9.31 9.31 0 0 0 -2.859-.7 2.742 2.742 0 0 0 -.595.063 6.6 6.6 0 0 0 -2.744 2.037c-1.043 1.054-2.121 2.154-3.321 2.154z" fill="#efc43a"/><circle cx="32" cy="32" fill="#ffdf57" r="21"/><circle cx="26" cy="26" fill="#efc43a" r="3"/><circle cx="38" cy="38" fill="#efc43a" r="3"/><g fill="#352d34"><path d="m60.239 32a6.516 6.516 0 0 1 1.247-2.759c.876-1.4 1.782-2.847 1.442-4.359-.354-1.569-1.826-2.5-3.25-3.393a6.309 6.309 0 0 1 -2.228-1.85 6.5 6.5 0 0 1 -.057-2.977c.188-1.661.381-3.38-.594-4.612s-2.7-1.434-4.352-1.618a6.288 6.288 0 0 1 -2.837-.7 6.422 6.422 0 0 1 -1.3-2.628c-.55-1.597-1.11-3.244-2.541-3.939-1.407-.683-3.022-.11-4.584.444a6.353 6.353 0 0 1 -2.9.61 6.269 6.269 0 0 1 -2.254-1.763c-1.131-1.151-2.415-2.456-4.031-2.456s-2.9 1.305-4.035 2.456a6.275 6.275 0 0 1 -2.253 1.763 6.332 6.332 0 0 1 -2.9-.61c-1.563-.555-3.179-1.128-4.584-.444-1.428.695-1.989 2.342-2.535 3.935a6.434 6.434 0 0 1 -1.3 2.628 6.292 6.292 0 0 1 -2.837.705c-1.657.184-3.369.375-4.353 1.618s-.784 2.949-.596 4.612a6.49 6.49 0 0 1 -.057 2.976 6.309 6.309 0 0 1 -2.228 1.85c-1.424.9-2.9 1.824-3.25 3.393-.34 1.511.566 2.959 1.441 4.358a6.516 6.516 0 0 1 1.248 2.76 6.516 6.516 0 0 1 -1.247 2.759c-.876 1.4-1.782 2.847-1.442 4.359.354 1.57 1.826 2.5 3.25 3.393a6.309 6.309 0 0 1 2.228 1.85 6.5 6.5 0 0 1 .057 2.977c-.188 1.662-.381 3.38.593 4.612s2.7 1.434 4.352 1.618a6.288 6.288 0 0 1 2.837.705 6.422 6.422 0 0 1 1.3 2.628c.546 1.592 1.11 3.239 2.537 3.934 1.407.682 3.021.11 4.584-.444a6.326 6.326 0 0 1 2.9-.61 6.269 6.269 0 0 1 2.254 1.763c1.136 1.156 2.42 2.456 4.036 2.456s2.9-1.3 4.035-2.456a6.275 6.275 0 0 1 2.253-1.763 6.365 6.365 0 0 1 2.9.61c1.563.554 3.177 1.126 4.584.444 1.427-.7 1.992-2.342 2.538-3.935a6.434 6.434 0 0 1 1.3-2.628 6.292 6.292 0 0 1 2.837-.7c1.657-.184 3.369-.375 4.353-1.618s.781-2.95.593-4.612a6.49 6.49 0 0 1 .057-2.976 6.309 6.309 0 0 1 2.228-1.85c1.424-.9 2.9-1.823 3.25-3.393.34-1.511-.566-2.959-1.441-4.358a6.516 6.516 0 0 1 -1.248-2.765zm.738 6.679c-.171.759-1.286 1.461-2.364 2.139a7.433 7.433 0 0 0 -2.967 2.68 7.62 7.62 0 0 0 -.24 4.064c.142 1.258.289 2.561-.175 3.147s-1.756.731-3.005.871a7.409 7.409 0 0 0 -3.871 1.136 7.515 7.515 0 0 0 -1.94 3.536c-.414 1.206-.841 2.453-1.521 2.784-.653.318-1.866-.113-3.04-.53a7.5 7.5 0 0 0 -4.014-.674 7.34 7.34 0 0 0 -3.23 2.309c-.901.914-1.831 1.859-2.61 1.859s-1.709-.945-2.61-1.859a7.337 7.337 0 0 0 -3.231-2.309 3.7 3.7 0 0 0 -.82-.089 9.963 9.963 0 0 0 -3.193.764c-1.173.416-2.386.847-3.04.529-.679-.331-1.107-1.578-1.52-2.783a7.511 7.511 0 0 0 -1.941-3.536 7.406 7.406 0 0 0 -3.871-1.136c-1.248-.14-2.539-.283-3-.871s-.318-1.889-.176-3.148a7.621 7.621 0 0 0 -.24-4.064 7.433 7.433 0 0 0 -2.967-2.68c-1.078-.678-2.193-1.38-2.364-2.139-.159-.709.525-1.8 1.186-2.86a7.669 7.669 0 0 0 1.548-3.819 7.676 7.676 0 0 0 -1.552-3.82c-.661-1.057-1.345-2.151-1.186-2.859.171-.758 1.286-1.461 2.364-2.139a7.433 7.433 0 0 0 2.967-2.682 7.62 7.62 0 0 0 .24-4.064c-.142-1.258-.289-2.561.175-3.147s1.756-.731 3-.871a7.409 7.409 0 0 0 3.871-1.136 7.515 7.515 0 0 0 1.94-3.536c.42-1.204.846-2.446 1.526-2.782.652-.32 1.866.113 3.04.53a7.511 7.511 0 0 0 4.014.674 7.34 7.34 0 0 0 3.23-2.309c.901-.914 1.831-1.859 2.61-1.859s1.709.945 2.61 1.859a7.337 7.337 0 0 0 3.231 2.309 7.48 7.48 0 0 0 4.013-.675c1.173-.416 2.385-.849 3.04-.529.679.331 1.107 1.578 1.52 2.783a7.511 7.511 0 0 0 1.941 3.536 7.406 7.406 0 0 0 3.871 1.136c1.248.14 2.539.283 3 .871s.318 1.889.176 3.148a7.621 7.621 0 0 0 .24 4.064 7.433 7.433 0 0 0 2.967 2.68c1.078.678 2.193 1.381 2.364 2.139.159.709-.525 1.8-1.186 2.86a7.669 7.669 0 0 0 -1.548 3.819 7.676 7.676 0 0 0 1.552 3.82c.661 1.057 1.345 2.151 1.186 2.859z"/><path d="m32 10a22 22 0 1 0 22 22 22.025 22.025 0 0 0 -22-22zm0 42a20 20 0 1 1 20-20 20.023 20.023 0 0 1 -20 20z"/><path d="m26 30a4 4 0 1 0 -4-4 4 4 0 0 0 4 4zm0-6a2 2 0 1 1 -2 2 2 2 0 0 1 2-2z"/><path d="m38 34a4 4 0 1 0 4 4 4 4 0 0 0 -4-4zm0 6a2 2 0 1 1 2-2 2 2 0 0 1 -2 2z"/><path d="m40.293 22.293-18 18a1 1 0 1 0 1.414 1.414l18-18a1 1 0 0 0 -1.414-1.414z"/></g></g></svg>