<svg clip-rule="evenodd" fill-rule="evenodd" height="512" image-rendering="optimizeQuality" shape-rendering="geometricPrecision" text-rendering="geometricPrecision" viewBox="0 0 512 512" width="512" xmlns="http://www.w3.org/2000/svg" xmlns:xodm="http://www.corel.com/coreldraw/odm/2003"><g id="Layer_x0020_1"><path d="m228.46 455.31h-85.43c-2.77 0-5-2.24-5-5v-103.51c0-2.76 2.23-5 5-5h85.43c2.77 0 5 2.24 5 5v103.51c0 2.76-2.23 5-5 5z" fill="#d84154"/><path d="m361.54 455.31h-70.57c-2.76 0-5-2.24-5-5v-158.81c0-2.77 2.24-5 5-5h70.57c2.76 0 5 2.23 5 5v158.81c0 2.76-2.24 5-5 5z" fill="#4684aa"/><path d="m228.46 248.32h-85.43c-2.77 0-5-2.24-5-5v-103.51c0-2.76 2.23-5 5-5h85.43c2.77 0 5 2.24 5 5v103.51c0 2.76-2.23 5-5 5z" fill="#4684aa"/><path d="m361.54 248.32h-70.57c-2.76 0-5-2.24-5-5v-63.3c0-2.76 2.24-5 5-5h70.57c2.76 0 5 2.24 5 5v63.3c0 2.76-2.24 5-5 5z" fill="#d84154"/><path d="m99.22 511.97h-28.2c-2.76 0-5-2.23-5-5 0-168.45 0-337.26 0-501.94 0-2.76 2.24-5 5-5h28.2c2.77 0 5 2.24 5 5v501.94c0 2.77-2.23 5-5 5z" fill="#a1695c"/><path d="m440.98 511.97h-28.2c-2.77 0-5-2.23-5-5 0-164.5 0-337.49 0-501.94 0-2.76 2.23-5 5-5h28.2c2.76 0 5 2.24 5 5v501.94c0 2.77-2.24 5-5 5z" fill="#a1695c"/><g fill="#cd885d"><path d="m461.03 273.68h-410.06c-2.76 0-5-2.23-5-5v-25.36c0-2.76 2.24-5 5-5h410.06c2.77 0 5 2.24 5 5v25.36c0 2.76-2.24 5-5 5z"/><path d="m461.03 66.69h-410.06c-2.76 0-5-2.24-5-5v-25.36c0-2.76 2.24-5 5-5h410.06c2.77 0 5 2.24 5 5v25.36c0 2.76-2.24 5-5 5z"/><path d="m461.03 480.67h-410.06c-2.76 0-5-2.23-5-5v-25.36c0-2.76 2.24-5 5-5h410.06c2.77 0 5 2.24 5 5v25.36c0 2.77-2.24 5-5 5z"/></g></g></svg>