<svg id="Scuba_Mask" enable-background="new 0 0 64 64" viewBox="0 0 64 64" xmlns="http://www.w3.org/2000/svg"><g><g><path d="m30.55143 60.7966h-11.73384c-8.753 0-15.87405-7.12006-15.87405-15.87109v-38.32433c0-1.8389 1.49201-3.32992 3.33091-3.32992s3.33091 1.49103 3.33091 3.32992v38.32432c0 5.07914 4.13309 9.21125 9.21223 9.21125h11.73384c1.8389 0 3.33091 1.49102 3.33091 3.32992s-1.49201 3.32993-3.33091 3.32993z" fill="#79b6ef"/><path d="m11.70116 50.75212c-1.63831-.27008-3.54659-.81015-5.52684-1.7283-1.13418-.52204-2.14233-1.11616-3.04246-1.71017-.12603-.77411-.18009-1.58425-.18009-2.39439v-29.75391c1.09825-.6662 2.35835-1.26021 3.72657-1.76434 1.02617-.37799 1.99827-.64807 2.93445-.84607v32.36433c0 2.19627.7741 4.23059 2.08837 5.83285z" opacity=".1"/><path d="m30.55167 61.68536h-11.73422c-9.24293 0-16.76279-7.51899-16.76279-16.76019v-38.32413c0-2.32636 1.8932-4.21869 4.21956-4.21869 2.32723 0 4.22043 1.89234 4.22043 4.21869v38.32413c0 4.58848 3.73346 8.3228 8.3228 8.3228h11.73421c2.32723 0 4.21956 1.89234 4.21956 4.21869.00001 2.32637-1.89233 4.2187-4.21955 4.2187zm-24.27745-57.52526c-1.34634 0-2.44181 1.0946-2.44181 2.44094v38.32413c0 8.26204 6.72213 14.98244 14.98504 14.98244h11.73421c1.34634 0 2.44181-1.09547 2.44181-2.44094s-1.09547-2.44094-2.44181-2.44094h-11.73421c-5.56937 0-10.10056-4.53119-10.10056-10.10056v-38.32413c.00001-1.34634-1.09547-2.44094-2.44267-2.44094z" fill="#101016"/><path d="m2.79375 1.66887h6.9614c1.05183 0 1.9045.85268 1.9045 1.9045v2.42033c0 1.05183-.85267 1.9045-1.9045 1.9045h-6.9614c-1.05183 0-1.9045-.85267-1.9045-1.9045v-2.42033c0-1.05183.85267-1.9045 1.9045-1.9045z" fill="#ffdc6e"/><path d="m9.75508 8.78677h-6.96171c-1.53991 0-2.79337-1.25345-2.79337-2.79336v-2.42011c0-1.53991 1.25346-2.79337 2.79337-2.79337h6.96171c1.53991 0 2.79336 1.25346 2.79336 2.79337v2.42011c0 1.53991-1.25345 2.79336-2.79336 2.79336zm-6.96171-6.22908c-.55989 0-1.01561.45572-1.01561 1.01561v2.42011c0 .55989.45572 1.01561 1.01561 1.01561h6.96171c.55989 0 1.01561-.45572 1.01561-1.01561v-2.42011c0-.55989-.45572-1.01561-1.01561-1.01561z" fill="#101016"/><path d="m36.429 62.33169h-7.90869c-1.60095 0-2.89878-1.29783-2.89878-2.89878v-3.93246c0-1.60095 1.29783-2.89878 2.89878-2.89878h7.90869c1.60095 0 2.89878 1.29783 2.89878 2.89878v3.93246c0 1.60095-1.29783 2.89878-2.89878 2.89878z" fill="#ffdc6e"/><path d="m36.42919 63.22006h-7.90874c-2.08851 0-3.78814-1.6979-3.78814-3.78641v-3.93398c0-2.08851 1.69963-3.7864 3.78814-3.7864h7.90874c2.08852 0 3.78814 1.69789 3.78814 3.7864v3.93398c0 2.08852-1.69962 3.78641-3.78814 3.78641zm-7.90874-9.72903c-1.10849 0-2.01039.90103-2.01039 2.00865v3.93398c0 1.10762.9019 2.00866 2.01039 2.00866h7.90874c1.10936 0 2.01039-.90103 2.01039-2.00866v-3.93398c0-1.10762-.90103-2.00865-2.01039-2.00865z" fill="#101016"/></g><g><path d="m41.94559 40.04239c0 5.46658-4.23968 8.73254-9.46959 8.73254s-9.46959-3.26596-9.46959-8.73254 4.23968-8.24864 9.46959-8.24864 9.46959 2.78206 9.46959 8.24864z" fill="#f0f0fc"/><path d="m41.94473 40.03465c0 5.48004-4.24004 8.74009-9.46006 8.74009-1.62001 0-3.14005-.31995-4.48015-.90003 3.78007-1.62001 6.56013-4.82 7.36019-8.64011.6399-3.03995-.16004-5.68-.88002-7.27999 4.26005.61999 7.46004 3.33999 7.46004 8.08004z" opacity=".1"/><path d="m32.47612 49.66296c-6.09888 0-10.35837-3.95655-10.35837-9.6214 0-5.55027 4.06592-9.13703 10.35837-9.13703 6.29158 0 10.3575 3.58676 10.3575 9.13703 0 5.66485-4.25862 9.6214-10.3575 9.6214zm0-16.98068c-4.14838 0-8.58061 1.934-8.58061 7.35928 0 5.41833 4.30984 7.84364 8.58061 7.84364s8.57974-2.42531 8.57974-7.84364c.00001-5.42528-4.43223-7.35928-8.57974-7.35928z" fill="#101016"/></g><g><path d="m47.13182 13.62304h-29.31206c-8.82481 0-15.97881 7.17131-15.97881 15.99623s5.5004 17.44096 15.97881 15.99623c8.70306-1.20103 10.32103-9.6081 14.65603-9.6081s5.95297 8.40708 14.65603 9.6081c10.47841 1.44474 15.97881-7.17131 15.97881-15.99623s-7.154-15.99623-15.97881-15.99623z" fill="#ea5385"/><path d="m63.105 29.62588c0 8.82017-5.50006 17.44026-15.98028 15.98016-4.87994-.67994-7.54-3.62003-9.68004-6.06 2.98001-2.76004 5.92011-6.70015 7.08003-12.12013 1.26003-5.80011-.05994-10.78015-1.27992-13.8002h3.87992c8.84019-.00001 15.98029 7.16011 15.98029 16.00017z" opacity=".1"/><path d="m49.3752 46.66299c-.77082 0-1.55901-.05555-2.36455-.16666-5.29333-.73089-8.09364-3.92182-10.34361-6.48776-1.52602-1.73956-2.73087-3.1128-4.19091-3.1128-1.46005 0-2.6649 1.37325-4.19005 3.1128-2.25084 2.56594-5.05115 5.75687-10.34448 6.48776-4.40966.60763-8.34103-.46006-11.35922-3.09024-3.52513-3.07287-5.63013-8.22732-5.63013-13.78714 0-9.31064 7.56674-16.88519 16.86783-16.88519h29.3121c9.30022.00001 16.86782 7.57456 16.86782 16.8852 0 5.55982-2.10414 10.71427-5.63013 13.78714-2.46872 2.14927-5.54333 3.25689-8.99467 3.25689zm-16.89908-11.54498c2.26385 0 3.77599 1.72394 5.52597 3.7187 2.16316 2.46524 4.61452 5.25861 9.25161 5.89923 3.88536.53471 7.32803-.38715 9.94778-2.6701 3.14405-2.74128 5.02077-7.39399 5.02077-12.44688 0-8.33062-6.76901-15.10743-15.09008-15.10743h-29.3121c-8.32107-.00001-15.09007 6.77681-15.09007 15.10743 0 5.05289 1.87671 9.7056 5.0199 12.44688 2.61976 2.28296 6.05981 3.20482 9.94865 2.6701 4.63709-.64062 7.08845-3.43398 9.25074-5.89923 1.75084-1.99476 3.26211-3.7187 5.52683-3.7187z" fill="#101016"/></g><g><path d="m49.39217 40.75398c-.50526 0-1.03398-.03731-1.57335-.11193-3.11259-.42958-4.77975-2.33018-6.70913-4.53031-2.004-2.28328-4.49833-5.12511-8.63424-5.12511s-6.62811 2.84077-8.63211 5.12511c-1.93151 2.20013-3.59867 4.10073-6.70913 4.53031-.53937.07462-1.07022.11193-1.57335.11193-6.86475 0-8.6982-6.99907-8.6982-11.13497 0-6.05143 4.91619-10.97508 10.95802-10.97508h29.31165c6.04184 0 10.95802 4.92365 10.95802 10.97508 0 3.10299-.89327 6.05356-2.4517 8.09487-1.53922 2.01678-3.64129 3.0401-6.24648 3.0401z" fill="#b9eded"/><g fill="#fff"><path d="m29.64454 18.64578-13.04006 22.06018c-.35999.04004-.70008.04004-1.04005.04004-3.26005 0-5.40008-1.57997-6.74006-3.72001l10.88013-18.38021z" opacity=".4"/><path d="m55.36492 22.42585-10.24023 17.32014c-1.55995-.83997-2.72-2.17995-4.01994-3.64005-.34009-.38001-.68006-.78004-1.06007-1.17995l9.46007-16.0202c2.32009.52003 4.38005 1.78005 5.86017 3.52006z" opacity=".4"/><path d="m37.48472 18.64578-7.54012 12.74013c-2.69998.83998-4.54009 2.93998-6.10004 4.72002-.58008.66004-1.16005 1.32008-1.74001 1.88002l11.44007-19.34018h3.9401z" opacity=".4"/></g><path d="m49.39256 41.64223c-.54513 0-1.11457-.03993-1.69442-.11979-3.44614-.47569-5.29681-2.58851-7.25685-4.82632-1.98261-2.25865-4.23085-4.82025-7.96517-4.82025-3.73172 0-5.97909 2.55986-7.9617 4.81851-1.96525 2.23955-3.81853 4.35237-7.25858 4.82806-.58072.07986-1.15276.11979-1.69529.11979-7.56761 0-9.58668-7.55719-9.58668-12.02328 0-6.54158 5.31416-11.86355 11.84706-11.86355h29.31123c6.5329 0 11.84706 5.32198 11.84706 11.86355 0 3.29249-.96006 6.44002-2.63365 8.63443-1.71697 2.24824-4.05548 3.38885-6.95301 3.38885zm-16.91644-11.54411c4.53987 0 7.29156 3.13624 9.30196 5.42614 1.88539 2.15275 3.37322 3.85238 6.16311 4.23779 2.96524.41319 5.3541-.4427 6.99123-2.5885 1.44269-1.8906 2.26907-4.64404 2.26907-7.55459 0-5.56156-4.5173-10.0858-10.06931-10.0858h-29.31124c-5.55201 0-10.06931 4.52424-10.06931 10.0858 0 3.80551 1.64494 10.24552 7.80892 10.24552.4644 0 .95485-.03299 1.45224-.10243 2.78295-.38541 4.27425-2.08504 6.16224-4.23779 2.013-2.29164 4.7647-5.42614 9.30109-5.42614z" fill="#101016"/></g></g></svg>