<svg id="Capa_1" enable-background="new 0 0 512 512" height="512" viewBox="0 0 512 512" width="512" xmlns="http://www.w3.org/2000/svg"><g><g><path d="m134.78 504.5h-48.487v-23.49c0-33.287 19.604-63.645 49.944-77.34l205.535-92.777c21.534-9.72 35.448-31.267 35.448-54.894s-13.914-45.174-35.448-54.894l-205.535-92.775c-30.339-13.695-49.944-44.053-49.944-77.34v-23.49h48.488v23.49c0 14.266 8.402 27.276 21.405 33.146l205.535 92.776c38.871 17.546 63.987 56.44 63.987 99.088s-25.117 81.542-63.987 99.088l-205.535 92.776c-13.003 5.87-21.405 18.88-21.405 33.146v23.49z" fill="#91dafa"/></g><g><path d="m346.851 361.799-58.929-26.599-122.769 55.417 58.929 26.599z" fill="#75cff9"/></g><g><g><path d="m425.707 7.5v23.486c0 33.295-19.607 63.65-49.942 77.348l-60.842 27.456-58.923-26.597 99.814-45.053c13.001-5.869 21.405-18.88 21.405-33.154v-23.486z" fill="#b7e546"/></g><g><path d="m256 109.193 58.923 26.598 31.926-14.408-58.927-26.598z" fill="#abd641"/></g><g><path d="m425.707 481.014v23.486h-48.487v-23.486c0-14.274-8.405-27.285-21.405-33.154l-205.538-92.773c-38.872-17.547-63.984-56.438-63.984-99.087s25.113-81.54 63.984-99.087l46.801-21.122 58.922 26.597-85.773 38.719c-21.537 9.719-35.447 31.265-35.447 54.893s13.91 45.174 35.447 54.892l205.538 92.773c30.335 13.698 49.942 44.054 49.942 77.349z" fill="#b7e546"/></g><g><g><path d="m224.08 176.798 31.92-14.41-58.923-26.597-31.924 14.408z" fill="#abd641"/></g></g></g><path d="m372.644 101.508-.7.319c-3.768 1.721-5.427 6.17-3.706 9.938 1.722 3.768 6.171 5.427 9.938 3.706l.669-.306c33.025-14.902 54.365-47.943 54.365-84.176v-23.489c0-4.142-3.357-7.5-7.5-7.5h-48.49c-4.143 0-7.5 3.358-7.5 7.5v23.49c0 .675-.027 1.345-.074 2.012h-83.341c-4.143 0-7.5 3.358-7.5 7.5s3.357 7.5 7.5 7.5h77.843c-2.89 3.961-6.783 7.207-11.423 9.302l-96.727 43.659-81.526-36.798h49.203c4.143 0 7.5-3.358 7.5-7.5s-3.357-7.5-7.5-7.5h-74.922c-3.92-4.837-6.25-10.896-6.441-17.325h81.363c4.143 0 7.5-3.358 7.5-7.5s-3.357-7.5-7.5-7.5h-81.395v-9.34c0-4.142-3.357-7.5-7.5-7.5h-48.487c-4.143 0-7.5 3.358-7.5 7.5v23.486c0 36.229 21.336 69.273 54.357 84.184l45.69 20.623-31.646 14.281c-41.553 18.762-68.404 60.34-68.404 105.926s26.851 87.164 68.404 105.926l31.646 14.284-45.686 20.623c-33.024 14.902-54.364 47.944-54.364 84.177v23.49c0 4.142 3.357 7.5 7.5 7.5h48.49c4.143 0 7.5-3.358 7.5-7.5v-23.49c0-.675.027-1.345.074-2.012h83.341c4.143 0 7.5-3.358 7.5-7.5s-3.357-7.5-7.5-7.5h-77.843c2.891-3.961 6.784-7.207 11.425-9.303l22.939-10.36c3.775-1.705 5.453-6.147 3.748-9.922-1.704-3.774-6.145-5.456-9.922-3.749l-22.939 10.36c-15.687 7.083-25.823 22.779-25.823 39.985v15.991h-33.49v-15.99c0-30.348 17.873-58.022 45.536-70.504l57.745-26.067 40.7 18.371-29.827 13.464c-3.775 1.704-5.454 6.146-3.75 9.922 1.252 2.774 3.982 4.416 6.841 4.416 1.031 0 2.08-.214 3.081-.666l41.885-18.908 81.523 36.797h-49.2c-4.143 0-7.5 3.358-7.5 7.5s3.357 7.5 7.5 7.5h74.919c3.922 4.838 6.254 10.897 6.444 17.325h-81.363c-4.143 0-7.5 3.358-7.5 7.5s3.357 7.5 7.5 7.5h81.395v9.339c0 4.142 3.357 7.5 7.5 7.5h48.49c4.143 0 7.5-3.358 7.5-7.5v-23.49c0-36.233-21.34-69.274-54.368-84.177l-5.99-2.7c-3.777-1.701-8.218-.021-9.92 3.756-1.702 3.776-.021 8.217 3.756 9.919l5.987 2.698c27.662 12.481 45.535 40.156 45.535 70.503v15.992h-33.49v-15.99c0-17.207-10.137-32.902-25.824-39.986l-205.529-92.77c-36.191-16.34-59.576-52.552-59.576-92.254s23.385-75.914 59.575-92.254l43.706-19.724 40.697 18.37-70.622 31.882c-24.217 10.928-39.866 35.157-39.866 61.726s15.648 50.798 39.864 61.726l167.649 75.68c1.002.452 2.05.666 3.081.666 2.858 0 5.589-1.642 6.841-4.416 1.704-3.775.025-8.217-3.75-9.922l-7.806-3.524 31.65-14.287c41.55-18.756 68.397-60.333 68.397-105.923s-26.848-87.167-68.397-105.923l-31.656-14.288 13.101-5.913c3.775-1.704 5.455-6.146 3.751-9.921s-6.146-5.457-9.921-3.75l-25.161 11.356-40.696-18.369 84.669-38.216c15.687-7.083 25.823-22.779 25.823-39.985v-15.991h33.49v15.99c.001 30.348-17.872 58.022-45.565 70.518zm-199.328 106.438 82.681-37.326 65.117 29.392h-34.81c-4.143 0-7.5 3.358-7.5 7.5s3.357 7.5 7.5 7.5h63.845c5.848 4.739 10.593 10.662 13.945 17.325h-77.79c-4.143 0-7.5 3.358-7.5 7.5s3.357 7.5 7.5 7.5h82.688c.474 2.835.727 5.73.727 8.663s-.253 5.827-.727 8.663h-82.688c-4.143 0-7.5 3.358-7.5 7.5s3.357 7.5 7.5 7.5h77.79c-5.333 10.6-14.188 19.331-25.408 24.394l-82.682 37.325-65.114-29.393h34.805c4.143 0 7.5-3.358 7.5-7.5s-3.357-7.5-7.5-7.5h-63.84c-5.373-4.353-9.814-9.706-13.1-15.712h76.94c4.143 0 7.5-3.358 7.5-7.5s-3.357-7.5-7.5-7.5h-82.392c-.668-3.347-1.023-6.784-1.023-10.275 0-2.933.253-5.827.727-8.663h82.688c4.143 0 7.5-3.358 7.5-7.5s-3.357-7.5-7.5-7.5h-77.788c5.333-10.6 14.189-19.33 25.409-24.393zm244.891 48.054c0 39.706-23.382 75.917-59.569 92.251l-43.707 19.73-40.697-18.371 70.624-31.881c24.215-10.926 39.862-35.156 39.862-61.729s-15.647-50.802-39.861-61.728l-205.536-92.773c-27.659-12.489-45.53-40.166-45.53-70.513v-15.986h33.487v15.986c0 17.212 10.135 32.909 25.819 39.989l205.538 92.773c36.188 16.335 59.57 52.546 59.57 92.252z"/></g></svg>