<svg id="Layer_1" viewBox="0 0 512 512" xmlns="http://www.w3.org/2000/svg" data-name="Layer 1"><g fill-rule="evenodd"><path d="m156.43 479.11c-4.92 4.58-13.71 3.29-19.63-2.9s-6.74-14.91-1.82-19.49c39.41-36.59 34-81.9 28.59-126.49-7.19-59.69-7.52-108 37.36-142.35 47.77-36.52 91.3-28.42 133.61-20.55 41.16 7.65 81 15.06 121.92-32.09 4.42-5.09 13.12-4.51 19.43 1.28s7.85 14.61 3.43 19.69c-48.71 56.11-95.22 47.46-143.32 38.52-37-6.89-75.12-14-115.68 17.35-37 28.6-35 72.52-29.08 121.57 6.11 50.46 12.28 101.75-34.81 145.46z" fill="#ffe177"/><path d="m32.88 355.56c-4.58 4.92-3.29 13.71 2.9 19.63s14.91 6.74 19.5 1.82c36.58-39.41 81.89-33.95 126.48-28.58 59.19 7.12 107.6 7.64 141.89-36.77 37.05-48 28.92-91.72 21-134.21-7.65-41.16-15.06-81 32.1-121.92 5.08-4.41 4.5-13.12-1.29-19.43s-14.61-7.85-19.69-3.43c-56.1 48.71-47.45 95.22-38.5 143.33 6.81 36.62 13.82 74.3-16.35 114.37-28.85 38.3-72.2 36.45-122.58 30.39s-101.75-12.29-145.46 34.8z" fill="#fe646f"/><path d="m473.31 151c-39.95 46-77.39 45.79-118.21 39-.67-3.83-1.39-7.61-2.06-11.35 36.8 5.51 73 3.83 109.47-38.18a2.44 2.44 0 0 1 1.79-.71 9.06 9.06 0 0 1 6.19 2.64c3.41 3.14 4 7.23 2.82 8.56zm-156 155.8c34.86-45.17 27.4-85.34 19.46-127.86-7.83-42-15.89-85.48 34.7-129.42a2.32 2.32 0 0 0 .71-1.79 9 9 0 0 0 -2.62-6.2c-3.13-3.42-7.22-4-8.53-2.8-52.65 45.72-44.91 87.46-35.94 135.79 6.79 36.45 14.5 77.76-17.79 120.65-21.87 29-50.82 36.94-84.14 36.94-14.49 0-29.85-1.5-45.78-3.42-17.23-2.08-34.15-4.11-50.54-4.11-31.49 0-61.19 7.47-88.11 36.45-1.19 1.24-.76 5.22 2.58 8.39a9.11 9.11 0 0 0 6.19 2.81 2.61 2.61 0 0 0 1.91-.67c17.71-19.06 39-30.05 65-33.55 22.47-3 45.74-.23 68.25 2.48 54.36 6.54 102 8.52 134.61-33.71zm-166.31 166.45c-1.23 1.17-5.2.74-8.38-2.57a9.26 9.26 0 0 1 -2.82-6.24 2.53 2.53 0 0 1 .68-1.87c34.82-32.33 36.88-71.46 33.91-107l6.47.77c1.67.2 3.33.41 5 .6 4 41.25 3.06 81.08-34.9 116.29zm7.18-119.41c1.39 15.23 1.95 30.66-.67 45.64l-45-45c14.57-2.53 29.9-2.07 45.66-.62zm-76.75 12a84.59 84.59 0 0 1 13.3-6.5l57.94 57.94a89.15 89.15 0 0 1 -6.48 13.31l-64.79-64.78zm124.37-171.61c37.41-28.61 72.23-27.75 102.41-23.34q.59 3.27 1.19 6.53c.32 1.64.63 3.27.91 4.91-28.43-3.7-60.75-2.93-94.86 23.41a85.33 85.33 0 0 0 -29.45 41.26 4.91 4.91 0 0 0 -.4 1.25c-6.63 20.55-6.39 43.11-4.52 64.71l-1.75-.21c-3.22-.39-6.47-.78-9.73-1.15-5-53.13 0-89.72 36.21-117.39zm-8.49 120.5c-1.71-18.37-1.95-34.59.43-48.85l32 32a7.93 7.93 0 0 0 5.63 2.34 8 8 0 0 0 5.68-13.65l-38.42-38.47a67.38 67.38 0 0 1 16.12-24.1l69.17 69.18c-22.6 23.24-53.45 25-90.61 21.51zm71.31-98.66 41.25 41.25a100.5 100.5 0 0 1 -11.87 23.34l-66.67-66.66c26.33-18 51.43-19.52 81.8-15.11 2 13.46 3 26.77 1.11 40.18l-34.3-34.31a8 8 0 1 0 -11.32 11.32zm81.38-54.07c16.79 2.82 32.48 4.36 47.73 1.41l-49.12-49.14c-3.06 15.49-1.39 31.21 1.39 47.73zm77.59-11.18-66.37-66.4a85 85 0 0 0 -7.15 12.67l60.87 60.85a86.42 86.42 0 0 0 12.67-7.14zm53.68-20.18a24.68 24.68 0 0 0 -17.91-6.82 18.27 18.27 0 0 0 -12.92 6.18 136.49 136.49 0 0 1 -10.33 10.72l-68.81-68.85a142.05 142.05 0 0 1 10.7-10.3 18.47 18.47 0 0 0 6.2-13 24.89 24.89 0 0 0 -6.83-17.91c-8.86-9.63-22.4-11.42-30.86-4.07-50.22 43.61-51.42 86.26-45.14 127.76-34.15-4.31-70.8-2.31-109.31 27.14-21.09 16.12-34.23 36.28-40.15 61.63-5.08 21.72-4.45 45.38-2.54 66.77-17.15-1.55-34.43-2.12-51.46.36-29.5 4.3-54 17.33-74.89 39.82-7.66 8.24-6.27 21.79 3.22 30.87a25.16 25.16 0 0 0 17.15 7.25h.61a18.46 18.46 0 0 0 13.14-5.76c2.38-2.55 4.77-4.88 7.23-7l68.17 68.2a89.68 89.68 0 0 1 -7 7.25 18.46 18.46 0 0 0 -5.77 13.12 25.06 25.06 0 0 0 7.23 17.74 25.32 25.32 0 0 0 18 8.16 18.66 18.66 0 0 0 12.89-4.9c42.11-39.08 44.11-83.51 40.18-126.37 49.2 4.34 94.94.63 127.94-42.08 30-38.86 31.84-75.87 27.59-109.94a205.92 205.92 0 0 0 31 2.65 124.7 124.7 0 0 0 26.57-2.7c25.77-5.6 48.76-20.35 70.24-45.1 7.32-8.46 5.53-22-4.12-30.84z" fill="#242222"/></g></svg>