<svg id="Capa_1" enable-background="new 0 0 512 512" height="512" viewBox="0 0 512 512" width="512" xmlns="http://www.w3.org/2000/svg"><g><path d="m458.032 472.174v-210.113l-202.032-202.032-202.032 202.032v210.113z" fill="#eab14d"/><path d="m425.707 229.736v242.439h32.325v-210.114s-23.636-23.636-32.325-32.325z" fill="#e7a52e"/><path d="m478.236 282.264-222.236-222.235-222.236 222.235-26.264-26.264 248.5-248.5 248.5 248.5z" fill="#d3effd"/><path d="m411.244 162.744c-5.819 10.985-12.354 21.999-19.574 32.955l86.565 86.565 26.265-26.264z" fill="#b2e5fb"/><path d="m41.846 472.174h428.309c4.463 0 8.081 3.618 8.081 8.081v16.163c0 4.463-3.618 8.081-8.081 8.081h-428.309c-4.463 0-8.081-3.618-8.081-8.081v-16.163c-.001-4.462 3.618-8.081 8.081-8.081z" fill="#d3effd"/><path d="m470.154 472.174h-38.386c4.463 0 8.081 3.618 8.081 8.081v16.163c0 4.463-3.618 8.081-8.081 8.081h38.386c4.463 0 8.081-3.618 8.081-8.081v-16.163c.001-4.462-3.618-8.081-8.081-8.081z" fill="#b2e5fb"/><path d="m345.198 472.174v-126.976c0-49.263-39.935-89.198-89.198-89.198s-89.198 39.935-89.198 89.198v126.976z" fill="#4172ca"/><path d="m308.528 219.301h-105.056c-4.463 0-8.081-3.618-8.081-8.081v-33.679c0-4.463 3.618-8.081 8.081-8.081h105.057c4.463 0 8.081 3.618 8.081 8.081v33.679c0 4.463-3.618 8.081-8.082 8.081z" fill="#f6e266"/><path d="m308.528 169.459h-24.244c4.463 0 8.081 3.618 8.081 8.081v33.679c0 4.463-3.618 8.081-8.081 8.081h24.244c4.463 0 8.081-3.618 8.081-8.081v-33.679c.001-4.463-3.617-8.081-8.081-8.081z" fill="#ffd064"/><path d="m472.937 287.563c1.464 1.465 3.384 2.197 5.303 2.197s3.839-.732 5.304-2.197l26.26-26.26c2.929-2.929 2.929-7.678 0-10.606l-121.75-121.75c-2.93-2.929-7.678-2.929-10.607 0s-2.929 7.678 0 10.606l116.446 116.447-15.653 15.653-216.937-216.926c-2.927-2.929-7.677-2.929-10.605 0l-119.07 119.06c-2.93 2.929-2.93 7.678-.001 10.607 2.929 2.928 7.678 2.929 10.606 0l7.435-7.434h38.253c-.007.194-.029.385-.029.581v33.679c0 .196.022.387.029.581h-73.094l2.658-2.658c2.929-2.929 2.929-7.678 0-10.606-2.93-2.929-7.678-2.929-10.607 0l-73.118 73.116-15.653-15.653 237.893-237.893 96.706 96.706c2.93 2.929 7.678 2.929 10.607 0s2.929-7.678 0-10.606l-102.009-102.01c-2.93-2.929-7.678-2.929-10.607 0l-248.5 248.5c-2.929 2.929-2.929 7.678 0 10.606l26.26 26.26c1.465 1.464 3.385 2.197 5.304 2.197s3.839-.732 5.304-2.197l7.404-7.404v184.511h-4.619c-8.597 0-15.59 6.994-15.59 15.59v16.16c0 8.591 6.993 15.58 15.59 15.58h428.3c8.597 0 15.59-6.989 15.59-15.58v-16.16c0-8.596-6.993-15.59-15.59-15.59h-4.618v-184.512zm-22.405 123.573h-97.834v-34.832h97.834zm-276.23 53.534v-119.472c0-45.048 36.649-81.698 81.698-81.698s81.698 36.65 81.698 81.698v119.472zm-112.834-188.038h126.415c-9.827 9.763-17.571 21.617-22.506 34.831h-103.909zm0 49.831h99.662c-1.195 6.063-1.828 12.326-1.828 18.735v16.106h-97.834zm0 49.841h97.834v34.832h-97.834zm389.064-15h-97.834v-16.106c0-6.409-.633-12.672-1.828-18.735h99.662zm0-49.841h-103.91c-4.935-13.214-12.679-25.068-22.506-34.831h126.415v34.831zm-126.452-134.504h38.248l34.843 34.841h-73.091c.007-.194.029-.385.029-.581v-33.679c0-.196-.022-.386-.029-.581zm-68.08-106.323 41.494 41.492h-82.989zm-56.497 56.492h112.991l34.833 34.832h-38.799-105.056-38.803zm3.388 84.092v-33.68c0-.32.261-.581.581-.581h105.057c.32 0 .581.261.581.581v33.679c0 .32-.261.581-.581.581h-105.057c-.321.001-.581-.26-.581-.58zm.581 15.581h105.057 103.644l34.833 34.831h-142.4c-14.291-8.344-30.899-13.132-48.606-13.132s-34.315 4.789-48.605 13.132h-142.401l34.832-34.831zm267.268 253.458v16.16c0 .32-.265.58-.59.58h-428.3c-.325 0-.59-.26-.59-.58v-16.16c0-.325.265-.59.59-.59h12.021c.032 0 .064.005.097.005s.064-.004.097-.005h30.895c4.143 0 7.5-3.358 7.5-7.5s-3.357-7.5-7.5-7.5h-23.492v-38.534h97.834v38.534h-39.342c-4.143 0-7.5 3.358-7.5 7.5s3.357 7.5 7.5 7.5h350.19c.325.001.59.265.59.59zm-118.042-15.589v-38.534h97.834v38.534z"/></g></svg>