<svg id="Capa_1" enable-background="new 0 0 512 512" height="512" viewBox="0 0 512 512" width="512" xmlns="http://www.w3.org/2000/svg"><g><g><path d="m308.325 50.675h31.566c36.784 0 69.457 23.497 81.164 58.368l18.959 56.476c1.229 3.661 1.856 7.498 1.856 11.36 0 19.713-15.981 35.694-35.694 35.694h-97.851z" fill="#e0bba4"/></g><g><path d="m411.565 171.146c0-34.221-10.903-66.69-31.53-93.897-6.982-9.209-15.007-17.582-23.822-25-5.309-1.03-10.768-1.575-16.323-1.575h-31.566v161.898h97.851c1.832 0 3.631-.139 5.389-.405v-41.021z" fill="#d8ab8c"/></g><g><path d="m203.675 50.675h-31.566c-36.784 0-69.457 23.497-81.164 58.368l-18.959 56.476c-1.229 3.661-1.856 7.498-1.856 11.36 0 19.713 15.981 35.694 35.694 35.694h97.851z" fill="#e0bba4"/></g><g><path d="m100.435 171.146c0-34.221 10.903-66.69 31.53-93.897 6.982-9.209 15.006-17.582 23.822-25 5.309-1.03 10.768-1.575 16.323-1.575h31.566v161.898h-97.851c-1.832 0-3.631-.139-5.389-.405v-41.021z" fill="#d8ab8c"/></g><g><path d="m293.372 45.23c-4.025-8.742-7.264-20.73-2.333-31.576-14.092 4.244-21.701 14.881-25.634 23.187-5.843-7.462-11.473-17.984-9.405-29.341-14.396 8.611-18.602 23.228-19.79 32.321-7.642-5.707-15.984-14.513-16.911-26.168-11.196 11.495-11.971 25.912-10.979 35.102-48.952 19.085-83.64 66.685-83.64 122.391v135.362h262.642v-135.362c-.001-59.541-39.631-109.819-93.95-125.916z" fill="#fef1da"/></g><g><path d="m302.091 48.159c30.957 24.021 50.884 61.576 50.884 103.794v154.555h34.346v-135.362c0-56.305-35.442-104.32-85.23-122.987z" fill="#f4e2c1"/></g><g><path d="m132.76 336.813h246.48v123.24h-246.48z" fill="#dbb56a"/></g><g><path d="m165.085 245.898c-50.211 0-90.915 40.704-90.915 90.915s40.704 90.915 90.915 90.915 90.915-40.704 90.915-90.915c0 50.211 40.704 90.915 90.915 90.915s90.915-40.704 90.915-90.915-40.704-90.915-90.915-90.915z" fill="#fdd79b"/></g><g><path d="m395.742 260.112c8.998 14.105 14.214 30.857 14.214 48.828 0 50.211-40.704 90.915-90.915 90.915-17.971 0-34.723-5.216-48.827-14.214 16.142 25.304 44.461 42.087 76.701 42.087 50.211 0 90.915-40.704 90.915-90.915-.001-32.24-16.783-60.558-42.088-76.701z" fill="#fccd7f"/></g><g><path d="m256 221.655c24.602 0 42.427 10.854 42.427 24.244s-16.402 34.346-42.427 34.346-42.427-20.956-42.427-34.346 17.825-24.244 42.427-24.244z" fill="#7a8c98"/></g><g><path d="m278.513 225.162c.016.285.036.57.036.858 0 13.39-16.402 34.346-42.427 34.346-7.595 0-14.364-1.793-20.151-4.654 5.437 11.911 19.833 24.533 40.03 24.533 26.025 0 42.427-20.956 42.427-34.346-.001-8.789-7.681-16.485-19.915-20.737z" fill="#596c76"/></g><g><path d="m223.534 176.938 11.491-19.199c12.132-20.27 7.968-46.324-9.878-61.802l-40.43-35.067c-36.123 23.397-60.038 64.035-60.038 110.277v29.481h57.068c17.125-.001 32.992-8.996 41.787-23.69z" fill="#c7865b"/></g><g><g><path d="m409.545 460.053h-121.22c4.463 0 8.081 3.618 8.081 8.081v28.285c0 4.463-3.618 8.081-8.081 8.081h121.219c4.463 0 8.081-3.618 8.081-8.081v-28.285c.001-4.463-3.617-8.081-8.08-8.081z" fill="#e175a5"/></g><g><path d="m215.594 496.419v-28.285c0-4.463 3.618-8.081 8.081-8.081h-121.22c-4.463 0-8.081 3.618-8.081 8.081v28.285c0 4.463 3.618 8.081 8.081 8.081h121.219c-4.462 0-8.08-3.618-8.08-8.081z" fill="#e175a5"/></g></g><g><path d="m288.325 504.5h-64.65c-4.463 0-8.081-3.618-8.081-8.081v-28.285c0-4.463 3.618-8.081 8.081-8.081h64.65c4.463 0 8.081 3.618 8.081 8.081v28.285c0 4.463-3.618 8.081-8.081 8.081z" fill="#f6e266"/></g><g><path d="m288.325 460.053h-26.264c4.463 0 8.081 3.618 8.081 8.081v28.285c0 4.463-3.618 8.081-8.081 8.081h26.264c4.463 0 8.081-3.618 8.081-8.081v-28.285c0-4.463-3.618-8.081-8.081-8.081z" fill="#ffd064"/></g><g><path d="m409.545 460.053h-26.265c4.463 0 8.081 3.618 8.081 8.081v28.285c0 4.463-3.618 8.081-8.081 8.081h26.264c4.463 0 8.081-3.618 8.081-8.081v-28.285c.001-4.463-3.617-8.081-8.08-8.081z" fill="#de5791"/></g><g><circle cx="371.224" cy="293.054" r="6.061"/><ellipse cx="395.4" cy="316.092" rx="6.061" ry="6.061" transform="matrix(.383 -.924 .924 .383 -47.944 560.431)"/><path d="m362.858 318.652c-3.347 0-6.061 2.714-6.061 6.061s2.714 6.061 6.061 6.061 6.061-2.714 6.061-6.061-2.713-6.061-6.061-6.061z"/><circle cx="140.776" cy="293.054" r="6.061"/><circle cx="116.6" cy="316.092" r="6.061"/><path d="m149.142 318.652c-3.347 0-6.061 2.714-6.061 6.061s2.714 6.061 6.061 6.061 6.061-2.714 6.061-6.061-2.714-6.061-6.061-6.061z"/><path d="m445.33 336.81c0-36.883-20.402-69.086-50.51-85.935v-30.801h11.356c23.817 0 43.194-19.377 43.194-43.194 0-4.682-.755-9.307-2.246-13.746l-18.959-56.476c-12.747-37.971-48.221-63.482-88.274-63.482h-30.02c-3.583-1.504-7.237-2.871-10.964-4.079-2.585-6.612-4.349-15.057-1.039-22.343 1.218-2.68.755-5.824-1.183-8.04s-4.994-3.091-7.811-2.243c-10.714 3.232-18.234 9.509-23.454 16.125-1.859-4.248-2.912-8.978-2.042-13.75.528-2.896-.687-5.832-3.106-7.509s-5.595-1.784-8.122-.272c-10.945 6.544-16.872 15.991-20.076 24.499-2.793-3.58-4.922-7.791-5.299-12.509-.234-2.934-2.162-5.459-4.931-6.458s-5.865-.286-7.918 1.822c-8.798 9.034-13.446 21.205-13.409 34.757h-28.409c-40.053 0-75.527 25.512-88.274 63.482l-18.959 56.476c-1.491 4.439-2.246 9.064-2.246 13.746 0 23.817 19.377 43.194 43.194 43.194h11.356v30.749c-30.222 16.87-50.51 49.182-50.51 85.988 0 40.1 24.109 74.671 58.59 89.992v25.748h-22.8c-8.596 0-15.59 6.989-15.59 15.58v28.29c0 8.591 6.994 15.58 15.59 15.58h233.02c4.142 0 7.5-3.357 7.5-7.5s-3.358-7.5-7.5-7.5h-31.603c.007-.194.029-.385.029-.581v-28.285c0-.197-.022-.389-.03-.584h105.665c.325 0 .59.26.59.58v28.29c0 .32-.265.58-.59.58h-39.06c-4.142 0-7.5 3.357-7.5 7.5s3.358 7.5 7.5 7.5h39.06c8.596 0 15.59-6.989 15.59-15.58v-28.29c0-8.591-6.994-15.58-15.59-15.58h-22.8v-25.748c34.481-15.323 58.59-49.893 58.59-89.993zm-339.506-131.737c-15.546 0-28.194-12.647-28.194-28.194 0-3.056.493-6.074 1.466-8.973l18.959-56.476c10.693-31.854 40.454-53.256 74.054-53.256h3.166c-12.848 9.188-24.1 20.559-33.287 33.758-16.229 23.317-24.808 50.71-24.808 79.218v33.923zm78.314-134.777 36.096 31.307c15.124 13.117 18.638 35.106 8.357 52.285l-11.492 19.198c-7.398 12.361-20.945 20.041-35.352 20.041h-49.567v-21.977c0-25.429 7.649-49.858 22.119-70.648 8.23-11.823 18.322-21.992 29.839-30.206zm23.985 426.704h-105.663c-.325 0-.59-.26-.59-.58v-28.29c0-.32.265-.58.59-.58h105.663c-.007.195-.03.387-.03.584v28.285c0 .196.022.387.03.581zm80.784-.581c0 .32-.261.581-.582.581h-64.65c-.321 0-.582-.261-.582-.581v-28.285c0-.32.261-.581.582-.581h64.65c.321 0 .582.261.582.581zm82.833-43.869h-231.48v-20.494c7.935 2.07 16.255 3.175 24.83 3.175 40.923 0 76.091-25.109 90.91-60.733 14.819 35.624 49.987 60.733 90.91 60.733 8.574 0 16.895-1.105 24.83-3.175zm-24.83-32.32c-45.993 0-83.41-37.423-83.41-83.421v-20.2c0-4.143-3.358-7.5-7.5-7.5s-7.5 3.357-7.5 7.5v20.2c0 45.998-37.417 83.421-83.41 83.421-45.998 0-83.42-37.423-83.42-83.421 0-44.231 34.56-80.809 78.678-83.271 4.136-.23 7.301-3.771 7.07-7.906-.23-4.137-3.783-7.306-7.906-7.07-9.552.533-18.722 2.426-27.332 5.477v-35.911h49.566c19.652 0 38.13-10.476 48.223-27.338l11.492-19.198c14.025-23.433 9.231-53.427-11.399-71.32l-32.585-28.262c4.375-2.346 8.898-4.45 13.569-6.271 3.156-1.23 5.095-4.424 4.732-7.791-.529-4.908-.444-11.075 1.64-17.209 3.356 5.415 8.156 10.496 14.304 15.091 2.134 1.594 4.952 1.938 7.406.902s4.174-3.296 4.52-5.937c.682-5.209 2.341-11.567 6.144-17.275 1.82 5.99 5.072 12.027 9.704 17.944 1.603 2.047 4.152 3.117 6.734 2.831 2.584-.287 4.834-1.892 5.948-4.241 1.854-3.911 4.698-8.488 8.932-12.343.323 6.521 2.142 13.469 5.447 20.654.903 1.964 2.61 3.443 4.683 4.058 30.21 8.952 55.663 28.918 71.671 56.221 2.095 3.574 6.691 4.773 10.263 2.677 3.573-2.095 4.771-6.689 2.677-10.263-10.028-17.104-23.372-31.634-39.104-42.882h3.145c33.601 0 63.361 21.402 74.054 53.256l18.959 56.476c.973 2.898 1.466 5.917 1.466 8.973 0 15.547-12.648 28.194-28.194 28.194h-11.357v-33.923c0-12.235-1.597-24.371-4.748-36.07-1.077-3.999-5.188-6.367-9.192-5.292-4 1.077-6.369 5.192-5.292 9.192 2.808 10.428 4.232 21.251 4.232 32.17v72.915c-10.296-3.663-21.372-5.665-32.91-5.665h-42.285c-5.028-14.237-24.254-24.246-48.625-24.246s-43.597 10.009-48.625 24.246h-12.445c-4.142 0-7.5 3.357-7.5 7.5s3.358 7.5 7.5 7.5h12.268c4.527 15.992 22.574 34.344 48.802 34.344s44.275-18.352 48.802-34.344h42.108c45.998 0 83.42 37.417 83.42 83.409 0 45.997-37.422 83.419-83.42 83.419zm-55.983-174.331c0 9.465-13.26 26.846-34.927 26.846s-34.927-17.381-34.927-26.846c0-8.086 14.035-16.744 34.927-16.744s34.927 8.658 34.927 16.744z"/></g></g></svg>