<svg id="Layer_1" enable-background="new 0 0 512.004 512.004" viewBox="0 0 512.004 512.004" xmlns="http://www.w3.org/2000/svg"><g><g><path d="m288.732 288.507s26.238 50.765 50.171 61.099l-14.025 59.831-11.565 18.074c-2.106 3.291.258 7.61 4.165 7.61h21.801c4.325 0 8.166-2.762 9.543-6.862l19.3-57.481-2.023-86.44-41.221-6.68z" fill="#c86d36"/><path d="m135.766 305.444-42.02 122.867c-1.393 4.072-5.221 6.809-9.525 6.809h-21.165c-5.94 0-9.274-6.839-5.616-11.519l17.288-22.114s23.595-114.35 27.53-133.042z" fill="#c86d36"/><path d="m421.221 348.058-16.839-31.808s23.928-50.944 10.806-102.66-125.817-47.857-152.061-45.541-75.644-2.316-93.398-14.666c-17.753-12.35-55.575-74.873-77.96-76.416s-56.347 17.753-56.347 17.753l-4.631 17.753-14.616 5.284c-7.862 2.842-11.101 12.211-6.673 19.302l5.929 9.495c2.358 3.777 6.47 6.101 10.922 6.174l39.945.655 14.666 33.963s10.98 98.764 51.452 116.799c.06 41.395 2.908 103.804 2.908 103.804l-16.185 19.021c-2.732 3.211-.45 8.149 3.766 8.149h25.987c4.939 0 9.148-3.583 9.937-8.459l18.553-114.677c34.434.968 70.825-7.039 95.781-17.347 35.507-14.666 51.716-16.981 51.716-16.981s23.156 52.488 56.347 71.785l2.766 58.663-9.973 19.852c-1.652 3.288.739 7.164 4.418 7.164h18.876c4.61 0 8.632-3.132 9.76-7.603l16.057-63.609c1.346-5.337.666-10.984-1.909-15.849z" fill="#e08d63"/><path d="m205.873 165.099c-24.84-.11-53.25-2.98-65.82-11.72-15.66-10.89-46.94-60.83-69.46-73.5 7.29-2.07 14.72-3.36 21.18-2.91 22.38 1.54 60.2 64.06 77.96 76.41 7.64 5.32 21.15 9.2 36.14 11.72z" fill="#d77f4a"/><path d="m423.133 363.909-16.06 63.61c-1.13 4.47-5.15 7.6-9.76 7.6h-18.88c-3.68 0-6.07-3.88-4.42-7.16l8.74-17.4c0-.01 0-.01.01-.01l10.69-46.64c1.35-5.34.67-10.99-1.91-15.85l-13.11-24.77c-2.28-4.3-2.61-9.38-.89-13.94 5.92-15.61 18.2-55.45 7.97-95.76-7.11-28.04-43.5-40.92-79.51-46.47 42.86 1.43 100.06 10.53 109.18 46.47 13.13 51.72-10.8 102.66-10.8 102.66l16.84 31.81c2.57 4.86 3.25 10.51 1.91 15.85z" fill="#d77f4a"/><path d="m100.247 100.966c-7.12 1.463-11.832 8.294-10.616 15.46 3.571 21.042 13.861 59.761 40.747 53.454 25.944-6.085 5.311-48.568-4.372-65.942-2.464-4.421-7.519-6.722-12.476-5.703z" fill="#fee8c7"/><path d="m126.007 103.938c-2.464-4.421-7.519-6.721-12.476-5.703l-13.283 2.73c-.475.098-.937.223-1.389.367.771.758 1.45 1.627 1.995 2.606 8.597 15.426 25.822 50.642 11.419 62.606 4.987 3.508 10.96 5.012 18.106 3.336 25.943-6.085 5.311-48.568-4.372-65.942z" fill="#fce1be"/></g><g><path d="m51.078 115.925v4.31c0 4.142 3.358 7.5 7.5 7.5s7.5-3.358 7.5-7.5v-4.31c0-4.142-3.358-7.5-7.5-7.5s-7.5 3.358-7.5 7.5z"/><path d="m506.381 302.307c-58.456-15.121-83.806-90.261-84.066-91.055-.001-.003-.002-.005-.003-.007-6.607-24.902-32.526-41.087-77.068-48.099-39.079-6.153-78.423-2.953-82.78-2.567-27.659 2.445-73.903-3.237-88.448-13.357-5.825-4.051-15.683-16.225-25.217-27.998-23.021-28.43-40.549-48.638-56.507-49.736-24.372-1.688-59.108 17.877-60.575 18.711-1.76 1-3.041 2.669-3.552 4.627l-3.634 13.933-10.908 3.946c-5.888 2.128-10.438 6.743-12.483 12.661s-1.316 12.358 2 17.665l5.935 9.508c3.729 5.957 10.144 9.58 17.155 9.689l35.097.571 12.316 28.519c.645 5.259 3.627 27.46 10.664 51.761 3.052 10.539 6.425 19.96 10.108 28.259-3.35 15.979-13.776 66.415-19.916 96.144-.838 4.057 1.771 8.024 5.828 8.862.512.106 1.022.157 1.525.157 3.483 0 6.605-2.439 7.337-5.984 4.632-22.422 11.701-56.625 16.33-78.921 5.897 8.573 12.376 14.951 19.411 19.11.008 1.684.021 3.393.037 5.124l-38.32 112.055c-.354 1.038-1.328 1.734-2.423 1.734h-20.404l16.812-21.511c2.551-3.264 1.973-7.977-1.291-10.528-3.264-2.55-7.977-1.971-10.528 1.291l-17.279 22.108c-3.476 4.444-4.099 10.354-1.628 15.424 2.47 5.068 7.507 8.216 13.146 8.216h21.17c7.511 0 14.189-4.776 16.617-11.883l25.064-73.29c.649 21.203 1.442 39.921 1.795 47.891l-14.272 16.773c-3.181 3.739-3.878 8.829-1.819 13.285 2.06 4.457 6.388 7.225 11.297 7.225h25.987c8.665 0 15.958-6.208 17.341-14.761l17.519-108.287c35.989-.118 70.883-9.173 92.276-18.001 3.259-1.346 6.332-2.575 9.261-3.716 2.897 5.147 7.58 13.089 13.364 21.557 11.275 16.507 21.89 27.933 31.639 34.077l-12.426 52.989-10.865 16.983c-2.455 3.829-2.624 8.688-.441 12.68 2.185 3.996 6.371 6.479 10.926 6.479h21.8c7.549 0 14.239-4.81 16.65-11.973l18.951-56.44 1.525 32.283-9.097 18.101c-1.953 3.883-1.756 8.412.526 12.114 2.284 3.704 6.244 5.915 10.594 5.915h18.88c8.055 0 15.059-5.454 17.032-13.264l16.062-63.621c1.794-7.152.887-14.674-2.556-21.184l-16.84-31.81c-1.939-3.661-6.478-5.06-10.138-3.12-3.661 1.938-5.058 6.477-3.12 10.138l16.839 31.807c1.708 3.229 2.157 6.964 1.269 10.508l-16.06 63.608c-.288 1.141-1.312 1.938-2.489 1.938h-14.735l8.117-16.152c.579-1.152.852-2.434.79-3.722l-2.771-58.66c-.119-2.542-1.521-4.85-3.721-6.129-24.728-11.793-54.38-68.022-53.405-68.65-4.145-8.302-2.478-23.56-1.484-28.739.784-4.063-1.872-7.995-5.936-8.784-4.069-.785-8.002 1.868-8.791 5.934-.378 1.946-2.988 16.373-.212 29.4-8.433 2.158-23.162 6.625-44.863 15.59-19.567 8.074-51.208 16.348-84.121 16.842l3.769-23.296c.662-4.089-2.117-7.94-6.206-8.602-4.089-.659-7.939 2.117-8.602 6.206l-23.719 146.607c-.202 1.249-1.268 2.156-2.533 2.156h-20.457l12.602-14.81c1.23-1.446 1.867-3.305 1.78-5.202-1.411-30.923-2.846-73.732-2.903-103.293 0-.011 0-.022 0-.033-.029-15.612.326-27.525 1.274-32.028.853-4.053-1.741-8.031-5.794-8.884-4.058-.854-8.031 1.742-8.884 5.794-.805 3.826-1.256 11.232-1.459 20.712-22.865-22.861-34.061-80.323-36.633-103.357-.083-.738-.274-1.461-.569-2.143l-14.67-33.97c-1.169-2.707-3.815-4.478-6.763-4.525l-39.944-.65c-1.911-.03-3.66-1.021-4.675-2.643l-5.932-9.503c-1.239-1.982-.874-3.87-.546-4.819s1.207-2.659 3.407-3.454l14.62-5.29c2.322-.84 4.082-2.77 4.706-5.16l3.812-14.617c10.787-5.71 34.362-16.336 49.396-15.294 6.681.459 17.475 10.874 28.054 22.847.049.097.09.195.143.291 12.867 23.086 18.605 42.534 14.975 50.752-1.932 5.405-13.114 6.032-17.457 2.332-8.756-5.813-16.027-22.399-19.948-45.502-.692-4.083-4.566-6.832-8.649-6.139-4.084.693-6.833 4.565-6.139 8.649 3.31 19.503 10.584 44.961 26.439 55.489 21.294 13.633 47.554-1.976 41.027-29.258 5.906 6.902 11.195 12.459 15.746 15.623 11.479 7.987 31.78 12.083 46.79 14.112 17.733 2.398 37.484 3.116 51.544 1.872 36.453-3.221 133.413-2.333 144.13 39.915 6.268 24.686 3.369 49.312-.167 65.623-.877 4.048 1.693 8.041 5.741 8.918 4.04.877 8.041-1.691 8.919-5.741 2.229-10.287 3.565-20.316 4.036-30.054 1.086 1.773 2.218 3.567 3.408 5.378 19.906 30.3 45.071 50.104 72.774 57.27.63.163 1.262.241 1.883.241 3.337 0 6.382-2.244 7.256-5.624 1.038-4.009-1.372-8.101-5.382-9.139zm-146.423 40.158.636 27.174-18.88 56.228c-.353 1.048-1.33 1.752-2.432 1.752h-17.138l9.045-14.138c.458-.715.791-1.503.984-2.33l14.03-59.83c.829-3.536-.993-7.157-4.327-8.597-14.791-6.391-32.656-33.3-42.105-49.7l21.087-6.334c5.733 11.557 19.723 37.22 39.1 55.775z"/></g></g><g/><g/><g/><g/><g/><g/><g/><g/><g/><g/><g/><g/><g/><g/><g/></svg>