<svg height="512" viewBox="0 0 128 128" width="512" xmlns="http://www.w3.org/2000/svg"><g><path d="m61.8 6.386c-15.759 1.128-27.741 14.691-27.741 30.485a6.652 6.652 0 0 0 6.652 6.652h.209a6.816 6.816 0 0 0 6.815-6.816c0-8.367 6.128-15.723 14.447-16.625a16.269 16.269 0 0 1 18.083 16.166 15.236 15.236 0 0 1 -9.934 14.284l-31.813 11.812a6.842 6.842 0 0 0 -4.459 6.413v47.936a5 5 0 0 0 5 5h49.882a5 5 0 0 0 5-5v-80.445a29.945 29.945 0 0 0 -32.141-29.862z" fill="#ff415b"/><circle cx="64" cy="91.752" fill="#ffdd70" r="18.773"/><g><path d="m93.941 89.2a1.751 1.751 0 0 1 -1.75-1.75v-4.5a1.75 1.75 0 0 1 3.5 0v4.5a1.751 1.751 0 0 1 -1.75 1.75z"/><path d="m88.941 123.443h-49.882a6.758 6.758 0 0 1 -6.75-6.75v-47.936a8.627 8.627 0 0 1 5.6-8.053l31.813-11.812a13.544 13.544 0 0 0 8.793-12.644 14.519 14.519 0 0 0 -16.145-14.426c-7.225.783-12.885 7.322-12.885 14.885a8.575 8.575 0 0 1 -8.566 8.566h-.208a8.411 8.411 0 0 1 -8.4-8.4 32.789 32.789 0 0 1 7.639-21.027 1.75 1.75 0 0 1 2.683 2.248 29.284 29.284 0 0 0 -6.822 18.779 4.908 4.908 0 0 0 4.9 4.9h.208a5.071 5.071 0 0 0 5.066-5.066 18.018 18.018 0 1 1 36.03-.459 17.058 17.058 0 0 1 -11.075 15.925l-31.813 11.812a5.112 5.112 0 0 0 -3.318 4.772v47.936a3.254 3.254 0 0 0 3.25 3.25h49.882a3.254 3.254 0 0 0 3.25-3.25v-20a1.75 1.75 0 0 1 3.5 0v20a6.758 6.758 0 0 1 -6.75 6.75z"/><path d="m93.941 75.048a1.751 1.751 0 0 1 -1.75-1.75v-37.05a28.289 28.289 0 0 0 -8.991-20.639 27.948 27.948 0 0 0 -21.281-7.477 27.483 27.483 0 0 0 -13.044 4.405 1.75 1.75 0 0 1 -1.915-2.93 31 31 0 0 1 14.709-4.966 31.456 31.456 0 0 1 23.92 8.407 31.8 31.8 0 0 1 10.1 23.2v37.052a1.751 1.751 0 0 1 -1.748 1.748z"/><path d="m64 112.275a20.523 20.523 0 1 1 20.523-20.523 20.547 20.547 0 0 1 -20.523 20.523zm0-37.545a17.023 17.023 0 1 0 17.023 17.022 17.042 17.042 0 0 0 -17.023-17.022z"/></g></g></svg>