<svg clip-rule="evenodd" fill-rule="evenodd" height="512" image-rendering="optimizeQuality" shape-rendering="geometricPrecision" text-rendering="geometricPrecision" viewBox="0 0 512 512" width="512" xmlns="http://www.w3.org/2000/svg" xmlns:xodm="http://www.corel.com/coreldraw/odm/2003"><g id="Layer_x0020_1"><path d="m506.97 507.62h-501.94c-2.77 0-5-2.24-5-5v-493.24c0-2.76 2.23-5 5-5h501.94c2.77 0 5 2.24 5 5v493.24c0 2.76-2.23 5-5 5z" fill="#cd885d"/><path d="m471.62 471.94h-431.24c-2.76 0-5-2.24-5-5v-421.88c0-2.76 2.24-5 5-5h431.24c2.76 0 5 2.24 5 5v421.88c0 2.76-2.24 5-5 5z" fill="#e5ad74"/><path d="m261 471.94h-10v-431.88h10z" fill="#cd885d"/><path d="m30.39 131.17h-30.36v-51.87h35.35v51.87z" fill="#87593d"/><path d="m285.68 267.87c-2.76 0-5-2.23-5-4.99v-13.75c0-6.59 10-6.59 10 0v13.75c0 2.76-2.24 4.99-5 4.99z" fill="#cd885d"/><path d="m226.32 267.87c-2.76 0-5-2.23-5-4.99v-13.75c0-6.59 10-6.59 10 0v13.75c0 2.76-2.24 4.99-5 4.99z" fill="#cd885d"/><g fill="#87593d"><path d="m30.39 432.7h-30.36v-51.87h35.35v51.87z"/><path d="m506.97 432.7h-30.35v-51.87h35.35v51.87z"/><path d="m506.97 131.17h-30.35v-51.87h35.35v51.87z"/></g></g></svg>