<svg id="Capa_1" enable-background="new 0 0 510.461 510.461" height="512" viewBox="0 0 510.461 510.461" width="512" xmlns="http://www.w3.org/2000/svg"><g><g><path d="m502.774 155.579c0-20.098-16.293-36.391-36.391-36.391h-315.87c-30.904 0-55.957 25.053-55.957 55.957v69.519c0 14.985-12.148 27.133-27.133 27.133-32.992 0-59.736 26.745-59.736 59.736 0 32.992 26.745 59.736 59.736 59.736h313.701c34.072 0 61.693-27.621 61.693-61.693v-114.04c0-13.015 10.55-23.565 23.565-23.565 20.099 0 36.392-16.293 36.392-36.392z" fill="#eef5ff"/><path d="m502.77 155.576c0 10.05-4.07 19.15-10.66 25.73-6.58 6.59-15.68 10.66-25.73 10.66-13.01 0-23.56 10.55-23.56 23.57v114.04c0 34.07-27.62 61.69-61.7 61.69h-25c34.08 0 61.7-27.62 61.7-61.69v-114.04c0-13.02 10.55-23.57 23.56-23.57 10.05 0 19.15-4.07 25.73-10.66 6.59-6.58 10.66-15.68 10.66-25.73 0-20.1-16.29-36.39-36.39-36.39h25c20.1 0 36.39 16.29 36.39 36.39z" fill="#dfe9fb"/><path d="m255.069 502.963c-18.889-.012-34.192-15.335-34.18-34.224l.278-427.064c.012-18.889 15.335-34.192 34.224-34.18 18.889.012 34.192 15.335 34.18 34.224l-.278 427.064c-.012 18.889-15.334 34.192-34.224 34.18z" fill="#aa9ea9"/><path d="m289.57 41.696v.02l-.28 427.07c-.01 18.89-15.33 34.19-34.22 34.18-4.4 0-8.61-.84-12.47-2.36 12.69-4.99 21.68-17.35 21.69-31.82l.28-427.07c0-.01 0-.01 0-.02 0-14.48-9-26.86-21.71-31.84 3.88-1.53 8.11-2.36 12.53-2.36 18.88.01 34.18 15.32 34.18 34.2z" fill="#9b8e99"/><path d="m295.97 426.574-81.702-.053c-13.255-.009-23.993-10.761-23.984-24.016l.192-294.638c.009-13.255 10.761-23.993 24.016-23.984l81.702.053c13.255.009 23.993 10.761 23.984 24.016l-.192 294.638c-.009 13.255-10.761 23.993-24.016 23.984z" fill="#ffe8c8"/><path d="m320.18 107.956-.19 294.63c-.01 13.26-10.77 24-24.02 23.99l-24.37-.01c12.96-.32 23.38-10.94 23.39-23.98l.19-294.65c.01-13.19-10.62-23.9-23.79-24.02l24.8.02c13.26.01 24 10.76 23.99 24.02z" fill="#fdd9b4"/></g><g><path d="m466.38 111.69h-138.705l.002-3.732c.005-8.413-3.266-16.326-9.211-22.279-5.745-5.753-13.324-9.001-21.42-9.22l.024-34.759c0-22.98-18.695-41.688-41.672-41.7-.015 0-.029 0-.044 0-11.123 0-21.583 4.329-29.454 12.193-7.88 7.872-12.224 18.343-12.229 29.482l-.025 34.729c-8.095.208-15.677 3.446-21.43 9.192-5.953 5.945-9.235 13.854-9.241 22.268l-.003 3.826h-32.462c-34.986 0-63.45 28.468-63.45 63.46v69.51c0 10.83-8.811 19.641-19.64 19.641-17.953 0-34.836 6.99-47.543 19.687-12.695 12.695-19.687 29.579-19.687 47.542 0 17.976 6.993 34.861 19.684 47.541 12.691 12.703 29.576 19.699 47.546 19.699h39.61c4.142 0 7.5-3.357 7.5-7.5s-3.358-7.5-7.5-7.5h-39.61c-13.96 0-27.077-5.434-36.939-15.306-9.86-9.852-15.291-22.969-15.291-36.935 0-13.956 5.432-27.074 15.291-36.935 9.872-9.863 22.991-15.295 36.939-15.295 19.101 0 34.64-15.54 34.64-34.641v-69.51c0-26.721 21.734-48.46 48.45-48.46h32.453l-.167 257.08h-40.766c-4.142 0-7.5 3.357-7.5 7.5s3.358 7.5 7.5 7.5h40.756l-.002 3.732c-.005 8.413 3.266 16.326 9.211 22.279 5.745 5.753 13.324 9.001 21.42 9.22l-.024 34.734c-.013 22.994 18.683 41.712 41.672 41.725h.044c11.123 0 21.583-4.329 29.454-12.193 7.88-7.872 12.224-18.343 12.229-29.482l.025-34.729c8.095-.208 15.677-3.446 21.43-9.192 5.953-5.945 9.235-13.854 9.241-22.268l.003-3.826h53.632c38.157 0 69.2-31.039 69.2-69.19v-46.93c0-4.143-3.358-7.5-7.5-7.5s-7.5 3.357-7.5 7.5v46.93c0 29.881-24.314 54.19-54.2 54.19h-53.623l.167-257.08h138.715c15.93 0 28.89 12.96 28.89 28.89 0 7.724-3.004 14.977-8.467 20.431-5.447 5.456-12.7 8.46-20.423 8.46-17.126 0-31.06 13.938-31.06 31.069v32.11c0 4.143 3.358 7.5 7.5 7.5s7.5-3.357 7.5-7.5v-32.11c0-8.86 7.205-16.069 16.06-16.069 11.733 0 22.756-4.567 31.029-12.853 8.293-8.281 12.861-19.304 12.861-31.038.001-24.199-19.688-43.888-43.89-43.888zm-229.879-88.885c5.04-5.034 11.733-7.805 18.857-7.805h.028c14.714.009 26.684 11.986 26.684 26.716l-.024 34.712-53.4-.034.024-34.709c.004-7.134 2.785-13.839 7.831-18.88zm37.459 464.851c-5.04 5.034-11.733 7.805-18.857 7.805-.009 0-.02 0-.028 0-14.722-.009-26.692-11.993-26.684-26.716l.024-34.712 53.4.034-.024 34.709c-.004 7.134-2.785 13.839-7.831 18.88zm38.526-85.069c-.003 4.407-1.722 8.55-4.84 11.664-3.116 3.112-7.256 4.825-11.659 4.825-.003 0-.007 0-.011 0l-81.702-.053c-4.407-.003-8.55-1.722-11.664-4.841-3.115-3.118-4.828-7.263-4.825-11.67l.191-294.639c.003-4.407 1.722-8.55 4.84-11.664 3.116-3.112 7.256-4.825 11.659-4.825h.011l81.702.053c4.407.003 8.55 1.722 11.664 4.841 3.115 3.118 4.828 7.263 4.825 11.67z"/></g></g></svg>