<svg id="Layer_1" viewBox="0 0 512 512" xmlns="http://www.w3.org/2000/svg" data-name="Layer 1"><g fill-rule="evenodd"><path d="m359.35 157.5-27.83-48.19-186.45 107.69c-32.57 18.8-57.18 40.84-59.14 78.4l-.6 11.43a5 5 0 0 0 7.49 4.59z" fill="#484e53"/><path d="m351.72 149.88 48.2 27.83-107.65 186.45c-18.81 32.57-40.84 57.18-78.4 59.14l-11.43.6a5 5 0 0 1 -4.59-7.5z" fill="#484e53"/><path d="m482.29 21.27 11.32 11.33a21.87 21.87 0 0 1 0 30.87l-66.61 66.67-42.2-42.2 66.66-66.67a21.9 21.9 0 0 1 30.83 0z" fill="#ecba78"/></g><circle cx="376.94" cy="137.94" fill="#ffe177" r="58.6"/><circle cx="376.94" cy="137.94" fill="#f4f4f4" r="29.09"/><path d="m177.62 158.9 173.5 173.5a19.35 19.35 0 0 1 0 27.28 19.35 19.35 0 0 1 -27.28 0l-173.5-173.5a19.35 19.35 0 0 1 0-27.28 19.35 19.35 0 0 1 27.28 0z" fill="#ffe177" fill-rule="evenodd"/><path d="m387.88 156.85a21.08 21.08 0 1 1 0-29.82 20.94 20.94 0 0 1 0 29.82zm-41.14-41.14a37.09 37.09 0 1 0 52.45 0 36.84 36.84 0 0 0 -52.45 0zm137.26-53.9-51.1 51.1a66.39 66.39 0 0 0 -30.9-30.91l51.09-51.09a13.83 13.83 0 0 1 19.56 0l11.35 11.34a13.85 13.85 0 0 1 0 19.56zm-75.26 115.91a50.59 50.59 0 1 0 -35.74 14.82 50.66 50.66 0 0 0 35.78-14.82zm-118 90.94 42.37-73.38a66 66 0 0 0 38.15 13.22l-51.49 89.19-29-29zm54.02 81.34a11.26 11.26 0 0 1 -19.24 8l-173.52-173.48a11.29 11.29 0 0 1 16-16l24.92 24.92 40.7 40.7 107.86 107.92a11.17 11.17 0 0 1 3.28 8zm-63.4 14.12 10.13-17.55-29-29-58.91 102 5.92-.31c29.33-1.53 50.15-17.51 71.89-55.15zm-191.73-58.43 102-58.91-29-29-17.55 10.12c-37.64 21.74-53.62 42.57-55.15 71.89l-.3 5.92zm162.66-75.44 26.71 26.75 36.47-63.18-63.18 36.48zm54.49-95.72-95.23 55 29 29 74.77-43.16a66.22 66.22 0 0 1 -9-33.43 67.46 67.46 0 0 1 .41-7.41zm197.22-82.53a29.62 29.62 0 0 0 -8.71-21.09l-11.29-11.3a29.87 29.87 0 0 0 -42.19 0l-56.88 56.85a66.6 66.6 0 0 0 -71.61 35.82l-113.48 65.52-20.55-20.55a27.28 27.28 0 0 0 -38.58 38.58l10.21 10.22-13.84 8c-28.45 16.43-57.78 38.6-62.57 78.6l-62.51 36.07a8 8 0 0 0 4 14.93 7.92 7.92 0 0 0 4-1.07l53.28-30.76-.4 7.74a8 8 0 0 0 12 7.35l118.5-68.42 47.38 47.38-68.43 118.51a8 8 0 0 0 6.93 12h.42l9.37-.49-30.73 53.21a8 8 0 1 0 13.86 8l36.12-62.57c38.95-5.39 60.71-34.31 76.91-62.37l8-13.83 11 11a27.28 27.28 0 0 0 38.59-38.58l-21.35-21.35 59.68-103.4a66.6 66.6 0 0 0 47.31-76l56.85-56.85a29.62 29.62 0 0 0 8.71-21.15z" fill="#242222" fill-rule="evenodd"/></svg>