<svg clip-rule="evenodd" fill-rule="evenodd" height="512" image-rendering="optimizeQuality" shape-rendering="geometricPrecision" text-rendering="geometricPrecision" viewBox="0 0 512 512" width="512" xmlns="http://www.w3.org/2000/svg" xmlns:xodm="http://www.corel.com/coreldraw/odm/2003"><g id="Layer_x0020_1"><path d="m163.56 511.97h-67.66c-2.77 0-5-2.23-5-5v-58.76c0-2.76 2.23-5 5-5h67.66c2.76 0 5 2.24 5 5v58.76c0 2.77-2.24 5-5 5z" fill="#a76e4c"/><path d="m416.11 511.97h-67.66c-2.77 0-5-2.23-5-5v-58.76c0-2.76 2.23-5 5-5h67.66c2.76 0 5 2.24 5 5v58.76c0 2.77-2.24 5-5 5z" fill="#a76e4c"/><path d="m468.9 453.21h-425.8c-15.62 0-28.33-12.7-28.33-28.32v-396.54c0-15.62 12.71-28.32 28.33-28.32h425.8c15.62 0 28.33 12.7 28.33 28.32v396.54c0 15.62-12.71 28.32-28.33 28.32z" fill="#cd885d"/><path d="m460.36 434.52c9.69 0 17.59-7.9 17.59-17.59v-380.62c0-9.7-7.9-17.59-17.59-17.59h-408.72c-9.69 0-17.59 7.89-17.59 17.59v380.62c0 9.69 7.9 17.59 17.59 17.59z" fill="#e5ad74"/><g fill="#cd885d"><path d="m477.95 303.88v-10h-443.9v10zm0-144.52v-10h-443.9v10z"/><path d="m298.88 100.82h-85.76c-11.65 0-21.13-9.48-21.13-21.12v-16.14c0-2.76 2.24-4.99 5-4.99h118.02c2.76 0 5 2.23 5 4.99v16.14c0 11.64-9.48 21.12-21.13 21.12zm-96.89-32.26v11.13c0 6.14 5 11.13 11.13 11.13h85.76c6.14 0 11.13-4.99 11.13-11.12v-11.14z"/><path d="m298.88 247.75h-85.76c-11.65 0-21.13-9.48-21.13-21.13v-16.13c0-2.76 2.24-5 5-5h118.02c2.76 0 5 2.24 5 5v16.13c0 11.65-9.48 21.13-21.13 21.13zm-96.89-32.26v11.13c0 6.14 5 11.13 11.13 11.13h85.76c6.14 0 11.13-4.99 11.13-11.13v-11.13z"/><path d="m298.88 394.67h-85.76c-11.65 0-21.13-9.48-21.13-21.12v-16.13c0-2.77 2.24-5 5-5h118.02c2.76 0 5 2.23 5 5v16.13c0 11.64-9.48 21.12-21.13 21.12zm-96.89-32.25v11.13c0 6.13 5 11.12 11.13 11.12h85.76c6.14 0 11.13-4.99 11.13-11.12v-11.13z"/></g></g></svg>