<svg id="Layer_1" enable-background="new 0 0 512 512" viewBox="0 0 512 512" xmlns="http://www.w3.org/2000/svg"><g clip-rule="evenodd" fill-rule="evenodd"><g><path d="m225.24 215.668h-35.423c-5.508 0-10 4.492-10 10v61.612c0 5.508 4.492 10 10 10h35.423c5.508 0 10-4.492 10-10v-61.612c0-5.508-4.492-10-10-10z" fill="#636c77"/><path d="m123.958 233.776 48.357-21.607 45.087 21.607-44.736 155.099-45.593 17.981-47.851-17.981z" fill="#38a8d2"/><path d="m383.098 162.264v7.374c0 1.652 1.348 3 3 3h99.24c.847 0 1.577-.311 2.164-.922l7.082-7.374c1.115-1.161 1.115-2.995 0-4.156l-7.082-7.374c-.587-.611-1.316-.922-2.164-.922h-99.24c-1.652 0-3 1.348-3 3z" fill="#cad0d7"/><path d="m356.638 141.401h47.073c1.652 0 3 1.348 3 3v35.725c0 1.652-1.347 3-3 3h-47.073c-1.652 0-3-1.348-3-3v-35.725c0-1.652 1.347-3 3-3z" fill="#a9b0bb"/><path d="m263.416 116.946h69.487c24.925 0 45.317 20.393 45.317 45.317 0 24.925-20.392 45.317-45.317 45.317h-69.487z" fill="#cad0d7"/><path d="m46.47 90.751h224.754c5.508 0 10 4.492 10 10v123.025c0 5.508-4.492 10-10 10h-224.754c-16.463 0-29.89-13.427-29.89-29.89v-83.244c0-16.464 13.427-29.891 29.89-29.891z" fill="#66d4f1"/><g fill="#4fc0e8"><path d="m271.223 90.751h-53.822v143.025h53.822c5.508 0 10-4.492 10-10v-123.025c0-5.508-4.492-10-10-10z"/><path d="m79.222 388.875h102.922c8.903 0 16.187 7.284 16.187 16.187 0 8.903-7.284 16.187-16.187 16.187h-86.736c-8.903 0-16.187-7.284-16.187-16.187v-16.187z"/><path d="m113.625 269.599-23.178 80.358h34.731c4.523 0 8.354-2.883 9.608-7.228l17.41-60.358c.9-3.119.335-6.189-1.617-8.783s-4.745-3.988-7.991-3.988h-28.963z"/></g></g><path d="m183.97 205.169c0 3.863-3.138 6.997-7.002 6.997h-75.34c-3.858 0-6.997-3.134-6.997-6.997 0-3.868 3.139-7.002 6.997-7.002h75.34c3.864 0 7.002 3.134 7.002 7.002zm-89.339-85.815c0-3.868 3.139-7.002 6.997-7.002h75.34c3.863 0 7.002 3.134 7.002 7.002 0 3.863-3.138 6.997-7.002 6.997h-75.34c-3.858 0-6.997-3.134-6.997-6.997zm137.171 28.605c0-3.868 3.129-7.002 7.002-7.002h19.867c3.863 0 7.002 3.134 7.002 7.002 0 3.863-3.139 6.997-7.002 6.997h-19.867c-3.873 0-7.002-3.134-7.002-6.997zm0-28.605c0-3.868 3.129-7.002 7.002-7.002h19.867c3.863 0 7.002 3.134 7.002 7.002 0 3.863-3.139 6.997-7.002 6.997h-19.867c-3.873 0-7.002-3.134-7.002-6.997zm0 57.21c0-3.868 3.129-7.002 7.002-7.002h19.867c3.863 0 7.002 3.134 7.002 7.002 0 3.863-3.139 6.997-7.002 6.997h-19.867c-3.873 0-7.002-3.134-7.002-6.997zm33.87 28.605c0 3.863-3.139 6.997-7.002 6.997h-19.867c-3.873 0-7.002-3.134-7.002-6.997 0-3.868 3.129-7.002 7.002-7.002h19.867c3.864 0 7.002 3.134 7.002 7.002zm217.381-39.532h-69.924v-6.752h69.924l3.247 3.374zm-83.923 10.484h-16.37c1.223-4.418 1.882-9.063 1.882-13.863s-.659-9.444-1.882-13.862h16.37zm-66.809 24.455h-44.684v-76.634h44.684c21.128 0 38.322 17.189 38.322 38.317 0 21.132-17.194 38.317-38.322 38.317zm-58.682 26.196v-129.026h-49.817v129.025h49.817zm-45.978 63.505h-19.848l14.277-49.507h5.571zm-139.712 91.593 7.181-24.92h36.99c3.12 0 5.858-2.061 6.734-5.058l23.175-80.356c.612-2.113.193-4.39-1.139-6.15-1.318-1.755-3.388-2.79-5.59-2.79h-32.948l6.3-21.824h78.869l-40.703 141.1h-78.869zm102.802 23.189c0 5.063-4.122 9.19-9.19 9.19h-86.732c-5.068 0-9.19-4.127-9.19-9.19v-9.19h95.922c5.068 0 9.19 4.122 9.19 9.19zm-72.442-128.465-19.137 66.357h27.687l19.142-66.357zm-95.31-72.71v-83.245c0-12.62 10.272-22.892 22.892-22.892h8.889v129.025h-8.889c-12.62 0-22.892-10.268-22.892-22.888zm186.823-106.138h-141.038v129.025h141.039v-129.025zm291.23 59.666-9.961-10.376c-1.318-1.374-3.148-2.15-5.049-2.15h-72.912v-3.486c0-3.868-3.129-7.002-6.997-7.002h-29.56c-9.27-14.677-25.631-24.455-44.251-24.455h-44.684v-19.194c0-3.868-3.124-7.002-6.997-7.002h-234.75c-20.342 0-36.891 16.55-36.891 36.892v83.245c0 20.342 16.549 36.887 36.891 36.887h68.178l-42.109 146.007c0 .014-.009.023-.009.033l-.028.118c-.183.621-.282 1.271-.282 1.943v16.187c0 12.78 10.399 23.194 23.189 23.194h86.732c12.79 0 23.189-10.413 23.189-23.194 0-12.789-10.399-23.189-23.189-23.189h-.17l22.38-77.589h30.887c3.872 0 7.002-3.139 7.002-7.002v-56.509h38.981c3.873 0 6.997-3.134 6.997-6.997v-19.193h44.684c18.62 0 34.981-9.778 44.251-24.459h29.56c3.868 0 6.997-3.134 6.997-6.997v-3.487h72.912c1.901 0 3.732-.776 5.049-2.155l9.961-10.371c2.596-2.711 2.596-6.988-.001-9.699z"/></g></svg>