<svg height="512" viewBox="0 0 64 64" width="512" xmlns="http://www.w3.org/2000/svg"><g id="Drink"><path d="m21 63a4 4 0 0 1 -4-4v-34.343a3.971 3.971 0 0 1 1.172-2.828l6.828-6.829v-6h14v6l6.828 6.829a3.971 3.971 0 0 1 1.172 2.828v34.343a4 4 0 0 1 -4 4z" fill="#ebeeff"/><path d="m17 29h30v26h-30z" fill="#609aef"/><path d="m32 50a6.006 6.006 0 0 1 -6-6c0-2.622 3.925-7.687 6-10 2.075 2.313 6 7.378 6 10a6.006 6.006 0 0 1 -6 6z" fill="#4878d8"/><rect fill="#609aef" height="8" rx="1" width="20" x="22" y="1"/><g fill="#352d34"><path d="m46.535 21.122-6.535-6.536v-4.586h1a2 2 0 0 0 2-2v-6a2 2 0 0 0 -2-2h-18a2 2 0 0 0 -2 2v6a2 2 0 0 0 2 2h1v4.586l-6.535 6.536a4.968 4.968 0 0 0 -1.465 3.535v34.343a5.006 5.006 0 0 0 5 5h22a5.006 5.006 0 0 0 5-5v-34.343a4.968 4.968 0 0 0 -1.465-3.535zm-23.535-19.122h18v6h-18zm-4.121 20.536 6.828-6.829a1 1 0 0 0 .293-.707v-5h12v5a1 1 0 0 0 .293.707l6.828 6.829a3.017 3.017 0 0 1 .879 2.121v3.343h-28v-3.343a3.017 3.017 0 0 1 .879-2.121zm27.121 31.464h-28v-24h28zm-3 8h-22a3 3 0 0 1 -3-3v-3h28v3a3 3 0 0 1 -3 3z"/><path d="m32 51a7.008 7.008 0 0 0 7-7c0-3.593-5.615-9.954-6.256-10.668a1.031 1.031 0 0 0 -1.488 0c-.641.714-6.256 7.075-6.256 10.668a7.008 7.008 0 0 0 7 7zm0-15.475c2.184 2.59 5 6.566 5 8.475a5 5 0 0 1 -10 0c0-1.906 2.816-5.884 5-8.475z"/><path d="m32 48a1 1 0 0 0 0-2 2 2 0 0 1 -2-2 1 1 0 0 0 -2 0 4 4 0 0 0 4 4z"/></g></g></svg>