<svg id="Layer_1" viewBox="0 0 1000 1000" xmlns="http://www.w3.org/2000/svg" data-name="Layer 1"><path d="m429 245.64a106.47 106.47 0 0 0 -5.31-26.78 104.69 104.69 0 0 0 -5.69-13.86 108.59 108.59 0 0 0 -48.46-48.46 104.64 104.64 0 0 0 -13.85-5.76 106.39 106.39 0 0 0 -26.77-5.31q-3.72-.27-7.5-.27t-7.5.27a106.39 106.39 0 0 0 -26.77 5.31 104.64 104.64 0 0 0 -13.85 5.76 108.45 108.45 0 0 0 -48.5 48.46 104.69 104.69 0 0 0 -5.8 13.86 106.47 106.47 0 0 0 -5.31 26.78q-.27 3.72-.27 7.5t.27 7.5a106.39 106.39 0 0 0 5.31 26.77 104.69 104.69 0 0 0 5.77 13.85 107.44 107.44 0 0 0 15.23 22.67 109.44 109.44 0 0 0 10.6 10.61 107.89 107.89 0 0 0 22.68 15.18 104.64 104.64 0 0 0 13.85 5.76 106.39 106.39 0 0 0 26.77 5.31q3.72.27 7.5.27t7.5-.27a106.39 106.39 0 0 0 26.77-5.31 104.64 104.64 0 0 0 13.85-5.76 107.89 107.89 0 0 0 22.68-15.18 109.44 109.44 0 0 0 10.6-10.61 107.44 107.44 0 0 0 15.2-22.67 104.69 104.69 0 0 0 5.77-13.85 106.39 106.39 0 0 0 5.23-26.77q.27-3.72.27-7.5t-.27-7.5zm-72.06 93.36a92.93 92.93 0 0 1 -121.37-50.2v-.1-.1a92.89 92.89 0 0 1 0-71 92.92 92.92 0 0 1 171.69 0 92.89 92.89 0 0 1 0 71v.1.09a93.47 93.47 0 0 1 -50.32 50.21z"/><path d="m414.31 253.14a92.24 92.24 0 0 1 -7 35.46v.1.09a93.47 93.47 0 0 1 -50.37 50.21 92.93 92.93 0 0 1 -121.37-50.2v-.1-.1a92.89 92.89 0 0 1 0-71 92.92 92.92 0 0 1 171.69 0 92.53 92.53 0 0 1 7.05 35.54z" fill="#ffc400"/><path d="m250.37 189.62a7.48 7.48 0 0 1 -5.31-2.2l-33.7-33.7a7.5 7.5 0 0 1 10.64-10.61l33.71 33.71a7.5 7.5 0 0 1 -5.3 12.8z"/><path d="m221 260.64h-47.72a7.5 7.5 0 1 1 0-15h47.72a7.5 7.5 0 0 1 0 15z"/><path d="m216.66 365.36a7.51 7.51 0 0 1 -5.3-12.81l33.7-33.7a7.5 7.5 0 1 1 10.61 10.6l-33.67 33.71a7.48 7.48 0 0 1 -5.34 2.2z"/><path d="m321.38 408.74a7.5 7.5 0 0 1 -7.5-7.5v-47.68a7.5 7.5 0 0 1 15 0v47.68a7.5 7.5 0 0 1 -7.5 7.5z"/><path d="m426.1 365.36a7.48 7.48 0 0 1 -5.3-2.2l-33.71-33.71a7.5 7.5 0 1 1 10.61-10.6l33.7 33.7a7.51 7.51 0 0 1 -5.3 12.81z"/><path d="m469.48 260.64h-47.67a7.5 7.5 0 0 1 0-15h47.67a7.5 7.5 0 0 1 0 15z"/><path d="m392.39 189.62a7.5 7.5 0 0 1 -5.3-12.8l33.71-33.71a7.5 7.5 0 1 1 10.6 10.61l-33.7 33.7a7.48 7.48 0 0 1 -5.31 2.2z"/><path d="m321.38 160.21a7.5 7.5 0 0 1 -7.5-7.5v-47.71a7.5 7.5 0 1 1 15 0v47.68a7.5 7.5 0 0 1 -7.5 7.53z"/><path d="m283 167.85a7.5 7.5 0 0 1 -6.93-4.63l-10.64-25.68a7.5 7.5 0 0 1 13.86-5.75l10.64 25.69a7.5 7.5 0 0 1 -6.93 10.37z"/><path d="m235.54 217.56a7.46 7.46 0 0 1 -9.79 4l-6.7-2.77-19.05-7.79a7.5 7.5 0 0 1 5.74-13.86l19 7.88 6.67 2.76a7.52 7.52 0 0 1 4.13 9.78z"/><path d="m231.47 298.5-6.67 2.76-19 7.88a7.65 7.65 0 0 1 -2.87.57 7.5 7.5 0 0 1 -2.93-14.43l19-7.87 6.7-2.77a7.5 7.5 0 0 1 9.76 4v.1.1a7.51 7.51 0 0 1 -3.99 9.66z"/><path d="m272.31 379.11a7.52 7.52 0 0 1 -6.93-10.38l10.62-25.68a7.5 7.5 0 1 1 13.86 5.74l-10.64 25.69a7.52 7.52 0 0 1 -6.91 4.63z"/><path d="m370.46 379.11a7.52 7.52 0 0 1 -6.94-4.63l-10.64-25.69a7.5 7.5 0 1 1 13.86-5.74l10.64 25.68a7.52 7.52 0 0 1 -6.92 10.38z"/><path d="m446.78 305.08a7.5 7.5 0 0 1 -6.93 4.63 7.65 7.65 0 0 1 -2.87-.57l-19-7.88-6.67-2.76a7.5 7.5 0 0 1 -4.09-9.71v-.09-.1a7.5 7.5 0 0 1 9.76-4l6.7 2.77 19 7.87a7.5 7.5 0 0 1 4.1 9.84z"/><path d="m442.72 211-19 7.87-6.7 2.77a7.46 7.46 0 0 1 -9.79-4 7.5 7.5 0 0 1 4.06-9.79l6.71-2.85 19-7.88a7.5 7.5 0 0 1 5.72 13.88z"/><path d="m359.81 167.85a7.5 7.5 0 0 1 -6.93-10.37l10.64-25.69a7.5 7.5 0 0 1 13.86 5.75l-10.64 25.68a7.5 7.5 0 0 1 -6.93 4.63z"/><path d="m800.52 656.5-.66-.12-.4-.1v.29h2a6.63 6.63 0 0 1 -.94-.07zm0 0-.66-.12-.4-.1v.29h2a6.63 6.63 0 0 1 -.94-.07zm0 0-.66-.12-.4-.1v.29h2a6.63 6.63 0 0 1 -.94-.07zm0 0-.66-.12-.4-.1v.29h2a6.63 6.63 0 0 1 -.94-.07zm0 0-.66-.12-.4-.1v.29h2a6.63 6.63 0 0 1 -.94-.07zm0 0-.66-.12-.4-.1v.29h2a6.63 6.63 0 0 1 -.94-.07zm0 0-.66-.12-.4-.1v.29h2a6.63 6.63 0 0 1 -.94-.07zm99.48-14.93h-800a7.5 7.5 0 0 0 -7.5 7.5v245.93a7.5 7.5 0 0 0 7.5 7.5h800a7.5 7.5 0 0 0 7.5-7.5v-245.93a7.5 7.5 0 0 0 -7.5-7.5zm-7.5 245.89h-785v-230.89h785zm-92-231-.66-.12-.4-.1v.29h2a6.63 6.63 0 0 1 -.92-.03zm0 0-.66-.12-.4-.1v.29h2a6.63 6.63 0 0 1 -.92-.03zm0 0-.66-.12-.4-.1v.29h2a6.63 6.63 0 0 1 -.92-.03zm0 0-.66-.12-.4-.1v.29h2a6.63 6.63 0 0 1 -.92-.03zm0 0-.66-.12-.4-.1v.29h2a6.63 6.63 0 0 1 -.92-.03zm0 0-.66-.12-.4-.1v.29h2a6.63 6.63 0 0 1 -.92-.03z"/><g fill="#ffe0b2"><path d="m892.5 656.57v230.89h-18.11l-47.81-91.37-12.05-139.52z"/><path d="m498.84 887.46h-96.74l-45.73-57.12h103.53l15.36 22.54.19.27z"/><path d="m680.25 826.21-80.77 61.25h-82.48l-21.25-31.16h37a7.49 7.49 0 0 0 4.18-1.28l72.4-48.62z"/><path d="m857.45 887.46h-233.15l76.93-58.32c.2-.15.39-.3.57-.46a6.26 6.26 0 0 0 .52-.51l.09-.09 30.1-33.37 81.9 10.48z"/><path d="m699.32 688.77-131.91 48.33-25.21-25.21 16.55-26.75a7.49 7.49 0 0 0 0-7.86l-12.68-20.71h119.7z"/><path d="m543.57 681.17-16.66 26.94-39.56 35.17-47.15-24.96v-61.75h88.31z"/><path d="m425.2 656.57v58.77h-94.81l10.86-58.77z"/><path d="m445.74 815.34h-100.44l-10.07-19.23-5.67-65.77h95.64v61.35a7.49 7.49 0 0 0 2.2 5.3z"/><path d="m313.92 723.63 5.71 66.11-90.2-10.39-53.43-12.35 42.31-71.5a7.51 7.51 0 0 0 .66-6.22l-11.06-32.72h118.09l-12 64.75v.15c0 .2-.06.4-.08.6a6 6 0 0 0 0 .74 6.51 6.51 0 0 0 0 .77z"/><path d="m214.1 791.21-86.79 96.25h-19.81v-230.89h84.5l11.58 34.26-45.75 77.37a7.49 7.49 0 0 0 4.76 11.12z"/><path d="m382.88 887.46h-235.37l83.68-92.8 91.91 10.59 11 21.06a5.46 5.46 0 0 0 .53.87c.08.12.16.23.25.34l.08.09z"/></g><path d="m233.78 791.79-2.59 2.87-83.68 92.8-11.3 12.54a7.42 7.42 0 0 1 -5.38 2.47h-.41a7.39 7.39 0 0 1 -4.8-1.92 7.51 7.51 0 0 1 -.55-10.6l2.24-2.48 86.79-96.25-51.51-11.89a7.49 7.49 0 0 1 -4.76-11.12l45.78-77.37-11.61-34.27-1.72-5.1a7.51 7.51 0 0 1 4.72-9.47 7.13 7.13 0 0 1 2.1-.39h.59a7.51 7.51 0 0 1 6.82 5.1l3.34 9.9 11.06 32.72a7.51 7.51 0 0 1 -.66 6.22l-42.25 71.45 53.47 12.34.47.11a7.5 7.5 0 0 1 3.88 12.33z"/><path d="m342.38 650.43-1.13 6.14-10.86 58.77-1.45 7.86.62 7.14 5.67 65.77.13 1.49a7.51 7.51 0 0 1 -7.47 8.15 8.27 8.27 0 0 1 -.86 0l-3.93-.45-91.91-10.59-3.84-.44a7.5 7.5 0 0 1 1.72-14.91h.36l90.2 10.39-5.71-66.11a6.62 6.62 0 0 1 0-.77 6 6 0 0 1 0-.74 6.46 6.46 0 0 1 .11-.75l12-64.75 1.64-8.87a7.51 7.51 0 0 1 7.14-6.13h.45a6.41 6.41 0 0 1 1.15.12 7.49 7.49 0 0 1 5.97 8.68z"/><path d="m403.19 900.82a7.46 7.46 0 0 1 -4.48 1.64h-.62a7.54 7.54 0 0 1 -5.45-2.81l-9.76-12.19-47.88-59.85-.08-.09c-.09-.11-.17-.22-.25-.34a5.46 5.46 0 0 1 -.53-.87l-11-21.06-1.85-3.53a7.49 7.49 0 1 1 13.28-7l.7 1.34 10.07 19.23 1.77 3.38 9.3 11.62 45.73 57.12 2.26 2.82a7.51 7.51 0 0 1 -1.21 10.59z"/><path d="m735.14 791.79-2.63 2.92-30.1 33.37-.09.09a6.26 6.26 0 0 1 -.52.51c-.18.16-.37.31-.57.46l-76.93 58.32-17.78 13.48a7.48 7.48 0 0 1 -4.22 1.52h-.73a7.5 7.5 0 0 1 -4.11-13.46l2-1.53 80.77-61.25 11.48-8.7 2.64-2.93 21.08-23.37-51.43-11.9a7.49 7.49 0 0 1 -4.76-11.12l36.76-62.2 7.68-13-4.38-4.21-33.55-32.2-2.18-2.09a7.5 7.5 0 1 1 10.43-10.84l13.45 12.91 30.71 29.48.06.05.18.18a5.79 5.79 0 0 1 .48.51.75.75 0 0 1 .12.14 3.27 3.27 0 0 1 .28.37v.05a.24.24 0 0 1 .06.08l.08.12a3.61 3.61 0 0 1 .23.36l.06.11a3.65 3.65 0 0 1 .18.34.83.83 0 0 1 .07.13v.07a4.22 4.22 0 0 1 .18.45s0 0 0 .06v.1a.64.64 0 0 1 .06.18l.06.18s0 0 0 .07a4.72 4.72 0 0 1 .13.54s0 0 0 0q.06.3.09.6s0 .07 0 .11 0 0 0 .07a5.44 5.44 0 0 1 0 .57v.54a1.94 1.94 0 0 1 0 .24v.41a1.91 1.91 0 0 1 -.06.33 2.59 2.59 0 0 1 -.09.4s0 0 0 0a.2.2 0 0 1 0 .11 2.4 2.4 0 0 1 -.12.38 5.72 5.72 0 0 1 -.36.89 3.84 3.84 0 0 1 -.21.4.64.64 0 0 1 -.08.14l-42.24 71.67 53.6 12.37.33.08a7.5 7.5 0 0 1 3.88 12.33z"/><path d="m824.43 803.66a7.48 7.48 0 0 1 -5.19 2.09 7.57 7.57 0 0 1 -1-.06l-3.88-.5-81.9-10.48-3.89-.5a7.5 7.5 0 1 1 1.9-14.88h.4l80 10.25-11.39-133.01v-.29l-.57-6.57a7.5 7.5 0 0 1 6.82-8.12h.43.45a7.49 7.49 0 0 1 7.24 6.85l.7 8.15 12.05 139.52.13 1.51a7.48 7.48 0 0 1 -2.3 6.04z"/><path d="m873.33 901.61a7.43 7.43 0 0 1 -3 .85h-.69a7.49 7.49 0 0 1 -6.41-4l-5.75-11-43-82.27-1.82-3.47a7.5 7.5 0 0 1 13.3-7l.69 1.32 47.81 91.37 2.11 4a7.5 7.5 0 0 1 -3.24 10.2z"/><path d="m440.2 649.07v73.77a7.5 7.5 0 0 1 -7.5 7.5h-111.32a7.5 7.5 0 0 1 -7.46-6.71 6.62 6.62 0 0 1 0-.77 6 6 0 0 1 0-.74 6.46 6.46 0 0 1 .11-.75 7.5 7.5 0 0 1 7.35-6h103.82v-66.3a7.5 7.5 0 0 1 15 0z"/><path d="m664 779.32 51.51 11.89-21.08 23.37-84.43-23.58a7.51 7.51 0 0 0 -6.2 1l-73.38 49.3h-44.9l-15.42-22.61-.05-.08a1.77 1.77 0 0 0 -.16-.22 3 3 0 0 0 -.22-.28 5 5 0 0 0 -.53-.59l-28.94-28.94v-53.29l44.73 23.71a7.49 7.49 0 0 0 8.49-1l39-34.65 27.79 27.79a7.51 7.51 0 0 0 7.88 1.74l127.91-46.88-36.81 62.2a7.49 7.49 0 0 0 4.81 11.12z" fill="#ffe0b2"/><path d="m811 789.63-80-10.25-53.68-12.38 42.31-71.5a.64.64 0 0 0 .08-.14 3.84 3.84 0 0 0 .21-.4 5.72 5.72 0 0 0 .36-.89 2.4 2.4 0 0 0 .12-.38.2.2 0 0 0 0-.11s0 0 0 0a2.59 2.59 0 0 0 .09-.4 1.91 1.91 0 0 0 .06-.33c0-.14 0-.27 0-.41a1.94 1.94 0 0 0 0-.24c0-.18 0-.36 0-.54a5.44 5.44 0 0 0 0-.57s0-.05 0-.07 0-.07 0-.11q0-.3-.09-.6s0 0 0 0a4.72 4.72 0 0 0 -.13-.54s0 0 0-.07l-.06-.18a.64.64 0 0 0 -.06-.18v-.1s0 0 0-.06a4.22 4.22 0 0 0 -.18-.45v-.07a.83.83 0 0 0 -.07-.13 3.65 3.65 0 0 0 -.18-.34l-.06-.11a3.61 3.61 0 0 0 -.23-.36l-.08-.12a.24.24 0 0 0 -.06-.08v-.05a3.27 3.27 0 0 0 -.28-.37.75.75 0 0 0 -.12-.14 5.79 5.79 0 0 0 -.48-.51l-.18-.18-.06-.05-30.71-29.48h111.96z" fill="#ffe0b2"/><path d="m720.68 691.64v.54a1.94 1.94 0 0 1 0 .24v.41a1.91 1.91 0 0 1 -.06.33 2.59 2.59 0 0 1 -.09.4s0 0 0 0a.2.2 0 0 1 0 .11 2.4 2.4 0 0 1 -.12.38 5.72 5.72 0 0 1 -.36.89 3.84 3.84 0 0 1 -.21.4.64.64 0 0 1 -.08.14 7.45 7.45 0 0 1 -3.87 3.22l-19.89 7.3-127.93 46.83a7.51 7.51 0 0 1 -7.88-1.74l-27.79-27.79-39 34.65a7.49 7.49 0 0 1 -8.49 1l-44.71-23.66v53.29l28.94 28.94a5 5 0 0 1 .53.59 3 3 0 0 1 .22.28 1.77 1.77 0 0 1 .16.22l.05.08a7.5 7.5 0 0 1 -6.25 11.65h-123.09a7.45 7.45 0 0 1 -5.78-2.73 4.46 4.46 0 0 1 -.33-.43 5.46 5.46 0 0 1 -.53-.87 7.4 7.4 0 0 1 -.86-3.47 7.5 7.5 0 0 1 7.5-7.5h105l-18.36-18.34a7.49 7.49 0 0 1 -2.2-5.3v-68.86a7.5 7.5 0 0 1 11-6.63l4 2.11 47.15 25 39.56-35.17.81-.72a7.49 7.49 0 0 1 10.28.3l29.41 29.41 131.91-48.33 11.28-4.13a7.51 7.51 0 0 1 7.53 1.41l.06.05.18.18a5.79 5.79 0 0 1 .48.51.75.75 0 0 1 .12.14 3.27 3.27 0 0 1 .28.37v.05a.24.24 0 0 1 .06.08l.08.12a3.61 3.61 0 0 1 .23.36l.06.11a3.65 3.65 0 0 1 .18.34.83.83 0 0 1 .07.13v.07a4.22 4.22 0 0 1 .18.45s0 0 0 .06v.1a.64.64 0 0 1 .06.18l.06.18s0 0 0 .07a4.72 4.72 0 0 1 .13.54s0 0 0 0q.06.3.09.6s0 .07 0 .11 0 0 0 .07a5.44 5.44 0 0 1 .23.68z"/><path d="m517.26 901.16a7.51 7.51 0 0 1 -10.42-2l-8-11.73-23.39-34.31-.19-.27-15.36-22.51-2.24-3.28a7.5 7.5 0 0 1 11.48-9.54 5 5 0 0 1 .53.59 3 3 0 0 1 .22.28 1.77 1.77 0 0 1 .16.22l.05.08 15.42 22.61 10.23 15 21.25 31.16 2.24 3.28a7.5 7.5 0 0 1 -1.98 10.42z"/><path d="m558.75 685.14-16.55 26.75-3.12 5.05a7.5 7.5 0 1 1 -12.75-7.89l.58-.94 16.66-26.94-15.06-24.6-2.2-3.59a7.5 7.5 0 0 1 12.79-7.83l7 11.42 12.68 20.71a7.49 7.49 0 0 1 -.03 7.86z"/><path d="m704.06 825.07a7.36 7.36 0 0 1 -1.74 3.1 6.26 6.26 0 0 1 -.52.51c-.18.16-.37.31-.57.46a7.47 7.47 0 0 1 -6.41 1.14l-14.56-4.07-71-19.81-72.38 48.6a7.49 7.49 0 0 1 -4.18 1.28h-51.15a7.46 7.46 0 0 1 -6.1-3.15l-.19-.27a7.38 7.38 0 0 1 -1.21-4.08 7.5 7.5 0 0 1 7.5-7.5h48.87l73.37-49.28a7.51 7.51 0 0 1 6.2-1l84.39 23.56 4.48 1.25a7.49 7.49 0 0 1 5.2 9.26z"/><path d="m764 459.77c-5.14 73.78 12.58 148.35 25.93 181.8h-183.34c33.94-46.12 54.09-137.2 66.63-204.44a7.52 7.52 0 0 0 -2.38-7l-146.48-130.33 19.64-22.8 130.28 78.8a7.5 7.5 0 0 0 11.34-5.64c6.1-58.4 7.31-153 7.54-195.6l31.84 41.38a7.49 7.49 0 0 0 9.94 1.77l29.2-18.39v218.24a7.51 7.51 0 0 0 10.64 6.81l90-41.53-3.58 24.58-94.07 66.76a7.48 7.48 0 0 0 -3.13 5.59z" fill="#bcaaa4"/><path d="m881.57 351.32-6 41.44a7.48 7.48 0 0 1 -3.08 5l-93.78 66.55c-4.29 72.2 14.29 148.89 27.45 177.26.67 1.44 1.32 2.76 2 3.95a7.51 7.51 0 0 1 -6.6 11.05 6.63 6.63 0 0 1 -1-.07l-.66-.12-.4-.1a7.5 7.5 0 0 1 -4.56-3.66 110.51 110.51 0 0 1 -5-11c-13.35-33.45-31.07-108-25.93-181.8a7.48 7.48 0 0 1 3.14-5.59l94.07-66.76 3.58-24.58-90 41.53a7.51 7.51 0 0 1 -10.64-6.81v-218.29l-29.2 18.39a7.49 7.49 0 0 1 -9.94-1.77l-31.84-41.38c-.23 42.6-1.44 137.2-7.54 195.6a7.5 7.5 0 0 1 -11.34 5.64l-130.3-78.8-19.64 22.8 146.48 130.35a7.52 7.52 0 0 1 2.38 7c-12.54 67.24-32.69 158.32-66.63 204.44a105.14 105.14 0 0 1 -11 12.86 7.5 7.5 0 0 1 -10.48-10.73c.7-.69 1.4-1.4 2.09-2.13 39.42-41.77 62.21-158.49 70.54-203l-148.88-132.5a7.51 7.51 0 0 1 -.69-10.51l28.66-33.16a7.49 7.49 0 0 1 9.55-1.51l125.45 75.88c6.77-77.68 6.38-202.87 6.38-204.2a7.5 7.5 0 0 1 13.44-4.6l41.07 53.39 34.92-22a7.5 7.5 0 0 1 11.5 6.35v220.1l91.86-42.4a7.5 7.5 0 0 1 10.56 7.89z"/></svg>