<svg clip-rule="evenodd" fill-rule="evenodd" height="1.707in" image-rendering="optimizeQuality" shape-rendering="geometricPrecision" text-rendering="geometricPrecision" viewBox="0 0 1.70666 1.70666" width="1.707in" xmlns="http://www.w3.org/2000/svg"><g id="Layer_x0020_1"><path d="m.898783 1.38258h-.62302v.0485236h.62302zm.0406378.324063h-.704291c-.0746378 0-.135358-.0607244-.135358-.135358l-.00000394-.995736c0-.0746417.0607244-.135358.135358-.135358h.0688465v-.114843h-.0908307c-.025252 0-.0457795-.0205433-.0457795-.0457795l.00000394-.233776c0-.025252.0205394-.0457795.0457795-.0457795l.748252.00000394c.0252323 0 .0457874.0205394.0457874.0457795v.233772c0 .025248-.0205551.0457795-.0457874.0457795h-.0908228v.114843h.0688465c.0746417 0 .135374.0607244.135374.135358v.802681h.103291l-.00185827-.00180709-.00051969-.0005-.00063386-.00066535c-.0556772-.0563937-.0554646-.147535.00064961-.203665.0272913-.0272913.0635669-.0423189.10215-.0423189.0385984 0 .0748858.0150276.102165.0423189.0563346.0563465.0563346.14798 0 .204331-.00077953.00077953-.00156693.00154724-.00235827.00230709h.0650079c.0905551 0 .164209.0736772.164209.164217 0 .0905394-.0736535.164197-.164209.164197h-.179535-.323732zm-.704291-1.22645c-.0525827 0-.0953583.0427756-.0953583.0953583v.995732c0 .0525827.0427756.0953465.0953583.0953465h.704291c.0443661 0 .081752-.0304449.0923504-.0715433l.00056299-.00227953v-.00001575l.00050394-.00229921v-.00001575c.00015748-.00077165.00031102-.00154331.00044882-.0023189v-.00001575l.00038976-.00233858v-.00001575l.00033465-.00235827v-.00001575c.00009843-.00079134.00019685-.00158268.00027559-.00237795v-.00001575c.00008268-.00079528.00015354-.00159449.0002126-.0023937v-.00001575c.00006299-.00079921.00011417-.00160236.00015354-.00240945v-.00001575l.00009449-.00242913v-.00001575l.0000315-.00244094v-.00001575-.173051-.822681c0-.0525827-.0427756-.0953583-.0953583-.0953583h-.0888583-.526591-.0888425zm.0883268-.194835.00051575-.00000787h.526602l.00051575.00000787h.110307c.0031378 0 .00577953-.00264961.00577953-.0057874l-.00000787-.233776c0-.00314173-.0026378-.00579134-.00577953-.00579134h-.748248c-.00314173 0-.00579134.00264961-.00579134.00579134v.233776c0 .0031378.00264961.0057874.00579134.0057874h.110315zm.0205157.154835h.486602v-.114843h-.486602zm-.0566063-.194512c-.0110394 0-.02-.00896063-.02-.02v-.126c0-.0110394.00896063-.0199961.02-.0199961.0110394 0 .02.00895669.02.0199961v.126c-.00001575.0110394-.00896063.02-.02.02zm.0856772 0c-.0110394 0-.02-.00896063-.02-.02v-.126c0-.0110394.00896063-.0199961.02-.0199961.0110394 0 .02.00895669.02.0199961v.126c0 .0110394-.00894488.02-.02.02zm.0856929 0c-.0110394 0-.02-.00896063-.02-.02v-.126c0-.0110394.00896063-.0199961.02-.0199961.0110394 0 .02.00895669.02.0199961v.126c0 .0110394-.00896063.02-.02.02zm.085689 0c-.0110394 0-.02-.00896063-.02-.02v-.126c0-.0110394.00896063-.0199961.02-.0199961.0110394 0 .02.00895669.02.0199961v.126c0 .0110394-.00895276.02-.02.02zm.0856811 0c-.0110394 0-.02-.00896063-.02-.02v-.126c0-.0110394.00896063-.0199961.02-.0199961.0110394 0 .0199961.00895669.0199961.0199961v.126c0 .0110394-.00893701.02-.0199961.02zm.0856929 0c-.0110394 0-.02-.00896063-.02-.02v-.126c0-.0110394.00896063-.0199961.02-.0199961.0110394 0 .02.00895669.02.0199961v.126c0 .0110394-.00894488.02-.02.02zm.0856929 0c-.0110394 0-.02-.00896063-.02-.02v-.126c0-.0110394.00896063-.0199961.02-.0199961.0110394 0 .02.00895669.02.0199961v.126c0 .0110394-.00896063.02-.02.02zm.0856969 0c-.0110394 0-.02-.00896063-.02-.02v-.126c0-.0110394.0089685-.0199961.02-.0199961.0110276 0 .0199961.00895669.0199961.0199961v.126c0 .0110394-.00896063.02-.0199961.02zm-.0130472 1.32497h-.573736c-.0356378 0-.0646417-.0290157-.0646417-.0646496v-.054878-.0885394-.578311-.0885551-.054878c0-.0356339.0290039-.0646378.0646417-.0646378l.573736.00000394c.0356378 0 .0646496.0290039.0646496.0646417v.865154c.00000787.0356457-.0290079.0646496-.0646496.0646496zm-.573736-.954461c-.0135984 0-.0246417.0110551-.0246417.0246417v.0348858h.62302v-.034878c0-.0135945-.0110551-.0246378-.0246417-.0246378l-.573736.00000394v-.00001575zm-.0246417.854933v.0348622c0 .0135945.0110551.0246378.0246417.0246378h.573736c.0135984 0 .0246417-.0110551.0246417-.0246378v-.0348622h-.62302zm.376843-.202303h-.130693c-.0110394 0-.02-.0089685-.02-.0199961v-.0900433h-.0900512c-.0110394 0-.02-.0089685-.02-.02v-.130681c0-.0110394.00896063-.02.02-.02h.0900512v-.0900551c0-.0110394.00896063-.02.02-.02h.130693c.0110394 0 .02.00897244.02.02v.0900551h.0900512c.0110394 0 .02.00897244.02.02v.130681c0 .0110394-.00896063.02-.02.02h-.0900512v.0900433c0 .0110354-.00894488.0199961-.02.0199961zm-.110677-.0400118h.090689v-.0900433c0-.0110394.00896063-.02.02-.02h.0900551v-.0906654h-.0900551c-.0110394 0-.02-.0089685-.02-.02v-.0900551h-.090689v.0900551c0 .0110394-.00896063.02-.02.02h-.0900512v.0906654h.0900512c.0110394 0 .02.00897244.02.02zm.734957.149425h.00164173c.0276693-.00016535.0536339-.0110118.0732205-.0305945.0359134-.0359016.0401693-.0916378.0127756-.132248l-.145031.145039c.0168465.0114016.0366457.0176102.0573937.0178031zm-.24148.288413h.207748v-.248398h-.168358v.153035.0000315c0 .00115354-.00001575.00230709-.00004331.00345669v.00001575c-.00002756.00115354-.0000748.00230315-.00012992.00344882l-.00000394.00000394c-.00005512.0011063-.00012598.0022126-.00020866.00330709l-.00000787.00011811v.00001575l-.00001181.00014173c-.00008661.00108268-.0001811.00216929-.00029134.00324803l-.00000394.0000315c-.00011417.00112205-.00024016.00223228-.00038189.00334646l-.00000787.00005118c-.00014173.00110236-.00029528.00220866-.00046063.00330315l-.00001181.00006693-.00053937.00326378-.00001575.00007874-.00061811.00322047-.00001968.00009449-.00000787.00003543c-.00021654.00105512-.00044095.00209843-.0006811.00314173l-.00002756.00011024-.00076378.00313386-.0000315.00012205-.00002362.00009449c-.00025984.00100394-.0005315.00200394-.00081496.00299606l-.00003937.0001378-.0000315.00011024c-.00027953.00098032-.00057087.00195669-.00087402.00293307l-.00004724.00014961-.00000394.00001575c-.00031102.00099606-.00063386.00199213-.0009685.00298031l-.00005512.00016142-.00002756.00007874c-.00032677.00096063-.00066142.00192126-.00101181.00287402l-.00006299.00017323-.00006693.0001811c-.00033465.00091339-.0006811.00182283-.00103937.00272441l-.00007087.00018504-.00012205.00029528c-.00033858.00085827-.00068504.0017126-.00104724.00256299l-.00008268.00019685-.00007874.00017717-.0011063.00253543-.00048425.00105512-.00024409.00052756-.00069685.00148031-.00034646.00070866-.0011063.00222047-.00011417.00022835-.00027953.0005315-.00078347.00148031-.00092126.00170079-.00057874.00103543-.00098425.00171654-.00090158.00152362-.00072047.00118504-.00119685.00190945-.00062598.00096457-.00025197.00038583-.00089764.00135433-.00056299.00082677-.00115354.00166142-.00074409.00104331-.00104724.00143701-.00092126.00122835-.00128346.00167717-.00022441.0002874-.00031102.00038583-.00154724.00191732-.0004685.00057087-.00148031.00174803-.00077165.00088976-.0015315.00172441-.00050394.00055118-.00167323.00179528-.00050394.0005315-.00168504.00172835zm.247748 0h.159535c.0684882 0 .124193-.0557205.124193-.124193 0-.0684961-.0557205-.124205-.124193-.124205h-.159535zm-.00527953-.49735c-.0279016 0-.054126.0108583-.0738622.0305984-.0359094.0358937-.0401693.0916181-.0127913.132224l.145024-.145035c-.0171024-.0115748-.0372559-.0177874-.0583701-.0177874zm-1.00211-.405024h.62302v-.0485551h-.62302zm0 .578295h.62302v-.538295h-.62302z" fill="#000002"/><path d="m.323972.28535h.526602l.00051575.00000787h.110307c.0031378 0 .00577953-.00264961.00577953-.0057874l-.00000787-.233776c0-.00314173-.0026378-.00579134-.00577953-.00579134h-.748248c-.00314173 0-.00579134.00264961-.00579134.00579134v.233776c0 .0031378.00264961.0057874.00579134.0057874h.110315l.00051575-.00000787zm-.0166063-.0596693c-.00001575.0110394-.00896063.02-.02.02-.0110394 0-.02-.00896063-.02-.02v-.126c0-.0110394.00896063-.0199961.02-.0199961.0110394 0 .02.00895669.02.0199961zm.0856772 0c0 .0110394-.00894488.02-.02.02-.0110394 0-.02-.00896063-.02-.02v-.126c0-.0110394.00896063-.0199961.02-.0199961.0110394 0 .02.00895669.02.0199961zm.0656929.02c-.0110394 0-.02-.00896063-.02-.02v-.126c0-.0110394.00896063-.0199961.02-.0199961.0110394 0 .02.00895669.02.0199961v.126c0 .0110394-.00896063.02-.02.02zm.085689 0c-.0110394 0-.02-.00896063-.02-.02v-.126c0-.0110394.00896063-.0199961.02-.0199961.0110394 0 .02.00895669.02.0199961v.126c0 .0110394-.00895276.02-.02.02zm.0856811 0c-.0110394 0-.02-.00896063-.02-.02v-.126c0-.0110394.00896063-.0199961.02-.0199961.0110394 0 .0199961.00895669.0199961.0199961v.126c0 .0110394-.00893701.02-.0199961.02zm.0856929 0c-.0110394 0-.02-.00896063-.02-.02v-.126c0-.0110394.00896063-.0199961.02-.0199961.0110394 0 .02.00895669.02.0199961v.126c0 .0110394-.00894488.02-.02.02zm.0856929 0c-.0110394 0-.02-.00896063-.02-.02v-.126c0-.0110394.00896063-.0199961.02-.0199961.0110394 0 .02.00895669.02.0199961v.126c0 .0110394-.00896063.02-.02.02zm.0856969 0c-.0110394 0-.02-.00896063-.02-.02v-.126c0-.0110394.0089685-.0199961.02-.0199961.0110276 0 .0199961.00895669.0199961.0199961v.126c0 .0110394-.00896063.02-.0199961.02z" fill="#ff4155"/><path d="m.830575.32535h-.486603v.114843h.486603z" fill="#dfe4ff" stroke="#dfe4ff" stroke-width=".003"/><path d="m.85055839.48019881h-.526591-.0888425c-.0525827 0-.0953583.0427756-.0953583.0953583v.995732c0 .0525827.0427756.0953465.0953583.0953465h.704291c.0443661 0 .081752-.0304449.0923504-.0715433l.00056299-.00229528.00050394-.00231496.00044882-.00233465.00038976-.00235433.00033465-.00237402.00027559-.0023937.0002126-.00240945.00015354-.0024252.00009449-.00244488.0000315-.00245669v-.173051-.822681c0-.0525827-.0427756-.0953583-.0953583-.0953583h-.0888583zm-.550157.0960079.573736.00000394c.0356378 0 .0646496.0290039.0646496.0646417v.865154c.00000787.0356457-.0290079.0646496-.0646496.0646496h-.573736c-.0356378 0-.0646417-.0290157-.0646417-.0646496v-.054878-.0885394-.578311-.0885551-.054878c0-.0356339.0290039-.0646378.0646417-.0646378z" fill="#ffc839"/><path d="m.874142.61620081-.573736-.00001181c-.0135984 0-.0246417.0110551-.0246417.0246417v.0348858h.62302v-.034878c0-.0135945-.0110551-.0246378-.0246417-.0246378z" fill="#ffffe6"/><path d="m.898783.715717h-.623019v.048555h.623019z" fill="#ffc839"/><path d="m.632618.918043h-.090689v.0900551c0 .0110394-.00896063.02-.02.02h-.0900512v.0906654h.0900512c.0110394 0 .02.00897244.02.02v.0900433h.090689v-.0900433c0-.0110394.00896063-.02.02-.02h.0900551v-.0906654h-.0900551c-.0110394 0-.02-.0089685-.02-.02z" fill="#ff4155"/><path d="m.501913.898043c0-.0110394.00896063-.02.02-.02h.130693c.0110394 0 .02.00897244.02.02v.0900551h.0900512c.0110394 0 .02.00897244.02.02v.130681c0 .0110394-.00896063.02-.02.02h-.0900512v.0900433c0 .0110354-.00894488.0199961-.02.0199961h-.130693c-.0110394 0-.02-.0089685-.02-.0199961v-.0900433h-.0900512c-.0110394 0-.02-.0089685-.02-.02v-.130681c0-.0110394.00896063-.02.02-.02h.0900512zm.39687-.0937717h-.62302v.538295h.62302z" fill="#ffffe6"/><path d="m.898783 1.38258h-.623019v.04853h.623019z" fill="#ffc839"/><path d="m.898783 1.47112h-.62302v.0348622c0 .0135945.0110551.0246378.0246417.0246378h.573736c.0135984 0 .0246417-.0110551.0246417-.0246378v-.0348622z" fill="#ffffe6"/><g fill="#d3dcfb"><path d="m1.0748 1.4182446v.153067l-.00004331.00347244-.00013386.00345276-.00020866.00330709-.00000787.00013386-.00001181.00014173-.00029528.00327953-.00038189.00334646-.00000787.00005118-.00046063.00330315-.00001181.00006693-.00053937.00326378-.00001575.00007874-.00061811.00322047-.00002756.00012992-.0006811.00314173-.00002756.00011024-.00076378.00313386-.0000315.00012205-.00002362.00009449-.00081496.00299606-.00003937.0001378-.0000315.00011024-.00087402.00293307-.00005118.00016535-.0009685.00298031-.00005512.00016142-.00002756.00007874-.00101181.00287402-.00006299.00017323-.00006693.0001811-.00103937.00272441-.00007087.00018504-.00012205.00029528-.00104724.00256299-.00008268.00019685-.00007874.00017717-.0011063.00253543-.00048425.00105512-.00024409.00052756-.00069685.00148031-.00034646.00070866-.0011063.00222047-.00011417.00022835-.00027953.0005315-.00078347.00148031-.00092126.00170079-.00057874.00103543-.00098425.00171654-.00090158.00152362-.00072047.00118504-.00119685.00190945-.00062598.00096457-.00025197.00038583-.00089764.00135433-.00056299.00082677-.00115354.00166142-.00074409.00104331-.00104724.00143701-.00092126.00122835-.00128346.00167717-.00022441.0002874-.00031102.00038583-.00154724.00191732-.0004685.00057087-.00148031.00174803-.00077165.00088976-.0015315.00172441-.00050394.00055118-.00167323.00179528-.00050394.0005315-.00168504.00172835h.207748v-.248398h-.168358z"/><path d="m1.28315 1.41825v.248398h.159535c.0684882 0 .124193-.0557205.124193-.124193 0-.0684961-.0557205-.124205-.124193-.124205z"/><path d="m1.27853 1.37823c.0276693-.00016535.0536339-.0110118.0732205-.0305945.0359134-.0359016.0401693-.0916378.0127756-.132248l-.145031.145039c.0168465.0114016.0366457.0176102.0573937.0178031h.00164173z"/><path d="m1.19122 1.33212.145024-.145035c-.0171024-.0115748-.0372559-.0177874-.0583701-.0177874-.0279016 0-.054126.0108583-.0738622.0305984-.0359094.0358937-.0401693.0916181-.0127913.132224z"/></g></g></svg>