<svg id="Capa_1" enable-background="new 0 0 512 512" height="512" viewBox="0 0 512 512" width="512" xmlns="http://www.w3.org/2000/svg"><g><g><path d="m206.801 185.128-6.071 246.802c-21.346-3.233-35.267-10.391-53.134-17.1-60.653-22.776-104.809-62.338-104.809-115.027 0-21.85 7.12-35.4 19.86-51.84 4.64-5.98 7.11-13.36 6.93-20.93-.29-11.65-.43-27.69-.43-32.03 0-37.23 9.032-71.688 27.382-100.308 57.63-12.491 110.272 29.973 110.272 90.433z" fill="#d1f19e"/><path d="m414.787 94.752c-59.72 2.88-103.507 52.108-103.507 112.568v224.61c-17.66 2.67-36.18 4.07-55.28 4.07-19.09 0-37.62-1.4-55.27-4.07v-224.61c0-60.46-44.481-109.745-104.201-112.625 33.88-52.89 90.691-86.993 159.471-86.993 2.565 0 5.118-.155 7.659-.061 59.707 2.209 112.414 30.159 145.992 73.568 0 0 2.213 8.979 5.136 13.543z" fill="#cf9875"/><path d="m200.73 423.09v8.84c-93.81-14.21-163.04-64.47-163.04-132.68 0-21.85 7.12-35.4 19.86-51.84 4.64-5.98 7.11-13.36 6.93-20.93-.29-11.65-.43-27.69-.43-32.03 0-37.23 10.6-71.36 28.95-99.98l9.66-3.704 4.54 5.294c-17.24 27.62-27.15 60.25-27.15 95.73 0 4.27.14 20.09.43 31.57.18 7.46-2.29 14.74-6.93 20.63-12.74 16.21-19.86 29.56-19.86 51.1 0 63.36 61.46 111 147.04 128z" fill="#bbec6c"/><path d="m474.31 299.25c0 68.21-69.23 118.47-163.03 132.68l-4.975-236.927c0-60.46 57.674-113.705 112.695-100.533 18.35 28.62 28.95 62.75 28.95 99.98 0 4.34-.14 20.38-.43 32.03-.18 7.57 2.29 14.95 6.93 20.93 12.74 16.44 19.86 29.99 19.86 51.84z" fill="#d1f19e"/><path d="m409.65 81.21c-29.27 3.41-56.35 16.86-77.01 38.4-24.977 25.43-36.885 61.037-35.426 96.445.038.928-.23 1.85-.799 2.585-9.677 12.471-24.428 19.78-40.414 19.78-15.978 0-30.721-7.301-40.399-19.761-.573-.738-.841-1.666-.8-2.599 1.567-35.188-10.391-70.745-35.442-96.45-15.693-16.361-35.09-28.054-56.338-34.226-3.448-1.002-4.731-5.195-2.46-7.977 33.589-41.137 85.164-67.53 143.438-69.747-2.65-.11-5.32-.16-8-.16-62.842 0-118.625 28.46-153.632 73.712-.006-.001-.012-.002-.018-.002-.03.039-.048.079-.071.119-3.274 4.24-6.381 8.616-9.279 13.141 55.458 2.674 100.809 45.563 107.001 100.088-.023 1.397.435-.255.729 12.762v224.61c4.506.682 9.072 1.278 13.688 1.792.105.012.208.026.312.038v-.006c13.366 1.477 27.163 2.246 41.27 2.246 14.115 0 27.911-.77 41.28-2.246v.006c.113-.013.224-.028.336-.041 4.607-.513 9.164-1.109 13.664-1.789v-209.953-14.477c.05-1.644-.108.557.177-6.407.135-1.571-.066-.479.531-6.341 6.104-54.618 51.489-97.604 107.012-100.282-2.92-4.56-6.04-8.99-9.35-13.26z" fill="#c7865b"/><path d="m311.28 221.797c-11.535 18.392-31.969 30.628-55.28 30.628-16.135 0-30.892-5.863-42.273-15.571-5.748 1.455-11.195-9.343-11.195-9.343s-.314 16.324-8.34 30.298c-6.552 11.408-19.657 20.388-30.255 24.766-7.578 3.131-10.37 11.494-6.128 18.511l10.298 17.033c8.896 14.713 11.938 32.233 8.522 49.084l-13.714 68.797c-5.887 29.042 7.637 57.246 34.298 65.426 2.639.81 7.847 2.465 7.847 2.465 2.71.401 5.49.609 8.327.609h85.226c35.402 0 61.924-32.437 54.891-67.133l-14.248-70.29c-3.416-16.851-.374-34.37 8.522-49.084l10.298-17.033c4.242-7.017 1.125-16.058-6.454-19.189-23.58-9.741-40.208-32.905-40.342-59.974z" fill="#ffe177"/><path d="m205.06 503.89c-31.12-4.61-53.04-34.61-46.56-66.52l14.24-70.29c3.42-16.85.38-34.37-8.52-49.09l-10.3-17.03c-4.24-7.02-1.12-16.06 6.46-19.19 23.58-9.74 40.21-32.9 40.34-59.97 3.55 5.66 7.947 10.744 13.007 15.054-3.9 22.21-19.047 40.536-39.347 48.916-7.58 3.13-10.7 12.17-6.46 19.19l10.3 17.03c8.9 14.72 11.94 32.24 8.52 49.09l-14.24 70.29c-5.45 26.86 9.22 52.37 32.56 62.52z" fill="#ffd15b"/></g><g><path d="m460.376 242.814c-3.596-4.641-5.498-10.376-5.356-16.149.287-11.75.436-27.903.436-32.21 0-53.021-20.782-102.255-58.518-138.632-37.341-35.998-87.394-55.823-140.938-55.823-42.76 0-83.36 12.605-117.413 36.453-33.714 23.611-58.489 56.399-71.647 94.817-1.342 3.918.747 8.183 4.666 9.525 3.913 1.338 8.183-.746 9.525-4.666 4.096-11.959 9.437-23.265 15.848-33.817 54.307 4.114 96.254 49.441 96.254 105.002l-.007 14.446c-.116 23.33-14.135 44.166-35.715 53.08-5.689 2.351-10.049 7.032-11.959 12.844-1.885 5.734-1.174 11.987 1.952 17.157l10.298 17.031c3.942 6.522 6.604 13.636 7.907 21.145.709 4.082 4.595 6.813 8.673 6.106 4.081-.709 6.815-4.592 6.106-8.673-1.625-9.354-4.939-18.215-9.851-26.339l-10.298-17.031c-1.177-1.946-.842-3.787-.538-4.712.542-1.65 1.795-2.986 3.437-3.665 21.448-8.86 36.968-27.072 42.632-48.801 13.345 12.755 31.126 20.022 50.128 20.022 19.004 0 36.787-7.269 50.133-20.022 5.663 21.729 21.181 39.941 42.626 48.801 1.643.679 2.896 2.015 3.438 3.665.304.925.639 2.766-.538 4.711l-10.298 17.032c-9.897 16.369-13.255 35.709-9.455 54.455l14.248 70.29c2.903 14.323-.737 29.026-9.987 40.341-9.25 11.314-22.937 17.803-37.552 17.803h-85.227c-14.614 0-28.302-6.489-37.553-17.803-9.25-11.314-12.891-26.018-9.987-40.341l12.387-61.104c.823-4.06-1.801-8.018-5.86-8.841-4.059-.819-8.018 1.801-8.841 5.86l-7.932 39.131c-69.302-21.832-110.406-64.312-110.406-114.652 0-19.885 6.427-31.946 18.287-47.248 5.704-7.361 8.721-16.489 8.495-25.704-.285-11.629-.432-27.591-.432-31.843 0-8.509.585-17.03 1.738-25.328.57-4.103-2.293-7.891-6.396-8.461-4.094-.571-7.891 2.293-8.461 6.396-1.248 8.979-1.881 18.195-1.881 27.393 0 4.307.148 20.46.436 32.21.142 5.773-1.761 11.509-5.355 16.148-13.23 17.069-21.431 32.465-21.431 56.437 0 29.966 12.644 58.124 36.562 81.43 21.123 20.581 50.709 37.097 85.849 47.994l-1.46 7.202c-3.801 18.753.965 38.003 13.076 52.816 12.112 14.813 30.032 23.308 49.166 23.308h85.227c19.134 0 37.054-8.495 49.165-23.308s16.877-34.063 13.076-52.816l-1.46-7.201c26.489-8.2 49.543-19.427 68.594-33.43 3.337-2.453 4.054-7.147 1.601-10.485-2.453-3.337-7.147-4.054-10.485-1.601-17.356 12.759-38.429 23.073-62.705 30.732l-9.792-48.305c-3.051-15.049-.355-30.572 7.59-43.713l10.298-17.032c3.126-5.17 3.837-11.423 1.952-17.157-1.91-5.812-6.27-10.493-11.96-12.844-21.576-8.913-35.593-29.748-35.708-53.08l-.002-14.442c0-23.178 7.228-45.128 20.901-63.477 2.476-3.321 1.789-8.021-1.532-10.495-3.322-2.477-8.02-1.79-10.495 1.532-15.618 20.958-23.874 46.007-23.874 72.44l.002 12.246c-10.785 15.918-28.49 25.36-47.778 25.36-19.285 0-36.988-9.441-47.771-25.358l.006-12.25c0-60.602-43.742-110.548-101.767-119.037 33.875-45.216 88.959-73.279 149.53-73.279 62.266 0 116.399 28.574 149.635 73.266-18.53 2.708-36.1 9.726-51.426 20.622-3.375 2.4-4.166 7.083-1.766 10.459 1.463 2.057 3.773 3.154 6.119 3.154 1.503 0 3.021-.451 4.34-1.389 15.362-10.924 33.316-17.378 52.162-18.804 16.171 26.783 25.39 58.222 25.39 92.146 0 4.252-.146 20.214-.432 31.843-.226 9.215 2.791 18.343 8.496 25.705 11.859 15.301 18.286 27.362 18.286 47.247 0 22.437-8.008 43.257-23.801 61.883-2.679 3.159-2.289 7.893.87 10.571 1.41 1.195 3.133 1.779 4.847 1.779 2.127 0 4.241-.9 5.725-2.649 18.154-21.411 27.359-45.496 27.359-71.584.002-23.971-8.199-39.366-21.428-56.435z"/><path d="m264.053 450.326v-107.242c0-4.143-3.357-7.5-7.5-7.5s-7.5 3.357-7.5 7.5v107.242c0 4.143 3.357 7.5 7.5 7.5s7.5-3.357 7.5-7.5z"/><path d="m203.812 308.586 16.584-16.584c2.929-2.93 2.929-7.678 0-10.607-2.93-2.928-7.678-2.928-10.607 0l-16.584 16.584c-2.929 2.93-2.929 7.678 0 10.607 1.465 1.464 3.385 2.196 5.304 2.196s3.839-.732 5.303-2.196z"/><path d="m314.597 310.782c1.919 0 3.839-.732 5.304-2.196 2.929-2.93 2.929-7.678 0-10.607l-16.584-16.584c-2.93-2.928-7.678-2.928-10.607 0-2.929 2.93-2.929 7.678 0 10.607l16.584 16.584c1.464 1.464 3.384 2.196 5.303 2.196z"/><g><g><path d="m161 232.5c-4.143 0-7.5-3.357-7.5-7.5v-20c0-4.143 3.357-7.5 7.5-7.5s7.5 3.357 7.5 7.5v20c0 4.143-3.357 7.5-7.5 7.5z"/></g><g><path d="m351 232.5c-4.143 0-7.5-3.357-7.5-7.5v-20c0-4.143 3.357-7.5 7.5-7.5s7.5 3.357 7.5 7.5v20c0 4.143-3.357 7.5-7.5 7.5z"/></g></g></g></g></svg>