<svg id="Layer_1" enable-background="new 0 0 512 512" viewBox="0 0 512 512" xmlns="http://www.w3.org/2000/svg"><g clip-rule="evenodd" fill-rule="evenodd"><g><g><path d="m21 134.296h214.021l60.901-42.425.06 270.863h-274.982v-26c0-2.203 1.797-4 4-4h26.528l-42.528-72.001v-114.437c0-6.6 5.4-12 12-12z" fill="#ffda2d"/><path d="m21 134.296h20c-6.6 0-12 5.4-12 12v114.436l42.528 72.001h-20l-42.528-72v-114.437c0-6.6 5.4-12 12-12zm214.021 0 60.901-42.425.003 13.931-40.904 28.495h-20zm-194.021 228.438v-26c0-2.203 1.797-4 4-4h-20c-2.203 0-4 1.797-4 4v26z" fill="#ffc700"/><path d="m21 121.144h214.436l58.176-58.176h105.109l-20 33.152h-71.695c-19.392 19.392-38.784 38.784-58.176 58.176h-239.85v-21.152c0-6.6 5.4-12 12-12z" fill="#ffc700"/><path d="m21 121.144h20c-6.6 0-12 5.4-12 12.001v21.152h-20v-21.152c0-6.601 5.4-12.001 12-12.001zm214.436 0 58.176-58.176h20l-58.176 58.176z" fill="#fdb800"/></g><g><path d="m25.049 332.783 318.382 3.893v56.058h-305.271l-17.16-30v-25.951c0-1.11.399-2.066 1.189-2.846s1.75-1.167 2.86-1.154z" fill="#7a8c98"/><path d="m25.049 332.783 11.809.144v29.806l17.16 30h-15.858l-17.16-30v-25.951c0-1.11.399-2.066 1.189-2.846.79-.779 1.75-1.166 2.86-1.153z" fill="#596c76"/><path d="m21 362.734h318.217v-30h-314.217c-2.203 0-4 1.797-4 4z" fill="#8d9ca8"/><path d="m21 362.734h15.858v-30h-11.858c-2.203 0-4 1.797-4 4z" fill="#7a8c98"/><path d="m332.911 392.734h159.35c5.915 0 10.738-4.824 10.738-10.738v-109.522c0-12.235-6.315-22.728-17.12-28.459-42.162-22.363-37.624-49.876-53.029-95.905-4.473-13.365-16.456-21.99-30.551-21.99h-69.389c-7.71 0-14 6.289-14 14v238.614c.001 7.711 6.29 14 14.001 14z" fill="#64b5f6"/><path d="m332.911 392.734h11.622c-7.711 0-14-6.289-14-14 0-86.205 0-152.41 0-238.614 0-7.711 6.29-14 14-14h-11.622c-7.71 0-14 6.289-14 14v238.614c0 7.711 6.289 14 14 14z" fill="#42a5f5"/><path d="m483.1 356.114h19.9v-35.029h-19.9c-2.201 0-4 1.8-4 3.999v27.03c0 2.2 1.8 4 4 4z" fill="#e6f8ff"/><path d="m483.1 356.114h9.17c-2.201 0-4-1.8-4-4v-27.03c0-2.199 1.799-3.999 4-3.999h-9.17c-2.201 0-4 1.8-4 3.999v27.03c0 2.2 1.8 4 4 4z" fill="#d0f1ff"/><path d="m473.697 266.984c-52.69-27.947-49.226-61.994-65.502-110.622-.926-2.765-2.98-4.243-5.896-4.243h-53.389c-2.203 0-4 1.797-4 4v106.865c0 2.203 1.797 4 4 4z" fill="#e6f8ff"/><path d="m473.697 266.984c-52.69-27.947-49.226-61.994-65.502-110.622-.926-2.765-2.98-4.243-5.896-4.243h-12.83c2.915 0 4.97 1.478 5.896 4.243 16.276 48.628 12.812 82.675 65.502 110.622z" fill="#d0f1ff"/><path d="m96.453 449.032c23.831 0 43.149-19.319 43.149-43.149 0-23.831-19.318-43.149-43.149-43.149s-43.149 19.319-43.149 43.149c-.001 23.831 19.318 43.149 43.149 43.149zm311.808 0c23.831 0 43.149-19.318 43.149-43.149s-19.318-43.149-43.149-43.149-43.149 19.319-43.149 43.149c0 23.831 19.318 43.149 43.149 43.149zm-203.317 0c23.831 0 43.149-19.319 43.149-43.149 0-23.831-19.318-43.149-43.149-43.149s-43.149 19.319-43.149 43.149c-.001 23.831 19.318 43.149 43.149 43.149z" fill="#465759"/><path d="m408.261 423.375c9.661 0 17.492-7.831 17.492-17.492 0-9.66-7.831-17.492-17.492-17.492-9.66 0-17.492 7.831-17.492 17.492s7.832 17.492 17.492 17.492zm-311.809 0c9.66 0 17.492-7.831 17.492-17.492 0-9.66-7.831-17.492-17.492-17.492-9.66 0-17.492 7.831-17.492 17.492s7.832 17.492 17.492 17.492zm108.491 0c9.661 0 17.492-7.831 17.492-17.492 0-9.66-7.831-17.492-17.492-17.492-9.66 0-17.492 7.831-17.492 17.492.001 9.661 7.832 17.492 17.492 17.492z" fill="#3a484a"/><path d="m121.552 440.983c10.928-7.828 18.049-20.632 18.049-35.1 0-23.831-19.318-43.149-43.149-43.149-14.468 0-27.271 7.121-35.1 18.049 7.072-5.066 15.737-8.049 25.1-8.049 23.83 0 43.149 19.319 43.149 43.149.001 9.363-2.983 18.028-8.049 25.1zm311.809 0c10.927-7.828 18.049-20.632 18.049-35.1 0-23.831-19.318-43.149-43.149-43.149-14.468 0-27.272 7.121-35.1 18.049 7.072-5.066 15.737-8.049 25.1-8.049 23.831 0 43.149 19.319 43.149 43.149 0 9.363-2.984 18.028-8.049 25.1zm-203.318 0c10.928-7.828 18.049-20.632 18.049-35.1 0-23.831-19.318-43.149-43.149-43.149-14.468 0-27.272 7.121-35.1 18.049 7.072-5.066 15.737-8.049 25.1-8.049 23.831 0 43.149 19.319 43.149 43.149.001 9.363-2.983 18.028-8.049 25.1z" fill="#3a484a"/><path d="m408.261 423.375c6.148 0 11.555-3.173 14.674-7.97-2.591 1.518-5.607 2.389-8.827 2.389-9.66 0-17.492-7.831-17.492-17.492 0-3.512 1.035-6.782 2.817-9.522-5.183 3.036-8.664 8.662-8.664 15.103 0 9.661 7.832 17.492 17.492 17.492zm-311.809 0c6.148 0 11.555-3.173 14.674-7.97-2.591 1.518-5.607 2.389-8.827 2.389-9.66 0-17.492-7.831-17.492-17.492 0-3.512 1.035-6.782 2.817-9.522-5.183 3.036-8.664 8.662-8.664 15.103 0 9.661 7.832 17.492 17.492 17.492zm108.491 0c6.148 0 11.555-3.173 14.674-7.97-2.591 1.518-5.607 2.389-8.827 2.389-9.66 0-17.492-7.831-17.492-17.492 0-3.512 1.036-6.782 2.817-9.522-5.183 3.036-8.664 8.662-8.664 15.103.001 9.661 7.832 17.492 17.492 17.492z" fill="#313d40"/></g></g><path d="m140.959 190.43v106.17c0 4.409-3.579 7.998-7.998 7.998-4.409 0-7.998-3.589-7.998-7.998v-106.17c0-4.409 3.589-7.998 7.998-7.998 4.419 0 7.998 3.589 7.998 7.998zm39.061 0v106.17c0 4.409-3.579 7.998-7.998 7.998-4.423 0-8.003-3.589-8.003-7.998v-106.17c0-4.409 3.579-7.998 8.003-7.998 4.419 0 7.998 3.589 7.998 7.998zm-117.158 0v66.172c0 4.409-3.594 7.998-8.003 7.998-4.419 0-7.998-3.589-7.998-7.998v-66.172c0-4.409 3.579-7.998 7.998-7.998 4.409 0 8.003 3.589 8.003 7.998zm195.27 0v106.17c0 4.409-3.589 7.998-8.003 7.998-4.419 0-7.998-3.589-7.998-7.998v-106.17c0-4.409 3.579-7.998 7.998-7.998 4.414 0 8.003 3.589 8.003 7.998zm-156.219 0v106.17c0 4.409-3.584 7.998-8.003 7.998s-7.998-3.589-7.998-7.998v-106.17c0-4.409 3.579-7.998 7.998-7.998s8.003 3.589 8.003 7.998zm117.158 0v106.17c0 4.409-3.579 7.998-7.998 7.998-4.423 0-8.003-3.589-8.003-7.998v-106.17c0-4.409 3.579-7.998 8.003-7.998 4.419 0 7.998 3.589 7.998 7.998zm-122.619 224.951c-5.23 0-9.493-4.259-9.493-9.502 0-5.23 4.263-9.488 9.493-9.488 5.239 0 9.488 4.258 9.488 9.488 0 5.243-4.249 9.502-9.488 9.502zm0-34.991c-14.048 0-25.493 11.44-25.493 25.489 0 14.062 11.445 25.503 25.493 25.503 14.058 0 25.489-11.44 25.489-25.503 0-14.049-11.431-25.489-25.489-25.489zm108.49 34.991c-5.23 0-9.493-4.259-9.493-9.502 0-5.23 4.263-9.488 9.493-9.488 5.239 0 9.498 4.258 9.498 9.488 0 5.243-4.258 9.502-9.498 9.502zm0-34.991c-14.053 0-25.493 11.44-25.493 25.489 0 14.062 11.44 25.503 25.493 25.503 14.058 0 25.498-11.44 25.498-25.503.001-14.049-11.44-25.489-25.498-25.489zm165.83-77.122c0 4.423-3.589 8.003-8.003 8.003h-14.609c-4.419 0-7.998-3.579-7.998-8.003 0-4.419 3.579-7.998 7.998-7.998h14.609c4.414 0 8.003 3.579 8.003 7.998zm37.49 112.113c-5.23 0-9.493-4.259-9.493-9.502 0-5.23 4.263-9.488 9.493-9.488s9.488 4.258 9.488 9.488c0 5.243-4.258 9.502-9.488 9.502zm0-34.991c-14.053 0-25.493 11.44-25.493 25.489 0 14.062 11.44 25.503 25.493 25.503 14.058 0 25.489-11.44 25.489-25.503 0-14.049-11.431-25.489-25.489-25.489zm-55.353-121.407v-98.861h48.1c3.23 9.78 5.65 18.939 7.993 27.799 7.06 26.738 13.36 50.572 38.061 71.062zm128.551 9.936c.891-3.57-.769-7.276-4.008-8.998-38.24-20.282-44.102-42.479-52.982-76.079-2.509-9.479-5.098-19.283-8.691-30.021-1.999-5.979-7.168-9.7-13.478-9.7h-57.391c-4.419 0-8.003 3.579-8.003 8.003v114.857c0 4.419 3.584 8.002 8.003 8.002h128.787c3.675 0 6.877-2.504 7.763-6.064zm13.539 60.163v19.028h-7.899v-19.028zm-2.74 55.651c1.49 0 2.74-1.254 2.74-2.73v-17.892h-11.898c-6.621 0-12.002-5.381-12.002-12.002v-27.031c0-6.607 5.381-11.997 12.002-11.997h11.898v-40.611c0-9.247-4.688-17.048-12.869-21.391-35.137-18.637-41.008-41.65-48.44-70.788-2.259-8.828-4.81-18.84-8.427-29.639-3.362-10.045-12.37-16.533-22.961-16.533h-69.392c-3.31 0-5.998 2.693-5.998 6.003v238.608c0 3.31 2.688 6.003 5.998 6.003h28.799c8.064-17.675 25.894-30.002 46.554-30.002s38.49 12.327 46.549 30.002zm-83.997 56.296c19.377 0 35.147-15.769 35.147-35.151 0-19.377-15.77-35.146-35.147-35.146-19.382 0-35.151 15.769-35.151 35.146 0 19.382 15.769 35.151 35.151 35.151zm-166.211-70.297h68.859v7.998c0 2.079.302 4.103.839 6.003h-60.248c-2.372-5.192-5.569-9.913-9.45-14.001zm-37.109 70.297c19.387 0 35.146-15.769 35.146-35.151 0-19.377-15.76-35.146-35.146-35.146-19.382 0-35.142 15.769-35.142 35.146.001 19.382 15.761 35.151 35.142 35.151zm-61.931-56.296c-2.367-5.192-5.578-9.913-9.45-14.001h34.279c-3.881 4.088-7.078 8.809-9.446 14.001zm-46.559 56.296c19.377 0 35.146-15.769 35.146-35.151 0-19.377-15.769-35.146-35.146-35.146-19.382 0-35.151 15.769-35.151 35.146 0 19.382 15.769 35.151 35.151 35.151zm-53.651-56.296-8.012-14.001h24.564c-3.881 4.088-7.083 8.809-9.45 14.001zm268.109-44.003v14.001h-281.907v-14.001zm-293.909-82.181 39.089 66.181h231.883l-.042-198.198-33.421 33.42c-1.5 1.499-3.537 2.348-5.659 2.348h-231.85zm0-125.406c0-2.165 1.83-4.004 3.999-4.004h214.439c2.122 0 4.15-.839 5.649-2.339l55.844-55.83h87.619l-10.341 17.152h-67.176c-2.122 0-4.164.839-5.664 2.339l-55.83 55.839h-228.539zm472.631 103.808c-28.893-15.322-33.241-32.369-40.442-60.611-2.32-9.097-4.947-19.41-8.748-30.77-5.579-16.67-20.551-27.45-38.141-27.45h-69.392c-12.129 0-21.999 9.87-21.999 22.004v184.607h-6.937l-.043-214.199 6.409-6.409h68.378c2.815 0 5.404-1.471 6.852-3.872l19.999-33.152c1.49-2.466 1.542-5.546.123-8.069-1.42-2.509-4.079-4.06-6.97-4.06h-105.113c-2.117 0-4.145.839-5.65 2.339l-55.839 55.83h-211.119c-11.03 0-20 8.984-20 20.004v127.589c0 1.429.382 2.839 1.108 4.07l35.401 59.927h-16.509c-4.419 0-7.998 3.594-7.998 8.003v29.997c0 1.401.358 2.773 1.056 3.98l17.16 30.002c1.424 2.49 4.07 4.023 6.942 4.023h7.399c-.17 1.698-.259 3.41-.259 5.145 0 28.21 22.952 51.152 51.152 51.152 28.21 0 51.147-22.942 51.147-51.152 0-1.735-.09-3.447-.259-5.145h6.711c-.17 1.698-.25 3.41-.25 5.145 0 28.21 22.942 51.152 51.142 51.152 28.21 0 51.147-22.942 51.147-51.152 0-1.735-.09-3.447-.259-5.145h101.539c-.17 1.698-.259 3.41-.259 5.145 0 28.21 22.951 51.152 51.152 51.152 28.2 0 51.147-22.942 51.147-51.152 0-1.735-.09-3.447-.259-5.145h33.109c10.332 0 18.74-8.404 18.74-18.731v-109.533c-.001-15.138-7.989-28.417-21.368-35.519z"/></g></svg>