<svg id="Layer_1-2" viewBox="0 0 64 64" xmlns="http://www.w3.org/2000/svg"><g id="Dump_Truck"><path d="m63 45v6h-62v-6h1l1.78997803-6.27001953c.13000488-.42999268.52001953-.72998047.96002197-.72998047h1.25l-5-5v-23h5.46002197c.33996582 0 .64996338.16998291.83996582.45001221l3.70001221 5.54998779h17l3.70001221-5.54998779c.19000244-.2800293.5-.45001221.83996582-.45001221h15.46002197v4.2800293c0 .42999268-.2800293.80999756-.67999268.94995117l-11.32000732 3.77001953h18.35998535c.39001465 0 .73999023.22998047.91003418.58001709l5.72998047 12.41998291v13z" fill="#ffd278"/><path d="m59 40h4v5h-4z" fill="#f9bd5f"/><path d="m48 10h-16.00003077l-.00002049.00001097-3.99994874 5.99998903h-17l-3.99995605-6h-6.00004395v23l5 5h30v-19l12-4.00002157z" fill="#f9bd5f"/><path d="m2 45 1.79277747-6.27472113c.12265759-.42930156.51504359-.72527887.96152395-.72527887h31.24569859v7z" fill="#eda34a"/><path d="m1 45h62v6h-62z" fill="#536170"/><circle cx="11" cy="48" fill="#748793" r="6"/><circle cx="11" cy="48" fill="#657482" r="2"/><circle cx="23" cy="48" fill="#748793" r="6"/><circle cx="23" cy="48" fill="#657482" r="2"/><circle cx="48" cy="48" fill="#748793" r="6"/><circle cx="48" cy="48" fill="#657482" r="2"/><path d="m55.26812744 19.58093262c-.16345131-.35414479-.51789999-.58093262-.90794469-.58093262h-9.36018276v10.99999257l8 2.00000743 1 3 7 1v-4l-5.73187256-12.41906738z" fill="#748793"/><g fill="#292930"><path d="m11 45c-1.65429688 0-3 1.34570312-3 3s1.34570312 3 3 3 3-1.34570312 3-3-1.34570312-3-3-3zm0 4c-.55126953 0-1-.44873047-1-1s.44873047-1 1-1 1 .44873047 1 1-.44873047 1-1 1z"/><path d="m23 45c-1.65429688 0-3 1.34570312-3 3s1.34570312 3 3 3 3-1.34570312 3-3-1.34570312-3-3-3zm0 4c-.55126953 0-1-.44873047-1-1s.44873047-1 1-1 1 .44873047 1 1-.44873047 1-1 1z"/><path d="m48 45c-1.65429688 0-3 1.34570312-3 3s1.34570312 3 3 3 3-1.34570312 3-3-1.34570312-3-3-3zm0 4c-.55126953 0-1-.44873047-1-1s.44873047-1 1-1 1 .44873047 1 1-.44873047 1-1 1z"/><path d="m63 39h-1v-7c0-.14453125-.03125-.28759766-.09179688-.41894531l-6-13c-.16357422-.35449219-.51806641-.58105469-.90820312-.58105469h-12.83764648l6.15405273-2.05126953c.40820312-.13622344.68359375-.51806641.68359375-.94873047v-5c0-.55224609-.44775391-1-1-1h-16c-.33447266 0-.64648438.16699219-.83203125.4453125l-3.703125 5.5546875h-15.9296875l-3.703125-5.5546875c-.18554688-.27832031-.49755859-.4453125-.83203125-.4453125h-6c-.55224609 0-1 .44775391-1 1v23c0 .26513672.10546875.51953125.29296875.70703125l3.35968018 3.35968018c-.29125977.10870361-.52502441.34643555-.61407471.65838623l-1.79284668 6.27490234h-.24572754c-.55224609 0-1 .44775391-1 1v6c0 .55224609.44775391 1 1 1h4.26361084c1.26654053 1.81079102 3.36376953 3 5.73638916 3 2.54785156 0 4.77545166-1.37268066 6-3.41296387 1.22454834 2.0402832 3.45214844 3.41296387 6 3.41296387 2.37261963 0 4.46984863-1.18920898 5.73638916-3h13.52722168c1.26654053 1.81079102 3.36376953 3 5.73638916 3s4.46984863-1.18920898 5.73638916-3h9.26361084c.55224609 0 1-.44775391 1-1v-11c0-.55224609-.44775391-1-1-1zm-1 2v3h-2v-3zm-3-2c-.55224609 0-1 .44775391-1 1v4h-4.26361084c-1.26654053-1.81079102-3.36376953-3-5.73638916-3s-4.46984863 1.18920898-5.73638916 3h-5.26361084v-24h7v10c0 .45898438.3124957.85888672.75732422.97021484l7.46777344 1.86669922.82617188 2.47949219c.11962891.359375.43212891.62011719.80712891.67333984l6.14160156.87738037v2.13287354h-1zm1-6.78027344v2.62744141l-5.24658203-.74951172-.8046875-2.4140625c-.10839844-.32421875-.37451172-.57080078-.70605469-.65380859l-7.24267578-1.81054688v-9.21923828h8.36035156zm-58-21.21972656h4.46484375l3.703125 5.5546875c.18554688.27832031.49755859.4453125.83203125.4453125h17c.33447266 0 .64648438-.16699219.83203125-.4453125l3.703125-5.5546875h14.46484375v3.27929688l-11.31640625 3.77197266c-.35781019.11876893-.68359375.5247554-.68359375.94873047v18h-28.5859375l-4.4140625-4.4140625zm2.75439453 28h30.24560547v5h-6.26361084c-1.26654053-1.81079102-3.36376953-3-5.73638916-3s-4.46984863 1.18920898-5.73638916 3h-.52722168c-1.26654053-1.81079102-3.36376953-3-5.73638916-3s-4.46984863 1.18920898-5.73638916 3h-1.93792725zm-2.75439453 11v-4h2.2947998c-.1895752.63433838-.2947998 1.30480957-.2947998 2s.10522461 1.36566162.2947998 2zm9 3c-2.75683594 0-5-2.24316406-5-5s2.24316406-5 5-5 5 2.24316406 5 5-2.24316406 5-5 5zm12 0c-2.75683594 0-5-2.24316406-5-5s2.24316406-5 5-5 5 2.24316406 5 5-2.24316406 5-5 5zm6.7052002-3c.1895752-.63433838.2947998-1.30480957.2947998-2s-.10522461-1.36566162-.2947998-2h11.58959961c-.1895752.63433838-.2947998 1.30480957-.2947998 2s.10522461 1.36566162.2947998 2zm18.2947998 3c-2.75683594 0-5-2.24316406-5-5s2.24316406-5 5-5 5 2.24316406 5 5-2.24316406 5-5 5zm14-3h-7.2947998c.1895752-.63433838.2947998-1.30480957.2947998-2s-.10522461-1.36566162-.2947998-2h7.2947998z"/><path d="m47 35h-2c-.55224609 0-1 .44775391-1 1s.44775391 1 1 1h2c.55224609 0 1-.44775391 1-1s-.44775391-1-1-1z"/><path d="m9.78320312 31.97607422c.07275391.01611328.14599609.02392578.21777344.02392578.45849609 0 .87158203-.31689453.97509766-.78320312l2-9c.12011719-.5390625-.22021484-1.07324219-.75927734-1.19287109-.54003906-.11816406-1.07324219.21972656-1.19287109.75927734l-2 9c-.12011719.5390625.22021484 1.07324219.75927734 1.19287109z"/><path d="m17.78320312 31.97607422c.07275391.01611328.14599609.02392578.21777344.02392578.45849609 0 .87158203-.31689453.97509766-.78320312l2-9c.12011719-.5390625-.22021484-1.07324219-.75927734-1.19287109-.5390625-.11816406-1.07324219.21972656-1.19287109.75927734l-2 9c-.12011719.5390625.22021484 1.07324219.75927734 1.19287109z"/><path d="m25.78320312 31.97607422c.07275391.01611328.14599609.02392578.21777344.02392578.45849609 0 .87158203-.31689453.97509766-.78320312l2-9c.12011719-.5390625-.22021484-1.07324219-.75927734-1.19287109-.53808594-.11816406-1.07373047.21972656-1.19287109.75927734l-2 9c-.12011719.5390625.22021484 1.07324219.75927734 1.19287109z"/></g></g></svg>