<svg id="Layer_1" enable-background="new 0 0 512 512" viewBox="0 0 512 512" xmlns="http://www.w3.org/2000/svg"><g clip-rule="evenodd" fill-rule="evenodd"><g><path d="m316.528 156.177c-.145-1.225-.221-2.47-.221-3.734 0-17.389 14.098-31.487 31.488-31.487 3.121 0 6.136.456 8.982 1.302 4.357-7.948 12.801-13.338 22.505-13.338 10.028 0 18.711 5.756 22.928 14.143 3.418-1.272 7.116-1.968 10.977-1.968 17.39 0 31.488 14.098 31.488 31.487 0 1.264-.077 2.51-.221 3.735 15.991 1.503 28.504 14.962 28.504 31.346 0 17.39-14.098 31.487-31.487 31.487-42.469 0-81.1 0-124.944 0-17.39 0-31.488-14.097-31.488-31.487-.001-17.391 14.097-31.486 31.489-31.486z" fill="#937661"/><path d="m486 183.931h-195.724c-3.262 0-6.069-1.409-8.018-4.025l-44.009-59.056c-1.949-2.616-4.756-4.025-8.018-4.025h-55.424c-5.508 0-10 4.492-10 10v16.085c0 5.508 4.492 10 10 10h22.769c5.508 0 10 4.492 10 10v149.416c0 5.507 4.541 9.268 10 10l111.233 14.919 103.739-14.919c2.377-.342 4.465-.736 6.325-2.254l53.453-43.644c2.407-1.965 3.675-4.639 3.675-7.746v-74.751c-.001-5.508-4.493-10-10.001-10z" fill="#fdcd56"/><path d="m486 322.326h-339.038c-5.507 0-10 4.492-10 10v36.786c0 5.507 4.492 10 10 10h339.038c5.508 0 10-4.492 10-10v-36.786c0-5.508-4.492-10-10-10z" fill="#a9b0bb"/><circle cx="328.478" cy="362.702" fill="#636c77" r="40.376"/><path d="m432.69 322.326c-22.299 0-40.376 18.077-40.376 40.376s18.077 40.376 40.376 40.376 40.377-18.077 40.377-40.376c-.001-22.299-18.078-40.376-40.377-40.376z" fill="#636c77"/><path d="m154.626 186.658h-83.291c-6.267 0-11.653 2.929-15.059 8.189l-37.394 57.748c-1.965 3.034-2.882 6.137-2.882 9.751v102.846c0 7.666 6.253 13.919 13.919 13.919h124.707c5.508 0 10-4.492 10-10v-172.454c0-5.507-4.492-9.999-10-9.999z" fill="#fdcd56"/><path d="m125.771 215.219v37.283h-71.151l24.142-37.283z" fill="#a4d4ff"/><circle cx="89.973" cy="362.702" fill="#636c77" r="40.376"/></g><path d="m100.532 362.7c0 5.83-4.729 10.55-10.559 10.55s-10.555-4.72-10.555-10.55 4.725-10.564 10.555-10.564 10.559 4.734 10.559 10.564zm18.239-117.2h-51.281l15.081-23.278h36.2zm6.997-37.282h-47.009c-2.367 0-4.578 1.2-5.868 3.19l-24.148 37.282c-1.393 2.16-1.492 4.898-.273 7.148 1.228 2.263 3.59 3.661 6.15 3.661h71.147c3.873 0 7.002-3.139 7.002-7.002v-37.277c.001-3.873-3.129-7.002-7.001-7.002zm317.481 154.482c0 5.83-4.729 10.55-10.559 10.55s-10.559-4.72-10.559-10.55 4.729-10.564 10.559-10.564 10.559 4.734 10.559 10.564zm-104.218 0c0 5.83-4.72 10.55-10.55 10.55s-10.559-4.72-10.559-10.55 4.729-10.564 10.559-10.564c5.831 0 10.55 4.734 10.55 10.564zm136.63-81.702h-30.341v-55.751h43.681v44.853zm-261.081 34.322v-20.323h243.929l-24.887 20.323zm274.421 56.791h-9.872c.612-3.045.941-6.193.941-9.411 0-13.011-5.27-24.812-13.788-33.381h22.718v42.792zm-56.311 23.97c18.398 0 33.381-14.982 33.381-33.381 0-18.412-14.982-33.381-33.381-33.381s-33.381 14.968-33.381 33.381c0 18.399 14.982 33.381 33.381 33.381zm-57.779-23.97c.621-3.045.951-6.193.951-9.411 0-13.011-5.28-24.812-13.792-33.381h37.032c-8.512 8.569-13.792 20.37-13.792 33.381 0 3.219.329 6.367.951 9.411zm-46.429 23.97c18.399 0 33.376-14.982 33.376-33.381 0-18.412-14.978-33.381-33.376-33.381-18.413 0-33.381 14.968-33.381 33.381-.001 18.399 14.968 33.381 33.381 33.381zm-156.85-23.97v-42.792h123.256c-8.517 8.569-13.787 20.37-13.787 33.381 0 3.219.329 6.367.941 9.411zm-81.659-56.791c26.13 0 47.375 21.26 47.375 47.38 0 3.219-.329 6.367-.936 9.411h21.222v-178.461h-86.304c-3.892 0-7.058 1.727-9.18 4.997l-37.39 57.751c-1.228 1.901-1.76 3.68-1.76 5.938v102.853c0 3.811 3.101 6.922 6.922 6.922h13.618c-.617-3.045-.937-6.193-.937-9.411-.001-26.12 21.245-47.38 47.37-47.38zm0 80.761c18.408 0 33.376-14.982 33.376-33.381 0-18.412-14.968-33.381-33.376-33.381-18.403 0-33.371 14.968-33.371 33.381-.001 18.399 14.968 33.381 33.371 33.381zm239.977-170.834h43.681v55.751h-43.681zm-57.69 0h43.691v55.751h-43.691zm-57.68 0h43.681v55.751h-43.681zm173.05 55.751v-55.751h43.691v55.751zm-215.819-135.091v-22.087h59.93l47.912 64.287c1.317 1.774 3.397 2.823 5.609 2.823h203.74v20.318h-274.422v-58.339c0-3.868-3.139-7.002-6.997-7.002zm144.719 17.26c-9.599 0-17.999 5.562-21.999 13.764h168.938c-3.68-7.482-11.058-12.842-19.669-13.651-1.878-.169-3.609-1.101-4.79-2.56-1.19-1.473-1.727-3.35-1.51-5.223.122-.979.169-1.958.169-2.917 0-13.5-10.978-24.492-24.478-24.492-2.941 0-5.811.522-8.54 1.529-3.341 1.251-7.086-.226-8.691-3.407-3.185-6.352-9.58-10.291-16.676-10.291-6.809 0-13.082 3.722-16.361 9.698-1.591 2.889-4.979 4.291-8.141 3.341-2.259-.668-4.611-1.007-6.988-1.007-13.5 0-24.483 10.987-24.483 24.488 0 .96.052 1.939.17 2.908.23 1.99-.391 3.981-1.718 5.472-1.333 1.501-3.233 2.348-5.233 2.348zm186.47 110.251v-89.49c0-3.868-3.129-6.997-6.997-6.997h-17.58c-3.741-12.78-13.971-22.864-26.803-26.393-1.059-20.281-17.9-36.449-38.43-36.449-2.659 0-5.28.268-7.839.8-6.099-8.122-15.651-12.969-26.069-12.969-10.112 0-19.542 4.668-25.673 12.47-1.92-.292-3.859-.442-5.816-.442-20.342 0-37.051 15.871-38.402 35.894-11.359 2.127-21.038 9.27-26.53 19.147l-42.001-56.349c-1.318-1.769-3.402-2.819-5.609-2.819h-70.442c-3.868 0-6.997 3.139-6.997 6.997v36.091c0 3.859 3.129 6.997 6.997 6.997h35.771v155.414h-28.948v-128.672c0-3.859-3.143-6.997-7.002-6.997h-93.3c-8.606 0-16.239 4.145-20.93 11.387l-37.39 57.751c-2.702 4.159-4.01 8.592-4.01 13.547v102.853c0 11.529 9.392 20.921 20.921 20.921h18.888c8.159 14.3 23.551 23.97 41.164 23.97 17.617 0 33-9.67 41.169-23.97h156.176c8.164 14.3 23.556 23.97 41.164 23.97s33-9.67 41.159-23.97h21.89c8.16 14.3 23.551 23.97 41.159 23.97s33-9.67 41.159-23.97h22.154c3.868 0 6.997-3.143 6.997-7.002v-56.791c0-3.858-3.129-6.997-6.997-6.997h-40.251l44.679-36.473c1.628-1.326 2.569-3.317 2.569-5.429z"/></g></svg>