<svg height="512" viewBox="0 0 128 128" width="512" xmlns="http://www.w3.org/2000/svg"><g><g><path d="m49.669 39.333h1.887v1.888a1.75 1.75 0 0 0 3.5 0v-1.888h1.888a1.75 1.75 0 0 0 0-3.5h-1.888v-1.887a1.75 1.75 0 0 0 -3.5 0v1.887h-1.887a1.75 1.75 0 0 0 0 3.5z" fill="#ffd322"/><path d="m78.331 88.667h-1.887v-1.888a1.75 1.75 0 0 0 -3.5 0v1.888h-1.888a1.75 1.75 0 0 0 0 3.5h1.888v1.887a1.75 1.75 0 0 0 3.5 0v-1.887h1.887a1.75 1.75 0 0 0 0-3.5z" fill="#ffd322"/><path d="m26.538 58.583h65.8a10.875 10.875 0 1 0 -10.876-10.875 1.75 1.75 0 1 0 3.5 0 7.375 7.375 0 1 1 7.375 7.375h-65.8a1.75 1.75 0 1 0 0 3.5z" fill="#f6ebd8"/><path d="m92.337 69.417h-65.8a1.75 1.75 0 1 0 0 3.5h65.8a7.375 7.375 0 1 1 -7.375 7.375 1.75 1.75 0 0 0 -3.5 0 10.875 10.875 0 1 0 10.875-10.875z" fill="#f6ebd8"/><g fill="#ffccbe"><path d="m26.538 65.75h20.8a1.75 1.75 0 0 0 0-3.5h-20.8a1.75 1.75 0 1 0 0 3.5z"/><path d="m70.583 79a1.749 1.749 0 0 0 -1.75-1.75h-42.295a1.75 1.75 0 1 0 0 3.5h42.3a1.749 1.749 0 0 0 1.745-1.75z"/><path d="m57.5 62.25a1.75 1.75 0 0 0 0 3.5h11.333a1.75 1.75 0 0 0 0-3.5z"/><path d="m77.5 62.25a1.75 1.75 0 0 0 0 3.5h3a1.75 1.75 0 0 0 0-3.5z"/></g></g><g fill="#002e49"><path d="m49.669 39.333h1.887v1.888a1.75 1.75 0 0 0 3.5 0v-1.888h1.888a1.75 1.75 0 0 0 0-3.5h-1.888v-1.887a1.75 1.75 0 0 0 -3.5 0v1.887h-1.887a1.75 1.75 0 0 0 0 3.5z"/><path d="m78.331 88.667h-1.887v-1.888a1.75 1.75 0 0 0 -3.5 0v1.888h-1.888a1.75 1.75 0 0 0 0 3.5h1.888v1.887a1.75 1.75 0 0 0 3.5 0v-1.887h1.887a1.75 1.75 0 0 0 0-3.5z"/><path d="m26.538 58.583h65.8a10.875 10.875 0 1 0 -10.876-10.875 1.75 1.75 0 1 0 3.5 0 7.375 7.375 0 1 1 7.375 7.375h-65.8a1.75 1.75 0 1 0 0 3.5z"/><path d="m92.337 69.417h-65.8a1.75 1.75 0 1 0 0 3.5h65.8a7.375 7.375 0 1 1 -7.375 7.375 1.75 1.75 0 0 0 -3.5 0 10.875 10.875 0 1 0 10.875-10.875z"/><path d="m26.538 65.75h20.8a1.75 1.75 0 0 0 0-3.5h-20.8a1.75 1.75 0 1 0 0 3.5z"/><path d="m70.583 79a1.749 1.749 0 0 0 -1.75-1.75h-42.295a1.75 1.75 0 1 0 0 3.5h42.3a1.749 1.749 0 0 0 1.745-1.75z"/><path d="m46 50.75h22.833a1.75 1.75 0 0 0 0-3.5h-22.833a1.75 1.75 0 0 0 0 3.5z"/><path d="m38.25 50.75h1.125a1.75 1.75 0 0 0 0-3.5h-1.125a1.75 1.75 0 0 0 0 3.5z"/><path d="m26.538 50.75h5.212a1.75 1.75 0 0 0 0-3.5h-5.212a1.75 1.75 0 1 0 0 3.5z"/><path d="m57.5 62.25a1.75 1.75 0 0 0 0 3.5h11.333a1.75 1.75 0 0 0 0-3.5z"/><path d="m77.5 62.25a1.75 1.75 0 0 0 0 3.5h3a1.75 1.75 0 0 0 0-3.5z"/></g></g></svg>