<svg id="Capa_1" enable-background="new 0 0 512 512" height="512" viewBox="0 0 512 512" width="512" xmlns="http://www.w3.org/2000/svg"><g><g><path d="m412.522 95.964h-23.865l-2.49 2.995c-.019 0-.038-.003-.057-.003v31.651l1.536 1.482h26.125l1.481-1.482v-31.651z" fill="#3351c5"/><circle cx="400.682" cy="214.629" fill="#d5c6e4" r="16.875"/><g><path d="m357.147 329.827-9-62.355-32-54.115-68-46.5-6.968-12.155c-10.876-3.473-22.202-5.935-33.869-7.279-80.656 19.452-140.581 92.076-140.581 178.707 0 52.91 22.365 100.584 58.143 134.125l57.702 22.103 81.573-19.643 39.151-1.41c31.009-26.636 52.794-63.698 59.931-105.75z" fill="#8dcafc"/><path d="m70.816 325.584c0-88.473 64.22-161.936 148.585-176.344-10.621-1.967-21.568-3.004-32.758-3.004-4.151 0-8.267.153-12.348.431l-10.148 12.559-36 7.63-20.16-2.461c-22.652 11.09-42.615 26.818-58.658 45.95l.819 30.011-12.5 141.5 40.5 60.5 59.776 22.897c-40.907-32.788-67.108-83.165-67.108-139.669z" fill="#31a7fb"/><g fill="#23f1a8"><path d="m146.867 438.479c-23.935.684-18.464-22.567-48.553-18.464-.176.024-.348.04-.523.062l6.69 35.114 63.333 40.667 40.41 7.347c36.084-4.335 68.869-19.393 95.074-41.901-6.874-27.819-14.379-48.271-36.757-40.604-22.493 7.706-16.412 4.787-58.811-9.574-42.399-14.362-36.928 26.669-60.863 27.353z"/><path d="m122.248 327.012c10.258-14.361 48.553 4.787 51.973-11.626 3.419-16.412-.684-14.36-19.832-27.354-19.148-12.993 2.735-28.722-8.206-50.605-8.911-17.822-18.732-14.78-43.494-13.775l-30.042 20.206-20.5 81.511s7 28.881 8.5 30.185 18.291 23.477 18.291 23.477c2.814-2.698 6.29-5.256 10.485-7.568 33.509-18.465 22.568-30.091 32.825-44.451z"/></g><path d="m97.791 420.077c-25.965 3.178-38.384-22.316-18.853-41.047-5.276-16.878-8.122-34.829-8.122-53.446 0-37.884 11.784-73.009 31.873-101.933-5.643.229-12.059.353-19.42.099-15.054-.519-26.067-6.359-33.94-13.405-26.096 31.12-41.817 71.233-41.817 115.023 0 98.932 80.2 179.132 179.131 179.132 10.759 0 21.293-.958 31.529-2.776-50.756-9.033-94.098-39.474-120.381-81.647z" fill="#26d192"/><path d="m241.18 154.702c-3.82 8.771-6.15 22.78 9.29 34.284 24.464 18.228 34.057 23.025 26.862 42.212s-20.147 62.358 14.39 70.993c34.537 8.634 46.049 13.431 49.887 26.862 2.701 9.452 7.065 22.732 21.62 26.5 1.666-9.814 2.545-19.896 2.545-30.185.001-79.913-52.333-147.594-124.594-170.666z" fill="#23f1a8"/><path d="m167.49 162.102-26.676 15.088-1.949 7.966c1.587 1.681 3.053 3.505 4.313 5.5 10 15.834 20.417 11.667 27.5 10.417s16.25-21.278 9.584-31.89c-1.364-2.171-2.445-4.571-3.313-7.081z" fill="#23f1a8"/><path d="m115.378 170.674c5.884 2.116 16.081 6.64 23.487 14.482 11.615-9.182 24.396-16.95 38.084-23.054-1.706-4.932-2.529-10.317-2.654-15.434-23.66 1.611-46.056 7.813-66.308 17.727 1.572 2.889 4.217 5.137 7.391 6.279z" fill="#26d192"/></g><path d="m412.147 131.176-15 11.788-6.47 23.684h48.88c0-15.803-9.434-29.393-22.973-35.472z" fill="#f9f6f6"/><path d="m416.584 131.176c-4.856-2.18-10.234-3.403-15.902-3.403-21.47 0-38.875 17.405-38.875 38.875h31.804c0-15.803 9.434-29.393 22.973-35.472z" fill="#e2d8ec"/><path d="m339.129 7.5h-13.859l-4.873 5.214v90.75l5.392 4.298h13.341c4.856 0 8.83-3.974 8.83-8.83v-82.602c-.001-4.856-3.974-8.83-8.831-8.83z" fill="#d5c6e4"/><path d="m322.406 98.932v-82.602c0-4.856 3.974-8.83 8.83-8.83h-25.554c-4.857 0-8.83 3.974-8.83 8.83v82.602c0 4.856 3.974 8.83 8.83 8.83h25.554c-4.857 0-8.83-3.974-8.83-8.83z" fill="#c6b4da"/><path d="m495.682 7.5h-12.937l-6.848 3.714v91.25l5.449 5.298h14.336c4.857 0 8.83-3.974 8.83-8.83v-82.602c0-4.856-3.974-8.83-8.83-8.83z" fill="#d5c6e4"/><path d="m478.958 98.932v-82.602c0-4.856 3.974-8.83 8.83-8.83h-25.554c-4.856 0-8.83 3.974-8.83 8.83v82.602c0 4.856 3.974 8.83 8.83 8.83h25.554c-4.856 0-8.83-3.974-8.83-8.83z" fill="#c6b4da"/><path d="m415.196 16.303h-10.288l-7.011 6.161v73.5l5.113 2.995h12.187c4.215 0 7.663-3.449 7.663-7.664v-67.328c-.001-4.215-3.449-7.664-7.664-7.664z" fill="#6d81d5"/><path d="m401.33 91.295v-67.328c0-4.215 3.449-7.663 7.663-7.663h-22.826c-4.215 0-7.663 3.449-7.663 7.663v67.328c0 4.215 3.449 7.664 7.663 7.664h22.826c-4.214 0-7.663-3.449-7.663-7.664z" fill="#5169cd"/></g><g><path d="m186.632 512c102.454 0 186.632-83.273 186.632-186.632 0-103.365-83.752-186.631-186.632-186.631-103.71 0-186.632 84.33-186.632 186.631 0 102.91 83.723 186.632 186.632 186.632zm59.422-347.653c65.779 24.352 112.21 87.626 112.21 161.021 0 6.513-.43 13.526-1.012 18.603-4.436-4.24-6.623-10.609-8.442-16.978-5.086-17.803-20.75-23.446-55.279-32.078-6.802-1.701-11.42-5.026-14.119-10.167-5.328-10.146-3.576-28.228 4.932-50.916 9.339-24.903-5.782-33.256-29.402-50.859-7.039-5.244-9.98-11.38-8.888-18.626zm-78.579-9.535c1.053 6.973 3.254 13.317 6.424 18.362 1.371 2.183 1.54 6.05.451 10.346-1.443 5.69-4.288 9.405-5.443 10.25-7.511 1.408-12.521 3.771-19.4-7.119-6.685-10.584-17.757-17.139-26.118-20.838 14.122-5.617 28.95-9.322 44.086-11.001zm-116.891 66.052c9.435 6.477 20.305 9.964 32.415 10.382 11.591.401 20.918-.109 28.414-.517 19.221-1.044 22.57-.909 28.051 10.052 3.832 7.665 2.384 14.427.85 21.585-1.987 9.28-4.71 21.989 9.853 31.872 3.934 2.669 7.271 4.735 9.951 6.395 3.565 2.207 6.932 4.292 7.512 5.354.191.35.499 1.817-.762 7.869-.027.135-.056.216-.053.232-1.857 1.54-11.172.761-16.188.34-12.659-1.061-27.005-2.261-34.492 8.224-4.153 5.813-5.508 11.209-6.702 15.97-2.07 8.248-3.859 15.372-23.64 26.271-22.938 12.639-26.464 31.064-22.514 43.002 4.634 14.001 19.104 21.858 36.036 19.551 12.628-1.723 16.4 2 21.622 7.15 5.323 5.251 11.959 11.779 26.132 11.38 13.264-.379 19.999-9.676 25.41-17.146 6.836-9.435 11.771-16.252 28.475-11.906 4.013 1.044 8.104-1.361 9.146-5.37 1.044-4.009-1.36-8.104-5.369-9.147-26.611-6.927-36.894 7.262-44.399 17.623-5.134 7.086-8.074 10.792-13.69 10.952-7.812.233-10.722-2.677-15.17-7.065-6.012-5.93-14.245-14.053-34.184-11.333-9.672 1.319-17.44-2.369-19.768-9.401-2.145-6.479.632-16.953 15.511-25.151 23.623-13.017 27.862-23.458 30.949-35.757 1.038-4.135 1.858-7.401 4.36-10.903 2.531-3.543 13.228-2.647 21.035-1.995 12.271 1.026 29.073 2.433 32.177-12.46 3.498-16.795-.687-21.079-13.539-29.036-2.695-1.669-5.751-3.561-9.425-6.054-5.938-4.029-5.621-6.918-3.607-16.317 1.723-8.046 4.084-19.065-2.102-31.436-10.038-20.077-22.861-19.38-42.282-18.321-7.199.392-16.162.881-27.081.503-8.629-.298-16.4-2.637-23.198-6.955 13.106-14.252 28.586-26.284 45.806-35.469 1.953 1.678 4.218 3.008 6.705 3.902 5.176 1.861 17.873 7.235 23.996 16.93 9.25 14.648 19.606 17.01 33.137 14.197 2.845-.591 10.472-1.102 16.579-14.863 4.705-10.605 4.728-21.372.06-28.802-1.922-3.058-3.307-6.982-4.091-11.404 1.37-.032 2.744-.052 4.122-.052 15.582 0 30.681 2.1 45.042 6.009-4.924 22.763 12.483 33.931 20.239 39.644 20.705 15.25 22.83 17.322 18.385 29.175-10.32 27.52-11.723 48.769-4.168 63.156 4.735 9.017 12.729 14.988 23.762 17.746 33.546 8.387 41.862 12.433 44.495 21.647 2.163 7.572 6.372 22.293 20.291 29.227-6.984 33.604-23.826 63.634-47.352 86.929-4.266-14.63-9.828-27.111-20.139-32.734-6.608-3.604-14.376-3.919-23.088-.933-14.189 4.862-14.431 4.867-25.642.711-3.883-1.438-8.201.543-9.639 4.427-1.439 3.884.542 8.199 4.426 9.639 15.227 5.642 19.018 5.135 35.716-.586 6.883-2.358 10.017-.649 11.045-.088 6.657 3.63 11.116 16.523 14.832 30.783-31.036 25.271-69.179 38.508-108.205 38.508-94.638 0-171.632-76.994-171.632-171.632 0-36.684 11.745-73.544 35.584-104.504z"/><path d="m495.67 0h-33.447c-9.005 0-16.33 7.326-16.33 16.33v18.051h-15.545v-10.414c0-8.361-6.802-15.164-15.163-15.164h-29.028c-8.361 0-15.163 6.802-15.163 15.164v10.414h-15.545v-18.051c0-9.004-7.325-16.33-16.33-16.33h-33.447c-9.005 0-16.33 7.326-16.33 16.33v82.602c0 9.004 7.325 16.33 16.33 16.33h33.447c9.005 0 16.33-7.326 16.33-16.33v-18.051h15.545v10.415c0 5.608 3.068 10.503 7.606 13.127v21.448c-12.364 6.719-21.34 18.899-23.689 33.278h-1.615c-4.143 0-7.5 3.358-7.5 7.5s3.357 7.5 7.5 7.5h4.23l23.264 26.405c-2.826 3.979-4.494 8.835-4.494 14.076 0 13.44 10.935 24.375 24.375 24.375s24.375-10.935 24.375-24.375c0-5.241-1.668-10.096-4.494-14.076l23.263-26.405h4.23c4.143 0 7.5-3.358 7.5-7.5s-3.357-7.5-7.5-7.5h-1.615c-2.349-14.379-11.325-26.559-23.688-33.278v-21.448c4.539-2.623 7.606-7.519 7.606-13.127v-10.415h15.545v18.051c0 9.004 7.325 16.33 16.33 16.33h33.447c9.005 0 16.33-7.326 16.33-16.33v-23.801c0-4.142-3.357-7.5-7.5-7.5s-7.5 3.358-7.5 7.5v23.801c0 .708-.621 1.33-1.33 1.33h-33.447c-.709 0-1.33-.622-1.33-1.33v-82.602c0-.708.621-1.33 1.33-1.33h33.447c.709 0 1.33.622 1.33 1.33v23.801c0 4.142 3.357 7.5 7.5 7.5s7.5-3.358 7.5-7.5v-23.801c0-9.004-7.325-16.33-16.33-16.33zm-155.222 98.932c0 .708-.621 1.33-1.33 1.33h-33.447c-.709 0-1.33-.622-1.33-1.33v-82.602c0-.708.621-1.33 1.33-1.33h33.447c.709 0 1.33.622 1.33 1.33zm30.545-33.051h-15.545v-16.5h15.545zm15-41.914c0-.073.09-.164.163-.164h29.028c.073 0 .163.09.163.164v67.329c0 .072-.086.157-.159.161-.05 0-.099.001-.151.002h-28.735c-.052-.001-.101-.002-.151-.002-.072-.003-.159-.089-.159-.161v-67.329zm21.748 82.491v14.353c-9.25-1.156-13.001-.048-14.139 0l-.002-14.352h14.141zm-7.071 117.546c-5.169 0-9.375-4.206-9.375-9.375s4.206-9.375 9.375-9.375 9.375 4.206 9.375 9.375-4.206 9.375-9.375 9.375zm7.822-32.455c-5.079-1.726-10.56-1.728-15.644 0l-15.331-17.401h46.305zm22.647-32.401h-60.938c2.419-9.826 9.48-17.845 18.714-21.59 17.706-7.171 37.678 3.125 42.224 21.59zm14.754-93.267h-15.545v-16.5h15.545z"/></g></g></svg>