<svg id="Capa_1" enable-background="new 0 0 512 512" height="512" viewBox="0 0 512 512" width="512" xmlns="http://www.w3.org/2000/svg"><g><g><path d="m402.002 365.714-43.855-66.74-33.155-37.513c-11.512-3.676-23.425-6.449-35.654-8.256h-25.827l-63.364 28.11-50.5 42.532-29 43.117-23 60.5-3.541 46v22.709l5.041-5.459h66.087l23.488 13.786h273.57l3.355-9.786z" fill="#8dcafc"/><path d="m96.125 477.329c0-113.798 83.898-207.991 193.213-224.125-10.877-1.607-22.002-2.451-33.327-2.451h-.001c-35.196 0-68.518 8.025-98.236 22.346l-7.628 12.115-17.5 12.311-16.271 1.362c-9.672 7.579-18.705 15.934-27.021 24.959l2.292 10.473-16 25.919-16.511 4.879c-18.897 33.083-29.701 71.384-29.701 112.211 0 6.763.304 13.454.889 20.065.356 4.03 3.766 7.105 7.812 7.105h48.281l10.28-11.134c-.369-5.296-.571-10.642-.571-16.035z" fill="#31a7fb"/><path d="m277.056 329.855c-6.079-9.675-6.459-24.112-4.179-32.85s-15.748-20.895-26.49-13.297-13.401 23.935-28.598 28.114c-7.598 2.09-8.643 6.598-7.788 10.584.88 4.102 3.948 7.389 7.896 8.808 6.515 2.342 18.836 7.911 25.347 18.22 9.118 14.437 18.616 10.638 25.074 9.498 6.458-1.141 14.816-19.402 8.738-29.077z" fill="#23f1a8"/><path d="m129.313 311.145c9.118 14.437 18.616 10.638 25.074 9.498 6.459-1.139 14.817-19.401 8.738-29.076-3.33-5.301-4.942-12.029-5.351-18.468-14.76 7.113-28.629 15.782-41.399 25.788 4.797 2.992 9.622 7.007 12.938 12.258z" fill="#26d192"/><path d="m291.886 389.381c-.015-.024-.031-.049-.046-.073-2.585-4.142-7.844-5.701-12.171-3.439l-19.223 10.049c-4.955 2.59-6.488 8.842-3.485 13.557.02.031.04.062.059.093 9.402 14.886 19.195 10.969 25.855 9.794 6.661-1.175 15.279-20.004 9.011-29.981z" fill="#23f1a8"/><path d="m233.541 438.23c-21.87-14.841 3.124-32.805-9.373-57.799s-26.556-14.059-71.859-15.621c-10.167-.351-18.716-2.83-25.869-6.459l-5.793 8.613-23 60.5-3.541 46v31.036h94.616c2.451-7.299 2.711-14.193 8.109-21.749 11.716-16.403 55.456 5.467 59.362-13.279 3.904-18.745-.782-16.401-22.652-31.242z" fill="#23f1a8"/><path d="m96.125 477.329c0-43.115 12.046-83.416 32.951-117.726-13.801-6.148-22.769-16.599-28.213-25.293-2.954-4.717-6.984-8.21-11.508-10.464-11.55 12.535-21.708 26.371-30.219 41.272 15.823 19.167 20.349 40.433 7.256 73.893-14.059 35.929 2.343 41.397 18.746 63.638.452.613.873 1.231 1.28 1.851h11.336c-1.066-8.91-1.629-17.974-1.629-27.171z" fill="#26d192"/><path d="m324.992 261.461c-4.831 11.094-7.779 28.813 11.751 43.365 30.943 23.055 43.078 29.123 33.977 53.392s-25.483 78.875 18.202 89.795c43.684 10.921 58.246 16.989 63.1 33.977 1.992 6.974 4.706 15.591 10.271 22.51h11.589c4.045 0 7.454-3.073 7.812-7.101.588-6.612.894-13.304.894-20.069-.001-101.08-66.196-186.686-157.596-215.869z" fill="#23f1a8"/><path d="m256.011 32.632c-5.205 0-10.28.577-15.177 1.644-18.327 16.402-30.218 42.327-30.218 71.368v.834l1.172 1.61h112.234l3.656-3.123v-.667c0-39.416-32.25-71.666-71.667-71.666z" fill="#ffb640"/><path d="m212.574 103.625c0-29.067 12.643-54.822 31.771-70.021-33.917 5.615-60 35.25-60 70.695v.667l2.677 3.123h28.23l-2.677-3.678v-.786z" fill="#ffa90f"/><path d="m256.011 32.632c-15.942 0-28.985 32.25-28.985 71.667v.667l1.538 3.123h55.167l1.266-3.123v-.667c-.001-39.417-13.044-71.667-28.986-71.667z" fill="#ffd086"/><path d="m320.814 137.381h-80.727l-3.553 3.653v8.094c0 13.49 9.468 24.868 22.085 27.838h41.52c15.146 0 27.539-12.393 27.539-27.54v-7.794z" fill="#e2d8ec"/><path d="m237.595 149.426v-7.794l4.136-4.252h-53.25l-4.136 4.252v7.794c0 15.147 12.393 27.54 27.54 27.54h53.25c-15.148 0-27.54-12.393-27.54-27.54z" fill="#d5c6e4"/><path d="m348.248 104.966h-136.824c-7.837 2.411-13.577 9.733-13.577 18.333 0 8.601 5.74 15.922 13.577 18.333h136.824c10.083 0 18.333-8.25 18.333-18.333s-8.249-18.333-18.333-18.333z" fill="#f9f6f6"/><path d="m198.691 123.299c0-10.083 8.25-18.333 18.333-18.333h-53.25c-10.083 0-18.333 8.25-18.333 18.333s8.25 18.333 18.333 18.333h53.25c-10.083 0-18.333-8.25-18.333-18.333z" fill="#e2d8ec"/></g><g><path d="m215.348 338.271c4.654 1.673 16.07 6.501 21.543 15.167 7.406 11.727 15.94 14.269 22.696 14.269 4.203 0 7.685-.976 10.021-1.39 7.594-1.34 12.164-9.937 13.776-13.571 4.38-9.871 4.383-19.92.01-26.881-4.559-7.256-5.243-19.41-3.272-26.967 1.784-6.84-1.909-14.41-9.638-19.756-9.411-6.51-20.574-7.122-28.44-1.557-5.446 3.853-8.92 9.009-12.278 13.996-4.698 6.975-7.887 11.335-13.977 13.01-12.038 3.31-14.677 12.185-13.133 19.388 1.395 6.502 6.258 11.979 12.692 14.292zm4.418-19.218c11.758-3.233 17.682-12.027 22.44-19.093 2.725-4.044 5.298-7.864 8.5-10.129 2.863-2.026 7.133-.463 8.373.064 4.043 1.719 6.162 4.491 6.458 5.494-2.641 10.441-2.152 26.822 5.156 38.456 1.099 1.749 1.265 4.911.442 8.458-1.164 5.021-3.641 8.457-4.719 9.351-6.789 1.293-10.885 3.211-16.844-6.225-7.672-12.148-21.558-18.542-29.151-21.272-2.034-.732-3.195-2.518-3.183-3.998.216-.182.898-.658 2.528-1.106z"/><path d="m199.685 283.434c-1.705-3.774-6.146-5.453-9.923-3.746-3.775 1.706-5.452 6.148-3.747 9.923l2.236 4.949c1.253 2.772 3.982 4.414 6.84 4.414 1.032 0 2.081-.214 3.083-.667 3.775-1.706 5.452-6.148 3.747-9.923z"/><path d="m298.191 385.337c-4.726-7.572-14.185-10.203-22.008-6.115l-19.222 10.048c-8.901 4.653-11.645 15.897-6.371 24.179 5.534 8.75 12.76 14.771 23.072 14.771 4.326 0 8.036-1.037 10.506-1.473 12.129-2.14 23.151-26.936 14.023-41.41zm-17.171 26.738c-7.066 1.34-11.441 3.353-17.742-6.629-.634-.996-.436-2.324.633-2.882l19.223-10.048c.771-.405 1.786-.114 2.345.78.01.016.028.046.047.075 2.875 4.579-.852 15.793-4.506 18.704z"/><path d="m348.237 97.466h-13.385c-3.265-37.987-33.454-68.389-71.352-71.969v-17.997c0-4.142-3.357-7.5-7.5-7.5s-7.5 3.358-7.5 7.5v17.997c-37.898 3.579-68.087 33.982-71.353 71.969h-13.385c-14.245 0-25.834 11.589-25.834 25.833s11.589 25.833 25.834 25.833h13.07v.294c0 13.977 8.229 26.065 20.095 31.684l-12.404 10.869c-1.626 1.424-2.558 3.48-2.558 5.641v18.621c0 4.142 3.357 7.5 7.5 7.5s7.5-3.358 7.5-7.5v-15.221l18.692-16.38c.064-.056.119-.117.18-.175h32.663v31.776c0 4.142 3.357 7.5 7.5 7.5s7.5-3.358 7.5-7.5v-31.776h32.66c.061.057.117.119.18.175l18.692 16.38v15.221c0 4.142 3.357 7.5 7.5 7.5s7.5-3.358 7.5-7.5v-18.621c0-2.161-.932-4.217-2.558-5.641l-12.404-10.869c11.865-5.619 20.095-17.707 20.095-31.684v-.294h13.071c14.244 0 25.833-11.589 25.833-25.833.001-14.244-11.588-25.833-25.832-25.833zm-28.432 0h-27.455c-.755-19.295-4.692-38.551-11.575-52.339 21.106 8.871 36.516 28.702 39.03 52.339zm-63.805-57.334c8.038 0 19.941 22.6 21.348 57.333h-42.695c1.406-34.733 13.309-57.333 21.347-57.333zm-24.774 4.994c-6.883 13.788-10.82 33.045-11.575 52.34h-27.456c2.513-23.638 17.923-43.469 39.031-52.34zm88.94 104.3c0 11.05-8.989 20.04-20.039 20.04h-88.254c-11.05 0-20.04-8.99-20.04-20.04v-.294h128.333zm28.071-15.294c-6.76 0-177.314 0-184.475 0-5.974 0-10.834-4.86-10.834-10.833 0-5.974 4.86-10.833 10.834-10.833h184.475c5.974 0 10.833 4.86 10.833 10.833s-4.859 10.833-10.833 10.833z"/><path d="m255.999 243.253c-129.374 0-234.075 104.692-234.075 234.076 0 6.87.309 13.843.918 20.726.703 7.95 7.273 13.945 15.283 13.945h269.983c4.143 0 7.5-3.358 7.5-7.5s-3.357-7.5-7.5-7.5h-109.575c.938-3.452 2.058-6.625 4.389-9.89 5.231-7.32 30.652-.234 44.828-2.499 11.062-1.767 14.683-8.376 15.773-13.609 4.039-19.391-1.337-23.593-14.982-32.041-17.625-10.915-18.766-10.806-15.366-26.681 2.044-9.539 4.587-21.41-2.311-35.204-11.151-22.304-25.327-21.532-46.785-20.365-4.136.225-7.307 3.76-7.082 7.896.226 4.137 3.772 7.312 7.896 7.082 21.296-1.156 26.033-.949 32.555 12.096 4.544 9.088 2.852 16.989 1.06 25.354-2.33 10.876-5.229 24.413 10.811 35.297 10.981 7.451 18.995 11.433 20.282 13.791.913 1.674-.348 7.727-.763 9.716-.643 3.093-12.099 2.133-19.682 1.499-14.17-1.187-30.238-2.531-38.44 8.95-4.903 6.865-6.301 13.24-7.673 18.608h-92.775c-16.642-22.009-28.888-24.626-16.903-55.256 12.26-31.329 10.717-55.366-5.146-77.138 6.594-10.943 14.113-21.269 22.455-30.862 5.333 4.797 18.636 35.416 58.253 38.387 4.12.3 7.729-2.788 8.039-6.918.311-4.131-2.787-7.73-6.918-8.04-22.571-1.693-35.755-15.532-42.839-26.843-1.763-2.815-3.89-5.356-6.312-7.565 5.041-5.058 10.323-9.875 15.834-14.425 2.613 2.124 4.708 4.401 6.229 6.811h.001c12.013 19.021 26.972 13.892 32.718 12.879 7.593-1.339 12.163-9.936 13.775-13.57 4.381-9.871 4.385-19.92.011-26.881-1.653-2.631-2.874-6.058-3.588-9.919 27.502-12.462 58.017-19.405 90.123-19.405 20.563 0 40.47 2.854 59.354 8.175-4.385 17.094 1.529 32.96 16.896 44.411 32.162 23.963 38.276 26.505 31.436 44.745-12.846 34.257-14.653 60.588-5.372 78.263 5.714 10.882 15.396 18.096 28.777 21.441 43.335 10.834 54.122 16.21 57.707 28.761 1.227 4.294 2.617 8.688 4.456 12.95h-106.146c-4.143 0-7.5 3.358-7.5 7.5s3.357 7.5 7.5 7.5h119.172 11.589.006c8.012 0 14.581-5.996 15.282-13.944.609-6.891.919-13.864.919-20.727 0-129.699-104.963-234.077-234.077-234.077zm-185.138 253.747h-32.736c-.173 0-.329-.122-.342-.266-.57-6.445-.859-12.974-.859-19.405 0-35.136 8.328-68.358 23.092-97.819 8.975 15.88 8.623 33.146-.62 56.768-13.244 33.846-1.441 45.873 11.465 60.722zm86.345-192.985c-1.164 5.021-3.641 8.456-4.719 9.35-6.802 1.304-10.895 3.196-16.845-6.224h.001c-1.822-2.884-4.092-5.597-6.782-8.121 7.402-5.293 15.144-10.137 23.189-14.492.991 3.663 2.483 7.479 4.713 11.03 1.099 1.749 1.265 4.91.443 8.457zm317.87 173.314c0 6.42-.291 12.949-.865 19.405-.013.144-.169.266-.342.266h-7.745c-3.352-5.262-5.31-11.495-6.902-17.07-6.177-21.618-24.647-28.231-68.492-39.193-9.184-2.296-15.443-6.831-19.136-13.863-7.106-13.534-4.984-36.364 6.137-66.022 11.24-29.97-6.314-39.537-36.518-62.04-10.191-7.593-14.058-16.924-11.553-27.803 85.64 30.667 145.416 112.382 145.416 206.32z"/></g></g></svg>