<svg id="Capa_1" enable-background="new 0 0 512 512" height="512" viewBox="0 0 512 512" width="512" xmlns="http://www.w3.org/2000/svg"><g><g><circle cx="256" cy="241.865" fill="#91dafa" r="171.683"/></g><g><path d="m84.317 241.865c0 66.94 38.315 124.926 94.206 153.24l1.808-2.29c14.625-18.522 22.679-41.722 22.679-65.325 0-24.098-8.358-47.677-23.535-66.395l-6.762-8.34v-67.445c0-17.417-8.864-32.803-22.318-41.884-10.427-7.038-11.578-21.997-2.683-30.892l14.445-14.444c-46.868 30.654-77.84 83.593-77.84 143.775z" fill="#75cff9"/></g><g><path d="m427.683 241.865c0-60.182-30.972-113.121-77.839-143.775l14.444 14.444c8.895 8.895 7.744 23.855-2.683 30.892-13.454 9.08-22.318 24.466-22.318 41.884v67.445l-6.762 8.34c-15.177 18.719-23.535 42.297-23.535 66.395 0 23.602 8.054 46.802 22.678 65.325l1.808 2.29c55.892-28.314 94.207-86.3 94.207-153.24z" fill="#75cff9"/></g><g><path d="m211.731 235.684-33.88-38.808c-7.875-9.02-19.991-13.11-31.722-10.707l-56.052 11.481c-3.75 14.109-5.759 28.927-5.759 44.216 0 78.822 53.122 145.231 125.516 165.395l18.104-47.923c3.682-9.745 2.583-20.653-2.967-29.469l-2.69-4.273c-3.685-5.853-5.454-12.709-5.059-19.614l2.659-46.532c.495-8.683-2.43-17.214-8.15-23.766z" fill="#b7e546"/></g><g><path d="m172.713 246.78v-54.656c-7.518-5.624-17.173-7.883-26.584-5.956l-56.052 11.481c-3.75 14.109-5.759 28.927-5.759 44.216 0 66.941 38.318 124.921 94.212 153.233l1.802-2.283c14.625-18.522 22.679-41.722 22.679-65.325 0-24.098-8.358-47.677-23.535-66.395l-2.999-3.698c-2.435-3.002-3.764-6.751-3.764-10.617z" fill="#abd641"/></g><g><path d="m300.695 216.618h16.65c6.632 0 12.993 2.635 17.682 7.324l60.339 60.339 31.535-26.04c.51-5.391.782-10.851.782-16.375 0-94.818-76.865-171.683-171.683-171.683v101.741c0 6.632 2.635 12.993 7.324 17.682l19.688 19.688c4.69 4.689 11.051 7.324 17.683 7.324z" fill="#b7e546"/></g><g><path d="m426.901 258.24c.51-5.391.782-10.851.782-16.375 0-60.182-30.972-113.121-77.839-143.775l14.444 14.444c8.895 8.895 7.744 23.855-2.683 30.892-13.454 9.08-22.318 24.466-22.318 41.884v42.891l56.079 56.079z" fill="#abd641"/></g><g><path d="m497.611 425.667-2.799-32.317h-129.268l-6.895 32.317z" fill="#f7e365"/></g><g><path d="m497.611 425.667h-138.962l-16.807 78.772h162.593z" fill="#e490d0"/></g><g><path d="m494.812 393.35h-30.297l2.799 32.317h30.297z" fill="#f3d332"/></g><g><path d="m497.611 425.667h-30.297l6.824 78.772h30.297z" fill="#df73c1"/></g><g><path d="m352.392 14.673c-9.465 9.465-9.465 24.812 0 34.277l61.628 61.628v74.733c0-13.386-10.852-24.238-24.238-24.238-13.386 0-24.238 10.852-24.238 24.238v76.752l-12.624 15.569c-11.434 14.101-17.673 31.704-17.673 49.858 0 17.801 6 35.083 17.03 49.054l13.267 16.805h129.267l9.607-153.204c.325-5.182-.352-10.377-1.994-15.303l-38.471-129.436c-.957-3.221-2.703-6.152-5.079-8.528l-72.206-72.206c-9.464-9.464-24.811-9.464-34.276.001z" fill="#fed2a4"/></g><g><path d="m447.981 301.162c-31.434 31.434-66.225 54.982-99.925 69.483 1.315 2.022 2.717 3.994 4.221 5.9l13.267 16.805h129.267l9.607-153.204c.234-3.735-.06-7.476-.853-11.119-14.07 24.68-32.742 49.294-55.584 72.135z" fill="#ffbd86"/></g><g><path d="m14.389 425.667 2.8-32.317h129.267l6.895 32.317z" fill="#f7e365"/></g><g><path d="m14.389 425.667h138.962l16.808 78.772h-162.594z" fill="#e490d0"/></g><g><path d="m146.456 393.35h-32.317l6.895 32.317h32.317z" fill="#f3d332"/></g><g><path d="m153.351 425.667h-32.317l16.808 78.772h32.317z" fill="#df73c1"/></g><g><path d="m159.641 14.641c9.465 9.465 9.465 24.812 0 34.277l-61.66 61.66v74.733c0-13.386 10.852-24.238 24.238-24.238 13.386 0 24.238 10.852 24.238 24.238v76.752l12.624 15.569c11.434 14.101 17.673 31.704 17.673 49.858 0 17.801-6 35.083-17.03 49.054l-13.267 16.805h-129.268l-9.607-153.203c-.325-5.182.352-10.377 1.994-15.303l38.471-129.437c.957-3.221 2.703-6.152 5.079-8.528l72.238-72.238c9.465-9.465 24.811-9.465 34.277.001z" fill="#fed2a4"/></g><g><path d="m146.456 262.063v-.624c-10.1 13.597-21.577 26.938-34.362 39.723-30.347 30.347-63.822 53.341-96.425 67.944l1.52 24.243h129.267l13.267-16.805c11.03-13.972 17.03-31.253 17.03-49.054 0-18.154-6.24-35.757-17.673-49.858z" fill="#ffbd86"/></g><path d="m502.329 393.238 3.623-57.785c.259-4.135-2.882-7.696-7.016-7.955-4.162-.247-7.696 2.883-7.955 7.016l-3.22 51.338h-118.577l-11.021-13.962c-4.956-6.268-8.809-13.299-11.448-20.898-2.631-7.573-3.965-15.479-3.965-23.499 0-16.382 5.681-32.412 15.994-45.135l12.631-15.57c1.083-1.336 1.675-3.004 1.675-4.725v-76.749c0-4.471 1.741-8.675 4.91-11.842 3.15-3.158 7.349-4.897 11.82-4.897 9.23 0 16.739 7.509 16.739 16.739 0 .007.001.013.001.019v86.829c0 1.989.79 3.896 2.196 5.304l10.604 10.604c1.465 1.464 3.385 2.196 5.304 2.196s3.839-.732 5.304-2.196c2.929-2.93 2.929-7.678 0-10.607l-8.408-8.407-.001-158.48c0-1.989-.79-3.896-2.196-5.304l-61.629-61.629c-6.524-6.523-6.524-17.139-.001-23.663 6.528-6.526 17.146-6.526 23.675 0l72.198 72.188c1.497 1.503 2.605 3.363 3.205 5.375l38.469 129.438c.023.077.048.154.073.231 1.345 4.042 1.891 8.232 1.621 12.462l-3.76 59.91c-.26 4.134 2.882 7.695 7.016 7.955 4.165.252 7.696-2.884 7.955-7.016l3.759-59.903c.391-6.116-.39-12.18-2.318-18.025l-38.44-129.332c-1.308-4.386-3.712-8.425-6.965-11.691l-72.208-72.2c-12.375-12.374-32.51-12.374-44.887 0-12.372 12.373-12.372 32.505 0 44.878l59.433 59.432v30.889c-32.632-50.544-88.919-81.886-150.519-81.886s-117.887 31.342-150.519 81.886v-30.89l15.373-15.373c2.929-2.93 2.929-7.678 0-10.607-2.929-2.928-7.678-2.928-10.606 0l-17.57 17.571c-1.407 1.406-2.197 3.313-2.197 5.303l-.001 158.48-8.407 8.408c-2.929 2.929-2.929 7.678 0 10.606 1.464 1.464 3.384 2.196 5.303 2.196s3.839-.732 5.303-2.197l10.604-10.604c1.407-1.406 2.197-3.313 2.197-5.303v-86.829c0-.007.001-.013.001-.019 0-9.23 7.51-16.739 16.74-16.739 4.472 0 8.67 1.739 11.827 4.903 3.162 3.161 4.903 7.365 4.903 11.836v76.749c0 1.721.591 3.389 1.675 4.725l12.628 15.568c10.315 12.725 15.996 28.756 15.996 45.137 0 8.019-1.334 15.926-3.964 23.499-2.64 7.6-6.492 14.631-11.452 20.903l-11.018 13.957h-118.579l-9.169-146.185c-.269-4.222.276-8.412 1.622-12.456.025-.076.049-.153.072-.23l38.468-129.432c.601-2.018 1.71-3.878 3.195-5.369l72.24-72.23c6.527-6.526 17.147-6.528 23.674 0 6.524 6.523 6.524 17.139 0 23.663l-19.34 19.34c-2.929 2.93-2.929 7.678 0 10.607 2.928 2.928 7.677 2.928 10.606 0l19.34-19.34c5.992-5.992 9.292-13.961 9.292-22.439 0-8.477-3.3-16.446-9.292-22.438-12.375-12.374-32.511-12.374-44.886 0l-72.25 72.242c-3.242 3.255-5.646 7.294-6.955 11.685l-38.438 129.328c-1.928 5.846-2.708 11.909-2.319 18.016l9.573 152.625-9.577 110.553c-.181 2.094.524 4.168 1.945 5.717 1.42 1.549 3.426 2.431 5.527 2.431h162.594c2.264 0 4.406-1.022 5.831-2.782 1.424-1.76 1.977-4.069 1.504-6.283l-22.968-107.645 2.921-3.701c29.273 19.338 63.192 29.524 98.553 29.524 12.057 0 24.104-1.204 35.811-3.579 4.06-.824 6.683-4.782 5.859-8.842s-4.784-6.678-8.842-5.859c-10.727 2.177-21.772 3.28-32.829 3.28-12.307 0-24.422-1.353-36.186-3.994l15.142-40.075c4.485-11.871 3.124-25.37-3.636-36.101l-2.697-4.29c-2.866-4.544-4.22-9.795-3.915-15.181l2.66-46.527c.616-10.706-2.932-21.053-9.988-29.134l-33.878-38.807c-7.723-8.851-18.878-13.849-30.401-13.945-1.334-5.681-4.215-10.896-8.441-15.122-5.985-5.998-13.954-9.302-22.439-9.302-1.683 0-3.332.144-4.945.397 28.462-44.975 77.231-73.668 131.224-76.111v94.063c0 8.684 3.38 16.848 9.517 22.982l19.689 19.691c6.138 6.137 14.304 9.517 22.994 9.517h16.649c4.671 0 9.067 1.823 12.377 5.134l28.323 28.323v1.833l-10.956 13.507c-12.474 15.389-19.344 34.773-19.344 54.583 0 9.699 1.613 19.262 4.795 28.421 2.983 8.587 7.265 16.567 12.703 23.764-7.8 5.064-16.007 9.463-24.493 13.101-3.807 1.632-5.57 6.041-3.938 9.849 1.219 2.844 3.987 4.547 6.897 4.547.985 0 1.987-.195 2.951-.608 9.682-4.15 19.026-9.209 27.878-15.051l2.932 3.714-22.968 107.646c-.473 2.214.081 4.523 1.505 6.283s3.566 2.782 5.83 2.782h162.594c2.102 0 4.106-.882 5.527-2.431s2.126-3.623 1.944-5.717zm-478.262 7.614h116.32l3.695 17.315h-121.515zm-8.324 96.087 5.525-63.772h126.015l13.607 63.772zm156.458-295.132 33.88 38.809c4.459 5.107 6.701 11.644 6.311 18.41l-2.66 46.534c-.482 8.525 1.664 16.836 6.198 24.024l2.694 4.287c4.273 6.783 5.133 15.311 2.299 22.81l-15.644 41.403c-13.518-4.385-26.449-10.55-38.531-18.402 5.442-7.202 9.723-15.182 12.706-23.768 3.182-9.159 4.795-18.722 4.795-28.421 0-19.809-6.87-39.194-19.345-54.584l-10.954-13.505v-66.371c6.937.317 13.586 3.426 18.251 8.774zm168.132 16.834c-6.143-6.143-14.307-9.526-22.984-9.526h-16.649c-4.684 0-9.083-1.819-12.387-5.123l-19.69-19.691c-3.304-3.303-5.123-7.698-5.123-12.376v-94.064c53.992 2.443 102.761 31.135 131.223 76.111-1.613-.253-3.261-.397-4.944-.397-8.484 0-16.454 3.304-22.432 9.296-5.996 5.994-9.298 13.965-9.298 22.443v51.042zm31.279 182.211h116.321l1.5 17.315h-121.515zm-20.501 96.087 13.607-63.772h126.016l5.525 63.772z"/></g></svg>