<svg height="512" viewBox="0 0 64 64" width="512" xmlns="http://www.w3.org/2000/svg"><g id="Edc_machine" data-name="Edc machine"><path d="m39 24h23v28h-23z" fill="#54555b"/><path d="m39 29h23v5h-23z" fill="#3b3d44"/><path d="m34 20h5v36h-5z" fill="#efc43a"/><rect fill="#3b3d44" height="6" rx="2" width="7" x="51" y="42"/><rect fill="#ffdf57" height="50" rx="4" width="32" x="2" y="13"/><circle cx="18" cy="57" fill="#efc43a" r="2"/><circle cx="18" cy="49" fill="#efc43a" r="2"/><circle cx="18" cy="41" fill="#efc43a" r="2"/><circle cx="10" cy="57" fill="#efc43a" r="2"/><circle cx="10" cy="49" fill="#efc43a" r="2"/><circle cx="10" cy="41" fill="#efc43a" r="2"/><circle cx="26" cy="57" fill="#efc43a" r="2"/><circle cx="26" cy="49" fill="#efc43a" r="2"/><circle cx="26" cy="41" fill="#efc43a" r="2"/><path d="m7 25h22v10h-22z" fill="#efc43a"/><path d="m6 17h4v4h-4z" fill="#efc43a"/><path d="m26 17h4v4h-4z" fill="#efc43a"/><path d="m10 21v-20l2.662 2 2.665-2 2.666 2 2.666-2 2.671 2 2.67-2v20z" fill="#ebeeff"/><g fill="#352d34"><path d="m17.647 12.936a1.822 1.822 0 0 1 1.171.969c.019.071.068.26-.2.58-.478.57-1.635-.28-1.656-.295a1 1 0 0 0 -1.224 1.582 4.793 4.793 0 0 0 1.262.676v.552a1 1 0 0 0 2 0v-.449a2.467 2.467 0 0 0 1.145-.776 2.607 2.607 0 0 0 .608-2.374 3.7 3.7 0 0 0 -2.4-2.336 1.825 1.825 0 0 1 -1.171-.97c-.019-.07-.068-.259.2-.58.483-.573 1.644.287 1.652.293a1 1 0 0 0 1.228-1.579 4.724 4.724 0 0 0 -1.262-.687v-.542a1 1 0 0 0 -2 0v.434a2.508 2.508 0 0 0 -1.145.792 2.605 2.605 0 0 0 -.608 2.374 3.7 3.7 0 0 0 2.4 2.336z"/><path d="m18 54a3 3 0 1 0 3 3 3 3 0 0 0 -3-3zm0 4a1 1 0 1 1 1-1 1 1 0 0 1 -1 1z"/><path d="m18 46a3 3 0 1 0 3 3 3 3 0 0 0 -3-3zm0 4a1 1 0 1 1 1-1 1 1 0 0 1 -1 1z"/><path d="m18 38a3 3 0 1 0 3 3 3 3 0 0 0 -3-3zm0 4a1 1 0 1 1 1-1 1 1 0 0 1 -1 1z"/><path d="m10 54a3 3 0 1 0 3 3 3 3 0 0 0 -3-3zm0 4a1 1 0 1 1 1-1 1 1 0 0 1 -1 1z"/><path d="m10 46a3 3 0 1 0 3 3 3 3 0 0 0 -3-3zm0 4a1 1 0 1 1 1-1 1 1 0 0 1 -1 1z"/><path d="m10 38a3 3 0 1 0 3 3 3 3 0 0 0 -3-3zm0 4a1 1 0 1 1 1-1 1 1 0 0 1 -1 1z"/><path d="m26 54a3 3 0 1 0 3 3 3 3 0 0 0 -3-3zm0 4a1 1 0 1 1 1-1 1 1 0 0 1 -1 1z"/><path d="m26 46a3 3 0 1 0 3 3 3 3 0 0 0 -3-3zm0 4a1 1 0 1 1 1-1 1 1 0 0 1 -1 1z"/><path d="m26 38a3 3 0 1 0 3 3 3 3 0 0 0 -3-3zm0 4a1 1 0 1 1 1-1 1 1 0 0 1 -1 1z"/><path d="m30 35v-10a1 1 0 0 0 -1-1h-22a1 1 0 0 0 -1 1v10a1 1 0 0 0 1 1h22a1 1 0 0 0 1-1zm-2-1h-20v-8h20z"/><path d="m6 16a1 1 0 0 0 -1 1v4a1 1 0 0 0 1 1h24a1 1 0 0 0 1-1v-4a1 1 0 0 0 -1-1h-3v-15a1 1 0 0 0 -1.6-.8l-2.07 1.551-2.071-1.551a1 1 0 0 0 -1.2 0l-2.066 1.55-2.066-1.55a1 1 0 0 0 -1.2 0l-2.064 1.55-2.063-1.55a1 1 0 0 0 -1.6.8v15zm1 2h2v2h-2zm22 0v2h-2v-2zm-18-15 1.062.8a1 1 0 0 0 1.2 0l2.065-1.55 2.066 1.55a1 1 0 0 0 1.2 0l2.067-1.55 2.07 1.55a1 1 0 0 0 1.2 0l1.07-.8v17h-14z"/><path d="m10 33a1 1 0 0 0 1-1v-4a1 1 0 0 0 -2 0v4a1 1 0 0 0 1 1z"/><path d="m13 33a1 1 0 0 0 1-1v-4a1 1 0 0 0 -2 0v4a1 1 0 0 0 1 1z"/><path d="m16 33h1a1 1 0 0 0 0-2h-1a1 1 0 0 0 0 2z"/><path d="m20 33h1a1 1 0 0 0 0-2h-1a1 1 0 0 0 0 2z"/><path d="m62 23h-22v-3a1 1 0 0 0 -1-1h-4v-2a5.006 5.006 0 0 0 -5-5h-1a1 1 0 0 0 0 2h1a3 3 0 0 1 3 3v42a3 3 0 0 1 -3 3h-24a3 3 0 0 1 -3-3v-42a3 3 0 0 1 3-3h1a1 1 0 0 0 0-2h-1a5.006 5.006 0 0 0 -5 5v42a5.006 5.006 0 0 0 5 5h24a5.006 5.006 0 0 0 5-5v-2h4a1 1 0 0 0 1-1v-3h22a1 1 0 0 0 1-1v-28a1 1 0 0 0 -1-1zm-1 2v3h-21v-3zm0 8h-21v-3h21zm-23 22h-3v-34h3zm2-4v-16h21v16z"/><path d="m56 41h-3a3 3 0 0 0 -3 3v2a3 3 0 0 0 3 3h3a3 3 0 0 0 3-3v-2a3 3 0 0 0 -3-3zm0 6h-3a1 1 0 0 1 -1-1h1a1 1 0 0 0 0-2h-1a1 1 0 0 1 1-1h3a1 1 0 0 1 1 1h-1a1 1 0 0 0 0 2h1a1 1 0 0 1 -1 1z"/></g></g></svg>