<svg id="Capa_1" enable-background="new 0 0 509.319 509.319" height="512" viewBox="0 0 509.319 509.319" width="512" xmlns="http://www.w3.org/2000/svg"><g><g><path d="m289.866 178.468-41.033-10.114 37.397-151.72c1.586-6.435 8.088-10.366 14.523-8.779l17.73 4.37c6.435 1.586 10.366 8.088 8.779 14.523z" fill="#aa9ea9"/><path d="m327.263 26.746-37.4 151.72-19.42-4.78 37.77-153.23c1.08-4.35-.37-8.73-3.42-11.6l13.69 3.37c6.439 1.59 10.369 8.09 8.78 14.52z" fill="#9b8e99"/><path d="m227.658 391.661h54v92.676h-54z" fill="#c4d7fb"/><g><path d="m296.896 91.821-37.048-25.173c-1.193-.81-2.729-.916-4.021-.277l-44.624 22.072c-1.136.562-2.471.552-3.599-.026l-40.618-20.837c-1.987-1.019-4.436-.221-5.415 1.787-26.056 53.431-42.31 118.168-42.31 156.888 0 74.778 60.619 135.397 135.397 135.397s135.397-60.619 135.397-135.397c0-36.889-14.754-97.393-38.681-149.236-.877-1.901-3.085-2.79-5.044-2.051l-45.772 17.286c-1.219.461-2.585.299-3.662-.433z" fill="#eef5ff"/></g><g><path d="m390.053 226.256c0 74.78-60.62 135.4-135.39 135.4-4.22 0-8.39-.19-12.5-.57 68.91-6.31 122.89-64.27 122.89-134.83 0-35.78-13.88-93.78-36.55-144.55l17.83-6.74c1.96-.74 4.16.15 5.04 2.05 23.93 51.85 38.68 112.35 38.68 149.24z" fill="#dfe9fb"/></g><path d="m259.662 391.656h22v92.68h-22z" fill="#a9c6f9"/><path d="m254.658 236.304h155.348c0 93.182-70.127 169.859-155.348 169.859s-155.348-76.678-155.348-169.859z" fill="#eef5ff"/><path d="m410.003 236.306c0 93.18-70.12 169.86-155.34 169.86-4.21 0-8.38-.19-12.5-.56 79.47-7.05 142.84-80.72 142.84-169.3z" fill="#dfe9fb"/><path d="m420.049 255.467h-330.783c-6.627 0-12-5.373-12-12v-32.13c0-6.627 5.373-12 12-12h330.783c6.627 0 12 5.373 12 12v32.13c0 6.627-5.373 12-12 12z" fill="#ff8087"/><path d="m335.092 501.814h-160.87c-4.418 0-8-3.582-8-8v-28.739c0-4.418 3.582-8 8-8h160.87c4.418 0 8 3.582 8 8v28.739c0 4.419-3.581 8-8 8z" fill="#eef5ff"/><path d="m343.092 465.076v28.74c0 4.42-3.58 8-8 8h-25c4.42 0 8-3.58 8-8v-28.74c0-4.42-3.58-8-8-8h25c4.421 0 8 3.58 8 8z" fill="#dfe9fb"/><path d="m432.053 211.336v32.13c0 6.63-5.38 12-12 12h-25c6.62 0 12-5.37 12-12v-32.13c0-6.63-5.38-12-12-12h25c6.619 0 12 5.37 12 12z" fill="#e6646e"/></g><g><path d="m420.049 191.839h-25.527c-5.786-37.194-19.162-80.756-36.337-117.972-2.519-5.438-8.889-8.035-14.506-5.914l-20.784 7.852 11.646-47.257c1.25-5.062.454-10.306-2.242-14.765-2.694-4.456-6.963-7.595-12.014-8.836l-17.728-4.369c-5.062-1.251-10.303-.453-14.761 2.242-4.457 2.693-7.599 6.963-8.849 12.025l-11.76 47.722-3.12-2.119c-3.429-2.332-7.863-2.637-11.563-.801l-43.046 21.292-39.048-20.033c-2.777-1.423-5.937-1.663-8.896-.677-2.951.984-5.325 3.063-6.686 5.855-18.741 38.443-33.82 85.972-40.031 125.757h-25.527c-10.752 0-19.5 8.748-19.5 19.5v32.13c0 10.752 8.748 19.5 19.5 19.5h4.414c5.655 40.14 24.001 77.145 52.111 104.807 21.314 20.974 46.949 35.259 74.365 41.804v39.998h-45.93c-8.547 0-15.5 6.953-15.5 15.5v28.74c0 8.547 6.953 15.5 15.5 15.5h20.84c4.142 0 7.5-3.358 7.5-7.5s-3.358-7.5-7.5-7.5h-20.84c-.271 0-.5-.229-.5-.5v-28.74c0-.276.224-.5.5-.5h160.86c.275 0 .5.224.5.5v28.74c0 .271-.229.5-.5.5h-105.02c-4.142 0-7.5 3.358-7.5 7.5s3.358 7.5 7.5 7.5h105.02c8.547 0 15.5-6.953 15.5-15.5v-28.74c0-8.547-6.953-15.5-15.5-15.5h-45.93v-40c27.416-6.545 53.052-20.83 74.365-41.804 28.11-27.662 46.455-64.668 52.11-104.807h4.415c10.752 0 19.5-8.748 19.5-19.5v-32.13c-.001-10.752-8.749-19.5-19.501-19.5zm-126.538-173.403c.289-1.17 1.016-2.158 2.044-2.78s2.239-.807 3.409-.516l17.735 4.371c1.162.286 2.143 1.007 2.763 2.032.621 1.028.805 2.238.515 3.411l-14.117 57.285-6.243 2.358-19.196-13.041zm-19.351 431.143h-39v-37.217c6.441.855 12.95 1.297 19.5 1.297s13.059-.442 19.5-1.297zm-19.5-50.92c-72.605 0-134-57.767-145.824-135.69h291.649c-11.825 77.922-73.22 135.69-145.825 135.69zm169.889-155.19c0 2.481-2.019 4.5-4.5 4.5h-330.779c-2.481 0-4.5-2.019-4.5-4.5v-32.13c0-2.481 2.019-4.5 4.5-4.5h224.36c4.143 0 7.5-3.358 7.5-7.5s-3.357-7.5-7.5-7.5h-183.637c6.016-36.784 19.71-80.102 36.762-115.951l37.405 19.19c3.243 1.68 7.133 1.705 10.375.083l42.787-21.163 35.378 24.035c3.097 2.093 7.023 2.556 10.511 1.242l42.718-16.137c15.618 34.572 27.801 74.336 33.4 108.701h-30.699c-4.143 0-7.5 3.358-7.5 7.5s3.357 7.5 7.5 7.5h71.42c2.481 0 4.5 2.019 4.5 4.5v32.13z"/></g></g></svg>