<svg height="512" viewBox="0 0 128 128" width="512" xmlns="http://www.w3.org/2000/svg"><g><g><path d="m100.719 70.57c0 24.6-16.416 40.981-36.667 40.981s-36.666-16.377-36.666-40.981 16.414-54.121 36.666-54.121 36.667 29.516 36.667 54.121z" fill="#fff8cd"/><circle cx="64.052" cy="77.812" fill="#fc852d" r="22.656" transform="matrix(.707 -.707 .707 .707 -36.261 68.083)"/></g><g fill="#212f68"><path d="m34.431 40.79a1.75 1.75 0 0 0 2.358-.752q.334-.646.682-1.282a1.751 1.751 0 0 0 -3.071-1.678q-.366.67-.718 1.355a1.749 1.749 0 0 0 .749 2.357z"/><path d="m64 14.7c-8.182 0-16.165 4.392-23.087 12.7a1.75 1.75 0 1 0 2.687 2.239c4.35-5.219 11.419-11.439 20.4-11.439 15.815 0 34.917 23.361 34.917 52.37 0 22.73-14.685 39.23-34.917 39.23s-34.917-16.5-34.917-39.231a65.942 65.942 0 0 1 3.457-20.4 1.75 1.75 0 0 0 -3.323-1.1 69.482 69.482 0 0 0 -3.634 21.5c0 24.761 16.157 42.731 38.417 42.731s38.416-17.971 38.416-42.732c0-25.304-17.136-55.868-38.416-55.868z"/><path d="m64 102.218a24.406 24.406 0 1 0 -24.406-24.4 24.433 24.433 0 0 0 24.406 24.4zm0-45.311a20.906 20.906 0 1 1 -20.906 20.906 20.93 20.93 0 0 1 20.906-20.906z"/></g></g></svg>