<svg enable-background="new 0 0 512 512" height="512" viewBox="0 0 512 512" width="512" xmlns="http://www.w3.org/2000/svg"><g id="_x33_7_Broken_egg"><g><g><g fill="#eef0ee"><path d="m429.979 334.928c0 96.038-77.77 173.808-173.808 173.808-96.006 0-173.808-77.77-173.808-173.808 0-15.92 2.123-34.253 6.143-53.84l33.867 46.7 33.289-46.154 33.9 46.765 33.288-46.154 33.9 46.765 33.321-46.154 33.9 46.797 33.289-46.186 33.9 46.797 33.288-46.154c3.601 18.431 5.531 35.734 5.531 50.818z"/><path d="m88.538 280.927c-.032.064-.032.129-.032.161l-.064-.064z"/><path d="m429.881 242.01-35.061-48.401-34.429 47.735-35.061-48.367-34.43 47.736-35.095-48.367-34.429 47.735-35.061-48.367-34.429 47.735-35.095-48.367-34.33 47.636c20.857-101.924 90.547-235.45 173.377-235.45 83.728-.001 154.017 136.419 174.043 238.742z"/></g><path d="m429.88 242.01-35.07-48.41-6.983 9.693c-29.729-90.933-90.254-185.93-160.134-185.93-8.468 0-16.806 1.407-24.961 4.039 16.779-11.49 34.601-18.134 53.1-18.134 83.741-.001 154.012 136.424 174.048 238.742z" opacity=".1"/><g><path d="m132.15 429.8c-6.695-8.682-12.762-18.638-17.384-28.485-.765-1.628-.065-3.567 1.564-4.333 1.63-.761 3.569-.064 4.332 1.565 4.391 9.351 10.233 18.964 16.646 27.274 1.099 1.425.835 3.471-.589 4.57-1.435 1.101-3.478.825-4.569-.591z" fill="#fff"/></g><g><path d="m111.383 387.488c-1.51 0-2.781-1.02-3.149-2.412-1.093-3.17-1.971-6.018-2.683-8.697-.462-1.738.573-3.522 2.31-3.985 1.747-.455 3.523.572 3.985 2.31.687 2.585 1.542 5.348 2.614 8.45.731 2.106-.837 4.334-3.077 4.334z" fill="#fff"/></g></g><g><path d="m425.12 431.284c-1.547-.913-3.544-.405-4.465 1.137-1.763 2.972-3.285 5.387-4.789 7.598-1.013 1.488-.626 3.514.86 4.524 1.5 1.018 3.522.617 4.524-.86 1.583-2.326 3.173-4.845 5.007-7.934.919-1.546.408-3.546-1.137-4.465z"/><path d="m405.871 453.82c-9.989 12.592-21.592 23.928-34.485 33.686-1.432 1.086-1.715 3.13-.631 4.565 1.082 1.426 3.121 1.72 4.565.631 13.328-10.091 25.325-21.811 35.655-34.836 1.117-1.407.88-3.458-.529-4.575-1.404-1.112-3.452-.88-4.575.529z"/><path d="m122.642 80.23c1.53.957 3.542.485 4.488-1.033 2.915-4.659 4.733-7.316 4.906-7.58 1.015-1.486.631-3.511-.855-4.524-1.478-1.015-3.514-.636-4.524.855-.172.263-2.064 3.016-5.048 7.794-.954 1.526-.491 3.536 1.033 4.488z"/><path d="m141.916 57.577c10.366-13.977 21.238-26.134 32.317-36.131 1.333-1.204 1.44-3.265.234-4.6-1.206-1.336-3.265-1.435-4.6-.234-11.394 10.285-22.559 22.763-33.182 37.083-1.071 1.445-.768 3.486.674 4.557 1.45 1.071 3.486.767 4.557-.675z"/><path d="m80.982 241.698c1.41.621 3.053.168 3.949-1.079l31.699-43.983 32.449 44.724c1.304 1.796 3.984 1.787 5.277-.008l31.795-44.082 32.419 44.721c1.301 1.8 3.984 1.79 5.277-.005l31.795-44.085 32.452 44.724c1.304 1.797 3.984 1.787 5.277-.008l31.795-44.082 32.416 44.719c1.291 1.786 3.973 1.804 5.277-.005l31.793-44.08 32.419 44.752c.908 1.253 2.557 1.678 3.936 1.076 1.402-.611 2.193-2.112 1.898-3.613-9.652-49.321-32.257-110.627-63.746-159.112-30.66-47.208-69.742-82.261-113.492-82.261-49.019 0-88.315 44.032-112.648 80.969-28.862 43.81-52.756 102.533-63.921 157.084-.307 1.504.477 3.018 1.884 3.634zm174.686-235.176c46.607 0 84.554 43.243 108.18 79.521 26.017 39.943 47.716 91.852 59.41 141.507l-25.971-35.854c-1.302-1.793-3.981-1.797-5.28.005l-31.795 44.08-32.416-44.719c-1.291-1.786-3.973-1.804-5.277.005l-31.795 44.085-32.452-44.724c-1.304-1.797-3.984-1.787-5.277.008l-31.795 44.082-32.419-44.719c-1.291-1.786-3.973-1.804-5.277.005l-31.795 44.082-32.452-44.724c-1.306-1.799-3.986-1.786-5.277.01l-24.979 34.66c11.122-44.935 31.963-97.222 59.465-139.246 29.376-44.885 66.353-78.064 107.202-78.064z"/><path d="m433.064 334.926c0-15.155-1.88-32.462-5.593-51.444-.249-1.272-1.229-2.277-2.499-2.555-1.272-.28-2.578.221-3.338 1.275l-30.653 42.5-31.253-43.149c-1.301-1.792-3.981-1.8-5.28.008l-30.655 42.528-31.253-43.146c-1.297-1.786-3.97-1.804-5.28.005l-30.686 42.502-31.258-43.118c-1.291-1.786-3.973-1.804-5.277.005l-30.655 42.5-31.253-43.116c-1.294-1.79-3.976-1.801-5.277.005l-30.655 42.502-31.225-43.055c-.758-1.048-2.061-1.552-3.323-1.272-1.262.272-2.244 1.265-2.504 2.529-4.119 20.071-6.208 38.406-6.208 54.494 0 97.635 79.43 177.065 177.065 177.065 97.63.002 177.06-79.428 177.06-177.063zm-177.063 170.552c-94.043 0-170.551-76.509-170.551-170.551 0-13.681 1.562-29.078 4.649-45.861l29.47 40.632c1.308 1.808 3.989 1.782 5.277-.005l30.655-42.5 31.253 43.116c1.291 1.786 3.973 1.804 5.277-.005l30.655-42.502 31.256 43.118c1.299 1.797 3.976 1.793 5.277-.005l30.686-42.502 31.256 43.151c1.301 1.792 3.981 1.8 5.28-.008l30.655-42.528 31.251 43.146c1.302 1.793 3.981 1.797 5.28-.005l28.831-39.971c2.715 15.648 4.091 29.991 4.091 42.729.001 94.042-76.508 170.551-170.548 170.551z"/></g></g></g></svg>