<svg height="512" viewBox="0 0 128 128" width="512" xmlns="http://www.w3.org/2000/svg"><g><g><path d="m90.435 49.939v28.3a22.155 22.155 0 0 1 -22.08 22.07h-8.7a22.155 22.155 0 0 1 -22.08-22.07v-28.3a22.155 22.155 0 0 1 22.08-22.07h8.7a22.155 22.155 0 0 1 22.08 22.07z" fill="#fecd1a"/><path d="m46.667 78.54v-28.9a12.075 12.075 0 0 1 12.075-12.076h10.525a12.075 12.075 0 0 1 12.075 12.075v28.9a12.075 12.075 0 0 1 -12.074 12.076h-10.526a12.075 12.075 0 0 1 -12.075-12.075z" fill="#fd3a69"/><path d="m83.765 25.574v8.605a21.978 21.978 0 0 0 -15.41-6.31h-8.7a21.978 21.978 0 0 0 -15.41 6.31v-8.6a6.485 6.485 0 0 1 6.485-6.485h26.55a6.486 6.486 0 0 1 6.485 6.48z" fill="#9d0191"/><path d="m83.765 94v8.6a6.485 6.485 0 0 1 -6.485 6.485h-26.55a6.484 6.484 0 0 1 -6.485-6.485v-8.6a21.978 21.978 0 0 0 15.41 6.31h8.7a21.978 21.978 0 0 0 15.41-6.31z" fill="#9d0191"/><g fill="#fc852d"><path d="m23.237 47.836h14.34a0 0 0 0 1 0 0v9.715a0 0 0 0 1 0 0h-14.34a4.233 4.233 0 0 1 -4.237-4.232v-1.25a4.233 4.233 0 0 1 4.237-4.233z"/><path d="m23.237 71.233h14.34a0 0 0 0 1 0 0v9.715a0 0 0 0 1 0 0h-14.34a4.233 4.233 0 0 1 -4.237-4.232v-1.25a4.233 4.233 0 0 1 4.237-4.233z"/><path d="m94.665 47.836h14.335a0 0 0 0 1 0 0v9.715a0 0 0 0 1 0 0h-14.335a4.232 4.232 0 0 1 -4.232-4.232v-1.25a4.233 4.233 0 0 1 4.232-4.233z" transform="matrix(-1 0 0 -1 199.437 105.387)"/><path d="m94.665 71.233h14.335a0 0 0 0 1 0 0v9.715a0 0 0 0 1 0 0h-14.335a4.232 4.232 0 0 1 -4.232-4.232v-1.25a4.233 4.233 0 0 1 4.232-4.233z" transform="matrix(-1 0 0 -1 199.437 152.181)"/></g><g fill="#282d66"><path d="m56.819 44.289a3.547 3.547 0 1 0 3.547 3.547 3.547 3.547 0 0 0 -3.547-3.547z"/><circle cx="71.191" cy="47.836" r="3.547"/><path d="m56.819 59.741a3.547 3.547 0 1 0 3.547 3.546 3.547 3.547 0 0 0 -3.547-3.546z"/><path d="m71.191 59.741a3.547 3.547 0 1 0 3.546 3.546 3.547 3.547 0 0 0 -3.546-3.546z"/><path d="m56.819 75.192a3.547 3.547 0 1 0 3.547 3.547 3.547 3.547 0 0 0 -3.547-3.547z"/><path d="m71.191 75.192a3.547 3.547 0 1 0 3.546 3.547 3.547 3.547 0 0 0 -3.546-3.547z"/></g></g><g fill="#282d66"><path d="m45.27 63.9a1.717 1.717 0 0 0 3.434 0v-14.064a10.138 10.138 0 0 1 10.132-10.12h10.328a10.137 10.137 0 0 1 10.136 10.12v28.328a10.137 10.137 0 0 1 -10.132 10.12h-10.332a10.138 10.138 0 0 1 -10.136-10.12v-2.94a1.717 1.717 0 0 0 -3.434 0v2.94a13.573 13.573 0 0 0 13.566 13.55h10.332a13.573 13.573 0 0 0 13.567-13.55v-28.328a13.573 13.573 0 0 0 -13.567-13.55h-10.328a13.573 13.573 0 0 0 -13.566 13.55z"/><path d="m62.442 21.609h1.141a1.716 1.716 0 1 0 0-3.431h-1.141a1.716 1.716 0 1 0 0 3.431z"/><path d="m104.005 59.307a5.873 5.873 0 0 0 5.871-5.864v-1.225a5.873 5.873 0 0 0 -5.871-5.864h-12.662a23.1 23.1 0 0 0 -6.235-12.368v-7.737a8.086 8.086 0 0 0 -8.081-8.071h-4.059a1.716 1.716 0 1 0 0 3.431h4.059a4.648 4.648 0 0 1 4.646 4.64v4.806a23.149 23.149 0 0 0 -13.4-4.271h-8.541a23.147 23.147 0 0 0 -13.4 4.271v-4.806a4.648 4.648 0 0 1 4.647-4.64h.538a1.716 1.716 0 1 0 0-3.431h-.538a8.086 8.086 0 0 0 -8.082 8.071v7.737a23.1 23.1 0 0 0 -6.235 12.368h-12.662a5.873 5.873 0 0 0 -5.871 5.864v1.225a5.873 5.873 0 0 0 5.871 5.864h12.347v9.98h-12.347a5.873 5.873 0 0 0 -5.871 5.864v1.225a5.873 5.873 0 0 0 5.871 5.863h12.762a23.114 23.114 0 0 0 6.13 11.775v7.736a8.086 8.086 0 0 0 8.082 8.072h26.053a8.086 8.086 0 0 0 8.081-8.072v-7.737a23.111 23.111 0 0 0 6.13-11.774h12.767a5.873 5.873 0 0 0 5.871-5.863v-1.225a5.873 5.873 0 0 0 -5.871-5.864h-12.352v-9.98zm-12.354-9.523h12.354a2.437 2.437 0 0 1 2.436 2.434v1.225a2.436 2.436 0 0 1 -2.436 2.433h-12.352v-5.745c0-.026 0-.051 0-.077zm-23.382-19.57a20.008 20.008 0 0 1 19.947 19.878v7.5.019 13.372.019 6.906a20.007 20.007 0 0 1 -19.947 19.877h-8.537a20.007 20.007 0 0 1 -19.948-19.877v-6.908-.019-13.37-.019-7.5a20.008 20.008 0 0 1 19.948-19.878zm-44.269 25.662a2.436 2.436 0 0 1 -2.436-2.433v-1.225a2.437 2.437 0 0 1 2.436-2.434h12.349v.27.077 5.745zm12.349 22.933h-12.349a2.437 2.437 0 0 1 -2.436-2.433v-1.225a2.437 2.437 0 0 1 2.436-2.434h12.347v5.152.077zm40.678 27.582h-26.053a4.649 4.649 0 0 1 -4.647-4.641v-4.806a23.143 23.143 0 0 0 13.405 4.272h8.537a23.151 23.151 0 0 0 13.4-4.271v4.805a4.649 4.649 0 0 1 -4.642 4.641zm26.978-33.674a2.437 2.437 0 0 1 2.436 2.434v1.225a2.437 2.437 0 0 1 -2.436 2.433h-12.354v-.863c0-.026 0-.051 0-.077v-5.152z"/></g></g></svg>