<svg id="Layer_1-2" viewBox="0 0 64 64" xmlns="http://www.w3.org/2000/svg"><g id="Electric_Car"><path d="m16.9999601 8h-13.9999601v3l7.55995247 10.07993663z" fill="#66a8ff"/><path d="m61.05334473 29.27001953-6.05334473-2.27001953-8.97790527-15.50726318c-1.25152588-2.16168213-3.56011963-3.49273682-6.0579834-3.49273682h-27.42028809c-.96881104 0-1.87805176.46789551-2.44116211 1.25628662l-8.54388427 11.96136475c-.36340332.5088501-.55877686 1.11846924-.55877686 1.74371338v24.03863525c0 1.10455322.89544678 2 2 2h58c1.10455322 0 2-.89544678 2-2v-14.92102051c0-1.25048828-.7756958-2.36987305-1.94665527-2.80895996z" fill="#7dc1ff"/><circle cx="14" cy="48" fill="#748793" r="8"/><circle cx="14" cy="48" fill="#657482" r="3"/><circle cx="50" cy="48" fill="#748793" r="8"/><circle cx="50" cy="48" fill="#657482" r="3"/><path d="m46.02001953 11.48999023c-1.25-2.15997314-3.55999756-3.48999023-6.05999756-3.48999023h-16.96002197l3 14.23999023c.58001709 2.77001953 3.0300293 4.76000977 5.86999512 4.76000977h23.13000488z" fill="#657482"/><path d="m57 33h6v6h-1c-2.75957512 0-5-2.24042488-5-5z" fill="#ffd278"/><path d="m6 24h-5v12h5c.55230713 0 1-.44769287 1-1v-10c0-.55230713-.44769287-1-1-1z" fill="#ffd278"/><path d="m1 30v6h5c.55230713 0 1-.44769287 1-1v-5z" fill="#f9bd5f"/><g fill="#292930"><path d="m61.40136719 28.33398438-5.71484375-2.14453125-8.80175781-15.20019531c-1.42382812-2.46044922-4.07714844-3.98925781-6.92480469-3.98925781h-36.95996094c-.55273438 0-1 .44775391-1 1v3c0 .21630859.0703125.42675781.20019531.60009766l2.56134033 3.4151001-4.01934814 5.6288452c-.47851562.67871094-.7421875 1.50146484-.7421875 2.31591797v24.04003906c0 1.65429688 1.34570312 3 3 3h2.23175049c.9128418 4.00170898 4.49359131 7 8.76824951 7s7.85540771-2.99829102 8.76824951-7h18.46350098c.9128418 4.00170898 4.49359131 7 8.76824951 7s7.85540771-2.99829102 8.76824951-7h2.23175049c1.65429688 0 3-1.34570312 3-3v-14.91992188c0-1.65625-1.04394531-3.16162109-2.59863281-3.74609375zm.59863281 9.66601562c-2.20605469 0-4-1.79443359-4-4h4zm-16.84570312-26.00878906 8.11138916 14.00878906h-21.39752197c-2.35058594 0-4.40820312-1.66992188-4.89257812-3.97021484l-2.74316406-13.02978516h15.72753906c2.13574219 0 4.12597656 1.14599609 5.19433594 2.99121094zm-41.15429688-1.32470703v-1.66650391h5.05670166l-3.07592773 4.30773926zm-2 20.33349609h4v4h-4v-4zm4-2h-4v-4h4v4zm8 26c-3.859375 0-7-3.14013672-7-7s3.140625-7 7-7 7 3.14013672 7 7-3.140625 7-7 7zm36 0c-3.859375 0-7-3.14013672-7-7s3.140625-7 7-7 7 3.14013672 7 7-3.140625 7-7 7zm12-8c0 .55126953-.44824219 1-1 1h-2c0-4.96240234-4.03710938-9-9-9s-9 4.03759766-9 9h-18c0-4.96240234-4.03710938-9-9-9s-9 4.03759766-9 9h-2c-.55175781 0-1-.44873047-1-1v-10h5c.55273438 0 1-.44775391 1-1v-12c0-.55224609-.44726562-1-1-1h-5v-.04003906c0-.40576172.13378906-.81884766.37304688-1.15869141l8.53710938-11.95605469c.3828125-.52929688.99121094-.84521484 1.62988281-.84521484h9.64862061l2.82989502 13.44189453c.67871094 3.22070312 3.55957031 5.55810547 6.84960938 5.55810547h22.95074463l5.8793335 2.20605469c.75238037.28320312 1.25585938.99865723 1.28924561 1.79394531h-4.98748779c-.55273438 0-1 .44775391-1 1v1c0 3.30859375 2.69140625 6 6 6v7z"/><path d="m14 44c-2.20605469 0-4 1.79443359-4 4s1.79394531 4 4 4 4-1.79443359 4-4-1.79394531-4-4-4zm0 6c-1.10253906 0-2-.89697266-2-2s.89746094-2 2-2 2 .89697266 2 2-.89746094 2-2 2z"/><path d="m50 44c-2.20605469 0-4 1.79443359-4 4s1.79394531 4 4 4 4-1.79443359 4-4-1.79394531-4-4-4zm0 6c-1.10253906 0-2-.89697266-2-2s.89746094-2 2-2 2 .89697266 2 2-.89746094 2-2 2z"/><path d="m19.44726562 23.10546875-3.10546875-1.55273438 1.55273438-3.10546875c.24707031-.49414062.046875-1.09472656-.44726562-1.34179688-.49316406-.24609375-1.09375-.04638672-1.34179688.44726562l-2 4c-.24707031.49414062-.046875 1.09472656.44726562 1.34179688l3.10546875 1.55273438-1.55273438 3.10546875c-.24707031.49414062-.046875 1.09472656.44726562 1.34179688.14355469.07177734.29589844.10546875.44628906.10546875.3671875 0 .71972656-.20214844.89550781-.55273438l2-4c.24707031-.49414062.046875-1.09472656-.44726562-1.34179688z"/><path d="m32 31.99951172-4 .00048828c-.55273438 0-1 .44775391-1 1s.44824219 1 1 1l4-.00048828c.55273438 0 1-.44775391 1-1s-.44824219-1-1-1z"/></g></g></svg>