<svg id="Capa_1" enable-background="new 0 0 512 512" height="512" viewBox="0 0 512 512" width="512" xmlns="http://www.w3.org/2000/svg"><g><g><g fill="#120078"><path d="m316 397.472h-31.744c-3.866 0-7-3.134-7-7s3.134-7 7-7h31.744c3.866 0 7 3.134 7 7s-3.134 7-7 7z"/><path d="m316 425.808h-31.744c-3.866 0-7-3.134-7-7s3.134-7 7-7h31.744c3.866 0 7 3.134 7 7s-3.134 7-7 7z"/><path d="m223.788 411.636h-54.06c-17.443-.022-31.578-14.157-31.6-31.6v-53.028c0-3.866 3.134-7 7-7s7 3.134 7 7v53.028c.011 9.716 7.884 17.589 17.6 17.6h54.06c3.866 0 7 3.134 7 7s-3.134 7-7 7z"/></g><path d="m255.504 436.356h28.752v-63.436h-28.752c-17.516 0-31.716 14.2-31.716 31.716v.004c0 17.516 14.2 31.716 31.716 31.716z" fill="#fc852d"/><circle cx="145.124" cy="258.076" fill="#fecd1a" r="68.932"/><circle cx="366.912" cy="258.076" fill="#fecd1a" r="68.932"/></g><g><path d="m312.956 120.336 5.936 17.6-86.4 51.148-.588-1.908-21.268-69.412h17.784c3.866 0 7-3.134 7-7s-3.134-7-7-7h-50.572c-3.866 0-7 3.134-7 7s3.134 7 7 7h18.152l7.112 23.2-27.024 47.932c-38.25-17.133-83.147-.015-100.28 38.235s-.015 83.147 38.235 100.28c7.614 3.41 15.738 5.542 24.045 6.309v46.4c.022 17.443 14.157 31.578 31.6 31.6h47.74c3.388 18.359 19.383 31.693 38.052 31.72h28.752c3.865-.002 6.998-3.135 7-7v-10.552h24.72c3.866 0 7-3.134 7-7s-3.134-7-7-7h-24.72v-14.352h24.72c3.866 0 7-3.134 7-7s-3.134-7-7-7h-24.72v-10.548c-.002-3.865-3.135-6.998-7-7h-28.752c-18.666.03-34.66 13.361-38.052 31.716h-47.728c-9.715-.013-17.587-7.885-17.6-17.6v-46.384c36.365-3.416 65.16-32.211 68.576-68.576h25.564c1.981.003 3.871-.834 5.2-2.304l79.856-88.244 4.8 14.208c-38.295 17.064-55.506 61.942-38.442 100.237 16.234 36.432 57.893 54.087 95.362 40.415 3.588-1.44 5.329-5.516 3.889-9.104-1.376-3.429-5.18-5.198-8.689-4.04-32.089 11.792-67.66-4.662-79.452-36.751-11.083-30.159 2.753-63.784 31.852-77.409l19.636 58.248c.962 2.846 3.631 4.763 6.636 4.764 3.873-.009 7.005-3.156 6.995-7.029-.002-.752-.124-1.499-.363-2.211l-19.672-58.3c33.382-7.237 66.311 13.958 73.548 47.34.939 4.33 1.41 8.749 1.404 13.18 0 3.866 3.134 7 7 7s7-3.134 7-7c-.04-41.911-34.001-75.879-75.912-75.928-5.904.022-11.785.733-17.524 2.12l-20.964-62.104 8.048-3.028c.625-.235 1.214-.558 1.748-.96 11.965-9.025 14.348-26.04 5.323-38.005-5.122-6.79-13.13-10.786-21.635-10.795h-30.88c-3.866 0-7 3.134-7 7s3.134 7 7 7h30.88c7.255.003 13.134 5.886 13.131 13.141-.001 3.811-1.658 7.433-4.539 9.927l-13.336 5.024c-.552.207-2.48 1.004-3.669 3.119-1.479 2.633-.658 5.251-.515 5.681zm-57.476 259.664h21.752v49.436h-21.752c-13.651.174-24.859-10.752-25.032-24.404-.174-13.651 10.752-24.859 24.404-25.032.209-.003.419-.003.628 0zm-46.764-220.488 9.524 30.8 18.652 60.824h-16.216c-2.086-22.339-13.947-42.61-32.4-55.372zm-2.112 91.632h-49.528l24.288-43.092c14.094 10.18 23.255 25.82 25.24 43.092zm-61.508 68.932c-34.204.012-61.941-27.707-61.953-61.911s27.707-61.941 61.911-61.953c8.295-.003 16.506 1.661 24.146 4.892l-30.208 53.6c-1.898 3.368-.706 7.637 2.663 9.535 1.048.59 2.23.901 3.433.901h61.516c-3.586 31.27-30.033 54.891-61.508 54.936zm104.316-75.864-12.696-41.412 86.768-51.36 2.684 7.944zm180.472 56.336c-.912 1.352-1.864 2.671-2.856 3.956-2.364 3.06-6.76 3.624-9.82 1.26s-3.624-6.76-1.26-9.82c.8-1.053 1.577-2.129 2.332-3.228 2.235-3.154 6.604-3.9 9.758-1.665 3.054 2.164 3.866 6.348 1.842 9.497z" fill="#282d66"/></g></g></svg>