<svg clip-rule="evenodd" fill-rule="evenodd" stroke-linejoin="round" stroke-miterlimit="2" viewBox="0 0 96 96" xmlns="http://www.w3.org/2000/svg"><g><g><path d="m71.057 49.906c0-6.234-2.372-12.234-6.634-16.782-11.592-12.313-23.167-12.132-34.743-.01-4.349 4.561-6.775 10.62-6.775 16.922-.015 9.296-.021 25.17-.023 35.085 0 1.957-.146 3.681-.329 5.078-.146.946.129 1.909.753 2.636s1.534 1.145 2.491 1.145c2.248.019 5.047.019 7.29.019.956 0 1.866-.415 2.493-1.137.627-.723.91-1.682.775-2.629-.214-1.464-.379-3.241-.379-5.112v-7.526c0-2.916 1.158-5.712 3.219-7.773 2.062-2.061 4.858-3.22 7.773-3.22h.002c2.916 0 5.712 1.159 7.773 3.22 2.062 2.061 3.22 4.857 3.22 7.773v7.526c0 1.871-.166 3.648-.366 5.114-.134.943.148 1.898.772 2.617.624.72 1.53 1.133 2.483 1.133 2.243.014 5.042.014 7.289.014.963 0 1.878-.421 2.506-1.152.627-.731.904-1.699.757-2.651-.201-1.393-.347-3.118-.347-5.075z" fill="#585858"/><path d="m1.221 7.442c.152-2.214 1.774-4.049 3.952-4.472 6.258-1.178 19.228-2.545 26.896 4.233 10.383 9.178 13.583 22.546 7.14 29.834-6.442 7.289-20.102 5.755-30.485-3.422-7.668-6.778-7.904-19.818-7.503-26.173z" fill="#626262"/><path d="m10.814 11.938s10.24-2.931 15.529 1.744 6.919 11.485 3.637 15.197c-3.282 3.713-10.24 2.932-15.529-1.743s-3.637-15.198-3.637-15.198z" fill="#585858"/><path d="m94.779 7.442c-.152-2.214-1.774-4.049-3.952-4.472-6.258-1.178-19.228-2.545-26.896 4.233-10.383 9.178-13.583 22.546-7.14 29.834 6.442 7.289 20.102 5.755 30.485-3.422 7.668-6.778 7.904-19.818 7.503-26.173z" fill="#626262"/><path d="m85.186 11.938s-10.24-2.931-15.529 1.744-6.919 11.485-3.637 15.197c3.282 3.713 10.24 2.932 15.529-1.743s3.637-15.198 3.637-15.198z" fill="#585858"/><path d="m41.415 60.757c-.516-4.388-2.708-8.408-6.118-11.218-4.967-4.25-8.247-11.059-8.247-18.745 0-12.677 8.925-22.97 19.919-22.97s19.92 10.293 19.92 22.97c0 7.374-3.02 13.941-7.71 18.145-3.813 3.427-5.903 8.373-5.703 13.496s2.67 9.891 6.739 13.009c1.218.918 2.548 1.77 3.999 2.545 2.419 1.293 3.334 4.306 2.042 6.725-1.293 2.419-4.306 3.334-6.725 2.041-10.646-5.688-16.866-14.252-18.116-25.998z" fill="#696969"/></g><g><path d="m42.288 65.682c-1.477.612-2.834 1.511-3.985 2.663-2.304 2.303-3.598 5.427-3.598 8.685v7.382c0 2.054.195 3.997.432 5.552.063.414-.059.836-.333 1.155s-.673.502-1.094.502c-2.359 0-5.451 0-7.816-.016-.004-.001-.007-.001-.011-.001-.418 0-.816-.183-1.087-.503-.271-.319-.388-.741-.32-1.154.002-.012.004-.023.006-.035.207-1.477.379-3.351.38-5.499.002-9.727.022-25.298.022-34.416 0-4.128.944-6.88 1.187-7.883.195-.804-.3-1.616-1.105-1.81-.805-.195-1.616.3-1.811 1.105-.264 1.092-1.271 4.092-1.271 8.588 0 9.118-.02 24.689-.022 34.415-.001 1.971-.157 3.692-.347 5.053-.206 1.292.158 2.593.994 3.578.839.988 2.069 1.558 3.364 1.561 2.372.017 5.472.017 7.838.017 1.294 0 2.524-.565 3.368-1.546s1.218-2.282 1.024-3.561c0-.001 0-.001 0-.002-.218-1.429-.398-3.213-.398-5.1v-7.382c0-2.462.978-4.823 2.719-6.564.87-.87 1.896-1.55 3.012-2.012.764-.317 1.128-1.195.811-1.96-.316-.765-1.195-1.129-1.959-.812z"/><path d="m67.781 42.218c.876 2.433 1.336 5.02 1.336 7.651v34.543c0 2.156.173 4.035.398 5.514.001.006.001.012.002.018.069.418-.049.845-.323 1.168s-.676.509-1.1.509c-2.366 0-5.459 0-7.819-.012-.003 0-.005 0-.008 0-.417 0-.813-.182-1.084-.498-.272-.316-.392-.735-.33-1.147.001-.003.001-.006.002-.01.195-1.357.368-3.008.409-4.77.019-.828-.638-1.515-1.466-1.534-.827-.019-1.515.638-1.534 1.465-.037 1.629-.198 3.156-.379 4.411-.189 1.273.184 2.565 1.023 3.541.842.979 2.068 1.542 3.359 1.542 2.357.012 5.457.012 7.827.012h.001c1.304 0 2.542-.573 3.386-1.567.841-.991 1.206-2.3.999-3.583-.206-1.357-.363-3.082-.363-5.059v-34.543c0-2.981-.521-5.912-1.514-8.668-.281-.779-1.141-1.183-1.92-.902-.779.28-1.183 1.14-.902 1.919z"/><path d="m29.613 40.212c-6.002.452-13.153-2.15-19.145-7.447-3.054-2.699-4.788-6.502-5.775-10.396-1.538-6.07-1.255-12.389-.97-15.525.065-.605.503-1.103 1.093-1.246 3.088-.671 9.324-1.727 15.537-.946 3.985.501 7.973 1.755 11.027 4.454 1.432 1.266 2.719 2.617 3.853 4.023.52.645 1.465.746 2.11.226.644-.52.745-1.465.226-2.109-1.237-1.534-2.64-3.007-4.202-4.388-3.508-3.101-8.062-4.607-12.64-5.183-6.625-.832-13.277.28-16.551.992-.006.001-.012.003-.018.004-1.85.426-3.224 1.981-3.419 3.87-.001.006-.002.012-.002.017-.305 3.337-.592 10.075 1.048 16.548 1.133 4.473 3.188 8.807 6.696 11.907 6.673 5.898 14.674 8.694 21.357 8.19.826-.062 1.445-.783 1.383-1.608-.062-.826-.783-1.446-1.608-1.383z"/><path d="m21.962 29.667c-1.998-.539-4.048-1.64-5.877-3.257-3.305-2.921-3.412-8.462-3.269-11.444.034-.67.527-1.228 1.188-1.344 2.942-.508 8.454-1.082 11.759 1.839 1.459 1.29 2.609 2.76 3.412 4.276.387.732 1.296 1.011 2.027.624.732-.388 1.011-1.296.624-2.028-.96-1.814-2.331-3.577-4.076-5.12-4.023-3.555-10.68-3.165-14.259-2.547-.002 0-.003 0-.005 0-2.04.359-3.562 2.081-3.666 4.15-.001.002-.001.003-.001.004-.174 3.628.256 10.283 4.279 13.838 2.202 1.946 4.677 3.256 7.083 3.905.799.216 1.623-.258 1.839-1.057.215-.8-.258-1.624-1.058-1.839z"/><path d="m60.022 14.09c1.305-1.752 2.842-3.432 4.598-4.984 3.054-2.699 7.042-3.953 11.027-4.454 6.213-.781 12.449.275 15.527.944.592.139 1.032.634 1.101 1.237.287 3.147.57 9.466-.968 15.536-.987 3.894-2.721 7.697-5.775 10.396-6.593 5.829-14.589 8.401-20.903 7.218-.814-.152-1.598.385-1.75 1.198-.153.814.384 1.598 1.198 1.751 7.064 1.324 16.064-1.398 23.442-7.919 3.508-3.1 5.563-7.434 6.696-11.907 1.64-6.473 1.353-13.211 1.048-16.548 0-.005-.001-.011-.002-.017-.195-1.889-1.569-3.444-3.419-3.87-.006-.001-.012-.003-.018-.004-3.274-.712-9.926-1.824-16.551-.992-4.578.576-9.132 2.082-12.64 5.183-1.916 1.694-3.593 3.528-5.017 5.44-.495.664-.357 1.604.307 2.099.664.494 1.604.357 2.099-.307z"/><path d="m69.051 16.621c.369-.4.765-.787 1.186-1.16 3.305-2.921 8.817-2.347 11.759-1.839.661.116 1.154.674 1.188 1.344.143 2.982.036 8.523-3.269 11.444-2.577 2.279-5.592 3.537-8.273 3.629-1.61.055-3.09-.313-4.211-1.193-.651-.511-1.595-.397-2.106.254-.511.652-.397 1.595.254 2.106 3.91 3.069 10.923 2.225 16.323-2.548 4.023-3.555 4.453-10.21 4.279-13.838 0-.001 0-.002-.001-.004-.104-2.069-1.626-3.791-3.666-4.15-.002 0-.003 0-.005 0-3.579-.618-10.236-1.008-14.259 2.547-.498.441-.966.899-1.403 1.372-.561.608-.524 1.558.084 2.12.609.561 1.558.524 2.12-.084z"/><path d="m40.05 60.684c1.285 12.036 7.643 20.825 18.554 26.655 3.103 1.658 6.968.484 8.626-2.619s.485-6.968-2.618-8.626c-1.35-.721-2.589-1.514-3.722-2.367-3.635-2.788-5.841-7.049-6.02-11.626-.179-4.58 1.69-9.001 5.098-12.065 4.89-4.383 8.06-11.223 8.06-18.913 0-13.318-9.49-24.032-21.039-24.032s-21.039 10.714-21.039 24.032c0 8.009 3.438 15.097 8.614 19.527.007.006.014.012.022.018 3.045 2.509 5.003 6.097 5.464 10.016zm2.982-.329c-.001-.006-.001-.011-.002-.016-.55-4.687-2.89-8.979-6.53-11.981-4.557-3.905-7.55-10.172-7.55-17.235 0-11.554 8.02-21.032 18.039-21.032s18.039 9.478 18.039 21.032c0 6.775-2.754 12.818-7.064 16.681 0 0-.001.001-.001.001-4.072 3.66-6.304 8.942-6.09 14.413.213 5.471 2.851 10.562 7.197 13.893.003.003.006.005.009.007 1.254.946 2.624 1.823 4.119 2.622 1.643.878 2.264 2.924 1.386 4.567-.878 1.642-2.924 2.263-4.566 1.386-9.972-5.328-15.815-13.337-16.986-24.338z"/><path d="m40.22 29.2v-2.297c0-.828-.672-1.5-1.5-1.5s-1.5.672-1.5 1.5v2.297c0 .828.672 1.5 1.5 1.5s1.5-.672 1.5-1.5z"/><path d="m56.758 29.2v-2.297c0-.828-.672-1.5-1.5-1.5s-1.5.672-1.5 1.5v2.297c0 .828.672 1.5 1.5 1.5s1.5-.672 1.5-1.5z"/><path d="m46.989 62.699h6.371c.828 0 1.5-.672 1.5-1.5s-.672-1.5-1.5-1.5h-6.371c-.828 0-1.5.672-1.5 1.5s.672 1.5 1.5 1.5z"/><path d="m47.204 75.355 7.768-5.981c.656-.505.778-1.448.273-2.104s-1.448-.778-2.104-.273l-7.767 5.981c-.656.505-.779 1.448-.274 2.104s1.448.778 2.104.273z"/><path d="m55.542 82.898 4.472-7.946c.406-.721.15-1.637-.571-2.043-.722-.406-1.637-.15-2.043.572l-4.472 7.946c-.406.721-.15 1.637.571 2.043.722.406 1.637.15 2.043-.572z"/></g></g></svg>