<svg height="512" viewBox="0 0 128 128" width="512" xmlns="http://www.w3.org/2000/svg"><g><path d="m6.307 6.307h115.386v115.386h-115.386z" fill="#e6f2ff"/><path d="m29.681 45.381h68.638v76.312h-68.638z" fill="#9cf"/><path d="m46.841 20.053h34.319v11.581h-34.319z" fill="#9cf"/><g><path d="m121.693 31.475a1.75 1.75 0 0 0 -1.75 1.75v4.5a1.75 1.75 0 0 0 3.5 0v-4.5a1.75 1.75 0 0 0 -1.75-1.75z"/><path d="m121.693 4.557h-115.386a1.751 1.751 0 0 0 -1.75 1.75v87.822a1.75 1.75 0 0 0 3.5 0v-86.072h111.886v15.511a1.75 1.75 0 0 0 3.5 0v-17.261a1.751 1.751 0 0 0 -1.75-1.75z"/><path d="m121.693 45.211a1.751 1.751 0 0 0 -1.75 1.75v72.982h-19.874v-74.562a1.751 1.751 0 0 0 -1.75-1.75h-68.638a1.751 1.751 0 0 0 -1.75 1.75v74.562h-19.874v-16.452a1.75 1.75 0 0 0 -3.5 0v18.2a1.751 1.751 0 0 0 1.75 1.75h115.386a1.751 1.751 0 0 0 1.75-1.75v-74.73a1.751 1.751 0 0 0 -1.75-1.75zm-25.124 74.732h-30.819v-72.812h30.819zm-65.138-72.812h30.819v72.812h-30.819z"/><path d="m81.159 33.385a1.751 1.751 0 0 0 1.75-1.75v-11.581a1.75 1.75 0 0 0 -1.75-1.75h-34.318a1.749 1.749 0 0 0 -1.75 1.75v11.581a1.75 1.75 0 0 0 1.75 1.75zm-32.568-11.585h30.818v8.081h-30.818z"/><circle cx="110.006" cy="72.585" r="2.684"/><circle cx="110.006" cy="83.537" r="2.684"/><circle cx="110.006" cy="94.489" r="2.684"/><path d="m54.546 81.146-6.468-6.468a1.749 1.749 0 0 0 -2.475 0l-6.468 6.468a1.75 1.75 0 0 0 2.474 2.475l3.482-3.481v11.019a1.75 1.75 0 0 0 3.5 0v-11.019l3.481 3.481a1.75 1.75 0 0 0 2.474-2.475z"/><path d="m73.454 85.928 6.468 6.472a1.748 1.748 0 0 0 2.474 0l6.469-6.468a1.75 1.75 0 0 0 -2.474-2.475l-3.482 3.481v-11.023a1.75 1.75 0 0 0 -3.5 0v11.019l-3.481-3.481a1.75 1.75 0 0 0 -2.474 2.475z"/></g></g></svg>