<svg id="Capa_1" enable-background="new 0 0 512 512" height="512" viewBox="0 0 512 512" width="512" xmlns="http://www.w3.org/2000/svg"><g><g><path d="m256.144 39.83v432.35h183.581l64.308-429.053c.164-1.092.248-2.194.294-3.297z" fill="#bed9fd"/></g><g><path d="m417.417 39.83h-161.273v432.35h67.284z" fill="#9ec8fc"/></g><g><path d="m473.352 7.505h-217.208v32.325h248.182c.018-.434.049-.867.049-1.302 0-17.134-13.889-31.023-31.023-31.023z" fill="#8d9ca8"/></g><g><path d="m414.356 7.505h-158.212v32.325h161.273l.489-2.251c2.239-10.295.933-20.823-3.55-30.074z" fill="#7a8c98"/></g><g><path d="m349.939 39.83h-342.246c.046 1.103.131 2.204.294 3.297l64.308 429.053h191.175l92.391-425.001c.822-3.778-2.055-7.349-5.922-7.349z" fill="#edf6ff"/></g><g><path d="m372.5 7.505h-333.832c-17.134 0-31.023 13.89-31.023 31.023 0 .435.03.868.048 1.302h342.247c3.866 0 6.744 3.571 5.923 7.349l-92.393 425.001h33.08l95.692-440.18c2.737-12.593-6.855-24.495-19.742-24.495z" fill="#9facba"/></g><g><path d="m450.096 504.505h-387.903c-4.463 0-8.081-3.618-8.081-8.081v-24.244c0-4.463 3.618-8.081 8.081-8.081h387.902c4.463 0 8.081 3.618 8.081 8.081v24.244c.001 4.463-3.617 8.081-8.08 8.081z" fill="#4172ca"/></g><g><path d="m450.096 464.098h-32.326c4.463 0 8.081 3.618 8.081 8.081v24.244c0 4.463-3.618 8.081-8.081 8.081h32.325c4.463 0 8.081-3.618 8.081-8.081v-24.243c.001-4.464-3.617-8.082-8.08-8.082z" fill="#3a67c1"/></g><g><path d="m360.263 361.907h-113.138c-4.463 0-8.081-3.618-8.081-8.081v-16.163c0-4.463 3.618-8.081 8.081-8.081h113.138c4.463 0 8.081 3.618 8.081 8.081v16.163c0 4.463-3.618 8.081-8.081 8.081z" fill="#3a67c1"/></g><g><path d="m389.843 227.39h-113.139c-4.463 0-8.081-3.618-8.081-8.081v-16.163c0-4.463 3.618-8.081 8.081-8.081h113.138c4.463 0 8.081 3.618 8.081 8.081v16.163c.001 4.463-3.617 8.081-8.08 8.081z" fill="#3a67c1"/></g><path d="m511.826 39.816c.435-10.705-3.684-20.983-11.235-28.524-7.268-7.282-16.941-11.292-27.238-11.292h-434.691c-21.239 0-38.519 17.284-38.519 38.53 0 1.938.143 3.861.423 5.702l36.48 243.39c.558 3.72 3.757 6.389 7.407 6.389.37 0 .745-.027 1.121-.084 4.097-.614 6.92-4.432 6.306-8.529l-35.682-238.068h331.951l-30.491 140.235h-40.954c-8.592 0-15.581 6.99-15.581 15.581v16.163c0 8.592 6.989 15.582 15.581 15.582h30.672l-18.951 87.191h-41.301c-8.592 0-15.581 6.99-15.581 15.582v16.163c0 8.591 6.989 15.581 15.581 15.581h31.014l-18.95 87.192h-181.645l-20.473-136.592c-.613-4.096-4.438-6.919-8.528-6.305-4.097.614-6.92 4.432-6.306 8.529l20.14 134.368h-.183c-8.591 0-15.58 6.989-15.58 15.58v24.24c0 8.591 6.989 15.58 15.58 15.58h270.07c4.143 0 7.5-3.358 7.5-7.5s-3.357-7.5-7.5-7.5h-270.07c-.325 0-.58-.255-.58-.58v-24.24c0-.32.26-.58.58-.58h8.859c.007 0 .014.001.021.001.004 0 .009-.001.013-.001h379.006c.325 0 .58.255.58.58v24.24c0 .325-.255.58-.58.58h-82.83c-4.143 0-7.5 3.358-7.5 7.5s3.357 7.5 7.5 7.5h82.83c8.591 0 15.58-6.989 15.58-15.58v-24.24c0-8.591-6.989-15.58-15.58-15.58h-.452l49.32-329.048c.614-4.097-2.209-7.915-6.306-8.529-4.097-.619-7.914 2.209-8.528 6.305l-49.652 331.272h-126.856l18.951-87.193h33.694c8.592 0 15.581-6.99 15.581-15.581v-16.163c0-8.592-6.989-15.582-15.581-15.582h-23.404l18.951-87.191h34.032c8.592 0 15.582-6.99 15.582-15.582v-16.163c0-8.591-6.99-15.581-15.582-15.581h-23.744l30.487-140.234h99.234l-6.503 43.378c-.614 4.096 2.209 7.915 6.305 8.529.377.057.752.084 1.122.084 3.65 0 6.85-2.669 7.407-6.389l7.299-48.685c.219-1.451.326-2.941.377-4.431zm-21.842-17.918c2.942 2.937 5.002 6.521 6.063 10.432h-96.237c1.017-5.981.052-12.03-2.694-17.33h76.238c6.284 0 12.186 2.446 16.63 6.898zm-197.716 434.702h-17.73l18.951-87.193h17.729zm68.576-118.937v16.163c0 .32-.261.581-.581.581h-113.139c-.32 0-.581-.261-.581-.581v-16.163c0-.321.261-.582.581-.582h113.139c.32.001.581.261.581.582zm-39.335-15.581h-17.732l18.951-87.191h17.732zm68.915-118.936v16.163c0 .321-.261.582-.582.582h-113.138c-.32 0-.581-.261-.581-.582v-16.163c0-.32.261-.581.581-.581h113.138c.321 0 .582.261.582.581zm-57.415-15.581 30.175-138.785c.883-4.027-.093-8.179-2.677-11.39-2.587-3.215-6.439-5.06-10.569-5.06h-333.961c2.727-9.975 11.861-17.33 22.685-17.33h333.841c3.86 0 7.465 1.725 9.889 4.732s3.343 6.898 2.521 10.674l-34.166 157.158h-17.738z"/></g></svg>