<svg id="Capa_1" enable-background="new 0 0 512 512" height="512" viewBox="0 0 512 512" width="512" xmlns="http://www.w3.org/2000/svg"><g><g><g fill="#bbe0ff"><path d="m386.678 424.938h-261.356v-327.89c0-9.827 7.966-17.793 17.793-17.793h225.77c9.827 0 17.793 7.966 17.793 17.793z"/><path d="m386.678 424.938h-261.356v-327.89c0-9.827 7.966-17.793 17.793-17.793h225.77c9.827 0 17.793 7.966 17.793 17.793z"/><path d="m386.678 424.938h-261.356v-327.89c0-9.827 7.966-17.793 17.793-17.793h225.77c9.827 0 17.793 7.966 17.793 17.793z"/></g><path d="m368.885 79.255h-26.711c9.827 0 17.793 7.966 17.793 17.793v327.89h26.711v-327.89c0-9.827-7.966-17.793-17.793-17.793z" fill="#9dc9eb"/><path d="m334.687 424.938h-157.374l-36.139 77.478h229.652z" fill="#fe646f"/><path d="m334.687 424.938h-26.711l36.139 77.478h26.711z" fill="#fd4755"/><path d="m297.927 48.599h-83.855c-8.036 0-14.551-6.515-14.551-14.551v-7.945c0-9.124 7.397-16.521 16.521-16.521h79.914c9.124 0 16.521 7.397 16.521 16.521v7.945c.001 8.036-6.513 14.551-14.55 14.551z" fill="#4da6d1"/><path d="m295.957 9.581h-26.711c9.125 0 16.521 7.397 16.521 16.521v7.945c0 8.036-6.515 14.551-14.551 14.551h26.711c8.036 0 14.551-6.515 14.551-14.551v-7.945c.001-9.124-7.396-16.521-16.521-16.521z" fill="#3f96bf"/><g><path d="m85.509 424.938h-63.991c-7.742 0-14.018-6.276-14.018-14.018v-191.733h78.009z" fill="#ffdfcf"/><path d="m58.799 219.187h26.711v205.751h-26.711z" fill="#ffcebf"/><path d="m125.322 155.45h-117.822v63.737h78.009z" fill="#fccd7f"/><path d="m98.612 155.45-39.813 63.737h26.71l39.813-63.737z" fill="#f0b95f"/><path d="m85.509 155.45h-78.009v-39.804c0-10.711 8.683-19.395 19.395-19.395h39.22c10.711 0 19.395 8.683 19.395 19.395v39.804z" fill="#ffdfcf"/><path d="m66.114 96.251h-26.71c10.711 0 19.395 8.683 19.395 19.395v39.804h26.711v-39.804c-.001-10.711-8.684-19.395-19.396-19.395z" fill="#ffcebf"/></g><g><path d="m426.491 424.938h63.991c7.742 0 14.018-6.276 14.018-14.018v-191.733h-78.009z" fill="#ffdfcf"/><path d="m477.789 219.187v191.733c0 7.742-6.276 14.018-14.018 14.018h26.711c7.742 0 14.018-6.276 14.018-14.018v-191.733z" fill="#ffcebf"/><path d="m386.678 155.45h117.822v63.737h-78.009z" fill="#fccd7f"/><path d="m477.789 155.45h26.711v63.737h-26.711z" fill="#f0b95f"/><path d="m426.491 155.45h78.009v-39.804c0-10.711-8.683-19.395-19.395-19.395h-39.22c-10.711 0-19.395 8.683-19.395 19.395v39.804z" fill="#ffdfcf"/><path d="m485.105 96.251h-26.711c10.711 0 19.395 8.683 19.395 19.395v39.804h26.711v-39.804c0-10.711-8.683-19.395-19.395-19.395z" fill="#ffcebf"/></g></g><g><path d="m214.073 56.098h83.855c12.159 0 22.051-9.892 22.051-22.051v-7.945c0-13.245-10.776-24.021-24.021-24.021h-79.914c-13.246 0-24.021 10.776-24.021 24.021v7.945c-.002 12.16 9.891 22.051 22.05 22.051zm-7.052-29.996c0-4.975 4.047-9.021 9.021-9.021h79.914c4.975 0 9.021 4.047 9.021 9.021v7.945c0 3.888-3.163 7.051-7.051 7.051h-83.855c-3.888 0-7.051-3.163-7.051-7.051v-7.945z"/><path d="m485.105 88.752h-39.22c-14.83 0-26.895 12.064-26.895 26.895v32.304h-24.813v-50.903c0-13.946-11.347-25.292-25.293-25.292h-225.77c-13.946 0-25.292 11.346-25.292 25.292v50.902h-24.813v-32.304c0-14.83-12.065-26.895-26.895-26.895h-39.219c-14.83.001-26.895 12.065-26.895 26.895v295.274c0 11.865 9.653 21.519 21.518 21.519h144.021l-31.162 66.809c-1.751 3.754-.127 8.216 3.626 9.967 3.754 1.753 8.217.127 9.967-3.627l34.119-73.148h147.819l34.119 73.148c1.272 2.729 3.978 4.332 6.802 4.332 1.062 0 2.141-.227 3.165-.705 3.754-1.751 5.378-6.213 3.627-9.967l-31.162-66.809h144.022c11.865 0 21.518-9.653 21.518-21.519v-295.274c.001-14.83-12.063-26.894-26.894-26.894zm-51.114 26.894c0-6.559 5.336-11.895 11.895-11.895h39.22c6.559 0 11.895 5.336 11.895 11.895v32.304h-63.009v-32.304zm-7.5 47.304h70.509v48.737h-66.351l-30.443-48.737zm-308.669 254.488h-24.813v-196.101l24.813-39.724zm-36.471-205.751h-66.351v-48.737h96.794zm-66.351-96.041c0-6.559 5.336-11.895 11.895-11.895h39.219c6.559 0 11.895 5.336 11.895 11.895v32.304h-63.009zm0 295.274v-184.233h24.004v96.351c0 4.143 3.358 7.5 7.5 7.5s7.5-3.357 7.5-7.5v-96.351h24.005v190.751h-24.005v-58.776c0-4.143-3.358-7.5-7.5-7.5s-7.5 3.357-7.5 7.5v58.776h-17.486c-3.594 0-6.518-2.924-6.518-6.518zm248.5 6.518v-302.56c0-4.143-3.357-7.5-7.5-7.5-4.142 0-7.5 3.357-7.5 7.5v302.56h-115.678v-320.39c0-5.675 4.617-10.292 10.292-10.292h225.77c5.676 0 10.293 4.617 10.293 10.292v320.391h-115.677zm162.991-170.156c-4.143 0-7.5 3.357-7.5 7.5v162.656h-24.813v-235.824l25.952 41.547c1.159 1.701 3.259 3.563 6.361 3.526h31.504v190.751h-24.004v-162.656c0-4.143-3.357-7.5-7.5-7.5zm70.509 163.638c0 3.595-2.924 6.519-6.518 6.519h-17.487v-190.752h24.005z"/><path d="m289.91 211.687c-4.143 0-7.5 3.357-7.5 7.5v53.466c0 4.143 3.357 7.5 7.5 7.5s7.5-3.357 7.5-7.5v-53.466c0-4.142-3.357-7.5-7.5-7.5z"/><path d="m222.089 211.687c-4.142 0-7.5 3.357-7.5 7.5v53.466c0 4.143 3.358 7.5 7.5 7.5s7.5-3.357 7.5-7.5v-53.466c0-4.142-3.358-7.5-7.5-7.5z"/></g></g></svg>