<svg id="Capa_1" enable-background="new 0 0 512 512" height="512" viewBox="0 0 512 512" width="512" xmlns="http://www.w3.org/2000/svg"><g><path d="m69.626 7.502h372.747v496.996h-372.747z" fill="#b3e59f"/><path d="m69.626 7.502h31.062v496.996h-31.062z" fill="#95d6a4"/><path d="m147.282 193.875h31.062v279.56h-31.062z" fill="#544f56"/><path d="m100.689 38.564h310.623v124.249h-310.623z" fill="#f7f7f7"/><path d="m100.689 38.564h20v124.249h-20z" fill="#e8e8e8"/><g fill="#f9b419"><circle cx="162.813" cy="100.689" r="31.062"/><circle cx="256" cy="100.689" r="31.062"/><circle cx="349.187" cy="100.689" r="31.062"/></g><path d="m240.469 193.875h31.062v279.56h-31.062z" fill="#544f56"/><path d="m333.656 193.875h31.062v279.56h-31.062z" fill="#544f56"/><path d="m131.751 256h62.125v31.062h-62.125z" fill="#f9b419"/><path d="m131.751 256h20v31.062h-20z" fill="#f29e22"/><path d="m318.125 256h62.125v31.062h-62.125z" fill="#f9b419"/><path d="m318.125 256h20v31.062h-20z" fill="#f29e22"/><path d="m224.938 349.309h62.125v31.062h-62.125z" fill="#f9b419"/><path d="m224.938 349.309h20v31.062h-20z" fill="#f29e22"/><g><path d="m442.37 373.68c-4.143 0-7.5 3.358-7.5 7.5v115.82h-357.74v-482h255.71c4.143 0 7.5-3.358 7.5-7.5s-3.357-7.5-7.5-7.5h-263.21c-4.143 0-7.5 3.358-7.5 7.5v497c0 4.142 3.357 7.5 7.5 7.5h372.74c4.143 0 7.5-3.358 7.5-7.5v-123.32c0-4.142-3.357-7.5-7.5-7.5z"/><path d="m442.37 0h-76.84c-4.143 0-7.5 3.358-7.5 7.5s3.357 7.5 7.5 7.5h69.34v333.5c0 4.142 3.357 7.5 7.5 7.5s7.5-3.358 7.5-7.5v-341c0-4.142-3.357-7.5-7.5-7.5z"/><path d="m418.81 162.81v-124.25c0-4.142-3.357-7.5-7.5-7.5h-310.62c-4.143 0-7.5 3.358-7.5 7.5v45.79c0 4.142 3.357 7.5 7.5 7.5s7.5-3.358 7.5-7.5v-38.29h295.62v109.25h-295.62v-38.28c0-4.142-3.357-7.5-7.5-7.5s-7.5 3.358-7.5 7.5v45.78c0 4.142 3.357 7.5 7.5 7.5h310.62c4.142 0 7.5-3.358 7.5-7.5z"/><path d="m201.376 100.689c0-21.264-17.299-38.563-38.563-38.563s-38.563 17.299-38.563 38.563c0 21.263 17.299 38.562 38.563 38.562s38.563-17.299 38.563-38.562zm-62.125 0c0-10.37 6.737-19.191 16.063-22.331v22.331c0 4.142 3.357 7.5 7.5 7.5s7.5-3.358 7.5-7.5v-22.332c9.325 3.141 16.063 11.961 16.063 22.331 0 12.992-10.57 23.562-23.563 23.562s-23.563-10.569-23.563-23.561z"/><path d="m294.563 100.689c0-21.264-17.299-38.563-38.563-38.563s-38.563 17.299-38.563 38.563c0 21.263 17.299 38.562 38.563 38.562s38.563-17.299 38.563-38.562zm-62.125 0c0-12.992 10.57-23.563 23.563-23.563 10.37 0 19.191 6.737 22.332 16.063h-22.333c-4.143 0-7.5 3.358-7.5 7.5s3.357 7.5 7.5 7.5h22.332c-3.141 9.325-11.961 16.062-22.332 16.062-12.992 0-23.562-10.57-23.562-23.562z"/><path d="m387.749 100.689c0-21.264-17.299-38.563-38.563-38.563s-38.563 17.299-38.563 38.563c0 21.263 17.299 38.562 38.563 38.562s38.563-17.299 38.563-38.562zm-62.125 0c0-10.37 6.737-19.191 16.063-22.331v22.331c0 4.142 3.357 7.5 7.5 7.5s7.5-3.358 7.5-7.5v-22.332c9.325 3.141 16.063 11.961 16.063 22.331 0 12.992-10.57 23.562-23.563 23.562s-23.563-10.569-23.563-23.561z"/><path d="m147.28 480.94h31.06c4.143 0 7.5-3.358 7.5-7.5v-178.878h8.036c4.143 0 7.5-3.358 7.5-7.5v-31.062c0-4.142-3.357-7.5-7.5-7.5h-8.036v-54.62c0-4.142-3.357-7.5-7.5-7.5h-31.06c-4.143 0-7.5 3.358-7.5 7.5v54.62h-8.029c-4.143 0-7.5 3.358-7.5 7.5v31.062c0 4.142 3.357 7.5 7.5 7.5h8.029v178.878c0 4.142 3.358 7.5 7.5 7.5zm23.56-15h-16.06v-171.378h16.06zm-16.06-264.56h16.06v47.12h-16.06zm-15.529 62.12h47.125v16.062h-47.125z"/><path d="m240.47 480.94h31.061c4.143 0 7.5-3.358 7.5-7.5v-85.569h8.032c4.143 0 7.5-3.358 7.5-7.5v-31.062c0-4.142-3.357-7.5-7.5-7.5h-8.032v-147.929c0-4.142-3.357-7.5-7.5-7.5h-31.061c-4.143 0-7.5 3.358-7.5 7.5v147.929h-8.032c-4.143 0-7.5 3.358-7.5 7.5v31.062c0 4.142 3.357 7.5 7.5 7.5h8.032v85.569c0 4.142 3.357 7.5 7.5 7.5zm23.56-15h-16.06v-78.069h16.061v78.069zm-16.06-264.56h16.061v140.429h-16.061zm-15.532 155.429h47.125v16.062h-47.125z"/><path d="m333.66 480.94h31.06c4.143 0 7.5-3.358 7.5-7.5v-178.878h8.029c4.143 0 7.5-3.358 7.5-7.5v-31.062c0-4.142-3.357-7.5-7.5-7.5h-8.029v-54.62c0-4.142-3.357-7.5-7.5-7.5h-31.06c-4.143 0-7.5 3.358-7.5 7.5v54.62h-8.036c-4.143 0-7.5 3.358-7.5 7.5v31.062c0 4.142 3.357 7.5 7.5 7.5h8.036v178.878c0 4.142 3.358 7.5 7.5 7.5zm23.56-15h-16.06v-171.378h16.06zm-16.06-264.56h16.06v47.12h-16.06zm-15.536 62.12h47.125v16.062h-47.125z"/></g></g></svg>