<svg id="Layer_1" enable-background="new 0 0 512 512" viewBox="0 0 512 512" xmlns="http://www.w3.org/2000/svg"><g><path d="m256 483.411c-8.086 0-15.263-5.181-17.808-12.856l-31.6-95.275-89.714 45.026c-7.226 3.63-15.965 2.217-21.683-3.502-5.718-5.718-7.129-14.456-3.501-21.684l45.026-89.712-95.275-31.6c-7.675-2.546-12.856-9.723-12.856-17.809s5.181-15.263 12.856-17.808l95.275-31.6-45.026-89.714c-3.627-7.227-2.216-15.965 3.501-21.683 5.718-5.717 14.457-7.128 21.683-3.501l89.714 45.026 31.6-95.275c2.545-7.675 9.722-12.856 17.808-12.856s15.263 5.181 17.809 12.856l31.6 95.275 89.712-45.026c7.229-3.626 15.967-2.216 21.684 3.501 5.719 5.718 7.129 14.456 3.502 21.683l-45.026 89.714 95.275 31.6c7.676 2.545 12.856 9.722 12.856 17.808s-5.181 15.263-12.856 17.809l-95.275 31.6 45.026 89.712c3.627 7.228 2.217 15.966-3.501 21.685-5.718 5.718-14.454 7.13-21.685 3.501l-89.712-45.026-31.6 95.275c-2.546 7.675-9.723 12.856-17.809 12.856z" fill="#f47524"/></g><g><path d="m256 491.41c-11.552 0-21.76-7.37-25.402-18.34l-28.688-86.489-81.441 40.878c-10.325 5.186-22.757 3.176-30.936-5.002-8.162-8.162-10.17-20.588-4.997-30.919l40.883-81.447-86.498-28.688c-10.966-3.646-18.331-13.854-18.331-25.403s7.365-21.757 18.326-25.401l86.504-28.689-40.879-81.44c-5.174-10.333-3.168-22.76 4.988-30.931 8.18-8.167 20.608-10.171 30.934-5.001l81.448 40.883 28.688-86.498c3.644-10.968 13.852-18.333 25.401-18.333s21.757 7.365 25.401 18.326l28.689 86.503 19.32-9.699c3.945-1.981 8.756-.389 10.738 3.56s.389 8.757-3.561 10.739l-27.59 13.851c-2.076 1.042-4.503 1.129-6.65.241-2.146-.889-3.801-2.667-4.531-4.873l-31.602-95.28c-1.464-4.405-5.57-7.369-10.216-7.369s-8.752 2.963-10.219 7.374l-31.598 95.275c-.731 2.205-2.385 3.983-4.532 4.873-2.147.889-4.574.8-6.65-.241l-89.71-45.03c-4.152-2.079-9.158-1.272-12.449 2.012-3.274 3.28-4.082 8.286-1.999 12.446l45.027 89.703c1.042 2.077 1.13 4.503.241 6.65-.889 2.146-2.667 3.8-4.873 4.532l-95.28 31.6c-4.405 1.465-7.369 5.571-7.369 10.217s2.963 8.752 7.374 10.218l95.275 31.6c2.205.73 3.983 2.385 4.873 4.531s.801 4.574-.241 6.65l-45.03 89.71c-2.08 4.153-1.274 9.152 2.007 12.434 3.292 3.291 8.292 4.104 12.443 2.018l89.711-45.029c2.077-1.045 4.503-1.131 6.65-.242 2.146.89 3.801 2.668 4.532 4.873l31.6 95.27c1.465 4.412 5.571 7.379 10.217 7.379s8.751-2.966 10.217-7.381l31.601-95.268c.731-2.205 2.385-3.983 4.531-4.873 2.147-.889 4.572-.803 6.65.242l89.71 45.029c4.152 2.078 9.151 1.273 12.429-2.013 3.294-3.288 4.102-8.286 2.019-12.445l-45.025-89.703c-1.043-2.076-1.131-4.504-.242-6.65.89-2.146 2.668-3.8 4.873-4.531l95.27-31.601c4.413-1.466 7.379-5.571 7.379-10.217s-2.967-8.751-7.381-10.218l-95.268-31.599c-2.205-.731-3.983-2.386-4.873-4.532-.889-2.146-.801-4.573.242-6.65l45.029-89.71c2.079-4.153 1.27-9.157-2.018-12.444-3.28-3.282-8.28-4.085-12.44-2.003l-22.114 11.097c-3.95 1.98-8.757.386-10.738-3.562-1.981-3.949-.387-8.756 3.562-10.738l22.12-11.1c10.337-5.178 22.763-3.169 30.925 4.994 8.167 8.168 10.179 20.597 5.006 30.928l-40.882 81.448 86.487 28.687c10.973 3.641 18.343 13.849 18.343 25.401s-7.37 21.761-18.34 25.402l-86.489 28.688 40.878 81.44c5.18 10.344 3.166 22.771-5.007 30.931-8.15 8.163-20.577 10.176-30.914 5.001l-81.447-40.882-28.688 86.487c-3.642 10.973-13.851 18.343-25.403 18.343z"/></g><g><path d="m217.57 330.016c2.437 0 4.878.475 7.18 1.428 5.034 2.086 8.913 6.257 10.628 11.428l20.622 62.177 20.622-62.178c1.716-5.172 5.595-9.342 10.629-11.428 5.032-2.085 10.725-1.881 15.596.565l58.546 29.384-29.384-58.546c-2.444-4.869-2.65-10.562-.565-15.596 2.086-5.034 6.256-8.913 11.428-10.629l62.177-20.621-62.178-20.622c-5.171-1.715-9.342-5.594-11.428-10.628-2.085-5.034-1.879-10.727.565-15.596l29.384-58.546-58.545 29.384c-4.869 2.444-10.562 2.651-15.597.565-5.034-2.085-8.913-6.256-10.629-11.428l-20.621-62.177-20.622 62.177c-1.715 5.172-5.594 9.343-10.629 11.428-5.034 2.086-10.727 1.879-15.596-.565l-58.547-29.384 29.384 58.547c2.444 4.87 2.65 10.562.565 15.596-2.085 5.035-6.256 8.914-11.428 10.629l-62.175 20.62 62.177 20.622c5.172 1.716 9.343 5.595 11.428 10.629s1.879 10.727-.565 15.597l-29.384 58.545 58.546-29.384c2.642-1.326 5.527-1.993 8.416-1.993z" fill="#fdb732"/></g><g><path d="m256 413.05c-3.448 0-6.508-2.209-7.593-5.481l-20.62-62.18c-.986-2.965-3.212-5.358-6.106-6.561-2.832-1.169-6.167-1.061-8.942.331l-58.541 29.381c-3.081 1.545-6.807.944-9.245-1.493-2.438-2.438-3.04-6.164-1.493-9.245l8.18-16.3c1.982-3.949 6.79-5.544 10.738-3.562 2.554 1.282 4.124 3.747 4.377 6.396l38.806-19.477c3.702-1.857 7.854-2.84 12.008-2.84 3.536 0 6.979.682 10.235 2.027 7.191 2.987 12.714 8.926 15.166 16.298l13.03 39.29 13.026-39.282c2.455-7.379 7.978-13.317 15.154-16.299 7.21-2.981 15.319-2.684 22.265.811l36.975 18.557-18.561-36.981c-3.487-6.932-3.785-15.04-.813-22.24 2.988-7.194 8.927-12.717 16.299-15.169l39.289-13.031-39.282-13.027c-7.379-2.455-13.317-7.977-16.299-15.154-2.981-7.208-2.684-15.319.811-22.265l18.557-36.975-36.981 18.561c-6.933 3.487-15.043 3.785-22.24.815-7.194-2.989-12.717-8.927-15.169-16.3l-13.031-39.289-13.027 39.282c-2.455 7.379-7.977 13.318-15.154 16.3-7.207 2.98-15.319 2.684-22.264-.811l-36.975-18.557 18.561 36.982c3.491 6.94 3.788 15.05.812 22.246-2.987 7.189-8.925 12.711-16.298 15.164l-39.289 13.028 39.282 13.026c7.38 2.455 13.318 7.978 16.3 15.154 2.979 7.217 2.68 15.325-.811 22.265l-2.906 5.792c-1.981 3.949-6.787 5.546-10.738 3.563-3.949-1.981-5.544-6.788-3.563-10.737l2.91-5.801c1.406-2.796 1.523-6.059.325-8.961-1.195-2.876-3.588-5.103-6.56-6.091l-62.173-20.617c-3.273-1.086-5.482-4.146-5.482-7.594s2.209-6.508 5.482-7.593l62.18-20.62c2.964-.986 5.358-3.213 6.561-6.106 1.193-2.884 1.075-6.146-.329-8.936l-29.383-58.546c-1.547-3.082-.945-6.807 1.493-9.245s6.164-3.041 9.245-1.493l58.54 29.38c2.797 1.406 6.059 1.523 8.955.327 2.881-1.197 5.107-3.591 6.096-6.562l20.618-62.173c1.085-3.273 4.145-5.482 7.593-5.482s6.508 2.209 7.594 5.482l20.62 62.18c.985 2.965 3.212 5.358 6.105 6.561 2.884 1.19 6.147 1.074 8.935-.329l58.547-29.384c3.083-1.546 6.807-.945 9.246 1.493 2.438 2.438 3.039 6.164 1.493 9.245l-29.38 58.54c-1.407 2.796-1.525 6.058-.327 8.955 1.197 2.881 3.591 5.107 6.562 6.096l62.173 20.618c3.272 1.085 5.481 4.145 5.481 7.593s-2.209 6.508-5.481 7.594l-62.18 20.62c-2.965.985-5.358 3.212-6.561 6.105-1.19 2.886-1.074 6.148.328 8.935l29.384 58.547c1.546 3.082.944 6.808-1.493 9.246-2.438 2.438-6.164 3.037-9.246 1.493l-58.54-29.38c-2.796-1.407-6.058-1.524-8.954-.327-2.881 1.197-5.107 3.591-6.096 6.562l-20.617 62.173c-1.086 3.273-4.146 5.482-7.594 5.482z"/></g></svg>