<svg id="Capa_1" enable-background="new 0 0 512 512" height="512" viewBox="0 0 512 512" width="512" xmlns="http://www.w3.org/2000/svg"><g><g><g><path d="m493.266 262.178-29.54-43.797c-12.391-18.371-32.909-28.847-54.248-28.847-6.413 0-12.896.944-19.26 2.906l-128.27 39.523c-3.875 1.194-8.021 1.194-11.896 0l-128.27-39.523c-6.364-1.962-12.847-2.906-19.26-2.906-21.339 0-41.856 10.476-54.248 28.847l-29.54 43.797c-18.715 27.747-13.472 65.146 12.152 86.677l61.083 51.326c11.94 10.032 26.889 15.337 42.095 15.337 6.183 0 12.409-.878 18.492-2.67l50.955-15.019c6.738-1.986 14.024-.329 19.24 4.376l19.72 17.788c7.687 6.934 19.372 6.934 27.059 0l19.72-17.788c5.216-4.705 12.502-6.362 19.24-4.376l50.955 15.019c6.082 1.792 12.309 2.67 18.492 2.67 15.206 0 30.155-5.304 42.095-15.337l61.083-51.326c25.624-21.531 30.867-58.93 12.151-86.677z" fill="#3a67c1"/></g><g><path d="m481.114 348.855c25.624-21.531 30.868-58.93 12.152-86.677l-29.54-43.797c-12.391-18.371-32.909-28.847-54.248-28.847-5.37 0-10.789.672-16.146 2.039 15.179 3.875 28.869 13.16 38.074 26.808l29.54 43.797c4.213 6.246 7.211 12.981 9.034 19.914 4.728 17.972-1.589 37.053-15.816 49.008l-34.134 28.681c-11.94 10.032-26.889 15.337-42.095 15.337-6.183 0-12.409-.878-18.492-2.67l-50.953-15.018c-6.738-1.986-14.024-.329-19.24 4.376l-19.72 17.788c-7.687 6.934-19.372 6.934-27.059 0l-19.72-17.788c-5.216-4.705-12.502-6.362-19.24-4.376l-50.955 15.019c-6.082 1.792-12.309 2.67-18.492 2.67-15.206 0-30.155-5.304-42.095-15.337l-61.083-51.326c-9.706-8.156-16.481-18.59-20.145-29.912-8.057 24.779-.701 52.795 20.145 70.311l61.083 51.326c11.94 10.032 26.889 15.337 42.095 15.337 6.183 0 12.409-.878 18.492-2.67l50.955-15.019c6.738-1.986 14.024-.329 19.24 4.376l19.72 17.788c7.687 6.934 19.372 6.934 27.059 0l19.72-17.788c5.216-4.705 12.502-6.362 19.24-4.376l50.955 15.019c6.082 1.792 12.309 2.67 18.492 2.67 15.206 0 30.155-5.304 42.095-15.337z" fill="#30569f"/></g><g><path d="m226.717 296.102-122.821-37.844c-5.241-1.615-10.921.39-13.988 4.936l-17.757 26.327c-3.561 5.28-2.564 12.397 2.312 16.494l46.652 39.2c3.196 2.685 7.525 3.59 11.529 2.41l93.926-27.683c5.295-1.561 8.93-6.422 8.93-11.942.001-5.464-3.561-10.289-8.783-11.898z" fill="#e6f7fe"/></g><g><path d="m285.283 296.102 122.821-37.844c5.241-1.615 10.921.39 13.988 4.936l17.757 26.327c3.561 5.28 2.564 12.397-2.312 16.494l-46.652 39.2c-3.196 2.685-7.525 3.59-11.529 2.41l-93.926-27.683c-5.295-1.561-8.93-6.422-8.93-11.942-.001-5.464 3.561-10.289 8.783-11.898z" fill="#e6f7fe"/></g></g><g><path d="m224.455 312.754-45.561 13.428c-3.972 1.171-6.244 5.341-5.073 9.313 1.171 3.973 5.344 6.24 9.312 5.073l45.575-13.432c8.416-2.497 14.294-10.366 14.294-19.137 0-4.302-1.354-8.402-3.902-11.837-2.522-3.421-6.139-5.989-10.177-7.226l-122.812-37.843c-8.453-2.612-17.462.567-22.418 7.911l-17.757 26.327c-5.722 8.487-4.13 19.85 3.704 26.43l46.65 39.192c3.647 3.066 8.186 4.682 12.816 4.682 1.888 0 3.792-.27 5.655-.819l14.807-4.36c3.973-1.17 6.245-5.338 5.076-9.311-1.17-3.973-5.338-6.243-9.311-5.075l-14.811 4.361c-1.598.468-3.31.111-4.584-.959l-46.651-39.194c-1.944-1.633-2.337-4.454-.916-6.561l17.756-26.324c1.231-1.825 3.464-2.614 5.564-1.968l122.828 37.848c.993.305 1.884.939 2.523 1.806.631.85.964 1.86.964 2.921-.001 2.179-1.466 4.136-3.551 4.754z"/><path d="m405.895 251.092-122.821 37.844c-8.418 2.593-14.074 10.255-14.074 19.064 0 8.784 5.884 16.652 14.309 19.135l93.925 27.683c1.864.549 3.767.818 5.657.818 4.63 0 9.17-1.617 12.816-4.681l46.652-39.2c7.834-6.582 9.427-17.944 3.705-26.429l-17.757-26.325c-4.947-7.337-13.953-10.516-22.412-7.909zm26.817 49.182-46.653 39.2c-1.275 1.072-2.988 1.43-4.585.959l-93.926-27.683c-2.091-.616-3.551-2.569-3.551-4.749 0-2.186 1.404-4.088 3.493-4.733v.001l122.821-37.844c2.097-.649 4.334.142 5.563 1.964l17.757 26.325c1.421 2.105 1.025 4.926-.919 6.56z"/><path d="m501.423 261.02c2.794-9.683 10.53-37.863 10.53-53.039 0-35.394-27.339-68.223-76.981-92.438-47.931-23.381-111.491-36.257-178.972-36.257s-131.041 12.876-178.971 36.257c-49.642 24.215-76.981 57.044-76.981 92.438 0 15.177 7.736 43.356 10.53 53.039-18.576 30.637-12.233 70.283 15.48 93.573l61.089 51.33c13.122 11.023 29.784 17.095 46.916 17.095 6.964 0 13.898-1.001 20.616-2.975l50.954-15.018c4.204-1.242 8.837-.19 12.092 2.747l19.724 17.785c5.289 4.773 11.92 7.158 18.552 7.158 6.63-.001 13.262-2.386 18.548-7.156l19.727-17.788c3.254-2.935 7.886-3.99 12.094-2.745l50.955 15.018c6.713 1.973 13.648 2.974 20.611 2.974 17.132 0 33.794-6.071 46.916-17.095l20.626-17.327c3.171-2.664 3.582-7.393.918-10.564-2.664-3.17-7.394-3.583-10.565-.918l-20.626 17.327c-10.424 8.757-23.66 13.58-37.269 13.58-5.531 0-11.043-.796-16.377-2.364l-50.947-15.016c-9.174-2.706-19.283-.412-26.382 5.992l-19.728 17.789c-4.849 4.377-12.16 4.376-17.01-.002l-19.725-17.786c-7.099-6.405-17.21-8.701-26.379-5.994l-50.946 15.016c-5.339 1.569-10.851 2.365-16.382 2.365-13.609 0-26.845-4.822-37.269-13.58l-61.088-51.33c-22.748-19.117-27.372-52.108-10.755-76.739l29.545-43.803c10.786-15.991 28.738-25.538 48.023-25.538 5.761 0 11.501.867 17.059 2.578l21.456 6.608c3.958 1.219 8.154-1.002 9.374-4.959 1.219-3.958-1.002-8.155-4.96-9.374l-21.458-6.608c-6.989-2.151-14.213-3.242-21.471-3.242-24.279 0-46.88 12.018-60.457 32.149l-20.445 30.311c-3.182-12.395-6.573-27.829-6.573-36.512 0-29.351 24.348-57.393 68.56-78.959 45.926-22.403 107.151-34.74 172.399-34.74s126.473 12.337 172.396 34.739c44.212 21.566 68.56 49.608 68.56 78.959 0 8.682-3.391 24.117-6.573 36.512l-20.445-30.31c-13.577-20.132-36.178-32.15-60.457-32.15-7.258 0-14.482 1.091-21.474 3.243l-128.257 39.518c-2.453.751-5.046.752-7.491.003l-73.366-22.606c-3.96-1.219-8.155 1.001-9.374 4.959-1.22 3.957 1 8.155 4.958 9.374l73.375 22.607c5.332 1.636 10.966 1.637 16.306-.003l128.263-39.521c5.56-1.711 11.3-2.578 17.061-2.578 19.285 0 37.238 9.547 48.023 25.539l29.545 43.802c16.617 24.631 11.992 57.622-10.756 76.74l-13.667 11.488c-3.17 2.665-3.58 7.395-.915 10.565 1.483 1.764 3.606 2.673 5.744 2.673 1.703 0 3.415-.577 4.821-1.758l13.667-11.487c27.712-23.288 34.055-62.934 15.479-93.571z"/></g></g></svg>