<svg id="Fill" viewBox="0 0 64 64" xmlns="http://www.w3.org/2000/svg"><g><path d="m45.904 32.21-1.26 20.37h-7.62l-1.25-20.37h2.63 4.86z" fill="#f7a4a6"/><path d="m44.644 52.58-.31 5.07h-7l-.31-5.07z" fill="#f58c8d"/><path d="m39.564 12.95c.45-.24.98-.34 1.53-.27.39 0 .76.1 1.07.28v.01c.66.37 1.1 1.07 1.1 1.88v17.36h-4.86v-17.36c0-.88.48-1.55 1.16-1.9z" fill="#f58c8d"/><path d="m40.864 6.35c1.56 2.17 1.32 6.32 1.3 6.61-.31-.18-.68-.28-1.07-.28-.55-.07-1.08.03-1.53.27-.02-.35-.25-4.45 1.3-6.6z" fill="#ed4544"/><path d="m31.124 41.39v14.26c0 1.1-.9 2-2 2h-9.02c-1.11 0-2-.9-2-2v-14.26z" fill="#f7a4a6"/><g fill="#f58c8d"><path d="m27.894 41.25v.14h-6.57v-.14-3.28h6.57z"/><path d="m21.324 34.69h6.57v3.28h-6.57z"/></g></g><g><path d="m46.633 31.525c-.188-.201-.452-.315-.729-.315h-1.64v-16.36c0-.918-.405-1.775-1.079-2.367.037-1.34-.037-4.669-1.51-6.717-.188-.261-.489-.416-.811-.416-.321 0-.623.154-.812.415-1.438 1.995-1.537 5.282-1.508 6.671-.72.586-1.14 1.447-1.14 2.414v16.36h-1.63c-.275 0-.539.114-.729.315-.188.201-.286.471-.27.746l1.56 25.44c.032.527.47.939.998.939h7c.528 0 .966-.411.998-.939l1.57-25.439c.017-.275-.08-.545-.27-.747zm-5.449-19.841c-.008 0-.016-.003-.025-.004-.206-.023-.411-.024-.613-.013.021-.85.108-1.837.318-2.746.215.935.299 1.94.32 2.762zm-1.78 3.166c0-.603.387-.892.631-1.018.276-.147.603-.205.933-.16.248.031.489.041.682.148.01.006.016.016.026.022.368.207.589.583.589 1.007v16.361h-2.86v-16.36zm5.437 18.36-1.134 18.37h-5.743l-1.126-18.37zm-6.566 23.44-.188-3.07h5.497l-.189 3.07h-5.119z"/><path d="m31.124 40.39h-2.229v-1.42h.52c.553 0 1-.448 1-1s-.447-1-1-1h-.52v-2.28c0-.552-.447-1-1-1h-6.57c-.553 0-1 .448-1 1v2.28h-.52c-.553 0-1 .448-1 1s.447 1 1 1h.52v1.42h-2.22c-.553 0-1 .448-1 1v14.26c0 1.654 1.346 3 3 3h9.02c1.654 0 3-1.346 3-3v-14.26c0-.552-.447-1-1-1zm-8.8-4.7h4.57v1.28h-4.57zm0 3.28h4.57v1.42h-4.57zm7.8 16.68c0 .551-.448 1-1 1h-9.02c-.552 0-1-.449-1-1v-13.26h11.02z"/></g></svg>