<svg id="Layer_1" viewBox="0 0 1000 1000" xmlns="http://www.w3.org/2000/svg" data-name="Layer 1"><path d="m425.82 247.88v403.69a110.32 110.32 0 0 0 -78.67-32.91h-152.48a110.32 110.32 0 0 0 -78.67 32.91v-403.69a78.76 78.76 0 0 1 78.67-78.67h152.48a78.77 78.77 0 0 1 78.26 70.64.19.19 0 0 1 0 .08c.27 2.61.41 5.27.41 7.95z" fill="#0d47a1"/><path d="m347.15 650.66h-152.48a78.76 78.76 0 0 0 -78.67 78.67v22.78a78.76 78.76 0 0 0 78.67 78.68h152.48a78.76 78.76 0 0 0 78.67-78.68v-22.78a78.76 78.76 0 0 0 -78.67-78.67zm54.16 101.45a54.23 54.23 0 0 1 -54.16 54.17h-152.48a54.23 54.23 0 0 1 -54.16-54.17v-22.78a54.22 54.22 0 0 1 54.16-54.16h152.48a54.22 54.22 0 0 1 54.16 54.16z" fill="#1565c0"/><path d="m369.31 729.33v22.78a22.19 22.19 0 0 1 -22.16 22.17h-152.48a22.19 22.19 0 0 1 -22.16-22.17v-22.78a22.18 22.18 0 0 1 22.16-22.16h152.48a22.18 22.18 0 0 1 22.16 22.16z" fill="#1976d2"/><path d="m884 254.29v576.5h-459.09a110.34 110.34 0 0 0 32.91-78.68v-497.82z" fill="#1565c0"/><g fill="#fff" opacity=".5"><path d="m415.82 257.88v403.69a110.32 110.32 0 0 0 -78.67-32.91h-152.48a110.32 110.32 0 0 0 -78.67 32.91v-403.69a78.76 78.76 0 0 1 78.67-78.67h152.48a78.77 78.77 0 0 1 78.26 70.64.19.19 0 0 1 0 .08c.27 2.61.41 5.27.41 7.95z"/><path d="m337.15 660.66h-152.48a78.76 78.76 0 0 0 -78.67 78.67v22.78a78.76 78.76 0 0 0 78.67 78.68h152.48a78.76 78.76 0 0 0 78.67-78.68v-22.78a78.76 78.76 0 0 0 -78.67-78.67zm54.16 101.45a54.23 54.23 0 0 1 -54.16 54.17h-152.48a54.23 54.23 0 0 1 -54.16-54.17v-22.78a54.22 54.22 0 0 1 54.16-54.16h152.48a54.22 54.22 0 0 1 54.16 54.16z"/><path d="m359.31 739.33v22.78a22.19 22.19 0 0 1 -22.16 22.17h-152.48a22.19 22.19 0 0 1 -22.16-22.17v-22.78a22.18 22.18 0 0 1 22.16-22.16h152.48a22.18 22.18 0 0 1 22.16 22.16z"/><path d="m874 264.29v576.5h-459.09a110.34 110.34 0 0 0 32.91-78.68v-497.82z"/></g><g fill="#413b32"><path d="m454.83 222.29a110.87 110.87 0 0 0 -107.68-85.08h-152.48a110.8 110.8 0 0 0 -110.67 110.67v504.23a110.8 110.8 0 0 0 110.67 110.68h152.48a110.8 110.8 0 0 0 110.67-110.68v-504.23a110.23 110.23 0 0 0 -2.99-25.59zm-29 529.82a78.76 78.76 0 0 1 -78.67 78.68h-152.49a78.76 78.76 0 0 1 -78.67-78.68v-504.23a78.76 78.76 0 0 1 78.67-78.67h152.48a78.77 78.77 0 0 1 78.26 70.64.19.19 0 0 1 0 .08c.26 2.61.4 5.27.4 7.95z"/><path d="m425.82 651.57v100.54a78.76 78.76 0 0 1 -78.67 78.68h-152.48a78.76 78.76 0 0 1 -78.67-78.68v-100.54a110.28 110.28 0 0 0 -32 77.76v22.78a110.8 110.8 0 0 0 110.67 110.68h152.48a110.8 110.8 0 0 0 110.67-110.68v-22.78a110.28 110.28 0 0 0 -32-77.76z"/><path d="m425.82 651.57v100.54a78.76 78.76 0 0 1 -78.67 78.68h-152.48a78.76 78.76 0 0 1 -78.67-78.68v-100.54a110.28 110.28 0 0 0 -32 77.76v22.78a110.8 110.8 0 0 0 110.67 110.68h152.48a110.8 110.8 0 0 0 110.67-110.68v-22.78a110.28 110.28 0 0 0 -32-77.76z"/><path d="m425.82 651.57v77.76a78.76 78.76 0 0 0 -78.67-78.67h-152.48a78.76 78.76 0 0 0 -78.67 78.67v-77.76a110.32 110.32 0 0 1 78.67-32.91h152.48a110.32 110.32 0 0 1 78.67 32.91z"/><path d="m347.15 675.17h-152.48a54.22 54.22 0 0 0 -54.16 54.16v22.78a54.23 54.23 0 0 0 54.16 54.17h152.48a54.23 54.23 0 0 0 54.16-54.17v-22.78a54.22 54.22 0 0 0 -54.16-54.16zm22.16 76.94a22.19 22.19 0 0 1 -22.16 22.17h-152.48a22.19 22.19 0 0 1 -22.16-22.17v-22.78a22.18 22.18 0 0 1 22.16-22.16h152.48a22.18 22.18 0 0 1 22.16 22.16z"/><path d="m916 238.29v608.5a16 16 0 0 1 -16 16h-563.51a16 16 0 0 1 0-32h547.51v-576.5h-442.66a16 16 0 0 1 -15.92-14.36.19.19 0 0 0 0-.08c0-.51-.07-1-.07-1.56a16 16 0 0 1 16-16h458.65a16 16 0 0 1 16 16z"/></g></svg>