<svg id="_x30_1_Factory" enable-background="new 0 0 48 48" height="512" viewBox="0 0 48 48" width="512" xmlns="http://www.w3.org/2000/svg"><path d="m19 30v-3h-10v3h-2v12h17.686l3.314-8v-4z" fill="#ccc"/><path d="m11.999 30 3-3h-5.999v3h-2v12h5l12-12z" fill="#efefef"/><path d="m11 34h4v4h-4z" fill="#5a99cc"/><path d="m19 34h4v4h-4z" fill="#5a99cc"/><path d="m11 38v-4h4z" fill="#8bcbef"/><path d="m19 38v-4h4z" fill="#8bcbef"/><path d="m38.2 20.982c1.113-1.167 1.8-2.742 1.8-4.482 0-3.182-2.288-5.825-5.307-6.386-.791-2.389-3.039-4.114-5.693-4.114-1.869 0-3.538.855-4.639 2.195-1.19-1.343-2.924-2.195-4.861-2.195-1.51 0-2.896.52-4 1.384-1.103-.864-2.49-1.384-4-1.384-3.59 0-6.5 2.91-6.5 6.5s2.91 6.5 6.5 6.5c1.51 0 2.896-.52 4-1.384 1.104.864 2.49 1.384 4 1.384 1.314 0 2.534-.393 3.557-1.063-.024.186-.057.37-.057.563 0 2.485 2.015 4.5 4.5 4.5.584 0 1.138-.12 1.65-.322-.091.259-.15.532-.15.822 0 1.381 1.119 2.5 2.5 2.5h4.5c1.657 0 3-1.343 3-3 0-.784-.306-1.489-.8-2.018z" fill="#a5a5a5"/><path d="m33.24 7.76c-1.084-1.087-2.583-1.76-4.24-1.76-1.869 0-3.538.855-4.639 2.195-1.19-1.343-2.924-2.195-4.861-2.195-1.51 0-2.896.52-4 1.384-1.103-.864-2.49-1.384-4-1.384-3.59 0-6.5 2.91-6.5 6.5s2.91 6.5 6.5 6.5c1.51 0 2.896-.52 4-1.384 1.104.864 2.49 1.384 4 1.384 1.314 0 2.534-.393 3.557-1.063 0 .002 0 .005-.001.007z" fill="#d6d6d6"/><path d="m43.314 42-3.314-8v-8h-12v8l-3.314 8z" fill="#ccc"/><path d="m39.999 26h-11.999v8l-2.828 6.826z" fill="#efefef"/><path d="m28 30h12v4h-12z" fill="#7e44b2"/><path d="m36 30h-8v4h4z" fill="#905cc6"/><path d="m44 41h-.018l-2.982-7.199v-7.801c0-.552-.448-1-1-1h-.556c.344-.591.556-1.268.556-2 0-.698-.184-1.375-.528-1.971.99-1.3 1.528-2.88 1.528-4.529 0-3.417-2.307-6.376-5.562-7.242-1.091-2.57-3.61-4.258-6.438-4.258-1.738 0-3.387.638-4.662 1.778-1.346-1.14-3.06-1.778-4.838-1.778-1.434 0-2.803.399-4 1.16-1.197-.761-2.566-1.16-4-1.16-4.136 0-7.5 3.364-7.5 7.5s3.364 7.5 7.5 7.5c1.434 0 2.803-.399 4-1.16 1.943 1.235 4.442 1.494 6.598.695.485 2.54 2.723 4.465 5.402 4.465.178 0 .355-.009.532-.027.05.365.166.706.319 1.027h-.351c-.552 0-1 .448-1 1v3h-7v-1h1c.552 0 1-.448 1-1s-.448-1-1-1h-14c-.552 0-1 .448-1 1s.448 1 1 1h1v1h-1c-.552 0-1 .448-1 1v11h-2c-.552 0-1 .448-1 1s.448 1 1 1h40c.552 0 1-.448 1-1s-.448-1-1-1zm-15-10h10v2h-10zm0-2v-2h2.5 4.5 3v2zm1-5.5c0-.151.031-.312.093-.492.129-.369.029-.778-.251-1.051-.277-.271-.698-.348-1.06-.209-.425.163-.854.252-1.282.252-1.93 0-3.5-1.57-3.5-3.5 0-.103.049-.438.049-.438.049-.387-.132-.767-.463-.973s-.751-.201-1.078.012c-1.932 1.268-4.565 1.159-6.392-.271-.362-.284-.871-.284-1.233 0-.978.765-2.148 1.17-3.383 1.17-3.033 0-5.5-2.467-5.5-5.5s2.467-5.5 5.5-5.5c1.235 0 2.405.405 3.383 1.171.362.284.871.284 1.233 0 .979-.766 2.149-1.171 3.384-1.171 1.567 0 3.066.677 4.113 1.858.194.219.491.342.767.337.293-.006.568-.139.754-.365.955-1.163 2.365-1.83 3.866-1.83 2.158 0 4.064 1.378 4.744 3.429.115.346.408.602.767.669 2.601.483 4.489 2.755 4.489 5.402 0 1.416-.541 2.762-1.523 3.791-.365.383-.369.985-.008 1.372.343.368.531.843.531 1.337 0 1.103-.897 2-2 2h-4.5c-.827 0-1.5-.673-1.5-1.5zm-20 4.5h8v1h-8zm-2 13v-10h19v2.801l-2.982 7.199zm18.183 0 2.486-6h10.664l2.486 6zm-11.183-8h-4c-.552 0-1 .448-1 1v4c0 .552.448 1 1 1h4c.552 0 1-.448 1-1v-4c0-.552-.448-1-1-1zm-1 4h-2v-2h2zm9-4h-4c-.552 0-1 .448-1 1v4c0 .552.448 1 1 1h4c.552 0 1-.448 1-1v-4c0-.552-.448-1-1-1zm-1 4h-2v-2h2z" fill="#474747"/></svg>