<svg id="Capa_1" enable-background="new 0 0 511.872 511.872" height="512" viewBox="0 0 511.872 511.872" width="512" xmlns="http://www.w3.org/2000/svg"><g><g><path d="m374.669 480.579c-5.32-26.7-19.431-50.222-39.177-67.451h-20.517l-14.877-21.512c-1.275-.5-2.558-.98-3.854-1.438l-80.689.021c-1.334.472-2.655.97-3.967 1.487l-14.828 21.442h-20.391c-19.746 17.229-33.857 40.751-39.177 67.451-2.456 12.324 7.076 23.793 19.643 23.793h19.544l79.547-19.883 79.566 19.883h19.534c12.567 0 22.099-11.469 19.643-23.793z" fill="#fd7a6e"/></g><g><path d="m215.556 390.199c-1.334.472-2.655.97-3.967 1.487l-14.828 21.442h-20.391c-19.746 17.229-33.857 40.751-39.177 67.451-2.456 12.324 7.076 23.793 19.643 23.793h20.252l34.331-8.658c-2.928-4.23-4.253-9.594-3.148-15.135 8.389-42.1 38.612-76.322 78.363-90.38l9.663-.003c-.017-.006-.034-.013-.051-.019z" fill="#fb695b"/></g><g><circle cx="255.929" cy="389.121" fill="#f2a888" r="36.084"/></g><g><path d="m335.493 504.372v-91.244c-10.39-9.066-22.336-16.394-35.394-21.512v41.387c0 22.092-17.908 40-40 40h-9c-22.091 0-40-17.908-40-40v-41.116c-12.794 5.104-24.509 12.326-34.719 21.233v91.252z" fill="#7888af"/></g><g><path d="m243.267 472.1c-18.341-3.642-32.168-19.817-32.168-39.229v-40.985c-12.794 5.104-24.509 12.326-34.719 21.233v91.252h63.768c-2.933-3.869-4.714-8.937-4.714-14.487 0-7.312 3.087-13.787 7.833-17.784z" fill="#687daa"/></g><g><circle cx="401.065" cy="251.134" fill="#ffbe9c" r="36.081"/></g><g><circle cx="110.807" cy="251.134" fill="#f2a888" r="36.081"/></g><g><circle cx="127.234" cy="351.599" fill="#f6ca56" r="35.147"/></g><g><circle cx="87.529" cy="391.305" fill="#f9d171" r="35.147"/></g><g><circle cx="87.529" cy="391.305" fill="#f9d171" r="35.147"/></g><g><circle cx="87.529" cy="391.305" fill="#f9d171" r="35.147"/></g><g><circle cx="384.641" cy="351.599" fill="#f6ca56" r="35.147"/></g><g><path d="m93.185 382.403c0 17.497-12.787 32.001-29.524 34.694 6.268 5.803 14.651 9.355 23.867 9.355 19.411 0 35.147-15.736 35.147-35.147s-15.736-35.147-35.147-35.147c-1.915 0-3.792.159-5.623.453 6.935 6.42 11.28 15.597 11.28 25.792z" fill="#f6ca56"/></g><g><circle cx="255.935" cy="251" fill="#ffd3bc" r="145"/></g><g><path d="m160.935 251c0-71.555 51.833-130.998 120-142.846-8.122-1.412-16.474-2.154-25-2.154-80.081 0-145 64.919-145 145s64.919 145 145 145c8.526 0 16.878-.743 25-2.154-68.167-11.848-120-71.291-120-142.846z" fill="#ffbe9c"/></g><g><g><path d="m206.01 290.231c0 12.91-13.143 23.377-29.354 23.377-16.213 0-29.355-10.467-29.355-23.377s13.142-23.377 29.355-23.377c16.211 0 29.354 10.467 29.354 23.377" fill="#ffa1ac"/></g><g><path d="m306.413 290.231c0 12.91 13.143 23.377 29.354 23.377 16.214 0 29.355-10.467 29.355-23.377s-13.142-23.377-29.355-23.377c-16.211 0-29.354 10.467-29.354 23.377" fill="#ffa1ac"/></g><g><path d="m280.138 272.631c-.051-14.994-10.92-16.368-24.32-16.323s-24.256 1.491-24.206 16.486c.052 14.996 10.953 27.113 24.353 27.067 13.399-.044 24.222-12.236 24.173-27.23" fill="#495560"/></g><g><path d="m255.885 306.723c-8.416 0-16.289-3.6-22.178-10.146-5.7-6.335-8.855-14.717-8.885-23.603-.077-23.423 21.681-23.497 30.971-23.528 9.3-.024 31.053-.105 31.133 23.319v.001c.029 8.885-3.071 17.289-8.729 23.662-5.869 6.611-13.757 10.267-22.212 10.295-.033 0-.067 0-.1 0zm.411-42.278c-.15 0-.3 0-.452.001-15.401.052-16.041 2.637-16.022 8.478.018 5.193 1.806 10.031 5.036 13.621 3.018 3.354 6.951 5.157 11.078 5.178 4.127-.014 8.049-1.879 11.045-5.253 3.206-3.612 4.963-8.461 4.946-13.653-.02-5.784-.666-8.372-15.631-8.372z"/></g><g><path d="m177.505 272.81c-4.13 0-7.485-3.34-7.5-7.474-.021-5.83 2.23-11.319 6.338-15.455s9.581-6.424 15.411-6.444h.076c5.801 0 11.259 2.25 15.377 6.34 4.136 4.108 6.424 9.581 6.444 15.41.014 4.142-3.333 7.511-7.475 7.525-.008 0-.018 0-.026 0-4.13 0-7.485-3.341-7.5-7.475-.006-1.823-.722-3.534-2.015-4.819-1.288-1.279-2.994-1.982-4.808-1.982-.008 0-.016 0-.024 0-1.823.006-3.535.722-4.819 2.015s-1.988 3.009-1.981 4.832c.015 4.142-3.332 7.512-7.474 7.526-.006.001-.015.001-.024.001z"/></g><g><path d="m305.541 272.38c-4.131 0-7.486-3.342-7.5-7.476-.039-12.032 9.719-21.855 21.752-21.897h.075c5.802 0 11.261 2.25 15.379 6.342 4.136 4.108 6.424 9.581 6.443 15.41.014 4.142-3.333 7.511-7.475 7.525-.008 0-.017 0-.025 0-4.131 0-7.486-3.341-7.5-7.475-.006-1.822-.722-3.534-2.015-4.819s-3.01-1.976-4.831-1.983c-3.763.013-6.815 3.086-6.803 6.85.013 4.142-3.334 7.511-7.476 7.524-.007-.001-.015-.001-.024-.001z"/></g></g><g><path d="m306.29 9.402-37.565 11.372c-8.341 2.525-17.243 2.525-25.585 0l-37.564-11.372c-20.403-6.177-42.305 3.107-52.055 22.064l-72.761 141.477h350.346l-72.761-141.476c-9.749-18.957-31.652-28.241-52.055-22.065z" fill="#df8a57"/></g><g><path d="m169.577 151.303s36.802-128.633 86.351-128.634c-4.309 0-8.619-.632-12.788-1.894l-37.564-11.373c-20.403-6.177-42.305 3.107-52.055 22.064l-72.761 141.477h88.817z" fill="#d97c41"/></g><g><path d="m464.667 184.047c0 18.157-16.058 32.875-35.872 32.875h-345.718c-19.812 0-35.872-14.718-35.872-32.875 0-18.155 16.06-32.875 35.872-32.875h345.717c19.815 0 35.873 14.719 35.873 32.875z" fill="#e4996d"/></g><g><path d="m133.705 184.047c0-18.155 16.06-32.875 35.872-32.875h-86.5c-19.812 0-35.872 14.72-35.872 32.875 0 18.157 16.06 32.875 35.872 32.875h86.5c-19.812 0-35.872-14.719-35.872-32.875z" fill="#df8a57"/></g><g><circle cx="424.346" cy="391.305" fill="#f9d171" r="35.147"/></g><g><path d="m418.69 382.403c0 17.497 12.787 32.001 29.524 34.694-6.268 5.803-14.651 9.355-23.867 9.355-19.411 0-35.147-15.736-35.147-35.147s15.736-35.147 35.147-35.147c1.915 0 3.792.159 5.623.453-6.935 6.42-11.28 15.597-11.28 25.792z" fill="#f6ca56"/></g><path d="m427.191 348.763c-.657-10.236-4.962-19.888-12.394-27.32-5.199-5.199-11.556-8.901-18.485-10.866 2.197-5.156 4.11-10.46 5.735-15.888 23.578-.526 42.599-19.855 42.599-43.556 0-10.05-3.514-19.574-9.537-27.145 20.933-2.855 37.058-19.676 37.058-39.942 0-22.263-19.457-40.375-43.372-40.375h-4.31l-30.625-59.547c-1.894-3.683-6.416-5.135-10.1-3.239-3.684 1.894-5.134 6.416-3.239 10.1l27.097 52.687h-303.37l55.942-108.775c8.096-15.742 26.269-23.443 43.212-18.316l37.564 11.372c9.791 2.964 20.14 2.964 29.932 0l37.564-11.372c16.941-5.127 35.116 2.574 43.212 18.316l15.113 29.386c1.894 3.683 6.416 5.135 10.1 3.239 3.684-1.894 5.134-6.416 3.239-10.1l-15.113-29.386c-11.41-22.186-37.022-33.04-60.897-25.812l-37.565 11.372c-6.947 2.104-14.291 2.104-21.239 0l-37.564-11.372c-23.875-7.228-49.488 3.627-60.897 25.812l-59.471 115.636h-4.303c-23.916 0-43.372 18.112-43.372 40.375 0 20.254 16.106 37.068 37.021 39.938-6.005 7.546-9.5 17.048-9.5 27.149 0 23.7 19.02 43.029 42.596 43.556 1.626 5.428 3.539 10.733 5.736 15.89-6.925 1.964-13.278 5.662-18.481 10.864-7.432 7.432-11.737 17.084-12.394 27.32-22.193 1.47-39.802 19.983-39.802 42.542 0 11.391 4.436 22.101 12.491 30.156s18.765 12.491 30.156 12.491c22.557 0 41.068-17.606 42.541-39.796 10.236-.656 19.889-4.968 27.321-12.4 2.683-2.684 4.981-5.712 6.853-8.979 9.561 7.217 19.996 13.331 31.114 18.163-33.829 18.035-57.949 50.185-65.519 88.174-1.604 8.047.471 16.312 5.691 22.676 5.257 6.408 13.023 10.083 21.307 10.083h198.19c8.284 0 16.05-3.675 21.307-10.083 5.221-6.364 7.295-14.628 5.691-22.675-7.582-38.049-31.681-70.148-65.518-88.173 11.122-4.833 21.56-10.949 31.124-18.168 1.873 3.268 4.17 6.298 6.854 8.983 7.433 7.433 17.083 11.743 27.32 12.4 1.473 22.19 19.984 39.796 42.542 39.796 23.516 0 42.647-19.131 42.647-42.647.001-22.561-17.609-41.074-39.802-42.544zm-21.403-69.446c1.731-9.179 2.647-18.643 2.647-28.317 0-8.932-.78-17.838-2.315-26.579h5.117c11.018 4.2 18.409 14.902 18.409 26.712 0 14.151-10.339 25.926-23.858 28.184zm-351.083-95.27c0-13.992 12.728-25.375 28.372-25.375h345.718c15.645 0 28.372 11.383 28.372 25.375s-12.728 25.375-28.372 25.375h-220.032c-4.142 0-7.5 3.358-7.5 7.5s3.358 7.5 7.5 7.5h182.095c1.704 8.712 2.577 17.629 2.577 26.579 0 75.818-61.682 137.5-137.5 137.5s-137.5-61.682-137.5-137.5c0-8.95.875-17.865 2.58-26.579h57.748c4.142 0 7.5-3.358 7.5-7.5s-3.358-7.5-7.5-7.5h-95.686c-15.644 0-28.372-11.384-28.372-25.375zm273.288 312.825h-144.113v-80.343c6.054-4.955 12.65-9.315 19.719-12.979v29.452c0 26.191 21.309 47.5 47.5 47.5h9c26.191 0 47.5-21.309 47.5-47.5v-29.797c7.325 3.733 14.15 8.205 20.394 13.312zm-109.394-85.085c7.687 12.704 21.573 20.918 37.329 20.918 15.293 0 28.857-7.776 36.671-19.884v20.182c0 17.92-14.58 32.5-32.5 32.5h-9c-17.92 0-32.5-14.58-32.5-32.5zm37.329 5.918c-11.421 0-21.345-6.57-25.945-16.423 8.437 1.453 17.106 2.219 25.951 2.219 8.839 0 17.502-.765 25.934-2.216-4.606 9.846-14.542 16.42-25.94 16.42zm-173.702-166.571c0-11.896 7.385-22.515 18.446-26.712h5.075c-1.535 8.741-2.313 17.646-2.313 26.579 0 9.674.916 19.138 2.647 28.317-13.518-2.261-23.855-14.035-23.855-28.184zm5.303 167.818c-7.385 0-14.328-2.876-19.55-8.098s-8.097-12.165-8.097-19.549c0-15.245 12.402-27.647 27.647-27.647s27.647 12.402 27.647 27.647-12.403 27.647-27.647 27.647zm59.255-47.803c-4.974 4.974-11.482 7.798-18.36 8.078-4.088-13.818-14.999-24.729-28.817-28.817.28-6.878 3.104-13.386 8.078-18.36 4.022-4.022 9.104-6.66 14.612-7.652 7.949 14.416 18.163 27.412 30.158 38.512-1.37 3.048-3.284 5.851-5.671 8.239zm.342 121.126c-2.36-2.877-3.3-6.605-2.577-10.23 3.786-18.999 12.267-36.339 24.331-50.706v65.533h-12.043c-3.775 0-7.315-1.676-9.711-4.597zm220.188-10.23c.723 3.625-.217 7.353-2.577 10.23-2.396 2.921-5.936 4.597-9.71 4.597h-12.034v-65.551c12.057 14.359 20.53 31.698 24.321 50.724zm-7.896-119.139c11.995-11.1 22.208-24.096 30.156-38.511 5.511.993 10.597 3.635 14.616 7.655 4.974 4.974 7.798 11.482 8.078 18.36-13.819 4.089-24.729 14.999-28.817 28.818-6.879-.279-13.386-3.105-18.36-8.079-2.387-2.388-4.303-5.193-5.673-8.243zm64.929 56.046c-15.245 0-27.647-12.402-27.647-27.647s12.403-27.647 27.647-27.647 27.647 12.402 27.647 27.647-12.403 27.647-27.647 27.647z"/></g></svg>