<svg id="Layer_1" viewBox="0 0 64 64" xmlns="http://www.w3.org/2000/svg" data-name="Layer 1"><path d="m53 62v-3.02c0-6.06-4.66-10.98-10.4-10.98h-21.2c-5.74 0-10.4 4.92-10.4 10.98v3.02z" fill="#ff597b"/><path d="m45 48.3v13.7h-26v-13.7c.77-.2 1.57-.3 2.4-.3h1.6v8h18v-8h1.6c.83 0 1.63.1 2.4.3z" fill="#5d93cf"/><g fill="#ffebb7"><path d="m36.02 48.33h-.01c-2.05 2.23-5.95 2.23-8 0h-.01c.57-.05 1.01-.46 1.01-.96v-3.37h6v3.37c0 .5.44.91 1.01.95z"/><path d="m21.41 35.41c-.36.37-.86.59-1.41.59-1.1 0-2-.9-2-2s.9-2 2-2c.36 0 .71.1 1 .27"/><path d="m43 32.27c.29-.17.64-.27 1-.27 1.1 0 2 .9 2 2s-.9 2-2 2c-.55 0-1.05-.22-1.41-.59"/></g><path d="m21.02 31.6c-4.86-1.37-8.02-3.63-8.02-6.17 0-4.17 8.5-7.56 19-7.56s19 3.39 19 7.56c0 2.54-3.16 4.8-8.02 6.17" fill="#ca965c"/><path d="m40.91 25c1.32 1.98 2.09 4.4 2.09 7.01 0 6.62-4.92 11.99-11 11.99s-11-5.37-11-11.99c0-2.61.77-5.03 2.09-7.01" fill="#ffebb7"/><path d="m21 19 2.84-14.96c.11-.6.63-1.04 1.22-1.04h1.44c1.09 0 2.11.63 2.63 1.64l1.87 2.56 1.96-2.9c.41-.8 1.2-1.3 2.06-1.3h2.18c1.62 0 3.02 1.18 3.36 2.83l2.46 13.17" fill="#ca965c"/><path d="m42.6 47h-6.49c-.06 0-.11-.05-.11-.11v-2.63c3.28-1.24 5.91-3.95 7.17-7.39.91.26 1.92.25 3.18-1.24.36-.42.62-.95.64-1.5.04-1-.41-1.88-1.13-2.46 3.93-1.58 6.13-3.78 6.13-6.24 0-2.93-3.12-5.43-8.08-6.95l-2.4-12.85c-.43-2.1-2.25-3.63-4.34-3.63h-2.18c-1.22 0-2.33.68-2.92 1.79l-1.13 1.67-.98-1.35c-.7-1.3-2.03-2.11-3.48-2.11h-1.44c-1.07 0-2 .78-2.2 1.85l-2.77 14.62c-4.96 1.53-8.08 4.02-8.08 6.96 0 2.46 2.2 4.67 6.13 6.24-.71.58-1.17 1.46-1.13 2.46.02.55.29 1.08.64 1.5 1.25 1.48 2.26 1.5 3.18 1.24 1.26 3.44 3.89 6.15 7.17 7.39v2.63c0 .06-.05.11-.11.11h-6.49c-6.29 0-11.4 5.37-11.4 11.98v2.02c0 .55.45 1 1 1 .55 0 1-.45 1-1v-2.02c0-4.23 2.49-7.84 6-9.29v11.31c0 .55.45 1 1 1 .55 0 1-.45 1-1v-11.88c.46-.07.92-.12 1.4-.12h.6v7c0 .55.45 1 1 1h18c.55 0 1-.45 1-1v-7h.6c.48 0 .94.05 1.4.12v11.88c0 .55.45 1 1 1 .55 0 1-.45 1-1v-11.31c3.51 1.45 6 5.06 6 9.29v2.02c0 .55.45 1 1 1 .55 0 1-.45 1-1v-2.02c0-6.61-5.11-11.98-11.4-11.98zm1.4-12c-.1 0-.18-.03-.27-.05.13-.63.2-1.28.24-1.94h.04c.55 0 1 .45 1 1s-.45 1-1 1zm-19.18-30.78c.02-.12.13-.22.23-.22h1.44c.72 0 1.39.42 1.74 1.1.02.05.05.09.08.13l1.87 2.56c.19.26.48.4.83.41.33 0 .63-.17.81-.44l1.96-2.9s.04-.07.06-.11c.24-.47.68-.76 1.17-.76h2.18c1.14 0 2.14.85 2.37 2.01l2.22 11.88c-2.86-.66-6.18-1.02-9.78-1.02s-6.91.37-9.77 1.02l2.59-13.67zm-10.82 21.21c0-3.1 7.39-6.56 18-6.56s18 3.46 18 6.56c0 1.77-2.33 3.59-6.14 4.85-.16-1.06-.44-2.08-.84-3.06l.66.27c.5.22 1.08.02 1.31-.47.24-.51.02-1.13-.49-1.35-8.1-3.56-16.9-3.56-25 0-.51.23-.73.84-.49 1.35.23.49.81.69 1.31.47.22-.1.44-.18.66-.27-.4.98-.69 2-.84 3.06-3.82-1.27-6.14-3.08-6.14-4.85zm6 9.57c-.55 0-1-.45-1-1s.45-1 1-1h.04c.04.66.11 1.31.24 1.94-.09.03-.18.05-.27.05zm2-2.74c0-2.17.6-4.24 1.74-6.02 5.43-1.64 11.09-1.64 16.53 0 1.13 1.78 1.74 3.85 1.74 6.02 0 5.92-4.49 10.74-10 10.74s-10-4.82-10-10.74zm10 12.74c.68 0 1.35-.07 2-.19v2.08c0 .46.15.89.41 1.24-.69.5-1.53.8-2.41.8s-1.71-.29-2.41-.8c.25-.35.41-.77.41-1.24v-2.08c.65.12 1.32.19 2 .19zm8 10h-16v-6h3.56c1.15 1.22 2.74 1.92 4.44 1.92s3.29-.7 4.44-1.92h3.56z"/></svg>