<svg id="Layer_1" viewBox="0 0 512 512" xmlns="http://www.w3.org/2000/svg" data-name="Layer 1"><g><g fill-rule="evenodd"><path d="m357.67 16c46.18 7.47 80.89 39.46 80.89 77.8h-203.1c0-38.34 34.71-70.33 80.89-77.8v22.31c0 8.22 9.3 14.94 20.66 14.94s20.66-6.72 20.66-14.94z" fill="#daae4f"/><path d="m337.01 93.8h-101.56c0-38.34 34.71-70.33 80.89-77.8v22.31c0 8.22 9.3 14.94 20.66 14.94v40.54z" fill="#ebcb68"/><path d="m388.41 89.49v358.77l-51.4 47.74-51.39-47.74v-358.77z" fill="#daae4f"/><path d="m337.01 496-51.39-47.74v-358.77h51.39z" fill="#ebcb68"/><path d="m141.22 231.98 45.45 26.24 45.45 26.24v104.97l-45.45 26.24-45.45 26.24-45.45-26.24-45.45-26.24v-104.97l45.45-26.24zm0 55.79c-27.16 0-49.17 22.01-49.17 49.17s22.01 49.17 49.17 49.17 49.17-22.01 49.17-49.17-22.01-49.17-49.17-49.17z" fill="#daae4f"/><path d="m141.22 441.91-45.45-26.24-45.45-26.24v-104.97l45.45-26.24 45.45-26.24v55.79c-27.16 0-49.17 22.01-49.17 49.17s22.01 49.17 49.17 49.17v55.79z" fill="#ebcb68"/></g><rect fill="#ebcb68" height="37.67" rx="6.12" width="249.34" x="212.34" y="82.01"/><path d="m218.46 82.01h237.1c3.37 0 6.12 2.75 6.12 6.12v12.72h-249.34v-12.72c0-3.37 2.75-6.12 6.12-6.12z" fill="#daae4f" fill-rule="evenodd"/><g fill="#ebcb68" fill-rule="evenodd"><path d="m285.62 160.03 102.79-23.11v16.56l-102.79 23.11z"/><path d="m285.62 225.25 102.79-23.11v16.56l-102.79 23.11z"/><path d="m285.62 290.47 102.79-23.11v16.56l-102.79 23.11z"/><path d="m285.62 355.69 102.79-23.11v16.56l-102.79 23.11z"/><path d="m285.62 420.91 102.79-23.11v16.56l-102.79 23.11z"/></g><g fill="#daae4f" fill-rule="evenodd"><path d="m285.62 160.03 51.39-11.55v16.55l-51.39 11.56z"/><path d="m285.62 225.25 51.39-11.55v16.55l-51.39 11.56z"/><path d="m285.62 290.47 51.39-11.55v16.55l-51.39 11.56z"/><path d="m285.62 355.69 51.39-11.55v16.55l-51.39 11.56z"/><path d="m285.62 420.91 51.39-11.55v16.55l-51.39 11.56z"/></g></g><path d="m42.39 283.6v114.2l98.9 57.1 98.9-57.1v-114.2l-98.9-57.1zm181.8 104.96-82.9 47.87-82.9-47.87v-95.73l82.9-47.86 82.9 47.86zm-140.07-47.86c0 31.52 25.65 57.17 57.17 57.17s57.17-25.65 57.17-57.17-25.65-57.17-57.17-57.17-57.17 25.65-57.17 57.17zm98.34 0c0 22.7-18.47 41.17-41.17 41.17s-41.17-18.47-41.17-41.17 18.47-41.17 41.17-41.17 41.17 18.47 41.17 41.17zm273.18-262.94h-11.81c-9.56-33.02-42.73-59.1-84.8-65.9-2.32-.37-4.68.29-6.46 1.81-1.79 1.52-2.81 3.75-2.81 6.09v22.32c0 4.88-7.77 6.7-12.66 6.7s-12.66-1.82-12.66-6.7v-22.32c0-2.34-1.03-4.57-2.81-6.09-1.79-1.52-4.15-2.18-6.46-1.81-42.07 6.8-75.24 32.88-84.8 65.9h-11.81c-7.79 0-14.12 6.33-14.12 14.12v25.44c0 7.79 6.33 14.12 14.12 14.12h59.16v320.58c0 2.22.93 4.35 2.56 5.86l51.4 47.74c1.53 1.43 3.49 2.14 5.44 2.14s3.91-.71 5.44-2.14l51.4-47.74c1.63-1.51 2.56-3.64 2.56-5.86v-320.58h59.16c7.79 0 14.12-6.33 14.12-14.12v-25.44c0-7.79-6.33-14.12-14.12-14.12zm-147.22-48.22v12.53c0 7.32 3.62 13.64 10.18 17.79 5.01 3.17 11.57 4.91 18.48 4.91 16.61 0 28.66-9.55 28.66-22.7v-12.53c29.58 7.29 52.62 25.52 61.22 48.22h-179.76c8.6-22.7 31.65-40.93 61.22-48.22zm72.06 371.8-86.79 23.53v-48.64l86.79-23.53zm-86.79-90.34 86.79-23.53v48.64l-86.79 23.53zm86.79-40.1-86.79 23.53v-48.64l86.79-23.53zm0-65.22-86.79 23.53v-48.64l86.79-23.53zm-43.4 283.16-43.4-40.31v-7.09l86.79-23.53v30.61l-43.4 40.31zm43.4-348.38-86.79 23.53v-32.55h86.79zm73.27-25.02h-233.33v-21.68h217.08s.01 0 .02 0h.02 16.21z"/></svg>