<svg id="Layer_1-2" viewBox="0 0 64 64" xmlns="http://www.w3.org/2000/svg"><g id="Faucet"><path d="m50 36-1-6h10l-1 6z" fill="#f58569"/><path d="m8 18h16v4h-16z" fill="#f58569"/><path d="m4 54v-28c0-2.20605469 1.79443359-4 4-4h53c1.10302734 0 2 .89746094 2 2v4c0 1.10253906-.89697266 2-2 2h-33v24z" fill="#ffefde"/><path d="m5 18v-10c0-2.20605469 1.79443359-4 4-4h35c1.65429688 0 3 1.34570312 3 3s-1.34570312 3-3 3h-17v8z" fill="#ffefde"/><path d="m4 48h24v6h-24z" fill="#f7dac9"/><path d="m54 56c-3.30859375 0-6-2.69140625-6-6 0-2.62011719 3.92480469-7.03320312 6-9 2.07519531 1.96679688 6 6.37988281 6 9 0 3.30859375-2.69140625 6-6 6z" fill="#b6d4ff"/><path d="m1 60v-4c0-1.10253906.89697266-2 2-2h26c1.10302734 0 2 .89746094 2 2v4z" fill="#f58569"/><g fill="#433d4c"><path d="m61 21h-36v-2h2c.55224609 0 1-.44726562 1-1v-7h16c2.20556641 0 4-1.79394531 4-4s-1.79443359-4-4-4h-35c-2.75683594 0-5 2.24316406-5 5v10c0 .55273438.44775391 1 1 1h2v2.10107422c-2.27929688.46466064-4 2.48449707-4 4.89892578v27c-1.65429688 0-3 1.34570312-3 3v4c0 .55273438.44775391 1 1 1h30c.55224609 0 1-.44726562 1-1v-4c0-1.65429688-1.34570312-3-3-3v-22h19.15301514l.86065674 5.1640625c.08007812.48242188.49755859.8359375.98632812.8359375h8c.48876953 0 .90625-.35351562.98632812-.8359375l.86065674-5.1640625h1.15301514c1.65429688 0 3-1.34570312 3-3v-4c0-1.65429688-1.34570312-3-3-3zm-55-13c0-1.65429688 1.34570312-3 3-3h35c1.10302734 0 2 .89746094 2 2s-.89697266 2-2 2h-27c-.55224609 0-1 .44726562-1 1s.44775391 1 1 1h9v6h-20zm17 11v2h-14v-2zm7 37v3h-28v-3c0-.55175781.44873047-1 1-1h26c.55126953 0 1 .44824219 1 1zm-25-3v-4h22v4zm52.15283203-18h-6.30566406l-.66650391-4h7.63867188zm4.84716797-7c0 .55175781-.44873047 1-1 1h-33c-.55224609 0-1 .44726562-1 1v17h-22v-21c0-1.65429688 1.34570312-3 3-3h53c.55126953 0 1 .44824219 1 1z"/><path d="m54.68798828 40.27441406c-.38574219-.36523438-.99023438-.36523438-1.37597656 0-.64599609.61230469-6.31201172 6.08691406-6.31201172 9.72558594 0 3.859375 3.14013672 7 7 7s7-3.140625 7-7c0-3.63867188-5.66601562-9.11328125-6.31201172-9.72558594zm-.68798828 14.72558594c-2.75683594 0-5-2.24316406-5-5 0-1.88867188 2.83105469-5.39648438 5-7.59765625 2.16894531 2.20117188 5 5.70898438 5 7.59765625 0 2.75683594-2.24316406 5-5 5z"/></g></g></svg>