<svg id="Layer_1" enable-background="new 0 0 512 512" viewBox="0 0 512 512" xmlns="http://www.w3.org/2000/svg"><g clip-rule="evenodd" fill-rule="evenodd"><g><path d="m26 327.466h460c5.508 0 10 4.492 10 10v43.292c0 5.508-4.492 10-10 10h-460c-5.508 0-10-4.492-10-10v-43.292c0-5.508 4.492-10 10-10zm0-206.223h460c5.508 0 10 4.492 10 10v43.292c0 5.508-4.492 10-10 10h-460c-5.508 0-10-4.492-10-10v-43.292c0-5.508 4.492-10 10-10z" fill="#d5a889"/><path d="m391.997 20.778-28.56 22.221c-2.517 1.958-3.859 4.703-3.859 7.893v410.218c0 3.189 1.342 5.934 3.859 7.893l28.56 22.22c3.66 2.847 8.622 2.848 12.281 0l28.56-22.221c2.517-1.958 3.859-4.703 3.859-7.893v-410.218c0-3.189-1.342-5.934-3.859-7.893l-28.56-22.221c-3.659-2.847-8.621-2.847-12.281.001zm-284.276 0-28.56 22.221c-2.517 1.958-3.859 4.703-3.859 7.893v410.218c0 3.189 1.342 5.934 3.859 7.893l28.56 22.22c3.66 2.847 8.622 2.848 12.281 0l28.56-22.221c2.517-1.958 3.859-4.703 3.859-7.893v-410.218c0-3.189-1.342-5.934-3.859-7.893l-28.56-22.221c-3.659-2.847-8.621-2.847-12.281.001zm142.138 0-28.559 22.22c-2.517 1.958-3.859 4.703-3.859 7.893v410.218c0 3.189 1.342 5.934 3.859 7.893l28.56 22.22c3.66 2.847 8.622 2.848 12.281 0l28.56-22.221c2.517-1.958 3.859-4.703 3.859-7.893v-410.217c0-3.189-1.342-5.934-3.859-7.893l-28.56-22.221c-3.66-2.847-8.622-2.847-12.282.001z" fill="#efc7a4"/></g><path d="m443.698 334.463v49.29h45.302v-49.29zm-14-285.041-24.559-19.109v72.569c0 3.863-3.134 6.997-7.001 6.997-3.863 0-6.999-3.134-6.999-6.997v-72.569l-24.559 19.109v413.149l24.559 19.109v-72.569c0-3.858 3.136-7.002 6.999-7.002 3.868 0 7.001 3.143 7.001 7.002v72.569l24.559-19.109zm-77.119 334.332v-49.29h-51.019v49.29zm-65.02-334.332-24.559-19.109v72.569c0 3.863-3.134 6.997-7 6.997s-6.999-3.134-6.999-6.997v-72.569l-24.561 19.109v413.149l24.561 19.109v-72.569c0-3.858 3.134-7.002 6.999-7.002s7 3.143 7 7.002v72.569l24.559-19.109zm-77.118 334.332v-49.29h-51.018v49.29zm-65.019-334.332-24.559-19.109v72.569c0 3.863-3.135 6.997-7 6.997-3.866 0-7.001-3.134-7.001-6.997v-72.569l-24.559 19.109v413.149l24.559 19.109v-72.569c0-3.858 3.136-7.002 7.001-7.002s7 3.143 7 7.002v72.569l24.559-19.109zm-77.118 334.332v-49.29h-45.303v49.29zm0-206.22v-49.295h-45.303v49.295zm91.118 13.999v128.927h51.018v-128.927zm0-63.294v49.295h51.018v-49.295zm142.138 63.294v128.927h51.018v-128.927zm0-63.294v49.295h51.018v-49.295zm142.138 0v49.295h45.302v-49.295zm0 63.294v128.927h52.304c3.863 0 6.997 3.143 6.997 7.002v63.289c0 3.873-3.134 7.002-6.997 7.002h-52.304v68.239c0 2.16-.998 4.202-2.702 5.529l-38.56 30.002c-1.265.979-2.781 1.478-4.298 1.478-1.516 0-3.035-.499-4.297-1.478l-38.562-30.002c-1.704-1.327-2.702-3.369-2.702-5.529v-68.239h-51.017v68.239c0 2.16-.998 4.202-2.702 5.529l-38.559 30.002c-1.265.979-2.781 1.478-4.298 1.478-1.516 0-3.035-.499-4.299-1.478l-38.559-30.002c-1.704-1.327-2.702-3.369-2.702-5.529v-68.239h-51.018v68.239c0 2.16-.998 4.202-2.702 5.529l-38.56 30.002c-1.264.979-2.781 1.478-4.297 1.478-1.518 0-3.035-.499-4.299-1.478l-38.559-30.002c-1.704-1.327-2.701-3.369-2.701-5.529v-68.239h-52.304c-3.866 0-7.001-3.129-7.001-7.002v-63.289c0-3.859 3.136-7.002 7.001-7.002h52.303v-128.927h-52.303c-3.866 0-7.001-3.134-7.001-7.002v-63.289c0-3.868 3.136-7.002 7.001-7.002h52.303v-68.239c0-2.16.996-4.202 2.701-5.524l38.559-30.003c2.529-1.967 6.069-1.967 8.596 0l38.56 29.998c1.704 1.327 2.702 3.369 2.702 5.529v68.239h51.018v-68.239c0-2.16.998-4.202 2.702-5.529l38.559-29.998c2.529-1.967 6.07-1.967 8.597 0l38.559 29.998c1.704 1.327 2.702 3.369 2.702 5.529v68.239h51.018v-68.239c0-2.16.998-4.202 2.702-5.529l38.562-29.998c2.527-1.967 6.067-1.967 8.595 0l38.56 29.998c1.704 1.327 2.702 3.369 2.702 5.529v68.239h52.304c3.863 0 6.997 3.134 6.997 7.002v63.289c0 3.868-3.134 7.002-6.997 7.002zm-45.559 114.909c-3.865 0-7-3.139-7-7.002v-86.883c0-3.868 3.134-7.002 7-7.002s6.999 3.134 6.999 7.002v86.883c.001 3.863-3.133 7.002-6.999 7.002zm-142.138 0c-3.866 0-6.999-3.139-6.999-7.002v-86.883c0-3.868 3.134-7.002 6.999-7.002s7 3.134 7 7.002v86.883c0 3.863-3.134 7.002-7 7.002zm-142.137 0c-3.866 0-7-3.139-7-7.002v-86.883c0-3.868 3.134-7.002 7-7.002 3.865 0 7 3.134 7 7.002v86.883c-.001 3.863-3.135 7.002-7 7.002zm142.137 43.47c5.079 0 9.196 4.122 9.196 9.199 0 5.082-4.117 9.19-9.196 9.19s-9.196-4.108-9.196-9.19c0-5.077 4.118-9.199 9.196-9.199zm142.138-206.225c5.079 0 9.196 4.117 9.196 9.199 0 5.077-4.117 9.195-9.196 9.195s-9.196-4.117-9.196-9.195c0-5.081 4.117-9.199 9.196-9.199zm-142.138 0c5.079 0 9.196 4.117 9.196 9.199 0 5.077-4.117 9.195-9.196 9.195s-9.196-4.117-9.196-9.195c0-5.081 4.118-9.199 9.196-9.199zm142.138 206.225c5.079 0 9.196 4.122 9.196 9.199 0 5.082-4.117 9.19-9.196 9.19s-9.196-4.108-9.196-9.19c0-5.077 4.117-9.199 9.196-9.199zm-284.275-206.225c5.078 0 9.194 4.117 9.194 9.199 0 5.077-4.116 9.195-9.194 9.195-5.079 0-9.196-4.117-9.196-9.195 0-5.081 4.117-9.199 9.196-9.199zm9.194 215.424c0 5.082-4.116 9.19-9.194 9.19-5.079 0-9.196-4.108-9.196-9.19 0-5.077 4.117-9.199 9.196-9.199 5.078 0 9.194 4.122 9.194 9.199z"/></g></svg>