<svg id="Capa_1" enable-background="new 0 0 512 512" height="512" viewBox="0 0 512 512" width="512" xmlns="http://www.w3.org/2000/svg"><g><g><path d="m470.242 202.716h-428.509c-18.828 0-34.233-15.405-34.233-34.233 0-18.828 15.405-34.233 34.233-34.233h428.509c18.828 0 34.233 15.405 34.233 34.233 0 18.828-15.405 34.233-34.233 34.233z" fill="#d97c41"/></g><g><path d="m470.254 340.705h-428.508c-18.828 0-34.233-15.405-34.233-34.233 0-18.828 15.405-34.233 34.233-34.233h428.509c18.828 0 34.233 15.405 34.233 34.233 0 18.828-15.405 34.233-34.234 34.233z" fill="#d97c41"/></g><g><path d="m53.648 41.938 33.684-29.498c7.542-6.605 18.809-6.605 26.352-.001l33.688 29.499c6.505 5.697 10.237 13.923 10.237 22.57v364.481h-114.196v-364.482c0-8.647 3.731-16.873 10.235-22.569z" fill="#e4996d"/></g><g><path d="m103.648 41.938 21.86-19.144-11.825-10.355c-7.543-6.605-18.81-6.604-26.352.001l-33.683 29.498c-6.505 5.697-10.235 13.923-10.235 22.569v364.482h50v-364.482c0-8.647 3.731-16.873 10.235-22.569z" fill="#df8a57"/></g><g><path d="m209.138 41.938 33.683-29.498c7.542-6.605 18.809-6.605 26.352-.001l33.688 29.499c6.505 5.697 10.237 13.923 10.237 22.57v364.481h-114.195v-364.482c0-8.647 3.73-16.873 10.235-22.569z" fill="#e4996d"/></g><g><path d="m259.138 41.938 21.86-19.144-11.825-10.355c-7.543-6.605-18.81-6.604-26.352.001l-33.683 29.498c-6.505 5.697-10.235 13.923-10.235 22.569v364.482h50v-364.482c0-8.647 3.73-16.873 10.235-22.569z" fill="#df8a57"/></g><g><path d="m364.628 41.938 33.683-29.498c7.542-6.605 18.809-6.605 26.352-.001l33.688 29.499c6.505 5.697 10.237 13.923 10.237 22.57v364.481h-114.196v-364.482c0-8.647 3.731-16.873 10.236-22.569z" fill="#e4996d"/></g><g><path d="m414.628 41.938 21.86-19.144-11.825-10.355c-7.543-6.605-18.81-6.604-26.352.001l-33.683 29.498c-6.505 5.697-10.235 13.923-10.235 22.569v364.482h50v-364.482c-.001-8.647 3.73-16.873 10.235-22.569z" fill="#df8a57"/></g><g><path d="m504.5 438.995c-2.086-23.593-22.088-42.096-46.233-42.096-17.412 0-32.568 9.625-40.454 23.839-7.885-14.213-23.042-23.839-40.453-23.839-17.412 0-32.568 9.625-40.453 23.839-7.885-14.213-23.042-23.839-40.453-23.839s-32.568 9.625-40.453 23.839c-7.885-14.213-23.042-23.839-40.453-23.839s-32.568 9.625-40.453 23.839c-7.885-14.213-23.042-23.839-40.453-23.839-17.412 0-32.568 9.625-40.454 23.839-7.885-14.213-23.042-23.839-40.453-23.839-24.144 0-44.148 18.503-46.233 42.096v18.831 17.331c0 16.131 13.198 29.329 29.329 29.329h438.341c16.131 0 29.329-13.198 29.329-29.329v-17.331-18.831z" fill="#8dd470"/></g><g><path d="m131.684 475.157v-36.162c1.411-15.958 11.024-29.577 24.566-36.728-6.45-3.419-13.799-5.369-21.61-5.369-17.412 0-32.568 9.625-40.454 23.839-7.885-14.213-23.042-23.839-40.453-23.839-24.144 0-44.148 18.503-46.233 42.096v36.162c0 16.131 13.198 29.329 29.329 29.329h124.184c-16.131.001-29.329-13.197-29.329-29.328z" fill="#7dce5c"/></g><g><path d="m511.971 438.334c-1.882-21.284-16.5-38.984-35.884-45.858v-44.687c20.259-2.847 35.901-20.285 35.901-41.317s-15.642-38.47-35.901-41.317v-55.356c20.253-2.852 35.888-20.288 35.888-41.316s-15.635-38.464-35.888-41.316v-62.659c0-10.809-4.664-21.092-12.796-28.213l-33.687-29.498c-10.329-9.044-25.906-9.043-36.234.001l-33.684 29.498c-8.131 7.121-12.794 17.403-12.794 28.211v62.243h-26.295v-62.242c0-10.809-4.664-21.092-12.795-28.213l-33.688-29.498c-10.33-9.044-25.907-9.043-36.234.001l-33.683 29.498c-8.131 7.121-12.794 17.403-12.794 28.211v62.243h-26.295v-62.242c0-10.809-4.664-21.091-12.796-28.213l-33.687-29.498c-10.329-9.044-25.906-9.044-36.235.001l-33.682 29.497c-8.131 7.121-12.794 17.403-12.794 28.211v62.657c-20.266 2.843-35.914 20.284-35.914 41.32s15.648 38.477 35.913 41.319v55.353c-20.259 2.847-35.901 20.285-35.901 41.317s15.642 38.47 35.901 41.317v44.687c-19.384 6.874-34.002 24.574-35.884 45.858-.019.22-.029.44-.029.661v36.162c0 20.308 16.521 36.829 36.829 36.829h438.342c20.308 0 36.829-16.521 36.829-36.829v-36.162c0-.221-.01-.441-.029-.661zm-14.983-131.862c0 12.737-8.957 23.415-20.901 26.085v-52.169c11.944 2.668 20.901 13.347 20.901 26.084zm-.013-137.989c0 12.733-8.95 23.408-20.888 26.082v-52.164c11.938 2.674 20.888 13.349 20.888 26.082zm-127.406-120.903 33.683-29.498c4.695-4.112 11.776-4.111 16.47 0l33.688 29.498c4.879 4.272 7.678 10.442 7.678 16.928v324.97c-.935-.049-1.875-.08-2.82-.08-15.665 0-30.361 6.837-40.454 18.369-10.092-11.532-24.788-18.369-40.453-18.369-5.317 0-10.516.805-15.468 2.297v-327.188c-.001-6.485 2.797-12.654 7.676-16.927zm-48.972 232.158h26.295v53.467h-26.295zm26.295-15h-26.295v-54.522h26.295zm-26.295 83.467h26.295v50.694c-3.66 2.52-7.025 5.485-9.985 8.868-4.594-5.25-10.15-9.513-16.31-12.615zm26.295-206.455v53.467h-26.295v-53.467zm-132.812-94.17 33.683-29.498c4.694-4.11 11.775-4.111 16.47 0l33.687 29.498c4.879 4.273 7.677 10.443 7.677 16.928v325.685c-2.992-.518-6.048-.795-9.144-.795-15.665 0-30.361 6.837-40.454 18.369-10.092-11.532-24.788-18.369-40.453-18.369-3.096 0-6.152.277-9.144.795v-325.686c.001-6.485 2.799-12.654 7.678-16.927zm-48.972 232.158h26.295v53.467h-26.295zm26.295-15h-26.295v-54.522h26.295zm-26.295 83.467h26.295v46.948c-6.16 3.102-11.715 7.365-16.31 12.615-2.96-3.382-6.325-6.347-9.985-8.868zm26.295-206.455v53.467h-26.295v-53.467zm-176.403 26.733c0-12.741 8.963-23.423 20.913-26.088v52.175c-11.95-2.664-20.913-13.346-20.913-26.087zm.012 137.989c0-12.737 8.957-23.415 20.901-26.085v52.169c-11.944-2.669-20.901-13.347-20.901-26.084zm35.901-241.965c0-6.485 2.798-12.654 7.677-16.927l33.683-29.498c4.695-4.11 11.775-4.112 16.47 0l33.687 29.498c4.879 4.272 7.678 10.443 7.678 16.928v327.187c-4.952-1.492-10.151-2.297-15.468-2.297-15.665 0-30.361 6.837-40.454 18.369-10.092-11.532-24.789-18.369-40.454-18.369-.945 0-1.885.03-2.82.08v-324.971zm446.087 410.65c0 12.037-9.792 21.829-21.829 21.829h-438.342c-12.037 0-21.829-9.792-21.829-21.829v-35.817c1.899-19.619 18.851-34.941 38.733-34.941 14.071 0 27.059 7.655 33.895 19.977 1.322 2.383 3.833 3.862 6.559 3.862s5.236-1.479 6.558-3.862c6.836-12.322 19.824-19.977 33.896-19.977 14.071 0 27.059 7.655 33.895 19.977 1.322 2.383 3.833 3.862 6.558 3.862s5.236-1.479 6.558-3.862c6.836-12.322 19.824-19.977 33.896-19.977 14.071 0 27.059 7.655 33.895 19.977 1.322 2.383 3.833 3.862 6.558 3.862s5.236-1.479 6.558-3.862c6.836-12.322 19.824-19.977 33.896-19.977s27.059 7.655 33.895 19.977c1.322 2.383 3.833 3.862 6.558 3.862 2.726 0 5.236-1.479 6.558-3.862 6.836-12.322 19.824-19.977 33.896-19.977 14.071 0 27.059 7.655 33.895 19.977 1.322 2.383 3.833 3.862 6.558 3.862s5.236-1.479 6.559-3.862c6.836-12.322 19.824-19.977 33.895-19.977 19.882 0 36.833 15.322 38.733 34.942v35.816z"/><path d="m76.976 175.982c4.142 0 7.499-3.357 7.499-7.499s-3.357-7.499-7.499-7.499c-4.141 0-7.499 3.357-7.499 7.499 0 4.141 3.357 7.499 7.499 7.499z"/><path d="m124.317 175.982c4.142 0 7.499-3.357 7.499-7.499s-3.357-7.499-7.499-7.499-7.499 3.357-7.499 7.499c0 4.141 3.357 7.499 7.499 7.499z"/><path d="m76.704 317.424c4.142 0 7.499-3.357 7.499-7.499 0-4.141-3.357-7.499-7.499-7.499s-7.499 3.357-7.499 7.499c0 4.141 3.357 7.499 7.499 7.499z"/><path d="m124.045 317.424c4.142 0 7.499-3.357 7.499-7.499 0-4.141-3.357-7.499-7.499-7.499-4.141 0-7.499 3.357-7.499 7.499 0 4.141 3.358 7.499 7.499 7.499z"/><ellipse cx="232.465" cy="163.252" rx="7.499" ry="7.499" transform="matrix(.383 -.924 .924 .383 -7.321 315.548)"/><circle cx="279.807" cy="163.252" r="7.499"/><path d="m232.193 312.193c4.142 0 7.499-3.357 7.499-7.499s-3.357-7.499-7.499-7.499-7.499 3.357-7.499 7.499c.001 4.142 3.358 7.499 7.499 7.499z"/><path d="m279.535 312.193c4.141 0 7.499-3.357 7.499-7.499s-3.357-7.499-7.499-7.499-7.499 3.357-7.499 7.499 3.357 7.499 7.499 7.499z"/><path d="m387.955 175.982c4.142 0 7.499-3.357 7.499-7.499s-3.357-7.499-7.499-7.499-7.499 3.357-7.499 7.499c0 4.141 3.357 7.499 7.499 7.499z"/><path d="m435.296 175.982c4.141 0 7.499-3.357 7.499-7.499s-3.357-7.499-7.499-7.499-7.499 3.357-7.499 7.499c0 4.141 3.358 7.499 7.499 7.499z"/><path d="m387.683 317.424c4.142 0 7.499-3.357 7.499-7.499 0-4.141-3.357-7.499-7.499-7.499-4.141 0-7.499 3.357-7.499 7.499 0 4.141 3.358 7.499 7.499 7.499z"/><path d="m435.024 317.424c4.142 0 7.499-3.357 7.499-7.499 0-4.141-3.357-7.499-7.499-7.499s-7.499 3.357-7.499 7.499c0 4.141 3.358 7.499 7.499 7.499z"/></g></g></svg>