<svg height="512" viewBox="0 0 60 60" width="512" xmlns="http://www.w3.org/2000/svg"><g id="Page-1" fill="none" fill-rule="evenodd"><g id="031---Shark-Fin" transform="translate(0 -1)"><g id="Icons_copy" transform="translate(1 1)"><path id="Path" d="m58 46.42v11.58c0 .5522847-.4477153 1-1 1h-56c-.55228475 0-1-.4477153-1-1v-11.58c.00157151-.2799248.11711887-.547128.32-.74l2.87-2.66c1.18128684-1.0897863 2.91452898-1.3328386 4.35-.61.3163992.1628094.60909981.3680363.87.61l.58.54c1.4703997 1.3698242 3.7496003 1.3698242 5.22 0l.58-.54c1.4742031-1.3601273 3.7457969-1.3601273 5.22 0l.58.54c1.4703997 1.3698242 3.7496003 1.3698242 5.22 0l.58-.54c1.4742031-1.3601273 3.7457969-1.3601273 5.22 0l.58.54c1.4703997 1.3698242 3.7496003 1.3698242 5.22 0l.58-.54c1.4742031-1.3601273 3.7457969-1.3601273 5.22 0l.58.54c1.4703997 1.3698242 3.7496003 1.3698242 5.22 0l.58-.54c.579131-.5399602 1.3141654-.8829762 2.1-.98 1.1341153-.1550715 2.2782419.2043016 3.12.98l2.87 2.66c.2028811.192872.3184285.4600752.32.74z" fill="#00bcd4"/><path id="Path" d="m55 43v15c0 .5522847-.4477153 1-1 1h3c.5522847 0 1-.4477153 1-1v-11.58c-.0015715-.2799248-.1171189-.547128-.32-.74z" fill="#00838f"/><path id="Path" d="m51.69 42.04c-.7858346.0970238-1.520869.4400398-2.1.98l-.58.54c-1.4703997 1.3698242-3.7496003 1.3698242-5.22 0l-.58-.54c-1.4742031-1.3601273-3.7457969-1.3601273-5.22 0l-.58.54c-1.4703997 1.3698242-3.7496003 1.3698242-5.22 0l-.58-.54c-1.4742031-1.3601273-3.7457969-1.3601273-5.22 0l-.58.54c-1.4703997 1.3698242-3.7496003 1.3698242-5.22 0l-.58-.54c-1.4742031-1.3601273-3.7457969-1.3601273-5.22 0l-.58.54c-1.4703997 1.3698242-3.7496003 1.3698242-5.22 0l-.58-.54c-.26090019-.2419637-.5536008-.4471906-.87-.61 6.74-18.19 2.32-32.27-.58-38.59-.31336914-.69411649-.2053303-1.50596679.27866022-2.09397282s1.25992624-.85010727 2.00133978-.67602718c33.95 7.73 41.04 30.08 42.45 40.99z" fill="#7f8e94"/><path id="Path" d="m49.01 43.56.58-.54c.579131-.5399602 1.3141654-.8829762 2.1-.98-1.41-10.91-8.5-33.26-42.45-40.99-.56948513-.13415162-1.1691523-.01129298-1.64.336 33.793 8.266 40.11 31.282 41.205 41.635z" fill="#545c60"/></g><g id="Icons" fill="#000"><path id="Shape" d="m56.491 43.291c-.805985-.73915-1.8406295-1.1802501-2.932-1.25-1.559-10.376-8.922-33.185-43.096-40.966-1.1249794-.26246032-2.30084003.14296865-3.025 1.043-.71703677.87917618-.86742806 2.0912445-.387 3.119 2.958 6.446 6.935 19.73.873 36.918-1.56932667-.3800413-3.22487656.0458429-4.416 1.136l-2.868 2.66c-.40797256.3783644-.63988197.9095818-.64 1.466v11.583c0 1.1045695.8954305 2 2 2h56c1.1045695 0 2-.8954305 2-2v-11.583c-.000118-.5564182-.2320274-1.0876356-.64-1.466zm-47.624-38.891c-.16298022-.33608205-.11366064-.73651008.126-1.023.24440231-.30627998.64415282-.44317016 1.025-.351 31.925 7.268 39.782 27.344 41.556 39.274-.6172277.2142634-1.1839174.5529159-1.665.995l-.577.535c-1.0923443 1.004001-2.7716557 1.004001-3.864 0l-.576-.535c-1.8610012-1.7104874-4.7219988-1.7104874-6.583 0l-.578.535c-1.09164 1.0048225-2.77136 1.0048225-3.863 0l-.576-.535c-1.8611463-1.7111003-4.7228537-1.7111003-6.584 0l-.577.535c-1.09164 1.0048225-2.77136 1.0048225-3.863 0l-.577-.535c-1.8608149-1.7109652-4.7221851-1.7109652-6.583 0l-.576.534c-1.0919714 1.0049573-2.7720286 1.0049573-3.864 0l-.577-.535c-.11-.1-.235-.179-.353-.269 6.4-17.951 2.227-31.874-.871-38.625zm-6.867 43.017 2.868-2.659c1.09178452-1.0054363 2.77221548-1.0054363 3.864 0l.576.534c1.8607734 1.7120566 4.7232266 1.7120566 6.584 0l.576-.534c1.0923443-1.004001 2.7716557-1.004001 3.864 0l.576.534c1.8604419 1.7119218 4.7225581 1.7119218 6.583 0l.577-.534c1.0917845-1.0054363 2.7722155-1.0054363 3.864 0l.576.534c1.8604419 1.7119218 4.7225581 1.7119218 6.583 0l.577-.534c1.0919714-1.0049573 2.7720286-1.0049573 3.864 0l.576.535c1.8606285 1.7114433 4.7223715 1.7114433 6.583 0l.577-.534c1.091453-1.0053016 2.771547-1.0053016 3.863 0l2.869 2.658v5.273l-1.509-1.4c-1.8606699-1.7103523-4.7213301-1.7103523-6.582 0l-.577.535c-1.0923443 1.004001-2.7716557 1.004001-3.864 0l-.576-.535c-1.8610012-1.7104874-4.7219988-1.7104874-6.583 0l-.578.535c-1.091453 1.0053016-2.771547 1.0053016-3.863 0l-.576-.535c-1.8611463-1.7111003-4.7228537-1.7111003-6.584 0l-.577.535c-1.091453 1.0053016-2.771547 1.0053016-3.863 0l-.577-.535c-1.8608149-1.7109652-4.7221851-1.7109652-6.583 0l-.576.534c-1.0917845 1.0054363-2.7722155 1.0054363-3.864 0l-.577-.535c-1.8610012-1.7104874-4.7219988-1.7104874-6.583 0l-1.508 1.401v-5.273l-.68-.733zm0 11.583v-3.582l2.868-2.659c1.09197143-1.0049573 2.77202857-1.0049573 3.864 0l.576.534c1.8607734 1.7120566 4.7232266 1.7120566 6.584 0l.576-.534c1.0925304-1.0035236 2.7714696-1.0035236 3.864 0l.576.534c1.8606285 1.7114433 4.7223715 1.7114433 6.583 0l.577-.534c1.0919714-1.0049573 2.7720286-1.0049573 3.864 0l.576.534c1.8606285 1.7114433 4.7223715 1.7114433 6.583 0l.577-.534c1.0919714-1.0049573 2.7720286-1.0049573 3.864 0l.576.535c1.8604419 1.7119218 4.7225581 1.7119218 6.583 0l.577-.534c1.09164-1.0048225 2.77136-1.0048225 3.863 0l2.869 2.657v3.583z" fill-rule="nonzero"/><path id="Path" d="m21.6 10.927c6.4169988 2.6509063 12.1578505 6.7070914 16.8 11.87.2347235.2693783.5953285.3930706.9459787.3244832s.6380734-.3190344.754-.657c.1159267-.3379657.0427448-.7121049-.1919787-.9814832-4.8362551-5.3872952-10.819036-9.6215103-17.508-12.391-.5067213-.2209139-1.0965861.01077874-1.3175.5175-.2209139.5067213.0107787 1.0965861.5175 1.3175z"/></g></g></g></svg>