<svg id="Layer_1" enable-background="new 0 0 128 128" height="512" viewBox="0 0 128 128" width="512" xmlns="http://www.w3.org/2000/svg"><g><g><path d="m77.7 95.2h-50.3c-2.5 0-4.4-2-4.5-4.4v-4.9c0-2.5 2-4.4 4.5-4.4h24.5c5.7 8.5 15.4 13.7 25.8 13.7z" fill="#f68f54"/><path d="m51.8 81.4h-28.4c-2.5 0-4.4-2-4.5-4.4v-4.9c0-2.5 2-4.4 4.4-4.4h23.4c.6 4.8 2.4 9.6 5.1 13.7z" fill="#f5c464"/><path d="m46.6 64c0 1.2.1 2.4.2 3.6h-14.4c-2.5 0-4.4-2-4.5-4.5v-4.9c0-2.5 2-4.4 4.4-4.5h15.9c-1.1 3.4-1.6 6.8-1.6 10.3z" fill="#f68f54"/><path d="m57.8 40c-4.4 3.6-7.7 8.4-9.5 13.8h-20.9c-2.5 0-4.4-2-4.5-4.4v-4.9c0-2.5 2-4.4 4.4-4.5z" fill="#f5c464"/><path d="m108.9 64c0 12.6-7.6 24-19.2 28.8-15.9 6.6-34.1-.9-40.8-16.8-1.1-2.7-1.8-5.5-2.2-8.4-.1-1.2-.2-2.4-.2-3.6 0-17.2 14-31.2 31.2-31.2s31.2 14 31.2 31.2z" fill="#f05a48"/><path d="m99.5 64c0 12-9.8 21.8-21.8 21.8-11.1 0-20.4-8.3-21.7-19.3-.1-.8-.1-1.7-.1-2.5 0-12 9.8-21.8 21.8-21.8 12.1 0 21.8 9.7 21.8 21.8z" fill="#f68f54"/><path d="m79.1 62.2h-2.5c-1.3 0-2.4-1.1-2.4-2.4v-.7c0-1.3 1.1-2.4 2.4-2.4h5.8c1 0 1.8-.8 1.8-1.8s-.8-1.8-1.8-1.8h-2.8v-1.8c0-1-.8-1.8-1.8-1.8s-1.8.8-1.8 1.8v1.9c-3 .3-5.4 2.8-5.4 5.9v.7c0 3.3 2.7 5.9 5.9 5.9h2.5c1.3 0 2.4 1.1 2.4 2.4v.7c0 1.3-1.1 2.4-2.4 2.4h-5.8c-1 0-1.8.8-1.8 1.8s.8 1.8 1.8 1.8h2.8v1.8c0 1 .8 1.8 1.8 1.8s1.8-.8 1.8-1.8v-1.9c3-.3 5.4-2.8 5.4-5.9v-.7c0-3.2-2.7-5.9-5.9-5.9z" fill="#250a66"/></g><g fill="#250a66"><path d="m77.8 31.1c-7.5 0-14.7 2.5-20.5 7.2h-29.8c-3.4 0-6.2 2.8-6.2 6.2v4.9c0 3.2 2.4 5.9 5.6 6.2-.4.8-.6 1.8-.6 2.7v4.9c0 .9.2 1.9.6 2.7h-3.4c-3.4 0-6.2 2.8-6.2 6.2v4.9c0 2.8 2 5.3 4.7 6-.5.9-.7 1.9-.7 2.9v4.9c0 3.4 2.8 6.2 6.2 6.2h50.4c6 0 11.8-1.6 16.9-4.7.8-.5 1.1-1.6.5-2.4-.5-.8-1.5-1-2.3-.6-13.4 8.1-30.8 4.2-39.6-8.8-2.6-3.9-4.3-8.3-4.8-13-.1-1.1-.2-2.3-.2-3.4 0-16.3 13.2-29.4 29.4-29.4 16.3 0 29.4 13.2 29.4 29.5 0 1.5-.1 3-.3 4.4-.1 1 .5 1.8 1.5 2 .9.1 1.8-.5 2-1.4 2.8-18-9.6-34.8-27.5-37.6-1.7-.4-3.4-.5-5.1-.5zm-53 18.3v-4.9c0-1.5 1.2-2.7 2.7-2.7h26.1c-2.7 3-4.9 6.5-6.4 10.3h-19.7c-1.5 0-2.7-1.2-2.7-2.7zm5 13.8v-4.9c0-1.5 1.2-2.7 2.7-2.7h13.5c-.7 2.8-1.1 5.6-1.1 8.4 0 .6 0 1.2.1 1.8h-12.5c-1.5.1-2.7-1.2-2.7-2.6zm-9 13.7v-4.9c0-1.5 1.2-2.7 2.7-2.7h21.9c.6 3.6 1.8 7.1 3.5 10.3h-25.4c-1.5 0-2.7-1.2-2.7-2.7zm42.3 16.5h-35.6c-1.5 0-2.7-1.2-2.7-2.7v-4.9c0-1.5 1.2-2.7 2.7-2.7h23.5c3.2 4.4 7.3 7.9 12.1 10.3z"/><path d="m105 79.3c-.8-.5-1.9-.3-2.4.5-.4.7-.9 1.4-1.4 2-.6.8-.4 1.9.3 2.5s1.9.4 2.5-.3 1.1-1.5 1.6-2.3.3-1.9-.6-2.4z"/><path d="m85.5 82.5c-2.4 1-5 1.5-7.7 1.5-6.7 0-12.9-3.3-16.7-8.9-.5-.8-1.6-1.1-2.4-.6s-1.1 1.6-.6 2.4c0 0 0 .1.1.1 4.4 6.5 11.7 10.4 19.6 10.4 3.1 0 6.2-.6 9-1.8 12-5 17.7-18.8 12.7-30.8s-18.7-17.6-30.7-12.6c-9.7 4-15.6 14-14.4 24.5.1 1 1 1.6 1.9 1.5 1-.1 1.6-1 1.5-1.9-.3-3 0-6 1-8.9 3.6-10.5 15-16 25.5-12.4s16 15 12.4 25.5c-1.8 5.5-5.9 9.8-11.2 12z"/></g></g></svg>