<svg id="Layer_1" viewBox="0 0 1000 1000" xmlns="http://www.w3.org/2000/svg" data-name="Layer 1"><path d="m183.4 186.44a7.5 7.5 0 0 1 7.5 7.5v7.5h532.46v-7.5a7.5 7.5 0 0 1 7.5-7.5zm85.74 0a7.5 7.5 0 0 1 7.5 7.5v7.5h365v-7.5a7.5 7.5 0 0 1 7.5-7.5zm0 0a7.5 7.5 0 0 1 7.5 7.5v7.5h365v-7.5a7.5 7.5 0 0 1 7.5-7.5zm0 0a7.5 7.5 0 0 1 7.5 7.5v7.5h365v-7.5a7.5 7.5 0 0 1 7.5-7.5zm596.32-71.44h-730.92a42.09 42.09 0 0 0 -42 42v2.4a42.09 42.09 0 0 0 42 42h730.92a42.09 42.09 0 0 0 42-42v-2.4a42.09 42.09 0 0 0 -42-42zm27 44.44a27.07 27.07 0 0 1 -27 27h-730.92a27.07 27.07 0 0 1 -27-27v-2.44a27.07 27.07 0 0 1 27-27h730.92a27.07 27.07 0 0 1 27 27zm-623.36 27a7.5 7.5 0 0 1 7.5 7.5v7.5h365v-7.5a7.5 7.5 0 0 1 7.5-7.5zm0 0a7.5 7.5 0 0 1 7.5 7.5v7.5h365v-7.5a7.5 7.5 0 0 1 7.5-7.5zm0 0a7.5 7.5 0 0 1 7.5 7.5v7.5h365v-7.5a7.5 7.5 0 0 1 7.5-7.5zm-85.74 0a7.5 7.5 0 0 1 7.5 7.5v7.5h532.5v-7.5a7.5 7.5 0 0 1 7.5-7.5z"/><rect fill="#bcaaa4" height="56.48" rx="27.04" width="785" x="107.5" y="129.96"/><path d="m809.1 806.06v-7.5h-532.46v7.5a7.5 7.5 0 0 1 -7.5 7.5h547.46a7.5 7.5 0 0 1 -7.5-7.5zm-85.74 0v-7.5h-386.79v7.5a7.5 7.5 0 0 1 -7.5 7.5h401.79a7.5 7.5 0 0 1 -7.5-7.5zm0 0v-7.5h-386.79v7.5a7.5 7.5 0 0 1 -7.5 7.5h401.79a7.5 7.5 0 0 1 -7.5-7.5zm0 0v-7.5h-386.79v7.5a7.5 7.5 0 0 1 -7.5 7.5h401.79a7.5 7.5 0 0 1 -7.5-7.5zm142.1-7.5h-730.92a42.09 42.09 0 0 0 -42 42v2.44a42.09 42.09 0 0 0 42 42h730.92a42.09 42.09 0 0 0 42-42v-2.4a42.09 42.09 0 0 0 -42-42.04zm27 44.44a27.07 27.07 0 0 1 -27 27h-730.92a27.07 27.07 0 0 1 -27-27v-2.4a27.07 27.07 0 0 1 27-27h730.92a27.07 27.07 0 0 1 27 27zm-169.1-36.94v-7.5h-386.79v7.5a7.5 7.5 0 0 1 -7.5 7.5h401.79a7.5 7.5 0 0 1 -7.5-7.5zm0 0v-7.5h-386.79v7.5a7.5 7.5 0 0 1 -7.5 7.5h401.79a7.5 7.5 0 0 1 -7.5-7.5zm0 0v-7.5h-386.79v7.5a7.5 7.5 0 0 1 -7.5 7.5h401.79a7.5 7.5 0 0 1 -7.5-7.5z"/><rect fill="#bcaaa4" height="56.48" rx="27.04" width="785" x="107.5" y="813.56"/><path d="m190.9 193.94v612.12a7.5 7.5 0 0 1 -15 0v-612.12a7.5 7.5 0 0 1 15 0z"/><path d="m190.9 201.44h70.74v597.12h-70.74z" fill="#bcaaa4"/><path d="m276.64 193.94v612.12a7.5 7.5 0 0 1 -15 0v-612.12a7.5 7.5 0 0 1 15 0z"/><path d="m738.36 193.94v612.12a7.5 7.5 0 0 1 -15 0v-612.12a7.5 7.5 0 1 1 15 0z"/><path d="m738.36 201.44h70.74v597.12h-70.74z" fill="#bcaaa4"/><path d="m824.1 193.94v612.12a7.5 7.5 0 0 1 -15 0v-612.12a7.5 7.5 0 1 1 15 0z"/><path d="m640.12 572.16v233.9a7.5 7.5 0 0 1 -15 0v-233.9a125.12 125.12 0 1 0 -250.24 0v233.9a7.5 7.5 0 0 1 -15 0v-233.9c0-77.27 62.86-140.16 140.12-140.16a140.12 140.12 0 0 1 140.12 140.16z"/><path d="m663.43 572.16v226.4h-23.31v-226.4a140.12 140.12 0 0 0 -140.12-140.16c-77.26 0-140.12 62.86-140.12 140.13v226.4h-23.31v-226.37c0-90.12 73.32-163.44 163.43-163.44a163.42 163.42 0 0 1 163.43 163.44z" fill="#90a4ae"/><path d="m678.43 572.16v233.9a7.5 7.5 0 0 1 -15 0v-233.9a163.42 163.42 0 0 0 -163.43-163.44c-90.11 0-163.43 73.32-163.43 163.44v233.9a7.5 7.5 0 0 1 -15 0v-233.9c0-98.39 80-178.44 178.43-178.44a178.43 178.43 0 0 1 178.43 178.44z"/><path d="m738.36 281.54a7.5 7.5 0 0 1 -7.5 7.5h-461.72a7.5 7.5 0 0 1 0-15h461.72a7.5 7.5 0 0 1 7.5 7.5z"/><path d="m723.36 366.34v432.22h-44.93v-226.4a178.43 178.43 0 0 0 -178.43-178.44c-98.39 0-178.43 80-178.43 178.44v226.4h-44.93v-432.22z" fill="#fffde7"/><path d="m738.36 358.84a7.5 7.5 0 0 1 -7.5 7.5h-461.72a7.5 7.5 0 0 1 0-15h461.72a7.5 7.5 0 0 1 7.5 7.5z"/><path d="m276.64 289.04h66.7v62.3h-66.7z" fill="#ffecb3"/><path d="m276.64 201.44h66.7v72.6h-66.7z" fill="#bdbdbd"/><path d="m358.34 193.94v164.9a7.5 7.5 0 0 1 -15 0v-164.9a7.5 7.5 0 0 1 15 0z"/><path d="m457.78 193.94v164.9a7.5 7.5 0 0 1 -15 0v-164.9a7.5 7.5 0 0 1 15 0z"/><path d="m358.34 289.04h84.44v62.3h-84.44z" fill="#bdbdbd"/><path d="m358.34 201.44h84.44v72.6h-84.44z" fill="#ffecb3"/><path d="m457.78 193.94v164.9a7.5 7.5 0 0 1 -15 0v-164.9a7.5 7.5 0 0 1 15 0z"/><path d="m557.22 193.94v164.9a7.5 7.5 0 0 1 -15 0v-164.9a7.5 7.5 0 0 1 15 0z"/><path d="m457.78 289.04h84.44v62.3h-84.44z" fill="#ffecb3"/><path d="m457.78 201.44h84.44v72.6h-84.44z" fill="#bdbdbd"/><path d="m557.22 193.94v164.9a7.5 7.5 0 0 1 -15 0v-164.9a7.5 7.5 0 0 1 15 0z"/><path d="m557.22 289.04h84.44v62.3h-84.44z" fill="#bdbdbd"/><path d="m656.66 289.04h66.7v62.3h-66.7z" fill="#ffecb3"/><path d="m656.66 201.44h66.7v72.6h-66.7z" fill="#bdbdbd"/><path d="m557.22 201.44h84.44v72.6h-84.44z" fill="#ffecb3"/><path d="m656.66 193.94v164.9a7.5 7.5 0 1 1 -15 0v-164.9a7.5 7.5 0 1 1 15 0z"/><path d="m596.82 700.64c-.3-1.31-7.38-32.18-14.41-45.76-2.35-4.49-7.93-18.36-5.55-28.49a7.5 7.5 0 0 0 -9.45-8.9c-1.24.37-26 8.09-35 33-14-17-27.76-38.49-25.67-48.52a7.5 7.5 0 0 0 -10.64-8.26c-1.95 1-44.94 22.61-55.05 77.38a31.16 31.16 0 0 1 -7.19-13.65 7.5 7.5 0 0 0 -13.55-2.25 145.51 145.51 0 0 0 -16.84 40c-7.91 31-3.27 59.15 13.41 81.37a88.32 88.32 0 0 0 24.29 22.09 92 92 0 0 0 26.88 11.17 138.54 138.54 0 0 0 28.87 3.78h1.47 2.14 3.2a144.7 144.7 0 0 0 54.6-12.2l.12-.05a44.77 44.77 0 0 0 4.9-2.71 77.89 77.89 0 0 0 21.25-19.79c10.63-14.47 21.34-39.73 12.22-78.21zm-16.74 55.89c-8.92 21.82-26.35 30.39-27.77 31.06a129.47 129.47 0 0 1 -51.73 11h-.12c-1.08 0-2.17 0-3.25 0a123.35 123.35 0 0 1 -25.64-3.36 75.25 75.25 0 0 1 -42.67-27.69 68.93 68.93 0 0 1 -9-16c-11.26-28.28-1.41-58.56 6.18-75.25a40.55 40.55 0 0 0 18.33 15 7.51 7.51 0 0 0 9.94-6.47c1.9-23.14 10.56-43.2 25.72-59.62a97.78 97.78 0 0 1 12.93-11.71c2.47 9.08 8.21 19.89 17.32 32.65a276.15 276.15 0 0 0 21 25.78 7.5 7.5 0 0 0 13-4.73c.86-15.87 9.86-25.19 17.34-30.23a77.36 77.36 0 0 0 7.52 24.84c5.09 9.84 11.17 33.78 13.1 42.24 5.3 22.67 2.99 39.82-2.2 52.49z"/><path d="m580.08 756.53c1-9.61.15-20.15-2.55-31.55v-.12c-2.61-11.42-8.35-32.67-12.68-41-.08-.16-.51-1-1.13-2.36a7.5 7.5 0 0 0 -14.23 2c-.19 1.24-.33 2.52-.4 3.82l-1.58 28.68-19.72-21a279.74 279.74 0 0 1 -21.43-26.28 167.22 167.22 0 0 1 -11.36-18.04 7.5 7.5 0 0 0 -12.19-1.48c-13.92 15.44-21.81 34.22-23.64 55.8l-1.31 15.84-15-5.22a37 37 0 0 1 -7.73-4 7.49 7.49 0 0 0 -11.32 4.15c-.5 1.71-1 3.43-1.38 5.11a89.35 89.35 0 0 0 -2.5 30.63c-11.26-28.28-1.41-58.56 6.18-75.25a40.55 40.55 0 0 0 18.33 15 7.51 7.51 0 0 0 9.94-6.47c1.9-23.14 10.56-43.2 25.72-59.62a97.78 97.78 0 0 1 12.9-11.68c2.47 9.08 8.21 19.89 17.32 32.65a276.15 276.15 0 0 0 21 25.78 7.5 7.5 0 0 0 13-4.73c.86-15.87 9.86-25.19 17.34-30.23a77.36 77.36 0 0 0 7.52 24.84c5.09 9.84 11.17 33.78 13.1 42.24 5.3 22.67 2.99 39.82-2.2 52.49z" fill="#f57c00"/><path d="m625.12 572.16v226.4h-61.74a77.89 77.89 0 0 0 21.25-19.79c10.6-14.39 21.31-39.65 12.19-78.13-.3-1.31-7.38-32.18-14.41-45.76-2.35-4.49-7.93-18.36-5.55-28.49a7.5 7.5 0 0 0 -9.45-8.9c-1.24.37-26 8.09-35 33-14-17-27.76-38.49-25.67-48.52a7.5 7.5 0 0 0 -10.64-8.26c-1.95 1-44.94 22.61-55.05 77.38a31.16 31.16 0 0 1 -7.19-13.65 7.5 7.5 0 0 0 -13.55-2.25 145.51 145.51 0 0 0 -16.84 40c-7.91 31-3.27 59.15 13.41 81.37a88.32 88.32 0 0 0 24.29 22.09h-66.29v-226.49a125.12 125.12 0 1 1 250.24 0z" fill="#ffecb3"/><path d="m577.53 725v-.12c-2.61-11.42-8.35-32.67-12.68-41-.08-.16-.51-1-1.13-2.36a7.5 7.5 0 0 0 -14.23 2c-.19 1.24-.33 2.52-.4 3.82l-1.58 28.66-19.72-21a279.74 279.74 0 0 1 -21.43-26.28 167.22 167.22 0 0 1 -11.36-18.04 7.5 7.5 0 0 0 -12.19-1.48c-13.92 15.44-21.81 34.22-23.64 55.8l-1.31 15.84-15-5.22a37 37 0 0 1 -7.73-4 7.49 7.49 0 0 0 -11.32 4.15c-.5 1.71-1 3.43-1.38 5.11a89.35 89.35 0 0 0 -2.5 30.63 65 65 0 0 0 12.83 32.88 67.85 67.85 0 0 0 14.44 14.17 72 72 0 0 0 25.51 11.72 119.31 119.31 0 0 0 24.24 3.23h1.47 2.14 3.2a125.2 125.2 0 0 0 46.3-10.39l.51-.23a47 47 0 0 0 6.62-4.34 58.41 58.41 0 0 0 12.57-13.24 61.2 61.2 0 0 0 10.32-28.79c1-9.6.15-20.14-2.55-31.52zm-77.07 73.58c-1.08 0-2.17 0-3.25 0a104.86 104.86 0 0 1 -21-2.81 55.42 55.42 0 0 1 -31.45-20.32c-9.34-12.44-12.28-28-8.76-46.33.83.35 1.48.59 1.93.75l24.16 8.4a7.51 7.51 0 0 0 9.94-6.47l2.1-25.49a79.2 79.2 0 0 1 13.31-38.74c2 3.2 4.25 6.51 6.73 10a297.33 297.33 0 0 0 22.7 27.84l31.73 33.74a7.5 7.5 0 0 0 12.95-4.73l.52-9.6c.29 1.2.57 2.38.83 3.53v.17c4.72 19.91 2.86 36.2-5.53 48.4a42.72 42.72 0 0 1 -13.56 12.66 109.58 109.58 0 0 1 -43.26 9.08z"/><path d="m557.4 776.82a42.72 42.72 0 0 1 -13.56 12.66 109.58 109.58 0 0 1 -43.26 9.08h-.12c-1.08 0-2.17 0-3.25 0a104.86 104.86 0 0 1 -21-2.81 55.42 55.42 0 0 1 -31.45-20.32c-9.34-12.44-12.28-28-8.76-46.33.83.35 1.48.59 1.93.75l24.16 8.4a7.51 7.51 0 0 0 9.94-6.47l2.1-25.49a79.2 79.2 0 0 1 13.31-38.74c2 3.2 4.25 6.51 6.73 10a297.33 297.33 0 0 0 22.7 27.84l31.73 33.74a7.5 7.5 0 0 0 12.95-4.73l.52-9.6c.29 1.2.57 2.38.83 3.53v.17c4.75 19.83 2.89 36.12-5.5 48.32z" fill="#ffb74d"/></svg>