<svg id="Layer_2" enable-background="new 0 0 64 64" viewBox="0 0 64 64" xmlns="http://www.w3.org/2000/svg"><g><path d="m18.93 15.03h15.86v31.29h-15.86z" fill="#fd6489" transform="matrix(.761 -.649 .649 .761 -13.481 24.768)"/><path d="m23.45 8.83-20.43-6.11 2.81 21.14z" fill="#ffc68d"/><path d="m16.37 30.59 6.37-16.96 2.94 3.45-6.54 17.16z" fill="#ffeba8"/><path d="m26.69 42.69 7.16-16.05 2.89 3.28-7.03 16.31z" fill="#ffeba8"/><path d="m34.33 44.87 11.25 14.26-2.53 2.15-11.05-14.43z" fill="#ffc68d"/><path d="m30.98 48.72c-.28 0-.56-.12-.76-.35l-20.3-23.8c-.36-.42-.31-1.05.11-1.41l12.06-10.29c.2-.17.46-.25.73-.24.26.02.51.15.68.35l20.3 23.8c.17.2.26.46.24.73-.02.26-.15.51-.35.68l-12.06 10.29c-.19.16-.42.24-.65.24zm-18.89-24.69 19 22.28 10.54-8.99-19-22.28z"/><path d="m5.83 24.86c-.12 0-.24-.02-.36-.07-.34-.13-.58-.44-.63-.8l-2.81-21.13c-.04-.34.09-.68.34-.9.26-.22.61-.29.94-.2l20.43 6.1c.35.1.62.39.69.75.08.36-.05.73-.33.97l-17.62 15.04c-.19.16-.42.24-.65.24zm-1.61-20.74 2.36 17.78 14.83-12.64z"/><path d="m19.14 34.84c-.12 0-.24-.02-.36-.07-.52-.2-.77-.77-.58-1.29l6.45-16.87c.2-.52.78-.77 1.29-.58.52.2.77.77.58 1.29l-6.45 16.87c-.15.4-.53.65-.93.65z"/><path d="m29.71 47.23c-.13 0-.26-.03-.39-.08-.51-.22-.75-.8-.53-1.31l6.92-16.32c.22-.51.8-.75 1.31-.53s.75.8.53 1.31l-6.92 16.32c-.16.38-.53.61-.92.61z"/><path d="m52.18 45.41c-.12 0-.24 0-.36-.01-4.9-.31-9.41-7.13-9.6-7.42-.3-.46-.17-1.08.29-1.38s1.08-.17 1.38.29c1.14 1.74 4.82 6.31 8.06 6.52 1.17.08 2.19-.42 3.14-1.53.36-.42.99-.47 1.41-.11s.47.99.11 1.41c-1.28 1.48-2.77 2.23-4.43 2.23z"/><path d="m8.68 17.29c-.14 0-.27-.03-.39-.08s-.23-.12-.32-.22c-.1-.09-.17-.2-.22-.32s-.07-.25-.07-.38c0-.07 0-.13.02-.2.01-.06.03-.12.05-.19.03-.06.06-.11.09-.17.04-.05.08-.1.13-.15.23-.23.58-.34.9-.27.06.01.13.03.19.05.06.03.12.06.17.1.06.03.11.07.15.12.19.19.3.44.3.71 0 .13-.03.26-.08.38s-.12.23-.22.32c-.18.19-.44.3-.7.3z"/><path d="m8.23 13.3c-.5 0-.94-.38-.99-.89l-.44-3.99c-.06-.55.33-1.04.88-1.1.54-.06 1.04.33 1.1.88l.44 3.99c.06.55-.33 1.04-.88 1.1-.03.01-.07.01-.11.01z"/><path d="m25.7 49.24c-.27 0-.52-.1-.71-.29s-.29-.44-.29-.71c0-.26.1-.52.29-.71.37-.37 1.04-.37 1.41 0 .19.19.3.45.3.71s-.11.52-.3.71-.44.29-.7.29z"/><path d="m22.64 45.65c-.28 0-.56-.12-.76-.35l-12.43-14.57c-.36-.42-.31-1.05.11-1.41s1.05-.31 1.41.11l12.43 14.57c.36.42.31 1.05-.11 1.41-.19.16-.42.24-.65.24z"/><path d="m53.62 39.63c-.3 0-.6-.13-.79-.39l-1.8-2.33c-.34-.44-.26-1.07.18-1.4.44-.34 1.06-.26 1.4.18l1.8 2.33c.34.44.26 1.07-.18 1.4-.18.15-.4.21-.61.21z"/><path d="m58.44 40.26c-.14 0-.28-.03-.41-.09-.5-.23-.73-.82-.5-1.32l1.07-2.39c.23-.5.82-.73 1.32-.5s.73.82.5 1.32l-1.07 2.39c-.16.37-.53.59-.91.59z"/><path d="m60.98 45.87c-.12 0-.24-.02-.36-.07l-2.36-.92c-.51-.2-.77-.78-.57-1.29s.78-.77 1.29-.57l2.36.92c.51.2.77.78.57 1.3-.16.39-.53.63-.93.63z"/><path d="m43.05 62.28c-.04 0-.07 0-.11-.01-.27-.03-.52-.17-.69-.39l-11.05-14.42c-.34-.44-.25-1.07.19-1.4s1.07-.25 1.4.19l10.41 13.59 1-.84-10.66-13.5c-.34-.43-.27-1.06.17-1.4.43-.34 1.06-.27 1.4.17l11.26 14.26c.33.42.27 1.04-.14 1.38l-2.54 2.14c-.18.14-.41.23-.64.23z"/><path d="m16.37 31.59c-.12 0-.24-.02-.35-.06-.52-.19-.78-.77-.58-1.29l6.37-16.96c.19-.52.77-.78 1.29-.58.52.19.78.77.58 1.29l-6.37 16.96c-.16.39-.54.64-.94.64z"/><path d="m26.69 43.69c-.14 0-.27-.03-.41-.09-.5-.22-.73-.82-.51-1.32l7.15-16.05c.23-.5.82-.73 1.32-.51s.73.82.51 1.32l-7.14 16.06c-.17.37-.53.59-.92.59z"/></g></svg>