<svg clip-rule="evenodd" fill-rule="evenodd" stroke-linejoin="round" stroke-miterlimit="2" viewBox="0 0 96 96" xmlns="http://www.w3.org/2000/svg"><g><g><path d="m31.983 38.166c.624-5.04 2.138-9.228 5.203-11.933.687-.597 1.607-.849 2.502-.685 12.912 2.346 21.408 8.208 27.268 16.441z" fill="#da9c20"/><path d="m28.052 55.981c2.713 6.124 7.993 12.54 16.263 14.443.963.223 1.973-.045 2.697-.716.725-.671 1.071-1.657.923-2.634-1.131-6.416-3.923-13.135-7.215-18.435z" fill="#b6821b"/><path d="m46.638 47.951c1.647 6.729 6.413 14.565 16.205 18.698.884.374 1.893.3 2.715-.197.821-.497 1.354-1.357 1.433-2.314.289-6.299-1.242-13.363-3.715-19.259z" fill="#b6821b"/><path d="m69.398 40.559c2.94 1.332 6.315 1.315 9.241-.046 3.304-1.536 7.747-3.603 11.075-5.151 1.027-.478 2.235-.34 3.128.357.892.698 1.318 1.837 1.102 2.949-.638 3.363-1.978 6.5-4.388 9.293-.942 1.091-.973 2.699-.074 3.826 1.799 2.353 3.125 5.15 3.98 8.39.29 1.074-.045 2.22-.869 2.968-.824.747-1.997.97-3.038.576-3.502-1.27-8.135-3.023-11.423-4.267-2.561-.969-5.39-.955-7.942.039-7.053 2.78-14.233 4.742-26.954 4.742-15.903 0-29.95-5.78-38.324-10.169-1.792-.954-2.912-2.82-2.912-4.85 0-2.031 1.12-3.897 2.912-4.851 8.374-4.388 22.421-10.168 38.324-10.168 12.245 0 19.356 3.227 26.162 6.362z" fill="#f3ae24"/></g><g><path d="m45.859 64.523c.231.929.429 1.856.593 2.777.07.494-.102.977-.458 1.307-.361.333-.862.467-1.34.356-.001 0-.002 0-.002 0-4.5-1.036-8.045-3.513-10.725-6.525-.55-.618-1.499-.674-2.118-.123-.618.55-.674 1.499-.123 2.117 3.068 3.449 7.139 6.268 12.291 7.454 1.447.335 2.965-.069 4.054-1.077 1.09-1.009 1.609-2.491 1.387-3.959-.002-.012-.004-.024-.006-.036-.176-.999-.391-2.005-.641-3.013-.199-.804-1.013-1.294-1.817-1.095-.803.2-1.294 1.014-1.095 1.817zm19.619-3.756c.057 1.101.064 2.19.017 3.256-.047.483-.311.902-.714 1.146-.41.248-.914.285-1.355.098-2.139-.903-4.026-1.992-5.683-3.212-.667-.492-1.606-.349-2.097.317-.492.667-.349 1.606.317 2.098 1.836 1.352 3.926 2.56 6.296 3.561 1.327.561 2.843.451 4.075-.295 1.233-.746 2.033-2.038 2.152-3.474.001-.018.003-.037.003-.055.054-1.177.048-2.379-.015-3.594-.042-.827-.748-1.464-1.575-1.421-.827.042-1.464.748-1.421 1.575zm-29.57-30.601c.619-1.065 1.365-2.008 2.265-2.803.342-.296.8-.421 1.246-.34h.001c10.399 1.89 17.84 6.122 23.299 12.096.559.611 1.508.654 2.12.095.611-.558.653-1.508.095-2.119-5.858-6.41-13.819-10.995-24.976-13.023-1.344-.245-2.726.133-3.756 1.029-.003.003-.006.005-.009.008-1.142 1.008-2.095 2.199-2.879 3.551-.416.716-.172 1.635.544 2.05.716.416 1.635.172 2.05-.544z"/><path d="m70.02 39.194c-6.967-3.209-14.25-6.497-26.784-6.497-16.19 0-30.495 5.872-39.02 10.339-.003.002-.006.003-.009.005-2.282 1.215-3.707 3.589-3.707 6.175 0 2.585 1.426 4.959 3.708 6.174.002.002.005.003.008.005 8.525 4.468 22.83 10.34 39.02 10.34 12.979 0 20.304-2.009 27.5-4.844 2.206-.86 4.651-.872 6.866-.034 3.291 1.245 7.929 3.001 11.436 4.272 1.564.586 3.325.249 4.563-.873 1.241-1.126 1.747-2.853 1.308-4.471-.905-3.436-2.323-6.407-4.236-8.909-.006-.008-.012-.016-.018-.024-.449-.563-.434-1.366.037-1.911 2.592-3.005 4.04-6.376 4.726-9.994.322-1.659-.316-3.365-1.653-4.41-1.336-1.044-3.146-1.251-4.684-.535l-11.074 5.151c-2.53 1.176-5.446 1.191-7.987.041zm-1.249 2.728c.002.001.005.003.008.004 3.338 1.512 7.17 1.493 10.493-.053l11.075-5.152c.516-.24 1.123-.17 1.571.18s.662.922.554 1.481c-.001.002-.001.004-.001.006-.59 3.109-1.823 6.011-4.051 8.593-1.408 1.632-1.459 4.033-.125 5.724 1.683 2.203 2.917 4.823 3.716 7.855.001.003.002.006.003.01.143.529-.022 1.095-.429 1.464s-.986.478-1.499.284c-.007-.002-.013-.005-.02-.007-3.495-1.268-8.121-3.018-11.403-4.26-2.908-1.101-6.121-1.085-9.018.045-.001 0-.003.001-.005.002-6.908 2.723-13.943 4.637-26.404 4.637-15.612 0-29.399-5.686-37.622-9.995-1.301-.694-2.114-2.049-2.114-3.524 0-1.476.813-2.831 2.114-3.525 8.223-4.309 22.01-9.994 37.622-9.994 11.953 0 18.891 3.165 25.535 6.225z"/><path d="m29.054 62.687c2.281-3.651 3.182-8.052 1.821-13.646-.196-.804-1.008-1.299-1.812-1.103-.805.196-1.299 1.008-1.103 1.812 1.131 4.648.446 8.314-1.45 11.347-.439.702-.225 1.628.477 2.067s1.628.225 2.067-.477z"/><path d="m37.001 41.166c.706 1.251.675 2.36.039 3.366-.443.7-.234 1.627.466 2.069.699.443 1.627.234 2.069-.465 1.219-1.927 1.39-4.051.039-6.445-.407-.721-1.323-.975-2.044-.568s-.976 1.322-.569 2.043z"/><path d="m46.899 42.432c.706 1.25.675 2.359.039 3.366-.443.699-.234 1.627.466 2.069.699.443 1.627.234 2.069-.466 1.219-1.926 1.39-4.05.039-6.444-.407-.721-1.323-.976-2.044-.569s-.976 1.323-.569 2.044z"/><path d="m52.914 52.929c.706 1.251.675 2.36.039 3.366-.443.7-.234 1.627.465 2.07.7.442 1.627.233 2.07-.466 1.219-1.927 1.39-4.051.038-6.445-.407-.72-1.322-.975-2.043-.568s-.976 1.323-.569 2.043z"/><path d="m41.349 55.085c.706 1.25.675 2.359.039 3.365-.443.7-.234 1.627.465 2.07.7.442 1.627.234 2.07-.466 1.219-1.927 1.39-4.05.038-6.444-.407-.721-1.322-.976-2.043-.569s-.976 1.323-.569 2.044z"/><path d="m60.076 45.228c.706 1.251.675 2.36.038 3.366-.442.699-.233 1.627.466 2.069.7.443 1.627.234 2.07-.465 1.218-1.927 1.39-4.051.038-6.445-.407-.721-1.322-.975-2.043-.568s-.976 1.322-.569 2.043z"/><path d="m12.764 46.412v1.962c0 .828.672 1.5 1.5 1.5s1.5-.672 1.5-1.5v-1.962c0-.827-.672-1.5-1.5-1.5s-1.5.673-1.5 1.5z"/></g></g></svg>