<svg id="Capa_1" enable-background="new 0 0 512 512" height="512" viewBox="0 0 512 512" width="512" xmlns="http://www.w3.org/2000/svg"><g><g><path d="m504.5 224.685c0-55.059-17.907-105.934-48.214-147.123-1.958-2.662-.024-6.422 3.281-6.422h20.689c4.463 0 8.081-3.618 8.081-8.081v-16.163c0-4.463-3.618-8.081-8.081-8.081h-448.512c-4.463 0-8.081 3.618-8.081 8.081v16.163c0 4.463 3.618 8.081 8.081 8.081h20.69c3.304 0 5.239 3.761 3.281 6.422-30.308 41.189-48.215 92.064-48.215 147.123 0 92.648 50.708 173.443 125.877 216.175h-10.719c-4.463 0-8.081 3.618-8.081 8.081v16.163c0 4.463 3.618 8.081 8.081 8.081h266.683c4.463 0 8.081-3.618 8.081-8.081v-16.163c0-4.463-3.618-8.081-8.081-8.081h-10.719c75.17-42.732 125.878-123.527 125.878-216.175z" fill="#edf6ff"/></g><g><path d="m504.5 224.685c0-55.059-17.907-105.934-48.214-147.123-1.958-2.662-.024-6.422 3.281-6.422h20.689c4.463 0 8.081-3.618 8.081-8.081v-16.163c0-4.463-3.618-8.081-8.081-8.081h-57.607c13.317 32.132 20.549 67.423 20.22 104.446-1.298 145.99-120.924 264.396-266.92 264.263-39.785-.036-77.521-8.799-111.422-24.454 19.199 23.18 42.521 42.823 68.85 57.79h-10.719c-4.463 0-8.081 3.618-8.081 8.081v16.163c0 4.463 3.618 8.081 8.081 8.081h266.683c4.463 0 8.081-3.618 8.081-8.081v-16.163c0-4.463-3.618-8.081-8.081-8.081h-10.719c75.17-42.732 125.878-123.527 125.878-216.175z" fill="#ddebfd"/></g><g><path d="m76.95 103.465c-24.137 35.492-37.125 77.355-37.125 121.22 0 57.743 22.486 112.028 63.316 152.859 40.831 40.83 95.117 63.316 152.859 63.316s112.028-22.486 152.859-63.316c40.83-40.83 63.316-95.116 63.316-152.859 0-43.865-12.988-85.728-37.125-121.22z" fill="#91dafa"/></g><g><path d="m441.489 113.525c.915 8.981 1.391 18.093 1.391 27.316 0 147.285-119.398 266.683-266.683 266.683-13.723 0-27.196-1.062-40.36-3.064 35.264 23.677 76.735 36.4 120.163 36.4 57.742 0 112.028-22.486 152.859-63.316 40.83-40.83 63.316-95.116 63.316-152.859 0-39.787-10.687-77.927-30.686-111.16z" fill="#75cff9"/></g><g><path d="m97.597 77.575c-7.591 8.165-14.48 16.821-20.647 25.89h358.1c-6.167-9.069-13.055-17.726-20.647-25.89-3.82-4.108-9.185-6.435-14.795-6.435h-287.216c-5.61 0-10.975 2.327-14.795 6.435z" fill="#d3effd"/></g><g><path d="m97.597 77.575c-7.591 8.165-14.48 16.821-20.647 25.89h358.1c-6.167-9.069-13.055-17.726-20.647-25.89-3.82-4.108-9.185-6.435-14.795-6.435h-287.216c-5.61 0-10.975 2.327-14.795 6.435z" fill="#62a4fb"/></g><g><g><path d="m339.338 272.163s-49.498 80.813-131.321 80.813c-44.632 0-80.813-36.181-80.813-80.813s36.181-80.813 80.813-80.813c81.823 0 131.321 80.813 131.321 80.813z" fill="#eab14d"/></g><g><path d="m208.017 352.976c81.823 0 131.321-80.813 131.321-80.813s-13.228-21.592-37.306-42.454c-10.386 11.609-16.232 26.675-16.232 42.454 0 1.946.091 3.88.268 5.798.601 6.501-2.332 12.84-7.552 16.76-21.554 16.184-49.832 29.971-83.63 29.971-26.874 0-50.67-13.129-65.363-33.311 8.625 35.35 40.487 61.595 78.494 61.595z" fill="#e7a52e"/></g><g><path d="m325.077 300.541 59.719 51.424c0-13.3-15.962-13.3-15.962-26.601 0-13.3 15.962-13.3 15.962-26.6 0-13.301-15.962-13.301-15.962-26.602s15.962-13.301 15.962-26.602c0-13.3-15.962-13.3-15.962-26.6s15.962-13.3 15.962-26.601l-59.719 51.424c-8.262 7.114-13.013 17.476-13.013 28.378 0 10.904 4.751 21.266 13.013 28.38z" fill="#f6e266"/></g><g><path d="m384.796 298.764c0-13.301-15.962-13.301-15.962-26.602 0-10.364 9.689-12.654 13.969-19.451-5.578 4.084-11.651 7.967-18.155 11.538-17.754 9.749-35.753 15.58-51.354 17.395 1.906 7.277 5.97 13.891 11.782 18.896l59.719 51.424c0-13.3-15.962-13.3-15.962-26.601.001-13.298 15.963-13.298 15.963-26.599z" fill="#ffd064"/></g><g><path d="m245.497 295.768-49.869-16.623c-1.65-.55-2.763-2.094-2.763-3.833v-6.297c0-1.739 1.113-3.283 2.763-3.833l49.869-16.623c3.925-1.308 7.978 1.613 7.978 5.75v35.71c0 4.136-4.053 7.057-7.978 5.749z" fill="#f6e266"/></g></g><g><path d="m430.2 391.216c-16.258 16.999-34.859 31.508-55.287 43.124-2.959 1.683-4.414 5.146-3.544 8.437s3.848 5.583 7.251 5.583h10.72c.32 0 .58.26.58.58v16.16c0 .325-.255.58-.58.58h-266.68c-.325 0-.58-.255-.58-.58v-16.16c0-.32.261-.58.58-.58h10.72c3.404 0 6.381-2.292 7.251-5.583s-.585-6.755-3.545-8.437c-36.411-20.698-66.976-50.673-88.389-86.683-22.045-37.074-33.697-79.599-33.697-122.977 0-51.762 16.166-101.098 46.748-142.671 2.589-3.514 2.973-8.12 1.002-12.02-1.979-3.916-5.934-6.349-10.32-6.349h-20.69c-.32 0-.58-.26-.58-.58v-16.16c0-.325.255-.58.58-.58h327.14c4.143 0 7.5-3.358 7.5-7.5s-3.357-7.5-7.5-7.5h-327.14c-8.591 0-15.58 6.989-15.58 15.58v16.16c0 8.591 6.989 15.58 15.58 15.58h13.975c-29.931 42.988-45.715 93.333-45.715 146.04 0 46.075 12.381 91.25 35.805 130.643 19.347 32.536 45.729 60.433 76.985 81.57-3.484 2.86-5.71 7.198-5.71 12.046v16.16c0 8.591 6.989 15.58 15.58 15.58h266.68c8.591 0 15.58-6.989 15.58-15.58v-16.16c0-4.848-2.226-9.185-5.708-12.045 15.139-10.233 29.155-22.06 41.828-35.312 2.863-2.993 2.758-7.741-.236-10.604-2.994-2.862-7.742-2.755-10.604.238z"/><path d="m466.285 78.64h13.975c8.591 0 15.58-6.989 15.58-15.58v-16.16c0-8.591-6.989-15.58-15.58-15.58h-86.38c-4.143 0-7.5 3.358-7.5 7.5s3.357 7.5 7.5 7.5h86.38c.325 0 .58.255.58.58v16.16c0 .32-.26.58-.58.58h-20.69c-4.387 0-8.341 2.433-10.32 6.349-1.971 3.9-1.587 8.506.999 12.016 30.585 41.577 46.751 90.913 46.751 142.675 0 50.813-15.626 99.397-45.188 140.5-2.418 3.363-1.653 8.05 1.71 10.468 1.325.953 2.855 1.412 4.373 1.412 2.331 0 4.629-1.084 6.095-3.121 31.408-43.67 48.01-95.283 48.01-149.259 0-52.707-15.781-103.048-45.715-146.04z"/><path d="m50.254 291.792c-3.893 1.417-5.898 5.722-4.48 9.614 11.164 30.655 28.681 58.054 52.062 81.437 42.249 42.249 98.42 65.517 158.164 65.517s115.915-23.268 158.164-65.517c42.242-42.242 65.506-98.413 65.506-158.163.145-56.551-21.41-111.13-59.774-152.211-5.216-5.611-12.61-8.829-20.288-8.829h-287.215c-7.678 0-15.072 3.218-20.287 8.828-38.367 41.084-59.919 95.659-59.776 152.212 0 14.046 1.305 28.108 3.879 41.796.766 4.071 4.695 6.753 8.757 5.984 4.071-.765 6.751-4.686 5.985-8.757-2.403-12.776-3.621-25.905-3.621-39.023 0-40.757 11.616-79.982 33.635-113.71h350.07c22.019 33.728 33.635 72.953 33.635 113.71 0 55.744-21.704 108.147-61.113 147.557-39.415 39.416-91.82 61.123-147.557 61.123s-108.142-21.707-147.557-61.123c-21.823-21.824-38.166-47.381-48.576-75.963-1.417-3.892-5.722-5.899-9.613-4.482zm41.482-195.822c3.604-4.584 7.394-9.03 11.354-13.289 2.388-2.568 5.778-4.042 9.302-4.042h287.215c3.523 0 6.914 1.473 9.303 4.042 3.96 4.259 7.75 8.704 11.354 13.288h-328.528z"/><path d="m381.616 211.422c4.253-3.543 10.68-8.899 10.68-19.062 0-2.932-1.709-5.595-4.374-6.817-2.663-1.221-5.798-.779-8.02 1.134l-58.899 50.718c-23.627-24.517-62.306-53.545-112.986-53.545-48.696 0-88.313 39.617-88.313 88.313s39.617 88.313 88.313 88.313c50.68 0 89.359-29.028 112.986-53.545l58.899 50.718c1.388 1.196 3.132 1.817 4.895 1.817 1.06 0 2.125-.224 3.125-.683 2.665-1.222 4.374-3.885 4.374-6.817 0-10.163-6.427-15.519-10.68-19.062-3.992-3.326-5.282-4.645-5.282-7.539s1.29-4.212 5.282-7.539c4.253-3.543 10.68-8.899 10.68-19.062 0-10.164-6.427-15.519-10.68-19.062-3.992-3.326-5.282-4.645-5.282-7.539s1.29-4.213 5.282-7.539c4.253-3.544 10.68-8.899 10.68-19.062s-6.427-15.519-10.68-19.062c-3.992-3.326-5.282-4.645-5.282-7.539s1.29-4.213 5.282-7.539zm-70.45 84.177c-.219.182-.433.375-.635.585-21.574 22.486-56.872 49.292-102.514 49.292-40.425 0-73.313-32.888-73.313-73.313s32.889-73.313 73.313-73.313c45.642 0 80.939 26.805 102.514 49.292.202.211.416.403.635.585-4.268 6.981-6.602 15.066-6.602 23.436s2.334 16.455 6.602 23.436zm66.13-50.038c0 2.894-1.29 4.213-5.282 7.539-4.253 3.544-10.68 8.899-10.68 19.062s6.427 15.519 10.68 19.062c3.992 3.326 5.282 4.645 5.282 7.539s-1.29 4.212-5.282 7.539c-3.768 3.139-9.241 7.7-10.441 15.767l-31.602-27.212c-6.613-5.695-10.406-13.967-10.406-22.695s3.793-17 10.406-22.695l31.602-27.212c1.2 8.067 6.674 12.628 10.441 15.767 3.992 3.327 5.282 4.645 5.282 7.539z"/><circle cx="160.035" cy="258.525" r="8.081"/><path d="m255.343 243.307c-3.525-2.541-8.09-3.238-12.218-1.864l-25.89 8.63c-1.852-8.7-4.8-17.113-8.808-25.104-1.857-3.702-6.362-5.199-10.067-3.341-3.702 1.857-5.198 6.364-3.341 10.066 3.687 7.349 6.31 15.12 7.864 23.162l-9.626 3.209c-4.721 1.573-7.893 5.973-7.893 10.949v6.297c0 4.977 3.172 9.376 7.891 10.949l9.628 3.209c-1.554 8.042-4.177 15.812-7.864 23.162-1.857 3.702-.361 8.209 3.341 10.066 1.08.542 2.227.798 3.357.798 2.747 0 5.394-1.516 6.71-4.139 4.008-7.991 6.956-16.403 8.808-25.104l25.89 8.63h.001c1.394.465 2.838.692 4.276.692 2.816 0 5.606-.874 7.94-2.557 3.526-2.542 5.632-6.654 5.632-11.001v-35.71c.001-4.345-2.105-8.458-5.631-10.999zm-9.368 44.714-45.609-15.203v-1.311l45.609-15.203z"/><path d="m85.788 208.017c0-3.905-3.166-7.071-7.071-7.071s-7.071 3.166-7.071 7.071 3.166 7.071 7.071 7.071 7.071-3.165 7.071-7.071z"/><ellipse cx="107.506" cy="186.299" rx="7.071" ry="7.071" transform="matrix(.987 -.16 .16 .987 -28.454 19.626)"/><path d="m97.405 235.797c0 3.905 3.166 7.071 7.071 7.071s7.071-3.166 7.071-7.071-3.166-7.071-7.071-7.071-7.071 3.165-7.071 7.071z"/></g></g></svg>