<svg id="Capa_1" enable-background="new 0 0 512 512" height="512" viewBox="0 0 512 512" width="512" xmlns="http://www.w3.org/2000/svg"><g><g><g><path d="m222.227 51.229-7.614-7.614c-47.202-47.202-124.071-48.267-171.436-1.228-47.471 47.143-47.572 123.844-.303 171.113l8.541 8.541c7.861 7.861 20.607 7.861 28.469 0l142.343-142.344c7.861-7.861 7.861-20.607 0-28.468z" fill="#fef1da"/></g><g><path d="m222.227 51.229-7.614-7.614c-29.685-29.685-71.103-41.116-109.538-33.817 23.465 4.43 45.905 15.733 63.989 33.817l7.614 7.614c7.861 7.861 7.861 20.607 0 28.469l-133.804 133.802 8.541 8.541c7.861 7.861 20.607 7.861 28.469 0l142.343-142.344c7.861-7.861 7.861-20.607 0-28.468z" fill="#f4e2c1"/></g><g><path d="m236.726 108.712h32.209v287.864h-32.209z" fill="#fdd79b" transform="matrix(.707 -.707 .707 .707 -104.594 252.776)"/></g><g><path d="m113.334 232.716 119.568-119.568c6.289-6.289 16.486-6.289 22.775 0 6.289 6.289 6.289 16.486 0 22.775l-119.568 119.568c-6.289 6.289-16.486 6.289-22.775 0-6.289-6.289-6.289-16.485 0-22.775z" fill="#fef1da"/></g><g><path d="m144.65 292.501 148.037-148.037c6.289-6.289 16.486-6.289 22.775 0 6.289 6.289 6.289 16.486 0 22.775l-148.037 148.037c-6.289 6.289-16.486 6.289-22.775 0-6.289-6.29-6.289-16.486 0-22.775z" fill="#f4e2c1"/></g><g><path d="m204.434 323.816 119.568-119.568c6.289-6.289 16.486-6.289 22.775 0 6.289 6.289 6.289 16.486 0 22.775l-119.568 119.568c-6.289 6.289-16.486 6.289-22.775 0-6.289-6.289-6.289-16.486 0-22.775z" fill="#fef1da"/></g><g><path d="m264.218 355.132 91.1-91.1c6.289-6.289 16.486-6.289 22.775 0 6.289 6.289 6.289 16.486 0 22.775l-91.1 91.1c-6.289 6.289-16.486 6.289-22.775 0-6.289-6.29-6.289-16.486 0-22.775z" fill="#f4e2c1"/></g><g><path d="m499.796 328.798-10.719-10.719c-4.079-4.079-10.029-5.665-15.597-4.157l-107.486 29.11-22.775 22.775-29.11 107.486c-1.508 5.568.078 11.518 4.157 15.597l10.719 10.719c6.289 6.289 16.486 6.289 22.775 0l14.046-14.046c1.989-1.989 3.422-4.463 4.157-7.178l17.107-63.166c3.74-13.809 14.527-24.596 28.336-28.336l63.166-17.107c2.714-.735 5.189-2.168 7.178-4.157l14.046-14.046c6.289-6.289 6.289-16.486 0-22.775z" fill="#fef1da"/></g><g><path d="m499.796 328.798-10.719-10.719c-1.554-1.554-3.381-2.744-5.354-3.541 2.339 5.808 1.157 12.704-3.55 17.411l-14.046 14.046c-1.989 1.989-4.463 3.422-7.178 4.157l-52.443 14.203c-20.451 5.539-36.426 21.514-41.964 41.964l-14.203 52.443c-.735 2.714-2.168 5.189-4.157 7.178l-14.046 14.046c-4.707 4.707-11.603 5.889-17.411 3.55.797 1.973 1.987 3.8 3.541 5.354l10.719 10.719c6.289 6.289 16.486 6.289 22.775 0l14.046-14.046c1.988-1.988 3.422-4.463 4.157-7.178l17.107-63.166c3.74-13.809 14.527-24.596 28.336-28.336l63.166-17.107c2.714-.735 5.189-2.168 7.178-4.157l14.046-14.046c6.289-6.289 6.289-16.486 0-22.775z" fill="#f4e2c1"/></g></g><g><path d="m505.094 323.487-10.711-10.701c-5.957-5.973-14.716-8.311-22.862-6.104l-27.99 7.58c-3.998 1.083-6.362 5.202-5.279 9.2 1.083 3.999 5.205 6.36 9.201 5.278l27.991-7.58c2.963-.805 6.152.045 8.327 2.227l10.718 10.708c3.357 3.356 3.357 8.818 0 12.173l-14.04 14.04c-1.065 1.066-2.39 1.834-3.838 2.225l-63.161 17.11c-16.316 4.419-29.199 17.297-33.62 33.609l-17.112 63.181c-.391 1.448-1.155 2.773-2.211 3.828l-14.052 14.041c-1.625 1.626-3.785 2.522-6.081 2.522-2.297 0-4.456-.896-6.081-2.522l-10.721-10.721c-2.176-2.175-3.029-5.364-2.225-8.325l28.589-105.565 19.944-19.943 43.791-11.858c3.998-1.083 6.362-5.201 5.279-9.199-1.084-3.999-5.207-6.363-9.199-5.279l-41.524 11.244-13.688-13.688 28.859-28.859c4.457-4.458 6.912-10.386 6.912-16.691 0-6.306-2.455-12.233-6.913-16.69-4.458-4.459-10.385-6.914-16.691-6.914-6.305 0-12.232 2.455-16.691 6.913l-28.859 28.859-12.168-12.168 43.094-43.095c4.46-4.461 6.917-10.39 6.917-16.695 0-6.312-2.46-12.24-6.917-16.683-4.458-4.459-10.387-6.915-16.694-6.915-6.306 0-12.235 2.456-16.694 6.914l-43.09 43.09-12.166-12.166 57.327-57.327c4.458-4.459 6.913-10.386 6.913-16.692 0-6.305-2.455-12.232-6.913-16.691-4.459-4.458-10.386-6.913-16.691-6.913-6.306 0-12.233 2.455-16.692 6.913l-57.327 57.328-12.167-12.167 43.093-43.093c9.203-9.203 9.203-24.179 0-33.383-4.459-4.458-10.387-6.913-16.691-6.913-6.305 0-12.233 2.455-16.69 6.913l-43.094 43.094-11.458-11.458 15.699-15.699c2.929-2.93 2.929-7.678 0-10.608-2.929-2.928-7.678-2.928-10.607 0l-103.563 103.565c-2.385 2.385-5.555 3.698-8.927 3.698s-6.542-1.314-8.927-3.699l-8.54-8.54c-21.45-21.45-33.234-49.969-33.182-80.304.028-16.131 3.403-31.736 9.794-46.029l9.81 9.81c2.495 2.494 3.869 5.812 3.869 9.34v19.874c0 4.143 3.358 7.5 7.5 7.5s7.5-3.358 7.5-7.5v-19.874c0-7.535-2.934-14.62-8.262-19.948l-13.026-13.025c4.576-7.291 10.016-14.114 16.279-20.333 44.16-43.862 116.315-43.32 160.846 1.211l7.607 7.607c4.923 4.93 4.925 12.946.003 17.867l-14.04 14.04c-2.929 2.93-2.929 7.678 0 10.608 2.929 2.928 7.678 2.928 10.607 0l14.04-14.041c10.766-10.767 10.768-28.295 0-39.077l-7.611-7.611c-50.358-50.358-132.014-50.919-182.023-1.247-24.376 24.205-37.834 56.453-37.894 90.801-.06 34.352 13.285 66.648 37.575 90.938l8.54 8.539c5.218 5.219 12.155 8.093 19.534 8.093s14.316-2.874 19.534-8.092l54.482-54.482 11.458 11.458-43.093 43.092c-9.203 9.203-9.203 24.179 0 33.383 4.602 4.602 10.646 6.903 16.691 6.903s12.089-2.301 16.691-6.903l43.093-43.093 12.168 12.167-57.327 57.328c-4.458 4.458-6.913 10.386-6.913 16.691s2.455 12.233 6.913 16.691 10.386 6.913 16.691 6.913 12.233-2.455 16.691-6.913l57.328-57.327 12.166 12.166-43.082 43.083c-4.466 4.451-6.926 10.383-6.926 16.703s2.46 12.251 6.917 16.694c4.459 4.458 10.387 6.914 16.692 6.914 6.308 0 12.235-2.457 16.685-6.914l11.74-11.74c2.929-2.929 2.929-7.678 0-10.607-2.928-2.93-7.677-2.929-10.607-.001l-11.744 11.744c-1.62 1.623-3.777 2.517-6.074 2.517-2.299 0-4.46-.896-6.094-2.53-1.622-1.616-2.515-3.775-2.515-6.077 0-2.303.893-4.461 2.524-6.086l119.564-119.564c1.625-1.626 3.787-2.522 6.086-2.522 2.3 0 4.461.896 6.095 2.529 1.622 1.617 2.516 3.773 2.516 6.069 0 2.298-.896 4.46-2.524 6.087l-83.082 83.083c-2.929 2.93-2.929 7.678 0 10.608 2.929 2.927 7.677 2.929 10.608 0l6.605-6.605 12.168 12.168-28.859 28.859v.001c-9.202 9.203-9.202 24.177 0 33.382 4.602 4.602 10.647 6.903 16.691 6.903 6.045 0 12.09-2.301 16.692-6.903l28.859-28.859 13.687 13.687-27.974 103.294c-2.208 8.132.128 16.891 6.095 22.859l10.721 10.72c4.458 4.459 10.385 6.915 16.689 6.915 6.303 0 12.23-2.456 16.687-6.913l14.052-14.041c2.91-2.911 5.016-6.553 6.086-10.524l17.11-63.171c3.032-11.189 11.869-20.022 23.063-23.053l63.152-17.108c3.971-1.07 7.613-3.179 10.533-6.098l14.04-14.04c9.204-9.207 9.204-24.185-.004-33.393zm-354.821-161.232 12.168-12.168 11.458 11.458-12.168 12.168zm-19.467 87.932c-3.355 3.356-8.814 3.356-12.168 0-3.355-3.355-3.355-8.813 0-12.167l119.569-119.569c1.625-1.625 3.785-2.52 6.083-2.52s4.459.895 6.084 2.521c3.355 3.355 3.355 8.813 0 12.167zm64.307-43.092 12.168-12.168 12.167 12.167-12.167 12.167zm-32.992 102.876c-3.355 3.355-8.814 3.355-12.168 0-1.625-1.624-2.52-3.785-2.52-6.083s.895-4.459 2.52-6.083l85.403-85.403.003-.003s.002-.002.003-.003l62.629-62.629c1.677-1.678 3.88-2.517 6.083-2.517 2.204 0 4.407.839 6.084 2.517 3.356 3.355 3.356 8.813 0 12.167zm78.542-57.327 12.168-12.168 12.166 12.166-12.167 12.167zm45.55 45.55 12.168-12.168 12.168 12.168-12.168 12.167zm-4.524 74.409c-1.625 1.626-3.785 2.521-6.084 2.521-2.298 0-4.458-.895-6.083-2.52-3.355-3.356-3.355-8.814 0-12.169v.001l34.157-34.157c.002-.002.004-.004.006-.006s.004-.004.006-.006l56.932-56.931c1.625-1.626 3.785-2.521 6.084-2.521 2.298 0 4.458.895 6.083 2.521 1.625 1.624 2.52 3.785 2.52 6.083s-.895 4.459-2.52 6.083l-56.928 56.928c-.003.003-.007.006-.01.009s-.006.007-.009.01zm62.241-41.026 11.454 11.454-12.167 12.167-11.454-11.454z"/><path d="m132.013 98.422c4.142 0 7.5-3.358 7.5-7.5v-2.565h2.565c4.142 0 7.5-3.358 7.5-7.5 0-4.143-3.358-7.5-7.5-7.5h-2.565v-2.566c0-4.143-3.358-7.5-7.5-7.5s-7.5 3.358-7.5 7.5v2.566h-2.565c-4.142 0-7.5 3.358-7.5 7.5 0 4.143 3.358 7.5 7.5 7.5h2.565v2.565c0 4.142 3.358 7.5 7.5 7.5z"/></g></g></svg>