<svg id="Layer_1" viewBox="0 0 1000 1000" xmlns="http://www.w3.org/2000/svg" data-name="Layer 1"><path d="m203.78 405.42a15.9 15.9 0 0 0 0 6.82v175.11h-19.11v-279.29a9.56 9.56 0 0 1 9.55-9.55 9.56 9.56 0 0 1 9.55 9.55z" fill="#8d6e63"/><path d="m214.92 751.26v.41s0 .28 0 .41v131.92h-41.39v-264.65h41.39z" fill="#8d6e63"/><path d="m815.33 308.06v279.29h-19.11v-279.29a9.56 9.56 0 0 1 9.55-9.55 9.56 9.56 0 0 1 9.56 9.55z" fill="#8d6e63"/><path d="m785.08 619.35h41.39v264.65h-41.39z" fill="#8d6e63"/><path d="m646.15 455.91a81.68 81.68 0 0 1 -15-14.51 25 25 0 0 0 -31.83-6c-15 8.5-66.41 36.31-97.58 37a23.3 23.3 0 0 0 -22.08 28.82l.15.63a268.31 268.31 0 0 1 -34.11-8.19c12.24-17.68 26.84-46.91 25.75-84.81 1.09-37.9-13.5-67.13-25.74-84.81a269.12 269.12 0 0 1 34.1-8.15l-.15.63a23.29 23.29 0 0 0 22.08 28.81c31.17.68 82.57 28.48 97.58 37a25 25 0 0 0 31.83-6 81.68 81.68 0 0 1 15-14.51c-5.57 20.67-5.18 41.55-5 47.08-.15 5.46-.57 26.34 5 47.01z" fill="#757575"/><path d="m439.44 408.29c1.13-34.9-15.11-60.43-24.67-72.35-36.11 17-62.13 41.44-77.56 72.89 17.79 36.17 47.91 58.76 77.51 72.79 9.57-12.05 25.84-37.78 24.72-72.3-.01-.32-.01-.69 0-1.03zm-58.21 16.54a16 16 0 1 1 16-16 16 16 0 0 1 -16.02 16z" fill="#bdbdbd"/><path d="m574.46 748.65a15.25 15.25 0 0 0 -.22 1.51 61.49 61.49 0 0 1 -7.08 21.4 58.49 58.49 0 0 0 -3.23 6.43 44.42 44.42 0 0 1 -9.69 13.43c-11.52 11.52-27.45 19-44.85 21.13-24.75 3-39.87-4.33-41.3-5.06-.35-.2-.46-.24-.87-.44-21.72-10.28-32.32-28.54-35.05-33.9-.92-1.8-1.85-3.47-2.74-5.1l-.46-.83c-13.72-24.9 10.61-63.38 21.7-78.77a163.88 163.88 0 0 1 17.42-20.08c15-14.93 24.62-32.66 30.61-47 29.05 36 22 67.77 21.44 70.21a15.64 15.64 0 0 0 2.56 13.91 15.93 15.93 0 0 0 12.88 6.29c10.71 0 21.29-7.31 29.87-15.66a109.25 109.25 0 0 1 6.72 18.88 89.31 89.31 0 0 1 2.29 33.65z" fill="#fbc02d"/><g fill="#fff" opacity=".5"><path d="m193.78 415.42a15.9 15.9 0 0 0 0 6.82v175.11h-19.11v-279.29a9.56 9.56 0 0 1 9.55-9.55 9.56 9.56 0 0 1 9.55 9.55z"/><path d="m204.92 761.26v.41s0 .28 0 .41v131.92h-41.39v-264.65h41.39z"/><path d="m805.33 318.06v279.29h-19.11v-279.29a9.56 9.56 0 0 1 9.55-9.55 9.56 9.56 0 0 1 9.56 9.55z"/><path d="m775.08 629.35h41.39v264.65h-41.39z"/><path d="m636.15 465.91a81.68 81.68 0 0 1 -15-14.51 25 25 0 0 0 -31.83-6c-15 8.5-66.41 36.31-97.58 37a23.3 23.3 0 0 0 -22.08 28.82l.15.63a268.31 268.31 0 0 1 -34.11-8.19c12.24-17.68 26.84-46.91 25.75-84.81 1.09-37.9-13.5-67.13-25.74-84.81a269.12 269.12 0 0 1 34.1-8.15l-.15.63a23.29 23.29 0 0 0 22.08 28.81c31.17.68 82.57 28.48 97.58 37a25 25 0 0 0 31.83-6 81.68 81.68 0 0 1 15-14.51c-5.57 20.67-5.18 41.55-5 47.08-.15 5.46-.57 26.34 5 47.01z"/><path d="m429.44 418.29c1.13-34.9-15.11-60.43-24.67-72.35-36.11 17-62.13 41.44-77.56 72.89 17.79 36.17 47.91 58.76 77.51 72.79 9.57-12.05 25.84-37.78 24.72-72.3-.01-.32-.01-.69 0-1.03zm-58.21 16.54a16 16 0 1 1 16-16 16 16 0 0 1 -16.02 16z"/><path d="m564.46 758.65a15.25 15.25 0 0 0 -.22 1.51 61.49 61.49 0 0 1 -7.08 21.4 58.49 58.49 0 0 0 -3.23 6.43 44.42 44.42 0 0 1 -9.69 13.43c-11.52 11.52-27.45 19-44.85 21.13-24.75 3-39.87-4.33-41.3-5.06-.35-.2-.46-.24-.87-.44-21.72-10.28-32.32-28.54-35.05-33.9-.92-1.8-1.85-3.47-2.74-5.1l-.46-.83c-13.72-24.9 10.61-63.38 21.7-78.77a163.88 163.88 0 0 1 17.42-20.08c15-14.93 24.62-32.66 30.61-47 29.05 36 22 67.77 21.44 70.21a15.64 15.64 0 0 0 2.56 13.91 15.93 15.93 0 0 0 12.88 6.29c10.71 0 21.29-7.31 29.87-15.66a109.25 109.25 0 0 1 6.72 18.88 89.31 89.31 0 0 1 2.29 33.65z"/></g><g fill="#413b32"><path d="m483 254.42a16 16 0 0 1 -7.62-30.08c15.71-8.49 20.76-26.69 12.28-44.25-9.41-19.48-18.33-42.35-5.06-67.18a67.29 67.29 0 0 1 26.28-26.65l.53-.29a16 16 0 1 1 15.3 28.1l-.23.12a35.38 35.38 0 0 0 -13.69 13.81c-5.68 10.62-2.56 21.19 5.65 38.17 16 33.24 5.16 69.55-25.89 86.32a15.92 15.92 0 0 1 -7.55 1.93z"/><path d="m594.44 254.42a16 16 0 0 1 -7.62-30.08c15.71-8.49 20.76-26.69 12.28-44.25-9.41-19.48-18.33-42.35-5.06-67.18a67.22 67.22 0 0 1 26.28-26.65l.5-.28a16 16 0 0 1 15.38 28.07l-.28.14a35.38 35.38 0 0 0 -13.65 13.81c-5.68 10.62-2.56 21.19 5.65 38.17 16.05 33.24 5.16 69.55-25.89 86.32a15.92 15.92 0 0 1 -7.59 1.93z"/><path d="m371.48 254.42a16 16 0 0 1 -7.62-30.08c15.71-8.49 20.76-26.69 12.28-44.25-9.41-19.48-18.33-42.35-5.06-67.18a67.22 67.22 0 0 1 26.28-26.65l.5-.28a16 16 0 0 1 15.38 28.07l-.28.14a35.38 35.38 0 0 0 -13.65 13.81c-5.68 10.62-2.56 21.19 5.65 38.17 16.05 33.24 5.16 69.55-25.89 86.32a15.92 15.92 0 0 1 -7.59 1.93z"/><path d="m194.23 266.51a41.6 41.6 0 0 0 -41.55 41.55v295.29a16 16 0 0 0 16 16h51.11a16 16 0 0 0 16-16v-295.29a41.6 41.6 0 0 0 -41.56-41.55zm-9.56 320.84v-279.29a9.56 9.56 0 0 1 9.55-9.55 9.56 9.56 0 0 1 9.55 9.55v279.29z"/><path d="m282.44 603.35a16 16 0 0 1 -16 16h-144.44a16 16 0 0 1 0-32h144.44a16 16 0 0 1 16 16z"/><path d="m235.78 588.1a15.94 15.94 0 0 0 -4.86-.75h-73.39a16 16 0 0 0 -16 16v296.65a16 16 0 0 0 16 16h73.39a16 16 0 0 0 16-16v-296.65a16 16 0 0 0 -11.14-15.25zm-62.25 31.25h41.39v264.65h-41.39z"/><path d="m805.78 266.51a41.6 41.6 0 0 0 -41.55 41.55v295.29a16 16 0 0 0 16 16h51.11a16 16 0 0 0 16-16v-295.29a41.6 41.6 0 0 0 -41.56-41.55zm-9.56 320.84v-279.29a9.56 9.56 0 0 1 9.55-9.55 9.56 9.56 0 0 1 9.55 9.55v279.29z"/><path d="m894 603.35a16 16 0 0 1 -16 16h-144.44a16 16 0 0 1 0-32h144.44a16 16 0 0 1 16 16z"/><path d="m847.33 588.1a15.94 15.94 0 0 0 -4.86-.75h-73.39a16 16 0 0 0 -16 16v296.65a16 16 0 0 0 16 16h73.39a16 16 0 0 0 16-16v-296.65a16 16 0 0 0 -11.14-15.25zm-20.86 295.9h-41.39v-264.65h41.39z"/><path d="m424.89 751.67a16 16 0 0 1 -16 16h-178a16 16 0 0 1 -16-15.59c0-.13 0-.27 0-.41s0-.28 0-.41a16 16 0 0 1 16-15.59h178a16 16 0 0 1 16 16z"/><path d="m785.08 751.67a16 16 0 0 1 -16 16h-178.91a16 16 0 0 1 -16-16c0-.51 0-1 .07-1.51s.15-1 .22-1.51a16 16 0 0 1 15.71-13h178.91a16 16 0 0 1 16 16.02z"/><path d="m673.19 409.63a14.23 14.23 0 0 0 0-1.6 125.13 125.13 0 0 1 .24-15.2h-16.21a16 16 0 0 0 0 32h16.18a133 133 0 0 1 -.21-15.2zm-243.52-104.77a16 16 0 0 0 -16.25-3.25l-1.3.53a16 16 0 0 0 -4.12 26.31 77.09 77.09 0 0 1 6.73 7.49q8.3-3.92 17.31-7.29c4.63-1.73 9.19-3.28 13.62-4.65a121.55 121.55 0 0 0 -15.99-19.14zm-21.67 184.35a16 16 0 0 0 21.68 23.54 122 122 0 0 0 16-19.13 234.66 234.66 0 0 1 -31-12 78.45 78.45 0 0 1 -6.68 7.59zm-88.4-96.38h-10.16q-2.42 4.74-4.53 9.64a16.07 16.07 0 0 0 0 12.72q2.11 4.9 4.53 9.64h10.16a16 16 0 0 0 0-32z"/><path d="m695.37 485a16 16 0 0 1 -12.58 12.58c-1.6.32-38.31 7-72.71-31.52-21.52 11.86-63.33 32.88-97 37.46l3.2 13.21a16 16 0 0 1 -15.55 19.77h-.68c-1.49-.06-36.84-1.73-78.29-17.11-52.11-19.33-90.74-51.87-112.37-94.5h10.21a16 16 0 0 0 0-32h-10.16c20.27-39.94 55.46-71 102.68-90.69a16 16 0 0 0 -4.12 26.25 77.09 77.09 0 0 1 6.73 7.49c-36.11 17-62.13 41.44-77.56 72.89 17.83 36.17 47.95 58.76 77.55 72.79a78.45 78.45 0 0 1 -6.73 7.59 16 16 0 0 0 21.68 23.54 122 122 0 0 0 16-19.13 268.31 268.31 0 0 0 34.11 8.19l-.15-.63a23.3 23.3 0 0 1 22.08-28.82c31.17-.67 82.57-28.48 97.58-37a25 25 0 0 1 31.83 6 81.68 81.68 0 0 0 15 14.51c-5.57-20.67-5.18-41.55-5-47.08-.22-5.53-.61-26.41 5-47.08a81.68 81.68 0 0 0 -15 14.51 25 25 0 0 1 -31.83 6c-15-8.51-66.41-36.31-97.58-37a23.29 23.29 0 0 1 -22.08-28.81l.15-.63a269.12 269.12 0 0 0 -34.08 8.22 121.55 121.55 0 0 0 -16-19.14 16 16 0 0 0 -16.25-3.25q4.13-1.71 8.39-3.28c41.45-15.38 76.8-17.05 78.29-17.11a16 16 0 0 1 16.2 19.78l-3.2 13.21c33.62 4.58 75.43 25.6 97 37.46 34.4-38.56 71.11-31.83 72.71-31.52a16 16 0 0 1 5.76 29c-9.22 6.15-13.86 26.14-15.12 43.7h-16.26a16 16 0 0 0 0 32h16.18c1.24 17.71 5.86 37.5 15.15 43.7a16 16 0 0 1 6.82 16.45z"/><path d="m471.44 408.81c1.09 37.9-13.51 67.13-25.75 84.81a122 122 0 0 1 -16 19.13 16 16 0 0 1 -21.69-23.54 78.45 78.45 0 0 0 6.73-7.59c9.57-12.05 25.84-37.78 24.72-72.3 0-.34 0-.69 0-1 1.13-34.9-15.11-60.43-24.67-72.35a77.09 77.09 0 0 0 -6.73-7.49 16 16 0 0 1 4.08-26.31l1.3-.53a16 16 0 0 1 16.25 3.25 121.55 121.55 0 0 1 16 19.14c12.26 17.65 26.85 46.88 25.76 84.78z"/><path d="m335.6 408.83a16 16 0 0 1 -16 16h-100.19a16 16 0 0 1 0-32h100.19a16 16 0 0 1 16 16z"/><path d="m397.22 408.83a16 16 0 0 1 -16 16 16 16 0 1 1 16-16z"/><path d="m795.87 408.83a16 16 0 0 1 -16 16h-122.65a16 16 0 0 1 0-32h122.65a16 16 0 0 1 16 16z"/><path d="m769.08 916h-538.16a16 16 0 0 1 0-32h538.16a16 16 0 0 1 0 32z"/><path d="m607.14 735.67a128.59 128.59 0 0 0 -3.93-28.43 145.29 145.29 0 0 0 -13.21-33.68l-7.41-13.56a16 16 0 0 0 -27.21-1.52c-1.07 1.54-2.23 3.1-3.43 4.64-3.52-23.14-15.5-54.12-49.8-84a16 16 0 0 0 -26.2 9c-.07.33-7.27 34.44-30.46 57.58a196.63 196.63 0 0 0 -20.77 24c-8.34 11.57-19.66 29.43-26.23 48.88a112.47 112.47 0 0 0 -4.38 17.06 76 76 0 0 0 .88 32 64 64 0 0 0 5.95 15l.48.86c.8 1.47 1.57 2.85 2.25 4.18a110 110 0 0 0 49.48 48.1c3.63 1.9 19.58 9.47 44.56 9.47a130.28 130.28 0 0 0 15.52-.95c24.48-3 47.07-13.71 63.63-30.27a76 76 0 0 0 16.49-23.45 24.24 24.24 0 0 1 1.46-2.93 87.81 87.81 0 0 0 8.34-20 107.47 107.47 0 0 0 3.99-31.98zm-43.21 42.33a44.42 44.42 0 0 1 -9.69 13.43c-11.52 11.52-27.45 19-44.85 21.13-24.75 3-39.87-4.33-41.3-5.06-.35-.2-.46-.24-.87-.44-21.72-10.28-32.32-28.54-35.05-33.9-.92-1.8-1.85-3.47-2.74-5.1l-.46-.83c-13.72-24.9 10.61-63.38 21.7-78.77a163.88 163.88 0 0 1 17.42-20.08c15-14.93 24.62-32.66 30.61-47 29.05 36 22 67.77 21.44 70.21a15.64 15.64 0 0 0 2.56 13.91 15.93 15.93 0 0 0 12.88 6.29c10.71 0 21.29-7.31 29.87-15.66a109.25 109.25 0 0 1 6.72 18.87 89.31 89.31 0 0 1 2.29 33.63c-.07.51-.14 1-.22 1.51a61.49 61.49 0 0 1 -7.08 21.4 58.49 58.49 0 0 0 -3.23 6.46z"/></g></svg>