<?xml version="1.0" encoding="UTF-8"?>
<svg xmlns="http://www.w3.org/2000/svg" viewBox="0 0 64 64" width="512" height="512"><g id="Bakery"><path d="M27,40a4,4,0,0,0,4-4V21.08c3.225-1.89,5-4.4,5-7.08C36,8.486,28.374,4,19,4H45c9.532,0,17,4.393,17,10,0,2.532-1.61,4.946-4.535,6.8L57,21.091V36a4,4,0,0,1-4,4Z" style="fill:#efca89"/><rect x="6" y="47" width="52" height="13" style="fill:#f2933d"/><path d="M11,40a4,4,0,0,1-4-4V21.091L6.535,20.8C3.61,18.946,2,16.532,2,14,2,8.393,9.468,4,19,4S36,8.393,36,14c0,2.532-1.61,4.946-4.535,6.8L31,21.091V36a4,4,0,0,1-4,4Z" style="fill:#ffe3ab"/><path d="M11,36V21.08a4.017,4.017,0,0,0-1.978-3.451C7.13,16.52,6,15.163,6,14c0-2.446,5.064-6,13-6s13,3.554,13,6c0,1.163-1.13,2.52-3.022,3.629A4.017,4.017,0,0,0,27,21.08V36Z" style="fill:#efca89"/><rect x="1" y="40" width="62" height="7" style="fill:#ffac5a"/><path d="M63,39H56.974A4.948,4.948,0,0,0,58,36V21.642C61.229,19.6,63,16.9,63,14,63,7.832,55.094,3,45,3H19C8.906,3,1,7.832,1,14c0,2.9,1.771,5.6,5,7.642V36a4.948,4.948,0,0,0,1.026,3H1a1,1,0,0,0-1,1v7a1,1,0,0,0,1,1H5V60a1,1,0,0,0,2,0V48H57V60a1,1,0,0,0,2,0V48h4a1,1,0,0,0,1-1V40A1,1,0,0,0,63,39ZM45,5c8.673,0,16,4.121,16,9,0,2.307-1.6,4.515-4.506,6.218A1,1,0,0,0,56,21.08V36a3,3,0,0,1-3,3H30.974A4.948,4.948,0,0,0,32,36V21.642C35.229,19.6,37,16.9,37,14c0-3.765-2.956-7.026-7.548-9ZM8,36V21.08a1,1,0,0,0-.494-.862C4.6,18.515,3,16.307,3,14c0-4.879,7.327-9,16-9s16,4.121,16,9c0,2.307-1.6,4.515-4.506,6.218A1,1,0,0,0,30,21.08V36a3,3,0,0,1-3,3H11A3,3,0,0,1,8,36ZM62,46H2V41H62Z" style="fill:#352d34"/><path d="M28,36V21.08a3.013,3.013,0,0,1,1.483-2.589C31.718,17.182,33,15.544,33,14c0-3.311-5.75-7-14-7S5,10.689,5,14c0,1.544,1.282,3.182,3.517,4.491A3.013,3.013,0,0,1,10,21.08V36a1,1,0,0,0,1,1H27A1,1,0,0,0,28,36Zm-2-1H12V21.08a5.016,5.016,0,0,0-2.472-4.313C7.781,15.742,7,14.64,7,14c0-1.495,4.083-5,12-5s12,3.505,12,5c0,.64-.781,1.742-2.528,2.767A5.016,5.016,0,0,0,26,21.08Z" style="fill:#352d34"/></g></svg>
