<svg id="Layer_1" viewBox="0 0 1000 1000" xmlns="http://www.w3.org/2000/svg" data-name="Layer 1"><path d="m713.1 666.57v13.61a4.91 4.91 0 0 1 -4.91 4.9h-416.38a4.91 4.91 0 0 1 -4.91-4.9v-13.61a4.91 4.91 0 0 1 4.91-4.9h416.38a4.91 4.91 0 0 1 4.91 4.9z" fill="#bdbdbd"/><path d="m860.12 592.16c-16.12 16.12-31.45 25.31-43.78 30.55v-.12c3.9-18.55 2.44-46.77-26.66-75.85-14.4-14.41-32.82-17.8-51.86-9.56-21.94 9.5-38.33 31.67-46.15 44-10.82 17.2-17.67 34.82-18.9 48.49h-18.89a527.52 527.52 0 0 1 11.63-72c9.91-41.67 29.49-96.27 66.17-119.09 26-16.16 52.81-20.16 79.7-11.88 31.39 9.65 54.7 33.73 60.57 47 3.36 7.53 31.54 75.1-11.83 118.46z" fill="#fbc02d"/><path d="m346.11 629.67h-18.88c-1.26-13.68-8.09-31.29-18.94-48.46-7.81-12.36-24.21-34.53-46.15-44-19-8.25-37.45-4.85-51.85 9.56-29.09 29.08-30.56 57.3-26.66 75.85v.12c-12.33-5.24-27.67-14.43-43.78-30.55-43.34-43.4-15.16-110.96-11.85-118.52 5.88-13.24 29.21-37.32 60.59-47 26.89-8.27 53.7-4.27 79.7 11.89 58.13 36.12 73.88 148.5 77.82 191.11z" fill="#fbc02d"/><path d="m557.72 629.67h-115.44c-41.24-140.4-53.17-266-34.48-364 7.19-37.7 18.59-70.44 33.89-97.32 15.66-27.51 30.42-40.11 37.83-45.17a36 36 0 0 1 41 0c7.41 5.06 22.17 17.66 37.83 45.17 15.26 26.91 26.65 59.65 33.85 97.35 18.69 97.93 6.8 223.57-34.48 363.97z" fill="#fbc02d"/><path d="m570 781.08a51.32 51.32 0 0 1 -32 25.67 16 16 0 0 0 -11.63 15.92c0 .46 1.1 43.54-26.42 58.89-27.26-15.29-26.45-58.47-26.44-58.89a16 16 0 0 0 -11.63-15.92 51.4 51.4 0 0 1 -31.88-25.7c32.22-21.1 41.14-46.7 43.08-64h53.84c1.94 17.31 10.87 42.95 43.08 64.03z" fill="#fbc02d"/><g fill="#fff" opacity=".5"><path d="m703.1 676.57v13.61a4.91 4.91 0 0 1 -4.91 4.9h-416.38a4.91 4.91 0 0 1 -4.91-4.9v-13.61a4.91 4.91 0 0 1 4.91-4.9h416.38a4.91 4.91 0 0 1 4.91 4.9z"/><path d="m850.12 602.16c-16.12 16.12-31.45 25.31-43.78 30.55v-.12c3.9-18.55 2.44-46.77-26.66-75.85-14.4-14.41-32.82-17.8-51.86-9.56-21.94 9.5-38.33 31.67-46.15 44-10.82 17.2-17.67 34.82-18.9 48.49h-18.89a527.52 527.52 0 0 1 11.63-72c9.91-41.67 29.49-96.27 66.17-119.09 26-16.16 52.81-20.16 79.7-11.88 31.39 9.65 54.7 33.73 60.57 47 3.36 7.53 31.54 75.1-11.83 118.46z"/><path d="m336.11 639.67h-18.88c-1.26-13.68-8.09-31.29-18.94-48.46-7.81-12.36-24.21-34.53-46.15-44-19-8.25-37.45-4.85-51.85 9.56-29.09 29.08-30.56 57.3-26.66 75.85v.12c-12.33-5.24-27.67-14.43-43.78-30.55-43.34-43.4-15.16-110.96-11.85-118.52 5.88-13.24 29.21-37.32 60.59-47 26.89-8.27 53.7-4.27 79.7 11.89 58.13 36.12 73.88 148.5 77.82 191.11z"/><path d="m547.72 639.67h-115.44c-41.24-140.4-53.17-266-34.48-364 7.19-37.7 18.59-70.44 33.89-97.32 15.66-27.51 30.42-40.11 37.83-45.17a36 36 0 0 1 41 0c7.41 5.06 22.17 17.66 37.83 45.17 15.26 26.91 26.65 59.65 33.85 97.35 18.69 97.93 6.8 223.57-34.48 363.97z"/><path d="m560 791.08a51.32 51.32 0 0 1 -32 25.67 16 16 0 0 0 -11.63 15.92c0 .46 1.1 43.54-26.42 58.89-27.26-15.29-26.45-58.47-26.44-58.89a16 16 0 0 0 -11.63-15.92 51.4 51.4 0 0 1 -31.88-25.7c32.22-21.1 41.14-46.7 43.08-64h53.84c1.94 17.31 10.87 42.95 43.08 64.03z"/></g><g fill="#413b32"><path d="m630.4 423.79c-5.14 63.49-18.4 132.65-39.4 205.88q-2.94 10.26-6.08 20.64a16 16 0 1 1 -30.58-9.31q1.73-5.68 3.38-11.35c41.24-140.4 53.17-266 34.48-364-7.19-37.7-18.59-70.44-33.89-97.32-15.66-27.51-30.42-40.11-37.83-45.17a36 36 0 0 0 -41 0c-7.41 5.06-22.17 17.66-37.83 45.17-15.26 26.93-26.65 59.67-33.85 97.37-18.69 97.93-6.76 223.57 34.48 364q1.65 5.66 3.38 11.35a16 16 0 1 1 -30.66 9.26q-3.15-10.38-6.08-20.64c-21-73.23-34.22-142.39-39.36-205.88-4.86-59.91-2.58-115.12 6.76-164.09 7.86-41.15 20.48-77.2 37.52-107.15 14-24.53 30.86-44.33 47.58-55.76a67.89 67.89 0 0 1 77.08 0c16.72 11.43 33.62 31.23 47.58 55.76 17 29.95 29.66 66 37.52 107.15 9.4 48.97 11.66 104.18 6.8 164.09z"/><path d="m916 529.82c0 33.79-11.46 63.17-33.26 85-47.58 47.6-93.11 46.93-95 46.87a16 16 0 0 1 -14.46-9.69 15.79 15.79 0 0 1 2.88-16.92 47.06 47.06 0 0 0 9.11-20.16c2.8-15.35-3.32-30.66-18.19-45.53-3.75-3.75-8.63-7.27-19.21-1.49s-22.63 19-31.93 35.1c-6.74 11.7-9.83 21-10.93 26.7a28.15 28.15 0 0 0 -.47 3.51 16 16 0 0 1 -15.42 27.55c-4.79-1.73-16-7.63-16.55-25.31a45.38 45.38 0 0 1 .2-5.75c1.25-13.68 8.08-31.29 18.93-48.45 7.82-12.37 24.21-34.54 46.15-44 19-8.24 37.46-4.85 51.86 9.56 29.1 29.08 30.56 57.3 26.66 75.85v.12c12.33-5.24 27.66-14.43 43.78-30.55 43.34-43.43 15.16-111 11.85-118.56-5.87-13.24-29.18-37.32-60.57-47-26.89-8.28-53.71-4.28-79.7 11.88-36.73 22.85-56.31 77.45-66.22 119.13a527.52 527.52 0 0 0 -11.63 72c-.94 10.24-1.19 16.44-1.2 16.6a16 16 0 0 1 -32-1.21c0-1.19.28-6.72 1-15.39 3.78-44.8 20.78-173.33 93.08-218.27 33.72-21 70.37-26.25 106-15.29 38.93 12 70.49 42.21 80.41 64.58 4.47 9.98 14.83 36.72 14.83 69.12z"/><path d="m379.3 645.06a16 16 0 0 1 -32 1.21c0-.31-.28-6.49-1.22-16.6-3.94-42.61-19.69-155-77.78-191.09-26-16.16-52.81-20.16-79.7-11.89-31.38 9.66-54.71 33.74-60.59 47-3.35 7.56-31.53 75.12 11.84 118.49 16.11 16.12 31.45 25.31 43.78 30.55v-.12c-3.9-18.55-2.43-46.77 26.66-75.85 14.4-14.41 32.81-17.81 51.85-9.56 21.94 9.5 38.34 31.67 46.15 44 10.85 17.18 17.71 34.8 18.94 48.47a45.38 45.38 0 0 1 .2 5.75c-.56 17.68-11.76 23.58-16.55 25.31a16 16 0 0 1 -15.42-27.55 28.43 28.43 0 0 0 -.48-3.51c-1.09-5.68-4.18-15-10.93-26.7-9.3-16.14-21.23-29.26-31.92-35.1s-15.47-2.26-19.21 1.49c-15.23 15.23-21.28 30.92-18 46.65a46.53 46.53 0 0 0 8.84 19 16 16 0 0 1 -11.5 26.66c-1.91.05-47.45.72-95-46.87-21.81-21.8-33.26-51.19-33.26-84.98 0-32.4 10.36-59.14 14.8-69.13 9.93-22.38 41.5-52.61 80.43-64.58 35.62-11 72.27-5.67 106 15.29 72.29 44.94 89.29 173.47 93.07 218.27.7 8.67.95 14.2 1 15.39z"/><path d="m708.19 629.67h-150.47q-1.65 5.66-3.38 11.35a16 16 0 0 0 15.31 20.65h138.54a4.91 4.91 0 0 1 4.91 4.9v13.61a4.91 4.91 0 0 1 -4.91 4.9h-416.38a4.91 4.91 0 0 1 -4.91-4.9v-13.61a4.91 4.91 0 0 1 4.91-4.9h138.54a16 16 0 0 0 15.31-20.67q-1.73-5.68-3.38-11.35h-150.47a37 37 0 0 0 -36.91 36.9v13.61a37 37 0 0 0 36.91 36.9h416.38a37 37 0 0 0 36.91-36.9v-13.59a37 37 0 0 0 -36.91-36.9z"/><path d="m569.65 661.67h-139.3a16 16 0 0 0 15.31-20.67q-1.73-5.68-3.38-11.35h115.44q-1.65 5.66-3.38 11.35a16 16 0 0 0 15.31 20.65z"/><path d="m605.44 777.47c-.37 1.73-8.87 39.35-47.48 56.1-1.88 21.38-10.87 65.18-52.4 80.56a16 16 0 0 1 -11.12 0c-41.53-15.38-50.52-59.13-52.44-80.56-38.61-16.75-47.11-54.37-47.48-56.1a16 16 0 0 1 8.22-17.53c27.09-14.18 35.52-31.38 37.93-42.86a35.45 35.45 0 0 0 .58-12.53v.08l31.21-7.1a62.75 62.75 0 0 1 .56 19.55c-1.94 17.27-10.86 42.87-43.08 64a51.4 51.4 0 0 0 31.94 25.7 16 16 0 0 1 11.63 15.92c0 .42-.82 43.6 26.44 58.89 27.52-15.35 26.44-58.43 26.42-58.89a16 16 0 0 1 11.63-15.92 51.32 51.32 0 0 0 32-25.67c-32.25-21.1-41.18-46.72-43.12-64a62.79 62.79 0 0 1 .56-19.55l31.21 7.1v-.08a35.45 35.45 0 0 0 .58 12.53c2.41 11.48 10.84 28.68 37.93 42.86a16 16 0 0 1 8.28 17.5z"/></g></svg>