<svg height="512" viewBox="0 0 128 128" width="512" xmlns="http://www.w3.org/2000/svg"><g><path d="m91.616 6.307c-13.823 0-22.02 10.831-22.02 28.256a78.132 78.132 0 0 0 5.667 27.913 35.26 35.26 0 0 1 2.384 15.719l-1.647 20.935a20.918 20.918 0 0 0 20.853 22.563 20.918 20.918 0 0 0 20.911-21.478l-.637-23.827a46.161 46.161 0 0 1 1.593-13.119c10.986-41.232-10.802-56.962-27.104-56.962z" fill="#73e6ac"/><path d="m118.532 64a45.783 45.783 0 0 0 -1.41 12.39l.4 14.96c-2.33-31.12-24.24-47.61-24.24-47.61s-13.26 15.43-16.46 44.9l.82-10.45a35.132 35.132 0 0 0 -2.38-15.71c-.19-.49-.39-1-.59-1.54v-.02s4.66-17.75 17.65-29.59c0 0 18.69 10.62 26.21 32.66z" fill="#405580"/><path d="m36.384 6.307c13.823 0 22.02 10.831 22.02 28.256a78.132 78.132 0 0 1 -5.667 27.913 35.26 35.26 0 0 0 -2.384 15.719l1.647 20.935a20.918 20.918 0 0 1 -20.853 22.563 20.918 20.918 0 0 1 -20.907-21.478l.637-23.827a46.161 46.161 0 0 0 -1.593-13.119c-10.99-41.232 10.798-56.962 27.1-56.962z" fill="#73e6ac"/><path d="m9.468 64a45.783 45.783 0 0 1 1.41 12.39l-.4 14.96c2.33-31.12 24.24-47.61 24.24-47.61s13.26 15.43 16.46 44.9l-.82-10.45a35.132 35.132 0 0 1 2.38-15.71c.19-.49.39-1 .59-1.54v-.02s-4.66-17.75-17.65-29.59c0 0-18.69 10.62-26.21 32.66z" fill="#405580"/><g><path d="m69.569 33.956h.079a1.751 1.751 0 0 0 1.752-1.671c.067-1.488.2-2.943.4-4.325a1.75 1.75 0 0 0 -3.465-.5c-.214 1.494-.358 3.063-.43 4.666a1.75 1.75 0 0 0 1.664 1.83z"/><path d="m115.643 16.667a30.635 30.635 0 0 0 -24.027-12.11c-9.428 0-16.762 4.778-20.65 13.455a1.75 1.75 0 0 0 3.193 1.431c3.341-7.443 9.376-11.386 17.457-11.386a27.11 27.11 0 0 1 21.251 10.743c5.026 6.539 9.792 18.59 5.264 39.44a66.349 66.349 0 0 0 -24.06-27.892v-6.57a1.75 1.75 0 1 0 -3.5 0v6.8c-8.682 8.17-13.6 18.691-15.919 24.836a76.987 76.987 0 0 1 -2.967-14.394 1.75 1.75 0 1 0 -3.482.359 84.143 84.143 0 0 0 5.432 21.739 33.7 33.7 0 0 1 2.265 14.939l-1.649 20.935a22.669 22.669 0 0 0 22.6 24.451 22.669 22.669 0 0 0 22.66-23.275l-.638-23.827a44.432 44.432 0 0 1 1.535-12.621c6.681-25.069 1.092-39.42-4.765-47.053zm-23.105 16.863c3.983 2.6 17.908 12.7 24.168 30.571a48.606 48.606 0 0 0 -1.283 8.761 69.221 69.221 0 0 0 -21.092-30.524 1.75 1.75 0 0 0 -2.381.258c-.418.488-7.955 9.44-13.023 26.519a37.477 37.477 0 0 0 -2.036-7.281q-.187-.474-.381-.985c.848-2.867 5.458-17.108 16.028-27.319zm18.046 80.616a19.169 19.169 0 0 1 -32.845-14.878l.82-10.4c2.565-23.7 11.848-38.274 15-42.62a68.579 68.579 0 0 1 22.221 45.256l.235 8.757a19.026 19.026 0 0 1 -5.431 13.885z"/><path d="m36.384 4.557a30.635 30.635 0 0 0 -24.027 12.11c-5.857 7.633-11.446 21.984-4.764 47.053a44.432 44.432 0 0 1 1.535 12.621l-.485 18.14a1.748 1.748 0 0 0 1.7 1.8 1.728 1.728 0 0 0 1.8-1.7l.082-3.071a68.579 68.579 0 0 1 22.219-45.261c3.149 4.351 12.428 18.916 14.995 42.608l.821 10.411a19.171 19.171 0 0 1 -19.11 20.675 19.233 19.233 0 0 1 -18.986-16.511 1.75 1.75 0 1 0 -3.467.481 22.67 22.67 0 0 0 45.051-4.921l-1.648-20.935a33.706 33.706 0 0 1 2.267-14.939 79.717 79.717 0 0 0 5.788-28.555c-.002-18.508-9.11-30.006-23.771-30.006zm-2.715 37.781a69.158 69.158 0 0 0 -21.094 30.5 48.587 48.587 0 0 0 -1.281-8.738c6.246-17.824 20.184-27.963 24.169-30.569 10.545 10.192 15.173 24.444 16.026 27.318-.127.334-.254.667-.38.984a37.506 37.506 0 0 0 -2.036 7.282c-5.068-17.079-12.605-26.031-13.023-26.515a1.75 1.75 0 0 0 -2.381-.262zm19.679 13.077c-2.319-6.144-7.237-16.666-15.919-24.836v-6.8a1.75 1.75 0 0 0 -3.5 0v6.57a66.351 66.351 0 0 0 -24.06 27.89c-4.528-20.85.238-32.9 5.264-39.439a27.11 27.11 0 0 1 21.251-10.743c12.692 0 20.269 9.909 20.269 26.506a72.238 72.238 0 0 1 -3.305 20.852z"/></g></g></svg>