<svg height="512" viewBox="0 0 128 128" width="512" xmlns="http://www.w3.org/2000/svg"><g><g><path d="m32.57 96.962h.294l-.249-1.215a120.273 120.273 0 0 1 0-48.351l.249-1.215h62.376l.25 1.215a120.273 120.273 0 0 1 0 48.351l-.25 1.215h.294a6.019 6.019 0 0 1 0 12.038h-62.964a6.019 6.019 0 0 1 0-12.038z" fill="#fecd1a"/><rect fill="#fc852d" height="11.865" rx="3.592" transform="matrix(-1 0 0 -1 128.105 80.498)" width="75.001" x="26.552" y="34.317"/><path d="m48.623 25.651c14.666 0 12.989-6.636 29.1-6.651 13.84-.013 16.319 15.317 16.319 15.317h-57.627s2.078-8.666 12.208-8.666z" fill="#fd3a69"/><g fill="#212f68"><path d="m61.821 72.505a9.4 9.4 0 0 1 -9.1-11.839 1.748 1.748 0 0 1 1.241-1.24 9.405 9.405 0 0 1 11.521 11.522 1.752 1.752 0 0 1 -1.24 1.241 9.447 9.447 0 0 1 -2.422.316zm-5.9-9.878a5.9 5.9 0 0 0 6.361 6.361 5.895 5.895 0 0 0 -6.361-6.361z"/><path d="m66.284 72.505a9.453 9.453 0 0 1 -2.422-.316 1.75 1.75 0 0 1 -1.24-1.241 9.4 9.4 0 0 1 11.522-11.522 1.747 1.747 0 0 1 1.24 1.24 9.4 9.4 0 0 1 -9.1 11.839zm-.462-3.517a5.9 5.9 0 0 0 6.362-6.361 5.9 5.9 0 0 0 -6.362 6.361z"/><path d="m61.821 82.407a9.4 9.4 0 0 1 -9.1-11.84 1.748 1.748 0 0 1 1.241-1.24 9.405 9.405 0 0 1 11.521 11.523 1.749 1.749 0 0 1 -1.24 1.24 9.41 9.41 0 0 1 -2.422.317zm-5.9-9.879a5.9 5.9 0 0 0 6.361 6.361 5.9 5.9 0 0 0 -6.361-6.361z"/><path d="m66.283 82.406a9.4 9.4 0 0 1 -2.421-.316 1.747 1.747 0 0 1 -1.24-1.24 9.405 9.405 0 0 1 11.522-11.523 1.747 1.747 0 0 1 1.24 1.24 9.4 9.4 0 0 1 -9.1 11.839zm-.461-3.517a5.9 5.9 0 0 0 6.362-6.361 5.9 5.9 0 0 0 -6.362 6.361z"/><path d="m61.821 92.308a9.4 9.4 0 0 1 -9.1-11.84 1.75 1.75 0 0 1 1.241-1.24 9.405 9.405 0 0 1 11.521 11.523 1.75 1.75 0 0 1 -1.24 1.24 9.4 9.4 0 0 1 -2.422.317zm-5.9-9.879a5.9 5.9 0 0 0 6.361 6.361 5.9 5.9 0 0 0 -6.361-6.361z"/><path d="m66.284 92.308a9.41 9.41 0 0 1 -2.422-.317 1.749 1.749 0 0 1 -1.24-1.24 9.4 9.4 0 0 1 11.522-11.523 1.747 1.747 0 0 1 1.24 1.24 9.4 9.4 0 0 1 -9.1 11.84zm-.462-3.518a5.9 5.9 0 0 0 6.362-6.361 5.9 5.9 0 0 0 -6.362 6.361z"/><path d="m64.052 98.877a1.751 1.751 0 0 1 -1.75-1.75v-39.072a1.75 1.75 0 1 1 3.5 0v39.072a1.75 1.75 0 0 1 -1.75 1.75z"/></g></g><g fill="#212f68"><path d="m30.178 77.458h.06a1.751 1.751 0 0 0 1.69-1.809l-.029-.934a1.75 1.75 0 0 0 -3.5.1l.03.955a1.749 1.749 0 0 0 1.749 1.688z"/><path d="m103.251 42.589v-4.68a5.348 5.348 0 0 0 -5.343-5.342h-2.49c-1.471-6.009-6.57-15.317-17.726-15.317h-.018c-8.645.008-12.432 1.845-16.1 3.622a25.3 25.3 0 0 1 -13.003 3.028c-8.029 0-12.066 5.089-13.478 8.666h-5a5.348 5.348 0 0 0 -5.343 5.342v4.68a5.348 5.348 0 0 0 5.343 5.342h.59a122.545 122.545 0 0 0 -2.083 15.956 1.75 1.75 0 0 0 3.493.221 119.105 119.105 0 0 1 2.146-16.176h59.522a117.85 117.85 0 0 1 -.038 47.469l-.249 1.215a1.75 1.75 0 0 0 1.714 2.1h.294a4.269 4.269 0 1 1 0 8.538h-62.964a4.269 4.269 0 0 1 0-8.538h.294a1.75 1.75 0 0 0 1.714-2.1l-.249-1.215c-.585-2.849-1.071-5.761-1.445-8.655a1.75 1.75 0 0 0 -3.471.449c.355 2.751.809 5.518 1.351 8.235a7.769 7.769 0 0 0 1.806 15.326h62.964a7.769 7.769 0 0 0 1.806-15.326 121.28 121.28 0 0 0 .034-47.493h.586a5.348 5.348 0 0 0 5.343-5.347zm-54.68-15.189a28.556 28.556 0 0 0 14.535-3.38c3.46-1.678 6.728-3.263 14.571-3.27h.015c9.4 0 12.924 7.959 14.08 11.816h-52.781c1.246-2.166 3.983-5.166 9.58-5.166zm-15.759 17.031h-2.72a1.845 1.845 0 0 1 -1.843-1.842v-4.68a1.845 1.845 0 0 1 1.843-1.842h67.816a1.845 1.845 0 0 1 1.843 1.842v4.68a1.845 1.845 0 0 1 -1.843 1.842h-65.1z"/></g></g></svg>