<svg height="512" viewBox="0 0 128 128" width="512" xmlns="http://www.w3.org/2000/svg"><g><path d="m29.549 25.533s2.174-8.333 16.611-10.658c11.789-1.895 12.84-8.568 21.94-8.568 8.52 0 23.425 5.3 30.354 19.226z" fill="#f3f5e6"/><path d="m102.122 38.066c7.13 40.287-5.056 70.478-5.056 70.478a22.751 22.751 0 0 1 6.214 6.742 3.056 3.056 0 0 1 -2.129 4.644c-5.059.755-15.807 1.763-37.151 1.763s-32.1-1.009-37.16-1.765a3.051 3.051 0 0 1 -2.125-4.635 22.774 22.774 0 0 1 6.219-6.749s-12.186-30.191-5.056-70.478z" fill="#fb8d4b"/><g fill="#feea61"><path d="m64 93.4a13.576 13.576 0 0 0 -13.576-13.577 13.576 13.576 0 0 0 13.576 13.577z"/><path d="m64 93.4a13.576 13.576 0 0 1 13.576-13.577 13.576 13.576 0 0 1 -13.576 13.577z"/><path d="m64 83.455a13.576 13.576 0 0 0 -13.576-13.576 13.576 13.576 0 0 0 13.576 13.576z"/><path d="m64 83.455a13.576 13.576 0 0 1 13.576-13.576 13.576 13.576 0 0 1 -13.576 13.576z"/><path d="m64 73.511a13.576 13.576 0 0 0 -13.576-13.576 13.576 13.576 0 0 0 13.576 13.576z"/><path d="m64 68.955a13.575 13.575 0 0 0 0-19.2 13.575 13.575 0 0 0 0 19.2z"/><path d="m64 73.511a13.576 13.576 0 0 1 13.576-13.576 13.576 13.576 0 0 1 -13.576 13.576z"/></g><rect fill="#e86d24" height="12.533" rx="3.051" width="82.346" x="22.827" y="25.533"/><g><path d="m106.923 35.015v-6.431a4.806 4.806 0 0 0 -4.8-4.8h-2.642c-7.57-14.065-22.791-19.227-31.381-19.227-5.1 0-7.949 1.891-10.967 3.892-.478.317-.966.64-1.475.963a1.75 1.75 0 1 0 1.877 2.955c.528-.336 1.035-.672 1.532-1 2.788-1.849 4.991-3.309 9.033-3.309 7.4 0 20.277 4.248 27.373 15.726h-63.066c1.661-2.32 5.508-5.811 14.031-7.181.793-.127 1.574-.281 2.319-.457a1.75 1.75 0 1 0 -.8-3.406c-.663.157-1.36.294-2.069.408-12.074 1.94-16.236 7.95-17.518 10.636h-2.492a4.806 4.806 0 0 0 -4.8 4.8v6.431a4.8 4.8 0 0 0 2.811 4.356c-5.864 35.4 2.735 62.438 4.946 68.562a24.639 24.639 0 0 0 -5.612 6.447 4.835 4.835 0 0 0 -.265 4.578 4.767 4.767 0 0 0 3.624 2.7c5.443.814 16.354 1.784 37.419 1.784s31.965-.969 37.41-1.782a4.774 4.774 0 0 0 3.63-2.707 4.838 4.838 0 0 0 -.268-4.582 24.621 24.621 0 0 0 -5.609-6.442 110.869 110.869 0 0 0 3.968-14.646 1.75 1.75 0 1 0 -3.428-.705 98.9 98.9 0 0 1 -4.261 15.311 1.751 1.751 0 0 0 .618 2.086 21.179 21.179 0 0 1 5.728 6.225 1.33 1.33 0 0 1 .08 1.274 1.25 1.25 0 0 1 -.975.724c-5.329.8-16.054 1.744-36.893 1.744s-31.575-.949-36.9-1.746a1.241 1.241 0 0 1 -.97-.72 1.326 1.326 0 0 1 .078-1.27 21.189 21.189 0 0 1 5.733-6.231 1.751 1.751 0 0 0 .618-2.087c-.119-.293-11.616-29.455-5.193-68.073h73.269a145.526 145.526 0 0 1 1.853 29.8 1.749 1.749 0 0 0 1.678 1.819h.072a1.751 1.751 0 0 0 1.748-1.679 149.185 149.185 0 0 0 -1.877-30.385 4.8 4.8 0 0 0 2.813-4.355zm-82.346-6.431a1.3 1.3 0 0 1 1.3-1.3h76.244a1.3 1.3 0 0 1 1.3 1.3v6.431a1.3 1.3 0 0 1 -1.3 1.3h-76.243a1.3 1.3 0 0 1 -1.3-1.3z"/><path d="m101.791 79.1c-.153 1.446-.334 2.932-.537 4.416a1.75 1.75 0 1 0 3.467.475c.209-1.519.393-3.04.55-4.523a1.75 1.75 0 1 0 -3.48-.368z"/><path d="m77.576 58.185a15.214 15.214 0 0 0 -7.907 2.222 15.281 15.281 0 0 0 -4.432-11.888 1.748 1.748 0 0 0 -2.474 0 15.281 15.281 0 0 0 -4.432 11.888 15.214 15.214 0 0 0 -7.907-2.222 1.75 1.75 0 0 0 -1.75 1.75 15.214 15.214 0 0 0 2.417 8.228c-.223-.01-.442-.034-.667-.034a1.75 1.75 0 0 0 -1.75 1.75 15.216 15.216 0 0 0 2.417 8.228c-.223-.01-.442-.034-.667-.034a1.749 1.749 0 0 0 -1.75 1.75 15.326 15.326 0 1 0 30.652 0 1.749 1.749 0 0 0 -1.75-1.75c-.225 0-.444.024-.667.034a15.225 15.225 0 0 0 2.417-8.228 1.75 1.75 0 0 0 -1.75-1.75c-.225 0-.444.024-.667.034a15.222 15.222 0 0 0 2.417-8.228 1.75 1.75 0 0 0 -1.75-1.75zm-15.476 23.367a11.855 11.855 0 0 1 -9.77-9.77 11.855 11.855 0 0 1 9.77 9.77zm1.9 3.653c.225 0 .444-.024.667-.034-.237.371-.462.75-.667 1.141-.2-.391-.43-.77-.667-1.141.223.01.442.034.667.034zm11.673-13.423a11.855 11.855 0 0 1 -9.77 9.77 11.855 11.855 0 0 1 9.77-9.77zm-11.673 4.586c-.2-.391-.43-.77-.667-1.141.223.01.442.034.667.034s.444-.024.667-.034c-.237.373-.462.75-.667 1.141zm11.673-14.53a11.855 11.855 0 0 1 -9.77 9.77 11.855 11.855 0 0 1 9.77-9.77zm-11.673-9.391a11.856 11.856 0 0 1 0 13.817 11.856 11.856 0 0 1 0-13.817zm-1.9 19.161a11.855 11.855 0 0 1 -9.77-9.77 11.855 11.855 0 0 1 9.77 9.77zm-9.77 10.118a11.855 11.855 0 0 1 9.77 9.774 11.855 11.855 0 0 1 -9.773-9.774zm13.57 9.774a11.855 11.855 0 0 1 9.77-9.77 11.855 11.855 0 0 1 -9.77 9.77z"/></g></g></svg>