<svg fill="none" height="24" viewBox="0 0 24 24" width="24" xmlns="http://www.w3.org/2000/svg"><path d="m6.5 9c0-.55228.44772-1 1-1h9c.5523 0 1 .44772 1 1s-.4477 1-1 1h-9c-.55229 0-1-.44772-1-1z" fill="#decd72"/><path d="m6 14c0-1.6 1.33333-3.3333 2-4h8c.6667.6667 2 2.4 2 4s-.6667 3.6667-1 4c.3333.1667 1 .8 1 2s-4 1-6 1-6 .2-6-1 .66667-1.8333 1-2c-.33333-.3333-1-2.4-1-4z" fill="#b77437"/><path clip-rule="evenodd" d="m6 9c0-.82843.67157-1.5 1.5-1.5h9c.8284 0 1.5.67157 1.5 1.5s-.6716 1.5-1.5 1.5h-9c-.82843 0-1.5-.67157-1.5-1.5zm1.5-.5c-.27614 0-.5.22386-.5.5s.22386.5.5.5h9c.2761 0 .5-.22386.5-.5s-.2239-.5-.5-.5z" fill="#1e3317" fill-rule="evenodd"/><path d="m7.00001 6.0002c-.8 1.2.33333 1.83334 1 2l7.99999.00002c2-.5 1-2.5 0-2.00002.1667-.49999-.5-1.50015-1-1.99998-.3536-.35349-1.5 0-2 1-.5-1-1.161-1-2-1-1.59998 0-1.99998 1.33332-1.99998 1.99998-.33334-.5-1.20001-1.2-2.00001 0z" fill="#fff0bb"/><g fill="#1e3317"><path clip-rule="evenodd" d="m7.64274 9.64262c.09475-.09476.22327-.14799.35727-.14799h7.99999c.134 0 .2625.05323.3573.14799.3617.36168.8892.99598 1.3295 1.75328.4361.7501.8185 1.6751.8185 2.604 0 .8603-.1775 1.8243-.3931 2.6088-.1084.3945-.2293.7543-.3481 1.0429-.0315.0765-.0635.1496-.0959.2183.419.4021.8371 1.1068.8371 2.13 0 .648-.5514.9758-.9865 1.1365-.4734.1748-1.0925.2663-1.7285.3171-.9842.0788-2.1249.0668-3.0418.0572-.2726-.0029-.5254-.0055-.7485-.0055-.223 0-.4759.0026-.7485.0055-.9169.0096-2.05762.0216-3.04178-.0572-.63596-.0508-1.25505-.1423-1.72847-.3171-.43509-.1607-.9865-.4885-.9865-1.1365 0-1.0232.41804-1.7279.83703-2.13-.03234-.0687-.06436-.1418-.09585-.2183-.11885-.2886-.23975-.6484-.34813-1.0429-.21554-.7845-.39305-1.7485-.39305-2.6088 0-.9289.38235-1.8539.81846-2.604.44029-.7573.9678-1.3916 1.32953-1.75328zm.57269.86258c-.2979.3226-.69233.8202-1.02861 1.3986-.39723.6833-.68154 1.425-.68154 2.0961 0 .7397.15582 1.609.35695 2.3411.09995.3639.20822.6833.30811.9259.05006.1216.0956.2179.13416.2883.03603.0658.05551.0895.0552.0897-.00006.0001-.00086-.0007-.00241-.0023.11484.1149.16748.2779.14146.4382-.02601.1603-.12751.2984-.27277.371-.16975.0849-.72038.5476-.7207 1.5472.00231.0037.0083.0122.02147.0249.04312.0416.13508.1019.30452.1645.33909.1252.84499.2087 1.45904.2578.9334.0747 2.00449.0636 2.91589.0541.283-.0029.5505-.0057.7938-.0057s.5109.0028.7938.0057c.9114.0095 1.9825.0206 2.9159-.0541.6141-.0491 1.12-.1326 1.4591-.2578.1694-.0626.2614-.1229.3045-.1645.0131-.0127.0191-.0212.0215-.0249-.0004-.9996-.551-1.4623-.7207-1.5472-.1453-.0726-.2468-.2107-.2728-.371s.0266-.3233.1414-.4382c-.0015.0016-.0023.0024-.0024.0023-.0003-.0002.0192-.0239.0552-.0897.0386-.0704.0841-.1667.1342-.2883.0999-.2426.2081-.562.3081-.9259.2011-.7321.357-1.6014.357-2.3411 0-.6711-.2844-1.4128-.6816-2.0961-.3363-.5784-.7307-1.076-1.0286-1.3986z" fill-rule="evenodd"/><path clip-rule="evenodd" d="m14.2546 4.45669c-.2933.12614-.6105.38496-.8027.76938-.0856.17118-.2605.2793-.4519.2793s-.3663-.10812-.4519-.2793c-.205-.40999-.4083-.55642-.5987-.62799-.2304-.08658-.5069-.09271-.9494-.09271-.6353 0-.9836.2534-1.18996.53996-.22488.31233-.30478.70229-.30478.95477 0 .22265-.14574.41906-.35884.48358s-.44332-.01806-.56682-.20331c-.1335-.20025-.34151-.38226-.52446-.42693-.07429-.01814-.14768-.01545-.23373.02577-.09421.04513-.2352.15244-.40101.40116-.15851.23776-.19208.40291-.19022.50592.00179.0992.03712.19031.11241.28325.15817.19524.45604.34863.72373.42529l7.86848.00002c.3758-.10412.5531-.25822.6332-.37474.0823-.11971.0975-.24963.0668-.37246-.0329-.13168-.1141-.23529-.1965-.28599-.0686-.04225-.1332-.04922-.2123-.00964-.1828.09139-.4027.06367-.5571-.07022-.1543-.1339-.2129-.34761-.1482-.54148-.0004.00113-.0006.00172-.0007.0017-.0005-.00011.0085-.04626-.0231-.16213-.0327-.11982-.0964-.2685-.1886-.43448-.1795-.32308-.4325-.65067-.6464-.86869-.0102-.00216-.0281-.0047-.0562-.00486-.0812-.00046-.2041.02157-.3511.08483zm.4181-.07691c0 .00002-.0005-.00014-.0013-.00054zm-.0612-1.01843c.2414.00138.5296.06542.7457.28142.2823.28215.6027.69461.8345 1.1119.1161.20904.2191.43538.2801.65935.001.0036.002.00722.003.01085.1769.02276.3445.08471.4931.17618.3239.19931.5552.5332.6473.90152.0943.37717.047.80975-.2145 1.19004-.2596.37771-.6935.65153-1.2782.79768-.04.01002-.0812.01508-.1225.01508l-8.00001-.00001c-.04131 0-.08246-.00507-.12254-.01509-.38553-.09638-.95606-.33532-1.32005-.78462-.19138-.23623-.33104-.53886-.33759-.90112-.00647-.35845.11829-.72247.35978-1.0847.23419-.35129.50153-.60648.80524-.75197.31187-.1494.62597-.16547.91002-.09611.1393.03402.26894.08763.38803.15361.07472-.19291.17512-.3872.30708-.57048.39368-.54677 1.04534-.96003 2.01004-.96003.0137 0 .0276-.00001.0415-.00002.3877-.0002.8435-.00044 1.2633.15731.2636.09903.4971.25202.7031.46944.2576-.26899.5547-.46727.8473-.59317.2463-.10593.5076-.16848.7563-.16706z" fill-rule="evenodd"/><path d="m11 13.5c0 .8284-.2239 1.5-.5 1.5s-.5-.6716-.5-1.5.2239-1.5.5-1.5.5.6716.5 1.5z"/><path d="m14 14c0 .5523-.2239 1-.5 1s-.5-.4477-.5-1 .2239-1 .5-1 .5.4477.5 1z"/><path d="m12.5 16.5c0 .8284-.2239 1.5-.5 1.5s-.5-.6716-.5-1.5.2239-1.5.5-1.5.5.6716.5 1.5z"/></g></svg>