<svg id="Layer_1" viewBox="0 0 1000 1000" xmlns="http://www.w3.org/2000/svg" data-name="Layer 1"><path d="m857.83 259.63v149.37h-715.66v-149.37q44.61 6 89.48 10.5a16.67 16.67 0 0 0 2.9.29c88.48 8.8 177.4 13.24 265.4 13.24s176.92-4.44 265.4-13.24a16.58 16.58 0 0 0 2.9-.29q44.95-4.51 89.58-10.5z" fill="#ffcc80"/><path d="m728.16 241.73a2656.38 2656.38 0 0 1 -456.34 0c45.48-40.29 143.23-118 228.18-125.67 57.24 5.16 120.38 42.22 169.38 78.16 23.62 17.33 43.97 34.4 58.78 47.51z" fill="#f9a825"/><path d="m828.67 441h-657.34c-2.74 40.48-9.06 157.81 1.06 263v.24c4.3 53.38 11.77 117.12 16.33 127 .86 1.84 1.55 3.58 2.15 5.12l.25.63c4.27 10.86 22 46.29 71 47h475.74c49-.74 66.72-36.17 71-47l.25-.64c.6-1.54 1.29-3.28 2.15-5.12 4.56-9.89 12-73.62 16.33-127v-.24c10.14-105.16 3.82-222.49 1.08-262.99zm-133.43 413.92a16 16 0 0 1 -22.63 0l-40.35-40.35c-16.92 14.67-50 38-89 38-55.73 0-99.23-47.53-101.06-49.55a16 16 0 0 1 0-21.43c1.83-2 45.33-49.55 101.06-49.55 2.22 0 4.43.08 6.61.23l-20.31-20.31c-16.92 14.68-49.94 38-88.95 38-55.72 0-99.23-47.53-101.05-49.56a16 16 0 0 1 0-21.43c1.82-2 45.33-49.55 101.05-49.55 2.22 0 4.43.08 6.61.23l-5.95-6c-18.48-.33-67-4.44-99.09-36.49-39.41-39.4-36.56-103.77-36.42-106.49a16 16 0 0 1 15.24-15.18c2.72-.14 67.1-3 106.5 36.42 32 32.05 36.14 80.6 36.48 99.09l6 6c-.15-2.18-.23-4.39-.23-6.61 0-55.73 47.52-99.23 49.55-101.06a16 16 0 0 1 21.43 0c2 1.83 49.55 45.33 49.55 101.06 0 39-23.29 72-38 88.95l20.3 20.3c-.15-2.18-.23-4.39-.23-6.61 0-55.72 47.53-99.23 49.55-101a16 16 0 0 1 21.43 0c2 1.82 49.56 45.33 49.56 101 0 39-23.28 72-38 89l40.36 40.36a16 16 0 0 1 -.01 22.53z" fill="#ffcc80"/><path d="m609 792.23c-13.89 11.54-38.71 28.3-65.72 28.3-27.19 0-51.89-16.69-65.73-28.23 13.9-11.55 38.72-28.3 65.73-28.3 27.21 0 51.92 16.69 65.72 28.23z" fill="#fbc02d"/><path d="m660.85 703c0 27.19-16.7 51.89-28.24 65.72-11.54-13.89-28.3-38.71-28.3-65.72 0-27.21 16.73-51.94 28.27-65.76 11.55 13.82 28.27 38.55 28.27 65.76z" fill="#fbc02d"/><path d="m558.2 600.35c0 27.18-16.69 51.89-28.23 65.72-11.55-13.89-28.3-38.72-28.3-65.72 0-27.21 16.72-51.94 28.26-65.76 11.55 13.83 28.27 38.55 28.27 65.76z" fill="#fbc02d"/><path d="m506.38 689.59c-13.89 11.54-38.71 28.3-65.72 28.3-27.21 0-51.94-16.73-65.76-28.27 13.83-11.55 38.56-28.27 65.76-28.27s51.89 16.7 65.72 28.24z" fill="#fbc02d"/><path d="m431.34 591c-17.94-1.62-47.25-7.28-66.49-26.51s-24.85-48.49-26.5-66.41c18 1.66 47.39 7.36 66.48 26.46 19.24 19.24 24.9 48.55 26.51 66.46z" fill="#fbc02d"/><g fill="#fff" opacity=".5"><path d="m847.83 269.63v149.37h-715.66v-149.37q44.61 6 89.48 10.5a16.67 16.67 0 0 0 2.9.29c88.48 8.8 177.4 13.24 265.4 13.24s176.92-4.44 265.4-13.24a16.58 16.58 0 0 0 2.9-.29q44.95-4.51 89.58-10.5z"/><path d="m718.16 251.73a2656.38 2656.38 0 0 1 -456.34 0c45.48-40.29 143.23-118 228.18-125.67 57.24 5.16 120.38 42.22 169.38 78.16 23.62 17.33 43.97 34.4 58.78 47.51z"/><path d="m818.67 451h-657.34c-2.74 40.48-9.06 157.81 1.06 263v.24c4.3 53.38 11.77 117.12 16.33 127 .86 1.84 1.55 3.58 2.15 5.12l.25.63c4.27 10.86 22 46.29 71 47h475.74c49-.74 66.72-36.17 71-47l.25-.64c.6-1.54 1.29-3.28 2.15-5.12 4.56-9.89 12-73.62 16.33-127v-.24c10.14-105.16 3.82-222.49 1.08-262.99zm-133.43 413.92a16 16 0 0 1 -22.63 0l-40.35-40.35c-16.92 14.67-50 38-89 38-55.73 0-99.23-47.53-101.06-49.55a16 16 0 0 1 0-21.43c1.83-2 45.33-49.55 101.06-49.55 2.22 0 4.43.08 6.61.23l-20.31-20.31c-16.92 14.68-49.94 38-88.95 38-55.72 0-99.23-47.53-101.05-49.56a16 16 0 0 1 0-21.43c1.82-2 45.33-49.55 101.05-49.55 2.22 0 4.43.08 6.61.23l-5.95-6c-18.48-.33-67-4.44-99.09-36.49-39.41-39.4-36.56-103.77-36.42-106.49a16 16 0 0 1 15.24-15.18c2.72-.14 67.1-3 106.5 36.42 32 32.05 36.14 80.6 36.48 99.09l6 6c-.15-2.18-.23-4.39-.23-6.61 0-55.73 47.52-99.23 49.55-101.06a16 16 0 0 1 21.43 0c2 1.83 49.55 45.33 49.55 101.06 0 39-23.29 72-38 88.95l20.3 20.3c-.15-2.18-.23-4.39-.23-6.61 0-55.72 47.53-99.23 49.55-101a16 16 0 0 1 21.43 0c2 1.82 49.56 45.33 49.56 101 0 39-23.28 72-38 89l40.36 40.36a16 16 0 0 1 -.01 22.53z"/><path d="m599 802.23c-13.89 11.54-38.71 28.3-65.72 28.3-27.19 0-51.89-16.69-65.73-28.23 13.9-11.55 38.72-28.3 65.73-28.3 27.21 0 51.92 16.69 65.72 28.23z"/><path d="m650.85 713c0 27.19-16.7 51.89-28.24 65.72-11.54-13.89-28.3-38.71-28.3-65.72 0-27.21 16.73-51.94 28.27-65.76 11.55 13.82 28.27 38.55 28.27 65.76z"/><path d="m548.2 610.35c0 27.18-16.69 51.89-28.23 65.72-11.55-13.89-28.3-38.72-28.3-65.72 0-27.21 16.72-51.94 28.26-65.76 11.55 13.83 28.27 38.55 28.27 65.76z"/><path d="m496.38 699.59c-13.89 11.54-38.71 28.3-65.72 28.3-27.21 0-51.94-16.73-65.76-28.27 13.83-11.55 38.56-28.27 65.76-28.27s51.89 16.7 65.72 28.24z"/><path d="m421.34 601c-17.94-1.62-47.25-7.28-66.49-26.51s-24.85-48.49-26.5-66.41c18 1.66 47.39 7.36 66.48 26.46 19.24 19.24 24.9 48.55 26.51 66.46z"/></g><g fill="#413b32"><path d="m765.3 270.42a16 16 0 0 1 -11.36-4.73l-.53-.52c-.07-.08-.16-.16-.25-.25l-1.16-1.14-.81-.79-23-21.26a2656.38 2656.38 0 0 1 -456.34 0l-.36.32-2.64 2.35-1.34 1.2c-.89.8-1.75 1.57-2.58 2.33l-1.33 1.21c-.42.38-.83.75-1.23 1.13-1.22 1.1-2.37 2.17-3.46 3.18l-1.82 1.69q-1.67 1.55-3.09 2.91c-.29.27-.58.53-.85.8l-.8.76c-.64.6-1.23 1.17-1.78 1.7l-1.76 1.69-.39.38c-.12.11-.24.22-.35.34-1.23 1.2-1.92 1.89-2 2a16 16 0 0 1 -11.46 4.74c88.48 8.8 177.4 13.24 265.4 13.24s176.92-4.44 265.4-13.24zm113.89-35.2a31.21 31.21 0 0 0 -24.71-7.43q-41.64 5.61-83.4 9.88-21.45 2.22-42.91 4.06a2656.38 2656.38 0 0 1 -456.34 0q-21.47-1.84-42.89-4.06-41.76-4.26-83.4-9.88a31.15 31.15 0 0 0 -35.35 30.86v151.22a31.19 31.19 0 0 0 29.08 31.13c.68.05 1.36.07 2 .07h30c.62-9.15 1-14.37 1.08-14.64a16 16 0 0 0 -14.58-17.31l-.69-.05h-15v-149.44q44.61 6 89.48 10.5l2.9.29c88.48 8.8 177.4 13.24 265.4 13.24s176.92-4.44 265.4-13.24l2.9-.29q44.85-4.51 89.48-10.5v149.37h-15l-.68.05a16 16 0 0 0 -14.58 17.31c0 .27.46 5.49 1.08 14.64h30c.69 0 1.37 0 2.05-.07a31.19 31.19 0 0 0 29.1-31.08v-151.2a31.12 31.12 0 0 0 -10.42-23.43z"/><path d="m842.85 409-.68.05a16 16 0 0 0 -14.58 17.31c0 .27.46 5.49 1.08 14.64h-657.34c.62-9.15 1-14.37 1.08-14.64a16 16 0 0 0 -14.58-17.31l-.69-.05z"/><path d="m859.47 706.92c-.17 2.13-2.47 30.09-5.72 59.78-6.24 57.06-10.53 71.75-13.56 78.18-.4.86-.84 2-1.3 3.14l-.27.69a109.55 109.55 0 0 1 -26.45 38.82c-19.39 18.22-45 28.06-74 28.47h-476.38c-29-.41-54.57-10.25-74-28.47a109.55 109.55 0 0 1 -26.45-38.82l-.27-.69c-.46-1.17-.9-2.28-1.3-3.14-3-6.43-7.32-21.12-13.56-78.18-3.25-29.69-5.55-57.65-5.72-59.78-10.15-105.53-4.13-222.67-1.26-266 .71-10.79 1.23-17 1.26-17.3a16 16 0 0 1 15.58-14.62h1.07l.69.05a16 16 0 0 1 14.58 17.31c0 .27-.46 5.49-1.08 14.64-2.74 40.48-9.06 157.81 1.06 263v.24c4.3 53.38 11.77 117.12 16.33 127 .86 1.84 1.55 3.58 2.15 5.12l.25.63c4.27 10.86 22 46.29 71 47h475.74c49-.74 66.72-36.17 71-47l.25-.64c.6-1.54 1.29-3.28 2.15-5.12 4.56-9.89 12-73.62 16.33-127v-.24c10.12-105.15 3.8-222.48 1.06-263-.62-9.15-1-14.37-1.08-14.64a16 16 0 0 1 14.58-17.31l.68-.05h1.07a16 16 0 0 1 15.55 14.63c0 .3.55 6.51 1.26 17.3 2.89 43.33 8.91 160.47-1.24 266z"/><path d="m776.57 265.78a16 16 0 0 1 -8.22 4.35 16.58 16.58 0 0 1 -2.9.29h-.14a16 16 0 0 1 -11.36-4.73l-.53-.52c-.07-.08-.16-.16-.25-.25l-1.17-1.14-.81-.79-23-21.26c-14.81-13.11-35.15-30.18-58.78-47.51-49-35.94-112.14-73-169.38-78.16-84.95 7.66-182.7 85.38-228.18 125.67l-.36.32-2.64 2.35-1.34 1.2c-.89.8-1.75 1.57-2.58 2.33l-1.33 1.21c-.42.38-.83.75-1.23 1.13-1.22 1.1-2.37 2.17-3.46 3.18l-1.82 1.69q-1.67 1.55-3.09 2.91c-.29.27-.58.53-.85.8l-.8.76c-.64.6-1.23 1.17-1.78 1.7l-1.76 1.69-.39.38c-.12.11-.24.22-.35.34-1.23 1.2-1.92 1.89-2 2a16 16 0 0 1 -11.46 4.74 16.67 16.67 0 0 1 -2.9-.29 16 16 0 0 1 -8.32-27c.32-.32 2.25-2.26 5.59-5.48a840.8 840.8 0 0 1 83.13-69.69c70.18-51.34 133-79.6 186.59-84a16.12 16.12 0 0 1 2.6 0c53.63 4.39 116.41 32.65 186.59 84a840.8 840.8 0 0 1 83.18 69.63c3.34 3.22 5.27 5.16 5.59 5.48a16 16 0 0 1 -.09 22.67z"/><path d="m463.94 601c-.34-18.49-4.44-67-36.48-99.09-39.4-39.4-103.78-36.56-106.5-36.42a16 16 0 0 0 -15.15 15.16c-.14 2.72-3 67.09 36.42 106.49 32 32.05 80.61 36.16 99.09 36.49h2.75c2.63 0 4.27-.08 4.65-.1a16 16 0 0 0 15.16-15.15c.03-.48.12-3.14.06-7.38zm-99.09-36.48c-19.22-19.23-24.88-48.5-26.5-66.44 18 1.66 47.39 7.36 66.48 26.46 19.24 19.24 24.9 48.55 26.51 66.49-17.94-1.62-47.25-7.28-66.49-26.51z"/><path d="m540.65 499.29a16 16 0 0 0 -21.43 0c-2 1.83-49.55 45.33-49.55 101.06 0 2.22.08 4.43.23 6.61a111.46 111.46 0 0 0 5.8 28.42c10 29.58 29.88 52.28 38.91 61.54l2.43 2.43c1.19 1.15 2 1.85 2.18 2a16 16 0 0 0 21.43 0l.54-.5a153.2 153.2 0 0 0 11-11.57c14.67-16.92 38-49.95 38-88.95.01-55.71-47.52-99.21-49.54-101.04zm-10.65 166.78c-11.55-13.89-28.3-38.72-28.3-65.72 0-27.21 16.72-51.94 28.26-65.76 11.55 13.83 28.27 38.55 28.27 65.76s-16.72 51.89-28.23 65.72z"/><path d="m541.72 678.9c-.2-.22-.9-1-2.06-2.17l-.26-.27-1.82-1.82-.35-.34c-9.26-9-32-28.9-61.53-38.92a111.54 111.54 0 0 0 -28.43-5.8c-2.18-.15-4.39-.23-6.61-.23-55.72 0-99.23 47.53-101.05 49.55a16 16 0 0 0 0 21.43c1.82 2 45.33 49.56 101.05 49.56 39 0 72-23.29 88.95-38a154.08 154.08 0 0 0 11.58-11l.5-.54a16 16 0 0 0 .03-21.45zm-101.06 39c-27.21 0-51.94-16.73-65.76-28.27 13.83-11.55 38.56-28.27 65.76-28.27s51.89 16.7 65.72 28.24c-13.89 11.53-38.71 28.29-65.72 28.29z"/><path d="m643.29 601.94a16 16 0 0 0 -21.43 0c-2 1.82-49.55 45.33-49.55 101 0 2.22.08 4.43.23 6.61a111.45 111.45 0 0 0 5.8 28.43c10.14 30 30.39 52.85 39.26 61.88l1.82 1.82c1.34 1.32 2.2 2.11 2.44 2.32a16 16 0 0 0 21.43 0l.54-.5a148 148 0 0 0 11-11.58c14.69-16.93 38-49.94 38-89 .02-55.65-47.51-99.16-49.54-100.98zm-10.68 166.77c-11.54-13.89-28.3-38.71-28.3-65.72 0-27.21 16.73-51.94 28.27-65.76 11.55 13.83 28.27 38.56 28.27 65.76s-16.7 51.89-28.24 65.72z"/><path d="m644.36 781.55c-.2-.22-.9-1-2.05-2.17l-1.11-1.12-1-1-.35-.34c-9.26-9-32-28.91-61.54-38.92a111.46 111.46 0 0 0 -28.42-5.8c-2.18-.15-4.39-.23-6.61-.23-55.73 0-99.23 47.52-101.06 49.55a16 16 0 0 0 0 21.43c1.83 2 45.33 49.55 101.06 49.55 39 0 72-23.29 89-38a153.2 153.2 0 0 0 11.57-11l.5-.54a16 16 0 0 0 .01-21.41zm-101.05 39c-27.19 0-51.89-16.69-65.73-28.23 13.9-11.55 38.72-28.3 65.73-28.3 27.18 0 51.89 16.69 65.72 28.23-13.89 11.52-38.71 28.28-65.72 28.28z"/><path d="m695.24 854.92a16 16 0 0 1 -22.63 0l-158-158-67.34-67.34-5.95-6-4.73-4.73a16 16 0 0 1 22.62-22.63l4.73 4.73 6 6 67.33 67.34.35.34 1.82 1.82.26.27 12.58 12.57 20.3 20.3 67.3 67.41.35.34 1 1 1.11 1.12 12.57 12.56 40.36 40.36a16 16 0 0 1 -.03 22.54z"/></g></svg>