<svg id="Layer_1" viewBox="0 0 1000 1000" xmlns="http://www.w3.org/2000/svg" data-name="Layer 1"><path d="m502 657.74a161.9 161.9 0 0 1 -206.66-115.28 161.89 161.89 0 0 1 206.66 115.28z" fill="#33691e"/><path d="m572.83 191.41a469 469 0 0 0 -52.76 31.3 477.08 477.08 0 0 0 -50-31.74 769.36 769.36 0 0 1 51.22-66.85 767.13 767.13 0 0 1 51.54 67.29z" fill="#ff3d00"/><path d="m667.08 442c-18.41 21.47-42.87 31.27-74.76 30a136.16 136.16 0 0 1 -42.1-8.54 166.81 166.81 0 0 0 36.12-43c21.09-36.07 24.73-72.38 10.79-107.95-10-25.46-28.41-48.43-51-68.73a486.75 486.75 0 0 1 56.58-31.43l.52-.25a756 756 0 0 1 95.36-37.1c7.74 51.13 24.63 201.5-31.51 267z" fill="#ff3d00"/><path d="m558.72 404.27a136.41 136.41 0 0 1 -116.46 67.24h-.8c-31.52 0-55.37-10.66-72.88-32.58-53.82-67.37-31.69-217-22.17-267.92a761.88 761.88 0 0 1 92.46 39.58s0 0 .05 0c.55.32 1.1.6 1.67.86 23.21 12 47 26.18 67.86 42.28a15.23 15.23 0 0 0 3.29 2.57c25.14 19.91 45.74 42.67 55.6 67.85 10.32 26.37 7.5 52.57-8.62 80.12z" fill="#ff3d00"/><g fill="#fff" opacity=".5"><path d="m492 667.74a161.9 161.9 0 0 1 -206.66-115.28 161.89 161.89 0 0 1 206.66 115.28z"/><path d="m562.83 201.41a469 469 0 0 0 -52.76 31.3 477.08 477.08 0 0 0 -50-31.74 769.36 769.36 0 0 1 51.22-66.85 767.13 767.13 0 0 1 51.54 67.29z"/><path d="m657.08 452c-18.41 21.47-42.87 31.27-74.76 30a136.16 136.16 0 0 1 -42.1-8.54 166.81 166.81 0 0 0 36.12-43c21.09-36.07 24.73-72.38 10.79-107.95-10-25.46-28.41-48.43-51-68.73a486.75 486.75 0 0 1 56.58-31.43l.52-.25a756 756 0 0 1 95.36-37.1c7.74 51.13 24.63 201.5-31.51 267z"/><path d="m548.72 414.27a136.41 136.41 0 0 1 -116.46 67.24h-.8c-31.52 0-55.37-10.66-72.88-32.58-53.82-67.37-31.69-217-22.17-267.92a761.88 761.88 0 0 1 92.46 39.58s0 0 .05 0c.55.32 1.1.6 1.67.86 23.21 12 47 26.18 67.86 42.28a15.23 15.23 0 0 0 3.29 2.57c25.14 19.91 45.74 42.67 55.6 67.85 10.32 26.37 7.5 52.57-8.62 80.12z"/></g><g fill="#413b32"><path d="m536.24 665.45a193.91 193.91 0 0 0 -265.43-148.07 16 16 0 0 0 -9.69 17.37 194.05 194.05 0 0 0 243.33 155.64 191.43 191.43 0 0 0 22.1-7.57 16 16 0 0 0 9.9-14.78 16.25 16.25 0 0 0 -.21-2.59zm-169.52-24.55a162 162 0 0 1 -71.38-98.44 161.89 161.89 0 0 1 206.66 115.28 162.44 162.44 0 0 1 -135.28-16.84z"/><path d="m691.39 462.77c-23.5 27.42-55 41.29-93.61 41.29-2.24 0-4.49-.05-6.77-.14a168.28 168.28 0 0 1 -72-19.54q-4-2.1-7.83-4.43c-.3-.18-.6-.36-.88-.55s-.57-.39-.84-.6a14.26 14.26 0 0 1 -1.5-1.3c-.22-.21-.44-.44-.65-.67s-.59-.67-.86-1c-.09-.11-.18-.23-.26-.35a4.44 4.44 0 0 1 -.27-.38l-.15-.22c-.13-.2-.26-.41-.38-.62s-.18-.3-.27-.45c-.26-.47-.5-1-.72-1.48a13.61 13.61 0 0 1 -.7-2c-.05-.17-.09-.34-.13-.52-.09-.35-.16-.71-.22-1.08l-.06-.39c0-.36-.09-.73-.11-1.11 0-.14 0-.29 0-.44s0-.42 0-.64 0-.42 0-.62 0-.29 0-.44a.91.91 0 0 1 0-.17c0-.28.05-.57.09-.85s.12-.82.2-1.23.14-.6.22-.88a15.09 15.09 0 0 1 1.08-2.88c.06-.11.11-.23.18-.34a.2.2 0 0 1 .05-.09c.05-.11.11-.22.17-.33l.27-.47c.18-.29.37-.58.57-.86s.34-.48.53-.71.39-.49.59-.72c.21-.24.43-.47.65-.69a15.49 15.49 0 0 1 3.55-2.68l.13-.08a15.67 15.67 0 0 1 2.56-1.1 3.53 3.53 0 0 1 .46-.15 13.22 13.22 0 0 1 1.65-.4c.31-.06.61-.11.92-.15s.75-.08 1.13-.1.6 0 .91 0h1.09c.36 0 .71.06 1.06.11s.59.09.89.15a4.48 4.48 0 0 1 .5.11c.25 0 .5.11.74.18s.7.21 1 .33.37.13.56.21l.32.13c.26.11.51.22.76.35a9.17 9.17 0 0 1 .88.46l.41.23q2.84 1.72 5.75 3.3a136.1 136.1 0 0 0 59.27 16.23c31.89 1.28 56.35-8.52 74.76-30 56.14-65.46 39.25-215.83 31.51-267a756 756 0 0 0 -95.38 37.1l-.52.25a486.75 486.75 0 0 0 -56.58 31.43q-8.8 5.76-16.69 11.63a16 16 0 0 1 -17.68.95 15.23 15.23 0 0 1 -3.29-2.57 16.32 16.32 0 0 1 -1.45-1.69 16 16 0 0 1 3.28-22.38q4.73-3.53 9.76-7a469 469 0 0 1 52.76-31.3q8-4.11 16.43-8.13 6.4-3 12.71-5.89a758.17 758.17 0 0 1 105.34-38.4 16 16 0 0 1 19.81 12.38c1.76 9 42.22 220.5-35.7 311.39z"/><path d="m519.2 482.07a16 16 0 0 1 0-32 16 16 0 1 1 0 32z"/><path d="m604.74 211.21a14.51 14.51 0 0 1 -1.53.86l-.52.25a16 16 0 0 1 -20-6c-3.25-5.1-6.54-10.08-9.82-14.92a767.13 767.13 0 0 0 -51.52-67.29 769.36 769.36 0 0 0 -51.26 66.89q-4.8 7.07-9.57 14.49a16 16 0 0 1 -19.93 6c-.57-.26-1.12-.54-1.67-.86 0 0 0 0-.05 0l-.45-.28a16 16 0 0 1 -4.85-22.11q4-6.19 8-12.15a754.87 754.87 0 0 1 68.09-87 16 16 0 0 1 23.36 0 758.79 758.79 0 0 1 69 88.33q3.84 5.75 7.66 11.73a16 16 0 0 1 -4.94 22.06z"/><path d="m597.13 312.48c-10-25.46-28.41-48.43-51-68.73a332.08 332.08 0 0 0 -26-21 477.08 477.08 0 0 0 -50-31.74c-9.59-5.34-19.18-10.32-28.55-14.92a746.92 746.92 0 0 0 -102.58-41.3 16 16 0 0 0 -20.23 11.68c-2.07 8.89-49.89 218.85 24.81 312.41 23.65 29.62 56.58 44.63 97.91 44.63h1a167 167 0 0 0 62-12.36q7.47-3 14.61-6.77 3.48-1.81 6.87-3.79l2.79-1.67q3.88-2.36 7.63-4.94a164.14 164.14 0 0 0 13.77-10.51 166.81 166.81 0 0 0 36.12-43c21.15-36.11 24.79-72.42 10.85-107.99zm-38.41 91.79a136.41 136.41 0 0 1 -116.46 67.24h-.8c-31.52 0-55.37-10.66-72.88-32.58-53.82-67.37-31.69-217-22.17-267.92a761.88 761.88 0 0 1 92.46 39.58s0 0 .05 0c.56.27 1.11.56 1.67.86 23.21 12 47 26.18 67.86 42.28l3.29 2.57c25.14 19.91 45.74 42.67 55.6 67.85 10.32 26.37 7.5 52.57-8.62 80.12z"/><path d="m520.45 916a16 16 0 0 1 -16-16v-434.7a16 16 0 1 1 32 0v434.7a16 16 0 0 1 -16 16z"/></g></svg>