<svg id="_x30_1_Flower" enable-background="new 0 0 48 48" height="512" viewBox="0 0 48 48" width="512" xmlns="http://www.w3.org/2000/svg"><path d="m42.0001 24c0-2.6017-1.8086-4.7763-4.2357-5.3482.1246-.1058.2603-.191.3779-.3087 2.3431-2.3431 2.3431-6.1422 0-8.4853s-6.1422-2.3431-8.4853 0c-.1176.1176-.2029.2533-.3087.3779-.5718-2.4271-2.7464-4.2357-5.3481-4.2357s-4.7763 1.8086-5.3482 4.2357c-.1058-.1246-.191-.2603-.3087-.3779-2.3431-2.3431-6.1422-2.3431-8.4853 0s-2.3431 6.1422 0 8.4853c.1176.1176.2533.2029.3779.3087-2.4272.572-4.2357 2.7465-4.2357 5.3482s1.8086 4.7763 4.2357 5.3482c-.1246.1058-.2603.191-.3779.3087-2.3431 2.3431-2.3431 6.1421 0 8.4852s6.1422 2.3431 8.4853 0c.1176-.1176.2029-.2533.3087-.3779.5718 2.4271 2.7463 4.2358 5.3482 4.2358 2.6017 0 4.7763-1.8086 5.3482-4.2357.1058.1246.191.2603.3087.3779 2.3431 2.3431 6.1421 2.3431 8.4852 0s2.3431-6.1422 0-8.4853c-.1176-.1176-.2533-.2029-.3779-.3087 2.4271-.5719 4.2357-2.7464 4.2357-5.3482z" fill="#ccc"/><path d="m38.1422 29.6569c.5676.5676.9912 1.2229 1.2838 1.9199l-7.8492 7.8492c-.697-.2926-1.3523-.7162-1.9199-1.2838-.8909-.8909-1.4387-1.9927-1.6521-3.1444l-6.4321 6.4321c-1.8186-.8973-3.0727-2.7648-3.0727-4.9298 0-3.0376 2.4624-5.5 5.5-5.5 1.5858 0 3.0076.6772 4.0098 1.7518.2199-1.134.7688-2.2167 1.647-3.095.8782-.8782 1.9609-1.4271 3.0948-1.647-1.0746-1.0022-1.7516-2.4241-1.7516-4.0099 0-3.0375 2.4624-5.5 5.5-5.5 2.1638 0 4.0304 1.2527 4.9283 3.0696l-6.4348 6.4348c1.1534.2129 2.2568.7606 3.1487 1.6525zm-11.712-23.0853c-.7336-.3625-1.5565-.5716-2.43-.5716-3.0375 0-5.5 2.4625-5.5 5.5 0 .8736.209 1.6965.5715 2.4301zm3.2454 11.7867 8.4819-8.4819c-.0057-.0058-.0093-.0128-.0151-.0186-2.3431-2.3431-6.1422-2.3431-8.4853 0s-2.3431 6.1422 0 8.4853c.0057.0058.0127.0094.0185.0152zm-19.8176 11.2986c-2.3431 2.3431-2.3431 6.1421 0 8.4852.0058.0058.0128.0095.0186.0152l8.4819-8.4819c-.0057-.0058-.0093-.0128-.0151-.0186-2.3432-2.3431-6.1423-2.3431-8.4854.0001zm1.6421-11.1569c-3.0375 0-5.5 2.4624-5.5 5.5 0 .8729.2088 1.6953.5708 2.4284l7.3577-7.3577c-.7331-.3619-1.5555-.5707-2.4285-.5707zm4.9253-9.9249c-2.181-.9166-4.7913-.4935-6.5674 1.2827s-2.1993 4.3864-1.2827 6.5674z" fill="#efefef"/><circle cx="24" cy="24" fill="#f99f10" r="13"/><path d="m14.8078 14.8076c-5.0768 5.0768-5.0768 13.3079 0 18.3848l18.3848-18.3848c-5.0769-5.0768-13.308-5.0768-18.3848 0z" fill="#f9c900"/><path d="m43 24c0-2.4648-1.3647-4.6465-3.4634-5.7471.8848-1.1963 1.3628-2.6377 1.3628-4.1523 0-1.8701-.728-3.6279-2.0503-4.9502-2.4771-2.4766-6.3628-2.707-9.1016-.6865-1.1-2.0987-3.2817-3.4639-5.7475-3.4639-2.4653 0-4.647 1.3652-5.7471 3.4639-2.7368-2.0186-6.6245-1.79-9.1021.6865-1.3223 1.3223-2.0503 3.0801-2.0503 4.9502 0 1.5156.478 2.957 1.3628 4.1523-2.0986 1.1006-3.4633 3.2823-3.4633 5.7471 0 2.4658 1.3652 4.6465 3.4639 5.7471-.8853 1.1953-1.3633 2.6367-1.3633 4.1523 0 1.8701.728 3.6279 2.0503 4.9502 2.4766 2.4756 6.3633 2.7041 9.1021.6865 1.1 2.0987 3.2817 3.4639 5.747 3.4639 2.4658 0 4.6475-1.3652 5.7471-3.4639 2.7383 2.0195 6.626 1.79 9.1021-.6865 1.3223-1.3223 2.0503-3.0801 2.0503-4.9502 0-1.5156-.4785-2.958-1.3628-4.1523 2.0986-1.1006 3.4633-3.2823 3.4633-5.7471zm-5.5649-13.4355c.9443.9443 1.4644 2.2002 1.4644 3.5361 0 1.335-.52 2.5908-1.4673 3.5381-.0391.0391-.0835.0693-.1265.1016-.014.0106-.0276.0222-.0416.0329l-.626.2436c-1.3851-2.9133-3.7414-5.2695-6.6547-6.6547l.243-.6256c.0117-.0152.0242-.0298.0358-.045.0332-.043.064-.0889.1021-.127 1.9497-1.9483 5.1211-1.9493 7.0708 0zm-13.4351 25.4355c-6.6167 0-12-5.3828-12-12s5.3833-12 12-12 12 5.3828 12 12-5.3833 12-12 12zm0-29c2.0011 0 3.7183 1.3068 4.2887 3.2009l-.1635.421c-1.3048-.4031-2.6898-.6219-4.1252-.6219s-2.8203.2187-4.125.6218l-.1637-.4211c.5705-1.894 2.2877-3.2007 4.2887-3.2007zm-13.4351 3.5645c1.9497-1.9482 5.1221-1.9492 7.0698-.001.04.04.0708.085.104.1289.0112.0148.0234.029.0348.0438l.2432.6258c-2.9134 1.3852-5.2697 3.7415-6.6548 6.6548l-.6243-.2428c-.0147-.0114-.0291-.0234-.0438-.0347-.043-.0322-.0879-.0625-.1289-.1035-.9443-.9443-1.4644-2.2002-1.4644-3.5352.0001-1.336.5201-2.5918 1.4644-3.5361zm-3.5649 13.4355c0-2.001 1.3073-3.7193 3.2023-4.2891l.4197.1633c-.4032 1.3049-.622 2.6901-.622 4.1258 0 1.4351.2186 2.8198.6216 4.1244l-.4208.1635c-1.894-.5691-3.2008-2.2863-3.2008-4.2879zm3.5649 13.4355c-.9443-.9443-1.4644-2.2002-1.4644-3.5361 0-1.335.52-2.5908 1.4658-3.5361.0391-.0391.0835-.0693.126-.1016.0148-.0114.0292-.0237.0441-.0352l.6256-.243c1.3851 2.9133 3.7415 5.2694 6.6547 6.6545l-.2432.6258c-.0114.0148-.0236.0289-.0348.0438-.0332.0439-.064.0889-.1025.1279-1.9502 1.9493-5.122 1.9493-7.0713 0zm13.4351 3.5645c-2.0006 0-3.7177-1.3068-4.2886-3.2008l.1636-.421c1.3047.4031 2.6896.6218 4.125.6218s2.8204-.2188 4.1252-.6219l.1635.421c-.5704 1.8941-2.2876 3.2009-4.2887 3.2009zm13.4351-3.5645c-1.9487 1.9492-5.1206 1.9521-7.0693.001-.0396-.0391-.0703-.085-.1035-.1279-.0116-.0153-.0241-.0298-.0358-.045l-.243-.6256c2.9132-1.3851 5.2695-3.7412 6.6545-6.6544l.6245.2426c.0143.011.0283.0226.0427.0336.043.0322.0879.0625.1299.1045.9443.9443 1.4644 2.2002 1.4644 3.5352-.0001 1.3359-.5201 2.5917-1.4644 3.536zm.3651-9.1472-.4218-.1639c.403-1.3046.6216-2.6893.6216-4.1244 0-1.4355-.2188-2.8207-.622-4.1256l.4202-.1635c1.8945.5699 3.2018 2.2881 3.2018 4.2891 0 2.0001-1.3062 3.7177-3.1998 4.2883z" fill="#474747"/></svg>