<svg height="512" viewBox="0 0 512 512" width="512" xmlns="http://www.w3.org/2000/svg"><g id="_27.Menu" data-name="27.Menu"><rect fill="#f5d367" height="31.951" rx="15.975" width="500" x="6" y="367.828"/><path d="m466.2 367.8309h-420.4c0-111.24 86.4-202.29 195.76-209.71q7.155-.495 14.44-.49 7.2751 0 14.44.49c109.36 7.4201 195.76 98.47 195.76 209.71z" fill="#cfdce5"/><path d="m266 157.86c-1.49.07-2.97.16-4.44.26-109.36 7.42-195.76 98.47-195.76 209.71h-20c0-111.24 86.4-202.29 195.76-209.71q7.155-.495 14.44-.49c3.35 0 6.69.08 10 .23z" fill="#c2cace"/><path d="m281.22 137.451a25.15 25.15 0 0 1 -10.78 20.67q-7.155-.495-14.44-.49-7.2751 0-14.44.49a25.221 25.221 0 1 1 39.66-20.67z" fill="#fcd8d8"/><path d="m490.0244 404.7793h-468.0488a20.9756 20.9756 0 1 1 0-41.9512h468.0488a20.9756 20.9756 0 0 1 0 41.9512zm-468.0488-31.9512a10.9756 10.9756 0 0 0 0 21.9512h468.0488a10.9756 10.9756 0 0 0 0-21.9512z"/><path d="m466.2 372.83h-420.4a5 5 0 0 1 -5-5 213.5731 213.5731 0 0 1 41.292-126.7788 5 5 0 0 1 8.0762 5.8974 203.4918 203.4918 0 0 0 -39.3088 115.8814h410.2806c-2.5576-105.2979-85.5478-192.564-191.038-199.7212a208.8241 208.8241 0 0 0 -28.1973-.0005 204.7609 204.7609 0 0 0 -98.3789 33.0708 5 5 0 1 1 -5.49-8.3584 214.7832 214.7832 0 0 1 103.1865-34.6895 219.1328 219.1328 0 0 1 29.5635 0 215.207 215.207 0 0 1 200.4142 214.6988 5 5 0 0 1 -5 5z"/><path d="m103.6592 228a5 5 0 0 1 -3.6279-8.44c3.3115-3.4951 6.8173-6.9423 10.4189-10.2456a5 5 0 0 1 6.76 7.37c-3.4307 3.146-6.7686 6.4277-9.9209 9.7544a4.9849 4.9849 0 0 1 -3.6301 1.5612z"/><path d="m270.44 163.1211c-.1153 0-.23-.0039-.3448-.0117a208.8713 208.8713 0 0 0 -28.1894 0 5.023 5.023 0 0 1 -3.2061-.8882 30.22 30.22 0 1 1 34.6016 0 5 5 0 0 1 -2.8613.8999zm-14.44-10.4902c4.3477 0 8.68.1279 12.9043.3808a20.22 20.22 0 1 0 -25.8086 0c4.2243-.2529 8.5566-.3808 12.9043-.3808z"/></g></svg>