<svg enable-background="new 0 0 512 512" viewBox="0 0 512 512" xmlns="http://www.w3.org/2000/svg"><g id="_x32_2_x2C__Forest_x2C__trees_x2C__nature_x2C__woods_x2C__landscape_x2C__woodland"><g><path d="m426.77 212.6-58.02 154.51c3.43 48.06 32.21 63.21 67.2 63.21 37.31 0 67.55-17.22 67.55-73.18 0-59.047-34.727-161.204-76.73-144.54z" fill="#b5f84d"/><path d="m426.77 212.6c-7.36-87.57-37.37-196.6-73.27-196.6-24.76 0-46.72 51.87-60.37 112.79l39.84 237.08c11.398 3.164 24.86 3.349 35.78 1.24 60.355-11.643 63.148-93.432 58.02-154.51z" fill="#7bd94c"/><path d="m278.5 121c-18.8 0-35.58 38.76-46.57 85.91-14.805 117.942-13.43 106.089-13.43 109.09 0 74.56 26.86 97.5 60 97.5 48.608 0 60-49.025 60-97.5 0-73.171-26.538-195-60-195z" fill="#b5f84d"/><path d="m231.93 206.91c-6.19-72.27-30-160.91-58.43-160.91-18.22 0-34.54 36.41-45.54 81.58l58.19 209.67c12.76-2.67 24.03-9.82 32.36-23.43v-.01c17.114-27.954 16.233-74.212 13.42-106.9z" fill="#67b663"/><path d="m98.5 406c-49.71 0-90-22.94-90-97.5s40.29-195 90-195c49.885 0 90 120.879 90 195 0 66.323-31.959 97.5-90 97.5z" fill="#b5f84d"/><g><path d="m433.443 203.392c-2.541-25.72-6.831-52.339-12.539-77.529-.916-4.041-4.936-6.576-8.972-5.657-4.04.915-6.572 4.932-5.657 8.972 10.478 46.245 13.07 84.638 13.021 84.051 4.714 56.108 3.234 135.87-51.967 146.519-8.12 1.567-17.375 1.63-25.334.393 10.116-48.536-.772-124.141-13.837-171.591-7.974-28.957-16.962-49.596-26.869-61.814 16.451-71.275 37.974-103.236 52.211-103.236 10.949 0 24.482 18.37 36.201 49.139 1.475 3.873 5.812 5.816 9.678 4.34 3.871-1.475 5.814-5.808 4.34-9.678-14.86-39.018-31.756-58.801-50.219-58.801-32.874 0-54.115 62.812-65.044 107.377-3.238-1.573-6.557-2.377-9.956-2.377-19.191 0-33.481 25.458-43.634 55.253-5.716-36.469-24.604-130.253-61.366-130.253-23.629 0-39.833 38.943-49.885 75.877-8.193-5.556-16.603-8.377-25.115-8.377-39.735 0-70.162 61.189-85.388 118.453-1.064 4.003 1.317 8.11 5.321 9.175 4.003 1.065 8.11-1.319 9.175-5.321 17.066-64.184 45.555-107.307 70.892-107.307 7.841 0 16.003 4.031 24.257 11.982 15.52 14.945 30.272 42.615 41.544 77.911 14.017 43.899 27.867 117.313 2.869 156.614-12.038 18.945-32.599 29.279-61.17 30.791v-29.798c0-12.406 10.094-22.5 22.5-22.5 4.143 0 7.5-3.357 7.5-7.5s-3.357-7.5-7.5-7.5c-8.436 0-16.228 2.801-22.5 7.521v-22.521c0-12.406 10.094-22.5 22.5-22.5 4.143 0 7.5-3.357 7.5-7.5s-3.357-7.5-7.5-7.5c-8.436 0-16.228 2.801-22.5 7.521v-60.021c0-4.143-3.357-7.5-7.5-7.5s-7.5 3.357-7.5 7.5v37.521c-6.272-4.72-14.064-7.521-22.5-7.521-4.143 0-7.5 3.357-7.5 7.5s3.357 7.5 7.5 7.5c12.406 0 22.5 10.094 22.5 22.5v22.521c-6.272-4.719-14.064-7.521-22.5-7.521-4.143 0-7.5 3.357-7.5 7.5s3.357 7.5 7.5 7.5c12.406 0 22.5 10.094 22.5 22.5v52.289c-63.482-3.274-79.777-49.162-73.893-112.193.385-4.124-2.646-7.779-6.771-8.164-4.106-.375-7.778 2.646-8.164 6.771-8.384 89.918 30.419 125.839 88.828 128.601v90.196c0 4.143 3.357 7.5 7.5 7.5s7.5-3.357 7.5-7.5v-90.177c25.117-1.177 45.2-8.376 60-21.479v111.656c0 4.143 3.357 7.5 7.5 7.5s7.5-3.357 7.5-7.5v-129.907c5.195-8.698 9.088-18.835 11.578-30.255 7.092-2.099 13.415-5.406 18.958-9.922 2.716 42.539 16.854 82.902 59.464 87.213v82.871c0 4.143 3.357 7.5 7.5 7.5s7.5-3.357 7.5-7.5v-82.871c27.021-2.733 43.564-20.381 52.107-45.935 2.564.451 5.198.784 7.893 1v127.806c0 4.143 3.357 7.5 7.5 7.5s7.5-3.357 7.5-7.5v-127.812c.365-.029.737-.044 1.1-.077 5.262 38.303 28.024 59.56 66.351 61.968v65.921c0 4.143 3.357 7.5 7.5 7.5s7.5-3.357 7.5-7.5v-65.916c32.417-2.062 67.549-18.574 67.549-80.444 0-29.456-7.799-66.635-20.352-97.027-10.412-25.21-30.038-58.959-57.205-56.721zm-238.247 122.75c5.446-58.02-19.4-158.801-58.941-200.828 12.568-49.558 27.657-71.814 37.245-71.814 8.103 0 22.183 16.77 35.196 64.031 10.512 38.173 17.304 86.638 17.304 123.469 0 45.918-10.357 74.465-30.804 85.142zm90.804 79.372v-67.014c0-12.406 10.094-22.5 22.5-22.5 4.143 0 7.5-3.357 7.5-7.5s-3.357-7.5-7.5-7.5c-8.436 0-16.228 2.801-22.5 7.521v-37.521c0-4.143-3.357-7.5-7.5-7.5s-7.5 3.357-7.5 7.5v60.021c-6.272-4.719-14.064-7.521-22.5-7.521-4.143 0-7.5 3.357-7.5 7.5s3.357 7.5 7.5 7.5c12.406 0 22.5 10.094 22.5 22.5v44.514c-38.102-4.99-45-51.237-45-89.514 0-.003 0-.006 0-.009 16.799-29.447 16.32-74.695 13.52-108.571 12.788-54.201 29.135-78.92 38.98-78.92 4.52 0 8.786 5.105 9.587 5.835 7.584 8.352 16.838 26.339 25.61 58.196 10.511 38.173 17.303 86.638 17.303 123.469 0 38.197-7.071 84.547-45 89.514zm157.45 17.039c.001-.151.05-14.977.05-16.553 0-12.406 10.094-22.5 22.5-22.5 4.143 0 7.5-3.357 7.5-7.5s-3.357-7.5-7.5-7.5c-8.458 0-16.269 2.817-22.55 7.56v-37.56c0-4.143-3.357-7.5-7.5-7.5s-7.5 3.357-7.5 7.5v44.981c-6.263-4.696-14.037-7.481-22.45-7.481-4.143 0-7.5 3.357-7.5 7.5s3.357 7.5 7.5 7.5c11.927 0 21.712 9.331 22.45 21.076v10.472c-30.598-2.225-47.546-18.557-51.586-49.698 57.864-16.772 62.221-94.496 57.874-154.507 29.569-2.315 61.262 81.171 61.262 138.797 0 41.368-17.212 62.835-52.55 65.413z"/><path d="m473.5 81.748c-14.357-12.869-37.5-2.761-37.5 16.752 0 4.143 3.357 7.5 7.5 7.5s7.5-3.357 7.5-7.5c0-4.136 3.364-7.5 7.5-7.5s7.5 3.364 7.5 7.5c0 4.143 3.357 7.5 7.5 7.5s7.5-3.357 7.5-7.5c0-4.136 3.364-7.5 7.5-7.5s7.5 3.364 7.5 7.5c0 4.143 3.357 7.5 7.5 7.5s7.5-3.357 7.5-7.5c0-12.406-10.094-22.5-22.5-22.5-5.758 0-11.016 2.177-15 5.748z"/><path d="m68.5 46c4.143 0 7.5-3.357 7.5-7.5 0-4.136 3.364-7.5 7.5-7.5s7.5 3.364 7.5 7.5c0 4.143 3.357 7.5 7.5 7.5s7.5-3.357 7.5-7.5c0-4.136 3.364-7.5 7.5-7.5s7.5 3.364 7.5 7.5c0 4.143 3.357 7.5 7.5 7.5s7.5-3.357 7.5-7.5c0-19.513-23.143-29.621-37.5-16.752-14.357-12.869-37.5-2.761-37.5 16.752 0 4.143 3.357 7.5 7.5 7.5z"/><path d="m8.5 91c4.143 0 7.5-3.357 7.5-7.5 0-4.136 3.364-7.5 7.5-7.5s7.5 3.364 7.5 7.5c0 4.143 3.357 7.5 7.5 7.5s7.5-3.357 7.5-7.5c0-4.136 3.364-7.5 7.5-7.5s7.5 3.364 7.5 7.5c0 4.143 3.357 7.5 7.5 7.5s7.5-3.357 7.5-7.5c0-19.513-23.143-29.621-37.5-16.752-14.357-12.869-37.5-2.761-37.5 16.752 0 4.143 3.357 7.5 7.5 7.5z"/><path d="m421 61c4.143 0 7.5-3.357 7.5-7.5 0-4.136 3.364-7.5 7.5-7.5s7.5 3.364 7.5 7.5c0 4.143 3.357 7.5 7.5 7.5s7.5-3.357 7.5-7.5c0-4.136 3.364-7.5 7.5-7.5s7.5 3.364 7.5 7.5c0 4.143 3.357 7.5 7.5 7.5s7.5-3.357 7.5-7.5c0-19.513-23.143-29.621-37.5-16.752-14.357-12.869-37.5-2.761-37.5 16.752 0 4.143 3.357 7.5 7.5 7.5z"/><path d="m256 76c20.678 0 37.5-16.822 37.5-37.5s-16.822-37.5-37.5-37.5-37.5 16.822-37.5 37.5 16.822 37.5 37.5 37.5zm0-60c12.406 0 22.5 10.094 22.5 22.5s-10.094 22.5-22.5 22.5-22.5-10.094-22.5-22.5 10.094-22.5 22.5-22.5z"/><circle cx="406" cy="98.5" r="7.5"/><circle cx="15.6" cy="256" r="7.5"/></g></g></g><g id="Layer_1"/></svg>