<svg height="512" viewBox="0 0 128 128" width="512" xmlns="http://www.w3.org/2000/svg"><g><g><path d="m68.648 71.507a28.167 28.167 0 0 0 -28.167 28.167v1.789h56.334v-1.789a28.167 28.167 0 0 0 -28.167-28.167z" fill="#09627d"/><ellipse cx="68.648" cy="61.474" fill="#ffccbe" rx="23.243" ry="20.69"/><path d="m93.128 56.877c0 12.035-10.96-8.432-24.48-8.432s-24.48 20.467-24.48 8.432 10.96-21.792 24.48-21.792 24.48 9.756 24.48 21.792z" fill="#b373f0"/><path d="m68.648 26.537a22.907 22.907 0 0 0 -22.907 22.907h45.814a22.907 22.907 0 0 0 -22.907-22.907z" fill="#09627d"/><path d="m38.463 42.166a7.279 7.279 0 0 0 -7.278 7.278h14.556a7.278 7.278 0 0 0 -7.278-7.278z" fill="#07485e"/><circle cx="68.648" cy="86.5" fill="#45ffe7" r="8.833"/><path d="m77.44 95.333h-17.584l-1 6.13h19.584z" fill="#ffd322"/><path d="m73.044 65.361a1.75 1.75 0 0 0 -1.75 1.75 2.646 2.646 0 1 1 -5.292 0 1.75 1.75 0 0 0 -3.5 0 6.146 6.146 0 1 0 12.292 0 1.75 1.75 0 0 0 -1.75-1.75z" fill="#e1a8a2"/><g fill="#07485e"><path d="m85.573 90.917a1.749 1.749 0 0 0 -1.75 1.75v8.8a1.75 1.75 0 0 0 3.5 0v-8.8a1.749 1.749 0 0 0 -1.75-1.75z"/><path d="m51.722 90.917a1.75 1.75 0 0 0 -1.75 1.75v8.8a1.75 1.75 0 0 0 3.5 0v-8.8a1.75 1.75 0 0 0 -1.75-1.75z"/></g></g><g fill="#002e49"><path d="m90.069 78.79a1.75 1.75 0 0 0 -2.506 2.443 26.275 26.275 0 0 1 7.5 18.441v1.789a1.75 1.75 0 0 0 3.5 0v-1.789a29.75 29.75 0 0 0 -8.494-20.884z"/><path d="m74.794 67.111a1.75 1.75 0 0 0 -3.5 0 2.646 2.646 0 1 1 -5.292 0 1.75 1.75 0 0 0 -3.5 0 6.146 6.146 0 1 0 12.292 0z"/><path d="m56.791 31.593a1.739 1.739 0 0 0 .907-.255c.258-.156.52-.309.786-.453a1.75 1.75 0 0 0 -1.678-3.072q-.469.257-.926.535a1.75 1.75 0 0 0 .911 3.245z"/><path d="m79.167 95.051a1.752 1.752 0 0 0 -1.728-1.468h-.95a10.507 10.507 0 0 0 1.811-11.407c9.25-3.457 15.327-11.522 15.341-20.67 1.065-1.116 1.239-3 1.239-4.629a21.345 21.345 0 0 0 -1.59-8.084 24.669 24.669 0 0 0 -29.984-23.425 1.75 1.75 0 1 0 .756 3.418 21.175 21.175 0 0 1 25.671 18.908h-42.17a21.129 21.129 0 0 1 5.2-12.223 1.75 1.75 0 0 0 -2.627-2.313 24.62 24.62 0 0 0 -5.295 9.9 9.023 9.023 0 0 0 -15.4 6.384 1.749 1.749 0 0 0 1.75 1.75h12.02a21.268 21.268 0 0 0 -.788 5.683c0 1.99.236 4.388 2.079 5.262a2.939 2.939 0 0 0 1.278.291c1.891 0 4.02-1.739 6.961-4.138 3.04-2.481 6.811-5.546 10.908-7.1h26.782a17.81 17.81 0 0 1 .947 5.683 8.193 8.193 0 0 1 -.172 1.944 29.175 29.175 0 0 1 -4.433-3.241c-1.152-.94-2.459-2.006-3.851-3.043a1.751 1.751 0 0 0 -2.09 2.809c1.331.989 2.605 2.029 3.729 2.946 2.235 1.824 4 3.26 5.55 3.847-.3 7.655-5.74 14.332-13.843 17.035a10.542 10.542 0 0 0 -15.243 0c-6.889-2.308-12.024-7.621-13.459-14a1.75 1.75 0 0 0 -3.415.767 21.617 21.617 0 0 0 5.782 10.4 30.01 30.01 0 0 0 -11.2 23.334v1.789a1.75 1.75 0 0 0 3.5 0v-1.786a26.494 26.494 0 0 1 10.4-20.991 25.583 25.583 0 0 0 6.367 3.496 10.545 10.545 0 0 0 .067 8.821 1.75 1.75 0 1 0 3.167-1.49 7.085 7.085 0 1 1 6.413 4.071h-8.791a1.751 1.751 0 0 0 -1.727 1.468l-1 6.13a1.75 1.75 0 0 0 1.727 2.032h19.583a1.751 1.751 0 0 0 1.728-2.032zm-40.7-51.135a5.539 5.539 0 0 1 5.245 3.778h-10.493a5.539 5.539 0 0 1 5.244-3.778zm12.056 11.664a29.125 29.125 0 0 1 -4.433 3.241 8.137 8.137 0 0 1 -.172-1.944 17.805 17.805 0 0 1 .947-5.683h9.4c-2.11 1.429-4.036 2.994-5.742 4.386zm10.392 44.133.429-2.63h14.608l.429 2.63z"/><path d="m85.573 90.917a1.749 1.749 0 0 0 -1.75 1.75v8.8a1.75 1.75 0 0 0 3.5 0v-8.8a1.749 1.749 0 0 0 -1.75-1.75z"/><path d="m51.722 90.917a1.75 1.75 0 0 0 -1.75 1.75v8.8a1.75 1.75 0 0 0 3.5 0v-8.8a1.75 1.75 0 0 0 -1.75-1.75z"/></g></g></svg>