<svg id="Capa_1" enable-background="new 0 0 511.945 511.945" height="512" viewBox="0 0 511.945 511.945" width="512" xmlns="http://www.w3.org/2000/svg"><g><g><path d="m120.948 290.805 28.693 87.934c5.168 15.838 19.056 27.237 35.597 29.218l209.966 25.144c14.186 1.699 28.343-3.384 38.21-13.717l7.511-7.867c5.251-5.499 2.155-14.632-5.357-15.805l-160.48-25.057c-15.17-2.369-27.318-13.827-30.57-28.832l-18.03-83.207z" fill="#e1dee2"/><path d="m435.568 395.712-160.48-25.057c-15.17-2.369-27.318-13.827-30.57-28.832l-18.03-83.207-19.294 5.885 16.755 77.323c3.251 15.005 15.4 26.463 30.57 28.832l160.48 25.057c7.512 1.173 10.608 10.306 5.357 15.805l-7.511 7.867c-6.381 6.683-14.562 11.153-23.38 13.029l5.739.687c14.186 1.699 28.343-3.383 38.21-13.717l7.511-7.867c5.251-5.499 2.155-14.632-5.357-15.805z" fill="#cbc4cc"/><path d="m69.451 287.275-29.706 68.027c-5.626 12.884 1.019 27.818 14.357 32.264l15.362 5.121c11.463 3.821 23.976-1.507 29.165-12.419l30.516-64.169z" fill="#efedf0"/><path d="m69.451 287.275-3.582 8.202 42.707 20.621-30.516 64.17c-2.485 5.225-6.658 9.151-11.582 11.424l2.986.995c11.463 3.821 23.976-1.507 29.165-12.419l30.516-64.169z" fill="#e1dee2"/><path d="m89.541 416.619v27.147c0 13.21-10.709 23.919-23.919 23.919h-12.432c-13.21 0-23.919-10.709-23.919-23.919v-31.291c0-16.326 15.995-27.855 31.483-22.692l12.431 4.144c9.768 3.256 16.356 12.397 16.356 22.692z" fill="#efedf0"/><path d="m73.186 393.927-12.431-4.144c-6.133-2.044-12.341-1.464-17.608.987l9.47 3.157c9.767 3.256 16.355 12.396 16.355 22.692v27.147c0 11.823-8.579 21.635-19.851 23.568 1.323.227 2.681.352 4.069.352h12.431c13.21 0 23.919-10.709 23.919-23.919v-27.147c.001-10.296-6.587-19.437-16.354-22.693z" fill="#e1dee2"/><path d="m496.183 209.62-34.459-48.682c-7.632-10.783-19.122-18.213-32.087-20.75l-127.755-24.999c-9.767-1.911-18.387-7.597-23.989-15.823l-26.605-39.068c-7.819-11.482-21.456-17.56-35.222-15.7l-76.037 10.275c-8.407 1.136-16.158 5.158-21.927 11.377l-49.147 52.98c-7.039 7.589-9.204 18.495-5.597 28.197l10.714 28.815c3.932 10.575.984 22.478-7.429 29.995l-2.254 2.014c-13.506 12.068-21.226 29.321-21.226 47.432 0 28.091 18.427 52.856 45.334 60.927 23.759 7.127 49.515.736 67.187-16.67l20.814-20.501h286.047c12.434 0 24.197-5.639 31.984-15.333 12.653-15.755 13.329-37.991 1.654-54.486z" fill="#efedf0"/><g><path d="m496.183 209.62-34.459-48.682c-7.632-10.783-19.122-18.213-32.087-20.75l-127.755-24.999c-9.767-1.911-18.387-7.597-23.989-15.823l-26.605-39.068c-7.819-11.482-21.456-17.56-35.222-15.7l-6.434.87c8.445 2.198 16 7.36 21.088 14.831l26.605 39.068c5.602 8.226 14.222 13.912 23.989 15.823l127.755 24.999c12.964 2.537 24.455 9.967 32.087 20.75l34.459 48.682c11.675 16.495 11 38.731-1.656 54.486-7.787 9.694-19.55 15.333-31.984 15.333h20.569c12.434 0 24.197-5.639 31.984-15.333 12.654-15.756 13.33-37.992 1.655-54.487z" fill="#e1dee2"/></g><path d="m389.65 388.546-50.73-7.92 29.05-32.92c5.21-5.91 14.96-3.05 16.15 4.74z" fill="#fde2db"/><path d="m365.141 363.135 3.558 22.14 20.952 3.271-5.53-36.1c-1.19-7.79-10.94-10.65-16.15-4.74l-7.64 8.658c2.425 1.281 4.327 3.611 4.81 6.771z" fill="#ffcebf"/><path d="m440.05 279.436-22.01 40.87c-3.56 6.62-13.1 6.48-16.48-.23l-20.45-40.64z" fill="#fde2db"/><path d="m419.624 279.436-13.494 25.639c-2.041 3.796-6.047 5.358-9.731 4.745l5.161 10.257c3.38 6.71 12.92 6.85 16.48.23l22.01-40.87h-20.426z" fill="#ffcebf"/><path d="m381.11 279.436-23.18 37.44c-3.98 6.42-13.53 5.67-16.46-1.28l-15.26-36.16z" fill="#fde2db"/><path d="m360.684 279.436-14.871 23.485c-1.831 2.953-4.84 4.371-7.842 4.384l3.499 8.291c2.93 6.95 12.48 7.7 16.46 1.28l23.18-37.44z" fill="#ffcebf"/><path d="m439.86 397.536c-1.18-.91-2.63-1.56-4.29-1.82l-45.92-7.17 33.56-34.92c5.74-5.98 15.84-2.02 15.99 6.27z" fill="#fde2db"/><path d="m439.2 359.896c-.15-8.29-10.25-12.25-15.99-6.27l-9.253 9.628c2.628 1.512 4.553 4.284 4.618 7.867l.717 22.053 16.278 2.542c1.66.26 3.11.91 4.29 1.82z" fill="#ffcebf"/><g><path d="m443.54 413.833c-.541 0-1.086-.058-1.627-.179-3.033-.674-5.251-3.102-5.792-5.979-.718-3.463 1.102-7.056 4.491-8.451 3.829-1.579 8.213.25 9.791 4.08l.072.174c1.064 2.584.603 5.545-1.196 7.684-1.442 1.713-3.553 2.671-5.739 2.671z"/></g><path d="m326.21 279.436-24.67 40c-3.76 6.09-12.71 5.82-16.09-.49l-21.2-39.51z" fill="#fde2db"/><path d="m305.784 279.436-15.494 25.928c-2.223 3.601-6.257 4.96-9.884 4.18l5.045 9.402c3.38 6.31 12.33 6.58 16.09.49l24.67-40z" fill="#ffcebf"/><g fill="#7a6d79"><path d="m157.389 110.702 61.861-3.521c15.227-.867 29.85 6.066 38.817 18.402l18.603 25.593c7.496 10.312 1.194 24.886-11.454 26.488l-34.5 4.369c-17.854 2.261-35.851-2.928-49.762-14.346l-33.247-27.29c-11.805-9.689-5.564-28.828 9.682-29.695z"/><path d="m157.389 110.702 61.861-3.521c15.227-.867 29.85 6.066 38.817 18.402l18.603 25.593c7.496 10.312 1.194 24.886-11.454 26.488l-34.5 4.369c-17.854 2.261-35.851-2.928-49.762-14.346l-33.247-27.29c-11.805-9.689-5.564-28.828 9.682-29.695z"/><path d="m157.389 110.702 61.861-3.521c15.227-.867 29.85 6.066 38.817 18.402l18.603 25.593c7.496 10.312 1.194 24.886-11.454 26.488l-34.5 4.369c-17.854 2.261-35.851-2.928-49.762-14.346l-33.247-27.29c-11.805-9.689-5.564-28.828 9.682-29.695z"/></g><path d="m276.669 151.176-18.603-25.593c-8.967-12.336-23.59-19.269-38.817-18.402l-10.437.594c11.389 1.956 21.737 8.25 28.685 17.808l18.603 25.593c7.496 10.312 1.194 24.886-11.454 26.488l-32.249 4.083c6.009.938 12.17 1.064 18.318.285l34.5-4.369c12.648-1.601 18.95-16.175 11.454-26.487z" fill="#685e68"/></g><g><path d="m502.305 205.287-34.458-48.683c-8.786-12.413-21.844-20.856-36.768-23.777l-23.397-4.578c-4.065-.795-8.006 1.855-8.801 5.92s1.855 8.005 5.92 8.801l23.397 4.578c11.124 2.177 20.857 8.471 27.406 17.723l34.458 48.683c9.689 13.689 9.121 32.381-1.381 45.456-6.396 7.963-15.923 12.53-26.137 12.53h-270.957c9.121-18.878 5.797-43.895 5.611-45.227-.574-4.103-4.365-6.965-8.466-6.389-4.103.574-6.963 4.364-6.389 8.466 1.385 9.194 1.698 35.786-11.109 45.306-12.021 11.404-27.608 30.346-44.502 34.905-38.37 12.474-76.099-15.198-76.069-53.317 0-15.958 6.825-31.208 18.724-41.839 11.724-8.935 17.23-25.808 11.716-40.216l-10.714-28.815c-2.636-7.089-1.078-14.937 4.066-20.482l49.145-52.982c4.575-4.932 10.766-8.145 17.433-9.045l76.037-10.275c11.015-1.49 21.758 3.295 28.019 12.489 13.493 17.385 30.142 55.297 55.353 58.029l69.262 13.553c4.064.797 8.005-1.855 8.801-5.92.795-4.065-1.855-8.005-5.92-8.801l-69.262-13.553c-18.317-1.375-35.787-39.876-45.835-51.752-9.48-13.92-25.735-21.165-42.426-18.911l-76.038 10.276c-10.104 1.366-19.487 6.234-26.421 13.709l-49.146 52.98c-9.019 9.722-11.75 23.482-7.128 35.911l10.714 28.815c3.149 8.002-.118 18.291-7.65 23.803-15.081 13.475-23.729 32.802-23.729 53.025.002 17.134 6.433 34.596 18.508 47.84l-10.474 23.995-14.102-6.157c-3.797-1.658-8.217.077-9.875 3.873-1.657 3.796.077 8.217 3.873 9.875l14.103 6.157-4.817 11.035c-4.238 10.302-3.418 23.073 4.807 32.849-8.978 4.801-16.131 16.26-15.914 27.324v9.151h-14.273c-4.142 0-7.5 3.358-7.5 7.5s3.358 7.5 7.5 7.5h14.271v7.14c0 17.325 14.095 31.419 31.419 31.419h12.432c17.285.069 31.973-14.777 31.419-32.508l12.674 2.684c3.148.675 7.467-1.094 8.891-5.784.858-4.052-1.731-8.033-5.784-8.891l-15.782-3.342v-10.725c0-6.837-2.205-13.271-6.037-18.522 6.116-3.038 11.277-8.049 14.398-14.611l22.479-47.263 14.629 44.839c6.052 18.542 22.475 32.022 41.838 34.34l209.959 25.14c14.691 2.11 33.795-4.169 44.524-15.976 8.403-8.981 17.721-15.724 8.474-30.147l-.608-34.66c-.124-6.826-4.31-12.845-10.664-15.334-6.354-2.491-13.51-.916-18.232 4.003l-23.036 23.973-3.23-21.088c-.995-6.514-5.543-11.714-11.869-13.571-6.325-1.855-12.964.06-17.319 5.001l-26.328 29.836-59.77-9.334c-12.018-1.877-21.823-11.124-24.397-23.008l-5.961-27.51c-.877-4.048-4.872-6.617-8.918-5.742-4.048.877-6.619 4.87-5.742 8.918l5.961 27.51c3.878 17.898 18.644 31.824 36.743 34.652l160.478 25.06c5.449 1.112-5.379 9.366-6.426 11.081-8.186 8.576-20.104 12.854-31.893 11.442l-209.96-25.14c-13.589-1.627-25.114-11.087-29.362-24.1l-18.239-55.903c12.585-4.794 25.731-18.212 35.083-27.701l21.997 57.001c1.149 2.977 3.988 4.802 6.999 4.802.898 0 1.811-.163 2.699-.505 3.864-1.491 5.788-5.833 4.297-9.697l-22.177-57.464h72.335l19.074 35.547c2.868 5.355 8.207 8.664 14.28 8.85.181.005.36.008.539.008 5.863 0 11.166-2.951 14.266-7.973l17.033-27.617 9.602 22.754c2.45 5.811 7.876 9.726 14.162 10.217.444.035.887.052 1.327.052 5.79 0 11.167-2.967 14.259-7.955l16.126-26.047 14.429 28.673c2.828 5.615 8.491 9.155 14.778 9.239.077.001.152.001.229.001 6.191 0 11.838-3.369 14.775-8.829l19.884-36.922h18.016c14.784 0 28.573-6.611 37.831-18.137 14.675-18.268 15.469-44.386 1.93-63.514zm-73.684 153.533c.551-.574 1.205-.717 1.942-.428.741.29 1.124.842 1.138 1.635l.483 27.569-27.146-4.238zm-55.025-6.154c.621-.704 1.347-.678 1.845-.531.726.213 1.151.698 1.266 1.446l3.978 25.973-27.085-4.229zm-307.974 107.519h-12.432c-9.053 0-16.419-7.366-16.419-16.419v-31.291c.044-8.193 6.643-16.201 16.367-16.437 1.748 0 17.676 5.004 17.676 5.004 6.716 2.238 11.228 8.498 11.228 15.577v27.146c-.001 9.055-7.367 16.42-16.42 16.42zm26.235-83.141c-3.556 7.478-12.165 11.142-20.021 8.528l-15.363-5.121c-8.258-2.648-13.738-12.636-9.85-22.145l19.357-44.344c13.806 9.618 31.761 14.489 49.889 12.594zm203.302-61.549c-.449.728-1.11.878-1.579.849-.471-.014-1.116-.189-1.521-.944l-15.271-28.46h35.982zm56.397-2.571c-.478.772-1.171.886-1.666.848-.495-.039-1.159-.259-1.51-1.092l-10.862-25.74h30.126zm59.879 3.83c-.423.786-1.112.926-1.594.937-.498-.007-1.177-.184-1.581-.986l-14.978-29.765h34.208z"/><path d="m450.904 222.251c1.507 0 3.028-.453 4.349-1.395 3.372-2.405 4.156-7.089 1.751-10.461l-23.45-32.878c-2.405-3.373-7.088-4.158-10.461-1.751-3.372 2.405-4.156 7.089-1.751 10.461l23.45 32.878c1.463 2.053 3.77 3.146 6.112 3.146z"/><path d="m282.736 146.766-18.603-25.592c-10.515-14.467-27.455-22.505-45.31-21.481l-61.861 3.521c-22.246 1.133-30.455 29.608-14.015 42.98l33.247 27.29c13.082 10.737 29.595 16.561 46.387 16.56 5.183.355 37.698-4.333 43.579-4.94 23.808-3.015 47.981-15.64 48.998-16.175 3.663-1.93 5.068-6.462 3.14-10.127-1.927-3.664-6.461-5.07-10.128-3.146-.142.075-9.14 4.762-21.035 8.895.932-6.195-.58-12.531-4.399-17.785zm-52.964 27.826c-15.737 1.99-31.798-2.637-44.062-12.703l-33.247-27.29c-6.761-7.145-2.794-14.999 5.351-16.41l61.861-3.521c12.746-.721 24.823 5.004 32.324 15.325l18.603 25.592c3.294 4.415 1.626 13.432-6.33 14.638z"/><circle cx="77.647" cy="251.852" r="7.613"/><circle cx="89.236" cy="280.781" r="7.613"/></g></g></svg>