<svg clip-rule="evenodd" fill-rule="evenodd" stroke-linejoin="round" stroke-miterlimit="2" viewBox="0 0 96 96" xmlns="http://www.w3.org/2000/svg"><g><g><path d="m60.568 61.356c.837-.863-10.495 2.896-10.495 2.896s7.024 20.965 9.279 27.695c.41 1.226 1.559 2.053 2.853 2.053h8.285c.304 0 .592-.138.782-.375.191-.237.263-.548.197-.845-.088-.397-.188-.849-.285-1.288-.27-1.216-1.26-2.14-2.492-2.325-.248-.037-.501-.075-.75-.112-1.262-.189-2.268-1.154-2.509-2.407-1.231-6.401-4.865-25.292-4.865-25.292z" fill="#b6821b"/><path d="m38.195 81.505s-.721 2.28-1.548 4.892c-.561 1.775-.243 3.712.857 5.214 1.1 1.501 2.85 2.389 4.712 2.389h9.704c.554 0 1.003-.449 1.003-1.003 0-.363 0-.787 0-1.203 0-1.185-.696-2.259-1.776-2.745-.42-.188-.871-.391-1.307-.587-1.284-.577-1.996-1.967-1.715-3.347.823-4.026 2.479-12.14 3.222-15.777.227-1.108 1.056-1.995 2.146-2.297 6.213-1.771 15.936-6.443 18.247-18.478 3.461-18.031-17.786-33.634-17.786-33.634s-5.781 12.393-23.616 16.676c-12.948 3.109-24.736 16.269-26.832 27.906-3.458 19.191 7.827 36.665 21.779 31.084 5.011-2.004 9.374-5.47 12.91-9.09z" fill="#da9c20"/><path d="m64.334 13.745c-2.173-5.732-5.893-9.553-10.991-11.671-.263-.107-.559-.097-.815.028-.255.125-.445.353-.521.627-.932 3.564-3.524 15.369.543 23.623 4.841 9.825 10.303 9.205 12.288 15.411 1.986 6.206 4.995 7.865 6.902 7.675 1.906.19 4.915-1.469 6.901-7.675s7.447-5.586 12.288-15.411c4.067-8.254 1.475-20.059.543-23.623-.076-.274-.266-.502-.521-.627s-.552-.136-.815-.029c-5.098 2.119-8.818 5.94-10.991 11.672-4.937-2.896-9.874-2.896-14.811 0z" fill="#f3ae24"/><path d="m78.499 29.158s.375-1.168.695-2.167c.218-.681.6-1.299 1.113-1.798 0 0 1.625-1.581 1.625-1.581.593-.577.606-1.528.029-2.121-.578-.593-1.528-.606-2.121-.029l-1.625 1.581c-.865.842-1.51 1.883-1.878 3.033-.32.998-.695 2.167-.695 2.167-.253.788.182 1.633.971 1.886.788.253 1.633-.182 1.886-.971z" fill="#b6821b"/><path d="m67.837 28.243s-.374-1.169-.694-2.167c-.369-1.15-1.014-2.191-1.879-3.033l-1.624-1.581c-.594-.577-1.544-.564-2.121.029-.578.593-.565 1.544.028 2.121l1.625 1.581c.513.499.895 1.117 1.114 1.798.32.999.694 2.167.694 2.167.253.789 1.098 1.224 1.887.971.788-.253 1.223-1.098.97-1.886z" fill="#b6821b"/><path d="m68.704 35.291c0-1.676 6.071-1.676 6.071 0 0 1.675-1.36 4.147-3.035 4.147-1.676 0-3.036-2.472-3.036-4.147z" fill="#696969"/><path d="m9.949 86.941c2.561-2.547 5.475-7.348 7.01-16.377 3.114-18.317 10.49-25.461 20.54-27.659s-5.288 11.906 0 22.714c2.587 5.288 3.964 8.778 4.049 12.143 0 18.138-20.494 20.906-31.599 9.179z" fill="#f3ae24"/><path d="m17.613 67.163c3.421-15.816 10.483-22.201 19.886-24.258 10.05-2.198-5.288 11.906 0 22.714.26.532.509 1.046.744 1.544 0 0-1.215-.539-2.21-.98-.796-.352-1.716-.285-2.452.181-.001.001-.001.001-.001.001-.782.495-1.767.544-2.594.129-.52-.261-1.12-.562-1.657-.831-.951-.477-2.081-.432-2.991.119-.236.142-.481.291-.719.435-.943.571-2.14.506-3.016-.162-.001-.001-.002-.002-.003-.002-.908-.693-2.155-.739-3.112-.114-.912.595-1.875 1.224-1.875 1.224z" fill="#ebebeb"/></g><g><path d="m69.871 92.5h-7.666c-.649 0-1.225-.415-1.431-1.03l-4.241-12.659c-.263-.785-1.114-1.209-1.899-.946s-1.209 1.114-.946 1.899l4.241 12.659c.616 1.838 2.337 3.077 4.276 3.077h8.285c.759 0 1.477-.344 1.952-.936s.656-1.368.492-2.109c-.088-.396-.188-.848-.286-1.287-.403-1.823-1.888-3.208-3.734-3.484l-.75-.112c-.633-.095-1.137-.579-1.258-1.208 0 0-4.394-22.844-4.394-22.844-.156-.813-.943-1.346-1.756-1.189-.813.156-1.346.943-1.19 1.756l4.394 22.844c.361 1.878 1.868 3.324 3.76 3.608 0 0 .75.112.75.112.617.092 1.114.556 1.249 1.166z"/><path d="m51.423 92.5h-9.207c-1.384 0-2.684-.66-3.502-1.776-.489-.668-1.429-.813-2.096-.324-.668.49-.813 1.429-.324 2.097 1.382 1.888 3.582 3.003 5.922 3.003h9.704c1.382 0 2.503-1.121 2.503-2.503v-1.203c0-1.776-1.042-3.386-2.662-4.113l-1.306-.587c-.644-.289-1.001-.987-.86-1.678 0 0 3.222-15.777 3.222-15.777.113-.556.529-1.001 1.076-1.152.004-.001.007-.002.011-.003 6.425-1.832 16.348-6.632 19.111-18.699.185-.807-.32-1.612-1.127-1.797s-1.612.32-1.797 1.127c-2.448 10.69-11.318 14.861-17.01 16.484-1.622.449-2.864 1.778-3.203 3.439l-3.222 15.777c-.423 2.068.645 4.151 2.57 5.016.435.195.887.398 1.306.586.542.244.891.783.891 1.377zm-7.235-68.829c-3.444 2.556-8.088 5.008-14.2 6.476-13.496 3.241-25.773 16.968-27.958 29.098-2.094 11.623 1.049 22.626 6.833 28.731.569.601 1.519.626 2.12.057s.627-1.519.058-2.12c-5.254-5.546-7.961-15.577-6.059-26.136 2.008-11.144 13.307-23.736 25.706-26.713 6.582-1.581 11.579-4.231 15.288-6.984.665-.493.804-1.434.31-2.099-.493-.664-1.433-.803-2.098-.31z"/><path d="m90.17 3.693c.984 3.95 3.105 14.504-.587 21.996-2.771 5.626-5.773 7.648-8.127 9.657-1.852 1.581-3.349 3.164-4.244 5.96-.889 2.777-1.971 4.557-3.08 5.601-.825.777-1.608 1.102-2.243 1.038-.099-.01-.199-.01-.299 0-.634.064-1.418-.261-2.243-1.038-1.108-1.044-2.191-2.824-3.08-5.601-.895-2.796-2.392-4.379-4.244-5.96-2.354-2.009-5.356-4.031-8.127-9.657-3.688-7.485-1.574-18.025-.587-21.996 4.44 2.002 7.688 5.48 9.622 10.583.294.775 1.161 1.165 1.935.871.774-.293 1.164-1.16.871-1.934-2.334-6.157-6.342-10.249-11.818-12.524-.003-.002-.007-.003-.011-.005-.659-.268-1.401-.242-2.04.071s-1.114.884-1.306 1.57c-.002.008-.004.016-.006.025-.974 3.721-3.598 16.045.649 24.665 2.55 5.177 5.262 7.604 7.6 9.552 1.99 1.659 3.714 2.869 4.605 5.653 2.29 7.158 6.073 8.865 8.337 8.722 2.251.142 6.033-1.566 8.322-8.722.891-2.784 2.615-3.994 4.606-5.653 2.338-1.948 5.049-4.375 7.6-9.552 4.246-8.62 1.622-20.945.648-24.666-.002-.008-.004-.016-.006-.023-.192-.686-.667-1.257-1.305-1.57-.639-.314-1.381-.34-2.041-.072-.003.001-.007.003-.011.004-3.866 1.607-6.995 4.124-9.327 7.626-.459.689-.272 1.621.417 2.08s1.621.272 2.079-.417c1.886-2.83 4.382-4.905 7.441-6.284z"/><path d="m78.499 29.158s.375-1.168.695-2.167c.218-.681.6-1.299 1.113-1.798 0 0 1.625-1.581 1.625-1.581.593-.577.606-1.528.029-2.121-.578-.593-1.528-.606-2.121-.029l-1.625 1.581c-.865.842-1.51 1.883-1.878 3.033-.32.998-.695 2.167-.695 2.167-.253.788.182 1.633.971 1.886.788.253 1.633-.182 1.886-.971z"/><path d="m67.837 28.243s-.374-1.169-.694-2.167c-.369-1.15-1.014-2.191-1.879-3.033l-1.624-1.581c-.594-.577-1.544-.564-2.121.029-.578.593-.565 1.544.028 2.121l1.625 1.581c.513.499.895 1.117 1.114 1.798.32.999.694 2.167.694 2.167.253.789 1.098 1.224 1.887.971.788-.253 1.223-1.098.97-1.886z"/><path d="m73.227 35.762c-.113.594-.42 1.244-.83 1.719-.197.228-.394.457-.657.457-.131 0-.242-.08-.353-.165-.245-.187-.455-.455-.632-.75-.427-.709-1.35-.938-2.059-.511s-.938 1.35-.511 2.059c.848 1.409 2.178 2.367 3.555 2.367 1.079 0 2.118-.559 2.927-1.497.985-1.141 1.608-2.836 1.608-4.15 0-.658-.271-1.252-.83-1.73-.634-.543-1.863-.944-3.201-1.014-.826-.043-1.533.593-1.576 1.42s.593 1.533 1.42 1.576c.369.019.846.137 1.139.219z"/><path d="m60.148 18.751c3.083-2.743 7.144-4.41 11.592-4.41 4.447 0 8.508 1.667 11.591 4.41.619.551 1.567.495 2.118-.123.55-.619.495-1.568-.124-2.118-3.613-3.215-8.373-5.169-13.585-5.169-5.213 0-9.972 1.954-13.586 5.169-.618.55-.674 1.499-.123 2.118.55.618 1.499.674 2.117.123z"/><path d="m39.479 44.215c-.01.155-.03.369-.069.538-.104.46-.28.981-.496 1.557-.884 2.349-2.399 5.475-3.297 8.834-.976 3.65-1.217 7.554.534 11.134 2.452 5.01 3.809 8.305 3.896 11.494-.005 6.567-2.909 10.936-7.111 13.101-6.451 3.323-15.73 1.551-21.898-4.963-.57-.601-1.52-.627-2.121-.058s-.627 1.519-.058 2.121c7.158 7.558 17.965 9.422 25.451 5.567 5.085-2.62 8.738-7.836 8.738-15.778 0-.013-.001-.026-.001-.038-.089-3.533-1.485-7.213-4.201-12.765-1.673-3.419-.978-7.202.133-10.592 1.256-3.83 3.057-7.223 3.429-9.303.22-1.226.001-2.167-.505-2.806-.364-.46-.891-.82-1.664-.986-.695-.149-1.692-.132-3.061.168-10.536 2.304-18.433 9.67-21.698 28.873-.771 4.534-1.895 7.963-3.151 10.552-.362.745-.051 1.643.694 2.004.745.362 1.643.051 2.004-.694 1.354-2.788 2.581-6.477 3.411-11.359 2.963-17.433 9.817-24.354 19.381-26.446.634-.138 1.339-.156 1.66-.155z"/><path d="m36.323 64.687c-1.176-.409-2.482-.263-3.545.41l-.001.001c-.337.213-.762.234-1.119.055l-1.657-.831c-1.412-.708-3.088-.642-4.439.176l-.719.435c-.174.106-.368.162-.562.17-.827.036-1.47.736-1.434 1.563.035.827.735 1.47 1.562 1.434.688-.029 1.372-.228 1.987-.6l.719-.435c.469-.284 1.051-.307 1.541-.061 0 0 1.657.831 1.657.831 1.298.651 2.842.574 4.069-.203h.001c.313-.198.704-.227 1.043-.077l2.21.979c.573.254 1.244.125 1.681-.324.438-.449.55-1.123.282-1.689-.238-.503-.489-1.023-.753-1.562-.364-.743-1.263-1.052-2.006-.688-.208.102-.382.246-.517.416z"/></g></g></svg>