<svg enable-background="new 0 0 512 512" viewBox="0 0 512 512" xmlns="http://www.w3.org/2000/svg"><g id="Layer_1" display="none"><g display="inline" fill="none" stroke="#6d6e71" stroke-miterlimit="10" stroke-width=".284"><path d="m0 0h512v512h-512z"/><circle cx="256" cy="256" r="256"/><path d="m75 75h362v362h-362z"/><path d="m128 0h256v512h-256z"/><path d="m256 0v512"/><path d="m0 128h512v256h-512z"/><path d="m0 256h512"/><path d="m512 0-512 512"/><path d="m0 0 512 512"/><circle cx="256" cy="256" r="181.3"/><circle cx="256" cy="256" r="128"/><circle cx="256" cy="256" r="64"/></g></g><g id="Layer_2"><g><g><g><path d="m42.7 217.8v-189.3c0-16.8 19.2-26.3 32.5-16.2l88 66.6" fill="#ffa149"/><path d="m50.9 217.8h-16.4v-189.3c0-10.9 6.1-20.7 15.8-25.5s21.2-3.8 29.9 2.8l88 66.6-9.9 13.1-88-66.6c-3.7-2.8-8.4-3.3-12.6-1.2s-6.7 6.1-6.7 10.8v189.3z" fill="#231f20"/></g><g><path d="m348.9 78.9 87.9-66.6c13.3-10.1 32.5-.6 32.5 16.2v189" fill="#ffa149"/><path d="m477.5 217.5h-16.5v-189c0-4.7-2.5-8.7-6.7-10.8s-8.9-1.6-12.6 1.2l-87.9 66.6-9.9-13.1 87.9-66.6c8.7-6.6 20.1-7.7 29.9-2.8 9.8 4.8 15.8 14.6 15.8 25.5z" fill="#231f20"/></g></g><g><g><path d="m61.5 353.7c41.9 16.8 76 48.7 95.8 89 18.3 37.2 56.3 60.9 97.8 61h.9s.6 0 .9 0c41.5-.2 79.5-23.8 97.8-61 19.8-40.2 54-72.1 95.8-89 12.3-4.9 21.1-15.9 23.7-28.9 2.5-12.6 3.9-25.6 4.2-38.9 2.6-128.1-102.1-231.4-230.2-227-119.2 4.1-214.7 102.1-214.7 222.4 0 15 1.5 29.7 4.3 43.9 2.6 12.9 11.5 23.6 23.7 28.5z" fill="#fecd78"/><path d="m256 512h-.9c-21.9-.1-43.3-6.3-61.9-17.9s-33.6-28.1-43.3-47.8c-19.1-38.7-51.6-68.9-91.5-85-14.8-5.9-25.5-18.9-28.6-34.5-3-14.9-4.5-30.2-4.5-45.6 0-60.2 23.1-117.2 64.9-160.5 41.8-43 97.8-67.9 157.7-70 32.4-1.1 64 4.3 93.7 16.2 28.7 11.4 54.4 28.3 76.5 50 22.1 21.8 39.2 47.2 51 75.8 12.3 29.6 18.1 61 17.5 93.5-.3 13.6-1.8 27.1-4.4 40.3-3.2 15.9-13.9 29-28.7 34.9-40 16.1-72.5 46.3-91.5 85-9.7 19.6-24.6 36.1-43.3 47.8-18.6 11.6-40 17.8-61.9 17.9zm.2-445c-2.6 0-5.1 0-7.7.1-115.9 4-206.8 98-206.8 214.1 0 14.2 1.4 28.5 4.2 42.3 2 10.2 9 18.6 18.6 22.5 43.7 17.6 79.3 50.6 100.1 93 16.8 34.1 52.3 56.3 90.5 56.5h.9.9c38.1-.1 73.7-22.3 90.5-56.5 20.8-42.4 56.4-75.4 100.1-93 9.6-3.9 16.6-12.4 18.7-22.8 2.4-12.3 3.8-24.9 4.1-37.5 1.2-59.7-21.4-115.5-63.6-157.2-40.5-39.8-93.7-61.5-150.5-61.5z" fill="#231f20"/></g></g><g><g><path d="m256 463.7c-17.5 0-31.8-14.3-31.8-31.8v-11c0-5.3 4.3-9.6 9.6-9.6h44.5c5.3 0 9.6 4.3 9.6 9.6v11c-.1 17.5-14.4 31.8-31.9 31.8z" fill="#ddab8a"/><path d="m256 471.9c-22.1 0-40-18-40-40v-11c0-9.8 8-17.8 17.8-17.8h44.5c9.8 0 17.8 8 17.8 17.8v11c-.1 22.1-18 40-40.1 40zm-22.2-52.4c-.7 0-1.4.6-1.4 1.4v11c0 13 10.6 23.6 23.6 23.6 13 0 23.6-10.6 23.6-23.6v-11c0-.7-.6-1.4-1.4-1.4z" fill="#231f20"/></g><g><path d="m256 508.4c-4.5 0-8.2-3.7-8.2-8.2v-36.5c0-4.5 3.7-8.2 8.2-8.2s8.2 3.7 8.2 8.2v36.5c0 4.5-3.7 8.2-8.2 8.2z" fill="#231f20"/></g></g><g fill="#231f20"><g><circle cx="163" cy="294.3" r="13.5"/><path d="m163 316.1c-12 0-21.8-9.8-21.8-21.8s9.8-21.8 21.8-21.8 21.8 9.8 21.8 21.8-9.8 21.8-21.8 21.8zm0-27.1c-2.9 0-5.3 2.4-5.3 5.3s2.4 5.3 5.3 5.3 5.3-2.4 5.3-5.3-2.3-5.3-5.3-5.3z"/></g><g><circle cx="349" cy="294.3" r="13.5"/><path d="m349 316.1c-12 0-21.8-9.8-21.8-21.8s9.8-21.8 21.8-21.8 21.8 9.8 21.8 21.8c-.1 12-9.9 21.8-21.8 21.8zm0-27.1c-2.9 0-5.3 2.4-5.3 5.3s2.4 5.3 5.3 5.3 5.3-2.4 5.3-5.3-2.4-5.3-5.3-5.3z"/></g></g><g><path d="m256 323.2c-4.5 0-8.2-3.7-8.2-8.2 0-56.6 10.3-98.9 30.5-125.7 17.3-22.9 41.5-34.5 71.9-34.5 31.4 0 62.2 12.5 82.4 23 10.1 5.2 20 11.2 27.7 16.9 11.4 8.3 13.6 12.1 13.6 16.2 0 4.5-3.7 8.2-8.2 8.2-3.4 0-6.3-2-7.6-5-3.6-3.9-22.5-18-49.1-29.3-22.9-9.7-56.2-19.3-84.9-9.6-39.7 13.4-59.9 60.4-59.9 139.8 0 4.5-3.7 8.2-8.2 8.2z" fill="#231f20"/></g><g><path d="m256.7 323.2c-4.5 0-8.2-3.7-8.2-8.2 0-79.4-20.1-126.5-59.9-139.9-28.6-9.6-61.9-.1-84.8 9.7-26.6 11.3-45.5 25.5-49.1 29.3-1.3 2.9-4.2 5-7.6 5-4.5 0-8.2-3.7-8.2-8.2 0-4.1 2.2-7.9 13.6-16.2 7.7-5.6 17.6-11.7 27.7-16.9 20.3-10.5 51-23.1 82.4-23.1 30.4 0 54.5 11.6 71.8 34.6 20.3 26.7 30.6 69 30.6 125.7 0 4.5-3.7 8.2-8.3 8.2z" fill="#231f20"/></g></g></g></svg>