<svg height="512" viewBox="0 0 48 48" width="512" xmlns="http://www.w3.org/2000/svg"><g id="Line"><path d="m32.479 9.005c-.021-.247-.134-.478-.316-.646-1.612-1.505-3.812-2.364-6.017-2.359-2.422.062-6.073-.348-8.251.935-3.02 1.508-4.895 4.544-4.895 7.919-.06.599.384 1.15 1 1.145h18c.28 0 .548-.118.737-.324.189-.207.283-.483.259-.763z" fill="#f48a8b"/><path d="m37.95 5.61c-.576 1.837-1.51 4.177-2.15 6 0 0-1.21 3.34-1.21 3.34-.15.39-.52.66-.94.66h-4c-.671.017-1.175-.694-.95-1.32 0 0 .89-2.68.89-2.68.789-2.356 1.726-5.185 2.51-7.54 1.265-3.528 6.495-2.155 5.85 1.54z" fill="#997e6c"/><g><path d="m36.53 9.61-.73 2h-6.21l.67-2z" fill="#7f6654"/></g><g><path d="m37.95 5.61c-.049.32-.586 1.67-.69 2h-6.34l.67-2z" fill="#7f6654"/></g><path d="m37 16.24c0 .85-.47 1.61-1.23 2-.701.306-.825 1.083-.77 1.76h-22c.062-.674-.077-1.453-.76-1.76-.77-.39-1.24-1.15-1.24-2 0-1.24 1-2.24 2.24-2.24h21.52c1.24 0 2.24 1 2.24 2.24z" fill="#e26667"/><path d="m30 41c-2.613.283-4.95-1.232-5-4-.005-1.305-1.995-1.31-2 0 0 2.206-1.794 4-4 4-1.654 0-3 1.346-3 3v1c0 .553.448 1 1 1h15c.552 0 1-.447 1-1v-1c0-1.654-1.346-3-3-3z" fill="#e98048"/><g><path d="m35 20v5.72l-3.9.98c-.766.186-1.559.134-2.28-.15-1.17-.39-2.47-.39-3.64 0-.76.26-1.6.26-2.36 0-1.17-.39-2.46-.39-3.64 0-.729.267-1.512.344-2.28.15 0 0-3.9-.98-3.9-.98v-5.72z" fill="#ffd267"/></g><g><path d="m35 25.72c.592 16.308-22.595 16.301-22 0 0 0 3.9.98 3.9.98.7.17 1.42.14 2.09-.09 1.233-.438 2.596-.476 3.83-.06.76.26 1.6.26 2.36 0 1.17-.39 2.47-.39 3.64 0 .721.284 1.514.336 2.28.15z" fill="#f8a358"/></g><path d="m35.708 2.091c-1.522-.381-3.107.488-3.604 1.979l-1.127 3.38c-1.413-.957-3.13-1.447-4.831-1.45h-4.292c-4.465-.068-8.475 3.585-8.796 8.018-2.205.134-2.835 3.259-.822 4.218.472.236.764.709.764 1.236v7.528c0 5.686 4.336 10.378 9.876 10.943-.427 1.75-1.997 3.057-3.876 3.057-1.654 0-3 1.346-3 3v1c0 .553.448 1 1 1h15c.552 0 1-.447 1-1v-1c0-1.654-1.346-3-3-3h-1c-1.879 0-3.449-1.307-3.875-3.057 5.539-.565 9.875-5.257 9.875-10.943v-7.528c0-.526.292-1 .765-1.236 2.011-.957 1.382-4.107-.841-4.219 0 0 2.893-7.957 2.893-7.957.631-1.624-.408-3.584-2.109-3.969zm-.486 1.939c.697.159.958.979.632 1.575h-2.154l.301-.904c.168-.506.706-.801 1.221-.671zm-4.321 9.97.798-2.395h1.973l-.871 2.395zm3.498-4.395h-2.033l.667-2h2.094zm-15.61-.881c1.786-1.077 5.363-.644 7.357-.724 1.496-.001 2.998.498 4.169 1.434 0 0-1.522 4.566-1.522 4.566h-13.734c.28-2.262 1.651-4.238 3.73-5.276zm14.211 17.496-1.902.476c-.761.191-1.554.13-2.282-.145-1.171-.389-2.461-.389-3.632 0-.764.256-1.604.256-2.368 0-1.234-.411-2.597-.382-3.821.063-1.191.496-2.818-.122-3.995-.394v-4.22h18zm-4 16.78h1c.551 0 1 .448 1 1h-13c0-.552.449-1 1-1 2.084 0 3.924-1.068 5-2.687 1.076 1.619 2.915 2.687 5 2.687zm-5-7c-4.517 0-8.258-3.349-8.894-7.693 1.515.448 3.196.762 4.71.142 2.009-.648 3.91.922 6 0 1.942-.673 3.766.897 5.767.186 0 0 1.311-.328 1.311-.328-.636 4.344-4.377 7.693-8.894 7.693zm11-19.764c0 .09-.05.171-.13.211-1.352.651-1.995 2.098-1.87 3.553h-18c.127-1.455-.52-2.902-1.869-3.552-.216-.102-.141-.455.105-.448h21.528c.13 0 .236.106.236.236z"/></g></svg>