<svg id="Layer_1" viewBox="0 0 1000 1000" xmlns="http://www.w3.org/2000/svg" data-name="Layer 1"><path d="m685.62 116v50.88a7.51 7.51 0 0 1 -7.5 7.5 7.5 7.5 0 0 1 -7.5-7.5v-50.88a8.48 8.48 0 0 0 -17 0v50.88a7.5 7.5 0 0 1 -13.22 4.85l-.09-.11a7.43 7.43 0 0 1 -1.68-4.72v-50.9a23.48 23.48 0 0 1 47 0z"/><path d="m653.67 209.32v49.76a7.5 7.5 0 1 1 -15 0v-49.76a7.5 7.5 0 0 1 15 0z"/><path d="m653.67 372.13v49.77a7.5 7.5 0 0 1 -15 0v-49.77a7.5 7.5 0 0 1 15 0z"/><path d="m685.62 209.32v49.75a7.5 7.5 0 1 1 -15 0v-49.75a7.5 7.5 0 0 1 15 0z"/><path d="m685.62 372.14v49.76a7.5 7.5 0 1 1 -15 0v-49.76a7.5 7.5 0 0 1 15 0z"/><path d="m685.62 464.36v50.88a23.48 23.48 0 0 1 -47 0v-50.88a7.45 7.45 0 0 1 1.69-4.74l.09-.11a7.5 7.5 0 0 1 13.22 4.85v50.88a8.48 8.48 0 0 0 17 0v-50.88a7.49 7.49 0 0 1 13-5.11l.3.34a7.43 7.43 0 0 1 1.7 4.77z"/><path d="m747.79 131.82a21.52 21.52 0 0 0 -37.64-12.82l-24.53 27.93-15 17.08-8.47 9.65-8.48-9.66-15-17.08-24.53-27.92a21.52 21.52 0 1 0 -32.33 28.4l56.86 64.73 7.31 8.32a21.53 21.53 0 0 0 32.33 0l7.31-8.32 56.86-64.73a21.39 21.39 0 0 0 5.31-15.58zm-16.58 5.69-64.21 73.05a6.51 6.51 0 0 1 -9.79 0l-64.17-73.05a6.51 6.51 0 0 1 4.96-10.81 6.56 6.56 0 0 1 4.9 2.21l37.48 42.66.09.11 16.04 18.32a7.5 7.5 0 0 0 11.27 0l16.12-18.36 37.52-42.71a6.56 6.56 0 0 1 4.9-2.21 6.51 6.51 0 0 1 4.89 10.81z"/><path d="m670.62 116v48l-8.47 9.65-8.48-9.65v-48a8.48 8.48 0 0 1 17 0z" fill="#64b5f6"/><path d="m731.21 137.51-64.21 73.05a6.51 6.51 0 0 1 -9.79 0l-64.17-73.05a6.51 6.51 0 0 1 4.96-10.81 6.56 6.56 0 0 1 4.9 2.21l37.48 42.66.09.11 16.04 18.32a7.5 7.5 0 0 0 11.27 0l16.12-18.36 37.52-42.71a6.56 6.56 0 0 1 4.9-2.21 6.51 6.51 0 0 1 4.89 10.81z" fill="#1e88e5"/><path d="m667.78 441.23a7.5 7.5 0 0 0 -11.27 0l-16.06 18.28a7.5 7.5 0 0 1 13.22 4.85v2.84l8.48-9.65 8.47 9.64v-2.83a7.49 7.49 0 0 1 13-5.11zm74.7 42.57-56.86-64.73-7.31-8.32a21.56 21.56 0 0 0 -32.33 0l-7.31 8.32-56.86 64.73a21.52 21.52 0 0 0 32.33 28.4l24.53-27.92 15-17.08 8.48-9.65 8.47 9.64 15 17.08 24.53 27.93a21.52 21.52 0 1 0 32.33-28.4zm-9.66 14.62a6.51 6.51 0 0 1 -6.5 6.09 6.53 6.53 0 0 1 -4.9-2.21l-37.52-42.71-.3-.34-15.82-18a7.5 7.5 0 0 0 -11.27 0l-16.06 18.28-.09.11-37.49 42.66a6.53 6.53 0 0 1 -9.2.59 6.51 6.51 0 0 1 -.59-9.19l58.88-67 5.29-6a6.51 6.51 0 0 1 9.79 0l5.29 6 58.88 67a6.48 6.48 0 0 1 1.61 4.72z"/><path d="m670.62 467.19v48.05a8.48 8.48 0 0 1 -17 0v-48l8.48-9.65z" fill="#64b5f6"/><path d="m732.82 498.42a6.51 6.51 0 0 1 -6.5 6.09 6.53 6.53 0 0 1 -4.9-2.21l-37.52-42.71-16.12-18.36a7.5 7.5 0 0 0 -11.27 0l-16.06 18.28-.09.11-37.49 42.68a6.53 6.53 0 0 1 -9.2.59 6.51 6.51 0 0 1 -.59-9.19l58.88-67 5.29-6a6.51 6.51 0 0 1 9.79 0l5.29 6 58.88 67a6.48 6.48 0 0 1 1.61 4.72z" fill="#1e88e5"/><path d="m846.43 235.1-26.82 15.49-17.24 10a7.47 7.47 0 0 1 -3.74 1 7.72 7.72 0 0 1 -1.44-.14 7.5 7.5 0 0 1 -2.32-13.86l2.44-1.41 41.62-24a8.47 8.47 0 0 0 -8.47-14.68l-41.61 24-2.45 1.41a7.5 7.5 0 0 1 -10.92-8.69c0-.16.1-.31.16-.47l.06-.16a7.48 7.48 0 0 1 3.2-3.67l17.24-9.95 26.86-15.53a23.47 23.47 0 0 1 23.47 40.66z"/><path d="m753 249.94v.1a7.47 7.47 0 0 1 -3.35 4.06l-14.48 8.36-21 12.13-8.06 4.66a7.5 7.5 0 1 1 -7.5-13l4.58-2.64 36.52-21.1 2.45-1.41a7.5 7.5 0 0 1 10.84 8.84z"/><path d="m608.71 335.46-8.07 4.66-20.64 11.88-14.47 8.36a7.55 7.55 0 0 1 -3.75 1 7.64 7.64 0 0 1 -1.44-.14 7.5 7.5 0 0 1 -2.34-13.82l2.44-1.41 36.15-20.87 4.59-2.65a7.51 7.51 0 0 1 10.25 2.74 7.69 7.69 0 0 1 .76 1.84 7.51 7.51 0 0 1 -3.48 8.41z"/><path d="m765.59 281.77-2.45 1.42-35.79 20.66-4.77 2.75a7.5 7.5 0 0 1 -7.5-13l7.79-4.5 20.76-12 14.47-8.36a7.5 7.5 0 1 1 7.5 13z"/><path d="m624.18 363.42-4.74 2.74-35.44 20.49-2.45 1.41a7.5 7.5 0 0 1 -10.88-8.82v-.12a7.47 7.47 0 0 1 3.34-4.05l14.48-8.36 20.43-11.79 7.77-4.49a7.5 7.5 0 1 1 7.5 13z"/><path d="m548.08 405.17a7.52 7.52 0 0 1 -3.36 4.12l-17.24 9.95-26.83 15.49a23.27 23.27 0 0 1 -11.65 3.16 23.77 23.77 0 0 1 -6.12-.81 23.48 23.48 0 0 1 -5.66-43l26.78-15.49 17.24-9.95a7.5 7.5 0 0 1 7.5 13l-2.45 1.42-41.61 24a8.47 8.47 0 1 0 8.47 14.67l41.62-24 2.45-1.41a7.5 7.5 0 0 1 10.86 8.87z"/><path d="m792.13 257.79a7.51 7.51 0 0 1 2.74-10.25l2.44-1.41-12.58-2.51 4.12-12.16-2.45 1.41a7.5 7.5 0 0 1 -10.92-8.69l-7.69 22.72a7.49 7.49 0 0 0 5.63 9.75l23.77 4.75a7.45 7.45 0 0 1 -5.06-3.61zm78.36 10.42a21.54 21.54 0 0 0 -14.42-10.34l-36.46-7.28-22.3-4.46-12.58-2.51 4.12-12.16 7.29-21.53 11.92-35.22a21.51 21.51 0 0 0 -40.76-13.79l-27.63 81.6-3.55 10.48a21.62 21.62 0 0 0 -1 9.44 21.56 21.56 0 0 0 17.17 18.56l10.84 2.17 84.5 16.87a21.52 21.52 0 0 0 25.37-16.86 21.54 21.54 0 0 0 -2.51-14.97zm-12.25 12a6.49 6.49 0 0 1 -7.66 5.11l-87.3-17.43-8.06-1.61a6.53 6.53 0 0 1 -4.89-8.48l2.67-7.8v-.1l28.51-84.21a6.51 6.51 0 1 1 12.34 4.18l-18.15 53.68-.06.16c-.06.16-.11.31-.16.47l-7.69 22.72a7.49 7.49 0 0 0 5.63 9.75l23.77 4.75 55.94 11.18a6.5 6.5 0 0 1 5.11 7.66z"/><path d="m838.93 222.11-41.62 24-12.58-2.51 4.12-12.16 41.61-24a8.47 8.47 0 0 1 8.47 14.68z" fill="#64b5f6"/><path d="m858.24 280.24a6.49 6.49 0 0 1 -7.66 5.11l-87.3-17.43-8.06-1.61a6.53 6.53 0 0 1 -4.89-8.48l2.67-7.83v-.1l28.51-84.21a6.51 6.51 0 1 1 12.34 4.18l-18.15 53.68-.06.16c-.06.16-.11.31-.16.47l-7.69 22.72a7.49 7.49 0 0 0 5.63 9.75l23.77 4.75 55.94 11.18a6.5 6.5 0 0 1 5.11 7.66z" fill="#1e88e5"/><path d="m588.48 366.71a21.53 21.53 0 0 0 -17.15-18.55l-10.86-2.16-84.47-16.89a21.52 21.52 0 0 0 -8.43 42.2l36.43 7.28 22.28 4.46 12.58 2.51-4.11 12.15-7.29 21.52-11.92 35.22a21.51 21.51 0 1 0 40.75 13.8l27.71-81.6 3.55-10.49a21.44 21.44 0 0 0 .93-9.45zm-46.37 96.74a6.51 6.51 0 1 1 -12.34-4.18l18.31-54.1 7.75-22.89a7.51 7.51 0 0 0 -5.63-9.76l-79.71-15.92a6.52 6.52 0 0 1 1.27-12.91 7 7 0 0 1 1.28.13l87.3 17.44 8 1.61a6.52 6.52 0 0 1 4.9 8.48l-2.63 7.77v.12z"/><path d="m538.88 385.56-4.11 12.15-41.62 24a8.47 8.47 0 0 1 -8.47-14.67l41.61-24z" fill="#64b5f6"/><path d="m573.29 371.35-2.63 7.77v.12l-28.51 84.21a6.51 6.51 0 1 1 -12.34-4.18l18.31-54.1 7.75-22.89a7.51 7.51 0 0 0 -5.63-9.76l-79.75-15.92a6.52 6.52 0 0 1 1.27-12.91 7 7 0 0 1 1.28.13l87.3 17.44 8 1.61a6.52 6.52 0 0 1 4.9 8.48z" fill="#1e88e5"/><path d="m855.74 425.34a23.48 23.48 0 0 1 -32.06 8.59l-26.83-15.49-17.24-9.95a7.5 7.5 0 0 1 7.5-13l2.45 1.41 41.62 24a8.47 8.47 0 1 0 8.47-14.67l-41.61-24-2.44-1.41a7.5 7.5 0 0 1 2.13-13.82h.1a.41.41 0 0 1 .16 0l.38-.07a7.49 7.49 0 0 1 4.72.95l17.23 10 26.82 15.49a23.49 23.49 0 0 1 8.6 31.97z"/><path d="m767.6 358.65a7.62 7.62 0 0 1 -3.69 1.83 7.39 7.39 0 0 1 -1.33.12 7.54 7.54 0 0 1 -4-1.13l-14.26-8.23-20.39-11.77-8.17-4.72a7.5 7.5 0 0 1 7.5-13l4.54 2.62 36.05 20.81 2.44 1.41a7.65 7.65 0 0 1 1.8 1.45 7.5 7.5 0 0 1 -.49 10.61z"/><path d="m629 276a7.51 7.51 0 0 1 -6.5 3.75 7.38 7.38 0 0 1 -3.74-1l-8.15-4.7-21.45-12.38-14.34-8.28a7.5 7.5 0 1 1 7.36-13.07l2.45 1.41 37.12 21.43 4.51 2.6a7.5 7.5 0 0 1 2.74 10.24z"/><path d="m754.08 380.76a7.49 7.49 0 0 1 -7.49 7.5 7.49 7.49 0 0 1 -3.75-1l-2.44-1.41-34.93-20.17-4.81-2.78a7.5 7.5 0 0 1 7.5-13l7.69 4.44 20 11.56 14.34 8.28a7.45 7.45 0 0 1 3.45 4.05l.16.48a7.56 7.56 0 0 1 .28 2.05z"/><path d="m612.19 303.17a7.52 7.52 0 0 1 -10.25 2.75l-4.81-2.78-36-20.76-2.39-1.38a7.5 7.5 0 1 1 7.5-13l14.47 8.36 21 12.14 7.69 4.44a7.51 7.51 0 0 1 2.79 10.23z"/><path d="m548.17 229.33a7.5 7.5 0 0 1 -10.24 2.74l-2.45-1.41-41.61-24a8.47 8.47 0 1 0 -8.47 14.67l41.62 24 2.44 1.41a7.51 7.51 0 0 1 -2.26 13.85h-.1a7.3 7.3 0 0 1 -1.4.13 7.38 7.38 0 0 1 -3.74-1l-17.23-10-26.83-15.43a23.47 23.47 0 1 1 23.47-40.65l26.82 15.49 17.24 10a7.47 7.47 0 0 1 3.29 3.92l.12.33a7.49 7.49 0 0 1 -.67 5.95z"/><path d="m755.94 362.07 7.95-1.59a7.39 7.39 0 0 1 -1.33.12 7.54 7.54 0 0 1 -4-1.13l-14.26-8.23a21.44 21.44 0 0 0 -8.48 14.67l14.34 8.28a7.45 7.45 0 0 1 3.45 4.05l-2.6-7.69a6.56 6.56 0 0 1 .53-5.35 6.54 6.54 0 0 1 4.4-3.13zm117.72-16.88a21.52 21.52 0 0 0 -25.31-16.88l-84.49 16.88-10.86 2.17a21.51 21.51 0 0 0 -17.15 18.55 21.6 21.6 0 0 0 1 9.45l3.55 10.49 27.6 81.61a21.51 21.51 0 0 0 40.75-13.8l-11.92-35.22-7.29-21.52-4.11-12.15 12.57-2.53 22.28-4.45 36.45-7.28a21.52 21.52 0 0 0 16.88-25.32zm-15.45 7.47a6.52 6.52 0 0 1 -4.37 3.14l-55.47 11.09-.37.11a.41.41 0 0 0 -.16 0h-.1l-23.6 4.71a7.5 7.5 0 0 0 -5.63 9.76l7.75 22.89 18.31 54.1a6.51 6.51 0 1 1 -12.34 4.18l-28.43-83.92-.16-.48-2.6-7.69a6.56 6.56 0 0 1 .53-5.35 6.54 6.54 0 0 1 4.37-3.13l7.95-1.59 87.4-17.48a6.27 6.27 0 0 1 1.29-.13 6.52 6.52 0 0 1 5.63 9.77zm-102.27 9.41 7.95-1.59a7.39 7.39 0 0 1 -1.33.12 7.54 7.54 0 0 1 -4-1.13l-14.26-8.23a21.44 21.44 0 0 0 -8.48 14.67l14.34 8.28a7.45 7.45 0 0 1 3.45 4.05l-2.6-7.69a6.56 6.56 0 0 1 .53-5.35 6.54 6.54 0 0 1 4.4-3.13z"/><path d="m842.75 417.84a8.49 8.49 0 0 1 -11.57 3.1l-41.62-24-4.11-12.15 12.55-2.55 41.61 24a8.49 8.49 0 0 1 3.14 11.6z" fill="#64b5f6"/><path d="m858.21 352.66a6.52 6.52 0 0 1 -4.37 3.14l-55.47 11.09-.37.11a.41.41 0 0 0 -.16 0h-.1l-23.6 4.71a7.5 7.5 0 0 0 -5.63 9.76l7.75 22.89 18.31 54.1a6.51 6.51 0 1 1 -12.34 4.18l-28.43-83.92-.16-.48-2.6-7.69a6.56 6.56 0 0 1 .53-5.35 6.54 6.54 0 0 1 4.37-3.13l7.95-1.59 87.4-17.48a6.27 6.27 0 0 1 1.29-.13 6.52 6.52 0 0 1 5.63 9.77z" fill="#1e88e5"/><path d="m556.54 246.09-7.7-22.76a7.5 7.5 0 0 1 -10.91 8.74l-2.45-1.41 4.12 12.16-12.6 2.51 2.44 1.41a7.51 7.51 0 0 1 -2.26 13.85l23.71-4.74a7.48 7.48 0 0 0 5.63-9.76zm31.67 6.13-3.55-10.49-27.66-81.61a21.52 21.52 0 0 0 -39-3.87 21.56 21.56 0 0 0 -1.75 17.66l11.92 35.22 7.29 21.53 4.12 12.16-12.58 2.51-22.29 4.45-36.47 7.29a21.51 21.51 0 1 0 8.43 42.19l84.49-16.88 10.87-2.17a21.63 21.63 0 0 0 8.32-3.61l.34-.26a21.28 21.28 0 0 0 5.75-6.47 21.52 21.52 0 0 0 1.75-17.65zm-114.46 32.33a6.51 6.51 0 1 1 -2.55-12.77l55.9-11.17h.1l23.71-4.74a7.48 7.48 0 0 0 5.63-9.76l-7.7-22.76-.12-.33-18.24-53.9a6.51 6.51 0 0 1 4.08-8.26 6.59 6.59 0 0 1 2.1-.34 6.48 6.48 0 0 1 6.16 4.43l31.18 92.05a6.51 6.51 0 0 1 -4.89 8.47l-8.06 1.61z"/><path d="m539.6 242.82-12.6 2.51-41.62-24a8.47 8.47 0 1 1 8.47-14.67l41.61 24z" fill="#64b5f6"/><path d="m574.34 259.12a6.51 6.51 0 0 1 -5.23 6.38l-8.06 1.61-87.3 17.44a6.51 6.51 0 1 1 -2.55-12.77l55.9-11.17h.1l23.71-4.74a7.48 7.48 0 0 0 5.63-9.76l-7.7-22.76-.12-.33-18.24-53.9a6.51 6.51 0 0 1 4.08-8.26 6.59 6.59 0 0 1 2.1-.34 6.48 6.48 0 0 1 6.16 4.43l31.18 92.05a6.49 6.49 0 0 1 .34 2.12z" fill="#1e88e5"/><path d="m727.34 303.86a65.46 65.46 0 0 0 -4.48-14.73 66.49 66.49 0 0 0 -37.24-35.44 65.32 65.32 0 0 0 -15-3.77 67.38 67.38 0 0 0 -8.45-.53 66.2 66.2 0 0 0 -8.5.54 65.19 65.19 0 0 0 -15 3.77 66.17 66.17 0 0 0 -41.54 49.45 64.94 64.94 0 0 0 -1.19 12.47 66.41 66.41 0 0 0 42.73 61.91 65.19 65.19 0 0 0 15 3.77 66.2 66.2 0 0 0 8.5.54 67.38 67.38 0 0 0 8.45-.53 65.32 65.32 0 0 0 15-3.77 66.53 66.53 0 0 0 38.32-38.06 65.45 65.45 0 0 0 3.87-15.09 66.82 66.82 0 0 0 .58-8.77 66 66 0 0 0 -1.05-11.76zm-65.17 63c-.55 0-1.09 0-1.63 0s-1.29-.05-1.93-.09-1.38-.11-2.06-.19c-1.48-.16-2.94-.38-4.38-.67-.69-.14-1.37-.29-2-.45s-1.41-.36-2.1-.56l-1-.31q-.51-.15-1-.33l-.9-.31-.23-.08-1.35-.51c-.52-.2-1-.42-1.55-.64l-1.08-.48-.72-.33-1.21-.6-1.32-.69c-.83-.46-1.65-.94-2.46-1.45l-.82-.52c-.59-.38-1.18-.78-1.75-1.19s-1.08-.78-1.61-1.19-1-.82-1.56-1.25l-.8-.68a51.72 51.72 0 0 1 -8-8.77c-.42-.57-.82-1.16-1.21-1.75-.61-.92-1.2-1.88-1.75-2.85-.14-.25-.28-.49-.41-.74v-.05c-.2-.36-.39-.71-.57-1.07l-.42-.83c-.16-.32-.32-.63-.46-1q-1-2-1.74-4.17c-.1-.27-.19-.54-.28-.81-.3-.86-.58-1.73-.83-2.62-.07-.23-.13-.47-.19-.7-.13-.47-.25-.95-.37-1.43 0-.16-.07-.31-.11-.47a52 52 0 0 1 -1.28-11.44 51.23 51.23 0 1 1 51.23 51.22z"/><g fill="#64b5f6"><path d="m743.62 277.14-20.76 12a66.52 66.52 0 0 0 -8.73-14.53l21-12.13a21.49 21.49 0 0 0 8.48 14.68z"/><path d="m744.33 351.24a21.44 21.44 0 0 0 -8.48 14.67l-20-11.56a65.93 65.93 0 0 0 8.1-14.88z"/><path d="m670.62 381.3v23.89a21.29 21.29 0 0 0 -17 0v-23.9a66.2 66.2 0 0 0 8.5.54 67.38 67.38 0 0 0 8.5-.53z"/><path d="m608.91 354.92-20.43 11.79a21.49 21.49 0 0 0 -8.48-14.71l20.64-11.91a66.33 66.33 0 0 0 8.27 14.83z"/><path d="m610.64 274.05a66.46 66.46 0 0 0 -8.89 14.43l-21-12.14a21.28 21.28 0 0 0 5.75-6.47 21.5 21.5 0 0 0 2.73-8.2z"/><path d="m670.62 226v23.88a67.38 67.38 0 0 0 -8.45-.53 66.2 66.2 0 0 0 -8.5.54v-23.89a21.34 21.34 0 0 0 17 0z"/></g><path d="m662.17 264.38a51.29 51.29 0 0 0 -51.23 51.23 52 52 0 0 0 1.28 11.44 51.23 51.23 0 1 0 49.95-62.67zm0 92.12a40.9 40.9 0 1 1 40.89-40.89 40.94 40.94 0 0 1 -40.89 40.89z" fill="#90caf9"/><path d="m662.17 274.71a40.9 40.9 0 1 0 40.89 40.9 40.95 40.95 0 0 0 -40.89-40.9zm0 66.79a25.9 25.9 0 1 1 25.89-25.89 25.93 25.93 0 0 1 -25.89 25.89z"/><path d="m688.06 315.61a25.9 25.9 0 1 1 -25.89-25.9 25.93 25.93 0 0 1 25.89 25.9z" fill="#90caf9"/><path d="m446.62 604a186.45 186.45 0 0 1 -46-123v-296.76a91.74 91.74 0 0 0 -183.48 0v296.68c0 45.83-16.12 89.3-45.4 122.41a183.17 183.17 0 0 0 134.57 304.15h2.63a183 183 0 0 0 137.68-303.48zm-19.74 240.12a166.69 166.69 0 0 1 -120.36 48.36c-90.09-1.25-164.37-75.57-165.59-165.66a167.65 167.65 0 0 1 42.07-113.56c31.7-35.84 49.16-82.84 49.16-132.34v-296.68a76.74 76.74 0 0 1 153.48 0v296.69q0 3.75.14 7.5a201.32 201.32 0 0 0 49.53 125.42 168 168 0 0 1 -8.45 230.27z"/><path d="m435.33 613.85a201.32 201.32 0 0 1 -49.53-125.42h-27.8a7.5 7.5 0 0 1 0-15h27.64v-57.2h-27.64a7.5 7.5 0 0 1 0-15h27.64v-57.23h-27.64a7.5 7.5 0 0 1 0-15h27.64v-57.2h-27.64a7.5 7.5 0 0 1 0-15h27.64v-57.2h-27.64a7.5 7.5 0 0 1 0-15h27.64v-.4a76.74 76.74 0 0 0 -153.48 0v296.72c0 49.5-17.46 96.5-49.16 132.34a167.65 167.65 0 0 0 -42.09 113.56c1.22 90.09 75.5 164.41 165.59 165.66a168 168 0 0 0 128.83-278.63zm-57.07 191.5a98.06 98.06 0 0 1 -69.33 28.44h-1.42a98.76 98.76 0 0 1 -71.87-165c29.24-32.35 45.35-75 45.35-120v-46a27.93 27.93 0 0 1 55.86 0v45.28c0 45.41 16.14 88.3 45.43 120.79a98.75 98.75 0 0 1 -4 136.44z" fill="#ef5350"/><path d="m400.66 480.93a7.5 7.5 0 0 1 -7.5 7.5h-35.16a7.5 7.5 0 0 1 0-15h35.14a7.5 7.5 0 0 1 7.52 7.5z"/><path d="m400.66 408.73a7.5 7.5 0 0 1 -7.5 7.5h-35.16a7.5 7.5 0 0 1 0-15h35.14a7.5 7.5 0 0 1 7.52 7.5z"/><path d="m400.66 336.54a7.5 7.5 0 0 1 -7.5 7.5h-35.16a7.5 7.5 0 0 1 0-15h35.14a7.5 7.5 0 0 1 7.52 7.5z"/><path d="m400.66 264.34a7.5 7.5 0 0 1 -7.5 7.5h-35.16a7.5 7.5 0 0 1 0-15h35.14a7.5 7.5 0 0 1 7.52 7.5z"/><path d="m400.66 192.14a7.5 7.5 0 0 1 -7.5 7.5h-35.16a7.5 7.5 0 0 1 0-15h35.14a7.5 7.5 0 0 1 7.52 7.5z"/><path d="m382.28 668.91c-29.29-32.49-45.43-75.38-45.43-120.79v-45.28a27.93 27.93 0 0 0 -55.86 0v46c0 45-16.11 87.64-45.35 120a98.86 98.86 0 0 0 71.87 165h1.42a98.76 98.76 0 0 0 73.35-164.88zm-14.55 125.76a83.76 83.76 0 0 1 -121-115.79c31.75-35.11 49.23-81.3 49.23-130v-46a12.93 12.93 0 0 1 25.86 0v45.28c0 49.12 17.51 95.59 49.29 130.84a83.75 83.75 0 0 1 -3.41 115.71z"/><path d="m392.68 735a83.76 83.76 0 1 1 -145.92-56.15c31.75-35.11 49.23-81.3 49.23-130v-46a12.93 12.93 0 0 1 25.86 0v45.28c0 49.12 17.51 95.59 49.29 130.84a83.57 83.57 0 0 1 21.54 56.03z" fill="#d1c4e9"/></svg>