<svg height="512" viewBox="0 0 48 48" width="512" xmlns="http://www.w3.org/2000/svg"><g id="Line"><g fill="#f8a358"><path d="m15.243 4.03-4-1c-.607-.168-1.26.339-1.243.97v15c0 .342.174.659.462.843l4 2.555c.632.431 1.562-.077 1.538-.843v-16.555c0-.459-.313-.858-.757-.97z"/><path d="m37.525 2.149c-.295-.183-.663-.198-.973-.044l-4 2c-.338.17-.552.516-.552.895v20.88c-.014.579.54 1.072 1.112.994 0 0 4-.45 4-.45.505-.058.888-.486.888-.994v-22.43c0-.347-.18-.668-.475-.851z"/><path d="m30.242 6.03-4-1c-.606-.169-1.259.339-1.242.97v21.14c0 .476.335.886.802.98l4 .811c.596.135 1.214-.367 1.198-.98 0-.001 0-20.951 0-20.951 0-.459-.313-.858-.758-.97z"/><path d="m21.757 11.03-4 1c-.445.112-.757.511-.757.97v12c-.017.63.637 1.141 1.243.97 0 0 4-1 4-1 .444-.112.757-.511.757-.97v-12c.016-.629-.636-1.142-1.243-.97z"/></g><g fill="#ffd267"><path d="m25.758 2.03-4 1c-.446.112-.758.511-.758.97v21.88c0 .553.448 1 1 1h4c.553 0 1-.447 1-1v-22.88c.017-.628-.636-1.143-1.242-.97z"/><path d="m17.757 7.03-4 1c-.445.112-.757.511-.757.97v14c0 .553.448 1 1 1h4c.552 0 1-.447 1-1v-15c.016-.628-.636-1.144-1.243-.97z"/><path d="m33.615 12.212c-.243-.189-.56-.259-.857-.182l-4 1c-.446.112-.758.511-.758.97v12.6c-.016.604.586 1.107 1.177.984 0 0 4-.72 4-.72.476-.086.823-.5.823-.984v-12.88c0-.308-.142-.599-.385-.788z"/></g><path d="m39.98 19.19c-1.114 5.795-3.852 20.014-5 26-.09.47-.5.81-.98.81h-20c-.48 0-.89-.34-.98-.81-.388-1.909-3.543-18.528-3.83-19.91 0 0-1.17-6.09-1.17-6.09-.132-.593.367-1.209.98-1.19h3c.28 0 .55.12.73.32 5.76 6.532 16.78 6.531 22.54 0 .18-.2.45-.32.73-.32h3c.611-.017 1.115.596.98 1.19z" fill="#997e6c"/><g><path d="m38.81 25.28-.54 2.79-1.01.69c-7.694 5.634-18.837 5.629-26.54-.01 0 0-.99-.68-.99-.68l-.54-2.79 2.68 1.83c7.056 5.166 17.196 5.166 24.25.01 0 0 2.69-1.84 2.69-1.84z" fill="#b18f78"/></g><path d="m15.243 4.03-4-1c-.605-.168-1.261.339-1.243.97v14h-1c-.608-.016-1.113.593-.982 1.188 0 0 1.619 8.422 1.619 8.422 0 .002 3.38 17.577 3.38 17.578.091.472.504.812.983.812h20c.479 0 .892-.34.982-.812l5-26c.127-.595-.372-1.203-.982-1.188h-1v-15c.019-.718-.811-1.237-1.447-.895 0 0-4 2-4 2-.339.17-.553.516-.553.895v7.22l-1 .25v-5.47c0-.459-.313-.858-.758-.97l-3.242-.81v-2.22c0-.308-.142-.599-.385-.788-.243-.19-.56-.259-.857-.182l-4 1c-.446.112-.758.511-.758.97v7.22l-2 .5v-3.72c.017-.628-.636-1.144-1.243-.97 0 0-1.757.439-1.757.439v-2.469c0-.459-.313-.858-.757-.97zm8.757 21.224c4.673 0 9.179-1.909 12.43-5.254h1.359l-1.32 6.866c-3.625 2.687-7.955 4.14-12.469 4.134-4.514.006-8.845-1.447-12.469-4.135 0 0-1.32-6.865-1.32-6.865h1.359c3.259 3.292 7.751 5.261 12.43 5.254zm-12-19.973 2 .5v2.189l-.243.06c-.445.112-.757.511-.757.97v9.581c-.086-.089-.18-.168-.265-.26-.19-.205-.456-.321-.735-.321zm21.174 38.719h-18.348l-2.764-14.374c3.593 2.208 7.686 3.374 11.938 3.374 4.251 0 8.344-1.166 11.938-3.374zm.826-38.382 2-1v13.382c-.88.078-1.308 1.091-2 1.539v-6.539zm-2 15.375c-.643.396-1.308.751-2 1.045v-7.257l2-.5zm-3-13.212v5.188c-.535.07-1.01.46-1 1.03v8.713c-.331.089-.662.177-1 .244v-15.675zm-6-3 2-.5v1.719 17.203c-.663.062-1.337.062-2 0v-11.203zm-2 8.5v9.676c-.682-.134-1.348-.318-2-.541v-8.635zm-4-.281v8.557c-.693-.357-1.364-.758-2-1.222v-10.554l2-.5z"/></g></svg>