<svg id="Layer_1-2" viewBox="0 0 64 64" xmlns="http://www.w3.org/2000/svg"><g id="Smart_Fridge"><path d="m14 59h6v4h-6z" fill="#b6d4ff"/><path d="m44 59h6v4h-6z" fill="#b6d4ff"/><rect fill="#dee9fc" height="58" rx="3" width="44" x="10" y="1"/><path d="m10 43v-39c0-1.65429688 1.34570312-3 3-3h19v42z" fill="#95bcf4"/><path d="m27 30v-16l5-2v20.00048828z" fill="#7ea9e8"/><path d="m27 30v-5h5v7.00048828z" fill="#6892dd"/><path d="m32 43v-42h19c1.65429688 0 3 1.34570312 3 3v39z" fill="#b6d4ff"/><path d="m37 9h12v27h-12z" fill="#95bcf4"/><path d="m37 26h12v10h-12z" fill="#7ea9e8"/><g fill="#433d4c"><path d="m51 0h-38c-2.20556641 0-4 1.79443359-4 4v52c0 2.20556641 1.79443359 4 4 4v3c0 .55224609.44775391 1 1 1h6c.55224609 0 1-.44775391 1-1v-3h22v3c0 .55224609.44726562 1 1 1h6c.55273438 0 1-.44775391 1-1v-3c2.20605469 0 4-1.79443359 4-4v-52c0-2.20556641-1.79394531-4-4-4zm2 4v38h-20v-40h18c1.10253906 0 2 .89697266 2 2zm-22 20h-3v-9.32275391l3-1.20019531zm-3 2h3v4.52294922l-3-1.20019531zm-17-22c0-1.10302734.89697266-2 2-2h18v9.32263184l-4.37158203 1.74865723c-.37939453.15234375-.62841797.52001953-.62841797.92871094v16c0 .40869141.24902344.77636719.62841797.92871094l4.37158203 1.74865723v9.32263184h-20zm8 58h-4v-2h4zm30 0h-4v-2h4zm4-6c0 1.10302734-.89746094 2-2 2h-38c-1.10302734 0-2-.89697266-2-2v-12h42z"/><path d="m15 48c-.55224609 0-1 .44775391-1 1v4c0 .55224609.44775391 1 1 1s1-.44775391 1-1v-4c0-.55224609-.44775391-1-1-1z"/><path d="m37 37h12c.55273438 0 1-.44775391 1-1v-27c0-.55224609-.44726562-1-1-1h-12c-.55273438 0-1 .44775391-1 1v27c0 .55224609.44726562 1 1 1zm11-2h-10v-8h10zm0-25v15h-10v-15z"/><circle cx="41" cy="13" r="1"/><circle cx="45" cy="13" r="1"/><circle cx="41" cy="17" r="1"/><circle cx="45" cy="17" r="1"/><circle cx="41" cy="21" r="1"/><circle cx="45" cy="21" r="1"/></g></g></svg>