<svg id="Capa_1" enable-background="new 0 0 512.008 512.008" height="512" viewBox="0 0 512.008 512.008" width="512" xmlns="http://www.w3.org/2000/svg"><g><g><path d="m476.476 325.771c-3.072 4.07-7.995 15.277-7.995 15.277-15.199 17.914-32.555 33.571-51.534 46.706l-42.237 16.187-41.301 22.337c-22.02 5.828-44.923 8.868-68.201 8.868h-18.399c-27.69 0-54.849-4.302-80.621-12.48 0 0-13.185-7.619-19.094-10.087-44.024-18.392-80.032-47.142-109.745-86.511l88.66-53.787 308.277 9.702z" fill="#bbec6c"/><path d="m434.288 281.985-308.28-9.7-92 56.86c15.931 21.115 34.705 39.477 55.576 54.715 0 0 30.232 9.806 11.091-9.608-8.265-8.383-16.13-17.399-23.542-27.014-4.746-6.157-1.727-15.171 5.755-17.279l22.159-6.243c49.13-13.84 99.92-20.86 150.96-20.86s101.83 7.02 150.96 20.86l61.513 17.333c3.28-3.86 6.457-7.833 9.527-11.903z" fill="#aedd64"/><path d="m171.758 406.675c-.8 5.69-2.69 10.97-5.41 15.65l-.161.342c-.898-.285-1.794-.574-2.688-.869 0 0-10.457-4.957-15.853-7.134-19.389-7.821-36.777-18.826-53.894-30.872-.881-.62 4.044-12.509 4.044-12.509 9.244-9.848 22.97-15.202 37.362-13.178 23.52 3.31 39.9 25.05 36.6 48.57z" fill="#ffd15b"/><path d="m163.848 421.915c-5.828-1.908-11.583-4.015-17.256-6.316-20.2-8.195-39.355-18.841-57.008-31.739l.244-.545c1.98-4.49 4.69-8.54 7.97-12.03 19.87 20.75 42.15 37.78 66.05 50.63z" fill="#f7c359"/><path d="m237.803 289.51c-3.346 5.057-5.295 11.119-5.295 17.637 0 17.673 14.327 32 32 32s32-14.327 32-32c0-6.128-1.723-11.854-4.71-16.719l-2.407-3.635-49.915-.022z" fill="#ffd15b"/><path d="m416.947 387.755c-25.37 17.56-53.639 30.614-83.538 38.524l-.281-.444c-3.39-5.26-5.76-11.3-6.8-17.88-4.02-25.36 13.29-49.18 38.65-53.2 23.06-3.65 44.85 10.32 51.63 31.95z" fill="#ffd15b"/><path d="m296.378 304.325c-13.42-.98-26.89-1.47-40.37-1.47-7.76 0-15.52.16-23.27.49.59-5.07 2.38-9.78 5.07-13.84l1.67-2.73 49.91.02 2.41 3.63c2.53 4.11 4.15 8.84 4.58 13.9z" fill="#f7c359"/><path d="m448.622 184.556-23.114-17.408-3.961-35.648c-3.443-30.984-29.551-54.474-60.725-54.635-25.23-.131-47.974 15.182-57.344 38.607l-2.478 6.194.63 1.142-11.601 32.729c-2.949 7.372-10.318 13.474-16.95 17.194-.226.127-1.139-.051-1.139-.051-4.806 2.553-10.252 3.967-15.932 3.967-13.891 0-26.383-8.457-31.542-21.355l-15.928-39.821c-8.394-20.984-27.518-35.458-49.549-38.153 0 0-5.117.078-7.747.091l.106-.001c-31.174.162-52.174 23.847-55.616 54.831l-9.223 34.908-19.5 18.071c-35.191 26.504-55.021 66.498-55.021 110.553v20.227c0 4.487-1.151 6.552 1.851 9.263 2.701 2.438 8.67 6.587 8.67 6.587 1.336-.003 2.701-.186 4.067-.571l74.676-21.036c1.723-.485 3.448-.963 5.175-1.431l34.326-13.804 40.165-1.184c64.431-8.551 129.966-6.048 193.752 7.51l37.318 1.674 38.731 18.49 34.723 9.781c9.57 2.696 19.067-4.496 19.067-14.438v-20.227c-.001-44.056-20.697-85.552-55.887-112.056z" fill="#d1f19e"/><path d="m158.989 77.318c-12.77 1.56-24.401 7.067-33.561 15.307-10.85 9.76-18.24 23.38-19.96 38.87l-3.96 35.65-23.11 17.41c-35.19 26.5-55.89 68-55.89 112.06v35.23c-8.02.02-15-6.48-15-15.01v-20.22c0-26.08 7.253-51.263 20.47-72.97l33.668-30.896 24.862-25.605 3.96-35.65c1.72-15.49 9.11-29.11 19.96-38.87 10.86-9.77 25.18-15.68 40.77-15.76 2.63-.009 5.231.134 7.791.454z" fill="#bbec6c"/><g fill="#bbec6c"><circle cx="221.008" cy="241.147" r="15"/><circle cx="291.008" cy="241.147" r="15"/></g><path d="m96.918 218.415c-5.53 14.15-19.3 24.18-35.41 24.18-13.99 0-26.94-7.68-33.53-18.95l31.307-27.452 15.983-20.578z" fill="#ffe177"/><path d="m79.408 183.795-1.01.76c-17.63 13.28-31.63 30.32-41.2 49.57-3.72-2.91-6.88-6.46-9.22-10.48.04-.07.08-.13.12-.2 9.1-14.88 21.01-28.12 35.3-38.89l11.87-8.94z" fill="#ffd15b"/><g fill="#ffe177"><path d="m335.348 133.282-4.436 55.83c-6.4 4.89-14.734 8.034-23.404 8.034-15.93 0-29.58-9.81-35.22-23.71l-.35-.76c6.95-3.69 12.56-9.76 15.61-17.38l13.452-33.63c1.92-.3 4.508-.521 6.508-.521 10.93 0 20.91 4.757 27.84 12.137z"/><path d="m180.917 293.821c-25.05 3.32-49.941 8.318-74.491 14.988l-.148-.644c-.5-2.48-.77-5.04-.77-7.66 0-20.99 17.01-38 38-38 18.71 0 34.259 13.516 37.409 31.316z"/><path d="m451.278 320.135-.56 1.36-39.95-11.25c-11.96-3.37-23.999-6.344-36.099-8.914l.019-.346c.37-20.76 16.56-38.16 37.67-39.64 22.31-1.56 41.67 15.27 43.23 37.58.53 7.61-1.08 14.87-4.31 21.21z"/></g><g><path d="m445.801 165.647c0-33.137-26.863-60-60-60-14.24 0-27.321 4.961-37.61 13.248 0 0-2.832 3.458-4.507 5.174-10.56 10.815-16.074 25.265-16.074 41.574 0 33.137 25.054 57.617 58.191 57.617 17.365 0 32.522-5.698 43.479-17.489 2.055-2.212 6.136-6.373 6.136-6.373 6.554-9.616 10.385-21.236 10.385-33.751z" fill="#faf8f8"/><path d="m435.411 199.395c-10.79 15.85-28.98 26.25-49.61 26.25-33.14 0-60-26.86-60-60 0-18.89 8.74-35.75 22.39-46.75-6.55 9.62-10.39 21.24-10.39 33.75 0 33.14 26.86 60 60 60 14.24 0 27.32-4.96 37.61-13.25z" fill="#f0e9e6"/></g><g><path d="m186.008 165.647c0-33.137-26.863-60-60-60-14.24 0-27.321 4.961-37.61 13.248 0 0-2.832 3.458-4.507 5.174-10.56 10.815-16.074 25.265-16.074 41.574 0 33.137 25.054 57.617 58.191 57.617 17.365 0 32.523-5.698 43.479-17.489 2.055-2.212 6.136-6.373 6.136-6.373 6.553-9.616 10.385-21.236 10.385-33.751z" fill="#faf8f8"/><path d="m175.618 199.395c-10.79 15.85-28.98 26.25-49.61 26.25-33.14 0-60-26.86-60-60 0-18.89 8.74-35.75 22.39-46.75-6.55 9.62-10.39 21.24-10.39 33.75 0 33.14 26.86 60 60 60 14.24 0 27.32-4.96 37.61-13.25z" fill="#f0e9e6"/></g></g><g><path d="m452.376 177.994c.744-4.023 1.132-8.152 1.132-12.346 0-23.566-12.148-44.337-30.501-56.415-11.216-24.152-35.37-39.73-62.145-39.868-27.833-.25-53.942 16.907-64.347 43.322l-15.928 39.821c-4.044 10.109-13.691 16.641-24.579 16.641s-20.535-6.532-24.579-16.641l-15.928-39.821c-10.256-25.913-35.983-43.617-64.346-43.322-26.773.138-50.929 15.716-62.145 39.868-18.354 12.078-30.502 32.849-30.502 56.415 0 4.214.407 8.332 1.149 12.333-24.872 18.386-44.077 45.246-53.164 75.326-1.214 3.96 1.013 8.155 4.973 9.369.732.224 1.473.331 2.201.331 3.209 0 6.179-2.076 7.168-5.304 2.237-7.298 5.081-14.311 8.456-21.011 8.444 8.441 20.028 13.4 32.216 13.4 16.251 0 30.835-8.421 38.965-21.976 7.882 3.234 16.501 5.031 25.535 5.031 37.22 0 67.5-30.28 67.5-67.5 0-11.251-2.826-22.393-8.173-32.22-1.979-3.638-6.533-4.984-10.172-3.003-3.639 1.979-4.983 6.534-3.003 10.172 4.154 7.634 6.349 16.296 6.349 25.051 0 28.949-23.551 52.5-52.5 52.5s-52.5-23.551-52.5-52.5 23.551-52.5 52.5-52.5c8.65 0 17.221 2.146 24.786 6.206 3.65 1.96 8.196.588 10.155-3.062s.588-8.196-3.062-10.155c-9.739-5.227-20.763-7.989-31.88-7.989-3.965 0-7.845.363-11.625 1.023 9.761-9.261 22.847-14.733 36.849-14.806 21.558-.223 42.239 13.234 50.342 33.893l15.928 39.821c6.334 15.836 21.449 26.069 38.505 26.069 4.262 0 8.403-.639 12.316-1.845 8.099 13.76 22.846 22.345 39.184 22.345 7.161 0 14.051-1.638 20.308-4.773 9.664 16.437 26.133 28.541 45.981 32.17.456.083.91.124 1.358.124 3.552 0 6.707-2.534 7.369-6.152.745-4.075-1.954-7.982-6.028-8.727-24.909-4.555-42.987-26.273-42.987-51.642 0-28.949 23.551-52.5 52.5-52.5s52.5 23.551 52.5 52.5c0 21.114-12.559 40.091-31.995 48.347-3.812 1.619-5.59 6.022-3.971 9.835 1.619 3.812 6.023 5.592 9.835 3.971 16.024-6.806 28.401-19.286 35.226-34.519 31.012 25.054 49.404 63.345 49.404 103.331v20.227c0 2.37-1.083 4.549-2.973 5.979-1.888 1.43-4.28 1.882-6.561 1.24l-26.648-7.506c1.886-5.822 2.671-11.979 2.239-18.149-1.846-26.403-24.826-46.385-51.231-44.535-12.051.843-23.253 6.141-31.543 14.919-6.255 6.623-10.436 14.784-12.183 23.562-59.904-11.843-121.188-14.119-181.62-6.796-6.246-18.058-23.317-30.546-42.98-30.546-25.089 0-45.5 20.411-45.5 45.5 0 .944.039 1.888.097 2.83l-73.564 20.722c-2.279.644-4.672.19-6.561-1.24s-2.973-3.609-2.973-5.979c.071-10.1-.167-16.624.144-26.407.193-4.138-3.005-7.648-7.143-7.841-4.141-.208-7.648 3.005-7.841 7.143-.262 3.565-.132 23.441-.16 27.105 0 7.108 3.25 13.646 8.917 17.938 5.486 4.361 14.792 5.787 22.285 2.987 24.999 31.83 57.185 58.104 93.409 76.143 37.757 18.803 80.009 28.741 122.189 28.741h18.399c42.179 0 84.431-9.938 122.187-28.741 36.225-18.039 68.411-44.314 93.412-76.144 3.433.883 2.817 1.129 8.763 1.59 4.826 0 9.545-1.566 13.521-4.577 5.667-4.291 8.917-10.829 8.917-17.938v-20.227c.004-46.152-22.763-90.852-59.628-118.618zm-365.088 42.894c-5.51 8.771-15.102 14.205-25.78 14.205-9.55 0-18.548-4.543-24.277-12.051 7.436-11.182 16.567-21.207 27.209-29.778 5.015 11.135 12.957 20.67 22.848 27.624zm234.396-34.727c-4.34 2.289-9.159 3.487-14.176 3.487-10.689 0-20.35-5.492-25.857-14.329 5.596-4.403 10.078-10.279 12.862-17.24l11.753-29.383c5.856-.316 13.638 1.607 19.701 6.168-4.756 9.238-7.459 19.698-7.459 30.784 0 7.121 1.109 14.019 3.176 20.513zm64.324-88.014c-20.762 0-39.357 9.428-51.749 24.221-6.407-4.648-13.958-7.585-21.854-8.448 8.713-17.542 27.84-29.819 48.378-29.556 14.004.072 27.089 5.544 36.85 14.806-3.779-.659-7.659-1.023-11.625-1.023zm26.873 170.684c18.151-1.275 33.953 12.465 35.222 30.618.311 4.442-.28 8.874-1.71 13.036l-33.594-9.463c-9.947-2.802-19.951-5.324-29.998-7.583 2.822-14.314 15.102-25.561 30.08-26.608zm-170.455 27.705c14.828-.358 29.666-.136 44.481.678 1.379 3.109 2.101 6.489 2.101 9.933 0 13.509-10.991 24.5-24.5 24.5s-24.5-10.991-24.5-24.5c0-3.708.834-7.319 2.418-10.611zm-98.918-26.531c12.125 0 22.781 7.078 27.669 17.627-19.515 2.896-38.919 6.797-58.14 11.702.619-16.276 14.046-29.329 30.471-29.329zm20.819 135.624c-.374 2.661-1.043 5.232-1.98 7.699-22.327-7.74-43.555-18.464-63.006-31.893 7.397-11.431 20.977-17.844 34.772-15.901 9.39 1.319 17.705 6.217 23.411 13.79 5.707 7.574 8.123 16.916 6.803 26.305zm255.932-29.657c-10.491-20.282-33.287-32.293-56.453-28.625-6.326 1.001-12.346 3.081-17.895 6.181-3.616 2.02-4.91 6.589-2.889 10.206 2.02 3.617 6.588 4.91 10.206 2.889 4.001-2.235 8.349-3.736 12.924-4.46 17.431-2.763 34.566 6.762 41.668 22.524-21.812 14.349-45.714 25.386-70.82 32.679-1.576-3.332-2.679-6.871-3.267-10.582-.954-6.021-.519-11.998 1.294-17.765 1.242-3.952-.955-8.162-4.906-9.404-3.954-1.244-8.162.955-9.404 4.906-2.514 7.999-3.12 16.278-1.8 24.609.662 4.178 1.803 8.2 3.377 12.044-18.601 4.243-37.741 6.473-57.088 6.473h-18.399c-23.904 0-47.494-3.395-70.136-9.81 1.173-3.257 2.019-6.636 2.509-10.119 3.875-27.575-15.406-53.162-42.98-57.037-19.316-2.717-38.335 6.082-48.963 21.872-14.749-11.491-28.288-24.628-40.33-39.212l56.377-15.881c40.33-11.36 81.59-18.129 123.029-20.318-.847 3.244-1.307 6.597-1.307 10.005 0 21.78 17.72 39.5 39.5 39.5s39.5-17.72 39.5-39.5c0-2.988-.354-5.943-1.013-8.822 35.615 2.983 71.02 9.356 105.735 19.134l56.377 15.881c-13.256 16.06-28.345 30.345-44.846 42.632z"/><path d="m243.508 241.147c0-12.407-10.093-22.5-22.5-22.5s-22.5 10.093-22.5 22.5 10.093 22.5 22.5 22.5 22.5-10.093 22.5-22.5zm-30 0c0-4.136 3.364-7.5 7.5-7.5s7.5 3.364 7.5 7.5-3.364 7.5-7.5 7.5-7.5-3.364-7.5-7.5z"/><path d="m313.508 241.147c0-12.407-10.093-22.5-22.5-22.5s-22.5 10.093-22.5 22.5 10.093 22.5 22.5 22.5 22.5-10.093 22.5-22.5zm-30 0c0-4.136 3.364-7.5 7.5-7.5s7.5 3.364 7.5 7.5-3.364 7.5-7.5 7.5-7.5-3.364-7.5-7.5z"/><g><g><path d="m126.008 182.505c-4.142 0-7.5-3.358-7.5-7.5v-20c0-4.142 3.358-7.5 7.5-7.5s7.5 3.358 7.5 7.5v20c0 4.142-3.358 7.5-7.5 7.5z"/></g><g><path d="m386.008 182.505c-4.142 0-7.5-3.358-7.5-7.5v-20c0-4.142 3.358-7.5 7.5-7.5s7.5 3.358 7.5 7.5v20c0 4.142-3.358 7.5-7.5 7.5z"/></g></g></g></g></svg>