<svg id="Layer_1" enable-background="new 0 0 511.942 511.942" viewBox="0 0 511.942 511.942" xmlns="http://www.w3.org/2000/svg"><g><g><path d="m441.952 366.895c-4.52 34.58-12.71 68.96-24.73 102.68-5.96 16.7-21.06 28.45-38.73 29.89-49.96 4.07-100.91 5.71-152.66 4.67-30.55-.6-61.38-2.14-92.43-4.67-17.62-1.44-32.71-13.16-38.65-29.81-11.75-32.93-20.13-67.3-24.76-102.76z" fill="#ff899f"/><path d="m225.832 504.135c-30.55-.6-61.38-2.14-92.43-4.67-17.62-1.44-32.71-13.16-38.65-29.81-11.75-32.93-20.13-67.3-24.76-102.76h101.59l-.59 3.76c4.63 36.12 13.01 71.15 24.76 104.7 4.95 14.14 16.25 24.79 30.08 28.78z" fill="#ff5f7f"/><path d="m99.614 177.77-21.028-38.614c-7.823-14.365-26.53-19.289-41.093-10.483-15.725 9.539-19.06 28.835-9.865 42.009 13.474 19.304 30.68 44.649 45.522 66.169 15.05 4.978 31.084-.3 38.789-11.877 9.557-14.359 5.013-36.482-12.325-47.204z" fill="#e7896e"/><path d="m374.492 99.35c-38.311 42.071-98.009 66.173-158.7 55.555-32.829-50.347-1.301-112.433 56.92-119.42 26.26-3.33 49.719-7.77 62.6-19.77 16.319-15.201 43.25-8.4 49.38 13 6.6 23.01 3.21 48.555-10.2 70.635z" fill="#efedff"/><path d="m251.292 120.205c-18.84 6.55-30.67 19.55-35.5 34.7-37.75-6.59-64.08-24.28-73.93-31.47-7.26-78.42 69.45-80.18 130.85-87.95-37.96 11.275-50.191 56.972-21.42 84.72z" fill="#d9d9f9"/><path d="m249.622 118.525c48.738 2.489 105.757 7.012 124.87-19.175 32.11 23.9 43.05 57.945 32.07 88.865-53.707 61.761-131.647 88.091-216.14 66.61-26.239-73.322-17.719-101.424-5.063-113.527z" fill="#d9d9f9"/><path d="m234.722 217.795c-22.71 6.16-37.43 20.11-44.3 37.03-46.04-11.65-78.92-33.4-85.61-37.97-27.94-106.33 60.61-102.8 144.81-98.33.54.57 1.1 1.13 1.67 1.68-44.47 15.46-49.84 66.81-16.57 97.59z" fill="#c2c2f0"/><path d="m199.192 320.004c-57.29-5.28-104.28-17.91-137.69-29.22-3.31-21.56.08-37.76 8.51-49.87 26.3-37.81 94.71-29.69 164.69-23.12-48.766 13.256-61.873 63.6-35.51 102.21z" fill="#d9d9f9"/><path d="m445.892 291.194c-77.034 25.881-161.163 36.732-246.7 28.81-26.245-38.439-13.469-88.896 35.51-102.21l.32.03c68.33 6.41 138.09 11.27 171.54-29.61 43.08 27.251 55.14 67.321 39.33 102.98z" fill="#efedff"/><g fill="#ff899f"><path d="m157.584 235.465c-6.633-6.817-5.326-17.943 2.593-23.067l32.233-20.857c6.955-4.501 16.237-2.513 20.743 4.444 4.501 6.956 2.51 16.242-4.444 20.743l-32.233 20.857c-6.106 3.951-14.008 2.9-18.892-2.12z"/><path d="m352.388 134.439c-1.191 9.436-10.703 15.354-19.647 12.361l-36.408-12.185c-7.856-2.629-12.092-11.124-9.464-18.985 2.63-7.857 11.13-12.093 18.985-9.464l36.408 12.185c6.896 2.308 11.003 9.14 10.126 16.088z"/><path d="m454.848 250.891-22.902 4.765c-8.11 1.688-16.05-3.515-17.742-11.629-1.688-8.111 3.52-16.054 11.629-17.742l22.903-4.766c8.111-1.688 16.054 3.519 17.741 11.63 1.688 8.111-3.518 16.055-11.629 17.742z"/></g><path d="m203.324 71.809-17.558-15.457c-6.218-5.473-6.822-14.947-1.347-21.171 5.475-6.218 14.953-6.821 21.171-1.347l17.558 15.458c6.218 5.474 6.821 14.952 1.347 21.17s-14.953 6.821-21.171 1.347z" fill="#60daa8"/><path d="m298.824 252.233-17.558-15.457c-6.218-5.473-6.822-14.947-1.347-21.171 5.475-6.218 14.953-6.821 21.171-1.347l17.558 15.458c6.218 5.474 6.821 14.952 1.347 21.17s-14.953 6.821-21.171 1.347z" fill="#60daa8"/><path d="m489.382 328.185c0 19.1-14.38 35.11-33.36 37.21-88.005 9.758-178.306 13.216-269.28 9.73-23.702-3.023-39.083-24.854-35.318-44.859 3.097-16.457 18.771-30.026 37.888-30.34 2.082-.034 26.873 1.23 66.66 1.23 113.003 0 187.889-10.4 196.08-10.4 20.36-.002 37.33 16.569 37.33 37.429z" fill="#ff5f7f"/><path d="m186.742 375.125c-46.48-1.77-90.19-5.23-130.82-9.73-18.98-2.1-33.36-18.11-33.36-37.21 0-22.22 19.25-39.57 41.34-37.22 39.12 4.16 81.01 7.33 125.41 8.96-36.53 13.41-35.61 58.78-2.57 75.2z" fill="#f9475e"/><ellipse cx="172.125" cy="450.253" fill="#f4f4f4" rx="30.938" ry="24.637"/><ellipse cx="339.818" cy="450.253" fill="#f4f4f4" rx="30.938" ry="24.637"/><ellipse cx="255.972" cy="431.323" fill="#485c70" rx="16.423" ry="18.377"/></g><g><path d="m456.72 283.524c2.581-8.7 3.663-17.512 3.254-26.347 10.05-3.914 16.124-14.643 13.855-25.543-2.527-12.146-14.468-19.974-26.612-17.445l-1.816.378c-7.443-10.985-17.503-20.87-30-29.486 8.627-31.381-3.012-64.043-31.228-87.625 11.537-22.154 14.388-47.599 7.742-70.792-7.628-26.618-41.162-35.566-61.706-16.419-19.025 17.733-68.624 17.235-111.875 24.819l-7.779-6.848c-9.312-8.195-23.556-7.289-31.757 2.024-4.558 5.181-6.29 11.886-5.336 18.229-28.055 13.96-40.998 36.98-39.439 70.071-18.079 6.9-31.624 18.652-38.017 36.916l-10.822-19.874c-9.523-17.485-32.629-24.934-52.172-12.94-18.016 11.056-23.639 34.986-11.523 52.347 12.354 17.696 28.366 41.241 42.396 61.628-7.609 10.653-12.484 26.305-10.751 47.188-22.182 3.43-38.064 22.507-38.064 44.395 0 22.932 17.212 42.132 40.036 44.661 2.747.304 5.507.594 8.265.887 4.774 33.451 12.947 66.538 24.328 98.439 6.939 19.45 24.645 33.095 45.106 34.762 81.736 6.657 164.567 6.657 246.303.004 20.495-1.67 38.23-15.349 45.185-34.849 11.365-31.871 19.528-64.931 24.299-98.356 2.756-.292 5.513-.582 8.265-.887 22.825-2.529 40.037-21.729 40.037-44.661-.001-22.788-17.155-42.229-40.174-44.676zm-6.447-54.65c4.084-.846 8.035 1.795 8.871 5.814.843 4.05-1.767 8.029-5.815 8.872l-22.901 4.765c-4.047.849-8.026-1.768-8.871-5.813-.843-4.049 1.767-8.029 5.815-8.872zm-260.216-188.726c2.733-3.104 7.481-3.406 10.586-.675l17.559 15.458c3.104 2.733 3.406 7.482.674 10.586s-7.48 3.406-10.586.674l-17.558-15.458c-3.104-2.731-3.405-7.481-.675-10.585zm-8.928 84.719c4.135-.244 7.289-3.795 7.045-7.93-.244-4.134-3.78-7.28-7.93-7.045-11.75.694-22.167 2.083-31.366 4.196-.256-25.133 9.75-41.645 31.647-52.384l17.853 15.745c4.268 3.757 9.571 5.603 14.854 5.603 17.998 0 28.662-20.045 18.707-34.969 42.247-6.104 86.862-6.7 108.497-26.866 12.195-11.366 32.449-6.513 37.06 9.579 6.056 21.132 2.684 44.576-9.233 64.382-5.235 7-14.396 11.792-27.948 14.621l-32.071-10.733c-11.504-3.85-23.967 2.158-28.198 13.427-22.732-.864-46.133-2.623-69.097-3.063-4.106-.057-7.563 3.215-7.643 7.355-.079 4.142 3.215 7.563 7.355 7.643 22.539.43 46.33 2.207 69.1 3.066 2.163 6.485 7.236 11.916 14.2 14.247l36.41 12.186c19.907 6.666 37.31-15.322 26.255-33.169 7.622-2.814 13.845-6.503 18.758-11.117 24.331 20.694 33.432 48.18 24.531 74.833-16.604 19.491-44.408 29.075-87.188 30.042l-6.671-5.874c-10.13-8.918-26.189-7.08-33.785 4.756-16.287-1.067-33.22-2.711-49.774-4.278 1.293-5.706.383-11.907-3.04-17.197-6.744-10.413-20.701-13.401-31.111-6.664l-30.137 19.5c-15.355-.239-32.099.353-47.69 3.794-13.164-58.353 10.899-80.159 70.61-83.686zm163.493 10.1c-1.313 3.923-5.574 6.041-9.492 4.733l-36.409-12.186c-3.92-1.312-6.042-5.571-4.731-9.492 1.049-3.136 3.981-5.121 7.118-5.121 1.782 0 .18-.344 38.783 12.573 3.852 1.289 6.068 5.49 4.731 9.493zm-30.248 110.974c-2.732 3.104-7.481 3.409-10.585.674l-17.559-15.458c-3.103-2.731-3.403-7.48-.674-10.585 2.733-3.104 7.482-3.406 10.586-.674l17.559 15.459c3.111 2.739 3.413 7.475.673 10.584zm-109.73-35.499-32.234 20.858c-2.993 1.937-6.963 1.495-9.442-1.053-3.312-3.405-2.681-8.969 1.292-11.54l32.234-20.858c1.255-.812 2.665-1.2 4.061-1.2 7.485-.001 10.326 9.757 4.089 13.793zm-58.182 9.358c-4.69 19.734 17.127 35.075 34.097 24.093l31.909-20.647c19.169 1.77 37.843 3.683 56.416 4.957.633 5.309 3.118 10.414 7.436 14.213l17.558 15.459c9.313 8.197 23.558 7.29 31.757-2.021 6.816-7.745 7.345-18.799 2.03-27.035 36.779-2.726 62.676-12.673 80.167-30.744 8.549 6.008 15.714 12.652 21.435 19.85l-4.951 1.03c-12.146 2.528-19.971 14.467-17.443 26.616 2.532 12.142 14.468 19.969 26.611 17.44l11.573-2.408c.017 7.901-1.448 15.799-4.389 23.597-119.704 12.279-244.403 13.044-372.466-.318-1.584-15.994 1.032-28.693 7.973-38.672 11.516-16.558 33.448-24.561 70.287-25.41zm-112.675-53.399c-6.567-9.407-4.711-23.818 7.596-31.298 11.006-6.689 24.903-2.856 30.625 7.651l20.04 36.8c-.142 9.948 1.201 20.994 4.034 33.218-8.007 2.994-15.419 7.039-21.819 12.466-13.817-20.101-28.553-41.756-40.476-58.837zm421.417 191.552c-103.14 11.428-210.155 14.269-319.196 7.021-4.1-.287-7.705 2.853-7.98 6.986-.274 4.133 2.853 7.706 6.986 7.98 99.417 6.608 199.015 5.047 298.181-4.62-4.695 31.174-12.421 61.993-23.031 91.746-4.977 13.956-17.645 23.744-32.273 24.936-80.917 6.589-162.965 6.588-243.866-.004-14.598-1.188-27.235-10.943-32.198-24.852-10.624-29.779-18.36-60.625-23.058-91.824 8.685.848 17.375 1.638 26.003 2.356 4.116.34 7.753-2.725 8.097-6.853.343-4.128-2.725-7.753-6.853-8.097-16.351-1.359-32.923-2.967-49.257-4.776-15.216-1.686-26.689-14.477-26.689-29.752 0-17.757 15.395-31.637 33.053-29.762 130.247 13.849 255.444 13.604 385.717 0 17.663-1.845 33.054 12.003 33.054 29.762-.001 15.275-11.475 28.066-26.69 29.753z"/><path d="m255.981 457.212c13.191 0 23.923-11.608 23.923-25.877s-10.731-25.877-23.923-25.877-23.923 11.608-23.923 25.877 10.731 25.877 23.923 25.877zm0-36.754c4.92 0 8.923 4.879 8.923 10.877s-4.003 10.877-8.923 10.877-8.923-4.879-8.923-10.877 4.003-10.877 8.923-10.877z"/><path d="m180.1 427.84c4.143 0 7.5-3.357 7.5-7.5 0-3.455 2.811-6.266 6.266-6.266 3.454 0 6.265 2.811 6.265 6.266 0 4.143 3.357 7.5 7.5 7.5s7.5-3.357 7.5-7.5c0-11.726-9.539-21.266-21.265-21.266s-21.266 9.54-21.266 21.266c0 4.142 3.357 7.5 7.5 7.5z"/><path d="m303.145 427.84c4.143 0 7.5-3.357 7.5-7.5 0-3.455 2.811-6.266 6.266-6.266 3.454 0 6.265 2.811 6.265 6.266 0 4.143 3.357 7.5 7.5 7.5s7.5-3.357 7.5-7.5c0-11.726-9.539-21.266-21.265-21.266s-21.266 9.54-21.266 21.266c0 4.142 3.357 7.5 7.5 7.5z"/></g></g><g/><g/><g/><g/><g/><g/><g/><g/><g/><g/><g/><g/><g/><g/><g/></svg>