<svg id="Filled_Expand" height="512" viewBox="0 0 64 64" width="512" xmlns="http://www.w3.org/2000/svg" data-name="Filled Expand"><circle cx="30" cy="15" fill="#ffe664" r="3.5"/><path d="m5.05 16.9a7 7 0 0 0 9.9 0l-9.9-9.9a7 7 0 0 0 0 9.9z" fill="#82fa96"/><path d="m37.453 26.305-35.453 6.251.868 4.924a5 5 0 0 0 5.793 4.056l25.6-4.515a5 5 0 0 0 4.055-5.792z" fill="#8c96b4"/><path d="m44.29 19.007a3.5 3.5 0 0 0 4.054 2.839l10.764-1.9a3.5 3.5 0 0 0 2.892-3.446 3.5 3.5 0 0 0 -4.108-3.447l-10.763 1.9a3.5 3.5 0 0 0 -2.839 4.054z" fill="#c3875a"/><path d="m27 53.5a3.5 3.5 0 0 0 7 0c0-2.8-3.5-6.5-3.5-6.5s-3.5 3.7-3.5 6.5z" fill="#f55a8c"/><path d="m19 53.5a3.5 3.5 0 0 1 -7 0c0-2.8 3.5-6.5 3.5-6.5s3.5 3.7 3.5 6.5z" fill="#f55a8c"/><path d="m30 20.25a5.25 5.25 0 1 0 -5.25-5.25 5.256 5.256 0 0 0 5.25 5.25zm0-7a1.75 1.75 0 1 1 -1.75 1.75 1.752 1.752 0 0 1 1.75-1.75z"/><circle cx="19" cy="10" r="1.75"/><circle cx="21" cy="22" r="1.75"/><path d="m39 55.25h-3.556a5.233 5.233 0 0 0 .306-1.75c0-3.4-3.572-7.272-3.979-7.7a1.8 1.8 0 0 0 -2.542 0c-.407.431-3.979 4.3-3.979 7.7a5.233 5.233 0 0 0 .306 1.75h-5.112a5.233 5.233 0 0 0 .306-1.75c0-3.4-3.572-7.272-3.979-7.7a1.8 1.8 0 0 0 -2.542 0c-.407.431-3.979 4.3-3.979 7.7a5.233 5.233 0 0 0 .306 1.75h-3.556a1.75 1.75 0 0 0 0 3.5h32a1.75 1.75 0 0 0 0-3.5zm-23.5 0a1.752 1.752 0 0 1 -1.75-1.75 7.985 7.985 0 0 1 1.75-3.749 7.985 7.985 0 0 1 1.75 3.749 1.752 1.752 0 0 1 -1.75 1.75zm15 0a1.752 1.752 0 0 1 -1.75-1.75 7.985 7.985 0 0 1 1.75-3.749 7.985 7.985 0 0 1 1.75 3.749 1.752 1.752 0 0 1 -1.75 1.75z"/><path d="m16.185 18.139a1.749 1.749 0 0 0 0-2.475l-9.9-9.9a1.749 1.749 0 0 0 -2.475 0 8.75 8.75 0 0 0 12.375 12.375zm-10.925-8.45 7 7a5.251 5.251 0 0 1 -7-7z"/><path d="m57.588 11.332-10.763 1.9a5.244 5.244 0 0 0 -4.262 4.305l-2.517.444a5.757 5.757 0 0 0 -4.664 6.661l.044.246-33.726 5.946a1.75 1.75 0 0 0 -1.42 2.027l.869 4.924a6.756 6.756 0 0 0 7.815 5.475l25.605-4.515a6.757 6.757 0 0 0 5.476-7.819l-1.216-6.894a2.252 2.252 0 0 1 1.825-2.606l2.517-.444a5.247 5.247 0 0 0 5.477 2.588l10.764-1.9a5.25 5.25 0 1 0 -1.824-10.34zm-23.627 23.968-25.6 4.514a3.254 3.254 0 0 1 -3.766-2.636l-.564-3.2 32.006-5.644.565 3.2a3.255 3.255 0 0 1 -2.641 3.766zm24.839-17.075-10.764 1.9a1.75 1.75 0 1 1 -.608-3.446l10.764-1.9a1.75 1.75 0 1 1 .608 3.446z"/></svg>