<svg id="Filled_Expand" height="512" viewBox="0 0 64 64" width="512" xmlns="http://www.w3.org/2000/svg" data-name="Filled Expand"><path d="m21 6a4 4 0 0 0 4 4 4 4 0 0 1 4 4v6a8 8 0 0 1 -8 8 8 8 0 0 1 -8-8v-14a4 4 0 0 1 4-4 4 4 0 0 1 4 4z" fill="#ebf5ff"/><circle cx="17" cy="20" fill="#ffe664" r="4"/><path d="m25 58.5a3.5 3.5 0 0 0 7 0c0-2.8-3.5-6.5-3.5-6.5s-3.5 3.7-3.5 6.5z" fill="#f55a8c"/><path d="m17 58.5a3.5 3.5 0 0 1 -7 0c0-2.8 3.5-6.5 3.5-6.5s3.5 3.7 3.5 6.5z" fill="#f55a8c"/><path d="m38 35h-36v5a5 5 0 0 0 5 5h26a5 5 0 0 0 5-5z" fill="#8c96b4"/><rect fill="#c3875a" height="7" rx="3.5" width="16" x="46" y="25.5"/><path d="m21 29.75a9.761 9.761 0 0 0 9.75-9.75v-6a5.757 5.757 0 0 0 -5.75-5.75 2.252 2.252 0 0 1 -2.25-2.25 5.75 5.75 0 0 0 -11.5 0v14a9.761 9.761 0 0 0 9.75 9.75zm-6.25-23.75a2.25 2.25 0 0 1 4.5 0 5.757 5.757 0 0 0 5.75 5.75 2.252 2.252 0 0 1 2.25 2.25v6a6.257 6.257 0 0 1 -6.25 6.25 6.192 6.192 0 0 1 -2.743-.643 5.748 5.748 0 1 0 -3.507-10.9zm2.25 11.75a2.25 2.25 0 1 1 -2.25 2.25 2.252 2.252 0 0 1 2.25-2.25z"/><path d="m37 60.25h-3.556a5.233 5.233 0 0 0 .306-1.75c0-3.4-3.572-7.272-3.979-7.7a1.807 1.807 0 0 0 -2.542 0c-.407.431-3.979 4.3-3.979 7.7a5.233 5.233 0 0 0 .306 1.75h-5.112a5.233 5.233 0 0 0 .306-1.75c0-3.4-3.572-7.272-3.979-7.7a1.807 1.807 0 0 0 -2.542 0c-.407.431-3.979 4.3-3.979 7.7a5.233 5.233 0 0 0 .306 1.75h-3.556a1.75 1.75 0 0 0 0 3.5h32a1.75 1.75 0 0 0 0-3.5zm-23.5 0a1.752 1.752 0 0 1 -1.75-1.75 7.985 7.985 0 0 1 1.75-3.749 7.985 7.985 0 0 1 1.75 3.749 1.752 1.752 0 0 1 -1.75 1.75zm15 0a1.752 1.752 0 0 1 -1.75-1.75 7.985 7.985 0 0 1 1.75-3.749 7.985 7.985 0 0 1 1.75 3.749 1.752 1.752 0 0 1 -1.75 1.75z"/><path d="m58.5 23.75h-9a5.254 5.254 0 0 0 -4.944 3.5h-2.556a5.757 5.757 0 0 0 -5.75 5.75v.25h-34.25a1.75 1.75 0 0 0 -1.75 1.75v5a6.758 6.758 0 0 0 6.75 6.75h26a6.758 6.758 0 0 0 6.75-6.75v-7a2.252 2.252 0 0 1 2.25-2.25h2.556a5.254 5.254 0 0 0 4.944 3.5h9a5.25 5.25 0 0 0 0-10.5zm-22.25 16.25a3.254 3.254 0 0 1 -3.25 3.25h-26a3.254 3.254 0 0 1 -3.25-3.25v-3.25h32.5zm22.25-9.25h-9a1.75 1.75 0 0 1 0-3.5h9a1.75 1.75 0 0 1 0 3.5z"/></svg>