<svg id="Capa_1" enable-background="new 0 0 512.061 512.061" height="512" viewBox="0 0 512.061 512.061" width="512" xmlns="http://www.w3.org/2000/svg"><g><g><path d="m448.666 347.683c-1.018-1.018-2.655-1.049-3.703-.062-41.776 39.315-172.39 148.09-287.736 93.331l-1.465 6.698 9.417 13.583s43.25 25.875 44.75 26.125 38.875 6.375 38.875 6.375l31-3.375 7.773-2.118c38.704-14.871 77.344-39.705 111.375-73.736 19.908-19.908 36.656-41.395 50.116-63.548.638-1.05.467-2.403-.402-3.273z" fill="#ffd086"/><path d="m165.856 450.575c-3.071-3.071-5.932-6.292-8.629-9.622-15.441-7.33-30.608-17.596-45.252-31.345l3.87-6.374-22.333-22.667-14.974-64.208 1.141-27.292-.872-1.7c-24.514 68.349-17.798 136.195 24.511 178.504 43.497 43.497 113.984 49.37 184.259 22.369-47.581 4.8-91.267-7.211-121.721-37.665z" fill="#ffb640"/><path d="m408.767 46.26c-11.369-11.369-24.587-20.157-39.158-26.472 0 0-17.098-2.554-18.098-3.221s-55.667 3.221-55.667 3.221l-85.144 35.446-8.59 18.994c62.471-25.46 135.11-30.811 198.068 28.36v.142l1.75 9.254 26.5 64.75s-.5 34.75 0 36.5 4.851 11.531 4.851 11.531c24.513-68.349 17.798-136.196-24.512-178.505z" fill="#ffd086"/><g><path d="m369.609 19.788c-71.88-31.149-176.805-1.833-256.477 77.839-19.907 19.908-36.656 41.395-50.116 63.548-.638 1.051-.468 2.404.402 3.273 1.018 1.018 2.655 1.049 3.703.062 23.331-21.957 74.373-65.579 134.988-90.282 54.462-39.665 115.162-58.658 167.5-54.44z" fill="#ffb640"/></g><path d="m404.928 107.18c-17.868-17.868-41.346-27.98-67.693-30.863-45.28 9.139-93.458 35.069-134.301 75.912-83.516 83.516-104.73 197.709-47.382 255.056 14.34 14.34 32.24 23.754 52.32 28.524 49.595-5.028 104.67-31.774 150.406-77.509 82.226-82.227 103.112-194.657 46.65-251.12z" fill="#ffb640"/><path d="m158.49 404.952c-56.463-56.463-35.576-168.893 46.651-251.12 42.814-42.814 93.813-68.987 140.84-76.281-58.32-10.249-133.053 17.161-192.173 76.281-82.228 82.227-103.114 194.658-46.651 251.12 27.064 27.064 66.989 36.345 110.281 29.63-22.795-4.006-43.082-13.764-58.948-29.63z" fill="#ffa90f"/><path d="m361.445 150.663c-11.31-11.31-25.726-18.313-41.899-21.257-29.815 7.747-60.771 25.385-87.314 51.929-59.522 59.521-74.315 141.231-33.042 182.504 8.82 8.82 19.491 15.073 31.395 18.881 33.042-5.322 68.654-23.675 98.545-53.566 58.212-58.213 72.68-138.126 32.315-178.491z" fill="#fb5fa7"/><path d="m201.972 361.469c-40.365-40.365-25.897-120.278 32.315-178.491 27.756-27.756 60.444-45.558 91.428-52.222-42.349-10.783-98.754 8.215-142.761 52.222-58.213 58.213-72.681 138.126-32.315 178.491 21.119 21.119 53.064 27.219 87.062 19.907-13.669-3.481-25.879-10.057-35.729-19.907z" fill="#fb4297"/><path d="m318.243 193.865c-4.98-4.98-10.86-8.681-17.339-11.182-14.141 5.285-28.144 14.154-40.401 26.411-35.164 35.164-42.64 84.701-16.697 110.643 4.053 4.053 8.696 7.265 13.759 9.705 15.458-4.84 30.978-14.098 44.366-27.486 34.352-34.354 41.656-82.748 16.312-108.091z" fill="#3351c5"/><path d="m245.174 318.267c-25.344-25.344-18.041-73.737 16.312-108.09 12.594-12.594 27.076-21.536 41.617-26.583-26.632-11.689-64.575-1.792-92.95 26.583-34.353 34.353-41.656 82.746-16.312 108.09 16.052 16.052 41.351 18.991 66.473 10.271-5.611-2.463-10.73-5.861-15.14-10.271z" fill="#213993"/></g><g><path d="m389.622 234.551c13.545-74.814-37.016-125.673-112.077-112.077-117.514 21.275-201.968 174.55-132.222 244.299 69.746 69.741 222.985-14.494 244.299-132.222zm-201.376-46.269c55.264-55.266 130.679-69.52 167.883-32.316v.001c17.732 17.731 24.386 44.691 18.732 75.913-19.546 107.961-159.64 183.58-218.931 124.286-37.376-37.377-22.879-112.689 32.316-167.884z"/><path d="m339.877 245.651c3.446-22.831-2.358-43.105-16.343-57.09-8.061-8.06-18.149-13.387-29.987-15.834-4.06-.834-8.024 1.771-8.863 5.826-.839 4.057 1.77 8.024 5.826 8.863 8.922 1.845 16.465 5.799 22.418 11.752 10.531 10.53 14.834 26.243 12.117 44.244-9.351 61.955-89.781 105.686-125.912 69.551-33.432-33.429 1.556-107.352 59.932-123.814 3.986-1.125 6.307-5.268 5.183-9.255-1.125-3.986-5.267-6.303-9.255-5.183-68.727 19.383-108.853 106.471-66.467 148.859 45.463 45.46 140.22-4.158 151.351-77.919z"/><path d="m439.812 342.16c-65.103 61.268-163.866 123.506-251.22 102.047.718.01 1.435.022 2.156.022 109.372 0 227.447-104.358 249.776-217.508 26.202-73.559 16.33-142.968-26.464-185.765-87.935-87.93-270.116-27.452-357.464 116.324-2.44 4.016-1.82 9.145 1.507 12.473 3.912 3.91 10.124 4.004 14.146.22 65.078-61.247 163.84-123.499 251.202-102.051-109.768-1.438-229.412 103.462-251.914 217.488-65.154 182.909 94.57 288.758 265.229 187.147 3.559-2.119 4.727-6.723 2.607-10.281s-6.723-4.726-10.281-2.607c-131.091 78.054-261.567 28.95-256.869-102.239 5.095 19.876 14.802 38.009 29.618 52.825 93.345 93.342 216.285 51.939 318.682-31.319-17.475 22.223-38.833 43.498-63.031 61.673-3.312 2.487-3.98 7.189-1.493 10.501 2.487 3.311 7.189 3.979 10.501 1.493 34.905-26.218 65.977-59.913 88.966-97.751 2.439-4.013 1.82-9.141-1.51-12.475-3.914-3.909-10.127-4.004-14.144-.217zm-348.274-208.963c8.271-10.519 17.253-20.633 26.887-30.266h.001c91.614-91.619 219.885-116.513 285.027-51.367 25.474 25.474 37.864 61.824 36.385 103.139-5.171-20.176-15.009-38.216-29.617-52.826-93.213-93.21-216.054-52.131-318.683 31.32zm67.562 25.938c105.985-105.988 255.895-101.982 269.234 16.14 7.113 63.662-29.539 131.889-75.373 177.722-78.283 78.285-186.597 100.571-240.513 46.651-53.808-53.808-32.181-161.682 46.652-240.513z"/></g></g></svg>