<svg id="Capa_1" enable-background="new 0 0 512 512" height="512" viewBox="0 0 512 512" width="512" xmlns="http://www.w3.org/2000/svg"><g><path d="m384 512h-195c-51.362 0-93-41.638-93-93v-387c0-17.673 14.327-32 32-32h256c17.673 0 32 14.327 32 32v448c0 17.673-14.327 32-32 32z" fill="#356487"/><path d="m128 416.192v-383.226c0-18.207 14.759-32.966 32.966-32.966h-32.966c-17.673 0-32 14.327-32 32v387c0 51.362 41.638 93 93 93h34.808c-52.913 0-95.808-42.895-95.808-95.808z" fill="#20526b"/><path d="m128.245 418.055v-370.81c0-8.284 6.716-15 15-15h225.511c8.284 0 15 6.716 15 15v417.511c0 8.284-6.716 15-15 15h-178.81c-34.077-.001-61.701-27.625-61.701-61.701z" fill="#618baa"/><path d="m337 256h-162c-8.284 0-15-6.716-15-15v-162.027c0-8.284 6.716-15 15-15h162c8.284 0 15 6.716 15 15v162.027c0 8.284-6.716 15-15 15z" fill="#01d0fb"/><path d="m180.604 240.547v-161.121c0-8.531 6.913-15.448 15.443-15.453h-21.047c-8.284 0-15 6.716-15 15v162.027c0 8.284 6.716 15 15 15h21.057c-8.535 0-15.453-6.918-15.453-15.453z" fill="#08a9f1"/><path d="m248.789 319.974h-17.576c-3.983 0-7.211-3.229-7.211-7.211v-17.554c0-3.983-3.229-7.211-7.211-7.211h-17.579c-3.983 0-7.211 3.229-7.211 7.211v17.554c0 3.983-3.229 7.211-7.211 7.211h-17.577c-3.983 0-7.211 3.229-7.211 7.211v17.603c0 3.983 3.229 7.211 7.211 7.211h17.577c3.983 0 7.211 3.229 7.211 7.211v17.557c0 3.983 3.229 7.211 7.211 7.211h17.579c3.983 0 7.211-3.229 7.211-7.211v-17.557c0-3.983 3.229-7.211 7.211-7.211h17.576c3.983 0 7.211-3.229 7.211-7.211v-17.603c0-3.982-3.228-7.211-7.211-7.211z" fill="#356487"/><path d="m272.469 448h-32.938c-8.578 0-15.531-6.954-15.531-15.531v-.938c0-8.578 6.954-15.531 15.531-15.531h32.938c8.578 0 15.531 6.954 15.531 15.531v.938c0 8.577-6.954 15.531-15.531 15.531z" fill="#356487"/><circle cx="309.345" cy="305.655" fill="#ea4959" r="18.678"/><circle cx="334.678" cy="365.302" fill="#01d0fb" r="18.678"/></g></svg>