<svg id="Capa_1" enable-background="new 0 0 512 512" height="512" viewBox="0 0 512 512" width="512" xmlns="http://www.w3.org/2000/svg"><g clip-rule="evenodd" fill-rule="evenodd"><path d="m269.5 153.2c4.9 25.5 22.7 46.7 47 56 56.1 21.2 95.5 71.2 95.5 129.5 0 77.6-69.9 140.5-156 140.5s-156-63-156-140.5c0-58.2 39.4-108.2 95.5-129.5 24.3-9.3 42-30.4 47-55.9h.1 26.9z" fill="#fff6b7"/><path d="m352.7 228.5c36.2 25.6 59.3 65.5 59.3 110.1 0 77.6-69.9 140.5-156 140.5-55.6 0-104.4-26.2-132-65.7 26.5 18.9 60.1 30.2 96.5 30.2 86.1 0 156-63 156-140.5 0-27.4-8.7-53-23.8-74.6z" fill="#f6eb9f"/><path d="m132.4 308.2c7.8-.9 6 15.6 8.3 35.5 2.4 19.9 8 35.6.2 36.5s-21.7-13.8-24.1-33.6c-2.3-19.9 7.8-37.4 15.6-38.4z" fill="#fff"/><path d="m242.1 144.8c-3.3-18.6-7.1-37-13.2-54.4-4.7-13.7-10.7-26.8-18.8-39-1.6-2.3-1.1-5.5 1.2-7.1s5.5-1.1 7.1 1.2c9.4 12.5 16.6 26.1 22.4 40.4 4.8 11.8 8.7 24 12.1 36.5 2.5-14.3 4.6-28.7 5.6-43.4 1.1-15.8 1-31.9-1-48.6-.4-2.8 1.5-5.4 4.3-5.8s5.4 1.5 5.8 4.3c3 17.3 4 34.1 3.7 50.6-.1 4.4-.2 8.7-.5 13 .8-2.3 1.7-4.5 2.6-6.8 5.6-13.9 12.7-27.4 22.7-40.4 1.7-2.3 4.8-2.8 7.1-1.1s2.8 4.8 1.1 7.1c-8.6 12.6-14.5 25.6-19 38.8-6.1 18.1-9.5 36.7-12.9 55.2 2.1.9 4.4 2.6 5.1 6.1 4.4 22.7 20.2 41.5 41.8 49.8 59.4 22.5 100.9 75.6 100.9 137.2 0 78.9-68.2 144-154.6 148.6-5.4.5-10.9.3-16.3.1-87.9-3.1-157.8-68.8-157.8-148.7 0-61.6 41.5-114.8 100.9-137.3 21.6-8.2 37.4-27 41.8-49.7.8-3.7 4.1-6.4 7.9-6.6zm29.1 36.2c-3.6-6.1-6.4-12.6-8.3-19.5h-13.9c-1.4 5-5.5 16.4-5.7 17.5 0 0-10 40.9-13.5 97.5-.3 4.6-4.2 8.1-8.8 7.8s-8.1-4.2-7.8-8.8c1.8-29 5.3-54.1 8.3-71.9-4.6 3.7-9.6 7-14.9 9.7-.2.4-.4.7-.7 1 0 0-35.4 44.2-41.4 102.6-.5 4.6-4.6 7.9-9.1 7.4-4.6-.5-7.9-4.6-7.4-9.1 3.8-37 18.5-68.7 30.1-88.7-41.7 23.3-69.6 64.8-69.6 112.2 0 58.4 42.3 107.8 100.7 125.4-22.6-20.6-37.8-42-47.5-63.2-2.5-5.5-4.6-10.9-6.4-16.3-1.5-4.4.9-9.1 5.3-10.5 4.4-1.5 9.1.9 10.5 5.3 1.6 4.9 3.5 9.8 5.8 14.7 11 23.9 29.6 48 59.2 70.9-4.6-12.3-8.5-25-11.6-37.8l-.6-2.6c-6.4-27.1-9.8-54.8-11.1-81.4-.2-4.6 3.3-8.5 7.9-8.7s8.5 3.3 8.7 7.9c1.3 25.6 4.5 52.2 10.7 78.3l.6 2.5c4 16.3 9.2 32.4 15.8 47.8h2c4.2-9.7 7.8-19.6 10.8-29.7l.7-2.5c7.6-25.5 12-51.9 14.2-77.6.4-4.6 4.4-8 9-7.6s8 4.4 7.6 9c-2.3 26.8-6.9 54.3-14.9 80.9l-.8 2.6c-2 6.5-4.2 12.9-6.6 19.3 24.1-18.6 41.1-38 52.5-57.5 2.3-4 7.4-5.3 11.4-3s5.3 7.4 3 11.4c-9.1 15.6-21.5 31.1-37.8 46.3 56-18.7 96.1-67 96.1-123.9 0-45.9-26.1-86.2-65.6-109.8 11.4 20.1 25.2 50.7 28.9 86.2.5 4.6-2.8 8.7-7.4 9.2s-8.7-2.8-9.2-7.4c-5.6-53.2-35.7-94.7-40.9-101.5-5.9-2.6-11.4-5.8-16.4-9.6 2.5 14.3 5.2 33.4 7.1 55.5.4 4.6-3 8.6-7.6 9s-8.6-3-9-7.6c-4.2-47.9-12.3-81-12.3-81 0-.3-.1-.5-.1-.7z" fill="#8d4ba0"/></g></svg>