<svg id="Capa_1" enable-background="new 0 0 512 512" height="512" viewBox="0 0 512 512" width="512" xmlns="http://www.w3.org/2000/svg"><g><g><path d="m413.867 255.23 30.648-36.354 44.932 15.559c7.109 2.462 14.066-4.057 12.07-11.311l-29.298-106.484c-3.386-12.306-16.107-19.537-28.413-16.151l-59.243 16.3c-12.306 3.386-19.537 16.107-16.151 28.413l29.298 106.483c1.996 7.254 11.308 9.297 16.157 3.545z" fill="#78eac4"/><path d="m294.341 275.409-39.194-26.921-39.194 26.921c-6.202 4.26-14.638-.181-14.638-7.704v-110.44c0-12.763 10.347-23.11 23.11-23.11h61.444c12.763 0 23.11 10.347 23.11 23.11v110.44c0 7.524-8.437 11.964-14.638 7.704z" fill="#ffe266"/><path d="m285.869 134.155h-32.255c7.895 0 14.295 10.347 14.295 23.11v99.989l26.432 18.156c6.202 4.26 14.638-.181 14.638-7.704v-110.44c0-12.765-10.347-23.111-23.11-23.111z" fill="#efaa66"/><path d="m98.142 255.23-30.648-36.354-44.932 15.559c-7.109 2.462-14.066-4.057-12.07-11.311l29.298-106.484c3.386-12.306 16.107-19.537 28.413-16.151l59.243 16.3c12.306 3.386 19.537 16.107 16.151 28.413l-29.298 106.483c-1.996 7.254-11.308 9.297-16.157 3.545z" fill="#ffa585"/><path d="m127.446 116.789-32.948-9.066c7.332 2.018 10.202 14.828 6.409 28.611l-25.345 92.113 22.579 26.783c4.849 5.752 14.161 3.709 16.157-3.545l29.298-106.483c3.387-12.306-3.844-25.027-16.15-28.413z" fill="#ef7c85"/><path d="m413.867 480.091 30.648-36.354 44.932 15.559c7.109 2.462 14.066-4.057 12.07-11.311l-29.298-106.483c-3.386-12.306-16.107-19.537-28.413-16.151l-59.243 16.3c-12.306 3.386-19.537 16.107-16.151 28.413l29.298 106.483c1.996 7.253 11.308 9.296 16.157 3.544z" fill="#ef8bbd"/><path d="m501.518 447.984-29.298-106.483c-3.386-12.306-16.107-19.537-28.413-16.151l-32.581 8.964c7.388-2.032 16.122 6.296 19.508 18.602l26.169 95.11 32.546 11.27c7.108 2.461 14.065-4.058 12.069-11.312z" fill="#e068bd"/><path d="m500.51 220.272-29.298-106.483c-3.386-12.306-16.107-19.537-28.413-16.151l-32.581 8.964c7.388-2.032 16.122 6.296 19.508 18.602l26.169 95.11 32.546 11.27c7.108 2.461 14.065-4.058 12.069-11.312z" fill="#71afc4"/><path d="m294.341 500.27-39.194-26.921-39.194 26.921c-6.202 4.26-14.638-.18-14.638-7.704v-110.44c0-12.763 10.347-23.11 23.11-23.11h61.444c12.763 0 23.11 10.347 23.11 23.11v110.44c0 7.524-8.437 11.964-14.638 7.704z" fill="#a183e2"/><path d="m285.869 358.372h-32.255c7.895 0 14.295 10.347 14.295 23.11v99.989l26.432 18.156c6.202 4.26 14.638-.181 14.638-7.704v-110.44c0-12.764-10.347-23.111-23.11-23.111z" fill="#9762e2"/><path d="m98.142 480.091-30.648-36.354-44.932 15.559c-7.109 2.462-14.066-4.057-12.07-11.311l29.298-106.484c3.386-12.306 16.107-19.537 28.413-16.151l59.243 16.3c12.306 3.386 19.537 16.107 16.151 28.413l-29.298 106.483c-1.996 7.254-11.308 9.297-16.157 3.545z" fill="#8bb6ef"/><path d="m127.446 343.516-32.948-9.066c7.332 2.018 10.202 14.828 6.409 28.611l-25.345 92.113 22.579 26.783c4.849 5.752 14.161 3.709 16.157-3.545l29.298-106.483c3.387-12.306-3.844-25.027-16.15-28.413z" fill="#8388ef"/></g><g fill="#440a29"><path d="m5.906 100.047c8.358 3.875 16.729 7.542 25.109 11.026-.354.945-.672 1.909-.943 2.893l-29.298 106.485c-1.918 6.974.168 14.38 5.447 19.326 5.277 4.947 12.802 6.549 19.64 4.182l38.389-13.294 26.186 31.061c3.743 4.439 9.176 6.908 14.828 6.908 1.389 0 2.792-.149 4.187-.455 7.065-1.55 12.647-6.846 14.567-13.821l29.248-106.303c12.718 2.413 25.432 4.376 38.135 5.892-.109 1.091-.166 2.197-.166 3.316v110.44c0 7.234 3.977 13.82 10.378 17.19 6.399 3.369 14.081 2.919 20.046-1.178l33.487-23.002 33.488 23.002h.001c3.306 2.271 7.14 3.421 10.993 3.421 3.095 0 6.201-.743 9.053-2.244 6.401-3.369 10.377-9.956 10.377-17.19v-110.44c0-1.119-.057-2.224-.166-3.315 13.247-1.581 26.506-3.659 39.768-6.213.012.046.022.093.035.139l29.298 106.484c1.919 6.975 7.501 12.271 14.568 13.821 1.395.306 2.797.455 4.186.455 5.653 0 11.086-2.47 14.828-6.909l-.001.001 26.187-31.062 38.39 13.294c6.836 2.366 14.362.763 19.64-4.183 5.278-4.947 7.365-12.353 5.445-19.327l-29.298-106.483c-.331-1.202-.729-2.367-1.18-3.499 7.886-3.302 15.764-6.774 23.63-10.421 5.05-2.341 7.246-8.334 4.905-13.383-2.341-5.05-8.332-7.248-13.384-4.905-9.629 4.465-19.267 8.647-28.912 12.571-7.511-4.503-16.773-6.061-25.865-3.559l-59.241 16.3c-8.549 2.352-15.668 7.892-20.049 15.599-.765 1.346-1.424 2.731-1.989 4.144-16.645 3.328-33.3 5.847-49.96 7.587-6.049-6.354-14.579-10.326-24.023-10.326h-61.445c-9.455 0-17.992 3.98-24.042 10.345-16.031-1.675-32.057-4.09-48.073-7.236-.595-1.542-1.308-3.051-2.14-4.515-4.381-7.707-11.5-13.247-20.048-15.599l-59.243-16.3c-8.55-2.353-17.5-1.235-25.207 3.147-.465.265-.922.54-1.371.824-9.98-4.041-19.952-8.364-29.915-12.983-5.051-2.343-11.044-.145-13.384 4.905-2.343 5.053-.147 11.045 4.904 13.387zm373.46 32.584c1.721-3.026 4.516-5.201 7.873-6.124l59.241-16.301c1.154-.317 2.312-.468 3.454-.468 5.72 0 10.98 3.8 12.569 9.575l28.929 105.14-43.615-15.103c-3.941-1.364-8.316-.161-11.005 3.028l-29.751 35.29-28.931-105.14c-.923-3.356-.484-6.87 1.236-9.897zm-167.973 24.634c0-7.185 5.846-13.031 13.031-13.031h61.445c7.184 0 13.03 5.846 13.03 13.031v109.048l-38.046-26.133c-3.439-2.361-7.975-2.361-11.414 0l-38.046 26.133zm-105.545 91.469-.001-.002s.001.001.001.002zm-40.319-138.527 59.244 16.301c3.356.923 6.151 3.099 7.871 6.124 1.72 3.026 2.159 6.541 1.235 9.897l-28.928 105.141-29.751-35.291c-1.951-2.315-4.791-3.583-7.708-3.583-1.101 0-2.216.181-3.296.555l-43.616 15.104 28.93-105.141c.923-3.356 3.098-6.151 6.124-7.871 3.025-1.721 6.539-2.159 9.895-1.236z"/><path d="m481.937 338.827c-.332-1.206-.732-2.375-1.185-3.51 7.888-3.301 15.767-6.762 23.635-10.409 5.05-2.341 7.246-8.334 4.905-13.384s-8.332-7.248-13.384-4.905c-9.634 4.467-19.277 8.639-28.927 12.563-7.509-4.496-16.764-6.049-25.85-3.55l-59.241 16.301c-8.549 2.352-15.668 7.891-20.049 15.598-.762 1.34-1.418 2.72-1.982 4.127-16.646 3.329-33.301 5.869-49.962 7.61-6.05-6.357-14.581-10.331-24.028-10.331h-61.445c-9.445 0-17.975 3.973-24.025 10.327-16.038-1.675-32.07-4.077-48.094-7.225-.594-1.54-1.307-3.046-2.137-4.508-4.381-7.707-11.5-13.247-20.048-15.598l-59.243-16.301c-8.55-2.353-17.5-1.235-25.207 3.147-.465.264-.922.54-1.371.824-9.98-4.039-19.952-8.364-29.915-12.984-5.051-2.343-11.044-.145-13.384 4.905-2.342 5.05-.146 11.042 4.905 13.384 8.358 3.875 16.73 7.538 25.111 11.022-.355.946-.673 1.912-.945 2.898l-29.297 106.483c-1.918 6.974.168 14.38 5.447 19.326 5.277 4.946 12.802 6.549 19.64 4.182l38.389-13.293 26.186 31.061c3.742 4.44 9.175 6.909 14.828 6.909 1.389 0 2.792-.15 4.186-.455 7.066-1.55 12.648-6.846 14.568-13.821l29.247-106.301c12.718 2.412 25.432 4.38 38.135 5.895-.109 1.09-.166 2.195-.166 3.313v110.44c0 7.234 3.977 13.82 10.378 17.19 6.401 3.369 14.081 2.918 20.046-1.178l33.487-23.002 33.488 23.002c.001.001.001.001.001.001 3.306 2.271 7.14 3.421 10.993 3.421 3.095 0 6.201-.743 9.053-2.244 6.401-3.369 10.377-9.956 10.377-17.19v-110.44c0-1.122-.058-2.232-.167-3.325 13.247-1.579 26.507-3.644 39.77-6.199.012.045.021.09.034.135l29.298 106.484c1.919 6.975 7.502 12.271 14.569 13.82 1.394.306 2.796.455 4.185.455 5.653 0 11.086-2.47 14.828-6.91l-.001.001 26.186-31.062 38.391 13.294c6.836 2.366 14.362.764 19.64-4.183s7.365-12.353 5.445-19.327zm-348.058 28.562-28.928 105.141-29.752-35.29c-1.951-2.314-4.791-3.583-7.708-3.583-1.101 0-2.216.181-3.296.555l-43.616 15.104 28.93-105.141c.923-3.356 3.098-6.151 6.124-7.871 3.027-1.721 6.541-2.159 9.896-1.236l59.244 16.301c3.356.923 6.151 3.099 7.871 6.124s2.159 6.54 1.235 9.896zm165.02 123.784-38.046-26.133c-3.439-2.361-7.975-2.361-11.414 0l-38.046 26.133v-109.047c0-7.185 5.846-13.031 13.031-13.031h61.445c7.184 0 13.03 5.846 13.03 13.031zm148.916-56.961c-3.941-1.364-8.316-.161-11.005 3.028l-29.751 35.29-28.929-105.14c-.923-3.356-.484-6.871 1.235-9.897 1.721-3.026 4.516-5.201 7.873-6.124l59.241-16.301c1.154-.317 2.312-.468 3.454-.468 5.72 0 10.98 3.8 12.569 9.575l28.929 105.14z"/></g><g><path d="m334.141 4.444 8.28 23.281c.354.997 1.056 1.787 1.942 2.186l20.684 9.319c2.922 1.317 2.922 5.973 0 7.289l-20.684 9.319c-.885.399-1.587 1.189-1.942 2.186l-8.28 23.281c-1.17 3.289-5.306 3.289-6.476 0l-8.28-23.281c-.354-.997-1.056-1.787-1.942-2.186l-20.684-9.319c-2.922-1.316-2.922-5.972 0-7.289l20.684-9.319c.886-.399 1.587-1.189 1.942-2.186l8.28-23.281c1.169-3.289 5.306-3.289 6.476 0z" fill="#bdf4e3"/><path d="m188.351 33.796 6.141 17.269c.263.739.784 1.325 1.44 1.621l15.343 6.913c2.168.977 2.168 4.43 0 5.407l-15.343 6.912c-.657.296-1.177.882-1.44 1.621l-6.141 17.269c-.868 2.44-3.936 2.44-4.804 0l-6.142-17.269c-.263-.739-.783-1.325-1.44-1.621l-15.343-6.912c-2.167-.977-2.167-4.43 0-5.407l15.343-6.913c.657-.296 1.178-.882 1.44-1.621l6.142-17.269c.868-2.439 3.937-2.439 4.804 0z" fill="#fef2a8"/><ellipse cx="126.084" cy="18.079" fill="#ffa585" rx="18.079" ry="18.079" transform="matrix(.924 -.383 .383 .924 2.679 49.626)"/><circle cx="411.226" cy="60.566" fill="#78eac4" r="7.799"/></g></g></svg>