<svg clip-rule="evenodd" fill-rule="evenodd" stroke-linejoin="round" stroke-miterlimit="2" viewBox="0 0 96 96" xmlns="http://www.w3.org/2000/svg"><g><g><path d="m47.015 5.373c.101-.463.511-.792.985-.792.473 0 .883.33.984.792 1.346 4.398 4.489 11.372 11.772 18.269 11.004 10.421 33.244 8.751 33.244 27.477 0 14.814-20.612 26.84-46 26.84s-46-12.026-46-26.84c0-18.726 22.24-17.056 33.244-27.477 7.283-6.897 10.426-13.871 11.771-18.269z" fill="#d3d3d3"/><path d="m47.851 77.959c-12.623-.071-22.847-9.233-22.847-23.073 0-15.21 11.118-18.1 16.619-27.875 5.977-10.621 6.377-21.435 6.377-21.435s.4 10.814 6.377 21.435c5.501 9.775 16.619 12.665 16.619 27.875 0 13.84-10.224 23.002-22.847 23.073h-.149z" fill="#ebebeb"/></g><g><path d="m48 7.181c1.598 4.557 4.902 11.089 11.725 17.55 5.614 5.318 14.069 7.603 21.147 10.895 6.403 2.979 11.628 6.848 11.628 15.493 0 5.501-3.132 10.549-8.314 14.674-8.16 6.493-21.342 10.666-36.186 10.666s-28.026-4.173-36.186-10.666c-5.182-4.125-8.314-9.173-8.314-14.674 0-8.214 4.718-12.116 10.68-15.04.744-.365 1.051-1.264.687-2.007-.365-.744-1.264-1.051-2.008-.687-6.986 3.427-12.359 8.109-12.359 17.734 0 6.35 3.464 12.261 9.446 17.021 8.587 6.834 22.432 11.319 38.054 11.319s29.467-4.485 38.054-11.319c5.982-4.76 9.446-10.671 9.446-17.021 0-10.081-5.895-14.739-13.363-18.213-6.793-3.159-14.961-5.249-20.35-10.353-6.996-6.626-10.044-13.317-11.351-17.563-.277-1.119-1.28-1.909-2.436-1.909-1.158 0-2.162.791-2.436 1.909-1.302 4.234-4.349 10.931-11.351 17.563-4.163 3.942-10.004 6.061-15.555 8.304-.768.311-1.139 1.186-.829 1.953.311.768 1.186 1.139 1.953.829 5.902-2.385 12.069-4.717 16.493-8.908 6.823-6.461 10.127-12.993 11.725-17.55z"/><path d="m31.506 69.194c-3.132-3.663-5.002-8.557-5.002-14.308 0-8.605 3.815-13.009 7.955-17.162 3.02-3.029 6.201-5.942 8.471-9.977 6.167-10.957 6.569-22.116 6.569-22.116.031-.827-.616-1.524-1.444-1.554-.827-.031-1.523.616-1.554 1.443 0 0-.397 10.47-6.185 20.756-2.13 3.785-5.148 6.488-7.982 9.33-4.641 4.656-8.83 9.633-8.83 19.28 0 6.54 2.161 12.092 5.722 16.257.538.63 1.486.704 2.115.166s.703-1.486.165-2.115z"/><path d="m48 79.459c13.518 0 24.496-9.774 24.496-24.573 0-9.647-4.189-14.624-8.83-19.28-2.834-2.842-5.852-5.545-7.982-9.33-5.788-10.286-6.185-20.756-6.185-20.756-.031-.827-.727-1.474-1.554-1.443-.828.03-1.475.727-1.444 1.554 0 0 .402 11.159 6.569 22.116 2.27 4.035 5.451 6.948 8.471 9.977 4.14 4.153 7.955 8.557 7.955 17.162 0 12.99-9.631 21.573-21.496 21.573-.828 0-1.5.673-1.5 1.5 0 .828.672 1.5 1.5 1.5z"/><path d="m54 84.114c2.75 1.355 6.596 2.929 11.97 4.63.789.25 1.633-.188 1.883-.978.249-.789-.188-1.632-.978-1.882-5.184-1.642-8.897-3.154-11.55-4.461-.743-.366-1.642-.06-2.008.683s-.06 1.643.683 2.008zm-7.358-6.792c-.063.079-3.287 4.056-17.517 8.562-.79.25-1.227 1.093-.978 1.882.25.79 1.094 1.228 1.883.978 8.628-2.732 13.342-5.145 15.905-6.859 3.064-2.048 3.46-3.375 3.46-3.375.304-.77-.074-1.642-.845-1.946-.74-.292-1.575.047-1.908.758z"/><path d="m43.871 92.23c1.999-3.112 3.293-5.933 4.129-8.222.835 2.289 2.13 5.109 4.129 8.222.448.697 1.376.899 2.073.451.696-.447.899-1.376.451-2.072-4.679-7.284-5.158-12.77-5.158-12.77-.062-.779-.713-1.38-1.495-1.38s-1.433.601-1.495 1.38c0 0-.479 5.486-5.158 12.77-.448.696-.245 1.625.451 2.072.697.448 1.625.246 2.073-.451z"/></g></g></svg>