<svg enable-background="new 0 0 512 512" viewBox="0 0 512 512" xmlns="http://www.w3.org/2000/svg"><g id="_x32_8_x2C__Gift_Box_x2C__Present_Box_x2C__Package_x2C__Love_x2C__Entertainment_x2C__Christmas_x2C__Shapes_x2C__Noel"><g><path d="m471 170.988v300c0 16.57-13.43 30-30 30-19.01 0-84.22 0-155 0 0-5.452-16.2-172.4-16.2-172.4s16.2-116.566 16.2-157.6c6.095 0 89.4-24 89.4-24s69.355 24 95.6 24z" fill="#df6378"/><path d="m226 170.988c0 43.961 11 151.2 11 151.2s-11 173.547-11 178.8c-71.98 0-137.92 0-155 0-16.57 0-30-13.43-30-30v-300c23.043 0 84.8-24 84.8-24s93.472 24 100.2 24z" fill="#df6378"/><path d="m501 110.988v60c-1.91 0-13.33 0-30 0-56.57 0-173.63 0-185 0 0-16.774-16.2-45-16.2-45s16.2-42.835 16.2-45h50.83 134.17c16.57 0 30 13.43 30 30z" fill="#cf1273"/><path d="m226 80.988c0 2.294 19 50 19 50s-19 25.335-19 40c-11.35 0-128.42 0-185 0-16.66 0-28.08 0-30 0v-60c0-16.57 13.43-30 30-30h134.17z" fill="#cf1273"/><path d="m286 170.988v330c-19.86 0-40.16 0-60 0 0-8.25 0-208.99 0-330 0-50.25 0-86.76 0-90h25.99 8.02 25.99z" fill="#f2d744"/><g><path d="m471 70.988h-110.027l1.716-1.716c15.641-15.629 15.64-40.941.003-56.565-15.594-15.594-40.969-15.594-56.563 0l-50.129 50.129-50.129-50.129c-15.594-15.594-40.968-15.593-56.559-.003-15.643 15.629-15.64 40.941-.003 56.565l1.719 1.719h-110.028c-22.056 0-40 17.944-40 40v60c0 5.522 4.477 10 10 10h20v290c0 22.056 17.944 40 40 40h370c22.056 0 40-17.944 40-40v-290h20c5.522 0 10-4.478 10-10v-60c0-22.055-17.944-40-40-40zm-150.729-44.138c7.795-7.797 20.481-7.796 28.28.003 7.823 7.817 7.812 20.466-.003 28.274l-15.861 15.861c-6.449 0-49.745 0-56.555 0zm-44.271 464.138h-40v-400h40zm-112.552-435.864c-7.823-7.816-7.812-20.466.002-28.274 7.797-7.796 20.482-7.796 28.278 0l44.139 44.139c-6.804 0-50.112 0-56.555 0zm-142.448 55.864c0-11.028 8.972-20 20-20h175v70c-9.52 0-186.2 0-195 0zm30 360v-290h165v310h-145c-11.028 0-20-8.971-20-20zm410 0c0 11.028-8.972 20-20 20h-145v-310h165zm30-310c-8.761 0-185.545 0-195 0v-70h175c11.028 0 20 8.972 20 20z"/></g></g></g><g id="Layer_1"/></svg>