<svg enable-background="new 0 0 32 32" viewBox="0 0 32 32" xmlns="http://www.w3.org/2000/svg"><g id="Grid" display="none"/><g id="bow_tie"/><g id="balloon_1_"/><g id="placeholder"/><g id="mic"/><g id="speaker"/><g id="champagne"/><g id="gift"><path d="m25.839 29.473h-19.678c-1.114 0-2.018-.903-2.018-2.018v-12.489h23.713v12.489c0 1.115-.903 2.018-2.017 2.018z" fill="#f8972c"/><path d="m13.03 11.516h5.94v17.957h-5.94z" fill="#72d98b"/><path d="m4.14 14.97h23.72v2.86h-23.72z" fill="#ed8924"/><path d="m13.03 14.97h5.94v2.86h-5.94z" fill="#5fc174"/><path d="m11.936 3.833c1.943 1.943 1.143 5.893 1.143 5.893s-3.95.8-5.893-1.143c-1.408-1.408-1.375-3.872-1.25-5.121.046-.464.416-.834.88-.88 1.248-.124 3.712-.157 5.12 1.251z" fill="#72d98b"/><path d="m20.064 3.833c-1.943 1.943-1.143 5.893-1.143 5.893s3.95.8 5.893-1.143c1.409-1.409 1.375-3.872 1.251-5.121-.046-.464-.416-.834-.88-.88-1.249-.124-3.713-.157-5.121 1.251z" fill="#72d98b"/><path d="m18.138 10.053h-4.277c-.747 0-1.353-.606-1.353-1.353v-1.927c0-.747.606-1.353 1.353-1.353h4.277c.747 0 1.353.606 1.353 1.353v1.927c0 .747-.605 1.353-1.353 1.353z" fill="#5fc174"/><path d="m28.306 15.981h-24.612c-.936 0-1.694-.759-1.694-1.694v-3.512c0-.936.758-1.695 1.694-1.695h24.612c.936 0 1.694.759 1.694 1.694v3.512c0 .936-.758 1.695-1.694 1.695z" fill="#f8972c"/><path d="m11.22 9.08h9.56v6.901h-9.56z" fill="#72d98b"/><path d="m28.306 8.655h-3.011c1.328-1.544 1.326-3.917 1.189-5.232-.058-.663-.587-1.195-1.262-1.266-1.391-.136-3.954-.136-5.461 1.372-.421.42-.743.947-.985 1.588-.198-.076-.411-.122-.635-.122h-4.28c-.224 0-.437.046-.635.122-.243-.641-.565-1.167-.986-1.587-1.508-1.509-4.069-1.505-5.465-1.373-.671.072-1.201.604-1.258 1.259-.137 1.321-.139 3.695 1.188 5.239h-3.011c-1.168 0-2.119.951-2.119 2.119v3.512c0 1.168.951 2.119 2.119 2.119h.021v11.055c0 1.343 1.097 2.435 2.445 2.435h19.68c1.348 0 2.445-1.092 2.445-2.435v-11.054h.021c1.168 0 2.119-.951 2.119-2.119v-3.512c0-1.169-.951-2.12-2.119-2.12zm-7.946-4.525c1.262-1.261 3.537-1.249 4.775-1.127.268.028.479.236.502.501.104.994.2 3.448-1.127 4.775-.154.154-.32.273-.488.376h-3.429l2.457-2.465c.166-.167.166-.436 0-.601-.167-.167-.436-.165-.601 0l-2.534 2.542v-1.361c0-.433-.162-.824-.42-1.133.206-.629.487-1.129.865-1.507zm-8.715 11.426v-6.051h8.711v6.051zm6.9.85v12.64h-5.091v-12.64zm-.405-10.561c.51 0 .925.415.925.925v1.885h-6.131v-1.885c0-.51.415-.925.925-.925zm-10.65 2.435c-1.327-1.328-1.231-3.782-1.127-4.783.022-.258.233-.465.498-.494 1.242-.119 3.517-.134 4.779 1.128.378.377.659.877.865 1.506-.258.308-.42.7-.42 1.133v1.362l-2.534-2.542c-.167-.166-.436-.167-.601 0-.166.166-.167.435 0 .601l2.457 2.465h-3.429c-.168-.104-.333-.223-.488-.376zm-5.065 6.007v-3.512c0-.7.57-1.27 1.27-1.27h7.101v6.051h-7.102c-.699 0-1.269-.57-1.269-1.269zm2.14 13.173v-11.054h8.04v12.64h-6.445c-.879-.001-1.595-.712-1.595-1.586zm22.87 0c0 .874-.716 1.585-1.595 1.585h-6.445v-12.64h8.04zm2.14-13.173c0 .7-.57 1.27-1.27 1.27h-7.101v-6.052h7.101c.7 0 1.27.57 1.27 1.27z"/><g fill="#ffb476"><path d="m4.069 10.505h-.219c-.235 0-.425.19-.425.425s.19.425.425.425h.219c.235 0 .425-.19.425-.425s-.19-.425-.425-.425z"/><path d="m8.484 10.505h-2.603c-.235 0-.425.19-.425.425s.19.425.425.425h2.603c.235 0 .425-.19.425-.425s-.19-.425-.425-.425z"/></g></g><g id="theater"/><g id="_camera"/><g id="video_camera"/><g id="party_hat"/><g id="champagne_glass"/><g id="man"/><g id="woman"/><g id="skewer"/><g id="ticket"/><g id="cake"/><g id="lights"/><g id="photo"/><g id="invitation"/></svg>