<svg enable-background="new 0 0 512 512" viewBox="0 0 512 512" xmlns="http://www.w3.org/2000/svg"><g id="_x33_0_x2C__Assistant_x2C__Female_x2C__Assistant_x2C__Suport_x2C__Girl_x2C__Assistance_x2C__Professions_and_Jobs_x2C__Entertainment"><g><path d="m350.46 50.04c-24.43-24.43-58.18-39.54-95.46-39.54-74.56 0-135 60.44-135 135v189.21l131.4 29.89 138.6-30.48v-188.62c0-37.28-15.11-71.03-39.54-95.46z" fill="#4e5f7e"/><path d="m221 331.5 4.8 79.1 30.2 90.9 29.4-94.9 5.6-75.1z" fill="#eae4f0"/><path d="m221 284.42v47.08c20.3 16.82 49.7 16.82 70 0v-47.99z" fill="#fb9"/><path d="m340 128.78v77.72c0 23.47-9.52 44.72-24.9 60.1-6.95 6.95-15.09 12.7-24.1 16.91-10.93 5.13-23.13 7.99-36 7.99-12.09 0-23.59-2.53-34-7.08-18.03-7.87-32.79-21.82-41.71-39.25-5.94-11.6-9.29-24.74-9.29-38.67v-77.71s106.19 13.27 134.94-34.23c11.89 19.9 35.06 34.22 35.06 34.22z" fill="#ffd9b3"/><path d="m441 401.5v100h-50-11-124l35-170h42.09 11.44 26.47c6.59 0 12.96.91 19 2.62 29.43 8.27 51 35.31 51 67.38z" fill="#df6378"/><path d="m221 331.5 35 170h-126-9-50v-100c0-31.34 20.6-57.88 49-66.79 6.63-2.09 13.68-3.21 21-3.21h16.21 10.25 11.45z" fill="#df6378"/><g><path d="m276 222.5c-4.417-3.314-10.687-2.418-14 2-3.503 4.672-10.5 4.669-14 0-3.313-4.417-9.581-5.313-14-2-4.418 3.313-5.313 9.582-2 14 11.512 15.349 34.494 15.342 46 0 3.313-4.418 2.418-10.687-2-14z"/><path d="m220 161.5c-5.522 0-10 4.478-10 10v10c0 5.522 4.478 10 10 10s10-4.478 10-10v-10c0-5.522-4.478-10-10-10z"/><path d="m290 161.5c-5.522 0-10 4.478-10 10v10c0 5.522 4.478 10 10 10s10-4.478 10-10v-10c0-5.522-4.478-10-10-10z"/><path d="m400 326.963v-181.463c0-80.149-64.86-145-145-145-79.953 0-145 65.047-145 145v182.253c-28.761 12.135-49 40.621-49 73.747v100c0 5.522 4.478 10 10 10h370c5.522 0 10-4.478 10-10v-100c0-33.885-21.187-62.896-51-74.537zm-270-181.463c0-68.925 56.075-125 125-125 69.095 0 125 55.915 125 125v176.52c-8.177-.92-6.722-.342-79-.52v-31.879c29.12-16.141 49-47.148 49-83.121v-77.715c0-3.466-1.795-6.685-4.742-8.507-.211-.13-21.217-13.24-31.732-30.843-1.8-3.013-5.047-4.861-8.557-4.871.1-.027-5.499-.275-8.583 4.822-20.788 34.344-97.391 32.928-125.146 29.485-5.97-.745-11.24 3.914-11.24 9.923v77.706c0 36.583 20.694 68.332 51 84.205v30.795c-71.289.255-71.168-.584-81 .775zm156.751 128.957c-49.073 23.037-106.751-12.618-106.751-67.957v-66.762c39.687 2.742 96.482-.45 124.569-28.632 8.966 10.65 19.47 18.789 25.431 23.003v72.391c0 30.368-17.929 56.126-43.249 67.957zm-5.751 23.431v28.608c-15.088 10.136-34.912 10.136-50 0v-28.058c16.263 4.235 33.633 4.103 50-.55zm-4.155 52.771-20.845 101.251-20.845-101.251c13.5 4.572 28.19 4.572 41.69 0zm-195.845 50.841c0-33.084 26.916-60 60-60h71.849l30.882 150h-162.731zm350 90h-162.731l30.882-150h71.849c33.084 0 60 26.916 60 60z"/><path d="m380 406h-50c-5.522 0-10 4.478-10 10s4.478 10 10 10h50c5.522 0 10-4.478 10-10s-4.478-10-10-10z"/></g></g></g><g id="Layer_1"/></svg>