<svg height="512" viewBox="0 0 128 128" width="512" xmlns="http://www.w3.org/2000/svg"><g><g><g fill="#004452"><path d="m71.652 57.79a1.741 1.741 0 0 1 -1.237-.513 9.208 9.208 0 0 0 -13.02 0 1.75 1.75 0 1 1 -2.475-2.477 12.707 12.707 0 0 1 17.969 0 1.751 1.751 0 0 1 -1.237 2.988z"/><path d="m23.537 65.747h-4.632a1.75 1.75 0 0 1 0-3.5h4.632a1.75 1.75 0 0 1 0 3.5z"/><path d="m108.905 65.753h-4.632a1.75 1.75 0 0 1 0-3.5h4.632a1.75 1.75 0 0 1 0 3.5z"/></g><circle cx="40.818" cy="63.997" fill="#f5c464" r="17.281"/><circle cx="40.818" cy="64.003" fill="#f5c464" r="17.281"/><circle cx="86.992" cy="64.003" fill="#f5c464" r="17.281"/></g><g fill="#250a66"><path d="m97.518 75.51c-.1.094-.208.186-.315.277a1.75 1.75 0 0 0 2.272 2.663c.131-.113.259-.226.388-.343a1.75 1.75 0 0 0 -2.345-2.6z"/><path d="m109 62.253h-2.971a19.019 19.019 0 0 0 -34.729-8.859 12.665 12.665 0 0 0 -14.59 0 19.019 19.019 0 0 0 -34.735 8.855h-2.975a1.75 1.75 0 0 0 0 3.5h2.971a19.026 19.026 0 0 0 37.973-1.749 18.913 18.913 0 0 0 -1.548-7.5 9.17 9.17 0 0 1 11.21 0 19.019 19.019 0 0 0 17.481 26.54 19.148 19.148 0 0 0 3.9-.4 1.75 1.75 0 1 0 -.715-3.426 15.533 15.533 0 1 1 12.346-15.214 15.411 15.411 0 0 1 -1.221 6.044 1.751 1.751 0 0 0 3.225 1.364 18.9 18.9 0 0 0 1.41-5.658h2.968a1.75 1.75 0 0 0 0-3.5zm-68.087 17.275a15.528 15.528 0 1 1 15.531-15.528 15.549 15.549 0 0 1 -15.531 15.528z"/></g></g></svg>