<?xml version="1.0" encoding="UTF-8"?>
<svg xmlns="http://www.w3.org/2000/svg" width="512" height="512" viewBox="0 0 128 128"><g><path d="M41.342,15.41V10.779A4.472,4.472,0,0,0,36.87,6.307h0A4.472,4.472,0,0,0,32.4,10.779V15.41a4.473,4.473,0,0,0-4.473-4.472h0a4.472,4.472,0,0,0-4.472,4.472V50.566L14.986,37.073a4.7,4.7,0,0,0-6.477-1.482h0a4.7,4.7,0,0,0-1.715,6.062L25.452,79.4V95.357H57.231V79.4l1.632-15.344a65.834,65.834,0,0,0,.367-6.934V21.584a4.472,4.472,0,0,0-4.472-4.472h0a4.472,4.472,0,0,0-4.472,4.472V15.41a4.472,4.472,0,0,0-4.472-4.472h0A4.472,4.472,0,0,0,41.342,15.41Z" fill="#4cc7b3"/><path d="M86.658,41.746V37.115a4.472,4.472,0,0,1,4.472-4.472h0A4.472,4.472,0,0,1,95.6,37.115v4.631a4.472,4.472,0,0,1,4.472-4.472h0a4.473,4.473,0,0,1,4.473,4.472V76.9l8.466-13.492a4.7,4.7,0,0,1,6.478-1.483h0a4.7,4.7,0,0,1,1.715,6.063l-18.658,37.743v15.96H70.768v-15.96L69.137,90.388a65.553,65.553,0,0,1-.367-6.934V47.92a4.472,4.472,0,0,1,4.472-4.472h0a4.472,4.472,0,0,1,4.472,4.472V41.746a4.472,4.472,0,0,1,4.472-4.472h0A4.472,4.472,0,0,1,86.658,41.746Z" fill="#4cc7b3"/><g><path d="M59.23,37.29a1.75,1.75,0,0,0-1.75,1.75v4.5a1.75,1.75,0,0,0,3.5,0v-4.5A1.75,1.75,0,0,0,59.23,37.29Z"/><path d="M54.758,15.361A6.175,6.175,0,0,0,52.036,16v-.588a6.21,6.21,0,0,0-9.02-5.549,6.214,6.214,0,0,0-12.293,0A6.209,6.209,0,0,0,21.7,15.409V44.485l-5.235-8.341A6.448,6.448,0,0,0,5.226,42.429L23.7,79.806v15.55a1.75,1.75,0,0,0,1.75,1.75H57.231a1.749,1.749,0,0,0,1.75-1.75V79.489L60.6,64.236a67.719,67.719,0,0,0,.377-7.119V52.776a1.75,1.75,0,0,0-3.5,0v4.341a64.224,64.224,0,0,1-.357,6.75L55.491,79.212c-.006.06-.01.123-.01.185V93.606H27.2V79.4a1.754,1.754,0,0,0-.181-.776L8.363,40.878A2.949,2.949,0,0,1,13.5,38L21.971,51.5a1.751,1.751,0,0,0,1.483.819c.114,0,11.481.127,16.285,11.088A1.75,1.75,0,0,0,42.945,62,21.85,21.85,0,0,0,25.2,48.943V15.409a2.722,2.722,0,0,1,5.443,0V39.314a1.75,1.75,0,0,0,3.5,0V10.779a2.723,2.723,0,0,1,5.445,0V39.314a1.75,1.75,0,1,0,3.5,0v-23.9a2.722,2.722,0,0,1,5.444,0V39.314a1.75,1.75,0,0,0,3.5,0V21.584a2.722,2.722,0,1,1,5.444,0v7.8a1.75,1.75,0,1,0,3.5,0v-7.8A6.229,6.229,0,0,0,54.758,15.361Z"/><path d="M120.421,60.444a6.46,6.46,0,0,0-8.89,2.035L106.3,70.822V41.746a6.208,6.208,0,0,0-9.019-5.55,6.214,6.214,0,0,0-12.293,0,6.168,6.168,0,0,0-2.8-.673,6.23,6.23,0,0,0-6.222,6.223v.588A6.207,6.207,0,0,0,67.02,47.92V83.454a67.671,67.671,0,0,0,.377,7.118l1.622,15.253v15.868a1.749,1.749,0,0,0,1.75,1.75h31.779a1.75,1.75,0,0,0,1.75-1.75V106.142l4.552-9.208a1.75,1.75,0,0,0-3.138-1.551l-4.733,9.574a1.753,1.753,0,0,0-.181.775v14.211H72.519V105.732c0-.061,0-.124-.01-.184L70.877,90.2a64.176,64.176,0,0,1-.357-6.749V47.92a2.722,2.722,0,1,1,5.444,0V65.649a1.75,1.75,0,0,0,3.5,0v-23.9a2.722,2.722,0,1,1,5.444,0v23.9a1.75,1.75,0,0,0,3.5,0V37.115a2.722,2.722,0,0,1,5.444,0V65.649a1.75,1.75,0,0,0,3.5,0v-23.9a2.722,2.722,0,1,1,5.444,0V75.28A21.85,21.85,0,0,0,85.055,88.336a1.75,1.75,0,1,0,3.206,1.4c4.776-10.9,15.822-11.085,16.285-11.088a1.752,1.752,0,0,0,1.483-.819L114.5,64.34a2.949,2.949,0,0,1,5.141,2.874L109.854,87a1.75,1.75,0,0,0,3.138,1.551l9.782-19.79A6.431,6.431,0,0,0,120.421,60.444Z"/></g></g></svg>
