<svg id="Layer_1" enable-background="new 0 0 512 512" viewBox="0 0 512 512" xmlns="http://www.w3.org/2000/svg"><g><g><path d="m72.077 128.803s43.499-58.282 128.207-21.736c4.466 1.927 3.203 8.585-1.66 8.685-24.661.506-65.511 4.517-81.962 24.503z" fill="#eef5f6"/><path d="m200.285 107.066c-15.458-6.669-29.537-10.169-42.236-11.453 6.018 2.372 5.666 11.634-1.203 13.034-20.598 4.199-46.611 12.062-60.951 26.274l20.768 5.334c16.451-19.986 57.301-23.997 81.962-24.503 4.863-.1 6.126-6.759 1.66-8.686z" fill="#deecf1"/><path d="m343.607 320.004 16.482 66.188-23.545 70.636-9.73 14.339c-2.203 3.247.123 7.637 4.047 7.637h19.824c2.834 0 5.379-1.732 6.42-4.368l33.594-85.105 5.494-69.327z" fill="#e08d63"/><path d="m258.844 313.986-11.437 85.417 12.958 71.263c.77 4.236-2.484 8.136-6.79 8.136h-24.955c-3.519 0-5.887-3.606-4.487-6.835l7.241-16.71-19.746-76.522 19.746-66.319z" fill="#918291"/><path d="m10.27 184.978 14.692 15.207 54.934-16.478s8.557 12.22 17.992 26.287c9.082 13.532 18.971 28.799 22.825 36.499 7.841 15.691 8.628 60.434 43.946 73.512 14.41 5.338 50.898 7.669 89.072 8.567h.01c55.348 1.282 114.198-.454 114.198-.454l46.307 49.445 4.036 81.625-7.336 12.21c-1.958 3.259.393 7.407 4.198 7.407h19.97c3.693 0 6.731-2.906 6.892-6.589l4.823-107.215-20.03-44.995c6.357-10.262 12.059-23.33 15.742-37.407 7.659-29.334 6.539-63.027-15.742-84.763-32.967-32.18-105.954-13.35-143.623-11.776-9.616.404-20.979-.121-32.553-1.12-33.784-2.906-69.475-9.869-69.475-9.869l-84.763-49.445 8.779-11.574c4.067-5.358-.928-12.836-7.427-11.12l-44.521 11.705-17.266 34.531-24.995 21.433c-4.327 3.701-4.63 10.28-.685 14.377z" fill="#a79ba7"/><g fill="#918291"><path d="m75.49 114.05c-4.667 6.153-2.902 15.003 3.769 18.894l65.781 38.372c4.213 2.458 9.004 3.753 13.882 3.753h22.227l-84.763-49.445 8.779-11.574c4.067-5.358-.928-12.836-7.427-11.12l-20.933 5.504c.37 1.831.034 3.838-1.315 5.616z"/><path d="m426.8 320.004c6.357-10.262 12.059-23.33 15.742-37.407 7.659-29.334 6.539-63.027-15.742-84.763-14.409-14.065-36.463-18.385-59.872-18.661 11.643 4.642 22.065 10.722 30.198 18.661 22.281 21.736 23.401 55.429 15.742 84.763-2.815 10.759-6.809 20.929-11.374 29.707-2.641 5.079-2.867 11.07-.539 16.3l7.204 16.182c4.582 10.293 6.669 21.524 6.09 32.776l4.036 81.625-7.336 12.21c-1.958 3.259.393 7.407 4.198 7.407h19.97c3.693 0 6.731-2.906 6.892-6.589l4.823-107.215z"/></g><path d="m426.8 197.83s51.8-20.406 65.142-47.875c0 0 3.924 32.963-5.494 43.951l18.051 9.418s-9.812 43.427-58.275 36.625l-24.918-21.713z" fill="#e08d63"/><path d="m486.448 193.905c9.418-10.988 5.494-43.951 5.494-43.951-5.504 11.332-17.553 21.459-29.81 29.45-.885 5.83-2.508 11.174-5.359 14.501 11.956 6.238 14.745 22.178 5.532 32.026-4.505 4.815-10.507 9.26-18.416 11.983l2.335 2.035c48.463 6.801 58.275-36.625 58.275-36.625z" fill="#d77f4a"/><path d="m24.96 200.184 2.04 24.478c.732 8.789 11.491 12.606 17.599 6.244l3.122-3.252c6.493 2.865 13.862-1.582 14.354-8.662l2.127-30.581z" fill="#7a6d79"/><path d="m53.215 114.636s9.612-72.087 101.394-81.418c4.839-.492 6.979 5.939 2.78 8.394-21.293 12.451-55.02 35.847-59.655 61.314z" fill="#eef5f6"/><path d="m154.609 33.218c-12.131 1.233-22.813 3.571-32.241 6.685.754 2.681-.006 5.781-2.94 7.662-20.577 13.198-47.098 41.245-51.074 63.089l29.38-7.728c4.636-25.468 38.362-48.863 59.655-61.314 4.199-2.455 2.059-8.885-2.78-8.394z" fill="#deecf1"/><path d="m250.624 184.938c6.398 29.435 21.574 40.363 52.472 44.702 14.763 2.069 40.474 20.595 51.12 33.855 10.656 13.269 88.325 19.102 88.325 19.102 7.659-29.334 6.539-63.027-15.742-84.763-32.967-32.18-105.954-13.35-143.623-11.776-9.615.404-20.978-.121-32.552-1.12z" fill="#ffefd2"/><path d="m442.54 282.598s-12.91-.97-28.92-3.01c6.81-28.6 5.03-60.76-16.49-81.75-8.13-7.94-18.55-14.02-30.19-18.67 23.4.28 45.46 4.6 59.86 18.67 22.28 21.73 23.399 55.43 15.74 84.76z" fill="#fce1be"/><path d="m235.235 274.464c-30.222-4.158-54.985-52.634-78.416-68.567s-58.93 4.097-58.93 4.097c9.082 13.532 18.971 28.799 22.825 36.499 7.784 15.578 8.634 59.775 43.206 73.208 5.168 31.988 14.224 67.276 14.224 67.276l-2.354 66.712-12.485 17.37c-2.325 3.235-.013 7.745 3.971 7.745h27.705c3.679 0 6.712-2.886 6.893-6.561l3.6-72.839 21.363-71.75c8.682.402 17.738.701 26.895.917h.01v-.01c13.138-21.786 11.716-49.93-18.507-54.097z" fill="#e08d63"/></g><g><path d="m507.969 196.674-11.309-5.9c5.508-14.706 3.325-36.698 2.729-41.707-.394-3.306-2.919-5.956-6.202-6.509-3.284-.552-6.536 1.124-7.991 4.119-8.995 18.52-40.997 35.474-56.954 42.426-28.878-23.687-77.385-17.968-116.708-13.317-23.142 2.986-37.329 3.82-60.269 1.679-29.502-2.538-60.908-8.29-67.448-9.523l-52.318-30.519c10.484-6.456 30.298-13.419 67.286-14.178 5.689-.117 10.429-4.099 11.524-9.681 1.101-5.608-1.795-11.11-7.048-13.384-41.147-17.754-73.135-13.856-94.519-5.87 7.687-14.485 26.083-30.816 52.434-46.225 4.916-2.876 7.115-8.666 5.35-14.079-1.774-5.437-6.997-8.828-12.676-8.251-50.178 5.102-76.875 28.523-90.435 47.274-12.784 17.679-16.554 34.477-17.417 39.272l-16.078 32.157-23.838 20.442c-3.622 3.099-5.832 7.606-6.062 12.368-.23 4.768 1.536 9.474 4.856 12.921l12.832 13.282 1.818 21.814c.586 7.043 5.089 12.886 11.749 15.249 1.985.705 4.017 1.049 6.021 1.049 4.717 0 9.277-1.904 12.713-5.482l.151-.158c3.741.363 7.562-.477 10.862-2.468 4.942-2.983 8.134-8.202 8.535-13.962l1.766-25.404 5.52-1.656c3.316 4.786 26.665 39.652 30.643 46.095 6.82 10.893 8.145 13.824 11.281 26.492 4.989 19.083 12.423 47.447 38.43 59.917 4.725 27.961 11.877 56.761 13.413 62.83l-1.075 30.474c-.146 4.14 3.091 7.614 7.23 7.76.091.003.18.005.27.005 4.02 0 7.348-3.187 7.49-7.235l1.113-31.547c.025-.717-.052-1.434-.23-2.129-5.62-21.897-19.667-83.557-17.217-105.616.457-4.117-2.509-7.825-6.626-8.282-4.12-.458-7.825 2.51-8.282 6.626-.768 6.918-.239 16.579 1.029 27.342-12.461-11.156-17.122-28.977-21.032-43.937-3.161-14.321-7.583-22.281-15.172-34.01-2.9-4.609-6.071-9.493-9.154-14.158 3.222-1.326 7.292-2.789 11.787-3.918 9.176-2.302 22.152-3.661 31.861 2.939 8.031 5.461 16.723 15.725 25.924 26.59 16.749 19.78 34.069 40.232 55.69 43.208 8.995 1.238 15.021 4.932 17.908 10.978 3.438 7.199 2.318 17.888-2.758 28.08-8.142-.219-15.438-.479-22.193-.789-3.361-.182-6.603 2.115-7.533 5.353l-21.355 71.746c-.171.575-.272 1.17-.303 1.77l-3.571 72.27h-22.047l9.515-13.238c2.418-3.363 1.65-8.05-1.713-10.467-3.363-2.416-8.051-1.652-10.467 1.713l-12.484 17.369c-2.726 3.792-3.096 8.729-.966 12.885 2.131 4.156 6.355 6.738 11.026 6.738h27.705c7.687 0 14.005-6.014 14.385-13.69l3.012-60.95 11.087 42.975-6.217 14.348c-1.665 3.843-1.286 8.229 1.013 11.729 2.299 3.502 6.172 5.592 10.359 5.592h24.95c4.291 0 8.326-1.89 11.07-5.186 2.742-3.291 3.871-7.596 3.099-11.795l-12.738-70.097 8.425-62.966c28.159.476 56.425.249 76.487-.061l12.372 49.68-22.532 67.59-9.155 13.491c-2.576 3.808-2.838 8.696-.682 12.759 2.155 4.062 6.349 6.584 10.944 6.584h19.819c5.948 0 11.206-3.577 13.396-9.116l33.601-85.109c.273-.691.442-1.42.501-2.161l1.357-17.099 7.36 7.858 3.787 76.599-6.162 10.256c-2.294 3.819-2.355 8.601-.161 12.479 2.195 3.88 6.329 6.29 10.788 6.29h19.97c7.727 0 14.046-6.044 14.385-13.753l4.823-107.215c.053-1.163-.167-2.323-.641-3.387l-18.45-41.446c11.919-20.586 19.866-48.905 19.04-72.365 31.278 2.786 54.417-25.272 57.543-43.161.75-3.323-.829-6.731-3.846-8.306zm-323.892-87.776c-23.835 1.692-50.469 6.858-66.789 20.236l-9.811-5.723 3.662-4.827c2.317-3.054 3.292-6.7 2.922-10.269 21.215-7.998 44.688-7.801 70.016.583zm-108.506-27.077c14.794-20.457 36.87-33.575 65.752-39.104-33.264 21.716-45.714 40.58-49.808 54.09l-27.742 7.298c2.201-6.119 5.852-14.061 11.798-22.284zm-20.977 136.649c-.087 1.238-.864 1.885-1.321 2.16-.454.275-1.391.664-2.524.161-2.883-1.271-6.254-.604-8.438 1.668l-3.122 3.252c-1.068 1.112-2.273.906-2.897.687-.624-.222-1.688-.822-1.817-2.359l-1.534-18.416 23.028-6.908zm177.995 252.837 5.662-13.068c.663-1.53.797-3.239.381-4.854l-19.222-74.511 12.94-43.473c4.989.199 10.29.375 15.987.53l-8.361 62.481c-.104.777-.086 1.565.055 2.336l12.822 70.559zm150.723-83.69-33.041 83.69h-14.493l6.968-10.269c.386-.568.691-1.188.909-1.839l23.55-70.641c.45-1.352.507-2.803.162-4.185l-12.067-48.45c4.04-.085 7.269-.162 9.47-.218l20.891 22.306zm55.946-21.187-4.718 104.873h-14.787l4.959-8.255c.766-1.274 1.136-2.748 1.062-4.232l-4.036-81.624c-.088-1.774-.803-3.46-2.017-4.757l-46.308-49.445c-1.472-1.57-3.545-2.421-5.695-2.37-.545.016-51.253 1.484-102.153.679 4.69-12.481 4.836-24.96.094-34.889-3.574-7.483-11.576-16.919-29.398-19.372-15.931-2.192-32.059-21.238-46.288-38.042-9.881-11.668-19.214-22.689-28.938-29.301-20.818-14.155-48.356-4.752-60.578.692-7.84-11.583-14.344-20.876-14.418-20.983-1.854-2.648-5.197-3.812-8.299-2.881l-50.561 15.165-11.509-11.912c-.627-.651-.688-1.397-.67-1.784.019-.383.15-1.112.836-1.699l24.995-21.434c.759-.65 1.38-1.445 1.826-2.339l15.748-31.494 40.036-10.527-8.034 10.593c-1.297 1.71-1.8 3.895-1.38 5.999.42 2.105 1.722 3.93 3.576 5.012l84.764 49.445c.727.423 1.519.722 2.343.883.342.067 32.761 6.351 64.898 9.485 7.524 27.642 24.078 40.467 57.445 45.153 4.998.7 12.703 4.22 21.139 9.655 3.479 2.246 8.123 1.241 10.366-2.241 2.244-3.481 1.241-8.123-2.241-10.366-7.32-4.719-17.979-10.614-27.181-11.902-24.924-3.5-37.051-11.195-43.429-29.019 18.351 1.29 33.051-.061 52.586-2.513 37.926-4.486 85.124-10.069 108.267 12.52 16.659 13.449 21.153 50.786 15.149 71.4-41.386-3.58-72.691-10.876-76.648-15.804-2.593-3.229-7.313-3.745-10.544-1.151-3.229 2.594-3.745 7.314-1.151 10.544 3.955 4.925 13.542 11.337 52.893 17.248 12.181 1.83 23.788 3.086 31.476 3.825-3.215 9.679-7.466 18.967-12.313 26.789-1.308 2.111-1.485 4.732-.476 7zm48.565-147.102c-8.498 9.991-20.286 14.58-35.083 13.725-2.223-12.261-6.782-23.243-13.594-32.437 11.697-5.462 31.601-15.927 45.953-29.646-.425 7.834-1.719 14.99-4.345 18.054-1.488 1.735-2.104 4.057-1.67 6.302s1.867 4.171 3.895 5.229l12.354 6.446c-1.433 3.402-3.811 7.977-7.51 12.327z"/><path d="m66.864 139.197c-4.143 0-7.5 3.357-7.5 7.5v5.219c0 4.143 3.357 7.5 7.5 7.5s7.5-3.357 7.5-7.5v-5.219c0-4.143-3.358-7.5-7.5-7.5z"/></g></g><g/><g/><g/><g/><g/><g/><g/><g/><g/><g/><g/><g/><g/><g/><g/></svg>