<svg enable-background="new 0 0 512 512" viewBox="0 0 512 512" xmlns="http://www.w3.org/2000/svg"><g id="_x30_4_x2C__goat_x2C_mammal_x2C__animal_x2C__wildlife_x2C__animal_kingdom_x2C__zoo"><g><path d="m192.27 444.759c.7 32.57 28.96 58.75 63.73 58.75s63.03-26.18 63.73-58.75z" fill="#f1ccbf"/><path d="m293.55 144.149 59.45-5.4 40.05-118.02v-.01c-38.73 15.39-80.76 49.44-99.5 123.43z" fill="#555a66"/><path d="m393.05 20.719v.01c-17.85 24.14-36.45 62.16-40.05 118.02l36.24 18.81c7.74-91.09 84.26-148.23 84.26-148.23s-38.27-5.37-80.45 11.39z" fill="#707788"/><path d="m118.95 20.719v.01l40.05 118.02 59.45 5.4c-18.74-73.99-60.77-108.04-99.5-123.43z" fill="#555a66"/><path d="m118.95 20.729v-.01c-42.18-16.76-80.45-11.39-80.45-11.39s76.52 57.14 84.26 148.23l36.24-18.81c-3.6-55.86-22.2-93.88-40.05-118.02z" fill="#707788"/><path d="m406.94 177.889 12.65 64.04c40.656-3.28 75.495-33.03 83.91-74.57-31.993-14.98-69.274-10.573-96.56 10.53z" fill="#e48820"/><path d="m8.5 167.359c8.402 41.476 43.203 71.285 83.91 74.57l12.65-64.04c-27.265-21.087-64.528-25.528-96.56-10.53z" fill="#e48820"/><path d="m278.5 151.199c-14.53 5.21-30.47 5.21-45 0l-70.56 236.26c2.75 22.55 13.5 42.63 29.33 57.29v.01c35.89 33.314 91.515 33.365 127.46 0v-.01c15.244-13.84 26.528-34.325 29.33-57.29z" fill="#f7e45b"/><path d="m262.61 358.889c13.73 0 22.31 14.86 15.45 26.75l-6.62 11.45c-6.873 11.903-24.019 11.881-30.88 0l-6.62-11.45c-6.86-11.89 1.72-26.75 15.45-26.75z" fill="#707788"/><path d="m379.94 301.549c-18.62 12.09-30.19 32.48-30.19 54.68-.152 17.399.4 22.144-.69 31.23-44.1-32.41-70.56-84.08-70.56-139.46v-96.8c6.959-2.485 9.052-4.301 15.05-7.05 40.346-18.515 88.906-4.698 113.39 33.74 26.579 41.647 14.38 96.794-27 123.66z" fill="#edb92b"/><path d="m233.5 151.199v96.8c0 55.38-26.46 107.05-70.56 139.46-1.099-9.159-.54-14.106-.69-31.23 0-22.2-11.57-42.59-30.19-54.68-20.47-13.29-35.2-34.67-39.65-59.62-13.251-73.435 65.027-131.179 131.67-94.96 3.05 1.67 6.2 3.08 9.42 4.23z" fill="#edb92b"/><g><path d="m506.681 160.566c-31.693-14.84-68.317-12.411-97.888 6.848-3.572-4.713-7.443-8.974-11.716-12.934 4.671-43.324 25.722-78.289 42.825-100.218 19.267-24.703 37.905-38.789 38.086-38.924 5.344-3.99 3.19-12.506-3.445-13.437-1.511-.211-37.511-5.026-78.872 9.81-57.779 20.727-92.503 67.386-108.477 127.176-20.351 10.241-35.504 13.523-62.385 0-15.972-59.774-50.691-106.446-108.479-127.175-41.359-14.836-77.36-10.021-78.872-9.81-6.606.928-8.801 9.424-3.45 13.433.157.118 15.961 12.052 33.467 33.18 2.643 3.189 7.37 3.633 10.561.99 3.189-2.643 3.633-7.371.99-10.56-7.808-9.422-15.247-17.089-21.319-22.865 18.647.43 38.014 3.82 56.484 10.854 14.805 20.584 32.438 55.12 36.866 106.286-7.879 2.555-15.405 6.122-22.417 10.628-2.821-17.861-8.294-35.584-16.341-52.847-1.75-3.754-6.209-5.38-9.967-3.629-3.754 1.75-5.379 6.212-3.629 9.966 8.701 18.667 14.152 37.871 16.225 57.139-4.27 3.957-8.144 8.22-11.72 12.937-29.519-19.224-66.132-21.717-97.888-6.848-3.134 1.468-4.857 4.89-4.17 8.282 8.818 43.527 44.016 74.294 85.031 79.937 5.736 24.04 20.456 45.199 41.794 59.052 16.766 10.883 26.775 28.975 26.775 48.395.147 9.271-.451 24.392.784 32.381 2.884 23.119 13.593 43.839 29.384 59.424 2.434 35.095 33.213 62.972 71.082 62.972 37.872 0 68.648-27.88 71.082-62.972 15.792-15.586 26.501-36.307 29.385-59.426 1.176-7.614.651-17.711.783-32.379 0-19.42 10.01-37.512 26.775-48.395 21.339-13.853 36.059-35.012 41.794-59.052 40.957-5.635 76.201-36.349 85.031-79.937.688-3.392-1.036-6.814-4.169-8.282zm-123.317-16.716c-7.013-4.507-14.54-8.075-22.42-10.63 4.428-51.166 22.061-85.703 36.866-106.286 18.569-7.072 37.95-10.427 56.481-10.854-35.304 33.568-63.14 78.68-70.927 127.77zm-10.946-104.454c-11.698 21.775-22.55 51.569-26.21 90.304-13.956-2.197-28.082-1.318-41.433 2.396 13.277-42.113 35.942-73.157 67.643-92.7zm-232.836.001c31.703 19.544 54.367 50.589 67.644 92.705-13.329-3.707-27.446-4.604-41.434-2.401-3.66-38.736-14.512-68.529-26.21-90.304zm-122.323 132.373c25.163-9.727 53.929-7.343 77.83 8.254-8.622 15.975-12.694 34.216-11.317 53.154-31.35-6.03-57.63-29.181-66.513-61.408zm118.884 123.485c-23.718-15.396-37.789-41.447-37.642-69.688.234-44.761 37.232-82.059 82.465-82.059 13.835 0 27.464 3.459 39.518 10.044 1.811.989 3.653 1.89 5.517 2.718v91.727c0 47.638-20.797 93.13-56.25 124.352v-16.119c-.001-24.52-12.564-47.314-33.608-60.975zm119.857 200.754c-23.587 0-44.048-13.885-52.324-33.347 32.105 19.458 72.493 19.489 104.647 0-8.275 19.462-28.736 33.347-52.323 33.347zm119.857-200.754c-21.044 13.66-33.607 36.455-33.607 60.977v16.12c-35.453-31.223-56.25-76.715-56.25-124.353v-3.96c0-4.142-3.357-7.5-7.5-7.5s-7.5 3.358-7.5 7.5v3.96c0 55.701 26.075 108.706 69.967 142.734-7.01 40.565-42.43 71.526-84.967 71.526s-77.956-30.961-84.967-71.526c43.892-34.027 69.967-87.033 69.967-142.734v-86.888c9.9 2.062 20.1 2.062 30 0v22.928c0 4.142 3.357 7.5 7.5 7.5s7.5-3.358 7.5-7.5v-27.767c1.864-.828 3.706-1.729 5.517-2.718 12.531-6.846 26.769-10.304 41.165-10.028 44.331.88 80.586 37.685 80.817 82.042.147 28.24-13.924 54.292-37.642 69.687zm52.372-62.078c1.376-18.917-2.685-37.161-11.317-53.154 23.964-15.637 52.727-17.959 77.83-8.254-8.87 32.177-35.133 55.373-66.513 61.408z"/><path d="m316 233.509c-4.143 0-7.5 3.358-7.5 7.5v7.5c0 4.142 3.357 7.501 7.5 7.501s7.5-3.358 7.5-7.501v-7.5c0-4.142-3.357-7.5-7.5-7.5z"/><path d="m196 256.009c4.143 0 7.5-3.358 7.5-7.501v-7.5c0-4.142-3.357-7.5-7.5-7.5s-7.5 3.358-7.5 7.5v7.5c0 4.143 3.357 7.501 7.5 7.501z"/><path d="m249.389 351.391c-19.494 0-31.7 21.094-21.939 38l6.611 11.451c3.28 5.681 8.423 9.709 14.439 11.546v8.621c0 4.143 3.357 7.5 7.5 7.5s7.5-3.357 7.5-7.5v-8.621c6.017-1.836 11.16-5.865 14.439-11.546l6.611-11.451c4.579-7.932 4.579-17.401 0-25.333s-12.78-12.667-21.939-12.667zm22.172 20.167c1.868 3.235 1.868 7.098 0 10.333l-6.611 11.451c-3.977 6.887-13.917 6.896-17.898 0l-6.611-11.451c-3.976-6.886.987-15.5 8.949-15.5h13.223c3.735 0 7.079 1.932 8.948 5.167z"/><circle cx="278.5" cy="214.043" r="7.5"/><circle cx="91" cy="67.909" r="7.5"/></g></g></g><g id="Layer_1"/></svg>