<svg id="Capa_1" enable-background="new 0 0 511.996 511.996" height="512" viewBox="0 0 511.996 511.996" width="512" xmlns="http://www.w3.org/2000/svg"><g><g><path d="m125.382 239.294-9.064-6.255-9.71-1.73-67.238-28.601c-23.599-10.017-34.609-37.268-24.592-60.866 2.253-5.307 6.127-9.429 10.801-12.034 0 0 2.533-.558 3.728-1.002 5.765-2.143 11.987-1.014 18.095 1.579.892.379 1.779.767 2.66 1.166 30.765 13.919 53.612 39.338 62.962 71.785z" fill="#c7865b"/><path d="m447.215 137.784-62.936 34.284-5.408 8.545-26.332 8.745 21.736 49.936 12.005.147z" fill="#cf9875"/><path d="m386.616 239.294 9.064-6.255 9.71-1.73 67.238-28.601c23.599-10.017 34.609-37.268 24.592-60.866-2.253-5.307-6.127-9.429-10.801-12.034 0 0-2.533-.558-3.728-1.002-5.765-2.143-11.987-1.014-18.095 1.579-.892.379-1.779.767-2.66 1.166-30.765 13.919-53.612 39.338-62.962 71.785z" fill="#c7865b"/><path d="m393.979 226.586-7.7 12.85-12-.14-21.74-49.94 31.74-17.29c.78 4.07 1.17 8.23 1.16 12.43l-.03 16c-.01 9.41 3.02 18.561 8.57 26.09z" fill="#c7865b"/><path d="m159.459 189.356-32.208-17.543-62.468-34.029 60.935 101.657 8.006-.098 3.995-.046.001-.003h.002l21.737-49.936h-.001z" fill="#cf9875"/><path d="m25.579 129.807c2.32.26 4.65.86 6.91 1.82.89.38 1.78.77 2.66 1.17 30.76 13.91 53.53 41.09 62.88 73.54l8.579 24.972 19.11 8.132-12.689-36.104c-9.35-32.45-32.12-59.63-62.88-73.54-.88-.4-1.77-.79-2.66-1.17-3.18-1.35-6.49-1.99-9.74-1.99-4.29-.001-8.48 1.109-12.17 3.17z" fill="#c27e4e"/><path d="m486.419 129.807c-2.32.26-4.65.86-6.91 1.82-.89.38-1.78.77-2.66 1.17-30.76 13.91-53.53 41.09-62.88 73.54l-8.579 24.972-19.11 8.132 12.689-36.104c9.35-32.45 32.12-59.63 62.88-73.54.88-.4 1.77-.79 2.66-1.17 3.18-1.35 6.49-1.99 9.74-1.99 4.29-.001 8.48 1.109 12.17 3.17z" fill="#c27e4e"/><path d="m196.849 443.836c-2.609-1.426-4.894-8.61-7.424-10.202-2.947-1.854-8.934-.211-8.934-.211-13.378-9.834-25.009-21.98-33.122-35.667-11.29-19.03-17.54-41.04-17.54-63.97v-35.23l-8.6-34.18c38.51-1.11 73.09 29.83 73.09 68.37v96.31c0 5.18.89 10.16 2.53 14.78z" fill="#c7865b"/><path d="m389.929 264.406c-3.58 14.74-8.29 34.15-8.29 34.15v35.23c0 39.286-19.287 75.893-50.111 99.409l-9.635-.113s-4.079 9.297-6.744 10.755c1.64-4.62 2.53-9.6 2.53-14.78v-96.31c0-38.501 33.79-69.391 72.25-68.341z" fill="#c7865b"/><path d="m196.849 443.836c-5.65-3.09-11.138-6.573-16.358-10.413-.12-1.45-.172-2.907-.172-4.367v-96.31c0-29.01-25.3-53.59-55.57-54.38l-3.52-13.99c38.51-1.11 77.387 20.505 77.387 59.046v105.957c0 5.18-1.767 14.457-1.767 14.457z" fill="#c27e4e"/><path d="m389.929 264.406c-1.08 4.46-2.27 9.35-3.4 13.99-29.89.8-54.85 25.36-54.85 54.35v96.31c0 1.39-.051 2.769-.151 4.139-5.15 3.93-10.619 7.491-16.379 10.641.82-2.31-1.814-5.944-1.384-8.414s0-3.708 0-6.298l-.048-104.426c0-38.499 41.92-73.404 76.212-60.292z" fill="#c27e4e"/><path d="m255.999 504.496c-15.222 0-28.56-8.067-35.971-20.159 0 0-3.029-13.939-3.029-22.001l-3.16-12.892h84.321l-3.373 12.892c0 8.063-2.816 22.001-2.816 22.001-7.412 12.092-20.75 20.159-35.972 20.159z" fill="#c7865b"/><g fill="#faf8f8"><path d="m165.68 143.086c-1.345-41.033-3.123-95.699-26.085-124.771-3.371-4.268.745-10.686.745-10.686 1.212-.253 2.552-.16 3.93.401 18.537 7.554 33.08 26.541 41.91 43.713 12.516 26.128 19.939 55.27 22.559 85.13z"/><path d="m349.911 143.088c1.345-41.033 2.574-95.629 25.536-124.701 1.835-2.323 1.863-5.029.794-7.162 0 0-5.526-2.811-9.199-1.314-18.537 7.554-30.489 25.956-39.319 43.128-12.516 26.128-20.291 54.182-22.911 84.042z"/></g><g fill="#f0e9e6"><path d="m177.019 141.096-14.93 1.99c-1.35-41.03-2.58-95.63-25.54-124.7-3.37-4.26-.639-9.816 3.791-10.756 33.35 23.65 35.159 86.766 36.679 133.466z"/><path d="m340.819 51.746c-12.52 26.13-19.94 55.27-22.56 85.13h-15c2.62-29.86 10.04-59 22.56-85.13 8.83-17.17 23.37-36.16 41.91-43.72 3.67-1.49 7.072.339 8.512 3.199-15.45 8.891-27.652 25.401-35.422 40.521z"/></g><path d="m298.159 449.446v12.89c0 8.06-2.258 15.601-6.188 22.001-5.9 2-12.182 3.069-18.641 3.069h-34.66c-6.46 0-12.741-1.069-18.641-3.069-3.93-6.4-6.189-13.941-6.189-22.001v-12.89z" fill="#c27e4e"/><path d="m390.959 260.176c-.33 1.35-.67 2.77-1.03 4.23-38.46-1.05-72.25 29.84-72.25 68.34v96.31c0 5.18-.89 10.16-2.53 14.78-6.09 17.23-22.51 29.57-41.82 29.57h-9.83l-8.287-3.176-6.713 3.176h-9.83c-19.31 0-35.73-12.34-41.82-29.57-1.64-4.62-2.53-9.6-2.53-14.78v-96.31c0-33.06-25.446-60.528-56.99-66.97l-14.883-5.929c-1.91-7.56-.494-14.157 4.596-20.057l.3-.35c9.46-10.97 15.46-25.504 15.36-39.934-.04-4.9-.07-10.07-.09-14.88-.04-12.86 3.25-24.151 11.75-33.801l.21-.25c11.216-12.739 26.28-19.596 42.173-18.516 1.406.096 4.081-.082 4.081-.082 8.011 1.195 15.847 4.252 22.844 9.248l1.12.8c18.78 13.42 44.05 13.3 62.71-.29l.76-.55c21.64-15.76 51.72-12.44 69.41 7.65l.5.57c8.62 9.8 13.29 22.21 13.27 35.07-.01 5.16-.02 10.75-.03 15.99-.01 13.89 4.97 27.33 14.04 37.85l.27.31c5.159 5.981 7.079 13.971 5.239 21.551z" fill="#cf9875"/><path d="m201.009 132.006c-11.86 1.82-23.14 7.67-31.62 17.3l-.21.25c-8.5 9.65-13.16 22.07-13.12 34.93.02 4.81.05 9.98.09 14.88.1 14.43-5.04 28.41-14.5 39.38l-.3.35c-5.09 5.9-6.99 13.91-5.08 21.47l1.06 5.21c-5.23-1.07-10.63-1.56-16.1-1.4l-.96-3.81c-1.91-7.56-.01-15.57 5.08-21.47l.3-.35c9.46-10.97 14.6-24.95 14.5-39.38-.04-4.9-.07-10.07-.09-14.88-.04-12.86 4.62-25.28 13.12-34.93l.21-.25c12.25-13.92 30.35-19.94 47.62-17.3z" fill="#c7865b"/><path d="m278.339 413.97-19.145 12.857c-1.738 1.242-4.074 1.242-5.812 0l-19.34-13.49c-3.215-2.296-5.123-6.004-5.123-9.955l-1.465-7.165v-6.412c0-6.757 5.477-12.234 12.234-12.234h32.624c6.757 0 12.234 5.477 12.234 12.234v6.412l-1.082 7.798c-.002 3.95-1.91 7.658-5.125 9.955z" fill="#8b818e"/><path d="m284.545 396.216.004 8.7c0 3.95-1.91 7.66-5.13 9.96l-20.51 14.65c-1.74 1.24-4.08 1.24-5.82 0l-20.51-14.65c-3.22-2.3-5.13-6.01-5.13-9.96l.004-8.7 25.636 18.31c1.74 1.24 4.08 1.24 5.82 0z" fill="#756e78"/></g><g><path d="m504.123 138.911c-3.386-7.978-9.676-14.158-17.711-17.405-14.435-6.307-28.954 2.018-43.002 9.811l-66.842 36.411c-3.234-10.859-9.5-21.198-18.994-29.526 1.245-38.144 3.265-89.217 23.758-115.165 4.079-5.165 4.177-12.149.245-17.38-3.913-5.205-10.614-7.041-16.68-4.57-23.325 9.506-38.434 33.204-45.364 46.484-1.917 3.672-.493 8.202 3.179 10.119 3.672 1.915 8.203.492 10.119-3.18 4.57-8.757 16.797-29.312 34.8-38.213-20.178 28.003-23.326 73.259-24.746 112.512-9.621-4.306-20.193-5.94-30.607-4.777 1.834-13.156 4.62-25.965 8.345-38.187 1.208-3.962-1.025-8.153-4.988-9.36-3.963-1.211-8.153 1.025-9.361 4.987-4.523 14.841-7.746 30.476-9.628 46.53-3.325 1.348-8.886 4.184-13.564 7.676-16.076 11.706-37.751 11.805-53.936.246-3.426-2.517-8.133-5.397-13.761-7.735-8.173-58.384-26.225-106.882-68.285-127.103-6.063-2.471-12.767-.635-16.68 4.57-3.932 5.23-3.834 12.215.245 17.38 20.435 25.872 22.502 76.726 23.748 114.835-7.902 6.245-16.441 18.534-19.443 29.62-15.939-8.128-69.343-38.602-84.553-45.769-7.977-3.388-16.795-3.465-24.832-.218-8.035 3.246-14.325 9.428-17.711 17.405-7.928 18.678-4.787 39.978 8.198 55.587 2.648 3.183 7.377 3.618 10.562.969 3.185-2.648 3.618-7.378.969-10.562-9.376-11.271-11.646-26.648-5.922-40.132 1.821-4.29 5.203-7.613 9.523-9.358 4.154-1.493 10.002-1.585 15.85 1.212 28.299 13.534 50.518 37.444 58.763 68.786.07.266 6.598 19.606 6.794 20.211l-58.213-24.687c-3.815-1.618-8.216.162-9.833 3.977-1.617 3.812.163 8.215 3.977 9.832l65.906 27.95c-2.552 6.166-3.126 13.072-1.457 19.702 6.316 22.442 9.358 47.558 9.337 71.394 0 47.753 26.311 91.983 68.759 115.839 3.501 8.066 8.996 15.067 15.857 20.393 1.716 11.034 7.092 21.166 15.382 28.817 9.195 8.485 21.153 13.159 33.673 13.159 12.515 0 24.471-4.671 33.665-13.152 8.294-7.651 13.673-17.786 15.39-28.823 6.757-5.244 12.184-12.116 15.691-20.026 14.947-8.299 27.981-19.228 38.739-32.508 2.608-3.219 2.113-7.941-1.106-10.549-3.219-2.609-7.941-2.113-10.548 1.105-6.62 8.17-14.209 15.338-22.662 21.422.031-.289 0-96.373.01-96.722 0-15.966 6.556-31.127 18.461-42.691 10.045-9.757 23.024-15.967 36.639-17.686-4.034 19.104-6.237 41.289-6.137 61.423 0 15.966-3.168 31.503-9.417 46.181-1.623 3.811.151 8.216 3.962 9.838 3.812 1.624 8.216-.151 9.839-3.963 7.043-16.545 10.615-34.059 10.615-52.056-.132-23.5 2.844-48.496 9.104-71.838 1.543-6.342 1.039-12.944-1.271-18.912l78.583-33.427c13.258-5.628 23.53-16.081 28.925-29.435 5.397-13.355 5.269-28.011-.358-41.268zm-97.613 29.586c-6.328 9.954-11.307 20.898-14.691 32.575l-7.563 22.01c-3.491-6.97-5.354-14.703-5.343-22.608-.015-1.545.06-15.812.005-16.947zm-262.146-152.203c42.567 25.655 49.705 78.501 55.401 107.935-10.416-1.185-20.994.388-30.652 4.57-1.421-39.247-4.569-84.494-24.749-112.505zm-38.826 152.282 27.05 14.69c-.053 4.196.029 9.804.057 16.161.061 8.057-1.764 15.954-5.243 23.111l-7.216-21.442c-3.376-11.655-8.341-22.581-14.648-32.52zm150.461 328.42c-12.785 0-24.192-7.137-30.194-17.712 4.115 1.054 8.424 1.617 12.863 1.617h34.663c4.438 0 8.748-.562 12.862-1.617-6.003 10.575-17.411 17.712-30.194 17.712zm0-74.61-19.064-13.617c-1.241-.886-1.981-2.326-1.981-3.852v-15.113c0-2.61 2.124-4.733 4.733-4.733h32.624c2.61 0 4.733 2.123 4.733 4.733v15.113c0 1.525-.741 2.966-1.981 3.852 0 0 0 0-.001.001zm77.188-143.094c-14.838 14.413-23.009 33.396-23.009 53.45v96.312c0 20.317-16.53 36.848-36.848 36.848h-9.832v-30.44l20.281-14.486c5.175-3.695 8.265-9.698 8.265-16.059v-15.113c0-10.881-8.853-19.733-19.733-19.733h-32.624c-10.881 0-19.733 8.853-19.733 19.733v15.113c0 6.36 3.09 12.363 8.264 16.058l20.282 14.487v30.44h-9.831c-20.318 0-36.848-16.53-36.848-36.848v-39.505c0-4.143-3.358-7.5-7.5-7.5s-7.5 3.357-7.5 7.5c.002-.006-.004 39.323.002 39.595-30.849-22.229-49.494-57.561-49.494-95.355.014-19.323-2.024-41.716-6.378-61.498 13.898 1.584 27.175 7.818 37.41 17.76 11.905 11.564 18.461 26.726 18.461 42.691v21.743c0 4.143 3.358 7.5 7.5 7.5s7.5-3.357 7.5-7.5v-21.743c0-20.055-8.171-39.037-23.009-53.45-13.939-13.541-32.503-21.491-51.611-22.318-.476-3.351.496-9.159 4.126-13.33 10.646-12.345 16.44-28.088 16.317-44.331-.037-4.891-.062-10.051-.081-14.857-.041-11.028 3.952-21.665 11.239-29.947 15.313-17.863 42.627-20.787 61.625-6.378 21.449 15.319 50.176 15.189 71.484-.328 18.355-14.116 45.398-11.423 60.627 6.562 7.37 8.375 11.418 19.064 11.399 30.098l-.025 15.991c-.021 15.692 5.611 30.879 15.851 42.752 2.629 2.911 4.906 8.285 4.173 13.809-18.806 1.019-37.02 8.94-50.75 22.277zm157.388-104.734c-3.894 9.639-11.309 17.184-20.883 21.248l-70.507 29.992c.12-.378 6.761-19.633 6.995-20.387 10.168-32.791 30.14-55.178 58.767-68.788 3.699-1.759 9.919-3.822 15.846-1.21 4.32 1.745 7.702 5.068 9.523 9.358 4.061 9.57 4.154 20.148.259 29.787z"/><path d="m161.999 303.496c-4.142 0-7.5 3.357-7.5 7.5v12c0 4.143 3.358 7.5 7.5 7.5s7.5-3.357 7.5-7.5v-12c0-4.142-3.358-7.5-7.5-7.5z"/><path d="m342.499 310.996v12c0 4.143 3.358 7.5 7.5 7.5s7.5-3.357 7.5-7.5v-12c0-4.143-3.358-7.5-7.5-7.5s-7.5 3.358-7.5 7.5z"/></g></g></svg>