<svg id="Layer_1" viewBox="0 0 1000 1000" xmlns="http://www.w3.org/2000/svg" data-name="Layer 1"><rect fill="#f9a825" height="32.26" rx="9.76" width="453.64" x="273.18" y="116"/><path d="m608.42 884h-216.84a69.83 69.83 0 0 1 67.86-53.71h81.12a69.83 69.83 0 0 1 67.86 53.71z" fill="#757575"/><path d="m309.45 180.26v129a190.86 190.86 0 0 0 98 166.57 90.38 90.38 0 0 1 46.38 78.91v22a17 17 0 0 0 9.79 15.37 37 37 0 0 1 21.38 33.29v.89a36.79 36.79 0 0 1 -12.95 27.89 42.9 42.9 0 0 0 5.38 69 16 16 0 0 1 7.57 13.6v61.48h30v-61.45a16 16 0 0 1 7.57-13.6 42.9 42.9 0 0 0 5.38-69 36.81 36.81 0 0 1 -13-27.89v-.89a37 37 0 0 1 21.43-33.26 17 17 0 0 0 9.79-15.37v-22a90.38 90.38 0 0 1 46.38-78.91 190.86 190.86 0 0 0 98-166.57v-129zm266.13 198.74a34.93 34.93 0 0 1 -10.32 24.7l-23.86 23.58a34.54 34.54 0 0 1 -24.42 10h-33.98a34.5 34.5 0 0 1 -24.41-10l-23.87-23.59a34.93 34.93 0 0 1 -10.3-24.69v-77a34.93 34.93 0 0 1 10.32-24.69l23.86-23.6a34.58 34.58 0 0 1 24.42-10h34a34.54 34.54 0 0 1 24.41 10l23.87 23.6a34.93 34.93 0 0 1 10.28 24.69z" fill="#fdd835"/><path d="m543.58 302v77a2.76 2.76 0 0 1 -.81 1.94l-23.87 23.58a2.69 2.69 0 0 1 -1.92.79h-33.98a2.72 2.72 0 0 1 -1.92-.78l-23.87-23.6a2.76 2.76 0 0 1 -.81-1.94v-76.99a2.73 2.73 0 0 1 .81-1.93l23.87-23.6a2.69 2.69 0 0 1 1.92-.79h34a2.69 2.69 0 0 1 1.92.79l23.87 23.59a2.77 2.77 0 0 1 .79 1.94z" fill="#7e57c2"/><g fill="#fff" opacity=".5"><rect height="32.26" rx="9.76" width="453.64" x="263.18" y="126"/><path d="m598.42 894h-216.84a69.83 69.83 0 0 1 67.86-53.71h81.12a69.83 69.83 0 0 1 67.86 53.71z"/><path d="m299.45 190.26v129a190.86 190.86 0 0 0 98 166.57 90.38 90.38 0 0 1 46.38 78.91v22a17 17 0 0 0 9.79 15.37 37 37 0 0 1 21.38 33.29v.89a36.79 36.79 0 0 1 -12.95 27.89 42.9 42.9 0 0 0 5.38 69 16 16 0 0 1 7.57 13.6v61.48h30v-61.45a16 16 0 0 1 7.57-13.6 42.9 42.9 0 0 0 5.38-69 36.81 36.81 0 0 1 -13-27.89v-.89a37 37 0 0 1 21.43-33.26 17 17 0 0 0 9.79-15.37v-22a90.38 90.38 0 0 1 46.38-78.91 190.86 190.86 0 0 0 98-166.57v-129zm266.13 198.74a34.93 34.93 0 0 1 -10.32 24.7l-23.86 23.58a34.54 34.54 0 0 1 -24.42 10h-33.98a34.5 34.5 0 0 1 -24.41-10l-23.87-23.59a34.93 34.93 0 0 1 -10.3-24.69v-77a34.93 34.93 0 0 1 10.32-24.69l23.86-23.6a34.58 34.58 0 0 1 24.42-10h34a34.54 34.54 0 0 1 24.41 10l23.87 23.6a34.93 34.93 0 0 1 10.28 24.69z"/><path d="m533.58 312v77a2.76 2.76 0 0 1 -.81 1.94l-23.87 23.58a2.69 2.69 0 0 1 -1.92.79h-33.98a2.72 2.72 0 0 1 -1.92-.78l-23.87-23.6a2.76 2.76 0 0 1 -.81-1.94v-76.99a2.73 2.73 0 0 1 .81-1.93l23.87-23.6a2.69 2.69 0 0 1 1.92-.79h34a2.69 2.69 0 0 1 1.92.79l23.87 23.59a2.77 2.77 0 0 1 .79 1.94z"/></g><g fill="#413b32"><path d="m565.26 277.33-23.87-23.6a34.54 34.54 0 0 0 -24.41-10h-33.98a34.58 34.58 0 0 0 -24.42 10l-23.86 23.6a34.93 34.93 0 0 0 -10.3 24.67v77a34.93 34.93 0 0 0 10.32 24.7l23.87 23.59a34.5 34.5 0 0 0 24.41 10h34a34.54 34.54 0 0 0 24.42-10l23.86-23.59a34.93 34.93 0 0 0 10.28-24.7v-77a34.93 34.93 0 0 0 -10.32-24.67zm-21.68 101.67a2.76 2.76 0 0 1 -.81 1.94l-23.87 23.58a2.69 2.69 0 0 1 -1.92.79h-33.98a2.72 2.72 0 0 1 -1.92-.78l-23.87-23.6a2.76 2.76 0 0 1 -.81-1.94v-76.99a2.73 2.73 0 0 1 .81-1.93l23.87-23.6a2.69 2.69 0 0 1 1.92-.79h34a2.69 2.69 0 0 1 1.92.79l23.87 23.59a2.77 2.77 0 0 1 .81 1.94z"/><path d="m717.06 84h-434.12a41.8 41.8 0 0 0 -41.76 41.76v12.74a41.82 41.82 0 0 0 36.27 41.4 41.38 41.38 0 0 0 5.49.36h434.12a41.38 41.38 0 0 0 5.49-.36 41.82 41.82 0 0 0 36.27-41.4v-12.74a41.8 41.8 0 0 0 -41.76-41.76zm9.76 54.5a9.77 9.77 0 0 1 -9.76 9.76h-434.12a9.77 9.77 0 0 1 -9.76-9.76v-12.74a9.77 9.77 0 0 1 9.76-9.76h434.12a9.77 9.77 0 0 1 9.76 9.76z"/><path d="m722.55 164.26v145a222.85 222.85 0 0 1 -114.39 194.53 58.39 58.39 0 0 0 -29.95 51v22a49.16 49.16 0 0 1 -28.21 44.34 4.84 4.84 0 0 0 -3 4.27v.89a4.89 4.89 0 0 0 1.8 3.62 74.91 74.91 0 0 1 -1.8 115.15v69.22a16 16 0 0 1 -32 0v-77.47a16 16 0 0 1 7.57-13.6 42.9 42.9 0 0 0 5.38-69 36.81 36.81 0 0 1 -13-27.89v-.89a37 37 0 0 1 21.43-33.26 17 17 0 0 0 9.79-15.37v-22a90.38 90.38 0 0 1 46.38-78.91 190.86 190.86 0 0 0 98-166.57v-129h-381.1v129a190.86 190.86 0 0 0 98 166.57 90.38 90.38 0 0 1 46.38 78.91v22a17 17 0 0 0 9.79 15.37 37 37 0 0 1 21.38 33.23v.89a36.79 36.79 0 0 1 -12.95 27.89 42.9 42.9 0 0 0 5.38 69 16 16 0 0 1 7.57 13.6v77.47a16 16 0 0 1 -32 0v-69.19a74.91 74.91 0 0 1 -1.8-115.15 4.88 4.88 0 0 0 1.8-3.62v-.89a4.84 4.84 0 0 0 -3-4.27 49.16 49.16 0 0 1 -28.23-44.36v-22a58.39 58.39 0 0 0 -30-51 222.85 222.85 0 0 1 -114.32-194.5v-145a16 16 0 0 1 16-16h413.1a16 16 0 0 1 16 15.99z"/><path d="m547 798.5q-3.19-.21-6.43-.21h-81.13q-3.24 0-6.43.21a101.82 101.82 0 0 0 -95.29 101.5 16 16 0 0 0 16 16h252.56a16 16 0 0 0 16-16 101.82 101.82 0 0 0 -95.28-101.5zm-155.42 85.5a69.83 69.83 0 0 1 67.86-53.71h81.12a69.83 69.83 0 0 1 67.86 53.71z"/></g></svg>