<svg id="Layer_1" viewBox="0 0 1000 1000" xmlns="http://www.w3.org/2000/svg" data-name="Layer 1"><path d="m500 400.48c-133.31 0-241.76 108.45-241.76 241.76s108.45 241.76 241.76 241.76 241.76-108.45 241.76-241.76-108.45-241.76-241.76-241.76zm0 429.6c-103.58 0-187.84-84.27-187.84-187.84s84.26-187.84 187.84-187.84 187.84 84.26 187.84 187.84-84.26 187.84-187.84 187.84z" fill="#ff9100"/><path d="m500 486.4c-85.93 0-155.84 69.91-155.84 155.84s69.91 155.84 155.84 155.84 155.84-69.91 155.84-155.84-69.91-155.84-155.84-155.84zm16 255.84a16 16 0 0 1 -32 0v-184h-.15c-21 31.07-57.35 59.72-59 61a16 16 0 0 1 -19.73-25.2c.2-.15 10.11-8 22-19.31s25.81-26.21 34-40.48a16 16 0 0 1 13.88-8h25a16 16 0 0 1 16 16z" fill="#ff9100"/><path d="m871.47 215.27-156.73 257.11a275.78 275.78 0 0 0 -128.14-90l45.4-78.6c.14-.22.27-.45.39-.68l104-180.1z" fill="#00acc1"/><path d="m413.4 382.4a275.78 275.78 0 0 0 -128.14 90l-156.73-257.13 135.08-92.27 104 180.15c.12.23.25.46.39.68z" fill="#00acc1"/><path d="m703.45 116-94.39 163.49h-218.12l-94.39-163.49z" fill="#00acc1"/><g fill="#fff" opacity=".5"><path d="m490 410.48c-133.31 0-241.76 108.45-241.76 241.76s108.45 241.76 241.76 241.76 241.76-108.45 241.76-241.76-108.45-241.76-241.76-241.76zm0 429.6c-103.58 0-187.84-84.27-187.84-187.84s84.26-187.84 187.84-187.84 187.84 84.26 187.84 187.84-84.26 187.84-187.84 187.84z"/><path d="m490 496.4c-85.93 0-155.84 69.91-155.84 155.84s69.91 155.84 155.84 155.84 155.84-69.91 155.84-155.84-69.91-155.84-155.84-155.84zm16 255.84a16 16 0 0 1 -32 0v-184h-.15c-21 31.07-57.35 59.72-59 61a16 16 0 0 1 -19.73-25.2c.2-.15 10.11-8 22-19.31s25.81-26.21 34-40.48a16 16 0 0 1 13.88-8h25a16 16 0 0 1 16 16z"/><path d="m861.47 225.27-156.73 257.11a275.78 275.78 0 0 0 -128.14-90l45.4-78.6c.14-.22.27-.45.39-.68l104-180.1z"/><path d="m403.4 392.4a275.78 275.78 0 0 0 -128.14 90l-156.73-257.13 135.08-92.27 104 180.15c.12.23.25.46.39.68z"/><path d="m693.45 126-94.39 163.49h-218.12l-94.39-163.49z"/></g><g fill="#413b32"><path d="m734.7 501.1a270 270 0 0 0 -20-28.72 275.78 275.78 0 0 0 -128.14-90 270.53 270.53 0 0 0 -32-8.51 277.93 277.93 0 0 0 -109.14 0 271.58 271.58 0 0 0 -139 74.77 274.68 274.68 0 0 0 -21.16 23.72 273.78 273.78 0 0 0 408.32 363.46 274.08 274.08 0 0 0 41.12-334.72zm-234.7 382.9c-133.31 0-241.76-108.45-241.76-241.76s108.45-241.76 241.76-241.76 241.76 108.45 241.76 241.76-108.45 241.76-241.76 241.76z"/><path d="m500 454.4c-103.58 0-187.84 84.26-187.84 187.84s84.26 187.84 187.84 187.84 187.84-84.27 187.84-187.84-84.26-187.84-187.84-187.84zm0 343.68c-85.93 0-155.84-69.91-155.84-155.84s69.91-155.84 155.84-155.84 155.84 69.91 155.84 155.84-69.91 155.84-155.84 155.84z"/><path d="m445.48 406a16 16 0 0 1 -21.85-5.86l-10.23-17.74-45.4-78.62c-.14-.22-.27-.45-.39-.68l-104-180.1-135.08 92.27 156.73 257.11 12.57 20.62a16 16 0 1 1 -27.32 16.66l-5.21-8.55-120.3-197.29-51.7-84.82a16 16 0 0 1 4.64-21.54l161.32-110.29c.35-.25.7-.49 1.06-.71l.52-.32c.18-.1.36-.21.55-.3a15.91 15.91 0 0 1 3.32-1.3l.58-.14a17.48 17.48 0 0 1 1.76-.3 15.22 15.22 0 0 1 1.79-.1 15.78 15.78 0 0 1 3.55.4 16 16 0 0 1 10.3 7.6l13.86 24 94.39 163.49 4.62 8 13.85 24 36 62.4 5.91 10.24a16 16 0 0 1 -5.84 21.87z"/><path d="m906.7 219-51.7 84.81-120.3 197.29-5.21 8.55a16 16 0 0 1 -27.32-16.65l12.57-20.61 156.73-257.12-135.08-92.27-104 180.15c-.12.23-.25.46-.39.68l-45.4 78.57-10.23 17.73a16 16 0 1 1 -27.71-16l5.91-10.24 36-62.4 13.85-24 4.62-8 94.41-163.49 13.86-24a16 16 0 0 1 10.3-7.6 15.78 15.78 0 0 1 3.55-.4 15.22 15.22 0 0 1 1.79.1 17.48 17.48 0 0 1 1.76.3l.58.14a15.91 15.91 0 0 1 3.32 1.3c.19.09.37.2.55.3l.52.32c.36.22.71.46 1.06.71l161.32 110.25a16 16 0 0 1 4.64 21.58z"/><path d="m634.3 295.49a15.92 15.92 0 0 1 -1.93 7.61c-.12.23-.25.46-.39.68a16 16 0 0 1 -13.68 7.71h-236.6a16 16 0 0 1 -13.7-7.71c-.14-.22-.27-.45-.39-.68a16 16 0 0 1 14.07-23.61h236.62a16 16 0 0 1 16 16z"/><path d="m747.16 100a16 16 0 0 1 -16 16h-462.32a16 16 0 0 1 -9.58-28.83c.35-.25.7-.49 1.06-.71l.52-.32c.18-.1.36-.21.55-.3a15.91 15.91 0 0 1 3.32-1.3l.58-.14a12.94 12.94 0 0 1 1.76-.3 15.22 15.22 0 0 1 1.79-.1h462.32a15.22 15.22 0 0 1 1.79.1 12.94 12.94 0 0 1 1.76.3l.58.14a15.91 15.91 0 0 1 3.32 1.3c.19.09.37.2.55.3l.52.32c.36.22.71.46 1.06.71a16 16 0 0 1 6.42 12.83z"/><path d="m516 542.24v200a16 16 0 0 1 -32 0v-184h-.15c-21 31.07-57.35 59.72-59 61a16 16 0 0 1 -19.73-25.2c.2-.15 10.11-8 22-19.31s25.81-26.21 34-40.48a16 16 0 0 1 13.88-8h25a16 16 0 0 1 16 15.99z"/></g></svg>