<svg id="Capa_1" enable-background="new 0 0 512 512" viewBox="0 0 512 512" xmlns="http://www.w3.org/2000/svg"><g><g><path d="m111.946 245.77c-9.56 11.521-23.629 18.129-38.6 18.129h-21.676c-28.491 0-51.67 23.18-51.67 51.671v41.788h100.085c23.408 0 46.287-8.151 64.423-22.952s30.707-35.582 35.398-58.516l7.773-37.992-44.069-10-45.132 10z" fill="#ff4340"/><path d="m199.907 198.242c-4.691-22.934-17.263-43.715-35.398-58.516s-41.015-22.952-64.423-22.952h-100.086v41.788c0 28.491 23.179 51.67 51.67 51.67h21.676c14.971 0 28.04 6.608 37.6 18.128l7.533 9.537h89.434z" fill="#fd6717"/></g><path d="m266.204 295.982-48.826 49.515c-20.911 20.957-20.897 55.019.042 75.958l30.616 30.617 84.355-84.355z" fill="#ff4340"/><path d="m452.229 175.284c-3.734-35.716-19.489-64.124-46.826-84.434-39.884-29.63-98.869-35.331-136.791-28.088l-13.507 1.5 1.3 13.36c-.227 2.089-2.407 16.091-21.21 37.354-19.524 22.081-21.567 45.083-19.842 60.491z" fill="#fd6717"/><g><path d="m339.766 217.897-144.318 20v53.424l9.619 20.049c11.883 23.545 30.037 43.297 52.498 57.12 22.461 13.824 48.273 21.13 74.647 21.13h24.201c35.081 0 69.541-11.939 97.03-33.618 27.674-21.824 47.124-52.634 54.768-86.755 2.035-9.086 3.257-20.979 3.649-31.351z" fill="#efe2dd"/><path d="m467.846 177.997c-37.089-32.147-81.947-49.139-129.725-49.139-60.247 0-100.05 22.782-122.831 41.894-7.833 6.571-14.449 6.069-19.842 12.591v54.555h316.412c.092-2.439.139-4.796.139-7.01-.573-1.023-16.261-28.717-44.153-52.891z" fill="#f5f0eb"/></g><g><path d="m270.086 253.622c0 24.661 20.063 44.725 44.725 44.725h64.826v-60.449l-54.775-10-54.775 10v15.724z" fill="#ff4340"/><path d="m270.086 208.897h109.551v29h-109.551z" fill="#fd6717"/></g><g><path d="m413.475 237.897v15h30v-15l-14.999-10z" fill="#2b2b2b"/><path d="m413.475 222.897h30v15h-30z" fill="#404040"/></g></g><g/><g/><g/><g/><g/><g/><g/><g/><g/><g/><g/><g/><g/><g/><g/></svg>