<svg id="Layer_1" viewBox="0 0 1000 1000" xmlns="http://www.w3.org/2000/svg" data-name="Layer 1"><g fill="#33691e"><path d="m287.34 844.31q0 6.44-.09 12.88h-86.25c8.57-89.53-42.05-217.35-69.72-279.27 68.05 31.08 114.72 85.74 139.08 162.96 12.82 40.68 16.29 78.91 16.98 103.43z"/><path d="m319.52 857.19c0-4.44 0-9.63-.18-15.46-.09-59.13-5.35-120.67-15.67-183.39a1377.24 1377.24 0 0 0 -42.33-179.43 1363.93 1363.93 0 0 0 -47.79-132c33.16 18.43 63.05 49.15 89.19 91.75 29 47.34 53.42 109.11 72.48 183.61 25.68 100.35 34.63 197.15 37.32 235z"/><path d="m639.2 192.54c-13.67 33.89-26 74.32-37 121-16.42 69.81-29.88 154.05-40 250.36-7.21 68.47-11.7 133.54-14.49 186.14a920 920 0 0 0 -4.78 107.13h-97c6.7-302.88 74.28-480.95 130.35-577.41 21.89-37.76 43.8-66.23 62.92-87.22z"/><path d="m859.71 578.56c-26.8 47.81-46 106.53-57.34 175.27a760.73 760.73 0 0 0 -9.87 103.36h-97.09c1.23-101.33 35.32-181.26 101.46-237.75a293.22 293.22 0 0 1 62.84-40.88z"/><path d="m671.83 723.14c-9.08 65.69-9.75 111-9.17 134.05h-87.13c.46-19.72 1.53-56.27 4-103 15.39-146 66-246.49 110.57-308.92a491.42 491.42 0 0 1 80.65-88.56c-61.65 160.29-87.83 286.22-98.92 366.43z"/></g><g fill="#fff" opacity=".5"><path d="m277.34 854.31q0 6.44-.09 12.88h-86.25c8.57-89.53-42.05-217.35-69.72-279.27 68.05 31.08 114.72 85.74 139.08 162.96 12.82 40.68 16.29 78.91 16.98 103.43z"/><path d="m309.52 867.19c0-4.44 0-9.63-.18-15.46-.09-59.13-5.35-120.67-15.67-183.39a1377.24 1377.24 0 0 0 -42.33-179.43 1363.93 1363.93 0 0 0 -47.79-132c33.16 18.43 63.05 49.15 89.19 91.75 29 47.34 53.42 109.11 72.48 183.61 25.68 100.35 34.63 197.15 37.32 235z"/><path d="m629.2 202.54c-13.67 33.89-26 74.32-37 121-16.42 69.81-29.88 154.05-40 250.36-7.21 68.47-11.7 133.54-14.49 186.14a920 920 0 0 0 -4.78 107.13h-97c6.7-302.88 74.28-480.95 130.35-577.41 21.89-37.76 43.8-66.23 62.92-87.22z"/><path d="m849.71 588.56c-26.8 47.81-46 106.53-57.34 175.27a760.73 760.73 0 0 0 -9.87 103.36h-97.09c1.23-101.33 35.32-181.26 101.46-237.75a293.22 293.22 0 0 1 62.84-40.88z"/><path d="m661.83 733.14c-9.08 65.69-9.75 111-9.17 134.05h-87.13c.46-19.72 1.53-56.27 4-103 15.39-146 66-246.49 110.57-308.92a491.42 491.42 0 0 1 80.65-88.56c-61.65 160.29-87.83 286.22-98.92 366.43z"/></g><path d="m913.5 537.77a16 16 0 0 0 -17-7c-2.47.55-61 14.14-119.2 63.32a306.16 306.16 0 0 0 -64.18 74.91c16.22-86.31 47.51-206.08 107.8-351.71a16 16 0 0 0 -22.45-20.16c-2.77 1.51-68.68 38.12-133.3 128a604 604 0 0 0 -69.55 127.08c22.6-204.7 60.31-348.36 109.26-416a16 16 0 0 0 -20.25-23.62c-2.76 1.41-68.23 35.81-134.29 148.03-38.2 64.89-69 142.89-91.49 231.85-15.7 62.08-27.39 129.65-35 202.1-4.75-25.53-10.52-52.44-17.5-79.79-19.84-77.71-45.48-142.55-76.21-192.69-39.53-64.52-87.78-105.09-143.42-120.7a16 16 0 0 0 -18.63 22.55c.32.64 32.36 65.32 62.87 165a1350.68 1350.68 0 0 1 41.34 176.45 288 288 0 0 0 -33.52-47c-34.7-39.46-79.81-67.93-134.07-84.64a16 16 0 0 0 -19 22.51c1 2.06 103.86 207.28 81 313.61a16 16 0 0 0 15.65 19.36h626a16 16 0 0 0 16-16.36c0-2-3.34-198.14 88.26-316.68a16 16 0 0 0 .88-18.42zm-626.25 319.42h-86.25c8.57-89.53-42.05-217.35-69.72-279.27 68.05 31.08 114.72 85.74 139.08 162.96 12.82 40.68 16.29 78.91 17 103.43q-.02 6.44-.11 12.88zm32.27 0c0-4.44 0-9.63-.18-15.46-.09-59.13-5.35-120.67-15.67-183.39a1377.24 1377.24 0 0 0 -42.33-179.43 1363.93 1363.93 0 0 0 -47.79-132c33.16 18.43 63.05 49.15 89.19 91.75 29 47.34 53.42 109.11 72.48 183.61 25.68 100.35 34.63 197.15 37.32 235zm228.16-107.13a920 920 0 0 0 -4.78 107.13h-97c6.7-302.88 74.28-480.95 130.35-577.41 22-37.79 43.88-66.25 63-87.24-13.67 33.89-26 74.32-37 121-16.42 69.81-29.88 154.05-40 250.36-7.25 68.49-11.78 133.56-14.57 186.16zm115 107.13h-87.15c.46-19.72 1.53-56.27 4-103 15.39-146 66-246.49 110.57-308.92a491.42 491.42 0 0 1 80.65-88.56c-61.65 160.29-87.83 286.22-98.92 366.43-9.08 65.69-9.75 111-9.17 134.05zm139.69-103.36a760.73 760.73 0 0 0 -9.87 103.36h-97.09c1.23-101.33 35.32-181.26 101.46-237.75a293.22 293.22 0 0 1 62.84-40.88c-26.8 47.81-46.04 106.53-57.34 175.27z" fill="#413b32"/></svg>