<svg clip-rule="evenodd" fill-rule="evenodd" stroke-linejoin="round" stroke-miterlimit="2" viewBox="0 0 96 96" xmlns="http://www.w3.org/2000/svg"><g><g><path d="m4.925 89.858c-.411.165-.882.048-1.167-.291-.286-.338-.322-.822-.09-1.199 17.459-25.568 6.411-31.939 28.988-55.207.382-.394 2.286-2.294 2.926-2.909 22.688-21.761 29.222-11.306 54.176-28.111.382-.228.869-.175 1.193.13.325.304.408.787.204 1.183-5.709 10.978-13.905 19.483-25.924 24.165-2.777 10.691-9.976 16.961-20.203 20.203-2.91 10.559-9.134 17.803-20.203 20.203-2.933 10.978-10.038 17.785-19.9 21.833z" fill="#669858"/><path d="m34.864 93.914c-.403.177-.874.076-1.169-.251-.295-.326-.347-.804-.13-1.187 11.18-16.825 4.094-21.304 19.318-36.995.262-.27 1.567-1.572 2.006-1.993 15.246-14.624 19.848-8.02 36.143-18.614.384-.208.858-.138 1.166.171s.375.784.165 1.166c-3.861 7.003-9.324 12.422-17.155 15.472-1.903 7.327-6.837 11.624-13.846 13.846-1.994 7.236-6.26 12.201-13.846 13.846-1.911 7.153-6.406 11.722-12.652 14.539z" fill="#72a962"/></g><g><path d="m5.828 87.841c8.058-12.183 9.66-19.985 11.855-27.52 2.191-7.52 5.021-14.75 16.049-26.116.378-.389 2.257-2.264 2.889-2.87 11.079-10.627 18.206-13.401 25.618-15.557 7.349-2.137 14.956-3.713 26.638-11.26-5.481 9.797-13.174 17.412-24.19 21.703-.449.175-.787.555-.908 1.021-2.636 10.149-9.497 16.073-19.204 19.15-.484.154-.858.542-.993 1.032-2.198 7.976-6.355 13.984-13.293 17.221-.75.35-1.075 1.243-.725 1.993s1.243 1.075 1.994.725c7.511-3.504 12.183-9.857 14.694-18.363 10.101-3.397 17.253-9.744 20.231-20.265 11.993-4.875 20.236-13.5 26.003-24.589.001-.002.002-.003.003-.005.51-.991.302-2.2-.51-2.963-.812-.764-2.032-.896-2.989-.326-.024.014-.047.029-.07.044-12.288 8.276-20.045 9.828-27.519 12.002-7.765 2.258-15.249 5.138-26.857 16.272-.649.622-2.578 2.547-2.965 2.946-11.548 11.902-14.482 19.492-16.776 27.366-2.209 7.581-3.777 15.449-12.374 28.04-.014.02-.027.04-.04.061-.57.928-.481 2.118.222 2.951.703.834 1.861 1.122 2.873.716.003-.002.007-.003.01-.005 10.305-4.229 20.657-11.518 21.973-29.504.061-.826-.56-1.545-1.386-1.605-.826-.061-1.545.56-1.606 1.386-1.14 15.585-9.731 22.362-18.647 26.319z"/><path d="m46.463 48.258c1.109-3.652 1.83-7.484.985-12.081-.15-.814-.932-1.354-1.747-1.204-.814.15-1.354.932-1.204 1.747.746 4.059.075 7.441-.904 10.666-.241.792.207 1.631.999 1.871.792.241 1.631-.207 1.871-.999z"/><path d="m66.399 29.108c.726-2.392 1.285-4.863 1.347-7.576.019-.828-.638-1.515-1.465-1.534-.828-.019-1.515.638-1.534 1.466-.055 2.426-.569 4.633-1.219 6.772-.241.792.207 1.631.999 1.871.793.241 1.631-.207 1.872-.999z"/><path d="m89.991 37.298c-3.608 5.816-8.53 10.34-15.327 12.987-.449.175-.786.555-.908 1.021-1.762 6.784-6.357 10.736-12.847 12.793-.484.154-.858.542-.993 1.032-1.836 6.662-5.733 11.264-12.718 12.778-.549.119-.986.536-1.131 1.079-1.622 6.07-5.247 10.137-10.273 12.801 3.847-6.119 5.296-10.602 6.458-14.673 1.781-6.238 2.847-11.458 11.707-20.59.577-.595.563-1.545-.032-2.121-.594-.577-1.544-.563-2.121.032-7.869 8.11-9.957 13.332-11.537 18.692-1.496 5.071-2.485 10.287-7.954 18.517-.019.029-.038.059-.055.09-.536.945-.406 2.127.322 2.933.729.806 1.891 1.055 2.886.618.004-.002.008-.004.012-.006 6.407-2.889 11.076-7.515 13.238-14.649 7.373-1.891 11.708-6.82 13.866-13.928 6.885-2.374 11.773-6.745 13.872-13.906 7.803-3.23 13.305-8.761 17.221-15.862 0-.001.001-.003.002-.004.529-.965.359-2.164-.418-2.945-.776-.781-1.974-.957-2.943-.433-.035.02-.069.04-.103.062-7.612 4.949-12.617 6.047-17.391 7.417-5.06 1.452-9.882 3.177-16.989 9.532-.617.552-.67 1.501-.118 2.118s1.501.67 2.118.118c6.619-5.918 11.105-7.532 15.817-8.884 4.598-1.32 9.394-2.416 16.339-6.619z"/><path d="m62.798 65.965c.78-2.57 1.281-5.267.687-8.502-.15-.814-.932-1.354-1.747-1.204-.814.15-1.353.932-1.204 1.746.496 2.698.044 4.945-.607 7.088-.241.792.207 1.631.999 1.871.793.241 1.631-.207 1.872-.999z"/><path d="m76.46 52.841c.51-1.679.9-3.414.944-5.319.019-.827-.638-1.515-1.466-1.534-.827-.018-1.515.638-1.533 1.466-.037 1.618-.382 3.089-.816 4.515-.24.792.208 1.63 1 1.871s1.63-.207 1.871-.999z"/></g></g></svg>