<svg height="512" viewBox="0 0 128 128" width="512" xmlns="http://www.w3.org/2000/svg"><g><g><path d="m58.942 13.755h-12v-1.255a6 6 0 0 1 6-6 6 6 0 0 1 6 6z" fill="#537980"/><path d="m43.942 15.321h18v12.564h-18z" fill="#537980"/><path d="m43.942 27.039h18a3 3 0 0 1 3 3v8.9a0 0 0 0 1 0 0h-24a0 0 0 0 1 0 0v-8.9a3 3 0 0 1 3-3z" fill="#385b60"/><path d="m35.442 107.919h35a0 0 0 0 1 0 0v10.581a3 3 0 0 1 -3 3h-29a3 3 0 0 1 -3-3v-10.581a0 0 0 0 1 0 0z" fill="#537980"/><path d="m101.027 69.006a3 3 0 0 1 -3.211-2.772l-1.977-26.917a20.93 20.93 0 0 0 -6.734-13.917l-6.641-6.1a3 3 0 0 0 -2.03-.791h-42.492a3 3 0 0 1 -3-3 3 3 0 0 1 3-3h42.491a9 9 0 0 1 6.091 2.374l6.642 6.1a27 27 0 0 1 8.656 17.9l1.978 26.911a3 3 0 0 1 -2.772 3.212z" fill="#ededf9"/><rect fill="#95d70b" height="82.51" rx="6" width="45" x="30.442" y="32.99"/><path d="m30.442 65.245h45v18h-45z" fill="#90c202"/></g><g fill="#102a3f"><path d="m103.567 38.749a28.643 28.643 0 0 0 -9.217-19.06l-6.642-6.1a10.713 10.713 0 0 0 -7.274-2.836h-19.948a7.753 7.753 0 0 0 -7.546-6 7.758 7.758 0 0 0 -7.543 6h-2.336a10.749 10.749 0 1 0 -.871 10.964v3.92a4.75 4.75 0 0 0 -3 4.406v1.2h-2.748a7.759 7.759 0 0 0 -7.75 7.75v9.5a1.75 1.75 0 0 0 3.5 0v-9.5a4.255 4.255 0 0 1 4.25-4.25h33a4.255 4.255 0 0 1 4.25 4.25v24.507h-41.5v-6.07a1.75 1.75 0 0 0 -3.5 0v52.07a7.756 7.756 0 0 0 5 7.236v1.764a4.756 4.756 0 0 0 4.75 4.75h29a4.755 4.755 0 0 0 4.75-4.75v-1.763a7.755 7.755 0 0 0 5-7.237v-70.51a7.759 7.759 0 0 0 -7.75-7.75h-2.752v-1.2a4.749 4.749 0 0 0 -3-4.406v-5.384h16.744a1.245 1.245 0 0 1 .845.329l6.642 6.105a19.189 19.189 0 0 1 6.173 12.761l.362 4.934a1.75 1.75 0 0 0 3.49-.256l-.362-4.933a22.673 22.673 0 0 0 -7.3-15.084l-6.637-6.106a4.731 4.731 0 0 0 -3.213-1.252h-42.492a1.25 1.25 0 0 1 0-2.5h42.492a7.227 7.227 0 0 1 4.906 1.913l6.641 6.1a25.167 25.167 0 0 1 8.1 16.739l1.978 26.917a1.25 1.25 0 0 1 -2.494.184l-.6-8.142a1.768 1.768 0 0 0 -1.873-1.617 1.748 1.748 0 0 0 -1.617 1.873l.6 8.142a4.755 4.755 0 0 0 4.734 4.4c.116 0 .233 0 .35-.013a4.755 4.755 0 0 0 4.39-5.085zm-36.127 81h-29a1.251 1.251 0 0 1 -1.25-1.25v-1.25h31.5v1.25a1.25 1.25 0 0 1 -1.25 1.251zm2-6h-33a4.255 4.255 0 0 1 -4.25-4.25v-24.499h5.026a1.75 1.75 0 0 0 0-3.5h-5.024v-14.5h41.5v14.5h-27.909a1.75 1.75 0 0 0 0 3.5h27.909v24.5a4.254 4.254 0 0 1 -4.25 4.25zm-16.5-105.499a4.234 4.234 0 0 1 3.864 2.5h-7.726a4.247 4.247 0 0 1 3.862-2.5zm-10.25 22.99v-1.2a1.252 1.252 0 0 1 1.25-1.25h18a1.251 1.251 0 0 1 1.25 1.25v1.2zm17.5-5.95h-14.5v-5.04h14.5zm-27-9.79a4.756 4.756 0 0 0 4.75 4.75h.935a7.25 7.25 0 1 1 0-9.5h-.935a4.756 4.756 0 0 0 -4.748 4.75z"/><path d="m96.842 54.745h.13a1.749 1.749 0 0 0 1.617-1.873l-.207-2.815a1.77 1.77 0 0 0 -1.873-1.617 1.748 1.748 0 0 0 -1.617 1.873l.207 2.815a1.749 1.749 0 0 0 1.743 1.617z"/><path d="m69.442 93.62a1.75 1.75 0 0 0 -1.75 1.75v6a1.75 1.75 0 0 0 3.5 0v-6a1.749 1.749 0 0 0 -1.75-1.75z"/></g></g></svg>