<svg id="Guitar" enable-background="new 0 0 64 64" viewBox="0 0 64 64" xmlns="http://www.w3.org/2000/svg"><g><g><path d="m39.9 47.4c2.2-1.5 4.1-3.7 5.2-6.7 1.4-3.6.9-7.8-1.2-11.3-6.3-10.6-18.1-14.9-25.7-7.3-.6.6-1.2 1.3-1.6 2-.6.9-1.5 1.5-2.5 1.7-3.1.7-6.1 2.3-8.5 4.7-7.3 7.3-5.8 17.8 2.1 25.7s18.5 9.4 25.7 2.1c2.4-2.4 4-5.4 4.7-8.5.3-.9.9-1.8 1.8-2.4z" fill="#c46561"/><path d="m33.4 58.4c-7.3 7.3-17.8 5.8-25.7-2.1-1.7-1.7-3.1-3.5-4.2-5.4 11.9 8.5 36.5-1.7 39.4-23 .3.5.7 1 1 1.5 2.1 3.5 2.6 7.7 1.2 11.3-1.2 3-3 5.2-5.2 6.7-.8.6-1.5 1.4-1.7 2.5-.8 3.1-2.4 6.1-4.8 8.5z" opacity=".1"/><path d="m22.4 64c-.6 0-1.1 0-1.7-.1-4.7-.5-9.6-3-13.6-7-8.6-8.6-9.4-19.7-2.1-27 2.4-2.4 5.5-4.2 8.9-5 .8-.2 1.5-.7 2-1.4.5-.8 1.1-1.5 1.7-2.1 3.2-3.2 7.1-4.6 11.5-4 5.9.7 11.8 5 15.6 11.4 2.3 3.8 2.7 8.3 1.2 12.1-1.2 2.9-3 5.3-5.6 7.1-.7.5-1.2 1.2-1.4 1.9-.8 3.4-2.5 6.5-5 8.9-3.1 3.5-7.1 5.2-11.5 5.2zm4.9-44.8c-3.2 0-6.1 1.2-8.4 3.6-.6.6-1.1 1.2-1.5 1.8-.7 1.1-1.8 1.8-3 2.1-3.1.7-5.9 2.3-8.1 4.5-6.7 6.7-5.8 16.5 2.1 24.5 3.8 3.8 8.2 6.1 12.6 6.5 4.5.4 8.6-1.1 11.9-4.4 2.2-2.2 3.8-5 4.5-8.1.3-1.2 1-2.3 2.1-3 2.2-1.6 3.9-3.7 4.9-6.3 1.3-3.3.9-7.2-1.1-10.6-3.5-6-8.9-9.9-14.3-10.6-.7 0-1.2 0-1.7 0z" fill="#101016"/></g><g><path d="m20.8 20.2h38.1v7.8h-38.1z" fill="#ffe691" transform="matrix(.707 -.707 .707 .707 -5.362 35.255)"/><g fill="#101016"><path d="m29.2 41.2c-.2 0-.5-.1-.6-.3l-5.6-5.5c-.3-.3-.3-.9 0-1.3l27-26.8c.3-.3.9-.3 1.3 0l5.5 5.5c.3.3.3.9 0 1.3l-27 26.8c-.2.2-.4.3-.6.3zm-4.3-6.4 4.2 4.2 25.7-25.7-4.2-4.2z"/><path d="m48.8 21.5c-.2 0-.5-.1-.6-.3l-5.5-5.5c-.3-.3-.3-.9 0-1.3.3-.3.9-.3 1.3 0l5.5 5.5c.3.3.3.9 0 1.3-.2.3-.5.3-.7.3z"/><path d="m45.6 24.8c-.2 0-.5-.1-.6-.3l-5.5-5.5c-.3-.3-.3-.9 0-1.3.3-.3.9-.3 1.3 0l5.5 5.5c.3.3.3.9 0 1.3-.3.2-.5.3-.7.3z"/><path d="m42.3 28.1c-.2 0-.5-.1-.6-.3l-5.5-5.5c-.3-.3-.3-.9 0-1.3.3-.3.9-.3 1.3 0l5.5 5.5c.3.3.3.9 0 1.3-.3.2-.5.3-.7.3z"/><path d="m39 31.3c-.2 0-.5-.1-.6-.3l-5.5-5.5c-.3-.3-.3-.9 0-1.3.3-.3.9-.3 1.3 0l5.5 5.5c.3.3.3.9 0 1.3-.2.2-.4.3-.7.3z"/><path d="m35.8 34.6c-.2 0-.5-.1-.6-.3l-5.5-5.5c-.3-.3-.3-.9 0-1.3.3-.3.9-.3 1.3 0l5.5 5.5c.3.3.3.9 0 1.3-.3.2-.5.3-.7.3z"/></g></g><g><path d="m50.1 3 3.4 3.4 1.8-1.8-3.4-3.4c-.5-.5-1.3-.5-1.8 0-.5.5-.5 1.3 0 1.8z" fill="#9b3d3d"/><path d="m53.5 7.3c-.2 0-.5-.1-.6-.3l-3.4-3.4c-.4-.4-.6-1-.6-1.5s.2-1.1.6-1.5c.8-.8 2.2-.8 3.1 0l3.3 3.4c.2.2.3.4.3.6s-.1.5-.3.6l-1.8 1.8c-.1.2-.4.3-.6.3zm-2.5-5.5c-.1 0-.2 0-.3.1s-.1.2-.1.3 0 .2.1.3l2.7 2.7.6-.6-2.7-2.7c-.1-.1-.2-.1-.3-.1z" fill="#101016"/></g><g><path d="m60.9 13.8-3.4-3.4 1.8-1.8 3.4 3.4c.5.5.5 1.3 0 1.8-.5.5-1.3.5-1.8 0z" fill="#9b3d3d"/><path d="m61.8 15.1c-.6 0-1.1-.2-1.5-.6l-3.4-3.4c-.3-.3-.3-.9 0-1.3l1.8-1.8c.3-.3.9-.3 1.3 0l3.4 3.4c.8.8.8 2.2 0 3.1-.5.4-1 .6-1.6.6zm-3-4.6 2.7 2.7c.1.1.4.1.5 0s.1-.4 0-.5l-2.7-2.7z" fill="#101016"/></g><g><path d="m46.3 6.9 3.4 3.4 1.8-1.8-3.4-3.4c-.5-.5-1.3-.5-1.8 0-.5.5-.5 1.3 0 1.8z" fill="#9b3d3d"/><path d="m49.7 11.1c-.2 0-.5-.1-.6-.3l-3.4-3.4c-.8-.8-.8-2.2 0-3.1.8-.8 2.2-.8 3.1 0l3.4 3.4c.2.2.3.4.3.6s-.1.5-.3.6l-1.8 1.8c-.3.3-.5.4-.7.4zm-2.8-4.9 2.8 2.8.5-.5-2.7-2.7c-.2-.2-.3-.2-.5 0-.2 0-.2.3-.1.4z" fill="#101016"/></g><g><path d="m57.1 17.7-3.4-3.4 1.8-1.8 3.4 3.4c.5.5.5 1.3 0 1.8-.5.5-1.3.5-1.8 0z" fill="#9b3d3d"/><path d="m58 18.9c-.6 0-1.1-.2-1.5-.6l-3.4-3.4c-.3-.3-.3-.9 0-1.3l1.8-1.8c.3-.3.9-.3 1.3 0l3.4 3.4c.4.4.6.9.6 1.5s-.2 1.1-.6 1.5c-.5.5-1 .7-1.6.7zm-.3-1.9c.1.1.4.1.5 0s.1-.2.1-.3 0-.2-.1-.3l-2.7-2.7-.5.6z" fill="#101016"/></g><g><path d="m53 2.7-4.5 4.5c-.5.5-1 1.2-1.3 1.9l-.7 1.6c-.3.7-.1 1.5.4 2.1l4.2 4.2c.6.6 1.4.7 2.1.4l1.6-.7c.7-.3 1.3-.7 1.9-1.3l4.5-4.5c1-1 1-2.7-.1-3.8l-4.4-4.4c-1-1-2.6-1-3.7 0z" fill="#c46561"/><g fill="#101016"><path d="m52.7 18.4c-.7 0-1.5-.3-2-.8l-4.2-4.2c-.8-.8-1.1-2-.6-3.1l.7-1.6c.3-.8.8-1.5 1.5-2.1l4.3-4.6c.7-.7 1.6-1 2.5-1s1.8.4 2.5 1.1l4.4 4.4c.7.7 1.1 1.6 1.1 2.5 0 1-.3 1.9-1 2.5l-4.5 4.5c-.6.6-1.3 1.1-2.1 1.5l-1.6.7c-.3.1-.7.2-1 .2zm1-15.1-4.5 4.5c-.5.5-.8 1-1.1 1.6l-.7 1.6c-.2.4-.1.8.3 1.1l4.2 4.2c.3.3.8.4 1.1.3l1.6-.7c.6-.3 1.1-.6 1.6-1.1l4.5-4.5c.3-.3.5-.7.5-1.2s-.2-1-.6-1.3l-4.4-4.4c-.4-.4-.8-.6-1.3-.6-.5.1-.9.2-1.2.5z"/><path d="m50.4 11.8c-.2 0-.5-.1-.6-.3-.3-.3-.3-.9 0-1.3l4.7-4.7c.3-.3.9-.3 1.3 0 .3.3.3.9 0 1.3l-4.8 4.7c-.2.2-.4.3-.6.3z"/><path d="m53.1 14.5c-.2 0-.5-.1-.6-.3-.3-.3-.3-.9 0-1.3l4.7-4.7c.3-.3.9-.3 1.3 0 .3.3.3.9 0 1.3l-4.7 4.7c-.3.2-.5.3-.7.3z"/></g></g><g><path d="m16 53.9-5.9-5.9c-.9-.9-.9-2.5 0-3.4.9-.9 2.5-.9 3.4 0l5.9 5.9c.9.9.9 2.5 0 3.4-.9.9-2.4.9-3.4 0z" fill="#ffe691"/><path d="m17.7 55.5c-.8 0-1.7-.3-2.3-1l-5.9-5.9c-.6-.6-1-1.5-1-2.3 0-.9.3-1.7 1-2.3 1.2-1.2 3.4-1.2 4.7 0l5.9 5.9c1.3 1.3 1.3 3.4 0 4.7-.7.6-1.5.9-2.4.9zm-1-2.2c.6.6 1.6.6 2.1 0 .3-.3.4-.7.4-1.1s-.2-.8-.4-1.1l-5.9-5.9c-.6-.6-1.6-.6-2.1 0-.6.6-.6 1.6 0 2.1z" fill="#101016"/></g><g><circle cx="24.6" cy="39.4" fill="#3b3b44" r="7.6"/><path d="m24.6 47.9c-2.3 0-4.4-.9-6-2.5s-2.5-3.7-2.5-6 .9-4.4 2.5-6c3.3-3.3 8.7-3.3 12 0 1.6 1.6 2.5 3.7 2.5 6s-.9 4.4-2.5 6-3.8 2.5-6 2.5zm0-15.2c-1.7 0-3.4.7-4.8 2-1.3 1.3-2 3-2 4.8s.7 3.5 2 4.8c2.5 2.5 7 2.5 9.5 0 1.3-1.3 2-3 2-4.8s-.7-3.5-2-4.8c-1.3-1.4-3-2-4.7-2z" fill="#101016"/></g></g></svg>