<svg id="Layer_1" viewBox="0 0 1000 1000" xmlns="http://www.w3.org/2000/svg" data-name="Layer 1"><path d="m518.8 506.9a97.27 97.27 0 0 0 -26.15 3.55 115.44 115.44 0 0 0 -230.74 0 97.47 97.47 0 1 0 -26.15 191.38h283a97.47 97.47 0 1 0 0-194.93zm0 179.93h-283a82.47 82.47 0 1 1 31-158.91 7.5 7.5 0 0 0 10.31-7.4c-.13-2.14-.19-4.14-.19-6.12a100.44 100.44 0 0 1 200.87 0c0 2-.06 4-.19 6.12a7.5 7.5 0 0 0 10.3 7.4 82.47 82.47 0 1 1 31 158.91z"/><path d="m601.27 604.37a82.55 82.55 0 0 1 -82.47 82.46h-283a82.47 82.47 0 1 1 31-158.91 7.5 7.5 0 0 0 10.31-7.4c-.13-2.14-.19-4.14-.19-6.12a100.44 100.44 0 0 1 200.87 0c0 2-.06 4-.19 6.12a7.5 7.5 0 0 0 10.3 7.4 82.5 82.5 0 0 1 113.44 76.45z" fill="#bbdefb"/><path d="m819.24 192.26a88 88 0 0 0 -22.75 3 104.39 104.39 0 0 0 -208.59 0 88.27 88.27 0 1 0 -22.75 173.56h254.09a88.26 88.26 0 0 0 0-176.52zm0 161.52h-254.09a73.26 73.26 0 1 1 27.52-141.17 7.5 7.5 0 0 0 10.3-7.4c-.11-1.92-.17-3.7-.17-5.45a89.4 89.4 0 0 1 178.79 0c0 1.75-.06 3.53-.17 5.45a7.5 7.5 0 0 0 10.3 7.4 73.27 73.27 0 1 1 27.52 141.17z"/><path d="m892.5 280.52a73.34 73.34 0 0 1 -73.26 73.26h-254.09a73.26 73.26 0 1 1 27.52-141.17 7.5 7.5 0 0 0 10.3-7.4c-.11-1.92-.17-3.7-.17-5.45a89.4 89.4 0 0 1 178.79 0c0 1.75-.06 3.53-.17 5.45a7.5 7.5 0 0 0 10.3 7.4 73.29 73.29 0 0 1 100.78 67.91z" fill="#bbdefb"/><path d="m340.75 186.14a65.32 65.32 0 0 0 -14.4 1.59 77.17 77.17 0 0 0 -153.88 0 65.57 65.57 0 1 0 -14.4 129.55h182.68a65.57 65.57 0 0 0 0-131.14zm0 116.14h-182.68a50.57 50.57 0 1 1 19-97.45 7.5 7.5 0 0 0 10.3-7.4c-.08-1.33-.12-2.57-.12-3.79a62.17 62.17 0 0 1 124.34 0c0 1.22 0 2.46-.12 3.79a7.5 7.5 0 0 0 10.3 7.4 50.57 50.57 0 1 1 19 97.45z"/><path d="m391.32 251.71a50.63 50.63 0 0 1 -50.57 50.57h-182.68a50.57 50.57 0 1 1 19-97.45 7.5 7.5 0 0 0 10.3-7.4c-.08-1.33-.12-2.57-.12-3.79a62.17 62.17 0 0 1 124.34 0c0 1.22 0 2.46-.12 3.79a7.5 7.5 0 0 0 10.3 7.4 50.59 50.59 0 0 1 69.56 46.88z" fill="#bbdefb"/><path d="m588.73 390.28a7.52 7.52 0 0 0 -6.43-3.63 7.51 7.51 0 0 0 -6.43 3.63c-3.94 6.55-23.57 39.93-23.57 53.74a30 30 0 0 0 60 0c-.01-13.8-19.64-47.19-23.57-53.74zm-6.43 68.72a15 15 0 0 1 -15-15c0-5.06 7-20.2 15-34.81 8 14.6 15 29.75 15 34.81a15 15 0 0 1 -15 15z"/><path d="m597.29 444a15 15 0 0 1 -30 0c0-5.06 7-20.2 15-34.81 8.03 14.62 15 29.81 15 34.81z" fill="#81d4fa"/><path d="m698.62 390.28a7.5 7.5 0 0 0 -12.85 0c-3.94 6.55-23.57 39.93-23.57 53.74a30 30 0 0 0 60 0c-.01-13.81-19.64-47.19-23.58-53.74zm-6.42 68.72a15 15 0 0 1 -15-15c0-5.06 7-20.2 15-34.81 8 14.6 15 29.75 15 34.81a15 15 0 0 1 -15 15z"/><path d="m707.19 444a15 15 0 0 1 -30 0c0-5.06 7-20.2 15-34.81 8.03 14.62 15 29.81 15 34.81z" fill="#81d4fa"/><path d="m808.52 390.28a7.51 7.51 0 0 0 -12.86 0c-3.93 6.55-23.56 39.94-23.56 53.74a30 30 0 0 0 60 0c-.01-13.81-19.64-47.19-23.58-53.74zm-6.43 68.72a15 15 0 0 1 -15-15c0-5.06 7-20.2 15-34.81 8 14.6 15 29.75 15 34.81a15 15 0 0 1 -15 15z"/><path d="m817.09 444a15 15 0 0 1 -30 0c0-5.06 7-20.2 15-34.81 8.02 14.62 15 29.81 15 34.81z" fill="#81d4fa"/><path d="m159.68 338.11a7.5 7.5 0 0 0 -12.86 0c-3.94 6.55-23.57 39.93-23.57 53.73a30 30 0 1 0 60 0c-.01-13.84-19.64-47.18-23.57-53.73zm-6.43 68.73a15 15 0 0 1 -15-15c0-5 7-20.19 15-34.8 8 14.6 15 29.74 15 34.8a15 15 0 0 1 -15 15z"/><path d="m168.24 391.84a15 15 0 1 1 -30 0c0-5 7-20.19 15-34.8 8.03 14.6 15 29.74 15 34.8z" fill="#81d4fa"/><path d="m269.57 338.11a7.5 7.5 0 0 0 -12.86 0c-3.93 6.55-23.56 39.93-23.56 53.73a30 30 0 1 0 60 0c-.01-13.84-19.64-47.18-23.58-53.73zm-6.43 68.73a15 15 0 0 1 -15-15c0-5 7-20.19 15-34.8 8 14.6 15 29.74 15 34.8a15 15 0 0 1 -15 15z"/><path d="m278.14 391.84a15 15 0 1 1 -30 0c0-5 7-20.19 15-34.8 8.02 14.6 15 29.74 15 34.8z" fill="#81d4fa"/><path d="m308.25 767.18-17.33-30a7.49 7.49 0 0 0 -6.5-3.75h-34.67a7.47 7.47 0 0 0 -6.49 3.75l-17.34 30a7.5 7.5 0 0 0 0 7.5l17.34 30a7.49 7.49 0 0 0 6.49 3.75h34.67a7.51 7.51 0 0 0 6.5-3.75l17.33-30a7.5 7.5 0 0 0 0-7.5zm-28.16 26.27h-26l-13-22.52 13-22.52h26l13 22.52z"/><path d="m293.1 770.93-13.01 22.52h-26.01l-13-22.52 13-22.52h26.01z" fill="#26c6da"/><path d="m418.45 767.18-17.34-30a7.47 7.47 0 0 0 -6.49-3.75h-34.62a7.49 7.49 0 0 0 -6.5 3.75l-17.33 30a7.5 7.5 0 0 0 0 7.5l17.33 30a7.51 7.51 0 0 0 6.5 3.75h34.67a7.49 7.49 0 0 0 6.49-3.75l17.34-30a7.5 7.5 0 0 0 -.05-7.5zm-28.16 26.27h-26l-13-22.52 13-22.52h26l13 22.52z"/><path d="m403.29 770.93-13 22.52h-26.01l-13-22.52 13-22.52h26.01z" fill="#26c6da"/><path d="m528.64 767.18-17.33-30a7.49 7.49 0 0 0 -6.5-3.75h-34.67a7.47 7.47 0 0 0 -6.49 3.75l-17.33 30a7.5 7.5 0 0 0 0 7.5l17.33 30a7.49 7.49 0 0 0 6.49 3.75h34.67a7.51 7.51 0 0 0 6.5-3.75l17.33-30a7.5 7.5 0 0 0 0-7.5zm-28.16 26.27h-26l-13-22.52 13-22.52h26l13 22.52z"/><path d="m513.49 770.93-13.01 22.52h-26.01l-13-22.52 13-22.52h26.01z" fill="#26c6da"/><path d="m363.35 863.36-17.33-30a7.51 7.51 0 0 0 -6.5-3.75h-34.67a7.49 7.49 0 0 0 -6.49 3.75l-17.34 30a7.5 7.5 0 0 0 0 7.5l17.34 30a7.49 7.49 0 0 0 6.49 3.75h34.67a7.51 7.51 0 0 0 6.5-3.75l17.33-30a7.5 7.5 0 0 0 0-7.5zm-28.16 26.27h-26l-13-22.52 13-22.52h26l13 22.52z"/><path d="m348.19 867.11-13 22.52h-26.01l-13-22.52 13-22.52h26.01z" fill="#26c6da"/><path d="m473.55 863.36-17.34-30a7.49 7.49 0 0 0 -6.49-3.75h-34.67a7.51 7.51 0 0 0 -6.5 3.75l-17.33 30a7.5 7.5 0 0 0 0 7.5l17.33 30a7.51 7.51 0 0 0 6.5 3.75h34.67a7.49 7.49 0 0 0 6.49-3.75l17.34-30a7.5 7.5 0 0 0 0-7.5zm-28.16 26.27h-26l-13-22.52 13-22.52h26l13 22.52z"/><path d="m458.39 867.11-13 22.52h-26.01l-13.01-22.52 13.01-22.52h26.01z" fill="#26c6da"/></svg>