<svg id="Fill" viewBox="0 0 64 64" xmlns="http://www.w3.org/2000/svg"><g><path d="m38.944 34.97h13.67s-4.1 12.55-1.36 20.01h-38.5c2.73-7.46-1.37-20.01-1.37-20.01h13.67c-3.9 5.42.21 13.36 6.95 13.26 6.73.1 10.84-7.83 6.94-13.26z" fill="#cf8272"/><path d="m36.204 38.64c1.4 3.35-1.79 7.12-5.51 6.03-2.58-.61-3.97-4.01-2.82-6.21l.69-3.14c1.67-7.57 2.23-20.26 11.35-26.3 0 0-7.11 13.47-4.74 26.49.2 1.08.61 2.11 1.03 3.13z" fill="#1c221f"/></g><g><path d="m30.413 45.63c.522.152 1.052.228 1.575.228 1.547 0 3.037-.653 4.113-1.856 1.441-1.61 1.834-3.812 1.027-5.742-.426-1.034-.793-1.969-.971-2.928-2.278-12.517 4.571-25.713 4.641-25.845.213-.404.125-.901-.214-1.208-.34-.307-.843-.346-1.223-.093-7.919 5.244-9.686 15.325-10.975 22.686-.267 1.522-.519 2.96-.8 4.234l-.664 3.019c-.638 1.327-.609 3.007.085 4.525.708 1.551 1.968 2.642 3.404 2.98zm-1.652-6.707c.041-.078.071-.162.09-.248l.69-3.139c.29-1.317.546-2.775.816-4.319 1.069-6.104 2.354-13.438 6.822-18.496-1.977 5.075-4.61 14.058-2.988 22.971.212 1.149.636 2.23 1.09 3.334.509 1.217.252 2.611-.67 3.642-.936 1.047-2.295 1.436-3.687 1.03-.883-.209-1.647-.894-2.097-1.879-.455-.995-.48-2.104-.067-2.896z"/><path d="m53.424 34.383c-.188-.26-.489-.413-.81-.413h-13.67c-.375 0-.719.21-.89.544-.171.333-.142.734.077 1.039 1.587 2.209 1.755 5.146.439 7.664-1.316 2.521-3.719 4.015-6.471 4.015h-.222c-2.729 0-5.135-1.498-6.452-4.023-1.314-2.519-1.146-5.451.439-7.654.22-.305.25-.706.078-1.04-.171-.334-.515-.544-.89-.544h-13.667c-.32 0-.621.153-.81.413-.188.259-.24.593-.141.897.039.122 3.959 12.311 1.38 19.356-.112.307-.067.648.12.917.187.268.493.427.819.427h38.501c.327 0 .633-.159.82-.428.187-.268.231-.61.118-.917-2.586-7.045 1.333-19.233 1.372-19.355.1-.305.047-.639-.141-.897zm-3.523 19.598h-35.794c1.596-6.269-.462-14.771-1.378-18.011h10.603c-1.138 2.548-1.047 5.539.322 8.163 1.646 3.155 4.79 5.099 8.202 5.099h.134c3.516.062 6.688-1.898 8.355-5.088 1.371-2.625 1.462-5.62.322-8.173h10.604c-.916 3.239-2.972 11.742-1.37 18.011z"/></g></svg>