<svg id="Fill" viewBox="0 0 64 64" xmlns="http://www.w3.org/2000/svg"><g><path d="m46.697 27.14c8.36 6.65 4 15.58-2.64 16.36 0 0-.07.01-.2.03-2.86.25-6.13-.99-8.97-4.57 0 0-.33-.43-.89-1.23-.44-.63-1.03-1.49-1.72-2.54-1.59-2.46-3.71-5.98-5.74-10.12l6.28-6.28c8.13 3.99 13.88 8.35 13.88 8.35zm-1.39 10.42c3.58-3.76-1.8-9.15-5.57-5.57-3.58 3.77 1.81 9.15 5.57 5.57z" fill="#f15b5b"/><path d="m39.737 31.99c3.77-3.58 9.15 1.81 5.57 5.57-3.76 3.58-9.15-1.8-5.57-5.57z" fill="#333f48"/><path d="m29.887 49.82c-1.48.83-3.39 1.63-4.23.79l-1.21-1.21-1.29-1.3 1.61-3.25c.72-1.45 2.01-2.54 3.56-3.01l2.34-.71 1.09-.33c1.39-.42 2.6-1.66 2.24-3.07.56.8.89 1.23.89 1.23 2.84 3.58 6.11 4.82 8.97 4.57-1.1.14-6.69 1.06-11.99 5.01 0 0-.87.65-1.98 1.28z" fill="#f15b5b"/><path d="m29.757 13.18 3.06 5.61-6.28 6.28-5.61-3.06c1.02-4.15 4.72-7.82 8.83-8.83z" fill="#333f48"/></g><g><path d="m47.301 26.343c-.235-.178-5.789-4.361-13.756-8.307l-2.91-5.335c-.217-.398-.676-.6-1.116-.492-4.521 1.11-8.452 5.042-9.562 9.562-.108.441.094.899.492 1.117l5.339 2.912c1.536 3.108 3.291 6.21 5.219 9.246l-2.142 2.143c-.944.959-.961 2.485-.071 3.465l-.756.229c-1.809.548-3.327 1.833-4.167 3.523l-1.61 3.25c-.189.383-.114.845.187 1.148l.59.592-.76.761c-.479.472-.746 1.102-.748 1.773-.003.677.26 1.314.742 1.797l4.65 4.65c.195.195.451.293.707.293s.512-.098.707-.293c.391-.391.391-1.023 0-1.414l-4.65-4.65c-.102-.102-.157-.235-.156-.374 0-.134.054-.261.156-.362l.764-.764.502.504c.435.435.997.652 1.694.652.975 0 2.213-.426 3.736-1.28 1.152-.653 2.048-1.32 2.084-1.348 5.273-3.93 10.896-4.741 11.545-4.824l.186-.028s.005-.003.008-.003c3.628-.439 6.738-3.1 7.745-6.634 1.153-4.049-.534-8.239-4.646-11.51zm-18.037-11.979 2.317 4.248-5.221 5.222-4.249-2.318c1.078-3.226 3.927-6.074 7.153-7.152zm1.02 24.969c-.2-.201-.198-.533 0-.735l1.836-1.837c.347.516.656.967.921 1.347.091.762-.695 1.47-1.575 1.736l-.516.157-.667-.667zm-3.92 10.57-1.993-2 1.292-2.609c.595-1.198 1.672-2.108 2.955-2.498l3.429-1.04c.965-.291 1.871-.915 2.435-1.739 1.405 1.656 2.975 2.881 4.64 3.636-1.989.67-4.395 1.719-6.817 3.35l-2.901-2.901c-.391-.391-1.023-.391-1.414 0s-.391 1.024 0 1.414l2.656 2.656c-.174.117-.377.249-.603.389l-1.31-1.309c-.391-.391-1.023-.391-1.414 0s-.391 1.024 0 1.414l.877.877c-1.233.528-1.755.437-1.833.359zm23.66-12.597c-.791 2.776-3.235 4.867-6.083 5.201-.005 0-.01.002-.015.003-.002 0-.004 0-.006 0l-.164.025c-2.872.242-5.744-1.243-8.075-4.182-.008-.01-.327-.427-.864-1.195-.437-.624-1.021-1.476-1.7-2.51-1.983-3.069-3.787-6.221-5.364-9.377l5.264-5.265c7.606 3.81 13.021 7.89 13.059 7.918 3.431 2.729 4.87 6.149 3.949 9.383z"/><path d="m39.012 31.302c-2.204 2.32-1.643 5.246.051 6.938.911.91 2.18 1.492 3.517 1.492 1.148 0 2.348-.429 3.417-1.447.012-.011.023-.023.035-.035 2.204-2.315 1.646-5.24-.045-6.933-1.692-1.694-4.619-2.255-6.975-.015zm5.588 5.551c-1.457 1.371-3.119.975-4.123-.028-1.01-1.008-1.406-2.681-.052-4.109.671-.637 1.386-.899 2.061-.899.798 0 1.539.367 2.086.914 1.003 1.004 1.398 2.667.028 4.123z"/><path d="m18.482 7.312 1.69.32c.605.114 1.088.6 1.203 1.22.279 1.422 1.378 2.521 2.805 2.8l1.69.32c.063.012.126.018.188.018.471 0 .891-.334.981-.814.103-.542-.254-1.066-.796-1.168l-1.685-.319c-.62-.121-1.099-.601-1.219-1.211-.263-1.416-1.388-2.545-2.798-2.81l-1.689-.32c-.544-.107-1.065.253-1.168.796-.103.542.254 1.066.797 1.168z"/><path d="m15.501 10.292 1.692.32c.613.114 1.089.593 1.21 1.211.266 1.423 1.36 2.524 2.797 2.809l1.69.32c.063.012.126.018.188.018.471 0 .891-.334.981-.814.103-.542-.254-1.066-.796-1.168l-1.683-.319c-.621-.123-1.097-.599-1.213-1.221-.282-1.437-1.384-2.536-2.806-2.8l-1.69-.32c-.538-.104-1.064.254-1.168.796-.103.543.254 1.066.797 1.168z"/><path d="m21.078 17.143c.106-.542-.247-1.067-.789-1.174l-1.689-.332c-.609-.114-1.097-.597-1.212-1.209-.28-1.437-1.383-2.536-2.806-2.801l-1.689-.32c-.544-.107-1.065.253-1.168.796-.103.542.254 1.066.797 1.168l1.692.32c.613.114 1.089.593 1.21 1.213.266 1.41 1.396 2.534 2.801 2.796l1.68.33c.064.013.13.019.193.019.469 0 .887-.331.98-.807z"/></g></svg>