<svg id="Layer_1-2" viewBox="0 0 64 64" xmlns="http://www.w3.org/2000/svg"><g id="Hair_Dryer"><path d="m18 36v-10h8v8c0 1.10253906-.89697266 2-2 2z" fill="#e2614b"/><path d="m15 51c-2.20556641 0-4-1.79394531-4-4v-.41894531c0-.38671875-.03417969-.77539062-.10107422-1.15429688l-2.89892578-16.42675781h12v2.37304688c0 2.40820312-.42871094 4.77050781-1.2734375 7.02246094l-.79882812 2.13085938c-.58105469 1.54882812-.38037109 3.29589844.53808594 4.671875.34960938.52441406.53417969 1.13476562.53417969 1.76464844 0 2.22558594-1.79443359 4.03710938-4 4.03710938z" fill="#f58569"/><path d="m43.24023438 26h-5.34863281l-21.63330078 4.73144531c-.83154297.17773438-1.69042969.26855469-2.54833984.26855469h-.70996094c-6.61669922 0-12-5.3828125-12-12 0-3.21191406 1.24658203-6.2265625 3.50976562-8.49023438 2.26367188-2.26367188 5.27929688-3.50976562 8.49023438-3.50976562h.70996094c.85839844 0 1.71582031.09082031 2.54882812.26953125l21.6328125 4.73046875h5.34863281l11.76660156-6.00390625-.00683594 26.00390625z" fill="#ffefde"/><circle cx="14" cy="19" fill="#f58569" r="7"/><path d="m38 12h5v14h-5z" fill="#f58569"/><g fill="#433d4c"><path d="m55.52539062 5.14941406c-.29492188-.18359375-.66308594-.19824219-.97265625-.04394531l-11.7890625 5.89453125h-4.65411377l-21.63787842-4.70410156c-.90576172-.19628906-1.83496094-.29589844-2.76074219-.29589844h-.7109375c-7.16845702 0-12.99999999 5.83203125-12.99999999 13 0 5.11407471 2.97583008 9.53515625 7.28033447 11.65631104l2.63616943 14.95501709c.05615234.30371094.08349609.62011719.08349609.96875v.41992188c0 2.41442871 1.72070312 4.43426514 4 4.89892578v.19482422c0 3.80859375 3.09814453 6.90625 6.90673828 6.90625 2.86279297 0 5.46142578-1.80078125 6.46728516-4.48144531l.07763672-.20703125c.7421875-1.98046875 2.66210938-3.31152344 4.77685547-3.31152344 1.9453125 0 3.69433594 1.08105469 4.56347656 2.8203125l.31347656.62695312c.24804688.49414062.84863281.69335938 1.34179688.44726562.49414062-.24707031.69433594-.84765625.44726562-1.34179688l-.31347656-.62695312c-1.20996094-2.421875-3.64453125-3.92578125-6.35253906-3.92578125-2.94384766 0-5.61621094 1.85253906-6.64990234 4.60839844l-.07763672.20703125c-.71386719 1.90527344-2.56054688 3.18457031-4.59423828 3.18457031-2.70556641 0-4.90673828-2.20117188-4.90673828-4.90625v-.1965332c.94750977-.19317627 1.82562256-.6583252 2.54248047-1.36499023.93994141-.95410156 1.45751953-2.20898438 1.45751953-3.57226562 0-.8046875-.24609375-1.62402344-.69628906-2.3125-.46044922-.69433594-.70361328-1.4921875-.70361328-2.30761719 0-.49511719.09179688-.99804688.26611328-1.45800781l.80078125-2.13183594c.21520996-.57684326.40252686-1.16082764.565979-1.75h3.76702881c1.65429688 0 3-1.34570312 3-3v-4.5847168l11.10955811-2.4152832h4.65411377l11.7890625 5.89453125c.14160156.0703125.29394531.10546875.44726562.10546875.18261719 0 .36523438-.04980469.52539062-.14941406.29492188-.18261719.47460938-.50390625.47460938-.85058594v-26.00000001c0-.34667969-.1796875-.66796875-.47460938-.85058594zm-53.52539062 13.85058594c0-6.06542969 4.93457031-11 11-11h.7109375c.78369141 0 1.56982422.08398438 2.33642578.25097656l20.95263672 4.5546875v12.38867188l-20.95214844 4.5546875c-.76708984.16699219-1.55322266.25097656-2.33691406.25097656h-.7109375c-6.06542969 0-11-4.93457031-11-11zm15.79394531 19.04882812-.79882812 2.12695312c-.25830078.68066406-.39501953 1.42871094-.39501953 2.1640625 0 1.20996094.35839844 2.38964844 1.03320312 3.40820312.23632812.36132812.36669922.79199219.36669922 1.25195312 0 .79492188-.31347656 1.55078125-.87207031 2.11816406-.32598877.32128906-.71264648.55059814-1.12792969.69842529v-2.81658936c0-.55273438-.44775391-1-1-1s-1 .44726562-1 1v2.81567383c-1.16149902-.41412354-2-1.51373291-2-2.81567383v-.41992188c0-.47167969-.03808594-.90820312-.11523438-1.32421875l-2.4251709-13.75848389c1.12731934.31994629 2.31195068.50262451 3.54040527.50262451h.7109375c.92578125 0 1.85498047-.09960938 2.76123047-.29589844l2.52783203-.54956055v.21557617c0 2.28710938-.40625 4.53515625-1.20605469 6.67871094zm7.20605469-4.04882812c0 .55175781-.44873047 1-1 1h-3v-4.28027344l4-.86962891v4.14990234zm14-21h3v12h-3zm15 17.38183594-10-5v-12.76367188l10-5z"/><path d="m63 18h-4c-.55273438 0-1 .44726562-1 1s.44726562 1 1 1h4c.55273438 0 1-.44726562 1-1s-.44726562-1-1-1z"/><path d="m58.99902344 14c.08007812 0 .16210938-.00976562.24316406-.03027344l1.08984375-.27246094c2.16015625-.54003906 3.66796875-2.47167969 3.66796875-4.69726562 0-.55273438-.44726562-1-1-1s-1 .44726562-1 1c0 1.30664062-.88574219 2.44042969-2.15234375 2.7578125l-1.08984375.27246094c-.53613281.13378906-.86230469.67675781-.72753906 1.21191406.11328125.45507812.52050781.7578125.96875.7578125z"/><path d="m60.33203125 24.30273438-1.08984375-.27246094c-.53613281-.13769531-1.078125.19042969-1.21191406.72753906-.13476562.53515625.19140625 1.078125.72753906 1.21191406l1.08984375.27246094c1.26660156.31738281 2.15234375 1.45117188 2.15234375 2.7578125 0 .55273438.44726562 1 1 1s1-.44726562 1-1c0-2.22558594-1.5078125-4.15722656-3.66796875-4.69726562z"/><path d="m22 19c0-4.41113281-3.58886719-8-8-8s-8 3.58886719-8 8 3.58886719 8 8 8 8-3.58886719 8-8zm-14 0c0-3.30859375 2.69140625-6 6-6s6 2.69140625 6 6-2.69140625 6-6 6-6-2.69140625-6-6z"/></g></g></svg>