<?xml version="1.0" encoding="UTF-8"?>
<svg xmlns="http://www.w3.org/2000/svg" width="512" height="512" viewBox="0 0 128 128"><g><path d="M105.592,51.3a16.1,16.1,0,0,0,16.1-16.1h0a16,16,0,0,0-5.226-11.875C109.015,16.573,92.925,6.307,64,6.307S18.985,16.573,11.533,23.321A16,16,0,0,0,6.307,35.2h0a16.1,16.1,0,0,0,16.1,16.1Z" fill="#fdca74"/><path d="M103.275,121.693H24.725A18.418,18.418,0,0,1,6.307,103.275h0a10,10,0,0,1,10-10h95.386a10,10,0,0,1,10,10h0A18.418,18.418,0,0,1,103.275,121.693Z" fill="#fdca74"/><path d="M105.592,66.648s16.1,0,16.1,10.783c0,7.335-10.714,7.1-17.735,3.3a7.446,7.446,0,0,0-8.083.7,13.06,13.06,0,0,1-8.121,2.66,13.235,13.235,0,0,1-7.58-2.252,7.375,7.375,0,0,0-8.322.009A13.679,13.679,0,0,1,64,84.1a13.679,13.679,0,0,1-7.852-2.243,7.375,7.375,0,0,0-8.322-.009,13.235,13.235,0,0,1-7.58,2.252,13.06,13.06,0,0,1-8.121-2.66,7.446,7.446,0,0,0-8.083-.7c-7.021,3.8-17.735,4.031-17.735-3.3,0-10.783,16.1-10.783,16.1-10.783Z" fill="#4cc7b3"/><path d="M111.205,66.648H16.8a7.676,7.676,0,0,1-7.676-7.675h0A7.676,7.676,0,0,1,16.8,51.3h94.41a7.676,7.676,0,0,1,7.676,7.676h0A7.676,7.676,0,0,1,111.205,66.648Z" fill="#fa7578"/><path d="M114.2,83.334h0a21.739,21.739,0,0,1-10.238-2.6,7.446,7.446,0,0,0-8.083.7,13.06,13.06,0,0,1-8.121,2.66,13.235,13.235,0,0,1-7.58-2.252,7.375,7.375,0,0,0-8.322.009A13.679,13.679,0,0,1,64,84.1a13.679,13.679,0,0,1-7.852-2.243,7.375,7.375,0,0,0-8.322-.009,13.235,13.235,0,0,1-7.58,2.252,13.06,13.06,0,0,1-8.121-2.66,7.446,7.446,0,0,0-8.083-.7,21.739,21.739,0,0,1-10.238,2.6h0s-3.141.762-3.141,4.73a5.412,5.412,0,0,0,5.645,5.211h95.386a5.412,5.412,0,0,0,5.645-5.211C117.338,84.1,114.2,83.334,114.2,83.334Z" fill="#a8503c"/><g><path d="M50.119,19.236a2.349,2.349,0,1,0,2.349-2.349A2.349,2.349,0,0,0,50.119,19.236Z"/><path d="M78.946,17.972A2.349,2.349,0,1,0,81.3,20.321,2.349,2.349,0,0,0,78.946,17.972Z"/><path d="M63,32.262a2.349,2.349,0,1,0,2.349-2.349A2.349,2.349,0,0,0,63,32.262Z"/><path d="M28.453,29.449A2.349,2.349,0,1,0,30.8,27.1,2.349,2.349,0,0,0,28.453,29.449Z"/><path d="M95.051,29.671a2.349,2.349,0,1,0,2.349-2.35A2.349,2.349,0,0,0,95.051,29.671Z"/><path d="M89.515,11.215c1.416.383,2.826.808,4.192,1.261a1.75,1.75,0,0,0,1.1-3.321c-1.428-.475-2.9-.918-4.381-1.319a1.75,1.75,0,0,0-.914,3.379Z"/><path d="M123.443,77.431c0-5.314-3.356-8.53-7.42-10.372a9.408,9.408,0,0,0-1.035-16.713,17.825,17.825,0,0,0,2.654-28.322,59.346,59.346,0,0,0-13.982-9.286,1.751,1.751,0,0,0-1.528,3.15,55.787,55.787,0,0,1,13.16,8.731,14.351,14.351,0,0,1-9.7,24.928H22.408a14.351,14.351,0,0,1-9.7-24.928C19.538,18.433,35.284,8.057,64,8.057A106.075,106.075,0,0,1,80.381,9.28a1.75,1.75,0,1,0,.543-3.458A109.589,109.589,0,0,0,64,4.557c-29.89,0-46.438,10.944-53.642,17.467a17.825,17.825,0,0,0,2.654,28.322,9.408,9.408,0,0,0-1.036,16.713C7.913,68.9,4.557,72.117,4.557,77.431a6.863,6.863,0,0,0,3.43,6.213,9.257,9.257,0,0,0,1.823.824,7.111,7.111,0,0,0-.9,3.6,6.716,6.716,0,0,0,2.025,4.771,11.754,11.754,0,0,0-6.38,10.439,20.191,20.191,0,0,0,20.168,20.168h78.55a20.191,20.191,0,0,0,20.168-20.168,11.754,11.754,0,0,0-6.38-10.439,6.716,6.716,0,0,0,2.025-4.771,7.1,7.1,0,0,0-.9-3.6,9.239,9.239,0,0,0,1.824-.824A6.863,6.863,0,0,0,123.443,77.431ZM16.8,64.9a5.926,5.926,0,1,1,0-11.851h94.41a5.926,5.926,0,1,1,0,11.851ZM43.211,91.525a1.75,1.75,0,1,0,0,3.5h68.482a8.259,8.259,0,0,1,8.25,8.25,16.687,16.687,0,0,1-16.668,16.668H24.725A16.687,16.687,0,0,1,8.057,103.275a8.259,8.259,0,0,1,8.25-8.25H33.849a1.75,1.75,0,0,0,0-3.5H16.307a3.65,3.65,0,0,1-3.895-3.46A2.893,2.893,0,0,1,14.054,85.1a23.772,23.772,0,0,0,10.82-2.822,5.732,5.732,0,0,1,6.188.553,14.762,14.762,0,0,0,9.184,3.02,14.966,14.966,0,0,0,8.562-2.554,5.641,5.641,0,0,1,6.358.009A15.45,15.45,0,0,0,64,85.847,15.445,15.445,0,0,0,72.833,83.3a5.641,5.641,0,0,1,6.358-.01,14.965,14.965,0,0,0,8.563,2.555,14.762,14.762,0,0,0,9.184-3.02,5.73,5.73,0,0,1,6.187-.553A23.787,23.787,0,0,0,113.947,85.1a2.9,2.9,0,0,1,1.641,2.969,3.65,3.65,0,0,1-3.895,3.46Zm75.01-10.887a8.293,8.293,0,0,1-3.948.948c-.037,0-.073,0-.109,0a19.806,19.806,0,0,1-9.374-2.4,9.237,9.237,0,0,0-9.978.851,11.337,11.337,0,0,1-7.058,2.3,11.533,11.533,0,0,1-6.6-1.951,9.124,9.124,0,0,0-10.285.007,13.116,13.116,0,0,1-13.743,0A9.124,9.124,0,0,0,46.844,80.4a11.533,11.533,0,0,1-6.6,1.951,11.337,11.337,0,0,1-7.058-2.3,9.237,9.237,0,0,0-9.979-.851,19.812,19.812,0,0,1-9.342,2.4,1.425,1.425,0,0,0-.146,0,8.286,8.286,0,0,1-3.942-.949,3.4,3.4,0,0,1-1.722-3.207c0-8.9,14.209-9.032,14.353-9.033h83.182c.144,0,14.351.1,14.351,9.033A3.4,3.4,0,0,1,118.221,80.638Z"/></g></g></svg>
