<svg height="512" viewBox="0 0 128 128" width="512" xmlns="http://www.w3.org/2000/svg"><g><g><g fill="#537980"><path d="m101.3 47.893-8.559 1.415v-33.808l8.559 1.415a3 3 0 0 1 2.511 2.96v25.058a3 3 0 0 1 -2.511 2.96z"/><path d="m26.7 16.915 8.562-1.415v33.808l-8.562-1.415a3 3 0 0 1 -2.511-2.96v-25.058a3 3 0 0 1 2.511-2.96z"/></g><path d="m57 51.845h14a0 0 0 0 1 0 0v63.655a6 6 0 0 1 -6 6h-2a6 6 0 0 1 -6-6v-63.655a0 0 0 0 1 0 0z" fill="#385b60"/><path d="m54 49.616h20a0 0 0 0 1 0 0v6.3a3 3 0 0 1 -3 3h-14a3 3 0 0 1 -3-3v-6.3a0 0 0 0 1 0 0z" fill="#537980"/><path d="m54 6.5h20a0 0 0 0 1 0 0v6.3a3 3 0 0 1 -3 3h-14a3 3 0 0 1 -3-3v-6.3a0 0 0 0 1 0 0z" fill="#537980" transform="matrix(-1 0 0 -1 128 22.302)"/><rect fill="#ededf9" height="39.808" rx="3" width="67.615" x="30.192" y="12.5"/><path d="m57 97.5h14v6h-14z" fill="#ededf9" transform="matrix(-1 0 0 -1 128 201)"/><path d="m57 103.5h14v6h-14z" fill="#dddde3" transform="matrix(-1 0 0 -1 128 213)"/></g><g fill="#102a3f"><path d="m103.81 24.451a1.751 1.751 0 0 0 1.75-1.75v-2.831a4.735 4.735 0 0 0 -3.978-4.687l-2.091-.342a4.742 4.742 0 0 0 -4.683-4.091h-19.058v-1.25a4.756 4.756 0 0 0 -4.75-4.75h-14a4.756 4.756 0 0 0 -4.75 4.75v1.25h-6.184a1.75 1.75 0 0 0 0 3.5h48.742a1.251 1.251 0 0 1 1.25 1.25v33.808a1.252 1.252 0 0 1 -1.25 1.25h-61.616a1.252 1.252 0 0 1 -1.25-1.25v-33.808a1.251 1.251 0 0 1 1.25-1.25h3.65a1.75 1.75 0 0 0 0-3.5h-3.65a4.742 4.742 0 0 0 -4.683 4.091l-2.094.343a4.734 4.734 0 0 0 -3.975 4.686v25.06a4.734 4.734 0 0 0 3.973 4.686l2.1.349a4.742 4.742 0 0 0 4.683 4.093h19.054v1.862a4.749 4.749 0 0 0 3 4.406v12.587a1.75 1.75 0 1 0 3.5 0v-12.243h10.5v35.08h-10.5v-5.54a1.75 1.75 0 1 0 -3.5 0v25.29a7.759 7.759 0 0 0 7.75 7.75h2a7.759 7.759 0 0 0 7.75-7.75v-55.174a4.749 4.749 0 0 0 3-4.406v-1.862h19.058a4.742 4.742 0 0 0 4.683-4.093l2.095-.348a4.735 4.735 0 0 0 3.974-4.687v-14.276a1.75 1.75 0 1 0 -3.5 0v14.276a1.247 1.247 0 0 1 -1.047 1.234l-1.455.242v-28.006l1.457.238a1.261 1.261 0 0 1 1.045 1.233v2.829a1.75 1.75 0 0 0 1.75 1.751zm-48.06-14.951a1.25 1.25 0 0 1 1.25-1.25h14a1.251 1.251 0 0 1 1.25 1.25v1.25h-16.5zm-29.81 35.43v-25.06a1.261 1.261 0 0 1 1.042-1.233l1.46-.238v28.007l-1.456-.242a1.247 1.247 0 0 1 -1.046-1.234zm43.31 62.82h-10.5v-2.5h10.5zm0-8.5v2.5h-10.5v-2.5zm-4.25 20.5h-2a4.255 4.255 0 0 1 -4.25-4.25v-4.25h10.5v4.25a4.255 4.255 0 0 1 -4.25 4.25zm7.25-63.83a1.252 1.252 0 0 1 -1.25 1.25h-14a1.251 1.251 0 0 1 -1.25-1.25v-1.862h16.5z"/><path d="m57 86.239a1.75 1.75 0 0 0 1.75-1.75v-5.082a1.75 1.75 0 1 0 -3.5 0v5.082a1.75 1.75 0 0 0 1.75 1.75z"/><path d="m93.558 39.078v-6a1.75 1.75 0 0 0 -3.5 0v6a1.75 1.75 0 1 0 3.5 0z"/></g></g></svg>