<svg height="512" viewBox="0 0 60 52" width="512" xmlns="http://www.w3.org/2000/svg"><g id="Page-1" fill="none" fill-rule="evenodd"><g id="014---Hammock" fill-rule="nonzero"><path id="Shape" d="m29.89 15.79c-.2855628.1410557-.5794384.264617-.88.37-1.9823143.680421-4.0299825 1.1529599-6.11 1.41-2.2880681.2946339-4.5930548.438278-6.9.43h-.22c-2.3415757.0005929-4.6804225-.1597852-7-.48-2.0832303-.2584912-4.12993857-.7550696-6.1-1.48-.19436538-.073003-.38464291-.1564581-.57-.25-.66267313-.304384-1.10715191-.9453213-1.159949-1.6726436-.0527971-.7273223.29445705-1.4257323.90622346-1.8226292.61176642-.3968969 1.39106606-.4293634 2.03372554-.0847272.03.01 3.82 1.79 12.11 1.79s12.08-1.78 12.12-1.8c.9920717-.4708987 2.1785754-.062066 2.67.92.4842393.9861307.0824036 2.1782433-.9 2.67z" fill="#ff9801"/><path id="Shape" d="m30.79 13.12c-.4914246-.982066-1.6779283-1.3908987-2.67-.92-.2613302.1160239-.5283346.2188206-.8.308.1954211.1710763.355142.3790533.47.612.4842393.9861307.0824036 2.1782433-.9 2.67-.2855628.1410557-.5794384.264617-.88.37-1.9823143.680421-4.0299825 1.1529599-6.11 1.41-1.7740263.2283951-3.5588115.3635808-5.347.405.4.01.8.023 1.227.025h.22c2.3069452.008278 4.6119319-.1353661 6.9-.43 2.0800175-.2570401 4.1276857-.729579 6.11-1.41.3005616-.105383.5944372-.2289443.88-.37.9824036-.4917567 1.3842393-1.6838693.9-2.67z" fill="#f57c00"/><path id="Shape" d="m57.89 30.79c-.04.02-.27.13-.69.3-2.0446108.7283995-4.1645662 1.2248447-6.32 1.48-2.281392.2943689-4.5797091.4380137-6.88.43h-.06c-2.3106552.0105088-4.6193396-.1364986-6.91-.44-2.0851785-.256943-4.1368648-.7363403-6.12-1.43-.5-.19-.76-.32-.8-.34-.8999722-.4591611-1.3161628-1.5174246-.9700703-2.4666342.3460926-.9492096 1.3457658-1.4912332 2.3300703-1.2633658.1466924.0287919.2882567.0793506.42.15.03.01 3.82 1.79 12.11 1.79s12.08-1.78 12.12-1.8c.9921669-.4691789 2.177441-.0607699 2.67.92.4842393.9861307.0824036 2.1782433-.9 2.67z" fill="#ff9801"/><path id="Shape" d="m58.79 28.12c-.492559-.9807699-1.6778331-1.3891789-2.67-.92-.01 0-.277.129-.8.309.5015215.4367411.7513012 1.0954228.6654757 1.7548927-.0858256.65947-.4958756 1.2322793-1.0924757 1.5261073-.04.02-.27.13-.69.3-2.0446108.7283995-4.1645662 1.2248447-6.32 1.48-1.7952295.2308114-3.6014283.3663347-5.411.406.481.012.961.024 1.471.024h.057c2.3002909.0080137 4.598608-.1356311 6.88-.43 2.1554338-.2551553 4.2753892-.7516005 6.32-1.48.42-.17.65-.28.69-.3.9824036-.4917567 1.3842393-1.6838693.9-2.67z" fill="#f57c00"/><path id="Shape" d="m46 51h-5c7.45 0 9.42-13.72 9.88-18.43 2.1554338-.2551553 4.2753892-.7516005 6.32-1.48 1 14.44-7.38 19.91-11.2 19.91z" fill="#bb193b"/><path id="Shape" d="m43.94 33c-.25 5.06-1.5 18-7.94 18h-8c8.28 0 9.02-13.73 9.03-18.44 2.2906604.3035014 4.5993448.4505088 6.91.44z" fill="#bb193b"/><path id="Shape" d="m37.03 32.56c-.01 4.71-.75 18.44-9.03 18.44h-8c-.24 0-.47 0-.7-.01 2.078114-.0471797 4.064037-.8672198 5.57-2.3 1.0517171-.9981031 1.9303408-2.1639692 2.6-3.45.8479925-1.6104229 1.5121671-3.3111124 1.98-5.07.7867517-2.9571401 1.2758511-5.9855369 1.46-9.04 1.9831352.6936597 4.0348215 1.173057 6.12 1.43z" fill="#cfd8dc"/><path id="Shape" d="m24.87 48.69c-1.505963 1.4327802-3.491886 2.2528203-5.57 2.3-.0026332.0026875-.0062374.004202-.01.004202s-.0073668-.0015145-.01-.004202c-19.81-.63-17.63-27.29-16.6-34.95 1.97006143.7249304 4.0167697 1.2215088 6.1 1.48-.75 6.06-2.2 28.29 16.09 31.17z" fill="#f5f5f5"/><path id="Shape" d="m19.28 50.99c-.0930767.0085068-.1865536.0118453-.28.01" fill="#ff9801"/><path id="Shape" d="m29.21 28.11c-.4909672.9886286-.0881617 2.1880938.9 2.68.04.02.3.15.8.34-.1841489 3.0544631-.6732483 6.0828599-1.46 9.04-6.61-6.07-6.73-18.28-6.55-22.6 2.0800175-.2570401 4.1276857-.729579 6.11-1.41.04 2.65.44 7.24 2.46 10.9-.9059747-.2194464-1.8434162.2160906-2.26 1.05z" fill="#ef314c"/><path id="Shape" d="m31.47 27.06c-2.02-3.66-2.42-8.25-2.46-10.9-.97264.3431994-1.9655257.62607-2.973.847.0569337 3.4897737.8879263 6.9233819 2.433 10.053-.9843045-.2278674-1.9839777.3141562-2.3300703 1.2633658-.3460925.9492096.0700981 2.0074731.9700703 2.4666342.04.02.3.15.8.34-.134146 2.0981627-.40135 4.1856938-.8 6.25.6657714 1.0212649 1.4528411 1.9580928 2.344 2.79.7867517-2.9571401 1.2758511-5.9855369 1.46-9.04-.5-.19-.76-.32-.8-.34-.8999722-.4591611-1.3161628-1.5174246-.9700703-2.4666342.3460926-.9492096 1.3457658-1.4912332 2.3300703-1.2633658z" fill="#bb193b"/><path id="Shape" d="m27.47 45.24c-.6696592 1.2860308-1.5482829 2.4518969-2.6 3.45-18.29-2.88-16.84-25.11-16.09-31.17 2.3195775.3202148 4.6584243.4805929 7 .48-.47 5.8-.7 22.5 11.69 27.24z" fill="#ef314c"/><path id="Shape" d="m29.45 40.17c-.4678329 1.7588876-1.1320075 3.4595771-1.98 5.07-12.39-4.74-12.16-21.44-11.69-27.24h.22c2.3069452.008278 4.6119319-.1353661 6.9-.43-.18 4.32-.06 16.53 6.55 22.6z" fill="#f5f5f5"/><path id="Shape" d="m50.88 32.57c-.46 4.71-2.43 18.43-9.88 18.43h-5c6.44 0 7.69-12.94 7.94-18h.06c2.3002909.0080137 4.598608-.1356311 6.88-.43z" fill="#cfd8dc"/><path id="Shape" d="m31.687 12.683c-.7300859-1.4739647-2.50765-2.0896349-3.993-1.383-.3751758.1591423-.7595277.2957191-1.151.409-4.3478986-2.52142134-7.73123-6.42025771-9.615-11.08-.1521756-.37902981-.5195627-.62741981-.928-.62741981s-.7758244.24839-.928.62741981c-1.8843543 4.6605694-5.26881135 8.55983827-9.618 11.081-.37789155-.1095823-.74917075-.2407987-1.112-.393-.71180417-.3561404-1.53595911-.4148222-2.29104256-.1631277s-1.37919833.7931329-1.73495744 1.5051277c-.72286098 1.4567855-.15336676 3.2242578 1.284 3.985-.833 6.713-1.7 21.5 5.246 29.7 3.06155302 3.5294132 7.4822707 5.5866437 12.154 5.656h27c1.786 0 4.627-1 7.244-3.8 2.539-2.721 5.417-7.776 4.987-16.461l.111-.053c1.4873028-.731225 2.100225-2.5296972 1.369-4.017s-2.5296972-2.100225-4.017-1.369c-.3751758.1591423-.7595277.2957191-1.151.409-4.3478986-2.5214213-7.73123-6.4202577-9.615-11.08-.1521756-.3790298-.5195627-.6274198-.928-.6274198s-.7758244.24839-.928.6274198c-1.8843543 4.6605694-5.2688113 8.5598383-9.618 11.081-.3778915-.1095823-.7491708-.2407987-1.112-.393-.048-.024-.1-.036-.149-.058-1.3733118-2.958231-2.1098831-6.1719572-2.162-9.433.149-.065.259-.117.311-.143 1.4688518-.7393573 2.0687316-2.5233865 1.345-4zm-15.687-9.27c1.8419945 3.57549697 4.5333866 6.6442609 7.838 8.937-2.5874678.4545391-5.2110042.6721072-7.838.65-2.6276139.0220483-5.2517786-.1951817-7.84-.649 3.3055238-2.2927111 5.9976442-5.36186572 7.84-8.938zm-13.895 10.14c.11983241-.2400012.33106612-.4217937.58624168-.504533.25517556-.0827394.53289402-.0594869.77075832.064533.161.077 4.038 1.887 12.538 1.887 8.457 0 12.384-1.814 12.552-1.894.4937426-.2485281 1.0954718-.0497425 1.344.444.2485281.4937426.0497425 1.0954719-.444 1.344-.176.085-4.343 2.106-13.452 2.106s-13.276-2.021-13.447-2.1c-.23875764-.1184521-.42035072-.327315-.50446464-.58022s-.06378824-.5289243.05646464-.76678zm33.915 19.866c-.1 4.833-1.062 16.581-8.02 16.581h-3.094c4.95-3.86 6.451-12.419 6.9-17.515 1.381863.4065265 2.7897797.7185802 4.214.934zm-26.36-14.773c1.467.174 3.149.3 5.05.336-.43 7.141.183 21.6 11.3 26.726-.4300623.6828481-.9293677 1.3195463-1.49 1.9-15.93-2.908-15.602-21.732-14.86-28.962zm17.319 25.3c-10.196-4.611-10.679-18.283-10.267-24.956 1.934-.022 3.653-.129 5.156-.291-.1 5.345.555 15.819 6.447 21.735-.3538712 1.2034446-.8005439 2.3776321-1.336 3.512zm-18.61 1.1c-6.369-7.516-5.514-21.832-4.849-27.646 1.36184306.4208133 2.75160828.7452812 4.159.971-.771 7.4-1.143 26.62 14.734 30.816-.9671481.5003503-2.0345449.7765132-3.123.808-4.1898139.0341008-8.183022-1.7743789-10.921-4.946zm29.646-11.359c1.425.157 3.049.265 4.865.3-.323 4.83-1.64 16.013-6.88 16.013h-2.865c3.959-3.683 4.771-11.6 4.88-16.313zm2.985 16.313h-.686c3.193-3.474 4.242-10.755 4.572-16.012 1.813-.026 3.433-.127 4.863-.277-.612 5.058-2.658 16.289-8.749 16.289zm10.782-3.167c-2.042 2.188-4.375 3.167-5.782 3.167h-.178c4-3.759 5.457-11.919 5.971-16.551 1.512087-.2212854 3.0062821-.5511379 4.471-.987.236 7.604-2.264 11.998-4.482 14.371zm4.77-18.727c.4937426-.2485281 1.0954719-.0497426 1.344.444s.0497426 1.0954719-.444 1.344c-.176.085-4.343 2.106-13.452 2.106s-13.276-2.021-13.447-2.1c-.4920857-.2510134-.6875134-.8534143-.4365-1.3455s.8534143-.6875134 1.3455-.4365c.161.072 4.038 1.882 12.538 1.882 8.457 0 12.384-1.814 12.552-1.894zm-12.552-9.693c1.8419945 3.575497 4.5333866 6.6442609 7.838 8.937-2.5874678.4545391-5.2110042.6721072-7.838.65-2.6276139.0220483-5.2517786-.1951817-7.84-.649 3.3055238-2.2927111 5.9976442-5.3618657 7.84-8.938zm-14.055 7.787c-1.1186588.4153737-1.8832313 1.4561213-1.9451734 2.6477991-.061942 1.1916778.590608 2.3060858 1.6601734 2.8352009l.2.093c-.1685667 2.1406295-.4849884 4.2670368-.947 6.364-4.8-5.777-5.13-15.626-5.04-19.706 1.4149895-.2108957 2.8144045-.5155666 4.189-.912.1251948 2.9792686.7621565 5.9147727 1.883 8.678z" fill="#000"/></g></g></svg>