<svg id="Capa_1" enable-background="new 0 0 512 512" height="512" viewBox="0 0 512 512" width="512" xmlns="http://www.w3.org/2000/svg"><g><g><path d="m116.48 265.575h68.493v191.378h-68.493z" fill="#b36d3c" transform="matrix(.707 .707 -.707 .707 299.599 -.768)"/></g><g><path d="m171.388 98.861h282.031v201.451h-282.031z" fill="#9c9c9c" transform="matrix(.707 .707 -.707 .707 232.63 -162.445)"/></g><g><path d="m466.246 210.982-113.957 113.958c-6.294 6.294-16.498 6.294-22.792 0l-170.937-170.936-17.094 17.094 199.426 199.426 142.448-142.448z" fill="#838383"/></g><g><path d="m496.35 226.842-3.039-3.039c-1.573-1.573-4.124-1.573-5.698 0l-150.994 150.994c-1.573 1.573-1.573 4.124 0 5.698l3.039 3.039c.813.813 1.791 1.443 2.869 1.847l15.084 5.657c3.698 1.387 7.866.484 10.659-2.309l133.275-133.275c2.793-2.793 3.696-6.961 2.309-10.659l-5.657-15.084c-.403-1.078-1.033-2.056-1.847-2.869z" fill="#bfbfbf"/></g><g><path d="m285.149 15.64 3.039 3.039c1.573 1.573 1.573 4.124 0 5.698l-150.994 150.994c-1.573 1.573-4.124 1.573-5.698 0l-3.039-3.039c-.813-.813-1.443-1.791-1.847-2.869l-5.657-15.084c-1.387-3.698-.484-7.866 2.309-10.659l133.275-133.275c2.793-2.793 6.961-3.696 10.659-2.309l15.084 5.657c1.077.404 2.056 1.034 2.869 1.847z" fill="#cecece"/></g><g><path d="m246.878 322.092-56.979-56.979c-3.147-3.147-3.147-8.249 0-11.396l17.094-17.094 68.375 68.375-17.094 17.094c-3.147 3.146-8.249 3.146-11.396 0z" fill="#5a5a5a"/></g><g><path d="m84.488 475.935-48.432-48.432c-6.294-6.294-6.294-16.498 0-22.792 6.294-6.294 16.498-6.294 22.792 0l48.432 48.432c6.294 6.294 6.294 16.498 0 22.792-6.294 6.293-16.498 6.293-22.792 0z" fill="#cecece"/></g><g><path d="m20.884 494.95-3.843-3.843c-12.734-12.734-12.734-33.379 0-46.113 1.93-1.887 4.398-4.761 6.93-5.811l16.126-7.639 40.349 40.349-7.639 16.126c-1.042 2.524-3.932 5.009-5.811 6.93-12.733 12.734-33.378 12.734-46.112.001z" fill="#9c9c9c"/></g><g><path d="m72.808 488.019 7.639-16.126-17.756-17.756-7.639 16.126c-.667 1.407-1.57 2.69-2.671 3.791l-3.139 3.139c-10.309 10.309-25.802 12.269-38.086 5.886 2.075 4.365 6.213 8.456 9.729 11.87 12.734 12.734 33.379 12.734 46.113 0 1.886-1.93 4.76-4.397 5.81-6.93z" fill="#838383"/></g><g><path d="m107.28 453.143-19.943-19.943c6.294 6.294 6.294 16.498 0 22.792s-16.498 6.294-22.792 0l19.943 19.943c6.294 6.294 16.498 6.294 22.792 0s6.294-16.498 0-22.792z" fill="#bfbfbf"/></g><g><circle cx="312.404" cy="199.587" fill="#e490d0" r="32.232"/></g><g><path d="m325.794 170.269c1.866 4.079 2.914 8.611 2.914 13.39 0 17.801-14.431 32.232-32.232 32.232-4.779 0-9.311-1.048-13.39-2.914 5.085 11.115 16.296 18.842 29.318 18.842 17.801 0 32.232-14.431 32.232-32.232 0-13.022-7.727-24.233-18.842-29.318z" fill="#df73c1"/></g><g><path d="m428.164 210.983c0-1.989-.79-3.897-2.196-5.303l-119.656-119.656c-2.93-2.929-7.679-2.929-10.607 0-6.502 6.501-17.08 6.501-23.582 0-2.928-2.93-7.677-2.929-10.607 0l-62.676 62.676c-2.929 2.929-2.929 7.677 0 10.607 6.501 6.501 6.501 17.08 0 23.581-2.929 2.929-2.929 7.678 0 10.607l119.656 119.655c1.407 1.407 3.315 2.197 5.304 2.197s3.897-.791 5.304-2.197c3.148-3.149 7.335-4.883 11.788-4.884 4.454 0 8.642 1.734 11.791 4.884 1.406 1.406 3.314 2.197 5.304 2.197 1.989 0 3.897-.79 5.304-2.197l62.677-62.677c1.406-1.406 2.196-3.314 2.196-5.303s-.79-3.897-2.196-5.303c-3.15-3.15-4.885-7.338-4.885-11.792.001-4.453 1.735-8.64 4.884-11.789 1.407-1.406 2.197-3.314 2.197-5.303zm-17.479 33.559-53.327 53.326c-4.91-2.999-10.565-4.602-16.465-4.602-.001 0-.003 0-.004 0-5.899 0-11.553 1.603-16.462 4.602l-110.31-110.311c6.124-10.071 6.124-22.847 0-32.919l53.338-53.338c10.07 6.124 22.848 6.124 32.918 0l110.312 110.311c-2.999 4.91-4.602 10.563-4.603 16.462.001 5.902 1.602 11.557 4.603 16.469z"/><path d="m152.072 171.1 131.844-131.845 21.694 21.694c1.465 1.464 3.385 2.197 5.304 2.197s3.839-.732 5.304-2.197c2.929-2.929 2.929-7.678 0-10.607l-21.767-21.767c3.498-4.518 3.185-11.055-.959-15.198l-3.039-3.04c-.001-.001-.001-.001-.002-.002-1.582-1.581-3.444-2.78-5.536-3.564l-15.086-5.657c-6.434-2.413-13.735-.833-18.595 4.028l-133.275 133.275c-4.86 4.86-6.441 12.16-4.028 18.596l5.656 15.082c.784 2.094 1.984 3.959 3.566 5.541l3.039 3.038c2.177 2.179 5.072 3.378 8.152 3.378 2.588 0 5.039-.856 7.049-2.417l54.992 54.988-11.791 11.791c-5.718 5.718-6.04 14.814-.978 20.92l-125.627 125.629c-3.233-1.614-6.818-2.474-10.538-2.474-6.306 0-12.234 2.457-16.693 6.916-4.464 4.463-6.923 10.395-6.923 16.702 0 4.692 1.363 9.174 3.895 12.996-5.633 2.364-12.118 5.739-15.994 10.587-15.637 15.638-15.637 41.082 0 56.72l3.844 3.843c7.576 7.575 17.647 11.747 28.36 11.747s20.785-4.172 28.36-11.747c2.644-2.596 5.806-5.572 7.286-9.024l3.301-6.968c3.822 2.535 8.302 3.898 12.994 3.898 6.304 0 12.236-2.46 16.704-6.927 7.347-7.346 8.809-18.371 4.422-27.211l125.647-125.647c2.785 2.314 6.255 3.577 9.921 3.577 4.155 0 8.063-1.619 11-4.557l11.794-11.793 7.401 7.4c1.464 1.464 3.384 2.196 5.303 2.196s3.839-.732 5.304-2.197c2.929-2.929 2.929-7.678-.001-10.607zm-18.311-4.071c-.056-.056-.1-.124-.128-.199l-5.657-15.084c-.354-.942-.121-2.01.591-2.722l133.274-133.275c.49-.49 1.149-.752 1.821-.752.302 0 .607.053.899.163l15.086 5.657c.074.028.142.071.199.128l.583.584-146.084 146.085zm81.426 167.6-26.7-48.95 5.686-5.686 37.826 37.825zm-22.791 22.791-26.7-48.95 11.736-11.736 26.7 48.95zm-22.792 22.792-26.7-48.95 11.736-11.736 26.7 48.95zm-22.791 22.791-26.7-48.95 11.736-11.736 26.7 48.95zm-22.792 22.792-26.7-48.95 11.736-11.736 26.7 48.95zm-59.187 60.712-3.141 3.14c-4.741 4.741-11.045 7.353-17.753 7.353-6.706 0-13.011-2.611-17.753-7.354l-3.843-3.843c-9.789-9.789-9.789-25.717-.001-35.506 1.096-.993 3.455-3.796 4.839-4.336l11.355-5.379 32.871 32.871-5.378 11.354c-.299.634-.704 1.206-1.196 1.7zm37.145-15.881c-1.635 1.634-3.8 2.534-6.098 2.534-2.297 0-4.455-.896-6.086-2.533l-48.435-48.436c-1.628-1.626-2.524-3.786-2.524-6.084 0-2.3.898-4.464 2.529-6.096 1.627-1.626 3.788-2.522 6.086-2.522 2.305 0 4.47.896 6.097 2.523l10.699 10.7c2.929 2.928 7.678 2.929 10.607 0 2.93-2.929 2.93-7.678.001-10.607l-5.397-5.398 16.808-16.808 26.7 48.95-5.684 5.684-7.678-7.678c-2.928-2.93-7.677-2.929-10.607 0-2.929 2.929-2.929 7.678.001 10.607l12.976 12.976c3.359 3.365 3.361 8.832.005 12.188zm150.991-153.837c-.04.04-.163.163-.394.163s-.355-.123-.395-.164l-56.979-56.978c-.218-.218-.218-.572 0-.79l11.791-11.791 57.77 57.766z"/><path d="m510.877 242.161-5.657-15.087c-.785-2.093-1.985-3.956-3.565-5.536l-3.039-3.038c-2.177-2.179-5.072-3.378-8.152-3.378-2.589 0-5.042.857-7.053 2.421l-142.443-142.451c-2.93-2.929-7.679-2.929-10.607 0-2.93 2.929-2.93 7.678-.001 10.607l142.37 142.38-131.834 131.834-22.778-22.778c-2.93-2.929-7.678-2.929-10.608 0-2.929 2.929-2.929 7.678 0 10.607l22.851 22.851c-3.503 4.519-3.192 11.059.954 15.205l3.041 3.042c1.581 1.581 3.444 2.78 5.537 3.564l15.085 5.657c2 .75 4.083 1.114 6.15 1.114 4.586 0 9.096-1.792 12.445-5.142l133.275-133.275c4.861-4.861 6.442-12.16 4.029-18.597zm-14.635 7.99-133.275 133.274c-.711.712-1.778.944-2.722.589l-15.085-5.657c-.074-.028-.144-.072-.198-.126l-.585-.585 146.085-146.085.584.584c.058.057.102.125.129.199l5.656 15.084c.354.942.123 2.011-.589 2.723z"/><path d="m312.404 159.855c-21.908 0-39.733 17.824-39.733 39.732s17.824 39.732 39.733 39.732c21.908 0 39.732-17.823 39.732-39.732s-17.824-39.732-39.732-39.732zm0 64.464c-13.638 0-24.733-11.095-24.733-24.732s11.095-24.732 24.733-24.732c13.637 0 24.732 11.095 24.732 24.732s-11.095 24.732-24.732 24.732z"/></g></g></svg>