<svg height="512" viewBox="0 0 128 128" width="512" xmlns="http://www.w3.org/2000/svg"><g><g><path d="m102.025 73.159c-1.11 2.89-1.14 8.17-1.08 10.38v4.13h-.03a22.676 22.676 0 0 1 -45.3 0h-.015v-27.81a4.535 4.535 0 0 1 9.07 0v-8.659a4.654 4.654 0 0 1 4.39-4.72 4.535 4.535 0 0 1 4.68 4.53v-6.85a4.541 4.541 0 0 1 4.67-4.54 4.672 4.672 0 0 1 4.4 4.73v6.66a4.527 4.527 0 0 1 4.67-4.53 4.663 4.663 0 0 1 4.4 4.72v22.09h.01c.08-3.23 3.25-8.14 6.77-10.84 2.13-1.64 4.4-2.47 6.19-1.62 5.635 2.679-1.485 8.819-2.825 12.329z" fill="#fecd1a"/><g fill="#fc852d"><path d="m73.732 49.262a1.75 1.75 0 0 0 -1.75 1.75v24.988a1.75 1.75 0 0 0 3.5 0v-24.988a1.75 1.75 0 0 0 -1.75-1.75z"/><path d="m64.668 58.111h-.006a1.749 1.749 0 0 0 -1.75 1.743l-.074 19.577a1.75 1.75 0 0 0 1.744 1.757h.006a1.751 1.751 0 0 0 1.75-1.743l.074-19.577a1.751 1.751 0 0 0 -1.744-1.757z"/><path d="m82.8 49.262a1.75 1.75 0 0 0 -1.75 1.75v26.381a1.75 1.75 0 0 0 3.5 0v-26.381a1.749 1.749 0 0 0 -1.75-1.75z"/></g><path d="m98.925 57.869a38.451 38.451 0 0 1 -.27 4.58c-3.52 2.7-6.69 7.61-6.77 10.84h-.01v-22.089a4.663 4.663 0 0 0 -4.4-4.72 4.527 4.527 0 0 0 -4.67 4.53v-6.66a4.672 4.672 0 0 0 -4.4-4.73 4.46 4.46 0 0 0 -2.53.69 4.511 4.511 0 0 0 -2.14 3.85v6.85a4.535 4.535 0 0 0 -4.68-4.53 4.654 4.654 0 0 0 -4.39 4.72v8.66a4.535 4.535 0 0 0 -9.07 0v27.81h.02a22.653 22.653 0 0 0 2.39 9.1 38.823 38.823 0 0 1 -20.01-6.74h-.01a39.327 39.327 0 0 1 -7.79-7.06 38.947 38.947 0 0 1 29.78-64.06c.19 0 .38 0 .56.01a38.952 38.952 0 0 1 38.39 38.949z" fill="#fd3a69"/><path d="m75.875 40.309a4.511 4.511 0 0 0 -2.14 3.85v6.85a4.535 4.535 0 0 0 -4.68-4.53 4.654 4.654 0 0 0 -4.39 4.72v8.66a4.535 4.535 0 0 0 -9.07 0v26.16a38.791 38.791 0 0 1 -17.24 4.01h-.37a39.327 39.327 0 0 1 -7.79-7.06 38.947 38.947 0 0 1 29.78-64.06c.19 0 .38 0 .56.01a39.046 39.046 0 0 1 15.34 21.39z" fill="#9d0191"/><path d="m51.355 48.269a39.008 39.008 0 0 1 -21.16 34.7 38.96 38.96 0 0 1 12.02-59.78 38.848 38.848 0 0 1 9.14 25.08z" fill="#fd3a69"/></g><g fill="#282d66"><path d="m108.578 62.526a5.1 5.1 0 0 0 -2.989-3.261 6.134 6.134 0 0 0 -4.963.049c.017-.476.042-.951.042-1.428a40.846 40.846 0 0 0 -40.045-40.7c-.21-.012-.433-.013-.655-.013a40.767 40.767 0 0 0 -18.559 4.473l-.026.015-.017.009a40.818 40.818 0 0 0 -8.336 5.7 1.75 1.75 0 1 0 2.317 2.63 37.281 37.281 0 0 1 6.42-4.545 37.282 37.282 0 0 1 7.833 22.831 37.121 37.121 0 0 1 -18.977 32.453 37.232 37.232 0 0 1 -7.855-22.853c0-1.085.047-2.184.142-3.266a1.751 1.751 0 0 0 -3.488-.3c-.1 1.183-.154 2.383-.154 3.569a40.727 40.727 0 0 0 9.58 26.226c.021.025.044.048.065.073l.008.009a41.145 41.145 0 0 0 8.063 7.292l.01.006.02.013c.032.021.064.042.1.06a40.62 40.62 0 0 0 19.8 6.885 24.4 24.4 0 0 0 39.637 4.343 1.75 1.75 0 1 0 -2.621-2.32 20.928 20.928 0 0 1 -36.574-12.876 1.49 1.49 0 0 0 -.018-.178v-27.546a2.784 2.784 0 0 1 5.568-.017v.011l-.073 19.577a1.749 1.749 0 0 0 1.742 1.753h.007a1.75 1.75 0 0 0 1.75-1.743l.073-19.555c0-.01 0-.02 0-.03v-8.66a2.9 2.9 0 0 1 2.695-2.967 2.783 2.783 0 0 1 2.874 2.767v.016 24.991a1.75 1.75 0 0 0 3.5 0v-24.965c0-.009 0-.019 0-.029v-6.849a2.766 2.766 0 0 1 .845-2 2.738 2.738 0 0 1 2.019-.79 2.92 2.92 0 0 1 2.706 2.981v6.633.029 26.38a1.75 1.75 0 0 0 3.5 0v-26.355a.258.258 0 0 0 0-.029 2.776 2.776 0 0 1 2.871-2.78 2.9 2.9 0 0 1 2.7 2.971v22.09a1.755 1.755 0 0 0 3.51.043c.064-2.621 2.908-7.057 6.088-9.5 1.762-1.357 3.4-1.891 4.371-1.426.64.3 1.012.64 1.109 1 .319 1.2-1.352 3.607-2.573 5.367a19.618 19.618 0 0 0 -2.239 3.753c-1.26 3.28-1.256 8.824-1.2 11.008v3.807a1.725 1.725 0 0 0 -.028.241 20.989 20.989 0 0 1 -.48 3.592 1.75 1.75 0 1 0 3.416.764 24.608 24.608 0 0 0 .543-3.859 1.781 1.781 0 0 0 .049-.416v-4.171c-.087-3.25.12-7.507.966-9.709a18.187 18.187 0 0 1 1.847-3.011c1.794-2.578 3.819-5.501 3.084-8.263zm-54.647 26.174a24.336 24.336 0 0 0 1.316 6.076 37.138 37.138 0 0 1 -11.373-3.365 40.027 40.027 0 0 0 10.057-2.711zm15.069-43.953a6.419 6.419 0 0 0 -6.091 6.469v3.032a6.287 6.287 0 0 0 -9.07 5.628v25.039a36.808 36.808 0 0 1 -15.3 3.375 37.851 37.851 0 0 1 -5.589-4.846 40.607 40.607 0 0 0 20.15-35.158 40.784 40.784 0 0 0 -8.161-24.445 36.752 36.752 0 0 1 15.025-3.165 37.35 37.35 0 0 1 13.882 19.029 6.238 6.238 0 0 0 -1.868 4.471v1.214a6.345 6.345 0 0 0 -2.978-.643zm24.618 20.382v-13.913a6.423 6.423 0 0 0 -6.095-6.469 6.283 6.283 0 0 0 -2.975.64v-1.021a6.445 6.445 0 0 0 -6.1-6.479 6.271 6.271 0 0 0 -1.465.134 40.83 40.83 0 0 0 -10.878-16.828 37.387 37.387 0 0 1 31.063 36.693 36.771 36.771 0 0 1 -.2 3.7 22.682 22.682 0 0 0 -3.35 3.543z"/><path d="m23.6 43.808a1.75 1.75 0 0 0 2.306-.9q.4-.91.849-1.8a1.75 1.75 0 0 0 -3.123-1.58q-.491.967-.929 1.965a1.749 1.749 0 0 0 .897 2.315z"/></g></g></svg>