<svg id="Layer_1" enable-background="new 0 0 512 512" viewBox="0 0 512 512" xmlns="http://www.w3.org/2000/svg"><g clip-rule="evenodd" fill-rule="evenodd"><g><g><path d="m228.37 152.64 260.617 260.618-37.235 37.234-3.927-30.774-30.066 7.65-3.928-30.775-30.066 7.65-3.927-30.775-30.066 7.65-3.927-30.775-30.066 7.65-3.927-30.775-30.066 7.65-3.927-30.774-30.066 7.649-3.928-30.774-30.065 7.649-3.928-30.774-30.066 7.65-3.927-30.775-30.066 7.65-28.256-19.222 55.905-66.31z" fill="#b4d2d7"/><path d="m228.37 152.64 260.617 260.617-37.235 37.234-1.942-15.219 20.596-20.596-260.616-260.615zm219.455 267.078-.409-3.204-30.066 7.65.409 3.204zm-33.994-23.125-.409-3.204-30.066 7.65.409 3.204zm-33.993-23.125-.409-3.204-30.066 7.65.409 3.204zm-33.993-23.125-.409-3.204-30.066 7.65.409 3.204zm-33.993-23.125-.409-3.204-30.066 7.65.409 3.204zm-33.993-23.124-.409-3.204-30.066 7.65.409 3.204zm-33.994-23.125-.409-3.203-30.066 7.65.409 3.203zm-33.993-23.125-.409-3.204-30.066 7.65.409 3.204zm-33.993-23.125-30.066 7.65-3.538-2.407 33.196-8.446z" fill="#9bb9c3"/><path d="m132.756 57.027 112.911 112.911-61.08 7.96-54.068 54.067-78.432-19.232-37.518-37.518c-7.425-7.424-7.425-19.574 0-26.998l91.189-91.189c7.424-7.425 19.574-7.425 26.998-.001z" fill="#fc685b"/><path d="m132.756 57.027 112.911 112.911-17.695 2.306-95.216-95.216c-7.424-7.424-19.574-7.424-26.999 0l-91.189 91.189c-1.077 1.077-1.996 2.252-2.76 3.499-4.507-7.349-3.588-17.151 2.76-23.499l91.189-91.189c7.425-7.425 19.575-7.425 26.999-.001z" fill="#f35244"/><path d="m119.257 103.161-58.554 58.554 12.87 12.87 43.923 10.77 41.977-41.977c-13.405-13.406-26.811-26.811-40.216-40.217z" fill="#eff4f7"/><path d="m64.028 158.39-3.325 3.325 12.869 12.87 43.924 10.77 41.977-41.977-4.658-4.659-38.652 38.652-43.923-10.77z" fill="#e2e3e3"/></g><g><path d="m15.03 332.977h404.5l25.63-56.834h41.202l-5.723 56.834h16.332c3.316 0 6.03 2.713 6.03 6.03v115.505c0 3.317-2.713 6.03-6.03 6.03h-481.941c-3.316 0-6.03-2.713-6.03-6.03v-115.505c0-3.317 2.713-6.03 6.03-6.03z" fill="#da8c36"/><path d="m472.847 276.143h13.515l-5.723 56.834h-13.515zm10.609 56.834c3.317 0 6.03 2.713 6.03 6.03v115.505c0 3.317-2.713 6.03-6.03 6.03h13.515c3.316 0 6.03-2.713 6.03-6.03v-115.505c0-3.317-2.713-6.03-6.03-6.03z" fill="#c97629"/><path d="m465.76 287.181c11.346 0 20.601-4.959 20.601-11.039s-9.255-11.038-20.601-11.038-20.601 4.958-20.601 11.038c-.001 6.08 9.254 11.039 20.601 11.039z" fill="#b06328"/><path d="m465.76 280.962c4.954 0 8.995-2.165 8.995-4.819s-4.041-4.819-8.995-4.819-8.995 2.165-8.995 4.819 4.041 4.819 8.995 4.819z" fill="#a35425"/></g></g><path d="m380.095 418.63c0 4.419-3.584 7.998-8.017 7.998h-119.78c-4.433 0-8.017-3.579-8.017-7.998s3.584-8.003 8.017-8.003h119.78c4.433 0 8.017 3.584 8.017 8.003zm-65.596-43.631h-149.206c-4.433 0-8.017-3.584-8.017-8.003s3.584-7.998 8.017-7.998h149.206c4.433 0 8.017 3.579 8.017 7.998 0 4.42-3.584 8.003-8.017 8.003zm-178.208 43.631c0 4.419-3.537 7.998-7.97 7.998h-82.809c-4.432 0-8.017-3.579-8.017-7.998s3.584-8.003 8.017-8.003h82.809c4.433 0 7.97 3.584 7.97 8.003zm-119.309 33.92h478.035v-76.763h-74.839c-4.433 0-8.017-3.579-8.017-7.998 0-4.409 3.584-8.003 8.017-8.003h74.839v-18.806h-14.383c-2.263 0-4.433-.952-5.942-2.631s-2.216-3.919-2.028-6.169l3.867-38.301c-3.301.839-6.932 1.311-10.752 1.311-7.168 0-13.581-1.594-18.485-4.282l-20.467 45.361c-1.273 2.872-4.15 4.711-7.309 4.711h-129.305l-6.461 1.646c-.66.16-1.32.246-1.98.246-1.556 0-3.159-.472-4.48-1.382-.236-.16-.472-.33-.66-.509h-259.65v18.019h74.839c4.433 0 8.017 3.579 8.017 7.998s-3.584 8.003-8.017 8.003h-74.839zm237.58-150.781-2.735-21.81c-.33-2.273-1.556-4.315-3.443-5.602-1.886-1.287-4.291-1.702-6.508-1.136l-21.268 5.418-2.783-21.806c-.283-2.273-1.556-4.31-3.442-5.602-1.886-1.288-4.244-1.702-6.461-1.137l-21.315 5.423-2.782-21.81c-.283-2.268-1.556-4.31-3.443-5.598-1.886-1.288-4.244-1.707-6.46-1.136l-26.597 6.757-4.291-2.938 45.271-45.309 54.467-7.102 146.613 146.599h-69.84c-.519-1.773-1.65-3.32-3.207-4.372-1.887-1.292-4.244-1.698-6.461-1.141l-21.315 5.423-2.782-21.801c-.283-2.282-1.509-4.319-3.395-5.612-1.934-1.287-4.291-1.698-6.508-1.127zm-234.326-132.206 35.934 35.934 71.868 17.628 50.883-50.883c1.273-1.245 2.877-2.047 4.622-2.273l44.988-5.861-5.8-5.805-95.635-95.617c-4.339-4.324-11.365-4.32-15.703 0l-91.155 91.193c-2.075 2.079-3.254 4.862-3.254 7.837-.002 2.98 1.177 5.762 3.252 7.847zm445.544 103.543c6.084 0 10.28 1.778 11.978 3.042-1.698 1.259-5.895 3.037-11.978 3.037s-10.327-1.778-12.025-3.037c1.698-1.264 5.942-3.042 12.025-3.042zm31.218 51.874h-7.498l4.669-46.596c.142-.731.189-1.476.189-2.235 0-10.856-12.261-19.042-28.578-19.042-15.279 0-27.021 7.168-28.483 16.981l-22.918 50.892h-2.358l-160.666-160.69s0-.005-.047-.005l-112.895-112.913c-10.563-10.563-27.729-10.563-38.292 0l-91.203 91.188c-5.093 5.102-7.922 11.907-7.922 19.155 0 7.253 2.829 14.058 7.922 19.16l37.537 37.519c.99 1.033 2.311 1.763 3.725 2.113l77.055 18.886 14.1 9.592c1.887 1.292 4.244 1.702 6.461 1.141l21.315-5.418 2.782 21.801c.283 2.273 1.509 4.315 3.443 5.602 1.886 1.287 4.244 1.702 6.46 1.136l21.268-5.418 2.782 21.81c.283 2.268 1.556 4.31 3.443 5.598 1.934 1.292 4.244 1.702 6.46 1.141l21.315-5.418 2.782 21.796c.283 2.283 1.556 4.31 3.442 5.602s4.244 1.707 6.461 1.141l21.315-5.423 1.415 10.903h-257.43c-7.734 0-14.053 6.3-14.053 14.03v115.508c0 7.734 6.319 14.034 14.053 14.034h481.95c7.734 0 14.006-6.3 14.006-14.034v-115.508c-.001-7.729-6.273-14.029-14.007-14.029zm-381.975-148.466-37.349-9.163-5.659-5.635 47.252-47.238 28.908 28.903zm52.439-33.133c0-2.122-.849-4.155-2.311-5.654l-40.225-40.22c-1.509-1.5-3.537-2.339-5.659-2.339s-4.15.839-5.659 2.339l-58.57 58.555c-1.509 1.5-2.358 3.537-2.358 5.654 0 2.122.849 4.159 2.358 5.659l12.874 12.869c1.038 1.038 2.358 1.769 3.773 2.113l43.904 10.771c.613.156 1.273.231 1.934.231 2.075 0 4.103-.825 5.612-2.344l42.017-41.975c1.461-1.5 2.31-3.537 2.31-5.659z"/></g></svg>