<svg id="Fill" viewBox="0 0 64 64" xmlns="http://www.w3.org/2000/svg"><g><path d="m54.044 48.04c.64 3.6-2.12 6.9-5.78 6.9h-32.53c-3.66 0-6.42-3.3-5.78-6.9l2.62-14.78v7.3c0 1.57 1.27 2.83 2.83 2.83h11.29v2.36c0 .55.45 1 1 1h8.61c.55 0 1-.45 1-1v-2.36h11.29c1.57 0 2.83-1.26 2.83-2.83v-7.3z" fill="#c08e5c"/><path d="m51.424 33.26v7.3c0 1.57-1.26 2.83-2.83 2.83h-11.29v-2.3c0-.55-.45-1-1-1h-8.61c-.55 0-1 .45-1 1v2.3h-11.29c-1.56 0-2.83-1.26-2.83-2.83v-16.1c0-1.56 1.27-2.83 2.83-2.83h3.23v3.64c0 .55.44 1 1 1h2.48c.55 0 1-.45 1-1v-3.64h17.16v3.64c0 .55.45 1 1 1h2.48c.55 0 1-.45 1-1v-3.64h3.84c1.57 0 2.83 1.27 2.83 2.83z" fill="#f8d18f"/><path d="m44.754 21.63v3.64c0 .55-.45 1-1 1h-2.48c-.55 0-1-.45-1-1v-4.45c0-.55.45-1 1-1h2.48c.55 0 1 .45 1 1z" fill="#976a4a"/><path d="m37.304 43.39v2.36c0 .55-.45 1-1 1h-8.61c-.55 0-1-.45-1-1v-4.66c0-.55.45-1 1-1h8.61c.55 0 1 .45 1 1z" fill="#f4b85b"/><path d="m23.114 21.63v3.64c0 .55-.45 1-1 1h-2.48c-.56 0-1-.45-1-1v-4.45c0-.55.44-1 1-1h2.48c.55 0 1 .45 1 1z" fill="#976a4a"/></g><path d="m55.028 47.865-2.604-14.692v-8.713c0-2.112-1.718-3.83-3.83-3.83h-2.86c-.098-1.012-.943-1.81-1.981-1.81h-.323c-.748-7.376-6.495-10.759-11.74-10.759s-10.987 3.383-11.734 10.759h-.323c-1.037 0-1.883.797-1.981 1.81h-2.25c-2.112 0-3.83 1.718-3.83 3.83v8.713l-2.604 14.692c-.357 2.009.188 4.058 1.497 5.619s3.229 2.456 5.268 2.456h32.532c2.04 0 3.96-.896 5.268-2.456 1.309-1.562 1.854-3.61 1.496-5.619zm-11.274-22.596h-2.479v-4.449h2.479zm-12.062-15.208c4.302 0 9.017 2.754 9.735 8.759h-.152c-1.037 0-1.883.797-1.981 1.81h-15.199c-.098-1.012-.943-1.81-1.981-1.81h-.152c.718-6.005 5.43-8.759 9.729-8.759zm-12.057 10.759h2.479v4.449h-2.479zm-6.061 3.64c0-1.009.821-1.83 1.83-1.83h2.23v2.64c0 1.103.897 2 2 2h2.479c1.103 0 2-.897 2-2v-2.64h15.16v2.64c0 1.103.897 2 2 2h2.479c1.103 0 2-.897 2-2v-2.64h2.841c1.009 0 1.83.821 1.83 1.83v16.1c0 1.009-.821 1.83-1.83 1.83h-10.29v-1.3c0-1.103-.897-2-2-2h-8.61c-1.103 0-2 .897-2 2v1.3h-10.289c-1.009 0-1.83-.821-1.83-1.83zm14.12 16.63h8.61v4.66h-8.61zm24.305 11.11c-.927 1.105-2.288 1.74-3.734 1.74h-32.531c-1.446 0-2.808-.635-3.734-1.74-.928-1.107-1.314-2.56-1.062-3.985l1.055-5.949c.63 1.254 1.915 2.124 3.411 2.124h10.29v1.36c0 1.103.897 2 2 2h8.61c1.103 0 2-.897 2-2v-1.36h10.29c1.496 0 2.781-.87 3.411-2.123l1.054 5.949c.254 1.426-.133 2.878-1.061 3.985z"/></svg>