<svg fill="none" height="24" viewBox="0 0 24 24" width="24" xmlns="http://www.w3.org/2000/svg"><path d="m17.1429 12h-5.382c-.3788 0-.725.214-.8944.5528l-.4473.8944c-.1693.3388-.51561.5528-.89438.5528h-2.38197c-.55228 0-1-.4477-1-1v-5c0-2.20914 1.79086-4 4.00005-4h7c.5522 0 1 .44772 1 1v6c0 .5523-.4478 1-1 1z" fill="#72cbde"/><path clip-rule="evenodd" d="m5.6012 8.00016c0-2.50829 2.03337-4.54166 4.5417-4.54166h7c.8514 0 1.5416.69022 1.5416 1.54166v6.00004c0 .8514-.6902 1.5416-1.5416 1.5416h-5.382c-.1736 0-.3323.0981-.4099.2534l-.4473.8944c-.2611.5223-.7949.8522-1.37887.8522h-2.38197c-.85144 0-1.54166-.6902-1.54166-1.5416zm4.5417-3.45833c-1.91002 0-3.45837 1.54835-3.45837 3.45833v5.00004c0 .2531.2052.4583.45833.4583h2.38197c.1736 0 .33231-.0981.40994-.2534l.44723-.8944c.2611-.5223.795-.8522 1.3789-.8522h5.382c.2531 0 .4583-.2052.4583-.4583v-6.00004c0-.25313-.2052-.45833-.4583-.45833z" fill="#1e3317" fill-rule="evenodd"/><path d="m14.1429 6v3h-6.00005v-1c0-1.10457.89543-2 2.00005-2z" fill="#fff"/><g clip-rule="evenodd" fill="#1e3317" fill-rule="evenodd"><path d="m7.6012 8.00016c0-1.40372 1.13794-2.54166 2.5417-2.54166h4c.2991 0 .5416.24251.5416.54166v3c0 .29916-.2425.54167-.5416.54167h-6.00004c-.29915 0-.54166-.24251-.54166-.54167zm2.5417-1.45833c-.80545 0-1.45837.65292-1.45837 1.45833v.45834h4.91667v-1.91667z"/><path d="m16.1429 5.4585c.2991 0 .5416.24251.5416.54166v3c0 .29916-.2425.54167-.5416.54167-.2992 0-.5417-.24251-.5417-.54167v-3c0-.29915.2425-.54166.5417-.54166z"/><path d="m8.14286 13.4585c.29916 0 .54167.2425.54167.5417v1.5c0 .2991-.24251.5416-.54167.5416-.29915 0-.54166-.2425-.54166-.5416v-1.5c0-.2992.24251-.5417.54166-.5417z"/><path d="m5.5 16.7143c0-.6706.54365-1.2143 1.21429-1.2143h2.85714c.67067 0 1.21427.5437 1.21427 1.2143v3.5714c0 .6706-.5436 1.2143-1.21427 1.2143h-2.85714c-.67064 0-1.21429-.5437-1.21429-1.2143zm1.21429-.2143c-.11835 0-.21429.0959-.21429.2143v3.5714c0 .1184.09594.2143.21429.2143h2.85714c.11834 0 .21428-.0959.21428-.2143v-3.5714c0-.1184-.09593-.2143-.21428-.2143z"/><path d="m6.92859 16.7143c0-.6706.54365-1.2143 1.21428-1.2143.67064 0 1.21429.5437 1.21429 1.2143v3.5714c0 .6706-.54365 1.2143-1.21429 1.2143-.67063 0-1.21428-.5437-1.21428-1.2143zm1.21428-.2143c-.11834 0-.21428.0959-.21428.2143v3.5714c0 .1184.09594.2143.21428.2143.11835 0 .21429-.0959.21429-.2143v-3.5714c0-.1184-.09594-.2143-.21429-.2143z"/></g></svg>