<svg id="Capa_1" enable-background="new 0 0 512 512" height="512" viewBox="0 0 512 512" width="512" xmlns="http://www.w3.org/2000/svg"><g><path d="m280.244 65.864c0-13.39-10.854-24.244-24.244-24.244s-24.244 10.854-24.244 24.244v24.47h48.488z" fill="#eab14d"/><path d="m256 80.232c-117.158 0-212.134 94.976-212.134 212.134s94.976 212.134 212.134 212.134 212.134-94.976 212.134-212.134-94.976-212.134-212.134-212.134zm0 391.943c-99.306 0-179.809-80.503-179.809-179.809s80.503-179.809 179.809-179.809 179.809 80.503 179.809 179.809-80.503 179.809-179.809 179.809z" fill="#f6e266"/><path d="m394.739 131.887c32.184 37.195 51.656 85.693 51.656 138.739 0 117.158-94.976 212.134-212.134 212.134-53.046 0-101.544-19.472-138.739-51.656 38.898 44.954 96.366 73.396 160.478 73.396 117.158 0 212.134-94.976 212.134-212.134 0-64.112-28.442-121.58-73.395-160.479z" fill="#ffd064"/><path d="m369.138 364.758h-226.276c-4.463 0-8.081-3.618-8.081-8.081v-16.163c0-4.463 3.618-8.081 8.081-8.081h226.276c4.463 0 8.081 3.618 8.081 8.081v16.163c.001 4.463-3.618 8.081-8.081 8.081z" fill="#c5d3dd"/><path d="m369.138 332.433h-26.264c4.463 0 8.081 3.618 8.081 8.081v16.163c0 4.463-3.618 8.081-8.081 8.081h26.264c4.463 0 8.081-3.618 8.081-8.081v-16.163c.001-4.463-3.618-8.081-8.081-8.081z" fill="#b6c4cf"/><path d="m418.384 144.479c-2.79-3.063-7.534-3.281-10.595-.493-3.062 2.79-3.282 7.533-.493 10.595 8.266 9.073 15.629 18.797 22.062 29.036l-15.075 8.704c-14.87-23.441-34.797-43.368-58.239-58.237l8.721-15.106c6.154 3.883 12.14 8.112 17.938 12.689 3.25 2.566 7.967 2.011 10.534-1.239 2.566-3.252 2.012-7.968-1.24-10.534-30.678-24.217-66.249-39.469-104.253-44.912v-9.119c0-14.919-10.349-27.461-24.244-30.84v-27.523c0-4.143-3.358-7.5-7.5-7.5s-7.5 3.357-7.5 7.5v27.523c-13.895 3.38-24.244 15.921-24.244 30.84v9.138c-46.62 6.709-89.657 28.156-123.56 62.061-41.481 41.484-64.326 96.64-64.326 155.308 0 58.663 22.845 113.816 64.327 155.299 41.482 41.484 96.637 64.331 155.303 64.331 50.401 0 97.797-16.603 137.065-48.014 3.234-2.587 3.759-7.307 1.172-10.541-2.589-3.237-7.308-3.761-10.542-1.172-6.105 4.883-12.425 9.373-18.929 13.48l-8.722-15.106c23.442-14.868 43.37-34.795 58.24-58.236l15.068 8.699c-6.203 9.877-13.269 19.274-21.177 28.063-2.771 3.08-2.52 7.821.56 10.592 1.433 1.29 3.227 1.925 5.014 1.925 2.053 0 4.097-.838 5.578-2.483 36.308-40.357 56.304-92.505 56.304-146.837-.001-54.852-20.332-107.375-57.247-147.891zm18.486 52.122c14.35 27.075 22.48 57.182 23.61 88.266h-17.333c-1.134-28.627-8.72-55.62-21.346-79.565zm-124.882 160.657v-17.325h17.325v17.325zm-32.325 0v-17.325h17.325v17.325zm-32.326 0v-17.325h17.325v17.325zm-32.325 0v-17.325h17.325v17.325zm-32.325 0v-17.325h17.325v17.325zm-39.825 0c-.321 0-.582-.261-.582-.581v-16.162c0-.321.261-.582.582-.582h24.825v17.325zm201.451-17.325h24.825c.321 0 .582.261.582.582v16.162c0 .32-.261.581-.582.581h-24.825zm-170.717-15v-183.856c24.493-13.395 52.574-21.017 82.404-21.017s57.911 7.623 82.404 21.017v183.856zm74.904-237.051v17.34c-28.626 1.133-55.618 8.719-79.564 21.344l-8.668-15.013c26.506-14.091 56.455-22.519 88.232-23.671zm94.564 38.685c-23.945-12.625-50.938-20.21-79.564-21.344v-17.351c31.259 1.107 61.178 9.137 88.291 23.578zm-103.808-60.704c0-9.232 7.511-16.743 16.744-16.743s16.744 7.511 16.744 16.743v7.497c-5.541-.412-11.123-.63-16.744-.63-5.617 0-11.201.213-16.744.628zm-91.966 53.212 8.666 15.01c-23.442 14.869-43.369 34.796-58.239 58.237l-15.006-8.664c16.406-26.061 38.521-48.176 64.579-64.583zm-78.437 165.791h-17.331c1.152-31.777 9.579-61.725 23.669-88.231l15.009 8.665c-12.626 23.947-20.213 50.939-21.347 79.566zm13.857 116.209 14.906-8.606c12.928 20.452 29.772 38.28 49.866 52.583 2.768 1.971 5.582 3.855 8.435 5.663l-8.626 14.941c-26.06-16.406-48.175-38.521-64.581-64.581zm165.79 95.773c-31.777-1.151-61.726-9.579-88.232-23.67l8.626-14.94c24.536 12.929 51.575 20.185 79.606 21.284zm103.299-23.554c-27.097 14.438-57.009 22.459-88.299 23.565v-17.352c28.626-1.133 55.618-8.718 79.564-21.342zm-95.799-8.624c-36.043 0-70.561-11.009-99.819-31.837-28.636-20.386-50.112-48.531-62.105-81.395-1.419-3.892-5.725-5.893-9.617-4.475-3.891 1.421-5.894 5.727-4.474 9.617 2.882 7.896 6.269 15.54 10.129 22.899l-14.925 8.617c-14.09-26.505-22.517-56.454-23.667-88.23h17.319c.285 7.175.976 14.342 2.067 21.392.634 4.094 4.458 6.893 8.56 6.265 4.093-.635 6.897-4.467 6.264-8.56-1.354-8.748-2.042-17.695-2.042-26.593 0-58.89 29.702-110.966 74.906-142.058v174.62h-15.734c-8.592 0-15.582 6.99-15.582 15.582v16.162c0 8.592 6.99 15.581 15.582 15.581h226.276c8.592 0 15.582-6.989 15.582-15.581v-16.162c0-8.592-6.99-15.582-15.582-15.582h-15.734v-174.62c45.203 31.092 74.906 83.168 74.906 142.058 0 95.007-77.298 172.3-172.31 172.3zm165.802-85.238c12.626-23.946 20.212-50.938 21.345-79.565h17.333c-1.131 31.061-9.27 61.177-23.621 88.258z"/></g></svg>