<svg id="Layer_1" viewBox="0 0 1000 1000" xmlns="http://www.w3.org/2000/svg" data-name="Layer 1"><path d="m868.1 639.6c-10.6-11.66-23.54-18.1-33.94-23.27-20-10-40.41-20-60.11-29.74l-.23-.11c-77.34-38.17-157.32-77.64-233.79-120-7.61-4.22-18-10-30.86-11.58-1.54-.19-3.1-.32-4.66-.38-.24 0-.48 0-.71 0q-.88 0-1.77 0c-17 0-31.52 7.35-40.2 11.74l-304.3 155c-1.54.79-3.15 1.55-4.84 2.36-6.45 3.07-14.48 6.89-21.39 13.44-9.28 8.76-14.53 20.59-15.19 34.19-1.19 24.33 13 47.58 34.56 56.54 12.42 5.17 24.61 5.17 33.51 5.17h.2l626.72-.07c13.61 0 24.87-1.5 34.41-4.57 16.94-5.45 29.43-16.59 35.16-31.34 7.27-18.9 2.47-40.85-12.57-57.38zm-4.25 50.77c-2.63 6.8-8.92 15.91-23.9 20.73-7.62 2.45-17.34 3.7-28.9 3.7l-626.91.07c-8.2 0-17.49 0-26.59-3.78-14.43-6-24.31-22.43-23.5-39.05.44-9.13 3.57-16.32 9.57-22 4.86-4.59 10.91-7.47 16.77-10.26 1.72-.82 3.5-1.67 5.26-2.56l304.29-155c7.26-3.67 19.35-9.79 32.05-9.79a40.81 40.81 0 0 1 5 .3c9.36 1.16 17.32 5.57 24.35 9.47 76.84 42.57 157 82.13 234.54 120.4l.15.07c19.76 9.75 40.13 19.81 60.14 29.76 9.53 4.74 20.32 10.1 28.64 19.26 10.38 11.47 13.86 26.31 9.04 38.68z" fill="#ffcc80"/><path d="m858.1 649.6c-10.6-11.66-23.54-18.1-33.94-23.27-20-10-40.41-20-60.11-29.74l-.23-.11c-77.34-38.17-157.32-77.64-233.79-120-7.61-4.22-18-10-30.86-11.58-1.54-.19-3.1-.32-4.66-.38-.24 0-.48 0-.71 0q-.88 0-1.77 0c-17 0-31.52 7.35-40.2 11.74l-304.3 155c-1.54.79-3.15 1.55-4.84 2.36-6.45 3.07-14.48 6.89-21.39 13.44-9.28 8.76-14.53 20.59-15.19 34.19-1.19 24.33 13 47.58 34.56 56.54 12.42 5.17 24.61 5.17 33.51 5.17h.2l626.72-.07c13.61 0 24.87-1.5 34.41-4.57 16.94-5.45 29.43-16.59 35.16-31.34 7.27-18.9 2.47-40.85-12.57-57.38zm-4.25 50.77c-2.63 6.8-8.92 15.91-23.9 20.73-7.62 2.45-17.34 3.7-28.9 3.7l-626.91.07c-8.2 0-17.49 0-26.59-3.78-14.43-6-24.31-22.43-23.5-39.05.44-9.13 3.57-16.32 9.57-22 4.86-4.59 10.91-7.47 16.77-10.26 1.72-.82 3.5-1.67 5.26-2.56l304.29-155c7.26-3.67 19.35-9.79 32.05-9.79a40.81 40.81 0 0 1 5 .3c9.36 1.16 17.32 5.57 24.35 9.47 76.84 42.57 157 82.13 234.54 120.4l.15.07c19.76 9.75 40.13 19.81 60.14 29.76 9.53 4.74 20.32 10.1 28.64 19.26 10.38 11.47 13.86 26.31 9.04 38.68z" fill="#fff" opacity=".5"/><g fill="#413b32"><path d="m891.78 618.07c-14.64-16.1-31.93-24.7-43.37-30.39-20.07-10-40.47-20-60.2-29.79l-.22-.11c-77-38-156.65-77.3-232.45-119.3-7.54-4.17-19.44-10.77-34.68-14-2.5-.54-5.09-1-7.77-1.32a91 91 0 0 0 -11.1-.68 92.82 92.82 0 0 0 -13.13.95c-18.62 2.65-33.57 10.22-41.56 14.26l-304.3 154.96c-1.24.63-2.63 1.29-4.1 2-7.58 3.61-19 9.07-29.61 19.07-15.39 14.56-24.09 33.88-25.16 55.89-1.84 37.55 20.46 73.59 54.22 87.65 18.32 7.62 35.53 7.62 45.81 7.62h.2l626.72-.07c17 0 31.46-2 44.21-6.11 26.3-8.47 45.9-26.3 55.19-50.21 11.71-30.21 4.52-64.85-18.7-90.42zm-11.15 78.82c-5.73 14.75-18.22 25.89-35.16 31.34-9.54 3.07-20.8 4.57-34.41 4.57l-626.72.07h-.2c-8.9 0-21.09 0-33.51-5.17-21.54-9-35.75-32.21-34.56-56.54.66-13.6 5.91-25.43 15.19-34.19 6.91-6.55 14.94-10.37 21.39-13.44 1.69-.81 3.3-1.57 4.84-2.36l304.3-155c8.68-4.39 23.2-11.74 40.2-11.74q.88 0 1.77 0h.71c1.56.06 3.12.19 4.66.38 12.82 1.59 23.25 7.36 30.86 11.58 76.47 42.37 156.45 81.84 233.79 120l.23.11c19.7 9.72 40.08 19.78 60.11 29.74 10.4 5.17 23.34 11.61 33.94 23.27 15.08 16.62 19.88 38.57 12.57 57.38z"/><path d="m854.78 651.71c-8.32-9.16-19.11-14.52-28.64-19.26-20-10-40.38-20-60.14-29.76l-.15-.07c-77.53-38.27-157.7-77.83-234.54-120.4-7-3.9-15-8.31-24.35-9.47a40.81 40.81 0 0 0 -5-.3c-12.7 0-24.79 6.12-32.05 9.79l-304.29 155c-1.76.89-3.54 1.74-5.26 2.56-5.86 2.79-11.91 5.67-16.77 10.26-6 5.68-9.13 12.87-9.57 22-.81 16.62 9.07 33 23.5 39.05 9.1 3.78 18.39 3.78 26.59 3.78l626.91-.07c11.56 0 21.28-1.25 28.9-3.7 15-4.82 21.27-13.93 23.9-20.73 4.85-12.39 1.37-27.23-9.04-38.68zm-24.63 28.93c-3.07 1-8.86 2.16-19.1 2.16l-626.72.07h-.19c-5.46 0-11.1 0-14.29-1.33-1.42-.59-4-4.35-3.84-7.95 0-.27 0-.49.05-.66a67.87 67.87 0 0 1 8.09-4.26c1.82-.87 3.88-1.85 6-2.93l304.26-155c4.67-2.36 12.5-6.32 17.57-6.32a8.57 8.57 0 0 1 1 .06c3.21.4 8.29 3.21 12.77 5.7 77.51 42.94 158 82.67 235.9 121.11l.2.09c19.68 9.72 40 19.76 60 29.69 7.68 3.82 14.94 7.43 19.22 12.14 2.42 2.66 2.88 4.82 2.89 5.51a10.77 10.77 0 0 1 -3.81 1.92z"/><path d="m520.86 373.58v64.94a16 16 0 0 1 -16 16h-.35-.71a16 16 0 0 1 -14.9-16v-64.94a16 16 0 0 1 15.14-16h.82a16 16 0 0 1 15.92 14.39c.05.51.08 1.03.08 1.61z"/><path d="m504.86 389.58a77.23 77.23 0 1 1 65-119 16 16 0 0 1 -26.9 17.33 45.23 45.23 0 1 0 -38.06 69.67 16 16 0 0 1 0 32z"/></g></svg>