<svg id="Capa_1" enable-background="new 0 0 512.05 512.05" height="512" viewBox="0 0 512.05 512.05" width="512" xmlns="http://www.w3.org/2000/svg"><g><path d="m7.502 318.149h497.046v31.062h-497.046z" fill="#544f56"/><g fill="#444145"><path d="m7.501 318.149h20v31.062h-20z"/><path d="m100.739 318.149h31.062v31.062h-31.062z"/><path d="m162.863 318.149h31.062v31.062h-31.062z"/><path d="m224.988 318.149h31.027v31.062h-31.027z"/><path d="m287.112 318.149h31.062v31.062h-31.062z"/><path d="m349.237 318.149h31.062v31.062h-31.062z"/></g><path d="m7.552 162.838h496.996v155.311h-496.996z" fill="#ed8945"/><path d="m7.552 162.838h20v155.311h-20z" fill="#d76f42"/><circle cx="53.645" cy="239.994" fill="#444145" r="15.031"/><circle cx="457.954" cy="239.994" fill="#444145" r="15.031"/><path d="m100.739 162.838h310.623v155.311h-310.623z" fill="#f1f6f7"/><path d="m131.801 162.838h248.498v124.249h-248.498z" fill="#725539"/><path d="m131.801 162.838h20v124.249h-20z" fill="#704e33"/><g><path d="m504.55 155.335h-185.56c-4.143 0-7.5 3.358-7.5 7.5s3.357 7.5 7.5 7.5h53.81v109.25h-233.5v-109.25h147c4.143 0 7.5-3.358 7.5-7.5s-3.357-7.5-7.5-7.5h-278.75c-4.143 0-7.5 3.358-7.5 7.5l-.05 186.38c0 4.142 3.357 7.5 7.5 7.5h434.109c4.143 0 7.5-3.358 7.5-7.5s-3.357-7.5-7.5-7.5h-22.748v-16.07h78.188v16.07h-22.749c-4.143 0-7.5 3.358-7.5 7.5s3.357 7.5 7.5 7.5h30.25c4.143 0 7.5-3.358 7.5-7.5v-186.38c0-4.142-3.358-7.5-7.5-7.5zm-489.5 15h78.19v38.28c0 4.142 3.357 7.5 7.5 7.5s7.5-3.358 7.5-7.5v-38.28h16.06v116.75c0 4.142 3.357 7.5 7.5 7.5h248.5c4.143 0 7.5-3.358 7.5-7.5v-116.75h16.06v140.31h-295.62v-69.34c0-4.142-3.357-7.5-7.5-7.5s-7.5 3.358-7.5 7.5v69.34h-78.19zm78.188 171.38h-78.238v-16.07h78.238zm31.063 0h-16.063v-16.07h16.063zm31.062 0h-16.063v-16.07h16.063zm31.063 0h-16.063v-16.07h16.063zm31.061 0h-16.062v-16.07h16.062zm31.028 0h-16.027v-16.07h16.027zm31.097 0h-16.098v-16.07h16.098zm31.062 0h-16.062v-16.07h16.062zm31.062 0h-16.063v-16.07h16.063zm31.063 0h-16.063v-16.07h16.063zm31.062 0h-16.063v-16.07h16.063zm14.998-31.07v-140.31h78.19v140.31z"/><path d="m53.646 217.463c-12.424 0-22.531 10.107-22.531 22.531s10.107 22.531 22.531 22.531 22.531-10.107 22.531-22.531-10.108-22.531-22.531-22.531zm0 30.062c-4.152 0-7.531-3.378-7.531-7.531 0-4.152 3.379-7.531 7.531-7.531s7.531 3.378 7.531 7.531c0 4.152-3.379 7.531-7.531 7.531z"/><path d="m457.954 217.463c-12.424 0-22.531 10.107-22.531 22.531s10.107 22.531 22.531 22.531 22.531-10.107 22.531-22.531-10.107-22.531-22.531-22.531zm0 30.062c-4.152 0-7.531-3.378-7.531-7.531 0-4.152 3.379-7.531 7.531-7.531s7.531 3.378 7.531 7.531c0 4.152-3.379 7.531-7.531 7.531z"/><path d="m155.363 224.963c0 4.142 3.357 7.5 7.5 7.5h186.373c4.143 0 7.5-3.358 7.5-7.5s-3.357-7.5-7.5-7.5h-186.373c-4.142 0-7.5 3.358-7.5 7.5z"/></g></g></svg>