<svg id="Filled_Expand" height="512" viewBox="0 0 64 64" width="512" xmlns="http://www.w3.org/2000/svg" data-name="Filled Expand"><path d="m12 53h40v9h-40z" fill="#96e1ff"/><path d="m62 28a14 14 0 0 0 -14-14c-.175 0-.344.02-.518.026a15.979 15.979 0 0 0 -30.964 0c-.174-.006-.343-.026-.518-.026a14 14 0 0 0 -4 27.413v11.587h40v-11.587a14 14 0 0 0 10-13.413z" fill="#ebf5ff"/><path d="m48.8 12.27a17.745 17.745 0 0 0 -33.592 0 15.747 15.747 0 0 0 -4.958 30.388v19.342a1.75 1.75 0 0 0 1.75 1.75h40a1.75 1.75 0 0 0 1.75-1.75v-19.342a15.747 15.747 0 0 0 -4.95-30.388zm1.45 47.98h-36.5v-5.5h36.5zm-2.25-20a1.75 1.75 0 0 0 0 3.5 15.9 15.9 0 0 0 2.25-.163v7.663h-36.5v-7.663a15.9 15.9 0 0 0 2.25.163 1.75 1.75 0 0 0 0-3.5 12.248 12.248 0 0 1 -1.616-24.39 17.779 17.779 0 0 0 -.134 2.14 1.75 1.75 0 0 0 3.5 0 14.25 14.25 0 0 1 28.5 0 1.75 1.75 0 0 0 3.5 0 17.779 17.779 0 0 0 -.134-2.14 12.248 12.248 0 0 1 -1.616 24.39z"/></svg>