<svg id="Layer_1" viewBox="0 0 96 96" xmlns="http://www.w3.org/2000/svg" data-name="Layer 1"><path d="m85.36 31.43c-3.12-8.71-16.6-15.48-31.49-16.38l.95-6.8c.07-1.1-.32-2.19-1.08-2.99-.75-.8-1.81-1.26-2.91-1.26h-5.62c-1.1 0-2.16.46-2.91 1.26s-1.15 1.89-1.07 3.07l.94 6.72c-14.91.9-28.41 7.66-31.53 16.38-1.78 4.98.1 9.93 5.29 14.01-.37 14.97 4.15 28.1 12.77 37 5.76 5.93 12.9 9.5 19.15 9.56h.21c6.25-.06 13.4-3.63 19.15-9.56 8.61-8.89 13.13-21.99 12.78-36.94 5.25-4.08 7.16-9.07 5.37-14.07zm-41.6-24.8c.38-.41.9-.63 1.45-.63h5.62c.56 0 1.07.22 1.45.63.39.41.58.94.55 1.42l-.97 6.91c-1.28-.03-2.57-.02-3.86.04-1.28-.06-2.55-.07-3.82-.04l-.96-6.84c-.04-.55.15-1.08.54-1.49zm22.02 74.41c-5.34 5.51-12.16 8.93-17.82 8.96-5.67-.03-12.49-3.45-17.82-8.96-7.99-8.24-12.3-20.36-12.23-34.24 3.53 2.01 7.62 2.4 10.61.9.9-.46 1.64-1.05 2.2-1.76.77 2 2.15 3.65 4.03 4.73 3.06 1.76 6.94 1.79 9.89.08 1.49-.86 2.62-2.07 3.36-3.56.74 1.49 1.87 2.7 3.36 3.56 1.45.84 3.13 1.26 4.82 1.26s3.51-.45 5.07-1.34c1.88-1.08 3.26-2.73 4.03-4.73.56.71 1.3 1.3 2.2 1.76 2.97 1.48 7.01 1.11 10.53-.86.05 13.87-4.25 25.97-12.23 34.2zm12.64-36.85c-3.18 2.38-7.31 3.09-10.04 1.72-1.1-.55-2.4-1.67-2.4-3.91 0-.55-.45-1-1-1s-1 .45-1 1c0 3.09-1.33 5.55-3.73 6.94-2.45 1.41-5.54 1.44-7.89.08-2.01-1.16-3.18-3.21-3.36-5.8.01-.24.02-.48.02-.72 0-.55-.45-1-1-1h-.04c-.55 0-1 .45-1 1 0 .24.01.48.02.72-.18 2.59-1.35 4.64-3.36 5.8-2.35 1.36-5.44 1.33-7.89-.08-2.4-1.39-3.73-3.85-3.73-6.94 0-.55-.45-1-1-1s-1 .45-1 1c0 2.24-1.3 3.36-2.4 3.91-2.73 1.37-6.86.66-10.04-1.72-4.85-3.62-6.59-7.8-5.06-12.09 2.59-7.22 14.77-14.53 30.72-15.12.08 0 .14.02.22.01.02 0 .03-.01.05-.02 1.46-.05 2.94-.04 4.46.03.05 0 .11 0 .16-.01 1.5-.06 2.97-.06 4.41-.02.02.01.03.02.04.02.05.01.1.01.14.01s.07-.01.1-.02c15.93.61 28.07 7.9 30.66 15.12 1.53 4.29-.21 8.47-5.06 12.09z"/><path d="m52.83 8.05-.97 6.91c-1.28-.03-2.57-.02-3.86.04-1.28-.06-2.55-.07-3.82-.04l-.96-6.84c-.04-.55.15-1.08.54-1.49.38-.41.9-.63 1.45-.63h5.62c.56 0 1.07.22 1.45.63.39.41.58.94.55 1.42z" fill="#4e342e"/><path d="m78.42 44.19c-3.18 2.38-7.31 3.09-10.04 1.72-1.1-.55-2.4-1.67-2.4-3.91 0-.55-.45-1-1-1s-1 .45-1 1c0 3.09-1.33 5.55-3.73 6.94-2.45 1.41-5.54 1.44-7.89.08-2.01-1.16-3.18-3.21-3.36-5.8.01-.24.02-.48.02-.72 0-.55-.45-1-1-1h-.04c-.55 0-1 .45-1 1 0 .24.01.48.02.72-.18 2.59-1.35 4.64-3.36 5.8-2.35 1.36-5.44 1.33-7.89-.08-2.4-1.39-3.73-3.85-3.73-6.94 0-.55-.45-1-1-1s-1 .45-1 1c0 2.24-1.3 3.36-2.4 3.91-2.73 1.37-6.86.66-10.04-1.72-4.85-3.62-6.59-7.8-5.06-12.09 2.59-7.22 14.77-14.53 30.72-15.12.08 0 .14.02.22.01.02 0 .03-.01.05-.02 1.46-.05 2.94-.04 4.46.03.05 0 .11 0 .16-.01 1.5-.06 2.97-.06 4.41-.02.02.01.03.02.04.02.05.01.1.01.14.01s.07-.01.1-.02c15.93.61 28.07 7.9 30.66 15.12 1.53 4.29-.21 8.47-5.06 12.09z" fill="#4e342e"/><path d="m67.48 47.7c-.9-.46-1.64-1.05-2.2-1.76-.77 2-2.15 3.65-4.03 4.73-1.56.89-3.32 1.34-5.07 1.34s-3.37-.42-4.82-1.26c-1.49-.86-2.62-2.07-3.36-3.56-.74 1.49-1.87 2.7-3.36 3.56-2.95 1.71-6.83 1.68-9.89-.08-1.88-1.08-3.26-2.73-4.03-4.73-.56.71-1.3 1.3-2.2 1.76-2.99 1.5-7.08 1.11-10.61-.9-.07 13.88 4.24 26 12.23 34.24 5.33 5.51 12.15 8.93 17.82 8.96 5.66-.03 12.48-3.45 17.82-8.96 7.98-8.23 12.28-20.33 12.23-34.2-3.52 1.97-7.56 2.34-10.53.86zm-1.6 22.81c-3.92 6.57-9.47 9.95-12.42 11.39-.14.07-.29.1-.44.1-.37 0-.73-.21-.9-.56-.24-.5-.03-1.1.46-1.34 2.76-1.34 7.93-4.5 11.58-10.61 3.71-6.21 4.01-12.34 3.86-15.44-.03-.55.4-1.02.95-1.05.52-.01 1.02.4 1.05.95.16 3.33-.16 9.91-4.14 16.56z" fill="#795548"/><path d="m65.88 70.51c-3.92 6.57-9.47 9.95-12.42 11.39-.14.07-.29.1-.44.1-.37 0-.73-.21-.9-.56-.24-.5-.03-1.1.46-1.34 2.76-1.34 7.93-4.5 11.58-10.61 3.71-6.21 4.01-12.34 3.86-15.44-.03-.55.4-1.02.95-1.05.52-.01 1.02.4 1.05.95.16 3.33-.16 9.91-4.14 16.56z"/></svg>