<svg id="Capa_1" enable-background="new 0 0 511.838 511.838" height="512" viewBox="0 0 511.838 511.838" width="512" xmlns="http://www.w3.org/2000/svg"><g><path d="m358.43 504.332 53.611-16.176 44.991-148.085-35.551-43.266z" fill="#544f56"/><path d="m436.082 314.575-14.601-17.77-63.051 207.527 22.018-6.643z" fill="#444145"/><path d="m313.789 490.769 44.641 13.563 63.051-207.527-44.641-13.563c-16.381-4.977-33.696 4.268-38.673 20.649l-45.028 148.204c-4.977 16.383 4.268 33.697 20.65 38.674z" fill="#b3e59f"/><path d="m333.789 490.769c-16.381-4.977-25.627-22.292-20.649-38.673l45.028-148.204c3.017-9.931 10.571-17.231 19.7-20.338l-1.027-.312c-16.381-4.977-33.696 4.268-38.673 20.649l-45.028 148.204c-4.977 16.381 4.268 33.696 20.649 38.673l44.641 13.563 1.69-5.563z" fill="#95d6a4"/><path d="m198.077 490.769-44.641 13.563-63.051-207.527 44.641-13.563c16.381-4.977 33.696 4.268 38.673 20.649l45.028 148.204c4.976 16.383-4.269 33.697-20.65 38.674z" fill="#b3e59f"/><path d="m110.385 296.805 43.614-13.251c-5.93-2.018-12.522-2.272-18.973-.312l-44.641 13.563 63.051 207.527 18.31-5.563z" fill="#95d6a4"/><path d="m153.436 504.332-53.611-16.176-44.992-148.085 35.552-43.266z" fill="#544f56"/><path d="m119.825 488.156-42.658-140.404c-1.458-4.799-.421-10.009 2.763-13.884l15.854-19.294-5.399-17.77-35.551 43.266 44.992 148.085 53.611 16.176-2.018-6.644z" fill="#444145"/><g><path d="m422.796 453.003 41.38-137.935c6.005-20.016 9.05-40.762 9.05-61.661 0-118.324-96.264-214.587-214.587-214.587h-5.459c-118.324 0-214.587 96.264-214.587 214.587 0 20.899 3.045 41.645 9.05 61.661l41.38 137.935c-16.558 4.967-34.007-4.429-38.974-20.986l-32.386-107.955c-6.881-22.936-10.37-46.708-10.37-70.655 0-66.245 26.019-128.491 73.224-175.066 46.398-45.78 109.368-70.822 174.548-70.822h1.689c65.181 0 128.151 25.042 174.548 70.821 47.204 46.575 73.224 108.821 73.224 175.066 0 23.948-3.489 47.719-10.37 70.655l-32.386 107.956c-4.967 16.557-22.416 25.953-38.974 20.986z" fill="#c8c3ca"/></g><g><g fill="#b1abb4"><path d="m65.049 432.017-32.386-107.955c-6.881-22.936-10.37-46.708-10.37-70.655 0-66.245 26.019-128.491 73.224-175.066 44.816-44.219 105.095-69.085 167.893-70.729-2.216-.058-4.434-.093-6.656-.093h-1.689c-65.181 0-128.151 25.042-174.548 70.821-47.205 46.576-73.224 108.821-73.224 175.067 0 23.948 3.489 47.719 10.37 70.655l32.386 107.955c4.818 16.061 21.381 25.382 37.482 21.393-10.385-2.574-19.185-10.402-22.482-21.393z"/><path d="m437.796 453.003 41.38-137.935c6.005-20.016 9.05-40.762 9.05-61.661 0-118.324-96.264-214.587-214.587-214.587h-5.459c-1.595 0-3.184.026-4.771.061 116.129 2.547 209.817 97.798 209.817 214.527 0 20.899-3.045 41.645-9.05 61.661l-41.38 137.935c5.567 1.67 11.232 1.71 16.492.407-.498-.125-.995-.259-1.492-.408z"/></g></g><path d="m436.567 72.997c-47.527-46.885-113.196-72.981-179.818-72.981-168.256-1.724-294.804 164.392-246.273 326.206l32.39 107.951c5.275 17.574 22.882 29.298 41.059 27.44l8.728 28.723c.729 2.399 2.608 4.276 5.009 5l53.61 16.18c1.399.423 2.95.428 4.348-.004l44.637-13.569c20.103-6.099 31.746-27.932 25.648-48.027l-45.03-148.2c-6.107-20.097-27.925-31.758-48.026-25.646l-44.64 13.56c-1.399.424-2.682 1.29-3.614 2.414l-26.398 32.115c-42.124-128.427 43.616-268.739 181.843-277.428 4.134-.26 7.274-3.822 7.015-7.956-.261-4.134-3.828-7.269-7.956-7.015-116.641 7.333-208.009 104.691-208.009 221.646 0 21.618 3.151 43.088 9.366 63.815l38.879 129.605c-10.141-.297-19.168-7.19-22.102-16.966l-32.39-107.949c-45.607-152.07 73.294-308.72 231.906-306.895 157.742 0 275.828 154.84 230.227 306.895l-32.39 107.949c-3.019 10.059-12.135 16.654-22.099 16.955l38.876-129.595c40.354-134.582-58.412-276.645-198.644-285.46-4.135-.248-7.696 2.88-7.956 7.015-.26 4.134 2.881 7.696 7.015 7.956 138.305 8.693 223.865 149.048 181.855 277.389l-26.36-32.077c-.94-1.121-2.211-1.988-3.614-2.414l-44.638-13.56c-20.097-6.109-41.931 5.54-48.028 25.646l-45.029 148.199c-6.109 20.094 5.544 41.929 25.645 48.027l44.64 13.57c1.405.428 2.942.428 4.348.004l53.61-16.18c2.4-.725 4.28-2.601 5.009-5l8.721-28.707c18.107 1.812 35.595-9.393 41.016-27.458l32.391-107.951c26.732-89.132 1.412-187.916-64.777-253.222zm-349.281 239.395 22.827 75.125c1.126 3.705 4.859 5.901 8.583 5.186.258-.05.517-.112.774-.19 3.963-1.205 6.2-5.394 4.996-9.357l-24.719-81.354 37.465-11.38c14.095-2.88 23.865 2.338 29.312 15.654l6.867 22.6-23.305 7.081c-3.963 1.204-6.2 5.393-4.996 9.356 2.428 4.426 5.547 6.091 9.356 4.996l23.305-7.081 9.185 30.229-23.306 7.081c-3.963 1.205-6.2 5.394-4.996 9.356 2.428 4.426 5.547 6.091 9.356 4.996l23.306-7.081 9.185 30.229-23.307 7.081c-3.963 1.204-6.2 5.393-4.996 9.356 2.428 4.426 5.547 6.091 9.356 4.996l23.307-7.081 6.71 22.083c2.876 14.095-2.342 23.867-15.654 29.316l-37.463 11.389-24.469-80.553c-1.204-3.963-5.394-6.202-9.356-4.996-4.426 2.419-6.091 5.538-4.996 9.356l22.576 74.32-36.35-10.971-42.45-140.671zm318.744 169.744-36.35 10.971 36.266-119.371c1.204-3.963-1.033-8.152-4.996-9.356-3.963-1.205-8.152 1.032-9.356 4.996l-38.159 125.603-37.467-11.39c-13.313-5.448-18.53-15.219-15.651-29.313l6.71-22.085 23.304 7.08c3.809 1.095 6.928-.571 9.356-4.996 1.204-3.963-1.033-8.152-4.996-9.356l-23.304-7.08 9.185-30.229 23.303 7.08c3.809 1.095 6.928-.571 9.356-4.996 1.204-3.963-1.033-8.152-4.996-9.356l-23.303-7.08 9.185-30.229 23.302 7.08c3.809 1.095 6.928-.571 9.356-4.996 1.204-3.963-1.033-8.152-4.996-9.356l-23.302-7.08 6.868-22.605c5.446-13.316 15.218-18.533 29.313-15.65l37.462 11.38-11.029 36.293c-1.205 3.963 1.032 8.152 4.995 9.356 5.103.245 8.221-1.42 9.356-4.995l9.137-30.066 23.86 29.036z"/></g></svg>