<svg id="Capa_1" enable-background="new 0 0 512 512" height="512" viewBox="0 0 512 512" width="512" xmlns="http://www.w3.org/2000/svg"><g><path d="m447.908 479.953 28.77-18.493c2.004-1.288 3.215-3.506 3.215-5.888v-23.475l10.297-16.113v-65.738l-10.297-14.223-31.985-15.992-10.297 18.889v122.534z" fill="#ffe04a"/><path d="m64.092 479.953-28.77-18.493c-2.004-1.288-3.215-3.506-3.215-5.888v-23.475l-10.297-16.637v-60.066l10.297-19.372 31.985-15.992 10.297 15.992v125.431z" fill="#ffe04a"/><path d="m415.939 495.945h24.969c3.866 0 7-3.134 7-7v-177.908c0-3.866-3.134-7-7-7h-24.969c-17.673 0-32 14.327-32 32v127.908c0 17.674 14.327 32 32 32z" fill="#356487"/><path d="m437.48 495.948h-21.54c-17.67 0-32-14.33-32-32v-127.91c0-17.67 14.33-32 32-32h21.54c-18.2 0-32.95 14.75-32.95 32.95v126.01c0 18.19 14.75 32.95 32.95 32.95z" fill="#20526b"/><path d="m96.061 495.945h-24.969c-3.866 0-7-3.134-7-7v-177.908c0-3.866 3.134-7 7-7h24.969c17.673 0 32 14.327 32 32v127.908c0 17.674-14.327 32-32 32z" fill="#356487"/><path d="m64.092 311.037v177.908c0 3.866 3.134 7 7 7h13.594v-191.908h-13.594c-3.866 0-7 3.134-7 7z" fill="#20526b"/><path d="m505 432.097h-25.23v-158.111c0-123.017-100.641-225.645-223.659-225.705-123.438-.06-223.881 100.346-223.881 223.77v160.046h-25.23c-3.866 0-7-3.134-7-7v-153.046c0-59.124 19.908-115.187 56.551-160.537 5.737-7.1 84.466-74.869 199.449-74.869 112.923 0 193.712 67.769 199.449 74.869 36.643 45.35 56.551 101.413 56.551 160.537v153.046c0 3.866-3.134 7-7 7z" fill="#c3e4ed"/><g fill="#add6e0"><path d="m15 425.097v-153.046c0-59.124 19.908-115.187 56.551-160.537 5.61-6.943 81.024-71.904 191.884-74.77-2.462-.065-4.941-.099-7.435-.099-114.983 0-193.712 67.769-199.449 74.869-36.643 45.35-56.551 101.413-56.551 160.537v153.046c0 3.866 3.134 7 7 7h15c-3.866 0-7-3.134-7-7z"/><path d="m271.111 48.281c-2.563-.001-5.117.041-7.66.126 119.655 4.04 216.319 105.017 216.319 225.579v158.111h15v-158.111c0-123.018-100.642-225.645-223.659-225.705z"/></g><path d="m437.019 91.032c-48.352-48.352-112.639-74.98-181.019-74.98s-132.667 26.628-181.019 74.98c-6.545 6.545-12.692 13.383-18.429 20.483l21.836 24.565s0 .001.001.001c10.936 12.3 30.026 12.922 41.609 1.229 34.725-35.059 82.874-56.803 136.002-56.803s101.277 21.745 136.003 56.802c11.583 11.693 30.673 11.071 41.609-1.229 0 0 0 0 0-.001l21.836-24.565c-5.737-7.099-11.884-13.937-18.429-20.482z" fill="#ffe04a"/><path d="m98.982 136.08-13.163-14.808c-5.075-5.709-5.049-14.318.053-20.002 3.129-3.486 6.364-6.901 9.702-10.239 45.918-45.917 106.205-72.243 170.722-74.778-3.3-.13-6.611-.197-9.932-.202-67.958-.093-133.331 26.927-181.384 74.982-6.545 6.545-12.692 13.382-18.428 20.482l21.836 24.565s.001.001.001.001c8.192 9.214 20.959 11.874 31.719 7.714-4.137-1.59-7.971-4.167-11.126-7.715z" fill="#ffcb39"/></g></svg>