<svg enable-background="new 0 0 32 32" viewBox="0 0 32 32" xmlns="http://www.w3.org/2000/svg"><g id="Grid" display="none"/><g id="coin"/><g id="bomb"/><g id="gem"/><g id="ufo"/><g id="medal"/><g id="viking_helmet"/><g id="sword"/><g id="rocket"/><g id="torch"/><g id="spear"/><g id="money_bag"/><g id="crown"/><g id="heart"><path d="m9.794 25.247c3.781 2.498 8.634 2.499 12.415.001 4.557-3.011 8.381-7.597 7.716-12.847-.987-7.796-9.039-9.859-13.925-4.625-4.887-5.234-12.939-3.17-13.925 4.625-.661 5.25 3.162 9.835 7.719 12.846z" fill="#e96565"/><path d="m22.21 25.252c-3.78 2.49-8.64 2.49-12.42-.01-4.55-3.01-8.38-7.59-7.72-12.84.03-.25.07-.5.12-.74.71 4.04 3.92 7.53 7.62 9.97 3.77 2.49 8.61 2.49 12.38 0 3.69-2.44 6.89-5.91 7.61-9.94.05.23.09.47.12.71.67 5.25-3.15 9.83-7.71 12.85z" fill="#e05353"/><path d="m13.463 7.476c-1.561-1.033-3.419-1.384-5.062-1.025-.228.05-.373.277-.323.505.05.23.279.375.506.324 1.419-.312 3.041-.001 4.41.904.072.048.153.07.234.07.138 0 .273-.066.355-.19.13-.195.076-.458-.12-.588z" fill="#ff9292"/><path d="m6.332 7.361c-.092.066-.184.134-.273.205-.184.146-.214.414-.068.597.084.105.208.16.333.16.092 0 .186-.03.264-.092.078-.063.156-.121.237-.178.191-.137.236-.402.1-.593s-.402-.235-.593-.099z" fill="#ff9292"/><path d="m30.347 12.347c-.47-3.707-2.589-6.516-5.671-7.512-2.958-.955-6.244-.063-8.676 2.331-2.432-2.394-5.719-3.285-8.676-2.331-3.082.996-5.202 3.805-5.671 7.513-.593 4.71 2.289 9.541 7.907 13.253 1.957 1.294 4.199 1.94 6.442 1.94 2.242-.001 4.485-.646 6.441-1.939 5.618-3.712 8.499-8.543 7.904-13.255zm-8.373 12.546c-3.63 2.396-8.318 2.397-11.946-.001-2.525-1.669-8.315-6.221-7.532-12.438.426-3.372 2.329-5.918 5.089-6.811.697-.225 1.416-.335 2.136-.335 2.141 0 4.299.97 5.968 2.757.16.172.461.172.621 0 2.231-2.389 5.336-3.313 8.104-2.422 2.76.893 4.662 3.438 5.089 6.811.787 6.217-5.003 10.77-7.529 12.439z"/></g><g id="skull"/><g id="star"/><g id="shield"/><g id="crystal"/><g id="gift"/><g id="map"/><g id="poison"/><g id="axe"/><g id="fried_chicken"/><g id="witch_hat"/><g id="fire"/><g id="lightning"/></svg>