<svg id="Layer_1" enable-background="new 0 0 512.011 512.011" viewBox="0 0 512.011 512.011" xmlns="http://www.w3.org/2000/svg"><g><g><path d="m165.571 367.836-19.882 37.673c-1.853 3.511-5.496 5.708-9.466 5.708h-22.832c-3.091 0-4.579-3.791-2.313-5.893l11.774-10.926 6.797-46.446 36.92-15.738z" fill="#fece85"/><path d="m333.926 364.956-15.802 39.53c-1.625 4.065-5.561 6.73-9.939 6.73h-17.747c-2.978 0-4.518-3.557-2.479-5.728l9.349-9.958-8.496-30.574z" fill="#fece85"/><path d="m105.025 352.339s-35.024 21.621-70.523 32.051c-3.548 1.042-7.384.102-10.093-2.414l-13.525-12.559c-4.135-3.84-4.518-10.254-.869-14.559l16.907-19.942 13.217-45.059 203.067-36.648 13.818 12.016 154.381 75.021-37.359 65.567c-1.904 3.341-5.454 5.405-9.3 5.405h-19.41c-2.874 0-4.452-3.344-2.625-5.562l12.241-14.865-21.028-25.834s-69.091 22.229-114.15 4.806l-1.202 19.225-16.024 18.528c-2.033 2.351-4.988 3.702-8.096 3.702h-21.513c-2.975 0-4.516-3.551-2.483-5.724l12.068-12.901c.003-.001-7.207-42.056-77.499-40.254z" fill="#ffefd2"/><g fill="#fce1be"><path d="m105.021 352.336s-35.02 21.62-70.52 32.05c-3.55 1.05-7.38.11-10.09-2.41l-3.33-3.1c29.21-11.07 54.27-26.54 54.27-26.54 6.21-.16 24.51-1.09 29.67 0z"/><path d="m411.411 340.246-37.36 65.57c-1.91 3.34-5.46 5.4-9.3 5.4h-19.41c-2.88 0-4.46-3.34-2.63-5.56l11.73-14.26.05-.05.46-.56 33.37-61.76z"/><path d="m354.951 390.786c-.11.19-.26.38-.46.56z"/></g><path d="m40.139 289.857s5.39-101.409 55.873-133.03l-6.102 41.884s39.388-80.718 122.047-97.915l-30.512 41.052s66.016-38.833 130.369-31.067l-37.169 26.628s84.878-7.212 117.054 17.752l-44.936 10.54s83.214 18.307 109.288 47.155l-27.338 12.205c28.459 7.278 52.371 20.048 75.798 38.279 0 0-35.145 8.321-52.897 6.657 24.939 6.702 35.48 16.614 49.786 29.69 0 0-46.182 4.271-72.687-6.39l30.45 29.068s-43.721-8.542-52.541-12.98l19.231 36.209-146.652-12.277c-6.344-.734-12.58-2.211-18.579-4.4l-134.529-49.082c-6.744-2.382-13.993-2.966-21.032-1.696z" fill="#918291"/><path d="m451.611 269.996c24.94 6.7 35.48 16.61 49.79 29.69 0 0-46.18 4.27-72.69-6.39l30.45 29.07s-43.72-8.54-52.54-12.98l19.23 36.21-44.471-3.724-4.429-32.486c-6.42-52.65 74.532-48.101 24.25-94.16-28.38-25.997-70.301-28.603-89.39-34.113-5.17-1.49-11.472-13.68 17.14-24.687l38.68-12.56c9.37 2.72 17.74 6.39 24.07 11.3l-44.94 10.54s83.22 18.3 109.29 47.15l-27.34 12.21c28.46 7.27 52.37 20.04 75.8 38.27 0 0-35.15 8.33-52.9 6.66z" fill="#7a6d79"/></g><g><path d="m76.864 330.199c1.131.609 2.349.897 3.549.897 2.67 0 5.255-1.43 6.61-3.945 4.817-8.946 5.992-20.607-2.245-26.491-9.14-6.525-19.98-.305-24.946 4.4-3.007 2.849-3.135 7.596-.286 10.603 2.848 3.007 7.595 3.135 10.603.286 1.619-1.533 4.512-3.094 5.684-3.105.159 1.442-.771 4.832-2.027 7.217-1.948 3.642-.582 8.178 3.058 10.138z"/><path d="m52.001 327.609c-4.142 0-7.5 3.357-7.5 7.5v4.309c0 4.143 3.358 7.5 7.5 7.5s7.5-3.357 7.5-7.5v-4.309c0-4.143-3.358-7.5-7.5-7.5z"/><path d="m509.117 257.421c-19.502-15.177-38.679-26.108-59.172-33.625l9.164-4.091c2.193-.979 3.785-2.95 4.281-5.3.496-2.351-.164-4.796-1.774-6.578-11.68-12.922-34.414-25.19-67.571-36.466-5.719-1.945-11.238-3.686-16.345-5.212l15.713-3.686c2.814-.66 4.999-2.879 5.615-5.704.616-2.824-.446-5.751-2.73-7.523-22.833-17.715-68.276-20.519-96.935-20.309l16.819-12.05c2.515-1.801 3.666-4.962 2.898-7.958s-3.296-5.214-6.367-5.585c-40.511-4.891-81.045 7.633-107.004 18.44l12.268-16.507c1.857-2.499 1.978-5.887.301-8.511-1.676-2.625-4.799-3.939-7.849-3.306-18.169 3.781-35.73 10.809-52.195 20.889-3.533 2.163-4.643 6.78-2.48 10.312 2.163 3.533 6.78 4.645 10.312 2.48 8.588-5.258 17.492-9.601 26.63-12.996l-17.27 23.236c-2.128 2.863-1.945 6.83.439 9.484s6.308 3.262 9.383 1.454c.565-.333 50.669-29.415 104.556-30.989l-19.527 13.989c-2.745 1.966-3.837 5.523-2.669 8.691 1.168 3.167 4.314 5.178 7.672 4.878.207-.018 20.991-1.744 45.435-.468 20.218 1.055 36.916 3.809 49.441 8.098l-25.105 5.889c-3.409.8-5.81 3.852-5.787 7.353.024 3.502 2.468 6.521 5.887 7.273.205.046 20.793 4.613 44.202 12.583 23.578 8.027 41.634 16.591 53.078 25.114l-16.776 7.489c-2.914 1.301-4.686 4.304-4.416 7.483s2.523 5.841 5.615 6.631c21.057 5.386 40.282 14.104 59.485 27.07-11.038 1.985-25.133 3.97-34.026 3.132-3.878-.348-7.392 2.305-8.082 6.14s1.672 7.56 5.435 8.571c14.908 4.006 24.226 9.206 32.667 15.779-15.145.15-36.388-.876-50.822-6.681-3.334-1.342-7.156-.127-9.104 2.896s-1.476 7.003 1.126 9.486l11.352 10.837c-11.354-2.593-21.67-5.252-24.894-6.873-2.916-1.468-6.448-.879-8.732 1.455s-2.794 5.878-1.262 8.762l12.784 24.072-132.834-11.121c-5.714-.67-11.351-2.01-16.755-3.981l-134.602-49.108c-7.959-2.81-16.556-3.503-24.862-2.005l-55.257 9.973c1.066-9.838 3.355-26.207 7.996-43.891 5.18-19.742 14.189-44.354 29.246-61.348l-3.225 22.137c-.533 3.657 1.678 7.157 5.21 8.248 3.529 1.085 7.331-.557 8.952-3.878.138-.283 14.14-28.605 42.497-54.508 3.059-2.793 3.273-7.537.479-10.596-2.794-3.058-7.537-3.272-10.596-.479-10.887 9.944-19.773 20.159-26.726 29.239l1.129-7.75c.422-2.893-.876-5.766-3.324-7.363-2.447-1.596-5.601-1.624-8.079-.074-51.191 32.065-58.64 127.211-59.328 138.096l-12.531 42.713-15.884 18.73c-6.248 7.378-5.595 18.315 1.491 24.904l13.525 12.555c4.647 4.322 11.286 5.896 17.312 4.114 31.905-9.374 62.851-27.187 70.564-31.787 4.677-.067 9.035.072 13.097.386l-4.464 30.516-9.824 9.123c-3.315 3.066-4.394 7.765-2.747 11.97 1.647 4.207 5.631 6.926 10.15 6.926h22.83c6.775 0 12.946-3.722 16.103-9.709l15.317-29.022c3.548 4.128 5.486 8.003 6.493 10.609l-9.137 9.765c-2.977 3.167-3.786 7.792-2.061 11.781 1.727 3.995 5.655 6.576 10.005 6.576h21.51c5.298 0 10.319-2.296 13.773-6.295l16.02-18.529c1.072-1.24 1.709-2.798 1.812-4.434l.604-9.602c19.005 5.041 40.415 4.773 59.246 2.654l3.048 10.959-6.458 6.88c-2.98 3.17-3.79 7.798-2.062 11.792s5.655 6.575 10.007 6.575h17.75c7.488 0 14.12-4.494 16.894-11.444l11.076-27.693 9.098 11.181-8.335 10.126c-2.711 3.289-3.267 7.726-1.45 11.579 1.819 3.856 5.6 6.252 9.867 6.252h19.41c6.516 0 12.574-3.517 15.817-9.188l17.21-30.204c2.05-3.599.795-8.179-2.804-10.229-3.598-2.052-8.179-.795-10.229 2.804l-17.204 30.194c-.573 1.001-1.642 1.623-2.79 1.623h-10.729l6.719-8.163c2.269-2.757 2.28-6.731.027-9.501l-21.02-25.83c-1.887-2.352-5.242-3.357-8.111-2.406-.667.214-67.143 21.2-109.151 4.955-2.23-.861-4.736-.61-6.749.679s-3.291 3.46-3.441 5.845l-1.051 16.699-14.37 16.62c-.605.7-1.489 1.103-2.424 1.103h-12.053l5.61-5.996c1.603-1.713 2.312-4.078 1.916-6.392-5.865-30.356-47.088-49.607-85.094-46.489-1.325.033-2.619.419-3.747 1.114-.342.211-34.621 21.226-68.708 31.24-.977.294-2.072.019-2.86-.715l-13.526-12.555c-1.201-1.117-1.312-2.971-.256-4.218l16.91-19.939c.678-.8 1.181-1.732 1.477-2.739l11.915-40.613 60.36-10.894c5.746-1.039 11.694-.558 17.129 1.361l134.529 49.082c6.543 2.387 13.368 4.003 20.287 4.804.079.009.158.017.237.023l146.652 12.277c.209.018.419.026.627.026 2.506 0 4.865-1.256 6.259-3.371 1.511-2.29 1.65-5.224.363-7.646l-10.741-20.225c14.149 3.548 31.224 6.942 35.989 7.874 3.272.64 6.568-.957 8.099-3.914 1.531-2.958.928-6.572-1.482-8.872l-10.791-10.302c23.557 2.749 47.155.645 48.54.516 2.956-.273 5.473-2.265 6.418-5.079s.142-5.922-2.049-7.925l-.712-.65c-7.54-6.895-14.255-13.034-22.676-18.333 12.198-1.951 22.382-4.343 23.167-4.529 2.809-.665 4.986-2.882 5.6-5.702.613-2.815-.445-5.737-2.723-7.51zm-200.927 146.295h-8.282l2.87-3.058c1.793-1.91 2.459-4.618 1.758-7.143l-3.649-13.123c7.831-1.329 14.821-2.845 20.479-4.22l-10.212 25.533c-.479 1.203-1.67 2.011-2.964 2.011zm-169.134-1.707c-.555 1.053-1.641 1.707-2.835 1.707h-12.385l4.118-3.824c1.252-1.163 2.07-2.72 2.317-4.41l4.85-33.152c8.603 1.903 15.376 4.716 20.712 7.889z"/><path d="m186.357 224.377c1.455 1.398 3.327 2.094 5.197 2.094 1.969 0 3.935-.771 5.407-2.302 21.094-21.938 73.314-41.992 73.839-42.192 3.216-1.225 5.187-4.482 4.777-7.9-.409-3.417-3.091-6.117-6.506-6.549-62.612-7.926-104.945 28.317-106.716 29.864-3.121 2.724-3.442 7.462-.719 10.582 2.724 3.122 7.463 3.444 10.582.719.296-.259 23.411-20.052 59.762-25.755-16.199 8.205-34.529 19.08-45.832 30.835-2.87 2.985-2.776 7.733.209 10.604z"/><path d="m315.755 248.682c1.474 1.961 3.724 2.994 6.001 2.994 1.568 0 3.15-.489 4.5-1.505 20.53-15.428 66.948-25.139 67.415-25.234 3.371-.696 5.836-3.597 5.979-7.035.142-3.439-2.074-6.534-5.375-7.506-52.062-15.319-93.016 9.641-94.733 10.711-3.51 2.187-4.58 6.796-2.402 10.312 2.177 3.514 6.798 4.601 10.318 2.43.259-.159 18.727-11.302 45.576-13.097-12.871 4.496-26.375 10.355-35.788 17.429-3.313 2.488-3.979 7.189-1.491 10.501z"/><path d="m276.466 291.178c1.925 3.666 6.459 5.08 10.126 3.154.27-.142 19.478-10.009 46.558-9.74-13.212 3.539-27.184 8.402-37.13 14.79-3.486 2.237-4.497 6.878-2.259 10.363 1.433 2.231 3.85 3.448 6.318 3.448 1.388 0 2.792-.385 4.045-1.19 21.609-13.876 68.617-20.142 69.089-20.203 3.413-.446 6.085-3.157 6.48-6.576s-1.587-6.669-4.808-7.881c-50.792-19.115-93.473 2.768-95.264 3.708-3.668 1.925-5.08 6.459-3.155 10.127z"/><path d="m86.359 255.878c-.474 4.108 2.468 7.815 6.575 8.299.297.035.592.052.884.052 3.744 0 6.982-2.806 7.44-6.614.036-.302 2.814-21.694 18.119-43.822-4.493 12.871-8.313 27.087-8.636 38.857-.114 4.141 3.151 7.59 7.292 7.703 4.141.097 7.589-3.151 7.703-7.291.704-25.672 21.998-68.046 22.213-68.471 1.554-3.071.818-6.806-1.785-9.058-2.603-2.253-6.404-2.444-9.22-.465-44.395 31.208-50.353 78.799-50.585 80.81z"/><path d="m156.798 260.754c2.18 3.514 6.801 4.599 10.321 2.423.394-.243 32.289-19.554 76.387-17.737-20.355 6.186-45.123 15.43-60.904 27.29-3.312 2.488-3.978 7.189-1.49 10.501 1.474 1.961 3.724 2.995 6.001 2.994 1.568 0 3.15-.489 4.5-1.505 27.368-20.567 88.789-33.412 89.406-33.539 3.371-.695 5.836-3.597 5.979-7.035.142-3.439-2.074-6.533-5.375-7.506-67.324-19.811-120.205 12.416-122.423 13.798-3.511 2.187-4.583 6.801-2.402 10.316z"/></g></g><g/><g/><g/><g/><g/><g/><g/><g/><g/><g/><g/><g/><g/><g/><g/></svg>