<svg id="Layer_1-2" viewBox="0 0 64 64" xmlns="http://www.w3.org/2000/svg"><g id="Helicopter"><path d="m36 16v-6c0-1.10302734.89746094-2 2-2s2 .89697266 2 2v6z" fill="#ffd278"/><path d="m34 47h4v5h-4z" fill="#eda34a"/><path d="m52 47h4v5h-4z" fill="#eda34a"/><path d="m32.19042969 47c-2.4296875 0-4.49902344-1.73681641-4.92089844-4.12988281l-2.26953125-12.87011719c4.38574219 8.77099609 12.75195312 15.08105469 22.37988281 16.87988281l.62109375.12011719h-15.81054688z" fill="#f9bd5f"/><path d="m28 20 2-4h16l2 4z" fill="#f9bd5f"/><path d="m48 47-.62011719-.12011719c-9.39648438-1.75488281-17.65722656-7.86474609-22.10546875-16.34423828l-.28125-.53564453h-12.99316406l-6 8-4-3 3-8-4-12h6l5.00097656 9h12.99902344l3-4h18c4.01074219 0 7.89648438 1.42041016 10.94042969 4 .42871094.35742188.74023438.64257812 1.01953125.9296875.14550781.13671875.2734375.27392578.40136719.41064453.1875.19873047.36914062.39892578.53808594.59863281l3.87011719 8.40087891c.02929688.20703125.06054688.41845703.10058594.62939453l.07128906.70751953c.01660156.18261719.02636719.3828125.03613281.58203125.01367188.32080078.02246094.52685547.02246094.74121094v5c0 2.75683594-2.24316406 5-5 5h-10z" fill="#ffd278"/><rect fill="#748793" height="8" rx="1" width="6" x="32" y="24"/><path d="m29 56c-2.20605469 0-4-1.79443359-4-4h38c0 2.20556641-1.79394531 4-4 4z" fill="#f9bd5f"/><path d="m52 37c-5.51367188 0-10-4.48583984-10-10v-2c0-.55126953.44824219-1 1-1h13.94042969c.42871094.35791016.74121094.64257812 1.01953125.9296875.14550781.13671875.2734375.27392578.40136719.41064453.1875.19873047.36914062.39892578.53808594.59863281l3.87011719 8.40087891c.02929688.20703125.06054688.41845703.10058594.62939453l.07128906.70751953c.01660156.18261719.02636719.3828125.03613281.58203125.01367188.32128906.02246094.52685547.02246094.74121094h-11z" fill="#748793"/><g fill="#292930"><path d="m58 48c3.30859375 0 6-2.69140625 6-6 0-5.53070359.00870595-5.01696006-.0234375-5.78955078-.01074219-.21289062-.02148438-.42626953-.04003906-.63867188-.04199219-.47412109-.10546875-.92675781-.1796875-1.38964844-.01464844-.09033203-.04101562-.17773438-.07910156-.26074219l-3.86914062-8.39990234c-.03808594-.08300781-.08789062-.16015625-.14648438-.22949219-.58951805-.69467532-1.29723388-1.40610258-2.07519531-2.0546875-2.5267334-2.14105225-5.60223389-3.51507568-8.85772705-4.01525879l-1.83465576-3.66931152c-.16992188-.33886719-.515625-.55273438-.89453125-.55273438h-5v-2h21c.55273438 0 1-.44775391 1-1s-.44726562-1-1-1h-21v-1c0-1.65429688-1.34570312-3-3-3s-3 1.34570312-3 3v1h-21.00000001c-.55273438 0-1 .44775391-1 1s.44726562 1 1 1h21v2h-5c-.37890625 0-.72460938.21386719-.89453125.55273438l-1.96020508 3.92041016-2.64526367 3.52685547h-11.91113281l-4.71484375-8.48583984c-.17578125-.31738281-.51074219-.51416016-.87402344-.51416016h-6c-.32128906 0-.62304688.15429688-.81152344.41552734-.1875.26074219-.23925781.59570312-.13671875.90087891l3.88769531 11.6640625-2.87597656 7.66845703c-.15527344.41601562-.01855469.88476562.33691406 1.15087891l4 3c.44238281.33300781 1.06835938.24121094 1.39941406-.19970703l5.70019531-7.60009766h11.66113281l2.12402344 12.04345703c.50585938 2.87207031 2.98925781 4.95654297 5.90527344 4.95654297h.80957031v3h-8c-.55273438 0-1 .44775391-1 1 0 2.75683594 2.24316406 5 5 5h30c2.75683594 0 5-2.24316406 5-5 0-.55224609-.44726562-1-1-1h-6v-3h1zm3.80371094-13.36767578c.05761719.37060547.10644531.73583984.140625 1.11621094.00720215.08081055.01257324.16387939.01782227.25146484h-9.9621582c-4.96289062 0-9-4.03759766-9-9v-2h13.56707764c.50339436.43679973.99107897.91895928 1.48370361 1.48583984l3.75292969 8.14648438zm-24.80371094-24.63232422c0-.55126953.44824219-1 1-1s1 .44873047 1 1v5h-2zm-6.38183594 7h14.76367188l1 2h-16.76367188zm-18.61816406 12c-.31445312 0-.61132812.14794922-.79980469.39990234l-5.40039062 7.20019531-2.60058594-1.95068359 2.73730469-7.29833984c.08007812-.21435547.08496094-.45019531.01171875-.66748047l-3.56054688-10.68359375h4.0234375l4.71484375 8.48583984c.17578125.31738281.51074219.51416016.87402344.51416016h13c.31445312 0 .61132812-.14794922.79980469-.39990234l2.70019531-3.60009766h17.5c2.71875 0 5.37121582.70336914 7.71740723 2h-10.71740723c-1.10253906 0-2 .89697266-2 2v2c0 6.06542969 4.93457031 11 11 11h10v4c0 2.20556641-1.79394531 4-4 4h-9.90667725l-.52398682-.09814453c-9.32714844-1.74902344-17.43066406-7.86083984-21.67480469-16.34912109-.00488281-.00970459-.01409912-.01513672-.01922607-.02459717-.05078125-.09417725-.11737061-.17572021-.19390869-.24822998-.01367188-.01293945-.0222168-.03131104-.03656006-.04333496-.09204102-.07775879-.19854736-.13684082-.31378174-.1774292-.04370117-.01544189-.09008789-.01495361-.13555908-.02423096-.06488037-.01324463-.1270752-.03491211-.19549561-.03491211h-13zm27 22v-3h12v3zm-10.74609375-8.30371094-1.35388184-7.67755127c3.56420898 4.88153076 8.44799805 8.69244385 14.03155518 10.98126221h-8.7411499c-1.94335938 0-3.59863281-1.38916016-3.93652344-3.30371094zm6.74609375 5.30371094h2v3h-2zm24 7h-30c-1.30371094 0-2.41601562-.8359375-2.82910156-2h35.65820312c-.41308594 1.1640625-1.52539062 2-2.82910156 2zm-4-4h-2v-3h2z"/><path d="m33 33h4c1.10253906 0 2-.89697266 2-2v-6c0-1.10302734-.89746094-2-2-2h-4c-1.10253906 0-2 .89697266-2 2v6c0 1.10302734.89746094 2 2 2zm0-8h4l.00097656 6h-4.00097656z"/></g></g></svg>