<svg id="Layer_1" viewBox="0 0 1000 1000" xmlns="http://www.w3.org/2000/svg" data-name="Layer 1"><path d="m519.53 706.8-19.54 27-19.53-27 2.54-44.71a15.74 15.74 0 0 0 .42-7.29l7.92-138.09c0-.1 0-.2 0-.3l1.71-29.77h13.79l1.71 29.77v.8l7.89 137.54a15.76 15.76 0 0 0 .43 7.42z" fill="#fbc02d"/><path d="m779.67 412.69a288.15 288.15 0 0 0 -56.86-115.77c19.7-33.3 35.78-63.75 47.87-90.63 8.35-18.56 14.63-35 18.88-49.57a477.36 477.36 0 0 1 12.5 82.35c3.08 46.76.79 110.81-22.39 173.62z" fill="#e53935"/><path d="m717.47 601.7-113.74 44.86-18.12 204.59 183.9 29.93-14.36-411.15c0-.19 0-.37 0-.56a5.52 5.52 0 0 1 0-.58 255.87 255.87 0 0 0 -63.46-159.16c-.27-.28-.53-.58-.77-.88a255.33 255.33 0 0 0 -368.21-14.09c-4.68 4.52-9.17 9.21-13.35 13.92a13.61 13.61 0 0 1 -1.07 1.21 255.68 255.68 0 0 0 -63.4 158.91q0 .72-.06 1.44l-14.35 410.94 183.9-29.93-18.12-204.59-113.74-44.86a32.05 32.05 0 0 1 -20.42-30v-70.4a32.25 32.25 0 0 1 37.69-31.78l160.66 27.48.72-12.56a31.68 31.68 0 0 1 31.6-29.84h14.45a31.69 31.69 0 0 1 31.6 29.84l.72 12.56 160.66-27.48a32.25 32.25 0 0 1 37.69 31.78v70.41a32.05 32.05 0 0 1 -20.42 29.99zm-151.88-226.8a33.08 33.08 0 0 1 -9.75 23.55l-21.93 21.93a33.07 33.07 0 0 1 -23.54 9.75h-31a33.07 33.07 0 0 1 -23.54-9.75l-21.93-21.93a33.08 33.08 0 0 1 -9.75-23.55v-71.74a33.07 33.07 0 0 1 9.75-23.54l21.93-21.93a33.07 33.07 0 0 1 23.54-9.75h31a33.07 33.07 0 0 1 23.54 9.75l21.93 21.93a33.07 33.07 0 0 1 9.75 23.54z" fill="#fbc02d"/><path d="m533.59 303.16v71.74a1.26 1.26 0 0 1 -.38.92l-21.92 21.93a1.29 1.29 0 0 1 -.92.38h-31a1.34 1.34 0 0 1 -.92-.38l-21.92-21.93a1.28 1.28 0 0 1 -.38-.92v-71.74a1.25 1.25 0 0 1 .38-.91l21.92-21.93a1.29 1.29 0 0 1 .92-.38h31a1.29 1.29 0 0 1 .92.38l21.92 21.93a1.25 1.25 0 0 1 .38.91z" fill="#7e57c2"/><path d="m277.18 296.93a287.79 287.79 0 0 0 -56.86 115.76c-23.17-62.8-25.46-126.84-22.38-173.59a477.49 477.49 0 0 1 12.5-82.36c4.25 14.55 10.53 31 18.88 49.58 12.09 26.88 28.17 57.32 47.86 90.61z" fill="#e53935"/><g fill="#fff" opacity=".5"><path d="m509.53 716.8-19.54 27-19.53-27 2.54-44.71a15.74 15.74 0 0 0 .42-7.29l7.92-138.09c0-.1 0-.2 0-.3l1.71-29.77h13.79l1.71 29.77v.8l7.89 137.54a15.76 15.76 0 0 0 .43 7.42z"/><path d="m769.67 422.69a288.15 288.15 0 0 0 -56.86-115.77c19.7-33.3 35.78-63.75 47.87-90.63 8.35-18.56 14.63-35 18.88-49.57a477.36 477.36 0 0 1 12.5 82.35c3.08 46.76.79 110.81-22.39 173.62z"/><path d="m707.47 611.7-113.74 44.86-18.12 204.59 183.9 29.93-14.36-411.15c0-.19 0-.37 0-.56a5.52 5.52 0 0 1 0-.58 255.87 255.87 0 0 0 -63.46-159.16c-.27-.28-.53-.58-.77-.88a255.33 255.33 0 0 0 -368.21-14.09c-4.68 4.52-9.17 9.21-13.35 13.92a13.61 13.61 0 0 1 -1.07 1.21 255.68 255.68 0 0 0 -63.4 158.91q0 .72-.06 1.44l-14.35 410.94 183.9-29.93-18.12-204.59-113.74-44.86a32.05 32.05 0 0 1 -20.42-30v-70.4a32.25 32.25 0 0 1 37.69-31.78l160.66 27.48.72-12.56a31.68 31.68 0 0 1 31.6-29.84h14.45a31.69 31.69 0 0 1 31.6 29.84l.72 12.56 160.66-27.48a32.25 32.25 0 0 1 37.69 31.78v70.41a32.05 32.05 0 0 1 -20.42 29.99zm-151.88-226.8a33.08 33.08 0 0 1 -9.75 23.55l-21.93 21.93a33.07 33.07 0 0 1 -23.54 9.75h-31a33.07 33.07 0 0 1 -23.54-9.75l-21.93-21.93a33.08 33.08 0 0 1 -9.75-23.55v-71.74a33.07 33.07 0 0 1 9.75-23.54l21.93-21.93a33.07 33.07 0 0 1 23.54-9.75h31a33.07 33.07 0 0 1 23.54 9.75l21.93 21.93a33.07 33.07 0 0 1 9.75 23.54z"/><path d="m523.59 313.16v71.74a1.26 1.26 0 0 1 -.38.92l-21.92 21.93a1.29 1.29 0 0 1 -.92.38h-31a1.34 1.34 0 0 1 -.92-.38l-21.92-21.93a1.28 1.28 0 0 1 -.38-.92v-71.74a1.25 1.25 0 0 1 .38-.91l21.92-21.93a1.29 1.29 0 0 1 .92-.38h31a1.29 1.29 0 0 1 .92.38l21.92 21.93a1.25 1.25 0 0 1 .38.91z"/><path d="m267.18 306.93a287.79 287.79 0 0 0 -56.86 115.76c-23.17-62.8-25.46-126.84-22.38-173.59a477.49 477.49 0 0 1 12.5-82.36c4.25 14.55 10.53 31 18.88 49.58 12.09 26.88 28.17 57.32 47.86 90.61z"/></g><g fill="#413b32"><path d="m555.84 279.62-21.93-21.93a33.07 33.07 0 0 0 -23.54-9.75h-31a33.07 33.07 0 0 0 -23.54 9.75l-21.93 21.93a33.07 33.07 0 0 0 -9.75 23.54v71.74a33.08 33.08 0 0 0 9.75 23.55l21.93 21.93a33.07 33.07 0 0 0 23.54 9.75h31a33.07 33.07 0 0 0 23.54-9.75l21.93-21.93a33.08 33.08 0 0 0 9.75-23.55v-71.74a33.07 33.07 0 0 0 -9.75-23.54zm-22.25 95.28a1.26 1.26 0 0 1 -.38.92l-21.92 21.93a1.29 1.29 0 0 1 -.92.38h-31a1.34 1.34 0 0 1 -.92-.38l-21.92-21.93a1.28 1.28 0 0 1 -.38-.92v-71.74a1.25 1.25 0 0 1 .38-.91l21.92-21.93a1.29 1.29 0 0 1 .92-.38h31a1.29 1.29 0 0 1 .92.38l21.92 21.93a1.25 1.25 0 0 1 .38.91z"/><path d="m551.8 710.66-3.08-53.66-.06-1.06a.49.49 0 0 1 0-.12l-7.26-126.61-1.86-32.21-.72-12.56a31.69 31.69 0 0 0 -31.6-29.84h-14.45a31.68 31.68 0 0 0 -31.6 29.84l-.72 12.56-1.85 32.15-7.27 126.7c0 .29 0 .58-.05.87a.38.38 0 0 0 0 .1l-3.09 53.83a16 16 0 0 0 3 10.3l23.4 32.27a31.36 31.36 0 0 0 50.79 0l23.41-32.22a15.94 15.94 0 0 0 3.01-10.34zm-51.8 23.09-19.53-27 2.53-44.66.42-7.29 7.92-138.09c0-.1 0-.2 0-.3l1.71-29.77h13.79l1.71 29.77v.8l7.89 137.54.43 7.42 2.56 44.65z"/><path d="m548.72 657a16 16 0 0 1 -10.12 15.28l-.43.17a16 16 0 0 1 -20.76-9c-.17-.42-.31-.84-.44-1.27a15.76 15.76 0 0 1 -.43-7.42 16 16 0 0 1 9.87-12.06l.43-.17a16 16 0 0 1 20.76 9 16.53 16.53 0 0 1 1 4.28.49.49 0 0 0 0 .12z"/><path d="m737.89 501.3v70.41a32.05 32.05 0 0 1 -20.42 30l-113.74 44.85-9.2 3.63a16 16 0 0 1 -21.83-16.06v-.23q0-.48.12-1c.06-.39.13-.78.22-1.16 0-.19.09-.38.14-.57s.1-.38.16-.57c.11-.37.24-.74.38-1.11l.28-.49a5.69 5.69 0 0 1 .26-.56 15.47 15.47 0 0 1 .84-1.55 8.92 8.92 0 0 1 .54-.82 4 4 0 0 1 .29-.39 13.75 13.75 0 0 1 1.8-2l.42-.39a12.62 12.62 0 0 1 1.42-1.11l.51-.34c.17-.11.34-.22.52-.32a15.93 15.93 0 0 1 1.54-.79l.51-.22.17-.07.42-.17 122.52-48.32a.28.28 0 0 0 .16-.23v-70.42a.17.17 0 0 0 -.09-.18.19.19 0 0 0 -.2-.06l-164.21 28.1-14.1 2.41a16 16 0 0 1 -18.47-13.07c-.08-.44-.13-.88-.17-1.32 0-.27 0-.54 0-.8a16 16 0 0 1 13.21-16.38l17.65-3 160.66-27.48a32.25 32.25 0 0 1 37.69 31.78z"/><path d="m491.39 516.38v.3a14.26 14.26 0 0 1 -.2 1.82 16 16 0 0 1 -18.47 13.07l-14.1-2.41-164.21-28.1c-.08 0-.11 0-.2.06a.17.17 0 0 0 -.09.18v70.41a.28.28 0 0 0 .16.23l122.63 48.37.31.12a11.82 11.82 0 0 1 1.15.51l.55.28.54.3c.18.1.35.21.52.32l.51.34a18.41 18.41 0 0 1 1.09.83l.37.31.33.31a3.15 3.15 0 0 1 .37.36 4.17 4.17 0 0 1 .36.37 12.92 12.92 0 0 1 1.12 1.33 4 4 0 0 1 .29.39c.19.26.37.54.54.82a10.44 10.44 0 0 1 .58 1c.09.17.18.35.26.52a5.69 5.69 0 0 1 .26.56l.21.52c.14.37.27.74.38 1.11.06.19.11.38.16.57s.1.38.14.57c.09.38.16.77.22 1.16s.09.64.12 1v.23a16 16 0 0 1 -21.83 16.06l-9.2-3.63-113.74-44.87a32.05 32.05 0 0 1 -20.42-30v-70.4a32.25 32.25 0 0 1 37.69-31.78l160.66 27.48 17.65 3a16 16 0 0 1 13.29 16.38z"/><path d="m483 662.08c-.14.48-.31 1-.5 1.44a16 16 0 0 1 -20.83 8.85l-.42-.17a16 16 0 0 1 -10-15.38.38.38 0 0 1 0-.1c0-.29 0-.58.05-.87a16.41 16.41 0 0 1 1.1-4.48 16 16 0 0 1 20.83-8.85l.42.17a16 16 0 0 1 9.77 12.07 15.74 15.74 0 0 1 -.42 7.32z"/><path d="m802.17 899.44a16 16 0 0 1 -18.56 16.35l-217.82-35.45a16 16 0 0 1 -13.37-17.2l20.28-229v-.23q0-.48.12-1c.06-.39.13-.78.22-1.16 0-.19.09-.38.14-.57s.1-.38.16-.57c.11-.37.24-.74.38-1.11l.28-.5a5.69 5.69 0 0 1 .26-.56 12.87 12.87 0 0 1 .84-1.55 8.92 8.92 0 0 1 .54-.82 4 4 0 0 1 .29-.39 13.75 13.75 0 0 1 1.8-2l.42-.39a12.62 12.62 0 0 1 1.42-1.11l.51-.34c.17-.11.34-.22.52-.32a15.93 15.93 0 0 1 1.54-.79l.51-.22.17-.07.42-.17a15.73 15.73 0 0 1 6.86-.89 16 16 0 0 1 14.53 17.35l-.87 9.84-18.15 204.58 183.9 29.93-14.36-411.15c0-.19 0-.37 0-.56a5.52 5.52 0 0 1 0-.58 255.87 255.87 0 0 0 -63.46-159.16c-.13-.15-.26-.31-.4-.46l-.37-.42a255.33 255.33 0 0 0 -368.21-14.09c-4.68 4.52-9.17 9.21-13.35 13.92-.18.19-.35.39-.52.58l-.55.63a255.68 255.68 0 0 0 -63.4 158.91v.67.77l-14.41 410.94 183.9-29.93-18.12-204.59-.87-9.84a16 16 0 0 1 14.53-17.35 15.76 15.76 0 0 1 7 .94l.31.12a11.82 11.82 0 0 1 1.15.51l.55.28.54.3c.18.1.35.21.52.32l.51.34a18.41 18.41 0 0 1 1.09.83l.37.31.33.31a3.15 3.15 0 0 1 .37.36 4.17 4.17 0 0 1 .36.37 12.92 12.92 0 0 1 1.12 1.33 4 4 0 0 1 .29.39c.19.26.37.54.54.82a10.44 10.44 0 0 1 .58 1c.09.17.18.35.26.52a5.69 5.69 0 0 1 .26.56l.21.52a11.18 11.18 0 0 1 .38 1.11c.06.19.11.38.16.57s.1.38.14.57a11.3 11.3 0 0 1 .22 1.16q.08.48.12 1v.23l20.28 229a16 16 0 0 1 -13.37 17.2l-217.83 35.45a16 16 0 0 1 -18.56-16.35l14.9-426.69.16-4.5a287.86 287.86 0 0 1 64.3-171.32q3.7-4.56 7.62-9c4.68-5.31 9.73-10.6 15-15.71l.63-.61a287.3 287.3 0 0 1 399.77.61q7.77 7.53 15 15.7 3.91 4.41 7.62 9a287.9 287.9 0 0 1 64.3 171.33l.16 4.49z"/><path d="m787.27 472.74q-1.12 2-2.28 4a16 16 0 0 1 -29.84-6.85c0-.19 0-.37 0-.56a5.52 5.52 0 0 1 0-.58 16 16 0 0 1 2.13-8 316.39 316.39 0 0 0 22.43-48.14c23.18-62.81 25.47-126.86 22.39-173.62a477.36 477.36 0 0 0 -12.5-82.35c-4.25 14.54-10.53 31-18.88 49.57-12.09 26.88-28.17 57.33-47.87 90.63q-2.89 4.9-5.9 9.89a16 16 0 0 1 -22 5.45 15.78 15.78 0 0 1 -3.3-2.63c-.27-.28-.53-.58-.77-.88a16 16 0 0 1 -1.36-18.44q5.54-9.18 10.69-18.05c42.34-72.9 65.54-129.92 64.06-158.07-.37-7-1.24-23.47 12.15-28.89 2.81-1.14 12.67-4.06 21.58 6.16 13.64 15.64 31.26 75.35 35.95 144.53 4.21 62.57-.55 153.95-46.68 236.83z"/><path d="m309.3 308.56a13.61 13.61 0 0 1 -1.07 1.21 16 16 0 0 1 -25.14-2.94q-3-5-5.91-9.9c-19.69-33.29-35.77-63.73-47.86-90.61-8.35-18.57-14.63-35-18.88-49.58a477.49 477.49 0 0 0 -12.5 82.36c-3.08 46.75-.79 110.79 22.38 173.59a315.36 315.36 0 0 0 22.44 48.17 15.94 15.94 0 0 1 2.13 7.84q0 .72-.06 1.44a16 16 0 0 1 -29.83 6.67q-1.17-2-2.29-4.06c-46.11-82.89-50.87-174.25-46.64-236.75 4.69-69.19 22.31-128.89 36-144.54 8.91-10.22 18.77-7.3 21.58-6.16 13.39 5.42 12.52 21.87 12.15 28.9-1.48 28.13 21.72 85.16 64 158q5.18 8.88 10.71 18.08a16 16 0 0 1 -1.21 18.28z"/></g></svg>