<svg height="512" viewBox="0 0 128 128" width="512" xmlns="http://www.w3.org/2000/svg"><g><g><path d="m100.808 85.667h-73.242v-24.854a36.621 36.621 0 0 1 36.621-36.621 36.621 36.621 0 0 1 36.621 36.621z" fill="#537980"/><path d="m92.72 57.39-3.18 36.62h-51.08l-3.18-36.62 28.72-5.03z" fill="#ededf9"/><path d="m103.81 68.47-6 34.57-33.81 18.46-33.81-18.46-6-34.57 39.81-6.97z" fill="#385b60"/><path d="m69.767 6.5h-11.534a3 3 0 0 0 -2.991 3.224l2.008 26.776h13.5l2.008-26.776a3 3 0 0 0 -2.991-3.224z" fill="#f5502f"/></g><g fill="#102a3f"><path d="m88.568 45.366a1.75 1.75 0 1 0 2.953-1.879 32.691 32.691 0 0 0 -3.328-4.368 1.75 1.75 0 0 0 -2.593 2.348 29.232 29.232 0 0 1 2.968 3.899z"/><path d="m47.83 53.416-3.42.6a1.75 1.75 0 1 0 .6 3.447l3.42-.6a1.75 1.75 0 0 0 -.6-3.447z"/><path d="m104.111 66.746-1.551-.272v-5.664a38.36 38.36 0 0 0 -29.087-37.217l1.027-13.737a4.75 4.75 0 0 0 -4.733-5.106h-11.534a4.75 4.75 0 0 0 -4.733 5.105l.207 2.764a1.75 1.75 0 1 0 3.49-.262l-.207-2.764a1.25 1.25 0 0 1 1.243-1.343h11.534a1.25 1.25 0 0 1 1.246 1.344l-1.887 25.156h-10.252l-1.083-14.437a1.75 1.75 0 1 0 -3.49.261l.232 3.093a38.594 38.594 0 0 0 -28.713 37.143v5.6l-1.931.338a1.75 1.75 0 0 0 -1.423 2.023l6 34.57a1.754 1.754 0 0 0 .886 1.237l33.809 18.46a1.752 1.752 0 0 0 1.678 0l33.809-18.46a1.754 1.754 0 0 0 .886-1.237l3-17.285a1.75 1.75 0 0 0 -3.449-.6l-2.856 16.453-32.229 17.597-32.23-17.6-5.556-32.014 37.786-6.615 37.786 6.615-1.231 7.095a1.75 1.75 0 0 0 3.449.6l1.53-8.817a1.751 1.751 0 0 0 -1.423-2.024zm-40.411-6.97-26.06 4.563-.476-5.5 2.571-.45a1.75 1.75 0 1 0 -.6-3.447l-4.152.727a1.749 1.749 0 0 0 -1.441 1.874l.641 7.4-4.858.85v-4.983a35.075 35.075 0 0 1 25.475-33.585l.706 9.406a1.749 1.749 0 0 0 1.744 1.619h13.5a1.749 1.749 0 0 0 1.75-1.619l.713-9.5a34.884 34.884 0 0 1 25.847 33.679v5.052l-5.238-.917.641-7.4a1.749 1.749 0 0 0 -1.442-1.874l-28.721-5.035a1.75 1.75 0 0 0 -.6 0l-10.36 1.815a1.75 1.75 0 1 0 .6 3.447l10.06-1.761 26.838 4.7-.476 5.5-26.062-4.561a1.75 1.75 0 0 0 -.6 0z"/><path d="m91.681 75.486-3.721 21.437a1.75 1.75 0 0 0 1.426 2.023 1.7 1.7 0 0 0 .3.027 1.752 1.752 0 0 0 1.723-1.452l3.721-21.437a1.75 1.75 0 0 0 -3.449-.6z"/><path d="m81.861 75.023-2.48 25.958a1.75 1.75 0 0 0 1.576 1.909c.057 0 .112.008.168.008a1.75 1.75 0 0 0 1.74-1.583l2.481-25.959a1.75 1.75 0 0 0 -3.485-.333z"/><path d="m72.053 74.524-1.241 30.476a1.75 1.75 0 0 0 1.678 1.82h.072a1.751 1.751 0 0 0 1.748-1.679l1.241-30.478a1.75 1.75 0 0 0 -3.5-.143z"/><path d="m34.3 74.061a1.75 1.75 0 0 0 -1.426 2.023l3.721 21.437a1.751 1.751 0 0 0 1.722 1.452 1.7 1.7 0 0 0 .3-.027 1.75 1.75 0 0 0 1.426-2.023l-3.724-21.437a1.754 1.754 0 0 0 -2.019-1.425z"/><path d="m44.23 73.448a1.751 1.751 0 0 0 -1.576 1.908l2.481 25.959a1.75 1.75 0 0 0 1.74 1.583c.056 0 .112 0 .168-.008a1.75 1.75 0 0 0 1.576-1.909l-2.48-25.958a1.755 1.755 0 0 0 -1.909-1.575z"/><path d="m54.127 72.847a1.75 1.75 0 0 0 -1.678 1.82l1.24 30.478a1.751 1.751 0 0 0 1.748 1.679h.073a1.749 1.749 0 0 0 1.677-1.824l-1.24-30.479a1.724 1.724 0 0 0 -1.82-1.674z"/><path d="m62.25 74v35a1.75 1.75 0 0 0 3.5 0v-35a1.75 1.75 0 0 0 -3.5 0z"/></g></g></svg>