<svg id="Capa_1" enable-background="new 0 0 512 512" height="512" viewBox="0 0 512 512" width="512" xmlns="http://www.w3.org/2000/svg"><g><g><path d="m53.372 216.265v-118.624c0-4.654 6.572-5.619 7.911-1.162l24.415 81.321v38.464h-32.326z" fill="#f7e365"/></g><g><path d="m458.624 216.265v-118.624c0-4.654-6.572-5.619-7.911-1.162l-24.415 81.321v38.464h32.326z" fill="#f7e365"/></g><g><path d="m452.239 320.576-25.94 24.319v-167.688l25.94 24.319c4.074 3.819 6.385 9.155 6.385 14.739v89.572c0 5.584-2.311 10.919-6.385 14.739z" fill="#26447e"/></g><g><path d="m59.758 320.576 25.94 24.319v-167.688l-25.94 24.319c-4.074 3.819-6.385 9.155-6.385 14.739v89.572c-.001 5.584 2.311 10.919 6.385 14.739z" fill="#26447e"/></g><g><path d="m85.697 177.801v171.82c0 27.933 11.208 54.698 31.112 74.296l51.404 50.614c19.505 19.205 45.78 29.969 73.153 29.969h29.261c27.373 0 53.648-10.764 73.153-29.969l51.404-50.614c19.904-19.598 31.112-46.363 31.112-74.296v-171.82c.003-94.055-76.243-170.301-170.298-170.301-94.055 0-170.301 76.246-170.301 170.301z" fill="#df646e"/></g><g><path d="m255.998 7.5c-8.704 0-17.254.657-25.606 1.916 81.906 12.351 144.695 83.034 144.695 168.384v171.82c0 27.933-11.208 54.698-31.112 74.296l-51.404 50.613c-16.88 16.621-38.833 26.913-62.178 29.384 3.63.384 7.292.585 10.975.585h29.261c27.373 0 53.648-10.764 73.153-29.969l51.404-50.613c19.904-19.598 31.112-46.363 31.112-74.296v-171.82c.001-94.054-76.245-170.3-170.3-170.3z" fill="#dc4955"/></g><g><path d="m419.345 231.836-11.469-17.004c-7.54-11.181-20.094-17.857-33.581-17.857-4.046 0-8.058.605-11.927 1.797l-100.242 31.908c-3.987 1.269-8.269 1.269-12.256 0l-100.242-31.908c-3.869-1.192-7.881-1.797-11.927-1.797-13.487 0-26.041 6.676-33.582 17.857l-11.469 17.004c-11.618 17.222-8.386 40.292 7.522 53.663l30.135 25.321c7.286 6.122 16.54 9.494 26.057 9.494h.002c3.876 0 7.726-.556 11.449-1.652l81.494-28.588c4.329-1.519 9.046-1.519 13.376 0l81.493 28.588c3.723 1.097 7.574 1.652 11.45 1.652h.002c9.517 0 18.771-3.372 26.057-9.494l30.135-25.321c15.91-13.372 19.142-36.441 7.523-53.663z" fill="#3a67c1"/></g><g><path d="m411.823 255.09-30.135 25.321c-7.286 6.122-16.54 9.494-26.057 9.494 0 0-.001 0-.002 0-3.876 0-7.727-.556-11.45-1.652l-81.493-28.588c-4.329-1.519-9.046-1.519-13.376 0l-81.494 28.588c-3.723 1.097-7.574 1.652-11.449 1.652-.001 0-.001 0-.002 0-9.517 0-18.771-3.372-26.057-9.494l-30.135-25.321c-5.232-4.397-9.083-9.847-11.495-15.789-6.495 15.973-2.207 34.681 11.495 46.198l30.135 25.321c7.286 6.122 16.54 9.494 26.057 9.494h.002c3.876 0 7.726-.556 11.449-1.652l81.494-28.588c4.329-1.519 9.046-1.519 13.376 0l81.493 28.588c3.723 1.097 7.574 1.652 11.45 1.652h.002c9.517 0 18.771-3.372 26.057-9.494l30.135-25.321c13.702-11.517 17.99-30.225 11.495-46.198-2.412 5.942-6.263 11.391-11.495 15.789z" fill="#30569f"/></g><g><path d="m381.703 62.927-41.087 44.534c-5.653 6.128-8.792 14.159-8.792 22.496v21.871l-32.325 18.342v-45.896c0-4.798 1.041-9.54 3.051-13.897l37.286-80.828c15.671 8.883 29.796 20.175 41.867 33.378z" fill="#3a67c1"/></g><g><path d="m353.054 93.98 28.649-31.053c-12.072-13.204-26.196-24.495-41.868-33.378l-13.413 29.075c10.332 10.544 19.304 22.422 26.632 35.356z" fill="#30569f"/></g><g><path d="m130.28 62.927 41.087 44.534c5.653 6.128 8.792 14.159 8.792 22.496v21.871l32.325 18.342v-45.896c0-4.798-1.041-9.54-3.051-13.897l-37.285-80.827c-15.672 8.882-29.797 20.174-41.868 33.377z" fill="#3a67c1"/></g><g><path d="m168.214 474.531c10.518 10.356 23.006 18.252 36.572 23.335l-16.568-64.888c-3.306-12.949-10.172-24.713-19.82-33.961l-82.701-79.273v29.876c0 27.933 11.208 54.698 31.113 74.296z" fill="#c42430"/></g><g><path d="m292.131 254.259 79-24.341c3.371-1.039 7.025.251 8.997 3.175l11.422 16.934c2.291 3.396 1.649 7.974-1.487 10.609l-30.007 25.214c-2.056 1.727-4.84 2.309-7.416 1.55l-60.414-17.806c-3.406-1.004-5.744-4.131-5.744-7.681-.001-3.515 2.291-6.619 5.649-7.654z" fill="#e6f7fe"/></g><g><path d="m219.567 254.259-79-24.341c-3.371-1.039-7.025.251-8.997 3.175l-11.422 16.934c-2.291 3.396-1.649 7.974 1.487 10.609l30.007 25.214c2.056 1.727 4.84 2.309 7.416 1.55l60.414-17.806c3.406-1.004 5.744-4.131 5.744-7.681.001-3.515-2.29-6.619-5.649-7.654z" fill="#e6f7fe"/></g><g><path d="m343.782 474.531c-10.518 10.356-23.006 18.252-36.572 23.335l16.568-64.888c3.306-12.949 10.172-24.713 19.82-33.961l82.701-79.273v29.876c0 27.933-11.208 54.698-31.113 74.296z" fill="#c42430"/></g><g><path d="m372.875 370.953c-4.173 19.964-14.144 38.434-28.901 52.964l-23.889 23.521-12.876 50.428c13.566-5.083 26.054-12.979 36.572-23.335l51.404-50.613c19.904-19.598 31.113-46.363 31.113-74.296v-29.876z" fill="#a81f2a"/></g><g><path d="m458.628 246c4.143 0 7.5-3.357 7.5-7.5l-.004-140.858c0-5.777-4.148-10.579-9.864-11.419-5.725-.837-11.069 2.568-12.729 8.101l-13.758 45.825c-17.322-80.015-88.652-140.149-173.775-140.149-47.492 0-92.142 18.494-125.723 52.076-5.501 5.502-10.699 11.434-15.45 17.631-2.52 3.287-1.897 7.995 1.39 10.515 3.287 2.521 7.996 1.899 10.515-1.39 1.207-1.575 2.452-3.126 3.72-4.66l35.404 38.374c4.389 4.756 6.805 10.939 6.805 17.41v8.991l-6.242-3.542c-4.412-2.503-9.424-3.825-14.496-3.825h-12.943c-5.77 0-11.365 1.68-16.18 4.857l-7.591 5.01c-3.457 2.282-4.41 6.934-2.128 10.391 2.282 3.459 6.933 4.411 10.391 2.129l7.59-5.01c2.356-1.555 5.094-2.377 7.918-2.377h12.943c2.482 0 4.936.647 7.094 1.872l83.957 47.641c4.015 2.278 8.517 3.417 13.019 3.417s9.005-1.139 13.02-3.417l83.956-47.641c2.159-1.225 4.613-1.872 7.096-1.872h12.942c2.823 0 5.562.822 7.918 2.377l7.591 5.01c3.457 2.282 8.108 1.33 10.391-2.129 2.281-3.457 1.328-8.108-2.129-10.391l-7.591-5.01c-4.815-3.178-10.41-4.857-16.18-4.857h-12.942c-5.071 0-10.084 1.322-14.497 3.825l-6.241 3.542v-8.991c0-6.471 2.417-12.654 6.805-17.41l35.369-38.336c23.289 28.166 37.3 64.271 37.3 103.589v39.811l-4.703-6.973c-8.938-13.252-23.816-21.164-39.8-21.164-4.794 0-9.55.717-14.201 2.151l-100.242 31.907c-2.521.801-5.185.801-7.707 0l-100.308-31.928c-4.587-1.414-9.343-2.131-14.136-2.131-15.984 0-30.863 7.912-39.799 21.164l-4.704 6.974v-39.81c0-24.695 5.389-48.418 16.018-70.508 1.796-3.732.226-8.215-3.506-10.011-3.733-1.795-8.214-.226-10.01 3.507-6.083 12.643-10.579 25.776-13.497 39.289l-13.738-45.754c-1.661-5.533-7.012-8.938-12.73-8.101-5.715.84-9.864 5.642-9.864 11.419v208.195c0 7.627 3.191 14.994 8.756 20.211l23.57 22.097v1.475c0 29.741 12.154 58.771 33.348 79.645l10.28 10.12c1.461 1.438 3.362 2.155 5.261 2.155 1.939 0 3.877-.747 5.345-2.238 2.906-2.952 2.869-7.7-.083-10.606l-10.279-10.119c-18.349-18.072-28.873-43.205-28.873-68.956v-12.297l70.01 67.108c8.645 8.287 14.78 18.8 17.743 30.402l12.664 49.601c-7.263-4.133-14.032-9.235-20.136-15.248l-16.19-15.94c-2.952-2.905-7.701-2.87-10.606.083-2.906 2.951-2.869 7.7.083 10.606l16.189 15.938c21.031 20.718 48.879 32.127 78.414 32.127h29.26c29.536 0 57.384-11.409 78.412-32.125l51.411-50.611c21.192-20.873 33.347-49.902 33.347-79.644v-1.48l23.574-22.092c5.564-5.224 8.756-12.59 8.756-20.208v-32.34c0-4.143-3.357-7.5-7.5-7.5s-7.5 3.357-7.5 7.5v32.34c0 3.492-1.467 6.872-4.019 9.268l-13.312 12.475v-133.06l13.308 12.476c2.538 2.382 3.998 5.726 4.019 9.186v.08c0 .026.004.051.004.077v22.158c0 4.143 3.357 7.5 7.5 7.5zm-281.749-143.625-36.316-39.362c.107-.108.211-.221.318-.329 8.579-8.579 17.948-16.079 27.94-22.44l33.802 73.276c1.544 3.349 2.361 7.067 2.361 10.755v33.016l-17.325-9.831v-17.503c0-10.251-3.828-20.047-10.78-27.582zm84.729 80.672c-3.465 1.966-7.769 1.966-11.234 0l-30.39-17.245v-41.528c0-5.842-1.293-11.733-3.74-17.038l-34.354-74.471c22.662-11.61 47.91-17.765 74.108-17.765 26.653 0 51.83 6.438 74.059 17.841l-34.318 74.396c-2.446 5.305-3.74 11.196-3.74 17.038v41.528zm73.496-80.672c-6.951 7.535-10.779 17.331-10.779 27.582v17.502l-17.325 9.831v-33.016c0-3.688.816-7.406 2.361-10.755l33.76-73.187c10.25 6.519 19.727 14.151 28.256 22.727zm-236.235 133.654 11.469-17.005c6.145-9.111 16.374-14.551 27.363-14.551 3.294 0 6.563.493 9.652 1.444l100.243 31.907c5.498 1.75 11.309 1.75 16.804 0l100.177-31.887c3.154-.972 6.424-1.465 9.718-1.465 10.989 0 21.219 5.439 27.364 14.551l11.469 17.005v.001c9.468 14.033 6.832 32.832-6.129 43.727l-30.137 25.32c-5.937 4.989-13.478 7.736-21.233 7.736-3.098 0-6.177-.436-9.156-1.296l-81.305-28.522c-5.913-2.074-12.427-2.074-18.341 0l-81.303 28.522c-2.98.86-6.06 1.296-9.159 1.296-7.754 0-15.294-2.747-21.232-7.736l-30.135-25.319c-12.961-10.895-15.597-29.694-6.129-43.728zm-21.83-60.985-16.167 15.156v-69.006zm-12.152 140.06c-2.552-2.392-4.015-5.77-4.015-9.268v-89.572c0-3.497 1.464-6.875 4.015-9.268l13.312-12.479v133.066zm176.481 181.896c-10.442 0-20.64-1.649-30.293-4.819l-15.59-61.059c-3.656-14.319-11.228-27.293-21.897-37.52l-80.39-77.057v-27.236c.696.659 1.407 1.307 2.15 1.932l30.136 25.32c8.636 7.256 19.604 11.252 30.883 11.252 4.593 0 9.158-.659 13.569-1.958.122-.036.244-.075.364-.117l81.493-28.589c2.712-.951 5.7-.951 8.411 0l81.494 28.589c.12.042.241.081.363.117 4.41 1.299 8.976 1.958 13.57 1.958 11.278 0 22.246-3.996 30.881-11.252l30.138-25.321c.742-.623 1.453-1.269 2.148-1.927v27.233l-80.391 77.057c-10.669 10.228-18.24 23.201-21.896 37.52l-15.59 61.059c-9.653 3.17-19.851 4.819-30.293 4.819h-29.26zm148.559-78.425-51.412 50.612c-6.103 6.012-12.872 11.114-20.135 15.247l12.665-49.602c2.962-11.602 9.098-22.115 17.742-30.402l70.011-67.108v12.298c0 25.75-10.524 50.884-28.871 68.955zm45.03-243.528 16.167-53.851v69.009z"/><path d="m290.105 276.788 60.412 17.805c1.449.428 2.93.637 4.398.637 3.598 0 7.127-1.256 9.964-3.638l30.009-25.215c6.089-5.118 7.327-13.95 2.879-20.545l-11.422-16.933c-3.847-5.705-10.849-8.174-17.423-6.149l-79 24.341c-.001.001-.001.001-.001.001-6.544 2.017-10.94 7.973-10.94 14.82 0 6.828 4.575 12.945 11.124 14.876zm4.235-15.362 79-24.341c.211-.067.443.014.57.202l11.422 16.934c.146.216.104.506-.095.673l-30.006 25.213c-.132.11-.307.148-.472.099l-60.414-17.806c-.215-.062-.364-.264-.364-.487 0-.225.145-.421.359-.487z"/><path d="m116.812 266.378 30.008 25.215c2.835 2.382 6.365 3.638 9.962 3.638 1.468 0 2.949-.21 4.397-.637l60.415-17.806c6.549-1.931 11.124-8.048 11.124-14.876 0-6.848-4.397-12.804-10.941-14.82 0 0 0 0 0-.001l-79-24.34c-6.571-2.028-13.577.443-17.424 6.148l-11.422 16.934c-4.448 6.595-3.209 15.427 2.881 20.545zm9.555-12.158 11.421-16.934c.097-.143.254-.224.419-.224.05 0 .101.008.151.023l79 24.34c.214.066.359.262.359.486s-.15.425-.364.487l-60.416 17.807c-.166.047-.339.01-.469-.099l-30.007-25.213c-.199-.166-.24-.456-.094-.673z"/><path d="m296.656 331.258-25.882-14.57c-9.114-5.133-20.438-5.132-29.552 0l-25.883 14.57c-3.609 2.031-4.888 6.604-2.856 10.214 2.033 3.611 6.606 4.892 10.215 2.856l25.883-14.57c4.573-2.576 10.258-2.575 14.835 0l25.883 14.57c1.163.655 2.426.966 3.672.966 2.62 0 5.165-1.376 6.542-3.822 2.032-3.61.754-8.183-2.857-10.214z"/></g></g></svg>