<svg id="Capa_1" enable-background="new 0 0 511.555 511.555" viewBox="0 0 511.555 511.555" xmlns="http://www.w3.org/2000/svg"><g><path d="m126.006 314.98-72.686 74.314c5.579 7.91 18.998 25.843 25.691 33.175 26.469 28.991 63.311 45.138 102.279 45.138 3.199 0 6.418-.109 9.641-.329 42.631-2.905 80.981-24.719 105.216-59.85z" fill="#fdcb02"/><g><path d="m271.38 251.782-108 11.383 14.133 157.867c21.846 10.755 46.192 16.631 71.378 16.631h16.669z" fill="#efe2dd"/><path d="m510.904 271.189-157.737-13.488 30.127 165.544c39.784-15.402 64.234-41.295 84.279-68.471 4.744-6.431 10.15-11.096 15.873-16.034 14.853-12.815 31.644-27.334 27.458-67.551z" fill="#efe2dd"/><g fill="#f5f0eb"><path d="m265.561 104.715h-30.586c-20.174 0-39.715 4.418-57.456 12.547l-14.138 153.926h108z"/><path d="m371.394 102.719c10.163 8.321 18.071 18.218 23.598 29.412-3.606-2.478-7.397-4.836-11.386-7.055l-30.44 146.113h157.737c-.061-.583-1.017-8.9-1.017-8.9l-30.661-19.167c-7.032-8.729-13.592-20.34-20.511-32.586-6.978-12.351-14.673-25.963-24.333-39.196-.805-37.193-15.967-68.895-43.983-91.832-28.413-23.263-68.224-35.559-115.127-35.559h-174.187v30h174.188c39.894-.001 73.132 9.948 96.122 28.77z"/></g></g><g><path d="m415.449 271.189v15h30v-15l-15-10z" fill="#2b2b2b"/><path d="m415.449 256.189h30v15h-30z" fill="#404040"/></g><g><g><path d="m87.249 317.974 20.23 36.446c16.278 29.325 40.941 52.291 70.036 66.608v-149.84l-45.133-10-55.133 10z" fill="#2b2b2b"/><path d="m114.233 175.789-26.984 48.615-10 46.785h100.266v-153.933c-26.356 12.069-48.737 32.331-63.282 58.533z" fill="#404040"/></g><path d="m265.561 271.189v166.474h30.147c36.044 0 64.603-5.469 87.898-14.539v-151.935l-59.023-10z" fill="#2b2b2b"/><path d="m383.606 125.076c-22.181-12.343-50.538-20.361-87.898-20.361h-30.147v166.474h118.046v-146.113z" fill="#404040"/></g><g><path d="m0 381.039 87.249-63.065v-46.785l-45.228-10-42.021 10z" fill="#fdcb02"/><path d="m0 161.338v109.851h87.249v-46.786z" fill="#fddf02"/></g><g><path d="m208.303 273.607c0 24.661 20.063 44.725 44.725 44.725h64.825v-47.143l-51.715-10-57.835 10z" fill="#fdcb02"/><path d="m208.303 228.882h109.55v42.307h-109.55z" fill="#fddf02"/></g></g><g/><g/><g/><g/><g/><g/><g/><g/><g/><g/><g/><g/><g/><g/><g/></svg>