<svg id="Layer_1" viewBox="0 0 1000 1000" xmlns="http://www.w3.org/2000/svg" data-name="Layer 1"><path d="m828.39 283a135.62 135.62 0 0 0 -7.5-37.79 137.39 137.39 0 0 0 -69.8-77.89 135.56 135.56 0 0 0 -51.64-13.32q-3.72-.21-7.5-.21t-7.5.21a135.56 135.56 0 0 0 -51.64 13.27 136.5 136.5 0 0 0 -77.3 115.73q-.21 3.72-.21 7.5t.21 7.5a136.61 136.61 0 0 0 128.94 128.91q3.72.21 7.5.21t7.5-.21a136 136 0 0 0 51.64-13.26 136.5 136.5 0 0 0 77.3-115.65q.21-3.72.21-7.5t-.21-7.5zm-89.89 119.86a121.63 121.63 0 0 1 -93.1 0 122.32 122.32 0 0 1 -65.84-65.86 121.65 121.65 0 1 1 224.78 0 122.32 122.32 0 0 1 -65.84 65.86z"/><path d="m600.62 206.64a7.44 7.44 0 0 1 -5.3-2.2l-43.32-43.35a7.5 7.5 0 0 1 10.61-10.6l43.35 43.34a7.51 7.51 0 0 1 -5.31 12.81z"/><path d="m562.8 298h-61.32a7.5 7.5 0 0 1 0-15h61.32a7.5 7.5 0 0 1 0 15z"/><path d="m557.27 432.64a7.5 7.5 0 0 1 -5.3-12.8l43.35-43.35a7.5 7.5 0 0 1 10.61 10.61l-43.35 43.34a7.48 7.48 0 0 1 -5.31 2.2z"/><path d="m692 488.43a7.5 7.5 0 0 1 -7.5-7.5v-61.31a7.5 7.5 0 0 1 15 0v61.31a7.5 7.5 0 0 1 -7.5 7.5z"/><path d="m826.63 432.64a7.48 7.48 0 0 1 -5.31-2.2l-43.32-43.34a7.5 7.5 0 0 1 10.61-10.61l43.35 43.35a7.5 7.5 0 0 1 -5.3 12.8z"/><path d="m882.42 298h-61.32a7.5 7.5 0 0 1 0-15h61.32a7.5 7.5 0 0 1 0 15z"/><path d="m783.28 206.64a7.51 7.51 0 0 1 -5.28-12.81l43.35-43.34a7.5 7.5 0 0 1 10.61 10.6l-43.35 43.35a7.44 7.44 0 0 1 -5.33 2.2z"/><path d="m692 168.81a7.5 7.5 0 0 1 -7.5-7.5v-61.31a7.5 7.5 0 0 1 15 0v61.31a7.5 7.5 0 0 1 -7.5 7.5z"/><path d="m642.53 178.65a7.49 7.49 0 0 1 -6.93-4.65l-13.69-33a7.5 7.5 0 1 1 13.86-5.74l13.68 33a7.51 7.51 0 0 1 -6.92 10.38z"/><path d="m572.63 248.54a7.46 7.46 0 0 1 -2.87-.57l-33-13.68a7.5 7.5 0 1 1 5.74-13.86l33 13.68a7.5 7.5 0 0 1 -2.87 14.43z"/><path d="m539.59 361.08a7.5 7.5 0 0 1 -2.87-14.43l33-13.69a7.5 7.5 0 0 1 5.74 13.86l-33 13.68a7.47 7.47 0 0 1 -2.87.58z"/><path d="m628.84 450.33a7.52 7.52 0 0 1 -6.93-10.33l13.69-33a7.5 7.5 0 1 1 13.85 5.74l-13.68 33a7.51 7.51 0 0 1 -6.93 4.59z"/><path d="m755.06 450.33a7.51 7.51 0 0 1 -6.93-4.64l-13.68-33a7.5 7.5 0 1 1 13.85-5.74l13.7 33.05a7.52 7.52 0 0 1 -6.93 10.38z"/><path d="m844.31 361.08a7.47 7.47 0 0 1 -2.87-.58l-33-13.68a7.5 7.5 0 1 1 5.7-13.82l33 13.69a7.5 7.5 0 0 1 -2.87 14.43z"/><path d="m811.28 248.54a7.5 7.5 0 0 1 -2.88-14.43l33-13.68a7.5 7.5 0 0 1 5.74 13.86l-33 13.68a7.44 7.44 0 0 1 -2.86.57z"/><path d="m741.37 178.65a7.51 7.51 0 0 1 -6.92-10.38l13.68-33a7.5 7.5 0 0 1 13.87 5.73l-13.7 33a7.49 7.49 0 0 1 -6.93 4.65z"/><path d="m430.79 604a186.45 186.45 0 0 1 -46-123v-296.76a91.74 91.74 0 0 0 -183.48 0v296.68c0 45.83-16.13 89.3-45.4 122.41a183.17 183.17 0 0 0 134.57 304.15h2.63a183 183 0 0 0 137.68-303.48zm-19.74 240.12a166.86 166.86 0 0 1 -120.36 48.36c-90.09-1.25-164.38-75.57-165.59-165.66a167.65 167.65 0 0 1 42.09-113.56c31.7-35.85 49.16-82.85 49.16-132.34v-296.68a76.74 76.74 0 0 1 153.48 0v296.69q0 3.75.14 7.5a201.32 201.32 0 0 0 49.53 125.42 168 168 0 0 1 -8.45 230.27z"/><path d="m419.5 613.85a201.32 201.32 0 0 1 -49.5-125.42h-27.81a7.5 7.5 0 0 1 0-15h27.64v-57.2h-27.64a7.5 7.5 0 0 1 0-15h27.64v-57.23h-27.64a7.5 7.5 0 0 1 0-15h27.64v-57.2h-27.64a7.5 7.5 0 0 1 0-15h27.64v-57.2h-27.64a7.5 7.5 0 1 1 0-15h27.64v-.4a76.74 76.74 0 0 0 -153.48 0v296.72c0 49.49-17.46 96.49-49.16 132.34a167.65 167.65 0 0 0 -42.09 113.56c1.21 90.09 75.5 164.41 165.59 165.66a168 168 0 0 0 128.81-278.63zm-57.07 191.5a98.06 98.06 0 0 1 -69.33 28.44h-1.42a98.77 98.77 0 0 1 -71.88-165c29.25-32.35 45.35-75 45.35-120v-286a27.94 27.94 0 0 1 55.87 0v285.33c0 45.41 16.13 88.3 45.43 120.79a98.75 98.75 0 0 1 -4 136.44z" fill="#ef5350"/><path d="m813.6 290.47a120.89 120.89 0 0 1 -9.26 46.53 122.32 122.32 0 0 1 -65.84 65.84 121.63 121.63 0 0 1 -93.1 0 122.32 122.32 0 0 1 -65.84-65.84 121.65 121.65 0 1 1 234-46.55z" fill="#ffc400"/><path d="m384.83 480.93a7.5 7.5 0 0 1 -7.5 7.5h-35.14a7.5 7.5 0 0 1 0-15h35.14a7.5 7.5 0 0 1 7.5 7.5z"/><path d="m384.83 408.73a7.5 7.5 0 0 1 -7.5 7.5h-35.14a7.5 7.5 0 0 1 0-15h35.14a7.5 7.5 0 0 1 7.5 7.5z"/><path d="m384.83 336.54a7.5 7.5 0 0 1 -7.5 7.5h-35.14a7.5 7.5 0 0 1 0-15h35.14a7.5 7.5 0 0 1 7.5 7.5z"/><path d="m384.83 264.34a7.5 7.5 0 0 1 -7.5 7.5h-35.14a7.5 7.5 0 0 1 0-15h35.14a7.5 7.5 0 0 1 7.5 7.5z"/><path d="m384.83 192.14a7.5 7.5 0 0 1 -7.5 7.5h-35.14a7.5 7.5 0 1 1 0-15h35.14a7.5 7.5 0 0 1 7.5 7.5z"/><path d="m366.45 668.91c-29.3-32.49-45.45-75.38-45.45-120.79v-285.28a27.94 27.94 0 0 0 -55.87 0v286c0 45-16.1 87.64-45.35 120a98.87 98.87 0 0 0 71.88 165h1.42a98.76 98.76 0 0 0 73.35-164.88zm-14.55 125.76a83.76 83.76 0 0 1 -121-115.79c31.74-35.11 49.22-81.3 49.22-130v-286a12.94 12.94 0 0 1 25.87 0v285.24c0 49.12 17.51 95.59 49.29 130.84a83.75 83.75 0 0 1 -3.41 115.71z"/><path d="m376.85 735a83.76 83.76 0 1 1 -145.92-56.15c31.74-35.11 49.22-81.3 49.22-130v-286a12.94 12.94 0 0 1 25.87 0v285.27c0 49.12 17.51 95.59 49.29 130.84a83.57 83.57 0 0 1 21.54 56.04z" fill="#d1c4e9"/></svg>