<svg viewBox="0 0 64 64" xmlns="http://www.w3.org/2000/svg"><g id="High_Heels" data-name="High Heels"><path d="m12 53h-4s.92-5-5.27-18.23c-.13-.28-.25-.56-.36-.83a63.61066 63.61066 0 0 1 11.43 2.29c-2.31 4.91-1.8 16.77-1.8 16.77z" fill="#dd97cd"/><path d="m63 49.58a3.41853 3.41853 0 0 1 -3.42 3.42h-17.02a6.88079 6.88079 0 0 1 -5.38-2.52c-11.76-14.69-34.81-16.54-34.81-16.54-5.31-12.77 6.52-20.94 6.52-20.94 4.32-3.46 3.28-3.84 13.86 10.54a29.8465 29.8465 0 0 0 26.14 12.46l12.91 10.98a3.42358 3.42358 0 0 1 1.2 2.6z" fill="#eaacde"/><path d="m42.88879 40.00037 6.00037-4.00025a29.84576 29.84576 0 0 1 -26.13916-12.46012c-10.58-14.38-9.54-14-13.86-10.54l-.001.00067c.00537.007 9.17956 11.86225 16.89038 20.9997 10.12644 12 17.10941 6 17.10941 6z" fill="#dd97cd"/><g fill="#2c3638"><path d="m62.44336 46.21387-12.90723-10.97559-.00177-.0011a1.113 1.113 0 0 0 -.76776-.22839 29.02568 29.02568 0 0 1 -25.21289-12.06641c-1.05469-1.43359-1.99414-2.7207-2.835-3.87207-4.93945-6.76855-6.43066-8.81054-8.28613-9.0498-1.25977-.16406-2.22657.61914-3.55664 1.70312l-.598.48426c-.76948.5556-12.21058 9.12854-6.84345 22.087.00781.02051.01563.04.02441.05957q.17286.41456.36915.834c5.89949 12.62795 5.19441 17.59377 5.18855 17.63088a.99885.99885 0 0 0 .9834 1.18066h4a.99959.99959 0 0 0 .999-1.043c-.00488-.11035-.42871-10.45117 1.37305-15.49805 7.23145 2.21582 16.13477 6.28614 22.03125 13.64942a7.81547 7.81547 0 0 0 6.15334 2.89163h17.02441a4.41932 4.41932 0 0 0 2.86231-7.78613zm-50.2666-34.21c1.00293.1289 3.10644 3.01172 6.92676 8.24609.84179 1.15332 1.78222 2.44141 2.83886 3.87793a31.20005 31.20005 0 0 0 23.60862 12.89536l-3.217 2.14475a.89721.89721 0 0 0 -.09668.07324 6.99292 6.99292 0 0 1 -4.76757 1.23242c-3.45118-.27734-7.2295-2.73828-10.92578-7.11816-6.49215-7.6925-14.10714-17.4245-16.26461-20.19595.86877-.70874 1.49713-1.22055 1.8974-1.15564zm-1.20801 39.99613h-1.92575c-.03711-2.15137-.69824-7.375-5.03223-16.85645a68.19693 68.19693 0 0 1 8.43946 1.75782c-1.55863 4.53711-1.54496 12.28613-1.48148 15.09863zm48.6123 0h-17.02441a5.8279 5.8279 0 0 1 -4.59277-2.1416c-10.95117-13.67578-31.02149-16.4404-34.88965-16.85352-3.74022-9.84961 3.23827-16.63965 5.63478-18.60644 2.18165 2.80273 9.80469 12.543 16.30567 20.24609 4.10644 4.86621 8.24316 7.49707 12.2959 7.82227a8.9814 8.9814 0 0 0 6.17285-1.66114l5.332-3.55468 12.332 10.48632a2.41927 2.41927 0 0 1 -1.56637 4.2627z"/><path d="m4.68262 23.292a.99636.99636 0 0 0 -1.21875.7168 13.6312 13.6312 0 0 0 -.34278 5.05566 1.00058 1.00058 0 0 0 .99219.88184.98453.98453 0 0 0 .11914-.00684.99973.99973 0 0 0 .875-1.11132 11.65145 11.65145 0 0 1 .292-4.31739.99938.99938 0 0 0 -.7168-1.21875z"/></g></g></svg>