<svg enable-background="new 0 0 512 512" viewBox="0 0 512 512" xmlns="http://www.w3.org/2000/svg"><g id="Layer_1" display="none"><g display="inline" fill="none" stroke="#6d6e71" stroke-miterlimit="10" stroke-width=".284"><path d="m0 0h512v512h-512z"/><circle cx="256" cy="256" r="256"/><path d="m75 75h362v362h-362z"/><path d="m128 0h256v512h-256z"/><path d="m256 0v512"/><path d="m0 128h512v256h-512z"/><path d="m0 256h512"/><path d="m512 0-512 512"/><path d="m0 0 512 512"/><circle cx="256" cy="256" r="181.3"/><circle cx="256" cy="256" r="128"/><circle cx="256" cy="256" r="64"/></g></g><g id="Layer_2"><g><g><g><path d="m80.8 151.9c-33.2-6.6-58.4-36.1-58.4-71.2 0-20 8.2-38.1 21.3-51.2 13.3-13.1 31.4-21.3 51.3-21.3s38.1 8.2 51.2 21.3c10.9 10.9 18.3 25.1 20.6 41" fill="#f78c80"/><path d="m79.2 160c-37.6-7.5-65-40.9-65-79.2 0-21.5 8.4-41.8 23.7-57.1 15.4-15.3 35.6-23.7 57.1-23.7s41.8 8.4 57.1 23.7c12.5 12.5 20.4 28.3 22.9 45.6l-16.3 2.3c-2-13.8-8.3-26.3-18.2-36.3-12.2-12.1-28.4-18.8-45.5-18.8s-33.2 6.7-45.4 18.9-18.9 28.3-18.9 45.4c0 30.5 21.8 57.1 51.7 63.1z" fill="#231f20"/></g><g><path d="m345 71.9c2-16.4 9.6-31.2 20.8-42.3 13.1-13.2 31.2-21.4 51.2-21.4s38.1 8.2 51.2 21.3 21.3 31.3 21.3 51.2-8.2 38.1-21.3 51.2c-10.6 10.6-24.3 17.9-39.7 20.4" fill="#f78c80"/><path d="m429.9 160.5-2.6-16.3c13.3-2.1 25.5-8.4 35.2-18.1 12.2-12.2 18.9-28.3 18.9-45.4s-6.7-33.2-18.9-45.4-28.3-18.9-45.4-18.9-33.2 6.7-45.4 18.9c-10.1 10.1-16.7 23.5-18.4 37.5l-16.3-2c2.2-17.7 10.4-34.4 23.1-47.1 15.1-15.3 35.4-23.7 56.9-23.7s41.8 8.4 57.1 23.7 23.7 35.6 23.7 57.1-8.4 41.8-23.7 57.1c-12.2 12.1-27.5 19.9-44.2 22.6z" fill="#231f20"/></g></g><g><path d="m388.1 503.8h-264.2c-62.2 0-112.6-50.4-112.6-112.6 0-1.2 0-2.3 0-3.4 2.2-88.3 93.4-146.3 175.2-112.9l57.7 27.7c7.5 3.1 16 3.1 23.5 0l57.7-27.7c81.8-33.4 172.9 24.6 175.2 112.9v3.4c.1 62.2-50.3 112.6-112.5 112.6z" fill="#ffb8b0"/><path d="m388.1 512h-264.2c-66.6 0-120.8-54.2-120.8-120.8 0-1.2 0-2.4 0-3.7 1.1-44.3 23.2-83.8 60.6-108.2 37.5-24.5 84.6-29 125.9-12.2l.4.2 57.5 27.5c5.4 2.2 11.4 2.2 16.9 0l57.9-27.7c41.4-16.9 88.4-12.3 125.9 12.2 37.4 24.4 59.5 63.9 60.6 108.2v3.7c.1 66.6-54.1 120.8-120.7 120.8zm-249.8-238.4c-23 0-45.8 6.6-65.6 19.5-32.8 21.4-52.2 56-53.1 94.8v3.2c0 57.5 46.8 104.3 104.3 104.3h264.3c57.5 0 104.3-46.8 104.3-104.3 0-1.1 0-2.2 0-3.2-1-38.8-20.4-73.4-53.1-94.8-32.9-21.5-74.2-25.5-110.5-10.8l-57.9 27.7c-9.6 3.9-20.1 3.9-29.7 0l-.4-.2-57.5-27.6c-14.7-5.7-29.9-8.6-45.1-8.6z" fill="#231f20"/></g><g><path d="m455.3 294.8c-34.5-28.5-83.7-38.8-129.8-19.9l-41.6 19.9-16.1 7.7c-7.5 3.1-16 3.1-23.5 0l-16.1-7.7-41.6-19.9c-46.2-18.9-95.4-8.5-129.8 19.9v-45.4c0-35.3 9.3-68.6 25.6-97.4 19.8-35 49.8-63.6 86-81.4 26.4-13.2 56.2-20.6 87.6-20.6 32.5 0 63.2 7.9 90.4 21.8 18.7 9.6 35.7 22 50.4 36.7 13 13 24.2 27.7 33.2 43.8 16.1 28.7 25.3 61.8 25.3 96.9z" fill="#f78c80"/><path d="m256 313c-5 0-10.1-1-14.9-2.9l-.4-.2-57.5-27.6c-40.8-16.5-87.2-9.3-121.3 18.8l-2.5 2-11-.6v-7.8-45.4c0-35.5 9.2-70.6 26.7-101.5 20.8-36.8 51.7-66.1 89.5-84.8 28.7-14 59.4-21.2 91.4-21.2 32.6 0 65.2 7.9 94.2 22.7 19.4 9.9 37 22.8 52.4 38.2 13.6 13.6 25.2 28.9 34.6 45.6 17.3 30.8 26.4 65.7 26.4 101v45.4h-8.2l-5.2 6.3c-34-28.1-80.5-35.3-121.3-18.7l-57.9 27.8c-4.9 2-10 2.9-15 2.9zm-8.4-18c5.4 2.2 11.4 2.2 16.9 0l57.9-27.7c41.3-16.8 87.7-12.3 124.7 11.4v-29.3c0-32.5-8.4-64.6-24.3-92.9-8.6-15.4-19.4-29.5-31.9-42-14.2-14.2-30.5-26.1-48.3-35.2-27-13.9-56.2-20.9-86.7-20.9-29.4 0-57.7 6.6-84.1 19.6-34.8 17.2-63.4 44.2-82.5 78.1-16.1 28.4-24.5 60.7-24.5 93.4v29.3c37-23.7 83.5-28.2 124.7-11.4l.4.2z" fill="#231f20"/></g><g><g><circle cx="202.7" cy="188" fill="#ffb8b0" r="18"/><path d="m202.7 214.2c-14.5 0-26.3-11.8-26.3-26.3s11.8-26.3 26.3-26.3 26.3 11.9 26.3 26.4-11.8 26.2-26.3 26.2zm0-36c-5.4 0-9.8 4.4-9.8 9.8s4.4 9.8 9.8 9.8 9.8-4.4 9.8-9.8-4.3-9.8-9.8-9.8z" fill="#231f20"/></g><g><circle cx="309.3" cy="188" fill="#ffb8b0" r="18"/><path d="m309.3 214.2c-14.5 0-26.3-11.8-26.3-26.3s11.8-26.3 26.3-26.3 26.3 11.8 26.3 26.3c-.1 14.6-11.9 26.3-26.3 26.3zm0-36c-5.4 0-9.8 4.4-9.8 9.8s4.4 9.8 9.8 9.8 9.8-4.4 9.8-9.8c-.1-5.4-4.4-9.8-9.8-9.8z" fill="#231f20"/></g></g><g><g><circle cx="148.4" cy="386.5" fill="#ffb8b0" r="36"/><path d="m148.4 430.7c-24.4 0-44.2-19.8-44.2-44.2s19.8-44.2 44.2-44.2 44.2 19.8 44.2 44.2-19.8 44.2-44.2 44.2zm0-72c-15.3 0-27.8 12.5-27.8 27.8s12.5 27.8 27.8 27.8 27.8-12.5 27.8-27.8-12.5-27.8-27.8-27.8z" fill="#231f20"/></g><g><circle cx="363.6" cy="386.5" fill="#ffb8b0" r="36"/><path d="m363.6 430.7c-24.4 0-44.2-19.8-44.2-44.2s19.8-44.2 44.2-44.2 44.2 19.8 44.2 44.2-19.8 44.2-44.2 44.2zm0-72c-15.3 0-27.8 12.5-27.8 27.8s12.5 27.8 27.8 27.8 27.8-12.5 27.8-27.8c-.1-15.3-12.5-27.8-27.8-27.8z" fill="#231f20"/></g></g></g></g></svg>