<svg id="Capa_1" enable-background="new 0 0 512 512" height="512" viewBox="0 0 512 512" width="512" xmlns="http://www.w3.org/2000/svg"><g><g><path d="m51.894 434.304 6.723 11.991c19.396 35.152 52.746 56.769 92.894 56.769l20.638 1.436h188.057c38.182 0 73.492-19.741 93.543-51.911 0 0-1.848-5.506-.898-7.228l11.043-10.745-207.894-68.056z" fill="#e5dcd8"/><g><path d="m256 366.56-184.29 61.27-23.16 7.7c3.837 6.716 5.568 10.211 9.726 17.064 20.048 32.159 55.346 51.906 93.514 51.906h27c-32.017 0-62.023-13.889-82.696-37.348-3.029-3.437-.156-8.783 4.392-8.234 32.319 3.901 66.794-1.082 96.174-15.947 18.36-8.89 38.85-13.59 59.25-13.59 20.33 0 40.75 4.66 59.06 13.49l1.31.63c11.38 5.48 23.38 9.68 35.68 12.49 12.3 2.82 24.88 4.27 37.42 4.27 8.13 0 16.33-.6 24.38-1.78 12.83-1.89 26.84-3.95 39.99-5.89 1.03-1.66 2.02-3.35 2.97-5.07l7.17-12.9zm-175.085 78.227c.033.06.028.124.001.191l-.121-.225z" fill="#dbd2cc"/></g><g><path d="m109.472 88-44.132 5.915c-27.119 4.83-52.894-13.923-52.894-41.468l-.918-13.66v-12.452c0-10.402 8.433-18.835 18.835-18.835h22.602c31.207 0 56.506 25.298 56.506 56.506v23.994z" fill="#f0e9e6"/><path d="m109.47 71v17l-45.93 8.18c-27.12 4.83-52.01-16.02-52.01-43.57v-17c0 27.55 24.89 48.4 52.01 43.57z" fill="#e5dcd8"/></g><g><path d="m402.528 88 44.131 5.915c27.119 4.83 52.894-13.923 52.894-41.468l.918-13.66v-12.452c0-10.402-8.433-18.835-18.835-18.835h-22.602c-31.207 0-56.506 25.298-56.506 56.506z" fill="#f0e9e6"/><path d="m402.53 71v17l45.93 8.18c27.12 4.83 52.01-16.02 52.01-43.57v-17c0 27.55-24.89 48.4-52.01 43.57z" fill="#e5dcd8"/></g><path d="m404.108 45.108c-7.433-7.433-17.513-11.608-28.025-11.608-8.804 0-17.358 2.932-24.311 8.332l-26.032 20.219c-9.554 7.421-21.307 11.449-33.404 11.449h-72.672c-12.097 0-23.85-4.028-33.404-11.449l-26.032-20.219c-4.815-3.739-10.396-6.295-16.297-7.514 0 0-5.306.043-8.014.043v-.106c-10.511 0-18.335 4.291-25.768 11.723-11.776 11.776-18 26.878-18 43.532l3.191 26.553-9.83 14.298c-26.072 40.493-29.444 92.348-11.422 137.009l1.263 3.129h367.149c5.143-12.744 6.61-26.729 8.074-40.053.19-1.729 2.293-4.427 2.293-4.427 2.493-33.503-6.44-67.36-26.136-95.686-2.755-3.961-4.231-8.671-4.231-13.496v-27.327c0-16.654-6.616-32.626-18.392-44.402z" fill="#e5dcd8"/><path d="m442.74 221.07-48.17-20.94c-1.41-.61-2.62-1.63-3.47-2.91-1.6-2.42-3.44-4.69-5.54-6.78-8.18-8.19-19.07-12.7-30.65-12.7s-22.46 4.51-30.65 12.7c-.69.69-1.34 1.43-1.97 2.21-1.54 1.93-3.84 3.1-6.31 3.1h-119.96c-2.47 0-4.77-1.17-6.31-3.1-.63-.78-1.28-1.52-1.97-2.21-8.19-8.19-19.07-12.7-30.65-12.7s-22.47 4.51-30.65 12.7c-2.21 2.21-4.15 4.62-5.81 7.19-.85 1.33-2.08 2.37-3.53 2.99l-36.641 15.823c-3.31 1.429-6.991-1.008-6.99-4.614.008-28.077 7.98-55.978 23.601-80.239l3.971-6.166c2.911-4.52 4.459-9.783 4.459-15.16v-20.754c0-8.33 1.66-16.48 4.78-24.03 3.13-7.55 7.72-14.48 13.61-20.37 3.71-3.71 8.09-6.62 12.86-8.59 2.32-.96 4.72-1.7 7.18-2.2-2.62-.54-5.3-.82-8.01-.82-5.26 0-10.4 1.04-15.17 3.02-4.77 1.97-9.15 4.88-12.86 8.59-5.89 5.89-10.48 12.82-13.61 20.37-3.12 7.55-4.78 15.7-4.78 24.03v22.037c0 4.539-1.307 8.983-3.765 12.799l-4.665 7.244c-18.385 28.555-26.166 62.151-22.845 95.142-.005.003-.01.005-.015.008l.017.006c1.389 13.785 4.703 27.464 10.013 40.624l1.26 3.13h373c5.81-14.4 9.247-29.4 10.367-44.48-3.28-1.79-6.657-3.44-10.127-4.95z" fill="#dbd2cc"/><path d="m437.157 233.912-55.571-24.161-130.629 34.611-119.681-34.611-56.172 24.252c-.128.055-.257.111-.385.167 0 0-7.317 4.195-11.039 6.362-34.144 19.882-51.362 56.336-51.362 96.511l-.212 52.957c0 17.309 5.923 33.239 20.638 40.745 2.928 1.494 8.635 4.977 8.635 4.977 1.499.381 3.03.688 4.59.917l54.88 8.05c30.06 4.409 60.752-.31 88.099-13.546l1.607-.778c18.358-8.885 38.076-13.819 57.945-14.801l7.723-3.904 7.276 3.912c19.728.999 39.305 5.893 57.547 14.685l1.313.633c27.964 13.478 58.98 18.211 89.364 13.736 17.636-2.597 37.502-5.517 54.314-7.986 22.093-3.245 38.462-22.197 38.462-44.527v-55.49c.001-44.589-26.449-84.932-67.342-102.711z" fill="#faf8f8"/><g fill="#f0e9e6"><path d="m33.5 405.14c0 11.28 2.89 21.84 7.88 30.58-19.73-5.01-33.88-22.85-33.88-43.6v-55.29c0-44.56 26.41-84.86 67.22-102.66-25.67 25.19-41.22 63.31-41.22 104.45z"/><path d="m355.34 209.75h-206.18l12.093 29.24 42.57 18.4c35.049 25.585 52.177 55.82 52.177 98.81 0-42.99 20.924-73.225 53.995-98.81.149-.115 43.02-22.47 43.02-22.47z"/><path d="m177.838 200.337c-11.46-11.46-30.041-11.46-41.501 0s-11.46 30.041 0 41.501c8.466 8.466 31.782 9.134 43.387 8.905 3.848-.076 6.943-3.171 7.018-7.018.229-11.607-.439-34.922-8.904-43.388z"/></g><path d="m181.35 220.747c-6.794-6.794-17.81-6.794-24.604 0s-6.794 17.81 0 24.604c5.077 5.077 19.16 5.424 25.956 5.275 2.151-.047 3.875-1.771 3.923-3.923.148-6.796-.199-20.879-5.275-25.956z" fill="#e5dcd8"/><path d="m334.162 200.337c11.46-11.46 30.041-11.46 41.501 0s11.46 30.041 0 41.501c-8.512 8.512-32.034 9.141-43.574 8.901-3.743-.078-6.75-3.085-6.828-6.828-.239-11.54.39-35.063 8.901-43.574z" fill="#f0e9e6"/><path d="m330.643 220.747c6.794-6.794 17.81-6.794 24.604 0s6.794 17.81 0 24.604c-5.077 5.077-19.16 5.424-25.956 5.275-2.151-.047-3.875-1.771-3.923-3.923-.149-6.796.198-20.879 5.275-25.956z" fill="#e5dcd8"/></g><g><path d="m459.143 237.431c4.222-28.949.268-58.283-11.547-85.15-7.046-15.797-12.427-34.286-15.145-51.334 7.591 1.187 15.478 3.298 23.778 3.42 11.744 0 23.233-4 32.51-11.496 3.222-2.603 3.723-7.325 1.12-10.547s-7.325-3.723-10.547-1.12c-8.283 6.693-19.052 9.458-29.538 7.592l-19.744-3.516c.567-18.005 14.164-35.047 31.771-40.642 3.942-1.271 6.108-5.497 4.838-9.439s-5.495-6.106-9.439-4.838c-13.916 4.332-27.281 15.13-34.483 28.042-2.392-4.846-5.344-9.413-8.786-13.598 7.634-17.985 25.272-29.805 45.103-29.805h22.602c6.25 0 11.335 5.085 11.335 11.335-.101 7.05.229 24.804-.179 29.947-.404 4.123 2.611 7.792 6.733 8.195.249.024.495.036.74.036 3.813 0 7.076-2.896 7.456-6.77.44-1.984.189-28.965.25-31.409.001-14.52-11.813-26.334-26.335-26.334h-22.602c-24.06 0-45.645 13.328-56.585 34.055-7.725-5.236-16.827-8.055-26.366-8.055-10.417 0-20.685 3.519-28.912 9.909l-26.031 20.219c-8.197 6.366-18.426 9.872-28.804 9.872h-37.628c-4.142 0-7.5 3.358-7.5 7.5s3.358 7.5 7.5 7.5h37.628c13.693 0 27.19-4.626 38.005-13.025l26.032-20.219c5.609-4.356 12.609-6.755 19.71-6.755 8.583 0 16.652 3.342 22.722 9.412 8.638 8.638 14.235 20.069 15.761 32.188 2.809 24.407 8.495 51.939 19.299 75.72 9.868 22.439 13.678 46.782 11.187 70.995-.855-.663-55.297-24.136-57.387-25.099-1.701-3.309-3.931-6.414-6.699-9.182-6.959-6.959-16.211-10.792-26.054-10.792-9.842 0-19.094 3.833-26.053 10.792-1.963 1.962-3.585 4.43-4.935 7.217h-135.848c-1.35-2.788-2.973-5.255-4.935-7.217-6.959-6.959-16.211-10.792-26.053-10.792s-19.095 3.833-26.054 10.792c-2.896 2.896-5.198 6.162-6.926 9.643-14.143 6.256-44.687 18.973-57.978 25.256-3.383-25.908.46-51.986 11.308-76.007 8.135-17.602 13.812-37.043 17.389-55.396 1.255-5.795 2.056-11.581 2.613-15.974 1.534-12.101 7.129-23.517 15.756-32.143 6.068-6.072 14.137-9.414 22.721-9.414 7.102 0 14.102 2.399 19.71 6.755l26.032 20.219c10.815 8.4 24.312 13.026 38.005 13.026 4.142 0 7.5-3.358 7.5-7.5s-3.358-7.5-7.5-7.5c-10.378 0-20.607-3.506-28.804-9.872l-26.032-20.219c-8.227-6.39-18.495-9.909-28.911-9.909-9.538 0-18.641 2.82-26.366 8.055-10.942-20.725-32.535-34.055-56.585-34.055h-22.602c-14.522 0-26.336 11.814-26.336 26.335v26.276c0 15.354 6.751 29.815 18.521 39.675 9.405 7.877 21.139 12.085 33.187 12.085 3.631.396 19.157-2.594 23.194-3.314-2.886 14.643-8.124 31.157-15.164 46.694-12.878 28.514-16.845 59.65-11.576 90.362-17.34 11.823-31.388 28.07-40.548 47.262-1.784 3.738-.2 8.215 3.538 9.999 1.042.498 2.142.733 3.225.733 2.8 0 5.487-1.576 6.774-4.271 10.896-22.831 29.683-40.924 52.898-50.947l42.218-18.228c.377 8.904 3.953 17.697 10.737 24.48 9.527 9.528 30.755 11.203 44.498 11.203 3.94 0 7.259-.138 9.517-.268 38.597 17.37 63.452 55.692 63.452 98.123v52.215c-21.299 1.007-42.46 6.278-62.317 15.84l-.106.051c-26.351 12.69-55.577 17.154-84.516 12.91l-54.503-7.995c-18.275-2.682-32.057-18.634-32.057-37.105v-55.287c0-4.59.305-9.218.906-13.755.544-4.106-2.344-7.876-6.45-8.42-4.113-.545-7.876 2.344-8.42 6.45-.687 5.189-1.036 10.479-1.036 15.726v55.287c0 25.83 19.25 48.136 44.791 51.929l3.918 7.1c20.713 37.536 60.213 60.855 103.085 60.855h208.411c42.873 0 82.373-23.319 103.085-60.856l3.919-7.102c25.541-3.792 44.791-26.098 44.791-51.928v-55.49c0-40.275-20.198-77.266-52.857-99.193zm-396.916-148.635c-10.736 1.912-21.687-1.008-30.045-8.009-8.359-7.002-13.153-17.271-13.153-28.176v-26.276c0-6.25 5.085-11.335 11.335-11.335h22.602c19.824 0 37.469 11.822 45.105 29.805-3.486 4.239-6.473 8.867-8.881 13.781-7.419-13.174-19.638-23.488-34.59-28.234-3.947-1.253-8.164.932-9.417 4.879s.931 8.164 4.879 9.417c17.9 5.682 30.601 21.954 31.837 40.644zm292.686 110.446c5.835 0 11.321 2.272 15.447 6.398s6.398 9.612 6.398 15.447-2.272 11.321-6.398 15.447c-.794.794-1.873 1.505-3.174 2.144 1.865-8.092-.343-16.942-6.635-23.235-6.29-6.289-15.135-8.497-23.224-6.637.638-1.297 1.348-2.375 2.14-3.167 4.125-4.125 9.611-6.397 15.446-6.397zm-4.969 40.806c-1.777 1.777-9.121 3.021-17.126 3.128.107-8.006 1.352-15.349 3.128-17.126 3.859-3.86 10.139-3.859 13.997 0 3.86 3.86 3.86 10.139.001 13.998zm-170.769 3.128c-8.005-.108-15.35-1.352-17.125-3.128-3.859-3.859-3.859-10.139 0-13.998 1.93-1.93 4.464-2.895 6.999-2.895s5.069.965 6.999 2.894c1.775 1.778 3.019 9.123 3.127 17.127zm-43.933-22.089c0-5.835 2.272-11.321 6.398-15.447s9.612-6.398 15.447-6.398 11.321 2.272 15.447 6.398c.792.792 1.503 1.87 2.141 3.168-8.092-1.864-16.94.344-23.233 6.635-6.291 6.292-8.5 15.141-6.635 23.233-1.296-.638-2.374-1.35-3.167-2.143-4.126-4.125-6.398-9.611-6.398-15.446zm58.987 24.712c.25-6.798.24-17.979-1.63-28.548h126.803c-1.87 10.569-1.88 21.751-1.63 28.548-29.112 14.058-50.979 38.738-61.771 68.18-10.793-29.441-32.661-54.122-61.772-68.18zm302.771 146.315c0 18.472-13.782 34.423-32.059 37.104l-54.478 7.989c-8.671 1.271-17.506 1.759-26.263 1.456-4.134-.147-7.612 3.094-7.757 7.234-.144 4.14 3.095 7.612 7.234 7.757 1.856.064 3.715.097 5.576.097 7.819 0 15.663-.57 23.386-1.703l35.857-5.258c-18.47 31.055-51.994 50.21-88.29 50.21h-208.412c-36.296 0-69.819-19.154-88.291-50.209l35.881 5.263c7.833 1.149 15.679 1.719 23.498 1.719 24.04-.001 47.776-5.396 69.703-15.955l.106-.051c40.266-19.39 86.449-19.382 126.707.021 8.987 4.331 18.425 7.841 28.052 10.431 3.999 1.079 8.115-1.293 9.191-5.293 1.077-4-1.293-8.115-5.293-9.191-8.729-2.35-17.288-5.532-25.438-9.459-19.884-9.583-41.078-14.862-62.41-15.864v-52.213c0-42.431 24.855-80.752 63.452-98.123 2.257.13 5.575.268 9.517.268 13.743 0 34.971-1.676 44.498-11.203 6.867-6.867 10.443-15.793 10.745-24.81l42.456 18.459c38.168 16.596 62.832 54.212 62.832 95.834z"/><path d="m175.52 310c4.142 0 7.5-3.358 7.5-7.5s-3.358-7.5-7.5-7.5h-.01c-4.142 0-7.495 3.358-7.495 7.5s3.363 7.5 7.505 7.5z"/><path d="m125.52 310c4.142 0 7.5-3.358 7.5-7.5s-3.358-7.5-7.5-7.5h-.01c-4.142 0-7.495 3.358-7.495 7.5s3.363 7.5 7.505 7.5z"/><path d="m75.52 310c4.142 0 7.5-3.358 7.5-7.5s-3.358-7.5-7.5-7.5h-.01c-4.142 0-7.495 3.358-7.495 7.5s3.363 7.5 7.505 7.5z"/><path d="m175.52 390c4.142 0 7.5-3.358 7.5-7.5s-3.358-7.5-7.5-7.5h-.01c-4.142 0-7.495 3.358-7.495 7.5s3.363 7.5 7.505 7.5z"/><path d="m125.52 390c4.142 0 7.5-3.358 7.5-7.5s-3.358-7.5-7.5-7.5h-.01c-4.142 0-7.495 3.358-7.495 7.5s3.363 7.5 7.505 7.5z"/><path d="m75.52 390c4.142 0 7.5-3.358 7.5-7.5s-3.358-7.5-7.5-7.5h-.01c-4.142 0-7.495 3.358-7.495 7.5s3.363 7.5 7.505 7.5z"/><path d="m158.02 342.5c0-4.142-3.358-7.5-7.5-7.5h-.01c-4.142 0-7.495 3.358-7.495 7.5s3.363 7.5 7.505 7.5 7.5-3.358 7.5-7.5z"/><path d="m208.02 342.5c0-4.142-3.358-7.5-7.5-7.5h-.01c-4.142 0-7.495 3.358-7.495 7.5s3.363 7.5 7.505 7.5 7.5-3.358 7.5-7.5z"/><path d="m108.02 342.5c0-4.142-3.358-7.5-7.5-7.5h-.01c-4.142 0-7.495 3.358-7.495 7.5s3.363 7.5 7.505 7.5 7.5-3.358 7.5-7.5z"/><path d="m58.02 342.5c0-4.142-3.358-7.5-7.5-7.5h-.01c-4.142 0-7.495 3.358-7.495 7.5s3.363 7.5 7.505 7.5 7.5-3.358 7.5-7.5z"/><path d="m435.52 295h-.01c-4.142 0-7.495 3.358-7.495 7.5s3.363 7.5 7.505 7.5 7.5-3.358 7.5-7.5-3.358-7.5-7.5-7.5z"/><path d="m385.52 295h-.01c-4.142 0-7.495 3.358-7.495 7.5s3.363 7.5 7.505 7.5 7.5-3.358 7.5-7.5-3.358-7.5-7.5-7.5z"/><path d="m335.52 295h-.01c-4.142 0-7.495 3.358-7.495 7.5s3.363 7.5 7.505 7.5 7.5-3.358 7.5-7.5-3.358-7.5-7.5-7.5z"/><path d="m435.52 375h-.01c-4.142 0-7.495 3.358-7.495 7.5s3.363 7.5 7.505 7.5 7.5-3.358 7.5-7.5-3.358-7.5-7.5-7.5z"/><path d="m385.52 375h-.01c-4.142 0-7.495 3.358-7.495 7.5s3.363 7.5 7.505 7.5 7.5-3.358 7.5-7.5-3.358-7.5-7.5-7.5z"/><path d="m335.52 375h-.01c-4.142 0-7.495 3.358-7.495 7.5s3.363 7.5 7.505 7.5 7.5-3.358 7.5-7.5-3.358-7.5-7.5-7.5z"/><path d="m410.52 335h-.01c-4.142 0-7.495 3.358-7.495 7.5s3.363 7.5 7.505 7.5 7.5-3.358 7.5-7.5-3.358-7.5-7.5-7.5z"/><path d="m460.51 335c-4.142 0-7.495 3.358-7.495 7.5s3.363 7.5 7.505 7.5 7.5-3.358 7.5-7.5-3.358-7.5-7.5-7.5z"/><path d="m360.52 335h-.01c-4.142 0-7.495 3.358-7.495 7.5s3.363 7.5 7.505 7.5 7.5-3.358 7.5-7.5-3.358-7.5-7.5-7.5z"/><path d="m310.52 335h-.01c-4.142 0-7.495 3.358-7.495 7.5s3.363 7.5 7.505 7.5 7.5-3.358 7.5-7.5-3.358-7.5-7.5-7.5z"/><path d="m123.5 106.5v25c0 4.142 3.358 7.5 7.5 7.5s7.5-3.358 7.5-7.5v-25c0-4.142-3.358-7.5-7.5-7.5s-7.5 3.358-7.5 7.5z"/><path d="m388.5 131.5v-25c0-4.142-3.358-7.5-7.5-7.5s-7.5 3.358-7.5 7.5v25c0 4.142 3.358 7.5 7.5 7.5s7.5-3.358 7.5-7.5z"/></g></g></svg>