<svg id="Filled_Expand" height="512" viewBox="0 0 64 64" width="512" xmlns="http://www.w3.org/2000/svg" data-name="Filled Expand"><path d="m46-5a3.5 3.5 0 0 1 3.5 3.5v28.5a0 0 0 0 1 0 0h-7a0 0 0 0 1 0 0v-28.5a3.5 3.5 0 0 1 3.5-3.5z" fill="#c3875a" transform="matrix(0 1 -1 0 57 -35)"/><path d="m31.575 33v-6h-23.15v6l-2.394 1.368a8 8 0 0 0 -3.974 7.9l1.943 16.209a4 4 0 0 0 3.974 3.523h24.052a4 4 0 0 0 3.974-3.523l1.945-16.21a8 8 0 0 0 -3.974-7.9z" fill="#96e1ff"/><path d="m2.985 50 1.015 8.477a4 4 0 0 0 3.974 3.523h24.052a4 4 0 0 0 3.974-3.523l1.015-8.477z" fill="#ffe664"/><path d="m16.5 14v22.5a3.5 3.5 0 0 0 3.5 3.5 3.5 3.5 0 0 0 3.5-3.5v-22.5z" fill="#f7d546"/><g fill="#ffe664"><rect height="18" rx="3.5" width="7" x="9.5" y="2"/><rect height="18" rx="3.5" width="7" x="16.5" y="2"/><rect height="18" rx="3.5" width="7" x="23.5" y="2"/></g><path d="m58.5 5.75h-26.25v-.25a5.241 5.241 0 0 0 -8.75-3.9 5.218 5.218 0 0 0 -7 0 5.241 5.241 0 0 0 -8.75 3.9v11a5.236 5.236 0 0 0 7 4.944v3.806h-8.75a1.75 1.75 0 0 0 0 3.5h.675v3.234l-1.512.865a9.73 9.73 0 0 0 -4.843 9.628l1.945 16.208a5.753 5.753 0 0 0 5.709 5.065h24.052a5.753 5.753 0 0 0 5.709-5.064l1.946-16.21a9.732 9.732 0 0 0 -4.844-9.627l-1.512-.865v-3.234h.675a1.75 1.75 0 0 0 0-3.5h-8.75v-3.806a5.236 5.236 0 0 0 7-4.944v-.25h26.25a5.25 5.25 0 0 0 0-10.5zm-40.25-.25a1.75 1.75 0 0 1 3.5 0v11a1.75 1.75 0 0 1 -3.5 0zm0 15.944a5.157 5.157 0 0 0 3.5 0v3.806h-3.5zm0 7.306h3.5v7.75a1.75 1.75 0 0 1 -3.5 0zm-5.25-10.5a1.752 1.752 0 0 1 -1.75-1.75v-11a1.75 1.75 0 0 1 3.5 0v11a1.752 1.752 0 0 1 -1.75 1.75zm21.26 40.019a2.251 2.251 0 0 1 -2.234 1.981h-24.052a2.251 2.251 0 0 1 -2.234-1.982l-.782-6.518h30.085zm-4.435-29.519v4.25a1.75 1.75 0 0 0 .882 1.52l2.393 1.368a6.239 6.239 0 0 1 3.105 6.171l-.743 6.191h-30.924l-.738-6.19a6.237 6.237 0 0 1 3.1-6.172l2.393-1.368a1.75 1.75 0 0 0 .882-1.52v-4.25h4.575v7.75a5.25 5.25 0 0 0 10.5 0v-7.75zm-1.075-12.25a1.75 1.75 0 0 1 -3.5 0v-11a1.75 1.75 0 0 1 3.5 0zm29.75-3.75h-26.25v-3.5h26.25a1.75 1.75 0 0 1 0 3.5z"/></svg>