<svg enable-background="new 0 0 512 512" viewBox="0 0 512 512" xmlns="http://www.w3.org/2000/svg"><g id="_x32_6_x2C__Horseshoe_x2C__Horse_x2C__Western_x2C__Good_Luck_x2C__Ornamental_x2C__Animals_x2C__Animal_x2C__Luck"><g><path d="m481 46h-73.23c-11.39 0-20.46 9.49-19.99 20.86 1.25 30.69 5.28 61.23 12.06 91.21.71 3.13 1.35 6.23 1.94 9.3l-32.78 114.83-113 75.32-95-56.653-50.78-133.487c.58-3.07 1.23-6.18 1.94-9.31 4.16-18.39 7.28-36.98 9.36-55.69 1.31-11.8 2.21-23.64 2.7-35.52.47-11.37-8.6-20.86-19.99-20.86h-73.23c-11.05 0-20 8.95-20 20v30c0 11.05 8.95 20 20 20h6.73c6.57 0 11.34 6.23 9.65 12.58-7.37 27.77-11.38 54.91-11.38 78.94 0 58.77 22.88 114.01 64.44 155.56 31.7 31.71 71.37 52.54 114.49 60.63 1.76.33 3.28 1.26 4.35 2.55 1.08 1.29 1.72 2.95 1.72 4.74 0 9.66 3.92 18.42 10.25 24.75s15.09 10.25 24.75 10.25c19.33 0 35-15.67 35-35 0-3.58 2.55-6.63 6.07-7.29 43.12-8.09 82.79-28.92 114.49-60.63 41.56-41.55 64.44-96.79 64.44-155.56 0-24.03-4.01-51.17-11.38-78.94-1.68-6.35 3.09-12.58 9.66-12.58h6.72c11.05 0 20-8.95 20-20v-30c0-11.05-8.95-20-20-20z" fill="#f2d744"/><path d="m401.78 167.37c2.76 14.33 4.22 27.94 4.22 40.15 0 82.84-67.16 150-150 150s-150-67.16-150-150c0-12.2 1.46-25.81 4.22-40.14 21.16.88 37.85 18.42 37.78 39.8v.34c0 59.55 48.45 108 108 108s108-48.45 108-108c0-.11 0-.23 0-.34-.07-21.39 16.63-38.93 37.78-39.81z" fill="#c6715a"/><g><path d="m481 36h-73.233c-17.138 0-30.678 14.26-29.981 31.271 1.763 43.036 7.512 69.511 12.086 91.951-20.898 5.922-35.945 25.157-35.871 47.957v.34c0 54.037-43.962 98-98 98s-98-43.963-98-98v-.308c.074-22.807-14.951-42.032-35.826-47.968 6.083-29.119 10.557-55.87 12.039-91.969.703-17.16-12.991-31.274-29.982-31.274h-73.232c-16.542 0-30 13.458-30 30v30c0 16.542 13.458 30 30 30l6.718.016c-7.666 28.88-11.718 57.063-11.718 81.504 0 114.013 81.94 205.31 185.05 225.626 1.124 23.821 20.856 42.854 44.95 42.854s43.826-19.033 44.95-42.854c103.091-20.311 185.05-111.599 185.05-225.626 0-24.433-4.05-52.616-11.723-81.52h6.723c16.542 0 30-13.458 30-30v-30c0-16.542-13.458-30-30-30zm-343 171.18v.34c0 65.065 52.935 118 118 118s118-52.935 118-118v-.372c-.042-12.993 8.074-24.042 19.587-28.125 1.467 9.195 2.413 18.351 2.413 28.497 0 77.196-62.804 140-140 140s-140-62.804-140-140c0-10.684.917-19.654 2.356-28.509 11.544 4.066 19.686 15.133 19.644 28.169zm353-111.18c0 5.514-4.486 10-10 10h-6.723c-13.137 0-22.69 12.437-19.32 25.143 7.225 27.239 11.043 53.649 11.043 76.377 0 104.785-75.805 188.537-170.772 206.36-8.245 1.546-14.228 8.746-14.228 17.12 0 13.785-11.215 25-25 25s-25-11.215-25-25c0-8.374-5.983-15.574-14.226-17.119-94.725-17.78-170.774-101.363-170.774-206.361 0-22.733 3.82-49.143 11.048-76.373 3.374-12.705-6.177-25.147-19.319-25.147h-6.729c-5.514 0-10-4.486-10-10v-30c0-5.514 4.486-10 10-10h73.232c5.695 0 10.233 4.741 9.998 10.454-3.053 74.371-18.23 96.738-18.23 141.066 0 88.225 71.776 160 160 160s160-71.775 160-160c0-44.046-15.206-67.185-18.231-141.066-.234-5.714 4.303-10.454 9.998-10.454h73.233c5.514 0 10 4.486 10 10z"/><ellipse cx="441" cy="85.977" rx="9.789" ry="9.789" transform="matrix(.973 -.23 .23 .973 -7.956 103.621)"/><ellipse cx="70.998" cy="85.977" rx="9.789" ry="9.789" transform="matrix(.707 -.707 .707 .707 -40 75.385)"/><ellipse cx="256" cy="405.977" rx="9.789" ry="9.789" transform="matrix(.707 -.707 .707 .707 -212.089 299.927)"/></g></g></g><g id="Layer_1"/></svg>