<svg height="512" viewBox="0 0 64 64" width="512" xmlns="http://www.w3.org/2000/svg"><g id="_22-Hose" data-name="22-Hose"><path d="m32 55h22v4h-22z" fill="#fcaa52" transform="matrix(-1 0 0 -1 86 114)"/><path d="m32 55v4h8.9a21 21 0 0 0 6-4z" fill="#fc9e3a"/><path d="m54 53h4v8h-4z" fill="#fc6067" transform="matrix(-1 0 0 -1 112 114)"/><circle cx="32" cy="41" fill="#fcb860" r="18"/><circle cx="32" cy="41" fill="#fcaa52" r="14"/><circle cx="32" cy="41" fill="#fcb860" r="10"/><circle cx="32" cy="41" fill="#fcaa52" r="6"/><circle cx="32" cy="41" fill="#fcb860" r="2"/><path d="m13 15-7 8v-5l4-7h3z" fill="#d8dbe0"/><path d="m13 11h-3v4a1 1 0 0 1 -.25.66l-3.75 4.34v3l7-8z" fill="#cccfd4"/><path d="m12 7h9a0 0 0 0 1 0 0v6a0 0 0 0 1 0 0h-9a2 2 0 0 1 -2-2v-2a2 2 0 0 1 2-2z" fill="#fc6067"/><path d="m13 13h6v11h-6z" fill="#e7eaef"/><path d="m21 26.77a18.05 18.05 0 0 0 -5 6v8.23h5z" fill="#fcaa52"/><path d="m13 20h6v4h-6z" fill="#fc6067"/><path d="m14 24h4v17h-4z" fill="#fcb860"/><path d="m19 9v2a4 4 0 0 0 4 4h4v-10h-4a4 4 0 0 0 -4 4z" fill="#e7eaef"/><path d="m29 3h2a0 0 0 0 1 0 0v14a0 0 0 0 1 0 0h-2a2 2 0 0 1 -2-2v-10a2 2 0 0 1 2-2z" fill="#fc6067"/><path d="m16 13h3v11h-3z" fill="#d8dbe0"/><path d="m16 20h3v4h-3z" fill="#fb4b5b"/><path d="m58 52h-4a1 1 0 0 0 -1 1v1h-7.18a19 19 0 0 0 -26.82-26.84v-2.16a1 1 0 0 0 1-1v-9a4.92 4.92 0 0 0 3 1h3.18a3 3 0 0 0 2.82 2h2a1 1 0 0 0 1-1v-14a1 1 0 0 0 -1-1h-2a3 3 0 0 0 -2.82 2h-3.18a5 5 0 0 0 -4 2h-7a3 3 0 0 0 -3 3v1.73l-3.87 6.77a1.13 1.13 0 0 0 -.13.5v5a1 1 0 0 0 .65.94 1 1 0 0 0 .35.06 1 1 0 0 0 .75-.34l5.25-6v6.34a1 1 0 0 0 1 1v5a1 1 0 0 0 2 0v-5h2v16a15 15 0 0 0 24 12 1 1 0 1 0 -1.2-1.6 12.88 12.88 0 0 1 -7.8 2.6 13 13 0 1 1 13-13 12.88 12.88 0 0 1 -2.6 7.77 1 1 0 0 0 1.6 1.23 15 15 0 1 0 -25-16.45v-3.47a17 17 0 1 1 -4 10.92v-7a1 1 0 0 0 -2 0v7a19 19 0 0 0 19 19h21v1a1 1 0 0 0 1 1h4a1 1 0 0 0 1-1v-8a1 1 0 0 0 -1-1zm-44-29v-2h4v2zm4-9v5h-4v-5zm10-9a1 1 0 0 1 1-1h1v12h-1a1 1 0 0 1 -1-1zm-8 4a3 3 0 0 1 3-3h3v8h-3a3 3 0 0 1 -3-3zm-9 0a1 1 0 0 1 1-1h6.1a5.47 5.47 0 0 0 -.1 1v2a5.47 5.47 0 0 0 .1 1h-6.1a1 1 0 0 1 -1-1zm-4 11.34v-2.07l2.92-5.12a3 3 0 0 0 2.08.85v.62zm33.43 37.66a18.78 18.78 0 0 0 3.19-2h9.38v2zm16.57 2h-2v-6h2zm-25-30a11 11 0 1 0 11 11 11 11 0 0 0 -11-11zm0 20a9 9 0 1 1 9-9 9 9 0 0 1 -9 9zm0-16a7 7 0 1 0 7 7 7 7 0 0 0 -7-7zm0 12a5 5 0 1 1 5-5 5 5 0 0 1 -5 5zm0-8a3 3 0 1 0 3 3 3 3 0 0 0 -3-3zm0 4a1 1 0 1 1 1-1 1 1 0 0 1 -1 1zm2-32.22a1 1 0 0 1 1-1h1a1 1 0 0 1 0 2h-1a1 1 0 0 1 -1-1zm5 0a1 1 0 0 1 1-1h1a1 1 0 0 1 0 2h-1a1 1 0 0 1 -1-1zm5 0a1 1 0 0 1 1-1h1a1 1 0 0 1 0 2h-1a1 1 0 0 1 -1-1zm-10-3.78a1 1 0 0 1 1-1h1a1 1 0 0 1 0 2h-1a1 1 0 0 1 -1-1zm5 0a1 1 0 0 1 1-1h1a1 1 0 0 1 0 2h-1a1 1 0 0 1 -1-1zm5 0a1 1 0 0 1 1-1h1a1 1 0 0 1 0 2h-1a1 1 0 0 1 -1-1zm-10 8a1 1 0 0 1 1-1h1a1 1 0 0 1 0 2h-1a1 1 0 0 1 -1-1zm5 0a1 1 0 0 1 1-1h1a1 1 0 0 1 0 2h-1a1 1 0 0 1 -1-1zm5 0a1 1 0 0 1 1-1h1a1 1 0 0 1 0 2h-1a1 1 0 0 1 -1-1zm5-4.22a1 1 0 0 1 1-1h1a1 1 0 0 1 0 2h-1a1 1 0 0 1 -1-1zm0-3.78a1 1 0 0 1 1-1h1a1 1 0 0 1 0 2h-1a1 1 0 0 1 -1-1zm0 8a1 1 0 0 1 1-1h1a1 1 0 0 1 0 2h-1a1 1 0 0 1 -1-1z"/></g></svg>