<svg height="512" viewBox="0 0 512 512" width="512" xmlns="http://www.w3.org/2000/svg"><g id="_20.Hot_tea" data-name="20.Hot tea"><rect fill="#ffebb9" height="43" rx="21.5" width="360" x="54" y="387"/><path d="m497.315 327.05a72.5121 72.5121 0 0 1 -98.15 30.18l-9.08-4.82q7.3952-6.285 14.15-13.15l3.49 1.86a54.2959 54.2959 0 0 0 73.18-22.09c14.34-26.47 3.43-60.15-23.16-74.27l-.66-.35a184.8574 184.8574 0 0 0 3.34-18.88l5.77 3.06c35.4899 18.84 49.8898 62.93 31.12 98.46z" fill="#fcd8d8"/><path d="m461.1248 219.12c-.19 2.15-.42 4.28-.7 6.41a184.8574 184.8574 0 0 1 -3.34 18.88c-8.27 35.93-26.86 68.43-52.85 94.85q-6.75 6.855-14.15 13.15a229.9 229.9 0 0 1 -54.31 34.34h-203.94c-69.48-31.47-118.72-94.1-125.35-167.63a15.6693 15.6693 0 0 1 15.64-17h423.36a15.6693 15.6693 0 0 1 15.64 17z" fill="#cfdce5"/><path d="m151.83 386.75h-20c-69.48-31.47-118.71-94.1-125.35-167.63a15.6693 15.6693 0 0 1 15.64-17h20a15.6693 15.6693 0 0 0 -15.64 17c6.64 73.53 55.87 136.16 125.35 167.63z" fill="#c2cace"/><circle cx="233.805" cy="283.977" fill="#f17b89" r="15.914"/><path d="m392.5 435h-317a26.5 26.5 0 0 1 0-53h317a26.5 26.5 0 0 1 0 53zm-317-43a16.5 16.5 0 0 0 0 33h317a16.5 16.5 0 0 0 0-33z"/><path d="m433.0977 370.7432a77.1662 77.1662 0 0 1 -36.2777-9.0972l-9.08-4.8193a5 5 0 0 1 -.8935-8.2261c4.7783-4.0615 9.43-8.3843 13.8262-12.8486a4.9968 4.9968 0 0 1 5.915-.9043l3.4892 1.86a49.2965 49.2965 0 0 0 66.4317-20.0591 48.3378 48.3378 0 0 0 3.5879-37.2622 51.0619 51.0619 0 0 0 -24.6965-30.2106l-.6553-.3472a5.0006 5.0006 0 0 1 -2.5322-5.542 181.114 181.114 0 0 0 3.25-18.37 5 5 0 0 1 7.3047-3.8042l5.77 3.06c38.2324 20.2968 53.124 67.4946 33.1982 105.2129a77.7235 77.7235 0 0 1 -68.6386 41.3575zm-34.2754-19.356 2.6875 1.4263a67.5131 67.5131 0 0 0 91.3847-28.1c17.2666-32.6841 4.461-73.57-28.53-91.4326q-.7 4.2971-1.5977 8.5756a61.2282 61.2282 0 0 1 26.9032 34.6415 58.2618 58.2618 0 0 1 -4.3681 44.9136 59.2976 59.2976 0 0 1 -79.9219 24.1245l-.2315-.123q-3.0985 3.0425-6.3262 5.9741z"/><path d="m335.77 391.75h-203.94a4.9886 4.9886 0 0 1 -2.0625-.4453c-49.06-22.2178-88.085-59.56-109.8887-105.1475a5 5 0 0 1 9.0212-4.3144c20.6449 43.1635 57.559 78.6089 104.016 99.9072h201.7686a224.5546 224.5546 0 0 0 52.1533-33.146c4.7822-4.0649 9.4336-8.3877 13.83-12.852 25.84-26.2681 43.6621-58.2422 51.539-92.4634a180.9767 180.9767 0 0 0 3.251-18.3721c.2676-2.04.4893-4.0679.6816-6.2373a10.4372 10.4372 0 0 0 -2.7353-8.064 10.76 10.76 0 0 0 -7.9238-3.4951h-423.3604a10.7656 10.7656 0 0 0 -7.9248 3.4951 10.4387 10.4387 0 0 0 -2.7353 8.0581c.3789 4.2012.9082 8.4161 1.5752 12.5259a5 5 0 0 1 -9.8711 1.6016c-.704-4.3433-1.264-8.7949-1.663-13.2324a20.6678 20.6678 0 0 1 20.619-22.4484h423.36a20.6676 20.6676 0 0 1 20.62 22.4469c-.2041 2.3066-.44 4.4722-.7226 6.6152a190.6294 190.6294 0 0 1 -3.4249 19.3516c-8.2919 36.0215-27.0185 69.6445-54.1572 97.2324-4.6035 4.6758-9.4746 9.2022-14.4765 13.4541a234.6983 234.6983 0 0 1 -55.4873 35.0845 4.9879 4.9879 0 0 1 -2.0615.4453z"/><path d="m15.82 268.0015a5.0028 5.0028 0 0 1 -4.73-3.3819c-1.1777-3.44-2.2529-6.8974-3.1962-10.2758a5 5 0 0 1 9.6328-2.6875c.8906 3.1933 1.9082 6.4648 3.0244 9.7241a5.0034 5.0034 0 0 1 -4.73 6.6211z"/><path d="m233.8047 304.8916a20.9141 20.9141 0 1 1 20.9141-20.9141 20.9376 20.9376 0 0 1 -20.9141 20.9141zm0-31.8281a10.9141 10.9141 0 1 0 10.9141 10.914 10.9267 10.9267 0 0 0 -10.9141-10.914z"/><path d="m233.8047 274c-2.7617 0-5-1.9094-5-4.2644v-65.6714c0-2.355 2.2383-4.2644 5-4.2644s5 1.9094 5 4.2644v65.6714c0 2.355-2.2383 4.2644-5 4.2644z"/><path d="m134.583 182.8a4.9921 4.9921 0 0 1 -4.05-2.063c-9.9668-13.729-13.7168-26.2192-11.1465-37.123 2.2031-9.3492 8.3262-14.8443 13.7276-19.6929 4.7421-4.2559 8.8378-7.9317 9.72-13.5923 1.0967-7.0449-2.9092-15.4941-11.9063-25.1138a5 5 0 1 1 7.3028-6.831c11.205 11.98 16.0781 23.2451 14.4843 33.4834-1.4306 9.1831-7.5351 14.6621-12.9209 19.4961-4.7265 4.2417-9.19 8.248-10.6748 14.5444-1.872 7.9443 1.3262 17.686 9.5059 28.9541a5 5 0 0 1 -4.042 7.938z"/><path d="m330.583 182.8a4.9921 4.9921 0 0 1 -4.05-2.063c-9.9668-13.729-13.7168-26.2192-11.1465-37.123 2.2031-9.3492 8.3262-14.8443 13.7276-19.6929 4.7421-4.2559 8.8378-7.9317 9.72-13.5923 1.0967-7.0449-2.9092-15.4941-11.9063-25.1138a5 5 0 1 1 7.3028-6.831c11.205 11.98 16.0781 23.2451 14.4843 33.4834-1.4306 9.1831-7.5351 14.6621-12.9209 19.4961-4.7265 4.2417-9.19 8.248-10.6748 14.5444-1.872 7.9443 1.3262 17.686 9.5059 28.9541a5 5 0 0 1 -4.042 7.938z"/><path d="m232.583 182.8a4.9921 4.9921 0 0 1 -4.05-2.063c-9.9668-13.729-13.7168-26.2192-11.1465-37.123 2.2031-9.3492 8.3262-14.8443 13.7276-19.6929 4.7421-4.2559 8.8378-7.9317 9.72-13.5923 1.0967-7.0449-2.9092-15.4941-11.9063-25.1138a5 5 0 1 1 7.3028-6.831c11.205 11.98 16.0781 23.2451 14.4843 33.4834-1.4306 9.1831-7.5351 14.6621-12.9209 19.4961-4.7265 4.2417-9.19 8.248-10.6748 14.5444-1.872 7.9443 1.3262 17.686 9.5059 28.9541a5 5 0 0 1 -4.042 7.938z"/></g></svg>