<svg height="512" viewBox="0 0 48 48" width="512" xmlns="http://www.w3.org/2000/svg"><g id="Line"><path d="m41.682 19h-2.682c0-.553-.448-1-1-1h-28c-.552 0-1 .447-1 1v12c0 3.859 3.14 7 7 7h16c3.519 0 6.432-2.614 6.92-6 4.571.178 5.221-3.667 6.731-6.982 1.243-2.759-.933-6.08-3.969-6.018zm2.131 5.231-1.693 3.95c-.518 1.24-1.802 1.924-3.12 1.819v-9h2.682c1.629-.033 2.799 1.75 2.131 3.231z" fill="#e0e1e0"/><path d="m45.957 36.71c-.127-.422-.517-.71-.957-.71h-42c-.44 0-.83.288-.957.71-.128.422.036.878.402 1.122 2.241 1.346 5.574 4.389 8.372 4.168h26.366c1.387 0 2.729-.406 3.883-1.176l4.488-2.992c.367-.244.531-.7.403-1.122z" fill="#ccc"/><g><path d="m27.001 14c-.462.015-.839-.334-1.001-.764-.381-.762-1.147-1.236-2-1.236s-1.619.474-2 1.236c-.207.596-.856.959-1.447.658-.595-.291-.695-1.03-.342-1.553.722-1.444 2.174-2.341 3.789-2.341s3.067.897 3.789 2.342c.484.661.062 1.668-.788 1.658z" fill="#ffd267"/></g><g><path d="m30.001 11c-.323 0-.64-.156-.833-.445-1.209-1.868-3.389-2.722-5.563-2.555-1.922 0-3.707.955-4.773 2.555-.307.459-.927.583-1.387.277-.459-.307-.583-.928-.277-1.387 1.58-2.417 4.38-3.635 7.227-3.445 2.593 0 4.999 1.288 6.437 3.445.451.635-.06 1.577-.831 1.555z" fill="#ffd267"/></g><g><path d="m24.02 16c-1.306-.003-1.319-1.992-.01-2 1.314-.007 1.324 1.994.01 2z" fill="#ffd267"/></g><path d="m41.682 19h-2.682c0-.553-.448-1-1-1h-28c-.552 0-1 .447-1 1v12c0 1.958.81 3.728 2.111 5h-8.111c-.953-.034-1.378 1.327-.555 1.832 2.249 1.349 5.564 4.385 8.371 4.168h26.366c2.79.225 6.153-2.836 8.372-4.168.812-.508.411-1.862-.554-1.832h-8.11c1.074-1.051 1.806-2.444 2.031-4h.442c2.003 0 3.807-1.189 4.596-3.031l1.693-3.95c1.241-2.759-.933-6.082-3.97-6.019zm.015 19c-1.313.87-2.85 2.105-4.514 2h-26.366c-1.656.106-3.218-1.131-4.514-2zm-9.697-2h-16c-2.757 0-5-2.243-5-5v-11h26v11c0 2.757-2.243 5-5 5zm11.813-11.769-1.693 3.95c-.518 1.24-1.802 1.924-3.12 1.819v-9h2.682c1.629-.033 2.799 1.75 2.131 3.231z"/><path d="m26 13.236c.47 1.394 2.484.664 1.895-.684-.688-1.546-2.195-2.559-3.895-2.552-1.615 0-3.067.897-3.789 2.342-.352.523-.255 1.262.342 1.553.593.301 1.24-.062 1.447-.658.744-1.627 3.256-1.627 4-.001z"/><path d="m29.168 10.555c.308.463.933.581 1.387.277.459-.307.583-.928.277-1.387-1.438-2.157-3.845-3.445-6.437-3.445-2.846-.189-5.647 1.028-7.227 3.445-.717 1.09.931 2.194 1.664 1.109 1.066-1.599 2.851-2.554 4.773-2.554 2.174-.167 4.354.687 5.563 2.555z"/><path d="m24.01 14c-1.309.008-1.296 1.998.01 2 1.314-.006 1.304-2.007-.01-2z"/></g></svg>