<svg id="Layer_1" viewBox="0 0 1000 1000" xmlns="http://www.w3.org/2000/svg" data-name="Layer 1"><path d="m727.84 851.72v24.95a2.33 2.33 0 0 1 -2.33 2.33h-451a2.33 2.33 0 0 1 -2.33-2.33v-24.95a2.33 2.33 0 0 1 2.33-2.33h451a2.33 2.33 0 0 1 2.33 2.33z" fill="#546e7a"/><path d="m559.64 469.66c73.32-29 126.54-109.24 126.54-190.86v-106.19h-372.36v106.19c0 81.62 53.22 161.89 126.55 190.86a27.23 27.23 0 0 1 0 50.68c-73.37 28.97-126.55 109.24-126.55 190.86v106.19h372.36v-106.19c0-81.62-53.22-161.89-126.54-190.86a27.23 27.23 0 0 1 0-50.68zm54.58 155.57c31.82 25 49.34 58.52 49.34 94.47 0 15.82-10 37.58-57.67 51.35-28.17 8.14-65.77 12.62-105.89 12.62s-77.72-4.48-105.89-12.62c-47.67-13.77-57.67-35.53-57.67-51.35 0-36 17.52-69.5 49.34-94.47 30.68-24.07 71.22-37.33 114.22-37.33s83.54 13.26 114.22 37.33zm-114.22-144.52a16 16 0 0 1 16 16v7.36a16 16 0 0 1 -32 0v-7.36a16 16 0 0 1 16-16zm-16-29.81v-7.35a16 16 0 1 1 32 0v7.35a16 16 0 0 1 -32 0zm16 83a16 16 0 0 1 16 16v7.36a16 16 0 0 1 -32 0v-7.36a16 16 0 0 1 16-16.02zm0-121c-43 0-83.54-13.26-114.22-37.33-31.82-25-49.34-58.52-49.34-94.47 0-15.82 10-37.57 57.67-51.35 28.17-8.13 65.77-12.62 105.89-12.62s77.72 4.49 105.89 12.62c47.67 13.78 57.67 35.53 57.67 51.35 0 35.95-17.52 69.5-49.34 94.47-30.68 24.05-71.22 37.31-114.22 37.31z" fill="#e3f2fd"/><rect fill="#546e7a" height="29.61" rx="2.33" width="455.68" x="272.16" y="111"/><path d="m631.56 281.08c0 55-59 99.8-131.56 99.8s-131.56-44.77-131.56-99.8c0-11.16 45.18-32 131.56-32 36.66 0 72 4.15 97 11.37 27.34 7.93 34.56 16.96 34.56 20.63z" fill="#fbc02d"/><path d="m631.56 719.7c0 11.16-45.18 32-131.56 32s-131.56-20.81-131.56-32c0-55 59-99.8 131.56-99.8s131.56 44.77 131.56 99.8z" fill="#fbc02d"/><g fill="#fff" opacity=".5"><path d="m717.84 861.72v24.95a2.33 2.33 0 0 1 -2.33 2.33h-451a2.33 2.33 0 0 1 -2.33-2.33v-24.95a2.33 2.33 0 0 1 2.33-2.33h451a2.33 2.33 0 0 1 2.33 2.33z"/><path d="m549.64 479.66c73.32-29 126.54-109.24 126.54-190.86v-106.19h-372.36v106.19c0 81.62 53.22 161.89 126.55 190.86a27.23 27.23 0 0 1 0 50.68c-73.37 28.97-126.55 109.24-126.55 190.86v106.19h372.36v-106.19c0-81.62-53.22-161.89-126.54-190.86a27.23 27.23 0 0 1 0-50.68zm54.58 155.57c31.82 25 49.34 58.52 49.34 94.47 0 15.82-10 37.58-57.67 51.35-28.17 8.14-65.77 12.62-105.89 12.62s-77.72-4.48-105.89-12.62c-47.67-13.77-57.67-35.53-57.67-51.35 0-36 17.52-69.5 49.34-94.47 30.68-24.07 71.22-37.33 114.22-37.33s83.54 13.26 114.22 37.33zm-114.22-144.52a16 16 0 0 1 16 16v7.36a16 16 0 0 1 -32 0v-7.36a16 16 0 0 1 16-16zm-16-29.81v-7.35a16 16 0 1 1 32 0v7.35a16 16 0 0 1 -32 0zm16 83a16 16 0 0 1 16 16v7.36a16 16 0 0 1 -32 0v-7.36a16 16 0 0 1 16-16.02zm0-121c-43 0-83.54-13.26-114.22-37.33-31.82-25-49.34-58.52-49.34-94.47 0-15.82 10-37.57 57.67-51.35 28.17-8.13 65.77-12.62 105.89-12.62s77.72 4.49 105.89 12.62c47.67 13.78 57.67 35.53 57.67 51.35 0 35.95-17.52 69.5-49.34 94.47-30.68 24.05-71.22 37.31-114.22 37.31z"/><rect height="29.61" rx="2.33" width="455.68" x="262.16" y="121"/><path d="m621.56 291.08c0 55-59 99.8-131.56 99.8s-131.56-44.77-131.56-99.8c0-11.16 45.18-32 131.56-32 36.66 0 72 4.15 97 11.37 27.34 7.93 34.56 16.96 34.56 20.63z"/><path d="m621.56 729.7c0 11.16-45.18 32-131.56 32s-131.56-20.81-131.56-32c0-55 59-99.8 131.56-99.8s131.56 44.77 131.56 99.8z"/></g><g fill="#413b32"><path d="m725.51 817.39h-451a34.37 34.37 0 0 0 -34.33 34.33v24.95a34.37 34.37 0 0 0 34.31 34.33h451a34.37 34.37 0 0 0 34.33-34.33v-24.95a34.37 34.37 0 0 0 -34.31-34.33zm2.33 59.28a2.33 2.33 0 0 1 -2.33 2.33h-451a2.33 2.33 0 0 1 -2.33-2.33v-24.95a2.33 2.33 0 0 1 2.33-2.33h451a2.33 2.33 0 0 1 2.33 2.33z"/><path d="m702.18 140.61h-404.36a16 16 0 0 0 -16 16v122.19c0 46 14.63 93.3 41.2 133.23 24.36 36.61 57.89 65.74 95.27 83-37.38 17.23-70.91 46.36-95.27 83-26.57 39.93-41.2 87.25-41.2 133.23v122.13a16 16 0 0 0 16 16h404.36a16 16 0 0 0 16-16v-122.19c0-46-14.63-93.29-41.19-133.22-24.37-36.62-57.89-65.75-95.27-83 37.38-17.23 70.9-46.36 95.27-83 26.56-39.93 41.19-87.24 41.19-133.22v-122.15a16 16 0 0 0 -16-16zm-16 138.19c0 81.62-53.22 161.89-126.54 190.86a27.23 27.23 0 0 0 0 50.68c73.32 29 126.54 109.24 126.54 190.86v106.19h-372.36v-106.19c0-81.62 53.22-161.89 126.55-190.86a27.21 27.21 0 0 0 0-50.68c-73.37-28.97-126.55-109.24-126.55-190.86v-106.19h372.36z"/><path d="m725.51 79h-451a34.37 34.37 0 0 0 -34.33 34.33v25a34.37 34.37 0 0 0 34.33 34.33h451a34.37 34.37 0 0 0 34.33-34.33v-25a34.37 34.37 0 0 0 -34.33-34.33zm2.33 59.28a2.33 2.33 0 0 1 -2.33 2.33h-451a2.33 2.33 0 0 1 -2.33-2.33v-25a2.33 2.33 0 0 1 2.33-2.33h451a2.33 2.33 0 0 1 2.33 2.33z"/><path d="m605.89 229.73c-28.17-8.13-65.77-12.62-105.89-12.62s-77.72 4.49-105.89 12.62c-47.67 13.78-57.67 35.53-57.67 51.35 0 35.95 17.52 69.5 49.34 94.47 30.68 24.07 71.22 37.33 114.22 37.33s83.54-13.26 114.22-37.33c31.82-25 49.34-58.52 49.34-94.47 0-15.82-10-37.57-57.67-51.35zm-105.89 151.15c-72.54 0-131.56-44.77-131.56-99.8 0-11.16 45.18-32 131.56-32 36.66 0 72 4.15 97 11.37 27.33 7.9 34.55 16.93 34.55 20.6.01 55.06-59.01 99.83-131.55 99.83z"/><path d="m614.22 625.23c-30.68-24.07-71.22-37.33-114.22-37.33s-83.54 13.26-114.22 37.33c-31.82 25-49.34 58.52-49.34 94.47 0 15.82 10 37.58 57.67 51.35 28.17 8.14 65.77 12.62 105.89 12.62s77.72-4.48 105.89-12.62c47.67-13.77 57.67-35.53 57.67-51.35 0-35.95-17.56-69.5-49.34-94.47zm-114.22 126.44c-86.38 0-131.56-20.81-131.56-32 0-55 59-99.8 131.56-99.8s131.56 44.77 131.56 99.8c0 11.19-45.18 32-131.56 32z"/><path d="m516 443.55v7.35a16 16 0 0 1 -32 0v-7.35a16 16 0 1 1 32 0z"/><path d="m516 496.71v7.36a16 16 0 0 1 -32 0v-7.36a16 16 0 0 1 32 0z"/><path d="m516 549.88v7.36a16 16 0 0 1 -32 0v-7.36a16 16 0 0 1 32 0z"/></g></svg>