<svg id="_x30_1_Human" enable-background="new 0 0 48 48" height="512" viewBox="0 0 48 48" width="512" xmlns="http://www.w3.org/2000/svg"><path d="m29 7c0 2.7614-2.2386 5-5 5s-5-2.2386-5-5 2.2386-5 5-5 5 2.2386 5 5zm1 20c0 1.6568 1.3431 3 3 3 1.6568 0 3-1.3431 3-3v-9c0-1.6568-1.3431-3-3-3h-18c-1.6568 0-3 1.3431-3 3v9c0 1.6568 1.3431 3 3 3s3-1.3431 3.0001-3v16c0 1.6568 1.3431 3 3 3 1.6568 0 3-1.3431 3-3 0 1.6568 1.3431 3 3 3 1.6568 0 3-1.3431 3-3z" fill="#ccc"/><path d="m18 35.0015.0001-8.0015c-.0001 1.6569-1.3432 3-3.0001 3s-3-1.3431-3-3v-9.0001c0-1.6568 1.3432-2.9999 3-2.9999h18c1.3563 0 2.489.9059 2.8602 2.1414zm6-33.0015c-2.7615 0-5 2.2386-5 5 0 1.3807.5597 2.6307 1.4645 3.5355l7.071-7.071c-.9048-.9048-2.1548-1.4645-3.5355-1.4645z" fill="#efefef"/><path d="m24.0002 13c3.3086 0 6-2.6914 6-6s-2.6914-6-6-6-6 2.6914-6 6 2.6914 6 6 6zm0-10c2.2061 0 4 1.7944 4 4s-1.7939 4-4 4-4-1.7944-4-4 1.7939-4 4-4zm8.9999 11h-18c-2.2061 0-4 1.7944-4 4v9c0 2.2056 1.7939 4 4 4 .7275 0 1.4111-.1953 2-.5366v12.5366c0 2.2056 1.7939 4 4 4 1.1934 0 2.2666-.5254 3-1.3569.7334.8315 1.8066 1.3569 3 1.3569 2.2061 0 4-1.7944 4-4v-12.5366c.5889.3413 1.2725.5366 2 .5366 2.2061 0 4-1.7944 4-4v-9c0-2.2056-1.7939-4-4-4zm2 13c0 1.103-.8975 2-2 2s-2-.897-2-2v-6c0-.5522-.4473-1-1-1s-1 .4478-1 1v22c0 1.103-.8975 2-2 2s-2-.897-2-2v-7c0-.5522-.4473-1-1-1s-1 .4478-1 1v7c0 1.103-.8975 2-2 2s-2-.897-2-2v-22c0-.5522-.4473-1-1-1s-1 .4478-1 1v6c0 1.103-.8975 2-2 2s-2-.897-2-2v-9c0-1.103.8975-2 2-2h18c1.1025 0 2 .897 2 2z" fill="#474747"/></svg>