<svg clip-rule="evenodd" fill-rule="evenodd" height="1.707in" image-rendering="optimizeQuality" shape-rendering="geometricPrecision" text-rendering="geometricPrecision" viewBox="0 0 1.70666 1.70666" width="1.707in" xmlns="http://www.w3.org/2000/svg"><g id="Layer_x0020_1"><path d="m.447087.852783h-.00024016l-.00024016-.00000394-.00003543-.00000394-.00020472-.00000394-.00024016-.00001181-.00006693-.00000394-.00017323-.00000787-.00024016-.00001575-.00009843-.00000787-.0001378-.00001181-.00024016-.00001968-.00012598-.00001181-.00011417-.00001181-.00024016-.00002756-.00014961-.00001968-.00008661-.00001181-.00024016-.0000315-.00016929-.00002756-.00006693-.00001181-.00023622-.00003543-.00019291-.0000315-.00004331-.00001181-.00024016-.00004331-.00020472-.00003937-.0000315-.00000787-.00023228-.00005118-.00022441-.00004724-.00001181-.00000394-.00023622-.00005906-.00023228-.00005512-.00023228-.00006299-.00023622-.00006299-.00000787-.00000394-.00022441-.00006693-.00022835-.00006693-.00001968-.00000787-.0002126-.00006693-.00022835-.0000748-.00002756-.00000787-.00020472-.00007087-.00022835-.00008268-.00002756-.00000787-.00020079-.0000748-.00022441-.00009055-.0000315-.00001181-.00019685-.00007874-.00022441-.00009055-.0000315-.00001181-.00019291-.00008268-.00022047-.00010236-.0000315-.00001181-.00019291-.00008661-.00022047-.0001063-.00002756-.00001181-.00019291-.00009449-.00022047-.00011024-.00001968-.00001181-.00019685-.00010236-.00021654-.00011417-.00001575-.00000787-.00020079-.00011417-.00021654-.00011811-.00000394-.00000394-.00020866-.00012205-.00042126-.00025984-.00019291-.00012205-.00001575-.00000787-.00020866-.0001378-.0001811-.00011811-.00002756-.00001968-.00020472-.00014173-.00016142-.00011417-.00004331-.0000315-.00020472-.00014567-.00014173-.0001063-.00005906-.00004331-.00019685-.00015354-.00012598-.00009449-.0000748-.00006299-.00019685-.00015748-.00010236-.00008268-.00009055-.00007874-.00019685-.00016535c-.00051181-.00043701-.001-.00089764-.00146457-.00138583l-.0470354-.0470197c-.00782283-.00780709-.00782283-.0204724 0-.0282795.00780315-.0078189.0204724-.0078189.0282756 0l.0132323.0132283v-.160724c0-.0110394.00896063-.02.02-.02.0110394 0 .02.00896063.02.02v.16072l.0132244-.0132244c.0078189-.0078189.0204724-.0078189.0282756 0 .00782283.00780709.00782283.0204724 0 .0282795l-.0470197.0470157-.00033465.00034252h-.00000394l-.00074409.00070866-.00018898.00016929-.00011811.0001063-.0000748.00006299-.00019291.00016535-.00009843.00007874-.00009843.00008268-.00019685.00015748-.00007874.00006299-.00011811.00009449-.00020079.00015354-.00006299.00004331-.00034252.00025197-.00004331.0000315-.00016142.00011417-.00020472.00014173-.0000315.00001968-.00017323.00011811-.00022835.00014567-.00019291.00012205-.00042126.00025984-.00020866.00012205-.00000394.00000394-.00021654.00011811-.00020472.00011417-.00001181.00000787-.00021654.00011417-.00019685.00010236-.00001968.00001181-.00022047.00011024-.00019685.00009449-.00002362.00001181-.00022047.0001063-.00019291.00008661-.0000315.00001181-.00022047.00010236-.00019685.00008268-.00002756.00001181-.00022835.00009055-.00019291.00007874-.0000315.00001181-.00022835.00009055-.00019685.0000748-.0000315.00000787-.00022835.00008268-.00020472.00007087-.00002362.00000787-.00023228.0000748-.00020866.00006693-.00001968.00000787-.00023228.00006693-.00022047.00006693-.00001181.00000394-.00023228.00006299-.00023622.00006299-.00023228.00005512-.00023622.00005906-.00001181.00000394-.00022441.00004724-.00023622.00005118-.00002756.00000787-.00020866.00003937-.00023622.00004331-.00004331.00001181-.00019291.0000315-.00023622.00003543-.00006693.00001181-.00017323.00002756-.00023622.0000315-.00009055.00001181-.00014961.00001968-.00024016.00002756-.00011024.00001181-.00012598.00001181-.00024016.00001968-.00014173.00001181-.00009843.00000787-.00024016.00001575-.00016929.00000787-.00007087.00000394-.00024016.00001181-.00020472.00000394-.00003543.00000394-.00024016.00000394h-.00024016zm1.04004-.669476h-.0538858v.159028c.00001575.0265787-.0216063.0482047-.0481969.0482047h-.15187-.0969843-.0554173v.0412087c0 .0234724-.0191063.0425709-.0425827.0425709h-.0268583v.0409449h.0550118c.0390394 0 .0707992.0347638.0707992.0775v.336933h.00796457c.0421378 0 .0764449.0343031.0764449.0764449v.0282087c-.00001575.0421535-.0343071.0764567-.0764606.0764567h-.150846c.0264724.0195354.0422402.0448661.0422402.0728858 0 .0280354-.0157717.053378-.0422638.0729173h.357213.0996102c.0110394 0 .02.00897244.02.02 0 .0110276-.00895669.02-.02.02h-.0796102v.211303h.0360157c.00845669 0 .016.00533465.0188346.0133071l.055374.155748c.00158661.00285827.0025.00614961.0025.00966929-.00001575.0110472-.00896063.0200079-.0200157.0200079-.00005906 0-.00016929.00001575-.00027953 0h-1.22104c-.0065 0-.0125984-.00316535-.0163465-.00847244-.00374803-.00530709-.00468504-.0121102-.0025-.0182362l.0564449-.15872c.00283465-.00797244.0103898-.0133071.0188465-.0133071h.0359921v-.211299h-.0796063c-.0110354 0-.0199961-.00897244-.0199961-.02 0-.0110276.00896063-.02.0199961-.02h.0996063.357205c-.0264882-.0195394-.0422638-.0448819-.0422638-.0729173 0-.0280197.0157677-.0533504.0422402-.0728858h-.150846c-.0421535 0-.0764291-.0343031-.0764291-.0764567v-.0282087c0-.0421339.0342913-.0764449.0764291-.0764449h.00795669v-.336839c0-.0427953.0318031-.0775945.0708858-.0775945h.0549173v-.0409449h-.0279567c-.022878 0-.0414843-.0186102-.0414843-.0414843v-.0422953h-.140067-.097-.0672087c-.0265984 0-.0482205-.021626-.0482205-.0482087v-.159024h-.053878c-.00756693 0-.0144961-.00427559-.0178898-.0110512l-.0716654-.143307c-.00309843-.00619291-.00276772-.0135709.00087402-.0194606.00365354-.00589764.0100866-.00948425.0170157-.00948425h1.41093c.00692913 0 .013374.00358661.0170118.00948425.00365354.00588976.00397638.0132677.00087795.0194606l-.0716693.143307c-.00338583.00677559-.0103189.0110512-.0178898.0110512zm-.0938819 0h-.0619724l-.0683268.167232h.122091c.00444488 0 .00820866-.00376378.00820866-.00820866v-.159024zm-.202173 0h-.108921l-.0683268.167232h.0469488l.00015748.00000394.0618268-.00000394.068315-.167232zm-.249106 0h-.108921l-.0683268.167232h.0200748l.00029134.00000394h.0885551l.0683268-.167236zm-.710067-.0399961h.061l.00051575-.00000787 1.11983.00000787h.0615394l.0516693-.103307h-1.34621l.0516614.103307zm.655173.247228h-.0822795v.0412087c-.00001575.0234724-.0191102.0425709-.0425827.0425709h-.0268583v.0409449h.23598v-.0409449h-.0279409c-.0228622 0-.0414882-.0186102-.0414882-.0414843v-.0422953h-.0148307zm-.573657-.207232v.159028c0 .00444882.00376378.0082126.00822047.0082126h.0537717l.068315-.16724h-.130307zm.202193.16724.108921-.00000394.068315-.167236h-.108921l-.068315.16724zm-.0969882-.00000787h.0537913l.0683189-.167232h-.0537874zm.302902 0 .0683189-.167232h-.0537953l-.0683189.167232zm.195327 0h.00505512.0487362l.0683189-.167232h-.0537913l-.0683189.167232zm.249106 0h.0537913l.0683228-.167232h-.0537953l-.0683189.167232zm-.500047.04v.0422953c0 .00077559.00070866.00148425.00148819.00148425h.0479567.0468583c.00137795 0 .00258268-.00120866.00258268-.00258268v-.0411969h-.0298307-.0690551zm.275996 0v.0422953c0 .00076378.00072441.00148425.00147244.00148425h.0479567.0468504c.00137402 0 .00258268-.00120866.00258268-.00258268v-.0411969h-.0566929-.0421693zm.389531 1.11737v-.211303h-.478102-.478075v.211299l.956177.00000394zm-1.06029.158732h1.16439l-.0422205-.118705h-.041878-.996177-.0418819l-.0422283.118705zm.825976-.736949v-.336949c0-.0203386-.0140984-.0375039-.0307913-.0375039h-.075-.27598-.0749291c-.0167323 0-.0308858.0172244-.0308858.0376142l-.00000394.336839h.00001575.487575zm-.535531.0400157c-.0201024 0-.0364488.0163465-.0364488.0364291v.0282087c0 .0201024.0163465.0364488.0364488.0364488l.291205-.00000394.00053543-.00000394.0005315.00000394.291244-.00000394c.0200827 0 .0364291-.0163465.0364291-.0364449v-.0282087c0-.0200827-.0163465-.0364291-.0364291-.0364291h-.0277283l-.00024409.00000394h-.527587-.00001181-.0279449zm.141177-.0860236c-.00512205 0-.0102362-.00196063-.0141378-.00586614l-.0473583-.0473583c-.0078189-.00780709-.0078189-.0204724 0-.0282756.00780709-.00782283.0204724-.00782283.0282795 0l.0332205.0332205.0332323-.0332205c.00782283-.00780709.0204724-.00780709.0282953 0 .00780709.0078189.00780709.0204685 0 .0282913l-.047374.0473583c-.00392126.00388976-.00905118.00585039-.0141575.00585039zm0-.0975157c-.00530709 0-.0103898-.00211024-.0141378-.00586614l-.0473583-.047374c-.0078189-.00782283-.0078189-.0204724 0-.0282756.00782283-.00782283.0204882-.00782283.0282795 0l.0332205.0332205.0332323-.0332205c.00782283-.00782283.0204724-.00782283.0282795 0 .00782283.00780315.00782283.0204685 0 .0282756l-.047374.047374c-.00375197.00375591-.00883465.00586614-.0141417.00586614zm0-.0975276c-.00530709 0-.0103898-.00211024-.0141378-.0058622l-.0473583-.047378c-.0078189-.0078189-.0078189-.0204685 0-.0282756.00782283-.00782283.0204882-.00782283.0282795 0l.0332205.0332205.0332323-.0332205c.00782283-.00782283.0204724-.00782283.0282795 0 .00782283.00780709.00782283.0204724 0 .0282756l-.047374.047378c-.00375197.00375197-.00883465.0058622-.0141417.0058622zm.337799.195398h-.136681c-.0110394 0-.0199961-.0089685-.0199961-.02 0-.0110394.0089685-.02.0199961-.02h.136681c.0110394 0 .02.00896063.02.02 0 .0110315-.00896063.02-.02.02zm0-.0810354h-.136681c-.0110394 0-.0199961-.00896063-.0199961-.02 0-.0110394.0089685-.02.0199961-.02h.136681c.0110394 0 .02.00896063.02.02 0 .0110394-.00896063.02-.02.02zm0-.0810394h-.136681c-.0110394 0-.0199961-.00896063-.0199961-.02 0-.0110394.0089685-.02.0199961-.02h.136681c.0110394 0 .02.00896063.02.02 0 .0110394-.00896063.02-.02.02zm0-.0810433h-.136681c-.0110394 0-.0199961-.00896063-.0199961-.02 0-.0110394.0089685-.02.0199961-.02h.136681c.0110394 0 .02.00896063.02.02 0 .0110394-.00896063.02-.02.02zm-.187236.469882c-.0843583 0-.143134.0384134-.143134.0728858 0 .0344882.0587756.0729016.143134.0729016.0843465 0 .143138-.0384134.143138-.0729016 0-.0344724-.0587756-.0728858-.143138-.0728858zm-.466126.530161c-.0110394 0-.02-.00897244-.02-.02v-.0273504c0-.0110394.00896063-.02.02-.02.0110394 0 .0199961.00897244.0199961.02v.0273504c0 .0110236-.00895669.02-.0199961.02zm.932272 0c-.0110394 0-.02-.00897244-.02-.02v-.0273504c0-.0110394.00897244-.02.02-.02.0110276 0 .02.00897244.02.02v.0273504c0 .0110236-.00895669.02-.02.02zm-.836898-.16922c-.0383071 0-.0694724-.0311654-.0694724-.0694843 0-.0383228.0311654-.0694843.0694724-.0694843.0383031 0 .0694685.0311614.0694685.0694843 0 .0383189-.0311654.0694843-.0694685.0694843zm0-.0989606c-.016252 0-.0294882.0132244-.0294882.0294685 0 .016248.0132244.0294724.0294882.0294724.0162598 0 .0294843-.0132244.0294843-.0294724 0-.0162441-.0132402-.0294685-.0294843-.0294685zm.741524.0989606c-.0383031 0-.0694685-.0311654-.0694685-.0694843 0-.0383228.0311654-.0694843.0694685-.0694843.0383189 0 .0694843.0311614.0694843.0694843 0 .0383189-.0311654.0694843-.0694843.0694843zm0-.0989606c-.016252 0-.0294567.0132244-.0294567.0294685 0 .016248.0132047.0294724.0294567.0294724s.0294685-.0132244.0294685-.0294724c0-.0162441-.0132165-.0294685-.0294685-.0294685zm-.737122-.150524c-.00172047 0-.00345669-.00022047-.00519685-.00069291-.0106811-.00284252-.017-.0138189-.0141496-.0244961l.011374-.0424449c.0028622-.010685.0138307-.0170709.0244961-.0141378.010685.00284646.0170039.0138228.0141535.0245l-.011374.0424449c-.00238976.00892126-.0104724.0148268-.0193031.0148268zm-.0781575-.045126c-.00512205 0-.0102323-.00196063-.0141496-.00587402-.00780709-.00782283-.00780709-.0204724 0-.0282795l.0310709-.0310551c.0078189-.0078189.0204724-.0078189.0282913.00001575.00780709.00782283.00780709.0204724 0 .0282795l-.0310709.0310551c-.00391339.00389764-.00902756.00585827-.0141417.00585827zm-.045122-.0781378c-.00883465 0-.0169173-.00589764-.0193071-.0148346-.00285827-.0106654.00347244-.0216339.0141535-.0244843l.0424449-.0113622c.0106417-.00292913.0216378.00347244.0245.0141535.00285827.0106654-.00347244.0216378-.0141535.0244882l-.0424449.0113583c-.00174803.00046063-.00348031.0006811-.00519291.0006811zm.856004.123264c-.00883465 0-.0169173-.00588976-.0193071-.0148189l-.011374-.0424449c-.0028622-.0106811.0034685-.0216378.0141339-.0244961.0107087-.00290551.0216535.0034685.0245.0141339l.011374.0424449c.0028622.010685-.0034685.0216378-.0141378.0245-.00173228.00045669-.00348425.0006811-.00518898.0006811zm.0781496-.045126c-.00511024 0-.0102362-.00196063-.0141339-.00586614l-.0310709-.0310512c-.00782283-.00782283-.00782283-.0204724-.00001575-.0282795.0078189-.00783071.0204961-.00782283.0282756-.00001575l.0310709.0310551c.00782283.00782283.00782283.0204724.00001575.0282756-.0038937.00392126-.00901969.00588189-.0141417.00588189zm.045122-.0781378c-.00170472 0-.00345669-.00022047-.0051811-.00069291l-.0424449-.0113583c-.0106811-.00284646-.0170118-.0138189-.0141496-.0244882.00284252-.0106654.013874-.0170709.0244843-.0141496l.0424488.0113583c.0106811.00284646.0170118.0138228.0141496.0244882-.00238583.00894488-.0104724.0148425-.0193071.0148425zm-.0920669-.248189c-.00198819-.00094882-.00384252-.00223622-.00548425-.00387402l-.047374-.0473583c-.00780709-.00782283-.00782283-.0204724 0-.0282953.00782283-.0078189.0204882-.00780315.0282913 0l.0132362.0132362v-.160732c0-.0110394.0089685-.02.02-.02.0110276 0 .02.00896063.02.02v.160728l.0132205-.0132205c.00782283-.00782283.0204882-.00782283.0282953 0 .0078189.00780709.0078189.0204724 0 .0282795l-.0473583.0473583c-.00188189.00187795-.00405512.00330709-.00637402.00427953l-.00002362.00001181-.00088583.00034646-.00001968.00000787-.00022835.00008268-.0002126.00007087-.00001968.00000787-.00022835.0000748-.00022047.00006693-.00047244.00014173-.00000394.00000394-.00023228.00006299-.00023622.00006299h-.00000394l-.00022835.00005906-.00023622.00005512-.00001575.00000394-.00022047.00004724-.00023622.00005118-.00002756.00000787-.00020866.00003937-.00023622.00004331-.00004724.00001181-.00018898.0000315-.00024016.00003937-.00006693.00000787-.00016929.00002756-.00024016.0000315-.00008661.00001181-.00014961.00001968-.00024016.00002756-.00011417.00001181-.00012598.00001181-.00023622.00001968-.00014173.00001181-.00009843.00000787-.00024016.00001575-.00017323.00000787-.00006693.00000394-.00024016.00001181-.00020472.00000394-.00003543.00000394-.00024016.00000394h-.00024016-.00024016l-.00024016-.00000394-.00003543-.00000394-.00020472-.00000394-.00024016-.00001181-.00006693-.00000394-.00016929-.00000787-.00024016-.00001575-.00010236-.00000787-.0001378-.00001181-.00024016-.00001968-.00012598-.00001181-.00011024-.00001181-.00024016-.00002756-.00015354-.00001968-.00008268-.00001181-.00024016-.0000315-.00017323-.00002756-.00006299-.00000787-.00024016-.00003937-.00019291-.0000315-.00004331-.00001181-.00023622-.00004331-.00020866-.00003937-.00002756-.00000787-.00023622-.00005118-.00022441-.00004724-.00000787-.00000394-.00023622-.00005512-.00023228-.00005906h-.00000394l-.00023228-.00006299-.00023228-.00006299-.00001181-.00000394-.00022047-.00006299-.00023228-.00007087-.00001968-.00000787-.00020866-.00006693-.00023228-.0000748-.00002756-.00000787-.00020079-.00007087-.00022835-.00008268-.0000315-.00000787-.00019685-.0000748-.00022835-.00008661-.0000315-.00001575-.00019291-.0000748-.00022835-.00009449-.0000315-.00001181-.00019291-.00008268-.00022441-.00009843-.00002756-.00001575-.00019291-.00008661-.00022047-.00010236-.00002756-.00001575z" fill="#000002"/><path d="m.293409.143303 1.119831.000008h.06154l.05166-.1033071h-1.346208l.051662.1033071h.061z" fill="#678d98"/><path d="m.375402.350547.068315-.16724h-.130307v.159028c0 .00444882.00376378.0082126.00822047.0082126h.0537717z" fill="#ffd15b"/><path d="m.486937.183307-.068323.167232h.053792l.068318-.167232z" fill="#ffe7a8"/><path d="m.583917.183307-.068315.16724.108922-.000004.068315-.167236z" fill="#ffd15b"/><path d="m.736039.183307-.068319.167232h.053796l.068319-.167232z" fill="#ffe7a8"/><path d="m.833039.183307-.068326.167232h.020074l.000292.000004h.088555l.068327-.167236z" fill="#ffd15b"/><path d="m.985161.183307-.068318.167232h.005055.048736l.068316-.167232z" fill="#ffe7a8"/><path d="m1.08215.183307-.06833.167232h.04695l.00016.000004.06182-.000004.06832-.167232z" fill="#ffd15b"/><path d="m1.23427.183307-.06832.167232h.05379l.06832-.167232z" fill="#ffe7a8" stroke="#ffe7a8" stroke-width=".003"/><path d="m1.33127.183307-.0683268.167232h.122091c.00444488 0 .00820866-.00376378.00820866-.00820866v-.159024h-.0619724z" fill="#ffd15b"/><path d="m1.04076.431736v-.0411969h-.0566929-.0421693v.0422953c0 .00076378.00072441.00148425.00147244.00148425h.0479567.0468504c.00137402 0 .00258268-.00120866.00258268-.00258268z" fill="#678d98"/><path d="m.764787.431736v-.0411969h-.0298307-.0690551v.0422953c0 .00077559.00070866.00148425.00148819.00148425h.0479567.0468583c.00137795 0 .00258268-.00120866.00258268-.00258268z" fill="#678d98"/><path d="m.991327.555244h-.27598-.0749291c-.0167323 0-.0308858.0172244-.0308858.0376142l.00001181.336839h.487575v-.336949c0-.0203386-.0140984-.0375039-.0307913-.0375039h-.075zm-.255327.246945c.00782283-.00780709.0204724-.00780709.0282953 0 .00780709.0078189.00780709.0204685 0 .0282913l-.047374.0473583c-.00392126.00388976-.00905118.00585039-.0141575.00585039-.00512205 0-.0102362-.00196063-.0141378-.00586614l-.0473583-.0473583c-.0078189-.00780709-.0078189-.0204724 0-.0282756.00780709-.00782283.0204724-.00782283.0282795 0l.0332205.0332205.0332323-.0332205zm0-.0975315c.00782283-.00782283.0204724-.00782283.0282795 0 .00782283.00780315.00782283.0204685 0 .0282756l-.047374.047374c-.00375197.00375591-.00883465.00586614-.0141417.00586614-.00530709 0-.0103898-.00211024-.0141378-.00586614l-.0473583-.047374c-.0078189-.00782283-.0078189-.0204724 0-.0282756.00782283-.00782283.0204882-.00782283.0282795 0l.0332205.0332205zm.0282795-.069252-.047374.047378c-.00375197.00375197-.00883465.0058622-.0141417.0058622-.00530709 0-.0103898-.00211024-.0141378-.0058622l-.0473583-.047378c-.0078189-.0078189-.0078189-.0204685 0-.0282756.00782283-.00782283.0204882-.00782283.0282795 0l.0332205.0332205.0332323-.0332205c.00782283-.00782283.0204724-.00782283.0282795 0 .00782283.00780709.00782283.0204724 0 .0282756zm.119606.066563c0-.0110394.0089685-.02.0199961-.02h.136681c.0110394 0 .02.00896063.02.02 0 .0110394-.00896063.02-.02.02h-.136681c-.0110394 0-.0199961-.00896063-.0199961-.02zm.0199961.0610394h.136681c.0110394 0 .02.00896063.02.02 0 .0110394-.00896063.02-.02.02h-.136681c-.0110394 0-.0199961-.00896063-.0199961-.02 0-.0110394.0089685-.02.0199961-.02zm0 .0810354h.136681c.0110394 0 .02.00896063.02.02 0 .0110315-.00896063.02-.02.02h-.136681c-.0110394 0-.0199961-.0089685-.0199961-.02 0-.0110394.0089685-.02.0199961-.02zm-.0199961-.223118c0-.0110394.0089685-.02.0199961-.02h.136681c.0110394 0 .02.00896063.02.02 0 .0110394-.00896063.02-.02.02h-.136681c-.0110394 0-.0199961-.00896063-.0199961-.02z" fill="#7c7c98"/><path d="m1.11713.969713h-.527598-.0279449c-.0201024 0-.0364488.0163465-.0364488.0364291v.0282087c0 .0201024.0163465.0364488.0364488.0364488l.291205-.00000394.00053543-.00000394.0005315.00000394.291244-.00000394c.0200827 0 .0364291-.0163465.0364291-.0364449v-.0282087c0-.0200827-.0163465-.0364291-.0364291-.0364291h-.0277283l-.00024409.00000394z" fill="#ffd15b"/><path d="m.996465 1.18369c0-.0344724-.0587756-.0728858-.143138-.0728858-.0843583 0-.143134.0384134-.143134.0728858 0 .0344882.0587756.0729016.143134.0729016.0843465 0 .143138-.0384134.143138-.0729016z" fill="#ffaa79"/><path d="m.853327 1.29661h-.478075v.211299l.956177.00000394v-.211303h-.478102zm-.370752.0361693c.0383031 0 .0694685.0311614.0694685.0694843 0 .0383189-.0311654.0694843-.0694685.0694843-.0383071 0-.0694724-.0311654-.0694724-.0694843 0-.0383228.0311654-.0694843.0694724-.0694843zm.741524.138969c-.0383031 0-.0694685-.0311654-.0694685-.0694843 0-.0383228.0311654-.0694843.0694685-.0694843.0383189 0 .0694843.0311614.0694843.0694843 0 .0383189-.0311654.0694843-.0694843.0694843z" fill="#ffd15b"/><path d="m.512059 1.40226c0-.0162441-.0132402-.0294685-.0294843-.0294685-.016252 0-.0294882.0132244-.0294882.0294685 0 .016248.0132244.0294724.0294882.0294724.0162598 0 .0294843-.0132244.0294843-.0294724z" fill="#fde8b0"/><path d="m1.19464 1.40226c0 .016248.0132047.0294724.0294567.0294724s.0294685-.0132244.0294685-.0294724c0-.0162441-.0132165-.0294685-.0294685-.0294685s-.0294567.0132244-.0294567.0294685z" fill="#fde8b0"/><path d="m1.35143 1.54794h-.996177-.0418819l-.0422283.118705h1.16439l-.0422205-.118705h-.041878zm-.944232.0730276c0 .0110236-.00895669.02-.0199961.02-.0110394 0-.02-.00897244-.02-.02v-.0273504c0-.0110394.00896063-.02.02-.02.0110394 0 .0199961.00897244.0199961.02zm.912276.02c-.0110394 0-.02-.00897244-.02-.02v-.0273504c0-.0110394.00897244-.02.02-.02.0110276 0 .02.00897244.02.02v.0273504c0 .0110236-.00895669.02-.02.02z" fill="#678d98"/></g></svg>