<svg height="512" viewBox="0 0 128 128" width="512" xmlns="http://www.w3.org/2000/svg"><g><g><path d="m101.463 64s-16.773 17.484-37.463 17.484-37.463-17.484-37.463-17.484 16.773-17.484 37.463-17.484 37.463 17.484 37.463 17.484z" fill="#fff4f4"/><circle cx="64" cy="64" fill="#45ffe7" r="11.998"/><path d="m64.843 71.544a8.88 8.88 0 0 1 -6.322-2.619 7.5 7.5 0 0 1 0-10.609 6.36 6.36 0 0 1 8.982 0 5.437 5.437 0 0 1 -.003 7.684 1.75 1.75 0 1 1 -2.475-2.475 1.93 1.93 0 0 0 0-2.731 2.855 2.855 0 0 0 -4.032 0 4 4 0 0 0 0 5.659 5.439 5.439 0 0 0 7.693 0 1.75 1.75 0 1 1 2.475 2.474 8.88 8.88 0 0 1 -6.318 2.617z" fill="#00c5ca"/><g fill="#f6ebd8"><path d="m101.462 55.067a1.749 1.749 0 0 1 -1.092-.382c-6.738-5.385-20.424-14.419-36.37-14.419s-29.632 9.034-36.37 14.419a1.751 1.751 0 0 1 -2.186-2.735c7.097-5.671 21.542-15.184 38.556-15.184s31.459 9.513 38.556 15.184a1.75 1.75 0 0 1 -1.094 3.117z"/><path d="m64 91.234c-17.014 0-31.459-9.513-38.556-15.184a1.751 1.751 0 0 1 2.186-2.735c6.738 5.385 20.424 14.419 36.37 14.419s29.632-9.034 36.37-14.419a1.751 1.751 0 0 1 2.186 2.735c-7.097 5.671-21.542 15.184-38.556 15.184z"/></g></g><g fill="#002e49"><path d="m64 83.234c14.5 0 27.124-8.315 33.362-13.272a1.75 1.75 0 1 0 -2.177-2.74c-5.885 4.678-17.752 12.512-31.185 12.512-16.545 0-30.743-11.859-34.942-15.734a69.1 69.1 0 0 1 7.818-6.218 1.75 1.75 0 1 0 -1.976-2.89 66.374 66.374 0 0 0 -9.625 7.9 1.75 1.75 0 0 0 0 2.422c.705.733 17.532 18.02 38.725 18.02z"/><path d="m100.2 65.212a1.75 1.75 0 0 0 2.525-2.423c-.705-.736-17.532-18.023-38.725-18.023a44.181 44.181 0 0 0 -15.081 2.8 1.75 1.75 0 0 0 1.2 3.289 40.711 40.711 0 0 1 13.881-2.589c19.679 0 36.038 16.776 36.2 16.946z"/><path d="m42.347 50.444-.663.344a1.75 1.75 0 1 0 1.627 3.1l.629-.326a1.75 1.75 0 0 0 -1.593-3.117z"/><path d="m74.469 72.911a13.717 13.717 0 1 0 -5.61 3.953 1.75 1.75 0 0 0 -1.236-3.275 10.257 10.257 0 1 1 4.182-2.948 1.75 1.75 0 0 0 2.664 2.27z"/><path d="m65.028 66a1.749 1.749 0 0 0 2.472 0 5.437 5.437 0 0 0 0-7.681 6.36 6.36 0 0 0 -8.982 0 7.5 7.5 0 0 0 0 10.609 8.939 8.939 0 0 0 12.643 0 1.75 1.75 0 1 0 -2.475-2.474 5.439 5.439 0 0 1 -7.693 0 4 4 0 0 1 0-5.659 2.855 2.855 0 0 1 4.032 0 1.93 1.93 0 0 1 0 2.731 1.751 1.751 0 0 0 .003 2.474z"/><path d="m27.63 54.685c6.738-5.385 20.424-14.419 36.37-14.419s29.632 9.034 36.37 14.419a1.751 1.751 0 0 0 2.186-2.735c-7.097-5.671-21.542-15.184-38.556-15.184s-31.459 9.513-38.556 15.184a1.751 1.751 0 0 0 2.186 2.735z"/><path d="m100.37 73.315c-6.738 5.385-20.424 14.419-36.37 14.419s-29.632-9.034-36.37-14.419a1.751 1.751 0 0 0 -2.186 2.735c7.097 5.671 21.542 15.184 38.556 15.184s31.459-9.513 38.556-15.184a1.751 1.751 0 0 0 -2.186-2.735z"/></g></g></svg>