<svg height="512" viewBox="0 0 48 48" width="512" xmlns="http://www.w3.org/2000/svg"><g id="Line"><path d="m26 30h-4c-.553 0-1 .447-1 1v12c.102 3.952 5.896 3.958 6 0v-12c0-.553-.447-1-1-1z" fill="#b18f78"/><path d="m33 13.41v15.59c0 1.65-1.35 3-3 3h-12c-1.65 0-3-1.35-3-3v-16.95c0 1.62 1.33 2.95 3.05 2.95.52 0 .95.43.95.95v3.55c.085 3.296 4.915 3.297 5 0v-3.55c0-.52.43-.95.95-.95.785-.053 1.232 1.193 1.66 1.72 1.065 1.686 3.715 1.686 4.78 0 .528-.889 1.717-2.193 1.61-3.31z" fill="#ffd267"/><g><path d="m33 11c-.083 1.108.269 3.113-.5 4.05 0 0-1.11 1.67-1.11 1.67-1.067 1.686-3.714 1.686-4.78 0-.43-.529-.874-1.772-1.66-1.72-.52 0-.95.43-.95.95v3.55c-.082 3.294-4.916 3.299-5 0v-3.55c0-.52-.43-.95-.95-.95-1.72 0-3.05-1.33-3.05-2.95v-1.05c.488-11.934 17.512-11.934 18 0z" fill="#7f6654"/></g><path d="m24 46c1.654 0 3-1.346 3-3v-11h3c1.654 0 3-1.346 3-3v-15.592-2.408c0-4.963-4.037-9-9-9-5.402-.029-9.472 4.739-9 10.046v16.954c0 1.654 1.346 3 3 3h3v11c0 1.654 1.346 3 3 3zm1-3c-.006 1.305-1.994 1.309-2 0v-11h2zm-1-39c3.859 0 7 3.141 7 7-.051.423.145 2.614-.16 2.937 0 0-1.117 1.676-1.117 1.676-.322.484-1.123.484-1.445 0l-.865-1.298c-1.544-2.412-5.463-1.229-5.412 1.639v3.546c-.002.65-.997.656-1 0v-3.546c-.001-1.629-1.326-2.954-3.047-2.954-.526 0-.954-.428-.954-.954-.438-4.197 2.684-8.076 7-8.046zm-7 25v-14.186c.749.298 1.962-.033 2 1.14v3.546c0 1.379 1.121 2.5 2.5 2.5s2.5-1.121 2.5-2.5v-3.546c-.029-.918 1.264-1.309 1.748-.529 0 0 .865 1.298.865 1.298.931 1.48 3.184 1.707 4.387.448v11.829c0 .552-.448 1-1 1-1.995-.004-12 0-12 0-.552 0-1-.448-1-1z"/></g></svg>