<svg id="Layer_1" enable-background="new 0 0 511.941 511.941" viewBox="0 0 511.941 511.941" xmlns="http://www.w3.org/2000/svg"><g><g><path d="m457.101 333.672c-8.89 39.76-20.66 78.78-35.24 116.85-85.31 18.125-172.9 22.155-259.51 11.91-40.015-29.661-56.943-80.573-39.9-128.76z" fill="#eaaa83"/><path d="m162.351 462.432c-26.61-3.14-50.81-7.35-72.27-11.91-14.199-37.067-26.166-76.221-35.24-116.85h67.61c10.167 45.36 23.388 87.377 39.9 128.76z" fill="#e7896e"/><path d="m400.397 144.892 40.286-73.977c7.823-14.365 26.53-19.289 41.092-10.483 15.624 9.436 19.118 28.751 9.865 42.009-15.99 22.91-37.237 54.328-53.552 77.763-8.365 6.956-19.212 9.487-27.569 5.801-12.23-5.395-18.974-24.035-10.122-41.113z" fill="#efedff"/><path d="m134.781 73.622c-28.702 13.748-60.106 3.642-77.98-21.66l-3.18-9.99c-3.34-10.53 2.48-21.77 13-25.12l26.47-8.41c10.52-3.34 21.77 2.48 25.11 13.01z" fill="#e7896e"/><path d="m91.181 160.162 64.629-8.609c13.778-51.382-40.624-67.035-79.477-38.113z" fill="#e7896e"/><path d="m56.801 51.962c19.739 62.122 19.632 61.452 19.532 61.478l66.323 18.424c6.395-12.981 5.143-27.308-1.865-39.322l-6.01-18.92z" fill="#efedff"/><path d="m376.301 133.922c-47.916 42.301-116.641 57.966-180.98 35.07-52.551-63.166-14.801-146.21 61.71-161.48 67.88.55 122.623 57.515 119.27 126.41z" fill="#ffd9a0"/><path d="m195.321 129.982v39.01c-31.81-11.42-52.6-28.82-59.68-35.07-3.499-71.949 56.179-128.32 121.39-126.41-49.15 16.31-79.28 67.5-61.71 122.47z" fill="#fdc072"/><path d="m421.861 450.522c-2.09 5.47-4.25 10.93-6.46 16.36-9.23 22.67-31.18 37.56-55.65 37.56h-139.95c-24.47 0-76.826-14.89-86.056-37.56-4.839-11.94 21.243-23.199 16.696-36.02 6.03 1.78 11.98 4.98 17.69 9.58 18.7 15.06 39.86 15.06 58.56 0s39.86-15.06 58.56 0 39.86 15.06 58.56 0 39.87-15.06 58.57 0c6.27 5.06 12.83 8.42 19.48 10.08z" fill="#ffd9a0"/><path d="m219.801 504.442h-67.61c-24.47 0-46.42-14.89-55.65-37.56-2.21-5.43-4.37-10.89-6.46-16.36 6.65-1.66 13.21-5.02 19.48-10.08 12.99-10.46 27.16-13.65 40.88-9.58 4.542 12.806 8.875 24.09 13.71 36.02 9.23 22.67 31.18 37.56 55.65 37.56z" fill="#fdc072"/><path d="m456.711 273.242c-22.16 30.73-55.4 47.94-89.05 50.99-165.15-82.79-39.14-195.82-39.14-195.82 80.581-6.894 144.698 65.943 128.19 144.83z" fill="#ff899f"/><path d="m367.661 324.232c-26.71 2.43-53.69-4.05-75.59-19.78-42.51-30.51-58.93-90.79-36.1-143.49 19.26-18.24 44.54-30.19 72.55-32.55-18.64 39.86-48.55 132.93 39.14 195.82z" fill="#ff5f7f"/><path d="m478.441 330.862c-117.06 16.23-235.63 19.59-353.31 10.06-16.624-2.711-28.453-17.638-27.386-33.886 1.007-15.337 13.261-28.129 29.036-29.845l160.91 8.69c61-1.24 121.939-6.065 182.52-14.45 16.41-2.271 31.56 9.19 33.83 25.6 2.27 16.411-9.19 31.561-25.6 33.831z" fill="#ffd9a0"/><path d="m125.131 340.922c-30.62-2.48-61.18-5.84-91.63-10.06-16.41-2.27-27.87-17.42-25.6-33.83s17.42-27.88 33.83-25.6c12.75 1.76 7.84 1.6 85.05 5.76-27.58 10.5-30.22 50.7-1.65 63.73z" fill="#fdc072"/><path d="m287.691 285.882c-4.43.09-8.85.16-13.28.21-10.21.12-18.44 8.41-18.44 18.63v41.6c0 9.86-7.78 18.64-19.01 18.64-10.29 0-18.64-8.35-18.64-18.64v-26.53c0-10.41-8.572-18.453-18.39-18.63-10.535-.19-19.25 8.09-19.25 18.62v45.55c0 9.85-7.76 18.64-19.02 18.64-10.29 0-18.63-8.34-18.63-18.64v-65.99c0-9.7-7.44-17.76-17.11-18.57-1.79-.15-3.58-.3-5.37-.46-51.401-64.357-4.475-139.614 74.77-150.33 70.512 13.081 115.222 85.936 92.37 155.9z" fill="#b1ecd0"/><path d="m120.551 280.312c-21.81-1.89-43.58-4.25-65.32-7.07-17.463-83.685 55.289-158.914 140.09-143.26-64.24 16.18-103.96 83.44-74.77 150.33z" fill="#60daa8"/></g><g><path d="m511.469 296.001c-2.837-20.479-21.803-34.828-42.292-31.998-1.137.157-2.276.304-3.414.459 3.678-29.45-2.823-58.994-18.657-84.096l50.684-73.633c12.108-17.349 6.504-41.277-11.525-52.348-19.326-11.867-42.528-4.763-52.169 12.941l-36.692 67.377c-4.351-2.251-8.849-4.256-13.472-6.004.393-70.856-57.104-128.699-127.961-128.699-49.905 0-93.223 28.718-114.313 70.492l-16.306-51.314c-4.592-14.452-20.084-22.475-34.538-17.881l-26.46 8.408c-14.451 4.593-22.472 20.086-17.88 34.537l36.166 113.815c-27.307 27.344-41.5 66.042-36.461 106.406-1.136-.155-2.277-.304-3.412-.461-20.535-2.85-39.449 11.462-42.294 31.998-2.837 20.482 11.518 39.454 31.999 42.291 5.393.747 10.805 1.459 16.223 2.154 9.754 42.351 23.345 86.145 40.903 129.262 10.447 25.656 35.018 42.233 62.598 42.233h207.553c27.58 0 52.15-16.577 62.598-42.233 17.03-41.823 30.773-85.284 40.902-129.259 5.417-.694 10.826-1.409 16.224-2.157 20.479-2.836 34.833-21.808 31.996-42.29zm-61.142-29.518c-50.551 6.366-101.734 10.278-152.681 11.653 9.656-40.623-.838-84.546-30.819-116.776 20.221-16.745 45.494-25.89 71.968-25.89 68.973.001 122.616 61.823 111.532 131.013zm-3.057-191.983c5.621-10.322 19.449-14.453 30.632-7.647 12.27 7.466 14.174 21.859 7.589 31.294l-47.689 69.307c-7.891-9.629-17.153-18.094-27.49-25.086zm-191.299-59.5c60.979 0 110.82 48.566 112.895 109.048-38.486-9.304-80.732-.539-112.943 26.883-32.067-27.263-74.133-36.243-112.847-26.883 2.075-60.482 51.916-109.048 112.895-109.048zm-161.034 132.225-7.261-22.85 30.563 8.49c-8.298 3.958-16.103 8.785-23.302 14.36zm38.022-54.572c-2.528 8.792-4.131 17.972-4.709 27.424l-46-12.778-14.11-44.403 60.724 16.868zm-64.063-68.653 26.46-8.408c6.599-2.093 13.611 1.556 15.699 8.129l12.382 38.967-60.723-16.868-1.945-6.121c-2.087-6.568 1.559-13.611 8.127-15.699zm104.251 111.471c74.097 0 128.793 70.765 108.924 143-2.582.043-5.165.092-7.746.123-14.256.169-25.854 11.889-25.854 26.126v41.604c0 5.78-4.498 11.136-11.512 11.136-6.14 0-11.135-4.995-11.135-11.136v-26.527c0-13.566-10.353-25.568-25.625-26.132-14.738-.544-27.022 11.293-27.022 26.119v45.552c0 6.141-4.995 11.136-11.135 11.136-6.966 0-11.512-5.319-11.512-11.136v-65.994c0-13.702-10.31-24.897-23.98-26.039-21.574-1.804-43.339-4.091-64.933-6.812-11.091-69.205 42.563-131.02 111.53-131.02zm15.03 201.802v-17.49c0-3.057 1.211-5.908 3.411-8.03 6.848-6.609 19.236-2.139 19.236 8.043v18.271c-7.542-.211-15.111-.477-22.647-.794zm-172.846-39.213c1.571-11.342 11.269-19.417 22.232-19.417 5.511 0 28.034 4.616 87.737 9.606 5.832.487 10.23 5.256 10.23 11.092v34.86c-33.675-2.523-67.611-6.141-101-10.767-12.289-1.703-20.902-13.085-19.199-25.374zm462.081 25.375c-50.871 7.048-102.68 11.711-153.99 13.858-4.139.173-7.353 3.668-7.18 7.807s3.674 7.386 7.807 7.18c41.038-1.717 82.39-5.035 123.339-9.876-7.922 33.382-17.964 66.434-29.974 98.646-3.504-1.578-6.961-3.733-10.334-6.449-17.684-14.243-37.787-16.867-56.601-7.391-3.7 1.863-5.188 6.372-3.325 10.072 1.864 3.699 6.373 5.188 10.072 3.324 13.444-6.769 27.429-4.808 40.446 5.677 4.618 3.719 9.43 6.645 14.374 8.778-1.182 3.004-2.378 6.002-3.594 8.99-8.136 19.979-27.253 32.89-48.705 32.89h-207.553c-21.452 0-40.569-12.91-48.705-32.89-1.217-2.988-2.412-5.986-3.594-8.99 4.944-2.134 9.756-5.06 14.375-8.779 15.849-12.764 33.306-12.764 49.154 0 21.598 17.395 46.372 17.395 67.97 0 15.849-12.763 33.306-12.764 49.154 0 13.971 11.252 29.498 15.295 44.899 11.681 4.033-.945 6.536-4.98 5.591-9.014-.946-4.032-4.981-6.535-9.014-5.59-10.74 2.519-21.827-.512-32.068-8.759-21.597-17.394-46.372-17.396-67.971 0-15.848 12.764-33.305 12.764-49.154 0-21.597-17.394-46.371-17.395-67.97-.001-3.373 2.716-6.83 4.872-10.334 6.45-12.01-32.215-22.053-65.269-29.975-98.652 23.609 2.792 47.356 5.092 70.977 6.846v16.092c0 13.874 11.044 26.136 26.512 26.136 14.411 0 26.135-11.725 26.135-26.136v-13.047c7.836.326 15.706.595 23.542.808 2.992 11.138 13.171 19.363 25.24 19.363 12.661 0 22.35-8.238 25.449-18.774 10.461-.042 20.986-.179 31.384-.421 4.141-.097 7.42-3.531 7.324-7.673-.097-4.141-3.55-7.436-7.672-7.323-9.93.231-19.978.367-29.973.414v-33.962c0-6.063 4.949-11.056 11.032-11.128 65.482-.775 131.866-5.745 196.732-14.731 12.29-1.696 23.673 6.913 25.376 19.199 1.703 12.289-6.909 23.671-19.198 25.375z"/><path d="m111.618 203.294c-21.227 0-27.931 28.766-13.765 28.766 4.142 0 7.5-3.357 7.5-7.5 0-3.455 2.811-6.266 6.265-6.266s6.265 2.811 6.265 6.266c0 4.143 3.358 7.5 7.5 7.5 14.1 0 7.483-28.766-13.765-28.766z"/><path d="m220.898 232.06c4.142 0 7.5-3.357 7.5-7.5 0-3.455 2.811-6.266 6.265-6.266s6.265 2.811 6.265 6.266c0 4.143 3.358 7.5 7.5 7.5s7.5-3.357 7.5-7.5c0-11.726-9.54-21.266-21.265-21.266s-21.265 9.54-21.265 21.266c0 4.142 3.358 7.5 7.5 7.5z"/><path d="m193.396 245.575c2.721-3.123 2.396-7.861-.727-10.582-3.123-2.722-7.86-2.396-10.582.727-4.738 5.437-13.156 5.437-17.894 0-2.721-3.122-7.459-3.448-10.582-.727s-3.448 7.459-.727 10.582c10.714 12.293 29.799 12.293 40.512 0z"/><path d="m193.522 94.765c4.142 0 7.5-3.357 7.5-7.5v-12c0-4.143-3.358-7.5-7.5-7.5s-7.5 3.357-7.5 7.5v12c0 4.142 3.358 7.5 7.5 7.5z"/><path d="m318.419 94.765c4.142 0 7.5-3.357 7.5-7.5v-12c0-4.143-3.358-7.5-7.5-7.5s-7.5 3.357-7.5 7.5v12c0 4.142 3.358 7.5 7.5 7.5z"/><path d="m278.089 91.835c2.721-3.123 2.396-7.86-.727-10.582-3.124-2.721-7.86-2.396-10.582.727-5.723 6.569-15.897 6.569-21.62 0-2.722-3.122-7.459-3.447-10.582-.727-3.123 2.722-3.448 7.459-.727 10.582 11.701 13.424 32.539 13.424 44.238 0z"/><path d="m406.578 205.29v4.786c-.019 4.142 3.313 7.515 7.456 7.533 4.226 0 7.526-3.388 7.544-7.467v-4.786c.019-4.142-3.313-7.515-7.456-7.533-4.14-.02-7.526 3.324-7.544 7.467z"/><path d="m331.32 199.445c-4.225 0-7.526 3.388-7.544 7.467v4.787c-.019 4.142 3.313 7.515 7.456 7.533 4.225 0 7.526-3.388 7.544-7.467v-4.787c.018-4.141-3.314-7.514-7.456-7.533z"/><path d="m368.179 189.173c-4.142 0-7.5 3.357-7.5 7.5s3.358 7.5 7.5 7.5c1.963 0 3.56 1.598 3.56 3.561s-1.597 3.56-3.56 3.56c-4.142 0-7.5 3.357-7.5 7.5s3.358 7.5 7.5 7.5c1.963 0 3.56 1.597 3.56 3.56s-1.597 3.56-3.56 3.56c-4.142 0-7.5 3.357-7.5 7.5s3.358 7.5 7.5 7.5c15.223 0 23.97-17.416 14.87-29.619 9.098-12.201.349-29.622-14.87-29.622z"/></g></g><g/><g/><g/><g/><g/><g/><g/><g/><g/><g/><g/><g/><g/><g/><g/></svg>