<svg id="Layer_1" enable-background="new 0 0 511.956 511.956" viewBox="0 0 511.956 511.956" xmlns="http://www.w3.org/2000/svg"><g><g><path d="m137.222 424.043c-26.682 42.212-77.821 107.84-117.462 68.199s25.988-90.78 68.199-117.462c17.099-6.517 35.921-1.164 45.666 12.306 11.782 16.284 4.068 35.82 3.597 36.957z" fill="#e7896e"/><path d="m438.061 267.162v.01c-.1.22-.22.44-.34.65-.46.86-.95 1.7-1.48 2.53-5.83 7.23-30.38 17.31-129.52-64.6-123.71-102.21-32.99-135.41-32.99-135.41l-.26-.63c7.66 1.52 14.91 5.1 20.84 10.58 64.5 23.03 114.16 72.97 137.4 137.4 12.05 14.68 14.1 34.41 6.35 49.47z" fill="#b1ecd0"/><path d="m315.841 389.092c-68.133 20.946-137.079 5.014-173.44-40.199-33.303-41.41-54.92-125.428 9.181-156.401 7.368 1.597 14.348 5.137 20.09 10.44 66.885 17.895 119.364 69.88 137.4 137.399 12.109 13.111 14.969 32.621 6.769 48.761z" fill="#b1ecd0"/><path d="m315.841 389.092c-11.564 23.128-41.357 31.047-63.07 16.06-1.68-1.16-3.36-2.33-5.03-3.51-13.66.56-46.67-.03-78.5-21.271-57.63-38.439-58.87-109.489-58.88-116.119-18.24-21.719-12.931-50.991 7.51-65.101 10.24-7.06 22.45-9.1 33.71-6.66-15.08 13.45-18.14 36.34-6.37 53.4 37.197 53.915 83.425 100.12 137.33 137.33 10.11 6.981 22.27 8.741 33.3 5.871z" fill="#60daa8"/><path d="m377.161 327.772c-55.959 45.308-135.055-59.901-173.75-108.47-54.56-68.47 7.69-87.59 9.45-88.12 7.33 1.59 14.31 5.07 20.11 10.41 35.74 50.87 76.46 94.55 137.42 137.42 12.33 13.35 14.81 32.9 6.77 48.76z" fill="#ffd9a0"/><path d="m377.161 327.772c-11.037 22.642-40.997 31.296-63.07 16.06-100.724-69.501-134.28-130.88-142.72-141.279-28.011-34.514 2.46-79.83 41.53-71.38l-.01.01c-15.07 13.45-18.13 36.33-6.36 53.39 37.198 53.918 83.422 100.118 137.33 137.33 10.11 6.979 22.27 8.739 33.3 5.869z" fill="#fdc072"/><path d="m437.992 266.942c-11.037 22.642-40.997 31.296-63.07 16.06-100.724-69.501-134.28-130.88-142.72-141.279-28.011-34.514 2.46-79.83 41.53-71.38l-.01.01c-15.07 13.45-18.13 36.33-6.36 53.39 37.198 53.918 83.422 100.118 137.33 137.33 10.11 6.979 22.269 8.739 33.3 5.869z" fill="#60daa8"/><path d="m497.371 209.312c-7.08 7.76-33.54 16.79-126.81-64.55-116.86-101.9-38.15-134.99-35.08-136.22 10.36 2.23 19.92 8.26 26.42 17.67 33.57 48.64 75.25 90.33 123.89 123.89 19.34 13.35 24.41 39.67 11.58 59.21z" fill="#ff899f"/><path d="m499.827 205.106c-11.037 22.642-40.997 31.296-63.07 16.06-100.724-69.501-134.28-130.88-142.72-141.279-.975-1.201-1.96-2.84-3.2-4.641-22.076-31.954 6.31-75.049 44.73-66.739l-.01.01c-15.07 13.45-18.13 36.33-6.36 53.39 37.198 53.918 83.422 100.118 137.33 137.33 10.11 6.979 22.27 8.739 33.3 5.869z" fill="#ff5f7f"/><path d="m251.531 455.452-.05.061c-10.988 5.488-24.039 11.141-31.129 6.241-56.39-38.927-107.756-91.563-147.931-149.781-10.5-15.2-8.681-49.371 10.04-59.12 10.18.32 20.16 4.25 27.9 11.4 37.73 53.463 83.916 99.661 137.38 137.39 13.41 14.519 15.48 36.869 3.79 53.809z" fill="#efedff"/><path d="m251.481 455.512c-13.56 19.58-40.42 24.5-60.03 10.96-56.387-38.925-105.746-87.702-145.92-145.92-13.55-19.63-8.61-46.53 11.02-60.08 7.91-5.46 16.99-7.92 25.91-7.62-9.94 14.35-10.54 33.92-.04 49.12 38.916 56.395 87.711 105.737 145.92 145.92 7.09 4.899 15.13 7.38 23.14 7.62z" fill="#d9d9f9"/></g><g><path d="m511.094 176.466c-2.441-13.317-9.924-24.888-21.067-32.578-47.887-33.046-88.924-74.085-121.974-121.975-15.91-23.059-47.456-28.841-70.512-12.927-17.977 12.406-25.312 34.163-20.429 53.886-37.479-9.082-70.209 24.569-61.334 61.157-36.68-9.047-70.477 24.422-61.303 61.478-37.236-9.021-70.339 24.345-61.359 61.152-27.592-6.791-56.551 10.919-61.915 40.182-2.441 13.317.449 26.789 8.14 37.932 11.565 16.758 24.033 32.923 37.271 48.359-16.407 10.827-36.708 25.813-52.032 42.333-2.817 3.036-2.64 7.781.397 10.599 3.036 2.818 7.782 2.639 10.599-.397 14.894-16.053 35.097-30.751 51.05-41.163 13.101 14.492 26.324 27.715 40.815 40.816-28.493 43.743-55.838 69.055-77.338 71.449-9.199 1.027-17.396-2.203-25.06-9.868-9.774-9.773-12.353-20.183-8.113-32.757 1.323-3.925-.786-8.18-4.712-9.503-3.919-1.322-8.179.787-9.503 4.712-6.009 17.826-1.956 34.478 11.721 48.155 9.605 9.604 20.454 14.45 32.315 14.45 36.371 0 72.049-46.245 92.06-76.617 14.431 12.376 29.501 24.075 45.083 34.985 1.31.917 2.81 1.357 4.295 1.357 7.316 0 10.302-9.449 4.309-13.645-55.162-38.625-102.561-86.361-140.811-141.784-11.205-16.234-7.133-38.441 9.102-49.645 13.435-9.269 31.79-8.121 43.935 2.653 38.005 53.654 84.298 99.948 137.951 137.953 19.05 21.474 6.366 57.003-24.816 59.312-2.414.134-4.704 1.566-5.779 3.325-3.5 5.092.594 12.146 6.992 11.619 31.604-2.607 53.507-31.86 46.04-62.679 36.715 9.091 70.381-23.916 61.323-61.318 36.668 9.077 70.391-23.857 61.318-61.319 36.741 9.094 70.373-23.939 61.322-61.318 35.962 8.898 68.602-22.468 62.019-58.371zm-81.804 90.731c-11.2 16.232-33.403 20.31-49.645 9.103-20.468-14.126-40.129-29.694-58.436-46.27-3.07-2.78-7.812-2.546-10.594.525-2.78 3.07-2.545 7.813.525 10.594 17.043 15.432 35.235 29.998 54.143 43.394 18.241 20.507 7.257 53.762-20.25 58.808-9.376 1.719-18.861-.315-26.708-5.731-18.887-13.034-37.112-27.316-54.171-42.447-3.098-2.75-7.838-2.465-10.587.634s-2.466 7.839.634 10.587c15.749 13.971 32.471 27.225 49.779 39.486 10.791 12.146 11.947 30.518 2.671 43.958-11.183 16.205-33.379 20.329-49.645 9.102-56.504-38.995-105.009-87.5-144.004-144.004-11.205-16.234-7.133-38.441 9.102-49.645 13.443-9.278 31.812-8.123 43.956 2.666 5.535 7.814 11.277 15.533 17.144 23.011 2.557 3.259 7.271 3.827 10.53 1.271 3.259-2.558 3.827-7.271 1.271-10.53-7.134-9.091-14.093-18.542-20.683-28.091-11.204-16.235-7.134-38.441 9.102-49.645 13.461-9.29 31.865-8.115 44.011 2.718 7.608 10.736 15.589 21.279 23.835 31.392 2.617 3.21 7.342 3.691 10.552 1.073 3.21-2.617 3.691-7.342 1.073-10.552-9.495-11.646-18.665-23.861-27.254-36.305-11.178-16.197-7.095-38.469 9.101-49.646 13.433-9.27 31.788-8.121 43.935 2.651 38.008 53.659 84.311 99.962 137.972 137.968 10.765 12.142 11.91 30.494 2.641 43.925zm61.319-61.318c-11.177 16.195-33.446 20.281-49.646 9.102-56.507-38.998-105.004-87.495-144.003-144.002-16.256-23.553.567-55.974 29.3-55.974 11.549 0 22.587 5.485 29.447 15.428 34.086 49.393 76.411 91.718 125.8 125.801 16.236 11.205 20.307 33.409 9.102 49.645z"/><path d="m211.054 261.759c-18.897 0-28.343 22.995-15.037 36.302 2.929 2.929 7.677 2.93 10.606.001 2.93-2.929 2.93-7.678.001-10.606-2.442-2.443-2.442-6.418 0-8.86 2.447-2.449 6.411-2.449 8.859-.001 2.929 2.929 7.678 2.93 10.606.001 2.93-2.929 2.93-7.678.001-10.606-4.015-4.019-9.355-6.231-15.036-6.231z"/><path d="m298.06 174.753c-18.897 0-28.343 22.995-15.037 36.302 2.929 2.929 7.677 2.93 10.606.001 2.93-2.929 2.93-7.678.001-10.606-2.442-2.443-2.442-6.418 0-8.86 2.447-2.449 6.411-2.449 8.859-.001 2.929 2.929 7.678 2.93 10.606.001 2.93-2.929 2.93-7.678.001-10.606-4.015-4.018-9.355-6.231-15.036-6.231z"/><path d="m275.745 233.091c-4.133.284-7.252 3.863-6.969 7.996.494 7.205-5.476 13.155-12.653 12.653-4.13-.268-7.712 2.837-7.996 6.969-.283 4.133 2.836 7.712 6.969 7.996 16.276 1.107 29.762-12.37 28.645-28.645-.284-4.133-3.863-7.251-7.996-6.969z"/></g></g><g/><g/><g/><g/><g/><g/><g/><g/><g/><g/><g/><g/><g/><g/><g/></svg>