<svg id="Capa_1" enable-background="new 0 0 512 512" viewBox="0 0 512 512" xmlns="http://www.w3.org/2000/svg"><g><g><g><path d="m153.944 115.879 19.925 144.373c5.354-1.218 10.915-1.882 16.632-1.882 41.345 0 74.982 33.636 74.982 74.981 0 7.145-1.025 14.259-3.044 21.144l-.377 1.284h22.945c1.658 0 3.006 1.348 3.006 3.006v17.792c0 22.27-7.246 42.877-19.496 59.598l.526.978h162.437c5.011 0 9.251-3.701 9.928-8.666l42.645-312.607h-330.109z" fill="#fe646f"/><g><path d="m436.593 115.879-36.918 270.627c-.678 4.965-4.918 8.666-9.929 8.666h-102.45c-2.866 15.494-9.225 29.777-18.253 41.981h162.437c5.011 0 9.251-3.701 9.928-8.666l42.645-312.607h-47.46z" fill="#fd4755"/></g><path d="m459.184 298.188h-83.443c-2.767 0-5.01 2.243-5.01 5.01v75.313c0 2.767 2.243 5.01 5.01 5.01h71.802z" fill="#ffe177"/><path d="m411.723 298.188-11.641 85.333h47.461l11.641-85.333z" fill="#ffd15b"/><path d="m37.703 355.779h77.538l3.416-1.002c-2.03-6.793-3.136-13.981-3.136-21.426 0-26.082 13.393-49.085 33.655-62.522-12.261-8.48-27.127-13.46-43.163-13.46-41.964 0-75.983 34.019-75.983 75.983 0 7.443 1.089 14.628 3.084 21.426z" fill="#c96e59"/><g><path d="m116.153 323.613h-85.48c-.409 3.191-.643 6.436-.643 9.738 0 7.443 1.089 14.628 3.084 21.426l4.589 1.002h77.538l3.416-1.002c-2.03-6.793-3.136-13.981-3.136-21.426 0-3.3.216-6.55.632-9.738z" fill="#bb5d4c"/></g><path d="m121.072 355.779h138.751l3.579-1.002c1.995-6.798 3.084-13.983 3.084-21.426 0-41.964-34.019-75.983-75.983-75.983s-75.983 34.019-75.983 75.983c0 7.443 1.089 14.628 3.084 21.426z" fill="#fff3de"/><path d="m211.941 260.456c7.89 11.979 12.495 26.315 12.495 41.732 0 1.927-.073 3.837-.216 5.728-.669 8.848-8.021 15.698-16.894 15.698h-92.165c-.409 3.191-.643 6.436-.643 9.738 0 7.443 1.089 14.628 3.084 21.426l3.469 1.002h138.751l3.579-1.002c1.995-6.798 3.084-13.983 3.084-21.426 0-34.517-23.023-63.639-54.544-72.896z" fill="#ffe5c2"/><path d="m494.48 116.881h-351.036c-5.534 0-10.02-4.486-10.02-10.02v-63.486c0-5.534 4.486-10.02 10.02-10.02h351.036c5.534 0 10.02 4.486 10.02 10.02v63.486c0 5.534-4.486 10.02-10.02 10.02z" fill="#ffe177"/><path d="m494.48 33.355h-31.564v35.892c0 5.534-4.486 10.02-10.02 10.02h-319.472v27.594c0 5.534 4.486 10.02 10.02 10.02h351.036c5.534 0 10.02-4.486 10.02-10.02v-63.486c0-5.534-4.486-10.02-10.02-10.02z" fill="#ffd15b"/><g><path d="m109.57 478.645c-56.281 0-102.07-45.787-102.07-102.069v-17.792c0-2.211 1.798-4.008 4.008-4.008h273.5c2.21 0 4.008 1.798 4.008 4.008v17.792c0 56.281-45.788 102.069-102.07 102.069z" fill="#dff6fd"/><path d="m285.008 354.777h-37.576v12.612c0 38.24-30.999 69.239-69.239 69.239h-151.104c18.58 25.449 48.629 42.017 82.48 42.017h77.376c56.281 0 102.07-45.787 102.07-102.069v-17.792c.001-2.21-1.797-4.007-4.007-4.007z" fill="#c8effe"/></g><g><path d="m381.981 238.22c-35.034-31.653-88.504-31.653-123.538 0-1.984 1.792-5.04 1.671-6.931-.219-10.196-10.196-20.393-20.392-30.589-30.589-2.003-2.003-1.956-5.279.117-7.211 55.804-52.03 142.54-52.03 198.343 0 2.072 1.932 2.12 5.208.117 7.211-10.196 10.196-20.392 20.392-30.589 30.589-1.889 1.89-4.946 2.012-6.93.219z" fill="#fff"/></g><path d="m419.384 200.201c-5.95-5.547-12.254-10.498-18.832-14.862-4.918 5.954-9.836 11.909-14.755 17.863-4.495 5.442-12.359 6.646-18.271 2.79-42.375-27.64-98.586-22.163-134.851 13.172l18.837 18.837c1.89 1.89 4.947 2.012 6.931.219 35.033-31.653 88.504-31.653 123.538 0 1.984 1.792 5.04 1.671 6.931-.219 10.196-10.196 20.393-20.392 30.589-30.589 2.003-2.003 1.955-5.279-.117-7.211z" fill="#f2fbff"/></g></g><g><path d="m230.82 317.676c-2.93-2.928-7.678-2.928-10.607 0-2.929 2.93-2.929 7.678 0 10.607l3.567 3.567c1.465 1.464 3.385 2.196 5.304 2.196s3.839-.732 5.304-2.196c2.929-2.93 2.929-7.678 0-10.607z"/><path d="m151.899 314.943c-2.93-2.928-7.678-2.928-10.607 0-2.929 2.93-2.929 7.678 0 10.607l3.567 3.567c1.465 1.464 3.385 2.196 5.304 2.196s3.839-.732 5.304-2.196c2.929-2.93 2.929-7.678 0-10.607z"/><path d="m193.161 288.19-3.567 3.566c-2.929 2.928-2.93 7.677-.001 10.606 1.464 1.465 3.384 2.197 5.304 2.197 1.919 0 3.838-.732 5.303-2.196l3.567-3.566c2.929-2.928 2.93-7.677.001-10.606-2.928-2.929-7.677-2.928-10.607-.001z"/><path d="m494.479 25.854h-58.617c-4.143 0-7.5 3.357-7.5 7.5s3.357 7.5 7.5 7.5h58.617c1.39 0 2.521 1.131 2.521 2.521v63.486c0 1.39-1.131 2.52-2.521 2.52h-351.035c-1.39 0-2.521-1.13-2.521-2.52v-63.486c0-1.39 1.131-2.521 2.521-2.521h257.347c4.143 0 7.5-3.357 7.5-7.5s-3.357-7.5-7.5-7.5h-257.347c-9.661 0-17.521 7.859-17.521 17.521v63.486c0 9.66 7.859 17.52 17.521 17.52h4.103l17.851 129.351c-6.036 1.907-11.77 4.494-17.131 7.652-12.802-7.539-27.306-11.515-42.254-11.515-10.358 0-20.502 1.896-30.15 5.636-3.862 1.497-5.78 5.842-4.283 9.704 1.497 3.861 5.838 5.776 9.704 4.282 7.912-3.067 16.232-4.622 24.729-4.622 10.029 0 19.815 2.182 28.793 6.359-17.043 15.295-27.788 37.475-27.788 62.124 0 4.671.404 9.327 1.182 13.926h-69.23c-.952-4.582-1.441-9.245-1.441-13.926 0-17.012 6.282-33.324 17.69-45.931 2.779-3.071 2.542-7.814-.529-10.594-3.07-2.778-7.814-2.542-10.594.529-13.908 15.37-21.567 35.257-21.567 55.995 0 4.671.404 9.327 1.182 13.926h-12.203c-6.346 0-11.508 5.162-11.508 11.508v17.791c0 60.417 49.152 109.569 109.569 109.569h77.377c34.712 0 65.701-16.229 85.791-41.493h158.743c8.718 0 16.181-6.514 17.36-15.152l41.623-305.119h4.016c9.661 0 17.521-7.859 17.521-17.52v-63.486c0-9.661-7.859-17.521-17.521-17.521zm-372.46 307.498c0-19.439 8.155-36.998 21.207-49.476-.257 2.2.452 4.491 2.14 6.179 1.465 1.465 3.384 2.196 5.303 2.196 1.92 0 3.84-.732 5.304-2.197l3.566-3.567c2.929-2.93 2.928-7.679-.001-10.606-.908-.908-1.991-1.533-3.139-1.878 10.05-5.798 21.691-9.134 34.104-9.134 37.762 0 68.483 30.722 68.483 68.483 0 4.681-.48 9.344-1.433 13.926h-134.102c-.952-4.583-1.432-9.246-1.432-13.926zm64.927 137.794h-77.377c-52.145 0-94.569-42.424-94.569-94.57v-14.299h18.087c.008 0 .016.002.024.002.009 0 .018-.002.027-.002h248.377v14.299c.001 52.146-42.423 94.57-94.569 94.57zm265.692-180.458h-76.896c-6.898 0-12.511 5.612-12.511 12.51v20.202c0 4.143 3.357 7.5 7.5 7.5s7.5-3.357 7.5-7.5v-17.713h72.361l-9.594 70.334h-62.768v-17.551c0-4.143-3.357-7.5-7.5-7.5s-7.5 3.357-7.5 7.5v20.04c0 6.898 5.612 12.511 12.511 12.511h63.209l-4.972 36.45c-.17 1.243-1.244 2.181-2.498 2.181h-148.707c8.75-15.734 13.743-33.832 13.743-53.076v-17.791c0-6.346-5.162-11.508-11.508-11.508h-12.205c.779-4.599 1.182-9.254 1.182-13.926 0-46.033-37.45-83.483-83.483-83.483-3.525 0-6.991.245-10.402.671l-17.41-126.159h312.635z"/><path d="m246.209 243.305c4.736 4.735 12.317 4.946 17.263.481 15.562-14.062 35.713-21.806 56.74-21.806s41.179 7.744 56.741 21.806c2.379 2.148 5.368 3.215 8.358 3.215 3.224 0 6.446-1.239 8.904-3.696l30.589-30.589c2.388-2.389 3.724-5.696 3.665-9.075-.06-3.373-1.506-6.626-3.972-8.925-28.382-26.464-65.418-41.037-104.286-41.037-38.867 0-75.903 14.573-104.286 41.037-2.465 2.299-3.911 5.552-3.971 8.925-.059 3.379 1.277 6.687 3.665 9.075zm74.003-74.626c34.195 0 66.815 12.502 92.151 35.264l-27.139 27.139c-18.067-15.559-41.059-24.101-65.013-24.101s-46.945 8.542-65.012 24.101l-27.139-27.139c25.337-22.759 57.96-35.264 92.152-35.264z"/></g></g><g/><g/><g/><g/><g/><g/><g/><g/><g/><g/><g/><g/><g/><g/><g/></svg>