<svg id="Layer_1" enable-background="new 0 0 511.928 511.928" viewBox="0 0 511.928 511.928" xmlns="http://www.w3.org/2000/svg"><g><g><path d="m98.872 51.123c-6.88-4.589-15.145-6.743-23.797-5.905-8.246.798-15.578-5.239-16.376-13.485-.799-8.245 5.244-15.573 13.484-16.376 19.315-1.871 37.5 4.36 51.194 16.842 3.68 8.921-.097 18.581-7.295 21.933-5.359 2.498-12.161 1.286-17.21-3.009z" fill="#00ce8e"/><path d="m366.64 78.624 30.633-56.251c7.823-14.365 26.53-19.289 41.092-10.483 15.567 9.39 19.156 28.699 9.865 42.009-13.79 19.756-31.488 45.84-46.562 67.675-2.044.791-14.302 5.319-24.941-.86-12.006-6.975-17.429-24.961-10.087-42.09z" fill="#eaaa83"/><path d="m415.074 323.082c-2.33 50.3-10.96 100.5-26.23 149.64-5.85 18.85-23.26 31.705-43 31.705h-66.36c-73.45-2.807-44.985-44.043-46.13-48.255z" fill="#fdc072"/><path d="m281.224 504.427h-113.74l65.87-48.255c.31 1.14.64 2.27.96 3.41 3.832 13.46 4.864 16.421 6.73 20.12 7.563 14.971 22.974 24.725 40.18 24.725z" fill="#ffa93f"/><path d="m235.824 460.202c-16.535-6.943-125.875-2.854-24.47-165.03l69.28-2.03c11.786 58.931-3.681 120.536-44.81 167.06z" fill="#fdc072"/><path d="m234.314 459.582-124.2-51.11c-7.22-37.54-10.76-75.45-10.76-113.3l180.6-5.3c.22 1.02.45 2.11.68 3.27l-69.28 2.03c0 55.684 7.654 110.871 22.96 164.41z" fill="#ffa93f"/><path d="m415.714 295.172c0 9.3-.21 18.61-.64 27.91-40.87 69.18-101.43 123.79-174.03 156.62-3.832-7.598-90.026 9.45-25.2-111.04 17.86-13.98 31.55-29.66 41.69-43.72 30.363-48.841 89.129-66.711 147.67-35.99 5.73 3.01 9.43 5.47 10.51 6.22z" fill="#eaaa83"/><path d="m241.044 479.702c-23.36 10.57-47.96 18.905-73.56 24.725-19.01-.73-35.58-13.415-41.26-31.705-6.6-21.25-11.96-42.69-16.11-64.25 37.825-2.103 74.316-15.198 105.73-39.81 4.345 35.241 11.83 70.156 22.38 104.06.75 2.43 1.7 4.76 2.82 6.98z" fill="#e7896e"/><path d="m428.594 292.902c-73.095 13.385-149.505 18.128-216.33 14.51-51.812-20.303-24.104-71.714 24.63-73.9h183.53c15.3-1.43 29.436 9.051 32.26 24.47 2.986 16.301-7.8 31.93-24.09 34.92z" fill="#ffd9a0"/><path d="m212.264 307.412c-42.04-2.02-84.03-6.86-125.79-14.51-16.29-2.99-27.08-18.62-24.1-34.92 2.83-15.42 16.96-25.9 32.27-24.47h142.25c-36.89 9.6-54.63 48.62-24.63 73.9z" fill="#fdc072"/><path d="m420.424 233.512c-3.549.323-10.856 2.148-34.1 5.56-9.12 1.34-15.85 9.21-15.85 18.43v55.13c0 9.6-7.26 17.5-16.58 18.51-11.358 1.358-21.07-7.378-21.07-18.51v-34.1c0-13.226-13.332-22.109-25.68-17.37-7.03 2.68-11.96 9.5-11.96 17.4v56.66c0 9.817-7.736 18.63-19.01 18.63-10.3 0-18.64-8.34-18.64-18.63v-68.28c0-10.067-8.028-18.411-18.21-18.63-9.35-.19-18.69-.53-28.03-1.03-22.77-12.72-70.883-39.06-65.663-66.37 12.39-64.71 95.433-118.05 159.273-136.42 79.741 23.759 131.16 104.336 115.52 189.02z" fill="#efedff"/><path d="m180.444 180.912c-5.22 27.31 8.08 53.65 30.85 66.37-65.673-3.431-112.004-13.347-116.65-13.77-22.551-122.11 92.13-224.2 210.26-189.02-63.84 18.37-112.07 71.71-124.46 136.42z" fill="#d9d9f9"/><ellipse cx="177.506" cy="183.044" fill="#ffa1ac" rx="23.515" ry="29.529" transform="matrix(.002 -1 1 .002 -5.928 360.148)"/><ellipse cx="337.562" cy="183.395" fill="#ffa1ac" rx="23.515" ry="29.529" transform="matrix(.002 -1 1 .002 153.429 520.554)"/><circle cx="137.063" cy="75.266" fill="#ff5f7f" r="45.176"/></g><g><path d="m429.14 226.353c4.786-35.963-1.65-72.253-18.718-104.268 14.172-20.57 30.978-45.302 43.952-63.89 11.665-16.715 7.379-40.862-12.135-52.719-17.871-10.858-41.513-5.135-51.56 13.313l-26.311 48.315c-52.504-41.287-123.459-48.297-182.553-19.568-11.898-19.132-34.487-28.669-56.556-23.596-15.064-12.276-34.006-17.959-53.811-16.044-12.345 1.204-21.417 12.224-20.221 24.564 1.199 12.377 12.188 21.429 24.564 20.227 4.495-.435 8.871.147 12.937 1.652-9.768 22.467-2.782 49.231 17.947 63.922-17.894 31.703-25.907 69.412-20.76 108.09-14.973 2.399-27.931 13.978-30.919 30.279-3.737 20.387 9.736 39.911 30.123 43.647 2.254.414 4.522.806 6.786 1.205.381 36.421 4.808 72.416 10.789 108.073 2.117 12.62 8.731 40.83 16.361 65.39 6.695 21.554 25.992 36.231 48.361 36.983h178.419c23.131 0 43.292-14.851 50.167-36.982 1.392-4.477 2.757-9.059 4.057-13.62 1.137-3.982-1.172-8.133-5.155-9.269-3.979-1.137-8.133 1.171-9.269 5.155-1.27 4.448-2.601 8.917-3.957 13.283-4.915 15.82-19.319 26.45-35.843 26.45h-126.949c72.613-26.883 138.896-76.272 186.596-145.031-2.442 25.474-6.514 50.74-12.207 75.56-.926 4.037 1.597 8.061 5.634 8.987 4.064.928 8.066-1.618 8.987-5.634 9.905-43.183 14.821-86.782 15.269-129.357 2.258-.397 4.521-.781 6.771-1.194 20.386-3.736 33.86-23.262 30.122-43.647-2.984-16.281-15.934-27.874-30.918-30.276zm-25.287-200.389c5.62-10.319 19.441-14.453 30.631-7.647 12.3 7.48 14.157 21.885 7.589 31.294-11.758 16.847-26.664 38.739-40.102 58.296-7.451-11.249-16.178-21.58-25.976-30.787zm-329.508 11.793c-4.113.401-7.787-2.606-8.188-6.743-.398-4.113 2.628-7.786 6.742-8.188 12.916-1.252 25.363 1.548 36.028 7.94-4.585 2.909-8.693 6.5-12.176 10.638-6.945-3.149-14.571-4.41-22.406-3.647zm25.035 37.512c0-20.775 16.901-37.677 37.676-37.677s37.677 16.901 37.677 37.677-16.902 37.677-37.677 37.677-37.676-16.901-37.676-37.677zm20.648 49.837c39.713 13.606 79.087-22.909 67.806-63.821 21.553-10.58 45.509-16.162 69.693-16.162 96.074 0 170.805 85.586 156.375 181.834-9.516 1.716-19.146 3.3-28.676 4.699-12.688 1.864-22.257 12.975-22.257 25.846v55.133c0 6.14-4.995 11.135-11.136 11.135-6.995 0-11.512-5.346-11.512-11.135v-34.095c0-14.569-12.092-27.056-28.171-26.052-13.725.857-24.476 12.312-24.476 26.075v56.659c0 5.78-4.498 11.136-11.512 11.136-6.141 0-11.136-4.995-11.136-11.136v-68.282c0-14.112-11.465-25.83-25.557-26.121-46.095-.951-92.616-5.621-138.318-13.864-5.287-35.276 1.348-71.068 18.877-101.849zm182.646 174.805v-21.348c0-5.861 4.573-10.741 10.411-11.104 7.377-.459 12.235 5.063 12.235 11.081v19.998c-7.539.548-15.109 1.008-22.646 1.373zm-172.132-7.554c-14.216-1.942-28.589-4.241-42.72-6.833-5.911-1.084-11.047-4.404-14.46-9.351-11.444-16.581 3.063-38.495 22.575-34.911 47.298 8.672 95.485 13.568 143.224 14.553 5.992.124 10.866 5.114 10.866 11.125v34.019c-29.827-.242-59.931-1.91-89.604-5.004-4.115-.414-7.808 2.562-8.237 6.683-.43 4.119 2.562 7.808 6.682 8.237 30.189 3.147 60.815 4.842 91.16 5.084v6.534c-32.723 44.356-78.855 72.969-133.744 78.004-5.732-31.748-8.869-63.994-9.355-96.479 7.201 1.15 14.412 2.221 21.584 3.2 4.107.575 7.886-2.312 8.446-6.415.56-4.104-2.313-7.885-6.417-8.446zm277.105 28.516c-53.843 90.18-139.265 152.616-240.823 175.99-15.506-.973-28.771-11.318-33.447-26.369-5.648-18.18-10.392-36.605-14.245-55.216 53.759-5.337 98.843-31.367 132.586-70.818 3.741 9.864 13.284 16.897 24.444 16.897 15.429 0 26.512-12.219 26.512-26.136v-20.296c7.542-.359 15.119-.809 22.67-1.348.482 13.482 11.382 25.19 26.488 25.19 14.411 0 26.136-11.724 26.136-26.135v-4.283c10.043-1.281 20.123-2.749 30.172-4.354-.084 5.631-.25 11.257-.493 16.878zm34.045-44.699c-3.414 4.946-8.55 8.267-14.461 9.351-16.294 2.988-32.828 5.573-49.263 7.703v-35.726c0-5.483 4.057-10.215 9.437-11.004 29.291-4.301 31.128-5.611 35.82-5.611 18.107 0 28.714 20.436 18.467 35.287z"/><path d="m192.027 172.305c4.142 0 7.5-3.357 7.5-7.5v-12c0-4.143-3.358-7.5-7.5-7.5s-7.5 3.357-7.5 7.5v12c0 4.142 3.358 7.5 7.5 7.5z"/><path d="m311.628 171.97c4.143 0 7.5-3.357 7.5-7.5 0-3.532 2.874-6.406 6.406-6.406s6.406 2.874 6.406 6.406c0 4.143 3.357 7.5 7.5 7.5s7.5-3.357 7.5-7.5c0-11.804-9.603-21.406-21.406-21.406s-21.406 9.603-21.406 21.406c0 4.142 3.358 7.5 7.5 7.5z"/><path d="m257.623 189.2c14.082 12.342 36.411 2.37 36.411-16.513 0-4.143-3.357-7.5-7.5-7.5s-7.5 3.357-7.5 7.5c0 3.836-3.12 6.956-6.955 6.956-3.836 0-6.956-3.12-6.956-6.956 0-4.143-3.357-7.5-7.5-7.5-4.142 0-7.5 3.357-7.5 7.5 0 3.836-3.12 6.956-6.956 6.956s-6.956-3.12-6.956-6.956c0-4.143-3.358-7.5-7.5-7.5s-7.5 3.357-7.5 7.5c0 18.876 22.328 28.858 36.412 16.513z"/></g></g><g/><g/><g/><g/><g/><g/><g/><g/><g/><g/><g/><g/><g/><g/><g/></svg>