<svg id="Layer_1" enable-background="new 0 0 511.941 511.941" viewBox="0 0 511.941 511.941" xmlns="http://www.w3.org/2000/svg"><g><g><path d="m489.271 304.897c-79.972 31.412-166.264 46.971-254.9 43.82-38.744-34.089-31.438-94.824 14.09-119.12 36.37-2.13 73.75-3.79 112.09-4.87 38.26 1.09 75.6 2.74 111.96 4.87 10.32 20.5 15.91 47.63 16.76 75.3z" fill="#ffd9a0"/><path d="m360.551 224.727c-38.34 1.08-75.72 2.74-112.09 4.87-4.23 9.27-8.88 20.97-11.93 34.96-5.78 26.519-6.487 56.828-2.16 84.16-92.19-3.29-165.96-26.1-211.7-43.82.946-31.17 6.913-53.772 16.76-75.3 103.786-6.087 210.804-7.996 321.12-4.87z" fill="#fdc072"/><path d="m184.863 56.77c-7.935-11.6-20.178-21.354-36.422-28.317-12.052-5.166-26.193-.557-32.886 10.718-4.9 8.254-8.361 16.478-10.433 24.52-.054 33.443 27.55 54.98 48.106 51.729 19.211-3.038 37.815-28.604 31.635-58.65z" fill="#60daa8"/><path d="m145.17 106.657c-11.994-33.623-43.27-52.786-86.307-49.968-15.248.998-27.503 13.254-28.502 28.502-2.466 37.662 11.901 66.317 38.062 80.925 16.017 22.19 47.527 26.809 68.969 10.519 21.715-16.497 25.486-48.652 7.778-69.978z" fill="#b1ecd0"/><path d="m504.441 197.697v1.9c0 16.56-13.43 30-30 30h-240.17c-39.156 0-40.301-59.794-1.65-61.86 26.69-1.43 73.53-2.61 100.51-3.53 60.991 0 64.257-.705 142.95 3.53 15.91.85 28.36 14.03 28.36 29.96z" fill="#eaaa83"/><path d="m254.271 229.597h-216.77c-16.57 0-30-13.44-30-30v-1.9c0-15.93 12.44-29.11 28.35-29.96 83.059-4.451 71.521-3.53 297.28-3.53-26.98.92-53.82 2.1-80.51 3.53-14.419.771-28.35 11.926-28.35 31.86 0 16.56 13.43 30 30 30z" fill="#e7896e"/><path d="m374.551 176.637c-11.196-.278-22.028 2.618-31.8 8.09-17.896 10.034-39.466 9.31-57.03-.33-17.33-9.48-36.81-10.3-54.51-2.46-25.43 4.798-48.056-1.501-57.337-16.452-9.397-15.137-2.102-34.287 1.548-43.871 21.509-56.468 93.887-77.847 114.358-83.237 40.82 11.9 72.664 44.821 83.05 86.27.95 3.79 4.02 6.62 7.85 7.42 26.161 5.51 21.571 45.25-6.129 44.57z" fill="#efedff"/><path d="m504.441 425.237v1.9c0 15.93-12.45 29.11-28.36 29.96-15.68.84-84.58 3.67-84.58 3.67-44.08 1.45-87.843 3.291-131.25 2.23-3.413-.083-26.82-.35-30.23-.53-42.084-2.284-40.872-67.39 1.8-67.39h22.1c31.57-6.65 67.2-12.77 106.41-17.25 41.35 4.15 78.93 10.39 112.18 17.41h1.93c16.57 0 30 13.43 30 30z" fill="#eaaa83"/><path d="m250.021 462.467c3.41.18 6.82.36 10.23.53-75.87.08-150.7-1.94-224.4-5.9-15.91-.86-28.35-14.03-28.35-29.96v-1.9c0-16.57 13.43-30 30-30 10.075 0 140.359-35.621 322.83-17.41-69.54 7.945-102.018 17.25-108.51 17.25-16.468 0-32.68 12.372-32.68 34.75 0 17.35 13.55 31.7 30.88 32.64z" fill="#e7896e"/><path d="m205.011 176.637c8.85-.22 17.73 1.54 26.2 5.3-1.68.74-3.34 1.56-4.99 2.46-17.82 9.75-39.31 10.26-57.03.33-10.11-5.66-20.969-8.362-31.799-8.092-27.67.67-32.301-39.058-6.131-44.568 3.83-.8 6.9-3.63 7.85-7.42 16.537-65.974 84.958-105.501 150.67-86.27-40.82 11.9-72.67 44.82-83.06 86.27-.95 3.79-4.02 6.62-7.85 7.42-26.17 5.51-21.54 45.24 6.14 44.57z" fill="#d9d9f9"/><path d="m472.511 395.237h-24.54c-10.4 0-18.82 8.43-18.82 18.83v52.7c0 10.4-8.43 18.83-18.83 18.83-10.39 0-18.82-8.43-18.82-18.83v-52.7c0-10.4-8.43-18.83-18.82-18.83-10.4 0-18.83 8.43-18.83 18.83 0 10.39-8.43 18.82-18.82 18.82-10.4 0-18.82-8.43-18.82-18.82 0-10.4-8.43-18.83-18.83-18.83h-48.92c-26.689-19.213-34.921-56.173-16.86-85.2 17.44-7.58 36.57-6.79 53.65 2.38 18.7 10.04 39.86 10.04 58.56 0s39.87-10.04 58.57 0c18.69 10.04 39.86 10.04 58.56 0 9.05-4.86 18.68-7.37 28.33-7.52 1.01 32.68-4.58 66.13-16.76 90.34z" fill="#efedff"/><path d="m248.461 395.237h-209.03c-12.18-24.21-17.77-57.66-16.76-90.34 9.65.15 19.28 2.66 28.33 7.52 18.7 10.04 39.87 10.04 58.56 0 18.7-10.04 39.87-10.04 58.57 0s39.86 10.04 58.56 0c1.62-.87 3.26-1.66 4.91-2.38-.298 27.842 4.348 60.325 16.86 85.2z" fill="#d9d9f9"/></g><g><path d="m511.941 199.593v-1.896c0-19.932-15.575-36.382-35.458-37.45-23.603-1.268-47.489-2.331-71.167-3.192 1.737-15.813-7.725-29.087-23.085-32.323-1.071-.226-1.885-.958-2.123-1.91-10.639-42.443-42.579-76.727-84.147-90.391-3.934-1.295-8.173.849-9.467 4.783-1.293 3.935.848 8.174 4.783 9.467 36.489 11.994 64.952 42.566 74.281 79.789 1.646 6.563 6.851 11.522 13.581 12.939 9.466 1.994 11.979 9.941 11.257 16.14-.912 7.813-6.545 13.844-15.655 13.587-12.217-.283-24.555 2.83-35.66 9.053-15.187 8.507-33.787 8.372-49.755-.366-21.197-11.6-45.512-11.6-66.709 0-15.967 8.736-34.567 8.873-49.759.364-11.103-6.22-23.45-9.336-35.647-9.051-18.699.528-21.627-26.103-4.409-29.727 6.731-1.417 11.937-6.375 13.584-12.942 6.549-26.132 21.877-48.15 42.363-63.292.24-.146.525-.286 1.168-.873 20.799-14.96 46.405-22.667 73.123-21.029 4.148.254 7.692-2.89 7.947-7.024.254-4.135-2.892-7.692-7.025-7.946-27.613-1.701-54.64 5.437-77.513 20.209-8.71-10.317-20.459-18.697-35.052-24.952-15.5-6.643-33.683-.72-42.291 13.784-3.649 6.146-6.587 12.377-8.81 18.605-12.513-4.07-26.626-5.743-41.923-4.745-18.993 1.246-34.253 16.506-35.496 35.497-2.019 30.841 6.804 57.112 24.612 74.93-4.017.204-8.041.402-12.045.617-19.875 1.069-35.444 17.517-35.444 37.447v1.898c0 17.526 12.087 32.277 28.361 36.369-7.898 19.657-12.256 43.503-13.094 67.801-.05.331-.087.667-.093 1.011-.468 28.334 2.621 57.803 13.186 84.098-16.273 4.091-28.36 18.843-28.36 36.368v1.899c0 19.93 15.569 36.378 35.444 37.446 115.598 6.209 232.841 7.528 348.612 3.924.899 13.706 12.337 24.583 26.268 24.583 14.065 0 26.323-11.262 26.323-26.561 13.254-.583 26.622-1.236 39.836-1.945 19.883-1.068 35.458-17.519 35.458-37.45v-1.896c0-17.526-12.087-32.277-28.361-36.369 9.576-23.834 13.96-53.826 13.157-83.31.059-.671.029-1.191-.063-1.8-.837-24.297-5.196-48.144-13.094-67.801 16.275-4.09 28.361-18.841 28.361-36.367zm-389.937-156.592c4.78-8.052 14.877-11.342 23.482-7.653 12.028 5.156 21.693 11.885 28.832 20.051-11.479 9.496-21.309 21.004-28.93 34.09-7.539-12.783-18.177-22.833-31.249-29.726 1.924-5.57 4.555-11.187 7.865-16.762zm-84.158 42.681c.753-11.508 9.999-20.754 21.508-21.508 34.473-2.253 65.016 10.537 77.743 42.349-2.09 5.252-3.856 10.69-5.262 16.297-.239.953-1.053 1.686-2.123 1.911-3.756.791-7.156 2.186-10.129 4.067-11.905-19.48-28.732-33.809-49.134-41.726-3.862-1.498-8.207.417-9.705 4.279-1.498 3.861.417 8.206 4.279 9.705 18.648 7.237 33.828 20.901 44.113 39.637-2.231 4.829-3.159 10.416-2.504 16.362-12.075.439-24.195.931-36.324 1.479-23.121-13.847-34.639-39.622-32.462-72.852zm-22.846 113.911v-1.898c0-11.959 9.334-21.827 21.249-22.468 25.211-1.354 50.733-2.479 75.953-3.365 5.548 7.895 14.29 12.516 25.375 12.27 9.677-.231 19.068 2.165 27.949 7.141 19.729 11.052 43.761 10.943 64.291-.292 16.621-9.094 35.686-9.094 52.307 0 20.542 11.241 44.572 11.339 64.288.294 8.884-4.979 18.283-7.388 27.959-7.143 11.179.246 19.88-4.442 25.379-12.27 25.229.886 50.743 2.011 75.928 3.364 11.923.641 21.263 10.511 21.263 22.472v1.896c0 12.406-10.094 22.5-22.5 22.5h-436.941c-12.406-.001-22.5-10.095-22.5-22.501zm369 253.911c-115.483 3.606-232.439 2.298-347.751-3.896-11.915-.641-21.249-10.509-21.249-22.468v-1.899c0-12.406 10.094-22.5 22.5-22.5h259.883c6.243 0 11.323 5.08 11.323 11.323 0 14.516 11.809 26.324 26.323 26.324 14.516 0 26.324-11.809 26.324-26.324 0-6.243 5.08-11.323 11.323-11.323 6.244 0 11.323 5.08 11.323 11.323v39.44zm37.647-39.44v52.706c0 6.243-5.08 11.323-11.323 11.323-6.244 0-11.324-5.08-11.324-11.323v-52.706c0-14.515-11.809-26.323-26.323-26.323s-26.323 11.809-26.323 26.323c0 6.244-5.08 11.324-11.324 11.324s-11.323-5.08-11.323-11.324c0-14.515-11.809-26.323-26.323-26.323h-253.216c-9.26-20.565-13.923-47.577-14-74.644 15.61 2.553 18.902 9.177 35.993 12.847 4.048.872 8.038-1.71 8.907-5.759.869-4.05-1.709-8.038-5.759-8.907-5.055-1.085-10.021-2.925-14.759-5.468-7.665-4.116-15.688-6.735-23.938-7.831 1.359-22.299 5.869-43.815 13.555-60.886h423.605c7.687 17.071 12.197 38.587 13.555 60.886-8.25 1.095-16.273 3.714-23.938 7.831-16.594 8.908-34.873 8.908-51.467 0-20.863-11.203-44.795-11.203-65.658 0-16.593 8.908-34.871 8.908-51.466 0-20.863-11.203-44.795-11.203-65.658 0-16.595 8.908-34.873 8.908-51.466 0-20.864-11.203-44.797-11.202-65.657-.001-3.348 1.797-6.831 3.253-10.353 4.326-3.962 1.208-6.194 5.398-4.986 9.361s5.398 6.198 9.361 4.986c4.46-1.359 8.858-3.195 13.072-5.458 16.594-8.908 34.873-8.908 51.467 0 20.865 11.204 44.796 11.203 65.657 0 16.594-8.908 34.873-8.908 51.467 0 20.865 11.204 44.796 11.203 65.657 0 16.594-8.908 34.873-8.908 51.467 0 20.861 11.202 44.794 11.202 65.658 0 5.57-2.991 11.361-4.959 17.287-5.928-.077 27.066-4.74 54.079-14 74.644h-19.802c-14.513 0-26.322 11.809-26.322 26.324zm75.294 11.176v1.896c0 11.961-9.34 21.831-21.263 22.472-12.946.695-26.042 1.335-39.031 1.909v-37.454c0-6.243 5.079-11.323 11.323-11.323h26.471c12.407 0 22.5 10.094 22.5 22.5z"/><path d="m186.022 109.123v12c0 4.143 3.357 7.5 7.5 7.5s7.5-3.357 7.5-7.5v-12c0-4.143-3.357-7.5-7.5-7.5s-7.5 3.358-7.5 7.5z"/><path d="m325.919 121.123v-12c0-4.143-3.357-7.5-7.5-7.5s-7.5 3.357-7.5 7.5v12c0 4.143 3.357 7.5 7.5 7.5s7.5-3.357 7.5-7.5z"/><path d="m266.78 115.839c-5.722 6.565-15.897 6.565-21.619 0-2.721-3.124-7.459-3.448-10.581-.728-3.123 2.721-3.449 7.459-.728 10.581 11.697 13.425 32.54 13.425 44.236 0 2.722-3.122 2.396-7.86-.728-10.581-3.122-2.721-7.859-2.397-10.58.728z"/></g></g><g/><g/><g/><g/><g/><g/><g/><g/><g/><g/><g/><g/><g/><g/><g/></svg>