<svg height="512" viewBox="0 0 128 128" width="512" xmlns="http://www.w3.org/2000/svg"><g><g><path d="m64.052 18.855a21.667 21.667 0 0 1 21.667 21.667v38a6.806 6.806 0 0 1 -6.806 6.806h-29.722a6.806 6.806 0 0 1 -6.806-6.806v-38a21.667 21.667 0 0 1 21.667-21.667z" fill="#fd3a69"/><path d="m57.468 85.327h13.167a0 0 0 0 1 0 0v17.234a6.583 6.583 0 0 1 -6.583 6.583 6.583 6.583 0 0 1 -6.583-6.583v-17.234a0 0 0 0 1 0 0z" fill="#fc852d"/><path d="m64.052 18.855a21.668 21.668 0 0 0 -21.668 21.667v1.14h4.594a3.609 3.609 0 0 1 3.609 3.609v5.569a4.54 4.54 0 0 0 3.993 4.6 4.386 4.386 0 0 0 4.778-4.369v-5.8a3.609 3.609 0 1 1 7.218 0v9.648a4.539 4.539 0 0 0 3.993 4.6 4.386 4.386 0 0 0 4.778-4.368v-9.88a3.609 3.609 0 0 1 3.609-3.609h6.763v-1.14a21.667 21.667 0 0 0 -21.667-21.667z" fill="#fecd1a"/></g><g fill="#212f68"><path d="m85.667 68.4a1.75 1.75 0 0 0 -1.75 1.75v8.368a5.062 5.062 0 0 1 -5.057 5.055h-29.722a5.061 5.061 0 0 1 -5.056-5.055v-35.106h2.844a1.861 1.861 0 0 1 1.859 1.86v5.568a6.3 6.3 0 0 0 5.591 6.339 6.135 6.135 0 0 0 6.68-6.112v-5.8a1.859 1.859 0 1 1 3.717 0v9.647a6.3 6.3 0 0 0 5.591 6.339c.179.015.357.023.534.023a6.133 6.133 0 0 0 6.147-6.134v-9.87a1.861 1.861 0 0 1 1.858-1.86h5.03l.036 6.531a1.751 1.751 0 0 0 1.75 1.741h.009a1.75 1.75 0 0 0 1.741-1.76l-.052-9.4a23.418 23.418 0 0 0 -46.835 0v38a8.565 8.565 0 0 0 8.556 8.555h6.528v15.484a8.333 8.333 0 1 0 16.666 0v-15.486h6.528a8.566 8.566 0 0 0 8.557-8.555v-8.368a1.75 1.75 0 0 0 -1.75-1.754zm-21.667-47.795a19.93 19.93 0 0 1 19.886 19.307h-4.986a5.364 5.364 0 0 0 -5.358 5.36v9.875a2.638 2.638 0 0 1 -2.877 2.625 2.782 2.782 0 0 1 -2.4-2.853v-9.647a5.359 5.359 0 1 0 -10.717 0v5.8a2.635 2.635 0 0 1 -2.877 2.625 2.78 2.78 0 0 1 -2.394-2.852v-5.573a5.365 5.365 0 0 0 -5.359-5.36h-2.805a19.926 19.926 0 0 1 19.887-19.307zm4.833 81.956a4.833 4.833 0 1 1 -9.666 0v-15.484h9.666z"/><path d="m85.667 57.145a1.749 1.749 0 0 0 -1.75 1.75v1.11a1.75 1.75 0 0 0 3.5 0v-1.105a1.749 1.749 0 0 0 -1.75-1.755z"/></g></g></svg>