<svg id="_x30_1_Ice" enable-background="new 0 0 48 48" height="512" viewBox="0 0 48 48" width="512" xmlns="http://www.w3.org/2000/svg"><path d="m38 27-7-7-.272.64c-.181-.905-.728-3.64-.728-3.64l-5-12-12 12-5 25h17 10 6z" fill="#9de8fc"/><path d="m28.027 27 2.701-6.36-.728-3.64-5-12-5 17v20h5l3-15z" fill="#5a99cc"/><path d="m20 30.001v-8.001l5-17 5 12 .5 2.5z" fill="#8bcbef"/><path d="m20 23.998-10.5 10.5 3.5-17.498 12-12-5 17zm18.167 3.838-.167-.836-7-7-2.973 7h-.027s-2.332 11.658-2.751 13.754z" fill="#d4f2f9"/><path d="m14.707 33.707c-.391.391-1.023.391-1.414 0s-.391-1.023 0-1.414l2-2c.391-.391 1.023-.391 1.414 0s.391 1.023 0 1.414zm2-8c.391-.391.391-1.023 0-1.414s-1.023-.391-1.414 0l-1 1c-.391.391-.391 1.023 0 1.414s1.023.391 1.414 0zm17 5c.391-.391.391-1.023 0-1.414s-1.023-.391-1.414 0l-2 2c-.391.391-.391 1.023 0 1.414s1.023.391 1.414 0zm1 5c.391-.391.391-1.023 0-1.414s-1.023-.391-1.414 0l-2 2c-.391.391-.391 1.023 0 1.414s1.023.391 1.414 0z" fill="#fff"/><path d="m3 42c0 .552.448 1 1 1h40c.552 0 1-.448 1-1s-.448-1-1-1h-2.18l-2.839-14.196c-.039-.194-.134-.371-.273-.511l-7-7c-.078-.078-.169-.135-.265-.183l-.461-2.306c-.019-.063-.038-.125-.057-.187l-5-12.001c-.128-.308-.401-.531-.729-.597-.326-.064-.665.038-.901.274l-12 12c-.139.139-.235.317-.273.511l-4.842 24.196h-3.18c-.552 0-1 .448-1 1zm36.78-1h-13.56l2.717-13.584c.004-.008.008-.017.012-.025l2.393-5.636 5.738 5.738zm-10.093-20.467s-2.417 5.693-2.497 5.881c-.063.149-.169.383-.228.678s-2.782 13.908-2.782 13.908h-3.18v-18.856l4.163-14.154 3.876 9.303zm-15.766-3.04 9.014-9.014-3.894 13.238c-.027.093-.041.187-.041.283v19h-9.78z" fill="#474747"/></svg>