<svg height="512" viewBox="0 0 48 48" width="512" xmlns="http://www.w3.org/2000/svg"><g id="Line"><g fill="#ffd267"><path d="m35 17h-22c-.565-.011-1.051.511-.997 1.074 0 0 1.863 25.146 1.863 25.146.115 1.559 1.429 2.78 2.991 2.78h14.285c1.563 0 2.876-1.221 2.991-2.778l1.863-25.147c.054-.562-.43-1.088-.996-1.075z"/><path d="m13 15h22c.553 0 1-.447 1-1-.659-15.921-23.344-15.914-24 0 0 .553.447 1 1 1z"/></g><g><path d="m30 15c-.676.01-1.186-.705-.939-1.342 0 0 4-11 4-11 .448-1.223 2.323-.551 1.879.684 0 0-4 11-4 11-.148.406-.532.658-.94.658z" fill="#997e6c"/></g><path d="m36 13h-24c-.553 0-1 .447-1 1v4c0 .553.447 1 1 1h24c.553 0 1-.447 1-1v-4c0-.553-.447-1-1-1z" fill="#b18f78"/><path d="m28.492 30.181c-.318 2.51-2.91 4.92-5.47 4.89-2.243.069-3.911-1.962-3.51-4.18.277-2.299 2.551-4.564 4.85-4.84 2.477-.445 4.571 1.648 4.13 4.13z" fill="#997e6c"/><g><path d="m28.132 27.821-6.84 6.85c-.603-.3-1.117-.809-1.42-1.41 0 0 6.85-6.86 6.85-6.86.6.314 1.111.812 1.41 1.42z" fill="#7f6654"/></g><path d="m12 13c-.553 0-1 .447-1 1v4c-.002.581.495 1.035 1.072 1 0 0 1.795 24.221 1.795 24.221.114 1.558 1.428 2.779 2.99 2.779h14.285c1.563 0 2.876-1.221 2.991-2.778l1.795-24.222c.576.035 1.074-.419 1.072-1v-4c0-.553-.447-1-1-1-.315-2.153-1.012-4.394-2.352-6.106 0 0 1.292-3.552 1.292-3.552.44-1.221-1.425-1.918-1.879-.684 0 0-.926 2.545-.926 2.545-7.329-6.836-19.209-2.015-20.135 7.797zm23 2v2h-22v-2zm-2.86 28.074c-.038.519-.477.926-.997.926h-14.286c-.521 0-.959-.407-.997-.927l-1.783-24.073h19.847zm1.809-30.074h-2.522l1.366-3.757c.619 1.138 1.022 2.408 1.156 3.757zm-9.949-9c2.924 0 5.551 1.269 7.381 3.277l-2.081 5.723h-15.249c.503-5.046 4.773-9 9.949-9z"/><path d="m23.016 35.07c3.829.149 7.292-5.368 4.519-8.07-1.558-1.56-4.414-1.242-6.363.707-2.813 2.693-2.031 7.339 1.844 7.363zm2.398-3.12c-.744.712-1.572 1.151-2.523 1.109 0 0 3.633-3.634 3.633-3.634.044.792-.345 1.76-1.11 2.525zm-2.828-2.829c.765-.744 1.695-1.181 2.519-1.105 0 0-3.629 3.63-3.629 3.63-.044-.791.345-1.76 1.11-2.525z"/></g></svg>