<svg id="Layer_1" enable-background="new 0 0 512 512" viewBox="0 0 512 512" xmlns="http://www.w3.org/2000/svg"><g clip-rule="evenodd" fill-rule="evenodd"><g><g><path d="m224.192 503h63.616v-31.92c21.063-4.199 40.648-12.486 57.9-23.998l22.582 22.582 44.983-44.984-22.581-22.581c11.514-17.25 19.797-36.839 23.997-57.9h31.92v-31.809h-381.219v31.808h31.918c4.199 21.063 12.486 40.649 23.998 57.901l-22.581 22.581 44.984 44.983 22.581-22.581c17.251 11.514 36.84 19.797 57.902 23.997z" fill="#ffda2d"/><path d="m266.194 471.099c26.31-5.244 50.316-16.866 70.347-33.185l9.167 9.167c-17.252 11.513-36.838 19.8-57.9 23.998v31.921h-21.614zm102.899-68.986c11.517-17.254 19.803-36.848 24.003-57.915h21.594c-4.2 21.061-12.483 40.65-23.997 57.9l22.581 22.581-44.983 44.985-11.291-11.291 34.66-33.694zm77.516-89.723v31.808h-21.613v-31.808z" fill="#ffc700"/><path d="m256 411.177c54.558 0 98.787-44.228 98.787-98.787h-197.574c0 54.559 44.228 98.787 98.787 98.787z" fill="#eff4f7"/><path d="m256 411.177c24.465 0 46.849-8.898 64.103-23.628-13.904 7.472-29.802 11.714-46.692 11.714-50.526 0-92.185-37.933-98.069-86.872h-18.129c0 54.558 44.228 98.786 98.787 98.786z" fill="#e2e3e3"/></g><g><path d="m359.648 9 64.576 38.585v203.584h-64.576z" fill="#8d9ca8"/><path d="m412.336 40.482 11.888 7.103v223.585h-64.576v-7.717h52.688z" fill="#7a8c98"/><path d="m65.389 50.594 85.959 46.303v193.263h-85.959z" fill="#b4d2d7"/><path d="m113.905 76.728 37.443 20.169v193.263h-37.443z" fill="#9bb9c3"/><path d="m156.881 13.113h137.406c2.203 0 4 1.797 4 4v62.959h-145.406v-62.959c0-2.203 1.797-4 4-4z" fill="#7a8c98"/><path d="m278.595 13.113h15.691c2.203 0 4 1.797 4 4v62.959h-15.691v-62.959c0-2.203-1.796-4-4-4z" fill="#596c76"/><path d="m129.58 40.897h192.007c1.697 0 3.086 1.389 3.086 3.087v246.176h-198.18v-246.177c.001-1.698 1.389-3.086 3.087-3.086z" fill="#8d9ca8"/><path d="m282.165 111.07v179.09h-117.404v-176.003c0-1.698 1.389-3.087 3.087-3.087z" fill="#7a8c98"/><path d="m321.587 40.897h-12.588c1.698 0 3.087 1.389 3.087 3.087v246.176h12.588v-246.177c0-1.698-1.389-3.086-3.087-3.086z" fill="#7a8c98"/><path d="m178.866 102.056h264.656c1.698 0 3.087 1.389 3.087 3.087v185.017h-270.83v-185.017c0-1.698 1.389-3.087 3.087-3.087z" fill="#64b5f6"/><path d="m428.768 102.056h14.755c1.698 0 3.087 1.389 3.087 3.087v185.017h-14.755v-185.017c0-1.698-1.389-3.087-3.087-3.087z" fill="#42a5f5"/><path d="m216.463 129.942h21.829c1.698 0 3.087 1.389 3.087 3.087v21.829c0 1.698-1.389 3.087-3.087 3.087h-21.829c-1.698 0-3.087-1.389-3.087-3.087v-21.829c.001-1.698 1.389-3.087 3.087-3.087zm0 50.589h21.829c1.698 0 3.087 1.389 3.087 3.087v21.829c0 1.698-1.389 3.087-3.087 3.087h-21.829c-1.698 0-3.087-1.389-3.087-3.087v-21.829c.001-1.698 1.389-3.087 3.087-3.087zm167.634 0h21.829c1.698 0 3.087 1.389 3.087 3.087v21.829c0 1.698-1.389 3.087-3.087 3.087h-21.829c-1.698 0-3.087-1.389-3.087-3.087v-21.829c0-1.698 1.389-3.087 3.087-3.087zm-55.878 0h21.829c1.698 0 3.087 1.389 3.087 3.087v21.829c0 1.698-1.389 3.087-3.087 3.087h-21.829c-1.698 0-3.087-1.389-3.087-3.087v-21.829c0-1.698 1.389-3.087 3.087-3.087zm-55.878 0h21.829c1.698 0 3.087 1.389 3.087 3.087v21.829c0 1.698-1.389 3.087-3.087 3.087h-21.829c-1.698 0-3.087-1.389-3.087-3.087v-21.829c0-1.698 1.389-3.087 3.087-3.087zm111.756-50.589h21.829c1.698 0 3.087 1.389 3.087 3.087v21.829c0 1.698-1.389 3.087-3.087 3.087h-21.829c-1.698 0-3.087-1.389-3.087-3.087v-21.829c0-1.698 1.389-3.087 3.087-3.087zm-55.878 0h21.829c1.698 0 3.087 1.389 3.087 3.087v21.829c0 1.698-1.389 3.087-3.087 3.087h-21.829c-1.698 0-3.087-1.389-3.087-3.087v-21.829c0-1.698 1.389-3.087 3.087-3.087zm-55.878 0h21.829c1.698 0 3.087 1.389 3.087 3.087v21.829c0 1.698-1.389 3.087-3.087 3.087h-21.829c-1.698 0-3.087-1.389-3.087-3.087v-21.829c0-1.698 1.389-3.087 3.087-3.087z" fill="#e6f8ff"/><path d="m216.463 129.942h21.829c1.698 0 3.087 1.389 3.087 3.087v21.829c0 1.698-1.389 3.087-3.087 3.087h-1.755v-20.433c0-1.698-1.389-3.087-3.087-3.087h-20.074v-1.396c.001-1.698 1.389-3.087 3.087-3.087zm0 50.589h21.829c1.698 0 3.087 1.389 3.087 3.087v21.829c0 1.698-1.389 3.087-3.087 3.087h-1.755v-20.432c0-1.698-1.389-3.087-3.087-3.087h-20.074v-1.396c.001-1.699 1.389-3.088 3.087-3.088zm167.634 0h21.829c1.698 0 3.087 1.389 3.087 3.087v21.829c0 1.698-1.389 3.087-3.087 3.087h-1.755v-20.432c0-1.698-1.389-3.087-3.087-3.087h-20.074v-1.396c0-1.699 1.389-3.088 3.087-3.088zm-55.878 0h21.829c1.698 0 3.087 1.389 3.087 3.087v21.829c0 1.698-1.389 3.087-3.087 3.087h-1.755v-20.432c0-1.698-1.389-3.087-3.087-3.087h-20.074v-1.396c0-1.699 1.389-3.088 3.087-3.088zm-55.878 0h21.829c1.698 0 3.087 1.389 3.087 3.087v21.829c0 1.698-1.389 3.087-3.087 3.087h-1.755v-20.432c0-1.698-1.389-3.087-3.087-3.087h-20.074v-1.396c0-1.699 1.389-3.088 3.087-3.088zm111.756-50.589h21.829c1.698 0 3.087 1.389 3.087 3.087v21.829c0 1.698-1.389 3.087-3.087 3.087h-1.755v-20.433c0-1.698-1.389-3.087-3.087-3.087h-20.074v-1.396c0-1.698 1.389-3.087 3.087-3.087zm-55.878 0h21.829c1.698 0 3.087 1.389 3.087 3.087v21.829c0 1.698-1.389 3.087-3.087 3.087h-1.755v-20.433c0-1.698-1.389-3.087-3.087-3.087h-20.074v-1.396c0-1.698 1.389-3.087 3.087-3.087zm-55.878 0h21.829c1.698 0 3.087 1.389 3.087 3.087v21.829c0 1.698-1.389 3.087-3.087 3.087h-1.755v-20.433c0-1.698-1.389-3.087-3.087-3.087h-20.074v-1.396c0-1.698 1.389-3.087 3.087-3.087z" fill="#d0f1ff"/><path d="m274.709 232.997h72.97c1.698 0 3.087 1.389 3.087 3.087v54.076h-79.143v-54.076c0-1.698 1.389-3.087 3.086-3.087z" fill="#eff4f7"/><path d="m274.709 232.997h72.97c1.698 0 3.087 1.389 3.087 3.087v1.755h-68.34c-1.698 0-3.087 1.389-3.087 3.087v49.234h-7.717v-54.076c.001-1.698 1.39-3.087 3.087-3.087z" fill="#e2e3e3"/></g></g><path d="m438.61 336.202h-23.918c-3.82 0-7.102 2.689-7.852 6.43-3.928 19.74-11.61 38.25-22.801 55.029-2.117 3.17-1.698 7.401.99 10.1l16.929 16.922-33.666 33.67-16.934-16.93c-2.688-2.69-6.918-3.11-10.087-.989-16.793 11.2-35.302 18.871-55.033 22.8-3.74.75-6.427 4.03-6.427 7.849v23.922h-47.62v-23.922c0-3.819-2.693-7.099-6.432-7.849-19.74-3.929-38.249-11.6-55.028-22.8-3.169-2.12-7.399-1.7-10.101 1l-16.92 16.92-33.67-33.67 16.92-16.922c2.702-2.699 3.122-6.93 1-10.1-11.2-16.789-18.868-35.298-22.81-55.029-.74-3.741-4.032-6.43-7.837-6.43h-23.923v-15.811h76.122c4.112 55.162 50.298 98.792 106.491 98.792 56.188 0 102.379-43.63 106.486-98.792h76.122v15.81zm-92.179-15.811h-180.858c4.06 46.33 43.069 82.791 90.429 82.791s86.36-36.46 90.429-82.791zm100.182-15.998h-381.221c-4.423 0-8.002 3.579-8.002 8v31.81c0 4.421 3.579 8 8.002 8h25.479c4.14 17.261 10.931 33.62 20.23 48.79l-18.033 18.031c-3.117 3.129-3.117 8.19 0 11.32l44.983 44.98c3.127 3.12 8.187 3.12 11.318 0l18.033-18.03c15.156 9.301 31.52 16.081 48.789 20.221v25.491c0 4.419 3.579 7.998 7.998 7.998h63.62c4.423 0 8.003-3.579 8.003-7.998v-25.491c17.26-4.139 33.619-10.92 48.789-20.221l18.028 18.03c1.5 1.5 3.542 2.34 5.664 2.34 2.117 0 4.159-.84 5.659-2.34l44.979-44.98c3.122-3.13 3.122-8.19 0-11.32l-18.028-18.031c9.299-15.16 16.081-31.52 20.216-48.79h25.493c4.419 0 7.998-3.579 7.998-8v-31.81c.001-4.421-3.578-8-7.997-8zm-113.48-115.86h11.997v11.999h-11.997zm-4.914 27.999h21.834c6.107 0 11.077-4.97 11.077-11.08v-21.83c0-6.12-4.971-11.09-11.077-11.09h-21.834c-6.107 0-11.087 4.97-11.087 11.09v21.83c.001 6.111 4.98 11.08 11.087 11.08zm60.791-27.999h12.002v11.999h-12.002zm-4.909 27.999h21.829c6.112 0 11.082-4.97 11.082-11.08v-21.83c0-6.12-4.97-11.09-11.082-11.09h-21.829c-6.121 0-11.091 4.97-11.091 11.09v21.83c-.001 6.111 4.97 11.08 11.091 11.08zm-106.85-27.999h12.011v11.999h-12.011zm-4.909 27.999h21.829c6.112 0 11.091-4.97 11.091-11.08v-21.83c0-6.12-4.98-11.09-11.091-11.09h-21.829c-6.112 0-11.091 4.97-11.091 11.09v21.83c0 6.111 4.98 11.08 11.091 11.08zm-50.963-27.999h12.001v11.999h-12.001zm-4.918 27.999h21.829c6.121 0 11.091-4.97 11.091-11.08v-21.83c0-6.12-4.971-11.09-11.091-11.09h-21.829c-6.111 0-11.082 4.97-11.082 11.09v21.83c0 6.111 4.97 11.08 11.082 11.08zm60.79-78.59h12.011v12.011h-12.011zm-4.909 28.01h21.829c6.112 0 11.091-4.981 11.091-11.089v-21.831c0-6.11-4.98-11.089-11.091-11.089h-21.829c-6.112 0-11.091 4.979-11.091 11.089v21.831c0 6.109 4.98 11.089 11.091 11.089zm-50.963-28.01h12.001v12.011h-12.001zm-4.918 28.01h21.829c6.121 0 11.091-4.981 11.091-11.089v-21.831c0-6.11-4.971-11.089-11.091-11.089h-21.829c-6.111 0-11.082 4.979-11.082 11.089v21.831c0 6.109 4.97 11.089 11.082 11.089zm172.549-28.01h12.002v12.011h-12.002zm-4.909 28.01h21.829c6.112 0 11.082-4.981 11.082-11.089v-21.831c0-6.11-4.97-11.089-11.082-11.089h-21.829c-6.121 0-11.091 4.979-11.091 11.089v21.831c-.001 6.109 4.97 11.089 11.091 11.089zm-50.968-28.01h11.997v12.011h-11.997zm-4.914 28.01h21.834c6.107 0 11.077-4.981 11.077-11.089v-21.831c0-6.11-4.971-11.089-11.077-11.089h-21.834c-6.107 0-11.087 4.979-11.087 11.089v21.831c.001 6.109 4.98 11.089 11.087 11.089zm110.391 116.21v-172.1h-254.83v172.101h79.837v-49.16c0-4.421 3.584-8.001 8.003-8.001h79.149c4.419 0 8.003 3.579 8.003 8.001v49.16h79.838zm-95.838 0h-63.153v-41.159h63.153zm-174.992-180.099c0-4.421 3.579-8 7.998-8h140.892v-45.161h-182.179v233.26h33.288v-180.099zm-94.39-38.071 45.102 24.299v193.871h-45.102zm87.491-42.88h129.41v11.79h-129.41zm206.771 1.99 48.567 29.029v41.931h-48.567zm78.961 70.961h-14.393v-46.47c0-2.82-1.471-5.431-3.89-6.871l-64.577-38.59c-2.471-1.481-5.551-1.509-8.05-.09s-4.051 4.079-4.051 6.96v85.061h-18.981v-53.161c0-4.421-3.579-8-7.998-8h-18.382v-19.788c0-4.423-3.589-8.002-8.003-8.002h-145.405c-4.423 0-8.003 3.579-8.003 8.002v19.788h-18.387c-4.414 0-8.003 3.579-8.003 8v29.21l-49.312-26.559c-2.466-1.331-5.465-1.272-7.889.178-2.419 1.441-3.9 4.051-3.9 6.86v239.571c0 4.419 3.579 8 8.002 8h381.221c4.419 0 7.998-3.581 7.998-8v-188.099c.001-4.421-3.578-8-7.997-8z"/></g></svg>