<svg id="Layer_1" viewBox="0 0 1000 1000" xmlns="http://www.w3.org/2000/svg" data-name="Layer 1"><path d="m138.89 608.22h722.22v31.48h-722.22z" fill="#ffe0b2"/><path d="m774.21 671.7h26.96v212.3h-26.96z" fill="#ffe0b2"/><path d="m198.83 671.7h26.96v212.3h-26.96z" fill="#ffe0b2"/><path d="m258.09 444.15h31.5v23.74h-31.5z" fill="#bdbdbd"/><path d="m321.59 444.15v39.74a16 16 0 0 1 -16 16h-63.5a16 16 0 0 1 -16-16v-39.74h-38.3v132.07h172.11v-132.07zm-3.46 120h-88.57a16 16 0 0 1 0-32h88.57a16 16 0 0 1 0 32z" fill="#fbc02d"/><path d="m462.21 444.15h31.5v23.74h-31.5z" fill="#bdbdbd"/><path d="m525.71 444.15v39.74a16 16 0 0 1 -16 16h-63.5a16 16 0 0 1 -16-16v-39.74h-38.31v132.07h172.1v-132.07zm-3.47 120h-88.56a16 16 0 1 1 0-32h88.56a16 16 0 0 1 0 32z" fill="#fbc02d"/><path d="m360.15 280.08h31.5v23.73h-31.5z" fill="#bdbdbd"/><path d="m423.65 280.08v39.73a16 16 0 0 1 -16 16h-63.5a16 16 0 0 1 -16-16v-39.73h-38.31v132.07h172.16v-132.07zm-3.46 120h-88.57a16 16 0 0 1 0-32h88.57a16 16 0 0 1 0 32z" fill="#fbc02d"/><path d="m462.21 116h31.5v23.74h-31.5z" fill="#bdbdbd"/><path d="m525.71 116v39.74a16 16 0 0 1 -16 16h-63.5a16 16 0 0 1 -16-16v-39.74h-38.31v132.07h172.1v-132.07zm-3.47 120h-88.56a16 16 0 0 1 0-32h88.56a16 16 0 0 1 0 32z" fill="#fbc02d"/><path d="m564.27 280.08h31.5v23.73h-31.5z" fill="#bdbdbd"/><path d="m627.77 280.08v39.73a16 16 0 0 1 -16 16h-63.5a16 16 0 0 1 -16-16v-39.73h-38.27v132.07h172.08v-132.07zm-3.47 120h-88.56a16 16 0 0 1 0-32h88.56a16 16 0 0 1 0 32z" fill="#fbc02d"/><path d="m666.33 444.15h31.5v23.74h-31.5z" fill="#bdbdbd"/><path d="m729.83 444.15v39.74a16 16 0 0 1 -16 16h-63.5a16 16 0 0 1 -16-16v-39.74h-38.33v132.07h172.14v-132.07zm-3.47 120h-88.57a16 16 0 0 1 0-32h88.57a16 16 0 0 1 0 32z" fill="#fbc02d"/><g fill="#fff" opacity=".5"><path d="m128.89 618.22h722.22v31.48h-722.22z"/><path d="m764.21 681.7h26.96v212.3h-26.96z"/><path d="m188.83 681.7h26.96v212.3h-26.96z"/><path d="m248.09 454.15h31.5v23.74h-31.5z"/><path d="m311.59 454.15v39.74a16 16 0 0 1 -16 16h-63.5a16 16 0 0 1 -16-16v-39.74h-38.3v132.07h172.11v-132.07zm-3.46 120h-88.57a16 16 0 0 1 0-32h88.57a16 16 0 0 1 0 32z"/><path d="m452.21 454.15h31.5v23.74h-31.5z"/><path d="m515.71 454.15v39.74a16 16 0 0 1 -16 16h-63.5a16 16 0 0 1 -16-16v-39.74h-38.31v132.07h172.1v-132.07zm-3.47 120h-88.56a16 16 0 1 1 0-32h88.56a16 16 0 0 1 0 32z"/><path d="m350.15 290.08h31.5v23.73h-31.5z"/><path d="m413.65 290.08v39.73a16 16 0 0 1 -16 16h-63.5a16 16 0 0 1 -16-16v-39.73h-38.31v132.07h172.16v-132.07zm-3.46 120h-88.57a16 16 0 0 1 0-32h88.57a16 16 0 0 1 0 32z"/><path d="m452.21 126h31.5v23.74h-31.5z"/><path d="m515.71 126v39.74a16 16 0 0 1 -16 16h-63.5a16 16 0 0 1 -16-16v-39.74h-38.31v132.07h172.1v-132.07zm-3.47 120h-88.56a16 16 0 0 1 0-32h88.56a16 16 0 0 1 0 32z"/><path d="m554.27 290.08h31.5v23.73h-31.5z"/><path d="m617.77 290.08v39.73a16 16 0 0 1 -16 16h-63.5a16 16 0 0 1 -16-16v-39.73h-38.27v132.07h172.08v-132.07zm-3.47 120h-88.56a16 16 0 0 1 0-32h88.56a16 16 0 0 1 0 32z"/><path d="m656.33 454.15h31.5v23.74h-31.5z"/><path d="m719.83 454.15v39.74a16 16 0 0 1 -16 16h-63.5a16 16 0 0 1 -16-16v-39.74h-38.33v132.07h172.14v-132.07zm-3.47 120h-88.57a16 16 0 0 1 0-32h88.57a16 16 0 0 1 0 32z"/></g><g fill="#413b32"><path d="m564 592.22v-16h-172.1v16a16 16 0 0 1 -16 16h204.1a16 16 0 0 1 -16-16zm-381.17 47.48a16 16 0 0 1 16 16v16h27v-16a16 16 0 0 1 16-16zm381.17-47.48v-16h-172.1v16a16 16 0 0 1 -16 16h204.1a16 16 0 0 1 -16-16zm-381.17 47.48a16 16 0 0 1 16 16v16h27v-16a16 16 0 0 1 16-16zm694.28-63.48h-754.22a16 16 0 0 0 -16 16v63.48a16 16 0 0 0 16 16h754.22a16 16 0 0 0 16-16v-63.48a16 16 0 0 0 -16-16zm-16 63.48h-722.22v-31.48h722.22zm-678.28 0a16 16 0 0 1 16 16v16h27v-16a16 16 0 0 1 16-16zm381.17-47.48v-16h-172.1v16a16 16 0 0 1 -16 16h204.1a16 16 0 0 1 -16-16zm-381.17 47.48a16 16 0 0 1 16 16v16h27v-16a16 16 0 0 1 16-16zm381.17-47.48v-16h-172.1v16a16 16 0 0 1 -16 16h204.1a16 16 0 0 1 -16-16z"/><path d="m833.17 655.7v244.3a16 16 0 0 1 -16 16h-59a16 16 0 0 1 -16-16v-244.3a16 16 0 0 1 32 0v228.3h27v-228.3a16 16 0 0 1 32 0z"/><path d="m257.79 655.7v244.3a16 16 0 0 1 -16 16h-59a16 16 0 0 1 -16-16v-244.3a16 16 0 0 1 32 0v228.3h27v-228.3a16 16 0 0 1 32 0z"/><path d="m359.9 444.15v132.07h32v-132.07zm0 0v132.07h32v-132.07zm16-32h-204.11a16 16 0 0 0 -16 16v164.07a16 16 0 0 0 16 16h204.11a16 16 0 0 0 16-16v-164.07a16 16 0 0 0 -16-16zm-16 164.07h-172.11v-132.07h172.11zm0-132.07v132.07h32v-132.07z"/><path d="m321.59 428.15v55.74a16 16 0 0 1 -16 16h-63.5a16 16 0 0 1 -16-16v-55.74a16 16 0 0 1 31.75-2.81 15.3 15.3 0 0 1 .25 2.81v39.74h31.5v-39.74a16 16 0 0 1 32 0z"/><path d="m334.13 548.14a16 16 0 0 1 -16 16h-88.57a16 16 0 0 1 0-32h88.57a16 16 0 0 1 16 16z"/><path d="m462.21 431v13.17h15.79a16 16 0 0 1 -15.79-13.17zm0 0v13.17h15.79a16 16 0 0 1 -15.79-13.17zm0 0v13.17h15.79a16 16 0 0 1 -15.79-13.17zm117.79-18.85h-204.1a16 16 0 0 0 -16 16v164.07a16 16 0 0 0 16 16h204.1a16 16 0 0 0 16-16v-164.07a16 16 0 0 0 -16-16zm-16 164.07h-172.1v-132.07h172.1zm-101.79-145.22v13.17h15.79a16 16 0 0 1 -15.79-13.17zm0 0v13.17h15.79a16 16 0 0 1 -15.79-13.17z"/><path d="m525.71 428.15v55.74a16 16 0 0 1 -16 16h-63.5a16 16 0 0 1 -16-16v-55.74a16 16 0 0 1 31.79-2.81 15.3 15.3 0 0 1 .25 2.81v39.74h31.5v-39.74a15.3 15.3 0 0 1 .25-2.81c0-.26.1-.51.16-.76a6.23 6.23 0 0 1 .15-.62c.06-.23.13-.46.2-.68a15.19 15.19 0 0 1 1.07-2.56c.07-.14.14-.27.22-.4a3.7 3.7 0 0 1 .25-.43c.08-.14.16-.28.25-.41l.3-.45q.15-.22.33-.45c.15-.21.31-.41.48-.61s.34-.41.53-.62.33-.35.5-.51.36-.36.55-.53.38-.34.58-.5.4-.33.61-.48.46-.34.71-.51l.56-.35c.2-.13.41-.25.62-.36s.53-.28.8-.41a11.58 11.58 0 0 1 1.26-.53c.33-.13.67-.24 1-.34l.53-.16.22-.05.63-.14a4.37 4.37 0 0 1 .5-.09l.55-.09c.24 0 .48-.06.72-.08s.48 0 .73-.05h.73a16 16 0 0 1 15.97 15.98z"/><path d="m538.24 548.14a16 16 0 0 1 -16 16h-88.56a16 16 0 1 1 0-32h88.56a16 16 0 0 1 16 16z"/><path d="m462 428.15v-16h-156.41a16 16 0 0 1 16 16v16h140.62v-13.15a16.46 16.46 0 0 1 -.21-2.85zm0 0v-16h-86.1a16 16 0 0 1 16 16v16h70.31v-13.15a16.46 16.46 0 0 1 -.21-2.85zm0 0v-16h-86.1a16 16 0 0 1 16 16v16h70.31v-13.15a16.46 16.46 0 0 1 -.21-2.85zm0 0v-16h-86.1a16 16 0 0 1 16 16v16h70.31v-13.15a16.46 16.46 0 0 1 -.21-2.85zm16-180.07h-204.16a16 16 0 0 0 -16 16v164.07a16.46 16.46 0 0 0 .25 2.83 16 16 0 0 0 15.75 13.17h204.16a16 16 0 0 0 15.71-13.15 16.46 16.46 0 0 0 .25-2.83v-164.09a16 16 0 0 0 -15.96-16zm-188.16 164.07v-132.07h172.16v132.07zm172.12 16v-16h-86.06a16 16 0 0 1 16 16v16h70.31v-13.15a16.46 16.46 0 0 1 -.21-2.85zm0 0v-16h-86.06a16 16 0 0 1 16 16v16h70.31v-13.15a16.46 16.46 0 0 1 -.21-2.85zm-38.31-148.08h38.35v132.08h-156.41a16 16 0 0 1 16 16v16h156.41a16 16 0 0 0 15.71-13.15 16.46 16.46 0 0 0 .25-2.83v-148.1z"/><path d="m423.65 264.07v55.74a16 16 0 0 1 -16 16h-63.5a16 16 0 0 1 -16-16v-55.74a16 16 0 0 1 15.59-16h.82a16 16 0 0 1 15.34 13.19 15.19 15.19 0 0 1 .25 2.8v39.74h31.5v-39.73a16 16 0 0 1 15.59-16h.82a16 16 0 0 1 15.59 16z"/><path d="m436.19 384.07a16 16 0 0 1 -16 16h-88.57a16 16 0 0 1 0-32h88.57a16 16 0 0 1 16 16z"/><path d="m580 84h-204.1a16 16 0 0 0 -16 16v164.07a16.57 16.57 0 0 0 .25 2.84 16 16 0 0 0 15.75 13.16h204.1a16 16 0 0 0 15.75-13.16 16.57 16.57 0 0 0 .25-2.84v-164.07a16 16 0 0 0 -16-16zm-188.1 32h172.1v132.07h-172.1z"/><path d="m525.71 100v55.74a16 16 0 0 1 -16 16h-63.5a16 16 0 0 1 -16-16v-55.74a16 16 0 0 1 32 0v39.74h31.5v-39.74a16 16 0 0 1 32 0z"/><path d="m538.24 220a16 16 0 0 1 -16 16h-88.56a16 16 0 0 1 0-32h88.56a16 16 0 0 1 16 16z"/><path d="m494 412.15v-132.07h38.31v-16a16 16 0 0 1 15.59-16h-69.9a16 16 0 0 0 -16 16v164.07a16.46 16.46 0 0 0 .25 2.83 16 16 0 0 0 15.75 13.17h86v-16a16 16 0 0 1 16-16zm-32-132.08v148.08a16.46 16.46 0 0 0 .25 2.83 16 16 0 0 0 31.5 0v-2.83a15.3 15.3 0 0 1 .25-2.81c0-.26.1-.51.16-.76a6.23 6.23 0 0 1 .15-.62c.06-.23.12-.46.2-.68a15.19 15.19 0 0 1 1.07-2.56c.07-.14.14-.27.22-.4a3.7 3.7 0 0 1 .25-.43c.08-.14.16-.28.25-.41l.3-.45q.15-.22.33-.45c.15-.21.31-.41.48-.61s.34-.41.53-.62.33-.35.5-.51.36-.36.55-.53.38-.34.58-.5.4-.33.61-.48.46-.34.71-.51l.56-.35c.2-.13.41-.25.62-.36s.53-.28.8-.41a11.58 11.58 0 0 1 1.26-.53c.33-.13.67-.24 1-.34l.53-.16.22-.05.63-.14a4.37 4.37 0 0 1 .5-.09l.55-.09c.24 0 .48-.06.72-.08s.48 0 .73-.05h.73-15.74v-132.09h-32zm0 0v148.08a16.46 16.46 0 0 0 .25 2.83 16 16 0 0 0 31.5 0v-2.83a15.3 15.3 0 0 1 .25-2.81c0-.26.1-.51.16-.76a6.23 6.23 0 0 1 .15-.62c.06-.23.12-.46.2-.68a15.19 15.19 0 0 1 1.07-2.56c.07-.14.14-.27.22-.4a3.7 3.7 0 0 1 .25-.43c.08-.14.16-.28.25-.41l.3-.45q.15-.22.33-.45c.15-.21.31-.41.48-.61s.34-.41.53-.62.33-.35.5-.51.36-.36.55-.53.38-.34.58-.5.4-.33.61-.48.46-.34.71-.51l.56-.35c.2-.13.41-.25.62-.36s.53-.28.8-.41a11.58 11.58 0 0 1 1.26-.53c.33-.13.67-.24 1-.34l.53-.16.22-.05.63-.14a4.37 4.37 0 0 1 .5-.09l.55-.09c.24 0 .48-.06.72-.08s.48 0 .73-.05h.73-15.74v-132.09h-32zm0 0v148.08a16.46 16.46 0 0 0 .25 2.83 16 16 0 0 0 31.5 0v-2.83a15.3 15.3 0 0 1 .25-2.81c0-.26.1-.51.16-.76a6.23 6.23 0 0 1 .15-.62c.06-.23.12-.46.2-.68a15.19 15.19 0 0 1 1.07-2.56c.07-.14.14-.27.22-.4a3.7 3.7 0 0 1 .25-.43c.08-.14.16-.28.25-.41l.3-.45q.15-.22.33-.45c.15-.21.31-.41.48-.61s.34-.41.53-.62.33-.35.5-.51.36-.36.55-.53.38-.34.58-.5.4-.33.61-.48.46-.34.71-.51l.56-.35c.2-.13.41-.25.62-.36s.53-.28.8-.41a11.58 11.58 0 0 1 1.26-.53c.33-.13.67-.24 1-.34l.53-.16.22-.05.63-.14a4.37 4.37 0 0 1 .5-.09l.55-.09c.24 0 .48-.06.72-.08s.48 0 .73-.05h.73-15.74v-132.09h-32zm220.12-32h-204.12a16 16 0 0 0 -16 16v164.08a16.46 16.46 0 0 0 .25 2.83 16 16 0 0 0 15.75 13.17h204.08a16 16 0 0 0 15.75-13.15 16.46 16.46 0 0 0 .25-2.83v-164.09a16 16 0 0 0 -16-16zm-188.12 164.08v-132.07h172.08v132.07zm-32-132.08v148.08a16.46 16.46 0 0 0 .25 2.83 16 16 0 0 0 31.5 0v-2.83a15.3 15.3 0 0 1 .25-2.81c0-.26.1-.51.16-.76a6.23 6.23 0 0 1 .15-.62c.06-.23.12-.46.2-.68a15.19 15.19 0 0 1 1.07-2.56c.07-.14.14-.27.22-.4a3.7 3.7 0 0 1 .25-.43c.08-.14.16-.28.25-.41l.3-.45q.15-.22.33-.45c.15-.21.31-.41.48-.61s.34-.41.53-.62.33-.35.5-.51.36-.36.55-.53.38-.34.58-.5.4-.33.61-.48.46-.34.71-.51l.56-.35c.2-.13.41-.25.62-.36s.53-.28.8-.41a11.58 11.58 0 0 1 1.26-.53c.33-.13.67-.24 1-.34l.53-.16.22-.05.63-.14a4.37 4.37 0 0 1 .5-.09l.55-.09c.24 0 .48-.06.72-.08s.48 0 .73-.05h.73-15.74v-132.09h-32zm0 0v148.08a16.46 16.46 0 0 0 .25 2.83 16 16 0 0 0 31.5 0v-2.83a15.3 15.3 0 0 1 .25-2.81c0-.26.1-.51.16-.76a6.23 6.23 0 0 1 .15-.62c.06-.23.12-.46.2-.68a15.19 15.19 0 0 1 1.07-2.56c.07-.14.14-.27.22-.4a3.7 3.7 0 0 1 .25-.43c.08-.14.16-.28.25-.41l.3-.45q.15-.22.33-.45c.15-.21.31-.41.48-.61s.34-.41.53-.62.33-.35.5-.51.36-.36.55-.53.38-.34.58-.5.4-.33.61-.48.46-.34.71-.51l.56-.35c.2-.13.41-.25.62-.36s.53-.28.8-.41a11.58 11.58 0 0 1 1.26-.53c.33-.13.67-.24 1-.34l.53-.16.22-.05.63-.14a4.37 4.37 0 0 1 .5-.09l.55-.09c.24 0 .48-.06.72-.08s.48 0 .73-.05h.73-15.74v-132.09h-32zm32 132.08v13.19c0-.26.1-.51.16-.76a6.23 6.23 0 0 1 .15-.62c.06-.23.13-.46.2-.68a15.19 15.19 0 0 1 1.07-2.56c.07-.14.14-.27.22-.4a3.7 3.7 0 0 1 .25-.43c.08-.14.16-.28.25-.41l.3-.45q.15-.22.33-.45c.15-.21.31-.41.48-.61s.34-.41.53-.62.33-.35.5-.51.36-.36.55-.53.38-.34.58-.5.4-.33.61-.48.46-.34.71-.51l.56-.35c.2-.13.41-.25.62-.36s.53-.28.8-.41a11.58 11.58 0 0 1 1.26-.53c.33-.13.67-.24 1-.34l.53-.16.22-.05.63-.14a4.37 4.37 0 0 1 .5-.09l.55-.09c.24 0 .48-.06.72-.08s.48 0 .73-.05h.73z"/><path d="m627.77 264.07v55.74a16 16 0 0 1 -16 16h-63.5a16 16 0 0 1 -16-16v-55.74a16 16 0 0 1 15.59-16h.82a16 16 0 0 1 15.59 16v39.74h31.5v-39.74a15.19 15.19 0 0 1 .25-2.8 16 16 0 0 1 15.34-13.19h.82a16 16 0 0 1 15.59 15.99z"/><path d="m640.3 384.07a16 16 0 0 1 -16 16h-88.56a16 16 0 0 1 0-32h88.56a16 16 0 0 1 16 16z"/><path d="m580 412.15a16 16 0 0 1 16 16v16h38.31v-16a16 16 0 0 1 16-16zm0 0a16 16 0 0 1 16 16v16h38.31v-16a16 16 0 0 1 16-16zm204.12 0h-204.12a16 16 0 0 0 -16 16v164.07a16 16 0 0 0 16 16h204.14a16 16 0 0 0 16-16v-164.07a16 16 0 0 0 -16-16zm-188.12 164.07v-132.07h172.14v132.07zm-16-164.07a16 16 0 0 1 16 16v16h38.31v-16a16 16 0 0 1 16-16z"/><path d="m729.83 428.15v55.74a16 16 0 0 1 -16 16h-63.5a16 16 0 0 1 -16-16v-55.74a16 16 0 0 1 32 0v39.74h31.5v-39.74a15.3 15.3 0 0 1 .25-2.81 16 16 0 0 1 31.75 2.81z"/><path d="m742.36 548.14a16 16 0 0 1 -16 16h-88.57a16 16 0 0 1 0-32h88.57a16 16 0 0 1 16 16z"/></g></svg>