<svg id="Capa_1" enable-background="new 0 0 512 512" height="512" viewBox="0 0 512 512" width="512" xmlns="http://www.w3.org/2000/svg"><g><g><path d="m433.306 235.258-180.169 137.743-182.635-138.583 65.891-44.235h231.921z" fill="#f7c4db"/><path d="m433.306 235.258-180.169 137.743-182.635-138.583 65.891-44.235h231.921z" fill="#e893db"/><path d="m115.813 60.619h272.181v393.396h-272.181z" fill="#8bb6ef"/><path d="m253.137 313.388-137.324-104.201v244.828h272.182v-243.729z" fill="#8388ef"/><path d="m423.257 501.93h-342.706c-11.563 0-20.937-9.374-20.937-20.937v-246.575l193.523 138.583 191.057-138.583v246.574c0 11.564-9.374 20.938-20.937 20.938z" fill="#f7c4db"/><path d="m390.826 273.129v173.647c0 9.959-8.073 18.032-18.032 18.032h-295.149c-9.959 0-18.032-8.073-18.032-18.032v34.217c0 11.563 9.374 20.937 20.937 20.937h342.706c11.563 0 20.937-9.374 20.937-20.937v-246.575z" fill="#e893db"/><path d="m270.692 236.901-14.415 13.023c-3.453 3.12-1.89 8.842 2.67 9.772l22.579 4.605c4.56.93 8.24-3.722 6.284-7.945l-8.163-17.629c-1.608-3.47-6.117-4.39-8.955-1.826z" fill="#ffe266"/><path d="m350.946 170.283c-6.184 30.317-42.174 72.074-74.709 65.437-32.536-6.637-49.296-59.153-43.113-89.47 6.184-30.317 37.572-49.514 70.108-42.878 32.535 6.637 53.898 36.594 47.714 66.911z" fill="#ffe266"/><g fill="#78eac4"><path d="m221.558 255.289-5.272 16.054c-1.263 3.846 2.385 7.493 6.231 6.229l19.04-6.259c3.846-1.264 4.618-6.365 1.32-8.711l-13.768-9.795c-2.71-1.928-6.513-.678-7.551 2.482z"/><path d="m253.447 170.36c8.404 25.567-.773 72.628-28.21 81.646-27.437 9.019-62.745-23.42-71.149-48.987s7.026-53.603 34.463-62.622c27.438-9.018 56.492 4.397 64.896 29.963z"/></g></g><g><path d="m101.084 382.341c-.084 0-.167-.001-.251-.003-5.56-.136-9.957-4.753-9.822-10.313.17-6.931.205-14.135.106-21.41-.076-5.561 4.371-10.131 9.932-10.206.047-.001.094-.001.14-.001 5.498 0 9.992 4.419 10.066 9.933.102 7.53.065 14.991-.11 22.176-.133 5.476-4.614 9.824-10.061 9.824z" fill="#fff"/><path d="m101.079 327.281c-5.562 0-10.07-4.509-10.07-10.07v-8.04c0-5.562 4.508-10.07 10.07-10.07s10.07 4.509 10.07 10.07v8.04c0 5.562-4.508 10.07-10.07 10.07z" fill="#fff"/><path d="m454.256 234.294c-.009-3.438-1.948-6.77-4.901-8.523l-51.29-31.206v-133.947c0-5.562-4.509-10.07-10.07-10.07h-272.182c-5.562 0-10.07 4.509-10.07 10.07v133.946l-51.343 31.238c-2.968 1.783-4.874 5.153-4.857 8.616v246.574c0 17.097 13.91 31.008 31.008 31.008h342.706c17.098 0 31.008-13.91 31.008-31.008v-246.574c-.001-.042-.009-.082-.009-.124zm-146.546 111.563 126.414-91.694v208.021zm118.319-110.703-27.964 20.283v-37.297zm-48.104-164.465v199.357l-115.713 83.932 14.264-84.541 3.841.784c.792.161 1.584.24 2.37.24 3.536 0 6.906-1.599 9.163-4.453 2.758-3.487 3.31-8.159 1.442-12.192l-5.374-11.606c13.154-1.371 26.891-8.55 39.759-21.01 14.643-14.18 25.828-33.227 29.19-49.709 3.33-16.324-.342-33.033-10.338-47.051-9.903-13.887-24.85-23.471-42.089-26.987-32.618-6.654-64.289 10.539-74.792 39.061-12.888-5.655-28.164-6.727-42.983-1.856-14.727 4.841-26.83 14.761-34.079 27.932-7.327 13.313-8.832 28.341-4.238 42.316 4.616 14.042 16.305 29.513 30.506 40.376 11.803 9.027 23.818 13.874 34.942 14.278l-3.25 9.898c-1.3 3.957-.278 8.245 2.668 11.19 2.1 2.099 4.881 3.221 7.739 3.221 1.151 0 2.315-.182 3.451-.555l2.648-.87 18.331 72.62-119.499-85.574v-198.801zm-117.059 183.232 13.506-12.202 7.649 16.518zm16.657-24.109c-.228-.061-.451-.134-.686-.181-.092-.019-.184-.023-.276-.04-6.715-1.592-12.678-5.532-17.788-10.997 4.895-17.246 4.911-36.437.413-50.121-3.515-10.694-10.243-19.506-18.878-25.837 6.599-20.724 27.059-34.527 50.051-34.527 3.834 0 7.742.384 11.664 1.184 14.233 2.903 26.544 10.774 34.665 22.163 8.028 11.258 10.989 24.618 8.337 37.62-2.857 14.007-12.967 31.059-25.756 43.443-13.963 13.522-29.176 19.818-41.746 17.293zm-29.816-57.565c7.549 22.966-.516 66.124-24.307 74-.193.052-.389.09-.581.153-.042.014-.081.034-.124.049-10.278 3.044-23.526-.843-36.5-10.766-12.181-9.317-22.531-22.879-26.367-34.55-3.535-10.755-2.347-22.374 3.345-32.717 5.769-10.483 15.453-18.395 27.265-22.278 5.155-1.694 10.375-2.498 15.472-2.498 18.857-.001 36.011 11.004 41.797 28.607zm-20.877 86.354 10.762 7.656-14.883 4.892zm19.55-.922-8.163-5.807c6.785-5.149 12.105-12.497 16.013-20.922 2.488 2.181 5.087 4.067 7.786 5.647l-9.79 8.845c-3.298 2.98-4.62 7.495-3.448 11.783s4.605 7.503 8.961 8.392l6.89 1.405-11.621 68.875-14.448-57.237 4.885-1.606c3.957-1.301 6.802-4.667 7.426-8.785s-1.097-8.176-4.491-10.59zm-176.696-3.663 125.872 90.138-125.872 116.892zm36.059 1.049-27.878-19.964 27.878-16.962zm317.514 236.794h-342.706c-3.814 0-7.169-1.979-9.109-4.96l140.825-130.779 35.006 25.068c1.753 1.255 3.808 1.883 5.863 1.883 2.075 0 4.15-.64 5.912-1.919l32.029-23.232 140.842 129.605c-1.985 2.627-5.124 4.334-8.662 4.334z" fill="#440a29"/></g><g><path d="m476.636 2.464 8.272 23.26c.354.996 1.055 1.785 1.94 2.184l20.666 9.311c2.92 1.315 2.92 5.967 0 7.283l-20.666 9.311c-.885.399-1.586 1.188-1.94 2.184l-8.272 23.26c-1.169 3.286-5.302 3.286-6.47 0l-8.272-23.26c-.354-.996-1.055-1.785-1.94-2.184l-20.666-9.311c-2.92-1.315-2.92-5.967 0-7.283l20.666-9.311c.885-.399 1.586-1.188 1.94-2.184l8.272-23.26c1.168-3.286 5.301-3.286 6.47 0z" fill="#b2e7f1"/><path d="m31.625 95.955 6.136 17.254c.263.739.783 1.324 1.439 1.62l15.33 6.906c2.166.976 2.166 4.426 0 5.402l-15.33 6.906c-.656.296-1.176.881-1.439 1.62l-6.136 17.254c-.867 2.438-3.933 2.438-4.799 0l-6.136-17.254c-.263-.739-.783-1.324-1.439-1.62l-15.329-6.906c-2.165-.976-2.165-4.426 0-5.402l15.329-6.906c.656-.296 1.176-.881 1.439-1.62l6.136-17.254c.866-2.437 3.932-2.437 4.799 0z" fill="#b2e7f1"/><path d="m451.986 132.228c0 4.303-3.488 7.792-7.792 7.792-4.303 0-7.792-3.489-7.792-7.792s3.488-7.792 7.792-7.792c4.303.001 7.792 3.489 7.792 7.792z" fill="#8bb6ef"/></g></g></svg>