<svg enable-background="new 0 0 32 32" viewBox="0 0 32 32" xmlns="http://www.w3.org/2000/svg"><g id="Grid" display="none"/><g id="bow_tie"/><g id="balloon_1_"/><g id="placeholder"/><g id="mic"/><g id="speaker"/><g id="champagne"/><g id="gift"/><g id="theater"/><g id="_camera"/><g id="video_camera"/><g id="party_hat"/><g id="champagne_glass"/><g id="man"/><g id="woman"/><g id="skewer"/><g id="ticket"/><g id="cake"/><g id="lights"/><g id="photo"/><g id="invitation"><path d="m2 14.647v11.451c0 1.657 1.343 3 3 3h22c1.657 0 3-1.343 3-3v-11.451c0-.75-.794-1.233-1.46-.888l-12.08 6.256c-.288.149-.631.149-.92 0l-12.08-6.256c-.666-.345-1.46.138-1.46.888z" fill="#83dcff"/><path d="m30 14.65v11.45c0 1.65-1.34 3-3 3h-3.84c1.087-1.759 2.79-5.105 2.882-9.515.034-1.652-.165-3.107-.432-4.305l2.93-1.52c.67-.35 1.46.14 1.46.89z" fill="#7acfea"/><path d="m28.14 4.667v9.293l-11.68 6.05c-.288.149-.632.149-.92 0l-11.68-6.05v-9.293c0-.976.791-1.767 1.767-1.767h20.747c.975 0 1.766.791 1.766 1.767z" fill="#efefef"/><path d="m28.14 11.94v2.02l-11.68 6.05c-.29.15-.63.15-.92 0l-11.68-6.05v-2.02c.16.04.31.11.45.18l11.69 6.05 11.69-6.05c.14-.07.29-.14.45-.18z" fill="#ddd"/><path d="m16.504 5.555 1.24 2.512 2.772.403c.461.067.645.633.311.959l-2.006 1.955.474 2.761c.079.459-.403.809-.815.592l-2.48-1.303-2.48 1.304c-.412.217-.894-.133-.815-.592l.474-2.761-2.006-1.955c-.334-.325-.149-.892.311-.959l2.772-.403 1.24-2.512c.206-.419.802-.419 1.008-.001z" fill="#ffd731"/><path d="m29.741 13.43c-.362-.221-.785-.258-1.177-.129v-8.634c0-1.208-.983-2.191-2.191-2.191h-20.746c-1.208 0-2.191.983-2.191 2.191v8.634c-.392-.129-.816-.092-1.177.129-.428.261-.684.716-.684 1.217v11.451c0 1.889 1.536 3.425 3.425 3.425h22c1.889 0 3.425-1.536 3.425-3.425v-11.452c0-.5-.256-.956-.684-1.216zm-24.114-10.105h20.746c.74 0 1.342.602 1.342 1.342v9.041l-11.45 5.93c-.166.086-.363.086-.529 0l-11.45-5.93v-9.041c-.001-.74.601-1.342 1.341-1.342zm23.948 22.773c0 1.42-1.155 2.575-2.575 2.575h-22c-1.42 0-2.575-1.155-2.575-2.575v-11.452c0-.205.101-.384.276-.491.094-.057.195-.085.298-.085.09 0 .181.021.266.065l8.641 4.475-6.004 5.213c-.178.154-.196.423-.043.6.084.097.202.146.321.146.099 0 .198-.034.278-.104l6.26-5.435 2.627 1.36c.41.213.9.213 1.311 0l2.626-1.36 6.26 5.434c.08.069.18.104.278.104.119 0 .237-.05.321-.146.153-.177.135-.445-.043-.6l-6.004-5.212 8.642-4.475c.181-.095.387-.087.563.02s.276.286.276.491z"/><path d="m11.906 5.175h.219c.234 0 .425-.19.425-.425s-.19-.425-.425-.425h-.219c-.234 0-.425.19-.425.425s.191.425.425.425z" fill="#fff"/><path d="m6.156 5.175h3.719c.234 0 .425-.19.425-.425s-.19-.425-.425-.425h-3.719c-.234 0-.425.19-.425.425s.191.425.425.425z" fill="#fff"/><path d="m12.722 11.533-.436 2.54c-.064.373.086.743.393.966.173.126.376.189.579.189.157 0 .314-.037.461-.114l2.281-1.199 2.281 1.199c.336.178.734.148 1.04-.075.307-.223.457-.593.393-.966l-.436-2.54 1.847-1.801c.271-.265.366-.652.249-1.012s-.423-.617-.796-.671l-2.552-.371-1.142-2.311c-.334-.68-1.436-.679-1.77-.001l-1.142 2.312-2.549.372c-.374.054-.68.311-.797.671-.117.359-.021.747.249 1.013zm-1.287-2.55c.01-.029.037-.082.11-.092l2.772-.403c.138-.021.258-.107.319-.232l1.24-2.513c.034-.066.092-.076.124-.076s.09.01.123.076v.001l1.24 2.512c.062.125.182.212.319.232l2.773.403c.072.01.1.063.109.092.011.03.019.089-.034.141l-2.007 1.956c-.1.098-.146.238-.122.377l.474 2.761c.013.072-.028.115-.055.134-.026.018-.08.043-.144.011l-2.479-1.304c-.125-.066-.271-.066-.396 0l-2.479 1.304c-.062.033-.117.008-.144-.011s-.067-.062-.055-.134l.474-2.761c.023-.139-.022-.279-.122-.377l-2.007-1.955c-.052-.053-.044-.111-.033-.142z"/></g></svg>