<svg height="512" viewBox="0 0 64 64" width="512" xmlns="http://www.w3.org/2000/svg"><g id="Invoice"><path d="m38.59 59-3.29 4-3.291-4-3.279 4-3.279-4-3.291 4-3.29-4-3.28 4-3.3-4-3.286 3.996-.004-61.996h35l11 11v51l-3.28-4-3.28 4-3.291-4-3.279 4z" fill="#ebeeff"/><path d="m44 12v-11l11 11z" fill="#d7dfff"/><g fill="#352d34"><path d="m31.647 13.935a2.94 2.94 0 0 1 1.886 1.63 1.276 1.276 0 0 1 -.366 1.171c-.933 1.11-2.848-.338-2.867-.354a1 1 0 0 0 -1.225 1.581 6.154 6.154 0 0 0 1.925.99v1.047a1 1 0 0 0 2 0v-.927a3.037 3.037 0 0 0 1.7-1.048 3.26 3.26 0 0 0 .771-2.964 4.782 4.782 0 0 0 -3.115-3 2.94 2.94 0 0 1 -1.886-1.63 1.276 1.276 0 0 1 .366-1.171c.935-1.108 2.848.339 2.865.352a1 1 0 1 0 1.227-1.579 6.154 6.154 0 0 0 -1.928-.988v-1.045a1 1 0 0 0 -2 0v.924a3.041 3.041 0 0 0 -1.7 1.05 3.261 3.261 0 0 0 -.771 2.964 4.782 4.782 0 0 0 3.118 2.997z"/><path d="m14 26h3a1 1 0 0 0 0-2h-3a1 1 0 0 0 0 2z"/><path d="m14 31h22a1 1 0 0 0 0-2h-22a1 1 0 0 0 0 2z"/><path d="m50 24h-29a1 1 0 0 0 0 2h29a1 1 0 0 0 0-2z"/><path d="m14 36h3a1 1 0 0 0 0-2h-3a1 1 0 0 0 0 2z"/><path d="m14 41h22a1 1 0 0 0 0-2h-22a1 1 0 0 0 0 2z"/><path d="m50 34h-29a1 1 0 0 0 0 2h29a1 1 0 0 0 0-2z"/><path d="m50 54h-8a1 1 0 0 0 0 2h8a1 1 0 0 0 0-2z"/><path d="m55.707 11.293-11-11a1.113 1.113 0 0 0 -.707-.293h-35a1 1 0 0 0 -1 1v62a1 1 0 0 0 1.772.635l2.519-3.063 2.527 3.064a1 1 0 0 0 .772.364 1 1 0 0 0 .772-.366l2.508-3.059 2.517 3.06a1.034 1.034 0 0 0 1.545 0l2.516-3.06 2.508 3.059a1.034 1.034 0 0 0 1.546 0l2.508-3.059 2.516 3.06a1.034 1.034 0 0 0 1.545 0l2.517-3.06 2.512 3.059a1.036 1.036 0 0 0 1.547 0l2.507-3.059 2.516 3.06a1 1 0 0 0 .77.365 1 1 0 0 0 .772-.366l2.507-3.057 2.507 3.057a1 1 0 0 0 .774.366.985.985 0 0 0 .337-.059 1 1 0 0 0 .663-.941v-51a1.088 1.088 0 0 0 -.293-.707zm-3.121-.293h-7.586v-7.586zm-.093 47.365a1.034 1.034 0 0 0 -1.547 0l-2.507 3.059-2.517-3.06a1 1 0 0 0 -.772-.364 1 1 0 0 0 -.773.365l-2.507 3.057-2.507-3.057a1 1 0 0 0 -.773-.365 1 1 0 0 0 -.773.364l-2.517 3.061-2.518-3.061a1 1 0 0 0 -.772-.364 1 1 0 0 0 -.773.365l-2.507 3.057-2.506-3.057a1 1 0 0 0 -.773-.365 1 1 0 0 0 -.772.364l-2.519 3.061-2.517-3.061a1 1 0 0 0 -.773-.364 1 1 0 0 0 -.773.365l-2.51 3.06-2.525-3.062a1 1 0 0 0 -.772-.363 1 1 0 0 0 -.772.364l-1.518 1.846v-58.21h33v10a1 1 0 0 0 1 1h10v47.2z"/><path d="m14 46h3a1 1 0 0 0 0-2h-3a1 1 0 0 0 0 2z"/><path d="m36 49h-22a1 1 0 0 0 0 2h22a1 1 0 0 0 0-2z"/><path d="m50 44h-29a1 1 0 0 0 0 2h29a1 1 0 0 0 0-2z"/></g></g></svg>