<svg id="Layer_1" viewBox="0 0 1000 1000" xmlns="http://www.w3.org/2000/svg" data-name="Layer 1"><path d="m876.11 732.92h-625.02l13.41-32.58h598.21z" fill="#616161"/><path d="m645.56 340.06v55.43q-31.41-18.06-66-33.57v-21.86a13.16 13.16 0 0 1 13.15-13.14h39.67a13.16 13.16 0 0 1 13.18 13.14z" fill="#f57f17"/><path d="m810 586.58c-34 7.15-64.73-13.35-85.69-33.61a162.84 162.84 0 0 1 -23.65-29.35c-16.79-26.24-41.38-51.6-73.1-75.37a304.27 304.27 0 0 0 -44.56-27.68 312.61 312.61 0 0 0 -115.15-32.66l-25.32-2.09a310.78 310.78 0 0 0 -42.19-.58l-38.34 2.1c-51.33 2.8-78 24.73-87.06 34a31.45 31.45 0 0 0 -8.21 15.36c-11.19 52.5-50.22 141.45-69.67 184a153.16 153.16 0 0 0 -41.22-12.33c49-76.85 69-180.82 75.62-225.25a29.77 29.77 0 0 1 11.67-19.64c12.4-9.22 28.57-16.36 48.27-21.31a8.6 8.6 0 0 0 1-.25l.27-.07a250.76 250.76 0 0 1 26-4.84c38.29-5.17 77.39-2.53 116.23 7.85a881.45 881.45 0 0 1 121.1 41.54 15.82 15.82 0 0 0 2.57 1.11h.05a694.3 694.3 0 0 1 92.74 48.58 15.72 15.72 0 0 0 3.52 2.22c75.18 47.91 123.82 101.45 155.12 148.27z" fill="#fdd835"/><path d="m252.16 321.71a142 142 0 0 0 -28.16 16.1 61.55 61.55 0 0 0 -24.21 40.56c-.49 3.24-1.11 7.18-1.87 11.72l-26.92-18.09 48.68-72.16z" fill="#546e7a"/><path d="m185.22 293.65-32.83 48.67-30.18-20.36 32.82-48.67z" fill="#546e7a"/><path d="m827.4 615c-41 13.54-85 0-125.37-39a194.66 194.66 0 0 1 -28.37-35.12c-14.71-23-36.69-45.54-65.33-67a272.74 272.74 0 0 0 -39.8-24.76 280.33 280.33 0 0 0 -103.26-29.32c-2-.15-7.69-.61-25.33-2.07a280.74 280.74 0 0 0 -37.83-.52l-38.43 2.1c-39.82 2.18-59.17 17.61-65.75 24.3-12.11 56.61-53.6 150.68-73.05 193.05a219.87 219.87 0 0 1 36 31.7h591a352 352 0 0 0 -24.48-53.36zm-311.83-22.36h-122.35a64 64 0 1 1 0-128.06h122.35a64 64 0 0 1 0 128.06z" fill="#f9a825"/><g fill="#fff" opacity=".5"><path d="m866.11 742.92h-625.02l13.41-32.58h598.21z"/><path d="m635.56 350.06v55.43q-31.41-18.06-66-33.57v-21.86a13.16 13.16 0 0 1 13.15-13.14h39.67a13.16 13.16 0 0 1 13.18 13.14z"/><path d="m800 596.58c-34 7.15-64.73-13.35-85.69-33.61a162.84 162.84 0 0 1 -23.65-29.35c-16.79-26.24-41.38-51.6-73.1-75.37a304.27 304.27 0 0 0 -44.56-27.68 312.61 312.61 0 0 0 -115.15-32.66l-25.32-2.09a310.78 310.78 0 0 0 -42.19-.58l-38.34 2.1c-51.33 2.8-78 24.73-87.06 34a31.45 31.45 0 0 0 -8.21 15.36c-11.19 52.5-50.22 141.45-69.67 184a153.16 153.16 0 0 0 -41.22-12.33c49-76.85 69-180.82 75.62-225.25a29.77 29.77 0 0 1 11.67-19.64c12.4-9.22 28.57-16.36 48.27-21.31a8.6 8.6 0 0 0 1-.25l.27-.07a250.76 250.76 0 0 1 26-4.84c38.29-5.17 77.39-2.53 116.23 7.85a881.45 881.45 0 0 1 121.1 41.54 15.82 15.82 0 0 0 2.57 1.11h.05a694.3 694.3 0 0 1 92.74 48.58 15.72 15.72 0 0 0 3.52 2.22c75.18 47.91 123.82 101.45 155.12 148.27z"/><path d="m242.16 331.71a142 142 0 0 0 -28.16 16.1 61.55 61.55 0 0 0 -24.21 40.56c-.49 3.24-1.11 7.18-1.87 11.72l-26.92-18.09 48.68-72.16z"/><path d="m175.22 303.65-32.83 48.67-30.18-20.36 32.82-48.67z"/><path d="m817.4 625c-41 13.54-85 0-125.37-39a194.66 194.66 0 0 1 -28.37-35.12c-14.71-23-36.69-45.54-65.33-67a272.74 272.74 0 0 0 -39.8-24.76 280.33 280.33 0 0 0 -103.26-29.32c-2-.15-7.69-.61-25.33-2.07a280.74 280.74 0 0 0 -37.83-.52l-38.43 2.1c-39.82 2.18-59.17 17.61-65.75 24.3-12.11 56.61-53.6 150.68-73.05 193.05a219.87 219.87 0 0 1 36 31.7h591a352 352 0 0 0 -24.48-53.36zm-311.83-22.36h-122.35a64 64 0 1 1 0-128.06h122.35a64 64 0 1 1 0 128.06z"/></g><g fill="#413b32"><path d="m914.8 742.83-26.06-63.31-.51-1.25a16 16 0 0 0 -14.79-9.91h-619.66a16 16 0 0 0 -14.8 9.91l-3.86 9.38-22.71 55.2a16 16 0 0 0 14.8 22.09h672.79a16 16 0 0 0 14.8-22.09zm-663.71-9.91 13.41-32.58h598.21l13.4 32.58z"/><path d="m876.69 700a16 16 0 0 1 -18.92-12.4 177 177 0 0 0 -5.86-19.27 352 352 0 0 0 -24.51-53.33c-2.07-3.69-4.26-7.48-6.6-11.36l-.26-.42q-4.92-8.15-10.58-16.64c-31.26-46.82-79.9-100.36-155.08-148.23-1.17-.75-2.34-1.49-3.52-2.22a694.3 694.3 0 0 0 -92.74-48.58h-.05c-.85-.37-1.71-.75-2.57-1.11a881.45 881.45 0 0 0 -121.09-41.55c-38.84-10.38-77.94-13-116.23-7.85a250.76 250.76 0 0 0 -26 4.84l-.27.07-1 .25s0 0 0 0c-19.7 4.95-35.87 12.09-48.27 21.31a29.77 29.77 0 0 0 -11.67 19.64c-6.67 44.43-26.66 148.4-75.62 225.25a153.16 153.16 0 0 1 41.15 12.3 171.09 171.09 0 0 1 15.57 8.08q6.24 3.65 12.31 7.86a219.87 219.87 0 0 1 36 31.7c1.67 1.8 3.31 3.64 4.94 5.51a16 16 0 0 1 -24.15 21q-3.24-3.72-6.58-7.22a176.22 176.22 0 0 0 -38.37-31l-.59-.34c-37.68-21.91-67.61-16.84-67.9-16.79a16 16 0 0 1 -15.56-25.73c43.21-53.7 66.86-135.25 78.6-189.49 2.87-13.3 5-25 6.59-34.15.76-4.54 1.38-8.48 1.87-11.72a61.55 61.55 0 0 1 24.27-40.6 142 142 0 0 1 28.19-16.1 208.9 208.9 0 0 1 38.94-12.34q11.11-2.44 23.27-4.09c42.5-5.73 85.83-2.82 128.77 8.66a929 929 0 0 1 104.43 34.44q16.32 6.5 32 13.54 34.53 15.49 66 33.57 16.44 9.45 32 19.59 19.73 12.84 38 26.78c55.05 42 99.5 90.54 132.11 144.38l.27.44.16.27c29.07 48.17 38.75 84.59 40.63 92.55.2.87.32 1.4.35 1.56a16 16 0 0 1 -12.43 18.94z"/><path d="m841.29 609.32a108.71 108.71 0 0 1 -13.89 5.68c-41 13.54-85 0-125.37-39a194.66 194.66 0 0 1 -28.37-35.12c-14.71-23-36.69-45.54-65.33-67a272.74 272.74 0 0 0 -39.8-24.76 280.33 280.33 0 0 0 -103.26-29.32c-2-.15-7.69-.61-25.33-2.07a280.74 280.74 0 0 0 -37.83-.52l-38.43 2.1c-39.82 2.18-59.17 17.61-65.75 24.3-12.11 56.61-53.6 150.68-73.05 193.05-2.3 5-4.29 9.31-5.89 12.73a16 16 0 0 1 -21.27 7.72c-.34-.16-.66-.32-1-.5l-.59-.34a16 16 0 0 1 -6.13-20.46c1.84-3.93 4.22-9 7-15.11 19.45-42.51 58.48-131.46 69.67-184a31.45 31.45 0 0 1 8.21-15.36c9.09-9.31 35.73-31.24 87.06-34l38.43-2.1a310.78 310.78 0 0 1 42.19.58l25.32 2.09a312.61 312.61 0 0 1 115.12 32.66 304.27 304.27 0 0 1 44.48 27.68c31.72 23.77 56.31 49.13 73.1 75.37a162.84 162.84 0 0 0 23.69 29.38c21 20.26 51.67 40.76 85.69 33.61a73.08 73.08 0 0 0 17.24-6 16 16 0 0 1 20.74 6.1l.16.27q.27.46.51 1a16 16 0 0 1 -7.32 21.34z"/><path d="m677.56 340.06v83.75a16 16 0 0 1 -22.68 14.54 15.72 15.72 0 0 1 -3.52-2.22 16 16 0 0 1 -5.77-12.3v-83.77a13.16 13.16 0 0 0 -13.14-13.14h-39.7a13.16 13.16 0 0 0 -13.15 13.14v32.27a16 16 0 0 1 -21 15.2h-.05a15.82 15.82 0 0 1 -2.55-1.13 16 16 0 0 1 -8.37-14.07v-32.27a45.19 45.19 0 0 1 45.15-45.14h39.67a45.19 45.19 0 0 1 45.11 45.14z"/><path d="m301.21 335.49a16 16 0 0 1 -8.54 6.35l-.27.07-1 .25s0 0 0 0a15.91 15.91 0 0 1 -12.4-2.35l-26.84-18.1-32.49-21.92-48.67 72.21 26.9 18.14 20.25 13.66a16 16 0 1 1 -17.89 26.53l-8.95-6-51.46-34.71a16 16 0 0 1 -5.26-20.63 16.7 16.7 0 0 1 .94-1.57l16.87-25 32.83-48.67 16.88-25a13.92 13.92 0 0 1 1.1-1.43 16 16 0 0 1 21.1-2.88l66.8 45.06 5.8 3.91a16 16 0 0 1 4.3 22.08z"/><path d="m220.69 298.28a16 16 0 0 1 -22.21 4.32l-13.26-9-30.22-20.31-32.79 48.71 30.18 20.36 13.26 8.94a16 16 0 0 1 -17.89 26.53l-13.18-8.89-43.53-29.4a16 16 0 0 1 -4.31-22.21l50.71-75.19a16 16 0 0 1 22.21-4.32l43.54 29.37 13.17 8.88a16 16 0 0 1 4.32 22.21z"/><path d="m515.57 464.58h-122.35a64 64 0 1 0 0 128.06h122.35a64 64 0 0 0 0-128.06zm0 96.06h-122.35a32 32 0 1 1 0-64.06h122.35a32 32 0 0 1 0 64.06z"/></g></svg>