<svg id="Layer_1" enable-background="new 0 0 512 512" viewBox="0 0 512 512" xmlns="http://www.w3.org/2000/svg"><g clip-rule="evenodd" fill-rule="evenodd"><g><path d="m26.041 92.544h460c5.508 0 10 4.492 10 10v10.921c0 5.508-4.492 10-10 10h-460c-5.508 0-10-4.492-10-10v-10.921c0-5.508 4.492-10 10-10z" fill="#636c77"/><path d="m157.538 78.384h197.007c5.508 0 10 4.492 10 10v39.241c0 5.508-4.492 10-10 10h-197.007c-5.508 0-10-4.492-10-10v-39.241c0-5.508 4.492-10 10-10z" fill="#f5b945"/><path d="m239.081 115.984h33.921c1.652 0 3 1.347 3 3v336.288c0 .487-.098.904-.315 1.339l-16.961 33.99c-.521 1.043-1.519 1.66-2.684 1.66s-2.164-.618-2.684-1.66l-16.961-33.99c-.217-.436-.315-.853-.315-1.339v-336.288c-.001-1.653 1.347-3 2.999-3z" fill="#cad0d7"/><path d="m304.456 207.566v122.342c0 5.508-4.492 10-10 10h-76.83c-5.508 0-10-4.492-10-10v-122.342c0-1.7-.36-3.157-1.153-4.661l-20.94-39.747c-.792-1.504-1.153-2.961-1.153-4.661v-93.458c0-5.508 4.492-10 10-10h123.319c5.508 0 10 4.492 10 10v93.459c0 1.7-.36 3.157-1.153 4.661l-20.939 39.747c-.791 1.503-1.151 2.96-1.151 4.66z" fill="#fdcd56"/><g fill="#f5b945"><path d="m243.774 15.981h24.535c5.508 0 10 4.492 10 10v58.564c0 5.508-4.492 10-10 10h-24.535c-5.508 0-10-4.492-10-10v-58.565c0-5.507 4.492-9.999 10-9.999z"/><path d="m304.753 205.093c.189-.74.472-1.458.856-2.188l20.939-39.747c.384-.729.667-1.448.856-2.188-47.575 0-95.15 0-142.726 0 .189.74.472 1.458.856 2.188l20.94 39.747c.384.729.667 1.448.856 2.188z"/></g></g><path d="m301.502 440.289 17.128-29.64c1.93-3.35 6.211-4.489 9.552-2.56s4.47 6.211 2.541 9.562l-17.081 29.635c-1.318 2.254-3.67 3.501-6.07 3.501-1.176 0-2.4-.297-3.482-.936-3.388-1.934-4.517-6.211-2.588-9.562zm41.785 11.731c-1.929-3.35-6.211-4.503-9.552-2.574l-29.645 17.124c-3.388 1.929-4.517 6.211-2.588 9.557 1.318 2.254 3.67 3.501 6.07 3.501 1.176 0 2.4-.301 3.482-.937l29.645-17.114c3.341-1.939 4.518-6.22 2.588-9.557zm16.376-27.31c-1.412 1.369-3.2 2.051-4.988 2.051s-3.576-.682-4.941-2.051c-2.729-2.729-2.729-7.162 0-9.901l24.186-24.201c2.776-2.729 7.199-2.729 9.929 0 2.729 2.729 2.729 7.171 0 9.901zm45.408 28.788c.988 3.731-1.223 7.571-4.988 8.573l-33.033 8.856c-.612.16-1.224.24-1.835.24-3.059 0-5.929-2.056-6.729-5.19-1.035-3.727 1.176-7.566 4.941-8.569l33.033-8.861c3.764-.997 7.576 1.21 8.611 4.951zm-251.51 12.479c-.847 3.134-3.67 5.19-6.776 5.19-.565 0-1.176-.08-1.788-.24l-33.08-8.856c-3.717-1.002-5.929-4.842-4.941-8.573.988-3.741 4.847-5.948 8.564-4.95l33.08 8.861c3.717 1.001 5.929 4.841 4.941 8.568zm8.705-51.168c2.729 2.739 2.729 7.171 0 9.901-1.365 1.369-3.153 2.051-4.941 2.051s-3.576-.682-4.941-2.051l-24.186-24.201c-2.729-2.729-2.729-7.171 0-9.901 2.729-2.729 7.152-2.729 9.882 0zm48.279 61.317c-1.318 2.254-3.67 3.501-6.07 3.501-1.223 0-2.4-.301-3.529-.937l-29.645-17.114c-3.341-1.939-4.47-6.221-2.541-9.557 1.929-3.35 6.211-4.503 9.552-2.574l29.645 17.124c3.34 1.93 4.517 6.212 2.588 9.557zm0-35.837-17.128-29.64c-1.929-3.35-6.211-4.499-9.552-2.56-3.388 1.929-4.517 6.211-2.588 9.562l17.128 29.635c1.271 2.254 3.623 3.501 6.07 3.501 1.176 0 2.4-.297 3.482-.936 3.34-1.934 4.517-6.211 2.588-9.562zm278.472-323.81h-117.497v-16.921h117.497zm-131.519 14.159h-22.822v-45.239h22.822zm-142.907 202.281v-120.81h34.444v83.791c0 3.859 3.106 6.997 6.964 6.997 3.906 0 7.011-3.139 7.011-6.997v-83.791h34.444v120.809h-82.863zm54.396 121.43-12.987 25.97-12.94-25.97v-107.431h25.927zm-114.485-323.711v-45.239h22.869v45.239zm57.313 67.472-15.858-30.12h120.132l-15.905 30.12zm14.917-136.06v32.51c0 3.868 3.153 6.997 7.011 6.997h44.561c3.859 0 6.964-3.129 6.964-6.997v-32.51h35.386v91.941h-129.308v-91.941zm14.022-39.051v64.56h30.539v-64.56zm-217.724 93.48v-16.921h117.497v16.921zm472.999-30.92h-124.509v-7.162c0-3.868-3.153-6.997-7.011-6.997h-29.833v-16.352c0-3.859-3.153-6.997-7.011-6.997h-42.397v-32.054c0-3.868-3.106-6.997-6.964-6.997h-44.561c-3.859 0-7.011 3.129-7.011 6.997v32.054h-42.397c-3.859 0-6.964 3.139-6.964 6.997v16.352h-29.88c-3.859 0-6.964 3.129-6.964 6.997v7.162h-124.509c-3.858 0-7.011 3.129-7.011 7.002v30.92c0 3.868 3.153 6.997 7.011 6.997h124.508v7.162c0 3.868 3.106 7.002 6.964 7.002h29.88v16.347c0 1.129.282 2.249.8 3.261l22.445 42.59v133.081c0 3.868 3.106 6.997 6.964 6.997h21.457v109.083c0 1.078.282 2.146.753 3.12l19.951 39.997c1.176 2.381 3.623 3.882 6.258 3.882 2.682 0 5.082-1.501 6.258-3.882l19.951-39.997c.518-.974.753-2.042.753-3.12v-109.083h21.457c3.858 0 7.011-3.129 7.011-6.997v-133.082l22.446-42.59c.518-1.012.8-2.132.8-3.261v-16.347h29.833c3.858 0 7.011-3.134 7.011-7.002v-7.162h124.508c3.859 0 6.964-3.129 6.964-6.997v-30.92c.003-3.872-3.103-7.001-6.961-7.001z"/></g></svg>