<svg clip-rule="evenodd" fill-rule="evenodd" stroke-linejoin="round" stroke-miterlimit="2" viewBox="0 0 96 96" xmlns="http://www.w3.org/2000/svg"><g><g><path d="m4.131 39.248c-1.384-.583-2.123-2.102-1.726-3.551 5.639-19.875 23.93-34.451 45.599-34.451 21.664 0 39.952 14.571 45.591 34.442.398 1.451-.344 2.971-1.733 3.551-29.243 12.099-58.487 12.225-87.731.009z" fill="#e96c98"/><g fill="#ebebeb"><path d="m21.263 9.517c.69 1.627 1.072 3.415 1.072 5.291 0 7.485-6.077 13.562-13.562 13.562-1.175 0-2.315-.15-3.402-.431 3.617-7.433 9.122-13.782 15.892-18.422z"/><path d="m72.083 7.82c7.899 4.674 14.326 11.576 18.415 19.838-2.471 2.594-5.958 4.212-9.819 4.212-7.485 0-13.562-6.077-13.562-13.563 0-4.223 1.935-7.999 4.966-10.487z"/><circle cx="40.554" cy="15.667" r="6.379"/></g></g><g><path d="m10.964 41.038c-2.084-.744-4.168-1.551-6.252-2.421-.687-.29-1.055-1.042-.863-1.762 5.465-19.247 23.175-33.357 44.155-33.357 20.975 0 38.683 14.106 44.146 33.343.195.722-.174 1.476-.865 1.765-24.918 10.31-49.838 11.816-74.758 4.267-.792-.24-1.63.209-1.87 1.001s.208 1.631 1.001 1.871c25.593 7.752 51.186 6.221 76.777-4.368.002-.001.003-.002.004-.002 2.085-.87 3.2-3.153 2.603-5.332-.002-.004-.003-.008-.004-.013-5.817-20.499-24.684-35.532-47.034-35.532-22.355 0-41.224 15.038-47.042 35.541-.001.005-.003.009-.004.014-.595 2.175.513 4.454 2.591 5.329.001.001.003.001.004.002 2.134.891 4.268 1.718 6.402 2.479.78.279 1.639-.129 1.917-.908.278-.78-.129-1.639-.908-1.917z"/><path d="m20.812 16.325c-.395 6.302-5.638 11.297-12.039 11.297-1.045 0-2.059-.133-3.026-.383-.802-.207-1.621.275-1.828 1.076-.208.802.275 1.621 1.076 1.828 1.207.313 2.473.479 3.778.479 7.993 0 14.54-6.24 15.033-14.109.051-.826-.577-1.539-1.404-1.591-.826-.052-1.539.577-1.59 1.403z"/><path d="m85.264 30.218c-1.414.583-2.962.904-4.585.904-6.657 0-12.062-5.405-12.062-12.063 0-3.757 1.721-7.114 4.417-9.327.64-.525.733-1.471.208-2.111s-1.471-.733-2.111-.208c-3.366 2.763-5.514 6.956-5.514 11.646 0 8.313 6.749 15.063 15.062 15.063 2.027 0 3.962-.402 5.728-1.13.765-.315 1.131-1.193.815-1.958-.315-.766-1.192-1.131-1.958-.816z"/><path d="m37.653 12.497c.811-.602 1.815-.957 2.901-.957 2.693 0 4.879 2.186 4.879 4.879s-2.186 4.879-4.879 4.879-4.879-2.186-4.879-4.879c0-.828-.672-1.5-1.5-1.5s-1.5.672-1.5 1.5c0 4.349 3.53 7.879 7.879 7.879s7.879-3.53 7.879-7.879-3.53-7.879-7.879-7.879c-1.756 0-3.378.575-4.689 1.548-.665.493-.804 1.433-.311 2.098s1.434.804 2.099.311z"/><path d="m18.631 93.329c-.152.091-.239.37-.239.669 0 .828.672 1.5 1.5 1.5 0 0 .82.106 1.314-.777.032-.057.205-.366.475-.848 3.698-6.602 3.366-15.374-.803-21.546 0-.001-.001-.002-.001-.003-3.33-4.929-3.79-11.848-1.174-17.377 1.169-2.471 2.415-5.104 3.56-7.524.354-.748.034-1.643-.715-1.997-.748-.354-1.643-.034-1.997.714-1.145 2.42-2.391 5.053-3.56 7.524-3.062 6.472-2.498 14.569 1.4 20.34 0 0 .001.001.001.002 3.56 5.271 3.829 12.763.672 18.401-.27.482-.476.848-.476.848z"/><path d="m36.823 93.329c-.151.091-.239.37-.239.669 0 .828.672 1.5 1.5 1.5 0 0 .82.106 1.314-.777.032-.057.205-.366.475-.848 3.698-6.602 3.366-15.374-.803-21.546 0-.001-.001-.002-.001-.003-3.33-4.929-3.79-11.848-1.174-17.377.802-1.694 1.64-3.465 2.456-5.191.354-.749.034-1.644-.714-1.998s-1.643-.034-1.997.715c-.817 1.726-1.655 3.497-2.457 5.191-3.062 6.472-2.497 14.569 1.4 20.34 0 0 .001.001.001.002 3.561 5.271 3.83 12.763.672 18.401-.27.482-.475.848-.475.848z"/><path d="m55.015 93.329c-.151.091-.239.37-.239.669 0 .828.672 1.5 1.5 1.5 0 0 .82.106 1.314-.777.032-.057.206-.366.476-.848 3.697-6.602 3.366-15.374-.803-21.546-.001-.001-.001-.002-.002-.003-3.329-4.929-3.79-11.848-1.174-17.377.839-1.772 1.716-3.627 2.568-5.427.354-.748.034-1.643-.714-1.998-.749-.354-1.644-.034-1.998.715-.851 1.8-1.729 3.655-2.568 5.427-3.062 6.472-2.497 14.569 1.4 20.34.001 0 .001.001.001.002 3.561 5.271 3.83 12.763.672 18.401-.27.482-.475.848-.475.848z"/><path d="m73.222 88.614c-.152.092-.239.37-.239.669 0 .828.672 1.5 1.5 1.5 0 0 .819.106 1.314-.776.032-.057.205-.367.475-.849 3.698-6.602 3.366-15.374-.803-21.546 0-.001-.001-.002-.001-.002-3.33-4.93-3.79-11.849-1.174-17.378.578-1.222 1.175-2.484 1.77-3.74.354-.749.034-1.644-.715-1.998-.748-.354-1.643-.034-1.997.715-.595 1.256-1.192 2.518-1.77 3.74-3.062 6.472-2.498 14.569 1.4 20.34 0 0 0 .001.001.002 3.56 5.271 3.829 12.763.672 18.401-.27.482-.476.849-.476.849z"/></g></g></svg>