<svg id="Layer_1" viewBox="0 0 1000 1000" xmlns="http://www.w3.org/2000/svg" data-name="Layer 1"><path d="m308.99 492.11-83.59 144.87-103.57-60.3 159.5-276.1z" fill="#bdbdbd"/><path d="m878.17 576.68-103.57 60.3-83.59-144.87 27.66-191.53z" fill="#bdbdbd"/><path d="m533.26 162.38-36.79 79.97-35.18-79.97z" fill="#bdbdbd"/><path d="m585.05 167.27-62.17 135.15-9.2-20.92 54.8-119.12h10.85z" fill="#ff3d00"/><path d="m539.9 507.72h-18l-35-172.16a16 16 0 0 0 -1.15-3.5l-74.4-161.72 9.31-8h5.66l55 125q.22.56.48 1.08l25.45 57.87z" fill="#ff3d00"/><path d="m489.22 507.72h-32.78a37.74 37.74 0 0 0 -36.44 28.21h-68.44a7 7 0 0 1 -3.83-2.65 11.21 11.21 0 0 1 -2.14-5.58l-4-33.94q0-.37-.09-.75l-33.84-234.01 78.43-67 69.83 151.79z" fill="#bdbdbd"/><path d="m692.34 259-33.79 234q-.06.38-.09.75l-4.05 34a11.14 11.14 0 0 1 -2.14 5.56 7 7 0 0 1 -3.83 2.66h-68.44a37 37 0 0 0 -3.57-8.88l-37.16-183.73 71.05-154.46z" fill="#bdbdbd"/><path d="m637 593.9h-55.76v-26h53.29q.68 13.1 2.47 26z" fill="#ff3d00"/><path d="m418.76 567.93v26h-55.76q1.78-12.89 2.47-26z" fill="#ff3d00"/><path d="m479.69 647.55-20.83 86.45a9.11 9.11 0 0 1 -17.55-4.87l21.87-81.6z" fill="#ff3d00"/><path d="m692 824.84a31.2 31.2 0 0 1 -25.33 12.78h-333.38a31.49 31.49 0 0 1 -30.1-40.75l39.65-128.87a302.65 302.65 0 0 0 13.92-42.08h65.58a37.84 37.84 0 0 0 10.05 13l-22 82a41.11 41.11 0 1 0 79.41 21.28c0-.13.06-.26.1-.39l10.1-41.89 10.07 41.85c0 .13.07.26.1.39a41.11 41.11 0 1 0 79.42-21.28l-22-82a37.71 37.71 0 0 0 10-12.94h65.58a302.65 302.65 0 0 0 13.99 42.06l39.65 128.89a31.2 31.2 0 0 1 -4.81 27.95z" fill="#bdbdbd"/><path d="m549.24 545.41v64.46a5.69 5.69 0 0 1 -5.68 5.68h-87.12a5.69 5.69 0 0 1 -5.68-5.68v-64.46a5.69 5.69 0 0 1 5.68-5.69h87.12a5.66 5.66 0 0 1 4.62 2.39l.12.17a5.68 5.68 0 0 1 .94 3.13z" fill="#ff3d00"/><path d="m552.26 740.32a9.12 9.12 0 0 1 -11.13-6.32l-20.82-86.48h16.51l21.86 81.61a9.1 9.1 0 0 1 -6.42 11.19z" fill="#ff3d00"/><g fill="#fff" opacity=".5"><path d="m298.99 502.11-83.59 144.87-103.57-60.3 159.5-276.1z"/><path d="m868.17 586.68-103.57 60.3-83.59-144.87 27.66-191.53z"/><path d="m523.26 172.38-36.79 79.97-35.18-79.97z"/><path d="m575.05 177.27-62.17 135.15-9.2-20.92 54.8-119.12h10.85z"/><path d="m529.9 517.72h-18l-35-172.16a16 16 0 0 0 -1.15-3.5l-74.4-161.72 9.31-8h5.66l55 125q.22.56.48 1.08l25.45 57.87z"/><path d="m479.22 517.72h-32.78a37.74 37.74 0 0 0 -36.44 28.21h-68.44a7 7 0 0 1 -3.83-2.65 11.21 11.21 0 0 1 -2.14-5.58l-4-33.94q0-.37-.09-.75l-33.84-234.01 78.43-67 69.83 151.79z"/><path d="m682.34 269-33.79 234q-.06.38-.09.75l-4.05 34a11.14 11.14 0 0 1 -2.14 5.56 7 7 0 0 1 -3.83 2.66h-68.44a37 37 0 0 0 -3.57-8.88l-37.16-183.73 71.05-154.46z"/><path d="m627 603.9h-55.76v-26h53.29q.68 13.1 2.47 26z"/><path d="m408.76 577.93v26h-55.76q1.78-12.89 2.47-26z"/><path d="m469.69 657.55-20.83 86.45a9.11 9.11 0 0 1 -17.55-4.87l21.87-81.6z"/><path d="m682 834.84a31.2 31.2 0 0 1 -25.33 12.78h-333.38a31.49 31.49 0 0 1 -30.1-40.75l39.65-128.87a302.65 302.65 0 0 0 13.92-42.08h65.58a37.84 37.84 0 0 0 10.05 13l-22 82a41.11 41.11 0 1 0 79.41 21.28c0-.13.06-.26.1-.39l10.1-41.89 10.07 41.85c0 .13.07.26.1.39a41.11 41.11 0 1 0 79.42-21.28l-22-82a37.71 37.71 0 0 0 10-12.94h65.58a302.65 302.65 0 0 0 13.99 42.06l39.65 128.89a31.2 31.2 0 0 1 -4.81 27.95z"/><path d="m539.24 555.41v64.46a5.69 5.69 0 0 1 -5.68 5.68h-87.12a5.69 5.69 0 0 1 -5.68-5.68v-64.46a5.69 5.69 0 0 1 5.68-5.69h87.12a5.66 5.66 0 0 1 4.62 2.39l.12.17a5.68 5.68 0 0 1 .94 3.13z"/><path d="m542.26 750.32a9.12 9.12 0 0 1 -11.13-6.32l-20.82-86.48h16.51l21.86 81.61a9.1 9.1 0 0 1 -6.42 11.19z"/></g><g fill="#413b32"><path d="m666.11 551.93a16 16 0 0 1 -16 16h-84.87a16 16 0 0 1 -16-16c0-.31 0-.61 0-.92 0-.14 0-.28 0-.43s0-.28 0-.42a1 1 0 0 1 0-.17c0-.13 0-.26 0-.39a2.71 2.71 0 0 1 .06-.38l.06-.33c0-.16.06-.32.1-.48a.44.44 0 0 0 0-.1v-.09c.06-.24.12-.48.19-.72s.07-.25.11-.37l.12-.37s0-.09 0-.13a2.25 2.25 0 0 1 .08-.24c0-.13.1-.26.16-.39l.06-.15a6.13 6.13 0 0 1 .35-.79 16 16 0 0 1 14.44-9.12h84.87a16 16 0 0 1 16.27 15.99z"/><path d="m450.75 551.93a16 16 0 0 1 -16 16h-84.86a16 16 0 0 1 0-32h84.86a16 16 0 0 1 16 16z"/><path d="m512 539.4a15.81 15.81 0 0 1 -2.8.32h-.75a16 16 0 0 1 -15.31-12.81l-3.9-19.19-33.3-164-69.85-151.72-8.85-19.24a16 16 0 0 1 3.74-18.5l.12-.1.62-.54a16.41 16.41 0 0 1 3.37-2.08 16 16 0 0 1 21.22 7.85l5.05 11 74.4 161.72a16 16 0 0 1 1.15 3.5l35 172.16 2.6 12.82a16 16 0 0 1 -12.51 18.81z"/><path d="m577.34 533a15.63 15.63 0 0 1 -.27 2.92 16 16 0 0 1 -26.27 9.12 15 15 0 0 1 -1.33-1.31c-.18-.2-.36-.4-.53-.61s-.43-.56-.64-.85l-.12-.17a16 16 0 0 1 -2.59-6.3l-5.69-28.09-32.68-161.43-25.45-57.87q-.25-.53-.48-1.08l-55-124.95-4.2-9.55a16 16 0 1 1 29.29-12.89l9.87 22.44 35.18 80 17.21 39.14 9.2 20.92 14.36 32.56a16.37 16.37 0 0 1 1 3.27l1 5.11 37.25 183.62.56 2.78a15.46 15.46 0 0 1 .33 3.22z"/><path d="m496.47 242.36 17.21 39.14-3 6.54a16 16 0 0 1 -28.9.37q-.25-.53-.48-1.08a16 16 0 0 1 .31-12.66z"/><path d="m572.76 153.07-4.28 9.31h-35.22l10.43-22.68a16 16 0 1 1 29.07 13.37z"/><path d="m619.17 169.65-8.85 19.24-71.05 154.46-2.18 4.74a16 16 0 1 1 -29.09-13.36l14.86-32.31 62.17-135.15 5.05-11a16 16 0 0 1 21.22-7.85 15.84 15.84 0 0 1 3.38 2.09l.6.52.1.08a16 16 0 0 1 3.79 18.54z"/><path d="m913.85 574.49-190.48-329.76a14.88 14.88 0 0 0 -1-1.59s0 0 0 0a0 0 0 0 0 0 0s0 0 0 0a0 0 0 0 1 0 0 15.91 15.91 0 0 0 -2.46-2.53l-104.51-89.49-.1-.08-.6-.52-19.06-16.3a16 16 0 0 0 -10.4-3.84h-170.48a16 16 0 0 0 -10.4 3.84l-22.64 19.36-.62.54-.12.1-100.61 86.05a15.91 15.91 0 0 0 -2.46 2.53 0 0 0 0 1 0 0s0 0 0 0a0 0 0 0 0 0 0s0 0 0 0a14.88 14.88 0 0 0 -1 1.59l-190.76 330.1a16 16 0 0 0 5.85 21.83l131.24 76.4a16 16 0 0 0 21.91-5.83l71.58-124.08a41.55 41.55 0 0 0 5.79 10.19 39.51 39.51 0 0 0 11.16 9.84 269.78 269.78 0 0 1 -5.17 43c-.11.58-.23 1.15-.35 1.73a271.22 271.22 0 0 1 -15.16 48.83 13.84 13.84 0 0 0 -.52 1.45l-39.88 129.61a63.5 63.5 0 0 0 60.69 82.16h333.42a63.5 63.5 0 0 0 60.69-82.16l-39.88-129.61a13.84 13.84 0 0 0 -.52-1.45 271.22 271.22 0 0 1 -15.16-48.84c-.12-.58-.24-1.15-.35-1.73a269.78 269.78 0 0 1 -5.17-43 39.68 39.68 0 0 0 11.17-9.83 41.84 41.84 0 0 0 5.83-10.17l71.58 124.06a16 16 0 0 0 21.91 5.83l131.24-76.4a16 16 0 0 0 5.8-21.83zm-688.45 62.51-103.57-60.3 159.5-276.1 27.67 191.51zm433.15-144q-.06.38-.09.75l-4.05 34a11.14 11.14 0 0 1 -2.14 5.56 7 7 0 0 1 -3.83 2.66 9.19 9.19 0 0 1 -1 .22 16 16 0 0 0 -13.36 15.78q0 8 .42 16 .68 13.08 2.47 26a296.89 296.89 0 0 0 6.24 32 302.65 302.65 0 0 0 13.95 42.03l39.65 128.89a31.49 31.49 0 0 1 -30.1 40.75h-333.42a31.49 31.49 0 0 1 -30.1-40.75l39.65-128.89a302.65 302.65 0 0 0 13.92-42.08 296.89 296.89 0 0 0 6.24-32q1.78-12.89 2.47-26 .42-8 .42-16a16 16 0 0 0 -13.36-15.78 9.19 9.19 0 0 1 -1-.22 7 7 0 0 1 -3.83-2.65 11.21 11.21 0 0 1 -2.14-5.58l-4-33.94q0-.37-.09-.75l-33.81-234 78.43-67 25.27-21.62 9.31-8h158.66l5.72 4.89 25.27 21.62 82 70.14zm116.05 144-83.6-144.89 27.66-191.53 159.5 276.1z"/><path d="m568.48 162.38-54.8 119.12-17.21-39.14v-.01l36.79-79.97z"/><path d="m549.47 543.74c-.18-.2-.36-.4-.53-.61s-.43-.56-.64-.85a5.68 5.68 0 0 1 .94 3.13v6.52c0-.31 0-.61 0-.92 0-.14 0-.28 0-.43s0-.28 0-.42a1 1 0 0 1 0-.17c0-.26.07-.52.11-.77l.06-.33c0-.16.06-.32.1-.48a.44.44 0 0 0 0-.1v-.09c.06-.24.12-.48.19-.72s.07-.25.11-.37l.12-.37s0-.09 0-.13a2.25 2.25 0 0 1 .08-.24c0-.13.1-.26.16-.39l.06-.15a6.13 6.13 0 0 1 .35-.79 15 15 0 0 1 -1.11-1.32zm0 0c-.18-.2-.36-.4-.53-.61s-.43-.56-.64-.85a5.68 5.68 0 0 1 .94 3.13v6.52c0-.31 0-.61 0-.92 0-.14 0-.28 0-.43s0-.28 0-.42a1 1 0 0 1 0-.17c0-.13 0-.26 0-.39a2.71 2.71 0 0 1 .06-.38l.06-.33c0-.16.06-.32.1-.48a.44.44 0 0 0 0-.1v-.09c.06-.24.12-.48.19-.72s.07-.25.11-.37l.12-.37s0-.09 0-.13a2.25 2.25 0 0 1 .08-.24c0-.13.1-.26.16-.39l.06-.15a6.13 6.13 0 0 1 .35-.79 15 15 0 0 1 -1.06-1.32zm30.53-7.81a37 37 0 0 0 -3.57-8.88 37.74 37.74 0 0 0 -32.89-19.31h-87.1a37.68 37.68 0 0 0 -37.68 37.69v64.46a37.39 37.39 0 0 0 3.58 16 37.8 37.8 0 0 0 34.1 21.65h87.12a37.68 37.68 0 0 0 37.68-37.68v-64.45a37.55 37.55 0 0 0 -1.24-9.48zm-123.56 79.62a5.69 5.69 0 0 1 -5.68-5.68v-64.46a5.69 5.69 0 0 1 5.68-5.69h87.12a5.66 5.66 0 0 1 4.62 2.39l.12.17a5.68 5.68 0 0 1 .94 3.13v64.46a5.69 5.69 0 0 1 -5.68 5.68zm93-71.81c-.18-.2-.36-.4-.53-.61s-.43-.56-.64-.85a5.68 5.68 0 0 1 .94 3.13v6.52c0-.31 0-.61 0-.92 0-.14 0-.28 0-.43s0-.28 0-.42a1 1 0 0 1 0-.17c0-.13 0-.26 0-.39a2.71 2.71 0 0 1 .06-.38l.06-.33c0-.16.06-.32.1-.48a.44.44 0 0 0 0-.1v-.09c.06-.24.12-.48.19-.72s.07-.25.11-.37l.12-.37s0-.09 0-.13a2.25 2.25 0 0 1 .08-.24c0-.13.1-.26.16-.39l.06-.15a6.13 6.13 0 0 1 .35-.79 15 15 0 0 1 -1.03-1.32zm0 0c-.18-.2-.36-.4-.53-.61s-.43-.56-.64-.85a5.68 5.68 0 0 1 .94 3.13v6.52c0-.31 0-.61 0-.92 0-.14 0-.28 0-.43s0-.28 0-.42a1 1 0 0 1 0-.17c0-.13 0-.26 0-.39a2.71 2.71 0 0 1 .06-.38l.06-.33c0-.16.06-.32.1-.48a.44.44 0 0 0 0-.1v-.09c.06-.24.12-.48.19-.72s.07-.25.11-.37l.12-.37s0-.09 0-.13a2.25 2.25 0 0 1 .08-.24c0-.13.1-.26.16-.39l.06-.15a6.13 6.13 0 0 1 .35-.79 15 15 0 0 1 -1.03-1.32z"/><path d="m515.56 635.3-2.95 12.25-12.61 52.37-10.08 41.84c0 .13-.07.26-.1.39a41.11 41.11 0 1 1 -79.41-21.28l22-82 3.25-12.11c.08-.3.17-.59.27-.88a16 16 0 0 1 30.61 9.12l-3.36 12.53-21.87 81.6a9.11 9.11 0 0 0 17.55 4.87l20.83-86.47 4.65-19.32c0-.14.07-.28.1-.42l.18-.68q.08-.28.18-.57a16 16 0 0 1 .57-1.5 12.12 12.12 0 0 1 .57-1.14 15 15 0 0 1 1-1.67c.25-.36.52-.7.81-1a15.57 15.57 0 0 1 2.38-2.28c.35-.27.7-.52 1.07-.76a9.75 9.75 0 0 1 1.12-.67l.56-.29a12.36 12.36 0 0 1 1.34-.59c.43-.17.87-.31 1.32-.44.22-.07.45-.12.68-.18l.86-.18c.37-.07.74-.13 1.12-.17l.85-.07q.45 0 .9 0 .45 0 .9 0c.28 0 .55 0 .82.07a11.39 11.39 0 0 1 1.15.17l.86.18.68.18c.23.06.45.13.67.21l.65.23c.47.18.92.38 1.37.6l.52.28.57.32a12.82 12.82 0 0 1 1.09.72 15.83 15.83 0 0 1 4.76 5.38c.1.17.19.35.28.52.22.44.42.9.6 1.37.08.22.16.43.23.65s.15.45.21.67l.18.68.1.42a16 16 0 0 1 -.03 7.05z"/><path d="m560.53 771.24a41.12 41.12 0 0 1 -50.36-29.08c0-.13-.06-.26-.1-.39l-10.07-41.85-12.61-52.37-2.95-12.25a16 16 0 0 1 -.1-7.07c0-.14.07-.28.1-.42l.18-.68q.08-.28.18-.57a16 16 0 0 1 .57-1.5 12.12 12.12 0 0 1 .57-1.14 15 15 0 0 1 1-1.67c.25-.36.52-.7.81-1a15.57 15.57 0 0 1 2.38-2.28c.35-.27.7-.52 1.07-.76a9.75 9.75 0 0 1 1.12-.67l.56-.29a12.36 12.36 0 0 1 1.34-.59c.43-.17.87-.31 1.32-.44.22-.07.45-.12.68-.18l.86-.18c.37-.07.74-.13 1.12-.17l.85-.07q.45 0 .9 0 .45 0 .9 0c.28 0 .55 0 .82.07a11.39 11.39 0 0 1 1.15.17l.86.18.68.18c.23.06.45.13.67.21l.65.23c.47.18.92.38 1.37.6l.52.28.57.32c.37.23.74.47 1.09.72a15.83 15.83 0 0 1 4.76 5.38c.1.17.19.35.28.52.22.44.42.9.6 1.37.08.22.16.43.23.65s.15.45.21.67l.18.68.1.42 4.65 19.32 20.89 86.41a9.11 9.11 0 0 0 17.55-4.87l-21.86-81.61-3.36-12.52a16 16 0 0 1 30.64-9.16c.1.29.19.58.27.88l3.24 12.1 22 82a41.16 41.16 0 0 1 -29.08 50.42z"/><path d="m672 609.9a16 16 0 0 1 -16 16h-90.75c-.39 0-.77 0-1.15 0a16 16 0 0 1 -14-10.94 15.76 15.76 0 0 1 -.81-5 16 16 0 0 1 16-16h90.71a16 16 0 0 1 15.48 11.92c.11.58.23 1.15.35 1.73a16.53 16.53 0 0 1 .17 2.29z"/><path d="m450.75 609.9a15.76 15.76 0 0 1 -.81 5 16 16 0 0 1 -14 10.94c-.38 0-.77 0-1.16 0h-90.78a16 16 0 0 1 -16-16 16.53 16.53 0 0 1 .17-2.34c.12-.58.24-1.15.35-1.73a16 16 0 0 1 15.48-11.87h90.76a16 16 0 0 1 15.99 16z"/></g></svg>