<svg height="512" viewBox="0 0 512 512" width="512" xmlns="http://www.w3.org/2000/svg"><g id="_22.Kebab" data-name="22.Kebab"><g id="c"><path d="m405.6 165.16v254.96a85.88 85.88 0 0 1 -85.88 85.88h-127.44a85.88 85.88 0 0 1 -85.88-85.88v-15.9a258.0981 258.0981 0 0 1 74.36-181.63q1.98-2.025 4.01-4a259.297 259.297 0 0 1 71.23-49.23q5.205-2.43 10.54-4.63c.83-.35 1.66-.69 2.5-1.02.56-.23 6.83-2.64 7.8-2.99q2.1448-.78 4.32-1.53a258.7426 258.7426 0 0 1 83.33-14.03h21.11a20.02 20.02 0 0 1 20 20z" fill="#ffebb9"/><path d="m214 506h-21.72a85.88 85.88 0 0 1 -85.88-85.88v-15.9a258.2433 258.2433 0 0 1 19.6-99.02v112.8a88.0013 88.0013 0 0 0 88 88z" fill="#e5d2a8"/><path d="m256 169.36c-1.38.64-5.48 2.64-6.16 2.98s-6.08 3.13-6.08 3.14c-1.14.6-11.99 6.8-12.17 6.91-1.19.72-17.64 11.67-19.04 12.7-.7.51-8.07 6.15-8.72 6.68-.28.21-12.48 10.62-13.15 11.25-.74.68-8.61 8.22-9.92 9.57a258.0981 258.0981 0 0 0 -74.36 181.63v-239.06a19.9751 19.9751 0 0 1 20-20h20.14a257.9657 257.9657 0 0 1 109.46 24.2z" fill="#f9dea0"/><path d="m145.53 145.16a22.1584 22.1584 0 0 0 -19.53 22.01v138.03a258.2433 258.2433 0 0 0 -19.6 99.02v-239.06a19.9751 19.9751 0 0 1 20-20z" fill="#e0c692"/><path d="m402.86 155.07a19.9615 19.9615 0 0 0 -17.26-9.91h-21.11l-45.26-90.28c-9.24-18.44-35.55-18.44-44.78 0l-16.95 33.8a76.4132 76.4132 0 0 0 -127.9 56.48h-3.2a20.1731 20.1731 0 0 0 -5.79.85 40.8488 40.8488 0 0 1 -11.6-26.19c-1.44-21.5 13.34-40 33.01-41.32.94-.06 1.88-.07 2.82-.05 1.69-16.87 14.45-30.43 30.84-31.53a31.4537 31.4537 0 0 1 10.78 1.16c-.07-.62-.13-1.24-.17-1.87-1.32-19.71 12.54-36.69 30.95-37.92 12.6-.84 24.07 5.92 30.47 16.59 5.21-10.55 15.25-18.01 27.22-18.81 12.2-.81 23.32 5.49 29.84 15.56a34.2958 34.2958 0 0 1 20.82-9.16c22.6-1.51 42.49 20.87 44.44 49.99a63.07 63.07 0 0 1 -6.31 32.64c20.36 1.95 37.42 23.06 39.22 49.91a66.06 66.06 0 0 1 -.08 10.06z" fill="#85bc95"/><path d="m324.72 117.52c0 14.37-11.28 26.01-25.2 26.01a24.6678 24.6678 0 0 1 -17.6-7.41 75.7968 75.7968 0 0 0 -7.03-24.13 25.4009 25.4009 0 0 1 24.63-20.49c13.92 0 25.2 11.64 25.2 26.02z" fill="#85bc95"/><path d="m281.16 159.19a77.0946 77.0946 0 0 0 .76-23.07 24.6678 24.6678 0 0 0 17.6 7.41c13.92 0 25.2-11.64 25.2-26.01 0-14.38-11.28-26.02-25.2-26.02a25.4009 25.4009 0 0 0 -24.63 20.49 76.3289 76.3289 0 0 0 -17.39-23.31l16.95-33.8c9.23-18.44 35.54-18.44 44.78 0l45.26 90.28a258.7426 258.7426 0 0 0 -83.33 14.03z" fill="#f5d367"/><path d="m282.45 145.16a76.3439 76.3439 0 0 1 -1.29 14.03c-1.38.47-2.75.96-4.11 1.46q-5.31 1.92-10.51 4.08-5.325 2.19-10.54 4.63a257.9657 257.9657 0 0 0 -109.46-24.2h-16.94a76.425 76.425 0 1 1 152.85 0z" fill="#e05050"/></g><g id="c-2" data-name="c"><path d="m319.72 511h-127.44a90.9828 90.9828 0 0 1 -90.88-90.88v-15.9a262.4013 262.4013 0 0 1 75.7959-185.1372c1.335-1.3647 2.7012-2.7207 4.0771-4.0669a263.5933 263.5933 0 0 1 72.6123-50.187c3.5957-1.6782 7.2129-3.2671 10.753-4.7226.8261-.3492 1.6943-.7041 2.5722-1.0494.5606-.2309 6.9024-2.6684 7.9307-3.04q2.1695-.7881 4.3887-1.5542a263.6721 263.6721 0 0 1 84.9418-14.3027h21.1283a25.0181 25.0181 0 0 1 25 25v254.96a90.9828 90.9828 0 0 1 -90.88 90.88zm44.77-360.84a253.6652 253.6652 0 0 0 -81.7041 13.7578q-2.13.7346-4.2382 1.5009c-.8965.3238-7 2.6685-7.6094 2.9165-.8711.3433-1.6631.6675-2.4551 1.0015-3.4375 1.4141-6.9121 2.94-10.3682 4.5537a253.6078 253.6078 0 0 0 -69.8574 48.2813c-1.3154 1.2866-2.6289 2.5908-3.9238 3.9145a252.466 252.466 0 0 0 -72.9338 178.1338v15.9a80.971 80.971 0 0 0 80.88 80.88h127.44a80.971 80.971 0 0 0 80.88-80.88v-254.96a15.02 15.02 0 0 0 -15-15z"/><path d="m106.4 409.22a5 5 0 0 1 -5-5v-183.22a5 5 0 0 1 10 0v110.8506a262.6031 262.6031 0 0 1 65.7689-112.7406c.1241-.1294.2891-.2935.4864-.4893l.3369-.334c.0967-.0971.2129-.2119.3418-.331 2.5742-2.521 8.248-7.959 8.959-8.6133.3994-.3765 11.7549-10.1231 13.3808-11.4478l-.0019-.0009c.7617-.62 8.2334-6.335 8.9336-6.8448 1.65-1.2138 18.2275-12.23 19.3955-12.9365.3525-.2163 11.2178-6.4185 12.43-7.0566l.0263.0507c.7451-.456 1.6582-.9287 2.753-1.4941a251.8575 251.8575 0 0 0 -97.6703-19.4524h-20.14a14.9728 14.9728 0 0 0 -15 15v3.84a5 5 0 0 1 -10 0v-3.84a24.848 24.848 0 0 1 17.7656-23.9371 25.2324 25.2324 0 0 1 7.2344-1.0629h20.14a261.7117 261.7117 0 0 1 111.5762 24.67 5 5 0 0 1 -.0117 9.0659c-1.2979.6021-5.3457 2.5752-6.0283 2.9165-.6192.31-5.3487 2.7539-5.8946 3.042-.03.0171-.0615.0337-.0918.05-.93.4888-11.0625 6.2676-11.956 6.79-1.4053.8614-17.458 11.5679-18.6221 12.4234-.7041.5131-7.9394 6.0556-8.5254 6.53-.0117.0093-.0244.0191-.0361.0293-.874.7188-12.07 10.2793-12.8691 11.0079-.5645.52-6.2842 5.9985-8.8116 8.4755-.0566.0552-.1142.1094-.1728.1617l-.4141.4131c-.1172.1167-.2148.2114-.2851.2846-.02.0215-.0537.0562-.0743.0772a252.4575 252.4575 0 0 0 -72.9232 178.1229 5 5 0 0 1 -5 5z"/><path d="m106.4 205a5 5 0 0 1 -5-5v-10a5 5 0 0 1 10 0v10a5 5 0 0 1 -5 5z"/><path d="m402.8584 160.07a5.0022 5.0022 0 0 1 -4.3184-2.4809 15.0286 15.0286 0 0 0 -12.94-7.4291h-21.11a5 5 0 0 1 -4.47-2.7593l-45.26-90.28a19.6908 19.6908 0 0 0 -17.9231-11.0707h-.0058a19.6747 19.6747 0 0 0 -17.9092 11.0679l-16.9519 33.8035a5 5 0 0 1 -7.84 1.4521 71.4136 71.4136 0 0 0 -119.53 52.7865 5 5 0 0 1 -5 5h-3.2a15.2169 15.2169 0 0 0 -4.36.6406 5.0029 5.0029 0 0 1 -4.9746-1.2637 45.8367 45.8367 0 0 1 -13.0449-29.3862c-1.5928-23.794 14.6934-44.4107 36.5029-46.544 3.5713-17.478 17.626-30.5215 34.8213-31.6757a36.4274 36.4274 0 0 1 5.8848.0859 41.5339 41.5339 0 0 1 9.2637-24.8589 37.0686 37.0686 0 0 1 26.414-13.8569 37.5627 37.5627 0 0 1 30.4346 12.69 37.1622 37.1622 0 0 1 27.2539-14.91 37.8655 37.8655 0 0 1 31.0843 13.4345 38.4266 38.4266 0 0 1 19.5778-7.0346c25.3213-1.69 47.63 22.8232 49.7617 54.645a69.31 69.31 0 0 1 -4.1875 29.244c19.8858 5.61 35.3506 27.2437 37.0967 53.3057a71.1208 71.1208 0 0 1 -.0879 10.8222 5.0015 5.0015 0 0 1 -4.9824 4.5723zm-35.2813-19.91h18.0229a24.9751 24.9751 0 0 1 12.1856 3.187c-2.28-23.1387-16.8741-41.5782-34.542-43.27a5.0006 5.0006 0 0 1 -3.9805-7.2441 57.7966 57.7966 0 0 0 5.7783-30.0425c-1.7627-26.3178-19.2949-46.6567-39.1181-45.332a29.4149 29.4149 0 0 0 -17.7989 7.8794 5 5 0 0 1 -7.5517-.9907c-5.8184-8.9859-15.26-13.959-25.3116-13.2881-9.8086.6557-18.4326 6.65-23.0673 16.0347a5 5 0 0 1 -8.7715.3579c-5.6553-9.4283-15.586-14.8506-25.8487-14.1729a27.174 27.174 0 0 0 -19.3339 10.2026 31.86 31.86 0 0 0 -6.96 22.3946c.0352.5664.0889 1.1074.1494 1.6484a5 5 0 0 1 -6.3428 5.3633 26.4192 26.4192 0 0 0 -9.0722-.979c-13.7022.92-24.7207 12.2915-26.1992 27.04a5 5 0 0 1 -4.9727 4.5015c-.0361 0-.0723 0-.1084-.001-.8848-.02-1.6689-.0054-2.3955.04-16.8721 1.1324-29.5928 17.28-28.3389 35.9961a36.1282 36.1282 0 0 0 8.3272 21.0074q1.204-.1986 2.4218-.2784a81.4191 81.4191 0 0 1 131.1216-59.4373l14.11-28.1382a29.8729 29.8729 0 0 1 26.8491-16.5887h.0078a29.8883 29.8883 0 0 1 26.8631 16.59z"/><path d="m299.52 148.53a29.5756 29.5756 0 0 1 -21.1543-8.8936 4.9993 4.9993 0 0 1 -1.4111-2.93 70.7289 70.7289 0 0 0 -6.5654-22.5406 4.9984 4.9984 0 0 1 -.3926-3.1982c2.9624-14.1776 15.3784-24.4676 29.5234-24.4676 16.6524 0 30.2 13.9155 30.2 31.02 0 17.0987-13.5481 31.01-30.2 31.01zm-12.8711-14.8277a19.5694 19.5694 0 0 0 12.8711 4.8277c11.1387 0 20.2-9.4248 20.2-21.01 0-11.59-9.0615-21.02-20.2-21.02a20.4319 20.4319 0 0 0 -19.3506 14.9678 80.6549 80.6549 0 0 1 6.479 22.2343z"/><path d="m281.1611 164.19a5 5 0 0 1 -4.916-5.9179 71.5942 71.5942 0 0 0 1.2049-13.1121 72.3166 72.3166 0 0 0 -.4961-8.4537 5 5 0 0 1 8.5205-4.1025 19.6486 19.6486 0 0 0 14.0456 5.9262c11.1387 0 20.2-9.4248 20.2-21.01 0-11.59-9.0615-21.02-20.2-21.02a20.493 20.493 0 0 0 -19.7343 16.5132 5 5 0 0 1 -9.3985 1.1479 70.9685 70.9685 0 0 0 -16.251-21.7822 5 5 0 0 1 -1.1054-5.94l16.95-33.8a29.8729 29.8729 0 0 1 26.8483-16.5889h.0068a29.8886 29.8886 0 0 1 26.8641 16.59l45.26 90.28a5 5 0 0 1 -4.4512 7.2408 253.6917 253.6917 0 0 0 -81.7227 13.7578 4.9954 4.9954 0 0 1 -1.625.2714zm6.2852-18.2319q-.0292 3.011-.2783 6.0078 6.0145-1.8646 12.1035-3.437a29.4341 29.4341 0 0 1 -11.8252-2.5709zm12.0737-59.4581c16.6524 0 30.2 13.9155 30.2 31.02a31.1255 31.1255 0 0 1 -17.0771 27.9268 264.5908 264.5908 0 0 1 43.8222-5.1372l-41.7041-83.189a19.6908 19.6908 0 0 0 -17.9241-11.0706h-.0058a19.6747 19.6747 0 0 0 -17.9092 11.0679l-15.294 30.4966a80.7954 80.7954 0 0 1 10.5791 13.0085 30.1844 30.1844 0 0 1 25.313-14.123z"/><path d="m256 174.36a5.0037 5.0037 0 0 1 -2.1162-.47 251.78 251.78 0 0 0 -107.3438-23.73h-16.94a5 5 0 0 1 -5-5 81.4274 81.4274 0 0 1 162.2861-9.626 82.5085 82.5085 0 0 1 .5645 9.626 81.6621 81.6621 0 0 1 -1.375 14.9477 5.0005 5.0005 0 0 1 -3.3027 3.815c-1.3418.457-2.6748.9335-3.9981 1.42-3.5264 1.2754-6.9883 2.62-10.3135 4.0034-3.415 1.4048-6.89 2.9311-10.3457 4.5444a4.9987 4.9987 0 0 1 -2.1156.4695zm-121.2275-34.2h11.7675a261.6971 261.6971 0 0 1 109.461 23.693c2.8955-1.32 5.792-2.5771 8.6377-3.747 3.45-1.4366 7.0605-2.8379 10.7109-4.1582q.6753-.2484 1.3623-.4957a72.1807 72.1807 0 0 0 .2422-18.7456 71.4688 71.4688 0 0 0 -70.9341-62.9765 71.5176 71.5176 0 0 0 -71.2475 66.43z"/></g></g></svg>