<svg id="Layer_1" enable-background="new 0 0 100 100" viewBox="0 0 100 100" xmlns="http://www.w3.org/2000/svg"><g><path d="m86.997 13.03c-4.039-4.039-10.61-4.039-14.649 0-1.141 1.154-1.141 3.03 0 4.184 1.154 1.141 3.03 1.141 4.184 0 1.731-1.744 4.551-1.744 6.282 0 .813.813 1.259 1.915 1.259 3.121 0 1.233-.459 2.361-1.259 3.161-1.207 1.207-2.964 1.626-4.59 1.062-3.174-1.102-6.544-.393-8.8 1.862l-3.108 3.108-5.246-5.233c-1.39-1.403-3.659-1.39-5.062 0l-1.036 1.036c-.682.682-1.049 1.574-1.049 2.531s.367 1.862 1.049 2.531l.328.341c-.682.092-1.338.393-1.862.918l-7.305 7.305c-.525.525-.826 1.18-.918 1.862l-.341-.328c-1.39-1.403-3.659-1.39-5.062 0l-1.036 1.049c-.682.669-1.049 1.561-1.049 2.531 0 .957.367 1.849 1.049 2.518l.328.341c-.682.092-1.338.393-1.862.918l-7.305 7.305c-.525.525-.826 1.18-.918 1.862l-.341-.328c-1.39-1.403-3.659-1.39-5.062 0l-1.036 1.049c-.682.669-1.049 1.561-1.049 2.518 0 .97.367 1.862 1.049 2.531l.498.511c-.892.066-1.718.42-2.348 1.062l-6.688 6.675c-1.456 1.456-1.456 3.816 0 5.259l2.754 2.754-5.902 5.915c-1.154 1.154-1.154 3.016 0 4.17.575.58 1.322.869 2.083.869s1.508-.289 2.085-.866l5.902-5.902 2.754 2.741c.721.721 1.679 1.089 2.623 1.089.957 0 1.902-.367 2.636-1.089l6.675-6.689c.643-.629.997-1.456 1.075-2.348l.498.511c.669.669 1.574 1.036 2.531 1.036s1.849-.367 2.531-1.036l1.036-1.049c1.403-1.39 1.403-3.659 0-5.062l-.328-.328c.682-.105 1.338-.393 1.862-.918l7.318-7.318c.525-.511.813-1.18.905-1.862l.341.341c.669.669 1.574 1.036 2.531 1.036s1.862-.367 2.531-1.036l1.049-1.049c1.39-1.39 1.39-3.659 0-5.062l-.341-.328c.682-.105 1.338-.393 1.862-.918l7.318-7.318c.511-.511.813-1.154.918-1.862l.328.341c.669.669 1.574 1.036 2.531 1.036s1.862-.367 2.531-1.036l1.049-1.049c1.39-1.39 1.39-3.659 0-5.062l-5.246-5.233 3.121-3.108c.629-.643 1.666-.813 2.689-.472 3.79 1.298 7.895.354 10.702-2.452 1.928-1.928 2.977-4.538 2.977-7.331.003-2.794-1.046-5.391-2.974-7.318zm-72.866 75.186c-.63.63-1.679.63-2.321 0-.629-.643-.629-1.692 0-2.334l6.374-6.361 2.256-2.269 2.334 2.321zm20.603-9.849-6.688 6.675c-.944.944-2.466.944-3.41 0l-2.741-2.741 1.797-1.797 1.534 1.534c.131.118.289.184.459.184s.341-.066.472-.184c.249-.262.249-.669 0-.931l-7.252-7.239c-.249-.262-.669-.262-.918 0-.262.249-.262.669 0 .918l1.534 1.548-1.797 1.797-2.754-2.754c-.944-.944-.944-2.466 0-3.41l6.675-6.689c.459-.446 1.062-.695 1.705-.695s1.246.249 1.705.695l9.679 9.679c.459.459.708 1.062.708 1.705.001.643-.249 1.246-.708 1.705zm7.673-2.898-1.049 1.049c-.852.852-2.348.852-3.2 0l-14.663-14.649c-.42-.433-.656-.997-.656-1.613 0-.603.236-1.167.656-1.6l1.049-1.036c.446-.446 1.023-.669 1.6-.669s1.167.223 1.6.669l2.177 2.164c0 .013 0 .013.013.013l10.296 10.295 2.177 2.177c.878.878.878 2.321 0 3.2zm8.839-13.613-7.305 7.305c-.774.774-2.02.774-2.78 0l-10.308-10.295c-.761-.774-.761-2.02 0-2.78l7.318-7.318c.38-.38.879-.564 1.39-.564.498 0 .997.184 1.39.564l5.141 5.154 5.154 5.154c.761.76.761 2.006 0 2.78zm7.357-2.584-1.049 1.049c-.852.852-2.348.852-3.2 0l-7.331-7.331-5.154-5.141s0 0 0-.013l-2.177-2.164c-.42-.433-.656-.997-.656-1.6 0-.616.236-1.18.656-1.613l1.049-1.036c.446-.446 1.023-.669 1.6-.669.59 0 1.167.223 1.613.669l2.164 2.164.013.013 10.295 10.295 2.177 2.177c.879.879.879 2.321 0 3.2zm8.84-13.613-7.305 7.305c-.774.761-2.02.761-2.78 0l-10.309-10.295c-.761-.774-.761-2.02 0-2.78l7.318-7.318c.38-.38.879-.577 1.39-.577.498 0 .997.197 1.39.577l5.141 5.154 5.154 5.154c.367.367.577.866.577 1.39.001.524-.209 1.01-.576 1.39zm7.357-5.784c.879.879.879 2.321 0 3.2l-1.049 1.049c-.852.852-2.348.852-3.2 0l-7.331-7.331-5.141-5.141c-.013 0-.013-.013-.013-.013l-2.177-2.164c-.42-.433-.656-.997-.656-1.613 0-.603.236-1.167.656-1.6l1.049-1.049c.446-.433 1.023-.656 1.6-.656.59 0 1.167.223 1.613.656zm11.266-13.127c-2.452 2.452-6.033 3.279-9.338 2.151-1.508-.511-3.056-.223-4.052.774l-3.108 3.108-2.321-2.321 3.108-3.108c1.889-1.902 4.748-2.492 7.449-1.561 2.098.721 4.367.197 5.941-1.364 1.049-1.049 1.626-2.492 1.639-4.079 0-1.561-.577-3.003-1.639-4.066-2.243-2.243-5.902-2.243-8.144 0-.643.643-1.679.643-2.321 0-.643-.643-.643-1.679 0-2.321 3.528-3.528 9.259-3.528 12.787 0 1.679 1.679 2.597 3.948 2.597 6.387-.002 2.439-.92 4.721-2.598 6.4z"/><path d="m88.662 20.347c0 2.439-.918 4.721-2.597 6.4-2.452 2.452-6.033 3.279-9.338 2.151-1.508-.511-3.056-.223-4.052.774l-3.108 3.108-2.321-2.321 3.108-3.108c1.889-1.902 4.748-2.492 7.449-1.561 2.098.721 4.367.197 5.941-1.364 1.049-1.049 1.626-2.492 1.639-4.079 0-1.561-.577-3.003-1.639-4.066-2.243-2.243-5.902-2.243-8.144 0-.643.643-1.679.643-2.321 0-.643-.643-.643-1.679 0-2.321 3.528-3.528 9.259-3.528 12.787 0 1.678 1.679 2.596 3.948 2.596 6.387z" fill="#dae6f1"/><path d="m74.8 43.075-1.049 1.049c-.852.852-2.348.852-3.2 0l-7.331-7.331-5.141-5.141c-.013 0-.013-.013-.013-.013l-2.177-2.164c-.42-.433-.656-.997-.656-1.613 0-.603.236-1.167.656-1.6l1.049-1.049c.446-.433 1.023-.656 1.6-.656.59 0 1.167.223 1.613.656l14.649 14.662c.879.879.879 2.322 0 3.2z" fill="#ffb300"/><path d="m58.603 59.272-1.049 1.049c-.852.852-2.348.852-3.2 0l-7.331-7.331-5.154-5.141s0 0 0-.013l-2.177-2.164c-.42-.433-.656-.997-.656-1.6 0-.616.236-1.18.656-1.613l1.049-1.036c.446-.446 1.023-.669 1.6-.669.59 0 1.167.223 1.613.669l2.164 2.164.013.013 10.295 10.295 2.177 2.177c.879.879.879 2.321 0 3.2z" fill="#87d147"/><path d="m68.02 44.269c0 .525-.21 1.01-.577 1.39l-7.305 7.305c-.774.761-2.02.761-2.78 0l-10.309-10.295c-.761-.774-.761-2.02 0-2.78l7.318-7.318c.38-.38.879-.577 1.39-.577.498 0 .997.197 1.39.577l5.141 5.154 5.154 5.154c.368.367.578.865.578 1.39z" fill="#d32f2f"/><path d="m51.246 61.856-7.305 7.305c-.774.774-2.02.774-2.78 0l-10.308-10.295c-.761-.774-.761-2.02 0-2.78l7.318-7.318c.38-.38.879-.564 1.39-.564.498 0 .997.184 1.39.564l5.141 5.154 5.154 5.154c.761.76.761 2.006 0 2.78z" fill="#d32f2f"/><path d="m42.407 75.469-1.049 1.049c-.852.852-2.348.852-3.2 0l-14.663-14.649c-.42-.433-.656-.997-.656-1.613 0-.603.236-1.167.656-1.6l1.049-1.036c.446-.446 1.023-.669 1.6-.669s1.167.223 1.6.669l2.177 2.164c0 .013 0 .013.013.013l10.296 10.295 2.177 2.177c.878.878.878 2.321 0 3.2z" fill="#ffe082"/><path d="m35.443 76.662c0 .643-.249 1.246-.708 1.705l-6.688 6.675c-.944.944-2.466.944-3.41 0l-2.741-2.741 1.797-1.797 1.534 1.534c.131.118.289.184.459.184s.341-.066.472-.184c.249-.262.249-.669 0-.931l-7.252-7.239c-.249-.262-.669-.262-.918 0-.262.249-.262.669 0 .918l1.534 1.548-1.797 1.797-2.754-2.754c-.944-.944-.944-2.466 0-3.41l6.675-6.689c.459-.446 1.062-.695 1.705-.695s1.246.249 1.705.695l9.679 9.679c.458.459.708 1.063.708 1.705z" fill="#d32f2f"/><path d="m22.774 79.574-8.643 8.643c-.63.63-1.679.63-2.321 0-.629-.643-.629-1.692 0-2.334l6.374-6.361 2.256-2.269z" fill="#dae6f1"/></g></svg>