<svg id="Layer_1" enable-background="new 0 0 64 64" viewBox="0 0 64 64" xmlns="http://www.w3.org/2000/svg"><g><g><path d="m41.1 58.58h-12.92c-5.78 0-10.33-4.91-9.91-10.67l1.64-25.76c.38-5.19 4.71-9.21 9.91-9.21h9.64c5.21 0 9.53 4.02 9.91 9.21l1.64 25.76c.42 5.77-4.14 10.67-9.91 10.67z" fill="#ff8f83"/></g><g><path d="m19.38 30.51s-6.71 2.16-7.75-5.12c-.86-5.97-3.98-9.2-3.98-9.2h-3.94s3.98 4.85 3.77 12.97c-.28 11.34 11.13 13.42 11.13 13.42z" fill="#ffeba8"/></g><g><path d="m56 20.15-6.8.78 1.61 23.92 7.4-3.82c1.28-.67 2.08-1.99 2.08-3.43v-13.61c0-2.31-2-4.1-4.29-3.84zm.86 15.61c0 1.05-.55 2.03-1.45 2.57l-4.86 2.34-1.03-16.1 5.73-.75c.85-.11 1.61.55 1.61 1.41z" fill="#ffa669"/></g><g><path d="m41.1 59.58h-12.92c-3.03 0-5.95-1.27-8.01-3.49s-3.12-5.23-2.9-8.25l1.64-25.75c.42-5.69 5.21-10.14 10.91-10.14h9.64c5.7 0 10.49 4.45 10.91 10.13l1.64 25.77c.22 3.01-.83 6.02-2.9 8.24-2.06 2.22-4.98 3.49-8.01 3.49zm-11.28-45.63c-4.66 0-8.57 3.64-8.91 8.28l-1.64 25.75c-.18 2.52.66 4.91 2.37 6.75s4.03 2.85 6.55 2.85h12.91c2.51 0 4.84-1.01 6.55-2.85s2.55-4.23 2.37-6.74l-1.64-25.77c-.34-4.63-4.26-8.27-8.91-8.27z"/></g><g><path d="m18.61 43.58c-.06 0-.12 0-.18-.02-.12-.02-12.25-2.36-11.95-14.42.19-7.62-3.51-12.27-3.55-12.32-.24-.3-.29-.71-.13-1.06.17-.35.52-.57.9-.57h3.94c.27 0 .53.11.72.3.14.14 3.35 3.53 4.25 9.75.27 1.89.98 3.2 2.1 3.91 1.85 1.16 4.34.4 4.36.39.53-.16 1.09.12 1.25.65.17.52-.12 1.09-.64 1.25-.14.04-3.37 1.06-6.02-.6-1.65-1.03-2.67-2.83-3.03-5.33-.65-4.55-2.71-7.44-3.44-8.34h-1.62c1.23 2.14 3.06 6.29 2.91 12-.26 10.36 9.88 12.33 10.31 12.4.54.1.9.62.81 1.16-.09.51-.51.85-.99.85z"/></g><g><path d="m43.12 14.65c-.55 0-.99-.44-1-.99-.05-4-3.34-7.25-7.34-7.25-4.03 0-7.32 3.22-7.4 7.17-.01.55-.49.99-1.02.98-.55-.01-.99-.47-.98-1.02.1-5.04 4.29-9.13 9.34-9.13 5.15 0 9.34 4.14 9.4 9.22.01.55-.44 1.01-.99 1.01 0 .01-.01.01-.01.01z"/></g><g><path d="m50.81 45.86c-.36 0-.71-.2-.89-.54-.25-.49-.06-1.09.43-1.35l7.39-3.83c.95-.49 1.54-1.46 1.54-2.54v-13.61c0-.81-.35-1.59-.95-2.13-.61-.54-1.42-.8-2.23-.71l-6.8.77c-.54.07-1.04-.33-1.11-.88-.06-.55.33-1.05.88-1.11l6.8-.77c1.37-.16 2.75.28 3.78 1.2s1.62 2.24 1.62 3.62v13.62c0 1.82-1.01 3.48-2.63 4.31l-7.39 3.83c-.12.08-.28.12-.44.12z"/></g><g><path d="m50.55 41.67c-.37 0-.73-.21-.9-.57-.24-.5-.03-1.09.47-1.33l4.86-2.34c.51-.31.88-.97.88-1.67v-10.53c0-.17-.09-.27-.14-.32s-.17-.12-.33-.1l-5.73.75c-.54.07-1.05-.31-1.12-.86s.31-1.05.86-1.12l5.73-.75c.69-.09 1.39.12 1.91.58s.82 1.12.82 1.82v10.54c0 1.39-.74 2.7-1.93 3.42l-4.94 2.38c-.15.07-.3.1-.44.1z"/></g><g><path d="m28.82 56.22c-.04 0-.08 0-.12-.01-2.39-.29-4.25-1.25-5.52-2.87-2.18-2.78-1.76-6.45-1.74-6.6l1.46-24.03c.03-.55.52-.96 1.06-.94.55.03.97.51.94 1.06l-1.47 24.09c-.04.32-.69 6.56 5.51 7.3.55.07.94.56.87 1.11-.06.51-.49.89-.99.89z"/></g></g></svg>