<svg id="Layer_1" viewBox="0 0 1000 1000" xmlns="http://www.w3.org/2000/svg" data-name="Layer 1"><path d="m837 236.73a23.84 23.84 0 0 0 -33.75-33.73l-2.25 2.28a16 16 0 0 1 -22.63 0l-86.22-86.22a10.42 10.42 0 0 0 -14.75 0l-16.95 16.94a10.44 10.44 0 0 0 0 14.75l53.5 53.5a16 16 0 0 1 -22.63 22.63 5.42 5.42 0 0 0 -7.67 0l-24 24a5.42 5.42 0 0 0 0 7.67 16 16 0 1 1 -22.65 22.63l-34.26-34.25a9.34 9.34 0 0 0 -13.22 0l-18.47 18.46a9.37 9.37 0 0 0 0 13.22l67 67a16 16 0 0 1 0 22.62l-247.14 247.13a16 16 0 0 1 -19.43 2.47 143 143 0 1 0 30.81 222c44-45.94 52.12-116.42 19.84-171.38a16 16 0 0 1 2.48-19.42zm-469 572.56a97.61 97.61 0 1 1 28.58-69 97 97 0 0 1 -28.58 69z" fill="#fbc02d"/><path d="m827 246.73a23.84 23.84 0 0 0 -33.75-33.73l-2.25 2.28a16 16 0 0 1 -22.63 0l-86.22-86.22a10.42 10.42 0 0 0 -14.75 0l-16.95 16.94a10.44 10.44 0 0 0 0 14.75l53.5 53.5a16 16 0 0 1 -22.63 22.63 5.42 5.42 0 0 0 -7.67 0l-24 24a5.42 5.42 0 0 0 0 7.67 16 16 0 1 1 -22.65 22.63l-34.26-34.25a9.34 9.34 0 0 0 -13.22 0l-18.47 18.46a9.37 9.37 0 0 0 0 13.22l67 67a16 16 0 0 1 0 22.62l-247.14 247.13a16 16 0 0 1 -19.43 2.47 143 143 0 1 0 30.81 222c44-45.94 52.12-116.42 19.84-171.38a16 16 0 0 1 2.48-19.42zm-469 572.56a97.61 97.61 0 1 1 28.58-69 97 97 0 0 1 -28.58 69z" fill="#fff" opacity=".5"/><g fill="#413b32"><path d="m859.59 180.39a56 56 0 0 0 -68.87-8l-76-75.95a42.43 42.43 0 0 0 -60 0l-16.93 16.93a42.43 42.43 0 0 0 0 60l27.31 27.31a37.17 37.17 0 0 0 -4.11 3.56l-24 24a37.31 37.31 0 0 0 -3.56 4.11l-8.07-8.07a41.4 41.4 0 0 0 -58.48 0l-18.46 18.47a41.34 41.34 0 0 0 0 58.47l55.66 55.67-227.37 227.42a175.24 175.24 0 0 0 -204.29 35.82 175 175 0 0 0 252.99 241.87c50.91-53.22 62.6-133.3 30.25-198.72l403.93-403.92a55.91 55.91 0 0 0 0-78.97zm-22.59 56.34-412.39 412.35a16 16 0 0 0 -2.48 19.42c32.28 55 24.12 125.44-19.84 171.38a143 143 0 1 1 -30.81-222 16 16 0 0 0 19.43-2.47l247.14-247.19a16 16 0 0 0 0-22.62l-67-67a9.37 9.37 0 0 1 0-13.22l18.47-18.46a9.34 9.34 0 0 1 13.22 0l34.26 34.26a16 16 0 0 0 22.63-22.62 5.42 5.42 0 0 1 0-7.67l24-24a5.42 5.42 0 0 1 7.67 0 16 16 0 1 0 22.7-22.65l-53.5-53.5a10.44 10.44 0 0 1 0-14.75l16.94-16.93a10.42 10.42 0 0 1 14.75 0l86.22 86.22a16 16 0 0 0 22.63 0l2.26-2.26a23.84 23.84 0 0 1 33.7 33.71z"/><path d="m368 671.27a97.61 97.61 0 1 0 28.58 69 97 97 0 0 0 -28.58-69zm-22.65 115.39a65.59 65.59 0 1 1 19.21-46.38 65.16 65.16 0 0 1 -19.21 46.38z"/></g></svg>