<svg id="Filled_Expand" height="512" viewBox="0 0 64 64" width="512" xmlns="http://www.w3.org/2000/svg" data-name="Filled Expand"><path d="m18.876 62h26.248c6.547-4.537 10.876-12.787 10.876-24h-48c0 11.213 4.329 19.463 10.876 24z" fill="#f55a8c"/><path d="m32 2c-13.255 0-24 18.327-24 36h48c0-17.673-10.745-36-24-36z" fill="#ebf5ff"/><path d="m37 54h-10l5-9z" fill="#5f6482"/><path d="m32 25.25a1.75 1.75 0 0 0 -1.75 1.75v4a1.75 1.75 0 0 0 3.5 0v-4a1.75 1.75 0 0 0 -1.75-1.75z"/><path d="m39 23.25a1.75 1.75 0 0 0 -1.75 1.75v6a1.75 1.75 0 0 0 3.5 0v-6a1.75 1.75 0 0 0 -1.75-1.75z"/><path d="m46 32.75a1.75 1.75 0 0 0 1.75-1.75v-4a1.75 1.75 0 0 0 -3.5 0v4a1.75 1.75 0 0 0 1.75 1.75z"/><path d="m25 23.25a1.75 1.75 0 0 0 -1.75 1.75v6a1.75 1.75 0 0 0 3.5 0v-6a1.75 1.75 0 0 0 -1.75-1.75z"/><path d="m18 25.25a1.75 1.75 0 0 0 -1.75 1.75v4a1.75 1.75 0 0 0 3.5 0v-4a1.75 1.75 0 0 0 -1.75-1.75z"/><path d="m27 55.75h10a1.75 1.75 0 0 0 1.53-2.6l-5-9a1.751 1.751 0 0 0 -3.06 0l-5 9a1.75 1.75 0 0 0 1.53 2.6zm5-7.15 2.026 3.646h-4.052z"/><path d="m59 36.25h-1.286c-.687-17.35-11.457-36-25.714-36s-25.027 18.65-25.714 36h-1.286a1.75 1.75 0 0 0 0 3.5h1.287c.41 10.4 4.488 18.765 11.592 23.688a1.744 1.744 0 0 0 1 .312h26.245a1.744 1.744 0 0 0 1-.312c7.1-4.923 11.182-13.292 11.592-23.688h1.284a1.75 1.75 0 0 0 0-3.5zm-14.435 24h-25.13c-5.874-4.3-9.26-11.514-9.647-20.5h44.424c-.387 8.986-3.773 16.201-9.647 20.5zm-34.779-24c.684-16.942 11.157-32.5 22.214-32.5s21.53 15.558 22.214 32.5z"/></svg>