<svg id="Layer_1" viewBox="0 0 1000 1000" xmlns="http://www.w3.org/2000/svg" data-name="Layer 1"><path d="m600.15 516.45a13.81 13.81 0 0 1 -13.79 13.8h-73.64a13.8 13.8 0 0 1 0-27.6h73.64a13.81 13.81 0 0 1 13.79 13.8z" fill="#bdbdbd"/><path d="m578.32 165.73v176.07h-57.56v-176.07a28.78 28.78 0 0 1 57.56 0z" fill="#e53935"/><path d="m884 148.07v456.37h-105.08c-4.56-222.32 29.41-337.89 59.08-395.94 16.58-32.34 33.49-50.5 46-60.43z" fill="#bdbdbd"/><path d="m875.8 842.48a19.12 19.12 0 0 1 -3.47 12.73c-4.19 5.55-11 8.11-21 7.81l-3.27-.1c-3.73-.12-7.58-.25-11.51-.25h-20.61a18.72 18.72 0 0 1 -10-2.6c-2.25-1.43-7.53-4.78-5.23-17.67a9.65 9.65 0 0 1 4.31-6.78 5.79 5.79 0 0 1 2.64-.84 16 16 0 0 0 15.17-18.69l-6.37-37.18c0-.14 0-.28-.07-.41-.1-.51-10-51.58 1.47-88.39.65-2.08 1.5-4.37 2.6-7a54.23 54.23 0 0 0 -2.11-46.68h61.75a409.15 409.15 0 0 0 -6.84 65.63c-.89 42.26.22 103.94 2.54 140.42z" fill="#fbc02d"/><path d="m247.42 170.38v170.06a33.24 33.24 0 0 1 -9.4 23.18 16 16 0 0 0 -4.49 11.12v221.26h-39.07v-221.26a16 16 0 0 0 -4.46-11.12 33.22 33.22 0 0 1 -9.4-23.18v-170.06a33.43 33.43 0 1 1 66.85 0z" fill="#0288d1"/><path d="m249.83 628h-71.68a62.22 62.22 0 0 0 -62.15 62.15v172.9h196v-172.9a62.23 62.23 0 0 0 -62.17-62.15zm-69.26 190.33a16 16 0 0 1 -32 0v-145.61a16 16 0 0 1 32 0zm49.42 0a16 16 0 1 1 -32 0v-145.61a16 16 0 0 1 32 0zm49.43 0a16 16 0 1 1 -32 0v-145.61a16 16 0 1 1 32 0z" fill="#bdbdbd"/><g fill="#fff" opacity=".5"><path d="m590.15 526.45a13.81 13.81 0 0 1 -13.79 13.8h-73.64a13.8 13.8 0 0 1 0-27.6h73.64a13.81 13.81 0 0 1 13.79 13.8z"/><path d="m568.32 175.73v176.07h-57.56v-176.07a28.78 28.78 0 0 1 57.56 0z"/><path d="m874 158.07v456.37h-105.08c-4.56-222.32 29.41-337.89 59.08-395.94 16.58-32.34 33.49-50.5 46-60.43z"/><path d="m865.8 852.48a19.12 19.12 0 0 1 -3.47 12.73c-4.19 5.55-11 8.11-21 7.81l-3.27-.1c-3.73-.12-7.58-.25-11.51-.25h-20.61a18.72 18.72 0 0 1 -10-2.6c-2.25-1.43-7.53-4.78-5.23-17.67a9.65 9.65 0 0 1 4.31-6.78 5.79 5.79 0 0 1 2.64-.84 16 16 0 0 0 15.17-18.69l-6.37-37.18c0-.14 0-.28-.07-.41-.1-.51-10-51.58 1.47-88.39.65-2.08 1.5-4.37 2.6-7a54.23 54.23 0 0 0 -2.11-46.68h61.75a409.15 409.15 0 0 0 -6.84 65.63c-.89 42.26.22 103.94 2.54 140.42z"/><path d="m237.42 180.38v170.06a33.24 33.24 0 0 1 -9.4 23.18 16 16 0 0 0 -4.49 11.12v221.26h-39.07v-221.26a16 16 0 0 0 -4.46-11.12 33.22 33.22 0 0 1 -9.4-23.18v-170.06a33.43 33.43 0 1 1 66.85 0z"/><path d="m239.83 638h-71.68a62.22 62.22 0 0 0 -62.15 62.15v172.9h196v-172.9a62.23 62.23 0 0 0 -62.17-62.15zm-69.26 190.33a16 16 0 0 1 -32 0v-145.61a16 16 0 0 1 32 0zm49.42 0a16 16 0 1 1 -32 0v-145.61a16 16 0 0 1 32 0zm49.43 0a16 16 0 0 1 -32 0v-145.61a16 16 0 0 1 32 0z"/></g><g fill="#413b32"><path d="m549.54 895.05h-.62c-59.36-2.32-99.65-17.19-119.75-44.21-17.91-24.07-14.69-50.51-11.18-64.12 1.32-5.12 2.6-10.64 4.14-17.9 10.64-49.86 71.72-220.7 74.31-227.95a16 16 0 1 1 30.13 10.79c-.63 1.75-63 176.05-73.14 223.84-1.64 7.71-3 13.63-4.45 19.2-2.55 9.88-3.6 24.32 5.86 37 13.79 18.53 46.53 29.36 94.7 31.32 48.18-2 80.91-12.79 94.7-31.32 9.46-12.71 8.41-27.15 5.87-37-1.44-5.57-2.81-11.49-4.46-19.2-10.19-47.79-72.51-222.09-73.14-223.84a16 16 0 0 1 30.13-10.79c2.59 7.25 63.67 178.09 74.31 227.95 1.54 7.26 2.82 12.78 4.14 17.9 3.51 13.61 6.73 40-11.18 64.12-20.1 27-60.39 41.89-119.74 44.21z"/><path d="m549.54 895.05a16 16 0 0 1 -2.68-.23c-1.88-.32-46-8.5-56.48-68.4a119.38 119.38 0 0 1 -1.54-24.53c.87-26.9 3.73-92.59 11.51-121.67 2.36-8.82 5.34-20.46 7.43-32.23 18-101.49 21.56-106.77 24.13-110.62a16 16 0 0 1 17.63-6.53 16 16 0 0 1 17.64 6.53c2.57 3.86 6.08 9.13 24.12 110.62 2.09 11.77 5.07 23.41 7.43 32.23 7.78 29.08 10.64 94.78 11.51 121.67a118.69 118.69 0 0 1 -1.54 24.53c-10.46 59.9-54.6 68.08-56.47 68.4a16.19 16.19 0 0 1 -2.69.23zm0-296.95c-2.82 14.49-6.22 32.82-10.25 55.49-2.31 13-5.5 25.46-8 34.9-7.11 26.59-9.79 94.31-10.44 114.43a87.76 87.76 0 0 0 1.09 18c5.17 29.64 21.13 38.89 27.57 41.46 6.64-2.64 22.54-11.94 27.7-41.46a87.81 87.81 0 0 0 1.08-18c-.65-20.12-3.32-87.83-10.44-114.43-2.53-9.44-5.72-21.94-8-34.9-4.09-22.67-7.49-41-10.31-55.49z"/><path d="m586.36 470.65h-73.64a45.8 45.8 0 0 0 0 91.6h73.64a45.8 45.8 0 0 0 0-91.6zm-73.64 59.6a13.8 13.8 0 0 1 0-27.6h73.64a13.8 13.8 0 0 1 0 27.6z"/><path d="m549.54 105a60.85 60.85 0 0 0 -60.78 60.78v192.02a16 16 0 0 0 16 16h89.56a16 16 0 0 0 16-16v-192.07a60.85 60.85 0 0 0 -60.78-60.73zm28.78 236.8h-57.56v-176.07a28.78 28.78 0 0 1 57.56 0z"/><path d="m549.53 502.64a16 16 0 0 1 -16-16v-128.83a16 16 0 1 1 32 0v128.83a16 16 0 0 1 -16 16z"/><path d="m910 108.5a16 16 0 0 0 -13.43-3.18c-4.57 1-45.74 11.72-83.94 82.66-21.6 40.1-38.18 92.12-49.27 154.59-13.69 77.07-19.1 170.71-16.1 278.32a16 16 0 0 0 16 15.55h136.74a16 16 0 0 0 15.34-11.44l.09-.33c.1-.35.18-.7.25-1 .08-.36.13-.71.18-1.07s.07-.58.09-.88c0-.1 0-.21 0-.32 0-.3 0-.61 0-.91v-499.49a16 16 0 0 0 -5.95-12.5zm-131.08 495.94c-4.56-222.32 29.41-337.89 59.08-395.94 16.54-32.34 33.45-50.46 46-60.43v456.37z"/><path d="m916 620.43v.91.32c0 .3-.05.59-.09.88s-.1.71-.18 1.07c-.07.35-.15.7-.25 1l-.09.33a364.76 364.76 0 0 0 -10.08 77.74c-.88 41.49.21 102 2.47 137.72a51 51 0 0 1 -9.86 34c-7.15 9.47-20.72 20.55-45 20.56-.8 0-1.61 0-2.43 0l-3.35-.11c-3.64-.11-7.07-.23-10.48-.23h-20.72a50.54 50.54 0 0 1 -27.17-7.58c-9.59-6.08-24.88-20.71-19.59-50.32a41.39 41.39 0 0 1 19.76-28.83l-4-23.45c-.89-4.6-11.21-60.35 2.36-103.9 1-3 2.13-6.26 3.62-9.82 3.17-7.58 4.93-21.81-17-34.33-1-.59-2.09-1.17-3.22-1.74a16 16 0 0 1 14.53-28.52c16.71 8.52 27.21 19.14 33.15 30.26a54.23 54.23 0 0 1 2.11 46.68c-1.1 2.62-1.95 4.91-2.6 7-11.47 36.81-1.57 87.88-1.47 88.39 0 .13 0 .27.07.41l6.37 37.18a16 16 0 0 1 -15.17 18.69 5.79 5.79 0 0 0 -2.64.84 9.65 9.65 0 0 0 -4.31 6.78c-2.3 12.89 3 16.24 5.23 17.67a18.72 18.72 0 0 0 10 2.6h20.63c3.93 0 7.78.13 11.51.25l3.27.1c9.94.3 16.79-2.26 21-7.81a19.12 19.12 0 0 0 3.47-12.73c-2.32-36.49-3.43-98.16-2.54-140.41a409.15 409.15 0 0 1 6.84-65.63c2.28-12.15 4.29-19.55 4.47-20.23a16 16 0 0 1 31.38 4.26z"/><path d="m214 105a65.5 65.5 0 0 0 -65.42 65.43v170.01a65 65 0 0 0 13.89 40.26v231.3a16 16 0 0 0 16 16h71.07a16 16 0 0 0 16-16v-231.31a65 65 0 0 0 13.89-40.25v-170.06a65.5 65.5 0 0 0 -65.43-65.38zm-19.54 491v-221.26a16 16 0 0 0 -4.46-11.12 33.22 33.22 0 0 1 -9.4-23.18v-170.06a33.43 33.43 0 1 1 66.85 0v170.06a33.24 33.24 0 0 1 -9.4 23.18 16 16 0 0 0 -4.49 11.12v221.26z"/><path d="m265.53 597.32a93.44 93.44 0 0 0 -15.7-1.32h-71.68a94.11 94.11 0 0 0 -94.15 94.15v188.9a16 16 0 0 0 16 16h228a16 16 0 0 0 16-16v-188.9a94.29 94.29 0 0 0 -78.47-92.83zm46.47 265.73h-196v-172.9a62.22 62.22 0 0 1 62.15-62.15h71.68a62.23 62.23 0 0 1 62.17 62.15z"/><path d="m180.57 672.72v145.61a16 16 0 0 1 -32 0v-145.61a16 16 0 0 1 32 0z"/><path d="m230 672.72v145.61a16 16 0 1 1 -32 0v-145.61a16 16 0 0 1 32 0z"/><path d="m279.42 672.72v145.61a16 16 0 1 1 -32 0v-145.61a16 16 0 1 1 32 0z"/></g></svg>