<svg id="Layer_1-2" viewBox="0 0 64 64" xmlns="http://www.w3.org/2000/svg"><g id="Kitchen_Tools"><path d="m19 20h4v29h-4z" fill="#f4a37a"/><path d="m18 20v-10c0-4.96289062 4.03759766-9 9-9s9 4.03710938 9 9v4h-6v-4c0-1.65429688-1.34570312-3-3-3s-3 1.34570312-3 3v10z" fill="#ffc299"/><path d="m49 25h4v24h-4z" fill="#95bcf4"/><path d="m12.99902344 63c-.31835938 0-.64111328-.01464844-.96582031-.04492188-5.06542969-.47753906-9.03320312-4.9921875-9.03320312-10.27734375v-3.67773438h20v4c0 2.66601562-1.04150391 5.17675781-2.93261719 7.06738281-1.89111328 1.89160156-4.40136719 2.93261719-7.06787109 2.93261719h-.00048828z" fill="#ffc299"/><path d="m48 25-7-3v-21h20v21l-7 3z" fill="#b6d4ff"/><path d="m51 63c-2.20556641 0-4-1.79394531-4-4v-9c0-.55175781.44873047-1 1-1h6c.55126953 0 1 .44824219 1 1v9c0 2.20605469-1.79443359 4-4 4z" fill="#b6d4ff"/><g fill="#433d4c"><path d="m27 0c-5.51416016 0-10 4.48632812-10 10v10c0 .55273438.44775391 1 1 1v27h-15c-.55224609 0-1 .44726562-1 1v4c0 6.06542969 4.93457031 11 11 11s11-4.93457031 11-11v-32c.55224609 0 1-.44726562 1-1v-10c0-1.10253906.89697266-2 2-2s2 .89746094 2 2v4c0 .55273438.44775391 1 1 1h6c.55224609 0 1-.44726562 1-1v-4c0-5.51367188-4.48583984-10-10-10zm-5 53c0 4.96289062-4.03759766 9-9 9s-9-4.03710938-9-9v-3h18zm0-5h-2v-27h2zm13-35h-4v-3c0-2.20605469-1.79443359-4-4-4s-4 1.79394531-4 4v9h-4v-9c0-4.41113281 3.58886719-8 8-8s8 3.58886719 8 8z"/><path d="m61 0h-20c-.55224609 0-1 .44726562-1 1v21c0 .40039062.23828125.76171875.60595703.91894531l7 3c.12451172.05371094.25878906.08105469.39404297.08105469v22c-1.10302734 0-2 .89746094-2 2v9c0 2.75683594 2.24316406 5 5 5s5-2.24316406 5-5v-9c0-1.10253906-.89697266-2-2-2v-22c.13525391 0 .26953125-.02734375.39404297-.08105469l7-3c.36767578-.15722656.60595703-.51855469.60595703-.91894531v-21c0-.55273438-.44775391-1-1-1zm-7 59c0 1.65429688-1.34570312 3-3 3s-3-1.34570312-3-3v-9h6zm-2-11h-2v-22h2zm8-26.65917969-6.20507812 2.65917969h-5.58984375l-6.20507812-2.65917969v-19.34082031h18v19.34082031z"/><circle cx="51" cy="59" r="1"/><path d="m46 19c.55224609 0 1-.44726562 1-1v-12c0-.55273438-.44775391-1-1-1s-1 .44726562-1 1v12c0 .55273438.44775391 1 1 1z"/><path d="m51 19c.55224609 0 1-.44726562 1-1v-12c0-.55273438-.44775391-1-1-1s-1 .44726562-1 1v12c0 .55273438.44775391 1 1 1z"/><path d="m56 19c.55224609 0 1-.44726562 1-1v-12c0-.55273438-.44775391-1-1-1s-1 .44726562-1 1v12c0 .55273438.44775391 1 1 1z"/></g></g></svg>