<svg clip-rule="evenodd" fill-rule="evenodd" height="512" stroke-linejoin="round" stroke-miterlimit="2" viewBox="0 0 512 512" width="512" xmlns="http://www.w3.org/2000/svg"><g><g><path d="m209.266 54c106.044 0 171.108 90.513 171.108 202s-65.064 202-171.108 202-171.108-90.513-171.108-202 65.064-202 171.108-202z" fill="#ffb198"/><path d="m191.783 54.888c5.693-.602 11.523-.888 17.483-.888 106.044 0 171.108 90.513 171.108 202s-65.064 202-171.108 202c-5.96 0-11.79-.286-17.483-.888 95.669-9.352 153.625-95.891 153.625-201.112s-57.956-191.76-153.625-201.112z" fill="#e99a82"/><path d="m146.811 120.921c16.616 4.453 8.855 43.188-3.359 88.773-12.215 45.585-24.287 80.869-40.903 76.417-16.616-4.453-27.745-45.072-15.53-90.657 12.214-45.585 43.177-78.985 59.792-74.533z" fill="#ffccbc"/><path d="m209.266 45.667c-110.749 0-179.441 93.899-179.441 210.333s68.692 210.333 179.441 210.333 179.441-93.899 179.441-210.333-68.692-210.333-179.441-210.333zm0 16.666c101.34 0 162.775 87.126 162.775 193.667s-61.435 193.667-162.775 193.667-162.775-87.126-162.775-193.667 61.435-193.667 162.775-193.667z" fill="#8d4ba0"/></g><g><circle cx="334.418" cy="318.576" fill="#ffb198" r="139.424"/><circle cx="334.418" cy="318.576" fill="#dbffa6" r="107.023"/><path d="m399.334 233.534c25.594 19.547 42.107 50.381 42.107 85.042 0 59.067-47.956 107.023-107.023 107.023-34.661 0-65.495-16.513-85.042-42.107 18 13.793 40.509 21.981 64.916 21.981 59.067 0 107.023-47.956 107.023-107.023 0-24.407-8.188-46.916-21.981-64.916z" fill="#c9fd7b"/><circle cx="334.418" cy="318.576" fill="#f8ffed" r="29.456"/><path d="m264.944 272.55c3.313 1.306.808 9.09-2.774 18.178s-6.893 16.061-10.206 14.756c-3.312-1.306-4.648-9.921-1.066-19.009s10.734-15.23 14.046-13.925z" fill="#f2ffe0"/><g fill="#8d4ba0"><circle cx="334.418" cy="249.846" r="9.819"/><path d="m389.96 263.034c3.832 3.832 3.832 10.054 0 13.885-3.831 3.832-10.053 3.832-13.885 0-3.832-3.831-3.832-10.053 0-13.885s10.054-3.832 13.885 0z"/><path d="m412.967 318.576c0 5.419-4.4 9.819-9.819 9.819s-9.818-4.4-9.818-9.819 4.399-9.818 9.818-9.818 9.819 4.399 9.819 9.818z"/><path d="m389.96 374.118c-3.831 3.832-10.053 3.832-13.885 0-3.832-3.831-3.832-10.053 0-13.885s10.054-3.832 13.885 0c3.832 3.832 3.832 10.054 0 13.885z"/><circle cx="334.418" cy="387.306" r="9.819"/><path d="m278.876 374.118c-3.832-3.831-3.832-10.053 0-13.885s10.054-3.832 13.885 0c3.832 3.832 3.832 10.054 0 13.885-3.831 3.832-10.053 3.832-13.885 0z"/><path d="m255.869 318.576c0-5.419 4.4-9.818 9.819-9.818s9.819 4.399 9.819 9.818-4.4 9.819-9.819 9.819-9.819-4.4-9.819-9.819z"/><path d="m278.876 263.034c3.832-3.832 10.054-3.832 13.885 0 3.832 3.832 3.832 10.054 0 13.885-3.831 3.832-10.053 3.832-13.885 0-3.832-3.831-3.832-10.053 0-13.885z"/><path d="m334.418 170.819c-81.549 0-147.757 66.208-147.757 147.757 0 81.55 66.208 147.757 147.757 147.757 81.55 0 147.757-66.207 147.757-147.757 0-81.549-66.207-147.757-147.757-147.757zm0 16.667c72.351 0 131.091 58.739 131.091 131.09s-58.74 131.091-131.091 131.091-131.09-58.74-131.09-131.091 58.739-131.09 131.09-131.09z"/><path d="m334.418 203.22c-63.667 0-115.356 51.689-115.356 115.356s51.689 115.356 115.356 115.356 115.356-51.689 115.356-115.356-51.689-115.356-115.356-115.356zm0 16.667c54.468 0 98.689 44.221 98.689 98.689s-44.221 98.689-98.689 98.689-98.689-44.221-98.689-98.689 44.221-98.689 98.689-98.689z"/><path d="m334.418 280.787c-20.856 0-37.789 16.933-37.789 37.789s16.933 37.789 37.789 37.789 37.789-16.933 37.789-37.789-16.933-37.789-37.789-37.789zm0 16.667c11.658 0 21.123 9.464 21.123 21.122s-9.465 21.123-21.123 21.123-21.122-9.465-21.122-21.123 9.464-21.122 21.122-21.122z"/></g></g></g></svg>