<svg id="Layer_1" viewBox="0 0 1000 1000" xmlns="http://www.w3.org/2000/svg" data-name="Layer 1"><path d="m526.52 150.36v47.06a26.52 26.52 0 0 1 -53 0v-47.06a26.52 26.52 0 0 1 53 0z" fill="#424242"/><path d="m659.86 337.68v45.96l-26.62 8.91v-54.87z" fill="#424242"/><path d="m601.24 337.68v65.58l-26.62 8.91v-74.49z" fill="#424242"/><path d="m366.76 337.68v54.87l-26.62-8.91v-45.96z" fill="#424242"/><path d="m425.38 337.68v74.49l-26.62-8.91v-65.58z" fill="#424242"/><path d="m484 337.68v94.11l-26.62-8.91v-85.2z" fill="#424242"/><path d="m542.62 337.68v85.2l-26.62 8.91v-94.11z" fill="#424242"/><path d="m625.82 305.68h-251.64a121 121 0 0 1 67.3-116v7.75a58.52 58.52 0 1 0 117 0v-7.75a121 121 0 0 1 67.34 116z" fill="#546e7a"/><path d="m609.12 434.36a120.44 120.44 0 0 1 -218.24 0l45 15.06c.25.09.5.18.76.25l57.85 19.33.43.14a13.34 13.34 0 0 0 1.88.5 11 11 0 0 0 1.28.21 5 5 0 0 0 .54.06h.59.79.79.59a5 5 0 0 0 .54-.06 11 11 0 0 0 1.28-.21 13.34 13.34 0 0 0 1.88-.5l.43-.14 57.85-19.37c.26-.07.51-.16.76-.25z" fill="#546e7a"/><path d="m386.94 563.28v113.58h-135.62c8.68-59.86 65.06-107.28 135.62-113.58z" fill="#424242"/><path d="m748.68 676.86h-135.62v-113.58c70.56 6.3 126.99 53.72 135.62 113.58z" fill="#424242"/><path d="m280.88 708.86h74.77v182.98h-74.77z" fill="#546e7a"/><path d="m612.35 708.86v183h-224.7v-183h15.29a16 16 0 0 0 16-16v-111.7a615.14 615.14 0 0 0 81.06 5.37 615.14 615.14 0 0 0 81.06-5.37v111.7a16 16 0 0 0 16 16z" fill="#546e7a"/><path d="m644.35 708.86h74.77v182.98h-74.77z" fill="#546e7a"/><g fill="#fff" opacity=".5"><path d="m516.52 160.36v47.06a26.52 26.52 0 1 1 -53 0v-47.06a26.52 26.52 0 1 1 53 0z"/><path d="m649.86 347.68v45.96l-26.62 8.91v-54.87z"/><path d="m591.24 347.68v65.58l-26.62 8.91v-74.49z"/><path d="m356.76 347.68v54.87l-26.62-8.91v-45.96z"/><path d="m415.38 347.68v74.49l-26.62-8.91v-65.58z"/><path d="m474 347.68v94.11l-26.62-8.91v-85.2z"/><path d="m532.62 347.68v85.2l-26.62 8.91v-94.11z"/><path d="m615.82 315.68h-251.64a121 121 0 0 1 67.3-116v7.75a58.52 58.52 0 1 0 117 0v-7.75a121 121 0 0 1 67.34 116z"/><path d="m599.12 444.36a120.44 120.44 0 0 1 -218.24 0l45 15.06c.25.09.5.18.76.25l57.85 19.33.43.14a13.34 13.34 0 0 0 1.88.5 11 11 0 0 0 1.28.21 5 5 0 0 0 .54.06h.59.79.79.59a5 5 0 0 0 .54-.06 11 11 0 0 0 1.28-.21 13.34 13.34 0 0 0 1.88-.5l.43-.14 57.85-19.37c.26-.07.51-.16.76-.25z"/><path d="m376.94 573.28v113.58h-135.62c8.68-59.86 65.06-107.28 135.62-113.58z"/><path d="m738.68 686.86h-135.62v-113.58c70.56 6.3 126.99 53.72 135.62 113.58z"/><path d="m270.88 718.86h74.77v182.98h-74.77z"/><path d="m602.35 718.86v183h-224.7v-183h15.29a16 16 0 0 0 16-16v-111.7a615.14 615.14 0 0 0 81.06 5.37 615.14 615.14 0 0 0 81.06-5.37v111.7a16 16 0 0 0 16 16z"/><path d="m634.35 718.86h74.77v182.98h-74.77z"/></g><g fill="#413b32"><path d="m649.65 412.19c-.6 3.14-1.3 6.25-2.08 9.31a152.41 152.41 0 0 1 -295.14 0c-.78-3.06-1.48-6.17-2.08-9.31a16 16 0 0 1 16.41-19 15.81 15.81 0 0 1 3.84.63l1 .35a16 16 0 0 1 10.13 12 120 120 0 0 0 7 23.41q1 2.42 2.1 4.77a120.44 120.44 0 0 0 218.24 0q1.1-2.36 2.1-4.77a120 120 0 0 0 7-23.41 16 16 0 0 1 10.12-12l1.1-.37a15.48 15.48 0 0 1 3.8-.62 16 16 0 0 1 16.41 19z"/><path d="m473.48 166.26v.92a16 16 0 0 1 -11.69 14.75 118.28 118.28 0 0 0 -20.31 7.74 121 121 0 0 0 -67.3 116v.22l.14 2.17.84 12.54a16 16 0 0 1 -14.9 17c-.36 0-.73 0-1.08 0a16 16 0 0 1 -15.95-14.94l-1-14.71c-.05-.78-.1-1.57-.14-2.35a152.45 152.45 0 0 1 99.36-150.77q5.76-2.15 11.7-3.8a16 16 0 0 1 19.71 11.1 16.25 16.25 0 0 1 .62 4.13z"/><path d="m657.88 305.68c0 .78-.09 1.57-.14 2.35l-1 14.71a16 16 0 0 1 -16 14.94c-.36 0-.72 0-1.08 0s-.61-.05-.91-.09-.6-.08-.89-.13h-.18a5.6 5.6 0 0 1 -.59-.12c-.28-.06-.56-.14-.83-.22a9.43 9.43 0 0 1 -.9-.29l-.36-.13-.41-.17c-.46-.19-.9-.4-1.33-.63h-.07c-.27-.15-.54-.3-.8-.46l-.14-.1c-.22-.13-.44-.28-.65-.43h-.05l-.26-.19c-.19-.14-.38-.28-.56-.43s-.23-.19-.34-.29l-.42-.37c-.12-.1-.23-.21-.34-.32l-.39-.39-.18-.2-.08-.08c-.07-.07-.13-.15-.19-.22v-.05s0 0 0 0c-.09-.1-.17-.21-.25-.31v-.06a3.25 3.25 0 0 1 -.23-.29l-.39-.52-.12-.17c-.09-.13-.18-.26-.26-.4l-.15-.24a.21.21 0 0 1 0-.06v-.05l-.05-.08c-.16-.26-.31-.54-.46-.82a.25.25 0 0 0 0-.07c-.14-.28-.27-.57-.4-.86a1.17 1.17 0 0 1 0-.11c-.05-.12-.11-.25-.16-.38s-.12-.3-.18-.46v-.09c-.12-.33-.23-.68-.33-1s-.17-.61-.23-.92c0-.08 0-.16 0-.23v-.15c-.05-.25-.1-.5-.13-.75a.25.25 0 0 1 0-.08c0-.18-.05-.35-.07-.53s0-.35 0-.53a.49.49 0 0 1 0-.12c0-.35 0-.7 0-1.05s0-.72 0-1.08l.84-12.54.14-2.17c0-.07 0-.15 0-.22a121 121 0 0 0 -67.3-116 118.28 118.28 0 0 0 -20.31-7.74 16 16 0 0 1 -11.69-14.75v-.92a16.25 16.25 0 0 1 .59-4 16 16 0 0 1 19.71-11.1q5.94 1.66 11.7 3.8a152.45 152.45 0 0 1 99.36 150.77z"/><path d="m639.73 337.64c-.31 0-.61-.05-.91-.09s-.6-.08-.89-.13h-.18a5.6 5.6 0 0 1 -.59-.12c-.28-.06-.56-.14-.83-.22a9.43 9.43 0 0 1 -.9-.29l-.36-.13-.41-.17c-.46-.19-.9-.4-1.33-.63h-.07c-.27-.15-.54-.3-.8-.46l-.14-.1c-.22-.13-.44-.28-.65-.43h-.05l-.26-.19c-.19-.14-.38-.28-.56-.43s-.23-.19-.34-.29l-.42-.37c-.12-.1-.23-.21-.34-.32l-.39-.39-.18-.2-.08-.08c-.07-.07-.13-.15-.19-.22s0 0 0-.05 0 0 0 0c-.09-.1-.17-.21-.25-.31v-.06a3.25 3.25 0 0 1 -.23-.29l-.39-.52-.12-.17c-.09-.13-.18-.26-.26-.4l-.15-.24a.21.21 0 0 1 0-.06v-.05l-.05-.08c-.16-.26-.31-.54-.46-.82a.25.25 0 0 0 0-.07c-.14-.28-.28-.57-.4-.86a1.17 1.17 0 0 1 0-.11c-.05-.12-.11-.25-.16-.38s-.12-.3-.18-.46v-.09c-.12-.33-.23-.68-.33-1s-.17-.61-.23-.92c0-.08 0-.16 0-.23v-.15a6.54 6.54 0 0 1 -.65-1.06.25.25 0 0 1 0-.08c0-.18-.05-.35-.07-.53s0-.35 0-.53a.49.49 0 0 1 0-.12c0-.35 0-.7 0-1.05s0-.72 0-1.08l.84-12.54c-.26-.16-.53-.31-.8-.46l-.69-.35a13 13 0 0 0 -1.21-.52c-.24-.1-.49-.18-.74-.26l-.45-.14a11.61 11.61 0 0 0 -1.16-.3l-.55-.11-.55-.09a15.69 15.69 0 0 0 -2.28-.16 16 16 0 0 0 -16 16v16h39.57c-.46 0-.82-.01-1.18-.04zm-81.11 112.75a16 16 0 0 1 -16-16v-11.51l-26.62 8.91-16 5.35-16-5.35-26.62-8.91v11.51a16 16 0 0 1 -16 16 15.82 15.82 0 0 1 -4.74-.72l57.85 19.33.43.14a13.34 13.34 0 0 0 1.88.5 11 11 0 0 0 1.28.21 5 5 0 0 0 .54.06h.59.79.79.59a5 5 0 0 0 .54-.06 11 11 0 0 0 1.28-.21 13.34 13.34 0 0 0 1.88-.5l.43-.14 57.85-19.37a15.82 15.82 0 0 1 -4.74.76zm-187-56.21a16 16 0 0 1 10.13 12 120 120 0 0 0 7 23.41l.53-.23.79-.37.16-.08c.27-.15.54-.3.8-.46s.54-.34.8-.52.53-.37.78-.58.51-.41.75-.63.47-.42.69-.64l.06-.06c.22-.22.43-.45.64-.69s.42-.49.61-.74.31-.4.45-.61l.37-.54.33-.52c.23-.39.44-.8.64-1.21.12-.24.22-.47.32-.71a15.09 15.09 0 0 0 .69-2 5.66 5.66 0 0 0 .15-.59c.05-.19.09-.39.13-.59.07-.4.14-.8.18-1.2a16.3 16.3 0 0 0 .11-1.86v-11.5zm268.08-56.54c-.31 0-.61-.05-.91-.09s-.6-.08-.89-.13h-.18a5.6 5.6 0 0 1 -.59-.12c-.28-.06-.56-.14-.83-.22a9.43 9.43 0 0 1 -.9-.29l-.36-.13-.41-.17c-.46-.19-.9-.4-1.33-.63h-.07c-.27-.15-.54-.3-.8-.46l-.14-.1c-.22-.13-.44-.28-.65-.43h-.05l-.26-.19c-.19-.14-.38-.28-.56-.43s-.23-.19-.34-.29l-.42-.37c-.12-.1-.23-.21-.34-.32l-.39-.39-.18-.2-.08-.08c-.07-.07-.13-.15-.19-.22s0 0 0-.05 0 0 0 0c-.09-.1-.17-.21-.25-.31v-.06a3.25 3.25 0 0 1 -.23-.29l-.39-.52-.12-.17c-.09-.13-.18-.26-.26-.4l-.15-.24a.21.21 0 0 1 0-.06v-.05l-.05-.08c-.16-.26-.31-.54-.46-.82a.25.25 0 0 0 0-.07c-.14-.28-.28-.57-.4-.86a1.17 1.17 0 0 1 0-.11c-.05-.12-.11-.25-.16-.38s-.12-.3-.18-.46v-.09c-.12-.33-.23-.68-.33-1s-.17-.61-.23-.92c0-.08 0-.16 0-.23v-.15a6.54 6.54 0 0 1 -.62-1.06.25.25 0 0 1 0-.08c0-.18-.05-.35-.07-.53s0-.35 0-.53a.49.49 0 0 1 0-.12c0-.35 0-.7 0-1.05s0-.72 0-1.08l.84-12.54c-.26-.16-.53-.31-.8-.46l-.69-.35a13 13 0 0 0 -1.21-.52c-.24-.1-.49-.18-.74-.26l-.45-.14a11.61 11.61 0 0 0 -1.16-.3l-.55-.11-.55-.09a15.69 15.69 0 0 0 -2.28-.16 16 16 0 0 0 -16 16v16h39.57c-.46 0-.82-.01-1.18-.04zm-139.7 99.5-16-5.35v22.21a16 16 0 0 0 10.49 15l.43.14a13.34 13.34 0 0 0 1.88.5 11 11 0 0 0 1.28.21 5 5 0 0 0 .54.06h.59.79.79.59a5 5 0 0 0 .54-.06 11 11 0 0 0 1.28-.21 13.34 13.34 0 0 0 1.88-.5l.43-.14a16 16 0 0 0 10.49-15v-22.21zm-128.35-43a16 16 0 0 1 10.13 12 120 120 0 0 0 7 23.41l.53-.23.79-.37.16-.08c.27-.15.54-.3.8-.46s.54-.34.8-.52.53-.37.78-.58.51-.41.75-.63.47-.42.69-.64l.06-.06c.22-.22.43-.45.64-.69s.42-.49.61-.74.31-.4.45-.61l.37-.54.33-.52c.23-.39.44-.8.64-1.21.12-.24.22-.47.32-.71a15.09 15.09 0 0 0 .69-2 5.66 5.66 0 0 0 .15-.59c.05-.19.09-.39.13-.59.07-.4.14-.8.18-1.2a16.3 16.3 0 0 0 .11-1.86v-11.46zm268.08-56.54c-.31 0-.61-.05-.91-.09s-.6-.08-.89-.13h-.18a5.6 5.6 0 0 1 -.59-.12c-.28-.06-.56-.14-.83-.22a9.43 9.43 0 0 1 -.9-.29l-.36-.13-.41-.17c-.46-.19-.9-.4-1.33-.63h-.07c-.27-.15-.54-.3-.8-.46l-.14-.1c-.22-.13-.44-.28-.65-.43h-.05l-.26-.19c-.19-.14-.38-.28-.56-.43s-.23-.19-.34-.29l-.42-.37c-.12-.1-.23-.21-.34-.32l-.39-.39-.18-.2-.08-.08c-.07-.07-.13-.15-.19-.22s0 0 0-.05 0 0 0 0c-.09-.1-.17-.21-.25-.31v-.06a3.25 3.25 0 0 1 -.23-.29l-.39-.52-.12-.17c-.09-.13-.18-.26-.26-.4l-.15-.24a.21.21 0 0 1 0-.06v-.05l-.05-.08c-.16-.26-.31-.54-.46-.82a.25.25 0 0 0 0-.07c-.14-.28-.28-.57-.4-.86a1.17 1.17 0 0 1 0-.11c-.05-.12-.11-.25-.16-.38s-.12-.3-.18-.46v-.09c-.12-.33-.23-.68-.33-1s-.17-.61-.23-.92c0-.08 0-.16 0-.23v-.15a6.54 6.54 0 0 1 -.65-1.02.25.25 0 0 1 0-.08c0-.18-.05-.35-.07-.53s0-.35 0-.53a.49.49 0 0 1 0-.12c0-.35 0-.7 0-1.05s0-.72 0-1.08l.84-12.54c-.26-.16-.53-.31-.8-.46l-.69-.35a13 13 0 0 0 -1.21-.52c-.24-.1-.49-.18-.74-.26l-.45-.14a11.61 11.61 0 0 0 -1.16-.3l-.55-.11-.55-.09a15.69 15.69 0 0 0 -2.28-.16 16 16 0 0 0 -16 16v16h39.57c-.46 0-.82-.01-1.18-.04zm-139.73 99.54-16-5.35v22.21a16 16 0 0 0 10.49 15l.43.14a13.34 13.34 0 0 0 1.88.5 11 11 0 0 0 1.28.21 5 5 0 0 0 .54.06h.59.79.79.59a5 5 0 0 0 .54-.06 11 11 0 0 0 1.28-.21 13.34 13.34 0 0 0 1.88-.5l.43-.14a16 16 0 0 0 10.49-15v-22.21zm-128.35-43a16 16 0 0 1 10.13 12 120 120 0 0 0 7 23.41l.53-.23.79-.37.16-.08c.27-.15.54-.3.8-.46s.54-.34.8-.52.53-.37.78-.58.51-.41.75-.63.47-.42.69-.64l.06-.06c.22-.22.43-.45.64-.69s.42-.49.61-.74.31-.4.45-.61l.37-.54.33-.52c.23-.39.44-.8.64-1.21.12-.24.22-.47.32-.71a15.09 15.09 0 0 0 .69-2 5.66 5.66 0 0 0 .15-.59c.05-.19.09-.39.13-.59.07-.4.14-.8.18-1.2a16.3 16.3 0 0 0 .11-1.86v-11.46zm261.52-58.43c-.27-.15-.54-.3-.8-.46l-.14-.1c-.22-.13-.44-.28-.65-.43h-.05l-.26-.19c-.19-.14-.38-.28-.56-.43s-.23-.19-.34-.29l-.42-.37c-.12-.1-.23-.21-.34-.32l-.39-.39-.18-.2-.08-.08c-.07-.07-.13-.15-.19-.22s0 0 0-.05 0 0 0 0c-.09-.1-.17-.21-.25-.31v-.06a3.25 3.25 0 0 1 -.23-.29l-.39-.52-.12-.17c-.09-.13-.18-.26-.26-.4l-.15-.24a.21.21 0 0 1 0-.06v-.05l-.05-.08c-.16-.26-.31-.54-.46-.82a.25.25 0 0 0 0-.07c-.14-.28-.28-.57-.4-.86a1.17 1.17 0 0 1 0-.11c-.05-.12-.11-.25-.16-.38s-.12-.3-.18-.46v-.09c-.12-.34-.23-.68-.33-1s-.17-.61-.23-.92c0-.08 0-.16 0-.23v-.15a6.54 6.54 0 0 1 -.56-.91.25.25 0 0 1 0-.08c0-.18-.05-.35-.07-.53s0-.35 0-.53a.49.49 0 0 1 0-.12c0-.35 0-.7 0-1.05s0-.72 0-1.08l.84-12.54c-.26-.16-.53-.31-.8-.46l-.69-.35a13 13 0 0 0 -1.21-.52c-.24-.1-.49-.18-.74-.26l-.45-.14a11.61 11.61 0 0 0 -1.16-.3l-.55-.11-.55-.09a15.69 15.69 0 0 0 -2.28-.16 16 16 0 0 0 -16 16v16h32v-1.89zm-149.17 96.08v22.21a16 16 0 0 0 10.49 15l.43.14a13.34 13.34 0 0 0 1.88.5 11 11 0 0 0 1.28.21 5 5 0 0 0 .54.06h.59.79.79.59a5 5 0 0 0 .54-.06 11 11 0 0 0 1.28-.21 13.34 13.34 0 0 0 1.88-.5l.43-.14a16 16 0 0 0 10.49-15v-22.21l-16 5.35zm-102.22-25.61a120 120 0 0 0 7 23.41l.53-.23.79-.37.16-.08c.27-.15.54-.3.8-.46s.54-.34.8-.52.53-.37.78-.58.51-.41.75-.63.47-.42.69-.64l.06-.06c.22-.22.43-.45.64-.69s.42-.49.61-.74.31-.4.45-.61l.37-.54.33-.52c.23-.39.44-.8.64-1.21.12-.24.22-.47.32-.71a15.09 15.09 0 0 0 .69-2 5.66 5.66 0 0 0 .15-.59c.05-.19.09-.39.13-.59.07-.4.14-.8.18-1.2a16.3 16.3 0 0 0 .11-1.86v-11.5l-27.11-9.08a16 16 0 0 1 10.13 12zm294.08-100.5h-351.72a16 16 0 0 0 -16 16v73.48a16 16 0 0 0 10.93 15.17l33.36 11.17 24.83 8.3.74.25 12.88 4.31 45 15.06c.25.09.5.18.76.25l57.85 19.33.43.14a13.34 13.34 0 0 0 1.88.5 11 11 0 0 0 1.28.21 5 5 0 0 0 .54.06h.59.79.79.59a5 5 0 0 0 .54-.06 11 11 0 0 0 1.28-.21 13.34 13.34 0 0 0 1.88-.5l.43-.14 57.85-19.37c.26-.07.51-.16.76-.25l45-15.06 12.88-4.27.74-.25 24.83-8.3 33.36-11.17a16 16 0 0 0 10.93-15.17v-73.48a16 16 0 0 0 -16-16zm-16 78-26.62 8.91-3.8 1.27-1.1.37-27.1 9.07-26.62 8.91-32 10.71-26.62 8.87-16 5.35-16-5.35-26.62-8.91-32-10.71-26.62-8.91-27.11-9.08-1-.35-3.84-1.28-26.62-8.91v-46h319.67zm-288.21 10.5a16 16 0 0 1 10.13 12 120 120 0 0 0 7 23.41l.53-.23.79-.37.16-.08c.27-.15.54-.3.8-.46s.54-.34.8-.52.53-.37.78-.58.51-.41.75-.63.47-.42.69-.64l.06-.06c.22-.22.43-.45.64-.69s.42-.49.61-.74.31-.4.45-.61l.37-.54.33-.52c.23-.39.44-.8.64-1.21.12-.24.22-.47.32-.71a15.09 15.09 0 0 0 .69-2 5.66 5.66 0 0 0 .15-.59c.05-.19.09-.39.13-.59.07-.4.14-.8.18-1.2a16.3 16.3 0 0 0 .11-1.86v-11.5zm128.35 43-16-5.35v22.17a16 16 0 0 0 10.49 15l.43.14a13.34 13.34 0 0 0 1.88.5 11 11 0 0 0 1.28.21 5 5 0 0 0 .54.06h.59.79.79.59a5 5 0 0 0 .54-.06 11 11 0 0 0 1.28-.21 13.34 13.34 0 0 0 1.88-.5l.43-.14a16 16 0 0 0 10.49-15v-22.21zm139.73-99.5c-.31 0-.61-.05-.91-.09s-.6-.08-.89-.13h-.18a5.6 5.6 0 0 1 -.59-.12c-.28-.06-.56-.14-.83-.22a9.43 9.43 0 0 1 -.9-.29l-.36-.13-.41-.17c-.46-.19-.9-.4-1.33-.63h-.07c-.27-.15-.54-.3-.8-.46l-.14-.1c-.22-.13-.44-.28-.65-.43h-.05l-.26-.19c-.19-.14-.38-.28-.56-.43s-.23-.19-.34-.29l-.42-.37c-.12-.1-.23-.21-.34-.32l-.39-.39-.18-.2-.08-.08c-.07-.07-.13-.15-.19-.22s0 0 0-.05 0 0 0 0c-.09-.1-.17-.21-.25-.31v-.06a3.25 3.25 0 0 1 -.23-.29l-.39-.52-.12-.17c-.09-.13-.18-.26-.26-.4l-.15-.24a.21.21 0 0 1 0-.06v-.05l-.05-.08c-.16-.26-.31-.54-.46-.82a.25.25 0 0 0 0-.07c-.14-.28-.28-.57-.4-.86a1.17 1.17 0 0 1 0-.11c-.05-.12-.11-.25-.16-.38s-.12-.3-.18-.46v-.09c-.12-.33-.23-.68-.33-1s-.17-.61-.23-.92c0-.08 0-.16 0-.23v-.15a6.54 6.54 0 0 1 -.65-1.1.25.25 0 0 1 0-.08c0-.18-.05-.35-.07-.53s0-.35 0-.53a.49.49 0 0 1 0-.12c0-.35 0-.7 0-1.05s0-.72 0-1.08l.84-12.54c-.26-.16-.53-.31-.8-.46l-.69-.35a13 13 0 0 0 -1.21-.52c-.24-.1-.49-.18-.74-.26l-.45-.14a11.61 11.61 0 0 0 -1.16-.3l-.55-.11-.55-.09a15.69 15.69 0 0 0 -2.28-.16 16 16 0 0 0 -16 16v16h39.57c-.46 0-.82-.01-1.18-.04zm-268.08 56.5a16 16 0 0 1 10.13 12 120 120 0 0 0 7 23.41l.53-.23.79-.37.16-.08c.27-.15.54-.3.8-.46s.54-.34.8-.52.53-.37.78-.58.51-.41.75-.63.47-.42.69-.64l.06-.06c.22-.22.43-.45.64-.69s.42-.49.61-.74.31-.4.45-.61l.37-.54.33-.52c.23-.39.44-.8.64-1.21.12-.24.22-.47.32-.71a15.09 15.09 0 0 0 .69-2 5.66 5.66 0 0 0 .15-.59c.05-.19.09-.39.13-.59.07-.4.14-.8.18-1.2a16.3 16.3 0 0 0 .11-1.86v-11.5zm128.35 43-16-5.35v22.17a16 16 0 0 0 10.49 15l.43.14a13.34 13.34 0 0 0 1.88.5 11 11 0 0 0 1.28.21 5 5 0 0 0 .54.06h.59.79.79.59a5 5 0 0 0 .54-.06 11 11 0 0 0 1.28-.21 13.34 13.34 0 0 0 1.88-.5l.43-.14a16 16 0 0 0 10.49-15v-22.21zm139.73-99.5c-.31 0-.61-.05-.91-.09s-.6-.08-.89-.13h-.18a5.6 5.6 0 0 1 -.59-.12c-.28-.06-.56-.14-.83-.22a9.43 9.43 0 0 1 -.9-.29l-.36-.13-.41-.17c-.46-.19-.9-.4-1.33-.63h-.07c-.27-.15-.54-.3-.8-.46l-.14-.1c-.22-.13-.44-.28-.65-.43h-.05l-.26-.19c-.19-.14-.38-.28-.56-.43s-.23-.19-.34-.29l-.42-.37c-.12-.1-.23-.21-.34-.32l-.39-.39-.18-.2-.08-.08c-.07-.07-.13-.15-.19-.22s0 0 0-.05 0 0 0 0c-.09-.1-.17-.21-.25-.31v-.06a3.25 3.25 0 0 1 -.23-.29l-.39-.52-.12-.17c-.09-.13-.18-.26-.26-.4l-.15-.24a.21.21 0 0 1 0-.06v-.05l-.05-.08c-.16-.26-.31-.54-.46-.82a.25.25 0 0 0 0-.07c-.14-.28-.28-.57-.4-.86a1.17 1.17 0 0 1 0-.11c-.05-.12-.11-.25-.16-.38s-.12-.3-.18-.46v-.09c-.12-.33-.23-.68-.33-1s-.17-.61-.23-.92c0-.08 0-.16 0-.23v-.15a6.54 6.54 0 0 1 -.65-1.1.25.25 0 0 1 0-.08c0-.18-.05-.35-.07-.53s0-.35 0-.53a.49.49 0 0 1 0-.12c0-.35 0-.7 0-1.05s0-.72 0-1.08l.84-12.54c-.26-.16-.53-.31-.8-.46l-.69-.35a13 13 0 0 0 -1.21-.52c-.24-.1-.49-.18-.74-.26l-.45-.14a11.61 11.61 0 0 0 -1.16-.3l-.55-.11-.55-.09a15.69 15.69 0 0 0 -2.28-.16 16 16 0 0 0 -16 16v16h39.57c-.46 0-.82-.01-1.18-.04zm-268.08 56.5a16 16 0 0 1 10.13 12 120 120 0 0 0 7 23.41l.53-.23.79-.37.16-.08c.27-.15.54-.3.8-.46s.54-.34.8-.52.53-.37.78-.58.51-.41.75-.63.47-.42.69-.64l.06-.06c.22-.22.43-.45.64-.69s.42-.49.61-.74.31-.4.45-.61l.37-.54.33-.52c.23-.39.44-.8.64-1.21.12-.24.22-.47.32-.71a15.09 15.09 0 0 0 .69-2 5.66 5.66 0 0 0 .15-.59c.05-.19.09-.39.13-.59.07-.4.14-.8.18-1.2a16.3 16.3 0 0 0 .11-1.86v-11.5zm128.35 43-16-5.35-26.62-8.91v11.51a16 16 0 0 1 -16 16 15.82 15.82 0 0 1 -4.74-.72l57.85 19.29.43.14a13.34 13.34 0 0 0 1.88.5 11 11 0 0 0 1.28.21 5 5 0 0 0 .54.06h.59.79.79.59a5 5 0 0 0 .54-.06 11 11 0 0 0 1.28-.21 13.34 13.34 0 0 0 1.88-.5l.43-.14a16 16 0 0 0 10.49-15v-22.21zm139.73-99.5c-.31 0-.61-.05-.91-.09s-.6-.08-.89-.13h-.18a5.6 5.6 0 0 1 -.59-.12c-.28-.06-.56-.14-.83-.22a9.43 9.43 0 0 1 -.9-.29l-.36-.13-.41-.17c-.46-.19-.9-.4-1.33-.63h-.07c-.27-.15-.54-.3-.8-.46l-.14-.1c-.22-.13-.44-.28-.65-.43h-.05l-.26-.19c-.19-.14-.38-.28-.56-.43s-.23-.19-.34-.29l-.42-.37c-.12-.1-.23-.21-.34-.32l-.39-.39-.18-.2-.08-.08c-.07-.07-.13-.15-.19-.22s0 0 0-.05 0 0 0 0c-.09-.1-.17-.21-.25-.31v-.06a3.25 3.25 0 0 1 -.23-.29l-.39-.52-.12-.17c-.09-.13-.18-.26-.26-.4l-.15-.24a.21.21 0 0 1 0-.06v-.05l-.05-.08c-.16-.26-.31-.54-.46-.82a.25.25 0 0 0 0-.07c-.14-.28-.28-.57-.4-.86a1.17 1.17 0 0 1 0-.11c-.05-.12-.11-.25-.16-.38s-.12-.3-.18-.46v-.09c-.12-.33-.23-.68-.33-1s-.17-.61-.23-.92c0-.08 0-.16 0-.23v-.15a6.54 6.54 0 0 1 -.65-1.1.25.25 0 0 1 0-.08c0-.18-.05-.35-.07-.53s0-.35 0-.53a.49.49 0 0 1 0-.12c0-.35 0-.7 0-1.05s0-.72 0-1.08l.84-12.54c-.26-.16-.53-.31-.8-.46l-.69-.35a13 13 0 0 0 -1.21-.52c-.24-.1-.49-.18-.74-.26l-.45-.14a11.61 11.61 0 0 0 -1.16-.3l-.55-.11-.55-.09a15.69 15.69 0 0 0 -2.28-.16 16 16 0 0 0 -16 16v16h39.57c-.46 0-.82-.01-1.18-.04zm-268.08 56.5a16 16 0 0 1 10.13 12 120 120 0 0 0 7 23.41l.53-.23.79-.37.16-.08c.27-.15.54-.3.8-.46s.54-.34.8-.52.53-.37.78-.58.51-.41.75-.63.47-.42.69-.64l.06-.06c.22-.22.43-.45.64-.69s.42-.49.61-.74.31-.4.45-.61l.37-.54.33-.52c.23-.39.44-.8.64-1.21.12-.24.22-.47.32-.71a15.09 15.09 0 0 0 .69-2 5.66 5.66 0 0 0 .15-.59c.05-.19.09-.39.13-.59.07-.4.14-.8.18-1.2a16.3 16.3 0 0 0 .11-1.86v-11.5zm268.08-56.54c-.31 0-.61-.05-.91-.09s-.6-.08-.89-.13h-.18a5.6 5.6 0 0 1 -.59-.12c-.28-.06-.56-.14-.83-.22a9.43 9.43 0 0 1 -.9-.29l-.36-.13-.41-.17c-.46-.19-.9-.4-1.33-.63h-.07c-.27-.15-.54-.3-.8-.46l-.14-.1c-.22-.13-.44-.28-.65-.43h-.05l-.26-.19c-.19-.14-.38-.28-.56-.43s-.23-.19-.34-.29l-.42-.37c-.12-.1-.23-.21-.34-.32l-.39-.39-.18-.2-.08-.08c-.07-.07-.13-.15-.19-.22v-.05s0 0 0 0c-.09-.1-.17-.21-.25-.31v-.06a3.25 3.25 0 0 1 -.23-.29l-.39-.52-.12-.17c-.09-.13-.18-.26-.26-.4l-.15-.24a.21.21 0 0 1 0-.06v-.05l-.05-.08c-.16-.26-.31-.54-.46-.82a.25.25 0 0 0 0-.07c-.14-.28-.27-.57-.4-.86a1.17 1.17 0 0 1 0-.11c-.05-.12-.11-.25-.16-.38s-.12-.3-.18-.46v-.09c-.12-.33-.23-.68-.33-1s-.17-.61-.23-.92c0-.08 0-.16 0-.23v-.15a6.54 6.54 0 0 1 -.65-1.06.25.25 0 0 1 0-.08c0-.18-.05-.35-.07-.53s0-.35 0-.53a.49.49 0 0 1 0-.12c0-.35 0-.7 0-1.05s0-.72 0-1.08l.84-12.54c-.26-.16-.53-.31-.8-.46l-.69-.35a13 13 0 0 0 -1.21-.52c-.24-.1-.49-.18-.74-.26l-.45-.14a11.61 11.61 0 0 0 -1.16-.3l-.55-.11-.55-.09a15.69 15.69 0 0 0 -2.28-.16 16 16 0 0 0 -16 16v16h39.57c-.46 0-.82-.01-1.18-.04z"/><path d="m500 91.84a58.58 58.58 0 0 0 -58.52 58.52v47.06a58.52 58.52 0 1 0 117 0v-47.06a58.58 58.58 0 0 0 -58.48-58.52zm26.52 105.58a26.52 26.52 0 0 1 -53 0v-47.06a26.52 26.52 0 0 1 53 0z"/><path d="m398.76 321.68v93.09a16.3 16.3 0 0 1 -.11 1.86c0 .4-.11.8-.18 1.2 0 .2-.08.4-.13.59a5.66 5.66 0 0 1 -.15.59 15.09 15.09 0 0 1 -.69 2c-.1.24-.2.47-.32.71-.2.41-.41.82-.64 1.21l-.33.52-.37.54c-.14.21-.29.41-.45.61s-.4.5-.61.74-.42.47-.64.69l-.06.06c-.22.22-.45.44-.69.64s-.49.43-.75.63-.52.4-.78.58-.53.35-.8.52-.53.31-.8.46l-.16.08-.79.37-.53.23a16 16 0 0 1 -10.78.46l-.74-.25a16 16 0 0 1 -10.5-15v-93.13a16 16 0 0 1 32 0z"/><path d="m457.38 321.68v112.71a16 16 0 0 1 -16 16 15.82 15.82 0 0 1 -4.74-.72c-.26-.07-.51-.16-.76-.25a16 16 0 0 1 -10.5-15v-112.74a16 16 0 1 1 32 0z"/><path d="m516 321.68v132.32a16 16 0 0 1 -10.49 15l-.43.14a13.34 13.34 0 0 1 -1.88.5 11 11 0 0 1 -1.28.21 5 5 0 0 1 -.54.06h-.59-.79-.79-.59a5 5 0 0 1 -.54-.06 11 11 0 0 1 -1.28-.21 13.34 13.34 0 0 1 -1.88-.5l-.43-.14a16 16 0 0 1 -10.49-15v-132.32a16 16 0 0 1 32 0z"/><path d="m574.62 321.68v112.71a16 16 0 0 1 -10.5 15c-.25.09-.5.18-.76.25a15.82 15.82 0 0 1 -4.74.72 16 16 0 0 1 -16-16v-112.68a16 16 0 1 1 32 0z"/><path d="m633.24 321.68v93.09a16 16 0 0 1 -10.5 15l-.74.25a16 16 0 0 1 -20.76-15.28v-93.06a16 16 0 0 1 16-16 15.69 15.69 0 0 1 2.28.16l.55.09.55.11a11.61 11.61 0 0 1 1.16.3l.45.14c.25.08.5.16.74.26a13 13 0 0 1 1.21.52l.69.35c.27.15.54.3.8.46a16 16 0 0 1 7.57 13.61z"/><path d="m402.94 530.58c-49.13 0-95.31 16.61-130 46.77-35.33 30.65-54.77 71.65-54.77 115.51a16 16 0 0 0 16 16h168.77a16 16 0 0 0 16-16v-146.28a16 16 0 0 0 -16-16zm-151.62 146.28c8.68-59.86 65.06-107.28 135.62-113.58v113.58z"/><path d="m727.08 577.35c-34.71-30.16-80.89-46.77-130-46.77a16 16 0 0 0 -16 16v146.28a16 16 0 0 0 16 16h168.75a16 16 0 0 0 16-16c0-43.86-19.44-84.86-54.75-115.51zm-114 99.51v-113.58c70.56 6.3 127 53.72 135.62 113.58z"/><path d="m751.12 692.86v215a16 16 0 0 1 -16 16h-470.24a16 16 0 0 1 -16-16v-215a16 16 0 0 1 32 0v199h438.24v-199a16 16 0 0 1 32 0z"/><path d="m599.64 578.41q-9.28 1.51-18.58 2.75a615.14 615.14 0 0 1 -81.06 5.37 615.14 615.14 0 0 1 -81.06-5.37q-9.3-1.23-18.58-2.75a16 16 0 1 1 5.17-31.58q6.69 1.09 13.41 2a583 583 0 0 0 162.12 0q6.72-.93 13.41-2a16 16 0 1 1 5.17 31.58z"/><path d="m387.65 692.86v215a16 16 0 0 1 -32 0v-215a16 16 0 0 1 32 0z"/><path d="m644.35 692.86v215a16 16 0 0 1 -32 0v-215a16 16 0 0 1 32 0z"/></g></svg>