<svg id="Layer_1" viewBox="0 0 512 512" xmlns="http://www.w3.org/2000/svg" data-name="Layer 1"><g fill="none"><path d="m52.01 137.98h73.83v53.85h-73.83z"/><path d="m229.48 145.62h74.76v56.08h-74.76z" transform="matrix(.866 -.5 .5 .866 -51.08 156.7)"/><path d="m125.84 232.11h-73.83v56.42h73.83z"/><path d="m52.01 327.69h73.83v54.96h-73.83z"/><path d="m480.6 422.91c1.01 2.45 1.46 5.03 1.41 7.57.52-.55.76-1.16.86-1.54.14-.54.29-1.6-.34-2.69l-1.93-3.35z"/></g><path d="m52.01 288.52v.3h73.83v-.3z" fill="#a79ba7"/><path d="m145.27 27.76c-1.86 0-3.43 1.57-3.43 3.43v71.63c0 4.42-3.58 8-8 8h-89.83c-4.42 0-8-3.58-8-8v-71.63c0-1.86-1.57-3.43-3.43-3.43s-3.43 1.57-3.43 3.43v457.13c0 1.86 1.57 3.43 3.43 3.43s3.43-1.57 3.43-3.43v-71.63c0-4.42 3.58-8 8-8h89.83c4.42 0 8 3.58 8 8v67.91c0 1.86 1.57 3.43 3.43 3.43s3.43-1.57 3.43-3.43v-453.41c0-1.86-1.57-3.43-3.43-3.43zm-3.43 366.07c0 4.42-3.58 8-8 8h-89.83c-4.42 0-8-3.58-8-8v-74.14c0-4.42 3.58-8 8-8h89.83c4.42 0 8 3.58 8 8zm0-97c0 4.42-3.58 8-8 8h-89.83c-4.42 0-8-3.58-8-8v-74.14c0-4.42 3.58-8 8-8h89.83c4.42 0 8 3.58 8 8zm0-97c0 4.42-3.58 8-8 8h-89.83c-4.42 0-8-3.58-8-8v-74.15c0-4.42 3.58-8 8-8h89.83c4.42 0 8 3.58 8 8v74.14z" fill="#a79ba7"/><path d="m378.6 276.43c1.84-1.06 3.18-2.81 3.73-4.86s.26-4.23-.8-6.07l-37.45-64.87c-2.21-3.83-7.1-5.14-10.93-2.93l-78.6 45.38c-3.83 2.21-5.14 7.1-2.93 10.93l37.45 64.87c1.06 1.84 2.81 3.18 4.86 3.73.68.18 1.38.27 2.07.27 1.39 0 2.77-.36 4-1.07z" fill="none"/><path d="m145.27 27.76c-1.86 0-3.43 1.57-3.43 3.43v71.63c0 4.42-3.58 8-8 8h-89.83c-4.42 0-8-3.58-8-8v-71.63c0-1.86-1.57-3.43-3.43-3.43s-3.43 1.57-3.43 3.43v457.13c0 1.86 1.57 3.43 3.43 3.43s3.43-1.57 3.43-3.43v-71.63c0-4.42 3.58-8 8-8h89.83c4.42 0 8 3.58 8 8v67.91c0 1.86 1.57 3.43 3.43 3.43s3.43-1.57 3.43-3.43v-453.41c0-1.86-1.57-3.43-3.43-3.43z" fill="none"/><path d="m329.59 191.55c1.84-1.06 3.18-2.81 3.73-4.86s.26-4.23-.8-6.07l-37.45-64.87c-1.06-1.84-2.81-3.18-4.86-3.73s-4.23-.26-6.07.8l-78.6 45.38c-3.83 2.21-5.14 7.1-2.93 10.93l37.45 64.87c1.06 1.84 2.81 3.18 4.86 3.73.68.18 1.38.27 2.07.27 1.39 0 2.77-.36 4-1.07z" fill="none"/><path d="m393.08 285.51c-2.21-3.83-7.1-5.14-10.93-2.93l-78.6 45.38c-3.83 2.21-5.14 7.1-2.93 10.93l37.45 64.87c1.06 1.84 2.81 3.18 4.86 3.73.68.18 1.38.27 2.07.27 1.39 0 2.77-.36 4-1.07l78.6-45.38c1.84-1.06 3.18-2.81 3.73-4.86s.26-4.23-.8-6.07z" fill="none"/><path d="m478.54 431.45c.54.15 1.6.29 2.69-.34.32-.18.57-.4.78-.62.52-.55.76-1.16.86-1.54.14-.54.29-1.6-.34-2.69l-1.93-3.35-227.12-393.39c-.63-1.09-1.62-1.5-2.16-1.64s-1.6-.29-2.69.34c-1.67.96-2.26 3.18-1.3 4.85l36.18 62.67c1.06 1.84 1.35 4.02.8 6.07s-1.89 3.8-3.73 4.86l-78.6 45.38c-3.83 2.21-8.72.9-10.93-2.93l-26.36-45.64v14.19l214.96 372.32c.96 1.67 3.18 2.26 4.85 1.3 1.09-.63 1.5-1.62 1.64-2.16s.29-1.6-.34-2.69l-36.19-62.68c-2.21-3.83-.9-8.72 2.93-10.93l78.6-45.38c3.83-2.21 8.72-.9 10.93 2.93l34.31 59.42c.63 1.09 1.62 1.5 2.16 1.64zm-233.62-193.72c-2.05-.55-3.8-1.89-4.86-3.73l-37.45-64.87c-2.21-3.83-.9-8.72 2.93-10.93l78.6-45.38c1.84-1.06 4.02-1.35 6.07-.8s3.8 1.89 4.86 3.73l37.45 64.87c1.06 1.84 1.35 4.02.8 6.07s-1.89 3.8-3.73 4.86l-78.6 45.38c-1.23.71-2.61 1.07-4 1.07-.69 0-1.39-.09-2.07-.27zm49 84.88c-2.05-.55-3.8-1.89-4.86-3.73l-37.45-64.87c-2.21-3.83-.9-8.72 2.93-10.93l78.6-45.38c3.83-2.21 8.72-.9 10.93 2.93l37.45 64.87c1.06 1.84 1.35 4.02.8 6.07s-1.89 3.8-3.73 4.86l-78.6 45.38c-1.23.71-2.61 1.07-4 1.07-.69 0-1.39-.09-2.07-.27zm137.4 33.84c-.55 2.05-1.89 3.8-3.73 4.86l-78.6 45.38c-1.23.71-2.61 1.07-4 1.07-.69 0-1.39-.09-2.07-.27-2.05-.55-3.8-1.89-4.86-3.73l-37.45-64.87c-2.21-3.83-.9-8.72 2.93-10.93l78.6-45.38c3.83-2.21 8.72-.9 10.93 2.93l37.45 64.87c1.06 1.84 1.35 4.02.8 6.07z" fill="#a79ba7"/><path d="m496.39 418.26-229.05-396.74c-2.6-4.51-6.82-7.74-11.88-9.1-5.05-1.35-10.32-.67-14.83 1.94-2.92 1.69-5.24 4.02-6.89 6.72-2.2 3.61-3.18 7.87-2.77 12.1.26 2.7 1.07 5.39 2.51 7.89l31.36 54.32.83 1.43-64.74 37.38-.83-1.43-35.39-61.28v-40.3c0-10.71-8.72-19.43-19.43-19.43s-19.43 8.72-19.43 19.43v63.63h-73.84v-63.63c0-10.71-8.72-19.43-19.43-19.43s-19.43 8.71-19.43 19.43v457.13c0 10.71 8.72 19.43 19.43 19.43s19.43-8.72 19.43-19.43v-63.63h73.83v59.91c0 10.71 8.72 19.43 19.43 19.43s19.43-8.72 19.43-19.43v-334.93l201.1 348.32c2.6 4.51 6.82 7.74 11.87 9.1 1.69.45 3.41.68 5.11.68 3.38 0 6.72-.88 9.72-2.62 4.51-2.6 7.74-6.82 9.09-11.88 1.35-5.05.67-10.32-1.94-14.83l-32.19-55.75 64.74-37.38 30.31 52.49c2.6 4.51 6.82 7.74 11.88 9.1 5.05 1.35 10.32.67 14.83-1.94 4.51-2.6 7.74-6.82 9.1-11.88 1.35-5.05.67-10.32-1.94-14.83zm-347.69 66.35c0 1.86-1.57 3.43-3.43 3.43s-3.43-1.57-3.43-3.43v-67.91c0-4.42-3.58-8-8-8h-89.83c-4.42 0-8 3.58-8 8v71.63c0 1.86-1.57 3.43-3.43 3.43s-3.43-1.57-3.43-3.43v-457.14c0-1.86 1.57-3.43 3.43-3.43s3.43 1.57 3.43 3.43v71.63c0 4.42 3.58 8 8 8h89.83c4.42 0 8-3.58 8-8v-71.63c0-1.86 1.57-3.43 3.43-3.43s3.43 1.57 3.43 3.43v453.41zm282.45-117.15-78.6 45.38c-3.83 2.21-5.14 7.1-2.93 10.93l36.19 62.68c.63 1.09.48 2.15.34 2.69s-.55 1.53-1.64 2.16c-1.67.96-3.89.37-4.85-1.3l-214.96-372.33v-14.19l26.36 45.64c2.21 3.83 7.1 5.14 10.93 2.93l78.6-45.38c1.84-1.06 3.18-2.81 3.73-4.86s.26-4.23-.8-6.07l-36.18-62.67c-.96-1.67-.37-3.89 1.3-4.85 1.09-.63 2.15-.48 2.69-.34s1.53.55 2.16 1.64l227.12 393.39 1.93 3.35c.63 1.09.48 2.15.34 2.69-.1.38-.34.99-.86 1.54-.21.22-.46.44-.78.62-1.09.63-2.15.49-2.69.34-.54-.14-1.53-.55-2.16-1.64l-34.31-59.42c-2.21-3.83-7.1-5.14-10.93-2.93z"/><path d="m378.6 276.43c1.84-1.06 3.18-2.81 3.73-4.86s.26-4.23-.8-6.07l-37.45-64.87c-2.21-3.83-7.1-5.14-10.93-2.93l-78.6 45.38c-3.83 2.21-5.14 7.1-2.93 10.93l37.45 64.87c1.06 1.84 2.81 3.18 4.86 3.73.68.18 1.38.27 2.07.27 1.39 0 2.77-.36 4-1.07zm-81.67 24.06-27.45-47.55 64.74-37.38 27.45 47.55 2 3.47-64.74 37.38z"/><path d="m329.59 191.55c1.84-1.06 3.18-2.81 3.73-4.86s.26-4.23-.8-6.07l-37.45-64.87c-1.06-1.84-2.81-3.18-4.86-3.73s-4.23-.26-6.07.8l-78.6 45.38c-3.83 2.21-5.14 7.1-2.93 10.93l37.45 64.87c1.06 1.84 2.81 3.18 4.86 3.73.68.18 1.38.27 2.07.27 1.39 0 2.77-.36 4-1.07zm-81.08 25.07-28.04-48.57 64.74-37.38 28.04 48.57 1.41 2.45-64.74 37.38z"/><path d="m393.08 285.51c-2.21-3.83-7.1-5.14-10.93-2.93l-78.6 45.38c-3.83 2.21-5.14 7.1-2.93 10.93l37.45 64.87c1.06 1.84 2.81 3.18 4.86 3.73.68.18 1.38.27 2.07.27 1.39 0 2.77-.36 4-1.07l78.6-45.38c1.84-1.06 3.18-2.81 3.73-4.86s.26-4.23-.8-6.07zm-45.14 103.32-2.59-4.48-26.87-46.53 64.74-37.38 26.87 46.53 2.59 4.48z"/><path d="m133.84 311.69h-89.83c-4.42 0-8 3.58-8 8v74.14c0 4.42 3.58 8 8 8h89.83c4.42 0 8-3.58 8-8v-74.14c0-4.42-3.58-8-8-8zm-81.83 74.14v-58.14h73.83v58.14z"/><path d="m133.84 214.69h-89.83c-4.42 0-8 3.58-8 8v74.14c0 4.42 3.58 8 8 8h89.83c4.42 0 8-3.58 8-8v-74.14c0-4.42-3.58-8-8-8zm-81.83 74.14v-58.14h73.83v58.14z"/><path d="m133.84 117.68h-89.83c-4.42 0-8 3.58-8 8v74.14c0 4.42 3.58 8 8 8h89.83c4.42 0 8-3.58 8-8v-74.14c0-4.42-3.58-8-8-8zm-8 16v58.14h-73.83v-58.14z"/></svg>