<svg id="Capa_1" enable-background="new 0 0 512.007 512.007" height="512" viewBox="0 0 512.007 512.007" width="512" xmlns="http://www.w3.org/2000/svg"><g><g><g><path d="m401.071 187.507 75.951 46.565c.666.409 1.523-.071 1.523-.853v-42.314c0-7.168 5.811-12.979 12.979-12.979 7.168 0 12.979 5.811 12.979 12.979v57.882c0 6.202-2.955 12.146-8.149 15.534-2.988 1.949-6.406 2.917-9.82 2.917-3.262 0-6.52-.884-9.395-2.647l-89.636-54.954h-263l-89.636 54.954c-2.874 1.763-6.133 2.647-9.395 2.647-3.415 0-6.832-.969-9.82-2.917-5.195-3.388-8.149-9.332-8.149-15.534v-57.882c0-7.168 5.811-12.979 12.979-12.979 7.168 0 12.979 5.811 12.979 12.979v42.314c0 .782.856 1.261 1.523.853l75.951-46.565z" fill="#665e66"/><path d="m427.163 351.921c11.782 0 22.926 5.781 29.355 15.654 6.956 10.682 9.148 24.307 4.878 37.116l-14.318 42.954c-1.533 4.599-1.171 9.516 1.022 13.842 2.233 4.406 6.277 7.623 10.976 9.145l29.321 9.499c6.56 2.125 10.156 9.166 8.031 15.727-2.125 6.561-9.167 10.156-15.727 8.031l-29.777-9.646c-10.991-3.56-19.913-11.2-25.124-21.512-5.271-10.432-5.87-22.615-2.174-33.703l14.078-42.235c.106-.319.203-.64.291-.961 2.688-9.882-5.13-19.538-15.371-19.538h-333.242c-10.241 0-18.059 9.656-15.371 19.538.087.321.184.642.291.961l14.078 42.235c3.696 11.088 3.097 23.271-2.174 33.703-5.21 10.312-14.133 17.952-25.124 21.512l-29.777 9.646c-6.561 2.125-13.602-1.47-15.727-8.031-2.125-6.56 1.47-13.602 8.031-15.727l29.321-9.499c4.699-1.522 8.743-4.739 10.976-9.145 2.192-4.326 2.555-9.243 1.022-13.842l-14.318-42.955c-4.27-12.809-2.078-26.434 4.878-37.116 6.429-9.873 17.573-15.654 29.355-15.654h342.32z" fill="#665e66"/><g><path d="m372.524 81.272 43.667-17.251c.382-.151.633-.52.633-.93v-33.015c0-12.469 10.108-22.576 22.576-22.576h27.679c6.906 0 12.83 5.402 12.956 12.307.129 7.035-5.535 12.778-12.54 12.778h-24.587c-.552 0-1 .448-1 1v31.875c0 9.237-5.532 17.45-14.094 20.922l-49.859 19.804z" fill="#665e66"/></g><g><path d="m140.06 81.5-44.244-17.479c-.382-.151-.633-.52-.633-.93v-33.015c0-12.468-10.108-22.576-22.576-22.576h-27.679c-6.906 0-12.83 5.402-12.956 12.307-.129 7.035 5.535 12.778 12.54 12.778h24.587c.552 0 1 .448 1 1v31.875c0 9.237 5.532 17.45 14.094 20.922l49.407 19.628z" fill="#665e66"/></g></g><g fill="#756e78"><circle cx="371.753" cy="20" r="12.5"/><circle cx="140.253" cy="20" r="12.5"/></g><g fill="#756e78"><path d="m369.691 112.5c8.002-1.637 13.017-8.717 13.017-17.203 0-9.698-7.862-17.559-17.559-17.559-7.273 0-13.514 4.422-16.18 10.725l-.817 2.07 20.17 22.298z"/><path d="m142.316 112.5c-8.002-1.637-13.017-8.717-13.017-17.203 0-9.698 7.862-17.559 17.559-17.559 7.273 0 13.514 4.422 16.18 10.725l.604 1.559-19.574 22.766z"/></g><g><path d="m201.897 73.17.743-9.708 9.746-14.462 3.841-4.683c8.544-4.652 21.137-7.817 39.589-7.817 41.573 0 53.568 16.067 56.49 29l-.622 7.16z" fill="#8b818e"/><path d="m214.022 60.064c-.365-4.029-.221-9.827 2.206-15.746-23.67 12.887-16.26 37.183-16.26 37.183l2.44 3h106.979l2.741-3s2.147-7.29.179-16h-92.309c-3.098-.001-5.697-2.353-5.976-5.437z" fill="#756e78"/></g><g><path d="m195.879 148.5-8.341-.347c-16.168-.672-27.438-9.54-38.619-21.238 0 0-5.995-8.293-1.433-14.554 7.332-10.063 13.507-17.157 22.387-25.095 2.732-2.442 6.285-3.766 9.949-3.766l6.288-2h148.361c3.664 0 7.216 1.322 9.947 3.764 8.751 7.823 16.811 16.787 24.04 26.731 4.695 6.458 3.992 15.379-1.554 21.123-1.496 1.549-3.066 3.01-4.699 4.385-10.597 8.928-48.691 10.997-48.691 10.997h-115.404z" fill="#8b818e"/><path d="m189.126 136.638c-12.077-.339-22.441-3.79-30.264-12.997-2.286-2.69-2.33-6.627-.104-9.368l27.352-32.773h-8.288c-3.665 0-7.217 1.323-9.949 3.766-8.879 7.938-17.055 17.032-24.387 27.094-4.562 6.262-3.93 14.912 1.423 20.512 11.181 11.698 26.46 18.609 42.629 19.281l8.341.347 2.231 3h115.404l2.478-3 8.334-.324c13.967-.543 27.282-5.745 37.879-14.673z" fill="#756e78"/></g><g><path d="m362.205 153.979c24.032-1.479 32.264 4.088 35.777 10.532 11.518 21.129 17.925 43.72 23.002 69.281.197.99 3.387 1.985 3.57 2.984 2.911 15.846 4.449 32.334 4.449 49.224 0 28.633-4.421 55.971-12.454 80.997-.216.674-2.899.269-3.12.939-7.081 21.432-17.138 40.892-29.021 58.213-.506.738 1.766 2.789 1.252 3.518-16.235 23.034-36.313 41.709-58.972 54.449 0 0-29.301 16.076-70.684 16.076-95.545 0-165-94.346-165-214.191 0-45.863 7.152-84.15 26.511-119.128 3.534-6.385 10.237-10.367 17.534-10.367l17.806-4.005h47.149l3.213 3h106.553l2.213-3h47.149z" fill="#fc9aa1"/><path d="m274.918 494c-95.545 0-173-97.154-173-217 0-11.268.689-22.314 2.01-33.085l-7.435-7.979-9.012.928c-2.927 15.758-4.477 32.196-4.477 49.136 0 28.622 4.423 55.948 12.45 80.967l15.958 32.318 14.942 30.38c30.154 42.78 73.554 70.527 122.149 73.127l7.692-1.579 7.309 1.576c22.432-1.201 43.757-7.75 63.184-18.672-16.346 6.421-33.736 9.883-51.77 9.883z" fill="#fb8189"/></g><g><path d="m204.003 153.5c0 28.384 17.119 46.825 44.499 50.491h15.001c15.913-2.131 29.698-6.944 38.459-19.522 6.313-9.064 10.019-20.081 10.019-31.969h-48.479l-7.5 3-7.5-3h-31.721z" fill="#8b818e"/><path d="m271.525 194.102c-13.203.264-21.086-.054-38.914-13.687-8.095-7.223-13.846-16.835-15.829-27.915h-16.779c0 28.384 21.119 51.825 48.499 55.491l7.501-2.491 7.501 2.491c15.913-2.13 29.698-10.944 38.459-23.522-.509.354-1.029.697-1.55 1.035-8.582 5.566-18.661 8.393-28.888 8.598z" fill="#756e78"/></g><g><g><path d="m141.107 304.5c0-22.606 17.619-34.4 17.619-34.4 5.526-3.002 11.65-4.6 18.381-4.6 21.539 0 39 17.461 39 39 0 7.525-2.134 14.55-5.826 20.509 0 0-13.193 15.491-33.174 15.491-21.539 0-36-14.461-36-36z" fill="#8b818e"/><path d="m192.107 329.5c-21.539 0-39-17.461-39-39 0-7.525 1.928-14.441 5.619-20.4-12.383 6.535-20.619 19.424-20.619 34.4 0 21.539 17.461 39 39 39 14.014 0 26.299-7.394 33.175-18.491-5.428 2.864-11.612 4.491-18.175 4.491z" fill="#756e78"/></g><g><path d="m298.9 304.5c0-22.606 17.619-34.4 17.619-34.4 5.526-3.002 11.65-4.6 18.381-4.6 21.539 0 39 17.461 39 39 0 7.525-2.134 14.55-5.826 20.509 0 0-13.193 15.491-33.174 15.491-21.539 0-36-14.461-36-36z" fill="#8b818e"/><path d="m349.9 329.5c-21.539 0-39-17.461-39-39 0-7.525 1.928-14.441 5.619-20.4-12.383 6.535-20.619 19.424-20.619 34.4 0 21.539 17.461 39 39 39 14.014 0 26.299-7.394 33.175-18.491-5.428 2.864-11.611 4.491-18.175 4.491z" fill="#756e78"/></g><g><path d="m182.107 429.5c0-12.713 10.006-19.601 10.006-19.601 2.999-1.532 6.395-2.399 9.994-2.399 12.15 0 22 9.85 22 22 0 2.299-.353 4.515-1.007 6.598 0 0-6.181 13.402-20.993 13.402-12.151 0-20-7.85-20-20z" fill="#8b818e"/><path d="m213.107 438.5c-12.15 0-22-9.85-22-22 0-2.299.352-4.518 1.007-6.601-7.126 3.641-12.007 11.05-12.007 19.601 0 12.15 9.85 22 22 22 9.851 0 18.19-6.475 20.993-15.402-3 1.532-6.394 2.402-9.993 2.402z" fill="#756e78"/></g><g><path d="m289.9 429.5c0-12.713 10.006-19.601 10.006-19.601 2.999-1.532 6.395-2.399 9.994-2.399 12.15 0 22 9.85 22 22 0 2.299-.353 4.515-1.007 6.598 0 0-6.181 13.402-20.993 13.402-12.15 0-20-7.85-20-20z" fill="#8b818e"/><path d="m320.9 438.5c-12.15 0-22-9.85-22-22 0-2.299.352-4.518 1.007-6.601-7.126 3.641-12.007 11.05-12.007 19.601 0 12.15 9.85 22 22 22 9.851 0 18.19-6.475 20.993-15.402-2.999 1.532-6.394 2.402-9.993 2.402z" fill="#756e78"/></g><g><path d="m152.854 152.5c10.456 9.765 17.252 24.065 17.252 39.5 0 10.938-3.286 21.109-8.919 29.582-9.585 14.416-49.035 19.588-56.312 18.184-6.013-1.16-13.872-4.021-13.872-4.021s4.743-22.462 10.27-37.483c4.715-12.812 10.017-23.913 15.134-33.236 3.83-9.525 15.173-12.407 16.986-12.413z" fill="#8b818e"/><path d="m131.607 230.5c-4.313 0-8.578-.563-12.679-1.585-3.038-.756-6.34-2.87-8.846-4.757-1.559-1.175-2.301-3.154-1.878-5.06 5.348-24.107 13.945-46.498 25.188-66.486h-2.154c-.579.005-1.107.033-1.693.08-6.224.265-12.607 4.382-15.842 10.287-5.028 9.179-10.248 20.08-14.906 32.635-4.946 13.397-8.656 26.962-11.318 41.249 4.907 3.125 10.507 5.571 16.447 7.051 4.101 1.021 8.366 1.585 12.679 1.585 18.609 0 34.996-9.506 44.581-23.922-8.472 5.634-18.642 8.923-29.579 8.923z" fill="#756e78"/></g><g><path d="m98.195 368.362c5.452-3.945 16.854-8.324 16.854-8.324.518-.024 1.038-.038 1.558-.038 19.606 0 35.5 15.894 35.5 35.5 0 8.657-3.212 16.627-8.464 22.823 0 0-9.818 5.728-16.596 7.741-6.216-8.881-11.462-17.254-17.617-30.128-5.18-10.832-8.384-18.517-11.235-27.574z" fill="#8b818e"/><path d="m115.049 360.038c-7.206.338-14.145 2.988-19.595 6.929 7.315 22.747 17.463 43.553 30.901 62.698 6.772-2.014 12.783-6.027 17.289-11.342-11.835-17.279-21.535-36.923-28.595-58.285z" fill="#756e78"/></g><g><path d="m359.131 152.5c-.282.263-.556.536-.832.806 0 0-12.146 15.481-12.146 38.843 0 29.547 19.346 49.021 48.894 49.021 10.564 0 25.277-6.638 25.277-6.638l1.546-10.849c-1.844-7.885-4.253-16.416-7.418-25.406-4.83-13.715-10.355-25.48-15.626-35.196-.908-1.64-2.881-4.676-6.544-7.102-4.592-3.041-9.157-3.459-11.046-3.479-7.37 0-14.737 0-22.105 0z" fill="#8b818e"/><path d="m408.4 225.5c-29.547 0-53.5-23.953-53.5-53.5 0-6.519 1.215-12.836 3.398-18.694-9.978 9.737-16.398 23.675-16.398 38.694 0 29.547 23.953 53.5 53.5 53.5 10.564 0 20.86-3.44 29.154-8.724-.727-4.119-1.612-8.498-2.686-13.093-4.344 1.167-8.881 1.817-13.468 1.817z" fill="#756e78"/></g><g><path d="m416.549 366.997c-5.843-4.228-13.385-6.997-21.149-6.997-9.049 0-17.306 3.389-23.576 8.963-7.314 6.503-7.034 18.417-7.034 28.973 0 16.089 5.964 22.408 20.638 26.766 3.15-4.516 6.649-4.586 9.914-10.135 2.862-4.864 5.722-10.123 8.488-15.783 5.63-11.521 9.717-22.308 12.719-31.787z" fill="#8b818e"/><path d="m369.9 380.5c0-4.039.682-7.919 1.924-11.537-7.314 6.503-11.924 15.98-11.924 26.537 0 16.089 11.085 29.809 25.76 34.167 3.148-4.513 6.421-9.555 9.683-15.1-14.514-4.462-25.443-18.096-25.443-34.067z" fill="#756e78"/></g></g></g><g><path d="m486.534 274.739c4.957 0 9.77-1.431 13.917-4.136 7.234-4.718 11.553-12.873 11.553-21.815v-57.883c0-11.292-9.188-20.479-20.479-20.479s-20.479 9.188-20.479 20.479v30.705l-51.707-31.7c-3.979-10.52-8.625-20.69-13.928-30.419-4.836-8.869-14.1-14.379-24.176-14.379h-16.498c2.661-2.062 5.19-4.326 7.564-6.785 5.641-5.843 7.807-13.862 6.32-21.366 2.372-1.424 4.445-3.25 6.157-5.404l45.857-18.224c11.405-4.628 18.774-15.568 18.774-27.873v-25.375h18.087c11.051 0 20.042-8.991 20.042-20.043 0-11.051-8.992-20.042-20.042-20.042h-28.096c-16.584 0-30.076 13.492-30.076 30.076v28.593l-34.359 13.574c-3.016-1.289-6.334-2.005-9.816-2.005-6.95 0-13.41 2.848-18.043 7.656-3.694-2.514-8.078-3.894-12.636-3.894h-13.86c.122-6.065-.951-14.187-5.853-21.979 7.527-14.499 22.207-23.699 38.647-24.086 3.078 7.09 10.141 12.065 18.349 12.065 11.028 0 20-8.972 20-20s-8.972-20-20-20c-8.542 0-15.83 5.393-18.691 12.945-20.26.467-38.52 10.964-49.115 27.801-11.024-7.799-27.139-11.746-48.13-11.746-20.868 0-36.89 3.899-47.845 11.611-10.613-16.753-28.845-27.182-49.029-27.669-2.861-7.55-10.149-12.942-18.69-12.942-11.028 0-20 8.972-20 20s8.972 20 20 20c8.21 0 15.274-4.976 18.351-12.068 16.372.356 31.014 9.523 38.565 23.941-4.916 7.834-5.939 16.016-5.764 22.127h-13.585c-4.63 0-9.084 1.422-12.813 4.014-4.641-4.878-11.145-7.776-18.15-7.776-3.482 0-6.8.716-9.817 2.005l-34.359-13.574v-28.593c.002-16.584-13.49-30.076-30.075-30.076h-28.094c-11.052 0-20.043 8.991-20.043 20.042 0 11.052 8.991 20.043 20.042 20.043h18.086v25.375c0 12.305 7.369 23.245 18.824 27.893l45.809 18.206c1.721 2.166 3.81 3.999 6.198 5.427-1.528 7.383.545 15.301 6.058 21.071 2.454 2.567 5.079 4.918 7.841 7.057h-16.089c-10.004 0-19.237 5.455-24.096 14.235-5.375 9.711-10.085 19.856-14.123 30.347l-52.057 31.914v-30.705c0-11.292-9.187-20.479-20.479-20.479s-20.479 9.188-20.479 20.479v57.883c0 8.942 4.319 17.098 11.552 21.815 4.148 2.705 8.961 4.136 13.918 4.136 4.707 0 9.312-1.298 13.314-3.754l39.484-24.206c-1.831 12.854-2.768 25.966-2.768 39.22 0 20.042 2.106 39.686 6.17 58.546-13.293.955-25.267 7.875-32.47 18.936-8.668 12.957-10.658 30.935-4.938 45.893 1.048 3.143 3.974 5.13 7.114 5.13.786 0 1.586-.125 2.373-.387 3.93-1.31 6.053-5.558 4.744-9.487-4.066-9.901-3.16-23.242 3.278-32.963 4.442-7.1 14.136-12.459 23.561-12.246.876 3.163 1.81 6.299 2.8 9.408-6.895.357-13.193 3.666-17.429 9.208-3.906 5.08-6.127 13.805-3.52 21.128l14.079 42.234c3.125 9.373 2.485 19.56-1.753 27.949-4.301 8.513-11.667 14.82-20.74 17.76l-29.778 9.646c-1.268.411-2.618.304-3.804-.303-1.187-.605-2.066-1.637-2.477-2.905-.41-1.267-.303-2.618.303-3.804.605-1.187 1.637-2.066 2.904-2.477l29.322-9.498c6.708-2.173 12.304-6.871 15.354-12.89 3.105-6.127 3.619-13.089 1.447-19.605l-2.492-7.477c-1.31-3.929-5.558-6.049-9.487-4.743-3.93 1.31-6.053 5.558-4.744 9.487l2.492 7.477c.896 2.686.684 5.555-.596 8.08-1.258 2.481-3.663 4.45-6.597 5.401l-29.321 9.498c-10.484 3.396-16.251 14.688-12.855 25.174 1.646 5.078 5.17 9.213 9.925 11.641 2.856 1.459 5.951 2.196 9.067 2.196 2.072 0 4.154-.326 6.181-.983l29.777-9.646c12.909-4.182 23.388-13.154 29.506-25.266 6.029-11.934 6.976-26.315 2.595-39.457l-14.079-42.234c-.778-2.175-.267-5.468 1.207-7.274 1.629-2.131 4.092-3.354 6.759-3.354h4.038c8.585 22.06 20.126 42.434 34.389 60.324 34.127 42.808 79.654 66.383 128.194 66.383 48.539 0 94.066-23.575 128.193-66.383 14.263-17.891 25.805-38.264 34.39-60.324h4.039c2.666 0 5.13 1.222 6.758 3.353.557.511 1.966 3.545 1.207 7.275l-14.078 42.234c-4.381 13.142-3.435 27.522 2.595 39.457 6.119 12.111 16.598 21.084 29.507 25.266l29.775 9.646c2.028.657 4.11.983 6.183.983 3.116 0 6.212-.738 9.067-2.196 4.755-2.428 8.279-6.562 9.925-11.642 1.646-5.078 1.214-10.494-1.214-15.249s-6.562-8.279-11.641-9.924l-29.321-9.498c-2.936-.951-5.34-2.92-6.598-5.399-1.279-2.527-1.492-5.397-.597-8.082l14.318-42.954c4.879-14.634 2.798-30.519-5.708-43.581-7.204-11.062-19.179-17.98-32.471-18.936 4.064-18.86 6.17-38.503 6.17-58.546 0-13.248-.92-26.349-2.719-39.191l39.434 24.176c4.005 2.457 8.61 3.755 13.317 3.755zm-66.954-203.993c2.863-1.131 4.744-3.897 4.744-6.976v-33.694c0-8.313 6.763-15.076 15.076-15.076h28.096c2.78 0 5.042 2.262 5.042 5.042s-2.262 5.043-5.042 5.043h-25.587c-4.143 0-7.5 3.357-7.5 7.5v32.875c0 6.168-3.695 11.653-9.363 13.953l-34.924 13.88c-.279-3.511-1.281-6.821-2.863-9.778zm-47.827-55.746c2.757 0 5 2.243 5 5s-2.243 5-5 5-5-2.243-5-5 2.244-5 5-5zm-231.5 10c-2.757 0-5-2.243-5-5s2.243-5 5-5 5 2.243 5 5-2.243 5-5 5zm-18.367 68.293-34.874-13.86c-5.719-2.319-9.414-7.805-9.414-13.973v-32.875c0-4.143-3.358-7.5-7.5-7.5h-25.586c-2.78 0-5.042-2.263-5.042-5.043s2.261-5.042 5.042-5.042h28.095c8.313 0 15.077 6.763 15.077 15.076v33.694c0 3.078 1.881 5.845 4.744 6.976l32.322 12.769c-1.583 2.957-2.584 6.267-2.864 9.778zm-40.044 133.703-50.896 31.202c-3.373 2.068-7.871 2.01-11.197-.159-2.927-1.909-4.746-5.454-4.746-9.251v-57.883c0-3.021 2.458-5.479 5.479-5.479s5.479 2.458 5.479 5.479v44.101c0 2.715 1.467 5.218 3.836 6.544 2.368 1.328 5.27 1.27 7.584-.15l48.27-29.594c-1.416 5.004-2.684 10.071-3.809 15.19zm283.307-141.758c5.547 0 10.06 4.513 10.06 10.059 0 3.593-1.364 6.565-3.652 8.322-4.218-5.49-8.704-10.672-13.405-15.526 1.841-1.788 4.322-2.855 6.997-2.855zm-192.278 5.618c1.34-1.197 3.098-1.856 4.951-1.856h22.119c.008 0 .016.002.024.002.009 0 .018-.002.026-.002h52.331c4.142 0 7.5-3.357 7.5-7.5s-3.358-7.5-7.5-7.5h-45.925c-.179-4.195.466-10.21 4.424-15.555 6.998-9.45 22.557-14.445 44.996-14.445 22.377 0 37.982 4.974 45.129 14.384 4.103 5.403 4.837 11.413 4.702 15.616h-18.325c-4.143 0-7.5 3.357-7.5 7.5s3.357 7.5 7.5 7.5h24.9.03 22.218c1.853 0 3.61.659 4.949 1.855 8.333 7.449 16.062 16.045 22.972 25.55 2.545 3.5 2.174 8.338-.882 11.503-9.909 10.263-23.218 16.22-37.475 16.773-13.723.837-113.056.37-127.844.325-16.39.505-34.139-4.636-45.86-17.316-2.872-3.005-3.201-7.595-.783-10.913 7.03-9.649 14.877-18.37 23.323-25.921zm131.03 69.256c-3.277 20.696-19.687 37.077-40.398 40.306v-40.306zm-55.398 0v40.306c-20.711-3.229-37.121-19.61-40.398-40.306zm-107.908-56.388c-2.374-1.741-3.796-4.76-3.796-8.427 0-5.546 4.513-10.059 10.06-10.059 2.744 0 5.28 1.124 7.134 2.997-4.692 4.844-9.173 10.015-13.398 15.489zm-20.327 62.887c2.218-4.009 6.422-6.499 10.972-6.499h18.522c8.301 8.603 12.845 19.832 12.845 31.888 0 25.364-20.636 46-46 46-7.249 0-14.329-1.695-20.723-4.926 4.901-23.624 13.096-46.07 24.384-66.463zm8.947 253.878c-10.004-15.088-18.359-31.978-24.718-50.228 3.752-1.806 7.859-2.761 12.11-2.761 15.439 0 28 12.561 28 28-.001 10.623-6.138 20.288-15.392 24.989zm253.577 0c-9.254-4.701-15.392-14.368-15.392-24.989 0-15.439 12.561-28 28-28 4.251 0 8.359.955 12.11 2.761-6.358 18.25-14.714 35.14-24.718 50.228zm29.244-64.653c-5.222-2.195-10.846-3.336-16.636-3.336-23.71 0-43 19.29-43 43 0 15.51 8.519 29.704 21.579 37.268-28.408 36.585-67.314 60.058-110.475 62.507v-127.062c0-4.143-3.357-7.5-7.5-7.5-4.142 0-7.5 3.357-7.5 7.5v127.062c-43.161-2.449-82.067-25.923-110.475-62.508 13.059-7.565 21.578-21.758 21.578-37.268 0-23.71-19.29-43-43-43-5.79 0-11.414 1.141-16.636 3.336-6.122-21.854-9.467-45.358-9.467-69.836 0-12.737.914-25.328 2.697-37.66 7.374 3.064 15.312 4.66 23.406 4.66 33.636 0 61-27.364 61-61 0-11.319-3.203-22.365-9.033-31.888h24.403c3.48 28.975 26.537 52.001 55.528 55.43v117.671c0 4.143 3.358 7.5 7.5 7.5 4.143 0 7.5-3.357 7.5-7.5v-117.67c28.99-3.429 52.048-26.455 55.528-55.43h24.403c-5.831 9.523-9.034 20.569-9.034 31.888 0 4.455.484 8.905 1.439 13.227.773 3.499 3.874 5.883 7.316 5.883.536 0 1.081-.059 1.626-.179 4.044-.895 6.598-4.897 5.704-8.942-.721-3.259-1.086-6.62-1.086-9.988 0-12.056 4.544-23.285 12.846-31.888h18.988c4.583 0 8.8 2.514 11.006 6.559 11.091 20.346 19.146 42.757 23.967 66.361-6.418 3.257-13.527 4.967-20.808 4.967-10.754 0-21.215-3.788-29.455-10.665-3.181-2.653-7.909-2.229-10.563.952-2.654 3.18-2.228 7.909.952 10.563 10.932 9.125 24.806 14.15 39.066 14.15 8.111 0 16.064-1.603 23.45-4.679 1.755 12.334 2.653 24.931 2.653 37.679 0 24.478-3.344 47.981-9.467 69.836zm38.198 15.831c5.997 9.208 7.473 20.38 4.048 30.651l-14.318 42.954c-2.171 6.515-1.658 13.477 1.447 19.606 3.051 6.018 8.647 10.716 15.354 12.889l29.321 9.498c1.268.411 2.299 1.29 2.904 2.477.606 1.187.714 2.538.304 3.804-.411 1.268-1.29 2.3-2.477 2.905-1.188.606-2.539.713-3.805.303l-29.776-9.646c-9.074-2.939-16.44-9.247-20.741-17.76-4.238-8.39-4.878-18.576-1.753-27.949l14.078-42.234c2.075-5.985 1.405-14.651-3.52-21.128-4.236-5.542-10.535-8.851-17.429-9.208.99-3.108 1.924-6.245 2.8-9.408 9.453 0 18.57 4.578 23.563 12.246zm-19.952-144.599c-1.102-5.104-2.346-10.156-3.734-15.145l48.078 29.476c2.314 1.42 5.216 1.479 7.584.15 2.369-1.326 3.836-3.829 3.836-6.544v-44.101c0-3.021 2.458-5.479 5.479-5.479s5.479 2.458 5.479 5.479v57.883c0 3.797-1.818 7.342-4.747 9.251-3.323 2.17-7.821 2.229-11.197.159z"/><path d="m334.9 258c-25.641 0-46.5 20.859-46.5 46.5s20.859 46.5 46.5 46.5 46.5-20.859 46.5-46.5-20.859-46.5-46.5-46.5zm0 78c-17.369 0-31.5-14.131-31.5-31.5s14.131-31.5 31.5-31.5 31.5 14.131 31.5 31.5-14.131 31.5-31.5 31.5z"/><path d="m309.9 400c-16.267 0-29.5 13.233-29.5 29.5s13.233 29.5 29.5 29.5 29.5-13.233 29.5-29.5-13.233-29.5-29.5-29.5zm0 44c-7.995 0-14.5-6.505-14.5-14.5s6.505-14.5 14.5-14.5 14.5 6.505 14.5 14.5-6.505 14.5-14.5 14.5z"/><path d="m223.606 304.5c0-25.641-20.86-46.5-46.5-46.5s-46.5 20.859-46.5 46.5 20.86 46.5 46.5 46.5 46.5-20.859 46.5-46.5zm-78 0c0-17.369 14.131-31.5 31.5-31.5s31.5 14.131 31.5 31.5-14.131 31.5-31.5 31.5-31.5-14.131-31.5-31.5z"/><path d="m202.106 400c-16.266 0-29.5 13.233-29.5 29.5s13.234 29.5 29.5 29.5 29.5-13.233 29.5-29.5-13.233-29.5-29.5-29.5zm0 44c-7.995 0-14.5-6.505-14.5-14.5s6.505-14.5 14.5-14.5 14.5 6.505 14.5 14.5-6.504 14.5-14.5 14.5z"/></g></g></svg>