<svg enable-background="new 0 0 512 512" height="512" viewBox="0 0 512 512" width="512" xmlns="http://www.w3.org/2000/svg"><g id="_x30_7_Ladybug"><g><g><path d="m131.479 246.645-41.408-40.552c-6.761-6.587-9.438-16.367-6.967-25.505l9.616-35.578c.577-2.134-.252-4.4-2.07-5.659l-21.067-14.584c-4.744-3.284-5.928-9.793-2.643-14.537 3.284-4.744 9.793-5.927 14.537-2.643l21.067 14.585c9.087 6.291 13.231 17.62 10.347 28.29l-9.616 35.579c-.494 1.828.042 3.784 1.398 5.105l41.427 40.57z" fill="#878787"/><path d="m384.008 249.201-15.07-14.476 39.725-41.347c1.356-1.32 1.891-3.276 1.397-5.105l-9.615-35.576c-2.884-10.67 1.26-22 10.348-28.291l21.067-14.585c4.744-3.284 11.252-2.101 14.537 2.643 3.285 4.744 2.101 11.252-2.643 14.537l-21.068 14.586c-1.817 1.258-2.646 3.523-2.069 5.657l9.616 35.578c2.451 9.078-.172 18.785-6.848 25.387z" fill="#878787"/><path d="m425.975 506.889-21.065-14.584c-9.087-6.292-13.232-17.622-10.348-28.292l9.615-35.577c.494-1.828-.042-3.784-1.398-5.105l-40.631-39.746 14.613-14.937 40.616 39.732c6.763 6.591 9.442 16.371 6.971 25.508l-9.616 35.581c-.576 2.133.252 4.397 2.068 5.655l21.068 14.587c4.744 3.285 5.927 9.793 2.643 14.537-3.284 4.742-9.792 5.925-14.536 2.641z" fill="#878787"/><path d="m68.335 496.901c-3.285-4.744-2.101-11.253 2.643-14.537l21.067-14.585c1.817-1.258 2.646-3.524 2.069-5.658l-9.616-35.578c-2.47-9.138.208-18.918 6.987-25.523l40.107-38.12 14.395 15.147-40.013 38.03c-1.263 1.231-1.798 3.187-1.305 5.015l9.616 35.577c2.876 10.648-1.283 22.017-10.349 28.292l-21.066 14.584c-4.742 3.283-11.251 2.1-14.535-2.644z" fill="#878787"/><path d="m12.474 318.334c-1.268-5.629 2.268-11.221 7.897-12.489l30.324-6.83c1.963-.442 3.645-1.699 4.625-3.456l13.024-23.344c5.756-10.319 17.445-15.926 29.061-13.958 1.272.217 5.616 1.21 19.894 4.515 9.017 2.088 21.368 4.946 23.064 5.252-.82-.149-1.362-.124-1.573-.125v20.896c-1.699 0-1.732 0-26.204-5.665-7.758-1.796-17.413-4.03-18.75-4.284-2.852-.487-5.788.939-7.243 3.548l-13.026 23.345c-3.868 6.936-10.531 11.915-18.28 13.662l-30.325 6.83c-5.629 1.268-11.22-2.268-12.488-7.897z" fill="#878787"/><path d="m487.385 326.231-30.316-6.828c-7.762-1.748-14.412-6.717-18.289-13.665l-13.024-23.342c-1.457-2.611-4.398-4.033-7.321-3.535-1.145.222-7.743 1.889-12.559 3.106-14.522 3.669-14.624 3.669-16.334 3.669v-20.896c-.247 0-.805-.022-1.62.135 1.246-.24 7.943-1.932 12.834-3.167 8.92-2.255 12.702-3.197 14.184-3.449 11.626-1.984 23.309 3.636 29.065 13.958l13.023 23.342c.98 1.757 2.662 3.014 4.625 3.456l30.323 6.83c5.629 1.268 9.165 6.859 7.897 12.489-1.268 5.629-6.859 9.165-12.488 7.897z" fill="#878787"/><path d="m408.505 302.143c0 44.639-14.157 85.439-37.534 116.6-16.168 21.549-36.725 38.527-60.076 48.975-16.978 7.627-35.445 11.806-54.721 11.806-57.647 0-107.823-37.299-133.682-92.308-8.045-17.082-13.739-35.863-16.586-55.792-1.358-9.534-2.063-19.303-2.063-29.281 0-97.976 68.199-177.407 152.332-177.407 84.131 0 152.33 79.431 152.33 177.407z" fill="#f8664f"/><path d="m408.518 302.13c0 44.658-14.174 85.461-37.546 116.623-16.18 21.548-36.738 38.509-60.083 48.957-9.875 4.455-20.271 7.712-31.058 9.666 22.955-10.474 43.173-27.28 59.119-48.541 23.371-31.162 37.519-71.964 37.519-116.597 0-97.967-68.186-177.409-152.318-177.409-8.025 0-15.92.73-23.606 2.11 17.248-7.869 36.008-12.194 55.628-12.194 84.133.002 152.345 79.418 152.345 177.385z" opacity=".1"/><g><path d="m124.901 292.587c-1.794-.118-3.153-1.67-3.033-3.466.489-7.357 1.452-14.846 2.863-22.254.337-1.768 2.039-2.93 3.809-2.59 1.767.337 2.926 2.042 2.59 3.809-1.363 7.15-2.291 14.372-2.763 21.467-.119 1.798-1.678 3.157-3.466 3.034z" fill="#fff"/></g><g><path d="m131.139 253.755c-1.731-.489-2.74-2.287-2.252-4.018.763-2.71 1.662-5.534 2.743-8.633.594-1.697 2.455-2.589 4.149-2.001 1.698.593 2.594 2.45 2.001 4.149-1.038 2.972-1.896 5.672-2.623 8.252-.483 1.71-2.263 2.743-4.018 2.251z" fill="#fff"/></g><path d="m321.702 104.094 10.054 25.791h-151.009l10.054-25.791c10.515-26.973 36.5-44.733 65.45-44.733 28.951 0 54.936 17.76 65.451 44.733z" fill="#878787"/><g fill="#eef0ee"><ellipse cx="211.979" cy="284.591" rx="16.926" ry="16.926" transform="matrix(.924 -.383 .383 .924 -92.772 102.784)"/><ellipse cx="175.209" cy="206.729" rx="32.451" ry="32.451" transform="matrix(.924 -.383 .383 .924 -65.775 82.786)"/><ellipse cx="204.143" cy="411.537" rx="22.022" ry="22.022" transform="matrix(.924 -.383 .383 .924 -141.949 109.449)"/><path d="m171.676 353.077c0 20.139-16.299 36.437-36.437 36.437-4.493 0-8.776-.81-12.747-2.299-8.045-17.082-13.739-35.863-16.586-55.792 6.661-8.959 17.318-14.784 29.333-14.784 20.138.001 36.437 16.3 36.437 36.438z"/><path d="m370.971 418.743c-16.168 21.549-36.725 38.527-60.076 48.975-8.071-7.157-13.138-17.631-13.138-29.281 0-21.68 17.553-39.258 39.258-39.258 14.497 0 27.165 7.862 33.956 19.564z"/><ellipse cx="337.003" cy="207.209" rx="32.451" ry="32.451" transform="matrix(.383 -.924 .924 .383 16.601 439.263)"/><ellipse cx="298.178" cy="360.685" rx="22.022" ry="22.022" transform="matrix(.383 -.924 .924 .383 -149.159 498.137)"/><ellipse cx="361.739" cy="278.348" rx="14.734" ry="14.734" transform="matrix(.383 -.924 .924 .383 -33.853 506.032)"/></g><path d="m367.758 181.469-85.63-13.701c-17.245-2.759-34.819-2.757-52.064.006l-85.475 13.695c8.668-48.111 50.541-83.114 99.427-83.114h24.315c48.886 0 90.759 35.003 99.427 83.114z" fill="#565656"/></g><g><path d="m492.513 302.657-30.322-6.827c-1.048-.237-1.959-.92-2.488-1.849l-13.028-23.345c-6.435-11.533-19.475-17.791-32.485-15.583-1.094.202-3.167.685-7.577 1.769-1.564-7.02-3.45-13.929-5.726-20.664l24.626-25.636c7.504-7.417 10.458-18.354 7.705-28.545l-9.638-35.584c-.214-.803.099-1.656.794-2.134l21.048-14.587c6.154-4.248 7.832-12.728 3.486-19.074-4.305-6.21-12.857-7.758-19.068-3.454l-21.083 14.591c-10.173 7.046-14.849 19.833-11.633 31.823l9.615 35.566c.188.693-.01 1.433-.585 1.999l-16.968 17.65c-5.315-10.199-11.509-19.849-18.572-28.78-5.117-27.045-20.373-49.978-41.407-65.168l-4.641-11.914c-5.308-13.688-14.526-25.333-26.651-33.729l15.104-19.934c5.659-7.465 8.773-16.947 8.773-26.699v-19.274c0-1.799-1.458-3.257-3.257-3.257s-3.257 1.458-3.257 3.257v19.275c0 8.341-2.646 16.424-7.45 22.765l-15.449 20.389c-11.059-6.292-23.485-9.608-36.3-9.608-13.109 0-25.539 3.413-36.345 9.54l-15.396-20.321c-4.806-6.342-7.453-14.427-7.453-22.765v-19.275c0-1.799-1.458-3.257-3.257-3.257s-3.257 1.458-3.257 3.257v19.275c0 9.75 3.117 19.232 8.776 26.699l15.047 19.86c-11.745 8.136-21.109 19.729-26.601 33.799l-4.579 11.763c-21.135 15.182-36.471 38.166-41.609 65.288-6.348 8.037-12.056 16.787-17.076 26.033l-17.553-17.198c-.509-.489-.71-1.22-.522-1.91l9.613-35.564c3.247-11.989-1.43-24.779-11.633-31.826l-21.091-14.6c-6.342-4.344-14.826-2.635-19.06 3.491-4.282 6.188-2.723 14.74 3.486 19.071l21.035 14.553c.7.49 1.025 1.349.809 2.139l-9.615 35.59c-2.776 10.268.221 21.261 7.822 28.685l24.76 24.244c-2.793 7.752-5.121 15.812-6.958 24.039-4.822-1.093-6.769-1.514-7.627-1.658-12.977-2.209-26.03 4.052-32.47 15.591l-13.033 23.357c-.514.926-1.417 1.597-2.476 1.836l-30.335 6.828c-7.401 1.68-12.025 9.03-10.348 16.403 1.671 7.378 9.043 11.988 16.371 10.352l30.327-6.825c8.631-1.941 16.071-7.505 20.419-15.27l13.035-23.361c.761-1.383 2.364-2.163 3.751-1.922.747.15 4.088.918 8.231 1.877-2.777 31.425 1.478 62.614 12.442 91.321l-24.68 23.453c-7.621 7.446-10.628 18.448-7.85 28.714l9.615 35.559c.216.812-.087 1.665-.766 2.132l-21.083 14.591c-6.206 4.299-7.755 12.853-3.453 19.071 4.281 6.184 12.825 7.803 19.071 3.481l21.053-14.59c10.206-7.068 14.88-19.859 11.633-31.825l-9.615-35.595c-.176-.648.005-1.396.405-1.789l17.952-17.085c28.896 51.066 77.206 81.427 130.01 81.427 52.348 0 98.281-30.096 126.163-74.897l18.168 17.763c.514.504.718 1.261.544 1.934l-9.613 35.589c-3.244 11.96 1.427 24.75 11.633 31.826l21.063 14.573c6.261 4.288 14.755 2.723 19.058-3.463 4.296-6.203 2.797-14.742-3.453-19.072l-21.091-14.6c-.669-.458-.972-1.312-.756-2.117l9.615-35.565c2.779-10.28-.232-21.274-7.852-28.686l-24.127-23.615c12.661-29.61 18.465-63.419 15.456-98.397 4.834-1.232 7.51-1.88 8.007-1.969 1.58-.271 3.153.497 3.931 1.893l13.025 23.338c4.3 7.758 11.745 13.327 20.424 15.277l30.253 6.817c7.204 1.725 14.757-2.751 16.419-10.341 1.675-7.372-2.943-14.729-10.355-16.41zm-81.733-106.95c2.188-2.144 3.048-5.318 2.247-8.283l-9.615-35.559c-2.504-9.336 1.135-19.291 9.051-24.774l21.083-14.592c3.265-2.259 7.75-1.444 9.997 1.794 2.279 3.332 1.418 7.781-1.827 10.023l-21.04 14.581c-2.954 2.027-4.318 5.717-3.384 9.192l9.638 35.589c2.14 7.93-.158 16.44-6.056 22.273l-22.456 23.377c-1.856-4.89-3.911-9.681-6.141-14.371zm-217.12-90.434c5.041-12.914 13.656-23.547 24.468-30.97l10.75 14.188c1.088 1.435 3.133 1.714 4.562.628 1.433-1.085 1.715-3.128.628-4.562l-10.35-13.66c9.671-5.318 20.716-8.289 32.359-8.289 11.388 0 22.431 2.893 32.317 8.351l-10.302 13.597c-1.086 1.434-.804 3.477.628 4.562 1.434 1.09 3.481.801 4.562-.628l10.699-14.121c11.161 7.662 19.639 18.34 24.511 30.9l1.375 3.53c-15.322-8.75-33.007-13.706-51.706-13.706h-24.315c-18.623 0-36.239 4.918-51.519 13.601zm50.187-3.664h24.315c46.258 0 85.29 32.196 95.294 75.898l-80.985-12.958c-17.608-2.818-35.467-2.819-53.095.005-31.417 5.034-52.074 8.344-80.824 12.951 10.127-44.247 49.487-75.896 95.295-75.896zm122.184 105.606c0 16.091-13.101 29.182-29.208 29.182-16.091 0-29.182-13.091-29.182-29.182 0-13.5 9.445-25.359 22.53-28.437l21.723 3.476c8.722 5.261 14.137 14.764 14.137 24.961zm-207.125-24.771 23.96-3.839c12.603 3.49 21.362 14.951 21.362 28.115 0 16.105-13.091 29.208-29.18 29.208-16.106 0-29.208-13.103-29.208-29.208 0-9.825 4.885-18.843 13.066-24.276zm-72.82-1.008 9.613-35.588c.931-3.427-.42-7.114-3.374-9.185l-21.043-14.558c-3.262-2.276-4.089-6.768-1.842-10.016 2.226-3.224 6.684-4.106 10.005-1.831l21.083 14.594c7.939 5.482 11.577 15.435 9.048 24.766l-9.613 35.564c-.807 2.985.071 6.166 2.272 8.285l18.908 18.524c-2.191 4.403-4.434 9.439-6.27 14.002l-22.702-22.227c-5.914-5.781-8.248-14.337-6.085-22.33zm-2.499 99.362-13.025 23.34c-3.443 6.15-9.333 10.558-16.162 12.094l-30.32 6.824c-3.868.869-7.722-1.578-8.598-5.437-.879-3.87 1.559-7.729 5.432-8.607l30.335-6.828c2.875-.651 5.331-2.488 6.735-5.029l13.028-23.345c5.097-9.132 15.435-14.087 25.699-12.341.72.12 2.781.57 7.413 1.619-.886 4.657-1.612 9.432-2.181 14.293-3.869-.894-6.93-1.595-7.712-1.751-4.257-.737-8.539 1.347-10.644 5.168zm41.124 103.805c-7.628-16.539-12.767-33.838-15.537-52.304 6.366-7.9 15.727-12.404 25.893-12.404 18.297 0 33.182 14.885 33.182 33.181s-14.885 33.18-33.182 33.18c-3.555-.001-7.03-.557-10.356-1.653zm-21.195 29.141c-2.109 2.062-2.959 5.276-2.17 8.182l9.615 35.594c2.527 9.313-1.112 19.265-9.056 24.766l-21.05 14.59c-3.262 2.253-7.75 1.435-10.007-1.833-2.259-3.264-1.45-7.753 1.804-10.007l21.071-14.583c2.941-2.019 4.292-5.71 3.361-9.189l-9.615-35.566c-2.165-7.99.178-16.555 6.081-22.322l22.77-21.637c2.16 5.092 3.862 8.716 6.451 13.684zm24.92-21.545c2.178.367 4.39.569 6.631.569 21.887 0 39.696-17.806 39.696-39.693s-17.809-39.695-39.696-39.695c-10.032 0-19.659 3.921-26.96 10.654-5.345-50.037 7.665-100.806 38.034-139.545l1.186-.19c-5.086 6.258-8 14.088-8 22.42 0 19.697 16.025 35.721 35.721 35.721 19.681 0 35.693-16.025 35.693-35.721 0-12.381-6.339-23.535-16.279-29.973l35.948-5.76c7.413-1.188 14.872-1.824 22.338-1.972v307.184c-54.201-1.349-99.118-35.558-124.312-83.999zm182.908 71.626c-6.699-6.692-10.502-15.829-10.502-25.39 0-19.852 16.15-36.001 36.001-36.001 12.059 0 23.358 6.117 29.993 16.098-15.5 20.131-34.693 35.587-55.492 45.293zm103.586-53.104c5.934 5.771 8.275 14.325 6.112 22.324l-9.615 35.573c-.931 3.474.42 7.165 3.348 9.174l21.078 14.591c3.262 2.257 4.074 6.739 1.812 10.001-2.17 3.123-6.837 3.987-10.012 1.813l-21.05-14.563c-7.939-5.507-11.58-15.46-9.053-24.769l9.626-35.631c.758-2.957-.115-6.114-2.285-8.245l-19.305-18.874c2.481-4.333 4.789-8.783 6.931-13.332zm-44.039 2.291c-7.965-10.641-20.6-17.092-34.047-17.092-23.442 0-42.515 19.072-42.515 42.515 0 10.438 3.859 20.436 10.691 28.138-14.669 5.991-30.024 9.209-45.759 9.601v-307.157c7.413.153 14.82.787 22.182 1.965l36.621 5.859c-10.249 6.396-16.937 17.81-16.937 30.374 0 19.683 16.012 35.696 35.696 35.696 19.697 0 35.721-16.013 35.721-35.696 0-8.524-3.092-16.655-8.446-23.008l1.753.281c50.717 64.573 52.129 162.039 5.04 228.524zm125.621-95.369c-.883 4.024-4.886 6.295-8.585 5.416l-30.302-6.828c-6.867-1.543-12.758-5.946-16.162-12.087l-13.03-23.349c-2.122-3.799-6.422-5.865-10.738-5.133-.91.163-4.339 1.017-7.551 1.833-.567-4.81-1.323-9.57-2.217-14.288 4.344-1.069 6.475-1.568 7.399-1.738 10.254-1.747 20.567 3.214 25.658 12.342l13.04 23.368c1.445 2.541 3.896 4.365 6.73 5.007l30.322 6.825c3.853.872 6.329 4.698 5.436 8.632z"/><path d="m353.362 461.963c-13.485 10.835-27.445 18.809-42.22 24.626-1.674.659-2.496 2.55-1.837 4.223.655 1.667 2.54 2.5 4.224 1.838 15.622-6.144 30.16-14.559 43.915-25.609 1.402-1.127 1.626-3.177.499-4.579s-3.171-1.624-4.581-.499z"/><path d="m293.926 492.208c-3.272.883-6.43 1.606-9.654 2.21-1.768.331-2.931 2.033-2.6 3.801.293 1.565 1.662 2.656 3.198 2.656.198 0 .399-.018.603-.056 3.331-.625 6.593-1.368 9.962-2.272 1.491-.296 2.608-1.614 2.608-3.195 0-2.086-2.119-3.682-4.117-3.144z"/><path d="m211.81 304.77c11.129 0 20.183-9.054 20.183-20.183s-9.053-20.183-20.183-20.183-20.183 9.054-20.183 20.183 9.053 20.183 20.183 20.183zm0-33.851c7.537 0 13.669 6.132 13.669 13.669s-6.132 13.669-13.669 13.669-13.669-6.132-13.669-13.669 6.132-13.669 13.669-13.669z"/><path d="m203.973 386.255c-13.938 0-25.279 11.341-25.279 25.28 0 13.938 11.341 25.279 25.279 25.279s25.279-11.341 25.279-25.279c0-13.94-11.341-25.28-25.279-25.28zm0 44.045c-10.348 0-18.765-8.418-18.765-18.765 0-10.348 8.417-18.767 18.765-18.767s18.765 8.418 18.765 18.767c0 10.347-8.417 18.765-18.765 18.765z"/><path d="m298.008 335.403c-13.938 0-25.279 11.341-25.279 25.279 0 13.94 11.341 25.28 25.279 25.28s25.279-11.341 25.279-25.28-11.341-25.279-25.279-25.279zm0 44.045c-10.348 0-18.765-8.418-18.765-18.767 0-10.347 8.417-18.765 18.765-18.765s18.765 8.418 18.765 18.765c0 10.349-8.417 18.767-18.765 18.767z"/><path d="m361.568 260.355c-9.918 0-17.989 8.071-17.989 17.992 0 9.919 8.071 17.99 17.989 17.99 9.921 0 17.992-8.071 17.992-17.99 0-9.921-8.071-17.992-17.992-17.992zm0 29.468c-6.328 0-11.475-5.149-11.475-11.477 0-6.329 5.147-11.478 11.475-11.478s11.478 5.149 11.478 11.478c0 6.328-5.15 11.477-11.478 11.477z"/><path d="m128.204 160.71c1.707.624 3.565-.265 4.178-1.938 1.081-2.954 2.186-5.679 3.379-8.332.735-1.641.003-3.569-1.639-4.305-1.641-.738-3.565-.004-4.305 1.636-1.254 2.795-2.417 5.66-3.552 8.759-.618 1.691.25 3.561 1.939 4.18z"/><path d="m139.255 136.748c1.508.953 3.524.519 4.493-1.013 8.608-13.611 20.241-25.588 33.645-34.632 1.491-1.006 1.883-3.03.878-4.521s-3.025-1.883-4.521-.878c-14.145 9.544-26.421 22.184-35.508 36.551-.962 1.52-.509 3.531 1.013 4.493z"/></g></g></g></svg>