<svg id="Capa_1" enable-background="new 0 0 512.033 512.033" height="512" viewBox="0 0 512.033 512.033" width="512" xmlns="http://www.w3.org/2000/svg"><g><g><path d="m61.497 145.046 24.292 40.755 83.197-51.625v-7.003l-45.37-15.875c-11.843-4.143-24.923-2.706-35.583 3.909l-22.954 14.246z" fill="#f9f6f6"/><path d="m88.76 183.551-19.48-31.387c-4.89-7.879-4.771-17.448-.52-24.994l-17.247 10.704c-9.897 6.142-12.941 19.145-6.799 29.042l16.75 26.989 7.699 2.214 20.045-12.438z" fill="#e2d8ec"/><path d="m65.538 271.801-30.125 20.5-3.375 8.125v3.206l12.23 19.707c5.151 8.3 16.156 10.877 24.457 5.725l25.521-15.838 2.417-4.383-32.011-50.24z" fill="#f9f6f6"/><path d="m42.902 288.769 29.361-18.222-16.006-25.121h-4.088l-25.521 15.838c-8.3 5.151-10.876 16.156-5.725 24.456l12.156 19.588c.408-6.553 3.85-12.833 9.823-16.539z" fill="#e2d8ec"/><path d="m445.7 48.153c-.292-.471-.561-.95-.819-1.432l-5.226 1.566-114.562 74.154 9.729 15.677 126.491-78.502c-6.418-1.785-12.019-5.671-15.613-11.463z" fill="#ffb640"/><path d="m445.7 48.153c-3.595-5.792-4.591-12.535-3.341-19.08l-126.491 78.502 9.477 15.271z" fill="#ffa90f"/><path d="m489.505 20.967c-3.472-5.594-8.57-9.559-14.302-11.677h-4.665l-13.25 11.886-3.75 12.75s1.25 15.125 1.5 15.5 3.25 6.375 4.75 7.5 8.75 4 8.625 4.125 6.818 1.612 6.819 1.613c1.746-.651 3.454-1.481 5.098-2.501 13.357-8.29 17.465-25.838 9.175-39.196z" fill="#fb5fa7"/><path d="m460.93 50.987c-8.29-13.357-4.181-30.906 9.176-39.196 1.644-1.02 3.352-1.851 5.097-2.501-7.954-2.94-17.13-2.317-24.894 2.501-13.357 8.29-17.465 25.838-9.176 39.196 7.27 11.714 21.659 16.312 34.098 11.677-5.731-2.118-10.829-6.083-14.301-11.677z" fill="#fb4297"/><path d="m349.649 141.436-17.489-28.18-7.067-1.58-14.263 1.84-43.076 26.308-7.599-2.073 34.758 58.367 7.67 1.544 39.666-24.617c10.727-6.657 14.057-20.881 7.4-31.609z" fill="#f9f6f6"/><path d="m306.68 118.868c8.853-5.494 19.611-5.54 28.293-1.078l-15.499-24.973c-6.658-10.727-20.882-14.057-31.609-7.4l-39.666 24.617v7.642l16.299 27.37z" fill="#e2d8ec"/><path d="m262.413 298.179 5.539 2.045 10.621-6.592c5.7-3.538 7.469-11.095 3.932-16.795l-15.543-25.045-3.965-.368-15.5 9.208z" fill="#3351c5"/><path d="m250.73 258.711-29.4 17.465 15.833 38.167 4.34 2.295 26.449-16.414z" fill="#213993"/><path d="m276.627 397.422-51.917-119.409-5.547-1.337-43.999 26.136 40.814 142.433 60.184-37.82 3.106-5.964c-1.082-1.17-1.984-2.527-2.641-4.039z" fill="#f9f6f6"/><path d="m216.94 441.364-33.975-139.079v-4.106l-28.333 16.831v6.494l33.369 136.601 5.412 1.321 24.221-15.22z" fill="#e2d8ec"/><path d="m332.066 427.537-8.424-13.574c-2.506-4.039-6.84-6.584-11.588-6.807l-22.866-1.072c-3.849-.18-7.387-1.886-9.918-4.622l-64.387 39.959 10.15 35.422 14.797 12.333 18.815.915 68.768-42.678c6.773-4.204 8.856-13.102 4.653-19.876z" fill="#d5c6e4"/><path d="m222.074 462.379-5.134-21.015-.259-1.058-28.68 17.799 5.042 20.641c5.447 22.296 31.08 32.77 50.582 20.667l18.439-11.444c-17.311 3.406-35.472-7.095-39.99-25.59z" fill="#c6b4da"/><path d="m267.754 139.824-21.924-5.981-11.333 2.833-162.234 102.065-7.974 14.438.886 13.205 31.08 50.079c10.17 16.387 31.899 21.474 48.287 11.304l143.363-88.973c16.388-10.17 21.474-31.899 11.304-48.287z" fill="#5169cd"/><path d="m82.941 233.85 147.521-91.554c12.467-7.737 27.933-6.885 39.381.895l-16.73-26.957c-10.17-16.388-31.899-21.474-48.287-11.304l-143.362 88.973c-16.388 10.17-21.474 31.899-11.304 48.287l15.909 25.634c-1.177-13.172 4.924-26.559 16.872-33.974z" fill="#3351c5"/><path d="m117.26 210.561-19.27 11.959c-7.75 4.809-10.155 15.085-5.346 22.834s15.085 10.155 22.834 5.345l19.27-11.959z" fill="#d5c6e4"/><path d="m236.322 156.186c-4.81-7.749-15.085-10.155-22.834-5.345l-96.228 59.72 17.489 28.18 96.228-59.72c7.749-4.81 10.155-15.085 5.345-22.835z" fill="#213993"/></g><g><path d="m484.273 66.535c16.888-10.481 22.077-32.632 11.593-49.522-10.485-16.895-32.631-22.075-49.523-11.594-8.145 5.055-13.838 12.974-16.037 22.301l-30.761 19.091-1.655-2.667c-2.185-3.52-6.809-4.601-10.327-2.417-3.52 2.184-4.602 6.808-2.417 10.327l1.655 2.666-23.282 14.449-9.079-14.63c-2.185-3.52-6.809-4.602-10.327-2.417-3.52 2.184-4.602 6.808-2.417 10.327l9.079 14.629-23.282 14.449-1.655-2.667c-8.849-14.259-27.678-18.667-41.937-9.816v-.001l-34.97 21.702c-13.463-10.118-32.563-11.811-48.069-2.189v.001l-32.793 20.352-41.986-14.691c-14.054-4.917-29.367-3.233-42.015 4.616l-36.521 22.665c-13.395 8.313-17.528 25.975-9.216 39.369l13.149 21.187c-14.077 12.645-18.276 33.585-9.508 50.865l-19.291 11.972c-11.834 7.345-15.487 22.948-8.143 34.784l23.346 37.617c7.327 11.807 22.931 15.501 34.784 8.144l19.29-11.972c12.862 17.226 37.403 22.542 56.526 10.674l1.304-.809 35.957 147.195c6.641 27.189 37.877 40.122 61.823 25.26l83.786-51.999c10.325-6.408 13.453-19.92 7.072-30.203l-8.425-13.575c-3.811-6.138-10.394-10.004-17.609-10.343l-22.865-1.072c-2.644-.123-5.004-1.792-6.035-4.161l-9.295-21.378c-1.651-3.8-6.071-5.542-9.868-3.888-3.799 1.651-5.539 6.069-3.888 9.868l8.656 19.908-76.276 47.338-29.625-121.271 58.083-36.047 25.205 57.97c1.652 3.799 6.067 5.54 9.868 3.888 3.799-1.651 5.539-6.069 3.888-9.868l-9.287-21.359 31.562-19.588c9.229-5.728 12.076-17.896 6.349-27.123l-11.588-18.672 14.571-9.043c15.486-9.611 22.471-27.47 19.375-44.047l34.969-21.702c14.268-8.854 18.672-27.667 9.816-41.937l-1.654-2.666 23.283-14.45 9.079 14.63c2.184 3.519 6.809 4.602 10.327 2.417 3.52-2.184 4.602-6.808 2.417-10.327l-9.079-14.629 23.282-14.449 1.655 2.667c2.184 3.519 6.809 4.602 10.327 2.417 3.52-2.184 4.602-6.808 2.417-10.327l-1.655-2.666 30.76-19.09c9.497 2.207 19.097.498 27.107-4.473zm-205.524 344.071c3.119 1.824 6.702 2.812 10.076 2.971l22.865 1.072c2.276.106 4.36 1.324 5.567 3.27l8.425 13.574c.009.015.016.03.025.045 2 3.279.936 7.519-2.261 9.503l-83.787 51.999c-15.146 9.406-35.093 1.319-39.341-16.074l-3.751-15.357zm-227.673-247.646c-3.952-6.367-1.986-14.763 4.381-18.714l36.521-22.665c8.594-5.334 19.198-6.684 29.151-3.203l30.564 10.694c-10.298 6.391-77.533 48.118-87.823 54.504zm13.682 159.733c-4.785 2.971-11.158 1.477-14.129-3.309l-23.346-37.617c-2.983-4.808-1.5-11.146 3.308-14.13l19.147-11.884c3.682 5.933 30.102 48.504 34.167 55.055zm209.848-35.433-29.696 18.43-10.749-24.722 30.371-18.849 11.589 18.672c1.353 2.182.672 5.111-1.515 6.469zm9.332-54.839c-29.807 18.498-113.894 70.684-143.363 88.973-12.916 8.017-29.943 4.028-37.96-8.887l-46.094-74.272c-7.994-12.881-3.992-29.966 8.887-37.959l143.363-88.974v.001c12.938-8.031 30.008-3.926 37.959 8.887l46.095 74.273c7.922 12.756 4.104 29.897-8.887 37.958zm54.345-65.748-32.525 20.186c-.062-.103-.125-.205-.188-.307l-46.094-74.272c-.002-.003-.004-.006-.006-.009-.061-.099-.124-.197-.186-.296l32.526-20.185c0-.001 0-.001 0-.001 7.216-4.478 16.803-2.232 21.281 4.982 6.456 10.403 23.707 38.2 30.173 48.619 4.494 7.242 2.26 16.789-4.981 21.283zm8.163-44.602-.064-.103-10.981-17.694 23.282-14.449 11.045 17.797zm36.027-22.359-11.045-17.797 23.282-14.449 11.045 17.797zm36.027-22.36-11.045-17.797 23.082-14.325c.944 3.528 2.493 6.94 4.213 9.711 1.706 2.75 4.072 5.66 6.832 8.086zm29.016-30.29c-.006-.01-.014-.019-.02-.03l-.001-.001c-6.105-9.841-3.098-22.751 6.759-28.868 9.841-6.107 22.759-3.086 28.868 6.759 6.109 9.846 3.089 22.757-6.759 28.868-9.907 6.15-22.782 3.005-28.847-6.728z"/><path d="m209.521 144.468-89.854 55.765-.353-.568c-2.186-3.521-6.81-4.6-10.328-2.418-3.52 2.185-4.602 6.809-2.418 10.328l.353.569-12.898 8.005c-11.282 7.002-14.765 21.878-7.764 33.161 7.003 11.284 21.881 14.765 33.163 7.763l13.021-8.081c2.446 2.662 6.402 3.204 9.464 1.305 3.112-1.932 4.314-5.77 3.042-9.066l28.848-17.904c3.52-2.184 4.602-6.808 2.417-10.327-2.184-3.52-6.808-4.601-10.327-2.417l-28.732 17.831-9.579-15.435 89.855-55.764c4.255-2.644 9.865-1.327 12.507 2.927 2.628 4.235 1.307 9.879-2.929 12.508l-31.382 19.477c-3.52 2.184-4.602 6.808-2.417 10.327 2.186 3.521 6.81 4.603 10.327 2.417l31.381-19.476c11.279-6.997 14.765-21.883 7.765-33.162-7.002-11.284-21.877-14.769-33.162-7.765zm-98.009 99.859c-4.252 2.644-9.866 1.329-12.507-2.927s-1.327-9.866 2.928-12.508l12.897-8.004 9.579 15.435z"/></g></g></svg>