<svg id="Layer_1" viewBox="0 0 1000 1000" xmlns="http://www.w3.org/2000/svg" data-name="Layer 1"><path d="m484.51 116.61c-.41 23.08-5.58 67.74-36.8 95.91l-.51.45-.5.44c-27 23.62-68.09 31.15-122.37 22.45 22.38-65.05 84.94-113.38 160.18-119.25z" fill="#616161"/><path d="m678.23 244c-53.56 13.4-104.32 12.82-151.07-1.75a216.11 216.11 0 0 1 -45-19.66c29-35.47 34-80.89 34.38-105.87 77.88 6.49 141.96 58.46 161.69 127.28z" fill="#616161"/><path d="m684.51 288.73c0 92.6-78.91 196.17-184.51 196.17s-184.51-103.57-184.51-196.17a163 163 0 0 1 1.44-21.66 294.3 294.3 0 0 0 48.27 4.27c37.31 0 68.36-8.72 92.79-26.12a239.6 239.6 0 0 0 57.88 27 288.14 288.14 0 0 0 87.61 13.21 340 340 0 0 0 80.52-9.93q.51 6.56.51 13.23z" fill="#ffccbc"/><path d="m478.28 598.3-40.72 32.83-79.68-100.17 40.73-32.83z" fill="#90caf9"/><path d="m642.12 530.96-79.67 100.18-40.73-32.84 79.67-100.18z" fill="#90caf9"/><path d="m552.89 509.29-52.89 66.51-52.9-66.51a187.63 187.63 0 0 0 105.79 0z" fill="#ffccbc"/><path d="m534.24 762.24a33.54 33.54 0 0 1 2.93 23.89l-27.8 98.37h-22.27l-28.1-98.39a33.55 33.55 0 0 1 2.94-23.87 14.29 14.29 0 0 0 .79-1.74l21.4-55.94a15.5 15.5 0 0 0 -2.13-14.84l-25.51-34 43.51-35.11 42.87 34.56-28.26 33.93a15.51 15.51 0 0 0 -2.61 15.46l21.41 55.94a14.29 14.29 0 0 0 .83 1.74z" fill="#e53935"/><path d="m454.87 884.5h-253.09v-194c0-74 55.39-136.47 127.51-145.73l93.32 117.32.11.15 29.36 39.18-18 47.12a64.5 64.5 0 0 0 -5.08 45.46c0 .14.07.29.11.44z" fill="#64b5f6"/><path d="m798.22 690.55v194h-256.63l25.48-90.15c0-.13.07-.26.1-.39a64.5 64.5 0 0 0 -5.09-45.37l-17.84-46.64 32.53-39c.15-.18.3-.36.44-.55l93.51-117.56c72.12 9.11 127.5 71.6 127.5 145.66z" fill="#64b5f6"/><g fill="#fff" opacity=".5"><path d="m474.51 126.61c-.41 23.08-5.58 67.74-36.8 95.91l-.51.45-.5.44c-27 23.62-68.09 31.15-122.37 22.45 22.38-65.05 84.94-113.38 160.18-119.25z"/><path d="m668.23 254c-53.56 13.4-104.32 12.82-151.07-1.75a216.11 216.11 0 0 1 -45-19.66c29-35.47 34-80.89 34.38-105.87 77.88 6.49 141.96 58.46 161.69 127.28z"/><path d="m674.51 298.73c0 92.6-78.91 196.17-184.51 196.17s-184.51-103.57-184.51-196.17a163 163 0 0 1 1.44-21.66 294.3 294.3 0 0 0 48.27 4.27c37.31 0 68.36-8.72 92.79-26.12a239.6 239.6 0 0 0 57.88 27 288.14 288.14 0 0 0 87.61 13.21 340 340 0 0 0 80.52-9.93q.51 6.56.51 13.23z"/><path d="m468.28 608.3-40.72 32.83-79.68-100.17 40.73-32.83z"/><path d="m632.12 540.96-79.67 100.18-40.73-32.84 79.67-100.18z"/><path d="m542.89 519.29-52.89 66.51-52.9-66.51a187.63 187.63 0 0 0 105.79 0z"/><path d="m524.24 772.24a33.54 33.54 0 0 1 2.93 23.89l-27.8 98.37h-22.27l-28.1-98.39a33.55 33.55 0 0 1 2.94-23.87 14.29 14.29 0 0 0 .79-1.74l21.4-55.94a15.5 15.5 0 0 0 -2.13-14.84l-25.51-34 43.51-35.11 42.87 34.56-28.26 33.93a15.51 15.51 0 0 0 -2.61 15.46l21.41 55.94a14.29 14.29 0 0 0 .83 1.74z"/><path d="m444.87 894.5h-253.09v-194c0-74 55.39-136.47 127.51-145.73l93.32 117.32.11.15 29.36 39.18-18 47.12a64.5 64.5 0 0 0 -5.08 45.46c0 .14.07.29.11.44z"/><path d="m788.22 700.55v194h-256.63l25.48-90.15c0-.13.07-.26.1-.39a64.5 64.5 0 0 0 -5.09-45.37l-17.84-46.64 32.53-39c.15-.18.3-.36.44-.55l93.51-117.56c72.12 9.11 127.5 71.6 127.5 145.66z"/></g><g fill="#413b32"><path d="m712.73 250.82a16 16 0 0 0 -19.87-10.82q-7.35 2.16-14.63 4a160.88 160.88 0 0 1 5.77 31.5q8.82-2.13 17.93-4.81a16 16 0 0 0 10.8-19.87zm-121.45 212.06a15.53 15.53 0 0 0 -3.38 2.56 14.42 14.42 0 0 0 -1.17 1.31l-33.83 42.54a199.37 199.37 0 0 0 32.19-12.52 218.79 218.79 0 0 0 36.23-22.39l-12.57-10.14a15.5 15.5 0 0 0 -17.47-1.36zm-93-378.77a16 16 0 0 0 -14.2 17.6 139.51 139.51 0 0 1 .42 14.9q7.68-.61 15.5-.61 8.37 0 16.57.69a162.17 162.17 0 0 0 -.66-18.43 16 16 0 0 0 -17.62-14.15zm-87.76 380a15.5 15.5 0 0 0 -19.25.16l-12.6 10.15a218.79 218.79 0 0 0 36.23 22.39 201.14 201.14 0 0 0 32.18 12.52l-33.83-42.54a15 15 0 0 0 -2.72-2.72zm-122.09-219a16 16 0 0 0 12.37 18.89q8.2 1.73 16.13 3.05a161.63 161.63 0 0 1 7.4-31.21q-8.26-1.32-16.93-3.15a16 16 0 0 0 -18.96 12.38z"/><path d="m652.75 143.63c-40.85-38.45-95.1-59.63-152.75-59.63s-111.9 21.18-152.75 59.63c-41.12 38.7-63.76 90.23-63.76 145.1s22.92 111.85 62.87 155.92a239.92 239.92 0 0 0 32.32 29.73l12.6-10.15a15.5 15.5 0 0 1 19.25-.16 15 15 0 0 1 2.73 2.68l33.83 42.54a187.63 187.63 0 0 0 105.79 0l33.83-42.54a14.42 14.42 0 0 1 1.17-1.31 15.73 15.73 0 0 1 20.85-1.2l12.57 10.14a239.92 239.92 0 0 0 32.32-29.73c40-44.07 62.87-100.9 62.87-155.92s-22.62-106.4-63.74-145.1zm49.15 127.06q-9.12 2.69-17.93 4.81.54 6.56.54 13.23c0 92.6-78.91 196.17-184.51 196.17s-184.51-103.57-184.51-196.17a163 163 0 0 1 1.44-21.66q-7.93-1.32-16.13-3.07a16 16 0 1 1 6.6-31.31q8.67 1.83 16.93 3.15c22.38-65.05 84.94-113.38 160.18-119.25a139.51 139.51 0 0 0 -.42-14.9 16 16 0 0 1 31.82-3.45 162.17 162.17 0 0 1 .66 18.43c77.85 6.54 141.93 58.51 161.66 127.33q7.28-1.82 14.63-4a16 16 0 0 1 9 30.7z"/><path d="m516.57 116.69c-.34 25-5.41 70.4-34.38 105.87a123.71 123.71 0 0 1 -12.86 13.55 121.85 121.85 0 0 1 -11.33 9.11c-24.43 17.4-55.48 26.12-92.79 26.12a294.3 294.3 0 0 1 -48.27-4.27q-7.94-1.32-16.14-3.07a16 16 0 1 1 6.6-31.31q8.67 1.83 16.93 3.15c54.28 8.7 95.39 1.17 122.37-22.45l.5-.44.51-.45c31.22-28.17 36.39-72.83 36.8-95.91a139.51 139.51 0 0 0 -.42-14.9 16 16 0 0 1 31.82-3.45 162.17 162.17 0 0 1 .66 18.45z"/><path d="m701.9 270.69q-9.12 2.69-17.93 4.81a340 340 0 0 1 -80.49 9.93 288.14 288.14 0 0 1 -87.61-13.21 239.6 239.6 0 0 1 -57.88-27 118.38 118.38 0 0 1 -10.78-7.79 16 16 0 0 1 -1.92-22.54 14.14 14.14 0 0 1 1.41-1.48l.5-.44a16 16 0 0 1 20.59 0 124.08 124.08 0 0 0 14.4 9.63 216.11 216.11 0 0 0 45 19.66c46.75 14.57 97.51 15.15 151.07 1.75q7.28-1.82 14.63-4a16 16 0 0 1 9 30.7z"/><path d="m512.13 591.06-12.13-15.26-52.9-66.51-33.83-42.54a15 15 0 0 0 -2.73-2.68 15.5 15.5 0 0 0 -19.25.16l-12.6 10.15-48.59 39.15-3.67 3a15.49 15.49 0 0 0 -2.4 21.72l5.26 6.61 93.32 117.32.11.15.29.35a15.49 15.49 0 0 0 10.42 5.76 16.32 16.32 0 0 0 1.71.09 15.52 15.52 0 0 0 9.73-3.43l11.64-9.38 43.49-35.11 9.73-7.84a15.5 15.5 0 0 0 2.4-21.71zm-74.57 40.07-79.68-100.13 40.73-32.83 79.67 100.13z"/><path d="m673.57 516.49-3.68-3-48.55-39.14-12.57-10.14a15.73 15.73 0 0 0 -20.85 1.2 14.42 14.42 0 0 0 -1.17 1.31l-33.85 42.57-52.9 66.51-12.13 15.25a15.51 15.51 0 0 0 2.4 21.72l9.73 7.84 42.87 34.56 12.26 9.89a15.47 15.47 0 0 0 9.73 3.44 14 14 0 0 0 1.71-.1 15.47 15.47 0 0 0 10.2-5.48c.15-.18.3-.36.44-.55l93.51-117.56 5.25-6.6a15.51 15.51 0 0 0 -2.4-21.72zm-111.12 114.65-40.73-32.84 79.67-100.18 40.73 32.88z"/><path d="m479.68 914.9a15.48 15.48 0 0 1 -19.16-10.64l-5.65-19.76-25.79-90.1c0-.15-.08-.3-.11-.44a64.5 64.5 0 0 1 5.09-45.37l18-47.12-29.36-39.18-.11-.15a15.5 15.5 0 0 1 24.92-18.44l9 12 25.51 34a15.5 15.5 0 0 1 2.07 14.84l-21.4 55.94a14.29 14.29 0 0 1 -.79 1.74 33.55 33.55 0 0 0 -2.9 23.89l28.1 98.39 3.22 11.24a15.5 15.5 0 0 1 -10.64 19.16z"/><path d="m577.21 662.37c-.14.19-.29.37-.44.55l-32.53 39 17.84 46.63a64.5 64.5 0 0 1 5.09 45.45c0 .13-.07.26-.1.39l-25.48 90.11-5.59 19.72a15.51 15.51 0 0 1 -14.91 11.28 15.85 15.85 0 0 1 -4.23-.58 15.52 15.52 0 0 1 -10.7-19.14l3.19-11.28 27.8-98.37a33.54 33.54 0 0 0 -2.93-23.89 14.29 14.29 0 0 1 -.79-1.74l-21.43-55.94a15.51 15.51 0 0 1 2.57-15.46l28.26-33.93 10.17-12.1a15.5 15.5 0 0 1 24.26 19.3z"/><path d="m829.22 690.55v209.45a15.5 15.5 0 0 1 -15.5 15.5h-627.44a15.5 15.5 0 0 1 -15.5-15.5v-209.45a177.63 177.63 0 0 1 159.32-177c1.64-.17 3.29-.31 4.94-.43a15.5 15.5 0 0 1 2.24 30.88c-2.68.19-5.35.46-8 .8-72.12 9.26-127.51 71.77-127.51 145.73v194h596.45v-194c0-74.06-55.38-136.58-127.5-145.74q-4-.51-8-.79a15.5 15.5 0 0 1 2.19-30.92c1.65.12 3.3.26 4.94.42a175.73 175.73 0 0 1 111.72 55.63 177.84 177.84 0 0 1 47.65 121.42z"/></g></svg>