<svg id="Layer_1" viewBox="0 0 1000 1000" xmlns="http://www.w3.org/2000/svg" data-name="Layer 1"><g fill="#2e7d32"><path d="m392.08 414.71-242.78-7.21c-3.3-15.16-6.22-29.94-8.81-44.16-17-93.52-22.23-177.29-23.81-224z"/><path d="m414.71 392.08-275.4-275.4c46.74 1.58 130.51 6.81 224 23.81 14.22 2.59 29 5.51 44.17 8.81z"/><path d="m635.58 613-187.88-187.92-8-268.29c52.61 13 108.41 30.59 161.31 54.48z"/><path d="m613 635.58-401.73-34.58c-23.89-52.9-41.51-108.69-54.48-161.31l268.29 8z"/><path d="m741 763.57c-84.36 78.72-177.8 104.69-278 77.23-79.37-21.77-133.79-70.56-134.31-71l-.13-.12c-41.34-36.86-74.49-83.89-101.06-135.09l420.6 36.17z"/><path d="m763.57 741-92.85-92.9-36.17-420.6c51.2 26.57 98.23 59.72 135.09 101.06l.11.11c.49.54 49.28 55 71 134.33 27.51 100.15 1.54 193.58-77.18 278z"/></g><g fill="#fff" opacity=".5"><path d="m392.08 424.71-242.78-7.21c-3.3-15.16-6.22-29.94-8.81-44.16-17-93.52-22.23-177.29-23.81-224z"/><path d="m414.71 402.08-275.4-275.4c46.74 1.58 130.51 6.81 224 23.81 14.22 2.59 29 5.51 44.17 8.81z"/><path d="m635.58 623-187.88-187.92-8-268.29c52.61 13 108.41 30.59 161.31 54.48z"/><path d="m613 645.58-401.73-34.58c-23.89-52.9-41.51-108.69-54.48-161.31l268.29 8z"/><path d="m741 773.57c-84.36 78.72-177.8 104.69-278 77.23-79.37-21.77-133.79-70.56-134.31-71l-.13-.12c-41.34-36.86-74.49-83.89-101.06-135.09l420.6 36.17z"/><path d="m763.57 751-92.85-92.9-36.17-420.6c51.2 26.57 98.23 59.72 135.09 101.06l.11.11c.49.54 49.28 55 71 134.33 27.51 100.15 1.54 193.58-77.18 278z"/></g><path d="m871.32 453.32c-23.8-85.57-74.73-142.68-77.84-146.11-42.28-47.41-99.64-88.21-170.75-121.4q-12.69-5.94-26-11.54c-50.5-21.35-107.38-39.27-169.73-53.42l-.81-.18q-28.16-6.4-57.75-11.77c-140.44-25.49-259.44-24.9-268.15-24.9h-.5q-.41 0-.81 0l-.79.07-.79.11c-.26 0-.51.09-.77.15s-.5.11-.75.18l-.74.22-.71.25a14.63 14.63 0 0 0 -1.41.61c-.23.11-.45.22-.67.35a7 7 0 0 0 -.75.44c-.17.1-.35.21-.52.33l-.08.06c-.19.12-.38.26-.56.4l-.59.47a14.62 14.62 0 0 0 -2.13 2.13c-.16.19-.32.39-.47.59s-.28.37-.4.56l-.06.08c-.12.17-.23.35-.33.52a7 7 0 0 0 -.44.75c-.13.22-.24.44-.35.67a14.63 14.63 0 0 0 -.67 1.47c-.09.23-.17.47-.25.71-.08.24-.15.49-.22.74s-.13.5-.18.75-.11.51-.15.77-.08.52-.11.79 0 .53-.07.79 0 .54 0 .81 0 .27 0 .4c-.02 7.83-.71 127.28 24.88 268.31q5.37 29.56 11.75 57.7c.07.34.15.67.23 1 14.18 62.26 32.06 119.09 53.38 169.56q5.61 13.28 11.54 26a0 0 0 0 0 0 0c33.23 71.11 74 128.47 121.4 170.75 3.33 3 60.47 54 146.11 77.84a316.51 316.51 0 0 0 85.07 11.94 291.36 291.36 0 0 0 65.69-7.48c56.31-13 109.91-43.13 159.5-89.58q5.79-5.4 11.5-11.12t11.12-11.5c46.45-49.59 76.55-103.19 89.58-159.5 11.3-48.83 9.8-99.56-4.45-150.77zm-107.75 287.68q-5.39 5.79-11.11 11.51t-11.46 11.06c-84.36 78.72-177.8 104.69-278 77.23-79.37-21.77-133.79-70.56-134.31-71l-.13-.12c-41.34-36.86-74.49-83.89-101.06-135.09q-8.56-16.5-16.23-33.51c-23.89-52.9-41.51-108.69-54.48-161.31q-4-16.35-7.49-32.23c-3.3-15.16-6.22-29.94-8.81-44.16-17-93.52-22.23-177.29-23.81-224-.32-9.26-.49-17.07-.58-23.21 6.14.09 14 .26 23.21.58 46.74 1.58 130.51 6.81 224 23.81 14.22 2.59 29 5.51 44.17 8.81q15.86 3.47 32.23 7.49c52.61 13 108.41 30.59 161.31 54.48q17 7.68 33.51 16.23c51.2 26.57 98.23 59.72 135.09 101.06l.11.11c.49.54 49.28 55 71 134.33 27.53 100.08 1.56 193.51-77.16 277.93z" fill="#413b32"/><path d="m911.31 911.31a16 16 0 0 1 -22.62 0l-240.59-240.59-35.1-35.14-187.92-187.88-33-33-275.4-275.4-28-28a15.91 15.91 0 0 1 -4.68-11.11c0-.13 0-.26 0-.4s0-.54 0-.81 0-.53.07-.79.07-.53.11-.79.09-.51.15-.77.11-.5.18-.75.14-.5.22-.74c.08-.24.16-.48.25-.71a12.5 12.5 0 0 1 .67-1.43c.11-.23.22-.45.35-.67a7 7 0 0 1 .44-.75c.1-.17.21-.35.33-.52l.06-.08c.12-.19.26-.38.4-.56s.31-.4.47-.59a14.62 14.62 0 0 1 2.13-2.13l.59-.47c.18-.14.37-.28.56-.4l.08-.06c.17-.12.35-.23.52-.33a7 7 0 0 1 .75-.44c.22-.13.44-.24.67-.35a12.5 12.5 0 0 1 1.41-.65l.71-.25.74-.22q.38-.1.75-.18c.26-.06.51-.11.77-.15l.79-.11.79-.07q.4 0 .81 0h.5a15.89 15.89 0 0 1 11 4.68l28 28 275.4 275.4 33 33 187.91 187.9 35.14 35.14 92.85 92.86 22.63 22.63 125.11 125.06a16 16 0 0 1 0 22.62z" fill="#413b32"/><path d="m447.89 431.42a16 16 0 0 1 -16 16.48h-.48l-6.34-.19-268.29-8-20.9-.62a16 16 0 0 1 -15-11.93c-.08-.33-.16-.66-.23-1a16 16 0 0 1 16.19-19.05l12.46.37 242.78 7.21 23.32.69-.69-23.32-7.21-242.76-.37-12.46a16 16 0 0 1 15.51-16.47 16.38 16.38 0 0 1 3.59.3l.81.18a16 16 0 0 1 12.07 15l.62 20.9 8 268.29z" fill="#413b32"/><path d="m648.1 670.72-420.6-36.17q-8.56-16.5-16.23-33.51l401.73 34.54z" fill="#413b32"/><path d="m211.27 601q7.68 17 16.23 33.51l-28.5-2.41a16 16 0 0 1 -13.22-9.37 0 0 0 0 1 0 0 16 16 0 0 1 16-22.48z" fill="#413b32"/><path d="m666.59 666.59a16 16 0 0 1 -11.31 4.69c-.46 0-.91 0-1.37-.06l-5.81-.5-35.1-35.14 24.75 2.13-2.17-24.71-34.58-401.73-.82-9.5a16 16 0 0 1 14.57-17.31 15.7 15.7 0 0 1 7.91 1.34 16 16 0 0 1 9.44 13.2l2.45 28.47 36.17 420.6.5 5.81a16 16 0 0 1 -4.63 12.71z" fill="#413b32"/></svg>