<svg height="512" viewBox="0 0 128 128" width="512" xmlns="http://www.w3.org/2000/svg"><g><g><path d="m77.484 62.339h-9.565v-23.879a1.75 1.75 0 0 0 -1.75-1.75h-8.79v-11.063a1.75 1.75 0 0 0 -1.75-1.75h-10.429a1.75 1.75 0 0 0 0 3.5h8.681v22.128h-8.681a1.75 1.75 0 0 0 0 3.5h10.429a1.75 1.75 0 0 0 1.75-1.75v-11.065h7.04v47.758h-7.04v-11.068a1.75 1.75 0 0 0 -1.75-1.75h-10.429a1.75 1.75 0 0 0 0 3.5h8.681v22.128h-8.681a1.75 1.75 0 1 0 0 3.5h10.429a1.751 1.751 0 0 0 1.75-1.75v-11.06h8.79a1.749 1.749 0 0 0 1.75-1.75v-23.879h9.565a1.75 1.75 0 0 0 0-3.5z" fill="#0e49b5"/><path d="m19.005 19.089h26.193v13.114h-26.193z" fill="#fecd1a"/><path d="m19.005 44.718h26.193v13.115h-26.193z" fill="#fc852d"/><path d="m19.005 70.346h26.193v13.114h-26.193z" fill="#fecd1a"/><path d="m19.005 95.975h26.193v13.114h-26.193z" fill="#fc852d"/><path d="m97.306 51.809 3.615 7.325 8.084 1.175-5.85 5.702 1.381 8.051-7.23-3.801-7.231 3.801 1.381-8.051-5.85-5.702 8.084-1.175z" fill="#fd3a69"/></g><g fill="#282d66"><path d="m77.478 62.355h-9.565v-23.877a1.75 1.75 0 0 0 -1.75-1.75h-8.791v-11.065a1.75 1.75 0 0 0 -1.75-1.75h-8.68v-4.808a1.751 1.751 0 0 0 -1.75-1.75h-26.192a1.751 1.751 0 0 0 -1.75 1.75v13.116a1.75 1.75 0 0 0 1.75 1.75h6.2a1.75 1.75 0 1 0 0-3.5h-4.452v-9.616h22.694v9.616h-3.022a1.75 1.75 0 0 0 0 3.5h4.772a1.75 1.75 0 0 0 1.75-1.75v-4.808h6.93v22.129h-6.93v-4.808a1.751 1.751 0 0 0 -1.75-1.75h-26.192a1.751 1.751 0 0 0 -1.75 1.75v13.115a1.751 1.751 0 0 0 1.75 1.751h26.192a1.751 1.751 0 0 0 1.75-1.75v-4.808h8.68a1.75 1.75 0 0 0 1.75-1.75v-11.064h7.041v47.756h-7.041v-11.064a1.75 1.75 0 0 0 -1.75-1.75h-8.68v-4.807a1.751 1.751 0 0 0 -1.75-1.75h-26.192a1.751 1.751 0 0 0 -1.75 1.75v13.115a1.751 1.751 0 0 0 1.75 1.75h26.192a1.751 1.751 0 0 0 1.75-1.75v-4.808h6.93v22.13h-6.93v-4.809a1.75 1.75 0 0 0 -1.75-1.75h-10.8a1.75 1.75 0 1 0 0 3.5h9.048v9.614h-22.692v-9.614h3.02a1.75 1.75 0 0 0 0-3.5h-4.768a1.75 1.75 0 0 0 -1.75 1.75v13.114a1.75 1.75 0 0 0 1.75 1.75h26.192a1.75 1.75 0 0 0 1.75-1.75v-4.805h8.68a1.75 1.75 0 0 0 1.75-1.75v-11.066h8.791a1.75 1.75 0 0 0 1.75-1.75v-23.879h9.565a1.75 1.75 0 0 0 0-3.5zm-34.036-6.255h-22.694v-9.616h22.694zm0 25.629h-22.694v-9.616h22.694z"/><path d="m110.663 59.785a1.751 1.751 0 0 0 -1.414-1.19l-7.173-1.043-3.208-6.5a1.75 1.75 0 0 0 -3.139 0l-3.208 6.5-7.173 1.048a1.749 1.749 0 0 0 -.97 2.984l5.191 5.06-1.225 7.144a1.75 1.75 0 0 0 2.539 1.845l6.417-3.378 6.416 3.373a1.75 1.75 0 0 0 2.539-1.845l-1.225-7.144 5.19-5.06a1.752 1.752 0 0 0 .443-1.794zm-8.736 4.989a1.75 1.75 0 0 0 -.5 1.549l.781 4.557-4.092-2.152a1.751 1.751 0 0 0 -1.629 0l-4.094 2.152.781-4.557a1.751 1.751 0 0 0 -.5-1.549l-3.31-3.226 4.575-.665a1.75 1.75 0 0 0 1.318-.957l2.043-4.146 2.046 4.146a1.748 1.748 0 0 0 1.318.957l4.574.665z"/></g></g></svg>