<svg id="Layer_1" viewBox="0 0 1000 1000" xmlns="http://www.w3.org/2000/svg" data-name="Layer 1"><path d="m852.26 579.57c-10.12 6-22.28 13.84-37 23.95-30.66 21-58 42-59.12 42.91a16.43 16.43 0 0 0 -2.31 2.18c-22.15 25.47-55.86 38.33-84.21 44.82a260.5 260.5 0 0 1 -52 6.61 16 16 0 0 0 -10 28.58c1.9 2.11 11.11 14.43 41 79.74 4.32 9.44 8.51 18.78 12.37 27.46q-13.38-6.26-30.56-13.6c-28.26-12.07-55.94-22.79-63-25.5-75.85-50.56-124-51.4-127-51.4h-.08a16 16 0 0 0 -12.18 5.68 195.59 195.59 0 0 0 -30.51 49l-10.35-32.24a16.21 16.21 0 0 0 -1.49-3.29c-7.25-12.19-12.38-30.72-14.84-53.58a357.24 357.24 0 0 1 -1-58.32l39.82-39.82 171.71-28.1a16 16 0 0 0 -5.17-31.58l-127.72 20.93 33.75-33.75a16 16 0 1 0 -22.63-22.63l-33.74 33.76 20.9-127.77a16 16 0 0 0 -31.58-5.17l-28.1 171.71-39.82 39.85a356.23 356.23 0 0 1 -58.31-1h-.5c-23-2.51-40.83-7.49-53.1-14.79a15.93 15.93 0 0 0 -3.29-1.48l-32.2-10.38a195.94 195.94 0 0 0 49-30.52 16 16 0 0 0 5.66-12.12c0-2-.27-50.41-51.4-127.12-2.71-7.06-13.43-34.74-25.5-63q-7.32-17.14-13.6-30.56c8.68 3.86 18 8.05 27.46 12.37 65.3 29.85 77.62 39.06 79.73 41a16 16 0 0 0 28.58-10c0-.91.16-91.61 51.44-136.19a16.43 16.43 0 0 0 2.18-2.31c.88-1.15 21.9-28.46 42.91-59.12 10.11-14.76 17.94-26.92 23.95-37 2.84 9.51 6 19.76 9.21 30 17.13 54 25.15 68.7 30.69 74.88 3.73 6.62 20.21 38.53 23.22 89.08a16 16 0 0 0 26 11.55c27.59-22.11 111.14-77.15 165.47-67.29a16.06 16.06 0 0 0 5.66 0c1-.18 19.26-3.46 43.49-10.19-6.73 24.23-10 42.45-10.19 43.49a16.06 16.06 0 0 0 0 5.66c9.88 54.34-45.17 137.89-67.21 165.49a16 16 0 0 0 11.55 26c50.63 3 82.56 19.56 89.07 23.22 6.18 5.54 20.85 13.56 74.89 30.7 10.24 3.23 20.49 6.36 30 9.2z" fill="#2e7d32"/><g opacity=".5"><path d="m842.26 589.57c-10.12 6-22.28 13.84-37 23.95-30.66 21-58 42-59.12 42.91a16.43 16.43 0 0 0 -2.31 2.18c-22.15 25.47-55.86 38.33-84.21 44.82a260.5 260.5 0 0 1 -52 6.61 16 16 0 0 0 -10 28.58c1.9 2.11 11.11 14.43 41 79.74 4.32 9.44 8.51 18.78 12.37 27.46q-13.38-6.26-30.56-13.6c-28.26-12.07-55.94-22.79-63-25.5-75.85-50.56-124-51.4-127-51.4h-.08a16 16 0 0 0 -12.18 5.68 195.59 195.59 0 0 0 -30.51 49l-10.35-32.24a16.21 16.21 0 0 0 -1.49-3.29c-7.25-12.19-12.38-30.72-14.84-53.58a357.24 357.24 0 0 1 -1-58.32l39.82-39.82 171.71-28.1a16 16 0 0 0 -5.17-31.58l-127.72 20.93 33.75-33.75a16 16 0 1 0 -22.63-22.63l-33.74 33.76 20.9-127.77a16 16 0 0 0 -31.58-5.17l-28.1 171.71-39.82 39.85a356.23 356.23 0 0 1 -58.31-1h-.5c-23-2.51-40.83-7.49-53.1-14.79a15.93 15.93 0 0 0 -3.29-1.48l-32.2-10.38a195.94 195.94 0 0 0 49-30.52 16 16 0 0 0 5.66-12.12c0-2-.27-50.41-51.4-127.12-2.71-7.06-13.43-34.74-25.5-63q-7.32-17.14-13.6-30.56c8.68 3.86 18 8.05 27.46 12.37 65.3 29.85 77.62 39.06 79.73 41a16 16 0 0 0 28.58-10c0-.91.16-91.61 51.44-136.19a16.43 16.43 0 0 0 2.18-2.31c.88-1.15 21.9-28.46 42.91-59.12 10.11-14.76 17.94-26.92 23.95-37 2.84 9.51 6 19.76 9.21 30 17.13 54 25.15 68.7 30.69 74.88 3.73 6.62 20.21 38.53 23.22 89.08a16 16 0 0 0 26 11.55c27.59-22.11 111.14-77.15 165.47-67.29a16.06 16.06 0 0 0 5.66 0c1-.18 19.26-3.46 43.49-10.19-6.73 24.23-10 42.45-10.19 43.49a16.06 16.06 0 0 0 0 5.66c9.88 54.34-45.17 137.89-67.21 165.49a16 16 0 0 0 11.55 26c50.63 3 82.56 19.56 89.07 23.22 6.18 5.54 20.85 13.56 74.89 30.7 10.24 3.23 20.49 6.36 30 9.2z" fill="#fff"/></g><g fill="#413b32"><path d="m203.28 432.59c-2.71-7.06-13.43-34.74-25.5-63q-7.32-17.14-13.6-30.56c-2.87-6.14-5.56-11.67-8.07-16.54-11.05-21.57-17.08-28.25-22.75-31.64a14.59 14.59 0 0 0 -2-1 10.65 10.65 0 0 0 -1-.39c-.34-.12-.68-.23-1-.32s-.69-.18-1-.25-.69-.13-1-.17-.7-.08-1.05-.11a16 16 0 0 0 -10.15 29.14c1.65 1.78 10.39 12.85 33.63 67.58 13.08 30.81 24.2 60 24.31 60.32a15.81 15.81 0 0 0 1.68 3.24c35.06 52.16 44 89 46.22 103.66-39 29.81-76.93 31.59-80.56 31.68h-.28a16.65 16.65 0 0 0 -3.18.32c-.49.11-1 .23-1.45.38h-.15c-.47.16-.94.33-1.39.52-.48.21-.94.43-1.39.68a16.09 16.09 0 0 0 -7.09 7.83 15.85 15.85 0 0 0 -1.25 6.27 15.86 15.86 0 0 0 .51 4c.07.26.14.51.22.76s.16.49.25.74a16.24 16.24 0 0 0 1 2.12c.09.17.19.34.29.51s.33.54.51.8l.45.63a16.55 16.55 0 0 0 1.51 1.73l.55.53.58.5c.4.33.81.63 1.23.92.42.28.85.54 1.3.78l.68.35.71.32.14.06c.43.18.87.33 1.32.47a15.88 15.88 0 0 0 4.75.72h.05c3.8 0 28-.64 58.79-13.91a195.94 195.94 0 0 0 48.9-30.43 16 16 0 0 0 5.66-12.12c.04-2.03-.25-50.41-51.38-127.12z"/><path d="m439.22 97.88a16.39 16.39 0 0 0 -.43-2.13c-.06-.22-.13-.44-.2-.66s-.12-.36-.18-.53-.18-.5-.29-.74a6.65 6.65 0 0 0 -.27-.61c-.07-.16-.15-.32-.23-.48s-.28-.53-.43-.79-.19-.32-.29-.47c-.2-.33-.42-.64-.65-1s-.28-.38-.43-.56-.34-.42-.52-.62l-.42-.44a14.26 14.26 0 0 0 -1.4-1.29c-.13-.11-.26-.22-.4-.32s-.45-.34-.69-.5l-.47-.3c-.22-.15-.45-.28-.68-.41l-.42-.23-.57-.29c-.32-.16-.65-.3-1-.43a15 15 0 0 0 -2-.65 4.37 4.37 0 0 0 -.52-.12c-.14 0-.28-.06-.43-.09s-.42-.08-.63-.1-.54-.08-.81-.1h-.73-.74a16.89 16.89 0 0 0 -2.12.14l-.92.15-.3.07c-.31.06-.61.14-.92.22l-.66.2-.64.22-.63.25a6.65 6.65 0 0 0 -.61.27 15.73 15.73 0 0 0 -5.78 4.59l-.33.44a13.91 13.91 0 0 0 -.86 1.3c-.11.18-.21.35-.3.53a15.69 15.69 0 0 0 -1.46 3.75c0 .16-.08.31-.11.47s-.07.33-.1.49-.08.42-.1.63a7.17 7.17 0 0 0 -.1.81 14.13 14.13 0 0 0 -.07 1.46v1 .06s0 .21 0 .31c-.32 2.29-3.7 16.57-39.21 68-17.44 25.28-34.91 48.31-39.06 53.74-41.67 37.15-55 95.92-59.22 130.81-12.88-7-32.26-16.66-61.78-30.21-37.83-17.36-74-32.73-76.65-33.87h-.11a10.65 10.65 0 0 0 -1-.39c-.34-.12-.68-.23-1-.32s-.69-.18-1-.25-.69-.13-1-.17-.7-.08-1.05-.11-1 0-1.5 0h-.52c-.43 0-.86.07-1.29.13-.25 0-.5.08-.75.13l-.63.13c-.48.11-1 .25-1.43.4l-.38.13a16.44 16.44 0 0 0 -2.72 1.28l-.33.2c-.44.28-.88.58-1.3.91l-.43.34q-.47.39-.9.81c-.21.2-.41.41-.61.62l-.3.3c-.14.16-.25.32-.38.48a16 16 0 0 0 -.93 18.93c.26.39.53.77.83 1.14l.11.13c.28.34.57.67.88 1l.19.18c.23.23.45.46.69.68a14.61 14.61 0 0 0 1.55 1.2 15.39 15.39 0 0 0 3.2 1.7c2.75 1.17 21.41 9.12 44.9 19.56 8.68 3.86 18 8.05 27.46 12.37 65.3 29.85 77.62 39.06 79.73 41a16 16 0 0 0 28.58-10c0-.91.16-91.61 51.44-136.19a16.43 16.43 0 0 0 2.18-2.31c.88-1.15 21.9-28.46 42.91-59.12 10.11-14.76 17.94-26.92 23.95-37 17.71-29.88 19.79-41.89 18.72-49.86z"/><path d="m916 575.87c0-.24 0-.48-.05-.73s-.06-.6-.11-.9-.05-.33-.08-.49 0-.25-.08-.38c-.08-.41-.19-.82-.3-1.22-.06-.21-.13-.41-.2-.62a10.09 10.09 0 0 0 -.46-1.19c-.08-.2-.17-.39-.26-.59-.19-.41-.4-.8-.63-1.19-.1-.16-.19-.32-.3-.48l-.3-.47c-.1-.15-.2-.29-.31-.43l-.33-.44q-.29-.37-.6-.72c-.14-.16-.28-.31-.43-.46a15.72 15.72 0 0 0 -4.75-3.41 6.65 6.65 0 0 0 -.61-.27l-.63-.25-.64-.22-.66-.2c-68.34-18.85-126.36-38.3-135.49-45.4a15.71 15.71 0 0 0 -3-2.43c-1.36-.87-29.06-18.17-77.35-25.82 24.57-35.94 66.21-107.21 57.57-165.24a517.71 517.71 0 0 1 17.57-65.51 16 16 0 0 0 -20.35-20.35 519 519 0 0 1 -65.54 17.54c-58-8.67-129.31 33-165.24 57.51-7.66-48.28-25-76-25.82-77.34a15.71 15.71 0 0 0 -2.43-3c-7.1-9.13-26.55-67.15-45.4-135.49-.06-.22-.13-.44-.2-.66s-.12-.36-.18-.53-.18-.5-.29-.74a6.65 6.65 0 0 0 -.27-.61c-.07-.16-.15-.32-.23-.48s-.28-.53-.43-.79-.19-.32-.29-.47c-.2-.33-.42-.64-.65-1s-.28-.38-.43-.56-.34-.42-.52-.62l-.42-.44a14.26 14.26 0 0 0 -1.4-1.29c-.13-.11-.26-.22-.4-.32s-.45-.34-.69-.5l-.47-.3c-.22-.15-.45-.28-.68-.41l-.42-.23-.57-.29c-.33-.15-.66-.3-1-.43a15 15 0 0 0 -2-.65 4.37 4.37 0 0 0 -.52-.12c-.14 0-.28-.06-.43-.09s-.42-.08-.63-.1-.54-.08-.81-.1h-.73-.74a16.89 16.89 0 0 0 -2.12.14l-.92.15-.3.07c-.31.06-.61.14-.92.22l-.66.2-.64.22-.63.25a6.65 6.65 0 0 0 -.61.27 15.73 15.73 0 0 0 -5.78 4.59l-.33.44a13.91 13.91 0 0 0 -.86 1.3c-.11.18-.21.35-.3.53a15.69 15.69 0 0 0 -1.46 3.75c0 .16-.08.31-.11.47s-.07.33-.1.49-.08.42-.1.63a7.17 7.17 0 0 0 -.1.81 14.13 14.13 0 0 0 -.07 1.46v1 .06a16 16 0 0 0 .54 3.18c1.72 6.22 6.44 23.19 12.49 43.49 2.84 9.51 6 19.76 9.21 30 17.13 54 25.15 68.7 30.69 74.88 3.73 6.62 20.21 38.53 23.22 89.08a16 16 0 0 0 26 11.55c27.59-22 111.14-77.04 165.47-67.18a16.06 16.06 0 0 0 5.66 0c1-.18 19.26-3.46 43.49-10.19-6.73 24.23-10 42.45-10.19 43.49a16.06 16.06 0 0 0 0 5.66c9.88 54.34-45.17 137.89-67.21 165.49a16 16 0 0 0 11.55 26c50.63 3 82.56 19.56 89.07 23.22 6.18 5.54 20.85 13.56 74.89 30.7 10.22 3.24 20.47 6.37 30 9.21 20.3 6 37.27 10.77 43.49 12.49a16.26 16.26 0 0 0 2.14.44c.35 0 .69.08 1 .1h.11 1a13.94 13.94 0 0 0 1.45-.07l.7-.08h.06c.23 0 .45-.06.68-.11l.51-.1.46-.11.45-.12a4.13 4.13 0 0 0 .5-.15l.32-.1a14.74 14.74 0 0 0 1.74-.71h.08c.43-.21.84-.43 1.25-.67s.79-.5 1.18-.78a15.78 15.78 0 0 0 3.5-3.47l.41-.58.37-.58c.07-.12.14-.23.2-.35s.22-.38.31-.57c.1-.19.19-.39.28-.59a6.65 6.65 0 0 0 .27-.61c.09-.21.17-.42.25-.63s.15-.42.22-.64.14-.44.2-.66.16-.61.22-.92c0-.1.05-.2.07-.3l.15-.92a16.58 16.58 0 0 0 .14-2.1v-.07c.03-.28.03-.51.03-.75z"/><path d="m916 575.87c0-.24 0-.48-.05-.73s-.06-.6-.11-.9-.05-.33-.08-.49 0-.25-.08-.38c-.08-.41-.19-.82-.3-1.22-.06-.21-.13-.41-.2-.62a10.09 10.09 0 0 0 -.46-1.19c-.08-.2-.17-.39-.26-.59-.19-.41-.4-.8-.63-1.19-.1-.16-.19-.32-.3-.48l-.3-.47c-.1-.15-.2-.29-.31-.43l-.33-.44q-.29-.37-.6-.72c-.14-.16-.28-.31-.43-.46a15.72 15.72 0 0 0 -4.75-3.41 6.65 6.65 0 0 0 -.61-.27l-.63-.25-.64-.22-.66-.2a16.54 16.54 0 0 0 -2.14-.43c-8-1.07-20 1-49.85 18.79-10.12 6-22.28 13.84-37 23.95-30.66 21-58 42-59.12 42.91a16.43 16.43 0 0 0 -2.31 2.18c-22.15 25.47-55.86 38.33-84.21 44.82a260.5 260.5 0 0 1 -52 6.61 16 16 0 0 0 -10 28.58c1.9 2.11 11.11 14.43 41 79.74 4.32 9.44 8.51 18.78 12.37 27.46 11.24 25.3 19.6 45 19.7 45.24a16.11 16.11 0 0 0 5.05 6.53c.31.24.63.46.95.67a5 5 0 0 0 .49.31q.75.43 1.53.81l.53.23a16.05 16.05 0 0 0 11.65.3c.25-.09.51-.19.76-.3l.57-.25.55-.27a17.56 17.56 0 0 0 2-1.26l.48-.36c.31-.25.61-.5.9-.76s.57-.54.84-.82a10.77 10.77 0 0 0 .77-.88c.24-.29.46-.58.68-.88a16.77 16.77 0 0 0 .91-1.45c.2-.35.38-.72.56-1.09s.22-.48.31-.73.23-.58.33-.88l.06-.18c.06-.19.12-.38.17-.57s.11-.4.16-.6.09-.41.14-.61.08-.41.11-.63l.09-.6c0-.06 0-.12 0-.19a13.81 13.81 0 0 0 .08-2.32 5.44 5.44 0 0 0 0-.57v-.06l-.06-.57q-.06-.6-.18-1.2l-.09-.42c0-.26-.12-.52-.19-.77s-.11-.4-.17-.6-.19-.59-.3-.88c0 0 0 0 0-.06s-.12-.33-.19-.49c-.62-1.48-16.23-38.25-33.91-76.77-13.6-29.57-23.29-48.95-30.29-61.83 34.88-4.24 93.66-17.55 130.81-59.21 5.42-4.14 28.37-21.55 53.64-39 51.56-35.58 65.85-39 68.14-39.28h.31.1 1a13.94 13.94 0 0 0 1.45-.07l.7-.08h.06c.23 0 .45-.06.68-.11l.51-.1.46-.11.45-.12a4.13 4.13 0 0 0 .5-.15l.32-.1a14.74 14.74 0 0 0 1.74-.71h.08c.43-.21.84-.43 1.25-.67s.79-.5 1.18-.78a16.22 16.22 0 0 0 3.5-3.47l.41-.58.37-.58c.07-.12.14-.23.2-.35s.22-.38.31-.57c.1-.19.19-.39.28-.59a6.65 6.65 0 0 0 .27-.61c.09-.21.17-.42.25-.63s.15-.42.22-.64.14-.44.2-.66.16-.61.22-.92c0-.1.05-.2.07-.3l.15-.92a14.92 14.92 0 0 0 .14-2.1v-.07c.03-.24.03-.47.03-.71z"/><path d="m711.33 876.6v.19l-.09.6c0 .22-.07.43-.11.63s-.09.41-.14.61-.1.4-.16.6-.11.38-.17.57l-.06.18c-.1.3-.21.59-.33.88s-.2.49-.31.73-.36.74-.56 1.09a16.77 16.77 0 0 1 -.91 1.45c-.22.3-.44.59-.68.88a10.77 10.77 0 0 1 -.77.88c-.27.28-.55.55-.84.82s-.59.51-.9.76l-.48.36a13.92 13.92 0 0 1 -2 1.26l-.55.27-.57.25c-.25.11-.51.21-.76.3l-.67.23-.61.17h-.12a15.65 15.65 0 0 1 -10.25-.73l-.53-.23a12.41 12.41 0 0 1 -1.53-.81 5 5 0 0 1 -.49-.31c-.32-.21-.64-.43-.95-.67a15.24 15.24 0 0 1 -3.26-3.35 3.59 3.59 0 0 1 -.25-.33c-1.83-1.7-13-10.46-67.56-33.62-30.81-13.08-60-24.2-60.32-24.31a16.32 16.32 0 0 1 -3.24-1.68c-52.16-35.06-89-44-103.66-46.22-30.74 40.2-31.67 79.29-31.69 80.8v1l-.06.69c-.06.54-.14 1.07-.25 1.59 0 .26-.11.52-.18.77s-.09.32-.13.48-.11.35-.17.52a14.91 14.91 0 0 1 -1 2.4l-.21.39c-.09.17-.19.34-.29.5s-.21.34-.32.5-.35.52-.54.77-.31.4-.48.6-.33.39-.5.58a5.49 5.49 0 0 1 -.53.55l-.55.53a17.66 17.66 0 0 1 -1.81 1.42l-.65.41c-.22.14-.45.26-.67.39a15.89 15.89 0 0 1 -3.56 1.4 13.34 13.34 0 0 1 -1.62.34l-.8.1c-.54.05-1.08.08-1.63.08h-.05a16 16 0 0 1 -14.7-9.78c-.1-.24-.19-.48-.28-.73a15.9 15.9 0 0 1 -1-5.54c0-3.8.64-28 13.92-58.79a195.59 195.59 0 0 1 30.51-49 16 16 0 0 1 12.12-5.66h.08c3 0 51.19.84 127 51.4 7.06 2.71 34.74 13.43 63 25.5q17.15 7.32 30.56 13.6c6.14 2.87 11.67 5.56 16.54 8.07 21.57 11.05 28.25 17.08 31.64 22.75a14.12 14.12 0 0 1 1 2 4.87 4.87 0 0 1 .21.53s0 0 0 .06c.11.29.21.58.3.88s.12.4.17.6.14.51.19.77l.09.42q.12.6.18 1.2l.06.57v.06.57a16.26 16.26 0 0 1 -.07 2.26z"/><path d="m415.74 858.88v1l-.06.69c-.06.54-.14 1.07-.25 1.59 0 .26-.11.52-.18.77s-.09.32-.13.48-.11.35-.17.52a14.91 14.91 0 0 1 -1 2.4l-.21.39c-.09.17-.19.34-.29.5s-.21.34-.32.5-.35.52-.54.77-.31.4-.48.6-.33.39-.5.58a5.49 5.49 0 0 1 -.53.55l-.55.53a13.8 13.8 0 0 1 -1.81 1.42l-.65.41c-.22.14-.45.26-.67.39a13 13 0 0 1 -1.36.64l-.35.16c-.42.16-.85.31-1.29.44l-.3.1a2.44 2.44 0 0 1 -.26.06 13.34 13.34 0 0 1 -1.62.34l-.8.1a13 13 0 0 1 -1.64.1 16 16 0 0 1 -14.74-9.8c-.1-.24-.19-.48-.28-.73s-.18-.5-.26-.75l-27.08-84.39c-9.2-16.19-15.32-38-18.21-64.89-1.08-10.06-1.61-20-1.8-29.06-.18-8.46-.07-16.23.15-22.79-6.55.22-14.31.33-22.77.15-8.94-.19-18.65-.7-28.54-1.75h-.54c-26.89-2.89-48.71-9-64.89-18.2l-84.39-27.09h-.08a13.07 13.07 0 0 1 -1.24-.45l-.14-.06-.71-.32-.68-.35c-.45-.24-.88-.5-1.3-.78-.42-.29-.83-.59-1.23-.92l-.58-.5-.55-.53a13.87 13.87 0 0 1 -1.51-1.73l-.45-.63c-.18-.26-.35-.53-.51-.8s-.2-.34-.29-.51a16.24 16.24 0 0 1 -1-2.12c-.09-.25-.17-.49-.25-.74s-.15-.5-.22-.76a15.72 15.72 0 0 1 -.19-7.26 11.9 11.9 0 0 1 .28-1.18 14 14 0 0 1 .65-1.82 15.82 15.82 0 0 1 7.09-7.83 12.74 12.74 0 0 1 1.39-.68c.45-.19.92-.36 1.39-.52h.15a12.38 12.38 0 0 1 1.45-.38c.52-.1 1-.18 1.58-.24s.93-.06 1.4-.07h.48a15.67 15.67 0 0 1 4.14.62l.52.16 53.98 17.14 32.23 10.34a15.93 15.93 0 0 1 3.29 1.48c12.27 7.3 30.13 12.28 53.1 14.79h.5a356.23 356.23 0 0 0 58.31 1c2.45-.15 4.4-.31 5.75-.42a16 16 0 0 1 17.3 17.3c-.11 1.35-.27 3.3-.42 5.75a357.24 357.24 0 0 0 1 58.32c2.46 22.86 7.59 41.39 14.84 53.58a16.21 16.21 0 0 1 1.49 3.29l10.27 32.22 17.34 54c.06.19.12.38.17.57a15.86 15.86 0 0 1 .57 4.31z"/><path d="m482.37 540.26-33.75 33.74-38.77 38.77-39.85 39.83-32.67 32.67-226 226a16 16 0 0 1 -22.62-22.62l226.03-226.02 32.66-32.63 39.82-39.82 38.78-38.8 33.75-33.75a16 16 0 1 1 22.63 22.63z"/><path d="m581.56 584.68-171.71 28.1-5.09.83a16 16 0 0 1 -18.37-18.37l.83-5.09 28.1-171.71a16 16 0 0 1 31.58 5.17l-20.9 127.77-4.43 27.06 27.05-4.44 127.77-20.9a16 16 0 0 1 5.17 31.58z"/></g></svg>