<svg id="_x30_1_Leaves" enable-background="new 0 0 48 48" height="512" viewBox="0 0 48 48" width="512" xmlns="http://www.w3.org/2000/svg"><path d="m13.0159 5c3.0157 3.0157 5.5521 7.6257 6.9218 12.2828 4.262-2.3252 9.3188-3.7889 13.5844-3.7889 0 4.2644-1.4629 9.3195-3.787 13.5808 4.6565 1.3698 9.2655 3.91 12.2809 6.9253-6.7036 6.7036-21.2834 11.0581-26.7516 5.428-.311-.311-.5955-.6486-.8496-1.009l-1.8196-4.4402c-1.9511-.1061-3.7112-.931-5.0073-2.2271-5.6301-5.4683-1.2756-20.0481 5.428-26.7517z" fill="#74cc5e"/><path d="m20.9248 26.0912 12.5972-12.5973c-4.2656 0-9.3224 1.4637-13.5844 3.7889.901 3.0629 1.2968 6.1445.9872 8.8084zm12.6085 2.3915-13.3381 13.338c-1.9858-.3375-3.7034-1.0967-4.9467-2.3768-1.3892-1.3892-2.2484-3.3082-2.2484-5.428 0-.0085.0013-.0167.0013-.0252l.0145.0093c1.4989 1.4989 3.4634 2.2484 5.428 2.2484 4.3116.0629 8.4365-3.9502 11.2786-9.1516 1.2846.3784 2.5658.8441 3.8108 1.3859zm-14.4024-13.5972-13.5308 13.5308c-2.1537-6.6859 1.8065-17.8069 7.4158-23.4163 2.4956 2.4956 4.6645 6.0832 6.115 9.8855z" fill="#a8ea92"/><path d="m10.1521 42 2.8638-7s2.2371 5.4683 2.8638 7z" fill="#bc9c73"/><path d="m14.4672 38.5474-3.4525 3.4526h-.8625l2.8638-7c-.0001 0 .7159 1.7501 1.4512 3.5474z" fill="#ccb9ae"/><path d="m42.7227 33.293c-2.814-2.8145-7.0757-5.3023-11.5682-6.806 2.1133-4.2395 3.3676-9.0125 3.3676-12.9928 0-.5522-.4478-1-1-1-3.9835 0-8.7599 1.2555-13.0011 3.3714-1.4754-4.404-3.9127-8.6871-6.7982-11.5726-.375-.375-1.0391-.375-1.4141 0-4.7852 4.7851-8.357 13.4116-8.3081 20.0649.0254 3.4941 1.0249 6.2988 2.8804 8.1006 1.3877 1.3881 3.1643 2.2407 5.0828 2.4714l-2.7376 6.6917c-.126.3081-.0903.6592.0957.936.1855.2764.497.4424.83.4424h5.7275c.333 0 .6445-.166.8301-.4424.1559-.2319.1993-.5148.1375-.7821 1.5984.7971 3.559 1.2238 5.8118 1.2401.0449 0 .0889.0005.1338.0005 6.6353-.0005 15.1777-3.5562 19.9302-8.3091.3906-.3906.3906-1.0234-.0001-1.414zm-10.2295-18.7701c-.2085 3.7886-1.5347 8.2207-3.6362 12.0732-2.96 5.4268-6.8091 8.6528-10.3296 8.6528-1.0291-.0022-2.0182-.2254-2.918-.6443.2851-.0889.564-.194.8377-.3118h1.7717c.5522 0 1-.4478 1-1 0-.2552-.1031-.4822-.2604-.6589.0598-.0565.124-.1069.1823-.1653.8619-.8371 1.5299-1.8945 2.0115-3.1255h2.0164c.5522 0 1-.4478 1-1s-.4478-1-1-1h-1.4398c.051-.2549.0983-.5126.136-.7783l2.1714-2.1714h4.082c.5522 0 1-.4478 1-1s-.4478-1-1-1h-2.082l3.6357-3.6357c.3906-.3906.3906-1.0234 0-1.4141s-1.0234-.3906-1.4141 0l-3.6353 3.6353v-2.0811c0-.5522-.4478-1-1-1s-1 .4478-1 1v4.0811l-.6111.6111c-.06-1.8397-.3708-3.803-.9006-5.7842 3.6864-1.8912 7.8159-3.0867 11.3824-3.2829zm-26.4926 9.8204c-.043-5.8442 2.9277-13.332 7.0151-17.8887 4.0879 4.5562 7.0586 12.0444 7.0156 17.8887-.0215 2.9468-.8115 5.2603-2.2944 6.7012-.8696.8696-1.9389 1.462-3.1022 1.7509l2.2673-2.267c.3906-.3901.3906-1.0234 0-1.4141s-1.0234-.3906-1.4141 0l-1.4722 1.4719v-4.172l2.8862-2.8858c.3906-.3901.3906-1.0234 0-1.4141s-1.0234-.3906-1.4141 0l-1.4722 1.4719v-4.172l2.8862-2.8858c.3906-.3901.3906-1.0234 0-1.4141s-1.0234-.3906-1.4141 0l-1.4722 1.4719v-5.1418c0-.5522-.4478-1-1-1s-1 .4478-1 1v5.1416l-1.4717-1.4717c-.3906-.3906-1.0234-.3906-1.4141 0s-.3906 1.0234 0 1.4141l2.8857 2.8857v4.1719l-1.4717-1.4717c-.3906-.3906-1.0234-.3906-1.4141 0s-.3906 1.0234 0 1.4141l2.8857 2.8857v4.1719l-1.4717-1.4717c-.3906-.3906-1.0234-.3906-1.4141 0s-.3906 1.0234 0 1.4141l2.2666 2.2666c-1.1638-.2896-2.2352-.8841-3.1118-1.7607-1.4722-1.4308-2.2623-3.7443-2.2837-6.691zm5.6411 16.6567 1.374-3.3589 1.374 3.3589zm11.1557.0161c-.0415 0-.083-.0005-.124-.0005-2.9473-.0215-5.2612-.8115-6.7021-2.2944-.2496-.2501-.4771-.5267-.6864-.8155l-.6309-1.5419c.1874.0905.3749.1802.5683.2568l1.2656 1.2651c.1953.1953.4512.293.707.293s.5122-.0977.707-.293c.1814-.1814.2696-.4161.2825-.6535.1202.0048.239.0171.36.0173 1.1772-.0001 2.3599-.2721 3.5267-.78l1.4166 1.4163c.1953.1953.4512.293.707.293s.5117-.0977.707-.293c.3906-.3906.3906-1.0239 0-1.4141l-1.0051-1.0048c.2205-.1466.4394-.3029.6574-.4669h3.0477l2.8862 2.8857c.1953.1953.4512.293.707.293s.5117-.0977.707-.293c.3906-.3906.3906-1.0239 0-1.4141l-1.4716-1.4716h5.1411c.5522 0 1-.4478 1-1s-.4478-1-1-1h-5.1411l1.4717-1.4717c.3906-.3901.3906-1.0234 0-1.4141-.3906-.3906-1.0234-.3906-1.4141 0l-2.8862 2.8858h-.8406c1.2188-1.3022 2.3755-2.8847 3.4395-4.7238 3.9412 1.2698 7.7027 3.3433 10.3605 5.7242-4.5239 4.0587-11.9375 7.0157-17.7637 7.0157z" fill="#474747"/></svg>