<svg id="Layer_1" viewBox="0 0 1000 1000" xmlns="http://www.w3.org/2000/svg" data-name="Layer 1"><path d="m309.32 351.03h381.36v46.58h-381.36z" fill="#6d4c41"/><path d="m646.09 429.61-21.75 361.3h-248.68l-21.75-361.3z" fill="#8d6e63"/><path d="m319.43 822.91h361.14v41.2h-361.14z" fill="#6d4c41"/><path d="m248.23 298.28h503.54v20.75h-503.54z" fill="#6d4c41"/><path d="m631 130.27a14.87 14.87 0 0 1 -25.38 10.51l-19.3-19.29a14.87 14.87 0 0 1 21-21l19.29 19.29a14.78 14.78 0 0 1 4.39 10.49z" fill="#616161"/><path d="m413.65 121.49-19.29 19.29a14.87 14.87 0 0 1 -21-21l19.29-19.29a14.87 14.87 0 0 1 21 21z" fill="#616161"/><g fill="#fff" opacity=".5"><path d="m299.32 361.03h381.36v46.58h-381.36z"/><path d="m636.09 439.61-21.75 361.3h-248.68l-21.75-361.3z"/><path d="m309.43 832.91h361.14v41.2h-361.14z"/><path d="m238.23 308.28h503.54v20.75h-503.54z"/><path d="m621 140.27a14.87 14.87 0 0 1 -25.38 10.51l-19.3-19.29a14.87 14.87 0 0 1 21-21l19.29 19.29a14.78 14.78 0 0 1 4.39 10.49z"/><path d="m403.65 131.49-19.29 19.29a14.87 14.87 0 0 1 -21-21l19.29-19.29a14.87 14.87 0 1 1 21 21z"/></g><g fill="#413b32"><path d="m706.68 319h-413.36a16 16 0 0 0 -16 16v78.58a16 16 0 0 0 16 16h413.36a16 16 0 0 0 16-16v-78.58a16 16 0 0 0 -16-16zm-16 78.58h-381.36v-46.58h381.36z"/><path d="m674.73 402.64a16 16 0 0 0 -11.65-5h-326.16a16 16 0 0 0 -16 17l.91 15 21.75 361.3 1 17a16 16 0 0 0 16 15h278.82a16 16 0 0 0 16-15l1-17 21.75-361.3.91-15a16 16 0 0 0 -4.33-12zm-50.39 388.27h-248.68l-21.75-361.3h292.18z"/><path d="m696.57 790.91h-393.14a16 16 0 0 0 -16 16v73.2a16 16 0 0 0 16 16h393.14a16 16 0 0 0 16-16v-73.2a16 16 0 0 0 -16-16zm-16 73.2h-361.14v-41.2h361.14z"/><path d="m767.77 266.28h-535.54a16 16 0 0 0 -16 16v52.72a16 16 0 0 0 16 16h535.54a16 16 0 0 0 16-16v-52.72a16 16 0 0 0 -16-16zm-16 52.75h-503.54v-20.75h503.54z"/><path d="m703.84 298.28a16 16 0 0 1 -16-16v-57.71l-61.16-61.16a16 16 0 0 1 22.62-22.63l65.85 65.85a16 16 0 0 1 4.69 11.37v64.33a16 16 0 0 1 -16 15.95z"/><path d="m649.3 97.12-19.3-19.29a46.87 46.87 0 0 0 -66.28 66.29l19.28 19.29a46.87 46.87 0 0 0 66.3-66.29zm-43.65 43.66-19.3-19.29a14.87 14.87 0 0 1 21-21l19.29 19.29a14.87 14.87 0 0 1 -21 21z"/><path d="m296.16 298.28a16 16 0 0 1 -16-16v-64.28a16 16 0 0 1 4.69-11.32l65.85-65.85a16 16 0 0 1 22.62 22.63l-61.16 61.16v57.71a16 16 0 0 1 -16 15.95z"/><path d="m436.27 77.83a46.93 46.93 0 0 0 -66.28 0l-19.29 19.29a46.87 46.87 0 0 0 66.3 66.29l19.29-19.29a46.92 46.92 0 0 0 -.02-66.29zm-22.62 43.66-19.29 19.29a14.87 14.87 0 0 1 -21-21l19.29-19.29a14.87 14.87 0 0 1 21 21z"/></g></svg>