<svg clip-rule="evenodd" fill-rule="evenodd" height="512" stroke-linejoin="round" stroke-miterlimit="2" viewBox="0 0 512 512" width="512" xmlns="http://www.w3.org/2000/svg"><g><path d="m64.228 217.701c17.709-17.078 33.475-36.062 47.007-56.608 30.971-47.072 84.264-78.18 144.765-78.18s113.794 31.108 144.743 78.194c13.535 20.547 29.301 39.533 47.012 56.611 10.044 9.67 16.283 23.253 16.283 38.282s-6.239 28.612-16.266 38.299c-17.709 17.078-33.475 36.062-47.007 56.608-30.971 47.072-84.264 78.18-144.765 78.18s-113.794-31.108-144.743-78.194c-13.535-20.547-29.301-39.533-47.012-56.611-10.044-9.67-16.283-23.253-16.283-38.282s6.239-28.612 16.266-38.299z" fill="#fff57c"/><path d="m414.469 184.432c13.534 20.547 15.575 16.208 33.286 33.286 10.044 9.67 16.283 23.253 16.283 38.282s-6.239 28.612-16.266 38.299c-17.709 17.078-33.475 36.062-47.007 56.608-30.971 47.072-84.264 78.18-144.765 78.18-56.302 0-106.362-26.94-137.96-68.649 29.034 22.208 65.33 35.363 104.674 35.363 60.501 0 113.794-31.108 144.765-78.18 13.532-20.546 29.298-39.53 47.007-56.608 10.027-9.687 16.266-23.27 16.266-38.299s-6.239-28.612-16.283-38.282z" fill="#eee363"/><path d="m210.885 145.947c9.529 8.83-20.129 44.812-31.535 60.859-14.981 21.078-40.831 49.609-50.36 40.779s-7.401-41.005 15.829-72.777c22.924-31.354 56.537-37.691 66.066-28.861z" fill="#fff9cb"/><g fill="#8d4ba0"><path d="m301.691 188.116c3.875 2.237 5.204 7.199 2.967 11.074-2.237 3.874-7.199 5.204-11.073 2.967-3.875-2.237-5.204-7.199-2.967-11.074 2.237-3.874 7.199-5.204 11.073-2.967z"/><path d="m344.716 208.392c3.875 2.237 5.204 7.199 2.967 11.073-2.237 3.875-7.198 5.205-11.073 2.968s-5.204-7.199-2.967-11.074 7.199-5.204 11.073-2.967z"/><path d="m359.697 174.26c3.875 2.237 5.205 7.199 2.968 11.073-2.237 3.875-7.199 5.204-11.074 2.967s-5.204-7.198-2.967-11.073 7.199-5.204 11.073-2.967z"/><path d="m57.81 211.045c-.002.002-.005.004-.007.006-11.767 11.369-19.087 27.311-19.087 44.949 0 17.644 7.325 33.591 19.116 44.943 17.215 16.599 32.544 35.059 45.703 55.036 32.596 49.591 88.735 82.354 152.465 82.354 63.728 0 119.866-32.762 152.489-82.344 13.155-19.972 28.483-38.43 45.701-55.034.002-.002.005-.004.007-.006 11.767-11.369 19.087-27.311 19.087-44.949 0-17.644-7.325-33.591-19.116-44.943-17.215-16.599-32.544-35.059-45.703-55.036-32.596-49.591-88.735-82.354-152.465-82.354-63.728 0-119.866 32.762-152.489 82.344-13.155 19.972-28.483 38.43-45.701 55.034zm12.842 13.305c18.198-17.549 34.398-37.058 48.305-58.171.001-.001.002-.003.003-.004 29.318-44.561 79.766-74.016 137.04-74.016 57.273 0 107.719 29.453 137.017 74.027.002.002.003.005.005.007 13.909 21.117 30.113 40.629 48.315 58.181.002.002.004.003.006.005 8.296 7.987 13.448 19.207 13.448 31.621 0 12.42-5.157 23.644-13.443 31.65-18.198 17.549-34.398 37.058-48.305 58.171-.001.001-.002.003-.003.004-29.318 44.561-79.766 74.016-137.04 74.016-57.273 0-107.719-29.453-137.017-74.027-.002-.002-.003-.005-.005-.007-13.909-21.117-30.113-40.629-48.315-58.181-.002-.002-.004-.003-.006-.005-8.296-7.987-13.448-19.207-13.448-31.621 0-12.42 5.157-23.644 13.443-31.65z"/></g></g></svg>