<svg height="512" viewBox="0 0 128 128" width="512" xmlns="http://www.w3.org/2000/svg"><g><g><path d="m91.894 90.225a15.769 15.769 0 0 1 -6.416-6.415 2.122 2.122 0 0 0 -3.721 0 15.766 15.766 0 0 1 -6.415 6.415 2.122 2.122 0 0 0 0 3.721 15.775 15.775 0 0 1 6.415 6.416 2.123 2.123 0 0 0 3.721 0 15.777 15.777 0 0 1 6.416-6.416 2.123 2.123 0 0 0 0-3.721z" fill="#ffd322"/><path d="m52.815 30.225a7.723 7.723 0 0 1 -3.148-3.148 1.042 1.042 0 0 0 -1.826 0 7.735 7.735 0 0 1 -3.148 3.148 1.043 1.043 0 0 0 0 1.827 7.735 7.735 0 0 1 3.148 3.148 1.042 1.042 0 0 0 1.826 0 7.723 7.723 0 0 1 3.148-3.148 1.043 1.043 0 0 0 0-1.827z" fill="#fff07e"/><path d="m101.054 66.309a5.851 5.851 0 0 1 -2.382-2.382.789.789 0 0 0 -1.382 0 5.849 5.849 0 0 1 -2.381 2.382.788.788 0 0 0 0 1.382 5.849 5.849 0 0 1 2.381 2.382.789.789 0 0 0 1.382 0 5.851 5.851 0 0 1 2.382-2.382.788.788 0 0 0 0-1.382z" fill="#ff9f23"/><path d="m38.891 58.579a11.036 11.036 0 0 1 -4.489-4.49 1.486 1.486 0 0 0 -2.605 0 11.036 11.036 0 0 1 -4.489 4.49 1.486 1.486 0 0 0 0 2.6 11.036 11.036 0 0 1 4.489 4.49 1.486 1.486 0 0 0 2.605 0 11.036 11.036 0 0 1 4.489-4.49 1.486 1.486 0 0 0 0-2.6z" fill="#ffd322"/><path d="m73.878 66.825 10.033-.079c7.906-13.3 10.314-32.971 10.314-32.971a117.261 117.261 0 0 0 -15.728 3.3l-.337 8.095-4.824-6.488c-6.894 2.361-13.985 5.718-18.658 10.39-11.914 11.914-9.447 33.7-9.447 33.7s21.783 2.467 33.7-9.447c.239-.239.469-.494.7-.746z" fill="#ffddce"/><path d="m74.043 57.2a2.292 2.292 0 0 0 -3.24-3.24l-36.013 34.583a3.3 3.3 0 1 0 4.667 4.667z" fill="#fff4f4"/></g><g fill="#002e49"><path d="m92.723 88.685a13.965 13.965 0 0 1 -5.7-5.7 3.874 3.874 0 0 0 -6.8 0 14 14 0 0 1 -1.5 2.247 1.75 1.75 0 0 0 2.707 2.218 17.525 17.525 0 0 0 1.88-2.808.341.341 0 0 1 .639 0 17.451 17.451 0 0 0 7.129 7.13.372.372 0 0 1 0 .637 17.449 17.449 0 0 0 -7.128 7.128.341.341 0 0 1 -.639 0 17.434 17.434 0 0 0 -7.128-7.129 1.75 1.75 0 1 0 -1.657 3.082 13.962 13.962 0 0 1 5.7 5.7 3.874 3.874 0 0 0 6.8 0 13.964 13.964 0 0 1 5.7-5.7 3.872 3.872 0 0 0 0-6.8z"/><path d="m43.866 33.594a5.607 5.607 0 0 1 .5.3 1.751 1.751 0 0 0 2.155-2.748 9.419 9.419 0 0 0 2.233-2.23 9.442 9.442 0 0 0 2.221 2.221 9.445 9.445 0 0 0 -2.849 3.231 1.749 1.749 0 0 0 .713 2.37 1.728 1.728 0 0 0 .827.209 1.75 1.75 0 0 0 1.543-.921 5.954 5.954 0 0 1 2.435-2.434 2.793 2.793 0 0 0 0-4.909 5.967 5.967 0 0 1 -2.436-2.436 2.791 2.791 0 0 0 -4.909 0 5.956 5.956 0 0 1 -2.435 2.435 2.791 2.791 0 0 0 0 4.91z"/><path d="m101.883 64.769a4.094 4.094 0 0 1 -1.669-1.668 2.538 2.538 0 0 0 -4.465 0 4.083 4.083 0 0 1 -1.667 1.668 2.537 2.537 0 0 0 0 4.464 4.1 4.1 0 0 1 1.67 1.668 2.537 2.537 0 0 0 4.464 0 4.094 4.094 0 0 1 1.668-1.669 2.537 2.537 0 0 0 0-4.463zm-3.9 3.213a7.53 7.53 0 0 0 -.983-.982 7.585 7.585 0 0 0 .982-.981 7.648 7.648 0 0 0 .982.981 7.592 7.592 0 0 0 -.983.982z"/><path d="m33.1 68.192a3.219 3.219 0 0 0 2.843-1.692 9.246 9.246 0 0 1 3.777-3.776 3.235 3.235 0 0 0 0-5.687 9.254 9.254 0 0 1 -3.777-3.777 3.234 3.234 0 0 0 -5.687 0 9.246 9.246 0 0 1 -3.777 3.776 3.236 3.236 0 0 0 0 5.687 9.245 9.245 0 0 1 3.777 3.777 3.219 3.219 0 0 0 2.843 1.69zm-4.537-8.311a12.737 12.737 0 0 0 4.537-4.538 12.721 12.721 0 0 0 4.537 4.538 12.713 12.713 0 0 0 -4.537 4.538 12.721 12.721 0 0 0 -4.537-4.538z"/><path d="m53.327 50.445a1.749 1.749 0 0 0 -2.45.351q-.575.768-1.094 1.563a1.748 1.748 0 0 0 .506 2.422 1.728 1.728 0 0 0 .957.286 1.746 1.746 0 0 0 1.465-.792c.307-.467.629-.928.967-1.379a1.75 1.75 0 0 0 -.351-2.451z"/><path d="m58.917 47.737a53.426 53.426 0 0 1 13.783-6.975l4.055 5.454a1.75 1.75 0 0 0 3.153-.971l.284-6.82a121.875 121.875 0 0 1 11.956-2.573c-.752 4.641-2.842 15.519-7.118 24.933a1.75 1.75 0 1 0 3.187 1.447c5.8-12.774 7.668-27.619 7.744-28.244a1.75 1.75 0 0 0 -1.95-1.95 118.153 118.153 0 0 0 -15.99 3.355 1.748 1.748 0 0 0 -1.272 1.607l-.132 3.16-1.877-2.519a1.741 1.741 0 0 0 -1.97-.612 58.643 58.643 0 0 0 -15.942 7.9 1.75 1.75 0 0 0 2.089 2.808z"/><path d="m80.764 73.928.15-.162a1.751 1.751 0 0 0 -.047-2.427l-2.8-2.8 5.855-.046a1.75 1.75 0 0 0 -.013-3.5h-.009l-10.033.079a1.75 1.75 0 0 0 -1.223 2.988l4.527 4.528c-5.924 5.56-14.308 7.563-20.381 8.26a1.75 1.75 0 0 0 .2 3.488 1.723 1.723 0 0 0 .2-.012c6.807-.779 16.319-3.107 22.979-9.766.2-.202.397-.416.595-.63z"/><path d="m75.248 52.753a4.065 4.065 0 0 0 -5.658-.053l-22.72 21.815a48.492 48.492 0 0 1 2.75-14.025 1.75 1.75 0 1 0 -3.281-1.22 54.75 54.75 0 0 0 -3.068 18.7l-9.694 9.309a5.051 5.051 0 0 0 3.5 8.694h.053a5.016 5.016 0 0 0 3.592-1.553l34.583-36.011a4.062 4.062 0 0 0 -.057-5.656zm-2.467 3.231-34.587 36.016a1.538 1.538 0 0 1 -1.1.477 1.6 1.6 0 0 1 -1.112-.454 1.551 1.551 0 0 1 .018-2.218l10.239-9.834c.017-.016.035-.031.051-.048l25.722-24.7a.541.541 0 0 1 .767.764z"/></g></g></svg>