<?xml version="1.0"?>
<svg xmlns="http://www.w3.org/2000/svg" id="Layer_1" data-name="Layer 1" viewBox="0 0 1000 1000"><defs><style>.cls-1{fill:#ffee58;}.cls-2{fill:#a5d6a7;}.cls-3{fill:#e1f5fe;}.cls-4{fill:#bbdefb;}</style></defs><path d="M875.47,341.38A406.14,406.14,0,0,0,849,289.49q-7.11-11.78-15-23a409.75,409.75,0,0,0-175.4-141.92c-1.52-.64-3-1.28-4.58-1.9a407.21,407.21,0,0,0-308.08,0c-1.53.62-3.06,1.26-4.58,1.9A409.75,409.75,0,0,0,166,266.45q-7.89,11.26-15,23a407.45,407.45,0,0,0,0,421q7.11,11.78,15,23a409.75,409.75,0,0,0,175.4,141.92c1.52.64,3.05,1.28,4.58,1.9a407.21,407.21,0,0,0,308.08,0c1.53-.62,3.06-1.26,4.58-1.9A409.75,409.75,0,0,0,834,733.55q7.89-11.26,15-23a408.4,408.4,0,0,0,26.45-369.13Zm-286.87,541q-7.59,1.76-15.29,3.21a394.58,394.58,0,0,1-146.62,0q-7.69-1.46-15.29-3.21C266,848.74,151.26,734,117.59,588.6q-1.77-7.59-3.22-15.29a394.58,394.58,0,0,1,0-146.62q1.45-7.69,3.22-15.29C151.26,266,266,151.26,411.4,117.58q7.59-1.76,15.29-3.21a394.58,394.58,0,0,1,146.62,0q7.7,1.45,15.29,3.21C734,151.26,848.74,266,882.41,411.4q1.77,7.59,3.22,15.29a394.58,394.58,0,0,1,0,146.62q-1.46,7.7-3.22,15.29C848.74,734,734,848.74,588.6,882.42Z"/><path class="cls-1" d="M892.5,500a392.79,392.79,0,0,1-6.87,73.31l-130.18,9.81a271.24,271.24,0,0,0,0-166.24l130.18,9.81A392.79,392.79,0,0,1,892.5,500Z"/><path class="cls-2" d="M882.41,411.4l-132.51-10A270.19,270.19,0,0,0,598.58,250.1l-10-132.52C734,151.26,848.74,266,882.41,411.4Z"/><path class="cls-1" d="M583.12,244.55a271.24,271.24,0,0,0-166.24,0l9.81-130.18a394.58,394.58,0,0,1,146.62,0Z"/><path class="cls-2" d="M411.4,117.58l-10,132.52A270.19,270.19,0,0,0,250.1,401.42l-132.51,10C151.26,266,266,151.26,411.4,117.58Z"/><path class="cls-2" d="M411.4,882.42C266,848.74,151.26,734,117.59,588.6l132.51,10A270.19,270.19,0,0,0,401.42,749.9Z"/><path class="cls-1" d="M583.12,755.45l-9.81,130.18a394.58,394.58,0,0,1-146.62,0l-9.81-130.18a271.24,271.24,0,0,0,166.24,0Z"/><path class="cls-2" d="M882.41,588.6C848.74,734,734,848.74,588.6,882.42l10-132.52A270.19,270.19,0,0,0,749.9,598.58Z"/><path d="M745.16,598.94l-.57,0a7.51,7.51,0,0,1-7-10.28A255,255,0,0,1,588.69,737.62a7.41,7.41,0,0,1,3.33-.5,7.5,7.5,0,0,1,6.92,8l-.36,4.74A270.19,270.19,0,0,0,749.9,598.58ZM500,753.5a253.51,253.51,0,0,1-88.68-15.87A7.52,7.52,0,0,1,416,744l.86,11.41a271.24,271.24,0,0,0,166.24,0L584,744a7.54,7.54,0,0,1,4.68-6.41A253.4,253.4,0,0,1,500,753.5ZM745.16,598.94l-.57,0a7.51,7.51,0,0,1-7-10.28A255,255,0,0,1,588.69,737.62a7.41,7.41,0,0,1,3.33-.5,7.5,7.5,0,0,1,6.92,8l-.36,4.74A270.19,270.19,0,0,0,749.9,598.58ZM500,753.5a253.51,253.51,0,0,1-88.68-15.87A7.52,7.52,0,0,1,416,744l.86,11.41a271.24,271.24,0,0,0,166.24,0L584,744a7.54,7.54,0,0,1,4.68-6.41A253.4,253.4,0,0,1,500,753.5ZM320.75,679.25a252.77,252.77,0,0,1-58.38-90.57,7.51,7.51,0,0,1-7,10.28l-.57,0-4.74-.36A270.19,270.19,0,0,0,401.42,749.9l-.36-4.74a7.51,7.51,0,0,1,10.26-7.53A252.77,252.77,0,0,1,320.75,679.25ZM262.37,411.32A7.5,7.5,0,0,1,256,416l-11.41.86a271.24,271.24,0,0,0,0,166.24L256,584a7.5,7.5,0,0,1,6.41,4.7,255.7,255.7,0,0,1,0-177.36ZM745.16,598.94l-.57,0a7.51,7.51,0,0,1-7-10.28A255,255,0,0,1,588.69,737.62a7.41,7.41,0,0,1,3.33-.5,7.5,7.5,0,0,1,6.92,8l-.36,4.74A270.19,270.19,0,0,0,749.9,598.58ZM500,753.5a253.51,253.51,0,0,1-88.68-15.87A7.52,7.52,0,0,1,416,744l.86,11.41a271.24,271.24,0,0,0,166.24,0L584,744a7.54,7.54,0,0,1,4.68-6.41A253.4,253.4,0,0,1,500,753.5ZM320.75,679.25a252.77,252.77,0,0,1-58.38-90.57,7.51,7.51,0,0,1-7,10.28l-.57,0-4.74-.36A270.19,270.19,0,0,0,401.42,749.9l-.36-4.74a7.51,7.51,0,0,1,10.26-7.53A252.77,252.77,0,0,1,320.75,679.25ZM262.37,411.32A7.5,7.5,0,0,1,256,416l-11.41.86a271.24,271.24,0,0,0,0,166.24L256,584a7.5,7.5,0,0,1,6.41,4.7,255.7,255.7,0,0,1,0-177.36Zm493.08,5.56q-2.54-7.83-5.55-15.46A270.19,270.19,0,0,0,598.58,250.1q-7.64-3-15.46-5.55a271.24,271.24,0,0,0-166.24,0q-7.83,2.53-15.46,5.55A270.19,270.19,0,0,0,250.1,401.42q-3,7.63-5.55,15.46a271.24,271.24,0,0,0,0,166.24q2.53,7.83,5.55,15.46A270.19,270.19,0,0,0,401.42,749.9q7.63,3,15.46,5.55a271.24,271.24,0,0,0,166.24,0q7.83-2.54,15.46-5.55A270.19,270.19,0,0,0,749.9,598.58q3-7.64,5.55-15.46a271.24,271.24,0,0,0,0-166.24Zm-76.2,262.37a252.71,252.71,0,0,1-90.56,58.37h0a255,255,0,1,1,90.59-58.38ZM262.37,411.32A7.5,7.5,0,0,1,256,416l-11.41.86a271.24,271.24,0,0,0,0,166.24L256,584a7.5,7.5,0,0,1,6.41,4.7,255.7,255.7,0,0,1,0-177.36Zm58.38,267.93a252.77,252.77,0,0,1-58.38-90.57,7.51,7.51,0,0,1-7,10.28l-.57,0-4.74-.36A270.19,270.19,0,0,0,401.42,749.9l-.36-4.74a7.51,7.51,0,0,1,10.26-7.53A252.77,252.77,0,0,1,320.75,679.25ZM500,753.5a253.51,253.51,0,0,1-88.68-15.87A7.52,7.52,0,0,1,416,744l.86,11.41a271.24,271.24,0,0,0,166.24,0L584,744a7.54,7.54,0,0,1,4.68-6.41A253.4,253.4,0,0,1,500,753.5ZM745.16,598.94l-.57,0a7.51,7.51,0,0,1-7-10.28A255,255,0,0,1,588.69,737.62a7.41,7.41,0,0,1,3.33-.5,7.5,7.5,0,0,1,6.92,8l-.36,4.74A270.19,270.19,0,0,0,749.9,598.58ZM320.75,679.25a252.77,252.77,0,0,1-58.38-90.57,7.51,7.51,0,0,1-7,10.28l-.57,0-4.74-.36A270.19,270.19,0,0,0,401.42,749.9l-.36-4.74a7.51,7.51,0,0,1,10.26-7.53A252.77,252.77,0,0,1,320.75,679.25ZM500,753.5a253.51,253.51,0,0,1-88.68-15.87A7.52,7.52,0,0,1,416,744l.86,11.41a271.24,271.24,0,0,0,166.24,0L584,744a7.54,7.54,0,0,1,4.68-6.41A253.4,253.4,0,0,1,500,753.5ZM745.16,598.94l-.57,0a7.51,7.51,0,0,1-7-10.28A255,255,0,0,1,588.69,737.62a7.41,7.41,0,0,1,3.33-.5,7.5,7.5,0,0,1,6.92,8l-.36,4.74A270.19,270.19,0,0,0,749.9,598.58Zm0,0-.57,0a7.51,7.51,0,0,1-7-10.28A255,255,0,0,1,588.69,737.62a7.41,7.41,0,0,1,3.33-.5,7.5,7.5,0,0,1,6.92,8l-.36,4.74A270.19,270.19,0,0,0,749.9,598.58Z"/><path class="cls-3" d="M753.5,500A254,254,0,0,1,588.69,737.62h0A254.11,254.11,0,1,1,753.5,500Z"/><path d="M427.12,108.64l-.43,5.73-9.81,130.18L416,256a7.51,7.51,0,0,1-7.47,6.94l-.57,0a7.5,7.5,0,0,1-6.92-8l.36-4.74,10-132.52.76-10.06a7.5,7.5,0,0,1,15,1.12Z"/><path d="M592,262.88l-.57,0A7.51,7.51,0,0,1,584,256l-.86-11.41-9.81-130.18-.43-5.73a7.5,7.5,0,1,1,15-1.12l.76,10.06,10,132.52.36,4.74A7.5,7.5,0,0,1,592,262.88Z"/><path class="cls-1" d="M231.5,500a269.11,269.11,0,0,0,13.05,83.12l-130.18-9.81a394.58,394.58,0,0,1,0-146.62l130.18-9.81A269.11,269.11,0,0,0,231.5,500Z"/><path d="M262.88,592a7.51,7.51,0,0,1-7.47,6.94l-.57,0-4.74-.36-132.51-10-10.07-.76a7.5,7.5,0,1,1,1.12-15l5.73.43,130.18,9.81L256,584a7.49,7.49,0,0,1,6.92,8Z"/><path d="M262.37,411.32A7.5,7.5,0,0,1,256,416l-11.41.86-130.18,9.81-5.73.43-.57,0a7.5,7.5,0,0,1-.55-15l10.07-.76,132.51-10,4.74-.36a7.51,7.51,0,0,1,7.53,10.26Z"/><path d="M598.94,745.16l-.36,4.74-10,132.52-.76,10.06a7.51,7.51,0,0,1-7.47,6.94l-.57,0a7.5,7.5,0,0,1-6.92-8l.43-5.73,9.81-130.18L584,744a7.54,7.54,0,0,1,4.68-6.41h0a7.41,7.41,0,0,1,3.33-.5A7.5,7.5,0,0,1,598.94,745.16Z"/><path d="M420.2,899.4l-.57,0a7.51,7.51,0,0,1-7.47-6.94l-.76-10.06-10-132.52-.36-4.74A7.5,7.5,0,1,1,416,744l.86,11.41,9.81,130.18.43,5.73A7.5,7.5,0,0,1,420.2,899.4Z"/><path d="M899.4,420.2a7.51,7.51,0,0,1-7.47,6.94l-.57,0-5.73-.43-130.18-9.81L744,416a7.5,7.5,0,0,1,1.12-15l4.74.36,132.51,10,10.07.76A7.5,7.5,0,0,1,899.4,420.2Z"/><path d="M892.48,587.84l-10.07.76-132.51,10-4.74.36-.57,0a7.5,7.5,0,0,1-.55-15l11.41-.86,130.18-9.81,5.73-.43a7.5,7.5,0,1,1,1.12,15Z"/><path class="cls-4" d="M346,877.37H242.51A76.62,76.62,0,0,1,166,800.83V733.55a409.75,409.75,0,0,0,175.4,141.92C342.9,876.11,344.43,876.75,346,877.37Z"/><path d="M398.17,884.87a7.5,7.5,0,0,1-7.5,7.5H242.51A91.64,91.64,0,0,1,151,800.83v-92.5a7.5,7.5,0,0,1,15,0v92.5a76.62,76.62,0,0,0,76.53,76.54H390.67A7.5,7.5,0,0,1,398.17,884.87Z"/><path class="cls-4" d="M834,199.17v67.28a409.75,409.75,0,0,0-175.4-141.92c-1.52-.64-3-1.28-4.58-1.9H757.49A76.62,76.62,0,0,1,834,199.17Z"/><path d="M849,199.17v92.5a7.5,7.5,0,1,1-15,0v-92.5a76.62,76.62,0,0,0-76.53-76.54H609.33a7.5,7.5,0,0,1,0-15H757.49A91.64,91.64,0,0,1,849,199.17Z"/><path class="cls-4" d="M834,733.55v67.28a76.62,76.62,0,0,1-76.53,76.54H654c1.53-.62,3.06-1.26,4.58-1.9A409.75,409.75,0,0,0,834,733.55Z"/><path d="M849,708.33v92.5a91.64,91.64,0,0,1-91.53,91.54H609.33a7.5,7.5,0,0,1,0-15H757.49A76.62,76.62,0,0,0,834,800.83v-92.5a7.5,7.5,0,1,1,15,0Z"/><path class="cls-4" d="M346,122.63c-1.53.62-3.06,1.26-4.58,1.9A409.75,409.75,0,0,0,166,266.45V199.17a76.62,76.62,0,0,1,76.53-76.54Z"/><path d="M398.17,115.13a7.5,7.5,0,0,1-7.5,7.5H242.51A76.62,76.62,0,0,0,166,199.17v92.5a7.5,7.5,0,0,1-15,0v-92.5a91.64,91.64,0,0,1,91.53-91.54H390.67A7.5,7.5,0,0,1,398.17,115.13Z"/></svg>
