<svg clip-rule="evenodd" fill-rule="evenodd" height="1.707in" image-rendering="optimizeQuality" shape-rendering="geometricPrecision" text-rendering="geometricPrecision" viewBox="0 0 1.70666 1.70666" width="1.707in" xmlns="http://www.w3.org/2000/svg"><g id="Layer_x0020_1"><path d="m1.41199.154894h-.117035v.0551811c0 .0329291-.0267835.0597087-.0597126.0597087h-.0359409v.0551811c.00001181.0329291-.0267756.0597205-.0597087.0597205h-.110126v.11115c.0350787.00585039.0619173.0364173.0619173.073122 0 .0367008-.0268386.0672677-.0619173.073122v.0267795c.13822.067248.226831.208126.226831.362528.00001575.222185-.180756.402976-.40298.402976-.222205 0-.40298-.180791-.40298-.402984 0-.154386.0885984-.295272.226831-.362524v-.0267795c-.0350591-.0058622-.0618701-.0364213-.0618701-.0731142s.026815-.067252.0618701-.0731142v-.111161h-.111205c-.0323189 0-.0586063-.0262953-.0586063-.0586063v-.0562953h-.0370433c-.0323228 0-.0585984-.0262913-.0585984-.0585984v-.0562913h-.117039c-.0110394 0-.02-.00896063-.02-.02v-.114886c0-.0110394.00896063-.02.02-.02h1.11731c.0110394 0 .02.00896063.02.02v.114886c.00001575.0110551-.00896063.02-.02.02zm-.422524.229791h-.272299v.110142l.272299-.00000787v-.110134zm-.292311.218406h.00001181l.15587.00000394.164193.00000394c.0188189 0 .0341378-.0153189.0341378-.0341378s-.0153189-.0341339-.0341378-.0341339l-.327799-.00000787c-.0188189 0-.0341378.0153189-.0341378.0341378s.0153189.0341339.0341378.0341339h.00772441zm.0200118.0400039v.0385c0 .00788976-.00462205.0150394-.0118307.018252-.130598.0584016-.214984.188528-.214984.331539 0 .200134.162831.362965.36298.362965.20015 0 .362984-.162831.362984-.362965 0-.143012-.0843898-.273138-.214984-.331539-.00720866-.00320866-.0118504-.010374-.0118504-.018252v-.0385h-.115862c.00037402.0507598.00016142.17874-.00005118.269433.0203543-.0176024.0468622-.0282677.0758228-.0282677.0639961 0 .116079.0520669.116079.116063 0 .064-.0520709.116083-.116079.116083-.0399094 0-.0751732-.0202559-.0960709-.0510197-.0208976.0307638-.0561614.0510197-.0960709.0510197-.0639961 0-.116063-.0520827-.116063-.116083 0-.0639961.0520669-.116063.116063-.116063.029189 0 .0558898.0108346.0763071.028689.00025591-.107689.0003937-.225016.00009055-.269854h-.11648zm.156169.356378-.00000394.00090945-.00000394.00026378c.00017323.041811.0342087.0757638.076063.0757638.0419567 0 .0760827-.034126.0760827-.0760866 0-.0419567-.034126-.0760669-.0760827-.0760669-.0416772 0-.0755984.0336496-.0760551.0752165zm-.116087-.0752165c-.0419567 0-.0760827.0341102-.0760827.0760669 0 .0419606.034126.0760866.0760827.0760866.0419449 0 .0760669-.034126.0760669-.0760866v-.00006693c-.00003543-.0419252-.0341299-.076-.0760669-.076zm.0960669.782394c-.0110394 0-.02-.0089685-.02-.02v-.166799c0-.0110394.00896063-.02.02-.02.0110394 0 .02.00897244.02.02v.166799c.00001575.0110394-.00895276.02-.02.02zm.351413-.0941496c-.00690157 0-.013626-.00359449-.0173346-.0100157l-.0833976-.144457c-.00551181-.00955118-.00225197-.0217874.00731496-.027315.00951181-.00551181.0217795-.00226378.0273189.00731496l.0833976.144457c.00551181.00955512.00225197.0217913-.00731496.0273189-.00314961.00183465-.00658268.00269685-.00998425.00269685zm.257217-.257236c-.00339764 0-.00683071-.00087795-.00998031-.0026811l-.144457-.0834016c-.00957087-.00551181-.0128425-.017748-.0073189-.027315.00552756-.00957087.0177913-.0128189.0273189-.0073189l.144453.0834016c.00957087.00551181.0128465.017748.0073189.027315-.00370472.00640551-.0104291.01-.0173346.01zm.0941693-.351382h-.166819c-.0110394 0-.0199961-.0089685-.0199961-.0199961 0-.0110315.0089685-.02.0199961-.02h.166819c.0110394 0 .02.0089685.02.02 0 .0110276-.00896063.0199961-.02.0199961zm-1.23876 0h-.166819c-.0110394 0-.02-.0089685-.02-.0199961 0-.0110315.00896063-.02.02-.02h.166819c.0110354 0 .0199961.0089685.0199961.02 0 .0110276-.00896063.0199961-.0199961.0199961zm-.0726417.351382c-.00691732 0-.0136378-.00359449-.0173465-.0100157-.00551181-.00955118-.00225197-.0217874.00731496-.027315l.144457-.0834016c.00955118-.00552756.0218031-.00223622.027315.0073189.00551181.00955118.00225197.0217874-.00731496.027315l-.144457.0834016c-.00314961.00182677-.00658268.00269685-.0099685.00269685zm.257189.257236c-.0033937 0-.00683465-.00087795-.00998425-.0026811-.00955512-.00551181-.0128346-.017748-.0073189-.0273189l.0834016-.144457c.00551181-.00955118.0177362-.0128583.027315-.00731496.00955512.00551181.0128346.017748.0073189.027315l-.0834016.144457c-.00368898.00639764-.0104134.01-.0173307.01zm.65739-1.34272h-.611941v.0562953c0 .0102598.00834646.0186063.0186063.0186063h.131205.312299.130126c.0108583 0 .0197047-.00884252.0197047-.0197205zm-.728303-.154874.00072047-.00001575h.84324l.00072047.00001575h.116315v-.0749016h-1.07731v.0749016h.116319zm.0207205.0399843v.0562913c0 .010252.00834646.0185984.0185984.0185984h.0570433.651945.0559252c.0108622 0 .0197087-.00884252.0197087-.0197047v-.0551811l-.80322-.00000394z" fill="#000002"/><path d="m.431717.114894h.843243l.00072.000015h.11631v-.0749011h-1.077313v.0749011h.116319z" fill="#ff8b00"/><path d="m1.25494.154898-.80322-.00000394v.0562913c0 .010252.00834646.0185984.0185984.0185984h.0570433.651945.0559252c.0108622 0 .0197087-.00884252.0197087-.0197047v-.0551811z" fill="#ffb427"/><path d="m1.1593.269783h-.611941v.0562953c0 .0102598.00834646.0186063.0186063.0186063h.131205.312299.130126c.0108583 0 .0197047-.00884252.0197047-.0197205z" fill="#ff8b00"/><path d="m.989469.384685h-.2723v.110142l.2723-.000008z" fill="#ffb427"/><path d="m1.017232.5348272-.327799-.00000787c-.0188189 0-.0341378.0153189-.0341378.0341378s.0153189.0341339.0341378.0341339h.00773622l.15587.00000394.164193.00000394c.0188189 0 .0341378-.0153189.0341378-.0341378s-.0153189-.0341339-.0341378-.0341339z" fill="#d96b37"/><g fill="#ffde3e"><path d="m.989484.643094h-.115862c.00037402.0507598.00016142.17874-.00005118.269433.0203543-.0176024.0468622-.0282677.0758228-.0282677.0639961 0 .116079.0520669.116079.116063 0 .064-.0520709.116083-.116079.116083-.0399094 0-.0751732-.0202559-.0960709-.0510197-.0208976.0307638-.0561614.0510197-.0960709.0510197-.0639961 0-.116063-.0520827-.116063-.116083 0-.0639961.0520669-.116063.116063-.116063.029189 0 .0558898.0108346.0763071.028689.00025591-.107689.0003937-.225016.00009055-.269854h-.11648v.0385c0 .00788976-.00462205.0150394-.0118307.018252-.130598.0584016-.214984.188528-.214984.331539 0 .200134.162831.362965.36298.362965.20015 0 .362984-.162831.362984-.362965 0-.143012-.0843898-.273138-.214984-.331539-.00720866-.00320866-.0118504-.010374-.0118504-.018252v-.0385z"/><path d="m.757252.924256c-.0419567 0-.0760827.0341102-.0760827.0760669 0 .0419606.034126.0760866.0760827.0760866.0419449 0 .0760669-.034126.0760669-.0760866v-.00006693c-.00003543-.0419252-.0341299-.076-.0760669-.076z"/><path d="m.949394.924256c-.0416772 0-.0755984.0336496-.0760551.0752165l-.00000394.00090945-.00000394.00026378c.00017323.041811.0342087.0757638.076063.0757638.0419567 0 .0760827-.034126.0760827-.0760866 0-.0419567-.034126-.0760669-.0760827-.0760669z"/></g></g></svg>