<svg enable-background="new 0 0 32 32" viewBox="0 0 32 32" xmlns="http://www.w3.org/2000/svg"><g id="Grid" display="none"/><g id="bow_tie"/><g id="balloon_1_"/><g id="placeholder"/><g id="mic"/><g id="speaker"/><g id="champagne"/><g id="gift"/><g id="theater"/><g id="_camera"/><g id="video_camera"/><g id="party_hat"/><g id="champagne_glass"/><g id="man"/><g id="woman"/><g id="skewer"/><g id="ticket"/><g id="cake"/><g id="lights"><path d="m18.003 14.206c1.723 1.098 1.643 2.632 1.141 4.181-.197.608-.473 1.486-.891 2.315-.929 1.842-3.578 1.842-4.507 0-.418-.829-.694-1.707-.891-2.315-.501-1.548-.582-3.082 1.141-4.181z" fill="#83dcff"/><path d="m19.142 18.39c-.2.6-.47 1.48-.89 2.31-.62 1.22-1.99 1.63-3.12 1.23.69-.23 1.29-.75 1.56-1.54.31-.88.47-1.79.58-2.42.28-1.47.2-2.88-1.25-3.76h1.98c1.72 1.09 1.64 2.63 1.14 4.18z" fill="#7acfea"/><path d="m18.003 14.206v-1.58c0-.542-.439-.982-.982-.982h-2.042c-.542 0-.982.439-.982.982v1.58z" fill="#3a3a3a"/><path d="m18.002 12.63v1.58h-1.25v-1.58c0-.55-.44-.99-.98-.99h1.25c.54 0 .98.44.98.99z" fill="#333"/><path d="m8.83 14.206c1.723 1.098 1.643 2.632 1.141 4.181-.197.608-.473 1.486-.891 2.315-.929 1.842-3.578 1.842-4.507 0-.418-.829-.694-1.707-.891-2.315-.501-1.548-.582-3.082 1.141-4.181z" fill="#ffd731"/><path d="m9.97 18.39c-.2.6-.47 1.48-.89 2.31-.62 1.22-1.99 1.63-3.12 1.23.69-.23 1.29-.75 1.56-1.54.31-.88.47-1.79.58-2.42.28-1.47.2-2.88-1.25-3.76h1.98c1.72 1.09 1.64 2.63 1.14 4.18z" fill="#ffc933"/><path d="m8.83 14.206v-1.58c0-.542-.439-.982-.982-.982h-2.042c-.542 0-.982.439-.982.982v1.58z" fill="#3a3a3a"/><path d="m8.83 12.63v1.58h-1.25v-1.58c0-.55-.44-.99-.98-.99h1.25c.54 0 .98.44.98.99z" fill="#333"/><path d="m27.175 14.206c1.723 1.098 1.643 2.632 1.141 4.181-.197.608-.473 1.486-.891 2.315-.929 1.842-3.578 1.842-4.507 0-.418-.829-.694-1.707-.891-2.315-.501-1.548-.582-3.082 1.141-4.181z" fill="#e96565"/><path d="m28.315 18.39c-.2.6-.47 1.48-.89 2.31-.62 1.22-1.99 1.63-3.12 1.23.69-.23 1.29-.75 1.56-1.54.31-.88.47-1.79.58-2.42.28-1.47.2-2.88-1.25-3.76h1.98c1.72 1.09 1.64 2.63 1.14 4.18z" fill="#e05353"/><path d="m27.175 14.206v-1.58c0-.542-.439-.982-.982-.982h-2.042c-.542 0-.982.439-.982.982v1.58z" fill="#3a3a3a"/><path d="m27.175 12.63v1.58h-1.25v-1.58c0-.55-.44-.99-.98-.99h1.25c.54 0 .98.44.98.99z" fill="#333"/><path d="m28.816 12.286h-25.632c-.654 0-1.184-.531-1.184-1.185s.53-1.184 1.184-1.184h25.631c.654 0 1.184.53 1.184 1.184.001.654-.529 1.185-1.183 1.185z" fill="#efc48f"/><path d="m14.923 16.343c.159-.173.147-.441-.026-.601-.173-.157-.441-.146-.6.026-.415.452-.44 1.083-.085 2.179.058.18.225.294.404.294.043 0 .087-.007.131-.021.223-.072.346-.312.273-.535-.346-1.07-.165-1.268-.097-1.342z" fill="#c2f4ff"/><path d="m5.75 16.343c.159-.173.147-.441-.026-.601-.172-.157-.441-.146-.6.026-.415.452-.44 1.083-.085 2.179.058.18.225.294.404.294.043 0 .087-.007.131-.021.223-.072.346-.312.273-.535-.346-1.07-.164-1.268-.097-1.342z" fill="#ffe576"/><path d="m24.096 16.343c.158-.173.146-.441-.026-.601-.172-.158-.442-.147-.601.026-.415.452-.439 1.083-.085 2.179.059.18.225.294.404.294.043 0 .087-.007.131-.021.224-.072.346-.312.273-.535-.346-1.07-.165-1.268-.096-1.342z" fill="#ff9292"/><path d="m28.815 12.71c.888 0 1.609-.722 1.609-1.608 0-.888-.722-1.609-1.609-1.609h-25.631c-.887 0-1.609.722-1.609 1.609s.722 1.608 1.609 1.608h1.211v1.28c-1.87 1.333-1.542 3.212-1.116 4.528l.032.098c.199.617.473 1.463.884 2.278.502.996 1.511 1.614 2.633 1.614s2.13-.618 2.633-1.614c.412-.817.686-1.664.916-2.376.427-1.318.755-3.198-1.121-4.532v-1.276h4.32v1.274c-1.879 1.334-1.549 3.218-1.093 4.627.2.618.473 1.465.885 2.282.502.996 1.511 1.614 2.633 1.614 1.121 0 2.13-.618 2.633-1.614.41-.813.683-1.655.882-2.271l.034-.105c.427-1.318.755-3.2-1.124-4.534v-1.273h4.32v1.276c-1.877 1.334-1.548 3.214-1.121 4.532l.034.105c.199.615.472 1.458.881 2.271.503.996 1.512 1.614 2.634 1.614 1.121 0 2.13-.618 2.633-1.614.414-.823.688-1.674.915-2.376.426-1.316.755-3.194-1.116-4.528v-1.28zm-26.39-1.608c0-.419.341-.76.759-.76h25.631c.419 0 .76.341.76.76 0 .418-.341.759-.76.759h-25.631c-.418-.001-.759-.341-.759-.759zm7.112 7.248c-.191.592-.454 1.402-.835 2.161-.362.718-1.063 1.147-1.874 1.147s-1.512-.43-1.874-1.147c-.381-.757-.643-1.565-.834-2.156l-.032-.099c-.571-1.763-.321-2.822.864-3.625h3.752c1.185.803 1.433 1.865.833 3.719zm-1.132-4.569h-3.16v-1.071h3.161v1.071zm10.335 4.475-.034.105c-.19.589-.452 1.396-.833 2.149-.362.718-1.063 1.147-1.873 1.147-.811 0-1.512-.43-1.874-1.147-.382-.759-.644-1.569-.866-2.255-.571-1.763-.321-2.822.864-3.625h3.752c1.185.804 1.435 1.863.864 3.626zm-1.165-4.475h-3.15v-1.071h3.15zm10.311 4.557c-.192.595-.455 1.409-.84 2.173-.362.718-1.063 1.147-1.873 1.147-.812 0-1.512-.43-1.874-1.147-.38-.754-.642-1.561-.832-2.149l-.034-.105c-.571-1.763-.322-2.822.864-3.625h3.751c1.185.802 1.434 1.864.838 3.706zm-1.131-4.557h-3.16v-1.071h3.16z"/></g><g id="photo"/><g id="invitation"/></svg>