<svg id="Layer_1" viewBox="0 0 1000 1000" xmlns="http://www.w3.org/2000/svg" data-name="Layer 1"><path d="m462.59 581.88a16 16 0 0 0 -8.86-21.74l-182-68.53 394.73-331.52-124.08 257.91a16 16 0 0 0 8.82 21.92l177.43 66.28-386 333z" fill="#ffea00"/><path d="m452.59 591.88a16 16 0 0 0 -8.86-21.74l-182-68.53 394.73-331.52-124.08 257.91a16 16 0 0 0 8.82 21.92l177.43 66.28-386 333z" fill="#fff" opacity=".5"/><path d="m775.29 497.79a16 16 0 0 0 -10.15-12.17l-186.33-69.62 148.74-309.06a16 16 0 0 0 -24.71-19.19l-472.67 396.94a16 16 0 0 0 4.65 27.23l191.47 72.08-144.15 309.24a16 16 0 0 0 24.95 18.87l462.91-399.38a16 16 0 0 0 5.29-14.94zm-432.64 341.38 119.94-257.29a16 16 0 0 0 -8.86-21.74l-182-68.53 394.73-331.52-124.08 257.91a16 16 0 0 0 8.82 21.92l177.43 66.28z" fill="#413b32"/></svg>