<svg id="Capa_1" enable-background="new 0 0 512 512" height="512" viewBox="0 0 512 512" width="512" xmlns="http://www.w3.org/2000/svg"><g><g><path d="m409.226 501.028c10.57-12.258 43.558-57.842 44.802-150.479.025-1.86 2.37-2.694 3.54-1.247 8.351 10.326 14.799 21.374 19.041 32.959.585 1.598 2.774 1.806 3.611.324 18.243-32.3 17.296-79.638.511-114.305-3.257-6.951-12.754-41.321-8.472-56.817.339-1.227 1.72-1.829 2.851-1.246l23.015 11.87c1.156.596 2.578-.049 2.865-1.318 5.384-23.805 4.651-51.271-3.329-75.729-11.909-37.204-41.664-68.886-54.989-81.198-1.245-1.15-.589-3.227 1.092-3.447 5.55-.728 15.419-1.812 22.862-1.478 1.768.079 2.767-2.01 1.587-3.329-26.414-29.514-64.803-48.088-107.523-48.088-18.464 0-36.118 3.469-52.345 9.792-33.72 13.139-70.971 13.139-104.691 0-14.455-5.632-30.042-9-46.326-9.669-1.996-.082-4.003.238-6.019.238-23.17 0-43.842 5.715-62.502 14.957-15.613 7.734-29.94 17.708-41.968 31.064-1.202 1.335-.15 3.458 1.641 3.324 2.629-.196 5.699 1.382 5.699 1.382 5.04.298 10.066.995 13.575 1.563.155.025.301.066.436.119 1.363.541 4.324 1.715 3.096 2.707-13.161 10.631-41.233 45.755-52.883 82.149-7.531 22.989-12.181 48.867-6.489 73.787.289 1.267 1.71 1.909 2.865 1.314l7.97-2.719 14.141-7.293c.222-.115.444-.319.676-.346.948-.111 3.001-.654 3.274.332 4.282 15.496-2.456 50.528-5.713 57.479-16.501 33.212-21.304 76.909-3.702 108.957.819 1.491 3.011 1.308 3.613-.284 1.307-3.452 4.25-5.345 4.25-5.345 4.001-7.924 9.054-15.548 15.051-22.809.201-.244.436-.421.687-.539 1.22-.573 3.667-2.178 3.686-.64 1.21 94.339 34.437 140.216 45.032 152.298 1.902 2.169 4.638 3.41 7.523 3.41l7.733 1.772h282.649c2.913 0 5.674-1.266 7.577-3.472z" fill="#e89262"/><path d="m331.872 380.761h-151.744l2.67 45.798c0 2.646-2.01 7.761-2.01 7.761 3.682 21.399 22.33 37.68 44.78 37.68h60.863c22.45 0 41.098-16.281 44.78-37.68 0 0-1.701-5.115-1.701-7.761z" fill="#ffd15b"/><path d="m331.87 380.76v45.8c0 2.65-.23 5.24-.66 7.76-7.58 2.98-15.83 4.62-24.46 4.62-17.89 0-34.7-6.97-47.35-19.62l-1.279-1.275c-1.172-1.169-3.069-1.167-4.24.003l-1.282 1.282c-12.65 12.64-29.46 19.61-47.35 19.61-8.63 0-16.882-1.64-24.462-4.62-.43-2.52-.658-5.11-.658-7.76v-45.8z" fill="#f7c359"/><g fill="#e57a45"><path d="m119 504.5h-8.71c-2.88 0-5.62-1.24-7.52-3.41-10.59-12.08-43.69-57.28-44.9-151.62-.02-1.86-2.35-2.7-3.53-1.27 3.94-6.91 8.93-11.3 14.46-17.26.61-.65 1.71-.24 1.73.66.09 4.92.31 15.23.32 16.19 1 113.63 48.15 156.71 48.15 156.71z"/><path d="m44.27 268.28c-14.79 29.76-17.281 71.349-4.981 102.729-1.69 3.35-3.189 6.751-4.499 10.201-.61 1.59-2.8 1.78-3.62.29-17.6-32.05-16.4-80.01.1-113.22 3.26-6.95 12.75-41.32 8.47-56.82-.34-1.22-1.72-1.83-2.85-1.24l8.74-6.81c1.59-1.24 3.93-.58 4.65 1.3.89 2.35 1.86 4.94 1.91 5.06 5.57 14.51-4.54 51.29-7.92 58.51z"/><path d="m78.11 66.79c-14.34 13.2-40.08 44.86-50.77 78.25-6.51 19.88-7.92 49.77-4.59 72.47l-8.88 4.58c-1.15.59-2.57-.05-2.86-1.31-5.7-24.93-4.2-52.75 3.33-75.74 11.65-36.39 41.18-70.73 54.34-81.36 1.35-1.09.79-3.25-.93-3.53 3.05.5 6.2 1.04 8.83 1.49 2.45.42 3.36 3.46 1.53 5.15z"/><path d="m44.09 55.25c26.4-29.32 64.66-47.75 107.22-47.75 2.18 0 4.34.05 6.49.14-41.52 1.85-78.47 21.24-103.62 50.95-2.91-.17-5.82-.21-8.45-.02-1.79.14-2.84-1.99-1.64-3.32z"/></g><path d="m294.335 387.484h-76.671v7.764c0 21.172 17.163 38.335 38.335 38.335 21.172 0 38.335-17.163 38.335-38.335v-7.764z" fill="#fcb5ba"/><path d="m425.466 197.839c-7.393-43.067-37.335-78.85-78.422-93.723-24.311-8.779-51.491-3.228-70.413 14.38l-.072.067c-11.575 10.816-29.55 10.815-41.124-.002-11.079-10.355-25.01-16.559-39.544-18.15 0 0-20.511 1.152-30.592 4.802-41.087 14.873-67.628 49.444-75.021 92.511-4.691 27.325 3.372 54.922 16.851 79.149l50.043 92.936 202.554 1.446 52.162-93.756c13.477-24.228 18.269-52.335 13.578-79.66z" fill="#ffd15b"/><path d="m152.28 371.25-52.17-93.75c-10.11-18.17-15.33-38.53-15.33-59.1 0-6.85.58-13.73 1.75-20.56 3.7-21.54 13.03-41.25 26.58-57.44 13.55-16.18 31.31-28.84 51.85-36.28 7.64-2.77 15.57-4.12 23.43-4.12 2.51 0 5.02.14 7.5.41-5.37.59-10.72 1.82-15.93 3.71-20.54 7.44-38.3 20.1-51.85 36.28-13.55 16.19-22.88 35.9-26.58 57.44-1.17 6.83-1.75 13.71-1.75 20.56 0 20.57 5.22 40.93 15.33 59.1l52.17 93.75v.72z" fill="#f7c359"/><path d="m294.34 387.48v7.77c0 10.59-4.29 20.17-11.23 27.1-2.99 2.99-6.48 5.49-10.32 7.36-4.83-2.84-9.33-6.33-13.39-10.39l-1.28-1.27c-1.17-1.17-3.07-1.17-4.24 0l-1.28 1.28c-4.06 4.06-8.56 7.54-13.39 10.39-12.76-6.23-21.55-19.32-21.55-34.47v-7.77z" fill="#fc9aa1"/><path d="m216.551 226.039c-18.541 9.31-34.191 23.657-45.112 41.298-12.38 19.998-19.163 43.272-19.163 67.356v37.278c0 29.255 23.716 52.97 52.97 52.97 14.049 0 27.522-5.581 37.456-15.515l5.934-5.934 3.827-7.385c1.953-1.953 5.118-1.953 7.071 0l3.96 7.518 5.801 5.801c9.934 9.934 23.407 15.515 37.456 15.515 29.255 0 52.97-23.716 52.97-52.97v-37.278c0-24.117-6.802-47.424-19.216-67.44-10.887-17.556-26.436-31.868-44.879-41.174-10.783-5.441-21.579-8.659-32.388-9.645-2.76-.252-6.032 4.655-8.794 4.695-2.242.032-3.974-4.853-6.218-4.629-10.544 1.053-21.103 4.23-31.675 9.539z" fill="#ffe177"/><path d="m277.043 348.8-17.918 13.796c-1.826 1.461-4.421 1.461-6.247 0l-18.523-13.349c-.867-.694-1.479-1.656-1.738-2.736l-1.915-7c-.234-.973-1.78-2.412-1.78-2.412-2.514-6.652-7.913-11.884-14.766-14.143l-8.911-2.937c-6.384-2.104-9.211-9.552-5.831-15.362l2.774-4.77c2.695-4.633 7.649-7.483 13.009-7.483h81.609c5.359 0 10.314 2.85 13.009 7.483l2.774 4.77c3.379 5.81.553 13.258-5.831 15.362l-8.911 2.937c-6.829 2.251-12.241 7.526-14.767 14.144 0 0-1.904 1.486-2.144 2.485l-2.156 6.479c-.259 1.08-.87 2.042-1.737 2.736z" fill="#8b818e"/><path d="m283.08 337.1c-.35.93-.65 1.88-.88 2.85l-1.79 7.45c-.26 1.08-.87 2.04-1.74 2.74l-19.55 15.64c-1.82 1.46-4.42 1.46-6.24 0l-19.55-15.64c-.87-.7-1.48-1.66-1.74-2.74l-1.79-7.45c-.23-.97-.528-1.921-.878-2.851l22.898 13.681c2.44 1.46 5.92 1.46 8.36 0z" fill="#756e78"/></g><g><path d="m367.191 373.26 51.25-92.115c14.261-25.632 19.38-55.668 14.417-84.575-7.832-45.622-39.735-83.75-83.261-99.507-.021-.007-.042-.015-.063-.022-27.093-9.783-56.988-3.656-78.048 15.997-.016.015-.032.03-.049.045-8.658 8.091-22.224 8.09-30.882-.001-19.929-18.627-48.505-25.226-74.572-17.215-3.96 1.216-6.184 5.412-4.967 9.372 1.216 3.959 5.412 6.182 9.371 4.967 20.949-6.435 43.911-1.134 59.926 13.835 14.388 13.446 36.916 13.461 51.321.044.018-.016.035-.033.054-.049 16.938-15.828 40.998-20.76 62.799-12.869.019.006.036.013.055.02 38.441 13.936 66.614 47.621 73.533 87.922 4.386 25.547-.139 52.091-12.741 74.744l-38.109 68.497v-7.657c0-36.295-14.901-71.642-40.883-96.975-2.968-2.892-7.715-2.832-10.606.134-2.892 2.966-2.831 7.714.134 10.606 23.104 22.527 36.355 53.958 36.355 86.235v37.278c0 25.072-20.398 45.47-45.471 45.47-12.146 0-23.563-4.729-32.152-13.318l-11.101-11.1v-21.141l21.195-16.957c1.3-1.041 2.218-2.484 2.606-4.103l2.193-9.122c1.323-5.504 5.323-9.848 10.699-11.62l8.91-2.938c5.2-1.715 9.298-5.634 11.24-10.753 1.943-5.12 1.479-10.77-1.274-15.501l-2.774-4.771c-4.023-6.916-11.492-11.211-19.491-11.211h-81.609c-7.999 0-15.468 4.296-19.492 11.213l-2.772 4.768c-2.754 4.733-3.219 10.383-1.275 15.503 1.942 5.119 6.04 9.039 11.24 10.753l8.911 2.938c5.375 1.772 9.375 6.116 10.698 11.62l2.193 9.122c.389 1.619 1.307 3.062 2.606 4.103l21.195 16.957v21.141l-11.102 11.1c-8.588 8.588-20.006 13.318-32.151 13.318-25.072 0-45.471-20.398-45.471-45.47v-37.278c0-8.771.964-17.558 2.863-26.116.898-4.043-1.652-8.049-5.695-8.947-4.05-.898-8.051 1.653-8.947 5.696-2.138 9.624-3.221 19.504-3.221 29.367v7.657l-38.109-68.497c-12.603-22.654-17.127-49.199-12.741-74.746 5.14-29.937 22.396-57.046 47.343-74.376 3.401-2.363 4.243-7.037 1.881-10.438-2.364-3.402-7.036-4.244-10.439-1.881-28.228 19.609-47.753 50.283-53.567 84.157-4.963 28.907.156 58.943 14.417 84.575l51.25 92.115c.439 20.799 11.423 39.039 27.819 49.587-1.944 30.133 22.359 56.737 52.94 56.653h41.453c4.143 0 7.5-3.358 7.5-7.5s-3.357-7.5-7.5-7.5h-41.453c-19.809 0-36.11-15.262-37.788-34.642 5.533 1.673 11.395 2.582 17.467 2.582 6.871 0 13.562-1.149 19.868-3.336 8.401 7.663 19.393 11.98 30.885 11.98 11.497 0 22.483-4.317 30.883-11.98 6.306 2.187 12.998 3.336 19.87 3.336 6.073 0 11.936-.91 17.47-2.583-1.279 14.593-10.96 27.364-24.902 32.399-3.896 1.407-5.913 5.706-4.506 9.602 1.103 3.054 3.983 4.954 7.054 4.954.846 0 1.706-.144 2.548-.448 21.89-7.683 36.283-30.158 34.955-53.517 16.394-10.548 27.378-28.788 27.817-49.587zm-128.509-28.444-1.593-6.624c-2.546-10.591-10.242-18.949-20.586-22.359l-8.91-2.938c-1.213-.399-1.72-1.318-1.914-1.83s-.424-1.535.218-2.639l2.772-4.768c1.348-2.316 3.849-3.754 6.526-3.754h81.609c2.678 0 5.179 1.438 6.525 3.753l2.774 4.771c.641 1.102.411 2.125.217 2.637s-.701 1.431-1.914 1.83l-8.909 2.938c-10.345 3.41-18.041 11.769-20.587 22.359l-1.593 6.624-9.818 7.855v-31.455c0-4.142-3.357-7.5-7.5-7.5s-7.5 3.358-7.5 7.5v31.455zm17.318 81.268c-5.749 0-11.309-1.612-16.109-4.555 2.866-2.013 5.587-4.273 8.114-6.801l7.995-7.994 7.994 7.994c2.528 2.528 5.25 4.789 8.116 6.802-4.799 2.943-10.359 4.554-16.11 4.554z"/><path d="m196.264 237.853c-2.891-2.963-7.638-3.026-10.606-.134-9.892 9.646-18.224 20.711-24.763 32.89-1.96 3.649-.59 8.196 3.06 10.156 1.129.606 2.344.894 3.541.894 2.674 0 5.261-1.433 6.614-3.954 5.815-10.83 13.224-20.669 22.021-29.247 2.964-2.891 3.024-7.64.133-10.605z"/><path d="m328.53 386.341c4.143 0 7.5-3.358 7.5-7.5s-3.357-7.5-7.5-7.5h-.01c-4.142 0-7.495 3.358-7.495 7.5s3.364 7.5 7.505 7.5z"/><path d="m176.004 378.841c0 4.142 3.363 7.5 7.505 7.5 4.143 0 7.5-3.358 7.5-7.5s-3.357-7.5-7.5-7.5h-.01c-4.142 0-7.495 3.358-7.495 7.5z"/><path d="m255.998 249.963h.078c4.143-.042 7.466-3.434 7.424-7.576l-.48-47.06c-.042-4.116-3.392-7.423-7.498-7.423-.026 0-.053 0-.078 0-4.143.042-7.466 3.434-7.424 7.576l.48 47.06c.042 4.115 3.392 7.423 7.498 7.423z"/><path d="m164 194c-4.143 0-7.5 3.358-7.5 7.5v25c0 4.142 3.357 7.5 7.5 7.5s7.5-3.358 7.5-7.5v-25c0-4.142-3.357-7.5-7.5-7.5z"/><path d="m355.5 226.5v-25c0-4.142-3.357-7.5-7.5-7.5s-7.5 3.358-7.5 7.5v25c0 4.142 3.357 7.5 7.5 7.5s7.5-3.358 7.5-7.5z"/><path d="m88.257 463.805c-10.456-22.513-22.921-61.55-22.921-119.676 0-3.112-1.921-5.9-4.829-7.008-2.908-1.109-6.197-.306-8.269 2.017-7.924 8.885-14.397 18.229-19.357 27.923-4.718-12.255-7.101-25.753-7.101-40.311-.024-18.505 4.065-37.685 12.28-55.287 2.672-5.701 15.578-47.285 7.758-65.291-.826-1.904-2.405-3.38-4.36-4.077-1.954-.696-4.11-.553-5.956.399l-18.562 9.572c-1.289-7.587-1.94-15.312-1.94-23.066-.045-12.632 2.057-28.001 6.482-41.673 12.251-38.27 46.117-75.072 54.632-79.755 2.755-1.515 4.272-4.588 3.801-7.697-.472-3.108-2.832-5.593-5.912-6.223-1.284-.263-7.918-1.574-15.589-2.264 25.146-23.304 58.148-36.388 92.897-36.388 17.121 0 33.816 3.123 49.621 9.28 35.512 13.837 74.625 13.837 110.137 0 15.805-6.158 32.5-9.28 49.621-9.28 34.935 0 68.106 13.226 93.302 36.765-7.659.586-14.388 1.624-15.67 1.828-2.882.458-5.236 2.547-6.035 5.354s.104 5.822 2.312 7.729c1.966 1.698 19.672 17.268 35.744 40.807 2.337 3.421 7.002 4.301 10.424 1.965 3.421-2.335 4.3-7.002 1.965-10.423-9.34-13.678-19.079-24.738-26.479-32.374 5.479-.381 10.732-.454 13.865.152 3.109.599 6.269-.82 7.881-3.55 1.612-2.731 1.333-6.18-.697-8.616-28.948-34.722-71.451-54.637-116.613-54.637-18.992 0-37.52 3.467-55.066 10.304-32 12.469-67.246 12.469-99.246 0-17.547-6.837-36.074-10.304-55.066-10.304-45.162 0-87.665 19.915-116.612 54.638-2.113 2.535-2.321 6.154-.511 8.915s5.214 4.011 8.379 3.085c2.801-.82 7.49-.848 12.488-.482-15.96 16.368-38.162 46.307-47.856 76.592-4.542 14.146-7.172 30.095-7.199 46.252 0 12.186 1.451 24.311 4.313 36.039.545 2.233 2.084 4.093 4.176 5.046 2.091.953 4.506.896 6.548-.159l18.31-9.442c.145 14.351-5.824 38.12-8.864 44.605-8.599 18.115-13.771 40.3-13.702 61.662 0 23.214 5.424 44.174 16.12 62.3 1.495 2.533 4.34 3.956 7.258 3.646 2.926-.314 5.397-2.309 6.321-5.101 2.472-7.468 5.955-14.784 10.414-21.887 5.395 102.341 48.112 142.562 50.048 144.33 1.436 1.312 3.24 1.958 5.041 1.958 2.023 0 4.041-.817 5.521-2.424 2.799-3.038 2.604-7.776-.422-10.587-.114-.108-11.54-10.884-22.825-35.181z"/><path d="m510.96 171.237c-1.607-13.241-4.811-26.603-10.518-40.221-1.611-3.816-6.012-5.602-9.826-3.993-3.816 1.611-5.604 6.011-3.992 9.827 6.579 15.575 10.336 33.627 10.376 52.15 0 7.754-.651 15.479-1.94 23.067l-18.562-9.572c-1.845-.952-4.003-1.095-5.956-.399-1.955.697-3.534 2.173-4.36 4.077-7.82 18.006 5.086 59.589 7.762 65.3 7.622 16.025 12.359 36.141 12.276 55.278 0 14.995-2.53 28.862-7.54 41.41-4.833-9.697-11.18-19.056-18.972-27.961-2.059-2.352-5.358-3.182-8.282-2.082-2.925 1.099-4.862 3.896-4.862 7.021 0 57.129-12.45 95.956-22.895 118.468-11.272 24.295-22.687 35.316-22.815 35.439-3.004 2.833-3.152 7.564-.328 10.581 1.477 1.577 3.474 2.374 5.477 2.374 1.836 0 3.678-.671 5.124-2.025 1.925-1.802 44.3-42.646 49.842-142.883 4.241 6.981 7.545 14.163 9.877 21.485.893 2.802 3.34 4.824 6.26 5.172 2.914.351 5.773-1.042 7.299-3.557 11.158-18.392 16.816-39.737 16.816-63.443.043-20.665-4.593-42.195-13.698-61.652-3.043-6.493-9.013-30.263-8.868-44.614l18.31 9.442c2.041 1.054 4.456 1.113 6.548.159s3.631-2.813 4.176-5.046c2.86-11.728 4.311-23.853 4.311-36.039 0-5.995-.351-11.98-1.04-17.763z"/></g></g></svg>