<svg enable-background="new 0 0 512 512" viewBox="0 0 512 512" xmlns="http://www.w3.org/2000/svg"><g id="_x30_2_x2C__lion_x2C__mammal_x2C__animal_x2C__wildlife_x2C__animal_kingdom_x2C__zoo"><g><path d="m421.54 55.897s82 66.52 61.88 150.07l-34.81-13.93s44.1 88.96 13.15 170.19l-25.26-40.23s12.37 181.53-180.5 181.53-180.5-181.53-180.5-181.53l-25.26 40.23c-30.95-81.23 13.15-170.19 13.15-170.19l-34.81 13.93c-20.12-83.55 61.88-150.07 61.88-150.07h-34.04c49.02-62.23 129.4-49.58 171.64-37.12 18.23 5.37 37.65 5.37 55.88 0 42.24-12.46 122.62-25.11 171.64 37.12h-34.04z" fill="#9a7870"/><path d="m256 338.067-65.89 32.28c11.93 24.33 36.95 41.08 65.89 41.08s53.96-16.75 65.89-41.08z" fill="#f1ccbf"/><path d="m256 338.067c-19.25 19.25-43.09 30.22-65.89 32.28-60.924 5.546-96.054-51.712-67.8-111.07 7.08-14.86 6.68-32.35-1.09-46.87-6.17-11.51-9.68-24.66-9.72-38.62-.14-44.91 36.29-82.05 81.19-82.75 25.24-.39 47.92 10.57 63.31 28.09 15.39-17.52 38.07-28.48 63.31-28.09 44.9.7 81.33 37.84 81.19 82.75-.04 13.96-3.55 27.11-9.72 38.62-7.77 14.52-8.17 32.01-1.09 46.87 28.209 59.262-6.772 116.626-67.8 111.07-22.8-2.06-46.64-13.03-65.89-32.28z" fill="#f7e45b"/><path d="m234.43 297.997-11.19-19.39c-9.59-16.6 2.39-37.36 21.57-37.36h22.38c19.18 0 31.16 20.76 21.57 37.36l-11.19 19.39c-9.573 16.609-33.561 16.619-43.14 0z" fill="#707788"/><g><path d="m440.431 63.398h15.149c6.239 0 9.768-7.219 5.892-12.141-51.538-65.426-134.681-52.939-179.65-39.673-16.893 4.975-34.751 4.976-51.64.001-44.973-13.267-128.116-25.754-179.654 39.671-3.86 4.902-.374 12.141 5.892 12.141h15.149c-37.912 39.281-63.012 91.459-50.281 144.326 1.069 4.437 5.834 6.908 10.078 5.207l18.174-7.272c-18.872 50.334-25.302 109.389-6.309 159.24 2.198 5.77 10.07 6.556 13.36 1.318l12.05-19.191c8.582 96.94 70.996 164.003 187.358 164.003 52.899 0 95.813-13.41 127.552-39.858 3.182-2.651 3.611-7.381.96-10.563-2.651-3.181-7.38-3.611-10.563-.96-28.968 24.14-68.652 36.38-117.948 36.38-120.54 0-179.151-80.782-173.018-173.521.234-3.43-1.895-6.579-5.163-7.643-3.275-1.061-6.844.233-8.671 3.145l-16.708 26.609c-19.373-72.892 17.272-148.448 17.669-149.25 3.047-6.146-3.124-12.85-9.506-10.294l-26.435 10.578c-4.684-29.774 3.31-60.531 23.825-91.557 17.131-25.909 36.997-42.216 37.19-42.374 5.468-4.435 2.327-13.325-4.725-13.325h-17.156c46.456-44.562 114.439-33.694 152.639-22.426 19.665 5.793 40.455 5.792 60.122-.001 38.195-11.266 106.18-22.135 152.636 22.427h-17.159c-7.033 0-10.196 8.873-4.729 13.321.198.162 20.064 16.469 37.195 42.377 20.516 31.026 28.509 61.782 23.825 91.557l-26.435-10.578c-6.351-2.545-12.558 4.118-9.508 10.29.398.807 37.044 76.363 17.671 149.254l-16.708-26.609c-1.825-2.908-5.394-4.205-8.664-3.143-3.268 1.059-5.397 4.206-5.171 7.634.032.477 2.891 48.146-20.09 92.934-1.891 3.686-.437 8.206 3.249 10.097 3.684 1.89 8.205.437 10.097-3.249 14.194-27.664 19.312-55.8 21.059-75.301l12.077 19.235c3.29 5.234 11.159 4.461 13.36-1.318 18.997-49.859 12.559-108.917-6.309-159.24l18.174 7.272c4.238 1.696 9.008-.762 10.078-5.207 12.732-52.867-12.374-105.049-50.28-144.323z"/><path d="m319.426 83.538c-23.746-.377-46.398 8.583-63.426 24.777-25.218-23.985-61.711-31.07-93.512-19.053-3.874 1.464-5.829 5.792-4.364 9.667 1.463 3.875 5.793 5.83 9.667 4.364 28.224-10.665 61.416-3.303 82.574 20.784 2.981 3.394 8.28 3.404 11.27 0 14.557-16.571 35.544-25.862 57.558-25.541 55.722.869 91.413 61.007 64.976 110.333-8.879 16.59-9.346 36.641-1.25 53.632 25.572 53.724-4.895 105.424-60.354 100.377-21.167-1.913-42.025-11.838-59.064-28.003v-17.795c8.595-2.002 15.993-7.414 20.564-15.331l11.194-19.389c12.469-21.594-3.094-48.61-28.064-48.61h-22.389c-24.936 0-40.551 26.985-28.064 48.61l11.194 19.389c4.571 7.917 11.97 13.329 20.564 15.331v17.795c-17.039 16.166-37.897 26.091-59.069 28.004-55.482 5.042-85.908-46.679-60.351-100.376 8.098-16.994 7.631-37.044-1.25-53.639-11.55-21.547-11.874-47.835-.319-69.851 1.925-3.668.513-8.202-3.155-10.126-3.669-1.927-8.202-.512-10.126 3.155-13.96 26.596-13.426 58.155.378 83.904 6.638 12.405 6.986 27.397.93 40.108-29.597 62.184 5.761 124.581 70.219 122.078 14.376 25.287 40.844 40.796 70.244 40.796 29.396 0 55.861-15.505 70.238-40.787 64.141 2.508 99.957-59.621 70.223-122.089-6.055-12.708-5.706-27.701.93-40.101 31.735-59.204-11.091-131.37-77.966-132.413zm-78.5 210.711-11.194-19.389c-6.697-11.6 1.661-26.109 15.074-26.109h22.389c13.394 0 21.781 14.493 15.074 26.109l-11.194 19.389c-6.697 11.599-23.443 11.616-30.149 0zm-38.717 81.85c19.324-3.993 37.94-13.55 53.791-27.715 15.851 14.165 34.468 23.723 53.791 27.715-26.073 37.091-81.488 37.119-107.582 0z"/><path d="m312.25 181.027c-4.143 0-7.5 3.358-7.5 7.5v7.5c0 4.142 3.357 7.5 7.5 7.5s7.5-3.358 7.5-7.5v-7.5c0-4.142-3.357-7.5-7.5-7.5z"/><path d="m207.25 196.027v-7.5c0-4.142-3.357-7.5-7.5-7.5s-7.5 3.358-7.5 7.5v7.5c0 4.142 3.357 7.5 7.5 7.5s7.5-3.357 7.5-7.5z"/><path d="m361.396 300.235c3.708 1.856 8.213.347 10.062-3.354 1.853-3.705.351-8.21-3.354-10.062l-30-15c-3.706-1.854-8.211-.352-10.062 3.354-1.853 3.705-.351 8.21 3.354 10.062z"/><path d="m315.25 302.527c-3.313 2.485-3.985 7.187-1.5 10.5l22.5 30c1.474 1.965 3.726 3 6.006 3 6.073 0 9.744-7.001 5.994-12l-22.5-30c-2.484-3.313-7.186-3.984-10.5-1.5z"/><path d="m173.896 271.819-30 15c-3.704 1.853-5.206 6.357-3.354 10.062 1.839 3.679 6.33 5.218 10.062 3.354l30-15c3.704-1.853 5.206-6.357 3.354-10.062-1.851-3.704-6.354-5.203-10.062-3.354z"/><path d="m186.25 304.027-22.5 30c-2.485 3.313-1.813 8.015 1.5 10.5 3.335 2.5 8.031 1.792 10.5-1.5l22.5-30c2.485-3.313 1.813-8.015-1.5-10.5-3.315-2.484-8.015-1.813-10.5 1.5z"/><circle cx="400.5" cy="444.767" r="7.5"/><circle cx="139.75" cy="112.226" r="7.5"/></g></g></g><g id="Layer_1"/></svg>