<svg id="Fill" viewBox="0 0 64 64" xmlns="http://www.w3.org/2000/svg"><g><path d="m46.774 44.31v11.26c0 1.1-.9 2-2 2h-8.18c-1.11 0-2-.9-2-2v-11.26c3.54-1.73 8.64-1.73 12.18 0z" fill="#f5909f"/><path d="m46.774 40.27v4.04c-3.54-1.73-8.64-1.73-12.18 0v-4.04c0-1.11.89-2 2-2h8.18c1.1 0 2 .89 2 2z" fill="#89d2d7"/><path d="m38.274 16.33h4.82v21.94h-4.82z" fill="#c6c5c9"/><path d="m43.094 6.43v9.9h-4.82c0-10.36 4.82-9.9 4.82-9.9z" fill="#f16263"/><path d="m29.404 49.51v6.06c0 1.1-.89 2-2 2h-8.17c-1.11 0-2-.9-2-2v-6.06c3.53 1.73 8.63 1.73 12.17 0z" fill="#89d2d7"/><path d="m29.404 25.08v24.43c-3.54 1.73-8.64 1.73-12.17 0v-24.43c0-1.07.85-1.95 1.92-2h8.32c1.08.04 1.93.92 1.93 2z" fill="#f5909f"/><path d="m27.474 18.01v5.07h-8.32v-5.07z" fill="#d1edf6"/></g><g><path d="m28.475 22.288v-4.278c0-.553-.447-1-1-1h-8.32c-.553 0-1 .447-1 1v4.284c-1.126.438-1.92 1.516-1.92 2.786v30.49c0 1.654 1.346 3 3 3h8.17c1.654 0 3-1.346 3-3v-30.49c0-1.281-.798-2.361-1.93-2.792zm-9.24 1.792h8.203c.542.02.967.459.967 1v23.759c-3.055 1.273-7.123 1.272-10.17 0v-23.759c0-.536.425-.976 1-1zm7.24-5.07v3.07h-6.32v-3.07zm.93 37.561h-8.17c-.552 0-1-.448-1-1v-4.572c1.582.544 3.33.82 5.081.82s3.503-.276 5.089-.821v4.573c0 .552-.448 1-1 1z"/><path d="m44.775 37.27h-.68v-30.84c0-.516-.392-.946-.905-.995-.153-.017-1.608-.111-3.056 1.205-1.897 1.725-2.859 4.985-2.859 9.69v20.939h-.68c-1.654 0-3 1.346-3 3v15.301c0 1.654 1.346 3 3 3h8.18c1.654 0 3-1.346 3-3v-15.301c0-1.654-1.346-3-3-3zm-3.355-29.094c.236-.225.467-.383.676-.493v7.647h-2.803c.143-4.341 1.216-6.286 2.127-7.154zm-2.145 9.154h2.82v19.939h-2.82zm-2.68 21.939h8.18c.552 0 1 .448 1 1v2.553c-3.171-1.089-7.008-1.089-10.18 0v-2.553c0-.561.439-1 1-1zm8.18 17.301h-8.18c-.552 0-1-.448-1-1v-10.59c3.055-1.271 7.125-1.271 10.18 0v10.591c0 .552-.448 1-1 1z"/></g></svg>