<svg id="Fill" viewBox="0 0 64 64" xmlns="http://www.w3.org/2000/svg"><g><path d="m34.755 52.082h15.21v5.58h-15.21z" fill="#2f4e60"/><path d="m49.965 31.832v20.25h-15.21v-20.25c0-1.11.89-2 2-2h11.21c1.11 0 2 .89 2 2z" fill="#455d6d"/><path d="m29.255 39.762v15.9c0 1.11-.9 2-2 2h-11.22c-1.11 0-2-.89-2-2v-15.9z" fill="#455d6d"/><path d="m29.255 34.182v5.58h-15.22v-5.58h1.61 11.99z" fill="#2f4e60"/><path d="m27.635 26.362v7.82h-11.99v-7.82c0-.62.5-1.12 1.12-1.12h9.76c.61 0 1.11.5 1.11 1.12z" fill="#dce0df"/><path d="m25.385 11.842v13.4h-7.49v-16.95c.06.87.62 1.99 1.87 3.21 2.66 2.42 5.25 2.04 5.59.33z" fill="#d55947"/><path d="m23.515 8.052c1.54 1.5 2.04 2.84 1.84 3.78-.34 1.71-2.93 2.09-5.59-.33-1.25-1.22-1.81-2.34-1.87-3.21-.16-2.17 2.69-2.91 5.62-.24z" fill="#f48781"/></g><g><path d="m29.255 33.182h-.62v-6.82c0-1.169-.946-2.12-2.11-2.12h-.14v-12.4c0-.032-.015-.059-.018-.09.149-1.347-.599-2.902-2.178-4.44-2.36-2.15-4.542-2.262-5.796-1.654-1 .486-1.551 1.463-1.496 2.621 0 .004-.002.008-.002.012v15.95h-.13c-1.169 0-2.12.951-2.12 2.12v6.82h-.609c-.553 0-1 .448-1 1v21.48c0 1.654 1.346 3 3 3h11.22c1.654 0 3-1.346 3-3v-21.48c0-.552-.447-1-1-1zm-14.22 2h13.22v3.58h-13.22zm4.233-27.724c.161-.079.367-.122.608-.122.744 0 1.818.41 2.941 1.432 1.323 1.289 1.673 2.32 1.557 2.869-.032.161-.117.389-.482.51-.657.217-1.952-.018-3.429-1.361-1.349-1.315-1.548-2.231-1.57-2.563 0-.001 0-.002 0-.004-.036-.5.197-.674.376-.761zm-.373 4.58c.066.068.128.136.197.204 1.411 1.284 2.951 1.978 4.311 1.978.342 0 .669-.052.982-.141v10.164h-5.49v-12.206zm-2.25 14.324c0-.067.053-.12.12-.12h9.76c.06 0 .11.055.11.12v6.82h-9.99zm10.61 30.3h-11.22c-.561 0-1-.439-1-1v-14.9h13.22v14.9c0 .551-.448 1-1 1z"/><path d="m47.965 28.832h-11.21c-1.654 0-3 1.346-3 3v25.83c0 .552.447 1 1 1h15.21c.553 0 1-.448 1-1v-25.83c0-1.654-1.346-3-3-3zm-11.21 2h11.21c.561 0 1 .439 1 1v19.25h-13.21v-19.25c0-.561.439-1 1-1zm-1 25.83v-3.58h13.21v3.58z"/></g></svg>