<svg id="Capa_1" enable-background="new 0 0 511.72 511.72" height="512" viewBox="0 0 511.72 511.72" width="512" xmlns="http://www.w3.org/2000/svg"><g><g><path d="m255.961 7.5c-102.936 0-186.383 83.446-186.383 186.383 0 110.256 98.344 219.589 152.159 293.238 16.932 23.173 51.515 23.173 68.447 0 53.816-73.649 152.16-182.982 152.16-293.238 0-102.937-83.446-186.383-186.383-186.383zm0 328.037c-78.233 0-141.654-63.421-141.654-141.654s63.421-141.654 141.654-141.654 141.654 63.421 141.654 141.654-63.42 141.654-141.654 141.654z" fill="#fe646f"/><g fill="#fd4755"><path d="m245.431 52.618c-3.477-.256-6.988-.39-10.53-.39-78.233 0-141.654 63.421-141.654 141.654s63.421 141.654 141.654 141.654c3.542 0 7.053-.134 10.53-.39-73.315-5.388-131.124-66.573-131.124-141.264s57.809-135.876 131.124-141.264z"/><path d="m255.961 7.5c-3.535 0-7.044.108-10.53.302 98.036 5.461 175.853 86.679 175.853 186.081 0 110.256-98.344 219.589-152.159 293.238-6.138 8.4-14.598 13.739-23.693 16.049 15.995 4.063 33.959-1.276 44.754-16.049 53.814-73.649 152.158-182.982 152.158-293.238 0-102.937-83.446-186.383-186.383-186.383z"/></g><path d="m346.215 195.453h-180.507c-3.821 0-6.918-3.097-6.918-6.918v-23.304c0-3.821 3.097-6.918 6.918-6.918h180.507c3.821 0 6.918 3.097 6.918 6.918v23.304c0 3.821-3.098 6.918-6.918 6.918z" fill="#bbe0ff"/><path d="m346.215 158.313h-21.06c3.821 0 6.918 3.097 6.918 6.918v23.304c0 3.821-3.097 6.918-6.918 6.918h21.06c3.821 0 6.918-3.097 6.918-6.918v-23.304c0-3.82-3.098-6.918-6.918-6.918z" fill="#9dc9eb"/><g><path d="m177.647 195.453h31.567v48.052h-31.567z" fill="#7ebae6"/><path d="m240.178 195.453h31.567v48.052h-31.567z" fill="#7ebae6"/><path d="m302.709 195.453h31.567v48.052h-31.567z" fill="#4da6d1"/></g><path d="m349.276 278.683h-186.629l15-35.178h156.629z" fill="#bbe0ff"/><path d="m334.276 243.505h-21.06l15 35.178h21.06z" fill="#9dc9eb"/><path d="m337.727 133.193v25.123h-163.531v-25.028c0-2.555 1.42-4.898 3.682-6.076l73.606-38.322c2.85-1.484 6.242-1.484 9.092-.001l73.467 38.227c2.263 1.177 3.684 3.52 3.684 6.077z" fill="#7ebae6"/><path d="m334.043 127.115-73.467-38.227c-2.85-1.483-6.242-1.483-9.092.001l-5.981 3.114 67.48 35.112c2.263 1.178 3.684 3.521 3.684 6.077v25.123h21.06v-25.123c0-2.556-1.421-4.899-3.684-6.077z" fill="#4da6d1"/></g><g><path d="m442.487 195.108c-4.143-.187-7.647 3.008-7.838 7.146-1.808 39.16-16.072 81.578-43.609 129.676-24.031 41.975-98.892 139.791-106.911 150.765-12.457 18.244-43.046 19.254-56.336 0-8.019-10.974-84.802-111.302-109.186-154.779-27.945-49.827-41.529-93.67-41.529-134.034 0-98.635 80.247-178.882 178.883-178.882 43.075 0 84.691 15.527 117.182 43.722 32.171 27.917 53.369 66.355 59.688 108.235.618 4.095 4.436 6.913 8.535 6.297 4.096-.618 6.915-4.439 6.297-8.535-6.852-45.405-29.826-87.072-64.689-117.326-35.219-30.562-80.326-47.393-127.013-47.393-106.907 0-193.883 86.976-193.883 193.883 0 43.001 14.211 89.245 43.446 141.372 24.906 44.408 102.237 145.452 110.157 156.291 18.082 26.515 61.846 27.281 80.559 0 7.92-10.839 83.289-109.318 107.817-152.162 28.748-50.213 43.656-94.843 45.576-136.438.192-4.137-3.008-7.646-7.146-7.838z"/><path d="m157.691 271.183h-11.315c-15.469-21.865-24.57-48.539-24.57-77.3 0-67.512 50.433-124.735 117.312-133.108 4.11-.515 7.025-4.264 6.51-8.374s-4.264-7.025-8.374-6.51c-74.368 9.31-130.448 72.933-130.448 147.992-.245 81.097 66.412 149.254 149.154 149.154 82.344.006 149.274-67.355 149.154-149.154 0-74.917-55.96-138.524-130.168-147.956-4.116-.525-7.863 2.386-8.386 6.494-.522 4.109 2.385 7.864 6.494 8.386 66.735 8.482 117.06 65.692 117.06 133.076 0 28.761-9.101 55.435-24.57 77.3h-11.315l-12.455-29.21v-39.02c8.62 1.4 18.736-4.28 18.857-14.418v-23.304c.041-7.506-6.946-14.89-15.406-14.418v-17.621c0-5.374-2.959-10.252-7.722-12.73l-73.467-38.227c-5.015-2.608-11.002-2.608-16.017.002l-73.605 38.321c-4.762 2.479-7.72 7.356-7.72 12.729v17.526c-7.156-.538-15.437 5.799-15.406 14.418v23.304c-.141 9.29 9.349 15.815 18.857 14.418v39.02zm98.27 56.854c-38.247 0-72.804-16.09-97.265-41.854h194.53c-24.461 25.764-59.018 41.854-97.265 41.854zm-81.963-56.854 8.604-20.178h146.718l8.604 20.178zm58.68-68.23v33.052h-15.965v-33.052zm62.531 0v33.052h-15.965v-33.052zm-30.965 33.052h-16.566v-33.052h16.566zm62.532 0h-16.566v-33.052h16.566zm-160.486-70.192h27.14c4.142 0 7.5-3.358 7.5-7.5s-3.358-7.5-7.5-7.5h-11.734v-17.133l73.251-38.138c.679-.353 1.489-.353 2.167 0l73.113 38.043v17.229h-100.51c-4.142 0-7.5 3.358-7.5 7.5s3.358 7.5 7.5 7.5h115.916v22.14h-179.343zm35.423 37.14v33.052h-16.566v-33.052z"/><path d="m274.353 299.681h-34.175c-4.142 0-7.5 3.358-7.5 7.5s3.358 7.5 7.5 7.5h34.175c4.142 0 7.5-3.358 7.5-7.5s-3.358-7.5-7.5-7.5z"/><ellipse cx="257.265" cy="124.474" rx="7.613" ry="7.613" transform="matrix(.987 -.16 .16 .987 -16.617 42.817)"/></g></g></svg>