<svg height="512" viewBox="0 0 48 48" width="512" xmlns="http://www.w3.org/2000/svg"><g id="Line"><path d="m24 2c-7.72 0-14 6.28-14 14 0 13.203 12.684 28.966 13.224 29.63.376.486 1.176.489 1.552 0 .54-.664 13.224-16.427 13.224-29.63 0-7.72-6.28-14-14-14z" fill="#e26667"/><g fill="#f2f2f2"><path d="m29 20h-10c-1.305.005-1.31 1.994 0 2h10c1.305-.005 1.31-1.994 0-2z"/><path d="m22 19c1.371-.001 3.285.223 4.22-1h1.28c1.378 0 2.5-1.122 2.5-2.5.012-1.607-1.463-2.688-3-2.5 0-.552-.448-1-1-1h-6c-.552 0-1 .448-1 1v3c0 1.654 1.346 3 3 3zm5.5-4c.654.003.654.997 0 1h-.5v-1z"/></g><path d="m24 46c1.224.065 13.864-16.882 14-30 0-7.72-6.28-14-14-14s-14 6.28-14 14c.144 13.139 12.752 30.015 14 30zm0-42c6.617 0 12 5.383 12 12 0 10.67-9.23 23.698-12 27.367-2.771-3.668-12-16.689-12-27.367 0-6.617 5.383-12 12-12z"/><path d="m30 21c0-.552-.448-1-1-1h-10c-.552 0-1 .448-1 1s.448 1 1 1h10c.552 0 1-.448 1-1z"/><path d="m22 19c1.371-.001 3.285.223 4.22-1h1.28c1.378 0 2.5-1.122 2.5-2.5.012-1.607-1.463-2.688-3-2.5 0-.552-.448-1-1-1h-6c-.552 0-1 .448-1 1v3c0 1.654 1.346 3 3 3zm5.5-4c.654.003.654.997 0 1h-.5v-1zm-6.5-1h4v2c0 .551-.449 1-1 1h-2c-.551 0-1-.449-1-1z"/></g></svg>