<svg id="Capa_1" enable-background="new 0 0 512 512" height="512" viewBox="0 0 512 512" width="512" xmlns="http://www.w3.org/2000/svg"><g><g><path d="m22.048 491.377c-14.099-14.1-14.099-36.959 0-51.059l169.533-169.533c14.099-14.099 36.959-14.099 51.059 0 14.1 14.099 14.1 36.959 0 51.059l-169.533 169.533c-14.1 14.099-36.959 14.099-51.059 0z" fill="#fef2a8"/><circle cx="326.504" cy="186.921" fill="#ef8bbd" r="174.022"/><path d="m449.557 63.869c-39.993-39.993-94.607-56.44-146.635-49.363 26.204 4.136 51.388 16.291 71.582 36.485 50.79 50.79 50.79 133.138 0 183.928-50.79 50.791-133.138 50.791-183.928 0-20.194-20.194-32.35-45.377-36.486-71.581-7.077 52.028 9.37 106.642 49.363 146.635 67.96 67.96 178.145 67.96 246.104 0 67.959-67.959 67.96-178.145 0-246.104z" fill="#e068bd"/><g fill="#b2e7f1"><path d="m168.765 331.185 8.606 93.821c2.935 32 41.85 46.072 64.573 23.349l43.99-43.99c22.723-22.723 8.651-61.638-23.349-64.573z"/><path d="m182.241 344.66-93.821-8.606c-32-2.935-46.072-41.85-23.349-64.573l43.99-43.99c22.723-22.723 61.638-8.651 64.573 23.349z"/><path d="m155.188 374.962-16.724-16.725c-9.62-9.62-9.62-25.218 0-34.838l22.516-22.516c9.62-9.621 25.218-9.62 34.839 0l16.725 16.724c9.62 9.621 9.62 25.218 0 34.839l-22.516 22.516c-9.622 9.62-25.22 9.62-34.84 0z"/></g></g><g><path d="m231.858 93.054c-2.443 0-4.891-.885-6.825-2.676-4.071-3.771-4.316-10.128-.545-14.2.795-.858 1.594-1.712 2.399-2.561 3.819-4.028 10.178-4.198 14.206-.379 4.027 3.818 4.197 10.178.379 14.206-.751.792-1.497 1.589-2.239 2.39-1.98 2.137-4.674 3.22-7.375 3.22z" fill="#fff"/><path d="m189.749 162.738c-.99 0-1.996-.147-2.991-.457-5.298-1.65-8.256-7.283-6.606-12.582 4.214-13.53 10.312-26.817 18.125-39.493 2.911-4.724 9.101-6.195 13.826-3.281 4.725 2.912 6.193 9.102 3.281 13.826-6.932 11.246-12.33 22.996-16.046 34.924-1.338 4.303-5.307 7.063-9.589 7.063z" fill="#fff"/><path d="m456.662 56.764c-34.766-34.767-80.991-53.914-130.158-53.914-49.164 0-95.393 19.148-130.158 53.913-34.766 34.767-53.913 80.991-53.913 130.158 0 6.733.374 13.407 1.087 20.007-15.086-2.504-30.415 2.309-41.565 13.457l-43.99 43.99c-13.298 13.298-17.586 32.545-11.191 50.23 6.394 17.685 22 29.738 40.727 31.455l13.368 1.226-85.927 85.927c-8.716 8.717-13.517 20.307-13.517 32.635s4.801 23.918 13.518 32.635c8.717 8.716 20.307 13.517 32.634 13.517 12.328 0 23.918-4.801 32.635-13.518l85.926-85.927 1.226 13.368c1.717 18.727 13.77 34.332 31.455 40.727 5.424 1.961 10.993 2.917 16.495 2.917 12.435 0 24.516-4.889 33.735-14.108l43.99-43.99c11.173-11.173 15.983-26.547 13.441-41.665 6.653.726 13.337 1.101 20.023 1.101 47.137 0 94.273-17.942 130.158-53.827 34.766-34.766 53.913-80.99 53.913-130.157s-19.146-95.391-53.912-130.157zm-273.741 311.093c-5.688 5.688-14.941 5.688-20.629 0l-16.724-16.725c-5.688-5.687-5.688-14.941 0-20.628l22.516-22.516c5.687-5.688 14.941-5.687 20.628-.001l16.724 16.725c2.755 2.755 4.272 6.418 4.272 10.314s-1.517 7.558-4.272 10.314zm-117.247-60.086c-3.772-10.432-1.341-21.342 6.502-29.185l43.99-43.99c5.41-5.411 12.28-8.246 19.446-8.246 3.222 0 6.504.573 9.739 1.743 10.431 3.772 17.263 12.618 18.277 23.664l3.106 33.863c-4.782 1.703-9.165 4.461-12.86 8.157l-22.516 22.516c-3.695 3.696-6.453 8.079-8.156 12.861l-33.864-3.107c-11.046-1.013-19.893-7.845-23.664-18.276zm.328 176.5c-10.158 10.16-26.69 10.159-36.848 0-.001 0-.001 0-.001 0-4.921-4.921-7.631-11.464-7.631-18.424s2.71-13.503 7.632-18.424l94.295-94.295c1.717 4.529 4.382 8.686 7.909 12.214l16.724 16.725c0 .001.001.001.001.001 3.585 3.585 7.769 6.209 12.229 7.893zm212.827-87.012-43.99 43.99c-7.843 7.845-18.755 10.274-29.185 6.503-10.431-3.772-17.264-12.618-18.277-23.664l-3.109-33.888c4.699-1.67 9.108-4.378 12.863-8.132l22.516-22.516c3.696-3.695 6.454-8.078 8.157-12.86l33.864 3.106c11.046 1.014 19.892 7.846 23.664 18.277 3.772 10.43 1.341 21.34-6.503 29.184zm163.623-94.391c-39.464 39.464-94.203 54.553-145.36 45.296-7.975-10.394-19.951-17.129-33.587-18.38l-34.724-3.185c-1.501-6.041-4.617-11.582-9.132-16.097l-16.724-16.725c-4.516-4.515-10.057-7.631-16.098-9.132l-3.185-34.724c-1.255-13.688-8.037-25.703-18.499-33.678-1.723-9.58-2.611-19.383-2.611-29.323 0-43.799 17.056-84.976 48.027-115.947 30.971-30.97 72.148-48.027 115.947-48.027s84.977 17.056 115.947 48.027c19.258 19.258 33.131 42.463 40.874 67.79-27.701-47.083-78.901-78.755-137.367-78.755-75.145 0-136.281 61.136-136.281 136.282 0 64.372 52.371 116.743 116.743 116.743 55.215 0 100.136-44.921 100.136-100.136 0-47.432-38.588-86.02-86.02-86.02-40.816 0-74.021 33.206-74.021 74.021 0 35.192 28.63 63.823 63.822 63.823 30.412 0 55.153-24.742 55.153-55.153 0-26.349-21.436-47.785-47.785-47.785-3.329 0-6.029 2.699-6.029 6.029 0 3.329 2.699 6.029 6.029 6.029 19.7 0 35.727 16.027 35.727 35.727 0 23.763-19.332 43.095-43.095 43.095-28.543 0-51.764-23.221-51.764-51.764 0-34.167 27.797-61.963 61.964-61.963 40.782 0 73.962 33.179 73.962 73.962 0 48.566-39.512 88.078-88.078 88.078-57.724 0-104.685-46.962-104.685-104.685.001-68.497 55.727-124.223 124.223-124.223 71.497 0 131.242 51.238 144.47 118.921-1.024 42.275-17.97 81.869-47.979 111.879z" fill="#440a29"/></g><g><path d="m42.892 47.619 8.254 23.209c.353.994 1.053 1.781 1.936 2.179l20.621 9.29c2.913 1.313 2.913 5.954 0 7.267l-20.621 9.29c-.883.398-1.582 1.185-1.936 2.179l-8.254 23.209c-1.166 3.279-5.29 3.279-6.456 0l-8.254-23.209c-.353-.994-1.053-1.781-1.936-2.179l-20.621-9.29c-2.913-1.313-2.913-5.954 0-7.267l20.621-9.29c.883-.398 1.583-1.185 1.936-2.179l8.254-23.209c1.166-3.279 5.29-3.279 6.456 0z" fill="#f7c4db"/><path d="m141.964 1.824 6.123 17.216c.262.737.781 1.321 1.436 1.616l15.296 6.891c2.161.974 2.161 4.417 0 5.39l-15.296 6.891c-.655.295-1.174.879-1.436 1.616l-6.123 17.216c-.865 2.432-3.924 2.432-4.789 0l-6.123-17.216c-.262-.737-.781-1.321-1.436-1.616l-15.296-6.891c-2.161-.974-2.161-4.417 0-5.39l15.296-6.891c.655-.295 1.174-.879 1.436-1.616l6.123-17.216c.865-2.432 3.924-2.432 4.789 0z" fill="#f7c4db"/><ellipse cx="84.329" cy="162.2" fill="#ef8bbd" rx="18.023" ry="18.023" transform="matrix(.159 -.987 .987 .159 -89.232 219.616)"/></g></g></svg>