<svg id="Layer_2" enable-background="new 0 0 64 64" viewBox="0 0 64 64" xmlns="http://www.w3.org/2000/svg"><g><ellipse cx="38.99" cy="24.74" fill="#dafff7" rx="21.7" ry="21.7" transform="matrix(.707 -.707 .707 .707 -6.077 34.816)"/><path d="m14.47 46.62-10.5 10.49c-.88.88-.88 2.3 0 3.18.88.88 2.3.88 3.18 0l18.47-18.47c-1.18-.93-2.27-1.97-3.24-3.12l-2.31 2.31z" fill="#ffc68d"/><path d="m10.86 49.75s2.32-10.54-2.02-11.02-3.52 6.13 2.02 11.02z" fill="#ffeba8"/><path d="m14 54.17s9.79 4.54 11.2.4c1.41-4.13-5.23-4.75-11.2-.4z" fill="#ffeba8"/><path d="m38.99 47.44c-12.51 0-22.7-10.18-22.7-22.7s10.18-22.7 22.7-22.7c12.51 0 22.7 10.18 22.7 22.7s-10.19 22.7-22.7 22.7zm0-43.39c-11.41 0-20.7 9.28-20.7 20.7s9.28 20.7 20.7 20.7 20.7-9.28 20.7-20.7-9.29-20.7-20.7-20.7z"/><path d="m38.09 42c-4.48 0-8.95-1.63-12.32-4.8-.4-.38-.42-1.01-.04-1.41s1.01-.42 1.41-.04c5.24 4.92 13.44 5.67 19.51 1.79 3.93-2.52 6.5-6.41 7.23-10.97.73-4.5-.5-9.11-3.36-12.65-.82-1.01-1.76-1.92-2.79-2.7-6.26-4.75-13.05-2.69-17.01 1.46-4.01 4.2-5.78 11.17-.68 17.27l.25.29c.36.42.32 1.05-.1 1.41s-1.05.32-1.41-.1l-.27-.32c-5.85-7.01-3.7-15.25.78-19.93 4.57-4.79 12.43-7.16 19.67-1.67 1.16.88 2.21 1.9 3.13 3.04 3.22 3.98 4.6 9.17 3.78 14.23-.83 5.13-3.72 9.51-8.13 12.34-2.94 1.84-6.3 2.76-9.65 2.76z"/><path d="m38.07 35.93c-3.49 0-6.95-1.52-9.31-4.43-.35-.43-.28-1.06.15-1.41s1.06-.28 1.41.15c3.45 4.27 9.73 4.93 14 1.48 1.45-1.17 2.53-2.71 3.14-4.46 1.01-2.89.51-6.16-1.33-8.76-1.68-2.38-4.2-3.75-6.92-3.77-.01 0-.02 0-.02 0-2.22 0-5.47 1.84-6.8 4.61-1.14 2.37-.64 4.98 1.44 7.55.35.43.28 1.06-.15 1.41s-1.06.28-1.41-.15c-2.56-3.17-3.16-6.61-1.68-9.68 1.71-3.55 5.79-5.74 8.6-5.74h.03c3.37.02 6.48 1.7 8.54 4.62 2.21 3.13 2.8 7.08 1.58 10.57-.73 2.1-2.04 3.95-3.77 5.35-2.21 1.79-4.86 2.66-7.5 2.66z"/><path d="m37.82 30.8c-.25 0-.51-.01-.76-.04-1.89-.2-3.59-1.12-4.79-2.6-.35-.43-.28-1.06.15-1.41s1.06-.28 1.41.15c.86 1.06 2.08 1.73 3.44 1.87 1.35.14 2.69-.25 3.76-1.11 1-.8 1.22-2.67.49-3.99-.43-.77-1.31-1.57-3.06-.96-.52.18-1.09-.09-1.27-.62-.19-.52.09-1.09.61-1.27 2.29-.8 4.38-.08 5.47 1.88 1.21 2.18.77 5.1-.98 6.52-1.28 1.03-2.85 1.58-4.47 1.58z"/><path d="m5.57 61.95c-.83 0-1.66-.32-2.3-.95-.61-.61-.95-1.43-.95-2.3s.34-1.68.95-2.3l10.5-10.5c.39-.39 1.02-.39 1.41 0s.39 1.02 0 1.41l-10.5 10.5c-.24.24-.37.55-.37.88s.13.65.37.88c.49.49 1.28.49 1.77 0l17.69-17.67c-.63-.55-1.23-1.13-1.8-1.74l-1.56 1.56c-.39.39-1.02.39-1.41 0s-.39-1.02 0-1.41l2.31-2.31c.2-.2.47-.3.75-.29s.54.14.72.36c.92 1.09 1.96 2.09 3.09 2.98.23.18.36.44.38.73s-.09.57-.29.77l-18.47 18.45c-.63.63-1.46.95-2.29.95z"/><path d="m16.86 45.22c-.26 0-.52-.1-.71-.29-.18-.19-.29-.44-.29-.71 0-.26.11-.52.29-.7.37-.37 1.05-.38 1.42 0 .18.18.29.44.29.7 0 .27-.11.52-.29.71-.19.19-.44.29-.71.29z"/><path d="m10.86 50.75c-.24 0-.48-.09-.66-.25-3.95-3.49-6.01-8.2-4.78-10.96.58-1.33 1.88-1.99 3.53-1.81.97.11 1.79.59 2.37 1.41 2.15 3.01.69 10.03.52 10.82-.08.35-.33.63-.67.74-.1.03-.21.05-.31.05zm-2.46-11.05c-.88 0-1.08.46-1.16.65-.57 1.28.22 4.36 2.96 7.35.34-2.42.55-5.91-.51-7.4-.26-.36-.56-.54-.96-.59-.12 0-.23-.01-.33-.01z"/><path d="m21.96 57.31c-3.45 0-7.79-1.96-8.38-2.23-.32-.15-.54-.46-.57-.81-.04-.35.12-.7.41-.91 4.26-3.1 9.3-4.1 11.73-2.31 1.17.86 1.54 2.26 1 3.84-.31.92-.97 1.62-1.89 2.01-.67.29-1.46.41-2.3.41zm-5.82-3.34c2.28.86 5.66 1.81 7.33 1.1.4-.17.65-.43.78-.82.37-1.1-.11-1.45-.29-1.59-1.13-.83-4.3-.72-7.82 1.31z"/></g></svg>