<svg height="512" viewBox="0 0 128 128" width="512" xmlns="http://www.w3.org/2000/svg"><g><g><g fill="#0e49b5"><path d="m41.489 33.6a1.75 1.75 0 0 1 -1.237-2.987l3.462-3.463a1.75 1.75 0 0 1 2.475 2.475l-3.463 3.463a1.744 1.744 0 0 1 -1.237.512z"/><path d="m27.935 47.158a1.75 1.75 0 0 1 -1.235-2.987l3.463-3.462a1.749 1.749 0 1 1 2.474 2.474l-3.462 3.463a1.744 1.744 0 0 1 -1.24.512z"/><path d="m96.039 88.154a1.75 1.75 0 0 1 -1.239-2.987l3.465-3.467a1.75 1.75 0 1 1 2.474 2.475l-3.462 3.462a1.745 1.745 0 0 1 -1.238.517z"/><path d="m82.485 101.709a1.751 1.751 0 0 1 -1.237-2.988l3.462-3.462a1.75 1.75 0 0 1 2.475 2.475l-3.463 3.466a1.743 1.743 0 0 1 -1.237.509z"/></g><path d="m90.155 76.451 1.086-2.6a4.761 4.761 0 0 0 -1.026-5.2l-31.5-31.5a4.759 4.759 0 0 0 -5.2-1.026l-2.6 1.085a4.639 4.639 0 0 1 -5.069-1l-7.191-7.19a7.136 7.136 0 0 0 -10.092 0 7.136 7.136 0 0 0 0 10.092l7.192 7.188a4.639 4.639 0 0 1 1 5.069l-1.085 2.6a4.759 4.759 0 0 0 1.026 5.2l31.5 31.5a4.761 4.761 0 0 0 5.204 1.031l2.6-1.086a4.637 4.637 0 0 1 5.069 1l7.186 7.186a7.136 7.136 0 0 0 10.092 0 7.138 7.138 0 0 0 0-10.092l-7.192-7.188a4.637 4.637 0 0 1 -1-5.069z" fill="#fd3a69"/><rect fill="#fecd1a" height="7.818" rx="2.383" transform="matrix(.707 .707 -.707 .707 32.097 -26.234)" width="14.51" x="40.461" y="21.719"/><rect fill="#fecd1a" height="7.818" rx="2.383" transform="matrix(-.707 -.707 .707 -.707 8.906 100.034)" width="14.51" x="17.916" y="44.264"/><rect fill="#fecd1a" height="7.818" rx="2.383" transform="matrix(.707 .707 -.707 .707 86.647 -48.829)" width="14.51" x="95.011" y="76.269"/><rect fill="#fecd1a" height="7.818" rx="2.383" transform="matrix(-.707 -.707 .707 -.707 63.456 231.73)" width="14.51" x="72.466" y="98.814"/><path d="m54.584 77.312-13.284-13.284 31.552-12.488 13.284 13.284z" fill="#9d0191"/></g><g fill="#282d66"><path d="m63.981 44.9a1.751 1.751 0 0 0 2.5-2.455l-.446-.453a1.75 1.75 0 0 0 -2.5 2.455z"/><path d="m109.706 79.638-6.891-6.89a4.137 4.137 0 0 0 -5.844 0l-2.158 2.158a4.137 4.137 0 0 0 0 5.845l2.207 2.207-.987.988-3.647-3.646a2.881 2.881 0 0 1 -.623-3.157l1.086-2.6a6.489 6.489 0 0 0 -1.4-7.114l-19.3-19.3a1.75 1.75 0 0 0 -2.483 2.471l.238.238-7.847 3.106a1.75 1.75 0 0 0 1.288 3.256l9.075-3.592 10.588 10.586-27.826 11.014-10.582-10.588 6.044-2.393a1.749 1.749 0 1 0 -1.288-3.253l-7.456 2.95-3.972-3.973a3 3 0 0 1 -.649-3.289l1.085-2.6a6.365 6.365 0 0 0 -1.377-6.982l-7.192-7.192a5.386 5.386 0 1 1 7.618-7.617l7.187 7.194a6.366 6.366 0 0 0 6.982 1.378l2.6-1.086a3 3 0 0 1 3.29.649 1.75 1.75 0 0 0 2.474-2.475 6.486 6.486 0 0 0 -7.113-1.4l-2.6 1.085a2.88 2.88 0 0 1 -3.157-.622l-3.12-3.12.988-.988 2.208 2.207a4.137 4.137 0 0 0 5.845 0l2.157-2.157a4.137 4.137 0 0 0 0-5.845l-6.888-6.891a4.134 4.134 0 0 0 -5.845 0l-2.158 2.158a4.137 4.137 0 0 0 0 5.845l2.208 2.207-.988.988-1.6-1.6a8.886 8.886 0 1 0 -12.564 12.568l1.6 1.6-.988.988-2.211-2.211a4.137 4.137 0 0 0 -5.844 0l-2.158 2.157a4.137 4.137 0 0 0 0 5.845l6.889 6.89a4.138 4.138 0 0 0 5.846 0l2.157-2.158a4.137 4.137 0 0 0 0-5.845l-2.21-2.207.988-.987 3.12 3.12a2.877 2.877 0 0 1 .622 3.156l-1.086 2.6a6.49 6.49 0 0 0 1.4 7.114l4.2 4.2a1.722 1.722 0 0 0 .4.654l13.296 13.284a1.752 1.752 0 0 0 .658.408l12.953 12.952a6.489 6.489 0 0 0 7.114 1.4l2.6-1.086a2.877 2.877 0 0 1 3.156.623l3.647 3.647-.988.988-2.21-2.205a4.133 4.133 0 0 0 -5.844 0l-2.158 2.158a4.134 4.134 0 0 0 0 5.845l6.89 6.889a4.136 4.136 0 0 0 5.844 0l2.158-2.157a4.137 4.137 0 0 0 0-5.845l-2.207-2.207.988-.988 1.07 1.07a8.886 8.886 0 1 0 12.566-12.567l-1.07-1.07.988-.988 2.208 2.208a4.137 4.137 0 0 0 5.845 0l2.158-2.158a4.139 4.139 0 0 0 0-5.845zm-66.969-56.807 2.163-2.158a.634.634 0 0 1 .895 0l6.89 6.89a.634.634 0 0 1 0 .895l-2.158 2.158a.635.635 0 0 1 -.9 0l-3.443-3.444-3.444-3.444a.634.634 0 0 1 0-.895zm-12.601 28.169-2.158 2.158a.635.635 0 0 1 -.9 0l-6.89-6.89a.634.634 0 0 1 0-.9l2.158-2.158a.635.635 0 0 1 .9 0l6.89 6.889a.635.635 0 0 1 0 .9zm54.549 54.55-2.157 2.158a.635.635 0 0 1 -.9 0l-6.889-6.89a.634.634 0 0 1 0-.895l2.161-2.155a.635.635 0 0 1 .9 0l6.889 6.89a.631.631 0 0 1 0 .895zm12.415-7.967a5.392 5.392 0 0 1 -7.617 0l-7.192-7.192a6.364 6.364 0 0 0 -6.98-1.377l-2.6 1.086a3 3 0 0 1 -3.29-.649l-11.542-11.551 28.006-11.08 3.086 3.086a3 3 0 0 1 .648 3.289l-1.085 2.6a6.367 6.367 0 0 0 1.377 6.982l7.189 7.189a5.385 5.385 0 0 1 0 7.617zm10.129-14.575-2.158 2.158a.635.635 0 0 1 -.9 0l-6.889-6.89a.633.633 0 0 1 0-.9l2.157-2.157a.635.635 0 0 1 .9 0l6.89 6.89a.634.634 0 0 1 0 .895z"/></g></g></svg>