<svg id="Fill" viewBox="0 0 64 64" xmlns="http://www.w3.org/2000/svg"><g><path d="m38.97 9.56v3.3h-3.14v-2.22c0-.6-.48-1.08-1.08-1.08h-14.89v-3.14h15.97c1.74 0 3.14 1.4 3.14 3.14z" fill="#d35889"/><path d="m50.45 54.84c0 1.51-1.23 2.74-2.74 2.74h-19.24c-1.19 0-2.21-.77-2.58-1.83-.11-.29-.16-.59-.16-.91v-1.11c0-.86.4-1.63 1.03-2.14.47-.37 1.07-.6 1.71-.6h2.97c.03 0 .03-.04 0-.05-3.29-.72-2.7-5.36.68-5.37.01-.01 1.78 0 1.78-.01.03-.01.37-.25.81-.72.99-1.04 2.52-3.19 2.51-6.29.1.02.42.08.87.24v.01c1.55.54 4.63 2.19 5.35 6.74 0 .02.01.03.02.03h.8c3.51.06 3.83 4.66.68 5.42h2.77c1.51 0 2.74 1.23 2.74 2.74z" fill="#faf7f5"/><path d="m30.97 13.58v5.07h-10.3v-5.07h3.15 3.99z" fill="#cbcab2"/><path d="m23.82 9.56h3.99v4.02h-3.99z" fill="#f6f5e7"/><path d="m34.71 44.84c-.44.47-.78.71-.81.72 0 .01-1.77 0-1.78.01-3.38.01-3.97 4.65-.68 5.37.03.01.03.05 0 .05h-2.97c-.64 0-1.24.23-1.71.6h-7.91c-1.06 0-1.93-.86-1.93-1.92v-23.03c0-1.59 1.3-2.88 2.89-2.88h12.01c1.6 0 2.89 1.29 2.89 2.88z" fill="#f6f5e7"/><path d="m37.22 38.55c.01 3.1-1.52 5.25-2.51 6.29v-18.2c0-1.59-1.29-2.88-2.89-2.88h-12.01c-1.59 0-2.89 1.29-2.89 2.88v23.03c0 1.06.87 1.92 1.93 1.92h7.91c-.63.51-1.03 1.28-1.03 2.14v1.11c0 .32.05.62.16.91h-9.46c-1.59 0-2.88-1.3-2.88-2.89v-27.09c0-3.93 3.18-7.12 7.12-7.12h10.3c3.93 0 7.12 3.19 7.12 7.12v13.02c-.45-.16-.77-.22-.87-.24z" fill="#dc95c1"/></g><path d="m47.726 49.99c.312-.625.446-1.348.362-2.111-.178-1.615-1.423-3.264-3.818-3.309-.913-3.963-3.549-5.719-5.18-6.446v-12.355c0-4.137-3.114-7.556-7.12-8.051v-4.138c0-.553-.447-1-1-1h-2.16v-2.021h5.94c.047 0 .08.033.08.08v2.221c0 .553.447 1 1 1h3.14c.553 0 1-.447 1-1v-3.301c0-2.282-1.857-4.14-4.14-4.14h-15.97c-.553 0-1 .447-1 1v3.14c0 .553.447 1 1 1h2.96v2.021h-2.15c-.553 0-1 .447-1 1v4.138c-4.006.495-7.12 3.914-7.12 8.051v27.091c0 2.145 1.74 3.89 3.88 3.89h8.837c.664 1.114 1.87 1.83 3.203 1.83h19.24c2.062 0 3.74-1.678 3.74-3.74v-1.109c0-2.058-1.67-3.731-3.725-3.74zm-26.866-42.57h14.97c1.18 0 2.14.96 2.14 2.14v2.301h-1.14v-1.221c0-1.146-.934-2.08-2.08-2.08h-13.89zm3.96 3.14h1.989v2.021h-1.989zm5.149 4.021v3.07h-8.3v-3.07zm-15.419 38.279v-27.09c0-3.374 2.745-6.119 6.12-6.119h10.3c3.375 0 6.12 2.745 6.12 6.119v11.807c-.182.024-.358.081-.504.2-.232.19-.367.476-.366.776.003 1.088-.206 2.035-.51 2.843v-14.756c0-2.14-1.745-3.88-3.89-3.88h-12.011c-2.145 0-3.89 1.74-3.89 3.88v23.03c0 1.61 1.314 2.92 2.93 2.92h6.081c-.119.367-.201.745-.201 1.141v1.02h-8.3c-1.036 0-1.88-.848-1.88-1.89zm13.728-4.921c-.079.744.055 1.447.357 2.051h-.165c-.704 0-1.396.216-2.003.6h-7.617c-.513 0-.93-.413-.93-.92v-23.03c0-1.036.848-1.88 1.89-1.88h12.011c1.042 0 1.89.844 1.89 1.88v17.786c-.055.052-.109.101-.153.139-.086 0-.185 0-.289 0-.47.002-.899-.002-1.15.011v-.006c-2.392.007-3.667 1.751-3.84 3.369zm21.173 6.9c0 .96-.78 1.74-1.74 1.74h-19.241c-.736 0-1.394-.466-1.636-1.16-.003-.008-.006-.015-.009-.022-.064-.171-.096-.354-.096-.558v-1.109c0-.527.24-1.024.649-1.355.314-.248.702-.385 1.091-.385h2.97c.492 0 .934-.376 1.011-.862.082-.522-.28-1.051-.797-1.164-1.139-.25-1.463-1.1-1.387-1.812.077-.728.61-1.577 1.856-1.581.025 0 .05 0 .075-.003.087-.002.307-.003.558-.003.521 0 1.059.016 1.442-.079l.008.026c.064-.021.133-.055.205-.097.108-.047.2-.108.275-.189.316-.246.63-.57.748-.696.906-.952 2.344-2.858 2.702-5.642 1.507.623 3.736 2.151 4.315 5.809.078.483.509.874 1.008.874h.783c1.247.021 1.777.803 1.857 1.527.084.769-.314 1.66-1.396 1.921-.492.118-.818.587-.759 1.09s.486.882.993.882h2.771c.96 0 1.74.78 1.74 1.74v1.109z"/></svg>