<svg id="Capa_1" enable-background="new 0 0 512 512" viewBox="0 0 512 512" xmlns="http://www.w3.org/2000/svg"><g><g><g><g><path d="m117.983 308c16.929 0 32.479 7.774 42.662 21.331l.799 1.064.8-1.064c7.896-10.513 19.306-17.717 32.126-20.286l.86-.173-.059-.875c-.089-1.33-.131-2.414-.131-3.412 0-11.875 3.905-22.852 10.493-31.724-9.865-13.685-25.931-22.603-44.089-22.603-30.004 0-54.327 24.323-54.327 54.327 0 1.513.078 3.007.199 4.488 3.449-.702 7.015-1.073 10.667-1.073z" fill="#f6a96c"/><path d="m151.452 319.797c3.391 2.749 6.486 5.93 9.193 9.534l.799 1.064.8-1.064c7.896-10.513 19.306-17.717 32.126-20.286l.86-.173-.059-.875c-.089-1.33-.131-2.414-.131-3.412 0-11.877 3.906-22.857 10.497-31.73-6.464-8.96-15.592-15.871-26.224-19.574 1.879 5.506 2.913 11.404 2.913 17.546.001 21.566-12.564 40.196-30.774 48.97z" fill="#ea9b58"/><path d="m204.906 308c17.918 0 33.787 8.892 43.462 22.484 9.674-13.592 25.544-22.484 43.462-22.484 3.652 0 7.219.371 10.666 1.073.121-1.481.199-2.975.199-4.488 0-30.004-24.323-54.327-54.327-54.327s-54.327 24.323-54.327 54.327c0 1.513.078 3.007.199 4.488 3.448-.702 7.014-1.073 10.666-1.073z" fill="#ffbd86"/><path d="m238.33 319.817c3.814 3.077 7.192 6.669 10.037 10.667 9.675-13.592 25.545-22.484 43.463-22.484 3.652 0 7.219.371 10.666 1.073.121-1.481.199-2.975.199-4.488 0-23.741-15.235-43.913-36.458-51.304 1.879 5.506 2.913 11.404 2.913 17.546 0 21.583-12.586 40.226-30.82 48.99z" fill="#f6a96c"/></g><g><path d="m161.543 392.39-1.036-1.555c-5.841-8.768-8.928-18.971-8.928-29.508 0-11.875 3.905-22.852 10.493-31.724-9.864-13.686-25.93-22.603-44.089-22.603-30.004 0-54.327 24.323-54.327 54.327 0 11.554 3.618 22.258 9.767 31.063z" fill="#fed2a4"/><path d="m161.543 392.39-1.036-1.555c-5.841-8.768-8.928-18.971-8.928-29.508 0-11.877 3.906-22.857 10.497-31.73-6.464-8.96-15.592-15.871-26.224-19.574 1.879 5.506 2.913 11.404 2.913 17.546 0 30.004-24.323 54.327-54.327 54.327-6.262 0-12.271-1.073-17.869-3.022 1.656 4.852 3.984 9.391 6.864 13.517h88.11z" fill="#ffbd86"/><path d="m248.524 392.39c-6.298-8.755-10.022-19.479-10.022-31.062 0-11.875 3.905-22.853 10.493-31.725-9.864-13.686-25.93-22.603-44.089-22.603-30.004 0-54.327 24.323-54.327 54.327 0 11.554 3.618 22.258 9.767 31.063z" fill="#f6a96c"/><path d="m248.524 392.39c-6.298-8.755-10.022-19.479-10.022-31.062 0-11.877 3.906-22.857 10.497-31.73-6.464-8.96-15.592-15.871-26.224-19.574 1.879 5.506 2.913 11.404 2.913 17.546 0 30.004-24.323 54.327-54.327 54.327-6.262 0-12.271-1.073-17.869-3.022 1.656 4.852 3.984 9.391 6.864 13.517h88.168z" fill="#ea9b58"/><path d="m336.389 392.39c6.149-8.805 9.767-19.508 9.767-31.063 0-30.004-24.323-54.327-54.327-54.327s-54.327 24.323-54.327 54.327c0 11.554 3.618 22.258 9.767 31.063z" fill="#ffbd86"/><path d="m336.389 392.39c6.149-8.805 9.767-19.508 9.767-31.063 0-23.741-15.235-43.913-36.458-51.304 1.879 5.506 2.913 11.404 2.913 17.546 0 30.004-24.323 54.327-54.327 54.327-6.262 0-12.271-1.073-17.869-3.022 1.656 4.852 3.984 9.391 6.864 13.517h89.11z" fill="#f6a96c"/></g><path d="m43.097 397.969 34.324 103.11c.68 2.043 2.591 3.421 4.744 3.421h245.484c2.153 0 4.064-1.378 4.744-3.421l34.324-103.11c1.078-3.237-1.332-6.579-4.744-6.579h-314.132c-3.412 0-5.822 3.342-4.744 6.579z" fill="#fff"/><path d="m43.097 397.969 34.324 103.11c.68 2.043 2.591 3.421 4.744 3.421h245.484c2.153 0 4.064-1.378 4.744-3.421l34.324-103.11c1.078-3.237-1.332-6.579-4.744-6.579h-314.132c-3.412 0-5.822 3.342-4.744 6.579z" fill="#fe646f"/><path d="m361.972 391.39h-50.025l-20.118 60.435c-2.04 6.128-7.773 10.262-14.232 10.262h-213.157l12.98 38.992c.68 2.043 2.591 3.421 4.744 3.421h245.484c2.153 0 4.064-1.378 4.744-3.421l34.324-103.11c1.078-3.237-1.332-6.579-4.744-6.579z" fill="#fd4755"/><g><path d="m455.156 59.355h-186.033v28h186.034c7.732 0 14-6.268 14-14-.001-7.731-6.269-14-14.001-14z" fill="#ffbd86"/></g><path d="m183.168 74.355v-29.771c0-12.006-9.733-21.739-21.739-21.739-12.006 0-21.739 9.733-21.739 21.739v29.772h43.478z" fill="#ffd15b"/><path d="m226.645 74.355v-45.116c0-12.006-9.733-21.739-21.739-21.739-12.006 0-21.739 9.733-21.739 21.739v45.117h43.478z" fill="#ffe177"/><g fill="#ffd15b"><path d="m270.123 74.355v-29.771c0-12.006-9.733-21.739-21.739-21.739-12.006 0-21.739 9.733-21.739 21.739v29.772h43.478z"/><path d="m269.123 102.127c0 11.436-9.303 20.739-20.739 20.739h-6.531c2.062.649 4.255 1 6.531 1 12.006 0 21.739-9.733 21.739-21.739v-1.331z"/></g><path d="m270.123 44.584c0-12.006-9.733-21.739-21.739-21.739-.13 0-.258.008-.387.01v50.501h22.126z" fill="#ffc344"/><path d="m139.69 73.355v49.645c0 12.006 9.733 21.739 21.739 21.739h11.739c5.523 0 10 4.477 10 10v46.234c0 12.006 9.733 21.739 21.739 21.739 12.006 0 21.739-9.733 21.739-21.739v-67.106c0-5.523 4.477-10 10-10h11.739c12.006 0 21.739-9.733 21.739-21.739v-28.773z" fill="#fff0ad"/><path d="m247.997 73.355v14.645c0 8.284-6.716 15-15 15h-3.477c-13.807 0-25 11.193-25 25v72.972c0 7.965-4.286 14.926-10.676 18.712 3.241 1.921 7.022 3.027 11.063 3.027 12.006 0 21.739-9.733 21.739-21.739v-67.106c0-5.523 4.477-10 10-10h11.739c12.006 0 21.739-9.733 21.739-21.739v-28.772z" fill="#ffe177"/></g></g><g><path d="m455.156 51.855h-42.16c-4.142 0-7.5 3.357-7.5 7.5s3.358 7.5 7.5 7.5h42.16c3.584 0 6.5 2.916 6.5 6.5s-2.916 6.5-6.5 6.5h-177.533v-13h100.374c4.142 0 7.5-3.357 7.5-7.5s-3.358-7.5-7.5-7.5h-100.374v-7.271c0-16.123-13.117-29.239-29.239-29.239-5.798 0-11.203 1.703-15.753 4.626-3.885-11.592-14.841-19.971-27.725-19.971s-23.839 8.379-27.725 19.971c-4.55-2.923-9.955-4.626-15.753-4.626-16.122 0-29.238 13.116-29.238 29.239v78.416c0 16.122 13.116 29.238 29.238 29.238h11.739c1.378 0 2.5 1.121 2.5 2.5v4.262c0 4.143 3.358 7.5 7.5 7.5s7.5-3.357 7.5-7.5v-4.262c0-9.649-7.851-17.5-17.5-17.5h-11.739c-7.851 0-14.238-6.388-14.238-14.238v-42.145h115.432v21.271c0 7.852-6.388 14.239-14.239 14.239h-11.739c-9.649 0-17.5 7.851-17.5 17.5v67.106c0 7.851-6.388 14.238-14.239 14.238s-14.239-6.388-14.239-14.238v-6.971c0-4.143-3.358-7.5-7.5-7.5s-7.5 3.357-7.5 7.5v6.973c0 16.122 13.116 29.238 29.239 29.238 16.122 0 29.239-13.116 29.239-29.238v-67.106c0-1.379 1.122-2.5 2.5-2.5h11.739c16.122 0 29.239-13.116 29.239-29.239v-7.271h177.534c11.855 0 21.5-9.645 21.5-21.5s-9.645-21.502-21.5-21.502zm-279.488 14h-28.478v-21.271c0-7.852 6.388-14.239 14.239-14.239s14.238 6.388 14.238 14.239v21.271zm43.477 0h-28.478v-36.617c0-7.851 6.388-14.238 14.239-14.238s14.239 6.388 14.239 14.238zm43.478 0h-28.478v-21.271c0-7.852 6.388-14.239 14.239-14.239s14.239 6.388 14.239 14.239z"/><path d="m260.915 287.562c1.464 1.464 3.384 2.196 5.303 2.196s3.839-.732 5.303-2.196c2.929-2.93 2.929-7.678 0-10.607l-3.104-3.104c-2.929-2.928-7.678-2.928-10.606 0-2.929 2.93-2.929 7.678 0 10.607z"/><path d="m232.854 294.933h4.39c4.142 0 7.5-3.357 7.5-7.5s-3.358-7.5-7.5-7.5h-4.39c-4.142 0-7.5 3.357-7.5 7.5s3.357 7.5 7.5 7.5z"/><path d="m281.484 332.792c0 4.143 3.358 7.5 7.5 7.5h4.39c4.142 0 7.5-3.357 7.5-7.5s-3.358-7.5-7.5-7.5h-4.39c-4.142 0-7.5 3.357-7.5 7.5z"/><path d="m271.643 344.953h-4.39c-4.142 0-7.5 3.357-7.5 7.5s3.358 7.5 7.5 7.5h4.39c4.142 0 7.5-3.357 7.5-7.5s-3.358-7.5-7.5-7.5z"/><path d="m310.977 360.344c1.464 1.464 3.384 2.196 5.303 2.196s3.839-.732 5.303-2.196c2.929-2.93 2.929-7.678 0-10.607l-3.104-3.104c-2.929-2.928-7.678-2.928-10.606 0-2.929 2.93-2.929 7.678 0 10.607z"/><path d="m125.486 345.466c1.919 0 3.839-.732 5.303-2.196 2.929-2.93 2.929-7.678 0-10.607l-3.104-3.104c-2.929-2.928-7.678-2.928-10.606 0-2.929 2.93-2.929 7.678 0 10.607l3.104 3.104c1.464 1.463 3.383 2.196 5.303 2.196z"/><path d="m215.642 329.558c-2.929-2.928-7.678-2.928-10.606 0-2.929 2.93-2.929 7.678 0 10.607l3.104 3.104c1.464 1.464 3.384 2.196 5.303 2.196s3.839-.732 5.303-2.196c2.929-2.93 2.929-7.678 0-10.607z"/><path d="m179.166 343.01-3.104 3.104c-2.929 2.93-2.929 7.678 0 10.607 1.464 1.464 3.384 2.196 5.303 2.196s3.839-.732 5.303-2.196l3.104-3.104c2.929-2.93 2.929-7.678 0-10.607-2.928-2.928-7.677-2.928-10.606 0z"/><path d="m99.745 358.791 3.104-3.104c2.929-2.93 2.929-7.678 0-10.607-2.929-2.928-7.678-2.928-10.606 0l-3.104 3.104c-2.929 2.93-2.929 7.678 0 10.607 1.464 1.464 3.384 2.196 5.303 2.196s3.838-.732 5.303-2.196z"/><path d="m164.68 299.979c1.464 1.465 3.383 2.196 5.302 2.196s3.84-.732 5.304-2.197c2.928-2.93 2.928-7.679-.002-10.606l-3.104-3.104c-2.929-2.93-7.678-2.929-10.606.001s-2.928 7.679.002 10.606z"/><path d="m140.878 272.815-3.104 3.104c-2.929 2.93-2.929 7.678 0 10.607 1.464 1.464 3.384 2.196 5.303 2.196s3.839-.732 5.303-2.196l3.104-3.104c2.929-2.93 2.929-7.678 0-10.607-2.928-2.927-7.677-2.927-10.606 0z"/><path d="m361.972 383.89h-12.575c2.802-7.139 4.259-14.769 4.259-22.562 0-27.721-18.338-51.238-43.52-59.06-.431-11.619-4.079-22.425-10.084-31.556l47.908-47.907c2.929-2.93 2.929-7.678 0-10.607-2.928-2.927-7.677-2.929-10.606 0l-47.03 47.029c-11.031-10.211-25.774-16.468-41.956-16.468-16.92 0-32.27 6.837-43.445 17.888-11.506-11.448-26.914-17.888-43.478-17.888-33.318 0-60.549 26.495-61.769 59.521-4.459 1.383-8.765 3.268-12.823 5.638-3.577 2.089-4.784 6.682-2.695 10.259 2.088 3.576 6.681 4.783 10.258 2.694 7.136-4.167 15.285-6.369 23.566-6.369 13.108 0 25.27 5.316 34.096 14.735-5.708 9.361-9 20.349-9 32.092 0 7.793 1.457 15.423 4.259 22.562h-70.383c-3.8-6.889-5.798-14.612-5.798-22.562 0-6.072 1.156-11.996 3.435-17.606 1.559-3.838-.288-8.213-4.125-9.771-3.834-1.56-8.212.288-9.771 4.125-3.012 7.413-4.539 15.236-4.539 23.253 0 7.793 1.457 15.423 4.26 22.562h-12.576c-4.006 0-7.796 1.939-10.139 5.188-2.343 3.25-2.986 7.459-1.721 11.26l34.323 103.108c1.702 5.116 6.469 8.554 11.861 8.554h245.484c5.391 0 10.157-3.437 11.86-8.552l34.324-103.11c1.265-3.801.622-8.01-1.721-11.259-2.342-3.252-6.133-5.191-10.139-5.191zm-23.316-22.563c0 7.949-1.992 15.674-5.791 22.562h-82.072c-3.799-6.889-5.791-14.613-5.791-22.562 0-25.82 21.006-46.827 46.827-46.827s46.827 21.007 46.827 46.827zm-90.288-103.569c24.129 0 44.049 18.346 46.556 41.821-1.025-.051-2.057-.079-3.094-.079-16.92 0-32.27 6.837-43.445 17.888-11.506-11.448-26.915-17.888-43.479-17.888-1.038 0-2.069.028-3.094.079 2.507-23.475 22.427-41.821 46.556-41.821zm-14.106 126.132h-70.385c-3.8-6.889-5.798-14.612-5.798-22.562 0-25.82 21.006-46.827 46.827-46.827 13.108 0 25.271 5.316 34.097 14.734-5.708 9.361-9 20.349-9 32.093-.001 7.793 1.457 15.422 4.259 22.562zm-116.279-84.39c-1.034 0-2.066.034-3.096.086 2.503-23.478 22.425-41.828 46.557-41.828 13.108 0 25.271 5.316 34.096 14.735-5.33 8.742-8.538 18.906-8.941 29.775-9.583 2.977-18.171 8.23-25.138 15.12-11.506-11.448-26.914-17.888-43.478-17.888zm207.863 197.5h-241.879l-32.66-98.11h307.197z"/></g></g><g/><g/><g/><g/><g/><g/><g/><g/><g/><g/><g/><g/><g/><g/><g/></svg>