<svg id="Capa_1" enable-background="new 0 0 512 512" height="512" viewBox="0 0 512 512" width="512" xmlns="http://www.w3.org/2000/svg"><g><g><path d="m174.522 72.17h-10.375l-27.5 20.998-14.25 24.25-4.5 24.5 2.987 30.25s7.513 19.75 8.013 21.25 20.875 22.75 20.875 22.75l9.625 5 15.126.395c30.352-11.237 51.989-40.438 51.989-74.697s-21.638-63.459-51.99-74.696z" fill="#ffb640"/><path d="m122.534 146.867c0-34.259 21.637-63.46 51.989-74.697-8.612-3.188-17.924-4.936-27.644-4.936-43.98 0-79.633 35.653-79.633 79.633s35.653 79.633 79.633 79.633c9.721 0 19.032-1.748 27.644-4.936-30.352-11.238-51.989-40.438-51.989-74.697z" fill="#ffa90f"/><path d="m472.274 413.42c-17.132 7.455-29.118 24.519-29.118 44.395s11.986 36.94 29.118 44.395c18.71-6.085 32.238-23.656 32.238-44.395s-13.528-38.31-32.238-44.395z" fill="#f9f6f6"/><path d="m444.269 457.815c0-19.949 12.517-36.966 30.121-43.65-5.149-1.955-10.729-3.035-16.564-3.035-25.783 0-46.685 20.902-46.685 46.685 0 25.784 20.902 46.685 46.685 46.685 5.835 0 11.415-1.08 16.564-3.035-17.604-6.684-30.121-23.701-30.121-43.65z" fill="#e2d8ec"/><path d="m358.336 266.092c-27.918 10.768-47.736 37.833-47.736 69.548s19.817 58.781 47.736 69.548c29.292-9.549 50.467-37.068 50.467-69.548.001-32.479-21.174-59.999-50.467-69.548z" fill="#8dcafc"/><path d="m311.523 335.64c0-31.801 20.298-58.85 48.64-68.929-7.664-2.726-15.912-4.222-24.511-4.222-19.462 0-37.135 7.615-50.24 20.009l-2.008 6.421-18.008 46.722 13.25 35.278 25.25 17.25 25.058 20.306c2.207.2 4.438.318 6.698.318 8.6 0 16.847-1.496 24.511-4.222-28.342-10.081-48.64-37.13-48.64-68.931z" fill="#31a7fb"/><path d="m313.647 309.043-4.625 15.375v23.875l4.445 4.072c4.588-3.586 10.705-7.005 15.536-11.376 9.641-8.722 10.411-22.501-11.972-33.212z" fill="#23f1a8"/><path d="m382.214 279.219c-6.838 6.271-16.938 18.317-12.377 31.77 6.667 19.667-9.477 28.333 8.428 41.667 12.77 9.51 4.908 21.222 13.977 29.335 10.348-12.619 16.562-28.757 16.562-46.35 0-22.712-10.351-43.005-26.59-56.422z" fill="#23f1a8"/><path d="m501.767 442.023c-4.599-12.795-14.626-22.992-27.304-27.83-6.211 3.454-10.418 10.076-10.418 17.688 0 11.174 9.059 20.233 20.233 20.233 7.474 0 13.985-4.064 17.489-10.091z" fill="#e2d8ec"/><path d="m308.207 367.489c-3.399-6.479-.123-10.916 5.26-15.124-1.257-5.374-1.943-10.967-1.943-16.724 0-9.868 1.966-19.274 5.508-27.864-1.995-.955-4.155-1.888-6.528-2.788-13.852-5.254-21.192-14.384-25.091-22.491-14.1 13.335-22.912 32.204-22.912 53.143 0 38.141 29.195 69.449 66.454 72.833 11.018-20.449-15.699-31.362-20.748-40.985z" fill="#26d192"/></g><g><path d="m154.367 28.906v-21.406c0-4.143-3.357-7.5-7.5-7.5s-7.5 3.357-7.5 7.5v21.406c0 4.143 3.357 7.5 7.5 7.5s7.5-3.357 7.5-7.5z"/><path d="m146.867 257.326c-4.143 0-7.5 3.357-7.5 7.5v21.407c0 4.143 3.357 7.5 7.5 7.5s7.5-3.357 7.5-7.5v-21.407c0-4.142-3.357-7.5-7.5-7.5z"/><path d="m58.152 68.76c2.931 2.929 7.678 2.928 10.607 0 2.929-2.93 2.929-7.678 0-10.607l-15.136-15.137c-2.93-2.928-7.678-2.928-10.607 0-2.929 2.93-2.929 7.678 0 10.607z"/><path d="m235.581 224.974c-2.929-2.929-7.678-2.93-10.606-.001-2.93 2.929-2.93 7.678-.001 10.606l15.137 15.138c2.931 2.931 7.68 2.928 10.606.001 2.93-2.929 2.93-7.678.001-10.606z"/><path d="m28.907 139.366h-21.407c-4.143 0-7.5 3.357-7.5 7.5s3.357 7.5 7.5 7.5h21.407c4.143 0 7.5-3.357 7.5-7.5s-3.357-7.5-7.5-7.5z"/><path d="m286.233 154.366c4.143 0 7.5-3.357 7.5-7.5s-3.357-7.5-7.5-7.5h-21.406c-4.143 0-7.5 3.357-7.5 7.5s3.357 7.5 7.5 7.5z"/><path d="m58.152 224.974-15.137 15.138c-2.929 2.929-2.929 7.678.001 10.606 2.928 2.928 7.676 2.929 10.606-.001l15.137-15.138c2.929-2.929 2.929-7.678-.001-10.606-2.927-2.928-7.676-2.929-10.606.001z"/><path d="m240.11 43.016-15.137 15.137c-2.929 2.93-2.929 7.678 0 10.607 2.931 2.929 7.678 2.928 10.607 0l15.137-15.137c2.929-2.93 2.929-7.678 0-10.607-2.929-2.928-7.677-2.928-10.607 0z"/><path d="m457.815 403.63c-29.878 0-54.186 24.307-54.186 54.185s24.309 54.185 54.186 54.185 54.185-24.308 54.185-54.186c0-29.891-24.295-54.184-54.185-54.184zm17.544 19.163c7.763 3.905 14.061 10.307 17.819 18.154-8.069 7.926-21.645 2.155-21.645-9.066 0-3.461 1.414-6.723 3.826-9.088zm-17.544 74.207c-21.607 0-39.186-17.578-39.186-39.186 0-22.342 18.778-40.314 41.268-39.128-13.012 23.998 13.006 50.269 37.068 37.81.015.438.033.876.033 1.318.002 21.608-17.576 39.186-39.183 39.186z"/><path d="m455.302 461.197h-3.544c-4.143 0-7.5 3.357-7.5 7.5s3.357 7.5 7.5 7.5h3.544c4.143 0 7.5-3.357 7.5-7.5s-3.358-7.5-7.5-7.5z"/><path d="m146.867 59.733c-48.046 0-87.134 39.088-87.134 87.133 0 41.278 28.882 76.224 67.992 84.999 4.042.907 8.053-1.634 8.96-5.677.906-4.041-1.635-8.053-5.677-8.96-32.608-7.315-56.275-36.907-56.275-70.362 0-39.774 32.359-72.133 72.134-72.133s72.133 32.359 72.133 72.133c0 33.455-23.667 63.047-56.274 70.362-4.042.907-6.583 4.919-5.677 8.96s4.914 6.585 8.96 5.677c39.106-8.774 67.991-43.719 67.991-84.999 0-48.045-39.088-87.133-87.133-87.133z"/><path d="m409.118 333.491c-4.147-.313-7.723 2.809-8.021 6.94-.656 9.101-3.198 17.666-7.199 25.349-.937-5.796-2.885-12.974-11.167-19.141-6.705-4.993-6.302-7.154-4.963-14.316 1.08-5.784 2.561-13.705-.842-23.743-2.336-6.891 1.378-13.768 5.597-18.868 5.4 5.506 9.882 12.006 13.125 19.305 1.682 3.786 6.119 5.493 9.899 3.808 3.785-1.682 5.49-6.114 3.808-9.899-12.828-28.864-41.608-47.938-73.717-47.938-43.557 0-80.651 35.219-80.651 80.652 0 44.603 36.242 80.651 80.651 80.651 41.763 0 77.374-32.572 80.418-74.78.3-4.131-2.807-7.722-6.938-8.02zm-85.147 66.741c-.285-.051-.572-.098-.856-.153-.383-.073-.764-.149-1.144-.229-29.786-6.335-51.982-32.84-51.982-64.21 0-14.876 4.999-29.139 14.262-40.786 5.885 7.626 13.886 13.469 23.58 17.146 11.532 4.374 18.994 10.042 19.96 15.161 1.744 9.243-17.17 15.021-24.776 24.956-4.407 5.757-4.912 12.276-1.461 18.854 5.306 10.114 23.883 18.325 22.417 29.261zm15.056.968c1.928-19.491-21.097-31.3-24.19-37.197-3.842-7.316 32.303-15.186 27.694-39.621-1.415-7.499-7.66-18.167-29.38-26.406-7.803-2.959-13.886-7.603-18.158-13.833 11.189-8.851 25.306-14.155 40.648-14.155 12.737 0 24.899 3.707 35.231 10.285-8.902 10.792-11.81 22.324-8.15 33.122 2.144 6.322 1.249 11.107.303 16.173-1.542 8.251-3.461 18.521 10.749 29.103 4.459 3.32 4.925 6.624 5.631 11.624.482 3.411 1.05 7.364 3.076 11.228-11.23 11.448-26.574 18.804-43.454 19.677z"/></g></g></svg>