<svg height="512" viewBox="0 0 128 128" width="512" xmlns="http://www.w3.org/2000/svg"><g><g><path d="m45.483 37.028h9v81.977h-9z" fill="#537980" transform="matrix(.707 .707 -.707 .707 69.806 -12.493)"/><path d="m75.335 40.317h12a0 0 0 0 1 0 0v9.7a3 3 0 0 1 -3 3h-6a3 3 0 0 1 -3-3v-9.7a0 0 0 0 1 0 0z" fill="#dddde3" transform="matrix(.707 .707 -.707 .707 56.82 -43.844)"/><g fill="#537980"><path d="m113.445 14.555-12.051 3.443 8.608 8.608z"/><path d="m121.5 34-10.956-6.087v12.174z"/><path d="m113.445 53.445-3.443-12.051-8.608 8.608z"/><path d="m94 61.5 6.087-10.956h-12.174z"/><path d="m66.5 34 10.956 6.087v-12.174z"/><path d="m74.555 14.555 3.443 12.051 8.608-8.608z"/><path d="m94 6.5-6.087 10.956h12.174z"/></g><circle cx="94" cy="34" fill="#ededf9" r="18.26"/><path d="m8.966 119.034a8.421 8.421 0 0 1 .409-12.291l25.056-21.923a3 3 0 0 1 4.1.136l4.516 4.516a3 3 0 0 1 .136 4.1l-21.926 25.053a8.421 8.421 0 0 1 -12.291.409z" fill="#385b60"/></g><g fill="#102a3f"><path d="m54.92 76.968-2.635 2.632a1.75 1.75 0 0 0 2.474 2.476l2.641-2.633a1.75 1.75 0 0 0 -2.475-2.475z"/><path d="m122.35 32.47-9.573-5.32q-.293-.805-.658-1.587l3.014-10.532a1.751 1.751 0 0 0 -2.164-2.164l-2.634.754a1.75 1.75 0 0 0 .579 3.43l-1.279 4.472a20.079 20.079 0 0 0 -1.486-1.672 19.844 19.844 0 0 0 -7.3-4.628l-5.319-9.573a1.75 1.75 0 0 0 -3.06 0l-5.32 9.573q-.806.292-1.587.658l-10.532-3.014a1.751 1.751 0 0 0 -2.164 2.164l3.014 10.532q-.364.783-.658 1.587l-9.573 5.32a1.75 1.75 0 0 0 0 3.06l9.573 5.32c.086.237.157.477.252.711l-1.992 1.991a4.744 4.744 0 0 0 -1.377 3.5l-35.306 35.312a4.727 4.727 0 0 0 -3.521 1.136l-8.846 7.741a1.75 1.75 0 0 0 2.3 2.634l8.845-7.741a1.256 1.256 0 0 1 1.708.057l4.516 4.516a1.256 1.256 0 0 1 .057 1.708l-21.919 25.057a6.6 6.6 0 0 1 -4.8 2.274 6.67 6.67 0 0 1 -6.888-6.888 6.606 6.606 0 0 1 2.274-4.8l9.653-8.447a1.749 1.749 0 1 0 -2.3-2.633l-9.654 8.446a10.17 10.17 0 0 0 6.7 17.824c.111 0 .222 0 .334-.006a10.208 10.208 0 0 0 7.316-3.467l21.925-25.054a4.727 4.727 0 0 0 1.136-3.521l5.146-5.145a1.75 1.75 0 1 0 -2.474-2.475l-4.342 4.34-3.885-3.885 33.58-33.589 3.894 3.894-18.587 18.581a1.75 1.75 0 0 0 2.475 2.479l19.509-19.5c.047 0 .095.009.143.009a4.741 4.741 0 0 0 3.352-1.385l1.992-1.992c.234.095.474.166.711.252l5.32 9.573a1.751 1.751 0 0 0 3.06 0l5.32-9.573q.806-.293 1.587-.658l10.532 3.014a1.751 1.751 0 0 0 2.164-2.164l-3.014-10.532q.364-.783.658-1.587l9.573-5.32a1.751 1.751 0 0 0 0-3.06zm-16.675 13.2a16.5 16.5 0 1 1 0-23.35 16.531 16.531 0 0 1 0 23.355zm-11.675-35.57 2.242 4.034a20.249 20.249 0 0 0 -4.484 0zm-16.9 7 4.423 1.265a19.023 19.023 0 0 0 -3.158 3.158zm-7 16.9 4.035-2.242a20.129 20.129 0 0 0 0 4.484zm11.87 18.043a1.249 1.249 0 0 1 -1.212.313 1.235 1.235 0 0 1 -.552-.314l-4.235-4.235a1.266 1.266 0 0 1 -.333-.583 1.237 1.237 0 0 1 .318-1.2l1.214-1.214a19.7 19.7 0 0 0 6.015 6.015zm12.03 5.857-2.242-4.035a18.281 18.281 0 0 0 4.484 0zm16.9-7-4.423-1.265a19.023 19.023 0 0 0 3.158-3.158zm2.963-14.658a20.129 20.129 0 0 0 0-4.484l4.037 2.242z"/><path d="m91.815 46.185a1.75 1.75 0 0 0 1.685 1.815c.164.006.328.008.491.008a14.113 14.113 0 0 0 5.859-1.274 1.75 1.75 0 0 0 -1.459-3.181 10.532 10.532 0 0 1 -4.767.949 1.737 1.737 0 0 0 -1.809 1.683z"/></g></g></svg>