<svg height="512" viewBox="0 0 128 128" width="512" xmlns="http://www.w3.org/2000/svg"><g><g><path d="m88.05 91.306-2.383-39.273h-43.334l-2.383 39.273a9.577 9.577 0 0 0 9.559 10.157h28.982a9.577 9.577 0 0 0 9.559-10.157z" fill="#07485e"/><ellipse cx="64" cy="52.033" fill="#09627d" rx="33.858" ry="9.833"/><ellipse cx="64" cy="48.1" fill="#07485e" rx="22.534" ry="5.9"/><path d="m60.1 34.053a15.766 15.766 0 0 1 -6.415-6.415 2.124 2.124 0 0 0 -3.722 0 15.766 15.766 0 0 1 -6.415 6.415 2.123 2.123 0 0 0 0 3.722 15.766 15.766 0 0 1 6.415 6.415 2.123 2.123 0 0 0 3.722 0 15.766 15.766 0 0 1 6.415-6.415 2.123 2.123 0 0 0 0-3.722z" fill="#fff07e"/><path d="m84.783 38.556a11.033 11.033 0 0 1 -4.49-4.49 1.486 1.486 0 0 0 -2.605 0 11.036 11.036 0 0 1 -4.489 4.49 1.486 1.486 0 0 0 0 2.6 11.036 11.036 0 0 1 4.489 4.49 1.486 1.486 0 0 0 2.605 0 11.033 11.033 0 0 1 4.49-4.49 1.486 1.486 0 0 0 0-2.6z" fill="#ffd322"/></g><g fill="#002e49"><path d="m88.281 66.222a1.75 1.75 0 0 0 -3.493.212l1.512 24.978a7.827 7.827 0 0 1 -7.813 8.3h-28.978a7.827 7.827 0 0 1 -7.813-8.3l1.804-29.751a101.179 101.179 0 0 0 20.5 1.955 1.75 1.75 0 0 0 0-3.5c-19.6 0-32.108-4.787-32.108-8.083 0-1.244 2.317-3.325 8.03-5.085a3.406 3.406 0 0 0 -.206 1.152c0 2.136 1.919 3.886 5.7 5.2a1.75 1.75 0 0 0 1.148-3.307c-2.532-.879-3.29-1.708-3.355-1.86.1-.354 1.375-1.522 5.565-2.58a3.869 3.869 0 0 0 6.449-.535c.139-.259.29-.51.444-.758a115.828 115.828 0 0 1 12.233-.245 1.75 1.75 0 0 0 .118-3.5c-3.023-.1-6.045-.079-9 .046a14 14 0 0 1 1.914-1.247 3.873 3.873 0 0 0 0-6.8c-.379-.2-.753-.427-1.114-.666a1.75 1.75 0 0 0 -1.935 2.916c.45.3.919.579 1.392.834a.373.373 0 0 1 0 .638 17.452 17.452 0 0 0 -7.128 7.129.34.34 0 0 1 -.638 0c-.1-.194-.222-.379-.333-.568a1.717 1.717 0 0 0 -.152-.26 17.437 17.437 0 0 0 -6.644-6.3.374.374 0 0 1 0-.638 17.442 17.442 0 0 0 7.129-7.129.341.341 0 0 1 .639 0q.334.624.719 1.217a1.75 1.75 0 1 0 2.937-1.9c-.2-.315-.4-.64-.574-.971a3.872 3.872 0 0 0 -6.8 0 13.954 13.954 0 0 1 -5.7 5.7 3.873 3.873 0 0 0 0 6.8 13.994 13.994 0 0 1 3.407 2.584c-6.868 1.223-17.745 4.11-17.745 10.13 0 3.893 4.7 6.833 11.656 8.778l-1.848 30.392a11.326 11.326 0 0 0 11.306 12.012h28.985a11.326 11.326 0 0 0 11.309-12.012z"/><path d="m85.652 42.676a3.233 3.233 0 0 0 -.041-5.662 9.242 9.242 0 0 1 -3.777-3.777 3.22 3.22 0 0 0 -2.843-1.691 3.219 3.219 0 0 0 -2.843 1.692 9.243 9.243 0 0 1 -3.776 3.776 3.236 3.236 0 0 0 0 5.688 9.237 9.237 0 0 1 3.776 3.776 3.22 3.22 0 0 0 2.842 1.692 3.219 3.219 0 0 0 2.843-1.692c.019-.035.045-.065.064-.1 2.13.8 2.824 1.524 2.89 1.687-.352 1.191-7.055 4.185-20.787 4.185q-.865 0-1.714-.017a1.75 1.75 0 0 0 -.071 3.5q.883.018 1.785.018c9.02 0 24.284-1.611 24.284-7.65a3.4 3.4 0 0 0 -.228-1.159c5.793 1.776 8.052 3.861 8.052 5.092 0 2.424-7.567 6.572-23.81 7.781a1.75 1.75 0 0 0 .128 3.495h.132c13.077-.973 27.05-4.445 27.05-11.271 0-5.039-7.608-7.875-13.956-9.363zm-11.2-2.818a12.732 12.732 0 0 0 4.538-4.538 12.716 12.716 0 0 0 4.538 4.538 12.708 12.708 0 0 0 -4.537 4.542 12.724 12.724 0 0 0 -4.538-4.542z"/><path d="m53.491 51.554a1.75 1.75 0 0 0 -.491 3.465q.55.078 1.12.149a1.783 1.783 0 0 0 .218.013 1.75 1.75 0 0 0 .214-3.487q-.539-.066-1.061-.14z"/></g></g></svg>