<svg height="512" viewBox="0 0 128 128" width="512" xmlns="http://www.w3.org/2000/svg"><g><g><path d="m92.542 87.25-57.084 7.106v-60.712a7.107 7.107 0 0 1 7.107-7.107h49.977z" fill="#ff7ceb"/><path d="m92.54 87.25v14.21h-49.98a7.105 7.105 0 0 1 0-14.21z" fill="#b373f0"/><path d="m92.54 92.61v3.5h-46.04a1.75 1.75 0 0 1 0-3.5z" fill="#ff7ceb"/></g><g fill="#002e49"><path d="m48.781 40.816a1.752 1.752 0 0 0 -.02 1.739l4.083 7.334-4.083 7.335a1.749 1.749 0 0 0 1.529 2.6h8.084l4.1 7.36a1.751 1.751 0 0 0 3.058 0l7.625-13.7 1.579 2.838h-.4a1.75 1.75 0 0 0 0 3.5h3.374a1.749 1.749 0 0 0 1.529-2.6l-4.082-7.335 4.082-7.334a1.75 1.75 0 0 0 -1.529-2.6h-8.084l-4.1-7.359a1.75 1.75 0 0 0 -3.058 0l-4.1 7.359h-8.078a1.751 1.751 0 0 0 -1.509.863zm4.487 15.509 1.579-2.837 1.579 2.837zm10.732 6.41-1.62-2.91h3.24zm10.733-19.282-1.579 2.838-1.58-2.838zm-10.733-6.41 1.62 2.91h-3.24zm3.568 6.41 3.583 6.436-3.583 6.436h-7.136l-3.582-6.435 1.271-2.284a1.751 1.751 0 0 0 -3.059-1.7l-.216.388-1.579-2.838z"/><path d="m92.542 24.787h-27.375a1.75 1.75 0 0 0 0 3.5h25.625v52.963a1.75 1.75 0 0 0 3.5 0v-54.713a1.749 1.749 0 0 0 -1.75-1.75z"/><path d="m56.167 28.287h1.25a1.75 1.75 0 0 0 0-3.5h-1.25a1.75 1.75 0 0 0 0 3.5z"/><path d="m92.542 85.5h-17.042a1.75 1.75 0 0 0 0 3.5h15.292v3.606h-44.292a1.75 1.75 0 0 0 0 3.5h44.292v3.607h-48.228a5.357 5.357 0 0 1 0-10.713h24.1a1.75 1.75 0 0 0 0-3.5h-24.1a8.8 8.8 0 0 0 -5.356 1.82v-53.676a5.363 5.363 0 0 1 5.356-5.357h5.936a1.75 1.75 0 0 0 0-3.5h-5.936a8.867 8.867 0 0 0 -8.856 8.857v60.712a8.867 8.867 0 0 0 8.856 8.857h49.978a1.749 1.749 0 0 0 1.75-1.75v-14.213a1.749 1.749 0 0 0 -1.75-1.75z"/></g></g></svg>