<svg height="512" viewBox="0 0 128 128" width="512" xmlns="http://www.w3.org/2000/svg"><g><g><path d="m89.82 82.317a15.763 15.763 0 0 1 -6.42-6.417 2.122 2.122 0 0 0 -3.721 0 15.769 15.769 0 0 1 -6.416 6.415 2.123 2.123 0 0 0 0 3.721 15.771 15.771 0 0 1 6.416 6.416 2.123 2.123 0 0 0 3.721 0 15.765 15.765 0 0 1 6.416-6.416 2.123 2.123 0 0 0 .004-3.719z" fill="#ffd322"/><path d="m67.275 30.225a7.735 7.735 0 0 1 -3.148-3.148 1.042 1.042 0 0 0 -1.826 0 7.735 7.735 0 0 1 -3.148 3.148 1.043 1.043 0 0 0 0 1.827 7.735 7.735 0 0 1 3.147 3.148 1.042 1.042 0 0 0 1.826 0 7.735 7.735 0 0 1 3.148-3.148 1.043 1.043 0 0 0 .001-1.827z" fill="#fff07e"/><path d="m101.054 56.747a5.851 5.851 0 0 1 -2.382-2.382.788.788 0 0 0 -1.382 0 5.849 5.849 0 0 1 -2.381 2.382.788.788 0 0 0 0 1.382 5.849 5.849 0 0 1 2.381 2.382.789.789 0 0 0 1.382 0 5.851 5.851 0 0 1 2.382-2.382.788.788 0 0 0 0-1.382z" fill="#ffd322"/><path d="m45.938 56.136a11.033 11.033 0 0 1 -4.49-4.49 1.486 1.486 0 0 0 -2.6 0 11.033 11.033 0 0 1 -4.49 4.49 1.486 1.486 0 0 0 0 2.6 11.033 11.033 0 0 1 4.49 4.49 1.486 1.486 0 0 0 2.6 0 11.033 11.033 0 0 1 4.49-4.49 1.486 1.486 0 0 0 0-2.6z" fill="#fff07e"/><path d="m28.276 99.724a5.932 5.932 0 0 1 .072-8.461l65.583-63.475a4.443 4.443 0 0 1 6.23.051 4.443 4.443 0 0 1 .051 6.23l-63.475 65.583a5.932 5.932 0 0 1 -8.461.072z" fill="#45ffe7"/><path d="m28.348 91.263a5.933 5.933 0 1 0 8.389 8.389l22.625-23.376-7.638-7.638z" fill="#09627d"/></g><g fill="#002e49"><path d="m90.647 80.775a13.958 13.958 0 0 1 -5.7-5.7 3.849 3.849 0 0 0 -3.4-2.022 3.85 3.85 0 0 0 -3.4 2.022 13.94 13.94 0 0 1 -5.7 5.7 3.874 3.874 0 0 0 0 6.8 13.952 13.952 0 0 1 5.7 5.7 3.853 3.853 0 0 0 3.4 2.023 3.852 3.852 0 0 0 3.4-2.023 13.949 13.949 0 0 1 5.7-5.7 3.873 3.873 0 0 0 0-6.8zm-1.656 3.725a17.432 17.432 0 0 0 -7.128 7.128.373.373 0 0 1 -.638 0 17.448 17.448 0 0 0 -7.125-7.128.375.375 0 0 1 0-.639 17.436 17.436 0 0 0 7.129-7.129.374.374 0 0 1 .637 0 17.43 17.43 0 0 0 7.129 7.129.375.375 0 0 1 0 .639z"/><path d="m58.325 33.593a5.959 5.959 0 0 1 2.435 2.436 2.778 2.778 0 0 0 2.454 1.46 2.777 2.777 0 0 0 2.453-1.461 5.965 5.965 0 0 1 2.433-2.435 2.792 2.792 0 0 0 0-4.909 5.96 5.96 0 0 1 -2.435-2.434 2.778 2.778 0 0 0 -2.454-1.462 2.781 2.781 0 0 0 -2.455 1.462 5.957 5.957 0 0 1 -2.434 2.434 2.791 2.791 0 0 0 0 4.909zm4.889-4.675a9.442 9.442 0 0 0 2.221 2.221 9.419 9.419 0 0 0 -2.221 2.22 9.4 9.4 0 0 0 -2.22-2.22 9.419 9.419 0 0 0 2.22-2.221z"/><path d="m101.882 55.206a4.09 4.09 0 0 1 -1.669-1.669 2.539 2.539 0 0 0 -4.465 0 4.083 4.083 0 0 1 -1.67 1.67 2.538 2.538 0 0 0 0 4.464 4.071 4.071 0 0 1 1.667 1.668 1.75 1.75 0 1 0 3.084-1.656 7.562 7.562 0 0 0 -1.829-2.245 7.468 7.468 0 0 0 .982-.982 7.559 7.559 0 0 0 2.245 1.833 1.75 1.75 0 1 0 1.656-3.083z"/><path d="m33.526 60.282a9.246 9.246 0 0 1 3.774 3.776 3.235 3.235 0 0 0 5.687 0 9.248 9.248 0 0 1 3.777-3.777 3.236 3.236 0 0 0 0-5.687 9.243 9.243 0 0 1 -3.776-3.776 3.236 3.236 0 0 0 -5.687 0 9.278 9.278 0 0 1 -.658 1.05 1.75 1.75 0 1 0 2.835 2.052c.237-.327.46-.668.666-1.018a12.732 12.732 0 0 0 4.538 4.538 12.732 12.732 0 0 0 -4.538 4.538 12.734 12.734 0 0 0 -4.589-4.568 1.751 1.751 0 0 0 -2.031-2.814 3.236 3.236 0 0 0 0 5.688z"/><path d="m80.223 42.805a1.74 1.74 0 0 0 1.216-.492l.765-.74a1.75 1.75 0 0 0 -2.433-2.515l-.765.739a1.75 1.75 0 0 0 1.217 3.008z"/><path d="m101.4 26.6a6.219 6.219 0 0 0 -8.684-.071l-8.216 7.953a1.75 1.75 0 1 0 2.432 2.518l8.215-7.951a2.692 2.692 0 0 1 3.807 3.806l-39.612 40.925-5.122-5.122 22.475-21.753a1.75 1.75 0 1 0 -2.433-2.515l-47.131 45.61a7.684 7.684 0 0 0 5.338 13.208h.068a7.621 7.621 0 0 0 5.458-2.342l8.161-8.433a1.75 1.75 0 1 0 -2.514-2.433l-8.163 8.434a4.183 4.183 0 1 1 -5.914-5.916l22.14-21.428 5.2 5.2-7.454 7.71a1.75 1.75 0 0 0 2.514 2.435l49.505-51.149a6.22 6.22 0 0 0 -.07-8.686z"/></g></g></svg>