<svg clip-rule="evenodd" fill-rule="evenodd" height="512" stroke-linejoin="round" stroke-miterlimit="2" viewBox="0 0 512 512" width="512" xmlns="http://www.w3.org/2000/svg"><g><path d="m229.43 120.571c-1.367.115-2.74.151-4.111.11-9.426-.101-41.577 2.166-70.258 31.745-29.625 30.554-27.33 95.259-11.636 138.584 15.694 43.324 57.736 66.822 60.3 121.657 2.563 54.835 81.906 73.098 126.947 23.274 45.04-49.824 62.955-146.961 38.084-215.81-33.741-93.399-94.013-103.311-139.326-99.56z" fill="#ffd475"/><path d="m222.894 120.746c39.124 4.185 81.975 26.048 108.467 99.385 24.872 68.849 6.957 165.986-38.084 215.81-13.043 14.429-28.964 23.148-45.066 26.888 26.343 6.518 59.039-.979 82.461-26.888 45.04-49.824 62.955-146.961 38.084-215.81-33.741-93.399-94.013-103.311-139.326-99.56-1.367.115-2.74.151-4.111.11z" fill="#edc261"/><path d="m350.864 63.663c-6.076 25.015-25 46.164-51.462 53.899-26.463 7.735-53.797.107-72.39-17.697 6.077-25.015 25-46.163 51.463-53.898 26.462-7.735 53.797-.108 72.389 17.696z" fill="#b3ff89"/><path d="m342.459 56.758c2.968 2.071 5.774 4.386 8.405 6.905-6.076 25.015-25 46.164-51.462 53.899-26.463 7.735-53.797.107-72.39-17.697.869-3.575 1.999-7.07 3.406-10.446 17.905 12.749 41.265 17.431 63.984 10.791 22.681-6.63 39.823-23.113 48.057-43.452z" fill="#a4ee7c"/><path d="m200.66 155.818c11.019 1.974 2.229 39.773.155 66.282-3.689 47.172 16.87 85.535 1.85 87.56-11.095 1.496-42.159-43.826-30.469-109.999 4.625-26.184 17.444-45.818 28.464-43.843z" fill="#ffe0a7"/><path d="m219.121 112.561c-14.5 1.064-43.653 6.848-70.042 34.064-12.978 13.385-20.59 32.655-23.68 54.117-4.423 30.721.349 65.938 10.191 93.106 8.107 22.382 22.88 39.729 36.098 58.476 11.939 16.934 22.516 35.144 23.712 60.733 1.184 25.32 16.423 43.974 37.762 53.456 30.525 13.564 73.941 7.927 103.691-24.984 46.804-51.774 65.586-152.685 39.74-224.229-17.787-49.239-42.847-76.259-69.153-90.687-1.12-.614-2.243-1.205-3.364-1.773 28.201-9.139 48.31-32.138 54.886-59.209.701-2.888-.188-5.931-2.334-7.986-20.673-19.797-51.067-28.278-80.491-19.677-17.102 4.999-31.371 15.035-41.651 28.027.523-2.662 1.192-5.306 2.03-7.893 1.416-4.376-.986-9.079-5.362-10.495-4.375-1.417-9.078.985-10.495 5.361-6.912 21.349-4.064 46.013-1.538 59.593zm10.996 16.315c21.211-1.756 45.95-.46 69.308 12.351 23.594 12.94 45.54 37.574 61.493 81.735 23.898 66.154 6.849 159.517-36.428 207.391-24.299 26.879-59.629 32.007-84.561 20.929-15.632-6.946-27.013-20.456-27.88-39.004-1.368-29.247-13.093-50.203-26.74-69.558-12.368-17.542-26.463-33.605-34.049-54.548-8.991-24.821-13.405-56.989-9.364-85.055 2.552-17.731 8.426-33.832 19.148-44.89 26.129-26.947 55.327-29.287 64.08-29.214 1.694.047 3.351.001 5.002-.138zm111.313-62.455c-6.506 20.124-22.551 36.765-44.366 43.142-21.816 6.377-44.298.996-60.618-12.455 6.506-20.125 22.551-36.766 44.367-43.143 21.815-6.376 44.297-.996 60.617 12.456z" fill="#8d4ba0"/></g></svg>