<svg id="Layer_1" viewBox="0 0 1000 1000" xmlns="http://www.w3.org/2000/svg" data-name="Layer 1"><path d="m644.3 732.11h-288.6a599 599 0 0 1 30.59-178 230.21 230.21 0 0 0 13.41-58.26h200.6a230.21 230.21 0 0 0 13.41 58.26 599 599 0 0 1 30.59 178z" fill="#ffe0b2"/><path d="m670.85 286.42-56.32 122.29c-2.38 4.36-12.1 23.88-14.5 55.12h-200.03c-2.4-31.24-12.12-50.76-14.5-55.12l-56.35-122.29c-15.95-38.88-11.31-54.64-8.13-57.56l61.48-23.15.18-.07c47.38-18.52 64.77-51.5 71-75.91a18.08 18.08 0 0 1 17.43-13.73h57.78a18.08 18.08 0 0 1 17.41 13.73c6.25 24.41 23.64 57.39 71 75.91l.18.07 61.52 23.15c3.16 2.92 7.8 18.68-8.15 57.56z" fill="#ffe0b2"/><path d="m566.89 860.12v23.88h-133.78v-23.88a62.85 62.85 0 0 0 53.89-62.12v-33.89h26v33.89a62.78 62.78 0 0 0 53.88 62.12z" fill="#616161"/><g fill="#fff" opacity=".5"><path d="m634.3 742.11h-288.6a599 599 0 0 1 30.59-178 230.21 230.21 0 0 0 13.41-58.26h200.6a230.21 230.21 0 0 0 13.41 58.26 599 599 0 0 1 30.59 178z"/><path d="m660.85 296.42-56.32 122.29c-2.38 4.36-12.1 23.88-14.5 55.12h-200.03c-2.4-31.24-12.12-50.76-14.5-55.12l-56.35-122.29c-15.95-38.88-11.31-54.64-8.13-57.56l61.48-23.15.18-.07c47.38-18.52 64.77-51.5 71-75.91a18.08 18.08 0 0 1 17.43-13.73h57.78a18.08 18.08 0 0 1 17.41 13.73c6.25 24.41 23.64 57.39 71 75.91l.18.07 61.52 23.15c3.16 2.92 7.8 18.68-8.15 57.56z"/><path d="m556.89 870.12v23.88h-133.78v-23.88a62.85 62.85 0 0 0 53.89-62.12v-33.89h26v33.89a62.78 62.78 0 0 0 53.88 62.12z"/></g><g fill="#413b32"><path d="m471 732.11a16 16 0 0 1 16 16v16h26v-16a16 16 0 0 1 16-16zm238.47-514.29c-4.77-10.54-12.59-16.49-18.45-18.62l-62.14-23.4c-34.68-13.58-47.19-36.86-51.58-54a50 50 0 0 0 -48.41-37.8h-57.78a50 50 0 0 0 -48.41 37.79c-4.39 17.15-16.9 40.43-51.58 54l-62.12 23.41c-5.86 2.13-13.68 8.08-18.45 18.62-8.42 18.6-5.34 45.88 9.16 81.08.08.21.17.41.26.6l56.71 123.14a10.24 10.24 0 0 0 .7 1.36c.47.85 6.59 12.3 9.54 31.94a149.79 149.79 0 0 1 1.64 22.84v1.87c-.31 20.07-4.43 41.05-12.35 62.66-.06.15-.11.3-.16.44a630.56 630.56 0 0 0 -32.42 199.76 20.62 20.62 0 0 0 20.6 20.6h311.58a20.62 20.62 0 0 0 20.6-20.6 630.56 630.56 0 0 0 -32.41-199.76c0-.14-.1-.29-.16-.44-7.92-21.61-12-42.59-12.35-62.66 0-.62 0-1.25 0-1.87a149.79 149.79 0 0 1 1.64-22.84c2.95-19.64 9.07-31.09 9.54-31.94a10.24 10.24 0 0 0 .7-1.36l56.68-123.14c.09-.19.18-.39.26-.6 14.5-35.2 17.58-62.48 9.16-81.08zm-38.62 68.6-56.32 122.29c-2.38 4.36-12.1 23.88-14.5 55.12a191.41 191.41 0 0 0 .27 32 230.21 230.21 0 0 0 13.41 58.26 599 599 0 0 1 30.59 178h-288.6a599 599 0 0 1 30.59-178 230.21 230.21 0 0 0 13.41-58.26 191.41 191.41 0 0 0 .27-32c-2.4-31.24-12.12-50.76-14.5-55.12l-56.32-122.29c-15.95-38.88-11.31-54.64-8.13-57.56l61.48-23.15.18-.07c47.38-18.52 64.77-51.5 71-75.91a18.08 18.08 0 0 1 17.43-13.73h57.78a18.08 18.08 0 0 1 17.41 13.73c6.25 24.41 23.64 57.39 71 75.91l.18.07 61.52 23.15c3.16 2.92 7.8 18.68-8.15 57.56zm-199.85 445.69a16 16 0 0 1 16 16v16h26v-16a16 16 0 0 1 16-16z"/><path d="m631.5 479.83v.82a16 16 0 0 1 -16 15.18h-231a16 16 0 0 1 -16-15.18c0-.27 0-.54 0-.82s0-.7 0-1.05a16 16 0 0 1 16-14.95h231a16 16 0 0 1 16 14.95c-.01.35 0 .7 0 1.05z"/><path d="m598.89 851.88v48.12a16 16 0 0 1 -16 16h-165.78a16 16 0 0 1 -16-16v-48.12a23.13 23.13 0 0 1 23.13-23.14 30.78 30.78 0 0 0 30.76-30.74v-33.89h32v33.89a62.85 62.85 0 0 1 -53.88 62.12v23.88h133.77v-23.88a62.78 62.78 0 0 1 -53.89-62.12v-33.89h32v33.89a30.74 30.74 0 0 0 30.75 30.74 23.16 23.16 0 0 1 23.14 23.14z"/><path d="m487 748.11v16h-32v-16a16 16 0 1 1 32 0z"/><path d="m545 748.11v16h-32v-16a16 16 0 1 1 32 0z"/></g></svg>