<svg enable-background="new 0 0 32 32" viewBox="0 0 32 32" xmlns="http://www.w3.org/2000/svg"><g id="Grid" display="none"/><g id="coin"/><g id="bomb"/><g id="gem"/><g id="ufo"/><g id="medal"/><g id="viking_helmet"/><g id="sword"/><g id="rocket"/><g id="torch"/><g id="spear"/><g id="money_bag"/><g id="crown"/><g id="heart"/><g id="skull"/><g id="star"/><g id="shield"/><g id="crystal"/><g id="gift"/><g id="map"><path d="m2 8.655v18.75c0 .914.741 1.655 1.655 1.655h22.075c2.358 0 4.27-1.912 4.27-4.27v-.01c0-.56-.09-1.13-.36-1.74-.56-1.25-1.72-2.19-3.07-2.45-2.3-.43-4.35.98-4.94 3.01-.03.1-.17.08-.17-.02v-16.18c0-.13.01-.27.02-.4h-17.825c-.914 0-1.655.741-1.655 1.655z" fill="#efc48f"/><path d="m30 24.78v.01c0 2.36-1.91 4.27-4.27 4.27h-11.32c1.224-1.542 3.438-4.767 4.257-9.435 1.065-6.078-.891-10.864-1.717-12.625h4.53c-.01.13-.02.27-.02.4v16.18c0 .1.14.12.17.02.59-2.03 2.64-3.44 4.94-3.01 1.35.26 2.51 1.2 3.07 2.45.27.61.36 1.18.36 1.74z" fill="#eab478"/><path d="m21.46 7.4v16.18c0 .1.14.12.17.02.6-2.08 2.74-3.51 5.11-2.97 1.54.35 2.79 1.61 3.15 3.15.08.34.11.67.11 1v-17.57c0-2.5-2.14-4.49-4.69-4.25-2.22.21-3.85 2.2-3.85 4.44z" fill="#f4d5b5"/><path d="m11.141 12.334-.704.233-.233-.705c-.171-.516-.728-.796-1.243-.625-.516.171-.796.727-.625 1.243l.233.705-.704.233c-.516.171-.796.727-.625 1.243s.728.796 1.243.625l.704-.233.233.705c.171.516.728.796 1.243.625.516-.171.796-.727.625-1.243l-.233-.705.704-.233c.516-.171.796-.727.625-1.243-.171-.517-.728-.796-1.243-.625z" fill="#e96565"/><path d="m28.892 3.737c-.99-.9-2.274-1.326-3.622-1.2-2.108.199-3.803 1.907-4.159 4.038h-17.452c-1.149 0-2.084.935-2.084 2.083v18.743c0 1.148.935 2.083 2.084 2.083h22.07c1.481 0 2.894-.712 3.777-1.904.601-.813.918-1.777.918-2.8v-17.57c.001-1.319-.558-2.585-1.532-3.473zm-7.007 3.663c0-2.068 1.522-3.833 3.465-4.017.128-.012.255-.018.381-.018.964 0 1.872.349 2.589 1.001.798.727 1.256 1.763 1.256 2.844v14.868c-.655-.923-1.636-1.612-2.74-1.862-1.938-.442-3.877.356-4.95 1.879v-14.695zm6.938 19.674c-.724.977-1.88 1.561-3.094 1.561h-22.07c-.681 0-1.234-.554-1.234-1.233v-18.744c0-.68.554-1.233 1.234-1.233h17.376v16.155c0 .256.183.468.435.505.269.038.492-.116.568-.367.575-1.991 2.551-3.136 4.608-2.674 1.369.312 2.507 1.449 2.829 2.834.262 1.094.017 2.293-.652 3.196z"/><path d="m4.533 8.425h-.221c-.234 0-.425.19-.425.425s.19.425.425.425h.221c.234 0 .425-.19.425-.425s-.19-.425-.425-.425z" fill="#ffdebb"/><path d="m10.192 8.85c0-.234-.19-.425-.425-.425h-3.437c-.234 0-.425.19-.425.425s.19.425.425.425h3.438c.234 0 .424-.191.424-.425z" fill="#ffdebb"/><path d="m11.692 15.006-.1-.302.3-.1c.357-.117.646-.367.815-.702.17-.337.198-.72.079-1.078-.243-.736-1.044-1.144-1.779-.895h-.001l-.301.1-.1-.301c-.118-.357-.368-.646-.705-.815-.336-.17-.719-.196-1.075-.079-.737.244-1.139 1.043-.895 1.78l.1.302-.301.1c-.737.244-1.139 1.043-.895 1.78.244.735 1.037 1.14 1.78.895l.302-.1.1.301c.118.357.368.647.705.816.199.1.414.15.631.15.148 0 .299-.023.444-.072.357-.118.646-.368.815-.705.172-.336.2-.718.081-1.075zm-.77-.975c-.223.074-.344.314-.27.537l.233.705c.047.142.036.293-.031.426-.067.134-.183.233-.324.28-.142.048-.294.036-.426-.031-.134-.066-.233-.182-.28-.324l-.233-.704c-.059-.179-.225-.291-.403-.291-.044 0-.089.007-.134.021l-.705.233c-.143.045-.293.036-.426-.031-.134-.067-.233-.183-.28-.324s-.036-.293.031-.426c.067-.134.183-.233.324-.28l.704-.233c.223-.074.344-.314.27-.537l-.233-.705c-.047-.142-.036-.293.031-.426.067-.134.183-.233.324-.28.293-.099.608.063.706.355l.233.704c.073.223.314.344.537.27l.703-.233c.298-.096.609.063.707.355.047.143.036.294-.031.428-.067.133-.182.231-.323.278z"/><path d="m8.444 16.302c-.187-.144-.451-.113-.597.073-.112.144-.216.282-.311.418-.136.191-.09.457.102.592.074.053.16.078.245.078.133 0 .265-.063.347-.18.089-.124.185-.253.287-.385.145-.185.112-.452-.073-.596z"/><path d="m19 22.94-.021-.02c-.17-.34-.43-.64-.79-.89-.189-.131-.46-.08-.59.1-.05.07-.08.16-.08.24 0 .14.07.279.181.359.25.17.43.37.529.59.08.15.221.24.391.24.06 0 .12-.02.18-.05.15-.07.24-.22.24-.38 0-.061-.01-.12-.04-.18 0 .001 0 .001 0-.009z"/><path d="m16.12 21.24c-.32-.07-.66-.131-1-.171-.011-.01-.03-.01-.04-.01-.011 0-.011 0-.021 0-.21-.04-.43.141-.46.37v.061c0 .21.15.38.351.409h.02c.37.051.69.11.98.17.029 0 .06.011.09.011.2 0 .37-.141.41-.34.01-.03.01-.051.01-.091 0-.199-.141-.369-.34-.409z"/><path d="m13 20.859h-.01c-.341-.02-.681-.05-1.011-.069-.27-.03-.449.16-.46.39v.03c-.01.229.17.42.391.43h.02l1.01.07h.03c.22 0 .41-.17.43-.391 0-.01 0-.01 0-.02-.001-.23-.171-.419-.4-.44z"/><path d="m9.95 20.6c-.36-.05-.681-.109-.971-.18-.229-.05-.46.09-.51.32-.01.04-.02.069-.01.109 0 .19.13.36.32.4h.01c.3.069.63.13 1.05.189h.05c.21 0 .391-.149.42-.359.01-.021.01-.05.01-.07-.009-.199-.159-.379-.369-.409z"/><path d="m7.39 19.19c0-.08 0-.149.021-.239.04-.221-.12-.45-.341-.49-.229-.04-.449.109-.5.34-.02.14-.029.27-.029.39 0 .32.08.63.229.891.08.13.221.2.37.2.07 0 .15-.021.22-.061.12-.07.2-.21.2-.36 0-.079-.02-.149-.06-.22-.08-.131-.11-.271-.11-.451z"/><path d="m18.723 24.761c-.222-.079-.465.037-.543.258-.049.139-.107.282-.175.433-.096.214 0 .466.214.562.057.025.115.037.174.037.162 0 .317-.093.388-.251.077-.172.144-.337.2-.495.079-.223-.038-.466-.258-.544z"/></g><g id="poison"/><g id="axe"/><g id="fried_chicken"/><g id="witch_hat"/><g id="fire"/><g id="lightning"/></svg>