<svg id="Layer_1" enable-background="new 0 0 512 512" viewBox="0 0 512 512" xmlns="http://www.w3.org/2000/svg"><g><path d="m72.239 143.181h407.692v265.811h-407.692z" fill="#fed9b3"/></g><g><path d="m479.93 416.99h-31.54c-4.418 0-8-3.582-8-8s3.582-8 8-8h23.54v-249.81h-391.69v249.81h328.15c4.418 0 8 3.582 8 8s-3.582 8-8 8h-336.15c-4.418 0-8-3.582-8-8v-265.81c0-4.418 3.582-8 8-8h407.69c4.418 0 8 3.582 8 8v265.81c0 4.418-3.582 8-8 8z"/></g><g><path d="m112.411 143.177v225.639h-80.34v-225.639c0-22.18 17.979-40.17 40.17-40.17 22.18 0 40.17 17.99 40.17 40.17z" fill="#fed9b3"/></g><g><path d="m112.41 376.82h-80.34c-4.418 0-8-3.582-8-8v-177.64c0-4.418 3.582-8 8-8s8 3.582 8 8v169.64h64.34v-217.64c0-17.739-14.431-32.17-32.17-32.17s-32.17 14.432-32.17 32.17v8c0 4.418-3.582 8-8 8s-8-3.582-8-8v-8c0-26.561 21.609-48.17 48.17-48.17s48.17 21.609 48.17 48.17v225.64c0 4.418-3.581 8-8 8z"/></g><g><g><path d="m112.41 368.82c0 22.188-17.985 40.172-40.171 40.172s-40.171-17.984-40.171-40.172c0-22.186 17.985-40.17 40.171-40.17s40.171 17.985 40.171 40.17z" fill="#fdcc9a"/></g><g><path d="m72.239 416.992c-26.562 0-48.171-21.609-48.171-48.172 0-26.561 21.609-48.17 48.171-48.17 26.561 0 48.171 21.609 48.171 48.17 0 26.563-21.609 48.172-48.171 48.172zm0-80.342c-17.739 0-32.171 14.432-32.171 32.17 0 17.739 14.432 32.172 32.171 32.172s32.171-14.433 32.171-32.172c0-17.738-14.431-32.17-32.171-32.17z"/></g></g><g><g><g><path d="m366.534 347.613h-140.171c-.171 0-.342-.006-.512-.017-23.294-.253-35.479-18.224-35.479-35.976 0-17.879 12.358-35.978 35.977-35.978l4.262-.014 65.386.002c.143-.008.288-.012.434-.012 12.621 0 18.271-9.176 18.271-18.27v-31.19c0-12.621-9.176-18.27-18.27-18.27h-43.145c-4.418 0-8-3.582-8-8s3.582-8 8-8h43.145c17.029 0 34.27 11.771 34.27 34.27v31.19c0 16.903-11.595 34.013-33.768 34.267-.161.01-.322.015-.484.015l-65.812-.002-4.262.014c-13.826 0-20.003 10.034-20.003 19.978s6.177 19.979 19.977 19.979c.156 0 .312.005.468.014h139.717c4.418 0 8 3.582 8 8s-3.583 8-8.001 8z"/></g></g></g><g><g><g><path d="m213.323 217.18c-2.048 0-4.095-.781-5.657-2.343l-18.578-18.579c-3.124-3.124-3.124-8.189 0-11.313 3.125-3.124 8.19-3.125 11.314 0l18.578 18.579c3.124 3.124 3.124 8.189 0 11.313-1.562 1.561-3.609 2.343-5.657 2.343z"/></g></g></g><g><g><g><path d="m194.745 217.18c-2.048 0-4.095-.781-5.657-2.343-3.124-3.124-3.124-8.189 0-11.313l18.579-18.579c3.125-3.124 8.19-3.125 11.314 0 3.124 3.124 3.124 8.189 0 11.313l-18.579 18.579c-1.562 1.561-3.61 2.343-5.657 2.343z"/></g></g></g><g><g><circle cx="416.394" cy="339.613" fill="#0d8140" r="20"/></g><g><path d="m416.394 367.613c-15.439 0-28-12.561-28-28 0-15.44 12.561-28 28-28s28 12.56 28 28-12.561 28-28 28zm0-40c-6.617 0-12 5.383-12 12s5.383 12 12 12 12-5.383 12-12-5.383-12-12-12z"/></g></g></svg>