<svg id="maple_leaf" viewBox="0 0 64 64" xmlns="http://www.w3.org/2000/svg" data-name="maple leaf"><path d="m61 42-11-4 9-6-3-2 3-7h-8v-4l-11 9 2-11-4 2v-9l-3 1-3-8-3 8-3-1v9l-4-2 2 11-11-9v4h-8l3 7-3 2 9 6-11 4 17 7-5 6s9 2 17-6c8 8 17 6 17 6l-5-6z" fill="#f9793a"/><path d="m61 42-11-4 9-6-3-2 3-7h-6.27515c-8.01758 23.12354-31.25006 23.16296-45.37347 20.79175l12.64862 5.20825-5 6s9 2 17-6c8 8 17 6 17 6l-5-6z" fill="#f36a1c"/><path d="m31.99954 29-2.99954 32 5.99954.08824z" fill="#8d4705"/><path d="m61.3418 41.06006-9.14258-3.32422 7.35547-4.90381c.27832-.18555.44531-.49756.44531-.83203s-.16699-.64648-.44531-.83203l-2.30811-1.53857 2.67236-6.23535c.13281-.30908.10107-.66406-.08398-.94434-.18506-.28076-.49902-.44971-.83496-.44971h-7v-3c0-.38623-.22266-.73828-.57178-.90381-.34863-.16504-.7627-.11523-1.06152.12988l-8.89648 7.2793 1.51367-8.32666c.06787-.37256-.08105-.75146-.38379-.97852-.30371-.22803-.70898-.26465-1.04736-.09473l-2.55273 1.27637v-7.38184c0-.32129-.1543-.62305-.41553-.81104-.26123-.18896-.59766-.23877-.90088-.1377l-2.08545.69531-2.66162-7.09766c-.14648-.39014-.51953-.64893-.93652-.64893s-.79004.25879-.93652.64893l-2.66162 7.09766-2.08545-.69531c-.30615-.10107-.64014-.05127-.90088.1377-.26123.18799-.41553.48975-.41553.81104v7.38184l-2.55273-1.27637c-.33887-.16992-.74414-.1333-1.04736.09473-.30273.22705-.45166.60596-.38379.97852l1.51367 8.32666-8.89648-7.2793c-.29932-.24512-.71338-.29492-1.06152-.12988-.34912.16553-.57178.51758-.57178.90381v3h-7c-.33594 0-.6499.16895-.83496.44971-.18506.28027-.2168.63525-.08398.94434l2.67236 6.23535-2.30811 1.53857c-.27832.18555-.44531.49756-.44531.83203s.16699.64648.44531.83203l7.35547 4.90381-9.14258 3.32422c-.38818.14111-.64941.50635-.6582.91895-.0083.41309.2373.78857.61914.9458l15.74072 6.48145-4.12793 4.95361c-.22363.26807-.29102.63281-.17822.96289.1123.33008.38867.57764.72949.65332.32684.07239 6.93976 1.42932 13.97363-3.09668l-.75244 8.02734c-.02588.27783.06494.55371.25146.76123.18604.20752.45068.32764.72949.33203l5.99951.08838h.01465c.27881 0 .54492-.11621.73438-.32129.19287-.2085.2876-.48926.26123-.77197l-.75702-8.09753c4.29535 2.7655 8.4342 3.33484 11.08124 3.33484 1.68799 0 2.77002-.22803 2.89746-.25635.34082-.07568.61719-.32324.72949-.65332.11279-.33008.04541-.69482-.17822-.96289l-4.12793-4.95361 15.74072-6.48145c.38184-.15723.62744-.53271.61914-.9458-.00879-.4126-.27002-.77783-.6582-.91895zm-31.24512 18.95605 1.90137-20.28711 1.90186 20.34326-3.80322-.05615zm13.52246-11.94092c-.29443.12109-.51318.37549-.58984.68457s-.00146.63574.20264.88037l3.80518 4.56641c-2.47998.09851-7.26398-.3089-12.04395-3.92841l-.27393-2.93018 3.72607 2.48407c.17041.11377.36328.16797.55371.16797.32324 0 .64014-.15625.83301-.44531.30615-.45947.18213-1.08057-.27734-1.38672l-5.07513-3.38342-.24872-2.6604c3.08203.19604 8.66071.58508 12.69788.87341.02441.00146.04834.00244.07227.00244.52002 0 .95898-.40234.99658-.92871.03906-.55078-.37549-1.0293-.92627-1.06885-.35767-.02551-1.41669-.10095-2.8092-.1991l1.33801-1.00354c.44189-.33105.53125-.95801.19971-1.3999-.33057-.44092-.95654-.53174-1.3999-.19971l-3.18628 2.38971c-2.0603-.14319-4.2868-.29559-6.04321-.40973l8.20239-5.18018h5.6272c.55225 0 1-.44775 1-1s-.44775-1-1-1h-2.46039l4.99457-3.1543c.4668-.29492.60645-.9126.31152-1.37988-.2959-.46777-.9126-.60596-1.37988-.31152l-4.08807 2.58197 1.45428-2.18158c.30615-.45947.18213-1.08057-.27734-1.38672-.46045-.30713-1.08057-.18164-1.38672.27734l-3.94214 5.91315-8.32306 5.25671-.90277-9.65619v-.54492l3.70703-3.70703c.39062-.39062.39062-1.02344 0-1.41406s-1.02344-.39062-1.41406 0l-2.29297 2.29297v-6.58594c0-.55225-.44775-1-1-1s-1 .44775-1 1v6.58594l-2.29297-2.29297c-.39062-.39062-1.02344-.39062-1.41406 0s-.39062 1.02344 0 1.41406l3.70703 3.70703v.53436l-.90594 9.66473-8.31989-5.2547-3.94214-5.91315c-.30664-.45898-.92725-.58447-1.38672-.27734-.45947.30615-.5835.92725-.27734 1.38672l1.45428 2.18158-4.08807-2.58197c-.4668-.29395-1.08447-.15527-1.37988.31152-.29492.46729-.15527 1.08496.31152 1.37988l4.99457 3.1543h-2.46039c-.55225 0-1 .44775-1 1s.44775 1 1 1h5.6272l8.20239 5.18018c-1.75641.11414-3.98291.26654-6.04321.40973l-3.18628-2.38971c-.44189-.33203-1.06836-.24121-1.3999.19971-.33154.44189-.24219 1.06885.19971 1.3999l1.33801 1.00354c-1.39252.09814-2.45154.17358-2.8092.1991-.55078.03955-.96533.51807-.92627 1.06885.0376.52637.47656.92871.99658.92871.02393 0 .04785-.00098.07227-.00244 4.03357-.28809 9.61005-.677 12.69366-.87317l-.24969 2.66357-5.06995 3.38c-.45947.30615-.5835.92725-.27734 1.38672.19287.28906.50977.44531.83301.44531.19043 0 .3833-.0542.55371-.16797l3.72028-2.48022-.27539 2.93781c-4.81213 3.6579-9.5741 4.04846-12.04742 3.93011l3.81592-4.57959c.2041-.24463.2793-.57129.20264-.88037s-.29541-.56348-.58984-.68457l-14.61377-6.01709 8.57471-3.11816c.35449-.12891.60596-.44629.65088-.8208.04541-.37402-.12402-.74219-.43799-.95117l-7.75195-5.16797 1.75195-1.16797c.40088-.26758.5542-.78271.36426-1.22607l-2.40234-5.60596h6.4834c.55225 0 1-.44775 1-1v-1.88965l9.3667 7.66357c.3252.26611.77979.2998 1.14111.0874.36084-.2124.55127-.62793.47607-1.04004l-1.64209-9.03223 2.21094 1.10547c.30957.1543.67822.13818.97314-.04395.29443-.18213.47412-.50391.47412-.85059v-7.61279l1.68359.56152c.51025.16797 1.06348-.09375 1.25293-.59766l2.06348-5.50293 2.06348 5.50293c.18945.50391.74072.76514 1.25293.59766l1.68359-.56152v7.61279c0 .34668.17969.66846.47412.85059.29541.18213.66406.19824.97314.04395l2.21094-1.10547-1.64209 9.03223c-.0752.41211.11523.82764.47607 1.04004s.81592.17871 1.14111-.0874l9.3667-7.66357v1.88965c0 .55225.44775 1 1 1h6.4834l-2.40234 5.60596c-.18994.44336-.03662.9585.36426 1.22607l1.75195 1.16797-7.75195 5.16797c-.31396.20898-.4834.57715-.43799.95117.04492.37451.29639.69189.65088.8208l8.57471 3.11816-14.61377 6.01709z" fill="#490b2b"/></svg>