<svg height="512" viewBox="0 0 128 128" width="512" xmlns="http://www.w3.org/2000/svg"><g><g><path d="m62.625 10.767h17.934a2.423 2.423 0 0 1 2.423 2.423v80.849a7.82 7.82 0 0 1 -7.82 7.82h-7.14a7.82 7.82 0 0 1 -7.82-7.82v-80.849a2.423 2.423 0 0 1 2.423-2.423z" fill="#f5c464" transform="matrix(-.707 -.707 .707 -.707 82.395 146.756)"/><path d="m28.054 87.253h16.549v8.648h-16.549z" fill="#f26e53" transform="matrix(-.707 -.707 .707 -.707 -2.739 182.019)"/><path d="m25.011 93.43h10.703v8.225h-10.703z" fill="#f05a48" transform="matrix(-.707 -.707 .707 -.707 -17.14 187.985)"/><g fill="#ee404c"><path d="m24.743 97.738 5.424 5.424-4.631 4.631a3.837 3.837 0 0 1 -5.424 0 3.837 3.837 0 0 1 0-5.424z"/><path d="m60.201 32.182h22.781v48.263h-22.781z" transform="matrix(-.707 -.707 .707 -.707 82.395 146.756)"/></g></g><g fill="#250a66"><path d="m68.156 45.485a1.75 1.75 0 0 1 -1.237-2.985l.621-.621a1.75 1.75 0 0 1 2.475 2.474l-.621.621a1.745 1.745 0 0 1 -1.238.511z"/><path d="m47.535 97.317a4.153 4.153 0 0 1 -2.951-1.22l-12.684-12.681a4.178 4.178 0 0 1 0-5.9l28.676-28.675a1.75 1.75 0 0 1 2.475 2.475l-28.674 28.673a.673.673 0 0 0 0 .952l12.682 12.682a.676.676 0 0 0 .952 0l57.169-57.169a6.079 6.079 0 0 0 0-8.585l-5.049-5.049a6.071 6.071 0 0 0 -8.585 0l-15.188 15.188a1.75 1.75 0 0 1 -2.474-2.475l15.187-15.187a9.568 9.568 0 0 1 13.534 0l5.049 5.048a9.581 9.581 0 0 1 0 13.535l-57.169 57.171a4.156 4.156 0 0 1 -2.95 1.217z"/><path d="m39.217 102.235a1.744 1.744 0 0 1 -1.238-.512l-11.7-11.7a1.75 1.75 0 0 1 0-2.474l6.116-6.115a1.748 1.748 0 0 1 2.474 0l11.7 11.7a1.748 1.748 0 0 1 0 2.474l-6.115 6.116a1.742 1.742 0 0 1 -1.237.511zm-9.228-13.452 9.228 9.227 3.64-3.64-9.227-9.227z"/><path d="m31.334 105.984a1.749 1.749 0 0 1 -1.237-.512l-7.569-7.572a1.75 1.75 0 0 1 0-2.474l5.817-5.816a1.75 1.75 0 0 1 2.474 0l7.568 7.568a1.751 1.751 0 0 1 0 2.475l-5.816 5.816a1.749 1.749 0 0 1 -1.237.515zm-5.094-9.318 5.094 5.093 3.341-3.341-5.093-5.093z"/><path d="m22.92 110.666a5.586 5.586 0 0 1 -3.95-9.535l4.63-4.631a1.748 1.748 0 0 1 2.474 0l5.424 5.424a1.748 1.748 0 0 1 0 2.474l-4.63 4.631a5.549 5.549 0 0 1 -3.948 1.637zm1.918-10.453-3.394 3.393a2.09 2.09 0 0 0 0 2.949 2.135 2.135 0 0 0 2.95 0l3.393-3.393z"/><path d="m62.678 83.181a1.744 1.744 0 0 1 -1.238-.513l-16.108-16.108a1.75 1.75 0 1 1 2.475-2.475l16.108 16.109a1.75 1.75 0 0 1 -1.237 2.987z"/><path d="m96.805 49.054a1.744 1.744 0 0 1 -1.238-.513l-16.108-16.108a1.75 1.75 0 0 1 2.475-2.475l16.108 16.108a1.751 1.751 0 0 1 -1.237 2.988z"/></g></g></svg>