<svg id="Capa_1" enable-background="new 0 0 512 512" viewBox="0 0 512 512" xmlns="http://www.w3.org/2000/svg"><g><g><g><path d="m120.591 302.555-13.362-3.381-1.235-1.344-63.116-15.971-1.463.662c-17.208-4.355-33.915 8.651-33.915 26.401v13.509c0 12.468 8.466 23.343 20.553 26.402l13.362 3.381.665 1.2 63.536 16.077 1.613-.623c17.208 4.354 33.915-8.652 33.915-26.402v-13.509c0-12.467-8.466-23.343-20.553-26.402z" fill="#fff3de"/></g><g><path d="m483.947 302.556-13.362-3.381-1.235-1.344-63.116-15.971-1.463.662c-17.208-4.354-33.915 8.652-33.915 26.402v13.509c0 12.468 8.466 23.343 20.553 26.402l13.362 3.381.665 1.2 63.536 16.077 1.613-.623c17.208 4.354 33.915-8.652 33.915-26.402v-13.509c0-12.469-8.466-23.345-20.553-26.403z" fill="#fff3de"/></g><g><path d="m483.947 163.168-13.361-3.381-.825-1.241-63.776-16.138-1.214.724c-17.207-4.354-33.914 8.652-33.914 26.402v13.509c0 12.468 8.466 23.343 20.553 26.402l13.361 3.381 1.746 1.474 62.508 15.817 1.561-.636c17.207 4.354 33.914-8.652 33.914-26.402v-13.509c0-12.468-8.466-23.344-20.553-26.402z" fill="#fff3de"/></g><g><path d="m483.947 163.168-10.947-2.77v11.395c0 17.75-16.707 30.756-33.914 26.402l-68.23-17.266v2.114c0 12.468 8.466 23.343 20.553 26.402l13.361 3.381 1.746 1.474 62.508 15.817 1.561-.636c17.207 4.354 33.914-8.652 33.914-26.402v-13.509c.001-12.468-8.465-23.344-20.552-26.402z" fill="#ffe5c2"/></g><g><path d="m407.703 64.856h59.949c20.35 0 36.847 16.497 36.847 36.847v31.681c0 17.75-16.707 30.756-33.915 26.402l-79.176-20.036c-12.087-3.059-20.553-13.934-20.553-26.402v-11.646c.001-20.349 16.498-36.846 36.848-36.846z" fill="#99e6fc"/></g><g><path d="m473 65.247v32.282c0 17.75-16.708 30.756-33.915 26.402l-68.229-17.266v6.684c0 12.468 8.466 23.343 20.553 26.402l79.176 20.036c17.208 4.354 33.915-8.652 33.915-26.402v-31.681c0-18.534-13.685-33.867-31.5-36.457z" fill="#62dbfb"/></g><g><path d="m404.771 212.826 79.176 20.036c12.087 3.059 20.553 13.934 20.553 26.402v13.509c0 17.75-16.707 30.756-33.915 26.402l-79.176-20.036c-12.087-3.059-20.553-13.934-20.553-26.402v-13.509c0-17.75 16.707-30.757 33.915-26.402z" fill="#99e6fc"/></g><g><path d="m483.947 232.862-10.947-2.771v11.661c0 17.75-16.708 30.756-33.915 26.402l-68.229-17.265v1.848c0 12.468 8.466 23.343 20.553 26.402l79.176 20.036c17.208 4.354 33.915-8.652 33.915-26.402v-13.509c0-12.468-8.466-23.344-20.553-26.402z" fill="#62dbfb"/></g><g><path d="m483.947 302.556-10.947-2.771v11.007c0 17.75-16.708 30.756-33.915 26.402l-68.229-17.266v2.502c0 12.468 8.466 23.343 20.553 26.402l79.176 20.036c17.208 4.354 33.915-8.652 33.915-26.402v-13.509c0-12.467-8.466-23.343-20.553-26.401z" fill="#ffe5c2"/></g><g><path d="m404.771 352.214 79.176 20.036c12.087 3.059 20.553 13.934 20.553 26.402v11.646c0 20.35-16.497 36.847-36.847 36.847h-59.949c-20.35 0-36.847-16.497-36.847-36.847v-31.681c-.001-17.751 16.706-30.758 33.914-26.403z" fill="#99e6fc"/></g><g><path d="m483.947 372.25-10.947-2.771v9.673c0 20.35-16.497 36.847-36.847 36.847h-64.856c2.741 17.642 17.996 31.144 36.406 31.144h59.949c20.35 0 36.847-16.497 36.847-36.847v-11.646c.001-12.466-8.465-23.342-20.552-26.4z" fill="#62dbfb"/></g><g><g><path d="m187.071 101.703v101.317c0 20.35 16.497 36.847 36.847 36.847h64.164c20.35 0 36.847-16.497 36.847-36.847v-101.317c0-20.35-16.497-36.847-36.847-36.847h-64.164c-20.35 0-36.847 16.497-36.847 36.847z" fill="#fff3de"/></g><g><path d="m288.082 64.856h-.223v112.157c0 13.807-11.193 25-25 25h-75.788v1.008c0 20.35 16.497 36.848 36.847 36.848h64.164c20.35 0 36.847-16.497 36.847-36.848v-101.318c0-20.35-16.497-36.847-36.847-36.847z" fill="#ffe5c2"/></g></g><g><g><path d="m187.071 308.98v101.317c0 20.35 16.497 36.847 36.847 36.847h64.164c20.35 0 36.847-16.497 36.847-36.847v-101.317c0-20.35-16.497-36.847-36.847-36.847h-64.164c-20.35-.001-36.847 16.496-36.847 36.847z" fill="#fdb4ba"/></g><g><path d="m288.082 272.132h-.223v112.156c0 13.807-11.193 25-25 25h-75.788v1.008c0 20.35 16.497 36.848 36.847 36.848h64.164c20.35 0 36.847-16.497 36.847-36.848v-101.316c0-20.351-16.497-36.848-36.847-36.848z" fill="#fe99a0"/></g></g><g><path d="m120.591 163.168-13.361-3.381-.825-1.241-63.776-16.138-1.214.724c-17.208-4.354-33.915 8.652-33.915 26.402v13.509c0 12.468 8.466 23.343 20.553 26.402l13.361 3.381 1.746 1.474 62.508 15.817 1.561-.636c17.207 4.354 33.914-8.652 33.914-26.402v-13.509c.001-12.468-8.465-23.344-20.552-26.402z" fill="#fff3de"/></g><g><path d="m120.591 163.168-10.947-2.77v11.395c0 17.75-16.707 30.756-33.914 26.402l-68.23-17.266v2.114c0 12.468 8.466 23.343 20.553 26.402l13.361 3.381 1.746 1.474 62.508 15.817 1.561-.636c17.207 4.354 33.914-8.652 33.914-26.402v-13.509c.001-12.468-8.465-23.344-20.552-26.402z" fill="#ffe5c2"/></g><g><path d="m44.347 64.856h59.949c20.35 0 36.847 16.497 36.847 36.847v31.681c0 17.75-16.707 30.756-33.915 26.402l-79.176-20.036c-12.086-3.058-20.552-13.933-20.552-26.401v-11.646c0-20.35 16.497-36.847 36.847-36.847z" fill="#fe99a0"/></g><g><path d="m109.644 65.247v32.282c0 17.75-16.708 30.756-33.915 26.402l-68.229-17.266v6.684c0 12.468 8.466 23.343 20.553 26.402l79.176 20.036c17.208 4.354 33.915-8.652 33.915-26.402v-31.681c0-18.534-13.685-33.867-31.5-36.457z" fill="#fd8087"/></g><g><path d="m41.415 212.826 79.176 20.036c12.087 3.059 20.553 13.934 20.553 26.402v13.509c0 17.75-16.707 30.756-33.915 26.402l-79.176-20.036c-12.087-3.059-20.553-13.935-20.553-26.402v-13.509c0-17.75 16.707-30.757 33.915-26.402z" fill="#fe99a0"/></g><g><path d="m120.591 232.862-10.947-2.77v11.661c0 17.75-16.708 30.756-33.915 26.402l-68.229-17.266v1.848c0 12.468 8.466 23.343 20.553 26.402l79.176 20.036c17.208 4.354 33.915-8.652 33.915-26.402v-13.509c0-12.468-8.466-23.344-20.553-26.402z" fill="#fd8087"/></g><g><path d="m120.591 302.556-10.947-2.77v11.007c0 17.75-16.708 30.756-33.915 26.402l-68.229-17.266v2.502c0 12.468 8.466 23.343 20.553 26.402l79.176 20.036c17.208 4.354 33.915-8.652 33.915-26.402v-13.509c0-12.468-8.466-23.344-20.553-26.402z" fill="#ffe5c2"/></g><g><path d="m41.415 352.214 79.176 20.036c12.087 3.059 20.553 13.934 20.553 26.402v11.646c0 20.35-16.497 36.847-36.847 36.847h-59.95c-20.35 0-36.847-16.497-36.847-36.847v-31.681c0-17.751 16.707-30.758 33.915-26.403z" fill="#fe99a0"/></g><g><path d="m120.591 372.25-10.947-2.77v9.673c0 20.35-16.497 36.847-36.847 36.847h-64.856c2.741 17.642 17.996 31.144 36.406 31.144h59.949c20.35 0 36.847-16.497 36.847-36.847v-11.646c.001-12.467-8.465-23.343-20.552-26.401z" fill="#fd8087"/></g></g><g><path d="m512 133.385v-31.682c0-24.453-19.895-44.348-44.348-44.348h-13.652c-4.143 0-7.5 3.357-7.5 7.5s3.357 7.5 7.5 7.5h13.652c16.183 0 29.348 13.165 29.348 29.348v31.682c0 6.13-2.774 11.806-7.611 15.571s-11.022 5.063-16.964 3.56l-79.176-20.035c-8.77-2.22-14.894-10.087-14.894-19.132v-11.646c0-16.183 13.165-29.348 29.348-29.348h11.297c4.143 0 7.5-3.357 7.5-7.5s-3.357-7.5-7.5-7.5h-11.297c-24.453 0-44.348 19.895-44.348 44.348v11.646c0 11.392 5.52 21.719 14.314 28.105-.306.223-.617.439-.917.673-8.514 6.628-13.396 16.617-13.396 27.407v13.509c0 11.391 5.52 21.718 14.314 28.104-.306.223-.616.438-.916.672-8.515 6.628-13.397 16.618-13.397 27.408v13.509c0 11.391 5.52 21.719 14.313 28.105-.306.223-.615.438-.915.672-8.515 6.629-13.398 16.619-13.398 27.409v13.509c0 11.391 5.52 21.719 14.313 28.104-.306.223-.616.438-.916.672-8.515 6.628-13.397 16.618-13.397 27.408v31.682c0 24.453 19.895 44.348 44.348 44.348h59.949c24.453 0 44.348-19.895 44.348-44.348v-11.646c0-11.389-5.517-21.713-14.306-28.099.305-.222.609-.445.908-.677 8.515-6.628 13.397-16.618 13.397-27.408v-13.51c0-11.388-5.517-21.712-14.306-28.099.305-.222.609-.445.909-.678 8.515-6.628 13.397-16.618 13.397-27.408v-13.509c0-11.388-5.517-21.713-14.306-28.099.306-.223.611-.446.91-.679 8.513-6.628 13.396-16.618 13.396-27.407v-13.509c0-11.388-5.517-21.712-14.306-28.099.305-.222.609-.445.909-.678 8.513-6.627 13.396-16.617 13.396-27.407zm-15 276.912c0 16.183-13.165 29.348-29.348 29.348h-59.949c-16.183 0-29.348-13.165-29.348-29.348v-31.682c0-6.13 2.774-11.806 7.611-15.571 3.519-2.738 7.746-4.172 12.077-4.172 1.625 0 3.266.202 4.887.612l79.178 20.036c8.768 2.219 14.892 10.085 14.892 19.131zm0-67.83c0 6.13-2.774 11.806-7.611 15.571s-11.02 5.062-16.964 3.56l-79.177-20.036c-8.769-2.219-14.893-10.085-14.893-19.131v-13.509c0-6.131 2.774-11.807 7.612-15.572 3.518-2.738 7.746-4.172 12.077-4.172 1.623 0 3.261.202 4.88.611l79.182 20.037c8.769 2.219 14.893 10.086 14.893 19.131v13.51zm0-69.695c0 6.13-2.774 11.806-7.611 15.571s-11.022 5.062-16.964 3.56l-79.176-20.035c-8.77-2.22-14.894-10.087-14.894-19.132v-13.509c0-6.13 2.774-11.806 7.611-15.571 3.519-2.738 7.746-4.172 12.077-4.172 1.625 0 3.266.202 4.887.612l79.177 20.035c8.769 2.219 14.893 10.086 14.893 19.132zm0-69.694c0 6.13-2.774 11.806-7.611 15.571-4.836 3.766-11.02 5.064-16.961 3.561-.002 0-.004-.001-.007-.001l-79.172-20.035c-8.77-2.22-14.894-10.086-14.894-19.131v-13.509c0-6.13 2.774-11.806 7.611-15.571 4.836-3.766 11.018-5.062 16.958-3.562l61.234 15.495h.001l17.947 4.542c8.769 2.22 14.893 10.086 14.893 19.131v13.509z"/><path d="m104.297 57.355h-59.949c-24.453 0-44.348 19.895-44.348 44.348v11.646c0 11.392 5.52 21.719 14.313 28.105-.306.223-.616.439-.916.672-8.514 6.628-13.397 16.618-13.397 27.408v13.509c0 11.391 5.52 21.718 14.313 28.104-.306.223-.616.439-.916.672-8.514 6.628-13.397 16.619-13.397 27.409v13.509c0 11.391 5.52 21.719 14.313 28.104-.306.223-.615.438-.915.672-8.514 6.629-13.398 16.619-13.398 27.409v13.509c0 11.392 5.52 21.719 14.313 28.104-.306.223-.615.438-.916.672-8.514 6.629-13.397 16.618-13.397 27.408v31.682c0 24.453 19.895 44.348 44.348 44.348h8.652c4.143 0 7.5-3.357 7.5-7.5s-3.357-7.5-7.5-7.5h-8.652c-16.183 0-29.348-13.166-29.348-29.348v-31.682c0-6.13 2.774-11.806 7.611-15.571s11.022-5.062 16.964-3.56l79.176 20.036c8.77 2.22 14.894 10.086 14.894 19.131v11.646c0 16.183-13.165 29.348-29.348 29.348h-16.297c-4.143 0-7.5 3.357-7.5 7.5s3.357 7.5 7.5 7.5h16.297c24.453 0 44.348-19.895 44.348-44.348v-11.646c0-11.388-5.517-21.712-14.306-28.098.305-.222.61-.445.909-.678 8.515-6.628 13.397-16.618 13.397-27.408v-13.51c0-11.388-5.517-21.712-14.306-28.098.305-.222.61-.445.909-.678 8.515-6.628 13.397-16.618 13.397-27.408v-13.509c0-11.389-5.518-21.714-14.308-28.101.184-.134.371-.264.553-.402 8.814-6.685 13.755-17.303 13.755-28.366v-12.826c0-11.388-5.517-21.712-14.306-28.098.305-.222.61-.445.909-.678 8.515-6.628 13.397-16.618 13.397-27.408v-31.682c0-24.453-19.895-44.348-44.348-44.348zm29.348 285.112c0 6.13-2.774 11.806-7.611 15.571-4.839 3.766-11.022 5.062-16.964 3.56l-79.178-20.036c-8.768-2.219-14.892-10.085-14.892-19.131v-13.509c0-6.131 2.774-11.807 7.612-15.572 3.518-2.738 7.745-4.172 12.076-4.172 1.621 0 3.258.201 4.875.61l79.188 20.039c8.77 2.22 14.894 10.086 14.894 19.131zm0-69.695c0 6.13-2.774 11.806-7.611 15.571-4.839 3.766-11.022 5.062-16.964 3.56l-79.177-20.035c-8.769-2.219-14.893-10.086-14.893-19.132v-13.509c0-6.13 2.774-11.806 7.611-15.571 3.518-2.738 7.746-4.172 12.077-4.172 1.625 0 3.266.202 4.887.612l79.176 20.035c8.77 2.22 14.894 10.087 14.894 19.132zm0-70.2c0 6.251-2.718 12.292-7.663 16.117-4.728 3.657-10.734 4.963-16.539 3.611-.018-.004-.036-.006-.053-.01l-79.497-20.117c-8.769-2.219-14.893-10.085-14.893-19.13v-13.509c0-6.13 2.774-11.806 7.611-15.572 4.835-3.764 11.015-5.063 16.958-3.561l79.181 20.037c8.759 2.217 14.894 10.098 14.894 19.133v13.001zm0-69.187c0 6.13-2.774 11.806-7.611 15.571-4.839 3.766-11.022 5.063-16.964 3.56l-79.177-20.036c-8.769-2.218-14.893-10.085-14.893-19.131v-11.646c0-16.183 13.165-29.348 29.348-29.348h59.949c16.183 0 29.348 13.165 29.348 29.348z"/><path d="m288.082 57.355h-64.164c-24.453 0-44.348 19.895-44.348 44.348v38.297c0 4.143 3.357 7.5 7.5 7.5s7.5-3.357 7.5-7.5v-38.297c0-16.183 13.165-29.348 29.348-29.348h64.164c16.183 0 29.348 13.165 29.348 29.348v101.317c0 16.183-13.165 29.348-29.348 29.348h-64.164c-16.183 0-29.348-13.165-29.348-29.348v-28.02c0-4.143-3.357-7.5-7.5-7.5s-7.5 3.357-7.5 7.5v28.021c0 24.453 19.895 44.348 44.348 44.348h64.164c24.453 0 44.348-19.895 44.348-44.348v-101.318c0-24.453-19.895-44.348-44.348-44.348z"/><path d="m288.082 264.632h-64.164c-24.453 0-44.348 19.895-44.348 44.348v101.317c0 24.453 19.895 44.348 44.348 44.348h64.164c24.453 0 44.348-19.895 44.348-44.348v-101.318c0-24.453-19.895-44.347-44.348-44.347zm29.348 145.665c0 16.183-13.165 29.348-29.348 29.348h-64.164c-16.183 0-29.348-13.165-29.348-29.348v-101.318c0-16.183 13.165-29.348 29.348-29.348h64.164c16.183 0 29.348 13.165 29.348 29.348z"/></g></g><g/><g/><g/><g/><g/><g/><g/><g/><g/><g/><g/><g/><g/><g/><g/></svg>