<svg id="Layer_1" enable-background="new 0 0 511.864 511.864" viewBox="0 0 511.864 511.864" xmlns="http://www.w3.org/2000/svg"><g><g><path d="m43.988 334.141c-32.719 2.838-47.513 40.552-27.322 64.736 21.129 25.307 43.874 49.203 68.087 71.539 35.168 32.442 89.634 31.458 123.466-2.375l60.609-60.609c8.945-8.945 5.487-23.081-4.496-28.048-57.402-55.586-142.805-74.825-220.344-45.243z" fill="#d9d9f9"/><path d="m467.878 177.723c32.739-2.842 47.498-40.57 27.322-64.736-21.129-25.307-43.874-49.203-68.087-71.539-35.168-32.442-89.634-31.458-123.467 2.375l-60.609 60.609c-8.945 8.945-5.487 23.081 4.496 28.048 59.476 52.743 141.246 72.646 220.345 45.243z" fill="#ff899f"/><path d="m368.913 307.342-28.35 28.36c-24.68-1.4-77.261 18.01-96.791 0-29.805-27.505-29.448-85.862-55.459-116.98 77.212-25.391 139.05 1.538 170.94 58.86h.01c13.87 1.89 20.12 19.29 9.65 29.76z" fill="#ff899f"/><path d="m340.563 335.702-17.36 17.35c-68.48 68.49-181.15-16.55-270.21-16.48-15.6.02-23.26-18.84-12.17-29.92l45.71-45.71c19.09-19.1 41.62-26.26 66.12-26.66 1.75-1.04 15.41-8.9 35.66-15.56 25.98 31.09 53.96 60.45 83.71 87.91 19.53 18.01 43.86 27.67 68.54 29.07z" fill="#ff5f7f"/><path d="m471.043 205.212-45.71 45.71c-55.289 55.289-139.092 10.542-216.78-8.78-12.664-14.175-34.471-22.331-35.423-23.42-13.14-15.73.543-36.36 8.083-52.5 11.72-11.69 12.19-11.99 15.61-14.69 68.826-54.758 176.411 23.805 262.05 23.76 15.68 0 23.23 18.88 12.17 29.92z" fill="#efedff"/><path d="m208.553 242.142c-18.35-4.58-36.32-7.7-53.43-7.7-15.62 0-23.26-18.83-12.17-29.92l38.26-38.3c-7.54 16.14-6.45 36.28 6.69 52.01.555.635 8.41 10.209 20.65 23.91z" fill="#d9d9f9"/><g fill="#ffa1ac"><ellipse cx="212.583" cy="319.332" rx="29.816" ry="23.744" transform="matrix(.707 -.707 .707 .707 -163.537 243.848)"/><ellipse cx="326.863" cy="205.053" rx="29.816" ry="23.744" transform="matrix(.707 -.707 .707 .707 -49.258 291.186)"/></g></g><g><path d="m500.955 108.18c-21.252-25.455-44.386-49.762-68.759-72.245-38.287-35.321-97.084-34.185-133.855 2.585l-60.609 60.609c-7.577 7.578-9.321 18.478-5.14 27.867-17.792 3.603-34.452 11.726-49.237 26.511l-45.707 45.708c-7.648 7.647-9.747 19.312-4.653 29.416-20.214 3.607-37.279 12.516-51.769 27.005l-45.709 45.708c-7.365 7.365-9.672 18.136-5.157 28.162-29.533 10.924-40.487 48.982-19.452 74.177 21.252 25.455 44.386 49.762 68.759 72.245 38.254 35.291 97.052 34.217 133.855-2.584l60.609-60.609c7.554-7.555 9.321-18.425 5.163-27.816 17.792-3.608 34.41-11.757 49.214-26.562l45.708-45.708c8.377-8.378 9.66-20.883 3.891-30.638 18.411-2.974 36.45-10.518 52.39-25.646l45.85-45.845c7.365-7.365 9.672-18.136 5.157-28.162 29.532-10.923 40.487-48.982 19.451-74.178zm-31.643 61.831c-3.176-1.44-6.703-2.223-10.426-2.223-30.246-.687-56.329-8.07-87.806-17.76-3.959-1.22-8.156 1.002-9.375 4.961-1.219 3.958 1.003 8.156 4.961 9.375 30.631 9.43 61.115 18.136 92.219 18.424 9.025 0 13.146 10.834 6.854 17.125l-45.639 45.638c-25.191 23.863-58.018 28.819-109.734 16.571-4.027-.952-8.072 1.54-9.026 5.57-.955 4.03 1.539 8.072 5.569 9.026 14.787 3.501 31.14 6.519 47.787 6.841.999.756 2.197 1.275 3.526 1.453 7.808 1.042 11.454 10.962 5.387 17.03l-45.708 45.708c-15.555 15.555-33.684 22.527-53.592 24.138-.382.001-.761.031-1.136.089-44.111 3.111-97.187-19.747-148.38-33.313-4.004-1.061-8.109 1.326-9.171 5.329-1.061 4.004 1.325 8.11 5.329 9.171 50.381 13.349 104.071 36.429 151.507 33.863 4.5 3.396 5.723 10.442 1.066 15.099l-60.609 60.609c-31.058 31.058-80.728 32.008-113.078 2.166-23.896-22.044-46.578-45.875-67.415-70.833-16.2-19.406-4.503-48.865 20.13-52.218 9.443 4.282 11.206.166 38.968 4.802 4.079.681 7.95-2.07 8.633-6.162.683-4.085-2.076-7.951-6.162-8.633-11.214-1.873-21.313-2.783-30.873-2.783-9.311 0-13.223-10.896-6.993-17.125l45.709-45.708c15.868-15.869 35.538-23.856 60.093-24.428 1.125.116 2.269.166 3.435.128 23.089-.717 45.676 5.407 47.871 5.407 3.443 0 6.545-2.386 7.317-5.886.892-4.045-1.664-8.047-5.709-8.939-25.141-5.543-36.961-5.454-52.05-5.732-7.055-1.309-10.481-11.028-4.537-16.971l45.708-45.708c15.557-15.558 33.703-22.515 53.53-24.139.399.002.796-.026 1.187-.087 26.991-1.917 57.044 5.858 87.907 15.182 3.967 1.197 8.151-1.045 9.349-5.011 1.198-3.965-1.046-8.15-5.011-9.349-30.793-9.303-62.259-17.412-91.456-15.827-4.523-3.355-5.835-10.441-1.129-15.147l60.609-60.609c31.058-31.058 80.728-32.008 113.078-2.166 23.896 22.044 46.578 45.875 67.415 70.833 16.201 19.408 4.503 48.867-20.129 52.219z"/><path d="m269.951 221.536c-2.929 2.929-2.929 7.678.001 10.607 1.313 1.313 2.037 3.06 2.037 4.918 0 6.191-7.522 9.272-11.874 4.918-2.93-2.929-7.678-2.929-10.607 0-2.928 2.929-2.928 7.677 0 10.606 2.719 2.718 2.72 7.118.001 9.836-2.713 2.713-7.126 2.711-9.837 0-2.93-2.929-7.678-2.929-10.607 0s-2.929 7.678 0 10.606c13.261 13.259 36.205 4.72 37.434-14.06 18.753-1.227 27.349-24.145 14.06-37.433-2.929-2.927-7.678-2.926-10.608.002z"/><path d="m187.917 267.394c-12.311 12.313-3.96 32.27 5.304 32.27 6.622 0 10.041-8.065 5.304-12.803-2.442-2.443-2.442-6.417-.001-8.86 2.443-2.443 6.418-2.443 8.861 0 2.928 2.929 7.677 2.928 10.606 0 2.929-2.929 2.929-7.678-.001-10.607-8.291-8.29-21.782-8.291-30.073 0z"/><path d="m289.96 174.16c-18.746 0-28.501 22.835-15.037 36.302 2.929 2.928 7.677 2.929 10.606 0 2.93-2.929 2.93-7.678.001-10.607-2.442-2.443-2.442-6.417-.001-8.86 2.448-2.448 6.412-2.449 8.86 0 2.929 2.928 7.678 2.929 10.606 0 2.93-2.929 2.93-7.678.001-10.607-4.015-4.016-9.355-6.228-15.036-6.228z"/></g></g><g/><g/><g/><g/><g/><g/><g/><g/><g/><g/><g/><g/><g/><g/><g/></svg>