<svg height="512" viewBox="0 0 128 128" width="512" xmlns="http://www.w3.org/2000/svg"><g><g><path d="m101.179 53.3c-21.623-1.739-37.179 12.155-37.179 12.155s-15.556-13.894-37.179-12.155c0 0-3.759 23.074 16.09 31.014 0 0 12.653 1.736 21.089-4.714 8.436 6.45 21.089 4.714 21.089 4.714 19.849-7.943 16.09-31.014 16.09-31.014zm-45.118 21.725a25.822 25.822 0 0 1 -9.223 1.559c-.791 0-1.458-.03-1.951-.063-5.048-2.318-8.2-6.266-9.625-12.04a26.826 26.826 0 0 1 -.574-3.177 47.83 47.83 0 0 1 21.373 8.09zm36.677-10.544c-1.424 5.774-4.577 9.722-9.625 12.04-.493.033-1.16.063-1.951.063a25.822 25.822 0 0 1 -9.223-1.559v-5.631a47.83 47.83 0 0 1 21.373-8.094 26.826 26.826 0 0 1 -.574 3.181z" fill="#ff7ceb"/><g><path d="m61.894 54.742c3.169 5.785 1.821 12.62 1.821 12.62s-6.485-2.544-9.655-8.328-1.821-12.619-1.821-12.619 6.485 2.543 9.655 8.327z" fill="#fff07e"/><path d="m66.106 54.742c-3.169 5.785-1.821 12.62-1.821 12.62s6.485-2.544 9.655-8.328 1.821-12.619 1.821-12.619-6.485 2.543-9.655 8.327z" fill="#ff9f23"/></g><path d="m68.466 55.419c0 6.6-4.466 11.943-4.466 11.943s-4.466-5.347-4.466-11.943 4.466-11.942 4.466-11.942 4.466 5.346 4.466 11.942z" fill="#ffd322"/></g><g fill="#002e49"><path d="m32.951 61.512a28.591 28.591 0 0 0 .612 3.387c1.561 6.334 5.026 10.656 10.593 13.212a1.767 1.767 0 0 0 .614.157c.664.045 1.36.067 2.068.067a27.335 27.335 0 0 0 9.874-1.686 1.749 1.749 0 0 0 1.1-1.624v-5.625a1.751 1.751 0 0 0 -.762-1.445 49.7 49.7 0 0 0 -22.177-8.387 1.75 1.75 0 0 0 -1.921 1.949zm21.36 8.817v3.465a25.9 25.9 0 0 1 -7.473 1.041c-.583 0-1.094-.018-1.511-.04-4.366-2.1-7.1-5.614-8.365-10.733-.058-.233-.111-.468-.162-.708a46.687 46.687 0 0 1 17.511 6.975z"/><path d="m102.906 53.016a1.75 1.75 0 0 0 -1.588-1.463 50.843 50.843 0 0 0 -20.638 2.7 1.751 1.751 0 0 0 1.132 3.313 47.6 47.6 0 0 1 17.788-2.617c.384 4.865.472 21.333-14.95 27.652-1.609.173-12.4 1.1-19.587-4.394a1.749 1.749 0 1 0 -2.126 2.779c5.881 4.5 13.514 5.3 18.181 5.3a33.45 33.45 0 0 0 4.209-.237 1.84 1.84 0 0 0 .412-.108c20.909-8.37 17.206-32.681 17.167-32.925z"/><path d="m58.179 80.839a34.384 34.384 0 0 1 -14.829 1.761c-7.509-3.075-12.286-8.812-14.2-17.055a35.729 35.729 0 0 1 -.755-10.6c1.446-.068 2.9-.068 4.349 0a1.75 1.75 0 0 0 .166-3.5 49.07 49.07 0 0 0 -6.232.1 1.75 1.75 0 0 0 -1.588 1.463c-.039.244-3.742 24.555 17.167 32.92a1.787 1.787 0 0 0 .412.108 33.244 33.244 0 0 0 4.178.233 35.4 35.4 0 0 0 12.6-2.178 1.75 1.75 0 0 0 -1.273-3.26z"/><path d="m38.687 55.618q.43.076.857.16a1.725 1.725 0 0 0 .342.034 1.75 1.75 0 0 0 .338-3.467c-.308-.061-.62-.119-.932-.174a1.75 1.75 0 1 0 -.605 3.447z"/><path d="m45.65 57.382a55.084 55.084 0 0 1 7.15 2.939 17.5 17.5 0 0 0 1.418 2.079 1.75 1.75 0 1 0 2.73-2.191 13.831 13.831 0 0 1 -1.348-2.016 17.85 17.85 0 0 1 -1.871-9.068 20.548 20.548 0 0 1 4.318 3.383 17.326 17.326 0 0 0 -.259 2.911c0 7.148 4.685 12.817 4.873 13.064a2.026 2.026 0 0 0 2.266.507c.29-.109 7.117-2.846 10.552-9.115s2.064-13.495 2-13.8a1.749 1.749 0 0 0 -2.356-1.291 24.026 24.026 0 0 0 -6.223 3.884 24.091 24.091 0 0 0 -3.557-6.314 1.812 1.812 0 0 0 -2.686 0 24.091 24.091 0 0 0 -3.557 6.314 24.026 24.026 0 0 0 -6.223-3.883 1.749 1.749 0 0 0 -2.356 1.291 24.033 24.033 0 0 0 .361 9.531c-1.37-.572-2.752-1.093-4.136-1.549a1.75 1.75 0 1 0 -1.1 3.324zm28.625-8.257a17.856 17.856 0 0 1 -1.875 9.068 15.564 15.564 0 0 1 -3.639 4.336 19.286 19.286 0 0 0 1.451-7.11 17.326 17.326 0 0 0 -.259-2.911 20.482 20.482 0 0 1 4.322-3.383zm-10.275-2.556a17.858 17.858 0 0 1 2.716 8.85 17.865 17.865 0 0 1 -2.716 8.85 17.858 17.858 0 0 1 -2.716-8.85 17.865 17.865 0 0 1 2.716-8.85z"/><path d="m82.673 74.8c-.417.022-.928.04-1.511.04a29.639 29.639 0 0 1 -3.011-.152 1.75 1.75 0 1 0 -.357 3.482 33.472 33.472 0 0 0 3.368.17c.708 0 1.4-.022 2.068-.067a1.767 1.767 0 0 0 .614-.157c5.567-2.556 9.032-6.878 10.593-13.212a28.591 28.591 0 0 0 .612-3.387 1.75 1.75 0 0 0 -1.921-1.949 49.7 49.7 0 0 0 -22.177 8.382 1.751 1.751 0 0 0 -.762 1.445v5.63a1.75 1.75 0 0 0 3.5 0v-4.7a46.687 46.687 0 0 1 17.511-6.971c-.051.24-.1.475-.162.708-1.262 5.119-3.999 8.633-8.365 10.738z"/></g></g></svg>