<svg id="Capa_1" enable-background="new 0 0 512 512" height="512" viewBox="0 0 512 512" width="512" xmlns="http://www.w3.org/2000/svg"><g><g><path d="m256.001 7.5c-89.264 0-161.626 72.363-161.626 161.626v157.43c0 34.93 12.927 68.624 36.29 94.591l56.936 63.282c11.494 12.776 27.872 20.071 45.057 20.071h46.686c17.185 0 33.563-7.295 45.057-20.071l56.936-63.282c23.363-25.967 36.29-59.661 36.29-94.591v-157.43c0-89.263-72.362-161.626-161.626-161.626zm-126.178 288.459-31.218-35.191c-2.596-2.927-3.334-7.061-1.91-10.705l12.191-31.196c2.268-5.805 9.092-8.332 14.594-5.406l72.757 38.692c4.245 2.258 6.394 7.127 5.2 11.785-.739 2.882-2.674 5.31-5.318 6.673l-53.731 27.695c-4.232 2.181-9.405 1.215-12.565-2.347zm216.901 115.332-37.81 42.024c-4.852 5.393-12.997 6.24-18.855 1.961l-14.592-10.658c-2.422-1.769-5.343-2.722-8.341-2.722h-22.246c-2.999 0-5.92.953-8.341 2.722l-14.592 10.658c-5.858 4.279-14.003 3.431-18.855-1.961l-37.81-42.024c-5.891-6.547-4.429-16.828 3.054-21.474l62.013-38.502c2.24-1.391 4.823-2.127 7.46-2.127h36.393c2.636 0 5.22.737 7.46 2.127l62.013 38.502c7.478 4.646 8.94 14.927 3.049 21.474zm66.673-150.523-31.218 35.191c-3.16 3.562-8.333 4.528-12.566 2.347l-53.731-27.695c-2.644-1.363-4.58-3.791-5.318-6.673-1.194-4.658.955-9.527 5.2-11.785l72.757-38.692c5.502-2.926 12.326-.399 14.594 5.406l12.191 31.196c1.425 3.644.688 7.779-1.909 10.705z" fill="#df646e"/></g><g><path d="m272.164 8.298v133.25c0 5.579-4.523 10.102-10.102 10.102h-12.122c-5.579 0-10.102-4.523-10.102-10.102v-133.25c5.313-.525 10.708-.798 16.163-.798s10.85.273 16.163.798z" fill="#f7e365"/></g><g><path d="m336.814 29.127v66.416c0 3.483-1.794 6.72-4.748 8.566l-18.304 11.44c-4.037 2.523-9.273-.379-9.273-5.14v-95.515c11.365 3.576 22.194 8.365 32.325 14.233z" fill="#f7e365"/></g><g><path d="m207.514 14.894v95.515c0 4.761-5.236 7.663-9.273 5.14l-18.304-11.44c-2.954-1.846-4.748-5.083-4.748-8.566v-66.416c10.131-5.868 20.96-10.657 32.325-14.233z" fill="#f7e365"/></g><g><path d="m393.836 84.689c-1.712 2.181-3.509 4.302-5.404 6.348l-16.792 18.13c-6.54 7.063-14.043 13.155-22.298 18.108l-56.185 33.711c-17.85 10.71-30.94 27.657-37.156 47.064-6.216-19.407-19.306-36.355-37.156-47.064l-56.184-33.711c-8.256-4.953-15.758-11.046-22.299-18.108l-16.792-18.13c-1.895-2.046-3.692-4.167-5.404-6.348-15.086 24.574-23.791 53.488-23.791 84.437v157.43c0 33.139 11.642 65.16 32.785 90.531l13.202-14.254c6.54-7.063 14.043-13.155 22.298-18.108l56.185-33.711c17.85-10.71 30.94-27.657 37.156-47.064 6.216 19.407 19.306 36.354 37.156 47.064l56.184 33.711c8.256 4.953 15.758 11.046 22.299 18.108l13.202 14.254c21.143-25.371 32.785-57.392 32.785-90.531v-157.43c0-30.95-8.705-59.863-23.791-84.437zm-192.398 179.249c-.739 2.882-2.674 5.31-5.318 6.673l-53.731 27.695c-4.233 2.182-9.406 1.216-12.566-2.347l-31.218-35.191c-2.596-2.927-3.334-7.061-1.91-10.705l12.191-31.196c2.268-5.805 9.092-8.332 14.594-5.406l72.757 38.692c4.246 2.257 6.395 7.127 5.201 11.785zm211.959-3.17-31.218 35.191c-3.16 3.562-8.333 4.528-12.566 2.347l-53.731-27.695c-2.644-1.363-4.58-3.791-5.318-6.673-1.194-4.658.955-9.527 5.2-11.785l72.757-38.692c5.502-2.926 12.326-.399 14.594 5.406l12.191 31.196c1.425 3.644.688 7.779-1.909 10.705z" fill="#dc4955"/></g><g><path d="m458.561 130.748-12.96-68.582c-1.115-5.898-9.205-6.762-11.539-1.232l-4.208 9.968c-5.692 13.483-13.689 25.871-23.634 36.609l-16.791 18.13c-8.097 8.743-17.394 16.292-27.612 22.423l-56.185 33.711c-18.256 10.954-29.426 30.682-29.426 51.972v44.505c0 21.29 11.17 41.019 29.426 51.972l56.185 33.711c10.218 6.131 19.515 13.681 27.612 22.423l16.791 18.13c9.945 10.737 17.942 23.126 23.634 36.609l4.208 9.968c2.334 5.53 10.425 4.666 11.539-1.232l12.96-68.582c2.337-12.368 3.514-24.928 3.514-37.515v-175.473c0-12.587-1.177-25.147-3.514-37.515zm-45.164 130.02-31.218 35.191c-3.16 3.562-8.333 4.528-12.566 2.347l-53.731-27.695c-2.644-1.363-4.58-3.791-5.318-6.673-1.194-4.658.955-9.527 5.2-11.785l72.757-38.692c5.502-2.926 12.326-.399 14.594 5.406l12.191 31.196c1.425 3.644.688 7.779-1.909 10.705z" fill="#f7e365"/></g><g><path d="m395.309 300.823c-18.7 18.701-38.412 34.856-58.298 48.231l24.804 14.883c10.218 6.131 19.515 13.681 27.612 22.423l16.791 18.13c9.945 10.737 17.942 23.126 23.634 36.609l4.208 9.968c2.334 5.53 10.425 4.666 11.539-1.232l12.96-68.582c2.337-12.368 3.514-24.928 3.514-37.515v-132.18c-15.82 30.134-38.363 60.865-66.764 89.265z" fill="#f3d332"/></g><g><path d="m206.372 181.775-56.185-33.711c-10.218-6.131-19.515-13.681-27.612-22.423l-16.791-18.13c-9.945-10.737-17.942-23.126-23.634-36.609l-4.208-9.968c-2.334-5.53-10.425-4.666-11.539 1.232l-12.96 68.582c-2.337 12.368-3.514 24.928-3.514 37.515v175.474c0 12.587 1.176 25.147 3.514 37.515l12.96 68.582c1.115 5.898 9.205 6.762 11.539 1.232l4.208-9.968c5.692-13.483 13.689-25.871 23.634-36.609l16.791-18.13c8.097-8.743 17.394-16.292 27.612-22.423l56.185-33.711c18.256-10.954 29.426-30.682 29.426-51.972v-44.505c0-21.29-11.17-41.019-29.426-51.973zm-4.934 82.163c-.739 2.882-2.674 5.31-5.318 6.673l-53.731 27.695c-4.233 2.182-9.406 1.216-12.566-2.347l-31.218-35.191c-2.596-2.927-3.334-7.061-1.91-10.705l12.191-31.196c2.268-5.805 9.092-8.332 14.594-5.406l72.757 38.692c4.246 2.257 6.395 7.127 5.201 11.785z" fill="#f7e365"/></g><g><path d="m221.426 194.564c-7.97 17.928-18.439 36.269-31.202 54.39l6.014 3.198c4.245 2.258 6.394 7.127 5.2 11.785-.739 2.882-2.674 5.31-5.318 6.673l-40.847 21.054c-2.891 3.074-5.825 6.133-8.85 9.158-30.116 30.116-62.85 53.638-94.719 69.551.484 3.639 1.055 7.268 1.738 10.879l12.96 68.582c1.115 5.898 9.205 6.762 11.539 1.232l4.208-9.968c5.692-13.483 13.689-25.871 23.634-36.609l16.791-18.13c8.097-8.743 17.394-16.292 27.612-22.423l56.185-33.711c18.256-10.954 29.426-30.682 29.426-51.972v-44.505c.001-14.562-5.227-28.391-14.371-39.184z" fill="#f3d332"/></g><g><circle cx="413.002" cy="335.671" fill="#df646e" r="16.163"/></g><g><circle cx="99" cy="335.671" fill="#df646e" r="16.163"/></g><g><path d="m197.515 458.331c4.262 4.738 10.144 7.188 16.081 7.188 4.444 0 8.921-1.373 12.772-4.186l14.592-10.658c1.146-.836 2.5-1.279 3.918-1.279h22.247c1.418 0 2.772.442 3.917 1.278l14.593 10.658c8.997 6.573 21.401 5.283 28.854-3l37.811-42.024c4.297-4.775 6.242-11.162 5.338-17.522s-4.553-11.952-10.011-15.34l-62.012-38.502c-3.431-2.13-7.378-3.256-11.416-3.256h-36.393c-4.039 0-7.986 1.126-11.416 3.256l-62.013 38.502c-5.458 3.388-9.106 8.979-10.011 15.34-.904 6.36 1.041 12.747 5.338 17.522zm-28.298-57.434c.163-1.147.779-3.284 3.072-4.708l62.014-38.502c1.052-.653 2.264-.999 3.503-.999h36.393c1.239 0 2.45.345 3.503.999l62.013 38.502c2.293 1.423 2.909 3.561 3.072 4.708s.167 3.371-1.638 5.377l-37.811 42.024c-2.288 2.542-6.096 2.938-8.855.92l-14.593-10.658c-3.729-2.725-8.144-4.166-12.765-4.166h-22.247c-4.619 0-9.033 1.44-12.765 4.165l-14.593 10.659c-2.762 2.016-6.567 1.621-8.855-.921l-37.811-42.024c-1.804-2.005-1.8-4.229-1.637-5.376z"/><path d="m462.072 206.32c4.143 0 7.5-3.358 7.5-7.5v-30.56c0-13.046-1.226-26.135-3.642-38.902l-12.961-68.585c-1.123-5.924-5.906-10.332-11.902-10.967-5.985-.636-11.579 2.667-13.915 8.208l-4.211 9.971c-3.965 9.394-9.091 18.168-15.279 26.201-12.837-25.978-32.095-48.19-56.234-64.714-28.167-19.281-61.165-29.472-95.427-29.472-40.835 0-80.261 14.754-111.016 41.545-3.124 2.721-3.45 7.458-.729 10.582s7.46 3.449 10.581.729c4.118-3.587 8.412-6.931 12.851-10.037v52.725c0 6.108 3.093 11.688 8.273 14.926l18.304 11.439c2.193 1.372 4.688 2.061 7.188 2.061 2.261 0 4.524-.564 6.571-1.698 4.311-2.389 6.988-6.934 6.988-11.862v-89.864c5.686-1.568 11.471-2.807 17.325-3.716v124.719c0 9.706 7.896 17.602 17.603 17.602h12.121c9.706 0 17.603-7.896 17.603-17.602v-124.737c5.857.901 11.638 2.143 17.325 3.707v89.891c0 4.928 2.678 9.473 6.988 11.862 2.047 1.134 4.311 1.699 6.571 1.699 2.499 0 4.995-.69 7.188-2.061l18.305-11.44c5.181-3.238 8.273-8.817 8.273-14.926v-52.727c23.099 16.175 41.183 38.104 52.572 63.733l-12.957 13.991c-7.623 8.226-16.363 15.32-25.979 21.087l-56.178 33.718c-20.399 12.233-33.072 34.612-33.072 58.402v44.5c0 23.79 12.673 46.169 33.07 58.401l56.182 33.721c9.613 5.766 18.354 12.86 25.975 21.084l5.747 6.206c-4.105 6.557-8.762 12.756-13.909 18.472l-56.939 63.28c-10.057 11.178-24.449 17.588-39.485 17.588h-46.68c-15.036 0-29.428-6.41-39.485-17.586l-25.17-27.971c-2.773-3.08-7.516-3.328-10.592-.558-3.079 2.771-3.329 7.513-.559 10.592l25.17 27.97c12.898 14.333 31.354 22.553 50.637 22.553h46.68c19.282 0 37.738-8.22 50.636-22.553l56.938-63.278c4.828-5.362 9.266-11.108 13.28-17.148l.523.564c9.382 10.137 16.859 21.721 22.225 34.433l4.208 9.964c2.146 5.092 7.033 8.291 12.452 8.291.484 0 .974-.025 1.465-.078 5.996-.636 10.779-5.043 11.903-10.973l12.96-68.578c2.416-12.769 3.642-25.858 3.642-38.904v-109.92c0-4.142-3.357-7.5-7.5-7.5s-7.5 3.358-7.5 7.5v109.92c0 12.112-1.138 24.263-3.38 36.117l-12.076 63.902-2.354-5.576c-6.044-14.319-14.468-27.37-25.037-38.79l-16.792-18.132c-8.588-9.267-18.434-17.258-29.262-23.752l-56.182-33.721c-15.906-9.539-25.787-26.988-25.787-45.538v-44.5c0-18.55 9.881-36 25.789-45.54l56.178-33.719c10.83-6.495 20.676-14.487 29.266-23.755l16.791-18.132c10.568-11.418 18.992-24.469 25.035-38.787l2.355-5.577 12.076 63.904c2.242 11.852 3.38 24.003 3.38 36.115v30.56c-.002 4.143 3.355 7.501 7.498 7.501zm-262.059-98.507-16.102-10.063c-.766-.479-1.223-1.303-1.223-2.206v-61.99c5.609-3.034 11.396-5.709 17.325-8.021zm64.652 33.735c0 1.435-1.167 2.602-2.603 2.602h-12.121c-1.436 0-2.603-1.167-2.603-2.602v-126.295c2.878-.162 5.766-.253 8.663-.253 2.9 0 5.786.107 8.663.266v126.282zm63.427-43.798-16.103 10.063v-82.33c5.923 2.31 11.704 5.005 17.325 8.052v62.008c.001.903-.456 1.728-1.222 2.207z"/><path d="m154.045 370.367 56.185-33.711c20.397-12.238 33.068-34.617 33.068-58.404v-44.505c0-23.787-12.671-46.166-33.068-58.404l-56.185-33.711c-9.611-5.767-18.349-12.862-25.968-21.088l-12.97-14.003c4.599-10.336 10.328-20.142 17.071-29.204 2.473-3.323 1.782-8.022-1.541-10.494-3.322-2.472-8.021-1.782-10.494 1.54-6.03 8.105-11.308 16.759-15.792 25.819-6.192-8.033-11.323-16.812-15.293-26.217l-4.207-9.967c-2.343-5.551-7.958-8.852-13.933-8.21-5.991.639-10.768 5.046-11.886 10.966l-12.962 68.582c-2.418 12.798-3.644 25.889-3.644 38.908v175.474c0 13.02 1.226 26.11 3.645 38.908l12.96 68.581c1.119 5.92 5.896 10.328 11.887 10.967.495.053.987.079 1.476.079 5.418 0 10.308-3.198 12.456-8.289l4.208-9.968c5.369-12.718 12.848-24.302 22.228-34.429l.522-.564c4.014 6.04 8.451 11.786 13.277 17.145l8.359 9.29c1.481 1.646 3.525 2.483 5.577 2.483 1.788 0 3.582-.635 5.015-1.925 3.079-2.771 3.329-7.513.559-10.592l-8.361-9.292c-5.145-5.713-9.801-11.912-13.906-18.468l5.748-6.207c7.621-8.228 16.358-15.323 25.969-21.09zm-83.012-306.516.003.009c-.001-.004-.002-.006-.003-.009zm4.208 374.33-2.354 5.575-12.075-63.896c-2.245-11.882-3.384-24.036-3.384-36.123v-175.474c0-12.087 1.139-24.241 3.383-36.123l12.076-63.896 2.354 5.574c6.048 14.329 14.473 27.379 25.04 38.789l16.792 18.13c8.584 9.268 18.427 17.261 29.256 23.758l56.185 33.711c15.904 9.543 25.785 26.994 25.785 45.542v44.505c0 18.548-9.881 35.999-25.785 45.542l-56.185 33.711c-10.829 6.497-20.672 14.49-29.257 23.758l-16.79 18.13c-10.569 11.409-18.993 24.459-25.041 38.787z"/><path d="m323.757 218.795c1.188 0 2.393-.283 3.515-.879l49.593-26.374c5.081-2.702 10.799-4.13 16.537-4.13 4.143 0 7.5-3.358 7.5-7.5s-3.357-7.5-7.5-7.5c-8.186 0-16.339 2.036-23.58 5.887l-49.593 26.373c-3.657 1.945-5.045 6.486-3.101 10.144 1.349 2.535 3.945 3.979 6.629 3.979z"/><path d="m118.601 187.412c5.738 0 11.456 1.428 16.537 4.131l49.593 26.373c1.122.597 2.327.879 3.515.879 2.685 0 5.28-1.445 6.629-3.98 1.944-3.657.557-8.199-3.101-10.144l-49.593-26.373c-7.241-3.852-15.395-5.887-23.58-5.887-4.143 0-7.5 3.358-7.5 7.5s3.357 7.501 7.5 7.501z"/><path d="m303.299 265.799c1.269 4.953 4.604 9.136 9.147 11.478l53.73 27.695c2.608 1.344 5.421 1.995 8.208 1.995 4.998 0 9.913-2.094 13.405-6.031l31.219-35.191c4.486-5.059 5.744-12.113 3.283-18.412l-12.191-31.196c-1.859-4.759-5.674-8.506-10.466-10.281-4.789-1.773-10.125-1.416-14.635.982l-72.758 38.692c-7.324 3.897-11.002 12.232-8.942 20.269zm15.987-7.024 72.758-38.692c.487-.259.953-.344 1.357-.344.43 0 .788.097 1.025.185.458.17 1.289.613 1.704 1.674l12.191 31.195c.4 1.026.195 2.176-.534 2.999l-31.218 35.19c-.886.998-2.331 1.27-3.52.657l-53.731-27.696c-.739-.381-1.282-1.062-1.489-1.869-.334-1.308.264-2.665 1.457-3.299z"/><path d="m124.212 300.936c3.492 3.938 8.406 6.031 13.405 6.031 2.787 0 5.6-.65 8.208-1.995l53.729-27.695c4.545-2.342 7.88-6.526 9.147-11.477 2.062-8.039-1.616-16.374-8.942-20.27l-72.758-38.691c-4.51-2.399-9.846-2.757-14.635-.983-4.792 1.775-8.606 5.522-10.466 10.281l-12.19 31.196c-2.461 6.298-1.203 13.353 3.284 18.412zm-20.531-48.143 12.191-31.196c.415-1.061 1.246-1.504 1.704-1.674.236-.087.596-.185 1.025-.185.404 0 .87.085 1.357.345l72.758 38.692c1.192.634 1.791 1.991 1.455 3.301-.206.806-.749 1.486-1.489 1.868l-53.73 27.695c-1.188.612-2.634.34-3.52-.657l-31.217-35.19c-.729-.824-.934-1.973-.534-2.999z"/><path d="m413.002 359.333c13.048 0 23.663-10.615 23.663-23.663s-10.615-23.663-23.663-23.663c-13.047 0-23.662 10.615-23.662 23.663s10.616 23.663 23.662 23.663zm0-32.325c4.776 0 8.663 3.886 8.663 8.663s-3.887 8.663-8.663 8.663-8.662-3.886-8.662-8.663 3.886-8.663 8.662-8.663z"/><path d="m99 312.008c-13.048 0-23.663 10.615-23.663 23.663s10.616 23.662 23.663 23.662 23.662-10.615 23.662-23.663-10.615-23.662-23.662-23.662zm0 32.325c-4.776 0-8.663-3.886-8.663-8.663s3.887-8.663 8.663-8.663 8.662 3.886 8.662 8.663-3.885 8.663-8.662 8.663z"/></g></g></svg>