<svg id="Capa_1" enable-background="new 0 0 511.816 511.816" height="512" viewBox="0 0 511.816 511.816" width="512" xmlns="http://www.w3.org/2000/svg"><g><g><path d="m421.704 184.607v157.275c0 38.053-18.578 73.958-50.307 97.225l-68.219 50.014c-27.856 20.403-66.686 20.403-94.542 0l-68.219-50.014c-31.729-23.267-50.307-59.172-50.307-97.225v-157.275c0-38.598 19.132-74.966 51.638-98.173l57.74-41.22 1.674-1.19 8.28-5.91c27.514-19.647 65.415-19.647 92.929 0l8.28 5.91 1.674 1.19 57.74 41.22c32.507 23.207 51.639 59.576 51.639 98.173z" fill="#f6a96c"/><path d="m370.066 86.434-57.74-41.22-1.674-1.19-8.28-5.91c-16.844-12.028-37.579-16.678-57.443-13.979 12.583 1.71 24.816 6.36 35.486 13.979l8.28 5.91 1.674 1.19 57.74 41.22c32.506 23.207 51.638 59.576 51.638 98.173v157.275c0 38.053-18.578 73.958-50.307 97.225l-68.219 50.014c-10.862 7.956-23.395 12.795-36.293 14.546 20.179 2.74 41.255-2.099 58.249-14.546l68.219-50.014c31.729-23.267 50.307-59.172 50.307-97.225v-157.275c.001-38.597-19.131-74.966-51.637-98.173z" fill="#ea9b58"/><path d="m310.652 44.024-54.745 21.321-54.745-21.321 8.28-5.91c27.514-19.647 65.415-19.647 92.929 0z" fill="#fde2db"/><path d="m280.415 38.114 8.28 5.91 1.674 1.19 6.081 4.341 14.202-5.531-8.28-5.91c-16.844-12.028-37.579-16.678-57.443-13.979 12.583 1.71 24.816 6.36 35.486 13.979z" fill="#ffcebf"/><path d="m486.947 107.039-231.039 59.067-231.04-59.067c-5.869-1.5-11.578 2.933-11.578 8.991v51.633c0 4.803 3.665 8.812 8.448 9.243l234.169 21.075h.001.001l234.169-21.075c4.783-.431 8.448-4.44 8.448-9.243v-51.633c-.001-6.058-5.71-10.491-11.579-8.991z" fill="#fccd7f"/><g fill="#f0b95f"><path d="m244.929 168.913 10.978-2.807-231.039-59.067c-3.707-.948-7.347.476-9.528 3.177z"/><path d="m486.947 107.039-12.428 3.177c1.272 1.575 2.05 3.582 2.05 5.813v51.633c0 4.803-3.665 8.812-8.448 9.243l-223.191 20.087 10.977.988h.001.001l234.169-21.075c4.783-.43 8.448-4.44 8.448-9.243v-51.632c-.001-6.058-5.71-10.491-11.579-8.991z"/></g><path d="m485.896 8.066-229.989 89.012-229.988-89.012c-6.081-2.354-12.629 2.133-12.629 8.654v38.957c0 4.185 2.801 7.851 6.838 8.953l235.779 64.322v.001h.001.001v-.001l235.779-64.322c4.037-1.101 6.838-4.768 6.838-8.953v-38.957c-.001-6.521-6.549-11.008-12.63-8.654z" fill="#8ce1a4"/><g fill="#78c2a4"><path d="m244.929 101.327 10.978-4.249-229.988-89.012c-4.503-1.743-9.255.27-11.422 4.077z"/><path d="m485.896 8.066-10.535 4.077c.759 1.334 1.208 2.885 1.208 4.577v38.957c0 4.185-2.801 7.851-6.838 8.953l-224.802 61.327 10.977 2.995v.001h.001.001v-.001l235.78-64.322c4.037-1.101 6.838-4.768 6.838-8.953v-38.957c-.001-6.521-6.549-11.008-12.63-8.654z"/></g><g><circle cx="160.428" cy="255.175" fill="#7a6d79" r="36.724"/><path d="m160.428 218.452c-3.824 0-7.511.586-10.978 1.671 14.919 4.668 25.745 18.595 25.745 35.053s-10.826 30.385-25.745 35.053c3.467 1.085 7.154 1.671 10.978 1.671 20.282 0 36.724-16.442 36.724-36.724s-16.442-36.724-36.724-36.724z" fill="#685e68"/><circle cx="351.387" cy="255.175" fill="#7a6d79" r="36.724"/><path d="m351.387 218.452c-3.824 0-7.511.586-10.978 1.671 14.919 4.668 25.745 18.595 25.745 35.053s-10.826 30.385-25.745 35.053c3.467 1.085 7.154 1.671 10.978 1.671 20.282 0 36.724-16.442 36.724-36.724s-16.442-36.724-36.724-36.724z" fill="#685e68"/></g><path d="m256.647 358.229h-1.48c-13.134 0-23.782-10.647-23.782-23.782v-69.492c0-13.134 10.647-23.782 23.782-23.782h1.48c13.134 0 23.782 10.647 23.782 23.782v69.492c0 13.135-10.648 23.782-23.782 23.782z" fill="#8ce1a4"/><path d="m256.647 241.174h-1.48c-3.666 0-7.137.831-10.238 2.313 8.009 3.826 13.543 12.001 13.543 21.469v69.492c0 9.468-5.534 17.643-13.543 21.469 3.101 1.482 6.572 2.313 10.238 2.313h1.48c13.134 0 23.782-10.647 23.782-23.782v-69.492c0-13.135-10.647-23.782-23.782-23.782z" fill="#78c2a4"/><path d="m295.847 443.985h-79.879c-7.805 0-14.133-6.327-14.133-14.133v-1.566c0-19.999 16.212-41.253 36.211-41.253h35.724c19.999 0 36.211 21.255 36.211 41.253v1.566c-.001 7.805-6.329 14.133-14.134 14.133z" fill="#fe646f"/><path d="m273.769 387.033h-21.957c19.999 0 36.211 21.255 36.211 41.253v1.566c0 7.805-6.327 14.133-14.133 14.133h21.957c7.805 0 14.133-6.327 14.133-14.133v-1.566c0-19.998-16.212-41.253-36.211-41.253z" fill="#fd4755"/></g><g><path d="m493.66 71.865c7.281-1.984 12.366-8.643 12.366-16.192v-38.95c.231-10.721-11.413-19.882-22.834-15.648l-142.531 55.158-33.931-24.223c-28.554-21.051-72.33-21.601-101.644-.001l-33.934 24.226-142.523-55.158c-9.336-3.963-23.083 3.404-22.84 15.646v38.95c0 7.55 5.085 14.208 12.364 16.191l98.437 26.856c-5.737 6.224-10.851 12.943-15.262 20.126l-74.601-19.072c-9.134-2.534-21.016 4.711-20.938 16.252v51.638c0 8.754 6.574 15.938 15.278 16.708l25.619 2.306v47.188c0 4.142 3.358 7.5 7.5 7.5s7.5-3.358 7.5-7.5v-45.837l20.925 1.884v137.933c-3.275 45.217 15.935 90.288 53.372 117.311l68.222 50.016c29.842 21.915 72.804 22.467 103.409-.002l68.22-50.014c36.835-26.079 56.704-72.119 53.371-117.311v-108.386c0-4.142-3.357-7.5-7.5-7.5s-7.5 3.358-7.5 7.5v101.078h-55.094c-4.143 0-7.5 3.358-7.5 7.5s3.357 7.5 7.5 7.5h55.094c.315 10.927-.722 23.732-3.946 35.212l-51.849-13.017c-4.019-1.008-8.092 1.431-9.101 5.448s1.431 8.092 5.448 9.101l50.516 12.682c-4.713 11.028-11.198 21.36-19.23 30.562l-30.447-20.669c-3.429-2.327-8.092-1.435-10.418 1.993s-1.435 8.091 1.992 10.417l28.113 19.085c-2.657 2.346-5.43 4.587-8.32 6.707l-68.216 50.012c-10.522 7.707-22.787 12.187-35.34 13.464v-45.049h32.439c11.922.094 22.397-10.682 21.633-23.199 0-23.014-18.693-48.753-43.711-48.753h-10.361v-14.548c14.009-3.099 24.521-15.61 24.521-30.538v-69.492c0-14.927-10.513-27.439-24.521-30.538v-29.582l186.016-16.744v45.774c0 4.142 3.357 7.5 7.5 7.5s7.5-3.358 7.5-7.5v-47.124l26.313-2.369c8.717-.771 15.291-7.955 15.291-16.709v-51.638c.188-9.473-9.777-19.191-20.936-16.253l-74.604 19.074c-4.41-7.183-9.525-13.902-15.262-20.127zm-414.674 1.048 20.177-28.45 149.244 57.751v16.921zm139.852-31.966c7.742-4.576 18.469-8.638 29.569-9.619v23.047l-31.469-12.255c.351-.218.298-.199 1.9-1.173zm46.173-9.439c9.765 1.307 19.797 4.188 29.865 10.612l-31.469 12.256v-23.047c.63.063.399.027 1.604.179zm-1.604 70.706 148.681-57.539 20.145 28.4-168.826 46.059zm225.205-87.153c.473.194 1.305-1.03 2.414 1.662v38.95c0 .803-.538 1.51-1.313 1.721l-42.073 11.478-21.124-29.781zm-225.205 71.069v-15.657l46.186-17.988 14.326 10.227zm-61.186-33.645 46.187 17.988v15.657l-60.515-23.417zm-181.432 3.188v-38.95c.016-.333.376-2.076 2.419-1.66l61.526 23.815-21.156 29.831-41.48-11.317c-.771-.209-1.309-.916-1.309-1.719zm1.613 113.758c-.919-.082-1.613-.841-1.613-1.768v-51.638c.346-.38-.521-1.385 2.221-1.72l23.676 6.053v51.258zm39.284-45.237 118.595 30.321c4.014 1.027 8.098-1.395 9.124-5.408s-1.395-8.098-5.408-9.124l-67.364-17.223c4.745-7.065 10.286-13.59 16.535-19.517l115.24 31.44v21.769l-29.018-7.42c-4.016-1.03-8.098 1.395-9.124 5.408s1.395 8.098 5.408 9.124l32.733 8.37v17.841l-186.721-16.807zm240.794 304.092c.493 3.253-1.8 7.814-6.633 8.199h-79.879c-3.131.022-7.225-3.45-6.633-8.199 0-19.009 15.434-33.753 28.71-33.753h35.723c13.278 0 28.712 14.744 28.712 33.753zm-64.434-48.753c-25.017 0-43.71 25.739-43.71 48.753-.891 11.756 9.143 23.256 21.633 23.199h32.439v45.049c-12.552-1.277-24.816-5.756-35.336-13.462l-68.219-50.013c-2.891-2.12-5.663-4.362-8.321-6.708l28.112-19.084c3.427-2.326 4.319-6.99 1.993-10.417s-6.99-4.32-10.417-1.993l-30.447 20.669c-8.032-9.201-14.517-19.533-19.23-30.562l50.516-12.682c4.018-1.009 6.457-5.083 5.448-9.101s-5.085-6.456-9.101-5.448l-51.849 13.017c-2.935-9.94-4.301-23.822-3.946-35.212h55.094c4.142 0 7.5-3.358 7.5-7.5s-3.358-7.5-7.5-7.5h-55.094v-129.276l150.797 13.574v29.582c-14.009 3.099-24.521 15.611-24.521 30.538v69.492c0 14.928 10.513 27.439 24.521 30.538v14.548h-10.362zm34.883-114.577v69.492c-1.142 22.5-33.539 20.659-34.043 0v-69.492c1.129-22.492 33.527-20.669 34.043 0zm-9.522-75.181v-17.841l186.016-47.559v48.656zm225.402-75.47c.453.239 1.21-.845 2.218 1.721v51.638c0 .926-.693 1.686-1.625 1.769l-24.979 2.248v-51.141zm-93.627 8.455-131.775 33.692v-21.769l115.24-31.44c6.25 5.928 11.791 12.452 16.535 19.517z"/><path d="m196.699 264.68c-3.716-1.833-8.211-.307-10.045 3.406-4.965 10.062-15.015 16.312-26.226 16.312-16.114 0-29.224-13.11-29.224-29.224s13.11-29.223 29.224-29.223c9.724 0 18.784 4.818 24.237 12.89 2.318 3.432 6.982 4.335 10.414 2.016s4.335-6.981 2.016-10.414c-8.246-12.206-21.953-19.492-36.666-19.492-24.385 0-44.224 19.838-44.224 44.223s19.839 44.224 44.224 44.224c16.963 0 32.166-9.455 39.677-24.673 1.832-3.715.307-8.212-3.407-10.045z"/><path d="m307.163 255.175c0 24.385 19.839 44.224 44.224 44.224s44.224-19.839 44.224-44.224-19.839-44.223-44.224-44.223-44.224 19.838-44.224 44.223zm73.448 0c0 16.114-13.109 29.224-29.224 29.224s-29.224-13.11-29.224-29.224 13.109-29.223 29.224-29.223 29.224 13.109 29.224 29.223z"/><path d="m240.951 408.513c-4.142 0-7.5 3.358-7.5 7.5s3.358 7.5 7.5 7.5h32.418c4.143 0 7.5-3.358 7.5-7.5s-3.357-7.5-7.5-7.5z"/></g></g></svg>