<svg id="Layer_1" enable-background="new 0 0 512 512" viewBox="0 0 512 512" xmlns="http://www.w3.org/2000/svg"><g clip-rule="evenodd" fill-rule="evenodd"><g><path d="m51.367 258.413 306.888-41.473-84.745-145.642c-7.928-13.625-26.652-9.466-35.187 1.471l-40.894 52.404-76.781-23.647c-15.293-4.71-34.912 6.618-38.479 22.216z" fill="#ba7b62"/><path d="m51.367 258.413 10.824-1.463 27.506-120.268c3.567-15.598 23.187-26.925 38.479-22.216l76.781 23.647 40.894-52.403c8.535-10.937 27.259-15.096 35.187-1.471l-7.53-12.941c-7.928-13.625-26.652-9.466-35.187 1.471l-40.894 52.404-76.781-23.647c-15.293-4.71-34.912 6.618-38.479 22.216z" fill="#a76b52"/><path d="m113.787 396.186-55.373-58.246-44.297-152.092c-.364-1.248-.139-2.479.641-3.519s1.899-1.599 3.199-1.599h388.29l-43.353 162.287z" fill="#465759"/><path d="m113.787 396.186-2.79-2.935 235.356-50.235 43.354-162.287h16.54l-43.354 162.287z" fill="#3a484a"/><ellipse cx="69.705" cy="388.591" fill="#b4d2d7" rx="60.705" ry="60.705" transform="matrix(.707 -.707 .707 .707 -254.36 163.105)"/><path d="m105.371 339.469c15.173 11.035 25.038 28.925 25.038 49.122 0 33.526-27.178 60.704-60.704 60.704-18.983 0-35.928-8.715-47.059-22.36 10.014 7.283 22.337 11.583 35.667 11.583 33.526 0 60.705-27.178 60.705-60.704-.001-14.543-5.118-27.89-13.647-38.345z" fill="#9bb9c3"/><ellipse cx="69.704" cy="388.591" fill="#eff4f7" rx="20.235" ry="20.235" transform="matrix(.987 -.16 .16 .987 -61.345 16.183)"/><path d="m69.705 368.357c6.506 0 12.293 3.07 15.995 7.84-2.837-1.514-6.076-2.374-9.516-2.374-11.176 0-20.235 9.059-20.235 20.235 0 4.67 1.583 8.971 4.24 12.395-6.378-3.405-10.719-10.126-10.719-17.861 0-11.176 9.059-20.235 20.235-20.235z" fill="#e2e3e3"/></g><path d="m69.707 400.831c-6.748 0-12.237-5.489-12.237-12.238 0-6.751 5.489-12.23 12.237-12.23 6.743 0 12.233 5.478 12.233 12.23-.001 6.749-5.49 12.238-12.233 12.238zm0-40.469c-15.567 0-28.238 12.659-28.238 28.23 0 15.569 12.671 28.239 28.238 28.239 15.562 0 28.233-12.67 28.233-28.239 0-15.571-12.671-28.23-28.233-28.23zm286.722-24.15 39.4-147.481h-326.641c-.019 0-.028 0-.047 0-.014 0-.024 0-.033 0h-45.819l38.339 131.651c2.65-.321 5.343-.499 8.078-.499 35.934 0 65.492 27.74 68.44 62.921zm-9.488 81.141c-4.239 1.138-8.422-.562-10.672-4.331l-29.662-49.81 48.152-10.281-.75 55.34c-.06 4.381-2.838 7.951-7.068 9.082zm-277.234 23.939c29.063 0 52.703-23.642 52.703-52.7 0-29.061-23.64-52.711-52.703-52.711-29.068 0-52.708 23.651-52.708 52.711 0 29.059 23.64 52.7 52.708 52.7zm20.263-315.77c1.188-5.189 5.31-10.27 11.039-13.571 5.73-3.311 12.19-4.34 17.279-2.78l76.782 23.65c3.179.98 6.621-.11 8.668-2.73l40.89-52.4c3.471-4.45 9.469-7.309 14.6-6.96 3.292.219 5.701 1.73 7.371 4.589l56.678 97.411h-244.11zm413.015-48.741h-71.109c-3.617 0-6.796 2.43-7.729 5.941l-24.05 90.01h-58.306l-61.371-105.461c-4.353-7.479-11.492-11.92-20.113-12.498-10.441-.7-21.541 4.419-28.29 13.079l-37.509 48.051-71.51-22.02c-9.408-2.899-20.339-1.36-29.992 4.209-9.649 5.57-16.449 14.271-18.637 23.87l-11.61 50.772h-50.132c-2.518 0-4.89 1.179-6.399 3.199-1.509 2.01-1.99 4.62-1.278 7.03l41.098 141.12c-26.267 9.669-45.05 34.939-45.05 64.51 0 37.879 30.822 68.699 68.709 68.699 34.241 0 62.715-25.18 67.859-58l152.521-32.55 32.44 54.471c4.721 7.919 12.983 12.49 21.801 12.49 2.23 0 4.504-.29 6.753-.89 11.158-2.999 18.769-12.77 18.929-24.331l.868-64.359 42.583-159.411 24.555-91.929h64.969c4.433 0 8.017-3.581 8.017-8.001 0-4.421-3.584-8.001-8.017-8.001z"/></g></svg>