<svg height="512" viewBox="0 0 128 128" width="512" xmlns="http://www.w3.org/2000/svg"><g><g><path d="m30.474 19h33.426a0 0 0 0 1 0 0v45a0 0 0 0 1 0 0h-45a0 0 0 0 1 0 0v-33.431a11.569 11.569 0 0 1 11.574-11.569z" fill="#f5c464"/><path d="m63.9 19h33.436a11.569 11.569 0 0 1 11.569 11.569v33.431a0 0 0 0 1 0 0h-45a0 0 0 0 1 0 0v-45a0 0 0 0 1 -.005 0z" fill="#ee404c"/><path d="m18.9 64h45a0 0 0 0 1 0 0v45a0 0 0 0 1 0 0h-33.426a11.569 11.569 0 0 1 -11.574-11.569v-33.431a0 0 0 0 1 0 0z" fill="#009d8f"/><path d="m63.9 64h45a0 0 0 0 1 0 0v33.431a11.569 11.569 0 0 1 -11.564 11.569h-33.436a0 0 0 0 1 0 0v-45a0 0 0 0 1 0 0z" fill="#f79f63"/><g fill="#250a66"><path d="m50.915 39.75h-7.76v-7.76a1.75 1.75 0 1 0 -3.5 0v7.76h-7.755a1.75 1.75 0 1 0 0 3.5h7.76v7.76a1.75 1.75 0 0 0 3.5 0v-7.76h7.76a1.75 1.75 0 0 0 0-3.5z"/><path d="m93.533 39.75h-14.256a1.75 1.75 0 0 0 0 3.5h14.256a1.75 1.75 0 1 0 0-3.5z"/><path d="m91.63 88.4h-14.256a1.75 1.75 0 0 0 0 3.5h14.256a1.75 1.75 0 0 0 0-3.5z"/><path d="m91.63 81.1h-14.256a1.75 1.75 0 0 0 0 3.5h14.256a1.75 1.75 0 0 0 0-3.5z"/><path d="m49.367 78.538a1.749 1.749 0 0 0 -2.475 0l-5.487 5.487-5.487-5.487a1.75 1.75 0 1 0 -2.475 2.475l5.487 5.487-5.487 5.487a1.75 1.75 0 1 0 2.475 2.475l5.487-5.487 5.487 5.487a1.75 1.75 0 1 0 2.475-2.475l-5.487-5.487 5.487-5.487a1.751 1.751 0 0 0 0-2.475z"/></g></g><g fill="#250a66"><path d="m97.431 17.25h-3.395a1.75 1.75 0 0 0 0 3.5h3.395a9.83 9.83 0 0 1 9.819 9.819v31.681h-41.5v-41.5h3.608a1.75 1.75 0 0 0 0-3.5h-38.789a13.334 13.334 0 0 0 -13.319 13.319v66.862a13.334 13.334 0 0 0 13.319 13.319h66.862a13.334 13.334 0 0 0 13.319-13.319v-66.862a13.334 13.334 0 0 0 -13.319-13.319zm-76.681 13.319a9.83 9.83 0 0 1 9.819-9.819h31.681v41.5h-41.5zm0 66.862v-31.681h41.5v41.5h-31.681a9.83 9.83 0 0 1 -9.819-9.819zm86.5 0a9.83 9.83 0 0 1 -9.819 9.819h-31.681v-41.5h41.5z"/><path d="m81.372 20.75h1.77a1.75 1.75 0 0 0 0-3.5h-1.77a1.75 1.75 0 0 0 0 3.5z"/></g></g></svg>