<svg id="Layer_1" enable-background="new 0 0 512 512" viewBox="0 0 512 512" xmlns="http://www.w3.org/2000/svg"><g><g><g clip-rule="evenodd" fill-rule="evenodd"><path d="m266.764 172.041-51.891-51.891c-1.947-1.947-5.124-1.947-7.071 0l-32.467 32.467c-1.947 1.947-1.947 5.124 0 7.071l51.891 51.891c1.947 1.947 5.124 1.947 7.071 0l32.468-32.467c1.946-1.947 1.946-5.123-.001-7.071z" fill="#fdcd56"/><path d="m182.264 307.421h300v63.493h-300z" fill="#fdcd56"/><path d="m256 370.914h-120c-66 0-120-54-120-120s54-120 120-120 120 54 120 120z" fill="#636c77"/><path d="m491 307.421h-28.485v80.889c0 2.754 2.246 5 5 5h23.485c2.754 0 5-2.246 5-5v-75.89c0-2.753-2.246-4.999-5-4.999z" fill="#e4e8eb"/><circle cx="136" cy="250.914" fill="#a9b0bb" r="79.838"/><path d="m160.878 235.803h-49.756c-8.311 0-15.111 6.8-15.111 15.111s6.8 15.111 15.111 15.111h49.756c8.311 0 15.111-6.8 15.111-15.111s-6.8-15.111-15.111-15.111z" fill="#e4e8eb"/></g></g><path clip-rule="evenodd" d="m160.878 260.063h-49.737c-4.47 0-8.14-3.637-8.14-8.108 0-4.47 3.67-8.112 8.14-8.112h49.737c4.47 0 8.141 3.642 8.141 8.112-.001 4.471-3.671 8.108-8.141 8.108zm0-30.219h-49.737c-12.187 0-22.116 9.919-22.116 22.111 0 12.187 9.929 22.106 22.116 22.106h49.737c12.187 0 22.116-9.919 22.116-22.106 0-12.191-9.929-22.111-22.116-22.111zm-24.892 94.948c40.185 0 72.842-32.68 72.842-72.837 0-40.171-32.656-72.841-72.842-72.841-40.138 0-72.841 32.671-72.841 72.841-.001 40.158 32.703 72.837 72.841 72.837zm0-159.677c-47.855 0-86.817 38.947-86.817 86.84 0 47.879 38.962 86.836 86.817 86.836 47.902 0 86.864-38.957 86.864-86.836 0-47.892-38.962-86.84-86.864-86.84zm353.008 222.228h-19.481v-71.886h19.481zm-33.456-22.389h-192.55v-49.497h37.644v15.368c0 3.868 3.153 6.997 7.011 6.997s7.011-3.129 7.011-6.997v-15.368h37.597v15.368c0 3.868 3.153 6.997 7.011 6.997 3.859 0 7.012-3.129 7.012-6.997v-15.368h37.644v15.368c0 3.868 3.106 6.997 6.964 6.997s7.011-3.129 7.011-6.997v-15.368h37.644v49.497zm-206.526 0v-112.998c0-62.31-50.678-113.003-113.027-113.003-62.301 0-112.98 50.693-112.98 113.003 0 62.306 50.679 112.998 112.98 112.998zm-37.644-237.403 49.031 49.064-13.505 13.51c-11.481-20.539-28.515-37.574-49.078-49.069zm284.637 173.902h-233.017v-49.497c0-17.17-3.435-33.55-9.599-48.514l21.881-21.876c1.318-1.313 2.023-3.091 2.023-4.95 0-1.863-.706-3.642-2.023-4.95l-58.96-58.96c-2.729-2.729-7.199-2.729-9.929 0l-21.881 21.88c-14.964-6.202-31.339-9.632-48.514-9.632-70.018 0-127.002 56.97-127.002 127.002 0 70.028 56.984 126.997 127.002 126.997h319.552v15.392c0 3.868 3.106 6.997 6.964 6.997h33.503c3.859 0 7.011-3.129 7.011-6.997v-85.89c0-3.864-3.152-7.002-7.011-7.002z" fill-rule="evenodd"/></g></svg>