<svg id="Layer_1" viewBox="0 0 512 512" xmlns="http://www.w3.org/2000/svg" data-name="Layer 1"><g><path d="m39.79 46.57h456.21v128.24h-456.21z" fill="#7f8e94"/><path d="m39.79 46.57h456.21v64.12h-456.21z" fill="#afbdc3"/><g fill-rule="evenodd"><path d="m100.91 123.91c-23.08 51.36-47.63 110.07-47.63 110.07 25.09-13.06 47.43-13.05 61 6.03 20.75 29.17-1.8 66.21-13.65 98.62-8.88 24.28-9.58 68.26 29.09 68.26h160.4v-282.98zm48.36 183.53h84.77v65.46h-104.02c-3.74-15.83 13.79-49.59 19.25-65.46zm-34.33-131.29h141.2v96.85h-99.5c1.83-33.54-16.12-68.29-49.52-78.84 2.59-6.01 5.2-12.02 7.82-18.02z" fill="#837683"/><path d="m100.91 123.91c-23.08 51.36-47.63 110.07-47.63 110.07 25.09-13.06 47.43-13.05 61 6.03 20.75 29.17-1.8 66.21-13.65 98.62-8.88 24.28-9.58 68.26 29.09 68.26h41.98v-33.98h-41.68c-3.74-15.83 13.79-49.59 19.25-65.46h22.43v-34.44h-15.06c1.83-33.54-16.12-68.29-49.52-78.84 2.59-6.01 5.2-12.02 7.82-18.02h56.76v-52.23h-70.79z" fill="#a79ba7"/><path d="m103.03 127.19c-3.57 7.97-7.05 15.99-10.54 23.99-5.88 13.45-11.74 26.92-17.59 40.38-6.31 14.53-12.62 29.06-18.91 43.6-3.59 8.29-7.2 16.58-10.73 24.89l-1.12 2.65-28.14-7.89 1.43-3.42c10.64-25.42 21.15-50.91 31.88-76.29 10.8-25.55 21.93-50.92 33.29-76.22l.87-1.93h233.61v336.89h-30.23v-306.65z" fill="#d1d4dd"/><path d="m103.03 127.19c-3.57 7.97-7.05 15.99-10.54 23.99-5.88 13.45-11.74 26.92-17.59 40.38-6.31 14.53-12.62 29.06-18.91 43.6-3.59 8.29-7.2 16.58-10.73 24.89l-1.12 2.65-28.14-7.89 1.43-3.42c10.64-25.42 21.15-50.91 31.88-76.29 10.8-25.55 21.93-50.92 33.29-76.22l.87-1.93h88.23v30.22h-68.67z" fill="#d9dce5"/><path d="m174.63 204.81h46.43c4 0 7.24 2.27 7.24 5.07v18.02c0 2.8-3.24 5.07-7.24 5.07h-46.43c-4 0-7.24-2.27-7.24-5.07v-18.02c0-2.8 3.24-5.07 7.24-5.07z" fill="#697378"/><path d="m200.74 199.06h21.95c3.78 0 6.84 2.84 6.84 6.35v22.56c0 3.51-3.06 6.35-6.84 6.35h-21.95z" fill="#545c60"/></g></g><path d="m496 40.61h-460.48c-4.42 0-8 3.58-8 8v129.44c0 4.42 3.58 8 8 8h1.28c-4.34 10.34-8.77 20.97-13.67 32.73-4.38 10.51-9.12 21.9-14.51 34.77-.89 2.11-.82 4.51.18 6.57s2.83 3.6 5.04 4.22l22 6.17c3.87 1.08 7.96-.88 9.53-4.58 3.48-8.21 3.58-8.44 6.21-14.24.87-1.91 2.01-4.43 3.62-8.01 22.41-11 38.89-9.38 48.99 4.82 14.61 20.54 3.39 47.62-7.47 73.81-2.51 6.05-5.1 12.3-7.31 18.34-7.05 19.28-8.8 46.41 3.19 63.56 5.13 7.34 15.14 16.09 33.69 16.09h95.27v35.09h-7.8c-4.42 0-8 3.58-8 8s3.58 8 8 8h31.59c4.42 0 8-3.58 8-8s-3.58-8-8-8h-7.8v-35.09h42.63v15.9c0 4.42 3.58 8 8 8h23.9c4.42 0 8-3.58 8-8v-250.15h175.9c4.42 0 8-3.58 8-8v-129.44c0-4.42-3.58-8-8-8zm-434.64 16v18.98c0 4.42 3.58 8 8 8s8-3.58 8-8v-18.98h21.24v9.73c0 4.42 3.58 8 8 8s8-3.58 8-8v-9.73h17.84v18.98c0 4.42 3.58 8 8 8s8-3.58 8-8v-18.98h21.23v9.73c0 4.42 3.58 8 8 8s8-3.58 8-8v-9.73h17.85v18.98c0 4.42 3.58 8 8 8s8-3.58 8-8v-18.98h21.22v9.73c0 4.42 3.58 8 8 8s8-3.58 8-8v-9.73h17.86v18.98c0 4.42 3.58 8 8 8s8-3.58 8-8v-18.98h21.21v9.73c0 4.42 3.58 8 8 8s8-3.58 8-8v-9.73h17.87v18.98c0 4.42 3.58 8 8 8s8-3.58 8-8v-18.98h21.2v9.73c0 4.42 3.58 8 8 8s8-3.58 8-8v-9.73h17.88v18.98c0 4.42 3.58 8 8 8s8-3.58 8-8v-18.98h21.19v9.73c0 4.42 3.58 8 8 8s8-3.58 8-8v-9.73h18.04v48.72h-167.9v-2.55c0-4.42-3.58-8-8-8h-230.34c-3.15 0-6.01 1.85-7.3 4.72-.89 1.98-1.76 3.92-2.62 5.83h-28.32v-48.72h17.84zm-17.84 113.44v-48.72h21.19c-8.11 18.29-14.75 33.66-21.16 48.72h-.04zm62.2 224.99c-8.26-11.81-6.89-33.54-1.27-48.9 2.09-5.72 4.51-11.55 7.06-17.71 11.94-28.81 25.47-61.46 5.72-89.22-8.86-12.46-21.09-18.74-35.79-18.74-5.48 0-11.31.87-17.43 2.63 8.7-20.52 23.74-55.68 38.39-88.43h177.81v269.63h-153.91c-9.49 0-16.23-3.03-20.58-9.26zm198.38 33.15h-7.9v-14.92c0-.16-.01-.33-.02-.49 0-.16.02-.32.02-.49v-285.61c0-4.42-3.58-8-8-8h-190.99c-3.15 0-6.01 1.85-7.3 4.72-20.75 46.18-42.93 98.83-47.36 109.39-2.7 6-4.37 9.7-5.55 12.3-1.72 3.79-2.39 5.28-3.61 8.12l-6.52-1.83c3.98-9.54 7.62-18.26 11.03-26.44 6.65-15.96 12.43-29.84 18.3-43.72.01-.03.03-.07.04-.1 8.29-19.58 16.77-39.19 28.16-64.67.83-1.86 1.67-3.74 2.53-5.67h217.17v317.42zm16-258.14v-48.72h167.9v48.72zm-88.5 133.87h-85.57c-3.42 0-6.46 2.17-7.57 5.4-1.3 3.78-3.45 8.95-5.73 14.42-9.82 23.57-17.08 42.67-13.91 56.1.85 3.61 4.08 6.16 7.79 6.16h104.99c4.42 0 8-3.58 8-8v-66.08c0-4.42-3.58-8-8-8zm-8 66.08h-89.39c1.15-10.96 8.27-28.06 13.29-40.1 1.51-3.63 2.9-6.96 4.08-9.97h72.01v50.08zm30.31-209.33h-137.83c-3.17 0-6.04 1.87-7.32 4.78-4.19 9.52-8.43 19.26-12.62 28.97-.9 2.08-.87 4.44.07 6.5s2.71 3.62 4.87 4.3c32.62 10.3 45.89 44.29 44.41 71.51-.12 2.19.67 4.34 2.18 5.94s3.61 2.5 5.81 2.5h100.44c4.42 0 8-3.58 8-8v-108.49c0-4.42-3.58-8-8-8zm-8 108.49h-84.37c-.55-15.79-5-31.35-12.85-44.57-8.5-14.32-20.34-25.07-34.55-31.48 2.39-5.5 4.78-11 7.17-16.43h68.67v17.03h-17.66c-4.42 0-8 3.58-8 8v28.42c0 4.42 3.58 8 8 8h51.32c4.42 0 8-3.58 8-8v-28.42c0-4.42-3.58-8-8-8h-17.66v-17.03h39.93v92.49zm-30.26-59.46v12.42h-35.32v-12.42z"/></svg>