<svg clip-rule="evenodd" fill-rule="evenodd" stroke-linejoin="round" stroke-miterlimit="2" viewBox="0 0 96 96" xmlns="http://www.w3.org/2000/svg"><g><g><path d="m71.47 3.849c-16.33 2.832-32.66 2.796-48.989 0v16.885c16.329 3.111 32.659 3.219 48.989 0z" fill="#ae443a"/><path d="m8.741 12.515c-.67-1.515.015-3.287 1.53-3.957 3.293-1.458 8.783-3.887 12.077-5.344 1.515-.67 3.287.014 3.957 1.53 6.087 13.757 32.997 74.576 32.997 74.576l-17.564 7.772s-26.91-60.82-32.997-74.577z" fill="#ff6455"/><path d="m86.327 12.515c.671-1.515-.014-3.287-1.529-3.957-3.294-1.458-8.784-3.887-12.077-5.344-1.515-.67-3.287.014-3.957 1.53-6.087 13.757-32.997 74.576-32.997 74.576l17.564 7.772s26.909-60.82 32.996-74.577z" fill="#d95548"/><circle cx="47.453" cy="70.597" fill="#f3ae24" r="23.403"/><path d="m46.975 57.534 3.243 9.979h10.493l-8.489 6.168 3.242 9.98-8.489-6.168-8.489 6.168 3.242-9.98-8.489-6.168h10.493z" fill="#f5f25e"/></g><g><path d="m40.693 23.701c6.861.342 13.722.145 20.583-.615.823-.091 1.417-.833 1.326-1.656s-.833-1.417-1.656-1.326c-6.701.742-13.402.935-20.104.6-.826-.041-1.531.597-1.572 1.424-.042.827.596 1.532 1.423 1.573zm28.275-21.867c-14.271 2.22-28.541 2.254-42.813.174-.82-.119-1.582.449-1.701 1.268s.449 1.581 1.268 1.701c14.57 2.123 29.139 2.088 43.707-.179.818-.127 1.379-.894 1.251-1.712-.127-.818-.894-1.379-1.712-1.252z"/><path d="m29.584 55.992-19.884-44.94c-.342-.774.008-1.678.781-2.02 0 0 12.204-5.4 12.204-5.4.774-.342 1.678.007 2.02.781 0 0 19.031 43.011 19.031 43.011.335.758 1.221 1.1 1.979.765.757-.335 1.099-1.221.764-1.978 0 0-14.644-33.1-19.03-43.012-1.013-2.289-3.689-3.323-5.978-2.311-3.328 1.473-8.876 3.928-12.204 5.4-2.288 1.013-3.323 3.689-2.31 5.978l19.884 44.94c.335.757 1.221 1.099 1.978.764s1.1-1.221.765-1.978z"/><path d="m53.384 42.765s12.885-29.12 16.969-38.352c.165-.372.47-.663.849-.809s.8-.136 1.172.028c0 0 12.204 5.4 12.204 5.4.371.164.662.469.808.848.147.379.137.8-.028 1.172l-19.946 45.081c-.335.757.008 1.644.765 1.979s1.644-.008 1.979-.765c0 0 15.431-34.878 19.946-45.081.486-1.099.516-2.347.083-3.468-.434-1.121-1.295-2.024-2.394-2.51l-12.204-5.4c-1.099-.486-2.346-.516-3.467-.082-1.121.433-2.024 1.294-2.51 2.393-4.085 9.232-16.969 38.352-16.969 38.352-.335.757.008 1.644.765 1.979s1.643-.008 1.978-.765z"/><path d="m15.114 5.764 17.213 38.902c.335.757 1.221 1.1 1.978.765s1.1-1.222.765-1.979l-17.212-38.902c-.335-.757-1.222-1.1-1.979-.765s-1.1 1.222-.765 1.979z"/><path d="m77.201 4.55-19.655 44.423c-.335.757.008 1.644.765 1.979s1.644-.008 1.979-.765l19.654-44.423c.335-.757-.007-1.644-.764-1.979s-1.644.008-1.979.765z"/><path d="m35.935 51.43c3.356-2.047 7.297-3.227 11.513-3.227 12.224 0 22.148 9.924 22.148 22.149 0 12.224-9.924 22.148-22.148 22.148-12.225 0-22.149-9.924-22.149-22.148 0-6.124 2.491-11.671 6.514-15.682.586-.585.588-1.535.003-2.121-.584-.587-1.535-.588-2.121-.004-4.568 4.555-7.396 10.853-7.396 17.807 0 13.879 11.269 25.148 25.149 25.148s25.148-11.269 25.148-25.148c0-13.88-11.268-25.149-25.148-25.149-4.788 0-9.265 1.341-13.076 3.667-.706.431-.93 1.355-.499 2.061.432.707 1.355.931 2.062.499z"/><path d="m42.598 65.735h-6.404c-1.088 0-2.052.7-2.388 1.735-.336 1.034.032 2.167.912 2.807l5.181 3.764-1.979 6.09c-.336 1.035.032 2.168.912 2.807s2.072.639 2.951 0l5.181-3.764 5.181 3.764c.88.639 2.072.639 2.951 0 .88-.639 1.249-1.772.912-2.807l-1.978-6.09 5.18-3.764c.88-.64 1.248-1.773.912-2.807-.336-1.035-1.3-1.735-2.387-1.735h-6.404l-1.979-6.09c-.336-1.035-1.3-1.735-2.388-1.735-1.087 0-2.051.7-2.387 1.735zm4.366-3.73 1.624 4.995c.336 1.035 1.3 1.735 2.387 1.735h5.253l-4.25 3.088c-.879.639-1.248 1.772-.912 2.807l1.624 4.996-4.25-3.088c-.88-.639-2.071-.639-2.951 0l-4.25 3.088 1.623-4.996c.336-1.035-.032-2.168-.912-2.807l-4.25-3.088h5.253c1.088 0 2.052-.7 2.388-1.735z"/><path d="m12.577 57.636h6.639c.828 0 1.5-.672 1.5-1.5s-.672-1.5-1.5-1.5h-6.639c-.828 0-1.5.672-1.5 1.5s.672 1.5 1.5 1.5z"/><path d="m85.168 35.904h6.638c.828 0 1.5-.672 1.5-1.5s-.672-1.5-1.5-1.5h-6.638c-.828 0-1.5.672-1.5 1.5s.672 1.5 1.5 1.5z"/><path d="m17.397 59.456v-6.639c0-.828-.672-1.5-1.5-1.5s-1.5.672-1.5 1.5v6.639c0 .828.672 1.5 1.5 1.5s1.5-.672 1.5-1.5z"/><path d="m89.987 37.724v-6.639c0-.828-.672-1.5-1.5-1.5s-1.5.672-1.5 1.5v6.639c0 .828.672 1.5 1.5 1.5s1.5-.672 1.5-1.5z"/><path d="m82.84 54.281c-2.856 0-5.175 2.319-5.175 5.175s2.319 5.175 5.175 5.175c2.857 0 5.176-2.319 5.176-5.175s-2.319-5.175-5.176-5.175zm0 3c1.201 0 2.176.974 2.176 2.175 0 1.2-.975 2.175-2.176 2.175-1.2 0-2.175-.975-2.175-2.175 0-1.201.975-2.175 2.175-2.175z"/><path d="m7.157 29.941c-2.463 0-4.463 2-4.463 4.463 0 2.464 2 4.464 4.463 4.464 2.464 0 4.464-2 4.464-4.464 0-2.463-2-4.463-4.464-4.463zm0 3c.808 0 1.464.655 1.464 1.463s-.656 1.464-1.464 1.464-1.463-.656-1.463-1.464.655-1.463 1.463-1.463z"/></g></g></svg>