<svg enable-background="new 0 0 32 32" viewBox="0 0 32 32" xmlns="http://www.w3.org/2000/svg"><g id="Grid" display="none"/><g id="bow_tie"/><g id="balloon_1_"/><g id="placeholder"/><g id="mic"><path d="m2.395 29.592c-.528-.528-.528-1.384 0-1.912l4.073-4.073 1.912 1.912-4.073 4.073c-.527.528-1.384.528-1.912 0z" fill="#efefef"/><path d="m8.377 25.518-3.295 3.295c-.347-.29-.679-.594-.997-.912s-.622-.65-.905-1.004l3.288-3.288z" fill="#ddd"/><path d="m21.722 16.821-11.555 11.554c-.578.578-1.472.682-2.171.259-.794-.481-1.704-1.141-2.603-2.04s-1.559-1.809-2.04-2.603c-.423-.699-.319-1.593.259-2.171l11.554-11.554z" fill="#9487d8"/><path d="m21.727 16.82-11.554 11.554c-.58.58-1.478.686-2.178.255-.792-.481-1.704-1.138-2.602-2.036-.269-.269-.516-.544-.742-.813.615.53 1.237.955 1.789 1.294.693.424 1.591.318 2.171-.262l11.554-11.554z" fill="#7e76ce"/><path d="m17.048 3.442c2.385-2.025 5.912-1.866 8.209.259.505.467 1.021.962 1.544 1.485.495.495 1.019 1.037 1.562 1.628 2.081 2.259 2.201 5.737.219 8.082-.473.56-.987 1.122-1.544 1.679-1.039 1.039-2.327 2.159-3.905 3.239-1.175.805-2.752.763-3.846-.15-1.412-1.179-2.626-2.313-3.639-3.326-1.283-1.283-2.396-2.523-3.35-3.667-.896-1.075-.95-2.61-.161-3.767 1.092-1.6 2.224-2.904 3.275-3.954.543-.543 1.09-1.045 1.636-1.508z" fill="#3a3a3a"/><path d="m27.037 16.573c-1.039 1.039-2.326 2.157-3.903 3.239-1.174.806-2.751.771-3.847-.141-.99-.834-1.888-1.633-2.68-2.397.064.064.127.113.198.17 1.117.933 2.729.976 3.939.148 1.612-1.103 2.927-2.249 3.995-3.316.573-.573 1.096-1.138 1.577-1.718 1.789-2.114 1.916-5.126.453-7.396l.028.028c.495.495 1.025 1.039 1.57 1.626 2.079 2.263 2.199 5.735.219 8.082-.474.558-.99 1.116-1.549 1.675z" fill="#333"/><path d="m25.241 18.665-11.919-11.918c-.342-.342-.342-.896 0-1.237l1.163-1.163c.342-.342.896-.342 1.237 0l11.919 11.919c.342.342.342.896 0 1.237l-1.163 1.163c-.342.341-.895.341-1.237-.001z" fill="#efefef"/><path d="m27.638 17.499-1.16 1.16c-.346.346-.898.347-1.237.007l-2.39-2.39c.347.347.898.346 1.245 0l1.16-1.16c.339-.339.339-.891-.007-1.237l2.39 2.39c.339.339.339.891-.001 1.23z" fill="#ddd"/><ellipse cx="12.204" cy="19.784" fill="#ffd731" rx="2.083" ry="1.513" transform="matrix(.707 -.707 .707 .707 -10.415 14.424)"/><path d="m28.674 6.523c-.546-.596-1.071-1.141-1.57-1.63-.524-.534-1.049-1.029-1.556-1.505-2.485-2.291-6.258-2.409-8.777-.268-.3.262-.601.542-.901.824-.508-.379-1.221-.359-1.685.102l-1.163 1.163c-.5.5-.502 1.306-.016 1.814-.417.529-.831 1.07-1.218 1.637-.888 1.304-.821 3.034.15 4.23l-8.628 8.63c-.713.713-.847 1.819-.324 2.689.283.471.597.922.932 1.353l-1.818 1.817c-.336.336-.521.783-.521 1.256s.186.919.519 1.252c.33.336.772.523 1.246.525h.009c.476 0 .922-.186 1.259-.522l1.823-1.822c.432.334.879.645 1.344.924.354.218.75.324 1.143.324.565 0 1.125-.221 1.551-.646l8.628-8.628c.636.506 1.411.768 2.195.768.722 0 1.448-.215 2.076-.65.53-.364 1.055-.758 1.592-1.18.251.241.574.365.898.365.333 0 .666-.126.92-.38l1.162-1.163c.459-.459.48-1.168.108-1.676.318-.335.612-.665.856-.953 2.103-2.5 2.003-6.219-.234-8.65zm-24.665 22.767c-.176.176-.409.273-.657.273-.253-.019-.478-.096-.65-.273-.177-.176-.273-.408-.273-.654s.097-.479.273-.655l1.776-1.776c.203.23.394.471.611.686.221.221.466.414.7.62zm5.86-1.22c-.441.442-1.12.521-1.65.196-.917-.55-1.768-1.215-2.53-1.978-.757-.749-1.421-1.595-1.975-2.516-.321-.535-.24-1.214.197-1.651l8.581-8.582c.886 1.037 1.832 2.077 2.857 3.102 1.044 1.044 2.065 1.973 3.098 2.852zm13.019-8.61c-1.026.712-2.395.661-3.327-.128-1.214-1-2.394-2.077-3.609-3.293-1.204-1.203-2.322-2.427-3.326-3.643-.765-.91-.82-2.25-.135-3.257.356-.521.737-1.017 1.119-1.505l10.743 10.743c-.493.386-.977.748-1.465 1.083zm4.452-2.258-1.162 1.163c-.174.177-.462.175-.636 0l-11.919-11.919c-.176-.176-.176-.461 0-.636l1.163-1.163c.175-.174.459-.175.636 0l11.918 11.918c.176.176.176.461 0 .637zm.134-1.704-10.976-10.977c.277-.259.554-.518.828-.756 2.19-1.86 5.477-1.752 7.644.246.496.466 1.013.952 1.533 1.484.495.485 1.011 1.02 1.546 1.604 1.949 2.118 2.038 5.354.208 7.527-.246.287-.508.58-.783.872z"/><path d="m24.29 4.748c-.725-.67-1.616-1.104-2.58-1.253-.225-.034-.449.123-.485.354s.123.449.354.485c.796.124 1.533.482 2.133 1.037.261.242.525.492.793.75.082.079.188.118.295.118.111 0 .223-.043.306-.13.163-.169.158-.438-.011-.601-.272-.261-.54-.514-.805-.76z" fill="#515151"/><path d="m19.767 3.591-.16.045c-.224.07-.349.309-.278.533.057.182.225.298.405.298.042 0 .085-.006.127-.02l.125-.036c.227-.06.361-.293.302-.52-.061-.225-.294-.362-.521-.3z" fill="#515151"/><path d="m10.833 18.414c-.994.994-1.171 2.375-.403 3.144.315.315.743.467 1.206.467.649 0 1.367-.299 1.938-.87.978-.978 1.158-2.388.402-3.144-.768-.769-2.15-.591-3.143.403zm2.14 2.14c-.635.635-1.524.82-1.941.403s-.232-1.307.403-1.942c.404-.404.912-.626 1.335-.626.241 0 .455.072.606.223.417.416.232 1.306-.403 1.942z"/></g><g id="speaker"/><g id="champagne"/><g id="gift"/><g id="theater"/><g id="_camera"/><g id="video_camera"/><g id="party_hat"/><g id="champagne_glass"/><g id="man"/><g id="woman"/><g id="skewer"/><g id="ticket"/><g id="cake"/><g id="lights"/><g id="photo"/><g id="invitation"/></svg>