<svg clip-rule="evenodd" fill-rule="evenodd" height="1.707in" image-rendering="optimizeQuality" shape-rendering="geometricPrecision" text-rendering="geometricPrecision" viewBox="0 0 1.70666 1.70666" width="1.707in" xmlns="http://www.w3.org/2000/svg"><g id="Layer_x0020_1"><path d="m1.6028 1.70666h-1.49896c-.026748 0-.0484961-.0193071-.0484961-.0430118v-.103528c0-.0237047.021748-.0430118.0484961-.0430118h.052752c-.00007087-.00098425-.00011024-.00198031-.00011024-.00298425v-.103528c0-.0237047.0200984-.0430118.0447913-.0430118h.141008c-.16761-.340902-.0382323-.582906.0625157-.703354-.00227559-.00603937-.00427559-.0122283-.00597244-.0185591-.0207165-.0773071.00730315-.156406.065126-.204551l-.123213-.123248c-.00780315-.00782283-.00780315-.0204724 0-.0282795l.00985039-.00984646-.0507441-.0507441c-.00374803-.00374803-.00586614-.00883465-.00586614-.0141378 0-.00529921.00211024-.0103858.00586614-.0141339l.0107559-.0107559-.0580472-.0580591c-.00782283-.00780315-.00782283-.0204724 0-.0282756l.0977756-.0977795c.00374803-.00374803.00883465-.0058622.0141378-.0058622.00530709 0 .0103898.00211024.0141378.0058622l.0580512.0580669.0107402-.0107402c.0078189-.0078189.0204724-.0078189.0282756 0l.0507402.0507362.00987008-.00987008c.0075-.0075.0207756-.0075.0282756 0l.625933.625921c.00780709.00780709.00782283.0204724 0 .0282795l-.034752.0347598.0543937.0543937c.00374803.00374803.00586614.00883465.00586614.0141378 0 .00529921-.00211024.0103858-.00586614.0141339l-.0977756.0977795c-.00388976.00392126-.0090315.00587795-.0141417.00587795-.00511417 0-.0102362-.00195669-.0141535-.0058622l-.054378-.054378-.0347165.0347244c-.00376378.00373622-.00884646.0058622-.0141535.0058622-.00530709 0-.0103858-.00211024-.0141496-.0058622l-.222547-.222559c-.0260984.0315866-.0612598.0542756-.101638.0650906-.0168819.00451575-.0342559.0068189-.0516024.0068189-.00300394 0-.00599606-.0000748-.00897244-.00020866-.0331614.109386.00785433.210122.077063.295732h.850724c.0407913 0 .0739567.0331969.0739567.0739724v.0630039c0 .0413661-.0336457.0750472-.0750354.0750472h-.591744c.0619173.0371929.11126.0605748.124933.0668622l.463559-.00000394c.0246929 0 .0448031.0193071.0448031.0430157v.103524c0 .00100787-.00003937.00200394-.00011024.00299213h.0527677c.026748 0 .0484961.0193071.0484961.0430118v.103528c0 .0237205-.0217638.0430118-.0485118.0430118zm-1.402-.189551h1.30495c.00265748-.00015748.00439764-.00185039.00439764-.00299213v-.103524c0-.00119685-.00191732-.00300394-.00479528-.00300394h-.467598l-.00028347.00000394h-.662504-.00004724-.173654c-.00288976 0-.00479528.00180709-.00479528.00300394v.103528c0 .00112992.0017126.00280315.00433071.00298425zm.341091-.730083c-.0481732-.0122992-.0900433-.0423504-.117213-.0836969l-.00005906-.00008661c-.0374488.0474409-.0771732.112201-.100953.193083h.206941c-.00274803-.0351732.00050394-.0716575.0112835-.109299zm-.0441024-.368626c.0129803-.00687795.0269252-.0124173.0417047-.016378.0168898-.00452756.0342638-.0068189.0515945-.0068189.0898071 0 .168776.0606496.192055.1475.013126.0489921.00728346.100075-.0163858.144657l.126831.126819.167264-.167264-.510445-.510425-.167256.167244.114638.114665zm.093315.0168031c-.0138465 0-.0277362.00183465-.041248.00547244-.0410118.0109843-.0752717.0372874-.0965118.0740551-.0212244.0367638-.026878.0795945-.015874.120606.00431496.0161181.0110354.0311024.0197047.0446142l.00098819.00151969.00040945.00061811.00125984.00186614.00005906.00008661c.0252874.0367244.0656535.0619173.110583.0677835.00037402.00004724.00074803.0001063.00111811.00017717.00633858.00077953.0127677.0011811.0192756.0011811.0138504 0 .0277402-.00183071.041252-.0054685.0385591-.0103307.0711496-.0341969.092563-.0675748l.00007087-.00011811.00026772-.00042126.00004724-.00007087c.00122441-.0019252.00241339-.00388583.00356299-.00587402.0212205-.0367638.0268583-.0795945.015874-.120606-.0185827-.0693858-.0816693-.117846-.153402-.117846zm-.00016535.257681c-.0445394 0-.0837205-.0300827-.0952638-.0731535-.0140669-.0525551.0172205-.106764.0697638-.120858.00838583-.00223622.0169843-.00337402.0255945-.00337402.0445551 0 .0837205.0300827.0952638.0731535.0068189.0254567.00331496.0520394-.00986614.074874s-.0344528.0391535-.0599134.0459843c-.00835827.00223622-.0169724.00337402-.0255787.00337402zm.00009449-.157386c-.00511417 0-.0102362.0006811-.0152362.00202362-.031248.00837402-.0498622.0406102-.0414843.0718622.0068622.0256102.0301535.0435.056626.0435.00511024 0 .0102362-.0006811.0152323-.00202362.0151378-.00405906.0277913-.0137638.035626-.0273346.00783465-.0135669.00991732-.0293898.00586614-.0445276-.00686614-.0256142-.0301575-.0435-.0566299-.0435zm.330839.306969.0589331.0589252.0338898-.0338898c.00025984-.00029921.00053937-.00058661.0008189-.00087008l.0977795-.0977638.00070079-.00066535.0340748-.0340748-.0589291-.0589291-.167268.167268zm.157661.0167598-.0215709.0215748.040248.040248.0695-.0694843-.040252-.040252-.0479252.0479134zm-.784563-.741429.0438976.0438976.0694843-.0694843-.0438976-.0438976zm.0472874.097063.0365984.0365984.119264-.119264-.0365984-.0365984zm.352031.91385c.0487874.0510118.105909.0955709.159752.131996h.654563c.0193307 0 .0350276-.0157205.0350276-.0350354v-.0630039c0-.0187323-.0152323-.0339567-.0339409-.0339567h-.815402zm-.307236.238866h.56513c-.110374-.0593189-.307441-.183524-.38739-.349091h-.262071c-.00542126.0997913.0157402.216598.0843307.349091zm.161126-.389091c-.00483071-.0138071-.00883858-.0278583-.0118465-.0421614h-.222772c-.0028937.0136535-.00531496.0277087-.0071811.0421614h.241799zm-.444346.57865c-.00505512 0-.0081378.00240157-.00856693.00340157l.00006693.103122c.00036221.00059843.00344488.003.0085.003h1.49898c.00505512 0 .00813386-.00240157.00855512-.00340157l-.00006693-.103122c-.00034646-.00059843-.00343307-.003-.00848819-.003h-.0974449-1.3041-.0974331z" fill="#000002"/><path d="m.338874.161697.069484-.0694844-.043897-.0438976-.069485.069484z" fill="#445ea0"/><path d="m.461528.0955984-.119264.1192636.036598.036599.119264-.119264z" fill="#ebf4fc"/><path d="m.550413.136492-.167256.167244.114638.114665c.0129803-.00687795.0269252-.0124173.0417047-.016378.0168898-.00452756.0342638-.0068189.0515945-.0068189.0898071 0 .168776.0606496.192055.1475.013126.0489921.00728346.100075-.0163858.144657l.126831.126819.167264-.167264-.510445-.510425z" fill="#c6d5e5"/><path d="m1.08915.675201-.167272.167268.058933.058925.033889-.03389.00082-.00087.09778-.097764.0007-.000665.03407-.034075z" fill="#ebf4fc"/><path d="m1.12746.811315-.04792.047913-.02157.021575.04025.040248.0695-.069484z" fill="#445ea0"/><path d="m.641803.623528c.00783465-.0135669.00991732-.0293898.00586614-.0445276-.00686614-.0256142-.0301575-.0435-.0566299-.0435-.00511417 0-.0102362.0006811-.0152362.00202362-.031248.00837402-.0498622.0406102-.0414843.0718622.0068622.0256102.0301535.0435.056626.0435.00511024 0 .0102362-.0006811.0152323-.00202362.0151378-.00405906.0277913-.0137638.035626-.0273346z" fill="#445ea0"/><path d="m.591039.4955c.0445551 0 .0837205.0300827.0952638.0731535.0068189.0254567.00331496.0520394-.00986614.074874s-.0344528.0391535-.0599134.0459843c-.00835827.00223622-.0169724.00337402-.0255787.00337402-.0445394 0-.0837205-.0300827-.0952638-.0731535-.0140669-.0525551.0172205-.106764.0697638-.120858.00838583-.00223622.0169843-.00337402.0255945-.00337402zm.153472.0575512c-.0185827-.0693858-.0816693-.117846-.153402-.117846-.0138465 0-.0277362.00183465-.041248.00547244-.0410118.0109843-.0752717.0372874-.0965118.0740551-.0212244.0367638-.026878.0795945-.015874.120606.00431496.0161181.0110354.0311024.0197047.0446142l.00098819.00151969.00040945.00061811.00125984.00186614.00005906.00008661c.0252874.0367244.0656535.0619173.110583.0677835l.00111811.00017717c.00633858.00077953.0127677.0011811.0192756.0011811.0138504 0 .0277402-.00183071.041252-.0054685.0385591-.0103307.0711496-.0341969.092563-.0675748l.00007087-.00011811.00026772-.00042126.00004724-.00007087c.00122441-.0019252.00241339-.00388583.00356299-.00587402.0212205-.0367638.0268583-.0795945.015874-.120606z" fill="#293d7c"/><path d="m.541898.787028c-.0481732-.0122992-.0900433-.0423504-.117213-.0836969l-.00005906-.00008661c-.0374488.0474409-.0771732.112201-.100953.193083h.206941c-.00274803-.0351732.00050394-.0716575.0112835-.109299z" fill="#445ea0"/><path d="m.536339.936327h-.222772c-.0028937.0136535-.00531496.0277087-.0071811.0421614h.241799c-.00483071-.0138071-.00883858-.0278583-.0118465-.0421614z" fill="#6b809b"/><path d="m.564799 1.01849h-.262071c-.00542126.0997913.0157402.216598.0843307.349091h.56513c-.110374-.0593189-.307441-.183524-.38739-.349091z" fill="#445ea0"/><path d="m1.5097 1.12871h-.815402c.0487874.0510118.105909.0955709.159752.131996h.654563c.0193307 0 .0350276-.0157205.0350276-.0350354v-.0630039c0-.0187323-.0152323-.0339567-.0339409-.0339567z" fill="#293d7c"/><path d="m1.50536 1.40759h-.467598l-.00028347.00000394h-.662504-.00004724-.173654c-.00288976 0-.00479528.00180709-.00479528.00300394v.103528c0 .00112992.0017126.00280315.00433071.00298425h1.30495c.00265748-.00015748.00439764-.00185039.00439764-.00299213v-.103524c0-.00119685-.00191732-.00300394-.00479528-.00300394z" fill="#293d7c"/><path d="m1.50537 1.55714h-1.3041-.0974331c-.00505512 0-.0081378.00240157-.00856693.00340157l.00006693.103122c.00036221.00059843.00344488.003.0085.003h1.49898c.00505512 0 .00813386-.00240157.00855512-.00340157l-.00006693-.103122c-.00034646-.00059843-.00343307-.003-.00848819-.003h-.0974449z" fill="#445ea0"/></g></svg>