<svg id="Layer_1-2" viewBox="0 0 64 64" xmlns="http://www.w3.org/2000/svg"><g id="Microwave"><path d="m6 55c-1.10253906 0-2-.89697266-2-2v-2h56v2c0 1.10302734-.89746094 2-2 2z" fill="#f7dac9"/><rect fill="#ffefde" height="42" rx="2" width="62" x="1" y="9"/><path d="m43 22h4v18h-4z" fill="#f7dac9"/><path d="m47 51v-42h14c1.10253906 0 2 .89697266 2 2v38c0 1.10302734-.89746094 2-2 2z" fill="#f58569"/><path d="m5 14h34v32h-34z" fill="#ffc299"/><path d="m13 40-3-7h24l-3 7z" fill="#606b87"/><circle cx="55" cy="18" fill="#606b87" r="4"/><circle cx="55" cy="31" fill="#606b87" r="4"/><path d="m5 40h34v6h-34z" fill="#f58569"/><g fill="#433d4c"><path d="m61 8h-58c-1.65429688 0-3 1.34570312-3 3v38c0 1.65429688 1.34570312 3 3 3v1c0 1.65429688 1.34570312 3 3 3h52c1.65429688 0 3-1.34570312 3-3v-1c1.65429688 0 3-1.34570312 3-3v-38c0-1.65429688-1.34570312-3-3-3zm-15 31h-2v-16h2zm-44 10v-38c0-.55126953.44824219-1 1-1h43v11h-3c-.55273438 0-1 .44775391-1 1v18c0 .55224609.44726562 1 1 1h3v9h-43c-.55175781 0-1-.44873047-1-1zm57 4c0 .55126953-.44824219 1-1 1h-52c-.55175781 0-1-.44873047-1-1v-1h54zm3-4c0 .55126953-.44824219 1-1 1h-13v-40h13c.55175781 0 1 .44873047 1 1z"/><path d="m21.47265625 27.81884766-.3671875.73486328c-.24707031.49365234-.046875 1.09423828.44726562 1.34130859.14355469.07177734.29589844.10546875.44628906.10546875.3671875 0 .72070312-.20263672.89550781-.55322266l.3671875-.734375c.57128906-1.14257812.34863281-2.51708984-.5546875-3.41992188-.29296875-.29248047-.36523438-.73876953-.1796875-1.11035156l.3671875-.73535156c.24707031-.49414062.04589844-1.09472656-.44824219-1.34130859-.49121094-.24755859-1.09472656-.04589844-1.34082031.44775391l-.3671875.73486328c-.57128906 1.14257812-.34863281 2.51660156.5546875 3.41943359.29296875.29296875.36523438.73876953.1796875 1.11083984z"/><path d="m27.47265625 27.81884766-.3671875.73486328c-.24707031.49365234-.046875 1.09423828.44726562 1.34130859.14355469.07177734.29589844.10546875.44628906.10546875.3671875 0 .72070312-.20263672.89550781-.55322266l.3671875-.734375c.57128906-1.14257812.34863281-2.51708984-.5546875-3.41992188-.29296875-.29248047-.36523438-.73876953-.1796875-1.11035156l.3671875-.73535156c.24707031-.49414062.04589844-1.09472656-.44824219-1.34130859-.49023438-.24755859-1.09472656-.04589844-1.34082031.44775391l-.3671875.73486328c-.57128906 1.14257812-.34863281 2.51660156.5546875 3.41943359.29296875.29296875.36523438.73876953.1796875 1.11083984z"/><path d="m15.88671875 27.81884766-.3671875.73486328c-.24707031.49365234-.046875 1.09423828.44726562 1.34130859.14355469.07177734.29589844.10546875.44628906.10546875.3671875 0 .72070312-.20263672.89550781-.55322266l.3671875-.734375c.57128906-1.14257812.34863281-2.51708984-.5546875-3.41943359-.29296875-.29345703-.36523438-.73974609-.1796875-1.11083984l.3671875-.73535156c.24707031-.49414062.04589844-1.09472656-.44824219-1.34130859-.49121094-.24755859-1.09472656-.04589844-1.34082031.44775391l-.3671875.73486328c-.57128906 1.14160156-.34863281 2.515625.5546875 3.41943359.29296875.29296875.36523438.73876953.1796875 1.11083984z"/><path d="m55 13c-2.75683594 0-5 2.24316406-5 5s2.24316406 5 5 5 5-2.24316406 5-5-2.24316406-5-5-5zm0 8c-1.65429688 0-3-1.34570312-3-3s1.34570312-3 3-3c1.30194092 0 2.40161133.83850098 2.81573486 2h-.81573486c-.55273438 0-1 .44775391-1 1s.44726562 1 1 1h.81573486c-.41412354 1.16149902-1.51379395 2-2.81573486 2z"/><path d="m55 26c-2.75683594 0-5 2.24316406-5 5s2.24316406 5 5 5 5-2.24316406 5-5-2.24316406-5-5-5zm0 8c-1.65429688 0-3-1.34570312-3-3 0-1.30194092.83850098-2.40161133 2-2.81573486v.81573486c0 .55224609.44726562 1 1 1s1-.44775391 1-1v-.81573486c1.16149902.41412354 2 1.51379395 2 2.81573486 0 1.65429688-1.34570312 3-3 3z"/><path d="m58 39h-6c-.55273438 0-1 .44775391-1 1s.44726562 1 1 1h6c.55273438 0 1-.44775391 1-1s-.44726562-1-1-1z"/><path d="m5 47h34c.55273438 0 1-.44775391 1-1v-32c0-.55224609-.44726562-1-1-1h-34c-.55273438 0-1 .44775391-1 1v32c0 .55224609.44726562 1 1 1zm33-2h-32v-4h32zm-26.48339844-11h20.96679688l-2.14257812 5h-16.68164063l-2.14257812-5zm26.48339844-19v24h-5.48358154l2.40252686-5.60595703c.1328125-.30908203.10058594-.6640625-.08398438-.94433594-.18554688-.28076172-.49902344-.44970703-.83496094-.44970703h-24c-.3359375 0-.64941406.16894531-.83496094.44970703-.18457031.28027344-.21679688.63525391-.08398438.94433594l2.40252686 5.60595703h-5.48358154v-24z"/></g></g></svg>