<svg id="Layer_1" viewBox="0 0 1000 1000" xmlns="http://www.w3.org/2000/svg" data-name="Layer 1"><path d="m362.28 116h275.44v57.82h-275.44z" fill="#e0e0e0"/><path d="m276.15 836.26h135.38v47.74h-135.38z" fill="#e0e0e0"/><path d="m443.53 836.26h280.32v47.74h-280.32z" fill="#e0e0e0"/><path d="m276.15 346.22h135.38v458.04h-135.38z" fill="#90caf9"/><path d="m443.53 346.22v458h280.32v-458zm140.16 346.78a86.12 86.12 0 0 1 -86-86c0-19.3 12.23-48.62 37.38-89.64 17.66-28.81 35.05-52.42 35.78-53.41a16 16 0 0 1 25.74 0c.73 1 18.12 24.6 35.78 53.41 25.15 41 37.38 70.34 37.38 89.64a86.12 86.12 0 0 1 -86.06 86z" fill="#90caf9"/><path d="m399.78 314.22h-111.05l57.15-93.16z" fill="#e0e0e0"/><path d="m711.26 314.22h-274.5l-62.74-108.4h270.75z" fill="#e0e0e0"/><path d="m637.72 607a54 54 0 1 1 -108.06 0c0-20.55 29.33-70 54-105.93 24.73 35.93 54.06 85.38 54.06 105.93z" fill="#e0e0e0"/><g fill="#fff" opacity=".5"><path d="m352.28 126h275.44v57.82h-275.44z"/><path d="m266.15 846.26h135.38v47.74h-135.38z"/><path d="m433.53 846.26h280.32v47.74h-280.32z"/><path d="m266.15 356.22h135.38v458.04h-135.38z"/><path d="m433.53 356.22v458h280.32v-458zm140.16 346.78a86.12 86.12 0 0 1 -86-86c0-19.3 12.23-48.62 37.38-89.64 17.66-28.81 35.05-52.42 35.78-53.41a16 16 0 0 1 25.74 0c.73 1 18.12 24.6 35.78 53.41 25.15 41 37.38 70.34 37.38 89.64a86.12 86.12 0 0 1 -86.06 86z"/><path d="m389.78 324.22h-111.05l57.15-93.16z"/><path d="m701.26 324.22h-274.5l-62.74-108.4h270.75z"/><path d="m627.72 617a54 54 0 1 1 -108.06 0c0-20.55 29.33-70 54-105.93 24.73 35.93 54.06 85.38 54.06 105.93z"/></g><g fill="#413b32"><path d="m653.72 84h-307.44a16 16 0 0 0 -16 16v89.87a13.58 13.58 0 0 0 .08 1.56v.06c0 .2.05.41.08.61s.08.52.13.78.13.63.21.94.12.43.19.64 0 .15.07.23.08.26.13.39.09.27.15.4.1.28.16.41l.21.49c.15.32.3.64.47 1l.27.48.29.5v.06a16 16 0 0 0 13.51 7.43h307.49a16 16 0 0 0 16-16v-89.85a16 16 0 0 0 -16-16zm-291.44 89.82v-57.82h275.44v57.82z"/><path d="m755.81 329.13c0-.36-.06-.72-.11-1.08s-.1-.66-.17-1v-.19c-.07-.33-.15-.65-.24-1s-.21-.7-.33-1-.26-.69-.41-1-.31-.67-.48-1-.33-.62-.51-.92v-.06l-.08-.12a16 16 0 0 0 -13.56-7.52h-479.77a16 16 0 0 0 -13.56 7.52l-.08.12v.06c-.18.3-.35.61-.51.92s-.33.66-.48 1-.28.68-.41 1-.23.69-.33 1-.17.64-.24 1v.19c-.07.32-.13.65-.17 1s-.09.72-.11 1.08 0 .73 0 1.09v569.78a16 16 0 0 0 16 16h479.7a16 16 0 0 0 16-16v-569.78c-.11-.36-.12-.72-.15-1.09zm-31.96 554.87h-447.7v-537.78h447.7z"/><path d="m755.81 329.13c0-.36-.06-.72-.11-1.08s-.1-.66-.17-1v-.19c-.07-.33-.15-.65-.24-1s-.21-.7-.33-1-.26-.69-.41-1-.31-.67-.48-1-.33-.62-.51-.92v-.06l-.08-.12-83.76-136.46-2.36-3.85a16 16 0 0 0 -13.64-7.63h-308.21-.53l-.64.07-.63.09q-.34 0-.69.12c-.4.09-.79.18-1.18.29l-.61.19-1 .35-.92.41c-.31.15-.61.31-.9.47a4.71 4.71 0 0 0 -.48.29l-.49.31c-.21.13-.42.27-.62.42a.48.48 0 0 0 -.15.11c-.25.18-.49.38-.73.58s-.51.44-.76.68-.48.48-.71.73-.42.46-.61.71a.4.4 0 0 0 -.12.15c-.19.22-.36.46-.53.69a.15.15 0 0 0 -.05.07c-.19.27-.37.55-.55.84s-.22.35-.33.53l-2 3.32-83.69 136.5-.08.12v.06c-.18.3-.35.61-.51.92s-.33.66-.48 1-.28.68-.41 1-.23.69-.33 1-.17.64-.24 1v.19c-.07.32-.13.65-.17 1s-.09.72-.11 1.08 0 .73 0 1.09a16 16 0 0 0 16 16h479.7a16 16 0 0 0 16-16c-.11-.34-.12-.7-.15-1.07zm-467.08-14.91 57.15-93.16 9.35-15.24h289.54l66.49 108.4z"/><path d="m443.53 330.22v569.78a16 16 0 0 1 -32 0v-565.48l-11.75-20.3-53.9-93.16-13.11-22.67v-.06l-.29-.5-.27-.48c-.17-.32-.32-.64-.47-1l-.21-.49c-.06-.13-.11-.27-.16-.41s-.1-.26-.15-.4-.09-.26-.13-.39-.05-.16-.07-.23-.13-.43-.19-.64-.15-.63-.21-.94-.1-.52-.13-.78-.05-.41-.08-.61v-.06a13.58 13.58 0 0 1 -.08-1.56v-.39a16 16 0 0 1 2-7.5c.11-.18.21-.36.33-.53s.36-.57.55-.84a.15.15 0 0 1 .05-.07c.17-.23.34-.47.53-.69a.4.4 0 0 1 .12-.15c.19-.25.4-.48.61-.71s.47-.5.71-.73.5-.47.76-.68.48-.4.73-.58a.48.48 0 0 1 .15-.11c.2-.15.41-.29.62-.42l.49-.31.28-.19a.93.93 0 0 1 .2-.1c.29-.16.59-.32.9-.47l.92-.41 1-.35.61-.19c.39-.11.78-.2 1.18-.29q.35-.08.69-.12l.63-.09.64-.07h.53 1.09a16 16 0 0 1 13.52 8l13.9 24 62.74 108.4 4.62 8a16 16 0 0 1 2.1 7.97z"/><path d="m755.85 820.26a16 16 0 0 1 -16 16h-479.7a16 16 0 1 1 0-32h479.7a16 16 0 0 1 16 16z"/><path d="m632.34 517.36c-17.66-28.81-35.05-52.42-35.78-53.41a16 16 0 0 0 -25.74 0c-.73 1-18.12 24.6-35.78 53.41-25.15 41-37.38 70.34-37.38 89.64a86 86 0 1 0 172.06 0c0-19.3-12.23-48.62-37.38-89.64zm-48.65 143.64a54.09 54.09 0 0 1 -54-54c0-20.55 29.33-70 54-105.93 24.7 36 54 85.38 54 105.93a54.09 54.09 0 0 1 -54 54z"/></g></svg>