<svg height="512" viewBox="0 0 64 64" width="512" xmlns="http://www.w3.org/2000/svg"><g id="Milk"><path d="m58 14v30h-30v-30l4-6v-6h22v6z" fill="#ebeeff"/><path d="m58 44h-8v-30l4-6 4 6z" fill="#d7dfff"/><path d="m58 14h-8l4-6z" fill="#bbc7ef"/><path d="m54 8-4 6h-22l4-6z" fill="#d7dfff"/><path d="m32 2h22v6h-22z" fill="#bbc7ef"/><path d="m6 51h52v11h-52z" fill="#f2933d"/><path d="m6 44v-19.6a13.3 13.3 0 0 1 4.65-10.11l.35-.3v-5.99h8v5.99l.35.3a13.3 13.3 0 0 1 4.65 10.11v19.6z" fill="#ebeeff"/><path d="m9 2h12v6h-12z" fill="#d7dfff"/><path d="m39 35a5.006 5.006 0 0 1 -5-5c0-2.188 3.271-5.535 5-7 1.729 1.464 5 4.811 5 7a5.006 5.006 0 0 1 -5 5z" fill="#609aef"/><path d="m6 38v-13.6a13.157 13.157 0 0 1 .227-2.4h17.546a13.157 13.157 0 0 1 .227 2.4v13.6z" fill="#609aef"/><path d="m1 44h62v7h-62z" fill="#ffac5a"/><g fill="#352d34"><path d="m63 43h-4v-29a1.185 1.185 0 0 0 -.168-.555l-3.832-5.745v-5.7a1 1 0 0 0 -1-1h-22a1 1 0 0 0 -1 1v5.7l-3.832 5.748a1.575 1.575 0 0 0 -.168.552v29h-2v-18.6a12.732 12.732 0 0 0 -.069-1.286 14.231 14.231 0 0 0 -4.931-9.584v-4.53h1a1 1 0 0 0 1-1v-6a1 1 0 0 0 -1-1h-12a1 1 0 0 0 -1 1v6a1 1 0 0 0 1 1h1v4.53a14.231 14.231 0 0 0 -4.931 9.587 12.732 12.732 0 0 0 -.069 1.283v18.6h-4a1 1 0 0 0 -1 1v7a1 1 0 0 0 1 1h4v10a1 1 0 0 0 2 0v-10h50v10a1 1 0 0 0 2 0v-10h4a1 1 0 0 0 1-1v-7a1 1 0 0 0 -1-1zm-30.465-34h19.6l-2.667 4h-19.6zm18.465 6h2v24.586l-2 2zm4 0h2v26.586l-2-2zm-3.132-2 2.132-3.2 2.132 3.2zm2.132 28.414 1.586 1.586h-3.172zm-21-38.414h20v4h-20zm-4 12h20v28h-20zm-22 9.4a11.064 11.064 0 0 1 .094-1.4h15.812a11.064 11.064 0 0 1 .094 1.4v12.6h-16zm3-21.4h10v4h-10zm1.625 11.781a1 1 0 0 0 .375-.781v-5h6v5a1 1 0 0 0 .375.781 12.244 12.244 0 0 1 4.131 6.219h-15.012a12.244 12.244 0 0 1 4.131-6.219zm-4.625 24.219h16v4h-16zm55 11h-60v-5h60z"/><path d="m39.646 22.237a1 1 0 0 0 -1.292 0c-.548.463-5.354 4.628-5.354 7.763a6 6 0 0 0 12 0c0-3.135-4.806-7.3-5.354-7.763zm-.646 11.763a4 4 0 0 1 -4-4c0-1.481 2.24-4.04 4-5.664 1.76 1.622 4 4.18 4 5.664a4 4 0 0 1 -4 4z"/></g></g></svg>