<svg id="Capa_1" enable-background="new 0 0 512 512" height="512" viewBox="0 0 512 512" width="512" xmlns="http://www.w3.org/2000/svg"><g><g><path d="m39.451 314.654h431.882v117.616h-431.882z" fill="#d97c41"/></g><g><path d="m101.149 314.654h61.697v117.616h-61.697z" fill="#df8a57"/></g><g><path d="m224.543 314.654h61.697v117.616h-61.697z" fill="#df8a57"/></g><g><path d="m347.938 314.654h61.697v117.616h-61.697z" fill="#df8a57"/></g><g><path d="m237.003 119.337-26.849-43.547c-.266-.431-.552-.849-.842-1.263v-36.39c0-16.843-13.781-30.624-30.624-30.624h-75.029c-16.843 0-30.624 13.781-30.624 30.624v37.677l-26.835 43.523c-2.388 3.873-3.64 8.223-3.64 12.645v147.965c0 14.477 13.138 26.212 29.345 26.212h139.394c16.207 0 29.345-11.736 29.345-26.212v-147.965c0-4.422-1.253-8.772-3.641-12.645z" fill="#c1cff2"/></g><g><path d="m92.579 279.947v-147.965c0-4.422 1.252-8.772 3.64-12.645l26.834-43.523v-37.677c0-16.843 13.781-30.624 30.624-30.624h-50.019c-16.843 0-30.624 13.781-30.624 30.624v37.677l-26.834 43.523c-2.388 3.873-3.64 8.223-3.64 12.645v147.965c0 14.477 13.138 26.212 29.345 26.212h50.019c-16.207 0-29.345-11.735-29.345-26.212z" fill="#adc0ed"/></g><g><path d="m467.692 119.337-26.849-43.547c-.266-.431-.552-.849-.842-1.263v-36.39c0-16.843-13.781-30.624-30.624-30.624h-75.029c-16.843 0-30.624 13.781-30.624 30.624v37.677l-26.835 43.523c-2.388 3.873-3.64 8.223-3.64 12.645v147.965c0 14.477 13.138 26.212 29.345 26.212h139.394c16.207 0 29.345-11.736 29.345-26.212v-147.965c0-4.422-1.253-8.772-3.641-12.645z" fill="#c1cff2"/></g><g><path d="m323.268 279.947v-147.965c0-4.422 1.252-8.772 3.64-12.645l26.834-43.523v-37.677c0-16.843 13.781-30.624 30.624-30.624h-50.019c-16.843 0-30.624 13.781-30.624 30.624v37.677l-26.835 43.523c-2.388 3.873-3.64 8.223-3.64 12.645v147.965c0 14.477 13.138 26.212 29.345 26.212h50.019c-16.206 0-29.344-11.735-29.344-26.212z" fill="#adc0ed"/></g><g><path d="m215.407 83.393h-148.467c-10.45 0-19-8.55-19-19v-.791c0-10.45 8.55-19 19-19h148.467c10.45 0 19 8.55 19 19v.791c0 10.45-8.55 19-19 19z" fill="#fd7a6e"/></g><g><path d="m446.096 83.393h-148.467c-10.45 0-19-8.55-19-19v-.791c0-10.45 8.55-19 19-19h148.467c10.45 0 19 8.55 19 19v.791c0 10.45-8.55 19-19 19z" fill="#fd7a6e"/></g><g><path d="m334.773 63.997c0-10.667 8.728-19.395 19.395-19.395h-56.144c-10.667 0-19.395 8.728-19.395 19.395 0 10.667 8.728 19.395 19.395 19.395h56.144c-10.667.001-19.395-8.727-19.395-19.395z" fill="#fb695b"/></g><g><path d="m104.084 63.997c0-10.667 8.728-19.395 19.395-19.395h-56.144c-10.667 0-19.395 8.728-19.395 19.395 0 10.667 8.728 19.395 19.395 19.395h56.144c-10.667.001-19.395-8.727-19.395-19.395z" fill="#fb695b"/></g><g><path d="m484.5 504.487h-457c-11 0-20-9-20-20v-39.694c0-11 9-20 20-20h457c11 0 20 9 20 20v39.694c0 11-9 20-20 20z" fill="#e4996d"/></g><g><path d="m64.949 484.487v-39.694c0-11 9-20 20-20h-57.449c-11 0-20 9-20 20v39.694c0 11 9 20 20 20h57.449c-11 0-20-9-20-20z" fill="#df8a57"/></g><g><path d="m484.5 323.001h-457c-11 0-20-9-20-20v-39.693c0-11 9-20 20-20h457c11 0 20 9 20 20v39.693c0 11-9 20-20 20z" fill="#e4996d"/></g><g><path d="m64.949 303.001v-39.694c0-11 9-20 20-20h-57.449c-11 0-20 9-20 20v39.694c0 11 9 20 20 20h57.449c-11 0-20-9-20-20z" fill="#df8a57"/></g><g><path d="m484.5 330.501c15.164 0 27.5-12.336 27.5-27.5v-39.693c0-15.164-12.336-27.5-27.5-27.5h-5.667v-103.826c0-5.8-1.645-11.534-4.757-16.581l-16.676-27.047c8.973-4.25 15.195-13.391 15.195-23.962v-.791c0-14.149-11.147-25.744-25.12-26.464-.533-20.56-17.412-37.125-38.099-37.125h-75.029c-20.687 0-37.566 16.565-38.099 37.125-13.973.72-25.12 12.315-25.12 26.464v.791c0 10.831 6.534 20.159 15.865 24.265l-16.487 26.743c-3.112 5.046-4.757 10.78-4.757 16.582v103.825h-17.605v-103.825c0-5.802-1.645-11.536-4.757-16.581l-16.676-27.047c8.973-4.25 15.195-13.391 15.195-23.962v-.791c0-14.149-11.147-25.744-25.12-26.464-.533-20.56-17.412-37.125-38.099-37.125h-75.028c-20.688 0-37.567 16.565-38.1 37.125-13.973.72-25.12 12.315-25.12 26.464v.791c0 10.831 6.534 20.16 15.865 24.265l-16.49 26.743c-3.111 5.047-4.756 10.781-4.756 16.581v103.825h-7.558c-15.164 0-27.5 12.336-27.5 27.5v39.693c0 15.164 12.336 27.5 27.5 27.5h4.451v86.792h-4.451c-15.164 0-27.5 12.336-27.5 27.5v39.694c0 15.164 12.336 27.5 27.5 27.5h457c15.164 0 27.5-12.336 27.5-27.5v-39.694c0-15.164-12.336-27.5-27.5-27.5h-5.667v-86.792h5.667zm-150.152-315.488h75.029c12.404 0 22.554 9.818 23.098 22.089h-121.225c.543-12.272 10.694-22.089 23.098-22.089zm-53.599 116.969c0-3.02.873-6.03 2.524-8.709l19.964-32.38h78.583c4.143 0 7.5-3.358 7.5-7.5s-3.357-7.5-7.5-7.5h-84.191c-6.341 0-11.5-5.159-11.5-11.5v-.791c0-6.341 5.159-11.5 11.5-11.5h148.467c6.341 0 11.5 5.159 11.5 11.5v.791c0 6.341-5.159 11.5-11.5 11.5h-30.341c-4.143 0-7.5 3.358-7.5 7.5s3.357 7.5 7.5 7.5h25.59l19.964 32.38c1.651 2.679 2.524 5.691 2.524 8.709v103.825h-183.084zm-177.09-116.969h75.028c12.404 0 22.554 9.818 23.098 22.089h-121.225c.544-12.272 10.695-22.089 23.099-22.089zm-48.22 48.589c0-6.341 5.159-11.5 11.5-11.5h148.467c6.341 0 11.5 5.159 11.5 11.5v.791c0 6.341-5.159 11.5-11.5 11.5h-148.467c-6.341 0-11.5-5.159-11.5-11.5zm-40.439 239.399v-39.693c0-6.893 5.607-12.5 12.5-12.5h126.505c4.143 0 7.5-3.358 7.5-7.5s-3.357-7.5-7.5-7.5h-103.945v-103.826c0-3.018.873-6.03 2.524-8.709l19.964-32.38h138.107l19.964 32.381c1.651 2.678 2.524 5.688 2.524 8.708v103.825h-46.972c-4.143 0-7.5 3.358-7.5 7.5s3.357 7.5 7.5 7.5h298.329c6.893 0 12.5 5.607 12.5 12.5v39.693c0 6.893-5.607 12.5-12.5 12.5h-457c-6.893.001-12.5-5.607-12.5-12.499zm340.438 114.292v-86.792h46.697v86.792zm-200.092-86.792v86.792h-46.697v-86.792zm15 0h46.697v86.792h-46.697zm61.697 0h46.697v86.792h-46.697zm61.697 0h46.697v86.792h-46.697zm-246.789 0h46.697v86.792h-46.697zm450.049 114.292v39.694c0 6.893-5.607 12.5-12.5 12.5h-457c-6.893 0-12.5-5.607-12.5-12.5v-39.694c0-6.893 5.607-12.5 12.5-12.5h457c6.893 0 12.5 5.608 12.5 12.5zm-33.167-27.5h-46.698v-86.792h46.698z"/><circle cx="65.557" cy="283.154" r="7.5"/><circle cx="112.905" cy="283.154" r="7.5"/><circle cx="397.876" cy="283.154" r="7.5"/><circle cx="445.224" cy="283.154" r="7.5"/><circle cx="65.557" cy="466.374" r="7.5"/><circle cx="112.905" cy="466.374" r="7.5"/><circle cx="397.876" cy="466.374" r="7.5"/><circle cx="445.224" cy="466.374" r="7.5"/></g></g></svg>