<svg id="Layer_1-2" viewBox="0 0 64 64" xmlns="http://www.w3.org/2000/svg"><g id="Mincer"><g fill="#95bcf4"><path d="m12 45c-1.10253906 0-2-.89697266-2-2v-14c0-1.10302734.89746094-2 2-2h3v18z"/><path d="m47 44v-16l11-5v26z"/><path d="m22 23-3-16h24l-3 16z"/><path d="m35 62-.41210938-2.05810547c-.34082031-1.70458984-1.84960938-2.94189453-3.58789062-2.94189453-1.73730469 0-3.24707031 1.23681641-3.58789062 2.94140625l-.41210938 2.05859375h-7l2-13h18l2 13z"/></g><rect fill="#b6d4ff" height="26" rx="2" width="32" x="15" y="23"/><path d="m22 33c-1.10253906 0-2-.89697266-2-2s.89746094-2 2-2h18c1.10253906 0 2 .89697266 2 2s-.89746094 2-2 2z" fill="#95bcf4"/><path d="m22 43c-1.10253906 0-2-.89697266-2-2s.89746094-2 2-2h18c1.10253906 0 2 .89697266 2 2s-.89746094 2-2 2z" fill="#95bcf4"/><rect fill="#b6d4ff" height="30" rx="2" width="5" x="58" y="21"/><rect fill="#b6d4ff" height="5" rx="2" width="30" x="16" y="2"/><path d="m61 20h-1c-1.41851807 0-2.60357666.99224854-2.91442871 2.31726074l-9.08557129 4.12982178v-1.44708252c0-1.65429688-1.34570312-3-3-3h-3.79553223l2.625-14h.17053223c1.65429688 0 3-1.34570312 3-3v-1c0-1.65429688-1.34570312-3-3-3h-26c-1.65429688 0-3 1.34570312-3 3v1c0 1.65429688 1.34570312 3 3 3h.17059326l2.625 14h-3.79559326c-1.65429688 0-3 1.34570312-3 3v1h-2c-1.65429688 0-3 1.34570312-3 3v6h-2c-1.65429688 0-3 1.34570312-3 3v16c0 .55126953-.44824219 1-1 1h-2c-.55273438 0-1 .44775391-1 1s.44726562 1 1 1h2c1.65429688 0 3-1.34570312 3-3v-16c0-.55126953.44824219-1 1-1h2v6c0 1.65429688 1.34570312 3 3 3h2v1c0 1.65429688 1.34570312 3 3 3h3.83453369l-1.82281494 11.84814453c-.04492188.28808594.0390625.58154297.22949219.80322266.18945312.22119141.46679688.34863281.75878906.34863281h7c.4765625 0 .88671875-.33642578.98046875-.80371094l.41210938-2.05859375c.24804688-1.23876953 1.34375-2.13769531 2.60742188-2.13769531s2.359375.89892578 2.60742188 2.13818359l.41210938 2.05810547c.09375.46728516.50390625.80371094.98046875.80371094h7c.29199219 0 .56933594-.12744141.75878906-.34863281.19042969-.22167969.27441406-.51513672.22949219-.80322266l-1.82281494-11.84814453h3.83453369c1.65429688 0 3-1.34570312 3-3v-1.44708252l9.08557129 4.12982178c.31085205 1.32501221 1.49591064 2.31726074 2.91442871 2.31726074h1c1.65429688 0 3-1.34570312 3-3v-26c0-1.65429688-1.34570312-3-3-3zm-44-15v-1c0-.55126953.44824219-1 1-1h26c.55175781 0 1 .44873047 1 1v1c0 .55126953-.44824219 1-1 1h-26c-.55175781 0-1-.44873047-1-1zm3.20507812 3h21.58984375l-2.625 14h-16.33984375zm-8.20507812 36c-.55175781 0-1-.44873047-1-1v-14c0-.55126953.44824219-1 1-1h2v16zm28.83398438 17h-5.01464844l-.25097656-1.25390625c-.43359375-2.17089844-2.35449219-3.74609375-4.56835938-3.74609375s-4.13476562 1.57519531-4.56835938 3.74560547l-.25097656 1.25439453h-5.01464844l1.69238281-11h16.28320312l1.69238281 11zm5.16601562-14c0 .55126953-.44824219 1-1 1h-28c-.55175781 0-1-.44873047-1-1v-22c0-.55126953.44824219-1 1-1h28c.55175781 0 1 .44873047 1 1zm2-18.35595703 9-4.09082031v22.89355469l-9-4.09082031v-14.71191406zm14 20.35595703c0 .55126953-.44824219 1-1 1h-1c-.55175781 0-1-.44873047-1-1v-26c0-.55126953.44824219-1 1-1h1c.55175781 0 1 .44873047 1 1z" fill="#433d4c"/><path d="m40 28h-18c-1.65429688 0-3 1.34570312-3 3s1.34570312 3 3 3h18c1.65429688 0 3-1.34570312 3-3s-1.34570312-3-3-3zm0 4h-18c-.55175781 0-1-.44873047-1-1s.44824219-1 1-1h18c.55175781 0 1 .44873047 1 1s-.44824219 1-1 1z" fill="#433d4c"/><path d="m40 38h-18c-1.65429688 0-3 1.34570312-3 3s1.34570312 3 3 3h18c1.65429688 0 3-1.34570312 3-3s-1.34570312-3-3-3zm0 4h-18c-.55175781 0-1-.44873047-1-1s.44824219-1 1-1h18c.55175781 0 1 .44873047 1 1s-.44824219 1-1 1z" fill="#433d4c"/></g></svg>