<svg height="512" viewBox="0 0 128 128" width="512" xmlns="http://www.w3.org/2000/svg"><g><path d="m48.51 112.139h49.934v9.554h-49.934z" fill="#f9545b"/><path d="m49.342 34.787-9.405 9.4-26.532-26.528a6.649 6.649 0 0 1 0-9.4 6.651 6.651 0 0 1 9.4 0z" fill="#80e2ff"/><path d="m35.093 32.489h13.294v8.202h-13.294z" fill="#55c2e3" transform="matrix(.707 -.707 .707 .707 -13.648 40.231)"/><path d="m98.776 112.139h-50.6a10.424 10.424 0 0 1 -10.195-8.25l-7.569-35.483h86.13l-7.57 35.483a10.426 10.426 0 0 1 -10.196 8.25z" fill="#fa7578"/><path d="m68.3 68.408v20.652a5.329 5.329 0 0 0 4.67 5.377 5.179 5.179 0 0 0 5.686-5.154v-6.965a4.786 4.786 0 0 1 4.786-4.786 4.789 4.789 0 0 1 4.79 4.79v.078a5.328 5.328 0 0 0 4.67 5.376 5.179 5.179 0 0 0 5.686-5.154v-14.216z" fill="#fdca74"/><g><path d="m117.9 67.306a1.749 1.749 0 0 0 -1.36-.65h-21.568c-.807-5.249-3.938-10.117-9.149-14.158-12.2-9.464-28.294-7.4-32.383-6.683l-6.326-6.326 3.465-3.465a1.748 1.748 0 0 0 0-2.474l-26.532-26.532a8.4 8.4 0 0 0 -11.879 11.882l6.805 6.8a1.749 1.749 0 0 0 2.474-2.474l-6.8-6.8a4.9 4.9 0 0 1 6.929-6.93l19.5 19.5-6.929 6.93-6.093-6.093a1.75 1.75 0 0 0 -2.482 2.467l13.128 13.129a1.752 1.752 0 0 0 2.475 0l3.465-3.465 6.326 6.326a50.194 50.194 0 0 0 .349 18.366h-20.9a1.752 1.752 0 0 0 -1.715 2.116l7.57 35.482a12.241 12.241 0 0 0 10.49 9.54v7.9a1.749 1.749 0 0 0 1.75 1.75h49.934a1.749 1.749 0 0 0 1.75-1.75v-7.9a12.238 12.238 0 0 0 10.489-9.54l.128-.6a1.749 1.749 0 1 0 -3.421-.73l-.13.6a8.717 8.717 0 0 1 -8.484 6.866h-50.6a8.717 8.717 0 0 1 -8.484-6.866l-7.117-33.368h33.974v18.9a7.1 7.1 0 0 0 6.251 7.123c.22.02.441.031.661.031a6.925 6.925 0 0 0 6.941-6.927v-6.966a3.039 3.039 0 1 1 6.076.083 7.1 7.1 0 0 0 6.253 7.119 6.929 6.929 0 0 0 7.6-6.9v-12.463h14.042l-2.109 9.883a1.751 1.751 0 0 0 3.424.731l2.56-12a1.755 1.755 0 0 0 -.348-1.464zm-77.963-25.589-3.323-3.323 6.93-6.93 3.323 3.323zm10.323 78.226v-6.054h46.434v6.054zm33.419-64.679c4.3 3.332 6.943 7.239 7.747 11.392h-8.326a76.2 76.2 0 0 0 -5.586-5.65 77.081 77.081 0 0 0 -17.742-12.306c6.356-.259 16.158.553 23.907 6.564zm-17.836 11.392a70.5 70.5 0 0 1 -9.92-15.886 72.056 72.056 0 0 1 19.23 12.816q1.695 1.552 3.178 3.07zm-12-12.053a74.481 74.481 0 0 0 7.548 12.053h-6.484a44.779 44.779 0 0 1 -1.066-12.056zm43 28.02a3.436 3.436 0 0 1 -1.123 2.538 3.4 3.4 0 0 1 -2.648.873 3.6 3.6 0 0 1 -3.085-3.712 6.538 6.538 0 0 0 -13.076-.005v6.966a3.429 3.429 0 0 1 -3.77 3.411 3.576 3.576 0 0 1 -3.086-3.634v-18.9h26.782z"/><path d="m112.332 88.138a1.755 1.755 0 0 0 -2.077 1.346l-.939 4.4a1.752 1.752 0 0 0 1.347 2.077 1.845 1.845 0 0 0 .367.038 1.75 1.75 0 0 0 1.71-1.385l.939-4.4a1.752 1.752 0 0 0 -1.347-2.076z"/></g></g></svg>