<svg id="Layer_1" viewBox="0 0 1000 1000" xmlns="http://www.w3.org/2000/svg" data-name="Layer 1"><path d="m656 490.27v26.41a9.42 9.42 0 0 1 -9.42 9.41h-357.4a9.42 9.42 0 0 1 -9.42-9.41v-26.41z" fill="#bdbdbd"/><path d="m690.34 146.89c-.49.38-2.72.71-4.78.36a37.49 37.49 0 0 0 -4.6-.53 30.5 30.5 0 0 0 -22.75 7.91c-10.65 9.8-11.67 24.54-11.76 27.4v.53 80.21.57c0 .86.07 2.05-3.86 3.89a33.57 33.57 0 0 1 -9.64 2.61 11.16 11.16 0 0 0 -1.28.15 7.25 7.25 0 0 1 -2.41.09c-1-1-2-4.71-2.06-7.43v-78.75a41.66 41.66 0 0 0 -2.44-14.35c-7.44-20.36-26.68-25.45-37.31-25.27-13.9-.31-22.7 5.33-27.66 10.13-11.78 11.42-12.12 27.81-12.12 29.64v144.38a18.2 18.2 0 0 1 -5.18 12.8c-2.25 2.25-3.55 2.73-3.84 2.81a7.82 7.82 0 0 1 -2.6-1.7 17.65 17.65 0 0 1 -5.77-13.34v-116.84c0-6.77.27-13.5.54-20.61.1-2.31.18-4.61.27-6.92a32 32 0 0 0 -8.92-23.94c-11.67-12.08-30-12.69-33.51-12.69h-165.57c-2.17 0-4.17.1-6.11.2h-.77c-1.27.06-1.43-.12-1.68-.39-2.68-2.9-4.13-10.71-4.42-19.1h381.26v8.88.94c.36 5.72-.73 8.05-1.03 8.36z" fill="#fbc02d"/><path d="m825.41 141.47c-1.33 95.13-28.78 177.62-81.59 245.2-32.91 42.1-66 65-76.39 71.6h-399.16c-10.4-6.61-43.48-29.5-76.39-71.6-52.82-67.58-80.27-150.07-81.59-245.2 0-3.73.07-8.32.12-12.72h167.65c.31 13.08 2.93 29.92 12.93 40.78 6.92 7.52 16.2 11.21 26.84 10.67h.81c1.6-.09 3.11-.16 4.45-.16h165.49c4.29.07 9.31 1.62 10.5 2.84a3.55 3.55 0 0 1 0 .67q-.12 3.39-.26 6.79c-.28 7.11-.57 14.46-.57 21.86v116.8a49.71 49.71 0 0 0 16.66 37.44c7.36 6.45 15.5 9.66 23.65 9.66 9.21 0 18.43-4.1 26.54-12.22a50.39 50.39 0 0 0 14.54-35.41v-144.24a14.7 14.7 0 0 1 1.53-5.68c.61-1.07 1.37-2.41 5.73-2.28h1.07s5.12-.05 6.71 4.27a10.11 10.11 0 0 1 .49 3.36v78.87c0 3.4.64 20.9 13.4 31.76 5.15 4.39 14.09 9.15 27.6 7.14a65.8 65.8 0 0 0 18.87-5c15.28-6.74 23.78-19.19 23.37-34.19v-79.41a14.62 14.62 0 0 1 1.13-4.37l.72.12c5.68.94 20.12 2.05 31.44-8.13 5.84-5.26 12.58-15.32 11.64-33.5v-8.44h101.94c.05 4.4.1 8.99.13 12.72z" fill="#4fc3f7"/><path d="m481.74 757.23v73.83a13.88 13.88 0 0 1 -27.75 0v-73.83a13.88 13.88 0 1 1 27.75 0z" fill="#616161"/><path d="m815.4 794.14a28.93 28.93 0 0 1 -28.9 28.86h-176.59v-57.8h176.59a28.94 28.94 0 0 1 28.9 28.94z" fill="#616161"/><g fill="#fff" opacity=".5"><path d="m646 500.27v26.41a9.42 9.42 0 0 1 -9.42 9.41h-357.4a9.42 9.42 0 0 1 -9.42-9.41v-26.41z"/><path d="m680.34 156.89c-.49.38-2.72.71-4.78.36a37.49 37.49 0 0 0 -4.6-.53 30.5 30.5 0 0 0 -22.75 7.91c-10.65 9.8-11.67 24.54-11.76 27.4v.53 80.21.57c0 .86.07 2.05-3.86 3.89a33.57 33.57 0 0 1 -9.64 2.61 11.16 11.16 0 0 0 -1.28.15 7.25 7.25 0 0 1 -2.41.09c-1-1-2-4.71-2.06-7.43v-78.75a41.66 41.66 0 0 0 -2.44-14.35c-7.44-20.36-26.68-25.45-37.31-25.27-13.9-.31-22.7 5.33-27.66 10.13-11.78 11.42-12.12 27.81-12.12 29.64v144.38a18.2 18.2 0 0 1 -5.18 12.8c-2.25 2.25-3.55 2.73-3.84 2.81a7.82 7.82 0 0 1 -2.6-1.7 17.65 17.65 0 0 1 -5.77-13.34v-116.84c0-6.77.27-13.5.54-20.61.1-2.31.18-4.61.27-6.92a32 32 0 0 0 -8.92-23.94c-11.67-12.08-30-12.69-33.51-12.69h-165.57c-2.17 0-4.17.1-6.11.2h-.77c-1.27.06-1.43-.12-1.68-.39-2.68-2.9-4.13-10.71-4.42-19.1h381.26v8.88.94c.36 5.72-.73 8.05-1.03 8.36z"/><path d="m815.41 151.47c-1.33 95.13-28.78 177.62-81.59 245.2-32.91 42.1-66 65-76.39 71.6h-399.16c-10.4-6.61-43.48-29.5-76.39-71.6-52.82-67.58-80.27-150.07-81.59-245.2 0-3.73.07-8.32.12-12.72h167.65c.31 13.08 2.93 29.92 12.93 40.78 6.92 7.52 16.2 11.21 26.84 10.67h.81c1.6-.09 3.11-.16 4.45-.16h165.49c4.29.07 9.31 1.62 10.5 2.84a3.55 3.55 0 0 1 0 .67q-.12 3.39-.26 6.79c-.28 7.11-.57 14.46-.57 21.86v116.8a49.71 49.71 0 0 0 16.66 37.44c7.36 6.45 15.5 9.66 23.65 9.66 9.21 0 18.43-4.1 26.54-12.22a50.39 50.39 0 0 0 14.54-35.41v-144.24a14.7 14.7 0 0 1 1.53-5.68c.61-1.07 1.37-2.41 5.73-2.28h1.07s5.12-.05 6.71 4.27a10.11 10.11 0 0 1 .49 3.36v78.87c0 3.4.64 20.9 13.4 31.76 5.15 4.39 14.09 9.15 27.6 7.14a65.8 65.8 0 0 0 18.87-5c15.28-6.74 23.78-19.19 23.37-34.19v-79.41a14.62 14.62 0 0 1 1.13-4.37l.72.12c5.68.94 20.12 2.05 31.44-8.13 5.84-5.26 12.58-15.32 11.64-33.5v-8.44h101.94c.05 4.4.1 8.99.13 12.72z"/><path d="m471.74 767.23v73.83a13.88 13.88 0 0 1 -27.75 0v-73.83a13.88 13.88 0 1 1 27.75 0z"/><path d="m805.4 804.14a28.93 28.93 0 0 1 -28.9 28.86h-176.59v-57.8h176.59a28.94 28.94 0 0 1 28.9 28.94z"/></g><g fill="#413b32"><path d="m857.41 141.39v.34c-.77 56.53-10.49 109.87-28.89 158.54a404 404 0 0 1 -60.52 107.4c-32.74 41.52-65.24 65.64-80 75.44-4.84 3.2-7.78 4.87-8.23 5.12a16 16 0 0 1 -15.66-27.91c.13-.08 1.3-.75 3.34-2.05 10.41-6.62 43.48-29.5 76.39-71.6 52.81-67.58 80.26-150.07 81.59-245.2 0-3.73-.08-8.32-.13-12.72h-714.89c0 4.4-.09 9-.12 12.72 1.32 95.13 28.77 177.62 81.59 245.2 32.91 42.1 66 65 76.39 71.6 2.1 1.34 3.27 2 3.34 2.05a16 16 0 0 1 -15.67 27.91c-.44-.25-3.37-1.91-8.18-5.1-14.78-9.77-47.31-33.89-80.08-75.46a403.71 403.71 0 0 1 -60.51-107.4c-18.4-48.67-28.11-102-28.88-158.54v-.34c0-2.5.2-24.57.39-29.29a16 16 0 0 1 16-15.35h746.32a16 16 0 0 1 16 15.35c.2 4.72.39 26.79.41 29.29z"/><path d="m672 458.27h-408.24a16 16 0 0 0 -16 16v42.41a41.46 41.46 0 0 0 41.42 41.41h357.38a41.46 41.46 0 0 0 41.44-41.41v-42.41a16 16 0 0 0 -16-16zm-16 58.41a9.42 9.42 0 0 1 -9.42 9.41h-357.4a9.42 9.42 0 0 1 -9.42-9.41v-26.41h376.24z"/><path d="m723.37 137.19v-24.44a16 16 0 0 0 -32 0v24.88.94c.33 5.68-.76 8-1.06 8.32-.49.38-2.72.71-4.78.36a37.49 37.49 0 0 0 -4.6-.53 30.5 30.5 0 0 0 -22.75 7.91c-10.65 9.8-11.67 24.54-11.76 27.4v.53 80.21.57c0 .86.07 2.05-3.86 3.89a33.57 33.57 0 0 1 -9.64 2.61 11.16 11.16 0 0 0 -1.28.15 7.25 7.25 0 0 1 -2.41.09c-1-1-2-4.71-2.06-7.43v-78.75a41.66 41.66 0 0 0 -2.44-14.35c-7.44-20.36-26.68-25.45-37.31-25.27-13.9-.31-22.7 5.33-27.66 10.13-11.78 11.42-12.12 27.81-12.12 29.64v144.38a18.2 18.2 0 0 1 -5.18 12.8c-2.25 2.25-3.55 2.73-3.84 2.81a7.82 7.82 0 0 1 -2.6-1.7 17.65 17.65 0 0 1 -5.74-13.34v-116.84c0-6.77.27-13.5.54-20.61.1-2.31.18-4.61.27-6.92a32 32 0 0 0 -8.92-23.94c-11.67-12.08-30-12.69-33.51-12.69h-165.57c-2.17 0-4.17.1-6.11.2h-.77c-1.27.06-1.43-.12-1.68-.39-2.68-2.9-4.13-10.71-4.42-19.1 0-1-.06-2.12-.06-3.18a85.57 85.57 0 0 1 .65-10.73 16 16 0 0 0 -13.75-18 15.48 15.48 0 0 0 -2.14-.14 16 16 0 0 0 -15.81 13.98 119 119 0 0 0 -.92 18.11c.31 13.08 2.93 29.92 12.93 40.78 6.92 7.52 16.2 11.21 26.84 10.67h.81c1.6-.09 3.11-.16 4.45-.16h165.47c4.29.07 9.31 1.62 10.5 2.84a3.55 3.55 0 0 1 0 .67q-.12 3.39-.26 6.79c-.28 7.11-.57 14.46-.57 21.86v116.8a49.71 49.71 0 0 0 16.66 37.44c7.36 6.45 15.5 9.66 23.65 9.66 9.21 0 18.43-4.1 26.54-12.22a50.39 50.39 0 0 0 14.54-35.41v-144.24a14.7 14.7 0 0 1 1.53-5.68c.61-1.07 1.37-2.41 5.73-2.28h1.07s5.12-.05 6.71 4.27a10.11 10.11 0 0 1 .49 3.36v78.87c0 3.4.64 20.9 13.4 31.76 5.15 4.39 14.09 9.15 27.6 7.14a65.8 65.8 0 0 0 18.87-5c15.28-6.74 23.78-19.19 23.37-34.19v-79.41a14.62 14.62 0 0 1 1.13-4.37l.72.12c5.68.94 20.12 2.05 31.44-8.13 5.87-5.26 12.61-15.32 11.67-33.5z"/><path d="m175.53 928.75a70.63 70.63 0 0 1 -42.9-14c-27.08-20.15-42-60.53-44.32-120 0-.42 0-.84 0-1.25 2.33-59.5 17.24-99.89 44.32-120 24.12-17.94 50.61-14.72 64.26-11.2 5.13 1.32 10.66 2.61 17.94 4.16 50 10.66 221.28 71.9 228.55 74.5a16 16 0 0 1 -10.79 30.13c-1.76-.63-176.52-63.12-224.44-73.34-7.73-1.65-13.66-3-19.25-4.46-9.92-2.56-24.41-3.61-37.17 5.89-18.59 13.83-29.45 46.66-31.42 95 2 48.32 12.83 81.16 31.42 95 12.77 9.5 27.26 8.44 37.17 5.89 5.58-1.44 11.52-2.82 19.25-4.47 47.92-10.22 222.68-72.71 224.44-73.34a16 16 0 0 1 10.79 30.13c-7.27 2.6-178.56 63.85-228.55 74.51-7.28 1.55-12.82 2.83-17.94 4.15a86.17 86.17 0 0 1 -21.36 2.7z"/><path d="m176.9 855a114.47 114.47 0 0 1 -19.83-1.62c-60-10.48-68.23-54.72-68.55-56.59a16.13 16.13 0 0 1 0-5.37c.32-1.88 8.52-46.11 68.55-56.59a119.25 119.25 0 0 1 24.59-1.55c27 .87 92.83 3.74 122 11.54 8.85 2.37 20.52 5.36 32.32 7.45 101.76 18.09 107 21.61 110.9 24.19a16 16 0 0 1 6.53 17.64 16 16 0 0 1 -6.53 17.65c-3.86 2.57-9.14 6.1-110.9 24.18-11.8 2.1-23.47 5.09-32.32 7.45-29.15 7.8-95 10.67-122 11.54-1.66.08-3.2.08-4.76.08zm-55.9-60.86c2.68 6.69 12 22.59 41.6 27.75a87.52 87.52 0 0 0 18 1.09c20.17-.65 88.07-3.33 114.74-10.47 9.47-2.53 22-5.73 35-8 22.85-4.07 41.3-7.5 55.86-10.33-14.56-2.83-33-6.26-55.86-10.32-13-2.31-25.52-5.51-35-8.05-26.64-7.17-94.54-9.81-114.71-10.51a88.22 88.22 0 0 0 -18 1.09c-29.63 5.16-38.97 21.06-41.63 27.75z"/><path d="m467.87 711.35a45.92 45.92 0 0 0 -45.87 45.88v73.83a45.88 45.88 0 0 0 91.75 0v-73.83a45.93 45.93 0 0 0 -45.88-45.88zm13.87 119.71a13.88 13.88 0 0 1 -27.75 0v-73.83a13.88 13.88 0 1 1 27.75 0z"/><path d="m786.5 733.24h-192.59a16 16 0 0 0 -16 16v89.76a16 16 0 0 0 16 16h192.59a60.9 60.9 0 1 0 0-121.8zm0 89.8h-176.59v-57.8h176.59a28.9 28.9 0 1 1 0 57.8z"/><path d="m593.9 810.13h-96.14a16 16 0 1 1 0-32h96.14a16 16 0 0 1 0 32z"/></g></svg>