<svg id="Layer_1" viewBox="0 0 1000 1000" xmlns="http://www.w3.org/2000/svg" data-name="Layer 1"><path d="m673.06 115.83h-346.12a47.78 47.78 0 0 0 -47.73 47.73v54.18h441.58v-54.18a47.78 47.78 0 0 0 -47.73-47.73zm-96.89 66h-152.34a16 16 0 0 1 0-32h152.34a16 16 0 0 1 0 32z" fill="#546e7a"/><path d="m279.21 752.26v84.18a47.78 47.78 0 0 0 47.73 47.73h346.12a47.78 47.78 0 0 0 47.73-47.73v-84.18zm220.79 122.4a56.17 56.17 0 1 1 56.17-56.17 56.23 56.23 0 0 1 -56.17 56.17z" fill="#546e7a"/><path d="m279.21 249.74v470.52h441.58v-470.52zm374.6 367.41a24 24 0 0 1 -19 38.46 24.36 24.36 0 0 1 -9.24-1.84c-17.19-7.07-43.61-22.21-72.27-54.19a205.42 205.42 0 0 1 -53.3 6.95c-46.37 0-90.1-15.12-123.12-42.57-33.88-28.16-52.54-65.85-52.54-106.14s18.66-78 52.54-106.14c33-27.45 76.75-42.57 123.12-42.57s90.1 15.12 123.12 42.57c33.88 28.16 52.54 65.85 52.54 106.14 0 38.94-17.53 75.62-49.41 103.47 4.75 15.25 13.26 36.84 27.56 55.86z" fill="#bbdefb"/><path d="m524.17 818.49a24.17 24.17 0 1 1 -24.17-24.16 24.19 24.19 0 0 1 24.17 24.16z" fill="#bdbdbd"/><path d="m604.2 538.06c25.44-21.8 39.46-50.3 39.46-80.24 0-64.35-64.45-116.71-143.66-116.71s-143.66 52.36-143.66 116.71 64.45 116.71 143.66 116.71a173.42 173.42 0 0 0 46.14-6.17 29.55 29.55 0 0 1 30.12 8.92 208.87 208.87 0 0 0 35.13 32.07 239.52 239.52 0 0 1 -16.21-40.24 29.57 29.57 0 0 1 9.02-31.05zm-171-58.87h-18.2a16 16 0 0 1 0-32h18.24a16 16 0 0 1 0 32zm75.9 0h-18.22a16 16 0 0 1 0-32h18.24a16 16 0 0 1 0 32zm75.9 0h-18.22a16 16 0 0 1 0-32h18.22a16 16 0 0 1 0 32z" fill="#fdd835"/><g fill="#fff" opacity=".5"><path d="m663.06 125.83h-346.12a47.78 47.78 0 0 0 -47.73 47.73v54.18h441.58v-54.18a47.78 47.78 0 0 0 -47.73-47.73zm-96.89 66h-152.34a16 16 0 0 1 0-32h152.34a16 16 0 0 1 0 32z"/><path d="m269.21 762.26v84.18a47.78 47.78 0 0 0 47.73 47.73h346.12a47.78 47.78 0 0 0 47.73-47.73v-84.18zm220.79 122.4a56.17 56.17 0 1 1 56.17-56.17 56.23 56.23 0 0 1 -56.17 56.17z"/><path d="m269.21 259.74v470.52h441.58v-470.52zm374.6 367.41a24 24 0 0 1 -19 38.46 24.36 24.36 0 0 1 -9.24-1.84c-17.19-7.07-43.61-22.21-72.27-54.19a205.42 205.42 0 0 1 -53.3 6.95c-46.37 0-90.1-15.12-123.12-42.57-33.88-28.16-52.54-65.85-52.54-106.14s18.66-78 52.54-106.14c33-27.45 76.75-42.57 123.12-42.57s90.1 15.12 123.12 42.57c33.88 28.16 52.54 65.85 52.54 106.14 0 38.94-17.53 75.62-49.41 103.47 4.75 15.25 13.26 36.84 27.56 55.86z"/><path d="m514.17 828.49a24.17 24.17 0 1 1 -24.17-24.16 24.19 24.19 0 0 1 24.17 24.16z"/><path d="m594.2 548.06c25.44-21.8 39.46-50.3 39.46-80.24 0-64.35-64.45-116.71-143.66-116.71s-143.66 52.36-143.66 116.71 64.45 116.71 143.66 116.71a173.42 173.42 0 0 0 46.14-6.17 29.55 29.55 0 0 1 30.12 8.92 208.87 208.87 0 0 0 35.13 32.07 239.52 239.52 0 0 1 -16.21-40.24 29.57 29.57 0 0 1 9.02-31.05zm-171-58.87h-18.2a16 16 0 0 1 0-32h18.24a16 16 0 0 1 0 32zm75.9 0h-18.22a16 16 0 0 1 0-32h18.24a16 16 0 0 1 0 32zm75.9 0h-18.22a16 16 0 0 1 0-32h18.22a16 16 0 0 1 0 32z"/></g><g fill="#413b32"><path d="m673.06 83.83h-346.12a79.82 79.82 0 0 0 -79.73 79.73v672.88a79.82 79.82 0 0 0 79.73 79.73h346.12a79.82 79.82 0 0 0 79.73-79.73v-672.88a79.82 79.82 0 0 0 -79.73-79.73zm47.73 752.61a47.78 47.78 0 0 1 -47.73 47.73h-346.12a47.78 47.78 0 0 1 -47.73-47.73v-672.88a47.78 47.78 0 0 1 47.73-47.73h346.12a47.78 47.78 0 0 1 47.73 47.73z"/><path d="m752.79 736.26a16 16 0 0 1 -16 16h-473.58a16 16 0 1 1 0-32h473.58a16 16 0 0 1 16 16z"/><path d="m752.79 233.74a16 16 0 0 1 -16 16h-473.58a16 16 0 1 1 0-32h473.58a16 16 0 0 1 16 16z"/><path d="m500 762.33a56.17 56.17 0 1 0 56.17 56.16 56.23 56.23 0 0 0 -56.17-56.16zm0 80.33a24.17 24.17 0 1 1 24.17-24.17 24.19 24.19 0 0 1 -24.17 24.17z"/><path d="m592.17 165.81a16 16 0 0 1 -16 16h-152.34a16 16 0 0 1 0-32h152.34a16 16 0 0 1 16 16z"/><path d="m626.25 561.29c31.88-27.85 49.41-64.53 49.41-103.47 0-40.29-18.66-78-52.54-106.14-33-27.45-76.75-42.57-123.12-42.57s-90.1 15.12-123.12 42.57c-33.88 28.16-52.54 65.85-52.54 106.14s18.66 77.98 52.54 106.18c33 27.45 76.75 42.57 123.12 42.57a205.42 205.42 0 0 0 53.27-6.95c28.66 32 55.08 47.12 72.27 54.19a24.36 24.36 0 0 0 9.24 1.84 24 24 0 0 0 19-38.46c-14.27-19.06-22.78-40.65-27.53-55.9zm-31.07 7.82a239.52 239.52 0 0 0 16.21 40.24 208.87 208.87 0 0 1 -35.13-32.07 29.55 29.55 0 0 0 -30.12-8.92 173.42 173.42 0 0 1 -46.14 6.17c-79.21 0-143.66-52.36-143.66-116.71s64.45-116.71 143.66-116.71 143.66 52.36 143.66 116.71c0 29.94-14 58.44-39.46 80.24a29.57 29.57 0 0 0 -9.02 31.05z"/><path d="m449.22 463.19a16 16 0 0 1 -16 16h-18.22a16 16 0 0 1 0-32h18.24a16 16 0 0 1 15.98 16z"/><path d="m525.12 463.19a16 16 0 0 1 -16 16h-18.24a16 16 0 0 1 0-32h18.24a16 16 0 0 1 16 16z"/><path d="m601 463.19a16 16 0 0 1 -16 16h-18.22a16 16 0 0 1 0-32h18.22a16 16 0 0 1 16 16z"/></g></svg>