<svg clip-rule="evenodd" fill-rule="evenodd" height="1.707in" image-rendering="optimizeQuality" shape-rendering="geometricPrecision" text-rendering="geometricPrecision" viewBox="0 0 1.70666 1.70666" width="1.707in" xmlns="http://www.w3.org/2000/svg"><g id="Layer_x0020_1"><path d="m.143748.434228c-.0602953 0-.109346-.0490551-.109346-.10935 0-.0602913.0490512-.109346.109346-.109346.0530945 0 .0974685.0380472.107307.0883031l.125996.0562598c.0217717-.0177244.0495315-.0283701.0797323-.0283701.00452362 0 .00899213.00024409.0133937.00070866l.0912165-.112374c-.00266535-.00944488-.00409843-.0194055-.00409843-.0296929 0-.0602913.0490551-.109346.109346-.109346.0602953 0 .109346.0490551.109346.109346 0 .0602953-.0490591.109346-.109346.109346-.00251181 0-.00500394-.00009449-.00747244-.00025984l-.0869331.10711c.00708661.0157756.0110315.0332598.0110315.0516457 0 .0109882-.00140945.0216496-.00405118.0318189l.129638.127126c.0425433-.0282402.0935354-.0447244.148311-.0447244.0478346 0 .0927835.0125709.131732.0345591l.0936102-.083748c-.00670079-.018252-.0103622-.0379646-.0103622-.0585118 0-.0447874.0173976-.0855827.0457795-.116004l-.0495945-.133693c-.0467165-.012437-.0812362-.0550984-.0812362-.105677 0-.0602913.0490551-.109346.109346-.109346.0603031 0 .109358.0490551.109358.109346 0 .0228819-.00707087.0441417-.0191339.0617165l.0458937.123728c.00325197-.00018504.00652756-.0002874.00982283-.0002874.0938622 0 .170232.0763622.170232.170217 0 .00289764-.0000748.00577953-.00021654.00864567l.123807.0700787c.0141732-.00672047.0300118-.0104921.0467126-.0104921.0602913 0 .109346.0490551.109346.109346 0 .0602953-.0490551.109346-.109346.109346-.056689 0-.103429-.0433465-.108831-.0986299l-.114602-.0648661c-.0305394.0289803-.0717795.0467913-.117102.0467913-.0272756 0-.0530709-.00645669-.0759488-.0179094l-.0850315.0760827c.028189.0425157.0446339.0934606.0446339.148181 0 .148079-.120343.268591-.26837.268862l-.0610787.17539c.0254409.0207835.0452559.0482087.0567441.0796181h.203437c.0215118-.0507953.071874-.0865276.130421-.0865276.0289252 0 .0558465.00872835.0782835.0236811l.11948-.0689724c.00500787-.0556929.0519291-.0994843.108894-.0994843.0603031 0 .109358.0490551.109358.109358.00000394.0602913-.0490669.109346-.109358.109346-.0164488 0-.0320551-.00365354-.046063-.010189l-.119339.0689016c.0001811.00294488.0002874.00590945.0002874.00889764 0 .00296063-.00010236.00589764-.00028347.00881102l.119563.0690354c.0139488-.0064685.0294764-.0100827.0458346-.0100827.0603031 0 .109358.0490551.109358.109358.00000394.0602913-.0490669.109346-.109358.109346-.0569843 0-.103925-.0438228-.108902-.0995394l-.119535-.0690236c-.0224213.0149291-.0493228.0236457-.0782205.0236457-.0521024 0-.0977087-.0282953-.122283-.0703268h-.211571c-.0258228.0706063-.093685.121138-.173114.121138-.101583 0-.184232-.0826535-.184232-.184252 0-.100752.0812835-.182854.181701-.184217l.0569173-.163504c-.0867992-.0446417-.146315-.135138-.146315-.239272 0-.0479094.0126063-.0929291.0346654-.131921l-.131945-.129394c-.0108937.00306299-.0223701.00470866-.0342283.00470866-.0630669 0-.115512-.0464016-.124965-.106874l-.132157-.0590118c-.0163701.00978346-.0354961.0154173-.0559134.0154173zm.374992.319969h-.326008c-.0110394 0-.02-.00896063-.02-.02 0-.0110394.00896063-.02.02-.02h.326008c.0110394 0 .02.00896063.02.02 0 .0110394-.00894488.02-.02.02zm-.404437 0h-.0799016c-.0110394 0-.02-.00896063-.02-.02 0-.0110394.00896063-.02.02-.02h.0799016c.0110394 0 .02.00896063.02.02 0 .0110394-.00896063.02-.02.02zm.404453.107441h-.0799055c-.0110394 0-.02-.00896063-.02-.02 0-.0110394.00896063-.02.02-.02h.0799055c.0110394 0 .02.00896063.02.02 0 .0110394-.00896063.02-.02.02zm-.158346 0h-.326008c-.0110394 0-.02-.00896063-.02-.02 0-.0110394.00896063-.02.02-.02h.326008c.0110394 0 .02.00896063.02.02 0 .0110394-.00896063.02-.02.02zm.158331.107457h-.326008c-.0110394 0-.02-.0089685-.02-.02 0-.0110276.00896063-.02.02-.02h.326008c.0110394 0 .02.00897244.02.02 0 .0110315-.00894488.02-.02.02zm-.404437 0h-.0799016c-.0110394 0-.02-.0089685-.02-.02 0-.0110276.00896063-.02.02-.02h.0799016c.0110394 0 .02.00897244.02.02 0 .0110315-.00896063.02-.02.02zm.404453.107445h-.0799055c-.0110394 0-.02-.00897244-.02-.02 0-.0110315.00896063-.02.02-.02h.0799055c.0110394 0 .02.0089685.02.02 0 .0110276-.00896063.02-.02.02zm-.158346 0h-.326008c-.0110394 0-.02-.00897244-.02-.02 0-.0110315.00896063-.02.02-.02h.326008c.0110394 0 .02.0089685.02.02 0 .0110276-.00896063.02-.02.02zm.496756-.464122c-.126193 0-.228874.102681-.228874.228874 0 .110417.0786142.202835.182807.224217l.00008268.00001968c.00351969.00072047.00706299.00134646.0106378.00190551l.00109843.00016929c.0014685.00022047.00294094.0004252.00441732.00061811l.00163386.00020472.00386614.00044488.0022126.00022047.00340945.00030315.00245669.00018504.00326378.00020866.00047638.00002756.00058661.00003937.00016535.00001181c.0038937.00020472.00781496.00029921.0117598.00029921.126205 0 .22887-.102665.22887-.228874s-.102665-.228874-.22887-.228874zm.385217-.277909c-.0718071 0-.13022.0584134-.13022.130217 0 .0718071.0584134.13022.13022.13022.0718031 0 .130217-.0584134.130217-.13022 0-.0718031-.0584134-.130217-.130217-.130217zm-.872051.121236-.00000787.00025197v.00007874l-.00000394.00015748-.00002362.00197244v.00001968.00004724.00006693.00007087.00006693l.00000394.00027165v.00006693l.00001181.00087795v.00006693l.00000394.0001378v.00006693.00006693l.00000394.00006693v.00007087l.00000394.00006693v.00006693l.00001181.00040551.00000394.00006693v.00006693l.00000394.00007087v.00006693l.00000394.00006693v.00006693l.00000394.00006693.00000394.00007087v.00006693l.00000394.00006693v.00006693l.00000394.00007087.00000394.00006693v.00006693l.00000394.00006693.00000394.00006693v.00007087l.00000394.00006693.00000394.00006693.00000394.00006693v.00007087l.00000394.00006693.00000394.00006693.00000394.00006693v.00007087l.00000394.00006693.00000394.00006693.00000394.00012992.00000787.00016535c.00234646.0455551.040252.081878.0863661.081878.0114213 0 .0223307-.00222441.0323189-.00626378l.00104331-.00042913.00027165-.00011417.0002126-.00009055.0015748-.00068898.00014173-.00006299.00018504-.00008661.00170866-.00079528.00000787-.00000787c.0188307-.00908661.0338898-.0247992.0421299-.0440945l.00009449-.00021654.00009843-.00024409.00056299-.00137008.00009843-.00024803.00003937-.00009055.00017323-.00045276c.00376378-.00969291.00583465-.0202244.00583465-.0312323 0-.0477047-.0388031-.0864961-.0864961-.0864961-.0468661 0-.0851378.0374528-.0864528.0840157zm.348319.792346c.009.00192126.0177598.00449606.0262283.0076811l.00067323.00025197.00067323.00025984.00066929.00025591.00202756.00080315.00131496.00053543.00066535.00027165.00027559.00011417.00105118.00044488.00066142.00028347c.00308661.00132283.00614961.00272835.00915354.00422441l.0543583-.156122c-.0152638-.00232283-.0302598-.00596063-.044874-.0108622l-.052878.151858zm.144378.15711c.00047638.00380709.00082284.00764961.00106693.0115236l.00002362.00036221c.00007874.00132283.00014567.00264567.00019685.00397638l.00001575.00036221.00001181.00036221.00008661.00325984.00000394.00036221.00000787.00036221.00000394.00036221.00000394.00036614.00000394.00036221.00001968.00143307-.00001968.0014685-.00000394.00036221-.00000394.00036221-.00000394.00036221-.00000787.00036221-.00000394.00036221-.00008661.00325984-.00001181.00035827-.00001575.00036221-.00001575.00036221c-.00004724.00120866-.00011024.00241339-.0001811.00361417l-.00002362.00036221-.00002362.00035827-.00002362.00036221-.00002362.00036221c-.00009055.00132677-.00020079.00264961-.00031496.00396457l-.0000315.00035827c-.00018898.00204724-.00040551.00408661-.00065354.00611024h.186055c-.00229528-.0101535-.00346063-.0205827-.00346063-.0312244 0-.00501181.00027953-.0100236.00080315-.0149843h-.183394zm-.182807-.121122c-.0795394 0-.144232.064689-.144232.144232 0 .0795433.0647087.144236.144232.144236.0707953 0 .129846-.0512638.141961-.11863l.00001968-.00010236.00001575-.00008661c.00019685-.00111024.00038189-.00223228.00055512-.00335433l.00001968-.00012598.00000394-.00002756c.00016535-.00109449.00032284-.00219685.00046457-.00329921l.00001181-.0001063.00002362-.00015748.00001575-.00015354c.00028347-.00226378.00051969-.00454331.00070079-.00683465l.00002362-.00027559.00002362-.0003189c.00026378-.00355118.00039764-.0071378.00039764-.0107638 0-.0062126-.0003937-.0123386-.00116142-.0183465l-.00002362-.00019291c-.00912598-.070815-.0698031-.125693-.143051-.125693zm.506969.0345669c-.047122 0-.0868504.032252-.0982598.0758425l-.00009055.00034646-.00002756.00010236-.00054724.00224803-.00001968.00009449-.00037795.0017126-.00009449.00045276-.00009449.00045669-.00009055.00045276-.00026378.0013937-.00015748.00088189-.00007874.00045669-.00007874.00045276-.0000748.00046063-.00001575.00009843-.00019291.00127165-.00006693.00045669-.00006299.00046063-.00006299.00045669-.00017323.00138189-.00005118.00045669c-.00017323.0015315-.00031496.0030748-.00042126.00461417l-.0000315.00046457-.00002756.00046063c-.00011811.00200394-.00017717.00401181-.00017717.0060315 0 .00210236.00006299.00419291.00018898.00627165l.00004331.00069291c.00009449.00138189.0002126.00276378.00036221.00413386l.00007874.00068504.00007874.00068504.00008661.00068504.00009055.0006811.00009449.00068504.00009843.0006811.00003937.00027559.00006693.00040158.00011024.0006811.00022835.00135433.00001181.00007087.00001575.00008661.00035433.00186614.0001063.00053543.0000315.0001378.00014173.00066929.00029528.00134252.00007087.0003189.00008268.00034646.00016142.00066929.00016142.00066535.00016929.00066535.0001378.00053543.00003543.00012992.00017717.00066142.00018504.00066142.00018504.00066142.00019291.00065748.00019291.00065748.00020079.00065748.00020472.00065354.0002126.00065354.0002126.00065354.00044095.00130315.00022835.00064961c.0010748.00302362.00230709.00600394.00366535.00895276l.00020079.00044882c.0162559.0344606.0513425.0583622.0918976.0583622.0463425 0 .0855433-.0312087.0976693-.0737283l.00001575-.00005118.00003937-.0001378.00059843-.00221654.00001575-.00006693.00059449-.00243701.00000787-.00002362.00049606-.00227559.00003937-.00017323.00012598-.0006378.00033465-.00176378.00002756-.00016142c.00103543-.00580315.00157874-.0117835.00157874-.0178819-.00001575-.056-.0455591-.101539-.101543-.101539zm-.163886-.688752c.0120827.0095.0233346.0200157.0336378.0314567l.0749843-.0670945c-.0116929-.00997244-.0219724-.0214606-.0305669-.0341772l-.0780551.069815zm-.493799-.0681929.116016.11376c.0094685-.0120984.0199567-.0233307.0313583-.0336378l-.115177-.112957c-.00865748.0128031-.0195709.0239409-.0321969.0328346zm-.316417-.236091.00000394-.00073228v-.00009055-.00009055-.00008661-.00009055-.00009055l-.00000394-.00009055v-.00008661-.00009055-.00009055l-.00000394-.00008661v-.00009055-.00009055l-.00000394-.00008661v-.00009055-.00009055l-.00000394-.00008661v-.00009055l-.00000394-.00009055v-.00008661-.00008268l-.00000394-.00000787-.00000394-.00017717-.00000394-.00009055-.00000394-.00008661v-.00009055l-.00000394-.00008661-.00000394-.00009055-.00000394-.00009055-.00000394-.00008661-.00000394-.00009055v-.00008661l-.00000394-.00009055-.00000394-.00008661-.00000394-.00009055-.00000394-.00008661-.00000394-.00009055-.00000394-.00008661-.00003937-.00070866-.00000394-.00008661-.00002362-.00035433-.00000394-.00008661-.00008661-.00114567-.00002756-.00036614c-.00310236-.0354016-.0328858-.0632992-.0690787-.0632992-.0382362 0-.0693465.0311142-.0693465.0693504 0 .0382323.0311102.0693465.0693465.0693465.0358386 0 .0654213-.0273346.0689882-.062248v-.00001968l.00009055-.00098819.00001968-.00022047.00005906-.00076378.00000394-.00002362.00006299-.00101181v-.00001968l.00004724-.00095276.00000394-.00004331.00003937-.00101969.00000787-.00024803.00001181-.00077165.00000394-.00029134zm.0189803.0638543.100484.0448622c.00288976-.0152244.00856693-.0297047.0167362-.0428189l-.0985118-.0439843c-.0031811.0152165-.00955906.0294803-.0187087.0419409zm.374189-.165031c.0100591.0177126.0277598.0304961.0479173.0341535l.00042913.00008268c.00391339.00068898.00793307.00105118.0120394.00105118.0382362 0 .0693465-.0311142.0693465-.0693504 0-.0382323-.0311102-.0693465-.0693465-.0693465-.0382362 0-.0693465.0311142-.0693465.0693465 0 .00942126.00188976.0184094.00530709.0266063l.00014961.00036221.00008661.00019685.00001968.00004724.00054331.00124016.00006693.00014567.00064173.0013622.00003543.00007874.00005906.00012205.00065748.0013189.0000315.00006299.00029921.0005748.00048425.00090945.0000315.00005118.0005315.00095669.00001575.00002756zm-.0942795.11998c.00260236.00126772.00515354.00261811.00766142.00405906l.00005512.0000315h.00000394c.0108346.00622835.0207283.0140472.0293189.0231811l.068-.0837874c-.0138228-.00700394-.0259724-.016878-.0356693-.0289685l-.0693701.0854843zm.578654-.165953c.0132717.00109055.0263346-.0016378.0377835-.0075748l.00016535-.00008268.00089764-.00047638.00005512-.0000315.00009055-.00005118c.0215354-.0117795.0361654-.0346614.0361654-.0608858 0-.0382323-.0310984-.0693465-.0693465-.0693465-.0382362 0-.0693307.0311142-.0693307.0693465 0 .0346339.0255118.0634291.0587362.0685472l.00004724.00000394.00028347.00004331.00111417.00015354.00033071.00004331.00029134.00003543.00094488.0001063.00065748.00007087.00111417.00009843zm.0213228.0391457.0384961.103819c.0130709-.00840551.0272244-.0149724.0420709-.0195l-.037252-.100406c-.00743307.00475984-.0154173.00859449-.0237756.0114213l-.00002362.00000787-.00238583.00077559-.00006299.00001968-.00009449.0000315-.00018504.00005512-.00190157.00056693-.00102756.00029528-.00175591.00047244-.0006378.00016535-.00070866.00017717-.00070866.00017323-.00070866.00016929-.00054724.00012598-.00159055.00035039-.00070079.00014961h-.00001181l-.00018504.00003937-.0019685.00037795-.00051181.00009449c-.00127165.00022835-.00254331.00043307-.00382283.00061811zm.273547.339311.0930276.0526654c.00462598-.0147913.0123465-.0284134.022685-.04l-.0962087-.0544449c-.00455906.0147402-.0111142.0287835-.0195039.0417795zm-.0888268.773575c.00977953.0119016.0175276.025315.0229449.0396929l.0929843-.0536772c-.0103701-.0114685-.0181772-.0250118-.0228858-.0397205l-.0930433.0537047zm-.00003937.179441.0931102.0537638c.00473228-.0147795.0125827-.0283465.0230276-.0398465l-.093122-.0537638c-.00543701.0144449-.0132126.0279055-.0230157.0398465zm.197213-.336047c-.0382362 0-.0693307.0310945-.0693307.0693465 0 .0382362.0310945.0693346.0693307.0693346.038252 0 .0693465-.0310984.0693465-.0693346 0-.038252-.0310945-.0693465-.0693465-.0693465zm0 .354079c-.0382362 0-.0693307.0310945-.0693307.0693465 0 .0382362.0310945.0693346.0693307.0693346.038252 0 .0693465-.0310984.0693465-.0693346 0-.0382402-.0310945-.0693465-.0693465-.0693465zm.0890709-.955004c-.038252 0-.0693504.0311102-.0693504.0693465 0 .0382362.0310984.0693504.0693504.0693504.0382323 0 .0693307-.0311142.0693307-.0693504s-.0310984-.0693465-.0693307-.0693465z" fill="#000002"/><path d="m.07440165.32488557c0 .0382323.0311102.0693465.0693465.0693465.0358386 0 .0654213-.0273346.0689882-.0622677l.00009055-.00098819.00001968-.00022047.00006299-.0007874.00006299-.0010315.00004724-.00095276.00000394-.00004331.00003937-.00101969.00000787-.00024803.00001181-.00077165.00000394-.00029134.00000394-.00073228v-.00009055-.00009055-.00008661-.00009055-.00009055l-.00000394-.00009055v-.00008661-.00009055-.00009055l-.00000394-.00008661v-.00009055-.00009055l-.00000394-.00008661v-.00009055-.00009055l-.00000394-.00008661v-.00009055l-.00000394-.00009055v-.00008661l-.00000394-.00009055-.00000394-.00017717-.00000394-.00009055-.00000394-.00008661v-.00009055l-.00000394-.00008661-.00000394-.00009055-.00000394-.00009055-.00000394-.00008661-.00000394-.00009055v-.00008661l-.00000394-.00009055-.00000394-.00008661-.00000394-.00009055-.00000394-.00008661-.00000394-.00009055-.00000394-.00008661-.00003937-.00070866-.00000394-.00008661-.00002362-.00035433-.00000394-.00008661-.00008661-.00114567-.00002756-.00036614c-.00310236-.0354016-.0328858-.0632992-.0690787-.0632992-.0382362 0-.0693465.0311142-.0693465.0693504z" fill="#fbc700"/><path d="m.250776.347524c-.0031811.0152165-.00955906.0294803-.0187087.0419409l.100484.0448622c.00288976-.0152244.00856693-.0297047.0167362-.0428189l-.0985118-.0439843z" fill="#dbedff"/><path d="m.4567833.371728c-.0468661 0-.0851378.0374528-.0864528.0840157l-.00000787.00025197v.00007874l-.00000394.00015748-.00002362.00199213v.00004724.00006693.00007087.00006693l.00000394.00027165v.00006693l.00001181.00087795v.00006693l.00000394.0001378v.00006693.00006693l.00000394.00006693v.00007087l.00000394.00006693v.00006693l.00001181.00040551.00000394.00006693v.00006693l.00000394.00007087v.00006693l.00000394.00006693v.00006693l.00000394.00006693.00000394.00007087v.00006693l.00000394.00006693v.00006693l.00000394.00007087.00000394.00006693v.00006693l.00000394.00006693.00000394.00006693v.00007087l.00000394.00006693.00000394.00006693.00000394.00006693v.00007087l.00000394.00006693.00000394.00006693.00000394.00006693v.00007087l.00000394.00006693.00000394.00006693.00000394.00012992.00000787.00016535c.00234646.0455551.040252.081878.0863661.081878.0114213 0 .0223307-.00222441.0323189-.00626378l.00104331-.00042913.00027165-.00011417.0002126-.00009055.0015748-.00068898.00014173-.00006299.00018504-.00008661.00171654-.00080315c.0188307-.00908661.0338898-.0247992.0421299-.0440945l.00009449-.00021654.00009843-.00024409.00056299-.00137008.00009843-.00024803.00003937-.00009055.00017323-.00045276c.00376378-.00969291.00583465-.0202244.00583465-.0312323 0-.0477047-.0388031-.0864961-.0864961-.0864961z" fill="#ff5ca8"/><path d="m.581346.258929-.0693701.0854843c.00260236.00126772.00515354.00261811.00766142.00405906l.00005906.0000315c.0108346.00622835.0207283.0140472.0293189.0231811l.068-.0837874c-.0138228-.00700394-.0259724-.016878-.0356693-.0289685z" fill="#dbedff"/><path d="m.676878.641823-.115177-.112957c-.00865748.0128031-.0195709.0239409-.0321969.0328346l.116016.11376c.0094685-.0120984.0199567-.0233307.0313583-.0336378z" fill="#dbedff"/><path d="m.6666416.259721c.0382362 0 .0693465-.0311142.0693465-.0693504 0-.0382323-.0311102-.0693465-.0693465-.0693465-.0382362 0-.0693465.0311142-.0693465.0693465 0 .00942126.00188976.0184094.00530709.0266063l.00014961.00036221.00008661.00019685.00001968.00004724.00054331.00124016.00006693.00014567.00064173.0013622.00003543.00007874.00005906.00012205.00065748.0013189.0000315.00006299.00029921.0005748.00048425.00090945.0000315.00005118.00054724.00098425c.0100591.0177126.0277598.0304961.0479173.0341535l.00042913.00008268c.00391339.00068898.00793307.00105118.0120394.00105118z" fill="#00c479"/><path d="m.857165.612417c-.126193 0-.228874.102681-.228874.228874 0 .110417.0786142.202835.182807.224217l.00008268.00001968c.00351969.00072047.00706299.00134646.0106378.00190551l.00109843.00016929.00441732.00061811.00163386.00020472.00386614.00044488.0022126.00022047.00340945.00030315.00245669.00018504.00326378.00020866.00047638.00002756.00058661.00003937.00016535.00001181c.0038937.00020472.00781496.00029921.0117598.00029921.126205 0 .22887-.102665.22887-.228874s-.102665-.228874-.22887-.228874z" fill="#6b7ed9"/><path d="m1.10136.560079-.0780551.069815c.0120827.0095.0233346.0200157.0336378.0314567l.0749843-.0670945c-.0116929-.00997244-.0219724-.0214606-.0305669-.0341772z" fill="#dbedff" stroke="#dbedff" stroke-width=".003"/><path d="m1.11216.464724c0 .0718071.0584134.13022.13022.13022.0718031 0 .130217-.0584134.130217-.13022 0-.0718031-.0584134-.130217-.130217-.130217-.0718071 0-.13022.0584134-.13022.130217z" fill="#1ca8ff"/><path d="m1.1504503.32142556c.0130709-.00840551.0272244-.0149724.0420709-.0195l-.037252-.100406c-.00743307.00475984-.0154173.00859449-.0237992.0114291l-.00238583.00077559-.00006299.00001968-.00009449.0000315-.00018504.00005512-.00190157.00056693-.00102756.00029528-.00175591.00047244-.0006378.00016535-.00070866.00017717-.00070866.00017323-.00070866.00016929-.00054724.00012598-.00159055.00035039-.0007126.00014961-.00018504.00003937-.0019685.00037795-.00051181.00009449-.00382283.00061811.0384961.103819z" fill="#dbedff"/><path d="m1.09063.178461c.0132717.00109055.0263346-.0016378.0377835-.0075748l.00016535-.00008268.00089764-.00047638.00005512-.0000315.00009055-.00005118c.0215354-.0117795.0361654-.0346614.0361654-.0608858 0-.0382323-.0310984-.0693465-.0693465-.0693465-.0382362 0-.0693307.0311142-.0693307.0693465 0 .0346339.0255118.0634291.0587362.0685472l.00004724.00000394.00028347.00004331.00111417.00015354.00033071.00004331.00029134.00003543.00094488.0001063.00065748.00007087.00111417.00009843z" fill="#fbc700"/><path d="m1.50121.569583-.0962087-.0544449c-.00455906.0147402-.0111142.0287835-.0195039.0417795l.0930276.0526654c.00462598-.0147913.0123465-.0284134.022685-.04z" fill="#dbedff"/><path d="m1.58292.572961c-.038252 0-.0693504.0311102-.0693504.0693465 0 .0382362.0310984.0693504.0693504.0693504.0382323 0 .0693307-.0311142.0693307-.0693504s-.0310984-.0693465-.0693307-.0693465z" fill="#94d428"/><path d="m.823272 1.40977c-.00912598-.070815-.0698031-.125693-.143051-.125693-.0795394 0-.144232.064689-.144232.144232 0 .0795433.0647087.144236.144232.144236.0707953 0 .129846-.0512638.141961-.11863l.00001968-.00010236.00001575-.00008661.00055512-.00335433.00002362-.00015354.00046457-.00329921.00001181-.0001063.00002362-.00015748.00001575-.00015354c.00028347-.00226378.00051969-.00454331.00070079-.00683465l.00002362-.00027559.00002362-.0003189c.00026378-.00355118.00039764-.0071378.00039764-.0107638 0-.0062126-.0003937-.0123386-.00116142-.0183465l-.00002362-.00019291z" fill="#fbc700"/><path d="m.762043 1.26322.0543583-.156122c-.0152638-.00232283-.0302598-.00596063-.044874-.0108622l-.052878.151858c.009.00192126.0177598.00449606.0262283.0076811l.00067323.00025197.00067323.00025984.00066929.00025591.00202756.00080315.00131496.00053543.00066535.00027165.00027559.00011417.00105118.00044488.00066142.00028347c.00308661.00132283.00614961.00272835.00915354.00422441z" fill="#dbedff"/><path d="m1.04642 1.4052h-.183394c.00047638.00380709.00082284.00764961.00106693.0115236l.00002362.00036221.00019685.00397638.00001575.00036221.00001181.00036221.00008661.00325984.00000394.00036221.00000787.00036221.00000394.00036221.00000394.00036614.00000394.00036221.00001968.00143307-.00001968.0014685-.00000394.00036221-.00000394.00036221-.00000394.00036221-.00000787.00036221-.00000394.00036221-.00008661.00325984-.00001181.00035827-.00001575.00036221-.00001575.00036221-.0001811.00361417-.00002362.00036221-.00002362.00035827-.00002362.00036221-.00002362.00036221-.00031496.00396457-.0000315.00035827-.00065354.00611024h.186055c-.00229528-.0101535-.00346063-.0205827-.00346063-.0312244 0-.00501181.00027953-.0100236.00080315-.0149843z" fill="#dbedff"/><path d="m1.085827 1.4141233c-.00011811.00200394-.00017717.00401181-.00017717.0060315 0 .00210236.00006299.00419291.00018898.00627165l.00004331.00069291.00036221.00413386.00007874.00068504.00007874.00068504.00008661.00068504.00009055.0006811.00009449.00068504.00009843.0006811.00003937.00027559.00006693.00040158.00011024.0006811.00022835.00135433.00001181.00007087.00001575.00008661.00035433.00186614.0001063.00053543.0000315.0001378.00014173.00066929.00029528.00134252.00007087.0003189.00008268.00034646.00016142.00066929.00016142.00066535.00016929.00066535.0001378.00053543.00003543.00012992.00017717.00066142.00018504.00066142.00018504.00066142.00019291.00065748.00019291.00065748.00020079.00065748.00020472.00065354.0002126.00065354.0002126.00065354.00044095.00130315.00022835.00064961c.0010748.00302362.00230709.00600394.00366535.00895276l.00020079.00044882c.0162559.0344606.0513425.0583622.0918976.0583622.0463425 0 .0855433-.0312087.0976693-.0737283l.00001575-.00005118.00003937-.0001378.00059843-.00221654.00001575-.00006693.00060236-.00246063.00049606-.00227559.00003937-.00017323.00012598-.0006378.00033465-.00176378.00002756-.00016142c.00103543-.00580315.00157874-.0117835.00157874-.0178819-.00001575-.056-.0455591-.101539-.101543-.101539-.047122 0-.0868504.032252-.0982598.0758425l-.00009055.00034646-.00002756.00010236-.00054724.00224803-.00001968.00009449-.00037795.0017126-.00009449.00045276-.00009449.00045669-.00009055.00045276-.00026378.0013937-.00015748.00088189-.00007874.00045669-.00007874.00045276-.0000748.00046063-.00001575.00009843-.00019291.00127165-.00006693.00045669-.00006299.00046063-.00006299.00045669-.00017323.00138189-.00005118.00045669-.00042126.00461417-.0000315.00046457-.00002756.00046063z" fill="#00c479"/><path d="m1.29667 1.33049c.00977953.0119016.0175276.025315.0229449.0396929l.0929843-.0536772c-.0103701-.0114685-.0181772-.0250118-.0228858-.0397205l-.0930433.0537047z" fill="#dbedff"/><path d="m1.41277 1.52385-.093122-.0537638c-.00543701.0144449-.0132126.0279055-.0230157.0398465l.0931102.0537638c.00473228-.0147795.0125827-.0283465.0230276-.0398465z" fill="#dbedff"/><path d="m1.49385 1.52796c-.0382362 0-.0693307.0310945-.0693307.0693465 0 .0382362.0310945.0693346.0693307.0693346.038252 0 .0693465-.0310984.0693465-.0693346 0-.0382402-.0310945-.0693465-.0693465-.0693465z" fill="#6b7ed9"/><path d="m1.42452 1.24323c0 .0382362.0310945.0693346.0693307.0693346.038252 0 .0693465-.0310984.0693465-.0693346 0-.038252-.0310945-.0693465-.0693465-.0693465-.0382362 0-.0693307.0310945-.0693307.0693465z" fill="#1ca8ff"/></g></svg>