<svg id="Layer_1" viewBox="0 0 1000 1000" xmlns="http://www.w3.org/2000/svg" data-name="Layer 1"><rect fill="#fbc02d" height="32.12" rx="14.21" width="768" x="116" y="776.8"/><path d="m861 707.61a37.23 37.23 0 0 1 -37.19 37.19h-647.65a37.19 37.19 0 1 1 0-74.38h647.68a37.23 37.23 0 0 1 37.16 37.19z" fill="#fbc02d"/><path d="m325.21 638.42h-142.73c-37.9-26.41-63.1-90.09-63.1-160.56 0-47.49 11.13-91.92 31.33-125.08 18.7-30.69 42.71-47.59 67.62-47.59 23.58 0 46.27 15.08 64.47 42.62-10.8 32.57-16.47 69.19-16.47 106.35 0 52 10.65 100.9 30.81 141.41a204.89 204.89 0 0 0 28.07 42.85z" fill="#b71c1c"/><path d="m580.2 245.42a.06.06 0 0 0 0 0 .43.43 0 0 0 0-.11 2.66 2.66 0 0 0 -.07-.39s0 0 0-.06 0 0 0-.06a30.87 30.87 0 0 0 -8.44-15.49l-29.06-29.06a31 31 0 0 0 -22-9.13h-41.1a31 31 0 0 0 -22 9.13l-29.06 29.06a30.87 30.87 0 0 0 -8.46 15.61.5.5 0 0 0 0 .12c0 .14-.05.28-.08.42a0 0 0 0 0 0 .05 30.38 30.38 0 0 0 -.55 5.82v113.1a31 31 0 0 0 9.12 22l29.06 29.06a31 31 0 0 0 22 9.12h41.1a31 31 0 0 0 22-9.12l29.06-29.06a31 31 0 0 0 9.12-22v-113.14a30.9 30.9 0 0 0 -.64-5.87zm-39.44 117.73c-10 17.64-24.84 27.76-40.76 27.76s-30.78-10.12-40.76-27.76c-8.51-15-13.19-34.68-13.19-55.31s4.68-40.27 13.19-55.3c10-17.64 24.84-27.76 40.76-27.76s30.78 10.12 40.76 27.76c8.51 15 13.19 34.67 13.19 55.3s-4.68 40.28-13.19 55.31z" fill="#7e57c2"/><path d="m522 307.84c0 30.7-13.21 51.07-22 51.07s-21.95-20.37-21.95-51.07 13.21-51.06 21.95-51.06 22 20.36 22 51.06z" fill="#7e57c2"/><path d="m880.62 477.86c0 70.47-25.2 134.15-63.1 160.56h-142.73a204.92 204.92 0 0 0 28.08-42.85c20.15-40.51 30.8-89.4 30.8-141.41 0-37.19-5.68-73.78-16.46-106.35 18.19-27.54 40.88-42.62 64.46-42.62 24.91 0 48.92 16.9 67.62 47.59 20.2 33.16 31.33 77.59 31.33 125.08z" fill="#b71c1c"/><path d="m484 456.6v181.82h-111c-18.14-11.74-34.39-31.38-47.18-57.1-17.71-35.59-27.46-80.75-27.46-127.16 0-36.38 5.92-72 17.14-102.92 9.81-27.24 23.5-50.24 39.62-66.62 10-10.2 20.92-17.66 32.12-22.09v101.86a62.74 62.74 0 0 0 18.49 44.61l29.07 29.07a62.7 62.7 0 0 0 44.65 18.49z" fill="#b71c1c"/><path d="m701.67 454.16c0 46.41-9.75 91.57-27.45 127.15-12.8 25.69-29.05 45.37-47.22 57.11h-111v-181.82h4.55a62.7 62.7 0 0 0 44.65-18.49l29.07-29.11a62.74 62.74 0 0 0 18.49-44.65v-101.82c11.2 4.43 22.08 11.89 32.12 22.09 16.12 16.38 29.81 39.38 39.66 66.63l.18.5c11.09 30.82 16.95 66.25 16.95 102.41z" fill="#b71c1c"/><g fill="#fff" opacity=".5"><rect height="32.12" rx="14.21" width="768" x="106" y="786.8"/><path d="m851 717.61a37.23 37.23 0 0 1 -37.19 37.19h-647.65a37.19 37.19 0 1 1 0-74.38h647.68a37.23 37.23 0 0 1 37.16 37.19z"/><path d="m315.21 648.42h-142.73c-37.9-26.41-63.1-90.09-63.1-160.56 0-47.49 11.13-91.92 31.33-125.08 18.7-30.69 42.71-47.59 67.62-47.59 23.58 0 46.27 15.08 64.47 42.62-10.8 32.57-16.47 69.19-16.47 106.35 0 52 10.65 100.9 30.81 141.41a204.89 204.89 0 0 0 28.07 42.85z"/><path d="m570.2 255.42a.06.06 0 0 0 0 0 .43.43 0 0 0 0-.11 2.66 2.66 0 0 0 -.07-.39s0 0 0-.06 0 0 0-.06a30.87 30.87 0 0 0 -8.44-15.49l-29.06-29.06a31 31 0 0 0 -22-9.13h-41.1a31 31 0 0 0 -22 9.13l-29.06 29.06a30.87 30.87 0 0 0 -8.46 15.61.5.5 0 0 0 0 .12c0 .14-.05.28-.08.42a0 0 0 0 0 0 .05 30.38 30.38 0 0 0 -.55 5.82v113.1a31 31 0 0 0 9.12 22l29.06 29.06a31 31 0 0 0 22 9.12h41.1a31 31 0 0 0 22-9.12l29.06-29.06a31 31 0 0 0 9.12-22v-113.14a30.9 30.9 0 0 0 -.64-5.87zm-39.44 117.73c-10 17.64-24.84 27.76-40.76 27.76s-30.78-10.12-40.76-27.76c-8.51-15-13.19-34.68-13.19-55.31s4.68-40.27 13.19-55.3c10-17.64 24.84-27.76 40.76-27.76s30.78 10.12 40.76 27.76c8.51 15 13.19 34.67 13.19 55.3s-4.68 40.28-13.19 55.31z"/><path d="m512 317.84c0 30.7-13.21 51.07-21.95 51.07s-21.95-20.37-21.95-51.07 13.21-51.06 21.95-51.06 21.95 20.36 21.95 51.06z"/><path d="m870.62 487.86c0 70.47-25.2 134.15-63.1 160.56h-142.73a204.92 204.92 0 0 0 28.08-42.85c20.15-40.51 30.8-89.4 30.8-141.41 0-37.19-5.68-73.78-16.46-106.35 18.19-27.54 40.88-42.62 64.46-42.62 24.91 0 48.92 16.9 67.62 47.59 20.2 33.16 31.33 77.59 31.33 125.08z"/><path d="m474 466.6v181.82h-111c-18.14-11.74-34.39-31.38-47.18-57.1-17.71-35.59-27.46-80.75-27.46-127.16 0-36.38 5.92-72 17.14-102.92 9.81-27.24 23.5-50.24 39.62-66.62 10-10.2 20.92-17.66 32.12-22.09v101.86a62.74 62.74 0 0 0 18.49 44.61l29.07 29.07a62.7 62.7 0 0 0 44.65 18.49z"/><path d="m691.67 464.16c0 46.41-9.75 91.57-27.45 127.15-12.8 25.69-29.05 45.37-47.22 57.11h-111v-181.82h4.55a62.7 62.7 0 0 0 44.65-18.49l29.07-29.11a62.74 62.74 0 0 0 18.49-44.65v-101.82c11.2 4.43 22.08 11.89 32.12 22.09 16.12 16.38 29.81 39.38 39.66 66.63l.18.5c11.09 30.82 16.95 66.25 16.95 102.41z"/></g><g fill="#413b32"><path d="m881.22 746.23a46.24 46.24 0 0 0 -11.43-1.43h-739.58a46.18 46.18 0 0 0 -46.21 46.2v3.7a46.26 46.26 0 0 0 46.21 46.21h739.58a46.26 46.26 0 0 0 46.21-46.2v-3.71a46.3 46.3 0 0 0 -34.78-44.77zm2.78 48.48a14.23 14.23 0 0 1 -14.21 14.21h-739.58a14.23 14.23 0 0 1 -14.21-14.21v-3.71a14.23 14.23 0 0 1 14.21-14.21h739.58a14.23 14.23 0 0 1 14.21 14.21z"/><path d="m820.46 670.32-.44-.06-.79-.13c-.26 0-.52-.1-.78-.17l-.35-.09c-.27-.07-.53-.15-.79-.24a15.55 15.55 0 0 1 -2-.79l-.57-.3-.4-.22c-.24-.14-.48-.28-.71-.43a9.12 9.12 0 0 1 -.82-.56c-.27-.2-.54-.4-.8-.62s-.46-.39-.68-.61a10.05 10.05 0 0 1 -.73-.73 7.88 7.88 0 0 1 -.55-.62l-.21-.25c-.17-.2-.32-.4-.48-.61s-.13-.18-.19-.28-.34-.49-.5-.75a16 16 0 0 1 5.17-22c1.23-.77 2.46-1.57 3.67-2.41h-444.51c1.17.76 2.35 1.49 3.54 2.18a16 16 0 0 1 -8.07 29.82h453.53a12.59 12.59 0 0 1 -1.54-.13zm-642.43.1h190.41a16 16 0 0 1 -8.05-2.17 140.38 140.38 0 0 1 -35.18-29.83h-142.73c1.21.84 2.44 1.64 3.67 2.41a16 16 0 0 1 -8.15 29.59zm642.43-.1-.44-.06-.79-.13c-.26 0-.52-.1-.78-.17l-.35-.09c-.27-.07-.53-.15-.79-.24a15.55 15.55 0 0 1 -2-.79l-.57-.3-.4-.22c-.15-.08-.3-.16-.44-.25l-.27-.18a9.12 9.12 0 0 1 -.82-.56c-.27-.2-.54-.4-.8-.62s-.46-.39-.68-.61a10.05 10.05 0 0 1 -.73-.73 7.88 7.88 0 0 1 -.55-.62l-.21-.25c-.17-.2-.32-.4-.48-.61s-.13-.18-.19-.28-.34-.49-.5-.75a16 16 0 0 1 5.17-22c1.23-.77 2.46-1.57 3.67-2.41h-444.51c1.17.76 2.35 1.49 3.54 2.18a16 16 0 0 1 -8.07 29.82h453.53a12.59 12.59 0 0 1 -1.54-.13zm-642.43.1h190.41a16 16 0 0 1 -8.05-2.17 140.38 140.38 0 0 1 -35.18-29.83h-142.73c1.21.84 2.44 1.64 3.67 2.41a16 16 0 0 1 -8.15 29.59zm642.43-.1-.44-.06a7.22 7.22 0 0 1 -.79-.13c-.26 0-.52-.1-.78-.17l-.35-.09c-.27-.07-.53-.15-.79-.24a15.55 15.55 0 0 1 -2-.79l-.57-.3-.4-.22c-.15-.08-.3-.16-.44-.25l-.27-.18a9.12 9.12 0 0 1 -.82-.56c-.27-.2-.54-.4-.8-.62s-.46-.39-.68-.61a10.05 10.05 0 0 1 -.73-.73 7.88 7.88 0 0 1 -.55-.62l-.21-.25c-.17-.2-.32-.4-.48-.61s-.13-.18-.19-.28-.34-.49-.5-.75a16 16 0 0 1 5.17-22c1.23-.77 2.46-1.57 3.67-2.41h-444.51c1.17.76 2.35 1.49 3.54 2.18a16 16 0 0 1 -8.07 29.82h453.53a12.59 12.59 0 0 1 -1.54-.13zm-642.43.1h190.41a16 16 0 0 1 -8.05-2.17 140.38 140.38 0 0 1 -35.18-29.83h-142.73c1.21.84 2.44 1.64 3.67 2.41a16 16 0 0 1 -8.15 29.59zm439.7-7.94a16 16 0 0 1 5.76-21.88c1.19-.69 2.37-1.42 3.54-2.18h-111.03v16a16 16 0 0 1 -16 16h131.56a16 16 0 0 1 -13.83-7.94zm238.72-15.88a68.71 68.71 0 0 0 -32.61-8.18h-647.68a69.19 69.19 0 0 0 0 138.38h647.68a69.18 69.18 0 0 0 32.61-130.2zm-680.29 98.2a37.19 37.19 0 1 1 0-74.38h647.68a37.19 37.19 0 0 1 0 74.38zm441.57-82.32a16 16 0 0 1 5.76-21.88c1.19-.69 2.37-1.42 3.54-2.18h-111.03v16a16 16 0 0 1 -16 16h131.56a16 16 0 0 1 -13.83-7.94zm-439.73 7.94h190.44a16 16 0 0 1 -8.05-2.17 140.38 140.38 0 0 1 -35.18-29.83h-142.73c1.21.84 2.44 1.64 3.67 2.41a16 16 0 0 1 -8.15 29.59zm642.43-.1-.44-.06a7.22 7.22 0 0 1 -.79-.13c-.26 0-.52-.1-.78-.17l-.35-.09c-.27-.07-.53-.15-.79-.24a15.55 15.55 0 0 1 -2-.79l-.57-.3-.4-.22c-.15-.08-.3-.16-.44-.25l-.27-.18a9.12 9.12 0 0 1 -.82-.56c-.27-.2-.54-.4-.8-.62s-.46-.39-.68-.61a10.05 10.05 0 0 1 -.73-.73 7.88 7.88 0 0 1 -.55-.62l-.21-.25c-.17-.2-.32-.4-.48-.61s-.13-.18-.19-.28-.34-.49-.5-.75a16 16 0 0 1 5.17-22c1.23-.77 2.46-1.57 3.67-2.41h-444.48c1.17.76 2.35 1.49 3.54 2.18a16 16 0 0 1 -8.07 29.82h453.53a12.59 12.59 0 0 1 -1.54-.13zm-642.43.1h190.44a16 16 0 0 1 -8.05-2.17 140.38 140.38 0 0 1 -35.18-29.83h-142.73c1.21.84 2.44 1.64 3.67 2.41a16 16 0 0 1 -8.15 29.59zm642.43-.1-.44-.06-.79-.13c-.26 0-.52-.1-.78-.17l-.35-.09c-.27-.07-.53-.15-.79-.24a15.55 15.55 0 0 1 -2-.79l-.57-.3-.4-.22c-.24-.14-.48-.28-.71-.43a9.12 9.12 0 0 1 -.82-.56c-.27-.2-.54-.4-.8-.62s-.46-.39-.68-.61a10.05 10.05 0 0 1 -.73-.73 7.88 7.88 0 0 1 -.55-.62l-.21-.25c-.17-.2-.32-.4-.48-.61s-.13-.18-.19-.28-.34-.49-.5-.75a16 16 0 0 1 5.17-22c1.23-.77 2.46-1.57 3.67-2.41h-444.48c1.17.76 2.35 1.49 3.54 2.18a16 16 0 0 1 -8.07 29.82h453.53a12.59 12.59 0 0 1 -1.54-.13z"/><path d="m308.62 359.54a16 16 0 0 1 -21.94-5.54c-1.27-2.13-2.57-4.19-3.88-6.19-18.2-27.54-40.89-42.62-64.47-42.62-24.91 0-48.92 16.9-67.62 47.59-20.2 33.16-31.33 77.59-31.33 125.08 0 70.47 25.2 134.15 63.1 160.56 1.21.84 2.44 1.64 3.67 2.41a16 16 0 0 1 -8.15 29.59h-.6a15.91 15.91 0 0 1 -8.14-2.39 126.44 126.44 0 0 1 -25.74-21.43c-34.82-37.41-56.17-99.75-56.17-168.74 0-53.29 12.79-103.62 36-141.73 24.72-40.59 58.44-62.94 94.94-62.94 29 0 56.19 14.06 78.52 40.15a175 175 0 0 1 17.3 24.26 16 16 0 0 1 -5.49 21.94z"/><path d="m419.9 244.88a.5.5 0 0 0 0 .12c0 .14-.05.28-.08.42a0 0 0 0 0 0 .05 16 16 0 0 1 -14.15 12.53 67 67 0 0 0 -18.43 4.53c-11.2 4.43-22.08 11.89-32.12 22.09-16.12 16.38-29.81 39.38-39.65 66.62-11.22 30.95-17.14 66.54-17.14 102.92 0 46.41 9.75 91.57 27.46 127.16 12.79 25.72 29 45.36 47.18 57.1 1.17.76 2.35 1.49 3.54 2.18a16 16 0 0 1 -16.12 27.65 140.38 140.38 0 0 1 -35.18-29.83 204.89 204.89 0 0 1 -28.07-42.85c-20.16-40.51-30.81-89.4-30.81-141.41 0-37.19 5.68-73.78 16.47-106.35q1.24-3.76 2.58-7.46a261.5 261.5 0 0 1 11.47-27c23.08-46.75 57-77.48 94.89-85.52a95.31 95.31 0 0 1 10.9-1.68 16 16 0 0 1 17.44 14.42 15.52 15.52 0 0 1 -.18 4.31z"/><path d="m733.67 454.16c0 52-10.65 100.9-30.8 141.41a204.92 204.92 0 0 1 -28.08 42.85 140.38 140.38 0 0 1 -35.18 29.83 16 16 0 0 1 -16.12-27.65c1.19-.69 2.37-1.42 3.54-2.18 18.14-11.74 34.39-31.38 47.19-57.11 17.7-35.58 27.45-80.74 27.45-127.15 0-36.18-5.86-71.59-16.95-102.41l-.18-.5c-9.85-27.25-23.54-50.25-39.66-66.63-10-10.2-20.92-17.66-32.12-22.09a67 67 0 0 0 -18.43-4.53 16 16 0 0 1 -14.13-12.58.06.06 0 0 0 0 0 .43.43 0 0 0 0-.11 2.66 2.66 0 0 0 -.07-.39s0 0 0-.06 0 0 0-.06a15.47 15.47 0 0 1 -.16-4.2 16 16 0 0 1 17.44-14.42 95.31 95.31 0 0 1 10.9 1.68c37.9 8 71.81 38.77 94.89 85.52a261.7 261.7 0 0 1 11.48 27q1.33 3.69 2.58 7.45c10.74 32.55 16.41 69.17 16.41 106.33z"/><path d="m479.45 424.6a31 31 0 0 1 -22-9.12l-29.06-29.06a31 31 0 0 1 -9.12-22v-113.13a30.38 30.38 0 0 1 .55-5.82 16 16 0 0 1 -14.15 12.53 67 67 0 0 0 -18.43 4.53v101.86a62.74 62.74 0 0 0 18.49 44.61l29.07 29.07a62.7 62.7 0 0 0 44.65 18.49h4.55v-16a16 16 0 0 1 16-16zm0 0a31 31 0 0 1 -22-9.12l-29.06-29.06a31 31 0 0 1 -9.12-22v-113.13a30.38 30.38 0 0 1 .55-5.82 16 16 0 0 1 -14.15 12.53 67 67 0 0 0 -18.43 4.53v101.86a62.74 62.74 0 0 0 18.49 44.61l29.07 29.07a62.7 62.7 0 0 0 44.65 18.49h4.55v-16a16 16 0 0 1 16-16zm128.81-196.78a62.87 62.87 0 0 0 -14-21.18l-29.06-29.06a62.7 62.7 0 0 0 -44.65-18.5h-41.1a62.7 62.7 0 0 0 -44.65 18.5l-29.07 29.06a62.9 62.9 0 0 0 -18.49 44.65v113.1a62.74 62.74 0 0 0 18.49 44.61l29.07 29.07a62.7 62.7 0 0 0 44.65 18.49h41.1a62.7 62.7 0 0 0 44.65-18.49l29.07-29.07a62.74 62.74 0 0 0 18.49-44.65v-113.06a62.79 62.79 0 0 0 -4.5-23.47zm-27.5 136.57a31 31 0 0 1 -9.12 22l-29.06 29.06a31 31 0 0 1 -22 9.12h-41.1a31 31 0 0 1 -22-9.12l-29.06-29.06a31 31 0 0 1 -9.12-22v-113.1a30.38 30.38 0 0 1 .55-5.82 0 0 0 0 1 0-.05 3.1 3.1 0 0 1 .08-.42.5.5 0 0 1 0-.12 30.87 30.87 0 0 1 8.46-15.61l29.06-29.06a31 31 0 0 1 22-9.13h41.1a31 31 0 0 1 22 9.13l29.06 29.06a30.87 30.87 0 0 1 8.44 15.49s0 0 0 .06 0 0 0 .06a2.66 2.66 0 0 1 .07.39.43.43 0 0 1 0 .11.06.06 0 0 1 0 0 30.9 30.9 0 0 1 .56 5.87zm-101.31 60.21a31 31 0 0 1 -22-9.12l-29.06-29.06a31 31 0 0 1 -9.12-22v-113.13a30.38 30.38 0 0 1 .55-5.82 16 16 0 0 1 -14.15 12.53 67 67 0 0 0 -18.43 4.53v101.86a62.74 62.74 0 0 0 18.49 44.61l29.07 29.07a62.7 62.7 0 0 0 44.65 18.49h4.55v-16a16 16 0 0 1 16-16zm0 0a31 31 0 0 1 -22-9.12l-29.06-29.06a31 31 0 0 1 -9.12-22v-113.13a30.38 30.38 0 0 1 .55-5.82 16 16 0 0 1 -14.15 12.53 67 67 0 0 0 -18.43 4.53v101.86a62.74 62.74 0 0 0 18.49 44.61l29.07 29.07a62.7 62.7 0 0 0 44.65 18.49h4.55v-16a16 16 0 0 1 16-16z"/><path d="m540.76 252.54c-10-17.64-24.84-27.76-40.76-27.76s-30.78 10.12-40.76 27.76c-8.51 15-13.19 34.67-13.19 55.3s4.68 40.28 13.19 55.31c10 17.64 24.84 27.76 40.76 27.76s30.78-10.12 40.76-27.76c8.51-15 13.19-34.68 13.19-55.31s-4.68-40.27-13.19-55.3zm-40.76 106.37c-8.74 0-21.95-20.37-21.95-51.07s13.21-51.06 21.95-51.06 22 20.36 22 51.06-13.26 51.07-22 51.07z"/><path d="m912.62 477.86c0 69-21.35 131.33-56.17 168.74a126.44 126.44 0 0 1 -25.74 21.4 15.91 15.91 0 0 1 -8.14 2.39h-.57a12.59 12.59 0 0 1 -1.5-.1l-.44-.06-.79-.13c-.26 0-.52-.1-.78-.17l-.35-.09c-.27-.07-.53-.15-.79-.24a15.55 15.55 0 0 1 -2-.79l-.57-.3-.4-.22c-.15-.08-.3-.16-.44-.25l-.27-.18a9.12 9.12 0 0 1 -.82-.56c-.27-.2-.54-.4-.8-.62s-.46-.4-.68-.61a10.05 10.05 0 0 1 -.73-.73 7.88 7.88 0 0 1 -.55-.62l-.21-.25c-.17-.2-.32-.4-.48-.61s-.13-.18-.19-.28-.34-.49-.5-.75a16 16 0 0 1 5.17-22c1.23-.77 2.46-1.57 3.67-2.41 37.9-26.41 63.1-90.09 63.1-160.56 0-47.49-11.13-91.92-31.33-125.08-18.7-30.69-42.71-47.59-67.62-47.59-23.58 0-46.27 15.08-64.46 42.62q-2 3-3.89 6.19a16 16 0 0 1 -28.6-2.25l-.18-.5a16 16 0 0 1 1.31-13.65 175 175 0 0 1 17.3-24.26c22.33-26.09 49.51-40.15 78.52-40.15 36.5 0 70.22 22.35 94.94 62.94 23.19 38.11 35.98 88.44 35.98 141.73z"/><path d="m484 456.6h32v181.82h-32z"/><path d="m516 440.6v16h-32v-16a16 16 0 0 1 32 0z"/><path d="m484 638.42h32v16a16 16 0 1 1 -32 0z"/></g></svg>