<svg id="Layer_1" viewBox="0 0 1000 1000" xmlns="http://www.w3.org/2000/svg" data-name="Layer 1"><path d="m867.24 268.26h-734.48a16.78 16.78 0 0 0 -16.76 16.74v430a16.78 16.78 0 0 0 16.76 16.76h734.48a16.78 16.78 0 0 0 16.76-16.76v-430a16.78 16.78 0 0 0 -16.76-16.74zm-669 16.05a54.45 54.45 0 1 1 -54.44 54.44 54.51 54.51 0 0 1 54.48-54.44zm0 431.38a54.45 54.45 0 1 1 54.45-54.44 54.51 54.51 0 0 1 -54.41 54.44zm491.06-62.78a16 16 0 0 1 -16 16h-346.64a16 16 0 0 1 -16-16 103.91 103.91 0 0 0 -103.78-103.79 16 16 0 0 1 -16-16v-66.24a16 16 0 0 1 16-16 103.91 103.91 0 0 0 103.78-103.79 16 16 0 0 1 16-16h346.68a16 16 0 0 1 16 16 103.91 103.91 0 0 0 103.78 103.79 16 16 0 0 1 16 16v66.24a16 16 0 0 1 -16 16 103.91 103.91 0 0 0 -103.78 103.79zm112.38 62.78a54.45 54.45 0 1 1 54.44-54.44 54.51 54.51 0 0 1 -54.4 54.44zm0-322.49a54.45 54.45 0 1 1 54.44-54.45 54.52 54.52 0 0 1 -54.4 54.45z" fill="#9ccc65"/><path d="m658.27 363.09h-316.54a136.06 136.06 0 0 1 -118.85 118.85v36.12a136.06 136.06 0 0 1 118.85 118.85h316.54a136.06 136.06 0 0 1 118.85-118.85v-36.12a136.06 136.06 0 0 1 -118.85-118.85zm-94.42 98a16 16 0 0 1 -20-10.56c-3.61-11.68-18.24-20.74-35.58-22-22.29-1.65-42.7 9.85-44.59 25.1-.81 6.56 2.24 11.86 4.94 15.15 6.39 7.8 17.66 13.08 30.28 14.26h.2c29.85 1.38 55.84 17.72 65 41a50 50 0 0 1 -2.44 42.12c-8.66 16.44-25.66 28.62-46.66 33.48l-.66.14v13a16 16 0 1 1 -32 0v-11.78c-25.68-3.7-47.8-18.58-56.31-40.24a16 16 0 1 1 29.78-11.69c6.13 15.59 29.94 24.46 52 19.37 11.77-2.72 21.32-9.14 25.55-17.16a17.93 17.93 0 0 0 1-15.52c-4.45-11.34-19-19.68-35.86-20.7-.28 0-.57 0-.85 0h-.18-.82a15.12 15.12 0 0 1 -2.62-.3c-20.46-2.34-38.56-11.55-50.08-25.6-9.43-11.49-13.67-25.48-12-39.38 2-16.39 11.82-30.92 27.58-40.91a78.85 78.85 0 0 1 22.82-9.73v-11.95a16 16 0 1 1 32 0v9.81c29 3.37 52.88 20.77 60.1 44.12a16 16 0 0 1 -10.6 20.01z" fill="#ffeb3b"/><path d="m220.73 338.75a22.45 22.45 0 1 1 -22.45-22.44 22.47 22.47 0 0 1 22.45 22.44z" fill="#558b2f"/><path d="m220.73 661.25a22.45 22.45 0 1 1 -22.45-22.45 22.47 22.47 0 0 1 22.45 22.45z" fill="#558b2f"/><path d="m824.16 338.75a22.45 22.45 0 1 1 -22.44-22.44 22.47 22.47 0 0 1 22.44 22.44z" fill="#558b2f"/><path d="m824.16 661.25a22.45 22.45 0 1 1 -22.44-22.45 22.47 22.47 0 0 1 22.44 22.45z" fill="#558b2f"/><g fill="#fff" opacity=".5"><path d="m857.24 278.26h-734.48a16.78 16.78 0 0 0 -16.76 16.74v430a16.78 16.78 0 0 0 16.76 16.76h734.48a16.78 16.78 0 0 0 16.76-16.76v-430a16.78 16.78 0 0 0 -16.76-16.74zm-669 16.05a54.45 54.45 0 1 1 -54.44 54.44 54.51 54.51 0 0 1 54.48-54.44zm0 431.38a54.45 54.45 0 1 1 54.45-54.44 54.51 54.51 0 0 1 -54.41 54.44zm491.06-62.78a16 16 0 0 1 -16 16h-346.64a16 16 0 0 1 -16-16 103.91 103.91 0 0 0 -103.78-103.79 16 16 0 0 1 -16-16v-66.24a16 16 0 0 1 16-16 103.91 103.91 0 0 0 103.78-103.79 16 16 0 0 1 16-16h346.68a16 16 0 0 1 16 16 103.91 103.91 0 0 0 103.78 103.79 16 16 0 0 1 16 16v66.24a16 16 0 0 1 -16 16 103.91 103.91 0 0 0 -103.78 103.79zm112.38 62.78a54.45 54.45 0 1 1 54.44-54.44 54.51 54.51 0 0 1 -54.4 54.44zm0-322.49a54.45 54.45 0 1 1 54.44-54.45 54.52 54.52 0 0 1 -54.4 54.45z"/><path d="m648.27 373.09h-316.54a136.06 136.06 0 0 1 -118.85 118.85v36.12a136.06 136.06 0 0 1 118.85 118.85h316.54a136.06 136.06 0 0 1 118.85-118.85v-36.12a136.06 136.06 0 0 1 -118.85-118.85zm-94.42 98a16 16 0 0 1 -20-10.56c-3.61-11.68-18.24-20.74-35.58-22-22.29-1.65-42.7 9.85-44.59 25.1-.81 6.56 2.24 11.86 4.94 15.15 6.39 7.8 17.66 13.08 30.28 14.26h.2c29.85 1.38 55.84 17.72 65 41a50 50 0 0 1 -2.44 42.12c-8.66 16.44-25.66 28.62-46.66 33.48l-.66.14v13a16 16 0 0 1 -32 0v-11.78c-25.68-3.7-47.8-18.58-56.31-40.24a16 16 0 1 1 29.78-11.69c6.13 15.59 29.94 24.46 52 19.37 11.77-2.72 21.32-9.14 25.55-17.16a17.93 17.93 0 0 0 1-15.52c-4.45-11.34-19-19.68-35.86-20.7-.28 0-.57 0-.85 0h-.18-.82a15.12 15.12 0 0 1 -2.62-.3c-20.46-2.34-38.56-11.55-50.08-25.6-9.43-11.49-13.67-25.48-12-39.38 2-16.39 11.82-30.92 27.58-40.91a78.85 78.85 0 0 1 22.82-9.73v-11.95a16 16 0 0 1 32 0v9.81c29 3.37 52.88 20.77 60.1 44.12a16 16 0 0 1 -10.6 20.01z"/><path d="m210.73 348.75a22.45 22.45 0 1 1 -22.45-22.44 22.47 22.47 0 0 1 22.45 22.44z"/><path d="m210.73 671.25a22.45 22.45 0 1 1 -22.45-22.45 22.47 22.47 0 0 1 22.45 22.45z"/><path d="m814.16 348.75a22.45 22.45 0 1 1 -22.44-22.44 22.47 22.47 0 0 1 22.44 22.44z"/><path d="m814.16 671.25a22.45 22.45 0 1 1 -22.44-22.45 22.47 22.47 0 0 1 22.44 22.45z"/></g><g fill="#413b32"><path d="m867.24 236.26h-734.48a48.81 48.81 0 0 0 -48.76 48.74v430a48.81 48.81 0 0 0 48.76 48.76h734.48a48.81 48.81 0 0 0 48.76-48.76v-430a48.81 48.81 0 0 0 -48.76-48.74zm16.76 478.74a16.78 16.78 0 0 1 -16.76 16.76h-734.48a16.78 16.78 0 0 1 -16.76-16.76v-430a16.78 16.78 0 0 1 16.76-16.76h734.48a16.78 16.78 0 0 1 16.76 16.76z"/><path d="m793.12 450.88a103.91 103.91 0 0 1 -103.78-103.79 16 16 0 0 0 -16-16h-346.68a16 16 0 0 0 -16 16 103.91 103.91 0 0 1 -103.78 103.79 16 16 0 0 0 -16 16v66.24a16 16 0 0 0 16 16 103.91 103.91 0 0 1 103.78 103.79 16 16 0 0 0 16 16h346.68a16 16 0 0 0 16-16 103.91 103.91 0 0 1 103.78-103.79 16 16 0 0 0 16-16v-66.24a16 16 0 0 0 -16-16zm-16 67.18a136.06 136.06 0 0 0 -118.85 118.85h-316.54a136.06 136.06 0 0 0 -118.85-118.85v-36.12a136.06 136.06 0 0 0 118.85-118.85h316.54a136.06 136.06 0 0 0 118.85 118.85z"/><path d="m563.85 461.13a16 16 0 0 1 -20-10.56c-3.61-11.68-18.24-20.74-35.58-22-22.29-1.65-42.7 9.85-44.59 25.1-.81 6.56 2.24 11.86 4.94 15.15 6.39 7.8 17.66 13.08 30.28 14.26h.2l.84.07a16 16 0 0 1 -1.16 32h-.35c-.28 0-.57 0-.85 0h-.18c-1.15-.08-2.3-.19-3.44-.33-20.46-2.34-38.56-11.55-50.08-25.6-9.43-11.49-13.67-25.48-12-39.38 2-16.39 11.82-30.92 27.58-40.91a78.85 78.85 0 0 1 22.82-9.73 88.1 88.1 0 0 1 28.31-2.44c1.24.09 2.47.21 3.69.35 29 3.37 52.88 20.77 60.1 44.12a16 16 0 0 1 -10.53 19.9z"/><path d="m561.62 566.21c-8.62 16.39-25.62 28.57-46.62 33.43l-.66.14a88.87 88.87 0 0 1 -32 1.24c-25.68-3.7-47.8-18.58-56.31-40.24a16 16 0 1 1 29.78-11.69c6.13 15.59 29.94 24.46 52 19.37 11.77-2.72 21.32-9.14 25.55-17.16a17.93 17.93 0 0 0 1-15.52c-4.45-11.34-19-19.68-35.86-20.7l-1-.05h-.82a15.12 15.12 0 0 1 -2.62-.3 16 16 0 0 1 3.39-31.73l1.43.05h.2c29.85 1.38 55.84 17.72 65 41a50 50 0 0 1 -2.46 42.16z"/><path d="m514.3 585.89v26.92a16 16 0 1 1 -32 0v-26.92a16 16 0 1 1 32 0z"/><path d="m514.3 387.19v25.2a16 16 0 1 1 -32 0v-25.2a16 16 0 1 1 32 0z"/><path d="m198.28 284.31a54.45 54.45 0 1 0 54.45 54.44 54.51 54.51 0 0 0 -54.45-54.44zm0 76.89a22.45 22.45 0 1 1 22.45-22.45 22.47 22.47 0 0 1 -22.45 22.45z"/><path d="m198.28 606.8a54.45 54.45 0 1 0 54.45 54.45 54.51 54.51 0 0 0 -54.45-54.45zm0 76.89a22.45 22.45 0 1 1 22.45-22.44 22.47 22.47 0 0 1 -22.45 22.44z"/><path d="m801.72 284.31a54.45 54.45 0 1 0 54.44 54.44 54.51 54.51 0 0 0 -54.44-54.44zm0 76.89a22.45 22.45 0 1 1 22.44-22.45 22.47 22.47 0 0 1 -22.44 22.45z"/><path d="m801.72 606.8a54.45 54.45 0 1 0 54.44 54.45 54.52 54.52 0 0 0 -54.44-54.45zm0 76.89a22.45 22.45 0 1 1 22.44-22.44 22.47 22.47 0 0 1 -22.44 22.44z"/></g></svg>