<svg id="Layer_1" viewBox="0 0 512 512" xmlns="http://www.w3.org/2000/svg" data-name="Layer 1"><rect fill="#343b41" height="299.74" rx="25.94" width="418.62" x="46.69" y="93.9"/><path d="m76.32 119.08h359.36v222.02h-359.36z" fill="#cee1fb"/><path d="m179.38 458.38h153.24a18.06 18.06 0 0 1 18 18v18h-189.25v-18a18.06 18.06 0 0 1 18.01-18z" fill="#343b41" fill-rule="evenodd"/><path d="m292.3 393.64h-72.6c-2.78 24.77-10.78 47.11-22.36 64.74h117.32c-11.58-17.63-19.58-39.97-22.36-64.74z" fill="#737373" fill-rule="evenodd"/><rect fill="#484e53" height="195.97" rx="5" width="305.29" x="103.35" y="39.85"/><g fill-rule="evenodd"><path d="m136.42 18c42.78 19 112.24-1 119.34 21a4.72 4.72 0 0 1 .24 1.54v183.52a5 5 0 0 1 -7.81 4.14c-21.49-14.61-68.07-12.78-113.66-11.59a5 5 0 0 1 -5.13-5v-189a5 5 0 0 1 7-4.57z" fill="#f4f4f4"/><path d="m375.58 18c-42.78 19-112.24-1-119.34 21a4.72 4.72 0 0 0 -.24 1.54v183.52a5 5 0 0 0 7.81 4.14c21.49-14.61 68.07-12.78 113.66-11.59a5 5 0 0 0 5.13-5v-189a5 5 0 0 0 -7-4.57z" fill="#f4f4f4"/><path d="m271.31 142.26c9.48-10.64 25.5-10.46 42.45-10.26 15.3.17 31.13.36 43.65-6.66a8 8 0 1 1 7.83 13.95c-16.25 9.12-35.06 8.9-51.66 8.71-13.21-.16-25.69-.3-30.33 4.9a8 8 0 1 1 -11.94-10.64zm0 26.49a8 8 0 1 0 11.94 10.64c4.64-5.2 17.11-5.06 30.33-4.91 16.59.19 35.41.41 51.66-8.7a8 8 0 0 0 -7.83-14c-12.52 7-28.35 6.84-43.65 6.66-17-.19-33-.38-42.45 10.27zm0-53a8 8 0 1 0 11.94 10.64c4.64-5.2 17.12-5.06 30.33-4.91 16.59.19 35.41.41 51.66-8.7a8 8 0 0 0 -7.83-14c-12.52 7-28.35 6.84-43.65 6.66-17-.19-33-.38-42.45 10.27zm93.93 76.48c-16.25 9.11-35.06 8.9-51.66 8.71-13.21-.16-25.69-.3-30.33 4.91a8 8 0 1 1 -11.94-10.65c9.48-10.64 25.5-10.46 42.45-10.26 15.31.18 31.13.36 43.65-6.67a8 8 0 0 1 7.83 14zm-93.93-129.42c9.48-10.65 25.49-10.46 42.45-10.27 15.3.18 31.13.36 43.65-6.66a8 8 0 0 1 7.83 14c-16.24 9.12-35.07 8.85-51.66 8.66-13.22-.15-25.69-.29-30.33 4.91a8 8 0 0 1 -11.94-10.64zm0 26.48c9.48-10.64 25.5-10.46 42.45-10.26 15.31.17 31.13.35 43.65-6.66a8 8 0 1 1 7.83 13.95c-16.25 9.11-35.06 8.9-51.66 8.7-13.21-.14-25.69-.29-30.33 4.92a8 8 0 1 1 -11.94-10.65zm-127.61 39.11a8 8 0 0 1 10.89-3.06c12.52 7 28.34 6.83 43.65 6.66 16.95-.2 33-.38 42.45 10.26a8 8 0 1 1 -11.94 10.64c-4.64-5.2-17.12-5.06-30.33-4.9-16.6.19-35.41.41-51.66-8.71a8 8 0 0 1 -3.06-10.89zm0-26.48a8 8 0 0 0 3.06 10.89c16.25 9.11 35.07 8.89 51.66 8.7 13.21-.15 25.69-.3 30.33 4.91a8 8 0 1 0 11.94-10.64c-9.48-10.65-25.49-10.46-42.45-10.27-15.3.18-31.13.36-43.65-6.66a8 8 0 0 0 -10.89 3.07zm0 79.45a8 8 0 0 1 10.89-3.07c12.52 7 28.34 6.85 43.65 6.67 17-.2 33-.38 42.45 10.26a8 8 0 0 1 -11.94 10.65c-4.64-5.21-17.12-5.07-30.33-4.91-16.6.19-35.41.4-51.66-8.71a8 8 0 0 1 -3.06-10.89zm0-26.48a8 8 0 0 0 3.06 10.89c16.25 9.11 35.06 8.89 51.66 8.7 13.21-.15 25.69-.3 30.33 4.91a8 8 0 0 0 11.94-10.64c-9.48-10.65-25.49-10.46-42.45-10.27-15.3.18-31.13.36-43.65-6.66a8 8 0 0 0 -10.89 3.07zm0-79.46a8 8 0 0 1 10.89-3.06c12.52 7 28.34 6.83 43.65 6.66 17-.2 33-.38 42.45 10.26a8 8 0 1 1 -11.94 10.65c-4.64-5.21-17.12-5.06-30.33-4.92-16.6.2-35.41.41-51.66-8.7a8 8 0 0 1 -3.06-10.89zm0-26.49a8 8 0 0 0 3.06 10.9c16.25 9.11 35.06 8.89 51.66 8.7 13.21-.15 25.69-.29 30.33 4.91a8 8 0 1 0 11.94-10.64c-9.48-10.65-25.49-10.46-42.45-10.27-15.3.18-31.13.36-43.65-6.66a8 8 0 0 0 -10.89 3.06zm313.61 320.35v-247.86a18 18 0 0 0 -17.94-17.93h-22.72v9.17h19a8 8 0 0 1 8 8v222a8 8 0 0 1 -8 8h-359.33a8 8 0 0 1 -8-8v-222a8 8 0 0 1 8-8h19v-9.17h-22.69a18 18 0 0 0 -17.94 17.93v247.86a18 18 0 0 0 17.94 17.94h366.74a18 18 0 0 0 17.94-17.94zm-156.53 82.71h-89.56a159.56 159.56 0 0 0 15.47-48.74h58.62a159.56 159.56 0 0 0 15.47 48.74zm41.85 26v10h-173.26v-10a10 10 0 0 1 10-10h153.25a10 10 0 0 1 10 10zm-86.63-232.59h-152.65a8 8 0 0 1 -8-8v-108.74h-11v206h343.33v-206h-11v108.74a8 8 0 0 1 -8 8zm-144.64-196v180h114.45c-22.34-5-55.48-4.15-85.91-3.35l-10.31.27a8 8 0 0 1 -8.19-8v-168.89zm26.04-20.74v181.45l2.08-.05c43.29-1.15 84.66-2.23 108.52 10.33v-177.69c-2.78-5.6-25-5.69-41.35-5.76-21.68-.08-47.79-.19-69.25-8.28zm126.6 14.03v177.68c23.86-12.56 65.24-11.46 108.52-10.31l2.08.05v-181.45c-21.46 8.09-47.6 8.2-69.25 8.33-16.35 0-38.56.11-41.35 5.7zm136.65 6.74h-10v168.89a8 8 0 0 1 -8.19 8l-10.32-.27c-30.42-.8-63.56-1.68-85.9 3.35h114.41v-180zm38.72 38.06h-22.72v-46.06a8 8 0 0 0 -8-8h-18v-17.44a8 8 0 0 0 -12.11-6.86c-19.32 11.6-47.94 11.71-73.2 11.81-20.53.08-39 .17-49.29 7.26-10.32-7.09-28.81-7.21-49.34-7.21-25.25-.1-53.88-.21-73.19-11.81a8 8 0 0 0 -12.12 6.81v17.44h-18.05a8 8 0 0 0 -8 8v46.06h-22.72a34 34 0 0 0 -33.94 33.93v247.86a34 34 0 0 0 33.94 33.94h137.87a139 139 0 0 1 -17.58 48.77h-13.54a26 26 0 0 0 -26 26v18a8 8 0 0 0 8 8h189.25a8 8 0 0 0 8-8v-18a26 26 0 0 0 -26-26h-13.55a138.8 138.8 0 0 1 -17.57-48.74h137.86a34 34 0 0 0 33.94-33.94v-247.89a34 34 0 0 0 -33.94-33.93z" fill="#242222"/></g></svg>