<svg id="Layer_1" enable-background="new 0 0 511.993 511.993" viewBox="0 0 511.993 511.993" xmlns="http://www.w3.org/2000/svg"><g><g><path d="m95.292 268.752v82.184l-16.554 29.54-26.528 14.49c-5.144 2.81-3.148 10.627 2.713 10.627h34.425c3.709 0 7.169-1.868 9.204-4.97l29.672-45.232 10.183-74.465z" fill="#c86d36"/><path d="m245.968 296.103-9.11 34.124c-3.254 12.189 2.154 25.036 13.147 31.227l36.696 20.668-15.274 15.416c-2.957 2.985-.843 8.055 3.358 8.055h25.636c5.599 0 10.306-4.203 10.937-9.766l5.892-51.893z" fill="#c86d36"/><g><path d="m425.116 273.979c14.856 0 26.866-3.311 36.084-7.462 21.792-9.812 37.427-28.799 41.826-50.789 4.836-24.182-2.393-51.883-18.416-70.572-14.314-16.696-34.602-25.337-57.082-24.353-28.875 1.274-44.024 13.278-55.085 22.042-9.149 7.25-12.675 9.687-19.866 8.319-7.14-1.36-11.828-4.632-12.539-8.754-.663-3.837 1.918-8.081 6.575-10.81 6.444-3.777 8.605-12.063 4.828-18.507s-12.063-8.605-18.507-4.828c-14.476 8.486-22.15 23.695-19.551 38.748 2.708 15.681 15.467 27.166 34.132 30.722 19.708 3.756 31.407-5.514 41.725-13.69 9.95-7.884 19.349-15.332 39.478-16.219 17.98-.812 29.139 7.684 35.356 14.936 10.649 12.421 15.643 31.575 12.426 47.662-2.076 10.381-10.103 24.089-26.407 31.43-22.083 9.943-52.401 4.847-85.373-14.349-40.736-23.715-94.456-11.944-96.723-11.434-7.286 1.647-11.855 8.889-10.209 16.174 1.646 7.278 8.877 11.848 16.153 10.213.564-.123 45.773-9.857 77.171 8.422 29.727 17.306 54.354 23.099 74.004 23.099z" fill="#e08d63"/></g><g><path d="m503.027 215.729c-4.4 21.99-20.04 40.98-41.83 50.79-9.21 4.15-21.23 7.46-36.08 7.46-4.35 0-8.94-.28-13.77-.91 8.93-1.27 16.54-3.71 22.84-6.55 21.79-9.81 37.43-28.8 41.83-50.79 4.83-24.18-2.39-51.88-18.42-70.57-10.75-12.55-24.87-20.54-40.76-23.33 3.34-.51 6.9-.86 10.69-1.03 22.48-.98 42.77 7.66 57.08 24.36 16.03 18.69 23.25 46.39 18.42 70.57z" fill="#d77f4a"/></g><path d="m398.433 361.575-70.125-36.845s-3.86-32.349-7.704-57.76-20.54-60.517-61.757-48.37c-35.275 10.4-64.545-5.529-89.19-11.687-24.629-6.173-46.195 3.845-46.195 3.845s29.592-44.388-6.173-68.543c-13.555-9.159-39.686-3.37-59.367 3.155-6.137 2.031-11.646 4.136-15.946 5.884-5.562 2.26-8.897 7.981-8.153 13.938l1.844 14.763c-26.178 3.845-34.663 20.02-23.099 46.196 11.549 26.192 72.387 17.721 72.387 17.721s18.472 57.76 51.587 73.153c8.211 3.821 19.739 5.302 32.431 5.372l4.44 7.534-10.82 54.098-17.705 11.108c-4.812 3.019-2.673 10.454 3.008 10.454h30.135c4.823 0 9.085-3.141 10.514-7.748l22.035-71.069c.803-2.589 1.115-5.279.958-7.94 24.78-3.718 45.15-9.009 45.15-9.009s7.526 13.595 21.204 34.319c13.678 20.739 95.081 29.874 95.081 29.874l-19.219 23.876c-2.49 3.093-.288 7.692 3.683 7.692h31.476c5.445 0 10.072-3.981 10.884-9.365l3.715-24.618c.614-4.082-1.423-8.107-5.079-10.028z" fill="#e08d63"/><path d="m123.477 210.739-.01.01c-.01.01-.01.01-.01.01h-19.56c-4.39 0-7.33-4.56-5.47-8.53 6.61-14.09 15.24-42.42-10.81-60.01-1.91-1.29-4.07-2.28-6.42-3.02 13.85-2.59 27.5-2.79 36.09 3.02 35.33 23.86 6.88 67.46 6.19 68.52z" fill="#d77f4a"/><path d="m403.507 371.609-3.71 24.61c-.81 5.39-5.44 9.37-10.89 9.37h-29.67c5.44 0 10.07-3.98 10.88-9.37l3.72-24.61c.61-4.09-1.42-8.11-5.08-10.03l-63.061-33.14c-4.413-2.319-7.409-6.646-8.023-11.594-1.385-11.167-4.068-32.201-6.746-49.876-2.73-18.06-11.96-41.03-31.87-48.43 41.07-11.97 57.71 23.06 61.55 48.43 3.84 25.41 7.7 57.76 7.7 57.76l70.13 36.85c3.65 1.92 5.69 5.94 5.07 10.03z" fill="#d77f4a"/><path d="m12.568 226.151c11.549 26.192 72.387 17.722 72.387 17.722s-12.177-15.179-12.667-26.008c-.506-10.844 23.032-20.222 18.115-44.361-2.466-12.131-20.229-22.634-32.482-28.133-6.137 2.031-11.646 4.136-15.946 5.884-5.561 2.26-8.898 7.981-8.153 13.938l1.844 14.763c-26.177 3.844-34.662 20.019-23.098 46.195z" fill="#ffefd2"/></g><g><path d="m490.302 140.28c-15.832-18.477-38.257-28.066-63.107-26.973-31.312 1.389-48.22 14.794-59.404 23.663-9.294 7.363-10.35 7.483-13.819 6.82-4.206-.796-6.037-2.191-6.506-2.734.158-.53.959-1.823 2.948-2.988 9.993-5.865 13.354-18.771 7.496-28.768-2.835-4.843-7.389-8.291-12.822-9.709-5.438-1.418-11.101-.635-15.94 2.206-17.201 10.074-26.288 28.322-23.15 46.488 3.263 18.888 18.259 32.653 40.119 36.822 23.077 4.391 37.356-6.92 47.804-15.199 9.742-7.717 17.438-13.813 35.14-14.587 11.979-.551 21.844 3.6 29.325 12.319 9.083 10.594 13.508 27.579 10.758 41.312-1.703 8.548-8.409 19.881-22.126 26.058-19.809 8.925-47.689 3.959-78.516-13.983-43.187-25.146-99.762-12.812-102.181-12.268-3.209 1.034-6.277 1.729-9.594 2.645-25.072 7.391-47.514.081-67.312-6.369-15.965-6.202-37.32-9.798-51.73-6.213 1.382-3.674 2.656-7.807 3.539-12.217 4.305-21.482-2.521-38.98-19.735-50.6-12.906-8.726-35.088-7.97-65.929 2.243-13.533 4.002-31.76 10.404-29.184 27.873l.983 7.852c-11.262 2.902-19.188 8.408-23.611 16.42-4.467 8.089-4.934 18.045-1.436 29.672 5.688 27.537 37.155 32.949 61.028 32.706 6.568 0 12.359-.388 16.529-.777 1.659 4.448 4.308 11.042 7.919 18.518v45.392c0 4.143 3.357 7.5 7.5 7.5s7.5-3.357 7.5-7.5v-19.742c6.404 8.953 14.009 17.299 22.789 23.224l-4.551 33.305-28.759 43.829c-.642.982-1.733 1.569-2.92 1.569h-27.205l20.19-11.027c1.237-.676 2.26-1.687 2.948-2.916l16.55-29.54c2.024-3.614.736-8.185-2.877-10.209-3.616-2.024-8.185-.737-10.209 2.877l-15.495 27.658-24.64 13.456c-5.363 2.933-7.951 8.881-6.438 14.802 1.514 5.921 6.64 9.899 12.756 9.899h34.42c6.272 0 12.06-3.129 15.471-8.355l29.68-45.23c.612-.934 1.009-1.992 1.16-3.099l4.121-30.16c6.786 2.071 15.107 3.267 24.862 3.573l.856 1.453-9.625 48.123-14.97 9.392c-5.02 3.148-7.292 9.09-5.653 14.785 1.638 5.695 6.721 9.521 12.646 9.521h30.135c8.157 0 15.262-5.234 17.677-13.026l22.035-71.068c.376-1.214.667-2.443.885-3.681 4.341-.711 8.493-1.452 12.363-2.186l-1.381 5.167c-4.133 15.502 2.742 31.822 16.716 39.687l28.125 15.845-8.344 8.425c-3.488 3.512-4.514 8.733-2.611 13.304 1.904 4.576 6.336 7.532 11.292 7.532h25.63c9.425 0 17.331-7.057 18.392-16.415l2.745-24.21c2.349.576 4.804 1.15 7.385 1.721 11.217 2.479 21.911 4.289 29.856 5.485l-10.878 13.523c-2.981 3.699-3.56 8.659-1.509 12.946 2.051 4.286 6.276 6.949 11.028 6.949h31.471c9.236 0 16.936-6.627 18.306-15.752l3.709-24.604c1.097-7.235-2.518-14.386-8.997-17.794l-66.646-35.02c-1.153-9.419-4.225-34.02-7.257-54.074-3.767-24.862-14.495-38.644-22.339-45.635 17.078.342 37.559 3.468 55.271 13.78 35.129 20.446 67.881 25.666 92.222 14.696 18.907-8.515 28.244-24.594 30.676-36.796 3.649-18.229-2.009-39.936-14.082-54.017-7.319-8.528-20.45-18.507-41.38-17.539-22.54.985-33.34 9.541-43.811 17.835-9.936 7.872-19.313 15.311-35.657 12.201-15.468-2.95-25.989-12.161-28.145-24.64-2.063-11.944 4.197-24.109 15.955-30.995 1.388-.813 3.011-1.037 4.566-.633 1.555.406 2.855 1.391 3.667 2.776 1.681 2.868.719 6.569-2.141 8.247-7.378 4.323-11.374 11.605-10.179 18.555 1.265 7.34 8.194 12.89 18.526 14.844 10.929 2.087 16.899-2.644 25.935-9.801 10.821-8.581 24.29-19.261 50.745-20.434 20.174-.87 38.289 6.846 51.062 21.75 14.577 16.996 21.155 42.203 16.758 64.216-3.926 19.623-17.965 36.604-37.556 45.423-10.011 4.512-21.113 6.799-32.999 6.799-21.442 0-45.069-7.43-70.23-22.084-1.257-.731-2.562-1.438-3.883-2.104-3.697-1.862-8.208-.375-10.072 3.324-1.863 3.699-.375 8.209 3.324 10.072 1.053.53 2.093 1.094 3.087 1.671 27.478 16.005 53.645 24.12 77.774 24.12 14.024 0 27.2-2.733 39.159-8.122 23.995-10.803 41.23-31.795 46.104-56.159 5.269-26.363-2.614-56.556-20.077-76.916zm-425.507 77.923c.291 6.425 3.492 13.545 6.806 19.291-20.624.717-54.305.715-56.179-27.087l11.178-1.668c4.097-.611 6.923-4.428 6.312-8.524-.612-4.098-4.437-6.924-8.524-6.312l-5.3.791c3.54-3.654 9.456-6.11 17.668-7.314 10.635-1.682 4.573-16.299 4.508-23.117-.262-7.936 10.861-7.954 16.229-10.825 14.341 6.858 24.262 15.176 25.561 21.564 2.313 11.361-3.415 18.151-9.48 25.34-4.478 5.305-9.108 10.792-8.779 17.861zm239.11 176.782c-.2 1.771-1.7 3.104-3.487 3.104h-18.979l10.589-10.692c1.646-1.662 2.422-3.997 2.099-6.313s-1.709-4.351-3.746-5.498l-36.693-20.672c-8.012-4.509-11.952-13.864-9.583-22.747l3.321-12.43c2.121-.474 3.998-.907 5.566-1.278 3.382 5.78 9.69 16.256 18.636 29.821 2.068 3.134 7.596 11.507 35.29 20.145zm9.286-126.895c3.779 24.999 7.631 57.206 7.669 57.528.293 2.451 1.773 4.603 3.959 5.751l70.127 36.848c.825.435 1.286 1.346 1.146 2.274l-3.711 24.613c-.26 1.729-1.72 2.984-3.473 2.984h-25.678l15.581-19.369c1.715-2.132 2.133-5.028 1.091-7.558s-3.379-4.291-6.098-4.597c-32.355-3.636-81.562-14.275-89.655-26.545-13.324-20.205-20.828-33.693-20.902-33.827-1.658-2.992-5.134-4.481-8.444-3.624-.18.048-16.541 4.267-37.39 7.744-.312-.892-.665-1.773-1.063-2.638l-27.213-59.16c-1.73-3.763-6.186-5.409-9.947-3.68-3.764 1.73-5.411 6.185-3.68 9.947l27.212 59.16c1.533 3.335 1.777 7.106.693 10.612l-22.034 71.068c-.458 1.477-1.805 2.469-3.351 2.469h-23.737l12.286-7.708c1.745-1.096 2.964-2.861 3.368-4.883l10.82-54.099c.361-1.81.044-3.688-.893-5.278l-42.006-71.282c-2.104-3.568-6.701-4.756-10.27-2.654-3.568 2.104-4.757 6.701-2.654 10.27l30.463 51.693c-6.443-.75-11.704-2.059-15.707-3.921-29.715-13.82-47.425-68.101-47.6-68.644-.289-.89-.73-1.692-1.302-2.414-4.119-5.158-10.744-15.581-11.019-21.652.014-1.291 3.296-5.182 5.258-7.506 6.562-7.776 16.479-19.529 12.715-38.004-1.087-5.346-5.263-14.597-20.042-24.417 16.497-3.7 28.995-3.475 35.381.842 21.045 11.686 14.804 42.178 4.836 57.012.002 0-11.908 8.057-11.908 8.057-3.431 2.321-4.331 6.983-2.01 10.414 1.449 2.144 3.812 3.299 6.219 3.299 3.316.57 14.081-8.403 16.87-9.863 8.93-5.392 37.85-7.297 57.671 1.945 20.789 6.773 46.664 15.204 76.199 6.495 12.122-3.574 22.475-2.707 30.768 2.571 15.852 10.094 20.43 32.961 21.455 39.727z"/><path d="m61.426 171.412c-4.143 0-7.5 3.357-7.5 7.5v3.864c0 4.143 3.357 7.5 7.5 7.5s7.5-3.357 7.5-7.5v-3.864c0-4.142-3.357-7.5-7.5-7.5z"/></g></g><g/><g/><g/><g/><g/><g/><g/><g/><g/><g/><g/><g/><g/><g/><g/></svg>