<svg height="512" viewBox="0 0 128 128" width="512" xmlns="http://www.w3.org/2000/svg"><g><g><g fill="#fff07e"><path d="m79.863 49.032a12.648 12.648 0 0 1 -5.147-5.146 1.7 1.7 0 0 0 -2.985 0 12.648 12.648 0 0 1 -5.147 5.146 1.7 1.7 0 0 0 0 2.986 12.65 12.65 0 0 1 5.147 5.147 1.7 1.7 0 0 0 2.985 0 12.65 12.65 0 0 1 5.147-5.147 1.7 1.7 0 0 0 0-2.986z"/><path d="m88.889 66.022a8.856 8.856 0 0 1 -3.6-3.6 1.192 1.192 0 0 0 -2.089 0 8.862 8.862 0 0 1 -3.6 3.6 1.192 1.192 0 0 0 0 2.089 8.856 8.856 0 0 1 3.6 3.6 1.192 1.192 0 0 0 2.089 0 8.85 8.85 0 0 1 3.6-3.6 1.192 1.192 0 0 0 0-2.089z"/></g><path d="m93.894 89.534a37.455 37.455 0 0 1 -27.448-62.948 37.458 37.458 0 1 0 30.009 62.851c-.847.057-1.699.097-2.561.097z" fill="#ffd322"/><g fill="#ff9f23"><circle cx="42.208" cy="62.708" r="5.042"/><path d="m78.978 86.439a37.562 37.562 0 0 1 -13.156-9.573 8.745 8.745 0 1 0 13.156 9.573z"/><circle cx="46.555" cy="82.541" r="2.388"/><path d="m42.265 37.737a4.528 4.528 0 1 0 7.011-5.618 37.635 37.635 0 0 0 -7.011 5.618z"/></g></g><g fill="#002e49"><path d="m63.951 50.525a3.437 3.437 0 0 0 1.8 3.034 10.839 10.839 0 0 1 4.433 4.434 1.75 1.75 0 1 0 3.084-1.656 13.545 13.545 0 0 0 -5.86-5.763 13.553 13.553 0 0 0 5.763-5.859 13.567 13.567 0 0 0 5.859 5.762 14.4 14.4 0 0 0 -2.129 1.4 1.75 1.75 0 1 0 2.174 2.742 11.025 11.025 0 0 1 1.613-1.061 3.454 3.454 0 0 0 0-6.069 10.85 10.85 0 0 1 -4.433-4.431 3.433 3.433 0 0 0 -3.033-1.806 3.437 3.437 0 0 0 -3.036 1.8 10.825 10.825 0 0 1 -4.433 4.433 3.437 3.437 0 0 0 -1.802 3.04z"/><path d="m81.655 61.592a7.066 7.066 0 0 1 -2.886 2.887 2.941 2.941 0 0 0 0 5.172 7.073 7.073 0 0 1 2.889 2.892 2.944 2.944 0 0 0 5.173 0 7.073 7.073 0 0 1 2.887-2.889 2.941 2.941 0 0 0 0-5.172 7.068 7.068 0 0 1 -2.89-2.889 2.943 2.943 0 0 0 -5.173 0zm2.587 2.488a10.54 10.54 0 0 0 2.987 2.986 10.531 10.531 0 0 0 -2.987 2.987 10.54 10.54 0 0 0 -2.986-2.987 10.536 10.536 0 0 0 2.986-2.986z"/><path d="m56.5 55a1.751 1.751 0 0 0 1.7-1.8c-.012-.373-.017-.749-.017-1.125a1.75 1.75 0 0 0 -3.5 0q0 .62.019 1.235a1.749 1.749 0 0 0 1.747 1.69z"/><path d="m98.034 88.683a1.753 1.753 0 0 0 -1.7-.993c-.94.065-1.715.094-2.441.094a35.607 35.607 0 0 1 -26.534-11.738c-.021-.04-.036-.082-.061-.121a1.749 1.749 0 0 0 -.466-.487 35.674 35.674 0 0 1 -7.716-15.214 1.75 1.75 0 1 0 -3.408.8 39.213 39.213 0 0 0 7.579 15.643 10.486 10.486 0 0 0 12.285 16.777 1.75 1.75 0 1 0 -1.691-3.064 6.988 6.988 0 0 1 -8.281-11.092 39.062 39.062 0 0 0 26.428 11.953 35.743 35.743 0 0 1 -32.171 7.239 1.751 1.751 0 0 0 -.895 3.385 39.258 39.258 0 0 0 38.775-11.237 1.748 1.748 0 0 0 .297-1.945z"/><path d="m53.7 96.225a35.663 35.663 0 0 1 -11.419-55.9 6.209 6.209 0 0 0 3.842 1.328 6.275 6.275 0 0 0 5.677-8.968 35.337 35.337 0 0 1 10.479-3.8 38.98 38.98 0 0 0 -6.979 16.208 1.75 1.75 0 1 0 3.445.619 35.564 35.564 0 0 1 8.982-17.935 1.75 1.75 0 0 0 -1.4-2.937 39.028 39.028 0 0 0 -25.087 11.489 1.745 1.745 0 0 0 -.424.434 39.158 39.158 0 0 0 11.378 62.624 1.75 1.75 0 0 0 1.5-3.162zm-4.79-60.856a2.791 2.791 0 0 1 -2.787 2.788 2.734 2.734 0 0 1 -1.37-.369 35.995 35.995 0 0 1 4.034-3.231 2.749 2.749 0 0 1 .119.812z"/><path d="m42.208 66a1.75 1.75 0 0 0 0 3.5 6.792 6.792 0 1 0 -6.791-6.792 1.75 1.75 0 0 0 3.5 0 3.292 3.292 0 1 1 3.291 3.292z"/><path d="m46.555 86.68a4.139 4.139 0 1 0 -4.138-4.139 4.144 4.144 0 0 0 4.138 4.139zm0-4.777a.639.639 0 1 1 -.638.638.638.638 0 0 1 .638-.641z"/></g></g></svg>