<svg id="Layer_1" viewBox="0 0 1000 1000" xmlns="http://www.w3.org/2000/svg" data-name="Layer 1"><path d="m849.56 734.54q-12.12 14.55-25.55 28a413.32 413.32 0 0 1 -205 112h-.09c-112.71 24.41-231.3.72-325.35-65h-.05a419 419 0 0 1 -102.05-101.62c-116.47-165.15-97.09-388.84 46-531.92q13.42-13.41 28-25.55a447 447 0 0 0 584.1 584.1z" fill="#ffe57f"/><path d="m839.56 744.54q-12.12 14.55-25.55 28a413.32 413.32 0 0 1 -205 112h-.09c-112.71 24.41-231.3.72-325.35-65h-.05a419 419 0 0 1 -102.05-101.62c-116.47-165.15-97.09-388.84 46-531.92q13.42-13.41 28-25.55a447 447 0 0 0 584.1 584.1z" fill="#fff" opacity=".5"/><path d="m911.31 679.87a16 16 0 0 0 -19.56-2.4 414.84 414.84 0 0 1 -569.22-569.22 16 16 0 0 0 -22-22 446.95 446.95 0 0 0 -135.29 640c0 .07.09.13.13.19a451 451 0 0 0 109.43 109l.78.54a448.25 448.25 0 0 0 349.7 69.85l.83-.18a447.7 447.7 0 0 0 287.6-206.22 16 16 0 0 0 -2.4-19.56zm-87.31 82.66a413.32 413.32 0 0 1 -205 112h-.09c-112.71 24.41-231.3.72-325.35-65h-.05a419 419 0 0 1 -102.04-101.61c-116.47-165.15-97.09-388.84 46-531.92q13.42-13.41 28-25.55a447 447 0 0 0 584.1 584.1q-12.13 14.54-25.57 27.98z" fill="#413b32"/></svg>