<svg id="Layer_1" viewBox="0 0 1000 1000" xmlns="http://www.w3.org/2000/svg" data-name="Layer 1"><path d="m876.11 557.51a125.57 125.57 0 0 1 -40.71-244.36 385.65 385.65 0 0 0 -48.61-68.24 71.82 71.82 0 0 1 -113.38-87.48 381.66 381.66 0 0 0 -173.41-41.43c-141.44 0-265.26 76.86-331.89 191 63.26 6.42 112.8 60 112.8 124.92a125.57 125.57 0 0 1 -161.36 120.38c15 109.38 76.15 204.24 163.18 264.17a71.81 71.81 0 0 1 129.88 57.53 385 385 0 0 0 210.85-10.33 71.84 71.84 0 1 1 124.85-70.95 383.88 383.88 0 0 0 131.4-235.24q-1.8.03-3.6.03zm-576.56 141.78a71.81 71.81 0 1 1 71.81-71.81 71.88 71.88 0 0 1 -71.81 71.81zm55.81-384.29a71.8 71.8 0 1 1 71.8-71.8 71.88 71.88 0 0 1 -71.8 71.8zm144.64 85.09a71.81 71.81 0 1 1 -71.8 71.81 71.88 71.88 0 0 1 71.8-71.81zm0 415a71.8 71.8 0 1 1 71.8-71.8 71.88 71.88 0 0 1 -71.8 71.8zm55.8-476.71a71.8 71.8 0 1 1 71.8-71.8 71.88 71.88 0 0 1 -71.79 71.8zm157 385.92a71.81 71.81 0 1 1 71.8-71.8 71.88 71.88 0 0 1 -71.78 71.8z" fill="#e1f5fe"/><path d="m764.44 221.82a39.81 39.81 0 0 1 -63-48.63 385.8 385.8 0 0 1 63 48.63z" fill="#37474f"/><path d="m884 500q0 12.72-.82 25.24-3.52.27-7.07.27a93.59 93.59 0 0 1 -26.11-183.46 381.75 381.75 0 0 1 34 157.95z" fill="#37474f"/><path d="m248.91 431.94a93.58 93.58 0 0 1 -132.53 85.06q-.39-8.46-.38-17a381.68 381.68 0 0 1 35.66-161.55c1.23-.05 2.46-.07 3.69-.07a93.66 93.66 0 0 1 93.56 93.56z" fill="#37474f"/><path d="m383.18 854.89a39.68 39.68 0 0 1 -1.41 10.5 382 382 0 0 1 -72-31.89 39.8 39.8 0 0 1 73.37 21.39z" fill="#37474f"/><path d="m722.31 812.94a384.45 384.45 0 0 1 -68.1 38.73 39.44 39.44 0 0 1 -9.29-25.57 39.82 39.82 0 0 1 77.39-13.16z" fill="#37474f"/><circle cx="555.81" cy="266.58" fill="#37474f" r="39.8" transform="matrix(.526 -.851 .851 .526 36.84 599.23)"/><circle cx="500.01" cy="743.29" fill="#37474f" r="39.8"/><path d="m752.62 652.5a39.8 39.8 0 1 1 -39.8-39.81 39.85 39.85 0 0 1 39.8 39.81z" fill="#37474f"/><path d="m539.79 471.9a39.8 39.8 0 1 1 -39.79-39.81 39.85 39.85 0 0 1 39.79 39.81z" fill="#37474f"/><path d="m395.16 243.16a39.81 39.81 0 1 1 -39.8-39.8 39.85 39.85 0 0 1 39.8 39.8z" fill="#37474f"/><path d="m339.36 627.48a39.81 39.81 0 1 1 -39.81-39.8 39.86 39.86 0 0 1 39.81 39.8z" fill="#37474f"/><g fill="#fff" opacity=".5"><path d="m866.11 567.51a125.57 125.57 0 0 1 -40.71-244.36 385.65 385.65 0 0 0 -48.61-68.24 71.82 71.82 0 0 1 -113.38-87.48 381.66 381.66 0 0 0 -173.41-41.43c-141.44 0-265.26 76.86-331.89 191 63.26 6.42 112.8 60 112.8 124.92a125.57 125.57 0 0 1 -161.36 120.38c15 109.38 76.15 204.24 163.18 264.17a71.81 71.81 0 0 1 129.88 57.53 385 385 0 0 0 210.85-10.33 71.84 71.84 0 1 1 124.85-70.95 383.88 383.88 0 0 0 131.4-235.24q-1.8.03-3.6.03zm-576.56 141.78a71.81 71.81 0 1 1 71.81-71.81 71.88 71.88 0 0 1 -71.81 71.81zm55.81-384.29a71.8 71.8 0 1 1 71.8-71.8 71.88 71.88 0 0 1 -71.8 71.8zm144.64 85.09a71.81 71.81 0 1 1 -71.8 71.81 71.88 71.88 0 0 1 71.8-71.81zm0 415a71.8 71.8 0 1 1 71.8-71.8 71.88 71.88 0 0 1 -71.8 71.8zm55.8-476.71a71.8 71.8 0 1 1 71.8-71.8 71.88 71.88 0 0 1 -71.79 71.8zm157 385.92a71.81 71.81 0 1 1 71.8-71.8 71.88 71.88 0 0 1 -71.78 71.8z"/><path d="m754.44 231.82a39.81 39.81 0 0 1 -63-48.63 385.8 385.8 0 0 1 63 48.63z"/><path d="m874 510q0 12.72-.82 25.24-3.52.27-7.07.27a93.59 93.59 0 0 1 -26.11-183.46 381.75 381.75 0 0 1 34 157.95z"/><path d="m238.91 441.94a93.58 93.58 0 0 1 -132.53 85.06q-.39-8.46-.38-17a381.68 381.68 0 0 1 35.66-161.55c1.23-.05 2.46-.07 3.69-.07a93.66 93.66 0 0 1 93.56 93.56z"/><path d="m373.18 864.89a39.68 39.68 0 0 1 -1.41 10.5 382 382 0 0 1 -72-31.89 39.8 39.8 0 0 1 73.37 21.39z"/><path d="m712.31 822.94a384.45 384.45 0 0 1 -68.1 38.73 39.44 39.44 0 0 1 -9.29-25.57 39.82 39.82 0 0 1 77.39-13.16z"/><circle cx="545.81" cy="276.58" r="39.8" transform="matrix(.526 -.851 .851 .526 23.59 595.47)"/><circle cx="490.01" cy="753.29" r="39.8"/><path d="m742.62 662.5a39.8 39.8 0 1 1 -39.8-39.81 39.85 39.85 0 0 1 39.8 39.81z"/><path d="m529.79 481.9a39.8 39.8 0 1 1 -39.79-39.81 39.85 39.85 0 0 1 39.79 39.81z"/><path d="m385.16 253.16a39.81 39.81 0 1 1 -39.8-39.8 39.85 39.85 0 0 1 39.8 39.8z"/><path d="m329.36 637.48a39.81 39.81 0 1 1 -39.81-39.8 39.86 39.86 0 0 1 39.81 39.8z"/></g><g fill="#413b32"><path d="m883.3 338.07c-3-7.05-6.17-14-9.51-20.81a1.3 1.3 0 0 0 -.08-.17c-.05-.12-.12-.23-.17-.35s-.13-.28-.21-.42-.12-.25-.19-.38l-.08-.16a414.11 414.11 0 0 0 -77.06-108.09 0 0 0 0 1 0 0l-1.81-1.83a416.17 416.17 0 0 0 -667.19 109.84 2 2 0 0 0 -.15.29c-.07.14-.14.28-.2.42s-.16.32-.23.48v.08c-3.4 6.93-6.64 13.95-9.66 21.1a413.37 413.37 0 0 0 -32.76 161.93q0 14.1.93 28.06a416.24 416.24 0 0 0 571.3 357.59l1.31-.53c1.45-.59 2.9-1.2 4.35-1.81a416.43 416.43 0 0 0 221.41-545.24zm-.12 187.17q-1.06 16.31-3.47 32.21a383.88 383.88 0 0 1 -131.4 235.24q-12.55 10.66-26 20.25a384.45 384.45 0 0 1 -68.1 38.73q-15 6.63-30.75 12a385 385 0 0 1 -210.85 10.33q-15.67-3.66-30.84-8.58a382 382 0 0 1 -72-31.89q-13.92-7.95-27.08-17c-87-59.93-148.22-154.79-163.18-264.17q-2.39-17.4-3.17-35.28-.39-8.46-.38-17a381.68 381.68 0 0 1 35.66-161.55q7.51-16.14 16.45-31.43c66.67-114.24 190.49-191.1 331.93-191.1a381.66 381.66 0 0 1 173.41 41.43q14.37 7.31 28 15.76a385.8 385.8 0 0 1 63 48.63q11.65 11.07 22.35 23.09a385.65 385.65 0 0 1 48.61 68.24q7.89 14.09 14.6 28.9a381.75 381.75 0 0 1 34 158q.03 12.67-.79 25.19z"/><path d="m280.91 431.94a125.6 125.6 0 0 1 -188 109 16 16 0 1 1 15.94-27.75c2.44 1.4 4.94 2.69 7.5 3.85a93.57 93.57 0 1 0 39-178.64c-1.23 0-2.46 0-3.69.07-2.88.11-5.73.36-8.51.72a16 16 0 0 1 -16.79-22.19v-.08c.13-.3.27-.6.43-.9a2 2 0 0 1 .15-.29 16 16 0 0 1 12-8.25 125.37 125.37 0 0 1 16.4-1.07q6.47 0 12.76.64c63.27 6.39 112.81 59.95 112.81 124.89z"/><path d="m901.29 555a125.46 125.46 0 0 1 -21.58 2.47q-1.8.06-3.6.06a125.57 125.57 0 0 1 -40.71-244.38 124 124 0 0 1 21.28-5.27 16 16 0 0 1 16.38 7.9l.08.16c.07.13.13.25.19.38s.14.28.21.42.12.23.17.35a1.3 1.3 0 0 1 .08.17 15.83 15.83 0 0 1 1.16 4 16 16 0 0 1 -13.35 18.24 95.2 95.2 0 0 0 -11.6 2.55 93.59 93.59 0 0 0 26.11 183.46q3.54 0 7.07-.27a91.37 91.37 0 0 0 11.71-1.62 16 16 0 0 1 6.4 31.36z"/><path d="m555.81 194.78a71.8 71.8 0 1 0 71.8 71.8 71.88 71.88 0 0 0 -71.8-71.8zm0 111.6a39.8 39.8 0 1 1 39.8-39.8 39.85 39.85 0 0 1 -39.8 39.8z"/><path d="m299.55 555.68a71.81 71.81 0 1 0 71.81 71.8 71.88 71.88 0 0 0 -71.81-71.8zm0 111.61a39.81 39.81 0 1 1 39.81-39.81 39.85 39.85 0 0 1 -39.81 39.81z"/><path d="m415.18 854.89a71.63 71.63 0 0 1 -11.18 38.54 16 16 0 1 1 -27-17.2 39.95 39.95 0 0 0 6.19-21.34 39.8 39.8 0 0 0 -73.37-21.39 39.41 39.41 0 0 0 -4.82 10.91 16 16 0 1 1 -30.9-8.41 71.8 71.8 0 0 1 141.08 18.88z"/><path d="m500 671.49a71.8 71.8 0 1 0 71.8 71.8 71.88 71.88 0 0 0 -71.8-71.8zm0 111.6a39.8 39.8 0 1 1 39.8-39.8 39.85 39.85 0 0 1 -39.8 39.8z"/><path d="m712.82 580.69a71.81 71.81 0 1 0 71.8 71.81 71.88 71.88 0 0 0 -71.8-71.81zm0 111.61a39.81 39.81 0 1 1 39.8-39.8 39.85 39.85 0 0 1 -39.8 39.8z"/><path d="m741.93 835.79a16 16 0 0 1 -17.66-14.14 39.8 39.8 0 1 0 -70.06 30 40.43 40.43 0 0 0 6.45 6.14 16 16 0 0 1 -3.08 27.3l-1.31.53a16 16 0 0 1 -15-2.38 72.12 72.12 0 0 1 -17.8-19.63 71.84 71.84 0 1 1 132.61-45.51 16 16 0 0 1 -14.15 17.69z"/><path d="m500 400.09a71.81 71.81 0 1 0 71.8 71.81 71.88 71.88 0 0 0 -71.8-71.81zm0 111.61a39.81 39.81 0 1 1 39.8-39.8 39.85 39.85 0 0 1 -39.8 39.8z"/><path d="m799.36 225.42a71.83 71.83 0 1 1 -110.29-85 16 16 0 1 1 19.82 25.12 40.24 40.24 0 0 0 -7.46 7.7 39.81 39.81 0 1 0 68.57 39.4 16 16 0 0 1 26-5 0 0 0 0 0 0 0 16 16 0 0 1 3.36 17.78z"/><path d="m355.36 171.36a71.8 71.8 0 1 0 71.8 71.8 71.88 71.88 0 0 0 -71.8-71.8zm0 111.6a39.8 39.8 0 1 1 39.8-39.8 39.85 39.85 0 0 1 -39.8 39.84z"/></g></svg>