<svg id="Capa_1" enable-background="new 0 0 512.095 512.095" viewBox="0 0 512.095 512.095" xmlns="http://www.w3.org/2000/svg"><g><g><path d="m357.963 88.318-21.23-67.479h-22.935l-10 39.819 10 39.819z" fill="#5f4dbf"/><path d="m313.798 20.839h-141.852c-94.71 0-171.844 77.053-171.946 171.765-.049 45.963 17.814 89.185 50.298 121.703 32.483 32.518 75.686 50.426 121.648 50.426l38.029-.068-77.705-214.21 181.527-49.978v-79.638z" fill="#7f66ff"/></g><g><path d="m397.33 261.872-83.532.016-10 48.909 10 53.814 65.349-.035h.009c4.14 0 8.032 1.612 10.961 4.539 2.93 2.929 4.544 6.823 4.544 10.967 0 8.551-6.956 15.507-15.506 15.507h-65.356l-10 48.322 10 47.346h83.487c63.241 0 114.692-51.451 114.692-114.692 0-63.221-51.431-114.671-114.648-114.693z" fill="#7f66ff"/><path d="m512.095 230.778-.465-73.9-3.956-4.273c-24.271-26.212-54.739-54.689-96.742-67.177-17.403-5.119-35.464-7.607-55.216-7.607-4.378 0-18.409.028-41.918.085l-10 76.394 10 76.479h198.297z" fill="#7f66ff"/><g fill="#a079ff"><path d="m286.244 395.587c-39.478 0-71.595 32.117-71.595 71.595v24.073h99.148v-95.668z"/><path d="m189.129 261.911c-4.18.001-8.104-1.633-11.049-4.599-2.945-2.967-4.551-6.902-4.52-11.082.062-8.521 7.045-15.452 15.565-15.452h73.006l51.666-90.014v-62.859c-24.497.059-59.287.148-104.201.268-78.823.208-142.912 64.507-142.864 143.333.049 78.956 64.298 143.161 143.244 143.158h.078l103.744-.055v-102.722z"/></g></g><g><path d="m313.798 230.764h-51.666c-32.4 0-58.76-26.359-58.76-58.76v-31.24h110.426z" fill="#5f4dbf"/></g><path d="m367.823 140.764h30v30h-30z" fill="#2b2b2b"/></g><g/><g/><g/><g/><g/><g/><g/><g/><g/><g/><g/><g/><g/><g/><g/></svg>