<svg id="Layer_1" viewBox="0 0 1000 1000" xmlns="http://www.w3.org/2000/svg" data-name="Layer 1"><path d="m642.14 779.6v34.8a22.47 22.47 0 0 1 -22.45 22.45h-239.77a22.47 22.47 0 0 1 -22.45-22.45v-34.95a407.67 407.67 0 0 0 284.67.15z" fill="#bdbdbd"/><path d="m178 519c13 141.58 153.64 254.18 322 254.18s309-112.6 322-254.18zm520.08 163c-31.1 26.77-72.29 41.51-116 41.51a16 16 0 0 1 0-32c73.5-.01 133.28-50.51 133.28-112.51a16 16 0 0 1 32 0c0 39.07-17.5 75.64-49.28 103z" fill="#fbc02d"/><path d="m884 441.56a45.49 45.49 0 0 1 -45 45.44h-678a45.44 45.44 0 0 1 .4-90.88h677.16a45.49 45.49 0 0 1 45.44 45.44z" fill="#f9a825"/><path d="m240.68 169.68a6.65 6.65 0 0 1 -.33 2.06 6.42 6.42 0 0 1 -1.58 2.55l-72.77 72.82-.59.59-7.41 7.35a6.53 6.53 0 1 1 -9.23-9.23l39.67-39.67 41.09-41.09a6.53 6.53 0 0 1 11.14 4.62z" fill="#bdbdbd"/><path d="m414.39 364.12h-130.24l-85.58-104.37 44.6-44.6z" fill="#bdbdbd"/><path d="m691.38 164.7c-2.55 24.15-8.77 66.46-22.55 92.05-22.26 41.35-35.12 56.1-67.39 62h-.11c-1.66.24-15.31 1.79-33.35-8.06l37.34-37.34a16 16 0 1 0 -22.63-22.62l-37.33 37.37c-9.85-18-8.3-31.68-8.06-33.34a.41.41 0 0 0 0-.1c5.92-32.28 20.68-45.14 62-67.4 25.62-13.79 67.94-20.01 92.08-22.56z" fill="#7cb342"/><g fill="#fff" opacity=".5"><path d="m632.14 789.6v34.8a22.47 22.47 0 0 1 -22.45 22.45h-239.77a22.47 22.47 0 0 1 -22.45-22.45v-34.95a407.67 407.67 0 0 0 284.67.15z"/><path d="m168 529c13 141.58 153.64 254.18 322 254.18s309-112.6 322-254.18zm520.08 163c-31.1 26.77-72.29 41.51-116 41.51a16 16 0 0 1 0-32c73.5-.01 133.28-50.51 133.28-112.51a16 16 0 0 1 32 0c0 39.07-17.5 75.64-49.28 103z"/><path d="m874 451.56a45.49 45.49 0 0 1 -45 45.44h-678a45.44 45.44 0 0 1 .4-90.88h677.16a45.49 45.49 0 0 1 45.44 45.44z"/><path d="m230.68 179.68a6.65 6.65 0 0 1 -.33 2.06 6.42 6.42 0 0 1 -1.58 2.55l-72.77 72.82-.59.59-7.41 7.35a6.53 6.53 0 1 1 -9.23-9.23l39.67-39.67 41.09-41.09a6.53 6.53 0 0 1 11.14 4.62z"/><path d="m404.39 374.12h-130.24l-85.58-104.37 44.6-44.6z"/><path d="m681.38 174.7c-2.55 24.15-8.77 66.46-22.55 92.05-22.26 41.35-35.12 56.1-67.39 62h-.11c-1.66.24-15.31 1.79-33.35-8.06l37.34-37.34a16 16 0 1 0 -22.63-22.62l-37.33 37.37c-9.85-18-8.3-31.68-8.06-33.34a.41.41 0 0 0 0-.1c5.92-32.28 20.68-45.14 62-67.4 25.62-13.79 67.94-20.01 92.08-22.56z"/></g><g fill="#413b32"><path d="m674.14 755.57v58.83a54.52 54.52 0 0 1 -54.45 54.45h-239.77a54.51 54.51 0 0 1 -54.45-54.45v-59a16 16 0 1 1 32 0v59a22.47 22.47 0 0 0 22.45 22.45h239.77a22.47 22.47 0 0 0 22.45-22.45v-58.83a16 16 0 0 1 32 0z"/><path d="m855 503.34q-.15 7.05-.68 14.05c-5.6 76.09-43 146.79-106.39 200.37a356.58 356.58 0 0 1 -73.76 48q-15.6 7.65-32 13.85a407.67 407.67 0 0 1 -284.67-.15q-16.38-6.23-32-13.89a356.61 356.61 0 0 1 -73.37-47.8c-63.37-53.58-100.79-124.28-106.39-200.37q-.53-7-.68-14.05a16 16 0 0 1 15.61-16.35h.33a16 16 0 0 1 16 15.64q.18 8.24.94 16.36c13.06 141.58 153.7 254.18 322.06 254.18s309-112.6 322-254.18q.76-8.11.94-16.36a16 16 0 0 1 16.06-15.64h.37a16 16 0 0 1 15.63 16.34z"/><path d="m747.36 579c0 39.06-17.5 75.63-49.28 103-31.1 26.77-72.29 41.51-116 41.51a16 16 0 0 1 0-32c73.5-.01 133.28-50.51 133.28-112.51a16 16 0 0 1 32 0z"/><path d="m286.72 392.49a15.93 15.93 0 0 1 -10.13 3.63h180.56a15.92 15.92 0 0 1 -10.5-3.93l-32.26-28.07h-130.24l4.85 5.88a16 16 0 0 1 -2.28 22.49zm551.84-28.37h-677.12a77.44 77.44 0 1 0 0 154.88h677.12a77.44 77.44 0 1 0 0-154.88zm.44 122.88h-678a45.44 45.44 0 0 1 .4-90.88h677.16a45.44 45.44 0 0 1 .44 90.88z"/><path d="m469.22 390.62a16 16 0 0 1 -22.57 1.57l-32.26-28.07-171.22-149-11.07-9.64c-.34-.29-.64-.58-.93-.87a16 16 0 0 1 22.2-23l12.1 10.53 197.66 172 4.52 3.93a16 16 0 0 1 1.57 22.55z"/><path d="m289 370-4.8-5.85-85.63-104.4-9-11c-.26-.32-.54-.63-.82-.93a16 16 0 0 0 -21.26-1.94 16.42 16.42 0 0 0 -1.49 1.25l-.59.59a16 16 0 0 0 -1.22 20.54 14.68 14.68 0 0 0 1 1.25l10.26 12.49 67.32 82.09 21.43 26.14a16 16 0 1 0 24.8-20.23z"/><path d="m189.86 204.74-1.41 1.41a16 16 0 0 1 -22.62-22.63l1.41-1.41a16 16 0 1 1 22.62 22.63z"/><path d="m261.4 142.44a38.56 38.56 0 0 0 -54.49 0l-41.08 41.08-39.68 39.68a38.53 38.53 0 1 0 54.49 54.48l17.93-17.93 44.6-44.6 18.23-18.23a38.53 38.53 0 0 0 0-54.48zm-95.4 104.67-.59.59-7.41 7.35a6.53 6.53 0 1 1 -9.23-9.23l39.67-39.67 41.09-41.09a6.53 6.53 0 0 1 11.14 4.62 6.65 6.65 0 0 1 -.33 2.06 6.42 6.42 0 0 1 -1.58 2.55z"/><path d="m555.56 302.47a11.51 11.51 0 0 1 -1-.93 11.11 11.11 0 0 1 -.92-1 89.25 89.25 0 0 1 -8.26-12.42l-23.3 23.3q2.88 4.43 6.44 9a45.65 45.65 0 0 0 3.41 3.82 42.78 42.78 0 0 0 3.83 3.41c3 2.38 6 4.52 8.94 6.45l23.3-23.3a89.25 89.25 0 0 1 -12.44-8.33z"/><path d="m724.91 148c-.17 3.26-4.46 80.4-27.9 123.93-21.64 40.19-40.75 69.34-89.8 78.33a54.89 54.89 0 0 1 -9.41.7c-11.25 0-31.12-2.53-53.12-16.91l23.3-23.3c18 9.85 31.69 8.3 33.35 8.06h.11c32.27-5.92 45.13-20.67 67.39-62 13.78-25.59 20-67.9 22.55-92.05-24.14 2.55-66.46 8.77-92 22.55-41.34 22.26-56.1 35.12-62 67.4a.41.41 0 0 1 0 .1c-.24 1.66-1.79 15.3 8.06 33.34l-23.3 23.3c-21-32-16.75-59.57-16.22-62.52 4.5-24.53 14-41.57 27.46-55.19s30.76-23.8 50.86-34.62c43.53-23.44 120.67-27.73 123.93-27.9a16 16 0 0 1 16.74 16.78z"/><path d="m605.32 273.39-37.32 37.34-23.32 23.27-21.92 22a16 16 0 0 1 -22.63-22.62l82.56-82.56a16 16 0 1 1 22.63 22.62z"/></g></svg>