<svg id="Layer_1" enable-background="new 0 0 512 512" viewBox="0 0 512 512" xmlns="http://www.w3.org/2000/svg"><g><path d="m157.161 454.873 162.514-397.746 162.513 397.746z" fill="#4a2910"/></g><g><path d="m482.19 462.87h-325.03c-2.665 0-5.155-1.327-6.641-3.539-1.486-2.213-1.772-5.02-.765-7.486l162.51-397.741c1.229-3.008 4.155-4.974 7.405-4.974 3.249 0 6.176 1.965 7.405 4.974l27.85 68.15c1.672 4.09-.289 8.761-4.379 10.432-4.088 1.67-8.76-.29-10.432-4.379l-20.443-50.027-150.6 368.591h301.208l-113.823-278.565c-1.672-4.09.289-8.76 4.379-10.432 4.094-1.67 8.76.29 10.432 4.38l118.33 289.59c1.009 2.468.722 5.274-.765 7.487-1.485 2.212-3.976 3.539-6.641 3.539z"/></g><g><path d="m29.812 454.873 116.415-284.925 116.417 284.925z" fill="#7f421c"/></g><g><path d="m262.64 462.87h-232.83c-2.665 0-5.155-1.327-6.641-3.539-1.486-2.213-1.772-5.02-.765-7.486l19.05-46.63c1.671-4.09 6.343-6.051 10.431-4.381 4.09 1.672 6.051 6.342 4.38 10.432l-14.545 35.604h209.009l-104.499-255.768-73.614 180.165c-1.671 4.089-6.34 6.052-10.432 4.379-4.09-1.671-6.051-6.341-4.38-10.432l81.02-198.29c1.229-3.008 4.156-4.974 7.406-4.974 3.25 0 6.177 1.966 7.406 4.974l116.409 284.92c1.009 2.467.722 5.273-.765 7.486-1.485 2.213-3.975 3.54-6.64 3.54z"/></g><g><g><path d="m368.107 376.24c-15.482 0-28.034 12.552-28.034 28.034v50.599h56.068v-50.599c.001-15.482-12.551-28.034-28.034-28.034z" fill="#b3b4b4"/></g><g><path d="m396.142 462.873h-56.068c-4.418 0-8-3.582-8-8v-50.599c0-19.869 16.165-36.034 36.034-36.034s36.034 16.165 36.034 36.034v50.599c0 4.418-3.582 8-8 8zm-48.069-16h40.068v-42.599c0-11.047-8.987-20.034-20.034-20.034s-20.034 8.987-20.034 20.034z"/></g></g></svg>