<svg id="Capa_1" enable-background="new 0 0 512 512" height="512" viewBox="0 0 512 512" width="512" xmlns="http://www.w3.org/2000/svg"><g><g><path d="m92.608 126.078c-15.098 0-27.337 12.239-27.337 27.337v318.692c0 15.098 12.239 27.337 27.337 27.337 15.098 0 27.337-12.239 27.337-27.337v-318.692c0-15.098-12.239-27.337-27.337-27.337z" fill="#fef2a8"/><path d="m247.897 178.409c-25.059-27.103-26.666-26.903-53.64-1.942-.827.765-1.867 1.254-2.75 1.941-37.137 28.896-117.477 36.091-160.646 34.892-42.208-1.172-8.394-16.788-1.199-76.743 1.578-13.148.793-25.945 2.386-40.232 4.877-43.735 40.282-78.777 84.059-83.26 51.873-5.312 96.325 31.306 103.596 80.068 7.154-47.981 50.309-84.205 101.111-80.29.825.063.343.223.343.223 43.777 4.483 79.181 39.526 84.059 83.26 1.593 14.287.808 27.084 2.386 40.232 7.194 59.955 41.008 75.571-1.199 76.743-42.448 1.179-119.926-6.648-157.839-34.355z" fill="#b07676"/><g fill="#a45775"><path d="m162.124 148.615c-34.342 16.166-100.468 26.837-135.289 25.87-2.317-.064-4.34-.185-6.115-.365-10.518 29.383-21.353 38.306 10.143 39.18 43.168 1.199 123.508-5.995 160.646-34.892.883-.687 1.923-1.176 2.75-1.941 14.795-13.691 21.959-19.914 29.547-18.288-8.051-3.226-31.627-23.712-61.682-9.564z"/><path d="m407.602 136.557c-1.578-13.148-.793-25.944-2.386-40.231-4.878-43.735-40.282-78.778-84.058-83.261 0 0 .481-.16-.343-.222-13.888-1.071-27.201.865-39.367 5.214 25.406 10.265 44.22 33.929 47.359 62.071 1.285 11.525.652 21.847 1.925 32.452 5.803 48.362 33.079 60.959-.967 61.905-26.398.733-69.578-2.861-101.993-14.782 5.199 2.822 11.159 9.006 20.127 18.707l.666.536c37.913 27.706 115.391 35.534 157.839 34.354 42.206-1.172 8.392-16.788 1.198-76.743z"/></g></g><g><path d="m109.922 205.663v266.445c0 9.547-7.767 17.314-17.314 17.314s-17.314-7.767-17.314-17.314v-259.903c-6.672.717-13.372 1.178-20.047 1.441v258.462c0 20.601 16.76 37.36 37.36 37.36 20.601 0 37.36-16.76 37.36-37.36v-273.683c-6.493 2.895-13.198 5.28-20.045 7.238z" fill="#440a29"/><path d="m39.474 223.437c-3.167 0-6.135-.041-8.891-.117-13.658-.379-23.104-2.124-27.984-9.641-5.35-8.242-1.534-17.49 3.298-29.198 4.712-11.419 11.167-27.058 13.813-49.118 1.541-13.358.768-26.221 2.377-40.148 5.399-48.413 44.511-87.156 92.999-92.121 44.617-4.562 85.653 19.243 104.636 57.159 6.637-13.225 16.084-25.004 27.87-34.524 20.834-16.826 47.111-24.95 73.991-22.88.907.069 1.75.228 2.529.462 47.589 5.785 85.737 44.138 91.064 91.904 1.609 13.923.836 26.794 2.377 40.148 2.647 22.06 9.101 37.699 13.813 49.118 4.832 11.708 8.647 20.956 3.297 29.197-4.879 7.518-14.325 9.263-27.984 9.642-38.12 1.061-121.445-5.16-164.031-36.281-.125-.092-.249-.187-.37-.284l-.667-.536c-.383-.308-.742-.644-1.076-1.005-6.325-6.841-15.885-17.182-19.057-17.281-3.137-.071-13.122 9.144-20.415 15.893-1.144 1.058-2.267 1.773-3.011 2.245-.149.095-.299.186-.442.288-38.002 29.57-115.422 37.077-158.136 37.078zm-18.959-21.1c1.808.372 5.023.788 10.624.944 43.502 1.196 120.466-6.526 154.213-32.783.745-.58 1.438-1.021 1.944-1.343.113-.071.227-.141.339-.215 13.935-12.895 23.152-21.409 34.477-21.044 11.407.36 19.916 9.403 32.623 23.145 35.543 25.751 109.954 33.394 151.39 32.241 5.602-.156 8.817-.572 10.625-.944-.795-2.652-2.482-6.742-3.913-10.209-4.863-11.784-12.212-29.593-15.186-54.376-1.656-13.872-.856-26.448-2.396-40.314-4.361-39.1-35.953-70.39-75.118-74.4-.559-.058-1.103-.16-1.63-.304-43.604-2.553-82.458 28.736-88.89 71.879-.732 4.911-4.949 8.545-9.914 8.545s-9.182-3.635-9.914-8.545c-6.676-44.771-47.383-76.22-92.661-71.575-39.165 4.01-70.757 35.301-75.118 74.4-1.54 13.866-.74 26.442-2.396 40.314-2.974 24.783-10.323 42.592-15.186 54.377-1.431 3.466-3.119 7.555-3.913 10.207zm299.528-179.5c.004 0 .008 0 .012.001-.003-.001-.01-.001-.012-.001z" fill="#440a29"/><g fill="#fff"><path d="m122.665 67.422c-4.888 0-9.168-3.581-9.903-8.561-.808-5.477 2.976-10.571 8.452-11.379 2.762-.408 5.635-.644 8.538-.701.068-.001.135-.002.202-.002 5.444 0 9.91 4.359 10.017 9.826.109 5.535-4.289 10.11-9.824 10.219-2.059.04-4.08.205-6.007.489-.495.073-.988.109-1.475.109z"/><path d="m79.815 115.62c-.542 0-1.092-.045-1.645-.136-5.462-.902-9.158-6.062-8.256-11.523 2.082-12.603 6.879-24.317 13.872-33.878 3.269-4.467 9.541-5.439 14.008-2.172 4.467 3.268 5.44 9.54 2.172 14.008-5.149 7.038-8.701 15.79-10.274 25.309-.81 4.909-5.06 8.392-9.877 8.392z"/></g></g><g><g fill="#ffc7b6"><path d="m479.087 246.327 8.234 23.151c.352.991 1.05 1.777 1.931 2.174l20.569 9.267c2.906 1.309 2.906 5.939 0 7.249l-20.569 9.267c-.881.397-1.579 1.182-1.931 2.173l-8.234 23.151c-1.163 3.271-5.277 3.271-6.44 0l-8.233-23.151c-.353-.991-1.05-1.777-1.931-2.173l-20.569-9.267c-2.906-1.309-2.906-5.939 0-7.249l20.569-9.267c.881-.397 1.579-1.182 1.931-2.174l8.233-23.151c1.163-3.271 5.277-3.271 6.44 0z"/><path d="m347.625 371.461 6.107 17.173c.262.735.779 1.318 1.432 1.612l15.258 6.874c2.156.971 2.156 4.406 0 5.377l-15.258 6.874c-.653.294-1.171.877-1.432 1.612l-6.107 17.173c-.863 2.426-3.914 2.426-4.777 0l-6.108-17.173c-.262-.735-.779-1.318-1.432-1.612l-15.258-6.874c-2.155-.971-2.155-4.406 0-5.377l15.258-6.874c.653-.294 1.171-.877 1.432-1.612l6.108-17.173c.863-2.426 3.914-2.426 4.777 0z"/><path d="m207.579 325.458 6.107 17.173c.262.735.779 1.318 1.432 1.612l15.258 6.874c2.156.971 2.156 4.406 0 5.377l-15.258 6.874c-.653.294-1.171.877-1.432 1.612l-6.107 17.173c-.863 2.426-3.914 2.426-4.777 0l-6.108-17.173c-.262-.735-.779-1.318-1.432-1.612l-15.258-6.874c-2.155-.971-2.155-4.406 0-5.377l15.258-6.874c.653-.294 1.171-.877 1.432-1.612l6.108-17.173c.863-2.426 3.914-2.426 4.777 0z"/></g><ellipse cx="304.891" cy="302.499" fill="#ffa585" rx="17.978" ry="17.978" transform="matrix(.993 -.122 .122 .993 -34.676 39.519)"/><circle cx="427.23" cy="365.681" fill="#ffa585" r="7.755"/></g></g></svg>