<svg id="Layer_1" enable-background="new 0 0 511.982 511.982" viewBox="0 0 511.982 511.982" xmlns="http://www.w3.org/2000/svg"><g><g><g><path d="m100.875 181.402s-15.95-40.964 18.088-58c29.086-14.558 29.171 39.997 29.171 39.997z" fill="#918291"/><path d="m8.341 229.867 4.44 11.95c1.79 4.81 6.18 8.17 11.3 8.63l25.95 2.33c24.41 24.44 83.02 7.29 83.02 7.29s3.6 15.54.54 29.27c-3.05 13.73-56.1 58.75-56.1 58.75l21.35 24.4 19.83-20.59s38.14-13.73 78.56-25.93c0 0 29.75 26.69 81.61 46.52 45.06 17.23 106.78 2.29 123.56-26.69s22.12-87.71-32.03-141.1c-54.16-53.39-138.82-12.97-138.82-12.97s-40.42-29.74-88.47-38.9c-31.49-6-81 25.14-111.38 47.3-7.93 5.79-14.56 10.96-19.22 14.71-4.48 3.6-6.14 9.65-4.14 15.03z" fill="#b5adb6"/><path d="m402.404 345.797c-13.54 23.39-56.37 37.64-96.08 33.2 29.5-3.2 56.22-15.62 66.4-33.2 16.78-28.98 22.12-87.71-32.03-141.1-17.26-17.02-37.63-24.51-57.37-26.81 27.45-2.9 60.83.96 87.05 26.81 54.15 53.39 48.81 112.12 32.03 141.1z" fill="#a79ba7"/><path d="m231.554 191.727s-3.88-2.85-10.67-7.06c15.42-4.72 38.47-9.58 62.44-6.78-29.24 3.09-51.77 13.84-51.77 13.84z" fill="#b5adb6"/><path d="m142.286 189.492s-4.241-69.045 54.947-78.238c50.576-7.855 24.517 73.942 24.517 73.942l-14.126-7.777-9.908 9.076z" fill="#ffc4c8"/><path d="m197.233 111.255c-3.729.579-7.204 1.397-10.447 2.419 18.416 10.73 14.98 49.345 10.93 72.822l24.034-1.299s26.059-81.798-24.517-73.942z" fill="#fdb4ba"/><path d="m197.233 111.255c8.294-1.288 14.516-.154 19.141 2.623-42.926 14.004-44.123 64.29-43.946 73.985l-13.956 12.228-16.186-10.599s-4.241-69.045 54.947-78.237z" fill="#b5adb6"/><g fill="#ffc4c8"><path d="m98.843 372.491-21.356-24.407-14.565 1.028c-7.98.563-14.61 6.368-16.223 14.203l-3.822 18.565h27.072c10.381 0 20.496-3.286 28.894-9.389z"/><path d="m308.396 379.22-68.908 13.113-23.65-18.115 27.517-17.817z"/></g></g><path d="m8.341 229.867 4.44 11.95c1.79 4.81 6.18 8.17 11.3 8.63l25.95 2.33-18.33-52.65c-7.93 5.79-14.56 10.96-19.22 14.71-4.48 3.6-6.14 9.65-4.14 15.03z" fill="#ffc4c8"/></g><g><path d="m90.225 164.204c1.595 3.89 6.391 5.671 10.115 3.874 15.18-6.377 27.828-9.18 37.679-8.367-4.013 16.147-3.26 29.586-3.22 30.242.245 3.977 3.546 7.034 7.479 7.034.15 0 .302-.004.454-.014 4.13-.246 7.279-3.797 7.04-7.927-1.916-19.849 9.306-61.8 40.372-68.534-24.494 22.406-25.373 58.873-25.215 67.489.075 4.094 3.418 7.362 7.496 7.362.047 0 .094 0 .141-.001 4.142-.076 7.437-3.495 7.361-7.636-.16-8.678.866-51.405 35.145-65.382.164.179.31.346.427.481 9.613 11.212 4.642 42.49-.798 59.8-1.243 3.29.167 7.239 3.201 9.01 5.809 3.654 9.187 6.118 9.217 6.141 2.223 1.63 5.169 1.906 7.659.723.204-.097 20.722-9.734 47.201-12.914 34.494-4.142 62.467 4.084 83.129 24.453 36.354 35.843 42.481 71.176 41.22 94.505-.224 4.136 2.948 7.67 7.084 7.894.139.007.275.011.412.011 3.956 0 7.266-3.097 7.482-7.095 2.018-37.328-14.2-74.971-45.667-105.997-23.835-23.495-56.999-33.387-95.9-28.609-21.887 2.688-39.663 9.241-47.346 12.428-.558-.377-1.199-.804-1.877-1.252 3.896-14.424 11.68-50.987-3.621-68.85-22.003-22.373-62.263-3.163-76.645 18.66-2.987-7.623-7.155-12.932-12.482-15.844-4.479-2.449-11.96-4.295-22.162.812-17.185 8.602-26.125 23.757-25.935 43.843-.122 1.208.049 2.463.554 3.66zm32.097-34.091c5.321-2.665 7.526-1.46 8.251-1.064 3.256 1.78 6.075 7.511 7.907 15.67-9.41-.616-20.33 1.14-32.633 5.252 2.265-8.835 7.766-15.498 16.475-19.858z"/><path d="m102.965 200.091v5.004c0 4.142 3.357 7.5 7.5 7.5s7.5-3.358 7.5-7.5v-5.004c0-4.142-3.357-7.5-7.5-7.5s-7.5 3.358-7.5 7.5z"/><path d="m493.911 222.226c-28.144-47.628-12.066-80.028-6.469-88.824 2.224-3.495 1.194-8.13-2.301-10.354-3.493-2.224-8.129-1.195-10.354 2.3-3.63 5.703-9.968 17.873-11.638 35.303-2.133 22.271 3.871 45.555 17.847 69.206 16.244 27.491 20.436 56.839 11.212 78.505-5.986 14.062-16.995 23.348-31.836 26.856-37.548 8.877-49.287-1.18-49.401-1.283.145.13.207.208.207.208l-.001.001c-3.493-3.839-10.221-2.739-12.272 2.061-.926 2.041-1.933 4.003-2.992 5.834-13.786 26.008-77.989 39.219-114.392 23.443-32.157-12.296-57.534-28.3-71.385-38.715 22.575-17.269 23.545-45.798 23.576-47.153.096-4.13-3.167-7.547-7.297-7.658-4.174-.122-7.572 3.153-7.698 7.282-.035 1.15-1.134 28.132-24.327 39.753-39.897 12.067-77.877 25.711-78.258 25.848-1.084.39-2.063 1.024-2.862 1.854l-14.162 14.707-11.004-12.577c5.213-4.563 13.304-11.77 21.464-19.527 25.655-24.391 30.229-33.298 31.346-38.328 3.393-15.219-.392-31.893-.554-32.595-.466-2.008-1.739-3.736-3.519-4.778-1.779-1.042-3.913-1.306-5.89-.729-6.917 2.015-19.677 4.695-33.152 5.354l-2.612-30.836c-.35-4.127-3.979-7.201-8.106-6.84-4.128.35-7.19 3.979-6.841 8.106l2.484 29.329c-4.953-.456-9.731-1.343-14.089-2.779l4.45-18.087c.989-4.022-1.47-8.085-5.491-9.075-4.024-.991-8.085 1.468-9.075 5.491l-3.001 12.197-14.895-42.784c9.998-7.129 19.752-13.536 29.056-19.079 3.559-2.12 4.725-6.724 2.604-10.282-2.12-3.559-6.724-4.725-10.282-2.604-11.086 6.605-22.759 14.368-34.698 23.077-.008.006-.017.01-.024.016-8.495 6.203-15.293 11.54-19.496 14.922-7.002 5.626-9.603 15.066-6.472 23.489l4.441 11.953c2.783 7.478 9.715 12.77 17.658 13.483l23.395 2.101c1.39 1.21 2.852 2.319 4.376 3.336l-7.757 31.529c-.989 4.022 1.469 8.085 5.491 9.075.603.148 1.204.219 1.798.219 3.371 0 6.436-2.29 7.277-5.71l7.057-28.684c6.067 1.876 12.516 2.901 18.959 3.335l2.559 30.217c.332 3.912 3.609 6.868 7.465 6.868.212 0 .427-.009.642-.027 4.128-.35 7.19-3.979 6.841-8.106l-2.447-28.888c11.113-.59 21.172-2.392 27.843-3.862.533 5.112.773 12.056-.637 18.385-1.616 6.702-27.702 32.465-51.767 53.07l-12.112.855c-8.805.622-16.49 5.819-20.534 13.331l-19.02-2.994c-4.086-.647-7.931 2.151-8.575 6.243s2.151 7.931 6.243 8.575l17.26 2.717-1.004 4.878h-17.3c-4.143 0-7.5 3.358-7.5 7.5s3.357 7.5 7.5 7.5h50.485c12.395-.063 24.581-3.905 34.297-11.691 0 0 18.608-19.322 18.608-19.322 7.43-2.643 38.994-13.762 72.658-24.041 5.231 4.262 16.539 12.889 33.251 22.582l-15.147 9.808h-24.449c-4.143 0-7.5 3.358-7.5 7.5s3.357 7.5 7.5 7.5h24.124l8.73 6.688-26.361 5.65c-4.05.868-6.629 4.855-5.761 8.905.754 3.521 3.865 5.93 7.325 5.93.521 0 1.05-.055 1.58-.168l42.076-9.019c.001 0 .003 0 .005-.001l67.946-12.936c33.828 4.021 85.142-9.784 99.94-37.012 5.14 2.146 12.873 4.107 24.003 4.107 8.337 0 18.579-1.101 31.049-4.048 19.388-4.583 34.37-17.218 42.187-35.578 11.085-26.032 6.562-60.429-12.098-92.008zm-469.156 20.751c-2.223-.2-4.162-1.682-4.94-3.773l-4.44-11.951c-.877-2.357-.149-4.998 1.812-6.574 2.627-2.114 6.304-5.019 10.795-8.429l11.147 32.017c-1.337-.119-12.74-1.143-14.374-1.29zm45.194 131.404h-17.871l1.967-9.552c.932-4.523 4.8-7.91 9.406-8.235l10.847-.766 12.951 14.801c-5.392 2.47-11.256 3.752-17.3 3.752zm203.158 3.92-31.727 6.041-12.542-9.609 14.916-9.658c8.761 4.474 18.567 8.979 29.353 13.226z"/></g></g><g/><g/><g/><g/><g/><g/><g/><g/><g/><g/><g/><g/><g/><g/><g/></svg>