<svg id="Capa_1" enable-background="new 0 0 512 512" height="512" viewBox="0 0 512 512" width="512" xmlns="http://www.w3.org/2000/svg"><g><g><g><g><path d="m504.5 159.235c0-59.73-37.361-109.049-85.727-116.519-4.181-.646-8.445.211-12.773.211-54.4 0-94.5 58.415-94.5 123.309l92.074 105.01c9.533 0 21.175 3.871 29.893.857 41.034-14.186 71.033-59.347 71.033-112.868z" fill="#ffc5c9"/><path d="m433.468 272.102c-8.396-43.251-34.88-80.841-71.078-106.122-2.313-1.615-3.926-4.068-4.449-6.84-9.585-50.843 20.715-108.89 60.833-116.425-.025-.004-.05-.008-.075-.012-2.49-.382-5.001-.601-7.517-.69l-3.537.026-2.027.152s-34.404.282-61.553 38.585c-6.273 13.664-18.553 57.191-18.553 57.191l12.085 42.736 46.638 44.754 21.765 51.278c9.533 0 18.749-1.619 27.468-4.633z" fill="#fcb5ba"/></g><g><path d="m345.681 180.128c-2.869-7.034-3.371-24.745-3.371-24.745-.071-.477-.143-.945-.205-1.405-7.118-52.651 26.765-110.745 69.076-111.964-12.439-.116-25.415-.939-47.589 11.142-40.03 21.528-51.534 62.404-54.808 87.201-.038.288-.074.575-.11.859 0 0 1.819 15.012 1.826 18.018.036 14.834 18.599 28.404 35.181 20.894z" fill="#f0e9e6"/><path d="m307.5 159.235c.036 14.833 25.684 31.18 42.266 23.67-2.865-7.025-6.344-20.073-7.456-27.522-10.664-5.734-21.928-10.494-33.636-14.166-1.074 8.503-1.181 15.012-1.174 18.018z" fill="#e5dcd8"/></g><g><path d="m7.5 159.235c0-59.73 37.361-109.049 85.727-116.519 4.181-.646 8.445.211 12.773.211 54.4 0 94.5 58.415 94.5 123.309l-92.074 105.01c-9.533 0-21.175 3.871-29.893.857-41.034-14.186-71.033-59.347-71.033-112.868z" fill="#ffc5c9"/><path d="m78.532 272.102c8.396-43.251 34.88-80.841 71.078-106.122 2.313-1.615 3.926-4.068 4.449-6.84 9.585-50.843-20.715-108.89-60.833-116.425.025-.004.05-.008.075-.012 2.49-.382 5.001-.601 7.518-.69l3.537.026 2.027.152s34.404.282 61.553 38.585c6.273 13.664 18.553 57.191 18.553 57.191l-12.085 42.736-46.638 44.754-21.766 51.278c-9.533 0-18.749-1.619-27.468-4.633z" fill="#fcb5ba"/></g><g><path d="m166.319 180.128c2.869-7.034 3.371-24.745 3.371-24.745.071-.477.143-.945.205-1.405 7.118-52.651-26.765-110.745-69.076-111.964 12.439-.116 25.415-.939 47.589 11.142 40.03 21.528 51.534 62.404 54.808 87.201.038.288.074.575.11.859 0 0-1.819 15.012-1.826 18.018-.036 14.834-18.599 28.404-35.181 20.894z" fill="#f0e9e6"/><path d="m204.5 159.235c-.036 14.833-25.684 31.18-42.266 23.67 2.865-7.025 6.344-20.073 7.456-27.522 10.664-5.734 21.928-10.494 33.636-14.166 1.074 8.503 1.181 15.012 1.174 18.018z" fill="#e5dcd8"/></g></g><g><path d="m419 302.308c0-84.5-76.283-153-163-153-33.544 0-65.525 10.253-92.135 27.714 0 0-63.865 43.67-63.865 125.286 0 64.98 133.933 155.972 133.933 155.972l2.658 5.646c.918.564 1.81 1.109 2.675 1.634 10.287 6.246 23.182 6.246 33.469 0 .865-.525 1.757-1.07 2.675-1.634l5.271-7.531 14.528-5.122c48.23-32.046 123.791-91.433 123.791-148.965z" fill="#f0e9e6"/><g fill="#e5dcd8"><path d="m349.501 410.542c-4.777-22.57-24.807-39.51-48.801-39.51-19.593 0-36.539 11.301-44.7 27.734-8.161-16.434-25.107-27.734-44.7-27.734-23.993 0-44.023 16.94-48.801 39.51 26.959 23.152 55.699 42.092 74.091 53.384 0 0 11.304-4.614 17.144-11.488 1.185-1.395 3.346-1.395 4.531 0 5.84 6.874 17.144 11.488 17.144 11.488 18.392-11.293 47.133-30.233 74.092-53.384z"/><path d="m212.768 430.619c-46.695-33.817-107.428-90.188-107.428-140.166 0-44.907 25.437-85.317 58.525-113.431-42.181 27.678-70.865 73.473-70.865 125.286 0 53.401 65.1 108.401 113.018 141.65z"/></g></g><path d="m300.7 356.031c-19.593 0-36.539 11.301-44.7 27.734-8.161-16.434-25.107-27.734-44.7-27.734-27.553 0-49.889 22.336-49.889 49.889s22.336 49.889 49.889 49.889c14.789 0 28.068-6.439 37.202-16.664l7.498-17.304 7.499 17.305c9.133 10.224 22.412 16.664 37.202 16.664 27.553 0 49.889-22.336 49.889-49.889-.001-27.553-22.337-49.89-49.89-49.89z" fill="#faf8f8"/><path d="m272.567 342.244h-33.129c-8.233-.081-15.2 5.148-18.124 12.212-1.767 4.267.941 9.202 2.736 14.042 4.158 16.183 14.725 25.979 31.953 25.746 17.33.219 27.819-9.685 31.953-25.746 1.76-4.84 4.491-9.785 2.741-14.059-2.865-6.995-9.701-12.195-18.13-12.195z" fill="#ffc5c9"/><path d="m256.009 382.244c-16.886.228-30.249-12.062-34.689-27.788-1.767 4.266-2.059 9.202-.264 14.042 4.158 16.183 17.725 28.979 34.953 28.746 17.33.219 30.819-12.685 34.953-28.746 1.76-4.84 1.491-9.784-.259-14.059-4.412 15.62-17.706 28.02-34.694 27.805z" fill="#fcb5ba"/></g><g><path d="m406 34.235c-28.259 0-54.831 12.932-74.82 36.412-17.72 20.815-28.457 47.849-30.725 76.95-14.233-3.761-29.145-5.789-44.455-5.789s-30.223 2.028-44.456 5.79c-2.266-29.084-12.992-56.104-30.695-76.917-19.993-23.503-46.575-36.446-74.849-36.446-58.449 0-106 56.075-106 125 0 60.934 36.855 112.312 86.896 122.982-.921 6.596-1.396 13.302-1.396 20.091 0 10.379 2.241 21.261 6.662 32.345 1.535 3.848 5.898 5.724 9.745 4.188 3.848-1.535 5.723-5.897 4.188-9.745-3.712-9.309-5.595-18.321-5.595-26.788 0-48.04 26.42-91.538 66.123-118.205 24.752-16.678 56.789-27.447 89.377-27.295 32.262.008 63.873 10.091 89.377 27.295 39.703 26.667 66.123 70.166 66.123 118.205 0 26.62-18.85 58.114-54.682 91.615-5.686-27.115-31.532-47.566-60.577-45.207-3.923-7.365-13.613-14.144-23.677-13.971h-33.129c-8.789.201-18.809 4.832-23.677 13.971-28.245-2.552-55.075 17.968-60.577 45.208-13.204-12.335-24.165-24.426-32.664-36.059-2.444-3.346-7.136-4.076-10.48-1.632-3.345 2.443-4.075 7.135-1.632 10.479 8.641 11.829 19.593 24.033 32.665 36.417l-35.868 7.652c-4.051.864-6.634 4.849-5.77 8.899.752 3.524 3.864 5.938 7.328 5.938.518 0 1.045-.055 1.572-.167l44.477-9.489c1.237 6.978 3.729 13.526 7.251 19.395l-47.929 28.437c-3.562 2.113-4.737 6.715-2.623 10.277 1.401 2.362 3.896 3.674 6.458 3.674 1.301 0 2.62-.339 3.82-1.051l49.709-29.493c10.327 9.961 24.358 16.107 39.806 16.107 3.082 0 6.115-.256 9.087-.725 5.001 3.224 10.029 6.378 14.986 9.387 6.362 3.862 13.494 5.794 20.627 5.794 7.132 0 14.266-1.932 20.627-5.794 4.959-3.011 9.988-6.165 14.986-9.387 2.972.469 6.005.725 9.087.725 15.448 0 29.479-6.146 39.806-16.107l49.709 29.493c1.201.712 2.519 1.051 3.82 1.051 2.561 0 5.056-1.312 6.458-3.674 2.114-3.562.939-8.164-2.623-10.277l-47.929-28.437c3.522-5.868 6.013-12.417 7.251-19.395l44.477 9.489c.528.112 1.054.167 1.572.167 3.463 0 6.576-2.414 7.328-5.938.864-4.051-1.719-8.035-5.77-8.899l-35.867-7.652c38.21-36.157 57.568-70.021 57.568-100.822 0-6.793-.476-13.504-1.398-20.104 22.232-4.779 42.704-17.89 58.279-37.497 2.577-3.243 2.036-7.961-1.208-10.537-3.242-2.577-7.961-2.037-10.538 1.207-13.323 16.771-30.664 27.969-49.381 32.076-9.509-38.67-34.368-72.528-67.948-95.323-10.531-28.256-5.842-65.047 11.969-92.391 12.188-18.71 28.528-29.746 44.867-30.325 47.794 3.236 85.857 51.254 85.857 109.822 0 16.754-3.041 32.84-9.039 47.812-1.54 3.845.328 8.211 4.173 9.751.915.366 1.858.54 2.787.54 2.975 0 5.791-1.782 6.964-4.713 6.711-16.754 10.114-34.716 10.114-53.39.001-68.925-47.55-125-105.999-125zm-316.262 233.249c-43.047-9.331-74.738-54.531-74.738-108.249 0-58.561 38.054-106.574 85.84-109.819 23.981.837 47.036 23.821 57.425 57.297.998 3.216 3.961 5.279 7.161 5.279.736 0 1.485-.109 2.226-.339 3.956-1.228 6.167-5.43 4.94-9.386-4.185-13.485-10.268-25.529-17.667-35.598 23.682 18.417 39.991 49.714 41.887 85.525-7.048 2.545-13.889 5.522-20.483 8.9 1.384-7.127 2.065-14.527 2.018-22.15-.025-4.127-3.378-7.454-7.499-7.454-.016 0-.031 0-.047 0-4.142.025-7.479 3.403-7.454 7.546.072 11.799-1.855 22.918-5.682 33.115-33.574 22.799-58.427 56.661-67.927 95.333zm149.698 82.261h33.129c3.992 0 7.594 1.875 9.884 5.145 2.29 3.269 2.82 7.295 1.457 11.045l-2.081 5.723c-3.934 10.818-14.312 18.088-25.824 18.088s-21.89-7.27-25.824-18.089l-2.081-5.722c-1.364-3.75-.833-7.776 1.457-11.045 2.289-3.27 5.891-5.145 9.883-5.145zm-54.392 89.417 22.017-13.063c3.562-2.113 4.737-6.715 2.623-10.277-2.113-3.562-6.715-4.736-10.277-2.623l-24.453 14.508c-2.7-4.487-4.588-9.513-5.471-14.875l17.443-3.721c4.051-.864 6.634-4.849 5.77-8.899s-4.844-6.632-8.9-5.771l-14.032 2.994c3.77-19.025 21.851-34.626 42.672-33.877-.181 2.354 2.326 10.029 3.642 13.224 5.212 14.334 17.743 24.63 32.421 27.283v22.122c-7.45 13.679-21.543 22.122-37.2 22.122-9.909 0-19.028-3.428-26.255-9.147zm83.798 19.987c-7.92 4.812-17.762 4.812-25.684 0-1.486-.902-2.979-1.818-4.476-2.744 6.627-3.59 12.522-8.478 17.318-14.462 4.796 5.983 10.691 10.872 17.318 14.461-1.497.926-2.99 1.843-4.476 2.745zm43.751-45.95c-3.563-2.112-8.164-.938-10.277 2.623-2.114 3.562-.939 8.164 2.623 10.277l22.017 13.063c-7.226 5.719-16.345 9.147-26.255 9.147-15.658 0-29.75-8.444-37.2-22.122v-22.122c14.678-2.653 27.209-12.949 32.421-27.282 1.724-4.957 2.985-7.031 3.642-13.225 20.299-.754 38.767 14.323 42.672 33.877l-14.032-2.994c-4.055-.866-8.036 1.72-8.9 5.771s1.719 8.035 5.77 8.899l17.443 3.721c-.883 5.361-2.771 10.387-5.471 14.875zm23.105-252.092c-6.602-3.384-13.452-6.365-20.509-8.914 1.897-35.813 18.217-67.116 41.908-85.534-1.159 1.582-2.291 3.209-3.389 4.894-17.341 26.621-23.743 59.999-18.01 89.554z"/><g><g><path d="m191 323.49c-4.142 0-7.5-3.357-7.5-7.5v-20c0-4.143 3.358-7.5 7.5-7.5s7.5 3.357 7.5 7.5v20c0 4.142-3.358 7.5-7.5 7.5z"/></g><g><path d="m321 323.49c-4.142 0-7.5-3.357-7.5-7.5v-20c0-4.143 3.358-7.5 7.5-7.5s7.5 3.357 7.5 7.5v20c0 4.142-3.358 7.5-7.5 7.5z"/></g></g></g></g></svg>