<svg id="Capa_1" enable-background="new 0 0 512 512" height="512" viewBox="0 0 512 512" width="512" xmlns="http://www.w3.org/2000/svg"><g><path d="m480 376.785v.003c0 3.983-3.229 7.211-7.211 7.211h-433.578c-3.983 0-7.211-3.229-7.211-7.211v-.004c0-13.687-11.097-24.784-24.785-24.784h-.004c-3.982 0-7.211-3.229-7.211-7.212v-177.58c0-3.983 3.229-7.211 7.211-7.211h.003c13.689 0 24.786-11.097 24.786-24.786 0-3.983 3.229-7.211 7.211-7.211h433.577c3.983 0 7.211 3.229 7.211 7.211 0 13.689 11.097 24.785 24.785 24.785h.003c3.983 0 7.211 3.229 7.211 7.211v177.581c0 3.983-3.229 7.211-7.211 7.211h-.003c-13.687.001-24.784 11.098-24.784 24.786z" fill="#8af9ba"/><path d="m64 376.789v-.004c0-13.688-11.097-24.785-24.785-24.785h-.004c-3.983 0-7.211-3.229-7.211-7.211v-177.58c0-3.983 3.229-7.211 7.211-7.211h.003c13.689-.001 24.786-11.098 24.786-24.787 0-3.983 3.229-7.211 7.211-7.211h-32c-3.983 0-7.211 3.229-7.211 7.211 0 13.688-11.097 24.785-24.785 24.785h-.004c-3.983 0-7.211 3.229-7.211 7.211v177.58c0 3.984 3.229 7.213 7.211 7.213h.004c13.688 0 24.785 11.097 24.785 24.785v.004c0 3.983 3.229 7.211 7.211 7.211h32c-3.982 0-7.211-3.229-7.211-7.211z" fill="#77eda6"/><path d="m440.789 288h-24.789l-16.804-10.302h-122.936l-20.26 10.302h-24.789c-3.983 0-7.211-3.229-7.211-7.211v-113.581c0-3.983 3.229-7.211 7.211-7.211h24.789l20.26 10.302h123.623l16.117-10.302h24.789c3.983 0 7.211 3.229 7.211 7.211v113.581c0 3.982-3.229 7.211-7.211 7.211z" fill="#f5fcff"/><path d="m256 159.997h160v128.003h-160z" fill="#ea4959"/><path d="m120.789 192.005h-.308c-13.628 0-24.645-11.104-24.538-24.732v-.005c.032-4.005-3.206-7.268-7.211-7.268h-17.52c-3.983 0-7.211 3.229-7.211 7.211v.255c0 13.552-10.986 24.538-24.538 24.538h-.25c-3.983 0-7.211 3.229-7.211 7.211v113.573c0 3.983 3.229 7.211 7.211 7.211h.25c13.551.001 24.537 10.987 24.537 24.539v.25c0 3.983 3.229 7.211 7.211 7.211h17.52c4.005 0 7.243-3.263 7.211-7.268-.107-13.627 10.911-24.731 24.538-24.731h.308c3.983 0 7.211-3.229 7.211-7.211v-113.573c.001-3.983-3.228-7.211-7.21-7.211z" fill="#f5fcff"/><g><path d="m448 327.726h-224c-4.267 0-7.726-3.459-7.726-7.726s3.459-7.726 7.726-7.726h224c4.268 0 7.726 3.459 7.726 7.726s-3.459 7.726-7.726 7.726z" fill="#f5fcff"/></g><g><path d="m448 359.726h-224c-4.267 0-7.726-3.459-7.726-7.726s3.459-7.726 7.726-7.726h224c4.268 0 7.726 3.459 7.726 7.726s-3.459 7.726-7.726 7.726z" fill="#f5fcff"/></g><g><g><g><path d="m167.73 128v32c0 4.26-3.46 7.72-7.73 7.72s-7.73-3.46-7.73-7.72v-32z" fill="#356487"/></g><g><path d="m160 231.727c-4.267 0-7.726-3.459-7.726-7.726v-32c0-4.267 3.459-7.726 7.726-7.726s7.726 3.459 7.726 7.726v32c.001 4.266-3.459 7.726-7.726 7.726z" fill="#356487"/></g><g><path d="m152.27 384v-32c0-4.27 3.46-7.73 7.73-7.73s7.73 3.46 7.73 7.73v32z" fill="#356487"/></g><g><path d="m160 327.726c-4.267 0-7.726-3.459-7.726-7.726v-32c0-4.267 3.459-7.726 7.726-7.726s7.726 3.459 7.726 7.726v32c.001 4.267-3.459 7.726-7.726 7.726z" fill="#356487"/></g><path d="m160 263.726c-4.267 0-7.726-3.459-7.726-7.726 0-4.267 3.459-7.726 7.726-7.726 4.267 0 7.726 3.459 7.726 7.726 0 4.267-3.459 7.726-7.726 7.726z" fill="#356487"/></g></g><path d="m331.211 199.474 27.789 18.526c4.282 2.854 4.282 9.146 0 12l-27.788 18.526c-4.792 3.195-11.211-.241-11.211-6v-37.051c-.001-5.76 6.418-9.196 11.21-6.001z" fill="#f5fcff"/></g></svg>