<svg id="Layer_1" viewBox="0 0 64 64" xmlns="http://www.w3.org/2000/svg" data-name="Layer 1"><path d="m31 35-19-20h-8c-1.1 0-2-.9-2-2 0-.55.22-1.05.59-1.41.36-.37.86-.59 1.41-.59h10l19.42 20.4" fill="#567189"/><path d="m42 21.28v-.28-3l8 .8v2.2.73" fill="#567189"/><path d="m50 34v-6l-8-.72v5.72z" fill="#9db2bf"/><path d="m31 49v-15.04c0-1.56 1.38-2.76 2.93-2.55l21.86 3.09c1.27.18 2.21 1.26 2.21 2.54v11.96z" fill="#ffe15d"/><path d="m53 49h-16l2-8h13z" fill="#9db2bf"/><circle cx="34" cy="48" fill="#213555" r="5"/><circle cx="57" cy="49" fill="#213555" r="4"/><path d="m55 28-18-1v-1.49c0-2.45 2.06-4.4 4.51-4.26l9.46.53c2.26.13 4.03 2 4.03 4.26z" fill="#f45050"/><path d="m59 44.42v-7.39c0-1.77-1.32-3.28-3.07-3.53l-4.93-.7v-4.03l3.94.22s.04 0 .06 0c.25 0 .5-.1.69-.27.2-.19.31-.45.31-.73v-1.96c0-2.8-2.19-5.11-4.98-5.26h-.02v-1.98c0-.51-.39-.94-.9-1l-8-.8c-.28-.02-.56.06-.77.25s-.33.46-.33.74v2.28c-1.25.06-2.43.53-3.35 1.41-1.06 1.01-1.65 2.37-1.65 3.83v1.49c0 .53.42.97.94 1l4.06.23v3.18l-6.93-.98c-.07 0-.14 0-.21 0l-19.14-20.11c-.19-.2-.45-.31-.72-.31h-10c-.81 0-1.57.32-2.11.87-.58.56-.89 1.32-.89 2.13 0 1.65 1.35 3 3 3h7.57l18.43 19.4v8.14c-1.22 1.1-2 2.69-2 4.46 0 3.31 2.69 6 6 6 2.61 0 4.82-1.67 5.65-4h12.45c.46 2.28 2.48 4 4.9 4 2.76 0 5-2.24 5-5 0-2.05-1.24-3.8-3-4.58zm-16.74-18.13.57-3.97 1.96.11-.57 3.97zm4.54-3.75 1.97.11-.57 3.97-1.96-.11.57-3.97zm7.21 3.49v.9l-3.81-.21.57-3.97h.15c1.73.1 3.09 1.54 3.09 3.27zm-5-6.33v.96l-6-.33v-1.23zm-11 5.81c0-.91.36-1.75 1.02-2.38.5-.47 1.12-.77 1.78-.86l-.56 3.9-2.25-.13v-.54zm5 2.82 6 .33v3.86l-6-.85v-3.35zm-31.01-14.33h-8c-.55 0-1-.45-1-1 0-.27.1-.51.31-.71.18-.18.43-.29.69-.29h9.57l18.07 18.98c-.14.09-.28.17-.41.28-.46.4-.79.92-.99 1.48l-17.52-18.43c-.19-.2-.45-.31-.72-.31zm20 19.96c0-.46.19-.88.54-1.19.35-.3.79-.44 1.25-.37l21.87 3.09c.77.11 1.34.77 1.34 1.55v6.96c-1.34 0-2.55.53-3.44 1.39l-.56-4.52c-.06-.5-.49-.88-.99-.88h-13c-.5 0-.92.37-.99.86l-.33 2.41c-1.02-.79-2.29-1.27-3.68-1.27-.7 0-1.37.13-2 .35v-8.39zm2 18.04c-2.21 0-4-1.79-4-4s1.79-4 4-4 4 1.79 4 4-1.79 4-4 4zm5.4-6.6.47-3.4h11.25l.75 6h-11.87c0-.93-.22-1.81-.6-2.6zm17.6 6.6c-1.65 0-3-1.35-3-3s1.35-3 3-3 3 1.35 3 3-1.35 3-3 3z"/></svg>