<svg id="Capa_1" enable-background="new 0 0 512 512" height="512" viewBox="0 0 512 512" width="512" xmlns="http://www.w3.org/2000/svg"><g><path d="m100.689 38.564h341.685v465.934h-341.685z" fill="#d8d8d8"/><path d="m349.187 473.436h-279.561v-465.934h341.685v403.809z" fill="#f7f7f7"/><path d="m69.626 7.502h20v465.934h-20z" fill="#e8e8e8"/><path d="m100.689 256h279.56v124.249h-279.56z" fill="#b3e59f"/><circle cx="209.407" cy="193.877" fill="#ed8945" r="15.531"/><circle cx="271.531" cy="178.346" fill="#ed8945" r="15.531"/><path d="m349.187 473.436v-62.125h62.124z" fill="#e8e8e8"/><g><path d="m442.37 31.06h-23.56v-23.56c0-4.143-3.357-7.5-7.5-7.5h-341.68c-4.143 0-7.5 3.357-7.5 7.5v84.65c0 4.143 3.357 7.5 7.5 7.5s7.5-3.357 7.5-7.5v-77.15h326.68v388.812h-54.623c-4.143 0-7.5 3.357-7.5 7.5v54.629h-115.937c-4.143 0-7.5 3.357-7.5 7.5s3.357 7.5 7.5 7.5h123.44c1.989 0 3.897-.79 5.304-2.197l62.121-62.128c1.386-1.386 2.194-3.347 2.194-5.306v-365.25h16.061v193.87c0 4.143 3.357 7.5 7.5 7.5s7.5-3.357 7.5-7.5v-201.37c0-4.143-3.357-7.5-7.5-7.5zm-85.683 387.752h36.517l-36.517 36.518z"/><path d="m442.37 265.11c-4.143 0-7.5 3.357-7.5 7.5v224.39h-326.68v-16.06h84.869c4.143 0 7.5-3.357 7.5-7.5s-3.357-7.5-7.5-7.5h-115.929v-341.11c0-4.143-3.357-7.5-7.5-7.5s-7.5 3.357-7.5 7.5v348.61c0 4.143 3.357 7.5 7.5 7.5h23.56v23.56c0 4.143 3.357 7.5 7.5 7.5h341.68c4.143 0 7.5-3.357 7.5-7.5v-231.89c0-4.142-3.357-7.5-7.5-7.5z"/><path d="m204.103 281.759-25.758 25.759-25.76-25.759c-5.585-5.259-12.803-2.196-12.803 5.304v62.124c0 4.143 3.357 7.5 7.5 7.5s7.5-3.357 7.5-7.5v-44.018l18.26 18.259c2.928 2.928 7.677 2.928 10.606 0l18.258-18.259v44.018c0 4.143 3.357 7.5 7.5 7.5s7.5-3.357 7.5-7.5v-62.124c0-10.563-9.656-9.063-12.803-5.304z"/><path d="m271.531 279.563h-31.063c-4.143 0-7.5 3.357-7.5 7.5v62.124c0 4.143 3.357 7.5 7.5 7.5s7.5-3.357 7.5-7.5v-23.563h23.563c4.143 0 7.5-3.357 7.5-7.5v-31.062c0-4.142-3.357-7.499-7.5-7.499zm-7.5 31.061h-16.063v-16.062h16.063z"/><path d="m333.655 279.563h-31.062c-4.143 0-7.5 3.357-7.5 7.5s3.357 7.5 7.5 7.5h23.562v16.062h-23.562c-4.143 0-7.5 3.357-7.5 7.5s3.357 7.5 7.5 7.5h23.562v16.063h-23.562c-4.143 0-7.5 3.357-7.5 7.5s3.357 7.5 7.5 7.5h31.062c4.143 0 7.5-3.357 7.5-7.5v-62.124c0-4.144-3.357-7.501-7.5-7.501z"/><path d="m294.563 100.688c-.74-5.456-3.846-7.882-9.319-7.276l-62.125 15.533c-3.339.835-5.681 3.835-5.681 7.276v56.072c-13.574-5.067-31.062 3.04-31.062 21.584 0 12.699 10.331 23.031 23.03 23.031s23.031-10.332 23.031-23.031v-71.8l47.125-11.782v46.468c-13.573-5.067-31.063 6.646-31.063 21.583 0 12.699 10.332 23.031 23.031 23.031s23.031-10.332 23.031-23.031c0 0 0 0 0-.001v-77.657zm-85.157 101.22c-4.428 0-8.03-3.603-8.03-8.031s3.603-8.031 8.03-8.031c4.429 0 8.031 3.603 8.031 8.031s-3.602 8.031-8.031 8.031zm62.125-15.531c-4.429 0-8.031-3.603-8.031-8.031s3.603-8.03 8.031-8.03 8.031 3.603 8.031 8.03c.001 4.428-3.602 8.031-8.031 8.031z"/><path d="m93.188 256v124.249c0 4.143 3.357 7.5 7.5 7.5h279.561c4.143 0 7.5-3.357 7.5-7.5v-124.249c0-4.143-3.357-7.5-7.5-7.5h-279.561c-4.142 0-7.5 3.357-7.5 7.5zm15 7.5h264.561v109.249h-264.561z"/></g></g></svg>