<svg id="Capa_1" enable-background="new 0 0 512 512" height="512" viewBox="0 0 512 512" width="512" xmlns="http://www.w3.org/2000/svg"><g><g><g><path d="m69.241 214.943h58.985v197.571h-58.985z" fill="#ffdfcf"/><path d="m105.838 214.943h22.389v197.571h-22.389z" fill="#ffcebf"/><path d="m132.225 412.514h-66.982c-4.196 0-7.597 3.401-7.597 7.597v23.617h82.175v-23.617c.001-4.196-3.4-7.597-7.596-7.597z" fill="#fccd7f"/><path d="m132.225 412.514h-23.299c4.196 0 7.597 3.401 7.597 7.597v23.617h23.299v-23.617c0-4.196-3.401-7.597-7.597-7.597z" fill="#f0b95f"/><path d="m69.241 183.73h58.985v31.213h-58.985z" fill="#9dc9eb"/><path d="m105.838 183.73h22.389v31.213h-22.389z" fill="#7ebae6"/><path d="m52.991 183.73h16.25v31.482c0 8.864-7.185 16.049-16.049 16.049h-.201c-8.864 0-16.049-7.186-16.049-16.049v-15.433c0-8.863 7.186-16.049 16.049-16.049z" fill="#ffcebf"/><path d="m144.477 183.73h-16.25v31.482c0 8.864 7.186 16.049 16.049 16.049h.201c8.864 0 16.049-7.186 16.049-16.049v-15.433c0-8.863-7.186-16.049-16.049-16.049z" fill="#ffb09e"/></g><g><path d="m226.653 214.943h58.985v197.571h-58.985z" fill="#ffdfcf"/><path d="m263.25 214.943h22.389v197.571h-22.389z" fill="#ffcebf"/><path d="m289.637 412.514h-66.982c-4.196 0-7.597 3.401-7.597 7.597v23.617h82.175v-23.617c.001-4.196-3.401-7.597-7.596-7.597z" fill="#fccd7f"/><path d="m289.637 412.514h-23.299c4.196 0 7.597 3.401 7.597 7.597v23.617h23.299v-23.617c0-4.196-3.401-7.597-7.597-7.597z" fill="#f0b95f"/><path d="m226.653 183.73h58.985v31.213h-58.985z" fill="#9dc9eb"/><path d="m263.25 183.735h22.39v31.21h-22.39z" fill="#7ebae6"/><path d="m210.403 183.73h16.25v31.482c0 8.864-7.186 16.049-16.049 16.049h-.201c-8.864 0-16.049-7.186-16.049-16.049v-15.433c0-8.863 7.185-16.049 16.049-16.049z" fill="#ffcebf"/><path d="m301.889 183.73h-16.25v31.482c0 8.864 7.185 16.049 16.049 16.049h.201c8.864 0 16.049-7.186 16.049-16.049v-15.433c0-8.863-7.186-16.049-16.049-16.049z" fill="#ffb09e"/></g><g><path d="m384.065 214.943h58.985v197.571h-58.985z" fill="#ffdfcf"/><path d="m420.662 214.943h22.389v197.571h-22.389z" fill="#ffcebf"/><path d="m447.049 412.514h-66.982c-4.196 0-7.597 3.401-7.597 7.597v23.617h82.175v-23.617c0-4.196-3.401-7.597-7.596-7.597z" fill="#fccd7f"/><path d="m447.049 412.514h-23.299c4.196 0 7.597 3.401 7.597 7.597v23.617h23.299v-23.617c0-4.196-3.402-7.597-7.597-7.597z" fill="#f0b95f"/><path d="m384.065 183.73h58.985v31.213h-58.985z" fill="#9dc9eb"/><path d="m420.662 183.73h22.389v31.213h-22.389z" fill="#7ebae6"/><path d="m367.815 183.73h16.25v31.482c0 8.864-7.185 16.049-16.049 16.049h-.201c-8.864 0-16.049-7.186-16.049-16.049v-15.433c0-8.863 7.185-16.049 16.049-16.049z" fill="#ffcebf"/><path d="m459.3 183.73h-16.25v31.482c0 8.864 7.186 16.049 16.049 16.049h.201c8.864 0 16.049-7.186 16.049-16.049v-15.433c.001-8.863-7.185-16.049-16.049-16.049z" fill="#ffb09e"/></g><path d="m480.236 472.968h-448.517v-19.83c0-5.197 4.213-9.41 9.41-9.41h429.696c5.197 0 9.41 4.213 9.41 9.41v19.83z" fill="#ffcebf"/><path d="m470.826 443.727h-23.299c5.197 0 9.41 4.213 9.41 9.41v19.83h23.299v-19.83c0-5.196-4.213-9.41-9.41-9.41z" fill="#ffb09e"/><path d="m496.574 472.968h-481.15c-4.375 0-7.922 3.547-7.922 7.922v14.325c0 4.375 3.547 7.922 7.922 7.922h481.15c4.375 0 7.922-3.547 7.922-7.922v-14.325c0-4.375-3.546-7.922-7.922-7.922z" fill="#ffdfcf"/><path d="m496.574 472.968h-23.299c4.375 0 7.922 3.547 7.922 7.922v14.325c0 4.375-3.547 7.922-7.922 7.922h23.299c4.375 0 7.922-3.547 7.922-7.922v-14.325c0-4.375-3.547-7.922-7.922-7.922z" fill="#ffcebf"/><path d="m480.24 154.485v14.13c0 8.35-6.77 15.12-15.11 15.12h-418.3c-8.35 0-15.11-6.77-15.11-15.12v-14.13z" fill="#ffcebf"/><path d="m283.06 154.485c-10.1 17.4-28.94 29.11-50.51 29.11-21.58 0-40.41-11.71-50.51-29.11z" fill="#ffb09e"/><path d="m456.937 154.49v14.13c0 8.345-6.765 15.11-15.11 15.11h23.299c8.345 0 15.11-6.765 15.11-15.11v-14.13z" fill="#ffb09e"/><path d="m504.5 124.315v19.81c0 5.73-4.64 10.36-10.36 10.36h-476.28c-5.72 0-10.36-4.63-10.36-10.36v-19.81z" fill="#ffdfcf"/><path d="m290.9 125.245c0 10.66-2.85 20.64-7.84 29.24h-101.02c-4.99-8.6-7.84-18.58-7.84-29.24 0-.31 0-.62.01-.93h116.68c.01.31.01.62.01.93z" fill="#ffcebf"/><path d="m481.197 124.32v19.809c0 5.722-4.638 10.36-10.36 10.36h23.299c5.722 0 10.36-4.638 10.36-10.36v-19.809z" fill="#ffcebf"/><path d="m504.5 110.095v14.229h-497v-14.23c0-9.22 5.694-17.483 14.311-20.765l189.758-72.282c28.608-10.898 60.214-10.898 88.812-.01l189.807 72.293c8.617 3.282 14.312 11.544 14.312 20.765z" fill="#ffdfcf"/><path d="m490.188 89.33-189.807-72.293c-17.989-6.849-37.168-9.386-56.042-7.616 11.124 1.043 22.141 3.579 32.743 7.616l189.807 72.293c8.617 3.282 14.312 11.544 14.312 20.765v14.229h23.299v-14.229c0-9.221-5.695-17.483-14.312-20.765z" fill="#ffcebf"/><path d="m504.5 124.325h-497l204.07-75.92c28.61-10.89 60.21-10.89 88.81 0z" fill="#a3847e"/><path d="m290.89 124.325h-116.68c.49-31.8 26.42-57.43 58.34-57.43 31.91 0 57.85 25.63 58.34 57.43z" fill="#8e746e"/><path d="m300.381 48.402c-19.641-7.478-40.701-9.819-61.234-7.025 9.363 1.274 18.615 3.615 27.571 7.025l204.119 75.922h33.663z" fill="#8e746e"/><circle cx="255.845" cy="125.248" fill="#fccd7f" r="58.349"/><path d="m255.845 66.899c-3.99 0-7.885.403-11.65 1.166 26.643 5.399 46.7 28.948 46.7 57.183 0 28.236-20.057 51.785-46.7 57.184 3.765.763 7.66 1.166 11.65 1.166 32.225 0 58.349-26.124 58.349-58.349.001-32.226-26.123-58.35-58.349-58.35z" fill="#f0b95f"/></g><g><path d="m492.858 82.32-189.808-72.292c-30.357-11.559-63.794-11.555-94.151.01l-189.758 72.282c-11.449 4.362-19.141 15.523-19.141 27.774v34.031c0 9.849 8.012 17.86 17.86 17.86h6.359v6.635c0 7.429 3.603 14.031 9.151 18.155-2.48 3.729-3.929 8.2-3.929 13.004v15.433c0 12.985 10.563 23.55 23.549 23.55h.201c3.015 0 5.897-.576 8.549-1.613v168.292c-6.638 1.586-11.595 7.553-11.595 14.67v16.117h-9.015c-9.324 0-16.91 7.586-16.91 16.91v12.33h-8.796c-8.504 0-15.422 6.918-15.422 15.422v14.325c0 8.504 6.918 15.423 15.422 15.423h481.15c8.504 0 15.422-6.919 15.422-15.423v-14.325c0-8.504-6.918-15.422-15.422-15.422h-8.838v-12.33c0-9.324-7.586-16.91-16.91-16.91h-8.681v-16.118c0-7.117-4.957-13.085-11.596-14.67v-144.617c0-4.143-3.357-7.5-7.5-7.5s-7.5 3.357-7.5 7.5v144.19h-14.492v-182.57h15.633c3.059 9.458 11.946 16.318 22.409 16.318h.201c12.984 0 23.549-10.564 23.549-23.55v-15.433c0-4.877-1.491-9.413-4.04-13.176 5.421-4.134 8.927-10.656 8.927-17.983v-6.635h6.403c9.849 0 17.86-8.012 17.86-17.86v-34.03c.001-12.251-7.691-23.412-19.141-27.774zm-57.308 108.91v16.214h-43.984v-16.214zm-58.985 23.713v.269c0 4.715-3.835 8.55-8.55 8.55h-.2c-4.715 0-8.55-3.835-8.55-8.55v-15.433c0-4.715 3.835-8.55 8.55-8.55h8.75zm-8.75 23.819h.2c3.016 0 5.897-.576 8.55-1.613v168.291c-6.639 1.585-11.596 7.553-11.596 14.67v16.117h-60.236v-16.117c0-7.117-4.956-13.084-11.595-14.67v-168.291c2.652 1.037 5.534 1.613 8.549 1.613h.201c12.985 0 23.549-10.564 23.549-23.55v-15.433c0-3.016-.576-5.897-1.613-8.55h22.055c-1.037 2.652-1.613 5.534-1.613 8.55v15.433c0 12.985 10.564 23.55 23.549 23.55zm-220.494 197.466v-16.118c0-7.117-4.956-13.084-11.595-14.67v-168.291c2.652 1.037 5.534 1.613 8.549 1.613h.201c12.985 0 23.55-10.564 23.55-23.55v-15.433c0-3.016-.576-5.897-1.613-8.55h22.054c-1.037 2.652-1.613 5.534-1.613 8.55v15.433c0 12.985 10.564 23.55 23.55 23.55h.201c3.015 0 5.897-.576 8.549-1.613v168.292c-6.638 1.586-11.595 7.553-11.595 14.67v16.117zm-70.58-31.214v-182.57h14.493v182.57zm43.986-213.784v16.214h-43.986v-16.214zm23.75 0c4.715 0 8.55 3.835 8.55 8.55v15.433c0 4.715-3.835 8.55-8.55 8.55h-.201c-4.714 0-8.549-3.835-8.549-8.55v-.269-23.714zm-38.243 31.213h14.492v182.57h-14.492zm149.912 132.68c-4.143 0-7.5 3.357-7.5 7.5v42.391h-14.492v-182.57h14.492v104.617c0 4.143 3.357 7.5 7.5 7.5s7.5-3.357 7.5-7.5v-104.618h14.493v182.57h-14.493v-42.391c0-4.141-3.358-7.499-7.5-7.499zm21.993-147.68h-43.985v-16.213h43.985zm-58.986 7.5v.269c0 4.715-3.835 8.55-8.549 8.55h-.201c-4.715 0-8.55-3.835-8.55-8.55v-15.433c0-4.715 3.835-8.55 8.55-8.55h8.75zm3.406 205.167c0-.054.043-.097.097-.097h66.981c.054 0 .097.043.097.097v16.117h-67.175zm87.879-220.331v15.433c0 4.715-3.835 8.55-8.549 8.55h-.201c-4.714 0-8.549-3.835-8.549-8.55v-.269-23.713h8.75c4.714 0 8.549 3.835 8.549 8.549zm-54.592-23.681c-28.038 0-50.85-22.812-50.85-50.85s22.812-50.85 50.85-50.85 50.849 22.812 50.849 50.85-22.811 50.85-50.849 50.85zm65.29-59.283c-4.156-32.338-31.84-57.416-65.29-57.416-33.451 0-61.135 25.078-65.291 57.416h-141.355l165.039-61.399c26.918-10.246 56.563-10.248 83.527.02l165.025 61.38h-141.655zm-296.656-20.477 189.758-72.282c26.916-10.252 56.561-10.256 83.473-.01l189.808 72.292c6.239 2.161 10.377 9.978 9.481 17.197l-193.951-72.138c-30.351-11.559-63.786-11.558-94.094-.021l-193.955 72.158v-3.44c0-6.068 3.81-11.596 9.48-13.756zm143.944 65.647c4.143 0 7.5-3.357 7.5-7.5s-3.357-7.5-7.5-7.5h-150.564c-1.577 0-2.86-1.283-2.86-2.86v-12.3h175.326c1.779 17.853 10.718 33.625 23.896 44.404h-167.392c-4.196 0-7.61-3.414-7.61-7.609v-6.635zm-115.232 61.777h-.201c-4.714 0-8.549-3.835-8.549-8.55v-15.433c0-4.715 3.835-8.55 8.549-8.55h8.75v23.714.269c0 4.715-3.835 8.55-8.549 8.55zm11.954 196.348c0-.054.043-.097.097-.097h66.981c.054 0 .097.043.097.097v16.117h-67.175zm431.85 60.78v14.325c0 .233-.189.423-.422.423h-481.15c-.232 0-.422-.189-.422-.423v-14.325c0-.232.189-.422.422-.422h481.15c.233 0 .422.189.422.422zm-24.26-27.752v12.33h-433.516v-12.33c0-1.054.856-1.91 1.91-1.91h429.696c1.054 0 1.91.856 1.91 1.91zm-25.687-33.124c.054 0 .097.043.097.097v16.117h-67.176v-16.118c0-.054.043-.097.097-.097h66.982zm-40.991-15h-14.492v-182.57h14.492zm61.792-189.802c0 4.715-3.835 8.55-8.549 8.55h-.201c-4.715 0-8.55-3.835-8.55-8.55v-.269-23.713h8.751c4.714 0 8.549 3.835 8.549 8.55zm4.886-46.592c0 4.195-3.414 7.609-7.61 7.609h-167.657c4.994-4.085 9.382-8.883 12.999-14.244h162.269v6.635zm21.404-21.635h-176.149c1.693-4.825 2.85-9.9 3.374-15.16h175.635v12.3c0 1.577-1.283 2.86-2.86 2.86z"/><path d="m278.013 98.736c-.767-3.765-3.981-6.545-7.817-6.761-3.851-.216-7.341 2.186-8.524 5.84-.027.085-.054.17-.078.255l-5.57 19.541-5.787-19.613c-.026-.088-.054-.176-.083-.263-1.221-3.643-4.722-6.018-8.584-5.752-3.833.255-7.019 3.068-7.764 6.93l-7.484 41.47c-.735 4.076 1.973 7.978 6.049 8.713 4.072.729 7.978-1.972 8.713-6.049l2.583-14.313 4.36 14.779c.026.089.054.177.083.264 1.159 3.456 4.379 5.77 8.021 5.77h.043c3.66-.019 6.877-2.369 8.007-5.851.028-.085.054-.172.079-.258l4.206-14.757 2.761 14.441c.778 4.069 4.714 6.738 8.774 5.958 4.068-.777 6.736-4.705 5.958-8.774z"/></g></g></svg>