<svg viewBox="0 0 64 64" xmlns="http://www.w3.org/2000/svg"><g id="Mushroom"><path d="m23 54 5-25h8l5 25z" fill="#f7dbad"/><path d="m10 53 .23828-1.669a20.17387 20.17387 0 0 0 -1.23779-10.331l3.99951-1a18.33658 18.33658 0 0 1 3.55225 8.96924l.44775 4.03076z" fill="#f7dbad"/><path d="m43 55 2-10h4l2 10z" fill="#f7dbad"/><path d="m32 31.14063a114.11144 114.11144 0 0 1 -20.35791-1.8418 1.9999 1.9999 0 0 1 -1.64209-1.96778 11.76469 11.76469 0 0 1 1.74561-6.168 62.5401 62.5401 0 0 1 15.80127-17.32321l.853-.64013a6.19446 6.19446 0 0 1 7.2002.00049l.85351.63964a62.54588 62.54588 0 0 1 15.8008 17.32325 11.76469 11.76469 0 0 1 1.74561 6.16796 1.9999 1.9999 0 0 1 -1.64209 1.96778 114.10735 114.10735 0 0 1 -20.35791 1.8418z" fill="#f76c61"/><path d="m1 62v-2c0-4.9624 9.86914-9 22-9 6.83887 0 13.1709 1.26855 17.37158 3.481l.31446.16552.34863-.06982a30.31068 30.31068 0 0 1 5.96533-.5767c8.82227 0 16 3.58887 16 8z" fill="#d3a08d"/><path d="m37.02 45c-.01025-.17285-.02-.33154-.02-.5 0-4.50879 6.86133-10.5 10-10.5s10 5.99121 10 10.5c0 .169-.00977.32764-.01953.49561l-.00047.00439z" fill="#f76c61"/><path d="m4.88135 45.50439c-.05518-.12841-.10791-.24853-.15576-.3789-1.26954-3.46192 2.1958-9.95508 4.55273-10.81983a3.14157 3.14157 0 0 1 1.04981-.148c2.917 0 8.27636 2.34375 9.41894 5.4585.04834.12988.08545.2544.125.38525l-14.98926 5.50347z" fill="#f76c61"/><path d="m20 18a8.97246 8.97246 0 0 1 -5.03076-1.55176 62.56192 62.56192 0 0 1 12.45849-12.51855 8.99091 8.99091 0 0 1 -7.42773 14.07031z" fill="#f7dbad"/><path d="m49 25a7.00787 7.00787 0 0 1 -7-7 6.92171 6.92171 0 0 1 2.7373-5.54785 6.64048 6.64048 0 0 1 .65723-.44043 62.89017 62.89017 0 0 1 6.85986 9.15137 11.76291 11.76291 0 0 1 1.08887 2.29785 6.85357 6.85357 0 0 1 -4.34326 1.53906z" fill="#f7dbad"/><circle cx="32" cy="22" fill="#f7dbad" r="4"/><g fill="#38342b"><path d="m51.69214 53.34265-1.4718-7.34265h6.75966a1.00476 1.00476 0 0 0 .99854-.94482c.01121-.18848.02146-.36618.02146-.55518 0-5.17529-7.36426-11.5-11-11.5-2.17365 0-5.67169 2.26611-8.14032 5.19025l-1.23828-6.19257a115.01805 115.01805 0 0 0 14.91571-1.715 2.99935 2.99935 0 0 0 2.46289-2.95163 12.75853 12.75853 0 0 0 -.68762-4.11755l-.00647-.02008-.0091-.02856-.00286-.01545-.00971-.02362a12.75445 12.75445 0 0 0 -.49237-1.20019c-.02893-.06207-.05865-.12274-.08844-.18408-.18274-.375-.3775-.74482-.59747-1.10236a63.53861 63.53861 0 0 0 -16.05274-17.59961l-.853-.63916a7.19216 7.19216 0 0 0 -8.4004-.00049l-.853.64014c-.03839.02881-.07447.05994-.1128.08881l-.00634.003c-.1341.10125-.26294.21148-.39637.3139a63.62733 63.62733 0 0 0 -8.74688 8.099q-.5538.62136-1.08136 1.24322-.44111.51975-.87171 1.04828-.5212.64124-1.01 1.27814a64.107 64.107 0 0 0 -3.82736 5.52477 12.76294 12.76294 0 0 0 -1.894 6.69189 2.99932 2.99932 0 0 0 2.46338 2.95166 115.00827 115.00827 0 0 0 14.91553 1.715l-3.59711 18.00461c-1.75263.00677-3.45105.0957-5.0799.25684l-.1579-1.39881a19.21928 19.21928 0 0 0 -1.82447-6.26593l4.49781-1.65008a1.00391 1.00391 0 0 0 .6123-1.231c-.04541-.15088-.08887-.29346-.14355-.4419-1.48682-4.05127-8.96534-6.93115-11.75245-5.90478-2.79253 1.02494-6.63237 8.05234-5.14653 12.10453.05469.14844.11426.28613.17871.43408a1.00048 1.00048 0 0 0 1.26074.53858l3.8982-1.43012a19.16682 19.16682 0 0 1 .31518 3.4765 18.6307 18.6307 0 0 1 -.18945 2.69825l-.11139.77881c-5.58405 1.80804-9.1391 4.70654-9.1391 8.03271a1 1 0 0 0 2 0c0-2.32819 3.08051-4.74927 8.26538-6.31085a.978.978 0 0 0 .18372-.057 39.16715 39.16715 0 0 1 6.424-1.27539c.01965-.001.03924-.001.059-.00329l.01373-.0044a52.15829 52.15829 0 0 1 6.05417-.34907c.19153 0 .38153.00482.57245.0069.00946.00024.01916.00287.02862.00287l.01337-.00232a42.02531 42.02531 0 0 1 14.18048 2.40423 15.83982 15.83982 0 0 0 -5.3081 2.832.99976.99976 0 0 0 1.30761 1.5127c2.68116-2.31693 7.74121-3.75638 13.20557-3.75638 8.13086 0 15 3.20557 15 7a1 1 0 0 0 2 0c0-4.18066-5.13043-7.603-12.30786-8.65735zm-4.69214-18.34265c2.313 0 8.479 4.96289 8.96875 9h-17.9375c.48975-4.03711 6.65575-9 8.96875-9zm-3.22 11-1.47046 7.34406c-.13812.02026-.27032.048-.407.07l-1.48262-7.41406zm7.92529-22.65381a5.76313 5.76313 0 0 1 -.55163.24744c-.10382.04-.20789.07886-.314.11285a5.863 5.863 0 0 1 -.61389.15674c-.09637.01971-.191.04492-.28876.05994a6.16557 6.16557 0 0 1 -.93701.07684 6.00657 6.00657 0 0 1 -6-6 6.14513 6.14513 0 0 1 .04718-.73926c.0097-.08.02716-.15771.03992-.23688.02612-.16174.05468-.32263.0935-.48022.02234-.09064.05042-.179.07685-.26813.04223-.14239.0877-.28338.14019-.42151.03424-.09008.07154-.17865.11-.26678.058-.13275.12134-.26294.1889-.39081.04468-.08453.08966-.16888.13837-.2511.076-.12823.1593-.252.245-.37433.05151-.07348.10058-.14837.15545-.21954.1034-.134.21613-.261.33124-.38623.04755-.0517.09052-.10681.13995-.15692a5.9693 5.9693 0 0 1 .52069-.46826c.06708.07647.13361.15344.20032.23028.47638.54938.94586 1.10492 1.40277 1.67041.08667.10724.17066.21674.2566.32465.46441.58252.92138 1.17078 1.36425 1.76868.0951.12872.18573.261.27985.3905.42328.58087.84173 1.165 1.24377 1.75885.20026.29669.38959.60211.585.90271.28229.433.57044.86291.84107 1.30188a10.38321 10.38321 0 0 1 .72156 1.39874l.00573.016c-.04608.02869-.08844.064-.13519.09131-.09392.05486-.19109.10277-.28765.15215zm-32.78641-6.42645c-.10913-.01483-.21643-.03766-.32464-.057-.25183-.045-.50092-.10083-.7464-.16961-.11408-.032-.22784-.06458-.34033-.10163a7.88709 7.88709 0 0 1 -.76544-.29968c-.07886-.0354-.16016-.06433-.23792-.10242-.0199-.00976-.038-.0235-.05786-.03338.12134-.15625.245-.31043.3678-.4654.85608-1.08117 1.76977-2.171 2.75329-3.25561q1.6833-1.837 3.50336-3.52985c.06409-.05975.12592-.12164.19031-.18109.47522-.43976.96155-.86487 1.44867-1.28863.22308-.19355.44384-.38941.66992-.5799.397-.33557.80054-.661 1.20465-.98559.18622-.14917.37482-.2959.563-.44312.00928.01831.022.035.03106.05334.03919.07941.06916.16254.1056.24305a7.863 7.863 0 0 1 .30194.76519c.03778.1139.071.22907.10363.34461.0694.24615.12574.496.17115.74872.01971.10956.043.21814.0581.32873a7.95344 7.95344 0 0 1 -8.99988 9.00922zm-7.91888 10.41131a10.7666 10.7666 0 0 1 1.59717-5.644c.8302-1.349 1.72015-2.65051 2.64392-3.92364a9.89887 9.89887 0 0 0 4.75891 1.23659 10.01114 10.01114 0 0 0 10-10 9.891 9.891 0 0 0 -1.26129-4.80389l.26129-.19611a4.999 4.999 0 0 1 6 .00049l.853.63916a61.77093 61.77093 0 0 1 8.03589 7.21844 7.89962 7.89962 0 0 0 -2.88889 6.14191 8.00917 8.00917 0 0 0 8 8 7.88372 7.88372 0 0 0 3.73413-.93054 10.73821 10.73821 0 0 1 .26587 2.26159 1.00039 1.00039 0 0 1 -.8208.98389 112.41526 112.41526 0 0 1 -40.35791 0 1.00035 1.00035 0 0 1 -.82129-.98389zm21 4.80958c1.19934 0 2.39862-.02588 3.59778-.06373l1.66922 8.34742a8.36164 8.36164 0 0 0 -1.267 4.07568c0 .189.01025.3667.022.56006a.99972.99972 0 0 0 .998.93994h1.36041l1.41962 7.09869a40.21277 40.21277 0 0 0 -14.98724-3.05548l3.58949-17.96631c1.1991.03785 2.39832.06373 3.59772.06373zm-22.37793 3.104a2.30566 2.30566 0 0 1 .77441-.10986c2.21 0 6.75 1.82568 8.15967 4.28857l-13.04638 4.78613c-.58936-3.18017 2.45703-8.35742 4.1123-8.96484zm1.398 9.07379 2.81293-1.03192a17.23625 17.23625 0 0 1 1.7232 5.796l.15973 1.41351a41.97677 41.97677 0 0 0 -4.47449.8692 20.64417 20.64417 0 0 0 .19855-2.875 21.11063 21.11063 0 0 0 -.41991-4.17179zm33.37555 8.79321 1.4239-7.11163h2.361l1.42554 7.112c-.8502-.06671-1.71537-.112-2.60606-.112-.88477 0-1.75067.04462-2.60437.11163z"/><path d="m37 22a5 5 0 1 0 -5 5 5.00588 5.00588 0 0 0 5-5zm-5 3a3 3 0 1 1 3-3 3.00328 3.00328 0 0 1 -3 3z"/><circle cx="17" cy="60" r="1"/><circle cx="52" cy="60" r="1"/><circle cx="26" cy="55" r="1"/><circle cx="44" cy="59" r="1"/></g></g></svg>