<svg id="Layer_1" viewBox="0 0 96 96" xmlns="http://www.w3.org/2000/svg" data-name="Layer 1"><path d="m87.64 28.91s-.04-.08-.06-.12c-3.63-7.43-9.28-13.69-16.25-18.07-.07-.06-.15-.12-.24-.15-6.72-4.16-14.63-6.57-23.09-6.57s-16.37 2.41-23.09 6.57c-.09.03-.17.09-.25.15-6.96 4.38-12.61 10.64-16.24 18.07-.02.04-.04.08-.06.12-2.79 5.78-4.36 12.25-4.36 19.09 0 6.18 1.25 10.06 3.93 12.2 4.12 3.28 10.76 1.77 19.16-.15 3.27-.75 6.77-1.54 10.45-2.14l-1.54 30.09c0 2.21 1.79 4 4 4h16c2.21 0 4-1.79 4-4.05l-1.54-30.04c3.68.6 7.18 1.39 10.45 2.14 4.83 1.1 9.08 2.07 12.6 2.07 2.6 0 4.81-.53 6.56-1.92 2.68-2.14 3.93-6.02 3.93-12.2 0-6.84-1.57-13.31-4.36-19.09zm-16.88-16.18c6.24 4.04 11.33 9.68 14.71 16.33-2.04 1.89-4.66 2.94-7.47 2.94-6.07 0-11-4.93-11-11 0-3.21 1.37-6.18 3.76-8.27zm-45.52 0c2.39 2.09 3.76 5.06 3.76 8.27 0 6.07-4.93 11-11 11-2.81 0-5.43-1.05-7.47-2.94 3.38-6.65 8.47-12.29 14.71-16.33zm30.76 77.27h-16c-1.1 0-2-.9-2-1.95l1.56-30.44c2.73-.37 5.55-.61 8.44-.61s5.71.24 8.44.61l1.56 30.39c0 1.1-.9 2-2 2zm30.82-31.37c-3.37 2.69-9.59 1.27-17.47-.53-6.35-1.45-13.56-3.1-21.35-3.1s-15 1.65-21.35 3.1c-7.88 1.8-14.1 3.22-17.47.53-2.14-1.7-3.18-5.18-3.18-10.63 0-6.07 1.3-11.84 3.63-17.05 2.34 1.97 5.26 3.05 8.37 3.05 7.17 0 13-5.83 13-13 0-3.59-1.43-6.93-3.98-9.36 6.18-3.58 13.34-5.64 20.98-5.64s14.8 2.06 20.98 5.64c-2.55 2.43-3.98 5.77-3.98 9.36 0 7.17 5.83 13 13 13 3.11 0 6.03-1.08 8.37-3.05 2.33 5.21 3.63 10.98 3.63 17.05 0 5.45-1.04 8.93-3.18 10.63z"/><path d="m29 21c0 6.07-4.93 11-11 11-2.81 0-5.43-1.05-7.47-2.94 3.38-6.65 8.47-12.29 14.71-16.33 2.39 2.09 3.76 5.06 3.76 8.27z" fill="#ffe0b2"/><path d="m85.47 29.06c-2.04 1.89-4.66 2.94-7.47 2.94-6.07 0-11-4.93-11-11 0-3.21 1.37-6.18 3.76-8.27 6.24 4.04 11.33 9.68 14.71 16.33z" fill="#ffe0b2"/><path d="m86.37 30.95c-2.34 1.97-5.26 3.05-8.37 3.05-7.17 0-13-5.83-13-13 0-3.59 1.43-6.93 3.98-9.36-6.18-3.58-13.34-5.64-20.98-5.64s-14.8 2.06-20.98 5.64c2.55 2.43 3.98 5.77 3.98 9.36 0 7.17-5.83 13-13 13-3.11 0-6.03-1.08-8.37-3.05-2.33 5.21-3.63 10.98-3.63 17.05 0 5.45 1.04 8.93 3.18 10.63 3.37 2.69 9.59 1.27 17.47-.53 6.35-1.45 13.56-3.1 21.35-3.1s15 1.65 21.35 3.1c7.88 1.8 14.1 3.22 17.47.53 2.14-1.7 3.18-5.18 3.18-10.63 0-6.07-1.3-11.84-3.63-17.05zm-38.37 20.05c-7.17 0-13-5.83-13-13s5.83-13 13-13 13 5.83 13 13-5.83 13-13 13z" fill="#ef5350"/><path d="m58 88c0 1.1-.9 2-2 2h-16c-1.1 0-2-.9-2-1.95l1.56-30.44c2.73-.37 5.55-.61 8.44-.61s5.71.24 8.44.61z" fill="#ffe0b2"/><path d="m48 25c-7.17 0-13 5.83-13 13s5.83 13 13 13 13-5.83 13-13-5.83-13-13-13zm0 24c-6.07 0-11-4.93-11-11s4.93-11 11-11 11 4.93 11 11-4.93 11-11 11z"/><circle cx="48" cy="38" fill="#ffe0b2" r="11"/></svg>