<svg height="512" viewBox="0 0 64 64" width="512" xmlns="http://www.w3.org/2000/svg"><g id="_12-Mushroom" data-name="12-Mushroom"><path d="m5 25c0-9.94 7.61-18 17-18s17 8.06 17 18a4 4 0 0 1 -4 4h-26a4 4 0 0 1 -4-4z" fill="#fb4b5b"/><g fill="#e7eaef"><path d="m26 29h-8c0 6.1-2.23 13.68-4 18.67a4 4 0 0 0 3.8 5.33h8.4a4 4 0 0 0 3.8-5.33c-1.77-4.99-4-12.57-4-18.67z"/><path d="m49 36h-6c0 4.26-1.44 9.54-2.6 13.07a3 3 0 0 0 2.85 3.93h5.5a3 3 0 0 0 2.85-3.93c-1.16-3.53-2.6-8.81-2.6-13.07z"/><circle cx="22.5" cy="21.5" r="3.5"/><path d="m14 17a6 6 0 0 1 -8.81 5.31 18.28 18.28 0 0 1 5.45-10.7 6 6 0 0 1 3.36 5.39z"/></g><path d="m51.6 49.07c-1.15-3.53-2.6-8.81-2.6-13.07h-6a24.17 24.17 0 0 1 -.21 3h3.42a55.88 55.88 0 0 0 2.34 9.76 4 4 0 0 1 -.55 3.59 4.07 4.07 0 0 1 -.59.65h1.36a3 3 0 0 0 2.83-3.93z" fill="#d8dbe0"/><path d="m30 47.67c-1.74-5-4-12.57-4-18.67h-8c0 1-.06 2-.16 3h5.54a71.33 71.33 0 0 0 3.74 15.34 5 5 0 0 1 -.65 4.56 4.9 4.9 0 0 1 -1.08 1.1h.81a4 4 0 0 0 3.8-5.33z" fill="#d8dbe0"/><path d="m24.1 7.15a19 19 0 0 1 11.9 17.85 5 5 0 0 1 -2 4h1a4 4 0 0 0 4-4c0-9.19-6.51-16.75-14.9-17.85z" fill="#fa3447"/><path d="m33 32.73c0-8.14 5.82-14.73 13-14.73s13 6.59 13 14.73a3.28 3.28 0 0 1 -3.27 3.27h-19.46a3.28 3.28 0 0 1 -3.27-3.27z" fill="#fc6067"/><circle cx="42" cy="29" fill="#e7eaef" r="3"/><path d="m54.44 36h1.29a3.28 3.28 0 0 0 3.27-3.27c0-7.73-5.31-14.12-12-14.68 5.27 2.26 9 8 9 14.68a4.25 4.25 0 0 1 -1.56 3.27z" fill="#fb4b5b"/><path d="m56.69 24.35a13 13 0 0 0 -7.91-6 4.9 4.9 0 0 0 -.78 2.65 5 5 0 0 0 8.69 3.35z" fill="#e7eaef"/><path d="m54.53 25.76a5.08 5.08 0 0 0 2.16-1.41 13 13 0 0 0 -7.91-6 4.53 4.53 0 0 0 -.27.48 15.15 15.15 0 0 1 6.02 6.93z" fill="#d8dbe0"/><path d="m11 49a7.91 7.91 0 0 1 3.26.7 8 8 0 0 1 10.74-2.61 8 8 0 0 1 14 0 8 8 0 0 1 10.74 2.61 7.91 7.91 0 0 1 3.26-.7 8 8 0 0 1 8 8h-58a8 8 0 0 1 8-8z" fill="#b38051"/><path d="m53.13 49a9 9 0 0 1 4.87 8h3a8 8 0 0 0 -7.87-8z" fill="#aa744c"/><path d="m34.57 12.89a6 6 0 0 1 -10.57-3.89 6.14 6.14 0 0 1 .28-1.83 16.58 16.58 0 0 1 10.29 5.72z" fill="#e7eaef"/><path d="m34.57 12.89a16.58 16.58 0 0 0 -10.28-5.72 18.28 18.28 0 0 1 8.55 7.08 6.25 6.25 0 0 0 1.73-1.36z" fill="#d8dbe0"/><path d="m42 33a4 4 0 1 0 -4-4 4 4 0 0 0 4 4zm0-6a2 2 0 1 1 -2 2 2 2 0 0 1 2-2zm-19.5-10a4.5 4.5 0 1 0 4.5 4.5 4.51 4.51 0 0 0 -4.5-4.5zm0 7a2.5 2.5 0 1 1 2.5-2.5 2.5 2.5 0 0 1 -2.5 2.5zm30.5 24c-.23 0-.46 0-.68 0a47 47 0 0 1 -2.32-11h5.69a4.28 4.28 0 0 0 4.31-4.27c0-8.67-6.28-15.73-14-15.73a12.77 12.77 0 0 0 -6.92 2.07 18.06 18.06 0 0 0 -17.08-13.07 17.73 17.73 0 0 0 -15 8.47 1 1 0 0 0 .31 1.38 1 1 0 0 0 1.38-.32 17.1 17.1 0 0 1 2.09-2.67 5 5 0 0 1 -2.78 9.14 5.09 5.09 0 0 1 -1.69-.29 17.81 17.81 0 0 1 .61-2.39 1 1 0 0 0 -1.92-.64 19.82 19.82 0 0 0 -1 6.32 5 5 0 0 0 5 5h8c-.22 5.7-2.19 12.5-3.88 17.34a6.13 6.13 0 0 0 -.21.87 8.31 8.31 0 0 0 -1.91-.21 9 9 0 0 0 -9 9 1 1 0 0 0 1 1h48a1 1 0 0 0 0-2h-46.93a7 7 0 0 1 9.78-5.39 1 1 0 0 0 1.25-.37 7 7 0 0 1 9.42-2.24 1 1 0 0 0 .77.1 1 1 0 0 0 .6-.48 7 7 0 0 1 12.22 0 1 1 0 0 0 .6.48 1 1 0 0 0 .77-.1 7 7 0 0 1 9.42 2.28 1 1 0 0 0 1.25.37 7 7 0 0 1 9.78 5.35h-4.93a1 1 0 0 0 0 2h6a1 1 0 0 0 1-1 9 9 0 0 0 -9-9zm2.38-23.81a3.93 3.93 0 0 1 -2.38.81 4 4 0 0 1 -4-4 4.08 4.08 0 0 1 .29-1.46 12 12 0 0 1 6.09 4.65zm-8.05-5.1a6 6 0 0 0 9.07 6.83 15.15 15.15 0 0 1 1.6 6.81 2.27 2.27 0 0 1 -2.27 2.27h-19.46a2.27 2.27 0 0 1 -2.27-2.27c0-7.57 5.38-13.73 12-13.73a9.8 9.8 0 0 1 1.33.09zm-14.15-6.24a5 5 0 0 1 -8.18-3.85 5.19 5.19 0 0 1 .05-.68 15.71 15.71 0 0 1 8.13 4.53zm-27.18 12.15c0-.43 0-.86 0-1.28a7 7 0 0 0 9-6.72 7 7 0 0 0 -2.7-5.51 15.38 15.38 0 0 1 9.7-3.49c.36 0 .72 0 1.07.05a7.45 7.45 0 0 0 -.07.95 7 7 0 0 0 11.48 5.37 17.6 17.6 0 0 1 2.89 6 16 16 0 0 0 -4.72 7.63h-23.65a3 3 0 0 1 -3-3zm18.67 20.79a9 9 0 0 0 -9.37 1.21c1.7-4.87 3.46-11.4 3.7-17h6a55.44 55.44 0 0 0 2.5 13.23 9 9 0 0 0 -2.83 2.56zm14.66 0a9 9 0 0 0 -7.33-3.79 8.74 8.74 0 0 0 -2.65.42 52.61 52.61 0 0 1 -2.35-12.42h5.2a17.54 17.54 0 0 0 -.2 2.73 4.28 4.28 0 0 0 4.27 4.27h5.73a39.76 39.76 0 0 1 -1.51 8.38 8.06 8.06 0 0 0 -1.16.41zm10.77 2.69a9 9 0 0 0 -7.1-3.48h-.37a39.88 39.88 0 0 0 1.37-8h4a48.32 48.32 0 0 0 2.3 11.41z"/></g></svg>