<svg id="Capa_1" enable-background="new 0 0 512 512" height="512" viewBox="0 0 512 512" width="512" xmlns="http://www.w3.org/2000/svg"><g><path d="m393 512h-274c-3.866 0-7-3.134-7-7v-498c0-3.866 3.134-7 7-7h274c3.866 0 7 3.134 7 7v498c0 3.866-3.134 7-7 7z" fill="#f5fcff"/><path d="m112 7v498c0 3.866 3.134 7 7 7h25v-512h-25c-3.866 0-7 3.134-7 7z" fill="#dff1f7"/><path d="m346.657 309.698h-182.053l-20.604-21.698v-249c0-3.866 3.134-7 7-7h210c3.866 0 7 3.134 7 7v249z" fill="#01d0fb"/><path d="m144 39v249l10.821 11.396 9.783-11.396v-256h-13.604c-3.866 0-7 3.134-7 7z" fill="#08a9f1"/><path d="m144 288h112l81.094 5.151v20.668l-81.094 6.181h-105c-3.866 0-7-3.134-7-7z" fill="#ea4959"/><path d="m144 288v25c0 3.866 3.134 7 7 7h13.604v-32z" fill="#d83a51"/><path d="m256 288h112v25c0 3.866-3.134 7-7 7h-105z" fill="#356487"/><circle cx="256" cy="415.979" fill="#356487" r="64"/><path d="m212.604 415.979c0-31.838 23.252-58.235 53.698-63.163-3.355-.543-6.794-.837-10.302-.837-35.346 0-64 28.654-64 64s28.654 64 64 64c3.508 0 6.947-.294 10.302-.837-30.446-4.928-53.698-31.325-53.698-63.163z" fill="#20526b"/><circle cx="256.003" cy="415.978" fill="#f5fcff" r="32.001"/><path d="m320.635 67.073c-2.013-1.451-4.599-1.845-6.951-1.061l-95.869 31.949c-3.151 1.05-5.277 3.999-5.277 7.32v31.957 61.674c-4.755-2.853-10.314-4.498-16.252-4.498-17.47 0-31.683 14.213-31.683 31.683s14.213 31.683 31.683 31.683 31.683-14.213 31.683-31.683v-83.297l80.437-26.813v58.957c-4.755-2.853-10.314-4.498-16.251-4.498-17.47 0-31.683 14.213-31.683 31.683s14.213 31.683 31.683 31.683 31.683-14.213 31.683-31.683v-96.848-31.949c.001-2.48-1.191-4.809-3.203-6.259z" fill="#356487"/></g></svg>