<svg id="Capa_1" enable-background="new 0 0 512 512" height="512" viewBox="0 0 512 512" width="512" xmlns="http://www.w3.org/2000/svg"><g><path d="m400.535 512h-289.07c-8.534 0-15.452-6.918-15.452-15.452v-481.055c0-8.534 6.918-15.452 15.452-15.452h48.543l16.272 10.301h159.44l16.272-10.301h48.543c8.534 0 15.452 6.918 15.452 15.452v481.055c0 8.534-6.918 15.452-15.452 15.452z" fill="#618baa"/><path d="m128.01 496.548v-481.055c0-8.534 6.918-15.452 15.452-15.452h-31.997c-8.534 0-15.452 6.918-15.452 15.452v481.055c0 8.534 6.918 15.452 15.452 15.452h31.997c-8.534 0-15.452-6.918-15.452-15.452z" fill="#4e7693"/><path d="m128.01 71.036v369.969c0 3.866 3.134 7 7 7h241.98c3.866 0 7-3.134 7-7v-369.969c0-3.866-3.134-7-7-7h-241.98c-3.866 0-7 3.134-7 7z" fill="#01d0fb"/><path d="m128.01 71.036v369.969c0 3.866 3.134 7 7 7h13.602v-383.969h-13.602c-3.866 0-7 3.135-7 7z" fill="#08a9f1"/><path d="m336.992 31.997h-161.984c-8.284 0-15-6.716-15-15v-16.997h191.984v16.997c0 8.285-6.716 15-15 15z" fill="#356487"/><g><path d="m287.997 487.728h-63.994c-4.267 0-7.726-3.458-7.726-7.726 0-4.267 3.459-7.726 7.726-7.726h63.994c4.267 0 7.726 3.458 7.726 7.726s-3.459 7.726-7.726 7.726z" fill="#356487"/></g><path d="m324.227 161.375c-2.013-1.451-4.599-1.845-6.951-1.061l-95.869 31.949c-3.151 1.05-5.277 3.999-5.277 7.32v31.957 61.674c-4.755-2.853-10.314-4.498-16.252-4.498-17.47 0-31.683 14.213-31.683 31.683s14.213 31.683 31.683 31.683 31.683-14.213 31.683-31.683v-83.297l80.437-26.813v58.957c-4.755-2.853-10.314-4.498-16.251-4.498-17.47 0-31.683 14.213-31.683 31.683s14.213 31.683 31.683 31.683 31.683-14.213 31.683-31.683v-96.848-31.949c.001-2.48-1.191-4.808-3.203-6.259z" fill="#356487"/></g></svg>