<svg id="Capa_1" enable-background="new 0 0 512 512" height="512" viewBox="0 0 512 512" width="512" xmlns="http://www.w3.org/2000/svg"><g><path d="m498.417 72.591c-3.906-2.959-8.972-3.917-13.687-2.591l-216.957 61.015c-6.74 1.896-11.762 7.657-11.773 14.659v242.815c-9.14-5.289-19.743-8.332-31.062-8.332-34.31 0-62.125 27.814-62.125 62.125s27.814 62.125 62.125 62.125c34.264 0 62.046-27.74 62.121-61.986.042-.045.003-284.699.003-284.699l186.255-51.997v220.572c-9.113-5.247-19.673-8.264-30.944-8.264-34.31 0-62.125 27.814-62.125 62.125s27.814 62.125 62.125 62.125 62.125-27.814 62.125-62.125v-295.092c0-4.9-2.175-9.516-6.081-12.475z" fill="#b3e59f"/><path d="m177.813 442.282c0-31.781 23.889-57.976 54.676-61.667-2.47-.3-5.001-.457-7.552-.457-34.31 0-62.125 27.814-62.125 62.125s27.814 62.125 62.125 62.125c2.54 0 5.072-.156 7.533-.452-30.771-3.707-54.657-29.904-54.657-61.674z" fill="#95d6a4"/><path d="m395.249 380.157c0-31.781 23.886-57.981 54.673-61.672-2.47-.3-4.997-.453-7.549-.453-34.31 0-62.125 27.814-62.125 62.125s27.814 62.125 62.125 62.125c2.54 0 5.065-.158 7.525-.455-30.77-3.705-54.649-29.9-54.649-61.67z" fill="#95d6a4"/><path d="m208.941 18.767c-2.339-8.32-10.982-13.167-19.302-10.829l-77.177 21.705c-6.74 1.896-11.761 8.014-11.773 15.015v242.459c-9.14-5.289-19.743-8.332-31.062-8.332-34.31 0-62.125 27.814-62.125 62.125s27.814 62.125 62.125 62.125 62.125-27.814 62.125-62.125v-284.166l66.361-18.675c8.32-2.339 13.168-10.981 10.828-19.302z" fill="#f9b419"/><path d="m22.502 340.91c0-31.781 23.883-57.976 54.67-61.666-2.47-.3-4.995-.458-7.546-.458-34.31 0-62.125 27.814-62.125 62.125s27.814 62.125 62.125 62.125c2.54 0 5.085-.157 7.546-.454-30.771-3.707-54.67-29.902-54.67-61.672z" fill="#f29e22"/><path d="m115.689 301.224v-272.488l-3.227.907c-6.74 1.896-11.761 8.014-11.773 15.016v242.459.002c7.061 3.895 10.978 9.187 15 14.104z" fill="#f29e22"/><path d="m488.317 341.849v-236.125l-15 4.188v216.385c6.121 4.114 11.871 10.364 15 15.552z" fill="#95d6a4"/><path d="m271 130.108-3.227.907c-6.74 1.896-11.762 7.657-11.773 14.659v242.815c5.396 2.818 11.167 8.235 15 12.068z" fill="#95d6a4"/><g><g><g><path d="m442.37 449.779c-38.389 0-69.62-31.231-69.62-69.62 0-38.394 31.231-69.63 69.62-69.63 8.012 0 15.952 1.391 23.45 4.075v-198.995l-171.257 47.802.058 134.534c.002 4.142-3.354 7.501-7.497 7.503-.001 0-.002 0-.003 0-4.141 0-7.498-3.355-7.5-7.497l-.06-140.23c-.001-3.367 2.241-6.322 5.483-7.227l186.26-51.99c5.563-.742 8.735 1.666 9.517 7.224v220.57c-1.247 6.49-4.995 8.657-11.242 6.5-8.262-4.756-17.67-7.27-27.208-7.27-30.118 0-54.62 24.507-54.62 54.63 0 30.118 24.502 54.62 54.62 54.62 30.123 0 54.63-24.502 54.63-54.62v-295.089c-.757-6.07-4.169-8.687-10.236-7.852l-79.773 22.441c-3.984 1.122-8.128-1.201-9.25-5.189-1.122-3.987 1.201-8.129 5.189-9.25l79.77-22.44c15.135-4.269 29.299 7.988 29.299 22.29v295.09c0 38.388-31.236 69.62-69.63 69.62z"/></g><g><path d="m224.928 511.897c-38.394 0-69.63-31.236-69.63-69.63 0-38.389 31.236-69.62 69.63-69.62 8.057 0 16.034 1.403 23.56 4.11v-231.1c.014-10.198 6.944-18.983 17.245-21.871l105.724-29.738c3.986-1.123 8.129 1.202 9.25 5.189s-1.202 8.129-5.189 9.25l-105.73 29.74c-3.766 1.056-6.296 4.046-6.301 7.44v242.81c-1.252 6.499-5.005 8.663-11.257 6.491-8.275-4.79-17.717-7.321-27.303-7.321-30.123 0-54.63 24.502-54.63 54.62 0 30.123 24.507 54.63 54.63 54.63 30.047 0 54.55-24.452 54.62-54.508 0-.062.001-.124.003-.186.029-2.961.022-74.131.015-111.575-.001-4.142 3.356-7.5 7.499-7.501s7.5 3.356 7.501 7.499c0 0-.009 110.601-.068 111.799h.05c-.088 38.307-31.32 69.472-69.619 69.472z"/></g></g><g><path d="m54.375 408.641c-.607 0-1.225-.075-1.841-.23-30.931-7.808-52.534-35.566-52.534-67.502 0-38.389 31.236-69.62 69.63-69.62 8.057 0 16.034 1.403 23.56 4.11v-230.74c.015-10.242 7.103-19.382 17.235-22.239l77.185-21.702c13.94-2.543 23.457 2.797 28.549 16.02 3.456 12.286-3.731 25.094-16.019 28.55l-60.891 17.14v278.48c0 30.748-20.597 58.237-50.087 66.849-3.977 1.161-8.141-1.121-9.302-5.097s1.121-8.141 5.097-9.302c23.135-6.756 39.292-28.324 39.292-52.451v-284.158c0-3.359 2.234-6.309 5.468-7.219l66.36-18.68c4.328-1.218 6.858-5.726 5.643-10.051-1.793-4.655-5.143-6.535-10.05-5.641l-77.18 21.701c-3.643 1.027-6.295 4.313-6.3 7.811v242.449c-1.252 6.499-5.005 8.663-11.257 6.491-8.275-4.79-17.717-7.321-27.303-7.321-30.123 0-54.63 24.502-54.63 54.62 0 25.057 16.944 46.834 41.206 52.958 4.016 1.014 6.45 5.091 5.437 9.107-.859 3.401-3.914 5.667-7.268 5.667z"/></g></g></g></svg>