<svg id="a" height="512" viewBox="0 0 512 512" width="512" xmlns="http://www.w3.org/2000/svg" data-name="Layer 1"><path d="m435.7610351 131.2248333c-23.3922089-19.9093566-64.3251256-33.58841-102.4530618-1.0708942-3.7844627-101.9309956-150.3268238-111.5410067-166.014297-8.8752868-59.8482004-37.4944348-146.8970432 24.2780058-107.4662096 102.137013 26.5473036 49.3626474 62.8917166 26.7005332 71.8958117 93.6988636 4.9210708 36.6083909 46.638782 63.1377149 84.9717555 70.7842893.0016377.0110184 25.5868384 69.8554883 25.59049 69.8703263 1.1887596 3.3839305 4.7742168 5.6759383 8.3468609 5.3213369 3.1222381-.2350934 5.9623499-2.4216345 6.9894296-5.3785671.0080074-.0085763 24.5054102-68.7241942 24.5117993-68.7332544 39.6507426-5.5287629 84.3686304-30.7462595 91.094556-68.1983126 12.1210102-67.4928492 47.9385859-42.9018485 77.0473623-91.7374094 25.6011489-42.9488468 5.6904957-79.4575324-14.5144968-97.8181049zm-200.8929559 258.8654047c2.3521272.0847693 4.6623823.0837441 6.919907-.005569l.0000466 18.8993632-6.9199537-18.8937943zm23.2306605-.3133296c2.099596.1852768 4.1858179.2909271 6.3156868.3298267l-6.3156402 17.7099598z" fill="#7fa047"/><g><path d="m435.7610118 131.2248333c-23.3921768-19.9093673-64.3250581-33.5883333-102.4530385-1.0708942 2.4238712 59.1280657-43.0106413 59.5798735-13.3828334 126.3330766 19.7745565 46.2169698-19.8303719 110.2259457-64.9555717 132.9290055 46.4309184 5.0733945 109.4262332-22.8888401 118.2590512-68.6350969 12.1205602-67.493426 47.9381593-42.9024254 77.0469124-91.7379863 25.6011722-42.9488468 5.690519-79.4575324-14.5145201-97.8181049z" fill="#7fa047"/><path d="m234.8681026 390.090238 6.9199537 18.8937943-.0000699-18.8992467c-2.2575015.0891965-4.5677566.0902218-6.9198837.0054525z" fill="none"/><path d="m241.7879863 390.0847855c1.5792441-.1137015 2.4776109-.008022 4.1207487-.3689725-45.8599153-21.9229608-85.7149679-86.8816052-65.948317-133.2281449 31.0478495-68.4820551-21.5158656-71.902257-12.6667418-135.2090157-59.8742681-37.507406-146.8876878 24.3013385-107.466222 102.1370015 26.547316 49.3626589 62.8917523 26.7005447 71.8958241 93.6988751 6.4445095 44.4543497 64.9726921 74.1357348 110.0647079 72.9702565z" fill="#7fa047"/><path d="m179.9615861 256.4870158c31.0559029-68.4441954-21.5236804-71.9284242-12.6679098-135.2083634-24.7221391-16.1935723-52.6864598-12.459435-71.3771153-4.3554139-20.6973675 17.2045594-41.8976654 52.2979377-18.5506626 95.7096837 26.5457046 49.3618156 62.8901643 26.6996315 71.8963332 93.6967736 4.3974257 32.7213986 38.1932369 57.3902714 72.692531 67.7200114-32.9576482-28.5948013-58.9535406-79.3467591-41.9931765-117.5626913z" fill="#95b75c"/><path d="m264.4144499 390.1067351c-2.1297706-.0388942-4.2162119-.1445547-6.3157101-.3298267l.0000466 18.0397865z" fill="none"/><path d="m264.4144499 390.1067351-6.3156635 17.7099598-.0000466-18.0397865c-1.053533-.1143731-2.107592-.1564305-3.1291947-.3608871-3.7918774 1.1000671-7.0473173.7595452-9.0608099.2997916-1.6397358.3606212-2.5451015.2555829-4.1207487.3689725l.0000699 18.8992467-6.9199537-18.8937943c-5.8555838-.2110611-11.9699027-.9541092-18.173092-2.1914196.0016377.0110184 25.5868618 69.8554883 25.5905133 69.8703263 1.1887781 3.3839199 4.7742036 5.6759404 8.3468609 5.3213369 3.1222286-.2350875 5.9623657-2.42163 6.9894296-5.378567.0080757-.0085624 24.5053827-68.7241931 24.5117993-68.7332544-6.0771537.8473902-12.0351224 1.2326269-17.7191637 1.128075z" fill="#95b75c"/><path d="m267.1527225 382.4283081c-2.9757326 2.049128-5.9348211 3.8863359-9.0539827 5.5776951l.0000466 19.8106916 9.0539361-25.3883868z" fill="none"/><g fill="#b2cc81"><path d="m243.7431563 389.0381711c-.3555278-.1814688-.7111488-.3689725-1.0667466-.5568258.355621.1888785.7112188.3752405 1.0667466.5568258z"/><path d="m156.1685308 300.1461493c-7.5637924-1.1932863-9.5317025 10.0246141-2.0119662 11.4753716-.0002449-.0000342 27.1047322 4.752896 27.1047322 4.752896-1.5686751-4.14391-2.8912908-8.3272921-3.9322663-12.5177343z"/><path d="m149.4681665 209.3188334 12.3921881-42.2279814c2.0310829-7.3794058-8.8975042-10.5940905-11.1791253-3.2805489.0000611-.0002426-9.370024 31.9295718-9.370024 31.9295718l-23.5758892-39.2469116c-2.3193192-3.8610583-7.3293769-5.1107649-11.1905516-2.7913524-3.8610583 2.3194124-5.1107649 7.3296099-2.7914689 11.1906681l23.8958829 39.7795975-33.8374036-5.9334094c-3.1692027-.5568258-6.1882066 1.5628032-6.7437742 4.7314234-.5558006 3.1688532 1.5626867 6.1882066 4.7315399 6.7438907l43.7915302 7.6789396 39.0306077 64.9744455c-.0069903-8.377902 1.3824762-16.5575118 4.4516007-24.2645059l-29.6051126-49.2838269z"/><path d="m421.856677 206.473772c-.4446311-3.1863756-3.3884425-5.4120245-6.5743521-4.9644341l-32.5614833 4.5427778 25.549071-38.3264026c2.4982715-3.7475121 1.4854436-8.8109292-2.2623015-11.3092007-3.7480713-2.4987142-8.8112787-1.4854436-11.3094337 2.2623015l-26.5625047 39.8465881-8.974596-35.0771607c-.7973395-3.1167287-3.9700607-4.9974284-7.0873719-4.1996462-3.116752.7973395-4.9969857 3.9705034-4.1995297 7.0872554l11.5711514 45.2260377-36.2438689 54.369683c2.2552879 8.7721562 2.584136 18.0124776 1.366678 27.355883l49.5069581-74.2657963 42.8171258-5.9737435c3.1862591-.4443981 5.4089721-3.3877668 4.9644574-6.5741424z"/><path d="m349.1651713 313.0245377c7.5656445-1.187549 5.9903544-12.4687652-1.6101616-11.5385342.0002436-.0000423-25.2920961 3.5285795-25.2920961 3.5285795-1.0764398 4.1275061-2.4224032 8.245249-4.0056647 12.3221451z"/></g><path d="m323.2014577 265.9315712c-35.3434281-77.2651773 12.074269-72.1854592 10.0122463-137.7705076-5.9648488-100.7120173-150.6156232-108.3081853-165.9207643-6.8839855-8.5888426 63.1992984 44.5925819 69.0138341 11.7798607 137.3254952-3.0686458 7.7070812-4.4581123 15.886691-4.451122 24.264593.4701862 41.7968224 34.2160269 89.7777984 71.2862863 106.8494439 4.3097 1.2997745 10.878134-.2317795 15.2823148-3.4648206 7.8102374-4.6628064 14.7212413-10.0914169 21.5932619-16.6197145 26.5224642-25.894752 49.3368627-65.5197462 40.4179162-103.7005038z" fill="#7fa047"/><path d="m319.92514 256.4870158c19.7646487 44.5306637-18.798656 106.0804801-58.7346969 129.7654184-39.9387439-23.679579-78.5020485-85.2347547-58.7373765-129.7654184 29.954722-67.4958084-16.8318121-67.2041255-13.2888601-128.3257847 3.1148413-53.7547443 42.9224467-74.2793809 72.0262367-78.4458463 29.1037201 4.1664655 68.9060128 24.691102 72.0208541 78.4458463 3.5429753 61.1216592-43.2435821 60.8299763-13.2861572 128.3257847z" fill="#95b75c"/><path d="m285.682484 253.940581-27.5835579 24.7071099v-113.5283197l35.3879272-31.697759c5.6081567-5.2171599-2.0641929-13.5774435-7.8045428-8.5876404.0001735-.000181-27.5833844 24.7069289-27.5833844 24.7069289v-50.6714293c0-4.4717096-3.6512787-8.0966813-8.1553767-8.0966813-4.5041214 0-8.1553767 3.6249717-8.1553767 8.0966813v52.0710085l-29.7270938-26.1419203c-5.7787342-4.9322322-13.3864939 3.4857899-7.7248881 8.6584716-.0001877-.0001645 37.4519818 32.9352778 37.4519818 32.9352778v113.6549144l-29.7270938-26.1418737c-5.7787374-4.9322399-13.3864968 3.4858111-7.7248881 8.6584716-.0001877-.0001645 37.4519818 32.9352312 37.4519818 32.9352312v86.5570209c0 4.4717096 3.6512554 8.0967046 8.1553767 8.0967046 4.5040981 0 8.1553767-3.624995 8.1553767-8.0967046v-87.8299121l35.3879272-31.697759c5.6094779-5.218135-2.06567-13.5765093-7.8043693-8.5878214z" fill="#b2cc81"/></g></svg>