<svg id="Capa_1" enable-background="new 0 0 511.998 511.998" height="512" viewBox="0 0 511.998 511.998" width="512" xmlns="http://www.w3.org/2000/svg"><g><path d="m380.247 287.062v-124.249c17.155 0 31.062 13.907 31.062 31.062v62.125c0 17.155-13.907 31.062-31.062 31.062z" fill="#e8e8e8"/><path d="m349.184 7.502h31.062v434.872h-31.062z" fill="#df646e"/><path d="m193.873 131.751 155.311-108.718v403.809l-155.311-108.717z" fill="#f7f7f7"/><path d="m223.873 301.984v-154.093c0-10.116 4.936-19.595 13.223-25.396l112.089-78.462v-21l-155.312 108.718v186.374l155.311 108.718v-21l-112.088-78.463c-8.287-5.801-13.223-15.28-13.223-25.396z" fill="#e8e8e8"/><path d="m162.811 131.751h31.062v186.374h-31.062z" fill="#d82f3c"/><path d="m162.811 318.125h-62.187c-17.121 0-31-13.879-31-31v-124.374c0-17.121 13.879-31 31-31h62.187z" fill="#df646e"/><path d="m89.624 287.125v-124.374c0-17.121 13.879-31 31-31h-20c-17.121 0-31 13.879-31 31v124.374c0 17.121 13.879 31 31 31h20c-17.121 0-31-13.88-31-31z" fill="#dc4955"/><circle cx="364.715" cy="426.842" fill="#ed8945" r="77.656"/><path d="m307.06 426.842c0-39.497 29.495-72.083 67.656-76.993-3.276-.422-6.609-.663-10-.663-42.888 0-77.656 34.768-77.656 77.656s34.768 77.656 77.656 77.656c3.391 0 6.724-.241 10-.663-38.162-4.909-67.656-37.496-67.656-76.993z" fill="#d76f42"/><g><path d="m387.748 344.877v-51.056c17.683-3.501 31.06-19.126 31.06-37.822v-14.01c0-4.143-3.357-7.5-7.5-7.5s-7.5 3.357-7.5 7.5v14.011c0 10.37-6.734 19.197-16.06 22.336v-106.812c9.836 3.647 15.19 11.099 16.06 22.355v15.42c0 4.143 3.357 7.5 7.5 7.5s7.5-3.357 7.5-7.5v-15.42c0-17.62-13.458-34.389-31.06-37.843v-148.536c0-4.143-3.357-7.5-7.5-7.5h-31.06c-4.143 0-7.5 3.357-7.5 7.5v11.625l-64.371 45.06c-3.394 2.376-4.219 7.052-1.844 10.445s7.052 4.22 10.445 1.844l55.77-39.039v307.441c-19.593 5.512-36.354 17.853-47.507 34.306l-92.804-64.968v-178.56l57.771-40.44c3.394-2.376 4.219-7.052 1.843-10.445-2.375-3.395-7.053-4.219-10.445-1.844l-59.035 41.325-90.884-.001c-21.229 0-38.5 17.271-38.5 38.5v76.91c0 4.143 3.358 7.5 7.5 7.5s7.5-3.357 7.5-7.5v-76.91c0-12.958 10.542-23.5 23.5-23.5h54.68v16.063h-54.621c-4.142 0-7.5 3.357-7.5 7.5s3.358 7.5 7.5 7.5h54.621v16.063h-54.621c-4.142 0-7.5 3.357-7.5 7.5s3.358 7.5 7.5 7.5h54.621v16.062h-54.621c-4.142 0-7.5 3.357-7.5 7.5s3.358 7.5 7.5 7.5h54.621v16.063h-54.621c-4.142 0-7.5 3.357-7.5 7.5s3.358 7.5 7.5 7.5h54.621v16.063h-54.621c-4.142 0-7.5 3.357-7.5 7.5s3.358 7.5 7.5 7.5h54.621v16.058h-54.68c-12.958 0-23.5-10.542-23.5-23.5v-14.78c0-4.143-3.358-7.5-7.5-7.5s-7.5 3.357-7.5 7.5v14.78c0 21.229 17.271 38.5 38.5 38.5l90.891.004 95.356 66.754c-4.687 10.545-7.314 22.201-7.314 34.465 0 46.955 38.2 85.155 85.155 85.155s85.155-38.2 85.155-85.155c.001-38.974-26.326-71.893-62.122-81.967zm-201.375-34.253h-16.062v-171.373h16.062zm170.315-295.624h16.06v327.077c-5.353-.52-10.706-.52-16.06 0zm8.027 481.998c-38.684 0-70.155-31.472-70.155-70.155 0-38.112 32.319-70.156 70.155-70.156 37.835 0 70.155 32.046 70.155 70.156.001 38.683-31.471 70.155-70.155 70.155z"/><path d="m402.965 388.592c-2.93-2.928-7.678-2.928-10.607 0l-27.643 27.643-27.643-27.643c-2.929-2.927-7.677-2.929-10.607 0-2.929 2.93-2.929 7.678 0 10.607l27.643 27.643-27.643 27.643c-2.929 2.93-2.929 7.678 0 10.607 3.536 2.928 7.072 2.928 10.607 0l27.643-27.643 27.643 27.643c3.536 2.928 7.072 2.928 10.607 0 2.929-2.93 2.929-7.678 0-10.607l-27.643-27.643 27.643-27.643c2.929-2.929 2.929-7.678 0-10.607z"/></g></g></svg>