<svg id="Capa_1" enable-background="new 0 0 512 512" height="512" viewBox="0 0 512 512" width="512" xmlns="http://www.w3.org/2000/svg"><g><g><g><path d="m51.351 318.304-35.958 62.281c-16.292 28.218-6.623 64.3 21.594 80.591l47.501 27.425c28.218 16.292 64.3 6.623 80.591-21.594l89.742-155.437c2.417-4.186.983-9.538-3.203-11.955l-64.422-37.194c-4.186-2.417-9.538-.983-11.955 3.203l-14.555 25.211c-1.782 3.086-5.257 4.784-8.787 4.292l-41.314-5.756c-23.793-3.316-47.222 8.128-59.234 28.933zm39.326 28.153c3.638-6.301 10.733-9.766 17.938-8.762 0 0 36.955 5.149 37.109 5.169 15.682 2.055 24.343 19.239 16.434 32.936l-35.262 61.075c-4.934 8.545-15.861 11.473-24.406 6.54l-35.37-20.422c-8.545-4.934-11.473-15.861-6.54-24.406z" fill="#80e29e"/></g><g><path d="m321.411 73.501-7.557-17.122c-1.409-3.192-1.211-6.865.534-9.887l14.727-25.508c3.021-5.232 9.711-7.025 14.944-4.004l15.349 8.862c3.518 2.031 6.084 5.376 7.136 9.3l9.529 35.564c1.051 3.923.501 8.104-1.53 11.621l-124.82 216.194-60.633-35.006 75.988-131.615c1.745-3.022 4.826-5.03 8.295-5.406l18.606-2.016c3.469-.376 6.551-2.384 8.295-5.406l20.601-35.683c1.747-3.023 1.945-6.696.536-9.888z" fill="#9facba"/></g></g><g><g><path d="m190.589 73.501 7.557-17.122c1.409-3.192 1.21-6.865-.534-9.887l-14.727-25.508c-3.021-5.232-9.711-7.025-14.944-4.004l-15.349 8.862c-3.518 2.031-6.084 5.376-7.136 9.3l-9.529 35.564c-1.051 3.923-.501 8.104 1.53 11.621l124.82 216.194 60.633-35.006-75.988-131.615c-1.745-3.022-4.826-5.03-8.295-5.406l-18.606-2.016c-3.469-.376-6.551-2.384-8.295-5.406l-20.601-35.683c-1.747-3.023-1.945-6.696-.536-9.888z" fill="#c5d3dd"/></g><g><path d="m190.589 73.501 7.557-17.122c1.409-3.192 1.21-6.865-.534-9.887l-14.727-25.508c-3.021-5.232-9.711-7.025-14.944-4.004l-15.349 8.861c-.649.375-1.254.808-1.835 1.268 4.889-1.768 10.489.154 13.179 4.814l14.727 25.508c1.745 3.022 1.943 6.695.534 9.887l-7.557 17.122c-1.409 3.192-1.211 6.865.534 9.887l20.601 35.683c1.745 3.022 4.826 5.03 8.295 5.406l18.606 2.016c3.469.376 6.551 2.384 8.295 5.406l75.988 131.615 18.948-10.939-75.988-131.615c-1.745-3.022-4.826-5.03-8.295-5.406l-18.606-2.016c-3.469-.376-6.551-2.384-8.295-5.406l-20.601-35.683c-1.744-3.022-1.942-6.695-.533-9.887z" fill="#b6c4cf"/></g><g><path d="m401.414 289.37-41.314 5.756c-3.53.492-7.005-1.206-8.787-4.292l-14.555-25.211c-2.417-4.186-7.769-5.62-11.955-3.203l-64.422 37.194c-4.186 2.417-5.62 7.769-3.203 11.955l89.742 155.437c16.292 28.218 52.373 37.886 80.591 21.594l47.501-27.425c28.218-16.292 37.886-52.373 21.594-80.591l-35.958-62.281c-12.011-20.804-35.439-32.248-59.234-28.933zm50.006 109.216c4.934 8.546 2.006 19.473-6.54 24.406l-35.371 20.421c-8.546 4.934-19.473 2.006-24.406-6.54l-35.262-61.073c-7.908-13.697.752-30.881 16.434-32.936.154-.02 37.109-5.169 37.109-5.169 7.206-1.004 14.301 2.462 17.938 8.762z" fill="#d6f6b2"/></g><g><path d="m401.414 289.37-41.314 5.756c-3.53.492-7.005-1.206-8.787-4.292l-14.555-25.211c-2.417-4.186-7.769-5.62-11.955-3.203l-26.527 15.315c4.186-2.417 9.538-.983 11.955 3.203l17.837 30.895c1.782 3.086 5.257 4.784 8.787 4.292l41.314-5.756c23.794-3.315 47.222 8.128 59.234 28.934l32.677 56.597c16.292 28.218 6.623 64.3-21.594 80.591l26.527-15.315c28.218-16.292 37.886-52.373 21.594-80.591l-35.958-62.281c-12.012-20.805-35.44-32.249-59.235-28.934z" fill="#b3e59f"/></g></g><g><circle cx="255.996" cy="213.204" r="8.082"/><path d="m146.736 335.431c-.626-.085-37.085-5.165-37.084-5.165-10.287-1.433-20.28 3.45-25.47 12.44l-30.097 52.13c-6.994 12.114-2.828 27.659 9.285 34.652l35.371 20.422c3.985 2.301 8.34 3.394 12.641 3.393 8.773-.001 17.318-4.55 22.012-12.678l35.262-61.075c4.939-8.555 5.282-18.943.917-27.788-4.408-8.929-12.959-15.036-22.837-16.331zm8.927 36.618-35.262 61.074c-2.858 4.951-9.212 6.652-14.16 3.795l-35.371-20.421c-4.95-2.858-6.652-9.21-3.794-14.16l30.097-52.13c1.876-3.248 5.286-5.185 8.956-5.185.481 0 .965.033 1.452.101 36.988 5.153 37.129 5.171 37.169 5.177 5.009.656 9.153 3.609 11.37 8.1 2.173 4.406 2.007 9.381-.457 13.649z"/><path d="m503.105 376.834-16.531-28.632c-2.072-3.588-6.659-4.818-10.246-2.745-3.588 2.071-4.817 6.659-2.745 10.246l16.531 28.632c14.197 24.594 5.739 56.154-18.856 70.351l-47.494 27.422c-24.592 14.196-56.152 5.743-70.351-18.846l-89.742-155.451c-.21-.364-.182-.711-.121-.938.061-.229.21-.545.581-.758l64.433-37.197c.369-.212.718-.185.944-.124.225.061.538.209.753.584l14.562 25.214c3.324 5.754 9.727 8.882 16.31 7.966l41.311-5.76c20.879-2.906 41.172 7.012 51.707 25.267l1.93 3.34c2.073 3.586 6.66 4.814 10.247 2.741s4.814-6.661 2.741-10.247l-1.928-3.336c-13.602-23.567-39.811-36.373-66.767-32.622l-41.31 5.76c-.503.073-.999-.171-1.254-.612l-14.555-25.201c-2.165-3.764-5.668-6.457-9.865-7.582-2.42-.649-4.899-.713-7.287-.251l-21.025-36.417 11.428-19.796c2.071-3.588.842-8.175-2.745-10.246-3.589-2.072-8.175-.842-10.246 2.745l-7.098 12.295-31.759-55.009 6.919-11.987c.54-.938 1.515-1.568 2.597-1.687l18.644-2.014c5.812-.653 11.028-4.056 13.96-9.116l20.585-35.681c2.927-5.052 3.272-11.275.912-16.671l-7.562-17.124c-.44-.996-.377-2.154.176-3.108l14.723-25.506c.945-1.639 3.057-2.199 4.704-1.249l15.342 8.85c1.801 1.039 3.091 2.726 3.634 4.757l9.54 35.561c.53 1.977.243 4.133-.791 5.92l-47.023 81.457c-2.071 3.587-.842 8.174 2.746 10.246 1.181.682 2.47 1.006 3.743 1.006 2.592 0 5.114-1.346 6.503-3.752l47.02-81.451c3.01-5.204 3.846-11.512 2.292-17.31l-9.538-35.555c-1.577-5.902-5.352-10.828-10.629-13.872l-15.344-8.852c-4.268-2.46-9.237-3.116-13.989-1.846-4.764 1.273-8.743 4.327-11.204 8.595l-14.714 25.491c-2.944 5.079-3.284 11.316-.912 16.682l7.55 17.098c.45 1.029.392 2.164-.166 3.126l-20.585 35.681c-.551.951-1.541 1.593-2.616 1.714l-18.622 2.011c-5.831.638-11.055 4.045-13.971 9.107l-2.582 4.474-2.583-4.474c-2.93-5.074-8.157-8.481-13.983-9.113l-18.606-2.016c-1.087-.118-2.061-.753-2.608-1.699l-20.601-35.683c-.546-.947-.609-2.109-.168-3.108l7.557-17.121c2.366-5.361 2.03-11.592-.9-16.666l-14.727-25.508c-2.463-4.265-6.439-7.317-11.197-8.592-4.756-1.274-9.727-.62-13.992 1.842l-15.349 8.862c-5.278 3.048-9.053 7.967-10.63 13.854l-9.529 35.563c-1.577 5.887-.768 12.036 2.279 17.313l75.957 131.56-21.026 36.415c-2.387-.462-4.864-.398-7.285.251-4.196 1.125-7.7 3.818-9.858 7.57l-14.56 25.211c-.257.443-.752.683-1.251.614l-41.315-5.76c-26.96-3.754-53.164 9.054-66.764 32.62l-35.967 62.277c-18.333 31.758-7.41 72.51 24.347 90.842l47.495 27.423c10.447 6.03 21.863 8.895 33.138 8.895 22.999-.002 45.401-11.927 57.703-33.232l40.824-70.706c2.071-3.587.842-8.174-2.745-10.246-3.589-2.072-8.175-.843-10.246 2.745l-40.823 70.706c-14.199 24.588-45.758 33.044-70.351 18.847l-47.495-27.423c-24.594-14.197-33.053-45.756-18.856-70.35l35.964-62.277c10.532-18.251 30.822-28.172 51.702-25.263l41.317 5.761c6.58.912 12.982-2.213 16.307-7.968l14.568-25.223c.209-.364.522-.512.747-.573.228-.061.577-.089.952.128l64.429 37.195c.366.211.516.527.577.756.061.227.089.574-.126.946l-31.423 54.425c-2.071 3.587-.842 8.175 2.745 10.246 3.586 2.07 8.174.841 10.246-2.745l26.11-45.218 84.422 146.237c12.304 21.307 34.702 33.232 57.703 33.231 11.274 0 22.694-2.865 33.139-8.895l47.494-27.422c31.758-18.332 42.68-59.084 24.347-90.842zm-359.933-304.188 9.529-35.563c.54-2.016 1.833-3.701 3.641-4.746l15.349-8.862c1.074-.619 2.096-.481 2.609-.343.514.138 1.468.529 2.088 1.602l14.727 25.509c.546.946.609 2.108.168 3.108l-7.557 17.122c-2.366 5.36-2.029 11.59.9 16.665l20.601 35.683c2.929 5.075 8.157 8.481 13.983 9.113l18.606 2.016c1.086.118 2.061.753 2.608 1.699l72.24 125.123-47.642 27.504-121.07-209.7c-1.043-1.808-1.321-3.913-.78-5.93zm104.169 215.006-.361.625-47.646-27.506 16.244-28.133z"/><path d="m402.349 330.266s-36.46 5.08-37.048 5.16c-9.915 1.3-18.466 7.407-22.872 16.336-4.365 8.845-4.022 19.233.917 27.788l35.262 61.075c4.694 8.129 13.238 12.678 22.012 12.678 4.301 0 8.656-1.093 12.641-3.393l35.371-20.422c12.113-6.993 16.279-22.538 9.285-34.652l-30.097-52.13c-5.192-8.99-15.195-13.874-25.471-12.44zm38.781 86.231-35.371 20.422c-4.949 2.857-11.303 1.155-14.16-3.794l-35.262-61.075c-2.464-4.268-2.63-9.243-.456-13.649 2.216-4.491 6.361-7.444 11.363-8.099.046-.006.187-.024 37.176-5.178.486-.068.971-.101 1.452-.101 3.669 0 7.08 1.936 8.955 5.185l30.097 52.13c2.858 4.949 1.156 11.301-3.794 14.159z"/></g></g></svg>