<svg id="Layer_1" enable-background="new 0 0 512 512" height="512" viewBox="0 0 512 512" width="512" xmlns="http://www.w3.org/2000/svg"><g><path d="m334.711 62.836c3.207-13.153-7.552-27.072-24.031-31.091-16.479-4.018-32.438 3.387-35.646 16.54l-58.92 241.647 59.676 14.551z" fill="#efeeee"/><path d="m275.797 312.484c-.628 0-1.265-.074-1.902-.229l-59.675-14.551c-4.292-1.047-6.924-5.375-5.877-9.668l58.92-241.646c3.463-14.199 17.302-23.738 34.436-23.738 3.623 0 7.283.444 10.878 1.321 20.738 5.057 34.155 23.341 29.908 40.758l-58.921 241.647c-.893 3.655-4.166 6.106-7.767 6.106zm-50.015-28.429 44.131 10.761 57.025-233.875c2.12-8.696-6.193-18.507-18.154-21.423-2.354-.574-4.739-.866-7.087-.866-9.467 0-17.235 4.741-18.891 11.528z"/></g><g><path d="m266.852 341.142-59.676-14.551-29.887 122.573v.001c-3.207 13.152 7.552 27.072 24.032 31.09 16.479 4.019 32.438-3.387 35.645-16.539v-.001z" fill="#488fcc"/><path d="m210.304 489.349c-.001 0 .001 0 0 0-3.624 0-7.284-.445-10.879-1.321-9.725-2.371-18.189-7.698-23.833-14.999-6.058-7.837-8.215-16.985-6.076-25.759l29.887-122.574c.503-2.061 1.804-3.838 3.617-4.94s3.99-1.438 6.051-.937l59.676 14.551c4.292 1.047 6.924 5.375 5.877 9.668l-29.886 122.572c-3.462 14.198-17.301 23.739-34.434 23.739zm2.749-153.091-27.991 114.802c-.963 3.949.17 8.275 3.19 12.184 3.434 4.442 8.749 7.725 14.964 9.239 2.355.574 4.74.866 7.088.866 9.467 0 17.234-4.741 18.889-11.528l27.992-114.802z"/></g><g><path d="m219.664 296.67h43.637v37.733h-43.637z" fill="#e0e0e0" transform="matrix(.972 .237 -.237 .972 81.627 -48.226)"/><path d="m258.218 347.037c-.628 0-1.265-.074-1.902-.229l-42.395-10.338c-4.292-1.047-6.924-5.375-5.877-9.668l8.938-36.659c1.047-4.292 5.376-6.923 9.667-5.877l42.396 10.337c2.061.503 3.838 1.804 4.94 3.617 1.103 1.813 1.439 3.989.937 6.051l-8.939 36.66c-.891 3.655-4.164 6.106-7.765 6.106zm-32.735-24.217 26.851 6.547 5.148-21.115-26.851-6.547z"/></g><g><g><g><path d="m331.884 82.426c-.042 0-.083 0-.124-.001l-62.984-.953c-4.418-.067-7.945-3.702-7.878-8.12.066-4.376 3.635-7.879 7.996-7.879.042 0 .083 0 .124.001l62.984.953c4.418.067 7.945 3.702 7.878 8.12-.067 4.376-3.635 7.879-7.996 7.879z"/></g></g><g><g><path d="m321.323 125.736c-.042 0-.082 0-.124-.001l-62.983-.954c-4.418-.067-7.945-3.702-7.878-8.12s3.715-7.901 8.12-7.878l62.983.954c4.418.067 7.945 3.702 7.878 8.12-.066 4.376-3.634 7.879-7.996 7.879z"/></g></g><g><g><path d="m310.345 170.761c-.042 0-.082 0-.124-.001l-62.983-.954c-4.418-.067-7.945-3.702-7.878-8.12s3.685-7.942 8.12-7.878l62.983.954c4.418.067 7.945 3.702 7.878 8.12-.067 4.377-3.635 7.879-7.996 7.879z"/></g></g><g><g><path d="m299.035 217.144c-.042 0-.082 0-.124-.001l-62.983-.954c-4.418-.067-7.945-3.702-7.878-8.12.066-4.418 3.702-7.965 8.12-7.878l62.983.954c4.418.067 7.945 3.702 7.878 8.12-.066 4.376-3.635 7.879-7.996 7.879z"/></g></g><g><g><path d="m287.727 263.525c-.042 0-.083 0-.124-.001l-62.983-.953c-4.418-.067-7.945-3.703-7.878-8.121s3.719-7.936 8.12-7.878l62.983.954c4.418.067 7.945 3.702 7.878 8.12-.067 4.376-3.635 7.879-7.996 7.879z"/></g></g></g></svg>