<svg enable-background="new 0 0 512 512" viewBox="0 0 512 512" xmlns="http://www.w3.org/2000/svg"><g id="_x34_8_x2C__Necklace_x2C__Jewel_x2C__Jewelry_x2C__Golden_x2C__Fashion_x2C__Dollar_x2C__Rapper_x2C__Accessory"><g><g fill="#80e2f8"><path d="m390.18 159.29c2.85 3.46 4.56 7.88 4.56 12.71 0 11.05-8.96 20-20 20-6.97 0-13.1-3.56-16.68-8.97-2.1-3.16-3.32-6.95-3.32-11.03 0-11.05 8.95-20 20-20 6.21 0 11.77 2.84 15.44 7.29z"/><path d="m305.85 204.73c-1.9 25.87-23.5 46.27-49.86 46.27s-47.96-20.4-49.86-46.27c15.94 4.09 32.65 6.27 49.86 6.27s33.92-2.18 49.86-6.27z"/><path d="m157.24 172c0 4.08-1.22 7.87-3.32 11.03-3.58 5.41-9.72 8.97-16.68 8.97-11.05 0-20-8.95-20-20 0-4.83 1.71-9.25 4.56-12.71 3.67-4.45 9.22-7.29 15.44-7.29 11.04 0 20 8.95 20 20z"/></g><path d="m445.93 73.76c10.86 4.51 18.49 15.22 18.49 27.71 0 16.57-13.43 30-30 30s-30-13.43-30-30 13.43-30 30-30c4.08 0 7.97.81 11.51 2.29z" fill="#df6378"/><path d="m77.58 71.47c16.57 0 30 13.43 30 30 0 10.87-5.78 20.39-14.44 25.65-4.54 2.76-9.86 4.35-15.56 4.35-16.57 0-30-13.43-30-30 0-12.48 7.62-23.18 18.47-27.7 3.55-1.48 7.45-2.3 11.53-2.3z" fill="#df6378"/><circle cx="255.99" cy="401" fill="#f2d744" r="100"/><g><path d="m457.839 69.074c5.409-18.803 8.148-38.3 8.148-58.074 0-5.522-4.478-10-10-10s-10 4.478-10 10c0 17.273-2.314 34.303-6.872 50.756-23.917-2.81-44.697 15.932-44.697 39.715 0 10.503 4.075 20.067 10.719 27.212-4.799 6.073-9.975 11.857-15.479 17.309-22.38-12.892-49.966 7.019-44.178 32.625-54.928 29.338-122.3 30.318-178.989.002 4.259-18.835-10.14-36.619-29.255-36.619-5.43 0-10.523 1.458-14.922 3.991-5.499-5.446-10.672-11.224-15.47-17.292 6.654-7.146 10.735-16.718 10.735-27.229 0-23.745-20.751-42.547-44.723-39.712-4.556-16.45-6.87-33.482-6.87-50.759 0-5.522-4.477-10-10-10s-10 4.478-10 10c0 19.783 2.74 39.286 8.151 58.09-10.022 7.276-16.557 19.076-16.557 32.38 0 27.022 26.466 46.457 52.341 38.043 5.935 7.656 12.404 14.91 19.335 21.683-1.3 3.354-2.021 6.996-2.021 10.804 0 25.062 29.002 38.944 48.522 23.573 13.308 7.237 27.184 12.916 41.379 17.055 4.815 24.374 24.496 43.365 48.849 47.511v31.32c-55.985 5.069-100 52.258-100 109.541 0 60.654 49.346 110 110 110s110-49.346 110-110c0-57.283-44.015-104.471-100-109.541v-31.32c24.357-4.147 44.041-23.145 48.852-47.524 14.252-4.154 28.13-9.844 41.375-17.043 19.538 15.386 48.523 1.473 48.523-23.572 0-3.808-.721-7.449-2.021-10.804 6.935-6.776 13.404-14.033 19.338-21.691 25.863 8.43 52.365-10.988 52.365-38.035.002-13.312-6.543-25.12-16.578-32.395zm-400.258 32.397c0-11.028 8.972-20 20-20s20 8.972 20 20-8.972 20-20 20-20-8.972-20-20zm69.656 70.529c0-5.514 4.486-10 10-10s10 4.486 10 10-4.486 10-10 10-10-4.486-10-10zm218.75 229c0 49.626-40.374 90-90 90s-90-40.374-90-90 40.374-90 90-90 90 40.374 90 90zm-90-160c-15.885 0-29.831-9.446-36.246-23.122 24.037 4.198 48.587 4.166 72.5-.017-6.411 13.685-20.362 23.139-36.254 23.139zm118.75-59c-5.514 0-10-4.486-10-10s4.486-10 10-10 10 4.486 10 10-4.486 10-10 10zm59.682-60.529c-11.028 0-20-8.972-20-20s8.972-20 20-20 20 8.972 20 20-8.972 20-20 20z"/><path d="m245.988 341v10.316c-17.681 8.676-21.634 32.194-7.678 46.149l21.213 21.213c3.421 3.419 3.418 8.958 0 12.374-3.41 3.412-8.962 3.412-12.375 0-3.905-3.904-10.237-3.904-14.142 0-3.905 3.906-3.905 10.237 0 14.143 3.723 3.723 8.223 6.201 12.981 7.451v8.354c0 5.522 4.477 10 10 10 5.522 0 10-4.478 10-10v-10.325c17.682-8.649 21.632-32.182 7.678-46.14l-21.213-21.213c-1.653-1.652-2.563-3.85-2.563-6.188 0-7.698 9.385-11.742 14.938-6.187 3.906 3.904 10.236 3.904 14.143 0 3.905-3.905 3.905-10.237 0-14.143-3.731-3.73-8.228-6.214-12.981-7.468v-8.336c0-5.522-4.478-10-10-10-5.524 0-10.001 4.478-10.001 10z"/></g></g></g><g id="Layer_1"/></svg>