<svg clip-rule="evenodd" fill-rule="evenodd" height="512" image-rendering="optimizeQuality" shape-rendering="geometricPrecision" text-rendering="geometricPrecision" viewBox="0 0 512 512" width="512" xmlns="http://www.w3.org/2000/svg"><g id="Layer_x0020_1"><path d="m184 324c-3 22-22 39-45 39h-34v6c0 8 6 15 13 15h35l35-60z" fill="#dbd8dd"/><path d="m240 332-30 52h184c7 0 13-7 13-15v-45h-32c-3 7-8 13-14 18-15 16-35 24-56 24-26 0-51-13-65-34z" fill="#dbd8dd"/><path d="m148 321v-76c0-3 2-5 5-5s5 2 5 5v76c0 3-2 5-5 5s-5-2-5-5zm26-2v-72-1c-1-19-16-34-35-34h-34v141h34c19 0 35-16 35-34z" fill="#464a57"/><path d="m243 249-108 186c8 6 17 10 26 15l215-374c-8-5-16-10-25-14l-107 186c-1 0-1 1-1 1z" fill="#c01456"/><path d="m194 314 36-63h-46v63z" fill="#575b6c"/><path d="m295 236-39 68c7 19 27 33 49 33 28 0 51-23 51-51s-23-51-51-51c-3 0-7 0-10 1zm44 55c-3 0-5-2-5-5 0-16-13-29-29-29-3 0-5-2-5-5s2-5 5-5c22 0 39 17 39 39 0 3-2 5-5 5z" fill="#8fe1fd"/><path d="m366 286c0 34-27 61-61 61-23 0-45-13-55-33l-5 8c13 21 36 34 60 34 27 0 50-16 62-39 0 0 1-1 1-1 4-9 7-19 7-30 0-13-4-26-11-37 0 0 0 0-1-1-12-19-33-31-56-32l-6 9h4c33 0 61 28 61 61z" fill="#4ec3f9"/><path d="m385 286c0 10-2 19-5 28h27v-63h-30c5 11 8 23 8 35z" fill="#575b6c"/><path d="m371 241h36v-45c0-8-6-15-13-15h-29-17-21l-15 25c19 2 36 10 49 24 4 3 7 7 10 11zm24-38c0 9-8 17-18 17-8 0-17-7-17-17s9-17 17-17c10 0 18 8 18 17z" fill="#dbd8dd"/><path d="m377 210c4 0 8-3 8-7s-4-7-8-7c-3 0-7 3-7 7s4 7 7 7z" fill="#d51660"/><path d="m190 203c0-8 7-15 15-15h24c9 0 15 6 15 15s-6 15-15 15h-24c-8 0-15-7-15-15zm74-22c-1 0-1 0-2 0-2-1-4-4-3-7l2-3h-7l-2 7c-1 2-3 3-5 3zm-28 60 35-60h-7c2 0 4-1 5-3l2-7 10-28h12l6-10 3-5 5-10h-41c-2 0-4 1-5 3l-18 50-1 3c-1 3 1 6 3 7h2-69-34-26c-7 0-13 7-13 15v6h34c23 0 42 17 45 39z" fill="#dbd8dd"/><path d="m205 198c-2 0-5 2-5 5s3 5 5 5h24c3 0 5-2 5-5s-2-5-5-5z" fill="#f8d135"/><path d="m144 151h34c4 0 7-3 7-7v-4c0-3-3-6-7-6h-34c-3 0-6 3-6 6v4c0 4 3 7 6 7z" fill="#464a57"/><path d="m173 161h-24v10h24z" fill="#d3d1d5"/><path d="m344 151 8 20h6l-10-27z" fill="#dbd8dd"/><path d="m277 171 16-28h-12l-10 28z" fill="#fdc931"/><path d="m338 162-5 9h8z" fill="#fdc931"/><path d="m256 482c-125 0-226-101-226-226s101-226 226-226 226 101 226 226-101 226-226 226zm-246-226c0 136 110 246 246 246s246-110 246-246-110-246-246-246-246 110-246 246z" fill="#d51660"/><g id="_611609712"><g><path d="m394 394h-191c-3 0-5-2-5-5s2-5 5-5h191c7 0 13-7 13-15v-173c0-8-6-15-13-15h-69c-3 0-5-2-5-5s2-5 5-5h69c13 0 23 11 23 25v173c0 14-10 25-23 25zm-239 0h-37c-13 0-23-11-23-25v-173c0-14 10-25 23-25h160c3 0 5 2 5 5s-2 5-5 5h-160c-7 0-13 7-13 15v173c0 8 6 15 13 15h37c3 0 5 2 5 5s-2 5-5 5z"/></g><g><path d="m305 366c-29 0-56-16-69-41-2-2-1-5 2-6 2-2 5-1 6 2 12 21 36 35 61 35 38 0 70-32 70-70s-32-70-70-70c-3 0-5-2-5-5s2-5 5-5c21 0 41 8 56 24 16 15 24 35 24 56s-8 41-24 56c-15 16-35 24-56 24z"/></g><g><path d="m305 347c-27 0-51-18-59-43-1-2 1-5 4-6 2-1 5 1 6 4 6 20 26 35 49 35 28 0 51-23 51-51s-23-51-51-51c-4 0-9 0-12 1s-4 1-5-2c-1-2 0-7 3-8 4-1 9-1 14-1 33 0 61 28 61 61 0 34-27 61-61 61z"/></g><g><path d="m339 291c-3 0-5-2-5-5 0-16-13-29-29-29-3 0-5-2-5-5s2-5 5-5c22 0 39 17 39 39 0 3-2 5-5 5z"/></g><g><path d="m247 181c-1 0-1 0-2 0-2-1-4-4-3-7l19-53c1-2 3-3 5-3h44c3 0 5 2 5 5s-2 5-5 5h-41l-17 50c-1 2-3 3-5 3zm118 0c-2 0-4-1-5-3l-16-43c-1-3 1-6 3-7 3-1 6 1 7 3l16 43c1 3-1 6-3 7-1 0-1 0-2 0z"/></g><g><path d="m348 181c-2 0-4-1-5-3l-9-25c-1-3 1-6 3-7 3-1 6 1 7 3l9 25c1 3-1 6-3 7-1 0-1 0-2 0zm-84 0c-1 0-1 0-2 0-2-1-4-4-3-7l14-38c1-2 3-3 5-3h23c3 0 5 2 5 5s-2 5-5 5h-20l-12 35c-1 2-3 3-5 3z"/></g><g><path d="m178 181c-3 0-5-2-5-5v-20c0-3 2-5 5-5s5 2 5 5v20c0 3-2 5-5 5zm-34 0c-3 0-5-2-5-5v-20c0-3 2-5 5-5s5 2 5 5v20c0 3-2 5-5 5z"/></g><g><path d="m178 161h-34c-9 0-16-7-16-17v-4c0-9 7-16 16-16h34c9 0 17 7 17 16v4c0 10-7 17-17 17zm-34-27c-3 0-6 3-6 6v4c0 4 3 7 6 7h34c4 0 7-3 7-7v-4c0-3-3-6-7-6z"/></g><g><path d="m139 363h-39c-3 0-5-2-5-5s2-5 5-5h39c19 0 35-16 35-34v-72c0-19-16-35-35-35h-39c-3 0-5-2-5-5s2-5 5-5h39c25 0 45 20 45 45v72c0 24-21 44-45 44z"/></g><g><path d="m412 324h-40c-3 0-5-2-5-5s2-5 5-5h40c3 0 5 2 5 5s-2 5-5 5zm-216 0h-17c-3 0-5-2-5-5s2-5 5-5h17c3 0 5 2 5 5s-2 5-5 5zm216-73h-44c-3 0-5-2-5-5s2-5 5-5h44c3 0 5 2 5 5s-2 5-5 5zm-173 0h-60c-3 0-5-2-5-5s2-5 5-5h60c3 0 5 2 5 5s-2 5-5 5z"/></g><g><path d="m229 218h-24c-8 0-15-7-15-15s7-15 15-15h24c9 0 15 6 15 15s-6 15-15 15zm-24-20c-2 0-5 2-5 5s3 5 5 5h24c3 0 5-2 5-5s-2-5-5-5z"/></g><g><path d="m153 326c-3 0-5-2-5-5v-76c0-3 2-5 5-5s5 2 5 5v76c0 3-2 5-5 5z"/></g><g><path d="m377 220c-8 0-17-7-17-17s9-17 17-17c10 0 18 8 18 17s-8 17-18 17zm0-24c-3 0-7 3-7 7s4 7 7 7c4 0 8-3 8-7s-4-7-8-7z"/></g><g><path d="m256 512c-69 0-133-27-181-75-49-48-75-112-75-181s27-133 75-181c48-49 112-75 181-75s133 27 181 75 75 112 75 181-27 133-75 181-112 75-181 75zm0-502c-136 0-246 110-246 246s110 246 246 246 246-110 246-246-110-246-246-246z"/></g><g><path d="m256 482c-125 0-226-101-226-226s101-226 226-226 226 101 226 226-101 226-226 226zm0-442c-119 0-216 97-216 216s97 216 216 216 216-97 216-216-97-216-216-216z"/></g><g><path d="m163 461c-1 0-2 0-3-1-2-1-3-4-1-7l219-381c1-2 4-3 6-1 3 1 4 4 2 6l-219 381c-1 2-2 3-4 3zm-34-20c-1 0-2 0-3-1-2-1-3-4-1-7l220-379c1-3 4-4 6-2 3 1 4 4 2 7l-220 379c-1 2-2 3-4 3z"/></g></g></g></svg>