<svg clip-rule="evenodd" fill-rule="evenodd" height="512" image-rendering="optimizeQuality" shape-rendering="geometricPrecision" text-rendering="geometricPrecision" viewBox="0 0 512 512" width="512" xmlns="http://www.w3.org/2000/svg"><g id="Layer_x0020_1"><path d="m193 413-23 41c26 12 55 18 86 18 119 0 216-97 216-216 0-71-35-135-88-174l-31 54c26 24 42 58 43 94 14 4 24 16 24 31 0 11-6 21-15 27 9 6 15 16 15 27 0 18-14 32-32 32v28c0 21-17 38-37 38z" fill="#fff"/><path d="m256 482c-125 0-226-101-226-226s101-226 226-226 226 101 226 226-101 226-226 226zm-246-226c0 136 110 246 246 246s246-110 246-246-110-246-246-246-246 110-246 246z" fill="#d31c0f"/><path d="m151 408-16 27c8 6 17 10 26 15l215-374c-8-5-16-10-25-14l-131 227c0 1-1 2-2 3l-66 115c-1 0-1 1-1 1z" fill="#d31c0f"/><path d="m231 347-32 56h152c15 0 27-13 27-28v-28h-47l-11 12c-1 1-3 2-4 2s-3-1-4-2l-11-12z" fill="#fdb65e"/><path d="m266 293 50 55 50-55z" fill="#fdd33f"/><path d="m145 398 30-51h-41v28c0 10 4 18 11 23z" fill="#fdb65e"/><path d="m129 337h52l-6 10-30 51-5 8-13 23-2 4c-2 3-1 6 1 7 1 1 2 1 3 1 2 0 3-1 4-3l2-3 16-27 1-1 66-115 2-3 131-227 2-3c2-3 1-6-2-7-2-2-5-1-6 2l-3 4-30 52-5 9-64 110-6 10-25 44-6 10h-82c-12 0-22 10-22 22s10 22 22 22z" fill="#a86114"/><path d="m124 283h88l25-44h-113c-12 0-22 10-22 22s10 22 22 22z" fill="#864d0e"/><path d="m258 300-21 37h55z" fill="#a86114"/><path d="m379 293-39 44h43 5c12 0 22-10 22-22s-10-22-22-22z" fill="#a86114"/><path d="m268 283h108 2 10c12 0 22-10 22-22s-10-22-22-22h-95z" fill="#864d0e"/><path d="m299 229h87c-1-32-15-62-38-85z" fill="#fdb65e"/><path d="m243 229 64-110c-12-5-29-10-47-10h-8c-67 0-122 53-126 120zm0-41c0 3-2 5-5 5h-12c-3 0-5-2-5-5s2-5 5-5h12c3 0 5 2 5 5zm-48 6c0 3-2 5-5 5h-13c-3 0-5-2-5-5s2-5 5-5h13c3 0 5 2 5 5zm76-45h-12c-3 0-5-2-5-5s2-5 5-5h12c3 0 5 2 5 5s-2 5-5 5zm-63 7h-12c-3 0-5-2-5-5s2-5 5-5h12c3 0 5 2 5 5s-2 5-5 5z" fill="#fdb65e"/><path d="m116 230c2-35 16-67 40-92 26-25 60-39 96-39h8c21 0 39 6 52 11l30-52c-26-12-55-18-86-18-119 0-216 97-216 216 0 71 34 134 87 173l13-23c-10-7-16-18-16-31v-28c-18 0-32-14-32-32 0-11 6-21 15-27-9-6-15-16-15-27 0-15 10-27 24-31z" fill="#fff"/><g id="_343184328"><g><path d="m121 239c-3 0-5-2-5-5 0-36 15-70 40-96 26-25 60-39 96-39h8c23 0 43 7 56 12 2 2 4 5 3 7-2 3-5 4-7 3-12-6-31-12-52-12h-8c-68 0-125 56-126 125 0 3-2 5-5 5zm270 0c-3 0-5-2-5-5 0-35-15-69-42-93-2-2-3-5-1-7s5-3 7-1c29 26 46 63 46 101 0 3-2 5-5 5z"/></g><g><path d="m388 293h-128c-3 0-5-2-5-5s2-5 5-5h128c12 0 22-10 22-22s-10-22-22-22h-97c-3 0-5-2-5-5s2-5 5-5h97c18 0 32 14 32 32s-14 32-32 32zm-173 0h-91c-18 0-32-14-32-32s14-32 32-32h121c3 0 5 2 5 5s-2 5-5 5h-121c-12 0-22 10-22 22s10 22 22 22h91c3 0 5 2 5 5s-2 5-5 5z"/></g><g><path d="m388 347h-58c-3 0-5-2-5-5s2-5 5-5h58c12 0 22-10 22-22s-10-22-22-22h-11c-3 0-5-2-5-5s2-5 5-5h11c18 0 32 14 32 32s-14 32-32 32zm-85 0h-74c-2 0-5-2-5-5s3-5 5-5h74c3 0 5 2 5 5s-2 5-5 5zm-120 0h-59c-18 0-32-14-32-32s14-32 32-32h89c3 0 5 2 5 5s-2 5-5 5h-89c-12 0-22 10-22 22s10 22 22 22h59c2 0 5 2 5 5s-3 5-5 5z"/></g><g><path d="m316 361c-1 0-3-1-4-2l-58-64c-2-2-1-5 1-7s5-1 7 1l54 59 57-63c2-3 5-3 7-1s3 5 1 7l-61 68c-1 1-3 2-4 2z"/></g><g><path d="m351 413h-160c-3 0-5-2-5-5s2-5 5-5h160c15 0 27-13 27-28v-33c0-3 2-5 5-5s5 2 5 5v33c0 21-17 38-37 38zm-204-3c-1 0-1 0-1-1-14-6-22-19-22-34v-33c0-3 2-5 5-5s5 2 5 5v33c0 11 5 20 15 25 3 2 4 5 3 7s-3 3-5 3z"/></g><g><path d="m208 156h-12c-3 0-5-2-5-5s2-5 5-5h12c3 0 5 2 5 5s-2 5-5 5z"/></g><g><path d="m238 193h-12c-3 0-5-2-5-5s2-5 5-5h12c3 0 5 2 5 5s-2 5-5 5z"/></g><g><path d="m271 149h-12c-3 0-5-2-5-5s2-5 5-5h12c3 0 5 2 5 5s-2 5-5 5z"/></g><g><path d="m190 199h-13c-3 0-5-2-5-5s2-5 5-5h13c3 0 5 2 5 5s-2 5-5 5z"/></g><g><path d="m256 512c-69 0-133-27-181-75-49-48-75-112-75-181s27-133 75-181c48-49 112-75 181-75s133 27 181 75 75 112 75 181-27 133-75 181-112 75-181 75zm0-502c-136 0-246 110-246 246s110 246 246 246 246-110 246-246-110-246-246-246z"/></g><g><path d="m256 482c-125 0-226-101-226-226s101-226 226-226 226 101 226 226-101 226-226 226zm0-442c-119 0-216 97-216 216s97 216 216 216 216-97 216-216-97-216-216-216z"/></g><g><path d="m163 461c-1 0-2 0-3-1-2-1-3-4-1-7l219-381c1-2 4-3 6-1 3 1 4 4 2 6l-219 381c-1 2-2 3-4 3zm-34-20c-1 0-2 0-3-1-2-1-3-4-1-7l220-379c1-3 4-4 6-2 3 1 4 4 2 7l-220 379c-1 2-2 3-4 3z"/></g></g></g></svg>