<svg height="512" viewBox="0 0 128 128" width="512" xmlns="http://www.w3.org/2000/svg"><g><circle cx="64" cy="64" fill="#e6f2ff" r="45.329"/><path d="m41.32 60.305c0-10.825 6.245-20.041 14.98-23.516s-4.939-6.238-12.484-2.575c-8.85 4.3-22.375 32.139-1.824 32.139h.008a27.4 27.4 0 0 1 -.68-6.048z" fill="#804040"/><path d="m84.185 34.214c-7.546-3.663-12.485 2.575-12.485 2.575 8.735 3.475 14.98 12.691 14.98 23.516a27.456 27.456 0 0 1 -.68 6.048c20.56 0 7.035-27.842-1.815-32.139z" fill="#804040"/><path d="m86.68 60.305c0-13.8-10.154-25-22.68-25s-22.68 11.191-22.68 25a25.973 25.973 0 0 0 8.451 19.46c-.038.468-.065.94-.065 1.42 0 8.7 6.4 15.754 14.294 15.754s14.294-7.054 14.294-15.754c0-.48-.027-.952-.065-1.42a25.973 25.973 0 0 0 8.451-19.46z" fill="#995c5c"/><circle cx="64" cy="75.383" fill="#405580" r="4.812"/><path d="m64 6.307a57.693 57.693 0 1 0 57.693 57.693 57.693 57.693 0 0 0 -57.693-57.693zm0 103.022a45.324 45.324 0 0 1 -36.121-72.708l63.5 63.5a45.12 45.12 0 0 1 -27.379 9.208zm36.121-17.95-63.5-63.5a45.324 45.324 0 0 1 63.5 63.5z" fill="#ff415b"/><g><path d="m25.351 22.916a1.739 1.739 0 0 0 1.17-.45c.91-.82 1.855-1.619 2.811-2.375a1.75 1.75 0 0 0 -2.17-2.746c-1.016.8-2.019 1.651-2.984 2.521a1.75 1.75 0 0 0 1.173 3.05z"/><path d="m100.727 106.2a55.944 55.944 0 0 1 -92.67-42.2 55.337 55.337 0 0 1 12.266-34.96 1.75 1.75 0 1 0 -2.73-2.189 59.444 59.444 0 0 0 85.433 81.988 1.75 1.75 0 1 0 -2.3-2.639z"/><path d="m27.76 34.875a1.749 1.749 0 0 0 -1.275.688 46.656 46.656 0 0 0 -9.564 28.437 47.132 47.132 0 0 0 47.079 47.079 46.656 46.656 0 0 0 28.437-9.564 1.749 1.749 0 0 0 .179-2.631l-63.5-63.5a1.718 1.718 0 0 0 -1.356-.509zm36.24 72.704a43.629 43.629 0 0 1 -43.579-43.579 43.145 43.145 0 0 1 7.671-24.69l4.908 4.905c-1.99 3.891-5.649 12.643-2.049 18.776 1.271 2.165 3.976 4.712 9.673 5.067a27.01 27.01 0 0 0 7.351 12.428c-.01.232-.016.464-.016.7 0 9.651 7.2 17.5 16.044 17.5a15.912 15.912 0 0 0 14.175-9.3l10.512 10.522a43.145 43.145 0 0 1 -24.69 7.671zm-23.207-55.568a28.991 28.991 0 0 0 -1.223 8.295 29.432 29.432 0 0 0 .3 4.162c-2.842-.349-4.833-1.429-5.9-3.249-1.8-3.074-1.139-8.569 1.641-14.393zm18.66 18.659a6.54 6.54 0 0 0 2.8 11.03v13.336c-6.089-.956-10.794-6.794-10.794-13.851 0-.432.025-.857.06-1.279a1.751 1.751 0 0 0 -.581-1.449 24.182 24.182 0 0 1 -7.868-18.151 25.652 25.652 0 0 1 .594-5.425zm6.789 6.79a3.057 3.057 0 1 1 -4.319-4.319zm9.275 9.275a12.829 12.829 0 0 1 -9.767 8.309v-13.344a6.5 6.5 0 0 0 2.962-1.768z"/><path d="m100.121 93.129h.119a1.752 1.752 0 0 0 1.275-.687 47.075 47.075 0 0 0 -65.953-65.957 1.75 1.75 0 0 0 -.178 2.631l63.5 63.5a1.749 1.749 0 0 0 1.237.513zm-36.121-72.708a43.629 43.629 0 0 1 43.579 43.579 43.145 43.145 0 0 1 -7.671 24.69l-14.85-14.85a27.9 27.9 0 0 0 2.328-5.786c7.878-.493 10.172-5.181 10.829-8.042 2.189-9.526-6.8-24.235-13.266-27.371a11.863 11.863 0 0 0 -13.744 2.107 22.184 22.184 0 0 0 -14.389.022 11.856 11.856 0 0 0 -13.2-2.371l-4.306-4.307a43.145 43.145 0 0 1 24.69-7.671zm-11.729 20.632a19.554 19.554 0 0 1 11.729-3.993c11.541 0 20.93 10.427 20.93 23.246a25.175 25.175 0 0 1 -2.473 10.933zm-5.918-5.918a8.086 8.086 0 0 1 6.847 1.2 24 24 0 0 0 -3.412 2.231zm28.461 1.2a8.187 8.187 0 0 1 8.606-.542c5.28 2.558 13.18 15.607 11.38 23.435-.707 3.076-2.91 4.795-6.677 5.244a29.406 29.406 0 0 0 .3-4.166c.007-10.499-5.549-19.599-13.609-23.975z"/><path d="m64 4.557a59.513 59.513 0 0 0 -28.667 7.357 1.749 1.749 0 1 0 1.689 3.064 55.95 55.95 0 0 1 69.422 85.467 1.75 1.75 0 0 0 2.655 2.282 59.445 59.445 0 0 0 -45.099-98.17z"/><path d="m74.671 53.956a2.5 2.5 0 1 0 2.5 2.5 2.5 2.5 0 0 0 -2.5-2.5z"/></g></g></svg>