<svg height="512" viewBox="0 0 128 128" width="512" xmlns="http://www.w3.org/2000/svg"><g><circle cx="64" cy="64" fill="#e6f2ff" r="45.329"/><path d="m30.066 59.409h56.72v9.182h-56.72z" fill="#995c5c"/><path d="m64 6.307a57.693 57.693 0 1 0 57.693 57.693 57.693 57.693 0 0 0 -57.693-57.693zm0 103.022a45.323 45.323 0 0 1 -36.121-72.707l63.5 63.5a45.12 45.12 0 0 1 -27.379 9.207zm36.121-17.951-63.5-63.5a45.323 45.323 0 0 1 63.5 63.5z" fill="#ff415b"/><g><path d="m27.76 34.876a1.747 1.747 0 0 0 -1.275.688 46.651 46.651 0 0 0 -9.564 28.436 47.133 47.133 0 0 0 47.079 47.079 46.651 46.651 0 0 0 28.436-9.564 1.75 1.75 0 0 0 .18-2.631l-63.5-63.5a1.749 1.749 0 0 0 -1.356-.508zm36.24 72.703a43.628 43.628 0 0 1 -43.579-43.579 43.153 43.153 0 0 1 7.671-24.69l18.35 18.349h-16.376a1.751 1.751 0 0 0 -1.75 1.75v9.182a1.751 1.751 0 0 0 1.75 1.75h29.057l29.567 29.567a43.153 43.153 0 0 1 -24.69 7.671zm-8.377-40.738h-23.807v-5.682h18.126z"/><path d="m64 4.557a59.5 59.5 0 0 0 -28.667 7.357 1.75 1.75 0 0 0 1.69 3.065 55.95 55.95 0 0 1 69.421 85.466 1.75 1.75 0 0 0 2.655 2.281 59.444 59.444 0 0 0 -45.099-98.169z"/><path d="m100.727 106.2a55.944 55.944 0 0 1 -92.67-42.2 55.332 55.332 0 0 1 12.267-34.96 1.75 1.75 0 0 0 -2.732-2.189 59.445 59.445 0 0 0 85.434 81.988 1.75 1.75 0 1 0 -2.3-2.639z"/><path d="m25.351 22.917a1.739 1.739 0 0 0 1.172-.452c.9-.815 1.848-1.614 2.809-2.374a1.75 1.75 0 1 0 -2.171-2.745c-1.021.807-2.025 1.656-2.984 2.522a1.75 1.75 0 0 0 1.174 3.049z"/><path d="m98.884 92.616a1.75 1.75 0 0 0 1.237.512h.119a1.747 1.747 0 0 0 1.275-.688 46.651 46.651 0 0 0 9.564-28.44 47.133 47.133 0 0 0 -47.079-47.079 46.651 46.651 0 0 0 -28.436 9.564 1.75 1.75 0 0 0 -.18 2.631zm-26.507-31.457h12.659v5.682h-6.978zm-8.377-40.738a43.628 43.628 0 0 1 43.579 43.579 43.153 43.153 0 0 1 -7.671 24.69l-18.35-18.349h5.228a1.751 1.751 0 0 0 1.75-1.75v-9.182a1.751 1.751 0 0 0 -1.75-1.75h-17.909l-29.567-29.567a43.153 43.153 0 0 1 24.69-7.671z"/><path d="m97.934 68.169a1.75 1.75 0 0 0 1.75-1.75v-4.838a1.75 1.75 0 1 0 -3.5 0v4.838a1.75 1.75 0 0 0 1.75 1.75z"/><path d="m92.36 57.659a1.751 1.751 0 0 0 -1.75 1.75v9.182a1.75 1.75 0 0 0 3.5 0v-9.182a1.751 1.751 0 0 0 -1.75-1.75z"/><path d="m87.094 48.933a3.52 3.52 0 0 1 3.516 3.516v.056a1.726 1.726 0 0 0 1.75 1.722 1.774 1.774 0 0 0 1.75-1.778 7.024 7.024 0 0 0 -7.016-7.016 3.52 3.52 0 0 1 -3.516-3.516v-1.284a1.75 1.75 0 0 0 -3.5 0v1.284a7.024 7.024 0 0 0 7.016 7.016z"/></g></g></svg>