<svg id="Capa_1" enable-background="new 0 0 512 512" height="512" viewBox="0 0 512 512" width="512" xmlns="http://www.w3.org/2000/svg"><g><g><circle cx="256" cy="256" fill="#f7e365" r="248.5"/></g><g><path d="m406.364 58.158c31.779 41.748 50.658 93.848 50.658 150.364 0 137.243-111.257 248.5-248.5 248.5-56.516 0-108.616-18.879-150.364-50.658 45.392 59.633 117.115 98.136 197.842 98.136 137.243 0 248.5-111.257 248.5-248.5 0-80.727-38.503-152.45-98.136-197.842z" fill="#f3d332"/></g><g><circle cx="256" cy="256" fill="#b7e546" r="207.083"/></g><g><path d="m385.088 94.081c28.261 35.402 45.165 80.268 45.165 129.088 0 114.369-92.714 207.083-207.083 207.083-48.82 0-93.687-16.904-129.088-45.165 37.944 47.532 96.37 77.995 161.919 77.995 114.369 0 207.083-92.714 207.083-207.083-.001-65.548-30.464-123.973-77.996-161.918z" fill="#abd641"/></g><g><path d="m256 199.431c8.349 0 16.274 1.833 23.414 5.094l78.075-90.804c-28.61-20.446-63.643-32.479-101.489-32.479s-72.879 12.034-101.489 32.478l78.075 90.804c7.14-3.261 15.065-5.093 23.414-5.093z" fill="#3a67c1"/></g><g><path d="m207.01 284.285c-4.174-7.23-6.55-15.01-7.296-22.824l-117.677-22.213c-3.4 35 3.695 71.356 22.618 104.132s46.861 57.098 78.872 71.653l39.601-113.017c-6.394-4.554-11.944-10.501-16.118-17.731z" fill="#3a67c1"/></g><g><path d="m304.99 284.285c-4.175 7.23-9.724 13.177-16.118 17.73l39.601 113.017c32.011-14.555 59.949-38.878 78.872-71.653s26.018-69.132 22.618-104.132l-117.677 22.213c-.746 7.815-3.121 15.594-7.296 22.825z" fill="#3a67c1"/></g><g><circle cx="256" cy="256" fill="#3a67c1" r="24.244"/></g><g><path d="m437.019 74.981c-48.353-48.352-112.64-74.981-181.019-74.981s-132.666 26.629-181.019 74.981c-48.352 48.353-74.981 112.64-74.981 181.019s26.629 132.666 74.981 181.019c48.353 48.352 112.64 74.981 181.019 74.981 29.757 0 58.917-5.063 86.673-15.049 26.818-9.648 51.714-23.656 73.997-41.634 3.224-2.601 3.729-7.323 1.127-10.546-2.601-3.224-7.323-3.729-10.546-1.127-42.647 34.407-96.363 53.356-151.251 53.356-64.372 0-124.892-25.069-170.412-70.588s-70.588-106.04-70.588-170.412 25.069-124.892 70.588-170.412 106.04-70.588 170.412-70.588 124.892 25.069 170.412 70.588 70.588 106.04 70.588 170.412c0 61.313-23.048 119.744-64.9 164.529-2.828 3.026-2.667 7.772.359 10.601 3.026 2.828 7.772 2.668 10.601-.359 44.457-47.574 68.94-109.642 68.94-174.771 0-68.379-26.629-132.666-74.981-181.019z"/><path d="m96.583 123.604c-3.278-2.531-7.988-1.927-10.52 1.353-29.206 37.824-44.643 83.138-44.643 131.043 0 57.318 22.32 111.204 62.848 151.732s94.414 62.848 151.732 62.848 111.204-22.32 151.732-62.848 62.848-94.414 62.848-151.732-22.32-111.204-62.848-151.732-94.414-62.848-151.732-62.848c-54.063 0-105.713 20.174-145.435 56.807-3.045 2.808-3.237 7.553-.429 10.598s7.553 3.236 10.598.429c36.944-34.071 84.982-52.834 135.266-52.834 110.049 0 199.58 89.531 199.58 199.58s-89.531 199.58-199.58 199.58-199.58-89.531-199.58-199.58c0-44.557 14.356-86.701 41.517-121.876 2.531-3.279 1.925-7.989-1.354-10.52z"/><path d="m361.85 107.618c-31.021-22.163-67.623-33.878-105.85-33.878s-74.829 11.715-105.85 33.877c-1.714 1.224-2.833 3.113-3.086 5.204-.252 2.091.386 4.191 1.759 5.789l78.08 90.8c2.178 2.532 5.766 3.318 8.802 1.932 6.412-2.928 13.24-4.412 20.295-4.412s13.883 1.484 20.295 4.412c1.001.458 2.062.678 3.113.678 2.136 0 4.23-.914 5.689-2.611l33.86-39.38c2.7-3.141 2.343-7.876-.797-10.577-3.14-2.7-7.875-2.344-10.577.797l-30.355 35.305c-6.809-2.408-13.926-3.625-21.228-3.625s-14.419 1.217-21.228 3.625l-69.095-80.351c26.946-17.34 58-26.464 90.323-26.464s63.377 9.124 90.323 26.464l-15.92 18.516c-2.7 3.141-2.343 7.876.797 10.577 3.14 2.7 7.876 2.344 10.577-.797l21.4-24.89c1.373-1.597 2.011-3.698 1.759-5.789s-1.372-3.978-3.086-5.202z"/><path d="m77.537 233.249c-1.685 1.264-2.76 3.178-2.964 5.274-3.686 37.939 4.47 75.495 23.587 108.606s47.563 58.953 82.263 74.73c.986.448 2.045.673 3.104.673 1.001 0 2.004-.201 2.945-.603 1.937-.827 3.437-2.43 4.133-4.417l39.601-113.017c1.104-3.151-.008-6.652-2.728-8.589-5.746-4.092-10.447-9.263-13.974-15.371-3.526-6.108-5.655-12.766-6.325-19.787-.317-3.324-2.793-6.038-6.075-6.657l-117.675-22.213c-2.069-.39-4.208.107-5.892 1.371zm11.369 14.927 104.135 19.657c1.319 7.103 3.823 13.877 7.474 20.201 3.65 6.323 8.265 11.878 13.758 16.573l-35.044 100.013c-28.487-14.661-51.914-36.992-68.079-64.991-16.165-27.998-23.791-59.452-22.244-91.453z"/><path d="m321.395 417.512c.696 1.988 2.196 3.591 4.133 4.417.941.402 1.943.603 2.945.603 1.06 0 2.119-.225 3.104-.673 34.7-15.777 63.146-41.619 82.263-74.73s27.273-70.667 23.587-108.606c-.204-2.096-1.279-4.01-2.964-5.274-1.685-1.265-3.826-1.763-5.892-1.371l-117.676 22.213c-3.281.619-5.758 3.333-6.075 6.657-.67 7.021-2.799 13.679-6.325 19.787s-8.228 11.279-13.974 15.371c-2.72 1.937-3.832 5.438-2.728 8.589zm-9.91-129.477c3.651-6.324 6.155-13.098 7.474-20.201l104.135-19.657c1.546 32-6.08 63.455-22.244 91.453-16.165 27.999-39.592 50.33-68.079 64.991l-35.044-100.012c5.494-4.696 10.108-10.251 13.758-16.574z"/><path d="m256 224.256c-17.504 0-31.744 14.24-31.744 31.744s14.24 31.744 31.744 31.744 31.744-14.24 31.744-31.744-14.24-31.744-31.744-31.744zm0 48.488c-9.233 0-16.744-7.511-16.744-16.744s7.511-16.744 16.744-16.744 16.744 7.511 16.744 16.744-7.511 16.744-16.744 16.744z"/></g></g></svg>