<svg height="512" viewBox="0 0 128 128" width="512" xmlns="http://www.w3.org/2000/svg"><g><g><g fill="#537980"><path d="m64 118.5h17.5v-8.93l-9.652-15.07h-7.848z"/><path d="m64 118.5h-17.5v-8.93l9.652-15.07h7.848z"/></g><path d="m64 121.5a3 3 0 0 1 -3-3v-29a3 3 0 0 1 3-3 3 3 0 0 1 3 3v29a3 3 0 0 1 -3 3z" fill="#385b60"/><path d="m66.174 7.434a3 3 0 0 0 -4.35 0 55.723 55.723 0 0 0 -15.324 38.379v37.487a12 12 0 0 0 5.289 9.948l3.611 2.434h17.21l3.606-2.432a12 12 0 0 0 5.284-9.95v-37.485a55.725 55.725 0 0 0 -15.326-38.381z" fill="#b360e6"/><g><g fill="#fb9401"><path d="m70 31.354-6 10.4-6-10.4a12.057 12.057 0 0 1 12 0z"/><path d="m52 41.755h12l-6 10.4a12 12 0 0 1 -6-10.4z"/><path d="m76 41.755a12 12 0 0 1 -6 10.4l-6-10.4z"/></g><circle cx="64" cy="41.755" fill="#f9d42f" r="4.5"/></g></g><g fill="#102a3f"><path d="m81.5 68.644a1.749 1.749 0 0 0 -1.75 1.75v12.906a10.235 10.235 0 0 1 -4.518 8.5l-3.162 2.132h-16.14l-3.162-2.132a10.235 10.235 0 0 1 -4.518-8.5v-37.486a53.7 53.7 0 0 1 4.208-20.894 1.75 1.75 0 1 0 -3.227-1.355 57.18 57.18 0 0 0 -4.481 22.249v37.486a13.73 13.73 0 0 0 6.061 11.4l2.189 1.475-2.1 3.269a1.749 1.749 0 0 0 .531 2.417 1.731 1.731 0 0 0 .941.277 1.749 1.749 0 0 0 1.476-.807l2.5-3.9h2.9v19.319h-11v-6.666l.673-1.049a1.75 1.75 0 1 0 -2.946-1.89l-.95 1.48a1.749 1.749 0 0 0 -.277.945v8.93a1.75 1.75 0 0 0 1.75 1.75h13.096a4.735 4.735 0 0 0 8.812 0h13.094a1.749 1.749 0 0 0 1.75-1.75v-8.93a1.75 1.75 0 0 0 -.276-.943l-7.974-12.452 2.189-1.475a13.732 13.732 0 0 0 6.061-11.4v-12.906a1.749 1.749 0 0 0 -1.75-1.75zm-17.5 51.106a1.25 1.25 0 0 1 -1.25-1.25v-21.068h2.5v21.068a1.251 1.251 0 0 1 -1.25 1.25zm15.75-3h-11v-19.318h2.9l8.1 12.65z"/><path d="m67.442 6.228a4.77 4.77 0 0 0 -3.442-1.478 4.77 4.77 0 0 0 -3.444 1.479 57.607 57.607 0 0 0 -7.131 9.224 1.75 1.75 0 1 0 2.975 1.847 54.075 54.075 0 0 1 6.7-8.662 1.278 1.278 0 0 1 1.812 0 53.757 53.757 0 0 1 14.838 37.177v7.567a1.75 1.75 0 1 0 3.5 0v-7.567a57.238 57.238 0 0 0 -15.808-39.587z"/><path d="m81.477 66.427a1.749 1.749 0 0 0 1.75-1.75v-4.659a1.75 1.75 0 0 0 -3.5 0v4.659a1.75 1.75 0 0 0 1.75 1.75z"/><path d="m50.75 71.265v5.741a1.75 1.75 0 0 0 3.5 0v-5.741a1.75 1.75 0 0 0 -3.5 0z"/><path d="m56.458 40h-4.458a1.75 1.75 0 0 0 -1.75 1.75 13.8 13.8 0 0 0 6.874 11.915 1.749 1.749 0 0 0 2.393-.642l2.221-3.857a7.716 7.716 0 0 0 4.524 0l2.221 3.857a1.75 1.75 0 0 0 2.393.642 13.8 13.8 0 0 0 6.874-11.915 1.749 1.749 0 0 0 -1.75-1.75h-4.458a7.742 7.742 0 0 0 -2.259-3.9l2.234-3.878a1.751 1.751 0 0 0 -.64-2.388 14.037 14.037 0 0 0 -13.754 0 1.751 1.751 0 0 0 -.64 2.388l2.234 3.878a7.742 7.742 0 0 0 -2.259 3.9zm.976 9.626a10.32 10.32 0 0 1 -3.534-6.126h2.554a7.749 7.749 0 0 0 2.258 3.906zm2.316-7.871a4.25 4.25 0 1 1 4.25 4.25 4.255 4.255 0 0 1 -4.25-4.25zm10.815 7.871-1.278-2.22a7.749 7.749 0 0 0 2.258-3.906h2.555a10.312 10.312 0 0 1 -3.535 6.126zm-10.1-17.5a10.5 10.5 0 0 1 7.072 0l-1.279 2.22a7.726 7.726 0 0 0 -4.514 0z"/></g></g></svg>