<svg clip-rule="evenodd" fill-rule="evenodd" height="1.707in" image-rendering="optimizeQuality" shape-rendering="geometricPrecision" text-rendering="geometricPrecision" viewBox="0 0 1.70666 1.70666" width="1.707in" xmlns="http://www.w3.org/2000/svg"><g id="Layer_x0020_1"><path d="m1.40867 1.39653h-.0110433c-.00190945.027315-.00355512.0495866-.00477953.0656693h.00266535c.0673898 0 .12222.0548346.12222.122236-.00001181.0673819-.0548465.122217-.12222.122217h-1.08437c-.0673898 0-.122209-.0548346-.122209-.122217 0-.0674016.0548189-.122236.122209-.122236h.0026378c-.00121654-.0160866-.0028622-.0383543-.00477165-.0656693h-.0110315c-.0451535 0-.0818858-.0367323-.0818858-.0818858 0-.0451575.0367323-.0818898.0818858-.0818898h.00055118c-.0130906-.224744-.025563-.529189-.0153346-.760091-.038122-.00698031-.0671024-.040437-.0671024-.0805315 0-.0445709.0357953-.080937.0801496-.0818661.00320079-.0245354.00687402-.0465669.0109803-.0658937-.0655827-.0020748-.118287-.056063-.118287-.122142 0-.0673898.0548189-.12222.122209-.12222h1.08437c.0673898 0 .12222.0548346.12222.12222 0 .0660709-.0527323.120067-.118299.122142.00410236.0193189.00777953.0413504.0109843.0658937.0443465.00093307.0801378.0372992.0801378.0818661-.00000394.0401024-.0289803.0735512-.0670945.0805315.0102165.230807-.00225591.535287-.0153504.760091h.00055906c.0451535 0 .0818858.036748.0818858.0818898 0 .0451378-.0367362.0818858-.0818858.0818858zm-.0511299 0h-1.00844c.00194488.027689.00359843.0499882.00479528.0656693h.998843c.00119685-.0156811.00284646-.0379685.00480315-.0656693zm-1.01894-.163776h.336043c-.142169-.0672165-.240772-.212016-.240772-.379421 0-.167331.0985157-.312071.240579-.379331h-.351283c-.0102362.230051.00233465.534618.0154331.758752zm-.0020315-.922512h1.03347c-.00337402-.025-.00723228-.0470039-.0115669-.0657953l-1.01032.00000787c-.0043189.0187835-.00819291.0408071-.0115827.0657874zm1.04691.16376h-.351307c.142063.0672598.240579.212.240579.379331 0 .167406-.0985984.312205-.240768.379421h.336063c.0130827-.224209.0256535-.528807.0154331-.758752zm.00950787-.12376c-.00007087 0-.0001811.00001575-.00027953 0h-1.07905-.0156772c-.0230945 0-.0418898.0187913-.0418898.0418898 0 .0230945.0187953.041874.0418898.041874h.00612205.540567c.00287795-.00005906.00575591-.00011024.00864567-.00011024s.00576772.00005118.00864567.00011024h.540594.00611811c.0230945 0 .0418898-.0187953.0418898-.041874 0-.0230827-.0187953-.0418898-.0418898-.0418898h-.015685zm-1.08184-.310232c-.0453307 0-.0822087.0368858-.0822087.0822205 0 .0453307.036878.0822087.0822087.0822087h1.06298.0213898c.0453346 0 .0822087-.036878.0822087-.0822087 0-.0453346-.036874-.0822205-.0822087-.0822205h-1.08437zm0 1.46222c-.0453307 0-.0822087.036874-.0822087.0822165 0 .0453346.036878.0822087.0822087.0822087h1.08437c.0453346 0 .0822087-.036874.0822087-.0822087 0-.0453465-.036874-.0822165-.0822087-.0822165h-.0242598-1.03587-.0242362zm.541862-.269472h.00061417c.209079-.00016535.379122-.170303.379122-.379421 0-.206358-.165575-.374764-.370874-.379331h-.0171142c-.20528.00456693-.370878.172972-.370878.379331 0 .209118.170055.379256.37913.379421zm.0504173-.432587c-.00688583 0-.0133071-.00354331-.0169606-.00940157-.00248819-.00397244-.014748-.00984646-.0331535-.00984646-.0184134 0-.0306654.00587402-.0331378.00984646-.00370866.00593307-.010374.00959449-.017248.00940157-.00700394-.00009843-.0134331-.0038622-.0169724-.00990157l-.0540433-.0923425c-.00434252-.00743307-.00345669-.0168189.00223622-.0232913.022374-.0254882.0669291-.0407087.119165-.0407087.0522362 0 .0967913.0152205.119165.0407087.00567717.00647244.00657874.0158622.00223228.0232913l-.0540394.0923425c-.00354331.00604331-.00997244.00980709-.0169724.00990157-.00007087 0-.00017323 0-.00027165 0zm-.0501102-.0592559c.0170394 0 .0323228.00327559.0444882.00926772l.0339724-.0580669c-.0175945-.0112913-.0465118-.0181969-.0784528-.0181969-.0319606 0-.060878.00690551-.0784567.0181969l.0339843.0580669c.0121457-.0059685.0274409-.00926772.0444646-.00926772zm.106555.331846c-.00709449 0-.0137795-.00377953-.017374-.0101102l-.0529606-.0929724c-.0034685-.00608268-.0035-.0135433-.00009843-.0196535.00341732-.00609843.00977953-.01.0167638-.0102362.00469291-.00016535.0159173-.0078189.0251142-.0237795.00920866-.0159409.0102362-.0295.00804331-.0336339-.00327559-.00616929-.00311417-.0136299.00048819-.0196378.00358268-.00601575.0100551-.00970866.0170709-.00974803l.107-.00061024h.00011024c.00856693 0 .0161929.00546063.0189449.0135866.010874.032122.00177953.0783346-.0243465.123551-.0261102.0452323-.0615709.0762087-.0948189.0828425-.00132283.00026378-.00264567.00040158-.00393701.00040158zm-.0241772-.102846.0333071.0584567c.0185669-.00958661.039-.0311654.0549685-.0588346.0159843-.0276772.0244724-.0561772.0234882-.0770512l-.0672913.00037008c-.00088976.0135118-.00570866.0283898-.0142205.0431378-.00851575.014752-.0189882.026378-.030252.0339213zm-.188917.102846c-.00130709 0-.0026063-.0001378-.00391339-.00038976-.0332756-.00664173-.0687244-.0376102-.0948425-.0828465-.026126-.045248-.0352244-.0914291-.0243228-.123551.00276772-.00814961.0102953-.0134173.0190551-.0135827l.107.0006063c.00700394.00004331.0134724.00374016.0170551.00974803.00358661.00601181.00377953.0134606.00048819.0196378-.00219291.0041378-.00116535.0176969.00804331.0336378s.0204291.0236102.0251142.0237795c.007.00025197.0133465.0041378.0167638.0102362.00341732.00611024.00337402.0135709-.00008268.0196535l-.0529724.0929685c-.00362205.00631102-.0103031.0101024-.0173858.0101024zm-.0875945-.180287c-.00098425.020874.00750394.049374.0234724.0770394.0159724.0276772.0364134.0492638.0549843.0588583l.0333071-.0584724c-.011248-.00754331-.0217362-.0191378-.030252-.0338898-.0085315-.0147638-.013315-.0296378-.0142362-.0431535l-.0672756-.00038189zm.194134.0422205c-.0352323 0-.0639134-.0286693-.0639134-.0639331 0-.0352323.0286654-.0639134.0639134-.0639134.035252 0 .0639173.0286654.0639173.0639134 0 .0352638-.0286654.0639331-.0639173.0639331zm0-.0878307c-.0131811 0-.0239134.0107244-.0239134.0239134 0 .0131929.0107244.0239173.0239134.0239173.0131929 0 .0239016-.0107244.0239016-.0239173 0-.013189-.0107047-.0239134-.0239016-.0239134zm0 .342256c-.18515 0-.335783-.150638-.335783-.335783 0-.18515.150638-.335776.335783-.335776.18515 0 .335787.150622.335787.335776 0 .18515-.150618.335783-.335787.335783zm0-.631559c-.163094 0-.295783.132689-.295783.295776 0 .163094.132689.295776.295783.295776s.295776-.132681.295776-.295776c0-.163094-.132665-.295776-.295776-.295776zm-.555335.715213c-.0230945 0-.0418898.0187913-.0418898.0418898 0 .0230787.0187953.0418701.0418898.0418701h.0294213 1.05182.0294528c.0230945 0 .0418898-.0187913.0418898-.0418701 0-.0230984-.0187953-.0418898-.0418898-.0418898h-.0217795-.533579-.533559-.0217756z" fill="#000002"/><path d="m.311138.204437h1.06298.0213898c.0453346 0 .0822087-.036878.0822087-.0822087 0-.0453346-.036874-.0822205-.0822087-.0822205h-1.08437c-.0453307 0-.0822087.0368858-.0822087.0822205 0 .0453307.036878.0822087.0822087.0822087z" fill="#757a83"/><path d="m1.35847.244445-1.01032.00000787c-.0043189.0187835-.00819291.0408071-.0115827.0657874h1.03347c-.00337402-.025-.00723228-.0470039-.0115669-.0657953z" fill="#555a66"/><path d="m1.3927.35024h-1.07905-.0156772c-.0230945 0-.0418898.0187913-.0418898.0418898 0 .0230945.0187953.041874.0418898.041874h.00612205.540567l.00864567-.00011024.00864567.00011024h.540594.00611811c.0230945 0 .0418898-.0187953.0418898-.041874 0-.0230827-.0187953-.0418898-.0418898-.0418898h-.015685c-.00007087 0-.0001811.00001575-.00027953 0z" fill="#757a83"/><path d="m.43387.853331c0-.167331.0985157-.312071.240579-.379331h-.351283c-.0102362.230051.00233465.534618.0154331.758752h.336043c-.142169-.0672165-.240772-.212016-.240772-.379421z" fill="#555a66"/><g fill="#ffc335"><path d="m.853315.673913c-.0319606 0-.060878.00690551-.0784567.0181969l.0339843.0580669c.0121457-.0059685.0274409-.00926772.0444646-.00926772.0170394 0 .0323228.00327559.0444882.00926772l.0339724-.0580669c-.0175945-.0112913-.0465118-.0181969-.0784528-.0181969z"/><path d="m.877209.870772c0-.013189-.0107047-.0239134-.0239016-.0239134-.0131811 0-.0239134.0107244-.0239134.0239134 0 .0131929.0107244.0239173.0239134.0239173.0131929 0 .0239016-.0107244.0239016-.0239173z"/><path d="m.770937.969894c-.011248-.00754331-.0217362-.0191378-.030252-.0338898-.0085315-.0147638-.013315-.0296378-.0142362-.0431535l-.0672756-.00038189c-.00098425.020874.00750394.049374.0234724.0770394.0159724.0276772.0364134.0492638.0549843.0588583l.0333071-.0584724z"/><path d="m.965937.935988c-.00851575.014752-.0189882.026378-.030252.0339213l.0333071.0584567c.0185669-.00958661.039-.0311654.0549685-.0588346.0159843-.0276772.0244724-.0561772.0234882-.0770512l-.0672913.00037008c-.00088976.0135118-.00570866.0283898-.0142205.0431378z"/></g><path d="m.956909.852984.107-.00061024h.00011024c.00856693 0 .0161929.00546063.0189449.0135866.010874.032122.00177953.0783346-.0243465.123551-.0261102.0452323-.0615709.0762087-.0948189.0828425-.00132283.00026378-.00264567.00040158-.00393701.00040158-.00709449 0-.0137795-.00377953-.017374-.0101102l-.0529606-.0929724c-.0034685-.00608268-.0035-.0135433-.00009843-.0196535.00341732-.00609843.00977953-.01.0167638-.0102362.00469291-.00016535.0159173-.0078189.0251142-.0237795.00920866-.0159409.0102362-.0295.00804331-.0336339-.00327559-.00616929-.00311417-.0136299.00048819-.0196378.00358268-.00601575.0100551-.00970866.0170709-.00974803zm-.103602.296122c.163094 0 .295776-.132681.295776-.295776 0-.163094-.132665-.295776-.295776-.295776-.163094 0-.295783.132689-.295783.295776 0 .163094.132689.295776.295783.295776zm.0639173-.27835c0 .0352638-.0286654.0639331-.0639173.0639331-.0352323 0-.0639134-.0286693-.0639134-.0639331 0-.0352323.0286654-.0639134.0639134-.0639134.035252 0 .0639173.0286654.0639173.0639134zm.00343701-.0804921c-.00354331.00604331-.00997244.00980709-.0169724.00990157h-.00027165c-.00688583 0-.0133071-.00354331-.0169606-.00940157-.00248819-.00397244-.014748-.00984646-.0331535-.00984646-.0184134 0-.0306654.00587402-.0331378.00984646-.00370866.00593307-.010374.00959449-.017248.00940157-.00700394-.00009843-.0134331-.0038622-.0169724-.00990157l-.0540433-.0923425c-.00434252-.00743307-.00345669-.0168189.00223622-.0232913.022374-.0254882.0669291-.0407087.119165-.0407087.0522362 0 .0967913.0152205.119165.0407087.00567717.00647244.00657874.0158622.00223228.0232913l-.0540394.0923425zm-.103535.179421-.0529724.0929685c-.00362205.00631102-.0103031.0101024-.0173858.0101024-.00130709 0-.0026063-.0001378-.00391339-.00038976-.0332756-.00664173-.0687244-.0376102-.0948425-.0828465-.026126-.045248-.0352244-.0914291-.0243228-.123551.00276772-.00814961.0102953-.0134173.0190551-.0135827l.107.0006063c.00700394.00004331.0134724.00374016.0170551.00974803.00358661.00601181.00377953.0134606.00048819.0196378-.00219291.0041378-.00116535.0176969.00804331.0336378s.0204291.0236102.0251142.0237795c.007.00025197.0133465.0041378.0167638.0102362.00341732.00611024.00337402.0135709-.00008268.0196535z" fill="#ff8330"/><path d="m.853307.517555c.18515 0 .335787.150622.335787.335776 0 .18515-.150618.335783-.335787.335783-.18515 0-.335783-.150638-.335783-.335783 0-.18515.150638-.335776.335783-.335776zm.00030709.715197c.209079-.00016535.379122-.170303.379122-.379421 0-.206358-.165575-.374764-.370874-.379331h-.0171142c-.20528.00456693-.370878.172972-.370878.379331 0 .209118.170055.379256.37913.379421h.00061417z" fill="#ffc335"/><path d="m1.03217.474c.142063.0672598.240579.212.240579.379331 0 .167406-.0985984.312205-.240768.379421h.336063c.0130827-.224209.0256535-.528807.0154331-.758752h-.351307z" fill="#555a66"/><path d="m1.38689 1.27277h-.533579-.533559-.0217756c-.0230945 0-.0418898.0187913-.0418898.0418898 0 .0230787.0187953.0418701.0418898.0418701h.0294213 1.05182.0294528c.0230945 0 .0418898-.0187913.0418898-.0418701 0-.0230984-.0187953-.0418898-.0418898-.0418898h-.0217795z" fill="#757a83"/><path d="m1.35754 1.39653h-1.00844c.00194488.027689.00359843.0499882.00479528.0656693h.998843c.00119685-.0156811.00284646-.0379685.00480315-.0656693z" fill="#555a66"/><path d="m1.37125 1.50222h-1.03587-.0242362c-.0453307 0-.0822087.036874-.0822087.0822165 0 .0453346.036878.0822087.0822087.0822087h1.08437c.0453346 0 .0822087-.036874.0822087-.0822087 0-.0453465-.036874-.0822165-.0822087-.0822165h-.0242598z" fill="#757a83"/></g></svg>