<svg id="Capa_1" enable-background="new 0 0 512.001 512.001" height="512" viewBox="0 0 512.001 512.001" width="512" xmlns="http://www.w3.org/2000/svg"><g><g><path d="m454.315 237.629h-335.834v207.87h187.178v-156.937h142.989l10.885-8.606v-34.196z" fill="#f9f6f6"/><path d="m122.103 245.76 7.657-8.131h-69.612l-7.657 8.131v191.362l6.995 8.377h69.612l-6.995-8.377z" fill="#e2d8ec"/><path d="m388.629 279.956h-46.543l-3.271 5.209v158h53.225v-159.798z" fill="#8dcafc"/><path d="m342.938 287.607c0-4.226 3.426-7.652 7.652-7.652h-42.28c-4.226 0-7.652 3.426-7.652 7.652v149.515l4.823 6.043h42.28l-4.823-6.043z" fill="#31a7fb"/><path d="m388.629 279.956v157.166l3.411 4.043h60.775l6.718-4.043v-157.166z" fill="#d5c6e4"/><path d="m458.523 213.093-6.708-6.178h-333.334v38.844h341.052v-12.479c0-6.814-.354-13.545-1.01-20.187z" fill="#d5c6e4"/><path d="m123.114 213.093 9.896-6.178h-69.612l-9.896 6.178c-.657 6.642-1.011 13.372-1.011 20.187v12.479h69.612v-12.479c0-6.814.354-13.545 1.011-20.187z" fill="#c6b4da"/><path d="m214.815 38.832-53.667 48-38.667 88.333-4 20.667v17.261h340.056c-3.272-33.23-14.546-64.107-31.854-90.695l-16.944-1.924-49.842-52.809-1.526-10.314c-6.634-3.868-13.506-7.371-20.589-10.484l-8.385 5.048-63.75-17.664-15.859-4.387c-3.157.095-6.296.263-9.416.5z" fill="#5169cd"/><path d="m240.39 30.359c-98.417 7.472-177.272 84.935-186.903 182.734h69.612c7.214-81.294 53.271-149.918 117.291-182.734z" fill="#3351c5"/><path d="m398.942 134.62-7.294-2.621-40.119-65.667v-5.966c-4.423-4.735-9.002-9.249-13.747-13.498-25.026-10.995-52.682-17.108-81.77-17.108-2.083 0-4.156.042-6.224.105 20.936 12.83 39.812 30.067 55.876 50.717-.001-.002-.003-.005-.005-.007l8.155 2.591 21.5 32.5 13 37.5-1.659 4.49c-.001-.003-.002-.006-.003-.009 5.956 17.556 10.374 36.12 13.002 55.447h59.89c-3.386-27.934-10.469-54.355-20.602-78.474z" fill="#3351c5"/><path d="m497.648 53.852-24.833-8.687-9.618-3.352 21.951 50.375h5.954c8.606-8.486 13.442-20.183 13.403-32.221z" fill="#8dcafc"/><path d="m504.504 59.968c-.019-5.954-1.226-11.991-3.769-17.765-7.687-17.448-25.347-27.56-43.387-26.628l-3.367 5.091 12.481 28.643c13.485-.174 26.716 3.6 38.042 10.659z" fill="#31a7fb"/><path d="m425.481 56.332-3.167 15.5-87.648 37.128-6.18 6.795c7.066 13.144 13.169 27.159 18.17 41.901l99.251-43.726v-8.596l-20.079-49.143z" fill="#e2d8ec"/><g fill="#d5c6e4"><path d="m431.604 70.325-13.957-34.159-6.843-1.914-105.145 46.322c8.425 10.829 16.067 22.606 22.827 35.18z"/><path d="m156.214 279.956h40.721v40.5h-40.721z"/><path d="m253.602 279.956h-27.654v40.5h27.654c5.6 0 10.14-4.54 10.14-10.14v-20.221c-.001-5.6-4.54-10.139-10.14-10.139z"/><path d="m127.202 279.956h-27.654c-5.6 0-10.14 4.54-10.14 10.14v20.221c0 5.6 4.54 10.14 10.14 10.14h27.654z"/></g><path d="m124.275 279.956h34.866v40.5h-34.866z" fill="#8dcafc"/><path d="m194.008 279.956h34.867v40.5h-34.867z" fill="#8dcafc"/><path d="m466.613 437.122h-360.363c-3.997 3.108-7.853 6.043-7.853 6.043v24.5h-15.75l-8.5 8.5v4.5h397l10.449-9.21v-19.349c.001-8.241-6.741-14.984-14.983-14.984z" fill="#3351c5"/><path d="m100.039 452.107c0-8.241 6.743-14.984 14.984-14.984h-69.612c-8.242 0-14.984 6.743-14.984 14.984v19.349l5.861 9.21h69.612l-5.86-9.21v-19.349z" fill="#213993"/><path d="m469.944 44.165-8.129-2.833-36.333 15-1.568 7.673 22.189 50.365c2.276 5.167 8.31 7.51 13.477 5.234l27.158-11.965c5.166-2.276 7.51-8.31 5.233-13.477z" fill="#f9f6f6"/><path d="m431.397 56.923 28.107-12.383c3.977-1.752 8.448-.856 11.449 1.917l-14.475-32.856c-2.276-5.167-8.31-7.51-13.477-5.234l-27.159 11.965c-5.167 2.276-7.51 8.31-5.233 13.477l14.475 32.856c-.02-4.086 2.336-7.99 6.313-9.742z" fill="#e2d8ec"/><path d="m494.787 471.456h-415.929l-4.71 4.71v22.5l6.891 5.832h413.749c5.371 0 9.725-4.354 9.725-9.725v-13.592c-.001-5.371-4.355-9.725-9.726-9.725z" fill="#5169cd"/><path d="m77.124 494.772v-13.592c0-5.371 4.354-9.725 9.725-9.725h-69.612c-5.371 0-9.725 4.354-9.725 9.725v13.592c0 5.371 4.354 9.725 9.725 9.725h69.612c-5.371 0-9.725-4.354-9.725-9.725z" fill="#3351c5"/></g><g><path d="m253.591 272.455h-154.054c-9.727 0-17.64 7.913-17.64 17.64v20.221c0 9.727 7.913 17.64 17.64 17.64h154.054c9.727 0 17.64-7.913 17.64-17.64v-20.221c-.001-9.726-7.914-17.64-17.64-17.64zm-136.827 40.5h-17.227c-1.455 0-2.64-1.185-2.64-2.64v-20.221c0-1.455 1.185-2.64 2.64-2.64h17.227zm34.866 0h-19.866v-25.5h19.866zm34.867 0h-19.867v-25.5h19.867zm34.866 0h-19.866v-25.5h19.866zm34.867-2.639c0 1.455-1.185 2.64-2.64 2.64h-17.228v-25.5h17.228c1.455 0 2.64 1.185 2.64 2.64z"/><path d="m494.775 463.955h-5.689v-11.849c0-12.256-9.859-22.248-22.063-22.474 0-13.609 0-189.725 0-196.352 0-37.078-9.679-74.224-29.422-107.502l5.782-2.547c5.06 4.7 12.552 6.171 19.208 3.236l27.158-11.965c8.014-3.529 12.184-12.3 9.994-20.666 12.63-15.124 15.854-36.476 7.844-54.657s-25.953-30.214-45.63-31.101c-4.647-7.157-13.933-10.122-21.99-6.573h.001l-27.159 11.965c-6.641 2.924-10.63 9.431-10.576 16.359l-43.437 19.137c-31.385-17.533-66.636-26.706-102.795-26.706-116.036 0-211.021 94.001-211.021 211.021v196.352c-12.205.226-22.064 10.217-22.064 22.474v11.849h-5.69c-9.498-.001-17.226 7.727-17.226 17.225v13.592c0 9.498 7.728 17.225 17.226 17.225h221.275c4.143 0 7.5-3.357 7.5-7.5s-3.357-7.5-7.5-7.5h-221.275c-1.228 0-2.226-.998-2.226-2.225v-13.592c0-1.228.998-2.226 2.226-2.226h477.55c1.228 0 2.226.998 2.226 2.226v13.592c0 1.227-.998 2.225-2.226 2.225h-221.275c-4.143 0-7.5 3.357-7.5 7.5s3.357 7.5 7.5 7.5h221.274c9.498 0 17.226-7.727 17.226-17.225v-13.592c0-9.498-7.728-17.226-17.226-17.226zm-44.739-258.588c.011.075.022.151.033.226h-23.969c-3.32-23.269-9.192-45.759-17.497-67.04l15.163-6.68c13.571 22.429 22.552 47.575 26.27 73.494zm-39.087.226h-44.827c-2.349-14.903-5.782-29.587-10.242-43.812l38.994-17.179c7.512 19.384 12.902 39.836 16.075 60.991zm82.911-160.367c4.589 10.418 4.002 22.305-1.09 32.175l-23.387-53.085c10.72 2.904 19.888 10.494 24.477 20.91zm-75.005-18.03 27.159-11.965h.001c1.366-.605 2.981.014 3.589 1.394.292.664 35.279 80.08 35.491 80.562.606 1.376-.016 2.983-1.394 3.59l-27.158 11.965c-1.18.521-2.836.316-3.781-1.826-.001-.003-.002-.006-.004-.01-3.213-7.293-31.99-72.61-35.298-80.12-.605-1.379.021-2.985 1.395-3.59zm-11.901 16.942c4.215 9.567 24.84 56.384 29.055 65.95l-84.996 37.446c-8.625-23.286-19.93-44.713-33.712-63.898 26.361-11.614 84.177-37.085 89.653-39.498zm-73.23 9.18c1.619 1.47 3.237 2.99 4.849 4.555l-30.663 13.51c-10.227-12.517-21.385-23.627-33.356-33.226 20.427 1.937 40.406 7.061 59.17 15.161zm-85.98-15.872c56.455 35.555 91.964 100.624 103.168 168.147h-288.967c13.118-92.352 90.777-164.194 185.799-168.147zm-187.764 195.835c0-4.242.183-9.028.422-12.688h391.2c.279 4.273.42 8.52.42 12.688v4.979h-392.042zm0 19.979h392.042v19.195c-6.24 0-137.408 0-143.724 0-8.355 0-15.152 6.797-15.152 15.151v142.016h-233.166zm328.637 115.348c-4.143 0-7.5 3.357-7.5 7.5v53.515h-72.971v-142.016c0-.083.068-.151.152-.151h72.818v53.652c0 4.143 3.357 7.5 7.5 7.5s7.5-3.357 7.5-7.5v-53.652h55.905v142.167h-55.905v-53.515c.001-4.143-3.356-7.5-7.499-7.5zm85.469 95.347h-436.17v-11.849c0-4.127 3.357-7.484 7.484-7.484h421.201c4.127 0 7.484 3.357 7.484 7.484v11.849z"/></g></g></svg>