<svg id="Layer_1" enable-background="new 0 0 512 512" viewBox="0 0 512 512" xmlns="http://www.w3.org/2000/svg"><g><g><g><path d="m396.5 424.069h-281c-14.236 0-27.219-5.597-36.557-15.759s-13.82-23.57-12.62-37.756l22.41-264.791c2.435-28.763 27.9-52.164 56.767-52.164h221c28.867 0 54.332 23.401 56.767 52.166l22.41 264.79c1.2 14.186-3.281 27.595-12.62 37.757-9.338 10.161-22.322 15.757-36.557 15.757zm-251-354.47c-20.759 0-39.073 16.829-40.823 37.515l-22.41 264.791c-.819 9.67 2.185 18.755 8.457 25.58 6.272 6.826 15.072 10.585 24.776 10.585h281c9.704 0 18.503-3.759 24.775-10.585 6.272-6.825 9.276-15.91 8.458-25.58l-22.41-264.791c-1.75-20.686-20.063-37.515-40.823-37.515z"/></g></g></g><g><path d="m382.75 303.799c0 44.5-26.72 74.56-62.82 90.16h-127.86c-36.1-15.601-62.82-45.66-62.82-90.16 0-137.08 56.75-248.2 126.75-248.2s126.75 111.12 126.75 248.2z" fill="#b7e4f8"/></g><g><path d="m319.93 401.96h-127.86c-1.091 0-2.171-.224-3.173-.656-20.042-8.661-36.706-21.389-48.19-36.808-12.911-17.334-19.457-37.755-19.457-60.696 0-67.538 13.496-131.159 38-179.143 25.376-49.691 59.736-77.057 96.75-77.057 70.621 0 128.341 100.635 134.262 234.085.195 4.414-3.224 8.15-7.638 8.347-4.406.184-8.15-3.225-8.347-7.638-5.443-122.688-57.397-218.794-118.277-218.794-30.697 0-59.997 24.268-82.5 68.333-23.376 45.773-36.25 106.81-36.25 171.866 0 49.118 34.71 72.395 56.502 82.16h124.497c30.338-13.57 49.856-36.723 55.029-65.343.785-4.348 4.938-7.236 9.295-6.449 4.348.785 7.235 4.947 6.449 9.295-6.24 34.53-29.651 62.175-65.921 77.841-1 .433-2.08.657-3.171.657z"/></g><g><path d="m132.583 438.18h246.834v44.222h-246.834z" fill="#faa41a"/></g><g><path d="m379.42 490.4h-69.42c-4.418 0-8-3.582-8-8s3.582-8 8-8h61.42v-28.22h-230.84v28.22h129.42c4.418 0 8 3.582 8 8s-3.582 8-8 8h-137.42c-4.418 0-8-3.582-8-8v-44.22c0-4.418 3.582-8 8-8h246.84c4.418 0 8 3.582 8 8v44.22c0 4.418-3.582 8-8 8z"/></g><g><g><path d="m379.417 438.18h-246.834l59.487-44.222h127.86z" fill="#fdb732"/></g><g><path d="m379.436 446.18c-.008 0-.013 0-.02 0h-246.833c-3.45 0-6.511-2.211-7.595-5.486-1.084-3.274.053-6.876 2.822-8.934l59.487-44.222c1.38-1.026 3.054-1.58 4.773-1.58h127.86c1.72 0 3.393.554 4.772 1.58l59.137 43.961c2.168 1.431 3.598 3.889 3.598 6.681-.001 4.418-3.582 8-8.001 8zm-222.682-16h198.492l-37.964-28.222h-122.564z"/></g></g><g><path d="m327 29.599 10 64h-162l10-64z" fill="#fdb732"/></g><g><path d="m337 101.6h-162c-2.337 0-4.558-1.022-6.078-2.798s-2.188-4.128-1.827-6.437l10-64c.609-3.895 3.963-6.765 7.904-6.765h29c4.418 0 8 3.582 8 8s-3.582 8-8 8h-22.153l-7.5 48h143.306l-7.5-48h-66.152c-4.418 0-8-3.582-8-8s3.582-8 8-8h73c3.941 0 7.296 2.871 7.904 6.765l10 64c.36 2.309-.307 4.661-1.826 6.437-1.52 1.776-3.74 2.798-6.078 2.798z"/></g><g><g><g><path d="m256 401.958c-4.419 0-8-3.582-8-8v-38.359c0-4.418 3.581-8 8-8 4.418 0 8 3.582 8 8v38.359c0 4.418-3.582 8-8 8z"/></g></g></g><g><path d="m290 314.403c0 34.795-26.001 38.277-34 38.277s-34-3.482-34-38.277 34-63.003 34-63.003 34 28.208 34 63.003z" fill="#f47524"/><path d="m256 360.68c-4.137 0-14.812-.733-24.569-7.523-7.952-5.534-17.431-16.75-17.431-38.753 0-38.115 35.386-67.911 36.892-69.16 2.962-2.458 7.256-2.457 10.216 0 1.507 1.25 36.893 31.045 36.893 69.161 0 22.003-9.479 33.219-17.431 38.753-9.758 6.788-20.433 7.522-24.57 7.522zm-.001-98.307c-8.828 8.931-26 29.233-26 52.03 0 12.119 3.556 20.738 10.57 25.62 6.208 4.32 13.379 4.656 15.43 4.656s9.222-.336 15.43-4.656c7.014-4.882 10.57-13.501 10.57-25.62.001-22.795-17.167-43.095-26-52.03z"/></g></svg>