<svg id="Layer_1-2" viewBox="0 0 64 64" xmlns="http://www.w3.org/2000/svg"><g id="Oil_Tank"><path d="m22 10h8v4h-8z" fill="#bfd3ef"/><path d="m56.262146 16.59918213c-.15924072-.36401367-.51885986-.59918213-.9161377-.59918213h-15.3460083c-.55230713 0-1 .44769287-1 1v5c0-4.42004395-3.58001709-8-8-8h-22c-4.41827393 0-8 3.58172607-8 8v6c0 4.41998291 3.58001709 8 8 8h-1l-5 8h-1c-.54998779 0-1 .45001221-1 1v3c0 1.09997559.90002441 2 2 2h58c1.09997559 0 2-.90002441 2-2v-16zm-17.262146 27.40081787h-4l-5-8h1c4.41998291 0 8-3.58001709 8-8z" fill="#e6f0ff"/><path d="m35 44h-32l5-8h22z" fill="#bfd3ef"/><path d="m63 44h-62v4c0 1.1045695.8954305 2 2 2h58c1.1045695 0 2-.8954305 2-2z" fill="#536170"/><path d="m56.262146 16.59918213c-.15924072-.36401367-.51885986-.59918213-.9161377-.59918213h-15.3460083c-.55230713 0-1 .44769287-1 1v27h24v-12z" fill="#ff8683"/><path d="m57.75 20h-12.75v12h18z" fill="#748793"/><path d="m59 36h4v4h-4z" fill="#ffd278"/><circle cx="16" cy="47" fill="#748793" r="7"/><circle cx="16" cy="47" fill="#657482" r="3"/><circle cx="50" cy="47" fill="#748793" r="7"/><circle cx="50" cy="47" fill="#657482" r="3"/><path d="m26 29c-2.20605469 0-4-1.79394531-4-4 0-1.52734375 2.00878906-4.11328125 4-6 1.99121094 1.88671875 4 4.47265625 4 6 0 2.20605469-1.79394531 4-4 4z" fill="#ffd278"/><g fill="#292930"><path d="m63.91601562 31.59960938-5.25-12-1.75-4c-.15917969-.36425781-.51855469-.59960938-.91601562-.59960938h-17c-.55273438 0-1 .44726562-1 1v.35534668c-1.65118408-2.04370117-4.17388916-3.35534668-7-3.35534668v-2h1c.55273438 0 1-.44726562 1-1s-.44726562-1-1-1h-12c-.55273438 0-1 .44726562-1 1s.44726562 1 1 1h1v2h-12c-4.96289062 0-9 4.03710938-9 9v6c0 4.07037354 2.71740723 7.5135498 6.43218994 8.62194824l-3.98626709 6.37805176h-1.44592285c-.55273438 0-1 .44726562-1 1v4c0 1.65429688 1.34570312 3 3 3h6.0824585c1.38586426 2.38708496 3.9642334 4 6.9175415 4s5.53167725-1.61291504 6.9175415-4h20.16491699c1.38586426 2.38708496 3.9642334 4 6.9175415 4s5.53167725-1.61291504 6.9175415-4h4.0824585c1.65429688 0 3-1.34570312 3-3v-16c0-.09353166-.03475658-.28847707-.08398438-.40039062zm-1.91601562 7.40039062h-2v-2h2zm-.52929688-8h-15.47070312v-10h11.09570312zm-21.47070312-14h15.34570312l.87506104 2h-11.22076416c-.55273438 0-1 .44726562-1 1v12c0 .55273438.44726562 1 1 1h17v2h-3c-.55273438 0-1 .44726562-1 1v4c0 .55273438.44726562 1 1 1h3v2h-5.0824585c-1.38586426-2.38708496-3.9642334-4-6.9175415-4s-5.53167725 1.61291504-6.9175415 4h-3.0824585zm-4.44592285 26-3.7746582-6.03948975c2.5078125-.21655273 4.7230835-1.46240234 6.22058105-3.31585693v9.35534668zm-12.55407715-32h6v2h-6zm-8 6h-4v-2h4zm-13 11v-6c0-3.859375 3.140625-7 7-7v7c0 .55273438.44726562 1 1 1s1-.44726562 1-1v-3h4v3c0 .55273438.44726562 1 1 1s1-.44726562 1-1v-7h14c3.859375 0 7 3.140625 7 7v6c0 3.859375-3.140625 7-7 7h-22c-3.859375 0-7-3.140625-7-7zm6.5546875 9h20.890625l3.75048828 6h-10.27825928c-1.38586426-2.38708496-3.9642334-4-6.9175415-4s-5.53167725 1.61291504-6.9175415 4h-4.27825928zm-5.5546875 12c-.55175781 0-1-.44824219-1-1v-3h6.26330566c-.16583252.64056396-.26330566 1.30834961-.26330566 2s.09747314 1.35943604.26330566 2zm13 4c-3.30859375 0-6-2.69140625-6-6s2.69140625-6 6-6 6 2.69140625 6 6-2.69140625 6-6 6zm7.73669434-4c.16583252-.64056396.26330566-1.30834961.26330566-2s-.09747314-1.35943604-.26330566-2h18.52661133c-.16583252.64056396-.26330566 1.30834961-.26330566 2s.09747314 1.35943604.26330566 2zm26.26330566 4c-3.30859375 0-6-2.69140625-6-6s2.69140625-6 6-6 6 2.69140625 6 6-2.69140625 6-6 6zm12-5c0 .55175781-.44824219 1-1 1h-3.26330566c.16583252-.64056396.26330566-1.30834961.26330566-2s-.09747314-1.35943604-.26330566-2h4.26330566z"/><path d="m16 43c-2.20605469 0-4 1.79394531-4 4s1.79394531 4 4 4 4-1.79394531 4-4-1.79394531-4-4-4zm0 6c-1.10253906 0-2-.89746094-2-2s.89746094-2 2-2 2 .89746094 2 2-.89746094 2-2 2z"/><path d="m50 43c-2.20605469 0-4 1.79394531-4 4s1.79394531 4 4 4 4-1.79394531 4-4-1.79394531-4-4-4zm0 6c-1.10253906 0-2-.89746094-2-2s.89746094-2 2-2 2 .89746094 2 2-.89746094 2-2 2z"/><path d="m26 30c2.75683594 0 5-2.24316406 5-5 0-2.51171875-3.59179688-6.04296875-4.3125081-6.72558594-.38475752-.36523438-.99022627-.36523438-1.37499997 0-.72069506.68261719-4.31249193 4.21386719-4.31249193 6.72558594 0 2.75683594 2.24316406 5 5 5zm0-9.58691406c1.41699219 1.48144531 3 3.53808594 3 4.58691406 0 1.65429688-1.34570312 3-3 3s-3-1.34570312-3-3c0-1.04882812 1.58300781-3.10546875 3-4.58691406z"/></g></g></svg>