<svg clip-rule="evenodd" fill-rule="evenodd" stroke-linejoin="round" stroke-miterlimit="2" viewBox="0 0 96 96" xmlns="http://www.w3.org/2000/svg"><g><g><path d="m34.747 92.723c-.417.168-.895.044-1.177-.305-.283-.349-.305-.842-.054-1.215 5.674-8.351 8.297-14.636 10.062-20.137 3.591-11.197 21.862-2.384 10.869 0-2.907 10.879-9.938 17.633-19.7 21.657z" fill="#9ab931"/><path d="m61.253 92.723c.417.168.895.044 1.177-.305.283-.349.305-.842.054-1.215-5.674-8.351-8.297-14.636-10.062-20.137-3.591-11.197-21.862-2.384-10.869 0 2.907 10.879 9.938 17.633 19.7 21.657z" fill="#acce37"/><path d="m47.012 4.007c.097-.468.509-.804.988-.804.478 0 .89.336.987.804 1.347 4.767 4.491 12.32 11.769 19.79 11.004 11.293 33.244 9.484 33.244 29.777 0 16.054-20.612 29.088-46 29.088s-46-13.034-46-29.088c0-20.293 22.24-18.484 33.244-29.777 7.278-7.47 10.422-15.023 11.768-19.79z" fill="#e96c98"/></g><g><path d="m35.663 90.69c.551-.836 1.072-1.654 1.564-2.451.435-.705.216-1.63-.488-2.065-.705-.435-1.63-.216-2.065.489-.732 1.186-1.529 2.417-2.399 3.697-.001.002-.003.004-.004.006-.619.919-.565 2.135.133 2.997.698.861 1.876 1.166 2.904.751.004-.002.007-.003.011-.004 5.924-2.442 10.875-5.86 14.587-10.516.516-.648.409-1.592-.238-2.108s-1.592-.41-2.108.238c-3.086 3.871-7.121 6.788-11.897 8.966z"/><path d="m60.338 90.691c-2.685-1.225-5.137-2.684-7.319-4.415-.648-.515-1.593-.406-2.107.242-.515.648-.406 1.593.242 2.107 2.789 2.215 5.984 4.024 9.527 5.485.004.001.007.002.011.004 1.028.415 2.206.11 2.904-.751.698-.862.752-2.078.133-2.997-.001-.002-.003-.004-.004-.006-2.229-3.28-3.979-6.235-5.388-8.947-.382-.735-1.288-1.022-2.022-.64-.735.382-1.022 1.288-.64 2.023 1.26 2.425 2.783 5.04 4.663 7.895z"/><path d="m45.558 3.638c-1.309 4.616-4.363 11.901-11.388 19.112-5.388 5.53-13.557 7.797-20.35 11.221-7.428 3.744-13.32 8.736-13.32 19.603 0 6.836 3.458 13.185 9.401 18.311 8.597 7.414 22.458 12.277 38.099 12.277s29.502-4.863 38.099-12.277c5.943-5.126 9.401-11.475 9.401-18.311 0-10.867-5.892-15.859-13.32-19.603-6.793-3.424-14.962-5.691-20.35-11.221-7.018-7.203-10.073-14.481-11.385-19.098-.264-1.141-1.275-1.949-2.445-1.949-1.169 0-2.18.806-2.443 1.939l.001-.004zm2.442 2.278c1.598 4.923 4.895 11.962 11.682 18.927 5.615 5.764 14.068 8.239 21.147 11.807 6.443 3.248 11.671 7.498 11.671 16.924 0 6.007-3.138 11.535-8.36 16.039-8.149 7.028-21.315 11.549-36.14 11.549s-27.991-4.521-36.14-11.549c-5.222-4.504-8.36-10.032-8.36-16.039 0-9.426 5.228-13.676 11.671-16.924 7.079-3.568 15.532-6.043 21.147-11.807 6.787-6.965 10.084-14.004 11.682-18.927z"/><path d="m48 81.162c-17.658 0-32.185-9.066-32.185-23.187 0-6.338 2.681-10.513 6.323-13.952.602-.568.629-1.518.061-2.12s-1.518-.629-2.12-.061c-4.207 3.972-7.264 8.812-7.264 16.133 0 15.613 15.66 26.187 35.185 26.187.828 0 1.5-.672 1.5-1.5 0-.827-.672-1.5-1.5-1.5zm-21.688-40.594c.247-.186.495-.37.744-.554 4.527-3.344 9.372-6.51 12.791-10.948 9.072-11.774 9.651-23.774 9.651-23.774.042-.827-.595-1.532-1.422-1.574s-1.532.596-1.574 1.422c0 0-.592 11.142-9.031 22.095-3.251 4.219-7.893 7.187-12.197 10.366-.256.189-.511.378-.765.569-.662.498-.795 1.439-.297 2.1.498.662 1.439.795 2.1.298z"/><path d="m48 84.162c19.525 0 35.185-10.574 35.185-26.187 0-8.678-4.29-13.87-9.706-18.258-4.99-4.043-10.992-7.344-14.95-12.482-8.439-10.953-9.031-22.095-9.031-22.095-.042-.826-.747-1.464-1.574-1.422s-1.464.747-1.422 1.574c0 0 .579 12 9.651 23.774 4.099 5.321 10.269 8.795 15.437 12.982 4.741 3.841 8.595 8.332 8.595 15.927 0 14.121-14.527 23.187-32.185 23.187-.828 0-1.5.673-1.5 1.5 0 .828.672 1.5 1.5 1.5z"/><path d="m36.407 73.615c-2.353-3.998-3.749-9.347-3.749-15.64 0-9.341 2.809-14.141 5.886-18.649 2.205-3.232 4.527-6.332 6.185-10.636 4.474-11.612 4.771-23.436 4.771-23.436.02-.828-.634-1.516-1.462-1.537s-1.517.634-1.538 1.461c0 0-.288 11.318-4.57 22.434-1.565 4.062-3.783 6.972-5.864 10.023-3.355 4.916-6.408 10.153-6.408 20.34 0 6.91 1.58 12.772 4.163 17.162.42.713 1.34.952 2.054.532.713-.42.951-1.34.532-2.054z"/><path d="m48 84.162c9.945 0 18.342-10.282 18.342-26.187 0-10.187-3.053-15.424-6.408-20.34-2.081-3.051-4.299-5.961-5.864-10.023-4.282-11.116-4.57-22.434-4.57-22.434-.021-.827-.71-1.482-1.538-1.461s-1.482.709-1.462 1.537c0 0 .297 11.824 4.771 23.436 1.658 4.304 3.98 7.404 6.185 10.636 3.077 4.508 5.886 9.308 5.886 18.649 0 13.831-6.694 23.187-15.342 23.187-.828 0-1.5.673-1.5 1.5 0 .828.672 1.5 1.5 1.5z"/></g></g></svg>