<svg id="Layer_1" viewBox="0 0 512 512" xmlns="http://www.w3.org/2000/svg" data-name="Layer 1"><rect fill="#343b41" height="343.68" rx="29.74" width="480" x="16" y="26.39"/><path d="m49.98 55.25h412.05v254.58h-412.05z" fill="#cee1fb"/><g fill-rule="evenodd"><path d="m168.15 444.3h175.7a20.72 20.72 0 0 1 20.66 20.7v20.65h-217v-20.65a20.72 20.72 0 0 1 20.64-20.7z" fill="#343b41"/><path d="m297.63 370.07h-83.26c-3.18 28.4-12.35 54-25.63 74.23h134.52c-13.26-20.21-22.45-45.83-25.63-74.23z" fill="#737373"/><path d="m158.25 161.71h176.3v83.29a13.17 13.17 0 0 1 -8.56 12.5 221 221 0 0 1 -159.18 0 13.17 13.17 0 0 1 -8.56-12.5z" fill="#685e67"/><path d="m122 147.18 107.79-51.63c9.45-4.53 27.1-3.48 39.23 2.33l98.09 47c12.12 5.81 14.31 14.26 4.87 18.78l-107.83 51.61c-9.45 4.52-27.1 3.47-39.23-2.34l-98.09-47c-12.12-5.77-14.32-14.22-4.83-18.75z" fill="#918291"/><path d="m400.26 196.57a15.64 15.64 0 0 1 15.65 15.64c0 8.64-7 25.71-15.65 25.71s-15.64-17.07-15.64-25.71a15.64 15.64 0 0 1 15.64-15.64z" fill="#ffe177"/><path d="m125.42 154.39 107.81-51.63c6.51-3.11 21.36-2.92 32.32 2.33l88.39 42.32h-106.94a8 8 0 0 0 0 16h107l-93.23 44.65c-6.52 3.11-21.37 2.91-32.33-2.33l-98.11-47a17.75 17.75 0 0 1 -5.68-3.91c.2-.12.48-.28.83-.45zm201.12 90.61v-50.74l-58.93 28.22c-5 2.39-11.63 3.57-18.74 3.57a65.67 65.67 0 0 1 -27.4-5.89l-55.23-26.46v51.3a5.18 5.18 0 0 0 3.46 5 212.93 212.93 0 0 0 153.38 0 5.13 5.13 0 0 0 3.46-5zm73.73-15.21c-2.93-1.64-7.66-11.54-7.66-17.59a7.65 7.65 0 1 1 15.29 0c0 6.05-4.73 15.95-7.63 17.59zm-276.91-56.61 26.88 12.82v59a21.28 21.28 0 0 0 13.66 20 229 229 0 0 0 165 0 21.28 21.28 0 0 0 13.66-20v-58.4l32.88-15.76a19.22 19.22 0 0 0 8.56-7.44h2.18a6.12 6.12 0 0 1 6.11 6.11v20.49a23.74 23.74 0 0 0 -15.64 22.26c0 10.08 8.06 33.69 23.66 33.69s23.63-23.61 23.63-33.69a23.68 23.68 0 0 0 -15.68-22.26v-20.49a22.14 22.14 0 0 0 -22.12-22.1h-3.22c-2.18-3.24-5.95-6.71-12.35-9.78l-98.11-47c-14.3-6.85-34.55-7.87-46.14-2.33l-107.81 51.7c-6.63 3.18-10.44 8.45-10.44 14.49 0 4.26 2 12.36 15.29 18.73zm330.64 128.65v-238.58h-396v238.58zm8-254.58h-412a8 8 0 0 0 -8 8v254.58a8 8 0 0 0 8 8h412a8 8 0 0 0 8-8v-254.58a8 8 0 0 0 -8-8zm26 293.08v-284.21a21.75 21.75 0 0 0 -21.72-21.74h-420.55a21.75 21.75 0 0 0 -21.73 21.74v284.21a21.75 21.75 0 0 0 21.72 21.74h420.55a21.75 21.75 0 0 0 21.73-21.74zm-178.72 96h-106.55a182.19 182.19 0 0 0 18.67-58.23h69.2a182.19 182.19 0 0 0 18.67 58.23zm47.24 28.67v12.67h-201v-12.67a12.67 12.67 0 0 1 12.67-12.64h175.7a12.67 12.67 0 0 1 12.63 12.64zm109.75-446.61h-420.54a37.76 37.76 0 0 0 -37.73 37.73v284.21a37.78 37.78 0 0 0 37.72 37.75h159.47c-3.45 21.52-10.6 41.43-20.84 58.23h-16.2a28.69 28.69 0 0 0 -28.67 28.69v20.67a8 8 0 0 0 8 8h217a8 8 0 0 0 8-8v-20.67a28.69 28.69 0 0 0 -28.67-28.64h-16.2c-10.28-16.8-17.39-36.71-20.84-58.23h159.5a37.78 37.78 0 0 0 37.73-37.8v-284.21a37.76 37.76 0 0 0 -37.73-37.73z" fill="#242222"/></g></svg>