<svg enable-background="new 0 0 512 512" viewBox="0 0 512 512" xmlns="http://www.w3.org/2000/svg"><g id="_x33_6_x2C__Phone_Gambling_x2C__Casino_x2C__Playing_Cards_x2C__Smartphone_x2C__Telephone_x2C__Gambler_x2C__Gamble_x2C__Technology"><g><path d="m361 11h-30l-75 16.267-75-16.267h-30c-16.57 0-30 13.43-30 30v140l128 40.4 142-40.4v-140c0-16.57-13.43-30-30-30z" fill="#eae4f0"/><path d="m331 11-30 40h-90l-30-40z" fill="#d7d2db"/><path d="m391 331v140c0 16.57-13.43 30-30 30h-210c-16.57 0-30-13.43-30-30v-140l135-40.8z" fill="#eae4f0"/><path d="m301 181 16 75-16 75h-90l-30-82.4 30-67.6z" fill="#69b9e4"/><path d="m301 181h90v150h-90z" fill="#80e2f8"/><path d="m121 181h90v150h-90z" fill="#80e2f8"/><path d="m201 391h110v40h-110z" fill="#d7d2db"/><g><path d="m361 1c-10.394 0-199.611 0-210 0-22.056 0-40 17.944-40 40v430c0 22.056 17.944 40 40 40h210c22.056 0 40-17.944 40-40 0-14.618 0-415.397 0-430 0-22.056-17.944-40-40-40zm-50 20-15 20h-80l-15-20zm-160 0h25l27 36c1.889 2.518 4.853 4 8 4h90c3.147 0 6.111-1.482 8-4l27-36h25c11.028 0 20 8.972 20 20v130h-250v-130c0-11.028 8.972-20 20-20zm230 300h-70v-130h70zm-160 0v-130h70v130zm-90 0v-130h70v130zm230 170h-210c-11.028 0-20-8.972-20-20v-130h250v130c0 11.028-8.972 20-20 20z"/><path d="m181 211h-30c-5.523 0-10 4.478-10 10s4.477 10 10 10h14.834l-24.026 56.061c-2.176 5.076.176 10.955 5.252 13.131 5.075 2.177 10.955-.177 13.13-5.252l30-70c2.818-6.573-1.993-13.94-9.19-13.94z"/><path d="m271 211h-30c-5.523 0-10 4.478-10 10s4.477 10 10 10h14.834l-24.026 56.061c-2.176 5.076.176 10.955 5.252 13.131 5.075 2.177 10.955-.177 13.13-5.252l30-70c2.818-6.573-1.993-13.94-9.19-13.94z"/><path d="m331 231h14.834l-24.026 56.061c-2.176 5.076.176 10.955 5.252 13.131 5.075 2.177 10.955-.177 13.13-5.252l30-70c2.818-6.573-1.993-13.94-9.19-13.94h-30c-5.523 0-10 4.478-10 10s4.477 10 10 10z"/><path d="m311 381h-110c-5.523 0-10 4.478-10 10v40c0 5.522 4.477 10 10 10h110c5.523 0 10-4.478 10-10v-40c0-5.522-4.477-10-10-10zm-10 40h-90v-20h90z"/><path d="m256 151c5.523 0 10-4.478 10-10v-30c0-5.522-4.477-10-10-10s-10 4.478-10 10v30c0 5.522 4.477 10 10 10z"/><path d="m203.071 148.071 21.213-21.213c3.905-3.905 3.906-10.237 0-14.143-3.905-3.903-10.237-3.904-14.142 0l-21.213 21.213c-3.905 3.905-3.906 10.237 0 14.143 3.906 3.905 10.236 3.906 14.142 0z"/><path d="m308.929 148.071c3.906 3.905 10.236 3.905 14.142 0 3.905-3.905 3.905-10.237 0-14.143l-21.213-21.213c-3.905-3.904-10.237-3.904-14.142 0-3.905 3.905-3.905 10.237 0 14.143z"/></g></g></g><g id="Layer_1"/></svg>