<svg height="512" viewBox="0 0 128 128" width="512" xmlns="http://www.w3.org/2000/svg"><g><g><path d="m100.92 56.92-12.34 4.28-8.09 2.8-7.26 2.52-14.9-5.16-12.8-4.44 27.7-9.59 7.26 2.51z" fill="#009d8f"/><path d="m88.58 61.2v7.38c0 2.46-3.28 4.6-8.09 5.67a33.143 33.143 0 0 1 -7.03.73c-8.36 0-15.13-2.86-15.13-6.4v-7.22l14.9 5.16 7.26-2.52z" fill="#008f7e"/><path d="m73.23 47.33-27.7 9.59 12.8 4.44v7.22c0 3.54 6.77 6.4 15.13 6.4a33.143 33.143 0 0 0 7.03-.73v26.92a7.836 7.836 0 0 1 -7.83 7.83h-33.12a7.836 7.836 0 0 1 -7.83-7.83v-74.34a7.836 7.836 0 0 1 7.83-7.83h33.12a7.836 7.836 0 0 1 7.83 7.83v23.01z" fill="#f5c464"/><path d="m42.468 19h27.264a0 0 0 0 1 0 0v3.861a5.082 5.082 0 0 1 -5.082 5.082h-17.1a5.082 5.082 0 0 1 -5.082-5.082v-3.861a0 0 0 0 1 0 0z" fill="#f79f63"/><path d="m67.406 103.5h-22.972a1.75 1.75 0 0 1 0-3.5h22.972a1.75 1.75 0 0 1 0 3.5z" fill="#f79f63"/><path d="m45.53 71.781a1.75 1.75 0 0 1 -1.75-1.75v-13.111a1.75 1.75 0 0 1 3.5 0v13.111a1.75 1.75 0 0 1 -1.75 1.75z" fill="#009d8f"/></g><g fill="#250a66"><path d="m101.588 55.267-19.253-6.667v-21.77a9.591 9.591 0 0 0 -9.58-9.58h-33.12a9.591 9.591 0 0 0 -9.58 9.58v19.192a1.75 1.75 0 0 0 3.5 0v-19.192a6.087 6.087 0 0 1 6.08-6.08h1.178v2.111a6.839 6.839 0 0 0 6.832 6.832h17.1a6.838 6.838 0 0 0 6.831-6.832v-2.111h1.179a6.088 6.088 0 0 1 6.08 6.08v20.556l-4.935-1.71a1.752 1.752 0 0 0 -1.144 0l-27.7 9.59c-.012 0-.02.012-.032.016a1.727 1.727 0 0 0 -.422.225c-.024.017-.045.038-.069.057a1.774 1.774 0 0 0 -.3.307c-.012.016-.027.031-.039.048a1.729 1.729 0 0 0 -.21.416c-.012.033-.021.067-.031.1a1.727 1.727 0 0 0 -.076.48v15.46a1.75 1.75 0 0 0 3.5 0v-13l9.3 3.223v5.982c0 5.294 8.7 8.15 16.88 8.15a35.817 35.817 0 0 0 5.28-.389v24.829a6.088 6.088 0 0 1 -6.08 6.08h-33.122a6.087 6.087 0 0 1 -6.08-6.08v-30.87a1.75 1.75 0 0 0 -3.5 0v30.87a9.591 9.591 0 0 0 9.58 9.58h33.12a9.591 9.591 0 0 0 9.58-9.58v-25.559c5.091-1.42 8.09-3.993 8.09-7.031v-6.137l11.163-3.87a1.749 1.749 0 0 0 0-3.306zm-33.512-32.406a3.335 3.335 0 0 1 -3.331 3.332h-17.1a3.336 3.336 0 0 1 -3.332-3.332v-2.111h23.763zm18.849 40.8v4.919c0 1.2-2.356 2.99-6.714 3.961a31.658 31.658 0 0 1 -6.656.689c-8.168 0-13.38-2.753-13.38-4.65v-4.762l12.578 4.355a1.753 1.753 0 0 0 .572.1 1.764 1.764 0 0 0 .573-.1zm-13.6 1.01-22.356-7.749 22.356-7.74 22.348 7.739z"/><path d="m31.805 61.209a1.75 1.75 0 0 0 1.75-1.75v-1.534a1.75 1.75 0 0 0 -3.5 0v1.534a1.75 1.75 0 0 0 1.75 1.75z"/><path d="m67.5 103.5a1.75 1.75 0 0 0 0-3.5h-22.971a1.75 1.75 0 1 0 0 3.5z"/></g></g></svg>