<svg height="512" viewBox="0 0 128 128" width="512" xmlns="http://www.w3.org/2000/svg"><g><g><path d="m108.905 29.74v47.076h-90v-47.076c0-3.61 3.261-6.541 7.277-6.541h75.446c4.016.001 7.277 2.931 7.277 6.541z" fill="#009d8f"/><path d="m18.908 76.816h89.992a0 0 0 0 1 0 0v3.067a7.141 7.141 0 0 1 -7.141 7.141h-75.71a7.141 7.141 0 0 1 -7.141-7.141v-3.067a0 0 0 0 1 0 0z" fill="#f5c464"/><path d="m71.819 98.168h-15.827l1.173-11.144h13.481z" fill="#f26e53"/><rect fill="#f79f63" height="6.633" rx="2.554" width="38.923" x="44.444" y="98.168"/><path d="m91.129 45.8c-.009-.027-.015-.054-.025-.081a1.735 1.735 0 0 0 -.243-.438c-.019-.025-.039-.048-.059-.072a1.7 1.7 0 0 0 -.378-.341c-.014-.01-.03-.016-.045-.025a1.713 1.713 0 0 0 -.478-.2c-.012 0-.022-.012-.034-.014l-25.567-5.957a1.769 1.769 0 0 0 -.793 0l-25.563 5.951a1.75 1.75 0 0 0 0 3.409l10.47 2.437v10.418a1.749 1.749 0 0 0 1.26 1.68l4.758 1.385a33.843 33.843 0 0 0 18.947 0l4.757-1.385a1.75 1.75 0 0 0 1.261-1.68v-10.418l8.323-1.938v7.785a1.75 1.75 0 0 0 3.5 0v-9.989a1.736 1.736 0 0 0 -.091-.527zm-15.229 13.774-3.5 1.018a30.356 30.356 0 0 1 -16.989 0l-3.5-1.018v-8.291l11.594 2.7a1.732 1.732 0 0 0 .793 0l11.6-2.7zm1.354-12.2-13.349 3.107-13.345-3.107-4.5-1.047 17.845-4.153 17.846 4.153z" fill="#250a66"/></g><g fill="#250a66"><path d="m80.6 24.949h1.892a1.75 1.75 0 0 0 0-3.5h-1.892a1.75 1.75 0 0 0 0 3.5z"/><path d="m110.75 29.74c0-4.572-4.049-8.291-9.026-8.291h-7.587a1.75 1.75 0 0 0 0 3.5h7.587c3.046 0 5.526 2.149 5.526 4.791v45.326h-86.5v-45.326c0-2.642 2.479-4.791 5.526-4.791h43.059a1.75 1.75 0 0 0 0-3.5h-43.059c-4.977 0-9.026 3.719-9.026 8.291v47.076.039 3.028a8.9 8.9 0 0 0 8.89 8.891h29.176l-.8 7.644h-7.423a4.309 4.309 0 0 0 -4.3 4.3v1.526a4.308 4.308 0 0 0 4.3 4.3h33.815a4.308 4.308 0 0 0 4.3-4.3v-1.526a4.309 4.309 0 0 0 -4.3-4.3h-7.419l-.805-7.644h29.172a8.9 8.9 0 0 0 8.891-8.891v-3.038c0-.01 0-.019 0-.029zm-29.038 70.982v1.526a.8.8 0 0 1 -.8.8h-33.819a.8.8 0 0 1 -.8-.8v-1.526a.8.8 0 0 1 .8-.8h33.815a.8.8 0 0 1 .804.8zm-11.742-4.3h-11.94l.8-7.644h10.33zm37.277-16.535a5.4 5.4 0 0 1 -5.391 5.391h-75.712a5.4 5.4 0 0 1 -5.39-5.391v-1.321h86.493z"/></g></g></svg>