<svg id="Layer_1" viewBox="0 0 512 512" xmlns="http://www.w3.org/2000/svg" data-name="Layer 1"><rect fill="#484e53" height="308.12" rx="7.86" width="480" x="16" y="119.43"/><g fill-rule="evenodd"><path d="m68 85.15c67.26 29.85 176.47-1.71 187.63 32.94a7.32 7.32 0 0 1 .38 2.41v288.57a7.86 7.86 0 0 1 -12.28 6.5c-33.79-23-107-20.09-178.71-18.22a7.87 7.87 0 0 1 -8.07-7.86v-297.16a7.86 7.86 0 0 1 11-7.18z" fill="#f4f4f4"/><path d="m444 85.15c-67.26 29.85-176.46-1.71-187.63 32.94a7.58 7.58 0 0 0 -.37 2.41v288.57a7.86 7.86 0 0 0 12.28 6.5c33.79-23 107-20.09 178.71-18.22a7.86 7.86 0 0 0 8.06-7.86v-297.16a7.85 7.85 0 0 0 -11.05-7.18z" fill="#f4f4f4"/><path d="m283.5 283.5c13.52-15.18 37.69-14.9 63.27-14.6 23.52.27 50.18.57 70.92-11.06a8 8 0 1 1 7.83 14c-24.48 13.73-53.4 13.4-78.93 13.1-22.79-.25-42.47-.48-51.15 9.26a8 8 0 1 1 -11.94-10.7zm0 83.29c13.52-15.18 37.69-14.9 63.27-14.61 23.52.27 50.18.58 70.92-11.06a8 8 0 1 1 7.83 14c-24.48 13.73-53.4 13.4-78.93 13.1-22.79-.26-42.47-.49-51.15 9.25a8 8 0 1 1 -11.94-10.64zm0-41.65c13.52-15.18 37.69-14.9 63.27-14.6 23.52.27 50.18.58 70.92-11.06a8 8 0 1 1 7.83 14c-24.48 13.72-53.4 13.39-78.93 13.1-22.79-.27-42.47-.49-51.15 9.25a8 8 0 1 1 -11.94-10.65zm0-166.56c13.5-15.18 37.69-14.9 63.27-14.58 23.52.27 50.18.58 70.92-11.05a8 8 0 1 1 7.83 14c-24.48 13.73-53.4 13.4-78.93 13.1-22.79-.26-42.47-.49-51.15 9.25a8 8 0 1 1 -11.94-10.64zm0 83.28c13.52-15.18 37.69-14.9 63.27-14.6 23.52.27 50.18.57 70.92-11.06a8 8 0 1 1 7.83 14c-24.48 13.73-53.4 13.4-78.93 13.1-22.79-.26-42.47-.49-51.15 9.25a8 8 0 1 1 -11.94-10.64zm0-41.64c13.52-15.18 37.69-14.9 63.27-14.61 23.52.27 50.18.58 70.92-11.05a8 8 0 1 1 7.83 13.95c-24.48 13.73-53.4 13.4-78.93 13.1-22.79-.26-42.47-.49-51.15 9.25a8 8 0 1 1 -11.94-10.64zm-200.06 102.32a8 8 0 0 1 10.89-3.06c20.74 11.64 47.39 11.33 70.92 11.06 25.58-.3 49.75-.58 63.27 14.6a8 8 0 1 1 -11.94 10.65c-8.68-9.74-28.36-9.51-51.15-9.25-25.52.29-54.45.62-78.93-13.1a8 8 0 0 1 -3.06-10.9zm0-41.64a8 8 0 0 1 10.89-3.06c20.74 11.63 47.39 11.33 70.92 11.06 25.59-.3 49.75-.58 63.27 14.6a8 8 0 1 1 -11.94 10.65c-8.68-9.74-28.36-9.51-51.15-9.26-25.53.3-54.45.63-78.93-13.1a8 8 0 0 1 -3.06-10.89zm0 83.28a8 8 0 0 1 10.89-3.06c20.74 11.64 47.4 11.33 70.92 11.06 25.58-.29 49.75-.57 63.27 14.61a8 8 0 1 1 -11.94 10.64c-8.68-9.74-28.36-9.51-51.15-9.25-25.53.29-54.45.63-78.93-13.1a8 8 0 0 1 -3.06-10.9zm0-166.56a8 8 0 0 1 10.89-3.06c20.74 11.63 47.39 11.32 70.92 11.05 25.59-.29 49.75-.57 63.27 14.61a8 8 0 1 1 -11.94 10.64c-8.68-9.74-28.36-9.51-51.15-9.25-25.53.3-54.45.63-78.93-13.1a8 8 0 0 1 -3.06-10.89zm0 41.64a8 8 0 0 1 10.89-3.06c20.74 11.63 47.39 11.33 70.92 11.06 25.58-.3 49.75-.58 63.27 14.6a8 8 0 1 1 -11.94 10.64c-8.68-9.74-28.36-9.51-51.15-9.25-25.52.3-54.45.63-78.93-13.1a8 8 0 0 1 -3.06-10.89zm0-83.28a8 8 0 0 1 10.89-3.06c20.74 11.63 47.39 11.32 70.92 11.05 25.59-.29 49.75-.57 63.27 14.61a8 8 0 1 1 -11.94 10.64c-8.68-9.74-28.36-9.51-51.15-9.25-25.53.29-54.45.63-78.93-13.1a8 8 0 0 1 -3.06-10.87zm404.56 286.08v-292.12h-24.95v270.12a8 8 0 0 1 -8.18 8l-16.2-.42c-64-1.7-129.76-3.44-161.7 14.42zm-464-292.12v292.12h211c-31.94-17.86-97.73-16.12-161.7-14.42l-16.2.42a8 8 0 0 1 -8.19-8v-270.12zm41-34.94v296.86l8-.22c19.56-.51 38.88-1 57.33-1 49.36 0 92.52 3.67 117.75 20.68v-288.32c-4.2-12.47-36-12.6-69.58-12.73-35.91-.11-79.5-.27-113.5-15.27zm268.63 15.27c-33.66.13-65.47.27-69.58 12.8v288.23c34.65-23.37 103.16-21.56 175.06-19.66l8 .22v-296.86c-34 14.95-77.62 15.12-113.46 15.27zm162.37 3.67h-33v-32a8 8 0 0 0 -12.11-6.86c-31.39 18.92-77.07 19.07-117.37 19.23-20 .08-38.95.15-53.44 2.75-4.71.84-16.08 2.88-24.07 10-8-7.17-19.36-9.21-24.07-10-14.49-2.6-33.41-2.67-53.44-2.75-40.3-.16-86-.34-117.43-19.23a8 8 0 0 0 -12.07 6.86v32h-33a8 8 0 0 0 -8 8v308.12a8 8 0 0 0 8 8h480a8 8 0 0 0 8-8v-308.12a8 8 0 0 0 -8-8z" fill="#242222"/></g></svg>