<svg clip-rule="evenodd" fill-rule="evenodd" height="512" stroke-linejoin="round" stroke-miterlimit="2" viewBox="0 0 512 512" width="512" xmlns="http://www.w3.org/2000/svg"><g><circle cx="256" cy="308.251" fill="#f7bf68" r="168.416"/><path d="m241.066 140.532c4.909-.475 9.896-.697 14.934-.697 92.951 0 168.416 75.465 168.416 168.416 0 86.863-65.903 158.455-150.395 167.442 68.14-21.155 117.844-86.76 117.844-164.318 0-89.61-66.352-163.264-150.799-170.843z" fill="#f2b657"/><path d="m214.943 183.21c14.386 18.953-23.607 28.309-35.339 61.457-14.686 41.49-16.929 57.541-35.811 55.584-13.478-1.397-19.091-36.743 4.353-76.727 16.643-28.387 58.604-51.107 66.797-40.314z" fill="#ffd697"/><path d="m373.187 59.177c.961 23.026-10.88 47.712-33.145 64.139-22.266 16.427-49.348 20.455-71.065 12.742-.961-23.026 10.88-47.712 33.146-64.139s49.347-20.455 71.064-12.742z" fill="#b3ff89"/><path d="m359.532 55.979c4.717.574 9.294 1.649 13.655 3.198.961 23.026-10.88 47.712-33.145 64.139-22.266 16.427-49.348 20.455-71.065 12.742-.139-3.327-.01-6.689.409-10.049 18.743 2.398 39.614-2.811 57.409-15.94 19.048-14.053 30.467-34.151 32.737-54.09z" fill="#a4ee7c"/><path d="m263.218 135.956c-21.977 6.938-48.898 1.951-70.567-15.255-21.669-17.207-32.626-42.297-30.849-65.275 21.977-6.938 48.898-1.951 70.567 15.255 21.669 17.207 32.627 42.298 30.849 65.275z" fill="#b3ff89"/><path d="m262.741 121.94c.678 4.703.834 9.402.477 14.016-21.977 6.938-48.898 1.951-70.567-15.255-21.669-17.207-32.626-42.297-30.849-65.275 3.175-1.003 6.454-1.756 9.807-2.229 2.578 18.72 13.054 37.507 30.372 51.259 18.538 14.72 40.92 20.496 60.76 17.484z" fill="#a4ee7c"/><g fill="#8d4ba0"><path d="m304.647 334.795c3.926 2.266 5.274 7.294 3.007 11.22-2.267 3.927-7.295 5.274-11.221 3.007s-5.273-7.295-3.007-11.221c2.267-3.926 7.295-5.273 11.221-3.006z"/><path d="m348.245 355.34c3.926 2.267 5.273 7.295 3.006 11.221s-7.294 5.273-11.221 3.006c-3.926-2.266-5.273-7.294-3.006-11.22 2.267-3.927 7.294-5.274 11.221-3.007z"/><path d="m363.425 320.754c3.926 2.267 5.273 7.294 3.007 11.221-2.267 3.926-7.295 5.273-11.221 3.006s-5.274-7.294-3.007-11.221c2.267-3.926 7.295-5.273 11.221-3.006z"/><path d="m318.308 294.705c3.926 2.267 5.273 7.295 3.006 11.221-2.266 3.926-7.294 5.274-11.22 3.007-3.927-2.267-5.274-7.295-3.007-11.221s7.295-5.273 11.221-3.007z"/><path d="m350.878 295.501c3.926 2.266 5.273 7.294 3.006 11.22-2.266 3.927-7.294 5.274-11.221 3.007-3.926-2.267-5.273-7.295-3.006-11.221s7.295-5.273 11.221-3.006z"/><path d="m334.865 323.235c3.927 2.267 5.274 7.294 3.007 11.221-2.267 3.926-7.295 5.273-11.221 3.006s-5.273-7.294-3.006-11.221c2.266-3.926 7.294-5.273 11.22-3.006z"/><path d="m205.891 138.718c-73.179 21.626-126.64 89.386-126.64 169.533 0 97.55 79.199 176.749 176.749 176.749s176.749-79.199 176.749-176.749c0-75.094-46.932-139.313-113.038-164.899 8.733-3.005 17.287-7.435 25.278-13.33 24.677-18.206 37.589-45.673 36.524-71.193-.142-3.397-2.333-6.367-5.537-7.505-24.069-8.548-54.124-4.317-78.801 13.889-14.211 10.485-24.521 24.041-30.505 38.527-5.466-14.689-15.288-28.603-29.119-39.585-24.015-19.07-53.901-24.365-78.258-16.676-3.242 1.024-5.538 3.914-5.8 7.304-1.969 25.466 9.96 53.374 33.976 72.444 5.848 4.644 12.043 8.47 18.422 11.491zm50.109 9.451c88.352 0 160.082 71.73 160.082 160.082s-71.73 160.082-160.082 160.082-160.082-71.73-160.082-160.082 71.73-160.082 160.082-160.082zm108.795-82.801c-1.191 18.76-11.72 37.977-29.701 51.242-17.981 13.266-39.449 17.655-57.725 13.257 1.191-18.76 11.72-37.977 29.701-51.242 17.981-13.266 39.449-17.655 57.725-13.257zm-109.744 64.103c-18.42 3.747-39.719-1.401-57.218-15.296s-27.339-33.474-27.864-52.264c18.42-3.747 39.719 1.401 57.218 15.296s27.34 33.474 27.864 52.264z"/></g></g></svg>