<svg id="Layer_2" enable-background="new 0 0 64 64" viewBox="0 0 64 64" xmlns="http://www.w3.org/2000/svg"><g><g fill="#ffc68d"><path d="m13.39 6.16c-.84-.92-2.78-.51-4.33.91-.57.52-1 1.1-1.28 1.67-.32-.61-.81-1.22-1.46-1.75-1.64-1.33-3.59-1.63-4.38-.66-.78.96-.1 2.82 1.53 4.15 1.56 1.27 3.46-.92 4.3-1.74.02.02-.02-.02 0 0 .84.92 2.77 3.07 4.32 1.65 1.56-1.42 2.14-3.31 1.3-4.23z"/><path d="m62 6.63c-.84-.92-2.78-.51-4.33.91-.57.52-1 1.1-1.28 1.67-.32-.61-.81-1.22-1.46-1.75-1.63-1.33-3.59-1.62-4.37-.66s-.1 2.82 1.53 4.15c1.56 1.27 3.46-.92 4.3-1.74.02.02-.02-.02 0 0 .84.92 2.77 3.07 4.32 1.65 1.55-1.41 2.13-3.31 1.29-4.23z"/><path d="m9.75 43.71-3.61 15.38 7.29-4.18 3.74 6.03 3.56-15.78z"/></g><path d="m26.83 45.5v16.8l6.67-6.21 4.9 6.21v-16.8z" fill="#ffeba8"/><path d="m56.31 43.42 3.2 16.3-7.5-5.82-4.84 7.04-2.66-15.86z" fill="#fd6489"/><path d="m16.85 15.75 1.61 10.45 5.92-8.9z" fill="#fd6489"/><path d="m28.03 17.64 4.59 11.45 3.37-11.51z" fill="#ffc68d"/><path d="m39.63 17.2 5.93 9 1.37-10.45z" fill="#ffeba8"/><path d="m31.49 14.27c-9.6 0-15.79-2.32-16.18-2.47-.52-.2-.77-.78-.57-1.29.2-.52.78-.77 1.29-.58.14.05 13.87 5.17 32.05-.03.53-.15 1.08.15 1.24.69.15.53-.16 1.08-.69 1.24-6.39 1.83-12.22 2.44-17.14 2.44z"/><path d="m4.49 11.62c-.5 0-1-.16-1.49-.56-.89-.73-1.57-1.62-1.9-2.53-.39-1.05-.29-2 .26-2.68s1.46-.96 2.56-.8c.96.15 1.98.63 2.87 1.35.36.3.69.62.97.97.24-.3.5-.59.79-.85.85-.78 1.84-1.31 2.78-1.51 1.09-.23 2.01 0 2.6.65 1.13 1.24.55 3.56-1.34 5.29-.52.48-1.65 1.14-3.29.16-.6-.36-1.13-.85-1.56-1.29-.74.73-1.96 1.8-3.25 1.8zm4.21-2.99c.39.41.88.88 1.38 1.18.82.49 1.22.29 1.51.02 1.29-1.18 1.72-2.65 1.25-3.17-.22-.24-.65-.31-1.19-.19-.68.14-1.44.56-2.08 1.15-.34.31-.64.66-.87 1.01zm-5.36-2.12c-.37 0-.66.1-.81.29-.21.25-.22.69-.02 1.2.24.65.77 1.34 1.44 1.89.71.58 1.67-.08 2.88-1.27-.26-.38-.6-.74-.99-1.06-.67-.54-1.45-.92-2.14-1.02-.13-.02-.25-.03-.36-.03z"/><path d="m11.99 21.8c-.12 0-.23-.03-.34-.09-.09-.05-2.07-1.17-.53-4.81.73-1.75-1.5-4.92-3.03-6.71-.67 1.98-2.11 5.41-4.94 4.88-.41-.07-.68-.46-.6-.87s.47-.67.88-.6c1.89.36 3.03-3.22 3.46-4.57.08-.27.15-.47.2-.58.1-.23.3-.4.55-.45s.5.03.68.21c.58.59 5.62 5.86 4.19 9.28-.78 1.84-.41 2.72-.11 2.92.33.22.45.68.24 1.02-.15.24-.4.37-.65.37z"/><path d="m53.11 12.09c-.5 0-1-.16-1.5-.56-1.98-1.61-2.7-3.9-1.64-5.2s3.45-1.06 5.43.55c.36.29.69.62.97.97.24-.3.5-.59.79-.85 1.89-1.72 4.25-2.1 5.39-.86.59.65.74 1.59.41 2.65-.28.93-.91 1.86-1.75 2.64-.53.48-1.65 1.14-3.29.16-.59-.36-1.13-.85-1.56-1.29-.75.72-1.97 1.79-3.25 1.79zm4.2-2.98c.39.41.88.88 1.38 1.18.81.49 1.22.29 1.51.02.64-.59 1.13-1.31 1.33-1.97.16-.53.13-.96-.09-1.2-.48-.52-1.98-.23-3.27.95-.33.31-.63.66-.86 1.02zm-5.37-2.13c-.37 0-.65.1-.81.29-.45.55.07 1.99 1.42 3.09.71.58 1.67-.08 2.88-1.27-.26-.38-.6-.74-.99-1.06-.87-.71-1.82-1.05-2.5-1.05z"/><path d="m58.72 17.95c-.06 0-.12-.01-.18-.02-.4-.1-.65-.5-.55-.91.59-2.41-.7-5.02-1.54-6.38-1.04 1.96-2.14 4.64-1.81 5.82.11.4-.12.81-.51.93-.41.11-.81-.12-.93-.52-.71-2.49 2.21-7.48 2.54-8.04.13-.21.35-.35.59-.36.23-.02.48.09.64.28.14.18 3.49 4.46 2.47 8.63-.08.34-.38.57-.72.57z"/><path d="m31.49 18.76c-9.6 0-15.79-2.32-16.18-2.47-.52-.2-.77-.78-.57-1.29.2-.52.78-.77 1.29-.58.14.05 13.87 5.17 32.05-.03.53-.15 1.08.15 1.24.69.15.53-.16 1.08-.69 1.24-6.39 1.83-12.22 2.44-17.14 2.44z"/><path d="m33.3 41.97c-16.54 0-28.82-2.74-28.99-2.78-.54-.12-.87-.66-.75-1.2s.66-.88 1.2-.75c.24.06 24.53 5.47 50.7.91.55-.09 1.06.27 1.16.81.09.54-.27 1.06-.81 1.16-7.88 1.37-15.57 1.85-22.51 1.85z"/><path d="m32.3 46.64c-16.56 0-27.86-3.04-28.03-3.08-.53-.15-.84-.7-.7-1.23.15-.53.7-.85 1.23-.7.25.07 25.21 6.76 55.28-.01.54-.12 1.07.22 1.2.76.12.54-.22 1.07-.76 1.2-10.24 2.29-19.9 3.06-28.22 3.06z"/><path d="m17.17 61.94c-.34 0-.67-.18-.85-.47l-3.23-5.21-6.46 3.7c-.35.2-.78.17-1.09-.07-.32-.24-.47-.64-.38-1.03l3.61-15.38c.13-.54.66-.87 1.2-.74s.87.66.74 1.2l-3.07 13.14 5.3-3.03c.47-.27 1.06-.12 1.35.34l2.45 3.96 3.02-13.4c.12-.54.65-.88 1.2-.76.54.12.88.66.76 1.2l-3.55 15.78c-.09.4-.41.7-.81.77-.08 0-.13 0-.19 0z"/><path d="m16.85 51.41c-.26 0-.52-.11-.71-.29-.18-.19-.29-.45-.29-.71 0-.13.03-.26.08-.38.05-.13.12-.23.21-.33.23-.23.58-.34.91-.27.06.01.12.03.18.06.06.02.12.05.17.09.06.03.11.08.16.12.09.1.16.2.21.33.05.12.08.25.08.38 0 .26-.11.52-.29.71-.05.04-.1.09-.16.12-.05.04-.11.07-.17.09-.06.03-.12.05-.18.06-.07.01-.13.02-.2.02z"/><path d="m13.01 50.88c-.05 0-.09 0-.14-.01l-4.56-.63c-.55-.08-.93-.58-.85-1.13s.59-.93 1.13-.85l4.56.63c.55.08.93.58.85 1.13-.07.5-.5.86-.99.86z"/><path d="m38.4 63.3c-.3 0-.59-.14-.79-.38l-4.23-5.36-5.88 5.48c-.29.27-.71.34-1.08.19-.37-.16-.6-.52-.6-.92v-16.81c0-.55.45-1 1-1s1 .45 1 1v14.5l4.99-4.65c.2-.19.47-.29.76-.27.28.02.54.16.71.38l3.12 3.95v-13.91c0-.55.45-1 1-1s1 .45 1 1v16.8c0 .43-.27.81-.67.94-.11.04-.22.06-.33.06z"/><path d="m47.17 61.94c-.07 0-.14-.01-.22-.02-.4-.09-.7-.41-.77-.81l-2.67-15.86c-.06-.38.1-.76.41-.98s.73-.24 1.07-.05l11.75 6.63-1.42-7.23c-.11-.54.25-1.07.79-1.17.54-.11 1.07.25 1.17.79l3.2 16.31c.08.41-.1.83-.46 1.04-.35.22-.81.19-1.14-.06l-6.66-5.17-4.22 6.15c-.19.28-.5.43-.83.43zm-1.33-14.95 1.91 11.35 3.44-5c.16-.23.4-.38.67-.42.28-.04.55.03.77.2l5.39 4.19-.76-3.87z"/><path d="m32.7 51.88c-3.69 0-6.16-1.17-6.31-1.24-.5-.24-.7-.84-.46-1.34s.84-.7 1.33-.46c.05.02 4.8 2.24 10.81.1.52-.19 1.09.09 1.28.61s-.09 1.09-.61 1.28c-2.22.78-4.27 1.05-6.04 1.05z"/><path d="m56.36 24.91c-.41 0-.75-.34-.75-.75v-.93c0-.41.34-.75.75-.75s.75.34.75.75v.93c0 .42-.34.75-.75.75z"/><path d="m56.36 29.84c-.41 0-.75-.34-.75-.75v-.93c0-.41.34-.75.75-.75s.75.34.75.75v.93c0 .41-.34.75-.75.75z"/><path d="m58.4 26.95c-.41 0-.75-.34-.75-.75s.33-.75.75-.75h.93c.41 0 .75.34.75.75s-.34.75-.75.75z"/><path d="m53.4 26.95c-.41 0-.75-.33-.75-.75 0-.41.33-.75.75-.75h.93c.41 0 .75.34.75.75s-.33.75-.75.75z"/><path d="m30.99 32.75c-.41 0-.75-.34-.75-.75v-.93c0-.41.34-.75.75-.75s.75.34.75.75v.93c0 .41-.33.75-.75.75z"/><path d="m30.99 37.68c-.41 0-.75-.34-.75-.75v-.93c0-.41.34-.75.75-.75s.75.34.75.75v.93c0 .41-.33.75-.75.75z"/><path d="m33.03 34.78c-.41 0-.75-.34-.75-.75s.33-.75.75-.75h.93c.41 0 .75.34.75.75s-.34.75-.75.75z"/><path d="m28.03 34.79c-.41 0-.75-.34-.75-.75s.33-.75.75-.75h.93c.41 0 .75.34.75.75s-.33.75-.75.75z"/><path d="m33.49 3.38c-.41 0-.75-.34-.75-.75v-.93c0-.41.34-.75.75-.75s.75.34.75.75v.93c0 .41-.33.75-.75.75z"/><path d="m33.49 8.3c-.41 0-.75-.34-.75-.75v-.92c0-.41.34-.75.75-.75s.75.34.75.75v.93c0 .41-.33.74-.75.74z"/><path d="m35.53 5.41c-.41 0-.75-.34-.75-.75s.33-.75.75-.75h.93c.41 0 .75.34.75.75s-.34.75-.75.75z"/><path d="m30.53 5.41c-.41 0-.75-.33-.75-.75 0-.41.33-.75.75-.75h.93c.41 0 .75.33.75.75 0 .41-.33.75-.75.75z"/><path d="m6.25 25.84c-.41 0-.75-.34-.75-.75v-.93c0-.41.34-.75.75-.75s.75.34.75.75v.93c0 .41-.33.75-.75.75z"/><path d="m6.25 30.77c-.41 0-.75-.34-.75-.75v-.93c0-.41.34-.75.75-.75s.75.34.75.75v.93c0 .41-.33.75-.75.75z"/><path d="m8.29 27.88c-.41 0-.75-.34-.75-.75s.34-.75.75-.75h.93c.41 0 .75.34.75.75s-.34.75-.75.75z"/><path d="m3.29 27.88c-.41 0-.75-.34-.75-.75s.33-.75.75-.75h.93c.41 0 .75.34.75.75s-.33.75-.75.75z"/><path d="m18.46 26.95c-.05 0-.11-.01-.16-.02-.3-.07-.53-.31-.58-.62l-1.61-10.45c-.06-.41.22-.79.63-.85s.79.22.85.63l1.31 8.54 4.85-7.29c.23-.34.69-.44 1.04-.21.34.23.44.69.21 1.04l-5.92 8.9c-.14.21-.38.33-.62.33z"/><path d="m32.62 29.84c-.31 0-.58-.19-.7-.47l-2.54-6.34c-.15-.38.03-.82.42-.98.38-.15.82.03.98.42l1.73 4.33 2.77-9.43c.12-.4.53-.62.93-.51.4.12.63.53.51.93l-3.38 11.51c-.09.31-.36.52-.68.54-.02 0-.03 0-.04 0z"/><path d="m28.96 20.71c-.3 0-.58-.18-.7-.47l-.93-2.32c-.15-.38.03-.82.42-.98.38-.15.82.03.98.42l.93 2.32c.15.38-.03.82-.42.98-.1.03-.19.05-.28.05z"/><path d="m45.56 26.95c-.25 0-.49-.12-.63-.34l-5.94-9c-.23-.35-.13-.81.21-1.04.35-.23.81-.13 1.04.21l4.83 7.32 1.1-8.45c.05-.41.42-.7.84-.65.41.05.7.43.65.84l-1.35 10.46c-.04.31-.27.56-.58.63-.05.01-.11.02-.17.02z"/><path d="m58.72 39.55c-.47 0-.88-.33-.98-.8-.11-.54.24-1.07.78-1.18l1.56-.33c.54-.12 1.07.22 1.19.76s-.22 1.07-.76 1.19c-.53.12-1.06.23-1.59.34-.07.01-.14.02-.2.02z"/></g></svg>