<svg clip-rule="evenodd" fill-rule="evenodd" stroke-linejoin="round" stroke-miterlimit="2" viewBox="0 0 96 96" xmlns="http://www.w3.org/2000/svg"><g><g><path d="m69.656 40.347c-.653 2.562-.755 5.233-.299 7.837.832 4.663.635 12.632-8.885 15.992-13.866 4.894-19.951 2.446-26.407 2.154-3.172-.144-5.853.586-7.904 1.489-1.003.441-2.168.297-3.034-.374s-1.296-1.763-1.12-2.844c.7-4.046 2.483-9.525 6.892-14.623 2.504-2.894 26.067-5.52 31.573-15.818s.187-28.754 11.277-32.219c7.362-2.301 10.672 1.628 12.096 4.711.288.639.22 1.382-.179 1.958s-1.071.901-1.77.856c-4.053-.256-10.783.081-10.147 5.275 1.234 10.083-.697 20.118-2.093 25.606z" fill="#595959"/><path d="m70.314 37.557c-.223 1.024-9.661-3.744-9.574-3.921 5.064-10.388.105-28.288 11.009-31.695 7.362-2.301 10.672 1.628 12.096 4.711.288.639.22 1.382-.179 1.958s-1.071.901-1.77.856c-4.053-.256-10.783.081-10.147 5.275 1.047 8.556-.185 17.078-1.435 22.816z" fill="#f8987f"/><path d="m51.71 41.083s-12.44-3.535-24.591 4.228c-4.83 3.086-7.671 6.76-9.342 9.988-.571 1.107-.395 2.452.442 3.375.838.923 2.16 1.228 3.317.766 3.165-1.277 7.402-1.959 12.338-.237 10.96 3.823 20.639-5.654 17.836-18.12z" fill="#ebebeb"/><path d="m51.71 41.083s-17.906-9.763-30.057-1.999c-4.83 3.086-7.671 6.759-9.341 9.988-.572 1.107-.396 2.452.442 3.375.837.923 2.159 1.228 3.316.766 3.165-1.277 7.403-1.959 12.338-.237 10.961 3.823 18.056-.08 23.302-11.893z" fill="#696969"/></g><g><path d="m38.447 72.366-.913 3.12c-.338 1.154-.2 2.396.384 3.447 1.618 2.917 6.036 10.877 7.908 14.251.793 1.429 2.3 2.316 3.935 2.316h3.988c.827 0 1.5-.672 1.5-1.5s-.673-1.5-1.5-1.5c0 0-2.297 0-3.988 0-.545 0-1.047-.295-1.312-.772l-7.908-14.25c-.195-.351-.241-.765-.128-1.15 0 0 .913-3.119.913-3.119.233-.794-.223-1.628-1.018-1.861-.795-.232-1.628.224-1.861 1.018z"/><path d="m47.894 69.135c2.157 4.316 9.416 18.84 11.934 23.877.762 1.525 2.32 2.488 4.025 2.488h4.961c.828 0 1.5-.672 1.5-1.5s-.672-1.5-1.5-1.5h-4.961c-.568 0-1.087-.321-1.342-.829l-11.933-23.877c-.37-.74-1.272-1.041-2.013-.671-.74.37-1.041 1.272-.671 2.012z"/><path d="m47.815 46.031c-.117.185-.235.367-.353.545-2.233 3.364-4.776 5.552-7.815 6.507-3.069.965-6.605.671-10.745-.773-5.357-1.869-9.958-1.124-13.393.262-.57.228-1.228.076-1.645-.383-.416-.459-.504-1.128-.22-1.679 1.576-3.044 4.262-6.502 8.817-9.412 3.769-2.408 8.15-2.925 12.305-2.586 6.47.527 12.427 3.132 14.993 4.393 1.334.675 2.917.643 4.223-.087.002-.001.003-.002.005-.003 3.433-1.934 6.261-4.305 7.808-7.198 2.833-5.299 2.945-12.685 3.711-19.204.284-2.414.666-4.7 1.37-6.677.945-2.654 2.484-4.727 5.32-5.613 2.552-.798 4.541-.776 6.089-.238 2.232.774 3.481 2.596 4.194 4.137.07.158.052.341-.046.484-.1.143-.267.224-.441.213-.001 0-.001 0-.002 0-2.681-.169-6.415-.036-8.83 1.281-1.985 1.082-3.246 2.848-2.9 5.673 1.208 9.867-.692 19.685-2.058 25.054-.705 2.767-.815 5.652-.322 8.465 0 .002 0 .004.001.005.743 4.168.602 11.311-7.908 14.315-13.567 4.788-19.524 2.356-25.84 2.069-3.442-.156-6.351.635-8.577 1.615-.498.219-1.078.148-1.51-.187-.432-.334-.646-.878-.559-1.417.133-.818-.422-1.589-1.239-1.722s-1.589.422-1.722 1.24c-.264 1.624.381 3.263 1.682 4.271s3.049 1.223 4.556.561h.002c1.876-.827 4.329-1.495 7.231-1.364 6.595.299 12.808 2.763 26.974-2.237 10.528-3.716 10.782-12.508 9.864-17.666-.419-2.395-.326-4.852.275-7.208 1.426-5.606 3.389-15.858 2.127-26.159-.212-1.738.888-2.605 2.3-3.075 1.934-.643 4.407-.637 6.264-.52 1.223.078 2.399-.49 3.098-1.499.698-1.009.817-2.31.313-3.429-.002-.004-.004-.008-.005-.012-.996-2.156-2.813-4.638-5.938-5.722-2.025-.704-4.63-.835-7.968.208-4.99 1.56-7.154 5.724-8.198 11.014-.704 3.564-.911 7.65-1.354 11.625-.416 3.734-1.032 7.371-2.6 10.305-1.302 2.436-3.742 4.368-6.631 5.997-.436.243-.965.253-1.409.025-.007-.003-.014-.007-.021-.01-2.746-1.349-9.139-4.127-16.078-4.693-4.788-.39-9.821.273-14.164 3.048-5.105 3.262-8.101 7.15-9.867 10.562v.001c-.859 1.664-.594 3.686.664 5.072s3.245 1.845 4.984 1.151c.001-.001.003-.001.005-.002 2.894-1.168 6.769-1.786 11.282-.212 4.864 1.697 9.027 1.937 12.633.803 3.636-1.143 6.742-3.685 9.414-7.709.132-.198.262-.4.391-.605.442-.7.232-1.627-.469-2.069-.7-.441-1.627-.231-2.068.469z"/><path d="m33.38 61.369c8.11 2.829 15.581-.915 18.747-7.814.345-.753.015-1.644-.738-1.989-.752-.346-1.643-.015-1.989.737-2.536 5.528-8.534 8.5-15.032 6.234-.782-.273-1.638.14-1.911.922-.272.782.141 1.638.923 1.91zm-15.27-8.78c-.651.943-1.2 1.873-1.665 2.77v.002c-.859 1.663-.595 3.685.664 5.071 1.258 1.386 3.245 1.845 4.983 1.151.002-.001.004-.001.005-.002 1.786-.72 3.945-1.235 6.398-1.15.827.028 1.522-.621 1.55-1.448.029-.827-.62-1.522-1.447-1.551-2.922-.1-5.496.509-7.623 1.367-.571.228-1.228.076-1.645-.383-.416-.459-.504-1.128-.22-1.679.41-.792.895-1.612 1.469-2.444.47-.681.299-1.616-.383-2.086-.681-.471-1.616-.299-2.086.382z"/><path d="m70.72 37.772-4.808-2.073c-.761-.328-1.644.023-1.972.783-.327.761.024 1.644.784 1.972l4.808 2.073c.76.328 1.644-.024 1.971-.784.328-.76-.023-1.643-.783-1.971z"/></g></g></svg>