<svg id="Capa_1" enable-background="new 0 0 511.969 511.969" height="512" viewBox="0 0 511.969 511.969" width="512" xmlns="http://www.w3.org/2000/svg"><g><g><g><path d="m175.029 239.011-23.43 23.43c-10.326 10.326-27.069 10.326-37.395 0l-94.93-100.308c-6.273-6.273-11.477-12.932-10.128-21.064.153-.92-.41-3.097-.41-3.097 1.178-4.253 3.439-8.268 6.782-11.612l23.43-23.43c10.326-10.326 27.069-10.326 37.395 0l3.357 3.357 2.041 5.037 93.287 90.291c10.328 10.328 10.328 27.07.001 37.396z" fill="#c7865b"/><path d="m8.736 137.973 21.623 21.62c2.393 2.393 6.441 1.777 7.974-1.24 3.885-7.646 8.368-15.115 13.56-22.317 7.95-11.02 17.237-20.957 27.807-29.747l95.333 95.327c3.379 3.382 5.644 7.452 6.81 11.758 1.915 7.682 1.12 17.73-6.81 25.642l-23.43 23.43c-10.33 10.32-27.07 10.32-37.4 0l-84.48-84.48-14.21-14.21c-6.979-6.981-9.247-16.903-6.777-25.783z" fill="#c27e4e"/></g><g><path d="m337.229 239.011 23.43 23.43c10.326 10.326 27.069 10.326 37.395 0l94.93-100.308c6.273-6.273 11.477-12.932 10.128-21.064-.153-.92.41-3.097.41-3.097-1.178-4.253-3.439-8.268-6.782-11.612l-23.43-23.43c-10.326-10.326-27.069-10.326-37.395 0l-3.357 3.357-2.041 5.037-93.287 90.291c-10.327 10.328-10.327 27.07-.001 37.396z" fill="#c7865b"/><path d="m503.522 137.973-21.623 21.62c-2.393 2.393-6.441 1.777-7.974-1.24-3.885-7.646-8.368-15.115-13.56-22.317-7.95-11.02-17.237-20.957-27.807-29.747l-95.333 95.327c-3.379 3.382-5.644 7.452-6.81 11.758-1.915 7.682-1.12 17.73 6.81 25.642l23.43 23.43c10.33 10.32 27.07 10.32 37.4 0l84.48-84.48 14.21-14.21c6.979-6.981 9.247-16.903 6.777-25.783z" fill="#c27e4e"/></g><path d="m484.484 286.336c0 90.432-102.303 111.091-228.5 111.091s-223.766-21.032-223.766-111.464c0-55.766 2.45-124.083 57.085-169 4.426-3.639 14.06-11.004 14.06-11.004 33.852-22.015 82.587-36.015 152.62-36.015 210.074.001 228.501 125.96 228.501 216.392z" fill="#cf9875"/><path d="m275.264 397.255c-6.36.12-12.79.17-19.28.17-126.2 0-228.5-20.66-228.5-111.09 0-60.36 8.21-136.55 76.15-180.54-54.18 44.92-61.15 113.94-61.15 169.54 0 90.43 102.3 111.09 228.5 111.09 1.32 0 2.77 4.51 4.28 10.83z" fill="#c7865b"/><path d="m259.484 449.686h-7c-17.142 0-32.758-6.535-44.491-17.25 0 0-.17-4.44-1.381-5.739-10.995-11.79-20.128-25.619-20.128-43.011h139c0 16.506-7.91 30.066-17.926 41.639-1.7 1.965-3.583 7.111-3.583 7.111-11.733 10.715-27.349 17.25-44.491 17.25z" fill="#f0e9e6"/><path d="m325.484 383.685c0 18.22-7.39 34.72-19.33 46.67-.71.71-1.439 1.412-2.179 2.082-15.256-1.493-31.995-5.728-45.413-16.907-1.499-1.249-3.658-1.249-5.157 0-13.418 11.179-30.155 15.413-45.411 16.906-13.22-12.07-21.51-29.44-21.51-48.75h139z" fill="#e5dcd8"/><path d="m356.004 304.835c-17.469-10.026-32.407-23.723-44.393-39.909-9.784-13.213-26.036-20.708-45.036-22.699 0 0-6.984.098-10.59.098-23.48 0-41.356 8.454-52.915 24.064-11.596 15.661-26.868 29.09-44.043 38.298-19.462 10.434-38.681 26.032-38.681 58.851 0 21.15 11.112 39.58 32.726 48.529 11.088 4.59 24.055 7.119 37.912 7.119 23.217 0 43.935-3.841 57.502-18.21 0 0 2.937-6.873 4.265-8.747 1.572-2.217 4.894-2.217 6.466 0 1.329 1.873 4.265 8.747 4.265 8.747 13.567 14.369 34.285 18.21 57.502 18.21 40.869 0 74-22 74-54 0-30.614-19.865-49.38-38.98-60.351z" fill="#faf8f8"/><path d="m266.574 242.225c-21.63.94-40.39 8.84-51.22 24.01-11.59 16.24-26.06 30.06-43.23 39.61-19.47 10.82-40.14 30.32-40.14 64.35 0 18.81 10.65 34.29 27.31 44.17-25.01-8.16-42.31-26.06-42.31-49.18 0-32.82 20.67-51.63 40.14-62.06 17.17-9.21 31.64-22.54 43.23-38.2 11.56-15.61 32.15-23.24 55.63-23.24 3.61 0 7.14.18 10.59.54z" fill="#f0e9e6"/><path d="m257.708 353.403 1.951-.716c18.707-6.871 34.1-16.185 45.283-32.681.537-.792 1.543-2.511 1.543-2.511.078-1.71-.724-3.418-2.265-4.423l-14.539-9.477c-2.413-1.573-5.227-2.418-8.108-2.434l-51.001-.284c-2.99-.017-5.916.861-8.404 2.519l-14.491 9.66c-1.518 1.012-2.304 2.71-2.221 4.408 0 0 .926 1.609 1.46 2.397l.029.043c11.183 16.496 26.658 25.91 45.365 32.781l1.951.716c1.112.411 2.334.411 3.447.002z" fill="#c7865b"/><path d="m306.474 317.495c-.04.89-.32 1.78-.85 2.57-11.18 16.5-27.26 29.07-45.97 35.94l-1.95.71c-1.11.41-2.33.41-3.44 0l-1.95-.71c-18.71-6.87-34.79-19.44-45.97-35.94l-.03-.04c-.53-.79-.819-1.67-.859-2.56 12.73 10.44 28.389 18.51 45.849 23.54l2.49.71c1.41.41 2.97.41 4.39 0l2.49-.71c17.43-5.02 33.08-13.09 45.8-23.51z" fill="#c27e4e"/></g><g><path d="m502.043 121.057-23.43-23.43c-13.233-13.232-34.767-13.234-48.001 0l-8.596 8.596c-4.769-3.59-9.78-6.951-15.024-10.085l5.306-23.286c.92-4.038-1.608-8.059-5.646-8.979-4.039-.922-8.058 1.608-8.979 5.646l-4.375 19.201c-10.401-5.075-21.696-9.413-33.811-13.029l-5.069-37.51c-.555-4.104-4.331-6.98-8.437-6.428-4.105.555-6.983 4.332-6.428 8.438l4.232 31.319c-13.417-3.138-27.729-5.466-42.89-6.964-4.126-.402-7.794 2.604-8.202 6.727-.407 4.122 2.604 7.794 6.726 8.201 17.076 1.688 32.532 4.41 46.527 8.029l8.607 63.689c.337 2.853 3.834 6.962 8.437 6.428 4.105-.555 6.983-4.332 6.428-8.438l-7.704-57.01c10.231 3.422 19.581 7.376 28.108 11.805l-10.149 44.544c-.92 4.038 1.608 8.059 5.647 8.979 3.128.722 7.504-.974 8.978-5.646l9.112-39.991c63.261 40.884 73.576 111.509 73.576 174.475 0 42.389-24.639 70.964-75.176 87.09.432-2.699.676-5.445.676-8.241 0-20.089-7.63-37.596-22.677-52.035-2.989-2.866-7.736-2.77-10.604.22-2.868 2.988-2.77 7.736.219 10.604 11.986 11.5 18.063 25.365 18.063 41.211 0 2.297-.229 4.541-.645 6.731l-16.836-6.7c-3.847-1.528-8.21.348-9.741 4.195-1.532 3.849.347 8.21 4.195 9.742l16.626 6.616c-4.841 7.212-12.236 13.281-21.464 17.734l-16.903-22.3c-2.502-3.302-7.208-3.95-10.508-1.446-3.301 2.502-3.948 7.206-1.446 10.507l14.066 18.557c-7.338 1.854-15.354 2.863-23.844 2.863-30.091 0-47.935-7.142-57.5-23.099v-26.026c19.76-7.544 36.463-20.749 48.352-38.286 1.897-2.799 2.574-6.166 1.907-9.481-.667-3.314-2.595-6.157-5.428-8.004l-14.541-9.478c-3.625-2.363-7.83-3.625-12.161-3.65l-51.001-.283c-4.49-.011-8.86 1.282-12.606 3.778l-14.49 9.66c-2.793 1.862-4.688 4.702-5.333 7.996-.646 3.295.036 6.64 1.949 9.463 11.888 17.536 28.592 30.741 48.352 38.285v26.026c-9.565 15.957-27.409 23.099-57.5 23.099-8.489 0-16.506-1.009-23.844-2.863l14.066-18.557c2.502-3.301 1.854-8.005-1.446-10.507-3.302-2.503-8.006-1.856-10.508 1.446l-16.903 22.3c-9.228-4.453-16.622-10.522-21.464-17.734l16.626-6.616c3.849-1.532 5.727-5.894 4.195-9.742-1.531-3.848-5.892-5.726-9.741-4.195l-16.836 6.7c-.417-2.19-.645-4.435-.645-6.731 0-23.924 12.173-42.58 36.18-55.45 17.436-9.348 32.819-22.922 45.722-40.347 9.647-13.028 27.261-20.203 49.599-20.203s39.952 7.175 49.599 20.203c10.309 13.923 22.472 25.795 36.151 35.287 3.402 2.359 8.076 1.517 10.437-1.887 2.362-3.402 1.517-8.076-1.886-10.438-12.331-8.557-23.315-19.285-32.648-31.889-12.547-16.945-34.442-26.277-61.653-26.277s-49.106 9.332-61.653 26.277c-11.574 15.63-25.286 27.76-40.754 36.052-28.845 15.465-44.092 39.211-44.092 68.671 0 2.8.245 5.551.678 8.255-43.298-13.773-67.417-36.438-73.57-69.041-.768-4.07-4.69-6.748-8.761-5.979-4.07.769-6.748 4.69-5.979 8.761 4.132 21.895 15.227 40.296 32.978 54.692 10.87 8.816 24.067 16.129 39.949 22.121l-50.817 20.223c-3.849 1.532-5.727 5.894-4.195 9.742 1.169 2.938 3.989 4.729 6.971 4.729.922 0 1.861-.172 2.771-.533l67.151-26.723c1.709 2.909 3.713 5.696 6.002 8.341l-32.129 23.674c-3.334 2.457-4.046 7.152-1.589 10.487 1.471 1.995 3.742 3.051 6.044 3.051 1.545 0 3.104-.476 4.443-1.462l34.559-25.464c2.097 1.529 5.087 3.434 9.128 5.623l-39.849 52.572c-2.502 3.301-1.854 8.005 1.446 10.507 1.355 1.027 2.946 1.523 4.525 1.523 2.267 0 4.507-1.023 5.982-2.97l42.211-55.688c9.826 3.191 23.229 5.279 35.441 5.052 7.813 10.837 18.328 19.296 30.65 24.582.964.413 1.967.609 2.954.609 2.909 0 5.676-1.702 6.896-4.545 1.633-3.807-.129-8.216-3.936-9.85-6.72-2.883-12.767-6.952-17.912-12.003 15.89-2.122 32.621-7.702 44.456-21.666 11.831 13.96 28.558 19.541 44.444 21.665-10.516 10.314-24.63 16.384-39.683 16.703-4.142.087-7.428 3.516-7.34 7.656.086 4.088 3.427 7.342 7.496 7.342.053 0 .107-.001.161-.002 23.164-.489 44.56-11.809 58.039-30.491 10.752.232 24.884-1.572 35.431-5.052l42.211 55.688c1.475 1.946 3.715 2.97 5.982 2.97 1.579 0 3.17-.496 4.525-1.523 3.301-2.502 3.948-7.206 1.446-10.507l-39.849-52.572c2.086-1.106 5.737-3.189 9.128-5.623l34.559 25.464c1.34.986 2.898 1.462 4.443 1.462 2.302 0 4.574-1.056 6.044-3.051 2.457-3.335 1.746-8.03-1.589-10.487l-32.129-23.674c2.289-2.645 4.293-5.432 6.002-8.341l67.151 26.723c.91.361 1.848.533 2.771.533 2.981 0 5.801-1.79 6.971-4.729 1.532-3.849-.347-8.21-4.195-9.742l-50.832-20.229c19.566-7.378 35.092-16.751 47.036-28.398 18.432-17.974 27.777-41.273 27.777-69.254 0-28.369-1.693-62.436-11.886-95.333l21.944-21.944c13.232-13.234 13.232-34.769-.002-48.003zm-288.081 196.824 12.365-8.243c1.237-.825 2.674-1.26 4.16-1.26-.026-.001 50.849.282 51.042.283 1.444.008 2.847.429 4.055 1.217l12.376 8.067c-9.948 14.021-25.29 25.565-41.977 31.417-16.082-5.589-31.773-17.025-42.021-31.481zm277.475-159.429-16.894 16.894c-3.48-8.601-7.638-17.043-12.605-25.194-7.801-12.801-17.275-24.266-28.317-34.321l7.598-7.597c7.387-7.387 19.404-7.386 26.789 0l23.43 23.43c7.384 7.386 7.384 19.403-.001 26.788z"/><path d="m27.479 278.415c.071.002.141.003.211.003 4.046 0 7.381-3.223 7.493-7.293.999-36.184 6.127-88.944 38.991-129.197 9.511-11.649 20.982-21.722 34.348-30.232l9.149 40.156c.7 2.824 4.393 6.725 8.979 5.646 4.039-.92 6.567-4.94 5.646-8.979l-10.163-44.604c8.701-4.461 18.073-8.365 28.116-11.702l-7.698 56.968c-.555 4.105 2.323 7.883 6.428 8.438 3.177.438 7.302-1.658 8.437-6.428l8.596-63.609c26.096-6.736 56.111-10.136 89.972-10.136 3.061 0 6.122.027 9.099.081 4.095.07 7.559-3.223 7.634-7.364.074-4.142-3.223-7.559-7.364-7.634-3.067-.055-6.219-.083-9.37-.083-32.538 0-61.919 3.046-87.8 9.069l4.233-31.323c.555-4.105-2.323-7.883-6.428-8.438-4.108-.553-7.882 2.324-8.437 6.428l-5.066 37.486c-6.319 1.88-12.412 3.949-18.244 6.227-5.374 2.099-10.561 4.382-15.568 6.835l-4.377-19.209c-.92-4.039-4.94-6.568-8.979-5.646-4.039.92-6.567 4.94-5.646 8.979l5.312 23.312c-5.247 3.139-10.265 6.488-15.025 10.064l-8.601-8.601c-13.233-13.232-34.767-13.234-48.001 0l-23.43 23.43c-13.234 13.234-13.234 34.769 0 48.003l21.944 21.944c-8.887 28.627-11.06 57.21-11.68 79.708-.115 4.138 3.148 7.587 7.289 7.701zm-6.947-119.963c-7.386-7.386-7.386-19.402 0-26.788l23.43-23.43c7.387-7.387 19.404-7.386 26.789 0l7.599 7.599c-5.697 5.176-10.977 10.707-15.795 16.608-10.972 13.439-19.089 28.035-25.115 42.919z"/><g><g><path d="m160.984 250.985c-4.142 0-7.5-3.357-7.5-7.5v-25c0-4.143 3.358-7.5 7.5-7.5s7.5 3.357 7.5 7.5v25c0 4.142-3.358 7.5-7.5 7.5z"/></g><g><path d="m350.984 250.985c-4.142 0-7.5-3.357-7.5-7.5v-25c0-4.143 3.358-7.5 7.5-7.5s7.5 3.357 7.5 7.5v25c0 4.142-3.358 7.5-7.5 7.5z"/></g></g></g></g></svg>