<svg height="512" viewBox="0 0 128 128" width="512" xmlns="http://www.w3.org/2000/svg"><g><g><path d="m106.112 58.189a10.037 10.037 0 0 0 -14.195 0l-8.117 8.121v-17.885a29.425 29.425 0 1 0 -58.849 0v46.275h58.849l22.316-22.317a10.036 10.036 0 0 0 -.004-14.194z" fill="#fd3a69"/><path d="m24.947 94.7h58.853a0 0 0 0 1 0 0v11.469a2.831 2.831 0 0 1 -2.835 2.831h-53.188a2.831 2.831 0 0 1 -2.831-2.831v-11.469a0 0 0 0 1 .001 0z" fill="#fecd1a"/><path d="m91.724 105.418h-7.924v-7.136h7.928a3.568 3.568 0 0 1 3.568 3.568 3.568 3.568 0 0 1 -3.572 3.568z" fill="#fc852d"/></g><g fill="#212f68"><path d="m107.3 73.621a11.787 11.787 0 1 0 -16.669-16.67l-5.134 5.135v-13.661a31.175 31.175 0 1 0 -62.349 0v57.745a4.585 4.585 0 0 0 4.58 4.58h7.03a1.75 1.75 0 0 0 0-3.5h-7.03a1.081 1.081 0 0 1 -1.08-1.08v-9.72h55.346v9.72a1.081 1.081 0 0 1 -1.081 1.08h-25.286a1.75 1.75 0 0 0 0 3.5h25.286a4.584 4.584 0 0 0 4.464-3.582h6.294a5.318 5.318 0 1 0 0-10.636h-6.177v-1.107zm-80.655 19.329v-44.525a27.675 27.675 0 1 1 55.349 0v17.885a1.749 1.749 0 0 0 2.987 1.238l8.119-8.122a8.288 8.288 0 0 1 11.721 11.721l-21.8 21.8zm65.026 7.082a1.818 1.818 0 1 1 0 3.636h-6.177v-3.636z"/><path d="m45.9 107.25h-.581a1.75 1.75 0 0 0 0 3.5h.581a1.75 1.75 0 1 0 0-3.5z"/></g></g></svg>