<svg id="Layer_1-2" viewBox="0 0 64 64" xmlns="http://www.w3.org/2000/svg"><g id="Oven"><rect fill="#ffefde" height="62" rx="4" width="60" x="2" y="1"/><path d="m2 15v-10c0-2.20556641 1.79443359-4 4-4h52c2.20556641 0 4 1.79443359 4 4v10z" fill="#f58569"/><circle cx="32" cy="8" fill="#db6342" r="3"/><circle cx="20" cy="8" fill="#db6342" r="3"/><circle cx="44" cy="8" fill="#db6342" r="3"/><path d="m10 25h44v33h-44z" fill="#ffc299"/><path d="m22 25h20v6h-20z" fill="#f4a37a"/><path d="m23 53-3-7h24l-3 7z" fill="#606b87"/><path d="m10 53h44v5h-44z" fill="#f58569"/><rect fill="#f58569" height="5" rx="1" width="48" x="8" y="20"/><g fill="#433d4c"><path d="m58 0h-52c-2.75683594 0-5 2.24316406-5 5v54c0 2.75683594 2.24316406 5 5 5h52c2.75683594 0 5-2.24316406 5-5v-54c0-2.75683594-2.24316406-5-5-5zm-55 5c0-1.65429688 1.34570312-3 3-3h52c1.65429688 0 3 1.34570312 3 3v9h-58zm58 54c0 1.65429688-1.34570312 3-3 3h-52c-1.65429688 0-3-1.34570312-3-3v-43h58z"/><path d="m32 4c-2.20556641 0-4 1.79443359-4 4s1.79443359 4 4 4 4-1.79443359 4-4-1.79443359-4-4-4zm0 6c-1.10302734 0-2-.89697266-2-2s.89697266-2 2-2 2 .89697266 2 2-.89697266 2-2 2z"/><path d="m20 4c-2.20556641 0-4 1.79443359-4 4s1.79443359 4 4 4 4-1.79443359 4-4-1.79443359-4-4-4zm0 6c-1.10302734 0-2-.89697266-2-2s.89697266-2 2-2 2 .89697266 2 2-.89697266 2-2 2z"/><path d="m44 4c-2.20556641 0-4 1.79443359-4 4s1.79443359 4 4 4 4-1.79443359 4-4-1.79443359-4-4-4zm0 6c-1.10302734 0-2-.89697266-2-2s.89697266-2 2-2 2 .89697266 2 2-.89697266 2-2 2z"/><path d="m9 26v32c0 .55224609.44775391 1 1 1h44c.55224609 0 1-.44775391 1-1v-32c1.10302734 0 2-.89697266 2-2v-3c0-1.10302734-.89697266-2-2-2h-46c-1.10302734 0-2 .89697266-2 2v3c0 1.10302734.89697266 2 2 2zm2 31v-3h42v3zm10.51660156-10h20.96679688l-2.14257812 5h-16.68164062l-2.14257812-5zm31.48339844 5h-10.48358154l2.40252686-5.60595703c.1328125-.30908203.10107422-.6640625-.08398438-.94433594-.18505859-.28076172-.49902344-.44970703-.83496094-.44970703h-24c-.3359375 0-.64990234.16894531-.83496094.44970703-.18505859.28027344-.21679688.63525391-.08398438.94433594l2.40252686 5.60595703h-10.48358154v-26h10v5c0 .55224609.44775391 1 1 1h20c.55224609 0 1-.44775391 1-1v-5h10zm-30-26h18v4h-18zm-14-5h46l.00146484 3h-46.00146484z"/><path d="m32.52685547 37.18310547.36767578-.73535156c.24707031-.49414062.046875-1.09472656-.44726562-1.34179688-.49609375-.24707031-1.09521484-.04638672-1.34179688.44726562l-.36767578.73583984c-.57080078 1.14208984-.34765625 2.515625.55517578 3.41845703.29345703.29345703.36572266.73974609.18017578 1.11083984l-.36767578.73486328c-.24707031.49365234-.046875 1.09423828.44726562 1.34179688.14355469.07177734.29589844.10546875.44628906.10546875.36669922 0 .72021484-.20214844.89550781-.55273438l.36767578-.73535156c.57080078-1.14208984.34765625-2.51611328-.55517578-3.41894531-.29296875-.29345703-.36572266-.73974609-.18017578-1.11035156z"/><path d="m38.52685547 37.18310547.36767578-.73535156c.24707031-.49414062.046875-1.09472656-.44726562-1.34179688-.49462891-.24707031-1.09472656-.04638672-1.34179688.44726562l-.36767578.73583984c-.57080078 1.14208984-.34765625 2.515625.55517578 3.41845703.29345703.29345703.36572266.73974609.18017578 1.11083984l-.36767578.73486328c-.24707031.49365234-.046875 1.09423828.44726562 1.34179688.14355469.07177734.29589844.10546875.44628906.10546875.36669922 0 .72021484-.20214844.89550781-.55273438l.36767578-.73535156c.57080078-1.14208984.34765625-2.51611328-.55517578-3.41894531-.29296875-.29345703-.36572266-.73974609-.18017578-1.11035156z"/><path d="m26.94091797 37.18310547.36767578-.73535156c.24707031-.49414062.046875-1.09472656-.44726562-1.34179688-.49511719-.24707031-1.09472656-.04638672-1.34179688.44726562l-.36767578.73583984c-.57080078 1.14208984-.34765625 2.515625.55517578 3.41845703.29345703.29345703.36572266.73974609.18017578 1.11083984l-.36767578.73486328c-.24707031.49365234-.046875 1.09423828.44726562 1.34179688.14355469.07177734.29589844.10546875.44628906.10546875.36669922 0 .72021484-.20214844.89550781-.55273438l.36767578-.73535156c.57080078-1.14208984.34765625-2.51611328-.55517578-3.41894531-.29296875-.29345703-.36572266-.73974609-.18017578-1.11035156z"/></g></g></svg>