<svg id="Capa_1" enable-background="new 0 0 510.1 510.1" height="512" viewBox="0 0 510.1 510.1" width="512" xmlns="http://www.w3.org/2000/svg"><g><g><path d="m466.949 422.44h-423.798c-6.627 0-12-5.373-12-12v-25.966h447.798v25.966c0 6.627-5.373 12-12 12z" fill="#aa9ea9"/><path d="m478.95 384.47v25.97c0 6.63-5.37 12-12 12h-25c6.63 0 12-5.37 12-12v-25.97z" fill="#9b8e99"/><path d="m502.6 99.66v277.02c0 6.63-5.37 12-12 12h-471.1c-6.63 0-12-5.37-12-12v-277.02c0-6.63 5.37-12 12-12h471.1c6.63 0 12 5.37 12 12z" fill="#ff8087"/><path d="m393.35 87.66 16.526 146.727-16.526 154.293h-25v-301.02z" fill="#e6646e"/><path d="m502.6 99.66v277.02c0 6.63-5.37 12-12 12h-99.25v-301.02h99.25c6.63 0 12 5.37 12 12z" fill="#eef5ff"/><path d="m42.501 349.678v-223.017c0-2.209 1.791-4 4-4h305.853c2.209 0 4 1.791 4 4v223.017c0 2.209-1.791 4-4 4h-305.853c-2.209 0-4-1.791-4-4z" fill="#c4d7fb"/><path d="m472.832 353.63h-51.716c-1.105 0-2-.895-2-2v-71.744c0-1.105.895-2 2-2h51.716c1.105 0 2 .895 2 2v71.744c0 1.105-.895 2-2 2z" fill="#b4e6a0"/><circle cx="446.974" cy="151.024" fill="#ffe177" r="28.411"/><path d="m474.83 279.89v71.74c0 1.1-.89 2-2 2h-23c1.11 0 2-.9 2-2v-71.74c0-1.11-.89-2-2-2h23c1.11 0 2 .89 2 2z" fill="#96d7a5"/><path d="m467.06 171.11c-8.4 8.41-20.76 10.45-31.09 6.11 3.31-1.38 6.4-3.42 9.09-6.11 11.1-11.09 11.1-29.08 0-40.18-2.69-2.69-5.78-4.72-9.09-6.1 10.33-4.34 22.69-2.3 31.09 6.1 11.1 11.1 11.1 29.09 0 40.18z" fill="#ffd164"/><path d="m356.35 126.66v223.02c0 2.21-1.79 4-4 4h-25c2.21 0 4-1.79 4-4v-223.02c0-2.21-1.79-4-4-4h25c2.21 0 4 1.79 4 4z" fill="#a9c6f9"/><path d="m502.6 99.66v277.02c0 6.63-5.37 12-12 12h-19c6.63 0 12-5.37 12-12v-277.02c0-6.63-5.37-12-12-12h19c6.63 0 12 5.37 12 12z" fill="#dfe9fb"/></g><g><path d="m490.6 80.16h-471.1c-10.752 0-19.5 8.748-19.5 19.5v20.239c0 4.143 3.358 7.5 7.5 7.5s7.5-3.357 7.5-7.5v-20.239c0-2.481 2.019-4.5 4.5-4.5h364.35v286.02h-364.35c-2.481 0-4.5-2.019-4.5-4.5v-221.78c0-4.143-3.358-7.5-7.5-7.5s-7.5 3.357-7.5 7.5v221.78c0 10.752 8.748 19.5 19.5 19.5h4.15v14.26c0 10.752 8.748 19.5 19.5 19.5h358.47c4.143 0 7.5-3.357 7.5-7.5s-3.357-7.5-7.5-7.5h-358.47c-2.481 0-4.5-2.019-4.5-4.5v-14.26h432.8v14.26c0 2.481-2.019 4.5-4.5 4.5h-30.33c-4.143 0-7.5 3.357-7.5 7.5s3.357 7.5 7.5 7.5h30.33c10.752 0 19.5-8.748 19.5-19.5v-14.26h4.149c10.752 0 19.5-8.748 19.5-19.5v-277.02c.001-10.752-8.747-19.5-19.499-19.5zm4.5 296.52c0 2.481-2.019 4.5-4.5 4.5h-91.75v-286.02h91.75c2.481 0 4.5 2.019 4.5 4.5z"/><path d="m352.354 361.178c6.341 0 11.5-5.159 11.5-11.5v-223.017c0-6.341-5.159-11.5-11.5-11.5h-305.853c-6.341 0-11.5 5.159-11.5 11.5v223.017c0 6.341 5.159 11.5 11.5 11.5zm-302.353-231.017h298.854v216.017h-298.854z"/><path d="m472.832 270.386h-51.716c-5.238 0-9.5 4.262-9.5 9.5v71.744c0 5.238 4.262 9.5 9.5 9.5h51.716c5.238 0 9.5-4.262 9.5-9.5v-71.744c0-5.239-4.262-9.5-9.5-9.5zm-5.5 75.744h-40.716v-60.744h40.716z"/><path d="m446.975 115.112c-9.593 0-18.611 3.736-25.393 10.519-6.783 6.782-10.519 15.801-10.519 25.394 0 9.592 3.735 18.61 10.518 25.394 7.001 7 16.197 10.501 25.393 10.501s18.393-3.501 25.394-10.501c6.782-6.783 10.519-15.802 10.519-25.394 0-9.593-3.736-18.611-10.519-25.393-6.783-6.783-15.802-10.52-25.393-10.52zm14.785 50.699c-8.151 8.153-21.418 8.155-29.571 0-3.95-3.949-6.125-9.201-6.125-14.786 0-2.976.635-5.849 1.809-8.489l10.541 10.541c1.464 1.464 3.384 2.196 5.303 2.196s3.839-.732 5.304-2.197c2.929-2.929 2.929-7.678-.001-10.606l-10.543-10.542c2.642-1.177 5.519-1.814 8.498-1.814 5.585 0 10.836 2.176 14.785 6.125l.001.001c3.949 3.949 6.125 9.2 6.125 14.786 0 5.583-2.176 10.835-6.126 14.785z"/><path d="m424.04 222.377h45.869c4.143 0 7.5-3.357 7.5-7.5s-3.357-7.5-7.5-7.5h-45.869c-4.143 0-7.5 3.357-7.5 7.5s3.357 7.5 7.5 7.5z"/><path d="m424.04 249.996h45.869c4.143 0 7.5-3.357 7.5-7.5s-3.357-7.5-7.5-7.5h-45.869c-4.143 0-7.5 3.357-7.5 7.5s3.357 7.5 7.5 7.5z"/><path d="m316.745 165.452c-4.143 0-7.5 3.357-7.5 7.5v130.435c0 4.143 3.357 7.5 7.5 7.5s7.5-3.357 7.5-7.5v-130.435c0-4.142-3.357-7.5-7.5-7.5z"/></g></g></svg>