<svg height="512" viewBox="0 0 128 128" width="512" xmlns="http://www.w3.org/2000/svg"><g><path d="m14.691 15.94 5.474-9.633h87.67l5.474 9.633z" fill="#55c2e3"/><path d="m14.691 113.407h10.949v8.286h-10.949z" fill="#55c2e3"/><path d="m102.36 113.407h10.949v8.286h-10.949z" fill="#55c2e3"/><rect fill="#80e2ff" height="97.467" rx="5.005" width="115.386" x="6.307" y="15.94"/><path d="m20.165 47.817h87.67v51.732h-87.67z" fill="#f3f5e6"/><g fill="#fa7578"><circle cx="25.64" cy="31.878" r="5.475"/><circle cx="51.213" cy="31.878" r="5.475"/><circle cx="76.787" cy="31.878" r="5.475"/><circle cx="102.36" cy="31.878" r="5.475"/></g><g><path d="m121.693 38.7a1.751 1.751 0 0 0 -1.75 1.75v67.95a3.258 3.258 0 0 1 -3.255 3.255h-105.376a3.258 3.258 0 0 1 -3.255-3.255v-9.889a1.75 1.75 0 0 0 -3.5 0v9.889a6.762 6.762 0 0 0 6.755 6.755h1.628v6.536a1.751 1.751 0 0 0 1.75 1.75h10.95a1.751 1.751 0 0 0 1.75-1.75v-6.536h73.22v6.536a1.751 1.751 0 0 0 1.75 1.75h10.95a1.751 1.751 0 0 0 1.75-1.75v-6.536h1.628a6.762 6.762 0 0 0 6.755-6.755v-67.955a1.751 1.751 0 0 0 -1.75-1.745zm-97.8 81.248h-7.453v-4.786h7.45zm87.67 0h-7.45v-4.786h7.45z"/><path d="m116.688 14.19h-2.36l-4.972-8.748a1.75 1.75 0 0 0 -1.521-.885h-87.67a1.75 1.75 0 0 0 -1.521.885l-4.972 8.748h-2.36a6.762 6.762 0 0 0 -6.755 6.754v54.174a1.75 1.75 0 0 0 3.5 0v-54.174a3.258 3.258 0 0 1 3.255-3.254h105.376a3.258 3.258 0 0 1 3.255 3.254v10.138a1.75 1.75 0 1 0 3.5 0v-10.138a6.762 6.762 0 0 0 -6.755-6.754zm-95.5-6.133h85.634l3.478 6.133h-92.6z"/><path d="m6.307 91.023a1.751 1.751 0 0 0 1.75-1.75v-4.5a1.75 1.75 0 0 0 -3.5 0v4.5a1.751 1.751 0 0 0 1.75 1.75z"/><path d="m18.415 99.548a1.75 1.75 0 0 0 1.75 1.75h87.67a1.75 1.75 0 0 0 1.75-1.75v-51.731a1.751 1.751 0 0 0 -1.75-1.75h-87.67a1.751 1.751 0 0 0 -1.75 1.75zm3.5-49.981h84.17v48.233h-84.17z"/><path d="m25.64 39.1a7.225 7.225 0 1 0 -7.225-7.224 7.232 7.232 0 0 0 7.225 7.224zm0-10.949a3.725 3.725 0 1 1 -3.725 3.725 3.729 3.729 0 0 1 3.725-3.723z"/><path d="m58.438 31.878a7.225 7.225 0 1 0 -7.225 7.222 7.233 7.233 0 0 0 7.225-7.222zm-10.949 0a3.725 3.725 0 1 1 3.724 3.722 3.729 3.729 0 0 1 -3.724-3.722z"/><path d="m84.011 31.878a7.225 7.225 0 1 0 -7.224 7.222 7.233 7.233 0 0 0 7.224-7.222zm-10.949 0a3.725 3.725 0 1 1 3.725 3.722 3.729 3.729 0 0 1 -3.725-3.722z"/><path d="m109.585 31.878a7.225 7.225 0 1 0 -7.225 7.222 7.233 7.233 0 0 0 7.225-7.222zm-10.949 0a3.725 3.725 0 1 1 3.724 3.722 3.729 3.729 0 0 1 -3.724-3.722z"/><path d="m100.588 63.31h-73.176a1.75 1.75 0 0 0 0 3.5h73.176a1.75 1.75 0 0 0 0-3.5z"/><path d="m100.588 80.555h-73.176a1.75 1.75 0 0 0 0 3.5h73.176a1.75 1.75 0 0 0 0-3.5z"/></g></g></svg>