<svg clip-rule="evenodd" fill-rule="evenodd" stroke-linejoin="round" stroke-miterlimit="2" viewBox="0 0 96 96" xmlns="http://www.w3.org/2000/svg"><g><g><path d="m13.054 18.599s7.933-.045 12.197 18.402c2.943 12.735 5.931 16.379 12.799 21.541 6.013 4.519 10.88-.44 16.485 9.848 2.642 4.85 2.904 8.86 2.904 8.86s-5.946 7.983-21.731 4.706c-28.551-5.929-23.877-38.202-28.095-52.156-2.736-9.052 5.441-11.201 5.441-11.201z" fill="#da9c20"/><path d="m7.933 32.574s10.311 5.85 11.167 23.271c.856 17.441 20.554 26.659 33.282 28.159 11.574 1.365 22.954-7.088 32.543-3.49.383.143 1.373.576 2.422 1.044.692.291 1.488.175 2.068-.303.579-.477.846-1.237.692-1.972-1.162-5.369-4.936-15.307-17.22-21.726-9.663-5.05-25.84-31.03-25.84-31.03l-39.114 6.047z" fill="#b6821b"/><path d="m48.027 8.125s7.668-.046 11.788 18.402c2.845 12.735 5.733 16.379 12.37 21.54 5.812 4.52 14.514 11.558 19.931 21.847.81 1.538 1.389 2.991 1.801 4.259.234.784-.035 1.632-.678 2.139-.643.506-1.53.568-2.237.157-4.146-2.098-11.432-4.866-21.08-4.988-23.029-.291-26.021-42.772-27.152-52.156-1.132-9.383 5.257-11.2 5.257-11.2z" fill="#da9c20"/><path d="m30.025 51.135c-1.9 0-3.8-.532-5.468-1.594-7.742-4.922-15.604-11.208-19.071-17.494-6.134-10.383-3.204-20.198 1.372-24.587 9.885-9.48 15.458-3.926 23.167-3.908 7.708-.018 13.281-5.572 23.166 3.908 4.577 4.389 7.507 14.204 1.372 24.587-3.466 6.286-11.328 12.572-19.071 17.494-1.667 1.062-3.567 1.594-5.467 1.594z" fill="#f3ae24"/><path d="m27.946 12.228c1.155 1.131 3.002 1.131 4.157 0 4.812-4.758 12.066-4.316 15.959-1.084 4.51 3.745 4.51 11.233 0 18.721-2.925 5.205-10.112 10.411-16.533 14.125-.932.534-2.077.535-3.009.001-6.421-3.715-13.607-8.921-16.533-14.126-4.509-7.488-4.509-14.976 0-18.721 3.894-3.232 11.148-3.674 15.959 1.084z" fill="#fac7a5"/><g fill="#b6821b"><path d="m38.965 17.762c.551-.37 1.249-.446 1.867-.202 1.792.732 3.068 2.488 3.068 4.539 0 2.675-2.172 4.848-4.847 4.848-2.676 0-4.848-2.173-4.848-4.848 0-.034 0-.067.001-.101.01-.661.345-1.275.894-1.643 1.019-.685 2.859-1.919 3.865-2.593z"/><path d="m21.085 17.762c-.551-.37-1.249-.446-1.867-.202-1.792.732-3.069 2.488-3.069 4.539 0 2.675 2.173 4.848 4.848 4.848 2.676 0 4.848-2.173 4.848-4.848 0-.034 0-.067-.001-.101-.011-.661-.345-1.275-.894-1.643-1.019-.685-2.859-1.919-3.865-2.593z"/></g></g><g><path d="m45.451 81.877c-2.619.254-5.746.126-9.438-.64-13.936-2.894-19.523-12.416-22.237-22.763-1.884-7.18-2.413-14.761-3.266-20.977-.112-.82-.87-1.395-1.69-1.282-.82.112-1.395.87-1.282 1.69.867 6.321 1.42 14.028 3.336 21.33 2.984 11.375 9.21 21.758 24.529 24.939 4.043.84 7.469.967 10.337.689.824-.08 1.428-.814 1.348-1.638s-.813-1.428-1.637-1.348z"/><path d="m40.684 83.13-1.607 6.401c-.192.761-.926 1.252-1.7 1.142-1.592-.262-3.198.204-4.781 1.515-.638.527-.727 1.474-.199 2.112.528.637 1.474.726 2.112.199.8-.663 1.576-1.001 2.373-.867.006.001.012.002.019.003 2.311.357 4.515-1.104 5.085-3.372l1.608-6.402c.202-.803-.287-1.619-1.089-1.821-.803-.201-1.619.287-1.821 1.09z"/><path d="m55.898 84.54-1.311 5.22c-.189.754-.914 1.246-1.684 1.144-1.537-.211-3.085.153-4.625 1.198-.685.464-.864 1.398-.399 2.083s1.398.864 2.083.399c.85-.576 1.69-.825 2.538-.707.003 0 .006.001.009.001 2.282.302 4.427-1.155 4.988-3.387l1.311-5.221c.202-.802-.286-1.618-1.089-1.82-.803-.201-1.619.287-1.821 1.09z"/><path d="m87.622 76.793c.471 1.318.795 2.522 1.018 3.55.038.189-.031.383-.179.505-.142.117-.335.149-.507.087-1.094-.486-2.108-.928-2.502-1.076-5.077-1.904-10.634-.716-16.448.865-5.309 1.444-10.851 3.201-16.447 2.541-6.156-.726-13.997-3.319-20.403-7.838-6.252-4.411-11.152-10.673-11.556-18.905-.035-.714-.086-1.409-.15-2.086-.079-.824-.812-1.429-1.636-1.351-.824.079-1.429.812-1.351 1.636.061.632.108 1.281.14 1.948.453 9.208 5.83 16.276 12.823 21.209 6.839 4.825 15.21 7.591 21.782 8.366 5.979.705 11.913-1.082 17.585-2.625 5.167-1.405 10.095-2.644 14.607-.951.37.139 1.325.559 2.338 1.01.009.004.019.008.028.012 1.206.508 2.595.305 3.605-.527s1.475-2.157 1.206-3.438c0-.003-.001-.006-.002-.01-.246-1.138-.604-2.471-1.125-3.931-.279-.78-1.138-1.187-1.917-.908-.78.278-1.187 1.137-.909 1.917z"/><path d="m59.426 31.975c2.671 9.781 5.749 13.291 11.838 18.026 5.687 4.423 14.224 11.293 19.525 21.362.759 1.44 1.302 2.802 1.691 3.992.055.202-.013.405-.169.528-.159.126-.38.141-.555.039-.025-.015-.051-.028-.077-.042-4.275-2.163-11.788-5.023-21.738-5.149-6.383-.081-11.065-3.727-14.571-8.943-3.697-5.5-6.099-12.727-7.717-19.688-.187-.807-.994-1.309-1.801-1.122-.806.188-1.308.995-1.121 1.801 1.701 7.318 4.262 14.9 8.149 20.682 4.077 6.066 9.601 10.176 17.023 10.27 9.312.118 16.354 2.775 20.377 4.804 1.242.699 2.774.582 3.887-.295 1.127-.887 1.597-2.372 1.187-3.746-.003-.012-.007-.023-.011-.035-.435-1.338-1.045-2.871-1.899-4.494-5.533-10.509-14.402-17.716-20.338-22.332-5.554-4.319-8.35-7.528-10.786-16.448-.218-.799-1.043-1.27-1.842-1.052s-1.27 1.044-1.052 1.842z"/><path d="m30.025 53.385c2.18 0 4.36-.61 6.273-1.829 7.96-5.06 16.005-11.562 19.573-18.025 6.577-11.149 3.278-21.687-1.641-26.404-6.446-6.181-11.226-6.421-15.811-5.667-2.734.449-5.397 1.334-8.394 1.342-2.998-.008-5.66-.893-8.395-1.342-4.585-.754-9.364-.514-15.81 5.667-4.922 4.72-8.222 15.266-1.625 26.433 3.56 6.441 11.601 12.939 19.556 17.996 1.914 1.219 4.094 1.829 6.274 1.829zm0-3c-1.62 0-3.24-.453-4.661-1.359-.001-.001-.001-.001-.002-.001-7.52-4.781-15.195-10.846-18.562-16.952-.007-.013-.015-.026-.022-.039-5.672-9.601-3.113-18.684 1.118-22.742 3.181-3.05 5.854-4.445 8.317-4.92 2.47-.476 4.705-.038 6.965.442 2.201.467 4.422.982 6.843.988h.007c2.421-.006 4.643-.521 6.844-.988 2.26-.48 4.495-.918 6.964-.442 2.464.475 5.137 1.87 8.317 4.92 4.232 4.058 6.791 13.141 1.119 22.742-.008.013-.015.026-.022.039-3.367 6.106-11.042 12.171-18.562 16.952-.001 0-.001 0-.002.001-1.421.906-3.041 1.359-4.661 1.359z"/><path d="m13.245 12.812c3.471-2.6 9.563-2.806 13.647 1.233.001.002.003.003.005.005 1.738 1.701 4.518 1.701 6.255-.001.002-.001.004-.003.006-.005 4.206-4.158 10.543-3.821 13.946-.996 4.046 3.36 3.719 10.075-.327 16.793-.008.013-.015.026-.022.039-2.819 5.015-9.786 9.98-15.973 13.56-.469.268-1.046.268-1.515 0-6.187-3.58-13.153-8.545-15.972-13.56-.007-.013-.015-.026-.023-.039-2.919-4.847-3.872-9.676-2.664-13.312.261-.785-.164-1.635-.95-1.896s-1.635.165-1.897.95c-1.429 4.303-.517 10.056 2.934 15.793 3.035 5.382 10.429 10.818 17.074 14.663.002.001.004.003.006.004 1.394.798 3.106.797 4.5-.001.002-.001.003-.002.005-.003 6.65-3.847 14.049-9.288 17.084-14.679 4.957-8.244 4.627-16.493-.344-20.62-4.383-3.639-12.554-4.186-17.972 1.171-.566.555-1.481.555-2.053-.005-5.245-5.187-13.086-4.838-17.548-1.495-.663.496-.798 1.437-.302 2.1.497.662 1.438.797 2.1.301z"/><path d="m34.381 31.551c-1.614.708-2.913 1.689-3.944 2.846-.004.005-.008.009-.011.013-.091.104-.222.163-.36.162s-.268-.063-.357-.168c-.002-.002-.003-.004-.005-.006-1.031-1.211-2.378-2.204-4.094-2.872-.772-.3-1.642.083-1.942.854-.3.772.082 1.642.854 1.942 1.212.472 2.169 1.165 2.897 2.021.649.769 1.608 1.22 2.622 1.229 1.009.008 1.972-.423 2.638-1.181.76-.852 1.719-1.571 2.908-2.093.758-.333 1.103-1.219.77-1.977s-1.218-1.103-1.976-.77z"/><path d="m51.449 83.181c-5.689-3.881-9.265-8.325-10.491-13.445-.192-.805-1.003-1.303-1.808-1.11s-1.302 1.003-1.109 1.808c1.38 5.769 5.308 10.853 11.717 15.225.684.466 1.618.29 2.084-.394.467-.684.29-1.618-.393-2.084z"/><path d="m38.129 17.266-3.866 2.594c-.956.641-1.538 1.71-1.557 2.862-.001.042-.001.084-.001.127 0 3.503 2.844 6.348 6.348 6.348 3.503 0 6.347-2.845 6.347-6.348 0-2.678-1.662-4.972-4-5.928-.006-.002-.012-.004-.017-.007-1.077-.424-2.293-.293-3.254.352zm1.671 2.491h.001c.137-.092.309-.113.464-.058 1.25.515 2.135 1.729 2.135 3.15 0 1.847-1.5 3.348-3.347 3.348-1.848 0-3.348-1.501-3.348-3.348v-.076c.003-.17.089-.328.23-.422.001-.001.001-.001.002-.001 1.019-.685 2.858-1.918 3.863-2.593z"/><path d="m21.921 17.266c-.961-.645-2.177-.776-3.254-.352-.005.003-.011.005-.017.007-2.338.956-4.001 3.25-4.001 5.928 0 3.503 2.845 6.348 6.348 6.348 3.504 0 6.348-2.845 6.348-6.348 0-.043 0-.085-.001-.127-.019-1.152-.602-2.221-1.559-2.863zm-1.672 2.491h.001c1.005.675 2.844 1.908 3.863 2.593.001 0 .001 0 .002.001.141.094.227.252.229.422l.001.076c0 1.847-1.5 3.348-3.348 3.348-1.847 0-3.348-1.501-3.348-3.348 0-1.419.884-2.632 2.121-3.144.162-.062.339-.042.479.052z"/></g></g></svg>