<svg height="512" viewBox="0 0 128 128" width="512" xmlns="http://www.w3.org/2000/svg"><g><g><g fill="#f5c464"><path d="m86.135 31.17c-.11.17-.22.34-.34.5-.15.2-.29.4-.44.59-.35.46-.71.9-1.08 1.34a26.829 26.829 0 0 1 -2.77 2.77 11.01 11.01 0 0 1 4.39 8.8 11.014 11.014 0 0 1 -10.06 10.96c-.31.03-.62.04-.93.04a10.869 10.869 0 0 1 -4.42-.93 6.97 6.97 0 0 1 -.78-.37 11.02 11.02 0 0 1 -5.8-9.7 11.02 11.02 0 0 1 -5.8 9.7c-.3.16-.6.3-.91.43a10.96 10.96 0 0 1 -4.29.87c-.23 0-.45-.01-.68-.02a11 11 0 0 1 -6.47-19.33 26.407 26.407 0 0 1 -3.3-3.22c-.37-.44-.73-.88-1.08-1.34-.12-.15-.23-.31-.35-.47a26.1 26.1 0 0 0 -8.17 18.78 25.322 25.322 0 0 0 3.43 12.7 27.523 27.523 0 0 0 3.36 4.64 32.471 32.471 0 0 0 24.26 10.44 32.387 32.387 0 0 0 24.595-10.81 27.4 27.4 0 0 0 3.14-4.46 25.359 25.359 0 0 0 3.32-12.51 26.252 26.252 0 0 0 -8.825-19.4z"/><path d="m63.725 43.19a10.723 10.723 0 0 1 .18 1.98 10.912 10.912 0 0 1 .18-1.99c-.12 0-.24.01-.36.01z"/></g><path d="m90.775 18.77a27.418 27.418 0 0 1 -4.64 12.4c-.11.17-.22.34-.34.5-.15.2-.29.4-.44.59-.35.46-.71.9-1.08 1.34a26.829 26.829 0 0 1 -2.77 2.77 27.409 27.409 0 0 1 -17.42 6.81c-.12 0-.24.01-.36.01h-.36a27.409 27.409 0 0 1 -17.61-6.37 26.407 26.407 0 0 1 -3.3-3.22c-.37-.44-.73-.88-1.08-1.34-.12-.15-.23-.31-.35-.47l-.09-.12a27.451 27.451 0 0 1 -4.98-12.9 46.5 46.5 0 0 0 14.26 5.89 27.629 27.629 0 0 1 26.3 0 46.5 46.5 0 0 0 14.26-5.89z" fill="#f26e53"/><path d="m69.705 54.87c-1.28 3.69-5.8 7.03-5.8 7.03s-4.52-3.34-5.8-7.03a11.02 11.02 0 0 0 5.8-9.7 11.02 11.02 0 0 0 5.8 9.7z" fill="#f26e53"/><path d="m63.905 45.17a11 11 0 1 1 -18.15-8.35 27.409 27.409 0 0 0 17.61 6.37h.36a10.723 10.723 0 0 1 .18 1.98z" fill="#fff7ed"/><path d="m85.9 45.17a11 11 0 1 1 -21.81-1.99 27.409 27.409 0 0 0 17.42-6.81 11.01 11.01 0 0 1 4.39 8.8z" fill="#fff7ed"/><path d="m56.17 48.6a1.743 1.743 0 0 1 -1.237-.513 2.93 2.93 0 0 0 -4.045 0 1.75 1.75 0 0 1 -2.476-2.475 6.36 6.36 0 0 1 8.995 0 1.751 1.751 0 0 1 -1.237 2.988z" fill="#004452"/><path d="m78.16 48.6a1.741 1.741 0 0 1 -1.237-.513 2.93 2.93 0 0 0 -4.045 0 1.75 1.75 0 1 1 -2.478-2.479 6.359 6.359 0 0 1 8.994 0 1.751 1.751 0 0 1 -1.234 2.992z" fill="#004452"/><path d="m88.715 72.38a47.812 47.812 0 0 1 -6.19 24.26c-4.51 7.58-11.1 12.36-18.44 12.36s-13.93-4.78-18.44-12.36a47.812 47.812 0 0 1 -6.19-24.26c0-1.51.06-3.01.19-4.47a32.471 32.471 0 0 0 24.26 10.44 32.387 32.387 0 0 0 24.595-10.81c.145 1.58.215 3.2.215 4.84z" fill="#f79f63"/><g fill="#ee404c"><path d="m39.455 72.38a47.812 47.812 0 0 0 6.19 24.26c-10.33-3.94-17.24-11.09-17.24-19.26 0-5.35 2.95-10.25 7.88-14.11a27.523 27.523 0 0 0 3.36 4.64c-.13 1.46-.19 2.96-.19 4.47z"/><path d="m99.765 77.38c0 8.17-6.91 15.32-17.24 19.26a47.812 47.812 0 0 0 6.19-24.26c0-1.64-.07-3.26-.22-4.84a27.4 27.4 0 0 0 3.14-4.46c5.08 3.89 8.13 8.86 8.13 14.3z"/></g></g><g fill="#250a66"><path d="m92.941 46.476q.1.566.173 1.141a1.75 1.75 0 0 0 1.735 1.532 1.628 1.628 0 0 0 .219-.013 1.75 1.75 0 0 0 1.519-1.954c-.056-.443-.122-.881-.2-1.318a1.75 1.75 0 0 0 -3.446.612z"/><path d="m57.5 45.608a6.36 6.36 0 0 0 -9 0 1.75 1.75 0 0 0 2.476 2.475 2.93 2.93 0 0 1 4.045 0 1.75 1.75 0 1 0 2.479-2.475z"/><path d="m75 43.745a6.317 6.317 0 0 0 -4.5 1.863 1.75 1.75 0 1 0 2.475 2.475 2.93 2.93 0 0 1 4.045 0 1.75 1.75 0 0 0 2.474-2.475 6.32 6.32 0 0 0 -4.494-1.863z"/><path d="m101.61 77.38c0-5.363-2.714-10.559-7.67-14.763a27.465 27.465 0 0 0 2.183-6.056 1.75 1.75 0 0 0 -3.412-.781 24.052 24.052 0 0 1 -2.5 6.441 25.765 25.765 0 0 1 -2.946 4.179 30.521 30.521 0 0 1 -23.265 10.2 30.664 30.664 0 0 1 -22.956-9.858 25.912 25.912 0 0 1 -3.144-4.342 23.41 23.41 0 0 1 -3.2-11.83 24.155 24.155 0 0 1 6.3-16.11c.079.094.149.188.229.283a28.518 28.518 0 0 0 2.1 2.165 12.721 12.721 0 0 0 14.005 20.241 23.033 23.033 0 0 0 5.626 6.159 1.752 1.752 0 0 0 2.08 0 23.036 23.036 0 0 0 5.625-6.159 12.715 12.715 0 0 0 17.075-11.979 12.643 12.643 0 0 0 -3.557-8.813q.774-.769 1.526-1.63c.252-.3.486-.6.725-.9a26.348 26.348 0 0 1 3.317 4.309 1.749 1.749 0 0 0 2.982-1.83 29.842 29.842 0 0 0 -4.263-5.389 29.366 29.366 0 0 0 4.138-11.946 1.75 1.75 0 0 0 -2.679-1.678 44.218 44.218 0 0 1 -13.089 5.507 29.382 29.382 0 0 0 -26.759 0 44.179 44.179 0 0 1 -13.09-5.509 1.75 1.75 0 0 0 -2.68 1.676 29.359 29.359 0 0 0 4.558 12.617 27.7 27.7 0 0 0 -7.669 18.986 27.162 27.162 0 0 0 2.964 12.263c-4.791 4.167-7.414 9.281-7.414 14.547 0 8.553 6.65 16.241 17.807 20.665 4.985 8.078 12.1 12.7 19.623 12.7s14.638-4.628 19.622-12.7c11.158-4.424 17.808-12.111 17.808-20.665zm-57.85-32.21a9.238 9.238 0 0 1 2.253-6.029 29.306 29.306 0 0 0 16.224 5.746c0 .095.013.187.013.283a9.245 9.245 0 1 1 -18.49 0zm20.24 14.473a18.072 18.072 0 0 1 -3.56-4.118 12.763 12.763 0 0 0 3.56-3.912 12.763 12.763 0 0 0 3.56 3.912 18.072 18.072 0 0 1 -3.56 4.118zm11-5.223a9.232 9.232 0 0 1 -9.25-9.25c0-.119.011-.232.015-.348a29.268 29.268 0 0 0 15.781-6.168 9.243 9.243 0 0 1 -6.546 15.766zm-25.094-28.057a1.747 1.747 0 0 0 1.238-.165 25.883 25.883 0 0 1 24.632 0 1.738 1.738 0 0 0 1.238.165 49.793 49.793 0 0 0 11.433-4.181 25.925 25.925 0 0 1 -3.684 8.035c-.089.136-.177.274-.276.406l-.163.221c-.082.113-.163.224-.265.355-.333.437-.675.856-1.01 1.253a25.244 25.244 0 0 1 -2.6 2.6 25.783 25.783 0 0 1 -16.269 6.378h-.059c-.066 0-.133 0-.2.005h-.462a25.833 25.833 0 0 1 -16.5-5.976 24.843 24.843 0 0 1 -3.067-2.99c-.351-.418-.694-.837-1.053-1.308-.059-.073-.114-.15-.171-.227l-.213-.29a25.817 25.817 0 0 1 -3.984-8.469 49.854 49.854 0 0 0 11.435 4.188zm14.274 80.887c-6.413 0-12.586-4.193-16.937-11.507a40.933 40.933 0 0 1 -4.453-11.015 1.75 1.75 0 0 0 -3.395.852 46.916 46.916 0 0 0 2.535 7.395c-7.3-3.924-11.68-9.64-11.68-15.595 0-4.122 1.974-8.057 5.725-11.475a29.344 29.344 0 0 0 1.973 2.6c-.091 1.247-.148 2.539-.148 3.877s.048 2.685.142 4.012a1.749 1.749 0 0 0 1.743 1.626h.126a1.75 1.75 0 0 0 1.622-1.869c-.088-1.245-.133-2.511-.133-3.764 0-.167.008-.327.01-.493a34.64 34.64 0 0 0 22.69 8.206 34.5 34.5 0 0 0 23.042-8.513c0 .266.018.524.018.793 0 8.636-2.111 16.933-5.944 23.365-4.35 7.312-10.523 11.505-16.936 11.505zm22.246-14.273a51.921 51.921 0 0 0 4.134-20.6c0-1.473-.067-2.9-.177-4.268a29.11 29.11 0 0 0 1.778-2.4c3.9 3.462 5.949 7.466 5.949 11.672 0 5.955-4.381 11.672-11.684 15.596z"/></g></g></svg>