<svg id="Layer_1" enable-background="new 0 0 512 512" height="512" viewBox="0 0 512 512" width="512" xmlns="http://www.w3.org/2000/svg"><g id="XMLID_1_"><g id="XMLID_4023_"><path id="XMLID_1699_" d="m507 378v129h-502v-210h1.2c97.9.6 245.2 81 322.1 81z" fill="#f6c9aa"/><path id="XMLID_2452_" d="m507 378v129h-316.3c0-82.9 187.3-83 187.3-112.3 0-13.6-31.7-16.7-31.7-16.7z" fill="#4893cc"/><path id="XMLID_1510_" d="m219.8 130.2s13-125.2 95.3-125.2c52.5 0 73.7 19.9 73.7 19.9l-30 13.7-41.3-18.7 26.3 26.2-54.5 29.2-22.7-20.7 12.6 29.6z" fill="#47b85c"/><path id="XMLID_1506_" d="m401.3 238.6-36.1-21.5 4-50.9-22.8 39.7-49.1-29.3 14.3-35.8-29 27-63-37.6s71.9-33.1 131.8-6.6c68.3 30.3 49.9 115 49.9 115z" fill="#47b85c"/><path id="XMLID_1505_" d="m150.1 87.2 12.3-30-26 21.6-40.2-24.9 13.2-25.8-25.7 18.1-24.3-15.1s26.9-26.1 82.8-26.1c56 0 77.2 125.2 77.2 125.2z" fill="#47b85c"/><path id="XMLID_1504_" d="m158.6 169.9-23.4-24.7 16.1 29.5-50 32.5-15.3-41.8v51.7l-32.7 21.5s-15.6-79.9 33.7-108.4 132.4 0 132.4 0z" fill="#47b85c"/><path id="XMLID_612_" d="m190.7 507c0-82.9 187.3-83 187.3-112.3 0-13.5-31.7-16.7-31.7-16.7h58s39.7 5.2 31.7 22.7-171.9 75.6-27.4 106.3z" fill="#cde9fe"/><path id="XMLID_1512_" d="m507 435.8c-33.5 14.9-78.5 37.2 0 52.1z" fill="#3279af"/><path id="XMLID_1511_" d="m219.8 130c-69 121-52.2 330-52.2 330h-70.6s19.2-238 105.9-330z" fill="#d84861"/><circle id="XMLID_1509_" cx="243.1" cy="130.2" fill="#399349" r="25"/><circle id="XMLID_1508_" cx="195.8" cy="130.2" fill="#399349" r="25"/><circle id="XMLID_1507_" cx="219.4" cy="153.8" fill="#47b85c" r="25"/><g fill="#c22945"><path id="XMLID_2056_" d="m161.7 193c-3.1 6.5-6.1 13.2-8.9 20h34.6c1.8-6.7 3.7-13.4 5.8-20z"/><path id="XMLID_2054_" d="m142.8 239c-2.3 6.6-4.6 13.3-6.7 20h41.3c1.2-6.7 2.4-13.3 3.8-20z"/><path id="XMLID_2047_" d="m125.4 296c-1.7 6.7-3.4 13.4-5 20h49.3c.6-6.6 1.3-13.3 2.1-20z"/><path id="XMLID_2048_" d="m113.1 350c-1.4 6.8-2.6 13.5-3.8 20h57c.2-6.5.5-13.1.9-20z"/><path id="XMLID_2049_" d="m99.5 436h66.9c-.2-5.8-.4-12.5-.5-20h-63.8c-1.1 7.5-1.9 14.2-2.6 20z"/></g><g id="XMLID_2168_"><path id="XMLID_2180_" d="m456 400h30v10h-30z" fill="#cde9fe"/></g><g id="XMLID_2167_"><path id="XMLID_2179_" d="m441 421h30v10h-30z" fill="#cde9fe"/></g><g id="XMLID_2162_"><g id="XMLID_2165_"><path id="XMLID_2178_" d="m33 355h12v10h-12z" fill="#f3ab7d"/></g><g id="XMLID_2164_"><path id="XMLID_2177_" d="m45 335h12v10h-12z" fill="#f3ab7d"/></g><g id="XMLID_2163_"><path id="XMLID_2176_" d="m57 355h12v10h-12z" fill="#f3ab7d"/></g></g><g id="XMLID_2143_"><g id="XMLID_2161_"><path id="XMLID_2173_" d="m232 391h12v10h-12z" fill="#f3ab7d"/></g><g id="XMLID_2160_"><path id="XMLID_2172_" d="m220 411h12v10h-12z" fill="#f3ab7d"/></g><g id="XMLID_2157_"><path id="XMLID_2171_" d="m208 391h12v10h-12z" fill="#f3ab7d"/></g></g></g><g id="XMLID_3568_"><g id="XMLID_390_"><path id="XMLID_3420_" d="m507 512h-502c-2.8 0-5-2.2-5-5v-210c0-2.8 2.2-5 5-5h1.1c29.4.2 65.9 7.4 115 22.6l-3 9.6c-46-14.3-80.5-21.3-108.2-22.1v199.9h492v-119h-173.6c-37.1 0-90.4-18.3-141.9-36.1l3.3-9.5c50.7 17.5 103.2 35.5 138.7 35.5h178.6c2.8 0 5 2.2 5 5v129c0 2.9-2.2 5.1-5 5.1z" fill="#4d2419"/></g><g id="XMLID_469_"><path id="XMLID_3110_" d="m195.7 507h-10c0-55.9 76.5-76 132.4-90.7 16.5-4.3 30.7-8.1 41-12.1 12.9-5.1 13.9-8.5 13.9-9.4 0-5.9-15.8-10.5-27.2-11.7l1-10c6.1.6 36.3 4.4 36.3 21.6 0 14.8-24.8 21.3-62.4 31.2-52.8 13.9-125 32.9-125 81.1z" fill="#4d2419"/></g><g id="XMLID_118_"><path id="XMLID_3109_" d="m353.5 491.1c-6.7-5.7-9.8-12.3-9.2-19.5 1.8-20.5 34.8-40 61.3-55.6 10.8-6.4 24.2-14.3 25.8-17.3 1-2.1.6-3.4.1-4.3-3.2-5.7-18.2-10-27.9-11.3l1.3-9.9c2.9.4 28.5 4 35.4 16.3 2.3 4.1 2.4 8.7.3 13.3-2.5 5.5-12 11.3-29.8 21.8-21.9 12.9-55 32.4-56.4 47.8-.3 3.9 1.5 7.5 5.7 11z" fill="#4d2419"/></g><g id="XMLID_251_"><path id="XMLID_3108_" d="m506.1 492.8c-31.6-6-46.3-13.5-47.5-24.4-1.7-14.4 22-26.2 46.4-37.1l4.1 9.1c-10.4 4.6-21.1 9.6-29.2 14.8-11 7.1-11.5 11-11.4 12 .2 1.4 2.8 8.8 39.5 15.8z" fill="#4d2419"/></g><g id="XMLID_128_"><path id="XMLID_3107_" d="m167.6 465h-70.6c-1.4 0-2.7-.6-3.7-1.6-.9-1-1.4-2.4-1.3-3.8 0-.5 4.3-51.9 17.2-115.3 17.4-85.4 41.3-150.7 71.2-194.1l8.2 5.7c-36.2 52.7-57.9 132.6-69.6 190.3-10.4 51-15.1 94.1-16.5 108.9h59.8c-.8-13.2-2.5-49.2-.5-94.2 2.3-52.5 10.1-128.4 34.5-192l9.3 3.6c-45.8 119.5-33.1 285.6-33 287.3.1 1.4-.4 2.8-1.3 3.8-1 .8-2.3 1.4-3.7 1.4z" fill="#4d2419"/></g><g id="XMLID_475_"><path id="XMLID_3106_" d="m226.8 117.8-9.8-1.8c6.5-34.9 29.2-116 98.1-116 53.8 0 76.2 20.4 77.2 21.2 1.2 1.1 1.8 2.8 1.5 4.5-.3 1.6-1.3 3-2.9 3.7l-30 13.7c-1.3.6-2.8.6-4.2 0l-16.1-7.3 6.8 6.7c1.1 1.1 1.6 2.7 1.4 4.3s-1.2 2.9-2.6 3.7l-54.5 29.2c-1.9 1-4.2.7-5.7-.7l-5.7-5.2 3.6 8.5c.9 2.1.3 4.5-1.5 5.9l-28.6 22.2-6.1-7.9 25.6-19.8-11-26.1c-.9-2.2-.2-4.7 1.7-6 1.9-1.4 4.5-1.2 6.3.4l20.1 18.4 45.4-24.3-21.8-21.7c-1.7-1.7-2-4.4-.6-6.4s4-2.7 6.2-1.7l39.2 17.8 19.9-9.1c-9.6-5.5-29.9-14-63.6-14-61.5 0-82.2 75.4-88.3 107.8z" fill="#4d2419"/></g><g id="XMLID_115_"><path id="XMLID_3105_" d="m244.7 160.2-.5-10c10.6-.6 18.9-9.3 18.9-20 0-11-9-20-20-20-8.5 0-16.1 5.4-18.9 13.5-.7 2-2.6 3.4-4.7 3.4-2.1 0-4-1.4-4.7-3.4-2.8-8-10.4-13.5-18.9-13.5-11 0-20 9-20 20 0 10.6 8.3 19.4 18.9 20l-.5 10c-15.9-.9-28.4-14-28.4-30 0-16.5 13.5-30 30-30 9.4 0 18 4.4 23.6 11.5 5.6-7.1 14.2-11.5 23.6-11.5 16.5 0 30 13.5 30 30 0 15.9-12.5 29.1-28.4 30z" fill="#4d2419"/></g><g id="XMLID_130_"><path id="XMLID_3102_" d="m219.4 183.8c-16.5 0-30-13.5-30-30s13.5-30 30-30 30 13.5 30 30-13.4 30-30 30zm0-50c-11 0-20 9-20 20s9 20 20 20 20-9 20-20-8.9-20-20-20z" fill="#4d2419"/></g><g id="XMLID_716_"><path id="XMLID_3100_" d="m401.3 243.6c-.9 0-1.8-.2-2.6-.7l-36.1-21.5c-1.6-1-2.6-2.8-2.4-4.7l2.3-28.8-11.8 20.5c-.7 1.2-1.8 2-3.1 2.3s-2.7.1-3.8-.5l-49.1-29.3c-2.1-1.3-3-3.9-2.1-6.1l6-15.2-12.8 11.9c-1.6 1.5-4.1 1.8-6 .6l-26.8-16 5.1-8.6 23.6 14.1 26.3-24.4c1.7-1.6 4.3-1.8 6.2-.5s2.7 3.8 1.8 6l-12.7 31.8 41.1 24.5 20.3-35.3c1.2-2 3.6-3 5.8-2.3s3.7 2.8 3.5 5.2l-3.8 47.8 27.1 16.1c1-8 2-22.1-.5-37.6-5-31.2-21.1-53-47.7-64.8-29.4-13-62-10.7-84.2-6.6l-1.9-9.8c33.8-6.4 65-3.9 90.1 7.2 29.6 13.1 48.2 38.2 53.6 72.6 4 25.6-.5 47.1-.7 48-.3 1.6-1.4 2.9-2.9 3.5-.5.5-1.2.6-1.8.6z" fill="#4d2419"/></g><g id="XMLID_83_"><path id="XMLID_3099_" d="m211.7 117.4c-5.7-25.2-27.7-107.4-69.4-107.4-39.8 0-64.2 13.6-74.2 20.6l15.5 9.6 23-16.2c1.9-1.3 4.4-1.2 6.2.3 1.7 1.5 2.2 4 1.2 6l-11.1 21.7 33.1 20.6 23.2-19.3c1.8-1.5 4.3-1.5 6.2-.2 1.9 1.4 2.5 3.8 1.7 5.9l-10.7 26.1 30.2 18.7-5.3 8.5-33.8-21c-2.1-1.3-2.9-3.9-2-6.1l4.7-11.5-10.6 8.8c-1.7 1.4-4 1.5-5.8.4l-40.2-24.7c-2.2-1.4-3-4.2-1.8-6.5l4-7.8-9.2 6.4c-1.6 1.2-3.8 1.2-5.5.2l-24.3-15.2c-1.3-.8-2.2-2.2-2.3-3.7-.2-1.5.4-3.1 1.5-4.1 1.1-1.1 28.9-27.5 86.3-27.5 21.2 0 39.9 15.5 55.5 46.1 12.6 24.7 20.3 53.9 23.7 69z" fill="#4d2419"/></g><g id="XMLID_473_"><path id="XMLID_3098_" d="m53.3 243.6c-.7 0-1.3-.1-1.9-.4-1.5-.6-2.6-2-3-3.7-.2-.8-4-21-1.7-44.9 3.1-32.5 16.2-56.2 37.8-68.7 27-15.7 63.5-14.7 89.4-11.1l-1.4 9.9c-24.3-3.4-58.4-4.4-83 9.9-37.1 21.5-34.7 75.6-32.4 95.6l23.9-15.8v-49c0-2.4 1.7-4.5 4.1-4.9s4.7.9 5.6 3.2l13.2 35.9 40.9-26.6-13.9-25.4c-1.2-2.2-.6-5 1.5-6.4 2-1.5 4.8-1.2 6.6.6l20.5 21.7 22.8-14.9 5.5 8.4-26.3 17.2c-1.6 1-3.5 1.1-5.1.2.1 1.8-.7 3.5-2.3 4.5l-50 32.5c-1.3.8-2.9 1-4.3.6-1.4-.5-2.6-1.6-3.1-3l-5.7-15.5v23.6c0 1.7-.8 3.3-2.3 4.2l-32.7 21.5c-.8.5-1.8.8-2.7.8z" fill="#4d2419"/></g><g id="XMLID_81_"><path id="XMLID_3095_" d="m102 411h63v10h-63z" fill="#4d2419"/></g><g id="XMLID_249_"><path id="XMLID_3094_" d="m143 234h38v10h-38z" fill="#4d2419"/></g><g id="XMLID_250_"><path id="XMLID_3093_" d="m162 188h31v10h-31z" fill="#4d2419"/></g><g id="XMLID_246_"><path id="XMLID_3091_" d="m125 291h48v10h-48z" fill="#4d2419"/></g><g id="XMLID_243_"><path id="XMLID_3090_" d="m114 345h54v10h-54z" fill="#4d2419"/></g><g id="XMLID_2159_"><path id="XMLID_2569_" d="m456 400h30v10h-30z" fill="#4d2419"/></g><g id="XMLID_2158_"><path id="XMLID_2568_" d="m441 421h30v10h-30z" fill="#4d2419"/></g><g id="XMLID_2097_"><g id="XMLID_2100_"><path id="XMLID_2566_" d="m33 355h12v10h-12z" fill="#4d2419"/></g><g id="XMLID_2099_"><path id="XMLID_2564_" d="m45 335h12v10h-12z" fill="#4d2419"/></g><g id="XMLID_2098_"><path id="XMLID_2563_" d="m57 355h12v10h-12z" fill="#4d2419"/></g></g><g id="XMLID_2093_"><g id="XMLID_2096_"><path id="XMLID_2562_" d="m232 391h12v10h-12z" fill="#4d2419"/></g><g id="XMLID_2095_"><path id="XMLID_2561_" d="m220 411h12v10h-12z" fill="#4d2419"/></g><g id="XMLID_2094_"><path id="XMLID_2558_" d="m208 391h12v10h-12z" fill="#4d2419"/></g></g></g></g></svg>