<svg id="Capa_1" enable-background="new 0 0 512 512" viewBox="0 0 512 512" xmlns="http://www.w3.org/2000/svg"><g><g><path d="m93.844 314.862 8.402 1h308.202l7.707-1c13.997 0 25.344-11.347 25.344-25.345s-11.347-25.345-25.344-25.345l-7.84-1h-308.233l-8.237 1c-13.997 0-25.344 11.347-25.344 25.345s11.346 25.345 25.343 25.345z" fill="#ffbd86"/><circle cx="171" cy="203.484" fill="#8379c1" r="25"/><path d="m191.988 189.908c-.029 6.087-5.066 11.091-11.272 11.091h-34.592c-.081.817-.124 1.646-.124 2.484 0 13.807 11.193 25 25 25s25-11.193 25-25c0-5.006-1.477-9.665-4.012-13.575z" fill="#6e61b6"/><path d="m393.161 122.289c6.318 18.54 2.093 39.878-12.692 54.663s-36.124 19.01-54.663 12.692c-6.318-18.54-2.093-39.878 12.692-54.663s36.123-19.01 54.663-12.692z" fill="#80d261"/><path d="m380.469 176.952c-14.785 14.785-36.124 19.01-54.663 12.692l67.356-67.356c6.317 18.54 2.092 39.879-12.693 54.664z" fill="#68ca44"/><path d="m93.844 213.484h324.311c13.997 0 25.344 11.347 25.344 25.344 0 13.997-11.347 25.344-25.344 25.344h-324.311c-13.997 0-25.344-11.347-25.344-25.344 0-13.997 11.347-25.344 25.344-25.344z" fill="#f6a96c"/><path d="m418.156 213.484h-15.626c.306 1.574.471 3.198.471 4.861 0 13.997-11.347 25.344-25.344 25.344h-308.686c2.268 11.671 12.539 20.484 24.874 20.484h324.311c13.997 0 25.344-11.347 25.344-25.344 0-13.998-11.347-25.345-25.344-25.345z" fill="#ea9b58"/><path d="m418.156 264.173h-15.626c.306 1.574.471 3.198.471 4.861 0 13.997-11.347 25.344-25.344 25.344h-308.686c2.268 11.671 12.539 20.484 24.874 20.484h324.311c13.997 0 25.344-11.347 25.344-25.344 0-13.998-11.347-25.345-25.344-25.345z" fill="#f6a96c"/><path d="m93.844 314.862h324.311c13.997 0 25.344 11.347 25.344 25.344 0 13.997-11.347 25.344-25.344 25.344h-324.311c-13.997 0-25.344-11.347-25.344-25.344 0-13.997 11.347-25.344 25.344-25.344z" fill="#fed2a4"/><path d="m418.156 314.862h-15.626c.306 1.574.471 3.198.471 4.861 0 13.997-11.347 25.344-25.344 25.344h-308.686c2.268 11.671 12.539 20.484 24.874 20.484h324.311c13.997 0 25.344-11.347 25.344-25.344 0-13.998-11.347-25.345-25.344-25.345z" fill="#ffbd86"/><path d="m72 402.586 21.758 32.375c4.644 6.91 12.424 11.055 20.749 11.055h282.985c8.326 0 16.105-4.145 20.749-11.055l21.759-32.375z" fill="#dff6fd"/><path d="m390 402.586-29.188 43.43h36.681c8.326 0 16.105-4.145 20.749-11.055l21.758-32.375z" fill="#c8effe"/><path d="m494.5 403.586h-477c-5.523 0-10-4.477-10-10v-18.036c0-5.523 4.477-10 10-10h477c5.523 0 10 4.477 10 10v18.036c0 5.523-4.477 10-10 10z" fill="#c8effe"/><path d="m327.843 188.441c-3.172-3.026-4.09-7.684-2.262-11.669 4.866-10.611 7.379-22.522 6.85-35.079-1.684-40.012-34.493-72.215-74.529-73.186-43.119-1.046-78.402 33.595-78.402 76.477 0 11.344 2.479 22.102 6.916 31.779 1.828 3.989.917 8.649-2.258 11.678-4.638 4.424-7.3 10.898-6.524 17.973.275 2.51.996 4.892 2.077 7.07h7.789c4.694 0 8.5 3.806 8.5 8.5v36.873c0 8.346 6.414 15.528 14.751 15.92 8.901.419 16.249-6.674 16.249-15.482v-37.311c0-4.694 3.806-8.5 8.5-8.5h7.438c4.453 0 8.062 3.61 8.062 8.062 0 8.346 6.414 15.527 14.751 15.92 8.901.419 16.249-6.673 16.249-15.482 0-4.694 3.806-8.5 8.5-8.5h41.789c1.081-2.178 1.802-4.56 2.077-7.069.777-7.076-1.886-13.55-6.523-17.974z" fill="#fff3de"/><path d="m325.58 176.772c4.866-10.611 7.379-22.522 6.85-35.079-1.151-27.34-16.839-51.027-39.431-63.602v67.668c.001 30.508-24.731 55.241-55.241 55.241h-60.047c-.243 1.747-.281 3.559-.078 5.414.275 2.51.996 4.892 2.077 7.07h7.789c4.694 0 8.5 3.806 8.5 8.5v36.873c0 8.346 6.414 15.528 14.751 15.92 8.901.419 16.249-6.674 16.249-15.482v-37.311c0-4.694 3.806-8.5 8.5-8.5h7.438c4.47 0 8.045 3.658 8.062 8.127.033 8.318 6.435 15.464 14.751 15.855 8.901.419 16.249-6.673 16.249-15.482 0-4.694 3.806-8.5 8.5-8.5h41.789c1.081-2.178 1.802-4.56 2.077-7.069.778-7.089-1.897-13.575-6.552-18-3.169-3.015-4.056-7.666-2.233-11.643z" fill="#ffe5c2"/><path d="m347.914 213.484c1.339-3.063 2.086-6.443 2.086-10 0-13.807-11.193-25-25-25s-25 11.193-25 25c0 3.557.747 6.937 2.086 10z" fill="#8379c1"/><path d="m300.124 201c-.081.817-.124 1.646-.124 2.484 0 3.557.747 6.937 2.086 10h45.828c1.339-3.063 2.086-6.443 2.086-10 0-.838-.043-1.667-.124-2.484z" fill="#6e61b6"/><path d="m384.914 213.484c1.339-3.063 2.086-6.443 2.086-10 0-13.807-11.193-25-25-25s-25 11.193-25 25c0 3.557.747 6.937 2.086 10z" fill="#6e61b6"/><path d="m363.644 178.543c1.766 3.043 2.92 6.48 3.251 10.146.009.096.017.192.024.288.515 6.5-4.728 12.023-11.249 12.023h-18.547c-.081.817-.124 1.646-.124 2.484 0 3.557.747 6.937 2.086 10h45.828c1.339-3.063 2.086-6.443 2.086-10 .001-13.254-10.315-24.093-23.355-24.941z" fill="#6354b1"/><path d="m494.5 365.551h-30.5v7.965c0 5.523-4.477 10-10 10h-446.5v10.07c0 5.523 4.477 10 10 10h477c5.523 0 10-4.477 10-10v-18.036c0-5.522-4.477-9.999-10-9.999z" fill="#99e6fc"/></g><path d="m494.5 358.051h-48.792c3.342-5.142 5.292-11.268 5.292-17.845 0-10.193-4.667-19.315-11.976-25.344 7.309-6.029 11.976-15.152 11.976-25.345s-4.667-19.316-11.977-25.345c7.309-6.029 11.977-15.152 11.977-25.345 0-18.11-14.734-32.845-32.845-32.845h-23.76c.063-.828.105-1.661.105-2.499 0-8.318-3.145-15.914-8.303-21.668 16.111-16.431 21.506-40.104 14.064-61.946-.75-2.201-2.479-3.93-4.68-4.68-20.084-6.846-41.72-2.835-57.848 10.382-.204-.857-.433-1.704-.663-2.551l.733-.733c2.929-2.93 2.929-7.678 0-10.607-1.561-1.561-3.64-2.281-5.684-2.178-11.367-24.264-34.011-42.221-61.061-47.149-.332-.599-.746-1.165-1.255-1.673-2.929-2.928-7.678-2.928-10.606 0l-.362.362c-.251-.008-.499-.028-.751-.034-17.693-.437-34.742 4.597-49.322 14.533-3.423 2.332-4.307 6.998-1.974 10.421 2.332 3.421 6.998 4.306 10.421 1.974 7.737-5.272 16.33-8.844 25.359-10.627l-34.121 34.121c-8.3 8.301-8.3 21.807 0 30.107 8.3 8.299 21.807 8.299 30.106 0l32.25-32.251c1.254-1.254 2.922-1.945 4.696-1.945s3.442.691 4.697 1.946c1.254 1.254 1.945 2.922 1.945 4.696 0 1.773-.691 3.442-1.945 4.696l-16 16c-4.088 4.088-6.339 9.522-6.339 15.304 0 5.78 2.251 11.215 6.339 15.304 4.219 4.219 9.761 6.328 15.303 6.328s11.084-2.109 15.303-6.328l29.572-29.572c.279 2.071.473 4.167.563 6.292.43 10.225-1.322 20.105-5.203 29.409-15.424 2.525-27.234 15.939-27.234 32.067 0 .839.042 1.671.105 2.5h-2.105c-8.822 0-16 7.178-16 16.001 0 2.208-.88 4.264-2.479 5.789-1.597 1.524-3.69 2.308-5.917 2.201-4.192-.198-7.604-3.979-7.604-8.429 0-8.581-6.981-15.562-15.563-15.562h-7.437c-8.822 0-16 7.178-16 16.001v37.311c0 2.208-.88 4.265-2.479 5.79-1.597 1.523-3.694 2.301-5.917 2.201-4.192-.198-7.604-3.979-7.604-8.429v-36.873c0-8.564-6.767-15.557-15.232-15.962-.253-.026-.509-.039-.768-.039h-2.363c-.018-.129-.034-.258-.048-.388-.484-4.417 1.062-8.691 4.246-11.729 5.481-5.229 7.048-13.359 3.898-20.229-4.136-9.023-6.233-18.665-6.233-28.655 0-11.827 3.052-23.503 8.825-33.767 2.031-3.609.75-8.183-2.859-10.214-3.608-2.027-8.183-.751-10.214 2.86-7.034 12.505-10.752 26.725-10.752 41.122 0 9.091 1.429 17.948 4.256 26.436-1.731-.285-3.488-.436-5.256-.436-17.92 0-32.5 14.579-32.5 32.5 0 .839.042 1.671.105 2.5h-44.76c-18.111 0-32.845 14.735-32.845 32.845 0 10.193 4.667 19.316 11.977 25.345-7.31 6.029-11.977 15.152-11.977 25.344 0 10.193 4.667 19.315 11.976 25.344-7.309 6.03-11.976 15.152-11.976 25.345 0 6.576 1.95 12.703 5.292 17.845h-48.792c-9.649 0-17.5 7.851-17.5 17.5v18.036c0 9.649 7.851 17.5 17.5 17.5h51.177l18.857 28.058c6.048 8.999 16.132 14.371 26.975 14.371h202.491c4.142 0 7.5-3.357 7.5-7.5s-3.358-7.5-7.5-7.5h-202.492c-5.838 0-11.269-2.893-14.525-7.738l-13.233-19.69h338.5l-13.233 19.69c-3.256 4.846-8.687 7.738-14.525 7.738h-45.492c-4.142 0-7.5 3.357-7.5 7.5s3.358 7.5 7.5 7.5h45.492c10.843 0 20.927-5.372 26.974-14.371l18.857-28.058h51.177c9.649 0 17.5-7.851 17.5-17.5v-18.036c0-9.65-7.851-17.5-17.5-17.5zm-210.303-203.371c-2.589 2.589-6.804 2.59-9.393.001-1.255-1.255-1.946-2.924-1.946-4.697 0-1.774.691-3.442 1.945-4.696l16-16.001c4.087-4.088 6.338-9.522 6.338-15.303s-2.251-11.216-6.338-15.303c-4.088-4.089-9.523-6.34-15.304-6.34s-11.216 2.251-15.303 6.339l-32.25 32.25c-2.452 2.453-6.441 2.453-8.894 0-2.452-2.451-2.452-6.441 0-8.893l45.521-45.521c25.062 3.123 46.06 19.793 55.327 42.459zm90.968 16.969c-.509.509-1.05.989-1.584 1.475-3.6-1.378-7.502-2.14-11.58-2.14-2.734 0-5.383.353-7.921.993l34.404-34.404c.548 12.54-4.107 24.865-13.319 34.076zm4.335 31.835c0 .843-.059 1.677-.177 2.499h-34.646c-.118-.822-.177-1.656-.177-2.499 0-9.649 7.851-17.5 17.5-17.5s17.5 7.851 17.5 17.5zm-39.507-58.871c1.178-1.518 2.45-2.97 3.808-4.328 9.213-9.214 21.537-13.87 34.077-13.32l-41.09 41.09c2.174-7.58 3.245-15.42 3.205-23.442zm-15.012 41.371.002.002c.01 0 .02-.002.03-.002 2.943.002 5.808.766 8.35 2.149-2.462 4.575-3.863 9.802-3.863 15.351 0 .838.042 1.671.105 2.499h-21.906c-.118-.824-.199-1.655-.199-2.5 0-9.643 7.841-17.489 17.481-17.499zm-90.481 36c0-.552.449-1.001 1-1.001h7.437c.31 0 .563.252.563.562 0 12.55 9.619 22.833 21.898 23.411 6.355.312 12.384-1.949 16.977-6.331 4.528-4.319 7.125-10.385 7.125-16.642 0-.552.449-1.001 1-1.001h127.655c9.84 0 17.845 8.005 17.845 17.845s-8.005 17.845-17.845 17.845h-183.655zm-63.5-36.001c1.639 0 3.233.229 4.762.659-4.142 5.52-6.167 12.316-5.691 19.341h-16.372c-.118-.824-.199-1.655-.199-2.5 0-9.649 7.851-17.5 17.5-17.5zm-34 70.69h-43.155c-9.84 0-17.845-8.005-17.845-17.845s8.005-17.845 17.845-17.845h93.655c.551 0 1 .449 1 1.001v34.688h-16.5c-4.142 0-7.5 3.357-7.5 7.5s3.358 7.5 7.5 7.5h20.221c3.901 6.102 10.521 10.236 18.177 10.597.375.018.749.026 1.121.026 5.94-.001 11.534-2.234 15.856-6.358 1.342-1.281 2.51-2.718 3.496-4.265h187.284c9.839 0 17.845 8.005 17.845 17.845s-8.005 17.845-17.845 17.845h-324.31c-9.839 0-17.845-8.005-17.845-17.845s8.005-17.845 17.845-17.845h43.155c4.142 0 7.5-3.357 7.5-7.5s-3.358-7.499-7.5-7.499zm-43.155 65.689h324.311c9.839 0 17.845 8.005 17.845 17.844 0 9.84-8.005 17.845-17.845 17.845h-324.311c-9.839 0-17.845-8.005-17.845-17.845 0-9.839 8.005-17.844 17.845-17.844zm403.155 71.225c0 1.379-1.122 2.5-2.5 2.5h-477c-1.378 0-2.5-1.121-2.5-2.5v-18.036c0-1.379 1.122-2.5 2.5-2.5h477c1.378 0 2.5 1.121 2.5 2.5z"/></g><g/><g/><g/><g/><g/><g/><g/><g/><g/><g/><g/><g/><g/><g/><g/></svg>