<svg id="Layer_1" enable-background="new 0 0 511.969 511.969" viewBox="0 0 511.969 511.969" xmlns="http://www.w3.org/2000/svg"><g><g><path d="m451.745 214.576c0 19.18-14.9 35.06-34.03 36.27-7.75.5-15.5.95-23.25 1.38-17.76 9.01-55.78 26.73-102.84 34.66-22.326-6.854-44.647-17.358-65.9-31.9-6.781.537-15.73.536-25.89-1.53-77.914-15.845-71.231-66.623-8.16-79.48 81.827-2.076 26.87 2.381 132.07-8.79 89.068 14.104 69.1 11.533 93.95 13.11 19.15 1.22 34.05 17.1 34.05 36.28z" fill="#ffd9a0"/><path d="m291.625 286.886c-62.033 10.468-121.978.981-174.12-34.66-7.74-.43-15.49-.88-23.23-1.38-19.15-1.21-34.05-17.09-34.05-36.27s14.9-35.06 34.03-36.28c32.37-2.06 64.84-3.5 97.42-4.32-17.26 4.72-29.78 20.5-29.78 39.06 0 21.37 16.61 39.06 37.94 40.42 8.64.55 17.27 1.06 25.89 1.53 21.251 14.54 43.571 25.045 65.9 31.9z" fill="#fdc072"/><path d="m183.634 66.127c10.053-4.551 22.097-6.592 35.712-5.701 11.436.749 20.627 9.941 21.376 21.376.377 5.754.23 11.228-.41 16.389-18.987 32.622-47.823 45.207-59.621 38.421-11.76-6.765-15.356-37.821 2.943-70.485z" fill="#60daa8"/><path d="m195.577 107.218c-2.748-49.923-38.061-80.343-91.523-76.842-15.247.998-27.503 13.254-28.502 28.501-2.904 44.348 17.534 76.208 53.083 87.35 10.938 17.557 33.227 23.811 50.543 15.274 19.011-9.371 27.2-34.186 16.399-54.283z" fill="#b1ecd0"/><path d="m451.745 289.866c0 19.18-14.9 35.06-34.03 36.28-7.75.49-15.5.95-23.25 1.37-23.53 6.73-53.73 13.53-89.24 17.03-30.61-4.13-57.35-10.32-79.5-16.66-4.825 1.66-32.258 10.602-57.385-4.577-47.41-28.641-20.86-67.436 16.475-73.853 78.562-2.221 157.225-.704 232.88 4.14 19.15 1.21 34.05 17.09 34.05 36.27z" fill="#fdc072"/><path d="m305.225 344.546c-63.208 6.226-126.657.444-187.72-17.03-7.74-.42-15.49-.88-23.23-1.37-19.15-1.22-34.05-17.1-34.05-36.28 0-19.17 14.9-35.06 34.03-36.27 30.1-1.91 60.29-3.3 90.56-4.14-13.62 6.56-22.92 20.5-22.92 36.49 0 21.37 16.61 39.06 37.94 40.42 8.64.55 17.27 1.06 25.89 1.52 22.15 6.34 48.89 12.53 79.5 16.66z" fill="#ffa93f"/><path d="m446.495 383.986c-47.79 10.76-106.22 19.8-172.74 21.24-37.94-4.57-95.894-9.475-128.254-16.885-13.356-22.004 17.922-52.709 41.784-63.665 80.622-2.158 157.113-.456 230.41 4.21 27.553 1.754 42.728 32.164 28.8 55.1z" fill="#ffd9a0"/><path d="m273.755 405.226c-68.454 1.506-138.269-5.23-208.28-21.24-13.94-22.955 1.271-53.345 28.78-55.1 30.92-1.96 61.93-3.37 93.03-4.21-23.862 10.956-32.446 40.156-19.09 62.16 32.36 7.41 67.62 13.82 105.56 18.39z" fill="#fdc072"/><path d="m181.466 144.134c-4.437-21.211 10.393-41.443 31.884-43.868 28.333-3.197 56.937-3.197 85.271 0 21.516 2.428 36.318 22.674 31.884 43.868-48.685 16.186-100.283 15.969-149.039 0z" fill="#e37858"/><path d="m417.695 162.296c.02 8.65-7.24 15.54-15.87 15.04l-2.11-.12c-8.54-.48-15.73 6.33-15.73 14.89v63.34c0 13.803-11.966 24.861-25.63 22.91-11.04-1.48-19.55-10.93-19.55-22.37v-67c0-7.75-6-14.68-14.81-14.92-8.39-.22-15.3 6.52-15.3 14.91v126.7c0 12.25-9.53 22.68-21.77 23.12-12.85.46-23.41-9.83-23.41-22.57v-128.14c0-8.145-6.577-14.91-14.98-14.91-19.67.06-39.3.34-58.91.86-43.847-21.495-21.79-28.703-13.7-29.179 75.964-4.396 152.492-1.885 227.16 2.439 8.02.46 14.6 6.97 14.61 15z" fill="#eaaa83"/><path d="m189.625 174.036c-26.4.68-52.74 1.78-79.02 3.28-8.54.48-16.12-6.03-16.34-14.58-.21-8.16 6.1-14.95 14.19-15.42 33.27-1.92 66.64-3.2 100.11-3.83-4.33.23-8.66.47-12.98.72-15.911.936-20.867 22.522-5.96 29.83z" fill="#e7896e"/><path d="m502.475 406.436c-26.92 47.48-75.45 75.43-130.07 75.43h-97.59c-111.849 0-242.059-97.88-116.97-97.88h331.55c11.56 0 18.76 12.42 13.08 22.45z" fill="#efedff"/><path d="m274.815 481.866h-135.27c-54.48 0-103.07-27.82-130.05-75.43-5.68-10.03 1.51-22.45 13.08-22.45h135.27c-11.56 0-18.76 12.42-13.08 22.45 26.98 47.61 75.57 75.43 130.05 75.43z" fill="#d9d9f9"/></g><g><path d="m194.463 406.6c-11.726 0-21.265 9.54-21.265 21.265 0 4.142 3.358 7.5 7.5 7.5s7.5-3.358 7.5-7.5c0-3.455 2.811-6.265 6.265-6.265s6.265 2.811 6.265 6.265c0 4.142 3.358 7.5 7.5 7.5 14.1 0 7.483-28.765-13.765-28.765z"/><path d="m317.508 406.6c-21.227 0-27.931 28.765-13.765 28.765 4.142 0 7.5-3.358 7.5-7.5 0-3.455 2.811-6.265 6.265-6.265s6.265 2.811 6.265 6.265c0 4.142 3.358 7.5 7.5 7.5 14.1 0 7.483-28.765-13.765-28.765z"/><path d="m275.515 438.299c-3.123-2.721-7.86-2.396-10.582.727-4.737 5.437-13.156 5.437-17.894 0-2.722-3.123-7.458-3.447-10.582-.727-3.123 2.722-3.448 7.459-.727 10.582 10.714 12.293 29.797 12.293 40.511 0 2.721-3.123 2.396-7.86-.726-10.582z"/><path d="m109.346 74.338c13.791 7.492 26.149 17.118 36.731 28.608 1.479 1.606 3.496 2.419 5.519 2.419 6.451 0 9.972-7.74 5.515-12.581-11.701-12.706-25.362-23.347-40.604-31.627-3.64-1.977-8.193-.629-10.171 3.01-1.977 3.639-.629 8.193 3.01 10.171z"/><path d="m489.393 376.483h-31.641c5.117-19.167-3.22-38.975-19.906-48.969 28.512-17.075 28.51-58.217 0-75.294 12.848-7.694 21.404-21.757 21.404-37.648 0-21.345-15.444-39.383-35.99-43.127 6.465-14.616-3.911-30.727-19.743-31.642-8.896-.514-17.882-.986-26.707-1.404-4.125-.203-7.65 3-7.846 7.138-.195 4.137 3 7.65 7.138 7.846 8.772.415 17.706.884 26.55 1.395 6.791.393 10.13 8.352 5.19 13.028-2.636 2.494-5.323 2.057-7.699 1.922-12.832-.728-23.658 9.524-23.658 22.376v63.338c0 8.328-6.519 15.335-14.531 15.62-8.812.287-15.646-6.745-15.646-15.079v-67c0-12.237-9.713-22.082-22.114-22.414-12.648-.327-23.003 9.804-23.003 22.405v126.702c0 8.328-6.519 15.335-14.531 15.62-8.65.29-15.646-6.587-15.646-15.079v-128.135c0-12.348-9.977-22.412-22.482-22.412-69.202 0-139.657 4.226-138.354 4.151-4.31.247-8.302-2.971-8.415-7.287-.107-4.097 3.025-7.494 7.131-7.732 78.652-4.559 158.451-5.456 237.179-2.664 4.143.158 7.614-3.089 7.761-7.229.147-4.139-3.09-7.614-7.229-7.761-2.609-.093-5.221-.17-7.832-.255.145-22.613-16.84-41.547-39.311-44.083-16.938-1.912-34.016-2.692-51.07-2.359.078-2.994.017-6.048-.186-9.142-.994-15.18-13.19-27.376-28.37-28.371-12.157-.797-23.325.548-33.307 3.984-19.127-26.478-50.371-36.166-82.965-34.033-18.992 1.244-34.251 16.503-35.495 35.496-2.365 36.118 9.936 65.417 33.674 82.71-12.695 4.475-18.265 18.77-13.025 30.346-20.549 3.738-35.996 21.779-35.996 43.13 0 15.889 8.556 29.95 21.404 37.646-28.511 17.074-28.51 58.218 0 75.294-16.735 10.023-25.011 29.853-19.905 48.972h-31.647c-17.318 0-28.122 18.615-19.602 33.65 28.114 49.612 79.168 79.232 136.569 79.232h232.865c57.398 0 108.459-29.62 136.588-79.233 8.526-15.037-2.289-33.649-19.601-33.649zm-95.584-189.771c3.107-2.935 5.087-2.098 23.415-.932 15.155.963 27.026 13.61 27.026 28.792 0 15.181-11.867 27.827-27.015 28.791-25.258 1.606-22.756 1.347-25.75 1.188v-52.446c.001-2.063.826-3.977 2.324-5.393zm-31.321 99.339c14.624-.52 26.748-12.053 28.713-26.497 8.669.462 17.391.97 26.023 1.519 15.155.964 27.027 13.61 27.027 28.792s-11.867 27.827-27.016 28.791c-7.559.481-15.246.934-22.856 1.349-26.032-1.409-52.204-2.427-78.203-3.041v-60.286c5.05.12 10.109.254 15.161.404.578 16.297 14.206 29.562 31.151 28.969zm-44.053-102.39c4.585-4.466 12.875-1.428 12.875 5.321v53.092c-5.044-.149-10.078-.282-15.118-.401v-52.699c0-2.018.796-3.905 2.243-5.313zm-20.655-75.946c14.77 1.667 25.917 14.007 25.996 28.737-45.053-1.191-90.38-1.187-135.581.007.075-14.733 11.224-27.077 25.996-28.744 27.734-3.129 55.856-3.129 83.589 0zm-78.924-39.809c7.695.504 13.878 6.687 14.382 14.383.195 2.981.22 5.898.111 8.744-6.962.406-13.913.995-20.839 1.777-3.729.421-7.301 1.302-10.672 2.566-1.435-9.066-3.967-17.497-7.55-25.177 7.376-2.105 15.604-2.878 24.568-2.293zm-135.819-8.541c.754-11.508 10-20.754 21.508-21.508 48.012-3.145 79.256 22.604 83.264 66.036-9.139 8.214-14.691 20.03-14.609 33.007-14.52.469-29.021 1.061-43.491 1.775-32.277-10.675-49.279-39.498-46.672-79.31zm11.7 126.415c85.88-5.461 156.96-5.11 153.818-5.11 4.16 0 7.46 3.329 7.46 7.412v52.892c-45.985.002-92.392 1.249-138.396 3.738-7.588-.414-15.28-.868-22.872-1.35-15.155-.963-27.026-13.61-27.026-28.791s11.867-27.828 27.016-28.791zm0 150.588c18.597-1.183 37.488-2.174 56.148-2.947 4.138-.171 7.354-3.666 7.183-7.804s-3.644-7.354-7.804-7.183c-10.846.449-21.766.98-32.666 1.571-7.615-.416-15.301-.868-22.85-1.349-15.155-.963-27.026-13.61-27.026-28.792 0-15.181 11.867-27.827 27.016-28.791 53.448-3.398 107.651-5.102 161.278-5.101v60.245c0 .294-25.422-.337-75.545 1.145-4.14.122-7.397 3.578-7.275 7.718.12 4.065 3.453 7.279 7.492 7.278 2.345 0 33.254-1.172 79.351-1.094 11.223 19.352 39.152 20.518 51.511.598 35.128.769 70.651 2.278 105.673 4.504 19.721 1.254 32.551 21.744 24.712 40.115h-371.9c-7.849-18.392 5.01-38.86 24.702-40.113zm401.21 66.366c-25.43 44.854-71.613 71.631-123.54 71.631h-232.865c-51.928 0-98.104-26.776-123.519-71.627-2.862-5.05.747-11.255 6.551-11.255h466.819c5.818 0 9.408 6.217 6.554 11.251z"/></g></g><g/><g/><g/><g/><g/><g/><g/><g/><g/><g/><g/><g/><g/><g/><g/></svg>