<svg id="Layer_1" viewBox="0 0 1000 1000" xmlns="http://www.w3.org/2000/svg" data-name="Layer 1"><path d="m700.11 467.41a15.26 15.26 0 0 0 0 3.31q0 .34.09.69c0 .24.07.47.12.71s.13.64.22 1 .09.35.14.52.11.36.18.54a2.69 2.69 0 0 0 .16.45 4.92 4.92 0 0 0 .23.6.42.42 0 0 0 0 .1c.08.19.16.38.26.57a15.86 15.86 0 0 0 2.86 4.18q.3.31.6.6c7.13 6.77 10.75 13.34 10.75 19.52s-3.62 12.75-10.75 19.53a14.32 14.32 0 0 0 -1.62 1.79c-.11.14-.22.28-.32.43s-.16.22-.23.32-.31.46-.45.69a12.94 12.94 0 0 0 -.79 1.46c-.12.23-.22.46-.32.7s-.2.5-.29.75a9.06 9.06 0 0 0 -.29.88 5.44 5.44 0 0 0 -.15.54 13.73 13.73 0 0 0 -.34 1.67q-.06.38-.09.75a15.26 15.26 0 0 0 0 3.31q0 .35.09.69c0 .24.07.47.12.71s.13.64.22 1c0 .17.09.35.14.52s.11.36.18.54a2.69 2.69 0 0 0 .16.45 4.92 4.92 0 0 0 .23.6.42.42 0 0 0 0 .1c.08.19.16.38.26.57a15.86 15.86 0 0 0 2.86 4.18q.3.32.6.6c7.13 6.77 10.75 13.34 10.75 19.52 0 29.14-82.08 69.77-215.76 69.77s-215.76-40.63-215.76-69.77c0-6.18 3.62-12.75 10.76-19.52l.6-.6a14.48 14.48 0 0 0 1.09-1.28c.17-.22.33-.44.49-.67a8.18 8.18 0 0 0 .45-.69 13.12 13.12 0 0 0 .82-1.52c.11-.21.2-.43.29-.64s.2-.5.29-.75.2-.56.28-.84.13-.46.19-.69a8.45 8.45 0 0 0 .19-.84q.07-.36.12-.72t.09-.75a14.62 14.62 0 0 0 0-3.24q0-.37-.09-.75t-.12-.72a10.48 10.48 0 0 0 -.33-1.34c-.05-.2-.11-.39-.17-.58a8.8 8.8 0 0 0 -.35-.93 4.62 4.62 0 0 0 -.19-.47 14.71 14.71 0 0 0 -1.58-2.96c-.12-.17-.24-.34-.37-.5a14.32 14.32 0 0 0 -1.63-1.8c-7.14-6.78-10.76-13.34-10.76-19.53s3.62-12.75 10.76-19.51l.6-.6a12.61 12.61 0 0 0 1-1.2 16.21 16.21 0 0 0 1.29-1.93c.13-.22.25-.44.36-.67s.16-.31.23-.47l.21-.47s0-.07 0-.11a4.92 4.92 0 0 0 .23-.6 2.69 2.69 0 0 0 .16-.45q.11-.27.18-.54c.05-.17.1-.35.14-.52s.16-.64.22-1 .09-.47.12-.71.07-.46.09-.69a15.26 15.26 0 0 0 0-3.31q0-.37-.09-.75a13.73 13.73 0 0 0 -.34-1.67 5.44 5.44 0 0 0 -.15-.54c-.09-.31-.19-.62-.31-.93s-.16-.43-.25-.64a.26.26 0 0 0 0-.1c-.08-.19-.16-.38-.26-.57a3.88 3.88 0 0 0 -.22-.46c-.09-.19-.19-.37-.29-.55a15.69 15.69 0 0 0 -2.94-3.77c-6.41-6.08-10-12-10.65-17.65a.49.49 0 0 1 0-.12 14.72 14.72 0 0 1 -.11-1.76c0-6.12 3.56-12.64 10.59-19.37l.17-.16.59-.58c.36-.38.7-.78 1-1.18a1.33 1.33 0 0 0 .14-.19c.15-.19.28-.38.41-.57s.31-.46.45-.69.26-.44.39-.66l.05-.1c.12-.22.23-.44.34-.67s.23-.48.33-.73.2-.5.29-.75.15-.42.22-.64l.06-.18c.07-.23.13-.47.19-.71a5.73 5.73 0 0 0 .16-.69v-.15q.09-.45.15-.9c0-.2.05-.4.07-.61a15.6 15.6 0 0 0 .07-2.16v-.45c0-.2 0-.4-.05-.59s-.05-.5-.09-.75-.08-.5-.12-.75-.12-.54-.19-.81-.12-.47-.19-.71l-.06-.18c-.07-.21-.14-.42-.22-.64a6.67 6.67 0 0 0 -.29-.74c-.1-.25-.21-.5-.33-.74s-.24-.48-.37-.72-.27-.47-.41-.71a14.75 14.75 0 0 0 -.93-1.35 13 13 0 0 0 -1.09-1.28c-.19-.2-.39-.4-.59-.58l-.14-.13-.09-.09c-7-6.71-10.53-13.2-10.53-19.31a19.18 19.18 0 0 1 2.24-8.66 175.23 175.23 0 0 0 27.44 15.24v121.02a58.54 58.54 0 0 0 113.6 19.86 58.54 58.54 0 0 0 60 0 58.52 58.52 0 0 0 113.52-19.86v-7a58.51 58.51 0 0 0 85-52.16v-61.89a175.23 175.23 0 0 0 27.52-15.21 19.18 19.18 0 0 1 2.24 8.66c0 6.17-3.61 12.73-10.73 19.5-.2.19-.39.38-.58.58l-.39.43c-.15.16-.29.33-.43.51s-.28.36-.42.54-.24.32-.35.49-.29.42-.42.63-.4.68-.58 1-.22.42-.32.64a13.74 13.74 0 0 0 -.56 1.38c-.06.14-.1.29-.15.43a4.74 4.74 0 0 0 -.15.5c-.13.44-.23.88-.33 1.32 0 .25-.09.5-.12.75s-.07.5-.09.75-.05.54-.06.81a14.07 14.07 0 0 0 .06 2.43q0 .38.09.75t.12.72q.13.67.33 1.35a4.74 4.74 0 0 0 .15.5c.05.15.09.29.15.43s.14.38.22.57a3.85 3.85 0 0 0 .19.47c.13.29.26.58.41.87s.21.41.33.61a15.22 15.22 0 0 0 .9 1.41c.13.18.25.35.39.52.32.41.66.81 1 1.2l.61.61c7.11 6.76 10.72 13.32 10.72 19.49a15.67 15.67 0 0 1 -.1 1.78v.16c-.65 5.6-4.23 11.51-10.63 17.59a14.32 14.32 0 0 0 -1.62 1.79c-.11.14-.22.28-.32.43s-.16.22-.23.32-.31.46-.45.69a12.94 12.94 0 0 0 -.79 1.46c-.12.23-.22.46-.32.7s-.2.5-.29.75a9.06 9.06 0 0 0 -.29.88 5.44 5.44 0 0 0 -.15.54 13.73 13.73 0 0 0 -.34 1.67q-.08.39-.11.8z" fill="#fbc02d"/><path d="m654.08 394.24v49.9a26.52 26.52 0 0 1 -52.08 7.17c0-.09 0-.18-.07-.26a26.52 26.52 0 0 1 -.91-6.91 16 16 0 1 0 -32 0v59.12a26.52 26.52 0 1 1 -53 0v-30.39a16 16 0 0 0 -32 0 26.53 26.53 0 0 1 -53.05 0 16 16 0 0 0 -32 0v30.39a26.52 26.52 0 1 1 -53 0v-109c43.29 13.53 97.26 20.9 154.08 20.9s110.75-7.39 154.03-20.92z" fill="#ffe082"/><path d="m500 243.59c-133.68 0-215.76 40.64-215.76 69.77 0 6 3.44 12.42 10.06 18.91a13.52 13.52 0 0 1 1.3 1.22c8.56 7.9 21.81 15.8 39.27 22.9a15 15 0 0 1 1.95.78h.05c37.33 14.77 93.14 25.9 163.09 25.9s125.8-11.07 163.13-25.83a15 15 0 0 1 2-.78c17.5-7.12 30.76-15 39.32-22.94l.05-.05a15.51 15.51 0 0 1 1.18-1.12c6.65-6.5 10.11-13 10.11-18.95.01-29.17-82.07-69.81-215.75-69.81zm0 103c-29 0-52.59-21.79-52.59-48.59s23.59-48.61 52.59-48.61 52.59 21.8 52.59 48.59-23.59 48.59-52.59 48.59z" fill="#fdd835"/><ellipse cx="500" cy="297.98" fill="#e53935" rx="20.59" ry="16.59"/><path d="m884 562.43c0 20.16-15.54 40.64-44.11 59.32a15.8 15.8 0 0 0 -2.51 1.62c-16.21 10.26-36.36 20-60.05 28.71-73.86 27.34-172.33 42.39-277.33 42.39s-203.47-15.05-277.29-42.37c-23.69-8.76-43.84-18.45-60.05-28.71a15.8 15.8 0 0 0 -2.51-1.62c-28.61-18.7-44.15-39.18-44.15-59.34 0-37.5 54-75.74 142-101.25a64 64 0 0 0 4.79 7.88c-8.5 12-10.57 23.11-10.57 31.1s2.08 19.12 10.59 31.14c-8.51 12-10.59 23.14-10.59 31.13 0 11.27 4.11 28.31 23.68 45.43 13.14 11.5 31.53 21.67 54.65 30.22 45.53 16.85 105.7 26.12 169.45 26.12s123.92-9.27 169.43-26.12c23.12-8.55 41.51-18.72 54.65-30.22 19.58-17.12 23.68-34.16 23.68-45.43 0-8-2.07-19.12-10.58-31.13 8.51-12 10.58-23.14 10.58-31.14s-2.07-19.11-10.56-31.11a62.62 62.62 0 0 0 4.79-7.86c88.01 25.51 142.01 63.74 142.01 101.24z" fill="#bdbdbd"/><path d="m810.56 673.25-20.62 41c-190.42 55.92-385.45 55.92-579.91 0l-20.59-41q10.59 4.59 22.16 8.87c77.29 28.6 179.71 44.35 288.4 44.35s211.11-15.75 288.4-44.35q11.6-4.29 22.16-8.87z" fill="#bdbdbd"/><g fill="#fff" opacity=".5"><path d="m690.11 477.41a15.26 15.26 0 0 0 0 3.31q0 .34.09.69c0 .24.07.47.12.71s.13.64.22 1 .09.35.14.52.11.36.18.54a2.69 2.69 0 0 0 .16.45 4.92 4.92 0 0 0 .23.6.42.42 0 0 0 0 .1c.08.19.16.38.26.57a15.86 15.86 0 0 0 2.86 4.18q.3.31.6.6c7.13 6.77 10.75 13.34 10.75 19.52s-3.62 12.75-10.75 19.53a14.32 14.32 0 0 0 -1.62 1.79c-.11.14-.22.28-.32.43s-.16.22-.23.32-.31.46-.45.69a12.94 12.94 0 0 0 -.79 1.46c-.12.23-.22.46-.32.7s-.2.5-.29.75a9.06 9.06 0 0 0 -.29.88 5.44 5.44 0 0 0 -.15.54 13.73 13.73 0 0 0 -.34 1.67q-.06.38-.09.75a15.26 15.26 0 0 0 0 3.31q0 .35.09.69c0 .24.07.47.12.71s.13.64.22 1c0 .17.09.35.14.52s.11.36.18.54a2.69 2.69 0 0 0 .16.45 4.92 4.92 0 0 0 .23.6.42.42 0 0 0 0 .1c.08.19.16.38.26.57a15.86 15.86 0 0 0 2.86 4.18q.3.32.6.6c7.13 6.77 10.75 13.34 10.75 19.52 0 29.14-82.08 69.77-215.76 69.77s-215.76-40.63-215.76-69.77c0-6.18 3.62-12.75 10.76-19.52l.6-.6a14.48 14.48 0 0 0 1.09-1.28c.17-.22.33-.44.49-.67a8.18 8.18 0 0 0 .45-.69 13.12 13.12 0 0 0 .82-1.52c.11-.21.2-.43.29-.64s.2-.5.29-.75.2-.56.28-.84.13-.46.19-.69a8.45 8.45 0 0 0 .19-.84q.07-.36.12-.72t.09-.75a14.62 14.62 0 0 0 0-3.24q0-.37-.09-.75t-.12-.72a10.48 10.48 0 0 0 -.33-1.34c-.05-.2-.11-.39-.17-.58a8.8 8.8 0 0 0 -.35-.93 4.62 4.62 0 0 0 -.19-.47 14.71 14.71 0 0 0 -1.58-2.96c-.12-.17-.24-.34-.37-.5a14.32 14.32 0 0 0 -1.63-1.8c-7.14-6.78-10.76-13.34-10.76-19.53s3.62-12.75 10.76-19.51l.6-.6a12.61 12.61 0 0 0 1-1.2 16.21 16.21 0 0 0 1.29-1.93c.13-.22.25-.44.36-.67s.16-.31.23-.47l.21-.47s0-.07 0-.11a4.92 4.92 0 0 0 .23-.6 2.69 2.69 0 0 0 .16-.45q.11-.27.18-.54c.05-.17.1-.35.14-.52s.16-.64.22-1 .09-.47.12-.71.07-.46.09-.69a15.26 15.26 0 0 0 0-3.31q0-.37-.09-.75a13.73 13.73 0 0 0 -.34-1.67 5.44 5.44 0 0 0 -.15-.54c-.09-.31-.19-.62-.31-.93s-.16-.43-.25-.64a.26.26 0 0 0 0-.1c-.08-.19-.16-.38-.26-.57a3.88 3.88 0 0 0 -.22-.46c-.09-.19-.19-.37-.29-.55a15.69 15.69 0 0 0 -2.94-3.77c-6.41-6.08-10-12-10.65-17.65a.49.49 0 0 1 0-.12 14.72 14.72 0 0 1 -.11-1.76c0-6.12 3.56-12.64 10.59-19.37l.17-.16.59-.58c.36-.38.7-.78 1-1.18a1.33 1.33 0 0 0 .14-.19c.15-.19.28-.38.41-.57s.31-.46.45-.69.26-.44.39-.66l.05-.1c.12-.22.23-.44.34-.67s.23-.48.33-.73.2-.5.29-.75.15-.42.22-.64l.06-.18c.07-.23.13-.47.19-.71a5.73 5.73 0 0 0 .16-.69v-.15q.09-.45.15-.9c0-.2.05-.4.07-.61a15.6 15.6 0 0 0 .07-2.16v-.45c0-.2 0-.4-.05-.59s-.05-.5-.09-.75-.08-.5-.12-.75-.12-.54-.19-.81-.12-.47-.19-.71l-.06-.18c-.07-.21-.14-.42-.22-.64a6.67 6.67 0 0 0 -.29-.74c-.1-.25-.21-.5-.33-.74s-.24-.48-.37-.72-.27-.47-.41-.71a14.75 14.75 0 0 0 -.93-1.35 13 13 0 0 0 -1.09-1.28c-.19-.2-.39-.4-.59-.58l-.14-.13-.09-.09c-7-6.71-10.53-13.2-10.53-19.31a19.18 19.18 0 0 1 2.24-8.66 175.23 175.23 0 0 0 27.44 15.24v121.02a58.54 58.54 0 0 0 113.6 19.86 58.54 58.54 0 0 0 60 0 58.52 58.52 0 0 0 113.52-19.86v-7a58.51 58.51 0 0 0 85-52.16v-61.89a175.23 175.23 0 0 0 27.52-15.21 19.18 19.18 0 0 1 2.24 8.66c0 6.17-3.61 12.73-10.73 19.5-.2.19-.39.38-.58.58l-.39.43c-.15.16-.29.33-.43.51s-.28.36-.42.54-.24.32-.35.49-.29.42-.42.63-.4.68-.58 1-.22.42-.32.64a13.74 13.74 0 0 0 -.56 1.38c-.06.14-.1.29-.15.43a4.74 4.74 0 0 0 -.15.5c-.13.44-.23.88-.33 1.32 0 .25-.09.5-.12.75s-.07.5-.09.75-.05.54-.06.81a14.07 14.07 0 0 0 .06 2.43q0 .38.09.75t.12.72q.13.67.33 1.35a4.74 4.74 0 0 0 .15.5c.05.15.09.29.15.43s.14.38.22.57a3.85 3.85 0 0 0 .19.47c.13.29.26.58.41.87s.21.41.33.61a15.22 15.22 0 0 0 .9 1.41c.13.18.25.35.39.52.32.41.66.81 1 1.2l.61.61c7.11 6.76 10.72 13.32 10.72 19.49a15.67 15.67 0 0 1 -.1 1.78v.16c-.65 5.6-4.23 11.51-10.63 17.59a14.32 14.32 0 0 0 -1.62 1.79c-.11.14-.22.28-.32.43s-.16.22-.23.32-.31.46-.45.69a12.94 12.94 0 0 0 -.79 1.46c-.12.23-.22.46-.32.7s-.2.5-.29.75a9.06 9.06 0 0 0 -.29.88 5.44 5.44 0 0 0 -.15.54 13.73 13.73 0 0 0 -.34 1.67q-.08.39-.11.8z"/><path d="m644.08 404.24v49.9a26.52 26.52 0 0 1 -52.08 7.17c0-.09 0-.18-.07-.26a26.52 26.52 0 0 1 -.91-6.91 16 16 0 1 0 -32 0v59.12a26.52 26.52 0 1 1 -53 0v-30.39a16 16 0 0 0 -32 0 26.53 26.53 0 0 1 -53.05 0 16 16 0 0 0 -32 0v30.39a26.52 26.52 0 1 1 -53 0v-109c43.29 13.53 97.26 20.9 154.08 20.9s110.75-7.39 154.03-20.92z"/><path d="m490 253.59c-133.68 0-215.76 40.64-215.76 69.77 0 6 3.44 12.42 10.06 18.91a13.52 13.52 0 0 1 1.3 1.22c8.56 7.9 21.81 15.8 39.27 22.9a15 15 0 0 1 1.95.78h.05c37.33 14.77 93.14 25.9 163.09 25.9s125.8-11.07 163.13-25.83a15 15 0 0 1 2-.78c17.5-7.12 30.76-15 39.32-22.94l.05-.05a15.51 15.51 0 0 1 1.18-1.12c6.65-6.5 10.11-13 10.11-18.95.01-29.17-82.07-69.81-215.75-69.81zm0 103c-29 0-52.59-21.79-52.59-48.59s23.59-48.61 52.59-48.61 52.59 21.8 52.59 48.59-23.59 48.59-52.59 48.59z"/><ellipse cx="490" cy="307.98" rx="20.59" ry="16.59"/><path d="m874 572.43c0 20.16-15.54 40.64-44.11 59.32a15.8 15.8 0 0 0 -2.51 1.62c-16.21 10.26-36.36 20-60.05 28.71-73.86 27.34-172.33 42.39-277.33 42.39s-203.47-15.05-277.29-42.37c-23.69-8.76-43.84-18.45-60.05-28.71a15.8 15.8 0 0 0 -2.51-1.62c-28.61-18.7-44.15-39.18-44.15-59.34 0-37.5 54-75.74 142-101.25a64 64 0 0 0 4.79 7.88c-8.5 12-10.57 23.11-10.57 31.1s2.08 19.12 10.59 31.14c-8.51 12-10.59 23.14-10.59 31.13 0 11.27 4.11 28.31 23.68 45.43 13.14 11.5 31.53 21.67 54.65 30.22 45.53 16.85 105.7 26.12 169.45 26.12s123.92-9.27 169.43-26.12c23.12-8.55 41.51-18.72 54.65-30.22 19.58-17.12 23.68-34.16 23.68-45.43 0-8-2.07-19.12-10.58-31.13 8.51-12 10.58-23.14 10.58-31.14s-2.07-19.11-10.56-31.11a62.62 62.62 0 0 0 4.79-7.86c88.01 25.51 142.01 63.74 142.01 101.24z"/><path d="m800.56 683.25-20.62 41c-190.42 55.92-385.45 55.92-579.91 0l-20.59-41q10.59 4.59 22.16 8.87c77.29 28.6 179.71 44.35 288.4 44.35s211.11-15.75 288.4-44.35q11.6-4.29 22.16-8.87z"/></g><g fill="#413b32"><path d="m686.08 371.63v72.51a58.49 58.49 0 0 1 -85 52.16v7a58.52 58.52 0 0 1 -113.56 19.88 58.54 58.54 0 0 1 -60 0 58.54 58.54 0 0 1 -113.6-19.86v-131.69a16 16 0 0 1 21-15.2 15 15 0 0 1 1.95.78h.05a16 16 0 0 1 9 14.39v131.66a26.52 26.52 0 1 0 53 0v-30.39a16 16 0 0 1 32 0 26.53 26.53 0 1 0 53.05 0 16 16 0 0 1 32 0v30.39a26.52 26.52 0 1 0 53 0v-59.12a16 16 0 1 1 32 0 26.52 26.52 0 0 0 .91 6.91c0 .08 0 .17.07.26a26.52 26.52 0 0 0 52.06-7.17v-72.51a16 16 0 0 1 9-14.39 15 15 0 0 1 2-.78 16 16 0 0 1 21 15.2z"/><path d="m916 562.43c0 24.8-12.41 48.24-36.9 69.66a194.92 194.92 0 0 1 -19.51 14.91 304.3 304.3 0 0 1 -49 26.25q-10.59 4.59-22.16 8.87c-77.29 28.6-179.71 44.35-288.4 44.35s-211.11-15.75-288.4-44.35q-11.57-4.29-22.16-8.87a304.3 304.3 0 0 1 -49-26.25 194.92 194.92 0 0 1 -19.51-14.91c-24.55-21.42-36.96-44.86-36.96-69.66 0-54.51 61.41-102.71 169-133.11q5.59-1.57 11.37-3.1a16 16 0 0 1 19.63 11.4 16.54 16.54 0 0 1 .4 2 .49.49 0 0 0 0 .12 16 16 0 0 1 -10.71 17.05c-.36.13-.73.24-1.11.34q-7.41 1.95-14.52 4c-88 25.51-142 63.75-142 101.25 0 20.16 15.54 40.64 44.11 59.32.83.55 1.66 1.08 2.51 1.62 16.21 10.26 36.36 20 60.05 28.71 73.8 27.39 172.27 42.44 277.27 42.44s203.47-15.05 277.29-42.37c23.69-8.76 43.84-18.45 60.05-28.71.85-.54 1.68-1.07 2.51-1.62 28.61-18.7 44.15-39.18 44.15-59.34 0-37.5-54-75.73-142-101.24q-7.11-2.07-14.53-4c-.37-.1-.74-.21-1.1-.33a16 16 0 0 1 -5.21-3 16 16 0 0 1 -5.5-14c0-.05 0-.11 0-.16a16.48 16.48 0 0 1 .4-2.05 16 16 0 0 1 19.55-11.4q5.76 1.51 11.36 3.1c107.61 30.38 169.03 78.57 169.03 133.08z"/><path d="m747.76 562.43c0 11.27-4.1 28.31-23.68 45.43-13.14 11.5-31.53 21.67-54.65 30.22-45.51 16.85-105.68 26.12-169.43 26.12s-123.92-9.27-169.43-26.12c-23.12-8.55-41.51-18.72-54.65-30.22-19.57-17.12-23.68-34.16-23.68-45.43 0-8 2.08-19.12 10.59-31.13a78.43 78.43 0 0 1 10.17-11.61 16 16 0 0 1 22 0 14.32 14.32 0 0 1 1.62 1.79c.13.16.25.33.37.5a14.71 14.71 0 0 1 1.65 2.9 4.62 4.62 0 0 1 .19.47 8.8 8.8 0 0 1 .35.93c.06.19.12.38.17.58a10.48 10.48 0 0 1 .33 1.34q.07.36.12.72t.09.75a14.62 14.62 0 0 1 0 3.24q0 .38-.09.75t-.12.72a8.45 8.45 0 0 1 -.19.84c-.06.23-.12.46-.19.69s-.17.56-.28.84-.19.5-.29.75-.18.43-.29.64a13.12 13.12 0 0 1 -.82 1.52 8.18 8.18 0 0 1 -.45.69c-.16.23-.32.45-.49.67a14.48 14.48 0 0 1 -1.09 1.28l-.6.6c-7.14 6.77-10.76 13.34-10.76 19.52 0 29.14 82.08 69.77 215.76 69.77s215.76-40.63 215.76-69.77c0-6.18-3.62-12.75-10.75-19.52q-.3-.28-.6-.6a15.86 15.86 0 0 1 -2.86-4.18c-.1-.19-.18-.38-.26-.57a.42.42 0 0 1 0-.1 4.92 4.92 0 0 1 -.23-.6 2.69 2.69 0 0 1 -.16-.45q-.11-.27-.18-.54c0-.17-.1-.35-.14-.52-.09-.32-.16-.64-.22-1s-.09-.47-.12-.71-.07-.46-.09-.69a15.26 15.26 0 0 1 0-3.31q0-.37.09-.75a13.73 13.73 0 0 1 .34-1.67 5.44 5.44 0 0 1 .15-.54 9.06 9.06 0 0 1 .29-.88c.09-.25.18-.5.29-.75s.2-.47.32-.7a12.94 12.94 0 0 1 .79-1.46q.21-.34.45-.69c.07-.1.14-.21.23-.32s.21-.29.32-.43a14.32 14.32 0 0 1 1.59-1.74 16 16 0 0 1 22 0 77.77 77.77 0 0 1 10.15 11.61c8.54 12 10.61 23.12 10.61 31.12z"/><path d="m747.76 500.16c0 8-2.07 19.12-10.58 31.14a78.43 78.43 0 0 1 -10.18 11.61 16 16 0 0 1 -22 0q-.3-.28-.6-.6a15.86 15.86 0 0 1 -2.86-4.18c-.1-.19-.18-.38-.26-.57a.42.42 0 0 1 0-.1 4.92 4.92 0 0 1 -.23-.6 2.69 2.69 0 0 1 -.16-.45q-.11-.27-.18-.54c0-.17-.1-.35-.14-.52-.09-.32-.16-.64-.22-1s-.09-.47-.12-.71-.07-.46-.09-.69a15.26 15.26 0 0 1 0-3.31q0-.37.09-.75a13.73 13.73 0 0 1 .34-1.67 5.44 5.44 0 0 1 .15-.54 9.06 9.06 0 0 1 .29-.88c.09-.25.18-.5.29-.75s.2-.47.32-.7a12.94 12.94 0 0 1 .79-1.46q.21-.34.45-.69c.07-.1.14-.21.23-.32s.21-.29.32-.43a14.32 14.32 0 0 1 1.59-1.75c7.13-6.78 10.75-13.34 10.75-19.53s-3.62-12.75-10.75-19.52q-.3-.28-.6-.6a15.86 15.86 0 0 1 -2.86-4.18c-.1-.19-.18-.38-.26-.57a.42.42 0 0 1 0-.1 4.92 4.92 0 0 1 -.23-.6 2.69 2.69 0 0 1 -.16-.45q-.11-.27-.18-.54c0-.17-.1-.35-.14-.52s-.16-.64-.22-1-.09-.47-.12-.71-.07-.46-.09-.69a15.26 15.26 0 0 1 0-3.31q0-.37.09-.75a13.73 13.73 0 0 1 .34-1.67 5.44 5.44 0 0 1 .15-.54 9.06 9.06 0 0 1 .29-.88c.09-.25.18-.5.29-.75s.2-.47.32-.7a12.94 12.94 0 0 1 .79-1.46q.21-.35.45-.69c.07-.1.14-.21.23-.32s.21-.29.32-.43a14.32 14.32 0 0 1 1.62-1.79 16 16 0 0 1 16.13-3.55 15.83 15.83 0 0 1 5.21 3c.23.18.44.38.66.58a78.75 78.75 0 0 1 10.18 11.63c8.48 11.99 10.55 23.11 10.55 31.1z"/><path d="m299.9 529.68a14.62 14.62 0 0 1 0 3.24q0 .38-.09.75t-.12.72a8.45 8.45 0 0 1 -.19.84c-.06.23-.12.46-.19.69s-.17.56-.28.84-.19.5-.29.75-.18.43-.29.64a13.12 13.12 0 0 1 -.82 1.52 8.18 8.18 0 0 1 -.45.69c-.16.23-.32.45-.49.67a14.48 14.48 0 0 1 -1.09 1.28l-.6.6a16 16 0 0 1 -22 0 78.43 78.43 0 0 1 -10.15-11.61c-8.51-12-10.59-23.15-10.59-31.14s2.07-19.11 10.57-31.1a77.71 77.71 0 0 1 10.17-11.64c.22-.2.43-.4.66-.59a15.8 15.8 0 0 1 5.2-2.95 16 16 0 0 1 16.14 3.55 15.69 15.69 0 0 1 3 3.77c.1.18.2.36.29.55a3.88 3.88 0 0 1 .22.46c.1.19.18.38.26.57a.26.26 0 0 1 0 .1c.09.21.18.42.25.64s.22.62.31.93a5.44 5.44 0 0 1 .15.54 13.73 13.73 0 0 1 .34 1.67q.06.38.09.75a15.26 15.26 0 0 1 0 3.31q0 .34-.09.69c0 .24-.07.47-.12.71s-.13.64-.22 1-.09.35-.14.52-.11.36-.18.54a2.69 2.69 0 0 1 -.16.45 4.92 4.92 0 0 1 -.23.6s0 .07 0 .11l-.21.47c-.07.16-.15.32-.23.47s-.23.45-.36.67a16.21 16.21 0 0 1 -1.29 1.93 12.61 12.61 0 0 1 -1 1.2l-.6.6c-7.14 6.76-10.76 13.32-10.76 19.51s3.62 12.75 10.76 19.53a14.32 14.32 0 0 1 1.62 1.79c.13.16.25.33.37.5a14.71 14.71 0 0 1 1.65 2.9 4.62 4.62 0 0 1 .19.47 8.8 8.8 0 0 1 .35.93c.06.19.12.38.17.58a10.48 10.48 0 0 1 .33 1.34q.07.36.12.72t.02.73z"/><path d="m299.9 470.72q0 .34-.09.69c0 .24-.07.47-.12.71s-.13.64-.22 1-.09.35-.14.52-.11.36-.18.54a2.69 2.69 0 0 1 -.16.45 4.92 4.92 0 0 1 -.23.6s0 .07 0 .11l-.21.47c-.07.16-.15.32-.23.47s-.23.45-.36.67a16.21 16.21 0 0 1 -1.29 1.93c-.32.41-.66.81-1 1.2l-.6.6a16 16 0 0 1 -22 0 79.83 79.83 0 0 1 -10.17-11.58 64 64 0 0 1 -4.79-7.88 51.8 51.8 0 0 1 -5.44-17.62 48.1 48.1 0 0 1 -.34-5.67 47 47 0 0 1 .79-8.57 56.3 56.3 0 0 1 9.8-22.56 78.79 78.79 0 0 1 10.08-11.64 16 16 0 0 1 21.8-.22l.09.09.14.13c.2.18.4.38.59.58a13 13 0 0 1 1.09 1.28 14.75 14.75 0 0 1 .93 1.35c.14.24.28.47.41.71s.25.48.37.72.23.49.33.74a6.67 6.67 0 0 1 .29.74c.08.22.15.43.22.64l.06.18c.07.24.13.48.19.71s.13.54.19.81.09.5.12.75.07.5.09.75 0 .39.05.59v.45a15.6 15.6 0 0 1 -.07 2.16c0 .2 0 .41-.07.61s-.09.6-.15.9v.15c0 .23-.1.46-.16.69s-.12.48-.19.71l-.06.18c-.07.22-.14.43-.22.64s-.18.5-.29.75-.21.49-.33.73-.22.45-.34.67l-.05.1c-.13.22-.25.44-.39.66s-.29.46-.45.69-.26.38-.41.57a1.33 1.33 0 0 1 -.14.19c-.32.4-.66.8-1 1.18l-.59.58-.17.16c-7 6.73-10.59 13.25-10.59 19.37a14.72 14.72 0 0 0 .11 1.76.49.49 0 0 0 0 .12c.66 5.66 4.24 11.57 10.65 17.65a15.69 15.69 0 0 1 2.95 3.82c.1.18.2.36.29.55a3.88 3.88 0 0 1 .22.46c.1.19.18.38.26.57a.26.26 0 0 1 0 .1c.09.21.18.42.25.64s.22.62.31.93a5.44 5.44 0 0 1 .15.54 13.73 13.73 0 0 1 .34 1.67q.06.38.09.75a15.26 15.26 0 0 1 -.01 3.31z"/><path d="m747.76 437.89a47.63 47.63 0 0 1 -.34 5.73 51.88 51.88 0 0 1 -5.42 17.57 62.62 62.62 0 0 1 -4.79 7.86 79.89 79.89 0 0 1 -10.21 11.59 16 16 0 0 1 -22 0q-.3-.28-.6-.6a15.86 15.86 0 0 1 -2.86-4.18c-.1-.19-.18-.38-.26-.57a.42.42 0 0 1 0-.1 4.92 4.92 0 0 1 -.23-.6 2.69 2.69 0 0 1 -.16-.45q-.11-.27-.18-.54c0-.17-.1-.35-.14-.52s-.16-.64-.22-1-.09-.47-.12-.71-.07-.46-.09-.69a15.26 15.26 0 0 1 0-3.31q0-.37.09-.75a13.73 13.73 0 0 1 .34-1.67 5.44 5.44 0 0 1 .15-.54 9.06 9.06 0 0 1 .29-.88c.09-.25.18-.5.29-.75s.2-.47.32-.7a12.94 12.94 0 0 1 .79-1.46q.21-.35.45-.69c.07-.1.14-.21.23-.32s.21-.29.32-.43a14.32 14.32 0 0 1 1.62-1.79c6.4-6.08 10-12 10.63-17.59 0-.05 0-.11 0-.16a15.67 15.67 0 0 0 .1-1.78c0-6.17-3.61-12.73-10.72-19.49l-.61-.61c-.37-.39-.71-.79-1-1.2-.14-.17-.26-.34-.39-.52a15.22 15.22 0 0 1 -.9-1.41c-.12-.2-.23-.41-.33-.61s-.28-.58-.41-.87a3.85 3.85 0 0 1 -.19-.47c-.08-.19-.15-.38-.22-.57s-.1-.28-.15-.43a4.74 4.74 0 0 1 -.15-.5q-.2-.68-.33-1.35-.08-.36-.12-.72t-.09-.75a14.07 14.07 0 0 1 -.06-2.43q0-.4.06-.81t.09-.75c0-.25.08-.5.12-.75.1-.44.2-.88.33-1.32a4.74 4.74 0 0 1 .15-.5c.05-.14.09-.29.15-.43a13.74 13.74 0 0 1 .56-1.38l.32-.64c.18-.35.37-.69.58-1s.27-.42.42-.63.23-.33.35-.49.27-.36.42-.54.28-.35.43-.51l.39-.43c.19-.2.38-.39.58-.58a16 16 0 0 1 22 0 78.68 78.68 0 0 1 10.13 11.6 56.16 56.16 0 0 1 9.8 22.56 47 47 0 0 1 .79 8.56z"/><path d="m747.76 375.63c0 8-2.07 19.12-10.59 31.13a78.68 78.68 0 0 1 -10.17 11.6 16 16 0 0 1 -22 0l-.61-.61c-.37-.39-.71-.79-1-1.2-.14-.17-.26-.34-.39-.52a15.22 15.22 0 0 1 -.9-1.41c-.12-.2-.23-.41-.33-.61s-.28-.58-.41-.87a3.85 3.85 0 0 1 -.19-.47c-.08-.19-.15-.38-.22-.57s-.1-.28-.15-.43a4.74 4.74 0 0 1 -.15-.5q-.2-.68-.33-1.35-.08-.36-.12-.72t-.09-.75a16.41 16.41 0 0 1 -.06-2.43q0-.4.06-.81t.09-.75c0-.25.08-.5.12-.75.1-.44.2-.88.33-1.32a4.74 4.74 0 0 1 .15-.5c.05-.14.09-.29.15-.43a13.74 13.74 0 0 1 .56-1.38l.32-.64c.18-.35.37-.69.58-1s.27-.42.42-.63.23-.33.35-.49.27-.36.42-.54.28-.35.43-.51l.39-.43c.19-.2.38-.39.58-.58 7.12-6.77 10.73-13.33 10.73-19.5a19.18 19.18 0 0 0 -2.24-8.66 40.52 40.52 0 0 0 -8.49-10.89 16 16 0 0 1 -.6-22.62l.05-.05 1.18-1.12a16 16 0 0 1 21.37.58 77.73 77.73 0 0 1 10.15 11.6c8.54 12 10.61 23.13 10.61 31.13z"/><path d="m589 471h-.17l-1.54.23a17 17 0 0 1 -2.24.15 16 16 0 0 1 -15.82-13.78 15.44 15.44 0 0 1 -.16-2.24 16 16 0 0 1 13.79-15.82l1-.16h.18a16 16 0 0 1 17.96 11.67c0 .08 0 .17.07.26.11.47.21 1 .29 1.45a16 16 0 0 1 -13.36 18.24z"/><path d="m300 406.18a15.6 15.6 0 0 1 -.07 2.16c0 .2 0 .41-.07.61s-.09.6-.15.9v.15c0 .23-.1.46-.16.69s-.12.48-.19.71l-.06.18c-.07.22-.14.43-.22.64s-.18.5-.29.75-.21.49-.33.73-.22.45-.34.67l-.05.1c-.13.22-.25.44-.39.66s-.29.46-.45.69-.26.38-.41.57a1.33 1.33 0 0 1 -.14.19c-.32.4-.66.8-1 1.18l-.59.58-.17.16a16 16 0 0 1 -21.86-.16 78.2 78.2 0 0 1 -10.14-11.6c-8.51-12-10.59-23.14-10.59-31.13s2.08-19.12 10.59-31.13a78.43 78.43 0 0 1 10.08-11.59 16 16 0 0 1 21.32-.62 13.52 13.52 0 0 1 1.3 1.22 16 16 0 0 1 -.64 22.58 40.57 40.57 0 0 0 -8.5 10.93 19.18 19.18 0 0 0 -2.24 8.66c0 6.11 3.54 12.6 10.53 19.31l.09.09.14.13.6.6a16.39 16.39 0 0 1 1.09 1.28 14.75 14.75 0 0 1 .93 1.35c.14.24.28.47.41.71s.25.48.37.72.23.49.33.74.2.49.29.74.15.43.22.64l.06.18c.07.24.13.48.19.71s.13.54.19.81.09.5.12.75.07.5.09.75 0 .39.05.59z"/><path d="m724.08 267.94c-13.14-11.51-31.53-21.68-54.65-30.23-45.5-16.84-105.68-26.12-169.43-26.12s-123.92 9.28-169.43 26.12c-23.12 8.55-41.51 18.72-54.65 30.23-19.57 17.12-23.68 34.15-23.68 45.42 0 8.11 2.12 19.19 10.59 31.14a82.32 82.32 0 0 0 13.09 14.29 115.74 115.74 0 0 0 10.56 8.21 175.23 175.23 0 0 0 27.44 15.24q7.86 3.56 16.65 6.81 7.43 2.75 15.35 5.22c43.29 13.53 97.26 20.9 154.08 20.9s110.8-7.37 154.08-20.9q7.92-2.48 15.35-5.22 8.79-3.25 16.65-6.81a175.23 175.23 0 0 0 27.44-15.24 115.74 115.74 0 0 0 10.56-8.18 82 82 0 0 0 13.09-14.3c8.47-11.94 10.59-23 10.59-31.13 0-11.3-4.11-28.33-23.68-45.45zm-60.94 89.27c-37.38 14.79-93.14 25.93-163.14 25.93s-125.76-11.14-163.09-25.9h-.05l-1.95-.78c-17.46-7.1-30.71-15-39.27-22.9l-1.3-1.22c-6.62-6.49-10.06-12.94-10.06-18.91 0-29.13 82.08-69.77 215.76-69.77s215.76 40.64 215.76 69.77c0 6-3.46 12.45-10.11 18.95l-1.18 1.12-.05.05c-8.56 7.91-21.82 15.82-39.32 22.94zm-163.14 25.93c-69.95 0-125.76-11.13-163.09-25.9a16 16 0 0 1 9 14.39v22.61c43.29 13.53 97.26 20.9 154.08 20.9s110.8-7.37 154.08-20.9v-22.61a16 16 0 0 1 9-14.39c-37.31 14.76-93.07 25.9-163.07 25.9z"/><path d="m500 249.39c-29 0-52.59 21.8-52.59 48.59s23.59 48.59 52.59 48.59 52.59-21.79 52.59-48.59-23.59-48.59-52.59-48.59zm0 65.18c-11.35 0-20.59-7.44-20.59-16.59s9.24-16.59 20.59-16.59 20.59 7.44 20.59 16.59-9.24 16.59-20.59 16.59z"/><path d="m861.51 643.17-1.92 3.83-44.17 87.8a16 16 0 0 1 -9.68 8.14c-99.83 30-201.61 45.31-302.52 45.47h-1.6c-101.45 0-204.81-15.29-307.27-45.45a16 16 0 0 1 -9.77-8.16l-44.17-87.8-1.92-3.83a16 16 0 0 1 21.62-21.42 16.08 16.08 0 0 1 6.93 7l22.36 44.46 20.59 41c194.46 56 389.49 56 579.91 0l20.62-41 22.36-44.46a16.08 16.08 0 0 1 6.93-7 16 16 0 0 1 21.62 21.42z"/></g></svg>