<svg height="512" viewBox="0 0 512 512" width="512" xmlns="http://www.w3.org/2000/svg"><g id="_34.Pancake" data-name="34.Pancake"><g id="c"><path d="m327.85 428v.13h-272.73a49.125 49.125 0 0 1 0-98.25h91.63v15.49c0 32.41 16.09 58.68 35.93 58.68s35.93-26.27 35.93-58.68v-15.49h71.85v37.04c0 33.74 16.74 61.08 37.39 61.08z" fill="#ffebb9"/><path d="m75.12 428.13h-20a49.125 49.125 0 0 1 0-98.25h20a49.125 49.125 0 0 0 0 98.25z" fill="#e5d2a8"/><path d="m506 379.01a49.1307 49.1307 0 0 1 -49.12 49.12h-129.03v-.13c20.65 0 37.4-27.34 37.4-61.08v-37.04h91.63a49.1264 49.1264 0 0 1 49.12 49.13z" fill="#ffebb9"/><path d="m146.75 231.64v98.24h-91.63a49.12 49.12 0 0 1 0-98.24z" fill="#ffebb9"/><path d="m75.12 329.88h-20a49.12 49.12 0 0 1 0-98.24h20a49.12 49.12 0 1 0 0 98.24z" fill="#e5d2a8"/><g fill="#ffebb9"><path d="m290.46 283.09v46.79h-71.85v-46.79c0-24.48 16.08-44.31 35.92-44.31s35.93 19.83 35.93 44.31z"/><path d="m506 280.76a49.1307 49.1307 0 0 1 -49.12 49.12h-91.63v-98.24h91.63a49.1179 49.1179 0 0 1 49.12 49.12z"/><path d="m146.75 133.39v98.25h-91.63a49.125 49.125 0 0 1 0-98.25z"/></g><path d="m75.12 231.64h-20a49.125 49.125 0 0 1 0-98.25h20a49.125 49.125 0 0 0 0 98.25z" fill="#e5d2a8"/><path d="m506 182.51a49.1307 49.1307 0 0 1 -49.12 49.13h-91.63v-98.25h91.63a49.1179 49.1179 0 0 1 49.12 49.12z" fill="#ffebb9"/><path d="m336.65 124.19a40.36 40.36 0 0 1 -1.05 9.2h-159.2a40.3377 40.3377 0 0 1 39.27-49.52h80.66a40.3174 40.3174 0 0 1 40.32 40.32z" fill="#f5d367"/><path d="m365.25 133.39v233.53c0 33.74-16.75 61.08-37.4 61.08s-37.39-27.34-37.39-61.08v-83.83c0-24.48-16.09-44.31-35.93-44.31s-35.92 19.83-35.92 44.31v62.28c0 32.41-16.09 58.68-35.93 58.68s-35.93-26.27-35.93-58.68v-211.98z" fill="#e9986b"/></g><g id="c-2" data-name="c"><path d="m327.85 433.13h-272.73a54.125 54.125 0 0 1 0-108.25h91.63a5 5 0 0 1 5 5v15.49c0 29.0977 14.1643 53.68 30.93 53.68s30.93-24.582 30.93-53.68v-15.49a5 5 0 0 1 5-5h71.85a5 5 0 0 1 5 5v37.04c0 30.3985 14.8328 56.08 32.39 56.08a5 5 0 0 1 5 5v.13a5 5 0 0 1 -5 5zm-272.73-98.25a44.125 44.125 0 0 0 0 88.25h250.1342c-11.9742-11.5548-19.7942-32.1964-19.7942-56.21v-32.04h-61.85v10.49c0 35.708-17.9784 63.68-40.93 63.68s-40.93-27.9717-40.93-63.68v-10.49z"/><path d="m456.88 433.13h-129.03a5 5 0 0 1 -5-5v-.13a5 5 0 0 1 5-5c17.5625 0 32.4-25.6816 32.4-56.08v-37.04a5 5 0 0 1 5-5h91.63a54.125 54.125 0 0 1 0 108.25zm-106.4286-10h106.4286a44.125 44.125 0 0 0 0-88.25h-86.63v32.04c0 24.0136-7.8215 44.6552-19.7987 56.21z"/><path d="m146.75 334.88h-91.63a54.12 54.12 0 0 1 0-108.24h91.63a5 5 0 0 1 5 5v98.24a5 5 0 0 1 -5 5zm-91.63-98.24a44.12 44.12 0 0 0 0 88.24h86.63v-88.24z"/><path d="m290.46 334.88h-71.85a5 5 0 0 1 -5-5v-46.79c0-27.1894 18.3568-49.31 40.92-49.31 22.5687 0 40.93 22.12 40.93 49.31v46.79a5 5 0 0 1 -5 5zm-66.85-10h61.85v-41.79c0-21.6757-13.875-39.31-30.93-39.31-17.05 0-30.92 17.6338-30.92 39.31z"/><path d="m456.88 334.88h-91.63a5 5 0 0 1 -5-5v-98.24a5 5 0 0 1 5-5h91.63a54.12 54.12 0 0 1 0 108.24zm-86.63-10h86.63a44.12 44.12 0 0 0 0-88.24h-86.63z"/><path d="m146.75 236.64h-91.63a53.9724 53.9724 0 0 1 -53.3062-44.7845 5 5 0 0 1 9.8525-1.711 43.9914 43.9914 0 0 0 43.4537 36.4955h86.63v-88.25h-86.63a44.1563 44.1563 0 0 0 -20.4734 5.0362 5 5 0 0 1 -4.6533-8.8516 54.2 54.2 0 0 1 25.1267-6.1846h91.63a5 5 0 0 1 5 5v98.25a5 5 0 0 1 -5 5z"/><path d="m7.6133 175.001a5.003 5.003 0 0 1 -4.839-6.2725 53.2519 53.2519 0 0 1 4.2506-11.0371 5 5 0 0 1 8.87 4.6172 43.2387 43.2387 0 0 0 -3.4493 8.9629 5.0022 5.0022 0 0 1 -4.8323 3.7295z"/><path d="m456.88 236.64h-91.63a5 5 0 0 1 -5-5v-98.25a5 5 0 0 1 5-5h91.63a54.125 54.125 0 0 1 0 108.25zm-86.63-10h86.63a44.125 44.125 0 0 0 0-88.25h-86.63z"/><path d="m335.6 138.39h-159.2a5 5 0 0 1 -4.8685-3.8613 45.3372 45.3372 0 0 1 44.1385-55.6587h80.66a45.3722 45.3722 0 0 1 44.1385 55.6582 5 5 0 0 1 -4.8685 3.8618zm-155.0059-10h150.8117a36.0757 36.0757 0 0 0 .2441-4.1992 35.36 35.36 0 0 0 -35.32-35.32h-80.6599a35.3206 35.3206 0 0 0 -35.32 35.32 36.0757 36.0757 0 0 0 .2442 4.1992z"/><path d="m327.85 433c-23.77 0-42.39-29.0254-42.39-66.08v-83.83c0-21.6757-13.875-39.31-30.93-39.31-17.05 0-30.92 17.6338-30.92 39.31v62.28c0 35.708-17.9786 63.68-40.93 63.68s-40.93-27.9717-40.93-63.68v-211.98a5 5 0 0 1 5-5h218.5a5 5 0 0 1 5 5v233.53c0 37.0546-18.6243 66.08-42.4 66.08zm-73.32-199.22c22.5687 0 40.93 22.12 40.93 49.31v83.83c0 30.3985 14.8328 56.08 32.39 56.08 17.5625 0 32.4-25.6816 32.4-56.08v-228.53h-208.5v206.98c0 29.0977 14.1643 53.68 30.93 53.68s30.93-24.582 30.93-53.68v-62.28c0-27.19 18.3567-49.31 40.92-49.31z"/></g></g></svg>