<svg enable-background="new 0 0 512 512" viewBox="0 0 512 512" xmlns="http://www.w3.org/2000/svg"><g id="_x31_4_x2C__panda_x2C__mammal_x2C__animal_x2C__wildlife_x2C__animal_kingdom_x2C__zoo"><g><path d="m478.23 52.478c-32.22-32.21-81.53-35.14-116.68 0-12.57 12.57-20.94 27.63-25.04 43.27l12.29 24.94h32.9l98.45-66.21c-.61-.67-1.26-1.34-1.92-2z" fill="#555a66"/><path d="m480.15 54.478c-28.72 10.77-66.26 30.54-98.45 66.21l28.585 42.57 36.725 26.88c11.25-4.68 21.92-11.68 31.22-20.98 34.42-34.43 32.31-82.45 1.92-114.68z" fill="#707788"/><path d="m150.45 52.478c-35.15-35.14-84.46-32.21-116.68 0-.66.66-1.31 1.33-1.92 2l98.45 66.21 29.3-4.763 15.89-20.177c-4.1-15.64-12.47-30.7-25.04-43.27z" fill="#555a66"/><path d="m31.85 54.478c-30.39 32.23-32.5 80.25 1.92 114.68 9.3 9.3 19.97 16.3 31.22 20.98l36.728-23.013 28.582-46.437c-32.19-35.67-69.73-55.44-98.45-66.21z" fill="#707788"/><path d="m465.41 376.818c3.565 30.717-9.501 62.89-29.41 62.89-5.41 0-10.48-2.52-14.86-6.9-41.1 33.77-99.87 51.9-165.14 51.9s-124.04-18.13-165.14-51.9c-21.764 21.764-49.4-10.628-44.27-55.99-27.855-58.756-16.452-130.632 18.4-186.68 68.052-109.353 207.557-146.838 316.71-69.45 85.915 60.891 123.035 173.181 83.71 256.13z" fill="#e2e6e9"/><g fill="#707788"><path d="m390.38 220.248c30.75 30.76 21.97 57.59 0 79.55-21.97 21.97-48.8 30.76-79.55 0-30.75-30.75-43.18-78.79-21.21-100.76 21.96-21.97 70-9.54 100.76 21.21z"/><path d="m264.73 327.208c20.27 0 32.94 21.94 22.8 39.49l-8.73 15.13c-10.126 17.551-35.479 17.542-45.6 0l-8.73-15.13c-10.14-17.55 2.53-39.49 22.8-39.49z"/><path d="m222.39 199.038c21.96 21.97 9.54 70.01-21.22 100.76-30.75 30.76-57.58 21.97-79.55 0-21.96-21.96-30.75-48.79 0-79.55 30.76-30.75 78.8-43.18 100.77-21.21z"/></g><g><path d="m133.652 451.229c-14.021-6.85-26.816-14.997-38.029-24.215-2.982-2.452-7.338-2.238-10.066.491-3.12 3.121-6.336 4.703-9.557 4.703-10.643 0-22.5-18.48-22.5-45 0-9.407 1.374-10.425-.133-13.603-26.677-56.272-15.608-125.472 17.99-179.505 66.101-106.21 200.854-141.842 306.006-67.292 44.951 31.857 79.046 80.67 91.261 134.85.912 4.04 4.932 6.577 8.966 5.667 4.041-.911 6.578-4.925 5.667-8.966-5.072-22.497-13.668-44.309-25.565-64.96 31.004-16.058 53.932-47.717 53.294-83.812-.836-47.427-42.286-89.026-89.864-89.864-41.198-.747-76.334 29.269-89.392 66.129-49.203-18.183-102.163-18.212-151.461 0-13.124-37.047-48.374-66.886-89.392-66.129-47.699.84-89.031 42.665-89.862 89.863-.636 36.008 22.256 67.734 53.288 83.809-32.603 56.611-41.922 126.805-15.384 184.717-3.237 35.337 12.829 69.096 37.081 69.096 5.211 0 10.283-1.63 14.935-4.761 10.905 8.386 23.033 15.859 36.134 22.26 3.736 1.825 8.22.26 10.031-3.447 1.817-3.722.274-8.213-3.448-10.031zm316.138-270.64c-15.353-23.249-34.816-44.086-56.857-60.921 28.754-29.61 61.063-46.755 85.085-56.325 33.918 40.373 17.09 94.501-28.228 117.246zm-82.937-122.808c28.623-28.615 69.282-30.566 99.56-5.873-25.141 10.733-57.198 28.937-85.793 58.933-11.189-7.483-22.911-13.964-34.98-19.341 4.322-12.519 11.571-24.077 21.213-33.719zm-221.707 0c9.642 9.641 16.891 21.199 21.213 33.719-12.071 5.379-23.792 11.859-34.98 19.341-28.595-29.996-60.652-48.201-85.793-58.933 30.278-24.692 70.936-22.742 99.56 5.873zm-111.165 5.563c24.021 9.57 56.331 26.715 85.085 56.325-22.026 16.824-41.489 37.661-56.855 60.921-45.37-22.771-62.117-76.91-28.23-117.246z"/><path d="m480.999 312.223c-4.136-.341-7.744 2.75-8.075 6.877-1.558 19.46-6.365 37.798-14.29 54.505-.603 1.27-.836 2.683-.674 4.078.358 3.089.54 6.293.54 9.525 0 26.52-11.857 45-22.5 45-3.221 0-6.437-1.582-9.557-4.703-2.729-2.729-7.084-2.942-10.065-.492-59.753 49.098-154.041 59.43-227.795 43.083-4.045-.897-8.049 1.656-8.945 5.699-.896 4.044 1.655 8.049 5.699 8.945 75.584 16.75 171.748 6.895 235.728-42.294 4.652 3.132 9.725 4.762 14.936 4.762 21.028 0 37.5-26.355 37.5-60 0-3.065-.14-6.118-.416-9.102 8.174-17.833 13.148-37.271 14.793-57.81.329-4.128-2.75-7.743-6.879-8.073z"/><path d="m226.001 447.207c12.254 0 23.153-5.909 30-15.026 13.719 18.267 40.356 20.198 56.514 4.04 7.085-7.085 10.986-16.501 10.986-26.514 0-4.143-3.357-7.5-7.5-7.5s-7.5 3.357-7.5 7.5c0 6.006-2.342 11.655-6.594 15.906-14.039 14.042-38.406 4.219-38.406-15.906v-8.054c9.112-2.027 16.965-7.714 21.796-16.08l8.732-15.125c13.016-22.545-3.233-50.741-29.296-50.741h-17.465c-26.032 0-42.328 28.166-29.296 50.741l8.732 15.125c4.831 8.366 12.684 14.053 21.796 16.08v8.054c0 20.103-24.356 29.959-38.406 15.906-4.252-4.251-6.594-9.9-6.594-15.906 0-4.143-3.357-7.5-7.5-7.5s-7.5 3.357-7.5 7.5c.001 20.719 16.781 37.5 37.501 37.5zm13.694-69.134-8.732-15.125c-7.244-12.547 1.798-28.241 16.306-28.241h17.465c14.488 0 23.559 15.679 16.306 28.241l-8.732 15.125c-7.246 12.548-25.359 12.564-32.613 0z"/><path d="m395.683 305.104c29.489-29.49 29.489-60.666 0-90.156-15.955-15.954-36.85-27.76-57.326-32.389-46.65-10.543-75.767 18.562-65.22 65.22 4.629 20.477 16.435 41.371 32.39 57.326 29.491 29.49 60.665 29.491 90.156-.001zm-79.55-10.606c-14.006-14.005-24.344-32.238-28.365-50.026-7.986-35.328 10.918-55.501 47.281-47.281 17.787 4.021 36.021 14.359 50.026 28.365 23.518 23.517 23.518 45.424 0 68.942-23.517 23.518-45.425 23.518-68.942 0z"/><path d="m325.588 235.12c-2.93-2.928-7.678-2.928-10.607 0-2.929 2.93-2.929 7.678 0 10.607l7.5 7.5c2.931 2.929 7.678 2.928 10.607 0 2.929-2.93 2.929-7.678 0-10.607z"/><path d="m238.865 247.779c10.544-46.643-18.564-75.771-65.22-65.22-20.477 4.629-41.371 16.435-57.326 32.389-29.489 29.49-29.489 60.666 0 90.157 29.492 29.49 60.664 29.489 90.157 0 15.955-15.955 27.76-36.849 32.389-57.326zm-111.938 46.72c-23.518-23.52-23.518-45.427 0-68.943 14.005-14.006 32.239-24.344 50.026-28.365 36.708-8.297 55.191 12.292 47.281 47.281-4.021 17.788-14.359 36.021-28.364 50.026-23.518 23.519-45.427 23.518-68.943.001z"/><path d="m186.414 235.12-7.5 7.5c-2.929 2.93-2.929 7.678 0 10.607 2.931 2.929 7.678 2.928 10.607 0l7.5-7.5c2.929-2.93 2.929-7.678 0-10.607-2.929-2.928-7.677-2.928-10.607 0z"/><circle cx="480.151" cy="289.708" r="7.5"/><circle cx="157.967" cy="469.707" r="7.5"/></g></g></g><g id="Layer_1"/></svg>