<svg id="Layer_1" enable-background="new 0 0 511.958 511.958" viewBox="0 0 511.958 511.958" xmlns="http://www.w3.org/2000/svg"><g><g><path d="m73.249 328.926c-3.918-2.93-8.46-5.498-13.604-7.637-7.937-3.3-17.172-.177-21.478 7.262-5.792 10.006-8.402 19.911-8.035 29.101 25.619 34.067 49.516 56.805 58.074 52.08 8.72-4.814 1.871-38.337-14.957-80.806z" fill="#60daa8"/><path d="m62.264 370.063c-9.01-8.825-22.294-13.348-38.569-12.282-8.577.562-15.471 7.455-16.032 16.032-1.309 19.985 5.81 35.462 18.975 44.049 14.563 12.336 33.513 13.156 43.032 5.073 11.734-9.965 12.541-36.354-7.406-52.872z" fill="#b1ecd0"/><path d="m169.724 69.472c-4.196-2.883-9.037-4.895-14.331-5.844-8.154-1.463-13.579-9.259-12.116-17.413 1.462-8.153 9.262-13.572 17.412-12.116 12.735 2.284 24.012 7.899 33.02 16.048-1.772 11.682-11.615 20.343-23.985 19.325z" fill="#b1ecd0"/><path d="m459.27 417.866c-37.86 11.84-89.84 24.479-152.49 29.17-61.95-4.641-113.77-17.08-152.41-29.17-28.455-74.621-2.328-157.788 65.08-201.92 75.43-5.11 139.19 6.97 184.13 19.699 26.555 57.952 45.221 119.033 55.69 182.221z" fill="#ffd9a0"/><path d="m306.78 447.035c-82.438 6.207-168.817-2.497-254.09-29.17 10.48-63.29 29.2-124.431 55.69-182.221 36.399-10.571 73.682-17.175 111.07-19.699-31.621 63.825-53.446 131.648-65.08 201.92 38.64 12.09 90.46 24.53 152.41 29.17z" fill="#fdc072"/><path d="m498.51 444.795c-26.7 20.36-60.29 33.3-113.85 33.3h-122.31c-53.09 0-116.643-12.68-143.693-33.26-11.45-8.72 24.603-26.97 38.983-26.97h331.78c14.36.001 20.51 18.23 9.09 26.93z" fill="#efedff"/><path d="m262.35 478.095h-135.11c-53.09 0-86.71-12.68-113.76-33.26-11.45-8.72-5.34-26.97 9.05-26.97h135.11c-14.38 0-20.5 18.25-9.05 26.97 27.05 20.58 60.67 33.26 113.76 33.26z" fill="#d9d9f9"/><path d="m403.58 235.645c-62.481 8.477-135.14 10.477-197.17 8.11 7.207-16.276-18.436-31.628-10.369-46.798 5.72-10.73 47.399-18.907 57.819-24.457h105.97c10.38 5.54 19.07 14.105 24.76 24.786 6.68 12.529 13.02 25.319 18.99 38.359z" fill="#eaaa83"/><path d="m253.86 172.5c-10.42 5.55-19.14 14.145-24.86 24.875-8.382 15.738-15.812 31.073-22.59 46.38-3.35-.13-6.67-.271-9.97-.42-8.58-.4-15.75 6.45-15.75 15.04v16.43c0 8.311-6.75 15.061-15.06 15.061-8.32 0-15.06-6.75-15.06-15.061v-20.8c0-7.74-5.87-14.2-13.57-14.98-9.92-1.01-19.47-2.14-28.62-3.38 5.92-12.93 12.24-25.689 18.94-38.27 5.72-10.73 14.44-19.311 24.86-24.86 196.892-.029 297.895-.071 101.68-.015z" fill="#e7896e"/><path d="m348.41 184.355c-5.88 2.221-9.61 8.051-9.61 14.33v76.12c0 8.311-6.74 15.061-15.06 15.061-8.31 0-15.05-6.74-15.05-15.061v-56.58c0-9.09-6.57-16.85-15.53-18.37-12.285-2.07-22.12 7.131-22.12 18.301v34.06c0 8.32-6.74 15.06-15.06 15.06s-15.06-6.739-15.06-15.06v-47.53c0-9.277-8.315-16.255-17.44-14.819-.144 0-16.547 1.202-19.751.701-20.74-3.244-56.096-90.422 83.591-121.062 30.68 11.34 53.51 38.85 58.15 72.19.45 3.289 2.46 6.189 5.42 7.71 14.62 7.5 12.65 29.219-2.48 34.949z" fill="#efedff"/><path d="m218.51 188.935c1.67.261 3.32.57 4.96.931-.26.04-.53.09-.79.14-27.588 5.814-40.015-2.231-54.97-4.55-18.73-2.94-22.58-27.86-6.64-36.05 2.91-1.5 4.95-4.28 5.4-7.521 7.84-57.165 66.928-92.38 120.85-72.38-36.61 8.03-64.89 38.26-70.05 75.86-.45 3.239-2.49 6.029-5.4 7.52-15.94 8.191-12.09 33.12 6.64 36.05z" fill="#d9d9f9"/><path d="m203.729 363.068c.007 13.438-13.667 24.338-30.541 24.346s-30.559-10.878-30.566-24.315c-.007-13.438 13.667-24.338 30.541-24.347s30.559 10.878 30.566 24.316z" fill="#ffa1ac"/><path d="m308.231 363.015c.007 13.438 13.691 24.324 30.565 24.315 16.874-.008 30.548-10.908 30.541-24.346s-13.691-24.324-30.566-24.316c-16.873.009-30.547 10.909-30.54 24.347z" fill="#ffa1ac"/><path d="m285.924 352.026c-.009-18.509-13.419-20.241-29.959-20.233s-29.949 1.754-29.939 20.263c.009 18.509 13.426 33.507 29.966 33.498 16.54-.008 29.941-15.019 29.932-33.528z" fill="#485c70"/><circle cx="203.274" cy="86.568" fill="#ff899f" r="37.647"/></g><g><path d="m489.411 410.36h-23.818c-12.808-73.359-37.072-146.557-74.39-216.599-5.46-10.248-13.35-18.807-23.001-25.031 1.139-11.332-4.56-21.212-13.899-26.002-.762-.392-1.292-1.164-1.417-2.066-3.66-26.292-18.176-50.305-39.828-65.881-3.362-2.42-8.05-1.655-10.468 1.708-2.419 3.362-1.654 8.049 1.708 10.468 18.339 13.193 30.634 33.522 33.731 55.773.798 5.735 4.321 10.723 9.425 13.343 8.849 4.54 7.339 17.84-1.708 21.265-8.644 3.273-14.452 11.851-14.452 21.345v76.119c0 4.168-3.391 7.56-7.559 7.56s-7.559-3.392-7.559-7.56v-56.58c0-12.792-9.163-23.601-21.783-25.765-16.983-2.912-30.865 10.073-30.865 25.7v34.057c0 4.168-3.391 7.559-7.559 7.559s-7.559-3.391-7.559-7.559v-47.527c0-14.332-13.201-24.974-27.281-22.02-25.696 5.411-36.409-2.145-52.268-4.625-11.548-1.809-13.875-17.089-4.373-21.97 5.114-2.625 8.628-7.55 9.4-13.175.872-6.362 2.487-12.549 4.788-18.495 35.662 23.254 81.135-11.904 67.316-52.381 18.536-2.208 29.654 2.24 32.57 2.24 3.34 0 6.387-2.248 7.258-5.633 1.033-4.011-1.382-8.1-5.394-9.133-13.678-3.521-28.277-4.006-42.208-1.463-9.967-12.187-25.882-18.764-42.458-15.977-9.633-7.807-21.221-13.091-33.763-15.34-12.213-2.18-23.926 5.971-26.114 18.175-2.19 12.212 5.963 23.929 18.175 26.119 2.163.388 4.234 1 6.202 1.818-4.369 13.642-2.053 28.781 6.762 40.63-3.996 8.692-6.69 17.885-7.994 27.402-.107.778-.626 1.477-1.391 1.869-9.715 4.99-15.039 15.098-13.893 26.057-9.682 6.237-17.591 14.806-23.052 25.059-21.614 40.576-38.769 82.14-51.76 123.541-2.054-1.086-4.194-2.097-6.419-3.021-11.401-4.743-24.664-.258-30.849 10.429-4.939 8.533-7.871 17.091-8.772 25.537-12.178.948-21.924 10.774-22.724 22.992-1.05 16.034 2.741 29.815 10.788 40.166-12.94 7.677-15.416 27.123-2.032 37.31 31.621 24.066 68.107 34.799 118.303 34.799h257.423c50.282 0 86.799-10.743 118.404-34.834 17.126-13.057 7.892-40.403-13.643-40.403zm-255.997-323.794c0 16.623-13.524 30.147-30.147 30.147s-30.147-13.524-30.147-30.147 13.524-30.146 30.147-30.146 30.147 13.523 30.147 30.146zm-76.704-30.321c-4.071-.73-6.789-4.637-6.059-8.708.729-4.067 4.637-6.787 8.706-6.058 6.981 1.252 13.584 3.669 19.538 7.113-4.522 2.913-8.499 6.601-11.724 10.889-3.305-1.488-6.798-2.579-10.461-3.236zm194.348 135.122c4.572-1.731 8.466-4.677 11.404-8.396 11.279 8.192 15.761 16.713 29.961 46.543-14.624 1.791-30.063 3.291-46.127 4.472v-35.304c0-3.297 1.914-6.237 4.762-7.315zm-68.542 18.235c6.99-5.876 18.662-1.181 18.662 8.619v18.179c-7.48.26-15.049.456-22.647.586v-18.83c0-3.307 1.453-6.425 3.985-8.554zm-148.581-8.706c3.79-7.116 9.096-13.189 15.542-17.865 4.098 5.168 10.055 8.731 17.067 9.83 14.093 2.205 28.315 10.658 57.677 4.485 4.727-.995 9.193 2.509 9.193 7.34v32.295c-12.336-.21-24.627-.586-36.634-1.14-12.922-.576-23.602 9.677-23.602 22.531v16.429c0 4.168-3.391 7.56-7.559 7.56s-7.559-3.392-7.559-7.56v-20.8c0-11.622-8.731-21.271-20.311-22.444-6.183-.626-12.271-1.313-18.23-2.043 4.587-9.634 9.387-19.178 14.416-28.618zm-77.177 127.318c2.768 1.151 5.336 2.466 7.728 3.898-2.426 8.348-4.706 16.744-6.834 25.188-5.825-3.319-12.44-5.503-19.702-6.512.821-6.001 3.058-12.191 6.699-18.48 2.429-4.195 7.635-5.954 12.109-4.094zm-41.619 46.088c.317-4.836 4.202-8.722 9.038-9.038 12.044-.79 22.232 1.796 29.751 7.5-2.849 12.439-5.373 24.975-7.577 37.597h-17.344c-9.991-7.481-14.907-20.184-13.868-36.059zm478.821 64.53c-28.819 21.968-62.532 31.764-109.311 31.764h-257.418c-46.698 0-80.382-9.787-109.218-31.734-5.736-4.366-2.699-13.501 4.509-13.501h67.804c4.142 0 7.5-3.357 7.5-7.5s-3.358-7.5-7.5-7.5h-28.742c10.286-57.68 27.495-113.49 51.325-166.554 7.564.97 15.378 1.87 23.328 2.675 3.89.395 6.823 3.627 6.823 7.521v20.8c0 12.439 10.12 22.56 22.559 22.56s22.559-10.12 22.559-22.56v-16.429c0-4.358 3.652-7.761 7.91-7.547 12.234.564 24.759.945 37.326 1.158 0 13.087 10.45 22.788 22.559 22.788 12.13 0 22.559-9.723 22.559-22.783 7.595-.129 15.166-.321 22.647-.578v23.391c0 12.439 10.12 22.56 22.559 22.56s22.559-10.12 22.559-22.56v-25.779c18.46-1.338 36.141-3.089 52.736-5.219 23.832 53.07 41.042 108.881 51.328 166.557h-329.918c-4.142 0-7.5 3.357-7.5 7.5s3.358 7.5 7.5 7.5h368.968c7.184-.002 10.262 9.115 4.549 13.47z"/><path d="m255.971 393.054c20.413-.001 37.456-18.149 37.445-41.032-.014-27.747-25.283-27.729-37.463-27.729-12.156.007-37.449.02-37.436 27.768.011 22.607 16.811 40.994 37.454 40.993zm-.011-53.762h.087c19.274 0 22.364 3.031 22.369 12.737.007 14.344-10.058 26.018-22.436 26.024-12.69.007-22.456-12.023-22.463-26.002-.005-9.72 3.09-12.748 22.443-12.759z"/><path d="m321.656 342.671c4.184.004 7.518-3.377 7.526-7.485v-12c.008-4.143-3.332-7.507-7.474-7.515s-7.518 3.344-7.526 7.485v12c-.008 4.143 3.332 7.511 7.474 7.515z"/><path d="m181.954 341.511c4.186.004 7.507-3.376 7.517-7.483.008-3.614 2.951-6.549 6.562-6.549 3.624 0 6.571 2.953 6.563 6.577-.009 4.143 3.341 7.512 7.483 7.517 4.186.004 7.507-3.376 7.517-7.483.026-11.907-9.655-21.61-21.562-21.61-11.867 0-21.536 9.643-21.562 21.516-.01 4.141 3.34 7.51 7.482 7.515z"/></g></g><g/><g/><g/><g/><g/><g/><g/><g/><g/><g/><g/><g/><g/><g/><g/></svg>