<svg viewBox="0 0 64 64" xmlns="http://www.w3.org/2000/svg"><g id="Pants"><path d="m42 59-8-37h-4l-8 37h-8l1-50v-8h34v8l1 50z" fill="#61bcd1"/><path d="m15 9v-8h6.333l-2.333 14-4.194 3.692z" fill="#4ba3c6"/><path d="m45 15-2.333-14h6.333v7.98l.194 9.712z" fill="#4ba3c6"/><g fill="#54aed1"><path d="m15 1h34v8h-34z"/><path d="m40 59h12v4h-12z"/><path d="m12 59h12v4h-12z"/></g><path d="m38 1h3v11h-3z" fill="#4ba3c6"/><path d="m23 1h3v11h-3z" fill="#4ba3c6"/><g fill="#2c3638"><path d="m52 58h-1.01959l-.98041-49.01953v-7.98047a.99974.99974 0 0 0 -1-1h-34a.99974.99974 0 0 0 -1 1v7.98047l-.98041 49.01953h-1.01959a.99974.99974 0 0 0 -1 1v4a.99974.99974 0 0 0 1 1h12a.99974.99974 0 0 0 1-1v-4a.99974.99974 0 0 0 -1-1h-.76062l7.56775-35h2.38574l7.56775 35h-.76062a.99974.99974 0 0 0 -1 1v4a.99974.99974 0 0 0 1 1h12a.99974.99974 0 0 0 1-1v-4a.99974.99974 0 0 0 -1-1zm-3.8512-41.56024-2.22107-1.95538-.74737-4.48438h2.83964zm-.1488-8.43976h-6v-6h6zm-8-6v9h-1v-9zm-13 0h3v6h-3zm5 0h5v6h-5zm-7 0v9h-1v-9zm-9 0h6v6h-6zm-.02 8h2.83966l-.74737 4.48438-2.22109 1.95538zm7.02 52h-10v-2h10zm11.97754-40.21094a1 1 0 0 0 -.97754-.78906h-4a1 1 0 0 0 -.97754.78906l-7.82959 36.21094h-6.17287l.77692-38.84729 3.8637-3.40173a.99948.99948 0 0 0 .32569-.58692l.86069-5.16406h1.153v2a.99974.99974 0 0 0 1 1h3a.99974.99974 0 0 0 1-1v-2h3v5.27734a1.00043 1.00043 0 0 0 .55273.89454l2 1a1.00012 1.00012 0 0 0 .89454-1.78907l-1.44727-.72363v-4.65918h5v2a.99974.99974 0 0 0 1 1h3a.99974.99974 0 0 0 1-1v-2h1.153l.86065 5.16406a.99948.99948 0 0 0 .32569.58692l3.8637 3.40173.77696 38.84729h-6.17287zm16.02246 40.21094h-10v-2h10z"/><circle cx="34" cy="5" r="1"/></g></g></svg>