<svg id="Capa_1" enable-background="new 0 0 512 512" height="512" viewBox="0 0 512 512" width="512" xmlns="http://www.w3.org/2000/svg"><g clip-rule="evenodd" fill-rule="evenodd"><path d="m135.9 254.6c18-41.1 27-85.6 26.4-130.5-.1-1.7-.1-3-.1-4.1 0-51.7 64.3-91.2 93.7-91.2 38.3 0 93.7 39.5 93.7 91.2 0 1.1 0 2.4-.1 4.1-.6 44.9 8.4 89.4 26.4 130.5 12.8 29.4 22.6 63.2 22.6 86 0 78.8-64 142.7-142.7 142.7s-142.7-64-142.7-142.7c.2-22.8 10-56.6 22.8-86z" fill="#ffb953"/><path d="m290.7 37.5c30.4 14.4 59 45.3 59 82.5 0 1.9-.1 4.9-.2 8.6-1 42 7.5 83.7 24.7 122.1 7.8 17.5 14.8 36.5 19.3 55.1 2.9 11.3 5 23.1 5.1 34.7 0 78.8-64 142.7-142.7 142.7-18.4 0-37-3.7-54-10.6 4.7.5 9.5.7 14.4.7 78.8 0 142.7-64 142.7-142.7 0-23.7-10.7-59.6-24.4-89.9-17.3-38.3-25.7-80-24.7-122.1.1-3.7.2-6.7.2-8.6 0-20.8-7.3-49.2-19.4-72.5z" fill="#f6ac41"/><path d="m256 423.3c48.1-20 90.2-56.3 49-135.9-41.2-79.5-49-156.7-49-156.7s-7.7 77.2-49 156.7c-41.2 79.6.9 116 49 135.9z" fill="#ff9d31"/><path d="m247.3 177.9c7.4 27.4 18.9 61.2 36.7 95.5 41.2 79.5-.9 115.9-49 135.9-6-2.5-11.9-5.2-17.6-8.3 11.1 9.3 24.6 16.5 38.6 22.3 48.1-20 90.2-56.3 49-135.9-41.2-79.5-49-156.7-49-156.7s-1.9 18.7-8.7 47.2z" fill="#f79121"/><path d="m223.5 78.1c8.9 2.4 4.7 22.7-2.4 49s-14.3 48.8-23.2 46.4-12.4-28.7-5.4-55c7.1-26.4 22.1-42.8 31-40.4z" fill="#ffcb7e"/><g fill="#8d4ba0"><ellipse cx="281.8" cy="350.7" rx="6.9" ry="7.4"/><ellipse cx="249.1" cy="277.4" rx="6.9" ry="7.4"/><ellipse cx="262.9" cy="245.6" rx="6.9" ry="7.4"/><ellipse cx="228" cy="325.3" rx="6.9" ry="7.4"/><ellipse cx="250" cy="386.1" rx="6.9" ry="7.4"/><ellipse cx="276.8" cy="311.8" rx="6.9" ry="7.4"/><path d="m128.3 251.2c-13.4 30.6-23.4 65.7-23.4 89.3 0 83.4 67.7 151.1 151.1 151.1s151.1-67.7 151.1-151.1c0-23.6-10-58.7-23.3-89.3-17.5-40-26.2-83.3-25.7-127 0-1.7.1-3.2.1-4.2 0-28.3-14.9-53.4-35.3-71.3-20.3-17.8-45.9-28.3-66.7-28.3-16 0-41.7 10.3-63.2 28.1-21.6 17.9-38.9 43.1-38.9 71.4 0 1.1 0 2.6.1 4.3.3 43.7-8.4 87-25.9 127zm15.3 6.7c18.4-42.2 27.6-87.9 27.1-133.9 0-.1 0-.1 0-.2-.1-1.5-.1-2.8-.1-3.8 0-23.4 14.9-43.8 32.8-58.6 18-14.9 39.2-24.3 52.6-24.3 17.5 0 38.8 9.2 55.8 24.1 16.9 14.8 29.7 35.3 29.7 58.7v3.9.1c-.6 46.1 8.7 91.7 27.1 133.9 12.3 28.3 21.9 60.8 21.9 82.6 0 74.2-60.2 134.4-134.4 134.4s-134.4-60.2-134.4-134.4c-.1-21.7 9.5-54.2 21.9-82.5z"/><path d="m252.8 431c2 .8 4.3.8 6.4 0 31.3-13 59.8-32.9 68.3-65 5.6-21.2 2.7-48.2-15.1-82.4-40.5-78-48.1-153.7-48.1-153.7-.4-4.3-4-7.5-8.3-7.5s-7.9 3.2-8.3 7.5c0 0-7.6 75.7-48.1 153.7-17.8 34.3-20.7 61.2-15.1 82.4 8.5 32.1 37 52 68.3 65zm3.2-16.7c-25.2-10.9-48.5-26.5-55.4-52.5-4.8-18.2-1.5-41.1 13.8-70.5 21.9-42.2 34.5-83.8 41.6-114 7.1 30.1 19.7 71.7 41.6 114 15.2 29.4 18.6 52.3 13.8 70.5-6.9 25.9-30.2 41.6-55.4 52.5z"/></g></g></svg>