<svg id="Layer_1" enable-background="new 0 0 512 512" viewBox="0 0 512 512" xmlns="http://www.w3.org/2000/svg"><g clip-rule="evenodd" fill-rule="evenodd"><path d="m444.548 120.087c-18.537-26.049-33.081-39.978-100.784-8.133-50.253 23.638-145.452 7.104-219.531 42.24-53.577 25.412-119.319 93.846-82.557 209.074 84.831 86.213 176.013 59.924 223.46 24.356 65.603-49.178 95.326-141.117 139.654-174.57 59.721-45.07 54.172-64.429 39.758-92.967z" fill="#f5b955"/><path d="m440.51 114.564c13.956-7.057 24.086-14.785 27.962-23.681 9.135 1.913 13.688 8.386 12.273 17.625-7.836 7.214-19.158 14.051-32.082 20.161-1.238-2.788-2.627-5.636-4.116-8.582-1.359-1.911-2.697-3.755-4.037-5.523z" fill="#46c373"/><path d="m288.406 297.456c1.849 2.051 1.685 5.211-.366 7.061-33.527 30.22-67.322 50.41-100.451 60.009-15.419 4.472-30.882 6.701-46.286 6.701-17.967 0-35.856-3.039-53.53-9.112-2.611-.89-4-3.736-3.104-6.349.898-2.608 3.74-3.999 6.354-3.1 61.82 21.23 125.855 2.533 190.321-55.579 2.05-1.846 5.213-1.687 7.062.369zm162.681-175.509c-.653-1.358-1.334-2.725-2.034-4.116-.113-.225-.243-.44-.39-.646-.219-.309-.441-.613-.66-.922 11.073-6.185 18.647-12.572 22.947-19.357 3.607 1.728 5.308 4.79 5.072 9.154-6.118 5.314-14.484 10.643-24.935 15.887zm-3.359 36.967c3.755-12.333-.898-23.271-7.431-36.237-8.428-11.823-15.942-21.033-28.601-23.459-14.098-2.692-34.995 2.786-65.763 17.259-23.459 11.036-56.245 13.611-90.957 16.342-41.566 3.273-88.677 6.977-128.559 25.888-57.774 27.407-113.308 96.683-80.297 201.899 77.722 78.228 164.894 61.367 216.058 23.019 35.319-26.479 60.547-66.438 82.804-101.696 18.587-29.438 36.143-57.247 56.838-72.867 27.139-20.48 41.725-36.414 45.908-50.148zm21.812-72.923c-2.318-.491-4.662.721-5.61 2.894-2.787 6.396-10.204 12.886-22.036 19.324-17.742-21.74-38.253-29.925-100.216-.782-21.809 10.259-53.712 12.769-87.486 15.424-42.427 3.339-90.514 7.122-132.059 26.825-32.694 15.503-60.912 42.118-77.425 73.017-22.058 41.279-24.667 89.086-7.755 142.095.238.749.649 1.428 1.2 1.99 38.75 39.378 81.925 59.339 128.347 59.339h.997c35.03-.22 71.728-12.792 100.678-34.49 36.793-27.579 62.542-68.372 85.263-104.36 18.086-28.646 35.169-55.706 54.405-70.221 52.453-39.585 56.701-61.409 47.261-85.931 12.318-6.148 22.089-12.502 29.071-18.931.836-.768 1.385-1.798 1.555-2.922 1.819-11.883-4.386-20.803-16.19-23.271z"/></g></svg>