<svg height="512" viewBox="0 0 128 128" width="512" xmlns="http://www.w3.org/2000/svg"><g><circle cx="64" cy="64" fill="#405580" r="57.693"/><circle cx="64" cy="64" fill="#e6f2ff" r="45.329"/><path d="m46.5 37.347h24.75c11.716 0 20.251 7.527 20.251 18.312s-8.535 18.312-20.251 18.312h-11.484v16.682h-13.266zm23.51 24.52c4.578 0 7.837-2.484 7.837-6.208s-3.259-6.207-7.837-6.207h-10.244v12.415z" fill="#9cf"/><g><path d="m64 123.443a59.445 59.445 0 0 1 -46.407-96.592 1.75 1.75 0 1 1 2.73 2.189 55.337 55.337 0 0 0 -12.266 34.96 55.944 55.944 0 0 0 92.67 42.2 1.75 1.75 0 1 1 2.3 2.639 59.41 59.41 0 0 1 -39.027 14.604z"/><path d="m107.77 103.335a1.749 1.749 0 0 1 -1.326-2.89 55.953 55.953 0 0 0 -69.422-85.466 1.75 1.75 0 1 1 -1.689-3.065 59.45 59.45 0 0 1 73.767 90.812 1.746 1.746 0 0 1 -1.33.609z"/><path d="m25.351 22.917a1.75 1.75 0 0 1 -1.174-3.049c.966-.872 1.969-1.72 2.985-2.523a1.75 1.75 0 0 1 2.17 2.746c-.956.756-1.9 1.554-2.81 2.374a1.738 1.738 0 0 1 -1.171.452z"/><path d="m64 111.079a47.079 47.079 0 1 1 47.079-47.079 47.132 47.132 0 0 1 -47.079 47.079zm0-90.658a43.579 43.579 0 1 0 43.579 43.579 43.628 43.628 0 0 0 -43.579-43.579z"/><path d="m59.766 92.4h-13.266a1.75 1.75 0 0 1 -1.75-1.75v-53.303a1.75 1.75 0 0 1 1.75-1.747h24.75c12.749 0 22 8.437 22 20.062s-9.25 20.059-22 20.059h-9.734v14.932a1.751 1.751 0 0 1 -1.75 1.747zm-11.518-3.5h9.768v-14.929a1.749 1.749 0 0 1 1.75-1.75h11.484c10.894 0 18.5-6.811 18.5-16.562s-7.606-16.559-18.5-16.559h-23zm21.76-25.286h-10.242a1.75 1.75 0 0 1 -1.75-1.75v-12.412a1.749 1.749 0 0 1 1.75-1.75h10.242c5.644 0 9.587 3.272 9.587 7.957s-3.943 7.958-9.587 7.958zm-8.492-3.5h8.492c3.029 0 6.087-1.379 6.087-4.458s-3.058-4.456-6.087-4.456h-8.492z"/></g></g></svg>