<svg clip-rule="evenodd" fill-rule="evenodd" stroke-linejoin="round" stroke-miterlimit="2" viewBox="0 0 96 96" xmlns="http://www.w3.org/2000/svg"><g><g><path d="m17.203 20.419s-3.674-4.961-2.752-9.765c1.451-7.566 13.222-12.642 26.902-6.998 13.679 5.645 22.144 25.195 23.048 39.125.905 13.93 19.662 38.968 19.662 38.968s-42.275 11.866-50.054-8.576 5.358-25.797-16.171-32.165c-21.529-6.368-.635-20.589-.635-20.589z" fill="#ff6455"/><path d="m24.541 38.277s23.461-14.349 14.953-24.313c-6.999-8.198-18.314.486-20.037 8.145-1.724 7.658 5.084 16.168 5.084 16.168z" fill="#ebebeb"/><path d="m15.347 49.993s16.339-6.239 10.017-19.166c-6.321-12.928-7.197-1.786-7.197-1.786l-6.072 17.825z" fill="#da9c20"/><path d="m24.762 32.612c6.584-4.639 3.601-12.69-2.637-14.763-2.019-.67-4.285-.677-6.552.37-4.857 2.242-11.833 7.274-11.026 17.327.771 9.596 5.509 14.872 8.915 17.465.615.456 1.437.52 2.115.166.679-.355 1.095-1.066 1.071-1.831-.141-4.945.793-13.575 8.114-18.734z" fill="#f3ae24"/><path d="m88.436 87.595c.657.449 1.519.459 2.185.026.667-.434 1.008-1.226.864-2.008-.787-4.017-2.248-10.078-4.664-16.667-2.177-5.939-5.13-12.307-9.083-17.991-11.685-16.804-21.659-25.343-31.848-21.305-10.188 4.037-12.915 15.289-1.23 32.092 6.216 8.94 12.407 17.041 28.262 19.375 6.231.917 11.92 4.069 15.514 6.478z" fill="#517efc"/></g><g><path d="m43.037 83.728-1.642 6.54c-.184.731-.881 1.211-1.628 1.124-1.488-.221-2.989.227-4.467 1.451-.638.528-.727 1.474-.199 2.112s1.474.727 2.112.199c.711-.589 1.397-.904 2.106-.795.009.001.019.003.029.004 2.267.301 4.399-1.146 4.956-3.364l1.643-6.54c.201-.803-.287-1.618-1.09-1.82s-1.618.286-1.82 1.089z"/><path d="m57.151 85.808-1.174 4.675c-.183.726-.871 1.205-1.614 1.126-1.437-.176-2.879.176-4.312 1.148-.685.465-.864 1.398-.4 2.084.465.685 1.399.864 2.084.399.758-.514 1.507-.748 2.264-.653.005 0 .01.001.016.002 2.239.254 4.322-1.188 4.871-3.374l1.175-4.676c.201-.803-.287-1.618-1.09-1.82s-1.618.286-1.82 1.089z"/><path d="m64.726 84.226c-5.952.422-12.412.264-17.895-1.361-5.183-1.536-9.485-4.391-11.42-9.476-3.312-8.703-2.706-14.6-2.756-18.996-.028-2.542-.288-4.641-1.337-6.506-1.051-1.868-2.9-3.544-6.285-5.114-.751-.349-1.644-.022-1.992.729-.349.751-.022 1.644.729 1.992 2.618 1.214 4.12 2.419 4.933 3.864.815 1.448.93 3.095.952 5.069.052 4.636-.541 10.849 2.952 20.029 2.282 5.995 7.261 9.474 13.371 11.285 5.81 1.722 12.653 1.925 18.96 1.478.826-.059 1.449-.777 1.391-1.602-.059-.826-.777-1.449-1.603-1.391zm-47.544-66.038c-.816-1.654-1.72-4.096-1.258-6.502.501-2.611 2.479-4.834 5.364-6.303 4.714-2.4 11.78-2.772 19.493.41 10.508 4.336 17.723 17.258 20.701 29.095.202.803 1.018 1.291 1.821 1.089s1.29-1.018 1.088-1.821c-3.201-12.727-11.167-26.474-22.466-31.136-8.703-3.591-16.678-3.018-21.998-.31-3.804 1.936-6.289 4.969-6.949 8.411-.595 3.098.462 6.263 1.513 8.394.366.743 1.266 1.048 2.009.682.742-.366 1.048-1.266.682-2.009z"/><path d="m32.706 34.922c3.844-3.219 7.968-7.513 9.491-11.806 1.144-3.221.932-6.455-1.562-9.376-6.363-7.452-15.951-2.879-20.432 3.83-.46.688-.274 1.62.414 2.08s1.621.274 2.08-.414c3.461-5.18 10.743-9.303 15.656-3.548 2.178 2.55 1.718 5.449.196 8.235-1.751 3.207-4.871 6.272-7.769 8.699-.635.532-.719 1.479-.187 2.113.531.635 1.478.719 2.113.187z"/><path d="m31.243 17.405v1.455c0 .828.672 1.5 1.5 1.5s1.5-.672 1.5-1.5v-1.455c0-.828-.672-1.5-1.5-1.5s-1.5.672-1.5 1.5z"/><path d="m17.31 51.509c4.004-1.948 14.463-8.451 9.873-19.546-.316-.765-1.194-1.13-1.959-.813-.765.316-1.129 1.194-.813 1.959 3.734 9.026-5.157 14.118-8.414 15.702-.744.363-1.054 1.261-.692 2.005.362.745 1.26 1.055 2.005.693z"/><path d="m5.154 26.143c-1.529 2.721-2.437 6.099-2.102 10.273.819 10.194 5.883 15.784 9.502 18.538.005.004.01.008.015.012 1.076.798 2.515.911 3.703.29s1.916-1.866 1.876-3.206c-.131-4.599.665-12.661 7.478-17.462 3.119-2.197 4.377-5.067 4.349-7.845-.042-4.113-3.004-8.114-7.377-9.567-2.358-.783-5.005-.792-7.654.431-1.868.862-4.027 2.114-5.987 3.861-.618.551-.672 1.5-.121 2.118s1.5.673 2.117.122c1.717-1.531 3.612-2.622 5.248-3.378 1.887-.87 3.772-.865 5.451-.307 3.112 1.034 5.293 3.824 5.323 6.751.019 1.914-.928 3.848-3.077 5.362-7.83 5.517-8.9 14.714-8.749 20.002v.003c.006.191-.098.368-.267.456-.163.086-.36.073-.511-.03-3.203-2.441-7.607-7.403-8.329-16.391-.279-3.478.453-6.297 1.727-8.564.406-.722.149-1.637-.573-2.042-.722-.406-1.637-.149-2.042.573z"/><path d="m13.707 28.489s-2.094 1.1-3.054 4.461c-.227.796.234 1.627 1.03 1.854.796.228 1.627-.234 1.855-1.03.56-1.959 1.657-2.681 1.657-2.681.719-.41.969-1.327.558-2.046s-1.328-.969-2.046-.558z"/><path d="m87.601 89.591c1.155.783 2.667.798 3.838.037 1.175-.763 1.775-2.159 1.521-3.537-.001-.005-.002-.011-.003-.016-.798-4.073-2.279-10.217-4.728-16.896-2.218-6.052-5.231-12.538-9.259-18.33-5.963-8.576-11.51-15.025-16.845-18.833-5.707-4.073-11.226-5.215-16.787-3.011-10.912 4.324-14.424 16.347-1.909 34.344 6.432 9.25 12.868 17.587 29.275 20.002 5.985.881 11.444 3.925 14.897 6.24zm1.682-2.484c-.003-.003-.007-.005-.011-.008-3.736-2.504-9.656-5.763-16.131-6.717-15.305-2.252-21.249-10.117-27.249-18.746-10.86-15.616-8.918-26.09.551-29.842 4.628-1.834 9.19-.725 13.939 2.664 5.12 3.653 10.403 9.875 16.125 18.103 3.877 5.576 6.77 11.825 8.906 17.651 2.38 6.493 3.82 12.465 4.597 16.428.032.185-.049.371-.206.473-.159.103-.364.101-.521-.006z"/><path d="m44.886 49.456s4.202 5.795 9.699 8.323c.752.346 1.644.016 1.989-.736.346-.752.017-1.644-.736-1.989-4.84-2.227-8.519-7.353-8.519-7.353-.484-.672-1.423-.823-2.094-.339s-.823 1.423-.339 2.094z"/><path d="m61.421 66.51s3.142 4.353 7.548 7.146c3.162 2.004 6.943 3.175 10.716 1.8.778-.283 1.18-1.145.896-1.923-.283-.777-1.145-1.179-1.923-.895-2.855 1.04-5.69.001-8.082-1.516-3.925-2.488-6.722-6.367-6.722-6.367-.485-.672-1.423-.823-2.094-.339-.672.484-.824 1.423-.339 2.094z"/><path d="m57.592 53.015s3.143 4.352 7.549 7.146c3.161 2.004 6.943 3.175 10.716 1.8.778-.283 1.179-1.145.896-1.923-.284-.778-1.145-1.179-1.923-.896-2.856 1.041-5.69.002-8.083-1.515-3.925-2.488-6.722-6.368-6.722-6.368-.484-.671-1.423-.823-2.094-.338-.671.484-.823 1.422-.339 2.094z"/></g></g></svg>