<svg id="Capa_1" enable-background="new 0 0 512.002 512.002" height="512" viewBox="0 0 512.002 512.002" width="512" xmlns="http://www.w3.org/2000/svg"><g><g><path d="m40.791 492.106 16.787-43.523h394.383l11.38 14.595 10.628 30.704c1.799 5.197-2.061 10.617-7.56 10.617h-415.761l-2.297-1.777c-5.499.001-9.358-5.419-7.56-10.616z" fill="#aadaf7"/><path d="m458.288 448.58h-388.29-16l-15.681 45.302c-1.799 5.197 2.061 10.618 7.561 10.618h4.77l10.212-29.511c1.542-4.457 6.609-6.669 10.878-4.665 2.575 1.209 5.016 2.648 7.71 4.236 9.02 5.32 20.25 11.94 41.03 11.94s32-6.62 41.02-11.94c7.94-4.68 13.67-8.06 26.81-8.06 13.13 0 18.87 3.38 26.8 8.06 9.02 5.32 20.25 11.94 41.03 11.94s32.01-6.62 41.03-11.94c7.93-4.68 13.66-8.06 26.8-8.06s18.88 3.38 26.81 8.06c9.02 5.32 20.25 11.94 41.03 11.94s32.01-6.62 41.03-11.94c6.03-3.56 10.8-6.37 18.63-7.51 4.2-.61 8.203-1.931 11.873-3.871z" fill="#8fd1f9"/><path d="m48.898 440.191c3.615 5.69 7.048 9.996 13.723 10.936 3.182.448 8.488 3.938 8.488 3.938 17.157 5.398 23.056 17.434 49.367 17.434 33.914 0 33.914-20 67.829-20 33.916 0 33.916 20 67.832 20 33.917 0 33.917-20 67.834-20 33.919 0 33.919 20 67.837 20 30.128 0 33.495-15.779 57.64-19.306 6.829-.998 12.84-5.042 16.426-10.939l.911-1.498c19.736-32.458 18.709-73.449-2.628-104.878l-17.559-25.865c-22.125-32.59-33.953-71.073-33.953-110.464v-89.328c0-31.987-19.054-60.9-48.448-73.515l-31.294-13.431c-24.252-10.408-50.367-15.775-76.758-15.775-26.391 0-52.506 5.367-76.758 15.776l-31.294 13.431c-5.023 2.156-9.743 4.787-14.119 7.828 0 0-3.555 3.836-5.8 5.805-17.023 14.934-24.979 36.122-24.979 59.553l1.362 90.723c0 39.391-10.545 78.34-32.67 110.93l-17.713 26.091c-21.723 32-26.014 69.908-5.276 102.554z" fill="#fc9aa1"/><path d="m133.975 44.535c-11 13.86-17.326 31.285-17.326 49.725v105.29c0 39.39-11.83 77.87-33.96 110.46l-17.71 26.1c-21.72 31.99-22.36 73.84-1.62 106.49l7.751 12.466c-2.57-.81-5.391-1.466-8.571-1.916-6.68-.94-12.57-4.86-16.18-10.55-20.74-32.65-20.1-74.5 1.62-106.49l17.71-26.1c22.13-32.59 33.96-71.07 33.96-110.46v-89.33c-.001-26.52 13.096-50.935 34.326-65.685z" fill="#fb8189"/><path d="m341.334 92.405-8.574 4.287c-.729.365-1.603-.141-1.627-.956-.625-20.638-18.067-38.341-39.491-38.236h-70.994c-20.486-.091-38.408 16.566-39.46 37.38-.049.978-1.223 1.44-1.915.747-20.159-20.159-54.627-5.882-54.627 22.627v99.746c0 72.625 58.875 131.5 131.5 131.5 72.625 0 131.5-58.874 131.5-131.5v-96.973c-.001-23.788-25.035-39.26-46.312-28.622z" fill="#f0e9e6"/><path d="m256.145 367.638c-11 0-29.129-7.186-29.129-7.186-11.366-7.952-19.595-20.628-23.277-35.926 0 0-7.62-33.465-11.006-60.907 0 0 .037-15.185.037-21.121h126.681c0 6.01.15 21.06.15 21.06-3.363 27.67-11.051 60.967-11.051 60.967-3.601 15.114-11.854 27.83-23.262 35.842 0 .002-18.156 7.271-29.143 7.271z" fill="#ffd15b"/><path d="m321.007 242.494c0 6.01-.594 13.31-1.544 21.06-14.22 15.88-23.813 35.57-27.443 56.74l-6.732 40.075c-8.25 5.8-18.298 9.125-29.278 9.125-11 0-20.892-3.287-29.132-9.047l-6.878-40.153c-3.63-21.14-13.204-40.809-27.404-56.679-.97-7.84-1.586-15.181-1.586-21.121z" fill="#f7c359"/><path d="m321.145 242.5c-22.62 19.389-37.755 46.071-42.789 75.435l-13.341 77.82c-1.71 9.972-16.032 9.972-17.741 0l-13.341-77.82c-3.64-21.234-12.562-41.066-25.777-57.751-2.253-7.311-15.594-18.194-15.594-18.194 0-63.513 29.083-123.734 63.583-123.734 2.882 0 8.515.429 8.515.429 31.58 8.812 56.485 65.459 56.485 123.815z" fill="#ffe177"/><path d="m264.66 118.684c-30.86 8.63-56.502 63.076-56.502 121.316l-.01 20.19c-5.05-6.39-10.743-12.32-17.003-17.69 0-31.76 7.623-63 19.563-86.32 11.94-23.31 28.19-38.68 45.44-38.68 2.88 0 5.722.394 8.512 1.184z" fill="#ffd15b"/></g><g><path d="m467.476 452.197c19.361-23.121 25.166-58.65 17.6-88.005-1.037-4.01-5.128-6.421-9.139-5.384s-6.421 5.128-5.385 9.138c6.145 23.198 1.976 49.839-11.088 70.414-2.456 4.04-6.503 6.742-11.102 7.414-12.011 1.754-19.681 6.277-26.447 10.267-8.154 4.808-15.196 8.96-30.109 8.96-14.912 0-21.954-4.152-30.108-8.96-8.775-5.174-18.723-11.04-37.729-11.04-19.005 0-28.951 5.865-37.727 11.04-8.153 4.808-15.195 8.96-30.107 8.96-14.911 0-21.953-4.152-30.106-8.96-8.775-5.174-18.721-11.04-37.726-11.04-19.004 0-28.95 5.865-37.725 11.04-8.153 4.808-15.194 8.96-30.104 8.96-14.911 0-21.953-4.152-30.106-8.96-6.833-4.03-14.58-8.598-26.789-10.316-4.436-.625-8.407-3.229-10.896-7.147-19.147-30.144-18.56-68.712 1.499-98.258l17.713-26.091c23.06-33.967 35.248-73.621 35.248-114.676v-89.328c0-25.685 13.773-49.676 35.944-62.611 3.578-2.087 4.786-6.68 2.698-10.258s-6.681-4.785-10.258-2.698c-26.76 15.613-43.384 44.569-43.384 75.567v89.328c0 38.039-11.293 74.779-32.658 106.251l-17.713 26.091c-24.308 35.806-24.801 86.161 2.975 120.491l-17.191 49.663c-1.355 3.914.72 8.186 4.634 9.541.812.281 1.64.415 2.454.415 3.107 0 6.013-1.947 7.087-5.049l16.297-47.079c8.144 1.063 18.271 4.619 24.722 9.087 8.775 5.174 18.721 11.04 37.726 11.04 19.004 0 28.949-5.865 37.724-11.04 8.153-4.808 15.194-8.96 30.105-8.96s21.953 4.152 30.106 8.96c8.775 5.175 18.721 11.04 37.726 11.04 19.004 0 28.951-5.865 37.726-11.04 8.153-4.808 15.195-8.96 30.107-8.96 14.913 0 21.955 4.152 30.109 8.96 8.775 5.175 18.722 11.04 37.728 11.04s28.952-5.865 37.729-11.04c6.31-4.149 14.845-7.628 24.709-9.134l16.314 47.126c1.073 3.103 3.979 5.049 7.087 5.049.813 0 1.642-.133 2.453-.415 3.914-1.355 5.989-5.626 4.635-9.541z"/><path d="m174.171 33.676 8.175-3.508c23.45-10.065 48.279-15.168 73.799-15.168s50.35 5.103 73.799 15.168l31.294 13.431c26.673 11.447 43.907 37.599 43.907 66.624v89.328c0 41.056 12.188 80.71 35.248 114.676l16.637 24.507c1.45 2.137 3.81 3.289 6.212 3.289 1.45 0 2.916-.42 4.206-1.296 3.427-2.326 4.318-6.991 1.992-10.417l-16.637-24.507c-21.365-31.47-32.658-68.211-32.658-106.25v-89.328c0-35.03-20.801-66.592-52.991-80.408l-31.294-13.433c-25.329-10.872-52.149-16.384-79.715-16.384-27.565 0-54.386 5.512-79.715 16.384l-8.175 3.508c-3.806 1.633-5.568 6.043-3.934 9.85 1.633 3.806 6.043 5.566 9.85 3.934z"/><path d="m117.145 126.726v91.274c0 22.168 5.066 43.358 15.057 62.983 1.879 3.691 6.396 5.16 10.086 3.281 3.691-1.879 5.16-6.395 3.281-10.086-8.907-17.496-13.424-36.397-13.424-56.177v-91.274c0-10.788 5.721-20.188 15.303-25.144 9.581-4.957 20.559-4.195 29.364 2.039 2.302 1.63 5.323 1.831 7.821.519 2.497-1.312 4.047-3.913 4.012-6.733-.108-8.625 3.17-16.753 9.231-22.89s14.147-9.518 22.772-9.518h70.994c8.625 0 16.712 3.379 22.772 9.516s9.34 14.266 9.232 22.891c-.035 2.82 1.515 5.422 4.012 6.733 2.498 1.311 5.519 1.111 7.821-.519 8.804-6.234 19.781-6.997 29.363-2.04s15.303 14.356 15.303 25.145v91.274c0 45.472-25.293 87.211-64.422 108.747.709-2.914 12.768-55.437 12.922-84.247 0-23.375-3.812-46.952-11.021-68.183-1.332-3.922-5.591-6.021-9.514-4.69-3.922 1.332-6.021 5.591-4.689 9.513 6.345 18.681 9.852 39.352 10.196 59.995-22.435 20.276-37.535 47.675-42.653 77.532l-13.341 77.819c-.074.436-.213 1.247-1.478 1.247s-1.404-.811-1.479-1.246l-13.34-77.82c-5.119-29.858-20.217-57.255-42.651-77.53 1.048-58.116 29-114.138 57.47-114.138 11.329 0 23.138 8.63 33.254 24.299 2.246 3.481 6.889 4.479 10.368 2.234 3.48-2.247 4.48-6.889 2.233-10.369-13.16-20.387-29.017-31.163-45.855-31.163-19.483 0-37.991 15.188-52.113 42.764-12.956 25.3-20.387 58.007-20.387 89.736.113 27.653 12.149 81.088 12.924 84.257-12.081-6.642-23.082-15.299-32.375-25.562-2.78-3.07-7.522-3.305-10.594-.526-3.071 2.78-3.306 7.523-.526 10.594 14.276 15.768 32.154 28.156 51.828 35.969 7.367 12.307 18.099 21.503 30.939 26.216l4.041 23.575c1.384 8.073 8.071 13.712 16.262 13.712 8.191 0 14.878-5.639 16.263-13.712l4.048-23.612c12.863-4.745 23.593-13.926 30.946-26.193 25.153-9.977 46.691-26.915 62.387-49.16 16.589-23.507 25.356-51.19 25.356-80.057v-91.274c0-16.258-8.971-30.998-23.411-38.467-10.851-5.613-23.263-6.333-34.396-2.36-1.979-8.209-6.157-15.752-12.252-21.923-8.899-9.014-20.777-13.977-33.444-13.977h-70.994c-12.667 0-24.544 4.963-33.445 13.976-6.095 6.171-10.273 13.714-12.252 21.923-11.13-3.971-23.546-3.251-34.395 2.36-14.44 7.47-23.41 22.209-23.41 38.467zm93.907 196.136c-.097-.427-7.671-33.882-10.936-60.629 13.605 16.237 22.814 35.908 26.425 56.969l6.174 36.014c-10.467-6.755-18.252-18.18-21.663-32.354zm68.531 32.305 6.166-35.965c3.613-21.081 12.838-40.77 26.467-57.017-3.24 26.964-10.872 60.222-10.961 60.604-3.379 14.181-11.164 25.599-21.672 32.378z"/><path d="m212.187 106.5c2.14 0 4.266-.911 5.75-2.679l10.908-13c2.663-3.173 2.249-7.904-.924-10.566-3.173-2.663-7.904-2.25-10.566.924l-10.908 13c-2.663 3.173-2.249 7.904.924 10.566 1.404 1.179 3.115 1.755 4.816 1.755z"/><path d="m301.103 106.5c1.701 0 3.412-.576 4.817-1.755 3.173-2.663 3.587-7.393.924-10.566l-10.909-13c-2.662-3.172-7.393-3.587-10.566-.924s-3.587 7.393-.924 10.566l10.909 13c1.484 1.768 3.609 2.679 5.749 2.679z"/><path d="m164.068 181.5c4.142 0 7.5-3.358 7.5-7.5v-20c0-4.142-3.358-7.5-7.5-7.5s-7.5 3.358-7.5 7.5v20c0 4.142 3.358 7.5 7.5 7.5z"/><path d="m355.568 174v-20c0-4.142-3.357-7.5-7.5-7.5s-7.5 3.358-7.5 7.5v20c0 4.142 3.357 7.5 7.5 7.5s7.5-3.358 7.5-7.5z"/></g></g></svg>