<svg id="Layer_2" enable-background="new 0 0 64 64" viewBox="0 0 64 64" xmlns="http://www.w3.org/2000/svg"><g><path d="m54.99 21.05c-.76-4.28-5.27-3.6-9.8-.45-1.82 1.25-3.65 2.9-5.24 4.79 0 0-2.97-2.36-4.93-5.26-.75-1.1-1.35-2.28-1.6-3.43 0 0 .57-6.3 10.98-9.38 1.03-.31 2.14-.11 3.01.52 2.77 2.04 8.62 7.13 7.58 13.21z" fill="#fd6489"/><path d="m54.99 21.05c.99 5.57-32.61 32.03-37.46 35.82-.33.25-.79.2-1.06-.11l-8.7-10.18c-.27-.32-.24-.79.06-1.07l27.19-25.38c1.96 2.9 4.93 5.26 4.93 5.26 1.59-1.89 3.42-3.54 5.24-4.79 4.53-3.15 9.04-3.83 9.8.45z" fill="#ffc68d"/><path d="m39.95 25.39s4.57 4.09 10.23-2.62l-3.27-3.26z" fill="#fd6489"/><path d="m10.22 49.44-8.23 7.01 4.29 5.04 8.24-7.02z" fill="#ffeba8"/><path d="m17.06 58.03c-.5 0-1-.21-1.35-.62l-8.7-10.18c-.62-.72-.56-1.8.14-2.45l26.57-24.81c-.59-.99-1.06-2.02-1.28-3.06-.02-.1-.03-.2-.02-.3.03-.29.75-7.01 11.69-10.25 1.32-.39 2.77-.14 3.88.68 2.76 2.02 9.03 7.42 8 14.04.38 6.03-26.28 27.53-37.86 36.58-.31.25-.69.37-1.07.37zm-8.39-11.94 8.42 9.85c21.89-17.11 37.4-31.68 36.92-34.7 0-.01 0-.02-.01-.04-.21-1.16-.74-1.83-1.6-2.07-2.64-.71-7.89 2.38-11.69 6.9-.35.41-.96.47-1.39.14-.15-.12-2.52-2.02-4.46-4.54zm27.25-26.39c1.27 1.83 2.97 3.45 3.92 4.29 3.83-4.23 9.34-7.79 13.08-6.78.29.08.61.2.92.37-1.07-4.12-5.06-7.48-7.03-8.92-.61-.45-1.4-.59-2.13-.37-8.82 2.61-10.09 7.48-10.25 8.38.23.93.71 1.88 1.31 2.79.08.06.14.15.18.24z"/><path d="m43.51 27.62c-2.53 0-4.16-1.42-4.23-1.49-.41-.37-.45-1-.08-1.41s.99-.45 1.41-.08c.06.05 1.32 1.11 3.27.97 1.64-.13 3.29-1.06 4.92-2.79l-2.6-2.59c-.39-.39-.39-1.02 0-1.41s1.02-.39 1.41 0l3.27 3.26c.37.37.39.96.06 1.35-2.21 2.61-4.55 4.02-6.96 4.19-.15 0-.31 0-.47 0z"/><path d="m6.28 62.49c-.03 0-.05 0-.08 0-.26-.02-.51-.15-.68-.35l-4.29-5.04c-.17-.2-.26-.46-.24-.73.02-.26.15-.51.35-.68l8.23-7.01c.42-.36 1.05-.31 1.41.11l4.3 5.03c.17.2.26.46.24.73-.02.26-.15.51-.35.68l-8.24 7.02c-.18.16-.41.24-.65.24zm-2.88-5.93 3 3.52 6.72-5.72-3-3.51z"/><path d="m6.3 57.51c-.29 0-.57-.12-.77-.36l-1.82-2.17c-.36-.42-.3-1.05.12-1.41.42-.35 1.05-.3 1.41.12l1.82 2.17c.36.42.3 1.05-.12 1.41-.19.16-.42.24-.64.24z"/><path d="m9.8 54.45c-.28 0-.56-.12-.75-.34l-1.83-2.1c-.36-.42-.32-1.05.1-1.41s1.05-.32 1.41.1l1.82 2.1c.36.42.32 1.05-.1 1.41-.19.16-.42.24-.65.24z"/><path d="m13.45 48.05c-.21 0-.41-.08-.56-.25-.28-.31-.25-.78.06-1.06l23.02-20.66c.31-.28.78-.25 1.06.06s.25.78-.06 1.06l-23.02 20.66c-.14.13-.32.19-.5.19z"/><path d="m16.57 51.34c-.21 0-.41-.08-.56-.25-.28-.31-.25-.78.06-1.06l23.02-20.66c.31-.27.78-.25 1.06.06s.25.78-.06 1.06l-23.02 20.66c-.14.13-.32.19-.5.19z"/><path d="m37.95 17.55c-.22 0-.38-.1-.44-.14-.1-.07-.57-.46-.12-1.14s1-.4 1.1-.34.6.42.2 1.13c-.02.03-.04.06-.06.09-.23.31-.47.4-.68.4zm-.56-1.23.15.08z"/><path d="m40.67 14.85c-.14 0-.28-.04-.41-.12-.35-.23-.44-.69-.22-1.04 2.09-3.17 8.94-4.85 9.23-4.92.4-.09.81.15.9.55.1.4-.15.81-.55.9-1.82.44-6.86 2.06-8.32 4.28-.14.23-.38.35-.63.35z"/><path d="m40.8 19.95c-.2 0-.4-.08-.55-.24-.28-.3-.26-.78.04-1.06 8.01-7.45 12.89-5.79 13.09-5.71.39.14.59.57.45.96s-.56.59-.95.45c-.08-.03-4.34-1.31-11.56 5.4-.16.13-.34.2-.52.2z"/><path d="m22.44 12.97c-.34 0-.67-.17-.86-.48-.29-.47-.14-1.09.34-1.37 3.73-2.26 6.16.04 6.26.14.4.39.4 1.02.02 1.41s-1.01.4-1.41.02c-.16-.14-1.51-1.28-3.83.13-.17.1-.35.15-.52.15z"/><path d="m31.06 9.75c-.08 0-.16-.01-.24-.03-.53-.13-.86-.67-.73-1.2.01-.04.11-.57-.22-1.06-.32-.47-1-.81-1.95-.97-.55-.08-.92-.6-.83-1.14s.6-.92 1.15-.82c1.56.26 2.67.89 3.31 1.86.8 1.21.51 2.47.48 2.6-.11.46-.52.76-.97.76z"/><path d="m55.12 10.5c-.2 0-.4-.06-.58-.19-.45-.32-.55-.94-.23-1.39.39-.55 2.46-3.28 4.64-2.71.53.14.86.68.72 1.22-.14.53-.69.86-1.22.72-.54-.14-1.77.91-2.51 1.93-.21.27-.51.42-.82.42z"/><path d="m62.01 17.57c-.2 0-.4-.06-.58-.18-1.38-.98-2.73-.73-2.79-.72-.54.1-1.07-.24-1.18-.78s.23-1.06.76-1.18c.09-.02 2.24-.46 4.36 1.04.45.32.56.94.24 1.39-.19.28-.5.43-.81.43z"/><path d="m55.24 38.07c-.55 0-1-.45-1-1 0-2.16-2.11-2.73-2.35-2.79-.53-.13-.87-.66-.74-1.2.12-.54.65-.87 1.19-.75 1.35.31 3.9 1.69 3.9 4.74 0 .55-.45 1-1 1z"/><path d="m48.57 42c-.55 0-1-.45-1-1v-4.59c0-.55.45-1 1-1s1 .45 1 1v4.59c0 .55-.45 1-1 1z"/><path d="m60.22 30.93h-4.98c-.55 0-1-.45-1-1s.45-1 1-1h4.98c.55 0 1 .45 1 1 0 .56-.44 1-1 1z"/><path d="m35.44 8.18c-.51 0-.94-.38-.99-.9-.16-1.6.32-4.87 3.31-5.73.53-.15 1.09.15 1.24.68s-.15 1.09-.68 1.24c-2.13.61-1.89 3.49-1.87 3.61.05.55-.35 1.04-.9 1.09-.05 0-.08.01-.11.01z"/><path d="m51.71 7.09c-.28 0-.55-.12-.75-.34-.36-.41-.32-1.04.09-1.41.27-.25 1.1-1.15.28-2.23-.33-.44-.25-1.07.19-1.4.44-.34 1.07-.25 1.4.19 1.6 2.11.35 4.15-.54 4.93-.2.18-.44.26-.67.26z"/></g></svg>