<svg enable-background="new 0 0 32 32" viewBox="0 0 32 32" xmlns="http://www.w3.org/2000/svg"><g id="Grid" display="none"/><g id="bow_tie"/><g id="balloon_1_"/><g id="placeholder"/><g id="mic"/><g id="speaker"/><g id="champagne"/><g id="gift"/><g id="theater"/><g id="_camera"/><g id="video_camera"/><g id="party_hat"><path d="m16 28.988c4.056 0 7.364-1.508 9.597-2.892.376-.233.562-.676.442-1.102-.854-3.029-2.129-6.815-4.011-10.68-1.839-3.776-3.714-6.511-5.268-8.437-.391-.485-1.13-.485-1.522 0-1.554 1.926-3.429 4.661-5.268 8.437-1.882 3.865-3.157 7.651-4.011 10.68-.12.426.066.869.442 1.102 2.235 1.383 5.543 2.892 9.599 2.892z" fill="#72d98b"/><path d="m25.6 26.1c-1.28.79-2.91 1.62-4.82 2.19.24-.21.38-.53.34-.86-.3-3.24-.89-7.34-2.09-11.63-.24-.84-.48-1.64-.73-2.4 1.04-.13 2.02-.35 2.94-.64.26.49.53 1.01.79 1.55 1.88 3.87 3.16 7.66 4.01 10.68.12.43-.07.87-.44 1.11z" fill="#5fc174"/><path d="m21.24 12.76c-1.58.5-3.36.78-5.24.78s-3.66-.28-5.24-.78c1.58-2.98 3.15-5.23 4.48-6.88.39-.49 1.13-.49 1.52 0 1.33 1.65 2.9 3.9 4.48 6.88z" fill="#ffd731"/><path d="m21.24 12.76c-.92.29-1.9.51-2.94.64-1-3.02-2.09-5.38-3.06-7.18-.04-.07-.08-.13-.13-.18.04-.05.09-.11.13-.16.39-.49 1.13-.49 1.52 0 .17.21.34.42.51.65.57.74 1.17 1.58 1.8 2.54.791 1.186 1.507 2.43 2.17 3.69z" fill="#ffc933"/><path d="m28.441 26.821c0 .902-.613 1.706-1.492 1.912-3.64.856-7.301 1.267-10.949 1.267s-7.309-.411-10.949-1.266c-.878-.206-1.492-1.01-1.492-1.912 0-1.235 1.133-2.177 2.341-1.916 3.36.725 6.735 1.075 10.1 1.075s6.74-.349 10.1-1.075c1.208-.261 2.341.68 2.341 1.915z" fill="#e96565"/><path d="m28.44 26.82c0 .9-.61 1.71-1.49 1.91-1.31.31-2.63.56-3.94.75.61-.42.99-1.14.99-1.92 0-.91-.5-1.68-1.22-2.07 1.11-.15 2.22-.34 3.32-.58 1.21-.27 2.34.68 2.34 1.91z" fill="#e05353"/><path d="m17.257 2.781c.135.274.396.463.698.507 1.15.167 1.609 1.58.777 2.391-.219.213-.318.52-.267.821.196 1.145-1.005 2.018-2.034 1.478-.27-.142-.593-.142-.863 0-1.028.541-2.23-.333-2.034-1.478.052-.301-.048-.608-.267-.821-.832-.811-.373-2.224.777-2.391.302-.044.563-.234.698-.507.515-1.041 2.001-1.041 2.515 0z" fill="#e96565"/><path d="m18.73 5.68c-.18.17-.28.4-.28.65 0 .05.01.11.02.17.01.08.02.16.02.24 0 1.02-1.1 1.74-2.06 1.24-.07-.04-.15-.07-.24-.08.857-1.183.954-2.058.872-2.65-.076-.553-.333-1.051-.667-2.563-.06-.277-.106-.506-.135-.657.174.029.42.108.645.294.143.118.265.27.355.456.13.27.39.46.69.51.75.11 1.2.74 1.2 1.4 0 .35-.13.71-.42.99z" fill="#e05353"/><path d="m9.864 19.159c.052.021.106.03.159.03.168 0 .328-.101.395-.267.499-1.241 1.037-2.457 1.6-3.613.103-.211.015-.465-.196-.568-.213-.102-.466-.014-.568.196-.571 1.174-1.118 2.408-1.624 3.668-.089.219.016.466.234.554z" fill="#b0f4bc"/><path d="m9.2 20.93c.05.01.1.02.15.02.17 0 .33-.11.4-.28l.04-.12c.08-.22-.04-.44-.26-.52-.22-.09-.47.05-.55.27l-.03.08c-.08.22.03.47.25.55z" fill="#b0f4bc"/><path d="m27.976 24.96c-.473-.381-1.062-.55-1.655-.502-1.066-3.701-2.377-7.18-3.909-10.334-1.137-2.327-2.41-4.49-3.78-6.446.225-.369.329-.804.253-1.25-.028-.163.026-.329.144-.444.502-.488.679-1.206.462-1.872-.216-.667-.781-1.143-1.475-1.244-.164-.024-.305-.127-.378-.275-.31-.628-.938-1.018-1.638-1.018s-1.328.39-1.638 1.018c-.073.148-.215.251-.378.275-.693.101-1.258.577-1.475 1.244-.216.666-.04 1.383.462 1.872.119.116.173.282.145.445-.076.446.028.881.253 1.25-1.37 1.955-2.643 4.119-3.78 6.447-1.532 3.154-2.842 6.632-3.909 10.333-.593-.048-1.183.121-1.655.502-.565.456-.89 1.135-.89 1.861 0 1.101.765 2.078 1.819 2.326 3.608.848 7.325 1.277 11.047 1.277s7.439-.43 11.047-1.277c1.054-.248 1.819-1.226 1.819-2.326-.001-.727-.325-1.406-.891-1.862zm-13.994-16.674c.289.174.606.279.932.279.29 0 .582-.07.852-.211.146-.077.321-.077.468 0 .573.302 1.24.264 1.786-.065.911 1.311 1.777 2.715 2.588 4.203-2.918.812-6.297.812-9.214 0 .81-1.489 1.676-2.895 2.588-4.206zm-.665-3.912c.118-.362.413-.61.789-.665.44-.064.821-.34 1.018-.74.168-.341.496-.544.876-.544s.708.203.876.544c.197.399.578.676 1.018.74.376.055.671.303.789.665.117.362.025.736-.248 1.001-.319.311-.464.758-.389 1.197.064.375-.081.732-.389.955-.308.224-.692.252-1.028.074-.395-.207-.864-.207-1.259 0-.336.177-.72.149-1.028-.075-.308-.223-.453-.581-.389-.955.075-.439-.07-.886-.389-1.197-.272-.264-.364-.638-.247-1zm-2.965 10.123c.205-.419.42-.827.633-1.235 1.578.46 3.26.703 5.015.703s3.436-.243 5.015-.703c.213.408.428.815.633 1.234 1.497 3.081 2.778 6.48 3.825 10.096-6.211 1.264-12.735 1.264-18.945 0 1.046-3.616 2.328-7.015 3.824-10.095zm16.501 13.822c-7.089 1.666-14.616 1.666-21.705 0-.674-.158-1.164-.788-1.164-1.498 0-.469.209-.905.574-1.2.271-.219.602-.334.939-.334.104 0 .209.011.313.033 6.666 1.439 13.714 1.439 20.38 0 .438-.097.897.015 1.252.301.364.295.574.731.574 1.2 0 .71-.489 1.34-1.163 1.498z"/></g><g id="champagne_glass"/><g id="man"/><g id="woman"/><g id="skewer"/><g id="ticket"/><g id="cake"/><g id="lights"/><g id="photo"/><g id="invitation"/></svg>