<svg id="Passport" enable-background="new 0 0 64 64" viewBox="0 0 64 64" xmlns="http://www.w3.org/2000/svg"><g><g><path d="m47.72252 61.58375-35.63361-6.97988c-2.53306-.49617-4.18428-2.95185-3.6881-5.4849l8.70757-44.45382c.49617-2.53306 2.95185-4.18428 5.48491-3.6881l35.63361 6.97988c2.53305.49617 4.18428 2.95185 3.6881 5.4849l-8.70757 44.45381c-.49618 2.53306-2.95185 4.18429-5.48491 3.68811z" fill="#ffe691"/><path d="m48.62372 62.56076c-.35417 0-.71181-.03472-1.07119-.1059l-35.6347-6.97919c-3.00956-.58854-4.97832-3.51738-4.38978-6.52607l8.7075-44.45505c.28559-1.45834 1.1224-2.71789 2.35505-3.54689 1.23351-.82986 2.71703-1.12674 4.17363-.84289l35.6321 6.98006c1.45834.28559 2.71876 1.12153 3.54863 2.35418.82986 1.23351 1.12848 2.71529.84202 4.17363l-8.70837 44.45331c-.5191 2.65105-2.85071 4.49307-5.45489 4.49481zm-26.93761-60.78324c-.74393 0-1.47136.22049-2.10331.64497-.83854.56424-1.40799 1.42188-1.60244 2.41407l-8.7075 44.45331c-.40104 2.04862.93924 4.03995 2.98699 4.44273l35.63296 6.97919c1.00174.19271 2.00175-.01042 2.84029-.57465.83855-.5625 1.40799-1.42015 1.60244-2.41147l8.70837-44.45505c.19444-.99219-.01042-2.00001-.57466-2.83942-.56424-.83855-1.42188-1.40712-2.4132-1.60157l-35.63383-6.98006c-.24479-.04775-.49132-.07205-.73611-.07205z" fill="#101016"/></g><g><path d="m47.64949 13.14794v45.29793c0 2.57781-2.07998 4.65779-4.67558 4.65779h-36.30235c-2.57781 0-4.67558-2.07998-4.67558-4.65779v-45.29793c0-1.93783 1.17329-3.59116 2.84441-4.30221.5689-.24892 1.19109-.37337 1.83117-.37337h36.30235c2.5956-.00001 4.67558 2.07997 4.67558 4.67558z" fill="#79b6ef"/><path d="m10.09052 8.46932v54.63841h-3.4169c-2.58443 0-4.67743-2.08502-4.67743-4.66951v-45.29945c0-2.58443 2.093-4.66945 4.67743-4.66945z" fill="#5679bc"/><path d="m39.21377 54.20982h-20.6813c-1.30163 0-2.35682-1.05518-2.35682-2.35682v-.00001c0-1.30163 1.05518-2.35682 2.35682-2.35682h20.6813c1.30163 0 2.35682 1.05518 2.35682 2.35682v.00001c-.00001 1.30163-1.05519 2.35682-2.35682 2.35682z" fill="#fff"/><path d="m47.64949 57.14812v1.29775c0 2.57781-2.07998 4.65779-4.67558 4.65779h-36.30235c-2.57781 0-4.67558-2.07998-4.67558-4.65779v-45.29793c0-1.93783 1.17329-3.59116 2.84441-4.30221-1.15549 35.76903 23.94682 48.80011 42.8091 48.30239z" opacity=".1"/><g fill="#101016"><path d="m42.98134 64h-36.31092c-3.06685 0-5.56252-2.4948-5.56252-5.56252v-45.29794c0-3.06685 2.49567-5.56252 5.56252-5.56252h36.31092c3.06772 0 5.56252 2.49567 5.56252 5.56252v45.29794c0 3.06772-2.4948 5.56252-5.56252 5.56252zm-36.31092-54.64519c-2.08681 0-3.78474 1.69792-3.78474 3.78474v45.29794c0 2.08681 1.69792 3.78474 3.78474 3.78474h36.31092c2.08681 0 3.78474-1.69792 3.78474-3.78474v-45.29795c0-2.08681-1.69792-3.78474-3.78474-3.78474h-36.31092z"/><path d="m10.09057 63.99653h-3.41668c-3.06946 0-5.56686-2.49307-5.56686-5.55905v-45.2988c0-3.06512 2.49741-5.55818 5.56686-5.55818h3.41668c.49132 0 .88889.39757.88889.88889v54.63825c.00001.49132-.39756.88889-.88889.88889zm-3.41668-54.63825c-2.08942 0-3.78908 1.69619-3.78908 3.7804v45.2988c0 2.08508 1.69966 3.78127 3.78908 3.78127h2.52779v-52.86047z"/><g><path d="m28.87277 40.98254c-6.75524 0-12.25179-5.49655-12.25179-12.25179 0-6.75611 5.49655-12.25266 12.25179-12.25266 6.75611 0 12.25266 5.49655 12.25266 12.25266 0 6.75524-5.49655 12.25179-12.25266 12.25179zm0-22.72666c-5.7752 0-10.474 4.6988-10.474 10.47487s4.6988 10.474 10.474 10.474 10.47487-4.69794 10.47487-10.474-4.69967-10.47487-10.47487-10.47487z"/><path d="m28.87277 40.98254c-3.50175 0-5.39065-6.31253-5.39065-12.25179 0-5.94013 1.8889-12.25266 5.39065-12.25266 3.50262 0 5.39152 6.31253 5.39152 12.25266 0 5.93927-1.8889 12.25179-5.39152 12.25179zm0-22.72666c-1.50869 0-3.61286 3.98526-3.61286 10.47487s2.10418 10.474 3.61286 10.474c1.50869 0 3.61373-3.98439 3.61373-10.474s-2.10504-10.47487-3.61373-10.47487z"/><path d="m40.23653 29.61965h-22.72665c-.49132 0-.88889-.39757-.88889-.88889s.39757-.88889.88889-.88889h22.72666c.49132 0 .88889.39757.88889.88889s-.39757.88889-.8889.88889z"/></g><path d="m39.21396 55.09892h-20.68151c-1.78994 0-3.24567-1.4566-3.24567-3.24654s1.45574-3.2448 3.24567-3.2448h20.68151c1.78994 0 3.24481 1.45487 3.24481 3.2448 0 1.78994-1.45487 3.24654-3.24481 3.24654zm-20.68151-4.71356c-.80903 0-1.46789.65799-1.46789 1.46702s.65886 1.46876 1.46789 1.46876h20.68151c.80903 0 1.46702-.65973 1.46702-1.46876s-.65799-1.46702-1.46702-1.46702z"/></g></g></g></svg>