<svg height="512" viewBox="0 0 128 128" width="512" xmlns="http://www.w3.org/2000/svg"><g><g><path d="m104.436 88.26h-31.209a20.915 20.915 0 0 0 -1-6.385 20.539 20.539 0 0 0 -4.127-7.257 20.727 20.727 0 0 1 36.336 13.642z" fill="#fc852d"/><path d="m96.851 88.26h-23.624a20.915 20.915 0 0 0 -1-6.385 13.138 13.138 0 0 1 24.624 6.385z" fill="#fecd1a"/><path d="m58.24 88.26h-11.481a5.741 5.741 0 1 1 11.481 0z" fill="#fc852d"/><path d="m65.652 88.26h-7.412a5.741 5.741 0 1 0 -11.481 0h-7.4a13.141 13.141 0 0 1 24.631-6.385 12.99 12.99 0 0 1 1.662 6.385z" fill="#fecd1a"/><path d="m88.279 108.976h-48.558a20.721 20.721 0 0 1 -20.721-20.721h90a20.721 20.721 0 0 1 -20.721 20.721z" fill="#9d0191"/><path d="m103.555 24.18-47.2.719a10.5 10.5 0 0 0 -9.412-5.861v21.009a10.5 10.5 0 0 0 9.412-5.86l47.2.719a5.364 5.364 0 1 0 0-10.726z" fill="#fd3a69"/><path d="m32.9 17.68v23.73a3.515 3.515 0 0 1 -7.03 0v-23.73a3.515 3.515 0 1 1 7.03 0z" fill="#fc852d"/><path d="m39.92 17.68v23.73a3.51 3.51 0 0 1 -7.02 0v-23.73a3.51 3.51 0 1 1 7.02 0z" fill="#fecd1a"/><path d="m46.95 17.68v23.73a3.515 3.515 0 0 1 -7.03 0v-23.73a3.515 3.515 0 1 1 7.03 0z" fill="#fc852d"/><path d="m39.92 41.41v30.38a20.706 20.706 0 0 0 -7.02 9.72v-40.1a3.51 3.51 0 0 0 7.02 0z" fill="#fecd1a"/><path d="m46.95 41.41v26.88a20.441 20.441 0 0 0 -7.03 3.5v-30.38a3.515 3.515 0 0 0 7.03 0z" fill="#fc852d"/><path d="m19 19.038h6.871v7.003h-6.871z" fill="#fd3a69"/><path d="m19 26.041h6.871v7.003h-6.871z" fill="#fd3a69"/><path d="m19 33.044h6.871v7.003h-6.871z" fill="#fd3a69"/><g fill="#fc852d"><path d="m32.9 41.41v17.72a18.732 18.732 0 0 1 -10.53 16.83l-4.08-6.44a13.386 13.386 0 0 0 7.58-12.05v-16.06a3.515 3.515 0 0 0 7.03 0z"/><path d="m89.449 88.26h-11.481a5.741 5.741 0 0 1 11.481 0z"/><path d="m73.23 88.26h-7.58a13.148 13.148 0 0 0 -18.7-11.92 13.129 13.129 0 0 0 -7.59 11.92h-7.59a20.712 20.712 0 0 1 8.15-16.47 20.745 20.745 0 0 1 12.58-4.26 20.8 20.8 0 0 1 19.73 14.34 21.1 21.1 0 0 1 1 6.39z"/></g></g><g fill="#212f68"><path d="m109 86.505h-2.883a22.4 22.4 0 0 0 -1.043-5.244c-.163-.5-.344-.988-.539-1.468a1.75 1.75 0 1 0 -3.242 1.32c.166.407.317.821.455 1.239a18.806 18.806 0 0 1 .849 4.153h-4.108a14.877 14.877 0 0 0 -25.85-8.194 22.062 22.062 0 0 0 -2.213-3.574 18.936 18.936 0 0 1 26.176-.4 1.75 1.75 0 1 0 2.379-2.566 22.459 22.459 0 0 0 -30.881.329 22.3 22.3 0 0 0 -19.4-5.981v-24.455a12.149 12.149 0 0 0 8.679-5.712l46.149.7h.113a7.114 7.114 0 0 0 0-14.227h-.113l-15.416.235a1.75 1.75 0 0 0 .026 3.5h.027l15.416-.235a3.391 3.391 0 0 1 2.591 1.038 3.614 3.614 0 0 1 -2.533 6.188h-.058l-47.2-.719a1.738 1.738 0 0 0 -1.6.975 8.71 8.71 0 0 1 -6.081 4.715v-17.159a8.705 8.705 0 0 1 6.087 4.712 1.726 1.726 0 0 0 1.6.974l10.8-.165a1.75 1.75 0 0 0 -.026-3.5h-.027l-9.75.15a12.152 12.152 0 0 0 -8.7-5.718 5.227 5.227 0 0 0 -8.753-3.633 5.173 5.173 0 0 0 -7.02 0 5.223 5.223 0 0 0 -8.741 3.505h-5.17a1.749 1.749 0 0 0 -1.75 1.75v21.009a1.749 1.749 0 0 0 1.75 1.753h5.12v15.67a11.567 11.567 0 0 1 -6.593 10.474 1.752 1.752 0 0 0 -.716 2.512l4.081 6.444a1.749 1.749 0 0 0 2.248.634 20.539 20.539 0 0 0 8.01-6.948v10.674a22.392 22.392 0 0 0 -1.058 5.245h-11.092a1.749 1.749 0 0 0 -1.75 1.75 22.5 22.5 0 0 0 22.471 22.472h48.558a22.5 22.5 0 0 0 22.471-22.472 1.749 1.749 0 0 0 -1.75-1.75zm-28.875 0a3.99 3.99 0 0 1 7.167 0zm3.584-9.638a11.412 11.412 0 0 1 11.258 9.638h-3.984a7.481 7.481 0 0 0 -14.549 0h-1.523a23.1 23.1 0 0 0 -.787-4.348 11.36 11.36 0 0 1 9.585-5.29zm-40.279-60.957a1.792 1.792 0 0 1 1.252.516 1.764 1.764 0 0 1 .518 1.254v1.309c0 .017-.005.033-.005.049v21.009c0 .017.005.032.005.048v26.929a22.043 22.043 0 0 0 -3.53 1.563v-50.907a1.767 1.767 0 0 1 1.76-1.77zm-22.68 11.881h3.37v3.5h-3.37zm0-7h3.37v3.5h-3.37zm0 17.509v-3.5h3.37v3.5zm12.15 17.222a1.751 1.751 0 0 0 -1.75 1.75v1.858a16.866 16.866 0 0 1 -8.178 14.51l-2.219-3.5a15.016 15.016 0 0 0 6.867-12.67v-39.79a1.765 1.765 0 0 1 3-1.264 1.8 1.8 0 0 1 .528 1.264v28.28a1.75 1.75 0 0 0 3.5 0v-28.28a1.76 1.76 0 1 1 3.52 0v53.286a22.443 22.443 0 0 0 -3.52 3.649v-17.343a1.75 1.75 0 0 0 -1.748-1.75zm1.656 26.556a18.88 18.88 0 0 1 6.429-8.9 19 19 0 0 1 11.515-3.898 18.966 18.966 0 0 1 14.286 6.5 18.616 18.616 0 0 1 3.758 6.574c.005.019.014.037.02.056a19.707 19.707 0 0 1 .835 4.1h-4.099a14.9 14.9 0 0 0 -21.087-11.75 1.75 1.75 0 0 0 1.482 3.17 11.366 11.366 0 0 1 16.058 8.58h-3.979a7.478 7.478 0 0 0 -14.549 0h-3.977a11.331 11.331 0 0 1 .348-1.552 1.75 1.75 0 1 0 -3.352-1.006 14.919 14.919 0 0 0 -.53 2.558h-4.114a18.857 18.857 0 0 1 .956-4.432zm14.359 4.427a3.986 3.986 0 0 1 7.17 0zm39.364 20.722h-48.558a19 19 0 0 1 -18.891-17.222h10.891c.016 0 .032.005.048.005h7.591c.017 0 .032-.005.049-.005h7.3c.017 0 .032.005.049.005h11.482c.017 0 .032-.005.049-.005h7.311c.016 0 .032.005.048.005h31.2c.016 0 .032-.005.048-.005h7.487c.016 0 .032.005.048.005s.033-.005.049-.005h2.686a19 19 0 0 1 -18.887 17.222z"/><path d="m77.967 26.319h.027l.918-.013a1.752 1.752 0 0 0 1.724-1.777 1.781 1.781 0 0 0 -1.777-1.723l-.918.013a1.75 1.75 0 0 0 .026 3.5z"/></g></g></svg>