<svg height="512" viewBox="0 0 128 128" width="512" xmlns="http://www.w3.org/2000/svg"><g><path d="m80.057 121.693s12.614 0 16.965-9.328l-.052.007a33.487 33.487 0 0 0 24.723-32.315 41.636 41.636 0 1 0 -41.636 41.636z" fill="#e6a537"/><path d="m47.942 6.307s-12.613 0-16.964 9.328l.051-.007a33.488 33.488 0 0 0 -24.722 32.315 41.636 41.636 0 1 0 41.635-41.636z" fill="#fdca74"/><g><path d="m113.951 59.022a1.75 1.75 0 0 0 2.973-1.848 43.574 43.574 0 0 0 -2.686-3.84 1.75 1.75 0 0 0 -2.756 2.158 39.767 39.767 0 0 1 2.469 3.53z"/><path d="m123.443 80.058a43.292 43.292 0 0 0 -2.392-14.244 1.75 1.75 0 1 0 -3.307 1.148 39.82 39.82 0 0 1 2.2 13.1 31.72 31.72 0 0 1 -61.809 10.05 43.14 43.14 0 0 0 11.908-4.851 18.908 18.908 0 0 0 37.089-5.2 27.165 27.165 0 0 0 -16.419-24.88 43 43 0 0 0 .155-13.519 39.976 39.976 0 0 1 14.464 7.538 1.75 1.75 0 1 0 2.219-2.706 43.445 43.445 0 0 0 -17.416-8.625 43.454 43.454 0 0 0 -42.193-33.312c-.547 0-13.146.117-18.185 9.619a35.285 35.285 0 0 0 -25.2 33.766 43.419 43.419 0 0 0 5.5 21.16 1.75 1.75 0 0 0 3.054-1.709 39.919 39.919 0 0 1 -5.054-19.451 31.73 31.73 0 0 1 63.459 0 23.574 23.574 0 1 1 -47.147 0 15.417 15.417 0 0 1 30.834 0 7.261 7.261 0 1 1 -14.521 0 1.75 1.75 0 1 0 -3.5 0 10.761 10.761 0 1 0 21.521 0 18.917 18.917 0 0 0 -37.834 0 27.074 27.074 0 1 0 54.147 0 35.189 35.189 0 0 0 -40.14-34.879c4.847-4.911 12.972-5.005 13.066-5.006a39.886 39.886 0 1 1 -29.825 66.368 1.75 1.75 0 1 0 -2.617 2.325 43.444 43.444 0 0 0 22.357 13.372 43.565 43.565 0 0 0 42.2 33.321c.547 0 13.146-.117 18.185-9.619a35.285 35.285 0 0 0 25.201-33.766zm-40.423-6.627a7.267 7.267 0 0 1 4.3 6.627 1.75 1.75 0 0 0 3.5 0 10.771 10.771 0 0 0 -5.83-9.558 43.122 43.122 0 0 0 4.994-11.825 23.663 23.663 0 0 1 13.649 21.383 15.412 15.412 0 0 1 -30.5 3.172 43.722 43.722 0 0 0 9.887-9.799zm-2.962 46.512a40.063 40.063 0 0 1 -38.4-29.085 42.833 42.833 0 0 0 12.995-.052 35.184 35.184 0 0 0 38.467 24.131c-4.843 4.911-12.968 5.005-13.062 5.006z"/></g></g></svg>