<svg id="Layer_1" enable-background="new 0 0 128 128" height="512" viewBox="0 0 128 128" width="512" xmlns="http://www.w3.org/2000/svg"><g><path d="m19.1 102.4 4.6-9.7 19.6-41.1c3-6.4 9.8-10 16.8-9l6.7 1c1.8.3 3.6 0 5.3-.6.2.7.6 1.4 1.1 2l9.9 9.9c.5.5 1.2.9 2 1.1-.6 1.6-.8 3.4-.5 5.1l1 7.2c1 7-2.6 13.8-9 16.8l-41.1 19.6-9.7 4.6" fill="#fd3a69"/><path d="m101.2 38.7 4.1-2.9-13.3-13.3-2.9 4.1-7.8-7.8-2.7 16.2c-.1.8-.4 1.7-.7 2.5.7.2 1.3.5 1.8 1l9.9 9.9c.5.4.8 1 1 1.6.8-.4 1.7-.7 2.7-.8l15.8-2.6z" fill="#fd3a69"/><g fill="#fecd1a"><path d="m35.6 104.6-9.7 4.6-6.8-6.8 4.6-9.7z"/><path d="m89.6 54.2-.7.7c-1.6 1.6-4.2 1.6-5.8 0l-9.9-9.9c-1.6-1.6-1.6-4.2 0-5.8l.7-.7c1-1 2.6-1.4 4-1 .7.2 1.3.5 1.8 1l9.9 9.9c.5.4.8 1 1 1.6.5 1.5.1 3.1-1 4.2z"/></g></g><path d="m31.3 76.6c-.9-.4-1.2-1.5-.8-2.3l.7-1.5c.4-.9 1.5-1.2 2.3-.8.9.4 1.2 1.5.8 2.3l-.7 1.5c-.4.8-1.5 1.2-2.3.8zm-2.1 8.5-3.5 7.3 10.1 10.1 40-19.1c5.7-2.7 8.9-8.8 8-15-.7-6.1-1.6-8.1-.9-11.5-.4-.2-.8-.5-1.1-.9l-.8-.8-2.2 6.1c-.3.9-1.3 1.4-2.2 1s-1.4-1.3-1-2.2l2.8-7.6c-.1-.1-2.7-2.7-2.5-2.5l-7.6 2.8c-.9.3-1.9-.2-2.2-1.1s.1-1.9 1-2.2l6.1-2.2-1.1-1.1c-.3-.3-.6-.7-.8-1.1-3.6.9-5.7-.1-11.3-.8-6.2-.9-12.3 2.3-15 8l-6.2 13c-.4.9-1.5 1.2-2.3.8s-1.2-1.5-.8-2.3l6.2-13c3.3-7.1 10.9-11.1 18.6-10 5.9.7 7.4 1.4 10 .8.1-1.4.7-2.8 1.7-3.8l.7-.7c1.1-1.1 2.5-1.7 4-1.7.3-1 0 .1 2.9-17 .2-1.4 2-1.9 3-.9l6.4 6.4 1.7-2.4c.6-.9 1.9-1 2.7-.2l13.3 13.3c.8.8.7 2-.2 2.7l-2.4 1.7 6.4 6.4c1 1 .4 2.7-.9 3-16.7 2.8-15.8 2.6-16.8 2.9 0 1.6-.6 3.1-1.7 4.3l-.7.7c-1 1-2.3 1.6-3.7 1.7-.5 2.4.1 3.6.9 10.2 1.2 7.7-2.9 15.3-10 18.6-5.5 2.6-44.6 21.3-50.8 24.2-.7.3-1.5.1-2-.3l-6.8-6.8c-.5-.5-.6-1.3-.3-2 7.8-16.4 8.6-18 8.6-18.1.4-.9 1.4-1.3 2.3-.9.4.2.8 1.2.4 2.2 0-.1 0 0 0 0zm50.8-48.6c.3.2.6.4.9.7l1.4 1.4 2.9-5.7c.5-.9 1.5-1.2 2.4-.7.8.4 1.2 1.5.7 2.3l-3.4 6.7 2.1 2.1 6.7-3.4c.9-.4 1.9-.1 2.4.8.4.9.1 1.9-.8 2.4l-5.7 2.9 1.2 1.2c.2.2.4.4.6.7 1.4-.4 1.4-.3 14-2.4l-5.5-5.5c-.8-.8-.7-2 .2-2.7l2.4-1.7-10.3-10.4-1.7 2.4c-.6.9-1.9 1-2.7.2l-5.4-5.4c-2.2 13.1-2.1 12.9-2.4 14.1zm4.3 17.1c.9.9 2.4.9 3.3 0l.7-.7c.9-.9.9-2.4 0-3.3l-9.9-9.9c-.9-.9-2.4-.9-3.3 0l-.7.7c-.9.9-.9 2.4 0 3.3zm-60.2 42.1-3 6.3 5.1 5.1 6.3-3z" fill="#212f68"/></svg>