<svg id="Layer_1" viewBox="0 0 1000 1000" xmlns="http://www.w3.org/2000/svg" data-name="Layer 1"><path d="m682.14 548.26c-16 49.52-47.94 82-48.24 82.27-.13.13-.26.26-.38.4-33.69 36-108.8 81.65-223.23 135.78-53.4 25.29-106.84 48.29-151.23 66.75l-92.5-92.46c18.46-44.37 41.52-97.79 66.78-151.16 54.15-114.37 99.86-189.44 135.84-223.11l.38-.36c.32-.32 32.79-32.22 82.33-48.25 46.43-15 91.93-11.65 135.87 9.95q-11.35 1.92-24 5.36a366.93 366.93 0 0 0 -54.76 19.94 16 16 0 1 0 13.72 28.91 335.8 335.8 0 0 1 49.43-18c18.91-5.15 35.13-7.37 47.74-6.63l-57.41 57.38a16 16 0 0 0 22.62 22.64l57.43-57.41c.73 12.51-1.44 28.58-6.52 47.31a338 338 0 0 1 -18.01 49.85 16 16 0 1 0 28.91 13.73 366.31 366.31 0 0 0 19.94-54.71q3.44-12.62 5.37-24c21.58 43.94 24.94 89.42 9.92 135.82z" fill="#ffcc80"/><path d="m227 846.67c-19.35 7.88-35.92 14.5-48.61 19.58-18.5 7.4-24.48 9.8-27 11.14-20.58 10.71-30.82 5.5-32.9 4.16-1.34-2.07-6.55-12.31 4.17-32.87 1.33-2.56 3.74-8.53 11.14-27 5.07-12.69 11.7-29.26 19.59-48.61z" fill="#bdbdbd"/><path d="m830.77 355.84-132.41 37.63a284.75 284.75 0 0 0 -36.06-53.16 1.74 1.74 0 0 0 -.18-.22.05.05 0 0 0 0 0l-.12-.09-.11-.13-.07-.07-.11-.12a.6.6 0 0 0 -.11-.12.5.5 0 0 0 -.1-.11 1.26 1.26 0 0 0 -.2-.2.12.12 0 0 0 -.07-.07.49.49 0 0 0 -.12-.13.86.86 0 0 0 -.14-.13.38.38 0 0 0 -.09-.09.86.86 0 0 0 -.14-.13l-.26-.25-.07-.05a.23.23 0 0 0 -.07-.07l-.07-.06-.5-.41h-.06a285.65 285.65 0 0 0 -52.4-35.55l37.5-132.54c.87 13.4 5 27.73 18.48 41.26 20.92 21 43.77 19.36 62.12 18.07 17.49-1.24 27.09-1.41 37.22 8.74s9.94 20.3 8.74 37.37c-1.29 18.38-2.89 41.26 18 62.22 13.54 13.47 27.94 17.57 41.4 18.41z" fill="#ffb74d"/><g fill="#fff" opacity=".5"><path d="m672.14 558.26c-16 49.52-47.94 82-48.24 82.27-.13.13-.26.26-.38.4-33.69 36-108.8 81.65-223.23 135.78-53.4 25.29-106.84 48.29-151.23 66.75l-92.5-92.46c18.46-44.37 41.52-97.79 66.78-151.16 54.15-114.37 99.86-189.44 135.84-223.11l.38-.36c.32-.32 32.79-32.22 82.33-48.25 46.43-15 91.93-11.65 135.87 9.95q-11.35 1.92-24 5.36a366.93 366.93 0 0 0 -54.76 19.94 16 16 0 1 0 13.72 28.91 335.8 335.8 0 0 1 49.43-18c18.91-5.15 35.13-7.37 47.74-6.63l-57.41 57.38a16 16 0 0 0 22.62 22.64l57.43-57.41c.73 12.51-1.44 28.58-6.52 47.31a338 338 0 0 1 -18.01 49.85 16 16 0 1 0 28.91 13.73 366.31 366.31 0 0 0 19.94-54.71q3.44-12.62 5.37-24c21.58 43.94 24.94 89.42 9.92 135.82z"/><path d="m217 856.67c-19.35 7.88-35.92 14.5-48.61 19.58-18.5 7.4-24.48 9.8-27 11.14-20.58 10.71-30.82 5.5-32.9 4.16-1.34-2.07-6.55-12.31 4.17-32.87 1.33-2.56 3.74-8.53 11.14-27 5.07-12.69 11.7-29.26 19.59-48.61z"/><path d="m820.77 365.84-132.41 37.63a284.75 284.75 0 0 0 -36.06-53.16 1.74 1.74 0 0 0 -.18-.22.05.05 0 0 0 0 0l-.12-.09-.11-.13-.07-.07-.11-.12a.6.6 0 0 0 -.11-.12.5.5 0 0 0 -.1-.11 1.26 1.26 0 0 0 -.2-.2.12.12 0 0 0 -.07-.07.49.49 0 0 0 -.12-.13.86.86 0 0 0 -.14-.13.38.38 0 0 0 -.09-.09.86.86 0 0 0 -.14-.13l-.26-.25-.07-.05a.23.23 0 0 0 -.07-.07l-.07-.06-.5-.41h-.06a285.65 285.65 0 0 0 -52.4-35.55l37.5-132.54c.87 13.4 5 27.73 18.48 41.26 20.92 21 43.77 19.36 62.12 18.07 17.49-1.24 27.09-1.41 37.22 8.74s9.94 20.3 8.74 37.37c-1.29 18.38-2.89 41.26 18 62.22 13.54 13.47 27.94 17.57 41.4 18.41z"/></g><g fill="#413b32"><path d="m665.87 350.38v.9s0 .31 0 .47 0 .54-.09.81-.05.37-.09.56-.08.45-.13.67a15.39 15.39 0 0 1 -1.3 3.7 3.65 3.65 0 0 1 -.18.34 13.83 13.83 0 0 1 -1 1.6c-.17.25-.34.49-.53.72l-.41.51-.07.09c-.2.22-.39.44-.59.65s-.42.43-.64.63a7.7 7.7 0 0 1 -.6.54 11.16 11.16 0 0 1 -1 .75q-.57.42-1.17.78a13.85 13.85 0 0 1 -1.62.84 4.77 4.77 0 0 1 -.52.22 3.38 3.38 0 0 1 -.44.18.85.85 0 0 1 -.24.09 4.72 4.72 0 0 1 -.53.18l-.68.2c-.28.08-.55.14-.83.2l-.84.16a15.87 15.87 0 0 1 -1.69.18 3.23 3.23 0 0 1 -.44 0 14 14 0 0 1 -1.45 0h-.05c-.32 0-.65-.06-1-.1l-.68-.1-.67-.13c-.45-.1-.9-.22-1.34-.36l-.66-.22-.59-.22c-.37-.15-.74-.32-1.11-.5a3.65 3.65 0 0 1 -.34-.18 12.48 12.48 0 0 1 -1.22-.71 16.39 16.39 0 0 1 -1.67-1.24l-1.79-1.59q-5.85-4.89-11.76-9.33a240.42 240.42 0 0 0 -38.15-23.63c-43.94-21.6-89.44-25-135.87-9.95-49.54 16-82 47.93-82.33 48.25l-.38.36c-36 33.67-81.69 108.74-135.84 223.12-25.26 53.4-48.34 106.82-66.78 151.18-4.72 11.32-9.13 22-13.21 32-7.89 19.35-14.52 35.92-19.59 48.61-7.4 18.5-9.81 24.47-11.14 27-10.72 20.56-5.51 30.8-4.17 32.87l.1.15.08.12-.09-.11a.87.87 0 0 1 -.09-.11l-.09-.08-.09-.09-23.09 22.23c-9-9.33-19.26-34.49-1-69.62 1-2 5.09-12.31 9.84-24.2 37.74-94.33 152.54-381.28 243.11-466.25 3.43-3.38 38.84-37.36 93.61-55.42 35.29-11.65 83.23-17.92 136.89 1.14a231.25 231.25 0 0 1 29.6 12.92 285.65 285.65 0 0 1 52.4 35.55h.06l.5.41s0 0 0 0a.69.69 0 0 1 .13.11l.33.3a.86.86 0 0 1 .14.13.38.38 0 0 1 .09.09 3.19 3.19 0 0 1 .26.26.12.12 0 0 1 .07.07 1.89 1.89 0 0 1 .2.2.5.5 0 0 1 .1.11.6.6 0 0 1 .11.12l.11.12.1.12.15.17a.05.05 0 0 1 0 0 1.74 1.74 0 0 1 .18.22l.31.39a8 8 0 0 1 .48.66l.08.12a1.37 1.37 0 0 1 .13.2 14.66 14.66 0 0 1 1.21 2.24c.13.29.24.57.35.87s.2.55.29.83l.06.23a5.62 5.62 0 0 1 .15.55 3.43 3.43 0 0 1 .11.46 1.94 1.94 0 0 1 .07.33c0 .17.08.35.11.52s.05.32.07.48c.06.41.1.82.12 1.25s.17.79.17 1.11z"/><path d="m712.17 559.4c-18.08 54.75-52.08 90.15-55.46 93.57-85 90.53-372.07 205.27-466.44 243-11.91 4.75-22.2 8.87-24.22 9.84-14.27 7.41-26.9 10.12-37.49 10.12-15.48 0-26.6-5.78-32.14-11.1l22.15-23.08-.07-.06-.09-.08-.13-.11-.11-.09.12.08.16.1c2.08 1.34 12.32 6.55 32.9-4.16 2.56-1.34 8.54-3.74 27-11.14 12.69-5.08 29.26-11.7 48.61-19.58 10-4.08 20.73-8.5 32.06-13.21 44.43-18.5 97.87-41.5 151.27-66.79 114.43-54.13 189.54-99.81 223.23-135.78.12-.14.25-.27.38-.4.3-.3 32.21-32.75 48.24-82.27 15-46.4 11.66-91.88-10-135.8a240.07 240.07 0 0 0 -23.64-38.13l-6 6-57.36 57.37a16 16 0 0 1 -22.62-22.64l57.41-57.38 6-6 12.45-12.44c.12-.12.23-.24.36-.35l.5-.47c.21-.19.42-.37.65-.54a11 11 0 0 1 .94-.71c.38-.26.76-.5 1.16-.73s.65-.35 1-.51a13.49 13.49 0 0 1 1.68-.69c.38-.14.77-.25 1.15-.35l.57-.14c.19 0 .39-.09.58-.12l.57-.1c.4-.06.79-.1 1.19-.13a14 14 0 0 1 1.83 0h.27.08l.74.07h.25l.69.11c.36.06.72.13 1.08.22s.62.16.92.25l.57.19.26.09c.26.09.51.19.76.3a4.52 4.52 0 0 1 .5.23 5 5 0 0 1 .52.25.2.2 0 0 1 .09.05l.71.38.12.08.25.14.33.22.19.13h.07l.09.07.64.46h.06l.5.41.07.06a.23.23 0 0 1 .07.07l.07.05.26.25a.86.86 0 0 1 .14.13.38.38 0 0 1 .09.09.86.86 0 0 1 .14.13.49.49 0 0 1 .12.13.12.12 0 0 1 .07.07 1.89 1.89 0 0 1 .2.2.5.5 0 0 1 .1.11.6.6 0 0 1 .11.12l.11.12.1.12.08.08.07.09a.05.05 0 0 1 0 0 1.74 1.74 0 0 1 .18.22 284.75 284.75 0 0 1 36.06 53.16 231.56 231.56 0 0 1 12.85 29.62c18.91 53.64 12.64 101.36 1.03 136.53z"/><path d="m672.18 412.45q-1.93 11.37-5.37 24a366.31 366.31 0 0 1 -19.94 54.71 16 16 0 0 1 -28.87-13.74 338 338 0 0 0 18.09-49.82c5.08-18.73 7.25-34.8 6.52-47.31-.43-7.39-1.88-13.54-4.35-18.26-.17-.34-.35-.67-.55-1q-.46-.82-1-1.59a16 16 0 0 1 1.68-20.18c.12-.12.23-.24.36-.35l.5-.47c.21-.19.42-.37.65-.54a11 11 0 0 1 .94-.71c.38-.26.76-.5 1.16-.73s.65-.35 1-.51a13.49 13.49 0 0 1 1.68-.69c.38-.14.77-.25 1.15-.35l.57-.14c.19 0 .39-.09.58-.12l.57-.1c.4-.06.79-.1 1.19-.13a14.72 14.72 0 0 1 2.1 0h.08l.74.07h.25l.69.11c.36.06.72.13 1.08.22s.62.16.92.25l.57.19.26.09c.26.09.51.19.76.3a4.52 4.52 0 0 1 .5.23 5 5 0 0 1 .52.25.2.2 0 0 1 .09.05l.71.38.12.08c.2.11.39.23.58.36l.19.13h.07l.09.07.64.46h.06l.5.41s0 0 0 0h.06a.23.23 0 0 1 .07.07l.07.05.26.25a.86.86 0 0 1 .14.13.38.38 0 0 1 .09.09.86.86 0 0 1 .14.13.49.49 0 0 1 .12.13.12.12 0 0 1 .07.07 1.26 1.26 0 0 1 .2.2.5.5 0 0 1 .1.11.6.6 0 0 1 .11.12l.11.12.07.07v.05l.15.17a.05.05 0 0 1 0 0 1.74 1.74 0 0 1 .18.22l.31.39a8 8 0 0 1 .48.66l.08.12a1.37 1.37 0 0 1 .13.2c11.22 16.72 14.18 40.46 8.98 71.03z"/><path d="m665.87 350.38v.9s0 .31 0 .47 0 .54-.09.81-.05.37-.09.56-.08.45-.13.67a15.39 15.39 0 0 1 -1.3 3.7 3.65 3.65 0 0 1 -.18.34 13.83 13.83 0 0 1 -1 1.6c-.17.25-.34.49-.53.72l-.41.51-.07.09c-.2.22-.39.44-.59.65s-.42.43-.64.63a7.7 7.7 0 0 1 -.6.54 11.16 11.16 0 0 1 -1 .75q-.57.42-1.17.78a13.85 13.85 0 0 1 -1.62.84 4.77 4.77 0 0 1 -.52.22 3.38 3.38 0 0 1 -.44.18.85.85 0 0 1 -.24.09 4.72 4.72 0 0 1 -.53.18l-.68.2c-.28.08-.55.14-.83.2l-.84.16a12 12 0 0 1 -1.69.18 3.23 3.23 0 0 1 -.44 0 10 10 0 0 1 -1.45 0h-.05c-.32 0-.65-.06-1-.1l-.68-.1-.67-.13c-.45-.1-.9-.22-1.34-.36l-.66-.22-.59-.22c-.37-.15-.74-.32-1.11-.5a3.65 3.65 0 0 1 -.34-.18 12.48 12.48 0 0 1 -1.22-.71l-.38-.25a24.24 24.24 0 0 0 -2.59-1.54c-4.73-2.47-10.88-3.92-18.29-4.35-12.61-.74-28.83 1.48-47.74 6.63a335.8 335.8 0 0 0 -49.43 18 16 16 0 0 1 -13.7-28.95 366.93 366.93 0 0 1 54.74-19.94q12.62-3.44 24-5.36c30.44-5.18 54.12-2.27 70.57 8.72l.33.22.19.13h.07l.09.07.64.46h.06l.5.41s0 0 0 0h.06a.23.23 0 0 1 .07.07l.07.05.26.25a.86.86 0 0 1 .14.13.38.38 0 0 1 .09.09.86.86 0 0 1 .14.13.49.49 0 0 1 .12.13.12.12 0 0 1 .07.07 1.26 1.26 0 0 1 .2.2.5.5 0 0 1 .1.11.6.6 0 0 1 .11.12l.11.12.07.07.11.13.07.09a.05.05 0 0 1 0 0 1.74 1.74 0 0 1 .18.22l.31.39a8 8 0 0 1 .48.66l.08.12a1.37 1.37 0 0 1 .13.2 14.66 14.66 0 0 1 1.21 2.24c.13.29.24.57.35.87s.2.55.29.83l.06.23a5.62 5.62 0 0 1 .15.55 3.43 3.43 0 0 1 .11.46 1.94 1.94 0 0 1 .07.33c0 .17.08.35.11.52s.05.32.07.48c.06.41.1.82.12 1.25s.17.87.17 1.19z"/><path d="m266.6 863.62a16 16 0 0 1 -22.63 0l-17-17-73.62-73.62-17-17a16 16 0 1 1 22.65-22.55l7.56 7.56 92.5 92.45 7.54 7.54a16 16 0 0 1 0 22.62z"/><path d="m663.21 104.37-18.46 65.25-37.5 132.54-3.53 12.47a16 16 0 0 1 -30.79-8.71l4.72-16.68 54.61-193a.07.07 0 0 1 0 0l.15-.52a16 16 0 0 1 14.08-11.6h.65a15.8 15.8 0 0 1 5 .6c.44.12.87.27 1.29.42a16.7 16.7 0 0 1 3 1.48l.54.36.52.38c.18.13.35.27.51.41a13.59 13.59 0 0 1 1.14 1l.27.28a16 16 0 0 1 3.8 15.32z"/><path d="m916 352.8v.76a11.49 11.49 0 0 1 -.1 1.18l-.09.64c0 .21-.07.42-.12.63s-.08.42-.14.63c-.1.41-.22.82-.36 1.22-.06.21-.14.41-.21.6l-.24.6a16.07 16.07 0 0 1 -1.18 2.25 15.43 15.43 0 0 1 -1.46 2q-.37.44-.78.84a15.83 15.83 0 0 1 -4.41 3.12 6.65 6.65 0 0 1 -.61.27 6.25 6.25 0 0 1 -.6.24 12.59 12.59 0 0 1 -1.31.44l-193.16 54.9-16.61 4.72a16.24 16.24 0 0 1 -4.38.61 16 16 0 0 1 -4.39-31.45l12.51-3.56 132.41-37.63 64.86-18.44a16 16 0 0 1 15.37 3.83l.31.3a15.93 15.93 0 0 1 2.15 2.67l.34.56a19.61 19.61 0 0 1 .62 1.17 14.59 14.59 0 0 1 .75 1.87c.07.21.14.43.2.65a10.38 10.38 0 0 1 .27 1.1l.09.43v.26l.06.41a16 16 0 0 1 .21 2.18z"/><path d="m916 352.8v.76a11.49 11.49 0 0 1 -.1 1.18l-.09.64c0 .21-.07.42-.12.63s-.08.42-.14.63a10.63 10.63 0 0 1 -.36 1.22c-.06.21-.14.41-.21.6l-.24.6a13.42 13.42 0 0 1 -1.18 2.25 13.74 13.74 0 0 1 -1.46 2q-.37.44-.78.84a15.83 15.83 0 0 1 -4.41 3.12 6.65 6.65 0 0 1 -.61.27 5.36 5.36 0 0 1 -.6.24 12.59 12.59 0 0 1 -1.31.44 16 16 0 0 1 -15.7-4.09c-10.13-10.16-19.73-10-37.22-8.75a155.22 155.22 0 0 1 -20.68.49c-13.46-.85-27.86-4.94-41.45-18.56-20.9-21-19.3-43.84-18-62.22 1.2-17.07 1.38-27.22-8.74-37.37s-19.73-10-37.22-8.74c-18.35 1.29-41.2 2.9-62.12-18.07-13.5-13.53-17.61-27.86-18.48-41.26a152.71 152.71 0 0 1 .47-21c1.2-17.07 1.38-27.22-8.74-37.37a16 16 0 0 1 -4.22-15.07.07.07 0 0 1 0 0 15.91 15.91 0 0 1 11.81-11.76h.14c.34-.08.69-.16 1-.21s.82-.12 1.23-.15h.65 1.37c.26 0 .53 0 .79.06a5 5 0 0 1 .54.06c.32 0 .64.09.95.15l.32.07a14.85 14.85 0 0 1 2.34.67 14.37 14.37 0 0 1 3 1.48l.54.36.52.38c.18.13.35.27.51.41a13.59 13.59 0 0 1 1.14 1l.27.28c20.63 20.87 19 43.63 17.74 61.93-1.2 17.07-1.39 27.22 8.74 37.37s19.72 10 37.22 8.74c18.35-1.29 41.2-2.9 62.12 18.07s19.3 43.83 18 62.21c-1.2 17.07-1.38 27.23 8.75 37.38s19.73 10 37.22 8.75c18.27-1.29 41-2.89 61.82 17.77l.31.3a15.93 15.93 0 0 1 2.15 2.67l.34.56a19.61 19.61 0 0 1 .62 1.17 13 13 0 0 1 .75 1.87c.07.21.14.43.2.65a10.38 10.38 0 0 1 .27 1.1l.09.43v.26l.06.41a16 16 0 0 1 .19 2.15z"/></g></svg>