<svg id="Layer_1" viewBox="0 0 1000 1000" xmlns="http://www.w3.org/2000/svg" data-name="Layer 1"><path d="m173.51 385.45h652.98v17.45h-652.98z" fill="#ffcc80"/><path d="m807.15 353.45h-614.3l307.15-233.36z" fill="#ffcc80"/><path d="m138.66 808.04h192.62v75.96h-192.62z" fill="#757575"/><path d="m363.28 862.02h273.44v21.98h-273.44z" fill="#757575"/><path d="m363.28 808.04h273.44v21.98h-273.44z" fill="#757575"/><path d="m668.72 808.04h192.62v75.96h-192.62z" fill="#757575"/><path d="m363.28 434.9h273.44v341.14h-273.44z" fill="#616161"/><path d="m173.51 434.9h29.45v341.14h-29.45z" fill="#ff7043"/><path d="m301.83 434.9h29.45v341.14h-29.45z" fill="#ff7043"/><path d="m668.72 434.9h29.45v341.14h-29.45z" fill="#ff7043"/><path d="m797.04 434.9h29.45v341.14h-29.45z" fill="#ff7043"/><path d="m730.17 434.9h34.87v341.14h-34.87z" fill="#ff7043"/><path d="m234.96 434.9h34.87v341.14h-34.87z" fill="#ff7043"/><g fill="#fff" opacity=".5"><path d="m163.51 395.45h652.98v17.45h-652.98z"/><path d="m797.15 363.45h-614.3l307.15-233.36z"/><path d="m128.66 818.04h192.62v75.96h-192.62z"/><path d="m353.28 872.02h273.44v21.98h-273.44z"/><path d="m353.28 818.04h273.44v21.98h-273.44z"/><path d="m658.72 818.04h192.62v75.96h-192.62z"/><path d="m353.28 444.9h273.44v341.14h-273.44z"/><path d="m163.51 444.9h29.45v341.14h-29.45z"/><path d="m291.83 444.9h29.45v341.14h-29.45z"/><path d="m658.72 444.9h29.45v341.14h-29.45z"/><path d="m787.04 444.9h29.45v341.14h-29.45z"/><path d="m720.17 444.9h34.87v341.14h-34.87z"/><path d="m224.96 444.9h34.87v341.14h-34.87z"/></g><g fill="#413b32"><path d="m219 402.9a16 16 0 0 1 16 16v16h401.72v-16a16 16 0 0 1 16-16zm623.53-49.45h-685a16 16 0 0 0 -16 16v49.45a16 16 0 0 0 16 16h685a16 16 0 0 0 16-16v-49.45a16 16 0 0 0 -16.04-16zm-669 49.45v-17.45h653v17.45zm45.45 0a16 16 0 0 1 16 16v16h401.74v-16a16 16 0 0 1 16-16z"/><path d="m864.33 356.71-354.65-269.45a16 16 0 0 0 -19.36 0l-354.65 269.45a16 16 0 0 0 5.84 28.29 15.84 15.84 0 0 0 3.84.47h709.3a15.84 15.84 0 0 0 3.84-.47 16 16 0 0 0 5.84-28.27zm-671.48-3.26 307.15-233.36 307.15 233.36z"/><path d="m219 402.9h-61.49a16 16 0 0 0 -16 16v373.1a16 16 0 0 0 16 16h61.49a16 16 0 0 0 16-16v-373.1a16 16 0 0 0 -16-16zm-16 373.1h-29.49v-341.1h29.49z"/><path d="m347.28 402.9h-61.45a16 16 0 0 0 -16 16v373.1a16 16 0 0 0 16 16h61.45a16 16 0 0 0 16-16v-373.1a16 16 0 0 0 -16-16zm-16 373.1h-29.45v-341.1h29.45z"/><path d="m714.17 402.9h-61.45a16 16 0 0 0 -16 16v373.1a16 16 0 0 0 16 16h61.45a16 16 0 0 0 16-16v-373.1a16 16 0 0 0 -16-16zm-16 373.1h-29.45v-341.1h29.45z"/><path d="m842.49 402.9h-61.49a16 16 0 0 0 -16 16v373.1a16 16 0 0 0 16 16h61.45a16 16 0 0 0 16-16v-373.1a16 16 0 0 0 -15.96-16zm-45.49 373.1v-341.1h29.45v341.1z"/><path d="m765 792v-16h-417.72a16 16 0 0 1 0 32h433.72a16 16 0 0 1 -16-16zm0 0v-16h-417.72a16 16 0 0 1 0 32h433.72a16 16 0 0 1 -16-16zm0 0v-16h-417.72a16 16 0 0 1 0 32h433.72a16 16 0 0 1 -16-16zm0 0v-16h-417.72a16 16 0 0 1 0 32h433.72a16 16 0 0 1 -16-16zm-128.32 0v-16h-273.4v16a16 16 0 0 1 -16 16h305.44a16 16 0 0 1 -16-16zm0 0v-16h-273.4v16a16 16 0 0 1 -16 16h305.44a16 16 0 0 1 -16-16zm240.62-16h-754.64a16 16 0 0 0 -16 16v108a16 16 0 0 0 16 16h754.68a16 16 0 0 0 16-16v-108a16 16 0 0 0 -16-16zm-16 108h-722.64v-76h722.68zm-224.58-92v-16h-273.44v16a16 16 0 0 1 -16 16h305.44a16 16 0 0 1 -16-16zm128.28 0v-16h-417.72a16 16 0 0 1 0 32h433.72a16 16 0 0 1 -16-16zm0 0v-16h-417.72a16 16 0 0 1 0 32h433.72a16 16 0 0 1 -16-16zm0 0v-16h-417.72a16 16 0 0 1 0 32h433.72a16 16 0 0 1 -16-16zm0 0v-16h-417.72a16 16 0 0 1 0 32h433.72a16 16 0 0 1 -16-16z"/><path d="m363.28 792v108a16 16 0 0 1 -32 0v-108a16 16 0 0 1 32 0z"/><path d="m668.72 792v108a16 16 0 0 1 -32 0v-108a16 16 0 0 1 32 0z"/><path d="m668.72 846a16 16 0 0 1 -16 16h-305.44a16 16 0 0 1 0-32h305.44a16 16 0 0 1 16 16z"/></g></svg>