<svg id="Layer_1" enable-background="new 0 0 512 512" viewBox="0 0 512 512" xmlns="http://www.w3.org/2000/svg"><g clip-rule="evenodd" fill-rule="evenodd"><path d="m402.487 78.595c-26.753 62.496-77.437 85.581-141.025 76.539-.132 2.243-.289 4.433-.474 6.555h-14.479c-3.396-54.189-7.436-105.58-29.239-119.746 4.764-9.443 13.466-13.062 23.655-9.727 9.717 15.775 15.799 40.994 18.786 67.018 18.159-37.7 64.638-55.013 142.776-20.639z" fill="#46c373"/><path d="m256 144.64c-94.772-48.602-239.426 73.294-164.665 208.098 44.687 80.577 121.592 83.133 164.665 128.262 43.073-45.13 119.977-47.685 164.665-128.262 74.76-134.804-69.893-256.7-164.665-208.098z" fill="#ff5a5a"/><path d="m247.501 424.787c1.498 2.313.843 5.413-1.498 6.911-.843.548-1.779.805-2.716.805-1.639 0-3.231-.805-4.167-2.28-28.609-44.122-42.094-75.784-41.251-96.794.14-2.758 2.528-4.893 5.197-4.79 2.763.117 4.916 2.439 4.823 5.202-.749 18.609 12.549 49.208 39.612 90.946zm168.799-74.486c38.583-69.552 15.124-132.754-19.713-168.715-38.442-39.758-93.6-53.411-135.32-33.933-.047.019-.14.047-.187.07-.936.44-1.873.88-2.809 1.353-.047.038-.141.061-.187.089-.047.014-.047.033-.094.047-24.769 10.844-53.894 40.437-61.62 76.004-.515 2.341-2.575 3.943-4.916 3.943-.328 0-.702-.037-1.03-.117-2.716-.585-4.448-3.25-3.84-5.946 7.445-34.35 33.244-63.6 57.874-78.116-.328-.117-.656-.239-.937-.351-.094-.023-.141-.047-.187-.07-10.582-3.835-21.913-5.698-33.432-5.698-32.824 0-67.707 15.04-94.49 42.726-34.836 35.955-58.295 99.162-19.712 168.714 26.643 47.999 64.476 67.271 101.045 85.912 21.82 11.12 42.562 21.665 59.232 37.702 16.716-16.037 37.459-26.582 59.278-37.702 36.569-18.641 74.403-37.914 101.045-85.912zm-192.398-309.541c3.371-4.181 8.054-5.652 13.719-4.294 13.391 23.262 19.244 66.611 19.338 101.387-.374.389-.655.782-.983 1.18-2.06-.979-4.121-1.859-6.181-2.702-3.558-46.613-9.598-80.906-25.893-95.571zm171.937 40.418c-11.753 25.434-28.094 44.243-48.696 56.02-4.87-1.84-9.833-3.4-14.843-4.65-19.338-4.86-38.348-5.066-55.954-.763 21.633-20.274 47.854-30.833 78.055-31.433 2.763-.052 4.963-2.337 4.916-5.094-.047-2.73-2.294-4.902-5.01-4.902 0 0-.047 0-.094 0-34.134.674-63.493 13.035-87.466 36.78-.281-8.611-.89-17.742-1.92-26.952 19.665-38.962 67.191-45.827 131.012-19.006zm48.696 173.228c-4.823-29.639-18.917-57.223-40.736-79.773-13.157-13.611-28.75-24.737-45.372-32.626 20.696-13.724 37.037-34.34 48.65-61.456 1.077-2.519-.047-5.436-2.575-6.541-37.787-16.622-70.376-22.349-96.878-17.034-18.964 3.797-34.228 13.26-44.857 27.617-3.371-20.972-8.99-41.064-17.606-55.008-.609-1.007-1.545-1.761-2.669-2.13-12.455-4.069-23.833.613-29.686 12.226-1.171 2.28-.421 5.057 1.732 6.448 16.154 10.493 21.726 47.132 24.957 86.666-18.683-5.324-39.051-5.46-59.793-.243-26.175 6.564-51.6 21.511-71.5 42.085-21.82 22.55-35.914 50.134-40.736 79.773-5.385 33.179 1.358 68.011 19.479 100.746 28.141 50.672 69.112 71.551 105.259 89.971 22.663 11.537 44.061 22.438 60.168 39.322.937.983 2.248 1.545 3.606 1.545 1.404 0 2.715-.562 3.652-1.545 16.107-16.885 37.506-27.785 60.168-39.322 36.148-18.42 77.118-39.299 105.259-89.971 18.12-32.734 24.862-67.571 19.478-100.75z"/></g></svg>