<svg clip-rule="evenodd" fill-rule="evenodd" height="512" stroke-linejoin="round" stroke-miterlimit="2" viewBox="0 0 512 512" width="512" xmlns="http://www.w3.org/2000/svg"><g><path d="m413.6 71.12c-5.123 31.842-26.632 60.166-58.91 72.485s-67.189 5.528-92.225-14.804c5.123-31.842 26.632-60.167 58.91-72.486 32.279-12.319 67.19-5.527 92.225 14.805z" fill="#b3ff89"/><path d="m413.6 71.12c-5.123 31.842-26.632 60.166-58.91 72.485-23.599 9.007-48.605 7.799-70.114-1.485 16.359 3.115 33.751 1.854 50.439-4.515 32.278-12.319 53.787-40.643 58.91-72.485 9.268 2.532 7.583-3.821 19.675 6z" fill="#a4ee7c"/><path d="m114.405 74.374c6.818 31.523 29.81 58.657 62.701 69.233 32.891 10.577 67.389 1.929 91.302-19.712-6.818-31.523-29.81-58.657-62.701-69.233-32.891-10.577-67.389-1.929-91.302 19.712z" fill="#b3ff89"/><path d="m114.405 77.253c5.124 31.842 26.632 60.166 58.911 72.485 23.598 9.007 48.604 7.798 70.114-1.485-16.36 3.115-33.751 1.854-50.439-4.515-32.279-12.319-53.787-40.643-58.911-72.485-9.268 2.532-7.583-3.821-19.675 6z" fill="#a4ee7c"/><path d="m261.973 124.987s77.862-31.923 135.833 11 90.108 182.837-22.177 279c-52.735 45.164-107.819 71.184-132.137 68s-166.509-86.305-180.187-191c-13.109-100.336 38.397-205.186 198.668-167z" fill="#fc846c"/><path d="m367.719 120.34c10.281 3.453 20.458 8.518 30.087 15.647 57.971 42.923 90.108 182.837-22.177 279-52.735 45.164-107.819 71.184-132.137 68-8.161-1.068-29.598-11.14-54.997-28.029 8.074 3.867 14.344 6.13 17.979 6.606 24.318 3.184 79.402-22.836 132.138-68 107.703-92.24 82.53-224.733 29.107-273.224z" fill="#fc785d"/><path d="m250.575 156.017c18.801-2.242 37.618 25.739 41.994 62.444 4.377 36.705-7.333 68.326-26.133 70.567-18.801 2.242-28.834-26.785-33.211-63.491-4.376-36.705-1.45-67.278 17.35-69.52z" fill="#fa9"/><path d="m130.047 122.717c-5.523 2.591-10.714 5.498-15.585 8.691-50.798 33.287-67.711 98.204-59.421 161.659 7.097 54.317 47.155 103.28 88.969 138.835 42.01 35.721 85.724 57.688 98.4 59.348 10.718 1.403 26.945-1.964 46.175-10.148 26.797-11.405 60.077-32.048 92.465-59.786 81.872-70.116 89.78-162.637 66.595-227.13-10.161-28.265-26.355-51.18-44.88-64.896-2.062-1.527-4.148-2.965-6.26-4.322 13.374-14.671 22.18-32.989 25.323-52.525.473-2.942-.661-5.913-2.974-7.792-27.268-22.145-65.293-29.539-100.45-16.121-23.191 8.851-41.28 25.287-52.509 45.407-12.111-21.683-32.145-39.012-57.637-47.209-35.824-11.519-73.399-2.103-99.445 21.468-2.209 1.999-3.183 5.027-2.553 7.94 3.744 17.308 11.964 33.4 23.787 46.581zm129.93 10.361c-61.135-14.555-105.732-7.814-136.38 12.27-45.591 29.875-59.47 88.609-52.029 145.56 6.581 50.377 44.458 95.321 83.239 128.297 27.543 23.421 55.707 40.795 74.208 49.631 7.019 3.351 12.406 5.475 15.559 5.888 8.737 1.144 21.808-2.286 37.484-8.958 25.562-10.879 57.256-30.649 88.151-57.108 75.327-64.512 83.084-149.496 61.752-208.834-8.917-24.805-22.856-45.102-39.113-57.14-35.148-26.024-78.087-22.632-104.144-16.944 15.68 7.832 34.917 21.998 46.278 46.904 12.673 27.783 15.814 69.496-9.069 131.644-1.376 3.509-5.342 5.239-8.85 3.863-3.509-1.376-5.239-5.342-3.863-8.85 16.988-44.206 19.463-77.013 14.114-101.359-10.236-46.585-49.645-60.468-62.573-63.814-2.604-.674-4.764-1.05-4.764-1.05zm121.33-16.335c11.638-11.567 19.646-26.26 23.148-42.133-22.446-16.176-52.346-21.105-80.108-10.509-23.06 8.801-40.083 26.571-48.604 47.822 23.071-6.045 66.058-12.904 105.564 4.82zm-123.952-1.358c-8.524-24.225-27.882-44.328-54.199-52.79-28.289-9.097-57.883-2.577-79.432 14.776 4.079 14.703 12.067 28.155 23.156 38.789 29.012-9.176 65.513-10.593 110.475-.775z" fill="#8d4ba0"/></g></svg>