<svg clip-rule="evenodd" fill-rule="evenodd" height="512" stroke-linejoin="round" stroke-miterlimit="2" viewBox="0 0 512 512" width="512" xmlns="http://www.w3.org/2000/svg"><g><path d="m150.003 275.202c16.461-20.549 23.361-47.15 18.964-73.109-.574-2.88-.824-6.193-.824-10.061 0-48.49 39.367-87.858 87.857-87.858s87.857 39.368 87.857 87.858c0 3.868-.25 7.181-.736 10.076-4.392 25.934 2.501 52.509 18.946 73.038 18.596 23.259 32.633 52.09 32.633 81.332 0 76.551-62.149 123.347-138.7 123.347s-138.7-46.796-138.7-123.347c0-29.242 14.037-58.073 32.703-81.276z" fill="#dafc7e"/><path d="m238.573 105.913c5.637-1.143 11.463-1.739 17.427-1.739 48.49 0 87.857 39.368 87.857 87.858 0 3.896-.254 7.229-.746 10.139-4.427 25.867 2.44 52.39 18.862 72.858 18.643 23.28 32.727 52.158 32.727 81.449 0 76.551-62.149 123.347-138.7 123.347-5.902 0-11.719-.278-17.427-.861 68.338-6.532 121.273-51.837 121.273-122.486 0-29.291-14.085-58.169-32.727-81.449-16.422-20.468-23.289-46.991-18.863-72.858.493-2.91.747-6.243.747-10.139 0-42.526-30.279-78.035-70.43-86.119z" fill="#cdf464"/><path d="m162.843 332.565c12.269-7.084 25.661 10.602 39.86 35.196s23.864 46.841 11.594 53.925c-12.269 7.084-33.758-7.132-47.957-31.726-14.2-24.594-15.766-50.312-3.497-57.395z" fill="#f5ffda"/><path d="m372.795 67.068c-11.247 19.451-32.3 32.503-56.364 32.465-24.064-.037-45.077-13.154-56.263-32.64 11.247-19.452 32.3-32.503 56.364-32.466 24.064.038 45.077 13.154 56.263 32.641z" fill="#b3ff89"/><path d="m352.711 45.503c8.235 5.54 15.125 12.926 20.084 21.565-11.247 19.451-32.3 32.503-56.364 32.465-22.387-.034-42.133-11.389-53.77-28.667 10.331 6.981 22.782 11.055 36.179 11.076 24.064.038 45.117-13.014 56.364-32.465-.78-1.358-1.607-2.686-2.493-3.974z" fill="#a4ee7c"/><path d="m244.641 96.506c-47.745 5.629-84.832 46.28-84.832 95.526 0 4.442.311 8.252.962 11.572 3.96 23.568-2.32 47.721-17.269 66.385-19.841 24.667-34.536 55.404-34.536 86.489 0 81.403 65.631 131.681 147.034 131.681s147.034-50.278 147.034-131.681c0-31.081-14.693-61.814-34.458-86.536-.002-.002-.004-.004-.005-.006-14.959-18.673-21.229-42.847-17.233-66.437 0-.004.001-.008.002-.013.552-3.291.851-7.056.851-11.454 0-38.001-22.084-70.885-54.104-86.505 5.861 1.518 12.002 2.33 18.331 2.34 27.15.042 50.902-14.682 63.591-36.628 1.487-2.573 1.492-5.743.013-8.32-12.62-21.985-36.327-36.783-63.477-36.825-17.281-.027-33.185 5.929-45.735 15.919.987-1.755 2.057-3.542 3.214-5.354 2.475-3.877 1.337-9.033-2.54-11.508-3.876-2.475-9.033-1.337-11.508 2.539-19.417 30.413-18.436 55.157-15.335 68.816zm11.292 16.002c-43.859.035-79.457 35.655-79.457 79.524 0 3.241.183 6.019.664 8.432.015.079.03.158.043.237 4.794 28.303-2.729 57.307-20.676 79.711-.004.005-.007.009-.011.014-17.487 21.737-30.863 48.656-30.863 76.052 0 71.699 58.668 115.014 130.367 115.014s130.367-43.315 130.367-115.014c0-27.404-13.382-54.331-30.804-76.122-17.931-22.384-25.448-51.362-20.66-79.627.419-2.499.621-5.359.621-8.697 0-43.869-35.598-79.489-79.452-79.524-.047 0-.093 0-.139 0zm3.805-31.596c.018 6.637 1.092 11.788 2.066 15.102 7.191.429 14.17 1.649 20.853 3.575-8.857-4.622-16.651-11.001-22.919-18.677zm103.191-13.859c-10.258 14.634-27.27 24.177-46.485 24.147s-36.197-9.626-46.41-24.292c10.258-14.635 27.27-24.177 46.485-24.147 19.215.029 36.197 9.625 46.41 24.291z" fill="#8d4ba0"/></g></svg>