<svg id="Layer_1" viewBox="0 0 96 96" xmlns="http://www.w3.org/2000/svg" data-name="Layer 1"><path d="m74.52 46.88c-2.82-3.13-5.05-5.6-4.56-9.02.78-5.33-.43-9.89-3.59-13.54-3.29-3.8-8.57-6.33-14.58-7.08.77-3.05 2.09-5.26 2.47-5.6 1.9-1.36 2.33-4.01.97-5.9-1.35-1.87-4-2.3-5.95-.92-.91.7-4.51 4.82-5.94 12.54-5.64.88-10.58 3.34-13.71 6.96-3.16 3.65-4.37 8.21-3.6 13.54.5 3.42-1.73 5.89-4.55 9.02-3.58 3.96-8.04 8.89-7.45 17.54 1.16 17.25 13.85 27.55 33.94 27.57h.06c20.09-.02 32.78-10.32 33.94-27.57.59-8.65-3.87-13.58-7.45-17.54zm-24.03-40.47c1.01-.71 2.4-.48 3.11.5.35.49.49 1.07.4 1.66-.1.58-.42 1.1-.9 1.45-.03.01-.07.05-.09.07-.88.75-2.41 3.53-3.22 6.96-.58-.03-1.17-.06-1.75-.06h-.08c-.85 0-1.7.04-2.53.12 1.34-6.53 4.35-10.13 5.06-10.7zm29.49 57.88c-1.09 16.09-13.04 25.69-31.98 25.7-18.94-.01-30.89-9.61-31.98-25.7-.53-7.8 3.44-12.2 6.94-16.07 2.92-3.24 5.68-6.29 5.05-10.64-.68-4.74.37-8.76 3.13-11.95 4.23-4.89 11.48-6.63 16.86-6.64 5.38.01 12.63 1.75 16.86 6.64 2.76 3.19 3.81 7.21 3.13 11.95-.64 4.35 2.13 7.4 5.05 10.64 3.5 3.87 7.46 8.27 6.94 16.07z"/><path d="m54 8.57c-.1.58-.42 1.1-.9 1.45-.03.01-.07.05-.09.07-.88.75-2.41 3.53-3.22 6.96-.58-.03-1.17-.06-1.75-.06h-.08c-.85 0-1.7.04-2.53.12 1.34-6.53 4.35-10.13 5.06-10.7 1.01-.71 2.4-.48 3.11.5.35.49.49 1.07.4 1.66z" fill="#795548"/><path d="m73.04 48.22c-2.92-3.24-5.69-6.29-5.05-10.64.68-4.74-.37-8.76-3.13-11.95-4.23-4.89-11.48-6.63-16.86-6.64-5.38.01-12.63 1.75-16.86 6.64-2.76 3.19-3.81 7.21-3.13 11.95.63 4.35-2.13 7.4-5.05 10.64-3.5 3.87-7.47 8.27-6.94 16.07 1.09 16.09 13.04 25.69 31.98 25.7 18.94-.01 30.89-9.61 31.98-25.7.52-7.8-3.44-12.2-6.94-16.07zm-3.06 21.08c-2.29 7.1-9.07 12.2-16.89 12.69h-.07c-.52 0-.96-.41-.99-.94-.04-.55.38-1.02.93-1.06 7.01-.44 13.08-4.98 15.11-11.3 2.51-7.81-2.28-14.37-2.84-15.09-.34-.44-.25-1.07.19-1.4.44-.34 1.06-.25 1.4.18.62.81 5.98 8.15 3.16 16.92z" fill="#ffee58"/><path d="m69.98 69.3c-2.29 7.1-9.07 12.2-16.89 12.69h-.07c-.52 0-.96-.41-.99-.94-.04-.55.38-1.02.93-1.06 7.01-.44 13.08-4.98 15.11-11.3 2.51-7.81-2.28-14.37-2.84-15.09-.34-.44-.25-1.07.19-1.4.44-.34 1.06-.25 1.4.18.62.81 5.98 8.15 3.16 16.92z"/></svg>