<svg id="Layer_1" viewBox="0 0 1000 1000" xmlns="http://www.w3.org/2000/svg" data-name="Layer 1"><path d="m586.86 349.49a236.44 236.44 0 0 1 -22.86 101.82 15.91 15.91 0 0 0 -4.21 8.4 238.82 238.82 0 0 1 -100 100 15.9 15.9 0 0 0 -8.69 4.32c-88.1 41.62-196.69 26.07-269.44-46.68l-63.54-63.54 24.52-24.51 12.29 12.28 52 52a201.52 201.52 0 0 0 143.34 59.42h.07a201.49 201.49 0 0 0 143.32-59.31 202.84 202.84 0 0 0 -.1-286.74l-51.9-51.95h-.06l-12.3-12.36 24.51-24.52 63.54 63.54a235.8 235.8 0 0 1 69.51 167.83z" fill="#616161"/><path d="m865.23 774.6-285.35-285.35a273 273 0 0 1 -90.63 90.63l285.35 285.35a64.09 64.09 0 0 0 90.63-90.63zm-12.34 78.29a46.35 46.35 0 1 1 0-65.55 46.25 46.25 0 0 1 0 65.55z" fill="#e53935"/><path d="m404.99 191.51-12.26 36.83-164.39 164.39-36.82 12.26 12.25-36.82 164.4-164.4z" fill="#bdbdbd"/><g fill="#fff" opacity=".5"><path d="m576.86 359.49a236.44 236.44 0 0 1 -22.86 101.82 15.91 15.91 0 0 0 -4.21 8.4 238.82 238.82 0 0 1 -100 100 15.9 15.9 0 0 0 -8.69 4.32c-88.1 41.62-196.69 26.07-269.44-46.68l-63.54-63.54 24.52-24.51 12.29 12.28 52 52a201.52 201.52 0 0 0 143.34 59.42h.07a201.49 201.49 0 0 0 143.32-59.31 202.84 202.84 0 0 0 -.1-286.74l-51.9-51.95h-.06l-12.3-12.36 24.51-24.52 63.54 63.54a235.8 235.8 0 0 1 69.51 167.83z"/><path d="m855.23 784.6-285.35-285.35a273 273 0 0 1 -90.63 90.63l285.35 285.35a64.09 64.09 0 0 0 90.63-90.63zm-12.34 78.29a46.35 46.35 0 1 1 0-65.55 46.25 46.25 0 0 1 0 65.55z"/><path d="m394.99 201.51-12.26 36.83-164.39 164.39-36.82 12.26 12.25-36.82 164.4-164.4z"/></g><g fill="#413b32"><path d="m540 159-67.2-67.14a26.89 26.89 0 0 0 -38 0l-31.8 31.79a26.83 26.83 0 0 0 0 38l67.91 67.91c66.56 66.56 66.6 174.89.1 241.5s-174.94 66.46-241.5-.1l-33.67-33.67-34.21-34.29a26.76 26.76 0 0 0 -19-7.86 26.69 26.69 0 0 0 -19 7.86l-31.77 31.82a26.87 26.87 0 0 0 0 38l67.14 67.18a268.9 268.9 0 0 0 330.22 39.91 273 273 0 0 0 90.63-90.63 265.27 265.27 0 0 0 15.6-29.66 269.9 269.9 0 0 0 -55.45-300.62zm-22.65 358.3a236.48 236.48 0 0 1 -57.53 42.36q-4.32 2.34-8.71 4.34c-88.11 41.65-196.7 26.1-269.45-46.65l-63.54-63.54 24.52-24.51 12.29 12.28 52 52a201.52 201.52 0 0 0 143.34 59.42h.07a201.49 201.49 0 0 0 143.32-59.31 202.84 202.84 0 0 0 -.1-286.74l-51.9-51.95h-.06l-12.3-12.36 24.51-24.52 63.54 63.54a237.79 237.79 0 0 1 46.65 269.65q-2 4.24-4.21 8.4a237.64 237.64 0 0 1 -42.46 57.62zm-23.78-310.38-51.91-51.92a16 16 0 0 1 3.79 16.29l-8.18 24.58 33.67 33.67c66.56 66.56 66.6 174.89.1 241.5s-174.94 66.46-241.5-.1l-33.67-33.67-24.58 8.18a16 16 0 0 1 -16.36-3.87l52 52a201.52 201.52 0 0 0 143.34 59.42h.07a201.49 201.49 0 0 0 143.32-59.31 202.84 202.84 0 0 0 -.1-286.74z"/><path d="m916 819.91a96.09 96.09 0 0 1 -164 68l-292.41-292.43-8.66-8.66a16 16 0 0 1 0-22.63l.18-.18a16 16 0 0 1 22.45.18l301 301a64.09 64.09 0 0 0 90.63-90.63l-300.89-300.89a16 16 0 0 1 -.26-22.36l.26-.27a16 16 0 0 1 22.63 0l300.93 300.96a95.45 95.45 0 0 1 28.14 67.91z"/><path d="m852.89 787.34a46.33 46.33 0 1 0 0 65.55 46.41 46.41 0 0 0 0-65.55zm-22.63 42.92a14.35 14.35 0 1 1 0-20.29 14.35 14.35 0 0 1 0 20.29z"/><path d="m441.66 155h-.06a16 16 0 0 0 -16.31-3.81l-24.36 8.11-46.46 15.3a16 16 0 0 0 -6.26 3.87l-169.74 169.74a16 16 0 0 0 -3.87 6.26l-15.43 46.38-8.11 24.36a16 16 0 0 0 20.23 20.24l24.58-8.18 46.13-15.37a16 16 0 0 0 6.26-3.87l169.74-169.74a15.93 15.93 0 0 0 3.9-6.29l15.37-46.16 8.18-24.58a16 16 0 0 0 -3.79-16.26zm-48.93 73.34-164.39 164.39-36.82 12.27 12.25-36.82 164.4-164.4 36.83-12.27z"/></g></svg>