<svg id="Capa_1" enable-background="new 0 0 512 512" viewBox="0 0 512 512" xmlns="http://www.w3.org/2000/svg"><g><g><path d="m266.667 500.333h-64l-36.334-15.016v-63.984h30v58.091l6.334-9.091h64z" fill="#fd6717"/></g><g><path d="m202.667 500.333h-100.334v-79h30v49h70.334z" fill="#fd8c02"/></g><g><path d="m258 50.836v91l254-30v-61z" fill="#fddf02"/><path d="m258 111.836v171.793l154.277-29.386c57.783-11.006 99.723-61.689 99.723-120.51v-21.897z" fill="#fdcb02"/></g><g><path d="m224 11.666-20 196.094 20 208.436c53.509-30.507 89.667-88.093 89.667-153.97v-160.893c0-49.442-40.225-89.667-89.667-89.667z" fill="#f5f0eb"/><path d="m134.333 101.333c0 21.079 7.012 42.268 19.271 58.319 2.674 4.503 5.654 8.634 8.542 12.638 9.947 13.791 17.973 25.042 13.588 48.618-.03 0-175.018 161.266-175.018 161.266-.465 5.218-.716 10.497-.716 15.834v41.325h136.56c31.78 0 61.627-8.42 87.439-23.136v-404.531c-49.442 0-89.666 40.224-89.666 89.667z" fill="#fff7f7"/></g><g><path d="m239 92.666h-15l-10 15 10 15h15z" fill="#2b2b2b"/><path d="m209 92.666h15v30h-15z" fill="#404040"/></g><path d="m175.734 310.508v-89.6c-91.698.702-167.021 71.45-175.018 161.266h103.352c39.516 0 71.666-32.15 71.666-71.666z" fill="#d7d7d7"/></g><g/><g/><g/><g/><g/><g/><g/><g/><g/><g/><g/><g/><g/><g/><g/></svg>