<svg id="Layer_1" viewBox="0 0 1000 1000" xmlns="http://www.w3.org/2000/svg" data-name="Layer 1"><path d="m765.03 317.41-42.62 42.61-82.63-82.63 42.61-42.62z" fill="#1565c0"/><path d="m819.4 263-31.74 31.75-82.66-82.61 31.75-31.75a18 18 0 0 1 25.32-.06l.27.28 57.24 57.24a18 18 0 0 1 -.18 25.15z" fill="#1565c0"/><path d="m617.15 300-359.79 359.8 82.64 82.64 359.79-359.79zm-260.4 366.08a16 16 0 0 1 -22.63-22.62l266.69-266.69a16 16 0 0 1 22.62 22.63z" fill="#1e88e5"/><path d="m317.37 765.06-42.62 42.62-82.63-82.64 42.61-42.61z" fill="#1565c0"/><path d="m247.21 825.39-125.74 58a3.81 3.81 0 0 1 -5-5.06l58-125.73z" fill="#1565c0"/><path d="m884 140.68a24.3 24.3 0 0 1 -7.17 17.3l-45.92 45.93-34.61-34.62 45.92-45.92a24.48 24.48 0 0 1 41.78 17.31z" fill="#616161"/><g fill="#fff" opacity=".5"><path d="m755.03 327.41-42.62 42.61-82.63-82.63 42.61-42.62z"/><path d="m809.4 273-31.74 31.75-82.66-82.61 31.75-31.75a18 18 0 0 1 25.32-.06l.27.28 57.24 57.24a18 18 0 0 1 -.18 25.15z"/><path d="m607.15 310-359.79 359.8 82.64 82.64 359.79-359.79zm-260.4 366.08a16 16 0 0 1 -22.63-22.62l266.69-266.69a16 16 0 0 1 22.62 22.63z"/><path d="m307.37 775.06-42.62 42.62-82.63-82.64 42.61-42.61z"/><path d="m237.21 835.39-125.74 58a3.81 3.81 0 0 1 -5-5.06l58-125.73z"/><path d="m874 150.68a24.3 24.3 0 0 1 -7.17 17.3l-45.92 45.93-34.61-34.62 45.92-45.92a24.48 24.48 0 0 1 41.78 17.31z"/></g><g fill="#413b32"><path d="m851.61 228.46a49.86 49.86 0 0 0 -9.61-13.46l-11.12-11.11-34.58-34.6-11.53-11.52a49.27 49.27 0 0 0 -12.89-9.31 50 50 0 0 0 -57.74 9.31l-43.06 43.06-65.24 65.24-382.42 382.42-65.24 65.24a12.75 12.75 0 0 0 -1.1 1.22 7.47 7.47 0 0 0 -.48.63 8.38 8.38 0 0 0 -.56.81c-.12.18-.23.35-.33.53s-.22.37-.32.56-.3.57-.43.86a16 16 0 0 0 3.22 18l105.26 105.28a16 16 0 0 0 18 3.23h.05a16.26 16.26 0 0 0 4-2.66l.58-.55.09-.1 65.13-65.12 382.43-382.42 65.07-65.06.18-.18.18-.18 42.85-42.93a50 50 0 0 0 9.61-57.19zm-32.21 34.54-31.74 31.75-22.66 22.66-42.59 42.59-22.62 22.63-359.79 359.81-22.63 22.62-42.62 42.62-82.63-82.68 65.24-65.24 359.79-359.76 22.63-22.62 42.61-42.62 22.61-22.62 31.75-31.75a18 18 0 0 1 25.32-.06l.27.28 57.24 57.24a18 18 0 0 1 -.18 25.15z"/><path d="m286.06 819-105.26-105.27a16 16 0 0 0 -22.39-.23l-.23.23a12.75 12.75 0 0 0 -1.1 1.22 7.47 7.47 0 0 0 -.48.63 8.38 8.38 0 0 0 -.56.81c-.12.18-.23.35-.33.53s-.22.37-.32.56-.3.57-.43.86l-67.6 146.58a35.88 35.88 0 0 0 32.4 50.86 36 36 0 0 0 15.12-3.35l146.52-67.58h.05a16.26 16.26 0 0 0 4-2.66c.23-.21.45-.43.67-.65a16 16 0 0 0 -.1-22.53zm-164.59 64.38a3.81 3.81 0 0 1 -5-5.06l58-125.73 72.8 72.8z"/><path d="m899.46 100.75a56.46 56.46 0 0 0 -79.87 0l-47.71 47.71-9.52 9.54a16 16 0 0 0 -.27 22.35l.27.28 57.24 57.24a16 16 0 0 0 22.62 0l9.39-9.39 47.85-47.85a56.53 56.53 0 0 0 0-79.88zm-22.63 57.25-45.92 45.93-34.61-34.64 45.92-45.92a24.47 24.47 0 1 1 34.61 34.63z"/><path d="m324.82 465.07a37.55 37.55 0 0 1 -9.46-1.18 16 16 0 0 1 8-31c1 .27 10.78 2 35.56-19.82 25.46-22.4 57.81-61.63 96.16-116.62 41.57-59.6 80.07-102.88 114.45-128.63 29.42-22 56.61-31.88 80.83-29.23 40.28 4.41 55.73 40.82 56.37 42.37l-29.59 12.19v.13c-.36-.85-9.24-20.77-30.66-22.91-22.52-2.26-73.92 13.5-165.2 144.39-39.78 57.1-73.85 98.24-101.28 122.34-21.26 18.74-39.44 27.97-55.18 27.97z"/><path d="m799.15 328.54-.18.18-.18.18a16 16 0 0 1 -22.45-.18l-105.26-105.26a16 16 0 1 1 22.63-22.63l11.29 11.31 94 93.95a16 16 0 0 1 .15 22.45z"/><path d="m733.72 394a16 16 0 0 1 -22.62 0l-105.26-105.3a16 16 0 0 1 22.62-22.63l105.26 105.26a16 16 0 0 1 0 22.67z"/><path d="m351.33 776.36a16 16 0 0 1 -22.61 0l-11.31-11.32-82.64-82.63-11.31-11.32a16 16 0 1 1 22.63-22.62l105.22 105.28a16 16 0 0 1 .02 22.61z"/><path d="m623.43 399.4-266.68 266.68a16 16 0 0 1 -22.63-22.62l266.69-266.69a16 16 0 0 1 22.62 22.63z"/></g></svg>