<svg id="Layer_1" viewBox="0 0 1000 1000" xmlns="http://www.w3.org/2000/svg" data-name="Layer 1"><path d="m800.1 328.96-495.1 495.1h-.01l-27.92-27.93 495.1-495.1z" fill="#fbc02d"/><path d="m749.54 278.4-495.1 495.1h-.01l-27.92-27.93 495.1-495.1z" fill="#fbc02d"/><path d="m698.98 227.84-495.1 495.1h-.01l-27.93-27.94 495.1-495.1z" fill="#fbc02d"/><path d="m273.92 838.24-151.58 39.42 39.42-151.58 30.8 30.8z" fill="#ffccbc"/><path d="m878.55 250.5-10 10-129-129 10-10a18.61 18.61 0 0 1 26.29 0l102.71 102.71a18.61 18.61 0 0 1 0 26.29z" fill="#e53935"/><path d="m845.9 283.16-23.18 23.17-39.05-39.05-.19-.2-.2-.19-50.17-50.17-.19-.2-.2-.19-39.05-39.05 23.18-23.17z" fill="#e53935"/><g fill="#fff" opacity=".5"><path d="m790.1 338.96-495.1 495.1h-.01l-27.92-27.93 495.1-495.1z"/><path d="m739.54 288.4-495.1 495.1h-.01l-27.92-27.93 495.1-495.1z"/><path d="m688.98 237.84-495.1 495.1h-.01l-27.93-27.94 495.1-495.1z"/><path d="m263.92 848.24-151.58 39.42 39.42-151.58 30.8 30.8z"/><path d="m868.55 260.5-10 10-129-129 10-10a18.61 18.61 0 0 1 26.29 0l102.71 102.71a18.61 18.61 0 0 1 0 26.29z"/><path d="m835.9 293.16-23.18 23.17-39.05-39.05-.19-.2-.2-.19-50.17-50.17-.19-.2-.2-.19-39.05-39.05 23.18-23.17z"/></g><g fill="#413b32"><path d="m834 317.65-151.65-151.65a16 16 0 0 0 -22.62 0l-517.73 517.69-.06.07c-.23.23-.45.47-.67.72l-.09.1q-.31.36-.6.75c-.21.27-.42.56-.61.85s-.41.64-.59 1-.26.47-.38.71-.14.27-.2.41a15.53 15.53 0 0 0 -.65 1.64.76.76 0 0 0 0 .11c-.1.32-.2.64-.28 1l-.09.36a16 16 0 0 0 4.26 15l19.76 19.76 30.8 30.8 101.08 101.03a15.94 15.94 0 0 0 11.32 4.69 16.18 16.18 0 0 0 3.73-.44l.3-.08c.31-.08.61-.17.91-.27l.35-.11.76-.29 1-.43c.28-.14.57-.29.84-.45s.66-.38 1-.59.58-.4.85-.61.51-.39.75-.6l.1-.09c.25-.22.49-.44.72-.67l.07-.06 517.62-517.73a16 16 0 0 0 0-22.62zm-529 506.41-101.13-101.12-27.93-27.94 495.06-495.1 129.1 129.1z"/><path d="m316.31 835.37-11.31-11.31-27.92-27.93-22.64-22.63-27.92-27.93-22.62-22.63-27.96-27.94-11.31-11.31a16 16 0 0 0 -15.52-4.12 15.8 15.8 0 0 0 -7.17 4.19c-.23.23-.45.47-.67.72l-.09.1q-.31.36-.6.75c-.21.27-.42.56-.61.85s-.41.64-.59 1-.26.47-.38.71-.14.27-.2.41a15.53 15.53 0 0 0 -.65 1.64.76.76 0 0 0 0 .11c-.1.32-.2.64-.28 1l-.09.36-53.26 204.59a16 16 0 0 0 19.48 19.48l204.69-53.23.3-.08c.31-.08.61-.17.91-.27l.35-.11.76-.29 1-.43c.28-.14.57-.29.84-.45s.66-.38 1-.59.58-.4.85-.61.51-.39.75-.6l.1-.09c.25-.22.49-.44.72-.67a15.8 15.8 0 0 0 4.19-7.17 16 16 0 0 0 -4.15-15.52zm-194 42.29 39.42-151.58 30.8 30.8 81.36 81.36z"/><path d="m733.11 216.72a16 16 0 0 1 -.19 22.43l-11.31 11.32 27.93 27.93 11.31-11.32a16 16 0 0 1 16.61-3.79c.37.13.75.28 1.11.44s.6.27.89.42a6.29 6.29 0 0 1 .67.37c.19.1.38.22.56.33a14.66 14.66 0 0 1 1.39 1c.2.16.41.33.61.51s.4.35.59.54zm0 0a16 16 0 0 1 -.19 22.43l-11.31 11.32 27.93 27.93 11.31-11.32a16 16 0 0 1 16.61-3.79c.37.13.75.28 1.11.44s.6.27.89.42a6.29 6.29 0 0 1 .67.37c.19.1.38.22.56.33a14.66 14.66 0 0 1 1.39 1c.2.16.41.33.61.51s.4.35.59.54zm168.07-15.14-102.76-102.76a50.64 50.64 0 0 0 -71.55 0l-21.34 21.34-45.8 45.84a16 16 0 0 0 0 22.63l151.68 151.64a16 16 0 0 0 22.63 0l45.8-45.8 21.34-21.34a50.64 50.64 0 0 0 0-71.55zm-78.46 104.75-129.05-129 23.18-23.17 22.63-22.63 10-10a18.61 18.61 0 0 1 26.29 0l102.78 102.68a18.61 18.61 0 0 1 0 26.29l-10 10-22.65 22.66zm-89.61-89.61a16 16 0 0 1 -.19 22.43l-11.31 11.32 27.93 27.93 11.31-11.32a16 16 0 0 1 16.61-3.79c.37.13.75.28 1.11.44s.6.27.89.42a6.29 6.29 0 0 1 .67.37c.19.1.38.22.56.33a14.66 14.66 0 0 1 1.39 1c.2.16.41.33.61.51s.4.35.59.54zm0 0a16 16 0 0 1 -.19 22.43l-11.31 11.32 27.93 27.93 11.31-11.32a16 16 0 0 1 16.61-3.79c.37.13.75.28 1.11.44s.6.27.89.42a6.29 6.29 0 0 1 .67.37c.19.1.38.22.56.33a14.66 14.66 0 0 1 1.39 1c.2.16.41.33.61.51s.4.35.59.54z"/><path d="m732.92 239.15-11.31 11.32-495.1 495.1-11.31 11.31a16 16 0 1 1 -22.63-22.63l11.31-11.31 495.12-495.1 11.31-11.32a16 16 0 0 1 22.43-.19l.2.19.19.2a16 16 0 0 1 -.21 22.43z"/><path d="m783.48 289.71-11.31 11.29-495.1 495.1-11.31 11.31a16 16 0 0 1 -22.63-22.63l11.31-11.31 495.1-495.1 11.31-11.32a16 16 0 0 1 16.61-3.79c.37.13.75.28 1.11.44s.6.27.89.42.45.24.67.37.38.22.56.33a14.66 14.66 0 0 1 1.39 1c.2.16.41.33.61.51s.4.35.59.54l.2.19.19.2a16 16 0 0 1 -.19 22.45z"/><path d="m879.84 294.47a16 16 0 0 1 -22.63 0l-11.31-11.31-129-129-11.32-11.32a16 16 0 0 1 22.63-22.63l11.32 11.32 129 129 11.31 11.31a16 16 0 0 1 0 22.63z"/></g></svg>