<svg id="Layer_1" enable-background="new 0 0 512 512" viewBox="0 0 512 512" xmlns="http://www.w3.org/2000/svg"><g clip-rule="evenodd" fill-rule="evenodd"><g><path d="m409.455 20.573 83.009 83.009c1.947 1.947 1.947 5.124 0 7.071l-382.848 382.849c-1.947 1.947-5.124 1.947-7.071 0l-83.009-83.009c-1.947-1.947-1.947-5.124 0-7.071l382.848-382.849c1.948-1.947 5.124-1.947 7.071 0z" fill="#a9b0bb"/><g><path d="m91.732 60.618c0-23.969 19.611-43.581 43.58-43.581 23.97 0 43.58 19.612 43.58 43.581v340.809l-42.647 89.665c-.517 1.086-1.556 1.731-2.758 1.711-1.202-.019-2.22-.698-2.701-1.8l-39.054-89.575z" fill="#66d4f1"/><path d="m135.312 17.037c-23.969 0-43.58 19.612-43.58 43.581v34.875h87.161c0-21.48 0-34.875 0-34.875 0-23.969-19.611-43.581-43.581-43.581z" fill="#636c77"/><path d="m165.717 400.709c-23.508 0-53.97 0-73.984 0v.719l33.385 76.572 5.669 13.003c.48 1.102 1.498 1.781 2.701 1.8 1.202.02 2.242-.625 2.758-1.711l21.969-46.189 16.663-35.034 4.015-8.442s0-.244 0-.719c-4.018.001-8.457.001-13.176.001z" fill="#efc7a4"/></g></g><path d="m457.008 135.173-17.646-17.641c-2.739-2.739-7.167-2.739-9.896 0-1.374 1.36-2.052 3.162-2.052 4.95 0 1.793.678 3.581 2.052 4.95l17.66 17.641-29.113 29.09-47.182-47.182c-2.738-2.729-7.167-2.729-9.896 0-2.743 2.743-2.743 7.171 0 9.901l47.178 47.182-29.099 29.089-17.641-17.641c-2.729-2.729-7.157-2.729-9.9 0-2.729 2.739-2.729 7.171 0 9.9l17.65 17.641-29.099 29.099-47.178-47.177c-2.729-2.743-7.162-2.743-9.901 0-2.729 2.729-2.729 7.157 0 9.886l47.178 47.182-29.089 29.099-17.641-17.641c-2.729-2.739-7.167-2.739-9.9 0-2.729 2.729-2.729 7.162 0 9.891l17.641 17.65-29.089 29.089-47.182-47.182c-2.729-2.729-7.166-2.729-9.9 0-2.729 2.734-2.729 7.171 0 9.9l47.182 47.182-29.09 29.089-17.651-17.641c-2.729-2.729-7.162-2.729-9.891 0-2.738 2.734-2.738 7.171 0 9.901l17.641 17.641-31.188 31.188 3.237-6.818c.452-.941.682-1.962.682-3.002v-154.467l220.026-220.021 80.177 80.182zm-323.311 343.95-31.593-72.451h66.042zm-27.622 6.978 10.71-10.719-31.47-72.202c-.391-.875-.588-1.826-.588-2.79v-53.309l-58.833 58.843zm29.231-463.098c20.168 0 36.581 16.408 36.581 36.581v27.871h-73.162v-27.872c0-20.172 16.408-36.58 36.581-36.58zm-36.581 369.67v-291.22h73.161v291.22zm402.233-291.54-90.092-90.083c-2.734-2.739-7.171-2.739-9.9 0l-215.08 215.08v-166.547c0-27.89-22.69-50.58-50.58-50.58s-50.58 22.69-50.58 50.58v267.711l-73.684 73.679c-2.729 2.729-2.729 7.157 0 9.9l90.083 90.078c1.369 1.36 3.158 2.052 4.95 2.052 1.788 0 3.581-.692 4.951-2.052l11.778-11.783 4.188 9.623c1.101 2.522 3.562 4.16 6.305 4.211h.118c2.701 0 5.157-1.562 6.319-4l24.281-51.041 336.943-336.929c2.729-2.737 2.729-7.17 0-9.899z"/></g></svg>