<svg clip-rule="evenodd" fill-rule="evenodd" stroke-linejoin="round" stroke-miterlimit="2" viewBox="0 0 96 96" xmlns="http://www.w3.org/2000/svg"><g><g><path d="m42.842 51.619c6.178-18.292-13.991-15.478-16.678-2.287-2.044 10.033-9.553 24.134-13.032 30.312-.221.391-.153.882.165 1.198.318.317.809.382 1.199.16 6.978-4.111 23.515-15.08 28.346-29.383z" fill="#808080"/><path d="m34.286 20.762s-21.545 41.552-5.716 56.501c15.829 14.95 45.288 5.496 44.629-9.013-.66-14.51-31.219-53.643-31.219-53.643z" fill="#c8c8c8"/><path d="m29.801 9.352c.98.11 1.951-.275 2.591-1.025 2.993-3.342 12.507-12.144 23.809-3.035 11.577 9.332 14.774 30.849 16.357 44.04 1.211 10.098 7.473 24.318 10.343 30.432.189.399.093.875-.236 1.169-.328.295-.812.339-1.188.108-6.414-4.081-21.689-15.074-25.276-29.422-2.701-10.806-4.407-15.565-9.012-19.747-3.19-2.897-6.219-3.083-11.678-5.965-6.371-3.363-6.373-7.368-10.913-7.844-6.377-.669-8.623-3.257-9.374-4.622-.16-.47.09-.98.559-1.143 2.434-.872 9.312-3.072 14.018-2.946z" fill="#696969"/></g><g><path d="m15.359 79.479c2.44-4.426 6.046-11.339 8.802-18.189.309-.768-.064-1.642-.832-1.951s-1.642.063-1.951.831c-3.073 7.638-7.224 15.353-9.553 19.488-.552.976-.383 2.204.414 2.997.796.794 2.025.957 3.001.399.006-.003.012-.007.017-.01 1.717-1.011 4.003-2.431 6.552-4.209.679-.473.845-1.409.372-2.088-.474-.679-1.41-.846-2.089-.372-1.738 1.212-3.35 2.253-4.733 3.104z"/><path d="m70.534 73.975c-2.194 4.085-7.094 7.249-12.94 8.888-8.961 2.511-20.214 1.408-27.995-5.94-4.15-3.92-5.463-9.827-5.328-16.255.213-10.143 4.075-21.582 7.223-29.323.312-.767-.058-1.643-.824-1.955-.767-.312-1.643.058-1.955.825-3.261 8.021-7.223 19.882-7.443 30.39-.154 7.34 1.529 14.023 6.268 18.499 8.583 8.107 20.978 9.418 30.864 6.647 6.719-1.883 12.251-5.661 14.773-10.356.392-.729.118-1.64-.611-2.031-.73-.392-1.64-.118-2.032.611z"/><path d="m29.967 8.611c-.042-.004-.084-.007-.126-.008-4.887-.132-12.036 2.128-14.564 3.033-1.233.427-1.898 1.786-1.474 3.037.028.084.064.164.107.242.851 1.545 3.314 4.632 10.531 5.39 1.839.193 2.719 1.164 3.824 2.364 1.452 1.576 3.156 3.525 6.546 5.315 2.78 1.467 4.939 2.251 6.811 3.034 1.678.701 3.103 1.393 4.559 2.714 4.421 4.016 5.971 8.625 8.565 19 3.689 14.758 19.329 26.127 25.926 30.324.007.005.014.009.02.013.942.578 2.152.469 2.975-.269.822-.737 1.063-1.928.591-2.927-2.826-6.019-9.017-20.022-10.211-29.97-.962-8.013-2.522-19.058-6.139-28.655-2.482-6.584-5.941-12.485-10.766-16.374-12.273-9.892-22.617-.427-25.867 3.202-.008.009-.016.018-.024.027-.317.372-.798.563-1.284.508zm50.842 70.956c-6.833-4.542-19.917-14.621-23.153-27.562-2.809-11.236-4.67-16.145-9.459-20.493-3.28-2.98-6.371-3.218-11.985-6.181-3.637-1.92-5.074-4.082-6.59-5.585-1.3-1.289-2.644-2.192-4.867-2.425-4.522-.475-6.703-1.953-7.706-3.125 2.779-.949 8.55-2.687 12.649-2.596h.004c1.446.139 2.872-.433 3.821-1.537 2.741-3.057 11.418-11.17 21.737-2.853 4.437 3.577 7.558 9.041 9.84 15.096 3.529 9.361 5.03 20.139 5.968 27.955 1.135 9.453 6.612 22.473 9.741 29.306z"/><path d="m44.902 9.263v1.681c0 .828.672 1.5 1.5 1.5s1.5-.672 1.5-1.5v-1.681c0-.828-.672-1.5-1.5-1.5s-1.5.672-1.5 1.5z"/><path d="m41.132 84.969-1.607 6.398c-.167.667-.767 1.135-1.455 1.135-1.26 0-2.559 0-2.559 0-.827 0-1.5.672-1.5 1.5s.673 1.5 1.5 1.5h2.559c2.064 0 3.862-1.403 4.365-3.404.556-2.216 1.355-5.396 1.607-6.398.201-.803-.287-1.618-1.09-1.82s-1.618.286-1.82 1.089z"/><path d="m53.606 84.969-1.606 6.398c-.168.667-.768 1.135-1.455 1.135-1.26 0-2.559 0-2.559 0-.828 0-1.5.672-1.5 1.5s.672 1.5 1.5 1.5h2.559c2.063 0 3.862-1.403 4.364-3.404.557-2.216 1.355-5.396 1.607-6.398.202-.803-.287-1.618-1.089-1.82-.803-.202-1.619.286-1.821 1.089z"/></g></g></svg>