<svg id="Capa_1" enable-background="new 0 0 511.696 511.696" viewBox="0 0 511.696 511.696" xmlns="http://www.w3.org/2000/svg"><g><path d="m384.613 511.696h-54.629l-9.371-30h64z" fill="#fdcb02"/><path d="m389.378 62.032h-72.998l29.408 81h108.59v-16c0-35.841-29.159-65-65-65z" fill="#fdcb02"/><path d="m242.28 0c-1.486 0-2.963.03-4.436.074l-20 91.673 20 130.9 107.944-79.615v-81c-1.798-4.899-33.089-62.032-103.508-62.032z" fill="#404040"/><path d="m334.093 503.274c23.324-47.802 35.017-91.787 35.747-134.466.65-37.951-7.17-70.399-14.731-101.778-10.245-42.515-20.111-71.243-9.321-123.998h-28.329c-43.9 0-79.615 35.715-79.615 79.615l-20 127.466 20 161.583h92.14z" fill="#f5f0eb"/><path d="m154.631 33.082c-26.272 24.191-43.423 60.038-50.974 106.544-7.794 47.999-4.938 90.489-1.913 135.475 2.151 31.998 4.376 101.38 3.408 140.654-.798 32.379-13.941 62.679-37.007 85.315l-10.828 10.625h180.526v-149.15l-20-56.506 20-56.506v-249.459c-32.046.959-60.739 12.316-83.212 33.008z" fill="#5a5a5a"/><path d="m237.844 362.545h-16.248c-39.682 0-71.966-32.284-71.966-71.966v-41.046h88.214z" fill="#404040"/><path d="m237.844 68.697h30v30h-30z" fill="#2b2b2b"/></g><g/><g/><g/><g/><g/><g/><g/><g/><g/><g/><g/><g/><g/><g/><g/></svg>