<svg clip-rule="evenodd" fill-rule="evenodd" stroke-linejoin="round" stroke-miterlimit="2" viewBox="0 0 96 96" xmlns="http://www.w3.org/2000/svg"><g><g><path d="m52.776 13.536c4.41 0 8.625 1.82 11.649 5.031 3.024 3.21 4.588 7.527 4.324 11.929-.17 2.655-.512 5.371-1.039 8.135-5.792 30.344-31.771 54.979-57.978 54.979-1.575 0-3.115-.089-4.618-.263-1.474-.166-2.683-1.241-3.021-2.685s.268-2.944 1.515-3.747c14.964-9.793 26.895-26.843 30.594-46.22.667-3.495 1.037-6.914 1.13-10.228.282-9.43 8.008-16.928 17.442-16.928 0-.003.001-.003.002-.003z" fill="#e55a4c"/><path d="m35.921 26.45c2.001-7.455 8.806-12.911 16.853-12.911 0-.003.001-.003.002-.003 4.41 0 8.625 1.82 11.649 5.031 2.085 2.213 3.476 4.953 4.052 7.883-3.218 4.258-8.794 7.371-14.109 4.321-10.497-6.025-11.027 4.758-18.447-4.321z" fill="#acce37"/><path d="m82.32 41.454c2.872 0 5.618 1.186 7.587 3.277 1.97 2.091 2.989 4.903 2.816 7.77-.11 1.729-.333 3.499-.676 5.299-3.773 19.764-20.694 35.81-37.764 35.81-1.026 0-2.029-.058-3.008-.171-.959-.109-1.747-.809-1.968-1.749-.22-.941.175-1.918.987-2.441 9.747-6.379 17.518-17.484 19.928-30.105.434-2.276.675-4.503.736-6.662.183-6.142 5.215-11.026 11.36-11.026.001-.002.001-.002.002-.002z" fill="#e55a4c"/><path d="m71.342 49.866c1.303-4.856 5.735-8.41 10.976-8.41.001-.002.001-.002.002-.002 2.872 0 5.618 1.186 7.587 3.277 1.358 1.442 2.264 3.226 2.639 5.135-2.096 2.774-5.728 4.801-9.189 2.814-6.838-3.924-7.183 3.099-12.015-2.814z" fill="#acce37"/></g><g><path d="m45.015 17.05c2.259-1.26 4.853-1.985 7.611-2.01.049-.001.256-.004.31-.003 3.939.043 7.693 1.687 10.397 4.558 2.74 2.909 4.158 6.82 3.919 10.809-.166 2.593-.5 5.246-1.015 7.945-5.654 29.62-30.924 53.761-56.505 53.761-1.516 0-2.999-.086-4.446-.253-.001 0-.002 0-.004-.001-.843-.095-1.535-.71-1.729-1.536-.193-.826.154-1.685.867-2.144.003-.002.006-.004.009-.006 15.281-10 27.469-27.407 31.246-47.194.683-3.576 1.062-7.075 1.157-10.467.114-3.836 1.578-7.324 3.929-10.013.545-.623.481-1.571-.142-2.116s-1.572-.481-2.117.142c-2.793 3.195-4.533 7.339-4.669 11.9v.003c-.091 3.237-.453 6.576-1.104 9.988-3.621 18.968-15.295 35.661-29.943 45.247-1.77 1.14-2.637 3.283-2.154 5.344s2.21 3.596 4.313 3.833c1.558.181 3.155.273 4.787.273 26.833 0 53.521-25.13 59.451-56.198.54-2.827.89-5.605 1.063-8.32 0-.002 0-.004 0-.006.289-4.815-1.422-9.536-4.729-13.048-3.263-3.465-7.794-5.449-12.548-5.501-.064-.001-.312.002-.37.003-3.278.029-6.361.893-9.045 2.39-.723.403-.983 1.318-.579 2.041.403.723 1.317.982 2.04.579z"/><path d="m67.28 25.546c-2.787 3.689-7.561 6.567-12.165 3.924-5.274-3.027-8.322-2.247-10.814-1.406-.839.282-1.593.597-2.377.684-.162.018-.326.025-.493.015-.826-.049-1.537.582-1.586 1.409-.049.826.582 1.537 1.409 1.586.338.02.671.008 1-.028.988-.109 1.949-.467 3.006-.824 1.929-.65 4.279-1.177 8.362 1.166 6.025 3.459 12.403.111 16.052-4.717.499-.661.368-1.602-.293-2.101-.66-.499-1.602-.368-2.101.292z"/><path d="m55.834 13.936c.736-3.358 2.224-5.951 4.623-7.647 2.465-1.742 5.842-2.532 10.2-2.381.827.028 1.522-.62 1.551-1.447.029-.828-.62-1.523-1.447-1.551-5.154-.179-9.121.869-12.036 2.929-2.98 2.107-4.907 5.282-5.822 9.455-.177.808.336 1.609 1.144 1.786.809.178 1.609-.335 1.787-1.144z"/><path d="m82.141 39.957c-6.875.094-12.477 5.587-12.682 12.48 0 .001 0 .002-.001.003-.058 2.081-.291 4.228-.71 6.423-2.331 12.211-9.845 22.959-19.275 29.131-1.336.861-1.991 2.48-1.626 4.038s1.67 2.718 3.26 2.897c1.034.12 2.093.181 3.176.181 17.696 0 35.326-16.54 39.237-37.029.356-1.863.586-3.695.7-5.484 0-.002.001-.004.001-.006.186-3.098-.844-6.139-2.857-8.483-.118-.138-.507-.554-.58-.627-2.202-2.221-5.191-3.489-8.322-3.526-.047 0-.262.002-.321.002zm.04 3c.046 0 .209-.003.245-.002 2.344.028 4.58.977 6.228 2.638.055.055.346.367.434.47 1.506 1.753 2.277 4.028 2.138 6.346-.106 1.668-.321 3.374-.653 5.109-3.634 19.04-19.846 34.592-36.29 34.592-.967 0-1.913-.055-2.835-.161-.002-.001-.003-.001-.005-.001-.329-.037-.6-.277-.675-.6-.076-.323.06-.659.339-.838.003-.002.006-.004.009-.006 10.063-6.585 18.092-18.048 20.579-31.079.45-2.358.699-4.664.762-6.901.158-5.283 4.453-9.495 9.724-9.567z"/><path d="m91.35 48.962c-1.666 2.204-4.495 3.997-7.247 2.417-4.206-2.414-6.316-1.322-8.191-.712-.788.255-1.219 1.102-.963 1.89.255.787 1.102 1.219 1.89.963 1.32-.429 2.809-1.238 5.771.461 4.173 2.395 8.606.133 11.133-3.21.499-.661.368-1.602-.292-2.102-.661-.499-1.602-.368-2.101.293z"/><path d="m84.822 41.827c.448-2.045 1.341-3.633 2.802-4.666 1.527-1.079 3.624-1.548 6.324-1.455.828.029 1.523-.62 1.551-1.447.029-.828-.62-1.523-1.447-1.551-3.496-.121-6.182.606-8.159 2.004-2.043 1.444-3.374 3.613-4.001 6.473-.178.808.335 1.609 1.144 1.786.808.177 1.609-.335 1.786-1.144z"/></g></g></svg>