<svg id="Fill" viewBox="0 0 64 64" xmlns="http://www.w3.org/2000/svg"><g><path d="m39.712 22.92c8.26 4.55 11.21 15.05 8.74 23.79l-2.22.86c-9.08 3.51-13.01-7.12-22.26-2.95l-7.88 3.6c-.9-2.37-1.39-4.97-1.39-7.71 0-7.72 3.93-14.38 9.64-17.59z" fill="#e0f3fd"/><path d="m46.232 47.57 2.22-.86c-1.25 4.42-3.9 8.4-7.96 10.93h-16.93c-3.32-2.11-5.97-5.42-7.47-9.42l7.88-3.6c9.25-4.17 13.18 6.46 22.26 2.95z" fill="#84d3eb"/><path d="m39.712 14.58v8.34h-15.37v-8.34h3.16 9.05z" fill="#627299"/><path d="m27.502 6.36h9.05v8.22h-9.05z" fill="#fcb44d"/></g><g><path d="m32.023 8.7c-.553 0-1 .448-1 1v1.54c0 .552.447 1 1 1s1-.448 1-1v-1.54c0-.552-.447-1-1-1z"/><path d="m49.421 46.952c2.352-8.368.079-19.367-8.709-24.587v-7.785c0-.552-.447-1-1-1h-2.16v-7.22c0-.552-.447-1-1-1h-9.05c-.553 0-1 .448-1 1v7.22h-2.16c-.553 0-1 .448-1 1v7.78c-5.957 3.612-9.64 10.5-9.64 18.15 0 2.808.489 5.521 1.453 8.062 1.56 4.157 4.354 7.678 7.871 9.913.16.102.346.156.536.156h16.93c.187 0 .37-.052.529-.151 3.991-2.488 6.953-6.533 8.356-11.395.02-.046.032-.093.044-.142zm-20.919-39.592h7.05v6.22h-7.05zm10.21 8.22v6.34h-13.37v-6.34zm-14.104 8.34h14.844c7.98 4.553 10.121 14.397 8.154 22.046l-1.733.672c-4.02 1.554-6.94.039-10.032-1.566-3.333-1.729-7.108-3.69-12.284-1.36l-6.863 3.135c-.645-2.02-.991-4.141-.991-6.336 0-7.051 3.405-13.381 8.905-16.59zm15.594 32.72h-16.343c-2.796-1.849-5.056-4.63-6.471-7.912l6.995-3.196c4.285-1.931 7.182-.427 10.536 1.314 2.246 1.166 4.702 2.441 7.653 2.441 1.245 0 2.579-.227 4.021-.785l.206-.08c-1.384 3.447-3.667 6.317-6.599 8.218z"/><path d="m37.312 28.102c2.791 1.569 4.918 4.259 5.989 7.576.137.423.528.693.951.693.102 0 .205-.016.308-.049.525-.17.813-.733.644-1.259-1.226-3.797-3.68-6.888-6.911-8.705-.483-.272-1.092-.1-1.362.381s-.1 1.091.382 1.362z"/></g></svg>