<svg id="Capa_1" enable-background="new 0 0 512 512" height="512" viewBox="0 0 512 512" width="512" xmlns="http://www.w3.org/2000/svg"><g><path d="m33.764 292.366c0-122.738 99.499-222.236 222.236-222.236s222.236 99.498 222.236 222.236z" fill="#30569f"/><path d="m430.011 242.278c-2.509 2.906-6.363 4.283-10.097 3.388-44.09-10.565-89.342-15.931-134.697-15.931h-58.435c-45.354 0-90.607 5.366-134.696 15.931-3.733.895-7.587-.483-10.097-3.388-6.696-7.754-16.58-12.543-27.519-12.543h-11.743c-5.825 19.866-8.963 40.88-8.963 62.63h444.471c0-21.75-3.139-42.764-8.963-62.63h-11.744c-10.938.001-20.821 4.79-27.517 12.543z" fill="#26447e"/><g><path d="m424.503 273.869 47.672 12.436v62.63h-432.35v-62.63l47.672-12.436c45.478-11.864 92.286-17.869 139.286-17.869h58.434c47 0 93.808 6.005 139.286 17.869z" fill="#f6e266"/><path d="m419.618 272.636-6.223 38.168c-1.115 6.842-7.026 11.867-13.958 11.867h-286.874c-6.932 0-12.843-5.025-13.958-11.867l-6.223-38.168c-1.629.409-3.26.809-4.885 1.233l-47.672 12.436v62.63h432.35v-62.63l-47.672-12.436c-1.626-.424-3.257-.824-4.885-1.233z" fill="#ffd064"/><path d="m447.559 264.476-12.389 75.983c-.797 4.887-5.018 8.476-9.97 8.476h-338.401c-4.952 0-9.173-3.589-9.97-8.476l-12.388-75.983c-.797-4.887-5.018-8.476-9.97-8.476h-36.869c-5.579 0-10.102 4.523-10.102 10.102v165.667c0 5.579 4.523 10.102 10.102 10.102h476.797c5.579 0 10.102-4.523 10.102-10.102v-165.667c0-5.579-4.523-10.102-10.102-10.102h-36.869c-4.953 0-9.174 3.589-9.971 8.476z" fill="#4172ca"/><path d="m472.175 256v129.301c0 13.39-10.854 24.244-24.244 24.244h-440.431v22.224c0 5.579 4.523 10.102 10.102 10.102h476.797c5.579 0 10.102-4.523 10.102-10.102v-165.667c0-5.579-4.523-10.102-10.102-10.102z" fill="#3a67c1"/></g><g><path d="m494.4 248.5h-12.856c-9.812-50.652-36.683-96.857-76.153-130.671-41.551-35.596-94.606-55.199-149.391-55.199-52.892 0-104.521 18.413-145.379 51.846-3.206 2.623-3.678 7.348-1.055 10.554s7.349 3.678 10.554 1.055c38.185-31.247 86.442-48.455 135.88-48.455 51.208 0 100.797 18.322 139.632 51.591 36.157 30.975 61.006 73.062 70.618 119.279h-8.721c-8.666 0-15.972 6.211-17.372 14.773l-1.083 6.643-12.673-3.303c-19.678-5.129-39.839-9.225-59.922-12.173-4.104-.6-7.908 2.232-8.51 6.331-.602 4.098 2.233 7.908 6.331 8.51 19.544 2.869 39.166 6.855 58.317 11.847l14.032 3.657-8.882 54.465c-.207 1.264-1.287 2.181-2.568 2.181h-338.399c-1.281 0-2.361-.917-2.567-2.177l-8.882-54.468 14.034-3.658c44.814-11.696 91.044-17.627 137.406-17.627h58.42c14.836 0 29.911.621 44.806 1.845 4.126.35 7.75-2.732 8.089-6.86s-2.732-7.75-6.86-8.089c-15.302-1.258-30.79-1.896-46.034-1.896h-58.42c-47.639 0-95.143 6.094-141.191 18.113l-12.673 3.303-1.084-6.646c-1.4-8.558-8.706-14.77-17.372-14.77h-8.719c7.629-36.74 24.792-70.823 49.965-99.037 2.758-3.09 2.488-7.832-.603-10.589-3.09-2.758-7.832-2.488-10.589.603-27.628 30.964-46.237 68.542-54.07 109.023h-12.856c-9.705 0-17.6 7.896-17.6 17.6v165.67c0 9.705 7.896 17.6 17.6 17.6h94.14c4.142 0 7.5-3.358 7.5-7.5s-3.358-7.5-7.5-7.5h-94.14c-1.434 0-2.6-1.167-2.6-2.6v-165.671c0-1.434 1.167-2.6 2.6-2.6h36.87c1.28 0 2.36.921 2.567 2.187l12.391 75.983c1.399 8.552 8.705 14.76 17.372 14.76h338.4c8.667 0 15.973-6.208 17.372-14.763l12.39-75.977c.208-1.269 1.288-2.19 2.568-2.19h36.87c1.434 0 2.6 1.167 2.6 2.6v165.67c0 1.434-1.167 2.6-2.6 2.6h-347.66c-4.142 0-7.5 3.358-7.5 7.5s3.358 7.5 7.5 7.5h347.66c9.705 0 17.6-7.896 17.6-17.6v-165.67c0-9.704-7.896-17.6-17.6-17.6z"/><path d="m244.636 139.074c1.464 1.464 3.384 2.197 5.303 2.197s3.839-.732 5.303-2.197l.758-.758.758.758c1.464 1.464 3.384 2.197 5.303 2.197s3.839-.732 5.303-2.197c2.929-2.929 2.929-7.678 0-10.606l-.758-.758.758-.758c2.929-2.929 2.929-7.678 0-10.606-2.929-2.929-7.678-2.929-10.606 0l-.758.757-.758-.758c-2.929-2.929-7.678-2.929-10.606 0-2.929 2.929-2.929 7.678 0 10.606l.758.758-.758.758c-2.929 2.929-2.929 7.678 0 10.607z"/><path d="m314.337 178.975c1.464 1.464 3.384 2.197 5.303 2.197s3.839-.732 5.303-2.197l.758-.758.758.758c1.464 1.464 3.384 2.197 5.303 2.197s3.839-.732 5.303-2.197c2.929-2.929 2.929-7.678 0-10.606l-.758-.758.758-.758c2.929-2.929 2.929-7.678 0-10.606-2.929-2.929-7.678-2.929-10.606 0l-.758.758-.758-.758c-2.929-2.929-7.678-2.929-10.606 0-2.929 2.929-2.929 7.678 0 10.606l.758.758-.758.758c-2.929 2.928-2.929 7.677 0 10.606z"/><path d="m244.636 218.876c1.464 1.464 3.384 2.197 5.303 2.197s3.839-.732 5.303-2.197l.758-.758.758.758c1.464 1.464 3.384 2.197 5.303 2.197s3.839-.732 5.303-2.197c2.929-2.929 2.929-7.678 0-10.606l-.758-.758.758-.758c2.929-2.929 2.929-7.678 0-10.606-2.929-2.929-7.678-2.929-10.606 0l-.758.758-.758-.758c-2.929-2.929-7.678-2.929-10.606 0-2.929 2.929-2.929 7.678 0 10.606l.758.758-.758.758c-2.929 2.929-2.929 7.678 0 10.606z"/><path d="m375.957 218.876c1.464 1.464 3.384 2.197 5.303 2.197s3.839-.732 5.303-2.197l.758-.758.758.758c1.464 1.464 3.384 2.197 5.303 2.197s3.839-.732 5.303-2.197c2.929-2.929 2.929-7.678 0-10.606l-.758-.758.758-.758c2.929-2.929 2.929-7.678 0-10.606-2.929-2.929-7.678-2.929-10.606 0l-.758.758-.758-.758c-2.929-2.929-7.678-2.929-10.606 0-2.929 2.929-2.929 7.678 0 10.606l.758.758-.758.758c-2.929 2.929-2.929 7.678 0 10.606z"/><path d="m174.935 178.975c1.464 1.464 3.384 2.197 5.303 2.197s3.839-.732 5.303-2.197l.758-.758.758.758c1.464 1.464 3.384 2.197 5.303 2.197s3.839-.732 5.303-2.197c2.929-2.929 2.929-7.678 0-10.606l-.758-.758.758-.758c2.929-2.929 2.929-7.678 0-10.606-2.929-2.929-7.678-2.929-10.606 0l-.758.758-.758-.758c-2.929-2.929-7.678-2.929-10.606 0-2.929 2.929-2.929 7.678 0 10.606l.758.758-.758.758c-2.93 2.928-2.93 7.677 0 10.606z"/><path d="m113.314 218.876c1.464 1.464 3.384 2.197 5.303 2.197s3.839-.732 5.303-2.197l.758-.758.758.758c1.464 1.464 3.384 2.197 5.303 2.197s3.839-.732 5.303-2.197c2.929-2.929 2.929-7.678 0-10.606l-.758-.758.758-.758c2.929-2.929 2.929-7.678 0-10.606-2.929-2.929-7.678-2.929-10.606 0l-.758.758-.758-.758c-2.929-2.929-7.678-2.929-10.606 0-2.929 2.929-2.929 7.678 0 10.606l.758.758-.758.758c-2.929 2.929-2.929 7.678 0 10.606z"/></g></g></svg>