<svg id="Capa_1" enable-background="new 0 0 512 512" height="512" viewBox="0 0 512 512" width="512" xmlns="http://www.w3.org/2000/svg"><g><g><path d="m72.521 219.66c0-17.853 14.473-32.326 32.326-32.326 0-13.39 10.855-24.244 24.244-24.244 5.497 0 10.565 1.832 14.632 4.916 2.688-1.996 6.007-3.191 9.612-3.191 7.667 0 14.073 5.344 15.732 12.507.144-.003.286-.011.431-.011 9.054 0 16.943 4.967 21.107 12.321 1.441-.196 2.91-.307 4.405-.307 16.562 0 30.207 12.458 32.094 28.513l.235 1.822z" fill="#b36d3c"/></g><g><path d="m176.849 178.46c-7.744 13.753-18.311 27.735-31.352 40.777-.144.144-.29.28-.434.423h82.277l-.235-1.822c-1.888-16.055-15.532-28.513-32.094-28.513-1.495 0-2.964.11-4.405.307-2.984-5.272-7.888-9.304-13.757-11.172z" fill="#995e34"/></g><g><path d="m484.298 393.411h-456.596c-12.295 0-21.739-10.89-20.001-23.061l14.431-101.019c1.422-9.953 9.946-17.346 20.001-17.346h427.734c10.054 0 18.579 7.393 20.001 17.346l14.431 101.019c1.739 12.172-7.706 23.061-20.001 23.061z" fill="#e175a5"/></g><g><path d="m504.299 370.351-14.431-101.019c-1.422-9.953-9.946-17.347-20.001-17.347h-32.326c10.055 0 18.579 7.393 20.001 17.347l14.431 101.019c1.739 12.171-7.706 23.061-20.001 23.061h32.326c12.295-.001 21.74-10.89 20.001-23.061z" fill="#de5791"/></g><g><path d="m451.976 251.985h-179.813v-22.224c0-5.579 4.523-10.102 10.102-10.102h159.609c5.579 0 10.102 4.523 10.102 10.102z" fill="#c5d3dd"/></g><g><path d="m441.874 219.66h-28.285c5.579 0 10.102 4.523 10.102 10.102v22.224h28.285v-22.224c0-5.58-4.523-10.102-10.102-10.102z" fill="#b6c4cf"/></g><g><path d="m60.024 251.985h179.813v-22.224c0-5.579-4.523-10.102-10.102-10.102h-159.609c-5.579 0-10.102 4.523-10.102 10.102z" fill="#c5d3dd"/></g><g><path d="m229.735 219.66h-28.285c5.579 0 10.102 4.523 10.102 10.102v22.224h28.285v-22.224c0-5.58-4.523-10.102-10.102-10.102z" fill="#b6c4cf"/></g><g><path d="m319.642 339.872h-127.284c-4.463 0-8.081-3.618-8.081-8.081v-18.183c0-4.463 3.618-8.082 8.081-8.082h127.283c4.463 0 8.081 3.618 8.081 8.082v18.183c.001 4.462-3.617 8.081-8.08 8.081z" fill="#f6e266"/></g><g><path d="m362.07 187.334c14.827 0 26.846-12.019 26.846-26.846 0-12.695-11.09-28.507-19.014-38.185-4.056-4.953-11.608-4.953-15.664 0-7.924 9.678-19.014 25.49-19.014 38.185 0 14.826 12.019 26.846 26.846 26.846z" fill="#91dafa"/></g><g><path d="m380.52 137.088c-1.047 17.347-15.441 31.094-33.052 31.094-4.105 0-8.034-.752-11.662-2.118 2.568 12.149 13.348 21.269 26.262 21.269 14.827 0 26.846-12.019 26.846-26.846.001-7.353-3.722-15.751-8.394-23.399z" fill="#75cff9"/></g><g><path d="m192.359 313.02h24.418c4.143 0 7.5-3.358 7.5-7.5s-3.357-7.5-7.5-7.5h-24.418c-8.591 0-15.58 6.994-15.58 15.591v18.18c0 8.591 6.989 15.58 15.58 15.58h127.282c8.591 0 15.58-6.989 15.58-15.58v-18.18c0-8.597-6.989-15.591-15.58-15.591h-67.864c-4.143 0-7.5 3.358-7.5 7.5s3.357 7.5 7.5 7.5h67.864c.32 0 .58.265.58.591v18.18c0 .32-.26.58-.58.58h-127.282c-.32 0-.58-.26-.58-.58v-18.18c0-.326.26-.591.58-.591z"/><path d="m511.721 369.291-14.43-101.021c-1.935-13.557-13.725-23.781-27.425-23.781h-10.391v-14.731c0-9.704-7.896-17.6-17.6-17.6h-86.892c-4.143 0-7.5 3.357-7.5 7.5s3.357 7.5 7.5 7.5h86.892c1.434 0 2.6 1.166 2.6 2.6v14.731h-164.814v-14.731c0-1.434 1.166-2.6 2.6-2.6h37.722c4.143 0 7.5-3.357 7.5-7.5s-3.358-7.5-7.5-7.5h-37.723c-9.704 0-17.6 7.896-17.6 17.6v14.731h-17.324v-14.728c0-8.305-5.789-15.269-13.54-17.11-4.158-18.058-20.435-31.157-39.433-30.822-4.956-6.236-12.1-10.402-19.961-11.637-3.956-7.794-11.974-12.878-21.067-12.878-3.274 0-6.453.666-9.4 1.95-4.544-2.416-9.594-3.676-14.844-3.676-15.125 0-27.813 10.632-30.983 24.815-16.519 2.826-29.593 15.864-32.485 32.361-7.528 1.997-13.101 8.849-13.101 16.997v14.728h-10.387c-13.701 0-25.491 10.224-27.425 23.78l-14.431 101.021c-1.137 7.955 1.23 15.999 6.494 22.07 5.265 6.071 12.894 9.553 20.931 9.553h387.579c4.143 0 7.5-3.357 7.5-7.5s-3.357-7.5-7.5-7.5h-387.578c-3.687 0-7.185-1.597-9.599-4.38-2.413-2.783-3.498-6.472-2.977-10.12l14.43-101.023c.887-6.214 6.293-10.9 12.575-10.9h427.731c6.282 0 11.689 4.686 12.575 10.901l14.43 101.023c.522 3.648-.563 7.336-2.977 10.119s-5.912 4.38-9.599 4.38h-34.011c-4.143 0-7.5 3.358-7.5 7.5s3.358 7.5 7.5 7.5h34.011c8.037 0 15.666-3.482 20.931-9.553 5.266-6.07 7.632-14.115 6.496-22.069zm-406.874-174.457c4.143 0 7.5-3.357 7.5-7.5 0-9.233 7.512-16.745 16.745-16.745 3.681 0 7.174 1.173 10.101 3.393 2.656 2.015 6.326 2.033 9.002.045 1.509-1.12 3.286-1.712 5.141-1.712 4.048 0 7.513 2.755 8.426 6.699.801 3.457 3.904 5.847 7.46 5.806l.277-.01c6.02 0 11.607 3.263 14.58 8.516 1.512 2.671 4.505 4.146 7.538 3.736 1.16-.158 2.302-.238 3.393-.238 10.244 0 19.168 6.238 22.93 15.335h-136.758c3.187-10.033 12.59-17.325 23.665-17.325zm-37.323 34.928c0-1.435 1.167-2.602 2.602-2.602h159.609c1.435 0 2.602 1.167 2.602 2.602v14.728h-164.813z"/><path d="m362.07 194.834c18.938 0 34.345-15.408 34.345-34.346 0-14.581-11.263-31.397-20.71-42.937-3.363-4.108-8.332-6.464-13.634-6.464-.001 0-.001 0-.001 0-5.302 0-10.272 2.356-13.636 6.464-9.447 11.54-20.71 28.358-20.71 42.937-.001 18.938 15.407 34.346 34.346 34.346zm-2.03-67.78c.689-.841 1.566-.967 2.029-.967.462 0 1.34.126 2.028.966 11.005 13.442 17.317 25.628 17.317 33.434 0 10.667-8.678 19.346-19.345 19.346s-19.346-8.679-19.346-19.346c.001-7.804 6.312-19.991 17.317-33.433z"/></g></g></svg>