<svg id="Capa_1" enable-background="new 0 0 512 512" height="512" viewBox="0 0 512 512" width="512" xmlns="http://www.w3.org/2000/svg"><g><g><path d="m19.623 105.486h472.754v366.688h-472.754z" fill="#4172ca"/></g><g><path d="m146.903 105.486v22.223c0 25.622 20.845 46.467 46.467 46.467h125.26c25.622 0 46.467-20.845 46.467-46.467v-22.223z" fill="#3a67c1"/></g><g><path d="m466.113 105.486h26.264v366.688h-26.264z" fill="#3a67c1"/></g><g><path d="m244.383 192.867h217.184v214.153h-217.184z" fill="#91dafa" transform="matrix(0 1 -1 0 652.919 -53.032)"/></g><g><path d="m339.338 287.821h217.184v24.244h-217.184z" fill="#75cff9" transform="matrix(0 1 -1 0 747.873 -147.987)"/></g><g><path d="m496.418 105.486h-480.836c-4.463 0-8.081-3.618-8.081-8.081v-16.163c0-4.463 3.618-8.081 8.081-8.081h480.835c4.463 0 8.081 3.618 8.081 8.081v16.163c.001 4.463-3.617 8.081-8.08 8.081z" fill="#d3effd"/></g><g><path d="m146.903 90.333v15.152h218.194v-14.112c0-6.201-.522-12.283-1.509-18.212h-215.329c-.889 5.596-1.356 11.33-1.356 17.172z" fill="#b2e5fb"/></g><g><path d="m496.418 73.161h-28.284c4.463 0 8.081 3.618 8.081 8.081v16.163c0 4.463-3.618 8.081-8.081 8.081h28.284c4.463 0 8.081-3.618 8.081-8.081v-16.163c0-4.463-3.618-8.081-8.081-8.081z" fill="#b2e5fb"/></g><g><path d="m496.418 504.499h-480.836c-4.463 0-8.081-3.618-8.081-8.081v-16.163c0-4.463 3.618-8.081 8.081-8.081h480.835c4.463 0 8.081 3.618 8.081 8.081v16.163c.001 4.463-3.617 8.081-8.08 8.081z" fill="#d3effd"/></g><g><path d="m496.418 472.174h-28.284c4.463 0 8.081 3.618 8.081 8.081v16.163c0 4.463-3.618 8.081-8.081 8.081h28.284c4.463 0 8.081-3.618 8.081-8.081v-16.163c0-4.463-3.618-8.081-8.081-8.081z" fill="#b2e5fb"/></g><g><path d="m256.628 7.503c45.673.339 82.205 38.197 82.205 83.87v36.336c0 11.158-9.045 20.203-20.203 20.203h-125.26c-11.158 0-20.203-9.045-20.203-20.203v-37.376c0-45.956 37.426-83.172 83.461-82.83z" fill="#f6e266"/></g><g><path d="m256.628 7.503c-4.684-.035-9.272.339-13.748 1.051 39.652 6.418 69.688 41.405 69.688 82.819v36.336c0 11.158-9.045 20.203-20.203 20.203h26.264c11.158 0 20.203-9.045 20.203-20.203v-36.336c.001-45.674-36.531-83.532-82.204-83.87z" fill="#ffd064"/></g><g><g><path d="m269.469 115.587c7.439 0 13.469-6.03 13.469-13.469 0-14.877-12.06-26.938-26.938-26.938s-26.938 12.06-26.938 26.938c0 7.439 6.03 13.469 13.469 13.469z" fill="#edf6ff"/></g></g><g><path d="m51.948 191.351h161.625v280.822h-161.625z" fill="#b36d3c"/></g><g><path d="m189.33 191.351h24.244v280.822h-24.244z" fill="#995e34"/></g><g><path d="m84.273 279.235v-48.488c0-4.463 3.618-8.081 8.081-8.081h80.813c4.463 0 8.081 3.618 8.081 8.081v48.488c0 4.463-3.618 8.081-8.081 8.081h-80.813c-4.463 0-8.081-3.618-8.081-8.081z" fill="#91dafa"/></g><g><path d="m173.167 222.666h-26.264c4.463 0 8.081 3.618 8.081 8.081v48.488c0 4.463-3.618 8.081-8.081 8.081h26.264c4.463 0 8.081-3.618 8.081-8.081v-48.488c0-4.463-3.618-8.081-8.081-8.081z" fill="#75cff9"/></g><g><path d="m84.273 376.21v-48.488c0-4.463 3.618-8.081 8.081-8.081h16.163c4.463 0 8.081 3.618 8.081 8.081v48.488c0 4.463-3.618 8.081-8.081 8.081h-16.163c-4.463.001-8.081-3.618-8.081-8.081z" fill="#f6e266"/></g><g><path d="m379.239 256.001h-52.528c-3.347 0-6.061-2.714-6.061-6.061v-20.203c0-3.347 2.714-6.061 6.061-6.061h52.528c3.347 0 6.061 2.714 6.061 6.061v20.203c0 3.348-2.713 6.061-6.061 6.061z" fill="#edf6ff"/></g><g><path d="m467.552 408.535v-217.183c0-4.142-3.357-7.5-7.5-7.5h-214.154c-4.142 0-7.5 3.358-7.5 7.5v217.184c0 4.142 3.358 7.5 7.5 7.5h214.153c4.143-.001 7.501-3.359 7.501-7.501zm-15-7.5h-199.154v-202.183h199.153v202.183z"/><path d="m512 97.401v-16.16c0-8.591-6.989-15.58-15.58-15.58h-51.23c-4.143 0-7.5 3.358-7.5 7.5s3.357 7.5 7.5 7.5h51.229c.32 0 .58.26.58.58v16.16c0 .325-.255.58-.58.58h-150.086v-6.608c0-3.622-.217-7.196-.628-10.711h64.485c4.143 0 7.5-3.358 7.5-7.5s-3.357-7.5-7.5-7.5h-67.524c-10.975-37.627-45.365-65.357-85.983-65.659-.23-.002-.459-.003-.689-.003-24.005 0-46.58 9.296-63.63 26.22-11.206 11.123-19.109 24.661-23.279 39.44h-153.502c-8.592 0-15.582 6.99-15.582 15.581v16.163c0 7.401 5.192 13.602 12.122 15.181v352.485c-6.93 1.579-12.123 7.784-12.123 15.19v16.16c0 8.591 6.989 15.58 15.58 15.58h480.84c8.591 0 15.58-6.989 15.58-15.58v-16.16c0-7.406-5.193-13.61-12.123-15.19v-352.488c6.93-1.579 12.123-7.779 12.123-15.181zm-331.333-7.068c0-20.228 7.907-39.216 22.264-53.467 14.219-14.114 33.044-21.866 53.066-21.866.191 0 .384.001.576.002 41.224.306 74.761 34.565 74.761 76.371v36.336c0 7.004-5.698 12.703-12.703 12.703h-125.261c-7.004 0-12.703-5.699-12.703-12.703zm-165.666-9.091c0-.32.261-.581.582-.581h150.606c-.337 3.192-.522 6.417-.522 9.673v7.652h-150.084c-.321 0-.582-.261-.582-.582zm481.999 415.178c0 .32-.26.58-.58.58h-480.84c-.32 0-.58-.26-.58-.58v-16.16c0-.325.26-.59.58-.59h352.52c4.143 0 7.5-3.358 7.5-7.5s-3.357-7.5-7.5-7.5h-147.03v-273.318c0-4.142-3.358-7.5-7.5-7.5h-161.62c-4.142 0-7.5 3.358-7.5 7.5v68.34c0 4.142 3.358 7.5 7.5 7.5s7.5-3.358 7.5-7.5v-60.84h146.62v265.818h-146.62v-169.979c0-4.142-3.358-7.5-7.5-7.5s-7.5 3.358-7.5 7.5v169.979h-17.327v-351.684h138.544v14.723c0 15.275 12.428 27.703 27.703 27.703h125.26c15.275 0 27.703-12.428 27.703-27.703v-14.728h138.544v351.689h-81.777c-4.143 0-7.5 3.358-7.5 7.5s3.357 7.5 7.5 7.5h93.32c.32 0 .58.265.58.59z"/><path d="m242.531 123.087h26.938c11.562 0 20.969-9.407 20.969-20.969 0-18.989-15.448-34.438-34.437-34.438s-34.438 15.449-34.438 34.438c-.001 11.563 9.406 20.969 20.968 20.969zm13.469-40.406c10.718 0 19.437 8.72 19.437 19.438 0 3.291-2.678 5.969-5.969 5.969h-26.938c-3.291 0-5.969-2.678-5.969-5.969.001-10.719 8.721-19.438 19.439-19.438z"/><ellipse cx="210.543" cy="65.079" rx="8.081" ry="8.081" transform="matrix(.707 -.707 .707 .707 15.649 167.938)"/><ellipse cx="236.805" cy="43.866" rx="8.081" ry="8.081" transform="matrix(.707 -.707 .707 .707 38.341 180.294)"/><ellipse cx="301.457" cy="65.079" rx="8.081" ry="8.081" transform="matrix(.973 -.23 .23 .973 -6.888 71.001)"/><ellipse cx="275.195" cy="43.866" rx="8.081" ry="8.081" transform="matrix(.973 -.23 .23 .973 -2.717 64.4)"/><path d="m92.354 294.816h80.812c8.592 0 15.582-6.99 15.582-15.581v-48.488c0-8.591-6.99-15.581-15.582-15.581h-80.812c-8.592 0-15.582 6.99-15.582 15.581v48.488c.001 8.592 6.991 15.581 15.582 15.581zm-.581-64.068c0-.32.261-.581.582-.581h80.812c.321 0 .582.261.582.581v48.488c0 .32-.261.581-.582.581h-80.813c-.321 0-.582-.261-.582-.581v-48.488z"/><path d="m92.354 391.792h16.163c8.591 0 15.581-6.99 15.581-15.581v-48.488c0-8.591-6.99-15.581-15.581-15.581h-16.163c-8.592 0-15.582 6.99-15.582 15.581v48.488c.001 8.591 6.991 15.581 15.582 15.581zm-.581-64.069c0-.32.261-.581.582-.581h16.163c.32 0 .581.261.581.581v48.488c0 .32-.261.581-.581.581h-16.164c-.321 0-.582-.261-.582-.581v-48.488z"/><path d="m326.711 263.501h52.528c7.478 0 13.561-6.083 13.561-13.561v-20.203c0-7.478-6.083-13.561-13.561-13.561h-52.528c-7.478 0-13.561 6.083-13.561 13.561v20.203c0 7.478 6.083 13.561 13.561 13.561zm1.439-32.325h49.65v17.325h-49.65z"/><path d="m282.296 382.523c1.465 1.464 3.385 2.197 5.304 2.197s3.839-.732 5.304-2.197c2.929-2.929 2.929-7.678 0-10.606l-10.102-10.102c-2.93-2.929-7.678-2.929-10.607 0s-2.929 7.678 0 10.606z"/><path d="m313.469 367.514c1.465 1.464 3.385 2.197 5.304 2.197s3.839-.732 5.304-2.197c2.929-2.929 2.929-7.678 0-10.606l-26.265-26.264c-2.93-2.929-7.678-2.929-10.607 0s-2.929 7.678 0 10.606z"/></g></g></svg>