<svg id="Capa_1" enable-background="new 0 0 512 512" height="512" viewBox="0 0 512 512" width="512" xmlns="http://www.w3.org/2000/svg"><g><g><path d="m299.365 386.239 14.286 14.286c1.894 1.894 4.464 2.959 7.143 2.959h126.884c.739-1.852 1.157-3.867 1.157-5.982 0-8.926-7.236-16.163-16.163-16.163-.64 0-1.268.047-1.889.119-1.888-16.054-15.532-28.512-32.094-28.512-1.495 0-2.963.11-4.404.307-4.163-7.354-12.053-12.32-21.107-12.32-.145 0-.287.008-.431.011-1.659-7.163-8.065-12.507-15.732-12.507-3.605 0-6.923 1.195-9.612 3.191-4.067-3.084-9.135-4.916-14.632-4.916-13.39 0-24.244 10.854-24.244 24.244-17.853 0-32.325 14.473-32.325 32.325h16.019c2.68-.001 5.25 1.064 7.144 2.958z" fill="#b36d3c"/></g><g><path d="m432.672 381.339c-.64 0-1.268.047-1.889.119-1.888-16.054-15.532-28.512-32.094-28.512-.053 0-.105.005-.158.006-.532 19.98-9.267 37.909-22.981 50.532h72.127c.739-1.852 1.157-3.867 1.157-5.982.001-8.927-7.235-16.163-16.162-16.163z" fill="#995e34"/></g><g><path d="m276.203 201.566v-149.619c0-6.695-5.427-12.122-12.122-12.122h-244.459c-6.695 0-12.122 5.427-12.122 12.122v149.619z" fill="#edf6ff"/></g><g><path d="m247.919 51.947v149.619h28.285v-149.619c0-6.695-5.427-12.122-12.122-12.122h-28.285c6.695 0 12.122 5.427 12.122 12.122z" fill="#ddebfd"/></g><g><path d="m263.071 39.825h-242.439v-22.223c0-5.579 4.523-10.102 10.102-10.102h222.236c5.579 0 10.102 4.523 10.102 10.102v22.223z" fill="#d6f6b2"/></g><g><path d="m252.97 7.5h-28.285c5.579 0 10.102 4.523 10.102 10.102v22.224h28.285v-22.224c-.001-5.579-4.523-10.102-10.102-10.102z" fill="#b3e59f"/></g><g><path d="m313.651 400.525-14.286-14.286c-1.894-1.894-4.464-2.959-7.143-2.959h-284.722v111.118c0 5.579 4.523 10.102 10.102 10.102h476.797c5.579 0 10.102-4.523 10.102-10.102v-80.813c0-5.579-4.523-10.102-10.102-10.102h-173.605c-2.679.001-5.249-1.064-7.143-2.958z" fill="#d6f6b2"/></g><g><path d="m494.398 403.484h-31.315c5.579 0 10.102 4.523 10.102 10.102v80.813c0 5.579-4.523 10.102-10.102 10.102h31.315c5.579 0 10.102-4.523 10.102-10.102v-80.813c0-5.58-4.523-10.102-10.102-10.102z" fill="#b3e59f"/></g><g><path d="m7.5 185.404c0-8.926 7.236-16.163 16.163-16.163 2.412 0 4.692.543 6.748 1.49 5.347-10.475 16.232-17.653 28.801-17.653 12.628 0 23.558 7.246 28.877 17.803 2.719-1.055 5.673-1.64 8.765-1.64 3.094 0 6.05.586 8.77 1.642 2.001-6.653 8.168-11.502 15.474-11.502 2.541 0 4.935.603 7.074 1.647 5.318-10.561 16.25-17.81 28.881-17.81 15.701 0 28.782 11.196 31.709 26.038.205-.005.41-.016.616-.016 3.62 0 7.051.799 10.135 2.221 2.765-4.943 8.043-8.289 14.109-8.289 6.719 0 12.477 4.101 14.916 9.935 4.565-2.466 9.789-3.867 15.341-3.867 17.853 0 32.325 14.473 32.325 32.325v181.715h-268.704z" fill="#b36d3c"/></g><g><path d="m247.919 169.501v213.779h28.285v-181.714c-.001-16.483-12.341-30.075-28.285-32.065z" fill="#995e34"/></g><g><circle cx="199.082" cy="319.548" fill="#804e2b" r="16.163"/></g><g><circle cx="126.699" cy="272.163" fill="#804e2b" r="16.163"/></g><g><circle cx="141.852" cy="443.89" fill="#f6e266" r="24.244"/></g><g><path d="m64.069 237.314c4.142 0 7.5-3.357 7.5-7.5 0-2.549 2.073-4.622 4.622-4.622 4.142 0 7.5-3.357 7.5-7.5s-3.358-7.5-7.5-7.5c-10.819 0-19.622 8.803-19.622 19.622 0 4.143 3.358 7.5 7.5 7.5z"/><path d="m214.112 227.212c2.549 0 4.622 2.073 4.622 4.622 0 4.143 3.358 7.5 7.5 7.5s7.5-3.357 7.5-7.5c0-10.819-8.802-19.622-19.622-19.622-4.142 0-7.5 3.357-7.5 7.5s3.358 7.5 7.5 7.5z"/><path d="m140.659 206.931c2.549 0 4.622 2.073 4.622 4.622 0 4.143 3.358 7.5 7.5 7.5s7.5-3.357 7.5-7.5c0-10.819-8.802-19.622-19.622-19.622-4.142 0-7.5 3.357-7.5 7.5s3.358 7.5 7.5 7.5z"/><path d="m199.082 343.21c13.047 0 23.663-10.615 23.663-23.662 0-13.048-10.615-23.663-23.663-23.663s-23.663 10.615-23.663 23.663c0 13.047 10.615 23.662 23.663 23.662zm0-32.325c4.776 0 8.663 3.887 8.663 8.663s-3.886 8.662-8.663 8.662-8.663-3.886-8.663-8.662 3.886-8.663 8.663-8.663z"/><path d="m126.699 295.825c13.047 0 23.663-10.615 23.663-23.662 0-13.048-10.615-23.663-23.663-23.663s-23.663 10.615-23.663 23.663c.001 13.047 10.616 23.662 23.663 23.662zm0-32.325c4.776 0 8.663 3.887 8.663 8.663s-3.886 8.662-8.663 8.662-8.663-3.886-8.663-8.662 3.887-8.663 8.663-8.663z"/><path d="m47.641 304.517c3.347 0 6.061-2.714 6.061-6.061s-2.714-6.061-6.061-6.061-6.061 2.714-6.061 6.061c0 3.348 2.714 6.061 6.061 6.061z"/><path d="m47.641 340.639c3.347 0 6.061-2.714 6.061-6.061s-2.714-6.061-6.061-6.061-6.061 2.714-6.061 6.061 2.714 6.061 6.061 6.061z"/><circle cx="85.273" cy="344.964" r="6.061"/><path d="m494.4 395.98h-38.133c-.697-10.899-8.788-19.82-19.31-21.753-4.82-16.786-20.278-28.781-38.267-28.781-.215 0-.431.002-.647.006-4.956-6.235-12.1-10.401-19.96-11.637-3.956-7.795-11.973-12.879-21.067-12.879-3.273 0-6.453.666-9.399 1.951-4.545-2.417-9.595-3.677-14.844-3.677-15.125 0-27.812 10.632-30.982 24.814-6.763 1.157-12.943 4.032-18.09 8.149v-300.223c0-8.541-5.496-15.805-13.129-18.493v-15.855c-.001-9.706-7.897-17.602-17.602-17.602h-222.236c-9.706 0-17.602 7.896-17.602 17.602v15.854c-7.635 2.687-13.132 9.952-13.132 18.494v51.25c0 4.143 3.358 7.5 7.5 7.5s7.5-3.357 7.5-7.5v-51.25c0-2.548 2.073-4.62 4.62-4.62h244.46c2.547 0 4.62 2.072 4.62 4.62v118.499c-6.813-5.446-15.443-8.708-24.822-8.708-4.237 0-8.451.681-12.454 1.995-4.411-5.044-10.842-8.062-17.803-8.062-6.36 0-12.366 2.568-16.749 6.959-.762-.186-1.531-.342-2.306-.47-5.569-15.619-20.522-26.444-37.515-26.444-12.967 0-24.833 6.173-32.251 16.453-1.218-.193-2.453-.291-3.703-.291-7.849 0-15.101 3.979-19.451 10.223-3.322-.506-6.763-.479-10.076.078-7.411-10.37-19.331-16.604-32.359-16.604-12.926 0-24.785 6.154-32.209 16.399-1.101-.157-2.215-.236-3.339-.236-3.058 0-5.977.592-8.663 1.653v-25.194c0-4.143-3.358-7.5-7.5-7.5s-7.5 3.358-7.5 7.5v356.2c0 9.704 7.896 17.6 17.6 17.6h56.23c4.142 0 7.5-3.357 7.5-7.5s-3.358-7.5-7.5-7.5h-56.23c-1.434 0-2.6-1.166-2.6-2.6v-103.62h277.22c.699 0 1.354.271 1.845.762l14.296 14.306c3.328 3.31 7.742 5.133 12.429 5.133h65.21c4.142 0 7.5-3.357 7.5-7.5s-3.358-7.5-7.5-7.5h-65.21c-.696 0-1.354-.272-1.835-.752l-14.281-14.291c-3.325-3.325-7.748-5.157-12.454-5.157h-7.356c3.187-10.034 12.589-17.325 23.664-17.325 4.142 0 7.5-3.357 7.5-7.5 0-9.232 7.511-16.744 16.744-16.744 3.68 0 7.173 1.173 10.101 3.393 2.656 2.015 6.323 2.032 9 .046 1.51-1.12 3.288-1.713 5.142-1.713 4.047 0 7.512 2.755 8.425 6.699.8 3.455 3.889 5.908 7.459 5.806l.278-.009c6.02 0 11.606 3.263 14.581 8.516 1.512 2.671 4.499 4.146 7.539 3.736 1.16-.158 2.301-.238 3.392-.238 12.583 0 23.177 9.41 24.645 21.888.483 4.111 4.2 7.061 8.316 6.573.397-.046.731-.068 1.021-.068 4.257 0 7.799 3.089 8.52 7.142h-20.191c-4.142 0-7.5 3.357-7.5 7.5s3.358 7.5 7.5 7.5h73.4c1.434 0 2.6 1.171 2.6 2.609v80.808c0 1.434-1.167 2.6-2.6 2.6h-385.57c-4.142 0-7.5 3.357-7.5 7.5s3.358 7.5 7.5 7.5h385.57c9.705 0 17.6-7.896 17.6-17.6v-80.81c0-9.71-7.896-17.61-17.6-17.61zm-466.268-378.378c0-1.435 1.167-2.602 2.602-2.602h222.236c1.435 0 2.602 1.167 2.602 2.602v14.724h-227.44zm-4.469 159.139c1.24 0 2.455.27 3.609.802 3.654 1.685 7.989.184 9.819-3.401 4.271-8.366 12.747-13.563 22.121-13.563 9.429 0 17.928 5.241 22.18 13.678 1.738 3.449 5.809 5.014 9.41 3.617 3.874-1.503 8.234-1.501 12.107.002 1.949.757 4.125.665 6.005-.251 1.879-.917 3.29-2.577 3.893-4.58 1.092-3.629 4.501-6.163 8.292-6.163 1.305 0 2.578.298 3.782.887 3.691 1.803 8.144.303 9.991-3.366 4.25-8.439 12.75-13.683 22.182-13.683 11.826 0 22.067 8.406 24.351 19.989.694 3.521 3.783 6.049 7.356 6.049.06 0 .12-.001.181-.002l.438-.014c2.437 0 4.79.516 6.996 1.532 3.553 1.636 7.773.266 9.685-3.15 1.535-2.744 4.433-4.449 7.563-4.449 3.504 0 6.644 2.091 7.997 5.327.817 1.955 2.422 3.473 4.42 4.179 1.998.707 4.201.533 6.064-.473 3.591-1.94 7.664-2.966 11.776-2.966 13.65 0 24.759 11.074 24.822 24.71v174.328h-253.703v-190.377c0-4.776 3.886-8.662 8.663-8.662z"/><path d="m173.596 443.891c0-17.504-14.24-31.744-31.744-31.744-17.503 0-31.744 14.24-31.744 31.744 0 17.503 14.24 31.743 31.744 31.743 17.503 0 31.744-14.24 31.744-31.743zm-48.488 0c0-9.232 7.511-16.744 16.744-16.744s16.744 7.512 16.744 16.744-7.511 16.743-16.744 16.743-16.744-7.511-16.744-16.743z"/></g></g></svg>