<svg id="Capa_1" enable-background="new 0 0 512.004 512.004" height="512" viewBox="0 0 512.004 512.004" width="512" xmlns="http://www.w3.org/2000/svg"><g><g><path d="m493.435 221.15v93.54c0 6.72-.77 13.43-2.27 19.97l-6.71 28.99-7.66 33.07-12.9 55.67-9.99 43.14c-1.22 5.26-5.9 8.97-11.29 8.97h-60.16c-6.39 0-11.57-5.17-11.59-11.56l-.08-30.45c-.01-3.43-.32-6.81-.94-10.1-2.91-15.87-12.54-29.92-26.67-38.33l-29.14-17.34-7.37-4.39c-8.75-5.2-18.73-7.94-28.91-7.94h-59.03l-20.54 12.33-3.85 2.31-25.73 15.44c-13.94 8.37-23.46 22.25-26.42 37.92-.66 3.42-1 6.92-1 10.47l-.04 30.06c0 6.4-5.19 11.58-11.59 11.58h-60.14c-5.39 0-10.07-3.71-11.29-8.97l-9.99-43.14-12.9-55.67-7.66-33.07-6.71-28.99c-1.5-6.54-2.27-13.25-2.27-19.97v-93.54c0-.63 0-1.27.02-1.9.1-11.17 1.23-22.24 3.35-33.09 3.78-19.52 10.72-38.32 20.58-55.66 3.42-6.06 7.21-11.93 11.34-17.59l11.3-15.49 32.99-45.21 1.8-2.47c4.47-6.13 10.19-11.07 16.69-14.58 7.22-3.9 15.39-6.02 23.83-6.02h231.04c8.44 0 16.61 2.12 23.83 6.02 6.5 3.51 12.22 8.45 16.69 14.58l34.79 47.68 11.3 15.49c4.13 5.66 7.92 11.53 11.34 17.59 9.86 17.34 16.8 36.14 20.58 55.66 2.12 10.85 3.25 21.92 3.35 33.09.02.63.02 1.27.02 1.9z" fill="#f6a96c"/><g fill="#ea9b58"><path d="m195.096 384.394c-55.401 35.571-82.539 32.897-77.583 108.527-.001 6.399-5.193 11.58-11.592 11.58h23.63c6.399 0 11.59-5.181 11.59-11.58l.042-30.058c0-3.548.343-7.054.999-10.477 2.965-15.669 12.485-29.548 26.427-37.913l29.579-17.75 20.538-12.329c-12.555 0-23.63 0-23.63 0z"/><path d="m493.419 219.247c-.104-11.164-1.238-22.234-3.35-33.085-3.787-19.518-10.727-38.319-20.58-55.663-3.423-6.055-7.21-11.934-11.341-17.594l-11.299-15.482-34.792-47.683c-4.474-6.128-10.196-11.07-16.688-14.576-7.22-3.902-15.398-6.024-23.836-6.024h-46.471c26.117.879 44.575 2.669 46.678 6.021 15.965 5.47 40.535 50.629 51.482 62.26 28.367 34.943 47.254 78.202 46.587 123.729-.685 15.689 2.045 100.132-2.277 113.51-11.447 49.542-25.779 111.212-37.259 160.871-1.217 5.254-5.899 8.968-11.289 8.968h23.63c5.389 0 10.071-3.714 11.289-8.968l9.988-43.146 12.901-55.663 7.658-33.075 6.711-28.986c1.509-6.544 2.278-13.255 2.278-19.976v-93.534c0-.635 0-1.269-.02-1.904z"/></g><path d="m256.015 29.14v355.25h-37.29l-20.54 12.33-3.85 2.31 1.39-17.18c-32.8-8.67-56.99-38.54-56.99-74.06v-109.01l-40.56-146.57 1.8-2.47c4.47-6.13 10.19-11.07 16.69-14.58 7.22-3.9 15.39-6.02 23.83-6.02z" fill="#ea9b58"/><g><path d="m469.489 130.499h-426.948c3.423-6.055 7.21-11.934 11.341-17.593l11.298-15.482h381.669l11.299 15.482c4.131 5.659 7.918 11.538 11.341 17.593z" fill="#7ebae6"/><path d="m256.015 97.42v33.08h-136.18l-9.15-33.08z" fill="#7ebae6"/><path d="m469.485 130.5h-23.82c-6.47-11.65-14.04-22.73-22.44-33.08h23.62l11.3 15.49c4.13 5.66 7.92 11.53 11.34 17.59z" fill="#4da6d1"/><path d="m493.419 219.247h-474.808c.104-11.164 1.238-22.234 3.35-33.086h468.107c2.113 10.852 3.247 21.922 3.351 33.086z" fill="#7ebae6"/><path d="m256.015 186.16v33.09h-117.28v-20.47l-3.49-12.62z" fill="#7ebae6"/><path d="m493.415 219.25h-23.59c.03-11.2-1.12-22.26-3.29-33.09h23.53c2.12 10.85 3.25 21.92 3.35 33.09z" fill="#4da6d1"/><path d="m18.59 274.899h474.849v33.086h-474.849z" fill="#7ebae6"/><path d="m138.735 274.9h117.28v33.08h-117.28z" fill="#7ebae6"/><path d="m493.435 274.9v33.08h-23.65c.25-10 .28-21.61.24-33.08z" fill="#4da6d1"/><path d="m484.455 363.65-7.66 33.07h-162.76l-7.37-4.39c-8.75-5.2-18.73-7.94-28.91-7.94h-59.03l-20.54 12.33h-162.95l-7.66-33.07z" fill="#7ebae6"/><g fill="#4da6d1"><path d="m218.725 384.39-20.54 12.33h-23.49c6.3-3.62 13.11-7.64 20.4-12.33z"/><path d="m484.455 363.65-7.66 33.07h-23.63c2.6-11.21 5.17-22.3 7.67-33.07z"/><path d="m256.015 97.42v33.08h-136.18l-9.15-33.08z"/><path d="m256.015 186.16v33.09h-117.28v-20.47l-3.49-12.62z"/><path d="m138.735 274.9h117.28v33.08h-117.28z"/><path d="m256.015 363.65v20.74h-37.29l-8.13 4.88-14.87-4.42c-12.46-3.29-23.67-12.64-32.79-21.2z"/></g><path d="m142.185 452.39c-.66 3.42-1 6.92-1 10.47l-.04 30.06c0 6.4-5.19 11.58-11.59 11.58h-60.14c-5.39 0-10.07-3.71-11.29-8.97l-9.99-43.14z" fill="#7ebae6"/><path d="m142.185 452.39c-.66 3.42-1 6.92-1 10.47l-.04 30.06c0 6.4-5.19 11.58-11.59 11.58h-23.63c6.4 0 11.59-5.18 11.59-11.58-1.12-17.04-.61-30.1 1.49-40.53z" fill="#4da6d1"/><path d="m463.891 452.385-9.988 43.146c-1.217 5.254-5.899 8.968-11.289 8.968h-60.157c-6.388 0-11.57-5.171-11.59-11.559l-.083-30.453c-.01-3.423-.323-6.804-.937-10.103h94.044z" fill="#7ebae6"/><path d="m463.895 452.39-9.99 43.14c-1.22 5.26-5.9 8.97-11.29 8.97h-23.63c5.39 0 10.07-3.71 11.29-8.97 3.15-13.64 6.52-28.19 9.98-43.14z" fill="#4da6d1"/></g><path d="m395.369 35.165-45.279 163.617h-188.15l-45.28-163.617c7.221-3.902 15.398-6.024 23.836-6.024h231.037c8.438 0 16.616 2.122 23.836 6.024z" fill="#fccd7f"/><path d="m371.533 29.141h-23.63c8.438 0 16.616 2.123 23.836 6.024l-45.279 163.617h23.63l45.279-163.617c-7.221-3.902-15.398-6.024-23.836-6.024z" fill="#f0b95f"/><path d="m337.667 29.141-23.919 169.641h-115.466l-23.92-169.641z" fill="#9dc9eb"/><path d="m278.292 198.782h-44.555l-9.445-173.638c-.521-9.585 7.112-17.644 16.711-17.644h30.023c9.6 0 17.232 8.059 16.711 17.644z" fill="#fccd7f"/><path d="m273.487 384.39h-34.945c-42.306 0-76.601-34.295-76.601-76.601v-109.009l79.39-27.999c9.502-3.351 19.865-3.351 29.368 0l79.39 27.999v109.009c-.001 42.305-34.296 76.601-76.602 76.601z" fill="#ffdfcf"/><path d="m270.699 170.781c-9.503-3.351-19.865-3.351-29.368 0l-2.785.982c6.737-.833 13.619-.109 20.102 2.177l67.811 24.84v109.009c0 42.306-34.296 76.601-76.601 76.601h23.63c42.306 0 76.601-34.296 76.601-76.601v-109.009z" fill="#ffcebf"/><path d="m282.317 474.401h-52.604c-9.842 0-17.594-8.396-16.803-18.218l.895-11.081 2.331-28.789 2.424-29.839 1.405-17.396c.708-8.76 8.022-15.502 16.803-15.502h38.496c8.781 0 16.095 6.742 16.803 15.502l1.405 17.396 2.424 29.839 2.331 28.789.895 11.081c.788 9.821-6.963 18.218-16.805 18.218z" fill="#fccd7f"/><path d="m299.12 456.183-.895-11.081-2.331-28.789-2.424-29.839-1.405-17.396c-.708-8.76-8.022-15.502-16.803-15.502h-23.63c8.781 0 16.095 6.742 16.803 15.502l3.829 47.235 2.331 28.789.895 11.081c.791 9.822-6.96 18.218-16.803 18.218h23.63c9.842 0 17.593-8.397 16.803-18.218z" fill="#f0b95f"/><path d="m296.721 59.627h-81.412c-4.064 0-6.963-3.939-5.757-7.819l10.873-34.959c1.729-5.56 6.875-9.348 12.698-9.348h45.783c5.823 0 10.968 3.788 12.698 9.348l10.873 34.959c1.207 3.88-1.693 7.819-5.756 7.819z" fill="#f6a96c"/><path d="m302.477 51.808-10.873-34.959c-1.729-5.56-6.875-9.348-12.698-9.348h-23.63c5.823 0 10.968 3.788 12.698 9.348l10.873 34.959c1.207 3.88-1.693 7.819-5.757 7.819h23.63c4.064 0 6.964-3.939 5.757-7.819z" fill="#ea9b58"/><path d="m282.315 474.4h-52.6c-9.84 0-17.6-8.4-16.8-18.22l.89-11.08h84.42l.89 11.08c.8 9.82-6.96 18.22-16.8 18.22z" fill="#f6a96c"/><path d="m282.315 474.4h-23.63c9.84 0 17.6-8.4 16.8-18.22l-.89-11.08h23.63l.89 11.08c.8 9.82-6.96 18.22-16.8 18.22z" fill="#ea9b58"/></g><g><path d="m500.915 219.186c-.029-9.563-1.247-23.315-3.487-34.452-3.949-20.394-11.157-39.888-21.412-57.92-12.761-21.861-43.161-60.397-57.9-81.492-10.09-14.086-28.004-23.759-46.581-23.682h-70.586l-2.183-7.019c-2.719-8.745-10.701-14.621-19.86-14.621h-45.783c-9.158 0-17.139 5.875-19.859 14.621l-2.183 7.02h-70.586c-17.069-.141-35.921 8.629-46.579 23.679-15.388 21.981-44.535 58.806-57.905 81.499-10.26 18.048-17.463 37.534-21.407 57.904-2.117 11.544-3.407 21.154-3.509 36.428v86.83c-.184 8.784.223 18.608 2.463 28.372l37.26 160.873c1.377 7.331 9.706 14.967 18.596 14.775h60.137.003c10.526 0 19.09-8.559 19.09-19.07l.04-30.07c-.572-37.144 38.444-49.107 61.386-64.527l-4.636 57.248c-1.287 12.774 9.798 26.53 24.278 26.32h52.604c12.837.255 25.651-11.902 24.278-26.321l-4.639-57.287c30.591 18.953 61.239 28.904 61.329 64.218l.08 30.454c.034 10.494 8.598 19.034 19.091 19.034h.002 60.157c8.254-.272 16.423-5.539 18.597-14.778l9.99-43.14c.906-4.054-2.14-9.417-7.31-9.197h-88.129c-4.608-17.298-18.22-32.3-34.457-40.665h126.05l-2.908 12.554c-.935 4.035 1.578 8.064 5.613 9 3.123.732 7.513-.944 9-5.613 6.665-35.707 21.692-75.847 21.873-112.181.002 0 .042-83.527-.018-88.794zm-46.458 240.699-7.86 33.953c-.382 1.403-1.717 3.233-3.982 3.162h-60.157c-2.248 0-4.083-1.832-4.09-4.08-.065-8.216.016-25.639-.143-33.035zm29.401-126.916-5.369 23.181h-136.206c8.293-11.803 13.577-25.76 14.941-40.67h128.699c-.057 5.861-.748 11.745-2.065 17.489zm-446.843 38.181h49.015c4.142 0 7.5-3.358 7.5-7.5s-3.358-7.5-7.5-7.5h-52.489l-5.366-23.167c-1.321-5.759-2.011-11.644-2.069-17.503h128.7c1.364 14.91 6.648 28.867 14.941 40.67h-47.42c-4.142 0-7.5 3.358-7.5 7.5s3.358 7.5 7.5 7.5h60.907c6.155 5.384 13.128 9.902 20.758 13.336l-7.889 4.735h-154.903zm9.961-233.15h90.36l11.25 40.66h-117.279c3.511-14.152 8.757-27.777 15.669-40.66zm22.023-33.08h59.185l5.002 18.08h-77.19c.23-.342 11.783-16.403 13.003-18.08zm-42.904 195.56v-18.08h128.35v18.08zm.266-88.919c.405-5.491.327-7.358 1.905-17.901h124.471l1.709 6.176v11.914h-128.094c.004-.063.005-.126.009-.189zm128.084 15.189v40.65h-128.35v-40.65zm133.314 182.063h-63.488l3.169-39.131c.39-4.826 4.487-8.606 9.327-8.606h38.496c4.84 0 8.938 3.78 9.327 8.606zm-64.703 15h65.918l1.117 13.789h-68.151zm76.485-55.338c-1.015-12.56-11.68-22.398-24.278-22.398h-38.496c-13.386-.12-24.73 11.805-24.539 25.624-24.715-9.952-42.965-35.659-42.782-63.91v-103.704l74.384-26.234c7.857-2.771 16.514-2.771 24.369-.001l74.388 26.235v103.703c.025 27.958-17.002 53.13-42.783 63.909zm-95.127-306.856c2.428 3.647 8.949 6.203 14.657 5.508l5.52 101.606-21.879 7.717-19.715-139.81h23.418l-4.025 12.94c-1.271 4.089-.515 8.59 2.024 12.039zm92.307 5.507c7.606.089 15.801-8.079 12.918-17.546l-4.025-12.94h23.419l-19.715 139.809-21.879-7.716 3.964-72.949c.225-4.136-2.946-7.671-7.082-7.896-4.127-.226-7.671 2.945-7.896 7.082l-3.726 68.576c-10.779-3.678-22.583-3.678-33.367 0l-5.238-96.419h62.627zm87.124 37.794h59.185c3.749 5.228 9.205 12.38 13.002 18.08h-77.19zm-9.152 33.08h90.361c6.907 12.871 12.155 26.497 15.669 40.66h-117.28zm-17.108 61.834 1.708-6.174h124.472c.003-.011 1.46 8.825 1.912 18.09h-128.092zm128.35 100.646h-128.35v-18.08h128.35zm-128.35-33.08v-40.65h128.35v40.65zm74.501-177.48h-44.091l11.784-42.592c4.478 3.035 28.451 37.792 32.307 42.592zm-58.188-53.206c1.726.418 2.682-.635 12.528 2.626l-41.417 149.697-21.26-7.498 20.433-144.899c7.285.059 23.416-.12 29.716.074zm-140.775-21.714h45.783c2.553 0 4.777 1.638 5.536 4.076l10.28 33.051h-77.415l10.279-33.051c.759-2.438 2.984-4.076 5.537-4.076zm-65.275 21.64 20.433 144.899-21.26 7.498-41.418-149.697c1.183-.012 2.566-2.156 14.892-2.7zm-61.813 17.519c1.839-2.522 3.919-4.801 6.215-6.831l11.784 42.592h-44.091zm-36.62 442.841c-1.002-.385-2.594.13-3.982-3.16l-7.86-33.955h76.182c-.121-.744-.094 32.73-.113 33.035 0 2.25-1.835 4.08-4.09 4.08zm66.88-52.115h-82.202l-9.419-40.665h126.434c-15.971 8.153-29.86 22.888-34.813 40.665zm152.897 19.005c-1.791 1.941-4.233 3.011-6.876 3.011h-52.604c-6.038.313-10.893-6.83-8.988-14.298h70.58c.295 3.987 1.175 6.681-2.112 11.287zm26.912-74.67c-4.27-2.492-2.942-1.861-8.082-4.728 7.636-3.435 14.614-7.955 20.774-13.343h146.219l-4.185 18.07h-154.726z"/><path d="m303.751 239.286h-35.157c-4.143 0-7.5 3.358-7.5 7.5v56.375c0 4.142 3.357 7.5 7.5 7.5s7.5-3.358 7.5-7.5v-48.875h27.657c4.143 0 7.5-3.358 7.5-7.5s-3.357-7.5-7.5-7.5z"/><path d="m225.809 239.286h-17.579c-4.142 0-7.5 3.358-7.5 7.5s3.358 7.5 7.5 7.5h17.579c4.142 0 7.5-3.358 7.5-7.5s-3.358-7.5-7.5-7.5z"/></g></g></svg>