<svg id="Capa_1" enable-background="new 0 0 507.683 507.683" height="512" viewBox="0 0 507.683 507.683" width="512" xmlns="http://www.w3.org/2000/svg"><g><path d="m94.025 91.217h-19.375c-24.741 0-44.87 20.128-44.87 44.87v230.727c0 24.741 20.128 44.869 44.87 44.869h19.219l10.302-7.017v-18.543l-10.302-6.44h-19.219c-6.961 0-12.625-5.908-12.625-12.869v-26.152l10.302-9-10.302-9v-186.575c0-6.961 5.664-12.625 12.625-12.625h19.375l223.878 16.221 10.302-10.593v-40.692l-10.302-12.715z" fill="#ffe04a"/><path d="m45.233 366.814v-230.727c0-24.741 20.128-44.87 44.87-44.87h-15.453c-24.741 0-44.87 20.128-44.87 44.87v230.727c0 24.741 20.128 44.869 44.87 44.869h15.453c-24.742 0-44.87-20.128-44.87-44.869z" fill="#ffcb39"/><path d="m93.869 337.381h320.034v116.604h-320.034z" fill="#618baa" transform="matrix(-1 0 0 -1 507.772 791.366)"/><path d="m93.869 337.381h30.906v116.604h-30.906z" fill="#4e7693"/><path d="m164.903 411.682h178c3.866 0 7-3.134 7-7v-17.999c0-3.866-3.134-7-7-7h-178c-3.866 0-7 3.134-7 7v17.999c0 3.866 3.134 7 7 7z" fill="#356487"/><path d="m61.903 203.766h192v31.937h-192z" fill="#ffe04a" transform="matrix(-1 0 0 -1 315.805 439.47)"/><path d="m61.903 203.766h30.906v31.937h-30.906z" fill="#ffcb39"/><path d="m126.406 325.974h255.53v-35.302c0-3.866-3.134-7-7-7h-241.53c-3.866 0-7 3.134-7 7z" fill="#356487"/><path d="m126.406 290.672v35.302h30.906v-42.302h-23.906c-3.866 0-7 3.134-7 7z" fill="#20526b"/><path d="m61.903 485.985h384.017v-35.302c0-3.866-3.134-7-7-7h-370.017c-3.866 0-7 3.134-7 7z" fill="#89b4c9"/><path d="m61.903 450.683v35.302h30.906v-42.302h-23.906c-3.866 0-7 3.134-7 7z" fill="#77a8bc"/><path d="m68.903 347.662h370.017c3.866 0 7-3.134 7-7v-18c0-3.866-3.134-7-7-7h-370.017c-3.866 0-7 3.134-7 7v18c0 3.866 3.134 7 7 7z" fill="#89b4c9"/><path d="m61.903 322.662v18c0 3.866 3.134 7 7 7h23.906v-32h-23.906c-3.866 0-7 3.134-7 7z" fill="#77a8bc"/><circle cx="253.903" cy="219.682" fill="#dff1f7" r="31.999"/><g><path d="m254.171 291.409c-4.253 0-7.708-3.438-7.726-7.694l-.269-64c-.018-4.267 3.427-7.741 7.694-7.759 4.311-.046 7.741 3.427 7.759 7.694l.269 64.001c.018 4.267-3.427 7.74-7.694 7.759-.011-.001-.022-.001-.033-.001z" fill="#89b4c9"/></g><path d="m29.78 187.683h32.245v63.999h-32.245z" fill="#ffcb39" transform="matrix(-1 0 0 -1 91.805 439.364)"/><path d="m317.903 75.683 149.87-74.935c4.654-2.327 10.13 1.057 10.13 6.261v201.348c0 5.204-5.476 8.588-10.13 6.261l-149.87-74.935z" fill="#ffe04a"/><path d="m348.808 128.065v-40.765c0-7.12 4.023-13.629 10.391-16.813l118.703-59.352v-4.126c0-5.204-5.476-8.588-10.13-6.261l-149.87 74.935v64l149.87 74.935c4.654 2.327 10.13-1.057 10.13-6.261v-4.127l-118.703-59.352c-6.368-3.184-10.391-9.693-10.391-16.813z" fill="#ffcb39"/><path d="m36.903 507.683h434c3.866 0 7-3.134 7-7v-18c0-3.866-3.134-7-7-7h-434c-3.866 0-7 3.134-7 7v18c0 3.866 3.134 7 7 7z" fill="#356487"/><path d="m29.903 482.683v18c0 3.866 3.134 7 7 7h23.906v-32h-23.906c-3.866 0-7 3.134-7 7z" fill="#20526b"/></g></svg>