<svg clip-rule="evenodd" fill-rule="evenodd" height="1.707in" image-rendering="optimizeQuality" shape-rendering="geometricPrecision" text-rendering="geometricPrecision" viewBox="0 0 1.70666 1.70666" width="1.707in" xmlns="http://www.w3.org/2000/svg"><g id="Layer_x0020_1"><path d="m1.51844.64952h-.0692795c-.00811024 0-.0154016-.00488976-.0184961-.0123898-.00308268-.0075-.00133465-.0161102.00441339-.0218189l.0559724-.0554724c-.00025197-.00205512-.00162598-.00601575-.0048189-.00967717-.00202756-.00234646-.00629528-.00627953-.0120984-.00627953-.00900394 0-.0163346.00733465-.0163346.0163465 0 .0110394-.00897244.02-.02.02-.0110315 0-.02-.00896063-.02-.02 0-.0310709.0252756-.0563465.0563425-.0563465.0259843 0 .0452913.0186535.0529055.0371378.00711024.0173071.0046811.0348346-.00633858.045748l-.0229449.0227362h.020689c.0110394 0 .02.00896063.02.02 0 .0110394-.00897244.0200157-.0200118.0200157zm.117535 1.03775h-1.56529c-.0389685 0-.0706811-.0317047-.0706811-.0706811v-.0978465c0-.0389724.0317047-.0706811.0706811-.0706811h.26965v-.16265c-.0131417.00393701-.0268386.00597244-.0406378.00597244-.0246102 0-.0489449-.00653937-.0703622-.0189016-.0434449-.0250787-.0704724-.071874-.0705118-.122106 0-.00715748.00380315-.0137638.0100118-.0173504.0427677-.0246417.0980157-.0247756.141004.00002756.0113504.00655512.0215787.0145866.0304961.0237795v-.0731732c-.0375827-.0262087-.0605039-.0695512-.0605039-.115772 0-.0501811.0270157-.0969685.0704882-.122106.00617717-.00358661.0138307-.00358661.0200157 0 .0434685.0251378.0704882.0719291.0704882.122106 0 .0462087-.0229055.0895433-.0604882.115744v.0732244c.0089252-.00919685.0191614-.0172441.0305236-.0238031.0429724-.0248189.0982205-.0246693.141-.00002756.0062126.00358661.0100276.0101929.0100157.0173504-.00003937.0502165-.0270551.0970118-.0705118.122106-.0214331.0123622-.0457638.0189016-.070378.0189016-.0138071 0-.0275118-.00203543-.0406496-.00597638v.162654h.452988v-.162646c-.0131378.00394094-.0268346.0059685-.0406339.0059685-.0246063 0-.0489449-.00653937-.0703583-.0189016-.0434606-.0250945-.0704724-.0718898-.0705157-.122106 0-.00716535.00380709-.0137638.0100157-.0173504.0427913-.024626.0980157-.0247677.140984.00002756.0113543.00655906.0215866.0145984.0305079.0237953v-.0732047c-.0375787-.0261969-.0605-.0695354-.0605-.115748 0-.0501811.0270118-.0969724.0704843-.12211.0061811-.00358661.0138346-.00358661.0200157 0 .0434685.0251378.0704882.0719291.0704882.12211 0 .0462087-.0229134.0895354-.0604882.115732v.0732402c.0089252-.00920472.0191693-.017252.0305315-.023815.0429685-.0248189.0982087-.0246693.140984-.00002756.00619291.00358661.0100236.0101772.0100236.0173504-.00003937.0502165-.0270512.0970118-.0705118.122106-.0214252.0123622-.0457638.0189016-.0703701.0189016-.013811 0-.0275157-.00203543-.0406575-.00597638v.162657h.453008v-.162657c-.0131417.00394094-.0268465.00597638-.0406654.00597638-.0245984 0-.0489291-.00653937-.0703465-.0189016-.0434606-.0250787-.0704724-.071874-.0705315-.122106 0-.00715748.00382283-.0137638.0100276-.0173504.0427677-.0246417.0980551-.0247756.140984.00002756.0113661.00655906.0216063.0146024.0305315.0238031v-.0731969c-.0375984-.0262087-.0605157-.0695472-.0605157-.115772 0-.0501811.0270157-.0969685.0704882-.122106.00617717-.00358661.0138307-.00358661.0200157 0 .0434843.0251378.0704961.0719291.0704961.122106 0 .0462087-.0229134.0895354-.0604843.115736v.0732126c.00891732-.00918898.0191496-.0172283.0305-.0237835.0429724-.0248189.0982087-.0246693.140988-.00002756.00619291.00358661.0100236.0101772.0100236.0173504-.00004331.0502165-.0270551.0970118-.0705118.122106-.0214173.0123622-.045748.0189016-.0703622.0189016-.0137992 0-.0275-.0020315-.0406378-.00597244v.162654h.269646c.0389724 0 .0706811.0317047.0706811.0706811v.0978465c0 .0389646-.0317047.0706772-.0706811.0706772zm-1.56529-.199193c-.0169173 0-.0306811.013748-.0306811.0306654v.0978465c0 .0169173.0137638.0306654.0306811.0306654h1.56529c.0169213 0 .0306693-.013748.0306693-.0306654v-.0978465c0-.0169173-.013748-.0306654-.0306693-.0306654h-.289646-.493008-.492988-.28965zm.337736-.237594c.0215236.00258268.0439094-.00165748.0629252-.0126496.0276535-.0159567.0460157-.0441929.0497874-.0755276-.0286654-.012252-.0629409-.0104016-.0902756.00537402-.0192874.0111417-.0340591.0282402-.0425079.0482047l.0527441-.0304409c.00955512-.00552756.0217913-.00223622.0273189.0073189.00552756.00955512.00225197.0217913-.0073189.0273189l-.0526732.0304016zm-.208894-.0881654c.00379134.0313307.0221535.0595512.0497913.0755276.0190394.0109882.0414173.0152283.0629331.0126496l-.0526732-.0303976c-.00956693-.00551181-.0128425-.017748-.00731496-.0273189.00552756-.00957087.017748-.0128622.027315-.0073189l.052748.0304449c-.00845276-.0199685-.0232165-.0370787-.0425039-.0482126-.0273346-.0157717-.0615945-.017622-.0902953-.00537402zm.160807-.275299c-.0252323.0189291-.0404961.0489449-.0404961.080878 0 .0222795.00743307.043622.0204961.0609213v-.0609291c0-.0110394.00896063-.02.02-.02.0110394 0 .02.00897244.02.02v.0609213c.013063-.0172992.0205-.0386378.0205-.0609134 0-.0319331-.0152677-.0619331-.0405-.080878zm.541071.363465c.0215315.00258268.0439213-.00166535.0629528-.0126496.0276339-.0159567.0459961-.0441929.0497756-.0755276-.0286654-.012252-.0629252-.0104016-.0902913.00537402-.0192953.0111378-.0340512.028248-.0425.0482047l.0527323-.0304409c.00952756-.0055.0217795-.00225984.027315.0073189.00551181.00955512.00225197.0217913-.00731496.0273189l-.0526693.0304016zm-.20887-.0881654c.00377953.0313307.0221339.0595512.0497874.0755276.0190315.0109843.0414094.0152283.0629213.0126496l-.0526693-.0303976c-.00957087-.00551181-.0128465-.017748-.0073189-.0273189.00551181-.00957087.017748-.0128465.0273189-.0073189l.0527362.0304409c-.00845276-.0199606-.0232165-.0370669-.0425-.0482087-.0273189-.0157874-.0615945-.0176378-.0902756-.00537402zm.160787-.275299c-.0252323.0189449-.0404961.0489449-.0404961.080878 0 .0222795.00743307.0436181.0204961.0609173v-.0609252c0-.0110394.00896063-.02.02-.02.0110394 0 .02.00897244.02.02v.0609173c.0130551-.0172992.0204882-.0386339.0204882-.0609094 0-.0319331-.015248-.0619331-.0404882-.080878zm.541091.363469c.0215236.00257874.0439094-.00167323.0629331-.0126535.0276378-.0159567.046-.0441929.0497795-.0755276-.028685-.012252-.0629173-.0104016-.0902953.00537402-.0192874.0111417-.0340472.028252-.0424961.0482165l.0527598-.0304528c.00955512-.00551181.0217795-.00225197.0273189.0073189.00550787.00955512.00223622.0217913-.0073189.0273189l-.0526811.0304055zm-.208902-.0881693c.00379134.0313307.0221535.0595512.0497913.0755276.0190276.0109843.0414055.0152165.0629173.0126417l-.0526496-.0303898c-.00955512-.00551181-.0128465-.017748-.0073189-.0273189.00552756-.00957087.0177913-.0128189.0273189-.0073189l.0527402.0304409c-.00845276-.0199685-.0232205-.0370748-.0425039-.0482087-.0273189-.0157717-.0615866-.017622-.0902953-.00537402zm.160807-.275299c-.0252244.0189449-.0404882.0489449-.0404882.080878 0 .0222795.00743701.0436181.0205.0609213v-.0609291c0-.0110394.0089685-.02.02-.02.0110276 0 .02.00897244.02.02v.0609134c.0130512-.0172992.0204843-.0386339.0204843-.0609055 0-.0319331-.0152638-.0619331-.0404961-.080878zm-.492996-.193209c-.0038189 0-.00766929-.00109843-.0109843-.00329134l-.0803346-.0528622-.0960669-.00445669c-.00797638-.00037008-.0149724-.00545669-.0177913-.0129252l-.0339134-.0899843-.0750827-.0600472c-.00623622-.00498819-.00891732-.0132087-.00679134-.0209016l.0254449-.0927323-.0254449-.0927362c-.00211024-.00769291.00055512-.0159134.00679134-.0209016l.0750984-.0600669.0339134-.0899843c.0028189-.0074685.00982283-.0125551.0177913-.0129291l.0960669-.00445669.0803346-.0528583c.00664961-.00437402.015315-.00437402.0219843 0l.0803189.0528583.0960551.00445669c.00797244.00037402.0149685.00546063.0177874.0129291l.0339173.0899843.0750787.0600669c.00623622.00498819.00892126.0132087.00679528.0209016l-.0254449.0927362.0254449.0927323c.00211024.00769291-.00055906.0159134-.00679528.0209016l-.0750787.0600669-.0339173.0899843c-.0028189.0074685-.00980315.0125551-.0177874.0129291l-.0960551.00445669-.0803346.0528583c-.00333071.00217323-.00716142.00327165-.011.00327165zm-.17237-.0999567.0884055.00409843c.00358268.00016929.00707087.00129134.0100669.00326772l.0739134.0486378.0739331-.0486378c.003-.00197638.00647244-.00309843.0100669-.00326772l.0883858-.00409843.0312087-.0827913c.00127559-.00335827.00341732-.0063189.00622047-.00856693l.0690945-.0552756-.0234173-.0853465c-.00094488-.00346063-.00094488-.00712205 0-.0105827l.0234173-.0853307-.0690945-.0552756c-.00280315-.00225197-.00494488-.00520866-.00622047-.00856693l-.0312087-.0827913-.0884016-.00410236c-.00359449-.00016535-.00707087-.00129134-.0100827-.00326378l-.0739016-.0486378-.0739134.0486378c-.00300394.00197244-.00647244.00309843-.0100669.00326378l-.0884055.00410236-.0312047.0827913c-.00126378.00335827-.00341732.0063189-.00622047.00856693l-.0691142.0552756.0234173.0853465c.00094488.0034685.00094488.00712205 0 .0105827l-.0234173.0853307.0691142.0552756c.00280315.00225197.00496063.00520866.00622047.00856693l.0312047.0827913zm.17237-.0234528c-.117898 0-.213815-.0959173-.213815-.213819 0-.11789.0959134-.213803.213815-.213803.11789 0 .213819.0959134.213819.213803 0 .117913-.0959134.213819-.213819.213819zm0-.387606c-.0958307 0-.173819.0779724-.173819.173803 0 .0958307.0779724.173819.173819.173819.0958465 0 .173803-.0779724.173803-.173819 0-.0958465-.0779567-.173803-.173803-.173803zm-.02.588516v-.0462638c0-.0110354.00896063-.0199961.02-.0199961.0110394 0 .02.00896063.02.0199961v.046252c.00749606-.0023622.016-.00016535.0213543.00624803.00709843.00847244.00597244.0210827-.00251181.0281693l-.0255709.0213937c-.00059449.00052756-.00122047.00101575-.00187795.00147244l-.0001811.00012598-.00002362.00001968-.00016142.00010236-.00018504.00012205-.00005906.00003937-.00012598.00007874-.00018898.00011811-.00009449.00005906-.00009449.00005512-.00018898.00011417-.00012992.00007874-.00005906.0000315-.00019291.0001063-.00017323.00009843-.00001575.00000787-.00019291.00010236-.00019685.00010236-.00001968.00001181-.00017323.00008661-.00019685.00009843-.00006693.0000315-.00012992.00005906-.00019685.00009449-.00011417.00005118-.00008268.00003937-.00020079.00008661-.00016142.00007087-.00003543.00001575-.00020079.00008268-.00020079.00007874-.00001575.00000394-.00018898.0000748-.00020079.0000748-.00006693.00002756-.0001378.00004724-.00020472.00007087-.00011811.00004331-.00008268.00002756-.00020866.00006693-.00017717.00005512-.00002756.00000787-.00020472.00006299-.00020866.00006299-.0000315.00000787-.00017323.00004724-.00020866.00005906-.00009449.00002362-.00011417.00002756-.00020866.00005118-.00015748.00003937-.00005118.00001181-.0002126.00004331-.00020866.00004724-.00001575.00000394-.00019685.00003543-.00020866.00003937-.00008661.00001968-.00012598.00001968-.0002126.00003543-.00015354.00002362-.00005512.00000787-.0002126.0000315-.0002126.00002756-.00001968.00000394-.00019291.00002362-.00021654.00002362-.00009055.00001181-.00012205.00001181-.0002126.00001575-.00017323.00001575-.00003937.00000394-.00042913.00002756h-.00004331l-.00016929.00000787-.00021654.00000787-.00012598.00000394-.00008661.00000394-.00021654.00000394h-.0002126-.0002126l-.0002126-.00000394-.00009055-.00000394-.00012598-.00000394-.0002126-.00000787-.00017323-.00000787h-.00003937l-.0002126-.00001181-.0002126-.00001575-.00004724-.00000394-.00016535-.00001575-.00021654-.00001575-.00012205-.00001181-.00009055-.00001181-.0002126-.00002362-.00020079-.00002362-.00000787-.00000394-.0002126-.00002756-.0002126-.0000315-.00006299-.00000787-.00014961-.00002362-.00020866-.00003543-.0004252-.00007874-.00020079-.00003543-.00000787-.00000394-.00041732-.00009055-.00006299-.00001181-.00014961-.00003937-.00020866-.00005118-.00012205-.00002756-.00008268-.00002362-.00020866-.00005906-.00018504-.00004724-.00002362-.00000787-.00020472-.00006299-.00020866-.00006299-.00003543-.00000787-.00016929-.00005512-.00020472-.00006693-.00081496-.00029134-.00019685-.0000748-.00000787-.00000394-.00020079-.00007874-.00020079-.00008268-.00004331-.00001575-.00015748-.00007087-.00019685-.00008661-.00009055-.00003937-.00011024-.00005118-.00019685-.00009449-.00013386-.00005906-.00006299-.0000315-.00019685-.00009843-.00017323-.00008661-.00002362-.00001181-.00019291-.00010236-.00019291-.00010236-.00001968-.00000787-.00017323-.00009843-.00019291-.0001063-.00005512-.0000315-.0001378-.00007874-.00018898-.00011417-.00008661-.00005512c-.00086221-.00051181-.00169291-.00109055-.0024685-.00175591l-.0260236-.0217756c-.00847244-.00708268-.00959449-.0196969-.00251575-.0281693.00535827-.00639764.0138701-.00860236.021374-.00623622zm-.28602-.0957441v-.0897559c0-.0110394.00896063-.02.02-.02.0110394 0 .02.00896063.02.02v.0897323l.00675984-.00565748c.00847244-.00709843.0210984-.00596063.0281693.00251181.00707874.00847244.00597244.0210827-.00251575.0281693l-.0391614.0327638c-.00048425.0004252-.00098425.00082284-.00150787.00120472l-.00016929.00012598-.00001181.00000394c-.00130709.0009252-.00272441.00169685-.00423228.00229528v.00000394l-.00020079.0000748-.00081496.00029134-.00020472.00006693-.00020472.00006299-.00020472.00006299-.00083071.00022835-.00020866.00005118c-.00041732.00009843-.00083858.00018504-.00125984.00025984l-.00020866.00003543-.00014961.00002362-.00006299.00000787-.0002126.0000315-.0002126.00002756-.00000787.00000394-.00020472.00002362-.00020866.00002362-.00009055.00001181-.00012205.00001181-.00021654.00001575-.00016535.00001575-.00004724.00000394-.0002126.00001575-.0002126.00001181h-.00003937l-.00017323.00000787-.0002126.00000787-.00012598.00000394-.00009055.00000394-.0002126.00000394h-.0002126-.0002126l-.0002126-.00000394-.00009055-.00000394-.00012598-.00000394-.0002126-.00000787-.00017323-.00000787h-.00003937l-.0002126-.00001181-.0002126-.00001575-.00004724-.00000394-.00016929-.00001181-.0002126-.00001968-.00012205-.00001181-.00009055-.00001181-.0002126-.00002362-.00020079-.00002362-.00001181-.00000394-.0002126-.00002756-.00020866-.0000315-.00006299-.00000787-.00014961-.00002362-.0002126-.00003543-.00013386-.00001968-.0000748-.00001575-.0002126-.00003937-.00020079-.00003937-.00000787-.00000394-.0002126-.00004331-.00020866-.00004724-.00005906-.00001181-.00014961-.00003937-.00020866-.00005118-.00012205-.00002756-.00008661-.00002362-.00020866-.00005512-.0001811-.00005118-.00002756-.00000787-.00020472-.00005906-.00020866-.00006299-.0000315-.00001181-.00017323-.00005512-.00020472-.00006693-.00009055-.00002756-.00011417-.00003937-.00020472-.00007087-.00014173-.00005118-.00006299-.00002362-.0006063-.00023622-.00020079-.00008268-.00003937-.00001575-.00001575-.00000787-.00034646-.00014961-.00008268-.00003937-.00031102-.00014173-.00012992-.00006299-.00007087-.0000315c-.00144488-.00069291-.00283071-.00156299-.00409449-.00264567l-.0396102-.0331378c-.00847244-.00708268-.00959843-.0196969-.00251575-.0281693.00708268-.00848819.0196969-.00959449.0281693-.00251181l.00679134.0056811zm.572047 0v-.0897559c0-.0110394.00897244-.02.02-.02.0110276 0 .02.00896063.02.02v.0897323l.00675984-.00565748c.00847244-.00708268.0210827-.00597638.0281693.00251181.00709843.00847244.00597244.0210827-.00251575.0281693l-.0390984.0327087c-.00174803.00155906-.00377165.00281102-.00598425.00368504v.00000394c-.00033465.00013386-.00067323.00025197-.00101575.00036614l-.00020472.00006693c-.00040945.00012992-.0008189.00024803-.00124016.00035433l-.00020866.00005118c-.00041339.00010236-.00083465.00018898-.00125984.00025984l-.0002126.00003543-.00014567.00002362-.00006693.00000787-.00020866.0000315-.0002126.00002756-.00000787.00000394-.00020472.00002362-.0002126.00002362-.00008661.00001181-.00012598.00001181-.0002126.00001575-.00016535.00001575-.00004724.00000394-.0002126.00001575-.0002126.00001181h-.00003937l-.00017323.00000787-.0002126.00000787-.00012598.00000394-.00009055.00000394-.0002126.00000394h-.0002126-.0002126l-.0002126-.00000394-.00009055-.00000394-.00012598-.00000394-.0002126-.00000787-.00017323-.00000787h-.00003937l-.0002126-.00001181-.0002126-.00001575-.00004724-.00000394-.00016535-.00001181-.00021654-.00001968-.00012205-.00001181-.00009055-.00001181-.0002126-.00002362-.00020079-.00002362-.00000787-.00000394-.0002126-.00002756-.0002126-.0000315-.00006299-.00000787-.00014961-.00002362-.00020866-.00003543-.0001378-.00001968-.0000748-.00001575-.0002126-.00003937-.00020079-.00003937-.00000787-.00000394-.00020866-.00004331-.00020866-.00004724-.00006299-.00001181-.00014961-.00003937-.00020866-.00005118-.00012205-.00002756-.00008268-.00002362-.00020866-.00005512-.00018504-.00005118-.00002362-.00000787-.00020472-.00005906-.00020866-.00006299-.00003543-.00001181-.00016929-.00005512-.00020472-.00006693-.00009449-.00002756-.00011024-.00003937-.00020472-.00007087-.00014567-.00005118-.00005906-.00002362-.00020079-.0000748-.00019685-.00007874h-.00000787l-.00020079-.00008268-.00020079-.00008268-.00004331-.00001575-.00015748-.00006693-.00019685-.00009055-.00009055-.00003937-.00011024-.00004724-.00019685-.00009449-.00013386-.00006299-.00006299-.0000315-.00019685-.00009449-.00017323-.00009055-.00021654-.00011024-.00019291-.00010236-.00001968-.00001181-.00017323-.00009449c-.00109449-.00059449-.00215354-.00130315-.00312992-.00214173l-.0396102-.0331378c-.00847244-.00708268-.00959449-.0196969-.00251575-.0281693.00709843-.00847244.0196811-.00959449.0281693-.00251181l.00679134.0056811zm-.859181.0984685c-.0510984 0-.0926654-.0415709-.0926654-.0926496 0-.0510827.0415669-.0926654.0926654-.0926654.0510945 0 .0926654.0415669.0926654.0926654 0 .0510945-.0415709.0926496-.0926654.0926496zm0-.145331c-.0290394 0-.0526654.023626-.0526654.0526654s.023626.0526654.0526654.0526654.0526654-.023626.0526654-.0526654-.023622-.0526654-.0526654-.0526654zm.185677.0208189h-.0692756c-.00809843 0-.0154016-.00488976-.0185-.0123898-.00307874-.0075-.00134646-.0161102.00441732-.0218189l.0559803-.0554724c-.00025197-.00205512-.0016378-.00601575-.0048189-.00967717-.00202362-.00234646-.00630315-.00627953-.0121063-.00627953-.00900394 0-.0163386.00733465-.0163386.0163465 0 .0110394-.00896063.02-.02.02-.0110394 0-.02-.00896063-.02-.02 0-.0310709.0252677-.0563465.0563386-.0563465.0259803 0 .0452874.0186693.0529016.0371535.00711024.0172913.0046811.0348189-.00633858.0457402l-.0229449.0227323.0206732-.00000394c.0110394 0 .02.00896063.02.02 0 .0110394-.00893307.0200157-.0199882.0200157zm.886913.124512c-.0510945 0-.0926811-.0415709-.0926811-.0926496 0-.0510827.0415866-.0926654.0926811-.0926654s.0926654.0415669.0926654.0926654c0 .0510945-.0415709.0926496-.0926654.0926496zm0-.145331c-.0290394 0-.0526654.023626-.0526654.0526654s.023626.0526654.0526654.0526654.0526496-.023626.0526496-.0526654-.0236063-.0526654-.0526496-.0526654z" fill="#000002"/><path d="m.853323.530413c.0958465 0 .173803-.0779724.173803-.173819 0-.0958465-.0779567-.173803-.173803-.173803-.0958307 0-.173819.0779724-.173819.173803 0 .0958307.0779724.173819.173819.173819z" fill="#fd9e28"/><path d="m.853323.142776c.11789 0 .213819.0959134.213819.213803 0 .117913-.0959134.213819-.213819.213819-.117898 0-.213815-.0959173-.213815-.213819 0-.11789.0959134-.213803.213815-.213803zm.20361.0593386-.0312087-.0827913-.0884016-.00410236c-.00359449-.00016535-.00707087-.00129134-.0100827-.00326378l-.0739016-.0486378-.0739134.0486378c-.00300394.00197244-.00647244.00309843-.0100669.00326378l-.0884055.00410236-.0312047.0827913c-.00126378.00335827-.00341732.0063189-.00622047.00856693l-.0691142.0552756.0234173.0853465c.00094488.0034685.00094488.00712205 0 .0105827l-.0234173.0853307.0691142.0552756c.00280315.00225197.00496063.00520866.00622047.00856693l.0312047.0827913.0884055.00409843c.00358268.00016929.00707087.00129134.0100669.00326772l.0739134.0486378.0739331-.0486378c.003-.00197638.00647244-.00309843.0100669-.00326772l.0883858-.00409843.0312087-.0827913c.00127559-.00335827.00341732-.0063189.00622047-.00856693l.0690945-.0552756-.0234173-.0853465c-.00094488-.00346063-.00094488-.00712205 0-.0105827l.0234173-.0853307-.0690945-.0552756c-.00280315-.00225197-.00494488-.00520866-.00622047-.00856693z" fill="#fede93"/><path d="m.312835.681366c0-.0290394-.023622-.0526654-.0526654-.0526654-.0290394 0-.0526654.023626-.0526654.0526654s.023626.0526654.0526654.0526654.0526654-.023626.0526654-.0526654z" fill="#43a3f9"/><g fill="#5be167"><path d="m.360335.887016c-.0447992.0336102-.0537835.0970591-.02.141799v-.0609291c0-.0263346.04-.0263189.04 0v.0609213c.0337913-.044748.0248031-.10815-.02-.141791z"/><path d="m.521134 1.1623c-.0513189-.0219331-.111217.00261811-.132783.0535787l.0527441-.0304409c.0227795-.0131614.0428189.0214646.02.0346378l-.0526732.0304016c.0559843.00671654.106028-.0326457.112713-.0881772z"/><path d="m.332327 1.2159c-.0215827-.0509882-.0814331-.0755079-.132799-.0535866.00672047.0555236.0567244.0948898.112724.0881772l-.0526732-.0303976c-.0227992-.0131457-.00280315-.0478228.02-.0346378l.052748.0304449z"/><path d="m.853323.887016c-.0448031.0336417-.0537835.0970591-.02.141795v-.0609252c0-.0263346.04-.0263189.04 0v.0609173c.0337677-.0447441.0247992-.108161-.02-.141787z"/><path d="m1.01413 1.1623c-.0513228-.021937-.111213.00261024-.132791.0535787l.0527323-.0304409c.0227835-.0131535.0427992.0214685.02.0346378l-.0526693.0304016c.0559921.00671654.106028-.032622.112728-.0881772z"/><path d="m.825311 1.2159c-.0215787-.0509606-.0814252-.0755394-.132776-.0535827.00670079.0555315.0567323.0948858.112709.0881772l-.0526693-.0303976c-.0227992-.0131457-.0028189-.047815.02-.0346378l.0527362.0304409z"/><path d="m1.42709 1.18544c.0228031-.0131575.0427874.0214724.02.0346378l-.0526811.0304055c.0559764.00670472.106012-.0326299.112713-.0881811-.0513386-.0219291-.111213.00259843-.132791.0535906l.0527598-.0304528z"/><path d="m1.31831 1.2159c-.0215827-.0509882-.0814252-.0755-.132799-.0535827.00671654.0555079.056685.094874.112709.0881693l-.0526496-.0303898c-.022811-.0131654-.0027874-.0477913.02-.0346378l.0527402.0304409z"/><path d="m1.32633.967886c0-.0263346.04-.026315.04 0v.0609134c.0337677-.0447559.0247874-.108146-.0200118-.141783-.0447953.0336417-.0537756.0970433-.0199882.141799v-.0609291z"/></g><path d="m1.28009.681366c0 .0290394.023626.0526654.0526654.0526654s.0526496-.023626.0526496-.0526654-.0236063-.0526654-.0526496-.0526654c-.0290394 0-.0526654.023626-.0526654.0526654z" fill="#43a3f9"/><path d="m1.63598 1.48807h-1.56529c-.0169173 0-.0306811.013748-.0306811.0306654v.0978465c0 .0169173.0137638.0306654.0306811.0306654h1.56529c.0169213 0 .0306693-.013748.0306693-.0306654v-.0978465c0-.0169173-.013748-.0306654-.0306693-.0306654z" fill="#aa6a51"/></g></svg>