<svg enable-background="new 0 0 32 32" viewBox="0 0 32 32" xmlns="http://www.w3.org/2000/svg"><g id="Grid" display="none"/><g id="bow_tie"/><g id="balloon_1_"/><g id="placeholder"/><g id="mic"/><g id="speaker"/><g id="champagne"/><g id="gift"/><g id="theater"/><g id="_camera"/><g id="video_camera"/><g id="party_hat"/><g id="champagne_glass"/><g id="man"/><g id="woman"/><g id="skewer"/><g id="ticket"/><g id="cake"/><g id="lights"/><g id="photo"><path d="m28.046 27.729h-21.36c-1.079 0-1.954-.875-1.954-1.954v-16.815c0-1.079.875-1.954 1.954-1.954h21.359c1.08 0 1.955.875 1.955 1.954v16.815c0 1.079-.875 1.954-1.954 1.954z" fill="#efefef"/><path d="m25.314 24.997h-21.36c-1.079 0-1.954-.875-1.954-1.955v-16.814c0-1.079.875-1.954 1.954-1.954h21.359c1.079 0 1.954.875 1.954 1.954v16.815c.001 1.079-.874 1.954-1.953 1.954z" fill="#efefef"/><path d="m27.27 6.231v16.81c0 1.08-.88 1.96-1.96 1.96h-4.56c1.08 0 1.96-.88 1.96-1.96v-16.81c0-1.08-.88-1.96-1.96-1.96h4.56c1.08 0 1.96.88 1.96 1.96z" fill="#ddd"/><path d="m4.73 7.001h19.81v15.27h-19.81z" fill="#83dcff"/><path d="m24.541 17.443v4.831h-13.872l7.568-9.364c.68-.841 1.961-.841 2.641 0z" fill="#72d98b"/><path d="m14.053 18.085-3.384 4.189h-5.942v-2.314l4.102-5.073c.68-.841 1.962-.84 2.641 0z" fill="#72d98b"/><circle cx="11.458" cy="10.47" fill="#ffd731" r="1.906"/><path d="m24.54 17.441v4.83h-6.71c1.79-2.93 2.8-6.05 3.32-9.03z" fill="#5fc174"/><path d="m24.54 7.001v10.44l-3.39-4.2c.39-2.21.52-4.34.5-6.24z" fill="#7acfea"/><path d="m28.05 6.585h-.357v-.357c0-1.312-1.067-2.379-2.379-2.379h-21.36c-1.312 0-2.379 1.067-2.379 2.379v16.814c0 1.313 1.067 2.38 2.379 2.38h.352v.348c0 1.315 1.069 2.386 2.385 2.386h21.359c1.31 0 2.375-1.07 2.375-2.386v-16.81c0-1.31-1.066-2.375-2.375-2.375zm-25.625 16.457v-16.814c0-.843.687-1.529 1.529-1.529h21.359c.843 0 1.529.687 1.529 1.529v16.814c0 .844-.687 1.53-1.529 1.53h-21.359c-.843 0-1.529-.686-1.529-1.53zm27.15 2.728c0 .847-.685 1.536-1.525 1.536h-21.36c-.847 0-1.535-.689-1.535-1.536v-.348h20.158c1.312 0 2.379-1.067 2.379-2.38v-15.607h.357c.841 0 1.525.685 1.525 1.525v16.81z"/><path d="m11.458 12.802c1.285 0 2.331-1.046 2.331-2.331s-1.046-2.331-2.331-2.331-2.331 1.046-2.331 2.331 1.046 2.331 2.331 2.331zm0-3.813c.816 0 1.481.665 1.481 1.481s-.665 1.481-1.481 1.481-1.481-.665-1.481-1.481.665-1.481 1.481-1.481z"/><path d="m24.541 6.575h-19.813c-.234 0-.425.19-.425.425v15.27c0 .234.19.425.425.425h19.813c.234 0 .425-.19.425-.425v-15.27c0-.234-.191-.425-.425-.425zm-.425.85v8.817l-2.908-3.599c-.808-1.001-2.492-1.003-3.302 0l-3.852 4.767-2.254-2.79c-.81-1.003-2.494-1.001-3.302 0l-3.346 4.138v-11.333zm-18.964 12.685 4.006-4.955c.485-.601 1.495-.602 1.98-.001l2.369 2.932-3.037 3.759h-5.318zm6.411 1.735 7.004-8.667c.487-.602 1.497-.6 1.98 0l3.569 4.417v4.25z"/><g fill="#c2f4ff"><path d="m6.577 11.822c.234 0 .425-.19.425-.425v-2.547c0-.234-.19-.425-.425-.425s-.425.19-.425.425v2.548c0 .234.191.424.425.424z"/><path d="m6.577 13.845c.234 0 .425-.19.425-.425v-.148c0-.234-.19-.425-.425-.425s-.425.19-.425.425v.148c0 .234.191.425.425.425z"/></g></g><g id="invitation"/></svg>