<svg enable-background="new 0 0 512 512" height="512" viewBox="0 0 512 512" width="512" xmlns="http://www.w3.org/2000/svg"><g id="_x31_3_Picnic"><g><g><path d="m282.668 189.866-82.506 82.506c-8.525 8.525-22.348 8.525-30.873 0-8.525-8.525-8.525-22.348 0-30.873l82.506-82.506c8.525-8.525 22.348-8.525 30.873 0 8.525 8.526 8.525 22.348 0 30.873z" fill="#b37f59"/><path d="m219.719 238.393v29.509h-108.503v-29.509c0-7.299 3.222-14.178 8.677-19.029 19.649-17.472 24.44-41.607 26.481-58.881h38.186c2.041 17.274 6.833 41.409 26.481 58.881 5.456 4.851 8.678 11.73 8.678 19.029z" fill="#65c5ef"/><path d="m491.812 273.26-53.112 183.861c-3.716 13.594-16.067 23.021-30.159 23.021h-304.732c-14.092 0-26.443-9.428-30.159-23.021l-53.113-183.861z" fill="#f8664f"/><path d="m491.817 273.268-53.126 183.845c-2.944 10.787-11.308 18.942-21.678 21.86.99-1.902 1.772-3.908 2.345-6.019l47.356-163.898c2.888-9.997-4.613-19.972-15.019-19.972h-426.603l-4.56-15.815h471.285z" opacity=".1"/><g><path d="m89.002 446.89-11.986-41.453c-.499-1.729.499-3.534 2.226-4.033 1.731-.491 3.535.499 4.033 2.226l11.986 41.453c.499 1.729-.499 3.534-2.226 4.033-1.744.501-3.537-.509-4.033-2.226z" fill="#fff"/></g><g><path d="m72.458 389.649-2.397-8.286c-.5-1.728.495-3.533 2.224-4.033 1.728-.508 3.534.495 4.033 2.224l2.397 8.286c.5 1.728-.495 3.533-2.224 4.033-1.719.501-3.532-.49-4.033-2.224z" fill="#fff"/></g><path d="m508.909 246.958v11.801c0 8.005-6.49 14.495-14.495 14.495h-476.479c-8.005 0-14.495-6.49-14.495-14.495v-11.801c0-8.005 6.49-14.495 14.495-14.495h476.479c8.006 0 14.495 6.49 14.495 14.495z" fill="#eef0ee"/><path d="m448.947 232.464h-30.972v-81.666c0-44.403-36.125-80.528-80.528-80.528h-162.544c-44.403 0-80.528 36.125-80.528 80.528v81.666h-30.972v-81.666c0-61.482 50.019-111.501 111.501-111.501h162.543c61.482 0 111.5 50.019 111.5 111.501z" fill="#878787"/><path d="m270.687 232.464h131.656v64.06c0 10.428-11.642 16.63-20.296 10.811z" fill="#f9e109"/><path d="m192.467 142.189v11.986c0 3.484-2.824 6.308-6.308 6.308h-41.382c-3.484 0-6.308-2.824-6.308-6.308v-11.986c0-3.484 2.824-6.308 6.308-6.308h41.382c3.483 0 6.308 2.824 6.308 6.308z" fill="#eef0ee"/></g><g><path d="m255.422 175.519c-1.272-1.272-3.333-1.272-4.605 0s-1.272 3.333 0 4.605l10.547 10.547c1.272 1.272 3.333 1.272 4.605 0s1.272-3.333 0-4.605z"/><path d="m233.698 197.242c-1.272-1.272-3.333-1.272-4.605 0s-1.272 3.335 0 4.605l10.549 10.547c1.272 1.272 3.333 1.272 4.605 0s1.272-3.334 0-4.605z"/><path d="m491.066 350.386c-1.72-.489-3.534.497-4.033 2.228l-2.501 8.677c-.499 1.728.499 3.533 2.226 4.032 1.757.502 3.54-.52 4.033-2.228l2.501-8.677c.499-1.728-.499-3.534-2.226-4.032z"/><path d="m483.796 375.555c-1.72-.487-3.534.497-4.033 2.226l-13.679 47.369c-.499 1.728.499 3.533 2.226 4.032 1.748.507 3.539-.517 4.033-2.225l13.679-47.369c.499-1.727-.498-3.533-2.226-4.033z"/><path d="m494.249 229.198h-42.215v-78.402c0-63.278-51.479-114.757-114.757-114.757h-162.544c-63.278 0-114.757 51.479-114.757 114.757v78.402h-42.222c-9.783 0-17.745 7.972-17.745 17.769v11.777c0 9.799 7.962 17.77 17.745 17.77h.155l52.433 181.47c4.076 14.96 17.765 25.408 33.289 25.408h304.74c15.506 0 29.205-10.445 33.302-25.36l52.421-181.517h.155c9.783 0 17.742-7.972 17.742-17.77v-11.777c0-9.799-7.959-17.77-17.742-17.77zm-427.759-78.402c0-59.685 48.558-108.243 108.243-108.243h162.544c59.685 0 108.243 48.558 108.243 108.243v78.402h-24.46v-78.402c0-46.199-37.584-83.785-83.783-83.785h-162.544c-46.199 0-83.786 37.585-83.786 83.785v78.402h-24.457zm181.271 78.402 37.047-37.047c9.731-9.784 9.829-25.585-.008-35.475-9.781-9.783-25.699-9.783-35.48 0l-47.422 47.422c-8.736-13.07-12.114-27.82-13.837-40.601 4.278-.952 7.492-4.764 7.492-9.325v-11.986c0-5.275-4.292-9.566-9.567-9.566h-41.38c-5.275 0-9.567 4.291-9.567 9.566v11.986c0 4.565 3.22 8.381 7.504 9.328-2.319 17.203-7.606 37.98-24.974 53.414-3.806 3.38-6.603 7.591-8.209 12.283h-11.9v-78.402c0-42.607 34.663-77.271 77.272-77.271h162.544c42.607 0 77.27 34.664 77.27 77.271v78.402h-166.785zm33.437 6.52h117.719v37.527c0 .004-.003.008-.003.013s.003.008.003.013v23.251c0 7.849-8.736 12.467-15.223 8.109zm-59.954-6.52c-1.602-4.667-4.396-8.876-8.207-12.283-2.691-2.391-5.062-4.923-7.206-7.537l48.096-48.096c7.241-7.243 19.025-7.244 26.261-.006 7.23 7.269 7.276 18.965.008 26.276l-41.645 41.646zm-35.257-71.974h-41.38c-1.684 0-3.053-1.369-3.053-3.052v-11.986c0-1.683 1.369-3.052 3.053-3.052h41.38c1.684 0 3.053 1.369 3.053 3.052v11.986c0 1.683-1.368 3.052-3.053 3.052zm-36.907 6.523h32.447c2.287 17.288 7.883 40.885 27.177 58.031 2.371 2.119 4.196 4.652 5.485 7.42h-97.775c1.289-2.779 3.112-5.31 5.481-7.413 19.302-17.153 24.898-40.75 27.185-58.038zm-142.558 94.997v-11.777c0-6.206 5.038-11.255 11.231-11.255h251.761l51 34.288c-14.629 0-288.143 0-302.76 0-6.194 0-11.232-5.049-11.232-11.256zm428.882 197.521c-3.333 12.137-14.45 20.613-27.032 20.613h-304.74c-12.592 0-23.696-8.474-27.017-20.655l-51.925-179.709h305.512l49.858 33.522c10.816 7.27 25.371-.445 25.371-13.515v-20.007h81.883zm70.074-197.521c0 6.207-5.038 11.257-11.229 11.257-20.715 0-65.155 0-88.819 0v-34.289c-.261 0 13.636.006 88.819 0 6.191 0 11.229 5.049 11.229 11.255z"/><path d="m59.513 85.675c1.55.929 3.546.418 4.468-1.116 1.662-2.765 3.242-5.191 4.834-7.417 1.046-1.463.71-3.497-.753-4.543-1.466-1.047-3.496-.71-4.544.754-1.695 2.369-3.369 4.937-5.119 7.852-.927 1.542-.428 3.543 1.114 4.47z"/><path d="m79.238 64.067c11.022-12.176 24.106-22.027 38.884-29.277 1.613-.791 2.282-2.743 1.488-4.359-.789-1.613-2.738-2.281-4.359-1.488-15.524 7.616-29.264 17.962-40.843 30.753-1.206 1.333-1.104 3.393.229 4.6 1.332 1.204 3.388 1.108 4.601-.229z"/></g></g></g></svg>