<svg id="Layer_1" viewBox="0 0 96 96" xmlns="http://www.w3.org/2000/svg" data-name="Layer 1"><path d="m55.85 19.48c-.65-3.37-3.42-5.99-6.87-6.41.01-.1.02-.2-.01-.3-.2-.85-.2-1.72 0-2.53.48-1.93 1.95-3.01 2.55-3.39.47-.29.62-.9.33-1.37s-.9-.62-1.37-.33c-.82.5-2.8 1.96-3.45 4.61-.26 1.07-.27 2.21-.03 3.31-3.44.43-6.2 3.05-6.85 6.41-18.88 1.6-36.15 7.06-36.15 34.42 0 4.46.42 9.88 3.71 12.13 1.06.72 2.28 1.02 3.46.9l4.35 20.89c.39 1.84 2.04 3.18 3.92 3.18h57.12c1.88 0 3.53-1.34 3.92-3.18l4.35-20.89c1.18.12 2.4-.18 3.46-.9 3.29-2.25 3.71-7.67 3.71-12.13 0-27.36-17.27-32.82-36.15-34.42zm-7.85-4.48c3.31 0 6 2.69 6 6s-2.69 6-6 6-6-2.69-6-6 2.69-6 6-6zm30.52 72.41c-.19.92-1.02 1.59-1.96 1.59h-57.12c-.94 0-1.77-.67-1.96-1.59l-4.39-21.06c.48-.25.93-.56 1.35-.95.56-.53 1.03-1.16 1.48-1.77.55-.75 1.07-1.45 1.68-1.85 1.34-.9 3.05.02 3.98 1.34.42.59.76 1.3 1.13 2.05.4.83.81 1.68 1.36 2.44 1.08 1.48 2.67 2.39 4.36 2.5 1.58.09 3.07-.51 4.19-1.7.26-.28.51-.6.75-.91.25-.32.48-.62.73-.87.77-.76 1.63-.82 2.21-.75 1.14.16 2.23.96 2.91 2.15.22.39.41.81.61 1.26.27.59.54 1.19.9 1.76 1.87 2.95 5.12 2.95 7.27 2.95s5.4 0 7.27-2.95c.36-.57.63-1.17.9-1.76.2-.45.39-.87.61-1.25.68-1.2 1.77-2 2.91-2.16.58-.07 1.44-.01 2.21.75.25.25.48.55.73.87.24.31.49.63.75.9 1.12 1.2 2.61 1.81 4.19 1.71 1.69-.11 3.28-1.02 4.36-2.5.55-.76.96-1.61 1.36-2.44.37-.75.71-1.46 1.14-2.06.92-1.31 2.63-2.23 3.98-1.33.6.4 1.12 1.1 1.67 1.85.45.61.92 1.24 1.48 1.76.41.4.87.71 1.35.95zm8.65-23.03c-1.32.9-3.02.72-4.23-.44-.44-.41-.83-.94-1.25-1.5-.63-.85-1.28-1.73-2.17-2.32-2.11-1.41-5-.62-6.73 1.84-.51.73-.91 1.55-1.29 2.34-.38.78-.74 1.52-1.19 2.13-.72 1-1.77 1.61-2.87 1.68-.96.06-1.9-.32-2.6-1.08-.23-.23-.43-.49-.63-.76-.28-.35-.56-.72-.91-1.06-1.05-1.04-2.42-1.5-3.88-1.31-1.75.24-3.39 1.41-4.38 3.15-.26.46-.48.95-.7 1.42-.24.55-.47 1.06-.75 1.5-1.19 1.88-3.24 2.03-5.59 2.03s-4.4-.15-5.59-2.03c-.28-.44-.51-.95-.75-1.5-.22-.47-.44-.96-.7-1.43-.99-1.73-2.63-2.9-4.38-3.14-1.45-.19-2.83.27-3.88 1.31-.35.34-.63.71-.91 1.06-.2.27-.4.53-.63.77-.7.75-1.64 1.12-2.6 1.07-1.1-.07-2.15-.68-2.87-1.68-.45-.61-.81-1.35-1.19-2.13-.38-.79-.78-1.61-1.29-2.33-1.73-2.47-4.62-3.26-6.72-1.85-.9.59-1.55 1.47-2.18 2.32-.42.56-.81 1.09-1.25 1.51-1.21 1.15-2.91 1.33-4.23.43-2.51-1.73-2.83-6.51-2.83-10.48 0-24.24 13.56-30.61 34.03-32.4.26 4.18 3.73 7.5 7.97 7.5s7.71-3.32 7.97-7.5c20.47 1.79 34.03 8.16 34.03 32.4 0 3.97-.32 8.75-2.83 10.48z"/><circle cx="48" cy="21" fill="#ef5350" r="6"/><path d="m90 53.9c0 3.97-.32 8.75-2.83 10.48-1.32.9-3.02.72-4.23-.44-.44-.41-.83-.94-1.25-1.5-.63-.85-1.28-1.73-2.17-2.32-2.11-1.41-5-.62-6.73 1.84-.51.73-.91 1.55-1.29 2.34-.38.78-.74 1.52-1.19 2.13-.72 1-1.77 1.61-2.87 1.68-.96.06-1.9-.32-2.6-1.08-.23-.23-.43-.49-.63-.76-.28-.35-.56-.72-.91-1.06-1.05-1.04-2.42-1.5-3.88-1.31-1.75.24-3.39 1.41-4.38 3.15-.26.46-.48.95-.7 1.42-.24.55-.47 1.06-.75 1.5-1.19 1.88-3.24 2.03-5.59 2.03s-4.4-.15-5.59-2.03c-.28-.44-.51-.95-.75-1.5-.22-.47-.44-.96-.7-1.43-.99-1.73-2.63-2.9-4.38-3.14-1.45-.19-2.83.27-3.88 1.31-.35.34-.63.71-.91 1.06-.2.27-.4.53-.63.77-.7.75-1.64 1.12-2.6 1.07-1.1-.07-2.15-.68-2.87-1.68-.45-.61-.81-1.35-1.19-2.13-.38-.79-.78-1.61-1.29-2.33-1.73-2.47-4.62-3.26-6.72-1.85-.9.59-1.55 1.47-2.18 2.32-.42.56-.81 1.09-1.25 1.51-1.21 1.15-2.91 1.33-4.23.43-2.51-1.73-2.83-6.51-2.83-10.48 0-24.24 13.56-30.61 34.03-32.4.26 4.18 3.73 7.5 7.97 7.5s7.71-3.32 7.97-7.5c20.47 1.79 34.03 8.16 34.03 32.4z" fill="#ffe0b2"/><path d="m82.91 66.34-4.39 21.07c-.19.92-1.02 1.59-1.96 1.59h-57.12c-.94 0-1.77-.67-1.96-1.59l-4.39-21.06c.48-.25.93-.56 1.35-.95.56-.53 1.03-1.16 1.48-1.77.55-.75 1.07-1.45 1.68-1.85 1.34-.9 3.05.02 3.98 1.34.42.59.76 1.3 1.13 2.05.4.83.81 1.68 1.36 2.44 1.08 1.48 2.67 2.39 4.36 2.5 1.58.09 3.07-.51 4.19-1.7.26-.28.51-.6.75-.91.25-.32.48-.62.73-.87.77-.76 1.63-.82 2.21-.75 1.14.16 2.23.96 2.91 2.15.22.39.41.81.61 1.26.27.59.54 1.19.9 1.76 1.87 2.95 5.12 2.95 7.27 2.95s5.4 0 7.27-2.95c.36-.57.63-1.17.9-1.76.2-.45.39-.87.61-1.25.68-1.2 1.77-2 2.91-2.16.58-.07 1.44-.01 2.21.75.25.25.48.55.73.87.24.31.49.63.75.9 1.12 1.2 2.61 1.81 4.19 1.71 1.69-.11 3.28-1.02 4.36-2.5.55-.76.96-1.61 1.36-2.44.37-.75.71-1.46 1.14-2.06.92-1.31 2.63-2.23 3.98-1.33.6.4 1.12 1.1 1.67 1.85.45.61.92 1.24 1.48 1.76.41.4.87.71 1.35.95z" fill="#795548"/></svg>