<svg fill="none" height="24" viewBox="0 0 24 24" width="24" xmlns="http://www.w3.org/2000/svg"><path d="m18.4612 17.2108 1.3959-3.2108h-15.71425l1.39595 3.2108c.45354 1.0432 1.4827 1.718 2.62022 1.718h7.68198c1.1375 0 2.1666-.6748 2.6202-1.718z" fill="#ff3d83"/><path d="m19 14.3911.0226.0207c.5527.5076 1.4021.5076 1.9549 0 .5712-.5246.6265-1.4066.1252-1.9984l-.2129-.2515c-.2084-.246-.3398-.5459-.437-.8533-.5459-1.72542-2.7632-5.23682-8.4528-5.23682-5.68961 0-7.90685 3.5114-8.45279 5.23682-.09725.3074-.22863.6073-.43697.8533l-.21298.2515c-.50125.5918-.44596 1.4738.1253 1.9984.55277.5076 1.40212.5076 1.95489 0l.02255-.0207c.56553-.5194 1.43447-.5194 2 0 .56553.5193 1.43448.5193 2 0 .56553-.5194 1.4345-.5194 2 0 .5655.5193 1.4345.5193 2 0 .5655-.5194 1.4345-.5194 2 0 .5655.5193 1.4345.5193 2 0 .5655-.5194 1.4345-.5194 2 0z" fill="#decd72"/><g clip-rule="evenodd" fill="#1e3317" fill-rule="evenodd"><path d="m4.59008 14.4194 1.35316 2.7064c.39928.7985 1.21547 1.303 2.10829 1.303h7.89697c.8928 0 1.709-.5045 2.1083-1.303l1.3531-2.7064.8945.4472-1.3532 2.7064c-.5687 1.1373-1.7311 1.8558-3.0027 1.8558h-7.89697c-1.27159 0-2.43405-.7185-3.00272-1.8558l-1.35316-2.7064z"/><path d="m12 6.57178c-5.42817 0-7.48181 3.32553-7.97608 4.88772-.10655.3367-.26284.7076-.53214 1.0256l-.21297.2514c-.32783.3871-.29166.9639.08194 1.307.36152.332.917.332 1.27852 0l.02255-.0207h.00001c.75678-.695 1.91959-.695 2.67637 0 .37427.3437.94935.3437 1.32362 0 .75679-.695 1.91958-.695 2.67638 0 .3743.3437.9493.3437 1.3236 0 .7568-.695 1.9196-.695 2.6764 0 .3743.3437.9493.3437 1.3236 0 .7568-.695 1.9196-.695 2.6764 0l.0226.0207c.3615.332.917.332 1.2785 0 .3736-.3431.4097-.9199.0819-1.307l-.213-.2514c-.2693-.318-.4255-.6889-.5321-1.0256-.4943-1.56219-2.5479-4.88772-7.9761-4.88772zm-8.92949 4.58602c.59761-1.88876 2.97845-5.58602 8.92949-5.58602 5.9511 0 8.3319 3.69726 8.9295 5.58602.088.278.1944.5069.3418.681l.213.2514c.6747.7966.6003 1.9838-.1687 2.6898-.744.6833-1.8872.6833-2.6312 0l-.0226-.0207c-.3743-.3437-.9493-.3437-1.3236 0-.7568.695-1.9196.695-2.6764 0-.3743-.3437-.9493-.3437-1.3236 0-.7568.695-1.9196.695-2.6764 0-.3743-.3437-.94933-.3437-1.3236 0-.75679.695-1.91959.695-2.67638 0-.37427-.3437-.94935-.3437-1.32362 0l-.32119-.3497.32118.3497-.02255.0208c-.74403.6832-1.88723.6832-2.63127-.0001-.7689-.706-.84333-1.8932-.16864-2.6898l.21297-.2514c.1474-.1741.25386-.403.34181-.681z"/><path d="m12 8.42871c.2761 0 .5.22386.5.5v2.14289c0 .2761-.2239.5-.5.5s-.5-.2239-.5-.5v-2.14289c0-.27614.2239-.5.5-.5z"/><path d="m14.6071 8.63916c.2392-.13807.545-.05613.6831.18301l1.0714 1.85573c.1381.2392.0561.545-.183.6831-.2392.138-.545.0561-.683-.1831l-1.0715-1.85573c-.138-.23914-.0561-.54494.183-.68301z"/><path d="m9.39285 8.63916c-.23914-.13807-.54494-.05613-.68301.18301l-1.07143 1.85573c-.13807.2392-.05613.545.18302.6831.23914.138.54494.0561.68301-.1831l1.07143-1.85573c.13807-.23914.05613-.54494-.18302-.68301z"/></g></svg>