<svg height="512" viewBox="0 0 128 128" width="512" xmlns="http://www.w3.org/2000/svg"><g><path d="m121.693 64a11.9 11.9 0 0 0 -3.184-8.117 5.152 5.152 0 0 1 -1.043-5.244 11.94 11.94 0 0 0 -6.212-15 5.15 5.15 0 0 1 -2.971-4.445 11.938 11.938 0 0 0 -11.483-11.477 5.15 5.15 0 0 1 -4.445-2.971 11.941 11.941 0 0 0 -15-6.212 5.151 5.151 0 0 1 -5.243-1.043 11.938 11.938 0 0 0 -16.234 0 5.151 5.151 0 0 1 -5.243 1.043 11.941 11.941 0 0 0 -15 6.212 5.15 5.15 0 0 1 -4.435 2.971 11.938 11.938 0 0 0 -11.483 11.483 5.15 5.15 0 0 1 -2.971 4.445 11.94 11.94 0 0 0 -6.212 15 5.152 5.152 0 0 1 -1.043 5.244 11.938 11.938 0 0 0 0 16.234 5.15 5.15 0 0 1 1.043 5.243 11.941 11.941 0 0 0 6.212 15 5.15 5.15 0 0 1 2.971 4.434 11.938 11.938 0 0 0 11.483 11.483 5.15 5.15 0 0 1 4.445 2.971 11.941 11.941 0 0 0 15 6.212 5.151 5.151 0 0 1 5.243 1.043 11.938 11.938 0 0 0 16.234 0 5.151 5.151 0 0 1 5.243-1.043 11.941 11.941 0 0 0 15-6.212 5.15 5.15 0 0 1 4.445-2.971 11.938 11.938 0 0 0 11.473-11.483 5.15 5.15 0 0 1 2.971-4.445 11.941 11.941 0 0 0 6.212-15 5.15 5.15 0 0 1 1.043-5.243 11.9 11.9 0 0 0 3.184-8.112z" fill="#fdca74"/><circle cx="64" cy="64" fill="#f3f5e6" r="43.581"/><g fill="#fa7578"><path d="m64 31.383a11.58 11.58 0 0 0 0 16.376 11.58 11.58 0 0 0 0-16.376z"/><path d="m64 96.617a11.58 11.58 0 0 0 0-16.376 11.58 11.58 0 0 0 0 16.376z"/><path d="m96.617 64a11.58 11.58 0 0 0 -16.376 0 11.58 11.58 0 0 0 16.376 0z"/><path d="m31.383 64a11.58 11.58 0 0 0 16.376 0 11.58 11.58 0 0 0 -16.376 0z"/><path d="m87.064 40.936a11.581 11.581 0 0 0 -11.58 11.58 11.581 11.581 0 0 0 11.58-11.58z"/><path d="m40.936 87.064a11.581 11.581 0 0 0 11.58-11.58 11.581 11.581 0 0 0 -11.58 11.58z"/><path d="m87.064 87.064a11.581 11.581 0 0 0 -11.58-11.58 11.581 11.581 0 0 0 11.58 11.58z"/><path d="m40.936 40.936a11.581 11.581 0 0 0 11.58 11.58 11.581 11.581 0 0 0 -11.58-11.58z"/></g><g><path d="m17.472 36.982a1.75 1.75 0 0 1 -.987-3.2 3.4 3.4 0 0 0 1.476-2.539 1.75 1.75 0 0 1 3.491.26 6.942 6.942 0 0 1 -3 5.173 1.744 1.744 0 0 1 -.98.306z"/><path d="m117.3 87.829a1.751 1.751 0 0 1 -1.616-2.421 10.168 10.168 0 0 0 .14-7.44 6.912 6.912 0 0 1 1.4-7.04 10.191 10.191 0 0 0 0-13.856 6.912 6.912 0 0 1 -1.4-7.04 10.188 10.188 0 0 0 -5.3-12.8 6.914 6.914 0 0 1 -3.987-5.968 10.191 10.191 0 0 0 -9.8-9.8 6.915 6.915 0 0 1 -5.968-3.988 10.189 10.189 0 0 0 -12.8-5.3 6.912 6.912 0 0 1 -7.04-1.4 10.191 10.191 0 0 0 -13.856 0 6.915 6.915 0 0 1 -7.04 1.4 10.189 10.189 0 0 0 -12.8 5.3 6.915 6.915 0 0 1 -5.968 3.988 10.164 10.164 0 0 0 -6.82 2.977 1.75 1.75 0 0 1 -2.476-2.474 13.653 13.653 0 0 1 9.162-4 3.387 3.387 0 0 0 2.922-1.952 13.688 13.688 0 0 1 17.2-7.123 3.386 3.386 0 0 0 3.446-.686 13.69 13.69 0 0 1 18.613 0 3.383 3.383 0 0 0 3.446.686 13.689 13.689 0 0 1 17.2 7.123 3.387 3.387 0 0 0 2.922 1.952 13.689 13.689 0 0 1 13.161 13.161 3.387 3.387 0 0 0 1.952 2.922 13.688 13.688 0 0 1 7.123 17.2 3.385 3.385 0 0 0 .686 3.446 13.69 13.69 0 0 1 0 18.613 3.389 3.389 0 0 0 -.686 3.447 13.654 13.654 0 0 1 -.189 10 1.751 1.751 0 0 1 -1.627 1.073z"/><path d="m64 123.443a13.657 13.657 0 0 1 -9.306-3.65 3.387 3.387 0 0 0 -3.446-.686 13.689 13.689 0 0 1 -17.2-7.123 3.387 3.387 0 0 0 -2.923-1.952 13.689 13.689 0 0 1 -13.16-13.161 3.387 3.387 0 0 0 -1.952-2.922 13.688 13.688 0 0 1 -7.123-17.2 3.386 3.386 0 0 0 -.686-3.446 13.69 13.69 0 0 1 0-18.613 3.387 3.387 0 0 0 .686-3.447 13.654 13.654 0 0 1 .189-9.995 1.75 1.75 0 1 1 3.233 1.34 10.168 10.168 0 0 0 -.14 7.44 6.912 6.912 0 0 1 -1.4 7.04 10.19 10.19 0 0 0 0 13.856 6.914 6.914 0 0 1 1.4 7.04 10.189 10.189 0 0 0 5.3 12.8 6.913 6.913 0 0 1 3.988 5.968 10.191 10.191 0 0 0 9.8 9.8 6.913 6.913 0 0 1 5.968 3.988 10.189 10.189 0 0 0 12.8 5.3 6.91 6.91 0 0 1 7.04 1.4 10.191 10.191 0 0 0 13.856 0 6.907 6.907 0 0 1 7.04-1.4 10.189 10.189 0 0 0 12.8-5.3 6.913 6.913 0 0 1 5.968-3.988 10.191 10.191 0 0 0 9.8-9.8 6.934 6.934 0 0 1 2.8-5.266 1.75 1.75 0 1 1 2.078 2.816 3.407 3.407 0 0 0 -1.38 2.585 13.689 13.689 0 0 1 -13.161 13.16 3.387 3.387 0 0 0 -2.922 1.952 13.688 13.688 0 0 1 -17.2 7.123 3.383 3.383 0 0 0 -3.446.686 13.662 13.662 0 0 1 -9.301 3.655z"/><path d="m64 109.331a45.331 45.331 0 1 1 45.331-45.331 45.382 45.382 0 0 1 -45.331 45.331zm0-87.162a41.831 41.831 0 1 0 41.831 41.831 41.878 41.878 0 0 0 -41.831-41.831z"/><path d="m64 49.509a1.743 1.743 0 0 1 -1.237-.509 13.343 13.343 0 0 1 0-18.851 1.75 1.75 0 0 1 2.474 0 13.343 13.343 0 0 1 0 18.851 1.743 1.743 0 0 1 -1.237.509zm0-15.379a9.858 9.858 0 0 0 0 10.881 9.858 9.858 0 0 0 0-10.881z"/><path d="m64 98.367a1.746 1.746 0 0 1 -1.237-.512 13.343 13.343 0 0 1 0-18.851 1.748 1.748 0 0 1 2.474 0 13.343 13.343 0 0 1 0 18.851 1.746 1.746 0 0 1 -1.237.512zm0-15.378a9.858 9.858 0 0 0 0 10.881 9.858 9.858 0 0 0 0-10.881z"/><path d="m88.429 69.135a13.285 13.285 0 0 1 -9.429-3.898 1.748 1.748 0 0 1 0-2.474 13.343 13.343 0 0 1 18.851 0 1.75 1.75 0 0 1 0 2.474 13.288 13.288 0 0 1 -9.422 3.898zm-5.44-5.135a9.858 9.858 0 0 0 10.881 0 9.858 9.858 0 0 0 -10.881 0z"/><path d="m39.571 69.135a13.288 13.288 0 0 1 -9.426-3.9 1.75 1.75 0 0 1 0-2.474 13.343 13.343 0 0 1 18.851 0 1.748 1.748 0 0 1 0 2.474 13.285 13.285 0 0 1 -9.425 3.9zm-5.441-5.135a9.858 9.858 0 0 0 10.881 0 9.858 9.858 0 0 0 -10.881 0z"/><path d="m75.484 54.266a1.751 1.751 0 0 1 -1.75-1.75 13.345 13.345 0 0 1 13.33-13.33 1.751 1.751 0 0 1 1.75 1.75 13.345 13.345 0 0 1 -13.33 13.33zm9.637-11.387a9.858 9.858 0 0 0 -7.694 7.694 9.858 9.858 0 0 0 7.694-7.694z"/><path d="m40.936 88.814a1.751 1.751 0 0 1 -1.75-1.75 13.345 13.345 0 0 1 13.33-13.33 1.751 1.751 0 0 1 1.75 1.75 13.345 13.345 0 0 1 -13.33 13.33zm9.637-11.387a9.858 9.858 0 0 0 -7.694 7.694 9.858 9.858 0 0 0 7.694-7.694z"/><path d="m87.064 88.814a13.345 13.345 0 0 1 -13.33-13.33 1.751 1.751 0 0 1 1.75-1.75 13.345 13.345 0 0 1 13.33 13.33 1.751 1.751 0 0 1 -1.75 1.75zm-9.637-11.387a9.858 9.858 0 0 0 7.694 7.694 9.858 9.858 0 0 0 -7.694-7.694z"/><path d="m52.516 54.266a13.345 13.345 0 0 1 -13.33-13.33 1.751 1.751 0 0 1 1.75-1.75 13.345 13.345 0 0 1 13.33 13.33 1.751 1.751 0 0 1 -1.75 1.75zm-9.637-11.387a9.858 9.858 0 0 0 7.694 7.694 9.858 9.858 0 0 0 -7.694-7.694z"/></g></g></svg>