<svg id="Pineapple" enable-background="new 0 0 64 64" viewBox="0 0 64 64" xmlns="http://www.w3.org/2000/svg"><g><g><path d="m35.87896 14.89909c-2.71766-8.06249-11.83099-13.30989-18.01062-14.00042-1.35017-.15087-2.11164 1.45844-1.15083 2.41894 6.80014 6.79801 6.89608 16.48076 6.77604 17.11227 2.75643-1.71645 9.62898-3.81435 12.38541-5.53079z" fill="#75d64c"/><path d="m22.23882 22.25811.38111-1.99499c.1389-1.1225-.33857-10.12685-6.53102-16.31668-.71101-.71101-.89245-1.75017-.46098-2.64609.42712-.89071 1.34301-1.39163 2.33877-1.28571 6.91387.7735 16.0493 6.57528 18.75442 14.60036l.22572.66673-.59728.37156c-1.44632.90026-3.82155 1.84132-6.33568 2.83708-2.33009.9237-4.74004 1.87779-6.05093 2.69384zm-4.54385-20.48029c-.29083 0-.42018.20054-.46445.29256-.04948.10244-.1363.36722.11546.61898 5.51008 5.50835 6.82792 12.91531 7.03193 16.24984 1.38034-.67541 3.14354-1.3734 4.98139-2.10177 1.99933-.79174 4.05595-1.60693 5.42761-2.3379-2.75374-7.00674-10.84393-12.0272-17.01728-12.71737-.02604-.00347-.05122-.00434-.07466-.00434z" fill="#101016"/></g><g><path d="m22.48502 14.89909c2.71767-8.06249 11.831-13.30989 18.01063-14.00042 1.35017-.15087 2.11164 1.45844 1.15083 2.41894-6.80014 6.79801-6.89608 16.48076-6.77604 17.11227-2.75643-1.71645-9.62898-3.81435-12.38542-5.53079z" fill="#55a837"/><path d="m35.97626 22.13396-1.57654-.94975c-1.30915-.81605-3.71911-1.77014-6.05007-2.69384-2.51413-.99576-4.88849-1.93682-6.33395-2.83708l-.59728-.37156.22485-.66673c2.70426-8.02508 11.83969-13.82686 18.75356-14.60037.96885-.10852 1.90991.39327 2.33877 1.28485.43233.89679.25176 1.93508-.46011 2.64696-6.18984 6.18723-6.66905 15.19418-6.52841 16.33926zm-12.39964-7.63442c1.37166.73097 3.42915 1.54616 5.42761 2.3379 1.83872.72837 3.60191 1.42722 4.98225 2.10177.20488-3.33453 1.52619-10.74757 7.03193-16.24984.25176-.25176.16494-.51741.11459-.61985-.04688-.09897-.20141-.34031-.53825-.28735-6.17419.69016-14.26265 5.71062-17.01813 12.71737z" fill="#101016"/></g><g><path d="m34.13699 22.79119c-3.08196-9.14323-13.6001-15.01337-20.43328-15.5341-1.31298-.10006-2.00915 1.5163-1.06076 2.42982 7.81831 7.53087 7.92899 18.51426 7.79449 19.22192 3.04889-1.89857 10.65065-4.21908 13.69955-6.11764z" fill="#65bf41"/><path d="m19.1847 30.73636.37938-1.99325c.16581-1.28485-.35941-11.50112-7.53719-18.41672-.71187-.68496-.91068-1.7111-.50613-2.61397.39934-.88898 1.27877-1.40725 2.25109-1.34128 6.78451.51654 17.92969 6.41121 21.20779 16.13611l.22572.66673-.59728.37156c-1.5939.99142-4.21568 2.03058-6.99286 3.13051-2.58185 1.02267-5.25138 2.08006-6.70811 2.98727zm-5.59603-22.59421c-.26999 0-.39414.18405-.44536.29777-.03646.08074-.13543.36375.11633.60596 6.41555 6.18029 7.8749 14.70542 8.07196 18.36029 1.54095-.76396 3.54201-1.55571 5.62902-2.38305 2.24935-.89071 4.56555-1.80833 6.08826-2.62959-3.31194-8.5911-13.27992-13.78258-19.41246-14.24964-.01649-.00087-.03212-.00174-.04775-.00174z" fill="#101016"/></g><g><path d="m24.22699 22.79119c3.08196-9.14323 13.6001-15.01337 20.43328-15.5341 1.31298-.10006 2.00915 1.5163 1.06076 2.42982-7.81831 7.53087-7.92899 18.51426-7.79448 19.22192-3.04889-1.89857-10.65065-4.21908-13.69956-6.11764z" fill="#75d64c"/><path d="m39.04253 30.62177-1.58696-.95843c-1.455-.90634-4.1254-1.9646-6.70638-2.9864-2.77718-1.1008-5.39983-2.1391-6.992-3.13138l-.59728-.37156.22485-.66673c3.2781-9.7249 14.42327-15.61957 21.20865-16.13611.981-.06945 1.85261.45317 2.25022 1.34128.40456.90287.20488 1.92987-.50699 2.61484-7.1743 6.91126-7.70214 17.131-7.53372 18.43495zm-13.72703-8.22823c1.52185.82126 3.83891 1.73888 6.08826 2.62959 2.08788.82734 4.08807 1.61995 5.62988 2.38391.19794-3.65487 1.65989-12.18521 8.07023-18.36029.25176-.24308.15279-.52609.11633-.6077-.05209-.1198-.16321-.30124-.49137-.29517-6.13252.46707-16.10224 5.65855-19.41333 14.24966z" fill="#101016"/></g><g><path d="m45.91308 42.0654c0 10.92472-6.19868 16.69677-16.73105 16.69677-10.53245 0-16.73113-5.77205-16.73113-16.69677 0-13.10464 6.39997-22.82792 16.73113-22.82792s16.73105 9.72328 16.73105 22.82792z" fill="#ffdc6e"/><path d="m45.91756 42.06495c0 10.92359-6.20506 16.69644-16.73104 16.69644-2.38522 0-4.54574-.2938-6.44706-.88151 5.46185-4.21733 12.82481-11.92599 14.19032-23.38539.65681-5.47904-.2593-10.26679-1.40001-13.84462 6.53336 3.12843 10.38779 11.2693 10.38779 21.41508z" opacity=".1"/><g fill="#101016"><path d="m29.1822 59.65062c-11.19814 0-17.62063-6.41034-17.62063-17.58504 0-14.1854 7.08142-23.71671 17.62063-23.71671s17.61976 9.53131 17.61976 23.71671c0 11.1747-6.4225 17.58504-17.61976 17.58504zm0-39.5238c-9.47575 0-15.84268 8.81683-15.84268 21.93876 0 10.1937 5.62641 15.80709 15.84268 15.80709s15.84181-5.61339 15.84181-15.80709c0-13.12193-6.36694-21.93876-15.84181-21.93876z"/><path d="m33.482 14.688h1.778v27.013h-1.778z" transform="matrix(.575 -.818 .818 .575 -8.462 40.097)"/><path d="m29.269 20.592h1.779v36.014h-1.779z" transform="matrix(.576 -.818 .818 .576 -18.765 41.044)"/><path d="m24.15 33.069h1.779v30.584h-1.779z" transform="matrix(.576 -.818 .818 .576 -28.919 40.999)"/><path d="m10.488 27.299h27.01v1.778h-27.01z" transform="matrix(.818 -.575 .575 .818 -11.845 18.923)"/><path d="m10.204 37.711h36.004v1.778h-36.004z" transform="matrix(.817 -.577 .577 .817 -17.096 23.327)"/><path d="m18.026 47.471h30.595v1.778h-30.595z" transform="matrix(.818 -.575 .575 .818 -21.748 27.958)"/></g></g><g><path d="m39.14357 37.78571c-6.99003 0-12.65432 5.68164-12.65432 12.67167s5.6643 12.65432 12.65432 12.65432 12.65443-5.6643 12.65443-12.65433-5.66441-12.67166-12.65443-12.67166zm0 17.07916c-2.44476 0-4.42474-1.97998-4.42474-4.4075 0-2.44487 1.97998-4.42474 4.42474-4.42474s4.42474 1.97987 4.42474 4.42474c-.00001 2.42753-1.97998 4.4075-4.42474 4.4075z" fill="#ffefb4"/><path d="m51.79411 50.46502c0 6.98276-5.65184 12.65201-12.65201 12.65201-2.93822 0-5.63454-1.00251-7.77786-2.69632 1.86671-.6395 5.32354-2.19512 8.08897-5.56555 2.31612-.1555 4.11364-2.07401 4.11364-4.39014 0-.89881-.2592-1.71111-.7086-2.40252.98521-4.04443.2593-7.67416-.41481-9.83468 5.39263 1.45191 9.35067 6.37785 9.35067 12.2372z" opacity=".1"/><g fill="#101016"><path d="m39.14323 64c-7.46774 0-13.54298-6.07524-13.54298-13.54298 0-7.47642 6.07524-13.56034 13.54298-13.56034s13.54298 6.08392 13.54298 13.56034c0 7.46774-6.07524 13.54298-13.54298 13.54298zm0-25.32537c-6.48674 0-11.76503 5.28523-11.76503 11.78239 0 6.48674 5.27829 11.76503 11.76503 11.76503s11.76503-5.27829 11.76503-11.76503c0-6.49716-5.27829-11.78239-11.76503-11.78239zm0 17.07978c-2.9291 0-5.31301-2.37697-5.31301-5.29739 0-2.9291 2.38391-5.31301 5.31301-5.31301 2.93084 0 5.31475 2.38391 5.31475 5.31301 0 2.92042-2.38391 5.29739-5.31475 5.29739zm0-8.83245c-1.94984 0-3.53506 1.58522-3.53506 3.53506 0 1.94116 1.58522 3.51944 3.53506 3.51944s3.5368-1.57828 3.5368-3.51944c0-1.94984-1.58696-3.53506-3.5368-3.53506z"/><path d="m39.1415 43.48412c-.49137 0-.88898-.39761-.88898-.88898v-1.3595c0-.49137.39761-.88898.88898-.88898s.88897.39761.88897.88898v1.3595c0 .49137-.3976.88898-.88897.88898z"/><path d="m39.1415 60.56217c-.49137 0-.88898-.39761-.88898-.88898v-1.3595c0-.49137.39761-.88898.88898-.88898s.88897.39761.88897.88898v1.3595c0 .49137-.3976.88898-.88897.88898z"/><path d="m44.7028 45.79164c-.49137 0-.89766-.39761-.89766-.88897 0-.2917.13717-.54866.35073-.71188l.85946-.87508c.34204-.35073.9046-.3542 1.25706-.01042.34899.34378.3542.90634.01042 1.25706l-.94627.96363c-.16668.17016-.39587.26566-.63374.26566z"/><path d="m32.63392 57.85878c-.22572 0-.4497-.08508-.62333-.25523-.35073-.34378-.3542-.90634-.01042-1.25706l.94801-.96363c.34378-.35247.90634-.3542 1.25706-.01042.35073.34378.3542.90634.01042 1.25706l-.94801.96363c-.17361.1771-.40454.26565-.63373.26565z"/><path d="m48.35246 51.33558h-1.34388c-.49137 0-.88897-.39761-.88897-.88898s.39761-.88897.88897-.88897h1.34388c.49137 0 .88898.39761.88898.88897s-.39761.88898-.88898.88898z"/><path d="m31.27442 51.33558h-1.34302c-.49137 0-.88898-.39761-.88898-.88898s.39761-.88897.88898-.88897h1.34301c.49137 0 .88898.39761.88898.88897s-.39761.88898-.88897.88898z"/><path d="m45.64907 57.85878c-.23093 0-.46012-.08855-.63374-.26565l-.94627-.96363c-.34378-.35073-.33857-.91328.01042-1.25706.3542-.34378.91502-.33684 1.25707.01042l.94627.96363c.34378.35073.33857.91328-.01042 1.25706-.17363.17015-.39935.25523-.62333.25523z"/><path d="m33.59756 45.79164c-.23787 0-.48269-.09549-.64937-.26565l-.94801-.96363c-.34378-.35073-.34031-.91328.01042-1.25706.34899-.34378.91155-.34031 1.25707.01042l.90286.91849c.18925.16321.30906.40108.30906.66847 0 .49135-.39067.88896-.88203.88896z"/></g></g></g></svg>