<svg enable-background="new 0 0 512 512" height="512" viewBox="0 0 512 512" width="512" xmlns="http://www.w3.org/2000/svg"><g id="_x33_5_pine"><g><g><path d="m227.858 311.365h56.592v197.371h-56.592z" fill="#b37f59"/><path d="m439.628 372.083-.052.054c-10.127 10.542-26.546 10.542-36.673 0l-19.016-19.796c-9.778-10.178-25.631-10.175-35.405.008l-17.685 18.425c-10.84 11.293-28.423 11.297-39.267.009l-17.723-18.449c-9.775-10.175-25.623-10.175-35.397 0l-17.723 18.449c-10.844 11.289-28.427 11.285-39.267-.008l-17.678-18.417c-9.776-10.185-25.636-10.185-35.412 0l-18.97 19.764c-10.126 10.55-26.551 10.553-36.681.008-9.469-9.857-10.171-25.598-1.62-36.326l185.095-232.205 185.092 232.157c8.553 10.727 7.852 26.469-1.618 36.327z" fill="#a1d51c"/><path d="m418.934 267.262-.046.048c-8.985 9.353-23.552 9.353-32.537 0l-16.901-17.594c-8.658-9.013-22.697-9.01-31.352.007l-17.326 18.051c-8.73 9.096-22.892 9.099-31.626.007l-17.36-18.071c-8.656-9.011-22.69-9.011-31.346 0l-17.36 18.071c-8.734 9.092-22.895 9.089-31.626-.007l-17.319-18.044c-8.657-9.02-22.701-9.02-31.359 0l-16.86 17.566c-8.984 9.36-23.556 9.363-32.543.007-8.401-8.745-9.024-22.711-1.437-32.228l164.219-206.015 164.215 205.972c7.588 9.517 6.965 23.484-1.436 32.23z" fill="#a1d51c"/><g><path d="m119.548 233.875c-1.405-1.12-1.639-3.17-.517-4.577l22.096-27.719c1.117-1.405 3.17-1.641 4.575-.519 1.407 1.12 1.641 3.168.519 4.575l-22.096 27.724c-1.126 1.411-3.175 1.633-4.577.516z" fill="#fff"/></g><g><path d="m151.88 193.279c-1.405-1.122-1.634-3.17-.511-4.577l5.369-6.722c1.125-1.402 3.17-1.639 4.577-.511 1.405 1.122 1.634 3.17.511 4.577l-5.369 6.722c-1.122 1.401-3.172 1.636-4.577.511z" fill="#fff"/></g><path d="m370.857 159.289-.032.034c-6.331 6.591-16.596 6.591-22.927 0l-13.435-13.985c-5.259-5.474-13.786-5.473-19.043.004l-9.96 10.377c-8.235 8.58-21.593 8.583-29.832.006l-9.983-10.392c-5.257-5.473-13.781-5.473-19.039 0l-9.983 10.392c-8.239 8.576-21.597 8.573-29.832-.006l-9.957-10.373c-5.258-5.478-13.788-5.478-19.047 0l-13.406 13.967c-6.33 6.595-16.599 6.598-22.932.005-5.92-6.162-6.358-16.003-1.012-22.71l100.267-125.786c8.029-10.072 22.874-10.073 30.903-.002l100.262 125.757c5.347 6.707 4.908 16.549-1.012 22.712z" fill="#a1d51c"/><path d="m370.849 159.286-.026.026c-3.361 3.491-7.843 5.133-12.246 4.898 2.449-5.706 1.694-12.559-2.345-17.639l-100.26-125.742c-4.455-5.576-10.995-8.077-17.301-7.452l2.032-2.553c8.025-10.083 22.876-10.083 30.901 0l100.26 125.742c5.342 6.722 4.925 16.571-1.015 22.72z" opacity=".1"/></g><g><path d="m314.27 412.669c0-1.799-1.458-3.257-3.257-3.257s-3.257 1.458-3.257 3.257v9.173c0 1.799 1.458 3.257 3.257 3.257s3.257-1.458 3.257-3.257z"/><path d="m311.013 435.935c-1.799 0-3.257 1.458-3.257 3.257v49.95c0 1.799 1.458 3.257 3.257 3.257s3.257-1.458 3.257-3.257v-49.95c0-1.799-1.458-3.257-3.257-3.257z"/><path d="m443.622 333.728-45.004-56.464c8.643 1.304 16.718-1.733 22.506-7.75 9.567-9.984 10.267-25.684 1.628-36.515l-54.19-67.966c1.62-.925 3.129-2.09 4.479-3.495l.015-.015c7.063-7.376 7.575-18.969 1.188-26.976l-100.26-125.76c-4.45-5.58-11.01-8.778-17.999-8.778-6.99 0-13.549 3.201-17.997 8.781l-100.267 125.784c-6.392 8.02-5.873 19.628 1.211 26.999 1.342 1.398 2.851 2.559 4.476 3.48l-54.202 67.998c-8.379 10.535-8.111 26.343 1.659 36.515 5.666 5.895 13.752 9.039 22.536 7.678-39.23 52.147-51.741 57.417-51.741 75.787 0 8.066 3.015 15.648 8.491 21.355 11.413 11.882 29.97 11.881 41.385-.003l18.969-19.775c8.494-8.857 22.211-8.859 30.709.003l17.691 18.419c12.133 12.628 31.831 12.626 43.963 0l1.56-1.624v134.07h-58.492c-1.799 0-3.257 1.458-3.257 3.257s1.458 3.257 3.257 3.257h180.093c1.799 0 3.257-1.458 3.257-3.257s-1.458-3.257-3.257-3.257h-58.497v-133.986l1.481 1.542c12.133 12.628 31.831 12.626 43.963 0l17.694-18.422c7.919-8.258 21.557-9.516 30.706-.028l18.997 19.806c11.323 11.788 29.84 12.016 41.434-.053 10.644-11.082 11.422-28.537 1.815-40.607zm-300.807-195.093 100.266-125.785c3.206-4.02 7.908-6.328 12.903-6.328 4.997 0 9.699 2.305 12.905 6.325l100.261 125.759c4.295 5.384 3.939 13.475-.812 18.422l2.349 2.257-2.382-2.221c-2.443 2.542-5.679 3.941-9.114 3.941-3.435.003-6.674-1.399-9.117-3.941l-13.435-13.987c-3.16-3.29-7.376-5.104-11.867-5.104-4.493.003-8.71 1.817-11.872 5.112l-9.959 10.376c-3.364 3.504-7.827 5.432-12.57 5.435 0 0 0 0-.003 0-4.738 0-9.201-1.929-12.564-5.43l-9.982-10.392c-3.16-3.29-7.376-5.104-11.865-5.104-.003 0-.003 0-.003 0-4.491 0-8.707 1.812-11.87 5.104l-9.982 10.392c-3.364 3.501-7.827 5.43-12.564 5.43 0 0-.003 0-.005 0-4.74-.003-9.201-1.931-12.564-5.435l-9.954-10.371c-3.165-3.298-7.381-5.114-11.875-5.114s-8.71 1.817-11.872 5.114l-13.407 13.966c-2.443 2.544-5.682 3.944-9.117 3.946h-.003c-3.435 0-6.672-1.402-9.114-3.944-4.748-4.943-5.107-13.037-.812-18.423zm-47.253 126.418c-7.367-7.666-7.737-19.808-1.259-27.943l55.653-69.821c.917.135 1.845.228 2.787.228h.003c5.226-.003 10.132-2.114 13.814-5.951l13.409-13.966c3.847-4.01 10.496-4.01 14.348 0l9.954 10.371c4.603 4.796 10.732 7.437 17.262 7.44h.008c6.527 0 12.659-2.639 17.262-7.43l9.982-10.392c1.924-2.002 4.471-3.104 7.173-3.104s5.247 1.102 7.17 3.104l9.982 10.392c4.603 4.791 10.732 7.43 17.262 7.43h.005c6.532-.003 12.661-2.644 17.264-7.44l9.959-10.376c3.847-4.005 10.503-4.007 14.346-.003l13.435 13.987c3.684 3.832 8.59 5.944 13.816 5.941.959 0 1.901-.095 2.832-.235l55.632 69.774c6.613 8.292 6.081 20.307-1.288 27.994-7.7 8.01-20.115 8.04-27.844 0l-16.908-17.585c-9.939-10.355-26.105-10.363-36.047 0l-17.323 18.055c-7.449 7.755-19.459 7.761-26.935 0l-17.356-18.083c-9.937-10.332-26.096-10.333-36.037.003l-17.353 18.081c-7.453 7.758-19.48 7.764-26.933 0l-17.325-18.055c-9.939-10.354-26.101-10.365-36.045 0l-16.859 17.562c-7.715 8.044-20.14 8.044-27.846.022zm185.457 240.424h-50.077v-140.852l9.643-10.041c8.49-8.833 22.218-8.835 30.711 0l9.722 10.123v140.77zm156.041-135.603c-8.856 9.22-23.125 9.228-31.986.003l-19.002-19.808c-11.074-11.489-29.044-11.495-40.1.031l-17.692 18.419c-9.569 9.959-25.002 9.957-34.569 0l-17.717-18.447c-11.06-11.502-29.043-11.505-40.105 0l-17.717 18.447c-9.569 9.959-25.002 9.957-34.569 0l-17.689-18.417c-11.059-11.532-29.048-11.536-40.111 0l-18.966 19.773c-8.839 9.207-23.138 9.214-31.986.003-4.305-4.486-6.677-10.468-6.677-16.844 0-14.949 8.059-16.07 58.994-82.606 1.706-1.619 7.523-7.783 17.797-18.449 7.373-7.684 19.271-7.682 26.643 0l17.328 18.055c10.013 10.434 26.31 10.441 36.33 0l17.351-18.078c7.376-7.661 19.271-7.664 26.648-.003l17.356 18.086c10.021 10.41 26.297 10.444 36.33-.005l17.325-18.055c7.371-7.682 19.269-7.685 26.645.003 18.803 19.482 16.229 17.005 18.212 18.816l53.396 66.99c7.581 9.524 6.973 23.297-1.469 32.086z"/><path d="m157.827 86.352 5.603-7.035c1.122-1.407.888-3.455-.519-4.575-1.402-1.122-3.458-.888-4.575.519l-5.603 7.035c-1.122 1.407-.888 3.455.519 4.575 1.397 1.117 3.455.894 4.575-.519z"/><path d="m174.086 65.953 30.666-38.459c1.122-1.407.891-3.455-.517-4.577-1.407-1.12-3.455-.891-4.577.517l-30.666 38.459c-1.122 1.407-.891 3.455.517 4.577 1.409 1.122 3.457.887 4.577-.517z"/></g></g></g></svg>