<?xml version="1.0"?>
<svg xmlns="http://www.w3.org/2000/svg" viewBox="0 0 64 64"><g id="Pine"><path d="M10,63V61a4.99661,4.99661,0,0,1,9.04736-2.92871l.49073.67578.75244-.36133A3.91014,3.91014,0,0,1,22,58a4.00427,4.00427,0,0,1,4,4v1Z" style="fill:#43b5a8"/><path d="M37,63V62a4.00427,4.00427,0,0,1,4-4,3.908,3.908,0,0,1,1.709.38574l.75293.36231.49024-.67676A4.99693,4.99693,0,0,1,53,61v2Z" style="fill:#43b5a8"/><path d="M24,63a36.06975,36.06975,0,0,0,4.61816-15.03809L29,43h6l.38184,4.96191A36.07133,36.07133,0,0,0,40,63H24Z" style="fill:#b78577"/><path d="M32,48a17.20347,17.20347,0,0,1-10.481-3.58691l-.52-.40332-.57568.31836a15.36593,15.36593,0,0,1-7.41016,1.89941A15.175,15.175,0,0,1,7,45L18,30H46L57,45a15.175,15.175,0,0,1-6.01318,1.22754h-.00049a15.36123,15.36123,0,0,1-7.40967-1.89941l-.57568-.31836-.52.40332A17.20347,17.20347,0,0,1,32,48Z" style="fill:#34a39d"/><path d="M32,35a10.82609,10.82609,0,0,1-5.57227-1.544L24,32l-1.39355.39844A13.48031,13.48031,0,0,1,12,31L27,12H37L52,31a13.47639,13.47639,0,0,1-6.93018,1.91113h0a13.40467,13.40467,0,0,1-3.67627-.51269L40,32l-2.42773,1.456A10.82737,10.82737,0,0,1,32,35Z" style="fill:#43b5a8"/><path d="M32,21a3.72891,3.72891,0,0,1-3.10937-1.66406l-.88379-1.3252-.813.47168A7.40017,7.40017,0,0,1,19,18L32,1,45,18a7.37846,7.37846,0,0,1-4.458,1.49414H40.5415a7.44124,7.44124,0,0,1-3.73535-1.01172l-.813-.47168-.88378,1.3252A3.72894,3.72894,0,0,1,32,21Z" style="fill:#57ceb7"/><path d="M57.80615,44.39722,49.57129,33.17291a14.40891,14.40891,0,0,0,2.94238-1.3255,1.001,1.001,0,0,0,.271-1.47851l-8.5163-10.7782a8.48124,8.48124,0,0,0,1.33173-.80188.99965.99965,0,0,0,.19433-1.40723l-13-17a1.03677,1.03677,0,0,0-1.58886,0l-13,17a.99965.99965,0,0,0,.19433,1.40723,8.47377,8.47377,0,0,0,1.33185.80212l-8.51642,10.778a1.001,1.001,0,0,0,.271,1.47851,14.38493,14.38493,0,0,0,2.9422,1.32581l-8.23468,11.224A.99952.99952,0,0,0,6.606,45.908a16.37025,16.37025,0,0,0,14.29736-.7168,18.33726,18.33726,0,0,0,5.10791,2.78223c.51239.17828,1.03088.32983,1.55322.46149a34.64686,34.64686,0,0,1-1.38037,7.0014c-.28241.92187-.6214,1.8363-.98462,2.74292a4.92859,4.92859,0,0,0-5.34253-.70581A5.99655,5.99655,0,0,0,9,60.989v2a.99973.99973,0,0,0,1,1H53a.99973.99973,0,0,0,1-1v-2a5.99655,5.99655,0,0,0-10.85693-3.51562,4.90028,4.90028,0,0,0-4.557.16205,35.133,35.133,0,0,1-2.15-9.20221,18.20181,18.20181,0,0,0,6.66058-3.24207A16.36111,16.36111,0,0,0,57.394,45.908a.99952.99952,0,0,0,.41211-1.51074ZM32,2.6355,43.54492,17.73218a6.40368,6.40368,0,0,1-6.31787-.17285l-.7124-.42774a1.00018,1.00018,0,0,0-1.34668.30274l-.89063,1.33593a2.73708,2.73708,0,0,1-4.55468,0L28.832,17.43433a1,1,0,0,0-1.34668-.30274l-.7124.42774a6.40607,6.40607,0,0,1-6.31787.17285ZM21.72211,20.298a8.40494,8.40494,0,0,0,5.97418-.96136l.3623.543a4.737,4.737,0,0,0,7.88282,0l.3623-.543a8.40327,8.40327,0,0,0,5.97406.96124l8.19879,10.37567a12.52154,12.52154,0,0,1-8.80957.75489l-1.39013-.40039a.99767.99767,0,0,0-.792.10351l-2.43017,1.46a10.00286,10.00286,0,0,1-10.10938,0l-2.43017-1.46a.99767.99767,0,0,0-.792-.10351l-1.3872.39941a12.5022,12.5022,0,0,1-8.8125-.75391ZM11,60.989a4.00427,4.00427,0,0,1,4-4,3.96163,3.96163,0,0,1,3.61523,2.2959,1.00041,1.00041,0,0,0,1.52784.35645A2.95245,2.95245,0,0,1,22,58.989a3.00328,3.00328,0,0,1,3,3H11Zm31.85693-1.34765a1.00041,1.00041,0,0,0,1.52784-.35645A3.96163,3.96163,0,0,1,48,56.989a4.00427,4.00427,0,0,1,4,4v1H40.59912q-.67008-1.22167-1.24206-2.49566A3.04839,3.04839,0,0,1,42.85693,59.64136Zm-5.68219-.15772a.96176.96176,0,0,0,.086.20484c.33161.77783.67975,1.54821,1.06348,2.30053H27a4.96818,4.96818,0,0,0-.40375-1.963,37.01492,37.01492,0,0,0,1.49945-4.00183,36.6644,36.6644,0,0,0,1.43988-7.21838,16.61443,16.61443,0,0,0,4.92737-.00092A37.21335,37.21335,0,0,0,37.17474,59.48364Zm6.70612-16.146-.39014-.21973a.99915.99915,0,0,0-1.11816.09277l-.30713.24707a16.0952,16.0952,0,0,1-20.12793.00293l-.31006-.25a.999.999,0,0,0-1.11816-.09277l-.396.22266A14.36806,14.36806,0,0,1,8.58594,44.51831l7.949-10.835a14.48175,14.48175,0,0,0,6.35181-.33295l.97168-.28027L25.915,34.3064a11.84407,11.84407,0,0,0,12.16992,0l2.05664-1.23633.97461.28125a14.45851,14.45851,0,0,0,6.34882.332l7.949,10.835A14.373,14.373,0,0,1,43.88086,43.33765Z" style="fill:#38342b"/></g></svg>
