<svg id="Layer_1" enable-background="new 0 0 512 512" height="512" viewBox="0 0 512 512" width="512" xmlns="http://www.w3.org/2000/svg"><g id="XMLID_1_"><g id="XMLID_4065_"><path id="XMLID_195_" d="m278 193v-96s5.1-67.4-22-91.8v-.1c-27.1 24.5-21 91.9-21 91.9v96z" fill="#399349"/><path id="XMLID_1584_" d="m256 193c0-88.7-40.9-140.6-85.1-140.6 0 0 34.1 33.1 29.1 91.6v49z" fill="#2b6e38"/><path id="XMLID_1587_" d="m228.2 193c-41.5-104.6-115.2-78-115.2-78 48.2 19.9 60.3 78 60.3 78z" fill="#399349"/><path id="XMLID_1586_" d="m256 193c0-88.7 40.9-140.6 85.1-140.6 0 0-34.1 33.1-29.1 91.6v49z" fill="#2b6e38"/><path id="XMLID_1585_" d="m283.8 193c41.5-104.6 115.2-78 115.2-78-48.2 19.9-60.3 78-60.3 78z" fill="#399349"/><path id="XMLID_1589_" d="m167.6 192.9c-10.8 0-20.7 5.7-26 15.1-22.3 39.2-35.6 88.4-35.6 141.9s13.3 102.7 35.6 141.9c5.3 9.3 15.3 15.1 26 15.1h176.8c10.8 0 20.7-5.7 26-15.1 22.3-39.2 35.6-88.4 35.6-141.9s-13.3-102.7-35.6-141.9c-5.3-9.3-15.3-15.1-26-15.1z" fill="#ffc96f"/><g id="XMLID_1927_" fill="#ffb234"><path id="XMLID_1968_" d="m107 324.2 35.8-35.8-32.2 7.7c-1.6 9.2-2.8 18.6-3.6 28.1z"/><path id="XMLID_1969_" d="m401.4 296.1-32.2-7.7 35.8 35.8c-.8-9.5-2-18.9-3.6-28.1z"/><path id="XMLID_1971_" d="m256 288.4 56.5 56.5h.1.1l56.4-56.5-56.5 13.5z"/><path id="XMLID_1976_" d="m199.5 344.9 56.5-56.5-56.6 13.5-56.5-13.5 56.4 56.5h.1z"/><path id="XMLID_1979_" d="m312.7 231.9 38.2-38.2c-2.1-.5-4.3-.7-6.5-.7h-70.8l38.9 38.9h.1z"/><path id="XMLID_1981_" d="m199.5 231.9 38.9-38.9h-70.8c-2.2 0-4.4.3-6.5.7l38.2 38.2h.1z"/><path id="XMLID_1982_" d="m199.4 231.9h-.1l-56.5 13.4-17-4c-2.8 7.3-5.4 14.8-7.7 22.5l24.7 24.7z"/><path id="XMLID_1983_" d="m312.6 231.9 56.5 56.5 24.7-24.7c-2.3-7.7-4.8-15.2-7.7-22.5l-17 4z"/><path id="XMLID_1984_" d="m199.5 231.9 56.5 56.5 56.5-56.5h.1-.1l-56.5 13.4-56.5-13.4h-.1z"/><path id="XMLID_1985_" d="m116 428.3 26.9-26.9-31.3 7.4c1.2 6.7 2.7 13.2 4.4 19.5z"/><path id="XMLID_1986_" d="m400.5 408.9-31.3-7.4 26.9 26.9c1.6-6.4 3.1-12.9 4.4-19.5z"/><path id="XMLID_1988_" d="m256 401.4 56.5 56.5h.1.1l56.4-56.5-56.5 13.5z"/><path id="XMLID_1990_" d="m199.5 457.9 56.5-56.5-56.6 13.5-56.5-13.5 56.4 56.5h.1z"/><path id="XMLID_1991_" d="m199.4 344.9h-.1l-56.5 13.4-36.9-8.8v.5c0 5 .1 10 .3 14.9l36.5 36.5z"/><path id="XMLID_1992_" d="m312.6 344.9 56.5 56.5 36.5-36.5c.2-4.9.3-9.9.3-14.9 0-.2 0-.3 0-.5l-36.9 8.8z"/><path id="XMLID_1993_" d="m312.6 344.9h-.1l-56.5 13.4-56.5-13.4h-.1.1l56.5 56.5 56.5-56.5z"/><path id="XMLID_1994_" d="m199.3 457.9-56.5 13.4-13.1-3.1c3.6 8.3 7.6 16.2 11.9 23.7 2.9 5.1 7.1 9.1 12.1 11.7l45.6-45.7h.1z"/><path id="XMLID_1995_" d="m382.3 468.2-13.1 3.1-56.5-13.4h-.1l.1.1 45.6 45.6c5-2.6 9.2-6.6 12.1-11.7 4.3-7.5 8.3-15.5 11.9-23.7z"/><path id="XMLID_1996_" d="m312.5 457.9-56.5 13.4-56.5-13.4h-.1.1l49.1 49.1h14.8l49.1-49.1h.1z"/></g><g id="XMLID_1574_"><path id="XMLID_1805_" d="m251 333h10v26h-10z" fill="#ffdca4"/></g><g id="XMLID_1573_"><path id="XMLID_1804_" d="m138 333h10v26h-10z" fill="#ffdca4"/></g><g id="XMLID_1572_"><path id="XMLID_1803_" d="m364 333h10v26h-10z" fill="#ffdca4"/></g><g id="XMLID_1571_"><path id="XMLID_1802_" d="m251 219h10v26h-10z" fill="#ffdca4"/></g><g id="XMLID_1570_"><path id="XMLID_1801_" d="m138 219h10v26h-10z" fill="#ffdca4"/></g><g id="XMLID_1569_"><path id="XMLID_1800_" d="m364 219h10v26h-10z" fill="#ffdca4"/></g><g id="XMLID_1568_"><path id="XMLID_1582_" d="m251 445h10v26h-10z" fill="#ffdca4"/></g><g id="XMLID_1567_"><path id="XMLID_1581_" d="m138 445h10v26h-10z" fill="#ffdca4"/></g><g id="XMLID_1566_"><path id="XMLID_1580_" d="m364 445h10v26h-10z" fill="#ffdca4"/></g><g id="XMLID_1565_"><path id="XMLID_1579_" d="m194 276h10v26h-10z" fill="#ffdca4"/></g><g id="XMLID_1564_"><path id="XMLID_1578_" d="m194 389h10v26h-10z" fill="#ffdca4"/></g><g id="XMLID_1563_"><path id="XMLID_1577_" d="m308 276h10v26h-10z" fill="#ffdca4"/></g><g id="XMLID_1562_"><path id="XMLID_1576_" d="m308 389h10v26h-10z" fill="#ffdca4"/></g><path id="XMLID_1822_" d="m405.9 357.7-36.8 36.8-49.5-49.5 49.5-49.5 36.3 36.3c-.3-5.2-.7-10.3-1.3-15.4l-28-28 19.2-19.2c-1-3.7-2.1-7.3-3.2-10.9l-23 23-49.5-49.5 36.5-36.5c-3.7-1.5-7.6-2.4-11.7-2.4l-31.8 31.8-31.8-31.7h-14.1l38.9 38.9-49.6 49.5-49.5-49.5 38.9-38.9h-14.1l-31.8 31.8-31.9-31.8c-4.1 0-8.1.8-11.7 2.4l36.5 36.5-49.5 49.5-23-23c-1.1 3.6-2.2 7.2-3.2 10.9l19.2 19.2-28 28c-.5 5.1-1 10.2-1.3 15.4l36.3-36.3 49.5 49.5-49.5 49.5-36.8-36.8c.1 5 .4 9.9.7 14.8l29 29-21.2 21.2c.9 3.8 1.9 7.5 3 11.2l25.3-25.3 49.5 49.5-42.9 42.8c2.8 2.1 6 3.7 9.4 4.8l40.5-40.5 41.8 41.8h14.1l-48.9-48.9 49.5-49.5 49.5 49.5-48.8 48.8h14.1l41.8-41.8 40.5 40.5c3.4-1 6.6-2.6 9.4-4.8l-42.8-42.8 49.5-49.5 25.3 25.3c1.1-3.7 2-7.4 3-11.2l-21.2-21.2 29-29c.3-4.8.6-9.8.7-14.8zm-93.3-118.8 49.5 49.5-49.5 49.5-49.5-49.5zm-7.1 106.1-49.5 49.5-49.5-49.5 49.5-49.5zm-155.6-56.6 49.5-49.5 49.5 49.5-49.5 49.5zm49.5 162.7-49.5-49.5 49.5-49.5 49.5 49.5zm113.2 0-49.5-49.5 49.5-49.5 49.5 49.5z" fill="#ffb234"/></g><g id="XMLID_3526_"><g id="XMLID_1854_"><path id="XMLID_3240_" d="m344.4 511.9h-28.4v-10h28.4c9 0 17.3-4.8 21.7-12.6 22.8-40.1 34.9-88.3 34.9-139.4s-12.1-99.3-34.9-139.4c-4.4-7.7-12.7-12.6-21.7-12.6h-176.8c-9 0-17.3 4.8-21.7 12.6-22.9 40.2-34.9 88.4-34.9 139.4s12.1 99.3 34.9 139.4c4.4 7.7 12.7 12.6 21.7 12.6h128.4v10h-128.4c-12.6 0-24.2-6.7-30.4-17.6-23.7-41.7-36.2-91.6-36.2-144.4s12.5-102.7 36.2-144.4c6.2-10.9 17.8-17.6 30.4-17.6h176.8c12.6 0 24.2 6.7 30.4 17.6 23.7 41.7 36.2 91.6 36.2 144.4s-12.5 102.7-36.2 144.4c-6.2 10.9-17.9 17.6-30.4 17.6z" fill="#4d2419"/></g><g id="XMLID_1850_"><g id="XMLID_1912_"><path id="XMLID_3238_" d="m167.7 165.8h10v185.6h-10z" fill="#4d2419" transform="matrix(.707 .707 -.707 .707 233.449 -46.346)"/></g><g id="XMLID_1911_"><path id="XMLID_3237_" d="m227.8 146.4h10v330.5h-10z" fill="#4d2419" transform="matrix(.707 .707 -.707 .707 288.53 -73.37)"/></g><g id="XMLID_1910_"><path id="XMLID_3235_" d="m268.1 213.7h10v341.5h-10z" fill="#4d2419" transform="matrix(.707 .707 -.707 .707 351.847 -80.509)"/></g><g id="XMLID_1909_"><path id="XMLID_3233_" d="m329.9 335.2h10v201.2h-10z" fill="#4d2419" transform="matrix(.707 .707 -.707 .707 406.308 -109.114)"/></g><g id="XMLID_2242_"><path id="XMLID_3232_" d="m246.5 253.6h185.6v10h-185.6z" fill="#4d2419" transform="matrix(.707 .707 -.707 .707 282.264 -164.194)"/></g><g id="XMLID_1905_"><path id="XMLID_3231_" d="m113.9 306.6h330.5v10h-330.5z" fill="#4d2419" transform="matrix(.707 .707 -.707 .707 302.102 -106.137)"/></g><g id="XMLID_1876_"><path id="XMLID_3230_" d="m68.2 379.5h341.5v10h-341.5z" fill="#4d2419" transform="matrix(.707 .707 -.707 .707 341.825 -56.318)"/></g><g id="XMLID_1855_"><path id="XMLID_3229_" d="m76.5 430.9h201.2v10h-201.2z" fill="#4d2419" transform="matrix(.707 .707 -.707 .707 360.08 2.396)"/></g></g><g id="XMLID_197_"><path id="XMLID_3228_" d="m251 333h10v26h-10z" fill="#4d2419"/></g><g id="XMLID_228_"><path id="XMLID_3224_" d="m138 333h10v26h-10z" fill="#4d2419"/></g><g id="XMLID_232_"><path id="XMLID_3221_" d="m364 333h10v26h-10z" fill="#4d2419"/></g><g id="XMLID_235_"><path id="XMLID_3220_" d="m251 219h10v26h-10z" fill="#4d2419"/></g><g id="XMLID_234_"><path id="XMLID_3219_" d="m138 219h10v26h-10z" fill="#4d2419"/></g><g id="XMLID_233_"><path id="XMLID_3218_" d="m364 219h10v26h-10z" fill="#4d2419"/></g><g id="XMLID_239_"><path id="XMLID_3217_" d="m251 445h10v26h-10z" fill="#4d2419"/></g><g id="XMLID_237_"><path id="XMLID_3216_" d="m138 445h10v26h-10z" fill="#4d2419"/></g><g id="XMLID_236_"><path id="XMLID_3215_" d="m364 445h10v26h-10z" fill="#4d2419"/></g><g id="XMLID_23_"><path id="XMLID_3214_" d="m194 276h10v26h-10z" fill="#4d2419"/></g><g id="XMLID_240_"><path id="XMLID_3213_" d="m194 389h10v26h-10z" fill="#4d2419"/></g><g id="XMLID_203_"><path id="XMLID_3212_" d="m308 276h10v26h-10z" fill="#4d2419"/></g><g id="XMLID_199_"><path id="XMLID_3211_" d="m308 389h10v26h-10z" fill="#4d2419"/></g><g id="XMLID_29_"><path id="XMLID_2626_" d="m230 97.5c-.3-2.9-6-70.2 22.6-96.1 1.5-1.3 3.6-1.7 5.4-.9.7.3 1.3.8 1.8 1.3 28.1 26.2 23.4 92.7 23.2 95.6l-10-.8c0-.6 4.2-59.3-17-84.3-21 25-16.1 83.6-16 84.2z" fill="#4d2419"/></g><g id="XMLID_30_"><path id="XMLID_2623_" d="m261 193h-10c0-40.8-8.7-75.6-25.2-100.8-11.9-18.1-26.9-29.7-43.2-33.4 10.3 14.3 26 43.6 22.4 85.7l-10-.9c4.7-55.2-27.3-87.2-27.7-87.6-1.5-1.4-1.9-3.6-1.1-5.5s2.6-3.1 4.6-3.1c24.2 0 46.7 14 63.3 39.3 17.6 26.8 26.9 63.6 26.9 106.3z" fill="#4d2419"/></g><g id="XMLID_2088_"><path id="XMLID_2622_" d="m168.4 194c-.1-.6-12.2-55.8-57.3-74.4-1.9-.8-3.1-2.7-3.1-4.7 0-2.1 1.4-3.9 3.3-4.6.7-.3 17.5-6.2 39.9-1.6 20.4 4.2 49.6 18.4 72.4 62l-8.9 4.6c-16.7-32-38.6-51.1-65-56.7-8.2-1.7-15.6-1.9-21.5-1.4 39.1 24.4 49.5 72.5 50 74.8z" fill="#4d2419"/></g><g id="XMLID_22_"><path id="XMLID_2621_" d="m261 193h-10c0-42.7 9.3-79.5 26.8-106.3 16.6-25.3 39.1-39.3 63.3-39.3 2 0 3.9 1.2 4.6 3.1.8 1.9.3 4.1-1.2 5.5-.3.3-32.4 32.3-27.6 87.5l-10 .9c-3.6-42.1 12.1-71.4 22.4-85.7-16.3 3.8-31.4 15.3-43.2 33.4-16.4 25.3-25.1 60.1-25.1 100.9z" fill="#4d2419"/></g><g id="XMLID_5_"><path id="XMLID_2615_" d="m338.8 198h-54.9c-1.7 0-3.2-.8-4.1-2.2s-1.1-3.1-.5-4.7c22.2-56 53.9-75 76.5-81.2 24.9-6.8 44.2.1 45 .4 1.9.7 3.3 2.5 3.3 4.6s-1.2 3.9-3.1 4.7c-45.1 18.6-57.2 73.8-57.3 74.4-.5 2.3-2.6 4-4.9 4zm-47.5-10h43.5c3.3-12.4 15.9-50.1 49-70.8-6.9-.5-16-.3-26 2.5-27.4 7.7-50.3 31.3-66.5 68.3z" fill="#4d2419"/></g></g></g></svg>