<svg id="Layer_1" viewBox="0 0 1000 1000" xmlns="http://www.w3.org/2000/svg" data-name="Layer 1"><path d="m709.94 618.42a7.52 7.52 0 0 1 -2.2 5.31 7.24 7.24 0 0 1 -1.88 1.37 7.49 7.49 0 0 1 -8.73-1.37l-5.56-5.56-90.49-90.48-10.6-10.61-90.48-90.47-10.61-10.61-68.65-68.65a7.5 7.5 0 0 1 0-10.61 7.62 7.62 0 0 1 1.62-1.23 7.5 7.5 0 0 1 9 1.23l6.52 6.52 3.15 3.15 59 59 10.59 10.59 90.47 90.47 10.6 10.61 83.25 83.24 12.8 12.8a7.43 7.43 0 0 1 2.18 4.93 0 0 0 0 1 0 0s0 0 0 0a0 0 0 0 1 0 0s0 0 0 0a1.27 1.27 0 0 1 .02.37z"/><path d="m500 607.56 10.61 10.61-5.3 5.31-5.31 5.31-10.6-10.62-90.49-90.48-5.3-5.31-5.3-5.3-70.89-70.88-7.68-7.68a7.49 7.49 0 0 1 -1.54-8.38 2.14 2.14 0 0 1 .1-.22 1.74 1.74 0 0 1 .1-.19 7.72 7.72 0 0 1 1.34-1.81 7.49 7.49 0 0 1 10.6 0l3.86 3.85 74.71 74.7 5.31 5.31 5.3 5.3z"/><path d="m690.26 808.43a7.48 7.48 0 0 1 -10.6 0l-3.86-3.85-74.71-74.71-5.31-5.3-5.3-5.3 5.3-5.31 5.31-5.31 5.3 5.31 5.31 5.3 70.89 70.89 7.67 7.67a7.5 7.5 0 0 1 0 10.61z"/><path d="m579.26 899.61a7.52 7.52 0 0 1 -10.61 0l-9.65-9.67-59-59-10.61-10.61-90.48-90.48-10.61-10.59-83.24-83.26-12.79-12.79a7.43 7.43 0 0 1 -2.19-5.08v-.09a7.42 7.42 0 0 1 2.17-5.43 7.24 7.24 0 0 1 1.88-1.37 7.52 7.52 0 0 1 8.73 1.35l96.06 96.06 10.61 10.61 90.47 90.48 79.26 79.26a7.5 7.5 0 0 1 0 10.61z"/><path d="m709.92 618.05a0 0 0 0 1 0 0s0 0 0 0a0 0 0 0 1 0 0s0 0 0 0a7.43 7.43 0 0 1 -2.19 5.08l-12.79 12.87-83.24 83.26-10.61 10.61-90.48 90.48-5.3 5.31-5.31 5.34-59 59-9.67 9.67a7.5 7.5 0 1 1 -10.59-10.67l68.65-68.65 5.31-5.3 5.3-5.31 90.48-90.47 5.3-5.31 101.36-101.36a7.52 7.52 0 0 1 8.73-1.35 7.24 7.24 0 0 1 1.88 1.37 7.42 7.42 0 0 1 2.17 5.43z"/><path d="m690.26 438.52-7.68 7.68-70.89 70.88-5.3 5.3-5.31 5.31-90.47 90.48-5.3 5.31-5.31 5.31-90.47 90.48-5.31 5.3-5.31 5.3-74.71 74.7-3.86 3.85a7.5 7.5 0 1 1 -10.6-10.61l7.67-7.67 70.89-70.89 5.31-5.3 5.31-5.3 90.48-90.49 5.3-5.3 5.3-5.31 90.48-90.48 5.3-5.3 5.31-5.31 74.71-74.69 3.86-3.85a7.49 7.49 0 0 1 10.6 0 7.72 7.72 0 0 1 1.34 1.81 1.74 1.74 0 0 1 .1.19 2.14 2.14 0 0 1 .1.22 7.49 7.49 0 0 1 -1.54 8.38z"/><path d="m579.27 347.35-79.27 79.26-90.49 90.47-106.64 106.65a7.49 7.49 0 0 1 -8.73 1.37 7.24 7.24 0 0 1 -1.88-1.37 7.52 7.52 0 0 1 -2.2-5.31 1.27 1.27 0 0 1 0-.27v-.09a7.43 7.43 0 0 1 2.18-4.93l12.8-12.8 83.25-83.24 10.6-10.61 90.5-90.48 10.61-10.61 59-59 3.14-3.13 6.53-6.53a7.52 7.52 0 0 1 7.2-2 7.81 7.81 0 0 1 3.39 2 7.5 7.5 0 0 1 .01 10.62z"/><path d="m567.08 348a7.41 7.41 0 0 1 -.79-.28l-.16-.07a6.28 6.28 0 0 1 -.81-.43l-.16-.1-.16-.12a2.26 2.26 0 0 1 -.31-.23l-.16-.12a7.13 7.13 0 0 1 -.93-.89c-.13-.15-.25-.3-.37-.46a7.27 7.27 0 0 1 -.92-1.63 4.09 4.09 0 0 1 -.16-.42 0 0 0 0 1 0 0l-3.15 3.16c2.75.48 5.47 1 8.18 1.66zm0 0a7.41 7.41 0 0 1 -.79-.28l-.16-.07a6.28 6.28 0 0 1 -.81-.43l-.16-.1-.16-.12a2.26 2.26 0 0 1 -.31-.23l-.16-.12a7.13 7.13 0 0 1 -.93-.89c-.13-.15-.25-.3-.37-.46a7.27 7.27 0 0 1 -.92-1.63 4.09 4.09 0 0 1 -.16-.42 0 0 0 0 1 0 0l-3.15 3.16c2.75.48 5.47 1 8.18 1.66zm0 0a7.41 7.41 0 0 1 -.79-.28l-.16-.07a6.28 6.28 0 0 1 -.81-.43l-.16-.1-.16-.12a2.26 2.26 0 0 1 -.31-.23l-.16-.12a7.13 7.13 0 0 1 -.93-.89c-.13-.15-.25-.3-.37-.46a7.27 7.27 0 0 1 -.92-1.63 4.09 4.09 0 0 1 -.16-.42 0 0 0 0 1 0 0l-3.15 3.16c2.75.48 5.47 1 8.18 1.66zm0 0a7.41 7.41 0 0 1 -.79-.28l-.16-.08a6.28 6.28 0 0 1 -.81-.43l-.16-.1-.16-.11a2.26 2.26 0 0 1 -.31-.23l-.16-.12a7.13 7.13 0 0 1 -.93-.89c-.13-.15-.25-.3-.37-.46a7.27 7.27 0 0 1 -.92-1.63 4.09 4.09 0 0 1 -.16-.42 0 0 0 0 1 0 0l-3.15 3.16c2.75.48 5.47 1 8.18 1.66zm0 0a7.41 7.41 0 0 1 -.79-.28l-.16-.08a6.28 6.28 0 0 1 -.81-.43l-.16-.1-.16-.11a2.26 2.26 0 0 1 -.31-.23l-.16-.12a7.13 7.13 0 0 1 -.93-.89c-.13-.15-.25-.3-.37-.46a7.27 7.27 0 0 1 -.92-1.63 4.09 4.09 0 0 1 -.16-.42 0 0 0 0 1 0 0l-3.15 3.16c2.75.48 5.47 1 8.18 1.66zm0 0a7.41 7.41 0 0 1 -.79-.28l-.16-.08a6.28 6.28 0 0 1 -.81-.43l-.16-.1-.16-.11a2.26 2.26 0 0 1 -.31-.23l-.16-.12a7.13 7.13 0 0 1 -.93-.89c-.13-.15-.25-.3-.37-.46a7.27 7.27 0 0 1 -.92-1.63 4.09 4.09 0 0 1 -.16-.42 0 0 0 0 1 0 0l-3.15 3.16c2.75.48 5.47 1 8.18 1.66zm0 0a7.41 7.41 0 0 1 -.79-.28l-.16-.08a6.28 6.28 0 0 1 -.81-.43l-.16-.1-.16-.11a2.26 2.26 0 0 1 -.31-.23l-.16-.12a7.13 7.13 0 0 1 -.93-.89c-.13-.15-.25-.3-.37-.46a7.27 7.27 0 0 1 -.92-1.63 4.09 4.09 0 0 1 -.16-.42 0 0 0 0 1 0 0l-3.15 3.16c2.75.48 5.47 1 8.18 1.66zm0 0a7.41 7.41 0 0 1 -.79-.28l-.16-.08a5.25 5.25 0 0 1 -.81-.43l-.16-.1-.16-.11a2.26 2.26 0 0 1 -.31-.23 1 1 0 0 1 -.16-.12 7.13 7.13 0 0 1 -.93-.89c-.13-.15-.25-.3-.37-.46a7.27 7.27 0 0 1 -.92-1.63 3.61 3.61 0 0 1 -.16-.42 0 0 0 0 1 0 0l-3.15 3.16c2.75.48 5.47 1 8.18 1.66h.17zm142.75 154.72a178.37 178.37 0 0 0 -18-72.58 2.14 2.14 0 0 0 -.1-.22 1.74 1.74 0 0 0 -.1-.19 181.27 181.27 0 0 0 -82.72-82.64 178.44 178.44 0 0 0 -31.19-11.82l-1.81-.49c-4.23-1.13-8.5-2.08-12.81-2.88a180.19 180.19 0 0 0 -27-2.94c-2-.08-4.05-.11-6.27-.11h-59.65c-2.22 0-4.27 0-6.25.11a180.45 180.45 0 0 0 -27 2.94q-7.4 1.37-14.63 3.37a178.34 178.34 0 0 0 -31.18 11.82 181.25 181.25 0 0 0 -82.73 82.64 1.74 1.74 0 0 0 -.1.19 2.14 2.14 0 0 0 -.1.22 178.35 178.35 0 0 0 -18 72.56c-.07 2-.11 4.06-.11 6.28v218.39c0 2.22 0 4.28.11 6.25a178.49 178.49 0 0 0 18.13 72.81 181.26 181.26 0 0 0 82.82 82.82 178.25 178.25 0 0 0 72.79 18.14c2 .07 4.08.11 6.27.11h59.64c2.19 0 4.24 0 6.25-.11a178.06 178.06 0 0 0 72.8-18.14 181.28 181.28 0 0 0 82.83-82.82 178.47 178.47 0 0 0 18.13-72.78c.07-2 .11-4.06.11-6.28v-218.37c-.02-2.24-.06-4.3-.13-6.28zm-14.89 224.65c0 2 0 3.91-.11 5.75a163.57 163.57 0 0 1 -12.24 57q-2 4.89-4.36 9.69c-.78 1.59-1.59 3.18-2.43 4.74a166.18 166.18 0 0 1 -73.52 71.2 164 164 0 0 1 -26.1 10.14 160.15 160.15 0 0 1 -17.2 4 165.52 165.52 0 0 1 -23.44 2.46c-1.84.07-3.71.1-5.72.1h-59.64c-2 0-3.88 0-5.74-.1a165.55 165.55 0 0 1 -23.44-2.41 162.58 162.58 0 0 1 -17.2-4 164.38 164.38 0 0 1 -26.1-10.14 166.18 166.18 0 0 1 -73.52-71.2q-1.26-2.34-2.43-4.73-2.34-4.8-4.36-9.69a163.59 163.59 0 0 1 -12.24-57.06c-.07-1.81-.11-3.69-.11-5.72v-218.4c0-2 0-3.91.11-5.75a163.36 163.36 0 0 1 12.25-57q2-4.89 4.35-9.69c.78-1.59 1.59-3.18 2.43-4.74a166.18 166.18 0 0 1 73.52-71.2 164.38 164.38 0 0 1 26.1-10.14q4.24-1.23 8.54-2.24h.07q4.27-1 8.59-1.76a164.22 164.22 0 0 1 23.46-2.48c1.82-.07 3.69-.1 5.72-.1h59.64c2 0 3.9 0 5.74.1a164.23 164.23 0 0 1 23.44 2.41c2.75.48 5.47 1 8.18 1.66h.17l.42.1q4.25 1 8.43 2.22a164.27 164.27 0 0 1 26.09 10.14 166.18 166.18 0 0 1 73.52 71.2q1.26 2.34 2.43 4.73 2.34 4.8 4.35 9.69a163.37 163.37 0 0 1 12.25 57.05c.07 1.82.11 3.69.11 5.73zm-127.86-379.37a7.41 7.41 0 0 1 -.79-.28l-.16-.08a6.28 6.28 0 0 1 -.81-.43l-.16-.1-.16-.11a2.26 2.26 0 0 1 -.31-.23l-.16-.12a7.13 7.13 0 0 1 -.93-.89c-.13-.15-.25-.3-.37-.46a7.27 7.27 0 0 1 -.92-1.63 4.09 4.09 0 0 1 -.16-.42 0 0 0 0 1 0 0l-3.15 3.16c2.75.48 5.47 1 8.18 1.66zm0 0a7.41 7.41 0 0 1 -.79-.28l-.16-.08a6.28 6.28 0 0 1 -.81-.43l-.16-.1-.16-.11a2.26 2.26 0 0 1 -.31-.23l-.16-.12a7.13 7.13 0 0 1 -.93-.89c-.13-.15-.25-.3-.37-.46a7.27 7.27 0 0 1 -.92-1.63 4.09 4.09 0 0 1 -.16-.42 0 0 0 0 1 0 0l-3.15 3.16c2.75.48 5.47 1 8.18 1.66zm0 0a7.41 7.41 0 0 1 -.79-.28l-.16-.08a6.28 6.28 0 0 1 -.81-.43l-.16-.1-.16-.11a2.26 2.26 0 0 1 -.31-.23l-.16-.12a7.13 7.13 0 0 1 -.93-.89c-.13-.15-.25-.3-.37-.46a7.27 7.27 0 0 1 -.92-1.63 4.09 4.09 0 0 1 -.16-.42 0 0 0 0 1 0 0l-3.15 3.16c2.75.48 5.47 1 8.18 1.66zm0 0a7.41 7.41 0 0 1 -.79-.28l-.16-.08a6.28 6.28 0 0 1 -.81-.43l-.16-.1-.16-.11a2.26 2.26 0 0 1 -.31-.23l-.16-.12a7.13 7.13 0 0 1 -.93-.89c-.13-.15-.25-.3-.37-.46a7.27 7.27 0 0 1 -.92-1.63 4.09 4.09 0 0 1 -.16-.42 0 0 0 0 1 0 0l-3.15 3.16c2.75.48 5.47 1 8.18 1.66zm0 0a7.41 7.41 0 0 1 -.79-.28l-.16-.08a6.28 6.28 0 0 1 -.81-.43l-.16-.1-.16-.11a2.26 2.26 0 0 1 -.31-.23l-.16-.12a7.13 7.13 0 0 1 -.93-.89c-.13-.15-.25-.3-.37-.46a7.27 7.27 0 0 1 -.92-1.63 4.09 4.09 0 0 1 -.16-.42 0 0 0 0 1 0 0l-3.15 3.16c2.75.48 5.47 1 8.18 1.66zm0 0a7.41 7.41 0 0 1 -.79-.28l-.16-.07a6.28 6.28 0 0 1 -.81-.43l-.16-.1-.16-.12a2.26 2.26 0 0 1 -.31-.23l-.16-.12a7.13 7.13 0 0 1 -.93-.89c-.13-.15-.25-.3-.37-.46a7.27 7.27 0 0 1 -.92-1.63 4.09 4.09 0 0 1 -.16-.42 0 0 0 0 1 0 0l-3.15 3.16c2.75.48 5.47 1 8.18 1.66zm0 0a7.41 7.41 0 0 1 -.79-.28l-.16-.07a6.28 6.28 0 0 1 -.81-.43l-.16-.1-.16-.12a2.26 2.26 0 0 1 -.31-.23l-.16-.12a7.13 7.13 0 0 1 -.93-.89c-.13-.15-.25-.3-.37-.46a7.27 7.27 0 0 1 -.92-1.63 4.09 4.09 0 0 1 -.16-.42 0 0 0 0 1 0 0l-3.15 3.16c2.75.48 5.47 1 8.18 1.66zm0 0a7.41 7.41 0 0 1 -.79-.28l-.16-.07a6.28 6.28 0 0 1 -.81-.43l-.16-.1-.16-.12a2.26 2.26 0 0 1 -.31-.23l-.16-.12a7.13 7.13 0 0 1 -.93-.89c-.13-.15-.25-.3-.37-.46a7.27 7.27 0 0 1 -.92-1.63 4.09 4.09 0 0 1 -.16-.42 0 0 0 0 1 0 0l-3.15 3.16c2.75.48 5.47 1 8.18 1.66z"/><g fill="#ffcc80"><path d="m694.94 636v91.35c0 2 0 3.91-.11 5.75a163.57 163.57 0 0 1 -12.24 57l-70.89-70.84z"/><path d="m388.3 719.26-70.89 70.89a163.59 163.59 0 0 1 -12.24-57.06c-.07-1.81-.11-3.69-.11-5.72v-91.37z"/><path d="m489.39 820.35-65.57 65.57a164.38 164.38 0 0 1 -26.1-10.14 166.18 166.18 0 0 1 -73.52-71.2l74.71-74.7z"/><path d="m559 889.94a165.52 165.52 0 0 1 -23.44 2.46c-1.84.07-3.71.1-5.72.1h-59.66c-2 0-3.88 0-5.74-.1a165.55 165.55 0 0 1 -23.44-2.46l59-59z"/><path d="m675.8 804.58a166.18 166.18 0 0 1 -73.52 71.2 164 164 0 0 1 -26.1 10.14l-65.57-65.57 90.48-90.48z"/><path d="m590.48 719.27-90.48 90.47-90.47-90.47 90.47-90.48z"/><path d="m537.11 554.19h127.95v127.96h-127.95z" transform="matrix(.707 -.707 .707 .707 -261.06 606.09)"/></g><path d="m601.09 708.65-5.31 5.31-5.3 5.31-90.48-90.48 5.31-5.31 5.3-5.31z"/><path d="m694.94 509v91.34l-83.25-83.24 70.89-70.88a163.37 163.37 0 0 1 12.25 57.05c.07 1.8.11 3.67.11 5.73z" fill="#ffcc80"/><path d="m590.48 517.08-90.48 90.48-90.48-90.48 90.49-90.47z" fill="#ffcc80"/><path d="m334.93 554.19h127.96v127.97h-127.96z" fill="#ffcc80" transform="matrix(.707 -.707 .707 .707 -320.28 463.17)"/><path d="m388.31 517.08-83.25 83.24v-91.32c0-2 0-3.91.11-5.75a163.36 163.36 0 0 1 12.25-57z" fill="#ffcc80"/><path d="m675.8 431.77-74.71 74.69-90.47-90.46 65.57-65.57a164.27 164.27 0 0 1 26.09 10.14 166.18 166.18 0 0 1 73.52 71.2z" fill="#ffcc80"/><path d="m559 346.41-59 59-59-59a164.22 164.22 0 0 1 23.46-2.41c1.82-.07 3.69-.1 5.72-.1h59.64c2 0 3.9 0 5.74.1a164.23 164.23 0 0 1 23.44 2.41z" fill="#ffcc80"/><path d="m489.39 416-90.48 90.47-74.71-74.7a166.18 166.18 0 0 1 73.52-71.2 164.38 164.38 0 0 1 26.1-10.14z" fill="#ffcc80"/><path d="m604.87 264.22c-27.72 20-38 47.92-41.82 67.68a180.19 180.19 0 0 0 -27-2.94c-2-.08-4.05-.11-6.27-.11h-59.6c-2.22 0-4.27 0-6.25.11a180.45 180.45 0 0 0 -27 2.94c-3.78-19.78-14.12-47.74-41.88-67.73a119.78 119.78 0 0 1 79.39 19.62 7.5 7.5 0 0 0 11.56-7.58c-.07-.4-6.37-37.66 14-68.19 20.39 30.53 14.09 67.79 14 68.18a7.5 7.5 0 0 0 11.52 7.59 120.15 120.15 0 0 1 79.35-19.57z" fill="#81c784"/><path d="m633.08 260.29a7.5 7.5 0 0 1 -4.27 7.17c-35.61 16.91-47.33 47.5-51.12 67.81 0 .08 0 .16-.05.24-.41 2.23-.73 4.33-1 6.27a7.5 7.5 0 0 1 -7.43 6.58 7.26 7.26 0 0 1 -.93-.06 4.85 4.85 0 0 1 -.55-.09l-.42-.1h-.17-.09a7.41 7.41 0 0 1 -.79-.28l-.16-.08a6.28 6.28 0 0 1 -.81-.43l-.16-.1-.13-.22a2.26 2.26 0 0 1 -.31-.23l-.16-.12a7.13 7.13 0 0 1 -.93-.89 5.32 5.32 0 0 1 -.37-.46 7.27 7.27 0 0 1 -.92-1.63 4.09 4.09 0 0 1 -.16-.42 0 0 0 0 1 0 0 7.55 7.55 0 0 1 -.34-3.33c.31-2.47.72-5.17 1.26-8 3.79-19.76 14.1-47.69 41.82-67.68a120.15 120.15 0 0 0 -79.32 19.57 7.5 7.5 0 0 1 -11.57-7.61c.07-.39 6.37-37.65-14-68.18-20.41 30.53-14.11 67.79-14 68.19a7.5 7.5 0 0 1 -11.52 7.58 119.78 119.78 0 0 0 -79.39-19.62c27.76 20 38.1 47.95 41.88 67.73.55 2.87 1 5.57 1.27 8a7.5 7.5 0 0 1 -5.78 8.23h-.07l-.67.11a7.5 7.5 0 0 1 -8.36-6.52c-.24-1.94-.56-4-1-6.27 0-.08 0-.16-.05-.24-3.79-20.31-15.51-50.9-51.12-67.81a7.5 7.5 0 0 1 .72-13.85c1.39-.49 22.34-7.64 51.21-4.32a128.68 128.68 0 0 1 15.37 2.77 133.7 133.7 0 0 1 31.45 11.75c-.3-17.83 2.94-48.09 24.39-73a7.48 7.48 0 0 1 5.68-2.61 7.57 7.57 0 0 1 5.68 2.61c21.43 24.88 24.67 55.14 24.37 73a133.7 133.7 0 0 1 31.45-11.75 128.68 128.68 0 0 1 15.37-2.68c28.87-3.32 49.82 3.83 51.21 4.32a7.48 7.48 0 0 1 4.99 6.65z"/><path d="m605.08 168.59c-33.08 24.48-41.53 62.41-43.57 83.41a133.7 133.7 0 0 0 -31.45 11.75c.3-17.83-2.94-48.09-24.37-73a7.57 7.57 0 0 0 -5.68-2.61 7.48 7.48 0 0 0 -5.68 2.61c-21.45 24.88-24.69 55.14-24.39 73a133.7 133.7 0 0 0 -31.45-11.75c-2-21-10.46-58.9-43.57-83.37a120.13 120.13 0 0 1 79.53 19.55 7.5 7.5 0 0 0 11.55-7.61c-.07-.4-6.37-37.67 14-68.2 20.39 30.53 14.09 67.8 14 68.19a7.5 7.5 0 0 0 11.52 7.59 120.16 120.16 0 0 1 79.56-19.56z" fill="#81c784"/><path d="m633.08 164.65a7.51 7.51 0 0 1 -4.27 7.17c-37.75 17.92-48.92 53.15-51.93 77.47-.42 3.33-.68 6.46-.83 9.31a7.51 7.51 0 0 1 -7.48 7.1h-.42a7.51 7.51 0 0 1 -7.08-7.9c.09-1.75.23-3.7.44-5.82 2-21 10.45-58.9 43.57-83.38a120.16 120.16 0 0 0 -79.53 19.56 7.5 7.5 0 0 1 -11.55-7.6c.07-.39 6.37-37.66-14-68.19-20.41 30.53-14.11 67.8-14 68.2a7.5 7.5 0 0 1 -11.52 7.58 120.13 120.13 0 0 0 -79.53-19.55c33.05 24.47 41.5 62.4 43.54 83.4.21 2.12.35 4.07.44 5.82a7.5 7.5 0 1 1 -15 .81c-.15-2.85-.41-6-.83-9.31-3-24.32-14.18-59.55-51.93-77.47a7.5 7.5 0 0 1 .72-13.85c2.07-.73 47.59-16.26 98 10.11-.3-17.83 2.94-48.09 24.39-73a7.51 7.51 0 0 1 11.36 0c21.43 24.89 24.67 55.15 24.37 73 50.44-26.37 96-10.84 98-10.11a7.48 7.48 0 0 1 5.07 6.65z"/></svg>