<svg id="Layer_1" viewBox="0 0 1000 1000" xmlns="http://www.w3.org/2000/svg" data-name="Layer 1"><path d="m690.11 517h-380.22l117.81-86.15a25.36 25.36 0 0 0 -15-45.82h-63.18l97.48-88.9a25.35 25.35 0 0 0 -17.09-44.13h-22.46l92.55-131.12 92.55 131.12h-22.46a25.35 25.35 0 0 0 -17.09 44.13l97.48 88.87h-63.21a25.36 25.36 0 0 0 -15 45.82z" fill="#33691e"/><path d="m482.1 549.04h35.8v261.34h-35.8z" fill="#5d4037"/><path d="m664.26 810.39c0 17.29-16 35.16-43.92 49-31.87 15.88-74.61 24.61-120.34 24.61s-88.47-8.73-120.34-24.57c-27.91-13.88-43.92-31.75-43.92-49 0-30.74 49-60 114.36-69.93v76.5a25.39 25.39 0 0 0 25.36 25.36h49.08a25.39 25.39 0 0 0 25.36-25.36v-76.54c65.38 9.94 114.36 39.19 114.36 69.93z" fill="#33691e"/><g fill="#fff" opacity=".5"><path d="m680.11 527h-380.22l117.81-86.15a25.36 25.36 0 0 0 -15-45.82h-63.18l97.48-88.9a25.35 25.35 0 0 0 -17.09-44.13h-22.46l92.55-131.12 92.55 131.12h-22.46a25.35 25.35 0 0 0 -17.09 44.13l97.48 88.87h-63.21a25.36 25.36 0 0 0 -15 45.82z"/><path d="m472.1 559.04h35.8v261.34h-35.8z"/><path d="m654.26 820.39c0 17.29-16 35.16-43.92 49-31.87 15.88-74.61 24.61-120.34 24.61s-88.47-8.73-120.34-24.57c-27.91-13.88-43.92-31.75-43.92-49 0-30.74 49-60 114.36-69.93v76.5a25.39 25.39 0 0 0 25.36 25.36h49.08a25.39 25.39 0 0 0 25.36-25.36v-76.54c65.38 9.94 114.36 39.19 114.36 69.93z"/></g><g fill="#413b32"><path d="m725.42 503.22-117.81-86.22h60a25.35 25.35 0 0 0 17.1-44l-97.47-89h18.14a25.35 25.35 0 0 0 20.71-40l-105.37-149.26a25.36 25.36 0 0 0 -41.44 0l-105.37 149.33a25.35 25.35 0 0 0 20.71 40h18.14l-97.47 88.93a25.35 25.35 0 0 0 17.08 44h60l-117.79 86.22a25.36 25.36 0 0 0 15 45.82h420.86a25.36 25.36 0 0 0 15-45.82zm-415.53 13.78 117.81-86.15a25.36 25.36 0 0 0 -15-45.82h-63.18l97.48-88.9a25.35 25.35 0 0 0 -17.09-44.13h-22.46l92.55-131.12 92.55 131.12h-22.46a25.35 25.35 0 0 0 -17.09 44.13l97.48 88.87h-63.21a25.36 25.36 0 0 0 -15 45.82l117.84 86.18z"/><path d="m549.9 533v284a25.39 25.39 0 0 1 -25.36 25.36h-49.08a25.39 25.39 0 0 1 -25.36-25.36v-284a16 16 0 0 1 32 0v277.38h35.8v-277.38a16 16 0 0 1 32 0z"/><path d="m696.26 810.39c0 30.33-21.9 57.92-61.67 77.69-36.22 18-84 27.92-134.59 27.92s-98.37-9.92-134.59-27.92c-39.77-19.77-61.67-47.36-61.67-77.69 0-49.54 59.47-90.54 146.36-102.28q7.13-1 14.49-1.67a16 16 0 0 1 17.41 14.42c.05.51.07 1 .07 1.52a16 16 0 0 1 -14.49 15.92q-8.92.84-17.51 2.16c-65.38 9.94-114.36 39.19-114.36 69.93 0 17.29 16 35.16 43.92 49 31.9 15.88 74.64 24.61 120.37 24.61s88.47-8.73 120.34-24.57c27.91-13.88 43.92-31.75 43.92-49 0-30.74-49-60-114.36-69.93q-8.58-1.31-17.51-2.16a16 16 0 0 1 -14.49-15.92c0-.5 0-1 .07-1.52a16 16 0 0 1 17.44-14.42q7.37.69 14.49 1.67c86.89 11.7 146.36 52.7 146.36 102.24z"/></g></svg>