<svg enable-background="new 0 0 512 512" height="512" viewBox="0 0 512 512" width="512" xmlns="http://www.w3.org/2000/svg"><g id="_x33_1_Pinwheel"><g><g><path d="m336.707 74.621-86.021 11.974v52.676l31.861-10.49z" fill="#e84d3d"/><path d="m336.707 214.844-11.973-86.021h-52.677l10.49 31.861z" fill="#e5ca0a"/><path d="m196.485 74.621 11.974 86.022h52.676l-10.49-31.862z" fill="#4fbae0"/><path d="m288.294 183.319v303.715c0 11.983-9.714 21.697-21.697 21.697-11.983 0-21.697-9.714-21.697-21.697v-303.715c0-11.983 9.714-21.697 21.697-21.697 11.982 0 21.697 9.714 21.697 21.697z" fill="#878787"/><path d="m408.066 22.846v90.903c0 8.96-7.263 16.223-16.223 16.223h-110.487l112.863-112.862c5.11-5.11 13.847-1.491 13.847 5.736z" fill="#f8664f"/><g><path d="m329.378 111.426c-1.272-1.272-1.272-3.333 0-4.605l22.33-22.33c1.272-1.272 3.333-1.272 4.605 0s1.272 3.333 0 4.605l-22.33 22.33c-1.271 1.273-3.332 1.273-4.605 0z" fill="#fff"/></g><g><path d="m363.406 77.4c-1.272-1.272-1.272-3.333 0-4.605l6.15-6.15c1.272-1.272 3.333-1.272 4.605 0s1.272 3.333 0 4.605l-6.15 6.15c-1.271 1.272-3.332 1.272-4.605 0z" fill="#fff"/></g><path d="m144.709 3.262h90.903c8.96 0 16.223 7.263 16.223 16.223v110.487l-112.862-112.862c-5.11-5.11-1.491-13.848 5.736-13.848z" fill="#65c5ef"/><path d="m251.823 19.495v110.474l-11.438-11.438v-91.038c0-8.963-7.269-16.232-16.232-16.232h-87.571c.078-4.117 3.309-7.999 8.129-7.999h90.906c8.963 0 16.206 7.27 16.206 16.233z" opacity=".1"/><path d="m125.126 266.62v-90.903c0-8.96 7.263-16.223 16.223-16.223h110.487l-112.863 112.861c-5.11 5.111-13.847 1.491-13.847-5.735z" fill="#a1d51c"/><path d="m196.485 214.844 86.021-11.974v-52.676l-31.861 10.49z" fill="#96bf16"/><path d="m388.483 286.203h-90.903c-8.96 0-16.223-7.263-16.223-16.223v-110.487l112.863 112.863c5.109 5.11 1.49 13.847-5.737 13.847z" fill="#e5ca0a"/><ellipse cx="266.596" cy="144.733" fill="#eef0ee" rx="23.533" ry="23.533" transform="matrix(.707 -.707 .707 .707 -24.257 230.903)"/></g><g><path d="m308.973 368.658c-1.799 0-3.257 1.458-3.257 3.257v8.962c0 1.799 1.458 3.257 3.257 3.257s3.257-1.458 3.257-3.257v-8.962c0-1.799-1.458-3.257-3.257-3.257z"/><path d="m308.973 394.685c-1.799 0-3.257 1.458-3.257 3.257v49.036c0 1.799 1.458 3.257 3.257 3.257s3.257-1.458 3.257-3.257v-49.036c0-1.799-1.458-3.257-3.257-3.257z"/><path d="m404.153 12.342c-4.328-1.799-9.089-.857-12.419 2.455l-56.732 56.756-80.076 11.138v-63.22c0-10.732-8.743-19.462-19.488-19.462h-90.905c-4.684 0-8.707 2.687-10.498 7.015-1.791 4.326-.847 9.068 2.463 12.379l56.725 56.726 11.166 80.107h-63.217c-10.732 0-19.465 8.743-19.465 19.49v90.88c0 4.697 2.692 8.727 7.023 10.524 4.444 1.832 9.145.766 12.374-2.463l56.76-56.761 43.621-6.065v275.19c0 13.692 11.051 24.961 24.933 24.961 13.763 0 24.961-11.198 24.961-24.961v-198.542c1.898.62 3.918.965 6.02.965h90.905c4.702 0 8.733-2.692 10.524-7.028 1.784-4.326.829-9.066-2.488-12.366l-56.73-56.744-11.14-80.089h63.195c10.748 0 19.49-8.743 19.49-19.488v-90.907c0-4.674-2.684-8.694-7.002-10.49zm-137.722 152.653c-11.227.004-20.269-9.074-20.27-20.266-.001-11.147 8.993-20.266 20.264-20.266 11.149 0 20.263 9.002 20.266 20.266.003 11.229-9.071 20.262-20.26 20.266zm60.905-85.797-44.42 44.443c-8.084-6.329-18.981-7.349-27.99-3.075v-31.297zm-187.284-69.681c.776-1.875 2.453-2.995 4.481-2.995h90.905c7.155 0 12.974 5.809 12.974 12.949v102.638l-107.309-107.312c-1.432-1.435-1.827-3.407-1.051-5.28zm60.818 74.283 44.464 44.443c-6.331 8.089-7.347 18.987-3.07 27.993h-31.297zm-64.372 186.261c-1.435 1.433-3.402 1.827-5.275 1.048-1.88-.779-3.002-2.46-3.002-4.504v-90.88c0-7.155 5.809-12.977 12.951-12.977h102.633c-84.037 84.042-98.22 98.225-107.307 107.313zm113.445-104.237c4.827 3.776 10.65 5.683 16.484 5.683 3.943 0 7.874-.892 11.506-2.616v31.304l-72.43 10.071zm34.921 321.206c0 10.173-8.275 18.447-18.447 18.447-10.24 0-18.419-8.32-18.419-18.447v-276.096l29.935-4.163v63.195c0 5.967 2.698 11.309 6.931 14.886zm107.941-207.089c-.773 1.878-2.458 3-4.501 3h-90.905c-7.142 0-12.951-5.819-12.951-12.974v-102.613l107.292 107.317c1.439 1.433 1.835 3.402 1.065 5.27zm-60.838-74.278-44.446-44.449c6.327-8.088 7.342-18.982 3.067-27.986h31.304zm72.674-91.923c0 7.155-5.822 12.974-12.977 12.974h-102.61c135.753-135.787 101.718-101.744 107.28-107.306 1.45-1.44 3.438-1.829 5.318-1.051 1.873.779 2.99 2.45 2.99 4.476v90.907z"/><path d="m110.85 149.184c-6.45 7.361-10.005 16.783-10.005 26.533v35.408c0 1.799 1.458 3.257 3.257 3.257s3.257-1.458 3.257-3.257v-35.408c0-8.17 2.98-16.068 8.392-22.238 1.186-1.354 1.048-3.41-.303-4.598-1.357-1.18-3.407-1.043-4.598.303z"/><path d="m128.64 144.319c3.002-1.211 6.15-1.977 9.353-2.28 1.791-.168 3.107-1.756 2.936-3.547-.168-1.791-1.751-3.117-3.547-2.936-3.829.359-7.593 1.275-11.18 2.723-1.667.672-2.473 2.57-1.801 4.239.668 1.653 2.555 2.477 4.239 1.801z"/></g></g></g></svg>