<svg height="512" viewBox="0 0 128 128" width="512" xmlns="http://www.w3.org/2000/svg"><g><circle cx="64" cy="92.846" fill="#f3f5e6" r="28.847"/><path d="m64 53.746a39.117 39.117 0 0 0 -10.7 1.486c.025.068 6.59 18.11 6.59 37.614a4.106 4.106 0 1 0 8.212 0c0-26.183-2.4-39.014-2.41-39.06-.558-.024-1.123-.04-1.692-.04z" fill="#d7d9cc"/><path d="m77.685 52.289a24.391 24.391 0 0 0 -11.306-7.467l-13.257-32.692a9.325 9.325 0 0 0 -12.145-5.137 9.325 9.325 0 0 0 -5.137 12.145l12.037 29.686a18.508 18.508 0 0 0 -6.762 7.934 2 2 0 0 0 2.84 2.511 39.2 39.2 0 0 1 31.63-3.777 2 2 0 0 0 2.1-3.203z" fill="#fa7578"/><g><path d="m37.242 83.8a1.749 1.749 0 0 0 1.623-1.1 26.884 26.884 0 0 1 1.821-3.675 1.75 1.75 0 0 0 -3.008-1.789 30.466 30.466 0 0 0 -2.059 4.164 1.749 1.749 0 0 0 1.623 2.4z"/><path d="m68.581 62.59c-.3-3.076-.589-5.364-.807-6.882a37.189 37.189 0 0 1 7.293 1.455 3.744 3.744 0 0 0 3.933-6.024 26.377 26.377 0 0 0 -11.311-7.734l-7.089-17.485a1.75 1.75 0 1 0 -3.243 1.314l7.4 18.244a1.747 1.747 0 0 0 1.117 1.022 22.407 22.407 0 0 1 10.493 6.94.189.189 0 0 1 .01.272.208.208 0 0 1 -.274.107 40.958 40.958 0 0 0 -33.046 3.948.193.193 0 0 1 -.265-.032.217.217 0 0 1 -.071-.283 16.764 16.764 0 0 1 6.142-7.181 1.75 1.75 0 0 0 .636-2.1l-12.038-29.69a7.575 7.575 0 0 1 14.039-5.694l2.336 5.76a1.75 1.75 0 1 0 3.243-1.315l-2.335-5.759a11.075 11.075 0 1 0 -20.526 8.327l11.524 28.414a20.112 20.112 0 0 0 -6.234 7.85 3.733 3.733 0 0 0 5.345 4.707 37.056 37.056 0 0 1 7.347-3.351c.45 1.384 1.136 3.614 1.887 6.475a30.777 30.777 0 0 0 -10.267 5.958 1.75 1.75 0 1 0 2.311 2.628 27.223 27.223 0 0 1 8.806-5.168 114.425 114.425 0 0 1 3.212 25.534 5.856 5.856 0 0 0 11.712 0c0-11.4-.447-20.249-.958-26.651a27.1 27.1 0 1 1 -32.003 26.651c0-.836.039-1.681.115-2.511a1.75 1.75 0 1 0 -3.485-.32c-.086.936-.13 1.889-.13 2.831a30.6 30.6 0 1 0 35.181-30.257zm-4.581 32.61a2.358 2.358 0 0 1 -2.356-2.355c0-16.24-4.4-31.249-6.068-36.372a37.426 37.426 0 0 1 8.424-.973c.067 0 .134.007.2.008.236 1.577.624 4.5 1.007 8.749 0 .044.006.088.011.131.577 6.45 1.137 15.929 1.137 28.463a2.358 2.358 0 0 1 -2.355 2.349z"/><path d="m73.313 111.64a1.755 1.755 0 0 0 .839-.215 21.1 21.1 0 0 0 10.014-12.125 1.75 1.75 0 0 0 -3.334-1.067 17.61 17.61 0 0 1 -8.361 10.123 1.751 1.751 0 0 0 .842 3.286z"/></g></g></svg>