<svg height="512" viewBox="0 0 128 128" width="512" xmlns="http://www.w3.org/2000/svg"><g><path d="m6.307 60.426h115.386v61.267h-115.386z" fill="#cce6ff"/><path d="m31.435 41.908h65.13v79.785h-65.13z" fill="#e6f2ff"/><g fill="#9cf"><path d="m49.954 94.2h28.092v27.493h-28.092z"/><path d="m60.262 60.426h7.476v7.476h-7.476z"/><path d="m60.262 76.578h7.476v7.476h-7.476z"/><path d="m44.111 60.426h7.476v7.476h-7.476z"/><path d="m76.414 60.426h7.476v7.476h-7.476z"/><path d="m44.111 76.578h7.476v7.476h-7.476z"/><path d="m76.414 76.578h7.476v7.476h-7.476z"/></g><path d="m48.771 21.536c0 14.717 15.229 29.434 15.229 29.434s15.229-14.717 15.229-29.434a15.229 15.229 0 1 0 -30.458 0z" fill="#ff415b"/><circle cx="64" cy="21.536" fill="#e6f2ff" r="6.511"/><g><path d="m72.261 21.536a8.261 8.261 0 1 0 -8.261 8.264 8.271 8.271 0 0 0 8.261-8.264zm-13.022 0a4.761 4.761 0 1 1 4.761 4.764 4.767 4.767 0 0 1 -4.761-4.764z"/><path d="m121.693 90.527a1.751 1.751 0 0 0 -1.75 1.75v4.5a1.75 1.75 0 0 0 3.5 0v-4.5a1.75 1.75 0 0 0 -1.75-1.75z"/><path d="m121.693 58.676h-23.378v-16.768a1.749 1.749 0 0 0 -1.75-1.75h-21.785c3.307-5.351 6.2-11.939 6.2-18.622a16.979 16.979 0 1 0 -33.957 0 25.365 25.365 0 0 0 .4 4.4 1.75 1.75 0 0 0 3.447-.609 21.924 21.924 0 0 1 -.346-3.8 13.479 13.479 0 1 1 26.957 0c0 11.408-9.957 23.127-13.479 26.915a63.214 63.214 0 0 1 -10.357-14.8 1.75 1.75 0 1 0 -3.158 1.509 53.029 53.029 0 0 0 2.75 5.007h-21.8a1.749 1.749 0 0 0 -1.75 1.75v16.768h-23.38a1.75 1.75 0 0 0 -1.75 1.75v61.267a1.75 1.75 0 0 0 1.75 1.75h115.386a1.75 1.75 0 0 0 1.75-1.75v-15.261a1.75 1.75 0 0 0 -3.5 0v13.511h-21.628v-57.767h21.628v20.863a1.75 1.75 0 0 0 3.5 0v-22.613a1.75 1.75 0 0 0 -1.75-1.75zm-113.636 3.5h21.628v57.767h-21.628zm25.128-18.518h22.386a67.556 67.556 0 0 0 7.213 8.57 1.749 1.749 0 0 0 2.432 0 67.247 67.247 0 0 0 7.23-8.57h22.369v76.285h-15.015v-25.743a1.75 1.75 0 0 0 -1.75-1.75h-28.096a1.75 1.75 0 0 0 -1.754 1.75v25.743h-15.015zm43.115 76.285h-24.6v-23.993h24.6z"/><path d="m60.262 69.652h7.476a1.749 1.749 0 0 0 1.75-1.75v-7.476a1.75 1.75 0 0 0 -1.75-1.75h-7.476a1.75 1.75 0 0 0 -1.75 1.75v7.474a1.749 1.749 0 0 0 1.75 1.752zm1.75-7.476h3.976v3.976h-3.976z"/><path d="m60.262 85.8h7.476a1.75 1.75 0 0 0 1.75-1.75v-7.472a1.75 1.75 0 0 0 -1.75-1.75h-7.476a1.75 1.75 0 0 0 -1.75 1.75v7.476a1.75 1.75 0 0 0 1.75 1.746zm1.75-7.476h3.976v3.976h-3.976z"/><path d="m44.11 69.652h7.476a1.749 1.749 0 0 0 1.75-1.75v-7.476a1.75 1.75 0 0 0 -1.75-1.75h-7.476a1.751 1.751 0 0 0 -1.75 1.75v7.474a1.75 1.75 0 0 0 1.75 1.752zm1.75-7.476h3.976v3.976h-3.976z"/><path d="m76.414 69.652h7.476a1.75 1.75 0 0 0 1.75-1.75v-7.476a1.751 1.751 0 0 0 -1.75-1.75h-7.476a1.75 1.75 0 0 0 -1.75 1.75v7.474a1.749 1.749 0 0 0 1.75 1.752zm1.75-7.476h3.976v3.976h-3.976z"/><path d="m51.586 85.8a1.75 1.75 0 0 0 1.75-1.75v-7.472a1.75 1.75 0 0 0 -1.75-1.75h-7.476a1.751 1.751 0 0 0 -1.75 1.75v7.476a1.751 1.751 0 0 0 1.75 1.75zm-5.726-7.472h3.976v3.972h-3.976z"/><path d="m76.414 85.8h7.476a1.751 1.751 0 0 0 1.75-1.75v-7.472a1.751 1.751 0 0 0 -1.75-1.75h-7.476a1.75 1.75 0 0 0 -1.75 1.75v7.476a1.75 1.75 0 0 0 1.75 1.746zm1.75-7.476h3.976v3.976h-3.976z"/></g></g></svg>