<svg enable-background="new 0 0 32 32" viewBox="0 0 32 32" xmlns="http://www.w3.org/2000/svg"><g id="Grid" display="none"/><g id="bow_tie"/><g id="balloon_1_"/><g id="placeholder"><path d="m22.73 26.58c0 1.89-3.01 3.42-6.73 3.42s-6.73-1.53-6.73-3.42c0-1.21 1.23-2.27 3.08-2.88 1.3 1.13 2.46 1.93 3.11 2.35.16.11.35.16.54.16s.38-.05.54-.16c.65-.42 1.81-1.22 3.11-2.35 1.85.61 3.08 1.67 3.08 2.88z" fill="#efefef"/><path d="m21.46 24.58c-1.59 1.45-3.07 2.48-3.91 3.02-.42.29-.97.46-1.55.46s-1.13-.17-1.59-.49c-.82-.52-2.3-1.55-3.87-2.99.49-.35 1.1-.65 1.81-.88 1.3 1.13 2.46 1.93 3.11 2.35.16.11.35.16.54.16s.38-.05.54-.16c.65-.42 1.81-1.22 3.11-2.35.71.23 1.32.53 1.81.88z" fill="#ddd"/><path d="m16 2c5.6 0 10.14 4.54 10.14 10.14 0 7.17-7.5 12.55-9.6 13.91-.16.11-.35.16-.54.16s-.38-.05-.54-.16c-2.1-1.36-9.6-6.74-9.6-13.91 0-5.6 4.54-10.14 10.14-10.14z" fill="#e96565"/><path d="m26.14 12.14c0 7.17-7.5 12.55-9.6 13.91-.16.11-.35.16-.54.16s-.38-.05-.54-.16c-2.1-1.36-9.6-6.74-9.6-13.91 0-.51.04-1.01.11-1.49.94 6.41 7.54 11.14 9.49 12.4.16.11.35.16.54.16s.38-.05.54-.16c1.95-1.26 8.55-5.99 9.49-12.4.07.48.11.98.11 1.49z" fill="#e05353"/><circle cx="16" cy="12.14" fill="#efefef" r="6.36"/><path d="m22.36 12.14c0 3.51-2.85 6.36-6.36 6.36s-6.36-2.85-6.36-6.36c0-1.05.25-2.03.71-2.9-.07.33-.1.66-.1 1.01 0 3.18 2.57 5.75 5.75 5.75s5.75-2.57 5.75-5.75c0-.35-.03-.68-.1-1.01.46.87.71 1.85.71 2.9z" fill="#ddd"/><path d="m16.365 8.727.899 1.821 2.01.292c.334.049.468.459.226.695l-1.454 1.418.343 2.002c.057.333-.292.587-.591.43l-1.798-.946-1.798.945c-.299.157-.648-.097-.591-.43l.343-2.002-1.454-1.417c-.242-.236-.108-.646.226-.695l2.01-.292.899-1.821c.149-.303.581-.303.73 0z" fill="#ffd731"/><path d="m11.008 5.95c.089 0 .179-.028.256-.086 1.005-.76 2.189-1.272 3.426-1.48.231-.039.387-.258.348-.49-.039-.231-.255-.39-.49-.348-1.37.23-2.683.798-3.797 1.641-.187.142-.224.408-.083.595.084.11.211.168.34.168z" fill="#ff9292"/><path d="m9.614 7.554c.138-.19.095-.456-.095-.593-.19-.138-.456-.095-.593.095-.063.086-.123.173-.182.261-.129.196-.076.459.12.589.072.048.153.07.234.07.138 0 .273-.067.355-.19.052-.078.106-.156.161-.232z" fill="#ff9292"/><path d="m20.463 23.555c2.87-2.597 6.102-6.586 6.102-11.414 0-5.826-4.739-10.565-10.564-10.565-5.826 0-10.565 4.739-10.565 10.565 0 4.831 3.233 8.82 6.101 11.415-1.696.72-2.691 1.819-2.691 3.025 0 2.156 3.143 3.845 7.155 3.845 4.013 0 7.155-1.688 7.155-3.845-.001-1.207-.996-2.307-2.693-3.026zm-14.178-11.415c0-5.357 4.358-9.715 9.715-9.715 5.356 0 9.715 4.358 9.715 9.715 0 6.923-7.199 12.124-9.416 13.56-.204.141-.383.147-.608-.007-2.207-1.429-9.406-6.629-9.406-13.553zm9.715 17.435c-3.417 0-6.305-1.372-6.305-2.995 0-.916.98-1.818 2.563-2.392 1.214 1.027 2.304 1.787 2.961 2.212.223.154.494.235.781.235s.558-.081.771-.228c.66-.427 1.753-1.189 2.97-2.219 1.584.574 2.565 1.476 2.565 2.392 0 1.624-2.888 2.995-6.306 2.995z"/><path d="m17.6 15.76c.123.065.257.097.389.097.172 0 .343-.054.489-.16.258-.188.385-.5.33-.813l-.305-1.782 1.294-1.261c.229-.223.31-.55.211-.853-.099-.304-.356-.521-.672-.567l-1.789-.26-.8-1.621c-.283-.572-1.21-.572-1.493 0l-.8 1.621-1.79.26c-.315.046-.573.263-.671.566-.099.304-.018.631.211.854l1.294 1.262-.306 1.782c-.054.315.074.626.332.814.258.187.593.211.876.063l1.6-.841zm-3.57-.733.344-2.002c.023-.138-.022-.278-.123-.376l-1.464-1.388 2.01-.292c.139-.02.258-.107.32-.232l.877-1.8.889 1.8c.062.125.182.212.319.232l2 .263-1.454 1.417c-.1.098-.146.238-.122.376l.368 1.983-1.797-.945c-.124-.065-.271-.065-.396 0z"/><path d="m22.785 12.14c0-3.741-3.044-6.785-6.785-6.785-3.742 0-6.785 3.043-6.785 6.785s3.043 6.785 6.785 6.785c3.741 0 6.785-3.044 6.785-6.785zm-12.721 0c0-3.272 2.663-5.935 5.936-5.935 3.272 0 5.936 2.663 5.936 5.935 0 3.273-2.663 5.936-5.936 5.936-3.273-.001-5.936-2.663-5.936-5.936z"/></g><g id="mic"/><g id="speaker"/><g id="champagne"/><g id="gift"/><g id="theater"/><g id="_camera"/><g id="video_camera"/><g id="party_hat"/><g id="champagne_glass"/><g id="man"/><g id="woman"/><g id="skewer"/><g id="ticket"/><g id="cake"/><g id="lights"/><g id="photo"/><g id="invitation"/></svg>