<svg height="512" viewBox="0 0 64 64" width="512" xmlns="http://www.w3.org/2000/svg"><g id="_15-Planting" data-name="15-Planting"><path d="m43 50a8 8 0 0 1 6.74 3.7 7.91 7.91 0 0 1 3.26-.7 8 8 0 0 1 8 8h-58a8 8 0 0 1 8-8 7.91 7.91 0 0 1 3.26.7 8 8 0 0 1 6.74-3.7c5 0 5 5 11 5s6-5 11-5z" fill="#b38051"/><path d="m50 21-8.24-8.24a6 6 0 0 0 -4.25-1.76h-11.51l-3.5-3.5-10 10 7.16 7.16a8 8 0 0 0 5.65 2.34h9.69a3 3 0 0 0 0-6h-6a2 2 0 0 1 -2-2 2 2 0 0 1 2-2h8.17a2 2 0 0 1 1.42.59l7.41 7.41a2.83 2.83 0 0 0 4-4z" fill="#fdd5a6"/><path d="m21 3 3 3-13 13-8-8v-8z" fill="#fc6067"/><path d="m53.13 53a9 9 0 0 1 4.87 8h3a8 8 0 0 0 -7.87-8z" fill="#aa744c"/><path d="m38 24a3 3 0 0 1 -3 3h-1.36a4 4 0 0 0 .19-5.83l-.19-.17h1.36a3 3 0 0 1 3 3z" fill="#fdca99"/><path d="m50.82 23a2.81 2.81 0 0 1 -4 2.57 3.77 3.77 0 0 0 1-2.57 3.84 3.84 0 0 0 -1.11-2.71l-8.24-8.24a6.87 6.87 0 0 0 -1.36-1.05h.4a6 6 0 0 1 4.25 1.76l8.24 8.24a2.82 2.82 0 0 1 .82 2z" fill="#fdca99"/><path d="m8.88 16.88 2.12 2.12 13-13-2.12-2.12z" fill="#fb4b5b"/><g fill="#fcb860"><path d="m35 43h1a0 0 0 0 1 0 0v1a5 5 0 0 1 -5 5h-1a0 0 0 0 1 0 0v-1a5 5 0 0 1 5-5z"/><path d="m39 31h1a0 0 0 0 1 0 0v1a5 5 0 0 1 -5 5h-1a0 0 0 0 1 0 0v-1a5 5 0 0 1 5-5z"/><path d="m23 35h1a5 5 0 0 1 5 5v1a0 0 0 0 1 0 0h-1a5 5 0 0 1 -5-5v-1a0 0 0 0 1 0 0z" transform="matrix(-1 0 0 -1 52 76)"/></g><path d="m62 61a1 1 0 0 1 -1 1h-6a1 1 0 0 1 0-2h4.93a7 7 0 0 0 -9.78-5.39 1 1 0 0 1 -1.25-.37 7 7 0 0 0 -5.9-3.24c-2 0-3 .91-4.26 2.07a9.22 9.22 0 0 1 -13.48 0c-1.26-1.16-2.26-2.07-4.26-2.07a7 7 0 0 0 -5.9 3.24 1 1 0 0 1 -1.25.37 7 7 0 0 0 -9.78 5.39h46.93a1 1 0 0 1 0 2h-48a1 1 0 0 1 -1-1 9 9 0 0 1 11.9-8.52 9 9 0 0 1 7.1-3.48c2.77 0 4.28 1.38 5.61 2.59s2.64 2.41 5.39 2.41 4-1.17 5.39-2.41 2.84-2.59 5.61-2.59a9 9 0 0 1 7.1 3.48 9 9 0 0 1 11.9 8.52zm-51.71-41.29a1 1 0 0 0 1.42 0l.79-.8 1.79 1.8a1 1 0 0 0 1.42 0 1 1 0 0 0 0-1.42l-1.8-1.79 8.59-8.59 2.79 2.8a1 1 0 0 0 .71.29h11.51a4.94 4.94 0 0 1 3.54 1.47l8.24 8.24a1.82 1.82 0 0 1 -2.58 2.58l-7.41-7.41a3 3 0 0 0 -2.13-.88h-8.17a3 3 0 0 0 -3 3 3 3 0 0 0 3 3h6a2 2 0 0 1 2 2 2 2 0 0 1 -2 2h-9.69a6.94 6.94 0 0 1 -4.94-2l-1.66-1.66a1 1 0 0 0 -1.42 1.42l1.71 1.61a9 9 0 0 0 6.31 2.63h9.69a4 4 0 1 0 0-8h-6a1 1 0 0 1 -1-1 1 1 0 0 1 .31-.71.93.93 0 0 1 .69-.29h8.17a1 1 0 0 1 .71.3l7.41 7.41a3.83 3.83 0 0 0 5.42-5.42l-8.24-8.24a7 7 0 0 0 -5-2.05h-11.06l-2.5-2.5.8-.79a1 1 0 0 0 0-1.42l-3-3a1 1 0 0 0 -1.42 1.42l2.3 2.29-11.59 11.59-7.29-7.3a1 1 0 0 0 -1.42 1.42zm18.71 29.29v-1a6 6 0 0 1 6-6h1a1 1 0 0 1 1 1v1a6 6 0 0 1 -6 6h-1a1 1 0 0 1 -1-1zm2-1a4 4 0 0 0 4-4 4 4 0 0 0 -4 4zm4-10h-1a1 1 0 0 1 -1-1v-1a6 6 0 0 1 6-6h1a1 1 0 0 1 1 1v1a6 6 0 0 1 -6 6zm4-6a4 4 0 0 0 -4 4 4 4 0 0 0 4-4zm-10 10h-1a6 6 0 0 1 -6-6v-1a1 1 0 0 1 1-1h1a6 6 0 0 1 6 6v1a1 1 0 0 1 -1 1zm-1-2a4 4 0 0 0 -4-4 4 4 0 0 0 4 4z"/></g></svg>