<svg id="Capa_1" enable-background="new 0 0 512 512" height="512" viewBox="0 0 512 512" width="512" xmlns="http://www.w3.org/2000/svg"><g><circle cx="256" cy="256" fill="#91dafa" r="171.726"/><path d="m353.885 114.899c19.301 27.771 30.626 61.503 30.626 97.885 0 94.842-76.884 171.726-171.726 171.726-36.382 0-70.115-11.324-97.885-30.625 31.014 44.622 82.641 73.841 141.101 73.841 94.842 0 171.726-76.884 171.726-171.726-.001-58.46-29.219-110.087-73.842-141.101z" fill="#75cff9"/><path d="m207.838 217.216-34.132-39.097c-7.788-8.921-19.772-12.966-31.374-10.59l-37.942 7.771c-12.833 24.06-20.116 51.528-20.116 80.7 0 73.647 46.366 136.457 111.496 160.855l28.364-76.315c3.568-9.6 2.46-20.314-2.997-28.981l-2.912-4.625c-3.645-5.789-5.394-12.57-5.003-19.399l2.675-46.815c.491-8.586-2.402-17.024-8.059-23.504z" fill="#b7e546"/><path d="m114.898 353.884c19.771 28.442 47.917 50.626 80.872 62.971l12.05-32.421c-34.485-.979-66.419-12.129-92.922-30.55z" fill="#abd641"/><path d="m303.595 230.746h11.796c7.936 0 15.588 2.95 21.47 8.276l38.083 34.483c8.924 8.081 21.63 10.466 32.878 6.173l19.123-7.299c.51-5.392.782-10.854.782-16.38 0-94.842-76.884-171.726-171.726-171.726v98.877c0 8.484 3.37 16.62 9.369 22.619l15.607 15.607c5.998 6 14.134 9.37 22.618 9.37z" fill="#b7e546"/><path d="m353.885 114.899c19.301 27.771 30.626 61.503 30.626 97.885 0 21-3.776 41.117-10.676 59.717l1.109 1.004c8.924 8.081 21.63 10.466 32.878 6.173l19.123-7.299c.51-5.392.782-10.854.782-16.38-.001-58.459-29.219-110.086-73.842-141.1z" fill="#abd641"/><path d="m313.008 296.195h7.526c6.134 0 11.847 3.117 15.166 8.275l8.641 13.427c4.135 6.426 3.772 14.76-.906 20.802l-7.579 9.788c-2.447 3.161-3.775 7.044-3.775 11.042v2.353c0 8.081-5.376 15.176-13.156 17.363l-.672.189c-9.258 2.602-18.93-2.518-21.983-11.637l-9.634-28.779c-1.499-4.478-1.182-9.365.883-13.611l9.268-19.062c3.02-6.209 9.318-10.15 16.221-10.15z" fill="#abd641"/><path d="m504.498 256c0-15.901-69.744-29.418-166.906-34.358-17.175-.873-33.712-6.554-48.017-16.099-9.61-6.412-21.154-10.152-33.575-10.152s-23.965 3.739-33.575 10.152c-14.305 9.545-30.842 15.226-48.017 16.099-97.162 4.94-166.906 18.457-166.906 34.358s69.744 29.418 166.906 34.358c17.175.873 33.712 6.554 48.017 16.099 9.61 6.412 21.154 10.152 33.575 10.152s23.965-3.739 33.575-10.152c14.305-9.545 30.842-15.226 48.017-16.099 97.162-4.94 166.906-18.457 166.906-34.358z" fill="#f7e365"/><path d="m387.946 225.182c-12.697 22.307-37.246 46.081-70.311 68.416 6.488-1.788 13.171-2.895 19.957-3.24 97.163-4.94 166.906-18.457 166.906-34.358 0-12.989-46.544-24.386-116.552-30.818z" fill="#f3d332"/><circle cx="256" cy="256" fill="#e69642" r="20.203"/><g><path d="m422.201 323.191c16.01-2.001 30.46-4.295 43.177-6.867 4.06-.821 6.686-4.778 5.864-8.839-.822-4.06-4.781-6.673-8.839-5.864-10.372 2.099-21.955 4.009-34.647 5.725 1.769-5.936 3.232-11.975 4.378-18.107 9.698-1.412 18.677-2.946 26.834-4.597 47.002-9.51 53.029-20.302 53.029-28.641 0-10.477-11.208-18.123-36.342-24.79-11.704-3.105-26.433-5.946-43.521-8.43-1.151-6.133-2.617-12.184-4.395-18.128 12.699 1.716 24.287 3.627 34.663 5.727.502.102 1.002.149 1.495.149 3.495 0 6.624-2.456 7.344-6.014.821-4.061-1.805-8.018-5.864-8.839-12.725-2.574-27.186-4.87-43.21-6.872-10.598-26.165-27.34-49.712-49.04-68.465-32.509-28.095-74.106-43.568-117.127-43.568-25.23 0-49.622 5.139-72.497 15.273-3.787 1.678-5.497 6.108-3.819 9.895 1.677 3.787 6.107 5.496 9.895 3.819 18.676-8.275 38.464-12.902 58.921-13.811v63.897c-17.221 1.276-33.744 6.939-48.179 16.57-3.446 2.299-4.376 6.956-2.077 10.401 1.446 2.167 3.823 3.339 6.246 3.339 1.431 0 2.877-.409 4.155-1.262 11.961-7.981 25.612-12.745 39.855-13.987v12.242c0 1.724.121 3.431.341 5.121-10.928 1.144-21.384 4.897-30.586 11.034-3.458 2.31-7.048 4.359-10.736 6.152l-28.167-32.27c-9.542-10.929-24.303-15.909-38.529-13.001l-21.115 4.323c10.909-16.247 24.696-30.61 40.81-42.148 3.368-2.411 4.144-7.096 1.731-10.464-2.41-3.367-7.098-4.143-10.464-1.731-27.753 19.871-49.2 47.414-61.903 78.641-16.07 2.009-30.617 4.315-43.26 6.872-4.06.822-6.685 4.778-5.864 8.839.721 3.558 3.849 6.014 7.344 6.014.493 0 .993-.049 1.495-.149 10.305-2.085 21.943-4.002 34.695-5.725-1.787 5.942-3.268 11.985-4.421 18.107-9.7 1.412-18.68 2.947-26.839 4.597-47.003 9.509-53.03 20.301-53.03 28.641s6.027 19.132 53.029 28.641c8.158 1.65 17.138 3.185 26.837 4.597 1.151 6.126 2.615 12.171 4.391 18.109-12.699-1.716-24.286-3.627-34.663-5.727-4.059-.818-8.018 1.805-8.839 5.864-.821 4.061 1.805 8.018 5.864 8.839 12.725 2.574 27.186 4.87 43.209 6.871 10.598 26.165 27.339 49.712 49.04 68.465 32.51 28.095 74.108 43.569 117.129 43.569 49.602 0 97.441-20.838 131.249-57.17 2.822-3.032 2.651-7.778-.381-10.6-3.034-2.823-7.78-2.651-10.6.381-30.982 33.294-74.818 52.389-120.269 52.389-17.289 0-34.326-2.728-50.519-7.961l22.25-59.888c9.112 2.671 18.613 4.054 28.27 4.054 9.313 0 18.479-1.292 27.294-3.778l5.866 17.522c3.565 10.65 13.471 17.438 24.186 17.438 2.292 0 4.622-.311 6.934-.96l.676-.189c10.967-3.083 18.626-13.192 18.626-24.584v-2.354c0-2.322.783-4.612 2.206-6.449l7.579-9.789c6.609-8.538 7.124-20.374 1.281-29.452l-8.641-13.429c-.605-.94-1.265-1.829-1.973-2.669 28.059-1.467 53.811-3.63 76.37-6.399-1.338 6.122-3.019 12.141-5.044 18.038-8.573.976-17.572 1.872-26.983 2.685-4.127.356-7.183 3.991-6.827 8.118.338 3.907 3.614 6.854 7.464 6.854.217 0 .435-.009.654-.027 6.643-.574 13.078-1.191 19.322-1.847-2.538 5.448-5.375 10.779-8.53 15.971-2.151 3.54-1.025 8.153 2.515 10.304 1.217.74 2.561 1.092 3.888 1.092 2.532 0 5.005-1.283 6.416-3.606 5.029-8.275 9.334-16.87 12.923-25.732zm-312.703-141.284 34.332-7.029c8.939-1.827 18.225 1.302 24.222 8.17l24.501 28.07c-6.059 1.684-12.267 2.714-18.524 3.031-28.857 1.467-55.31 3.67-78.419 6.505 2.976-13.477 7.67-26.499 13.888-38.747zm-94.06 74.093c2.046-2.027 10.946-8.404 45.715-14.943 29.315-5.513 68.61-9.638 113.637-11.927 18.272-.926 36.182-6.927 51.792-17.35 8.719-5.815 18.891-8.89 29.418-8.89 10.526 0 20.699 3.074 29.415 8.888 15.612 10.426 33.522 16.427 51.796 17.352 6.333.32 12.774.694 19.692 1.145 4.128.257 7.702-2.864 7.971-6.998.269-4.133-2.864-7.702-6.998-7.971-6.99-.454-13.502-.833-19.906-1.156-15.57-.789-30.862-5.923-44.227-14.849-8.944-5.965-19.077-9.676-29.675-10.929-.373-1.707-.567-3.452-.567-5.224v-12.242c14.243 1.243 27.893 6.007 39.854 13.986 3.446 2.3 8.103 1.37 10.401-2.077 2.299-3.445 1.369-8.102-2.077-10.401-14.436-9.631-30.958-15.293-48.178-16.569v-63.902c36.733 1.678 71.928 15.641 99.822 39.746 17.766 15.353 31.904 34.208 41.643 55.144-6.236-.655-12.662-1.271-19.296-1.844-4.113-.353-7.761 2.7-8.118 6.827-.355 4.127 2.7 7.762 6.827 8.118 9.403.812 18.395 1.707 26.962 2.682 2.031 5.902 3.721 11.933 5.067 18.06-7.465-.916-15.278-1.77-23.42-2.552-4.129-.392-7.786 2.626-8.183 6.749-.396 4.123 2.626 7.786 6.749 8.183 76.342 7.329 100.927 18.39 105.055 22.899-1.959 1.977-10.73 8.4-45.76 14.988-29.315 5.513-68.61 9.638-113.637 11.927-18.272.926-36.182 6.927-51.792 17.35-8.719 5.815-18.891 8.89-29.418 8.89-10.526 0-20.699-3.074-29.415-8.888-15.612-10.426-33.522-16.427-51.794-17.352-45.028-2.289-84.323-6.414-113.638-11.927-34.77-6.539-43.671-12.916-45.717-14.943zm175.997 151.005c-15.43-6.595-29.873-15.561-42.756-26.694-17.765-15.353-31.904-34.208-41.643-55.144 6.236.655 12.662 1.271 19.296 1.844.22.019.437.027.654.027 3.85 0 7.126-2.947 7.464-6.854.355-4.127-2.7-7.762-6.827-8.118-9.403-.812-18.395-1.707-26.962-2.682-2.029-5.896-3.717-11.92-5.062-18.04 23.111 2.836 49.569 5.039 78.432 6.506 12.505.634 24.828 4.076 36.12 10.028.533 1.037 1.108 2.057 1.732 3.047l2.91 4.627c3.223 5.122 4.467 11.256 3.622 17.166-3.358-1.649-6.625-3.513-9.769-5.611-3.445-2.298-8.101-1.369-10.401 2.077-2.299 3.445-1.369 8.102 2.077 10.401 4.285 2.859 8.756 5.36 13.372 7.509zm41.201-68.825c1.378-5.999 1.357-12.241-.014-18.203 7.435 2.718 15.324 4.133 23.378 4.133 9.151 0 18.094-1.819 26.395-5.314l-1.62 3.331c-2.479 5.1-3.176 10.762-2.058 16.235-7.344 2.023-14.971 3.072-22.717 3.072-7.975 0-15.822-1.113-23.364-3.254zm104.869-4.072-7.578 9.789c-3.447 4.451-5.346 10.003-5.346 15.633v2.354c0 4.7-3.16 8.871-7.681 10.142l-.676.19c-5.415 1.521-11.056-1.464-12.841-6.799l-5.996-17.909c4.94-2.239 9.723-4.874 14.289-7.921 3.446-2.299 4.376-6.956 2.077-10.401-2.301-3.446-6.959-4.374-10.401-2.077-3.259 2.175-6.649 4.1-10.137 5.792.053-1.445.397-2.877 1.048-4.214l9.268-19.062c1.084-2.23 2.924-3.967 5.118-4.97.054-.023.107-.047.161-.069 1.306-.572 2.73-.889 4.196-.889h7.525c3.6 0 6.912 1.808 8.86 4.834l8.641 13.428c2.414 3.744 2.201 8.626-.527 12.149z"/><path d="m256 283.703c15.275 0 27.703-12.428 27.703-27.703s-12.428-27.703-27.703-27.703-27.703 12.428-27.703 27.703 12.428 27.703 27.703 27.703zm0-40.406c7.005 0 12.703 5.698 12.703 12.703s-5.698 12.703-12.703 12.703-12.703-5.698-12.703-12.703 5.698-12.703 12.703-12.703z"/><path d="m186.183 263.501h11.092c4.143 0 7.5-3.357 7.5-7.5s-3.357-7.5-7.5-7.5h-11.092c-4.143 0-7.5 3.357-7.5 7.5s3.358 7.5 7.5 7.5z"/><path d="m150.772 248.501h-38.823c-4.143 0-7.5 3.357-7.5 7.5s3.357 7.5 7.5 7.5h38.823c4.143 0 7.5-3.357 7.5-7.5s-3.357-7.5-7.5-7.5z"/><path d="m314.725 263.501h11.092c4.143 0 7.5-3.357 7.5-7.5s-3.357-7.5-7.5-7.5h-11.092c-4.143 0-7.5 3.357-7.5 7.5s3.358 7.5 7.5 7.5z"/><path d="m361.228 263.501h38.823c4.143 0 7.5-3.357 7.5-7.5s-3.357-7.5-7.5-7.5h-38.823c-4.143 0-7.5 3.357-7.5 7.5s3.357 7.5 7.5 7.5z"/><path d="m416.368 103.132c1.919 0 3.839-.732 5.304-2.196l88.13-88.13c2.929-2.93 2.929-7.678 0-10.607-2.93-2.928-7.678-2.928-10.607 0l-88.13 88.13c-2.929 2.93-2.929 7.678 0 10.607 1.464 1.464 3.384 2.196 5.303 2.196z"/><path d="m256 57.428c4.143 0 7.5-3.357 7.5-7.5v-42.426c0-4.143-3.357-7.5-7.5-7.5s-7.5 3.357-7.5 7.5v42.426c0 4.143 3.357 7.5 7.5 7.5z"/><path d="m341.082 70.054c1.072.533 2.211.786 3.333.786 2.757 0 5.411-1.526 6.722-4.163l27.76-55.836c1.844-3.709.332-8.211-3.377-10.055-3.706-1.844-8.211-.333-10.055 3.377l-27.76 55.837c-1.843 3.709-.332 8.21 3.377 10.054z"/><path d="m90.328 100.936c1.465 1.464 3.385 2.196 5.304 2.196s3.839-.732 5.304-2.196c2.929-2.93 2.929-7.678 0-10.607l-88.13-88.13c-2.93-2.928-7.678-2.928-10.607 0-2.929 2.93-2.929 7.678 0 10.607z"/><path d="m160.863 66.677c1.311 2.637 3.964 4.163 6.722 4.163 1.121 0 2.261-.253 3.333-.786 3.709-1.844 5.221-6.346 3.377-10.055l-27.76-55.836c-1.844-3.709-6.345-5.222-10.055-3.377-3.709 1.844-5.221 6.346-3.377 10.055z"/><path d="m421.672 411.064c-2.93-2.928-7.678-2.928-10.607 0-2.929 2.93-2.929 7.678 0 10.607l88.13 88.13c1.465 1.464 3.385 2.196 5.304 2.196s3.839-.732 5.304-2.196c2.929-2.93 2.929-7.678 0-10.607z"/><path d="m256 454.572c-4.143 0-7.5 3.357-7.5 7.5v42.426c0 4.143 3.357 7.5 7.5 7.5s7.5-3.357 7.5-7.5v-42.426c0-4.143-3.357-7.5-7.5-7.5z"/><path d="m351.137 445.323c-1.843-3.709-6.344-5.222-10.055-3.377-3.709 1.844-5.221 6.346-3.377 10.055l27.76 55.836c1.311 2.637 3.964 4.163 6.722 4.163 1.121 0 2.261-.253 3.333-.786 3.709-1.844 5.221-6.346 3.377-10.055z"/><path d="m90.328 411.064-88.13 88.13c-2.929 2.93-2.929 7.678 0 10.607 1.465 1.464 3.385 2.196 5.304 2.196s3.839-.732 5.304-2.196l88.13-88.13c2.929-2.93 2.929-7.678 0-10.607-2.93-2.927-7.678-2.927-10.608 0z"/><path d="m170.918 441.946c-3.707-1.843-8.211-.333-10.055 3.377l-27.76 55.836c-1.844 3.709-.332 8.211 3.377 10.055 1.072.533 2.211.786 3.333.786 2.757 0 5.411-1.526 6.722-4.163l27.76-55.837c1.843-3.708.332-8.21-3.377-10.054z"/></g></g></svg>