<svg id="Layer_1" viewBox="0 0 1000 1000" xmlns="http://www.w3.org/2000/svg" data-name="Layer 1"><path d="m647.35 686.43-22 185.75v.44a12.58 12.58 0 0 1 -12.77 11.38h-225.16a12.58 12.58 0 0 1 -12.7-11.38c0-.14 0-.29 0-.44l-22-185.75z" fill="#ff7043"/><path d="m323.23 626.85h353.54v27.58h-353.54z" fill="#e64a19"/><g fill="#7cb342"><path d="m561.32 256.29c0 13.4-3.15 24.08-9.91 33.61a62.19 62.19 0 0 1 -35.41 24.53v-39.38l42.2-36.05c2.05 7 3.12 12.88 3.12 17.29z"/><path d="m546.14 207.15-30.14 25.79v-85.16c12.39 22.15 22.58 42.27 30.14 59.37z"/><path d="m484 147.78v85.16l-30.14-25.79c7.56-17.1 17.75-37.22 30.14-59.37z"/><path d="m484 275.05v39.38a62.19 62.19 0 0 1 -35.41-24.53c-6.76-9.53-9.91-20.21-9.91-33.61 0-4.41 1.07-10.25 3.12-17.33z"/><path d="m722 480.82c-5.76 4.6-10.75 7.82-14.83 9.5-12.39 5.11-23.46 6.28-34.85 3.66a62.2 62.2 0 0 1 -36.18-23.38l36.4-15z"/><path d="m790.24 407c-14.91 18.81-28.87 35.12-41.28 48.28l-2.14 2.25-35.34-18.05z"/><path d="m778 377.47-78.73 32.47 12.35-37.7c18.71.47 41.2 2.23 66.38 5.23z"/><path d="m677.63 373.23-17.28 52.77-36.41 15a62.17 62.17 0 0 1 9.19-42.09c6.22-9.88 14.9-16.86 27.29-22 4.08-1.64 9.88-2.91 17.21-3.68z"/><path d="m376.06 441-36.41-15-17.28-52.77c7.33.8 13.13 2 17.21 3.72 12.39 5.12 21.07 12.1 27.29 22a62.17 62.17 0 0 1 9.19 42.05z"/><path d="m288.52 439.52-35.34 18.05c-12.93-13.52-27.65-30.63-43.42-50.53z"/><path d="m300.72 409.94-78.72-32.47c25.19-3 47.68-4.76 66.38-5.23z"/><path d="m363.85 470.6a62.2 62.2 0 0 1 -36.18 23.4c-11.38 2.62-22.46 1.45-34.85-3.66-4.08-1.68-9.07-4.9-14.83-9.5l49.46-25.24z"/></g><g fill="#fff" opacity=".5"><path d="m637.35 696.43-22 185.75v.44a12.58 12.58 0 0 1 -12.77 11.38h-225.16a12.58 12.58 0 0 1 -12.7-11.38c0-.14 0-.29 0-.44l-22-185.75z"/><path d="m313.23 636.85h353.54v27.58h-353.54z"/><path d="m551.32 266.29c0 13.4-3.15 24.08-9.91 33.61a62.19 62.19 0 0 1 -35.41 24.53v-39.38l42.2-36.05c2.05 7 3.12 12.88 3.12 17.29z"/><path d="m536.14 217.15-30.14 25.79v-85.16c12.39 22.15 22.58 42.27 30.14 59.37z"/><path d="m474 157.78v85.16l-30.14-25.79c7.56-17.1 17.75-37.22 30.14-59.37z"/><path d="m474 285.05v39.38a62.19 62.19 0 0 1 -35.41-24.53c-6.76-9.53-9.91-20.21-9.91-33.61 0-4.41 1.07-10.25 3.12-17.33z"/><path d="m712 490.82c-5.76 4.6-10.75 7.82-14.83 9.5-12.39 5.11-23.46 6.28-34.85 3.66a62.2 62.2 0 0 1 -36.18-23.38l36.4-15z"/><path d="m780.24 417c-14.91 18.81-28.87 35.12-41.28 48.28l-2.14 2.25-35.34-18.05z"/><path d="m768 387.47-78.73 32.47 12.35-37.7c18.71.47 41.2 2.23 66.38 5.23z"/><path d="m667.63 383.23-17.28 52.77-36.41 15a62.17 62.17 0 0 1 9.19-42.09c6.22-9.88 14.9-16.86 27.29-22 4.08-1.64 9.88-2.91 17.21-3.68z"/><path d="m366.06 451-36.41-15-17.28-52.77c7.33.8 13.13 2 17.21 3.72 12.39 5.12 21.07 12.1 27.29 22a62.17 62.17 0 0 1 9.19 42.05z"/><path d="m278.52 449.52-35.34 18.05c-12.93-13.52-27.65-30.63-43.42-50.53z"/><path d="m290.72 419.94-78.72-32.47c25.19-3 47.68-4.76 66.38-5.23z"/><path d="m353.85 480.6a62.2 62.2 0 0 1 -36.18 23.4c-11.38 2.62-22.46 1.45-34.85-3.66-4.08-1.68-9.07-4.9-14.83-9.5l49.46-25.24z"/></g><path d="m677.32 659.8a16 16 0 0 0 -12-5.37h-330.68a16 16 0 0 0 -15.89 17.88l1.67 14.12 22.46 189.32a44.41 44.41 0 0 0 44.54 40.25h225.16a44.41 44.41 0 0 0 44.54-40.25l22.46-189.32 1.67-14.12a16 16 0 0 0 -3.93-12.51zm-52 212.38v.44a12.58 12.58 0 0 1 -12.74 11.38h-225.16a12.58 12.58 0 0 1 -12.7-11.38c0-.14 0-.29 0-.44l-22-185.75h294.7z" fill="#413b32"/><path d="m692.77 594.85h-385.54a16 16 0 0 0 -16 16v59.58a16 16 0 0 0 16 16h385.54a16 16 0 0 0 16-16v-59.58a16 16 0 0 0 -16-16zm-369.54 59.58v-27.58h353.54v27.58z" fill="#413b32"/><path d="m580.26 205.58c-13.83-34.31-36.41-74.79-56.54-108.18a27.69 27.69 0 0 0 -47.44 0c-20.13 33.39-42.71 73.87-56.54 108.18-8 19.81-13.06 37.56-13.06 50.71 0 20.08 5.17 37.13 15.81 52.13a93.77 93.77 0 0 0 61.51 38.71 98.36 98.36 0 0 0 32 0 93.77 93.77 0 0 0 61.51-38.71c10.64-15 15.81-32.05 15.81-52.13 0-13.15-5.07-30.9-13.06-50.71zm-28.85 84.32a62.19 62.19 0 0 1 -35.41 24.53 64.69 64.69 0 0 1 -32 0 62.19 62.19 0 0 1 -35.41-24.53c-6.76-9.53-9.91-20.21-9.91-33.61 0-4.41 1.07-10.25 3.12-17.33a261.66 261.66 0 0 1 12.06-31.81c7.56-17.1 17.75-37.22 30.14-59.37q7.49-13.4 16-27.71 8.5 14.28 16 27.71c12.39 22.15 22.58 42.27 30.14 59.37a261.66 261.66 0 0 1 12.06 31.85c2 7.08 3.12 12.92 3.12 17.33 0 13.36-3.15 24.04-9.91 33.57z" fill="#413b32"/><path d="m516 100v510.85a16 16 0 0 1 -32 0v-510.85a16 16 0 0 1 32 0z" fill="#413b32"/><path d="m575.87 223.84-17.67 15.16-42.2 36.05-5.6 4.79a16 16 0 0 1 -20.8 0l-5.6-4.79-42.2-36.05-17.67-15.12a16 16 0 0 1 20.8-24.32l8.93 7.63 30.14 25.75 16 13.69 16-13.69 30.14-25.79 8.93-7.63a16 16 0 0 1 20.8 24.32z" fill="#413b32"/><path d="m843.37 368.71c-.1-.26-.19-.51-.3-.77s-.16-.38-.25-.57a27.49 27.49 0 0 0 -21.18-16.25c-38.48-5.87-84.42-11.3-121.38-11h-.82c-21.09.2-39.19 2.3-51.22 7.26-18.57 7.66-32.36 18.94-42.16 34.49a93.75 93.75 0 0 0 -12.34 71.63 98.36 98.36 0 0 0 4.89 15.29 96.45 96.45 0 0 0 7.32 14.28 93.68 93.68 0 0 0 59.24 42.11 84.26 84.26 0 0 0 18.83 2.16 91.87 91.87 0 0 0 35.34-7.44c33.2-13.69 83.77-75.49 120.34-124.92a27.42 27.42 0 0 0 3.69-26.27zm-94.37 86.61-2.14 2.25a259.07 259.07 0 0 1 -24.86 23.25c-5.76 4.6-10.75 7.82-14.83 9.5-12.39 5.11-23.46 6.28-34.85 3.66a62.2 62.2 0 0 1 -36.18-23.38 64.74 64.74 0 0 1 -12.2-29.6 62.17 62.17 0 0 1 9.19-42.09c6.22-9.88 14.9-16.86 27.29-22 4.08-1.68 9.88-2.92 17.21-3.72a224.4 224.4 0 0 1 24.14-1.12c3.16 0 6.44 0 9.86.13 18.7.47 41.19 2.23 66.38 5.23q15.24 1.81 31.72 4.23-9.94 13.34-19.49 25.34c-14.91 18.85-28.87 35.16-41.24 48.32z" fill="#413b32"/><path d="m834.38 388.83-44.14 18.17-78.76 32.48-38.93 16.06-36.4 15-30.22 12.46-89.93 37.16-9.57 3.94-.33.14-.75.29c-.25.09-.5.18-.76.25s-.5.15-.76.21l-.63.14h-.1q-.68.14-1.35.21h-.42-.56-.78-.76-.56-.42l-.37-.05h-.3c-.23 0-.46-.07-.68-.12s-.49-.1-.73-.16-.51-.13-.76-.21l-.76-.25-.75-.29-.33-.14h-.1a16 16 0 0 1 .43-29.4l6.1-2.52 16-6.6 77.72-32.05 30.22-12.55 36.41-15 38.93-16.06 78.72-32.47 44.17-18.22a16 16 0 0 1 20.64 8.12c.09.19.17.38.25.57s.2.51.3.77a16 16 0 0 1 -8.98 20.12z" fill="#413b32"/><path d="m764.25 484.42a16 16 0 0 1 -21.52 7l-20.73-10.6-49.46-25.24-6.54-3.35a16 16 0 0 1 -7.94-19.23l2.29-7 17.28-52.77 7.24-22.1a16 16 0 0 1 14.57-11h.82a16 16 0 0 1 15 21l-3.65 11.15-12.35 37.7-6.55 20 18.75 9.57 35.34 18.05 10.45 5.33a16 16 0 0 1 7 21.49z" fill="#413b32"/><path d="m393.94 381.86c-9.8-15.55-23.59-26.83-42.16-34.49-12-5-30.13-7.05-51.22-7.26h-.82c-37-.27-82.9 5.15-121.38 11a27.49 27.49 0 0 0 -21.18 16.25c-.09.19-.17.38-.25.57s-.2.51-.3.77a27.42 27.42 0 0 0 3.64 26.3c36.57 49.43 87.14 111.23 120.34 124.92a91.87 91.87 0 0 0 35.39 7.42 84.26 84.26 0 0 0 18.87-2.17 93.68 93.68 0 0 0 59.24-42.11 96.45 96.45 0 0 0 7.32-14.28 98.36 98.36 0 0 0 4.89-15.29 93.75 93.75 0 0 0 -12.38-71.63zm-22.13 74.72a63.83 63.83 0 0 1 -8 14 62.2 62.2 0 0 1 -36.14 23.42c-11.38 2.62-22.46 1.45-34.85-3.66-4.08-1.68-9.07-4.9-14.83-9.5a259.07 259.07 0 0 1 -24.81-23.25c-12.93-13.52-27.65-30.63-43.42-50.53q-9.51-12-19.49-25.34c11-1.61 21.57-3 31.72-4.23 25.19-3 47.68-4.76 66.38-5.23a261.28 261.28 0 0 1 34 1c7.33.8 13.13 2 17.21 3.72 12.39 5.12 21.07 12.1 27.29 22a62.17 62.17 0 0 1 9.19 42.02 63.84 63.84 0 0 1 -4.25 15.58z" fill="#413b32"/><path d="m516 509.45a16 16 0 0 1 -9.57 14.65l-.33.14-.75.29c-.25.09-.5.18-.76.25s-.5.15-.76.21l-.63.14h-.1q-.68.14-1.35.21h-.42-.56-.78-.76-.56-.42l-.37-.05h-.3c-.23 0-.46-.07-.68-.12s-.49-.1-.73-.16-.51-.13-.76-.21l-.76-.25-.75-.29-.33-.14h-.1l-9.47-3.9-89.93-37.1-30.22-12.52-36.4-15-38.93-16.06-78.76-32.54-44.14-18.21a16 16 0 0 1 -9-20.12c.1-.26.19-.51.3-.77s.16-.38.25-.57a16 16 0 0 1 20.64-8.12l44.19 18.26 78.73 32.47 38.92 16.06 36.41 15 30.22 12.47 77.72 32.07 16 6.6 6.1 2.52a16 16 0 0 1 9.9 14.79z" fill="#413b32"/><path d="m334 452.23-6.56 3.35-49.44 25.24-20.73 10.58a16 16 0 0 1 -14.54-28.5l10.45-5.33 35.34-18.05 18.75-9.52-6.55-20-12.35-37.7-3.65-11.15a16 16 0 0 1 15-21h.82a16 16 0 0 1 14.57 11l7.24 22.1 17.3 52.75 2.29 7a16 16 0 0 1 -7.94 19.23z" fill="#413b32"/></svg>