<svg id="Layer_1" viewBox="0 0 1000 1000" xmlns="http://www.w3.org/2000/svg" data-name="Layer 1"><path d="m281.3 571.47h329.93v31.49h-329.93z" fill="#6d4c41"/><path d="m318.76 635v206a43.1 43.1 0 0 0 43.06 43h168.9a43.1 43.1 0 0 0 43-43v-206zm222.55 182.45a16 16 0 0 1 -32 0v-129.53a16 16 0 0 1 32 0z" fill="#6d4c41"/><path d="m316.82 291.59 52.37 47.92c-78.36-24.73-132.54-68-161.42-129.21a228.48 228.48 0 0 1 -21.38-90.92c99.78 21.79 167.29 68.71 200.78 139.62a227.1 227.1 0 0 1 20.11 72l-68.86-63a16 16 0 1 0 -21.6 23.61z" fill="#2e7d32"/><path d="m808 296.93a227.37 227.37 0 0 1 -54 74.38c-51.13 46.32-119.23 65.34-202.94 56.8l70.66-27.11a16 16 0 0 0 -11.47-29.88l-87.77 33.7a227.33 227.33 0 0 1 45-56.52c58.61-53.12 139.45-70.3 240.52-51.37z" fill="#2e7d32"/><g fill="#fff" opacity=".5"><path d="m271.3 581.47h329.93v31.49h-329.93z"/><path d="m308.76 645v206a43.1 43.1 0 0 0 43.06 43h168.9a43.1 43.1 0 0 0 43-43v-206zm222.55 182.45a16 16 0 0 1 -32 0v-129.53a16 16 0 0 1 32 0z"/><path d="m306.82 301.59 52.37 47.92c-78.36-24.73-132.54-68-161.42-129.21a228.48 228.48 0 0 1 -21.38-90.92c99.78 21.79 167.29 68.71 200.78 139.62a227.1 227.1 0 0 1 20.11 72l-68.86-63a16 16 0 1 0 -21.6 23.61z"/><path d="m798 306.93a227.37 227.37 0 0 1 -54 74.38c-51.13 46.32-119.23 65.34-202.94 56.8l70.66-27.11a16 16 0 0 0 -11.47-29.88l-87.77 33.7a227.33 227.33 0 0 1 45-56.52c58.61-53.12 139.45-70.3 240.52-51.37z"/></g><g fill="#413b32"><path d="m605.77 619v222a75.14 75.14 0 0 1 -75 75h-168.95a75.14 75.14 0 0 1 -75.06-75v-222a16 16 0 0 1 32 0v222a43.1 43.1 0 0 0 43.06 43h168.9a43.1 43.1 0 0 0 43-43v-222a16 16 0 0 1 32 0z"/><path d="m302.76 603a16 16 0 0 1 16 16v16h255v-16a16 16 0 0 1 16-16zm324.47-63.49h-361.93a16 16 0 0 0 -16 16v63.49a16 16 0 0 0 16 16h361.93a16 16 0 0 0 16-16v-63.53a16 16 0 0 0 -16-16zm-16 63.49h-329.93v-31.53h329.93zm-308.47 0a16 16 0 0 1 16 16v16h255v-16a16 16 0 0 1 16-16z"/><path d="m541.31 687.92v129.53a16 16 0 0 1 -32 0v-129.53a16 16 0 0 1 32 0z"/><path d="m462.27 388.33a16 16 0 0 1 -26.8 11.81l-5.2-4.76-11.83-10.82-49.25-45.05-52.37-47.92a16 16 0 1 1 21.6-23.59l68.86 63 33.24 30.41 16.45 15c.21.19.42.39.61.59s.29.29.42.44a12.82 12.82 0 0 1 1.11 1.33l.33.45c.12.17.23.33.33.5s.32.52.47.78.18.32.26.49a15.92 15.92 0 0 1 1.77 7.34z"/><path d="m621.72 401-70.72 27.11-59.29 22.76-29.45 11.31-10.26 3.94a16 16 0 0 1 -20.67-9.21 15.68 15.68 0 0 1 -1.06-5.37v-1a16 16 0 0 1 10.26-14.34l21.74-8.35 17.11-6.56 43.1-16.55 87.77-33.7a16 16 0 0 1 11.47 29.96z"/><path d="m416.84 246.92c-17.55-37.84-44-70.23-78.77-96.27-42.73-32.06-98-54.4-164.23-66.39a16 16 0 0 0 -18.73 13.8c-.3 2.42-6.87 59.94 23 124.34 17.55 37.84 44.05 70.23 78.77 96.27 42.16 31.62 96.5 53.79 161.57 65.89.88.18 1.77.34 2.66.5a16.12 16.12 0 0 0 9.89-1.36 16 16 0 0 0 8.31-9.76 15.13 15.13 0 0 0 .57-2.69c.07-.55.47-4 .69-9.86.65-19.39-.75-64.92-23.73-114.47zm-8.29 103q-20.6-4.5-39.36-10.42c-78.36-24.73-132.54-68-161.42-129.21a228.48 228.48 0 0 1 -21.38-90.92c99.78 21.8 167.29 68.72 200.78 139.63a227.1 227.1 0 0 1 20.11 72c.79 7.19 1.15 13.59 1.27 18.93z"/><path d="m843.46 276.92a16 16 0 0 0 -10.26-7.45c-65.68-14.78-125.27-15.75-177.12-2.88-42.12 10.45-79.14 30-110.05 58-40.94 37.09-59.93 78.94-66.65 96.79-1.93 5.09-2.85 8.23-3 8.75a16 16 0 0 0 11.87 20l3.47.77c33.87 7.36 66.08 11.1 96.44 11.1a319.9 319.9 0 0 0 77.22-9c42.11-10.45 79.14-30 110-58 52.61-47.66 69-103.2 69.64-105.54a16 16 0 0 0 -1.56-12.54zm-89.46 94.39c-51.13 46.32-119.23 65.34-202.94 56.8q-18.28-1.86-37.56-5.48c2.28-5.1 5.26-11.16 9-17.85a227.33 227.33 0 0 1 45-56.52c58.59-53.08 139.43-70.26 240.5-51.33a227.37 227.37 0 0 1 -54 74.38z"/><path d="m446.27 571.47a16 16 0 0 1 -16-16v-167.14a16 16 0 1 1 32 0v167.14a16 16 0 0 1 -16 16z"/></g></svg>