<svg id="Capa_1" enable-background="new 0 0 511.939 511.939" height="512" viewBox="0 0 511.939 511.939" width="512" xmlns="http://www.w3.org/2000/svg"><g><g><path d="m399.586 268.167-.875-27.125 5.302-8.687c-3.09-22.647-10.571-43.894-21.568-62.853l-11.109-3.96-39.382-42.25v-8.747c-24.346-17.041-53.294-27.953-84.611-30.495-69.196 25.762-118.494 92.404-118.494 170.575 0 80.235 51.931 148.332 124.012 172.537 27.551-3.128 53.131-12.753 75.177-27.3l3.916-12.154 26.465-25.474 15.287-6.42c16.648-23.361 27.606-51.052 30.876-81.054z" fill="#fb5fa7"/><path d="m131.421 254.65c0-79.391 51.859-146.658 123.545-169.807-7.124-.897-14.38-1.368-21.748-1.368-23.72 0-46.319 4.793-66.887 13.459l-1.87 9.108-64.625 56.75-19.665 13.666c-9.361 18.003-15.635 37.865-18.13 58.888l7.545 11.196 1.923 29-8.802 5.884c1.765 11.881 4.742 23.365 8.802 34.326l9.577 4.541 43.75 60.75-.906 8.164c29.746 24.411 67.804 39.066 109.288 39.066 9.258 0 18.342-.737 27.204-2.144-74.498-21.43-129.001-90.087-129.001-171.479z" fill="#fb4297"/><g><path d="m331.954 114.545c-17.933 7.237-34.404 15.43-50.635 17.847-33.306 4.96-38.486 5.898-85.046-19.153-11.853 9.614-22.474 20.687-31.588 32.947 13.662.265 28.771 5.073 47.436 17.252 63.637 41.523 64.374 41.148 98.875 35.063 22.043-3.888 44.578-21.876 71.448-28.999-12.642-21.795-29.923-40.561-50.49-54.957z" fill="#fb4297"/></g><path d="m168.059 146.343c9.004-11.769 19.435-22.386 31.042-31.587-8.042-4.298-17.362-9.413-28.368-15.477-1.49-.821-2.953-1.594-4.403-2.345-37.157 15.656-67.67 43.963-86.16 79.524 5.515-1.328 11.051-3.203 16.48-5.775 26.704-12.65 46.451-26.181 71.409-24.34z" fill="#e2267f"/><g><path d="m404.013 232.355c-25.316 3.858-47.302 10.582-68.85 12.186-38.257 2.849-39.074 3.025-109.641-16.415-40.721-11.218-66.183-9.086-94.181-3.653-1.636 9.808-2.491 19.88-2.491 30.153 0 1.764.034 3.52.084 5.271 27.985-10.856 53.441-15.104 94.146 7.323 70.567 38.88 71.384 38.53 109.641 32.831 22.402-3.336 45.262-17.766 71.861-25.289.676-6.204 1.034-12.504 1.034-18.887v-.001c0-7.98-.554-15.828-1.603-23.519z" fill="#fb4297"/></g><path d="m131.421 254.65c0-10.467.91-20.721 2.639-30.694-11.451 2.141-23.232 4.891-36.583 7.561-11.713 2.342-23.868 3.457-35.436 3.829-.799 6.732-1.222 13.58-1.222 20.528v.001c0 8.683.649 17.213 1.888 25.552 10.624-.927 21.659-3.156 32.327-7.423 13.295-5.318 25.034-10.803 36.44-15.078-.033-1.422-.053-2.847-.053-4.276z" fill="#e2267f"/><g><path d="m262.091 339.509c-44.827 18.571-81.955 10.482-117.409-10.555 8.384 18.71 19.833 35.745 33.712 50.467 16.165-1.257 33.592.016 56.9 6.437 59.701 16.447 60.723 16.39 92.743 14.005 17.803-11.748 33.305-26.7 45.668-44.047-30.697-27.07-72.506-32.509-111.614-16.307z" fill="#fb4297"/></g><path d="m148.667 331.258c-4.225-2.38-8.425-4.939-12.607-7.676-21.793-14.265-46.984-12.203-64.552-7.83 10.722 28.946 28.991 54.227 52.421 73.455.814-.148 1.626-.301 2.436-.463 20.905-4.181 37.295-8.597 55.721-9.562-13.603-13.955-24.943-30.124-33.419-47.924z" fill="#e2267f"/><g fill="#ffd086"><path d="m469.381 59.607h-8.295l-18 12.617-8.7 15.318-.61 2.359 61.143 12.974 8.224-5.851c-4-17.554-16.933-31.7-33.762-37.417z"/><path d=""/></g><path d="m469.381 59.607c-5.217-1.772-10.803-2.744-16.62-2.744-16.364 0-30.941 7.613-40.413 19.48l11.488 11.449 13.37 2.837c5.516-14.572 17.357-26.024 32.175-31.022z" fill="#ffb640"/><path d="m432.586 125.792 8.083 18.25 13.542 13 10.725 1.749c8.892-2.151 16.886-6.599 23.32-12.683l-1.17-3.399-55.75-29.465z" fill="#ffd086"/><path d="m434.13 114.721-21.782-11.512-11.12 1.506c-.093 1.269-.157 2.546-.157 3.839 0 28.547 23.142 51.69 51.689 51.69 5.196 0 10.211-.771 14.94-2.199-18.115-6.813-31.446-23.391-33.57-43.324z" fill="#ffb640"/><path d="m503.143 97.024c-14.088-.707-28.57-4.415-65.818-14.658l-2.939 5.176-4.05 15.667 1.455 14.601c28.721 15.815 44.468 24.276 56.466 28.298 9.966-9.423 16.194-22.758 16.194-37.555-.001-3.965-.462-7.82-1.308-11.529z" fill="#ffb640"/><path d="m433.828 109.121c0-9.401 2.495-18.214 6.84-25.836-2.799-.768-5.715-1.571-8.794-2.419-6.966-1.919-13.43-3.398-19.526-4.523-6.303 7.898-10.334 17.681-11.12 28.371 8.612 2.32 17.963 6.155 28.413 11.912 1.79.986 3.528 1.943 5.221 2.875-.676-3.355-1.034-6.825-1.034-10.38z" fill="#ffa90f"/></g><g><path d="m460.495 49.886c-2.3-4.712-5.251-8.904-8.824-12.477-29.786-29.783-97.643-13.942-181.756 42.337-126.757-26.383-239.229 86.052-212.838 212.831-56.247 84.083-72.076 152.021-42.335 181.762 40.335 40.331 133.714-10.175 181.796-42.328 126.528 26.307 239.198-85.894 212.803-212.82 12.03-17.988 22.469-35.685 31.061-52.754 3.985.849 8.114 1.305 12.348 1.305 32.046 0 59.189-25.915 59.189-59.189 0-29.69-22.184-54.822-51.444-58.667zm-7.746 14.477c17.049 0 31.864 9.712 39.23 23.888-17.767-2.941-50.491-12.771-64.122-16.186 7.094-4.855 15.666-7.702 24.892-7.702zm-136.994 48.807c-12.489 5.271-24.318 10.132-35.551 11.805l-.532.079c-34.787 5.182-36.614 5.445-95.151-26.74 43.051-13.331 90.826-8.609 131.234 14.856zm-149.695-7.891c71.004 38.406 72.749 41.027 115.822 34.611l.53-.079c16.047-2.389 31.568-9.722 48.451-16.72 15.696 11.575 29.272 25.861 40.037 42.162-23.592 8.424-42.909 22.661-61.693 25.946-32.139 5.671-32.138 5.671-92.999-34.041-20.634-13.464-37.566-18.451-52.76-18.451-23.493 0-42.801 11.91-65.562 23.049 17.089-24.495 40.643-44.154 68.174-56.477zm-97.212 137.273c57.033-3.208 82.913-26.963 154.669-7.195 37.441 10.314 56.102 15.354 71.012 17.183 4.109.507 7.853-2.419 8.357-6.531.504-4.111-2.42-7.853-6.531-8.357-13.862-1.7-32.13-6.639-68.854-16.755-74.531-20.532-104.442 2.97-156.726 6.507 2.75-15.737 7.743-30.71 14.629-44.586 9.279-2.606 14.385-5.153 29.658-12.883 31.634-16.01 52.531-26.589 92.948-.214 46.659 30.443 60.836 39.227 79.408 39.226 6.915 0 14.497-1.22 24.868-3.059 21.889-3.86 42.671-19.639 66.461-27.46 6.31 11.81 11.222 24.473 14.519 37.768-2.72 3.976-5.513 7.963-8.388 11.963-4.221.843-8.361 1.714-12.438 2.573-26.615 5.615-31.342 5.847-42.552 6.681-4.131.305-7.232 3.9-6.928 8.031.306 4.131 3.918 7.239 8.031 6.928 11.085-.822 17.325-1.256 40.381-6.087-11.858 15.392-24.759 30.845-38.554 46.147-37.98 6.406-40.013 4.65-106.134-31.78-75.82-41.771-107.016 5.028-157.479 12.467-1.021-10.129-1.214-19.942-.357-30.567zm145.114 107.566c.306 4.131 3.892 7.229 8.033 6.926 31.309-2.318 40.96-12.554 64.618-17.166-14.88 14.163-29.974 27.516-45.085 39.92-1.385-.381-2.796-.77-4.252-1.171-49.163-13.545-73.786-5.036-111.178 2.516-18.957-16.232-34.196-36.681-44.256-59.88 15.018-2.463 33.776-2.092 50.1 8.593 18.435 12.066 35.684 19.941 52.733 24.073 4.027.971 8.08-1.497 9.056-5.522s-1.497-8.08-5.522-9.056c-15.356-3.722-31.074-10.933-48.052-22.046-21.384-13.997-45.424-13.8-63.727-10.312-2.027-6.201-3.697-12.562-4.983-19.06 54.627-8.077 79.305-51.997 148.001-14.146 59.472 32.767 70.987 38.533 97.337 35.936-4.218 4.426-8.509 8.83-12.865 13.21-38.117.831-47.947 16.553-83.033 19.15-4.13.308-7.23 3.904-6.925 8.035zm-82.282 102.198c-50.438 24.392-89.195 28.551-106.332 11.415-22.395-22.394-7.829-81.222 36.948-151.696 18.47 56.077 62.341 97.497 114.786 114.761-15.505 9.85-30.717 18.419-45.402 25.52zm61.86-36.378c-18.643-4.621-36.043-12.419-51.592-22.79 27.842-5.882 48.679-10.633 85.032-1.699-11.2 8.734-22.373 16.916-33.44 24.489zm20.758 3.744c10.193-7.329 20.442-15.139 30.69-23.378 26.867 7.357 40.012 10.664 51.692 11.757-25.87 10.829-54.125 14.862-82.382 11.621zm111.091-27.144c-24.797 1.837-29.816 1.875-66.21-7.92 17.132-14.447 34.179-30.05 50.87-46.602 19.323.733 37.719 7.157 53.297 19.01-10.698 13.731-23.513 25.737-37.957 35.512zm46.636-47.751c-14.458-10.913-30.957-17.813-48.379-20.543 5.784-5.991 11.438-12.024 16.964-18.084 17.881-4.145 35.362-13.562 54.802-20.551-3.922 21.453-12.005 41.471-23.387 59.178zm25.554-75.758c-13.249 4.193-25.325 9.717-37.119 14.569 11.815-13.932 22.877-27.926 33.064-41.834 1.298-.244 2.594-.489 3.907-.722.835 9.344.882 18.731.148 27.987zm6.547-69.29c-18.403-55.893-62.072-97.42-114.758-114.776 70.523-44.816 129.256-59.39 151.696-36.947.684.683 1.332 1.407 1.951 2.161-28.112 4.674-49.455 29.125-49.455 58.375 0 23.07 13.276 43.086 32.581 52.846-6.357 12.479-13.734 25.306-22.015 38.341zm48.623-46.997c-22.114 0-40.483-16.328-43.691-37.56 16.997 6.567 38.624 21.124 63.741 32.73-6.022 3.08-12.833 4.83-20.05 4.83zm33.459-15.373c-24.613-9.789-54.113-30.377-76.685-37.97 1.111-5.288 3.163-10.228 6.1-14.766 20.181 4.203 58.204 16.966 81.082 19.407 1.226 11.816-2.358 23.893-10.497 33.329z"/></g></g></svg>