<svg id="Layer_1" enable-background="new 0 0 512 512" viewBox="0 0 512 512" xmlns="http://www.w3.org/2000/svg"><g clip-rule="evenodd" fill-rule="evenodd"><g><path d="m398.858 324.256h33.099v64.132h-33.099z" fill="#636c77"/><path d="m74.122 408.101c8.605-11.828 18.738-22.367 30-31.766v-90.749l145.349-70.613v97.908c10.184-2.206 20.232-4.097 30-5.719v-116.153c0-5.32-2.532-9.892-7.041-12.714-4.509-2.823-9.728-3.102-14.513-.778l-175.349 85.187c-5.291 2.57-8.445 7.609-8.445 13.492v131.905z" fill="#4fc0e8"/><path d="m468.247 464.497-212.247 15.751-212.246-15.751c3.359-131.644 134.542-177.009 235.717-193.811l75.67 96.462c.98 1.249 2.346 1.914 3.934 1.914h94.172c8.262 0 15 6.738 15 15z" fill="#66d4f1"/><path d="m445.809 304.299h-60.802c-5.508 0-10 4.492-10 10v9.206c0 5.508 4.492 10 10 10h60.802c5.508 0 10-4.492 10-10v-9.206c-.001-5.508-4.493-10-10-10z" fill="#cad0d7"/><path d="m211.057 474.497h148.548v-51.247c0-5.039-3.672-9.238-8.666-9.911l-128.549-17.308c-2.962-.399-5.667.415-7.917 2.383-2.249 1.967-3.417 4.539-3.417 7.528v68.555z" fill="#4fc0e8"/><circle cx="139.636" cy="401.663" fill="#4fc0e8" r="34.445"/><g fill="#e4e8eb"><path d="m473.29 21v45.997c0 2.754-2.246 5-5 5h-34.584c-15.399 0-27.998-12.599-27.998-27.998s12.599-27.998 27.998-27.998h34.584c2.754-.001 5 2.245 5 4.999z"/><path d="m26 496h460c5.508 0 10-4.492 10-10v-11.504c0-5.508-4.492-10-10-10h-460c-5.508 0-10 4.492-10 10v11.504c0 5.508 4.492 10 10 10z"/></g></g><path d="m85.66 268.999 175.328-85.189c2.541-1.238 5.364-1.087 7.764.391 2.353 1.492 3.717 3.971 3.717 6.799v73.783c-5.411.946-10.729 1.948-15.999 3.007v-52.82c0-2.41-1.224-4.649-3.247-5.929-2.07-1.289-4.611-1.421-6.823-.372l-145.307 70.62c-2.447 1.172-3.953 3.614-3.953 6.292v51.031c-5.741 4.95-11.058 10.098-15.999 15.458v-75.881c.002-3.176 1.649-5.797 4.519-7.19zm156.835 1.793v-44.642l-131.378 63.812v35.569c3.247-2.339 6.588-4.64 10.023-6.87 31.809-20.742 72.512-36.778 121.355-47.869zm114.156 105.272c-2.165 0-4.188-.993-5.506-2.682l-74.583-95.099c-61.219 10.559-110.956 28.078-147.8 52.109-48.137 31.39-74.253 74.131-77.641 127.101h152.93v-62.993c0-2.018.894-3.938 2.4-5.265 1.553-1.332 3.529-1.943 5.553-1.675l148.553 20.003c3.482.471 6.07 3.44 6.07 6.941v42.99h94.628v-73.43c0-4.409-3.576-7.999-7.999-7.999h-96.605zm49.22-35.564h19.104v21.561h-19.104zm-23.857-29.208h66.818v15.208h-66.818zm-29.41 146.201h-134.531v-54.979l134.531 18.107zm136.413 31.508h-465.987v-17.509h465.988v17.509zm-55.29-466.002h32.562v41.992h-32.562c-11.576 0-20.987-9.42-20.987-21.001.001-11.571 9.412-20.991 20.987-20.991zm-34.303 27.993c3.247 15.961 17.41 27.998 34.303 27.998h39.573c3.858 0 7.011-3.129 7.011-6.997v-5.51h15.717c3.859 0 6.964-3.139 6.964-7.002 0-3.868-3.106-6.997-6.964-6.997h-15.717v-16.973h15.717c3.859 0 6.964-3.129 6.964-6.997 0-3.863-3.106-7.002-6.964-7.002h-15.717v-5.51c0-3.873-3.153-7.002-7.011-7.002h-39.573c-16.893 0-31.056 12.042-34.303 27.993h-383.406c-3.858 0-7.011 3.139-7.011 6.997v264.102c0 3.868 3.153 6.997 7.011 6.997h51.102v54.293c-18.022 25.532-28.092 54.97-30.068 88.111h-21.034c-3.858 0-7.011 3.139-7.011 6.997v31.513c0 3.859 3.153 6.997 7.011 6.997h480.01c3.859 0 6.964-3.138 6.964-6.997v-31.513c0-3.858-3.106-6.997-6.964-6.997h-20.752v-73.43c0-12.131-9.882-22.003-22.022-22.003h-14.304v-21.56h16.893c3.858 0 6.964-3.129 6.964-6.997v-29.213c0-3.859-3.106-7.002-6.964-7.002h-80.841c-3.859 0-6.964 3.143-6.964 7.002v29.212c0 3.868 3.106 6.997 6.964 6.997h16.893v21.561h-31.809l-73.595-93.8v-77.26c0-7.637-3.858-14.62-10.305-18.657-6.494-4.052-14.446-4.47-21.316-1.12l-175.327 85.179c-7.764 3.769-12.422 11.171-12.422 19.787v24.901h-44.091v-250.098zm-259.792 378.112c-15.105 0-27.433-12.314-27.433-27.442s12.328-27.452 27.433-27.452c15.152 0 27.48 12.324 27.48 27.452.001 15.128-12.328 27.442-27.48 27.442zm0-68.893c22.869 0 41.456 18.601 41.456 41.451s-18.587 41.441-41.456 41.441c-22.822 0-41.409-18.591-41.409-41.441.001-22.85 18.588-41.451 41.409-41.451z"/></g></svg>