<svg height="512" viewBox="0 0 128 128" width="512" xmlns="http://www.w3.org/2000/svg"><g><g><path d="m26.549 45.772h39.743v55.691h-39.743z" fill="#b373f0"/><path d="m37.257 36.553h39.743v55.691h-39.743z" fill="#fff4f4"/><path d="m66.168 56.685a5.7 5.7 0 0 0 -8.055 0l-.985.985-.984-.985a5.7 5.7 0 0 0 -8.055 8.055l9.039 9.04 9.04-9.04a5.7 5.7 0 0 0 0-8.055z" fill="#ff7ceb"/><g fill="#b373f0"><path d="m47.153 41.063a1.65 1.65 0 0 0 -2.333 0l-.285.286-.285-.286a1.65 1.65 0 0 0 -2.333 2.337l2.618 2.618 2.618-2.618a1.65 1.65 0 0 0 0-2.337z"/><path d="m72.34 83.266a1.65 1.65 0 0 0 -2.333 0l-.285.285-.285-.285a1.65 1.65 0 0 0 -2.337 2.334l2.618 2.617 2.622-2.617a1.65 1.65 0 0 0 0-2.334z"/></g><path d="m95.612 76.826v-20.426a10.858 10.858 0 0 0 -1.642-5.747c-3.516-5.641-11.659-18.711-14.234-22.843a2.724 2.724 0 0 0 -4.836 2.468c2.921 7.217 9.053 22.36 9.053 22.36l-1.961 14.382-1.647-8.9a3.509 3.509 0 0 0 -6.96.639v17.98a12.624 12.624 0 0 0 5.039 10.091l16.976 14.633h6.067v-17.507z" fill="#ffccbe"/></g><g fill="#002e49"><path d="m54.75 38.3h1a1.75 1.75 0 0 0 0-3.5h-1a1.75 1.75 0 0 0 0 3.5z"/><path d="m77 90.494h-37.993v-52.194h9.618a1.75 1.75 0 0 0 0-3.5h-11.368a1.75 1.75 0 0 0 -1.75 1.75v55.694a1.751 1.751 0 0 0 1.75 1.75h27.285v5.718h-36.242v-52.19h3.2a1.75 1.75 0 0 0 0-3.5h-4.951a1.751 1.751 0 0 0 -1.75 1.75v55.69a1.75 1.75 0 0 0 1.75 1.75h39.743a1.749 1.749 0 0 0 1.75-1.75v-7.468h8.958a1.75 1.75 0 0 0 0-3.5z"/><path d="m46.852 65.978 4.5 4.5a1.75 1.75 0 0 0 2.474-2.478l-4.5-4.5a3.951 3.951 0 0 1 0-5.58 4.042 4.042 0 0 1 5.581 0l.984.984a1.749 1.749 0 0 0 2.475 0l.984-.984a4.044 4.044 0 0 1 5.581 0 3.951 3.951 0 0 1 0 5.58l-9.04 9.039a1.75 1.75 0 0 0 2.475 2.475l9.039-9.039a7.446 7.446 0 0 0 -10.277-10.768 7.445 7.445 0 0 0 -10.276 10.771z"/><path d="m47.153 41.063a1.65 1.65 0 0 0 -2.333 0l-.285.286-.285-.286a1.65 1.65 0 0 0 -2.333 2.337l2.618 2.618 2.618-2.618a1.65 1.65 0 0 0 0-2.337z"/><path d="m67.1 83.266a1.65 1.65 0 0 0 0 2.333l2.618 2.617 2.622-2.616a1.65 1.65 0 0 0 -2.333-2.333l-.285.285-.285-.285a1.65 1.65 0 0 0 -2.337-.001z"/><path d="m79.566 85.5c-.029-.025-.06-.05-.091-.073a10.926 10.926 0 0 1 -4.34-8.692v-17.973a1.759 1.759 0 0 1 3.489-.321l1.647 8.9a1.75 1.75 0 0 0 3.442-.637l-1.648-8.9a5.259 5.259 0 0 0 -10.43.958v17.977a14.445 14.445 0 0 0 5.689 11.453l16.93 14.6a1.75 1.75 0 1 0 2.285-2.651z"/><path d="m102.815 82.847-5.453-6.647v-19.8a12.6 12.6 0 0 0 -1.907-6.672l-14.234-22.839a4.474 4.474 0 0 0 -7.942 4.046l1.566 3.865h-12.845a1.75 1.75 0 0 0 0 3.5h13.25v11.367a1.75 1.75 0 0 0 3.5 0v-5.219l3.582 8.846 3.244-1.313-9.053-22.36a.944.944 0 0 1 .094-.9.967.967 0 0 1 .812-.43.956.956 0 0 1 .821.451l14.234 22.84a9.1 9.1 0 0 1 1.378 4.818v20.426a1.75 1.75 0 0 0 .4 1.11l5.85 7.13a1.75 1.75 0 1 0 2.706-2.219z"/></g></g></svg>