<svg id="Capa_1" enable-background="new 0 0 512 512" height="512" viewBox="0 0 512 512" width="512" xmlns="http://www.w3.org/2000/svg"><g><path d="m364.795 504.498h-217.59c-17.121 0-31-13.879-31-31v-434.996c0-17.121 13.879-31 31-31h217.59c17.121 0 31 13.879 31 31v434.996c0 17.121-13.879 31-31 31z" fill="#544f56"/><path d="m147.267 473.498v-434.996c0-17.121 13.879-31 31-31h-31.062c-17.121 0-31 13.879-31 31v434.996c0 17.121 13.879 31 31 31h31.062c-17.121 0-31-13.879-31-31z" fill="#444145"/><path d="m364.733 411.311h-217.466v-372.747h62.154l15.532 28.673h62.124l15.531-28.673h62.125z" fill="#f7f7f7"/><path d="m147.267 38.564h20v372.747h-20z" fill="#e8e8e8"/><path d="m217.169 268.866v-87.857l77.662 43.929z" fill="#df646e"/><path d="m271.531 473.436h-31.062c-8.578 0-15.531-6.954-15.531-15.531 0-8.578 6.954-15.531 15.531-15.531h31.062c8.578 0 15.531 6.954 15.531 15.531 0 8.577-6.953 15.531-15.531 15.531z" fill="#f7f7f7"/><path d="m244.938 457.905c0-8.578 6.954-15.531 15.531-15.531h-20c-8.578 0-15.531 6.953-15.531 15.531s6.953 15.531 15.531 15.531h20c-8.578 0-15.531-6.954-15.531-15.531z" fill="#e8e8e8"/><g><g><path d="m209.669 268.866v-87.857c1.231-6.462 4.962-8.638 11.192-6.528l77.662 43.929c5.077 4.352 5.077 8.704 0 13.056l-77.662 43.928c-7.361 3.981-11.192 1.339-11.192-6.528zm15-74.998v62.139l54.929-31.069z"/></g><g><g><path d="m364.8 512h-217.6c-21.229 0-38.5-17.271-38.5-38.5v-435c0-21.229 17.271-38.5 38.5-38.5h92.46c4.143 0 7.5 3.358 7.5 7.5s-3.357 7.5-7.5 7.5h-92.46c-12.958 0-23.5 10.542-23.5 23.5v435c0 12.958 10.542 23.5 23.5 23.5h217.6c12.958 0 23.5-10.542 23.5-23.5v-45.85c0-4.142 3.357-7.5 7.5-7.5s7.5 3.358 7.5 7.5v45.85c0 21.229-17.272 38.5-38.5 38.5z"/></g><g><path d="m395.8 402.47c-4.143 0-7.5-3.358-7.5-7.5v-356.47c0-12.958-10.542-23.5-23.5-23.5h-92.46c-4.143 0-7.5-3.358-7.5-7.5s3.357-7.5 7.5-7.5h92.46c21.229 0 38.5 17.271 38.5 38.5v356.47c0 4.142-3.358 7.5-7.5 7.5z"/></g><g><path d="m364.73 418.81h-217.46c-4.143 0-7.5-3.358-7.5-7.5v-170.03c0-4.142 3.357-7.5 7.5-7.5s7.5 3.358 7.5 7.5v162.53h202.46v-357.75h-50.152l-13.403 24.751c-1.311 2.421-3.842 3.929-6.595 3.929h-62.13c-2.753 0-5.284-1.508-6.595-3.929l-13.403-24.751h-50.182v162.53c0 4.142-3.357 7.5-7.5 7.5s-7.5-3.358-7.5-7.5v-170.03c0-4.142 3.357-7.5 7.5-7.5h62.15c2.753 0 5.284 1.508 6.595 3.929l13.403 24.751h53.194l13.403-24.751c1.311-2.42 3.842-3.929 6.595-3.929h62.12c4.143 0 7.5 3.358 7.5 7.5v372.75c0 4.142-3.357 7.5-7.5 7.5z"/></g><g><path d="m271.531 46.064h-31.063c-4.143 0-7.5-3.358-7.5-7.5s3.357-7.5 7.5-7.5h31.063c4.143 0 7.5 3.358 7.5 7.5s-3.357 7.5-7.5 7.5z"/></g><g><path d="m271.531 480.936h-31.063c-12.699 0-23.031-10.332-23.031-23.031s10.332-23.031 23.031-23.031h31.063c12.699 0 23.031 10.332 23.031 23.031s-10.332 23.031-23.031 23.031zm-31.062-31.062c-4.429 0-8.031 3.603-8.031 8.031s3.603 8.031 8.031 8.031h31.063c4.429 0 8.031-3.603 8.031-8.031s-3.603-8.031-8.031-8.031z"/></g></g></g></g></svg>