<svg id="Layer_1" enable-background="new 0 0 512 512" viewBox="0 0 512 512" xmlns="http://www.w3.org/2000/svg"><g clip-rule="evenodd" fill-rule="evenodd"><g><path d="m357.316 149.117c-26.612 17.693-52.665 25.543-79.528 33.635-49.33 14.859-101.804 30.666-164.069 125.829-9.476 14.482-22.072 28.884-34.937 39.202-13.502 10.829-28.147 17.759-41.922 17.485-11.647-.226-20.905-9.851-20.68-21.497.226-11.647 9.851-20.906 21.498-20.68 3.037.06 8.371-3.156 14.582-8.138 9.515-7.631 18.96-18.48 26.174-29.505 70.678-108.02 130.739-126.112 187.202-143.12 20.87-6.287 41.175-12.405 60.977-23.913z" fill="#cad0d7"/><path d="m196.659 168.44c-36.556 19.191-75.446 51.627-118.224 117.008-7.214 11.025-16.66 21.873-26.174 29.505-6.212 4.982-11.546 8.198-14.582 8.138-5.97-.116-11.41 2.261-15.324 6.174-3.721 3.72-6.064 8.829-6.174 14.506-.226 11.647 9.033 21.272 20.68 21.497 5.929.118 12.019-1.099 18.111-3.387 8.06-3.028 16.121-7.931 23.811-14.098 12.865-10.317 25.461-24.72 34.937-39.202 50.703-77.491 94.913-102.362 136.22-116.95 1.48-.523 2.305-2.088 1.899-3.604l-10.24-38.216-6.768-25.26c-.35-1.306-1.475-2.191-2.827-2.223s-2.518.799-2.929 2.087c-5.806 18.187-14.101 33.438-32.307 43.967-.039.02-.071.037-.109.058z" fill="#f76c82"/><path d="m362.883 154.684c-17.694 26.612-25.543 52.665-33.635 79.529-14.859 49.329-30.666 101.803-125.828 164.069-14.482 9.476-28.884 22.073-39.202 34.937-10.829 13.502-17.759 28.147-17.485 41.922.226 11.647 9.851 20.906 21.498 20.68s20.905-9.851 20.68-21.498c-.061-3.037 3.155-8.37 8.138-14.583 7.631-9.515 18.48-18.96 29.505-26.174 108.02-70.678 126.112-130.74 143.12-187.202 6.287-20.869 12.405-41.174 23.914-60.976z" fill="#cad0d7"/><path d="m343.56 315.341c-19.191 36.556-51.627 75.446-117.008 118.225-11.025 7.214-21.873 16.659-29.505 26.174-4.982 6.212-8.198 11.546-8.138 14.583.116 5.971-2.261 11.409-6.174 15.324-3.72 3.721-8.829 6.064-14.506 6.174-11.647.226-21.272-9.033-21.498-20.68-.118-5.929 1.099-12.019 3.387-18.111 3.027-8.06 7.93-16.121 14.098-23.811 10.318-12.864 24.72-25.461 39.202-34.937 77.491-50.703 102.362-94.913 116.95-136.22.523-1.48 2.088-2.305 3.604-1.899l38.216 10.24 25.26 6.768c1.306.35 2.191 1.475 2.223 2.826.032 1.352-.799 2.518-2.087 2.929-18.187 5.806-33.438 14.101-43.967 32.306-.019.039-.037.071-.057.109z" fill="#f76c82"/><path d="m372.26 153.78 29.153 29.153c.808.808 1.919 1.082 3.01.744l68.989-21.402c1.004-.311 1.721-1.051 2.002-2.064l20.293-73.27c.297-1.07.016-2.137-.77-2.922l-12.163-12.163c-1.054-1.054-2.688-1.18-3.891-.301l-15.157 11.079c-.4.293-.683.626-.907 1.068l-22.512 44.521c-.448.886-1.223 1.451-2.203 1.608s-1.893-.139-2.595-.841l-13.048-13.048c-1.054-1.054-2.688-1.18-3.891-.301l-45.96 33.595c-.733.535-1.151 1.286-1.221 2.191-.068.905.23 1.711.871 2.353zm-14.04-14.041-29.153-29.153c-.808-.808-1.083-1.919-.744-3.01l21.402-68.989c.312-1.005 1.051-1.722 2.065-2.002l73.27-20.294c1.07-.296 2.137-.016 2.922.77l12.163 12.163c1.054 1.054 1.179 2.688.3 3.891l-11.079 15.157c-.293.4-.626.683-1.068.907l-44.521 22.512c-.886.448-1.452 1.223-1.608 2.203-.157.98.139 1.893.841 2.595l13.048 13.048c1.054 1.054 1.18 2.689.3 3.892l-33.595 45.96c-.535.732-1.286 1.15-2.191 1.221-.905.069-1.711-.229-2.352-.871z" fill="#cad0d7"/><circle cx="347.372" cy="164.628" fill="#e4e8eb" r="60.286"/><circle cx="347.372" cy="164.628" fill="#cad0d7" r="26.763"/></g><path d="m347.196 184.563c-10.898 0-19.768-8.861-19.768-19.763 0-10.898 8.87-19.758 19.768-19.758 10.893 0 19.763 8.86 19.763 19.758 0 10.903-8.87 19.763-19.763 19.763zm0-53.52c-18.62 0-33.767 15.138-33.767 33.757s15.147 33.762 33.767 33.762c18.611 0 33.762-15.142 33.762-33.762s-15.152-33.757-33.762-33.757zm121.882 25.367-55.181 17.124c.372-2.861.583-5.769.583-8.734 0-11.439-2.875-22.21-7.933-31.659l13.208-9.651 13.561 13.552c1.581 1.59 3.831 2.32 6.051 1.958 2.216-.348 4.132-1.746 5.138-3.746l23.951-47.361 11.608-8.493 8.103 8.094zm-121.882 61.68c29.381 0 53.281-23.908 53.281-53.29s-23.9-53.276-53.281-53.276-53.29 23.894-53.29 53.276 23.909 53.29 53.29 53.29zm14.959 28.422c-1.539 5.129-3.115 10.38-4.757 15.58l-27.301-7.312c2.07-6.357 3.971-12.695 5.83-18.888.461-1.501.922-3.021 1.384-4.541 3.228.48 6.526.743 9.886.743 7.101 0 13.942-1.12 20.37-3.162-1.892 5.891-3.662 11.792-5.412 17.58zm11.063 34.307c-13.721 5.892-26.469 14.86-35.87 31.132-.038.09-.09.169-.132.249-22.149 42.232-58.588 78.992-114.678 115.681-.409.273-41.159 28.751-40.801 46.749.15 7.774-6.047 14.211-13.82 14.361-3.75.061-7.326-1.322-10.037-3.929-2.719-2.611-4.254-6.122-4.319-9.891-.565-27.932 33.376-57.68 53.516-70.86 77.363-50.622 103.503-95.372 118.461-136.258zm-115.921-98.627-7.388-27.589c5.167-1.642 10.39-3.223 15.491-4.753 5.83-1.76 11.745-3.548 17.678-5.449-2.051 6.442-3.171 13.288-3.171 20.398 0 3.421.259 6.781.758 10.07-9.637 3.191-17.938 5.723-23.368 7.323zm98.289-139.269-17.119 55.182c2.861-.372 5.769-.583 8.729-.583 11.439 0 22.21 2.87 31.649 7.929l9.66-13.208-13.546-13.563c-1.59-1.59-2.32-3.84-1.972-6.047.362-2.221 1.75-4.132 3.76-5.153l47.361-23.937 8.489-11.623-8.089-8.089zm-247.901 261.998c50.613-77.359 95.371-103.498 136.263-118.471l-12.78-47.667c-5.882 13.721-14.851 26.469-31.132 35.861-.08.047-.16.09-.24.137-42.227 22.149-78.987 58.588-115.676 114.669-.273.414-28.501 40.811-46.523 40.811-.08 0-.16 0-.24 0-.089 0-.179 0-.268 0-3.633 0-7.082 1.402-9.74 3.962-2.729 2.621-4.268 6.117-4.353 9.858-.151 7.769 6.051 14.211 13.825 14.361.216.01.428.01.645.01 24.312-.001 52.71-26.78 70.219-53.531zm393.264-224.439-15.223-15.222c-2.438-2.437-6.291-2.729-9.077-.696l-17.815 13.02c-.889.649-1.619 1.51-2.117 2.489l-20.342 40.242-10.959-10.964c-2.438-2.438-6.292-2.739-9.082-.701l-17.646 12.902c-2.513-2.979-5.27-5.731-8.24-8.239l12.898-17.65c2.042-2.791 1.741-6.64-.701-9.082l-10.959-10.959 40.232-20.351c.988-.499 1.84-1.219 2.499-2.108l13.02-17.82c2.028-2.781 1.741-6.64-.701-9.082l-15.217-15.208c-1.779-1.788-4.39-2.47-6.823-1.798l-76.531 21.199c-2.296.63-4.108 2.4-4.818 4.668l-20.817 67.101c-12.493 4.941-23.175 13.51-30.713 24.422-9.98 3.609-20.37 6.757-30.459 9.797-4.95 1.501-10.018 3.021-15.081 4.621l-7.642-28.52c-.819-3.068-3.595-5.19-6.767-5.19-3.162 0-5.943 2.122-6.762 5.19-6.301 23.523-13.561 39.239-31.95 49.912-44.359 23.311-82.737 61.237-120.758 119.341-2.541 3.877-9.571 12.94-17.241 20.906-12.771 13.26-17.49 13.562-17.519 13.562-7.51-.151-14.582 2.649-20.003 7.867-5.421 5.223-8.489 12.211-8.63 19.683-.297 15.481 12.051 28.332 27.541 28.629.32.014.649.014.979.014 40.632 0 75.293-49.813 81.871-59.863 50.82-77.679 95-101.22 135.171-115.05.141-.042.292-.071.428-.108.489-.141 1.209-.344 2.132-.612 1.84-.532 4.508-1.299 7.821-2.301 4.701-1.407 11.467-3.506 19.259-6.079 6.837 18.182 21.33 32.633 39.531 39.423-.4 1.327-.809 2.668-1.209 4-2.63 8.747-5.124 17.01-8.042 25.48-13.83 40.19-37.343 84.389-115.083 135.26-10.136 6.63-60.668 41.799-59.845 82.85.136 7.496 3.2 14.498 8.606 19.697 5.27 5.073 12.173 7.849 19.462 7.849.188 0 .367-.009.56-.009 15.49-.297 27.838-13.138 27.537-28.619.014-.052.301-4.771 13.562-17.528 7.98-7.674 17.029-14.7 20.921-17.241 58.099-38.021 96.03-76.389 119.341-120.758 10.658-18.394 26.379-25.654 49.907-31.965 3.063-.819 5.19-3.59 5.19-6.757 0-3.162-2.127-5.939-5.19-6.762l-28.52-7.642c1.6-5.087 3.134-10.187 4.63-15.18 3.021-10.037 6.15-20.38 9.74-30.327 10.931-7.538 19.523-18.229 24.474-30.75l67.096-20.808c2.272-.71 4.033-2.522 4.672-4.823l21.199-76.54c.673-2.422-.019-5.033-1.797-6.812z"/></g></svg>