<svg id="Layer_1" viewBox="0 0 512 512" xmlns="http://www.w3.org/2000/svg" data-name="Layer 1"><g fill-rule="evenodd"><path d="m231.7 192.58c-15.1 4.79-29.07 9.91-42.22 15.48 17.28 2.25 36.33 18.45 45.78 33.04 39.78-8.47 84.29-27.51 84.71-75-24.75-24.75-20.72-20.72-21.96-21.96-9.28 9.28-18.55 18.55-27.83 27.83-23.2-23.2-17.45-23.57-27.26 10.15-2.56 8.81-.4 7.03-11.23 10.46z" fill="#445f6b"/><path d="m235.26 241.09c38.19-8.13 80.72-26.01 84.45-69.44l-18.95-18.95c-9.28 9.28-18.55 18.55-27.83 27.83-23.2-23.2-17.45-23.57-27.26 10.15-2.56 8.81-.4 7.03-11.23 10.46-11.09 3.51-21.56 7.21-31.55 11.13 12.44 5.97 24.81 17.14 32.37 28.82z" fill="#506d7a"/><path d="m217.15 265.41c-26.09 5.6-49.73 17.13-71.06 32.33-31.16 22.2-69.22 82.29-103.9 74.69-14.02-3.07-22.26-14.04-23.83-27.87-2.3-20.22 12.9-38.32 26.29-50.93 37.86-35.65 74.66-67.73 122.82-88.59 14.42-6.24 34.86 5.86 47.9 20.18 6.77 7.43 14.46 18.6 13.37 28.08-.71 6.15-4.28 10.55-11.57 12.11z" fill="#d33737"/><path d="m222.47 257.24c-4.4 0-34.35 8.22-70.12 32.94-53.88 37.25-64.57 73.01-102.24 80.13-5.77 1.09-18.71 4.13-25.29-2.95-5.65-6.08-3.64-16.33-2.82-19.76 3.45-5.75 8.43-13.46 15.08-22.09 6.73-8.72 12.59-15.53 17.46-20.11 37.92-35.71 74.78-67.84 123.02-88.74 4.55-1.97 32.52.72 47.98 20.22 3.89 4.91 6.05 9.8 7.29 13.31-.86 1.96-2.28 4.23-4.71 5.65-2.57 1.51-5.17 1.41-5.65 1.41z" fill="#f57c7c"/><path d="m319.42 280.3c-.69 2.19-10.35 26.68-18.58 45.26-.3-18.95-16.17-36.77-30.24-47.36-3.16-2.31 16.8-85.65 75.3-86.18 24.75 24.75 20.72 20.72 21.96 21.96-9.28 9.28-18.55 18.55-27.83 27.83 23.2 23.2 23.57 17.45-10.15 27.26-8.81 2.56-7.03.4-10.46 11.23z" fill="#445f6b"/><path d="m270.6 278.2c7.98-38.56 25.76-82.14 69.74-85.9l18.78 18.78c-9.28 9.28-18.55 18.55-27.83 27.83 23.2 23.2 23.57 17.45-10.15 27.26-8.81 2.56-7.03.4-10.46 11.23-4.06 12.82-8.37 24.83-12.99 36.2-4.56-13.46-15.74-26.81-27.1-35.39z" fill="#506d7a"/><path d="m222.64 368.36c16.13-22.64 28.37-47.74 34.31-75.42 1.66-7.73 6.33-11.53 12.86-12.28 8.53-.98 21.57 4.83 29.8 14.19 14.1 16.03 11.62 39.33 10.39 49.44-4.86 40.24-27.62 44.36-93.65 128.47-9.78 12.45-25.19 32.63-43.4 31.16-5.04-.41-15.95-3.06-23.11-11.73-3.06-3.71-5.3-8.25-6.47-13.57-2.03-9.27-.64-17.99 2.87-25.91 9.21-20.76 61.33-63.22 76.39-84.36z" fill="#d33737"/><path d="m225.76 373.94c11.5-21.02 26.58-74.11 28.19-81.39.27-1.22 1.2-5.88 5.02-8.99 1.29-1.05 2.77-1.82 4.41-2.33 4.92 2.7 9.56 6.33 13.3 9.73 14.8 13.47 27.31 34.6 20.86 49.5-21.56 49.77-54.71 87.81-91.56 126.93-11.59 12.3-27.66 26.08-45.77 27.32-8.43-3.98-14.64-11.19-16.86-21.33-.61-2.8-.91-5.54-.92-8.22 0 0 0-8.53 3.71-17 7.4-16.87 59.94-38.25 79.62-74.21z" fill="#f57c7c"/><path d="m374.68 137.32c39.49-39.49 78.98-78.98 118.48-118.48-8.61-8.61-32.37 4.46-45.41 10.81-80.01 38.92-120.02 58.37-120.02 58.37l-2.64 32.51c17.61-2.34 36.07 3.25 49.6 16.78z" fill="#778991"/><path d="m481.33 16.27c-10.68 1.52-24.66 9.03-33.59 13.38-80.01 38.92-120.02 58.37-120.02 58.37l-2.64 32.51c14.41-1.91 29.4 1.49 41.78 10.21l22.98-22.98 39.96-39.96z" fill="#657b85"/><path d="m374.68 137.32 118.47-118.47c8.61 8.61-4.46 32.37-10.81 45.41-38.92 80.01-58.37 120.02-58.37 120.02l-32.51 2.64c2.34-17.61-3.25-36.07-16.78-49.6z" fill="#445a64"/><path d="m374.68 137.32 118.47-118.47c3.1 3.1-5.51 16.49-7.42 20.43-33.35 68.56-62.72 129.63-70.44 145.71l-23.82 1.94c2.34-17.61-3.25-36.07-16.78-49.6z" fill="#506d7a"/></g><circle cx="332.9" cy="179.1" fill="#445a64" r="59.08"/><path d="m288.07 217.59c-19.97-23.21-18.95-58.26 3.05-80.26 22.01-22.01 57.05-23.02 80.26-3.05 19.97 23.21 18.95 58.26-3.05 80.26-22.01 22.01-57.05 23.02-80.26 3.05z" fill="#4a636e" fill-rule="evenodd"/><circle cx="339.22" cy="175.51" fill="#e7e7e6" r="22.81"/><path d="m499.03 16.88s-.02-.03-.04-.04c-11.59-11.59-33.35-.8-49.24 7.08-1.27.63-2.47 1.23-3.59 1.77l-115.42 56.14c-2.54 1.24-4.25 3.73-4.47 6.55l-2.06 25.29c-11.28 2.67-21.98 8.39-30.76 17.17-6.71 6.71-11.62 14.55-14.76 22.91l-8.34 8.34-13.48-13.48c-1.97-1.97-4.82-2.77-7.53-2.12s-4.88 2.66-5.74 5.31c-1.68 5.17-6.19 19.95-9.06 29.83-.42 1.43-.72 2.6-.97 3.58-.02.06-.03.13-.05.2-.52.16-1.1.34-1.65.51-1.03.31-2.23.68-3.64 1.12-11.14 3.53-21.87 7.31-31.98 11.24-9.14-3.86-17.64-4.42-24.63-1.39-53.91 23.35-94.38 59.2-134.5 96.98-21.36 20.12-30.78 38.37-28.8 55.81 2.38 20.88 14.86 27.71 22.09 29.91 3.23.99 6.69 1.46 10.27 1.46 15.1 0 32.38-8.44 44.3-22.43.02-.03.05-.06.07-.09 43.63-52.66 91.07-84.8 141-95.51 6.3-1.35 10.74-5.35 12.23-10.98 14.05-3.12 26.52-7.11 37.39-11.9-4.79 10.87-8.78 23.34-11.9 37.39-5.63 1.49-9.63 5.93-10.98 12.23-10.71 49.94-42.85 97.38-95.55 141.04-18.25 15.34-26.35 35.64-21.12 52.97 3.97 13.17 15.19 22.04 30.03 23.73 1.51.17 3.03.26 4.56.26 16.06 0 32.87-9.55 51.24-29.05 37.78-40.12 73.63-80.59 96.98-134.5 3.03-6.99 2.47-15.49-1.39-24.63 3.94-10.11 7.71-20.84 11.24-31.98.45-1.41.81-2.61 1.12-3.64.17-.55.34-1.14.51-1.66.07-.02.13-.03.2-.05.98-.25 2.16-.56 3.58-.97 9.87-2.87 24.66-7.39 29.83-9.06 2.65-.86 4.66-3.03 5.31-5.74s-.15-5.56-2.12-7.53l-13.48-13.48 8.45-8.45c20.29-7.71 35.09-24.62 40-45.41l25.27-2.05c2.82-.23 5.31-1.93 6.55-4.47l56.14-115.42c.54-1.12 1.14-2.32 1.77-3.59 7.87-15.87 18.65-37.59 7.12-49.2zm-45.87 23.2c1.15-.56 2.4-1.18 3.7-1.83 5.15-2.56 11.34-5.61 17.18-7.79l-95.07 95.07c-11.32-8.82-24.91-13.35-38.57-13.59l1.44-17.72 111.31-54.14zm-220.1 162.22c1.33-.42 2.47-.77 3.44-1.06 7.61-2.3 10.46-3.84 12.57-12.02.22-.85.48-1.87.84-3.11 1.45-4.99 3.32-11.23 5.02-16.81l9.77 9.77c1.5 1.5 3.54 2.34 5.66 2.34 1.53 0 3.01-.44 4.28-1.25.68 12.49 4.95 24.81 12.81 35.28-12.64 8.89-29.91 15.84-51.51 20.74-4.68-10.16-14.05-20.09-20.78-25.81-.58-.49-1.15-.96-1.73-1.43 6.36-2.29 12.91-4.51 19.63-6.64zm-10.36 45.09c-53.52 11.48-103.96 45.43-149.93 100.9-10.45 12.24-27 19.27-37.69 16-6.18-1.89-9.84-7.41-10.86-16.42-1.36-11.91 6.67-26.16 23.87-42.35 39.04-36.77 78.35-71.62 129.89-93.95.98-.42 2.12-.63 3.42-.63 5.66 0 14.05 3.93 22.29 10.68 11.71 9.58 17.88 19.84 18.98 24.51.03.3.06.6.12.91.02.09.05.18.07.27v.03c-.05.01-.1.02-.16.04zm81.55 90.46c-22.32 51.53-57.18 90.84-93.95 129.89-16.19 17.19-30.44 25.23-42.35 23.87-8.52-.97-14.39-5.39-16.52-12.44-3.3-10.94 3.02-25.12 16.06-36.07 55.5-45.98 89.46-96.43 100.94-149.97.01-.06.02-.11.04-.16h.05c.09.02.17.05.25.06.3.06.6.1.9.12 4.67 1.1 14.93 7.27 24.51 18.98 8.29 10.13 12.33 20.46 10.06 25.71zm25.47-71.94c-1.24.36-2.26.62-3.11.84-8.19 2.11-9.72 4.96-12.02 12.57-.29.97-.64 2.11-1.06 3.44-2.13 6.72-4.35 13.27-6.64 19.63-.47-.58-.94-1.15-1.43-1.73-5.72-6.73-15.65-16.1-25.81-20.78 4.9-21.6 11.85-38.86 20.74-51.5 10.34 7.79 22.59 12.2 35.25 12.85-1.93 3.09-1.56 7.21 1.12 9.89l9.77 9.77c-5.59 1.7-11.83 3.57-16.81 5.02zm147.86-206.95c-.65 1.31-1.27 2.55-1.83 3.71l-54.14 111.31-26.82 2.18c-3.75.31-6.78 3.19-7.28 6.92-2.45 18.43-15.01 33.61-32.78 39.63-17.92 6.07-36.6 1.71-49.96-11.65-19-19-19-49.91 0-68.9 9.5-9.5 21.97-14.25 34.45-14.25s24.95 4.75 34.45 14.25c3.12 3.12 8.19 3.12 11.31 0l100.39-100.39c-2.17 5.85-5.25 12.05-7.81 17.2zm-118.84 98.13c-10.76-10.76-28.27-10.76-39.02 0-10.76 10.76-10.76 28.27 0 39.02 5.38 5.38 12.45 8.07 19.51 8.07s14.13-2.69 19.51-8.07c10.76-10.76 10.76-28.27 0-39.02t0 0zm-11.31 27.71c-4.52 4.52-11.88 4.52-16.4 0s-4.52-11.88 0-16.4c2.26-2.26 5.23-3.39 8.2-3.39s5.94 1.13 8.2 3.39c4.52 4.52 4.52 11.88 0 16.4z"/></svg>