<svg id="Layer_1" viewBox="0 0 512 512" xmlns="http://www.w3.org/2000/svg" data-name="Layer 1"><path d="m238.23 236.86c-.23.23-.44.48-.67.71s-.47.45-.71.67c.56.78 1.11 1.57 1.65 2.37.68-.71 1.34-1.44 1.98-2.18-.18-.12-.35-.24-.53-.37-.58-.4-1.15-.8-1.72-1.21z" fill="none"/><path d="m300.22 234.01s.03-.03.05-.05c-.02.02-.03.03-.05.05z" fill="none"/><path d="m188.13 130.59c-29.35-29.35-73.04-57.01-111.59-81.41-10.47-6.63-20.45-12.94-29.98-19.17l-4.46 4.46 114.03 114.03c10.43-8.29 22.69-13.16 35.29-14.63l-3.29-3.29z" fill="#506d7a"/><path d="m26.34 50.26c6.23 9.53 12.55 19.52 19.17 29.99 24.4 38.55 52.06 82.24 81.41 111.59l3.24 3.24c1.5-12.94 6.55-25.07 14.66-35.25l-114.03-114.03-4.46 4.46z" fill="#657b85"/><path d="m226.74 307.84s0 0 0 0z" fill="#445f6b"/><path d="m228.45 305.87s.09-.1.13-.14c-.04.05-.09.1-.13.14z" fill="#445f6b"/><path d="m368.55 476.18c-1.29 5.89-4 10.79-7.73 14.61 4.59-1.38 9.13-4.47 10.59-11.15 1.29-5.88.12-11.37-2.3-16.28.53 4.15.39 8.44-.57 12.82z" fill="#d33737"/><path d="m227.1 307.41c-.12.14-.24.29-.37.43-.13.15-.26.31-.38.46.25-.3.5-.61.75-.91z" fill="#d33737"/><path d="m254.32 293.79c-.27-1.1-.54-2.18-.82-3.26-1.78-5.63-3.75-11.45-5.95-17.44-2.18-5.96-4.43-11.66-6.7-17.08-12.75 9.79-27.86 15.23-43.76 15.63l-8.06 8.71c5.47 1.8 11.42 3.72 16.24 5.24 1.27.4 2.33.69 3.2.94 8.83 2.46 10.58 5.97 13 14.64.3 1.09.66 2.36 1.1 3.85.94 3.2 1.89 6.35 2.86 9.48-.01.02-.03.03-.04.05 1.16 3.75 2.34 7.45 3.55 11.08.22-.29.43-.58.65-.86 5.88-7.48 16.01-17.81 26.49-23.2-.56-2.65-1.16-5.22-1.77-7.76z" fill="#506d7a"/><path d="m369.12 463.36c-2.98-6.03-7.85-11.19-12.43-15.11-50.84-42.13-82.03-88.37-92.69-137.44-.17.03-.33.05-.5.07-4.54 1.05-14.88 7.71-23.47 18.94-6.55 8.57-9.59 16.87-7.74 21.15 20.44 47.18 52.38 83.2 86.07 118.98 14.71 15.61 27.6 22.91 38.3 21.69 1.34-.15 2.76-.42 4.17-.84 3.73-3.82 6.44-8.72 7.73-14.61.96-4.38 1.09-8.67.57-12.82z" fill="#f57c7c"/><path d="m295.42 239.75s0-.01.01-.02c0 0 0 .01-.01.02z" fill="#445f6b"/><path d="m303.84 230.33s.01-.01.02-.02c0 0-.01.01-.02.02z" fill="#445f6b"/><path d="m300.76 258.31s0 0 0 0c2.49-6.06 6.26-12.36 10.96-18.53 0 0 .01-.02.02-.03 2.34-3.08 4.91-6.12 7.67-9.08.02-.03.05-.05.07-.08 1.83-1.96 3.74-3.89 5.72-5.76 0 0 .02-.02.03-.03.22-.21.44-.42.66-.62-3.95-1.31-7.93-2.6-11.96-3.87-1.95-.61-3.62-1.11-5.04-1.54-11.36-3.41-15.96-5.86-19.18-18.24-.51-1.97-.95-3.32-1.23-4.49-.94-3.93-2.5-9.67-5.17-17.25-4.37 1.92-8.74 3.85-13.11 5.77-.53 22.49-7.77 43.85-20.78 61.84 13.7 7.27 30.18 13.4 49.16 18.37.73-2.15 1.46-4.3 2.18-6.45z" fill="#506d7a"/><path d="m487.4 363.42c.25-1.05.43-2.08.55-3.08.96-8.48-3.43-18.32-13.04-29.35 7.25 9.54 12.77 20.62 12.5 32.43z" fill="#d33737"/><path d="m288.57 251.43c-.56 1.38-1.02 2.74-1.36 4.06.34-1.33.79-2.68 1.36-4.07z" fill="#d33737"/><path d="m474.9 330.99c-2.53-2.9-5.4-5.88-8.65-8.94-35.77-33.69-71.79-65.63-118.98-86.07-4.28-1.85-12.58 1.18-21.15 7.74-11.22 8.59-17.88 18.93-18.94 23.47-.01.17-.04.34-.07.51 49.09 10.67 95.34 41.86 137.48 92.73 4.56 5.47 16.75 17.89 31.35 14.69 7.21-1.58 10.24-6.74 11.45-11.69.27-11.81-5.24-22.89-12.5-32.43z" fill="#f57c7c"/><path d="m183.32 178.04c2.42-1.57 5.04-2.77 7.79-3.57-2.75.67-5.4 1.86-7.79 3.57z" fill="#e7e7e6"/><path d="m189.67 213.21c5.47 5.47 14.38 5.47 19.85 0 2.65-2.65 4.11-6.18 4.11-9.93s-1.46-7.27-4.11-9.93c-2.74-2.74-6.33-4.1-9.93-4.1s-7.19 1.37-9.93 4.1c-5.47 5.47-5.47 14.38 0 19.85z" fill="#e7e7e6"/><g fill="none"><path d="m219.57 253.4c-2.52 1-5.12 1.82-7.78 2.43 2.66-.61 5.26-1.43 7.78-2.43z"/><path d="m250.41 221.41c-.7 1.96-1.51 3.87-2.43 5.73.92-1.86 1.73-3.78 2.43-5.73z"/><path d="m251.4 218.34c-.28.96-.58 1.91-.91 2.85.33-.94.64-1.89.91-2.85z"/><path d="m247.93 227.23c-.95 1.9-2.01 3.75-3.18 5.54 1.17-1.79 2.23-3.63 3.18-5.54z"/><path d="m226.97 249.77c-2.35 1.39-4.8 2.59-7.32 3.6 2.53-1.01 4.97-2.21 7.32-3.6z"/><path d="m252.19 215.28c-.21.91-.44 1.81-.69 2.7.25-.89.48-1.79.69-2.7z"/><path d="m252.79 212.19c-.16.95-.33 1.89-.54 2.82.21-.93.38-1.88.54-2.82z"/><path d="m191.42 133.88-3.29-3.29c-29.35-29.35-73.04-57.01-111.59-81.41-10.47-6.63-20.45-12.94-29.98-19.17l-4.46 4.46 114.03 114.03c10.43-8.29 22.69-13.16 35.29-14.63z"/><path d="m26.34 50.26c6.23 9.53 12.55 19.52 19.17 29.99 24.4 38.55 52.06 82.24 81.41 111.59l3.24 3.24c1.5-12.94 6.55-25.07 14.66-35.25l-114.03-114.03-4.46 4.46z"/><path d="m253.26 208.69c-.1.97-.23 1.93-.37 2.89.15-.96.28-1.92.37-2.89z"/><path d="m163.41 243.27c.62.56 1.25 1.1 1.89 1.63-.64-.53-1.27-1.07-1.89-1.63z"/><path d="m240.02 329.81c-6.55 8.57-9.59 16.87-7.74 21.15 20.44 47.18 52.38 83.2 86.07 118.98 14.71 15.61 27.6 22.91 38.3 21.69 1.34-.15 2.76-.42 4.17-.84 4.59-1.38 9.13-4.47 10.59-11.15 1.29-5.88.12-11.37-2.3-16.28-2.98-6.03-7.85-11.19-12.43-15.11-50.84-42.13-82.03-88.37-92.69-137.44-.17.03-.33.05-.5.07-4.54 1.05-14.88 7.71-23.47 18.94z"/><path d="m312.99 233.76c.24-.2.47-.38.71-.58-.8-.29-1.62-.57-2.43-.85-2.31-.81-4.64-1.61-7.01-2.4-2.47-.82-4.95-1.64-7.47-2.44-1.22-.39-2.26-.7-3.15-.97-7.1-2.15-9.97-3.69-11.98-11.5-.2-.77-.44-1.7-.77-2.83-1.24-4.26-2.81-9.52-4.28-14.36l-7.13 7.13c-.33 14.17-4.85 27.63-12.98 38.97 8.56 4.58 18.85 8.44 30.7 11.58 2.21.58 4.46 1.15 6.78 1.69 4.42-9.27 12.87-18.23 18.99-23.43z"/><path d="m466.25 322.05c-35.77-33.69-71.79-65.63-118.98-86.07-4.28-1.85-12.58 1.18-21.15 7.74-11.22 8.59-17.88 18.93-18.94 23.47-.01.17-.04.34-.07.51 49.09 10.67 95.34 41.86 137.48 92.73 4.56 5.47 16.75 17.89 31.35 14.69 7.21-1.58 10.24-6.74 11.45-11.69.25-1.05.43-2.08.55-3.08.96-8.48-3.43-18.32-13.04-29.35-2.53-2.9-5.4-5.88-8.65-8.94z"/><path d="m211.74 255.85c-.85.19-1.71.37-2.57.52.86-.15 1.72-.33 2.57-.52z"/><path d="m253.49 297.69c-.5-2.17-1.02-4.27-1.57-6.35-.24-.9-.48-1.79-.73-2.67-3.02-10.92-6.69-20.45-10.98-28.47-.09.06-.17.12-.26.18-11.28 8.01-24.64 12.47-38.7 12.79l-7.13 7.13c4.84 1.47 10.1 3.04 14.36 4.28 1.13.33 2.06.57 2.83.77 7.81 2.01 9.35 4.88 11.5 11.98.27.89.58 1.93.97 3.15.84 2.64 1.69 5.25 2.55 7.83 1.03 3.07 2.07 6.09 3.14 9.07.2-.24.38-.47.58-.71 5.2-6.12 14.16-14.57 23.43-18.99z"/><path d="m199.59 233.32c8.02 0 15.57-3.12 21.24-8.8 5.67-5.67 8.8-13.22 8.8-21.24s-3.12-15.57-8.8-21.24c-5.67-5.67-13.22-8.8-21.24-8.8-2.91 0-5.76.42-8.48 1.21-2.75.67-5.4 1.86-7.79 3.57-1.77 1.15-3.44 2.48-4.97 4.01-5.67 5.67-8.8 13.22-8.8 21.24s3.12 15.57 8.8 21.24 13.22 8.8 21.24 8.8z"/><path d="m206.34 256.8c.9-.11 1.78-.25 2.67-.4-.88.16-1.77.29-2.67.4z"/><path d="m161.46 241.42c.61.61 1.24 1.2 1.87 1.78-.64-.57-1.26-1.17-1.87-1.78z"/></g><path d="m237.74 165.14c-5.22-5.22-11.25-9.14-17.7-11.77-6.53-2.67-13.49-4-20.44-4-13.81 0-27.62 5.26-38.14 15.77s-15.8 23.73-15.8 38.14 5.61 27.95 15.8 38.14c.61.61 1.24 1.2 1.87 1.78.03.02.05.04.08.07.62.56 1.25 1.1 1.89 1.63 1.08.89 2.19 1.75 3.33 2.55 6.84 4.82 14.66 7.96 22.95 9.19 2.63.39 5.3.59 8.01.59 2.27 0 4.53-.14 6.75-.42.89-.11 1.78-.25 2.67-.4.05 0 .11-.02.16-.03.86-.15 1.72-.33 2.57-.52.02 0 .04 0 .06-.01 2.66-.61 5.26-1.43 7.78-2.43.02 0 .05-.02.07-.03 2.53-1.01 4.97-2.21 7.32-3.6 1.63-.96 3.21-2 4.74-3.14 2.11-1.57 4.12-3.31 6.02-5.2.26-.26.51-.54.77-.81.68-.71 1.34-1.44 1.98-2.18 1.56-1.81 2.98-3.7 4.27-5.67 1.17-1.79 2.23-3.63 3.18-5.54.01-.03.03-.06.04-.09.92-1.86 1.73-3.78 2.43-5.73.03-.07.05-.14.08-.22.33-.94.64-1.89.91-2.85.03-.12.07-.24.1-.35.25-.89.48-1.79.69-2.7.02-.09.04-.18.06-.27.21-.93.38-1.88.54-2.82.03-.2.07-.41.1-.62.15-.96.28-1.92.37-2.89.18-1.78.27-3.59.27-5.4 0-14.41-5.61-27.95-15.8-38.14zm-16.9 59.38c-5.67 5.67-13.22 8.8-21.24 8.8s-15.57-3.12-21.24-8.8-8.8-13.22-8.8-21.24 3.12-15.57 8.8-21.24c1.53-1.53 3.19-2.86 4.97-4.01 2.39-1.71 5.04-2.9 7.79-3.57 2.72-.8 5.57-1.21 8.48-1.21 8.02 0 15.57 3.12 21.24 8.8 5.67 5.67 8.8 13.22 8.8 21.24s-3.12 15.57-8.8 21.24z" fill="#4a636e"/><path d="m481.57 314.66c-1.39-1.41-2.84-2.83-4.35-4.26-36.85-34.7-74.03-67.63-123.59-89.1-6.5-2.82-14.39-2.33-22.84 1.18-3.55-1.38-7.2-2.73-10.91-4.06-5.92-2.13-12.01-4.2-18.25-6.18-1.3-.41-2.4-.75-3.35-1.03-.38-.12-.79-.24-1.16-.35-.22-.87-.49-1.9-.85-3.13-2.64-9.07-6.78-22.64-8.32-27.39-.86-2.65-3.03-4.66-5.74-5.31s-5.56.15-7.53 2.12l-.91.91-6.72 6.72c-.04-.13-.08-.26-.11-.4-3.19-11.43-9.26-21.92-17.88-30.54-9.61-9.61-21.34-15.81-33.69-18.65l-15.91-15.91c-30.6-30.6-75.1-58.77-114.35-83.61-12.42-7.86-24.15-15.28-35.17-22.59-3.17-2.1-7.39-1.68-10.08 1.02l-14.71 14.72s0 0 0 0l-14.71 14.73c-2.69 2.69-3.11 6.9-1.01 10.07 7.3 11.03 14.73 22.76 22.59 35.17 24.85 39.25 53.01 83.75 83.61 114.35l15.84 15.84c2.9 12.68 9.28 24.32 18.7 33.74 8.72 8.72 19.35 14.84 30.93 18l-7.63 7.63c-1.97 1.97-2.77 4.82-2.12 7.53s2.66 4.88 5.31 5.74c4.75 1.54 18.32 5.68 27.39 8.32 1.23.36 2.26.63 3.13.85.12.38.24.78.35 1.16.29.95.62 2.05 1.03 3.35 2.23 7.05 4.58 13.9 7 20.53v.01c1.07 2.92 2.14 5.8 3.24 8.62-2.63 6.33-3.56 12.34-2.68 17.69.29 1.79.79 3.51 1.5 5.15 21.47 49.56 54.4 86.74 89.1 123.59 16.99 18.04 32.57 26.86 47.49 26.86 1.43 0 2.85-.08 4.26-.24 14.91-1.7 25.6-10.84 28.58-24.46 2.56-11.67-.38-23.56-8.31-34.53-3.13-4.33-7.05-8.52-11.71-12.49-.03-.02-.06-.05-.08-.07-33.95-28.12-58.55-57.97-73.57-89.11-6.31-13.08-10.93-26.38-13.83-39.88-.72-3.35-2.22-6.14-4.34-8.22-1.61-1.57-3.57-2.73-5.82-3.39-.57-2.52-1.17-4.98-1.79-7.4-2.37-9.15-5.15-17.53-8.35-25.06 9.52 4.05 20.36 7.44 32.45 10.15 1.53 5.21 5.72 8.91 11.61 10.17 45.67 9.8 89.06 39.2 129.01 87.41 11.34 13.63 25.16 20.98 38.89 20.98 2.74 0 5.48-.29 8.19-.89 13.62-2.99 22.77-13.67 24.46-28.58 1.7-14.97-5.59-30.55-22.27-47.49zm-435.01-284.65c9.53 6.23 19.51 12.54 29.98 19.17 38.55 24.4 82.24 52.06 111.59 81.41l3.29 3.29c-12.59 1.47-24.86 6.34-35.29 14.63l-114.03-114.03 4.46-4.46zm83.6 165.06-3.24-3.24c-29.35-29.35-57.01-73.04-81.41-111.59-6.63-10.47-12.95-20.45-19.17-29.99l4.46-4.46 114.03 114.03c-8.12 10.19-13.16 22.32-14.66 35.25zm15.51 8.21c0-14.41 5.61-27.95 15.8-38.14s24.33-15.77 38.14-15.77c6.95 0 13.91 1.34 20.44 4 6.44 2.63 12.48 6.55 17.7 11.77 10.19 10.19 15.8 23.73 15.8 38.14 0 1.82-.09 3.62-.27 5.4-.1.97-.23 1.93-.37 2.89-.03.21-.06.41-.1.62-.16.95-.33 1.89-.54 2.82-.02.09-.04.18-.06.27-.21.91-.44 1.81-.69 2.7-.03.12-.06.24-.1.35-.28.96-.58 1.91-.91 2.85-.03.07-.05.14-.08.22-.7 1.96-1.51 3.87-2.43 5.73-.01.03-.03.06-.04.09-.95 1.9-2.01 3.75-3.18 5.54-1.29 1.97-2.71 3.87-4.27 5.67-.64.74-1.3 1.47-1.98 2.18-.26.27-.51.54-.77.81-1.9 1.9-3.91 3.63-6.02 5.2-1.53 1.14-3.11 2.18-4.74 3.14-2.35 1.39-4.8 2.59-7.32 3.6-.02 0-.05.02-.07.03-2.52 1-5.12 1.82-7.78 2.43-.02 0-.04 0-.06.01-.85.19-1.71.37-2.57.52-.05 0-.11.02-.16.03-.88.16-1.77.29-2.67.4-2.22.28-4.47.42-6.75.42-2.7 0-5.38-.2-8.01-.59-8.29-1.23-16.11-4.37-22.95-9.19-1.14-.8-2.25-1.66-3.33-2.55-.64-.53-1.27-1.07-1.89-1.63-.03-.02-.05-.04-.08-.07-.64-.58-1.26-1.17-1.87-1.78-10.19-10.19-15.8-23.73-15.8-38.14zm83.83 114.1c-1.06-2.98-2.11-6-3.14-9.07-.87-2.58-1.72-5.19-2.55-7.83-.39-1.22-.7-2.26-.97-3.15-2.15-7.1-3.69-9.97-11.5-11.98-.77-.2-1.7-.44-2.83-.77-4.26-1.24-9.52-2.81-14.36-4.28l7.13-7.13c14.06-.33 27.42-4.78 38.7-12.79.09-.06.17-.12.26-.18 4.29 8.01 7.96 17.55 10.98 28.47.24.88.49 1.77.73 2.67.54 2.07 1.07 4.18 1.57 6.35-9.27 4.42-18.23 12.87-23.43 18.99-.2.24-.38.47-.58.71zm34.01-6.52c.17-.01.33-.04.5-.07 10.66 49.07 41.85 95.31 92.69 137.44 4.58 3.91 9.46 9.07 12.43 15.11 2.42 4.91 3.59 10.41 2.3 16.28-1.46 6.68-6 9.77-10.59 11.15-1.41.42-2.83.69-4.17.84-10.7 1.21-23.59-6.08-38.3-21.69-33.69-35.78-65.63-71.8-86.07-118.98-1.85-4.28 1.18-12.58 7.74-21.15 8.59-11.23 18.94-17.89 23.47-18.94zm30.51-53.69c-2.32-.53-4.57-1.1-6.78-1.69-11.85-3.13-22.14-7-30.7-11.58 8.13-11.33 12.65-24.8 12.98-38.97l7.13-7.13c1.47 4.84 3.04 10.1 4.28 14.36.33 1.13.57 2.06.77 2.83 2.01 7.8 4.88 9.35 11.98 11.5.89.27 1.93.58 3.15.97 2.52.8 5.01 1.61 7.47 2.44 2.36.79 4.7 1.59 7.01 2.4.81.28 1.62.57 2.43.85-.24.2-.47.38-.71.58-6.12 5.2-14.57 14.16-18.99 23.43zm193.94 103.16c-.11.99-.29 2.03-.55 3.08-1.2 4.95-4.23 10.11-11.45 11.69-14.6 3.2-26.8-9.22-31.35-14.69-42.14-50.87-88.39-82.07-137.48-92.73.03-.17.05-.34.07-.51 1.06-4.54 7.72-14.88 18.94-23.47 8.57-6.55 16.87-9.59 21.15-7.74 47.18 20.44 83.2 52.38 118.98 86.07 3.25 3.06 6.12 6.04 8.65 8.94 9.61 11.03 14.01 20.88 13.04 29.35z"/><path d="m178.35 224.53c5.67 5.67 13.22 8.8 21.24 8.8s15.57-3.12 21.24-8.8c5.67-5.67 8.8-13.22 8.8-21.24s-3.12-15.57-8.8-21.24c-5.67-5.67-13.22-8.8-21.24-8.8-2.91 0-5.76.42-8.48 1.21-2.75.81-5.37 2.01-7.79 3.57-1.77 1.15-3.44 2.48-4.97 4.01-5.67 5.67-8.8 13.22-8.8 21.24s3.12 15.57 8.8 21.24zm21.24-35.27c3.6 0 7.19 1.37 9.93 4.1 2.65 2.65 4.11 6.18 4.11 9.93s-1.46 7.27-4.11 9.93c-5.47 5.47-14.38 5.47-19.85 0s-5.47-14.38 0-19.85c2.74-2.74 6.33-4.1 9.93-4.1z"/></svg>