<svg enable-background="new 0 0 32 32" viewBox="0 0 32 32" xmlns="http://www.w3.org/2000/svg"><g id="Grid" display="none"/><g id="coin"/><g id="bomb"/><g id="gem"/><g id="ufo"/><g id="medal"/><g id="viking_helmet"/><g id="sword"/><g id="rocket"/><g id="torch"/><g id="spear"/><g id="money_bag"/><g id="crown"/><g id="heart"/><g id="skull"/><g id="star"/><g id="shield"/><g id="crystal"/><g id="gift"/><g id="map"/><g id="poison"><path d="m19.063 6.627h-6.126l-.924-3.496c-.151-.572.279-1.131.87-1.131h6.234c.591 0 1.021.559.871 1.131z" fill="#efc48f"/><path d="m19.99 3.13-.93 3.5h-1.87l.92-3.5c.15-.57-.28-1.13-.87-1.13h1.88c.59 0 1.02.56.87 1.13z" fill="#eab478"/><path d="m19.755 9.419v2.676c0 .833.286 1.641.81 2.288l2.951 3.646c.6.741.765 1.742.436 2.636l-3.035 8.254c-.239.649-.857 1.081-1.549 1.081h-6.736c-.692 0-1.31-.432-1.549-1.081l-3.035-8.254c-.329-.894-.163-1.896.436-2.636l2.951-3.646c.524-.647.81-1.455.81-2.288v-2.676z" fill="#efefef"/><path d="m22.62 20.35c-.46.2-1.01.36-1.63.42l.04-.11c.33-.89.17-1.89-.43-2.63l-2.95-3.65c-.53-.64-.81-1.45-.81-2.29v-2.67h2.91v2.67c0 .84.29 1.65.81 2.29l2.96 3.65-.18-.21c.03.04.06.08.08.13.05.11.09.21.13.32.23.78-.07 1.7-.93 2.08z" fill="#ddd"/><path d="m23.95 20.66-3.03 8.26c-.24.65-.86 1.08-1.55 1.08h-6.74c-.69 0-1.31-.43-1.55-1.08l-3.03-8.26c-.23-.63-.22-1.32.03-1.93.52-.28 3.69-1.72 8.16.73.12.06.23.13.34.19 2.61 1.52 4.65 1.29 6.04.7.86-.38 1.16-1.3.93-2.08-.04-.11-.08-.21-.13-.32-.02-.05-.05-.09-.08-.13l.18.21c.6.74.76 1.74.43 2.63z" fill="#55f990"/><path d="m23.95 20.66-3.03 8.26c-.24.65-.86 1.08-1.55 1.08h-2.92c.69 0 1.31-.43 1.55-1.08l2.99-8.15c.62-.06 1.17-.22 1.63-.42.86-.38 1.16-1.3.93-2.08-.04-.11-.08-.21-.13-.32-.02-.05-.05-.09-.08-.13l.18.21c.6.74.76 1.74.43 2.63z" fill="#4eea7a"/><path d="m19.983 9.419h-7.967c-.925 0-1.675-.75-1.675-1.675 0-.925.75-1.675 1.675-1.675h7.967c.925 0 1.675.75 1.675 1.675.001.925-.749 1.675-1.675 1.675z" fill="#efefef"/><path d="m21.66 7.74c0 .93-.75 1.68-1.68 1.68h-2.46c.93 0 1.68-.75 1.68-1.68 0-.92-.75-1.67-1.68-1.67h2.46c.93 0 1.68.75 1.68 1.67z" fill="#ddd"/><path d="m22.62 20.35c-1.39.59-3.43.82-6.04-.7-.11-.06-.22-.13-.34-.19 2.75-2.53 4.82-2.75 6.23-2.31.6.218.887.588 1.08 1.12.23.78-.07 1.7-.93 2.08z" fill="#4bdb7b"/><path d="m23.846 17.761-2.951-3.646c-.461-.57-.715-1.288-.715-2.021v-2.27c1.065-.101 1.903-.99 1.903-2.081 0-1.158-.941-2.1-2.1-2.1h-.22l.638-2.406c.105-.4.02-.818-.233-1.147-.253-.327-.635-.515-1.048-.515h-6.24c-.413 0-.795.188-1.048.515-.253.329-.339.747-.233 1.149l.638 2.404h-.22c-1.158 0-2.1.941-2.1 2.1 0 1.091.838 1.98 1.903 2.081v2.271c0 .732-.254 1.45-.715 2.021l-2.951 3.646c-.69.854-.884 2.022-.505 3.051l3.035 8.254c.299.813 1.082 1.359 1.947 1.359h6.736c.865 0 1.648-.546 1.947-1.359l3.035-8.254c.38-1.03.187-2.199-.503-3.052zm-1.015.096c.561.647.462 1.731-.376 2.101-1.67.709-3.507.513-5.471-.576 1.989-1.692 3.789-2.317 5.342-1.832.212.077.375.174.505.307zm-10.41-14.835c-.038-.145-.007-.295.084-.413.091-.117.228-.185.375-.185h6.24c.147 0 .284.067.375.185s.122.269.084.411l-.696 2.623h-5.766zm-1.654 4.721c0-.689.561-1.25 1.25-1.25h7.967c.689 0 1.25.561 1.25 1.25s-.561 1.251-1.25 1.251h-7.967c-.69 0-1.25-.561-1.25-1.251zm.999 6.907c.583-.722.904-1.629.904-2.556v-2.25h6.66v2.251c0 .927.321 1.834.904 2.556l1.558 1.924c-1.726-.209-3.607.598-5.613 2.379-3.111-1.618-5.614-1.428-7.037-1.062zm8.753 14.122c-.178.479-.64.803-1.15.803h-6.736c-.511 0-.973-.323-1.15-.803l-3.035-8.254c-.178-.486-.165-1.01-.008-1.491.724-.338 3.594-1.39 7.614.813.065.032.128.069.188.104l.126.072c1.54.896 2.899 1.203 4.039 1.203.958 0 1.761-.216 2.387-.482.348-.154.66-.41.875-.723-.021.17-.053.339-.113.503z"/><g fill="#aeffc7"><path d="m11.235 22.737-.932-2.539c-.081-.221-.323-.333-.546-.253-.221.081-.333.325-.253.546l.932 2.539c.063.172.227.278.399.278.049 0 .098-.008.146-.025.222-.081.334-.325.254-.546z"/><path d="m11.98 24.77c-.08-.219-.324-.335-.546-.251-.22.081-.332.325-.251.546l.099.268c.063.171.226.277.398.277.049 0 .099-.008.147-.026.22-.081.332-.325.251-.546z"/></g></g><g id="axe"/><g id="fried_chicken"/><g id="witch_hat"/><g id="fire"/><g id="lightning"/></svg>