<svg enable-background="new 0 0 512 512" viewBox="0 0 512 512" xmlns="http://www.w3.org/2000/svg"><g id="_x31_9_x2C__Spades_x2C__Poker_x2C__Spades_x2C__Gaming_x2C__Card_x2C__Signs_x2C__Game_x2C__Jack_of_Spades"><g><path d="m322.9 331.55 127.41-77.53c15.74-9.72 36.38-4.84 46.1 10.9 9.73 15.75 4.86 36.38-10.89 46.1l-222.47 137.45c-1.01.62-2.17.95-3.35.95-11.72 0-187.35 0-199.1 0l-9.19-78.42 9.19-91.79c24.85-14.38 56.25-14.49 81.55.91 9.23 5.62 19.92 8.38 30.73 8.38h132.15c13.71 0 25.29 10.79 25.57 24.49.15 7.29-2.83 13.9-7.7 18.56z" fill="#ffd9b3"/><path d="m333.63 121.44c18.04 21.61 16.92 53.8-3.37 74.09-10.74 10.74-24.82 16.11-38.89 16.11-12.58 0-25.16-4.29-35.36-12.87-21.61 18.18-53.91 17.1-74.25-3.24-10.74-10.74-16.11-24.81-16.11-38.89 0-12.52 4.25-25.03 12.74-35.2 1.05-1.27 2.18-2.5 3.37-3.69l74.25-74.25 74.25 74.25c1.19 1.19 2.32 2.42 3.37 3.69z" fill="#df6378"/><path d="m60.6 449.42v19.08h-50v-220h50v30.71z" fill="#4e5f7e"/><g><path d="m504.919 259.666c-12.603-20.406-39.457-26.755-59.807-14.188l-104.777 63.757c-2.16-17.243-17.294-30.735-35.304-30.735h-132.151c-9.272 0-18.101-2.392-25.531-6.917-23.34-14.216-51.54-16.885-76.748-7.947v-15.136c0-5.523-4.478-10-10-10h-50c-5.522 0-10 4.477-10 10v220c0 5.523 4.478 10 10 10h50c5.522 0 10-4.477 10-10v-9.08h189.101c3.042 0 6.018-.845 8.605-2.444l222.468-137.448c20.402-12.599 26.747-39.453 14.144-59.862zm-454.318 198.834h-30v-200h30zm429.664-155.987-221.594 136.908h-188.07v-154.171c21.171-10.075 46.109-8.911 66.345 3.414 10.565 6.435 22.991 9.836 35.935 9.836h132.151c8.421 0 15.404 6.589 15.566 14.688.168 8.427-6.582 15.312-14.997 15.312h-75c-5.522 0-10 4.477-10 10s4.478 10 10 10h75c8.999 0 17.174-3.384 23.36-8.931l126.604-77.04c11.024-6.807 25.53-3.377 32.338 7.646 6.808 11.025 3.383 25.532-7.638 32.338z"/><path d="m246.011 216.549v21.951h-30.002c-5.522 0-10 4.477-10 10s4.478 10 10 10h80.002c5.522 0 10-4.477 10-10s-4.478-10-10-10h-30v-22.015c41.938 17.752 88.396-11.989 90.3-57.083.685-16.203-4.644-31.961-14.972-44.333-3.339-4.039-1.389-1.644-78.257-78.64-3.906-3.905-10.236-3.905-14.143 0l-74.248 74.249c-12.573 12.565-19.041 29.283-19.041 45.962.001 47.472 48.831 77.788 90.361 59.909zm-59.912-88.738c2.191-2.649-.735.566 69.912-70.169l67.181 67.18c17.694 17.703 17.69 45.944-.002 63.636-16.395 16.395-42.578 17.767-60.779 2.631-3.641-3.037-9.055-3.141-12.837.029-17.689 14.881-44.37 13.712-60.741-2.659-16.826-16.826-17.331-43.163-2.734-60.648z"/></g></g></g><g id="Layer_1"/></svg>