<svg id="Layer_1" enable-background="new 0 0 511.989 511.989" viewBox="0 0 511.989 511.989" xmlns="http://www.w3.org/2000/svg"><g><g><path d="m17.326 495.885-1.252-1.252c-11.407-11.407-11.407-29.902 0-41.31l149.395-149.395 42.561 42.561-149.395 149.396c-11.407 11.407-29.902 11.407-41.309 0z" fill="#e7896e"/><path d="m435.364 287.41c-8.048-.391-15.869-2.751-23.329-6.32-21.189-10.205-38.586-30.085-46.97-40.791-3.41-4.38-3.616-10.261-.585-14.168 16.327-20.995 40.329-41.466 66.99-40.172 31.306 1.591 58.975 32.585 70.298 47.11 3.336 4.252 3.616 10.261.582 14.162-10.252 13.374-35.797 41.829-66.986 40.179z" fill="#efedff"/><path d="m371.829 363.739c-.43.44-.87.88-1.31 1.32-59.725 59.714-57.752 56.825-60.11 62.53-1.12 2.71-1.71 5.64-1.71 8.62 0 11.57-8.52 21.47-19.8 22.87-246.66-133.55-30.07-299.12-30.07-299.12 46.63 28.07 95.08 85.82 112.98 203.64.01.05.01.09.02.14z" fill="#efedff"/><path d="m288.899 459.079c-1.617.227-3.374.232-5 .08-6.746-.655-12.85 3.472-12.85 15.16 0 8.32-3.37 15.85-8.82 21.3-18.831 18.798-51.42 5.618-51.42-21.3 0-15.4-6.12-30.18-17.01-41.07l-47.09-47.09c-9.5-9.5-24.08-11.06-35.78-4.45-11.907 6.731-28.12-1.738-28.12-16.56 0-6.431 1.642-19.786-9.83-18.88-11.179.875-20.28-8.216-20.28-19.17 0-15.704 1.235-28.394-8.9-46.49-8.67-15.48-5.06-31 5.4-41.46 104.626-104.637 99.755-99.954 104.91-104.48 4.239-1.589 55.268-4.498 104.72 25.29-41.4 76.58-61.54 183.34 30.07 299.12z" fill="#d9d9f9"/><path d="m224.548 76.594c1.33 27.398 25.603 53.456 47.11 70.298 4.38 3.41 10.261 3.616 14.168.585 11.703-9.101 34.709-29.489 39.378-55.407 5.349-32.135-20.623-61.853-46.316-81.882-4.252-3.336-10.261-3.616-14.162-.582-13.372 10.255-41.828 35.799-40.178 66.988z" fill="#d9d9f9"/><path d="m408.749 303.139c-3.69 11.09-8.65 21.87-14.87 32.08-64.23-16.99-117.84-78.72-154.09-133.08-15.11-67.48 42.17-79.37 42.17-79.37l77.12 44.73z" fill="#ffd9a0"/><path d="m281.959 122.769c-15.97 22.68-31.29 49.43-42.17 79.37-32.22-48.34-50.71-90.84-50.71-90.84 15.21-7.47 31.37-12.36 47.83-14.66z" fill="#fdc072"/><path d="m393.879 335.219c-6.13 10.07-13.49 19.59-22.07 28.38-70.246-26.357-94.43-95.719-134.1-155.55 0 0-15.28-37.13 17.05-40.3 43.61 59.183 66.578 137.531 139.12 167.47z" fill="#ff899f"/><path d="m254.759 167.749c-6.44 12.69-12.25 26.16-17.05 40.3-20.83-31.45-45.51-59.04-83.28-73.5 10.69-9.45 22.35-17.19 34.64-23.25h.01c27.97 12.73 48.42 33 65.68 56.45z" fill="#ff5f7f"/><path d="m408.749 303.139c-66.569-34.782-88.775-114.107-133.69-170.25-9.21-28.87 23.92-32.61 23.92-32.61 87.603 22.946 138.804 115.634 109.77 202.86z" fill="#60daa8"/><path d="m298.979 100.279c-7.96 9.82-16.09 20.72-23.92 32.61-11.02-13.78-23.41-26.19-38.15-36.25 20.66-2.87 41.79-1.66 62.07 3.64z" fill="#00ce8e"/><path d="m338.599 173.274c-17.003-17.003-16.442-42.844 1.158-52.952l80.543-45.667c9.566-5.377 22.469 7.527 17.003 17.003l-45.667 80.542c-10.107 17.601-35.948 18.163-53.037 1.074z" fill="#fdc072"/><ellipse cx="131.966" cy="274.887" fill="#ffa1ac" rx="23.403" ry="29.387" transform="matrix(.707 -.707 .707 .707 -155.722 173.825)"/><ellipse cx="244.6" cy="387.522" fill="#ffa1ac" rx="23.403" ry="29.387" transform="matrix(.707 -.707 .707 .707 -202.378 286.464)"/><path d="m217.752 335.244c10.354-10.354 3.826-18.828-5.427-28.081s-17.727-15.781-28.081-5.427-11.246 26.248-1.994 35.501c9.253 9.253 25.148 8.361 35.502-1.993z" fill="#485c70"/><path d="m196.149 114.769-7.07-3.47c2.41 1.1 4.77 2.26 7.07 3.47z" fill="#60daa8"/></g><g><path d="m507.684 228.458c-25.147-32.255-60.808-59.98-99.372-46.36-2.018-4.239-4.224-8.403-6.6-12.462l42.088-74.23c9.256-16.05-10.936-36.415-27.2-27.275l-74.279 42.116c-4.074-2.382-8.245-4.582-12.499-6.598 13.376-38.726-13.898-74.094-46.298-99.356-6.975-5.482-16.817-5.735-23.355-.637-28.912 22.146-51.091 53.603-40.347 88.596-29.419 7.133-56.713 22.371-78.227 43.884l-41.661 41.665c-2.929 2.929-2.928 7.678 0 10.607 2.929 2.928 7.678 2.928 10.607 0 45.214-45.219 42.417-42.479 45.323-45.193 96.821 40.708 102.63 176.625 202.857 223.031-54.2 54.126-52.342 51.435-55.244 58.479-1.512 3.658-2.278 7.522-2.278 11.485 0 8.775-7.261 16.346-16.575 15.485-11.299-1.093-21.075 7.833-21.075 19.185v3.44c0 11.098-7.186 18.032-13.91 20.821-15.294 6.344-31.33-4.988-31.33-20.821 0-17.265-7-34.167-19.207-46.374l-47.09-47.09c-11.651-11.652-30.063-13.985-44.773-5.676-6.652 3.762-16.93-.677-16.93-10.03v-9.67c0-9.721-8.262-17.448-17.916-16.687-6.766.536-12.268-3.74-12.17-16.234.113-14.183.22-27.58-9.88-45.614-6.369-11.372-4.814-23.518 4.16-32.492l33.499-33.502c2.929-2.929 2.928-7.678 0-10.607-2.93-2.929-7.678-2.928-10.607 0l-33.499 33.502c-13.792 13.792-16.337 33.115-6.64 50.428 8.156 14.562 8.073 24.978 7.968 38.165-.18 22.549 13.932 32.436 28.346 31.307 4.629-.313-2.11 13.099 5.9 25.576l-68.706 68.696c-14.306 14.318-14.305 37.607.002 51.915 16.603 16.603 39.461 14.963 53.176 1.26l24.376-24.376c2.929-2.929 2.929-7.678 0-10.606-2.929-2.929-7.678-2.929-10.606 0l-24.374 24.374c-10.085 10.076-23.715 6.994-31.966-1.257-8.461-8.461-8.46-22.236 0-30.703l69.482-69.473c7.916 3.569 17.149 2.827 23.765-.911 9.008-5.088 19.772-3.792 26.788 3.223l5.527 5.527-45.434 45.434c-2.929 2.929-2.929 7.678 0 10.606 1.464 1.464 3.384 2.197 5.303 2.197s3.839-.732 5.303-2.197l45.434-45.434 30.957 30.957c9.414 9.414 14.813 22.451 14.813 35.767 0 26.054 26.377 45.337 52.076 34.677 14.288-5.926 23.164-19.213 23.164-34.677 0-3.255-.341-5.037 1.408-6.624.514-.467 1.629-1.223 3.244-1.069 18.311 1.716 32.998-12.977 32.998-30.417 0-2.392.498-4.188 1.298-6.137 1.453-3.541 3.105-4.5 58.326-59.71 21.724-21.725 36.787-48.62 43.9-78.221 34.919 10.721 66.731-11.828 88.541-40.301 5.134-6.589 4.882-16.432-.581-23.384zm-103.392 63.543c-67.82-41.445-86.15-135.262-147.512-189.355 24.9-.295 49.641 5.587 71.66 17.064-26.254 27.129 3.909 78.514 43.893 73.196 7.829-1.04 14.655-4.298 19.919-9.396 18.045 34.508 21.358 73.309 12.04 108.491zm-13.479 33.652c-87.83-41.21-98.58-162.762-184.294-213.675 9.212-3.412 18.764-5.931 28.515-7.486 69.494 49.494 85.004 156.019 164.548 202.14-2.475 6.547-5.408 12.897-8.769 19.021zm33.161-244.459c2.929-1.642 8.482 3.857 6.805 6.766l-45.646 80.506c-7.194 12.529-26.98 13.754-41.229-.495-14.519-14.52-12.63-34.128-.446-41.124zm-191.935-5.001c-1.473-27.837 25.561-51.674 37.302-60.668 1.019-.794 3.236-.757 4.938.58 43.629 34.017 47.76 62.344 41.646 81.716-25.805-9.458-53.819-12.475-81.269-8.443-1.525-4.508-2.41-8.922-2.617-13.185zm-63.398 56.349c6.502-4.844 13.379-9.149 20.55-12.881 89.642 43.656 98.141 172.586 193.719 218.835-3.92 5.695-8.252 11.135-12.97 16.295-97.055-40.313-103.231-174.922-201.299-222.249zm327.754 110.126c-8.956 11.691-32.83 38.708-60.666 37.25-4.227-.204-8.63-1.087-13.142-2.613 4.028-27.5 1.117-55.355-8.454-81.339 5.762-1.931 11.445-2.783 16.957-2.516 28.457 1.445 54.771 31.414 64.782 44.254 1.319 1.679 1.356 3.896.523 4.964z"/><path d="m158.378 244.816-8.485 8.485c-4.739 4.738-1.318 12.803 5.303 12.803 4.124 0 5.327-2.221 13.789-10.682 2.929-2.929 2.929-7.678 0-10.606-2.929-2.929-7.678-2.929-10.607 0z"/><path d="m200.008 351.081c16.829-.945 34.886-16.183 29.511-32.622-1.899-5.806-6.127-10.835-11.891-16.599s-10.793-9.992-16.599-11.892c-5.372-1.756-13.562-2.06-22.088 6.464-21.651 21.652-7.9 56.294 21.067 54.649zm-10.461-44.042c4.432-4.432 6.821-5.226 17.475 5.427 10.987 10.987 9.604 13.297 5.427 17.474-3.702 3.702-8.419 5.892-13.281 6.165-15.352.866-21.452-17.234-9.621-29.066z"/><path d="m274.672 361.11c2.929-2.929 2.929-7.678 0-10.606-2.93-2.929-7.678-2.929-10.607 0l-8.485 8.485c-4.739 4.738-1.318 12.803 5.303 12.803 4.186 0 5.656-2.549 13.789-10.682z"/></g></g><g/><g/><g/><g/><g/><g/><g/><g/><g/><g/><g/><g/><g/><g/><g/></svg>