<svg id="Filled_Expand" height="512" viewBox="0 0 64 64" width="512" xmlns="http://www.w3.org/2000/svg" data-name="Filled Expand"><rect fill="#5f6482" height="19" rx="3.5" transform="matrix(.866 -.5 .5 .866 -3.54 8.183)" width="7" x="10.001" y="1.197"/><path d="m6 26h52a0 0 0 0 1 0 0v30a6 6 0 0 1 -6 6h-40a6 6 0 0 1 -6-6v-30a0 0 0 0 1 0 0z" fill="#f55a8c"/><path d="m6 52h52a0 0 0 0 1 0 0v4a6 6 0 0 1 -6 6h-40a6 6 0 0 1 -6-6v-4a0 0 0 0 1 0 0z" fill="#5f6482"/><path d="m62 33.25h-2.25v-5.5h1.25a1.75 1.75 0 0 0 0-3.5h-37.656l-2.859-4.95a5.257 5.257 0 0 0 .559-6.032l-6-10.392a5.25 5.25 0 1 0 -9.093 5.25l6 10.392a5.255 5.255 0 0 0 5.5 2.532l1.849 3.2h-16.3a1.75 1.75 0 0 0 0 3.5h1.25v5.5h-2.25a1.75 1.75 0 0 0 0 3.5h2.25v19.25a7.759 7.759 0 0 0 7.75 7.75h40a7.759 7.759 0 0 0 7.75-7.75v-19.25h2.25a1.75 1.75 0 0 0 0-3.5zm-44.628-15.843a1.752 1.752 0 0 1 -2.39-.641l-6-10.392a1.75 1.75 0 1 1 3.031-1.75l6 10.392a1.753 1.753 0 0 1 -.641 2.391zm38.878 38.593a4.255 4.255 0 0 1 -4.25 4.25h-40a4.255 4.255 0 0 1 -4.25-4.25v-2.25h48.5zm0-5.75h-48.5v-22.5h48.5z"/><path d="m46.48 10.132a8.842 8.842 0 0 0 0 8.736 1.75 1.75 0 0 0 3.04-1.736 5.325 5.325 0 0 1 0-5.264 8.842 8.842 0 0 0 0-8.736 1.75 1.75 0 0 0 -3.04 1.736 5.325 5.325 0 0 1 0 5.264z"/><path d="m38.48 10.132a8.842 8.842 0 0 0 0 8.736 1.75 1.75 0 0 0 3.04-1.736 5.325 5.325 0 0 1 0-5.264 8.842 8.842 0 0 0 0-8.736 1.75 1.75 0 0 0 -3.04 1.736 5.325 5.325 0 0 1 0 5.264z"/><path d="m30.48 10.132a8.842 8.842 0 0 0 0 8.736 1.75 1.75 0 0 0 3.04-1.736 5.325 5.325 0 0 1 0-5.264 8.842 8.842 0 0 0 0-8.736 1.75 1.75 0 1 0 -3.04 1.736 5.325 5.325 0 0 1 0 5.264z"/></svg>