<svg id="Capa_1" enable-background="new 0 0 512.002 512.002" height="512" viewBox="0 0 512.002 512.002" width="512" xmlns="http://www.w3.org/2000/svg"><g><g><path d="m504.408 276.004c-1.436-38.069-14.071-76.681-38.743-106.079-21.065-25.1-47.039-36.078-78.141-43.714-15.479-3.8-31.691-8.341-44.413-18.396-14.015-11.076-22.604-26.822-35.321-39.146-17.559-17.015-37.074-32.352-58.769-43.751-36.942-19.411-80.666-25.465-117.917-3.429-66.266 39.2-70.082 141.001-22.896 235.294 17.665 35.3 41.587 67.911 72.737 92.454 47.874 37.72 110.729 51.52 170.564 53.064 29.384.758 59.36-3.266 85.919-15.865 43.711-20.737 68.797-62.252 66.98-110.432z" fill="#e4996d"/></g><g><path d="m464.211 349.732c-22.752 10.793-48.431 14.241-73.603 13.591-51.258-1.323-105.102-13.145-146.113-45.457-26.684-21.025-47.177-48.96-62.31-79.2-40.421-80.776-37.153-167.983 19.614-201.564 15.035-8.894 31.3-12.443 47.609-11.974-.13-.068-.258-.141-.388-.209-36.942-19.411-80.666-25.465-117.917-3.428-66.265 39.199-70.081 140.999-22.895 235.292 17.665 35.3 41.587 67.911 72.737 92.454 47.874 37.72 110.729 51.52 170.564 53.064 29.384.758 59.36-3.266 85.919-15.865 27.059-12.837 46.97-33.641 57.79-59.054-8.521 9.028-18.928 16.619-31.007 22.35z" fill="#df8a57"/></g><g><path d="m339.763 381.986c10.405 82.538-56.837 129.311-166.132 121.66-91.555-6.408-166.131-54.469-166.131-121.66s74.969-110.58 166.132-121.661c98.429-11.964 155.364 36.249 166.131 121.661z" fill="#efb899"/></g><g><path d="m218.015 473.054c-82.339-5.764-149.409-48.986-149.409-109.414 0-53.409 52.673-90.09 121.515-104.772-5.362.295-10.855.773-16.49 1.458-91.162 11.08-166.131 54.468-166.131 121.66 0 67.191 74.576 115.252 166.132 121.661 70.942 4.966 124.154-13.005 149.927-48.796-25.915 14.692-62.017 21.25-105.544 18.203z" fill="#eaaa83"/></g><g><g><path d="m127.114 394.479c0 12.105-12.316 21.92-27.511 21.92-15.193 0-27.508-9.815-27.508-21.92s12.315-21.919 27.508-21.919c15.195 0 27.511 9.813 27.511 21.919" fill="#fff"/></g><g><path d="m221.207 394.479c0 12.105 12.316 21.92 27.509 21.92 15.195 0 27.509-9.815 27.509-21.92s-12.314-21.919-27.509-21.919c-15.193 0-27.509 9.813-27.509 21.919" fill="#fff"/></g><g><path d="m115.637 379.831c-7.61 0-14.846-3.297-19.852-9.046-2.72-3.124-2.393-7.861.731-10.582 3.124-2.719 7.861-2.393 10.582.731 2.156 2.476 5.269 3.896 8.539 3.896s6.381-1.42 8.536-3.896c2.719-3.125 7.458-3.452 10.581-.732 3.125 2.72 3.452 7.457.732 10.581-5.004 5.751-12.239 9.048-19.849 9.048z"/></g><g><path d="m232.684 379.831c-7.611 0-14.847-3.298-19.851-9.047-2.719-3.125-2.391-7.862.734-10.582 3.124-2.718 7.861-2.391 10.582.734 2.154 2.476 5.265 3.895 8.536 3.895 3.27 0 6.381-1.42 8.538-3.896 2.719-3.125 7.457-3.452 10.582-.731 3.124 2.72 3.451 7.458.731 10.582-5.008 5.748-12.244 9.045-19.852 9.045z"/></g><g><path d="m185.135 385.247c0-6.468-4.914-11.711-10.974-11.711-6.061 0-10.975 5.243-10.975 11.711 0 6.467 4.914 11.71 10.975 11.71 6.06 0 10.974-5.243 10.974-11.71"/></g></g><g><g><path d="m197.623 197.718c0 13.146-13.376 23.806-29.875 23.806-16.501 0-29.875-10.66-29.875-23.806 0-13.147 13.375-23.806 29.875-23.806 16.499.001 29.875 10.659 29.875 23.806" fill="#fff"/></g><g><path d="m299.808 197.718c0 13.146 13.376 23.806 29.874 23.806 16.502 0 29.876-10.66 29.876-23.806 0-13.147-13.375-23.806-29.876-23.806-16.498.001-29.874 10.659-29.874 23.806" fill="#fff"/></g><g><path d="m185.161 182.301c-4.142 0-7.5-3.358-7.5-7.5v-12.22c0-4.142 3.358-7.5 7.5-7.5s7.5 3.358 7.5 7.5v12.22c0 4.142-3.358 7.5-7.5 7.5z"/></g><g><path d="m312.273 182.301c-4.143 0-7.5-3.358-7.5-7.5v-12.22c0-4.142 3.357-7.5 7.5-7.5s7.5 3.358 7.5 7.5v12.22c0 4.142-3.357 7.5-7.5 7.5z"/></g><g><path d="m248.716 189.575c-8.591 0-16.76-3.722-22.411-10.212-2.72-3.124-2.394-7.861.73-10.581 3.123-2.72 7.86-2.394 10.581.73 2.802 3.217 6.848 5.062 11.1 5.062s8.298-1.845 11.1-5.062c2.72-3.125 7.458-3.452 10.582-.73 3.123 2.72 3.45 7.458.73 10.581-5.652 6.49-13.82 10.212-22.412 10.212z"/></g></g><g><path d="m511.902 275.722c-1.589-42.111-15.969-81.396-40.493-110.618-24.172-28.802-53.743-39.215-82.098-46.177-14.714-3.612-30.042-7.9-41.551-16.996-7.328-5.792-13.131-13.1-19.274-20.838-2.996-3.773-6.094-7.675-9.408-11.424-2.743-3.104-7.483-3.395-10.587-.651s-3.395 7.483-.651 10.586c3.052 3.452 5.893 7.029 8.898 10.815 6.405 8.067 13.028 16.409 21.722 23.28 13.869 10.961 30.959 15.789 47.275 19.795 25.882 6.354 52.782 15.75 74.184 41.252 22.393 26.682 35.53 62.743 36.993 101.541 1.709 45.293-21.73 83.937-62.699 103.372-22.915 10.871-50.68 15.966-82.511 15.145-1.145-.03-2.297-.067-3.448-.106-.121-4.466-.465-9.017-1.049-13.651-1.87-14.827-5.125-28.73-9.675-41.323-1.407-3.896-5.707-5.911-9.603-4.505-3.896 1.407-5.912 5.707-4.505 9.602 4.174 11.553 7.168 24.373 8.899 38.103 3.908 30.999-3.484 56.626-21.972 76.169-26.664 28.187-75.034 41.349-136.195 37.072-92.219-6.455-159.154-54.474-159.154-114.179 0-36.743 24.807-61.438 45.617-75.683 28.274-19.355 68.731-33.04 113.92-38.532 62.355-7.582 109.202 9.656 135.471 49.845 2.267 3.467 6.914 4.439 10.382 2.174 3.467-2.266 4.44-6.914 2.175-10.381-29.609-45.297-81.422-64.846-149.837-56.528-18.612 2.262-36.246 5.771-52.654 10.427-1.75-3.22-3.486-6.538-5.159-9.88-47.799-95.52-39.385-190.349 20.007-225.484 31.012-18.345 71.327-17.028 110.61 3.613 14.036 7.375 28.135 17.045 41.905 28.74 3.159 2.683 7.892 2.295 10.572-.861 2.681-3.157 2.295-7.89-.861-10.572-14.61-12.407-29.629-22.698-44.639-30.585-43.991-23.115-89.634-24.298-125.225-3.245-33.49 19.812-53.964 56.338-57.65 102.85-3.466 43.744 7.851 94.265 31.866 142.255 1.301 2.599 2.643 5.171 3.996 7.713-20.141 6.886-38.112 15.639-53.353 26.073-34.112 23.352-52.143 53.803-52.143 88.061 0 34.275 18.436 66.15 51.911 89.753 31.381 22.126 74.423 36.115 121.198 39.389 7.854.549 15.51.822 22.974.822 54.988-.002 98.922-14.806 125.166-42.549 15.36-16.238 24.319-36.548 26.522-59.711 1.184.04 2.368.078 3.545.109 2.339.061 4.657.09 6.957.09 31.339 0 59.021-5.601 82.371-16.677 46.561-22.089 73.2-66.011 71.258-117.49z"/><circle cx="143.793" cy="311.109" r="7.5"/><circle cx="253.745" cy="446.477" r="7.5"/><circle cx="221.212" cy="96.365" r="7.5"/><circle cx="439.105" cy="245.591" r="7.5"/><circle cx="382.049" cy="290.17" r="7.5"/></g></g></svg>