<svg height="512" viewBox="0 0 128 128" width="512" xmlns="http://www.w3.org/2000/svg"><g><g><path d="m49.75 38.707h28.5v9.5h-28.5z" fill="#ffccbe"/><path d="m74.875 58.382v-10.175h-21.75v10.175a22.911 22.911 0 1 0 21.75 0z" fill="#fff4f4"/><path d="m70.574 26.537h-13.148a3.971 3.971 0 0 0 -3.918 4.615l1.242 7.555h18.5l1.242-7.555a3.971 3.971 0 0 0 -3.918-4.615z" fill="#ffd322"/><path d="m76 67.131c-3.873 3.3-10.151 4.858-18.165 1.036a15 15 0 0 0 -5.448-1.437 16.585 16.585 0 1 0 23.613.4z" fill="#b373f0"/><g fill="#ff7ceb"><circle cx="56.281" cy="78.625" r="1.531"/><circle cx="64" cy="86.57" r="1.531"/><circle cx="72.321" cy="77.751" r="1.531"/></g></g><g fill="#002e49"><path d="m76.625 57.364v-2.864a1.75 1.75 0 0 0 -3.5 0v3.882a1.752 1.752 0 0 0 .918 1.54 21.162 21.162 0 1 1 -31.179 19.678 1.75 1.75 0 1 0 -3.5.17 24.662 24.662 0 1 0 37.261-22.406z"/><path d="m41.278 75.1a1.722 1.722 0 0 0 .4.045 1.75 1.75 0 0 0 1.7-1.357q.122-.528.269-1.045a1.75 1.75 0 1 0 -3.366-.959c-.115.4-.218.807-.313 1.218a1.749 1.749 0 0 0 1.31 2.098z"/><path d="m43.51 68.145a1.75 1.75 0 0 0 2.4-.584 21.269 21.269 0 0 1 8.043-7.639 1.752 1.752 0 0 0 .918-1.54v-8.424h23.379a1.75 1.75 0 0 0 1.75-1.75v-9.5a1.749 1.749 0 0 0 -1.75-1.75h-2.939l.907-5.522a5.719 5.719 0 0 0 -5.645-6.648h-13.146a5.719 5.719 0 0 0 -5.645 6.648l.28 1.706a1.75 1.75 0 0 0 3.454-.567l-.281-1.707a2.191 2.191 0 0 1 .5-1.8 2.218 2.218 0 0 1 1.694-.783h13.144a2.218 2.218 0 0 1 1.694.783 2.191 2.191 0 0 1 .5 1.8l-1 6.09h-22.017a1.749 1.749 0 0 0 -1.75 1.75v9.5a1.75 1.75 0 0 0 1.75 1.75h1.625v7.407a24.77 24.77 0 0 0 -8.449 8.374 1.751 1.751 0 0 0 .584 2.406zm7.99-27.687h25v6h-25z"/><path d="m77.331 66a1.75 1.75 0 0 0 -2.467-.2c-2.406 2.045-7.714 4.872-16.278.788a16.8 16.8 0 0 0 -6.078-1.6 1.756 1.756 0 0 0 -1.35.5 18.328 18.328 0 1 0 29.812 6.143 1.75 1.75 0 0 0 -3.239 1.327 14.673 14.673 0 0 1 1.1 5.594 14.829 14.829 0 0 1 -29.658 0 14.693 14.693 0 0 1 3.884-10 13.292 13.292 0 0 1 4.025 1.19c7.553 3.6 14.863 3.135 20.052-1.282a1.751 1.751 0 0 0 .197-2.46z"/><circle cx="56.281" cy="78.625" r="1.531"/><circle cx="64" cy="86.57" r="1.531"/><circle cx="72.321" cy="77.751" r="1.531"/></g></g></svg>