<svg id="Layer_1" viewBox="0 0 512 512" xmlns="http://www.w3.org/2000/svg" data-name="Layer 1"><path d="m302.68 153.04h43.52c3.95 0 7.18 3.23 7.18 7.18v9.92h-7.9v23.08h-42.8c-3.95 0-7.17-3.23-7.17-7.18v-25.83c0-3.95 3.23-7.18 7.17-7.18z" fill="#d1d4dd" fill-rule="evenodd"/><path d="m105.94 210.52h71.17c0 18.69 2.61 74.77-24.94 74.77h-46.23z" fill="#445a64" fill-rule="evenodd"/><path d="m55.06 223.05h38.5v113.08h-38.5z" fill="#f9bf2c"/><g fill-rule="evenodd"><path d="m93.56 223.05h63.26c-26.83 26.38-45.34 42.3-43.9 113.08h-19.36z" fill="#f9ab00"/><path d="m316.88 169.44v27.73c0 7.34-6.01 13.35-13.35 13.35h-44.74s0-41.08 0-41.08z" fill="#495563"/><path d="m260.26 169.44v44.41c0 12.44-10.18 22.62-22.62 22.62h-186.24c-12.44 0-22.62-10.18-22.62-22.62v-44.41h231.47z" fill="#f9bf2c"/><path d="m260.26 169.44v44.41c0 12.44-10.18 22.62-22.62 22.62h-20.52v-67.02h43.13z" fill="#d9dce5"/><path d="m413.22 170.14c.01.34.02.68.02 1.03v3.93c0 17.38-14.22 31.59-31.59 31.59h-24.18c-6.59 0-11.99-5.39-11.99-11.99v-24.57h67.74z" fill="#afbdc3"/><path d="m21.21 335.07h118.1c2.87 0 5.21 2.34 5.21 5.21v34.55c0 15.05-12.32 27.37-27.37 27.37h-73.78c-15.05 0-27.37-12.32-27.37-27.37v-34.55c0-2.87 2.34-5.21 5.21-5.21z" fill="#445a64"/><path d="m93.56 335.07h45.75c2.86 0 5.21 2.34 5.21 5.21v34.55c0 15.05-12.31 27.37-27.37 27.37h-23.59v-67.12z" fill="#546e7a"/></g><path d="m176.67 109.81h40.45v126.65h-40.45z" fill="#546e7a"/><path d="m55.06 148.38c-4.35 0-7.87-3.52-7.87-7.87s3.52-7.87 7.87-7.87h74.89c4.35 0 7.87 3.52 7.87 7.87s-3.52 7.87-7.87 7.87z" fill-rule="evenodd"/><path d="m316.88 153.04h28.6v19.76h-28.6z" fill="#c5c8cd"/><path d="m258.79 135.75h44.74c7.34 0 13.35 6.01 13.35 13.35v23.7h-58.09z" fill="#444e5a" fill-rule="evenodd"/><path d="m51.4 109.81h125.27v62.99h-147.89v-40.38c0-12.44 10.18-22.62 22.62-22.62z" fill="#f9ab00" fill-rule="evenodd"/><path d="m217.12 109.81h20.52c12.44 0 22.62 10.18 22.62 22.62v40.38h-43.13v-62.99z" fill="#d1d4dd" fill-rule="evenodd"/><path d="m357.47 139.58h24.18c17.38 0 31.59 14.22 31.59 31.59v1.63h-67.76v-21.24c0-6.59 5.39-11.99 11.99-11.99z" fill="#8fa3ad" fill-rule="evenodd"/><path d="m176.67 109.81h40.45v62.99h-40.45z" fill="#445a64"/><path d="m496.4 166.22h-68.59c-2.91-19.29-19.59-34.12-39.67-34.12h-24.58c-8.86 0-16.38 5.74-19.09 13.69h-14.55c-1.88-9.99-10.66-17.58-21.19-17.58h-36.34c-2.24-14.91-15.13-26.37-30.65-26.37h-20.84s-.01 0-.02 0-.01 0-.02 0h-41.09s-.01 0-.02 0-.01 0-.02 0h-127.34c-17.09 0-30.99 13.9-30.99 30.99v82.78c0 15.64 11.64 28.6 26.71 30.69v84.55h-26.41c-7.33 0-13.3 5.96-13.3 13.3v35.12c0 19.75 16.07 35.82 35.82 35.82h75.02c19.75 0 35.82-16.07 35.82-35.82v-35.12c0-7.33-5.96-13.3-13.3-13.3h-18.89c.06-13.73.95-25.07 2.54-34.61h29.43c12.07 0 21.31-6.11 26.74-17.66 3.68-7.83 5.71-18.33 6.16-31.98h53.99c15.52 0 28.41-11.47 30.65-26.37h36.34c10.53 0 19.31-7.59 21.19-17.58h14.55c2.71 7.95 10.24 13.69 19.09 13.69h24.58c20.08 0 36.77-14.83 39.67-34.12h68.59c4.42 0 8-3.58 8-8s-3.58-8-8-8zm-166.1-4.43h13.07v24.85h-13.07zm-117.42-43.96v112.76h-25.13v-112.75h25.13zm-175.48 97.78v-82.78c0-8.27 6.73-14.99 14.99-14.99h119.36v112.76h-119.36c-8.27 0-14.99-6.73-14.99-14.99zm101.67 163.66c0 10.93-8.89 19.82-19.82 19.82h-75.03c-10.93 0-19.82-8.89-19.82-19.82v-32.42h114.66v32.42zm-74.95-48.42v-16.39h15.39c4.42 0 8-3.58 8-8s-3.58-8-8-8h-15.39v-21.12h23.03c4.42 0 8-3.58 8-8s-3.58-8-8-8h-23.03v-14.74h64.6c-7.83 10.7-13.75 22.83-17.44 39-.21.59-.35 1.21-.42 1.86-2.55 11.95-3.92 26.08-3.99 43.39h-42.76zm90.73-50.61h-25.67c4.78-15.11 11.93-24.65 20.23-33.64h22.34c-1.22 33.64-12.5 33.64-16.9 33.64zm101.89-64.64c0 8.27-6.73 14.99-14.99 14.99h-12.86v-112.75h12.86c8.27 0 14.99 6.73 14.99 14.99v82.78zm57.57-16.96c0 3.07-2.5 5.57-5.57 5.57h-36v-60.02h36c3.02 0 5.57 2.55 5.57 5.57v48.87zm97.96-22.44c0 13.3-10.82 24.12-24.12 24.12h-24.58c-2.27 0-4.18-1.92-4.18-4.19v-43.87c0-2.27 1.92-4.19 4.18-4.19h24.58c13.3 0 24.12 10.82 24.12 24.12v4zm-364.16-35.15c0-4.42 3.58-8 8-8h76.14c4.42 0 8 3.58 8 8s-3.58 8-8 8h-76.14c-4.42 0-8-3.58-8-8zm8 41.16c-4.42 0-8-3.58-8-8s3.58-8 8-8h76.14c4.42 0 8 3.58 8 8s-3.58 8-8 8z"/></svg>