<svg id="Capa_1" enable-background="new 0 0 512 512" height="512" viewBox="0 0 512 512" width="512" xmlns="http://www.w3.org/2000/svg"><g><g><path d="m327.469 56.348c-32.431 0-58.722 26.291-58.722 58.722v58.722h58.722c32.431 0 58.722-26.291 58.722-58.722.001-32.431-26.29-58.722-58.722-58.722zm22.911 58.722c0 12.653-10.257 22.911-22.91 22.911h-21.27c-.907 0-1.641-.735-1.641-1.641v-21.27c0-12.653 10.257-22.91 22.911-22.91s22.91 10.257 22.91 22.91z" fill="#ef8bbd"/><path d="m210.025 56.348c-32.431 0-58.722 26.291-58.722 58.722 0 32.431 26.291 58.722 58.722 58.722h58.722v-58.722c0-32.431-26.291-58.722-58.722-58.722zm22.911 79.992c0 .906-.735 1.641-1.641 1.641h-21.269c-12.653 0-22.911-10.258-22.911-22.911 0-12.653 10.257-22.91 22.911-22.91 12.653 0 22.911 10.257 22.911 22.91v21.27z" fill="#ef8bbd"/><path d="m386.222 501.946h-234.949c-23.961 0-43.386-19.424-43.386-43.386v-234.949c0-23.961 19.424-43.386 43.386-43.386h234.949c23.961 0 43.386 19.425 43.386 43.386v234.949c0 23.962-19.425 43.386-43.386 43.386z" fill="#8bb6ef"/><path d="m386.222 180.225h-53.137c19.387 0 35.103 15.716 35.103 35.103v190.095c0 19.387-15.716 35.103-35.103 35.103h-190.095c-19.387 0-35.103-15.716-35.103-35.103v53.137c0 23.961 19.424 43.386 43.385 43.386h234.95c23.961 0 43.385-19.424 43.385-43.386v-234.949c0-23.961-19.424-43.386-43.385-43.386z" fill="#8388ef"/><path d="m428.714 268.465h-319.933c-16.322 0-29.554-13.232-29.554-29.553v-35.565c0-16.322 13.232-29.554 29.554-29.554h319.933c16.322 0 29.554 13.232 29.554 29.554v35.565c-.001 16.321-13.232 29.553-29.554 29.553z" fill="#ffe266"/><path d="m233.123 173.792h71.248v322.665h-71.248z" fill="#ef8bbd"/><path d="m233.123 440.526h71.248v55.931h-71.248z" fill="#e068bd"/></g><g><g fill="#440a29"><path d="m306.2 144.013h21.269c15.959 0 28.943-12.984 28.943-28.943s-12.984-28.943-28.943-28.943-28.943 12.984-28.943 28.943v21.269c0 4.232 3.443 7.674 7.674 7.674zm4.391-28.943c0-9.307 7.571-16.878 16.878-16.878h.001c9.307 0 16.878 7.571 16.878 16.878s-7.571 16.878-16.878 16.878h-16.879z"/><path d="m210.025 86.127c-15.959 0-28.943 12.984-28.943 28.943s12.984 28.943 28.943 28.943h21.269c4.231 0 7.673-3.442 7.673-7.674v-21.269c.001-15.959-12.983-28.943-28.942-28.943zm16.878 45.822h-16.878c-9.307 0-16.878-7.571-16.878-16.878s7.571-16.878 16.878-16.878 16.878 7.571 16.878 16.878z"/><path d="m428.714 163.739h-52.697c12.489-12.458 20.229-29.676 20.229-48.668 0-37.923-30.853-68.776-68.776-68.776-24.832 0-46.63 13.231-58.722 33.011-12.092-19.78-33.89-33.011-58.722-33.011-37.923 0-68.776 30.853-68.776 68.776 0 18.993 7.74 36.21 20.229 48.668h-52.697c-21.84 0-39.607 17.768-39.607 39.607v35.565c0 18.042 12.13 33.294 28.66 38.057v191.793c0 23.842 19.397 43.239 43.239 43.239h255.35c23.842 0 43.239-19.397 43.239-43.239v-191.793c16.53-4.763 28.66-20.015 28.66-38.057v-35.565c-.002-21.84-17.769-39.607-39.609-39.607zm-101.245-97.337c26.836 0 48.668 21.832 48.668 48.668s-21.832 48.668-48.668 48.668h-48.668v-48.668c0-26.836 21.833-48.668 48.668-48.668zm-88.314 424.023v-211.906h59.183v211.906zm0-232.014v-74.565h29.592 29.591v74.565zm-77.798-143.341c0-26.836 21.832-48.668 48.668-48.668s48.668 21.832 48.668 48.668v48.668h-48.668c-26.836.001-48.668-21.832-48.668-48.668zm-72.076 123.841v-35.565c0-10.752 8.748-19.5 19.5-19.5h101.244 17.066v74.565h-118.31c-10.752 0-19.5-8.748-19.5-19.5zm28.66 229.85v-190.242h109.15v213.373h-86.019c-12.754 0-23.131-10.376-23.131-23.131zm278.481 23.131h-86.019v-213.373h109.15v190.242c0 12.755-10.376 23.131-23.131 23.131zm51.792-252.981c0 10.752-8.748 19.5-19.5 19.5h-118.311v-74.565h17.066 101.244c10.752 0 19.5 8.748 19.5 19.5v35.565z"/></g><path d="m173.176 224.944c-3.66 0-7.249-.053-10.753-.159-5.55-.168-9.913-4.804-9.745-10.354.168-5.551 4.811-9.904 10.354-9.745 8.393.254 16.956.192 26.176-.189 5.562-.234 10.232 4.08 10.462 9.628s-4.081 10.232-9.628 10.462c-5.74.238-11.381.357-16.866.357z" fill="#fff"/><path d="m124.91 224.595h-3.954c-5.553 0-10.054-4.501-10.054-10.054s4.501-10.054 10.054-10.054h3.954c5.553 0 10.054 4.501 10.054 10.054s-4.502 10.054-10.054 10.054z" fill="#fff"/></g><g><path d="m50.84 76.737 8.259 23.222c.354.994 1.054 1.782 1.937 2.18l20.632 9.295c2.915 1.313 2.915 5.958 0 7.271l-20.632 9.296c-.883.398-1.583 1.186-1.937 2.18l-8.259 23.222c-1.167 3.281-5.293 3.281-6.46 0l-8.259-23.222c-.354-.994-1.054-1.782-1.937-2.18l-20.632-9.296c-2.915-1.313-2.915-5.957 0-7.271l20.632-9.295c.883-.398 1.583-1.186 1.937-2.18l8.259-23.222c1.167-3.281 5.293-3.281 6.46 0z" fill="#b2e7f1"/><path d="m476.145 76.463 6.126 17.226c.262.738.782 1.322 1.437 1.617l15.305 6.895c2.162.974 2.162 4.419 0 5.393l-15.305 6.895c-.655.295-1.174.88-1.437 1.617l-6.126 17.226c-.866 2.434-3.926 2.434-4.792 0l-6.126-17.226c-.262-.738-.781-1.322-1.437-1.617l-15.305-6.895c-2.162-.974-2.162-4.419 0-5.393l15.305-6.895c.655-.295 1.174-.88 1.437-1.617l6.126-17.226c.865-2.434 3.926-2.434 4.792 0z" fill="#b2e7f1"/><g fill="#8bb6ef"><circle cx="420.743" cy="18.033" r="18.033"/><path d="m99.412 58.744c0 4.296-3.483 7.779-7.779 7.779s-7.779-3.483-7.779-7.779 3.483-7.779 7.779-7.779 7.779 3.483 7.779 7.779z"/></g></g></g></svg>