<svg id="Layer_1" viewBox="0 0 512 512" xmlns="http://www.w3.org/2000/svg" data-name="Layer 1"><path d="m68.36 108.15h375.28v265.07a26 26 0 0 1 -26 26h-323.32a26 26 0 0 1 -26-26z" fill="#f4f4f4" fill-rule="evenodd"/><rect fill="#484e53" height="43.81" rx="18.91" width="480" x="16" y="86.24"/><circle cx="256" cy="451.92" fill="#ffe177" r="22.31"/><g fill-rule="evenodd"><path d="m176.21 196.57v-32.64a80.32 80.32 0 1 0 44 147.5l-16.37-28.35a47.68 47.68 0 1 1 -27.67-86.51z" fill="#98db7c"/><path d="m223.89 244.25a47.61 47.61 0 0 1 -20 38.83l16.37 28.35a80.25 80.25 0 0 0 36.27-67.18z" fill="#fe646f"/><path d="m223.89 244.25h32.63a80.32 80.32 0 0 0 -80.31-80.32v32.64a47.68 47.68 0 0 1 47.68 47.68z" fill="#ffe177"/><path d="m168.2 168.38v16.78a55.68 55.68 0 1 0 32.8 104.93l8.32 14.41a72.26 72.26 0 0 1 -105.43-64.25 72.42 72.42 0 0 1 64.31-71.87zm79.87 63.87a72.45 72.45 0 0 0 -63.86-63.87v16.78a55.76 55.76 0 0 1 47.09 47.09zm-71.87-31.69a39.69 39.69 0 1 0 39.69 39.69 39.73 39.73 0 0 0 -39.69-39.69zm46.47 95.05-8.49-14.7a55.51 55.51 0 0 0 17.12-32.67h16.77a72.19 72.19 0 0 1 -25.4 47.37zm-46.47 33a88.32 88.32 0 1 0 -88.31-88.32 88.42 88.42 0 0 0 88.31 88.32zm99-113.76a8 8 0 0 1 8-8h20.35a8 8 0 0 1 0 16h-20.39a8 8 0 0 1 -8-8zm0 35.43a8 8 0 0 1 8-8h48.67a8 8 0 0 1 0 16h-48.71a8 8 0 0 1 -8-8zm0 35.45a8 8 0 0 1 8-8h138a8 8 0 1 1 0 16h-138a8 8 0 0 1 -8-8zm90.8-43.49h29.17a8 8 0 0 1 0 16h-29.17a8 8 0 0 1 0-16zm-45.5-27.43a8 8 0 0 1 8-8h40.5a8 8 0 0 1 0 16h-40.5a8 8 0 0 1 -8-8zm167.5-107.68a10.93 10.93 0 0 1 -10.91 10.93h-442.18a10.93 10.93 0 0 1 -10.91-10.93v-6a10.92 10.92 0 0 1 10.91-10.88h442.18a10.92 10.92 0 0 1 10.91 10.91v6zm-52.36 262.1v-235.18h-359.28v235.18a18 18 0 0 0 18 18h323.32a18 18 0 0 0 18-18zm-254.7-304.14a15.33 15.33 0 0 1 15.31-15.31h119.5a15.32 15.32 0 0 1 15.31 15.31v9.15h-150.12zm89.37 382.82a14.31 14.31 0 1 1 -14.31-14.3 14.33 14.33 0 0 1 14.31 14.3zm206.78-373.67h-130v-9.15a31.35 31.35 0 0 0 -31.31-31.32h-119.53a31.35 31.35 0 0 0 -31.31 31.32v9.15h-130a26.94 26.94 0 0 0 -26.94 26.92v6a26.94 26.94 0 0 0 26.91 26.92h25.45v235.15a34 34 0 0 0 34 33.95h153.64v15.52a30.31 30.31 0 1 0 16 0v-15.52h153.68a34 34 0 0 0 34-33.95v-235.18h25.44a26.94 26.94 0 0 0 26.88-26.92v-6a26.94 26.94 0 0 0 -26.91-26.89z" fill="#242222"/></g></svg>