<svg fill="none" height="24" viewBox="0 0 24 24" width="24" xmlns="http://www.w3.org/2000/svg"><path d="m12.4952 7.03809c-.1428-.13333-.3047-.25714-.4762-.37142-.1619-.09524-.3619-.09524-.5238.00952s-.3238.22857-.4762.3619c-.9142.81905-1.39995 1.99048-1.39995 3.39051 0 .9524.39995 1.9238 1.20955 2.9047.2666.3334.5809.6572.9238.9715.0857.0857.2.1238.3238.1238h.0286c.1333-.0096.2476-.0667.3333-.1619.9714-1.1524 1.4667-2.4477 1.4667-3.8381 0-1.39051-.4858-2.57146-1.4096-3.39051zm-.4666 6.20951c-.1715-.1714-.3238-.3428-.4667-.5143-.6571-.8095-.9905-1.5809-.9905-2.3047 0-1.13336.3619-2.03812 1.0762-2.67622.0381-.02857.0762-.06667.1143-.09524.0381.02857.0667.06667.1048.09524.7238.6381 1.0857 1.54286 1.0857 2.67622 0 1.0095-.3143 1.9524-.9238 2.819zm5.2285-6.20951c-.8857-.79047-2.1428-1.20952-3.4095-1.1238-.1809.01904-.3428.13333-.419.29523-.0667.17143-.0286.37143.0952.50477.8667.9619 1.3333 2.24761 1.3333 3.71431 0 1.6095-.5523 3.0857-1.6476 4.4-.0857.1047-.1238.2381-.1047.3714.019.1333.0857.2476.2.3238.1809.1238.3619.2476.5523.3619.3619.2286.7429.4381 1.1239.6476.0666.0286.1428.0477.219.0477.0857 0 .1714-.0191.2476-.0667.2476-.1524.4857-.3143.7143-.5048 1.6381-1.3047 2.5048-3.2381 2.5048-5.5809 0-1.40003-.4857-2.57146-1.4096-3.39051zm-1.6857 8.22861c-.1238.1047-.2571.2-.3904.2857-.2762-.1524-.5524-.3048-.8191-.4762-.0286-.0191-.0667-.0381-.0952-.0572 1.019-1.3809 1.5428-2.9238 1.5428-4.5904 0-1.30479-.3238-2.50479-.9428-3.50479.6762.12381 1.2952.40952 1.7619.82857.7238.6381 1.0857 1.54286 1.0857 2.67622 0 2.0762-.7238 3.7047-2.1429 4.8381zm-4.5714-.3619c-.3333-.3143-.6381-.6381-.9143-.9715-.94284-1.1523-1.41903-2.3333-1.41903-3.5047 0-1.4667.45714-2.75241 1.33333-3.71431.1238-.13334.1524-.33334.0857-.50477-.0667-.1619-.22856-.27619-.40951-.29523-1.27619-.07619-2.53333.33333-3.41905 1.1238-.91428.81905-1.4 1.99048-1.4 3.39051 0 2.3238.94286 4.2571 2.72381 5.5714.36191.2762.76191.5143 1.18095.7238.06667.0381.14286.0572.21905.0572.06667 0 .14286-.0191.20953-.0572.24762-.1238.48571-.2571.71428-.3905.37144-.219.72384-.4476 1.05714-.6952.1143-.0857.181-.2191.1905-.3524.0095-.1428-.0476-.2762-.1524-.3809zm-1.57143.6095c-.15238.0857-.29524.1714-.44762.2476-.29524-.1524-.58095-.3333-.83809-.5238-1.55238-1.1524-2.33334-2.7619-2.33334-4.8095 0-1.13336.36191-2.03812 1.07619-2.67622.4762-.41905 1.09524-.70476 1.77143-.82857-.61905 1-.94285 2.2-.94285 3.50479 0 1.4.55238 2.7809 1.63809 4.1143.18095.219.37143.4381.58095.6476-.1619.1143-.33333.219-.50476.3238zm3.77143 1.0857c-.2476-.1619-.4952-.3238-.7333-.4952-.181-.1238-.4096-.1238-.581.019-.2381.1905-.4762.3714-.7333.5429-.1619.1143-.2381.3143-.1905.5047.0476.1905.2095.3334.4.3619.2381.0286.4476.0381.6381.0381.3143 0 .6667-.0381 1.0381-.1047.1905-.0381.3333-.1905.3714-.381s-.0476-.3809-.2095-.4857zm4.0571-9.56191c-.8857-.79047-2.1428-1.20952-3.4095-1.1238-.1809.01904-.3428.13333-.419.29523-.0667.17143-.0286.37143.0952.50477.8667.9619 1.3333 2.24761 1.3333 3.71431 0 1.6095-.5523 3.0857-1.6476 4.4-.0857.1047-.1238.2381-.1047.3714.019.1333.0857.2476.2.3238.1809.1238.3619.2476.5523.3619.3619.2286.7429.4381 1.1239.6476.0666.0286.1428.0477.219.0477.0857 0 .1714-.0191.2476-.0667.2476-.1524.4857-.3143.7143-.5048 1.6381-1.3047 2.5048-3.2381 2.5048-5.5809 0-1.40003-.4857-2.57146-1.4096-3.39051zm-1.6857 8.22861c-.1238.1047-.2571.2-.3904.2857-.2762-.1524-.5524-.3048-.8191-.4762-.0286-.0191-.0667-.0381-.0952-.0572 1.019-1.3809 1.5428-2.9238 1.5428-4.5904 0-1.30479-.3238-2.50479-.9428-3.50479.6762.12381 1.2952.40952 1.7619.82857.7238.6381 1.0857 1.54286 1.0857 2.67622 0 2.0762-.7238 3.7047-2.1429 4.8381zm-3.1047.8381c-.181-.1238-.4096-.1238-.581.019-.2381.1905-.4762.3714-.7333.5429-.1619.1143-.2381.3143-.1905.5047.0476.1905.2095.3334.4.3619.2381.0286.4476.0381.6381.0381.3143 0 .6667-.0381 1.0381-.1047.1905-.0381.3333-.1905.3714-.381s-.0476-.3809-.2095-.4857c-.2476-.1619-.4952-.3238-.7333-.4952zm-1.6381-2.7715c.2666.3334.5809.6572.9238.9715.0857.0857.2.1238.3238.1238h.0286c.1333-.0096.2476-.0667.3333-.1619.9714-1.1524 1.4667-2.4477 1.4667-3.8381 0-1.39051-.4858-2.57146-1.4096-3.39051-.1428-.13333-.3047-.25714-.4762-.37142-.1619-.09524-.3619-.09524-.5238.00952s-.3238.22857-.4762.3619c-.9142.81905-1.39995 1.99048-1.39995 3.39051 0 .9524.39995 1.9238 1.20955 2.9047zm.819-5.58092s.0762-.06667.1143-.09524c.0381.02857.0667.06667.1048.09524.7238.6381 1.0857 1.54286 1.0857 2.67622 0 1.0095-.3143 1.9524-.9238 2.819-.1715-.1714-.3238-.3428-.4667-.5143-.6571-.8095-.9905-1.5809-.9905-2.3047 0-1.13336.3619-2.03812 1.0762-2.67622zm-.4952 7.53332c.0095-.1428-.0476-.2762-.1524-.3809-.3333-.3143-.6381-.6381-.9143-.9715-.94284-1.1523-1.41903-2.3333-1.41903-3.5047 0-1.4667.45714-2.75241 1.33333-3.71431.1238-.13334.1524-.33334.0857-.50477-.0667-.1619-.22856-.27619-.40951-.29523-1.27619-.07619-2.53333.33333-3.41905 1.1238-.91428.81905-1.4 1.99048-1.4 3.39051 0 2.3238.94286 4.2571 2.72381 5.5714.36191.2762.76191.5143 1.18095.7238.06667.0381.14286.0572.21905.0572.06667 0 .14286-.0191.20953-.0572.24762-.1238.48571-.2571.71428-.3905.37144-.219.72384-.4476 1.05714-.6952.1143-.0857.181-.2191.1905-.3524zm-1.72383.2286c-.15238.0857-.29524.1714-.44762.2476-.29524-.1524-.58095-.3333-.83809-.5238-1.55238-1.1524-2.33334-2.7619-2.33334-4.8095 0-1.13336.36191-2.03812 1.07619-2.67622.4762-.41905 1.09524-.70476 1.77143-.82857-.61905 1-.94285 2.2-.94285 3.50479 0 1.4.55238 2.7809 1.63809 4.1143.18095.219.37143.4381.58095.6476-.1619.1143-.33333.219-.50476.3238zm11.14283 1.819c-.6095 0-1.5047-.1809-2.4762-.5047 1.2381-1.2476 2.4762-3.2762 2.4762-6.4 0-1.96193-.7047-3.6286-2.0476-4.80955-1.1619-1.04762-2.7238-1.61905-4.3809-1.61905-.8096 0-1.6286.15238-2.381.41905-.7524-.26667-1.5714-.41905-2.38095-.41905-1.66666 0-3.21905.57143-4.39047 1.61905-1.33334 1.18095-2.0381 2.84762-2.0381 4.80955 0 3.2 1.39048 5.2666 2.8381 6.5619-.87619.219-1.71429.3428-2.36191.3428-.79047 0-1.42857.6477-1.42857 1.4286 0 .781.6381 1.4286 1.42857 1.4286 1.60953 0 3.69524-.4762 5.59048-1.2857 1.01905.3714 2.07615.5714 2.98095.5714 1.0095 0 2.1524-.2476 3.219-.7048.562.2476 1.1239.4762 1.6858.6762 1.4.4857 2.6666.7429 3.6666.7429.7905 0 1.4286-.6381 1.4286-1.4286s-.6381-1.4286-1.4286-1.4286zm0 1.9048c-.8762 0-2.0666-.2381-3.3524-.6952-.5904-.2-1.2-.4477-1.7904-.7239-.0667-.0285-.1334-.0476-.2-.0476-.0667 0-.1334.0096-.2.0381-1 .4572-2.1048.7143-3.0286.7143-.8381 0-1.8667-.2095-2.81905-.5714-.11428-.0476-.24762-.0476-.3619.0095-1.80953.7905-3.87619 1.2762-5.39048 1.2762-.26667 0-.47619-.2095-.47619-.4762s.20952-.4762.47619-.4762c.97143 0 2.24762-.2286 3.51429-.6381.1619-.0476.25714-.219.28571-.4.02857-.1714-.07619-.3714-.21905-.4762-1.41904-1.0571-3.10476-3.0095-3.10476-6.3428 0-1.67622.59048-3.09527 1.72381-4.10479.99048-.88571 2.32381-1.37143 3.75238-1.37143.75235 0 1.51425.15238 2.20005.41905.1142.04762.238.04762.3523 0 .6857-.26667 1.4477-.41905 2.2096-.41905 1.4285 0 2.7523.48572 3.7523 1.37143 1.1238 1.00952 1.7238 2.42857 1.7238 4.10479 0 3.2571-1.4857 5.1809-2.7333 6.219-.1238.1143-.1905.2762-.1619.4476.0286.1619.1429.3048.3048.3619.1714.0667.3333.1334.5047.1905 1.181.4095 2.2667.6381 3.0381.6381.2572 0 .4762.2191.4762.4762s-.219.4762-.4762.4762zm-1.9047-8.8095c0-1.40003-.4857-2.57146-1.4096-3.39051-.8857-.79047-2.1428-1.20952-3.4095-1.1238-.1809.01904-.3428.13333-.419.29523-.0667.17143-.0286.37143.0952.50477.8667.9619 1.3333 2.24761 1.3333 3.71431 0 1.6095-.5523 3.0857-1.6476 4.4-.0857.1047-.1238.2381-.1047.3714.019.1333.0857.2476.2.3238.1809.1238.3619.2476.5523.3619.3619.2286.7429.4381 1.1239.6476.0666.0286.1428.0477.219.0477.0857 0 .1714-.0191.2476-.0667.2476-.1524.4857-.3143.7143-.5048 1.6381-1.3047 2.5048-3.2381 2.5048-5.5809zm-3.0953 4.8381c-.1238.1047-.2571.2-.3904.2857-.2762-.1524-.5524-.3048-.8191-.4762-.0286-.0191-.0667-.0381-.0952-.0572 1.019-1.3809 1.5428-2.9238 1.5428-4.5904 0-1.30479-.3238-2.50479-.9428-3.50479.6762.12381 1.2952.40952 1.7619.82857.7238.6381 1.0857 1.54286 1.0857 2.67622 0 2.0762-.7238 3.7047-2.1429 4.8381zm-3.1047.8381c-.181-.1238-.4096-.1238-.581.019-.2381.1905-.4762.3714-.7333.5429-.1619.1143-.2381.3143-.1905.5047.0476.1905.2095.3334.4.3619.2381.0286.4476.0381.6381.0381.3143 0 .6667-.0381 1.0381-.1047.1905-.0381.3333-.1905.3714-.381s-.0476-.3809-.2095-.4857c-.2476-.1619-.4952-.3238-.7333-.4952zm-1.6381-2.7715c.2666.3334.5809.6572.9238.9715.0857.0857.2.1238.3238.1238h.0286c.1333-.0096.2476-.0667.3333-.1619.9714-1.1524 1.4667-2.4477 1.4667-3.8381 0-1.39051-.4858-2.57146-1.4096-3.39051-.1428-.13333-.3047-.25714-.4762-.37142-.1619-.09524-.3619-.09524-.5238.00952s-.3238.22857-.4762.3619c-.9142.81905-1.39995 1.99048-1.39995 3.39051 0 .9524.39995 1.9238 1.20955 2.9047zm.819-5.58092s.0762-.06667.1143-.09524c.0381.02857.0667.06667.1048.09524.7238.6381 1.0857 1.54286 1.0857 2.67622 0 1.0095-.3143 1.9524-.9238 2.819-.1715-.1714-.3238-.3428-.4667-.5143-.6571-.8095-.9905-1.5809-.9905-2.3047 0-1.13336.3619-2.03812 1.0762-2.67622zm-.4952 7.53332c.0095-.1428-.0476-.2762-.1524-.3809-.3333-.3143-.6381-.6381-.9143-.9715-.94284-1.1523-1.41903-2.3333-1.41903-3.5047 0-1.4667.45714-2.75241 1.33333-3.71431.1238-.13334.1524-.33334.0857-.50477-.0667-.1619-.22856-.27619-.40951-.29523-1.27619-.07619-2.53333.33333-3.41905 1.1238-.91428.81905-1.4 1.99048-1.4 3.39051 0 2.3238.94286 4.2571 2.72381 5.5714.36191.2762.76191.5143 1.18095.7238.06667.0381.14286.0572.21905.0572.06667 0 .14286-.0191.20953-.0572.24762-.1238.48571-.2571.71428-.3905.37144-.219.72384-.4476 1.05714-.6952.1143-.0857.181-.2191.1905-.3524zm-1.72383.2286c-.15238.0857-.29524.1714-.44762.2476-.29524-.1524-.58095-.3333-.83809-.5238-1.55238-1.1524-2.33334-2.7619-2.33334-4.8095 0-1.13336.36191-2.03812 1.07619-2.67622.4762-.41905 1.09524-.70476 1.77143-.82857-.61905 1-.94285 2.2-.94285 3.50479 0 1.4.55238 2.7809 1.63809 4.1143.18095.219.37143.4381.58095.6476-.1619.1143-.33333.219-.50476.3238z" fill="#1e3317"/><path d="m20.5714 18.2855c-.7714 0-1.8571-.2286-3.0381-.6381-.1714-.0572-.3333-.1238-.5047-.1905-.1619-.0571-.2762-.2-.3048-.3619-.0286-.1714.0381-.3333.1619-.4476 1.2476-1.0381 2.7334-2.9619 2.7334-6.2191 0-1.67615-.6-3.0952-1.7238-4.10472-1-.88572-2.3239-1.37143-3.7524-1.37143-.7619 0-1.5238.15238-2.2096.41905-.1142.04762-.238.04762-.3523 0-.6857-.26667-1.4477-.41905-2.20004-.41905-1.42857 0-2.7619.48571-3.75238 1.37143-1.13333 1.00952-1.72381 2.42857-1.72381 4.10472 0 3.3334 1.68572 5.2858 3.10477 6.3429.14285.1048.24761.3048.21904.4762-.02857.1809-.12381.3524-.28571.4-1.26667.4095-2.54286.6381-3.51429.6381-.26666 0-.47619.219-.47619.4762 0 .2571.20953.4762.47619.4762 1.51429 0 3.58096-.4858 5.39048-1.2762.11428-.0572.24762-.0572.3619-.0096.95234.362 1.98094.5715 2.81904.5715.9238 0 2.0286-.2572 3.0286-.7143.0667-.0286.1333-.0381.2-.0381.0666 0 .1333.019.2.0476.5905.2762 1.2.5238 1.7905.7238 1.2857.4572 2.4761.6953 3.3523.6953.2572 0 .4762-.2096.4762-.4762 0-.2667-.219-.4762-.4762-.4762zm-9.0762-11.60954c.162-.10476.362-.10476.5239-.00953.1714.11429.3333.2381.4761.37143.9239.81905 1.4096 1.99048 1.4096 3.39044 0 1.4-.4953 2.6858-1.4667 3.8381-.0857.0953-.2.1524-.3333.1619h-.0286c-.1238 0-.2381-.0381-.3238-.1238-.3429-.3143-.6571-.6381-.9238-.9714-.8095-.981-1.20954-1.9524-1.20954-2.9048 0-1.39996.48574-2.57139 1.40004-3.39044.1523-.13333.3142-.25714.4761-.3619zm-2.30471 10.04764c-.06667.0381-.14286.0571-.20953.0571-.07619 0-.15238-.019-.21904-.0571-.41905-.2095-.81905-.4476-1.18096-.7238-1.78095-1.3143-2.72381-3.2477-2.72381-5.5715 0-1.39996.48572-2.57139 1.4-3.39044.88572-.79047 2.14286-1.2 3.41905-1.12381.18095.01905.3429.13334.4095.29524.0667.17143.0381.37143-.0857.50476-.87618.96191-1.33332 2.24762-1.33332 3.71425 0 1.1715.47619 2.3524 1.41902 3.5048.2762.3333.581.6571.9143.9714.1048.1048.1619.2381.1524.381 0 .1333-.0762.2666-.1905.3524-.3333.2476-.6857.4762-1.05713.6952-.22857.1333-.46666.2667-.71428.3905zm3.84761.7428c-.3714.0667-.7238.1048-1.0381.1048-.1905 0-.4-.0095-.6381-.0381-.1905-.0286-.3524-.1714-.4-.3619s.0286-.3905.1905-.5048c.2571-.1714.4952-.3523.7333-.5428.1715-.1429.4-.1429.581-.0191.2381.1715.4857.3334.7333.4953.1619.1047.2476.2952.2095.4857s-.1809.3428-.3714.3809zm2.4095-.9523c-.0762.0476-.1619.0666-.2476.0666-.0762 0-.1524-.019-.219-.0476-.381-.2095-.7619-.419-1.1238-.6476-.1905-.1143-.3715-.2381-.5524-.3619-.1143-.0762-.181-.1905-.2-.3238-.0191-.1334.019-.2667.1047-.3715 1.0953-1.3142 1.6477-2.7904 1.6477-4.4 0-1.46663-.4667-2.75234-1.3334-3.71425-.1238-.13333-.1619-.33333-.0952-.50476.0762-.1619.2381-.27619.419-.29524 1.2667-.08571 2.5238.33334 3.4096 1.12381.9238.81905 1.4095 1.99048 1.4095 3.39044 0 2.3429-.8667 4.2762-2.5048 5.581-.2286.1905-.4667.3524-.7143.5048z" fill="#decd72"/></svg>