<svg height="512" viewBox="0 0 128 128" width="512" xmlns="http://www.w3.org/2000/svg"><g><g><path d="m104.332 81.958h-80.357a4.859 4.859 0 0 0 -4.9 4.257 4.722 4.722 0 0 0 4.7 5.184h.2a5.2 5.2 0 0 1 4.085 1.981l7.573 9.605h56.839l7.572-9.605a5.2 5.2 0 0 1 4.085-1.981 4.857 4.857 0 0 0 4.9-4.257 4.721 4.721 0 0 0 -4.697-5.184z" fill="#9d0191"/><path d="m94.162 81.955h-60.22l4.21-18.52.94-4.12 1.63-7.2a9.253 9.253 0 0 1 9.02-7.2h28.62a9.253 9.253 0 0 1 9.02 7.2l1.63 7.2.94 4.12z" fill="#fecd1a"/><path d="m89.012 59.315h-15.5a3.606 3.606 0 0 0 -3.612 3.606v3.344a3.81 3.81 0 0 1 -7.62 0v-.01a3.763 3.763 0 0 0 -2.512-3.6 3.823 3.823 0 0 0 -5.1 3.6v3.35a3.805 3.805 0 0 1 -7.61 0v-6.684a3.605 3.605 0 0 0 -3.606-3.606h-4.36l1.63-7.2a9.253 9.253 0 0 1 9.02-7.2h28.62a9.253 9.253 0 0 1 9.02 7.2z" fill="#fd3a69"/><path d="m70.559 38.408a6.507 6.507 0 1 1 -6.507-6.508 6.508 6.508 0 0 1 6.507 6.508z" fill="#fc852d"/><path d="m64.232 34.725a1.752 1.752 0 0 1 -1.719-1.43 12.3 12.3 0 0 1 1.96-9.269 1.75 1.75 0 0 1 2.887 1.979 8.816 8.816 0 0 0 -1.405 6.649 1.752 1.752 0 0 1 -1.4 2.041 1.781 1.781 0 0 1 -.323.03z" fill="#0e49b5"/></g><g fill="#212f68"><path d="m109.068 82.327a6.482 6.482 0 0 0 -4.789-2.119h-8.771l-1.17-5.143a1.75 1.75 0 1 0 -3.412.776l.992 4.364h-55.836l4.349-19.14h2.969a1.859 1.859 0 0 1 1.857 1.856v6.684a5.555 5.555 0 1 0 11.11 0v-3.351a2.042 2.042 0 0 1 .855-1.671 2.1 2.1 0 0 1 1.944-.266 2.026 2.026 0 0 1 1.311 1.948 5.56 5.56 0 1 0 11.12 0v-3.344a1.859 1.859 0 0 1 1.857-1.856h14.114l1.293 5.693a1.749 1.749 0 1 0 3.412-.775l-3.237-14.257a10.948 10.948 0 0 0 -10.726-8.561h-7.57a8.241 8.241 0 0 0 -4.957-12.814 8.818 8.818 0 0 1 1.525-4.346 1.75 1.75 0 0 0 -2.887-1.979 12.281 12.281 0 0 0 -2.14 6.309 8.242 8.242 0 0 0 -5.02 12.83h-7.571a10.95 10.95 0 0 0 -10.727 8.564l-6.471 28.479h-8.569a6.631 6.631 0 0 0 -6.643 5.841 6.472 6.472 0 0 0 6.441 7.1h.2a3.434 3.434 0 0 1 2.711 1.314l7.573 9.605a1.749 1.749 0 0 0 1.374.666h8.31a1.75 1.75 0 1 0 0-3.5h-7.459l-7.048-8.934a6.913 6.913 0 0 0 -5.459-2.647h-.2a2.969 2.969 0 0 1 -2.956-3.269 3.1 3.1 0 0 1 3.158-2.672h80.356a2.972 2.972 0 0 1 2.956 3.269 3.1 3.1 0 0 1 -3.158 2.672 6.913 6.913 0 0 0 -5.461 2.647l-7.048 8.938h-27.57a1.75 1.75 0 1 0 0 3.5h28.419a1.749 1.749 0 0 0 1.374-.666l7.573-9.605a3.434 3.434 0 0 1 2.711-1.314 6.631 6.631 0 0 0 6.643-5.841 6.5 6.5 0 0 0 -1.652-4.985zm-48.555-40.68a4.739 4.739 0 0 1 2.162-7.784 1.753 1.753 0 0 0 1.505.862 1.79 1.79 0 0 0 .323-.03 1.746 1.746 0 0 0 1.126-.738 4.749 4.749 0 1 1 -5.116 7.69zm-18.137 10.853a7.467 7.467 0 0 1 7.314-5.839h28.62a7.466 7.466 0 0 1 7.313 5.839l1.15 5.064h-13.316a5.363 5.363 0 0 0 -5.357 5.357v3.344a2.06 2.06 0 1 1 -4.12-.011 5.486 5.486 0 0 0 -3.714-5.26 5.573 5.573 0 0 0 -7.4 5.26v3.351a2.055 2.055 0 0 1 -4.11 0v-6.684a5.363 5.363 0 0 0 -5.356-5.356h-2.174z"/><path d="m54.464 101.234h-1.27a1.75 1.75 0 0 0 0 3.5h1.27a1.75 1.75 0 0 0 0-3.5z"/></g></g></svg>