<svg id="pumpkin" viewBox="0 0 64 64" xmlns="http://www.w3.org/2000/svg"><path d="m31.99512 19.99512c-.85938 0-1.65137-.55615-1.91064-1.42139-.06104-.20361-1.46924-5.04199 1.00146-9.49463 1.61426-2.90918 4.43604-4.93066 8.3877-6.00879 1.06836-.29199 2.16504.33789 2.45605 1.40332.29053 1.06592-.33789 2.16504-1.40332 2.45605-2.85693.77881-4.85059 2.14453-5.92529 4.05908-1.66113 2.95752-.69238 6.41064-.68262 6.44531.30566 1.05713-.29932 2.16748-1.35498 2.47852-.18945.05566-.38037.08252-.56836.08252z" fill="#7f813c"/><ellipse cx="32" cy="23" fill="#7f813c" rx="14" ry="7"/><path d="m38.2652 16.74658c-2.98389 4.42712-12.42065 5.87189-20.26288 6.27637.02509 3.85529 6.28119 6.97705 13.99768 6.97705 7.73199 0 14-3.13403 14-7 0-2.73846-3.15228-5.10321-7.7348-6.25342z" fill="#707335"/><ellipse cx="45" cy="41" fill="#f9793a" rx="16" ry="20"/><path d="m60.20135 34.36334c-2.36218 27.55103-28.20544 16.0484-28.20544 16.0484s-.65643-.45978-1.75873-1.23181c2.41608 7.37482 8.11469 11.82007 14.76282 11.82007 8.83655 0 16-7.84973 16-20 0-2.39014-.28607-4.60638-.79865-6.63666z" fill="#f36a1c"/><ellipse cx="19" cy="41" fill="#f9793a" rx="16" ry="20"/><path d="m27.5271 23.82837c-2.38019 4.43726-3.8125 9.81226-3.11536 16.17163 1.31659 12.00989-7.74323 15.43683-16.24402 16.07892 2.85107 3.14331 6.64801 4.92108 10.83228 4.92108 8.83655 0 16-7.84973 16-20 0-7.8349-2.98773-13.86475-7.4729-17.17163z" fill="#f36a1c"/><ellipse cx="32" cy="41" fill="#ffa63b" rx="19" ry="20"/><path d="m40.44788 22.90741c2.22736 3.22955 3.55212 7.32294 3.55212 12.09259 0 12.15027-8.50659 20-19 20-3.03882 0-5.90063-.67694-8.44788-1.90741 3.44659 4.99738 9.07373 7.90741 15.44788 7.90741 10.49341 0 19-7.84973 19-20 0-8.63159-4.30347-15.07422-10.55212-18.09259z" fill="#fe9000"/><path d="m18.30566 35c-.12598 0-.25439-.02441-.37793-.07471-.51123-.20947-.75635-.79297-.54736-1.3042 1.05273-2.57324 2.71484-4.79004 4.80664-6.41211.43604-.33789 1.06445-.25928 1.40332.17773.33838.43652.25879 1.06494-.17773 1.40332-1.84131 1.42725-3.24805 3.30713-4.18066 5.58789-.15869.38721-.53223.62207-.92627.62207z" fill="#fff"/><path d="m17.09668 40c-.03223 0-.06445-.00146-.09717-.00488-.5498-.05322-.95215-.54199-.89893-1.09131.03418-.35547.07764-.70654.12988-1.05225.08154-.54639.59375-.92627 1.13721-.84033.5459.08203.92236.59082.84033 1.13721-.04639.31152-.08594.62744-.11719.94775-.0498.51709-.48486.90381-.99414.90381z" fill="#fff"/><path d="m45.97003 20.05463c-1.85529-2.56824-6.08264-4.45807-11.33453-4.93597-.0141-1.0744.1496-2.41571.83765-3.64062.93848-1.67188 2.72754-2.87793 5.31689-3.5835 1.59521-.43604 2.53906-2.08838 2.10449-3.68457-.21143-.77295-.70996-1.41748-1.40479-1.81494-.6958-.39893-1.50635-.50195-2.2793-.28955-4.22119 1.15186-7.24902 3.33496-8.99902 6.48828-1.28186 2.31024-1.5921 4.7049-1.56708 6.60608-4.91101.57928-8.83197 2.40656-10.60175 4.85406-9.34869.55756-16.0426 9.17896-16.0426 20.94611 0 12.16846 7.14941 21 17 21 2.13666 0 4.13678-.43384 5.97144-1.21344 2.16187.77539 4.5141 1.21344 7.02856 1.21344 2.51501 0 4.86774-.43823 7.02991-1.21393 1.83398.78003 3.83374 1.21393 5.97009 1.21393 9.85059 0 17-8.83154 17-21 0-11.76184-6.68793-20.38086-16.02997-20.94537zm-13.97003-.05463c-2.51447 0-4.8667.43805-7.02856 1.21344-1.33466-.56714-2.75739-.94879-4.2569-1.1142 2.14172-1.74976 6.15753-3.09924 11.28546-3.09924s9.13702 1.35065 11.27722 3.10071c-1.49603.16614-2.91571.54688-4.24731 1.11322-2.16217-.7757-4.51489-1.21393-7.02991-1.21393zm-.03955-10.43555c1.47852-2.66455 4.09473-4.5249 7.77686-5.5293.08789-.02441.17725-.03613.26562-.03613.17188 0 .34082.04443.49365.13184.23145.13232.39795.34766.46826.60596.14502.53174-.16992 1.08301-.70166 1.22803-3.125.85205-5.32324 2.37744-6.53418 4.53418-.86707 1.5437-1.09619 3.18518-1.09418 4.51532-.21179-.00452-.42059-.01434-.63483-.01434-.4624 0-.91827.01196-1.36877.03284-.0047-1.59216.27271-3.56439 1.32922-5.46838zm-12.96045 50.43555c-8.69141 0-15-7.99072-15-19s6.30859-19 15-19c1.12952 0 2.21436.14612 3.25427.40607-6.26624 3.42108-10.25427 10.21594-10.25427 18.59393s3.98804 15.17285 10.25427 18.59393c-1.03992.25995-2.12476.40607-3.25427.40607zm-5-19c0-11.00928 7.57031-19 18-19s18 7.99072 18 19-7.57031 19-18 19-18-7.99072-18-19zm31 19c-1.12543 0-2.20325-.15265-3.23853-.4137 6.25745-3.42377 10.23853-10.21515 10.23853-18.5863s-3.98108-15.16254-10.23853-18.5863c1.03528-.26105 2.1131-.4137 3.23853-.4137 8.69141 0 15 7.99072 15 19s-6.30859 19-15 19z" fill="#490b2b"/></svg>