<svg id="Layer_1" viewBox="0 0 96 96" xmlns="http://www.w3.org/2000/svg" data-name="Layer 1"><path d="m68.27 16.09c-3.53 0-7.01 1.32-10.15 3.8-1.46-1.16-3.01-2.08-4.63-2.72 1.01-3.78 2.69-7.74 3.65-9.85.32-.7.27-1.51-.14-2.16s-1.11-1.05-1.89-1.07c-.43 0-.95-.04-1.53-.07-3.25-.19-8.17-.48-10.38 2.47-1.12 1.5-.78 4.54-.4 8.06.09.81.18 1.63.25 2.42-1.81.64-3.55 1.63-5.17 2.92-3.14-2.48-6.62-3.8-10.15-3.8-12.82 0-23.25 17.05-23.25 38s10.43 38 23.25 38c3.53 0 7.01-1.32 10.15-3.8 3.06 2.44 6.49 3.8 10.12 3.8s7.06-1.36 10.12-3.8c3.14 2.48 6.62 3.8 10.15 3.8 12.82 0 23.25-17.05 23.25-38s-10.43-38-23.25-38zm-23.47-8.4c1.57-2.09 5.83-1.84 8.66-1.67.61.03 1.16.06 1.62.07.12 0 .19.07.22.13.03.05.08.15.02.27-.98 2.14-2.68 6.16-3.73 10.06-1.17-.3-2.37-.46-3.59-.46-1.01 0-2.01.12-2.99.33-.07-.7-.14-1.4-.22-2.09-.28-2.57-.63-5.78.01-6.64zm-17.07 82.4c-11.72 0-21.25-16.15-21.25-36s9.53-36 21.25-36c3.01 0 5.9 1.06 8.62 3.14-6.93 6.58-11.6 18.84-11.6 32.86s4.67 26.28 11.6 32.87c-2.72 2.07-5.61 3.13-8.62 3.13zm29.67-3.73s-.01.01-.02.02c-2.83 2.37-6.02 3.71-9.38 3.71s-6.55-1.34-9.38-3.7-.02-.02-.02-.03c-7.02-5.88-11.85-18.13-11.85-32.27s4.83-26.38 11.84-32.27c0-.01.02-.01.03-.02 1.42-1.18 2.92-2.11 4.49-2.74 1.57-.64 3.21-.97 4.89-.97 3.36 0 6.55 1.34 9.38 3.71.01.01.02.01.03.02 7.01 5.89 11.84 18.14 11.84 32.27s-4.83 26.39-11.85 32.27zm10.87 3.73c-3.01 0-5.9-1.06-8.62-3.13 6.93-6.59 11.6-18.85 11.6-32.87s-4.67-26.28-11.6-32.86c2.72-2.08 5.61-3.14 8.62-3.14 11.72 0 21.25 16.15 21.25 36s-9.53 36-21.25 36z"/><path d="m55.32 6.49c-.98 2.14-2.68 6.16-3.73 10.06-1.17-.3-2.37-.46-3.59-.46-1.01 0-2.01.12-2.99.33-.07-.7-.14-1.4-.22-2.09-.28-2.57-.63-5.78.01-6.64 1.57-2.09 5.83-1.84 8.66-1.67.61.03 1.16.06 1.62.07.12 0 .19.07.22.13.03.05.08.15.02.27z" fill="#795548"/><g fill="#ffa726"><path d="m89.52 54.09c0 19.85-9.53 36-21.25 36-3.01 0-5.9-1.06-8.62-3.13 6.93-6.59 11.6-18.85 11.6-32.87s-4.67-26.28-11.6-32.86c2.72-2.08 5.61-3.14 8.62-3.14 11.72 0 21.25 16.15 21.25 36z"/><path d="m69.25 54.09c0 14.14-4.83 26.39-11.85 32.27 0 .01-.01.01-.02.02-2.83 2.37-6.02 3.71-9.38 3.71s-6.55-1.34-9.38-3.7-.02-.02-.02-.03c-7.02-5.88-11.85-18.13-11.85-32.27s4.83-26.38 11.84-32.27c0-.01.02-.01.03-.02 1.42-1.18 2.92-2.11 4.49-2.74 1.57-.64 3.21-.97 4.89-.97 3.36 0 6.55 1.34 9.38 3.71.01.01.02.01.03.02 7.01 5.89 11.84 18.14 11.84 32.27z"/><path d="m24.75 54.09c0 14.02 4.67 26.28 11.6 32.87-2.72 2.07-5.61 3.13-8.62 3.13-11.72 0-21.25-16.15-21.25-36s9.53-36 21.25-36c3.01 0 5.9 1.06 8.62 3.14-6.93 6.58-11.6 18.84-11.6 32.86z"/></g></svg>