<svg id="Layer_1" enable-background="new 0 0 512.016 512.016" viewBox="0 0 512.016 512.016" xmlns="http://www.w3.org/2000/svg"><g><g><path d="m239.546 88.24c-.154-19.677 9.162-36.8 24.247-46.961 8.694-5.856 20.576-1.003 22.895 9.22 1.38 6.085-1.219 12.292-6.354 15.835-6.625 4.57-10.491 11.934-10.771 20.541-.868 6.925-5.845 12.448-12.04 13.675-7.609 1.506-15.866-3.706-17.977-12.31z" fill="#b1ecd0"/><path d="m180.938 183.869c-9.372-9.657-15.283-23.782-15.283-39.518 0-38.391 33.843-63.393 63.332-48.277 28.926 23.009 30.313 62.263 11.505 81.12-13.634 13.67-37.915 16.659-59.554 6.675z" fill="#fdc072"/><path d="m331.077 183.869c9.372-9.657 15.283-23.782 15.283-39.518 0-38.391-33.843-63.393-63.332-48.277-33.95 29.313-33.17 73.014-14.15 89.379 13.837 11.905 39.569 11.273 62.199-1.584z" fill="#fdc072"/><path d="m217.944 176.809c-19.206-39.956 2.408-92.694 38.063-92.694 35.881 0 57.122 53.042 38.063 92.694-8.246 15.817-24.919 25.154-41.966 23.611-22.722-2.056-33.489-22.296-34.16-23.611z" fill="#ffd9a0"/><path d="m459.698 320.137c-66.57 40.86-140.89 59.4-213.97 57.38-144.73-14.886-179.192-160.471-19.78-201.57 109.639-10.74 231.23 37.33 233.75 144.19z" fill="#e7896e"/><path d="m245.568 377.517c-67.83-1.88-134.59-21.47-193.09-57.38 2.06-87.36 83.69-135.42 173.31-144.19-26.142 14.99-47.594 35.165-62.66 60.11-26.65 44.067-9.236 101.58 37.26 123.72 14.77 7.03 29.859 12.96 45.18 17.74z" fill="#e37858"/><path d="m457.187 381.097c-5.04 25.39-11.09 50.94-18.23 76.57-5.43 19.48-23.15 32.97-43.37 32.97h-180.84c-115.101 0-109.984-108.46-65.75-119.79 32.41-8.29 111.58-15.72 156.23-19.03 62.01 4.6 113.71 17.18 151.96 29.28z" fill="#b1ecd0"/><path d="m214.747 490.637h-98.32c-20.22 0-37.94-13.49-43.37-32.97-7.14-25.63-13.19-51.18-18.23-76.57 80.896-25.576 165.984-35.569 250.4-29.28-44.65 3.31-83.82 10.74-116.23 19.03-20.38 5.22-32.86 25.8-28.03 46.28 3.17 13.46 6.63 26.96 10.4 40.48 5.431 19.5 23.14 33.03 43.38 33.03z" fill="#60daa8"/><path d="m273.231 242.094-9.453-11.317c-4.002-4.792-11.539-4.792-15.541 0l-9.453 11.317c-7.608 9.109-7.064 22.624 1.25 31.072 8.812 8.953 23.135 8.953 31.947 0 8.314-8.448 8.858-21.963 1.25-31.072z" fill="#e37858"/><path d="m178.477 268.727c-9.97 2.51-19.98-2.04-24.86-10.49-1.884-14.806 5.699-28.539 18.28-35.22l8.37-2.84c5.91-2.01 12.35 1.91 13.27 8.09l2.18 14.58c1.76 11.74-5.74 23-17.24 25.88z" fill="#e37858"/><path d="m171.898 223.017c-10.604 14.206-15.404 24.659-18.28 35.22-7.171-12.417-1.084-28.639 12.69-33.32z" fill="#dd6642"/><path d="m316.295 242.848 2.18-14.584c.923-6.175 7.358-10.098 13.27-8.09l13.962 4.743c11.238 3.818 17.808 15.641 15.106 27.182-2.864 12.231-15.094 19.687-27.278 16.629-11.496-2.885-18.995-14.142-17.24-25.88z" fill="#e37858"/><path d="m62.28 107.721c5.455 19.411 32.338 32.944 33.295 56.978.353 8.86 11.051 13.089 17.115 6.693 8.636-9.109 15.96-20.633 15.314-33.164-1.319-25.587-31.515-33.477-32.862-61.015-.183-3.749.192-7.359.978-10.805 2.124-9.314-8.573-16.125-15.962-10.178-13.48 10.849-24.649 27.395-17.878 51.491z" fill="#efedff"/><path d="m386.009 107.721c5.455 19.411 32.338 32.944 33.295 56.978.353 8.86 11.051 13.089 17.115 6.693 8.636-9.109 15.96-20.633 15.314-33.164-1.472-28.55-39.993-36.265-31.884-71.821 2.124-9.314-8.573-16.125-15.962-10.178-13.481 10.85-24.65 27.396-17.878 51.492z" fill="#efedff"/><path d="m502.707 365.247c-5.61 15.6-22.79 23.7-38.4 18.1-21.31-7.66-45.77-7.66-67.08 0-36.149 12.9-74.249 11.998-107.68 0-21.31-7.66-45.77-7.66-67.08 0-20.965 7.481-42.78 10.419-64.21 9-44.82-.004-39.368-67.203 4.85-59.88 13.26.71 26.68-1.178 39.06-5.59 36.152-12.885 73.939-12.114 107.68 0 21.69 7.788 46.151 7.512 67.08 0 36.18-12.804 73.938-12.115 107.68 0 15.484 5.549 23.732 22.713 18.1 38.37z" fill="#eaaa83"/><path d="m158.257 392.347c-14.76-.95-29.4-3.95-43.47-9-21.31-7.66-45.77-7.66-67.08 0-15.6 5.6-32.79-2.5-38.4-18.1-5.6-15.59 2.51-32.77 18.1-38.37 34.72-12.47 72.96-12.47 107.68 0 8.94 3.21 18.44 5.08 28.02 5.59-2.59.77-5.17 1.62-7.73 2.54-27.849 9.997-25.824 50.156 2.88 57.34z" fill="#e7896e"/></g><g><path d="m508.356 337.866c-4.273-9.06-11.82-15.914-21.25-19.299-6.684-2.4-13.493-4.354-20.381-5.872-4.441-68.892-56.387-113.798-122.904-134.27 6.443-10.19 10.008-22.551 10.008-35.324 0-41.567-35.8-70.004-69.454-57.086-2.148-1.76-4.394-3.318-6.72-4.663 1.064-4.2 3.434-7.698 6.908-10.095 7.763-5.355 11.457-14.646 9.41-23.668-3.483-15.352-21.341-22.573-34.399-13.78-6.021 4.055-11.19 9.087-15.372 14.826-8.917.727-16.377-13.27-5.873-19.572 3.552-2.131 4.704-6.738 2.572-10.29s-6.739-4.704-10.29-2.572c-20.829 12.497-13.262 40.425 5.914 46.43-2.491 6.321-3.999 13.099-4.399 20.108-1.539 1.009-3.033 2.112-4.48 3.305-34.071-13.137-69.521 15.947-69.521 57.059 0 12.773 3.564 25.135 10.008 35.324-66.503 20.468-118.467 65.369-122.905 134.281-6.889 1.52-13.699 3.462-20.38 5.861-19.512 7.005-29.635 28.461-22.624 47.97 6.861 19.094 27.713 29.207 46.884 22.979 4.783 23.104 10.385 46.245 16.697 68.91 6.307 22.646 27.112 38.462 50.595 38.462h279.156c23.483 0 44.289-15.816 50.595-38.462 6.311-22.663 11.913-45.803 16.696-68.906 31.294 10.166 59.44-22.119 45.509-51.656zm-169.527-194.766c0 11.623-3.74 22.717-10.365 31.089-7.79-1.901-15.777-3.489-23.922-4.759 2.699-8.28 4.11-17.219 4.11-26.33 0-4.142-3.358-7.5-7.5-7.5s-7.5 3.358-7.5 7.5c0 8.547-1.501 16.855-4.327 24.353-22.073-2.313-44.625-2.313-66.698 0-13.15-34.887 5.176-77.088 33.349-77.088 13.022 0 25.371 9.788 32.227 25.544 1.653 3.797 6.07 5.537 9.87 3.885 3.798-1.653 5.538-6.072 3.885-9.87-1.815-4.17-3.952-8.027-6.354-11.54 23.519-4.176 43.225 18.067 43.225 44.716zm-70.877-96.851c4.292-2.892 10.227-.475 11.392 4.658.682 3.008-.613 6.149-3.299 8.003-6.016 4.15-10.317 10.164-12.467 17.169-5.008-.935-10.183-.985-15.512.052 2.398-11.79 9.057-22.589 19.886-29.882zm-51.503 52.15c-13.798 20.151-16.607 47.812-9.038 71.031-8.145 1.271-16.132 2.858-23.922 4.759-24.206-30.588-3.069-82.302 32.96-75.79zm215.25 356.002c-4.507 16.184-19.37 27.486-36.145 27.486h-279.156c-16.775 0-31.638-11.303-36.145-27.486-6.308-22.651-11.895-45.786-16.651-68.875 16.141-3.085 33.261-1.891 48.624 3.625 36.351 13.053 76.389 13.053 112.741.001 19.708-7.076 42.313-7.076 62.019-.001 36.35 13.052 76.391 13.052 112.741 0 15.364-5.516 32.484-6.711 48.625-3.626-4.758 23.09-10.344 46.225-16.653 68.876zm63.915-92.937c-4.196 11.677-17.115 17.765-28.799 13.571-22.251-7.991-48.627-8.45-72.157 0-33.083 11.878-69.521 11.878-102.604-.001-22.928-8.231-49.227-8.231-72.156.001-33.084 11.877-69.522 11.877-102.603 0-23.572-8.464-49.951-7.974-72.156 0-11.684 4.193-24.604-1.893-28.8-13.571-4.207-11.705 1.87-24.576 13.576-28.779 26.08-9.363 54.266-11.399 81.515-5.884 4.06.82 8.017-1.804 8.838-5.863.821-4.06-1.804-8.017-5.864-8.839-17.849-3.612-36.064-4.251-53.941-2.016 15.908-172.471 375.104-172.479 391.024-.009-25.864-3.229-52.349-.402-77.122 8.493-19.707 7.075-42.312 7.075-62.019 0-36.35-13.052-76.39-13.052-112.741 0-14.844 5.329-31.789 6.684-47.71 3.814-4.077-.741-7.977 1.974-8.711 6.05-.735 4.077 1.974 7.977 6.05 8.711 18.471 3.331 38.16 1.747 55.44-4.458 33.084-11.878 69.522-11.878 102.604 0 22.929 8.233 49.229 8.231 72.156 0 33.083-11.879 69.521-11.879 102.604 0 11.706 4.203 17.782 17.075 13.576 28.78z"/><path d="m255.976 286.13c25.039 0 39.892-29.846 22.979-50.095l-9.453-11.317c-6.999-8.381-20.054-8.381-27.054 0l-9.453 11.317c-16.891 20.226-2.083 50.095 22.981 50.095zm-11.466-40.479 9.453-11.317c1.006-1.204 3.023-1.204 4.028 0l9.453 11.316c8.283 9.918 1.455 25.479-11.467 25.479-12.942.001-19.732-15.584-11.467-25.478z"/><path d="m157.41 271.3c21.418 13.056 49.59-4.769 45.696-30.812l-2.18-14.584c-1.614-10.799-12.761-17.595-23.1-14.082l-13.961 4.743c-24.954 8.477-27.857 41.688-6.455 54.735zm11.279-40.532c14.687-4.989 14.142-4.875 14.749-4.875 1.172 0 2.452.883 2.653 2.229l2.18 14.583c1.178 7.876-3.939 15.562-11.649 17.497-8.129 2.037-16.239-2.905-18.149-11.064-1.813-7.739 2.675-15.808 10.216-18.37z"/><path d="m354.543 271.3c21.384-13.036 18.521-46.25-6.454-54.735l-13.962-4.743c-10.341-3.511-21.486 3.282-23.1 14.083l-2.18 14.583c-3.898 26.063 24.295 43.858 45.696 30.812zm-30.862-28.594 2.18-14.583c.231-1.543 1.946-2.607 3.44-2.098l13.962 4.743c7.541 2.562 12.028 10.631 10.216 18.37-1.91 8.159-10.022 13.104-18.149 11.064-7.709-1.934-12.826-9.62-11.649-17.496z"/><path d="m190.381 423.959c-4.142 0-7.5 3.358-7.5 7.5v12c0 4.142 3.358 7.5 7.5 7.5s7.5-3.358 7.5-7.5v-12c0-4.142-3.358-7.5-7.5-7.5z"/><path d="m278.198 437.731c-3.123-2.721-7.861-2.396-10.582.727-6.162 7.071-17.117 7.071-23.279 0-2.721-3.122-7.458-3.447-10.582-.727-12.796 11.153 24.285 34.546 45.17 10.582 2.721-3.123 2.396-7.86-.727-10.582z"/><path d="m323.888 421.718c-11.804 0-21.407 9.603-21.407 21.406 0 4.142 3.358 7.5 7.5 7.5s7.5-3.358 7.5-7.5c0-3.532 2.874-6.406 6.407-6.406 3.532 0 6.406 2.874 6.406 6.406 0 4.142 3.358 7.5 7.5 7.5s7.5-3.358 7.5-7.5c0-11.803-9.602-21.406-21.406-21.406z"/><path d="m55.029 108.499c6.056 21.552 32.202 34.684 33.021 55.248.614 15.42 19.386 22.804 30.052 11.555 12.182-12.849 18.022-25.873 17.361-38.71-1.656-32.095-39.056-39.11-32.061-69.767 3.709-16.266-15.066-28.08-27.977-17.688-32.783 26.382-20.396 56.981-20.396 59.362zm29.8-47.677c1.105-.891 2.13-.581 2.794-.165.588.368 1.521 1.225 1.154 2.833-.976 4.275-1.365 8.595-1.158 12.84 1.495 30.58 31.752 39.502 32.863 61.035.442 8.574-4.021 17.866-13.266 27.618-.695.733-1.528.924-2.477.568-.49-.184-1.637-.787-1.701-2.399-1.083-27.194-28.813-41.786-33.569-58.709-4.818-17.154.206-31.425 15.36-43.621z"/><path d="m411.779 163.747c.613 15.363 19.347 22.847 30.052 11.555 12.182-12.849 18.023-25.874 17.361-38.71-1.667-32.311-39.089-38.937-32.062-69.767 3.713-16.277-15.073-28.073-27.976-17.689-19.783 15.921-26.836 36.449-20.396 59.363 6.056 21.553 32.202 34.684 33.021 55.248zm-3.221-102.925c1.861-1.498 4.496.265 3.947 2.668-9.018 39.556 30.468 49.858 31.706 73.874.442 8.574-4.021 17.866-13.267 27.618-1.52 1.607-4.09.379-4.178-1.832-1.083-27.193-28.814-41.789-33.569-58.709-4.819-17.153.205-31.422 15.361-43.619z"/></g></g><g/><g/><g/><g/><g/><g/><g/><g/><g/><g/><g/><g/><g/><g/><g/></svg>