<svg id="Capa_1" enable-background="new 0 0 512 512" height="512" viewBox="0 0 512 512" width="512" xmlns="http://www.w3.org/2000/svg"><g><g><path d="m369.138 295.276h-96.976v-239.288c0-26.779 21.709-48.488 48.488-48.488 26.779 0 48.488 21.709 48.488 48.488z" fill="#8d9ca8"/></g><g><path d="m369.138 233.878c-23.818-28.469-58.154-47.844-96.976-52.096v113.493h96.976z" fill="#7a8c98"/></g><g><path d="m304.488 295.276v-239.288c0-8.912 7.251-16.163 16.163-16.163s16.163 7.251 16.163 16.163v239.288z" fill="#e175a5"/></g><g><path d="m304.488 295.276h32.325v-90.198c-9.999-6.576-20.839-11.97-32.325-15.98z" fill="#de5791"/></g><g><path d="m142.862 295.276h96.976v-239.288c0-26.779-21.709-48.488-48.488-48.488-26.779 0-48.488 21.709-48.488 48.488z" fill="#8d9ca8"/></g><g><path d="m239.837 181.789c-38.81 4.297-73.151 23.883-96.976 52.625v60.861h96.976z" fill="#7a8c98"/></g><g><path d="m207.512 295.276v-239.288c0-8.912-7.251-16.163-16.163-16.163s-16.163 7.251-16.163 16.163v239.288z" fill="#e175a5"/></g><g><path d="m175.187 295.276h32.325v-106.09c-11.485 4.053-22.325 9.505-32.325 16.148z" fill="#de5791"/></g><g><g><path d="m373.534 386.967c0 64.912-52.622 117.534-117.534 117.534s-117.534-52.622-117.534-117.534z" fill="#8d9ca8"/></g><g><path d="m247.919 471.998h-16.163c-4.463 0-8.081-3.618-8.081-8.081v-50.629h32.325v50.629c0 4.463-3.618 8.081-8.081 8.081z" fill="#fef1da"/></g><g><path d="m280.244 471.998h-16.163c-4.463 0-8.081-3.618-8.081-8.081v-50.629h32.325v50.629c0 4.463-3.618 8.081-8.081 8.081z" fill="#fef1da"/></g><g><path d="m384.25 391.069c-4.55-6.729-7.03-14.641-7.03-22.764v-39.928c0-67.091-54.504-121.451-121.649-121.219-66.996.232-120.791 55.539-120.791 122.535v38.612c0 8.123-2.48 16.035-7.03 22.764-5.356 7.921-8.525 17.441-8.629 27.699-.302 29.65 25.382 52.649 54.982 50.9 32.612-1.927 58.687-24.452 72.072-38.721 5.327-5.679 14.322-5.679 19.649 0 13.385 14.269 39.46 36.794 72.072 38.721 29.6 1.749 55.284-21.25 54.982-50.9-.103-10.258-3.272-19.778-8.628-27.699z" fill="#c5d3dd"/></g><g><path d="m384.25 391.069c-4.55-6.729-7.03-14.641-7.03-22.764v-39.928c0-67.091-54.504-121.452-121.649-121.219-5.947.02-11.787.483-17.498 1.341 58.363 8.738 103.12 59.081 103.12 119.878v39.928c0 8.123 2.48 16.035 7.03 22.764 5.356 7.921 8.525 17.441 8.629 27.699.231 22.676-14.744 41.447-35.039 48.247 5.152 1.384 10.52 2.324 16.083 2.653 29.6 1.749 55.284-21.25 54.982-50.9-.103-10.258-3.272-19.778-8.628-27.699z" fill="#b6c4cf"/></g><g><path d="m268.575 397.125c6.735 0 11.555 6.455 9.702 12.93-2.577 9-8.529 19.396-22.277 19.396s-19.7-10.395-22.277-19.396c-1.854-6.475 2.967-12.93 9.702-12.93z" fill="#e0bba4"/></g></g><path d="m465.769 410.562h-66.045c-1.281-8.451-4.418-16.523-9.26-23.691-.234-.347-.441-.707-.662-1.06l55.302-26.421c3.737-1.786 5.319-6.264 3.534-10.001-1.786-3.738-6.266-5.318-10.001-3.534l-53.738 25.675c-.106-1.067-.179-2.139-.179-3.219v-39.93c0-15.638-2.776-30.843-8.08-45.065v-114.426c0-4.143-3.357-7.5-7.5-7.5s-7.5 3.357-7.5 7.5v85.889c-4.356-6.224-9.291-12.112-14.787-17.588-.836-.833-1.684-1.651-2.539-2.458v-178.745c0-13.048-10.615-23.663-23.663-23.663-13.047 0-23.662 10.615-23.662 23.663v150.302c-5.644-1.889-11.432-3.381-17.328-4.469v-145.831c0-22.603 18.388-40.99 40.99-40.99 10.96 0 21.254 4.262 28.986 12.004 7.74 7.739 12.003 18.034 12.003 28.986v77.9c0 4.143 3.357 7.5 7.5 7.5s7.5-3.357 7.5-7.5v-77.9c0-14.959-5.823-29.021-16.393-39.591-10.564-10.575-24.626-16.399-39.596-16.399-30.873 0-55.99 25.117-55.99 55.99v143.96c-5.732-.384-11.593-.391-17.323.007v-143.969c-.001-30.872-25.117-55.988-55.989-55.988-14.965 0-29.025 5.825-39.585 16.397-10.578 10.564-16.403 24.625-16.403 39.592v228.411c-2.349 6.363-4.228 12.973-5.579 19.794-.805 4.063 1.837 8.01 5.9 8.814 4.066.798 8.009-1.837 8.814-5.9 10.593-53.527 57.573-92.474 111.529-92.448 61.109-1.265 114.966 52.607 113.695 113.721v38.652c-11.157-7.317-27-13.83-48.06-13.83-4.143 0-7.5 3.357-7.5 7.5s3.357 7.5 7.5 7.5c19.419 0 33.384 6.565 42.547 13.212l-16.485 7.876c-3.737 1.786-5.319 6.264-3.534 10.001 1.287 2.694 3.974 4.269 6.772 4.269 1.084 0 2.186-.236 3.229-.734l22-10.511c.579 1.002 1.193 1.988 1.847 2.954 3.153 4.668 5.327 9.854 6.453 15.293h-10.954c-4.143 0-7.5 3.357-7.5 7.5s3.357 7.5 7.5 7.5h11.379c-1.125 7.523-4.277 14.54-9.194 20.483l-21.531-10.287c-3.74-1.784-8.216-.204-10.001 3.534-1.785 3.737-.203 8.215 3.534 10.001l15.273 7.297c-7.437 4.111-16.007 6.104-24.661 5.593-27.341-1.618-50.1-19.466-63.125-32.354 4.605-4.184 8.109-10.129 10.278-17.71 1.542-5.384.496-11.032-2.869-15.497-3.352-4.446-8.47-6.997-14.042-6.997h-25.15c-5.572 0-10.69 2.551-14.042 6.997-3.365 4.465-4.411 10.113-2.869 15.496 2.17 7.581 5.674 13.527 10.278 17.711-13.023 12.886-35.783 30.736-63.124 32.354-8.661.514-17.229-1.481-24.664-5.592l15.274-7.297c3.737-1.786 5.319-6.264 3.534-10.001-1.786-3.737-6.266-5.317-10.001-3.534l-21.531 10.287c-4.917-5.942-8.069-12.96-9.194-20.483h11.379c4.143 0 7.5-3.357 7.5-7.5s-3.357-7.5-7.5-7.5h-10.954c1.125-5.439 3.299-10.624 6.452-15.291.654-.967 1.268-1.954 1.848-2.956l22 10.511c1.044.498 2.145.734 3.229.734 2.799 0 5.485-1.574 6.772-4.269 1.785-3.737.203-8.215-3.534-10.001l-16.481-7.874c9.163-6.648 23.122-13.214 42.543-13.214 4.143 0 7.5-3.357 7.5-7.5s-3.357-7.5-7.5-7.5c-21.061 0-36.902 6.514-48.06 13.831v-26.485c0-4.143-3.357-7.5-7.5-7.5s-7.5 3.357-7.5 7.5v27.76c0 1.079-.073 2.151-.179 3.219l-53.738-25.675c-3.74-1.785-8.215-.204-10.001 3.534-1.785 3.737-.203 8.215 3.534 10.001l55.302 26.422c-.221.354-.428.714-.663 1.062-4.842 7.168-7.978 15.239-9.259 23.69h-66.046c-4.143 0-7.5 3.357-7.5 7.5s3.357 7.5 7.5 7.5h65.741c1.071 9.837 4.656 19.095 10.465 27.097l-55.541 26.536c-3.737 1.786-5.319 6.264-3.534 10.001 1.287 2.694 3.974 4.269 6.772 4.269 1.084 0 2.186-.236 3.229-.734l59.973-28.653c10.225 8.181 22.978 12.816 36.15 13.149 23.376 22.448 53.975 34.772 86.514 34.772s63.138-12.324 86.515-34.774c13.17-.333 25.924-4.968 36.15-13.149l59.973 28.653c1.044.498 2.145.734 3.229.734 2.799 0 5.485-1.574 6.772-4.269 1.785-3.737.203-8.215-3.534-10.001l-55.541-26.536c5.809-8.002 9.395-17.26 10.465-27.097h65.741c4.143 0 7.5-3.357 7.5-7.5s-3.358-7.499-7.501-7.499zm-315.408-155.029v-199.545c0-10.956 4.263-21.248 12.01-28.984 7.731-7.741 18.023-12.004 28.978-12.004 22.601 0 40.987 18.388 40.987 40.988v145.906c-5.914 1.125-11.701 2.663-17.327 4.588v-150.492c0-13.046-10.614-23.66-23.66-23.66s-23.659 10.614-23.659 23.66v82.94c0 4.143 3.357 7.5 7.5 7.5s7.5-3.357 7.5-7.5v-82.94c0-4.775 3.885-8.66 8.659-8.66 4.775 0 8.66 3.885 8.66 8.66v156.716c-6.039 2.967-11.83 6.397-17.319 10.254v-49.03c0-4.143-3.357-7.5-7.5-7.5s-7.5 3.357-7.5 7.5v61.335c-6.423 6.122-12.241 12.908-17.329 20.268zm161.627-199.545c0-4.776 3.886-8.663 8.662-8.663 4.777 0 8.663 3.887 8.663 8.663v166.549c-5.525-3.845-11.316-7.228-17.325-10.135zm-80.813 398.49c6.879-5.169 12.713-10.494 17.325-15.145v24.584c0 .32-.261.581-.581.581h-16.163c-.32 0-.581-.261-.581-.581zm32.325-15.145c4.612 4.651 10.446 9.976 17.325 15.145v9.439c0 .32-.261.581-.581.581h-16.163c-.32 0-.581-.261-.581-.581zm-22.14-33.681c.289-.383.941-1.026 2.064-1.026h25.15c1.123 0 1.775.644 2.064 1.026.297.394.746 1.221.427 2.34-1.716 5.992-5.144 13.959-15.066 13.959-9.923 0-13.351-7.967-15.066-13.96-.319-1.118.13-1.945.427-2.339zm-51.587 69.2c9.572-2.316 18.438-6.093 26.421-10.565.199 8.42 7.096 15.21 15.562 15.21h16.163c2.961 0 5.721-.845 8.081-2.285 2.36 1.44 5.12 2.285 8.081 2.285h16.163c8.467 0 15.363-6.791 15.562-15.211 7.983 4.473 16.849 8.249 26.421 10.565-18.972 14.371-41.985 22.149-66.227 22.149s-47.255-7.778-66.227-22.148z"/></g></svg>