<svg id="Capa_1" enable-background="new 0 0 512 512" height="512" viewBox="0 0 512 512" width="512" xmlns="http://www.w3.org/2000/svg"><g><g><g><path d="m308.894 95.207c3.09-4.412 6.514-13.751 6.514-13.751 36.629-44.492 85.807-65.614 109.785-48.825.761.533 1.495 1.103 2.202 1.709 1.018.872 1.557 1.928 2.462 2.945 20.061 22.521 8.937 78.102-25.555 127.362z" fill="#8b818e"/><path d="m305.77 94.138c3.09-4.41 6.308-8.641 9.638-12.681 15.81 3.78 31.102 9.691 45.382 17.611 15.33 8.505 29.325 19.226 41.517 31.724 3.422 3.507 9.295 2.583 11.379-1.852 17.762-37.809 22.579-74.133 13.455-94.822 23.88 19.99 17.28 80.1-18.9 131.77l-10.87-7.61s0-.001.001-.001z" fill="#756e78"/><path d="m331.118 111.32c26.668-38.086 67.494-56.635 74.969-51.401 8.013 5.611 4.008 49.942-22.66 88.028z" fill="#faf8f8"/><path d="m331.12 111.318 52.31 36.63c5.23-7.47 9.58-15.17 13.14-22.78-10.78-10.11-22.8-18.9-35.78-26.1-4.48-2.48-9.05-4.77-13.71-6.85-5.61 5.68-11.03 12.05-15.96 19.1z" fill="#f0e9e6"/></g><g><path d="m203.105 95.207c-3.09-4.412-6.514-13.751-6.514-13.751-36.629-44.492-85.807-65.614-109.785-48.825-.761.533-1.495 1.103-2.202 1.709-1.018.872-1.557 1.928-2.462 2.945-20.061 22.521-8.937 78.102 25.555 127.362z" fill="#8b818e"/><path d="m206.23 94.138c-3.09-4.41-6.308-8.641-9.638-12.681-15.81 3.78-31.102 9.691-45.382 17.611-15.33 8.505-29.325 19.226-41.516 31.724-3.422 3.507-9.295 2.583-11.379-1.852-17.762-37.81-22.579-74.134-13.455-94.822-23.88 19.99-17.28 80.1 18.9 131.77l10.87-7.61s0-.001-.001-.001z" fill="#756e78"/><path d="m180.882 111.32c-26.668-38.086-67.494-56.635-74.969-51.401-8.013 5.611-4.008 49.942 22.66 88.028z" fill="#faf8f8"/><path d="m180.88 111.318-52.31 36.63c-5.23-7.47-9.58-15.17-13.14-22.78 10.78-10.11 22.8-18.9 35.78-26.1 4.48-2.48 9.05-4.77 13.71-6.85 5.61 5.68 11.03 12.05 15.96 19.1z" fill="#f0e9e6"/></g><path d="m475.33 303.778c-40.68 46.85-116.15 84.36-175.33 84.36h-88c-55.37 0-124.98-32.83-167.04-75.42l18.31-104.67c13.44-11.19 29.562-23.551 38.962-38.611 30.27-48.49 79.011-78.427 136.171-78.427l6.853-.492h28.383c57.16 0 110.29 29.46 140.56 77.95 8.81 14.1 19.61 26.69 31.99 37.42z" fill="#8b818e"/><path d="m254.36 90.518c-57.16 0-110.29 29.46-140.56 77.95-5.44 8.72-11.65 16.85-18.53 24.33-.06.02-8.958 11.648-8.958 11.648l-23.042 3.602c13.44-11.19 25.13-24.52 34.53-39.58 30.27-48.49 83.4-77.95 140.56-77.95z" fill="#756e78"/><path d="m333.259 341.568c-7.58-3.3-18.449-6.47-24.949-12.87-7.62 1.5-14.89 4.47-21.46 8.82l-7.032 4.657c-.899.596-1.948.911-3.027.906-7.179-.034-34.382-.032-41.581.001-1.078.005-2.128-.31-3.027-.906l-7.033-4.658c-4.88-3.24-10.2-5.73-15.77-7.4-1.42-.43-2.86-.8-4.3-1.12-6.57 6.49-20.441 9.55-28.961 12.57l32.608 15.788c-4.939 7.946-5.95 17.775-2.657 26.592l1.54 4.12c1.47.05 2.94.07 4.39.07h88c1.45 0 2.92-.02 4.39-.08l1.54-4.11c3.417-9.149 2.199-19.389-3.235-27.483z" fill="#756e78"/><path d="m308.711 459.748c-1.064 1.185-1.314 4.397-1.314 4.397-6.267 6.132-13.53 11.047-21.417 14.563-9.3 4.15-19.48 6.36-29.89 6.36s-20.59-2.21-29.89-6.36c-7.9-3.521-15.173-8.447-21.447-14.593 0 0-.497-3.194-1.551-4.368-8.47-9.43-16.152-18.39-26.642-25.32 0 0 26.021 11.532 39.881 11.532 13.65 0 28.971-2.622 40.211-11.532 22.61 17.92 51.695 18.681 76.005 3.151-.001.001-15.136 12.36-23.946 22.17z" fill="#8b818e"/><path d="m223.78 286.068-178.82 26.65c-10.57-10.71-17.788-22.72-24.208-34.29-6.857-12.337-9.406-22.641-9.991-35.1-.084-1.798 1.04-3.418 2.743-4 3.962-1.354 8.655-6.19 8.655-6.19 14.707-6.32 28.937-14.887 41.11-25.09 17.46-14.14 68.3-28.46 97.73-21.98 31.939 7.042 47.81 27.355 55.585 49.657 0 0-2.476 5.034-1.796 7.573 4.031 15.045 8.992 30.409 8.992 42.77z" fill="#faf8f8"/><path d="m334.49 439.108c-8.681 6.223-16.607 13.59-23.8 21.6-1.07 1.19-2.163 2.337-3.293 3.437-4.31.68-8.667 1.013-13.017 1.013-13.87 0-26.96-3.49-38.4-10.17-11.41 6.65-24.47 10.12-38.3 10.12-4.33 0-8.657-.333-12.927-.993-1.12-1.09-2.203-2.227-3.263-3.407-6.605-7.354-13.546-14.264-21.414-20.124 0 0 23.413 7.688 37.273 7.688 13.65 0 27.411-4.429 38.651-13.339 19.43 15.4 44.914 15.831 67.284 6.651 3.662-1.503 11.206-2.476 11.206-2.476z" fill="#756e78"/><path d="m501.688 237.705c1.696.58 2.824 2.19 2.74 3.98-.415 8.881-2.627 17.842-6.344 26.724 0 0-5.733 1.357-6.222 2.421-5.04 10.98-7.522 22.577-16.532 32.947l-178.77-17.71c0-14.606-.501-50.97-.501-50.97 8.142-22.807 24.194-43.298 54.941-49.03 43.21-11.02 80.51 8.62 95.19 19.82 15.531 13.612 35.229 24.887 55.498 31.818z" fill="#faf8f8"/><path d="m223.78 286.068c0-14.44-1.15-32.97-7.19-50.31-14.11-14.36-33.98-23.47-55.59-23.47-2.28 0-4.98.11-8.25.33-34.18 2.31-68 13.04-97.8 31.03l-21.62 13.047c-2.883 1.74-6.624.188-7.442-3.079-1.799-7.179-3.115-14.412-3.728-20.478-3.93 1.69-7.88 3.22-11.84 4.57-1.71.58-2.83 2.2-2.75 4 .59 12.45 4.7 25.07 11.56 37.41.34.62.69 1.24 1.06 1.86 0 0 14.588 21.423 24.77 31.74z" fill="#f0e9e6"/><path d="m498.084 268.41c-.44 1.07-.915 2.128-1.405 3.198-5.04 10.98-12.34 21.8-21.35 32.17l-187.11-17.71c0-14.6 1.59-33.46 7.83-50.96 14.07-13.97 33.67-22.82 54.95-22.82 2.28 0 4.98.11 8.25.33 34.18 2.31 68 13.04 97.8 31.03z" fill="#f0e9e6"/><path d="m182.104 343.569c23.174-8.231 41.68-31.502 41.68-57.5 0-33.018-29.766-59.784-62.784-59.784-2.025 0-4.507.108-7.3.297-32.379 2.193-63.728 12.279-91.513 29.048l-41.998 25.345-9.035 6.844c-1.219.736-1.978 2.065-1.933 3.488 1.525 49.096 53.931 95.261 113.092 119.263 0 0 4.83-.84 7.679.187 21.419 7.718 40.543 17.376 62.009 17.376 35.37 0 37.958-9.97 64-26.73 26.042 16.76 28.63 26.73 64 26.73 13.086 0 23.808-6.392 37.138-9.421 11.444-2.601 35.043-8.141 35.043-8.141 4.407-1.788 14.592-3.588 14.592-3.588 53.297-25.497 96.28-70.611 97.691-116.051.044-1.423-.714-2.752-1.933-3.488l-52.717-31.814c-27.785-16.768-59.135-26.855-91.513-29.048-2.793-.189-5.275-.297-7.3-.297-33.018 0-62.784 26.766-62.784 59.784 0 24.551 20.516 48.296 41.68 57.5l-77.153 36.583z" fill="#756e78"/><path d="m380.69 369.838-11.8-16.8c-5.48-7.82-12.88-14.3-21.39-18.72-8.5-4.42-18.04-6.75-27.6-6.75-3.92 0-7.8.38-11.59 1.13 6.5 6.4 14.01 11.57 21.59 14.87l-77.16 36.58-70.64-36.58c8.52-3.02 16.41-8.08 22.98-14.57-4.25-.95-8.59-1.43-12.98-1.43-19.47 0-37.79 9.52-48.99 25.47l-11.79 16.79-18.271 26.016c-1.946 2.77-5.712 3.576-8.604 1.817-47.026-28.603-84.246-75.272-84.255-116.673v-.01l-10.72 6.47c-1.22.73-1.98 2.06-1.93 3.49 1.52 49.09 51.58 97.81 110.74 121.81 0 0 7.47-2.55 10.9-2.16-.236-.104-.472-.212-.708-.317.632.19 1.154.356 1.518.487 21.42 7.72 40.54 17.38 62.01 17.38 35.37 0 37.96-9.97 64-26.73 26.04 16.76 28.63 26.73 64 26.73 13.09 0 23.81-6.4 37.14-9.43 11.44-2.6 36.58-5.96 36.58-5.96 4.41-1.79 8.763-3.704 13.053-5.764z" fill="#665e66"/><path d="m393.73 412.778-19.5 6.29-1.1.38c-11.41 3.89-22.26 9.15-32.32 15.62l-.28.18-6.04 3.86c-21.747 13.892-49.247 16.486-70.99 4.05 0 0-3.482-4.91-5.16-6.116-1.368-.983-3.2-.968-4.581-.003-1.669 1.166-5.26 6.065-5.26 6.065-9.331 5.141-20.502 8.142-30.818 8.004-13.86 0-27.95-4.26-40.2-12.12l-4.56-2.92-1.55-1c-10.07-6.47-20.92-11.73-32.33-15.62l-1.1-.38-19.67-6.29 36.3-51.7c8.59-12.23 22.59-19.51 37.53-19.51 4.5 0 8.96.66 13.22 1.95 4.27 1.28 8.34 3.18 12.1 5.67l38.49 25.49h.18l38.49-25.49c7.51-4.97 16.31-7.62 25.32-7.62 7.47 0 14.7 1.82 21.15 5.17 6.44 3.35 12.09 8.22 16.38 14.34z" fill="#faf8f8"/><path d="m277.572 357.069h-43.145c-1.467 0-2.919.214-4.251.566-8.98 2.38-14.456 12.142-10.986 21.412l2.283 6.111 4.463 7.649c4.92 13.15 15.088 19.83 29.128 19.83 10.569 0 20.311-4.941 26.571-12.999-.788-2.052 0 0 0 0 2.052-2.64 3.811-3.565 5.025-6.809l3.935-7.849 2.22-5.934c3.979-10.638-3.885-21.977-15.243-21.977z" fill="#8b818e"/><path d="m290.59 384.978-3.07 8.23c-1.22 3.25-2.9 6.22-4.95 8.86-6.26 8.06-16 13-26.57 13-14.04 0-26.6-8.71-31.52-21.86l-3.08-8.24c8.13 8.12 20.81 13.1 34.6 13.1 13.73 0 26.37-4.94 34.5-13h.01c.03-.03.06-.06.08-.09z" fill="#756e78"/></g><g><path d="m508.375 282.212-6.572-3.966c6.765-13.478 10.197-26.774 10.197-39.613 0-3.214-2.047-6.07-5.091-7.103-35.812-11.346-67.818-36.301-87.511-68.845 34.538-54.073 39.384-115.691 10.097-136.198-14.939-10.461-37.921-9.245-63.047 3.333-23.24 11.634-45.71 31.319-63.693 55.69-9.6-1.641-19.343-2.496-29.12-2.496h-35.271c-9.78 0-19.527.855-29.131 2.498-10.123-13.722-21.62-25.935-34.259-36.316-3.203-2.629-7.927-2.165-10.556 1.036s-2.165 7.927 1.036 10.556c10.02 8.229 19.272 17.724 27.63 28.284-5.427 1.47-10.781 3.203-16.044 5.193-15.533-17.862-31.715-28.424-40.335-33.282-9.394-5.293-26.444-13.269-35.093-7.21-12.84 8.99-7.083 49.015 11.313 83.051-3.828 4.02-7.465 8.222-10.894 12.595-28.868-48.318-30.195-97.149-10.923-110.644 10.051-7.037 27.023-5.62 46.567 3.886 3.724 1.812 8.213.261 10.025-3.463 1.812-3.725.261-8.213-3.463-10.025-24.588-11.96-47.088-12.939-61.732-2.685-29.297 20.514-24.447 82.117 10.097 136.197-19.511 32.23-51.325 57.38-87.511 68.845-3.044 1.033-5.091 3.889-5.091 7.103 0 12.838 3.432 26.135 10.196 39.613l-6.571 3.966c-2.25 1.358-3.625 3.794-3.625 6.421 0 54.281 54.238 115.574 116.139 131.32 2.157.708 18.849 6.011 20.484 6.59 22.736 7.756 43.236 21.305 59.284 39.18 15.318 17.061 37.253 26.846 60.182 26.846s44.864-9.785 60.183-26.847c16.048-17.875 36.548-31.423 59.284-39.179l20.472-6.642c25.259-7.286 49.282-20.991 69.486-39.65 3.044-2.81 3.232-7.555.422-10.598-2.81-3.042-7.554-3.231-10.599-.421-17.19 15.875-37.356 27.814-58.602 34.755l-10.154-14.456 19.887-9.483c3.738-1.783 5.324-6.259 3.541-9.998s-6.259-5.326-9.998-3.542l-22.174 10.573-12.887-18.347 21.706-18.484c3.154-2.686 3.533-7.419.848-10.573s-7.419-3.534-10.572-.847l-21.785 18.552c-7.333-6.448-16.325-10.782-25.978-12.489-16.758-8.853-33.451-28.246-33.451-48.823 0-27.852 25.833-52.283 55.283-52.283 32.152.699 66.62 11.111 94.938 28.266l50.938 30.741c-.973 16.584-7.708 34.264-19.625 51.409-2.364 3.401-1.523 8.075 1.878 10.439 1.305.907 2.797 1.342 4.273 1.342 2.373 0 4.708-1.124 6.165-3.22 14.675-21.113 22.432-43.289 22.432-64.131 0-2.627-1.375-5.063-3.625-6.421zm-135.212-238.977c19.753-9.889 37.595-11.555 47.729-4.46 19.264 13.489 17.94 62.329-10.922 110.645-3.43-4.373-7.066-8.575-10.894-12.594 18.394-34.033 24.151-74.061 11.313-83.051-8.651-6.058-25.696 1.915-35.087 7.206-8.62 4.857-24.806 15.419-40.342 33.286-5.264-1.99-10.62-3.724-16.049-5.194 15.759-19.838 35.103-36.252 54.252-45.838zm14.66 82.783c-9.257-8.12-19.369-15.274-30.183-21.271-2.68-1.486-5.405-2.881-8.155-4.22 21.272-22.925 44.762-33.52 52.096-33.999 2.086 6.721.32 31.732-13.758 59.49zm-277.403-59.488c7.335.479 30.824 11.075 52.096 33.998-2.751 1.339-5.476 2.734-8.156 4.22-10.813 5.996-20.925 13.15-30.182 21.271-14.079-27.758-15.845-52.768-13.758-59.489zm-95.294 226.26 43.56-26.288c3.546-2.14 4.687-6.75 2.546-10.296-2.14-3.546-6.749-4.686-10.296-2.546l-27.856 16.811c-4.443-9.112-7.071-18.005-7.84-26.562 18.163-6.362 37.24-17.216 52.515-29.842 14.69-12.16 63.599-26.853 91.631-20.673 24.752 5.456 41.268 20.069 49.861 44.278-12.698-11.625-29.771-18.885-48.247-18.885-2.101 0-4.727.105-7.807.314-24.35 1.649-48.154 7.554-70.75 17.55-3.788 1.676-5.5 6.105-3.825 9.893 1.676 3.789 6.107 5.5 9.893 3.825 20.992-9.287 43.095-14.771 65.695-16.302 2.744-.186 5.03-.28 6.794-.28 29.45 0 55.284 24.431 55.284 52.283 0 19.951-13.272 39.848-32.356 48.656-10.066 1.565-19.466 5.966-27.074 12.656l-21.784-18.551c-3.152-2.685-7.887-2.306-10.573.847-2.686 3.154-2.306 7.887.847 10.573l21.705 18.484-12.892 18.345-22.169-10.571c-3.739-1.785-8.215-.197-9.998 3.542s-.197 8.215 3.542 9.998l19.878 9.478-10.259 14.597c-51.428-15.362-97.311-66.419-100.025-111.334zm125.24 119.181c-.094-.034-9.369-3.004-10.115-3.245l8.892-12.653 28.869 13.766c1.042.497 2.141.732 3.223.732 2.801 0 5.489-1.577 6.775-4.274 1.783-3.739.197-8.215-3.542-9.998l-26.578-12.673 10.63-15.125 30.857 26.278c1.412 1.202 3.14 1.79 4.859 1.79 2.122 0 4.23-.896 5.713-2.637 2.686-3.154 2.306-7.887-.847-10.573l-30.66-26.111c6.674-5.227 14.985-8.179 23.662-8.179 7.556 0 14.879 2.205 21.186 6.38l3.302 2.181c-.603.684-1.172 1.404-1.699 2.163-4.44 6.403-5.462 14.582-2.731 21.88l5.299 14.166c5.089 13.605 17.064 23.406 31.04 26.027v12.404c-18.781 12.856-45.216 12.36-66.972-1.595-12.094-8.12-26.513-15.902-41.163-20.704zm137.206-47.402c2.919 0 5.546 1.375 7.21 3.773 1.663 2.398 2.03 5.342 1.008 8.075l-5.3 14.166c-3.801 10.16-13.643 16.986-24.49 16.986s-20.69-6.826-24.491-16.986l-5.299-14.166c-1.022-2.733-.655-5.677 1.008-8.075s4.291-3.773 7.209-3.773zm-21.483 113c-17.577 0-34.435-7.064-46.759-19.481 16.592 1.77 33.078-1.826 46.664-10.768 11.362 7.501 24.763 11.263 38.567 11.263 2.736 0 5.488-.151 8.243-.447-12.322 12.388-29.16 19.433-46.715 19.433zm55.962-83.637c1.483 1.742 3.592 2.637 5.714 2.637 1.719 0 3.447-.588 4.858-1.79l30.857-26.277 10.625 15.127-26.573 12.671c-3.738 1.783-5.324 6.259-3.541 9.998 1.286 2.697 3.974 4.274 6.774 4.274 1.082 0 2.182-.235 3.224-.732l28.86-13.761 8.904 12.676-9.827 3.18c-13.719 4.376-28.963 12.463-41.472 20.853-21.748 13.896-48.157 14.367-66.954 1.486v-12.406c13.975-2.621 25.949-12.422 31.039-26.027l5.3-14.166c2.73-7.298 1.709-15.477-2.731-21.88-.526-.759-1.096-1.479-1.699-2.163l3.309-2.186c6.299-4.171 13.622-6.376 21.179-6.376 8.677 0 16.988 2.952 23.662 8.18l-30.66 26.11c-3.155 2.685-3.534 7.418-.848 10.572zm46.756-174.832c-19.284-2.19-41.484 5.054-55.428 18 4.99-13.709 13.074-26.519 26.043-34.835 3.487-2.236 4.502-6.875 2.266-10.362s-6.876-4.501-10.361-2.265c-35.334 22.656-40.609 70.142-40.609 96.432 0 19.859 10.917 37.64 24.515 50.056-5.216 1.49-10.2 3.77-14.789 6.809l-10.273 6.785c-5.201-.216-41.618-.316-48.342 0l-10.265-6.781c-4.2-2.781-8.729-4.926-13.461-6.414 14.365-12.97 23.181-31.411 23.181-50.456 0-61.17-23.104-97.279-68.669-107.324-18.184-4.008-44.504-.618-67.026 6.149 3.029-4.016 5.892-8.17 8.569-12.458 6.605-10.578 14.306-20.176 22.892-28.713 14.067-14.029 32.419-26.386 51.366-34.023 18.684-7.613 38.966-11.684 59.95-11.684h35.271c20.408-.043 42.635 4.298 61.437 12.305 29.599 12.418 55.083 33.788 72.771 62.115 1.843 2.951 3.775 5.837 5.786 8.66-15.552-4.965-34.976-7.906-56.652-3.997-4.076.735-6.785 4.635-6.05 8.711.734 4.077 4.631 6.783 8.712 6.05 43.852-7.903 78.231 17.11 82.006 19.989.043.033.091.054.135.086 16.12 13.871 34.755 24.78 54.98 31.972-.77 8.557-3.399 17.451-7.841 26.563l-35.231-21.261c-28.92-17.452-61.73-27.864-94.883-30.109z"/><g><g><path d="m176 302.478c-4.142 0-7.5-3.358-7.5-7.5v-20c0-4.142 3.358-7.5 7.5-7.5s7.5 3.358 7.5 7.5v20c0 4.142-3.358 7.5-7.5 7.5z"/></g><g><path d="m336 302.478c-4.143 0-7.5-3.358-7.5-7.5v-20c0-4.142 3.357-7.5 7.5-7.5s7.5 3.358 7.5 7.5v20c0 4.142-3.357 7.5-7.5 7.5z"/></g></g></g></g></svg>