<svg id="Capa_1" enable-background="new 0 0 512.009 512.009" height="512" viewBox="0 0 512.009 512.009" width="512" xmlns="http://www.w3.org/2000/svg"><g><g><path d="m227.237 307.607-2.923-3.026h-25.239l-26.728 104.75-20.45 7.25-.663.5h97.413l4.116-4.786z" fill="#d5c6e4"/><path d="m200.145 307.607 2.93-3.026h-33l-2.93 3.026-25.526 104.688 4.695 4.786h33l-4.695-4.786z" fill="#c6b4da"/><path d="m253.614 412.295h-89.628l-12.089 4.286-10.278 7.75-7.972 14.25-2 12v7.5h154.75l6.717-5.786v-.5c0-21.725-17.775-39.5-39.5-39.5z" fill="#e2d8ec"/><path d="m134.268 451.795c0-21.725 17.775-39.5 39.5-39.5h-33c-21.725 0-39.5 17.775-39.5 39.5v.5l5.689 5.786h33l-5.689-5.786z" fill="#d5c6e4"/><path d="m378.314 302.729-178.222-178.941-7.612 13.793-14.755 38.667v37.439l6.691 37.049 43.48 44.845 1.546 9.092c45.302 26.492 101.248 27.857 147.647 4.098l-.002-.004z" fill="#f9f6f6"/><g><path d="m199.046 131.818.002.002c1.014-1.98 2.08-3.94 3.181-5.886l-24.083-24.18h-8.072l-.002-.002c-23.99 46.85-22.366 103.432 4.876 148.964h9.448l5.076 5.235c-13.378-40.637-10.192-85.532 9.574-124.133z" fill="#e2d8ec"/></g><path d="m213.691 247.405h-7.294l-16.5 17.175v31.75l8.75 16.5 10.022 4.583 5.022.669c13.289-6.216 22.5-19.698 22.5-35.339 0-15.639-9.211-29.122-22.5-35.338z" fill="#3351c5"/><path d="m191.191 282.744c0-15.64 9.211-29.123 22.5-35.339-5.012-2.344-10.601-3.661-16.5-3.661-21.539 0-39 17.461-39 39s17.461 39 39 39c5.899 0 11.488-1.317 16.5-3.661-13.289-6.216-22.5-19.699-22.5-35.339z" fill="#213993"/><path d="m228.084 92.914-4.937.667-14.478 14.667-11.416 20.684 179.834 179.834c13.93-7.133 27.003-16.52 38.666-28.182z" fill="#5169cd"/><path d="m227.541 92.371-29.283-29.283c-11.662 11.662-21.049 24.736-28.183 38.666l29.355 29.355c7.211-13.909 16.58-26.985 28.111-38.738z" fill="#3351c5"/><path d="m462.184 16.657c-3.016-3.016-6.497-5.284-10.211-6.808h-6.992l-10.833 9.731-4.065 11.227v20.273l10.017 13.667 5.85 2 6.025.89c3.714-1.525 7.194-3.792 10.211-6.808 12.195-12.198 12.195-31.974-.002-44.172z" fill="#8dcafc"/><path d="m441.762 60.829c-12.198-12.198-12.198-31.974 0-44.172 3.016-3.016 6.497-5.284 10.211-6.808-11.305-4.641-24.78-2.373-33.961 6.808-12.198 12.198-12.198 31.974 0 44.172 9.181 9.181 22.656 11.449 33.961 6.808-3.714-1.524-7.194-3.792-10.211-6.808z" fill="#31a7fb"/><path d="m339.63 452.295h-248.949l-5.534 3.286-4 7.875v30.75l3.375 6.75 6.578 3.554h248.53c7.766 0 14.061-6.295 14.061-14.061v-24.092c0-7.767-6.295-14.062-14.061-14.062z" fill="#f9f6f6"/><path d="m82.691 490.448v-24.092c0-7.766 6.295-14.061 14.061-14.061h-42c-7.766 0-14.061 6.295-14.061 14.061v24.092c0 7.766 6.295 14.061 14.061 14.061h42c-7.765 0-14.061-6.295-14.061-14.061z" fill="#e2d8ec"/></g><g><path d="m201.157 275.244h-7.955c-4.143 0-7.5 3.358-7.5 7.5s3.357 7.5 7.5 7.5h7.955c4.143 0 7.5-3.358 7.5-7.5s-3.357-7.5-7.5-7.5z"/><path d="m94.281 444.795h-39.541c-11.889 0-21.561 9.672-21.561 21.561v24.092c0 11.889 9.672 21.561 21.561 21.561h124.94c4.143 0 7.5-3.358 7.5-7.5s-3.357-7.5-7.5-7.5h-124.94c-3.617 0-6.561-2.943-6.561-6.561v-24.092c0-3.618 2.943-6.561 6.561-6.561h284.878c3.618 0 6.562 2.943 6.562 6.561v24.092c0 3.618-2.943 6.561-6.562 6.561h-124.938c-4.143 0-7.5 3.358-7.5 7.5s3.357 7.5 7.5 7.5h124.938c11.889 0 21.562-9.672 21.562-21.561v-24.092c0-11.889-9.673-21.561-21.562-21.561h-39.539c-3.142-20.949-20.16-37.414-41.368-39.718l-6.507-26.689c-.98-4.024-5.038-6.491-9.062-5.51s-6.491 5.039-5.51 9.063l5.571 22.854h-92.045l20.31-83.297c15.526 10.32 35.895 10.323 51.426 0l6.413 26.3c.98 4.024 5.04 6.494 9.062 5.51 4.024-.981 6.491-5.039 5.51-9.063l-6.565-26.923c58.783 28.212 129.483 18.249 178.301-26.258l9.469 9.469c2.93 2.929 7.678 2.929 10.607 0s2.929-7.678 0-10.606c-7.469-7.469-28.117-28.117-35.831-35.831l48.345-177.474c7.247-1.538 13.907-5.126 19.27-10.488 15.139-15.138 15.14-39.638.001-54.778-15.138-15.137-39.638-15.14-54.777 0-5.363 5.362-8.95 12.022-10.489 19.27l-177.476 48.343-35.83-35.83c-2.93-2.929-7.678-2.929-10.607 0s-2.929 7.678 0 10.606l9.467 9.467c-46.256 50.714-55.503 125.199-22.471 185.733-8.988 8.484-14.614 20.493-14.614 33.799 0 9.85 3.087 18.987 8.332 26.514l-23.363 95.819c-21.208 2.304-38.226 18.769-41.367 39.718zm102.899-130.551c-17.311 0-31.5-14.08-31.5-31.5 0-17.432 14.211-31.5 31.5-31.5 17.369 0 31.5 14.131 31.5 31.5 0 17.186-13.968 31.5-31.5 31.5zm226.125-292.284c9.252-9.254 24.311-9.254 33.563 0h.001c9.275 9.276 9.277 24.289-.001 33.565-9.253 9.255-24.312 9.253-33.564 0-9.275-9.275-9.277-24.288.001-33.565zm-4.13 49.39c4.102 2.642 8.648 4.477 13.446 5.409l-44.979 165.118-70.014-70.014zm-17.105-25.142c1.031 5.31 3.169 10.313 6.285 14.745l-101.334 100.302-70.068-70.068zm-203.69 27.621c7.738 7.738 198.622 198.621 206.621 206.62-8.614 7.778-17.554 14.005-26.579 19.055l-199.115-199.114c5.38-9.588 11.941-18.67 19.073-26.561zm-26.061 40.787 191.862 191.862c-39.435 16.743-85.172 15.724-124.547-4.74 2.502-5.583 4.046-12.17 4.046-18.994 0-25.64-20.859-46.5-46.5-46.5-6.736 0-13.512 1.518-19.412 4.239-21.17-39.723-22.433-85.984-5.449-125.867zm-30.711 305.179h111.143.852c15.241 0 28.027 10.71 31.229 25h-175.304c3.201-14.29 15.987-25 31.229-25z"/></g></g></svg>