<svg clip-rule="evenodd" fill-rule="evenodd" height="512" stroke-linejoin="round" stroke-miterlimit="2" viewBox="0 0 512 512" width="512" xmlns="http://www.w3.org/2000/svg"><g><g fill="#a3ffa2"><path d="m276.268 167.022c-.288-1.437-1.021-2.904-1.32-4.13-1.189-4.887-7.762-18.364-6.711-24.214.887-4.937 5.077-8.49 8.268-11.981 2.712-2.966 4.868-6.465 6.786-9.978 4.339-7.952 5.018-17.27 9.084-25.235 3.018-5.909 9.091-7.284 13.377-11.76 4.273-4.464 6.076-10.649 10.186-15.163 4.813-5.285 12.756-6.944 19.511-7.83 4.11 5.435 8.502 12.257 8.114 19.395-.332 6.096-3.473 11.721-3.654 17.897-.182 6.195 3.101 11.486 1.008 17.783-2.82 8.486-8.983 15.509-11.602 24.18-1.158 3.832-2.138 7.823-2.348 11.837-.247 4.723.161 10.201-2.733 14.297-3.43 4.855-17.644 9.629-21.96 12.211-1.083.648-2.643 1.155-3.868 1.959l-10.983 26.235-22.139-9.268z"/><path d="m329.038 57.863c1.79 3.712 2.928 7.706 2.531 11.733-.599 6.075-3.984 11.557-4.436 17.719-.453 6.181 2.594 11.612.227 17.811-3.19 8.354-9.655 15.099-12.653 23.647-1.325 3.778-2.479 7.722-2.865 11.722-.454 4.708-.287 10.199-3.359 14.164-3.639 4.699-18.049 8.845-22.474 11.235-1.111.6-2.691 1.037-3.951 1.787l-12.831 27.226-3.943-1.65 10.984-26.235c-.288-1.437-1.021-2.904-1.32-4.13-1.189-4.887-7.762-18.364-6.711-24.214.887-4.937 5.077-8.49 8.268-11.981 2.712-2.966 4.868-6.465 6.786-9.978 4.339-7.952 5.018-17.27 9.084-25.235 3.018-5.909 9.091-7.284 13.377-11.76 4.273-4.464 6.076-10.649 10.186-15.163 3.339-3.667 8.185-5.588 13.1-6.698z"/><path d="m222.288 179.644c-1.327-.621-2.943-.901-4.107-1.388-4.639-1.943-19.387-4.649-23.472-8.967-3.447-3.643-3.822-9.124-4.738-13.763-.778-3.943-2.315-7.755-4.005-11.383-3.826-8.212-10.924-14.287-14.922-22.286-2.966-5.936-.469-11.64-1.529-17.746-1.057-6.088-4.966-11.209-6.16-17.196-1.399-7.01 1.979-14.388 5.274-20.351 6.813-.083 14.911.43 20.426 4.978 4.71 3.883 7.374 9.75 12.238 13.56 4.878 3.822 11.086 4.32 14.912 9.741 5.158 7.305 7.153 16.433 12.579 23.687 2.397 3.205 5.029 6.362 8.135 8.913 3.654 3.001 8.307 5.923 9.886 10.684 1.872 5.641-2.719 19.915-3.201 24.922-.122 1.256-.639 2.812-.719 4.275l15.512 25.933-24.258 6.198z"/><path d="m244.103 155.541c-.819-1.215-2.062-2.284-2.811-3.3-2.985-4.049-14.252-13.942-15.541-19.744-1.088-4.897 1.404-9.793 3-14.244 1.356-3.784 1.993-7.844 2.405-11.825.932-9.011-2.04-17.868-1.365-26.785.502-6.617 5.573-10.23 7.798-16.014 2.218-5.768 1.492-12.169 3.541-17.92 2.398-6.734 9.084-11.331 14.973-14.758 5.89 3.427 12.576 8.024 14.974 14.758 2.048 5.751 1.323 12.152 3.541 17.92 2.224 5.784 7.296 9.397 7.797 16.014.676 8.917-2.297 17.774-1.364 26.785.411 3.981 1.049 8.041 2.405 11.825 1.596 4.451 4.088 9.347 3 14.244-1.289 5.802-12.557 15.695-15.541 19.744-.749 1.016-1.992 2.085-2.812 3.3v41.216h-24z"/></g><path d="m248.915 35.76c2.295-1.846 4.807-3.423 7.188-4.809 5.89 3.427 12.576 8.024 14.974 14.758 2.048 5.751 1.323 12.152 3.541 17.92 2.224 5.784 7.296 9.397 7.797 16.014.676 8.917-2.297 17.774-1.364 26.785.411 3.981 1.049 8.041 2.405 11.825 1.596 4.451 4.088 9.347 3 14.244-1.289 5.802-12.557 15.695-15.541 19.744-.749 1.016-1.992 2.085-2.812 3.3v41.216h-24v-.327h9.23v-41.216c.82-1.214 2.063-2.284 2.812-3.3 2.984-4.048 14.251-13.942 15.541-19.744 1.088-4.896-1.404-9.792-3-14.244-1.357-3.783-1.994-7.843-2.406-11.825-.932-9.01 2.041-17.868 1.365-26.785-.501-6.616-5.573-10.23-7.798-16.014-2.218-5.767-1.492-12.169-3.54-17.92-1.373-3.853-4.149-7.006-7.392-9.622z" fill="#90ef9b"/><path d="m329.038 57.863c2.163-.517 4.343-.861 6.411-1.132 4.11 5.435 8.502 12.257 8.114 19.395-.332 6.096-3.473 11.721-3.654 17.897-.106 3.611.965 6.915 1.446 10.293.259 2.406.206 4.838-.773 7.402-3.19 8.354-9.655 15.099-12.653 23.647-1.325 3.777-2.479 7.722-2.865 11.722-.454 4.707-.287 10.199-3.359 14.164-3.639 4.699-18.049 8.845-22.475 11.235-1.11.6-2.69 1.037-3.95 1.786l-12.415 26.345-13.638-5.71 12.831-27.226c1.26-.75 2.84-1.187 3.951-1.787 4.425-2.39 18.835-6.536 22.474-11.235 3.072-3.965 2.905-9.456 3.359-14.164.386-4 1.54-7.944 2.865-11.722 2.998-8.548 9.463-15.293 12.653-23.647 2.367-6.199-.68-11.63-.227-17.811.452-6.162 3.837-11.644 4.436-17.719.397-4.027-.741-8.021-2.531-11.733z" fill="#90ef9b"/><path d="m256 480.855c-13.225-25.395-34.665-45.558-60.823-57.2-40.539-17.996-68.134-52.256-68.134-101.441 0-71.174 57.784-128.957 128.957-128.957s128.957 57.783 128.957 128.957c0 49.184-27.595 83.444-68.131 101.446-26.158 11.641-47.597 31.803-60.821 57.197-.005-.002-.005-.002-.005-.002z" fill="#fe7892"/><path d="m234.933 457.855c-.004-.004.005.002.005.002 13.224-25.394 34.664-45.556 60.821-57.197 40.536-18.002 68.132-52.262 68.132-101.446 0-21.16-5.108-41.137-14.19-58.746 18.282 22.254 29.256 50.728 29.256 81.746 0 49.184-27.595 83.444-68.131 101.446-26.158 11.641-47.597 31.803-60.821 57.197l-.005-.002c-13.225-25.395-14.291-22.395-15.067-23z" fill="#ea6b83"/><path d="m182.915 252.337c4.522 1.827 1.793 13.362-3.615 26.742-5.408 13.381-11.46 23.572-15.982 21.745-4.521-1.827-6.481-15.257-1.073-28.638 5.408-13.38 16.149-21.677 20.67-19.849z" fill="#ffacbc"/><path d="m221.819 88.494c-2.085-2.462-4.507-4.211-7.121-5.637-2.688-1.466-5.714-2.315-8.266-4.315-2.378-1.863-4.023-4.405-5.858-6.763-1.878-2.415-3.86-4.723-6.217-6.667-7.012-5.782-17.167-6.986-25.829-6.881-2.997.036-5.743 1.679-7.193 4.302-4.189 7.583-7.931 17.099-6.152 26.012.597 2.996 1.694 5.835 2.933 8.631 1.21 2.732 2.672 5.384 3.189 8.36.554 3.195-.129 6.262-.108 9.324.023 3.565.586 7.106 2.393 10.722 3.964 7.932 11.028 13.938 14.822 22.08 1.41 3.026 2.735 6.189 3.384 9.477 1.204 6.103 2.325 13.085 6.86 17.878 1.859 1.965 5.045 3.929 8.967 5.489 5.98 2.379 14.118 4.088 17.34 5.436.5.21 1.092.371 1.706.541l2.123 3.551c-57.723 16.243-100.082 69.304-100.082 132.18 0 52.841 29.533 89.723 73.085 109.058 24.43 10.872 44.46 29.708 56.814 53.432 1.52 2.919 3.717 3.967 5.321 4.326 1.809.659 2.053.198 2.069.161 3.012.002 5.915-1.638 7.397-4.485 12.353-23.722 32.382-42.558 56.818-53.433 43.543-19.336 73.076-56.219 73.076-109.059 0-60.126-38.734-111.276-92.585-129.836l4.235-10.117c.584-.257 1.147-.5 1.612-.778 2.997-1.793 10.81-4.641 16.391-7.846 3.66-2.101 6.535-4.498 8.097-6.708 3.807-5.388 3.924-12.458 4.249-18.671.175-3.347 1.037-6.666 2.003-9.862 2.597-8.598 8.737-15.547 11.533-23.962 1.275-3.836 1.329-7.421.845-10.953-.415-3.034-1.527-5.973-1.432-9.214.089-3.019 1.159-5.852 1.969-8.728.829-2.944 1.511-5.91 1.677-8.961.493-9.075-4.563-17.963-9.787-24.873-1.808-2.391-4.76-3.627-7.732-3.237-8.589 1.127-18.469 3.763-24.588 10.483-2.057 2.259-3.691 4.825-5.207 7.482-1.481 2.595-2.748 5.346-4.837 7.528-2.242 2.341-5.117 3.612-7.569 5.445-.463.346-.917.703-1.36 1.074-.016-.489-.042-.978-.079-1.467-.305-4.031-1.641-7.358-3.45-10.43-1.555-2.638-3.716-4.92-4.879-7.946-1.085-2.819-1.192-5.846-1.555-8.812-.373-3.035-.889-6.034-1.914-8.912-3.049-8.562-11.145-14.808-18.633-19.165-2.59-1.507-5.791-1.507-8.381 0-7.488 4.357-15.584 10.603-18.634 19.165-1.025 2.878-1.541 5.877-1.913 8.912-.364 2.966-.47 5.993-1.555 8.812-1.164 3.026-3.325 5.308-4.879 7.946-1.81 3.072-3.145 6.399-3.45 10.43-.24 3.165-.012 6.321.337 9.481zm34.15 400.697c-1.214-.003-2.445-.274-3.608-.839.623.303 1.14.522 1.569.678 1.068.243 1.873.179 2.039.161h.03l.001-.003zm118.855-187.833c-3.475-19.906-11.837-38.141-23.806-53.425-.659.168-1.35.258-2.061.258h-23.29c-4.6 0-8.334-3.734-8.334-8.334 0-4.599 3.734-8.333 8.334-8.333h9.833c-21.23-18.631-49.056-29.934-79.5-29.934s-58.27 11.303-79.5 29.934h32.5c4.599 0 8.333 3.734 8.333 8.333 0 4.6-3.734 8.334-8.333 8.334h-48.219c-11.861 15.231-20.149 33.374-23.605 53.167h15.491c4.599 0 8.333 3.734 8.333 8.333 0 4.6-3.734 8.334-8.333 8.334h-16.667c-.185 0-.369-.006-.552-.018-.048 1.39-.072 2.795-.072 4.207 0 18.694 4.326 35.046 12.021 48.978h119.269c4.6 0 8.334 3.734 8.334 8.333 0 4.6-3.734 8.334-8.334 8.334h-107.515c10.475 11.892 23.932 21.31 39.407 28.18.002.001.005.002.007.003 23.438 10.431 43.323 27.281 57.438 48.469 14.113-21.184 33.997-38.034 57.435-48.465.002-.001.004-.002.006-.002 15.478-6.874 28.937-16.296 39.406-28.185h-19.517c-4.599 0-8.333-3.734-8.333-8.334 0-4.599 3.734-8.333 8.333-8.333h31.271c7.694-13.932 12.02-30.284 12.02-48.978 0-1.405-.024-2.804-.072-4.189h-23.885c-4.6 0-8.334-3.734-8.334-8.334 0-4.599 3.734-8.333 8.334-8.333zm-155.491 16.667h66.667c4.599 0 8.333-3.734 8.333-8.334 0-4.599-3.734-8.333-8.333-8.333h-66.667c-4.599 0-8.333 3.734-8.333 8.333 0 4.6 3.734 8.334 8.333 8.334zm65.181-130.131 6.205-14.822c.641-1.533 1.726-2.838 3.115-3.75 1.323-.868 2.992-1.442 4.162-2.142 2.685-1.606 9.048-4.065 14.489-6.835 2.078-1.057 4.129-1.881 4.943-3.033.853-1.207.887-2.721.992-4.189.138-1.941.129-3.897.225-5.735.245-4.68 1.342-9.343 2.692-13.812 2.642-8.745 8.828-15.84 11.672-24.398.752-2.262.035-4.296-.387-6.371-.596-2.927-1.135-5.89-1.043-9.028.092-3.143.737-6.182 1.565-9.183.817-2.963 1.931-5.86 2.098-8.922.194-3.574-1.5-6.93-3.551-9.966-3.602.669-7.182 1.818-9.591 4.464-2.065 2.267-3.347 5.094-4.885 7.756-1.557 2.695-3.269 5.288-5.443 7.559-2.171 2.267-4.661 3.962-7.164 5.592-1.775 1.155-3.727 2.072-4.811 4.195-3.587 7.025-4.583 15.087-7.705 22.363 1.893 5.277 3.754 11.021 2.499 16.667-.587 2.642-2.313 5.962-4.878 9.314-3.911 5.112-10.018 10.756-12.09 13.567-.321.436-.747.878-1.186 1.34v27.913c2.716.405 5.406.891 8.077 1.456zm-65.038-68.442c-3.665-6.464-5.805-13.749-10.079-19.803-1.374-1.948-3.437-2.578-5.358-3.469-2.709-1.258-5.414-2.582-7.885-4.518-2.475-1.939-4.538-4.261-6.463-6.708-1.901-2.416-3.572-5.032-5.937-6.983-2.761-2.277-6.468-2.905-10.129-3.056-1.598 3.297-2.798 6.86-2.098 10.369.6 3.008 2.115 5.717 3.345 8.534 1.245 2.853 2.316 5.77 2.854 8.867.537 3.093.424 6.103.25 9.085-.123 2.114-.543 4.229.523 6.362 4.031 8.066 11.162 14.211 15.02 22.491 1.972 4.231 3.721 8.691 4.628 13.289.356 1.806.625 3.743 1.038 5.645.313 1.438.561 2.932 1.577 4.005.97 1.025 3.117 1.549 5.324 2.301 5.78 1.968 12.428 3.497 15.314 4.706 1.257.526 2.991.858 4.423 1.529 1.505.705 2.764 1.843 3.617 3.268l6.33 10.583v-27.424c-.439-.461-.865-.904-1.186-1.34-2.072-2.811-8.18-8.455-12.091-13.567-2.564-3.352-4.29-6.672-4.877-9.314-1.113-5.005.224-10.087 1.86-14.852zm40.294 65.523v-29.434c0-1.661.497-3.285 1.426-4.662.885-1.311 2.203-2.486 3.011-3.583 1.857-2.518 6.776-7.244 10.726-11.9 1.508-1.777 3.082-3.329 3.388-4.707.321-1.442-.232-2.852-.703-4.247-.621-1.844-1.385-3.644-2.006-5.377-1.582-4.412-2.37-9.137-2.851-13.78-.94-9.087 2.026-18.02 1.345-27.013-.18-2.376-1.627-3.976-2.818-5.727-1.679-2.47-3.321-4.995-4.448-7.925-1.129-2.934-1.707-5.987-2.103-9.075-.39-3.049-.481-6.151-1.51-9.04-1.201-3.371-4.06-5.813-7.124-7.822-3.064 2.009-5.922 4.451-7.123 7.822-1.029 2.889-1.12 5.991-1.511 9.04-.395 3.088-.974 6.141-2.102 9.075-1.127 2.93-2.769 5.455-4.449 7.925-1.191 1.751-2.637 3.351-2.817 5.727-.681 8.993 2.284 17.926 1.344 27.013-.48 4.643-1.268 9.368-2.85 13.78-.621 1.733-1.385 3.533-2.006 5.377-.471 1.395-1.024 2.805-.704 4.247.307 1.378 1.88 2.93 3.388 4.707 3.95 4.656 8.87 9.382 10.727 11.9.808 1.097 2.126 2.272 3.011 3.583.929 1.377 1.426 3.001 1.426 4.662v29.428c1.183-.031 2.371-.046 3.563-.046 1.258 0 2.512.017 3.77.052z" fill="#8d4ba0"/></g></svg>