<svg height="512" viewBox="0 0 128 128" width="512" xmlns="http://www.w3.org/2000/svg"><g><g><path d="m106.345 43.657-7.66 2.25-7 2.06-54.94 16.18-7 2.06-6.13 1.8a3.338 3.338 0 0 1 -1.03.15 3.634 3.634 0 0 1 -1.02-7.12l82.73-24.35a3.633 3.633 0 0 1 2.05 6.97z" fill="#fecd1a"/><g fill="#fc852d"><path d="m47.065 86.867a3.5 3.5 0 0 1 -3.5 3.5h-20.64a3.5 3.5 0 1 1 0-7h6.82v-17.16l7-2.06v19.22h6.82a3.5 3.5 0 0 1 3.5 3.5z"/><path d="m109.005 68.627a3.5 3.5 0 0 1 -3.5 3.5h-20.63a3.5 3.5 0 0 1 0-7h6.81v-17.16l7-2.06v19.22h6.82a3.5 3.5 0 0 1 3.5 3.5z"/></g></g><g fill="#282d66"><path d="m57.439 52.243a1.744 1.744 0 0 0 .5-.071l1.15-.339a1.75 1.75 0 0 0 -.989-3.357l-1.151.339a1.75 1.75 0 0 0 .494 3.428z"/><path d="m105.5 63.394h-5.069v-16.157l6.4-1.883a5.382 5.382 0 1 0 -3.032-10.329l-34.181 10.059a1.75 1.75 0 0 0 .988 3.357l34.18-10.059a1.85 1.85 0 0 1 1.423.149 1.894 1.894 0 0 1 .759 2.567 1.86 1.86 0 0 1 -1.122.9l-7.621 2.243c-.013 0-.027 0-.04.007l-7 2.061a.206.206 0 0 0 -.026.012l-68.087 20.037a1.612 1.612 0 0 1 -.493.066 1.884 1.884 0 0 1 -.525-3.692l22.232-6.557a1.751 1.751 0 0 0 -.991-3.358l-22.233 6.558a5.384 5.384 0 0 0 1.517 10.549 5 5 0 0 0 1.521-.224l3.886-1.144v13.078h-5.07a5.25 5.25 0 1 0 0 10.5h20.643a5.25 5.25 0 0 0 0-10.5h-5.071v-16.165l51.441-15.141v13.066h-5.061a5.25 5.25 0 0 0 0 10.5h20.632a5.25 5.25 0 0 0 0-10.5zm-61.941 21.74a1.75 1.75 0 0 1 0 3.5h-20.641a1.75 1.75 0 1 1 0-3.5h6.82a1.749 1.749 0 0 0 1.75-1.75v-15.851l3.5-1.03v16.881a1.75 1.75 0 0 0 1.75 1.75zm61.941-14.74h-20.632a1.75 1.75 0 0 1 0-3.5h6.811a1.751 1.751 0 0 0 1.75-1.75v-15.844l3.5-1.03v16.874a1.75 1.75 0 0 0 1.75 1.75h6.821a1.75 1.75 0 0 1 0 3.5z"/></g></g></svg>