<svg id="Layer_1" viewBox="0 0 1000 1000" xmlns="http://www.w3.org/2000/svg" data-name="Layer 1"><path d="m705.61 684h-57.13c-8-74.85-71.54-133.33-148.48-133.33s-140.48 58.48-148.48 133.33h-57.13a206.23 206.23 0 0 1 411.22 0z" fill="#7c4dff"/><path d="m883.68 684h-56.95c-8.37-173-151.73-311.11-326.73-311.11s-318.36 138.11-326.73 311.11h-57a384.1 384.1 0 0 1 737.54-133.48 380.79 380.79 0 0 1 29.87 133.48z" fill="#ff3d00"/><path d="m794.68 684h-57a238.23 238.23 0 0 0 -475.38 0h-57c8.36-155.32 137.34-279.11 294.7-279.11s286.34 123.79 294.68 279.11z" fill="#ffc400"/><g fill="#fff" opacity=".5"><path d="m695.61 694h-57.13c-8-74.85-71.54-133.33-148.48-133.33s-140.48 58.48-148.48 133.33h-57.13a206.23 206.23 0 0 1 411.22 0z"/><path d="m873.68 694h-56.95c-8.37-173-151.73-311.11-326.73-311.11s-318.36 138.11-326.73 311.11h-57a384.1 384.1 0 0 1 737.54-133.48 380.79 380.79 0 0 1 29.87 133.48z"/><path d="m784.68 694h-57a238.23 238.23 0 0 0 -475.38 0h-57c8.36-155.32 137.34-279.11 294.7-279.11s286.34 123.79 294.68 279.11z"/></g><g fill="#413b32"><path d="m737.69 684a238.23 238.23 0 0 0 -475.38 0q-.53 7.95-.53 16a16 16 0 0 0 16 16h88.89a16 16 0 0 0 16-16 117.33 117.33 0 0 1 234.66 0 16 16 0 0 0 16 16h88.89a16 16 0 0 0 16-16q0-8-.53-16zm-89.21 0c-8-74.85-71.54-133.33-148.48-133.33s-140.48 58.48-148.48 133.33h-57.13a206.23 206.23 0 0 1 411.22 0z"/><path d="m827.11 700a16 16 0 0 1 -16 16h-88.89a16 16 0 0 1 0-32h88.89a16 16 0 0 1 16 16z"/><path d="m293.78 700a16 16 0 0 1 -16 16h-88.89a16 16 0 0 1 0-32h88.89a16 16 0 0 1 16 16z"/><path d="m883.28 538.06a416 416 0 0 0 -799.28 161.94 16 16 0 0 0 16 16h88.89a16 16 0 0 0 16-16q0-8.06.43-16c8.34-155.32 137.32-279.11 294.68-279.11s286.34 123.79 294.68 279.11q.44 7.95.43 16a16 16 0 0 0 16 16h88.89a16 16 0 0 0 16-16 413.4 413.4 0 0 0 -32.72-161.94zm-56.55 145.94c-8.37-173-151.73-311.11-326.73-311.11s-318.36 138.11-326.73 311.11h-57a384.1 384.1 0 0 1 737.54-133.48 380.79 380.79 0 0 1 29.87 133.48z"/></g></svg>