<svg viewBox="0 0 64 64" xmlns="http://www.w3.org/2000/svg"><g id="Rainy_Day" data-name="Rainy Day"><circle cx="46" cy="19" fill="#ffd45a" r="11"/><path d="m35 19a10.9897 10.9897 0 0 0 17.06549 9.16772 11.80291 11.80291 0 0 0 -3.07526-2.56762 8.01289 8.01289 0 0 0 -7.14746-7.5561 15.9893 15.9893 0 0 0 -4.31659-6.0492 10.94879 10.94879 0 0 0 -2.52618 7.0052z" fill="#fcb73d"/><path d="m27 48a18.84729 18.84729 0 0 1 -11.791-3.89111l-.50878-.416-.583.30176a8.99691 8.99691 0 1 1 -6.79886-16.58694l.76953-.24023-.07129-.80273c-.01074-.12403-.0166-.24512-.0166-.36475a5.00588 5.00588 0 0 1 5-5 4.07649 4.07649 0 0 1 .46582.02686l.834.09521.23829-.80518a12.99273 12.99273 0 0 1 24.92382 0l.23829.80518.834-.09521a4.07649 4.07649 0 0 1 .46578-.02686 5.00588 5.00588 0 0 1 5 5 4.2131 4.2131 0 0 1 -.05273.6543l-.11914.76806.71484.30518a8.9995 8.9995 0 0 1 -3.54297 17.27246 8.87487 8.87487 0 0 1 -3.56641-.7417l-.54-.23584-.46777.3584a19.0741 19.0741 0 0 1 -11.42582 3.61914z" fill="#aed9ff"/><path d="m27 63a3.00328 3.00328 0 0 1 -3-3c0-1.13916 1.55469-3.39014 3-5 1.44531 1.60986 3 3.86084 3 5a3.00328 3.00328 0 0 1 -3 3z" fill="#aed9ff"/><path d="m16 59a3.00328 3.00328 0 0 1 -3-3c0-1.13916 1.55469-3.39014 3-5 1.44531 1.60986 3 3.86084 3 5a3.00328 3.00328 0 0 1 -3 3z" fill="#aed9ff"/><path d="m49 63a3.00328 3.00328 0 0 1 -3-3c0-1.13916 1.55469-3.39014 3-5 1.44531 1.60986 3 3.86084 3 5a3.00328 3.00328 0 0 1 -3 3z" fill="#aed9ff"/><path d="m38 59a3.00328 3.00328 0 0 1 -3-3c0-1.13916 1.55469-3.39014 3-5 1.44531 1.60986 3 3.86084 3 5a3.00328 3.00328 0 0 1 -3 3z" fill="#aed9ff"/><g fill="#38342b"><path d="m45 7a11.97218 11.97218 0 0 0 -8.00781 3.06592 1 1 0 0 0 1.33594 1.48828 9.99753 9.99753 0 0 1 13.456 14.78906.99979.99979 0 1 0 1.35156 1.47363 11.99715 11.99715 0 0 0 -8.13569-20.81689z"/><path d="m46.93555 26.80762a5.25254 5.25254 0 0 0 .06445-.80762 6.00657 6.00657 0 0 0 -6-6 5.06858 5.06858 0 0 0 -.5791.0332 13.99283 13.99283 0 0 0 -26.8418 0 5.06858 5.06858 0 0 0 -.5791-.0332 6.00657 6.00657 0 0 0 -6 6q0 .22266.02051.45313a9.998 9.998 0 1 0 7.55566 18.42968 19.75554 19.75554 0 0 0 12.42383 4.11719 19.99788 19.99788 0 0 0 12.03418-3.8252 9.85416 9.85416 0 0 0 3.96582.8252 9.99962 9.99962 0 0 0 3.93555-19.19238zm-3.93555 17.19238a7.90087 7.90087 0 0 1 -3.64551-.88574.99969.99969 0 0 0 -1.09765.12207 17.74544 17.74544 0 0 1 -11.25684 3.76367 17.4735 17.4735 0 0 1 -11.63477-4.0752 1.00036 1.00036 0 0 0 -1.19335-.10937 7.99608 7.99608 0 1 1 -5.80958-14.64643 1.00062 1.00062 0 0 0 .76758-1.2168 3.93665 3.93665 0 0 1 -.12988-.9522 4.00427 4.00427 0 0 1 4-4 3.96111 3.96111 0 0 1 1.04883.16064 1.00013 1.00013 0 0 0 1.23926-.75 11.99329 11.99329 0 0 1 23.42382 0 1.00013 1.00013 0 0 0 1.23926.75 3.96111 3.96111 0 0 1 1.04883-.16064 4.00427 4.00427 0 0 1 4 4 3.91655 3.91655 0 0 1 -.19238 1.14893 1.001 1.001 0 0 0 .65039 1.23974 7.999 7.999 0 0 1 -2.45801 15.61133z"/><path d="m45 5a.99974.99974 0 0 0 1-1v-3a1 1 0 0 0 -2 0v3a.99974.99974 0 0 0 1 1z"/><path d="m57.02051 5.56494-2.1211 2.12158a.9999.9999 0 1 0 1.41407 1.41407l2.12109-2.12159a.99989.99989 0 1 0 -1.41406-1.41406z"/><path d="m63 18h-3a1 1 0 0 0 0 2h3a1 1 0 0 0 0-2z"/><path d="m56.31348 28.89941a.9999.9999 0 0 0 -1.41407 1.41407l2.1211 2.12158a.99989.99989 0 1 0 1.41406-1.41406z"/><path d="m33.68652 9.10059a.9999.9999 0 0 0 1.41407-1.41407l-2.1211-2.12158a.99989.99989 0 1 0 -1.41406 1.41406z"/><path d="m26.25586 54.332c-.54395.606-3.25586 3.72659-3.25586 5.668a4 4 0 0 0 8 0c0-1.94141-2.71191-5.062-3.25586-5.668a1.0316 1.0316 0 0 0 -1.48828 0zm.74414 7.668a2.00229 2.00229 0 0 1 -2-2c0-.63721.93945-2.12549 2-3.45117 1.06249 1.33252 2 2.83154 2 3.45117a2.00229 2.00229 0 0 1 -2 2z"/><path d="m4.25586 54.332c-.54395.606-3.25586 3.72659-3.25586 5.668a4 4 0 0 0 8 0c0-1.94141-2.71191-5.062-3.25586-5.668a1.0316 1.0316 0 0 0 -1.48828 0zm.74414 7.668a2.00229 2.00229 0 0 1 -2-2c0-.63721.93945-2.12549 2-3.45117 1.06249 1.33252 2 2.83154 2 3.45117a2.00229 2.00229 0 0 1 -2 2z"/><path d="m15.25586 50.332c-.54395.606-3.25586 3.72659-3.25586 5.668a4 4 0 0 0 8 0c0-1.94141-2.71191-5.062-3.25586-5.668a1.0316 1.0316 0 0 0 -1.48828 0zm.74414 7.668a2.00229 2.00229 0 0 1 -2-2c0-.63721.93945-2.12549 2-3.45117 1.06249 1.33252 2 2.83154 2 3.45117a2.00229 2.00229 0 0 1 -2 2z"/><path d="m48.25586 54.332c-.54395.606-3.25586 3.72659-3.25586 5.668a4 4 0 0 0 8 0c0-1.94141-2.71191-5.062-3.25586-5.668a1.0316 1.0316 0 0 0 -1.48828 0zm.74414 7.668a2.00229 2.00229 0 0 1 -2-2c0-.63721.93945-2.12549 2-3.45117 1.06249 1.33252 2 2.83154 2 3.45117a2.00229 2.00229 0 0 1 -2 2z"/><path d="m37.25586 50.332c-.54395.606-3.25586 3.72659-3.25586 5.668a4 4 0 0 0 8 0c0-1.94141-2.71191-5.062-3.25586-5.668a1.0316 1.0316 0 0 0 -1.48828 0zm.74414 7.668a2.00229 2.00229 0 0 1 -2-2c0-.63721.93945-2.12549 2-3.45117 1.06249 1.33252 2 2.83154 2 3.45117a2.00229 2.00229 0 0 1 -2 2z"/></g></g></svg>