<svg id="Layer_1" viewBox="0 0 96 96" xmlns="http://www.w3.org/2000/svg" data-name="Layer 1"><path d="m90.06 54.3c-1.15-1.15-2.67-1.78-4.29-1.78s-3.14.63-4.28 1.78l-11.28 11.2-7.19-7.27 12.63-12.62c.77-.76 1.19-1.77 1.19-2.85s-.42-2.1-1.19-2.87l-.74-.74c-.96-.96-2.24-1.49-3.6-1.49s-2.63.53-3.59 1.49l-11.97 11.89-5.39-5.4-5.4-5.47 11.89-11.89c.96-.96 1.49-2.24 1.49-3.6s-.53-2.63-1.49-3.59l-.74-.75c-.77-.76-1.79-1.18-2.86-1.18h-.01c-1.08 0-2.09.42-2.85 1.18l-12.7 12.64-7.19-7.27 11.2-11.2c1.15-1.14 1.78-2.67 1.78-4.29s-.63-3.14-1.78-4.28l-.07-.07c-2.36-2.36-6.21-2.36-8.57 0l-11.92 11.92c-2.12 1.97-3.36 5.14-3.23 8.26.19 4.29 3.12 9.16 4.85 11.68 4.02 5.86 8.54 10.75 13.07 15.36l-7.86 7.88c-1.81-.74-3.97-.38-5.44 1.08l-16.97 16.97c-1.95 1.95-1.95 5.13 0 7.08l4.34 4.34c.98.97 2.26 1.46 3.54 1.46s2.56-.49 3.53-1.46l16.97-16.97c1.47-1.47 1.83-3.63 1.09-5.44l7.88-7.86c4.6 4.53 9.5 9.05 15.35 13.07 2.52 1.73 7.39 4.66 11.68 4.85.16 0 .31.01.47.01 2.97 0 5.92-1.22 7.77-3.22l11.95-11.94c1.14-1.15 1.77-2.67 1.77-4.29s-.63-3.14-1.84-4.35zm-57.53 17.75-16.97 16.97c-1.17 1.17-3.07 1.17-4.24 0l-4.35-4.34c-1.17-1.17-1.17-3.07 0-4.24l16.97-16.97c.59-.59 1.36-.88 2.13-.88s1.53.29 2.12.88l4.34 4.34c1.17 1.17 1.17 3.07 0 4.24zm1.36-5.71-4.24-4.23 7.59-7.59c.7.71 1.41 1.42 2.12 2.12.7.71 1.41 1.41 2.12 2.12zm54.82-4.82-11.97 11.97c-1.58 1.71-4.16 2.71-6.71 2.6-3.93-.17-8.75-3.2-10.63-4.5-6.01-4.12-11.03-8.83-15.78-13.53-.01 0-.01-.01-.01-.01h-.01c-.95-.95-1.9-1.89-2.83-2.82-.93-.94-1.87-1.88-2.81-2.83-.01 0-.01 0-.01 0 0-.01-.01-.01-.01-.01-4.7-4.75-9.41-9.77-13.53-15.78-1.3-1.88-4.33-6.7-4.5-10.63-.11-2.56.89-5.13 2.62-6.74l11.95-11.95c1.58-1.58 4.15-1.58 5.74 0l.07.07c.76.77 1.19 1.79 1.19 2.87s-.43 2.11-1.19 2.88l-11.2 11.2c-.8.8-.8 2.1 0 2.9l7.19 7.19c.39.39.9.6 1.45.6s1.07-.21 1.45-.6l12.63-12.63c.38-.39.89-.6 1.43-.6h.01c.54 0 1.05.21 1.44.6l.75.74c.58.59.9 1.36.9 2.18s-.32 1.6-.9 2.19l-11.89 11.89c-.8.8-.8 2.1 0 2.9l10.79 10.79c.8.8 2.1.8 2.9 0l11.89-11.89c1.17-1.16 3.2-1.16 4.37 0l.74.75c.39.39.6.9.6 1.45s-.21 1.05-.6 1.43l-12.63 12.63c-.39.38-.6.9-.6 1.45s.21 1.06.6 1.45l7.19 7.19c.8.8 2.1.8 2.9 0l11.2-11.2c.77-.77 1.79-1.19 2.87-1.19s2.11.42 2.94 1.26c.77.77 1.19 1.79 1.19 2.87s-.42 2.11-1.19 2.87z"/><path d="m41.48 58.76-7.59 7.58-4.24-4.23 7.59-7.59c.7.71 1.41 1.42 2.12 2.12.7.71 1.41 1.41 2.12 2.12z" fill="#757575"/><path d="m89.9 58.65c0 1.09-.42 2.11-1.19 2.87l-11.97 11.97c-1.58 1.71-4.16 2.71-6.71 2.6-3.93-.17-8.75-3.2-10.63-4.5-6.01-4.12-11.03-8.83-15.78-13.53-.01 0-.01-.01-.01-.01h-.01c-.95-.95-1.9-1.89-2.83-2.82-.93-.94-1.87-1.88-2.81-2.83-.01 0-.01 0-.01 0 0-.01-.01-.01-.01-.01-4.7-4.75-9.41-9.77-13.53-15.78-1.3-1.88-4.33-6.7-4.5-10.63-.11-2.56.89-5.13 2.62-6.74l11.95-11.95c1.58-1.58 4.15-1.58 5.74 0l.07.07c.76.77 1.19 1.79 1.19 2.87s-.43 2.11-1.19 2.88l-11.2 11.2c-.8.8-.8 2.1 0 2.9l7.19 7.19c.39.39.9.6 1.45.6s1.07-.21 1.45-.6l12.63-12.63c.38-.39.89-.6 1.43-.6h.01c.54 0 1.05.21 1.44.6l.75.74c.58.59.9 1.36.9 2.18s-.32 1.6-.9 2.19l-11.89 11.89c-.8.8-.8 2.1 0 2.9l10.79 10.79c.8.8 2.1.8 2.9 0l11.89-11.89c1.17-1.16 3.2-1.16 4.37 0l.74.75c.39.39.6.9.6 1.45s-.21 1.05-.6 1.43l-12.63 12.63c-.39.38-.6.9-.6 1.45s.21 1.06.6 1.45l7.19 7.19c.8.8 2.1.8 2.9 0l11.2-11.2c.77-.77 1.79-1.19 2.87-1.19s2.11.42 2.94 1.26c.77.77 1.19 1.79 1.19 2.87z" fill="#757575"/><path d="m32.53 72.05-16.97 16.97c-1.17 1.17-3.07 1.17-4.24 0l-4.35-4.34c-1.17-1.17-1.17-3.07 0-4.24l16.97-16.97c.59-.59 1.36-.88 2.13-.88s1.53.29 2.12.88l4.34 4.34c1.17 1.17 1.17 3.07 0 4.24z" fill="#795548"/></svg>