<svg id="Capa_1" enable-background="new 0 0 512.309 512.309" height="512" viewBox="0 0 512.309 512.309" width="512" xmlns="http://www.w3.org/2000/svg"><g><g><path d="m189.831 353.954c-9.15 9.15-23.982 9.15-33.131 0-9.148-9.148-9.148-23.98.001-33.128l86.214-86.215c9.147-9.147 23.98-9.148 33.129.001 9.148 9.148 9.146 23.983 0 33.128z" fill="#fce3a0"/></g><g><path d="m173.972 333.835 86.214-86.215c5.558-5.558 13.213-7.717 20.419-6.521-1.117-2.343-2.62-4.548-4.56-6.488-9.149-9.149-23.982-9.148-33.129-.001l-86.214 86.215c-9.149 9.149-9.149 23.981-.001 33.128 3.59 3.59 8.058 5.75 12.711 6.523-4.152-8.704-2.649-19.432 4.56-26.641z" fill="#fad989"/></g><g><path d="m450.936 167.437-74.287 74.287c-8.456 8.456-22.165 8.456-30.621 0-8.456-8.456-8.456-22.165 0-30.621l74.287-74.287c12.328-12.328 12.328-32.317 0-44.645-12.328-12.328-32.317-12.328-44.645 0l-74.287 74.287c-8.456 8.456-22.165 8.456-30.621 0-8.456-8.456-8.456-22.165 0-30.621l74.287-74.287c12.328-12.328 12.328-32.317 0-44.645-12.328-12.328-32.317-12.328-44.645 0l-138.313 138.312c-27.017 27.017-27.017 70.819 0 97.836l97.342 97.342c27.017 27.017 70.819 27.017 97.836 0l138.313-138.313c12.328-12.328 12.328-32.317 0-44.645-12.33-12.329-32.318-12.329-44.646 0z" fill="#c6c6c6"/></g><g><path d="m223.351 216.477 48.781-48.781c-.467-.395-.93-.798-1.37-1.239-8.456-8.456-8.456-22.165 0-30.621l74.287-74.287c12.328-12.328 12.328-32.317 0-44.645-12.328-12.328-32.317-12.328-44.645 0l-138.313 138.313c-27.017 27.017-27.017 70.819 0 97.836l61.26 61.26c-27.017-27.017-27.017-70.819 0-97.836z" fill="#b7b7b7"/></g><g><path d="m179.098 333.058c-18.983-18.982-49.758-18.982-68.742.001l-88.619 88.62c-18.983 18.981-18.983 49.758.001 68.742 18.982 18.982 49.759 18.983 68.742 0l88.619-88.62c18.984-18.983 18.982-49.76-.001-68.743zm-105.323 135.016c-8.198 8.197-21.49 8.199-29.69-.001-8.198-8.198-8.198-21.491.001-29.689l17.384-17.384c8.198-8.199 21.49-8.199 29.688 0 8.199 8.198 8.199 21.492.001 29.69z" fill="#f9d171"/></g><g><g><path d="m38.48 448.566c.847-3.73 2.701-7.279 5.606-10.183l17.384-17.384c2.565-2.566 5.629-4.328 8.88-5.288l62.033-62.033c14.855-14.855 36.93-18.083 54.925-9.691-2.159-3.918-4.887-7.607-8.209-10.929-18.983-18.982-49.758-18.982-68.742.001l-88.619 88.62c-18.982 18.981-18.982 49.758.001 68.742 4.128 4.128 8.816 7.357 13.817 9.689-8.901-16.147-7.926-36.272 2.924-51.544z" fill="#f6ca56"/></g></g><g><g><path d="m216.963 222.865c-9.14 9.14-25.854 7.245-37.33-4.231-11.478-11.478-13.372-28.192-4.233-37.332 9.14-9.14 25.854-7.245 37.332 4.233 11.476 11.476 13.371 28.19 4.231 37.33" fill="#fff"/></g><g><path d="m288.044 293.946c-9.14 9.14-7.245 25.854 4.231 37.331 11.479 11.479 28.192 13.372 37.332 4.233 9.14-9.14 7.246-25.853-4.233-37.332-11.476-11.477-28.19-13.371-37.33-4.232" fill="#fff"/></g><g><path d="m224.225 205.764c-1.919 0-3.839-.732-5.303-2.197-2.929-2.929-2.929-7.678 0-10.606l8.496-8.495c2.929-2.929 7.678-2.929 10.606 0 2.929 2.929 2.929 7.678 0 10.606l-8.496 8.495c-1.465 1.464-3.384 2.197-5.303 2.197z"/></g><g><path d="m312.646 294.185c-1.919 0-3.839-.732-5.304-2.197-2.929-2.929-2.929-7.678 0-10.606l8.495-8.495c2.93-2.929 7.678-2.929 10.607 0s2.929 7.678 0 10.606l-8.495 8.495c-1.464 1.464-3.384 2.197-5.303 2.197z"/></g><g><path d="m278.836 261.428c-7.765 0-15.238-3.072-20.761-8.594-6.001-6-9.108-14.304-8.525-22.783.284-4.132 3.849-7.249 7.997-6.968 4.132.284 7.252 3.865 6.968 7.997-.285 4.151 1.233 8.214 4.166 11.146 2.934 2.934 6.994 4.453 11.147 4.167 4.122-.278 7.713 2.835 7.997 6.968s-2.836 7.713-6.968 7.997c-.675.048-1.349.07-2.021.07z"/></g></g><g><path d="m56.167 415.696-17.384 17.384c-5.382 5.382-8.346 12.537-8.346 20.148s2.963 14.767 8.345 20.148c5.556 5.556 12.852 8.333 20.149 8.333 7.296 0 14.594-2.778 20.148-8.332l17.383-17.384c5.382-5.381 8.346-12.537 8.346-20.148 0-7.612-2.964-14.767-8.346-20.148-5.382-5.382-12.537-8.346-20.148-8.346s-14.767 2.963-20.147 8.345zm33.64 20.148c0 3.604-1.403 6.993-3.952 9.541l-17.383 17.385c-5.262 5.261-13.822 5.261-19.084-.001-2.548-2.548-3.952-5.937-3.951-9.541 0-3.604 1.404-6.993 3.953-9.542l17.384-17.385c2.548-2.548 5.937-3.952 9.54-3.952 3.604 0 6.992 1.404 9.542 3.953 2.547 2.549 3.951 5.938 3.951 9.542z"/><path d="m500.884 162.134c-7.379-7.379-17.19-11.443-27.626-11.443s-20.247 4.064-27.626 11.443l-74.287 74.287c-5.518 5.518-14.495 5.518-20.015 0-2.673-2.673-4.145-6.227-4.145-10.007s1.472-7.334 4.146-10.007l74.287-74.287c15.232-15.233 15.232-40.019 0-55.251-7.38-7.379-17.191-11.443-27.627-11.443s-20.247 4.064-27.626 11.443l-74.287 74.287c-2.673 2.673-6.227 4.145-10.007 4.145s-7.334-1.472-10.007-4.145c-5.518-5.518-5.518-14.497 0-20.015l74.287-74.287c15.232-15.232 15.232-40.018 0-55.251-15.232-15.232-40.019-15.232-55.253 0l-54.15 54.151c-2.929 2.929-2.929 7.678 0 10.606 2.929 2.929 7.678 2.929 10.606 0l54.15-54.15c9.385-9.385 24.654-9.384 34.039 0 9.385 9.385 9.385 24.654 0 34.039l-74.287 74.287c-11.365 11.366-11.365 29.861.001 41.228 5.506 5.506 12.827 8.539 20.613 8.539 7.787 0 15.108-3.032 20.614-8.539l74.287-74.287c4.546-4.546 10.59-7.05 17.019-7.05 6.43 0 12.474 2.504 17.02 7.05 9.385 9.384 9.385 24.654 0 34.039l-74.286 74.286c-5.507 5.506-8.539 12.827-8.539 20.614s3.032 15.108 8.538 20.614c11.367 11.366 29.861 11.366 41.229 0l74.287-74.287c4.546-4.546 10.59-7.05 17.019-7.05s12.473 2.504 17.019 7.05c9.385 9.384 9.385 24.654 0 34.039l-138.313 138.309c-24.049 24.049-63.18 24.049-87.229 0l-97.342-97.342c-11.65-11.65-18.066-27.139-18.066-43.615s6.416-31.965 18.066-43.615l62.909-62.909c2.929-2.929 2.929-7.678 0-10.606-2.929-2.93-7.678-2.929-10.606 0l-62.909 62.909c-29.898 29.897-29.898 78.545 0 108.442l25.889 25.889-27.999 27.999c-17.472-3.124-36.15 2.038-49.625 15.512l-88.619 88.62c-10.597 10.597-16.433 24.687-16.433 39.675 0 14.987 5.837 29.077 16.435 39.675 10.938 10.938 25.306 16.407 39.674 16.407s28.736-5.469 39.675-16.407l64.79-64.791c2.929-2.929 2.929-7.678 0-10.606-2.929-2.929-7.678-2.929-10.606 0l-64.79 64.791c-16.028 16.028-42.107 16.027-58.136 0-7.766-7.765-12.042-18.089-12.042-29.07 0-10.98 4.276-21.303 12.04-29.066l88.619-88.62c16.028-16.027 42.108-16.029 58.136-.001 7.765 7.765 12.041 18.088 12.041 29.068s-4.275 21.304-12.04 29.069c-2.929 2.929-2.929 7.678 0 10.606 2.929 2.929 7.678 2.929 10.606 0 10.598-10.598 16.434-24.688 16.434-39.676 0-4.251-.486-8.425-1.4-12.472l26.976-26.977 27.717 27.717c14.949 14.949 34.585 22.423 54.221 22.423s39.272-7.475 54.222-22.423l138.312-138.312c15.233-15.233 15.233-40.019 0-55.251zm-307.383 177.544c-2.46-4.307-5.497-8.321-9.1-11.923-4.186-4.186-8.877-7.564-13.875-10.148l22.756-22.756 22.522 22.523z"/></g></g></svg>