<svg id="Layer_1" enable-background="new 0 0 512.018 512.018" viewBox="0 0 512.018 512.018" xmlns="http://www.w3.org/2000/svg"><g><g><path d="m286.224 270.807s11.239 35.985 22.884 45.767l-2.329 20.495-16.596 14.786c-3.158 2.813-1.168 8.039 3.061 8.039h24.911c3.99 0 7.755-1.846 10.198-5l21.746-28.072-16.769-67.076z" fill="#8795de"/><path d="m350.094 326.825-21.74 28.07c-2.44 3.15-6.21 5-10.2 5h-23.03c3.99 0 7.75-1.85 10.2-5l17.78-22.96c2.5-3.23 3.38-7.43 2.39-11.39l-13.92-55.69 21.76-5.11z" fill="#6c7fd8"/><path d="m207.562 270.274s14.906 20.68 16.303 32.325h-11.645s4.223 28.913-.624 47.671c-1.467 5.678-6.619 9.623-12.484 9.623h-33.535c-3.646 0-5.508-4.376-2.98-7.003l17.017-17.684-19.098-79.42z" fill="#8795de"/><path d="m212.224 302.595s4.22 28.92-.63 47.68c-1.46 5.67-6.62 9.62-12.48 9.62h-23.03c5.82 0 10.98-3.89 12.45-9.52 1.79-6.86 2.36-15.1 2.36-22.78 0-13.33-1.71-25-1.71-25 6.19 0 10.23-6.46 7.55-12.03-3.77-7.84-12.6-22.5-16.36-28.67l27.19 8.38s14.9 20.68 16.3 32.32z" fill="#6c7fd8"/><path d="m78.071 216.886c17.235 11.182 49.367 37.275 49.367 37.275s-27.482 74.057-49.367 82.901l-29.086 8.778c-2.953.882-4.997 3.541-5.117 6.6v.267c0 3.955 3.207 7.188 7.188 7.188h44.984c2.619 0 5.184-.721 7.402-2.097 8.724-5.384 31.263-20.161 37.97-32.84l6.988 5.585s13.975-20.028 15.845-40.055l13.975 5.585 7.909-26.079s89.902 3.26 116.917-.468c27.028-3.728 52.172 39.6 94.097 35.405l14.443 22.352-39.146 21.203c-1.87 1.002-3.073 2.926-3.18 5.05v.281c0 3.34 2.699 6.079 6.066 6.079h36.915c3.474 0 6.827-1.283 9.419-3.607l27.242-24.409c2.872-2.579 4.275-6.426 3.714-10.248l-4.436-30.341c-.454-3.126-2.164-5.919-4.743-7.736-10.194-7.214-36.581-27.442-40.709-46.174-1.056-4.796-3.046-10.047-6.106-15.458-11.77-20.882-39.159-44.236-87.978-53.481l8.377-10.247s-38.652 1.403-56.822 9.326l2.792-15.846s-40.522 8.39-56.822 19.105c-16.313 10.715-58.692 7.923-73.602 5.117-14.91-2.792-55.432-27.482-81.058-20.028-25.612 7.455-24.677 20.495-24.677 20.495l-14.155 8.089c-5.959 3.405-6.966 11.585-2.01 16.334l8.781 8.414c2.259 2.164 5.372 3.182 8.473 2.763 10.726-1.449 36.689-3.802 50.15 4.922z" fill="#a2aee6"/><g fill="#8795de"><path d="m186.134 269.995-7.91 26.08-13.98-5.59c-1.87 20.03-15.84 40.06-15.84 40.06l-6.99-5.59c-6.71 12.68-29.25 27.46-37.97 32.84-2.22 1.38-4.78 2.1-7.4 2.1h-29.68c2.62 0 4.92-1.3 7.4-2.1 27.99-8.97 52.72-37.42 64.49-55.05 3.33-4.98 9.84-16.98 14.11-24.99 2.55-4.8 7.52-7.81 12.95-7.85 6.55-.04 15.27-.06 20.82.09z"/><path d="m262.994 151.675-2.79 15.84-4.96-14.08c4.73-1.13 7.75-1.76 7.75-1.76z"/><path d="m448.904 331.875-27.24 24.41c-2.6 2.33-5.95 3.61-9.42 3.61h-29.68c3.48 0 6.83-1.28 9.42-3.61l27.24-24.41c2.88-2.57 4.28-6.42 3.72-10.24l-4.44-30.34c-.45-3.13-2.16-5.92-4.74-7.74-10.19-7.21-36.58-27.44-40.71-46.17-1.06-4.8-3.05-10.05-6.11-15.46-11.77-20.88-57.92-45.16-106.74-54.41 18.17-7.92 56.82-9.32 56.82-9.32l-8.38 10.25c48.82 9.24 76.21 32.6 87.98 53.48 3.06 5.41 5.05 10.66 6.11 15.46 4.12 18.73 30.51 38.96 40.7 46.17 2.58 1.82 4.29 4.61 4.75 7.74l4.43 30.34c.56 3.82-.84 7.67-3.71 10.24z"/><path d="m369.196 200.123s27.948-10.248 50.773-9.782v7.453s48.444-.466 65.213 9.316l-6.055 7.919s21.05 7.638 24.777 22.543-10.248 30.743-32.606 16.769c-22.359-13.974-22.571-35.317-74.679-32.424z"/></g><path d="m471.294 254.345c-.27-.17-.53-.33-.79-.51 3.52-4.28 4.83-10.35 3.35-16.26-1.87-7.45-8.06-13.09-13.79-16.87-5.73-3.77-10.99-5.68-10.99-5.68 3.31-4.33 1.46-10.58-3.65-12.49-11.98-4.5-22.81-4.74-25.03-4.74 4.81-.02 48.94.07 64.79 9.31l-6.06 7.92s21.05 7.64 24.78 22.55c3.73 14.9-10.25 30.74-32.61 16.77z" fill="#6c7fd8"/><path d="m87.851 185.676c18.376 15.045 61.484 22.833 70.329 31.677 8.858 8.858 15.378 12.946 15.378 12.946l7.923-15.738s40.99 26.547 86.642 25.625v-17.703s90.236 10.047 128.5-.561c-11.77-20.882-39.159-44.236-87.978-53.481l8.377-10.247s-38.652 1.403-56.822 9.326l2.792-15.846s-40.522 8.39-56.822 19.105c-16.313 10.715-58.692 7.923-73.602 5.117-11.183-2.094-36.772-16.506-59.678-20.436-7.635-1.309 3.734 21.024 14.961 30.216z" fill="#eef5f6"/><path d="m396.624 221.925c-7.53 2.09-17.07 3.38-27.54 4.1-.65-1.35-1.36-2.72-2.14-4.1-11.77-20.88-57.92-45.16-106.74-54.41 18.17-7.92 56.82-9.32 56.82-9.32l-8.38 10.25c48.82 9.24 76.21 32.6 87.98 53.48z" fill="#deecf1"/></g><g><path d="m455.602 290.211c-.746-5.14-3.605-9.8-7.832-12.779-5.865-4.15-20.524-15.104-29.94-27.146-2.553-3.265-7.268-3.84-10.528-1.288-3.263 2.552-3.84 7.266-1.288 10.528 10.257 13.116 25.136 24.521 33.104 30.158.899.634 1.482 1.587 1.643 2.69l4.437 30.348c.195 1.33-.293 2.668-1.299 3.571l-27.244 24.411c-1.216 1.09-2.782 1.69-4.412 1.69h-31.27l34.188-18.518c1.837-.995 3.176-2.712 3.694-4.736s.167-4.174-.967-5.929l-14.442-22.352c-1.527-2.362-4.237-3.662-7.047-3.393-20.327 2.036-36.44-8.744-52.023-19.166-21.332-15.844-33.885-18.289-58.597-14.977-35.403 1.455-98.622-.801-99.375-.827-3.382-.115-6.461 2.061-7.449 5.318l-5.538 18.259c-6.257-3.097-14.918-5.804-16.637 3.715-1.039 11.123-6.431 22.552-10.344 29.58l-.339-.271c-1.746-1.396-4.022-1.939-6.209-1.484-2.188.454-4.059 1.86-5.103 3.836-4.743 8.966-21.334 21.357-35.295 29.974-1.022.635-2.215.97-3.448.97h-42.817l27.013-8.151c.218-.066.433-.142.644-.228 11.75-4.749 24.717-22.516 39.639-54.317 1.76-3.749.146-8.216-3.604-9.976-3.751-1.76-8.217-.145-9.976 3.604-17.747 37.819-28.266 45.243-31.427 46.674l-28.676 8.653c-6.012 1.796-10.218 7.218-10.465 13.491-.004.099-.006.197-.006.296v.267c0 8.099 6.589 14.688 14.688 14.688h44.984c4.03 0 7.957-1.114 11.341-3.215 9.927-6.126 26.119-17.054 35.593-28.372l.743.594c1.621 1.295 3.704 1.861 5.756 1.564s3.89-1.431 5.077-3.131c.408-.585 6.9-9.986 11.835-22.58l4.978 20.708-14.164 14.722c-3.247 3.362-4.164 8.315-2.336 12.62 1.828 4.307 6.033 7.089 10.712 7.089h33.54c9.297 0 17.415-6.267 19.741-15.243 3.519-13.608 2.693-31.576 1.75-42.058h3.259c2.145 0 4.188-.919 5.611-2.523s2.092-3.742 1.835-5.872c-.836-6.956-5.244-15.902-9.538-23.242 18.651.362 41.198.57 59.114.038 1.279 3.677 3.167 8.845 5.491 14.416 5.136 12.305 10.026 21.011 14.864 26.429l-1.596 14.033-14.445 12.877c-3.787 3.367-5.07 8.605-3.269 13.344 1.802 4.739 6.242 7.802 11.312 7.802h24.91c6.342 0 12.218-2.878 16.129-7.907l21.74-28.07c1.408-1.818 1.904-4.182 1.347-6.412l-6.143-24.571c12.008 6.934 25.868 12.696 41.998 12.256l7.661 11.856-31.985 17.329c-4.158 2.227-6.891 6.551-7.13 11.283-.007.126-.01.253-.01.379v.28c0 7.487 6.086 13.578 13.566 13.578h36.914c5.331 0 10.455-1.961 14.424-5.521l27.248-24.415c4.763-4.276 7.052-10.602 6.124-16.913zm-241.991 4.883h-1.395c-2.178 0-4.248.948-5.672 2.595-1.425 1.646-2.063 3.833-1.75 5.988.04.274 3.947 27.673-.459 44.716-.611 2.356-2.757 4.002-5.22 4.002h-25.631l11.536-11.99c1.774-1.844 2.485-4.465 1.888-6.953l-7.22-30.035c2.679-.498 4.936-2.558 5.709-5.167l6.237-20.566c3.082.099 7.248.225 12.173.357 3.673 5.487 7.361 11.734 9.804 17.053zm108.824 55.197c-1.039 1.338-2.599 2.104-4.278 2.104h-17.306l10.916-9.731c1.376-1.228 2.252-2.919 2.461-4.751l2.33-20.49c.284-2.498-.702-4.973-2.627-6.59-5.746-4.828-12.726-20.349-17.414-33.105 13.599-2.674 22.083 1.075 36.298 10.898l9.122 36.486z"/><path d="m511.182 235.754c-2.882-11.52-12.863-19.196-20.474-23.524l.434-.567c1.309-1.71 1.818-3.898 1.402-6.01-.417-2.111-1.721-3.942-3.58-5.026-14.384-8.389-46.474-10-61.498-10.283-.001-4.081-3.265-7.413-7.345-7.497-15.007-.312-31.867 3.666-42.491 6.724-16.112-12.308-33.785-20.23-55.459-25.825 4.936-4.56 1.396-13.465-5.421-13.047-1.329.048-27.073 1.041-47.013 5.907.78-3.423 1.473-7.714-1.522-10.313-5.985-5.788-32.833 4.825-52.141 11.228-17.419 8.208-23.688 13.546-47.381 13.39-14.853.166-27.825-.9-36.288-2.745-25.144-8.189-55.267-26.765-82.99-19.497-21.388 6.226-27.631 16.616-29.404 22.958l-11.052 6.315c-4.915 2.808-8.13 7.641-8.821 13.258-.691 5.618 1.256 11.086 5.343 15.004l8.779 8.411c3.928 3.766 9.274 5.508 14.667 4.782 20.322-2.747 37.171-1.333 45.062 3.782 16.699 10.835 48.403 36.547 48.721 36.806 1.391 1.129 3.062 1.678 4.724 1.678 2.181 0 4.344-.947 5.827-2.772 2.611-3.215 2.121-7.938-1.094-10.55-1.325-1.075-32.642-26.475-50.016-37.747-15.025-9.738-41.055-7.979-55.23-6.062-.84.11-1.668-.158-2.282-.747l-8.78-8.412c-.873-.836-.897-1.825-.833-2.34s.326-1.468 1.375-2.067l14.155-8.089c2.737-1.564 4.321-3.758 3.806-6.801.258-1.272 2.413-8.105 19.245-13.005 2.997-.871 6.323-1.187 9.859-1.087.723 2.93 2.216 6.647 4.991 11.464 4.188 7.27 9.525 13.842 14.644 18.032 11.157 9.135 29.303 15.4 45.313 20.929 9.673 3.341 21.712 7.497 24.464 10.249 9.351 9.351 16.401 13.812 16.697 13.997 3.588 2.364 8.837.894 10.684-2.982l4.33-8.602c13.812 7.58 45.716 22.643 81.184 22.64 4.845.642 9.908-2.215 9.852-7.523v-9.404c23.361 2.21 89.252 7.338 122.192-1.416 33.558-1.721 42.178 6.794 53.039 17.56 4.459 4.42 9.513 9.43 16.469 13.778 7.885 4.927 14.635 6.551 20.109 6.55 7.137 0 12.106-2.762 14.585-4.562 8.169-5.941 11.767-16.513 9.163-26.94zm-242.23-20.724c-2.119-.233-4.241.442-5.83 1.865-1.59 1.423-2.499 3.455-2.499 5.589v10.104c-39.767-1.844-74.701-24.088-75.065-24.322-3.596-2.44-8.91-.992-10.776 2.923l-3.874 7.694c-2.124-1.788-4.651-4.061-7.425-6.834-4.944-4.944-14.688-8.473-30.174-13.82-14.823-5.118-31.623-10.919-40.706-18.355-4.499-3.684-8.908-9.869-11.707-14.902 10.132 2.834 19.822 6.844 29.357 10.804 22.432 9.957 32.488 9.812 58.741 10.132 19.075-.579 31.316-2.733 41.297-8.86 9.38-6.167 29.447-12.048 43.349-15.516-2.568 7.214.732 15.84 9.559 12.863 9.573-4.175 25.905-6.422 38.126-7.581-1.675 7.459 6.301 9.531 11.994 10.256 26.726 5.935 53.481 17.998 70.861 39.809-40.511 6.325-114.416-1.757-115.228-1.849zm224.247 35.528c-4.057 2.947-10.59 2.01-17.927-2.573-5.533-3.46-9.577-7.468-13.857-11.712-11.505-11.404-23.407-23.168-60.685-22.035-2.813-4.371-6.123-8.603-9.877-12.644 6.601-1.57 14.212-3.003 21.619-3.541.065 1.908.856 3.723 2.218 5.07 1.405 1.392 3.302 2.171 5.277 2.171h.072c.12-.005 11.943-.103 25.667.965 13.228 1.029 21.877 2.625 27.493 4.171l-.029.037c-1.447 1.893-1.901 4.362-1.237 6.65s2.384 4.128 4.619 4.951c4.824 1.777 17.835 8.354 20.079 17.322 1.095 4.392-.284 8.879-3.432 11.168z"/><path d="m47.473 182.919v2.07c0 4.143 3.358 7.5 7.5 7.5s7.5-3.357 7.5-7.5v-2.07c0-4.143-3.358-7.5-7.5-7.5s-7.5 3.358-7.5 7.5z"/></g></g><g/><g/><g/><g/><g/><g/><g/><g/><g/><g/><g/><g/><g/><g/><g/></svg>