<svg id="Capa_1" enable-background="new 0 0 512 512" height="512" viewBox="0 0 512 512" width="512" xmlns="http://www.w3.org/2000/svg"><g><g><path d="m405.303 181.869-37.557-38.727c-11.034-11.377-14.225-28.235-8.113-42.858l.04-.095c2.665-6.375.938-13.74-4.281-18.266-5.603-4.86-12.772-7.535-20.189-7.535h-.01c-8.842 0-17.398 3.131-24.151 8.838l-2.128 1.798c-6.717 5.677-14.249 10.19-22.283 13.426l.582 5.146-45.532 4.596-3.289-5.714c-12.927-2.843-25.062-8.798-35.305-17.454l-2.128-1.798c-6.753-5.707-15.309-8.838-24.151-8.838h-.005c-5.558 0-10.977 1.502-15.702 4.299l-1.492 3.236c-5.22 4.525-6.947 11.89-4.282 18.264 6.722 14.634 3.916 31.881-7.099 43.63l-37.015 39.483-3.709 14.559 15.571-.052c24.014-.08 47.433 7.461 66.889 21.537 39.094 28.285 91.8 28.751 131.388 1.162l.135-.094c22.556-15.719 50.052-22.715 77.377-19.685l5.973.662z" fill="#e89262"/><path d="m125 186.151 17.163-17.762 12.829-13.229c17.413-17.955 21.041-45.183 8.938-67.071l-.725-1.312c-1.217-2.202-2.005-4.641-2.097-7.155-.011-.312-.014-.623-.007-.934-1.582.936-3.086 2.017-4.492 3.236-5.22 4.526-6.947 11.89-4.282 18.264 6.137 14.682 2.933 31.608-8.145 43.031l-37.997 39.18 1.32 15.46z" fill="#e57a45"/><g fill="#ffd15b"><path d="m234.412 226.028c.325-.852.617-1.725.873-2.618 4.871-16.988-4.951-34.709-21.94-39.581-14.28-4.095-29.078 2.193-36.326 14.392l26.954 23.059z"/><path d="m238.314 102.638c-1.172 3.024-1.814 6.312-1.814 9.751 0 14.912 12.088 27 27 27s27-12.088 27-27c0-4.888-1.299-9.473-3.57-13.427l-.299-.51c-6.734 2.685-17.021 5.792-29.779 5.933-7.187.079-13.44-.806-18.46-1.905-.026.051-.052.106-.078.158z"/><path d="m317.5 211.494c2.198-4.491 2.886-9.753 1.581-14.984-2.939-11.789-14.879-18.964-26.669-16.024-11.789 2.939-18.964 14.88-16.024 26.669 1.96 7.86 7.92 13.669 15.169 15.796z"/></g><g><path d="m291 297.115s-6.407 11.082-9.959 16.998c-10.656 17.749-17.369 37.648-19.599 58.395l-5.442 50.607-5.442-50.606c-2.229-20.729-8.945-40.634-19.585-58.372-3.559-5.933-5.557-11.624-9.973-17.022l-.819-1 71.585-.003z" fill="#e57a45"/><path d="m219 297.115c4.416 5.398 8.414 11.088 11.973 17.022 16.592 2.478 33.475 2.454 50.068-.024 3.559-5.934 7.543-11.601 11.959-16.998l.766-1.003-75.585.003z" fill="#dd723c"/></g><g><path d="m265.158 422.98-9.158 7.341-16.957-24.853c-10.213-17.7 6.997-24.583 6.997-24.583.96-.177 1.958-.27 2.99-.27h13.942c12.601 0 20.257 13.89 13.528 24.544z" fill="#ffe177"/><path d="m247.501 395.024c-2.915-4.615-3.178-9.701-1.462-14.139-10.798 1.954-16.725 14.343-10.538 24.139l17.962 28.44c1.177 1.864 3.896 1.864 5.073 0l6.621-10.484z" fill="#ffd15b"/></g><g><path d="m400.371 364.013c.262-.015.654-.035.916-.052 1.405-.092 2.831-.338 4.275-.504 41.575-4.763 59.649-55.282 31.07-85.85-21.279-22.761-56.092-26.325-81.542-8.348-12.341 8.717-25.758 15.802-39.916 21.079-38.167 14.224-80.18 14.224-118.346 0l-.029-.011c-14.139-5.269-27.538-12.345-39.863-21.051-25.424-17.958-60.222-14.284-81.335 8.588-28.606 30.99-9.629 81.562 32.327 85.85.181.019.361.039.541.056 1.014.097 2.154.182 3.161.244l-2.015.108c-31.053 1.862-60.39-14.37-75.307-41.669l-.267-.488c-14.365-26.288-12.911-58.384 3.772-83.266l3.517-5.245c14.808-22.085 39.585-35.413 66.175-35.595l45.329-.311c59.493 53.009 148.629 55.113 210.557 4.971l7.994-6.473 28.671-.197c26.449-.182 51.293 12.667 66.431 34.356l5.344 7.657c15.281 21.895 18.686 49.952 9.086 74.866-12.472 32.366-44.307 53.073-78.95 51.352z" fill="#e89262"/><g><path d="m111.758 222.76c32.353 0 47.6 9.377 65.255 20.236 18.383 11.306 39.218 24.121 78.987 24.121s60.604-12.815 78.987-24.121c17.655-10.859 32.903-20.236 65.255-20.236 40.508 0 73.897 31.056 77.68 70.631.236-2.47 4.367-4.971 4.367-7.502 0-43.08-39.012-82.129-82.047-82.129-32.353 0-47.6 7.377-65.255 18.236-18.383 11.306-39.218 24.121-78.987 24.121s-60.604-12.815-78.987-24.121c-17.655-10.859-32.903-18.236-65.255-18.236-43.035 0-81.047 39.049-81.047 82.129 0 2.531 3.131 5.032 3.367 7.502 3.783-39.575 37.172-70.631 77.68-70.631z" fill="#e57a45"/></g></g><g><path d="m400.242 181.549c-39.768 0-60.604 12.815-78.987 24.121-17.655 10.859-32.902 20.236-65.255 20.236s-47.6-9.377-65.255-20.236c-18.383-11.306-39.218-24.121-78.987-24.121-55.476 0-100.968 43.587-104.085 98.34-.113 1.986.21 3.986.21 6 0 51.836 47.544 101.879 105.032 101.879 7.238 0 11.949-10.645 11.949-10.645 0-7.238-5.997-13.11-13.234-13.11-43.035 0-77.918-35.044-77.918-78.124 0-2.019.089-4.02.241-6.001.46-6.039.61-12.001 2.369-17.773 9.976-32.731 40.568-59.355 75.438-59.355 32.353 0 47.6 9.377 65.255 20.236 18.383 11.306 39.218 24.121 78.987 24.121s60.604-12.815 78.987-24.121c17.655-10.859 32.902-20.236 65.255-20.236 34.22 0 64.354 25.573 74.855 57.451 2.104 6.386 2.459 13.025 2.958 19.762.143 1.926.234 3.955.234 5.916 0 43.08-34.883 78.124-77.918 78.124-7.238 0-13.234 5.872-13.234 13.11 0 0 0 9.709 16.417 9.709 57.488 0 97.532-49.277 100.773-100.943.126-2.01 0-6 0-6-3.119-54.753-48.611-98.34-104.087-98.34z" fill="#ffe177"/><g fill="#ffd15b"><path d="m478.055 279.973c.151-1.983.234-4.063.234-6.084 0-43.08-35.012-78.129-78.047-78.129-32.353 0-47.6 9.377-65.255 20.236-18.383 11.306-39.218 24.121-78.987 24.121s-60.604-12.815-78.987-24.121c-17.655-10.859-32.903-20.236-65.255-20.236-43.035 0-78.047 35.049-78.047 78.129 0 2.021.089 4.016.24 5.999 3.074-40.284 36.79-72.128 77.807-72.128 32.353 0 47.6 9.377 65.255 20.236 18.383 11.306 39.218 24.121 78.987 24.121s60.604-12.815 78.987-24.121c17.655-10.859 32.903-20.236 65.255-20.236 41.016 0 74.739 31.928 77.813 72.213z"/><path d="m111.758 378.228c-55.475 0-100.967-43.588-104.085-98.34-.113 1.986-.173 3.986-.173 6 0 57.533 46.77 104.34 104.258 104.34 7.238 0 13.105-5.867 13.105-13.105.001 0-8.031 1.105-13.105 1.105z"/><path d="m400.242 378.228c-5.074 0-13.105-1.105-13.105-1.105 0 7.238 5.868 13.105 13.105 13.105 57.488 0 104.258-46.806 104.258-104.34 0-2.014-.06-4.014-.173-6-3.118 54.752-48.61 98.34-104.085 98.34z"/></g></g></g><g><path d="m408.414 174.302-34.112-34.295c-9.684-9.735-12.693-24.271-7.675-37.05 3.875-9.363 1.34-20.102-6.32-26.746-6.967-6.042-15.882-9.369-25.113-9.369-10.652-.152-22.826 4.663-31.12 12.408-13.425 11.345-30.497 17.592-48.074 17.592-13.941 0-27.562-3.896-39.392-11.27-3.515-2.188-8.14-1.116-10.332 2.398-2.191 3.515-1.118 8.141 2.398 10.332 6.484 4.041 13.419 7.202 20.631 9.457-2.976 19.691 13.624 39.421 34.195 39.083 22.472.172 39.926-22.49 32.946-44.689 6.155-3.118 11.975-6.939 17.308-11.446 4.959-4.861 13.403-8.89 21.449-8.865 5.611 0 11.036 2.024 15.275 5.701 2.78 2.411 3.695 6.312 2.275 9.708-.019.046-.038.093-.056.139-7.239 18.338-2.934 39.218 10.969 53.195l23.76 23.887c-28.035 2.073-46.496 10.792-61.274 19.429-4.25-15.337-20.026-24.611-35.554-20.74-15.783 3.936-25.422 19.978-21.487 35.761.752 3.018 1.967 5.848 3.563 8.422-7.742 1.036-18.935 1.366-28.778.502.666-7.742-.973-15.506-4.824-22.453-5.115-9.229-13.518-15.912-23.66-18.819-14.619-4.195-30.276.517-40.232 11.531-12.953-6.447-28.914-12.028-50.606-13.632l23.76-23.887c13.903-13.978 18.208-34.857 10.969-53.195-1.076-2.501-.9-6.764 2.218-9.846 4.242-3.677 9.669-5.702 15.287-5.702 1.5 0 3.014.115 4.502.342 4.101.621 7.92-2.191 8.543-6.286.624-4.095-2.191-7.92-6.286-8.544-2.233-.34-4.507-.512-6.765-.512-9.222 0-18.138 3.327-25.107 9.368-7.664 6.645-10.198 17.387-6.318 26.754 5.014 12.776 2.003 27.309-7.678 37.043l-34.116 34.299c-24.453 1.794-47.678 11.595-66.13 28.06-3.09 2.758-3.36 7.499-.603 10.589 2.759 3.092 7.499 3.36 10.59.603 17.746-15.835 40.587-24.556 64.317-24.556 37.645 0 56.663 11.696 75.058 23.01 17.848 10.979 34.707 21.348 69.185 21.348s51.336-10.369 69.188-21.35c18.392-11.312 37.41-23.008 75.055-23.008 53.353 0 96.758 43.442 96.758 96.84 0 22.268-7.771 44.025-21.882 61.267-2.623 3.205-2.151 7.931 1.054 10.554 1.394 1.142 3.075 1.696 4.746 1.696 2.171 0 4.326-.938 5.809-2.75 16.296-19.915 25.272-45.048 25.272-70.768 0-58.919-45.763-107.338-103.586-111.54zm-125.414-61.96c0 10.752-8.748 19.5-19.5 19.5-10.549.057-20.273-9.516-19.441-20.806 3.942.53 7.93.806 11.941.806 9.031 0 17.947-1.384 26.461-4.021.35 1.474.539 2.99.539 4.521zm-94.122 83.357c6.113-5.047 14.5-6.974 22.4-4.707 6.291 1.804 11.503 5.949 14.675 11.672 2.193 3.956 3.228 8.338 3.065 12.745-13.509-3.367-23.176-9.305-34.347-16.176-1.878-1.155-3.806-2.34-5.793-3.534zm94.788 9.594c-1.935-7.758 2.803-15.643 10.561-17.577 7.758-1.938 15.643 2.803 17.577 10.562.339 1.358.457 2.724.403 4.087-7.378 4.457-14.447 8.363-22.893 11.2-2.788-1.991-4.806-4.892-5.648-8.272z"/><path d="m450.481 368.576c-15.111 9.229-32.483 14.105-50.239 14.105-3.091 0-5.605-2.515-5.605-5.605s2.515-5.605 5.605-5.605c46.667.041 85.676-38.391 85.547-85.629 0-29.739-15.104-56.921-40.401-72.711-3.516-2.195-8.141-1.123-10.333 2.392-2.193 3.514-1.123 8.14 2.391 10.333 20.879 13.032 33.344 35.457 33.344 59.986 0 16.592-5.759 31.854-15.361 43.922 6.118-20.153 1.166-41.834-13.317-57.326-23.714-25.365-62.983-29.386-91.348-9.353-11.807 8.34-24.662 15.129-38.208 20.177-36.469 13.592-76.639 13.59-113.137-.01-13.528-5.042-26.366-11.821-38.155-20.149-28.396-20.056-67.591-15.92-91.173 9.628-14.55 15.763-19.297 37.765-12.716 58.049-10.091-12.219-16.161-27.882-16.161-44.938 0-38.944 31.647-70.628 70.547-70.628 30.233 0 43.954 8.439 61.329 19.125 18.274 11.241 41.022 25.231 82.91 25.231s64.636-13.99 82.916-25.232c17.372-10.685 31.093-19.124 61.326-19.124 2.498 0 5.01.132 7.469.392 4.115.441 7.812-2.55 8.248-6.669s-2.55-7.812-6.669-8.247c-2.98-.315-6.024-.476-9.047-.476-34.477 0-51.335 10.369-69.187 21.349-18.393 11.311-37.411 23.007-75.056 23.007s-56.663-11.696-75.058-23.01c-17.849-10.978-34.708-21.347-69.185-21.347-47.171 0-85.547 38.412-85.547 85.628-.087 46.855 38.47 85.697 85.547 85.629 3.091 0 5.605 2.515 5.605 5.605s-2.515 5.605-5.605 5.605c-53.353 0-96.758-43.442-96.758-96.84 0-16.426 4.202-32.66 12.151-46.948 2.014-3.62.712-8.187-2.907-10.2-3.62-2.016-8.188-.713-10.2 2.907-9.187 16.515-14.043 35.271-14.043 54.243 0 61.669 50.134 111.84 111.758 111.84 11.362 0 20.605-9.243 20.605-20.605 0-11.331-9.194-20.55-20.513-20.601-16.906-.397-33.561-11.582-39.492-28.255-6.022-15.914-2.75-32.854 8.753-45.316 18.492-20.033 49.229-23.278 71.497-7.55 12.845 9.073 26.832 16.46 41.6 21.963 6.646 2.477 13.407 4.531 20.24 6.182 15.597 19.516 26.187 44.891 28.711 70.392-6.209 1.561-11.492 5.586-14.711 11.427-4.195 7.612-3.929 16.544.712 23.893l20.499 32.456c1.375 2.176 3.768 3.495 6.341 3.495s4.967-1.319 6.341-3.495l20.499-32.456c4.641-7.349 4.907-16.28.712-23.893-3.219-5.841-8.502-9.866-14.711-11.427 2.49-24.878 12.716-50.435 28.711-70.392 6.834-1.651 13.594-3.705 20.24-6.182 14.758-5.499 28.762-12.895 41.625-21.98 22.272-15.732 53.113-12.576 71.737 7.345 11.56 12.365 14.96 29.269 9.093 45.217-6.006 16.611-21.742 27.917-40.005 28.572-11.362 0-20.605 9.243-20.605 20.605s9.244 20.605 20.605 20.605c20.515 0 40.59-5.638 58.056-16.303 3.535-2.159 4.651-6.775 2.492-10.311-2.158-3.534-6.774-4.652-10.309-2.492zm-180.066 23.982c.729 1.322 2.162 4.811-.258 8.643l-14.157 22.416-14.157-22.416c-2.42-3.832-.986-7.32-.258-8.643.729-1.321 2.913-4.396 7.444-4.396h13.941c4.532 0 6.717 3.075 7.445 4.396zm-14.415-33.91c-3.605-18.291-10.545-35.677-20.504-51.391 13.623 1.589 27.385 1.589 41.008 0-9.959 15.713-16.899 33.099-20.504 51.391z"/><path d="m179 113.002v12c0 4.143 3.358 7.5 7.5 7.5s7.5-3.357 7.5-7.5v-12c0-4.143-3.358-7.5-7.5-7.5s-7.5 3.357-7.5 7.5z"/><path d="m325.5 132.502c4.142 0 7.5-3.357 7.5-7.5v-12c0-4.143-3.358-7.5-7.5-7.5s-7.5 3.357-7.5 7.5v12c0 4.142 3.358 7.5 7.5 7.5z"/></g></g></svg>