<svg id="Layer_1" enable-background="new 0 0 512 512" height="512" viewBox="0 0 512 512" width="512" xmlns="http://www.w3.org/2000/svg"><g><path d="m208.979 460.938c.122-.577.221-1.154.309-1.729l51.854-291.177-40.015-8.437-70.119 287.326c-.153.561-.295 1.129-.416 1.704 0 0 0 0-.001.001-3.399 16.124 6.916 31.95 23.04 35.349 16.123 3.4 31.949-6.912 35.348-23.037z" fill="#488fcc"/><path d="m179.817 492.624c-.002 0 0 0 0 0-2.62-.001-5.256-.276-7.837-.82-9.889-2.085-18.374-7.896-23.893-16.362-5.518-8.467-7.409-18.575-5.325-28.465.148-.696.316-1.378.497-2.05l70.095-287.228c1.025-4.197 5.197-6.822 9.422-5.932l40.015 8.437c4.228.892 6.983 4.978 6.226 9.231l-51.837 291.084c-.106.687-.227 1.376-.371 2.063-3.671 17.409-19.229 30.042-36.992 30.042zm47.244-323.601-68.281 279.795c-.017.069-.035.139-.054.208-.112.41-.217.826-.306 1.247-1.204 5.711-.113 11.546 3.071 16.432 3.185 4.887 8.082 8.239 13.789 9.442 1.498.316 3.024.477 4.537.477 10.244 0 19.217-7.291 21.334-17.336.092-.434.164-.862.229-1.288.01-.064.02-.129.032-.192l50.496-283.546z"/></g><g><path d="m202.439 134.737h83.456v29.394h-83.456z" fill="#95c8ec" transform="matrix(.979 .206 -.206 .979 36.081 -47.158)"/><path d="m281.965 180.423c-.551 0-1.104-.057-1.65-.172l-81.661-17.217c-2.076-.438-3.894-1.683-5.052-3.46-1.159-1.778-1.563-3.943-1.125-6.019l6.065-28.761c.911-4.323 5.153-7.088 9.478-6.177l81.659 17.217c4.323.912 7.089 5.155 6.178 9.479l-6.063 28.761c-.438 2.076-1.683 3.893-3.46 5.052-1.311.853-2.83 1.297-4.369 1.297zm-72.182-31.395 66.004 13.916 2.763-13.105-66.003-13.916z"/></g><g><path d="m161.879 50.641h188.243v85.33h-188.243z" fill="#efeeee" transform="matrix(.979 .206 -.206 .979 24.757 -50.808)"/><path d="m339.303 162.472c-.547 0-1.102-.056-1.658-.173l-184.193-38.836c-2.076-.438-3.894-1.683-5.052-3.46-1.159-1.778-1.563-3.942-1.126-6.019l17.604-83.494c.912-4.323 5.155-7.087 9.479-6.178l184.193 38.836c2.076.438 3.894 1.683 5.052 3.46 1.158 1.778 1.563 3.942 1.126 6.019l-17.604 83.494c-.795 3.767-4.119 6.351-7.821 6.351zm-174.723-53.014 168.537 35.535 14.304-67.838-168.538-35.536z"/></g><g><g><path d="m349.169 115.679c-.547 0-1.102-.056-1.658-.173l-184.193-38.837c-4.323-.912-7.089-5.155-6.178-9.479.912-4.323 5.153-7.087 9.479-6.178l184.193 38.836c4.323.912 7.089 5.155 6.178 9.479-.795 3.767-4.119 6.352-7.821 6.352z"/></g></g><g><g><path d="m344.14 139.535c-.547 0-1.102-.056-1.658-.173l-184.194-38.836c-4.323-.912-7.089-5.155-6.178-9.479.912-4.323 5.153-7.087 9.479-6.178l184.194 38.836c4.323.912 7.089 5.155 6.178 9.479-.795 3.766-4.119 6.351-7.821 6.351z"/></g></g><g><path d="m141.061 28.841h23.091v85.33h-23.091z" fill="#e0e0e0" transform="matrix(-.979 -.206 .206 -.979 287.179 172.956)"/><path d="m155.11 123.636c-.547 0-1.102-.056-1.659-.173l-22.595-4.764c-2.076-.438-3.893-1.683-5.052-3.46s-1.563-3.942-1.125-6.019l17.605-83.495c.438-2.076 1.682-3.894 3.459-5.052 1.779-1.159 3.945-1.562 6.019-1.126l22.594 4.765c4.323.911 7.089 5.155 6.178 9.478l-17.604 83.494c-.795 3.768-4.118 6.352-7.82 6.352zm-13.125-18.943 6.939 1.463 14.303-67.839-6.938-1.463z"/></g><g><path d="m347.848 72.44h23.092v85.33h-23.092z" fill="#e0e0e0" transform="matrix(-.979 -.206 .206 -.979 687.308 301.883)"/><path d="m361.89 167.235c-.551 0-1.104-.057-1.65-.172l-22.595-4.764c-4.323-.912-7.089-5.155-6.178-9.479l17.604-83.494c.912-4.323 5.156-7.086 9.479-6.178l22.594 4.764c4.323.912 7.089 5.155 6.178 9.479l-17.604 83.495c-.438 2.076-1.683 3.893-3.46 5.052-1.31.853-2.829 1.297-4.368 1.297zm-13.117-18.942 6.938 1.463 14.303-67.838-6.938-1.463z"/></g></svg>