<svg id="Layer_1" enable-background="new 0 0 512 512" height="512" viewBox="0 0 512 512" width="512" xmlns="http://www.w3.org/2000/svg"><g><path d="m483.04 154.69h-25.76l10-38.86h-422.56l10 38.86h-25.76v202.62h25.76l-10 38.86h422.56l-10-38.86h25.76zm-198.72 101.31c0 15.62-12.7 28.32-28.32 28.32s-28.32-12.7-28.32-28.32 12.7-28.32 28.32-28.32 28.32 12.7 28.32 28.32z" fill="#efeeee"/><path d="m483.04 146.69h-15.44l7.431-28.87c.62-2.39.09-4.94-1.431-6.89-1.51-1.96-3.84-3.1-6.319-3.1h-422.561c-2.48 0-4.81 1.14-6.32 3.1-1.52 1.95-2.05 4.5-1.43 6.89l7.43 28.87h-15.44c-4.42 0-8 3.58-8 8v202.62c0 4.421 3.58 8 8 8h15.44l-7.43 28.87c-.62 2.391-.09 4.94 1.43 6.891 1.51 1.96 3.84 3.1 6.32 3.1h422.56.02c4.42 0 8-3.58 8-8 0-.89-.14-1.75-.42-2.55l-7.28-28.311h15.44c4.42 0 8-3.579 8-8v-202.62c0-4.42-3.58-8-8-8zm-8 202.62h-17.76c-2.471 0-4.811 1.15-6.32 3.101-1.52 1.96-2.04 4.5-1.43 6.899l7.43 28.86h-401.92l7.43-28.86c.61-2.399.09-4.939-1.43-6.899-1.52-1.95-3.85-3.101-6.32-3.101h-17.76v-186.62h17.76c2.47 0 4.8-1.15 6.32-3.1 1.52-1.96 2.04-4.5 1.43-6.9l-7.43-28.86h401.92l-7.43 28.86c-.61 2.4-.09 4.94 1.43 6.9 1.51 1.95 3.85 3.1 6.32 3.1h17.76z"/></g><g><path d="m425.66 264h-133.34c-4.418 0-8-3.582-8-8s3.582-8 8-8h133.34c4.418 0 8 3.582 8 8s-3.582 8-8 8z"/></g><g><path d="m219.68 264h-133.34c-4.418 0-8-3.582-8-8s3.582-8 8-8h133.34c4.418 0 8 3.582 8 8s-3.581 8-8 8z"/></g><g><path d="m256 211.68c-24.44 0-44.32 19.88-44.32 44.32s19.88 44.32 44.32 44.32 44.32-19.88 44.32-44.32-19.88-44.32-44.32-44.32zm0 72.64c-15.62 0-28.32-12.7-28.32-28.32s12.7-28.32 28.32-28.32 28.32 12.7 28.32 28.32-12.7 28.32-28.32 28.32z"/></g><g><path d="m86.342 300.324c-4.418 0-8-3.582-8-8v-72.649c0-4.418 3.582-8 8-8s8 3.582 8 8v72.649c0 4.418-3.582 8-8 8z"/></g><g><path d="m425.658 300.324c-4.418 0-8-3.582-8-8v-72.649c0-4.418 3.582-8 8-8s8 3.582 8 8v72.649c0 4.418-3.582 8-8 8z"/></g><g><g><path d="m360.91 300.324c-4.418 0-8-3.582-8-8v-72.649c0-4.418 3.582-8 8-8s8 3.582 8 8v72.649c0 4.418-3.582 8-8 8z"/></g><g><path d="m151.09 300.324c-4.418 0-8-3.582-8-8v-72.649c0-4.418 3.582-8 8-8s8 3.582 8 8v72.649c0 4.418-3.582 8-8 8z"/></g></g></svg>