<svg id="Fill" viewBox="0 0 64 64" xmlns="http://www.w3.org/2000/svg"><g><path d="m46.984 8.36v8.33c0 1.1-.9 2-2 2h-1.6v-12.33h1.6c1.1 0 2 .89 2 2z" fill="#0f4775"/><path d="m43.384 10.86v7.83h-2.79-17.19-2.79v-7.83z" fill="#83c7c3"/><path d="m20.614 6.36h22.77v4.5h-22.77z" fill="#9fd8ce"/><path d="m23.404 18.69h17.19c0 6.11-3.95 6.97-3.95 6.97h-9.29s-3.95-.86-3.95-6.97z" fill="#0f4775"/><path d="m36.804 44.45c1.52 10.52-3.31 13.26-5.09 13.19-3.3-.86-6.57-6.79-3.8-16.4.69-2.51 2.03-9.06-.56-15.58h9.29c-3.1 8.9-.82 13.29.16 18.79zm-2.75 3.93c-.09-6.01-4.02-6.01-4.11 0 .09 6 4.02 6 4.11 0z" fill="#3f7a94"/><path d="m20.614 10.86v7.83h-1.6c-1.1 0-2-.9-2-2v-8.33c0-1.11.9-2 2-2h1.6z" fill="#0f4775"/></g><g><path d="m44.984 5.36h-25.969c-1.654 0-3 1.346-3 3v8.33c0 1.654 1.346 3 3 3h3.432c.333 4.691 2.952 6.282 4.13 6.76 2.254 6.085 1.024 12.159.377 14.514-1.611 5.589-1.395 10.798.594 14.29 1.006 1.767 2.396 2.958 3.915 3.354.069.018.141.029.213.031.033.001.068.002.103.002.964 0 2.411-.508 3.709-1.949 1.61-1.788 3.318-5.389 2.303-12.418-.195-1.099-.443-2.16-.683-3.186-.964-4.127-1.867-8.038.334-14.647 1.187-.486 3.781-2.084 4.112-6.752h3.432c1.654 0 3-1.346 3-3v-8.329c0-1.654-1.346-3-3-3zm-23.37 12.33v-5.83h20.771v5.83zm20.771-7.83h-20.771v-2.5h20.771zm-24.37 6.83v-8.33c0-.551.448-1 1-1h.6v3.476c0 .009-.005.016-.005.024s.005.016.005.024v6.806h-.6c-.552 0-1-.449-1-1zm15.985 38.665c-.872.967-1.735 1.256-2.15 1.285-.938-.292-1.867-1.15-2.564-2.375-1.724-3.026-1.873-7.672-.407-12.759.671-2.438 1.918-8.531-.104-14.845h6.491c-2.029 6.653-1.054 10.833-.107 14.884.233 1 .476 2.035.657 3.049.947 6.559-.73 9.557-1.815 10.761zm2.507-30.694h-9.013c-.467-.148-2.712-1.063-3.045-4.97h15.102c-.333 3.902-2.573 4.82-3.044 4.97zm9.478-7.97c0 .551-.448 1-1 1h-.6v-10.331h.6c.552 0 1 .449 1 1v8.33z"/><path d="m31.999 42.873c-1.371 0-2.994 1.438-3.055 5.492v.03c.061 4.048 1.684 5.485 3.055 5.485s2.994-1.437 3.056-5.515c-.062-4.054-1.685-5.492-3.056-5.492zm0 9.007c-.203 0-1.013-.914-1.055-3.5.042-2.592.852-3.507 1.055-3.507s1.017.919 1.056 3.492c-.039 2.598-.852 3.515-1.056 3.515z"/></g></svg>