<svg clip-rule="evenodd" fill-rule="evenodd" stroke-linejoin="round" stroke-miterlimit="2" viewBox="0 0 96 96" xmlns="http://www.w3.org/2000/svg"><g><g><path d="m41.393 78.031v-8.093c-13.131-8.613-26.262-11.789-39.393-9.699v8.092c13.131-2.089 26.262 1.087 39.393 9.7z" fill="#9faafa"/><path d="m41.393 78.031v-8.093c13.131-8.613 26.262-11.789 39.393-9.699v4.087c0 1.008-.425 1.97-1.172 2.649-.746.678-1.743 1.01-2.747.915-11.823-.963-23.649 2.384-35.474 10.141z" fill="#7a89f8"/><path d="m41.393 69.938v-49.184c-12.551-8.232-25.102-11.497-37.653-9.945-.992.131-1.734.976-1.734 1.977-.006 8.724-.006 47.453-.006 47.453 13.131-2.09 26.262 1.086 39.393 9.699z" fill="#d0d5fd"/><path d="m41.393 69.938v-49.184c12.551-8.232 25.102-11.497 37.653-9.945.992.131 1.734.976 1.734 1.977.006 8.724.006 47.453.006 47.453-13.131-2.09-26.262 1.086-39.393 9.699z" fill="#e6e9fe"/><path d="m67.53 64.277 5.18-5.181s14.243 14.243 20.218 20.218c1.374 1.373 1.427 3.567.161 5.005-.051.059-.291.298-.357.355-1.438 1.247-3.618 1.187-4.985-.18-5.974-5.974-20.217-20.217-20.217-20.217z" fill="#3f3f3f"/><circle cx="67.53" cy="56.638" fill="#4f4f4f" r="16.452"/><circle cx="67.53" cy="56.638" fill="#e6e9fe" r="10.019"/></g><g><path d="m40.57 79.285c.461.302 1.051.327 1.536.066.485-.262.787-.769.787-1.32v-8.093c0-.505-.254-.977-.677-1.254-13.481-8.843-26.97-12.072-40.451-9.927-.729.116-1.265.744-1.265 1.482v4.711c0 1.276.542 2.492 1.49 3.345.945.85 2.205 1.261 3.469 1.132 11.705-1.088 23.404 2.179 35.111 9.858zm-.677-3.977c-11.571-7.036-23.148-9.945-34.717-8.868-.006.001-.012.001-.018.002-.423.044-.845-.093-1.161-.377s-.497-.69-.497-1.115v-3.414c12.133-1.608 24.26 1.434 36.393 9.217z"/><path d="m50.459 71.295c-3.296 1.494-6.593 3.319-9.889 5.481-.692.455-.885 1.385-.431 2.077.454.693 1.385.886 2.077.432 3.16-2.073 6.321-3.825 9.481-5.257.754-.342 1.089-1.232.747-1.986-.341-.754-1.231-1.089-1.985-.747zm-8.243-.103c3.701-2.427 7.401-4.414 11.102-5.963.764-.32 1.124-1.2.805-1.963-.32-.764-1.199-1.124-1.963-.805-3.864 1.617-7.727 3.689-11.59 6.223-.692.454-.885 1.384-.431 2.077.454.692 1.385.885 2.077.431z"/><path d="m42.893 69.938v-35.107c0-.828-.672-1.5-1.5-1.5s-1.5.672-1.5 1.5v35.107c0 .828.672 1.5 1.5 1.5s1.5-.672 1.5-1.5zm0-41.272v-7.912c0-.505-.254-.977-.677-1.254-12.57-8.245-25.148-11.608-37.718-10.287-.006 0-.012.001-.017.002-2.262.263-3.967 2.179-3.967 4.456-.014 10.174-.014 46.568-.014 46.568 0 .828.672 1.5 1.5 1.5s1.5-.672 1.5-1.5c0 0 0-36.391.014-46.566 0-.001 0-.002 0-.002 0-.751.56-1.383 1.303-1.475 11.698-1.226 23.383 1.873 35.076 9.373v7.097c0 .828.672 1.5 1.5 1.5s1.5-.672 1.5-1.5z"/><path d="m46.815 19.218c10.385-5.789 20.765-8.111 31.149-7.023.746.09 1.308.723 1.308 1.476v.002c.009 5.16.012 16.848.013 24.889 0 .828.673 1.5 1.5 1.5.828 0 1.5-.673 1.5-1.5-.001-8.042-.004-19.733-.013-24.894 0-2.274-1.705-4.19-3.967-4.453-.005-.001-.011-.002-.017-.002-10.976-1.153-21.957 1.265-32.933 7.385-.724.403-.983 1.317-.58 2.04s1.317.983 2.04.58z"/><path d="m34.977 28.134c-7.715-3.913-15.431-6.002-23.146-6.315-.827-.034-1.526.611-1.559 1.438-.034.827.61 1.526 1.438 1.56 7.304.296 14.606 2.288 21.91 5.993.738.374 1.642.079 2.016-.66.375-.738.079-1.641-.659-2.016z"/><path d="m49.166 30.81c7.304-3.705 14.607-5.697 21.911-5.993.827-.034 1.471-.733 1.438-1.56-.034-.827-.733-1.472-1.56-1.438-7.715.313-15.431 2.402-23.146 6.315-.738.375-1.033 1.278-.659 2.016.375.739 1.278 1.034 2.016.66z"/><path d="m34.977 36.696c-7.715-3.913-15.431-6.002-23.146-6.315-.827-.033-1.526.611-1.559 1.438-.034.827.61 1.526 1.438 1.56 7.304.296 14.606 2.288 21.91 5.993.738.374 1.642.079 2.016-.659.375-.739.079-1.642-.659-2.017z"/><path d="m49.166 39.372c7.304-3.705 14.607-5.697 21.911-5.993.827-.034 1.471-.733 1.438-1.56-.034-.827-.733-1.471-1.56-1.438-7.715.313-15.431 2.402-23.146 6.315-.738.375-1.033 1.278-.659 2.017.375.738 1.278 1.033 2.016.659z"/><path d="m34.977 45.258c-7.715-3.912-15.431-6.002-23.146-6.315-.827-.033-1.526.611-1.559 1.438-.034.827.61 1.526 1.438 1.56 7.304.296 14.606 2.288 21.91 5.993.738.374 1.642.079 2.016-.659.375-.739.079-1.642-.659-2.017z"/><path d="m23.429 49.32c-3.866-1.055-7.732-1.658-11.598-1.815-.827-.033-1.526.611-1.559 1.438-.034.828.61 1.526 1.438 1.56 3.643.148 7.286.717 10.93 1.711.798.218 1.624-.253 1.841-1.052.218-.799-.253-1.624-1.052-1.842z"/><path d="m92.126 83.119-.638.615c-.835.528-1.952.427-2.68-.3 0 0-13.048-13.048-13.048-13.048-.585-.585-1.536-.585-2.121 0s-.585 1.536 0 2.121l13.048 13.048c1.777 1.777 4.528 1.986 6.536.629.169-.114 1.189-1.107 1.278-1.228 1.484-2.02 1.315-4.876-.512-6.703l-12.486-12.486c-.585-.585-1.536-.585-2.121 0-.586.586-.586 1.536 0 2.122l12.485 12.485c.747.747.834 1.904.259 2.745z"/><path d="m67.53 38.686c-9.908 0-17.952 8.044-17.952 17.952s8.044 17.951 17.952 17.951 17.951-8.043 17.951-17.951-8.043-17.952-17.951-17.952zm0 3c8.252 0 14.951 6.7 14.951 14.952s-6.699 14.951-14.951 14.951-14.952-6.699-14.952-14.951 6.7-14.952 14.952-14.952z"/><path d="m61.18 50.962c1.56-1.744 3.828-2.843 6.35-2.843 4.701 0 8.519 3.817 8.519 8.519s-3.818 8.519-8.519 8.519c-4.702 0-8.519-3.817-8.519-8.519 0-.828-.672-1.5-1.5-1.5s-1.5.672-1.5 1.5c0 6.357 5.161 11.519 11.519 11.519 6.357 0 11.519-5.162 11.519-11.519 0-6.358-5.162-11.519-11.519-11.519-3.41 0-6.476 1.484-8.586 3.842-.552.617-.499 1.566.118 2.118s1.566.5 2.118-.117z"/></g></g></svg>