<svg id="Layer_1" viewBox="0 0 1000 1000" xmlns="http://www.w3.org/2000/svg" data-name="Layer 1"><path d="m208.15 277.94 39.63 561.56a48 48 0 0 0 47.76 44.5h408.92a48 48 0 0 0 47.76-44.5l39.63-561.56zm258.29 482.48h-149.78a38 38 0 0 1 -32.94-57l59.34-102.82-20.41 5.4a16 16 0 0 1 -8.22-30.93l57.39-15.24.36-.1h.17l.53-.12c.28-.06.57-.12.86-.16a16 16 0 0 1 18.3 13l10.51 58.82a16 16 0 0 1 -31.5 5.63l-2.83-15.9-56.78 98.35a6 6 0 0 0 5.22 9h149.78a16 16 0 0 1 0 32zm33.56-342.5a5.83 5.83 0 0 0 -5.22 3l-74.35 128.79a16 16 0 0 1 -27.71-16l74.35-128.78a38 38 0 0 1 65.86 0l56.71 98.23 2.8-15.68a16 16 0 1 1 31.5 5.63l-10.5 58.81a1.89 1.89 0 0 1 -.05.23c-.06.34-.14.67-.23 1s-.18.66-.29 1-.17.49-.26.73a12 12 0 0 1 -.63 1.42c-.12.23-.24.46-.37.68a15 15 0 0 1 -1.14 1.74 13.79 13.79 0 0 1 -1.37 1.6 14.37 14.37 0 0 1 -1.6 1.42 8.27 8.27 0 0 1 -.85.61.08.08 0 0 1 0 0l-.32.21a5.2 5.2 0 0 1 -.6.35 6.33 6.33 0 0 1 -1 .51 7.62 7.62 0 0 1 -1 .44 14.57 14.57 0 0 1 -3 .9 15.08 15.08 0 0 1 -3.07.31 15.92 15.92 0 0 1 -4.1-.54l-57.75-15.34a16 16 0 1 1 8.19-30.88l20.55 5.45-59.33-102.83a5.83 5.83 0 0 0 -5.22-3.01zm216.27 323.48a37.63 37.63 0 0 1 -32.93 19h-116.21l13.79 12.69a16 16 0 1 1 -21.67 23.54l-43.89-40.39-.08-.07c-.24-.22-.47-.45-.69-.68s-.32-.34-.47-.51a7.43 7.43 0 0 1 -.52-.62 17.39 17.39 0 0 1 -.93-1.31 7.45 7.45 0 0 1 -.43-.71c-.14-.24-.27-.48-.38-.72s-.25-.5-.35-.75a7.12 7.12 0 0 1 -.31-.76 5.41 5.41 0 0 1 -.27-.77 12.44 12.44 0 0 1 -.43-1.59 15.75 15.75 0 0 1 -.31-2.4c0-.3 0-.61 0-.91s0-.65 0-1a16.27 16.27 0 0 1 .31-2.34c.12-.54.26-1.07.43-1.59a6 6 0 0 1 .26-.75 16 16 0 0 1 1.1-2.33c.12-.21.24-.42.38-.62a0 0 0 0 1 0 0c.14-.23.29-.45.45-.67s.27-.38.41-.56a16.22 16.22 0 0 1 1.78-1.93l.08-.07 43.89-40.39a16 16 0 0 1 21.67 23.54l-13.8 12.7h116.19a6 6 0 0 0 5.22-9l-74.39-128.9a16 16 0 1 1 27.72-16l74.39 128.84a37.64 37.64 0 0 1 -.01 38.03z" fill="#9ccc65"/><path d="m832.41 245.94h-664.82a77 77 0 0 1 75.19-60.87h514.44a77 77 0 0 1 75.19 60.87z" fill="#616161"/><g fill="#fff" opacity=".5"><path d="m198.15 287.94 39.63 561.56a48 48 0 0 0 47.76 44.5h408.92a48 48 0 0 0 47.76-44.5l39.63-561.56zm258.29 482.48h-149.78a38 38 0 0 1 -32.94-57l59.34-102.82-20.41 5.4a16 16 0 0 1 -8.22-30.93l57.39-15.24.36-.1h.17l.53-.12c.28-.06.57-.12.86-.16a16 16 0 0 1 18.3 13l10.51 58.82a16 16 0 0 1 -31.5 5.63l-2.83-15.9-56.78 98.35a6 6 0 0 0 5.22 9h149.78a16 16 0 0 1 0 32zm33.56-342.5a5.83 5.83 0 0 0 -5.22 3l-74.35 128.79a16 16 0 0 1 -27.71-16l74.35-128.78a38 38 0 0 1 65.86 0l56.71 98.23 2.8-15.68a16 16 0 1 1 31.5 5.63l-10.5 58.81a1.89 1.89 0 0 1 -.05.23c-.06.34-.14.67-.23 1s-.18.66-.29 1-.17.49-.26.73a12 12 0 0 1 -.63 1.42c-.12.23-.24.46-.37.68a15 15 0 0 1 -1.14 1.74 13.79 13.79 0 0 1 -1.37 1.6 14.37 14.37 0 0 1 -1.6 1.42 8.27 8.27 0 0 1 -.85.61.08.08 0 0 1 0 0l-.32.21a5.2 5.2 0 0 1 -.6.35 6.33 6.33 0 0 1 -1 .51 7.62 7.62 0 0 1 -1 .44 14.57 14.57 0 0 1 -3 .9 15.08 15.08 0 0 1 -3.07.31 15.92 15.92 0 0 1 -4.1-.54l-57.75-15.34a16 16 0 1 1 8.19-30.88l20.55 5.45-59.33-102.83a5.83 5.83 0 0 0 -5.22-3.01zm216.27 323.48a37.63 37.63 0 0 1 -32.93 19h-116.21l13.79 12.69a16 16 0 1 1 -21.67 23.54l-43.89-40.39-.08-.07c-.24-.22-.47-.45-.69-.68s-.32-.34-.47-.51a7.43 7.43 0 0 1 -.52-.62 17.39 17.39 0 0 1 -.93-1.31 7.45 7.45 0 0 1 -.43-.71c-.14-.24-.27-.48-.38-.72s-.25-.5-.35-.75a7.12 7.12 0 0 1 -.31-.76 5.41 5.41 0 0 1 -.27-.77 12.44 12.44 0 0 1 -.43-1.59 15.75 15.75 0 0 1 -.31-2.4c0-.3 0-.61 0-.91s0-.65 0-1a16.27 16.27 0 0 1 .31-2.34c.12-.54.26-1.07.43-1.59a6 6 0 0 1 .26-.75 16 16 0 0 1 1.1-2.33c.12-.21.24-.42.38-.62a0 0 0 0 1 0 0c.14-.23.29-.45.45-.67s.27-.38.41-.56a16.22 16.22 0 0 1 1.78-1.93l.08-.07 43.89-40.39a16 16 0 0 1 21.67 23.54l-13.8 12.7h116.19a6 6 0 0 0 5.22-9l-74.39-128.9a16 16 0 1 1 27.72-16l74.39 128.84a37.64 37.64 0 0 1 -.01 38.03z"/><path d="m822.41 255.94h-664.82a77 77 0 0 1 75.19-60.87h514.44a77 77 0 0 1 75.19 60.87z"/></g><g fill="#413b32"><path d="m716.27 741.4a37.63 37.63 0 0 1 -32.93 19h-157.22a15.92 15.92 0 0 1 -10.76-4.16l-.08-.07c-.24-.22-.47-.45-.69-.68s-.32-.34-.47-.51-.35-.41-.52-.62a17.39 17.39 0 0 1 -.93-1.31c-.15-.23-.29-.47-.43-.71s-.26-.48-.38-.72-.24-.5-.35-.75-.21-.5-.31-.76-.19-.51-.27-.77a12.44 12.44 0 0 1 -.43-1.59 15.75 15.75 0 0 1 -.31-2.4c0-.3 0-.61 0-.91s0-.65 0-1a16.27 16.27 0 0 1 .31-2.34c.12-.54.26-1.07.43-1.59.08-.25.17-.5.26-.75a16 16 0 0 1 1.1-2.33c.12-.21.24-.42.38-.62a0 0 0 0 1 0 0c.14-.23.29-.45.45-.67s.27-.38.41-.56a16.22 16.22 0 0 1 1.78-1.93l.08-.07a16 16 0 0 1 10.76-4.15h157.19a6 6 0 0 0 5.22-9l-74.39-128.9a16 16 0 1 1 27.72-16l74.39 128.84a37.64 37.64 0 0 1 -.01 38.03z"/><path d="m580.92 773.11a16 16 0 1 1 -21.67 23.54l-43.89-40.39-.08-.07c-.24-.22-.47-.45-.69-.68s-.32-.34-.47-.51-.35-.41-.52-.62a17.39 17.39 0 0 1 -.93-1.31c-.15-.23-.29-.47-.43-.71s-.26-.48-.38-.72-.24-.5-.35-.75-.21-.5-.31-.76-.19-.51-.27-.77c-.17-.53-.31-1.06-.43-1.59a15.75 15.75 0 0 1 -.31-2.4c0-.3 0-.61 0-.91s0-.65 0-1a16.27 16.27 0 0 1 .31-2.34c.12-.54.26-1.07.43-1.59.08-.25.17-.5.26-.75a16 16 0 0 1 1.1-2.33c.12-.21.24-.42.38-.62a0 0 0 0 1 0 0c.14-.23.29-.45.45-.67s.27-.38.41-.56a16.22 16.22 0 0 1 1.78-1.93l.08-.07 43.89-40.39a16 16 0 0 1 21.67 23.54l-13.8 12.7-17.38 16 17.39 16z"/><path d="m482.44 744.42a16 16 0 0 1 -16 16h-149.78a38 38 0 0 1 -32.94-57l59.34-102.82 19.09-33.06a16.09 16.09 0 0 1 9.67-7.69l.36-.1h.17l.53-.12c.28-.06.57-.12.86-.16a16.39 16.39 0 0 1 2.44-.18 16 16 0 0 1 16 16 15.94 15.94 0 0 1 -2.15 8l-21.81 37.71-56.78 98.35a6 6 0 0 0 5.22 9h149.78a16 16 0 0 1 16 16.07z"/><path d="m389.61 649.78a16 16 0 0 1 -18.56-12.93l-2.83-15.85-4.62-25.88-20.54 5.46-20.41 5.42a16 16 0 0 1 -8.22-30.93l57.39-15.24.36-.1h.17l.53-.12c.28-.06.57-.12.86-.16a16 16 0 0 1 18.3 13l10.51 58.82a16 16 0 0 1 -12.94 18.51z"/><path d="m613.39 552.15c-.07.34-.14.67-.23 1s-.19.67-.29 1-.17.49-.26.73c-.19.48-.4 1-.63 1.42-.12.23-.24.46-.37.68s-.35.6-.54.89-.39.57-.6.85a17.28 17.28 0 0 1 -1.37 1.6 16.72 16.72 0 0 1 -1.6 1.42c-.28.21-.56.42-.85.61a.08.08 0 0 1 0 0l-.92.56c-.32.18-.63.35-1 .51s-.64.3-1 .44a15.78 15.78 0 0 1 -6 1.19 16 16 0 0 1 -13.87-8l-19.24-33.33-59.4-102.79a6 6 0 0 0 -10.44 0l-74.35 128.78a16 16 0 0 1 -27.71-16l74.35-128.78a38 38 0 0 1 65.86 0l56.71 98.23 21.9 37.93a16 16 0 0 1 1.85 11.06z"/><path d="m623.94 493.11-10.5 58.81a1.89 1.89 0 0 1 -.05.23c-.07.34-.14.67-.23 1s-.19.67-.29 1-.17.49-.26.73a12 12 0 0 1 -.63 1.42c-.12.23-.24.46-.37.68s-.35.6-.54.89-.39.57-.6.85a13.79 13.79 0 0 1 -1.37 1.6 14.37 14.37 0 0 1 -1.6 1.42c-.28.21-.56.42-.85.61a.08.08 0 0 1 0 0l-.32.21a5.2 5.2 0 0 1 -.6.35c-.32.18-.63.35-1 .51s-.64.3-1 .44a14.57 14.57 0 0 1 -3 .9 15.08 15.08 0 0 1 -3.07.31 15.92 15.92 0 0 1 -4.1-.54l-57.75-15.34a16 16 0 1 1 8.19-30.88l20.55 5.45 20.4 5.42 4.65-26 2.8-15.68a16 16 0 1 1 31.5 5.63z"/><path d="m820.72 251a16 16 0 0 0 -11.72-5.06h-618a16 16 0 0 0 -16 17.13l1.05 14.87 39.78 563.81a80.15 80.15 0 0 0 79.71 74.25h408.92a80.15 80.15 0 0 0 79.68-74.25l39.78-563.81 1.08-14.87a16 16 0 0 0 -4.28-12.07zm-68.5 588.5a48 48 0 0 1 -47.76 44.5h-408.92a48 48 0 0 1 -47.76-44.5l-39.63-561.56h583.7z"/><path d="m757.22 153.07h-514.44a109 109 0 0 0 -108.86 108.87 16 16 0 0 0 16 16h700.16a16 16 0 0 0 16-16 109 109 0 0 0 -108.86-108.87zm-589.63 92.87a77 77 0 0 1 75.19-60.87h514.44a77 77 0 0 1 75.19 60.87z"/><path d="m570.22 84h-140.44a50.43 50.43 0 0 0 -50.37 50.37v34.7a16 16 0 0 0 16 16h209.18a16 16 0 0 0 16-16v-34.7a50.43 50.43 0 0 0 -50.37-50.37zm-158.81 69.07v-18.7a18.39 18.39 0 0 1 18.37-18.37h140.44a18.39 18.39 0 0 1 18.37 18.37v18.7z"/></g></svg>