<svg id="Layer_1" viewBox="0 0 1000 1000" xmlns="http://www.w3.org/2000/svg" data-name="Layer 1"><path d="m287 858.66c0 4.56 0 9.17-.1 13.8h-86c8.53-89.3-41.9-216.73-69.54-278.6 134.19 61.79 153.74 203.14 155.64 264.8z" fill="#33691e"/><path d="m319.12 872.46c0-4.05 0-8.73-.15-14v-.35c-.06-148.49-33.26-285.11-61.11-373.59-16.45-52.27-32.79-93.9-44.46-121.39 32.92 18.37 62.6 48.87 88.6 91.03 28.95 47 53.29 108.41 72.34 182.45 26 101.2 34.94 197.89 37.61 235.84z" fill="#33691e"/><path d="m799.16 872.44h-86c-.07-4.63-.1-9.24-.1-13.8 1.87-61.67 21.42-203 155.67-264.8-27.67 61.87-78.1 189.3-69.57 278.6z" fill="#33691e"/><path d="m786.6 363.16c-11.67 27.49-28 69.12-44.46 121.39-27.85 88.48-61 225.1-61.11 373.59v.35c-.15 5.22-.19 9.9-.15 14h-92.81c2.69-37.69 11.58-134 37.13-234 19-74.47 43.36-136.22 72.35-183.54 26.09-42.65 55.94-73.37 89.05-91.79z" fill="#33691e"/><path d="m541.17 237v189.52a40.46 40.46 0 0 1 -40.42 40.42h-1.07-.9a40.47 40.47 0 0 1 -39.95-40.42v-189.52a40.47 40.47 0 0 1 40.29-40.43h.91 1.18a40.47 40.47 0 0 1 39.96 40.43z" fill="#8d6e63"/><g fill="#fff" opacity=".5"><path d="m277 868.66c0 4.56 0 9.17-.1 13.8h-86c8.53-89.3-41.9-216.73-69.54-278.6 134.19 61.79 153.74 203.14 155.64 264.8z"/><path d="m309.12 882.46c0-4.05 0-8.73-.15-14v-.35c-.06-148.49-33.26-285.11-61.11-373.59-16.45-52.27-32.79-93.9-44.46-121.39 32.92 18.37 62.6 48.87 88.6 91.03 28.95 47 53.29 108.41 72.34 182.45 26 101.2 34.94 197.89 37.61 235.84z"/><path d="m789.16 882.44h-86c-.07-4.63-.1-9.24-.1-13.8 1.87-61.67 21.42-203 155.67-264.8-27.67 61.87-78.1 189.3-69.57 278.6z"/><path d="m776.6 373.16c-11.67 27.49-28 69.12-44.46 121.39-27.85 88.48-61 225.1-61.11 373.59v.35c-.15 5.22-.19 9.9-.15 14h-92.81c2.69-37.69 11.58-134 37.13-234 19-74.47 43.36-136.22 72.35-183.54 26.09-42.65 55.94-73.37 89.05-91.79z"/><path d="m531.17 247v189.52a40.46 40.46 0 0 1 -40.42 40.42h-1.07-.9a40.47 40.47 0 0 1 -39.95-40.42v-189.52a40.47 40.47 0 0 1 40.29-40.43h.91 1.18a40.47 40.47 0 0 1 39.96 40.43z"/></g><g fill="#413b32"><path d="m571.07 872.44h-127.07c-2.57-37.55-11.57-138.36-38.69-243.81-19.85-77.16-45.45-141.51-76.08-191.26-39.37-63.94-87.37-104.21-142.67-119.68a16 16 0 0 0 -18.63 22.55c.3.59 29.94 60.35 59.39 153.92a1355.74 1355.74 0 0 1 44.61 186.75 281.92 281.92 0 0 0 -55-68.76c-30.93-28.15-68.75-49.15-112.22-62.57a16 16 0 0 0 -19 22.5c1 2.06 103.66 206.89 80.89 313a16 16 0 0 0 15.65 19.35h388.82a16 16 0 1 0 0-32zm-439.77-278.58c134.25 61.79 153.8 203.14 155.7 264.8 0 4.56 0 9.17-.1 13.8h-86c8.47-89.3-41.96-216.73-69.6-278.6zm187.7 264.65v-.35c-.06-148.49-33.26-285.11-61.11-373.59-16.45-52.27-32.79-93.9-44.46-121.39 32.89 18.32 62.57 48.82 88.57 90.98 28.95 47 53.29 108.41 72.34 182.45 26 101.2 34.94 197.89 37.61 235.84h-92.83c.04-4.04 0-8.72-.12-13.94z"/><path d="m912.23 554.53a16 16 0 0 0 -16.94-5c-43.47 13.41-81.24 34.47-112.29 62.61a281.73 281.73 0 0 0 -55 68.76 1355.5 1355.5 0 0 1 44.4-186.09c29.45-93.73 59.3-154 59.6-154.58a16 16 0 0 0 -18.63-22.55c-55.54 15.54-103.71 56.08-143.17 120.49-30.6 50.05-56.2 114.77-76 192.34-27 105.59-35.74 204.73-38.24 241.93h15.11a16 16 0 1 1 0 32h246.67a16 16 0 0 0 15.65-19.35c-22.75-106 79.85-311 80.89-313a16 16 0 0 0 -2.05-17.56zm-231.23 303.61v.35c-.15 5.22-.19 9.9-.15 14h-92.78c2.69-37.69 11.58-134 37.13-234 19-74.47 43.36-136.22 72.35-183.54 26.09-42.59 55.94-73.31 89.05-91.73-11.67 27.49-28 69.12-44.46 121.39-27.85 88.39-61.05 225.04-61.14 373.53zm118.13 14.3h-86c-.07-4.63-.1-9.24-.1-13.8 1.87-61.67 21.42-203 155.67-264.8-27.64 61.87-78.07 189.3-69.54 278.6z"/><path d="m587.07 888.44a16 16 0 0 1 -16 16h-268.55a16 16 0 0 1 0-32h268.55a16 16 0 0 1 16 16z"/><path d="m573.17 237v189.52a72.4 72.4 0 0 1 -72.42 72.42h-1.5a16 16 0 0 1 -.47-32h.9 1.07a40.46 40.46 0 0 0 40.42-40.42v-189.52a40.47 40.47 0 0 0 -40-40.43h-2.07a16 16 0 0 1 -.22-32h.33 1.07.43a72.4 72.4 0 0 1 72.46 72.43z"/><path d="m458.83 237v189.54a40.47 40.47 0 0 0 39.95 40.46h.47a16 16 0 0 1 .88 32h-.06-.82a72.4 72.4 0 0 1 -72.42-72.42v-189.58a72.4 72.4 0 0 1 72.09-72.43h1.4a16 16 0 0 1 15.68 12.78 16.46 16.46 0 0 1 .32 3.23 16 16 0 0 1 -15.11 16c-.39 0-.79 0-1.18 0h-.91a40.47 40.47 0 0 0 -40.29 40.42z"/><path d="m516 482.93v405.52a16 16 0 0 1 -15.59 16h-.82a16 16 0 0 1 -15.59-16v-405.52a16 16 0 0 1 15.07-16h.81.53a16 16 0 0 1 15.59 16z"/><path d="m500 196.6a16 16 0 0 1 -16-16v-69.06a16 16 0 1 1 32 0v69.05a16 16 0 0 1 -16 16.01z"/></g></svg>