<svg id="Capa_1" enable-background="new 0 0 512 512" height="512" viewBox="0 0 512 512" width="512" xmlns="http://www.w3.org/2000/svg"><g><g><path d="m291.895 35.466-27.509-26.577c-.923-.891-2.155-1.389-3.438-1.389-2.733 0-4.948 2.215-4.948 4.948v11.215c-62.059 0-120.405 24.167-164.288 68.05-37.918 37.919-61.101 86.639-66.706 139.22l32.238 2.691c11.161-99.793 96.033-177.636 198.756-177.636v11.215c0 2.733 2.215 4.948 4.948 4.948 1.283 0 2.515-.498 3.438-1.389l27.509-26.577c2.466-2.384 2.466-6.336 0-8.719z" fill="#b7e546"/></g><g><path d="m220.105 476.534 27.509 26.577c.923.891 2.155 1.389 3.438 1.389 2.733 0 4.948-2.215 4.948-4.948v-11.215c62.059 0 120.405-24.167 164.288-68.05 37.918-37.919 61.101-86.639 66.706-139.22l-32.238-2.691c-11.161 99.793-96.033 177.636-198.756 177.636v-11.215c0-2.733-2.215-4.948-4.948-4.948-1.283 0-2.515.498-3.438 1.389l-27.509 26.577c-2.466 2.384-2.466 6.336 0 8.719z" fill="#abd641"/></g><g><path d="m407.524 216.267h-111.791v-111.791h-79.466v111.791h-111.791v79.466h111.791v111.791h79.466v-111.791h111.791z" fill="#e490d0"/></g><g><path d="m319.44 216.267c-14.246 26.039-33.81 52.279-58.106 76.575-14.482 14.483-29.657 27.277-45.067 38.275v76.407h79.466v-111.791h111.791v-79.466z" fill="#df73c1"/></g><g><path d="m490.358 102.455h-32.325v-32.325h-32.326v32.325h-32.325v32.325h32.325v32.326h32.326v-32.326h32.325z" fill="#dd4fb1"/></g><g><path d="m118.618 377.22h-32.325v-32.326h-32.326v32.326h-32.325v32.325h32.325v32.325h32.326v-32.325h32.325z" fill="#dd4fb1"/></g><g><path d="m24.386 238.403 32.23 2.69c.212.019.423.026.632.026 3.78 0 7.018-2.843 7.445-6.666 5.227-46.687 27.463-89.836 62.615-121.497 33.55-30.219 76.333-47.576 121.191-49.321v3.565c0 6.865 5.585 12.45 12.45 12.45 3.225 0 6.289-1.234 8.651-3.498l27.491-26.571c2.638-2.54 4.149-6.097 4.149-9.757 0-3.659-1.512-7.216-4.141-9.747l-27.524-26.606c-2.339-2.239-5.402-3.471-8.625-3.471-6.865 0-12.45 5.585-12.45 12.45v3.826c-55.732 1.732-109.035 22.729-150.829 59.567-3.107 2.738-3.406 7.478-.667 10.585s7.479 3.407 10.585.667c40.924-36.07 93.631-55.935 148.411-55.935 4.143 0 7.5-3.357 7.5-7.5v-5.199l22.104 21.364-22.104 21.364v-5.199c0-4.143-3.357-7.5-7.5-7.5-51.287 0-100.556 18.937-138.73 53.321-36.061 32.479-59.511 76.189-66.543 123.739l-17.316-1.446c5.875-41.657 23.239-80.518 50.482-112.809 2.671-3.166 2.27-7.897-.896-10.568-3.164-2.671-7.896-2.27-10.568.896-30.836 36.549-49.812 80.987-54.876 128.511-.214 2.008.391 4.017 1.677 5.573 1.285 1.557 3.144 2.528 5.156 2.696z"/><path d="m487.614 273.597-32.23-2.69c-4.042-.357-7.627 2.606-8.078 6.641-2.699 24.173-9.89 47.327-21.371 68.819-1.952 3.653-.572 8.197 3.081 10.149 3.656 1.954 8.197.571 10.149-3.081 11.231-21.025 18.655-43.525 22.111-66.984l17.316 1.445c-6.786 48.357-28.678 92.163-63.605 127.091-42.475 42.465-98.938 65.853-158.987 65.853-4.143 0-7.5 3.357-7.5 7.5v5.199l-22.104-21.364 22.104-21.364v5.199c0 4.143 3.357 7.5 7.5 7.5 64.111 0 123.647-29.043 163.343-79.683 2.556-3.26 1.984-7.974-1.275-10.529-3.26-2.554-7.973-1.985-10.529 1.275-35.28 45.006-87.441 71.628-144.038 73.793v-3.566c0-6.865-5.585-12.45-12.45-12.45-3.225 0-6.289 1.234-8.651 3.498l-27.491 26.571c-2.638 2.54-4.149 6.097-4.149 9.757 0 3.659 1.512 7.216 4.141 9.747l27.526 26.606c2.339 2.238 5.402 3.471 8.625 3.471 6.865 0 12.45-5.585 12.45-12.45v-3.824c61.245-1.869 118.557-26.605 162.094-70.132 39.205-39.206 63.015-88.906 68.854-143.729.214-2.007-.391-4.016-1.677-5.572-1.288-1.557-3.147-2.528-5.159-2.696z"/><path d="m216.27 415.02h79.461c4.143 0 7.5-3.357 7.5-7.5v-104.29h104.289c4.143 0 7.5-3.357 7.5-7.5v-79.46c0-4.143-3.357-7.5-7.5-7.5h-27.36c-4.143 0-7.5 3.357-7.5 7.5s3.357 7.5 7.5 7.5h19.859v64.461h-104.289c-4.143 0-7.5 3.357-7.5 7.5v104.289h-64.46v-104.29c0-4.143-3.357-7.5-7.5-7.5h-104.29v-64.46h104.29c4.143 0 7.5-3.357 7.5-7.5v-104.29h64.461v104.29c0 4.143 3.357 7.5 7.5 7.5h49.43c4.143 0 7.5-3.357 7.5-7.5s-3.357-7.5-7.5-7.5h-41.93v-104.29c0-4.143-3.357-7.5-7.5-7.5h-79.461c-4.143 0-7.5 3.357-7.5 7.5v104.29h-104.29c-4.143 0-7.5 3.357-7.5 7.5v79.461c0 4.143 3.357 7.5 7.5 7.5h104.29v104.289c0 4.142 3.357 7.5 7.5 7.5z"/><path d="m490.357 94.955h-24.825v-24.825c0-4.143-3.357-7.5-7.5-7.5h-32.325c-4.143 0-7.5 3.357-7.5 7.5v24.825h-24.825c-4.143 0-7.5 3.357-7.5 7.5v32.325c0 4.143 3.357 7.5 7.5 7.5h24.825v24.825c0 4.143 3.357 7.5 7.5 7.5h32.325c4.143 0 7.5-3.357 7.5-7.5v-24.825h24.825c4.143 0 7.5-3.357 7.5-7.5v-32.325c0-4.143-3.357-7.5-7.5-7.5zm-7.5 32.325h-24.825c-4.143 0-7.5 3.357-7.5 7.5v24.825h-17.325v-24.825c0-4.143-3.357-7.5-7.5-7.5h-24.825v-17.325h24.825c4.143 0 7.5-3.357 7.5-7.5v-24.825h17.325v24.825c0 4.143 3.357 7.5 7.5 7.5h24.825z"/><path d="m126.118 409.545v-32.325c0-4.143-3.357-7.5-7.5-7.5h-24.825v-24.825c0-4.143-3.357-7.5-7.5-7.5h-32.325c-4.143 0-7.5 3.357-7.5 7.5v24.825h-24.825c-4.143 0-7.5 3.357-7.5 7.5v32.325c0 4.143 3.357 7.5 7.5 7.5h24.825v24.825c0 4.143 3.357 7.5 7.5 7.5h32.325c4.143 0 7.5-3.357 7.5-7.5v-24.825h24.825c4.143 0 7.5-3.357 7.5-7.5zm-15-7.5h-24.825c-4.143 0-7.5 3.357-7.5 7.5v24.825h-17.325v-24.825c0-4.143-3.357-7.5-7.5-7.5h-24.825v-17.325h24.825c4.143 0 7.5-3.357 7.5-7.5v-24.825h17.325v24.825c0 4.143 3.357 7.5 7.5 7.5h24.825z"/><path d="m169.546 466.695h-12.703v-12.703c0-4.143-3.357-7.5-7.5-7.5s-7.5 3.357-7.5 7.5v12.703h-12.703c-4.143 0-7.5 3.357-7.5 7.5s3.357 7.5 7.5 7.5h12.703v12.703c0 4.143 3.357 7.5 7.5 7.5s7.5-3.357 7.5-7.5v-12.703h12.703c4.143 0 7.5-3.357 7.5-7.5s-3.358-7.5-7.5-7.5z"/><path d="m342.454 45.305h12.703v12.703c0 4.143 3.357 7.5 7.5 7.5s7.5-3.357 7.5-7.5v-12.703h12.703c4.143 0 7.5-3.357 7.5-7.5s-3.357-7.5-7.5-7.5h-12.703v-12.703c0-4.143-3.357-7.5-7.5-7.5s-7.5 3.357-7.5 7.5v12.703h-12.703c-4.143 0-7.5 3.357-7.5 7.5s3.358 7.5 7.5 7.5z"/></g></g></svg>