<svg clip-rule="evenodd" fill-rule="evenodd" stroke-linejoin="round" stroke-miterlimit="2" viewBox="0 0 96 96" xmlns="http://www.w3.org/2000/svg"><g><g><path d="m30.135 78.154c-.075-.36-1.043-2.807.475-4.731 3.141-3.979 5.982-9.043 7.675-1.75 1.644 7.085-1.361 8.359-.81 14.715.425 4.892 1.776 8.362 1.776 8.362h-5.789c-2.559-5.532-2.173-11.064-3.327-16.596z" fill="#b6821b"/><path d="m54.746 63.286s5.956-.689 8.474 0c.355.097 3.764 19.332 3.315 31.464h-5.398c.483-12.291-4.756-19.793-6.391-31.464z" fill="#b6821b"/><path d="m75.166 26.429c-2.592-.164-5.227 1.371-5.782 3.908-8.836 40.41-57.864 12.058-49.096 37.331 1.823 5.253 2.629 11.056 1.314 15.679-1.722 6.058-1.323 11.403-1.323 11.403h6.73c.087-8.16 3.78-15.192 5.815-21.385.451-1.582 2.095-2.503 3.68-2.061 3.499 1.018 6.293.937 9.384.016 1.001-.286 2.078-.033 2.846.67.768.702 1.116 1.753.92 2.775-1.252 6.266-3.324 11.5-2.912 19.985h7.007c-.502-9.739 3.543-15.849 5.449-24.823.167-.789.647-1.478 1.329-1.909 6.518-4.312 13.982-14.874 14.643-26.507.072-1.615 1.419-2.878 3.035-2.846 3.203.123 5.429-1.32 7.492-3.055.651-.547.902-.818.902-1.668 0-1.926-1.465-3.536-3.382-3.719-1.519-.114-3.296-.674-4.783-2.24-1.003-1.056-2.151-1.479-3.268-1.554z" fill="#da9c20"/></g><g><path d="m34.073 93.37c-2.24-4.842-2.122-9.693-2.901-14.536-.132-.817-.902-1.374-1.719-1.243-.818.132-1.375.902-1.243 1.72.822 5.109.777 10.21 3.14 15.319.348.751 1.24 1.079 1.991.731.752-.347 1.08-1.239.732-1.991zm2.402-17.357c-.319 3.215-1.636 5.243-1.244 9.755.445 5.135 1.873 8.776 1.873 8.776.3.772 1.17 1.154 1.942.854.771-.301 1.154-1.171.853-1.942 0 0-1.276-3.3-1.679-7.948-.37-4.258.939-6.164 1.241-9.199.081-.823-.521-1.559-1.345-1.64-.824-.082-1.559.52-1.641 1.344z"/><path d="m61.886 94.059c.304-7.739-1.581-13.632-3.488-19.795-.245-.791-1.085-1.234-1.876-.99-.791.245-1.235 1.086-.99 1.877 1.811 5.853 3.645 11.44 3.356 18.79-.033.827.613 1.525 1.44 1.558.827.032 1.525-.613 1.558-1.44zm-.362-29.081c1.029 5.309 3.117 19.381 2.762 28.967-.03.827.617 1.523 1.444 1.554s1.524-.616 1.554-1.444c.363-9.811-1.762-24.214-2.815-29.648-.158-.813-.945-1.345-1.758-1.187-.813.157-1.345.945-1.187 1.758z"/><path d="m72.654 25.68s-10.55-19.673-29.467-20.023c-.828-.016-1.512.644-1.528 1.472-.015.828.644 1.512 1.472 1.527 17.305.321 26.875 18.434 26.875 18.434.389.731 1.298 1.008 2.029.619s1.008-1.298.619-2.029z"/><path d="m63.378 14.61s-1.67-7.781 4.768-11.293c.727-.397.995-1.309.598-2.035-.396-.727-1.308-.995-2.035-.599-8.315 4.537-6.267 14.541-6.267 14.541.169.81.964 1.331 1.775 1.161.81-.169 1.331-.964 1.161-1.775z"/><path d="m65.401 18.113s-7.391 5.292-17.457-1.813c-.677-.477-1.613-.316-2.091.361-.477.676-.316 1.613.361 2.09 12.07 8.52 20.97 1.775 20.97 1.775.666-.492.807-1.432.315-2.098s-1.432-.807-2.098-.315z"/><path d="m54.359 8.455s-1.764-2.543-1.08-6.178c.153-.813-.383-1.598-1.197-1.751-.813-.153-1.598.383-1.751 1.197-.94 4.996 1.585 8.472 1.585 8.472.48.675 1.417.832 2.092.352.674-.481.831-1.418.351-2.092z"/><path d="m21.439 55.341s-8.954-2.698-12.674 6.316c-.316.765.049 1.643.814 1.959s1.643-.049 1.959-.814c2.664-6.456 9.045-4.586 9.045-4.586.793.236 1.629-.216 1.866-1.01.236-.793-.216-1.629-1.01-1.865z"/><path d="m54.497 93.923c-.494-9.592 3.541-15.597 5.418-24.434 0 0 .001-.001.001-.001.083-.394.322-.737.662-.952.009-.006.018-.012.026-.017 6.808-4.504 14.623-15.524 15.314-27.673 0-.006 0-.012.001-.018.035-.793.689-1.415 1.48-1.414 3.631.139 6.176-1.441 8.513-3.406 1.085-.913 1.437-1.398 1.437-2.816 0-2.699-2.052-4.956-4.74-5.213-.01-.001-.02-.002-.03-.002-1.208-.091-2.624-.531-3.807-1.777-1.306-1.375-2.803-1.921-4.256-2.018-.002 0-.004 0-.006 0-3.317-.21-6.632 1.838-7.342 5.084-5.097 23.312-24.244 22.61-36.815 23.737-3.308.297-6.206.718-8.393 1.605-1.699.688-3.004 1.659-3.856 2.986-1.331 2.074-1.6 5.154.017 9.815 1.718 4.953 2.527 10.419 1.288 14.778-1.8 6.334-1.376 11.925-1.376 11.925.062.825.782 1.445 1.608 1.384.825-.062 1.446-.782 1.384-1.608 0 0-.373-5.1 1.27-10.881 1.39-4.888.587-11.027-1.34-16.581-1.189-3.428-1.305-5.687-.326-7.212.69-1.075 1.901-1.702 3.423-2.165 1.825-.554 4.07-.833 6.569-1.058 13.579-1.218 33.972-.903 39.478-26.084.4-1.827 2.353-2.848 4.219-2.732.779.053 1.578.354 2.278 1.091 1.786 1.88 3.918 2.561 5.743 2.701 1.138.114 2.01 1.075 2.01 2.225 0 .286-.149.336-.368.52-1.787 1.503-3.692 2.811-6.468 2.704-.009-.001-.019-.001-.029-.001-2.425-.048-4.447 1.844-4.562 4.266-.633 11.101-7.729 21.192-13.951 25.321-1.028.656-1.741 1.686-1.99 2.865-1.935 9.109-5.989 15.323-5.48 25.21.042.827.748 1.464 1.575 1.421s1.463-.748 1.421-1.575zm-26.738.093c.085-7.992 3.747-14.867 5.74-20.933.006-.019.012-.038.017-.057.224-.785 1.037-1.244 1.824-1.03 3.812 1.107 6.852 1.015 10.214.015.498-.142 1.035-.015 1.417.335.383.35.557.873.46 1.383-1.275 6.377-3.356 11.708-2.938 20.344.04.827.744 1.465 1.571 1.425s1.466-.744 1.426-1.571c-.404-8.331 1.655-13.466 2.884-19.618.001-.004.002-.008.003-.011.294-1.534-.228-3.111-1.381-4.165-1.152-1.054-2.769-1.435-4.271-1.006-.005.002-.01.004-.016.005-2.812.838-5.353.908-8.536-.018-.006-.002-.011-.003-.016-.005-2.377-.663-4.842.715-5.523 3.085-2.072 6.291-5.787 13.472-5.875 21.79-.009.828.656 1.507 1.484 1.516s1.507-.656 1.516-1.484z"/></g></g></svg>