<svg id="Capa_1" enable-background="new 0 0 512 512" height="512" viewBox="0 0 512 512" width="512" xmlns="http://www.w3.org/2000/svg"><g><g><path d="m84.247 127 21.909-89.873 20.982 28.786.014.016 33.727 46.453-23.161 33.433.002.005-8.28 11.95-24.685-16.808z" fill="#f0e9e6"/><path d="m20.039 20.488c.496-1.987 2.421-3.265 4.449-2.975 14.391 2.057 25.835 1.694 35.516 1.386 0 0 10.982.249 15.765.633 11.069.889 17.231 4.645 27.414 17.968 16.947 22.173-1.851 54.436 7.149 88.436 2.57 9.708 16.596 27.926 16.596 27.926l-18.409-2.927c-21.436-6.7-54.738-18.256-67.533-28.908-35.939-29.919-24.611-86.871-20.947-101.539z" fill="#e5dcd8"/><path d="m59.53 18.92c11.16.85 20.27 4.64 30.51 18.05 16.95 22.18-2.53 54.53 6.47 88.53 1.73 6.55 8.068 18.395 12.008 25.435 11.27 3.53 19.262 5.705 19.262 5.705-.02-.1-12.7-21.43-15.27-31.14-9-34 10.48-66.35-6.47-88.53-14.7-19.23-27.05-18.67-46.51-18.05z" fill="#dbd2cc"/><path d="m427.694 127-21.91-89.873-20.981 28.786-.015.016-33.727 46.453 23.162 33.433-.003.005 8.28 11.95 24.685-16.808z" fill="#f0e9e6"/><path d="m491.902 20.488c-.496-1.987-2.421-3.265-4.449-2.975-14.391 2.057-25.835 1.694-35.516 1.386 0 0-10.982.249-15.765.633-11.07.889-17.232 4.645-27.415 17.968-16.947 22.173 1.851 54.436-7.149 88.436-2.57 9.708-16.596 27.926-16.596 27.926l18.409-2.927c21.436-6.7 54.738-18.256 67.533-28.908 35.939-29.919 24.611-86.871 20.948-101.539z" fill="#e5dcd8"/><path d="m452.41 18.92c-11.16.85-20.27 4.64-30.51 18.05-16.95 22.18 2.53 54.53-6.47 88.53-1.73 6.55-8.068 18.395-12.008 25.435-11.27 3.53-19.262 5.705-19.262 5.705.02-.1 12.7-21.43 15.27-31.14 9-34-10.48-66.35 6.47-88.53 14.7-19.23 27.05-18.67 46.51-18.05z" fill="#dbd2cc"/><path d="m336.97 107.5h-157.484l9.91-23.124c8.591-20.045 20.838-34.649 40.622-41.802 3.248-1.174 9.662-3.343 9.662-3.343 5.285-1.138 10.739-1.731 16.29-1.731 30.94 0 58.902 18.438 71.09 46.876l.323.753-1.157 9.148z" fill="#e5dcd8"/><path d="m327.383 85.129c-22.98-7.66-47.203-11.629-71.413-11.629-15.83 0-31.663 1.703-47.152 5.018-2.473.529-4.462-2.043-3.31-4.294 7.906-15.439 19.924-27.566 34.172-34.994-24.17 5.21-44.8 21.81-54.8 45.15-.004.003.006-.002-.32.74.055-.11-9.481 22.12-9.59 22.38h17 145z" fill="#dbd2cc"/><path d="m394.47 418.5 6.997-122.25 10.147-62.237c1.791-10.983-1.862-22.152-9.797-29.954-11.098-10.913-17.348-25.825-17.348-41.389 0-21.88-12.303-41.9-31.822-51.785l-1.125-.57c-29.618-14.999-62.352-22.815-95.552-22.815-33.2 0-65.934 7.816-95.552 22.815l-1.125.57s-7.573 5.37-11.301 8.711c-12.114 10.856-18.225 26.929-18.225 43.66 0 15.564-3.561 30.878-14.659 41.79-7.935 7.802-11.587 18.971-9.797 29.954l8.48 60.5 7 123z" fill="#e5dcd8"/><g fill="#dbd2cc"><path d="m159.652 110.701c-10.454 10.003-16.182 24.47-16.182 39.379v12.59c0 15.56-6.25 30.48-17.35 41.39-6.6 6.49-10.24 15.31-10.24 24.42 0 1.84.15 3.69.45 5.53l10.14 61.49 7 123-15.846 2.712-7.154-125.712-10.14-61.49c-.3-1.84-.45-3.69-.45-5.53 0-9.11 3.64-17.93 10.24-24.42 5.55-5.46 9.89-11.91 12.84-18.95s4.51-14.66 4.51-22.44c0-21.88 12.3-41.9 31.82-51.79z"/><path d="m178.928 395.191-1.457 2.309-30.5 1.713v-28.793c0-1.59.13-3.18.38-4.75l.385-.336c16.57 0 31.192 13.287 31.192 29.857z"/><path d="m364.97 370.88v27.503l-30.5-.883-1.415-1.989c0-16.032 12.083-30.834 28-31.66.385-.02 3.068 1.835 3.455 1.829.31 1.71.46 3.45.46 5.2z"/></g><path d="m210.247 286.691c1.4 1.542 3.959 5.383 3.959 5.383 25.151 22.775 64.567 21.321 87.897-4.363 5.285-5.818 7.617-13.735 6.329-21.489l-41.406-249.35c-.587-3.535-2.79-6.454-5.776-8.051 0 0-3.382.084-5.28.084-5.481 0-8.868 3.497-9.766 8.904l-39.234 245.66c-1.287 7.753-2.008 17.404 3.277 23.222z" fill="#faf8f8"/><path d="m261.25 8.821-47.044 283.254c-1.51-1.36-2.966-2.825-4.366-4.365-5.29-5.82-7.62-13.73-6.33-21.49l41.4-249.35c.45-2.71 1.84-5.05 3.81-6.71 1.97-1.67 4.51-2.66 7.25-2.66 1.9 0 3.7.471 5.28 1.321z" fill="#f0e9e6"/><path d="m150.47 469.5h-16.86l-5.831-1.223c-11.046 0-18.128-7.731-18.128-18.777 0-17.257 6.99-32.108 19.628-42 1.26-.986 3.377-3.332 3.377-3.332 8.448-5.482 18.516-8.668 29.315-8.668h1.5l93.33 8.21 91.67-8.21h1.5c29.776 0 54 24.224 54 54 0 11.046-8.954 20-20 20h-21.5z" fill="#f0e9e6"/><path d="m133.61 469.5h-5.64c-11.05 0-20-8.95-20-20 0-18.977 9.843-35.706 24.684-45.334-6.789 11.577-10.684 26.474-10.684 42.044 0 10.33 4.76 19.24 11.64 23.29z" fill="#e5dcd8"/><path d="m348.47 395.5v10c0 24.26-19.74 44-44 44h-97c-24.26 0-44-19.74-44-44v-10z" fill="#e5dcd8"/><path d="m364.51 365.68c-16.37.24-30.04 13.57-30.04 29.99v9.83c0 16.57-13.43 30-30 30h-97c-16.57 0-30-13.43-30-30v-9.83c0-16.57-13.43-30-30-30h-.12c.23-1.43.56-2.84.99-4.22 4.84-15.44 19.15-25.95 35.33-25.95h144.44c15.78 0 29.82 10 34.98 24.91l.23.66c.52 1.5.92 3.05 1.19 4.61z" fill="#f0e9e6"/><path d="m149.47 450.149c0-7.72 6.28-14 14-14l.5-.649h186c7.72 0 14 6.28 14 14v2c0 29.271-23.729 53-53 53h-98.298l-11.617-1.394c-29.271 0-51.585-23.686-51.585-52.957z" fill="#e5dcd8"/><path d="m216.97 504.5h-16c-29.27 0-53-23.73-53-53v-2c0-7.72 6.28-14 14-14h2v16c0 29.27 23.73 53 53 53z" fill="#dbd2cc"/><path d="m336.63 435.5c-8.04 8.61-19.48 14-32.16 14h-97c-12.68 0-24.12-5.39-32.16-14z" fill="#dbd2cc"/></g><g><path d="m498.13 14.789c-1.096-3.599-4.69-5.83-8.398-5.215-15.338 2.536-27.149 2.161-37.571 1.829-19.725-.948-36.773-.28-53.089 22.202l-49.143 67.581c-3.067-1.458-6.163-2.84-9.283-4.15l-6.692-15.614c-10.39-24.244-31.359-42.152-56.695-48.71l-2.834-17.069c-1.505-9.064-9.267-15.643-18.455-15.643s-16.95 6.579-18.455 15.643l-2.834 17.069c-25.336 6.558-46.304 24.466-56.695 48.71l-6.692 15.613c-3.12 1.31-6.216 2.692-9.283 4.15-1.229-1.669-48.808-67.168-50.014-68.766-16.92-22.139-32.496-21.643-52.217-21.017-10.42.332-22.232.707-37.571-1.829-3.712-.615-7.303 1.616-8.398 5.215-.529 1.738-12.812 42.971-.296 79.415 1.346 3.917 5.613 6.005 9.529 4.657 3.917-1.345 6.003-5.612 4.657-9.529-8.285-24.126-3.79-51.856-1.095-63.971 13.577 1.673 24.568 1.323 33.65 1.035 18.94-.603 27.588-.877 39.824 15.133 7.517 9.833 5.978 23.425 4.196 39.162-1.598 14.121-3.41 30.125.985 46.729 1.16 4.382 3.888 10.501 7.078 16.821-23.278-7.334-55.709-18.366-67.791-29.037-3.105-2.742-7.845-2.446-10.586.659s-2.446 7.845.659 10.586c17.071 15.409 67.959 30.632 85.358 35.722.215 12.535-5.432 27.203-15.115 36.54-9.657 9.495-14.12 23.144-11.938 36.523 10.413 56.535 14.062 124.599 16.941 181.652-5.944 9.462-9.396 20.639-9.396 32.614 0 15.164 12.336 27.5 27.5 27.5h18.155c9.64 20.65 30.593 35 54.845 35h110c24.252 0 45.205-14.35 54.845-35h18.155c15.164 0 27.5-12.336 27.5-27.5 0-11.974-3.452-23.151-9.395-32.613l2.173-37.971c.237-4.136-2.924-7.68-7.059-7.917-4.132-.234-7.68 2.923-7.917 7.059l-1.323 23.123c-4.665-3.675-9.87-6.687-15.479-8.901v-21.403c0-2.869-.579-8.034-2.29-12.922-6.203-17.915-23.11-29.954-42.071-29.954h-89.48c-4.142 0-7.5 3.358-7.5 7.5s3.358 7.5 7.5 7.5h89.48c11.341 0 21.554 6.507 26.468 16.5-15.892 4.352-27.609 18.912-27.609 36.166v9.833c0 12.407-10.093 22.5-22.5 22.5h-97c-12.407 0-22.5-10.093-22.5-22.5v-9.833c0-17.313-11.796-31.916-27.771-36.212 4.906-9.997 15.043-16.454 26.468-16.454h20.068c4.142 0 7.5-3.358 7.5-7.5s-3.358-7.5-7.5-7.5h-20.068c-19.563 0-36.636 12.544-42.484 31.214-1.137 3.631-1.714 7.402-1.714 11.207v21.861c-5.607 2.213-10.81 5.223-15.474 8.896-2.527-54.122-6.629-115.014-16.268-168.372-1.397-8.566 1.464-17.314 7.653-23.4 12.449-12.242 19.589-29.277 19.589-46.736 0-19.159 10.618-36.438 27.71-45.094 18.266-9.449 40.251-16.789 61.237-20.038l-27.805 167.457c-1.673 10.08 1.307 20.198 8.176 27.76 13.206 14.539 32.043 22.876 51.684 22.876s38.479-8.338 51.684-22.876c6.87-7.562 9.85-17.681 8.177-27.76l-16.437-98.985c-.679-4.086-4.541-6.85-8.627-6.17-4.086.679-6.849 4.542-6.17 8.627l16.436 98.985c.918 5.525-.716 11.072-4.482 15.218-10.368 11.415-25.16 17.961-40.581 17.961s-30.212-6.546-40.581-17.962c-3.766-4.146-5.399-9.692-4.481-15.217l41.405-249.352c.298-1.796 1.837-3.1 3.658-3.1s3.359 1.304 3.657 3.1l19.252 115.94c.679 4.086 4.541 6.848 8.627 6.17 4.086-.679 6.849-4.542 6.17-8.627l-5.653-34.045c20.262 3.16 42.285 10.218 61.236 20.038 17.092 8.656 27.71 25.935 27.71 45.094 0 17.459 7.14 34.494 19.589 46.736 6.189 6.086 9.05 14.833 7.653 23.4-5.806 35.772-10.953 73.751-12.938 110.281-.237 4.136 2.924 7.68 7.059 7.917.146.008.291.012.436.012 3.946 0 7.252-3.082 7.481-7.071 1.859-35.157 7.067-73.613 12.767-108.724 2.179-13.366-2.284-27.014-11.94-36.509-9.197-8.816-15.28-23.223-15.115-36.54 16.827-4.844 66.471-19.96 83.792-34.38 44.784-37.285 23.312-109.929 22.376-113.003zm-187.16 482.211h-110c-25.089 0-45.5-20.411-45.5-45.5v-2c0-3.584 2.916-6.5 6.5-6.5h188c3.584 0 6.5 2.916 6.5 6.5v2c0 25.089-20.411 45.5-45.5 45.5zm46.5-122.713v14.187c-2.46-.301-4.96-.474-7.5-.474h-6.654c2.353-6.469 7.593-11.559 14.154-13.713zm-15.5 31.213v-2.5h8c25.64 0 46.5 20.86 46.5 46.5 0 6.893-5.607 12.5-12.5 12.5h-13.431c.508-2.985 1.116-8.4.892-13.268-.409-11.498-9.865-20.732-21.461-20.732h-15.52c4.719-6.272 7.52-14.064 7.52-22.5zm-187.5-31.213c6.561 2.154 11.802 7.244 14.154 13.713h-6.654c-2.54 0-5.04.173-7.5.474zm7.5 28.713h8v2.5c0 8.436 2.801 16.228 7.52 22.5h-15.52c-11.596 0-21.052 9.234-21.461 20.732-.141 3.7.033 7.932.892 13.268h-13.431c-6.893 0-12.5-5.607-12.5-12.5 0-25.64 20.86-46.5 46.5-46.5zm-36.655-266.359c-2.874-5.756-4.825-10.313-5.552-13.06-3.674-13.88-2.102-27.771-.582-41.204.492-4.344.975-8.63 1.276-12.838l28.271 38.881c-10.475 7.074-18.53 16.884-23.413 28.221zm65.327-46.67c6.965-18.368 22.706-34.034 41.291-40.708l-5.436 32.735c-12.205 1.654-24.178 4.323-35.855 7.973zm89.366-40.708c18.364 6.543 34.011 21.918 41.291 40.709-11.676-3.65-23.65-6.32-35.855-7.974zm112.17 74.318c-.727 2.747-2.678 7.304-5.552 13.06-4.883-11.337-12.937-21.147-23.412-28.22l28.27-38.877c.301 4.207.784 8.491 1.275 12.833 1.521 13.433 3.093 27.324-.581 41.204zm73.978-7.318c-11.484 9.562-43.87 20.953-66.555 27.978 3.19-6.32 5.917-12.439 7.078-16.821 4.396-16.605 2.583-32.609.985-46.73-1.782-15.737-3.32-29.328 4.196-39.162 10.097-13.211 17.749-15.333 30.759-15.333 12.42.136 25.591 1.245 42.709-.833 3.801 17.165 11.18 65.633-19.172 90.901z"/><path d="m155.97 243c-4.142 0-7.5 3.358-7.5 7.5v25c0 4.142 3.358 7.5 7.5 7.5s7.5-3.358 7.5-7.5v-25c0-4.142-3.358-7.5-7.5-7.5z"/><path d="m355.97 243c-4.142 0-7.5 3.358-7.5 7.5v25c0 4.142 3.358 7.5 7.5 7.5s7.5-3.358 7.5-7.5v-25c0-4.142-3.358-7.5-7.5-7.5z"/></g></g></svg>