<svg enable-background="new 0 0 512 512" viewBox="0 0 512 512" xmlns="http://www.w3.org/2000/svg"><g id="Layer_1" display="none"><g display="inline" fill="none" stroke="#6d6e71" stroke-miterlimit="10" stroke-width=".284"><path d="m0 0h512v512h-512z"/><circle cx="256" cy="256" r="256"/><path d="m75 75h362v362h-362z"/><path d="m128 0h256v512h-256z"/><path d="m256 0v512"/><path d="m0 128h512v256h-512z"/><path d="m0 256h512"/><path d="m512 0-512 512"/><path d="m0 0 512 512"/><circle cx="256" cy="256" r="181.3"/><circle cx="256" cy="256" r="128"/><circle cx="256" cy="256" r="64"/></g></g><g id="Layer_2"><g><g><g><path d="m108.6 121.6-24.7-24.7c-23.6-23.6-23.6-62.3 0-86 1.8-1.8 4.2-2.7 6.6-2.7s4.8.9 6.6 2.7l55 55" fill="#686868"/><path d="m102.7 127.4-24.6-24.6c-26.9-26.9-26.9-70.7 0-97.6 3.3-3.4 7.8-5.2 12.4-5.2 4.7 0 9.1 1.8 12.4 5.1l55 55-11.6 11.6-55-55c-.3-.3-.6-.3-.8-.3s-.5.1-.8.3c-20.5 20.5-20.5 53.8 0 74.3l24.6 24.6z" fill="#231f20"/></g><g><path d="m359.8 66 55-55c1.8-1.8 4.2-2.7 6.6-2.7s4.8.9 6.6 2.7c23.6 23.6 23.6 62.3 0 86l-24.6 24.6" fill="#686868"/><path d="m409.3 127.4-11.6-11.6 24.6-24.6c20.5-20.5 20.5-53.8 0-74.3-.3-.3-.6-.3-.8-.3s-.5.1-.8.3l-55 55-11.7-11.7 55-55c3.3-3.3 7.7-5.1 12.4-5.1s9.1 1.8 12.4 5.1c26.9 26.9 26.9 70.7 0 97.6z" fill="#231f20"/></g></g><g><path d="m273 503.8h-32.7c-115.9 0-134.1-66.1-135.7-100.9-.6-13.6-6.3-26.4-16.1-35.9-16.3-15.8-38.3-41.3-38.3-64.2 0-23.2 9.5-44.4 24.8-59.7 1.3-1.3 2.5-2.5 3.9-3.6 18-15.9 21.2-63.2 21.2-63.2 0-66.2 32.5-132.3 119.9-119.9 7.4 1.1 28.5 3.6 36 3.6s28.6-2.6 36-3.6c87.4-12.4 119.9 53.7 119.9 119.9 0 0 3.7 47.5 21.9 63.8 17.2 15.5 28 37.9 28 62.7 0 23.2-9.5 44.4-24.8 59.7-1.9 1.9-4.5 4-7.4 6-12.8 9-21.1 23.1-22.3 38.6-3 35.6-23.9 96.7-134.3 96.7z" fill="#c4b9b7"/><path d="m273 512h-32.7c-53 0-92.3-13.5-116.8-40.1-20.9-22.7-26.3-49.9-27.1-68.7-.5-11.6-5.3-22.4-13.6-30.3-18.6-18-40.8-44.9-40.8-70.1 0-24.7 9.7-47.9 27.2-65.5 1.4-1.4 2.8-2.7 4.2-4 12.6-11.1 17.5-44.9 18.4-57.3.1-45.8 14.4-83.5 40.4-106 22.6-19.6 52.5-26.9 88.9-21.7 8.4 1.2 28.3 3.5 34.8 3.5 6.5 0 26.4-2.3 34.8-3.5 36.4-5.2 66.3 2.1 88.9 21.7 26 22.5 40.3 60.2 40.4 106 1 12.6 6.4 46.6 19.1 58 19.5 17.6 30.8 42.7 30.8 68.9 0 24.7-9.7 48-27.2 65.5-2.1 2.1-4.9 4.4-8.5 6.9-11 7.7-17.9 19.6-18.9 32.5-1.5 18.5-7.7 45.1-29 66.8-24.4 24.8-62.5 37.4-113.3 37.4zm-73.5-449c-22.7 0-41.6 6.5-56.4 19.3-22 19.1-34.7 53.4-34.7 93.9v.5c-.3 5.2-4 51.2-24 68.8-1.2 1.1-2.4 2.2-3.5 3.3-14.5 14.5-22.4 33.6-22.4 53.9 0 15.2 12.7 35.9 35.8 58.3 11.2 10.9 17.8 25.6 18.5 41.4 1.6 34.7 20.2 93 127.5 93h32.7c103.4 0 123.3-55.8 125.9-89.1 1.4-17.9 10.8-34.2 25.8-44.7 2.8-1.9 4.9-3.7 6.3-5.1 14.5-14.4 22.4-33.6 22.4-53.9 0-21.5-9.2-42.1-25.3-56.6-20-18-24.1-64.1-24.5-69.3v-.6c0-40.5-12.6-74.8-34.7-93.9-18.8-16.2-44.3-22.2-75.8-17.7-6.6.9-28.7 3.7-37.1 3.7-8.4 0-30.5-2.7-37.1-3.7-6.8-1-13.2-1.5-19.4-1.5z" fill="#231f20"/></g><g><g><circle cx="134.8" cy="284.2" fill="#edebe8" r="27.9"/><path d="m134.8 320.3c-19.9 0-36.1-16.2-36.1-36.1s16.2-36.1 36.1-36.1 36.1 16.2 36.1 36.1-16.2 36.1-36.1 36.1zm0-55.8c-10.8 0-19.6 8.8-19.6 19.6s8.8 19.6 19.6 19.6 19.6-8.8 19.6-19.6-8.7-19.6-19.6-19.6z" fill="#231f20"/></g><g><circle cx="377.2" cy="284.2" fill="#edebe8" r="27.9"/><path d="m377.2 320.3c-19.9 0-36.1-16.2-36.1-36.1s16.2-36.1 36.1-36.1 36.1 16.2 36.1 36.1-16.2 36.1-36.1 36.1zm0-55.8c-10.8 0-19.6 8.8-19.6 19.6s8.8 19.6 19.6 19.6 19.6-8.8 19.6-19.6-8.8-19.6-19.6-19.6z" fill="#231f20"/></g></g><g><path d="m251.9 149.2-39.5 185.5c-5.9 27.8 15.3 53.9 43.6 53.9 28.4 0 49.6-26.2 43.6-53.9l-39.5-185.5c-.9-4.4-7.3-4.4-8.2 0z" fill="#edebe8"/><path d="m256 396.9c-16 0-31-7.1-41.1-19.6s-13.9-28.6-10.6-44.3l39.5-185.5c1.2-5.8 6.2-9.8 12.2-9.8 5.9 0 10.9 4 12.2 9.8l39.5 185.5c3.3 15.7-.5 31.8-10.6 44.3-10.1 12.4-25.1 19.6-41.1 19.6zm0-227.4-35.6 167c-2.3 10.8.4 21.9 7.3 30.5s17.3 13.5 28.3 13.5 21.3-4.9 28.3-13.5c6.9-8.6 9.6-19.7 7.3-30.5z" fill="#231f20"/></g><g><g><path d="m170.8 424.1-28.6-28.6c-1-1-.8-2.5.2-3.3 8.9-7.1 21.8-6.5 30 1.7s8.8 21.2 1.7 30c-.8 1.1-2.3 1.2-3.3.2z" fill="#686868"/><path d="m172.4 433c-2.8 0-5.4-1.1-7.4-3.1l-28.6-28.6c-2.1-2.1-3.2-5-3-8s1.6-5.8 3.9-7.6c12.3-9.8 29.9-8.8 41 2.3s12.1 28.7 2.3 41c-1.9 2.3-4.6 3.8-7.6 3.9-.2.1-.4.1-.6.1zm-18.3-37.3 16.6 16.6c.8-4.5-.6-9.2-4-12.6s-8.2-4.7-12.6-4z" fill="#231f20"/></g><g><path d="m339.5 393.9c8.2-8.2 21.2-8.8 30-1.7 1 .8 1.2 2.4.2 3.3l-28.6 28.6c-1 1-2.5.8-3.3-.2-7.1-8.8-6.5-21.8 1.7-30z" fill="#686868"/><path d="m339.6 433c-.2 0-.4 0-.6 0-3-.2-5.8-1.6-7.6-3.9-9.8-12.3-8.8-29.9 2.3-41s28.7-12.1 41-2.3c2.3 1.9 3.8 4.6 3.9 7.6.2 3-.9 5.9-3 8l-28.6 28.6c-2 1.9-4.6 3-7.4 3zm15.9-37.5c-3.7 0-7.4 1.4-10.1 4.2-3.4 3.4-4.8 8.1-4 12.6l16.6-16.6c-.9-.1-1.7-.2-2.5-.2z" fill="#231f20"/></g></g></g></g></svg>