<svg id="Capa_1" enable-background="new 0 0 507.32 507.32" height="512" viewBox="0 0 507.32 507.32" width="512" xmlns="http://www.w3.org/2000/svg"><g><g><g fill="#aa9ea9"><path d="m384.456 499.823h-261.592c-6.627 0-12-5.373-12-12v-39.971h285.592v39.971c0 6.627-5.372 12-12 12z"/><path d="m470.244 249.823h-433.167c-6.627 0-12-5.373-12-12v-26.087c0-6.627 5.373-12 12-12h433.167c6.627 0 12 5.373 12 12v26.087c0 6.627-5.373 12-12 12z"/><path d="m348.49 79.637h-30v-40.14c0-1.105-.895-2-2-2h-125.66c-1.105 0-2 .895-2 2v40.14h-30v-53.14c0-10.493 8.507-19 19-19h151.66c10.493 0 19 8.507 19 19z"/></g><path d="m415.561 73.475h-323.801c-9.941 0-18 8.059-18 18v35.97h359.801v-35.97c0-9.941-8.059-18-18-18z" fill="#c4d7fb"/><path d="m396.456 447.851v39.97c0 6.63-5.37 12-12 12h-25c6.63 0 12-5.37 12-12v-39.97z" fill="#9b8e99"/><path d="m440.216 144.521-22.54 315.3c-.45 6.28-5.67 11.14-11.97 11.14h-304.09c-6.3 0-11.53-4.86-11.97-11.14l-22.54-315.3z" fill="#eef5ff"/><path d="m433.566 91.471v35.97h-25v-35.97c0-9.94-8.06-18-18-18h25c9.94 0 18 8.06 18 18z" fill="#a9c6f9"/><path d="m440.216 144.521-22.54 315.3c-.45 6.28-5.67 11.14-11.97 11.14h-25c6.3 0 11.52-4.86 11.97-11.14l22.54-315.3z" fill="#dfe9fb"/><path d="m441.175 169.422h-375.03c-6.627 0-12-5.373-12-12v-28.471c0-6.627 5.373-12 12-12h375.03c6.627 0 12 5.373 12 12v28.471c0 6.628-5.373 12-12 12z" fill="#aa9ea9"/><path d="m313.396 358.871v112.09h-119.47v-112.09c0-13.26 10.74-24 24-24h71.47c13.26 0 24 10.74 24 24z" fill="#c4d7fb"/><path d="m313.396 358.871v112.09h-25v-112.09c0-13.26-10.74-24-24-24h25c13.26 0 24 10.74 24 24z" fill="#a9c6f9"/><circle cx="253.66" cy="383.91" fill="#ff8087" r="21.13"/><path d="m305.399 296.692h-103.478c-4.418 0-8-3.582-8-8v-35.652c0-4.418 3.582-8 8-8h103.478c4.418 0 8 3.582 8 8v35.652c0 4.418-3.581 8-8 8z" fill="#b4e6a0"/><path d="m313.396 253.041v35.65c0 4.42-3.58 8-8 8h-25c4.42 0 8-3.58 8-8v-35.65c0-4.42-3.58-8-8-8h25c4.42 0 8 3.58 8 8z" fill="#96d7a5"/><path d="m453.176 128.951v28.47c0 6.63-5.37 12-12 12h-25c6.63 0 12-5.37 12-12v-28.47c0-6.63-5.37-12-12-12h25c6.63 0 12 5.37 12 12z" fill="#9b8e99"/></g><g><path d="m253.66 355.279c-15.787 0-28.631 12.844-28.631 28.631s12.844 28.63 28.631 28.63 28.631-12.844 28.631-28.63c0-15.787-12.844-28.631-28.631-28.631zm0 42.262c-7.516 0-13.631-6.115-13.631-13.63 0-7.516 6.115-13.631 13.631-13.631s13.631 6.115 13.631 13.631c0 7.515-6.115 13.63-13.631 13.63z"/><path d="m470.24 192.24h-25.913l1.13-15.811c8.693-1.961 15.212-9.732 15.212-19.01v-28.47c0-10.752-8.748-19.5-19.5-19.5h-.109v-17.979c0-14.061-11.439-25.5-25.5-25.5h-59.57v-39.47c0-14.612-11.888-26.5-26.5-26.5h-151.66c-14.612 0-26.5 11.888-26.5 26.5v39.47h-59.57c-14.061 0-25.5 11.439-25.5 25.5v17.98h-.11c-10.752 0-19.5 8.748-19.5 19.5v28.47c0 9.278 6.519 17.049 15.212 19.01l1.13 15.811h-25.912c-10.752 0-19.5 8.748-19.5 19.5v26.08c0 10.752 8.748 19.5 19.5 19.5h30.565l14.515 203.034c.726 10.152 9.27 18.104 19.45 18.104h1.75v9.36c0 10.752 8.748 19.5 19.5 19.5h261.6c10.752 0 19.5-8.748 19.5-19.5v-9.36h1.75c10.181 0 18.725-7.953 19.45-18.105l14.515-203.035h30.565c10.752 0 19.5-8.748 19.5-19.5v-26.08c0-10.751-8.748-19.499-19.5-19.499zm-303.91-165.74c0-6.341 5.159-11.5 11.5-11.5h151.66c6.341 0 11.5 5.159 11.5 11.5v39.47h-15v-26.47c0-5.238-4.262-9.5-9.5-9.5h-125.66c-5.238 0-9.5 4.262-9.5 9.5v26.47h-15zm144.66 39.47h-114.66v-20.97h114.66zm-249.34 62.98c0-2.481 2.019-4.5 4.5-4.5h44.92c4.143 0 7.5-3.358 7.5-7.5s-3.357-7.5-7.5-7.5h-29.81v-17.98c0-5.79 4.71-10.5 10.5-10.5h323.801c5.79 0 10.5 4.71 10.5 10.5v17.98h-279.991c-4.143 0-7.5 3.358-7.5 7.5s3.357 7.5 7.5 7.5h295.1c2.481 0 4.5 2.019 4.5 4.5v28.47c0 2.481-2.019 4.5-4.5 4.5h-375.02c-2.481 0-4.5-2.019-4.5-4.5zm-24.57 113.37c-2.481 0-4.5-2.019-4.5-4.5v-26.08c0-2.481 2.019-4.5 4.5-4.5h26.985l2.508 35.08zm373.119 216.965c-.168 2.341-2.14 4.175-4.489 4.175h-29.35c-4.143 0-7.5 3.358-7.5 7.5s3.357 7.5 7.5 7.5h12.6v9.36c0 2.481-2.019 4.5-4.5 4.5h-261.6c-2.481 0-4.5-2.019-4.5-4.5v-9.36h223c4.143 0 7.5-3.358 7.5-7.5s-3.357-7.5-7.5-7.5h-20.46v-104.59c0-17.369-14.131-31.5-31.5-31.5h-71.48c-17.369 0-31.5 14.131-31.5 31.5v104.59h-84.81c-2.35 0-4.321-1.834-4.489-4.174l-20.186-282.366h353.451zm-104.299 4.175h-104.48v-104.59c0-9.098 7.402-16.5 16.5-16.5h71.48c9.098 0 16.5 7.402 16.5 16.5zm168.84-225.64c0 2.481-2.019 4.5-4.5 4.5h-29.493l2.508-35.08h26.985c2.481 0 4.5 2.019 4.5 4.5z"/><path d="m305.399 237.541h-103.478c-8.547 0-15.5 6.953-15.5 15.5v35.651c0 8.547 6.953 15.5 15.5 15.5h103.479c8.547 0 15.5-6.953 15.5-15.5v-35.651c-.001-8.547-6.954-15.5-15.501-15.5zm.5 51.151c0 .276-.225.5-.5.5h-103.478c-.275 0-.5-.224-.5-.5v-35.651c0-.276.225-.5.5-.5h103.479c.275 0 .5.224.5.5v35.651z"/></g></g></svg>