<svg id="Layer_1" viewBox="0 0 1000 1000" xmlns="http://www.w3.org/2000/svg" data-name="Layer 1"><path d="m763.32 338.91h-524.49c55.07-46.37 154.65-76 262.24-76s207.17 29.63 262.25 76z" fill="#e53935"/><path d="m822.11 388.4a17.51 17.51 0 0 1 -17.49 17.49h-609.26a17.49 17.49 0 0 1 0-35h609.26a17.51 17.51 0 0 1 17.49 17.51z" fill="#bdbdbd"/><path d="m196.16 528.29c-29.48-17.06-61.63-19.69-65.13-19.93-.4 0-.81-.05-1.22-.05a13.79 13.79 0 0 1 -13.81-13.83 13.38 13.38 0 0 1 4.29-9.51 15.32 15.32 0 0 1 10.47-4.31h59.74z" fill="#546e7a"/><path d="m217.63 437.89 2.86 24c.09.52.15 1.05.19 1.59l12.19 102.52c0 .32.09.63.11.94l21.8 183.25c.64 5.39 1.11 10.76 1.55 15.95l.34 3.91c.34 3.82 3 11 16.82 16.5a59.05 59.05 0 0 0 21.72 3.88h409.56a59.14 59.14 0 0 0 21.73-3.88c13.84-5.45 16.48-12.68 16.81-16.5l.34-3.91c.45-5.19.91-10.56 1.55-15.95l34.16-287.13c0-.28.06-.57.1-.86l2.89-24.33zm369.44 275.62a55 55 0 0 1 -54.93 54.93h-62.14a55 55 0 0 1 -54.94-54.93v-136a55 55 0 0 1 54.94-54.96h62.13a55 55 0 0 1 54.93 54.94z" fill="#e53935"/><path d="m532.14 554.55h-62.14a23 23 0 0 0 -22.94 22.94v136a23 23 0 0 0 22.94 22.95h62.13a23 23 0 0 0 22.93-22.93v-136a23 23 0 0 0 -22.92-22.96zm-57.07 15h52a16 16 0 1 1 0 32h-52a16 16 0 1 1 0-32zm0 40h52a16 16 0 1 1 0 32h-52a16 16 0 1 1 0-32zm72 86.28a25.75 25.75 0 0 1 -25.72 25.72h-40.56a25.75 25.75 0 0 1 -25.72-25.72v-20.61a25.75 25.75 0 0 1 25.72-25.72h40.56a25.74 25.74 0 0 1 25.72 25.72z" fill="#bdbdbd"/><path d="m884 494.48a13.79 13.79 0 0 1 -13.81 13.83c-.39 0-.78 0-1.17.05-3.21.22-35.56 2.78-65.19 19.93l5.66-47.63h59.75a15.32 15.32 0 0 1 10.47 4.34 13.38 13.38 0 0 1 4.29 9.48z" fill="#546e7a"/><path d="m520.55 218.56v12.63q-9.69-.3-19.48-.3t-19.47.3v-12.63z" fill="#616161"/><path d="m572.4 168.59a18 18 0 0 1 -18 18h-106.68a18 18 0 1 1 0-35.95h106.71a18 18 0 0 1 17.97 17.95z" fill="#616161"/><path d="m401.42 822.45v2.8a24.17 24.17 0 0 1 -24.14 24.14h-37.34a24.17 24.17 0 0 1 -24.14-24.14v-2.8z" fill="#bdbdbd"/><path d="m684.18 822.45v2.8a24.17 24.17 0 0 1 -24.18 24.14h-37.29a24.17 24.17 0 0 1 -24.14-24.14v-2.8z" fill="#bdbdbd"/><path d="m487.07 681.5h28v8h-28z" fill="#616161"/><g fill="#fff" opacity=".5"><path d="m753.32 348.91h-524.49c55.07-46.37 154.65-76 262.24-76s207.17 29.63 262.25 76z"/><path d="m812.11 398.4a17.51 17.51 0 0 1 -17.49 17.49h-609.26a17.49 17.49 0 0 1 0-35h609.26a17.51 17.51 0 0 1 17.49 17.51z"/><path d="m186.16 538.29c-29.48-17.06-61.63-19.69-65.13-19.93-.4 0-.81-.05-1.22-.05a13.79 13.79 0 0 1 -13.81-13.83 13.38 13.38 0 0 1 4.29-9.51 15.32 15.32 0 0 1 10.47-4.31h59.74z"/><path d="m207.63 447.89 2.86 24c.09.52.15 1.05.19 1.59l12.19 102.52c0 .32.09.63.11.94l21.8 183.25c.64 5.39 1.11 10.76 1.55 15.95l.34 3.91c.34 3.82 3 11 16.82 16.5a59.05 59.05 0 0 0 21.72 3.88h409.56a59.14 59.14 0 0 0 21.73-3.88c13.84-5.45 16.48-12.68 16.81-16.5l.34-3.91c.45-5.19.91-10.56 1.55-15.95l34.16-287.13c0-.28.06-.57.1-.86l2.89-24.33zm369.44 275.62a55 55 0 0 1 -54.93 54.93h-62.14a55 55 0 0 1 -54.94-54.93v-136a55 55 0 0 1 54.94-54.96h62.13a55 55 0 0 1 54.93 54.94z"/><path d="m522.14 564.55h-62.14a23 23 0 0 0 -22.94 22.94v136a23 23 0 0 0 22.94 22.95h62.13a23 23 0 0 0 22.93-22.93v-136a23 23 0 0 0 -22.92-22.96zm-57.07 15h52a16 16 0 1 1 0 32h-52a16 16 0 1 1 0-32zm0 40h52a16 16 0 1 1 0 32h-52a16 16 0 1 1 0-32zm72 86.28a25.75 25.75 0 0 1 -25.72 25.72h-40.56a25.75 25.75 0 0 1 -25.72-25.72v-20.61a25.75 25.75 0 0 1 25.72-25.72h40.56a25.74 25.74 0 0 1 25.72 25.72z"/><path d="m874 504.48a13.79 13.79 0 0 1 -13.81 13.83c-.39 0-.78 0-1.17.05-3.21.22-35.56 2.78-65.19 19.93l5.66-47.63h59.75a15.32 15.32 0 0 1 10.47 4.34 13.38 13.38 0 0 1 4.29 9.48z"/><path d="m510.55 228.56v12.63q-9.69-.3-19.48-.3t-19.47.3v-12.63z"/><path d="m562.4 178.59a18 18 0 0 1 -18 18h-106.68a18 18 0 1 1 0-35.95h106.71a18 18 0 0 1 17.97 17.95z"/><path d="m391.42 832.45v2.8a24.17 24.17 0 0 1 -24.14 24.14h-37.34a24.17 24.17 0 0 1 -24.14-24.14v-2.8z"/><path d="m674.18 832.45v2.8a24.17 24.17 0 0 1 -24.18 24.14h-37.29a24.17 24.17 0 0 1 -24.14-24.14v-2.8z"/><path d="m477.07 691.5h28v8h-28z"/></g><g fill="#413b32"><path d="m810.16 367.74a16 16 0 0 1 -22.39-3.27q-1.87-2.52-3.92-5c-.45-.56-.91-1.1-1.38-1.65s-1.14-1.34-1.73-2l-.16-.18-1-1.07-1.14-1.25c-.65-.71-1.32-1.42-2-2.12-.46-.49-.93-1-1.41-1.45s-1-1.06-1.58-1.58c-.34-.35-.69-.69-1-1l-.56-.54-.16-.15a.12.12 0 0 0 -.05-.05l-.77-.73c-.22-.22-.45-.43-.67-.63-.55-.52-1.11-1-1.68-1.55l-1.46-1.32-.06-.05c-.61-.54-1.22-1.08-1.84-1.61l-1.84-1.58c-55.08-46.37-154.66-76-262.25-76s-207.17 29.65-262.24 76l-1.87 1.55c-.62.53-1.24 1.07-1.84 1.61l-.06.05-1.46 1.32-1.72 1.51c-.23.2-.45.41-.67.63h-.05l-.93.89-.56.54-1.05 1c-.54.52-1.07 1.05-1.58 1.58s-1 1-1.41 1.45c-.27.27-.53.54-.79.82-.41.43-.81.86-1.21 1.3-.66.71-1.3 1.42-1.94 2.14-.81.91-1.61 1.83-2.39 2.76-.35.41-.7.83-1 1.25q-2 2.47-3.92 5a16 16 0 0 1 -25.67-19.11q2.41-3.24 5-6.42c47.25-57.17 143.62-96.53 255.85-105.83q15.81-1.32 32-1.82 9.67-.3 19.47-.3t19.48.3q16.19.5 32 1.82c112.3 9.3 208.7 48.71 256 106.05q2.57 3.12 4.94 6.3a16 16 0 0 1 -3.33 22.39z"/><path d="m787.77 364.47q-1.87-2.52-3.92-5c-.45-.56-.91-1.1-1.38-1.65s-1.14-1.34-1.73-2l-.16-.18-1-1.07-1.14-1.25c-.65-.71-1.32-1.42-2-2.12-.46-.49-.93-1-1.41-1.45s-1-1.06-1.58-1.58c-.34-.35-.69-.69-1-1l-.56-.54-.16-.15v-.05l-.77-.73c-.22-.22-.45-.43-.67-.63-.55-.52-1.11-1-1.68-1.55l-1.46-1.32-.06-.05c-.61-.54-1.22-1.08-1.84-1.61l-1.84-1.58h-524.58l-1.83 1.55c-.62.53-1.24 1.07-1.84 1.61l-.06.05-1.46 1.32-1.72 1.51c-.23.2-.45.41-.67.63h-.05l-.93.89-.56.54-1.05 1c-.53.52-1.06 1.05-1.58 1.58s-1 1-1.41 1.45c-.27.27-.53.54-.79.82-.41.43-.81.86-1.21 1.3-.66.71-1.3 1.42-1.94 2.14-.81.91-1.61 1.83-2.39 2.76-.35.41-.7.83-1 1.25q-2 2.47-3.92 5a16 16 0 0 1 -12.84 6.44h599.04a16 16 0 0 1 -12.85-6.33zm20.73-25.41c-1.28-.1-2.57-.15-3.88-.15h-609.26c-.54 0-1.08 0-1.61 0a49.49 49.49 0 0 0 1.62 98.95h609.25a49.49 49.49 0 0 0 3.88-98.83zm-3.88 66.83h-609.26a17.49 17.49 0 0 1 0-35h609.26a17.49 17.49 0 1 1 0 35zm-16.85-41.42q-1.87-2.52-3.92-5c-.45-.56-.91-1.1-1.38-1.65s-1.14-1.34-1.73-2l-.16-.18-1-1.07-1.14-1.25c-.65-.71-1.32-1.42-2-2.12-.46-.49-.93-1-1.41-1.45s-1-1.06-1.58-1.58c-.34-.35-.69-.69-1-1l-.56-.54-.2-.2-.77-.73c-.22-.22-.45-.43-.67-.63-.55-.52-1.11-1-1.68-1.55l-1.46-1.32-.06-.05c-.61-.54-1.22-1.08-1.84-1.61l-1.84-1.58h-524.54l-1.83 1.55c-.62.53-1.24 1.07-1.84 1.61l-.06.05-1.46 1.32-1.72 1.51c-.23.2-.45.41-.67.63h-.05l-.93.89-.56.54-1.05 1c-.53.52-1.06 1.05-1.58 1.58s-1 1-1.41 1.45c-.27.27-.53.54-.79.82-.41.43-.81.86-1.21 1.3-.66.71-1.3 1.42-1.94 2.14-.81.91-1.61 1.83-2.39 2.76-.35.41-.7.83-1 1.25q-2 2.47-3.92 5a16 16 0 0 1 -12.84 6.44h599.04a16 16 0 0 1 -12.85-6.33z"/><path d="m816.26 423.78-1.56 13.07-1.4 11.81-3.81 32-5.66 47.63-5.48 46-21.35 179.71c-.58 4.88-1 9.76-1.44 14.92l-.35 4c-.79 9-6 31.27-37 43.46a87 87 0 0 1 -22 5.45 97.16 97.16 0 0 1 -11.41.66h-409.59a97.28 97.28 0 0 1 -11.41-.66 87.14 87.14 0 0 1 -22-5.45c-31-12.19-36.18-34.45-37-43.46l-.35-4c-.44-5.16-.86-10-1.44-14.92l-21.37-179.68-5.48-46-5.66-47.63-3.81-32-1.4-11.8-1.56-13.08a16 16 0 0 1 14-17.78 15.35 15.35 0 0 1 1.9-.11 16 16 0 0 1 15.87 14.08l2.13 17.89 2.86 24 .19 1.59 12.19 102.52.11.94 21.8 183.25c.64 5.39 1.11 10.76 1.55 15.95l.34 3.91c.34 3.82 3 11 16.82 16.5a59.05 59.05 0 0 0 21.72 3.88h409.56a59.14 59.14 0 0 0 21.73-3.88c13.84-5.45 16.48-12.68 16.81-16.5l.34-3.91c.45-5.19.91-10.56 1.55-15.95l34.16-287.13c0-.28.06-.57.1-.86l2.89-24.33 2.13-17.87a16 16 0 0 1 15.87-14.11 15.4 15.4 0 0 1 1.91.11 16 16 0 0 1 14 17.78z"/><path d="m532.14 522.55h-62.14a55 55 0 0 0 -54.94 54.94v136a55 55 0 0 0 54.94 54.95h62.13a55 55 0 0 0 54.93-54.93v-136a55 55 0 0 0 -54.92-54.96zm22.93 191a23 23 0 0 1 -22.93 22.93h-62.14a23 23 0 0 1 -22.94-22.93v-136a23 23 0 0 1 22.94-23h62.13a23 23 0 0 1 22.93 22.94z"/><path d="m226 581.62a16 16 0 0 1 -22.2-4.37c-.67-1-1.38-2-2.11-2.93-22.14-28.93-68.37-33.65-72.51-34a45.81 45.81 0 0 1 -45.18-45.83 44.92 44.92 0 0 1 14.15-32.62 46.93 46.93 0 0 1 32.61-13.21h74a16 16 0 0 1 15.77 13.26l.19 1.59v1.15a16 16 0 0 1 -16 16h-74a15.32 15.32 0 0 0 -10.43 4.34 13.38 13.38 0 0 0 -4.29 9.51 13.79 13.79 0 0 0 13.81 13.83c.41 0 .82 0 1.22.05 3.5.24 35.65 2.87 65.13 19.93 12.73 7.36 25 17.41 34.16 31.13a15.86 15.86 0 0 1 2.55 6.59l.11.94a16 16 0 0 1 -6.98 14.64z"/><path d="m916 494.49a45.79 45.79 0 0 1 -45.14 45.82c-4.2.35-50.24 4.88-72.51 34-.73.95-1.43 1.93-2.1 2.93a16 16 0 0 1 -26.57-17.83c9.2-13.71 21.43-23.76 34.15-31.13 29.63-17.15 62-19.71 65.19-19.93.39 0 .78-.05 1.17-.05a13.79 13.79 0 0 0 13.81-13.82 13.38 13.38 0 0 0 -4.29-9.51 15.32 15.32 0 0 0 -10.47-4.31h-74a16 16 0 0 1 -16-16c0-.53 0-1.06.08-1.58 0-.28.06-.57.1-.86a16 16 0 0 1 15.82-13.56h74a46.93 46.93 0 0 1 32.61 13.21 44.92 44.92 0 0 1 14.15 32.62z"/><path d="m481.6 202.55v45.37a16 16 0 1 1 -32 0v-45.37a16 16 0 0 1 15.59-16h.81a16 16 0 0 1 15.6 16z"/><path d="m552.55 202.55v45.37a16 16 0 1 1 -32 0v-45.37a16 16 0 0 1 15.59-16h.86a16 16 0 0 1 15.55 16z"/><path d="m554.43 118.61h-106.71a50 50 0 1 0 0 100h106.71a50 50 0 0 0 0-99.95zm0 68h-106.71a18 18 0 1 1 0-35.95h106.71a18 18 0 0 1 0 35.95z"/><path d="m433.42 806.45v18.8a56.2 56.2 0 0 1 -56.14 56.14h-37.34a56.2 56.2 0 0 1 -56.14-56.14v-18.8a16 16 0 0 1 32 0v18.8a24.17 24.17 0 0 0 24.14 24.14h37.34a24.17 24.17 0 0 0 24.14-24.14v-18.8a16 16 0 0 1 32 0z"/><path d="m716.18 806.45v18.8a56.2 56.2 0 0 1 -56.18 56.14h-37.29a56.2 56.2 0 0 1 -56.14-56.14v-18.8a16 16 0 0 1 32 0v18.8a24.17 24.17 0 0 0 24.14 24.14h37.29a24.17 24.17 0 0 0 24.14-24.14v-18.8a16 16 0 0 1 32 0z"/><path d="m543.07 585.5a16 16 0 0 1 -16 16h-52a16 16 0 1 1 0-32h52a16 16 0 0 1 16 16z"/><path d="m543.07 625.5a16 16 0 0 1 -16 16h-52a16 16 0 1 1 0-32h52a16 16 0 0 1 16 16z"/><path d="m521.35 649.5h-40.56a25.75 25.75 0 0 0 -25.72 25.72v20.56a25.75 25.75 0 0 0 25.72 25.72h40.56a25.75 25.75 0 0 0 25.72-25.72v-20.56a25.74 25.74 0 0 0 -25.72-25.72zm-6.28 40h-28v-8h28z"/></g></svg>