<svg id="Capa_1" enable-background="new 0 0 512 512" height="512" viewBox="0 0 512 512" width="512" xmlns="http://www.w3.org/2000/svg"><g><g><path d="m256 140.842c-100.421 0-181.829 81.407-181.829 181.829s81.408 181.828 181.829 181.828 181.829-81.407 181.829-181.829-81.408-181.828-181.829-181.828zm0 313.149c-72.41 0-131.321-58.91-131.321-131.321s58.911-131.32 131.321-131.32 131.321 58.91 131.321 131.321-58.911 131.32-131.321 131.32z" fill="#f7e365"/></g><g><path d="m369.925 180.966c25.094 31.173 40.124 70.791 40.124 113.925 0 100.421-81.407 181.829-181.829 181.829-43.134 0-82.752-15.029-113.925-40.124 33.328 41.402 84.418 67.903 141.705 67.903 100.421 0 181.829-81.407 181.829-181.829 0-57.286-26.502-108.376-67.904-141.704z" fill="#f3d332"/></g><g><path d="m417.625 177.208h-323.25c-7.811 0-14.142-6.332-14.142-14.142v-82.833c0-7.811 6.332-14.142 14.142-14.142h323.251c7.811 0 14.142 6.332 14.142 14.142v82.833c0 7.81-6.332 14.142-14.143 14.142z" fill="#f7e365"/></g><g><path d="m369.861 7.501h-227.722c-5.358 0-10.497 2.129-14.286 5.917l-17.46 17.46c-3.789 3.789-5.917 8.928-5.917 14.286v20.926h303.048v-20.926c0-5.358-2.129-10.497-5.917-14.286l-17.46-17.46c-3.789-3.788-8.928-5.917-14.286-5.917z" fill="#b7e546"/></g><g><path d="m401.606 30.878-17.46-17.46c-3.789-3.789-8.928-5.917-14.286-5.917h-43.15c5.358 0 10.497 2.129 14.286 5.917l17.46 17.46c3.789 3.789 5.917 8.928 5.917 14.286v20.926h43.15v-20.926c.001-5.358-2.128-10.497-5.917-14.286z" fill="#abd641"/></g><g><circle cx="256" cy="121.649" fill="#e490d0" r="24.244"/></g><g><circle cx="354.996" cy="121.649" fill="#e490d0" r="24.244"/></g><g><circle cx="157.004" cy="121.649" fill="#e490d0" r="24.244"/></g><g><path d="m164.806 98.695c.832 2.449 1.29 5.071 1.29 7.801 0 13.39-10.854 24.244-24.244 24.244-2.73 0-5.352-.458-7.801-1.29 3.249 9.561 12.295 16.443 22.954 16.443 13.389 0 24.244-10.854 24.244-24.244-.001-10.659-6.883-19.705-16.443-22.954z" fill="#df73c1"/></g><g><path d="m263.801 98.695c.832 2.449 1.29 5.071 1.29 7.801 0 13.39-10.854 24.244-24.244 24.244-2.73 0-5.352-.458-7.801-1.29 3.249 9.561 12.295 16.443 22.954 16.443 13.389 0 24.244-10.854 24.244-24.244 0-10.659-6.882-19.705-16.443-22.954z" fill="#df73c1"/></g><g><path d="m362.797 98.695c.832 2.449 1.29 5.071 1.29 7.801 0 13.39-10.854 24.244-24.244 24.244-2.73 0-5.352-.458-7.801-1.29 3.249 9.561 12.295 16.443 22.954 16.443 13.389 0 24.244-10.854 24.244-24.244-.001-10.659-6.883-19.705-16.443-22.954z" fill="#df73c1"/></g><g><path d="m417.625 66.09h-32.325c7.811 0 14.142 6.332 14.142 14.142v82.833c0 7.81-6.332 14.142-14.142 14.142h32.325c7.811 0 14.142-6.332 14.142-14.142v-82.832c.001-7.811-6.331-14.143-14.142-14.143z" fill="#f3d332"/></g><g><path d="m399.443 209.533h-286.886c-3.347 0-6.061-2.714-6.061-6.061v-26.264h299.007v26.264c0 3.347-2.713 6.061-6.06 6.061z" fill="#ffc250"/></g><g><path d="m373.178 177.208v26.264c0 3.347-2.714 6.061-6.061 6.061h32.325c3.347 0 6.061-2.714 6.061-6.061v-26.264z" fill="#ebb044"/></g><g><path d="m409.787 212.22c2.002-2.364 3.215-5.415 3.215-8.748v-18.762h4.621c11.934 0 21.643-9.709 21.643-21.643v-23.273c0-4.143-3.358-7.501-7.501-7.501s-7.501 3.358-7.501 7.501v23.273c0 3.662-2.979 6.641-6.641 6.641h-323.245c-3.662 0-6.641-2.979-6.641-6.641v-82.832c0-3.662 2.979-6.641 6.641-6.641h323.245c3.662 0 6.641 2.979 6.641 6.641v24.554c0 4.143 3.358 7.501 7.501 7.501s7.501-3.358 7.501-7.501v-24.554c0-11.934-9.709-21.643-21.643-21.643h-2.598v-13.428c0-7.399-2.882-14.356-8.114-19.59l-17.46-17.46c-5.234-5.232-12.191-8.114-19.59-8.114h-227.722c-7.399 0-14.356 2.882-19.59 8.114l-17.46 17.46c-5.232 5.233-8.114 12.19-8.114 19.589v13.429h-2.598c-11.934 0-21.643 9.709-21.643 21.643v82.832c0 11.934 9.709 21.643 21.643 21.643h4.621v18.762c0 3.333 1.214 6.384 3.215 8.748-23.28 32.282-35.543 70.271-35.543 110.451.001 104.396 84.933 189.329 189.33 189.329s189.329-84.933 189.329-189.329c0-40.18-12.262-78.169-35.542-110.451zm-153.787-194.799 46.794 41.171h-93.587zm-66.673 38.681-46.77-41.099h93.482zm86.634-41.1h93.482l-46.77 41.099zm124.062 30.162v13.429h-57.457l40.531-35.617 13.206 13.206c2.398 2.4 3.72 5.589 3.72 8.982zm-288.046 0c0-3.393 1.321-6.582 3.72-8.982l13.206-13.206 40.531 35.617h-57.457zm144.023 451.834c-96.125 0-174.327-78.203-174.327-174.327 0-38.644 12.311-75.089 35.64-105.636h48.746c-11.9 10.15-22.09 22.26-30.01 35.816-12.344 21.127-18.868 45.27-18.868 69.818 0 6.116.402 12.237 1.195 18.192.503 3.771 3.724 6.512 7.426 6.512.33 0 .664-.022 1-.066 4.107-.547 6.992-4.32 6.445-8.426-.706-5.302-1.064-10.756-1.064-16.212 0-42.888 22.686-83.168 59.324-105.635h78.294c4.143 0 7.501-3.358 7.501-7.501s-3.358-7.501-7.501-7.501h-155.801v-17.322h284v17.322h-93.193c-4.143 0-7.501 3.358-7.501 7.501s3.358 7.501 7.501 7.501h15.686c36.638 22.466 59.324 62.747 59.324 105.635 0 68.273-55.544 123.817-123.817 123.817-49.891 0-94.692-29.764-114.136-75.827-1.611-3.816-6.01-5.605-9.828-3.994-3.817 1.611-5.605 6.011-3.994 9.828 21.796 51.633 72.021 84.995 127.957 84.995 76.545 0 138.819-62.274 138.819-138.819 0-24.548-6.524-48.691-18.868-69.818-7.92-13.557-18.11-25.667-30.01-35.816h48.746c23.329 30.547 35.64 66.992 35.64 105.636.001 96.124-78.201 174.327-174.326 174.327z"/><path d="m224.255 121.649c0 17.504 14.241 31.745 31.745 31.745s31.745-14.241 31.745-31.745-14.241-31.745-31.745-31.745-31.745 14.241-31.745 31.745zm48.488 0c0 9.232-7.511 16.743-16.743 16.743s-16.743-7.511-16.743-16.743 7.511-16.743 16.743-16.743 16.743 7.511 16.743 16.743z"/><path d="m323.251 121.649c0 17.504 14.241 31.745 31.745 31.745s31.745-14.241 31.745-31.745-14.241-31.745-31.745-31.745c-17.505 0-31.745 14.241-31.745 31.745zm48.487 0c0 9.232-7.511 16.743-16.743 16.743s-16.743-7.511-16.743-16.743 7.511-16.743 16.743-16.743 16.743 7.511 16.743 16.743z"/><path d="m125.26 121.649c0 17.504 14.241 31.745 31.745 31.745s31.745-14.241 31.745-31.745-14.241-31.745-31.745-31.745c-17.505 0-31.745 14.241-31.745 31.745zm48.487 0c0 9.232-7.511 16.743-16.743 16.743s-16.743-7.511-16.743-16.743 7.511-16.743 16.743-16.743c9.233 0 16.743 7.511 16.743 16.743z"/></g></g></svg>