<svg id="Filled_Expand" height="512" viewBox="0 0 64 64" width="512" xmlns="http://www.w3.org/2000/svg" data-name="Filled Expand"><path d="m41.6 31.8a22 22 0 0 0 -17.6-8.8h-4a16 16 0 0 0 -16 16 16 16 0 0 0 16 16h28a10 10 0 0 0 10-10 10 10 0 0 0 -10-10 8 8 0 0 1 -6.4-3.2z" fill="#b4784b"/><path d="m2 55h60a0 0 0 0 1 0 0 7 7 0 0 1 -7 7h-46a7 7 0 0 1 -7-7 0 0 0 0 1 0 0z" fill="#ebf5ff"/><path d="m44 42.966a11.968 11.968 0 0 0 3.468-9.566 11.461 11.461 0 0 1 3.254-9.171l-4.95-4.95a11.461 11.461 0 0 1 -9.172 3.253 11.968 11.968 0 0 0 -9.566 3.468" fill="#c3875a"/><path d="m27.034 26a12 12 0 0 0 16.966 16.966" fill="#c3875a"/><path d="m60.975 18.218a3.49 3.49 0 0 0 -3.34-5.853 3.491 3.491 0 1 0 -6.17 1.221l-5.693 5.692 4.95 4.95 5.692-5.693a3.491 3.491 0 0 0 4.561-.317z" fill="#ebf5ff"/><path d="m62 53.25h-5.644a11.742 11.742 0 0 0 -7.14-19.937c0-.025 0-.049-.005-.074a9.706 9.706 0 0 1 2.748-7.776l4.789-4.789a5.239 5.239 0 0 0 5.463-8.645 5.177 5.177 0 0 0 -2.789-1.454 5.177 5.177 0 0 0 -1.454-2.789 5.24 5.24 0 0 0 -8.645 5.464l-4.789 4.788a9.7 9.7 0 0 1 -7.775 2.748 13.726 13.726 0 0 0 -6.96 1.191 23.737 23.737 0 0 0 -5.799-.727h-4a17.744 17.744 0 0 0 -10.57 32h-7.43a1.749 1.749 0 0 0 -1.75 1.75 8.76 8.76 0 0 0 8.75 8.75h46a8.76 8.76 0 0 0 8.75-8.75 1.749 1.749 0 0 0 -1.75-1.75zm-9.3-38.43a1.748 1.748 0 0 0 .164-2.285 1.742 1.742 0 0 1 2.636-2.275 1.731 1.731 0 0 1 .445 1.669 1.751 1.751 0 0 0 .455 1.671 1.751 1.751 0 0 0 1.67.459 1.728 1.728 0 0 1 1.669.445 1.752 1.752 0 0 1 0 2.474 1.727 1.727 0 0 1 -2.274.154 1.751 1.751 0 0 0 -2.286.164l-4.457 4.454-2.475-2.474zm-16.256 9.452a13.273 13.273 0 0 0 9.244-2.606l2.643 2.644a13.269 13.269 0 0 0 -2.605 9.244 10.251 10.251 0 1 1 -9.282-9.282zm-30.694 14.728a14.267 14.267 0 0 1 14.25-14.25h4c.575 0 1.152.028 1.727.078a13.749 13.749 0 1 0 23.338 11.993 8.249 8.249 0 0 1 -1.065 16.429h-28a14.267 14.267 0 0 1 -14.25-14.25zm49.25 21.25h-46a5.259 5.259 0 0 1 -4.95-3.5h55.9a5.259 5.259 0 0 1 -4.95 3.5z"/></svg>