<svg id="color_Line_copy" height="512" viewBox="0 0 256 256" width="512" xmlns="http://www.w3.org/2000/svg" data-name="color Line copy"><path d="m111.504 219.556h-31.678l8.639-42.43h23.039z" fill="#2a8bbe"/><path d="m70.191 217.0811h39.1983a8.2976 8.2976 0 0 1 8.2976 8.2976v12.6286a0 0 0 0 1 0 0h-55.7935a0 0 0 0 1 0 0v-12.6285a8.2976 8.2976 0 0 1 8.2976-8.2977z" fill="#0e5f87"/><path d="m147.114 219.556h31.678l-8.639-42.43h-23.039z" fill="#2a8bbe"/><path d="m140.9307 217.0811h55.7936a0 0 0 0 1 0 0v12.6289a8.2976 8.2976 0 0 1 -8.2976 8.2976h-39.1983a8.2976 8.2976 0 0 1 -8.2976-8.2976v-12.6289a0 0 0 0 1 -.0001 0z" fill="#0e5f87" transform="matrix(-1 0 0 -1 337.655 455.088)"/><path d="m56.304 53.614h146.01v10.756h-146.01z" fill="#ffc139"/><path d="m51.718 120.66h155.181v12.593h-155.181z" fill="#ff7c1e"/><rect fill="#ff7c1e" height="24.376" rx="5.532" width="111.84" x="73.389" y="46.804"/><path d="m108.527 69.933h41.565v45.648h-41.565z" fill="#0e5f87"/><rect fill="#2a8bbe" height="75.985" rx="11.064" width="90.034" x="84.292" y="21"/><circle cx="109.286" cy="48.081" fill="#ffc139" r="16.334"/><circle cx="109.286" cy="48.081" fill="#0e5f87" r="6.376"/><circle cx="149.332" cy="48.081" fill="#ffc139" r="16.334"/><g fill="#0e5f87"><circle cx="149.332" cy="48.081" r="6.376"/><circle cx="51.867" cy="58.992" r="9.68"/><circle cx="206.75" cy="58.992" r="9.68"/></g><rect fill="#ff7c1e" height="13.714" rx="5.532" width="54.854" x="101.882" y="73.518"/><rect fill="#ffc139" height="74.219" rx="11.064" width="104.371" x="77.123" y="107.577"/><path d="m55.4172 181.3619v-3.5019a3.7939 3.7939 0 0 1 3.7939-3.7939h4.0858a3.7939 3.7939 0 0 0 3.7939-3.7939v-51.9481a11.3818 11.3818 0 0 0 -11.3818-11.3818 11.3818 11.3818 0 0 0 -11.3818 11.3818v70.6259a11.3818 11.3818 0 0 0 11.3818 11.3816h7.5879a3.7939 3.7939 0 0 0 3.7939-3.7939v-7.5877a3.7939 3.7939 0 0 0 -3.7939-3.7939h-4.0857a3.7939 3.7939 0 0 1 -3.794-3.7942z" fill="#0e5f87"/><path d="m203.2 181.3619v-3.5019a3.7939 3.7939 0 0 0 -3.7939-3.7939h-4.0858a3.7939 3.7939 0 0 1 -3.7939-3.7939v-51.9481a11.3818 11.3818 0 0 1 11.3818-11.3818 11.3818 11.3818 0 0 1 11.3818 11.3818v70.6259a11.3818 11.3818 0 0 1 -11.3818 11.3818 11.3818 11.3818 0 0 1 -11.3814-11.3818 3.7939 3.7939 0 0 1 3.7939-3.7939h4.0858a3.7939 3.7939 0 0 0 3.7935-3.7942z" fill="#0e5f87"/><path d="m202.9082 104.4424a13.8933 13.8933 0 0 0 -13.8735 13.7176h-5.0647a13.57 13.57 0 0 0 -13.5391-13.083h-17.84v-5.5926h10.6719a13.5794 13.5794 0 0 0 13.5635-13.5635v-12.24h2.8711a8.037 8.037 0 0 0 7.9282-6.8105h9.8523a12.18 12.18 0 1 0 -.0007-15.7559h-9.8516a8.037 8.037 0 0 0 -7.9282-6.8105h-2.8711v-12.24a13.5794 13.5794 0 0 0 -13.5636-13.564h-67.9072a13.5794 13.5794 0 0 0 -13.5635 13.5635v12.24h-2.8711a8.0382 8.0382 0 0 0 -7.9292 6.8105h-9.8506a12.18 12.18 0 1 0 -.0011 15.756h9.8516a8.0382 8.0382 0 0 0 7.9292 6.8105h2.8712v12.24a13.5794 13.5794 0 0 0 13.5635 13.5639h10.6709v5.5928h-17.84a13.57 13.57 0 0 0 -13.5389 13.0828h-5.065a13.8781 13.8781 0 0 0 -27.7554.1641v70.6259a13.8978 13.8978 0 0 0 13.8819 13.882h7.5879a6.3008 6.3008 0 0 0 6.2939-6.2939v-7.5881a6.3008 6.3008 0 0 0 -6.2939-6.2939h-4.086a1.2949 1.2949 0 0 1 -1.2939-1.2939v-3.5029a1.2949 1.2949 0 0 1 1.2939-1.2939h4.0859a6.3008 6.3008 0 0 0 6.2939-6.2939v-34.5186h5.0323v34.9795a13.5775 13.5775 0 0 0 9.9336 13.0555l-6.27 30.7932h-8.0952a10.81 10.81 0 0 0 -10.7979 10.7979v12.6279a2.5 2.5 0 0 0 2.5 2.5h55.793a2.5 2.5 0 0 0 2.5-2.5v-12.628a10.8014 10.8014 0 0 0 -6.1826-9.7474v-31.3356h30.61v31.3353a10.8011 10.8011 0 0 0 -6.1836 9.7477v12.6279a2.5 2.5 0 0 0 2.5 2.5h55.7939a2.5 2.5 0 0 0 2.5-2.5v-12.6279a10.81 10.81 0 0 0 -10.7979-10.7979h-8.0959l-6.27-30.7932a13.5776 13.5776 0 0 0 9.9336-13.0554v-34.9795h5.0322v34.5186a6.3008 6.3008 0 0 0 6.2939 6.2939h4.0859a1.2949 1.2949 0 0 1 1.2939 1.2939v3.5029a1.2949 1.2949 0 0 1 -1.2939 1.2939h-4.086a6.3008 6.3008 0 0 0 -6.2939 6.2939 13.8818 13.8818 0 1 0 27.7637 0v-70.626a13.8978 13.8978 0 0 0 -13.8816-13.8816zm3.8418-52.6309a7.18 7.18 0 1 1 -7.18 7.1807 7.1894 7.1894 0 0 1 7.18-7.1807zm-19.0215 4.3027h7.1995a11.7535 11.7535 0 0 0 0 5.7559h-7.2zm-10.9023-6.8105h2.8711a3.035 3.035 0 0 1 3.0313 3.0322v13.3125a3.035 3.035 0 0 1 -3.0312 3.0322h-2.8711zm-124.959 16.8682a7.18 7.18 0 1 1 7.1807-7.18 7.1877 7.1877 0 0 1 -7.1807 7.18zm19.0215-4.3019h-7.1987a11.7535 11.7535 0 0 0 0-5.7559h7.1985zm10.9033 6.8107h-2.8711a3.0358 3.0358 0 0 1 -3.0322-3.0322v-13.3126a3.0358 3.0358 0 0 1 3.0322-3.0322h2.8711zm-17.2012 101.5908a1.2949 1.2949 0 0 1 -1.2939 1.2939h-4.086a6.3008 6.3008 0 0 0 -6.2939 6.2939v3.5029a6.3008 6.3008 0 0 0 6.2939 6.2939h4.0859a1.2949 1.2949 0 0 1 1.2939 1.2939v7.5879a1.2949 1.2949 0 0 1 -1.2939 1.2939h-7.5878a8.8919 8.8919 0 0 1 -8.8818-8.8818v-70.626a8.8818 8.8818 0 1 1 17.7637 0zm10.0322-39.5186h-5.0322v-7.5929h5.0322zm20.7325-36.2685a8.5735 8.5735 0 0 1 -8.5635-8.5635v-53.8574a8.5735 8.5735 0 0 1 8.5635-8.5635h67.9072a8.5735 8.5735 0 0 1 8.5635 8.5635v53.8574a8.5735 8.5735 0 0 1 -8.5635 8.5635zm52.2354 5v5.5928h-36.5645v-5.5928zm-58.0347 84.8115h19.4478v30.2852h-25.6134zm25.63 41.083v10.1279h-50.7926v-10.1279a5.804 5.804 0 0 1 5.7979-5.7979h39.1985a5.8038 5.8038 0 0 1 5.7965 5.7979zm73.24-5.7979a5.804 5.804 0 0 1 5.7979 5.7979v10.1279h-50.7934v-10.1279a5.804 5.804 0 0 1 5.7979-5.7979zm-13.1992-5h-25.6127v-30.2851h19.447zm3.7666-43.8486a8.5735 8.5735 0 0 1 -8.5635 8.5635h-82.2436a8.5735 8.5735 0 0 1 -8.5635-8.5635v-52.0918a8.5735 8.5735 0 0 1 8.5635-8.5635h82.2441a8.5735 8.5735 0 0 1 8.5635 8.5635zm10.0322-39.9795h-5.0322v-7.5929h5.0322zm22.7642 58.1971a8.8818 8.8818 0 1 1 -17.7637 0 1.2949 1.2949 0 0 1 1.2939-1.2939h4.0859a6.3008 6.3008 0 0 0 6.2939-6.2939v-3.5029a6.3008 6.3008 0 0 0 -6.2939-6.2939h-4.0861a1.2949 1.2949 0 0 1 -1.2939-1.2939v-51.9473a8.8818 8.8818 0 1 1 17.7637 0z"/><path d="m128.12 48.0811a18.834 18.834 0 1 0 -18.834 18.834 18.8559 18.8559 0 0 0 18.834-18.834zm-32.668 0a13.834 13.834 0 1 1 13.834 13.834 13.85 13.85 0 0 1 -13.8339-13.834z"/><path d="m118.1621 48.0811a8.876 8.876 0 1 0 -8.876 8.875 8.8856 8.8856 0 0 0 8.876-8.875zm-12.752 0a3.876 3.876 0 1 1 3.876 3.875 3.88 3.88 0 0 1 -3.8761-3.875z"/><path d="m149.332 29.2461a18.8345 18.8345 0 1 0 18.834 18.835 18.8562 18.8562 0 0 0 -18.834-18.835zm0 32.6689a13.8345 13.8345 0 1 1 13.834-13.834 13.85 13.85 0 0 1 -13.834 13.834z"/><path d="m149.332 39.2051a8.8755 8.8755 0 1 0 8.875 8.876 8.8856 8.8856 0 0 0 -8.875-8.876zm0 12.751a3.8755 3.8755 0 1 1 3.875-3.875 3.88 3.88 0 0 1 -3.875 3.875z"/><path d="m151.2041 71.0176h-43.791a8.0408 8.0408 0 0 0 -8.0313 8.0324v2.6494a8.0408 8.0408 0 0 0 8.0312 8.0322h43.791a8.0417 8.0417 0 0 0 8.0322-8.0322v-2.6494a8.0417 8.0417 0 0 0 -8.0321-8.0324zm3.0322 10.6816a3.0358 3.0358 0 0 1 -3.0322 3.0322h-43.791a3.035 3.035 0 0 1 -3.0312-3.0322v-2.6492a3.035 3.035 0 0 1 3.0313-3.0322h43.791a3.0358 3.0358 0 0 1 3.0322 3.0322z"/><path d="m162.9863 122.4453h-69.5586a2.5 2.5 0 0 0 0 5h69.5586a2.5 2.5 0 1 0 0-5z"/><path d="m162.9863 135.6055h-69.5586a2.5 2.5 0 0 0 0 5h69.5586a2.5 2.5 0 0 0 0-5z"/><path d="m162.9863 148.7666h-69.5586a2.5 2.5 0 0 0 0 5h69.5586a2.5 2.5 0 0 0 0-5z"/><path d="m162.9863 161.9277h-69.5586a2.5 2.5 0 0 0 0 5h69.5586a2.5 2.5 0 0 0 0-5z"/></svg>