<svg id="Capa_1" enable-background="new 0 0 512 512" height="512" viewBox="0 0 512 512" width="512" xmlns="http://www.w3.org/2000/svg"><g><g><path d="m499.564 456.066c-.328-3.327-1.477-6.521-3.344-9.295l-6.174-9.175c-3.411-5.069-4.345-11.409-2.54-17.247l6.719-21.732c.988-3.195 1.167-6.587.521-9.868l-11.431-58.085c-3.234-16.432-16.268-29.166-32.771-32.015l-109.871-18.971-26.041-91.793h-117.265l-26.041 91.793-109.871 18.971c-16.503 2.849-29.537 15.583-32.771 32.015l-11.431 58.085c-.646 3.282-.467 6.673.521 9.868l6.719 21.732c1.805 5.837.871 12.178-2.54 17.247l-6.174 9.175c-1.867 2.774-3.016 5.967-3.344 9.295l-4.78 48.433h496.69z" fill="#acacac"/></g><g><path d="m499.564 456.066c-.328-3.327-1.477-6.521-3.344-9.295l-6.174-9.175c-3.411-5.069-4.345-11.409-2.54-17.247l6.719-21.732c.988-3.195 1.167-6.587.521-9.868l-11.431-58.085c-3.234-16.432-16.268-29.166-32.771-32.015l-23.792-4.108c7.484 6.194 12.831 14.877 14.792 24.84l12.173 61.856c.688 3.495.497 7.106-.555 10.509l-7.155 23.142c-1.922 6.216-.927 12.968 2.705 18.366l6.575 9.77c1.988 2.954 3.211 6.355 3.561 9.898l5.091 51.577h40.406z" fill="#9c9c9c"/></g><g><path d="m450.544 298.649-32.266-5.571 2.196 37.104c.547 9.234 6.399 17.312 15.002 20.709l56.185 22.185-8.346-42.411c-3.234-16.433-16.269-29.167-32.771-32.016z" fill="#e490d0"/></g><g><path d="m450.544 298.649-23.792-4.108c7.484 6.194 12.831 14.877 14.792 24.84l7.234 36.762 42.883 16.932-8.346-42.411c-3.234-16.432-16.269-29.166-32.771-32.015z" fill="#df73c1"/></g><g><path d="m61.455 298.649 32.266-5.571-2.196 37.104c-.546 9.234-6.399 17.312-15.002 20.709l-56.185 22.185 8.346-42.411c3.234-16.433 16.268-29.167 32.771-32.016z" fill="#e490d0"/></g><g><path d="m112.713 226.145 22.83 14.269v-105.058l-22.83 14.269c-5.907 3.692-9.496 10.166-9.496 17.132v42.255c.001 6.966 3.589 13.441 9.496 17.133z" fill="#838383"/></g><g><path d="m399.285 226.145-22.83 14.269v-105.058l22.83 14.269c5.907 3.692 9.496 10.166 9.496 17.132v42.255c0 6.966-3.589 13.441-9.496 17.133z" fill="#838383"/></g><g><path d="m341.648 504.499v-50.897l-37.703-37.703h-95.891l-37.703 37.703v50.897z" fill="#e490d0"/></g><g><path d="m303.945 415.899h-27.274l30.534 30.534c4.59 4.59 7.169 10.816 7.169 17.308v40.759h27.274v-50.897z" fill="#df73c1"/></g><g><path d="m202.676 504.499v-37.507l18.767-18.768h69.112l18.767 18.768v37.507z" fill="#b7e546"/></g><g><path d="m290.555 448.224h-28.284l15.808 15.809c1.894 1.894 2.958 4.464 2.958 7.143v33.323h28.285v-37.507z" fill="#abd641"/></g><g><path d="m139.122 320.753 36.359 35.8c18.827 18.538 43.747 28.747 70.17 28.747h20.696c26.422 0 51.343-10.209 70.17-28.746l36.359-35.801c9.253-9.111 16.575-19.963 21.653-31.776l-53.858-9.299-26.041-91.793h-117.263l-26.041 91.793-53.858 9.299c5.079 11.814 12.401 22.666 21.654 31.776z" fill="#9c9c9c"/></g><g><path d="m135.543 127.956v121.531c0 19.758 7.928 38.689 22.006 52.551l36.359 35.8c13.796 13.584 32.381 21.198 51.742 21.198h20.697c19.361 0 37.946-7.614 51.742-21.198l36.359-35.8c14.079-13.862 22.006-32.793 22.006-52.551v-121.531c.002-66.526-53.928-120.456-120.455-120.456-66.526 0-120.456 53.93-120.456 120.456z" fill="#cecece"/></g><g><path d="m255.999 7.5c-4.786 0-9.503.288-14.142.831 59.861 7.002 106.314 57.885 106.314 119.626v121.531c0 19.758-7.928 38.689-22.006 52.551l-36.359 35.8c-12.892 12.694-29.967 20.17-47.949 21.096 1.261.065 2.525.102 3.794.102h20.697c19.361 0 37.946-7.614 51.742-21.198l36.359-35.8c14.079-13.862 22.006-32.793 22.006-52.551v-121.532c.001-66.526-53.929-120.456-120.456-120.456z" fill="#bfbfbf"/></g><g><path d="m376.456 204.23-43.841 20.258c-14.301 6.608-23.458 20.926-23.458 36.68v84.154c3.149-2.245 6.144-4.735 8.934-7.483l36.359-35.8c14.079-13.862 22.006-32.793 22.006-52.551z" fill="#5a5a5a"/></g><g><path d="m354.449 302.038c14.079-13.862 22.006-32.793 22.006-52.551v-45.257l-28.285 13.069v32.189c0 19.758-7.928 38.689-22.006 52.551l-17.008 16.747v26.536c3.149-2.245 6.144-4.735 8.934-7.483z" fill="#444"/></g><g><path d="m135.543 204.23 43.841 20.258c14.301 6.608 23.458 20.926 23.458 36.68v84.154c-3.149-2.245-6.144-4.735-8.934-7.483l-36.359-35.8c-14.079-13.862-22.006-32.793-22.006-52.551z" fill="#5a5a5a"/></g><g><path d="m277.246 107.902v-98.533c-6.897-1.228-13.997-1.869-21.247-1.869-7.25 0-14.349.641-21.246 1.869v98.534c0 2.457 1.483 4.67 3.755 5.605l15.185 6.248c1.477.608 3.135.608 4.613 0l15.185-6.248c2.272-.935 3.755-3.149 3.755-5.606z" fill="#e490d0"/></g><g><path d="m344.13 127.957-88.131 36.264-88.131-36.264v34.345l70.959 29.198v92.747h34.345v-92.747l70.958-29.198z" fill="#b7e546"/></g><g><path d="m225.814 151.801c-6.355 7.139-10.221 16.541-10.221 26.85 0 1.13.058 2.245.149 3.351l23.084 9.499v23.728c5.213 2.452 11.031 3.829 17.173 3.829s11.96-1.377 17.173-3.829v-23.729l23.084-9.499c.091-1.106.149-2.221.149-3.351 0-10.309-3.867-19.711-10.221-26.85l-30.185 12.421z" fill="#e490d0"/></g><g><path d="m295.859 442.921c-1.407-1.407-3.314-2.197-5.304-2.197h-69.112c-1.989 0-3.897.79-5.304 2.197l-18.767 18.769c-1.406 1.406-2.196 3.313-2.196 5.303v37.507c0 4.143 3.358 7.5 7.5 7.5s7.5-3.357 7.5-7.5v-34.4l14.374-14.375h62.898l14.374 14.375v34.4c0 4.143 3.358 7.5 7.5 7.5s7.5-3.357 7.5-7.5v-37.507c0-1.989-.79-3.896-2.196-5.303z"/><path d="m431.185 437.261-28.401-21.301c-3.182-2.386-5.081-6.185-5.081-10.162v-30.821c0-4.143-3.358-7.5-7.5-7.5s-7.5 3.357-7.5 7.5v30.821c0 8.674 4.143 16.958 11.081 22.162l12.282 9.211-14.328 21.33c-3.079 4.584-4.707 9.926-4.707 15.447v30.551c0 4.143 3.358 7.5 7.5 7.5s7.5-3.357 7.5-7.5v-30.551c0-2.532.747-4.981 2.158-7.083l13.893-20.682 4.103 3.077c1.349 1.012 2.928 1.5 4.494 1.5 2.28 0 4.533-1.035 6.006-3 2.485-3.313 1.813-8.014-1.5-10.499z"/><path d="m511.813 503.763-1.29-13.08c-.407-4.122-4.07-7.129-8.2-6.728-4.122.406-7.134 4.078-6.728 8.2l1.29 13.08c.382 3.872 3.644 6.765 7.455 6.765.246 0 .495-.013.745-.037 4.122-.406 7.134-4.078 6.728-8.2z"/><path d="m500.31 464.056c4.124-.387 7.153-4.044 6.766-8.168l-.052-.549c-.437-4.537-2.021-8.948-4.586-12.762l-6.17-9.156c-2.155-3.213-2.736-7.169-1.594-10.857l6.718-21.73c1.353-4.358 1.596-9.041.706-13.531l-11.421-58.095c-3.816-19.342-19.43-34.592-38.852-37.948l-73.33-12.658c3.554-9.239 5.465-19.115 5.465-29.112v-4.922l19.301-12.063c8.153-5.095 13.021-13.877 13.021-23.492v-42.255c0-9.614-4.867-18.396-13.02-23.493l-19.301-12.063v-3.241c0-23.594-6.471-46.639-18.712-66.644-2.162-3.533-6.778-4.644-10.312-2.482-3.533 2.162-4.645 6.779-2.483 10.312 10.799 17.647 16.507 37.985 16.507 58.814v71.471l-39.491 18.248c-16.895 7.807-27.812 24.878-27.812 43.489v80.175c-10.483 6.629-22.632 10.197-35.307 10.197h-20.7c-12.675 0-24.824-3.568-35.307-10.197v-80.175c0-18.611-10.917-35.683-27.812-43.489l-39.491-18.248v-5.211c0-4.143-3.358-7.5-7.5-7.5s-7.5 3.357-7.5 7.5v32.659l-11.352-7.095c-3.738-2.336-5.97-6.362-5.97-10.771v-42.255c0-4.409 2.232-8.437 5.971-10.772l11.351-7.094v10.329c0 4.143 3.358 7.5 7.5 7.5s7.5-3.357 7.5-7.5v-31.26c0-30.175 11.749-58.542 33.083-79.876 14.381-14.381 31.96-24.399 51.131-29.406v89.224c0 5.517 3.296 10.439 8.401 12.541l15.183 6.247c1.665.686 3.414 1.028 5.163 1.028s3.497-.342 5.159-1.027l15.187-6.248c5.102-2.102 8.399-7.023 8.399-12.541v-89.194c17.235 4.527 33.266 13.102 46.739 25.216 3.08 2.768 7.822 2.519 10.592-.562 2.77-3.08 2.518-7.822-.562-10.592-23.506-21.133-53.875-32.772-85.517-32.772-34.181 0-66.315 13.31-90.483 37.476-24.167 24.168-37.476 56.302-37.476 90.483v3.241l-19.301 12.064c-8.153 5.096-13.02 13.878-13.02 23.492v42.255c0 9.615 4.868 18.397 13.02 23.492l19.301 12.063v4.922c0 9.995 1.91 19.87 5.463 29.107l-73.326 12.661c-19.431 3.355-35.045 18.608-38.852 37.955l-11.426 58.084c-.886 4.502-.641 9.185.708 13.533l6.719 21.743c1.14 3.682.558 7.634-1.594 10.837l-6.172 9.174c-2.558 3.801-4.144 8.211-4.585 12.741l-4.788 48.437c-.407 4.122 2.604 7.794 6.726 8.202.251.025.5.038.747.038 3.81 0 7.072-2.892 7.455-6.764l4.789-48.447c.202-2.073.929-4.09 2.102-5.833l3.923-5.831 5.371 14.055c1.142 2.988 3.988 4.824 7.007 4.824.89 0 1.795-.159 2.676-.496 3.869-1.479 5.807-5.814 4.329-9.684l-13.73-35.926-6.645-21.505c-.616-1.987-.727-4.131-.319-6.201l2.291-11.647 52.371-20.678c11.272-4.451 19.018-15.145 19.734-27.242l1.845-31.168 39.631-6.843c3.334 5.34 7.275 10.317 11.799 14.771l14.622 14.396-21.273 18.79c-3.03 2.676-3.394 7.271-.823 10.392l53.12 64.451-32.885 32.885c-1.407 1.407-2.197 3.314-2.197 5.304v50.897c0 4.143 3.358 7.5 7.5 7.5s7.5-3.357 7.5-7.5v-47.791l33.307-33.309h89.679l33.309 33.309v47.791c0 4.143 3.358 7.5 7.5 7.5s7.5-3.357 7.5-7.5v-50.897c0-1.989-.79-3.896-2.197-5.304l-32.885-32.885 53.12-64.451c2.571-3.12 2.207-7.716-.823-10.392l-21.274-18.79 14.622-14.396c4.524-4.453 8.463-9.428 11.797-14.767l39.634 6.841 1.844 31.166c.716 12.098 8.462 22.791 19.734 27.242l52.368 20.677 2.293 11.663c.408 2.061.299 4.197-.319 6.187l-6.652 21.518-13.724 35.912c-1.479 3.869.459 8.205 4.329 9.684.881.337 1.786.496 2.676.496 3.019 0 5.865-1.837 7.007-4.824l5.37-14.052 3.926 5.826c1.173 1.745 1.899 3.759 2.096 5.806l.05.53c.365 3.886 3.632 6.8 7.458 6.8.237 0 .474-.012.712-.034zm-230.565-448.215v91.097l-13.746 5.656-13.746-5.656.062-91.12c4.507-.541 9.074-.818 13.684-.818 4.621 0 9.21.287 13.746.841zm-185.706 313.897c-.373 6.296-4.404 11.861-10.27 14.178l-43.422 17.144 5.695-28.952c2.615-13.288 13.34-23.765 26.687-26.069l22.947-3.962zm311.271-173.754c3.739 2.337 5.971 6.364 5.971 10.773v42.255c0 4.409-2.232 8.436-5.971 10.771l-11.351 7.094v-77.987zm-252.27 93.506v-33.535l33.199 15.34c11.605 5.362 19.104 17.088 19.104 29.872v67.557l-32.531-32.03c-12.566-12.368-19.772-29.574-19.772-47.204zm207.961 97.525-50.594 61.385h-88.816l-50.594-61.385 16.626-14.685 11.025 10.855c15.304 15.061 35.547 23.354 57 23.354h20.7c21.453 0 41.696-8.294 57.001-23.355l11.024-10.854zm-1.814-50.32-32.531 32.03v-67.557c0-12.784 7.499-24.51 19.104-29.872l33.199-15.34v33.535c0 17.629-7.206 34.835-19.772 47.204zm89.043 47.22c-5.866-2.316-9.897-7.882-10.27-14.178l-1.637-27.658 22.948 3.961c13.342 2.306 24.067 12.782 26.688 26.066l5.692 28.954z"/><path d="m121.796 367.477c-4.142 0-7.5 3.357-7.5 7.5v30.821c0 3.978-1.899 7.776-5.081 10.162l-28.401 21.301c-3.313 2.485-3.985 7.186-1.5 10.5 1.474 1.965 3.726 3 6.006 3 1.565 0 3.145-.488 4.494-1.5l4.103-3.077 13.893 20.681c1.412 2.103 2.159 4.552 2.159 7.084v30.551c0 4.143 3.358 7.5 7.5 7.5s7.5-3.357 7.5-7.5v-30.551c0-5.521-1.627-10.863-4.707-15.448l-14.328-21.329 12.282-9.211c6.938-5.204 11.081-13.488 11.081-22.162v-30.821c-.001-4.144-3.358-7.501-7.501-7.501z"/><path d="m341.277 121.021-85.277 35.09-85.277-35.09c-2.313-.951-4.949-.687-7.028.704-2.079 1.393-3.326 3.729-3.326 6.231v34.346c0 3.04 1.835 5.779 4.646 6.936l47.96 19.735c.004.002.008.004.013.005l18.34 7.547v87.722c0 4.143 3.358 7.5 7.5 7.5h34.346c4.142 0 7.5-3.357 7.5-7.5v-87.722l18.341-7.547c.003-.001.006-.003.01-.004l47.962-19.736c2.811-1.156 4.646-3.896 4.646-6.936v-34.346c0-2.502-1.248-4.839-3.326-6.231-2.082-1.391-4.717-1.657-7.03-.704zm-165.909 18.132 38.895 16.004c-2.767 4.908-4.643 10.269-5.544 15.844l-33.35-13.723v-18.125zm70.959 137.594v-51.181c3.158.649 6.387.991 9.673.991s6.514-.342 9.673-.991v51.181zm23.991-92.182c-2.811 1.156-4.646 3.895-4.646 6.936v18.599c-3.115.961-6.351 1.458-9.673 1.458s-6.557-.497-9.673-1.458v-18.599c0-3.04-1.835-5.779-4.646-6.936l-18.539-7.629c.297-5.716 2.081-11.222 5.146-16.008l24.858 10.229c1.828.752 3.88.752 5.708 0l24.858-10.229c3.065 4.786 4.849 10.292 5.146 16.008zm66.313-27.287-33.35 13.723c-.901-5.575-2.778-10.936-5.544-15.844l38.895-16.004v18.125z"/></g></g></svg>