<svg clip-rule="evenodd" fill-rule="evenodd" height="1.707in" image-rendering="optimizeQuality" shape-rendering="geometricPrecision" text-rendering="geometricPrecision" viewBox="0 0 1.70666 1.70666" width="1.707in" xmlns="http://www.w3.org/2000/svg"><g id="Layer_x0020_1"><path d="m.686382 1.1412c-.0331024-.00884646-.0575512-.0390984-.0575512-.0749488 0-.0427677.0347913-.0775551.0775512-.0775551.0427638 0 .0775433.0347953.0775433.0775551 0 .0358465-.0244449.0660945-.0575433.0749449v.146055c0 .0110236-.00895669.02-.02.02-.0110394 0-.02-.00897244-.02-.02v-.146051zm.292331.335264h-.0274567v.210177c0 .0110433-.00895669.0200039-.02.0200039h-.208969-.208969c-.0110394 0-.02-.0089685-.02-.02v-.210181h-.0274567c-.0444567 0-.0804449-.0354173-.0837047-.0823701l-.034-.488772c-.00147244-.0211929.006-.0417598.0210394-.0578701.0161654-.0173346.039-.0272677.0626654-.0272677h.0088189v-.104969h-.0157795c-.0110394 0-.02-.00896063-.02-.02v-.0814567-.217862c0-.0520236.0423189-.0943425.0943425-.0943425.0202244 0 .0389803.00639764.0543543.0172717v-.00439764c0-.0520236.0423189-.0943425.0943425-.0943425.0202205 0 .0389724.00639764.0543465.0172638v-.0221417c0-.0520236.0423189-.0943346.0943465-.0943346.0202165 0 .0389685.00639764.0543425.0172677v-.0437756c0-.0520276.0423346-.0943465.0943622-.0943465.0520157 0 .0943465.0423189.0943465.0943465v.60085c-.00001575.0110394-.00897244.02-.0200157.02h-.0157638v.104969h.00882283c.0236535 0 .0464961.00993307.0626654.0272677.0150394.016126.0225.0366811.0210394.0578701l-.0174055.250228.101421.00000787c.00005512-.00005906.00011024-.0001378.00016535-.0002126.00412598-.00530709.0065-.0136378.0065-.0228583v-.062374h-.00957087c-.0110394 0-.02-.0089685-.02-.02v-.219598-.0734921c0-.0554606.045126-.100567.100583-.100567.0554409 0 .100567.045122.100567.100567v.0734921.219598c0 .0110394-.00895669.02-.02.02h-.00957087v.0623898c0 .0407047-.0129606.0797598-.0364724.109996-.0276378.0355118-.0658976.0550827-.107728.0550827h-.115776l-.0067126.0965118c-.00326378.0469606-.0392638.0823701-.0837205.0823701zm-.420878-.65628h.0315236v-.104969h-.0157638-.0157598zm.148673 0h.0315591v-.104969h-.0157795-.0157795v.104969zm.148697 0h.0315512v-.104969h-.0157795-.0157717zm.221039.375382-.00431496.0620157h.113c.0292244 0 .0562795-.0140827.0761535-.0396378.0180827-.0232323.0280394-.0535827.0280394-.0854331v-.0623976h-.062v.062374c0 .0182087-.00531496.0350354-.0149409.0474409-.0100866.0129291-.0203898.0156378-.027252.0156378h-.108685zm-.644382-.335382c-.0124331 0-.0249213.00544488-.0334173.0145591-.00738976.00791339-.0110709.0177874-.0103898.0278189l.034.488772c.00177953.0257362.0206102.045122.0438071.045122h.51285c.0231969 0 .0420157-.0193898.0438071-.045122l.00794094-.114185.00004331-.00096063.00711024-.102012.00005118-.00061024.0188504-.271004c.00069291-.0100236-.003-.0198976-.0103858-.0278307-.00848819-.00909843-.0209882-.0145394-.0334016-.0145394l-.580866-.00000787zm.0488031-.04h.0371535v-.104969h-.0371535zm.0729331-.424287c0-.0299724-.024374-.0543425-.0543465-.0543425-.0299724 0-.0543465.0243701-.0543465.0543425l-.00000394.197862h.108697v-.0738622-.0814685-.0425315zm.0757717.424287h.0371535v-.104969h-.0371535zm.112917-.41487v.0331142.0814685.155319h.0157795.0771378.0157717v-.269902h-.108689zm-.148693.269902h.0157638.0771496.0157795v-.135319h-.108693v.0738622.0614567zm.108693-.360787c0-.0299724-.024374-.0543425-.0543465-.0543425-.0299724 0-.0543465.0243701-.0543465.0543425v.104h.108693zm.0757795.505756h.0371378v-.104969h-.0371378zm.0729094-.604976c0-.0299567-.0243701-.0543465-.0543346-.0543465-.0299724 0-.0543622.024374-.0543622.0543465v.0686378h.108697v-.0313622-.0372756zm.0757913.604976h.0371378v-.104969h-.0371378zm-.0357913-.144969h.0157795.0771496.015752v-.402732h-.108681v.0313622.0814685.289902zm.108681-.524185v-.0566654c0-.0299724-.024374-.0543622-.0543346-.0543622-.0299724 0-.0543465.0243898-.0543465.0543622v.0566614l.108681.00000394zm-.108681.0814528h.108681v-.0414606l-.108681.00000787v.0241772.0172756zm-.148673.132831h.108673v-.0414685h-.108673zm-.148709.134583h.108693v-.0414685h-.108693zm-.148693.175319h.0157795.0771535.0157638v-.0414567h-.108697v.0414567zm.752654.354898h.00955906.102008.00957087v-.179598h-.121122v.179598h-.00001575zm.121138-.219598v-.0534921c0-.0334016-.0271654-.0605669-.0605551-.0605669-.0334016 0-.0605669.0271811-.0605669.0605669v.0534921zm-.785374.85613h.168969v-.0357323c-.0247559-.00836614-.042626-.031815-.042626-.0593622 0-.0345394.0281024-.0626378.062626-.0626378s.062622.0280984.062622.0626378c0 .0275472-.017874.0509961-.042622.0593622v.0357323h.168953v-.190165h-.377921v.190165zm.188969-.11772c-.0124724 0-.022626.0101378-.022626.022626s.0101535.022626.022626.022626c.0124724 0 .022622-.0101378.022622-.022626s-.0101496-.022626-.022622-.022626zm.108909-.173984h-.217811c-.0110394 0-.02-.00897244-.02-.02 0-.0110276.00896063-.02.02-.02h.217811c.0110394 0 .02.00897244.02.02 0 .0110276-.00895276.02-.02.02zm-.223602-.067689c-.0110394 0-.02-.00897244-.02-.02v-.0602795l-.0817598-.0471969c-.00619685-.00356693-.01-.0101654-.01-.017315v-.0882559c-.0331063-.00884252-.0575551-.0390866-.0575551-.0749331 0-.0427598.0347953-.0775551.0775551-.0775551s.0775512.0347953.0775512.0775551c0 .0358465-.0244528.0660906-.0575512.0749331v.0767126l.0817598.0471969c.00619685.00356693.01.0101654.01.017315v.0718228c0 .0110236-.00894488.02-.02.02zm.198996 0c-.0110394 0-.02-.00897244-.02-.02v-.0956102c0-.00715748.00380709-.013748.01-.0173189l.11215-.064748v-.0353701c-.0330984-.00884252-.0575512-.0390866-.0575512-.0749331 0-.0427598.0347913-.0775551.0775512-.0775551.0427598 0 .0775669.0347953.0775669.0775551 0 .0358465-.0244567.0660906-.0575669.0749331v.0469134c0 .00715354-.00380709.013748-.0100157.017315l-.11215.064752v.0840669c.00001575.0110236-.00894094.02-.0199843.02zm-.290756-.345524c-.0207087 0-.0375551.0168346-.0375551.0375433s.0168465.0375433.0375551.0375433c.0207087 0 .0375512-.0168346.0375512-.0375433s-.0168425-.0375433-.0375512-.0375433zm.412906 0c-.0207087 0-.0375433.0168346-.0375433.0375433s.0168346.0375433.0375433.0375433.0375551-.0168346.0375551-.0375433-.0168465-.0375433-.0375551-.0375433zm-.222358.0669803c-.0207087 0-.0375551.0168346-.0375551.0375433s.0168465.0375512.0375551.0375512c.0207087 0 .0375512-.0168425.0375512-.0375512s-.0168425-.0375433-.0375512-.0375433z" fill="#000002"/><path d="m.444902.59376h.108697v-.0738622-.0814685-.0425315c0-.0299724-.024374-.0543425-.0543465-.0543425-.0299724 0-.0543465.0243701-.0543465.0543425l-.00000394.197862z" fill="#bddff4"/><path d="m.553598.63376h-.108696v.041457h.015779.077154.015763z" fill="#e0f0fb"/><path d="m.593594.61376v.061457h.015764.07715.015779v-.135319h-.108693z" fill="#bddff4"/><path d="m.593594.499898h.108693v-.041469h-.108693z" fill="#e0f0fb"/><path d="m.593594.418429h.108693v-.104c0-.0299724-.024374-.0543425-.0543465-.0543425-.0299724 0-.0543465.0243701-.0543465.0543425z" fill="#bddff4"/><path d="m.74228.283846h.108697v-.0313622-.0372756c0-.0299567-.0243701-.0543465-.0543346-.0543465-.0299724 0-.0543622.024374-.0543622.0543465v.0686378z" fill="#bddff4"/><path d="m.850976.323846h-.108673v.041469h.108673z" fill="#e0f0fb"/><path d="m.850976.405315h-.108689v.033114.081469.155319h.01578.077138.015771z" fill="#bddff4"/><path d="m.890976.385315v.289902h.01578.07715.015751v-.402733h-.108681v.031362z" fill="#bddff4"/><path d="m.890976.232484h.108681v-.04146l-.108681.000007v.024178z" fill="#e0f0fb"/><path d="m.890976.151028.108681.00000394v-.0566654c0-.0299724-.024374-.0543622-.0543346-.0543622-.0299724 0-.0543465.0243898-.0543465.0543622v.0566614z" fill="#bddff4"/><path d="m.517819.820185v-.104968h-.037154v.104968z" fill="#fd6069"/><path d="m.62937.715217v.104968h.037154v-.104968z" fill="#43a3f9"/><path d="m.778067.715217v.104968h.037138v-.104968z" fill="#fd6069"/><path d="m.926768.715217v.104968h.037138v-.104968z" fill="#43a3f9"/><path d="m1.01273.860193-.580866-.00000787c-.0124331 0-.0249213.00544488-.0334173.0145591-.00738976.00791339-.0110709.0177874-.0103898.0278189l.034.488772c.00177953.0257362.0206102.045122.0438071.045122h.51285c.0231969 0 .0420157-.0193898.0438071-.045122l.00794094-.114185.00004331-.00096063.00711024-.102012.00005118-.00061024.0188504-.271004c.00069291-.0100236-.003-.0198976-.0103858-.0278307-.00848819-.00909843-.0209882-.0145394-.0334016-.0145394zm-.306346.128504c.0427638 0 .0775433.0347953.0775433.0775551 0 .0358465-.0244449.0660945-.0575433.0749449v.146055c0 .0110236-.00895669.02-.02.02-.0110394 0-.02-.00897244-.02-.02v-.146051c-.0331024-.00884646-.0575512-.0390984-.0575512-.0749488 0-.0427677.0347913-.0775551.0775512-.0775551zm-.0929961.346244h.217811c.0110394 0 .02.00897244.02.02 0 .0110276-.00895276.02-.02.02h-.217811c-.0110394 0-.02-.00897244-.02-.02 0-.0110276.00896063-.02.02-.02zm.0142087-.119512v.0718228c0 .0110236-.00894488.02-.02.02-.0110394 0-.02-.00897244-.02-.02v-.0602795l-.0817598-.0471969c-.00619685-.00356693-.01-.0101654-.01-.017315v-.0882559c-.0331063-.00884252-.0575551-.0390866-.0575551-.0749331 0-.0427598.0347953-.0775551.0775551-.0775551s.0775512.0347953.0775512.0775551c0 .0358465-.0244528.0660906-.0575512.0749331v.0767126l.0817598.0471969c.00619685.00356693.01.0101654.01.017315zm.168996-.0411063.11215-.064748v-.0353701c-.0330984-.00884252-.0575512-.0390866-.0575512-.0749331 0-.0427598.0347913-.0775551.0775512-.0775551.0427598 0 .0775669.0347953.0775669.0775551 0 .0358465-.0244567.0660906-.0575669.0749331v.0469134c0 .00715354-.00380709.013748-.0100157.017315l-.11215.064752v.0840669c.00001575.0110236-.00894094.02-.0199843.02-.0110394 0-.02-.00897244-.02-.02v-.0956102c0-.00715748.00380709-.013748.01-.0173189z" fill="#bddff4"/><g fill="#2f5e75"><path d="m.743933 1.06625c0-.0207087-.0168425-.0375433-.0375512-.0375433s-.0375551.0168346-.0375551.0375433.0168465.0375512.0375551.0375512c.0207087 0 .0375512-.0168425.0375512-.0375512z"/><path d="m.553386.999272c0-.0207087-.0168425-.0375433-.0375512-.0375433s-.0375551.0168346-.0375551.0375433.0168465.0375433.0375551.0375433c.0207087 0 .0375512-.0168346.0375512-.0375433z"/><path d="m.891197.999272c0 .0207087.0168346.0375433.0375433.0375433s.0375551-.0168346.0375551-.0375433-.0168465-.0375433-.0375551-.0375433c-.0207087 0-.0375433.0168346-.0375433.0375433z"/></g><path d="m1.19757575.850512-.00001575.179598h.00955906.102008.00957087v-.179598h-.121122z" fill="#bddff4"/><path d="m1.19757.810516h.121122v-.0534921c0-.0334016-.0271654-.0605669-.0605551-.0605669-.0334016 0-.0605669.0271811-.0605669.0605669z" fill="#e0f0fb"/><path d="m1.28912 1.07011h-.062v.062374c0 .0182087-.00531496.0350354-.0149409.0474409-.0100866.0129291-.0203898.0156378-.027252.0156378h-.108685l-.00431496.0620157h.113c.0292244 0 .0562795-.0140827.0761535-.0396378.0180827-.0232323.0280394-.0535827.0280394-.0854331v-.0623976z" fill="#2f5e75"/><path d="m.91124 1.47648h-.377921v.190165h.168969v-.0357323c-.0247559-.00836614-.042626-.031815-.042626-.0593622 0-.0345394.0281024-.0626378.062626-.0626378s.062622.0280984.062622.0626378c0 .0275472-.017874.0509961-.042622.0593622v.0357323h.168953v-.190165z" fill="#2f5e75"/><path d="m.722287 1.54893c-.0124724 0-.022626.0101378-.022626.022626s.0101535.022626.022626.022626c.0124724 0 .022622-.0101378.022622-.022626s-.0101496-.022626-.022622-.022626z" fill="#577d8f"/></g></svg>