<svg id="Capa_1" enable-background="new 0 0 512.002 512.002" height="512" viewBox="0 0 512.002 512.002" width="512" xmlns="http://www.w3.org/2000/svg"><g><g><path d="m391.969 343.519-6.322-16.994-10.5-59.5-60.5-88.916-52.257-41.192-1.386-3.883-11.982-5.51-2.267-4.808c-14.636-3.537-29.916-5.425-45.639-5.425-4.487 0-8.935.166-13.346.466l-8.373 8.767-16.407 3.128-28.146 18.833-39.488 56.789-26.542 53.417v78.333l11.333 58 33.25 53.25 24.793 27.593 8.457 4.657 103 5.5 64-28.212h13.548c33.515-28.787 57.06-68.843 64.774-114.293z" fill="#8dcafc"/><path d="m70.968 311.596c0-76.22 38.689-143.402 97.498-182.986l-43.569 8.308h-8.792c-24.482 11.985-46.059 28.985-63.398 49.662l-.56 25.945-25.5 45.5 8 101.676 41 81.722 71 39.102 3.378.18c-48.318-40.433-79.057-101.178-79.057-169.109z" fill="#31a7fb"/><g fill="#23f1a8"><path d="m131.518 312.672c11.087-15.521 52.477 5.173 56.172-12.565s-.739-15.521-21.434-29.564c-15.073-10.228-6.623-22.025-5.488-36.818l-4.357-1.866-6.097-16.5 2.561-6.811c-10.152-12.82-23.522-7.321-54.696-7.332l-2.823 4.06-26.542 53.417v78.333l8.242 42.181c3.188-6.635 9.323-13.169 18.986-18.493 36.215-19.956 24.39-32.521 35.476-48.042z"/><path d="m287.468 413.929c-24.311 8.328-17.739 5.174-63.563-10.348-45.824-15.521-39.911 28.825-65.78 29.564-25.869.74-19.956-24.39-52.476-19.956-5.551.757-10.542.306-14.822-1.058l22.569 36.145 31 34.5 24.069 16.25 7.544 3.857c8.219 1.064 16.597 1.618 25.105 1.618 48.158 0 92.205-17.59 126.079-46.687-7.427-30.067-15.538-52.171-39.725-43.885z"/></g><path d="m95.768 413.243c-19.349-2.677-27.934-22.103-15.748-38.986-5.88-19.864-9.052-40.891-9.052-62.661 0-40.224 10.781-77.927 29.601-110.389-3.492.03-7.201-.001-11.18-.139-16.271-.561-28.173-6.873-36.683-14.488-28.203 33.634-45.194 76.988-45.194 124.316 0 100.883 77.164 183.729 175.688 192.771-37.19-20.993-67.67-52.47-87.432-90.424z" fill="#26d192"/><path d="m291.481 139.646h-5.001l-23 12.546-1.09 3.761c1.926 2.576 4.446 5.111 7.709 7.543 26.44 19.7 36.809 24.885 29.032 45.622-7.776 20.737-21.774 67.396 15.553 76.728s49.77 14.516 53.917 29.032c2.919 10.216 7.636 24.568 23.367 28.641 1.8-10.607 2.751-21.503 2.751-32.624.001-74.283-41.841-138.787-103.238-171.249z" fill="#23f1a8"/><path d="m186.12 117.891-13.223 5.135-38.044 25.455c6.871 3.687 14.437 9.143 19.285 16.82 10.545 16.696 21.517 12.818 29.155 11.364l1.822-.264 7.156-7.344.228-1.162c4.073-7.673 6.186-18.692 1.719-25.802-4.372-6.958-6.246-15.99-6.449-24.334-.551.037-1.098.09-1.649.132z" fill="#23f1a8"/><path d="m124.093 143.704c4.044 1.454 9.975 3.97 15.816 7.779 13.831-13.09 29.353-24.411 46.211-33.592-24.962 1.913-48.6 8.543-70.015 19.027 1.698 3.121 4.557 5.552 7.988 6.786z" fill="#26d192"/><path d="m303.48 106.359-89 56.333-67.333 62-32.677 42.583v3.375c2.887 2.1 7.072 2.399 10.25-.987 51.297-54.651 134.493-127.48 235.62-158.294l1.307-5.177-10.063-24.151z" fill="#ffd086"/><path d="m115.858 268.05c94.161-121.329 220.886-174.677 237.662-181.363l-8.23-19.752-3.561-2.115s-135.446 59.498-229.127 195.041c-2.856 4.133-1.254 8.515 1.869 10.788.279-.872.726-1.747 1.387-2.599z" fill="#ffb640"/><path d="m421.802 120.551-1.916-24.993-5.406-.663-22.47 8.295 4.47 11.253-1.083 7.75-10.917 13.167-3.333 12.042 1.707 12.125 4.467 3.131 26.82-23.39c5.365-4.68 8.205-11.619 7.661-18.717z" fill="#5169cd"/><path d="m386.03 158.589c-3.639-9.102-2.14-19.454 3.932-27.149l5.583-7.075c2.671-3.386 3.331-7.94 1.73-11.944l-3.008-7.523 1.317-3.028-15.77 5.822-2.047 4.706 3.008 7.523c1.601 4.004.941 8.558-1.73 11.944l-5.583 7.075c-6.072 7.695-7.571 18.048-3.932 27.149 1.75 4.378 7.3 5.716 10.854 2.617l8.084-7.05c-1.048-.728-1.915-1.758-2.438-3.067z" fill="#3351c5"/><path d="m327.195 11.776 3.601 10.375 12.476 10 20.25 3.625 3.25 3.875 3.47 8.736 25.52-9.528v-3.639l-15.844-19.424c-4.5-5.517-11.341-8.584-18.453-8.275l-32.892 1.433z" fill="#5169cd"/><path d="m372.033 47.561-3.008-7.523c-1.601-4.004-5.219-6.848-9.488-7.459l-8.922-1.276c-9.703-1.388-17.927-7.853-21.566-16.954-.744-1.861-.606-3.795.154-5.423l-12.488.544c-4.71.205-7.808 5.001-6.057 9.379 3.639 9.102 11.863 15.567 21.566 16.954l8.922 1.276c4.269.611 7.887 3.455 9.488 7.459l3.008 7.523 2.836 1.464 15.731-5.873z" fill="#3351c5"/><path d="m447.022 41.526-97.015 38.903-1.028 2.527 11.361 28.414c1.522 3.808 5.843 5.66 9.651 4.138l90.288-36.1 1.202-5.882-12.681-32.214z" fill="#f9f6f6"/><path d="m351.275 82.141 91.826-36.715c2.151-.86 4.315-1.57 6.475-2.142l-8.762-22.259-4.66-1.955-90.287 36.1c-3.808 1.522-5.66 5.843-4.138 9.651l7.438 18.603c.613-.526 1.316-.966 2.108-1.283z" fill="#e2d8ec"/><path d="m488.413 50.276v-4.875l-21.641-6.25-19.75 2.375-1.628.653 14.885 37.229c14.731-5.891 25.076-17.24 28.134-29.132z" fill="#fb5fa7"/><path d="m488.413 50.276c1.45-5.639 1.269-11.399-.874-16.759-6.662-16.662-29.667-23.13-51.385-14.446l10.083 25.219c16.109-5.368 32.456-2.731 42.176 5.986z" fill="#fb4297"/></g><g><path d="m501.716 19.767-10.816 4.324c-11.077-15.906-35.235-20.903-57.541-11.984l-35.279 14.105-12.361-15.156c-5.966-7.314-15.177-11.428-24.592-11.027l-44.748 1.949c-9.858.43-16.359 10.489-12.695 19.657 4.622 11.558 15.147 19.831 27.469 21.594 9.907 1.416 11.223.883 12.73 4.653-6.169 2.467-9.397 6.877-10.083 12.353-7.285 3.498-22.241 11.064-42.035 23.094-3.539 2.151-4.665 6.765-2.514 10.305 2.152 3.54 6.768 4.664 10.305 2.514 17.022-10.346 30.499-17.352 38.16-21.127l12.649 31.636c-131.379 43.126-226.246 154.107-231.31 158.046-.149-.061-.343-.219-.43-.352.465-1.007 51.592-80.504 151.883-149.409 3.414-2.346 4.28-7.015 1.935-10.429s-7.014-4.28-10.429-1.935c-5.383 3.698-11.058 7.722-16.964 12.069-73.552-16.404-148.99 9.387-197.294 66.3-.287.251-.562.518-.81.814-29.505 35.189-46.946 80.799-46.946 129.135 0 110.903 90.229 201.104 201.104 201.104 110.889 0 201.104-90.235 201.104-201.104 0-69.971-36.005-134.165-94.861-170.771 16.179-7.719 32.968-14.513 50.3-20.059 4.012 3.345 9.747 4.552 15.117 2.405l.812-.325c.738 1.845.821 3.488-.431 5.074l-5.582 7.074c-7.71 9.771-9.63 23.021-5.009 34.579 1.723 4.31 5.444 7.531 9.956 8.619 4.498 1.085 9.284-.074 12.791-3.134l33.757-29.439c7.114-6.204 10.932-15.528 10.211-24.941l-1.495-19.502 35.277-14.105c22.554-9.017 36.179-29.557 33.395-48.344l10.837-4.333c3.846-1.537 5.718-5.902 4.18-9.748s-5.903-5.716-9.747-4.179zm-272.781 107.103c-8.576 6.716-16.908 13.603-25.018 20.64-.474-3.298-1.532-6.5-3.359-9.406-2.217-3.529-3.781-8.097-4.617-13.237 11.06-.303 22.029.357 32.994 2.003zm-48.022-.979c1.09 7.68 3.473 14.669 6.943 20.192 2.254 3.588 1.613 10.805-1.435 17.185-2.293 2.147-4.557 4.314-6.808 6.488-6.838 1.419-12.297 2.383-19.146-8.46-7.5-11.876-20.194-19.018-29.277-22.861 15.939-6.485 32.581-10.688 49.723-12.544zm-66.723 20.486c2.123 1.893 4.606 3.396 7.354 4.383 5.652 2.033 19.522 7.908 26.241 18.545 5.58 8.834 11.607 13.112 17.276 14.996-4.31 4.457-8.54 8.962-12.678 13.521-8.813-6.124-19.587-5.546-33.428-4.794-27.034 1.474-41.075 1.876-55.305-7.465 14.411-15.789 31.502-29.087 50.54-39.186zm217.058 297.411c-4.609-16.097-10.57-29.888-21.754-35.987-6.987-3.812-15.221-4.137-24.467-.967-15.322 5.248-15.829 5.268-27.166 1.115-3.892-1.431-8.198.572-9.622 4.462-1.425 3.89.573 8.197 4.462 9.622 15.318 5.612 19.662 4.994 37.188-1.01 5.177-1.772 9.24-1.791 12.424-.054 7.77 4.237 12.604 19.177 16.428 34.025-34.298 28.051-76.039 42.006-117.637 42.006-102.618 0-186.104-83.486-186.104-186.104 0-39.961 12.864-80.126 38.935-113.774 18.402 12.873 36.275 12.487 65.835 10.885 11.883-.649 18.142-.836 22.5 1.264-12.66 14.713-24.896 30.478-35.851 46.326-4.748 6.869-3.298 15.562 2.98 20.631 5.991 4.837 14.707 5.02 21.116-1.792 5.91-6.288 12.582-13.149 19.381-19.867-.209 7.526 2.12 15.382 12.136 22.179 4.239 2.877 7.84 5.106 10.732 6.897 4.094 2.534 7.629 4.723 8.332 6.012.526.965.271 3.966-.762 8.919-.537 2.576-12.025 1.616-18.195 1.099-13.521-1.13-28.843-2.413-36.736 8.637-4.422 6.19-5.871 11.963-7.149 17.056-2.272 9.052-4.234 16.869-25.844 28.777-24.466 13.48-28.246 33.072-24.05 45.754 4.914 14.848 20.307 23.177 38.291 20.722 13.949-1.903 18.11 2.208 23.876 7.896 5.671 5.595 12.764 12.549 27.8 12.124 14.037-.401 21.219-10.317 26.988-18.285 7.881-10.881 13.572-18.745 34.431-12.236 3.958 1.235 8.161-.971 9.394-4.925 1.234-3.954-.971-8.16-4.925-9.394-31.158-9.724-42.65 6.161-51.048 17.757-5.504 7.6-8.926 11.908-15.269 12.089-8.646.255-11.918-2.957-16.837-7.81-6.766-6.673-15.177-14.979-36.438-12.08-10.76 1.465-19.412-2.681-22.022-10.571-2.391-7.222.641-18.863 17.047-27.904 25.317-13.95 29.854-25.115 33.154-38.262 1.093-4.353 2.036-8.111 4.806-11.989 2.937-4.111 14.214-3.168 23.28-2.407 13.034 1.09 30.888 2.585 34.132-12.988 3.878-18.614-1.277-22.644-14.359-30.743-2.919-1.807-6.227-3.854-10.206-6.556-9.426-6.397-4.559-11.767-2.547-26.978 25.961-23.979 57.452-49.549 93.092-71.735 1.416 1.351 2.949 2.651 4.605 3.885 27.765 20.691 31.988 22.316 26.491 36.975-11.091 29.576-12.616 52.375-4.535 67.766 5.033 9.586 13.543 15.936 25.291 18.873 36.531 9.133 45.602 13.585 48.525 23.816 2.333 8.165 6.897 24.11 22.043 31.411-7.582 36.971-26.174 69.972-52.172 95.438zm55.96-132.892c0 7.268-.447 14.514-1.232 21.351-5.495-4.648-8.062-12.039-10.174-19.43-5.411-18.936-22.228-24.977-59.31-34.248-7.528-1.882-12.646-5.576-15.649-11.294-5.839-11.12-3.957-30.84 5.3-55.524 9.912-26.43-5.376-34.749-31.573-54.271-.002-.001-.004-.003-.006-.004 5.492-3.185 11.146-6.336 16.839-9.335 59.197 32.887 95.805 94.888 95.805 162.755zm-45.012-281.242-8.921-1.275c-6.718-.96-12.5-5.316-15.298-11.456l43.802-1.908c4.718-.229 9.327 1.857 12.315 5.521l9.389 11.512-25.673 10.265-.224-.559c-2.588-6.475-8.485-11.112-15.39-12.1zm67.003 103.96-33.042 28.816c-2.207-6.377-1.021-13.518 3.182-18.846 5.453-6.91 13.267-14.263 8.165-27.007l25.674-10.266 1.135 14.812c.361 4.715-1.55 9.384-5.114 12.491zm-41.934-25.099-6.493-16.24 27.193-10.872c3.847-1.538 5.718-5.902 4.18-9.748-1.538-3.847-5.9-5.718-9.748-4.18l-27.193 10.872-6.494-16.241c12.549-5.018 72.825-29.118 83.254-33.288 11.381 28.464 7.174 17.942 18.556 46.409zm96.966-39.397c-11.529-28.835-6.594-16.491-18.123-45.327 14.933-3.39 29.978 1.312 34.456 12.51 4.429 11.081-2.744 24.726-16.333 32.817z"/></g></g></svg>