<svg clip-rule="evenodd" fill-rule="evenodd" stroke-linejoin="round" stroke-miterlimit="2" viewBox="0 0 96 96" xmlns="http://www.w3.org/2000/svg"><g><g><path d="m2.117 92.511c-.207.394-.134.877.18 1.192.315.314.798.387 1.192.18 7.549-3.98 27.227-14.352 27.227-14.352l-14.247-14.247s-10.372 19.678-14.352 27.227z" fill="#f3ae24"/><path d="m54.196 28.898s-18.019-2.255-23.366-2.924c-.933-.117-1.867.204-2.532.869-3.476 3.475-14.623 14.623-19.353 19.352-1.189 1.19-1.189 3.119 0 4.308 3.921 3.921 11.823 11.823 11.823 11.823z" fill="#b0b9fb"/><path d="m69.157 67.702c.665-.665.986-1.599.869-2.532-.669-5.347-2.924-23.366-2.924-23.366l-33.428 33.428s7.902 7.902 11.823 11.823c1.189 1.189 3.118 1.189 4.308 0 4.729-4.73 15.877-15.877 19.352-19.353z" fill="#b0b9fb"/><path d="m83.668 31.281c1.111-1.111 1.982-2.438 2.558-3.9 1.531-3.884 4.79-12.151 7.442-18.879.695-1.762.278-3.769-1.061-5.109-1.34-1.339-3.347-1.756-5.109-1.061-6.728 2.652-14.995 5.911-18.879 7.442-1.462.576-2.789 1.447-3.9 2.558-8.219 8.218-44.091 44.091-53.287 53.286-.571.571-.892 1.346-.892 2.154s.321 1.583.892 2.154c3.647 3.647 10.995 10.995 14.642 14.642.571.571 1.346.892 2.154.892s1.583-.321 2.154-.892c9.195-9.196 45.068-45.068 53.286-53.287z" fill="#e6e9fe"/><path d="m76.2 38.75-18.95-18.95 5.703-5.703 18.95 18.95z" fill="#bc9445"/><path d="m39.909 61.569c.571-.571.892-1.346.892-2.154s-.321-1.583-.892-2.154c-.385-.385-.785-.785-1.17-1.17-.571-.571-1.346-.892-2.154-.892s-1.583.321-2.154.892c-5.276 5.276-18.417 18.417-18.417 18.417l5.478 5.478s13.141-13.141 18.417-18.417z" fill="#bc9445"/><g fill="#d0d5fd"><path d="m11.407 14.097v6.397c0 .828.672 1.5 1.5 1.5s1.5-.672 1.5-1.5v-6.397c0-.828-.672-1.5-1.5-1.5s-1.5.672-1.5 1.5z"/><path d="m80.034 50.268v6.397c0 .828.672 1.5 1.5 1.5s1.5-.672 1.5-1.5v-6.397c0-.828-.672-1.5-1.5-1.5s-1.5.672-1.5 1.5z"/><path d="m9.709 18.795h6.397c.828 0 1.5-.672 1.5-1.5 0-.827-.672-1.5-1.5-1.5h-6.397c-.828 0-1.5.673-1.5 1.5 0 .828.672 1.5 1.5 1.5z"/><path d="m78.335 54.966h6.397c.828 0 1.5-.672 1.5-1.5s-.672-1.5-1.5-1.5h-6.397c-.828 0-1.5.672-1.5 1.5s.672 1.5 1.5 1.5z"/><path d="m48.326 4.08c-2.593 0-4.698 2.106-4.698 4.699s2.105 4.698 4.698 4.698c2.594 0 4.699-2.105 4.699-4.698s-2.105-4.699-4.699-4.699zm0 3c.938 0 1.699.761 1.699 1.699 0 .937-.761 1.698-1.699 1.698-.937 0-1.698-.761-1.698-1.698 0-.938.761-1.699 1.698-1.699z"/><path d="m76.869 78.918c-2.593 0-4.699 2.106-4.699 4.699s2.106 4.698 4.699 4.698 4.698-2.105 4.698-4.698-2.105-4.699-4.698-4.699zm0 3c.937 0 1.698.761 1.698 1.699 0 .937-.761 1.698-1.698 1.698-.938 0-1.699-.761-1.699-1.698 0-.938.761-1.699 1.699-1.699z"/></g></g><g><path d="m4.174 91.826 7.422-14.081c.386-.732.105-1.64-.628-2.026-.732-.386-1.64-.105-2.026.627l-8.152 15.466c-.514.975-.333 2.172.447 2.951.779.78 1.976.961 2.951.447l20.89-11.011c.732-.386 1.013-1.294.627-2.027-.386-.732-1.294-1.013-2.026-.627z"/><path d="m35.635 79.314 8.801 8.802c1.776 1.775 4.654 1.775 6.429 0l19.353-19.353c.992-.992 1.471-2.387 1.296-3.779l-2.251-17.995c-.103-.821-.854-1.405-1.675-1.302-.822.103-1.405.853-1.302 1.675l2.252 17.994c.059.474-.104.948-.441 1.285 0 0-19.353 19.353-19.353 19.353-.604.604-1.583.604-2.186 0 0 0-8.802-8.801-8.802-8.801-.585-.585-1.535-.585-2.121 0-.585.586-.585 1.536 0 2.121zm6.449-53.443-11.068-1.385c-1.392-.175-2.787.304-3.779 1.296-3.475 3.475-14.623 14.623-19.353 19.353-1.775 1.775-1.775 4.653 0 6.429l8.802 8.801c.585.585 1.535.585 2.121 0 .585-.586.585-1.536 0-2.121l-8.801-8.802c-.604-.603-.604-1.582 0-2.186 0 0 19.353-19.353 19.353-19.353.337-.337.811-.5 1.285-.441 0 0 11.067 1.385 11.067 1.385.821.103 1.572-.48 1.675-1.302.102-.821-.481-1.572-1.302-1.674z"/><path d="m84.729 32.342c1.256-1.256 2.241-2.758 2.892-4.41l7.443-18.88c.914-2.318.365-4.957-1.397-6.719s-4.401-2.311-6.719-1.397c-6.728 2.652-14.995 5.911-18.88 7.443-1.652.651-3.154 1.636-4.41 2.892-8.219 8.219-44.091 44.091-53.286 53.286-.853.853-1.332 2.009-1.332 3.215s.479 2.362 1.332 3.214c3.646 3.647 10.995 10.996 14.642 14.642.852.853 2.008 1.332 3.214 1.332s2.362-.479 3.215-1.332c9.195-9.195 45.067-45.067 53.286-53.286zm-2.121-2.121-53.287 53.286c-.29.29-.683.453-1.093.453s-.803-.163-1.093-.453l-14.642-14.642c-.29-.29-.453-.683-.453-1.093s.163-.803.453-1.093l53.286-53.287c.966-.965 2.119-1.722 3.39-2.222 0 0 18.879-7.443 18.879-7.443 1.207-.476 2.581-.19 3.498.727s1.203 2.291.727 3.498c0 0-7.443 18.879-7.443 18.879-.5 1.271-1.257 2.424-2.222 3.39z"/><path d="m77.26 37.689-11.507-11.507c-.585-.585-1.536-.585-2.121 0-.586.585-.586 1.536 0 2.121l11.507 11.507c.586.586 1.536.586 2.121 0 .586-.585.586-1.535 0-2.121zm-15.367-22.531 18.949 18.949c.586.586 1.536.586 2.122 0 .585-.585.585-1.536 0-2.121l-18.95-18.95c-.585-.585-1.536-.585-2.121 0-.586.586-.586 1.536 0 2.122zm.16 7.324-3.742-3.742c-.586-.586-1.536-.586-2.121 0-.586.585-.586 1.535 0 2.121l3.742 3.742c.585.586 1.536.586 2.121 0 .586-.585.586-1.536 0-2.121z"/><path d="m22.553 81.046s13.141-13.141 18.417-18.416c.852-.853 1.331-2.009 1.331-3.215s-.479-2.362-1.331-3.214l-1.171-1.171c-.852-.852-2.008-1.331-3.214-1.331s-2.362.479-3.215 1.331c-5.275 5.276-14.489 14.49-14.489 14.49-.585.585-.585 1.536 0 2.121s1.536.585 2.121 0c0 0 9.214-9.214 14.49-14.489.29-.29.683-.453 1.093-.453s.803.163 1.093.453c0 0 1.17 1.17 1.17 1.17.29.29.453.683.453 1.093s-.163.803-.453 1.093l-18.416 18.417c-.586.586-.586 1.536 0 2.121.585.586 1.536.586 2.121 0z"/><path d="m11.407 14.097v6.397c0 .828.672 1.5 1.5 1.5s1.5-.672 1.5-1.5v-6.397c0-.828-.672-1.5-1.5-1.5s-1.5.672-1.5 1.5z"/><path d="m80.034 50.268v6.397c0 .828.672 1.5 1.5 1.5s1.5-.672 1.5-1.5v-6.397c0-.828-.672-1.5-1.5-1.5s-1.5.672-1.5 1.5z"/><path d="m9.709 18.795h6.397c.828 0 1.5-.672 1.5-1.5 0-.827-.672-1.5-1.5-1.5h-6.397c-.828 0-1.5.673-1.5 1.5 0 .828.672 1.5 1.5 1.5z"/><path d="m78.335 54.966h6.397c.828 0 1.5-.672 1.5-1.5s-.672-1.5-1.5-1.5h-6.397c-.828 0-1.5.672-1.5 1.5s.672 1.5 1.5 1.5z"/><path d="m48.326 4.08c-2.593 0-4.698 2.106-4.698 4.699s2.105 4.698 4.698 4.698c2.594 0 4.699-2.105 4.699-4.698s-2.105-4.699-4.699-4.699zm0 3c.938 0 1.699.761 1.699 1.699 0 .937-.761 1.698-1.699 1.698-.937 0-1.698-.761-1.698-1.698 0-.938.761-1.699 1.698-1.699z"/><path d="m76.869 78.918c-2.593 0-4.699 2.106-4.699 4.699s2.106 4.698 4.699 4.698 4.698-2.105 4.698-4.698-2.105-4.699-4.698-4.699zm0 3c.937 0 1.698.761 1.698 1.699 0 .937-.761 1.698-1.698 1.698-.938 0-1.699-.761-1.699-1.698 0-.938.761-1.699 1.699-1.699z"/></g></g></svg>