<svg id="Capa_1" enable-background="new 0 0 512 512" height="512" viewBox="0 0 512 512" width="512" xmlns="http://www.w3.org/2000/svg"><g><g><path d="m288.979 52.287-16.468-28.214h-2.365l-27.121 48.595-.74 5.117h51.736l4.461-5.117c-2.536-7.039-5.701-13.867-9.503-20.381z" fill="#fb5fa7"/><path d="m256.044 52.287 16.468-28.214-6.231-10.677c-4.588-7.862-15.948-7.862-20.537 0l-22.699 38.891c-3.802 6.514-6.968 13.341-9.504 20.381l4.232 5.117h33l-4.232-5.117c2.535-7.039 5.701-13.867 9.503-20.381z" fill="#fb4297"/><path d="m298.483 72.668h-55.458l-6.212 42.951v103.358h63.333l5.659-3.309v-101.172c0-14.318-2.507-28.463-7.322-41.828z" fill="#f9f6f6"/><path d="m239.217 114.496c0-14.318 2.507-28.463 7.322-41.828h-33c-4.815 13.365-7.322 27.509-7.322 41.828v101.172l4.763 3.309h33l-4.763-3.309z" fill="#e2d8ec"/><path d="m236.813 215.668v39.418l-.832 1.7h69.824v-41.118z" fill="#e2d8ec"/><path d="m206.217 215.668h33v41.117h-33z" fill="#d5c6e4"/><circle cx="256.011" cy="126.546" fill="#3351c5" r="18.063"/><path d="m319.397 330.036h-101.917v95.25l-3.63 4.666h106.797l5.153-4.084v-91.866z" fill="#5169cd"/><path d="m219.223 334.002 5.424-3.966h-33l-5.424 3.966v91.866l5.09 4.084h33l-5.09-4.084z" fill="#3351c5"/><path d="m318.751 423.705h-101.271v1.58l-4.667 6v26l-12.5 4.667-.893 2.083h126.38l5.521-4.972v-22.787c0-6.943-5.628-12.571-12.57-12.571z" fill="#e2d8ec"/><path d="m213.702 436.276c0-6.943 5.628-12.57 12.571-12.57h-33c-6.942 0-12.571 5.628-12.571 12.57v22.787l4.16 4.972h33l-4.16-4.972z" fill="#d5c6e4"/><path d="m305.805 255.086h-68.992l-19.333 39.479v3.221h103.333l4.987-3.221z" fill="#d5c6e4"/><path d="m239.217 255.086h-33l-19.994 39.479 3.757 3.221h33l-3.757-3.221z" fill="#c6b4da"/><path d="m217.48 294.565h108.32v39.436h-108.32z" fill="#3351c5"/><path d="m186.223 294.565h33v39.436h-33z" fill="#213993"/><path d="m333.359 459.063h-125.307l-7.738 2.889-2.5 5.833v31.25l8.339 5.464h127.207c6.696 0 12.125-5.429 12.125-12.125v-21.186c-.001-6.696-5.43-12.125-12.126-12.125z" fill="#f9f6f6"/><path d="m199.539 492.375v-21.186c0-6.697 5.429-12.125 12.125-12.125h-33c-6.696 0-12.125 5.429-12.125 12.125v21.186c0 6.697 5.429 12.125 12.125 12.125h33c-6.697 0-12.125-5.429-12.125-12.125z" fill="#e2d8ec"/></g><g><path d="m313.294 114.496c0-22.39-5.875-45.476-17.849-65.99l-22.699-38.89c-3.514-6.021-9.774-9.616-16.745-9.616h-.001c-6.971 0-13.231 3.595-16.746 9.616l-22.699 38.891c-11.391 19.517-17.849 42.434-17.849 65.989v138.799l-19.185 37.881c-.548 1.084-.81 2.297-.81 3.389v127.926c-3.412 3.599-5.521 8.446-5.521 13.785v16.076c-8.169 2.373-14.163 9.912-14.163 18.837v21.186c0 10.821 8.804 19.625 19.625 19.625h154.695c10.821 0 19.625-8.804 19.625-19.625v-21.186c0-8.925-5.993-16.463-14.162-18.837v-16.076c0-5.339-2.109-10.185-5.521-13.785v-27.275c0-4.143-3.357-7.5-7.5-7.5s-7.5 3.357-7.5 7.5v20.989h-124.577v-74.704h124.577v18.715c0 4.143 3.357 7.5 7.5 7.5s7.5-3.357 7.5-7.5c0-7.597 0-59.373 0-65.651 0-1.085-.262-2.31-.81-3.389l-19.186-37.881c.001-4.676.001-127.845.001-138.799zm20.053 352.067c2.55 0 4.625 2.075 4.625 4.626v21.186c0 2.55-2.075 4.625-4.625 4.625h-154.695c-2.55 0-4.625-2.075-4.625-4.625v-21.186c0-2.551 2.075-4.626 4.625-4.626zm-14.608-35.357c2.685 0 5.071 2.19 5.071 5.07v15.287h-135.62v-15.287c0-2.893 2.404-5.07 5.07-5.07zm-89.229-375.138 22.699-38.891c1.146-1.965 3.033-2.177 3.792-2.177.758 0 2.644.212 3.79 2.177l22.699 38.891c1.731 2.965 3.312 6.006 4.767 9.101h-62.514c1.455-3.095 3.036-6.136 4.767-9.101zm-15.804 58.428c0-11.129 1.675-22.935 5.216-34.328h74.156c3.533 11.367 5.216 23.204 5.216 34.328v4.55h-17.855c-3.213-10.447-12.952-18.063-24.439-18.063-11.486 0-21.225 7.616-24.438 18.063h-17.856zm52.857 12.05c0 5.824-4.738 10.563-10.563 10.563-5.824 0-10.562-4.739-10.562-10.563s4.738-10.563 10.562-10.563c5.825 0 10.563 4.739 10.563 10.563zm-52.857 96.622h24.794c4.143 0 7.5-3.357 7.5-7.5s-3.357-7.5-7.5-7.5h-24.794v-74.122h17.856c3.213 10.447 12.952 18.063 24.438 18.063 11.487 0 21.226-7.616 24.439-18.063h17.855v74.122h-24.794c-4.143 0-7.5 3.357-7.5 7.5s3.357 7.5 7.5 7.5h24.794v24.417h-84.588zm104.583 103.333h-124.577v-24.437h124.577zm-4.706-39.436h-115.166l12.397-24.479h90.371z"/></g></g></svg>