<svg id="Layer_1" enable-background="new 0 0 512.11 512.11" viewBox="0 0 512.11 512.11" xmlns="http://www.w3.org/2000/svg"><g><g><path d="m497.835 375.872c-14.97 48.53-53.52 83.06-98.72 83.06h-263.53v-71.85l219.96-79.77z" fill="#eaaa83"/><path d="m231.828 115.046c3.503-10.464 10.201-20.681 20.116-30.053 8.328-7.872 21.319-8.356 30.21-1.125 34.104 27.736 35.555 66.706 3.609 96.902-.662.626-1.353 1.205-2.07 1.737" fill="#60daa8"/><ellipse cx="216.839" cy="166.786" fill="#b1ecd0" rx="72.951" ry="43.492" transform="matrix(.999 -.037 .037 .999 -6.057 8.186)"/><path d="m440.178 110.259c-5.888-2.456-8.363-9.466-5.317-15.075 7.441-13.708-6.447-29.171-20.873-23.238-5.905 2.428-12.608-.781-14.421-6.9-4.432-14.955-25.186-16.069-31.191-1.673l-17.812 42.883 43.5 48.23 44.442-13.035c14.954-4.431 16.067-25.185 1.672-31.192z" fill="#b1ecd0"/><path d="m375.525 212.712-11.09.97c-132.85-22.39-23.72-129.79-23.72-129.79 15.24-.18 31.21 5.45 43.67 19.32l16.14 17.97c31.944 35.577 7.466 88.688-25 91.53z" fill="#ff899f"/><path d="m359.215 214.142-42.19 3.71c-23.44 2.06-42.25-18.87-37.69-41.97l11.36-57.61c4.145-20.981 28.106-34.164 50.02-34.38-11.31 19-44.81 86.41 18.5 130.25z" fill="#ff5f7f"/><path d="m497.835 375.872c-2.66.31-5.45.41-8.37.24-14.85-.87-18.52-8.09-30.11-7.53-18.5.9-21.32 19.85-37.65 22.59-20.93 3.51-27.29-25.77-52.71-30.12-35.5-6.07-58.66 44.97-90.35 37.65-10.61-2.45-18.53-10.6-24.38-19.72l-118.68 8.1v-184.15h263.53c74.323 0 124.301 90.351 98.72 172.94z" fill="#e7896e"/><path d="m263.585 330.932c0 58.56-39.32 107.92-92.99 123.15-193.201 11.1-180.011-235.234-.02-246.3 53.68 15.22 93.01 64.59 93.01 123.15z" fill="#ffd9a0"/><path d="m170.595 454.082c-.02.01-.04.01-.06.02-11.11 3.15-22.83 4.83-34.95 4.83-70.69 0-128-57.3-128-128 0-84.865 81.371-146.396 162.99-123.15-53.67 15.23-92.99 64.6-92.99 123.15 0 58.57 39.33 107.94 93.01 123.15z" fill="#fdc072"/><path d="m468.863 254.521-16.253-6.99c-6.972-2.998-10.193-11.081-7.195-18.053l7.045-16.38c2.998-6.972 11.081-10.193 18.053-7.195l16.253 6.99c6.972 2.998 10.193 11.081 7.195 18.053l-7.045 16.38c-2.999 6.972-11.081 10.193-18.053 7.195z" fill="#b1ecd0"/><path d="m431.216 410.793-16.253-6.99c-6.972-2.999-10.193-11.081-7.195-18.053l7.045-16.38c2.999-6.972 11.081-10.193 18.053-7.195l16.253 6.99c6.972 2.998 10.193 11.081 7.195 18.053l-7.045 16.38c-2.999 6.973-11.081 10.194-18.053 7.195z" fill="#efedff"/><path d="m313.54 395.242-7.302-16.116c-3.132-6.913-.067-15.056 6.846-18.188l16.241-7.359c6.913-3.132 15.056-.067 18.188 6.846l7.302 16.116c3.132 6.913.067 15.056-6.846 18.188l-16.241 7.359c-6.912 3.132-15.055.067-18.188-6.846z" fill="#b1ecd0"/><path d="m264.28 235.092-12.511-12.511c-5.367-5.367-5.367-14.067 0-19.434l12.608-12.608c5.367-5.367 14.068-5.367 19.434 0l12.511 12.511c5.367 5.367 5.367 14.067 0 19.434l-12.608 12.608c-5.367 5.366-14.068 5.366-19.434 0z" fill="#efedff"/></g><g><path d="m233.363 152.617c-17.273-.05-34.367 2.707-50.803 8.244-3.925 1.322-6.036 5.577-4.713 9.502 1.323 3.927 5.579 6.035 9.502 4.713 14.696-4.951 29.967-7.46 45.402-7.46.194 0 .402-.002.583.001 4.128 0 7.483-3.339 7.5-7.471.016-4.142-3.329-7.513-7.471-7.529z"/><path d="m332.998 127.393c4.197 0 7.5-3.446 7.5-7.5 0-4.689-4.338-8.306-8.97-7.35-3.387.633-6.03 3.717-6.03 7.35 0 4.136 3.348 7.5 7.5 7.5z"/><path d="m318.518 162.143c4.176 0 7.5-3.377 7.5-7.49 0-4.181-3.4-7.51-7.5-7.51-4.127 0-7.5 3.383-7.5 7.51 0 4.047 3.295 7.49 7.5 7.49z"/><path d="m355.008 152.873c.49 0 .98-.05 1.47-.15.47-.09.95-.24 1.4-.43.45-.18.89-.41 1.29-.69.42-.27.8-.58 1.14-.93 1.4-1.39 2.2-3.33 2.2-5.3 0-3.579-2.574-6.689-6.03-7.35-4.541-.912-8.97 2.546-8.97 7.35 0 4.189 3.421 7.5 7.5 7.5z"/><path d="m377.028 178.353c4.127 0 7.5-3.373 7.5-7.5 0-.49-.05-.98-.15-1.47-1.246-6.005-8.533-7.963-12.66-3.83-1.39 1.39-2.19 3.33-2.19 5.3 0 4.044 3.244 7.5 7.5 7.5z"/><path d="m333.038 180.133c0 4.217 3.466 7.5 7.5 7.5 4.128 0 7.5-3.373 7.5-7.5 0-4.699-4.301-8.276-8.97-7.36-3.633.77-6.03 3.856-6.03 7.36z"/><path d="m153.486 354.858c-3.373 2.404-4.157 7.088-1.753 10.46 2.404 3.373 7.087 4.158 10.461 1.753 8.85-6.31 15.06-17.821 14.517-30.568-1.473-34.575-48.921-50.63-74.833-22.819-9.746 10.459-14.78 24.037-14.175 38.231 2.154 50.584 71.84 73.513 109.625 32.958 29.904-32.093 27.781-81.932-4.743-111.367-38.813-35.126-98.753-33.573-135.705 3.278-2.933 2.925-2.939 7.674-.014 10.606 2.925 2.933 7.674 2.94 10.606.015 48.55-48.419 133.318-18.959 135.889 41.426.724 16.997-5.316 33.268-17.009 45.816-18.809 20.187-50.754 21.547-71.211 3.033-15.723-14.229-16.746-38.256-2.29-53.771 16.95-18.191 47.968-7.98 48.873 13.231.319 7.465-3.381 14.258-8.238 17.718z"/><path d="m304.448 272.964c-4.142 0-7.5 3.358-7.5 7.5v12c0 4.142 3.358 7.5 7.5 7.5s7.5-3.358 7.5-7.5v-12c0-4.142-3.358-7.5-7.5-7.5z"/><path d="m437.955 270.724c-21.328 0-28.124 28.906-13.906 28.906 4.142 0 7.5-3.358 7.5-7.5 0-3.532 2.874-6.406 6.406-6.406s6.406 2.874 6.406 6.406c0 4.142 3.358 7.5 7.5 7.5 14.13 0 7.459-28.906-13.906-28.906z"/><path d="m398.954 292.848c-4.142 0-7.5 3.358-7.5 7.5 0 3.835-3.12 6.956-6.956 6.956s-6.956-3.12-6.956-6.956c0-4.142-3.358-7.5-7.5-7.5s-7.5 3.358-7.5 7.5c0 3.835-3.12 6.956-6.956 6.956s-6.956-3.12-6.956-6.956c0-4.142-3.358-7.5-7.5-7.5s-7.5 3.358-7.5 7.5c0 18.876 22.327 28.856 36.411 16.512 3.865 3.387 8.925 5.443 14.456 5.443 21.809 0 28.762-29.455 14.457-29.455z"/><path d="m491.973 253.708c1.527-2.291 1.24-1.959 8.915-19.805 4.639-10.786-.335-23.267-11.122-27.906l-16.253-6.99c-10.012-4.308-21.546-.276-26.827 8.979-10.882-6.046-22.552-9.976-34.51-11.636 8.007-12.373 11.902-27.451 10.576-42.46l17.925-5.256c21.713-6.434 23.329-36.579 2.429-45.302-1.616-.675-2.628-2.483-1.478-4.845 10.502-19.894-9.646-42.043-30.45-33.483-1.779.729-3.827-.22-4.381-2.089-6.429-21.726-36.578-23.337-45.308-2.429l-7.134 17.176c-19.124-3.817-39.782 1.029-54.499 13.075-3.727-4.466-8.044-8.717-12.929-12.693-11.801-9.598-29.038-8.957-40.095 1.489-8.865 8.382-15.481 17.486-19.748 27.13-29.448-3.597-58.796 9.875-81.379 37.649-11.408 14.034-12.177 35.596 2.794 51.12l-12.875-.003c-39.896 0-77.586 17.471-103.407 47.933-2.678 3.16-2.288 7.893.872 10.571 3.161 2.679 7.894 2.288 10.571-.872 22.152-26.134 55.15-42.628 92.234-42.628 66.32.146 120.231 54.143 120.231 120.497 0 66.444-54.056 120.5-120.5 120.5-87.464 0-145.714-90.728-109.871-170.06 1.705-3.774.028-8.217-3.747-9.923-3.773-1.704-8.217-.027-9.923 3.747-40.328 89.256 25.213 191.17 123.451 191.234.03 0 .06.005.09.005h127.999c4.142 0 7.5-3.358 7.5-7.5s-3.358-7.5-7.5-7.5h-66.081c24.95-12.872 45.409-33.269 58.365-58.169 14.016 14.813 31.832 18.208 51.726 6.797 5.336 9.42 17.083 13.448 27.227 8.851l16.241-7.359c10.694-4.845 15.428-17.421 10.583-28.115l-2.337-5.158c18.259-2.662 28.726 13.52 39.849 22.95.034 8.203 4.836 16.013 12.84 19.455 14.253 6.13 21.877 11.445 32.51 7.209 5.271-2.101 9.408-6.128 11.649-11.34 7.251-16.86 10.381-21.217 8.085-30.064 5.841 1.382 11.713 5.937 22.725 7.011-15.12 38.444-46.611 67.931-87.85 67.931h-105.557c-4.142 0-7.5 3.358-7.5 7.5s3.358 7.5 7.5 7.5h105.557c92.169.001 143.94-124.652 92.817-212.724zm-24.385-40.922 16.252 6.99c3.169 1.363 4.631 5.032 3.269 8.201l-7.044 16.38c-1.364 3.17-5.03 4.631-8.201 3.268l-16.253-6.99c-3.169-1.364-4.631-5.031-3.268-8.201l7.044-16.379c1.36-3.163 5.04-4.627 8.201-3.269zm-75.173-145.614c3.071 10.376 14.456 15.814 24.467 11.707 7.327-3.017 15.562 4.172 11.27 13.014-4.928 9.481-.684 21.163 9.176 25.282 7.871 3.285 7.286 14.648-.892 17.072l-16.745 4.91c-2.809-8.377-7.341-16.087-13.545-22.995-14.333-15.961-22.526-27.084-37.468-33.878l6.658-16.031c3.291-7.882 14.655-7.271 17.079.919zm-35.857 26.51c15.975 4.996 22.675 14.961 38.428 32.503 12.617 14.049 16.088 32.385 10.391 49.858-2.438 7.461-6.495 14.243-11.542 19.39h-94.479c-11.086-11.086-11.017-11.187-13.228-12.707.081-5.086 2.603-15.567 11.965-63.006 3.863-19.509 32.471-34.236 58.465-26.038zm-65.501 114.664c2.434 2.434 2.434 6.394 0 8.828l-12.608 12.608c-2.433 2.433-6.394 2.434-8.828 0l-12.51-12.51c-2.286-2.286-2.66-6.104.224-9.052l12.383-12.383c2.44-2.439 6.388-2.44 8.828 0l12.357 12.356c.028.028.056.056.084.084zm-33.92-117.911c5.605-5.295 14.343-5.62 20.325-.755 4.711 3.834 8.779 7.93 12.149 12.219-5.867 8.832-6.19 14.792-9.466 31.2-11.765-10.931-24.697-18.758-38.056-23.082 3.471-6.836 8.508-13.397 15.048-19.582zm-98.662 93.734c-7.922-8.375-8.407-21.441-1.129-30.395 34.482-42.409 81.145-43.295 117.941-4.378.454.479.874.991 1.285 1.511-3.231 16.058-4.731 23.54-5.25 28.306-4.606.606-8.869 2.675-12.209 6.015l-10.204 10.204h-78.12c-4.211-3.288-8.345-7.067-12.314-11.263zm189.704 200.235c-1.231 3.273-2.306 3.052-19.507 10.846-1.52.688-3.215.744-4.775.156-3.226-1.213-2.995-2.18-10.789-19.381-1.423-3.143-.033-6.838 3.109-8.262 24.92-11.291 20.514-13.054 31.805 11.866.689 1.519.744 3.215.157 4.775zm94.239 16.225c-1.364 3.17-5.03 4.631-8.201 3.268l-16.253-6.989c-3.162-1.36-4.628-5.039-3.268-8.201 10.809-25.133 6.366-23.467 31.498-12.657 1.472.633 2.699 1.833 3.332 3.423 1.295 3.247.352 3.808-7.108 21.156zm9.555-38.423-16.106-6.927c-10.756-4.628-23.278.362-27.906 11.122l-3.838 8.924c-14.771-14.572-28.761-26.747-51.43-21.01-5.692-8.574-16.823-11.923-26.424-7.574l-16.241 7.359c-5.168 2.341-9.116 6.556-11.114 11.866-3.311 8.797-.081 14.897 2.413 20.401-14.75 8.898-27.047 7.526-38.63-8.387 5.447-14.663 8.429-30.514 8.429-47.05 0-52.414-29.916-97.969-73.568-120.497h42.888c-.708 6.217 1.301 12.687 6.059 17.445l12.511 12.51c8.284 8.282 21.758 8.282 30.041 0l12.608-12.608c4.733-4.733 6.749-11.161 6.073-17.347h91.42c14.337 0 28.547 3.903 41.447 11.332l-2.04 4.743c-4.639 10.786.335 23.267 11.121 27.906l16.253 6.99c4.234 1.821 8.929 2.287 13.734 1.028 18.021 31.82 22.028 70.308 12.224 106.299-15.721.019-21.794-11.62-39.924-6.525z"/><path d="m353.978 263.133c6.645 0 10.014-8.08 5.3-12.8-1.74-1.74-4.33-2.54-6.76-2.05-3.617.754-6.04 3.836-6.04 7.35 0 4.055 3.279 7.5 7.5 7.5z"/><path d="m299.808 316.043c-3.699.768-6.04 3.966-6.04 7.36 0 4.13 3.38 7.5 7.51 7.5 4.112 0 7.49-3.347 7.49-7.5 0-4.765-4.373-8.282-8.96-7.36z"/><path d="m459.388 323.433c-4.822 0-8.287 4.466-7.35 8.96 1.676 8.038 13.04 8.01 14.71 0 .906-4.844-2.783-8.96-7.36-8.96z"/></g></g><g/><g/><g/><g/><g/><g/><g/><g/><g/><g/><g/><g/><g/><g/><g/></svg>