<svg height="512" viewBox="0 0 128 128" width="512" xmlns="http://www.w3.org/2000/svg"><g><path d="m28.51 45.379h70.98a22.2 22.2 0 1 1 0 44.405h-70.98z" fill="#fdca74"/><path d="m69.1 45.379h9.7a17.637 17.637 0 0 0 15.178-8.653l3.534-5.968h-9.7a17.641 17.641 0 0 0 -15.178 8.653z" fill="#4cc7b3"/><path d="m69.1 45.379h-9.7a17.637 17.637 0 0 1 -15.178-8.653l-3.533-5.968h9.7a17.639 17.639 0 0 1 15.178 8.653z" fill="#4cc7b3"/><circle cx="69.101" cy="35.962" fill="#fa7578" r="9.417"/><path d="m99.491 45.38h-70.94a22.2 22.2 0 0 1 19.866 12.369h13.424a5.505 5.505 0 0 1 5.5 5.51v9a5.51 5.51 0 0 0 11.02 0v-9a5.51 5.51 0 0 1 11.02 0v9a5.505 5.505 0 0 0 11.01 0v-9a5.514 5.514 0 0 1 5.51-5.51h13.49a22.179 22.179 0 0 0 -19.9-12.369z" fill="#f3f5e6"/><circle cx="28.51" cy="67.582" fill="#feea61" r="22.203"/><circle cx="28.51" cy="67.582" fill="#fec300" r="13.529"/><circle cx="28.51" cy="67.582" fill="#feea61" r="4.855"/><path d="m10.807 89.784h106.386a4.5 4.5 0 0 1 4.5 4.5v7.171a0 0 0 0 1 0 0h-115.386a0 0 0 0 1 0 0v-7.171a4.5 4.5 0 0 1 4.5-4.5z" fill="#fb8d4b"/><g><path d="m28.51 82.861a15.279 15.279 0 1 0 -15.28-15.279 15.3 15.3 0 0 0 15.28 15.279zm0-27.058a11.779 11.779 0 1 1 -11.78 11.779 11.793 11.793 0 0 1 11.78-11.782z"/><path d="m28.51 74.187a6.605 6.605 0 1 0 -6.61-6.605 6.612 6.612 0 0 0 6.61 6.605zm0-9.71a3.105 3.105 0 1 1 -3.106 3.1 3.109 3.109 0 0 1 3.106-3.1z"/><path d="m98.85 99.706h-4.5a1.75 1.75 0 0 0 0 3.5h4.5a1.75 1.75 0 0 0 0-3.5z"/><path d="m117.193 88.034h-5.249a23.947 23.947 0 0 0 -12.454-44.405h-9.617a19.323 19.323 0 0 0 5.608-6.011l3.534-5.968a1.751 1.751 0 0 0 -1.506-2.642h-9.7a19.34 19.34 0 0 0 -8.685 2.067 11.142 11.142 0 0 0 -20.052 0 19.344 19.344 0 0 0 -8.685-2.067h-9.7a1.75 1.75 0 0 0 -1.506 2.642l3.533 5.968a19.338 19.338 0 0 0 5.609 6.011h-19.813a23.9 23.9 0 0 0 -12.549 3.547 1.75 1.75 0 1 0 1.839 2.979 20.459 20.459 0 1 1 -5.97 5.592 1.75 1.75 0 1 0 -2.852-2.029 23.946 23.946 0 0 0 7.081 34.316h-5.252a6.257 6.257 0 0 0 -6.25 6.25v7.172a1.751 1.751 0 0 0 1.75 1.75h78.393a1.75 1.75 0 0 0 0-3.5h-76.643v-5.422a2.754 2.754 0 0 1 2.75-2.75h106.386a2.753 2.753 0 0 1 2.75 2.75v5.422h-11.855a1.75 1.75 0 0 0 0 3.5h13.605a1.75 1.75 0 0 0 1.75-1.75v-7.172a6.257 6.257 0 0 0 -6.25-6.25zm-29.381-55.526h6.627l-1.969 3.326a15.952 15.952 0 0 1 -13.67 7.795h-1.6a10.939 10.939 0 0 0 2.959-9.155 15.842 15.842 0 0 1 7.653-1.966zm-18.712-4.214a7.668 7.668 0 1 1 -7.668 7.667 7.676 7.676 0 0 1 7.668-7.667zm-23.369 7.54-1.969-3.326h6.628a15.849 15.849 0 0 1 7.655 1.966 10.939 10.939 0 0 0 2.955 9.155h-1.6a15.956 15.956 0 0 1 -13.667-7.795zm-4.77 11.295h58.529a20.441 20.441 0 0 1 16.84 8.871h-10.43a7.267 7.267 0 0 0 -7.259 7.259v9a3.758 3.758 0 1 1 -7.516 0v-9a7.259 7.259 0 1 0 -14.517 0v9a3.758 3.758 0 0 1 -7.516 0v-9a7.267 7.267 0 0 0 -7.255-7.259h-12.37a24.137 24.137 0 0 0 -8.504-8.871zm11.5 20.453a23.853 23.853 0 0 0 -1.405-8.082h10.781a3.763 3.763 0 0 1 3.763 3.758v9a7.258 7.258 0 0 0 14.516 0v-9a3.759 3.759 0 1 1 7.517 0v9a7.258 7.258 0 1 0 14.516 0v-9a3.764 3.764 0 0 1 3.751-3.758h12.369a20.441 20.441 0 0 1 -18.779 28.534h-58.527a23.96 23.96 0 0 0 11.499-20.452z"/></g></g></svg>