<svg id="Filled_Expand" height="512" viewBox="0 0 64 64" width="512" xmlns="http://www.w3.org/2000/svg" data-name="Filled Expand"><path d="m5.483 42.253a5.5 5.5 0 0 0 7.779 0l.353-.354a5 5 0 0 1 7.071 0 5 5 0 0 1 0 7.07l-1.934 1.935a6.5 6.5 0 0 0 0 9.191 6.5 6.5 0 0 0 9.192 0l30.573-30.57a5.5 5.5 0 0 0 0-7.778 5.5 5.5 0 0 0 -7.779 0l-.353.354a5 5 0 0 1 -7.071 0 5 5 0 0 1 0-7.07l1.933-1.931a6.5 6.5 0 0 0 0-9.191 6.5 6.5 0 0 0 -9.192 0l-30.572 30.566a5.5 5.5 0 0 0 0 7.778z" fill="#ebf5ff"/><rect fill="#c3875a" height="16" rx="3" transform="matrix(.707 .707 -.707 .707 32 -13.255)" width="48.83" x="7.585" y="24"/><path d="m53.312 60.125-6.523-8.386 4.95-4.95 8.386 6.523a4.855 4.855 0 0 1 .453 7.266 4.855 4.855 0 0 1 -7.266-.453z" fill="#b4784b"/><path d="m3.875 10.688 8.386 6.523 4.95-4.95-6.523-8.386a4.855 4.855 0 0 0 -7.266-.453 4.855 4.855 0 0 0 .453 7.266z" fill="#b4784b"/><path d="m61.2 51.931-6.841-5.321a4.758 4.758 0 0 0 -.322-6.362l-1.884-1.884 7.6-7.6a7.25 7.25 0 0 0 -10.253-10.255l-.354.354a3.25 3.25 0 0 1 -4.6-4.6l1.934-1.934a8.25 8.25 0 0 0 -11.664-11.663l-9.181 9.181-1.884-1.884a4.756 4.756 0 0 0 -6.361-.322l-5.321-6.841a6.605 6.605 0 1 0 -9.269 9.269l6.841 5.321a4.756 4.756 0 0 0 .322 6.361l1.884 1.885-7.6 7.6a7.25 7.25 0 0 0 10.253 10.254l.353-.353a3.25 3.25 0 0 1 4.6 4.595l-1.933 1.935a8.25 8.25 0 0 0 11.664 11.667l9.18-9.181 1.884 1.884a4.757 4.757 0 0 0 6.362.321l5.321 6.842a6.6 6.6 0 0 0 9.884.615 6.6 6.6 0 0 0 -.615-9.884zm-23.909-46.79a4.75 4.75 0 0 1 6.718 6.717l-1.934 1.934a6.75 6.75 0 0 0 9.547 9.546l.354-.354a3.75 3.75 0 0 1 5.3 5.3l-7.6 7.6-21.566-21.562zm-32.342 4.165a3.105 3.105 0 0 1 -.29-4.647 3.1 3.1 0 0 1 4.646.29l5.575 7.167-2.765 2.765zm21.76 49.553a4.75 4.75 0 0 1 -6.719-6.717l1.934-1.935a6.75 6.75 0 0 0 -9.546-9.545l-.354.353a3.75 3.75 0 0 1 -5.3-5.3l7.6-7.6 21.565 21.563zm17.782-7.3a1.252 1.252 0 0 1 -1.768 0l-30.285-30.283a1.249 1.249 0 0 1 0-1.767l7.071-7.071a1.251 1.251 0 0 1 1.768 0l30.285 30.285a1.252 1.252 0 0 1 0 1.768zm14.85 7.778a3.1 3.1 0 0 1 -4.646-.289l-5.575-7.167 2.765-2.765 7.167 5.575a3.1 3.1 0 0 1 .289 4.649z"/></svg>