<svg height="512" viewBox="0 0 128 128" width="512" xmlns="http://www.w3.org/2000/svg"><g><g><path d="m107.713 20.339c2.24 2.24 2.174 5.932-3.552 11.658a48.181 48.181 0 0 1 -9.542 7.317l-5.881-5.88a48.158 48.158 0 0 1 7.317-9.543c5.726-5.726 9.418-5.791 11.658-3.552z" fill="#fc852d"/><rect fill="#fecd1a" height="24.636" rx="2.94" transform="matrix(.707 -.707 .707 .707 -26.494 64.037)" width="78.138" x="24.983" y="51.682"/><path d="m33.486 88.686 5.88 5.88a48.158 48.158 0 0 1 -7.317 9.543c-5.726 5.726-9.417 5.792-11.657 3.552s-2.174-5.932 3.551-11.661a48.187 48.187 0 0 1 9.543-7.314z" fill="#fc852d"/></g><g fill="#212f68"><path d="m94.567 41.065a1.749 1.749 0 0 1 -1.238-.513l-5.881-5.881a1.75 1.75 0 0 1 -.28-2.108 50.12 50.12 0 0 1 7.6-9.91c7.693-7.694 12.157-5.526 14.132-3.551s4.142 6.439-3.551 14.132a50.12 50.12 0 0 1 -9.91 7.6 1.747 1.747 0 0 1 -.872.231zm-3.679-7.9 3.951 3.951a47 47 0 0 0 8.033-6.352c3.041-3.041 4.016-5.105 4.3-6.3a2.933 2.933 0 0 0 -3.629-3.629c-1.2.281-3.259 1.256-6.3 4.3a47 47 0 0 0 -6.355 8.026z"/><path d="m62.792 49.538a1.75 1.75 0 0 1 -1.237-2.987l1.181-1.182a1.75 1.75 0 1 1 2.475 2.475l-1.182 1.181a1.743 1.743 0 0 1 -1.237.513z"/><path d="m45.084 100.866a4.675 4.675 0 0 1 -3.316-1.366l-13.263-13.268a4.7 4.7 0 0 1 0-6.632l26.31-26.258a1.75 1.75 0 1 1 2.473 2.476l-26.309 26.257a1.192 1.192 0 0 0 0 1.683l13.264 13.263a1.194 1.194 0 0 0 1.682 0l51.1-51.095a1.194 1.194 0 0 0 0-1.684l-13.267-13.263a1.194 1.194 0 0 0 -1.684 0l-9.545 9.545a1.749 1.749 0 0 1 -2.474-2.474l9.545-9.545a4.7 4.7 0 0 1 6.632 0l13.268 13.263a4.7 4.7 0 0 1 0 6.632l-51.1 51.1a4.675 4.675 0 0 1 -3.316 1.366z"/><path d="m23.516 110.768a6.128 6.128 0 0 1 -4.416-1.868 6.274 6.274 0 0 1 -1.677-6.161c.569-2.415 2.28-5.022 5.229-7.971a50.094 50.094 0 0 1 9.909-7.6 1.751 1.751 0 0 1 2.108.28l5.88 5.881a1.748 1.748 0 0 1 .281 2.107 50.08 50.08 0 0 1 -7.6 9.911c-4.13 4.132-7.33 5.421-9.714 5.421zm9.645-19.88a47 47 0 0 0 -8.033 6.352c-2.9 2.906-5.879 6.857-3.551 9.184s6.277-.649 9.183-3.552a46.943 46.943 0 0 0 6.352-8.033z"/></g></g></svg>