<svg fill="none" height="24" viewBox="0 0 24 24" width="24" xmlns="http://www.w3.org/2000/svg"><path d="m7.11522 15.185c-1.73411-.6991-3.10634-1.8832-3.10634-3.685 0-3.26294 1-7.5 7.50002-7.5 6.5 0 8 4.5 8 8s-1 8-8 8c-5.50002 0-7.66669-2.1667-7.50002-3.5.18014-1.4411 1.72785-1.6609 3.10634-1.315z" fill="#decd72"/><path clip-rule="evenodd" d="m17.7239 17.0174c1.0301-1.4307 1.2797-3.2977 1.2797-5.0173 0-1.691-.3644-3.56582-1.4595-5.00677-1.0761-1.41597-2.915-2.48796-6.0352-2.48796-3.13059 0-4.8333 1.01264-5.77828 2.31749-.9682 1.33692-1.21646 3.08055-1.21646 4.67724 0 1.3496.9176 2.3388 2.33767 3.0178.13718.0655.27793.1276.42159.1862.30927.0797.60795.1847.88261.3078 1.11986.3311 2.32527.4829 3.35287.4829 1.3386 0 2.1923-.5484 2.7245-1.2403.5478-.7121.7702-1.5997.7702-2.2544 0-.7747-.0119-1.6263-.425-2.29769-.3781-.61441-1.1792-1.19704-3.0697-1.19704-1.86527 0-2.49474.89895-2.49474 1.49473 0 .5958.62947 1.4947 2.49474 1.4947.279 0 .5053.2263.5053.5053 0 .2791-.2263.5053-.5053.5053-2.13474 0-3.50527-1.1011-3.50527-2.5053s1.37053-2.50526 3.50527-2.50526c2.1095 0 3.3084.66738 3.9303 1.67796.5755.9353.5752 2.0577.575 2.7849v.0424c0 .8453-.2777 1.9578-.9798 2.8706-.7179.9332-1.8641 1.6347-3.5255 1.6347-1.0844 0-2.36244-.1548-3.57393-.5053-.04568-.0068-.09118-.02-.13527-.0401-.28544-.0864-.56661-.1838-.84006-.2929-.4671-.1136-.94592-.1526-1.35635-.0918-.32766.0485-.58144.1558-.75723.3073-.16697.1439-.29501.3539-.3358.6802-.04588.367.23837 1.0827 1.37916 1.7514 1.109.6501 2.93006 1.1806 5.61948 1.1806 3.3832 0 5.2088-1.0799 6.215-2.4774zm-12.5938-2.3763c-.34224.0885-.66927.2395-.94378.4761-.36938.3183-.60908.7626-.67878 1.3202-.12079.9663.59496 2.0007 1.87084 2.7486 1.30766.7666 3.31994 1.3194 6.13052 1.3194 3.6168 0 5.7912-1.17 7.035-2.8976 1.2199-1.6942 1.4703-3.8273 1.4703-5.6077 0-1.809-.3856-3.93416-1.6655-5.61822-1.2989-1.70902-3.46-2.88703-6.8398-2.88703-3.36941 0-5.4167 1.10588-6.59672 2.7353-1.1568 1.59734-1.40854 3.60372-1.40854 5.26995 0 1.3584.67154 2.3878 1.62646 3.141z" fill="#1e3317" fill-rule="evenodd"/></svg>