<svg height="512" viewBox="0 0 128 128" width="512" xmlns="http://www.w3.org/2000/svg"><g><g><path d="m97.691 77.82v.715a9.728 9.728 0 0 1 -6.371 9.132s0-.011-.011 0a9.635 9.635 0 0 1 -3.344.594h-47.9a9.47 9.47 0 0 1 -3.367-.6 9.73 9.73 0 0 1 -6.36-9.121v-51.474a7.983 7.983 0 0 1 7.977-7.977h20.901a7.982 7.982 0 0 1 7.976 7.977v24.887a9.734 9.734 0 0 0 9.737 9.737h4.632a16.132 16.132 0 0 1 16.13 16.13z" fill="#fc852d"/><path d="m49.2 77.817h48.487a16.127 16.127 0 0 0 -16.127-16.127h-4.633a9.737 9.737 0 0 1 -9.737-9.738v-24.881a7.978 7.978 0 0 0 -7.978-7.978h-20.9a7.978 7.978 0 0 0 -7.978 7.978v31.877a18.869 18.869 0 0 0 18.866 18.869z" fill="#fecd1a"/><g fill="#fd3a69"><path d="m59.212 19.093h-20.9a7.978 7.978 0 0 0 -7.978 7.978v10.654h17.708a7.452 7.452 0 0 0 4.187-1.288l14.886-10.111a7.951 7.951 0 0 0 -7.903-7.233z"/><path d="m66.576 66.005 5.573-5.574a9.728 9.728 0 0 1 -4.959-8.479v-1.835l-8.251 8.251a5.4 5.4 0 0 0 7.637 7.637z"/><path d="m42.142 101.217a7.873 7.873 0 1 1 -7.873-7.856 7.877 7.877 0 0 1 7.873 7.856z"/><path d="m61.966 101.217a7.872 7.872 0 1 1 -7.872-7.856 7.866 7.866 0 0 1 7.872 7.856z"/><path d="m81.79 101.217a7.864 7.864 0 1 1 -7.872-7.856 7.866 7.866 0 0 1 7.872 7.856z"/><path d="m101.614 101.217a7.864 7.864 0 1 1 -7.856-7.856 7.863 7.863 0 0 1 7.856 7.856z"/></g><path d="m101.578 100.416a7.868 7.868 0 0 0 -15.693.806h-4.093a7.867 7.867 0 0 0 -15.733 0h-4.093a7.872 7.872 0 0 0 -15.744 0h-4.082a7.872 7.872 0 0 0 -15.744 0 14.1 14.1 0 0 1 10.3-13.566 9.47 9.47 0 0 0 3.367.6h47.9a9.635 9.635 0 0 0 3.344-.594c.011-.011.011 0 .011 0a14.015 14.015 0 0 1 10.258 12.749z" fill="#9d0191"/><path d="m37.249 101.217a2.98 2.98 0 1 1 -2.98-2.979 2.98 2.98 0 0 1 2.98 2.979z" fill="#282d66"/><path d="m57.073 101.217a2.98 2.98 0 1 1 -2.979-2.979 2.98 2.98 0 0 1 2.979 2.979z" fill="#282d66"/><path d="m76.9 101.217a2.98 2.98 0 1 1 -2.979-2.979 2.98 2.98 0 0 1 2.979 2.979z" fill="#282d66"/><path d="m96.722 101.217a2.98 2.98 0 1 1 -2.98-2.979 2.98 2.98 0 0 1 2.98 2.979z" fill="#282d66"/></g><g fill="#282d66"><path d="m66.053 79.583a1.75 1.75 0 0 0 0-3.5h-.92a1.75 1.75 0 1 0 0 3.5z"/><path d="m103.315 100.4c0-.024 0-.046 0-.069a15.688 15.688 0 0 0 -8.088-12.911 11.516 11.516 0 0 0 4.208-8.868v-.716a17.9 17.9 0 0 0 -17.88-17.879h-4.632a8 8 0 0 1 -7.988-7.987v-11.841a1.75 1.75 0 1 0 -3.5 0v9.278l-7.74 7.74a7.15 7.15 0 0 0 10.112 10.112l4.69-4.691a11.429 11.429 0 0 0 4.426.889h4.632a14.394 14.394 0 0 1 14.262 12.626h-14.027a1.75 1.75 0 1 0 0 3.5h14.065a8 8 0 0 1 -5.046 6.417c-.048.015-.095.03-.141.049a7.932 7.932 0 0 1 -2.71.474h-47.9a7.74 7.74 0 0 1 -2.762-.5 7.994 7.994 0 0 1 -5.214-7.478v-8.101a20.614 20.614 0 0 0 17.118 9.139h3.647a1.75 1.75 0 1 0 0-3.5h-3.647a17.136 17.136 0 0 1 -17.117-17.1v-19.492h15.952a9.167 9.167 0 0 0 5.171-1.59l12.229-8.307v1.178a1.75 1.75 0 0 0 3.5 0v-3.689a9.738 9.738 0 0 0 -9.726-9.728h-20.9a9.738 9.738 0 0 0 -9.727 9.728v51.469a11.515 11.515 0 0 0 4.2 8.858 15.886 15.886 0 0 0 -8.137 13.828v.044a9.617 9.617 0 0 0 19.074 1.706h.916a9.614 9.614 0 0 0 18.908 0h.931a9.605 9.605 0 0 0 18.893 0h.933a9.61 9.61 0 0 0 19.06-1.755c-.003-.28-.021-.556-.045-.833zm-37.983-35.616a3.738 3.738 0 0 1 -5.162 0 3.65 3.65 0 0 1 0-5.162l5.478-5.478a11.478 11.478 0 0 0 3.8 6.527zm-27.027-43.929h20.9a6.231 6.231 0 0 1 6.016 4.651l-13.986 9.5a5.68 5.68 0 0 1 -3.2.985h-15.957v-8.908a6.234 6.234 0 0 1 6.227-6.228zm49.653 69.172a11.394 11.394 0 0 0 3.333-.5 12.341 12.341 0 0 1 4.119 2.259 9.562 9.562 0 0 0 -11.11 7.702h-.93a9.608 9.608 0 0 0 -18.895 0h-.929a9.617 9.617 0 0 0 -18.91 0h-.914a9.569 9.569 0 0 0 -11.153-7.7 12.227 12.227 0 0 1 4.12-2.276 11.278 11.278 0 0 0 3.369.516zm-53.695 17.328a6.114 6.114 0 1 1 6.122-6.125v.013a6.127 6.127 0 0 1 -6.122 6.112zm19.824 0a6.114 6.114 0 1 1 6.122-6.122 6.129 6.129 0 0 1 -6.122 6.122zm19.824 0a6.114 6.114 0 1 1 6.122-6.122 6.121 6.121 0 0 1 -6.122 6.122zm19.84 0a6.114 6.114 0 1 1 6.106-6.122 6.129 6.129 0 0 1 -6.106 6.122z"/></g></g></svg>