<svg id="Fill" viewBox="0 0 64 64" xmlns="http://www.w3.org/2000/svg"><g><path d="m43.994 55.33c0 1.28-1.01 2.31-2.25 2.31h-19.49c-1.24 0-2.25-1.03-2.25-2.31.78-5.83 2.51-14.03 1.36-19.83l-1.36-8.76c0-.9.5-1.69 1.24-2.07.3-.16.65-.25 1.01-.25h19.49c.36 0 .71.09 1.01.25.74.38 1.24 1.17 1.24 2.07-.85 5.62-2.44 13.08-1.41 18.72zm-7.5-9.55v-9.49c0-2.15-1.74-3.89-3.89-3.89h-1.21c-2.15 0-3.89 1.74-3.89 3.89v9.49c0 2.15 1.74 3.89 3.89 3.89h1.21c2.15 0 3.89-1.74 3.89-3.89z" fill="#eca7ca"/><path d="m40.744 13.85v5.4h-17.49v-5.4h1.21 15.07z" fill="#76afbd"/><path d="m39.534 13.85h-15.07c.39-9.99 14.69-9.98 15.07 0z" fill="#b7e0d7"/><rect fill="#bfe7f4" height="17.27" rx="3.89" width="8.99" x="27.504" y="32.4"/><path d="m42.754 19.25v5.42c-.3-.16-.65-.25-1.01-.25h-19.49c-.36 0-.71.09-1.01.25v-5.42z" fill="#76afbd"/></g><g><path d="m43.567 45.28c-.834-4.573.122-10.416.966-15.572.159-.977.314-1.921.449-2.819.008-.049.012-.1.012-.149 0-1.039-.469-1.987-1.24-2.601v-4.889c0-.552-.447-1-1-1h-1.01v-4.4c0-.552-.447-1-1-1h-.292c-.64-5.132-4.72-7.487-8.447-7.489h-.005c-3.726 0-7.809 2.353-8.453 7.489h-.293c-.553 0-1 .448-1 1v4.4h-1.01c-.553 0-1 .448-1 1v4.891c-.774.62-1.24 1.564-1.24 2.599 0 .051.004.103.012.153l1.368 8.801c.897 4.529-.03 10.595-.849 15.947-.19 1.249-.374 2.445-.522 3.556-.006.044-.009.088-.009.133 0 1.825 1.458 3.31 3.25 3.31h19.49c1.792 0 3.25-1.485 3.25-3.31 0-.047-.003-.095-.01-.142zm-11.567-37.919h.004c2.874.001 5.831 1.713 6.425 5.489h-12.858c.598-3.778 3.555-5.489 6.429-5.489zm-7.746 7.489h15.49v3.4h-15.49zm17.5 5.4v3.171s-.006-.001-.01-.001h-19.49s-.006.001-.01.001v-3.171zm-.01 36.39h-19.49c-.671 0-1.22-.557-1.249-1.252.146-1.078.322-2.236.508-3.444.843-5.515 1.799-11.766.84-16.597l-1.347-8.673c.022-.474.29-.906.695-1.114.005-.002.01-.005.014-.008.16-.085.352-.132.539-.132h19.49c.19 0 .377.046.553.14.405.208.673.641.695 1.116-.131.865-.279 1.772-.433 2.71-.87 5.315-1.856 11.341-.966 16.216l1.399 9.79c-.031.694-.579 1.249-1.249 1.249z"/><path d="m32.605 31.4h-1.21c-2.696 0-4.891 2.194-4.891 4.89v9.49c0 2.696 2.194 4.89 4.891 4.89h1.21c2.696 0 4.89-2.194 4.89-4.89v-9.49c0-2.696-2.193-4.89-4.89-4.89zm2.89 14.38c0 1.594-1.296 2.89-2.89 2.89h-1.21c-1.594 0-2.891-1.296-2.891-2.89v-9.49c0-1.594 1.297-2.89 2.891-2.89h1.21c1.594 0 2.89 1.296 2.89 2.89z"/></g></svg>