<svg id="Layer_1" enable-background="new 0 0 512 512" viewBox="0 0 512 512" xmlns="http://www.w3.org/2000/svg"><g><path d="m217.808 285.552c-43.23-11.583-62.292-75.894-43.397-146.413 18.895-70.518 67.561-116.683 110.79-105.1 43.228 11.583 62.291 75.896 43.395 146.414-18.894 70.518-67.559 116.683-110.788 105.099zm59.764-223.045c-11.262-3.018-25.425 3.118-38.858 16.832-15.771 16.102-28.498 40.048-35.835 67.429-7.336 27.38-8.288 54.481-2.68 76.311 4.777 18.594 13.975 30.988 25.236 34.007 11.261 3.018 25.424-3.118 38.858-16.832 15.772-16.102 28.498-40.047 35.834-67.428 7.337-27.38 8.289-54.482 2.681-76.31-4.776-18.597-13.974-30.992-25.236-34.009z" fill="#b25b27"/></g><g><path d="m231.435 295.343c-5.292 0-10.537-.683-15.696-2.065-23.696-6.348-41.665-26.434-50.593-56.556-8.521-28.748-7.975-64.138 1.538-99.651 9.518-35.513 26.739-66.436 48.493-87.072 22.793-21.622 48.397-30.033 72.095-23.686 27.234 7.291 46.87 32.882 53.873 70.212.814 4.343-2.046 8.523-6.389 9.338-4.342.814-8.522-2.045-9.338-6.388-5.821-31.038-21.234-52.072-42.285-57.707-18.124-4.854-38.342 2.192-56.945 19.838-19.642 18.633-35.286 46.904-44.049 79.604-8.76 32.701-9.347 65.006-1.652 90.963 7.287 24.584 21.277 40.795 39.395 45.648 18.12 4.856 38.342-2.188 56.943-19.835 19.641-18.634 35.285-46.906 44.049-79.608 3.681-13.731 5.936-27.47 6.7-40.837.253-4.41 4.027-7.804 8.444-7.529 4.411.252 7.782 4.033 7.53 8.444-.828 14.455-3.257 29.28-7.22 44.064-9.518 35.513-26.739 66.437-48.492 87.073-17.833 16.919-37.389 25.75-56.401 25.75zm-.203-29.516c-2.699 0-5.329-.335-7.868-1.015-14.131-3.788-25.398-18.274-30.914-39.744-5.944-23.141-4.985-51.684 2.701-80.372 7.687-28.687 21.127-53.886 37.847-70.956 15.513-15.837 32.514-22.747 46.644-18.961 14.131 3.786 25.399 18.272 30.914 39.745 5.945 23.139 4.986 51.682-2.701 80.371-7.686 28.687-21.127 53.886-37.847 70.956-12.725 12.991-26.454 19.976-38.776 19.976zm40.443-196.075c-7.827 0-17.692 5.432-27.246 15.185-14.825 15.136-26.836 37.83-33.822 63.901-6.985 26.072-7.93 51.731-2.659 72.25 3.978 15.485 11.29 26.053 19.559 28.27 8.268 2.212 19.884-3.282 31.072-14.703 14.825-15.135 26.836-37.829 33.821-63.9 6.986-26.074 7.932-51.732 2.66-72.249-3.979-15.487-11.29-26.055-19.559-28.271-1.207-.324-2.487-.483-3.826-.483z"/></g><g><g><g><path d="m166.252 477.961c-43.23-11.583-62.292-75.896-43.397-146.414 18.896-70.517 67.56-116.682 110.79-105.1 43.23 11.584 62.291 75.897 43.395 146.414-18.894 70.518-67.559 116.684-110.788 105.1zm59.765-223.044c-11.262-3.018-25.425 3.117-38.859 16.831-15.771 16.102-28.497 40.048-35.834 67.428-7.337 27.381-8.288 54.482-2.681 76.312 4.777 18.593 13.976 30.988 25.237 34.006 11.262 3.017 25.425-3.118 38.858-16.833 15.771-16.101 28.497-40.047 35.834-67.427s8.288-54.481 2.681-76.311c-4.776-18.595-13.975-30.989-25.236-34.006z" fill="#b25b27"/></g><g><path d="m179.795 487.739c-5.283 0-10.536-.69-15.614-2.051-23.698-6.35-41.666-26.436-50.595-56.561-8.521-28.749-7.974-64.14 1.541-99.651 17.798-66.419 60.965-112.807 104.976-112.807 5.282 0 10.535.689 15.612 2.05 23.698 6.351 41.666 26.438 50.595 56.562 8.521 28.749 7.974 64.14-1.542 99.65-17.797 66.42-60.963 112.808-104.973 112.808zm40.309-255.069c-36.198 0-73.848 42.454-89.521 100.947-8.762 32.7-9.35 65.005-1.656 90.964 7.287 24.585 21.278 40.798 39.395 45.652 3.728.999 7.588 1.506 11.473 1.506 36.197 0 73.845-42.455 89.519-100.948 8.762-32.7 9.351-65.005 1.656-90.964-7.286-24.584-21.277-40.797-39.395-45.652-3.727-.999-7.587-1.505-11.471-1.505zm-40.347 225.576c-.001 0-.001 0-.001 0-2.733 0-5.406-.345-7.946-1.025-14.131-3.786-25.399-18.272-30.916-39.743-5.944-23.143-4.985-51.687 2.702-80.373 7.688-28.688 21.128-53.887 37.846-70.955 12.626-12.889 26.368-19.986 38.696-19.986 2.733 0 5.408.345 7.949 1.026 14.13 3.786 25.398 18.271 30.915 39.743 5.944 23.144 4.984 51.687-2.702 80.372-7.688 28.688-21.128 53.887-37.847 70.954-12.625 12.888-26.367 19.987-38.696 19.987zm40.382-196.083c-7.876 0-17.814 5.533-27.266 15.183-14.823 15.134-26.835 37.827-33.821 63.899s-7.931 51.732-2.66 72.252c3.979 15.485 11.29 26.053 19.559 28.268 1.189.318 2.47.48 3.806.48 7.876.001 17.814-5.534 27.267-15.184 14.824-15.134 26.836-37.827 33.822-63.899 6.986-26.071 7.931-51.73 2.66-72.251-3.978-15.485-11.29-26.053-19.559-28.269-1.192-.317-2.473-.479-3.808-.479z"/></g></g></g><g><g><path d="m314.634 237.981-156.894-42.04c-7.281-1.95-14.892 2.841-16.998 10.702-2.106 7.862 2.088 15.816 9.37 17.768l156.894 42.038c7.281 1.951 14.891-2.84 16.998-10.699 2.106-7.863-2.088-15.818-9.37-17.769z" fill="#7f421c"/></g><g><path d="m310.305 274.884s0 0-.001 0c-1.81 0-3.616-.238-5.368-.708l-156.894-42.038c-11.531-3.09-18.271-15.456-15.027-27.565 2.692-10.048 11.503-17.067 21.428-17.067 1.809 0 3.615.238 5.367.707l156.895 42.041c5.698 1.526 10.391 5.313 13.212 10.663 2.713 5.144 3.357 11.147 1.815 16.902-2.695 10.048-11.505 17.065-21.427 17.065zm-155.863-71.378c-2.653 0-5.165 2.19-5.973 5.207-.961 3.588.705 7.164 3.714 7.97l156.893 42.037c2.998.807 6.266-1.558 7.201-5.044.495-1.848.312-3.73-.515-5.297-.415-.789-1.385-2.185-3.198-2.671l-156.896-42.04c-.401-.107-.814-.162-1.226-.162z"/></g></g><g><g><path d="m386.515 226.729-64.253-17.217-92.641-24.822-64.253-17.217c-7.281-1.951-14.892 2.841-16.998 10.702-2.107 7.862 2.089 15.816 9.37 17.767l64.254 17.216 92.64 24.824 64.253 17.216c7.281 1.951 14.892-2.84 16.998-10.702 2.105-7.862-2.089-15.816-9.37-17.767z" fill="#7f421c"/></g><g><path d="m382.185 263.633c-1.81 0-3.616-.238-5.369-.708l-221.147-59.256c-5.698-1.526-10.39-5.313-13.211-10.662-2.713-5.145-3.358-11.147-1.815-16.903 2.692-10.048 11.503-17.066 21.427-17.066 1.81 0 3.615.238 5.368.708l221.147 59.256c11.529 3.09 18.271 15.455 15.027 27.564-2.692 10.048-11.504 17.067-21.427 17.067zm-220.115-88.595c-2.652 0-5.164 2.19-5.973 5.208-.496 1.849-.314 3.73.513 5.297.416.789 1.385 2.185 3.199 2.671l221.147 59.256c3 .802 6.267-1.558 7.2-5.044.961-3.587-.705-7.163-3.713-7.969l-221.146-59.257c-.402-.108-.816-.162-1.227-.162z"/></g></g><g><g><g><path d="m299.378 294.918-156.895-42.039c-7.281-1.952-11.477-9.906-9.37-17.768 2.106-7.861 9.717-12.653 16.999-10.701l156.894 42.038c7.281 1.951 11.475 9.906 9.37 17.768-2.107 7.861-9.718 12.653-16.998 10.702z" fill="#7f421c"/></g><g><path d="m302.676 303.353c-1.81 0-3.616-.238-5.369-.708l-156.893-42.039c-11.531-3.091-18.272-15.456-15.027-27.565 2.692-10.048 11.503-17.066 21.427-17.066 1.81 0 3.617.238 5.371.708l156.893 42.037c11.529 3.09 18.27 15.455 15.027 27.564-2.696 10.052-11.506 17.069-21.429 17.069zm-155.864-71.378c-2.652 0-5.164 2.19-5.972 5.207-.961 3.588.705 7.164 3.714 7.97l156.893 42.038c3.009.81 6.267-1.56 7.2-5.046.961-3.587-.705-7.163-3.713-7.969l-156.894-42.038c-.402-.107-.815-.162-1.228-.162z"/></g></g></g><g><g><g><path d="m291.748 323.387-156.892-42.04c-7.282-1.95-11.477-9.906-9.371-17.768 2.107-7.859 9.717-12.651 16.999-10.7l156.895 42.039c7.28 1.951 11.476 9.906 9.368 17.767-2.106 7.861-9.717 12.653-16.999 10.702z" fill="#7f421c"/></g><g><path d="m295.047 331.822c-1.81 0-3.616-.238-5.369-.708l-156.893-42.04c-5.698-1.526-10.39-5.313-13.212-10.663-2.713-5.145-3.358-11.147-1.816-16.902 2.694-10.048 11.505-17.065 21.427-17.065 1.81 0 3.617.238 5.37.708l156.893 42.038c5.698 1.527 10.39 5.315 13.211 10.663 2.713 5.146 3.357 11.148 1.814 16.902-2.69 10.049-11.501 17.067-21.425 17.067zm-155.862-71.378c-2.652 0-5.164 2.189-5.973 5.206-.495 1.849-.312 3.73.514 5.298.416.789 1.385 2.185 3.199 2.671l156.894 42.04c2.996.806 6.266-1.559 7.2-5.044.496-1.851.313-3.731-.513-5.299-.416-.789-1.385-2.185-3.199-2.671l-156.893-42.039c-.405-.107-.817-.162-1.229-.162z"/></g></g></g></svg>