<svg clip-rule="evenodd" fill-rule="evenodd" height="512" image-rendering="optimizeQuality" shape-rendering="geometricPrecision" text-rendering="geometricPrecision" viewBox="0 0 512 512" width="512" xmlns="http://www.w3.org/2000/svg" xmlns:xodm="http://www.corel.com/coreldraw/odm/2003"><g id="Layer_x0020_1"><g id="_3035143626320"><path d="m275.82 449.51h-39.64c-2.76 0-5-2.24-5-5v-187.95c0-2.76 2.24-5 5-5h39.64c2.76 0 5 2.24 5 5v187.95c0 2.76-2.24 5-5 5z" fill="#a76e4c"/><path d="m256 261.63c-67.52 0-131.07-8.07-178.93-22.74-49.68-15.22-77.05-36.23-77.05-59.16v-35.33h.01c0 22.92 27.36 43.93 77.04 59.16 47.86 14.66 111.41 22.74 178.93 22.74s131.07-8.08 178.93-22.74c49.64-15.21 76.99-36.2 77.04-59.1v35.27c0 22.93-27.36 43.94-77.04 59.16-47.87 14.67-111.41 22.74-178.93 22.74z" fill="#d79f7c"/><path d="m256 226.3c-67.52 0-131.07-8.08-178.93-22.74-49.68-15.23-77.04-36.24-77.04-59.16 0-22.93 27.36-43.94 77.04-59.16 99.02-30.34 258.84-30.34 357.86 0 49.68 15.22 77.04 36.23 77.04 59.16 0 22.92-27.36 43.93-77.04 59.16-47.86 14.66-111.41 22.74-178.93 22.74z" fill="#cd885d"/><path d="m336.81 449.5h-161.62c-6.58 0-6.58-9.99 0-9.99l161.62-.01c6.58 0 6.58 10 0 10z" fill="#87593d"/></g></g></svg>