<svg id="Layer_1" viewBox="0 0 1000 1000" xmlns="http://www.w3.org/2000/svg" data-name="Layer 1"><path d="m633.12 634.59a548 548 0 0 1 -133.12 242.41 547.75 547.75 0 0 1 -149.09-405.35l27.25 15.73q-.16 6.29-.16 12.62a526.37 526.37 0 0 0 6.17 80.47s0 0 0 .07.05.33.08.49a510.09 510.09 0 0 0 10.48 50.51.64.64 0 0 1 0 .07c.06.25.12.5.19.75l.18.66a.09.09 0 0 0 0 .05 520 520 0 0 0 92.23 186.73 16 16 0 0 0 25.26 0 519.27 519.27 0 0 0 71.08-123.26 520.69 520.69 0 0 0 21.34-64.18.09.09 0 0 1 0 0c1.06-4 2.07-8.12 3-12.2z" fill="#ffc400"/><path d="m568.37 355.68h-136.75c4.19-13.6 9-27.05 14.31-40.19a487.14 487.14 0 0 1 54.07-98.67 486.81 486.81 0 0 1 54 98.66c5.4 13.17 10.19 26.62 14.37 40.2z" fill="#ff3d00"/><path d="m568.38 644.34c-4.18 13.57-9 27-14.31 40.19a488.31 488.31 0 0 1 -54.07 98.66 486.89 486.89 0 0 1 -54.07-98.66c-5.35-13.17-10.14-26.62-14.31-40.19z" fill="#ff3d00"/><path d="m579.06 603.38q-1 4.49-2 9h-154.06q-2.11-9-3.87-18h144.28z" fill="#ff3d00"/><path d="m508 562.34h-94a490.78 490.78 0 0 1 -3.9-56.55z" fill="#ff3d00"/><path d="m590 494.22-98-56.54h94a495.31 495.31 0 0 1 4 56.54z" fill="#ff3d00"/><path d="m580.93 405.67h-144.32l-15.68-9.05c.63-3 1.31-6 2-8.95h154.13c1.4 5.97 2.69 11.98 3.87 18z" fill="#ff3d00"/><path d="m649.08 528.35-27.24-15.73c.1-4.15.15-8.37.16-12.61a526 526 0 0 0 -6.17-80.39l-.06-.39c0-.17 0-.33-.08-.5a2.5 2.5 0 0 1 -.05-.29 512.09 512.09 0 0 0 -10.58-50.76.09.09 0 0 1 0-.05 524.84 524.84 0 0 0 -21.35-64.19 518.31 518.31 0 0 0 -71.07-123.26 16 16 0 0 0 -25.26 0 518.68 518.68 0 0 0 -71.09 123.27 524.11 524.11 0 0 0 -21.14 63.47v.12c-.06.19-.11.39-.16.58s0 .17-.07.26-.05.19-.07.28a2.46 2.46 0 0 1 -.07.29q-1.49 5.67-2.84 11.42l-25-14.46a548.42 548.42 0 0 1 133.06-242.41 547.75 547.75 0 0 1 149.08 405.35z" fill="#ffc400"/><path d="m852 658.34-38.87 67.33a5.25 5.25 0 0 1 -1.12-.5l-118.01-68.11-19-28.26 24-41.62 33.9 2.3 118 68.14a5.29 5.29 0 0 1 1.1.72z" fill="#6d4c41"/><path d="m668.35 576.42-18 31.17-45-26-.6-.35-28.75-16.59-.68-.38-172.66-99.68-.46-.27-57.33-33.1-.13-.08-13.09-7.55 18-31.17 45.05 26 29.3 16.91.74.42 172.43 99.56c.25.15.5.3.76.43l57.32 33.09z" fill="#616161"/><path d="m325 371.19-24 41.6-34-2.29-118-68.11a5.78 5.78 0 0 1 -1-.72l38.87-67.33a5.25 5.25 0 0 1 1.12.5l118.01 68.16z" fill="#6d4c41"/><g fill="#fff" opacity=".5"><path d="m623.12 644.59a548 548 0 0 1 -133.12 242.41 547.75 547.75 0 0 1 -149.09-405.35l27.25 15.73q-.16 6.29-.16 12.62a526.37 526.37 0 0 0 6.17 80.47s0 0 0 .07.05.33.08.49a510.09 510.09 0 0 0 10.48 50.51.64.64 0 0 1 0 .07c.06.25.12.5.19.75l.18.66a.09.09 0 0 0 0 .05 520 520 0 0 0 92.23 186.73 16 16 0 0 0 25.26 0 519.27 519.27 0 0 0 71.08-123.26 520.69 520.69 0 0 0 21.34-64.18.09.09 0 0 1 0 0c1.06-4 2.07-8.12 3-12.2z"/><path d="m558.37 365.68h-136.75c4.19-13.6 9-27.05 14.31-40.19a487.14 487.14 0 0 1 54.07-98.67 486.81 486.81 0 0 1 54 98.66c5.4 13.17 10.19 26.62 14.37 40.2z"/><path d="m558.38 654.34c-4.18 13.57-9 27-14.31 40.19a488.31 488.31 0 0 1 -54.07 98.66 486.89 486.89 0 0 1 -54.07-98.66c-5.35-13.17-10.14-26.62-14.31-40.19z"/><path d="m569.06 613.38q-1 4.49-2 9h-154.06q-2.11-9-3.87-18h144.28z"/><path d="m498 572.34h-94a490.78 490.78 0 0 1 -3.9-56.55z"/><path d="m580 504.22-98-56.54h94a495.31 495.31 0 0 1 4 56.54z"/><path d="m570.93 415.67h-144.32l-15.68-9.05c.63-3 1.31-6 2-8.95h154.13c1.4 5.97 2.69 11.98 3.87 18z"/><path d="m639.08 538.35-27.24-15.73c.1-4.15.15-8.37.16-12.61a526 526 0 0 0 -6.17-80.39l-.06-.39c0-.17 0-.33-.08-.5a2.5 2.5 0 0 1 -.05-.29 512.09 512.09 0 0 0 -10.58-50.76.09.09 0 0 1 0-.05 524.84 524.84 0 0 0 -21.35-64.19 518.31 518.31 0 0 0 -71.07-123.26 16 16 0 0 0 -25.26 0 518.68 518.68 0 0 0 -71.09 123.27 524.11 524.11 0 0 0 -21.14 63.47v.12c-.06.19-.11.39-.16.58s0 .17-.07.26-.05.19-.07.28a2.46 2.46 0 0 1 -.07.29q-1.49 5.67-2.84 11.42l-25-14.46a548.42 548.42 0 0 1 133.06-242.41 547.75 547.75 0 0 1 149.08 405.35z"/><path d="m842 668.34-38.87 67.33a5.25 5.25 0 0 1 -1.12-.5l-118.01-68.11-19-28.26 24-41.62 33.9 2.3 118 68.14a5.29 5.29 0 0 1 1.1.72z"/><path d="m658.35 586.42-18 31.17-45-26-.6-.35-28.75-16.59-.68-.38-172.66-99.68-.46-.27-57.33-33.1-.13-.08-13.09-7.55 18-31.17 45.05 26 29.3 16.91.74.42 172.43 99.56c.25.15.5.3.76.43l57.32 33.09z"/><path d="m315 381.19-24 41.6-34-2.29-118-68.11a5.78 5.78 0 0 1 -1-.72l38.87-67.33a5.25 5.25 0 0 1 1.12.5l118.01 68.16z"/></g><g fill="#413b32"><path d="m667.08 630.29q-1.51 6.62-3.19 13.17-2.35 9.35-5 18.59a580.67 580.67 0 0 1 -147.58 249.26 16 16 0 0 1 -22.62 0 579.92 579.92 0 0 1 -168.69-457.5c.27-3.43.58-6.86.91-10.29a15.85 15.85 0 0 1 .67-3.26.06.06 0 0 1 0 0 15.76 15.76 0 0 1 3.45-6q.48-.52 1-1a16.05 16.05 0 0 1 18.66-2.1l.13.08a16 16 0 0 1 7.9 15.4q-1.22 12.53-1.86 25a547.75 547.75 0 0 0 149.14 405.36 548 548 0 0 0 133.12-242.41c1-3.8 1.88-7.61 2.76-11.44a16 16 0 0 1 23.55-10.32l.2.11a16.33 16.33 0 0 1 2.07 1.46 16 16 0 0 1 5.38 15.89z"/><path d="m680 546.19c-.27 3.43-.58 6.87-.91 10.3a15.94 15.94 0 0 1 -.67 3.27 15.75 15.75 0 0 1 -3.45 6 14.15 14.15 0 0 1 -1 1 16 16 0 0 1 -10.75 4.16 13.88 13.88 0 0 1 -1.57-.08 15.79 15.79 0 0 1 -6.39-2l-.63-.37a16 16 0 0 1 -7.36-15.07q1.21-12.54 1.86-25a547.75 547.75 0 0 0 -149.13-405.4 548.42 548.42 0 0 0 -133.14 242.41c-1 3.8-1.88 7.61-2.76 11.44a16 16 0 0 1 -23.1 10.58l-.27-.15-.47-.26h-.05a15.57 15.57 0 0 1 -2-1.43 16 16 0 0 1 -5.28-15.82q1.52-6.6 3.18-13.15 2.37-9.37 5.06-18.63a581.17 581.17 0 0 1 147.5-249.3 16 16 0 0 1 22.63 0c121.08 121.07 182.23 287.31 168.7 457.5z"/><path d="m612.76 598.29c-1.39 7.27-3 14.58-4.66 21.85-1 4.08-2 8.16-3 12.2a.09.09 0 0 0 0 0 520.69 520.69 0 0 1 -21.34 64.18 519.27 519.27 0 0 1 -71.08 123.26 16 16 0 0 1 -25.26 0 520 520 0 0 1 -92.28-186.68.09.09 0 0 1 0-.05l-.18-.66c-.07-.25-.13-.5-.19-.75a.64.64 0 0 0 0-.07 510.09 510.09 0 0 1 -10.48-50.51c0-.16-.05-.32-.08-.49 0 0 0 0 0-.07a526.37 526.37 0 0 1 -6.21-80.5q0-6.33.16-12.62.1-4.9.31-9.74a16 16 0 0 1 16.68-15.3 15.79 15.79 0 0 1 7.05 2l.46.27a16 16 0 0 1 7.78 14.39c-.29 6.87-.44 13.93-.44 21v5.78a490.78 490.78 0 0 0 3.9 56.55q2 16.11 5.14 32 1.76 9 3.87 18c.93 4 1.92 8 3 11.94q2.63 10.05 5.71 20.06c4.17 13.57 9 27 14.31 40.19a486.89 486.89 0 0 0 54.07 98.67 488.31 488.31 0 0 0 54.07-98.66c5.35-13.17 10.13-26.62 14.31-40.19q3.07-10 5.71-20.05 1.54-5.94 3-11.95 1.05-4.47 2-9 1.2-5.55 2.26-11.09a16 16 0 0 1 23.39-11l.6.35a16 16 0 0 1 7.42 16.69z"/><path d="m615.64 418.44a16 16 0 0 0 -15.64-12.77h-19c-1.18-6-2.47-12-3.87-18h12.5a16 16 0 0 0 15.5-20 512.09 512.09 0 0 1 10.51 50.77z"/><path d="m605.56 371.68a16 16 0 0 1 -16 16h-12.5q-1.41-6-3-11.94-2.64-10-5.72-20.06c-4.18-13.58-9-27-14.32-40.2a486.81 486.81 0 0 0 -54-98.66 487.14 487.14 0 0 0 -54.07 98.67c-5.33 13.14-10.12 26.59-14.31 40.19q-3 9.85-5.64 19.78c0 .1-.05.19-.08.28-1 3.95-2 7.94-3 11.94-.69 3-1.37 6-2 8.95q-1.2 5.53-2.25 11.08a16 16 0 0 1 -18.67 12.73 15.84 15.84 0 0 1 -4.67-1.67l-.6-.34a16 16 0 0 1 -7.46-16.7c1.39-7.29 2.95-14.61 4.66-21.86q1.37-5.75 2.84-11.42a2.46 2.46 0 0 0 .07-.29c0-.09.05-.19.07-.28s.05-.18.07-.26.1-.39.16-.58v-.12a524.11 524.11 0 0 1 21.14-63.47 518.68 518.68 0 0 1 71.09-123.27 16 16 0 0 1 25.26 0 518.31 518.31 0 0 1 71.07 123.26 524.84 524.84 0 0 1 21.35 64.19.09.09 0 0 0 0 .05 16 16 0 0 1 .51 4z"/><path d="m622 500c0 4.24-.06 8.46-.16 12.61-.08 3.29-.19 6.55-.33 9.75a16 16 0 0 1 -16 15.31h-.7a15.79 15.79 0 0 1 -7-1.93c-.26-.13-.51-.28-.76-.43a16 16 0 0 1 -7.51-14.31c.3-6.79.45-13.86.46-21 0-1.92 0-3.85 0-5.77a495.31 495.31 0 0 0 -3.91-56.55q-.85-6.8-1.91-13.53c-.95-6.16-2-12.33-3.22-18.47h19a16 16 0 0 1 15.68 12.77 2.5 2.5 0 0 0 .05.29c0 .17 0 .33.08.5l.06.39a526 526 0 0 1 6.17 80.37z"/><path d="m616 421.67a16 16 0 0 1 -16 16h-167.67a16 16 0 0 1 -7.63-1.93l-.74-.42a16 16 0 0 1 8.37-29.65h167.67a16 16 0 0 1 15.68 12.77 2.5 2.5 0 0 0 .05.29c0 .17 0 .33.08.5l.06.39a15.46 15.46 0 0 1 .13 2.05z"/><path d="m605.56 371.68a16 16 0 0 1 -16 16h-179.14a16 16 0 0 1 -16-16 16.46 16.46 0 0 1 .32-3.23 2.46 2.46 0 0 0 .07-.29c0-.09.05-.19.07-.28s.05-.18.07-.26.1-.39.16-.58v-.12a16 16 0 0 1 15.28-11.24h179.17a16 16 0 0 1 15.49 11.95.09.09 0 0 0 0 .05 16 16 0 0 1 .51 4z"/><path d="m605.56 628.34a16 16 0 0 1 -.5 4 .09.09 0 0 0 0 0 16 16 0 0 1 -15.49 12h-179.15a16 16 0 0 1 -15.28-11.24.09.09 0 0 1 0-.05l-.18-.66c-.07-.25-.13-.5-.19-.75a.64.64 0 0 0 0-.07 16.46 16.46 0 0 1 -.32-3.23 16 16 0 0 1 16-16h179.11a16 16 0 0 1 16 16z"/><path d="m583.68 578.34a16 16 0 0 1 -16 16h-167.68a16 16 0 0 1 -15.77-13.28c0-.16-.05-.32-.08-.49 0 0 0 0 0-.07a16.72 16.72 0 0 1 -.14-2.14 16 16 0 0 1 16-16h167.67a16 16 0 0 1 7.63 1.93l.68.38a16 16 0 0 1 7.69 13.67z"/><path d="m670.14 637.3v.09c-.19.33-.39.65-.59 1s-.31.45-.47.66-.11.15-.17.23-.09.12-.14.17l-.14.16v.06c-.16.2-.33.39-.5.58l-.55.57a13.7 13.7 0 0 1 -1.59 1.37c-.27.2-.55.39-.83.58s-.56.35-.84.51 0 0-.08 0l-.18.11c-.23.13-.47.25-.71.36s-.62.29-.94.42a15.87 15.87 0 0 1 -14-1l-3.2-1.85-11.89-6.86-25-14.45-29-16.76-15.65-9-55.43-32-98.24-56.46-31.88-18.4-27.25-15.73-30.87-17.85-15-8.67-3.18-1.84a15.48 15.48 0 0 1 -3.41-2.65c-.25-.25-.48-.51-.72-.77a15 15 0 0 1 -1.25-1.66 16.13 16.13 0 0 1 -2.6-9.59c0-.24 0-.49.06-.73s.05-.49.09-.74a14.29 14.29 0 0 1 .3-1.56c0-.13.06-.26.1-.39.09-.34.19-.67.31-1a8.71 8.71 0 0 1 .32-.85c.13-.33.28-.65.44-1s.33-.65.51-1a16 16 0 0 1 21.85-5.84l.48.28h.06l13.3 7.68 13.09 7.55.13.08 57.33 33.1.46.27 172.65 99.68.68.38 28.72 16.59.6.35 45 26 9.08 5.24.2.11 4 2.31.47.26.12.08.94.58.88.64c.21.17.42.33.62.51.41.35.79.72 1.16 1.1.18.19.36.38.53.58s.45.54.66.82.34.46.5.7l.24.37a16 16 0 0 1 .42 16.52z"/><path d="m706.19 571.38v.44a5.14 5.14 0 0 1 -.06.55c0 .15 0 .29-.05.44s-.09.55-.14.82c-.1.51-.22 1-.37 1.51 0 .17-.1.34-.16.5a11 11 0 0 1 -.47 1.2 7.35 7.35 0 0 1 -.34.76c-.16.32-.32.64-.5.95a16 16 0 0 1 -13.87 8h-.31a15.49 15.49 0 0 1 -5-.92l-.75-.29-.71-.31-.85-.43a2.58 2.58 0 0 1 -.37-.19l-13.85-8-13.14-7.59-.63-.37-56.69-32.72c-.26-.13-.51-.28-.76-.43l-172.47-99.55-.74-.42-28.66-16.56-.6-.34-45.05-26-8.63-5-.27-.15-.47-.26h-.05l-4.38-2.53-.26-.17-.07-.05-.11-.07-.11-.08-.3-.19-.3-.2-.54-.4-.52-.42c-.07-.06-.15-.11-.22-.18l-.24-.21-.16-.15-.08-.07-.27-.26-.33-.34c-.15-.15-.29-.31-.43-.47s-.31-.35-.45-.53-.29-.36-.43-.55-.3-.4-.44-.61l-.28-.42a16 16 0 0 1 -.34-16.39l.06-.1a16.49 16.49 0 0 1 1.22-1.82 12.51 12.51 0 0 1 1.08-1.23 2.65 2.65 0 0 1 .33-.35c.25-.25.51-.49.77-.72s.55-.46.83-.67.55-.4.83-.58a1.65 1.65 0 0 1 .25-.15 5.58 5.58 0 0 1 .52-.32l.3-.16a16 16 0 0 1 15.71.16l.66.38 2.59 1.5 11.8 6.81 25 14.46 29 16.76 15.68 9.05 55.42 32 97.98 56.47 31.87 18.4 27.24 15.73 30.89 17.84 15 8.64 2.68 1.55.55.32a16.09 16.09 0 0 1 3.32 2.53c.32.33.63.66.92 1s.34.42.51.63c.33.43.63.88.91 1.33.14.22.27.46.4.7s.31.59.45.9a.31.31 0 0 1 0 .1q.21.47.39.93c.09.22.17.45.24.67a16 16 0 0 1 .82 5.89z"/><path d="m881.05 672-41.57 72a28.11 28.11 0 0 1 -20.76 13.55 34.28 34.28 0 0 1 -4.54.31 36.55 36.55 0 0 1 -18.18-5l-121.2-70h-.06c-.19-.11-.38-.22-.56-.34s-.29-.18-.44-.29-.55-.38-.81-.59a15.49 15.49 0 0 1 -1.48-1.32 16.26 16.26 0 0 1 -1.33-1.52q-.32-.4-.6-.84l-.16-.23a16 16 0 0 1 21.44-22.53l3.22 1.86 118 68.11a5.25 5.25 0 0 0 1.12.5l38.86-67.33a5.29 5.29 0 0 0 -1-.72l-118-68.14-3.22-1.86a16 16 0 0 1 8.85-29.84h.23c.21 0 .43 0 .64.06h.18l.44.07a5.43 5.43 0 0 1 .56.09c.42.08.84.17 1.25.28s.62.18.92.28c.3.1.6.21.89.33l.12.05a15 15 0 0 1 1.89.93l.31.18 120.94 69.86c15.86 9.16 22.17 28.09 14.05 42.09z"/><path d="m706.19 571.38v.44a5.14 5.14 0 0 1 -.06.55c0 .15 0 .29-.05.44s-.09.55-.14.82a12.94 12.94 0 0 1 -.53 2 11 11 0 0 1 -.47 1.2 7.35 7.35 0 0 1 -.34.76c-.16.32-.32.64-.5.95l-5 8.62-24 41.62-4.92 8.5v.09c-.19.33-.39.65-.59 1a16.4 16.4 0 0 1 -2.05 2.47 17.16 17.16 0 0 1 -1.59 1.37c-.27.2-.55.39-.83.58s-.56.35-.84.51 0 0-.08 0l-.18.1c-.23.13-.47.25-.71.37s-.62.29-.94.42a16.24 16.24 0 0 1 -6 1.18 16 16 0 0 1 -13.25-7c-.11-.17-.23-.34-.33-.52a16.1 16.1 0 0 1 -1.24-2.45c-.11-.26-.21-.53-.3-.8v-.13c-.09-.28-.18-.55-.25-.84l-.06-.23c-.07-.25-.12-.5-.17-.75s-.13-.64-.17-1l-.06-.49c0-.39-.07-.77-.08-1.15a12.34 12.34 0 0 1 0-1.36 13.52 13.52 0 0 1 .24-2.09c.06-.32.12-.63.2-1s.16-.62.26-.92.18-.56.28-.84a1.34 1.34 0 0 1 .07-.18c.06-.17.13-.35.21-.52a6.28 6.28 0 0 1 .27-.59 11 11 0 0 1 .74-1.4l5.64-10.11 2-3.43 18-31.17 5.57-9.64 2.21-3.83.23-.39c.18-.31.37-.61.56-.91l.06-.08c.18-.26.36-.52.56-.77a.76.76 0 0 1 .08-.11q.28-.37.6-.72l.18-.2a6.51 6.51 0 0 1 .51-.54l.4-.38a11 11 0 0 1 .91-.78c.31-.25.63-.49.95-.71.15-.11.31-.21.47-.31l.69-.42c.3-.17.61-.33.92-.48s.62-.29.94-.42.64-.25 1-.36.65-.2 1-.29a17.52 17.52 0 0 1 1.75-.36l.38-.05.79-.08h1.21.68.34.17a15.56 15.56 0 0 1 6.16 1.79c.19.09.37.19.56.3a16 16 0 0 1 8 14.69z"/><path d="m691.72 682.34a16 16 0 0 1 -16.92.57h-.06c-.19-.11-.38-.22-.56-.34s-.29-.18-.44-.29-.55-.38-.81-.59a15.2 15.2 0 0 1 -1.48-1.32 16.26 16.26 0 0 1 -1.33-1.52q-.32-.4-.6-.84l-.16-.23-10.52-15.68-13.84-20.65-2-3.07c-.11-.17-.23-.34-.33-.52a16.1 16.1 0 0 1 -1.24-2.45c-.11-.26-.21-.53-.3-.8v-.13c-.09-.28-.18-.55-.25-.84l-.06-.23c-.07-.25-.12-.5-.17-.75s-.13-.64-.17-1l-.06-.49c0-.39-.07-.77-.08-1.15a15.3 15.3 0 0 1 .25-3.45c.06-.32.12-.63.2-1s.16-.62.26-.92.18-.56.28-.84a1.34 1.34 0 0 1 .07-.18c.06-.17.13-.35.21-.52a6.28 6.28 0 0 1 .27-.59 11 11 0 0 1 .74-1.4 16 16 0 0 1 19.19-6.77 15.38 15.38 0 0 1 1.91.84l.47.26a.42.42 0 0 1 .12.08l.94.58.88.64c.21.17.42.33.62.51a10.94 10.94 0 0 1 1.16 1.1c.18.19.36.38.53.58s.45.54.66.82.34.46.5.7l.24.37 5.32 7.91 19 28.26 2.07 3.08a16 16 0 0 1 -4.51 22.26z"/><path d="m753.72 574.85a16 16 0 0 1 -15.94 14.92c-.37 0-.73 0-1.1 0l-3.7-.25-33.9-2.3-9.2-.62h-.75a16 16 0 0 1 -14.88-17 16.22 16.22 0 0 1 .7-3.72 15.46 15.46 0 0 1 1.18-2.81l.23-.39c.18-.31.37-.61.56-.91l.06-.08c.18-.26.36-.52.56-.77a.76.76 0 0 1 .08-.11q.28-.37.6-.72l.18-.2a6.51 6.51 0 0 1 .51-.54l.4-.38a11 11 0 0 1 .91-.78c.31-.25.63-.49.95-.71.15-.11.31-.21.47-.31l.69-.42c.3-.17.61-.33.92-.48s.62-.29.94-.42.64-.25 1-.36.65-.2 1-.29a12.62 12.62 0 0 1 1.75-.36l.38-.05.79-.08h1.21.68.34.17l3.48.24 43.67 2.95h.23c.21 0 .43 0 .64.06h.18l.44.07a5.43 5.43 0 0 1 .56.09c.42.08.84.17 1.25.28s.62.18.92.28c.3.1.6.21.89.33l.12.05a13.79 13.79 0 0 1 1.89.93l.31.18a16 16 0 0 1 7.63 14.68z"/><path d="m331.1 339a16 16 0 0 1 -21.86 5.86l-3.24-1.86-118-68.16a5.25 5.25 0 0 0 -1.12-.5l-38.88 67.33a5.78 5.78 0 0 0 1 .72l118 68.11 3.22 1.86a16 16 0 0 1 -8 29.86h-.85-.22c-.4 0-.8-.07-1.19-.13a5.5 5.5 0 0 1 -.69-.11h-.2a8.52 8.52 0 0 1 -.84-.2h-.15c-.31-.08-.62-.18-.92-.28s-.66-.23-1-.37a15 15 0 0 1 -1.93-.95l-.36-.21-120.87-69.87c-15.86-9.16-22.17-28-14-42.09l41.57-72c8.11-14.05 27.62-18 43.48-8.87l121.24 70 .17.1.23.14c.23.14.45.28.67.44s.53.37.79.58a15.2 15.2 0 0 1 1.48 1.32c.21.21.42.43.62.66l.08.08.63.78q.31.4.6.84l.2.29a16 16 0 0 1 .34 16.63z"/><path d="m358.76 376.19c-.11.3-.23.6-.36.89s-.29.61-.44.91-.19.37-.3.56l-6 10.42-2 3.45-18 31.17-5.57 9.65-2.41 4.18a.86.86 0 0 1 -.1.16 15.17 15.17 0 0 1 -1.35 1.93 8.67 8.67 0 0 1 -.62.74 15 15 0 0 1 -2.6 2.26l-.62.41c-.2.13-.41.26-.63.38l-.47.26-.55.28a15.16 15.16 0 0 1 -2 .8c-.24.08-.5.16-.74.22s-.66.17-1 .24-.58.11-.87.15l-.4.05c-.24 0-.48.06-.72.07h-.32q-.44 0-.87 0c-.36 0-.72 0-1.09 0h-.21a16.12 16.12 0 0 1 -6.7-2.09 15.74 15.74 0 0 1 -3.42-2.64c-.25-.25-.48-.51-.72-.77a18 18 0 0 1 -1.25-1.66 16.13 16.13 0 0 1 -2.6-9.59c0-.24 0-.49.06-.73s.05-.49.09-.74a14.29 14.29 0 0 1 .3-1.56c0-.13.06-.26.1-.39.09-.34.19-.67.31-1a8.71 8.71 0 0 1 .32-.85c.13-.33.28-.65.44-1s.33-.65.51-1l5-8.64 24-41.6 4.93-8.54.06-.1a16.49 16.49 0 0 1 1.22-1.82 12.51 12.51 0 0 1 1.08-1.23 2.65 2.65 0 0 1 .33-.35c.25-.25.51-.49.77-.72s.55-.46.83-.67.55-.4.83-.58a1.65 1.65 0 0 1 .25-.15 5.58 5.58 0 0 1 .52-.32l.31-.18a16 16 0 0 1 15.71.16c.22.13.44.26.65.4a15.63 15.63 0 0 1 4.54 4.4l.09.13a5.69 5.69 0 0 1 .33.52 8 8 0 0 1 .6 1.06 15.83 15.83 0 0 1 1.11 2.75c.06.19.11.38.16.57a14 14 0 0 1 .35 1.71 15.68 15.68 0 0 1 -.87 8.04z"/><path d="m325.76 430.5a16.12 16.12 0 0 1 -.71 3.77 15.74 15.74 0 0 1 -1.49 3.32 15.17 15.17 0 0 1 -1.35 1.93c-.19.24-.4.47-.61.7a15.87 15.87 0 0 1 -2.61 2.3l-.62.41c-.2.13-.41.26-.63.38l-.47.26-.55.28a15.16 15.16 0 0 1 -2 .8c-.24.08-.5.16-.74.22s-.66.17-1 .24-.58.11-.87.15l-.4.05c-.24 0-.48.06-.72.07h-.32q-.44 0-.87 0c-.36 0-.72 0-1.09 0h-.21l-3.53-.24-43.65-2.94h-.22c-.4 0-.8-.07-1.19-.13a5.5 5.5 0 0 1 -.69-.11h-.2a8.52 8.52 0 0 1 -.84-.2h-.15c-.31-.08-.62-.18-.92-.28s-.66-.23-1-.37a13.82 13.82 0 0 1 -1.93-.95l-.36-.21a16 16 0 0 1 9.42-29.61l3.72.25 34 2.29 9.93.67a15.83 15.83 0 0 1 7.41 2.41h.06a16 16 0 0 1 7.4 14.54z"/><path d="m358.76 376.19c-.11.3-.23.6-.36.89s-.29.61-.44.91a16 16 0 0 1 -19.77 7.53 15.07 15.07 0 0 1 -2.66-1.27l-.07-.05c-.28-.17-.55-.34-.82-.54a6.25 6.25 0 0 1 -.54-.4 8.46 8.46 0 0 1 -.76-.61 8.06 8.06 0 0 1 -.75-.69l-.33-.34a4.69 4.69 0 0 1 -.43-.47c-.15-.17-.31-.35-.45-.53s-.29-.36-.43-.55-.3-.4-.44-.61l-.28-.42-5.23-7.85-19-28.19-2.07-3.09a16 16 0 0 1 21.47-22.67l.23.14c.23.14.45.28.67.44s.53.37.79.58a15.2 15.2 0 0 1 1.48 1.32c.21.21.42.43.62.66l.08.08.63.78q.31.4.6.84l.2.29 10.44 15.55 13.86 20.67 1.94 2.9.09.13a5.69 5.69 0 0 1 .33.52c.22.35.42.7.6 1.06a15.83 15.83 0 0 1 1.11 2.75c.06.19.11.38.16.57a14 14 0 0 1 .35 1.71 16 16 0 0 1 -.82 7.96z"/></g></svg>