<svg height="512" viewBox="0 0 128 128" width="512" xmlns="http://www.w3.org/2000/svg"><g><g><path d="m55 82.7v-52.033c0-13.5 9-24.167 9-24.167s9 10.667 9 24.167v52.033z" fill="#ededf9"/><path d="m57 89.112h14a0 0 0 0 1 0 0v26.388a6 6 0 0 1 -6 6h-2a6 6 0 0 1 -6-6v-26.388a0 0 0 0 1 0 0z" fill="#537980"/><path d="m54 82.7h20a0 0 0 0 1 0 0v5.8a3 3 0 0 1 -3 3h-14a3 3 0 0 1 -3-3v-5.8a0 0 0 0 1 0 0z" fill="#d63922"/><path d="m57 97.5h14v6h-14z" fill="#ededf9" transform="matrix(-1 0 0 -1 128 201)"/><path d="m57 103.5h14v6h-14z" fill="#dddde3" transform="matrix(-1 0 0 -1 128 213)"/><path d="m90.777 66.94a24.192 24.192 0 0 0 -1.567 8.5 10.06 10.06 0 0 1 -10.02 10.06h-30.38a10.06 10.06 0 0 1 -10.02-10.055 24.192 24.192 0 0 0 -1.567-8.5 2.973 2.973 0 0 1 1.451-3.685 3.01 3.01 0 0 1 4.184 1.628 30.063 30.063 0 0 1 1.932 10.6 4.029 4.029 0 0 0 4.02 4.02h30.38a4.049 4.049 0 0 0 4.02-4.093 30.146 30.146 0 0 1 .83-6.957 30.93 30.93 0 0 1 1.1-3.567 3.01 3.01 0 0 1 4.184-1.628 2.973 2.973 0 0 1 1.453 3.677z" fill="#f5502f"/></g><g fill="#102a3f"><path d="m55 50.475a1.75 1.75 0 0 0 1.75-1.75v-3.718a1.75 1.75 0 0 0 -3.5 0v3.718a1.75 1.75 0 0 0 1.75 1.75z"/><path d="m90.123 61.7a4.76 4.76 0 0 0 -6.623 2.566 1.75 1.75 0 0 0 3.279 1.234 1.255 1.255 0 0 1 .732-.739 1.245 1.245 0 0 1 1.63 1.56 25.752 25.752 0 0 0 -1.681 9.122 8.307 8.307 0 0 1 -8.27 8.307h-30.38a8.307 8.307 0 0 1 -8.27-8.307 25.752 25.752 0 0 0 -1.681-9.122 1.22 1.22 0 0 1 .612-1.508 1.237 1.237 0 0 1 1.018-.052 1.258 1.258 0 0 1 .732.738 28.231 28.231 0 0 1 1.819 9.981 5.777 5.777 0 0 0 5.77 5.77h30.38a5.82 5.82 0 0 0 5.77-5.838c0-.674.027-1.349.075-2.008a1.75 1.75 0 1 0 -3.49-.255c-.055.74-.083 1.5-.085 2.254a2.289 2.289 0 0 1 -2.27 2.347h-4.44v-47.08c0-13.979-9.028-24.843-9.412-25.3a1.809 1.809 0 0 0 -2.676 0c-.384.455-9.412 11.319-9.412 25.3v8.408a1.75 1.75 0 0 0 3.5 0v-8.408c0-9.555 4.835-17.745 7.25-21.238 2.415 3.493 7.25 11.683 7.25 21.238v47.08h-5.5v-27.25a1.75 1.75 0 0 0 -3.5 0v27.25h-5.5v-23.425a1.75 1.75 0 0 0 -3.5 0v23.425h-4.44a2.26 2.26 0 0 1 -1.611-.676 2.218 2.218 0 0 1 -.659-1.594 31.714 31.714 0 0 0 -2.04-11.214 4.761 4.761 0 0 0 -6.618-2.57 4.716 4.716 0 0 0 -2.292 5.864 22.307 22.307 0 0 1 1.454 7.888 11.811 11.811 0 0 0 11.77 11.8h3.44v1.252a4.749 4.749 0 0 0 3 4.406v19.842a1.75 1.75 0 0 0 3.5 0v-1.5h10.5v4.25a4.255 4.255 0 0 1 -4.254 4.252h-2a4.2 4.2 0 0 1 -2.711-.979 1.75 1.75 0 1 0 -2.236 2.693 7.758 7.758 0 0 0 4.947 1.786h2a7.759 7.759 0 0 0 7.75-7.75v-22.594a4.749 4.749 0 0 0 3-4.406v-1.25h3.44a11.811 11.811 0 0 0 11.77-11.8 22.307 22.307 0 0 1 1.454-7.888 4.715 4.715 0 0 0 -2.291-5.862zm-20.873 31.55v2.5h-10.5v-2.5zm-10.5 6h10.5v2.5h-10.5zm0 8.5v-2.5h10.5v2.5zm13.5-19.25a1.251 1.251 0 0 1 -1.25 1.25h-14a1.25 1.25 0 0 1 -1.25-1.25v-1.25h16.5z"/></g></g></svg>