<svg height="512" viewBox="0 0 128 128" width="512" xmlns="http://www.w3.org/2000/svg"><g><rect fill="#405580" height="88.423" rx="4.996" width="115.386" x="6.307" y="19.789"/><path d="m16.104 29.586h95.792v68.829h-95.792z" fill="#e6f2ff"/><path d="m33.121 46.603h61.757v34.794h-61.757z" fill="#405580"/><circle cx="50.518" cy="64" fill="#ffdd70" r="9.246"/><g><path d="m93.626 109.962h-82.326a6.754 6.754 0 0 1 -6.746-6.746v-78.432a6.754 6.754 0 0 1 6.746-6.746h14.79a1.75 1.75 0 0 1 0 3.5h-14.79a3.249 3.249 0 0 0 -3.246 3.246v78.432a3.249 3.249 0 0 0 3.246 3.246h82.326a1.75 1.75 0 0 1 0 3.5z"/><path d="m116.7 109.962h-13.711a1.75 1.75 0 0 1 0-3.5h13.711a3.249 3.249 0 0 0 3.246-3.246v-78.432a3.249 3.249 0 0 0 -3.246-3.246h-67.214a1.75 1.75 0 0 1 0-3.5h67.214a6.755 6.755 0 0 1 6.746 6.746v78.432a6.755 6.755 0 0 1 -6.746 6.746z"/><path d="m39.829 21.538h-4.5a1.75 1.75 0 0 1 0-3.5h4.5a1.75 1.75 0 0 1 0 3.5z"/><path d="m111.9 100.164h-95.8a1.75 1.75 0 0 1 -1.75-1.75v-68.828a1.75 1.75 0 0 1 1.75-1.75h95.8a1.75 1.75 0 0 1 1.75 1.75v68.828a1.75 1.75 0 0 1 -1.75 1.75zm-94.042-3.5h92.292v-65.328h-92.296z"/><path d="m94.879 83.147h-61.758a1.75 1.75 0 0 1 -1.75-1.75v-34.797a1.75 1.75 0 0 1 1.75-1.75h61.758a1.75 1.75 0 0 1 1.75 1.75v34.8a1.75 1.75 0 0 1 -1.75 1.747zm-60.008-3.5h58.258v-31.294h-58.258z"/><path d="m50.519 75a11 11 0 1 1 11-11 11.008 11.008 0 0 1 -11 11zm0-18.492a7.5 7.5 0 1 0 7.5 7.5 7.5 7.5 0 0 0 -7.5-7.508z"/><path d="m70.091 65.75h-2.175a1.75 1.75 0 0 1 0-3.5h2.175a1.75 1.75 0 1 1 0 3.5z"/><path d="m70.091 58.252h-2.175a1.75 1.75 0 0 1 0-3.5h2.175a1.75 1.75 0 0 1 0 3.5z"/><path d="m70.091 73.248h-2.175a1.75 1.75 0 0 1 0-3.5h2.175a1.75 1.75 0 0 1 0 3.5z"/><path d="m86.727 65.75h-2.175a1.75 1.75 0 0 1 0-3.5h2.175a1.75 1.75 0 0 1 0 3.5z"/><path d="m86.727 58.252h-2.175a1.75 1.75 0 0 1 0-3.5h2.175a1.75 1.75 0 0 1 0 3.5z"/><path d="m86.727 73.248h-2.175a1.75 1.75 0 0 1 0-3.5h2.175a1.75 1.75 0 0 1 0 3.5z"/><path d="m78.409 65.75h-2.175a1.75 1.75 0 1 1 0-3.5h2.175a1.75 1.75 0 0 1 0 3.5z"/><path d="m78.409 58.252h-2.175a1.75 1.75 0 0 1 0-3.5h2.175a1.75 1.75 0 0 1 0 3.5z"/><path d="m78.409 73.248h-2.175a1.75 1.75 0 0 1 0-3.5h2.175a1.75 1.75 0 0 1 0 3.5z"/><path d="m48.071 68.2a1.75 1.75 0 0 1 -1.238-2.987l4.9-4.9a1.75 1.75 0 0 1 2.467 2.476l-4.9 4.9a1.745 1.745 0 0 1 -1.229.511z"/></g></g></svg>