<svg id="Layer_1" enable-background="new 0 0 512 512" viewBox="0 0 512 512" xmlns="http://www.w3.org/2000/svg"><g><g><path d="m297.03 33.35-41.03 272.316-41.031-272.316s31.91 7.4 41.031 7.4 41.03-7.4 41.03-7.4z" fill="#faa41a"/></g><g><path d="m256 313.666c-3.958 0-7.321-2.894-7.911-6.808l-41.03-272.316c-.395-2.621.534-5.267 2.48-7.066s4.655-2.517 7.238-1.92c11.995 2.781 33.25 7.193 39.224 7.193s27.228-4.412 39.223-7.194c2.584-.597 5.293.121 7.238 1.919 1.946 1.799 2.875 4.445 2.48 7.066l-41.03 272.317c-.591 3.915-3.954 6.809-7.912 6.809zm-31.384-269.986 31.384 208.292 31.384-208.292c-10.476 2.227-25.088 5.07-31.384 5.07-6.295 0-20.909-2.844-31.384-5.07z"/></g></g><g><path d="m255.999 228.59v210.93c0 21.61-17.52 39.131-39.14 39.131h-171.12v-242.731c34.7 0 62.77-89.2 62.77-194.94l30.36-2.18 34-2.43 42.1-3.02z" fill="#fdb732"/></g><g><path d="m216.86 486.65h-72.9c-4.418 0-8-3.582-8-8s3.582-8 8-8h72.9c17.171 0 31.14-13.965 31.14-31.131v-210.098l-39.423-187.592-92.113 6.6c-.603 49.424-7.191 96.09-18.707 132.109-11.523 36.043-26.622 57.317-44.017 62.263v227.849h50.22c4.418 0 8 3.582 8 8s-3.582 8-8 8h-58.22c-4.418 0-8-3.582-8-8v-242.73c0-4.418 3.582-8 8-8 12.568 0 26.317-19.534 36.777-52.253 11.603-36.293 17.993-84.125 17.993-134.687 0-4.196 3.242-7.679 7.427-7.979l106.461-7.63c3.985-.281 7.578 2.419 8.401 6.334l41.03 195.239c.113.542.171 1.093.171 1.646v210.93c0 25.988-21.147 47.13-47.14 47.13z"/></g><g><g><path d="m45.739 323h210.26v34h-210.26z" fill="#faa41a"/></g><g><path d="m255.999 365h-210.26c-4.418 0-8-3.582-8-8v-34c0-4.418 3.582-8 8-8h210.26c4.419 0 7.999 3.582 7.999 8v34c.001 4.418-3.58 8-7.999 8zm-202.26-16h194.26v-18h-194.26z"/></g></g><g><g><path d="m172.869 36.37v286.63h-34v-284.2z" fill="#faa41a"/></g><g><path d="m172.869 331h-34c-4.418 0-8-3.582-8-8v-284.2c0-4.197 3.244-7.681 7.43-7.98l34-2.43c2.212-.156 4.396.611 6.022 2.125 1.625 1.513 2.548 3.634 2.548 5.855v286.63c0 4.418-3.581 8-8 8zm-26-16h18v-270.038l-18 1.286z"/></g></g><g><path d="m256 228.589v210.93c0 21.609 17.521 39.131 39.14 39.131h171.121v-242.731c-34.701 0-62.77-89.2-62.77-194.94l-30.36-2.18-34-2.43-42.1-3.02z" fill="#fdb732"/></g><g><path d="m466.26 486.65h-171.12c-25.993 0-47.14-21.143-47.14-47.131v-210.929c0-.553.057-1.104.171-1.646l41.03-195.239c.823-3.917 4.435-6.618 8.401-6.334l106.461 7.629c4.185.301 7.427 3.784 7.427 7.979 0 29.489 2.277 59.077 6.586 85.566.709 4.361-2.251 8.471-6.612 9.18-4.358.714-8.471-2.25-9.181-6.612-4.143-25.471-6.408-52.578-6.748-80.685l-92.112-6.6-39.423 187.593v210.099c0 17.166 13.969 31.131 31.14 31.131h163.12v-227.882c-18.991-5.538-35.53-30.897-47.168-72.798-1.183-4.257 1.31-8.667 5.567-9.849 4.256-1.184 8.666 1.31 9.849 5.567 10.661 38.385 25.894 62.231 39.752 62.231 4.418 0 8 3.582 8 8v242.73c0 4.418-3.582 8-8 8z"/></g><g><g><path d="m256 323h210.261v34h-210.261z" fill="#faa41a"/></g><g><path d="m466.261 365h-210.261c-4.419 0-8-3.582-8-8v-34c0-4.418 3.581-8 8-8h210.261c4.418 0 8 3.582 8 8v34c0 4.418-3.582 8-8 8zm-202.261-16h194.261v-18h-194.261z"/></g></g><g><g><path d="m339.13 36.37v286.63h34v-284.201z" fill="#faa41a"/></g><g><path d="m373.13 331h-34c-4.418 0-8-3.582-8-8v-286.63c0-2.221.923-4.342 2.549-5.855 1.625-1.513 3.81-2.283 6.022-2.125l34 2.43c4.186.299 7.43 3.782 7.43 7.98v284.2c-.001 4.418-3.583 8-8.001 8zm-26-16h18v-268.752l-18-1.286z"/></g></g></svg>