<svg id="Capa_1" enable-background="new 0 0 509.616 509.616" height="512" viewBox="0 0 509.616 509.616" width="512" xmlns="http://www.w3.org/2000/svg"><g><g><path d="m502.036 253.116c-.395-21.851-8.563-41.726-21.799-57.078-.943-1.093-1.268-2.574-.872-3.962 2.389-8.36 3.614-17.202 3.449-26.346-.928-51.301-44.608-91.797-96.455-88.134-45.857 3.24-82.172 41.155-83.477 87.107-.478 16.826 3.662 32.6 11.203 46.208-37.24 11.999-63.746 47.546-62.304 88.831 1.683 48.188 41.729 86.84 89.947 86.815 31.407-.016 58.913-16.064 74.995-40.287.718-1.082 1.881-1.771 3.175-1.883 46.735-4.04 83-43.668 82.138-91.271z" fill="#b4e6a0"/><path d="m502.036 253.117c.86 47.6-35.4 87.23-82.14 91.27-1.29.11-2.45.8-3.17 1.88-16.09 24.23-43.59 40.27-75 40.29-4.23 0-8.4-.29-12.48-.87 26.12-3.64 48.57-18.47 62.48-39.42.72-1.08 1.88-1.77 3.17-1.88 46.74-4.04 83-43.67 82.14-91.27-.39-21.85-8.56-41.73-21.8-57.08-.94-1.09-1.27-2.57-.87-3.96 2.39-8.36 3.61-17.2 3.45-26.35-.81-44.9-34.37-81.51-77.49-87.5 1.99-.28 4-.49 6.03-.63 51.85-3.66 95.53 36.83 96.46 88.13.16 9.15-1.06 17.99-3.45 26.35-.4 1.39-.07 2.87.87 3.96 13.24 15.35 21.41 35.23 21.8 57.08z" fill="#96d7a5"/><path d="m287.25 494.624c-.017 7.132 8.97 10.222 13.269 4.531 60.911-80.63 102.154-219.576 102.154-294.092 0-109.11-88.444-197.554-197.554-197.554s-197.554 88.444-197.554 197.555c0 74.516 41.244 213.462 102.154 294.092 4.299 5.691 13.286 2.601 13.269-4.531 0-.083 0-.167 0-.25 0-51.427 36.772-201.402 82.131-201.402s82.131 149.975 82.131 201.402z" fill="#ff8087"/><path d="m248.503 149.13c0 23.96-19.424 57.413-43.384 57.413s-43.384-33.453-43.384-57.413 19.424-43.384 43.384-43.384 43.384 19.424 43.384 43.384z" fill="#eef5ff"/><path d="m402.676 205.067c0 74.51-41.25 213.46-102.16 294.09-4.3 5.69-13.28 2.6-13.27-4.53v-.25c0-3.32-.15-7.05-.45-11.12 54.66-81.98 90.88-208.37 90.88-278.19 0-104.91-81.77-190.72-185.06-197.17 4.13-.26 8.3-.39 12.5-.39 109.11 0 197.56 88.45 197.56 197.56z" fill="#e6646e"/><path d="m248.506 149.127c0 23.96-19.43 57.42-43.39 57.42-4.35 0-8.54-1.1-12.5-3.05 17.87-8.77 30.89-34.76 30.89-54.37s-13.02-36.19-30.89-41.55c3.96-1.19 8.15-1.83 12.5-1.83 23.96 0 43.39 19.42 43.39 43.38z" fill="#dfe9fb"/></g><g><path d="m509.534 252.973c-.404-22.107-8.379-43.525-22.496-60.513 2.333-8.749 3.435-17.78 3.275-26.875-.489-27.011-11.739-51.933-31.678-70.175-19.924-18.229-45.782-27.22-72.806-25.301-7.737.543-15.348 2.028-22.702 4.393-37.641-45.478-94.5-74.502-158.011-74.502-36.24 0-71.848 9.578-102.974 27.699-3.58 2.084-4.792 6.675-2.708 10.255s6.676 4.794 10.255 2.708c26.687-15.537 56.94-24.279 87.928-25.499v34.218c-56.531 3.865-101.345 51.087-101.345 108.587 0 24.809 8.257 57.396 22.087 87.173 13.817 29.749 31.332 52.811 49.932 65.976-8.107 11.716-15.138 26.245-21.036 40.964-27.46-21.521-53.763-57.693-74.777-103.091-20.404-44.081-33.776-93.099-35.97-131.654 11.232-21.581 26.634-41.063 45.672-57.229 3.157-2.681 3.543-7.414.863-10.571-2.682-3.157-7.415-3.542-10.572-.862-46.014 39.071-72.405 96.068-72.405 156.377 0 38.575 10.429 92.197 28.614 147.116 19.827 59.877 46.48 113.683 75.053 151.505 2.902 3.841 7.216 5.945 11.756 5.944 1.603 0 3.235-.263 4.842-.804 6.188-2.085 10.174-7.664 10.156-14.192v-.25c0-23.107 8.292-72.172 23.659-117.587 16.171-47.791 35.226-76.323 50.971-76.323s34.799 28.532 50.971 76.323c15.367 45.415 23.659 94.479 23.659 117.587v.239c-.009 6.55 3.983 12.127 10.17 14.207 6.15 2.064 12.659.048 16.584-5.146 22.31-29.533 43.452-68.812 61.088-113.116 22.18-6.078 41.376-19.734 54.499-38.847 17.853-1.825 34.794-8.535 49.091-19.457 3.292-2.515 3.922-7.222 1.407-10.513-2.515-3.292-7.223-3.922-10.513-1.407-12.44 9.503-27.248 15.235-42.811 16.577-3.586.305-6.789 2.197-8.794 5.205-8.947 13.475-21.399 23.843-35.9 30.126 2.411-6.605 4.746-13.297 6.99-20.071 18.188-54.921 28.619-108.543 28.619-147.116 0-43.786-13.804-84.405-37.278-117.75 4.578-1.143 9.253-1.896 13.988-2.228 22.875-1.621 44.768 5.981 61.626 21.404 16.872 15.437 26.391 36.524 26.805 59.375.144 8.188-.92 16.315-3.158 24.143-1.103 3.828-.207 7.915 2.396 10.933 12.535 14.544 19.631 33.125 19.983 52.319.274 15.132-3.587 29.991-11.168 42.972-2.089 3.577-.882 8.17 2.694 10.259 1.189.694 2.491 1.024 3.775 1.024 2.579 0 5.089-1.331 6.483-3.719 8.968-15.357 13.536-32.927 13.211-50.81zm-135.811-135.561c-2.207 38.545-15.576 87.531-35.97 131.586-21.014 45.394-47.316 81.565-74.774 103.086-5.898-14.722-12.931-29.253-21.039-40.97 18.601-13.166 36.118-36.226 49.935-65.973 13.831-29.776 22.088-62.364 22.088-87.174 0-57.497-44.813-104.717-101.346-108.586v-34.22c70.036 2.733 130.459 43.535 161.106 102.251zm-168.606-4.174c19.786 0 35.883 16.097 35.883 35.883 0 21.333-17.741 49.914-35.883 49.914s-35.884-28.581-35.884-49.914c0-19.786 16.098-35.883 35.884-35.883zm-89.631 381.108c-30.45-40.412-56.146-96.259-73.921-151.023 24.573 40.106 52.357 72.186 81.122 93.23-4.757 23.659-7.199 44.37-7.201 57.793zm10.714-73.966c-37.813-29.698-73.809-79.776-102.244-142.546-5.761-27.346-8.89-52.453-8.89-72.783 0-20.446 3.286-40.477 9.525-59.439 5.566 34.69 17.68 73.828 34.274 109.679 22.911 49.496 52.183 88.787 82.884 111.44-.621 1.759-1.226 3.509-1.813 5.244-5.481 16.2-10.069 32.702-13.736 48.405zm78.916-134.92c-10.007 0-19.156 5.354-27.402 13.958-16.714-11.464-32.796-32.704-45.751-60.596-12.763-27.479-20.691-58.46-20.691-80.854 0-49.226 38.092-89.718 86.345-93.55v34.377c-24.514 3.638-43.384 24.817-43.384 50.326 0 13.556 5.248 29.24 14.037 41.957 10.232 14.804 23.318 22.957 36.847 22.957s26.614-8.153 36.846-22.957c8.79-12.717 14.037-28.401 14.037-41.957 0-25.509-18.87-46.688-43.383-50.326v-34.377c48.254 3.836 86.346 44.326 86.346 93.549 0 22.396-7.929 53.377-20.692 80.854-12.955 27.89-29.038 49.13-45.755 60.594-8.246-8.602-17.395-13.955-27.4-13.955zm89.63 208.877c-.004-13.423-2.446-34.129-7.201-57.782 28.765-21.043 56.548-53.122 81.122-93.226-17.774 54.738-43.465 110.567-73.921 151.008zm91.541-216.524c-28.438 62.785-64.436 112.868-102.256 142.569-3.667-15.703-8.255-32.206-13.737-48.407-.586-1.733-1.191-3.482-1.811-5.24 30.7-22.655 59.97-61.943 82.881-111.435 16.598-35.855 28.714-74.997 34.279-109.691 6.176 18.709 9.532 38.69 9.532 59.442.001 20.323-3.127 45.423-8.888 72.762z"/></g></g></svg>