<svg id="Filled_Expand" height="512" viewBox="0 0 64 64" width="512" xmlns="http://www.w3.org/2000/svg" data-name="Filled Expand"><path d="m21 16h22v7h-22z" fill="#75d4f9"/><path d="m25 2h14a7 7 0 0 1 7 7v7a0 0 0 0 1 0 0h-28a0 0 0 0 1 0 0v-7a7 7 0 0 1 7-7z" fill="#8c96b4"/><path d="m21 23h22a5 5 0 0 1 5 5v23a4 4 0 0 1 -4 4h-24a4 4 0 0 1 -4-4v-23a5 5 0 0 1 5-5z" fill="#96e1ff"/><path d="m20 55h24a4 4 0 0 1 4 4v3a0 0 0 0 1 0 0h-32a0 0 0 0 1 0 0v-3a4 4 0 0 1 4-4z" fill="#75d4f9"/><path d="m32 35a19.945 19.945 0 0 0 -5.867.882l-10.133 3.118v12a4 4 0 0 0 4 4h24a4 4 0 0 0 4-4v-12l-10.133-3.118a19.945 19.945 0 0 0 -5.867-.882z" fill="#fff"/><circle cx="25" cy="9" r="1.75"/><circle cx="32" cy="9" r="1.75"/><circle cx="39" cy="9" r="1.75"/><path d="m49.75 28a6.756 6.756 0 0 0 -5-6.512v-3.738h1.25a1.751 1.751 0 0 0 1.75-1.75v-7a8.76 8.76 0 0 0 -8.75-8.75h-14a8.76 8.76 0 0 0 -8.75 8.75v7a1.751 1.751 0 0 0 1.75 1.75h1.25v3.738a6.756 6.756 0 0 0 -5 6.512v23a5.726 5.726 0 0 0 1.628 4 5.726 5.726 0 0 0 -1.628 4v3a1.751 1.751 0 0 0 1.75 1.75h32a1.751 1.751 0 0 0 1.75-1.75v-3a5.726 5.726 0 0 0 -1.628-4 5.726 5.726 0 0 0 1.628-4zm-30-19a5.256 5.256 0 0 1 5.25-5.25h14a5.256 5.256 0 0 1 5.25 5.25v5.25h-24.5zm21.5 8.75v3.5h-18.5v-3.5zm5 42.5h-28.5v-1.25a2.252 2.252 0 0 1 2.25-2.25h24a2.252 2.252 0 0 1 2.25 2.25zm0-9.25a2.252 2.252 0 0 1 -2.25 2.25h-24a2.252 2.252 0 0 1 -2.25-2.25v-10.707l8.9-2.738a18.287 18.287 0 0 1 10.706 0l8.9 2.738zm0-14.37-7.868-2.42a21.8 21.8 0 0 0 -12.764 0l-7.868 2.42v-8.63a3.254 3.254 0 0 1 3.25-3.25h22a3.254 3.254 0 0 1 3.25 3.25z"/></svg>