<svg id="Capa_1" enable-background="new 0 0 511.74 511.74" height="512" viewBox="0 0 511.74 511.74" width="512" xmlns="http://www.w3.org/2000/svg"><g><g><path d="m74.605 203.261h70.604v52.398h-70.604z" fill="#c4d7fb"/><path d="m120.211 203.263h25v52.4h-25z" fill="#a9c6f9"/><path d="m139.996 424.107h-60.177c-28.178 0-50.111-24.476-47.031-52.485l13.007-118.306c.446-4.055 3.872-7.126 7.952-7.126h112.319c4.08 0 7.506 3.07 7.952 7.126l13.007 118.306c3.081 28.009-18.851 52.485-47.029 52.485z" fill="#eef5ff"/><path d="m160.078 214.806h-100.341c-4.418 0-8-3.582-8-8v-36.398c0-4.418 3.582-8 8-8h100.342c4.418 0 8 3.582 8 8v36.398c-.001 4.419-3.582 8-8.001 8z" fill="#aa9ea9"/><path d="m139.991 424.103h-25c28.18 0 50.12-24.47 47.04-52.48l-13.01-118.31c-.45-4.05-3.87-7.12-7.95-7.12h25c4.08 0 7.5 3.07 7.95 7.12l13.01 118.31c3.08 28.01-18.86 52.48-47.04 52.48z" fill="#dfe9fb"/><path d="m168.081 170.413v36.39c0 4.42-3.58 8-8 8h-25c4.42 0 8-3.58 8-8v-36.39c0-4.42-3.58-8-8-8h25c4.42 0 8 3.58 8 8z" fill="#9b8e99"/><path d="m366.528 203.261h70.604v52.398h-70.604z" fill="#c4d7fb"/><path d="m412.131 203.263h25v52.4h-25z" fill="#a9c6f9"/><path d="m431.919 424.107h-60.176c-28.178 0-50.111-24.476-47.031-52.485l13.008-118.306c.446-4.055 3.872-7.126 7.952-7.126h112.318c4.08 0 7.506 3.07 7.952 7.126l13.008 118.306c3.079 28.009-18.853 52.485-47.031 52.485z" fill="#eef5ff"/><path d="m452.001 214.806h-100.341c-4.418 0-8-3.582-8-8v-36.398c0-4.418 3.582-8 8-8h100.342c4.418 0 8 3.582 8 8v36.398c-.001 4.419-3.582 8-8.001 8z" fill="#aa9ea9"/><path d="m431.921 424.103h-25c28.18 0 50.11-24.47 47.03-52.48l-13.01-118.31c-.44-4.05-3.87-7.12-7.95-7.12h25c4.08 0 7.51 3.07 7.95 7.12l13.01 118.31c3.08 28.01-18.85 52.48-47.03 52.48z" fill="#dfe9fb"/><path d="m460.001 170.413v36.39c0 4.42-3.58 8-8 8h-25c4.42 0 8-3.58 8-8v-36.39c0-4.42-3.58-8-8-8h25c4.42 0 8 3.58 8 8z" fill="#9b8e99"/><path d="m240.217 116.306h31.304v330.522h-31.304z" fill="#aa9ea9"/><path d="m496.238 470.827h-480.739c-4.418 0-8-3.582-8-8v-32c0-4.418 3.582-8 8-8h480.739c4.418 0 8 3.582 8 8v32c0 4.419-3.581 8-8 8z" fill="#ffe8c8"/><path d="m287.782 149.436h-63.826c-4.418 0-8-3.582-8-8v-82.522c0-9.941 8.059-18 18-18h43.826c9.941 0 18 8.059 18 18v82.522c0 4.418-3.582 8-8 8z" fill="#ff8087"/><path d="m295.781 58.913v82.52c0 4.42-3.58 8-8 8h-25c4.42 0 8-3.58 8-8v-82.52c0-9.94-8.06-18-18-18h25c9.94 0 18 8.06 18 18z" fill="#e6646e"/><path d="m504.241 430.823v32c0 4.42-3.58 8-8 8h-25c4.42 0 8-3.58 8-8v-32c0-4.41-3.58-8-8-8h25c4.42 0 8 3.59 8 8z" fill="#fdd9b4"/></g><g><path d="m496.24 415.33h-25.344c11.253-11.415 17.374-27.596 15.51-44.53l-13.009-118.299c-.855-7.873-7.478-13.811-15.406-13.811h-13.36v-16.385h7.373c8.547 0 15.5-6.953 15.5-15.5v-36.398c0-8.547-6.953-15.5-15.5-15.5h-100.343c-8.547 0-15.5 6.953-15.5 15.5v36.398c0 8.547 6.953 15.5 15.5 15.5h7.37v16.385h-13.36c-7.909 0-14.531 5.93-15.405 13.801l-13.011 118.309c-1.864 16.934 4.257 33.115 15.511 44.53h-53.746v-258.39h8.76c8.547 0 15.5-6.953 15.5-15.5v-9.271c0-4.143-3.358-7.5-7.5-7.5s-7.5 3.357-7.5 7.5v9.271c0 .271-.229.5-.5.5h-63.82c-.271 0-.5-.229-.5-.5v-82.53c0-5.79 4.71-10.5 10.5-10.5h43.82c5.79 0 10.5 4.71 10.5 10.5v38.26c0 4.143 3.358 7.5 7.5 7.5s7.5-3.357 7.5-7.5v-38.26c0-14.061-11.439-25.5-25.5-25.5h-43.82c-14.061 0-25.5 11.439-25.5 25.5v82.53c0 8.547 6.953 15.5 15.5 15.5h8.76v258.39h-53.746c11.254-11.415 17.375-27.596 15.511-44.53l-13.011-118.316c-.873-7.863-7.495-13.793-15.404-13.793h-13.36v-16.385h7.37c8.547 0 15.5-6.953 15.5-15.5v-36.398c0-8.547-6.953-15.5-15.5-15.5h-100.342c-8.547 0-15.5 6.953-15.5 15.5v36.398c0 8.547 6.953 15.5 15.5 15.5h7.373v16.385h-13.361c-7.928 0-14.551 5.938-15.405 13.801l-13.01 118.308c-1.865 16.934 4.256 33.115 15.51 44.53h-25.345c-8.547 0-15.5 6.953-15.5 15.5v32c0 8.547 6.953 15.5 15.5 15.5h41.61c4.142 0 7.5-3.357 7.5-7.5s-3.358-7.5-7.5-7.5h-41.61c-.271 0-.5-.229-.5-.5v-32c0-.275.224-.5.5-.5h480.74c.276 0 .5.225.5.5v32c0 .271-.229.5-.5.5h-404.13c-4.142 0-7.5 3.357-7.5 7.5s3.358 7.5 7.5 7.5h404.13c8.547 0 15.5-6.953 15.5-15.5v-32c0-8.547-6.953-15.5-15.5-15.5zm-145.079-208.524v-36.398c0-.275.224-.5.5-.5h100.342c.276 0 .5.225.5.5v36.398c0 .275-.224.5-.5.5h-100.342c-.276 0-.5-.225-.5-.5zm22.869 15.5h55.6v16.385h-55.6zm-41.865 150.134 13.009-118.303c.028-.255.242-.447.496-.447h112.32c.25 0 .467.188.495.439l13.01 118.311c2.168 19.689-10.504 37.976-29.563 42.89h-80.207c-19.057-4.917-31.727-23.204-29.56-42.89zm-84.445-215.5h16.3v258.39h-16.3zm-188.482 49.866v-36.398c0-.275.224-.5.5-.5h100.342c.276 0 .5.225.5.5v36.398c0 .275-.224.5-.5.5h-100.342c-.276 0-.5-.225-.5-.5zm22.872 15.5h55.6v16.385h-55.6zm-41.865 150.134 13.011-118.32c.026-.241.243-.43.494-.43h112.32c.254 0 .467.192.495.439l13.01 118.311c2.167 19.686-10.503 37.973-29.56 42.89h-80.207c-19.059-4.914-31.73-23.201-29.563-42.89z"/><path d="m120.527 328.682c-9.162-3.379-17.672-7.064-20.011-8.09-1.944-1.474-2.882-3.793-2.522-6.301.227-1.577 1.349-5.426 6.868-7.089 11.069-3.331 21.162 4.707 21.405 4.903 3.17 2.636 7.879 2.218 10.536-.941 2.665-3.171 2.255-7.902-.915-10.567-.659-.554-16.339-13.482-35.352-7.757-9.423 2.839-16.086 10.241-17.389 19.319-1.218 8.48 2.456 16.637 9.588 21.286.332.217.679.406 1.041.567.418.187 10.36 4.611 21.561 8.742 7.503 2.769 11.334 7.003 10.51 11.62-.837 4.688-6.382 9.538-14.212 9.538-7.644 0-15.015-3.099-19.718-8.288-2.781-3.069-7.524-3.303-10.594-.521s-3.303 7.524-.521 10.594c7.499 8.275 19.025 13.216 30.833 13.216 14.292 0 26.75-9.416 28.979-21.901 1.693-9.49-2.694-21.914-20.087-28.33z"/><path d="m401.495 291.382h-20.196c-4.142 0-7.5 3.357-7.5 7.5v72.531c0 4.143 3.358 7.5 7.5 7.5s7.5-3.357 7.5-7.5v-24.046c4.429-.024 9.769-.049 12.696-.049 15.643 0 28.369-12.546 28.369-27.968s-12.726-27.968-28.369-27.968zm0 40.936c-2.905 0-8.18.024-12.598.048-.023-4.551-.048-10.038-.048-13.016 0-2.511-.015-8.215-.028-12.969h12.674c7.247 0 13.369 5.938 13.369 12.969 0 7.03-6.122 12.968-13.369 12.968z"/></g></g></svg>