<svg height="512" viewBox="0 0 128 128" width="512" xmlns="http://www.w3.org/2000/svg"><g><path d="m112.664 15.336a14.56 14.56 0 0 0 -19.326-1.2 5.092 5.092 0 0 1 -5.522.648 14.533 14.533 0 0 0 -18.1 3.724 5.237 5.237 0 0 1 -5.057 1.832 14.564 14.564 0 0 0 -15.338 7.2 5.169 5.169 0 0 1 -4.573 2.581h-.035a14.585 14.585 0 0 0 -14.586 14.59v.035a5.169 5.169 0 0 1 -2.581 4.573 14.564 14.564 0 0 0 -7.2 15.338 5.235 5.235 0 0 1 -1.832 5.056 14.535 14.535 0 0 0 -3.724 18.1 5.094 5.094 0 0 1 -.648 5.523 14.559 14.559 0 0 0 1.158 19.294z" fill="#4cc7b3"/><path d="m66.694 61.306a17.69 17.69 0 0 1 25.018-25.018z" fill="#fa7578"/><path d="m36.288 91.712a17.69 17.69 0 0 1 25.018-25.018z" fill="#feea61"/><path d="m111.693 121.693h-105.386l115.386-115.386v105.386a10 10 0 0 1 -10 10z" fill="#fdca74"/><g><path d="m101.7 98.6a2.349 2.349 0 1 0 2.349 2.349 2.349 2.349 0 0 0 -2.349-2.349z"/><path d="m81.31 91.249a2.349 2.349 0 1 0 -2.349 2.351 2.348 2.348 0 0 0 2.349-2.351z"/><path d="m91.339 69.085a2.349 2.349 0 1 0 -2.349 2.349 2.35 2.35 0 0 0 2.349-2.349z"/><path d="m105.755 51.222a2.349 2.349 0 1 0 -2.349-2.349 2.35 2.35 0 0 0 2.349 2.349z"/><path d="m52.427 103.335a2.35 2.35 0 1 0 2.349 2.35 2.35 2.35 0 0 0 -2.349-2.35z"/><path d="m122.363 4.69a1.753 1.753 0 0 0 -1.907.379l-7.856 7.857a16.3 16.3 0 0 0 -20.341-.164 3.364 3.364 0 0 1 -3.623.477 16.362 16.362 0 0 0 -2.79-1.16 1.75 1.75 0 1 0 -1.038 3.342 12.923 12.923 0 0 1 2.192.911 6.855 6.855 0 0 0 7.423-.818 12.776 12.776 0 0 1 15.68-.089l-18.454 18.451a19.431 19.431 0 0 0 -27.37 27.37l-3.035 3.036a19.43 19.43 0 0 0 -27.368 27.367l-18.451 18.451a12.778 12.778 0 0 1 .089-15.681 6.861 6.861 0 0 0 .819-7.419 12.6 12.6 0 0 1 -1.481-5.966 12.76 12.76 0 0 1 4.759-9.956 7.008 7.008 0 0 0 2.451-6.734 12.822 12.822 0 0 1 6.341-13.5 6.96 6.96 0 0 0 3.474-6.134 12.857 12.857 0 0 1 12.883-12.833 6.947 6.947 0 0 0 6.085-3.477 12.849 12.849 0 0 1 11.185-6.55 12.716 12.716 0 0 1 2.31.21 7.013 7.013 0 0 0 6.733-2.452 12.793 12.793 0 0 1 6.227-4.208 1.749 1.749 0 1 0 -1.019-3.347 16.269 16.269 0 0 0 -7.932 5.353 3.478 3.478 0 0 1 -3.378 1.213 16.189 16.189 0 0 0 -2.945-.268 16.357 16.357 0 0 0 -14.236 8.335 3.421 3.421 0 0 1 -3.072 1.689h-.011a16.361 16.361 0 0 0 -16.33 16.376 3.4 3.4 0 0 1 -1.69 3.043 16.316 16.316 0 0 0 -8.066 17.181 3.467 3.467 0 0 1 -1.213 3.378 16.284 16.284 0 0 0 -4.168 20.282 3.364 3.364 0 0 1 -.478 3.622 16.3 16.3 0 0 0 .164 20.343l-7.856 7.856a1.749 1.749 0 0 0 1.237 2.987h27.155a1.75 1.75 0 0 0 0-3.5h-22.93l109.411-109.412v101.162a8.259 8.259 0 0 1 -8.25 8.25h-54.838a1.75 1.75 0 0 0 0 3.5h54.838a11.763 11.763 0 0 0 11.75-11.75v-105.386a1.75 1.75 0 0 0 -1.08-1.617zm-59.101 44.11a15.937 15.937 0 0 1 25.9-12.437l-22.4 22.4a15.815 15.815 0 0 1 -3.5-9.963zm-25.737 19.131a15.96 15.96 0 0 1 21.235-1.166l-22.4 22.4a15.961 15.961 0 0 1 1.165-21.234z"/><path d="m47.2 119.943h-4.5a1.75 1.75 0 0 0 0 3.5h4.5a1.75 1.75 0 0 0 0-3.5z"/></g></g></svg>