<svg id="Sand_Castle" enable-background="new 0 0 64 64" viewBox="0 0 64 64" xmlns="http://www.w3.org/2000/svg"><g><g><path d="m20.73085 18.12157v37.29899h-12.64155c-2.49065 0-4.50971-2.01907-4.50971-4.50971v-32.78928z" fill="#ffdc6e"/><path d="m12.15522 25.97534c-1.70162 0-3.08105 1.37943-3.08105 3.08105v2.41388c0 .79865.64744 1.44609 1.44609 1.44609h3.26991c.79866 0 1.44609-.64744 1.44609-1.44609v-2.41388c.00001-1.70162-1.37942-3.08105-3.08104-3.08105z" fill="#d1802f"/><path d="m12.15522 40.62576c-1.70162 0-3.08105 1.37943-3.08105 3.08105v2.41388c0 .79866.64744 1.44609 1.44609 1.44609h3.26991c.79866 0 1.44609-.64744 1.44609-1.44609v-2.41388c.00001-1.70162-1.37942-3.08105-3.08104-3.08105z" fill="#d1802f"/><g fill="#101016"><path d="m20.7309 56.30859h-12.64149c-2.97656 0-5.39844-2.42188-5.39844-5.39757v-32.78906c0-.49132.39757-.88889.88889-.88889h17.15104c.49132 0 .88889.39757.88889.88889v37.29774c0 .49133-.39757.88889-.88889.88889zm-16.26215-37.29774v31.90018c0 1.99652 1.62413 3.61979 3.62066 3.61979h11.7526v-35.51997z"/><path d="m13.78993 33.80512h-3.26997c-1.28733 0-2.33507-1.04774-2.33507-2.33507v-2.41406c0-2.18924 1.78125-3.96962 3.97049-3.96962s3.96962 1.78038 3.96962 3.96962v2.41406c0 1.28733-1.04774 2.33507-2.33507 2.33507zm-1.63455-6.94097c-1.2092 0-2.19271.98351-2.19271 2.19184v2.41406c0 .30729.25.55729.55729.55729h3.26997c.30729 0 .55729-.25.55729-.55729v-2.41406c0-1.20833-.9835-2.19184-2.19184-2.19184z"/><path d="m13.78993 48.45616h-3.26997c-1.28733 0-2.33507-1.04688-2.33507-2.33507v-2.41493c0-2.18924 1.78125-3.96875 3.97049-3.96875s3.96962 1.77951 3.96962 3.96875v2.41493c0 1.2882-1.04774 2.33507-2.33507 2.33507zm-1.63455-6.94097c-1.2092 0-2.19271.98264-2.19271 2.19097v2.41493c0 .30729.25.55729.55729.55729h3.26997c.30729 0 .55729-.25.55729-.55729v-2.41493c0-1.20833-.9835-2.19097-2.19184-2.19097z"/></g></g><g><path d="m23.42157 10.05831v5.36577c0 1.48604-1.20467 2.69071-2.69071 2.69071h-17.15127c-1.48604 0-2.69071-1.20467-2.69071-2.69071v-5.36577c0-.81043.65147-1.4778 1.49371-1.4778h2.38357c.81279 0 1.4778.66501 1.4778 1.4778v2.09756c0 .81033.65147 1.4778 1.4778 1.4778h.27011c.81043 0 1.4778-.66747 1.4778-1.4778v-2.09756c0-.81043.65156-1.4778 1.4779-1.4778h2.39938c.81279 0 1.4778.66501 1.4778 1.4778v2.09756c0 .81033.66747 1.4778 1.4779 1.4778h.27011c.81043 0 1.4778-.66747 1.4778-1.4778v-2.09756c0-.81043.65147-1.4778 1.4778-1.4778h2.39948c.82636-.00001 1.49373.66737 1.49373 1.4778z" fill="#ffe691"/><path d="m20.7309 19.00391h-17.15104c-1.97396 0-3.57986-1.60591-3.57986-3.57986v-5.36545c0-1.30556 1.06858-2.36719 2.38281-2.36719h2.38368c1.30469 0 2.36632 1.06163 2.36632 2.36719v2.09722c0 .32465.26389.58854.58854.58854h.27083c.31944 0 .58854-.2691.58854-.58854v-2.09722c0-1.30556 1.06163-2.36719 2.36719-2.36719h2.39931c1.30469 0 2.36632 1.06163 2.36632 2.36719v2.09722c0 .31944.26997.58854.58941.58854h.26996c.31944 0 .58854-.2691.58854-.58854v-2.09722c0-1.30556 1.06163-2.36719 2.36719-2.36719h2.39931c1.31424 0 2.38281 1.06163 2.38281 2.36719v5.36545c0 1.97395-1.6059 3.57986-3.57986 3.57986zm-18.34809-9.53473c-.33941 0-.60503.25868-.60503.58941v5.36545c0 .99392.80816 1.80208 1.80208 1.80208h17.15104c.99392 0 1.80208-.80816 1.80208-1.80208v-5.36545c0-.32465-.2717-.58941-.60503-.58941h-2.39931c-.32465 0-.58941.26476-.58941.58941v2.09722c0 1.30469-1.06163 2.36632-2.36632 2.36632h-.26996c-1.30556 0-2.36719-1.06163-2.36719-2.36632v-2.09722c0-.32465-.26389-.58941-.58854-.58941h-2.39931c-.32465 0-.58941.26476-.58941.58941v2.09722c0 1.30469-1.06163 2.36632-2.36632 2.36632h-.27083c-1.30469 0-2.36632-1.06163-2.36632-2.36632v-2.09722c0-.32465-.26389-.58941-.58854-.58941z" fill="#101016"/></g><g><path d="m43.26912 18.12157v37.29899h12.64155c2.49065 0 4.50972-2.01907 4.50972-4.50971v-32.78928z" fill="#ffdc6e"/><path d="m51.84475 25.97534c-1.70162 0-3.08105 1.37943-3.08105 3.08105v2.41388c0 .79865.64744 1.44609 1.44609 1.44609h3.26991c.79866 0 1.44609-.64744 1.44609-1.44609v-2.41388c.00001-1.70162-1.37942-3.08105-3.08104-3.08105z" fill="#d1802f"/><path d="m51.84475 40.62576c-1.70162 0-3.08105 1.37943-3.08105 3.08105v2.41388c0 .79866.64744 1.44609 1.44609 1.44609h3.26991c.79866 0 1.44609-.64744 1.44609-1.44609v-2.41388c.00001-1.70162-1.37942-3.08105-3.08104-3.08105z" fill="#d1802f"/><g fill="#101016"><path d="m55.91146 56.30859h-12.64236c-.49132 0-.88889-.39757-.88889-.88889v-37.29774c0-.49132.39757-.88889.88889-.88889h17.15104c.49132 0 .88889.39757.88889.88889v32.78906c0 2.9757-2.42188 5.39757-5.39757 5.39757zm-11.75347-1.77777h11.75347c1.99653 0 3.61979-1.62326 3.61979-3.61979v-31.90018h-15.37326z"/><path d="m53.47917 33.80512h-3.2691c-1.28819 0-2.33507-1.04774-2.33507-2.33507v-2.41406c0-2.18924 1.78125-3.96962 3.97049-3.96962s3.96875 1.78038 3.96875 3.96962v2.41406c0 1.28733-1.04688 2.33507-2.33507 2.33507zm-1.63368-6.94097c-1.20833 0-2.19271.98351-2.19271 2.19184v2.41406c0 .30729.25.55729.55729.55729h3.2691c.30729 0 .55729-.25.55729-.55729v-2.41406c0-1.20833-.98264-2.19184-2.19097-2.19184z"/><path d="m53.47917 48.45616h-3.2691c-1.28819 0-2.33507-1.04688-2.33507-2.33507v-2.41493c0-2.18924 1.78125-3.96875 3.97049-3.96875s3.96875 1.77951 3.96875 3.96875v2.41493c0 1.2882-1.04688 2.33507-2.33507 2.33507zm-1.63368-6.94097c-1.20833 0-2.19271.98264-2.19271 2.19097v2.41493c0 .30729.25.55729.55729.55729h3.2691c.30729 0 .55729-.25.55729-.55729v-2.41493c0-1.20833-.98264-2.19097-2.19097-2.19097z"/></g></g><g><path d="m40.5784 10.05831v5.36577c0 1.48604 1.20467 2.69071 2.69072 2.69071h17.15127c1.48604 0 2.69071-1.20467 2.69071-2.69071v-5.36577c0-.81043-.65147-1.4778-1.49371-1.4778h-2.38357c-.81279 0-1.4778.66501-1.4778 1.4778v2.09756c0 .81033-.65147 1.4778-1.47781 1.4778h-.27011c-.81043 0-1.4778-.66747-1.4778-1.4778v-2.09756c0-.81043-.65157-1.4778-1.4779-1.4778h-2.39938c-.81279 0-1.4778.66501-1.4778 1.4778v2.09756c0 .81033-.66747 1.4778-1.4779 1.4778h-.27012c-.81043 0-1.4778-.66747-1.4778-1.4778v-2.09756c0-.81043-.65147-1.4778-1.47781-1.4778h-2.39948c-.82634-.00001-1.49371.66737-1.49371 1.4778z" fill="#ffe691"/><path d="m60.42014 19.00391h-17.15104c-1.97396 0-3.57986-1.6059-3.57986-3.57986v-5.36545c0-1.30556 1.06945-2.36719 2.38368-2.36719h2.3993c1.30556 0 2.36632 1.06163 2.36632 2.36719v2.09722c0 .31944.2691.58854.58854.58854h.27084c.31944 0 .58854-.2691.58854-.58854v-2.09722c0-1.30556 1.06076-2.36719 2.36632-2.36719h2.3993c1.30556 0 2.36632 1.06163 2.36632 2.36719v2.09722c0 .31944.27083.58854.59028.58854h.2691c.32986 0 .58854-.25868.58854-.58854v-2.09722c0-1.30556 1.0625-2.36719 2.36806-2.36719h2.38368c1.31423 0 2.38194 1.06163 2.38194 2.36718v5.36545c0 1.97396-1.6059 3.57987-3.57986 3.57987zm-18.34722-9.53473c-.33334 0-.6059.26476-.6059.58941v5.36545c0 .99392.80903 1.80208 1.80208 1.80208h17.15104c.99305 0 1.80208-.80816 1.80208-1.80208v-5.36545c0-.33073-.26563-.58941-.60416-.58941h-2.38368c-.31944 0-.59028.26997-.59028.58941v2.09722c0 1.30469-1.06076 2.36632-2.36632 2.36632h-.2691c-1.30556 0-2.36806-1.06163-2.36806-2.36632v-2.09722c0-.33073-.25868-.58941-.58854-.58941h-2.3993c-.32465 0-.58854.26476-.58854.58941v2.09722c0 1.30469-1.06076 2.36632-2.36632 2.36632h-.27084c-1.30555 0-2.36632-1.06163-2.36632-2.36632v-2.09722c0-.33073-.25868-.58941-.58854-.58941z" fill="#101016"/></g><g><path d="m19.142 32.423h25.716v22.998h-25.716z" fill="#ffe691"/><path d="m31.99911 42.47711h-.00001c-2.78227 0-5.03775 2.25548-5.03775 5.03775v7.90041h10.07551v-7.90041c-.00001-2.78227-2.25548-5.03775-5.03775-5.03775z" fill="#d1802f"/><path d="m44.84966 32.43001v22.98665h-13.51129c4.23134-5.01334 7.36024-13.4044 6.86242-22.98665z" opacity=".1"/><g fill="#101016"><path d="m44.85764 56.30859h-25.71615c-.49132 0-.88889-.39757-.88889-.88889v-22.99652c0-.49132.39757-.88889.88889-.88889h25.71615c.49132 0 .88889.39757.88889.88889v22.99652c0 .49133-.39757.88889-.88889.88889zm-24.82726-1.77777h23.93837v-21.21875h-23.93837z"/><path d="m37.03646 56.30339h-10.07552c-.49132 0-.88889-.39757-.88889-.88889v-7.89931c0-3.26736 2.65886-5.92708 5.92622-5.92708s5.92708 2.65972 5.92708 5.92708v7.89931c0 .49132-.39757.88889-.88889.88889zm-9.18663-1.77778h8.29774v-7.01042c0-2.28819-1.86111-4.1493-4.1493-4.1493-2.28733 0-4.14844 1.86111-4.14844 4.1493z"/></g></g><g><path d="m47.54888 24.36652v5.36577c0 1.48604-1.20467 2.69071-2.69072 2.69071h-25.71635c-1.48604 0-2.69071-1.20467-2.69071-2.69071v-5.36577c0-.81043.65176-1.4778 1.47809-1.4778h2.39928c.81285 0 1.4779.66506 1.4779 1.4779v2.09746c0 .81043.65137 1.4778 1.47771 1.4778h.27021c.81043 0 1.4779-.66737 1.4779-1.4778v-2.09756c0-.81043.65137-1.4778 1.47771-1.4778h2.39948c.81274 0 1.47771.66497 1.47771 1.47771v2.09765c0 .81043.66747 1.4778 1.4779 1.4778h.27021c.81043 0 1.47771-.66737 1.47771-1.4778v-2.09756c0-.81043.65157-1.4778 1.4779-1.4778h2.39948c.81622 0 1.4779.66168 1.4779 1.4779v2.09746c0 .81043.66728 1.4778 1.47771 1.4778h.27002c.81043 0 1.4779-.66737 1.4779-1.4778v-2.09756c0-.81279.66501-1.4778 1.4778-1.4778h2.39957c.82632-.00001 1.47769.66737 1.47769 1.4778z" fill="#ffefb4"/><path d="m47.55191 24.35894v5.36881c0 1.49338-1.20898 2.70226-2.70226 2.70226h-6.64887c-.16016-3.09332-.69336-6.29329-1.6888-9.54666h.97765c.81771 0 1.47548.67556 1.47548 1.47559v2.09776c0 .81771.67556 1.49327 1.4757 1.49327h.26649c.81771 0 1.49349-.67556 1.49349-1.49327v-2.09776c0-.80002.65755-1.47559 1.47548-1.47559h2.39996c.8177 0 1.47568.67557 1.47568 1.47559z" opacity=".1"/><path d="m44.85764 33.31207h-25.71615c-1.97309 0-3.57899-1.6059-3.57899-3.57986v-5.36545c0-1.30556 1.06163-2.36719 2.36632-2.36719h2.39931c1.30556 0 2.36719 1.06163 2.36719 2.36719v2.09722c0 .33073.25868.58941.58854.58941h.27083c.31944 0 .58854-.26996.58854-.58941v-2.09722c0-1.30556 1.06163-2.36719 2.36632-2.36719h2.40017c1.30469 0 2.36632 1.06163 2.36632 2.36719v2.09722c0 .31944.2691.58941.58854.58941h.27083c.31944 0 .58854-.26996.58854-.58941v-2.09722c0-1.30556 1.06076-2.36719 2.36632-2.36719h2.3993c1.30556 0 2.36806 1.06163 2.36806 2.36719v2.09722c0 .31944.2691.58941.58854.58941h.2691c.31944 0 .59028-.26996.59028-.58941v-2.09722c0-1.30556 1.06076-2.36719 2.36632-2.36719h2.39931c1.30555 0 2.36632 1.06163 2.36632 2.36719v5.36545c0 1.97395-1.6059 3.57986-3.57986 3.57986zm-26.92882-9.53473c-.32986 0-.58854.25868-.58854.58941v5.36545c0 .99392.80816 1.80208 1.80121 1.80208h25.71615c.99305 0 1.80208-.80816 1.80208-1.80208v-5.36545c0-.33073-.25868-.58941-.58854-.58941h-2.39931c-.32465 0-.58854.26476-.58854.58941v2.09722c0 1.30556-1.0625 2.36719-2.36805 2.36719h-.2691c-1.30556 0-2.36632-1.06163-2.36632-2.36719v-2.09722c0-.32465-.26563-.58941-.59028-.58941h-2.3993c-.32986 0-.58854.25868-.58854.58941v2.09722c0 1.30556-1.06076 2.36719-2.36632 2.36719h-.27083c-1.30469 0-2.36632-1.06163-2.36632-2.36719v-2.09722c0-.32465-.26389-.58941-.58854-.58941h-2.40017c-.32986 0-.58854.25868-.58854.58941v2.09722c0 1.30556-1.06163 2.36719-2.36632 2.36719h-.27083c-1.30469 0-2.36632-1.06163-2.36632-2.36719v-2.09722c0-.32465-.26476-.58941-.58941-.58941z" fill="#101016"/></g></g></svg>