<svg id="Layer_1" enable-background="new 0 0 64 64" viewBox="0 0 64 64" xmlns="http://www.w3.org/2000/svg"><g><path d="m6.5 28.97s-4.29 4.54 0 6.05h49.54s7.96 0 1.69-5.78z" fill="#ffa669"/><path d="m6.12 25.06s-3.41 6.37 7.75 4.59 11.9 2.63 22.32.31c10.42-2.31 8.31 1.43 17.54.37s2.28-5.28 2.28-5.28h-49.89z" fill="#ffeba8"/><path d="m56.42 35.03s3.82 2.32 2.03 3.95c-.63.57-1.92 1.05-4.3 1.32-9.23 1.06-7.12-2.68-17.54-.37-10.43 2.32-11.16-2.09-22.32-.31-4.18.66-6.32.18-7.36-.68-1.72-1.42-.39-3.91-.39-3.91z" fill="#ffeba8"/><path d="m40.59 11.73h-19.03c-5.91 0-13.96 2.64-17.29 7.05l-1.04 1.37c-1.57 2.09.08 4.91 2.88 4.91h51.76c2.8 0 4.45-2.83 2.88-4.91-3.97-5.27-13.09-8.42-20.16-8.42z" fill="#ffa669"/><path d="m60.76 43.85-1.04 1.37c-3.22 4.28-10.91 6.89-16.76 7.04-.01 0-.03 0-.03 0-.18.01-.34.01-.5.01h-19.02c-.52 0-1.03-.01-1.56-.06-3.13-.18-6.55-.94-9.69-2.18-3.66-1.44-6.93-3.56-8.92-6.19-1.57-2.08.08-4.91 2.88-4.91h.81c1.04.86 3.18 1.34 7.36.68 11.16-1.78 11.89 2.62 22.32.31 10.42-2.31 8.3 1.43 17.54.37 2.38-.27 3.67-.75 4.3-1.32 2.44.36 3.77 2.95 2.31 4.88z" fill="#ffa669"/><path d="m57.88 26.06h-51.76c-1.77 0-3.33-.92-4.07-2.41-.67-1.35-.52-2.88.4-4.1l1.04-1.37c3.65-4.84 12.04-7.45 18.08-7.45h19.03c6.93 0 16.64 3.09 20.96 8.82.92 1.22 1.07 2.75.4 4.1-.75 1.49-2.31 2.41-4.08 2.41zm-36.32-13.33c-5.64 0-13.35 2.49-16.49 6.65l-1.04 1.37c-.46.61-.54 1.34-.2 2.01.31.63 1.08 1.3 2.28 1.3h51.76c1.2 0 1.97-.67 2.28-1.3.33-.66.26-1.4-.2-2.01-3.93-5.21-12.91-8.02-19.36-8.02z"/><path d="m39.33 17.52c-.03 0-.07 0-.1 0-.55-.05-.95-.54-.9-1.09.25-2.54.96-4.26 2.1-5.11.91-.67 1.75-.55 1.91-.52.54.11.89.63.78 1.18-.1.52-.6.88-1.13.79-.35-.02-1.36.66-1.68 3.85-.03.52-.47.9-.98.9z"/><path d="m31.78 17.45c-.03 0-.07 0-.1 0-.55-.05-.95-.54-.9-1.09.25-2.55.96-4.27 2.1-5.11.9-.66 1.73-.53 1.89-.49.54.12.88.65.77 1.19-.11.52-.61.87-1.13.78 0 0 0 0-.01 0-.36 0-1.32.68-1.63 3.83-.04.5-.48.89-.99.89z"/><path d="m24.62 17.45c-.03 0-.07 0-.1 0-.55-.05-.95-.54-.9-1.09.25-2.55.96-4.27 2.1-5.11.9-.66 1.73-.53 1.89-.49.54.12.88.65.77 1.19-.11.52-.61.87-1.13.78 0 0 0 0-.01 0-.36 0-1.32.68-1.63 3.83-.05.5-.48.89-.99.89z"/><path d="m18.31 17.45c-.03 0-.07 0-.1 0-.55-.05-.95-.54-.9-1.09.25-2.55.96-4.27 2.1-5.11.9-.66 1.73-.53 1.89-.49.54.12.88.65.77 1.19-.11.52-.61.87-1.13.78-.38.02-1.32.66-1.63 3.83-.05.5-.49.89-1 .89z"/><path d="m30.54 31.66c-2.18 0-3.88-.35-5.64-.71-2.76-.57-5.61-1.15-10.88-.31-4.63.74-7.5.23-8.76-1.55-1.37-1.93-.08-4.4-.02-4.5.26-.49.87-.67 1.35-.41.49.26.67.86.41 1.35-.02.03-.75 1.51-.11 2.41.35.49 1.72 1.54 6.82.73 5.63-.9 8.8-.25 11.6.33 2.85.58 5.54 1.14 10.66 0 5.93-1.31 8.01-.74 10.22-.13 1.68.46 3.42.94 7.42.49 3.67-.42 3.9-1.26 3.9-1.27.09-.41-.91-1.48-2.03-2.16-.47-.29-.62-.9-.33-1.37s.9-.62 1.37-.34c.57.35 3.41 2.19 2.94 4.3-.44 2.01-3.42 2.58-5.62 2.83-4.39.5-6.4-.05-8.18-.54-2.05-.56-3.82-1.05-9.26.16-2.36.5-4.24.69-5.86.69z"/><path d="m30.96 41.62c-2.18 0-3.88-.35-5.63-.71-2.76-.56-5.6-1.15-10.88-.31-3.99.63-6.66.34-8.16-.9-1.86-1.53-1.23-4.04-.63-5.15.26-.49.87-.67 1.35-.41.49.26.67.87.41 1.35-.04.07-.92 1.79.14 2.66.57.47 2.18 1.16 6.57.47 5.63-.9 8.8-.25 11.59.32 2.85.58 5.54 1.14 10.66 0 5.92-1.31 8.01-.74 10.22-.13 1.68.46 3.42.94 7.42.48 2.56-.29 3.44-.79 3.75-1.07.16-.15.15-.23.15-.27-.06-.59-1.21-1.59-2.02-2.08-.47-.29-.62-.9-.33-1.37s.9-.62 1.37-.34 2.8 1.78 2.98 3.6c.05.51-.05 1.27-.8 1.95-.88.79-2.42 1.29-4.86 1.57-4.39.51-6.41-.05-8.18-.54-2.05-.56-3.81-1.05-9.25.15-2.37.54-4.25.73-5.87.73z"/><path d="m56.04 36.03h-49.54c-.11 0-.23-.02-.33-.06-1.72-.61-2.3-1.66-2.48-2.43-.57-2.36 1.82-4.97 2.09-5.26.38-.4 1.01-.42 1.41-.04s.42 1.01.04 1.41c-.63.67-1.85 2.39-1.6 3.42.04.15.14.59 1.06.95h49.36c1.1 0 2.83-.35 3.07-.96.16-.4-.29-1.45-2.06-3.08-.41-.37-.43-1.01-.06-1.41.37-.41 1.01-.43 1.41-.06 2.29 2.11 3.13 3.84 2.57 5.28-.84 2.13-4.26 2.24-4.94 2.24z"/><path d="m42.43 53.27h-19.02c-.44 0-1.03-.01-1.65-.06-3.23-.19-6.78-.99-9.97-2.25-2.88-1.13-6.84-3.18-9.35-6.52-.92-1.22-1.07-2.75-.4-4.1.74-1.49 2.3-2.41 4.08-2.41h.8c.23 0 .46.08.64.23.57.47 2.18 1.16 6.57.46 5.63-.9 8.8-.25 11.59.32 2.85.58 5.54 1.14 10.66 0 5.92-1.31 8.01-.74 10.22-.13 1.68.46 3.42.94 7.42.48 2.56-.29 3.44-.79 3.75-1.07.22-.2.52-.29.81-.25 1.57.22 2.91 1.22 3.48 2.62.54 1.3.35 2.7-.51 3.84l-1.04 1.37c-3.48 4.63-11.63 7.29-17.53 7.44-.18.03-.36.03-.55.03zm-36.31-13.33c-1.21 0-1.97.67-2.29 1.3-.33.66-.26 1.39.2 2 1.74 2.31 4.76 4.39 8.49 5.86 3 1.19 6.33 1.94 9.38 2.11.57.05 1.1.05 1.5.05h19.02c.14 0 .29 0 .44-.01 5.57-.14 13.05-2.66 16.05-6.65l1.05-1.38c.58-.77.41-1.5.26-1.87-.26-.63-.83-1.12-1.53-1.32-.92.6-2.35 1-4.43 1.24-4.39.51-6.41-.05-8.18-.54-2.05-.56-3.81-1.05-9.25.15-5.54 1.23-8.43.64-11.5.01-2.76-.56-5.6-1.15-10.88-.31-3.73.59-6.31.37-7.85-.67h-.48z"/><path d="m45.65 53.03c-.23 0-.52-.05-.83-.25-.99-.63-1.59-2.35-1.89-5.4-.05-.55.35-1.04.9-1.09.55-.04 1.04.35 1.09.9.27 2.76.76 3.62.93 3.85.37.04.71.29.84.66.18.52-.09 1.09-.61 1.28-.08.01-.23.05-.43.05z"/><path d="m39.01 53.28c-.22 0-.5-.05-.8-.24-.99-.61-1.59-2.32-1.89-5.39-.05-.55.35-1.04.9-1.09s1.04.35 1.09.9c.27 2.73.73 3.59.9 3.82.36.04.69.27.83.64.2.52-.06 1.09-.58 1.29-.07.02-.23.07-.45.07zm-.26-1.95c0 .01 0 .01 0 0z"/><path d="m31.85 53.28c-.22 0-.5-.05-.8-.24-.99-.61-1.59-2.32-1.89-5.39-.05-.55.35-1.04.9-1.09s1.04.35 1.09.9c.27 2.73.73 3.59.9 3.82.36.04.69.27.83.64.2.52-.06 1.09-.58 1.29-.07.02-.24.07-.45.07zm-.26-1.95c0 .01-.01.01 0 0-.01.01 0 .01 0 0zm0 0s0 0 0 0z"/><path d="m25.54 53.28c-.22 0-.5-.05-.8-.24-.99-.61-1.59-2.32-1.89-5.39-.05-.55.35-1.04.9-1.09s1.04.35 1.09.9c.27 2.73.73 3.59.9 3.82.36.04.69.27.83.64.2.52-.06 1.09-.58 1.29-.07.02-.23.07-.45.07zm-.26-1.95c0 .01 0 .01 0 0zm0 0s0 0 0 0z"/></g></svg>