<svg id="Layer_1" enable-background="new 0 0 100 100" viewBox="0 0 100 100" xmlns="http://www.w3.org/2000/svg"><g><path d="m88.801 33.63c-2.203-4.235-6.713-5.441-8.588-5.769.236-.747.354-1.534.354-2.347 0-4.602-3.75-8.352-8.352-8.352-1.613 0-3.173.485-4.524 1.35-1.468-3.829-5.074-6.372-9.231-6.372-3.829 0-7.251 2.19-8.89 5.625-.865-.249-1.744-.406-2.649-.406-3.461 0-6.556 1.849-8.221 4.838-1.573-1.023-3.422-1.6-5.35-1.6-4.038 0-7.579 2.399-9.113 6.11-8.783 5.009-14.237 14.357-14.237 24.48v17.084c0 10.804 8.785 19.589 19.602 19.589h36.07c10.791 0 19.576-8.785 19.576-19.589v-17.084c0-.97-.039-1.927-.144-2.871 4.667-3.711 6.214-9.887 3.697-14.686zm-4.864 34.641c0 10.083-8.195 18.278-18.265 18.278h-36.096c-10.07 0-18.265-8.195-18.265-18.278v-17.084c0-9.165 4.681-17.661 12.325-22.591-.131.642-.197 1.285-.197 1.941 0 1.573.393 3.121 1.114 4.523-2.321 1.508-3.75 4.091-3.75 6.91 0 1.573.459 3.081 1.298 4.392-1.967 1.547-3.134 3.92-3.134 6.464 0 1.862.656 3.645 1.783 5.113-.538 1.219-.839 2.557-.839 3.907 0 5.336 4.34 9.676 9.69 9.676.367 0 .656-.302.656-.656v-18.762c0-15.026 11.814-27.482 26.315-27.757 7.264-.157 14.134 2.583 19.327 7.67 5.179 5.1 8.037 11.905 8.037 19.169v17.085zm.944-21.49c-.931-5.926-3.684-11.394-8.064-15.695-5.441-5.336-12.653-8.234-20.271-8.051-15.209.288-27.6 13.321-27.6 29.068v18.068c-4.314-.328-7.723-3.933-7.723-8.326 0-1.285.302-2.557.865-3.697.039-.079.066-.17.066-.249 0-.039-.013-.092-.013-.131s0-.079-.013-.118c-.026-.079-.079-.157-.131-.223-1.101-1.285-1.718-2.911-1.718-4.602 0-2.321 1.141-4.484 3.055-5.769.013 0 .013-.013.026-.013h.013c.026-.026.052-.066.079-.092.026-.026.052-.052.079-.092.026-.039.039-.079.052-.118s.026-.079.039-.118v-.131c0-.039 0-.079-.013-.118 0-.039-.026-.079-.052-.118-.013-.039-.013-.079-.039-.105l-.013-.013v-.013c-.918-1.206-1.39-2.648-1.39-4.156 0-2.544 1.377-4.891 3.606-6.11h.013.013c.039-.026.066-.066.092-.092s.066-.052.092-.079c.026-.039.039-.079.052-.118.026-.039.039-.066.052-.105s.013-.079.013-.118c0-.052.013-.092.013-.131-.013-.039-.026-.079-.039-.118s-.013-.092-.039-.118c0-.013 0-.013-.013-.013v-.013c-.8-1.337-1.219-2.871-1.219-4.419 0-1.088.197-2.137.603-3.134 1.285-3.343 4.432-5.494 7.998-5.494 1.94 0 3.815.642 5.284 1.823.288.223.695.17.918-.105.131-.157.157-.341.131-.524 1.39-2.727 4.143-4.432 7.238-4.432.957 0 1.888.157 2.767.472.039.013.079.013.118.013.039.013.079.026.131.026.039 0 .079-.013.131-.026.039-.013.079-.013.105-.026.039-.026.079-.052.105-.079.039-.026.079-.039.105-.066.039-.039.052-.079.079-.118.013-.026.039-.052.052-.092 1.337-3.239 4.458-5.323 7.946-5.323 3.789 0 7.08 2.426 8.208 6.031-.013.17.026.341.144.485.236.275.642.328.931.092 1.259-1.023 2.845-1.586 4.471-1.586 3.881 0 7.041 3.16 7.041 7.041 0 .918-.184 1.796-.524 2.622-.013.039-.013.066-.026.105s-.026.066-.026.105v.026c0 .039.013.079.013.118.013.052.013.092.026.131.013.026.026.052.039.066.026.052.052.105.092.157.013.013.026.013.039.026.052.052.105.092.184.118v.013h.039c.052.026.105.039.17.052.236.013 5.926.524 8.365 5.179 2.071 3.975.878 9.233-2.767 12.55z"/><path d="m84.881 46.781c-.931-5.926-3.684-11.394-8.064-15.695-5.441-5.336-12.653-8.234-20.271-8.051-15.209.288-27.6 13.321-27.6 29.068v18.068c-4.314-.328-7.723-3.933-7.723-8.326 0-1.285.302-2.557.865-3.697.039-.079.066-.17.066-.249 0-.039-.013-.092-.013-.131s0-.079-.013-.118c-.026-.079-.079-.157-.131-.223-1.101-1.285-1.718-2.911-1.718-4.602 0-2.321 1.141-4.484 3.055-5.769.013 0 .013-.013.026-.013h.013c.026-.026.052-.066.079-.092.026-.026.052-.052.079-.092.026-.039.039-.079.052-.118s.026-.079.039-.118v-.131c0-.039 0-.079-.013-.118 0-.039-.026-.079-.052-.118-.013-.039-.013-.079-.039-.105l-.013-.013v-.013c-.918-1.206-1.39-2.648-1.39-4.156 0-2.544 1.377-4.891 3.606-6.11h.013.013c.039-.026.066-.066.092-.092s.066-.052.092-.079c.026-.039.039-.079.052-.118.026-.039.039-.066.052-.105s.013-.079.013-.118c0-.052.013-.092.013-.131-.013-.039-.026-.079-.039-.118s-.013-.092-.039-.118c0-.013 0-.013-.013-.013v-.013c-.8-1.337-1.219-2.871-1.219-4.419 0-1.088.197-2.137.603-3.134 1.285-3.343 4.432-5.494 7.998-5.494 1.94 0 3.815.642 5.284 1.823.288.223.695.17.918-.105.131-.157.157-.341.131-.524 1.39-2.727 4.143-4.432 7.238-4.432.957 0 1.888.157 2.767.472.039.013.079.013.118.013.039.013.079.026.131.026.039 0 .079-.013.131-.026.039-.013.079-.013.105-.026.039-.026.079-.052.105-.079.039-.026.079-.039.105-.066.039-.039.052-.079.079-.118.013-.026.039-.052.052-.092 1.337-3.239 4.458-5.323 7.946-5.323 3.789 0 7.08 2.426 8.208 6.031-.013.17.026.341.144.485.236.275.642.328.931.092 1.259-1.023 2.845-1.586 4.471-1.586 3.881 0 7.041 3.16 7.041 7.041 0 .918-.184 1.796-.524 2.622-.013.039-.013.066-.026.105s-.026.066-.026.105v.026c0 .039.013.079.013.118.013.052.013.092.026.131.013.026.026.052.039.066.026.052.052.105.092.157.013.013.026.013.039.026.052.052.105.092.184.118v.013h.039c.052.026.105.039.17.052.236.013 5.926.524 8.365 5.179 2.071 3.975.878 9.233-2.767 12.55z" fill="#87d147"/><path d="m75.899 32.017c-5.192-5.087-12.063-7.828-19.327-7.67-14.501.275-26.315 12.731-26.315 27.757v18.763c0 .354-.288.656-.656.656-5.35 0-9.69-4.34-9.69-9.676 0-1.351.302-2.688.839-3.907-1.128-1.468-1.783-3.252-1.783-5.113 0-2.544 1.167-4.917 3.134-6.464-.839-1.311-1.298-2.819-1.298-4.392 0-2.819 1.429-5.402 3.75-6.91-.721-1.403-1.114-2.95-1.114-4.523 0-.656.066-1.298.197-1.941-7.644 4.93-12.325 13.426-12.325 22.591v17.084c0 10.083 8.195 18.278 18.265 18.278h36.096c10.07 0 18.265-8.195 18.265-18.278v-17.085c0-7.264-2.859-14.069-8.038-19.17zm-4.655 32.714c-.131.131-.302.197-.472.197-.157 0-.328-.066-.459-.197l-6.202-6.202-5.468 5.468 6.202 6.202c.262.249.262.669 0 .931-.131.118-.288.184-.459.184s-.341-.066-.472-.184l-6.189-6.202-6.202 6.202c-.131.118-.302.184-.472.184s-.328-.066-.459-.184c-.262-.262-.262-.682 0-.931l6.202-6.202-5.468-5.468-6.202 6.202c-.131.131-.302.197-.459.197-.17 0-.341-.066-.472-.197-.249-.262-.249-.669 0-.931l6.202-6.202-6.031-6.031c-.262-.249-.262-.669 0-.931.262-.249.669-.249.931 0l6.031 6.045 5.468-5.468-6.031-6.044c-.262-.249-.262-.669 0-.918.249-.262.669-.262.918 0l6.045 6.031 6.031-6.031c.249-.262.669-.262.931 0 .249.249.249.669 0 .918l-6.045 6.044 5.468 5.468 6.031-6.045c.262-.249.682-.249.931 0 .262.262.262.682 0 .931l-6.031 6.031 6.202 6.202c.25.262.25.669 0 .931z" fill="#fdb97e"/><path d="m71.244 63.8-6.202-6.202 6.031-6.031c.262-.249.262-.669 0-.931-.249-.249-.669-.249-.931 0l-6.031 6.045-5.468-5.468 6.045-6.044c.249-.249.249-.669 0-.918-.262-.262-.682-.262-.931 0l-6.031 6.031-6.045-6.031c-.249-.262-.669-.262-.918 0-.262.249-.262.669 0 .918l6.031 6.044-5.468 5.468-6.031-6.045c-.262-.249-.669-.249-.931 0-.262.262-.262.682 0 .931l6.031 6.031-6.2 6.202c-.249.262-.249.669 0 .931.131.131.302.197.472.197.157 0 .328-.066.459-.197l6.202-6.202 5.468 5.468-6.202 6.202c-.262.249-.262.669 0 .931.131.118.288.184.459.184s.341-.066.472-.184l6.202-6.202 6.189 6.202c.131.118.302.184.472.184s.328-.066.459-.184c.262-.262.262-.682 0-.931l-6.202-6.202 5.468-5.468 6.202 6.202c.131.131.302.197.459.197.17 0 .341-.066.472-.197.248-.262.248-.669-.002-.931zm-13.518-.734-5.468-5.468 5.468-5.468 5.454 5.468z"/><path d="m63.181 57.598-5.455 5.468-5.467-5.468 5.467-5.467z" fill="#fdb97e"/></g></svg>