<svg height="512" viewBox="0 0 512 512" width="512" xmlns="http://www.w3.org/2000/svg"><g id="_41.Satay" data-name="41.Satay"><path d="m167.85 362.88-139.4 139.41a13.2512 13.2512 0 0 1 -18.74-18.74l139.41-139.4a102.9328 102.9328 0 0 0 18.73 18.73z" fill="#cfdce5"/><path d="m252.0827 368.0579c-19.79 19.79-55.54 16.93-84.23-5.18a102.9328 102.9328 0 0 1 -18.73-18.73c-22.11-28.69-24.97-64.44-5.18-84.23 22.17-22.17 64.35-15.93 94.21 13.93s36.1 72.04 13.93 94.21z" fill="#e9986b"/><path d="m163.2661 358.2906c.6577.8556 1.3295 1.7113 2.0294 2.5526a99.7811 99.7811 0 0 1 -7.4175-6.7246 100.8279 100.8279 0 0 1 -8.754-9.97c-22.1112-28.6872-24.9679-64.4386-5.1831-84.2234 22.1749-22.1749 64.3467-15.9382 94.2078 13.9229a99.6519 99.6519 0 0 1 6.7246 7.4175c-29.0833-23.95-66.3973-27.5912-86.79-7.1983-19.7851 19.7847-16.9283 55.536 5.1828 84.2233z" fill="#d68c67"/><path d="m332.3528 287.7878c-19.79 19.79-55.54 16.93-84.23-5.18a102.9328 102.9328 0 0 1 -18.73-18.73c-22.11-28.69-24.97-64.44-5.18-84.23 22.17-22.17 64.35-15.93 94.21 13.93s36.0999 72.04 13.93 94.21z" fill="#e9986b"/><path d="m243.5362 278.0205c.6576.8557 1.3294 1.7113 2.0294 2.5527a99.8244 99.8244 0 0 1 -7.4176-6.7246 100.8767 100.8767 0 0 1 -8.754-9.97c-22.1111-28.6873-24.9679-64.4386-5.183-84.2235 22.1748-22.1749 64.3467-15.9382 94.2078 13.9229a99.6532 99.6532 0 0 1 6.7246 7.4176c-29.0833-23.95-66.3973-27.5913-86.79-7.1984-19.7852 19.7847-16.9284 55.536 5.1828 84.2233z" fill="#d68c67"/><path d="m412.6229 207.5177c-19.79 19.79-55.54 16.93-84.23-5.18a102.95 102.95 0 0 1 -18.73-18.73c-22.11-28.69-24.97-64.44-5.18-84.23 22.17-22.17 64.35-15.93 94.21 13.93s36.0999 72.0401 13.93 94.21z" fill="#e9986b"/><path d="m323.8062 197.7505c.6577.8556 1.3295 1.7113 2.0294 2.5526a99.7811 99.7811 0 0 1 -7.4175-6.7246 100.8279 100.8279 0 0 1 -8.754-9.97c-22.1112-28.6873-24.9679-64.4386-5.1831-84.2234 22.1749-22.1749 64.3467-15.9382 94.2078 13.9229a99.6519 99.6519 0 0 1 6.7246 7.4175c-29.0833-23.95-66.3973-27.5912-86.79-7.1983-19.7851 19.7847-16.9283 55.536 5.1828 84.2233z" fill="#d68c67"/><path d="m492.8929 127.2477c-19.79 19.79-55.54 16.93-84.23-5.18a102.9328 102.9328 0 0 1 -18.73-18.73c-22.11-28.69-24.97-64.44-5.18-84.23 22.17-22.17 64.35-15.93 94.21 13.93s36.0999 72.04 13.93 94.21z" fill="#e9986b"/><path d="m404.0763 117.48c.6576.8557 1.3294 1.7113 2.0294 2.5527a99.8244 99.8244 0 0 1 -7.4176-6.7246 100.8625 100.8625 0 0 1 -8.7539-9.97c-22.1112-28.6871-24.968-64.4381-5.1831-84.2233 22.1749-22.1748 64.3467-15.9382 94.2078 13.9229a99.6532 99.6532 0 0 1 6.7246 7.4176c-29.0833-23.95-66.3973-27.5913-86.79-7.1984-19.7851 19.7849-16.9284 55.5362 5.1828 84.2231z" fill="#d68c67"/><path d="m19.0742 511.1582a18.2385 18.2385 0 0 1 -12.9042-31.1406l139.414-139.4043a5.0009 5.0009 0 0 1 7.5024.4922 97.8371 97.8371 0 0 0 17.8072 17.8076 5 5 0 0 1 .4917 7.5019l-139.4 139.41a18.22 18.22 0 0 1 -12.9111 5.3332zm129.6612-159.5537-135.4908 135.4814a8.2512 8.2512 0 1 0 11.6729 11.6651l135.477-135.4873c-2.0727-1.7793-4.0966-3.6543-6.05-5.6074s-3.8294-3.9776-5.6091-6.0518z"/><path d="m217.5015 386.3535c-17.1094 0-35.9009-6.5674-52.7012-19.5156a107.85 107.85 0 0 1 -19.6445-19.6465c-24.0967-31.2676-26.0962-69.4619-4.7491-90.8086 24.0826-24.0849 69.5166-17.8359 101.2813 13.93 31.7637 31.7637 38.0127 77.1982 13.93 101.28-9.8802 9.8808-23.3748 14.7607-38.1165 14.7607zm-39.0137-134.7422c-12.0557 0-23.0147 3.8467-31.01 11.8418-17.7466 17.7471-15.39 50.4 5.605 77.6426a97.8595 97.8595 0 0 0 17.8135 17.8154c27.25 21.001 59.9038 23.3565 77.65 5.6114 20.1836-20.1836 13.9345-59.2745-13.93-87.14-16.8263-16.8259-37.7496-25.7712-56.1285-25.7712z"/><path d="m297.7729 306.084c-17.1093 0-35.9018-6.5684-52.7026-19.5166a107.9836 107.9836 0 0 1 -19.644-19.6445c-24.0967-31.2686-26.0962-69.4639-4.7491-90.8106 11.8692-11.8691 29.0909-16.8291 48.4883-13.957 18.8482 2.7871 37.5972 12.6914 52.793 27.8877s25.1 33.9443 27.8867 52.792c2.8692 19.3994-2.0874 36.62-13.9565 48.4882-9.8804 9.8809-23.3741 14.7608-38.1158 14.7608zm-39.0937-134.7188c-12.41 0-23.1807 4.0674-30.9307 11.8174-17.7465 17.7471-15.39 50.4 5.6045 77.6436a97.9806 97.9806 0 0 0 17.8135 17.8144c15.0225 11.5772 31.6909 17.4883 46.5947 17.49 12.1319 0 23.0928-3.9151 31.0562-11.878 9.5752-9.5752 13.53-23.7646 11.1357-39.955-2.4756-16.7393-11.3774-33.4961-25.0659-47.1846s-30.4453-22.59-47.1846-25.0654a61.6186 61.6186 0 0 0 -9.0234-.6824z"/><path d="m378.0425 225.8135c-17.1094 0-35.9014-6.5684-52.7022-19.5147a107.9347 107.9347 0 0 1 -19.6445-19.6474c-24.0958-31.2676-26.0958-69.4614-4.7485-90.8086 11.8691-11.87 29.0879-16.8272 48.4882-13.958 18.8482 2.7881 37.5972 12.6914 52.793 27.8877 31.7637 31.7636 38.0127 77.1982 13.93 101.28-9.8802 9.8811-23.3743 14.761-38.116 14.761zm-39.0925-134.7178c-12.41 0-23.1816 4.0674-30.9316 11.8174-17.7471 17.7471-15.39 50.4 5.6044 77.6426a97.9309 97.9309 0 0 0 17.814 17.8164c27.251 21 59.9038 23.3564 77.65 5.61 20.1836-20.1836 13.9346-59.2744-13.93-87.14-13.688-13.6885-30.4453-22.59-47.1845-25.0655a61.7555 61.7555 0 0 0 -9.0223-.6809z"/><path d="m458.313 145.5439c-17.1094 0-35.9019-6.5683-52.7026-19.5166a107.9715 107.9715 0 0 1 -19.6441-19.6445c-24.0967-31.2685-26.0962-69.4639-4.749-90.81 11.8691-11.8692 29.09-16.8291 48.4883-13.9571 18.8481 2.7871 37.5971 12.6914 52.7929 27.8877s25.1 33.9444 27.8868 52.792c2.8691 19.3994-2.0874 36.6192-13.9566 48.4883-9.8804 9.8804-23.374 14.7602-38.1157 14.7602zm-39.0938-134.7187c-12.41 0-23.1806 4.0674-30.9306 11.8174-17.7466 17.747-15.39 50.4 5.6045 77.6435a97.9721 97.9721 0 0 0 17.8134 17.8145c15.0225 11.5771 31.691 17.4883 46.5948 17.49 12.1318 0 23.0927-3.915 31.0561-11.8779 9.5752-9.5752 13.53-23.7647 11.1358-39.9551-2.4756-16.7392-11.3775-33.4961-25.066-47.1846s-30.4453-22.59-47.1845-25.0654a61.6292 61.6292 0 0 0 -9.0235-.6824z"/></g></svg>