<svg id="Capa_1" enable-background="new 0 0 512.002 512.002" height="512" viewBox="0 0 512.002 512.002" width="512" xmlns="http://www.w3.org/2000/svg"><g><g><path d="m351.981 290.012 5.917 7.273h1.95c5.815-3.654 8.784-10.822 6.801-17.756l-13.305-46.525h-4.07l-11.367 6.484z" fill="#5169cd"/><path d="m158.481 281.428v5.333l7.329 10.518h3.208c3.195-2.004 5.7-5.134 6.819-9.046l11.019-38.53-1.458-4.149-13.094-9.888z" fill="#5169cd"/><path d="m353.03 288.238-13.648-49.592-12.984 7.407-1.228 3.65 11.021 38.535c2.404 8.407 11.167 13.28 19.584 10.874 1.476-.422 2.836-1.05 4.073-1.828-3.196-2.004-5.7-5.135-6.818-9.046z" fill="#3351c5"/><path d="m162.218 279.523 12.106-42.332-8.514-6.429-7.127 2.241-13.304 46.52c-2.405 8.411 2.463 17.178 10.874 19.584 4.496 1.287 9.089.478 12.765-1.828-5.814-3.654-8.783-10.821-6.8-17.756z" fill="#3351c5"/><path d="m283.763 10.692h-16.146l-43.802 27.07-27.167 42.667-8.239 23h180.739l4.638-4.059c-10.974-43.913-45.86-78.349-90.023-88.678z" fill="#8dcafc"/><path d="m193.741 99.369c10.974-43.912 45.86-78.348 90.023-88.677-8.913-2.085-18.202-3.192-27.75-3.192-56.86 0-104.583 39.095-117.773 91.869l6.524 4.059h55.5z" fill="#31a7fb"/><path d="m374.398 181.678h-187.542v28.417l5.292 7.936 39.333 30.398 38 13.333 7.536 1.836c36.384-4.646 69.044-21.185 93.966-45.607 5.773-5.658 8.962-13.446 8.962-21.53v-10.563z" fill="#e2d8ec"/><path d="m196.544 217.991c-5.773-5.658-8.961-13.446-8.961-21.53v-10.563l5.533-4.22h-55.5l-5.533 4.22v10.563c0 8.083 3.188 15.872 8.961 21.53 26.096 25.572 60.673 42.512 99.13 46.193h31.679c4.015-.384 7.985-.922 11.911-1.59-33.672-5.731-63.849-21.701-87.22-44.603z" fill="#d5c6e4"/><path d="m373.786 99.369h-183.923l-3.006 8.392v33.417h186.042l4.279-4.85c.148-2.459.233-4.935.233-7.432-.001-10.184-1.262-20.074-3.625-29.527z" fill="#d5c6e4"/><path d="m190.117 128.897c0-10.185 1.261-20.074 3.624-29.527h-55.5c-2.363 9.453-3.624 19.342-3.624 29.527 0 2.496.084 4.973.233 7.432l6.298 4.85h55.5l-6.298-4.85c-.149-2.46-.233-4.936-.233-7.432z" fill="#c6b4da"/><path d="m264.433 220.471h-3.285l-6.333 10.291v58.667l3.333 5.833 6.285 2.017c4.452-2.804 7.42-7.749 7.42-13.4v-50.009c0-5.65-2.968-10.596-7.42-13.399z" fill="#5169cd"/><path d="m257.013 283.879v-50.009c0-5.65 2.968-10.596 7.42-13.4-2.441-1.537-5.322-2.44-8.42-2.44-8.748 0-15.839 7.092-15.839 15.84v50.009c0 8.748 7.092 15.84 15.839 15.84 3.098 0 5.979-.903 8.42-2.44-4.453-2.804-7.42-7.75-7.42-13.4z" fill="#3351c5"/><path d="m398.725 136.328h-234.828l-4.583 1.933-5.333 6.667v32.833l3 4.5 6.141 3.636h235.603c7.204 0 13.044-5.84 13.044-13.044v-23.482c-.001-7.203-5.84-13.043-13.044-13.043z" fill="#f9f6f6"/><path d="m155.758 172.854v-23.482c0-7.204 5.84-13.044 13.044-13.044h-55.5c-7.204 0-13.044 5.84-13.044 13.044v23.482c0 7.204 5.84 13.044 13.044 13.044h55.5c-7.204 0-13.044-5.84-13.044-13.044z" fill="#e2d8ec"/></g><g><path d="m95.44 511.711c3.982 1.139 8.135-1.166 9.273-5.149l57.016-199.368c9.597-.458 18.448-6.902 21.307-16.899l8.683-30.359c13.104 5.3 26.86 8.995 40.943 10.921v13.022c0 10.246 6.639 18.965 15.84 22.097v198.524c0 4.142 3.357 7.5 7.5 7.5s7.5-3.358 7.5-7.5v-198.525c9.201-3.131 15.84-11.85 15.84-22.097v-13.022c14.083-1.926 27.839-5.62 40.943-10.921l8.683 30.364c2.817 9.849 11.596 16.394 21.302 16.878l57.019 199.38c1.138 3.978 5.283 6.288 9.273 5.149 3.982-1.139 6.287-5.291 5.148-9.273l-57.016-199.369c7.984-5.541 11.97-15.748 9.153-25.599l-11.9-41.615c14.233-11.146 25.485-21.234 25.485-39.39v-3.063h11.281c11.327 0 20.543-9.216 20.543-20.544v-23.482c0-11.328-9.216-20.544-20.543-20.544h-13.816c-.001-1.494-.034-2.986-.086-4.477-.889-25.43-9.153-49.739-23.912-70.369-2.409-3.37-7.096-4.146-10.463-1.736-3.369 2.41-4.146 7.095-1.736 10.463 6.467 9.04 11.492 18.848 15.035 29.16h-90.234c-4.143 0-7.5 3.358-7.5 7.5s3.357 7.5 7.5 7.5h94.263c1.439 7.34 2.129 14.868 2.135 21.959h-227.793c.004-7.116.691-14.583 2.146-21.959h94.25c4.143 0 7.5-3.358 7.5-7.5s-3.357-7.5-7.5-7.5h-90.212c15.401-44.679 57.867-76.868 107.712-76.868 25.569 0 49.729 8.281 69.867 23.947 3.269 2.542 7.981 1.957 10.525-1.314 2.543-3.269 1.955-7.981-1.314-10.524-22.797-17.735-50.141-27.109-79.078-27.109-69.485 0-126.932 55.505-128.84 125.2-.034 1.206-.055 2.415-.056 3.628h-13.815c-11.328 0-20.544 9.216-20.544 20.544v23.482c0 11.328 9.216 20.544 20.544 20.544h11.28v3.063c0 18.151 11.243 28.239 25.485 39.39l-11.9 41.61c-2.816 9.851 1.171 20.059 9.154 25.598l-57.019 199.379c-1.139 3.982 1.166 8.134 5.149 9.273zm73.174-225.54c-1.263 4.419-5.867 6.998-10.31 5.725-4.422-1.265-6.99-5.89-5.727-10.311l10.434-36.483c4.815 3.104 9.791 5.971 14.894 8.581zm95.728-2.292c0 4.599-3.741 8.34-8.34 8.34s-8.34-3.741-8.34-8.34c0-9.712 0-38.078 0-50.009 0-4.598 3.741-8.339 8.34-8.339s8.34 3.741 8.34 8.339zm89.359 8.022c-4.422 1.264-9.048-1.305-10.312-5.725l-9.291-32.492c5.102-2.61 10.078-5.478 14.893-8.581l10.435 36.487c1.264 4.422-1.304 9.047-5.725 10.311zm-240.41-113.503c-3.057 0-5.544-2.487-5.544-5.544v-23.482c0-3.057 2.487-5.544 5.544-5.544h285.423c3.057 0 5.543 2.487 5.543 5.544v23.482c0 3.057-2.486 5.544-5.543 5.544-1.755 0-281.215 0-285.423 0zm32.99 34.236c-4.265-4.179-6.71-10.073-6.71-16.173v-3.063h232.861v3.063c0 6.099-2.446 11.994-6.71 16.173-23.565 23.092-53.978 38.204-86.381 43.074v-21.838c0-12.869-10.47-23.339-23.34-23.339s-23.34 10.47-23.34 23.339v21.838c-32.402-4.87-62.815-19.982-86.38-43.074z"/></g></g></svg>