<svg clip-rule="evenodd" fill-rule="evenodd" height="1.707in" image-rendering="optimizeQuality" shape-rendering="geometricPrecision" text-rendering="geometricPrecision" viewBox="0 0 1.70666 1.70666" width="1.707in" xmlns="http://www.w3.org/2000/svg"><g id="Layer_x0020_1"><path d="m1.49436.339587c-.010752 0-.0196378-.00853937-.0199724-.019374-.00072441-.022878-.0100276-.0444055-.0262362-.0606063-.0176969-.0177087-.0413504-.0271417-.0662953-.0262362-.0110276.00022047-.0202913-.00832283-.020622-.0193622-.00034646-.0110394.00833465-.0202598.0193583-.020622.0360157-.00107087.0706417.0127087.0958622.0379291.0234331.0234331.0368858.0545551.0379173.0876378.00033465.0110394-.00833858.0202638-.019378.0206102-.00022047.00002362-.00042913.00002362-.00063386.00002362zm-.30098.54476c-.0693858 0-.13587-.0188661-.193602-.0541614l-.0454724.0454803.0200315.0200315c.0374331.0374409.0374331.0983701 0 .135819l-.0510394.0510394.0602323.0602323.0466142-.0466142c.0078189-.0078189.0204882-.0078189.0282913 0l.108531.108535.00037008.00036221.00036221.00037008.109583.109579.00030709.00030315.00020079.00020472.108665.108669c.00782283.00782283.00782283.0204882 0 .0282913l-.123.123012-.00058661.00061024-.00062598.00059843-.122988.123c-.00374016.00376378-.0088189.00587402-.014126.00587402-.00530709 0-.0103898-.00211024-.0141535-.0058622l-.108484-.10848-.00041732-.00040551-.00040551-.00041732-.218728-.21872c-.00374803-.00376378-.0058622-.00884252-.0058622-.0141496 0-.00530709.00211024-.0103898.0058622-.0141535l.046622-.046626-.0602402-.0602362-.0819094.0819094-.00036221.00037008-.00018504.0001811-.00018504.00017717-.0808504.0808543c-.0180945.0180945-.0422047.0280512-.0679134.0280512-.0188661 0-.0368819-.0053622-.0522835-.0153661l-.0636063.0636063c-.0134134.0133819-.0312835.0207874-.0503465.0207874-.0190551 0-.0369291-.00738976-.0503346-.0207913l-.0917598-.0917638c-.0279173-.0279134-.0279173-.073315 0-.101232l.0192559-.0192559.00051181-.0005315.0005315-.00051181.0430276-.0430276c-.0241654-.0372165-.0199567-.0876102.0126457-.120213l.163508-.163508-.060248-.060248-.0466339.0466339c-.00375197.00374803-.00883465.00585827-.0141417.00585827-.00530709 0-.0103858-.00211024-.0141339-.0058622l-.218953-.218953-.00018504-.0001811-.00005906-.00006299-.108843-.108839c-.00374409-.00374803-.0058622-.00883465-.0058622-.0141378s.00211024-.0103898.0058622-.0141378l.123173-.123165.00043701-.00044882.00044095-.00042913.123169-.123157c.00780709-.00782283.0204724-.00782283.0282795 0l.108516.108516.00037008.00036221.00036221.00037008.109157.109157.00074409.00070866.00070866.00074409.108161.108161c.00782283.00780709.00782283.0204724 0 .0282795l-.046622.046626.060252.060252.0510472-.0510472c.0180827-.0180827.0421929-.0280433.0679134-.0280433s.0498307.00996063.0679173.0280276l.0200472.0200472.0456575-.0456693c-.0697717-.115295-.0729921-.263161-.00313386-.381996-.0233583-.0288465-.0216378-.0714252.00516929-.098248.0286496-.0286693.0753071-.0286693.104012 0l.144929.144925.161933-.0303228c.00164961-.0149724.00820079-.0295079.0196575-.0409685.0129724-.0129685.0302205-.0201102.0485591-.0201102.0183346 0 .0355945.00714173.0485551.0201102.0267638.0267677.0267638.0703189 0 .0970984-.0111535.0111457-.0254646.0179843-.0409055.019689l-.0301339.162185.145996.145988c.0286535.0286654.0286535.0753346 0 .104-.0143661.0143071-.0332008.0214803-.0520276.0214803-.0164134 0-.0328307-.00544488-.0462638-.0163346-.0569961.033563-.121866.0512205-.188567.0512205zm-.227091-.0772559c-.00806693-.00624016-.0159094-.0128346-.0235157-.0197756l-.00003937-.00003543-.00055512-.00050787-.00055118-.00050787-.00055512-.00050787-.00055118-.00051181-.00055118-.00051181-.00055118-.00051181-.00251969-.00237795-.0002126-.00020079c-.00217717-.0020748-.00433465-.00416929-.00646063-.00629528-.011315-.0113189-.0219409-.0234016-.0317205-.0360709l-.0402835.0403031.0677874.0677874.0402795-.0402756zm-.0552756-.500894.00071654.0006811.486976.486992.00052362.00054331.00526772.00526772c.0130827.0130709.0343622.0130551.0474449 0 .0130512-.0130709.0130512-.0343622-.00001575-.0474449l-.153299-.153299-.0959882-.0959882-.096685-.096689-.00037402-.00037008-.152224-.152228c-.0130827-.0130709-.034374-.0130709-.0474331 0-.0130827.0130827-.0130827.0343622 0 .0474449l.00509055.00509055zm-.00941339.0471496c-.0694803.12765-.0472283.289575.0569331.393736.0028622.0028622.00576378.00566142.00870866.00840551l.00024803.00022835.00049606.00046063.00223228.00204724.00031496.0002874.00043307.00038976.00075197.00067323.00075197.00067323c.0113031.0100748.0232717.019374.0357441.0277756.00036614.00024803.00072441.00050787.0010748.00077559.0540591.0361496.117575.0555591.184083.0555591.0559173 0 .110346-.0138898.158874-.0403465l-.321886-.321906-.12876-.12876zm.394236.0259724-.13498.0252756.0559449.0559409.0797992-.0797874-.00076378-.00142913zm.00409055.164358.0250276-.134709-.079878.0798622.0548504.0548465zm.0567992-.224768c-.00766929 0-.0148465.00297244-.0202638.00838976-.0111811.0111811-.0111811.0293583 0 .0405276.0108189.0108189.0297047.0108189.0405315 0 .0111772-.0111772.0111772-.0293583 0-.0405276-.0054252-.00541732-.012622-.00838976-.0202677-.00838976zm-.859382.589079.0974016-.0974016-.060248-.060248-.0487047.0487008-.00009055.00009055-.0486063.0486063.060248.060252zm.397657.202862-.0584409.0584409-.0389567.0389646.0602323.0602323.0974016-.0974016-.0602362-.0602362zm-.15302-.367614c-.0150276 0-.0291102.0057874-.0396339.0163189l-.0650079.0650039-.00017323.00017717-.125677.125677-.00018504.0001811-.0820945.0820945.243693.243689.0819291-.0819291.00034646-.00035827.125669-.125693.00067323-.0006378.0645118-.0645118c.0218465-.0218465.0218465-.0574173 0-.079248l-.164429-.164445c-.0105118-.0105236-.0245984-.0163189-.039622-.0163189zm-.341055.317736-.0670906.0670906c-.0218465.0218346-.0218465.0574016 0 .0792638l.164429.164413c.0105315.0105315.0245984.0163189.0396378.0163189s.0291142-.0057874.0396378-.0163189l.0670827-.0670827-.243697-.243685zm-.352626-.480496.0806102.0806181.0953268-.0953346-.0806102-.0806102-.0953268.0953268zm.10889.108898.0819606.0819685.0953346-.0953346-.0819685-.0819685-.0953268.0953346zm.110236.110244.0806142.0806181.0464567-.0464567.00017323-.00017717.0487047-.0487047-.0806142-.0806142-.0953346.0953346zm.204224-.0429961.0486969-.0486969.046622-.0466299-.0806102-.0806102-.0953228.0953228.0806142.0806142zm-.0135669-.204213-.0819724-.0819724-.0953189.0953268.0819685.0819685.0953228-.0953228zm-.110252-.110252-.0806063-.0806063-.0953228.0953228.0806102.0806102.0953189-.0953268zm.477535.915406.0806024.0805984.0953228-.0953307-.0805984-.0805945zm.108894.10889.0819528.0819449.0953228-.0953228-.0819528-.0819528zm.110248.11024.0806181.0806142.095315-.0953268-.0806102-.0806102-.0953228.0953228zm.204228-.0430079.095315-.0953228-.0806063-.0806063-.0953189.0953189zm-.0135866-.20422-.0819567-.0819567-.095315.0953189.0819528.0819528zm-.110252-.110252-.0805906-.0805906-.0953189.0953189.0805984.0805945.095311-.0953228zm-.805201.0305315-.0279291.0279252.13613.136146.0279331-.027937-.0954606-.0954606-.0406732-.0406732zm-.0562126.0562087-.0056378.0056378c-.0123031.0123031-.0123031.0323346 0 .0446496l.0917638.0917598c.0117047.0117244.0324055.0117402.0441102 0l.00589764-.00589764-.136134-.13615zm.639228-.305193c-.00567717 0-.011315-.00241732-.0152874-.00709843-.00714173-.00841339-.00608661-.0210551.0023622-.0281772.00842913-.00712205.0211378-.0061378.0282598.00227953.0071378.00842913.00616929.0209843-.00226378.0281063l-.00017717.00015354c-.00373622.0031811-.00833465.00473622-.0128937.00473622zm-.0532047.0532126c-.00511417 0-.0102362-.00196063-.0141378-.00586614-.0078189-.0078189-.0078189-.0204882 0-.0282913.00780709-.00780709.0205433-.00787402.0283622-.00008661.00782283.00782283.00788976.0204055.00008661.0282126l-.00016929.00016535c-.00390551.00391732-.00903543.00586614-.0141417.00586614zm-.0531969.0532047c-.0049685 0-.00995669-.00184646-.0138465-.00555512-.00797244-.00765354-.00823622-.0203031-.00059843-.0282756.00762598-.00797244.020374-.00833465.0283622-.00069291.00797244.00765354.0083189.0202205.0006811.0281929l-.00014961.00016929c-.00394882.00409449-.00919685.00616142-.0144488.00616142zm-.0532205.0532087c-.00484646 0-.00970866-.00176378-.0135551-.00530709-.00811024-.00750394-.00862205-.0201535-.0011378-.0282638.0074685-.0081378.0202205-.00870866.0283465-.00122441.00812598.00748819.00870866.0200591.00120472.0281693l-.00016535.00017717c-.00392913.00427953-.00930315.00644882-.0146929.00644882zm-.0532087.0532047c-.00512205 0-.0102362-.00195669-.0141339-.0058622-.00782283-.00782283-.00782283-.0204882 0-.0282953.0077874-.00780709.0205551-.00787402.0283622-.00008268.0078189.0078189.00788976.0204016.00008268.0282087l-.00016929.00016929c-.00390551.00390551-.00901575.0058622-.0141417.0058622zm.996764-.874004c-.0109449 0-.019874-.00880315-.0199843-.0197638-.00086221-.0741063-.0301811-.143776-.0825669-.196165-.0541102-.054122-.126358-.0835394-.20265-.0825551-.00008268 0-.00016535 0-.00023622 0-.0109409 0-.0198701-.00880315-.0199803-.0197638-.0001378-.0110394.00872441-.0200984.0197598-.0202362.0870394-.00102756.169594.0324724.231402.0942795.0598307.0598189.0933031.139374.0942598.22398.00013386.0110394-.00872441.0200984-.0197638.0202362-.00009055-.00001181-.00016929-.00001181-.00024016-.00001181zm-.0894016 0c-.0109016 0-.0198228-.00873228-.0199843-.0196772-.0008189-.050252-.0208346-.0975-.0563858-.133028-.0372087-.0372087-.0862638-.0576693-.139335-.056374-.0108307-.00011024-.0201339-.0086378-.0203189-.0196772-.00019291-.0110394.00862598-.0201378.0196693-.0203228.0632756-.0009685.123346.0231575.168276.0680866.0429291.0429173.0671142.0999803.0680669.160677.0001811.0110394-.00862205.0201378-.0196693.0203228-.00009843-.00000787-.00020866-.00000787-.0003189-.00000787z" fill="#000002"/><path d="m1.10558.40589-.152224-.152228c-.0130827-.0130709-.034374-.0130709-.0474331 0-.0130827.0130827-.0130827.0343622 0 .0474449l.00509055.00509055.00071654.0006811.486976.486992.00052362.00054331.00526772.00526772c.0130827.0130709.0343622.0130551.0474449 0 .0130512-.0130709.0130512-.0343622-.00001575-.0474449l-.153299-.153299-.0959882-.0959882-.096685-.096689-.00037402-.00037008z" fill="#e7ecff"/><path d="m1.33646.327299c-.0111811.0111811-.0111811.0293583 0 .0405276.0108189.0108189.0297047.0108189.0405315 0 .0111772-.0111772.0111772-.0293583 0-.0405276-.0054252-.00541732-.012622-.00838976-.0202677-.00838976-.00766929 0-.0148465.00297244-.0202638.00838976z" fill="#76736f"/><path d="m1.35225.804012-.321886-.321906-.12876-.12876c-.0694803.12765-.0472283.289575.0569331.393736.0028622.0028622.00576378.00566142.00870866.00840551l.00024803.00022835.00049606.00046063.00223228.00204724.00031496.0002874.00043307.00038976.00075197.00067323.00075197.00067323c.0113031.0100748.0232717.019374.0357441.0277756l.0010748.00077559c.0540591.0361496.117575.0555591.184083.0555591.0559173 0 .110346-.0138898.158874-.0403465z" fill="#76736f"/><path d="m.94107521.78575594-.00055118-.00051181-.00055118-.00051181-.00055118-.00051181-.00251969-.00237795-.0002126-.00020079-.00646063-.00629528c-.011315-.0113189-.0219409-.0234016-.0317205-.0360709l-.0402835.0403031.0677874.0677874.0402795-.0402756c-.00806693-.00624016-.0159094-.0128346-.0235551-.019811l-.00055512-.00050787-.00055118-.00050787-.00055512-.00050787z" fill="#ffc838"/><path d="m.946035.924-.164429-.164445c-.0105118-.0105236-.0245984-.0163189-.039622-.0163189-.0150276 0-.0291102.0057874-.0396339.0163189l-.0650079.0650039-.00017323.00017717-.125677.125677-.00018504.0001811-.0820945.0820945.243693.243689.0819291-.0819291.00034646-.00035827.125669-.125693.00067323-.0006378.0645118-.0645118c.0218465-.0218465.0218465-.0574173 0-.079248zm-.0433189.0767598c-.00567717 0-.011315-.00241732-.0152874-.00709843-.00714173-.00841339-.00608661-.0210551.0023622-.0281772.00842913-.00712205.0211378-.0061378.0282598.00227953.0071378.00842913.00616929.0209843-.00226378.0281063l-.00017717.00015354c-.00373622.0031811-.00833465.00473622-.0128937.00473622zm-.0673425.0473465c-.0078189-.0078189-.0078189-.0204882 0-.0282913.00780709-.00780709.0205433-.00787402.0283622-.00008661.00782283.00782283.00788976.0204055.00008661.0282126l-.00016929.00016535c-.00390551.00391732-.00903543.00586614-.0141417.00586614-.00511417 0-.0102362-.00196063-.0141378-.00586614zm-.106972.0787087c.0074685-.0081378.0202205-.00870866.0283465-.00122441.00812598.00748819.00870866.0200591.00120472.0281693l-.00016535.00017717c-.00392913.00427953-.00930315.00644882-.0146929.00644882-.00484646 0-.00970866-.00176378-.0135551-.00530709-.00811024-.00750394-.00862205-.0201535-.0011378-.0282638zm-.0526496.0526181c.0077874-.00780709.0205551-.00787402.0283622-.00008268.0078189.0078189.00788976.0204016.00008268.0282087l-.00016929.00016929c-.00390551.00390551-.00901575.0058622-.0141417.0058622-.00512205 0-.0102362-.00195669-.0141339-.0058622-.00782283-.00782283-.00782283-.0204882 0-.0282953zm.106118-.106087c.00762598-.00797244.020374-.00833465.0283622-.00069291.00797244.00765354.0083189.0202205.0006811.0281929l-.00014961.00016929c-.00394882.00409449-.00919685.00616142-.0144488.00616142-.0049685 0-.00995669-.00184646-.0138465-.00555512-.00797244-.00765354-.00823622-.0203031-.00059843-.0282756z" fill="#76736f"/><path d="m.644626 1.30466-.243697-.243685-.0670906.0670906c-.0218465.0218346-.0218465.0574016 0 .0792638l.164429.164413c.0105315.0105315.0245984.0163189.0396378.0163189s.0291142-.0057874.0396378-.0163189l.0670827-.0670827z" fill="#908e8a"/><path d="m.455835 1.38588-.095461-.09546-.040673-.04068-.027929.02793.13613.13614z" fill="#ffc838"/><path d="m.399622 1.4421-.136134-.13615-.0056378.0056378c-.0123031.0123031-.0123031.0323346 0 .0446496l.0917638.0917598c.0117047.0117244.0324055.0117402.0441102 0l.00589764-.00589764z" fill="#ffc838"/><path d="m.497346.907988.097402-.097401-.060248-.060248-.048705.0487-.00009.000091-.048607.048606z" fill="#e7ecff"/><g fill="#ffcf87"><path d="m.471654.756622.048696-.048697.046622-.04663-.08061-.08061-.095323.095323z"/><path d="m.443378.784898-.080614-.080615-.095335.095335.080614.080618.046457-.046456.000173-.000178z"/><path d="m.240516.771343.096917-.096918-.083331-.083331-.096909.096918z"/><path d="m.171906.456874.08061.08061.095319-.095327-.080607-.080606z"/><path d="m.22424.56576-.08061-.08061-.0953269.095326.0806099.080618z"/><path d="m.280795.565764.081969.081968.095323-.095323-.081973-.081972z"/></g><path d="m.895004 1.11085-.058441.05844-.038957.03897.060233.06023.097401-.0974z" fill="#e7ecff"/><path d="m.920697 1.26224-.095327.09532.080602.0806.095328-.09533z" fill="#ffcf87"/><path d="m.948992 1.23394.080598.0806.09531-.09533-.08059-.08059z" fill="#ffcf87"/><path d="m1.02959 1.37112-.095326.09533.081956.08195.09532-.09533z" fill="#ffcf87"/><path d="m1.13983 1.48137-.09532.09532.08062.08062.09531-.09533z" fill="#ffcf87"/><path d="m1.16813 1.45307.08061.08062.09532-.09533-.08061-.0806z" fill="#ffcf87"/><path d="m1.13983 1.42478.09532-.09532-.08195-.08195-.09532.09532z" fill="#ffcf87"/></g></svg>