<svg id="Capa_1" enable-background="new 0 0 512.016 512.016" height="512" viewBox="0 0 512.016 512.016" width="512" xmlns="http://www.w3.org/2000/svg"><g><g><path d="m12.058 90.448 114.739 114.739c6.052 6.052 15.956 6.052 22.008 0l56.393-56.393c6.052-6.052 6.052-15.956 0-22.008l-114.739-114.739c-6.052-6.052-15.956-6.052-22.008 0l-56.393 56.393c-6.052 6.052-6.052 15.956 0 22.008z" fill="#8dcafc"/><path d="m167.46 181.764c-5.841 5.841-15.4 5.841-21.241 0l-110.737-110.737c-5.841-5.841-5.841-15.4 0-21.241l42.161-42.161c-3.365.39-6.625 1.856-9.192 4.423l-56.393 56.392c-6.052 6.052-6.052 15.956 0 22.008l114.739 114.739c6.052 6.052 15.956 6.052 22.008 0l56.393-56.393c2.567-2.567 4.033-5.827 4.423-9.192z" fill="#31a7fb"/><path d="m306.84 385.23 114.739 114.739c6.052 6.052 15.956 6.052 22.008 0l56.393-56.393c6.052-6.052 6.052-15.956 0-22.008l-114.739-114.739c-6.052-6.052-15.956-6.052-22.008 0l-56.393 56.393c-6.053 6.052-6.053 15.955 0 22.008z" fill="#8dcafc"/><path d="m461.576 477.501c-5.854 5.854-15.433 5.854-21.288 0l-110.98-110.981c-5.854-5.854-5.854-15.433 0-21.288l42.777-42.777c-3.244.448-6.373 1.894-8.853 4.374l-56.393 56.393c-6.052 6.052-6.052 15.956 0 22.008l114.739 114.739c6.052 6.052 15.956 6.052 22.008 0l56.393-56.393c2.48-2.48 3.927-5.609 4.374-8.853z" fill="#31a7fb"/><path d="m90.459 499.969 114.74-114.739c6.052-6.052 6.052-15.956 0-22.008l-56.393-56.393c-6.052-6.052-15.956-6.052-22.008 0l-114.74 114.739c-6.052 6.052-6.052 15.956 0 22.008l56.393 56.393c6.052 6.052 15.956 6.052 22.008 0z" fill="#8dcafc"/><path d="m34.373 460.249c-5.802-5.802-5.803-15.298 0-21.1l110.006-110.006c5.802-5.803 15.298-5.803 21.1 0l44.218 44.218c-.203-3.696-1.691-7.333-4.498-10.14l-56.393-56.393c-6.052-6.052-15.956-6.052-22.008 0l-114.74 114.74c-6.052 6.052-6.052 15.956 0 22.009l56.393 56.393c2.807 2.807 6.444 4.295 10.14 4.498z" fill="#31a7fb"/><path d="m385.241 205.187 114.739-114.739c6.052-6.052 6.052-15.956 0-22.008l-56.393-56.393c-6.052-6.052-15.956-6.052-22.008 0l-114.739 114.739c-6.052 6.052-6.052 15.956 0 22.008l56.393 56.393c6.052 6.053 15.955 6.053 22.008 0z" fill="#8dcafc"/><path d="m330.5 167.976c-5.854-5.854-5.854-15.433 0-21.288l110.981-110.981c5.854-5.854 15.434-5.854 21.288 0l41.585 41.586c-.448-3.244-1.894-6.373-4.374-8.853l-56.393-56.393c-6.052-6.052-15.956-6.052-22.008 0l-114.739 114.739c-6.052 6.052-6.052 15.956 0 22.008l56.393 56.393c2.48 2.48 5.609 3.926 8.853 4.374z" fill="#31a7fb"/><path d="m325.947 264.091-13.41-50.047c-1.903-7.102-7.451-12.65-14.553-14.553l-36.237-9.71h-7.342l-40.064 45.502v8.5l14.05 61.172 7.764 6.828 38.75 12.711 7.234-2.259c.641-.503 1.259-1.042 1.844-1.626l36.637-36.637c5.199-5.2 7.23-12.778 5.327-19.881z" fill="#5169cd"/><path d="m245.903 312.526c-7.102-1.903-12.65-7.451-14.553-14.553l-13.411-50.048c-1.903-7.103.127-14.681 5.327-19.88l36.637-36.637c.584-.584 1.203-1.123 1.844-1.626l-13.811-3.701c-7.102-1.903-14.681.127-19.88 5.327l-36.637 36.637c-5.199 5.199-7.23 12.778-5.327 19.88l13.411 50.048c1.903 7.102 7.451 12.65 14.553 14.553l50.047 13.41c6.304 1.689 12.979.273 18.036-3.701z" fill="#3351c5"/><path d="m275.555 236.472c-1.134-1.134-2.346-2.142-3.612-3.037h-4.163l-10.375 13.849v16.5l7.5 13.5 7.038 1.298c1.267-.896 2.478-1.903 3.612-3.037 10.789-10.791 10.789-28.284 0-39.073z" fill="#3351c5"/><path d="m268.331 275.544c-10.79-10.79-10.79-28.283 0-39.072 1.134-1.134 2.346-2.141 3.612-3.037-10.784-7.626-25.804-6.618-35.46 3.037-10.79 10.789-10.79 28.283 0 39.072 9.655 9.655 24.676 10.663 35.46 3.037-1.267-.896-2.479-1.903-3.612-3.037z" fill="#213993"/></g><g><path d="m353.673 206.247 4.245 4.245c8.993 8.991 23.622 8.99 32.614 0h.001l114.739-114.74c8.991-8.992 8.991-23.623 0-32.615l-56.393-56.394c-8.992-8.99-23.623-8.988-32.615 0l-114.739 114.74c-8.99 8.991-8.99 23.622 0 32.615l3.458 3.458c-.284.526-13.607 31.789-13.842 32.339l-41.275-11.059c-9.66-2.589-20.053.196-27.126 7.267l-2.993 2.993-13.196-30.916c-.014-.033-.032-.063-.046-.095l3.987-3.987c8.991-8.992 8.991-23.623 0-32.615l-114.74-114.74c-8.994-8.991-23.624-8.991-32.616 0l-56.393 56.394c-8.99 8.992-8.99 23.623 0 32.614v.001l114.74 114.739c4.496 4.495 10.401 6.743 16.307 6.743s11.812-2.248 16.309-6.743l3.987-3.987c.032.014.062.032.095.046l30.917 13.197-2.993 2.993c-7.07 7.071-9.855 17.465-7.268 27.126l11.06 41.274c-.547.234-31.816 13.56-32.34 13.842l-3.458-3.458c-8.992-8.99-23.623-8.988-32.615 0l-114.741 114.741c-8.99 8.991-8.99 23.622 0 32.615l56.394 56.393c8.993 8.991 23.623 8.99 32.615 0l114.739-114.74c8.99-8.991 8.99-23.622 0-32.615l-4.257-4.257c.42-.778-.885 2.206 13.634-31.81l4.04 1.082c4.004 1.073 8.113-1.302 9.186-5.303s-1.302-8.114-5.303-9.186l-11.806-3.163c-4.5-1.206-8.044-4.75-9.25-9.25l-13.41-50.047c-1.206-4.501.092-9.343 3.386-12.637l36.636-36.638c3.295-3.294 8.138-4.592 12.637-3.386l50.048 13.41c4.499 1.206 8.044 4.751 9.25 9.251l13.41 50.047c1.205 4.499-.092 9.341-3.387 12.635l-36.636 36.638c-3.295 3.293-8.139 4.593-12.636 3.387l-4.434-1.188c-4.002-1.075-8.113 1.301-9.187 5.302-1.072 4.001 1.302 8.114 5.302 9.187l4.436 1.189c2.386.639 4.815.95 7.229.95 7.36 0 14.57-2.895 19.896-8.219l2.677-2.677c13.669 32.024 12.753 30.039 13.326 30.929l-3.754 3.754c-8.99 8.992-8.99 23.623 0 32.614v.001l114.74 114.739c8.994 8.992 23.624 8.989 32.615 0l56.393-56.394c8.99-8.992 8.99-23.623 0-32.615l-114.74-114.739c-8.992-8.99-23.623-8.988-32.615 0l-3.753 3.753c-.894-.575 1.088.341-30.929-13.326l2.678-2.678c7.071-7.072 9.856-17.466 7.268-27.125l-11.329-42.281c.547-.233 31.298-13.338 31.821-13.62zm-153.789-62.756-22.99 22.991c-.263-.388-.563-.758-.906-1.102l-22.866-22.866 28.593-28.593 18.169 18.169c3.143 3.143 3.143 8.258 0 11.401zm-119.86 4.327 28.593-28.593 23.289 23.289-28.593 28.593zm-34.187-34.187 28.593-28.593 23.579 23.579-28.593 28.593zm91.373-44.214-28.593 28.593-23.579-23.579 28.593-28.593zm-17.986 39.2 28.593-28.593 23.289 23.289-28.593 28.593zm-45.482-91.266c3.144-3.145 8.259-3.145 11.402 0l17.879 17.879-28.593 28.593-23.157-23.157c-.143-.143-.294-.273-.445-.402zm-56.392 67.795c-3.144-3.144-3.144-8.26 0-11.402l22.914-22.914c.129.151.259.302.402.444l23.157 23.157-28.593 28.593zm114.74 114.738-18.169-18.169 28.593-28.593 22.866 22.866c.344.344.714.643 1.102.906l-22.99 22.99c-3.144 3.145-8.259 3.143-11.402 0zm68.337 8.392-30.916-13.197 25.568-25.568 13.197 30.916c.014.033.034.061.048.093l-7.802 7.802c-.033-.014-.063-.032-.095-.046zm-68.338 103.856c3.142-3.142 8.258-3.145 11.402 0l22.991 22.99c-.388.263-.758.562-1.102.906l-22.866 22.866-28.594-28.594zm15.729 119.86-28.593-28.593 23.289-23.289 28.593 28.593zm-34.187 34.186-28.593-28.593 23.579-23.579 28.593 28.593zm-44.215-91.373 28.594 28.594-23.58 23.579-28.593-28.593zm39.201 17.986-28.594-28.594 23.289-23.289 28.594 28.594zm-91.267 34.08 17.879-17.879 28.593 28.593-23.157 23.157c-.143.143-.273.293-.402.445l-22.913-22.913c-3.143-3.144-3.143-8.26 0-11.403zm67.794 67.794c-3.144 3.146-8.26 3.144-11.401 0l-22.914-22.914c.151-.129.302-.259.445-.402l23.157-23.157 28.593 28.593zm114.74-114.739-18.169 18.169-28.593-28.593 22.866-22.866c.344-.344.643-.714.906-1.102l22.99 22.99c3.143 3.143 3.143 8.259 0 11.402zm-30.925-63.54 25.47-10.872c2.516 4.861 6.405 8.893 11.16 11.581l-10.746 25.175zm210.967-116.502c-3.142 3.145-8.258 3.143-11.401 0l-22.915-22.914c.151-.129.302-.259.445-.402l23.157-23.157 28.593 28.593zm-15.729-119.86 28.594 28.594-23.579 23.579-28.593-28.593zm33.897-33.897 28.594 28.594-23.29 23.289-28.594-28.594zm44.505 91.084-28.593-28.593 23.289-23.289 28.593 28.593zm-39.201-17.986 28.593 28.593-23.579 23.579-28.593-28.593zm91.267-34.08-18.169 18.169-28.593-28.593 22.866-22.866c.344-.344.643-.714.906-1.102l22.99 22.99c3.143 3.143 3.143 8.258 0 11.402zm-67.795-67.794c3.142-3.142 8.258-3.145 11.402 0l22.991 22.991c-.388.263-.758.562-1.102.906l-22.866 22.866-28.594-28.594zm-114.738 114.739 17.879-17.879 28.593 28.593-23.157 23.157c-.143.143-.273.293-.402.445l-22.914-22.913c-3.143-3.144-3.143-8.26.001-11.403zm30.138 62.754-25.175 10.746c-2.688-4.755-6.72-8.644-11.581-11.16l10.872-25.469zm-30.138 185.083c-3.144-3.144-3.144-8.26 0-11.402l22.914-22.914c.129.151.259.302.402.444l23.157 23.157-28.593 28.593zm119.86-15.729-28.594 28.594-23.579-23.579 28.593-28.593zm33.896 33.896-28.594 28.594-23.289-23.289 28.594-28.594zm-91.083 44.505 28.593-28.593 23.289 23.289-28.593 28.593zm17.986-39.2-28.593 28.593-23.579-23.579 28.593-28.593zm45.482 91.266c-3.144 3.144-8.259 3.144-11.402 0l-18.169-18.169 28.593-28.593 22.866 22.866c.344.344.714.643 1.102.906zm56.392-56.392-22.99 22.991c-.263-.388-.563-.758-.906-1.102l-22.866-22.866 28.594-28.594 18.169 18.169c3.142 3.143 3.142 8.259-.001 11.402zm-126.142-126.141c3.144-3.144 8.259-3.144 11.402 0l17.879 17.879-28.593 28.593-23.157-23.157c-.143-.143-.294-.273-.445-.402zm-25.703 4.489-26.2 26.2-13.239-31.016 8.423-8.423z"/><path d="m256.008 235.879c5.376 0 10.431 2.094 14.232 5.896.464.463.918.965 1.348 1.489 2.629 3.203 7.355 3.667 10.556 1.042 3.202-2.627 3.669-7.354 1.042-10.556-.741-.903-1.528-1.772-2.338-2.583-6.636-6.635-15.457-10.289-24.84-10.289-9.384 0-18.205 3.654-24.84 10.289-13.695 13.696-13.695 35.982 0 49.68 6.849 6.848 15.842 10.271 24.838 10.271 8.996-.001 17.995-3.426 24.846-10.275.812-.814 1.598-1.683 2.334-2.579 2.627-3.202 2.16-7.929-1.042-10.556-3.203-2.627-7.927-2.162-10.556 1.042-.427.521-.882 1.023-1.347 1.489-7.85 7.85-20.62 7.847-28.466.001-7.848-7.849-7.848-20.618 0-28.467 3.802-3.8 8.856-5.894 14.233-5.894z"/></g></g></svg>