<svg id="Capa_1" enable-background="new 0 0 510.65 510.65" height="512" viewBox="0 0 510.65 510.65" width="512" xmlns="http://www.w3.org/2000/svg"><g><g><path d="m117.46 45.322-4.15 32.15-42.92 2.28-23.77 1.27c-4.99.27-9-4.06-8.36-9.01l5.22-40.46c.64-4.96 5.62-8.12 10.37-6.6l23.27 7.45z" fill="#ff8087"/><path d="m117.46 45.322-4.15 32.15-42.92 2.28c-3.03-9.71-3.35-20.41-.27-31 .23-.8.46-1.6.69-2.4 1.47-5.05 3.61-9.72 6.31-13.95z" fill="#e6646e"/><path d="m311.54 96.031v81.138c0 30.848-24.498 56.588-55.343 57.056-31.395.475-57.087-24.921-57.087-56.203v-81.99h-30v81.99c0 40.695 28.35 74.884 66.338 83.885 1.793.425 3.051 2.036 3.051 3.879v115.68h33.652v-115.68c0-1.843 1.258-3.454 3.051-3.879 37.987-8.998 66.338-43.189 66.338-83.886v-81.99z" fill="#eef5ff"/><path d="m218.454 407.289h73.742v95.85h-73.742z" fill="#aa9ea9"/><path d="m267.2 407.292h25v95.85h-25z" fill="#9b8e99"/><g fill="#ff8087"><path d="m373.747 116.795c-78.236 14.956-158.608 14.956-236.844 0-31.265-5.977-50.667-37.475-41.787-68.042.233-.801.465-1.602.698-2.402 7.793-26.822 34.745-43.093 62.183-37.869 64.304 12.244 130.35 12.244 194.654 0 27.438-5.224 54.391 11.047 62.184 37.869.233.801.465 1.602.698 2.402 8.881 30.567-10.521 62.065-41.786 68.042z"/><path d="m304.456 423.003h-98.261c-4.418 0-8-3.582-8-8v-39.565c0-4.418 3.582-8 8-8h98.261c4.418 0 8 3.582 8 8v39.565c0 4.418-3.582 8-8 8z"/><path d="m397.341 77.469 66.689 3.554c4.99.266 8.999-4.057 8.36-9.012l-5.22-40.46c-.639-4.956-5.615-8.119-10.374-6.595l-63.603 20.363z"/></g><path d="m312.46 375.442v39.56c0 4.42-3.59 8-8 8h-25c4.41 0 8-3.58 8-8v-39.56c0-4.42-3.59-8-8-8h25c4.41 0 8 3.58 8 8z" fill="#e6646e"/><path d="m373.75 116.792c-6.14 1.17-12.3 2.26-18.46 3.24 27.36-9.21 43.48-39.72 35.24-69.39-.23-.84-.46-1.68-.69-2.52-5.62-20.22-21.21-34.71-39.75-39.17.85-.15 1.71-.31 2.56-.47 27.44-5.22 54.39 11.05 62.19 37.87.23.8.46 1.6.69 2.4 8.88 30.57-10.52 62.07-41.78 68.04z" fill="#e6646e"/><path d="m464.03 81.022-17.67-.94c.86-1.47 1.27-3.23 1.03-5.07l-5.22-40.46c-.22-1.67-.92-3.14-1.96-4.29l16.59-5.31c4.75-1.52 9.73 1.64 10.37 6.6l5.22 40.46c.64 4.95-3.37 9.28-8.36 9.01z" fill="#e6646e"/></g><path d="m479.823 71.061-5.218-40.445c-.581-4.575-3.145-8.622-7.034-11.103-3.896-2.484-8.655-3.104-13.063-1.695l-38.555 12.342c-12.89-21.934-38.422-34.041-64.701-29.037-10.807 2.057-21.727 3.771-32.456 5.095-4.111.507-7.032 4.251-6.525 8.361.507 4.112 4.257 7.033 8.361 6.525 11.053-1.363 22.298-3.128 33.427-5.246 23.835-4.541 46.859 9.472 53.568 32.58l.705 2.415c3.687 12.692 1.916 25.888-4.985 37.155-6.832 11.154-18.135 18.964-31.012 21.427-77.641 14.848-156.378 14.848-234.022 0-12.876-2.463-24.179-10.272-31.011-21.428-6.901-11.267-8.672-24.462-4.979-37.176l.694-2.38c6.713-23.122 29.743-37.138 53.575-32.593 42.364 8.063 85.664 10.904 128.7 8.45 4.135-.236 7.296-3.78 7.061-7.916-.237-4.136-3.77-7.281-7.916-7.061-41.81 2.389-83.88-.375-125.038-8.209-26.273-5.008-51.806 7.098-64.701 29.037l-38.562-12.343c-4.402-1.405-9.16-.785-13.056 1.697-3.89 2.48-6.454 6.527-7.033 11.088l-5.22 40.458c-.591 4.569.867 9.129 3.999 12.511 2.951 3.187 7.057 4.972 11.38 4.972.272 0 .545-.007.818-.021l42.73-2.279c1.299 3.312 2.875 6.53 4.756 9.601 9.033 14.747 23.971 25.071 40.985 28.325 8.69 1.662 17.394 3.131 26.108 4.43v49.434c0 21.191 7.308 41.973 20.577 58.517 12.472 15.55 29.727 26.829 48.813 31.973v31.041c0 4.143 3.358 7.5 7.5 7.5s7.5-3.357 7.5-7.5v-33.773c0-5.339-3.621-9.934-8.82-11.178-35.663-8.451-60.57-39.942-60.57-76.582v-47.379c4.997.625 9.997 1.189 15 1.695v45.684c0 17.173 6.757 33.285 19.027 45.369 12.031 11.849 27.862 18.338 44.678 18.338.333 0 .667-.003 1-.008 34.593-.526 62.735-29.483 62.735-64.549v-44.835c5.003-.505 10.003-1.07 15-1.695v47.379c0 36.649-24.906 68.142-60.585 76.586-5.185 1.24-8.805 5.835-8.805 11.174v94.154h-18.66v-25.384c0-4.143-3.358-7.5-7.5-7.5s-7.5 3.357-7.5 7.5v25.384h-24.8c-8.547 0-15.5 6.953-15.5 15.5v39.565c0 8.547 6.953 15.5 15.5 15.5h4.76v72.641c0 4.143 3.358 7.5 7.5 7.5s7.5-3.357 7.5-7.5v-72.639h58.74v72.641c0 4.143 3.357 7.5 7.5 7.5s7.5-3.357 7.5-7.5v-72.641h4.761c8.547 0 15.5-6.953 15.5-15.5v-39.565c0-8.547-6.953-15.5-15.5-15.5h-24.801v-91.425c19.095-5.144 36.344-16.418 48.813-31.965 13.269-16.544 20.576-37.328 20.576-58.524v-49.434c8.714-1.299 17.419-2.768 26.109-4.43 17.014-3.254 31.952-13.578 40.985-28.325 1.881-3.072 3.457-6.29 4.756-9.601l42.74 2.28c.272.014.544.021.815.021 4.314 0 8.423-1.786 11.374-4.972 3.136-3.382 4.593-7.943 4.002-12.509zm-433.588 2.479c-.064.005-.241.013-.404-.163-.157-.169-.137-.327-.127-.396l5.222-40.475c.008-.067.028-.225.22-.347.199-.127.366-.074.423-.057l37.133 11.887c-.029.099-.064.195-.093.294l-.696 2.386c-2.354 8.103-2.968 16.532-1.937 24.752zm258.721 301.904v39.565c0 .275-.225.5-.5.5h-98.261c-.276 0-.5-.225-.5-.5v-39.565c0-.275.224-.5.5-.5h98.261c.275 0 .5.225.5.5zm-.911-198.263c0 26.92-21.517 49.148-47.964 49.551-13.131.221-25.54-4.777-34.923-14.02-9.384-9.241-14.552-21.559-14.552-34.682v-44.348c16.228 1.252 32.474 1.889 48.72 1.889s32.492-.637 48.72-1.889v43.499zm160.774-103.804c-.163.176-.339.165-.395.164l-39.749-2.12c1.031-8.216.419-16.637-1.931-24.727l-.708-2.425c-.027-.095-.061-.186-.089-.28l37.127-11.885c.063-.019.23-.072.43.056.191.121.211.278.222.36l5.221 40.463c.008.068.029.225-.128.394z"/></g></svg>