<svg height="512" viewBox="0 0 512 512" width="512" xmlns="http://www.w3.org/2000/svg"><g id="_43.Sausage" data-name="43.Sausage"><g id="c"><path d="m105.5287 424.5019-75.23 75.23a14.2341 14.2341 0 0 1 -20.13-20.13l76-76a79.5123 79.5123 0 0 0 19.36 20.9z" fill="#e9986b"/><path d="m482.89 142.78-274.32 274.32a78.8919 78.8919 0 1 1 -111.57-111.57l274.32-274.32a78.8919 78.8919 0 0 1 111.57 111.57z" fill="#e05050"/><path d="m104.5361 423.7426a78.867 78.867 0 0 1 -7.5378-118.214l274.3217-274.3221a78.885 78.885 0 0 1 111.5672 0 80.3922 80.3922 0 0 1 6.6327 7.5095 78.9192 78.9192 0 0 0 -104.0578 6.6327l-274.3221 274.322a78.9211 78.9211 0 0 0 -10.8328 98.0757q1.9519 3.0759 4.2289 5.9962z" fill="#c64b4b"/><path d="m350.3454 146.1349a17.7958 17.7958 0 0 0 0-25.1671l-34.3954-34.3951-25.1668 25.1673 34.3951 34.3951a17.7958 17.7958 0 0 0 25.1671-.0002z" fill="#ffebb9"/><path d="m292.639 96.231h35.6v20h-35.6z" fill="#e5d2a8" transform="matrix(.707 -.707 .707 .707 15.809 250.627)"/><path d="m211.9262 284.5541a17.7958 17.7958 0 0 0 0-25.1671l-34.395-34.395-25.1672 25.167 34.3951 34.3951a17.7958 17.7958 0 0 0 25.1671 0z" fill="#ffebb9"/><path d="m154.224 234.65h35.59v20h-35.59z" fill="#e5d2a8" transform="matrix(.707 -.707 .707 .707 -122.611 193.292)"/><path d="m304.2056 192.2746a17.7958 17.7958 0 0 0 0-25.1671l-34.3951-34.3951-25.167 25.1676 34.3951 34.395a17.7957 17.7957 0 0 0 25.167-.0004z" fill="#ffebb9"/><path d="m246.501 142.373h35.59v20h-35.59z" fill="#e5d2a8" transform="matrix(.707 -.707 .707 .707 -30.333 231.515)"/><path d="m258.0659 238.4144a17.7958 17.7958 0 0 0 0-25.1671l-34.3951-34.395-25.1671 25.1671 34.395 34.3951a17.7958 17.7958 0 0 0 25.1672-.0001z" fill="#ffebb9"/><path d="m200.363 188.512h35.59v20h-35.59z" fill="#e5d2a8" transform="matrix(.707 -.707 .707 .707 -76.472 212.403)"/></g><g id="c-2" data-name="c"><path d="m20.2393 508.9014a19.2338 19.2338 0 0 1 -13.6055-32.835l76-76a4.9995 4.9995 0 0 1 7.7573.8565 74.5041 74.5041 0 0 0 18.1343 19.5761 5 5 0 0 1 .5395 7.5381l-75.23 75.2295a19.1017 19.1017 0 0 1 -13.5956 5.6348zm65.2207-97.52-71.7549 71.7553a9.2342 9.2342 0 1 0 13.0586 13.06l71.2925-71.292q-2.3673-2.0419-4.5928-4.2676a84.4192 84.4192 0 0 1 -8.0034-9.2553z"/><path d="m152.7822 445.2109a83.7373 83.7373 0 0 1 -59.3193-24.58 83.8839 83.8839 0 0 1 0-118.6377l246.3916-246.3916a5 5 0 0 1 7.0713 7.07l-246.3916 246.3919a73.8017 73.8017 0 0 0 0 104.497 73.8858 73.8858 0 0 0 104.5049.0049l274.32-274.3193a73.8994 73.8994 0 0 0 -95.5632-112.1318 5 5 0 1 1 -5.8721-8.0938 83.8989 83.8989 0 0 1 108.5069 127.2959l-274.3218 274.3213a83.3978 83.3978 0 0 1 -59.3267 24.5732z"/><path d="m358.2393 49.2881a5 5 0 0 1 -3.5357-8.5352l7.0713-7.0713a5 5 0 1 1 7.0713 7.07l-7.0713 7.0712a4.9841 4.9841 0 0 1 -3.5356 1.4653z"/><path d="m337.7607 156.35a22.648 22.648 0 0 1 -16.1191-6.6777l-34.395-34.3946a4.9989 4.9989 0 0 1 0-7.07l25.1675-25.1679a4.9992 4.9992 0 0 1 7.0713 0l34.395 34.3955a22.7961 22.7961 0 0 1 0 32.2383 22.6515 22.6515 0 0 1 -16.1197 6.6764zm-39.9072-44.6074 30.8594 30.8594a12.7956 12.7956 0 0 0 18.0962 0v-.001a12.7938 12.7938 0 0 0 0-18.0947l-30.8591-30.8608z"/><path d="m199.3418 294.7686a22.6473 22.6473 0 0 1 -16.1191-6.6778l-34.3951-34.3945a4.9995 4.9995 0 0 1 0-7.07l25.167-25.167a4.9994 4.9994 0 0 1 7.0713 0l34.395 34.3945a22.7958 22.7958 0 0 1 0 32.2383v-.001a22.6473 22.6473 0 0 1 -16.1191 6.6775zm-39.9072-44.6075 30.8593 30.8594a12.7947 12.7947 0 0 0 18.0957 0v-.001a12.7947 12.7947 0 0 0 0-18.0957l-30.8596-30.8584z"/><path d="m291.6211 202.4893a22.6473 22.6473 0 0 1 -16.1191-6.6778l-34.3951-34.3945a4.9991 4.9991 0 0 1 0-7.07l25.167-25.168a4.9995 4.9995 0 0 1 7.0713 0l34.3955 34.3955a22.7958 22.7958 0 0 1 0 32.2383l-3.5356-3.5361 3.5351 3.5351a22.6473 22.6473 0 0 1 -16.1191 6.6775zm-39.9077-44.6075 30.86 30.8594a12.7947 12.7947 0 0 0 18.0957 0v-.001a12.7947 12.7947 0 0 0 0-18.0957l-30.86-30.8593z"/><path d="m245.4814 248.6289a22.648 22.648 0 0 1 -16.1191-6.6777l-34.395-34.3946a4.9992 4.9992 0 0 1 0-7.07l25.167-25.167a4.9994 4.9994 0 0 1 7.0713 0l34.395 34.3946a22.796 22.796 0 0 1 0 32.2382v-.0009a22.648 22.648 0 0 1 -16.1192 6.6774zm-39.9072-44.6074 30.8594 30.8594a12.795 12.795 0 0 0 18.0957 0v-.001a12.795 12.795 0 0 0 0-18.0957l-30.8593-30.8584z"/></g></g></svg>