<svg id="Layer_1" enable-background="new 0 0 512 512" viewBox="0 0 512 512" xmlns="http://www.w3.org/2000/svg"><g clip-rule="evenodd" fill-rule="evenodd"><g><g><path d="m296.351 392.262c-.198.737-.399 1.474-.604 2.209l-30.257-30.257c-.54.54-1.083 1.077-1.628 1.612l-11.075-41.332c-.737.198-1.476.391-2.215.582l11.075-41.332c-.737-.198-1.474-.399-2.21-.604l30.257-30.257c-.539-.539-1.077-1.083-1.611-1.627l41.332-11.075c-.198-.737-.391-1.476-.582-2.215l41.332 11.075c.198-.737.399-1.474.604-2.209l30.257 30.257c.54-.54 1.083-1.077 1.628-1.611l11.075 41.332c.737-.198 1.476-.391 2.215-.582l-11.075 41.332c.737.198 1.474.399 2.21.604l-30.257 30.257c.539.539 1.077 1.082 1.611 1.627l-41.332 11.075c.198.737.391 1.476.582 2.215zm-7.763 23.52c-7.713 19.061-18.707 35.904-34.777 45.907 36.924 9.893 68.931-6.53 88.327-36.318 2.851 20.364 1.751 40.447-7.164 57.146 36.923-9.894 56.431-40.121 58.335-75.616 12.651 16.21 21.74 34.153 22.369 53.071 27.03-27.03 28.811-62.962 12.711-94.652 19.062 7.713 35.904 18.707 45.908 34.777 9.893-36.923-6.53-68.932-36.318-88.327 20.364-2.851 40.447-1.751 57.145 7.164-9.893-36.923-40.12-56.432-75.615-58.334 16.211-12.651 34.152-21.74 53.071-22.369-27.03-27.03-62.961-28.811-94.652-12.712 7.713-19.061 18.707-35.904 34.776-45.907-36.923-9.894-68.931 6.53-88.327 36.318-2.851-20.364-1.751-40.447 7.164-57.146-36.924 9.894-56.432 40.121-58.335 75.616-12.651-16.21-21.74-34.153-22.369-53.072-27.03 27.03-28.811 62.962-12.711 94.653-19.062-7.713-35.904-18.707-45.908-34.777-9.894 36.923 6.53 68.931 36.318 88.327-20.364 2.851-40.447 1.751-57.145-7.164 9.893 36.923 40.12 56.431 75.615 58.334-16.211 12.651-34.152 21.74-53.071 22.369 27.031 27.03 62.962 28.811 94.653 12.712z" fill="#b4d2d7"/><path d="m262.677 361.401-9.889-36.907c-.737.198-1.476.391-2.215.582l11.075-41.332c-.737-.198-1.474-.399-2.21-.604l30.257-30.257c-.539-.539-1.077-1.083-1.611-1.627l41.332-11.075c-.198-.737-.391-1.476-.582-2.215l41.332 11.075c.198-.737.399-1.474.604-2.209l-10-10c-.204.736-.406 1.472-.604 2.209l-41.332-11.075c.191.74.384 1.478.582 2.215l-41.332 11.075c.535.545 1.072 1.088 1.611 1.627l-30.257 30.257c.736.204 1.472.406 2.21.604l-11.075 41.332c.74-.191 1.478-.384 2.215-.582l11.075 41.332c.545-.535 1.088-1.072 1.628-1.612zm128.349-94.314 2.813 2.813-1.186-4.425c-.544.535-1.087 1.072-1.627 1.612zm-127.77 187.459c-2.937 2.653-6.079 5.049-9.444 7.144 31.883 8.543 60.099-2.538 79.697-24.9.155-7.012-.359-14.197-1.37-21.418-15.899 24.417-40.274 39.851-68.883 39.174zm77.793 11.88c-1.374 5.618-3.362 11.012-6.074 16.091 35.513-9.516 54.913-37.843 58.036-71.574-2.881-4.806-6.151-9.492-9.702-14.042-1.605 29.933-15.729 56.119-42.26 69.525zm71.584-24.296c1.775 5.831 2.844 11.787 3.045 17.843 27.03-27.03 28.811-62.962 12.711-94.652 11.421 4.621 22.045 10.421 30.879 17.784-10.155-12.348-24.719-21.246-40.879-27.785 14.587 28.714 14.495 60.909-5.756 86.81zm52.158-53.971c6.435-26.351-.543-50.105-16.161-68.424 22.875 19.621 34.307 48.117 25.667 80.363-2.7-4.338-5.899-8.306-9.506-11.939zm-24.238-76.727c19.478-2.405 38.577-1.037 54.571 7.502-4.544-16.958-13.379-30.24-25.042-39.833 6.734 8.194 11.909 18.139 15.042 29.833-16.698-8.915-36.781-10.015-57.145-7.164 4.514 2.94 8.719 6.17 12.574 9.662zm-11.347-57.804c13.564-8.908 28.153-14.891 43.375-15.397-3.794-3.794-7.763-7.09-11.871-9.91-18.231 1.143-35.525 10.045-51.2 22.278 6.793.365 13.394 1.376 19.696 3.029zm-42.99-45.257c6.827-11.811 15.463-21.895 26.489-28.759-6.657-1.784-13.152-2.708-19.444-2.857-11.086 10.013-19.235 23.695-25.332 38.764 5.974-3.035 12.099-5.434 18.287-7.148zm-63.208-13.859c.282-12.763 2.78-24.951 8.534-35.728-5.786 1.55-11.144 3.601-16.074 6.092-3.144 12.852-3.074 26.885-1.09 41.054 2.648-4.067 5.532-7.882 8.63-11.418zm-59.502 25.847c-7.384-12.317-12.215-25.421-12.667-39.03-2.539 2.539-4.855 5.157-6.955 7.843 3.769 12.385 10.723 24.207 19.324 35.229.072-1.357.174-2.703.298-4.042zm-66.258 27.837c-1.824-2.217-3.506-4.546-5.029-6.992-.174.648-.337 1.294-.494 1.938 1.749 1.762 3.594 3.446 5.523 5.054zm10.638 63.37c2.48 2.909 5.18 5.679 8.077 8.303.857-.106 1.715-.219 2.574-.339-3.774-2.457-7.332-5.117-10.651-7.964zm-21.452 40.634c10.458 12.727 24.682 21.225 40.877 25.473 3.294-2.164 6.529-4.499 9.696-6.971-19.192-1.03-36.843-7.209-50.573-18.502zm9.374 50.78c25.161 17.267 55.538 16.642 82.78 2.802-2.421 5.983-5.165 11.746-8.287 17.149-26.635 7.381-54.43 2.074-76.365-19.86.625-.022 1.249-.052 1.872-.091z" fill="#9bb9c3"/><ellipse cx="333.258" cy="320.651" fill="#8d9ca8" rx="116.7" ry="116.7" transform="matrix(.989 -.151 .151 .989 -44.638 54.056)"/><path d="m303.054 207.927c62.256-16.681 126.247 20.264 142.928 82.519 1.63 6.083 2.741 12.182 3.373 18.253-44.334 2.161-89.351 1.818-131.169 13.023-32.843 8.8-63.473 24.5-93.956 40.568-1.411-3.707-2.647-7.521-3.696-11.435-16.681-62.256 20.264-126.247 82.52-142.928z" fill="#7a8c98"/><path d="m419.433 241.93c12.236 13.373 21.533 29.798 26.549 48.517 16.681 62.256-20.264 126.247-82.52 142.928-50.208 13.453-101.539-7.978-128.278-49.431 28.461 31.103 72.842 45.669 116.379 34.003 62.256-16.681 99.201-80.672 82.52-142.928-3.228-12.049-8.234-23.143-14.65-33.089z" fill="#7a8c98"/><ellipse cx="333.258" cy="320.651" fill="#eff4f7" rx="29.693" ry="29.693" transform="matrix(.164 -.986 .986 .164 -37.734 596.772)"/><path d="m325.573 291.969c15.84-4.244 32.122 5.156 36.367 20.996.066.247.129.495.189.742-14.919 1.693-29.618 4.176-43.942 8.014-4.758 1.275-9.47 2.696-14.142 4.241-2.757-15.062 6.478-29.96 21.528-33.993z" fill="#e2e3e3"/><path d="m325.573 291.969c8.002-2.144 16.116-.805 22.735 3.087-3.984-.63-8.162-.456-12.311.655-15.84 4.244-25.241 20.526-20.996 36.366 2.1 7.838 7.149 14.098 13.632 17.909-11.232-1.777-20.923-9.959-24.056-21.651-4.244-15.84 5.156-32.121 20.996-36.366z" fill="#e2e3e3"/><path d="m325.573 291.969c8.002-2.144 16.116-.805 22.735 3.087-3.984-.63-8.162-.456-12.311.655-12.76 3.419-21.339 14.649-21.975 27.167-3.348.961-6.673 1.991-9.978 3.084-2.756-15.062 6.479-29.96 21.529-33.993z" fill="#d8d8d8"/></g><g><path d="m178.388 41.025 185.931 107.347-101.496 175.797-244.089-140.925c-9.287-5.362-12.498-17.346-7.136-26.633l48.421-83.868c23.829-41.275 77.096-55.548 118.369-31.718z" fill="#ffda2d"/><path d="m270.149 311.48-7.326 12.689-244.089-140.925c-9.287-5.362-12.498-17.346-7.136-26.633l48.421-83.868c15.741-27.263 44.325-42.74 73.812-43.242-20.644 6.062-39.09 19.718-50.631 39.707l-48.421 83.868c-5.362 9.287-2.151 21.271 7.136 26.633z" fill="#ffc700"/><path d="m70.859 123.287 52.287 30.188 45.172-78.241-7.26-4.192c-24.706-14.264-56.759-5.675-71.023 19.031z" fill="#eff4f7"/><path d="m70.859 123.287 52.287 30.188 45.172-78.241-7.26-4.192c-.755-.436-1.517-.85-2.286-1.243l-45.139 78.184z" fill="#e2e3e3"/><path d="m287.875 151.277c93.542-25.065 189.693 30.447 214.757 123.99 1.386 5.171-1.202 10.181-6.758 10.769-55.726 5.896-114.313 1.383-167.688 15.685-53.941 14.453-101.912 47.517-153.064 70.259-5.105 2.27-9.853-.775-11.238-5.946-25.064-93.542 30.448-189.692 123.991-214.757z" fill="#fdb800"/><path d="m299.825 148.523c89.646-17.506 178.809 37.182 202.807 126.744 1.386 5.171-1.202 10.181-6.758 10.769-8.272.875-16.607 1.52-24.978 2.032 3.072-1.881 4.302-5.704 3.252-9.62-21.447-80.044-94.947-132.232-174.323-129.925zm59.427 146.866c-10.507 1.562-20.882 3.604-31.065 6.333-53.941 14.453-101.912 47.517-153.064 70.259-4.796 2.132-9.276-.426-10.95-5.031 44.729-21.889 87.792-49.255 135.53-62.047 19.296-5.17 39.272-7.881 59.549-9.514z" fill="#f4a40e"/></g></g><path d="m207.469 138.137 16.109-27.908c2.212-3.829 7.102-5.14 10.931-2.933 3.82 2.212 5.131 7.102 2.929 10.931l-16.119 27.913c-1.48 2.561-4.169 3.999-6.932 3.999-1.358 0-2.73-.349-3.99-1.08-3.829-2.207-5.14-7.102-2.928-10.922zm-31.431-8.908c1.264.731 2.641 1.07 3.99 1.07 2.773 0 5.461-1.429 6.942-3.999l16.109-27.912c2.212-3.82.9-8.71-2.928-10.922-3.829-2.207-8.719-.896-10.931 2.919l-16.109 27.912c-2.213 3.83-.902 8.72 2.927 10.932zm-55.82 13.341-38.429-22.192 15.18-26.276c12.129-21.013 39.089-28.233 60.088-16.114l.344.203zm52.1-74.24c3.829 2.207 5.145 7.097 2.933 10.926l-45.172 78.244c-1.481 2.57-4.169 3.999-6.942 3.999-1.349 0-2.73-.349-3.99-1.07l-52.288-30.19c-3.82-2.207-5.131-7.102-2.919-10.931l19.17-33.209c16.543-28.648 53.297-38.5 81.95-21.961zm262.983 213.397c19.73-.768 40.126-1.547 59.696-3.617.014-.17 0-.434-.09-.75-11.568-43.182-39.258-79.262-77.97-101.61-25.786-14.892-54.41-22.499-83.398-22.499-14.539 0-29.172 1.919-43.592 5.777-43.178 11.572-79.258 39.259-101.606 77.97-22.353 38.711-28.295 83.813-16.722 126.99.08.321.198.552.293.689 17.929-7.97 35.877-17.448 53.236-26.606 32.119-16.972 65.341-34.5 100.973-44.05 35.227-9.441 72.826-10.894 109.18-12.294zm45.931 23.47c-7.574-1.877-15.793-2.796-24.602-2.787-.278-1.844-.59-3.669-.948-5.513 6.489-.297 13.006-.637 19.519-1.071 2.249 2.92 4.258 6.051 6.031 9.371zm-12.081 76.06c-5.621-5.409-12.28-10.318-19.91-14.708 3.428-8.601 5.862-17.491 7.281-26.531 8.837 12.313 13.157 26.352 12.629 41.239zm-48.502 59.82c-2.16-7.479-5.461-15.048-9.861-22.659 7.182-5.701 13.732-12.2 19.542-19.429 1.519 15.109-1.759 29.44-9.681 42.088zm-71.911 27.563c1.882-7.569 2.801-15.802 2.782-24.611 4.688-.703 9.37-1.66 14.02-2.9 4.31-1.16 8.531-2.542 12.638-4.121-6.238 13.859-16.25 24.629-29.44 31.632zm-76.06-12.081c5.414-5.621 10.323-12.28 14.723-19.919 8.601 3.428 17.491 5.862 26.531 7.276-12.323 8.851-26.361 13.171-41.254 12.643zm-59.819-48.497c7.479-2.165 15.053-5.461 22.65-9.861 5.701 7.177 12.209 13.728 19.443 19.537-15.114 1.524-29.441-1.759-42.093-9.676zm2.499-46.795c.49 1.453 1.023 2.891 1.561 4.319-1.721-.778-3.4-1.617-5.032-2.518 1.161-.598 2.311-1.197 3.471-1.801zm80.234-39.82c.057 3.023.476 6.041 1.259 8.979 4.508 16.821 19.778 27.941 36.42 27.941 3.221 0 6.489-.41 9.747-1.287 9.724-2.603 17.849-8.842 22.89-17.561 5.032-8.719 6.371-18.882 3.763-28.601-.783-2.928-1.934-5.749-3.381-8.38 22.918-3.008 46.53-3.938 69.628-4.829 1.179-.038 2.372-.09 3.56-.132 5.791 26.493 1.57 53.802-12.077 77.452-14.524 25.14-37.962 43.13-66.002 50.642-28.049 7.517-57.339 3.66-82.492-10.86-23.65-13.662-40.966-35.213-49.185-61.074.957-.509 1.929-1.019 2.895-1.528 20.491-10.819 41.452-21.858 62.975-30.762zm53-16.118c2.688 2.678 4.617 5.98 5.626 9.728 1.5 5.602.731 11.441-2.169 16.463-2.9 5.018-7.569 8.606-13.171 10.106-11.558 3.094-23.47-3.787-26.568-15.335-1.009-3.754-.99-7.583.009-11.252 5.942-2.07 11.912-3.952 17.939-5.569 6.022-1.613 12.142-2.971 18.334-4.141zm-325.853-128.99 138.761 80.111c3.532-9.403 7.861-18.58 12.978-27.45 24.494-42.413 64.021-72.755 111.334-85.431 14.326-3.843 28.846-5.899 43.319-6.263l-154.743-89.325c-37.556-21.692-85.747-8.771-107.439 28.79l-48.417 83.856c-1.523 2.655-1.924 5.744-1.122 8.724.788 2.98 2.688 5.465 5.329 6.988zm487.618 96.881c-12.666-47.299-43.008-86.84-85.416-111.329-18.523-10.691-38.381-17.962-58.81-21.692l-183.741-106.082c-45.191-26.087-103.199-10.549-129.291 34.652l-48.421 83.86c-3.669 6.347-4.626 13.751-2.726 20.858 1.91 7.111 6.446 13.053 12.789 16.713l141.689 81.799c-8.63 31.129-8.851 64.111-.269 96.13 1.339 5.008 4.607 9.069 8.946 11.139 2.103 1 4.334 1.5 6.592 1.5 2.231 0 4.49-.481 6.678-1.448 5.649-2.518 11.27-5.168 16.873-7.899 8.837 6.437 18.99 11.148 30.251 14.067-10.983 6.05-21.664 9.271-31.822 9.611-3.193.113-6.013 2.089-7.182 5.06-1.17 2.961-.467 6.342 1.783 8.592 16.67 16.67 37.528 25.319 59.748 25.319 7.97 0 16.132-1.132 24.329-3.4-6.498 10.738-14.128 18.868-22.768 24.248-2.712 1.688-4.15 4.824-3.692 7.97.471 3.15 2.773 5.73 5.852 6.55 7.809 2.094 15.581 3.122 23.192 3.122 22.527 0 43.696-9.021 60.578-26.149-.259 12.539-2.811 23.39-7.602 32.359-1.5 2.811-1.189 6.248.802 8.748 1.537 1.938 3.857 3.023 6.258 3.023.693 0 1.382-.09 2.07-.274 30.931-8.286 52.934-30.699 61.031-61.838 6.041 10.992 9.271 21.669 9.611 31.831.099 3.188 2.089 6.008 5.051 7.177.957.373 1.947.561 2.938.561 2.079 0 4.131-.821 5.664-2.349 22.65-22.64 30.487-53.043 21.928-84.072 10.728 6.498 18.858 14.128 24.239 22.772 1.481 2.367 4.06 3.768 6.791 3.768.391 0 .778-.028 1.179-.08 3.15-.467 5.72-2.768 6.55-5.848 8.29-30.931-.118-61.182-23.036-83.771 12.539.259 23.4 2.796 32.369 7.597 1.188.632 2.476.938 3.768.938 1.768 0 3.532-.589 4.97-1.735 2.499-1.981 3.579-5.253 2.759-8.333-2.188-8.158-5.329-15.698-9.389-22.56 1.08-.099 2.169-.198 3.249-.306 4.791-.509 8.861-2.881 11.469-6.673 2.721-3.969 3.522-9.118 2.169-14.126z"/></g></svg>