<svg id="Layer_1" enable-background="new 0 0 512 512" viewBox="0 0 512 512" xmlns="http://www.w3.org/2000/svg"><g clip-rule="evenodd" fill-rule="evenodd"><g><path d="m204.524 423.204-94.485-94.485c-1.168-1.168-1.168-3.074 0-4.242l306.977-306.978c1.168-1.168 3.074-1.168 4.242 0l54.663 54.663c1.072 1.072 1.181 2.75.255 3.952l-14.85 19.277c-.496.644-1.148 1.024-1.953 1.139l-27.392 3.907c-1.609.23-2.744 1.703-2.556 3.318l3.013 25.789c.189 1.615-.946 3.088-2.556 3.318l-25.704 3.666c-1.609.23-2.745 1.703-2.556 3.318l3.013 25.79c.189 1.614-.947 3.088-2.556 3.318l-25.704 3.666c-1.609.23-2.745 1.703-2.556 3.318l3.013 25.79c.189 1.615-.947 3.088-2.556 3.318l-25.704 3.666c-1.609.23-2.745 1.703-2.556 3.318l3.013 25.79c.189 1.615-.947 3.088-2.556 3.318l-25.704 3.666c-1.609.23-2.744 1.704-2.556 3.318l3.014 25.789c.188 1.615-.947 3.088-2.556 3.318l-25.705 3.666c-1.609.23-2.745 1.703-2.556 3.318l3.013 25.79c.188 1.615-.947 3.088-2.556 3.318l-25.704 3.666c-1.609.23-2.745 1.703-2.556 3.318l3.211 27.483c.094.807-.107 1.535-.603 2.179l-56.197 72.949c-.546.708-1.291 1.105-2.183 1.163-.889.055-1.679-.243-2.311-.875z" fill="#cad0d7"/><path d="m40.234 377.192 96.704-96.704c6.671-6.671 17.552-6.671 24.223 0l30.54 30.541c1.644 1.644 2.775 3.326 3.676 5.469l41.142 97.799c2.756 6.552 1.35 13.727-3.676 18.753l-57.326 57.326c-6.671 6.671-17.552 6.671-24.223 0l-64.989-64.989c-1.463-1.463-2.93-2.495-4.8-3.378l-36.471-17.216c-5.201-2.455-8.579-6.889-9.563-12.554-.986-5.667.696-10.981 4.763-15.047z" fill="#fdcd56"/><path d="m98.682 356.771 4.881-4.881c11.118-11.118 29.254-11.118 40.372 0l45.786 45.785c11.118 11.118 11.118 29.254 0 40.372l-4.881 4.881c-11.118 11.118-29.254 11.118-40.372 0l-45.785-45.785c-11.118-11.118-11.118-29.254-.001-40.372z" fill="#f4f6f8"/></g><path d="m184.278 433.716-4.88 4.889c-8.404 8.399-22.074 8.399-30.473 0l-45.785-45.789c-4.056-4.061-6.291-9.472-6.291-15.241s2.235-11.18 6.291-15.232l4.88-4.879c4.202-4.197 9.717-6.301 15.236-6.301 5.52 0 11.035 2.103 15.237 6.301l45.785 45.78c8.399 8.398 8.399 22.068 0 30.472zm-35.885-86.154c-13.862-13.858-36.411-13.858-50.274 0l-4.88 4.879c-6.701 6.701-10.39 15.622-10.39 25.132s3.689 18.441 10.39 25.142l45.785 45.789c6.931 6.927 16.032 10.39 25.137 10.39 9.1 0 18.206-3.473 25.132-10.39l4.884-4.894c13.858-13.858 13.858-36.406 0-50.269zm307.887-257.109 11.707-15.208-49.337-49.352-251.651 251.651 29.16 29.16c2.282 2.282 3.929 4.729 5.181 7.698l29.108 69.199 27.739-35.997-3.36-28.774c-.442-3.769 2.202-7.209 5.962-7.745l24.741-3.52-2.903-24.822c-.442-3.783 2.207-7.209 5.967-7.75l24.737-3.52-2.903-24.831c-.438-3.769 2.212-7.199 5.971-7.74l24.732-3.529-2.898-24.817c-.442-3.774 2.207-7.204 5.967-7.741l24.742-3.534-2.904-24.817c-.437-3.774 2.202-7.199 5.962-7.741l24.742-3.529-2.904-24.822c-.437-3.769 2.212-7.209 5.962-7.741l24.742-3.529-2.904-24.822c-.437-3.769 2.212-7.209 5.971-7.741zm-228.881 338.27c3.016-3.021 3.83-7.157 2.179-11.091l-41.145-97.8c-.546-1.299-1.176-2.24-2.174-3.237l-30.539-30.544c-1.906-1.896-4.447-2.946-7.162-2.946s-5.256 1.049-7.162 2.946l-96.708 96.712c-2.343 2.339-3.402 5.708-2.828 8.997.329 1.892 1.501 5.35 5.67 7.322l36.468 17.213c2.588 1.228 4.738 2.739 6.767 4.757l64.988 64.992c3.948 3.948 10.376 3.948 14.324 0zm254.842-359.031-58.65-58.65c-2.729-2.729-7.162-2.729-9.891 0l-258.898 258.903c-8.051-2.15-17.001-.089-23.306 6.221l-96.703 96.699c-5.562 5.562-8.074 13.528-6.724 21.297 1.35 7.764 6.263 14.173 13.486 17.58l36.468 17.222c1.148.541 1.943 1.101 2.842 1.99l64.988 64.993c4.706 4.706 10.879 7.058 17.062 7.058 6.178 0 12.357-2.362 17.057-7.058l57.327-57.323c7.073-7.082 9.058-17.199 5.181-26.422l-5.788-13.759 34.322-44.547c1.115-1.454 1.619-3.275 1.407-5.091l-2.899-24.822 24.737-3.529c3.76-.532 6.409-3.972 5.971-7.741l-2.903-24.821 24.732-3.529c3.76-.527 6.409-3.972 5.971-7.741l-2.899-24.817 24.737-3.529c3.76-.541 6.4-3.971 5.962-7.741l-2.903-24.821 24.742-3.529c3.76-.541 6.4-3.972 5.962-7.74l-2.903-24.822 24.742-3.529c3.76-.541 6.409-3.972 5.971-7.75l-2.903-24.821 24.742-3.52c3.75-.536 6.4-3.981 5.962-7.75l-2.899-24.817 24.737-3.529c1.812-.254 3.44-1.214 4.56-2.654l17.199-22.337c2.14-2.782 1.891-6.735-.598-9.224z"/></g></svg>