<svg id="Layer_1" viewBox="0 0 512 512" xmlns="http://www.w3.org/2000/svg" data-name="Layer 1"><path d="m426.65 30.33-234.73 208.39-34.86 24.18 26.51 25.39 8.42 62.91 30.36 55.68 26.67-21.16 1.05-16.97 1.46-11.22c.5-3.88 3.74-6.83 7.65-6.96l10.33-.36 2.47-19.01c.5-3.88 3.74-6.83 7.65-6.96l10.33-.36 2.47-19.01c.5-3.88 3.74-6.83 7.65-6.96l10.33-.36 2.47-19.01c.5-3.88 3.74-6.83 7.65-6.96l10.33-.36 2.47-19.01c.5-3.88 3.74-6.83 7.65-6.96l10.33-.36 2.47-19.01c.5-3.88 3.74-6.83 7.65-6.96l10.33-.36 2.47-19.01c.5-3.88 3.74-6.83 7.65-6.96l10.33-.36 2.47-19.01c.5-3.88 3.74-6.83 7.65-6.96l10.33-.36 2.47-19.01c.5-3.88 3.74-6.83 7.65-6.96l10.33-.36 2.47-19.01c.5-3.88 3.74-6.83 7.65-6.96l10.33-.36 2.47-19.01c.5-3.88 3.74-6.83 7.65-6.96l10.33-.36 1.94-14.97-49.3-41.57zm15.14 64.94c-5.1 5.1-11.81 7.66-18.52 7.66s-13.41-2.55-18.51-7.66c-.52-.52-1.01-1.07-1.49-1.63-.05-.05-.1-.08-.14-.13-4.33-4.33-6.31-10.09-6-15.75-.27-7.04 2.27-14.16 7.63-19.52 10.21-10.21 26.82-10.21 37.03 0s10.21 26.82 0 37.03z" fill="#d9dce5"/><path d="m450.54 129.52 3.59-.13c.59-.02 1.16-.11 1.71-.25l-5.28.18-.03.2z" fill="#a79ba7"/><path d="m470.88 104.01 3.04-.11c1.4-.04 2.7-.46 3.82-1.15l-6.73.24z" fill="#a79ba7"/><path d="m175.15 418.62s-.02 0-.03 0c-.06-.01-.12-.03-.18-.05-.13-.03-.25-.07-.38-.1-.45-.11-.89-.24-1.32-.39-.11-.04-.21-.07-.32-.11-.5-.18-1-.39-1.48-.62-.12-.06-.24-.12-.36-.18-.44-.22-.88-.46-1.3-.72-.06-.04-.12-.07-.18-.1-.47-.29-.91-.61-1.35-.95-.1-.08-.21-.16-.31-.25-.44-.36-.87-.73-1.28-1.14l-61.95-61.95c-.29-.29-.56-.59-.82-.89.42.79.94 1.53 1.59 2.17l64.01 64.01c2.02 2.02 4.92 3.03 8.14 2.84 1.95-.11 3.87-.66 5.65-1.57-2.74.54-5.51.54-8.13-.04z" fill="#fe6470"/><path d="m97.55 383.25 47.46 47.46c13.74 13.74 17.75 34.47 10.65 52.22 1.69 1.69 3.38 3.37 5.06 5.06 6.87-8.02 13.83-16.07 20.6-23.92 17.07-19.75 34.66-40.12 51.33-60.46l-5.77-5.77s-.01-.01-.02-.02l-11.01-11.01c-11.58-11.58-11.58-30.42 0-42l1.73-1.73-17.93-17.93c-5.76-5.76-8.84-13.36-8.68-21.4.1-5.17 1.54-10.17 4.14-14.62l-35.18-35.18-121.03 112.56c2.06 2.06 4.13 4.12 6.19 6.19 17.81-7.24 38.63-3.27 52.46 10.55zm43.58-104.36c8.78-8.78 23.08-8.79 31.86 0 4.25 4.26 6.6 9.91 6.6 15.93s-2.34 11.68-6.6 15.93c-4.39 4.39-10.16 6.59-15.93 6.59s-11.54-2.2-15.93-6.59c-4.25-4.25-6.6-9.91-6.6-15.93s2.34-11.68 6.6-15.93zm-45.25 45.25c5.5-5.5 12.66-8.78 20.16-9.22 7.86-.46 15.09 2.21 20.39 7.5l64.01 64.01c5.3 5.3 7.96 12.54 7.5 20.39-.44 7.5-3.71 14.66-9.22 20.16-5.5 5.5-12.66 8.78-20.16 9.22-.58.03-1.16.05-1.73.05-7.18 0-13.75-2.65-18.66-7.55l-64.01-64.01c-10.71-10.71-9.94-28.9 1.71-40.55z" fill="#fe6470"/><path d="m141.73 474.24c.44-1.48.78-2.97 1-4.48-.8 1.38-1.12 2.94-1 4.48z" fill="#fe6470"/><g fill="#e6e1e1"><path d="m171.44 417.37c-.12-.06-.24-.12-.36-.18.12.06.24.12.36.18z"/><path d="m173.24 418.1c-.11-.04-.21-.07-.32-.11.11.04.21.07.32.11z"/><path d="m174.95 418.58c-.13-.03-.25-.07-.38-.1.13.03.25.07.38.1z"/><path d="m169.78 416.48c-.06-.04-.12-.07-.18-.1.06.04.12.07.18.1z"/><path d="m175.15 418.62c2.62.58 5.39.58 8.13.04 1.49-.75 2.89-1.75 4.13-2.99 2.73-2.73 4.35-6.2 4.56-9.78.04-.67.01-1.31-.05-1.94-1.1 3.04-2.9 5.95-5.39 8.44-3.29 3.29-7.29 5.38-11.38 6.24z"/><path d="m168.25 415.43c-.1-.08-.21-.16-.31-.25.1.08.21.17.31.25z"/></g><path d="m166.66 414.04c.41.41.84.78 1.28 1.14.1.08.21.17.31.25.44.34.89.66 1.35.95.06.04.12.07.18.1.42.26.86.5 1.3.72l.36.18c.49.23.98.43 1.48.62.1.04.21.07.32.11.44.15.88.28 1.32.39.13.03.25.07.38.1.06.01.12.03.18.05h.03c4.09-.86 8.09-2.96 11.38-6.24 2.49-2.49 4.29-5.4 5.39-8.44-.24-2.43-1.19-4.59-2.8-6.19l-64.01-64.01c-1.91-1.92-4.55-2.85-7.36-2.85-3.64 0-7.56 1.56-10.56 4.56-4.54 4.54-5.76 11.17-3.3 15.75.26.3.53.6.82.89l61.95 61.95z" fill="#fff"/><path d="m161.68 299.44c1.23-1.23 1.91-2.87 1.91-4.62s-.68-3.38-1.91-4.62c-1.27-1.27-2.95-1.91-4.62-1.91s-3.34.64-4.62 1.91c-1.23 1.23-1.91 2.87-1.91 4.62s.68 3.38 1.91 4.62c2.55 2.55 6.69 2.55 9.24 0z" fill="#fff"/><path d="m430.48 83.96c3.97-3.97 3.97-10.43 0-14.4s-10.43-3.97-14.4 0-3.97 10.43 0 14.4 10.43 3.97 14.4 0z" fill="#fff"/><path d="m403.13 93.52s.1.08.14.13c-3.88-4.59-5.93-10.21-6.15-15.89-.31 5.66 1.68 11.43 6 15.75z" fill="#fff"/><path d="m489.93 62.76-58.26-49.12c-3.04-2.56-7.49-2.5-10.47.13l-3.1 2.75-247.49 219.73-3.05 2.71-1.77-1.77c-2.36-2.36-5.82-2.93-8.73-1.72-.85.35-1.66.86-2.37 1.52l-126.22 117.37-6.54 6.09c-1.59 1.48-2.51 3.54-2.55 5.71s.81 4.27 2.34 5.8c5.36 5.36 10.72 10.71 16.08 16.06 2.54 2.54 6.46 3.07 9.59 1.3 12.64-7.15 28.62-5 38.85 5.24l47.46 47.46c7.38 7.38 10.54 17.77 9.04 27.74-.23 1.51-.56 3-1 4.48-.66 2.22-1.55 4.39-2.71 6.47-1.74 3.13-1.2 7.03 1.33 9.56 5.06 5.05 10.11 10.1 15.16 15.15 1.5 1.5 3.54 2.34 5.66 2.34h.32c2.23-.09 4.32-1.11 5.77-2.8 8.63-10.12 17.54-20.44 26.16-30.42 18.71-21.65 38.05-44.04 56.21-66.42 2.19-2.69 2.34-6.41.58-9.25-.32-.52-.69-1.01-1.14-1.45l-1.77-1.77 4.1-1.35 7.22-2.38c2.92-.96 5.03-3.52 5.43-6.57l2.47-19.01 10.33-.36c3.91-.14 7.15-3.08 7.65-6.96l2.47-19.01 10.33-.36c3.91-.14 7.15-3.08 7.65-6.96l2.47-19.01 10.33-.36c3.91-.14 7.15-3.08 7.65-6.96l2.47-19.01 10.33-.36c3.91-.14 7.15-3.08 7.65-6.96l2.47-19.01 10.33-.36c3.91-.14 7.15-3.08 7.65-6.96l2.47-19.01 10.33-.36c3.91-.14 7.15-3.08 7.65-6.96l2.47-19.01 10.33-.36c3.91-.14 7.15-3.08 7.65-6.96l2.47-19.01 10.33-.36c3.91-.14 7.15-3.08 7.65-6.96l2.47-19.01 10.33-.36c3.91-.14 7.15-3.08 7.65-6.96l2.44-18.81.03-.2 5.28-.18 5.05-.18c3.91-.14 7.15-3.08 7.65-6.96l2.33-17.98.13-1.02 6.73-.24 3.6-.13c3.91-.14 7.15-3.08 7.65-6.96l3.04-23.43c.11-.24.21-.49.3-.74 1.08-3.13.12-6.59-2.41-8.73zm-63.29-32.43 49.3 41.57-1.94 14.97-10.33.36c-3.91.14-7.15 3.08-7.65 6.96l-2.47 19.01-10.33.36c-3.91.14-7.15 3.08-7.65 6.96l-2.47 19.01-10.33.36c-3.91.14-7.15 3.08-7.65 6.96l-2.47 19.01-10.33.36c-3.91.14-7.15 3.08-7.65 6.96l-2.47 19.01-10.33.36c-3.91.14-7.15 3.08-7.65 6.96l-2.47 19.01-10.33.36c-3.91.14-7.15 3.08-7.65 6.96l-2.47 19.01-10.33.36c-3.91.14-7.15 3.08-7.65 6.96l-2.47 19.01-10.33.36c-3.91.14-7.15 3.08-7.65 6.96l-2.47 19.01-10.33.36c-3.91.14-7.15 3.08-7.65 6.96l-2.47 19.01-10.33.36c-3.91.14-7.15 3.08-7.65 6.96l-2.47 19.01-10.33.36c-3.91.14-7.15 3.08-7.65 6.96l-2.51 19.31-.19 1.44-7.99 2.63-6.21 2.05-7.48-7.48c-4.05-4.05-5.02-10.02-2.93-15 .67-1.59 1.64-3.08 2.93-4.37l7.39-7.39c1.5-1.5 2.34-3.54 2.34-5.66 0-.93-.17-1.85-.48-2.71-.4-1.1-1.02-2.11-1.86-2.95l-23.59-23.59c-2.65-2.65-4.07-6.12-4-9.76.04-2.05.55-4.04 1.46-5.89.73-1.49 1.71-2.88 2.94-4.11 1.5-1.5 2.34-3.54 2.34-5.66 0-.16-.01-.31-.02-.47-.11-1.95-.93-3.8-2.32-5.19l-32.47-32.47 3.06-2.71 244.72-217.18zm-266.71 223.62 35.18 35.18c-2.6 4.44-4.04 9.44-4.14 14.62-.16 8.04 2.92 15.64 8.68 21.4l17.93 17.93-1.73 1.73c-11.58 11.58-11.58 30.42 0 42l11.01 11.01s.01.01.02.02l5.77 5.77c-16.67 20.33-34.27 40.7-51.33 60.46-6.78 7.85-13.74 15.9-20.6 23.92-1.69-1.69-3.38-3.37-5.06-5.06 7.1-17.75 3.09-38.48-10.65-52.22l-47.46-47.46c-13.83-13.83-34.65-17.79-52.46-10.55-2.06-2.06-4.13-4.12-6.19-6.19z"/><path d="m404.76 95.28c5.1 5.1 11.81 7.66 18.51 7.66s13.41-2.55 18.52-7.66c10.21-10.21 10.21-26.82 0-37.03s-26.82-10.21-37.03 0c-5.36 5.36-7.9 12.48-7.63 19.52.22 5.68 2.27 11.3 6.15 15.89.47.56.96 1.1 1.49 1.63zm11.31-25.72c3.97-3.97 10.43-3.97 14.4 0s3.97 10.43 0 14.4-10.43 3.97-14.4 0-3.97-10.43 0-14.4z"/><path d="m157.07 317.34c5.77 0 11.54-2.2 15.93-6.59 4.26-4.26 6.6-9.91 6.6-15.93s-2.34-11.68-6.6-15.93c-8.79-8.79-23.08-8.78-31.86 0-4.25 4.26-6.6 9.91-6.6 15.93s2.34 11.68 6.6 15.93c4.39 4.39 10.16 6.59 15.93 6.59zm-6.53-22.52c0-1.74.68-3.38 1.91-4.62 1.27-1.27 2.95-1.91 4.62-1.91s3.35.64 4.62 1.91c1.23 1.23 1.91 2.87 1.91 4.62s-.68 3.38-1.91 4.62c-2.54 2.55-6.69 2.55-9.24 0-1.23-1.23-1.91-2.87-1.91-4.62z"/><path d="m158.18 428.7c4.91 4.91 11.48 7.55 18.66 7.55.57 0 1.15-.02 1.73-.05 7.5-.44 14.66-3.71 20.16-9.22 5.5-5.5 8.78-12.66 9.22-20.16.46-7.85-2.2-15.09-7.5-20.39l-64.01-64.01c-5.3-5.3-12.53-7.97-20.39-7.5-7.5.44-14.66 3.71-20.16 9.22-11.65 11.65-12.42 29.84-1.71 40.55l64.01 64.01zm19.45-8.47c-3.21.19-6.12-.82-8.14-2.84l-64.01-64.01c-.65-.65-1.17-1.38-1.59-2.17-2.46-4.58-1.23-11.21 3.3-15.75 3-3 6.92-4.56 10.56-4.56 2.81 0 5.45.93 7.36 2.85l64.01 64.01c1.61 1.61 2.56 3.76 2.8 6.19.06.63.09 1.28.05 1.94-.21 3.58-1.83 7.05-4.56 9.78-1.24 1.24-2.64 2.24-4.13 2.99-1.79.9-3.7 1.45-5.65 1.57z"/></svg>