<svg viewBox="0 0 64 64" xmlns="http://www.w3.org/2000/svg"><g id="Scarecrow"><path d="m1 31h6v5h-6z" fill="#f9edd2"/><path d="m57 31h6v5h-6z" fill="#f9edd2"/><path d="m19 59 3-20-15-1v-9h50v9l-15 1 3 20-7 4-6-2-6 2h.002z" fill="#efd8b9"/><path d="m19 59 3-20.001v-9.999h20v9.999l3 20.004-7 3.997-6-2-6 2h.002z" fill="#ffbf73"/><path d="m22 11 2.57227-8.57422a1.9881 1.9881 0 0 1 1.91601-1.42578h11.02344a1.98809 1.98809 0 0 1 1.916 1.42578l2.57228 8.57422z" fill="#efa65e"/><path d="m32 35a4.004 4.004 0 0 1 -4-4v-4h8v4a4.004 4.004 0 0 1 -4 4z" fill="#efd8b9"/><ellipse cx="32" cy="14" fill="#ffbf73" rx="18" ry="5"/><path d="m32 30a6.58147 6.58147 0 0 1 -3.66406-1.10937 9.7163 9.7163 0 0 1 -4.33594-8.10157v-6.26953a62.20936 62.20936 0 0 1 16.001 0l-.001 6.26953a9.7163 9.7163 0 0 1 -4.33594 8.10157 6.58147 6.58147 0 0 1 -3.66406 1.10937z" fill="#f9edd2"/><path d="m30 53a4.004 4.004 0 0 1 -4-4v-4h12v4a4.004 4.004 0 0 1 -4 4z" fill="#efa65e"/><g fill="#38342b"><path d="m29 21a.99942.99942 0 0 0 1-1v-1a1 1 0 0 0 -2 0v1a.99942.99942 0 0 0 1 1z"/><path d="m35 21a.99942.99942 0 0 0 1-1v-1a1 1 0 0 0 -2 0v1a.99942.99942 0 0 0 1 1z"/><path d="m63 30h-3.00067l1.60028-1.20019a.99961.99961 0 0 0 -1.19922-1.59961l-2.40039 1.80025v-.00045a.99943.99943 0 0 0 -1-1h-18.78009a10.7124 10.7124 0 0 0 2.78009-7.211v-1.44785c3.57141-.56647 10-2.04407 10-5.34115 0-2.41974-3.61255-4.12726-8.58289-5.08716l-2.03137-6.77518a2.99649 2.99649 0 0 0 -2.87597-2.13766h-11.01954a2.99909 2.99909 0 0 0 -2.87793 2.14254l-2.02948 6.77026c-4.97033.9599-8.58282 2.66742-8.58282 5.0872 0 3.29712 6.42859 4.77472 10 5.34119v1.44781a10.71245 10.71245 0 0 0 2.78015 7.211h-18.78015a.99943.99943 0 0 0 -1 1v.00049l-2.40039-1.80033a.99961.99961 0 0 0 -1.19922 1.59961l1.60028 1.20023h-3.00067a.99943.99943 0 0 0 -1 1v5a.99942.99942 0 0 0 1 1h3.00067l-1.60028 1.2002a.99961.99961 0 1 0 1.19922 1.59961l2.40039-1.80034v.00053a1.00043 1.00043 0 0 0 .93359.998l13.916.92773-2.83885 18.9258a1.00134 1.00134 0 0 0 .49317 1.0166l7 4a.998.998 0 0 0 .8125.08007l5.68359-1.89453 5.68359 1.89453a.98077.98077 0 0 0 .31641.0518 1.00335 1.00335 0 0 0 .49609-.13183l7-4a1.00134 1.00134 0 0 0 .49317-1.0166l-2.83887-18.92583 13.916-.92773a1.00043 1.00043 0 0 0 .93361-.99801v-.00049l2.40039 1.8003a.99961.99961 0 0 0 1.19922-1.59961l-1.60028-1.2002h3.00067a.99942.99942 0 0 0 1-1v-5a.99943.99943 0 0 0 -1-1zm-57 5h-4v-3h4zm19.52637-32.27836a1.00691 1.00691 0 0 1 .96386-.72164h11.01954a1.00431 1.00431 0 0 1 .96191.7168l1.74847 5.83282a61.74579 61.74579 0 0 0 -16.44036 0zm-2.52637 11.79785v2.79859c-5.507-.9079-8-2.45178-8-3.31808 0-1.35742 6-4 17-4s17 2.64258 17 4c0 .86634-2.493 2.41022-8 3.31812v-2.79863a1.0008 1.0008 0 0 0 -.86426-.99121 63.1961 63.1961 0 0 0 -16.27148 0 1.0008 1.0008 0 0 0 -.86426.99121zm2 6.26951v-5.38962a61.91522 61.91522 0 0 1 14 0v5.38962a8.7186 8.7186 0 0 1 -3.89062 7.26953 5.69209 5.69209 0 0 1 -6.21875 0 8.71858 8.71858 0 0 1 -3.89063-7.26953zm10 9.5794v.6316a3 3 0 0 1 -6 0v-.63153a7.44132 7.44132 0 0 0 6 0zm-27 6.696v-7.0644h7v1a1 1 0 0 0 2 0v-1h4v7.93091zm35.90918 21.40724-6.01758 3.43848-5.57519-1.8584a1.002 1.002 0 0 0 -.63282 0l-5.57519 1.8584-6.01758-3.43848.52075-3.47164h2.38843a1 1 0 0 0 0-2h-2.08844l2.0777-13.85156c.00366-.02484-.00617-.04877-.00434-.07367.00202-.02604.01508-.04826.01508-.07477v-9h4v1a5 5 0 0 0 10 0v-1h4v9h-4a1 1 0 0 0 0 2h4.28845zm12.09082-21.40722-5 .33325v-1.39767a1 1 0 0 0 -2 0v1.531l-6 .3999v-7.9309h13zm6-2.06442h-4v-3h4z"/><path d="m38 44h-12a.99943.99943 0 0 0 -1 1v4a5.00588 5.00588 0 0 0 5 5h4a5.00588 5.00588 0 0 0 5-5v-4a.99943.99943 0 0 0 -1-1zm-1 5a3.00328 3.00328 0 0 1 -3 3h-4a3.00328 3.00328 0 0 1 -3-3v-3h10z"/><path d="m29 24a.99942.99942 0 0 0 1 1h4a1 1 0 0 0 0-2h-4a.99943.99943 0 0 0 -1 1z"/></g></g></svg>