<svg id="Layer_1" viewBox="0 0 96 96" xmlns="http://www.w3.org/2000/svg" data-name="Layer 1"><path d="m90.46 51.82-19.27-11.75c-.47-.3-1.02-.45-1.59-.45h-11.14c2.48-2.6 4.01-6.11 4.01-9.97 0-1.94-.39-3.85-1.13-5.61h4.27c2.76 0 5-2.24 5-5s-2.24-5-5-5h-7.59c0-.06.01-.11.01-.17 0-5.46-4.44-9.91-9.91-9.91s-9.91 4.45-9.91 9.91v.17h-7.61c-2.75 0-5 2.24-5 5s2.25 5 5 5h4.05c-.74 1.76-1.14 3.67-1.14 5.61 0 3.86 1.54 7.37 4.01 9.97h-11.14c-.56 0-1.11.15-1.59.45l-19.24 11.75c-1.32.8-1.81 2.46-1.13 3.86l4.07 8.43c.69 1.43 2.38 2.09 3.85 1.51l11.06-4.33c.33-.13.69-.09.98.11.28.19.43.49.43.82v15.99c0 1.66 1.36 3 3.03 3h13.86v9.83c0 .55.45 1 1 1h10.83c.55 0 1-.45 1-1v-9.83h13.62c1.67 0 3.03-1.34 3.03-3v-15.99c0-.33.16-.63.44-.82.29-.2.64-.24.97-.11l11.07 4.33c1.47.58 3.16-.08 3.85-1.51l4.08-8.44c.67-1.39.18-3.04-1.13-3.85zm-42.34-45.86c4.36 0 7.91 3.55 7.91 7.91 0 .06-.01.11-.01.17h-15.8c0-.06 0-.11 0-.17 0-4.36 3.55-7.91 7.91-7.91zm-17.51 16.08c-1.65 0-3-1.35-3-3s1.35-3 3-3h35c1.66 0 3 1.35 3 3s-1.34 3-3 3zm4.91 7.61c0-1.96.48-3.89 1.36-5.61h22.24c.87 1.72 1.35 3.64 1.35 5.61 0 6.88-5.59 12.47-12.47 12.47s-12.48-5.59-12.48-12.47zm17.56 13.53-3.36 5.55c-.36.6-.97.95-1.68.96-.7.03-1.32-.31-1.7-.9l-3.78-5.74c1.68.68 3.52 1.07 5.44 1.07 1.79 0 3.5-.34 5.08-.94zm-25.24 36.03c-.56 0-1.03-.45-1.03-1v-15.99c0-.99-.49-1.92-1.31-2.48-.51-.35-1.11-.52-1.71-.52-.38 0-.76.06-1.12.21l-11.06 4.33c-.51.2-1.09-.03-1.32-.52l-4.07-8.43c-.23-.47-.07-1.02.37-1.29l19.25-11.75c.17-.1.36-.15.55-.15h12.83l5.45 8.27c.55.84 1.39 1.43 2.33 1.68v27.64zm24.69 10.83h-8.83v-8.83h8.83zm37.26-35.24-4.08 8.44c-.24.49-.82.72-1.32.52l-11.07-4.33c-.94-.37-2-.25-2.83.31-.82.56-1.31 1.49-1.31 2.48v15.99c0 .55-.46 1-1.03 1h-19.15v-27.64c1-.26 1.88-.89 2.43-1.8l4.94-8.15h13.23c.2 0 .39.05.55.15l19.26 11.76c.44.26.6.81.38 1.27z"/><path d="m56.03 13.87c0 .06-.01.11-.01.17h-15.8c0-.06 0-.11 0-.17 0-4.36 3.55-7.91 7.91-7.91s7.91 3.55 7.91 7.91z" fill="#795548"/><path d="m68.61 19.04c0 1.65-1.34 3-3 3h-35c-1.65 0-3-1.35-3-3s1.35-3 3-3h35c1.66 0 3 1.35 3 3z" fill="#795548"/><path d="m60.47 29.65c0 6.88-5.59 12.47-12.47 12.47s-12.48-5.59-12.48-12.47c0-1.96.48-3.89 1.36-5.61h22.24c.87 1.72 1.35 3.64 1.35 5.61z" fill="#ffe0b2"/><path d="m53.08 43.18-3.36 5.55c-.36.6-.97.95-1.68.96-.7.03-1.32-.31-1.7-.9l-3.78-5.74c1.68.68 3.52 1.07 5.44 1.07 1.79 0 3.5-.34 5.08-.94z" fill="#ffe0b2"/><path d="m47 51.57v27.64h-19.16c-.56 0-1.03-.45-1.03-1v-15.99c0-.99-.49-1.92-1.31-2.48-.51-.35-1.11-.52-1.71-.52-.38 0-.76.06-1.12.21l-11.06 4.33c-.51.2-1.09-.03-1.32-.52l-4.07-8.43c-.23-.47-.07-1.02.37-1.29l19.25-11.75c.17-.1.36-.15.55-.15h12.83l5.45 8.27c.55.84 1.39 1.43 2.33 1.68z" fill="#ffa726"/><path d="m89.79 54.8-4.08 8.44c-.24.49-.82.72-1.32.52l-11.07-4.33c-.94-.37-2-.25-2.83.31-.82.56-1.31 1.49-1.31 2.48v15.99c0 .55-.46 1-1.03 1h-19.15v-27.64c1-.26 1.88-.89 2.43-1.8l4.94-8.15h13.23c.2 0 .39.05.55.15l19.26 11.76c.44.26.6.81.38 1.27z" fill="#ffa726"/><path d="m43.7 81.21h8.83v8.83h-8.83z" fill="#795548"/></svg>