<svg id="Layer_1" viewBox="0 0 1000 1000" xmlns="http://www.w3.org/2000/svg" data-name="Layer 1"><path d="m588.2 388.6-16.15-16.15c-.23-.23-.46-.45-.7-.66-22.52-49.88-10.05-115.6 34.67-164.1a175.12 175.12 0 0 1 19.61 49.22c10.68 47.3-1.91 91.55-37.43 131.69z" fill="#e53935"/><path d="m792.27 394c-28.77 26.56-64.27 42.54-100.76 45.24-3.62.26-7.19.4-10.74.4a127.31 127.31 0 0 1 -52.51-10.93c-.22-.26-.45-.51-.7-.76l-16.16-16.15c39.8-35.22 83.67-47.9 130.55-37.69a175.16 175.16 0 0 1 50.32 19.89z" fill="#e53935"/><path d="m874.12 253.91a358.41 358.41 0 0 1 -31.84 74.4 323.58 323.58 0 0 1 -27.88 41.69 208 208 0 0 0 -64.26-26.84c-26.94-6.08-62.44-7.7-100.85 7.56 15.26-38.41 13.64-73.91 7.56-100.85a208 208 0 0 0 -26.85-64.27c31.64-25.19 74.77-47.61 116.08-59.72 22.57-6.61 43.28-9.89 61.32-9.89 25.14 0 45.09 6.37 57.66 18.94 21.59 21.58 24.94 64.95 9.06 118.98z" fill="#e53935"/><path d="m589.67 443.2-25.18 25.19a5.28 5.28 0 0 1 -3.75 1.55 5.43 5.43 0 0 1 -1.68-.27 5.27 5.27 0 0 1 -2.07-1.28l-3.36-3.39-.44-.43-17.79-17.76-.43-.44-3.36-3.37a5.31 5.31 0 0 1 0-7.5l25.19-25.19a147 147 0 0 0 32.87 32.88z" fill="#fbc02d"/><path d="m508.67 528.47c-9.67 9.69-21.52 16.53-32.46 18.73l-.3.06-.45.08-.44.08h-.1c-5.22.88-13.5 1.24-18.55-3.81s-4.69-13.33-3.81-18.55c0 0 0-.07 0-.1s.06-.29.08-.44 0-.3.08-.45l.06-.3c2.21-10.94 9-22.78 18.73-32.46 13.48-13.49 28.66-19.47 39.62-19.47a25.86 25.86 0 0 1 4.42.36l12.21 12.21c1.94 11.03-3.68 28.66-19.09 44.06z" fill="#fbc02d"/><path d="m444.51 574.17-303.21 303.2-18.67-18.67 303.2-303.21a44.15 44.15 0 0 0 18.68 18.68z" fill="#fbc02d"/><g fill="#fff" opacity=".5"><path d="m578.2 398.6-16.15-16.15c-.23-.23-.46-.45-.7-.66-22.52-49.88-10.05-115.6 34.67-164.1a175.12 175.12 0 0 1 19.61 49.22c10.68 47.3-1.91 91.55-37.43 131.69z"/><path d="m782.27 404c-28.77 26.56-64.27 42.54-100.76 45.24-3.62.26-7.19.4-10.74.4a127.31 127.31 0 0 1 -52.51-10.93c-.22-.26-.45-.51-.7-.76l-16.16-16.15c39.8-35.22 83.67-47.9 130.55-37.69a175.16 175.16 0 0 1 50.32 19.89z"/><path d="m864.12 263.91a358.41 358.41 0 0 1 -31.84 74.4 323.58 323.58 0 0 1 -27.88 41.69 208 208 0 0 0 -64.26-26.84c-26.94-6.08-62.44-7.7-100.85 7.56 15.26-38.41 13.64-73.91 7.56-100.85a208 208 0 0 0 -26.85-64.27c31.64-25.19 74.77-47.61 116.08-59.72 22.57-6.61 43.28-9.89 61.32-9.89 25.14 0 45.09 6.37 57.66 18.94 21.59 21.58 24.94 64.95 9.06 118.98z"/><path d="m579.67 453.2-25.18 25.19a5.28 5.28 0 0 1 -3.75 1.55 5.43 5.43 0 0 1 -1.68-.27 5.27 5.27 0 0 1 -2.07-1.28l-3.36-3.39-.44-.43-17.79-17.76-.43-.44-3.36-3.37a5.31 5.31 0 0 1 0-7.5l25.19-25.19a147 147 0 0 0 32.87 32.88z"/><path d="m498.67 538.47c-9.67 9.69-21.52 16.53-32.46 18.73l-.3.06-.45.08-.44.08h-.1c-5.22.88-13.5 1.24-18.55-3.81s-4.69-13.33-3.81-18.55c0 0 0-.07 0-.1s.06-.29.08-.44 0-.3.08-.45l.06-.3c2.21-10.94 9-22.78 18.73-32.46 13.48-13.49 28.66-19.47 39.62-19.47a25.86 25.86 0 0 1 4.42.36l12.21 12.21c1.94 11.03-3.68 28.66-19.09 44.06z"/><path d="m434.51 584.17-303.21 303.2-18.67-18.67 303.2-303.21a44.15 44.15 0 0 0 18.68 18.68z"/></g><g fill="#413b32"><path d="m887.7 112.3c-30.55-30.55-84-36.63-150.61-17.13-50.09 14.68-100.94 42.19-136.69 73.47q-2.53 2.21-5 4.45-3.54 3.25-6.85 6.57c-35.09 35.09-56.3 80-59.73 126.48-2 26.86 2.08 52.42 11.67 75.21a146.21 146.21 0 0 0 78.13 78.13 159.35 159.35 0 0 0 62 12.16q6.52 0 13.18-.49a191 191 0 0 0 67.51-18 211.2 211.2 0 0 0 59-41.74q3.31-3.32 6.58-6.86c1.49-1.62 3-3.27 4.44-5 31.28-35.75 58.79-86.64 73.47-136.69 19.53-66.52 13.45-120.01-17.1-150.56zm-13.58 141.61a358.41 358.41 0 0 1 -31.84 74.4 323.58 323.58 0 0 1 -27.88 41.69 224.6 224.6 0 0 1 -16.68 18.8c-1.79 1.79-3.6 3.53-5.45 5.22-28.77 26.54-64.27 42.52-100.76 45.22-3.62.26-7.19.4-10.74.4a127.31 127.31 0 0 1 -52.51-10.93 113.41 113.41 0 0 1 -21.49-12.71.68.68 0 0 1 -.18-.13 113.14 113.14 0 0 1 -12-10.44 111.57 111.57 0 0 1 -10.44-12 1 1 0 0 1 -.13-.18 113.08 113.08 0 0 1 -12.63-21.44c-22.52-49.88-10.05-115.6 34.67-164.1q2.52-2.74 5.19-5.41a224.6 224.6 0 0 1 18.75-16.7c31.64-25.19 74.77-47.61 116.08-59.72 22.57-6.61 43.28-9.89 61.32-9.89 25.14 0 45.09 6.37 57.66 18.94 21.59 21.58 24.94 64.95 9.06 118.98z"/><path d="m649.29 350.71c-7.82 19.67-20.07 40.11-38.43 60.55-1.39 1.54-2.81 3.09-4.27 4.63-1.13 1.21-2.3 2.41-3.48 3.62l-.22.22-.38.36-.42.37c-.13.12-.27.23-.41.34-.36.3-.74.57-1.12.83l-.64.41-.39.22c-.16.09-.32.18-.49.26a16 16 0 0 1 -14.7 0c-.17-.08-.33-.17-.49-.26l-.39-.22-.64-.41c-.38-.26-.76-.53-1.12-.83-.14-.11-.28-.22-.41-.34l-.42-.37-.6-.58-.36-.38-.44-.49c-.39-.47-.76-1-1.1-1.46l-.41-.64-.22-.39c-.09-.16-.18-.32-.26-.49-.22-.42-.42-.85-.6-1.28q-.15-.36-.27-.72c-.08-.22-.15-.44-.22-.67a16 16 0 0 1 0-9.43c.06-.2.13-.41.2-.61.16-.44.33-.87.53-1.3.1-.24.22-.47.34-.7s.18-.35.28-.52.14-.23.2-.35.27-.43.41-.64c.34-.5.71-1 1.1-1.46l.44-.49.58-.6c1.18-1.22 2.35-2.43 3.49-3.66q2.17-2.31 4.22-4.63c35.52-40.14 48.11-84.39 37.43-131.69a175.12 175.12 0 0 0 -19.61-49.22 131.81 131.81 0 0 0 -10-15 16 16 0 0 1 -.55-19.58 15.66 15.66 0 0 1 2.77-2.94 15.34 15.34 0 0 1 2.2-1.51 16 16 0 0 1 20.32 3.73 143.11 143.11 0 0 1 9.26 13.21 208 208 0 0 1 26.84 64.26c6.09 26.94 7.71 62.44-7.55 100.85z"/><path d="m831.36 399.6a15.34 15.34 0 0 1 -1.51 2.2 15.55 15.55 0 0 1 -2.93 2.76 16 16 0 0 1 -19.56-.51 136.06 136.06 0 0 0 -15.09-10 175.16 175.16 0 0 0 -50.27-19.94c-46.88-10.21-90.75 2.47-130.55 37.69-1.55 1.37-3.1 2.77-4.63 4.22-1.23 1.14-2.44 2.31-3.66 3.49l-.22.22-.38.36-.42.37c-.13.12-.27.23-.41.34-.36.3-.74.57-1.12.83l-.64.41-.39.22c-.16.09-.32.18-.49.26a16 16 0 0 1 -14.7 0c-.17-.08-.33-.17-.49-.26l-.39-.22-.64-.41c-.38-.26-.76-.53-1.12-.83-.14-.11-.28-.22-.41-.34l-.42-.37-.6-.58-.36-.38-.44-.49c-.39-.47-.76-1-1.1-1.46l-.41-.64-.22-.39c-.09-.16-.18-.32-.26-.49-.22-.42-.42-.85-.6-1.28q-.15-.36-.27-.72c-.08-.22-.15-.44-.22-.67a16 16 0 0 1 0-9.43c.06-.2.13-.41.2-.61.16-.44.33-.87.53-1.3.1-.24.22-.47.34-.7s.18-.35.28-.52.14-.23.2-.35.27-.43.41-.64c.34-.5.71-1 1.1-1.46l.44-.49.58-.6c1.21-1.18 2.41-2.35 3.62-3.48 1.54-1.46 3.09-2.88 4.63-4.27 20.44-18.36 40.88-30.61 60.55-38.43 38.41-15.26 73.91-13.64 100.85-7.56a208 208 0 0 1 64.23 26.85 143.11 143.11 0 0 1 13.23 9.29 16 16 0 0 1 3.73 20.31z"/><path d="m535.4 446.81c.28.29.55.6.81.92.13.15.25.31.38.48s.24.32.35.49a3.48 3.48 0 0 1 .34.51 9.84 9.84 0 0 1 .62 1c.1.18.2.36.28.54.18.37.35.74.5 1.11s.29.76.41 1.15a14.87 14.87 0 0 1 .53 2.19c0 .26.08.53.11.79a9.83 9.83 0 0 1 .09 1.08v.7a15.6 15.6 0 0 1 -.19 2.54 15.6 15.6 0 0 1 2.54-.19h.7a9.83 9.83 0 0 1 1.08.09l.79.11a14.87 14.87 0 0 1 2.19.53c.39.12.77.26 1.15.41s.74.32 1.11.5c.18.08.36.18.54.28a9.84 9.84 0 0 1 1 .62 3.48 3.48 0 0 1 .51.34c.17.11.33.23.49.35s.33.25.48.38c.32.26.63.53.92.81zm92.86-18.1c-.22-.26-.45-.51-.7-.76l-16.16-16.15-.54-.54-22.12-22.12-.54-.54-16.15-16.15c-.23-.23-.46-.45-.7-.66a16 16 0 0 0 -21.93.66l-8.9 8.9-31.52 31.54a37 37 0 0 0 -10.93 26.37q0 1 .06 2a37 37 0 0 0 10.87 24.38l6.58 6.58 12.21 12.21 6.58 6.58a37 37 0 0 0 24.4 10.87q1 .06 2 .06a37 37 0 0 0 26.34-10.94l31.54-31.53 8.9-8.9a16 16 0 0 0 .71-21.86zm-63.77 39.68a5.28 5.28 0 0 1 -3.75 1.55 5.43 5.43 0 0 1 -1.68-.27 5.27 5.27 0 0 1 -2.07-1.28l-3.36-3.39-.44-.43-17.79-17.76-.43-.44-3.36-3.37a5.31 5.31 0 0 1 0-7.5l25.19-25.19 3.94-3.93 32.87 32.87-3.94 3.94zm-29.09-21.58c.28.29.55.6.81.92.13.15.25.31.38.48s.24.32.35.49a3.48 3.48 0 0 1 .34.51 9.84 9.84 0 0 1 .62 1c.1.18.2.36.28.54.18.37.35.74.5 1.11s.29.76.41 1.15a14.87 14.87 0 0 1 .53 2.19c0 .26.08.53.11.79a9.83 9.83 0 0 1 .09 1.08v.7a15.6 15.6 0 0 1 -.19 2.54 15.6 15.6 0 0 1 2.54-.19h.7a9.83 9.83 0 0 1 1.08.09l.79.11a14.87 14.87 0 0 1 2.19.53c.39.12.77.26 1.15.41s.74.32 1.11.5c.18.08.36.18.54.28a9.84 9.84 0 0 1 1 .62 3.48 3.48 0 0 1 .51.34c.17.11.33.23.49.35s.33.25.48.38c.32.26.63.53.92.81zm0 0c.28.29.55.6.81.92.13.15.25.31.38.48s.24.32.35.49a3.48 3.48 0 0 1 .34.51 9.84 9.84 0 0 1 .62 1c.1.18.2.36.28.54.18.37.35.74.5 1.11s.29.76.41 1.15a14.87 14.87 0 0 1 .53 2.19c0 .26.08.53.11.79a9.83 9.83 0 0 1 .09 1.08v.7a15.6 15.6 0 0 1 -.19 2.54 15.6 15.6 0 0 1 2.54-.19h.7a9.83 9.83 0 0 1 1.08.09l.79.11a14.87 14.87 0 0 1 2.19.53c.39.12.77.26 1.15.41s.74.32 1.11.5c.18.08.36.18.54.28a9.84 9.84 0 0 1 1 .62 3.48 3.48 0 0 1 .51.34c.17.11.33.23.49.35s.33.25.48.38c.32.26.63.53.92.81z"/><path d="m456.37 543.63c-5.05-5-4.69-13.33-3.81-18.55a15.09 15.09 0 0 1 -.66 2.27q-.16.45-.36.9c-.15.33-.3.66-.47 1a13.67 13.67 0 0 1 -.81 1.37 16.19 16.19 0 0 1 -2.05 2.51l-22.38 22.38a44.15 44.15 0 0 0 18.68 18.68l22.38-22.38a15.66 15.66 0 0 1 1.93-1.64c.19-.15.38-.28.58-.41a13.67 13.67 0 0 1 1.37-.81c.32-.17.65-.32 1-.47l.9-.36a15.09 15.09 0 0 1 2.27-.66c-5.24.86-13.52 1.22-18.57-3.83zm100.87-72.73a15.94 15.94 0 0 0 -3.61-5.87l-.44-.43c-.29-.28-.6-.55-.92-.81-.15-.13-.31-.25-.48-.38s-.32-.24-.49-.35l-.51-.34a9.84 9.84 0 0 0 -1-.62l-.54-.28c-.37-.18-.74-.35-1.11-.5s-.76-.29-1.15-.41a14.87 14.87 0 0 0 -2.19-.53l-.79-.11a9.83 9.83 0 0 0 -1.08-.09h-.7a15.6 15.6 0 0 0 -2.54.19 15.6 15.6 0 0 0 .19-2.54c0-.24 0-.47 0-.7a9.83 9.83 0 0 0 -.09-1.08c0-.26-.07-.53-.11-.79a14.87 14.87 0 0 0 -.53-2.19c-.12-.39-.26-.77-.41-1.15s-.32-.74-.5-1.11c-.09-.18-.18-.36-.28-.54a9.84 9.84 0 0 0 -.62-1l-.34-.51c-.11-.17-.23-.33-.35-.49s-.25-.33-.38-.48c-.26-.32-.53-.63-.81-.92l-.43-.44a15.94 15.94 0 0 0 -5.87-3.61c-9.41-3.27-20.06-3.67-31-1.52-17 3.35-34.67 12.91-49.22 27.46-13.22 13.22-22.58 29.1-26.62 45.09-.32 1.22-.59 2.44-.84 3.66-2.85 14.07-1.24 27.33 4.39 38a44.15 44.15 0 0 0 18.68 18.68 52.74 52.74 0 0 0 24.67 5.77 67 67 0 0 0 13.37-1.38c1.22-.25 2.44-.52 3.66-.84 16-4 31.87-13.4 45.09-26.62 14.55-14.55 24.11-32.2 27.46-49.22 2.11-10.9 1.71-21.59-1.56-31zm-48.57 57.57c-9.67 9.69-21.52 16.53-32.46 18.73l-.3.06-.45.08-.44.08h-.1c-5.22.88-13.5 1.24-18.55-3.81s-4.69-13.33-3.81-18.55c0 0 0-.07 0-.1s.05-.3.08-.44 0-.3.08-.45l.06-.3c2.21-10.94 9-22.78 18.73-32.46 13.48-13.49 28.66-19.47 39.62-19.47a25.86 25.86 0 0 1 4.42.36 19.19 19.19 0 0 1 3 .77 16 16 0 0 0 7.74.69 16 16 0 0 0 .69 7.74 19.19 19.19 0 0 1 .77 3c1.95 11.04-3.67 28.67-19.08 44.07zm-52.3 15.16c-5.05-5-4.69-13.33-3.81-18.55a15.09 15.09 0 0 1 -.66 2.27 8.44 8.44 0 0 1 -.36.9c-.15.33-.3.66-.47 1a13.67 13.67 0 0 1 -.81 1.37 16.19 16.19 0 0 1 -2.05 2.51l-22.38 22.38a44.15 44.15 0 0 0 18.68 18.68l22.38-22.38a15.66 15.66 0 0 1 1.93-1.64c.19-.15.38-.28.58-.41a13.67 13.67 0 0 1 1.37-.81c.32-.17.65-.32 1-.47a8.44 8.44 0 0 1 .9-.36 15.09 15.09 0 0 1 2.27-.66c-5.24.86-13.52 1.22-18.57-3.83z"/><path d="m489.52 574.41-336.9 336.9a16 16 0 0 1 -22.63 0l-41.3-41.31a16 16 0 0 1 0-22.63l336.9-336.9a16 16 0 0 1 27.15 13.61c0 .15-.05.3-.08.45s-.06.29-.08.44 0 .07 0 .1a15.09 15.09 0 0 1 -.66 2.27q-.16.45-.36.9c-.15.33-.3.66-.47 1a13.67 13.67 0 0 1 -.81 1.37 16.19 16.19 0 0 1 -2.05 2.51l-22.38 22.38-303.22 303.2 18.67 18.67 303.21-303.2 22.38-22.38a15.66 15.66 0 0 1 1.93-1.64c.19-.15.38-.28.58-.41a13.67 13.67 0 0 1 1.37-.81c.32-.17.65-.32 1-.47l.9-.36a15.09 15.09 0 0 1 2.27-.66h.1l.44-.08.45-.08a16 16 0 0 1 13.61 27.15z"/></g></svg>