<svg id="Layer_1-2" viewBox="0 0 64 64" xmlns="http://www.w3.org/2000/svg"><g id="School_Bus"><path d="m62.1104126 30.90112305-8.1104126-.90112305-3.49853516-16.61804199c-.29223633-1.38824463-1.51696777-2.38195801-2.93566895-2.38195801h-43.56579589c-1.65686035 0-3 1.34313965-3 3v30c0 1.65686035 1.34313965 3 3 3h58c.55230713 0 1-.44775391 1-1v-14.10498047c0-.50952148-.38311768-.93762207-.8895874-.99389648z" fill="#ffd278"/><path d="m1 43v4c0 .55224609.44769287 1 1 1h7v-5z" fill="#536170"/><path d="m55 43v5h7c.55230713 0 1-.44775391 1-1v-4z" fill="#536170"/><circle cx="49" cy="46" fill="#748793" r="7"/><circle cx="49" cy="46" fill="#657482" r="3"/><path d="m31 17h-8c-1.10455322 0-2 .89538574-2 2v28h12v-28c0-1.10461426-.89544678-2-2-2z" fill="#f9bd5f"/><circle cx="14" cy="46" fill="#748793" r="7"/><path d="m51.26318359 17h-12.26318359c-.55230713 0-1 .44769287-1 1v11c0 .55224609.44769287 1 1 1h15z" fill="#748793"/><rect fill="#748793" height="13" rx="1" width="10" x="6" y="17"/><path d="m62.1104126 30.90112305-4.1104126-.45666504v5.55554199c0 1.65686035 1.34313965 3 3 3h2v-7.10498047c0-.50952148-.38311768-.93762207-.8895874-.99389648z" fill="#f9bd5f"/><circle cx="14" cy="46" fill="#657482" r="3"/><g fill="#292930"><path d="m62.22070312 29.90625-7.39117432-.82025146-2.58734131-12.29205322c-.00067139-.0032959-.00286865-.00579834-.00360107-.0090332l-.7600708-3.60913086c-.38378906-1.83984375-2.02734375-3.17578125-3.90820312-3.17578125h-43.5703125c-2.20556641 0-4 1.79394531-4 4v34c0 .55273438.44775391 1 1 1h5.58898926c1.1897583 2.92797852 4.06103516 5 7.41101074 5 3.71948242 0 6.84509277-2.55529785 7.73669434-6h19.52661133c.89160156 3.44470215 4.01721191 6 7.73669434 6 3.34997559 0 6.22125244-2.07202148 7.41101074-5h6.58898926c.55273438 0 1-.44726562 1-1v-16.09960938c0-1.01855469-.76269531-1.875-1.77929688-1.99414062zm-.22070312 8.09375h-1c-1.10253906 0-2-.89746094-2-2v-4.43481445l3 .33520508v6.09960938zm-9.23248291-9h-13.76751709v-11h11.4510498zm-48.76751709-17h43.5703125c.93847656 0 1.75878906.66601562 1.95117188 1.5859375l.50836182 2.4140625h-11.02984619c-1.10253906 0-2 .89746094-2 2v11c0 1.10253906.89746094 2 2 2h14.94207764l3.05792236.3416748v1.6583252h-23v-14c0-1.65429688-1.34570312-3-3-3h-8c-1.65429688 0-3 1.34570312-3 3v14h-18.00000001v-19c0-1.10253906.89697266-2 2-2zm3.0824585 30h-5.0824585v-7h18v5.72625732c-1.46722412-1.66711426-3.60992432-2.72625732-6-2.72625732-2.95330811 0-5.53167725 1.61291504-6.9175415 4zm20.9175415-24h3c.55126953 0 1 .44824219 1 1v10h-4zm-2 11h-4v-10c0-.55175781.44873047-1 1-1h3zm-24 18v-3h4.26330566c-.16583252.64056396-.26330566 1.30834961-.26330566 2 0 .33935547.02825928.67163086.06945801 1zm12 5c-3.30859375 0-6-2.69140625-6-6s2.69140625-6 6-6 6 2.69140625 6 6-2.69140625 6-6 6zm8-21h4v15h-4zm6 15v-15h4v15zm6 0v-11h23v1c0 2.20605469 1.79394531 4 4 4h1v2h-6.0824585c-1.38586426-2.38708496-3.9642334-4-6.9175415-4-4.41113281 0-8 3.58886719-8 8zm15 6c-3.30859375 0-6-2.69140625-6-6s2.69140625-6 6-6 6 2.69140625 6 6-2.69140625 6-6 6zm13-5h-5.06945801c.04119873-.32836914.06945801-.66064453.06945801-1 0-.69165039-.09747314-1.35943604-.26330566-2h5.26330566z"/><path d="m14 42c-2.20556641 0-4 1.79394531-4 4s1.79443359 4 4 4 4-1.79394531 4-4-1.79443359-4-4-4zm0 6c-1.10302734 0-2-.89746094-2-2s.89697266-2 2-2 2 .89746094 2 2-.89697266 2-2 2z"/><path d="m49 42c-2.20605469 0-4 1.79394531-4 4s1.79394531 4 4 4 4-1.79394531 4-4-1.79394531-4-4-4zm0 6c-1.10253906 0-2-.89746094-2-2s.89746094-2 2-2 2 .89746094 2 2-.89746094 2-2 2z"/><path d="m7 31h8c1.10302734 0 2-.89746094 2-2v-11c0-1.10253906-.89697266-2-2-2h-8c-1.10302734 0-2 .89746094-2 2v11c0 1.10253906.89697266 2 2 2zm0-13h8l.00146484 11h-8.00146484z"/></g></g></svg>