<svg id="Layer_1-2" viewBox="0 0 64 64" xmlns="http://www.w3.org/2000/svg"><g id="Bus-2"><path d="m54.74615479 12.90679932c-.45001221-1.15002441-1.55877686-1.90679932-2.79376221-1.90679932h-47.95239258c-1.65686035 0-3 1.34313965-3 3v29.96887207c0 1.22674561.74682617 2.32989502 1.88580322 2.78546143l3.11419678 1.2456665h56c.55230713 0 1-.44769287 1-1v-13z" fill="#ffd278"/><circle cx="12" cy="47" fill="#748793" r="6"/><circle cx="12" cy="47" fill="#657482" r="2"/><circle cx="49" cy="47" fill="#748793" r="6"/><circle cx="49" cy="47" fill="#657482" r="2"/><path d="m55.56524658 15h-13.56524658c-.55230713 0-1 .44769287-1 1v12c0 .55230713.44769287 1 1 1h6l1.74853516 4.37139893c.15185547.37963867.51959229.62860107.92852783.62860107h12.32293701z" fill="#657482"/><rect fill="#657482" height="14" rx="1" width="16" x="21" y="15"/><rect fill="#657482" height="14" rx="1" width="12" x="5" y="15"/><path d="m61 38c-1.10455322 0-2 .89544678-2 2v2c0 1.10455322.89544678 2 2 2h2v-6z" fill="#f9bd5f"/><g fill="#292930"><path d="m12 44c-1.65429688 0-3 1.34570312-3 3s1.34570312 3 3 3 3-1.34570312 3-3-1.34570312-3-3-3zm0 4c-.55175781 0-1-.44873047-1-1s.44824219-1 1-1 1 .44873047 1 1-.44824219 1-1 1z"/><path d="m49 44c-1.65429688 0-3 1.34570312-3 3s1.34570312 3 3 3 3-1.34570312 3-3-1.34570312-3-3-3zm0 4c-.55175781 0-1-.44873047-1-1s.44824219-1 1-1 1 .44873047 1 1-.44824219 1-1 1z"/><path d="m36 14h-14c-1.10253906 0-2 .89697266-2 2v12c0 1.10302734.89746094 2 2 2h14c1.10253906 0 2-.89697266 2-2v-12c0-1.10302734-.89746094-2-2-2zm0 14h-14v-12h14z"/><path d="m16 14h-10c-1.10253906 0-2 .89697266-2 2v12c0 1.10302734.89746094 2 2 2h10c1.10253906 0 2-.89697266 2-2v-12c0-1.10302734-.89746094-2-2-2zm0 14h-10v-12h10z"/><path d="m63 21c.55273438 0 1-.44775391 1-1v-5c0-.55224609-.44726562-1-1-1h-6.74951172l-.56884766-1.45410156c-.60546875-1.546875-2.0703125-2.54589844-3.73144531-2.54589844h-47.95019531c-2.20605469 0-4 1.79443359-4 4v29.97021484c0 1.6484375.99023438 3.10449219 2.51660156 3.70751953l2.71905518 1.09277344c.78735352 3.00378418 3.51745605 5.22949219 6.76434326 5.22949219 3.16424561 0 5.84204102-2.11224365 6.7052002-5h23.58959961c.86315918 2.88775635 3.54095459 5 6.7052002 5s5.84204102-2.11224365 6.7052002-5h7.2947998c.55273438 0 1-.44775391 1-1v-14c0-.12451172-.0234375-.24804688-.06835938-.36425781l-6.89880371-17.63574219h4.96716309v4c0 .55224609.44726562 1 1 1zm-1.46496582 12h-10.8572998l-1.74902344-4.37158203c-.15234375-.37939453-.51953125-.62841797-.92871094-.62841797h-6v-12h12.88464355l6.65039062 17zm-49.53503418 19c-2.75683594 0-5-2.24316406-5-5s2.24316406-5 5-5 5 2.24316406 5 5-2.24316406 5-5 5zm37 0c-2.75683594 0-5-2.24316406-5-5s2.24316406-5 5-5 5 2.24316406 5 5-2.24316406 5-5 5zm7-5c0-3.85986328-3.140625-7-7-7s-7 3.14013672-7 7h-23c0-3.85986328-3.140625-7-7-7-3.70074463 0-6.73254395 2.88934326-6.97619629 6.52996826l-1.76696777-.71014404c-.76367188-.30175781-1.25683594-1.02783203-1.25683594-1.84960938v-8.97021484h34c.55273438 0 1-.44775391 1-1s-.44726562-1-1-1h-34v-19c0-1.10302734.89746094-2 2-2h47.95019531c.83203125 0 1.56542969.50048828 1.86816406 1.27441406l.28387451.72558594h-12.10223389c-1.10253906 0-2 .89697266-2 2v12c0 1.10302734.89746094 2 2 2h5.32324219l1.49707031 3.7421875c.3046875.76416016 1.03320312 1.2578125 1.85644531 1.2578125h11.32324219v2h-1c-1.65429688 0-3 1.34570312-3 3v2c0 1.65429688 1.34570312 3 3 3h1v2h-6zm6-4h-1c-.55175781 0-1-.44873047-1-1v-2c0-.55126953.44824219-1 1-1h1z"/></g></g></svg>