<svg clip-rule="evenodd" fill-rule="evenodd" stroke-linejoin="round" stroke-miterlimit="2" viewBox="0 0 96 96" xmlns="http://www.w3.org/2000/svg"><g><g><path d="m83.401 17.338c-1.78-1.99-5.056-2.641-9.432-1.703-8.782 1.884-22.557 10.04-36.047 22.108-13.489 12.068-23.123 24.854-25.969 33.373-1.418 4.245-1.134 7.573.646 9.563 1.78 1.989 5.056 2.64 9.432 1.702 8.782-1.883 22.557-10.04 36.047-22.108 13.489-12.068 23.123-24.854 25.969-33.373 1.418-4.245 1.134-7.573-.646-9.562zm-2.236 2c.752.84.922 2.081.747 3.599-.217 1.885-.995 4.133-2.233 6.65-3.927 7.979-12.422 18.448-23.602 28.45-11.179 10.002-22.526 17.283-30.891 20.301-2.639.951-4.96 1.475-6.857 1.482-1.528.005-2.743-.302-3.494-1.142-.752-.84-.922-2.081-.747-3.598.217-1.886.995-4.134 2.233-6.651 3.927-7.979 12.422-18.448 23.602-28.45 11.179-10.002 22.526-17.283 30.891-20.3 2.639-.952 4.96-1.476 6.857-1.482 1.528-.006 2.743.301 3.494 1.141z" fill="#b0b9fb"/><path d="m12.599 17.338c-1.78 1.989-2.064 5.317-.646 9.562 2.846 8.519 12.48 21.305 25.969 33.373 13.49 12.068 27.265 20.225 36.047 22.108 4.376.938 7.652.287 9.432-1.702 1.78-1.99 2.064-5.318.646-9.563-2.846-8.519-12.48-21.305-25.969-33.373-13.49-12.068-27.265-20.224-36.047-22.108-4.376-.938-7.652-.287-9.432 1.703zm2.236 2c.752-.84 1.966-1.147 3.494-1.141 1.897.006 4.218.53 6.857 1.482 8.365 3.017 19.712 10.298 30.891 20.3 11.18 10.002 19.675 20.471 23.602 28.45 1.238 2.517 2.016 4.765 2.233 6.651.175 1.517.005 2.758-.747 3.598-.751.84-1.966 1.147-3.494 1.142-1.897-.007-4.218-.531-6.857-1.482-8.365-3.018-19.712-10.299-30.891-20.301-11.18-10.002-19.675-20.471-23.602-28.45-1.238-2.517-2.016-4.765-2.233-6.65-.175-1.518-.005-2.759.747-3.599z" fill="#d0d5fd"/><path d="m.5 44.742c0 .852.414 1.756 1.431 2.562.952.754 2.569 1.503 4.775 2.165 7.741 2.324 23.334 3.936 41.294 3.936s33.553-1.612 41.294-3.936c2.206-.662 3.823-1.411 4.775-2.165 1.017-.806 1.431-1.71 1.431-2.562 0-.853-.414-1.756-1.431-2.563-.952-.754-2.569-1.502-4.775-2.164-7.741-2.325-23.334-3.936-41.294-3.936s-33.553 1.611-41.294 3.936c-2.206.662-3.823 1.41-4.775 2.164-1.017.807-1.431 1.71-1.431 2.563zm91.91 0c-.127.123-.345.323-.548.452-.788.496-1.951.958-3.431 1.402-7.578 2.275-22.848 3.809-40.431 3.809s-32.853-1.534-40.431-3.809c-1.48-.444-2.643-.906-3.431-1.402-.203-.129-.421-.329-.548-.452.127-.124.345-.324.548-.452.788-.497 1.951-.958 3.431-1.402 7.578-2.275 22.848-3.809 40.431-3.809s32.853 1.534 40.431 3.809c1.48.444 2.643.905 3.431 1.402.203.128.421.328.548.452z" fill="#e6e9fe"/><path d="m29.743 26.194c-2.632-2.633-2.632-6.907 0-9.539 2.632-2.633 6.907-2.633 9.539 0 2.632 2.632 2.632 6.906 0 9.539-2.632 2.632-6.907 2.632-9.539 0z" fill="#c28b1d"/><path d="m43.231 69.843c-2.633-2.633-2.633-6.907 0-9.539 2.632-2.633 6.906-2.633 9.538 0 2.633 2.632 2.633 6.906 0 9.539-2.632 2.632-6.906 2.632-9.538 0z" fill="#f5f25e"/><path d="m13.889 66.263c-1.814-1.814-1.814-4.759 0-6.573s4.759-1.814 6.573 0 1.814 4.759 0 6.573-4.759 1.814-6.573 0z" fill="#ff6455"/><path d="m78.764 31.454c-1.814-1.813-1.814-4.759 0-6.573s4.759-1.814 6.573 0 1.814 4.76 0 6.573c-1.814 1.814-4.759 1.814-6.573 0z" fill="#5583fd"/><path d="m63.332 57.848c-3.28-3.28-3.28-8.606 0-11.886s8.606-3.28 11.886 0 3.28 8.606 0 11.886-8.606 3.28-11.886 0z" fill="#f3ae24"/></g><g><path d="m38.123 71.735c-6.929 4.366-13.151 7.173-17.74 7.904-2.518.401-4.47.245-5.548-.961-.781-.873-.936-2.175-.725-3.771.261-1.98 1.119-4.343 2.467-6.988.376-.737.082-1.641-.655-2.017-.738-.376-1.642-.083-2.018.655-1.857 3.643-2.837 6.844-2.874 9.349-.03 1.985.512 3.591 1.569 4.773 1.624 1.814 4.465 2.526 8.256 1.922 4.873-.776 11.51-3.691 18.867-8.328.701-.442.911-1.369.469-2.069-.441-.7-1.368-.911-2.068-.469zm22.071-17.517c-1.326 1.277-2.7 2.552-4.117 3.819-1.03.922-2.062 1.82-3.092 2.695-.632.535-.71 1.482-.174 2.114.535.631 1.483.709 2.114.174 1.051-.892 2.103-1.808 3.153-2.747 1.444-1.292 2.844-2.592 4.197-3.894.596-.574.614-1.524.04-2.121-.574-.596-1.524-.614-2.121-.04zm-38.707 5.813c4.53-6.291 10.867-13.281 18.436-20.052 11.179-10.002 22.526-17.283 30.891-20.3 2.639-.952 4.96-1.476 6.857-1.482 1.528-.006 2.743.301 3.494 1.141.842.941.963 2.371.671 4.135-.135.817.419 1.59 1.236 1.725.816.135 1.589-.419 1.724-1.236.471-2.85-.035-5.104-1.395-6.624-1.78-1.99-5.056-2.641-9.432-1.703-8.782 1.884-22.557 10.04-36.047 22.108-7.749 6.933-14.231 14.094-18.87 20.535-.483.672-.331 1.61.341 2.094s1.61.331 2.094-.341zm56.994-28.184c-1.859 3.288-4.39 6.916-7.478 10.707-.523.642-.427 1.588.215 2.111s1.587.426 2.11-.216c3.209-3.938 5.834-7.71 7.765-11.126.407-.72.153-1.636-.568-2.044-.72-.407-1.636-.153-2.044.568z"/><path d="m76.773 63.344c2.874 4.475 4.686 8.435 5.109 11.5.224 1.625.075 2.949-.717 3.834-.54.604-1.334.928-2.309 1.066-1.22.173-2.687.048-4.358-.318-5.487-1.204-12.953-4.985-21.061-10.641-.679-.474-1.615-.307-2.089.372-.473.679-.306 1.615.373 2.088 8.51 5.937 16.375 9.848 22.134 11.111 4.433.973 7.752.328 9.546-1.677 1.301-1.455 1.822-3.574 1.453-6.246-.467-3.378-2.388-7.777-5.557-12.71-.448-.697-1.376-.899-2.073-.451-.696.447-.899 1.376-.451 2.072zm-34.151-2.947c-.9-.769-1.8-1.556-2.699-2.36-11.18-10.002-19.675-20.471-23.602-28.45-1.238-2.517-2.016-4.765-2.233-6.65-.175-1.518-.005-2.759.747-3.599.608-.68 1.533-1.006 2.677-1.108 1.433-.128 3.168.109 5.145.644.799.217 1.623-.256 1.84-1.055.216-.799-.257-1.624-1.056-1.84-5.076-1.376-8.886-.828-10.842 1.359-1.78 1.989-2.064 5.317-.646 9.562 2.846 8.519 12.48 21.305 25.969 33.373.917.82 1.834 1.622 2.752 2.405.629.538 1.577.463 2.114-.167.538-.629.463-1.577-.166-2.114zm-3.126-33.235c5.307 3.458 10.966 7.794 16.581 12.817 2.295 2.052 4.476 4.125 6.527 6.192.584.588 1.534.592 2.122.008.587-.583.591-1.533.008-2.121-2.093-2.108-4.317-4.222-6.656-6.315-5.738-5.133-11.522-9.561-16.945-13.095-.693-.452-1.623-.256-2.075.438-.452.693-.256 1.624.438 2.076z"/><path d="m3.59 44.742c.127-.124.345-.324.548-.452.788-.497 1.951-.958 3.431-1.402 7.578-2.275 22.848-3.809 40.431-3.809s32.853 1.534 40.431 3.809c1.48.444 2.643.905 3.431 1.402.205.13.426.333.552.456-.084.089-.208.211-.322.293-.374.27-.87.528-1.471.784-2.629 1.117-7.053 2.082-12.722 2.847-.82.111-1.396.867-1.286 1.687.111.821.867 1.397 1.688 1.286 7.082-.955 12.332-2.277 14.853-3.726 1.667-.959 2.346-2.135 2.346-3.175 0-.853-.414-1.756-1.431-2.563-.952-.754-2.569-1.502-4.775-2.164-7.741-2.325-23.334-3.936-41.294-3.936s-33.553 1.611-41.294 3.936c-2.206.662-3.823 1.41-4.775 2.164-1.017.807-1.431 1.71-1.431 2.563 0 .852.414 1.756 1.431 2.562.952.754 2.569 1.503 4.775 2.165 7.741 2.324 23.334 3.936 41.294 3.936 4.303 0 8.47-.092 12.424-.263.827-.036 1.47-.737 1.434-1.564s-.737-1.47-1.564-1.434c-3.912.17-8.036.261-12.294.261-17.583 0-32.853-1.534-40.431-3.809-1.48-.444-2.643-.906-3.431-1.402-.203-.129-.421-.329-.548-.452z"/><path d="m28.682 27.254c3.218 3.218 8.443 3.218 11.661 0 3.217-3.217 3.217-8.442 0-11.66-3.218-3.218-8.443-3.218-11.661 0-3.217 3.218-3.217 8.443 0 11.66zm2.122-2.121c-2.047-2.047-2.047-5.371 0-7.418s5.37-2.047 7.417 0 2.047 5.371 0 7.418-5.37 2.047-7.417 0z"/><path d="m42.17 70.903c3.218 3.218 8.442 3.218 11.66 0 3.218-3.217 3.218-8.442 0-11.66s-8.442-3.218-11.66 0-3.218 8.443 0 11.66zm2.121-2.121c-2.047-2.047-2.047-5.371 0-7.418s5.371-2.047 7.418 0 2.047 5.371 0 7.418-5.371 2.047-7.418 0z"/><path d="m12.828 67.324c2.4 2.399 6.296 2.399 8.695 0 2.399-2.4 2.399-6.296 0-8.695s-6.295-2.399-8.695 0c-2.399 2.399-2.399 6.295 0 8.695zm2.122-2.122c-1.229-1.228-1.229-3.223 0-4.452 1.228-1.228 3.223-1.228 4.452 0 1.228 1.229 1.228 3.224 0 4.452-1.229 1.229-3.224 1.229-4.452 0z"/><path d="m77.703 32.515c2.4 2.399 6.296 2.399 8.695 0s2.399-6.295 0-8.694c-2.399-2.4-6.295-2.4-8.695 0-2.399 2.399-2.399 6.295 0 8.694zm2.122-2.121c-1.229-1.229-1.229-3.224 0-4.452 1.228-1.229 3.223-1.229 4.451 0 1.229 1.228 1.229 3.223 0 4.452-1.228 1.228-3.223 1.228-4.451 0z"/><path d="m62.271 58.909c3.866 3.865 10.142 3.865 14.008 0 3.865-3.866 3.865-10.142 0-14.008-3.866-3.865-10.142-3.865-14.008 0-3.865 3.866-3.865 10.142 0 14.008zm2.121-2.122c-2.694-2.694-2.694-7.07 0-9.765 2.695-2.694 7.071-2.694 9.765 0 2.695 2.695 2.695 7.071 0 9.765-2.694 2.695-7.07 2.695-9.765 0z"/></g></g></svg>