<svg id="Layer_1" viewBox="0 0 1000 1000" xmlns="http://www.w3.org/2000/svg" data-name="Layer 1"><path d="m403.32 664.06a12.12 12.12 0 0 1 .36-1.47 16 16 0 0 1 3.46-6.19 8 8 0 0 1 .57-.6l.24-.24.21-.2 69-69.05.16-.17-63.5-63.51-6.05 6-.33.32-63.24 63.34-.48.46-.49.43a14.06 14.06 0 0 1 -1.68 1.25 4.94 4.94 0 0 1 -.49.3 3.53 3.53 0 0 1 -.5.28c-.17.1-.33.19-.5.27a4.9 4.9 0 0 1 -.52.24 3.43 3.43 0 0 1 -.52.23 4.87 4.87 0 0 1 -.53.21l-.54.19a7.61 7.61 0 0 1 -1 .31 4.34 4.34 0 0 1 -.6.14l-.63.12a2.13 2.13 0 0 1 -.44.07 5.58 5.58 0 0 1 -.57.08l-.62.06h-.47c-.22 0-.44 0-.66 0-.42 0-.84 0-1.26-.05a5.7 5.7 0 0 1 -.58-.06l-.61-.08h-.13c-.22 0-.43-.07-.64-.12l-.77-.17c-.45-.12-.89-.25-1.32-.41l-.51-.18c-.2-.08-.39-.15-.57-.24l-.35-.15a150.41 150.41 0 1 0 78.2 78c-.05-.12-.11-.25-.15-.37s-.19-.48-.27-.72-.17-.49-.24-.74a13.67 13.67 0 0 1 -.37-1.5c-.05-.25-.1-.51-.13-.76a15.71 15.71 0 0 1 0-4.49c-.04-.25.01-.54.06-.83zm-49.16 157.26a124.09 124.09 0 1 1 36.34-87.74 123.27 123.27 0 0 1 -36.34 87.74z" fill="#e53935"/><path d="m839.94 627.22a149.59 149.59 0 0 0 -166.09-31.72 3.68 3.68 0 0 1 -.35.15l-.66.27a15 15 0 0 1 -2.51.73c-.25.06-.51.1-.77.14a15.82 15.82 0 0 1 -4.22.09 14.62 14.62 0 0 1 -1.59-.26c-.24 0-.48-.1-.71-.17a8.67 8.67 0 0 1 -1-.3 3.86 3.86 0 0 1 -.54-.19 12.83 12.83 0 0 1 -1.57-.68 13 13 0 0 1 -1.49-.85 14.06 14.06 0 0 1 -1.68-1.25c-.33-.28-.66-.58-1-.89l-69.66-69.66-63.51 63.51 69.21 69.22.21.2.24.24a8 8 0 0 1 .57.6c.32.36.63.73.92 1.11.1.14.2.27.29.41a14 14 0 0 1 .94 1.51q.15.26.27.51c.09.17.18.34.25.51a10.69 10.69 0 0 1 .43 1.06 3.86 3.86 0 0 1 .19.54 8.22 8.22 0 0 1 .28.93c.07.25.13.49.18.74a5.17 5.17 0 0 1 .11.54c.07.35.12.7.16 1a15.93 15.93 0 0 1 -.09 4.25c0 .26-.08.51-.14.77a16.76 16.76 0 0 1 -.75 2.57c-.08.2-.16.4-.25.6l-.15.35a150.44 150.44 0 1 0 244.44-46.63zm-18.61 194.1a124.09 124.09 0 1 1 36.34-87.74 123.28 123.28 0 0 1 -36.34 87.74z" fill="#e53935"/><path d="m500 436.49-63.51 63.51 63.51 63.51 63.51-63.51zm4.88 84.39a15.92 15.92 0 0 1 -11.31-4.69l-9.77-9.76a16 16 0 0 1 22.63-22.63l9.76 9.77a16 16 0 0 1 -11.31 27.31z" fill="#616161"/><path d="m833.54 186.14a105.15 105.15 0 0 1 -31 74.82l-216.4 216.41-63.5-63.52 290.36-290.38a105.07 105.07 0 0 1 20.54 62.67z" fill="#bdbdbd"/><path d="m477.37 413.86-63.5 63.51-216.42-216.37a105.87 105.87 0 0 1 -10.45-137.53z" fill="#bdbdbd"/><g fill="#fff" opacity=".5"><path d="m393.32 674.06a12.12 12.12 0 0 1 .36-1.47 16 16 0 0 1 3.46-6.19 8 8 0 0 1 .57-.6l.24-.24.21-.2 69-69.05.16-.17-63.5-63.51-6.05 6-.33.32-63.24 63.34-.48.46-.49.43a14.06 14.06 0 0 1 -1.68 1.25 4.94 4.94 0 0 1 -.49.3 3.53 3.53 0 0 1 -.5.28c-.17.1-.33.19-.5.27a4.9 4.9 0 0 1 -.52.24 3.43 3.43 0 0 1 -.52.23 4.87 4.87 0 0 1 -.53.21l-.54.19a7.61 7.61 0 0 1 -1 .31 4.34 4.34 0 0 1 -.6.14l-.63.12a2.13 2.13 0 0 1 -.44.07 5.58 5.58 0 0 1 -.57.08l-.62.06h-.47c-.22 0-.44 0-.66 0-.42 0-.84 0-1.26-.05a5.7 5.7 0 0 1 -.58-.06l-.61-.08h-.13c-.22 0-.43-.07-.64-.12l-.77-.17c-.45-.12-.89-.25-1.32-.41l-.51-.18c-.2-.08-.39-.15-.57-.24l-.35-.15a150.41 150.41 0 1 0 78.2 78c-.05-.12-.11-.25-.15-.37s-.19-.48-.27-.72-.17-.49-.24-.74a13.67 13.67 0 0 1 -.37-1.5c-.05-.25-.1-.51-.13-.76a15.71 15.71 0 0 1 0-4.49c-.04-.25.01-.54.06-.83zm-49.16 157.26a124.09 124.09 0 1 1 36.34-87.74 123.27 123.27 0 0 1 -36.34 87.74z"/><path d="m829.94 637.22a149.59 149.59 0 0 0 -166.09-31.72 3.68 3.68 0 0 1 -.35.15l-.66.27a15 15 0 0 1 -2.51.73c-.25.06-.51.1-.77.14a15.82 15.82 0 0 1 -4.22.09 14.62 14.62 0 0 1 -1.59-.26c-.24 0-.48-.1-.71-.17a8.67 8.67 0 0 1 -1-.3 3.86 3.86 0 0 1 -.54-.19 12.83 12.83 0 0 1 -1.57-.68 13 13 0 0 1 -1.49-.85 14.06 14.06 0 0 1 -1.68-1.25c-.33-.28-.66-.58-1-.89l-69.66-69.66-63.51 63.51 69.21 69.22.21.2.24.24a8 8 0 0 1 .57.6c.32.36.63.73.92 1.11.1.14.2.27.29.41a14 14 0 0 1 .94 1.51q.15.26.27.51c.09.17.18.34.25.51a10.69 10.69 0 0 1 .43 1.06 3.86 3.86 0 0 1 .19.54 8.22 8.22 0 0 1 .28.93c.07.25.13.49.18.74a5.17 5.17 0 0 1 .11.54c.07.35.12.7.16 1a15.93 15.93 0 0 1 -.09 4.25c0 .26-.08.51-.14.77a16.76 16.76 0 0 1 -.75 2.57c-.08.2-.16.4-.25.6l-.15.35a150.44 150.44 0 1 0 244.44-46.63zm-18.61 194.1a124.09 124.09 0 1 1 36.34-87.74 123.28 123.28 0 0 1 -36.34 87.74z"/><path d="m490 446.49-63.51 63.51 63.51 63.51 63.51-63.51zm4.88 84.39a15.92 15.92 0 0 1 -11.31-4.69l-9.77-9.76a16 16 0 0 1 22.63-22.63l9.76 9.77a16 16 0 0 1 -11.31 27.31z"/><path d="m823.54 196.14a105.15 105.15 0 0 1 -31 74.82l-216.4 216.41-63.5-63.52 290.36-290.38a105.07 105.07 0 0 1 20.54 62.67z"/><path d="m467.37 423.86-63.5 63.51-216.42-216.37a105.87 105.87 0 0 1 -10.45-137.53z"/></g><g fill="#413b32"><path d="m865.54 186.14a136.93 136.93 0 0 1 -40.36 97.44l-216.18 216.22a1.8 1.8 0 0 1 -.19.2l-11.32 11.32-.6.57c-.4.36-.82.7-1.25 1a16.05 16.05 0 0 1 -16.9 1.26 15.55 15.55 0 0 1 -3.74-2.65c-.05-.05-.11-.1-.16-.16v-.06c-.17-.16-.33-.33-.48-.5l-.1-.11c-.13-.14-.25-.29-.37-.43a15.57 15.57 0 0 1 -1.51-2.17l-.29-.51v-.09c-.11-.22-.23-.44-.33-.67s-.19-.42-.28-.63c-.18-.43-.34-.88-.48-1.33 0-.11-.07-.22-.1-.33a14.51 14.51 0 0 1 -.4-1.76c0-.13 0-.26-.06-.39a.17.17 0 0 1 0-.07c0-.19 0-.38-.07-.56s0-.4-.05-.6v-.44c0-.21 0-.42 0-.63a16 16 0 0 1 .46-3.81q.07-.33.18-.66c.05-.19.11-.39.18-.58.13-.4.27-.79.44-1.18.1-.24.21-.48.32-.71s.13-.26.2-.39a4.92 4.92 0 0 1 .24-.45c.19-.35.4-.69.62-1l.46-.66.18-.24a12.73 12.73 0 0 1 1.23-1.43l.18-.18.28-.27.27-.27 10.76-10.77 216.23-216.46a105.88 105.88 0 0 0 10.45-137.53l-301.69 301.71a16 16 0 0 1 -22.62-22.63l313.86-313.86a16 16 0 0 1 22.63 0 136.93 136.93 0 0 1 40.36 97.45z"/><path d="m445.91 766.19a182.4 182.4 0 1 1 -116.91-203.98q5.18 1.89 10.25 4.1a16 16 0 0 1 5 26l-.48.46-.49.43a14.06 14.06 0 0 1 -1.68 1.25 4.94 4.94 0 0 1 -.49.3l-.5.28c-.17.1-.33.19-.5.27a4.9 4.9 0 0 1 -.52.24l-.52.23a4.87 4.87 0 0 1 -.53.21l-.54.19c-.34.12-.68.22-1 .31a4.34 4.34 0 0 1 -.6.14l-.63.12a3.11 3.11 0 0 1 -.44.07 5.58 5.58 0 0 1 -.57.08l-.62.06h-.47c-.22 0-.44 0-.66 0-.42 0-.84 0-1.26-.05a5.7 5.7 0 0 1 -.58-.06l-.61-.08h-.13c-.22 0-.43-.07-.64-.12l-.77-.17c-.45-.12-.89-.25-1.32-.41l-.51-.18c-.2-.08-.39-.15-.57-.24l-.35-.15a150.41 150.41 0 1 0 78.2 78c-.05-.12-.11-.25-.15-.37s-.19-.48-.27-.72-.17-.49-.24-.74a13.67 13.67 0 0 1 -.37-1.5c-.05-.25-.09-.51-.13-.76a15.71 15.71 0 0 1 0-4.49c0-.28.09-.57.14-.86q.15-.75.36-1.47a16 16 0 0 1 3.46-6.19l.57-.6.24-.24.21-.2a15.83 15.83 0 0 1 4.48-2.92 16 16 0 0 1 21.05 8.28q2.21 5.07 4.1 10.25a182.19 182.19 0 0 1 7.99 95.23z"/><path d="m354.16 645.84a124.09 124.09 0 1 0 36.34 87.74 123.31 123.31 0 0 0 -36.34-87.74zm-22.63 152.86a92.09 92.09 0 1 1 27-65.12 91.49 91.49 0 0 1 -27 65.12z"/><path d="m425.18 511.31-7.63 7.63-3.68 3.69-6.05 6-.33.32-63.29 63.34-.48.46-.49.43a14.06 14.06 0 0 1 -1.68 1.25 4.94 4.94 0 0 1 -.49.3l-.5.28c-.17.1-.33.19-.5.27a4.9 4.9 0 0 1 -.52.24l-.52.23a4.87 4.87 0 0 1 -.53.21l-.54.19a7.61 7.61 0 0 1 -1 .31 4.34 4.34 0 0 1 -.6.14l-.63.12a3.11 3.11 0 0 1 -.44.07 5.58 5.58 0 0 1 -.57.08l-.62.06h-.47c-.22 0-.44 0-.66 0-.42 0-.84 0-1.26-.05a5.7 5.7 0 0 1 -.58-.06l-.61-.08h-.13c-.22 0-.43-.07-.64-.12l-.77-.17c-.45-.12-.89-.25-1.32-.41l-.51-.18c-.2-.08-.39-.15-.57-.24l-.35-.15a16 16 0 0 1 -4.58-25.83l7.45-7.46 56.16-56.16.33-.32 17-17a16 16 0 0 1 22.63 22.62z"/><path d="m516 586.13a13.13 13.13 0 0 1 -.08 1.54c0 .22 0 .44-.08.66s-.09.58-.14.86l-.12.57c-.05.19-.09.37-.14.56a10.23 10.23 0 0 1 -.35 1.11c-.07.2-.14.4-.23.61a5.75 5.75 0 0 1 -.33.77c-.12.26-.24.51-.37.76l-.28.52c-.1.17-.2.34-.31.51a13.6 13.6 0 0 1 -1 1.48l-.39.47c-.08.11-.18.22-.28.34l-.52.54-11.38 11.34-62.21 62.23-7.45 7.45a16 16 0 0 1 -26.14-5.29q-.15-.36-.27-.72c-.09-.25-.17-.49-.24-.74-.15-.5-.27-1-.37-1.5-.05-.25-.09-.51-.13-.76a16.47 16.47 0 0 1 0-4.49c0-.28.09-.57.14-.86q.15-.75.36-1.47a16 16 0 0 1 3.46-6.19l.57-.6.24-.24.21-.2 69-69.05.16-.17 11.19-11.17c.18-.19.37-.37.56-.55s.39-.35.59-.52l.61-.49c.2-.16.42-.31.63-.46s.43-.29.66-.43c.44-.27.9-.53 1.37-.76a15.42 15.42 0 0 1 3.77-1.29 3.54 3.54 0 0 1 .45-.08 15 15 0 0 1 3.54-.24h.44a14.18 14.18 0 0 1 1.82.24c.19 0 .39.07.58.12l.59.14a16.73 16.73 0 0 1 2.16.75c.45.19.89.41 1.32.64l.64.37c.22.13.43.26.63.4a15 15 0 0 1 1.8 1.4l.43.4.18.18.18.18c.23.24.46.49.68.75l.17.2c.19.23.38.47.56.71l.07.11c.13.17.25.35.37.53s.27.43.4.65.27.46.39.69.24.47.35.71.21.46.3.7v.1c.08.21.16.42.23.63a14 14 0 0 1 .6 2.22q.12.61.18 1.23c0 .27.05.54.07.81s0 .32 0 .48.16.48.16.61z"/><path d="m488.69 402.55a16 16 0 0 0 0 22.63l-301.69-301.71a105.87 105.87 0 0 0 10.45 137.53l227.73 227.68a16 16 0 0 0 -22.63 0l-11.31 11.32-216.42-216.42a137.82 137.82 0 0 1 0-194.89 16 16 0 0 1 22.63 0l302.55 302.55z"/><path d="m516 585.71a16 16 0 0 1 -.06 2c0 .22 0 .44-.08.66s-.09.58-.14.86l-.12.57c-.05.19-.09.37-.14.56-.11.38-.22.74-.35 1.11-.07.2-.14.4-.23.61s-.21.52-.33.77-.24.51-.37.76l-.28.52c-.1.17-.2.34-.31.51a16.45 16.45 0 0 1 -1 1.48l-.39.47q-.4.47-.84.9a16 16 0 0 1 -22.43.19l-.12-.12-.08-.07-11.31-11.31-63.5-63.51-22.68-22.67 11.31-11.31a16 16 0 0 1 22.63 0l85.95 85.95.19.19.18.18c.23.24.46.49.68.75l.17.2c.19.23.38.47.56.71l.07.11c.13.17.25.35.37.53s.27.43.4.65.27.46.39.69.24.47.35.71.21.46.3.7v.1c.08.21.16.42.23.63a17.34 17.34 0 0 1 .6 2.22q.12.61.18 1.23a7.38 7.38 0 0 1 .07.81 5.68 5.68 0 0 1 .13.66z"/><path d="m597.45 511.31-.6.57c-.4.36-.82.7-1.25 1a16.05 16.05 0 0 1 -16.9 1.26 15.55 15.55 0 0 1 -3.7-2.64c-.05-.05-.11-.1-.16-.16l-86.1-86.1a16 16 0 0 1 0-22.63l11.26-11.37 11.32 11.31 11.31 11.31 63.5 63.52 10.75 10.76c.19.18.38.36.56.55a16 16 0 0 1 .01 22.62z"/><path d="m916 733.58a182.43 182.43 0 1 1 -353.79-62.58q1.89-5.18 4.1-10.25a16 16 0 0 1 25.53-5.36l.21.2.24.24c.2.2.39.39.57.6.32.36.63.73.92 1.11.1.13.2.27.29.41a14 14 0 0 1 .94 1.51c.1.17.18.34.27.51l.25.51c.15.35.3.7.43 1.06.07.18.13.36.19.54s.2.62.28.93.13.49.18.74.08.36.11.54c.06.35.12.7.16 1a15.93 15.93 0 0 1 -.09 4.25c0 .26-.08.52-.14.77a16.76 16.76 0 0 1 -.75 2.57c-.08.2-.16.4-.25.6l-.15.35a150.42 150.42 0 1 0 78.35-78.35 3.68 3.68 0 0 1 -.35.15l-.66.27a15 15 0 0 1 -2.51.73c-.25.06-.51.1-.77.14a15.82 15.82 0 0 1 -4.22.09c-.53-.06-1.06-.15-1.59-.26-.24 0-.48-.1-.71-.17l-1-.3-.54-.19c-.53-.2-1-.43-1.57-.68s-1-.54-1.49-.85a16.61 16.61 0 0 1 -1.68-1.25c-.33-.28-.66-.58-1-.89a16 16 0 0 1 5-26q5.07-2.2 10.24-4.1a182.45 182.45 0 0 1 245 171.41z"/><path d="m821.33 645.84a124.09 124.09 0 1 0 36.34 87.74 123.31 123.31 0 0 0 -36.34-87.74zm-22.63 152.86a92.09 92.09 0 1 1 27-65.12 91.5 91.5 0 0 1 -27 65.12z"/><path d="m678.43 592.29a16 16 0 0 1 -4.58 3.21 3.68 3.68 0 0 1 -.35.15l-.66.27a15 15 0 0 1 -2.51.73c-.25.06-.51.1-.77.14a15.82 15.82 0 0 1 -4.22.09 14.62 14.62 0 0 1 -1.59-.26c-.24 0-.48-.1-.71-.17l-1-.3-.54-.19a12.83 12.83 0 0 1 -1.57-.68 13 13 0 0 1 -1.49-.85 14.06 14.06 0 0 1 -1.68-1.25c-.33-.28-.66-.58-1-.89l-80.76-80.82c-.05-.05-.11-.1-.16-.16s0 0 0 0c-.17-.16-.33-.33-.48-.5a16 16 0 0 1 -2-2.71l-.26-.46-.07-.14c-.11-.22-.23-.44-.33-.67s-.19-.42-.28-.63-.14-.34-.2-.51-.18-.5-.26-.76-.1-.32-.15-.49-.1-.36-.14-.54-.07-.3-.1-.46-.1-.44-.13-.66 0-.26-.06-.39a15.86 15.86 0 0 1 -.17-2.3c0-.36 0-.71 0-1.06a8.72 8.72 0 0 1 .08-.88c0-.29.08-.57.13-.85a9.23 9.23 0 0 1 .21-1q.07-.33.18-.66c.05-.19.11-.39.18-.58s.13-.4.21-.59a12.77 12.77 0 0 1 .75-1.69 4.92 4.92 0 0 1 .24-.45c.19-.35.4-.69.62-1l.46-.66.18-.24q.32-.42.69-.84a7.13 7.13 0 0 1 .53-.58l.19-.19.28-.27.27-.27a16 16 0 0 1 10.72-4.28 16 16 0 0 1 10.74 4.14c.19.18.38.36.56.55l17.3 17.3.07.07 63.61 63.61a16 16 0 0 1 .02 22.62z"/><path d="m596.79 669.56c0 .26-.08.52-.14.77a16.76 16.76 0 0 1 -.75 2.57c-.08.2-.16.4-.25.6l-.15.35a16 16 0 0 1 -25.84 4.57l-7.45-7.42-62.21-62.23-11.12-11.12-.12-.12a16 16 0 0 1 -.65-22.09c.13-.15.27-.29.41-.43l.18-.19c.12-.12.25-.25.38-.36s.39-.35.59-.52l.61-.49a2.26 2.26 0 0 1 .31-.23l.32-.23c.21-.15.43-.29.66-.43a12.22 12.22 0 0 1 1.37-.76c.29-.14.58-.28.88-.4h.1c.22-.09.44-.18.66-.25l.4-.14a13.62 13.62 0 0 1 2.18-.54l.69-.11.7-.08a15.1 15.1 0 0 1 2.69 0l.74.07h.15l.83.14a11.27 11.27 0 0 1 1.28.29q.48.13 1 .3c.36.12.71.25 1.05.4s.89.41 1.32.64a16.17 16.17 0 0 1 2.49 1.67l.58.5.43.4.19.19.18.18 11.13 11.13 69.21 69.22.21.2.24.24c.2.2.39.39.57.6.32.36.63.73.92 1.11.1.13.2.27.29.41a14 14 0 0 1 .94 1.51c.1.17.18.34.27.51l.25.51a10.69 10.69 0 0 1 .43 1.06c.07.18.13.36.19.54a8.22 8.22 0 0 1 .28.93c.07.25.13.49.18.74s.08.36.11.54c.07.35.12.7.16 1a15.93 15.93 0 0 1 -.07 4.25z"/><path d="m516.2 516.19a16 16 0 0 1 -22.63 0l-9.77-9.76a16 16 0 0 1 22.63-22.63l9.76 9.77a16 16 0 0 1 .01 22.62z"/><path d="m609 499.8a1.8 1.8 0 0 1 -.19.2l-11.32 11.32-11.3 11.31-63.51 63.51-10.76 10.75-11.92 11.87-22.79-22.45.16-.17 11.15-11.14.18-.19 11.3-11.3 74.82-74.82.28-.27.27-.27 10.76-10.77z"/><path d="m526.32 410.17-108.77 108.77a16.08 16.08 0 0 1 -4.3 3.07l-21.39-21.39a15.63 15.63 0 0 1 2.87-4.11l.19-.2 7.63-7.62 11.32-11.32 63.5-63.51 11.32-11.31 15-15z"/></g></svg>