<svg id="color_Line_copy" height="512" viewBox="0 0 256 256" width="512" xmlns="http://www.w3.org/2000/svg" data-name="color Line copy"><circle cx="206.886" cy="197.076" fill="#0e5f87" r="28.497"/><circle cx="206.886" cy="197.076" fill="#ffc139" r="15.674"/><circle cx="59.417" cy="196.123" fill="#0e5f87" r="28.497"/><circle cx="59.417" cy="196.123" fill="#ffc139" r="15.674"/><g fill="#1da441"><path d="m103.41 206.8713a5.5283 5.5283 0 0 1 -5.4913-6.1763 38.7774 38.7774 0 0 0 -67.6694-30.117 5.5233 5.5233 0 0 1 -8.3138-7.2739 49.8234 49.8234 0 0 1 86.9518 38.6959 5.5235 5.5235 0 0 1 -5.4773 4.8713z"/><path d="m150.017 210.6814h-72.997a6.9046 6.9046 0 0 1 -2.7394-.5669l-17.6539-7.632a6.9038 6.9038 0 1 1 5.4789-12.674l16.3427 7.0651h67.5154l42.2537-60.885a6.9038 6.9038 0 0 1 12.058 6.7269l-44.2294 64.4255a6.9035 6.9035 0 0 1 -6.029 3.5404z"/><path d="m206.764 204.1319a6.907 6.907 0 0 1 -6.7442-5.4605l-31.8198-148.6756h-22.8842a5.4156 5.4156 0 0 1 -4.4909-2.3063c-3.7923-5.5662.1053-11.5015 5.3885-11.5015h27.5685a6.9044 6.9044 0 0 1 6.7512 5.4589l32.9891 154.1345a6.91 6.91 0 0 1 -6.7582 8.35z"/></g><path d="m131.75 40.0966a5.5231 5.5231 0 0 1 5.5463-5.4453l36.2514.156a8.4386 8.4386 0 0 1 8.5092 7.884 8.285 8.285 0 0 1 -8.2752 8.6852h-36.5889a5.5231 5.5231 0 0 1 -5.5225-5.6008z" fill="#0e5f87"/><path d="m209.7516 166.2166-25.6716-119.9431a10.77 10.77 0 0 0 -10.5215-13.9658l-36.252-.1562h-.0337a8.0488 8.0488 0 0 0 -8.022 7.91l-.08 5.6787a8.0222 8.0222 0 0 0 8.022 8.1367h29.2809l17.8392 83.3513-39.6577 57.1458h-32.9491a52.3252 52.3252 0 0 0 -91.6523-32.7148 8.0232 8.0232 0 0 0 12.0771 10.5654 36.2811 36.2811 0 0 1 63.5182 22.1494h-5.2873a31.0262 31.0262 0 1 0 -5.0818 18.8077h64.7372a9.4081 9.4081 0 0 0 8.15-4.7148l31.555-45.9631 1.6586 7.7493a30.9815 30.9815 0 1 0 18.3705-4.0364zm-72.5587-117.3396a3.0236 3.0236 0 0 1 -3.0229-3.0664l.08-5.6787a3.0327 3.0327 0 0 1 3.0229-2.98h.0127l36.2622.1563a5.97 5.97 0 0 1 6.0122 5.501 5.7845 5.7845 0 0 1 -5.7778 6.0684zm-60.3389 109.8516a41.4263 41.4263 0 0 0 -48.4858 10.2031 3.0232 3.0232 0 0 1 -4.5513-3.98 47.3272 47.3272 0 0 1 82.8886 29.4229h-6.0475a41.1785 41.1785 0 0 0 -23.804-35.646zm-17.4375 63.3914a25.9971 25.9971 0 1 1 25.9322-27.7461h-6.3839l-1.5551-.6724a18.1958 18.1958 0 1 0 -7.5111 17.2418l3.3885 1.4647a9.334 9.334 0 0 0 3.7324.7734h1.99a25.9386 25.9386 0 0 1 -19.593 8.9386zm-8.793-22.51a9.3442 9.3442 0 0 0 5.01 5.167l8.4463 3.651a13.1672 13.1672 0 1 1 7.5472-17.2268l-8.53-3.6879a9.4039 9.4039 0 0 0 -12.4735 12.0967zm103.3613 6.1152c-.0439.0635-.085.13-.1226.1973a4.4051 4.4051 0 0 1 -3.8452 2.2588h-72.997a4.3747 4.3747 0 0 1 -1.7471-.3623l-17.6548-7.6318a4.4036 4.4036 0 1 1 3.4951-8.084l16.3428 7.0654a2.5123 2.5123 0 0 0 .9922.2051h67.5156a2.5 2.5 0 0 0 2.0537-1.0742l37.7305-54.3684 2.5336 11.8379zm17.6024-151.8482h2.1951a10.67 10.67 0 0 0 6.3649-2.0872l30.9305 144.514a4.404 4.404 0 1 1 -8.6128 1.8438zm44.38 141.3809-1.9821-9.261a13.185 13.185 0 1 1 -18.33 4.2283l1.92 8.9692a9.4043 9.4043 0 0 0 18.3921-3.9365zm-9.0815 27.8154a25.9885 25.9885 0 0 1 -14.3943-47.6322l1.8273 8.538a18.1633 18.1633 0 1 0 18.3536-4.1158l-1.8151-8.4808a25.9981 25.9981 0 0 1 -3.9715 51.6909z"/></svg>