<svg id="Layer_1-2" viewBox="0 0 64 64" xmlns="http://www.w3.org/2000/svg"><g id="Scooter"><circle cx="51" cy="53" fill="#657482" r="10"/><circle cx="51" cy="53" fill="#536170" r="5"/><path d="m63 53h-62v-6.45001221c0-2.34202205.51326416-4.65558925 1.50367265-6.77788948l4.68482445-10.03889212c.4934354-1.05735973 1.55464783-1.73320619 2.72147604-1.73320619h.09002686v-1c0-2.76142375 2.23857625-5 5-5h17v6h-1v15c0 1.65685425 1.34314575 3 3 3h4.76000977c1.75 0 3.13000488-1.48999023 2.98999023-3.2300415l-1.75-22.7699585h1c-2.76000977 0-5-2.23999023-5-5 0-1.38000488.55999756-2.63000488 1.46002197-3.54003906.90997314-.89996338 2.15997314-1.45996094 3.53997803-1.45996094h9v10h-3l4 23h2c5.52001953 0 10 4.47998047 10 10z" fill="#ffab6c"/><circle cx="50" cy="15" fill="#ffd278" r="5"/><circle cx="15" cy="53" fill="#657482" r="10"/><circle cx="15" cy="53" fill="#536170" r="5"/><path d="m63 53h-17l5-10h2c5.52001953 0 10 4.47998047 10 10z" fill="#f48851"/><path d="m41 10c-2.76141357 0-5 2.23858643-5 5s2.23858643 5 5 5h9v-10z" fill="#f48851"/><path d="m32 22h-17c-2.76142375 0-5 2.23857625-5 5v1h22z" fill="#657482"/><path d="m21 37h-4c-8.83654785 0-16 7.16345215-16 15.99993896v.00006104h26v-10c0-3.3137207-2.6862793-6-6-6z" fill="#f48851"/><circle cx="40" cy="4" fill="#f48851" r="3"/><g fill="#292930"><path d="m53 42h-1.15881348l-3.65222168-21h1.81103516c3.30859375 0 6-2.69140625 6-6s-2.69140625-6-6-6h-4.5859375l-2.3996582-2.3996582c.60571289-.70123291.9855957-1.60296631.9855957-2.6003418 0-2.20605469-1.79443359-4-4-4s-4 1.79394531-4 4 1.79443359 4 4 4c.47174072 0 .91802979-.09674072 1.33862305-.24731445l1.24731445 1.24731445h-1.5859375c-2.96722412 0-5.43133545 2.16687012-5.90966797 5h-3.09033203c-.55224609 0-1 .44726562-1 1s.44775391 1 1 1h3.09033203c.36810303 2.18011475 1.91192627 3.96099854 3.95800781 4.66772461l1.70605469 22.17895508c.04345703.56152344-.14355469 1.09863281-.52636719 1.51171875-.3828125.4140625-.90429688.64160156-1.46777344.64160156h-4.76025391c-1.10302734 0-2-.89746094-2-2v-14c.55224609 0 1-.44726562 1-1v-6c0-.55273438-.44775391-1-1-1h-16.99999999c-3.30859375 0-6 2.69140625-6 6v.11590576c-1.17529297.27801514-2.19128418 1.07244873-2.71435547 2.19268799l-4.69091797 10.05175781c-1.04345703 2.23632812-1.59472656 4.72167969-1.59472656 7.18945312v6.45019531c0 .55273438.44775391 1 1 1h3.05065918c.50750732 5.59790039 5.22143555 10 10.94934082 10s10.4418335-4.40209961 10.94934082-10h14.10131836c.50750732 5.59790039 5.22143555 10 10.94934082 10s10.4418335-4.40209961 10.94934082-10h1.05065918c.55224609 0 1-.44726562 1-1 0-6.06542969-4.93457031-11-11-11zm-15-38c0-1.10253906.89697266-2 2-2s2 .89746094 2 2-.89697266 2-2 2-2-.89746094-2-2zm23.94482422 48h-14.32666016l4-8h1.38183594c4.62451172 0 8.44580078 3.50585938 8.94482422 8zm-7.08679199 2c-.44720459 1.72052002-1.99969482 3-3.85803223 3s-3.41082764-1.27947998-3.85803223-3h7.71606445zm-.85803223-39c0 1.85870361-1.27972412 3.41082764-3 3.85797119v-7.71594238c1.72027588.44714355 3 1.99926758 3 3.85797119zm-16.85803223 1h2.85803223c.55224609 0 1-.44726562 1-1s-.44775391-1-1-1h-2.85803223c.44720459-1.72052002 1.99969482-3 3.85803223-3h8v8h-8c-1.8583374 0-3.41082764-1.27947998-3.85803223-3zm-22.14196777 7h16v4h-20c0-2.20605469 1.79443359-4 4-4zm-11.59277344 17.20605469 4.69091797-10.05175781c.32714844-.70117188 1.03857422-1.15429688 1.8125-1.15429688h20.08935547v14c0 2.20605469 1.79443359 4 4 4h4.76025391c1.11083984 0 2.18066406-.46777344 2.93505859-1.28222656.75488281-.81542969 1.13867188-1.91796875 1.05322266-3.02539062l-1.66845703-21.69238281h5.07861328l3.79980469 21.84667969-4.57666016 9.15332031h-17.38183594v-9c0-3.859375-3.14013672-7-7-7h-4c-6.40869141 0-11.99658203 3.56695557-14.89294434 8.81744385.18713379-1.59326172.62414551-3.16247559 1.3001709-4.61138916zm11.59277344 21.79394531c-4.62408447 0-8.44152832-3.50653076-8.94104004-8h3.03137207c.47833252 2.83312988 2.94244385 5 5.90966797 5s5.43133545-2.16687012 5.90966797-5h3.03137207c-.49951172 4.49346924-4.31695557 8-8.94104004 8zm-3.85803223-8h7.71606445c-.44720459 1.72052002-1.99969482 3-3.85803223 3s-3.41082764-1.27947998-3.85803223-3zm-9.10876465-2c.51660156-7.80664062 7.03173828-14 14.96679688-14h4c2.75683594 0 5 2.24316406 5 5v9zm48.96679688 10c-4.62408447 0-8.44152832-3.50653076-8.94104004-8h3.03137207c.47833252 2.83312988 2.94244385 5 5.90966797 5s5.43133545-2.16687012 5.90966797-5h3.03137207c-.49951172 4.49346924-4.31695557 8-8.94104004 8z"/><path d="m20 42h-10c-.55224609 0-1 .44726562-1 1s.44775391 1 1 1h10c.55224609 0 1-.44726562 1-1s-.44775391-1-1-1z"/><path d="m20 47h-10c-.55224609 0-1 .44726562-1 1s.44775391 1 1 1h10c.55224609 0 1-.44726562 1-1s-.44775391-1-1-1z"/></g></g></svg>