<svg id="Layer_1" viewBox="0 0 512 512" xmlns="http://www.w3.org/2000/svg" data-name="Layer 1"><g><path d="m362.85 8.81h49.61v242.77h-49.61z" fill="#b8afb8" transform="matrix(.707 -.707 .707 .707 21.48 312.25)"/><path d="m359.75 10.09h49.61v234h-49.61z" fill="#ccc4cc" transform="matrix(.707 -.707 .707 .707 22.77 309.15)"/><path d="m455.95 233.57c-101.41 101.41-222.05 145.19-269.46 97.79-47.4-47.4-3.62-168.04 97.79-269.46z" fill="#ccc4cc" fill-rule="evenodd"/><path d="m183.52 328.12c-42.47-49.46 1.57-167.03 100.76-266.22l165.46 165.46c-99.19 99.19-216.76 143.23-266.22 100.76z" fill="#eceff1" fill-rule="evenodd"/><g><path d="m152.23 319.07 46.56 46.56c-6.62-4.53-14.81-4.64-19.64.19-10.28 10.28-9.88 29.34-17.03 36.48-32.61 32.61-65.23 65.23-97.84 97.84-8.91 8.91-23.49 8.91-32.4 0l-14.16-14.16c-8.91-8.91-8.91-23.49 0-32.4l97.98-97.98c6.86-6.86 26.13-6.67 36.34-16.88 4.83-4.83 4.72-13.03.19-19.64z" fill="#f9ab00" fill-rule="evenodd"/><path d="m152.23 319.07 39.92 39.92c-6.62-4.53-14.81-4.64-19.64.19-10.28 10.28-9.88 29.34-17.03 36.48-32.61 32.61-65.23 65.23-97.84 97.84-8.91 8.91-23.49 8.91-32.4 0l-7.52-7.52c-8.91-8.91-8.91-23.49 0-32.4 32.66-32.66 65.32-65.32 97.98-97.99 6.86-6.86 26.13-6.67 36.34-16.88 4.83-4.83 4.72-13.03.19-19.64z" fill="#f9bf2c" fill-rule="evenodd"/><path d="m31.77 396.1h114.21v66.05h-114.21z" fill="#565e75" transform="matrix(.707 -.707 .707 .707 -277.41 188.53)"/><path d="m175.36 295.34h20.42c2.22 0 4.02 1.8 4.02 4.02v65.84c0 2.22-1.8 4.02-4.02 4.02h-20.42c-2.22 0-4.02-1.8-4.02-4.02v-65.84c0-2.22 1.8-4.02 4.02-4.02z" fill="#bf9180" transform="matrix(.707 -.707 .707 .707 -180.61 228.54)"/><rect fill="#d6b4a8" height="68.32" rx="4.02" transform="matrix(.707 -.707 .707 .707 -179.79 226.57)" width="28.47" x="169.37" y="296.16"/><path d="m28.38 397.51h114.21v56.46h-114.21z" fill="#67708a" transform="matrix(.707 -.707 .707 .707 -276 185.14)"/></g></g><path d="m501.73 190.18-176.01-176.01c-3.12-3.12-8.19-3.12-11.31 0l-35.97 35.97c-43.07 43.07-77.24 90.35-98.79 136.71-20.58 44.26-27.77 83.55-20.94 114.06l-12.3 12.3s-.02.02-.03.03c-.15.15-.28.3-.42.46-.04.05-.08.09-.12.14-.12.15-.24.31-.35.47-.04.06-.09.12-.13.18-.09.14-.17.29-.26.43-.05.08-.1.17-.15.25-.06.12-.12.25-.17.38-.05.11-.11.22-.15.34-.04.11-.08.22-.12.33-.05.13-.1.26-.14.4-.03.12-.06.24-.09.35-.03.13-.07.26-.09.39-.03.15-.05.31-.07.46-.01.1-.03.19-.04.29-.02.19-.02.39-.03.59v.17c0 .22.01.43.03.65v.12c.02.21.05.41.09.62 0 .05.01.1.02.15.03.18.08.35.13.52.02.08.04.16.06.24.04.14.09.27.14.41.04.11.08.23.12.34.04.1.09.2.14.3.07.14.13.28.2.42.05.08.1.17.15.25.09.15.17.3.27.44.01.02.02.03.03.05 2.2 3.22 2.53 6.97.76 8.74-3.97 3.97-10.75 5.97-17.3 7.91-6.83 2.02-13.28 3.93-17.7 8.35l-9.44 9.44s0 0 0 0l-84.9 84.94c-11.72 11.72-11.72 30.8 0 42.52l13.63 13.63c5.86 5.86 13.56 8.79 21.26 8.79s15.4-2.93 21.26-8.79l5.92-5.92c.48-.31.94-.67 1.37-1.09s.78-.88 1.09-1.37l75.32-75.32c.48-.31.94-.67 1.37-1.09s.78-.88 1.09-1.37l8.07-8.07c4.56-4.56 6.5-11.1 8.54-18.01 1.91-6.47 3.89-13.16 7.86-17.12 1.77-1.77 5.52-1.44 8.74.76.01 0 .03.02.04.02.13.09.27.17.4.25.1.06.19.12.29.17s.2.09.3.14c.14.07.28.14.43.2.02 0 .04.01.06.02.72.29 1.46.47 2.21.55h.07c.23.02.47.03.7.03h.02c.08 0 .16 0 .24-.01.17 0 .34 0 .51-.03.12-.01.23-.03.35-.05l.42-.06c.12-.02.24-.06.35-.08.13-.03.27-.06.4-.1.11-.03.22-.07.32-.11.14-.05.28-.09.41-.15.09-.04.18-.08.28-.13.15-.07.29-.13.43-.21.08-.04.16-.09.23-.13.15-.08.3-.17.44-.26l.21-.15c.14-.1.29-.2.43-.32.07-.06.14-.12.2-.18.13-.11.26-.22.38-.35.01-.01.03-.02.04-.04l12.22-12.22c7.53 1.7 15.58 2.56 24.13 2.56 26.07 0 56.61-7.88 89.99-23.38 46.42-21.55 93.75-55.74 136.88-98.87l35.97-35.97c3.12-3.12 3.12-8.19 0-11.31zm-304.84 162.21-33.52-33.53 5.34-5.34 33.53 33.52-5.34 5.34zm-122.39 122.39-33.53-33.53 66.46-66.46 33.53 33.53zm-32.7 12.81-13.63-13.63c-5.48-5.48-5.48-14.41 0-19.89l1.5-1.5 33.53 33.53-1.5 1.5c-5.48 5.48-14.41 5.48-19.89 0zm130.52-129.37c-6.84 6.84-9.64 16.3-11.88 23.9-1.32 4.48-2.82 9.55-4.51 11.24l-3.65 3.65-33.53-33.53 3.78-3.78c1.54-1.54 6.74-3.08 10.92-4.32 7.68-2.27 17.23-5.1 24.07-11.94 1.34-1.34 2.45-2.84 3.33-4.45l15.91 15.91c-1.61.88-3.11 1.99-4.45 3.33zm149.83-36.41c-39.84 18.5-75.96 25.51-102.55 20.01-.13-.15-.25-.29-.39-.43l-44.84-44.84c-.09-.09-.2-.18-.29-.27-5.5-26.62 1.54-62.81 20.08-102.7 19.84-42.66 50.87-86.24 89.99-126.45l164.61 164.61c-40.26 39.16-83.89 70.23-126.6 90.06zm137.96-101.33-164.7-164.69 24.66-24.66 164.69 164.69-24.66 24.66z"/></svg>