<svg id="Layer_1" viewBox="0 0 512 512" xmlns="http://www.w3.org/2000/svg" data-name="Layer 1"><path d="m485.76 34.47-4.11-4.11-221.47 221.47 4.13 4.13 180.37-180.39c.62-.62 1.34-1.14 2.13-1.52l19.38-9.53 19.56-30.05z" fill="#cfe7fc"/><path d="m258.38 282.94 5.14-5.14-4.87-4.87v-.01h-.01l-9.52-9.53-5.14 5.14z" fill="#635463"/><path d="m477.53 26.24-30.05 19.56-9.53 19.38c-.39.79-.9 1.51-1.52 2.13l-180.38 180.38 4.13 4.13 221.46-221.46-4.11-4.11z" fill="#d8ecfe"/><path d="m243.98 268.53 5.14-5.14-10.04-10.03v-.01h-.01l-4.69-4.7-5.14 5.14z" fill="#786978"/><g fill="#f45d5d"><path d="m143.88 322.55-8.17 8.17c3.96 4.98 5.24 9.87 5.51 13.55.03.37.04.74.05 1.11 6.55.43 12.72 3.47 17.3 8.04l8.09-8.09z"/><path d="m63.37 448.63s0 0 0 0c-4.56-4.56-7.6-10.69-8.06-17.19-.44 0-.88-.02-1.32-.05-3.63-.27-8.47-1.55-13.43-5.52l-7.98 7.98 22.78 22.78 8.01-8.01z"/><path d="m199.07 289.15c-5.96 11.86-22.18 17.4-35.4 21.92-1.92.66-4.22 1.44-6.41 2.25l20.71 20.71 32.99-32.99z"/><path d="m38.47 473.53 5.58-5.58-19.85-19.85c-.11.87-.19 1.75-.19 2.65 0 5.36 2.07 10.38 5.82 14.14l8.65 8.65z"/><path d="m74.7 437.3c-.35-.37-.69-.74-1.02-1.12.41.53.78.92.99 1.13l.02-.02s0 0 0 0z"/><path d="m55.3 419.35c.1-.1.2-.21.3-.31l71.05-70.04c.22-.21.44-.41.65-.61.1-.1.19-.21.29-.32 1.59-1.56 4.21-4.77 3.91-8.69-.08-1.12-.42-2.18-.91-3.19-1.15.67-2.27 1.41-3.36 2.23l-71.42 70.4c-3.43 4.44-5.55 9.38-6.52 14.48 1.97-.68 3.99-1.98 5.84-3.81.05-.05.11-.09.16-.14z"/><path d="m52.03 414.4c.41.23.83.43 1.26.59-.36-.25-.73-.5-1.08-.76l-.17.17z"/></g><path d="m245.35 332.34s0 0-.01 0z" fill="#565e75"/><path d="m209.18 256.99h13.87v32.22h-13.87z" fill="#565e75" transform="matrix(.707 -.707 .707 .707 -129.81 232.81)"/><path d="m271.7 309.02c.23-.36.41-.73.57-1.12-.16.38-.34.76-.57 1.12z" fill="#565e75"/><path d="m211.01 300.99s.28-.28.28-.28l-11.99-11.99c-.07.15-.15.29-.22.43l11.89 11.89.04-.04z" fill="#565e75"/><path d="m144.05 436.91 45.63-45.63-43.14 43.13z" fill="#565e75"/><path d="m147.26 364.74c-.53-.53-3.55-3.34-7.53-3.34-2.17 0-4.62.83-7.12 3.33l-58.03 58.03c-5.65 5.65-2.78 11-.89 13.42.33.38.67.75 1.02 1.11z" fill="#565e75"/><path d="m97.46 460.1.3-.3c-.45-.61-.88-1.22-1.28-1.85.17.73.52 1.45.97 2.16z" fill="#db4d4d"/><path d="m171.11 385.97c-.82-.44-1.65-.73-2.49-.79-4.24-.32-9.76 4.95-12.29 7.48l-59.72 60.12c-1.42 1.43-4.96 5-6.65 8.6.61.46 1.57 1.08 2.86 1.51.5.17 2.77.87 5.41.24 4.28-1.03 6.28-4.82 6.59-5.41 21.28-22.69 42.56-45.38 63.85-68.08.81-1.22 1.63-2.44 2.44-3.66z" fill="#db4d4d"/><path d="m158.57 353.43s.01.01.02.02c4.52 4.52 7.54 10.6 8.02 17.06.55 0 1.1 0 1.66.05 4.65.34 9.04 2.24 13.11 5.64l8.08-8.08-22.78-22.78-8.09 8.09z" fill="#db4d4d"/><path d="m78.15 479.42 7.91-7.91c-3.39-4.07-5.29-8.45-5.63-13.11-.04-.58-.05-1.16-.05-1.73-6.43-.51-12.49-3.53-17.01-8.05l-8.01 8.01 22.78 22.78z" fill="#db4d4d"/><path d="m47.12 482.18c3.75 3.75 8.77 5.82 14.14 5.82.9 0 1.78-.08 2.65-.19l-19.86-19.86-5.58 5.58z" fill="#db4d4d"/><path d="m211.01 300.99s-.04.04-.04.04l-32.99 32.99 20.68 20.68c.83-2.23 1.63-4.57 2.3-6.53 4.53-13.17 10.09-29.32 21.89-35.26l-11.89-11.89.04-.04z" fill="#db4d4d"/><path d="m75.62 438.16c-.31-.28-.63-.56-.92-.86l-.02.02c.19.19.51.49.94.84z" fill="#db4d4d"/><path d="m231.96 279.78h13.87v32.22h-13.87z" fill="#4b5165" transform="matrix(.707 -.707 .707 .707 -139.25 255.59)"/><path d="m211.29 300.71-.28.28-.04.04 11.89 11.89c.14-.07.28-.15.43-.22l-11.99-11.99z" fill="#4b5165"/><path d="m169.29 387.22c-.64 1.13-1.38 2.2-2.17 3.23l2.84-2.84c-.22-.14-.44-.27-.67-.39z" fill="#4b5165"/><path d="m74.7 437.3s0 0 0 0c.29.3.61.57.92.86 2.31 1.87 7.81 5.06 13.62-.74l2.52-2.52s.02-.02.03-.03 52.65-52.65 52.65-52.65l2.83-2.83c6.96-6.96 1.23-13.41 0-14.63 0 0-.01-.01-.02-.02l-72.55 72.55z" fill="#4b5165"/><path d="m501.66 27.74-17.4-17.4c-2.67-2.67-6.85-3.11-10.02-1.05l-37.33 24.3c-1.21.79-2.18 1.88-2.81 3.17l-9.92 20.17-179.45 179.45-4.7-4.7c-1.5-1.5-3.54-2.34-5.66-2.34-1.24 0-2.44.29-3.53.83-.12.06-.25.12-.37.19-.64.36-1.23.8-1.76 1.32l-10.8 10.8-1.26-1.26-.25-.25-1.13-1.13c-1.5-1.5-3.54-2.34-5.66-2.34s-4.04.8-5.53 2.23c-.04.04-.08.07-.12.11l-21.12 21.12s-.02.02-.03.03c-.14.14-.28.3-.41.45-.04.05-.09.1-.13.15-.12.15-.23.31-.34.46-.04.06-.09.12-.13.19-.09.14-.17.28-.25.42-.05.09-.1.17-.15.26-.06.12-.11.24-.17.37-.05.12-.11.23-.16.35-.04.11-.08.22-.11.32-.05.14-.1.27-.14.41-.03.11-.06.23-.08.34-.03.13-.07.27-.1.4-.03.15-.04.29-.06.44-.01.1-.03.21-.04.31-.02.19-.02.38-.03.57v.19c0 .21.01.43.03.64v.12c.02.2.05.41.09.61 0 .05.01.1.02.15.03.17.08.35.13.52.02.08.04.16.06.24.04.14.09.27.14.41.04.11.08.23.12.34s.1.21.15.31c.06.14.13.28.2.41.05.09.1.17.15.26.08.14.17.29.26.43.01.02.02.04.03.05.47.69.96 1.45 1.41 2.25 1.46 2.58 2.55 5.53 1.79 7.83-.54 1.63-1.92 3.17-3.82 4.62-2.88 2.19-6.98 4.17-11.27 5.91-3.94 1.6-8.03 3-11.5 4.18-9.01 3.08-16.13 5.51-20.29 9.66l-17.06 17.07-79.7 79.71-19.68 19.68-3.26 3.26c-6.78 6.78-10.51 15.81-10.51 25.45s3.73 18.67 10.51 25.45l17.3 17.3c6.78 6.78 15.81 10.51 25.45 10.51s18.67-3.73 25.45-10.51l3.26-3.26 19.68-19.68 79.71-79.71 16.89-16.89c4.24-4.24 6.71-11.44 9.85-20.57 1.17-3.4 2.55-7.41 4.12-11.27 1.77-4.37 3.79-8.55 6.02-11.47 1.43-1.87 2.96-3.22 4.56-3.75 2.3-.76 5.25.34 7.82 1.79.8.45 1.56.93 2.25 1.41.01 0 .03.02.04.02.13.09.27.17.41.25.09.06.19.12.28.17.1.05.21.1.31.15.14.07.27.14.41.2l.09.03c.71.29 1.45.47 2.19.54h.07c.23.02.47.03.7.03h.02c.08 0 .16 0 .23-.01.17 0 .35 0 .52-.03.11-.01.22-.03.33-.05.14-.02.29-.04.43-.06.11-.02.23-.05.34-.08.14-.03.28-.06.42-.1.1-.03.21-.07.31-.11.14-.05.29-.1.43-.15.09-.04.17-.08.26-.12.15-.07.3-.14.45-.21.07-.04.15-.08.22-.13.15-.09.31-.18.46-.27.07-.04.13-.09.19-.14.15-.1.3-.21.44-.32.07-.05.13-.12.2-.17.13-.11.26-.23.39-.35.01-.01.03-.02.04-.04l21.12-21.12s.07-.08.11-.12c1.43-1.49 2.23-3.47 2.23-5.53s-.84-4.16-2.34-5.66l-2.47-2.47 10.8-10.8c3.12-3.12 3.12-8.19 0-11.31l-4.88-4.88 179.44-179.42 20.17-9.91c1.29-.64 2.39-1.61 3.17-2.81l24.3-37.33c2.06-3.17 1.63-7.35-1.05-10.02zm-56.97 47.83-180.38 180.38-4.13-4.13-4.13-4.13 180.38-180.37c.62-.62 1.13-1.34 1.52-2.13l9.53-19.38 30.05-19.56 4.11 4.11 4.11 4.11-19.56 30.05-19.38 9.53c-.79.39-1.51.9-2.13 1.52zm-210.31 173.08 4.7 4.7s0 0 0 0l10.03 10.03 9.53 9.53s0 0 0 0l4.87 4.87-5.14 5.14-14.41-14.41-14.74-14.74 5.14-5.14zm-179.21 166.78c-.64-.05-1.27-.21-1.88-.44-.43-.16-.85-.36-1.26-.59l.17-.17 11.24-11.24 58.33-58.33 2.44-2.44c.11.19.21.4.3.6.4.84.67 1.72.74 2.65.24 3.24-1.9 5.9-3.2 7.2-.08.08-.16.17-.24.26-.18.17-.36.33-.53.51l-58.03 58.03c-.08.08-.16.17-.24.26-.04.04-.09.08-.13.12-1.52 1.52-3.16 2.59-4.77 3.16-1.01.36-2.01.52-2.95.45zm19.51 21.89c-.22-.22-.58-.61-.99-1.13-1.89-2.41-4.75-7.77.89-13.42l58.03-58.03c2.49-2.49 4.95-3.33 7.12-3.33 3.98 0 7 2.81 7.53 3.34 0 0 .01.01.02.02 1.22 1.22 6.96 7.66 0 14.63l-2.83 2.83s0 0 0 0l-52.65 52.65s-.02.02-.03.03l-2.52 2.52c-5.8 5.8-11.3 2.61-13.62.74-.43-.35-.75-.65-.94-.84zm-34.12-11.45c4.96 3.97 9.8 5.25 13.43 5.52.44.03.88.04 1.32.05.46 6.5 3.5 12.63 8.06 17.19 4.52 4.52 10.57 7.54 17.01 8.05 0 .57 0 1.14.05 1.73.34 4.66 2.24 9.05 5.63 13.11l-7.91 7.91-22.78-22.78-22.78-22.78 7.98-7.98zm-16.37 22.23 19.85 19.85 19.86 19.86c-.87.11-1.75.19-2.65.19-5.36 0-10.38-2.07-14.14-5.82l-8.65-8.65-8.65-8.65c-3.75-3.75-5.82-8.77-5.82-14.14 0-.9.08-1.78.19-2.65zm142.93-57.65-57.88 57.88-11.47 11.48-.3.3c-.45-.7-.8-1.43-.97-2.16-.06-.24-.1-.48-.11-.72-.08-1.09.26-2.27.81-3.45 1.5-3.17 4.64-6.33 5.91-7.59s53.06-53.06 53.06-53.06c2.25-2.23 7.15-6.89 10.92-6.6.74.05 1.48.31 2.21.7.22.12.45.25.67.39l-2.84 2.84zm14.24-14.24c-4.07-3.4-8.45-5.3-13.11-5.64-.56-.04-1.11-.05-1.66-.05-.48-6.46-3.49-12.54-8.02-17.06 0 0-.01-.01-.02-.02-4.58-4.58-10.75-7.61-17.3-8.04 0-.37-.02-.74-.05-1.11-.27-3.68-1.56-8.57-5.51-13.55l8.17-8.17 22.78 22.78 22.78 22.78-8.08 8.08zm41.49-63.28c-11.8 5.94-17.36 22.09-21.89 35.26-.67 1.96-1.48 4.29-2.3 6.53l-20.68-20.68-20.71-20.71c2.19-.81 4.49-1.59 6.41-2.25 13.23-4.51 29.44-10.06 35.4-21.92.07-.14.15-.28.22-.43l11.99 11.99 11.99 11.99c-.15.07-.29.15-.43.22zm22.53-.74-22.78-22.78-22.78-22.78 9.81-9.81 22.78 22.78 22.78 22.78z"/></svg>