<svg id="Layer_1" enable-background="new 0 0 512 512" viewBox="0 0 512 512" xmlns="http://www.w3.org/2000/svg"><g><g><g clip-rule="evenodd" fill-rule="evenodd"><path d="m413.622 125.005 33.134-3.399c1.523-.156 2.77-.902 3.629-2.169l43.299-63.898c1.358-2.004 1.108-4.628-.604-6.34l-30.278-30.278c-1.712-1.712-4.336-1.962-6.34-.604l-63.898 43.299c-1.267.859-2.013 2.106-2.169 3.629l-3.398 33.134c-.122 1.192-.591 2.178-1.438 3.025l-241.643 241.642c-1.947 1.947-1.947 5.124.001 7.071l17.967 17.968c1.947 1.947 5.123 1.947 7.07 0l241.642-241.642c.848-.847 1.834-1.316 3.026-1.438z" fill="#cad0d7"/><path d="m272.627 306.889-175.186 175.187c-18.563 18.563-48.948 18.568-67.516 0-18.567-18.567-18.567-48.949 0-67.516l175.186-175.186c3.894-3.894 10.247-3.894 14.141 0l53.375 53.375c3.894 3.893 3.894 10.247 0 14.14z" fill="#fdcd56"/></g></g><path clip-rule="evenodd" d="m219.14 9.102h-2.984c-3.153.684-5.508 3.486-5.508 6.842v21.82c0 3.863 3.129 6.997 7.002 6.997 3.858 0 6.997-3.134 6.997-6.997v-21.82c0-3.356-2.362-6.159-5.507-6.842zm235.749 116.136c-1.162 1.713-3.021 2.823-5.077 3.035l-34.755 3.567-146.685 146.68 16.286 16.291c2.721 2.702 2.721 7.198 0 9.9l-182.25 182.254c-10.667 10.672-24.69 16.008-38.708 16.008-14.022 0-28.04-5.336-38.712-16.008-21.34-21.34-21.34-56.071 0-77.415l182.259-182.254c2.734-2.734 7.162-2.734 9.9 0l16.29 16.291 146.68-146.685 3.572-34.75c.207-2.056 1.318-3.92 3.03-5.077l69.246-46.928c2.638-1.782 6.635-1.394 8.884.847l36.12 36.12c2.367 2.371 2.729 6.098.838 8.875zm-274.078 215.81c2.729-2.734 2.729-7.166 0-9.9-2.734-2.734-7.162-2.734-9.905 0l-102.228 102.227c-2.729 2.734-2.729 7.166 0 9.9 2.722 2.713 7.182 2.728 9.9 0zm306.169-288.124-27.941-27.941-61.76 41.846-3.492 33.979c-.16 1.6-.87 3.096-2.009 4.235l-148.44 148.445 15.142 15.138 148.44-148.445c1.139-1.139 2.63-1.849 4.24-2.014l33.969-3.487zm-274.783 189.218-16.498 16.507 57.61 57.615 16.512-16.502zm-26.398 26.408-150.911 150.901c-15.876 15.886-15.876 41.733 0 57.619 15.89 15.886 41.733 15.881 57.619 0l150.902-150.906zm108.589 198.573c-3.868 0-7.002 3.138-7.002 7.002v21.819c0 3.863 3.134 6.997 7.002 6.997 3.863 0 7.002-3.134 7.002-6.997v-21.819c0-3.864-3.139-7.002-7.002-7.002zm-19.74-19.731h-21.819c-3.863 0-7.002 3.134-7.002 6.997 0 3.868 3.139 7.002 7.002 7.002h21.819c3.873 0 7.002-3.134 7.002-7.002 0-3.863-3.129-6.997-7.002-6.997zm19.74-41.554c-3.868 0-7.002 3.134-7.002 7.002v21.815c0 3.868 3.134 7.002 7.002 7.002 3.863 0 7.002-3.134 7.002-7.002v-21.815c0-3.868-3.139-7.002-7.002-7.002zm160.072-139.363c-3.863 0-7.002 3.134-7.002 7.002v21.815c0 3.868 3.139 7.002 7.002 7.002 3.868 0 6.997-3.134 6.997-7.002v-21.815c0-3.868-3.129-7.002-6.997-7.002zm41.56 41.554h-21.82c-3.873 0-7.002 3.134-7.002 6.997 0 3.868 3.129 7.002 7.002 7.002h21.82c3.859 0 6.997-3.134 6.997-7.002 0-3.863-3.139-6.997-6.997-6.997zm-61.29 0h-21.819c-3.863 0-7.002 3.134-7.002 6.997 0 3.868 3.138 7.002 7.002 7.002h21.819c3.868 0 6.997-3.134 6.997-7.002 0-3.863-3.129-6.997-6.997-6.997zm19.73 19.73c-3.863 0-7.002 3.134-7.002 7.002v21.819c0 3.863 3.139 6.997 7.002 6.997 3.868 0 6.997-3.134 6.997-6.997v-21.819c0-3.868-3.129-7.002-6.997-7.002zm-118.522 119.633h-21.82c-3.868 0-6.997 3.134-6.997 6.997 0 3.868 3.129 7.002 6.997 7.002h21.82c3.872 0 7.002-3.134 7.002-7.002 0-3.863-3.13-6.997-7.002-6.997zm-278.369-201.979c3.859 0 7.002-3.134 7.002-7.002v-21.82c0-3.863-3.143-6.997-7.002-6.997-3.873 0-6.997 3.134-6.997 6.997v21.82c0 3.868 3.124 7.002 6.997 7.002zm118.522-180.918h21.819c3.868 0 6.997-3.134 6.997-7.002 0-3.863-3.129-6.997-6.997-6.997h-21.819c-3.863 0-7.002 3.134-7.002 6.997.001 3.868 3.139 7.002 7.002 7.002zm-98.792 139.363h21.819c3.868 0 7.002-3.134 7.002-6.997 0-3.868-3.134-7.002-7.002-7.002h-21.819c-3.859 0-7.002 3.134-7.002 7.002 0 3.863 3.143 6.997 7.002 6.997zm160.082-139.363h21.819c3.868 0 6.997-3.134 6.997-7.002 0-3.863-3.129-6.997-6.997-6.997h-21.819c-3.873 0-7.002 3.134-7.002 6.997 0 3.868 3.129 7.002 7.002 7.002zm-19.731 41.554c3.858 0 6.997-3.138 6.997-7.002v-21.82c0-3.863-3.139-6.997-6.997-6.997-3.873 0-7.002 3.134-7.002 6.997v21.82c0 3.864 3.13 7.002 7.002 7.002zm-201.631 97.809h21.81c3.868 0 7.002-3.134 7.002-6.997 0-3.868-3.134-7.002-7.002-7.002h-21.81c-3.873 0-6.997 3.134-6.997 7.002 0 3.863 3.124 6.997 6.997 6.997zm34.553-26.732c0 3.863 3.124 6.997 6.997 6.997 3.859 0 7.002-3.134 7.002-6.997v-21.82c0-3.863-3.143-7.002-7.002-7.002-3.873 0-6.997 3.138-6.997 7.002z" fill-rule="evenodd"/></g></svg>