<svg clip-rule="evenodd" fill-rule="evenodd" height="512" image-rendering="optimizeQuality" shape-rendering="geometricPrecision" text-rendering="geometricPrecision" viewBox="0 0 512 512" width="512" xmlns="http://www.w3.org/2000/svg"><g id="Layer_x0020_1"><g id="_521109136"><g><g><path d="m369 512h-226c-14 0-25-11-25-25s11-24 25-24h226c14 0 25 10 25 24s-11 25-25 25zm-226-39c-9 0-15 6-15 14s7 15 15 15h226c8 0 15-7 15-15s-6-14-15-14z"/></g><g><path d="m369 473c-3 0-5-2-5-5v-23c0-3 2-5 5-5s5 2 5 5v23c0 3-2 5-5 5zm-226 0c-3 0-5-2-5-5v-23c0-3 2-5 5-5s5 2 5 5v23c0 3-2 5-5 5zm207-58h-188c-3 0-5-2-5-5s2-5 5-5h188c3 0 5 2 5 5s-2 5-5 5z"/></g><g><path d="m386 453c-12 0-23-4-32-13-8-9-11-20-9-31 1-3 3-5 6-4s4 3 4 6c-2 8 1 16 7 22 7 8 19 12 29 10 13-2 23-10 28-22 7-14 5-31-3-44-6-10-15-15-23-19-2-1-2-1-5-1h-255c-1 0-3 0-4 0-5 0-8 0-12 2-8 3-15 10-21 18-8 13-10 30-3 44 5 13 15 20 28 22 10 2 22-2 29-10 6-6 9-14 7-22 0-3 1-5 4-6 3 0 5 1 6 4 2 11-1 23-9 31-10 10-25 15-39 13-16-2-28-12-35-27-8-18-7-39 4-55 6-10 15-17 25-21 6-3 11-3 16-3h4 255c4 0 5 0 9 1v1c10 4 20 11 27 22 11 16 12 37 4 55-7 15-20 25-35 27-2 0-5 0-7 0z"/></g><g><path d="m191 449c-3 0-5-2-5-5v-9c0-3 2-5 5-5s5 2 5 5v9c0 3-2 5-5 5z"/></g><g><path d="m217 449c-3 0-5-2-5-5v-9c0-3 2-5 5-5s5 2 5 5v9c0 3-2 5-5 5z"/></g><g><path d="m243 449c-3 0-5-2-5-5v-9c0-3 2-5 5-5s5 2 5 5v9c0 3-2 5-5 5z"/></g><g><path d="m269 449c-3 0-5-2-5-5v-9c0-3 2-5 5-5s5 2 5 5v9c0 3-2 5-5 5z"/></g><g><path d="m295 449c-3 0-5-2-5-5v-9c0-3 2-5 5-5s5 2 5 5v9c0 3-2 5-5 5z"/></g><g><path d="m321 449c-3 0-5-2-5-5v-9c0-3 2-5 5-5s5 2 5 5v9c0 3-2 5-5 5z"/></g><g><path d="m331 382h-150c-3 0-5-2-5-5s2-5 5-5h150c3 0 5 2 5 5s-2 5-5 5z"/></g><g><g><path d="m124 427c-13 0-23-10-23-23s10-23 23-23 23 10 23 23-10 23-23 23zm0-36c-7 0-13 6-13 13s6 13 13 13 13-6 13-13-6-13-13-13z"/></g><g><path d="m388 427c-13 0-23-10-23-23s10-23 23-23 23 10 23 23-10 23-23 23zm0-36c-7 0-13 6-13 13s6 13 13 13 13-6 13-13-6-13-13-13z"/></g></g></g><g><path d="m377 282h-42c-3 0-5-2-5-5s2-5 5-5h37v-35c0-21-19-32-36-35l-55-11c-2-1-4-3-4-5v-24c0-3 2-5 5-5s5 2 5 5v20l51 10c12 2 23 8 30 15 9 8 14 18 14 30v40c0 3-2 5-5 5zm-200 0h-42c-3 0-5-2-5-5v-40c0-12 5-22 14-30 7-8 18-13 30-15l51-10v-20c0-3 2-5 5-5s5 2 5 5v24c0 2-2 4-4 5l-55 11c-17 3-36 14-36 35v35h37c3 0 5 2 5 5s-2 5-5 5z"/></g><g><path d="m256 175c-29 0-52-23-52-52v-63c0-3 2-5 5-5s5 2 5 5v63c0 23 19 42 42 42s42-19 42-42v-63c0-3 2-5 5-5s5 2 5 5v63c0 29-23 52-52 52z"/></g><g><path d="m336 129c-3 0-5-2-5-5v-59c0-30-24-55-54-55h-42c-30 0-54 25-54 55v59c0 3-2 5-5 5s-5-2-5-5v-59c0-17 7-34 19-46s28-19 45-19h42c17 0 33 7 46 19 11 12 18 29 18 46v59c0 3-2 5-5 5z"/></g><g><path d="m168 203c-9 0-4-11-2-15 3-6 3-6-1-10-14-18 6-20 6-26 0-3-4-11-3-14 3-9 2-21 9-19 8 2 1 14 1 20 0 5 10 14-4 25-2 1-3 2-4 3 2 7 13 8 5 25-1 3-2 3-2 6s-2 5-5 5z"/></g><g><path d="m344 203c-5 0-5-6-5-7-1-7-11-11 0-24 1-2 2-3 3-5-5-6-15-7-9-24 0-1 1-3 1-4 0-6-7-18 1-20 7-2 7 10 9 19 1 4-4 11-3 15 0 2 11 7 11 14s-8 11-8 16c0 3 5 6 5 15 0 3-2 5-5 5z"/></g><g><path d="m293 320c-14 0-28-7-37-18-9 11-23 18-37 18-26 0-47-21-47-47 0-4 0-8 1-12 1-3 4-5 6-4 3 1 5 4 4 6-1 4-1 6-1 10 0 21 17 37 37 37 13 0 26-7 33-18 1-2 2-3 4-3s3 1 4 3c7 11 20 18 33 18 20 0 37-16 37-37 0-4 0-6-1-10-1-2 1-5 4-6 2-1 5 1 6 4 1 4 1 8 1 12 0 26-21 47-47 47z"/></g><g><path d="m277 247c-3 0-5-2-5-5v-11c0-9 7-16 16-16h36c3 0 5 2 5 5s-2 5-5 5h-36c-3 0-6 3-6 6v11c0 3-2 5-5 5z"/></g><g><path d="m235 247c-3 0-5-2-5-5v-11c0-3-3-6-6-6h-36c-3 0-5-2-5-5s2-5 5-5h36c9 0 16 7 16 16v11c0 3-2 5-5 5z"/></g><g><path d="m309 357h-106c-3 0-5-2-5-5v-40c0-3 2-5 5-5s5 2 5 5v35h96v-35c0-3 2-5 5-5s5 2 5 5v40c0 3-2 5-5 5z"/></g><g><path d="m288 66c-4 0-8-1-11-3-2-1-5-2-7-2-1 0-3 1-5 2-3 1-5 2-9 2-3 0-6-1-10-2-2 0-5-1-7-1s-3 1-5 1c-3 1-6 2-10 2h-16c-3 0-5-2-5-5s2-5 5-5h16c2 0 5-1 7-1 2-1 5-2 8-2s7 1 10 2c2 0 5 1 7 1 1 0 3-1 5-2 3-1 6-2 9-2 4 0 8 2 11 3s5 2 7 2c1 0 3-1 5-2 3-1 6-2 9-2s5 2 5 5-2 5-5 5c-1 0-3 1-5 2s-5 2-9 2z"/></g></g><path d="m230 242v-11c0-3-3-6-6-6h-36c-3 0-5-2-5-5s2-5 5-5h36c9 0 16 7 16 16v11c0 3-2 5-5 5s-5-2-5-5zm26-67c-7 0-15-2-21-4v15c0 2-2 4-4 5l-55 11c-17 3-36 14-36 35v35h32c0-4 0-7 1-11 1-3 4-5 6-4 3 1 5 4 4 6-1 4-1 6-1 10 0 21 17 37 37 37 13 0 26-7 33-18 1-2 2-3 4-3s3 1 4 3c7 11 20 18 33 18 20 0 37-16 37-37 0-4 0-6-1-10-1-2 1-5 4-6 2-1 5 1 6 4 1 4 1 7 1 11h32v-35c0-21-19-32-36-35l-55-11c-2-1-4-3-4-5v-15c-6 2-13 4-21 4zm21 72c-3 0-5-2-5-5v-11c0-9 7-16 16-16h36c3 0 5 2 5 5s-2 5-5 5h-36c-3 0-6 3-6 6v11c0 3-2 5-5 5z" fill="#a0acb9"/><path d="m234 158c6 5 14 7 22 7s16-2 23-7c0 0 1 0 1-1 11-7 18-20 18-34v-60s-1 0-1 1c-2 1-5 2-9 2s-8-1-11-3c-2-1-5-2-7-2-1 0-3 1-5 2-3 1-5 2-9 2-3 0-6-1-10-2-2 0-5-1-7-1s-3 1-5 1c-3 1-6 2-10 2h-10v58c0 14 7 27 18 34 1 1 1 1 2 1z" fill="#7b8c97"/><path d="m239 52c3 0 7 1 10 2 2 0 5 1 7 1 1 0 3-1 5-2 3-1 6-2 9-2 4 0 8 2 11 3s5 2 7 2c1 0 3-1 5-2 3-1 6-2 9-2s5 2 5 5c1 1 1 2 1 3v63c0 17-8 32-21 42v17l50 10c-2-5-6-10 2-20 1-2 2-3 3-5-5-6-15-7-9-24 0-1 1-3 1-4 0-4-3-10-3-14 0-1 0-1 0-1v-59c0-30-24-55-54-55h-42c-30 0-54 25-54 55v59 1c0 5-3 10-3 14 0 5 10 14-4 25-2 1-3 2-4 3 2 7 13 8 5 25l50-10v-17c-13-10-21-25-21-42v-60c-1-1-1-2-1-3 0-3 2-5 5-5h1 15c2 0 5-1 7-1 2-1 5-2 8-2z" fill="#b7c4ce"/><path d="m256 302c-9 11-23 18-37 18-4 0-7 0-11-1v28h96v-28c-3 1-7 1-11 1-14 0-28-7-37-18z" fill="#b7c4ce"/><path d="m388 391c-7 0-13 6-13 13s6 13 13 13 13-6 13-13-6-13-13-13z" fill="#7b8c97"/><path d="m365 404c0-13 10-23 23-23s23 10 23 23-10 23-23 23-23-10-23-23zm-3 29c7 8 19 12 29 10 13-2 23-10 28-22 7-14 5-31-3-44-6-10-15-15-23-19-2-1-2-1-5-1h-255c-1 0-3 0-4 0-5 0-8 0-12 2-8 3-15 10-21 18-8 13-10 30-3 44 5 13 15 20 28 22 10 2 22-2 29-10 6-6 9-14 7-22 0-1 0-2 1-3 0-2 2-3 4-3h188 1c2 1 4 3 4 5v2c-2 8 1 15 7 21zm-238-52c13 0 23 10 23 23s-10 23-23 23-23-10-23-23 10-23 23-23zm207 1h-150c-3 0-5-2-5-5s2-5 5-5h150c3 0 5 2 5 5s-2 5-5 5z" fill="#a0acb9"/><path d="m354 440c-6-7-10-16-10-25h-176c0 9-4 18-10 25-3 3-6 6-10 8v15h216v-15c-3-2-7-5-10-8zm-28 4c0 3-2 5-5 5s-5-2-5-5v-9c0-3 2-5 5-5s5 2 5 5zm-26 0c0 3-2 5-5 5s-5-2-5-5v-9c0-3 2-5 5-5s5 2 5 5zm-26 0c0 3-2 5-5 5s-5-2-5-5v-9c0-3 2-5 5-5s5 2 5 5zm-26 0c0 3-2 5-5 5s-5-2-5-5v-9c0-3 2-5 5-5s5 2 5 5zm-26 0c0 3-2 5-5 5s-5-2-5-5v-9c0-3 2-5 5-5s5 2 5 5zm-26 0c0 3-2 5-5 5s-5-2-5-5v-9c0-3 2-5 5-5s5 2 5 5z" fill="#b7c4ce"/><path d="m369 473h-226c-9 0-15 6-15 14s7 15 15 15h226c8 0 15-7 15-15s-6-14-15-14z" fill="#a0acb9"/><path d="m124 417c7 0 13-6 13-13s-6-13-13-13-13 6-13 13 6 13 13 13z" fill="#7b8c97"/></g></svg>