<svg id="Capa_1" enable-background="new 0 0 512.003 512.003" height="512" viewBox="0 0 512.003 512.003" width="512" xmlns="http://www.w3.org/2000/svg"><g><g><circle cx="256.026" cy="342.774" fill="#fccd7f" r="123.37"/><path d="m256.026 219.404c-3.121 0-6.215.118-9.278.346 63.802 4.744 114.093 58.01 114.093 123.024s-50.291 118.28-114.093 123.024c3.063.228 6.156.346 9.278.346 68.136 0 123.37-55.235 123.37-123.37 0-68.136-55.234-123.37-123.37-123.37z" fill="#f0b95f"/><path d="m426.052 504.5h-340.052c-5.114 0-8.846-4.835-7.552-9.782l4.505-17.22c1.773-6.773 7.893-11.498 14.895-11.498h316.356c7.002 0 13.122 4.725 14.894 11.499l4.505 17.22c1.295 4.946-2.438 9.781-7.551 9.781z" fill="#a3847e"/><path d="m433.603 494.718-4.505-17.219c-1.772-6.774-7.892-11.499-14.894-11.499h-18.555c7.002 0 13.122 4.725 14.894 11.499l4.505 17.219c1.294 4.947-2.438 9.782-7.552 9.782h18.555c5.114 0 8.847-4.835 7.552-9.782z" fill="#8e746e"/><path d="m393.592 466h-275.132v-26.133c0-6.83 5.537-12.367 12.367-12.367h250.397c6.83 0 12.367 5.537 12.367 12.367v26.133z" fill="#a3847e"/><path d="m381.224 427.5h-18.555c6.83 0 12.367 5.537 12.367 12.367v26.133h18.555v-26.133c0-6.83-5.536-12.367-12.367-12.367z" fill="#8e746e"/><path d="m226.826 252.56-11.83 139.05-3.05 35.89h-16.88c-7.73 0-14.2-5.9-14.9-13.6l-3.69-40.29c-.46-4.97-2.71-9.6-6.34-13.03l-66.71-62.96c-3.14-2.96-5.59-6.51-7.27-10.39-1.67-3.88-2.56-8.1-2.56-12.41 0-13.33 8.42-25.2 21.01-29.6l73.85-25.82 12.33 10.66z" fill="#ffcebf"/><path d="m188.46 219.404-13.212 4.618 33.023 28.541-14.876 174.835c.551.062 1.108.102 1.675.102h16.872l14.885-174.937z" fill="#ffb09e"/><path d="m226.826 252.56-11.83 139.05-40.66-70.49c-3.3-5.72-5.03-12.2-5.03-18.8 0-10.37 4.28-20.29 11.83-27.4l23.74-22.36-4.09-22.5z" fill="#ffb09e"/><path d="m265.703 311.511 53.396-42.217c13.365-10.567 21.161-26.668 21.161-43.706v-89.69c0-41.904-33.97-75.875-75.875-75.875h-75.925l34.974 192.541-23.746 22.36c-7.551 7.11-11.832 17.022-11.832 27.394 0 6.6 1.736 13.084 5.034 18.802l56.685 98.267c2.936 5.09 3.226 11.288.778 16.63l-13.809 30.129h42.448c10.688 0 19.352-8.664 19.352-19.352v-15.873c0-2.259-.422-4.499-1.244-6.603l-36.586-93.662c-2.666-6.83-.561-14.599 5.189-19.145z" fill="#ffdfcf"/><path d="m264.385 60.022h-18.555c41.905 0 75.875 33.97 75.875 75.875v89.69c0 17.038-7.796 33.139-21.161 43.706l-53.396 42.217c-5.75 4.546-7.856 12.315-5.189 19.143l36.586 93.662c.822 2.104 1.244 4.344 1.244 6.603v15.873c0 10.688-8.664 19.352-19.352 19.352h18.555c10.688 0 19.352-8.664 19.352-19.352v-15.873c0-2.259-.422-4.499-1.244-6.603l-36.586-93.662c-2.667-6.828-.561-14.597 5.189-19.143l53.396-42.217c13.365-10.567 21.161-26.668 21.161-43.706v-89.69c0-41.904-33.971-75.875-75.875-75.875z" fill="#ffcebf"/><path d="m246.642 86.572v83.264c0 5.77-2.658 11.218-7.206 14.768l-23.294 18.186-11.313-56.69c-.765-3.832-.726-7.781.114-11.597l5.077-23.073c.682-3.1-1.678-6.036-4.853-6.036h-24.052l-7.661 29.916c-.929 3.629-1.127 7.406-.583 11.112l11.524 78.457c2.336 15.9 15.976 27.684 32.047 27.684 6.755 0 13.34-2.112 18.835-6.04l44.662-31.923c10.368-7.411 16.521-19.372 16.521-32.116v-62.085c0-18.682-15.145-33.827-33.827-33.827z" fill="#ffdfcf"/><g><path d="m275.491 89.109c1.186 3.45 1.839 7.148 1.839 11.001v82.374c0 12.744-6.153 24.705-16.521 32.116l-44.662 31.923c-2.845 2.033-5.985 3.569-9.287 4.588 3.038.941 6.255 1.452 9.58 1.452 6.755 0 13.34-2.112 18.836-6.04l44.662-31.923c10.368-7.411 16.521-19.372 16.521-32.116v-62.085c0-14.128-8.665-26.228-20.968-31.29z" fill="#ffcebf"/></g><path d="m211.672 117.185h-.65c-24.496 0-44.354-19.858-44.354-44.354v-34.739c0-16.896 13.697-30.592 30.592-30.592h28.174c16.896 0 30.592 13.697 30.592 30.592v34.738c0 24.497-19.858 44.355-44.354 44.355z" fill="#ffdfcf"/><path d="m225.434 7.5h-18.555c16.896 0 30.592 13.697 30.592 30.592v34.739c0 21.429-15.197 39.309-35.401 43.45 2.892.593 5.886.904 8.953.904h.65c24.496 0 44.354-19.858 44.354-44.354v-34.739c-.001-16.895-13.698-30.592-30.593-30.592z" fill="#ffcebf"/></g><g><path d="m440.859 492.82-4.505-17.22c-2.635-10.068-11.743-17.1-22.156-17.1l-13.102.011v-18.641c0-10.957-8.914-19.87-19.87-19.87h-19.537c16.347-22.302 25.207-49.185 25.207-77.23 0-25.243-7.201-49.744-20.825-70.855-2.246-3.48-6.89-4.481-10.368-2.235-3.48 2.246-4.481 6.888-2.235 10.369 12.057 18.681 18.429 40.37 18.429 62.721 0 28.669-10.453 55.966-29.495 77.23h-38.94l-35.96-92.084c-1.478-3.773-.328-8.002 2.857-10.523l53.387-42.217c15.26-12.053 24.012-30.126 24.012-49.586v-89.69c.084-45.877-37.956-83.96-84.23-83.38v-14.43c0-21.003-17.087-38.09-38.09-38.09h-28.18c-21.003 0-38.091 17.087-38.091 38.09v34.74c0 12.962 4.912 25.463 13.59 34.971-2.076 10.127-9.199 28.84-7.306 39.711l10.057 68.471-63.375 22.157c-26.535 8.804-35.141 44.809-13.853 64.935l27.59 26.039c-.469 4.501-.713 9.077-.713 13.657 0 28.043 8.858 54.926 25.202 77.23h-19.532c-10.956 0-19.87 8.914-19.87 19.87v18.63h-13.109c-10.407 0-19.516 7.032-22.15 17.1l-4.505 17.219c-2.345 7.986 4.212 19.392 14.807 19.18h340.051c8.968.119 17.225-8.798 14.808-19.18zm-54.763-52.95v18.653l-82.989.067c3.228-4.997 2.819-17.534 2.739-23.59h75.38c2.686 0 4.87 2.185 4.87 4.87zm-121.71-372.35c37.699 0 68.37 30.675 68.37 68.38v89.69c0 14.842-6.673 28.625-18.313 37.817l-53.393 42.221c-8.396 6.644-11.417 17.798-7.521 27.75l36.592 93.699c1.208 1.424.585 17.718.725 19.713 0 6.33-4.993 11.501-11.246 11.819l-24.451.02c-1.554.079-2.209-.269-6.912.006l8.938-19.492c2.879-6.382 3.396-15.458-1.104-23.5l-56.685-98.262c-6.499-10.706-4.945-27.464 5.439-37l23.497-22.122c4.012-1.251 7.823-3.139 11.314-5.634l44.661-31.923c12.311-8.8 19.66-23.086 19.66-38.218v-62.084c0-4.142-3.357-7.5-7.5-7.5s-7.5 3.358-7.5 7.5v62.084c0 10.3-5.003 20.025-13.383 26.015l-44.661 31.923c-17.11 12.062-38.995-1.104-39.656-20.406l-10.97-74.685c-1.583-4.555 5.786-27.874 6.646-32.436h15.083c-1.799 9.882-6.852 23.95-4.545 34.674l11.314 56.69c1.111 4.44 6.193 8.04 11.97 4.444l23.294-18.187c6.413-5.007 10.091-12.544 10.091-20.68v-67.258c6.811-9.209 10.065-22.481 9.384-35.058h.862zm-23.117 352.48h-21.158l2.72-31.962zm-29.002-283.883 2.537-11.532c8.757-.518 17.08-3.211 24.338-7.754v53.006c0 3.484-1.575 6.713-4.321 8.857l-13.705 10.7-8.933-44.759c-.564-2.834-.537-5.699.084-8.518zm-38.102-98.027c0-12.732 10.358-23.09 23.091-23.09h28.18c12.731 0 23.09 10.358 23.09 23.09v34.74c.792 15.688-13.559 34.334-30.954 36.374-.292-4.932-5.404-11.379-12.406-11.309h-21.144c-6.29-6.783-9.856-15.756-9.856-25.065v-34.74zm-71.121 246.175c-5.305-11.124.948-27.846 14.037-31.965l60.972-21.317c3.83 13.508 14.63 24.007 27.97 27.67l-11.479 10.807c-5.898 5.555-10.138 12.605-12.374 20.284l-8.829-10.211c-2.709-3.133-7.446-3.477-10.579-.768-3.134 2.709-3.478 7.445-.769 10.579l19.381 22.416c.982 4.581 2.658 9.012 5.015 13.109l23.323 40.43-4.655 54.701h-9.991c-3.885 0-7.08-2.915-7.432-6.784l-3.69-40.297c-.628-6.791-3.703-13.109-8.66-17.793l-66.714-62.963c-2.361-2.226-4.222-4.888-5.526-7.898zm37.112 58.505c0-.057.003-.113.003-.17l24.827 23.432c2.302 2.175 3.729 5.111 4.021 8.262l3.689 40.285c.172 1.895.593 3.703 1.19 5.421h-4.245c-19.035-21.267-29.485-48.564-29.485-77.23zm286.137 154.111c-.091.119-.182.119-.242.119h-340.051c.007-.03-.333-.002-.296-.384l4.505-17.219c.908-3.472 4.05-5.897 7.639-5.897h103.594c4.143 0 7.5-3.358 7.5-7.5s-3.357-7.5-7.5-7.5h-75.486v-18.63c0-2.686 2.185-4.87 4.87-4.87h111.747l-12.845 28.014c-1.789 3.701.279 10.632 6.822 10.63l177.653-.145c3.589 0 6.73 2.425 7.639 5.897l4.505 17.221c.016.058.038.145-.054.264z"/><path d="m199.316 83.604c4.143 0 7.5-3.358 7.5-7.5v-18.2h4.531c4.143 0 7.5-3.358 7.5-7.5s-3.357-7.5-7.5-7.5h-12.031c-4.143 0-7.5 3.358-7.5 7.5v25.7c0 4.142 3.357 7.5 7.5 7.5z"/></g></g></svg>