<svg id="Capa_1" enable-background="new 0 0 512.002 512.002" height="512" viewBox="0 0 512.002 512.002" width="512" xmlns="http://www.w3.org/2000/svg"><g><g><path d="m187.029 422.628h137.963v43.203h-137.963z" fill="#c4a098"/><path d="m301.071 422.628h23.921v43.203h-23.921z" fill="#a3847e"/><path d="m348.719 504.5h-185.418c-4.616 0-7.856-4.55-6.346-8.912l8.195-23.674c1.26-3.641 4.69-6.083 8.543-6.083h164.632c3.853 0 7.283 2.442 8.543 6.083l8.195 23.674c1.512 4.362-1.728 8.912-6.344 8.912z" fill="#7a6d79"/><path d="m355.065 495.588-8.195-23.674c-1.26-3.641-4.69-6.083-8.543-6.083h-23.921c3.853 0 7.283 2.442 8.543 6.083l8.195 23.674c1.51 4.362-1.73 8.912-6.346 8.912h23.921c4.616 0 7.856-4.55 6.346-8.912z" fill="#685e68"/><path d="m325.924 155.011h-139.828v-95.721c0-28.603 23.187-51.79 51.79-51.79h36.247c28.603 0 51.79 23.187 51.79 51.79v95.721z" fill="#fccd7f"/><path d="m274.134 7.5h-23.921c28.603 0 51.79 23.187 51.79 51.79v95.721h23.92v-95.721c.001-28.603-23.186-51.79-51.789-51.79z" fill="#f0b95f"/><path d="m208.699 232.492h94.622v55.353h-94.622z" fill="#ffdfcf"/><path d="m279.401 232.492h23.921v55.353h-23.921z" fill="#ffcebf"/><path d="m337.053 201.467h-162.086c-35.203 0-63.74-28.538-63.74-63.74v-20.03c0-35.203 28.538-63.74 63.74-63.74h162.087c35.203 0 63.74 28.538 63.74 63.74v20.03c0 35.203-28.538 63.74-63.741 63.74z" fill="#fccd7f"/><path d="m337.053 53.956h-23.921c35.203 0 63.74 28.538 63.74 63.74v20.03c0 35.203-28.538 63.74-63.74 63.74h23.921c35.203 0 63.74-28.538 63.74-63.74v-20.03c.001-35.202-28.537-63.74-63.74-63.74z" fill="#f0b95f"/><path d="m440.862 371.389v19.296c0 9.026-6.573 16.708-15.491 18.096l-92.502 14.436-70.222 10.964c-4.4.685-8.872.685-13.273 0l-57.364-8.954-105.36-16.446c-8.917-1.388-15.491-9.071-15.491-18.096v-19.296c0-6.438 1.848-12.731 5.32-18.151l23.002-35.823c11.83-18.43 32.226-29.566 54.118-29.566h204.823c21.893 0 42.288 11.135 54.118 29.566l23.002 35.823c3.471 5.419 5.32 11.713 5.32 18.151z" fill="#ffdfcf"/><path d="m435.542 353.238-23.002-35.823c-11.83-18.43-32.226-29.566-54.118-29.566h-23.92c21.893 0 42.288 11.135 54.118 29.566l23.002 35.823c3.471 5.419 5.32 11.713 5.32 18.151v19.296c0 9.026-6.573 16.708-15.491 18.096l-92.502 14.436-64.899 10.133 5.325.831c4.4.685 8.872.685 13.273 0l70.222-10.964 92.502-14.436c8.917-1.388 15.491-9.071 15.491-18.096v-19.296c-.001-6.438-1.85-12.732-5.321-18.151z" fill="#ffcebf"/><path d="m358.422 287.849-25.553 135.368-70.222 10.964c-4.4.685-8.872.685-13.273 0l-57.364-8.954 89.444-137.378z" fill="#fccd7f"/><path d="m334.501 287.849-25.553 135.368-64.899 10.133 5.325.831c4.4.685 8.872.685 13.273 0l70.222-10.964 25.553-135.368z" fill="#f0b95f"/><path d="m270.379 252.683h-28.727c-30.679 0-55.55-24.871-55.55-55.55v-73.457l58.743-31.097c6.988-3.699 15.354-3.699 22.341 0l58.743 31.097v73.457c0 30.68-24.87 55.55-55.55 55.55z" fill="#ffdfcf"/><path d="m267.186 92.579c-6.988-3.699-15.354-3.699-22.342 0l-.789.418 57.953 30.679v73.457c0 30.679-24.871 55.55-55.55 55.55h23.921c30.679 0 55.55-24.871 55.55-55.55v-73.457z" fill="#ffcebf"/></g><g><path d="m441.853 349.186-23.001-35.822c-13.269-20.673-35.859-33.015-60.43-33.015h-47.602v-34.892c10.926-9.159 18.704-21.944 21.479-36.487 40.656 2.473 76.092-30.163 75.991-71.24v-20.03c0-39.282-31.958-71.24-71.24-71.24h-5.031c-5.888-26.911-29.674-46.46-57.889-46.46h-36.24c-28.215 0-52.001 19.549-57.888 46.46h-5.031c-39.282 0-71.24 31.958-71.24 71.24v20.03c0 28.733 17.107 54.511 43.583 65.671 3.818 1.609 8.216-.181 9.824-3.998 1.609-3.817-.181-8.216-3.998-9.825-20.903-8.812-34.41-29.164-34.41-51.849v-20.029c0-31.011 25.229-56.24 56.24-56.24h162.08c31.011 0 56.24 25.229 56.24 56.24v20.03c.179 31.91-27.601 58.173-59.86 56.24v-62.794h24.998c4.142 0 7.5-3.358 7.5-7.5s-3.358-7.5-7.5-7.5h-30.636l-57.097-30.226c-9.193-4.866-20.168-4.864-29.359 0l-57.097 30.226h-30.647c-4.142 0-7.5 3.358-7.5 7.5s3.358 7.5 7.5 7.5h25.009v65.957c0 19.381 8.796 36.74 22.598 48.315v34.902h-47.602c-24.57 0-47.161 12.342-60.429 33.014-6.287 11.213-27.811 38.699-29.003 51.672-.761 2.023-.455 22.937-.507 25.649 0 12.81 9.184 23.537 21.834 25.507l94.038 14.678v27.461c-8.274-1.009-18.236 1.922-21.467 11.13l-8.195 23.673c-2.875 7.567 3.093 19.039 13.433 18.866h185.417c8.724.105 16.525-8.956 13.433-18.865l-8.195-23.675c-2.508-8.41-12.705-12.252-21.467-11.129v-27.464c2.835-.759 5.994-.273 7.748-6.259l24.337-128.923c17.009 1.827 32.275 11.171 41.654 25.783l22.998 35.816c2.705 4.223 4.135 9.101 4.135 14.105v19.296c0 5.367-3.846 9.861-9.147 10.687l-56.227 8.774c-4.093.639-6.893 4.474-6.254 8.566.639 4.093 4.47 6.891 8.566 6.254l56.224-8.774c12.653-1.97 21.837-12.698 21.837-25.507v-19.296c.002-7.878-2.247-15.553-6.507-22.203zm-203.963-334.186h36.24c19.931 0 36.912 13.049 42.418 31.46h-121.076c5.506-18.411 22.487-31.46 42.418-31.46zm101.892 459.367 7.835 22.633h-183.213l7.834-22.632c.214-.621.8-1.037 1.456-1.037h164.633c.655 0 1.241.417 1.455 1.036zm-146.18-277.234v-68.941l54.752-28.984c4.798-2.54 10.527-2.54 15.324 0l54.752 28.984v68.941c0 26.495-21.555 48.05-48.05 48.05h-28.727c-26.496 0-48.051-21.555-48.051-48.05zm22.598 57.665c7.79 3.452 16.397 5.385 25.452 5.385h28.727c9.05 0 17.654-1.931 25.441-5.38v25.546h-79.62zm-137.541 135.887v-15.582l73.749 11.783c.401.064.799.095 1.192.095 3.621 0 6.807-2.628 7.397-6.318.653-4.09-2.133-7.936-6.223-8.589l-73.639-11.766c-.177-.62 24.094-37.786 24.657-38.842 10.497-16.354 28.369-26.117 47.807-26.117l114.022.001-79.248 121.719-100.57-15.698c-5.299-.826-9.144-5.32-9.144-10.686zm238.831 67.645h-122.96v-25.118l53.69 8.38c4.125.595 9.176.933 15.584 0l53.687-8.383v25.121zm8.991-41.707-64.988 10.147c-3.637.566-7.327.566-10.962 0l-45.911-7.166 80.9-124.255 25.813-.001-11.074 24.375c-1.713 3.771-.045 8.217 3.726 9.931 2.72 1.398 7.639.509 9.931-3.726l13.894-30.58h21.565z"/><path d="m295.244 348.892c-3.771-1.715-8.218-.045-9.931 3.726l-10.796 23.762c-1.713 3.771-.045 8.217 3.726 9.931 2.72 1.398 7.639.509 9.931-3.726l10.796-23.762c1.713-3.772.045-8.218-3.726-9.931z"/><path d="m256.01 192.533c4.142 0 7.5-3.358 7.5-7.5v-36.781h8.969c4.142 0 7.5-3.358 7.5-7.5s-3.358-7.5-7.5-7.5h-16.469c-4.142 0-7.5 3.358-7.5 7.5v44.281c0 4.142 3.358 7.5 7.5 7.5z"/></g></g></svg>