<svg id="Capa_1" enable-background="new 0 0 511.718 511.718" viewBox="0 0 511.718 511.718" xmlns="http://www.w3.org/2000/svg"><g><g><path d="m463.909 291.008-93.851-46.333 76.996-70.897-104.002 11.763 26.444-101.27-81.133 66.123-32.504-99.489-20 196.15 20 129.413 59.217 86.302 3.158-104.617 96.475 40.586-53.903-89.717z" fill="#7f66ff"/><path d="m223.354 150.394-81.133-66.123 26.444 101.27-104.002-11.763 76.996 70.897-93.851 46.333 103.103 18.014-53.903 89.717 96.475-40.586 3.158 104.617 59.218-86.302v-325.563z" fill="#a079ff"/></g><g><g><path d="m206.093 241.837h30v30h-30z" fill="#404040"/></g><g><path d="m275.625 241.837h30v30h-30z" fill="#2b2b2b"/></g></g><g><path d="m511.718 297.881-115.417-56.979 94.687-87.188-127.899 14.465 32.52-124.54-99.777 81.317-39.973-122.35-10 62.99 10 33.61 25.035 76.626 62.489-50.928-20.366 77.998 80.102-9.059-59.303 54.605 72.285 35.686-79.411 13.875 41.517 69.101-74.307-31.26-2.431 80.576-45.61-66.469-10 28.409 10 24.615 72.825 106.132 3.884-128.657 118.645 49.913-66.29-110.333z" fill="#5f4dbf"/><path d="m255.858 349.956-45.609 66.471-2.434-80.577-74.304 31.259 41.516-69.1-79.41-13.875 72.284-35.686-59.302-54.605 80.102 9.059-20.366-77.998 62.489 50.928 25.034-76.627.001.001v-96.6l-.001-.001-39.973 122.351-99.777-81.317 32.521 124.54-127.901-14.465 94.689 87.188-115.417 56.979 126.795 22.155-66.29 110.333 118.644-49.913 3.885 128.657 72.824-106.133.001.001v-53.024z" fill="#7f66ff"/></g></g><g/><g/><g/><g/><g/><g/><g/><g/><g/><g/><g/><g/><g/><g/><g/></svg>