<svg id="Seagull" enable-background="new 0 0 64 64" viewBox="0 0 64 64" xmlns="http://www.w3.org/2000/svg"><g><g><path d="m25.60835 42.99846h17.90879c1.87295-5.56163 4.33746-12.33528 5.25753-13.65434 1.41306-2.01428 3.20388-3.17287 8.24792-7.96792 3.1053-2.95908 6.48989-7.80755 6.06269-9.21583-.19715-.58816-1.41296-.85559-8.80648 1.58649-8.82293 2.90555-11.46814 4.15336-12.94689 5.34763-3.63107 2.99467-11.46813 17.18375-15.72356 23.90397z" fill="#dedeea"/><path d="m46.43622 34.75225c-.95224 2.52775-1.99113 5.54034-2.92604 8.24129h-17.90254c2.71828-4.2938 6.9082-11.65217 10.50951-17.17529.55405 1.71405 1.73138 4.24191 4.24191 6.2676 2.02568 1.62751 4.20724 2.35466 6.07716 2.6664z" opacity=".1"/><path d="m43.9362 17.56229c5.80009.8137 8.65691 4.79586 8.7088 7.86044 1.12544-1.00423 2.52786-2.28544 4.38045-4.03415 3.09914-2.9606 6.49269-7.80845 6.05984-9.22819-.19043-.58872-1.40242-.84847-8.79545 1.59284-5.34992 1.76604-8.43183 2.9087-10.35364 3.80906z" fill="#3b3b44"/><g fill="#101016"><path d="m52.64421 26.31192c-.12154 0-.24309-.02431-.35769-.07467-.31776-.13978-.52612-.45233-.53133-.7996-.04688-2.85721-2.84592-6.28047-7.94218-6.99499-.39069-.0547-.69802-.35856-.75533-.74838-.05904-.38895.14585-.77008.50181-.93677 2.01593-.94459 5.14141-2.09494 10.45298-3.84781 7.16428-2.36755 8.48567-2.20173 9.22536-1.82233.34033.17103.57821.44798.69281.79873.68239 2.24079-3.83739 7.80067-6.29089 10.14478-1.86487 1.75982-3.27307 3.04734-4.40345 4.05531-.16667.14846-.37851.22573-.59209.22573zm-5.88283-8.97533c3.537 1.25714 5.76303 3.80353 6.50099 6.33343.88382-.80568 1.91696-1.76242 3.15326-2.9284 3.08207-2.94489 5.5946-6.84219 5.80817-8.09672-.60252-.03125-2.34063.19708-7.65394 1.95255-3.39635 1.12171-5.92799 2.00813-7.80848 2.73914z"/><path d="m43.51783 43.88665h-17.90985c-.32383 0-.62249-.17711-.77876-.46014-.15627-.28477-.14585-.63031.02778-.90466 1.11562-1.76068 2.47694-4.03707 3.94505-6.48883 4.29753-7.18078 9.1698-15.31918 11.96363-17.62421 1.55927-1.25887 4.12737-2.50733 13.23465-5.50692 7.90919-2.61325 9.45804-2.42919 9.9286-1.02273.6824 2.25121-3.83739 7.80154-6.29263 10.14044-1.90306 1.8093-3.34426 3.1029-4.47811 4.11955-1.82667 1.63827-2.83203 2.54119-3.65681 3.71585-.70844 1.01752-2.82335 6.53919-5.14141 13.42566-.12155.36289-.46014.60599-.84214.60599zm-16.30718-1.77805h15.66992c.98452-2.90322 3.97803-11.56947 5.16398-13.27199.94285-1.34396 2.00204-2.29462 3.92595-4.02058 1.12517-1.00883 2.55421-2.29115 4.43991-4.08396 3.08033-2.93621 5.59634-6.83177 5.81165-8.08891-.573-.0408-2.33369.18579-7.66436 1.94734-8.80516 2.89975-11.31249 4.10132-12.66686 5.1961-2.55074 2.10362-7.54803 10.45211-11.5634 17.15973-1.12082 1.87183-2.18088 3.64294-3.11679 5.16227z"/></g></g><g><path d="m51.897 41.57652c2.98618.02018 5.59716 1.04386 7.07761 2.20347.91368.71568 1.59066 1.92226 1.32869 2.46708-.27149.56458-1.28981.03125-2.79146-.30882-1.40108-.31727-3.32908-.40972-5.74966.48111.04494-1.61432.08988-3.22853.13482-4.84284z" fill="#ffdc6e"/><path d="m59.85712 47.37503c-.47577 0-1.00015-.15107-1.47071-.28477-.31776-.09203-.67719-.19447-1.07134-.28476-1.65129-.37506-3.41719-.22226-5.24559.44798-.27782.10418-.58516.06078-.82652-.11113-.23962-.1719-.37853-.45146-.36985-.74664l.13544-4.84275c.01389-.48271.40805-.86472.88903-.86472h.00521c3.39462.02257 6.1624 1.25019 7.62096 2.39273.99147.77789 2.13921 2.39272 1.5801 3.55089-.27088.56606-.72929.74317-1.24673.74317zm-4.35657-2.549c.74838 0 1.4846.08161 2.20694.24657.42888.0955.8213.20836 1.16858.30734.13718.03994.29345.08508.44278.12328-.17364-.2865-.46882-.69107-.89249-1.02272-1.10434-.86472-3.12548-1.78847-5.66579-1.97947l-.07467 2.69833c.95152-.24831 1.89264-.37333 2.81465-.37333z" fill="#101016"/></g><g><path d="m49.23533 49.2252c-3.70508 1.99113-7.37571 2.7875-13.97227 2.99525-8.46638.29441-17.45725-2.18145-19.98511-4.91706-3.89561.15577-9.10709-.05199-12.43131-2.44131-.43285-.31163-2.3201-1.90448-1.88725-3.09914.38096-1.09078 2.92604-.50206 7.58346-.53672 5.12493-.01733 11.10321-.96957 14.53131-1.93914-1.57551-4.51888-3.25501-8.91666-3.98216-9.93812-.88302-1.28121-1.93914-2.21622-3.86095-3.93027-1.12544-1.00423-2.52786-2.28544-4.38045-4.03415-3.09914-2.9606-6.49268-7.80845-6.05984-9.22819.19043-.58872 1.40242-.84847 8.79545 1.59284 5.34991 1.76604 8.43182 2.90871 10.35363 3.80906 1.24665.58861 2.00846 1.05612 2.59707 1.54085 2.7875 2.28544 8.03364 11.15011 12.24089 18.17952 5.40191-.12111 8.36261.32896 11.09811 1.6275 1.86992.88302 3.307 2.37209 3.37622 4.70942.05201 1.36775-.0692 3.48009-4.0168 5.60966z" fill="#f0f0fc"/><circle cx="47.533" cy="41.577" fill="#101016" r="1.188"/><path d="m23.93985 17.55825c-5.80009.8137-8.65691 4.79586-8.7088 7.86044-1.12544-1.00423-2.52786-2.28544-4.38045-4.03415-3.09914-2.9606-6.49268-7.80845-6.05984-9.22819.19043-.58872 1.40242-.84847 8.79545 1.59284 5.34992 1.76604 8.43183 2.90871 10.35364 3.80906z" fill="#3b3b44"/><path d="m37.84852 52.10064c-.8137.05199-1.66206.08655-2.57974.12121-8.46649.2943-17.45736-2.18156-19.98511-4.91707-3.89561.15577-9.10709-.05199-12.43131-2.44131-.43285-.31164-2.3201-1.90448-1.88725-3.09914.38085-1.09078 2.92604-.50217 7.58346-.53672 4.95173-.01733 10.93001-.90036 14.20235-1.83526-.19112 7.11086 9.34571 12.47533 15.0976 12.70829z" opacity=".1"/><g fill="#101016"><path d="m15.2314 26.30758c-.21444 0-.42541-.07727-.5921-.22573-1.13038-1.00883-2.53858-2.29462-4.39911-4.0501-2.45871-2.34932-6.97763-7.90919-6.30044-10.13436.11894-.36638.35856-.64333.69715-.81436.7423-.37679 2.06542-.54349 9.22797 1.82233 5.31071 1.75287 8.43705 2.90322 10.45211 3.84781.35682.16669.56085.54783.50268.93678-.05904.38895-.36637.69368-.75619.74838-5.09539.71539-7.8953 4.13778-7.94305 6.99499-.00608.34814-.21357.65982-.5322.7996-.1146.05035-.23615.07466-.35682.07466zm-9.58914-13.66615c.19274 1.20765 2.71656 5.13359 5.82207 8.10106 1.23283 1.1625 2.2651 2.11838 3.14979 2.92319.73883-2.52903 2.96399-5.07543 6.50186-6.33343-1.88136-.73101-4.41213-1.61743-7.80848-2.73913-5.34978-1.76589-7.09744-1.98641-7.66524-1.95169z"/><path d="m33.93998 53.13806c-7.71992 0-16.02588-2.14269-19.01939-4.93825-5.77866.17537-9.89387-.67545-12.58872-2.62366-.30039-.21878-2.9093-2.18089-2.21475-4.11521.49139-1.37 2.10883-1.30749 4.78372-1.19636 1.01491.03994 2.22603.0764 3.6351.08161 4.76722-.02778 10.04754-.84388 13.38572-1.66692-1.70165-4.78719-3.01608-8.05765-3.55263-8.826-.82304-1.17466-1.83014-2.07757-3.65767-3.71758-1.13299-1.01665-2.57331-2.30938-4.47377-4.11521-2.45524-2.33977-6.97676-7.88922-6.30044-10.11786.4775-1.42904 2.02375-1.61483 9.93554 1.00015 9.10903 2.99959 11.67626 4.24717 13.22771 5.50084 2.80164 2.31025 7.67131 10.44691 11.96884 17.62595l.21358.35596c5.16224-.08682 8.17659.38548 10.98257 1.71727 2.45871 1.17032 3.80093 3.06644 3.88427 5.48347v.00174c.06425 1.9378-.4202 4.21592-4.49374 6.41591-3.84781 2.07323-7.6088 2.88759-14.37025 3.11159-.44625.01388-.89424.02256-1.34569.02256zm-18.66344-6.7302c.2483 0 .48619.10418.65461.28824 2.2243 2.42051 10.97042 4.94346 19.29548 4.64133 6.45411-.21357 10.00847-.97237 13.5854-2.89975 3.65334-1.97078 3.5943-3.73668 3.55957-4.79066-.05904-1.73464-1.02446-3.05949-2.87023-3.9381-2.61845-1.24151-5.52862-1.6565-10.69608-1.53495-.32297-.02258-.61988-.15801-.7831-.43236l-.47924-.79873c-4.01276-6.70675-9.00919-15.05264-11.56774-17.16234-1.34743-1.08871-3.85389-2.28941-12.65905-5.18916-5.37321-1.77458-7.1148-1.97947-7.67912-1.94821.18927 1.19463 2.72003 5.12925 5.82641 8.08977 1.88397 1.7902 3.31214 3.07165 4.43557 4.07961 1.92564 1.72769 2.9857 2.67923 3.92768 4.02145.86645 1.24325 2.70441 6.21449 4.09351 10.16474.08161.23267.06338.48792-.05035.70671-.11373.21704-.31255.37853-.54956.44451-3.33211.92896-9.37643 1.943-14.77395 1.97426-1.43251.00174-2.67836-.04167-3.71758-.08335-1.31096-.05209-2.79556-.11286-3.08988.09377-.08769.31602.82131 1.40994 1.63567 2.00204 2.41964 1.74853 6.30391 2.50038 11.86639 2.27118z"/></g></g></g></svg>