<svg id="Capa_1" enable-background="new 0 0 511.723 511.723" viewBox="0 0 511.723 511.723" xmlns="http://www.w3.org/2000/svg"><g><path d="m192.994 224.168c-32.688 0-69.967-38.66-70.502-39.218-1.382.933-44.419 25.119-44.419 81.943 0 56.155 43.037 81.01 44.419 81.943.282-.299 37.909-39.218 70.502-39.218h15v-85.451h-15z" fill="#fddf02"/><g><path d="m427.213 158.784v-21.588l-12.87-4.311v-.006c-24.616 0-46.442-16.555-53.078-40.259l-18.147-64.823h-47.094l-19.398-27.797-20 157.53 20 194.128c22.777-19.961 52.354-51.388 52.354-95.898 0-19.563-5.435-38.216-17.281-58.437 3.868-1.84 38.229-38.539 115.514-38.539z" fill="#fdae02"/><path d="m338.174 417.474c-1.301-26.44-23.218-47.55-49.974-47.55v30c10.762 0 19.545 8.535 19.995 19.188-.033 1.311-.104 2.612-.215 3.902-1.478 9.602-7.922 14.883-18.326 16.504-2.575.401-8.277.255-13.027-.831l-10 31.033 10 36.15c33.275-12.329 61.547-43.014 61.547-88.396z" fill="#fdae02"/><path d="m267.54 1.244c-30.619 4.19-58.291 18.56-80.024 41.558-18.861 19.958-31.908 44.982-36.736 70.462-10.124 53.429 6.041 107.086 13.46 127.676 10.161 28.197 10.122 58.107-.125 94.126-2.029 7.135-4.203 13.009-6.305 18.69-5.29 14.296-10.286 27.799-10.286 53.46.055 24.898 10.303 50.789 28.118 71.034 18.719 21.272 43.629 33.473 68.344 33.473 11.473 0 22.462-2.083 32.639-5.854v-67.183c-12.69-2.902-29.214-11.988-29.214-39.633 0-16.844 6.595-27.715 28.228-46.529.326-.283.658-.577.986-.865v-351.659z" fill="#fdcb02"/></g><path d="m276.626 92.39h30v30h-30z" fill="#2b2b2b"/><path d="m433.488 132.885h-19.146c-24.616 0-33.187-.848-57.919 6.534-17.142 5.476-33.9 14.237-50.973 26.541-7.095 5.114-15.49 7.816-24.277 7.816-1.537 0-3.053-.09-4.548-.254l-10 11.428 10 18.663c1.372.087 2.752.145 4.145.153 23.395 0 38.685-9.92 42.22-12.467 26.74-19.27 51.075-27.863 78.905-27.863h31.756z" fill="#fd8c02"/><path d="m239.587 132.19h-30c0 37.944 29.679 69.068 67.039 71.424v-30.091c-20.798-2.274-37.039-19.94-37.039-41.333z" fill="#fdae02"/></g><g/><g/><g/><g/><g/><g/><g/><g/><g/><g/><g/><g/><g/><g/><g/></svg>