<svg id="Capa_1" enable-background="new 0 0 512 512" viewBox="0 0 512 512" xmlns="http://www.w3.org/2000/svg"><g><g><path d="m456.052 46.092-11.074-12.888c-18.131-21.101-44.486-33.204-72.308-33.204-25.469 0-49.413 9.919-67.42 27.932-18.007 18.012-27.92 41.958-27.914 67.428l.018 55.117v-55.117 55.117l-20 86.612 20 98.933h51.744.4c34.783 0 67.441-13.566 91.996-38.226 24.648-24.755 38.084-57.626 37.83-92.492l-.126-46.02c31.586-13.66 52.798-45.18 52.798-80.256v-23.415z" fill="#848484"/><path d="m232.349 150.478c-104.945 0-190.324 85.379-190.324 190.325v104.632h93.315v-51.301c0-32.042 26.068-58.111 58.11-58.111h83.903v-185.545z" fill="#9b9b9b"/></g><path d="m110.757 393.139h-44.149c-36.726 0-66.604 29.878-66.604 66.604v52.257h52.258c13.13 0 25.686-3.778 36.421-10.817 10.734 7.039 23.291 10.817 36.421 10.817h52.257v-52.257c0-36.725-29.878-66.604-66.604-66.604z" fill="#848484"/><g><path d="m356.004 82.299h30v30h-30z" fill="#2b2b2b"/></g><path d="m179.464 278.135v108.86h29.288c37.828 0 68.602-30.775 68.602-68.602v-40.258z" fill="#9b9b9b"/></g><g/><g/><g/><g/><g/><g/><g/><g/><g/><g/><g/><g/><g/><g/><g/></svg>