<svg id="Fill" viewBox="0 0 64 64" xmlns="http://www.w3.org/2000/svg"><g><path d="m48.292 51.909v3.76c0 1.1-.9 2-2 2h-10.76c-1.11 0-2-.9-2-2v-3.76z" fill="#8d6539"/><path d="m33.532 41.609h14.76v10.3h-14.76z" fill="#fec11c"/><path d="m48.292 35.119v6.49h-14.76v-6.49c0-1.9 1.32-3.49 3.1-3.9.29-.06.59-.1.9-.1h6.76c.31 0 .61.04.9.1 1.78.41 3.1 2 3.1 3.9z" fill="#8d6539"/><g fill="#35505d"><path d="m45.222 27.689v3.43l-.03.1c-.29-.06-.59-.1-.9-.1h-6.76c-.31 0-.61.04-.9.1l-.03-.1v-3.43z"/><path d="m36.602 24.249h8.62v3.44h-8.62z"/><path d="m38.722 7.149c2.54 1.99.73 4.13.73 4.13l-3.84 3.97c-1-.78-3.01-2.36-4.01-3.14l2.94-4.68s1.64-2.27 4.18-.28z"/></g><path d="m36.672 16.079c.43.34.51.97.17 1.41l-1.1 1.4c-.34.43-.97.51-1.4.17l-.96-.75-4.21-3.3-.96-.75c-.44-.34-.51-.97-.17-1.4l1.1-1.41c.34-.43.96-.51 1.4-.17l1.06.83c1 .78 3.01 2.36 4.01 3.14z" fill="#596570"/><path d="m29.172 15.009 4.21 3.3-13.95 15.17c-.37.4-.99.45-1.42.11s-.53-.95-.23-1.41z" fill="#cddce4"/><path d="m18.012 38.119s3.81 3.86 1.63 6.11c-.87.9-2.4.9-3.26 0-2.18-2.25 1.63-6.11 1.63-6.11z" fill="#f89826"/></g><g><path d="m17.392 34.373c.371.294.819.438 1.267.438.556 0 1.108-.223 1.51-.656l13.326-14.491.228.178c.354.28.781.427 1.227.427.083 0 .166-.005.249-.015.527-.065 1-.33 1.33-.748l1.105-1.407c.671-.868.518-2.127-.345-2.809l-.186-.146 3.113-3.221c.103-.122.999-1.231.844-2.749-.108-1.059-.687-2.005-1.721-2.815-1.033-.81-2.093-1.146-3.145-.997-1.509.213-2.369 1.35-2.498 1.532l-2.35 3.741-.192-.15c-.863-.668-2.118-.516-2.8.346l-1.096 1.404c-.333.421-.481.947-.416 1.48.064.531.334 1.005.755 1.33l.23.18-10.884 16.405c-.585.897-.393 2.075.448 2.74zm17.961-26.359c.004-.005.452-.575 1.121-.669.484-.069 1.043.129 1.631.59.583.457.907.937.963 1.428.075.663-.345 1.223-.338 1.223s-3.211 3.319-3.211 3.319l-2.591-2.029 2.425-3.863zm-5.427 4.052 1.06.83s0 0 0 0l4.01 3.14s0 0 0 0l1.059.833-1.099 1.4-6.127-4.797 1.096-1.407zm-.52 4.397 2.508 1.964-13.219 14.374.736.677-.817-.747z"/><path d="m46.222 30.503v-6.255c0-.552-.447-1-1-1h-8.62c-.553 0-1 .448-1 1v6.255c-1.843.764-3.07 2.558-3.07 4.616v20.55c0 1.654 1.346 3 3 3h10.761c1.654 0 3-1.346 3-3v-20.55c0-2.057-1.228-3.852-3.07-4.616zm-11.69 12.105h12.761v8.3h-12.761zm3.07-13.92h6.62v1.43h-6.62zm6.62-3.44v1.44h-6.62v-1.44zm-7.387 6.949c.258-.053.485-.079.696-.079h6.761c.208 0 .433.025.686.077 1.363.318 2.314 1.519 2.314 2.923v5.49h-12.761v-5.49c0-1.407.956-2.61 2.304-2.921zm9.457 24.471h-10.761c-.552 0-1-.449-1-1v-2.76h12.761v2.76c0 .551-.448 1-1 1z"/><path d="m18.012 37.119c-.268 0-.523.107-.712.297-1.67 1.692-3.895 5.178-1.642 7.503.595.623 1.447.982 2.339.984h.011c.893 0 1.75-.356 2.352-.979 2.258-2.331.034-5.816-1.636-7.508-.188-.19-.444-.297-.712-.297zm.912 6.414s0 0 0 0c-.228.235-.561.37-.915.37-.344.043-.681-.133-.908-.371-.968-.999.11-2.796.914-3.859.805 1.061 1.883 2.855.91 3.859z"/></g></svg>