<svg id="Layer_1" viewBox="0 0 1000 1000" xmlns="http://www.w3.org/2000/svg" data-name="Layer 1"><path d="m422.69 837-79.59-79.56-.47-.47-5.5-5.5-34.89 34.88 91 91 34.88-34.88zm-20.42 16a16 16 0 0 1 -22.63 0l-15.26-15.27a16 16 0 0 1 22.62-22.64l15.26 15.26a16 16 0 0 1 .01 22.65z" fill="#039be5"/><path d="m597.69 591.48a540.8 540.8 0 0 1 -52.48 95.89 191 191 0 0 1 -22.28 26.79l-88.93 88.93-62.3-62.3 1.56-7.29a357.29 357.29 0 0 1 21-66 92.37 92.37 0 0 0 7.52-36.61 190.87 190.87 0 0 0 -4.12-39.41h17.81l5 28.59a92.53 92.53 0 0 0 46.53 65.26l.26.13a.05.05 0 0 0 .05 0 7.29 7.29 0 0 0 .74.37 13.62 13.62 0 0 0 1.6.63 4.44 4.44 0 0 0 .62.19 1.4 1.4 0 0 0 .35.1l.48.13.37.08c.21 0 .43.09.65.12a6.32 6.32 0 0 0 .76.11l.84.08h.05.91.08.83.39c.31 0 .63 0 .94-.1l.89-.15a.87.87 0 0 0 .22 0c.29-.05.57-.12.86-.2s.49-.13.73-.21l.23-.07h.05c5.51-1.77 43-14.14 60.19-27.52l.46-.35a112.94 112.94 0 0 0 41-67.13z" fill="#ffab91"/><path d="m778.08 474.06-46.68 39.28c-8.69 7.32-17.28 14.89-25.59 22.21l-3.76 3.31c-4.93 4.34-16.38 12.35-37.65 17.25a138.09 138.09 0 0 1 -31 3.37h-266.78a138.09 138.09 0 0 1 -31-3.37c-21.27-4.9-32.72-12.91-37.65-17.25l-3.8-3.35c-8.3-7.31-16.88-14.87-25.56-22.18l-46.67-39.27z" fill="#bdbdbd"/><path d="m753.76 442.06h-507.52c13.29-136.9 121.85-241.84 253.76-241.85 131.9 0 240.47 104.95 253.76 241.85z" fill="#fbc02d"/><g fill="#fff" opacity=".5"><path d="m412.69 847-79.59-79.56-.47-.47-5.5-5.5-34.89 34.88 91 91 34.88-34.88zm-20.42 16a16 16 0 0 1 -22.63 0l-15.26-15.27a16 16 0 0 1 22.62-22.64l15.26 15.26a16 16 0 0 1 .01 22.65z"/><path d="m587.69 601.48a540.8 540.8 0 0 1 -52.48 95.89 191 191 0 0 1 -22.28 26.79l-88.93 88.93-62.3-62.3 1.56-7.29a357.29 357.29 0 0 1 21-66 92.37 92.37 0 0 0 7.52-36.61 190.87 190.87 0 0 0 -4.12-39.41h17.81l5 28.59a92.53 92.53 0 0 0 46.53 65.26l.26.13a.05.05 0 0 0 .05 0 7.29 7.29 0 0 0 .74.37 13.62 13.62 0 0 0 1.6.63 4.44 4.44 0 0 0 .62.19 1.4 1.4 0 0 0 .35.1l.48.13.37.08c.21 0 .43.09.65.12a6.32 6.32 0 0 0 .76.11l.84.08h.05.91.08.83.39c.31 0 .63 0 .94-.1l.89-.15a.87.87 0 0 0 .22 0c.29-.05.57-.12.86-.2s.49-.13.73-.21l.23-.07h.05c5.51-1.77 43-14.14 60.19-27.52l.46-.35a112.94 112.94 0 0 0 41-67.13z"/><path d="m768.08 484.06-46.68 39.28c-8.69 7.32-17.28 14.89-25.59 22.21l-3.76 3.31c-4.93 4.34-16.38 12.35-37.65 17.25a138.09 138.09 0 0 1 -31 3.37h-266.78a138.09 138.09 0 0 1 -31-3.37c-21.27-4.9-32.72-12.91-37.65-17.25l-3.8-3.35c-8.3-7.31-16.88-14.87-25.56-22.18l-46.67-39.27z"/><path d="m743.76 452.06h-507.52c13.29-136.9 121.85-241.84 253.76-241.85 131.9 0 240.47 104.95 253.76 241.85z"/></g><g fill="#413b32"><path d="m786.86 457.43a16 16 0 0 1 -15.35 16.62h-.64a16 16 0 0 1 -16-15.36c0-.72-.06-1.44-.1-2.16 0-.51 0-1-.07-1.53q-.06-1.31-.15-2.61c0-.24 0-.48-.05-.72 0-.86-.11-1.72-.17-2.58 0-.38-.05-.75-.09-1.12v-.4c-.05-.79-.12-1.58-.19-2.38-.09-1.05-.18-2.09-.28-3.14-13.3-136.89-121.87-241.84-253.77-241.84-131.9 0-240.46 105-253.75 241.85-.1 1.05-.2 2.09-.28 3.14-.07.8-.14 1.59-.19 2.38v.4c0 .37-.07.74-.09 1.12-.06.86-.12 1.72-.17 2.58v.72q-.09 1.31-.15 2.61c0 .51-.05 1-.07 1.53 0 .72-.07 1.44-.1 2.16a16 16 0 0 1 -16 15.36h-.64a16 16 0 0 1 -15.35-16.62q.3-7.73 1-15.37c6.31-72 36.73-138.69 86.61-189.28 41.74-42.33 93.72-69.9 149.85-80.12a276.08 276.08 0 0 1 49.33-4.46 275 275 0 0 1 49.39 4.45c56.13 10.21 108.13 37.78 149.88 80.12 49.87 50.59 80.29 117.31 86.6 189.28q.69 7.65.99 15.37z"/><path d="m462.09 831.18-90.39-90.39-23.26-23.27a15.68 15.68 0 0 0 -3.7-2.75 16 16 0 0 0 -18.93 2.75l-57.51 57.48a16 16 0 0 0 0 22.62l113.7 113.69a16 16 0 0 0 22.63 0l57.51-57.51a16 16 0 0 0 -.05-22.62zm-68.82 46.19-91-91 34.89-34.88 5.5 5.5.47.47 79.56 79.54 5.46 5.46z"/><path d="m402.27 853a16 16 0 0 1 -22.63 0l-15.26-15.27a16 16 0 0 1 22.62-22.64l15.26 15.26a16 16 0 0 1 .01 22.65z"/><path d="m636.25 581.06q-1.95 5.24-4 10.42a573 573 0 0 1 -60.67 114 223.37 223.37 0 0 1 -26 31.3l-100.26 100.22a16 16 0 0 1 -22.63-22.63l100.24-100.21a191 191 0 0 0 22.28-26.79 540.8 540.8 0 0 0 52.48-95.89h-16.13a112.94 112.94 0 0 1 -41 67.13l-.46.35c-17.2 13.38-54.68 25.75-60.19 27.52h-.05l-.23.07c-.24.08-.49.15-.73.21s-.57.15-.86.2a.87.87 0 0 1 -.22 0l-.89.15c-.31.05-.63.08-.94.1h-.39-.83-.08c-.3 0-.61 0-.91 0h-.05l-.84-.08a6.32 6.32 0 0 1 -.76-.11c-.22 0-.44-.07-.65-.12l-.37-.08-.48-.13a1.4 1.4 0 0 1 -.35-.1c-.21 0-.41-.12-.62-.19a13.62 13.62 0 0 1 -1.6-.63l-.74-.37a.05.05 0 0 1 -.05 0 15.78 15.78 0 0 1 -4.76-3.84 16 16 0 0 1 -1.92-17.72c.1-.2 3.5-6.7 8.53-16.57 7.36-14.47 18.2-36.17 27.22-55.85 3.6-7.86 6.91-15.39 9.59-22a16 16 0 0 1 14.24-10h1a15.79 15.79 0 0 1 5.62 1.17 16 16 0 0 1 8.83 20.83c-1.28 3.17-2.69 6.52-4.2 10-6.78 15.64-15.48 33.77-23.24 49.44a75.12 75.12 0 0 0 12.32-7.22l.32-.26a80.71 80.71 0 0 0 27.9-42 83.35 83.35 0 0 0 2.21-10.3l1.21-8.08a16 16 0 0 1 15.82-13.62h53.34a16 16 0 0 1 15 21.58z"/><path d="m488.74 679.07a16 16 0 0 1 -8.85 7.41h-.05l-.23.07c-.24.08-.49.15-.73.21s-.57.15-.86.2a.87.87 0 0 1 -.22 0l-.89.15c-.31.05-.63.08-.94.1h-.39-.83-.08c-.3 0-.61 0-.91 0h-.05l-.84-.08a6.32 6.32 0 0 1 -.76-.11c-.22 0-.44-.07-.65-.12l-.37-.08-.48-.13a1.4 1.4 0 0 1 -.35-.1c-.21 0-.41-.12-.62-.19a13.62 13.62 0 0 1 -1.6-.63l-.74-.37a.05.05 0 0 1 -.05 0l-.26-.13a92.53 92.53 0 0 1 -46.54-65.26l-5-28.59h-17.83a190.87 190.87 0 0 1 4.12 39.41 92.37 92.37 0 0 1 -7.52 36.61 357.29 357.29 0 0 0 -21 66l-1.56 7.29-1.81 8.5a16 16 0 0 1 -19 12.31 15.83 15.83 0 0 1 -7.8-4.16l-.47-.47a16 16 0 0 1 -4-14.35l3.37-15.8q1.29-6 2.78-12.05a388.83 388.83 0 0 1 20.07-59.88 60.57 60.57 0 0 0 4.93-24 158.64 158.64 0 0 0 -5-39.42c-.47-1.87-1-3.74-1.53-5.59l-1.71-5.82a16 16 0 0 1 15.34-20.53h52a16 16 0 0 1 15.76 13.23l3.29 18.77 4.12 23.07a60.72 60.72 0 0 0 30.51 42.79 16 16 0 0 1 6.23 21.74z"/><path d="m754.89 458.7c0-.72-.06-1.44-.1-2.16 0-.51 0-1-.07-1.53q-.06-1.31-.15-2.61c0-.24 0-.48-.05-.72 0-.86-.11-1.72-.17-2.58 0-.38-.05-.75-.09-1.12v-.4c-.05-.79-.12-1.58-.19-2.38-.09-1.05-.18-2.09-.28-3.14h-507.55c-.1 1.05-.19 2.09-.28 3.14-.07.8-.14 1.59-.19 2.38v.4c0 .37-.07.74-.09 1.12-.06.86-.12 1.72-.17 2.58v.72q-.09 1.31-.15 2.61c0 .51-.05 1-.07 1.53 0 .72-.07 1.44-.1 2.16a16 16 0 0 1 -16 15.36h541.68a16 16 0 0 1 -15.98-15.36zm-326 100.78a16 16 0 0 1 15.76 13.23l3.29 18.77h48.4c3.6-7.86 6.91-15.39 9.59-22a16 16 0 0 1 14.24-10zm408.11-106.9a16 16 0 0 0 -15-10.52h-644a16 16 0 0 0 -10.3 28.25l80.3 67.51c8.4 7.07 16.85 14.51 25 21.7l3.81 3.36c8.79 7.74 24.88 18.26 51.61 24.42a169.57 169.57 0 0 0 36.34 4.17h268.62a170.71 170.71 0 0 0 38.2-4.18c26.73-6.16 42.82-16.68 51.61-24.42l3.78-3.32c8.17-7.21 16.63-14.65 25-21.73l80.25-67.52a16 16 0 0 0 4.78-17.72zm-105.6 60.76c-8.69 7.32-17.28 14.89-25.59 22.21l-3.76 3.31c-4.93 4.34-16.38 12.35-37.65 17.25a138.09 138.09 0 0 1 -31 3.37h-266.78a138.09 138.09 0 0 1 -31-3.37c-21.27-4.9-32.72-12.91-37.65-17.25l-3.8-3.35c-8.3-7.31-16.88-14.87-25.56-22.18l-46.67-39.27h556.14zm-302.53 46.14a16 16 0 0 1 15.76 13.23l3.29 18.77h48.4c3.6-7.86 6.91-15.39 9.59-22a16 16 0 0 1 14.24-10zm326-100.78c0-.72-.06-1.44-.1-2.16 0-.51 0-1-.07-1.53q-.06-1.31-.15-2.61c0-.24 0-.48-.05-.72 0-.86-.11-1.72-.17-2.58 0-.38-.05-.75-.09-1.12v-.4c-.05-.79-.12-1.58-.19-2.38-.09-1.05-.18-2.09-.28-3.14h-507.53c-.1 1.05-.19 2.09-.28 3.14-.07.8-.14 1.59-.19 2.38v.4c0 .37-.07.74-.09 1.12-.06.86-.12 1.72-.17 2.58v.72q-.09 1.31-.15 2.61c0 .51-.05 1-.07 1.53 0 .72-.07 1.44-.1 2.16a16 16 0 0 1 -16 15.36h541.68a16 16 0 0 1 -15.98-15.36z"/><path d="m500 84a58.11 58.11 0 0 0 0 116.21 58.11 58.11 0 0 0 0-116.21zm0 84.21a26.11 26.11 0 1 1 26.11-26.1 26.13 26.13 0 0 1 -26.11 26.1z"/></g></svg>