<svg id="Layer_1" viewBox="0 0 1000 1000" xmlns="http://www.w3.org/2000/svg" data-name="Layer 1"><path d="m870.1 692.45-281.37-487.35a102.45 102.45 0 0 0 -177.46 0l-281.37 487.35a102.46 102.46 0 0 0 88.73 153.68h562.74a102.46 102.46 0 0 0 88.73-153.68zm-140.8 21.16a90.12 90.12 0 0 1 -78.84 45.52h-300.92a91 91 0 0 1 -78.84-136.55l150.46-260.58a91 91 0 0 1 157.68 0l150.46 260.58a90.12 90.12 0 0 1 0 91.03z" fill="#ef5350"/><path d="m701.59 697.61a58.45 58.45 0 0 1 -51.13 29.52h-300.92a59 59 0 0 1 -51.13-88.55l150.47-260.58a59 59 0 0 1 102.24 0l150.47 260.58a58.43 58.43 0 0 1 0 59.03z" fill="#d32f2f"/><g fill="#fff" opacity=".5"><path d="m860.1 702.45-281.37-487.35a102.45 102.45 0 0 0 -177.46 0l-281.37 487.35a102.46 102.46 0 0 0 88.73 153.68h562.74a102.46 102.46 0 0 0 88.73-153.68zm-140.8 21.16a90.12 90.12 0 0 1 -78.84 45.52h-300.92a91 91 0 0 1 -78.84-136.55l150.46-260.58a91 91 0 0 1 157.68 0l150.46 260.58a90.12 90.12 0 0 1 0 91.03z"/><path d="m691.59 707.61a58.45 58.45 0 0 1 -51.13 29.52h-300.92a59 59 0 0 1 -51.13-88.55l150.47-260.58a59 59 0 0 1 102.24 0l150.47 260.58a58.43 58.43 0 0 1 0 59.03z"/></g><g fill="#413b32"><path d="m897.81 676.45-281.37-487.35a134.45 134.45 0 0 0 -232.88 0l-281.37 487.35a134.46 134.46 0 0 0 116.44 201.68h562.74a134.46 134.46 0 0 0 116.44-201.68zm-27.71 118.45a101.41 101.41 0 0 1 -88.73 51.23h-562.74a102.46 102.46 0 0 1 -88.73-153.68l281.37-487.35a102.45 102.45 0 0 1 177.46 0l281.37 487.35a101.4 101.4 0 0 1 0 102.45z"/><path d="m897.81 676.45-281.37-487.35a134.45 134.45 0 0 0 -232.88 0l-281.37 487.35a134.46 134.46 0 0 0 116.44 201.68h562.74a134.46 134.46 0 0 0 116.44-201.68zm-27.71 118.45a101.41 101.41 0 0 1 -88.73 51.23h-562.74a102.46 102.46 0 0 1 -88.73-153.68l281.37-487.35a102.45 102.45 0 0 1 177.46 0l281.37 487.35a101.4 101.4 0 0 1 0 102.45z"/><path d="m729.3 622.58-150.46-260.58a91 91 0 0 0 -157.68 0l-150.46 260.58a91 91 0 0 0 78.84 136.55h300.92a91 91 0 0 0 78.84-136.55zm-27.71 75a58.45 58.45 0 0 1 -51.13 29.52h-300.92a59 59 0 0 1 -51.13-88.55l150.47-260.55a59 59 0 0 1 102.24 0l150.47 260.58a58.43 58.43 0 0 1 0 59.03z"/></g></svg>