<svg id="Layer_1" enable-background="new 0 0 512 512" height="512" viewBox="0 0 512 512" width="512" xmlns="http://www.w3.org/2000/svg"><g><path d="m364.98 256c0 37.28-2.19 73.05-6.221 106.29-1.54 12.72-3.35 25.08-5.41 37-5.159 29.88-11.88 57.07-19.859 80.64h-154.98c-7.98-23.569-14.7-50.76-19.86-80.64-2.06-11.92-3.87-24.28-5.409-37-4.03-33.24-6.221-69.01-6.221-106.29 0-33.72 1.79-66.21 5.12-96.71.51-4.72 1.061-9.38 1.65-14 3.069-24.18 7.109-46.979 12-67.979.81-3.471 1.63-6.891 2.489-10.261 3.12-12.38 6.54-24.069 10.23-34.979h154.98c3.689 10.91 7.109 22.6 10.229 34.979.86 3.37 1.681 6.79 2.49 10.261 4.89 21 8.93 43.8 12 67.979.59 4.62 1.14 9.28 1.65 14 3.332 30.5 5.122 62.99 5.122 96.71z" fill="#66bc6a"/><path d="m333.49 487.93h-154.98c-3.43 0-6.478-2.186-7.577-5.435-8.169-24.127-14.955-51.663-20.167-81.844-2.087-12.077-3.926-24.66-5.468-37.4-4.167-34.36-6.279-70.445-6.279-107.251 0-33.344 1.739-66.174 5.167-97.578.503-4.663 1.065-9.425 1.667-14.145 3.08-24.262 7.166-47.405 12.144-68.781.944-4.049 1.748-7.36 2.529-10.423 3.152-12.508 6.655-24.481 10.404-35.566 1.099-3.25 4.148-5.437 7.578-5.437h154.98c3.431 0 6.479 2.188 7.578 5.437 3.75 11.089 7.252 23.063 10.409 35.587.773 3.03 1.577 6.342 2.523 10.398 4.978 21.379 9.063 44.522 12.146 68.789.595 4.664 1.156 9.426 1.667 14.147 3.429 31.396 5.167 64.227 5.167 97.571 0 36.806-2.112 72.891-6.279 107.253-1.545 12.764-3.385 25.348-5.469 37.399-5.209 30.172-11.994 57.708-20.165 81.843-1.097 3.249-4.145 5.436-7.575 5.436zm-149.199-16h143.418c7.11-22.034 13.077-46.896 17.757-74.001 2.038-11.788 3.839-24.102 5.352-36.601 4.09-33.727 6.163-69.164 6.163-105.328 0-32.766-1.707-65.012-5.073-95.842-.5-4.627-1.05-9.287-1.633-13.855-3.014-23.732-7.002-46.333-11.856-67.178-.919-3.943-1.698-7.152-2.449-10.096-2.549-10.11-5.319-19.82-8.263-28.958h-143.414c-2.943 9.135-5.713 18.842-8.257 28.935-.759 2.976-1.537 6.186-2.456 10.123-4.854 20.843-8.843 43.442-11.854 67.169-.59 4.624-1.14 9.282-1.633 13.852-3.367 30.839-5.074 63.085-5.074 95.851 0 36.164 2.073 71.602 6.163 105.327 1.509 12.475 3.31 24.788 5.351 36.601 4.682 27.112 10.649 51.973 17.758 74.001z"/></g><g><path d="m343.72 67.05h-175.44c3.12-12.38 6.54-24.069 10.229-34.979h154.98c3.691 10.909 7.111 22.599 10.231 34.979z" fill="#cedd36"/><path d="m343.739 75.05c-.005 0-.013.001-.02 0h-175.439c-2.466 0-4.794-1.137-6.311-3.083-1.516-1.945-2.049-4.481-1.447-6.873 3.157-12.525 6.659-24.499 10.408-35.587 1.099-3.25 4.148-5.437 7.579-5.437h154.98c3.431 0 6.479 2.188 7.578 5.437 3.693 10.921 7.146 22.7 10.265 35.019.264.793.406 1.642.406 2.524.001 4.418-3.58 8-7.999 8zm-165.085-16h154.691c-1.792-6.542-3.678-12.888-5.64-18.979h-143.411c-1.962 6.091-3.848 12.436-5.64 18.979z"/></g><g><path d="m364.98 256c0 37.28-2.19 73.05-6.221 106.29-1.54 12.72-3.35 25.08-5.41 37h-194.7c-2.06-11.92-3.87-24.28-5.409-37-4.03-33.24-6.221-69.01-6.221-106.29 0-33.72 1.79-66.21 5.12-96.71h207.721c3.33 30.5 5.12 62.99 5.12 96.71z" fill="#cedd36"/><path d="m353.35 407.29h-194.7c-3.893 0-7.22-2.802-7.883-6.638-2.087-12.078-3.926-24.662-5.468-37.401-4.167-34.36-6.279-70.445-6.279-107.251 0-33.344 1.739-66.174 5.167-97.578.443-4.058 3.871-7.132 7.953-7.132h207.72c4.082 0 7.51 3.074 7.953 7.132 3.429 31.404 5.167 64.234 5.167 97.578 0 36.806-2.112 72.891-6.279 107.253-1.545 12.763-3.385 25.347-5.469 37.399-.663 3.836-3.99 6.638-7.882 6.638zm-187.931-16h181.161c1.585-9.742 3.007-19.792 4.237-29.962 4.09-33.727 6.163-69.164 6.163-105.328 0-30.249-1.454-60.053-4.326-88.71h-193.308c-2.872 28.657-4.326 58.461-4.326 88.71 0 36.164 2.073 71.602 6.163 105.327 1.228 10.155 2.65 20.204 4.236 29.963z"/></g><g><path d="m294.034 305.624c0 49.658-76.068 49.658-76.068 0 0-49.656 38.034-89.912 38.034-89.912s38.034 40.256 38.034 89.912z" fill="#4caf4e"/><path d="m256 350.868c-22.876 0-46.034-15.541-46.034-45.244 0-52.237 38.577-93.668 40.219-95.406 1.511-1.6 3.614-2.506 5.815-2.506 2.2 0 4.304.906 5.815 2.506 1.642 1.738 40.219 43.169 40.219 95.406 0 29.703-23.158 45.244-46.034 45.244zm.01-122.679c-10.149 13.106-30.044 43.17-30.044 77.435 0 20.201 15.084 29.244 30.034 29.244 14.949 0 30.034-9.043 30.034-29.244 0-34.376-19.869-64.358-30.024-77.435z"/></g><g><path d="m312.651 67.05s-25.387 24.907-56.651 24.907-56.651-24.907-56.651-24.907z" fill="#4caf4e"/><path d="m256 99.957c-34.14 0-61.122-26.086-62.254-27.197-2.32-2.275-3.032-5.729-1.803-8.736 1.229-3.008 4.156-4.974 7.406-4.974h113.303c3.25 0 6.177 1.966 7.405 4.974 1.229 3.008.517 6.461-1.803 8.737-1.132 1.11-28.112 27.196-62.254 27.196zm-31.706-24.907c8.784 4.75 19.856 8.907 31.706 8.907 11.926 0 23.008-4.157 31.779-8.907z"/></g></svg>