<svg height="512" viewBox="0 0 128 128" width="512" xmlns="http://www.w3.org/2000/svg"><g><path d="m83.894 6.307s10.825 24.802 10.825 57.693-10.825 57.693-10.825 57.693h-39.788s-10.825-24.802-10.825-57.693 10.825-57.693 10.825-57.693z" fill="#e6f2ff"/><path d="m91.09 30.37h-54.18a137.529 137.529 0 0 1 7.2-24.06h39.79a137.073 137.073 0 0 1 7.19 24.06z" fill="#ffdd70"/><path d="m76.21 6.307-1.785 10.438h-20.85l-1.785-10.438z" fill="#f8c045"/><ellipse cx="64" cy="76.031" fill="#ffdd70" rx="17.025" ry="22.165"/><g><path d="m90.255 101.424a1.753 1.753 0 0 0 -2.12 1.275 138.318 138.318 0 0 1 -5.413 17.244h-37.442a160.638 160.638 0 0 1 -10.249-55.943 157.746 157.746 0 0 1 1.9-24.165 1.75 1.75 0 1 0 -3.458-.537 159.987 159.987 0 0 0 9.026 83.1 1.75 1.75 0 0 0 1.6 1.049h39.801a1.75 1.75 0 0 0 1.6-1.049 129.194 129.194 0 0 0 6.033-18.849 1.749 1.749 0 0 0 -1.278-2.125z"/><path d="m92.879 87.943a1.749 1.749 0 0 0 -2.008 1.447q-.364 2.23-.769 4.341a1.749 1.749 0 0 0 1.392 2.047 1.675 1.675 0 0 0 .329.032 1.753 1.753 0 0 0 1.718-1.422q.409-2.156.784-4.436a1.752 1.752 0 0 0 -1.446-2.009z"/><path d="m92.848 30.286a1.781 1.781 0 0 0 -.119-.558 142.023 142.023 0 0 0 -7.229-24.122 1.75 1.75 0 0 0 -1.6-1.049h-39.795a1.75 1.75 0 0 0 -1.6 1.049 138.337 138.337 0 0 0 -7.317 24.394 1.75 1.75 0 0 0 1.712 2.119h52.764a159.977 159.977 0 0 1 3.305 31.881 154.94 154.94 0 0 1 -.833 15.909 1.75 1.75 0 0 0 1.564 1.921 1.6 1.6 0 0 0 .182.01 1.751 1.751 0 0 0 1.739-1.569 158.6 158.6 0 0 0 .848-16.271 163.684 163.684 0 0 0 -3.621-33.714zm-18.713-22.229-1.186 6.943h-17.9l-1.184-6.943zm-35.059 20.562a143.117 143.117 0 0 1 6.2-20.562h5.035l1.539 8.983a1.75 1.75 0 0 0 1.725 1.46h20.85a1.75 1.75 0 0 0 1.725-1.46l1.536-8.983h5.035a143.961 143.961 0 0 1 6.187 20.562z"/><path d="m64 99.946c10.353 0 18.775-10.728 18.775-23.915s-8.422-23.915-18.775-23.915-18.775 10.729-18.775 23.915 8.422 23.915 18.775 23.915zm0-44.33c8.423 0 15.275 9.158 15.275 20.415s-6.852 20.415-15.275 20.415-15.275-9.158-15.275-20.415 6.852-20.415 15.275-20.415z"/></g></g></svg>