<svg id="Shaved_Ice" enable-background="new 0 0 64 64" viewBox="0 0 64 64" xmlns="http://www.w3.org/2000/svg"><g><g><path d="m41.12131 24.26359-2.85608-1.79693 10.86209-19.9488c.86173-1.58262 2.8804-2.10948 4.40565-1.14986 1.52525.95962 1.92403 3.00744.87032 4.46928z" fill="#b9b9c5"/><path d="m48.24899 14.37118-7.13108 9.89907-2.85975-1.79647 7.03933-12.94221c.05505.38501.16504.78825.29337 1.20996.54993 1.61309 1.5765 2.78635 2.65813 3.62965z" opacity=".1"/><path d="m41.12089 25.15293c-.16322 0-.32643-.04428-.47402-.1363l-2.85628-1.79711c-.39589-.25003-.53132-.76572-.30733-1.1781l10.86253-19.94879c.52785-.96888 1.4429-1.68425 2.51075-1.96293 1.06784-.27955 2.21556-.10244 3.14972.48531.93415.58862 1.59048 1.54708 1.80232 2.63055.21009 1.08261-.0382 2.21643-.68412 3.11152l-13.28299 18.42687c-.1719.23962-.4445.36898-.72058.36898zm-1.67556-2.99432 1.44289.9081 12.79507-17.7497c.36463-.50527.49833-1.12081.38026-1.732-.1198-.61206-.47575-1.13209-1.00534-1.4646-.52611-.33164-1.14772-.43061-1.75196-.27087-.60425.15801-1.10084.54608-1.39775 1.09303z" fill="#101016"/></g><g><path d="m50.39336 32.5094c0-1.29128-.42456-2.47698-1.13895-3.43705-.77483-1.04136-1.08356-2.34485-.70665-3.58685.15738-.51864.24307-1.06824.24307-1.63992 0-1.9273-.9384-3.62856-2.38167-4.68539-1.00121-.73321-1.56354-1.87727-1.7091-3.10329 0 0-.02547-.19357-.02604-.2013-.10485-.92565-.4068-1.91671-1.14954-2.97151-.57249-.81295-1.34178-1.49907-2.24262-1.92013-.43059-.2012-.85376-.34172-1.26798-.43083-1.2635-.27191-2.44432-.91388-3.10209-2.02644-1.01114-1.71038-2.86635-2.85853-4.99876-2.85853-2.13249 0-3.98762 1.14815-4.99876 2.85853-.65769 1.11247-1.83859 1.75445-3.10209 2.02644-.41421.08912-.83739.22963-1.26798.43083-.90085.42106-1.67014 1.10718-2.24263 1.92013-.74273 1.0548-1.07834 2.04566-1.14954 2.97151-.10076 1.31156-.67382 2.52748-1.73514 3.3046-1.44336 1.05684-2.38184 2.75809-2.38184 4.68539 0 .55001.07934 1.07957.22556 1.58086.37234 1.27629.0725 2.60707-.71357 3.6793-.9599 1.30936-1.38373 3.03122-.93506 4.86615.50382 2.06065 2.1856 3.72427 4.25179 4.20462.52972.12317 1.04959.16756 1.55512.15412v.00301h25.08383c.06451.00065.12878.00146.19281 0h.01572v-.00105c3.15096-.0791 5.68211-2.65326 5.68211-5.8232z" fill="#f0f0fc"/><g fill="#101016"><path d="m19.26648 39.2242c-.54434 0-1.08782-.06077-1.60438-.18058-2.40049-.5591-4.32869-2.46733-4.91384-4.86088-.48791-1.99592-.10418-3.98576 1.08174-5.60316.64765-.88293.85775-1.94209.57733-2.90402-.17363-.59209-.26132-1.20762-.26132-1.8301 0-2.12354 1.02618-4.14377 2.74602-5.40261.79958-.58515 1.28663-1.52798 1.37344-2.65486.08942-1.15901.52958-2.30846 1.3092-3.41538.68933-.97756 1.58528-1.74328 2.59235-2.2147.47749-.22225.96801-.38807 1.45765-.49399.6737-.14498 1.89608-.54608 2.52377-1.60958 1.20241-2.03325 3.41104-3.29557 5.76464-3.29557 2.35448 0 4.56309 1.26319 5.76464 3.29557.62856 1.06351 1.85094 1.4646 2.5229 1.60958.48965.10592.98103.27174 1.45679.49399 1.01055.47142 1.9065 1.23714 2.59409 2.2147.72753 1.03399 1.15987 2.10531 1.28663 3.18792.04379.26796.06251.51222.06251.51222.11981.95065.59556 1.82923 1.33351 2.36923 1.71897 1.25971 2.74515 3.27994 2.74515 5.40348 0 .64679-.0955 1.28576-.28128 1.89955-.27782.91592-.07119 1.93602.56952 2.79724.85949 1.15293 1.31441 2.5255 1.31441 3.96753 0 3.67062-2.87537 6.61892-6.54773 6.71268-.00695 0-.22399 0-.23093 0h-25.084c-.05123.00174-.10158.00174-.15281.00174zm.12849-1.78322 25.1083.00348.19273.889v-.889c2.69306-.06772 4.80792-2.2364 4.80792-4.93467 0-1.05656-.33338-2.06103-.96193-2.90576-.98103-1.31962-1.28836-2.91444-.84559-4.37644.13543-.44624.20489-.91071.20489-1.38212 0-1.58267-.73447-3.02904-2.01762-3.9684-1.14077-.83431-1.87004-2.14872-2.05409-3.69927 0 0-.01389-.08508-.0191-.10679-.08855-.99492-.41325-1.82229-1.01402-2.67483-.50875-.72492-1.16161-1.28663-1.89087-1.62695-.35595-.16582-.71885-.2891-1.08-.36724-1.65126-.35508-2.95698-1.22325-3.6793-2.44303-.89595-1.51669-2.47775-2.42219-4.23319-2.42219-1.7537 0-3.33637.9055-4.23406 2.42219-.72058 1.21978-2.02717 2.08795-3.68017 2.44303-.35942.07814-.72318.20142-1.08.36724-.72579.33945-1.38039.9029-1.89087 1.62695-.60077.85341-.9246 1.68077-.98971 2.52724-.12675 1.65299-.87077 3.05682-2.09576 3.95364-1.28315.93936-2.01849 2.38573-2.01849 3.9684 0 .45318.06424.90116.19013 1.3309.43669 1.49846.12675 3.12107-.84994 4.45457-.86991 1.18679-1.15032 2.65312-.7883 4.12988.42714 1.74936 1.83618 3.1419 3.58901 3.54994.42366.09898.86382.1476 1.33003.13023z"/><circle cx="21.182" cy="28.99" r=".889"/><circle cx="44.625" cy="29.905" r=".889"/><circle cx="39.644" cy="27.026" r=".889"/></g></g><g><path d="m47.72426 19.63667c2.01177 2.26866-.44373 5.75228-3.32951 4.82153-2.46908-.82745-2.55274-2.97215-4.51099-3.21638-4.07402-.50809-3.77295 7.4827-8.21685 7.74884-4.34681.26032-4.11494-6.04058-7.23796-6.34751-1.7617-.16015-2.20206 1.77506-4.28405 2.2155-1.04545.22242-2.23506-.00002-3.22787-.75656-1.90279-1.44998-1.7537-3.95143.17723-5.36372l.00769-.00562c.88081-.65395 1.42804-1.68162 1.52148-2.9228.08007-1.09439.4938-2.17542 1.24118-3.22974.65395-.93424 1.50812-1.6549 2.45564-2.09535.4538-.21358.92089-.37373 1.37469-.46716 1.24825-.27588 2.21188-.88817 2.73809-1.74763.51119-.83493 1.15726-1.59443 1.986-2.1156 3.29882-2.07453 7.20904-.84976 8.95568 2.07489.50716.88081 1.49476 1.50812 2.74929 1.78833.46708.09343.93425.25358 1.38797.46716.94761.44044 1.80178 1.16111 2.45572 2.09535.62723.89417 1.07716 1.84852 1.18782 2.76266l.09344.73402c.13343 1.08103.65395 2.05527 1.4814 2.65586.36587.26702.69839.57067.99391.90393z" fill="#f18ab7"/><path d="m34.6284 27.11177c-.7332 1.02657-1.63144 1.79647-2.96973 1.86976-4.34461.27502-4.10629-6.0311-7.22271-6.34271-1.75978-.14668-2.21807 1.77813-4.28957 2.21807-1.04492.21997-2.23653 0-3.2264-.75155-1.90646-1.44817-1.75989-3.95972.18327-5.37119.88-.65992 1.42993-1.68649 1.52156-2.93315.07329-1.08151.49499-2.16313 1.24655-3.22629.64168-.93494 1.50322-1.6499 2.4565-2.08985.43994-.21997.91659-.36666 1.37488-.45829 1.24654-.29337 2.19983-.89824 2.73141-1.75989.47664-.75155 1.06327-1.46652 1.79647-1.96151-1.33818 2.82316-2.65812 7.42433-.86154 12.39228 1.3015 3.59306 3.90468 6.54444 7.25931 8.41432z" opacity=".1"/><ellipse cx="40.655" cy="14.31" fill="#fff" opacity=".4" rx="1.434" ry="1.948" transform="matrix(.739 -.674 .674 .739 .97 31.124)"/><path d="m31.39654 29.88705c-2.73213.00087-3.90676-2.17042-4.85827-3.9276-.7883-1.45592-1.32917-2.34666-2.19647-2.43174-.50961-.04515-.82997.20923-1.43769.74489-.60511.53392-1.35868 1.19894-2.57499 1.45592-1.36302.29084-2.80418-.04428-3.95103-.91939-1.09389-.83344-1.71377-2.0428-1.70161-3.3164.01302-1.33611.70322-2.6019 1.89261-3.47181.68151-.50614 1.09563-1.31441 1.16769-2.27721.09289-1.25798.56431-2.49512 1.40296-3.67756.7336-1.04875 1.70508-1.87524 2.80505-2.38746.52264-.24569 1.05222-.4254 1.57052-.53219.99405-.21878 1.76499-.69627 2.16-1.34132.64505-1.05309 1.40904-1.86135 2.27026-2.40309 1.72766-1.08782 3.73313-1.43248 5.64657-.97235 1.89087.45405 3.54734 1.67296 4.54573 3.34419.382.66241 1.15467 1.14772 2.1791 1.37518.50875.10244 1.04354.28216 1.57312.53219 1.09736.50875 2.06798 1.33524 2.80592 2.38833.64244.91505 1.07306 1.87177 1.28315 2.84759.06122.28975.158 1.15987.158 1.15987.09897.7501.50875 1.49586 1.11647 1.93602.41672.30473.79698.65199 1.13556 1.03312 1.15987 1.30746 1.27968 3.11499.3056 4.60563-1.00881 1.54621-2.8528 2.20688-4.57351 1.65299-1.47936-.49573-2.23988-1.38386-2.8528-2.09836-.56431-.65894-.88727-1.00708-1.49499-1.08261-1.35608-.1745-2.04541 1.07219-3.06811 3.10718-1.05743 2.10184-2.25377 4.48322-4.98589 4.64644-.10939.00694-.21704.00955-.32295.00955zm-7.17802-8.14255c.09376 0 .19013.00434.28997.01302 1.87698.18492 2.78856 1.86917 3.59335 3.35547 1.04527 1.92907 1.7945 3.10718 3.51174 2.98997 1.70942-.10244 2.58106-1.83531 3.50306-3.67062 1.03833-2.06537 2.23814-4.40769 4.87563-4.07258 1.31962.16408 2.01415.97495 2.62708 1.69032.54174.63203 1.05396 1.22933 2.05756 1.56531 1.16161.37765 2.09229-.26913 2.52984-.93589.41499-.63637.59557-1.61566-.14759-2.45258 0-.00087 0-.00087 0-.00087-.25524-.2865-.54174-.54782-.85254-.77528-1.00187-.72752-1.67383-1.91778-1.84052-3.26431 0 0-.07293-.62074-.08682-.6928-.13891-.81-.48965-1.61913-1.03833-2.40309-.5591-.79785-1.28662-1.41946-2.10444-1.79885-.40283-.191-.80219-.32556-1.18766-.40283-1.53492-.34206-2.71563-1.12688-3.34418-2.2147-.74836-1.2519-1.99852-2.17303-3.42753-2.51595-1.44116-.34206-2.96393-.08074-4.28528.74923-.62769.39415-1.19981 1.00881-1.70074 1.82663-.64939 1.0609-1.82315 1.82489-3.30512 2.15132-.39241.08161-.7883.21617-1.18765.40457-.82129.38113-1.54795 1.00274-2.10531 1.79971-.65113.91852-1.01489 1.85441-1.08348 2.78508-.11113 1.48717-.77788 2.75557-1.87785 3.57165-.74489.54521-1.16942 1.29357-1.17724 2.06364-.00695.71798.349 1.38733 1.00187 1.88566.73447.5591 1.64865.77788 2.5038.59296.75965-.16061 1.24929-.59209 1.76759-1.04962.63811-.56255 1.35522-1.19457 2.49079-1.19457z" fill="#101016"/></g><g><path d="m20.02974 2.67264c-.33312-.05544-1.4309.66271-2.08319 1.83162-1.06473-.91279-2.43617-1.19544-2.73431-1.01139-.30239.18667-.66526 1.53998-.32649 2.90099-1.33731.05927-2.47125.71883-2.57097 1.04148-.13369.43269.8917 2.36905 2.72009 2.93406 1.80499.55785 3.71046-.42721 3.88598-.86304.46832.03836 2.20272-1.2236 2.51292-3.08722.31425-1.88772-.9573-3.67212-1.40403-3.7465z" fill="#75d64c"/><path d="m16.18882 11.42544c-.47055 0-.95064-.06251-1.41598-.20662-.96106-.29691-1.86222-.94457-2.53853-1.82402-.31167-.4063-1.01142-1.43595-.76833-2.22251.22051-.71277 1.28749-1.28402 2.40917-1.53492-.07987-1.20849.19621-2.4847.8699-2.90055.67023-.41672 1.93428-.08769 2.97869.52524.72753-.89161 1.73286-1.5818 2.45171-1.46634h.00087c1.07132.17884 2.50293 2.55502 2.13396 4.76885-.3082 1.85441-1.79277 3.36589-2.89621 3.74181-.61466.60511-1.88045 1.11906-3.22525 1.11906zm-2.90836-3.68711c.24222.50788.94891 1.45158 2.01676 1.78235 1.28836.39415 2.64357-.23614 2.87972-.48444.14412-.36029.4254-.44884.81608-.41585.16756-.08942 1.34306-1.0201 1.56357-2.34753.18318-1.10257-.3438-2.1574-.68846-2.6019-.30907.20662-.79958.64765-1.14511 1.26666-.12936.23267-.35769.39502-.61987.4419-.26132.04688-.53219-.02605-.73534-.20055-.57386-.49225-1.23714-.73881-1.62348-.82042-.10158.38113-.17884 1.08521.00434 1.82055.06424.25871.00868.53219-.15019.74576-.15974.21444-.4063.34466-.67283.35682-.70844.03212-1.32223.27347-1.64519.45665zm6.40361-4.2601c.00087 0 .00087.00087.00087.00087s0-.00001-.00087-.00087z" fill="#101016"/></g><g><path d="m25.51125 8.31659c1.80825 2.92913 1.59744 9.26192-.7229 10.69435-2.32035 1.43243-8.07616-1.21698-9.8844-4.14611s.12357-5.11213 3.0527-6.92038 5.74635-2.55699 7.5546.37214z" fill="#ea5385"/><path d="m25.56831 18.23858c-.22631.33422-.47786.5972-.77439.77237-2.33267 1.43424-8.08625-1.21109-9.8907-4.15339-1.80262-2.92405.12777-5.11213 3.05181-6.91486.24355-.15176.50526-.30523.75053-.43872-.12591 1.20867-.10567 2.99271.68159 4.90737 1.38242 3.35019 4.26693 5.04956 6.18116 5.82723z" opacity=".1"/><g fill="#101016"><circle cx="18.58" cy="12.891" r=".889"/><circle cx="22.097" cy="10.718" r=".889"/><circle cx="22.407" cy="15.152" r=".889"/><path d="m23.10379 20.29899c-1.10952 0-2.41177-.3056-3.80345-.90984-2.23206-.96974-4.20628-2.52463-5.15258-4.05695-1.01576-1.64518-1.10778-3.25129-.27434-4.77493.63376-1.1564 1.81621-2.25811 3.61592-3.36936 4.02309-2.48296 6.97747-2.25811 8.77805.66154.9463 1.53319 1.45158 3.99444 1.31788 6.42445-.14585 2.66701-.99579 4.66901-2.33016 5.4929-.57646.35596-1.30833.53219-2.15132.53219zm-.79438-13.05378c-.93155 0-2.17476.39936-3.88592 1.45505-1.53058.94544-2.50901 1.83184-2.98997 2.71129-.5183.94717-.44624 1.89608.22659 2.9865.75444 1.22151 2.46126 2.54026 4.34866 3.35981 1.82402.79177 3.51521.98624 4.31219.49659.79611-.49138 1.38039-2.09229 1.48978-4.07866.11199-2.05409-.30212-4.17068-1.05569-5.3922-.50528-.81867-1.19547-1.53838-2.44564-1.53838z"/></g></g><g><path d="m28.463 40.927h6.901v21.952h-6.901z" fill="#8ec8ee"/><path d="m35.3632 63.76733h-6.9002c-.49138 0-.88901-.39762-.88901-.889v-21.95078c0-.49139.39762-.88901.88901-.88901h6.9002c.49138 0 .889.39762.889.88901v21.95078c0 .49138-.39762.889-.889.889zm-6.0112-1.77801h5.1222v-20.17276h-5.1222z" fill="#101016"/></g><g><path d="m39.74644 63.11081h-15.66678c-1.01451 0-1.83693-.82242-1.83693-1.83693v-.00001c0-2.73727 2.21899-4.95626 4.95626-4.95626h9.42811c2.73727 0 4.95626 2.21899 4.95626 4.95626v.00001c.00001 1.01451-.82242 1.83693-1.83692 1.83693z" fill="#a4dbee"/><path d="m31.14544 63.1181h-7.05779c-1.02657 0-1.85141-.82484-1.85141-1.85141 0-1.35664.54993-2.60319 1.44817-3.50143s2.14478-1.44817 3.51966-1.44817h3.07972c-.36654.58663-.67826 1.31983-.78825 2.23642-.18328 1.63155.43994 3.29969 1.6499 4.56459z" opacity=".1"/><path d="m39.74571 64h-15.6661c-1.5028 0-2.72605-1.22238-2.72605-2.72605 0-3.22264 2.62187-5.84451 5.84538-5.84451h9.42831c3.22264 0 5.84451 2.62187 5.84451 5.84451 0 1.50367-1.22238 2.72605-2.72605 2.72605zm-12.54677-6.79255c-2.24248 0-4.06737 1.82489-4.06737 4.0665 0 .52264.4254.94804.94804.94804h15.6661c.52264 0 .94804-.4254.94804-.94804 0-2.24161-1.82489-4.0665-4.0665-4.0665z" fill="#101016"/></g><g><path d="m51.78014 32.98997c1.98871 0 3.47864 1.90245 2.9191 3.81081-2.31036 7.87973-11.63561 13.76746-22.77952 13.76746-11.15536 0-20.4822-5.8877-22.79282-13.7674-.55961-1.90838.93034-3.81088 2.91908-3.81088 0 0 39.73416 0 39.73416.00001z" fill="#a4dbee"/><path d="m42.65771 48.57817c-3.20806 1.28325-6.8744 1.99821-10.74238 1.99821-11.14573 0-20.47652-5.90288-22.78634-13.76715-.56828-1.92481.93494-3.81303 2.9148-3.81303h11.84223c-.94275 6.10089 4.64403 17.3961 18.77169 15.58197z" opacity=".1"/><ellipse cx="47.884" cy="39.145" fill="#fff" opacity=".4" rx="2.314" ry="1.585" transform="matrix(.586 -.81 .81 .586 -11.902 54.984)"/><ellipse cx="44.625" cy="42.621" fill="#fff" opacity=".4" rx="1.225" ry="1.021" transform="matrix(.673 -.739 .739 .673 -16.933 46.921)"/><path d="m31.92004 51.4567c-11.43552 0-21.15901-5.92439-23.64631-14.40639-.34032-1.16161-.11547-2.3892.61814-3.36763.7527-1.00534 1.90216-1.5818 3.15406-1.5818h39.73434c1.2519 0 2.39962.57646 3.15319 1.58093.73273.9793.95846 2.20689.61813 3.3685-2.4847 8.482-12.20298 14.40639-23.63155 14.40639zm-19.87412-17.57781c-.68672 0-1.31701.31688-1.73026.86904-.39502.52611-.51656 1.18418-.33511 1.80232 2.23032 7.6069 11.45722 13.12844 21.93949 13.12844 10.47532 0 19.69701-5.52155 21.92647-13.12844.18058-.61814.05904-1.27621-.33685-1.80232-.41325-.55215-1.04354-.86904-1.72939-.86904z" fill="#101016"/></g></g></svg>