<svg id="shawl" viewBox="0 0 64 64" xmlns="http://www.w3.org/2000/svg"><path d="m43 56c0-1.10457.89543-2 2-2s2 .89543 2 2v3c0 1.10457.89543 2 2 2 1.10457 0 2-.89543 2-2v-3c0-1.10457.89543-2 2-2s2 .89543 2 2v3c0 1.10457.89543 2 2 2 1.10457 0 2-.89543 2-2v-3c0-11.25-10-11.25-10-22.5s10-11.25 10-22.5v-2c0-3.31371-2.68629-6-6-6h-24v47h11v6z" fill="#545817"/><path d="m27 56v3c0 1.10455-.89545 2-2 2s-2-.89545-2-2v-3c0-1.10457-.89543-2-2-2s-2 .89543-2 2v3c0 1.10455-.89545 2-2 2s-2-.89545-2-2v-3c0-11.25-10-11.25-10-22.5s10-11.25 10-22.5v-2c0-3.31372 2.68628-6 6-6h28c-3.31372 0-6 2.68628-6 6v2c0 11.25-10 11.25-10 22.5s10 11.25 10 22.5v3c0 1.10455-.89545 2-2 2s-2-.89545-2-2v-3c0-1.10457-.89543-2-2-2s-2 .89543-2 2v3c0 1.10455-.89545 2-2 2s-2-.89545-2-2v-3c0-1.10457-.89543-2-2-2s-2 .89543-2 2z" fill="#ffa63b"/><path d="m5 33.5c0 2.21289.3905 3.98639 1.01215 5.5h28c-.62164-1.51361-1.01215-3.28711-1.01215-5.5 0-3.85083 1.17212-6.38306 2.71332-8.5h-28c-1.5412 2.11694-2.71332 4.64917-2.71332 8.5z" fill="#7f813c"/><path d="m37.68414 3c1.10779 20.60651-9.59503 9.87146-8.68414 29 .58453 12.2746-7.98755 15.59137-16.40533 15.93958 1.38605 2.02954 2.40533 4.47162 2.40533 8.06042v3c0 1.10455.89545 2 2 2s2-.89545 2-2v-3c0-1.10461.89545-2 2-2s2 .89539 2 2v3c0 1.10455.89545 2 2 2s2-.89545 2-2v-3c0-1.10461.89545-2 2-2s2 .89539 2 2v3c0 1.10455.89545 2 2 2s2-.89545 2-2v-3c0-1.10461.89545-2 2-2s2 .89539 2 2v3c0 1.10455.89545 2 2 2s2-.89545 2-2v-3c0-11.25-10-11.25-10-22.5s10-11.25 10-22.5v-2c0-3.31372 2.68628-6 6-6z" fill="#fe9000"/><path d="m29.33295 25c-.33398 1.76227-.47498 4.01733-.33295 7 .13202 2.7724-.21832 5.0719-.91327 7h5.92542c-.62164-1.51361-1.01215-3.28711-1.01215-5.5 0-3.85083 1.17212-6.38306 2.71332-8.5z" fill="#707335"/><path d="m49 3h-28c-3.31372 0-6 2.68628-6 6h28c0-3.31372 2.68628-6 6-6z" fill="#7f813c"/><path d="m37.68414 3c.12842 2.38953.09827 4.35809-.05444 6h5.3703c0-3.31372 2.68628-6 6-6z" fill="#707335"/><path d="m15 56v3c0 1.10455.89545 2 2 2s2-.89545 2-2v-3c0-1.10461.89545-2 2-2s2 .89539 2 2v3c0 1.10455.89545 2 2 2s2-.89545 2-2v-3c0-1.10461.89545-2 2-2s2 .89539 2 2v3c0 1.10455.89545 2 2 2s2-.89545 2-2v-3c0-1.10461.89545-2 2-2s2 .89539 2 2v3c0 1.10455.89545 2 2 2s2-.89545 2-2v-3c0-2.45929-.47797-4.38092-1.22479-6h-28c.74683 1.61908 1.22479 3.54071 1.22479 6z" fill="#707335"/><path d="m60 11v-2c0-3.85986-3.14062-7-7-7h-32c-3.85938 0-7 3.14014-7 7v2c0 5.24463-2.30566 7.83887-4.74707 10.58545-2.58301 2.90527-5.25293 5.90918-5.25293 11.91455s2.66992 9.00928 5.25293 11.91455c2.44141 2.74658 4.74707 5.34082 4.74707 10.58545v3c0 1.6543 1.3457 3 3 3s3-1.3457 3-3v-3c0-.55127.44824-1 1-1s1 .44873 1 1v3c0 1.6543 1.3457 3 3 3s3-1.3457 3-3v-3c0-.55127.44824-1 1-1s1 .44873 1 1v3c0 1.6543 1.3457 3 3 3s3-1.3457 3-3v-3c0-.55127.44824-1 1-1s1 .44873 1 1v3c0 1.6543 1.3457 3 3 3s3-1.3457 3-3v-3c0-.55127.44824-1 1-1s1 .44873 1 1v3c0 1.6543 1.3457 3 3 3s3-1.3457 3-3v-3c0-.55127.44824-1 1-1s1 .44873 1 1v3c0 1.6543 1.3457 3 3 3s3-1.3457 3-3v-3c0-6.00537-2.66992-9.00928-5.25293-11.91455-2.44141-2.74658-4.74707-5.34082-4.74707-10.58545s2.30566-7.83887 4.74707-10.58545c2.58301-2.90527 5.25293-5.90918 5.25293-11.91455zm-39-7h23.10547c-1.07288 1.05029-1.80157 2.44476-2.02551 4h-25.97888c.46466-2.2793 2.4845-4 4.89893-4zm-5 7v-1h26v1c0 5.24463-2.30566 7.83887-4.74707 10.58545-.69208.77844-1.38879 1.5661-2.04034 2.41455h-25.41883c.31226-.36334.63135-.72321.95331-1.08545 2.58301-2.90527 5.25293-5.90918 5.25293-11.91455zm-7.76593 15h25.63892c-1.10571 1.9389-1.87299 4.28802-1.87299 7.5 0 1.72729.2262 3.2002.60236 4.5h-25.89612c-.44025-1.27228-.70624-2.7334-.70624-4.5 0-3.32965.93073-5.58966 2.23407-7.5zm-.62177 14h25.73865c1.01556 2.16327 2.47113 3.80524 3.90198 5.41455 1.02417 1.15216 2.02197 2.27997 2.8382 3.58545h-25.68964c-.99713-1.92035-2.336-3.43164-3.65442-4.91455-1.15234-1.29639-2.27106-2.56219-3.13477-4.08545zm34.3877 19c0 .55127-.44824 1-1 1s-1-.44873-1-1v-3c0-1.6543-1.3457-3-3-3s-3 1.3457-3 3v3c0 .55127-.44824 1-1 1s-1-.44873-1-1v-3c0-1.6543-1.3457-3-3-3s-3 1.3457-3 3v3c0 .55127-.44824 1-1 1s-1-.44873-1-1v-3c0-1.6543-1.3457-3-3-3s-3 1.3457-3 3v3c0 .55127-.44824 1-1 1s-1-.44873-1-1v-3c0-1.95172-.28528-3.58264-.75464-5h25.86646c.55084 1.38513.88818 2.99878.88818 5zm6-25.5c0 6.00537 2.66992 9.00928 5.25293 11.91455 2.44141 2.74658 4.74707 5.34082 4.74707 10.58545v3c0 .55127-.44824 1-1 1s-1-.44873-1-1v-3c0-1.6543-1.3457-3-3-3s-3 1.3457-3 3v3c0 .55127-.44824 1-1 1s-1-.44873-1-1v-3c0-1.6543-1.3457-3-3-3-.43219 0-.84094.09576-1.21252.26099-.67401-4.25018-2.88446-6.75061-5.04041-9.17554-2.44141-2.74658-4.74707-5.34082-4.74707-10.58545s2.30566-7.83887 4.74707-10.58545c2.58301-2.90527 5.25293-5.90918 5.25293-11.91455v-2c0-2.75684 2.24316-5 5-5h4c2.75684 0 5 2.24316 5 5v2c0 5.24463-2.30566 7.83887-4.74707 10.58545-2.58301 2.90527-5.25293 5.90918-5.25293 11.91455z" fill="#490b2b"/><g fill="#fff"><path d="m18.37695 17.00049c-.08594 0-.17285-.01123-.25977-.03467-.5332-.14307-.85059-.69141-.70703-1.22461.24121-.90088.41016-1.85449.50195-2.83447.05176-.5498.52538-.95752 1.08984-.90234.5498.05176.95312.53906.90234 1.08887-.10254 1.0918-.29199 2.15674-.5625 3.16553-.12012.44678-.52344.7417-.96484.7417z"/><path d="m16.11133 22c-.18848 0-.37891-.05322-.54785-.16406-.46191-.30322-.58984-.92285-.28711-1.38477.2002-.3042.39355-.61963.58105-.94678.27344-.47949.88086-.64795 1.36426-.37305.47949.27393.64648.88477.37207 1.36426-.20703.36426-.42383.71484-.64551 1.05322-.19238.29248-.51172.45117-.83691.45117z"/></g></svg>