<svg id="Layer_1" enable-background="new 0 0 511.996 511.996" viewBox="0 0 511.996 511.996" xmlns="http://www.w3.org/2000/svg"><g><g><path d="m457.729 245.752 9.489 91.64-36.621 17.864-35.281-76.358z" fill="#a8d3d8"/><path d="m457.729 245.752-24.481 13.001 6.317 61.007c.475 4.584-1.964 8.976-6.106 10.997l-11.573 5.646 8.711 18.854 36.621-17.864z" fill="#8ebac5"/><path d="m398.956 245.752 9.489 91.64-36.621 17.864-35.281-76.358z" fill="#8ebac5"/><path d="m213.552 269.957s-.893 35.728-5.359 47.786-14.291 44.213-14.291 44.213h-33.048s-15.184-77.707-11.611-99.591z" fill="#a8d3d8"/><path d="m274.554 269.957s-.893 35.728-5.359 47.786-14.291 44.213-14.291 44.213h-33.048s-15.184-77.707-11.611-99.591z" fill="#8ebac5"/><path d="m81.304 99.615h-20.259c-5.053 0-9.801 2.414-12.779 6.496l-12.517 17.158-23.748 18.32c-3.868 2.984-5.447 8.075-3.945 12.724l3.673 11.37c1.68 5.201 6.769 8.518 12.206 7.955l53.226-5.506z" fill="#ffc4c8"/><path d="m503.602 231.18c-6.355-24.457-21.719-19.406-23.699-28.205-1.63-7.243 1.597-16.825-1.77-24.194-3.268-7.153-12.469-10.856-17.356-16.847-5.086-6.235-7.275-16.11-14.095-19.691-6.213-3.262-16.324.037-25.217-1.684-7.741-1.499-15.243-8.515-23.405-9.176-8.615-.697-17.338 5.057-24.706 4.944-14.191-.217-12.063-5.31-24.276-5.76-14.089-.519-12.073 4.727-28.382 3.817-8.509-.475-18.082-6.906-28.017-6.892-9.508.013-18.884 6.43-27.848 7.344-10.689 1.09-21.498-2.965-28.589.096-8.729 2.519-6.598 7.135-17.059 7.723-5.497.309-11.82-5.617-18.2-5.891-6.12-.264-13.119 5.089-18.806 3.824-6.507-1.447-9.77-9.035-14-12.429-5.434-4.359-15.312-4.62-22.298-9.507-6.205-4.341-10.025-13.765-17.381-17.038-7.028-3.127-16.143.349-24.161-.557-7.391-.835-16.954-5.682-25.138-3.636-7.986 7.661 2.015 11.511-.365 24.186-1.222 6.506-8.284 13.352-8.628 21.269-.314 7.206 5.982 14.36 7.203 21.7 1.217 7.318-2.283 16.404 1.222 22.876 4.703 8.682 12.239 15.579 13.066 24.145.879 9.106-5.438 18.703-4.62 27.624.799 8.706 8.282 15.504 13.214 23.98 3.87 6.651 5.205 17.187 13.893 23.667 7.445 5.552 17.537 5.48 23.381 9.682 7.753 5.573 11.05 15.13 17.168 18.687 7.825 4.549 17.165 2.05 24.826 4.068 7.173 1.889 13.988 8.833 23.409 9.234 8.628.367 18.647-5.244 28.93-4.835 9.302.37 18.848 6.773 28.523 6.948 9.779.176 19.484-5.881 28.689-6.13 10.455-.283 20.722 5.136 29.11 3.992 5.964-.813 11.449-7.864 17.95-9.025 6.322-1.129 13.85 3.604 19.938 2.368 6.781-1.376 11.93-8.697 17.463-9.918 11.078-2.445 12.504 6.078 20.806 1.332 11.607-6.636 4.875-12.19 16.235-22.806 5.887-5.501 16.782-7.519 23.454-14.222 6.329-6.358 8.228-17.157 13.908-23.61 3.786-4.301 8.849-7.367 13.217-10.359 0 0 2.038 23.04 23.719 20.092 21.823-2.969 20.451-24.418 18.692-31.186z" fill="#eef5f6"/><path d="m182.175 140.588s-20.85 11.45-50.05-.93c-18.88-8.01-31.81-22.4-53.99-28.5-1.67-5.33-4.18-8.71 1.07-13.74 8.18-2.04 17.74 2.8 25.13 3.64 8.02.91 17.14-2.57 24.16.56 7.36 3.27 11.18 12.69 17.39 17.04 6.98 4.88 16.86 5.14 22.29 9.5 4.23 3.4 7.5 10.98 14 12.43z" fill="#deecf1"/><path d="m484.915 262.368c-21.68 2.94-23.72-20.1-23.72-20.1-4.37 3-9.43 6.06-13.22 10.36-5.68 6.46-7.58 17.26-13.91 23.61-6.67 6.71-17.56 8.72-23.45 14.23-11.36 10.61-4.63 16.17-16.24 22.8-8.3 4.75-9.72-3.77-20.8-1.33-5.53 1.22-10.68 8.54-17.46 9.92-5.6 1.13-12.41-2.77-18.38-2.54 16.23-16.3 27.63-43.88 63.4-49.47 0 0 52.96-19 52.96-51.83 0-32.87-17.62-62.47-45.77-83.19 4.41 2.24 8.74 4.88 13.14 5.73 8.89 1.72 19.01-1.58 25.22 1.68 6.82 3.59 9.01 13.46 14.09 19.7 4.89 5.99 14.09 9.69 17.36 16.84 3.37 7.37.14 16.95 1.77 24.2 1.98 8.8 17.34 3.75 23.7 28.2 1.76 6.77 3.13 28.22-18.69 31.19z" fill="#deecf1"/><path d="m445.327 439.662h-11.17c-5.221 0-8.957-5.047-7.431-10.041l6.757-22.114-2.886-52.252 36.621-17.864-14.206 95.642c-.565 3.81-3.835 6.629-7.685 6.629z" fill="#ffc4c8"/><path d="m386.554 439.662h-11.17c-5.221 0-8.957-5.047-7.431-10.041l6.757-22.114-2.886-52.252 36.621-17.864-14.206 95.642c-.565 3.81-3.835 6.629-7.685 6.629z" fill="#fdb4ba"/><path d="m174.529 439.662h-11.852c-5.027 0-8.73-4.701-7.554-9.588l5.732-23.822v-44.298h33.048l-11.707 71.198c-.618 3.755-3.863 6.51-7.667 6.51z" fill="#ffc4c8"/><path d="m235.53 439.662h-11.852c-5.027 0-8.73-4.701-7.554-9.588l5.732-23.822v-44.298h33.048l-11.707 71.198c-.617 3.755-3.862 6.51-7.667 6.51z" fill="#fdb4ba"/><path d="m104.742 114.541c-4.423-1.371-6.709-6.255-4.911-10.523 4.882-11.588 14.244-31.671 20.503-31.685 14.187-.031 11.274 26.449 8.714 40.56-.839 4.625-5.545 7.461-10.034 6.07z" fill="#ffc4c8"/></g><g><path d="m510.864 229.29c-4.811-18.491-14.823-23.582-20.805-26.623-1.004-.51-2.336-1.188-2.894-1.608-.96-7.996 1.802-16.985-2.21-25.401-5.316-11.493-18.054-13.72-22.454-25.277-2.816-5.37-6.009-11.457-12.33-14.784-12.598-5.599-26.587 1.995-38.324-7.389-3.69-1.877-8.206-.409-10.086 3.282-1.878 3.691-.409 8.207 3.283 10.086 13.326 9.234 24.581 5.844 38.147 7.298 4.817 3.339 7.292 12.902 11.774 17.806 4.241 5.717 13.248 9.625 16.349 15.216 2.34 6.214-.632 15.678 1.272 22.729 1.522 6.761 6.812 9.45 10.674 11.414 4.904 2.493 9.975 5.071 13.085 17.026.689 2.651 1.67 10.736-2.018 16.237-2.093 3.122-5.503 4.965-10.421 5.634-4.107.559-7.263-.087-9.652-1.968-3.95-3.111-5.378-9.292-5.59-11.362-.595-7.038-9.244-8.757-13.815-4.102-15.041 7.678-17.764 21.243-26.104 33.446-6.077 5.798-16.883 7.83-23.25 14.037-6.814 6.364-8.574 11.653-9.859 15.515-.846 3.277-2.409 5.177-5.981 6.733-.316-.052-1.215-.452-1.873-.745-3.209-1.428-8.06-3.583-15.823-1.876-6.712 1.23-11.601 7.951-17.256 9.872-5.987.129-12.955-3.914-19.844-2.381-4.846.864-8.707 3.512-12.114 5.848-1.923 1.318-4.316 2.959-5.537 3.125-2.936.402-7.089-.592-11.489-1.645-23.647-8.921-36.618 10.017-57.609.603-14.48-7.626-30.728-1.031-44.825 1.009-3.908-.166-7.605-2.214-11.52-4.382-6.243-4.031-14.213-6.071-21.567-5.84-20.941 1.565-16.993-21.546-40.723-25.551-14.452-1.768-17.491-14.551-22.699-25.852-6.664-10.773-16.414-18.77-10.203-31.717 1.487-5.061 3.173-10.795 2.591-16.819-.729-7.614-4.91-13.567-8.954-19.325-11.57-12.63.142-24.471-9.563-39.748-7.755-10.823 3.486-18.2 5.562-28.82 1.436-7.646-.521-13.105-1.815-16.717-.207-.578-.459-1.283-.634-1.852 2.416.039 5.199.663 8.016 1.399-.21 2.618.248 5.277 1.378 7.702 1.825 3.919 5.241 6.902 9.372 8.182l14.272 4.422c1.486.46 3.017.688 4.542.688 2.782 0 5.542-.755 7.968-2.227 2.458-1.492 4.406-3.637 5.686-6.148 4.674 6.552 13.352 10.555 20.497 12.356 3.301 1.001 6.419 1.947 7.988 3.208.829.667 1.972 2.087 3.076 3.461 17.68 22.953 25.826 1.126 40.481 9.162 7.319 5.39 22.304 3.748 26.934-2.029 4.507-3.964 9.265-3.611 16.431-2.786 14.202 3.768 29.065-4.661 42.311-6.823 15.629 2.481 30.133 11.52 45.944 4.556 2.817-.973 4.852-1.677 10.155-1.482 4.205.155 5.694.889 7.948 2 4.023 1.982 8.04 3.634 16.481 3.765 4.16.026 7.552-3.241 7.615-7.383.064-4.142-3.241-7.551-7.383-7.615-5.756-.089-7.571-.984-10.084-2.222-2.948-1.453-6.618-3.261-14.025-3.535-8.104-.3-12.094 1.081-15.612 2.298-4.885 2.392-15.634 2.161-22.853-1.27-5.403-1.928-11.525-4.113-18.195-4.113-14.703.487-26.129 10.561-40.72 6.907-8.856-1.858-22.143.266-27.774 6.314-1.537 1.324-2.105 1.781-5.467 1.961-5.359-1.399-10.896-5.829-17.425-5.895-10.243-1.1-16.344 9.721-23.073-1.21-1.607-1.999-3.269-4.065-5.372-5.755-3.833-3.078-8.508-4.496-13.028-5.868-10.68-1.701-14.417-9.825-21.448-17.015 1.021-13.555-.818-23.219-5.505-28.819-3.162-3.778-7.494-5.774-12.531-5.774-.014 0-.028 0-.042 0-5.618.013-12.336 3.534-23.238 26.877-6.769-1.6-16.608-4.681-23.177.404h-12.858c-7.422 0-14.464 3.58-18.838 9.576l-11.886 16.293-22.901 17.667c-6.356 4.903-8.968 13.33-6.5 20.969l3.674 11.37c2.729 8.535 11.321 14.053 20.115 13.11l44.928-4.648c-.3 4.724-.185 9.797 2.402 14.565 6.396 11.151 16.493 19.286 10.141 32.457-7.371 17.08 1.856 30.294 11.634 43.498 4.448 8.804 5.829 18.348 15.888 25.909 19.551 11.594 21.295 2.442 35.985 24.497 3.12 21.32 6.905 41.312 7.669 45.296v42.691l-5.524 22.957c-1.101 4.578-.062 9.325 2.853 13.023s7.286 5.819 11.994 5.819h11.852c7.512 0 13.849-5.38 15.067-12.792l11.621-70.675c.773-2.524 4.71-15.345 8.49-27.04 2.173 13.031 4.124 23.302 4.649 26.026v42.682l-5.524 22.957c-1.101 4.578-.062 9.325 2.853 13.023s7.286 5.819 11.994 5.819h11.852c7.512 0 13.849-5.38 15.068-12.792l5.982-36.388c.672-4.087-2.096-7.945-6.184-8.618-4.085-.667-7.945 2.096-8.617 6.184l-5.983 36.388c-.021.131-.133.226-.266.226h-11.852c-.055 0-.131 0-.212-.103s-.063-.177-.05-.23l5.732-23.822c.138-.574.208-1.164.208-1.754v-36.795h25.549c3.231.016 6.249-2.212 7.173-5.309.048-.158 4.406-14.419 8.581-27.345 23.061-9.534 27.546-.638 48.576-.864 4.738-.644 8.591-3.285 11.99-5.615 6.492-6.272 12.654-1.731 20.405-.893l12.786 27.672 2.732 49.487-6.367 20.84c-1.429 4.678-.58 9.615 2.33 13.546 2.909 3.931 7.383 6.186 12.273 6.186h11.17c7.508 0 14.002-5.601 15.104-13.026l13.895-93.551 7.635 16.524 2.733 49.482-6.366 20.839c-1.431 4.677-.582 9.614 2.327 13.546 2.91 3.932 7.384 6.187 12.275 6.187h11.169c7.507 0 14.001-5.6 15.105-13.026l14.205-95.642c.077-.683.088-1.373.02-2.056l-7.25-70.01c5.194 3.15 11.525 4.319 18.521 3.371 11.567-1.575 17.729-7.474 20.86-12.145 8.016-11.964 4.5-26.723 4.074-28.368zm-389.601-149.197c2.612.422 3.487 23.442-.028 31.707l-14.272-4.422c3.152-11.462 13.502-27.081 14.3-27.285zm-98.099 86.086c-1.898.192-3.709-.981-4.297-2.802l-3.674-11.37c-.527-1.632.031-3.433 1.389-4.48l23.749-18.32c.562-.434 1.06-.945 1.478-1.519l12.517-17.158c1.56-2.139 4.072-3.416 6.72-3.416h7.936c.35 1.591.859 3.016 1.29 4.218 5.606 11.235-7.598 19.141-7.558 31.222-.254 5.903 2.206 11.096 4.376 15.678.528 1.114 1.041 2.201 1.493 3.247zm208.425 165.013c7.241.511 15.265 5.072 23.082 6.348-2.051 6.441-3.998 12.692-5.304 16.915h-21.298c-.956-5.159-2.404-13.191-3.927-22.444 2.569-.554 5.053-.912 7.447-.819zm-53.934-4.629c5.492 1.779 10.694 6.05 16.979 7.963-2.396 7.465-4.759 15.049-6.267 19.929h-21.295c-1.177-6.364-3.103-17.104-5.006-29.148 5.202.772 10.966.154 15.589 1.256zm-3.126 105.6h-11.852c-.055 0-.131 0-.212-.103s-.063-.177-.05-.23l5.732-23.822c.138-.574.208-1.164.208-1.754v-36.795h16.713l-10.273 62.479c-.022.129-.134.225-.266.225zm241.209-136.218c1.89-1.768 5.176-3.316 8.654-4.956 4.925-2.321 10.507-4.952 14.984-9.457 4.294-4.307 6.817-9.814 9.044-14.673 1.086-2.37 2.135-4.646 3.271-6.561l7.524 72.648-25.025 12.211-21.309-46.117c.724-.947 1.642-1.96 2.857-3.095zm-40.55 23.318c8.573-.991 12.66 7.291 23.836-.043l1.42 13.726-25.025 12.211-9.136-19.774c2.777-1.707 6.427-5.202 8.905-6.12zm11.633 112.67c-.02.133-.132.23-.267.23h-11.17c-.063 0-.136 0-.217-.109-.081-.11-.06-.179-.041-.24l6.757-22.114c.258-.843.364-1.725.315-2.605l-2.611-47.279 19.347-9.438zm58.774-.002c-.021.134-.133.231-.269.231h-11.169c-.063 0-.137 0-.217-.109-.081-.109-.061-.178-.041-.24l6.757-22.114c.258-.843.364-1.725.315-2.605l-2.611-47.28 19.347-9.438z"/><path d="m46.611 137.439c-4.142 0-7.5 3.358-7.5 7.5v2.311c0 4.142 3.358 7.5 7.5 7.5s7.5-3.358 7.5-7.5v-2.311c0-4.142-3.358-7.5-7.5-7.5z"/></g></g><g/><g/><g/><g/><g/><g/><g/><g/><g/><g/><g/><g/><g/><g/><g/></svg>