<svg id="Capa_1" enable-background="new 0 0 512 512" viewBox="0 0 512 512" xmlns="http://www.w3.org/2000/svg"><g><path d="m101.362 370.875c-16.208 21.818-21.046 44.816-21.664 62.884-.996 29.068 12.534 60.488 12.943 61.428h126.564v-124.312z" fill="#fdd278"/><path d="m194.196 223.705-85.433-177.204c-11.937 8.427-23.239 17.936-33.782 28.479-48.352 48.353-74.981 112.64-74.981 181.02 0 16.088 2.633 38.101 5.635 53.9 106.74 77.463 174.107 165.52 194.558 196.058 9.931 1.955 26.116 4.516 36.242 5.288z" fill="#ffebba"/><path d="m156.861 402.011c-58.334-100.814-121.532-179.825-122.163-180.611l23.39-18.786c.646.804 65.274 81.603 124.74 184.374z" fill="#ffdc9e"/><path d="m410.639 370.875h-117.843v124.312h126.565s13.938-32.36 12.942-61.428c-.619-18.068-5.456-41.066-21.664-62.884z" fill="#eebc66"/><path d="m437.019 74.98c-10.543-10.543-33.782-28.479-33.782-28.479l-85.433 177.204-42.24 287.54c10.125-.772 26.311-3.333 36.241-5.288 20.451-30.538 87.817-118.594 194.558-196.058 3.004-15.798 5.637-37.812 5.637-53.899 0-68.38-26.629-132.667-74.981-181.02z" fill="#ffdc9e"/><g><path d="m256 0-20 207.646 20 304.354c6.522 0 13.052-.258 19.565-.754 32.883-205.866 109.818-417.41 127.673-464.745-42.803-30.218-93.769-46.501-147.238-46.501z" fill="#fdd278"/><path d="m108.763 46.501c17.855 47.334 94.79 258.879 127.673 464.745 6.512.496 13.042.754 19.564.754v-512c-53.469 0-104.435 16.283-147.237 46.501z" fill="#ffdc9e"/></g><g><path d="m271 45.002h-15l-10 139.17 10 93.322h15z" fill="#ffdc9e"/><path d="m241 45.002h15v232.492h-15z" fill="#ffebba"/></g><path d="m355.139 402.011c58.334-100.814 121.532-179.825 122.163-180.611l-23.39-18.786c-.646.804-65.274 81.603-124.74 184.374z" fill="#fdd278"/></g><g/><g/><g/><g/><g/><g/><g/><g/><g/><g/><g/><g/><g/><g/><g/></svg>