<svg id="Capa_1" enable-background="new 0 0 512 512" height="512" viewBox="0 0 512 512" width="512" xmlns="http://www.w3.org/2000/svg"><g><path d="m256 504.5 64.232-34.869c91.145-49.479 147.902-144.871 147.902-248.58v-148.901h-16.163c-26.779 0-48.488-21.709-48.488-48.488v-16.162h-294.967v16.163c0 26.779-21.709 48.488-48.488 48.488h-16.162v148.901c0 103.709 56.757 199.101 147.902 248.58z" fill="#df646e"/><path d="m340.87 348.773c-51.032 51.032-108.678 88.447-165.986 110.921 5.487 3.489 11.116 6.806 16.884 9.937l64.232 34.869 64.232-34.869c91.145-49.479 147.902-144.871 147.902-248.58v-90.38c-17.267 73.666-60.676 151.514-127.264 218.102z" fill="#dc4955"/><path d="m207.19 441.222c-80.803-43.865-130.999-128.229-130.999-220.171v-118.199c31.616-6.444 56.582-31.411 63.027-63.027h233.565c6.444 31.616 31.411 56.582 63.027 63.027v118.199c0 91.942-50.196 176.306-130.999 220.171l-48.811 26.497z" fill="#91dafa"/><circle cx="256" cy="241.855" fill="#dc4955" r="120.207"/><g fill="#5fa7ee"><g><path d="m207.87 105.315v-65.49h-32.325v81.693c9.968-6.678 20.813-12.145 32.325-16.203z"/><path d="m175.545 362.193v58.64c9.933 7.508 20.496 14.336 31.646 20.388l.68.369v-63.195c-11.513-4.057-22.358-9.524-32.326-16.202z"/></g><g><path d="m256 386.602c-5.465 0-10.855-.313-16.163-.903v73.246l16.163 8.774 16.163-8.774v-73.246c-5.308.589-10.698.903-16.163.903z"/><path d="m256 97.109c5.465 0 10.855.313 16.163.903v-58.187h-32.325v58.187c5.307-.589 10.697-.903 16.162-.903z"/></g><g><path d="m336.455 121.518v-81.693h-32.325v65.49c11.511 4.058 22.357 9.525 32.325 16.203z"/><path d="m304.13 378.396v63.195l.68-.369c11.15-6.053 21.713-12.88 31.646-20.388v-58.64c-9.969 6.677-20.815 12.144-32.326 16.202z"/></g><path d="m111.252 348.93c9.168 15.446 19.997 29.905 32.325 43.104v-352.209h-4.359c-3.771 18.5-13.89 34.715-27.966 46.283z"/><path d="m368.423 392.033c12.328-13.198 23.158-27.657 32.325-43.104v-262.821c-14.076-11.568-24.195-27.783-27.966-46.283h-4.359z"/></g><path d="m256 97.109c-79.941 0-144.746 64.805-144.746 144.746s64.805 144.747 144.746 144.747 144.746-64.805 144.746-144.746-64.805-144.747-144.746-144.747zm96.636 94.12-50.518-7.341c-2.672-.388-4.983-2.067-6.178-4.488l-22.323-45.231c34.35 5.6 63.36 27.291 79.019 57.06zm-114.254-57.06-22.323 45.231c-1.195 2.421-3.505 4.1-6.178 4.488l-50.518 7.341c15.66-29.769 44.67-51.46 79.019-57.06zm-91.498 107.686c0-6.096.511-12.075 1.477-17.902l36.836 35.907c1.934 1.885 2.816 4.601 2.36 7.262l-8.861 51.665c-19.65-19.742-31.812-46.943-31.812-76.932zm58.672 96.733 46.626-24.512c2.39-1.257 5.246-1.257 7.636 0l46.626 24.512c-15.096 7.904-32.255 12.383-50.444 12.383s-35.348-4.479-50.444-12.383zm127.749-19.8-8.861-51.665c-.457-2.662.426-5.377 2.36-7.262l36.836-35.907c.966 5.827 1.477 11.805 1.477 17.902-.001 29.988-12.163 57.189-31.812 76.932z" fill="#f5fcff"/><path d="m368.258 150.485c.364 4.651.554 9.351.554 14.095 0 23.73-4.651 46.37-13.073 67.075l7.9-7.701c.966 5.827 1.477 11.805 1.477 17.902 0 29.989-12.163 57.189-31.811 76.932l-6.703-39.08c-14.5 17.104-32.167 31.436-52.1 42.088l31.941 16.793c-15.096 7.904-32.255 12.383-50.444 12.383-15.815 0-30.851-3.39-44.43-9.47-6.859.802-13.833 1.228-20.907 1.228-14.967 0-29.499-1.856-43.388-5.332 26.527 30.163 65.4 49.204 108.725 49.204 79.941 0 144.746-64.805 144.746-144.746.001-34.651-12.18-66.453-32.487-91.371z" fill="#e6f7fe"/><g><path d="m468.13 64.65h-16.16c-22.602 0-40.99-18.388-40.99-40.99v-16.16c0-4.142-3.358-7.5-7.5-7.5h-224.9c-4.142 0-7.5 3.358-7.5 7.5s3.358 7.5 7.5 7.5h217.4v8.66c0 30.873 25.117 55.99 55.99 55.99h8.66v23.36c0 4.142 3.358 7.5 7.5 7.5s7.5-3.358 7.5-7.5v-30.86c0-4.142-3.358-7.5-7.5-7.5z"/><path d="m468.13 130.51c-4.142 0-7.5 3.358-7.5 7.5v83.04c0 101.055-55.169 193.779-143.979 241.989l-60.651 32.927-60.652-32.927c-88.809-48.21-143.978-140.935-143.978-241.989v-141.4h8.66c30.873 0 55.99-25.117 55.99-55.99v-8.66h27.56c4.142 0 7.5-3.358 7.5-7.5s-3.358-7.5-7.5-7.5h-35.06c-4.142 0-7.5 3.358-7.5 7.5v16.16c0 22.602-18.388 40.99-40.99 40.99h-16.16c-4.142 0-7.5 3.358-7.5 7.5v148.9c0 106.56 58.175 204.336 151.822 255.171l64.229 34.87c1.116.606 2.347.909 3.579.909s2.462-.303 3.579-.909l64.229-34.87c93.647-50.835 151.822-148.611 151.822-255.171v-83.04c0-4.142-3.358-7.5-7.5-7.5z"/><path d="m76.19 201.23c-4.142 0-7.5 3.358-7.5 7.5v12.32c0 94.696 51.699 181.586 134.921 226.762l48.81 26.5c1.116.606 2.347.909 3.579.909s2.462-.303 3.579-.909l48.81-26.5c83.222-45.176 134.921-132.066 134.921-226.762v-118.2c0-3.565-2.51-6.638-6.003-7.349-28.846-5.875-51.291-28.316-57.178-57.17-.712-3.492-3.785-6-7.349-6h-233.56c-3.564 0-6.636 2.508-7.349 6-5.888 28.854-28.332 51.295-57.178 57.17-3.494.711-6.003 3.784-6.003 7.349v70.88c0 4.142 3.358 7.5 7.5 7.5s7.5-3.358 7.5-7.5v-64.971c7.099-1.966 13.821-4.791 20.064-8.341v217.383c-13.024-30.021-20.064-62.853-20.064-96.751v-12.32c0-4.142-3.358-7.5-7.5-7.5zm284.731-69.595c-5.305-5.052-10.974-9.727-16.961-13.979v-70.326h16.961zm-31.962-23.372c-5.574-3.056-11.357-5.777-17.325-8.128v-52.805h17.325zm-32.325-13.139c-5.538-1.536-11.201-2.769-16.972-3.673v-44.121h16.972zm-31.971-5.263c-2.868-.162-5.755-.252-8.663-.252s-5.795.09-8.663.252v-42.531h17.325v42.531zm-32.326 1.59c-5.771.904-11.433 2.137-16.972 3.673v-47.794h16.972zm-31.971 8.684c-5.968 2.351-11.751 5.072-17.325 8.128v-60.933h17.325zm-32.325 17.521c-5.988 4.253-11.656 8.927-16.961 13.979v-84.305h16.961zm87.959-13.047c75.678 0 137.246 61.568 137.246 137.246s-61.568 137.247-137.246 137.247-137.246-61.568-137.246-137.246 61.568-137.247 137.246-137.247zm119.921 230.939c6.723-8.585 12.547-17.907 17.325-27.823v39.121c-5.245 8.67-11.026 17.017-17.325 24.98zm-79.287 53.039v48.538l-16.972 9.214v-54.079c5.771-.905 11.434-2.138 16.972-3.673zm15-5.011c5.968-2.351 11.751-5.072 17.325-8.128v41.617c-5.579 4.085-11.357 7.948-17.325 11.578zm-111.268 0v45.067c-5.968-3.63-11.747-7.493-17.325-11.578v-41.618c5.574 3.057 11.357 5.778 17.325 8.129zm15 5.011c5.538 1.536 11.201 2.769 16.972 3.673v54.079l-16.972-9.214zm-64.287.457v-36.968c5.305 5.052 10.974 9.727 16.961 13.979v39.082c-5.928-5.105-11.587-10.477-16.961-16.093zm104.921 70.142-8.663-4.703v-60.633c2.868.162 5.755.252 8.663.252s5.795-.09 8.663-.252v60.633zm87.959-54.049v-39.082c5.988-4.253 11.656-8.927 16.961-13.979v36.968c-5.373 5.616-11.032 10.987-16.961 16.093zm84.351-184.087c0 33.898-7.04 66.73-20.064 96.751v-217.383c6.243 3.55 12.965 6.374 20.064 8.341zm-35.064-131.381v86.317c-4.779-9.917-10.603-19.238-17.325-27.823v-79.545c4.664 7.902 10.519 14.997 17.325 21.051zm-274.492 0c6.806-6.054 12.661-13.149 17.325-21.051v79.545c-6.723 8.585-12.547 17.907-17.325 27.823zm0 218.056c4.779 9.917 10.603 19.238 17.325 27.823v36.278c-6.3-7.963-12.081-16.31-17.325-24.98z"/><path d="m173.379 324.078c1.429 1.437 3.352 2.209 5.317 2.209.756 0 1.519-.114 2.262-.35 2.676-.847 4.654-3.117 5.129-5.882l8.861-51.665c.874-5.096-.814-10.292-4.516-13.901l-36.837-35.907c-2-1.95-4.919-2.628-7.572-1.756-2.654.871-4.605 3.145-5.062 5.9-1.047 6.315-1.578 12.751-1.578 19.128.001 30.996 12.074 60.196 33.996 82.224zm-18.983-83.768 25.566 24.921c.166.162.241.395.202.624l-6.168 35.963c-12.734-17.317-19.612-38.129-19.612-59.962 0-.515.004-1.03.012-1.546z"/><path d="m159.363 198.729c.358 0 .719-.025 1.08-.078l50.517-7.341c5.117-.743 9.538-3.955 11.825-8.591l22.323-45.231c1.243-2.519.975-5.522-.696-7.78-1.67-2.258-4.462-3.39-7.236-2.941-35.874 5.849-67.444 28.642-84.449 60.971-1.313 2.497-1.115 5.519.514 7.822 1.417 2.004 3.71 3.169 6.122 3.169zm65.191-53.488-15.22 30.84c-.103.208-.301.352-.531.385l-34.465 5.008c12.593-16.951 30.232-29.679 50.216-36.233z"/><path d="m289.215 182.719c2.288 4.637 6.708 7.848 11.825 8.591l50.518 7.341c.361.053.722.078 1.08.078 2.412 0 4.705-1.165 6.123-3.17 1.628-2.303 1.827-5.325.514-7.822-17.005-32.33-48.576-55.123-84.449-60.971-2.777-.453-5.566.683-7.236 2.941-1.671 2.258-1.939 5.261-.696 7.78zm48.447-1.245-34.465-5.008c-.229-.034-.428-.177-.53-.386l-15.22-30.839c19.983 6.554 37.622 19.282 50.215 36.233z"/><path d="m321.568 254.49c-3.702 3.608-5.391 8.805-4.517 13.901l8.861 51.665c.475 2.766 2.453 5.035 5.129 5.882.744.235 1.506.35 2.262.35 1.965 0 3.888-.773 5.317-2.209 21.922-22.028 33.995-51.228 33.995-82.223 0-6.377-.531-12.813-1.578-19.128-.457-2.755-2.407-5.029-5.062-5.9-2.654-.873-5.573-.194-7.572 1.756zm16.436 47.328-6.168-35.963c-.039-.229.037-.462.203-.624l25.566-24.921c.008.516.012 1.031.012 1.545-.001 21.833-6.879 42.646-19.613 59.963z"/><path d="m198.056 338.595c.002 2.788 1.551 5.345 4.021 6.638 16.542 8.661 35.188 13.239 53.923 13.239s37.38-4.578 53.923-13.239c2.47-1.293 4.019-3.85 4.021-6.638s-1.542-5.348-4.01-6.645l-46.625-24.512c-4.577-2.407-10.041-2.406-14.617 0l-46.625 24.512c-2.469 1.297-4.013 3.857-4.011 6.645zm57.617-17.881c.205-.107.449-.107.655 0l32.741 17.213c-10.601 3.649-21.816 5.544-33.069 5.544s-22.468-1.895-33.069-5.544z"/></g></g></svg>