<svg id="Layer_1-2" viewBox="0 0 64 64" xmlns="http://www.w3.org/2000/svg"><g id="Van-2"><path d="m61.70227051 30.5133667-6.70227051-2.5133667-6.91912842-14.70318604c-.65979004-1.40197754-2.06982422-2.29681396-3.61932373-2.29681396h-41.46154785c-1.10455322 0-2 .89544678-2 2v33c0 1.10455322.89544678 2 2 2h58c1.10455322 0 2-.89544678 2-2v-13.61401367c0-.8336792-.51715088-1.57989502-1.29772949-1.87261963z" fill="#e6f0ff"/><path d="m1 42h8v6h-6c-1.10383005 0-2-.89616995-2-2z" fill="#536170"/><path d="m55 42h8v4c0 1.10383005-.89616995 2-2 2h-6z" fill="#536170"/><circle cx="13" cy="46" fill="#748793" r="7"/><circle cx="13" cy="46" fill="#657482" r="3"/><circle cx="50" cy="46" fill="#748793" r="7"/><circle cx="50" cy="46" fill="#657482" r="3"/><g fill="#7dc1ff"><path d="m48.88232422 15h-14.88232422c-.55230713 0-1 .44769287-1 1v11c0 .55230713.44769287 1 1 1h21z"/><path d="m59 33h4v5h-4z"/><path d="m1 29h6v8h-6z"/></g><path d="m1 29h6v4h-6z" fill="#66a8ff"/><path d="m62.05078125 29.57324219-6.31860352-2.36694336-6.74682617-14.33081055c-.81738281-1.74658203-2.59375-2.87548828-4.52539062-2.87548828h-41.45996094c-1.65429688 0-3 1.34570312-3 3v33c0 1.65429688 1.34570312 3 3 3h2.58898926c1.1897583 2.92797852 4.06103516 5 7.41101074 5s6.22125244-2.07202148 7.41101074-5h22.17797852c1.1897583 2.92797852 4.06103516 5 7.41101074 5s6.22125244-2.07202148 7.41101074-5h3.58898926c1.65429688 0 3-1.34570312 3-3v-13.60986328c0-1.25537109-.76171875-2.35986328-1.94921875-2.81689453zm-.05078125 7.42675781h-2v-3h2zm-8.57617188-10h-19.42382812v-11h14.24645996l3.60107422 7.64996338 1.57629395 3.35003662zm-51.42382812 7h4v2h-4zm4-2h-4v-2h4zm-3 15c-.55126953 0-1-.44873047-1-1v-3h3.58898926c-.37683105.9274292-.58898926 1.93884277-.58898926 3 0 .33935547.02825928.67163086.06945801 1zm10 5c-3.30859375 0-6-2.69140625-6-6s2.69140625-6 6-6 6 2.69140625 6 6-2.69140625 6-6 6zm7.93054199-5c.04119873-.32836914.06945801-.66064453.06945801-1 0-4.41113281-3.58886719-8-8-8-2.51965332 0-4.76751709 1.17370605-6.23504639 3h-4.76495361v-3h5c.55224609 0 1-.44775391 1-1v-8c0-.55224609-.44775391-1-1-1h-5v-15c0-.55126953.44873047-1 1-1h41.45996094c1.15820312 0 2.22363281.67675781 2.71582031 1.72558594l.12915039.27441406h-14.30493164c-.55224609 0-1 .44775391-1 1v13c0 .55224609.44775391 1 1 1h21.81890869l6.52191162 2.44287109c.26837158.10339355.46429443.30895996.57012939.55712891h-2.91094971c-.55273438 0-1 .44775391-1 1v5c0 .55224609.44726562 1 1 1h3v2h-5.76495361c-1.4675293-1.82629395-3.71539307-3-6.23504639-3-4.41113281 0-8 3.58886719-8 8 0 .33935547.02825928.67163086.06945801 1h-21.13891602zm29.06945801 5c-3.30859375 0-6-2.69140625-6-6s2.69140625-6 6-6 6 2.69140625 6 6-2.69140625 6-6 6zm11-5h-3.06945801c.04119873-.32836914.06945801-.66064453.06945801-1 0-1.06115723-.2121582-2.0725708-.58898926-3h4.58898926v3c0 .55126953-.44824219 1-1 1z" fill="#292930"/><path d="m13 42c-2.20556641 0-4 1.79443359-4 4s1.79443359 4 4 4 4-1.79443359 4-4-1.79443359-4-4-4zm0 6c-1.10302734 0-2-.89697266-2-2s.89697266-2 2-2 2 .89697266 2 2-.89697266 2-2 2z" fill="#292930"/><path d="m50 42c-2.20605469 0-4 1.79443359-4 4s1.79394531 4 4 4 4-1.79443359 4-4-1.79394531-4-4-4zm0 6c-1.10253906 0-2-.89697266-2-2s.89746094-2 2-2 2 .89697266 2 2-.89746094 2-2 2z" fill="#292930"/></g></svg>