<svg id="Layer_1" viewBox="0 0 1000 1000" xmlns="http://www.w3.org/2000/svg" data-name="Layer 1"><path d="m877.14 519.06-112.7 163.94-6.44 9.39a7.5 7.5 0 1 1 -12.36-8.49l2.68-3.9 108.38-157.68h-713.4l129.91 189 2.09 3a7.5 7.5 0 0 1 -6.18 11.75l-1-.07a7.46 7.46 0 0 1 -5.17-3.18l-9.42-13.7-130.67-190.06a7.5 7.5 0 0 1 6.14-11.74h742a7.5 7.5 0 0 1 6.18 11.74z"/><path d="m769 521a7.49 7.49 0 0 1 -10.44-1.86l-8.23-11.79-79.71-114.21h-427.78v121.68a7.5 7.5 0 0 1 -15 0v-129.18a7.5 7.5 0 0 1 7.5-7.5h439.19a7.5 7.5 0 0 1 6.15 3.21l87.9 126 2.23 3.2a7.51 7.51 0 0 1 -1.81 10.45z"/><path d="m327.19 414.53h-45.43a7.49 7.49 0 0 0 -7.5 7.5v56.4a7.49 7.49 0 0 0 7.5 7.5h45.43a7.5 7.5 0 0 0 7.5-7.5v-56.43a7.5 7.5 0 0 0 -7.5-7.47zm-7.5 56.4h-30.43v-41.4h30.43z"/><path d="m404.63 414.53h-45.43a7.5 7.5 0 0 0 -7.5 7.5v56.4a7.5 7.5 0 0 0 7.5 7.5h45.43a7.5 7.5 0 0 0 7.5-7.5v-56.43a7.5 7.5 0 0 0 -7.5-7.47zm-7.5 56.4h-30.43v-41.4h30.43z"/><path d="m404.63 414.53h-45.43a7.5 7.5 0 0 0 -7.5 7.5v56.4a7.5 7.5 0 0 0 7.5 7.5h45.43a7.5 7.5 0 0 0 7.5-7.5v-56.43a7.5 7.5 0 0 0 -7.5-7.47zm-7.5 56.4h-30.43v-41.4h30.43z"/><path d="m482.07 414.53h-45.43a7.5 7.5 0 0 0 -7.5 7.5v56.4a7.5 7.5 0 0 0 7.5 7.5h45.43a7.5 7.5 0 0 0 7.5-7.5v-56.43a7.5 7.5 0 0 0 -7.5-7.47zm-7.5 56.4h-30.43v-41.4h30.43z"/><path d="m482.07 414.53h-45.43a7.5 7.5 0 0 0 -7.5 7.5v56.4a7.5 7.5 0 0 0 7.5 7.5h45.43a7.5 7.5 0 0 0 7.5-7.5v-56.43a7.5 7.5 0 0 0 -7.5-7.47zm-7.5 56.4h-30.43v-41.4h30.43z"/><path d="m559.51 414.53h-45.43a7.5 7.5 0 0 0 -7.5 7.5v56.4a7.5 7.5 0 0 0 7.5 7.5h45.43a7.49 7.49 0 0 0 7.5-7.5v-56.43a7.49 7.49 0 0 0 -7.5-7.47zm-7.5 56.4h-30.43v-41.4h30.42z"/><path d="m559.51 414.53h-45.43a7.5 7.5 0 0 0 -7.5 7.5v56.4a7.5 7.5 0 0 0 7.5 7.5h45.43a7.49 7.49 0 0 0 7.5-7.5v-56.43a7.49 7.49 0 0 0 -7.5-7.47zm-7.5 56.4h-30.43v-41.4h30.42z"/><path d="m328.33 551.81a61.09 61.09 0 1 0 61.09 61.09 61.17 61.17 0 0 0 -61.09-61.09zm0 107.18a46.09 46.09 0 1 1 46.09-46.09 46.15 46.15 0 0 1 -46.09 46.1z"/><path d="m328.33 581a31.93 31.93 0 1 0 31.93 31.93 32 32 0 0 0 -31.93-31.93zm0 48.86a16.93 16.93 0 1 1 16.93-16.93 17 17 0 0 1 -16.93 16.9z"/><path d="m500 551.81a61.09 61.09 0 1 0 61.09 61.09 61.17 61.17 0 0 0 -61.09-61.09zm0 107.19a46.09 46.09 0 1 1 46.09-46.09 46.15 46.15 0 0 1 -46.09 46.09z"/><path d="m500 581a31.93 31.93 0 1 0 31.93 31.93 32 32 0 0 0 -31.93-31.93zm0 48.86a16.93 16.93 0 1 1 16.93-16.93 16.95 16.95 0 0 1 -16.93 16.9z"/><path d="m671.67 551.81a61.09 61.09 0 1 0 61.09 61.09 61.16 61.16 0 0 0 -61.09-61.09zm0 107.18a46.09 46.09 0 1 1 46.09-46.09 46.14 46.14 0 0 1 -46.09 46.1z"/><path d="m671.67 581a31.93 31.93 0 1 0 31.93 31.9 32 32 0 0 0 -31.93-31.9zm0 48.86a16.93 16.93 0 1 1 16.93-16.96 16.95 16.95 0 0 1 -16.93 16.93z"/><path d="m351.07 146.92v238.73a7.49 7.49 0 0 1 -7.31 7.49h-.38a7.49 7.49 0 0 1 -7.31-7.49v-238.73a7.5 7.5 0 0 1 15 0z"/><path d="m272.87 146.92v238.73a7.49 7.49 0 0 1 -7.31 7.49h-.38a7.49 7.49 0 0 1 -7.31-7.49v-238.73a7.5 7.5 0 1 1 15 0z"/><path d="m304.15 231a7.5 7.5 0 0 1 -7.5 7.5h-31.28a7.5 7.5 0 0 1 0-15h31.28a7.5 7.5 0 0 1 7.5 7.5z"/><path d="m304.15 271.37a7.5 7.5 0 0 1 -7.5 7.5h-31.28a7.5 7.5 0 0 1 0-15h31.28a7.5 7.5 0 0 1 7.5 7.5z"/><path d="m304.15 190.7a7.5 7.5 0 0 1 -7.5 7.5h-31.28a7.5 7.5 0 0 1 0-15h31.28a7.5 7.5 0 0 1 7.5 7.5z"/><path d="m653.83 378.14h-246.56v-132.54h128.11a92.82 92.82 0 0 1 85.2 55.91z" fill="#4db6ac"/><path d="m670.62 393.14h-427.78v114.18h507.44zm-335.93 85.29a7.5 7.5 0 0 1 -7.5 7.5h-45.43a7.49 7.49 0 0 1 -7.5-7.5v-56.43a7.49 7.49 0 0 1 7.5-7.5h45.43a7.5 7.5 0 0 1 7.5 7.5zm77.44 0a7.5 7.5 0 0 1 -7.5 7.5h-45.43a7.5 7.5 0 0 1 -7.5-7.5v-56.43a7.5 7.5 0 0 1 7.5-7.5h45.43a7.5 7.5 0 0 1 7.5 7.5zm77.44 0a7.5 7.5 0 0 1 -7.5 7.5h-45.43a7.5 7.5 0 0 1 -7.5-7.5v-56.43a7.5 7.5 0 0 1 7.5-7.5h45.43a7.5 7.5 0 0 1 7.5 7.5zm77.44 0a7.49 7.49 0 0 1 -7.5 7.5h-45.43a7.5 7.5 0 0 1 -7.5-7.5v-56.43a7.5 7.5 0 0 1 7.5-7.5h45.43a7.49 7.49 0 0 1 7.49 7.5z" fill="#fff176"/><g fill="#bbdefb"><path d="m289.26 429.53h30.43v41.4h-30.43z"/><path d="m366.7 429.53h30.43v41.4h-30.43z"/><path d="m444.14 429.53h30.43v41.4h-30.43z"/><path d="m521.58 429.53h30.43v41.4h-30.43z"/></g><path d="m668.24 392.52a7.16 7.16 0 0 1 -2.6.62h-.64a7.48 7.48 0 0 1 -6.61-4.51l-4.55-10.49-33.25-76.63a92.82 92.82 0 0 0 -85.2-55.91h-128.12v140a7.5 7.5 0 0 1 -15 0v-147.5a7.5 7.5 0 0 1 7.5-7.5h135.61a107.82 107.82 0 0 1 99 64.94l35.84 82.6 2 4.52a7.49 7.49 0 0 1 -3.98 9.86z"/><path d="m377.86 92.5h-146.78a7.5 7.5 0 0 0 -7.5 7.5v46.92a7.5 7.5 0 0 0 7.5 7.5h146.78a7.5 7.5 0 0 0 7.5-7.5v-46.92a7.5 7.5 0 0 0 -7.5-7.5zm-7.5 46.92h-131.78v-31.92h131.78z"/><path d="m238.58 107.5h131.78v31.92h-131.78z" fill="#bdbdbd"/><path d="m336.07 154.42v223.72h-63.2v-99.27h23.78a7.5 7.5 0 0 0 0-15h-23.78v-25.34h23.78a7.5 7.5 0 0 0 0-15h-23.78v-25.33h23.78a7.5 7.5 0 0 0 0-15h-23.78v-28.78z" fill="#b0bec5"/><path d="m864.54 711.49c-30.37 0-44-6.25-61.29-14.16-11.06-5.06-23-10.51-38.81-14.3-5-1.19-10.29-2.22-16.11-3a216 216 0 0 0 -29.61-1.9c-42.54 0-64.85 10.22-84.53 19.23-17.27 7.91-30.92 14.16-61.29 14.16s-44-6.25-61.29-14.16c-19.68-9-42-19.23-84.52-19.23s-64.85 10.22-84.53 19.23c-17.27 7.91-30.92 14.16-61.29 14.16-2.83 0-5.51 0-8.06-.16a133.86 133.86 0 0 1 -19.69-2.15c-13.15-2.52-22.62-6.85-33.54-11.85-19.68-9-42-19.23-84.52-19.23a27.89 27.89 0 0 0 -12.9 52.63 27.64 27.64 0 0 0 12.9 3.18c30.37 0 44 6.25 61.29 14.16 19.68 9 42 19.22 84.52 19.22s64.85-10.21 84.53-19.22c17.27-7.91 30.92-14.16 61.29-14.16s44 6.25 61.29 14.16c19.68 9 42 19.22 84.52 19.22s64.85-10.21 84.53-19.23c17.28-7.91 30.92-14.15 61.29-14.15s44 6.25 61.29 14.16c19.68 9 42 19.22 84.53 19.22a27.95 27.95 0 0 0 27.9-27.9 27.93 27.93 0 0 0 -27.9-27.93zm0 40.8c-39.27 0-60-9.49-78.28-17.86-17.43-8-33.9-15.52-67.54-15.52s-50.1 7.54-67.54 15.52c-18.28 8.37-39 17.86-78.28 17.86s-60-9.49-78.28-17.86c-17.43-8-33.89-15.52-67.53-15.52s-50.11 7.54-67.54 15.52c-18.28 8.37-39 17.86-78.28 17.86s-60-9.49-78.27-17.86c-17.44-8-33.9-15.52-67.54-15.52a12.91 12.91 0 0 1 0-25.81c39.27 0 60 9.49 78.28 17.87 15 6.86 29.26 13.4 54.37 15.09l1 .07c3.79.24 7.83.36 12.15.36 33.64 0 50.11-7.54 67.54-15.52 18.28-8.38 39-17.87 78.28-17.87s60 9.49 78.28 17.87c17.43 8 33.89 15.52 67.53 15.52s50.11-7.49 67.55-15.49c18.28-8.38 39-17.87 78.28-17.87s60 9.49 78.28 17.87c17.43 8 33.9 15.52 67.54 15.52a12.9 12.9 0 1 1 0 25.8z"/><path d="m877.44 739.39a12.92 12.92 0 0 1 -12.9 12.9c-39.27 0-60-9.49-78.28-17.86-17.43-8-33.9-15.52-67.54-15.52s-50.1 7.54-67.54 15.52c-18.28 8.37-39 17.86-78.28 17.86s-60-9.49-78.28-17.86c-17.43-8-33.89-15.52-67.53-15.52s-50.11 7.54-67.54 15.52c-18.28 8.37-39 17.86-78.28 17.86s-60-9.49-78.27-17.86c-17.44-8-33.9-15.52-67.54-15.52a12.91 12.91 0 0 1 0-25.81c39.27 0 60 9.49 78.28 17.87 15 6.86 29.26 13.4 54.37 15.09l1 .07c3.79.24 7.83.36 12.15.36 33.64 0 50.11-7.54 67.54-15.52 18.28-8.38 39-17.87 78.28-17.87s60 9.49 78.28 17.87c17.43 8 33.89 15.52 67.53 15.52s50.11-7.49 67.55-15.49c18.28-8.38 39-17.87 78.28-17.87s60 9.49 78.28 17.87c17.43 8 33.9 15.52 67.54 15.52a12.92 12.92 0 0 1 12.9 12.87z" fill="#bbdefb"/><path d="m143.3 522.32 129.91 189c2.55.11 5.23.16 8.06.16 30.37 0 44-6.25 61.29-14.16 19.68-9 42-19.23 84.53-19.23s64.84 10.22 84.52 19.23c17.28 7.91 30.92 14.16 61.29 14.16s44-6.25 61.29-14.16c19.68-9 42-19.23 84.53-19.23a216 216 0 0 1 29.61 1.9l108.37-157.67zm185.03 151.68a61.09 61.09 0 1 1 61.09-61.09 61.17 61.17 0 0 1 -61.09 61.09zm171.67 0a61.09 61.09 0 1 1 61.09-61.09 61.17 61.17 0 0 1 -61.09 61.09zm171.67 0a61.09 61.09 0 1 1 61.09-61.09 61.16 61.16 0 0 1 -61.09 61.09z" fill="#bcaaa4"/><path d="m500 566.81a46.09 46.09 0 1 0 46.09 46.09 46.15 46.15 0 0 0 -46.09-46.09zm0 78a31.93 31.93 0 1 1 31.93-31.93 32 32 0 0 1 -31.93 31.95z" fill="#757575"/><path d="m671.67 566.81a46.09 46.09 0 1 0 46.09 46.09 46.14 46.14 0 0 0 -46.09-46.09zm0 78a31.93 31.93 0 1 1 31.93-31.91 32 32 0 0 1 -31.93 31.93z" fill="#757575"/><path d="m688.6 612.9a16.93 16.93 0 1 1 -16.93-16.9 17 17 0 0 1 16.93 16.9z" fill="#b0bec5"/><path d="m516.93 612.9a16.93 16.93 0 1 1 -16.93-16.9 16.95 16.95 0 0 1 16.93 16.9z" fill="#b0bec5"/><path d="m328.33 566.81a46.09 46.09 0 1 0 46.09 46.09 46.15 46.15 0 0 0 -46.09-46.09zm0 78a31.93 31.93 0 1 1 31.93-31.93 32 32 0 0 1 -31.93 31.95z" fill="#757575"/><path d="m345.26 612.9a16.93 16.93 0 1 1 -16.93-16.9 16.95 16.95 0 0 1 16.93 16.9z" fill="#b0bec5"/><path d="m877.44 826a27.64 27.64 0 0 0 -12.9-3.18c-30.37 0-44-6.25-61.29-14.16-19.68-9-42-19.23-84.53-19.23s-64.85 10.22-84.53 19.23c-17.27 7.91-30.92 14.16-61.29 14.16s-44-6.25-61.29-14.16c-19.68-9-42-19.23-84.52-19.23s-64.85 10.22-84.53 19.23c-17.27 7.91-30.92 14.16-61.29 14.16s-44-6.25-61.29-14.16c-19.68-9-42-19.23-84.52-19.23a27.91 27.91 0 0 0 0 55.81c30.37 0 44 6.25 61.29 14.16 19.68 9 42 19.23 84.52 19.23s64.85-10.22 84.53-19.23c17.27-7.91 30.92-14.16 61.29-14.16s44 6.25 61.29 14.16c19.68 9 42 19.23 84.52 19.23s64.85-10.22 84.53-19.23c17.28-7.91 30.92-14.16 61.29-14.16s44 6.25 61.29 14.16c19.68 9 42 19.23 84.53 19.23a27.89 27.89 0 0 0 12.9-52.63zm-12.9 37.63c-39.27 0-60-9.49-78.28-17.87-17.43-8-33.9-15.52-67.54-15.52s-50.1 7.54-67.54 15.52c-18.28 8.37-39 17.87-78.28 17.87s-60-9.5-78.28-17.87c-17.43-8-33.89-15.52-67.53-15.52s-50.11 7.54-67.54 15.52c-18.28 8.37-39 17.87-78.28 17.87s-60-9.5-78.27-17.87c-17.44-8-33.9-15.52-67.54-15.52a12.91 12.91 0 0 1 0-25.81c39.27 0 60 9.5 78.28 17.87 17.43 8 33.89 15.52 67.53 15.52s50.11-7.54 67.54-15.52c18.28-8.37 39-17.87 78.28-17.87s60 9.5 78.28 17.87c17.43 8 33.89 15.52 67.53 15.52s50.1-7.54 67.54-15.52c18.28-8.37 39-17.87 78.28-17.87s60 9.5 78.28 17.87c17.43 8 33.9 15.52 67.54 15.52a12.91 12.91 0 0 1 0 25.81z"/><path d="m877.44 850.72a12.92 12.92 0 0 1 -12.9 12.91c-39.27 0-60-9.49-78.28-17.87-17.43-8-33.9-15.52-67.54-15.52s-50.1 7.54-67.54 15.52c-18.28 8.37-39 17.87-78.28 17.87s-60-9.5-78.28-17.87c-17.43-8-33.89-15.52-67.53-15.52s-50.11 7.54-67.54 15.52c-18.28 8.37-39 17.87-78.28 17.87s-60-9.5-78.27-17.87c-17.44-8-33.9-15.52-67.54-15.52a12.91 12.91 0 0 1 0-25.81c39.27 0 60 9.5 78.28 17.87 17.43 8 33.89 15.52 67.53 15.52s50.11-7.54 67.54-15.52c18.28-8.37 39-17.87 78.28-17.87s60 9.5 78.28 17.87c17.43 8 33.89 15.52 67.53 15.52s50.1-7.54 67.54-15.52c18.28-8.37 39-17.87 78.28-17.87s60 9.5 78.28 17.87c17.43 8 33.9 15.52 67.54 15.52a12.92 12.92 0 0 1 12.9 12.9z" fill="#bbdefb"/><path d="m877.44 764.11v61.89a27.64 27.64 0 0 0 -12.9-3.18c-30.37 0-44-6.25-61.29-14.16-19.68-9-42-19.23-84.53-19.23s-64.85 10.22-84.53 19.23c-17.27 7.91-30.92 14.16-61.29 14.16s-44-6.25-61.29-14.16c-19.68-9-42-19.23-84.52-19.23s-64.85 10.22-84.53 19.23c-17.27 7.91-30.92 14.16-61.29 14.16s-44-6.25-61.29-14.16c-19.68-9-42-19.23-84.52-19.23a27.64 27.64 0 0 0 -12.9 3.18v-61.88a27.64 27.64 0 0 0 12.9 3.18c30.37 0 44 6.25 61.29 14.16 19.68 9 42 19.22 84.52 19.22s64.85-10.21 84.53-19.22c17.27-7.91 30.92-14.16 61.29-14.16s44 6.25 61.29 14.16c19.68 9 42 19.22 84.52 19.22s64.85-10.21 84.53-19.23c17.28-7.91 30.92-14.15 61.29-14.15s44 6.25 61.29 14.16c19.68 9 42 19.22 84.53 19.22a27.64 27.64 0 0 0 12.9-3.18z" fill="#90caf9"/><path d="m877.44 875.45v17h-754.88v-50.39a27.64 27.64 0 0 0 12.9 3.18c30.37 0 44 6.25 61.29 14.16 19.68 9 42 19.23 84.52 19.23s64.85-10.22 84.53-19.23c17.27-7.91 30.92-14.16 61.29-14.16s44 6.25 61.29 14.16c19.68 9 42 19.23 84.52 19.23s64.85-10.22 84.53-19.23c17.28-7.91 30.92-14.16 61.29-14.16s44 6.25 61.29 14.16c19.68 9 42 19.23 84.53 19.23a27.64 27.64 0 0 0 12.9-3.18z" fill="#90caf9"/><path d="m892.44 739.39v160.61a7.5 7.5 0 0 1 -7.5 7.5h-769.88a7.5 7.5 0 0 1 -7.5-7.5v-194a7.5 7.5 0 0 1 15 0v186.5h754.88v-153.11a7.5 7.5 0 1 1 15 0z"/></svg>