<svg id="Layer_1" viewBox="0 0 1000 1000" xmlns="http://www.w3.org/2000/svg" data-name="Layer 1"><path d="m802.75 227.69a17.54 17.54 0 0 1 -1.11-1.93c-14.41-29.66-35.19-52.76-61.76-68.76-20-12-36.09-15.3-36.25-15.33h-.25l-104.11-21.77a107.78 107.78 0 0 1 -31.27 33.31 119.09 119.09 0 0 1 -136 0 107.78 107.78 0 0 1 -31.25-33.31l-104.13 21.72-.32.06c-.09 0-16.14 3.28-36.18 15.32-26.57 16-47.35 39.1-61.76 68.76a17.54 17.54 0 0 1 -1.11 1.93l-75.11 111.67 85.57 58.45 58.29-81.21a16 16 0 0 1 29 9.27l2.14 556.37h405.73l2.13-556.37a16 16 0 0 1 29-9.27l58.28 81.21 85.57-58.45zm-136.11 248a16 16 0 0 1 -16 16h-123.15a16 16 0 0 1 -16-16v-142.48a16 16 0 0 1 16-16h123.15a16 16 0 0 1 16 16z" fill="#ffa726"/><path d="m543.49 349.21h91.15v110.48h-91.15z" fill="#f57f17"/><g fill="#fff" opacity=".5"><path d="m792.75 237.69a17.54 17.54 0 0 1 -1.11-1.93c-14.41-29.66-35.19-52.76-61.76-68.76-20-12-36.09-15.3-36.25-15.33h-.25l-104.11-21.77a107.78 107.78 0 0 1 -31.27 33.31 119.09 119.09 0 0 1 -136 0 107.78 107.78 0 0 1 -31.25-33.31l-104.13 21.72-.32.06c-.09 0-16.14 3.28-36.18 15.32-26.57 16-47.35 39.1-61.76 68.76a17.54 17.54 0 0 1 -1.11 1.93l-75.11 111.67 85.57 58.45 58.29-81.21a16 16 0 0 1 29 9.27l2.14 556.37h405.73l2.13-556.37a16 16 0 0 1 29-9.27l58.28 81.21 85.57-58.45zm-136.11 248a16 16 0 0 1 -16 16h-123.15a16 16 0 0 1 -16-16v-142.48a16 16 0 0 1 16-16h123.15a16 16 0 0 1 16 16z"/><path d="m533.49 359.21h91.15v110.48h-91.15z"/></g><g fill="#413b32"><path d="m913.28 334.68-83.36-123.94c-41.15-83.56-114.73-99.42-120.11-100.47l-115.9-24.18a16 16 0 0 0 -17.91 9.23 75.18 75.18 0 0 1 -26.32 31.68 87 87 0 0 1 -99.36 0 75.18 75.18 0 0 1 -26.32-31.68 16 16 0 0 0 -17.92-9.23l-115.9 24.18c-5.38 1-79 16.91-120.11 100.47l-83.35 123.94a16 16 0 0 0 4.28 22.14l111.59 76.23a16 16 0 0 0 22-3.88l38.59-53.77 2 522.91a16 16 0 0 0 16 15.93h437.62a16 16 0 0 0 16-15.93l2-522.91 38.59 53.77a16 16 0 0 0 22 3.88l111.61-76.23a16 16 0 0 0 4.28-22.14zm-121 63.13-58.28-81.21a16 16 0 0 0 -29 9.27l-2.14 556.37h-405.73l-2.13-556.37a16 16 0 0 0 -29-9.27l-58.28 81.21-85.57-58.45 75.11-111.67a17.54 17.54 0 0 0 1.11-1.93c14.4-29.66 35.18-52.76 61.75-68.76 20-12 36.09-15.3 36.18-15.32l.32-.06 104.11-21.72a107.78 107.78 0 0 0 31.27 33.31 119.09 119.09 0 0 0 136 0 107.78 107.78 0 0 0 31.25-33.31l104.11 21.72h.25c.16 0 16.21 3.29 36.25 15.33 26.57 16 47.35 39.1 61.76 68.76a17.54 17.54 0 0 0 1.11 1.93l75.11 111.67z"/><path d="m650.64 317.21h-123.15a16 16 0 0 0 -16 16v142.48a16 16 0 0 0 16 16h123.15a16 16 0 0 0 16-16v-142.48a16 16 0 0 0 -16-16zm-16 142.48h-91.15v-110.48h91.15z"/></g></svg>