<svg id="Layer_1" viewBox="0 0 1000 1000" xmlns="http://www.w3.org/2000/svg" data-name="Layer 1"><path d="m654.15 252.33a39.71 39.71 0 0 1 -4 8c-.09.12-.18.25-.26.38a29.78 29.78 0 0 1 -14.77 12 23.38 23.38 0 0 1 -7.57 1.29l-91.47.26c-8.83-5.63-19.72-7.57-31.41-5.38a41.93 41.93 0 0 0 -13.34 5 27.69 27.69 0 0 1 -15.42-9.53 38.85 38.85 0 0 1 -6.72-11.47z" fill="#a1887f"/><path d="m461.93 294.87-59.44 43.05a15.74 15.74 0 0 1 -19-.47l-2.93-2.35-.18-62.6 62.56-.18a69.55 69.55 0 0 0 8.67 12.82 63.66 63.66 0 0 0 10.32 9.73z" fill="#6d4c41"/><path d="m620.87 306a17 17 0 0 1 -1.78 1.48l-138.24 100.52a18.5 18.5 0 0 1 -5.16 2.63 18.2 18.2 0 0 1 -5.71.92h-.05a18.47 18.47 0 0 1 -9.48-2.6l83.12-58.74a42.21 42.21 0 0 0 18-33.55 38.25 38.25 0 0 0 -1.26-10.48z" fill="#80cbc4"/><path d="m395 158a42.12 42.12 0 0 1 -42 42.2 42.08 42.08 0 0 1 -.12-84.15h.12a42.13 42.13 0 0 1 42 41.95z" fill="#ffccbc"/><path d="m529.58 316.11a10.13 10.13 0 0 1 -4.47 7.93l-101.74 71.89a5 5 0 0 0 -.47.33l-23.48 16.59a16.45 16.45 0 0 1 -1.54 1l-.26.14a15.55 15.55 0 0 1 -7.22 1.78 15.74 15.74 0 0 1 -9.77-3.4l-100.94-80.1a16 16 0 0 0 -19.9 25.06l100.91 80.07a47.85 47.85 0 0 0 28.63 10.32l.29 104.36c0 1.32 0 2.56-.09 3.85-2 38.55 1.37 75.8 10.12 110.7 1.6 6.42 2.74 11.9 3.37 16.27 0 .11 0 .21.05.31l28.26 171c0 .26.08.51.13.76s.07.39.1.62v.24s0 .07 0 .11a24.56 24.56 0 0 1 -6.5 20.64l-.11.11a23.56 23.56 0 0 1 -13.31 7l-.83.12h-.23a24.38 24.38 0 0 1 -26.49-19.81l-.15-.87s0 0 0-.07l-33.94-193.89a87.57 87.57 0 0 0 -13.27-34.49 16 16 0 0 0 -29.39 8.87v5.42a407.4 407.4 0 0 1 -20.79 123l-34.79 95.83-.32.88c-4 10.16-14.9 16.26-26.08 14.65l-.68-.12a22.2 22.2 0 0 1 -2.58-.58h-.13c-.52-.15-1.08-.33-1.54-.49l-.12-.05c-12.82-4.58-19.7-18.32-15.37-30.66v-.09l.54-1.38c0-.1.07-.21.11-.31s0-.07 0-.11a686.94 686.94 0 0 0 35.22-128.14c7.9-46.41 10.14-91.17 6.67-133-.18-2.25-.39-4.49-.6-6.72-1.64-17.64-2.5-35.5-2.55-53.09l-.54-188a67.79 67.79 0 0 1 67.51-67.91l37-.11.1 36.8-12-9.64a16 16 0 1 0 -20 25l37.91 30.42.67.53 8.44 6.78a47.84 47.84 0 0 0 57.84 1.43l83.83-60.72 1.46-1.05a10 10 0 0 1 4-1.79c4.1-.77 7-.31 9.16 1.57.13.13.25.24.38.35a10.08 10.08 0 0 1 1 1.19c2.35 3.16 4.76 6.19 7.15 9a4.88 4.88 0 0 1 1.34 3.67z" fill="#ff3d00"/><g fill="#fff" opacity=".5"><path d="m644.15 262.33a39.71 39.71 0 0 1 -4 8c-.09.12-.18.25-.26.38a29.78 29.78 0 0 1 -14.77 12 23.38 23.38 0 0 1 -7.57 1.29l-91.47.26c-8.83-5.63-19.72-7.57-31.41-5.38a41.93 41.93 0 0 0 -13.34 5 27.69 27.69 0 0 1 -15.42-9.53 38.85 38.85 0 0 1 -6.72-11.47z"/><path d="m451.93 304.87-59.44 43.05a15.74 15.74 0 0 1 -19-.47l-2.93-2.35-.18-62.6 62.56-.18a69.55 69.55 0 0 0 8.67 12.82 63.66 63.66 0 0 0 10.32 9.73z"/><path d="m610.87 316a17 17 0 0 1 -1.78 1.48l-138.24 100.52a18.5 18.5 0 0 1 -5.16 2.63 18.2 18.2 0 0 1 -5.71.92h-.05a18.47 18.47 0 0 1 -9.48-2.6l83.12-58.74a42.21 42.21 0 0 0 18-33.55 38.25 38.25 0 0 0 -1.26-10.48z"/><path d="m385 168a42.12 42.12 0 0 1 -42 42.2 42.08 42.08 0 0 1 -.12-84.15h.12a42.13 42.13 0 0 1 42 41.95z"/><path d="m519.58 326.11a10.13 10.13 0 0 1 -4.47 7.93l-101.74 71.89a5 5 0 0 0 -.47.33l-23.48 16.59a16.45 16.45 0 0 1 -1.54 1l-.26.14a15.55 15.55 0 0 1 -7.22 1.78 15.74 15.74 0 0 1 -9.77-3.4l-100.94-80.1a16 16 0 0 0 -19.9 25.06l100.91 80.07a47.85 47.85 0 0 0 28.63 10.32l.29 104.36c0 1.32 0 2.56-.09 3.85-2 38.55 1.37 75.8 10.12 110.7 1.6 6.42 2.74 11.9 3.37 16.27 0 .11 0 .21.05.31l28.26 171c0 .26.08.51.13.76s.07.39.1.62v.24s0 .07 0 .11a24.56 24.56 0 0 1 -6.5 20.64l-.11.11a23.56 23.56 0 0 1 -13.31 7l-.83.12h-.23a24.38 24.38 0 0 1 -26.49-19.81l-.15-.87s0 0 0-.07l-33.94-193.89a87.57 87.57 0 0 0 -13.27-34.49 16 16 0 0 0 -29.39 8.87v5.42a407.4 407.4 0 0 1 -20.79 123l-34.79 95.83-.32.88c-4 10.16-14.9 16.26-26.08 14.65l-.68-.12a22.2 22.2 0 0 1 -2.58-.58h-.13c-.52-.15-1.08-.33-1.54-.49l-.12-.05c-12.82-4.58-19.7-18.32-15.37-30.66v-.09l.54-1.38c0-.1.07-.21.11-.31s0-.07 0-.11a686.94 686.94 0 0 0 35.22-128.14c7.9-46.41 10.14-91.17 6.67-133-.18-2.25-.39-4.49-.6-6.72-1.64-17.64-2.5-35.5-2.55-53.09l-.54-188a67.79 67.79 0 0 1 67.51-67.91l37-.11.1 36.8-12-9.64a16 16 0 1 0 -20 25l37.91 30.42.67.53 8.44 6.78a47.84 47.84 0 0 0 57.84 1.43l83.83-60.72 1.46-1.05a10 10 0 0 1 4-1.79c4.1-.77 7-.31 9.16 1.57h.05c.13.13.25.24.38.35a10.08 10.08 0 0 1 1 1.19c2.35 3.16 4.76 6.19 7.15 9a4.88 4.88 0 0 1 1.29 3.67z"/></g><g fill="#413b32"><path d="m450 869.42a16.22 16.22 0 0 1 -2.58.21 16 16 0 0 1 -15.77-13.44v-.22s0-.07 0-.11v-.24c0-.23-.06-.43-.1-.62s-.09-.5-.13-.76l-28.26-171c0-.1 0-.2-.05-.31-.63-4.37-1.77-9.85-3.37-16.27-8.75-34.9-12.15-72.15-10.12-110.7.07-1.29.1-2.53.09-3.85l-.29-104.36-.06-19.67a16 16 0 0 1 8.35-14.1l.26-.14a16 16 0 0 1 7.35-1.81 16 16 0 0 1 16 16v8.62l.3 115.35c0 2 0 3.83-.14 5.7-1.86 35.31 1.24 69.37 9.21 101.19 1.85 7.4 3.19 13.89 4 19.29l28.2 170.73v.16c0 .14.05.28.07.42l.25 1.53a.25.25 0 0 1 0 .08 16 16 0 0 1 -13.21 18.32z"/><path d="m689 236.23a79.08 79.08 0 0 1 -1.58 16 73 73 0 0 1 -11 26.33l-.31.44a63.72 63.72 0 0 1 -18.11 17.85 57.79 57.79 0 0 1 -12.45 6 55.13 55.13 0 0 1 -17.94 3.15h-6.74l-60.55.17-29.57.09a15.92 15.92 0 0 1 -10.54-4c-.13-.11-.25-.22-.38-.35a16 16 0 0 1 10.95-27.62h5.39l91.47-.26a23.38 23.38 0 0 0 7.57-1.29 29.78 29.78 0 0 0 14.77-12c.08-.13.17-.26.26-.38a39.71 39.71 0 0 0 4-8l-185 .53a38.85 38.85 0 0 0 6.72 11.47 27.69 27.69 0 0 0 15.42 9.53 21.55 21.55 0 0 0 3.11.43h.29.75a16 16 0 0 1 9.6 28.8l-.57.41a16 16 0 0 1 -9 2.79h-.09c-.54 0-1.07 0-1.6 0h-.87l-.8-.05h-.08a56.68 56.68 0 0 1 -30.19-11.33 63.66 63.66 0 0 1 -10.36-9.73 69.55 69.55 0 0 1 -8.67-12.82 74.7 74.7 0 0 1 -6.78-18.55 78.91 78.91 0 0 1 -1.76-13.43c-.06-1.12-.09-2.25-.09-3.38a16 16 0 0 1 16-16l222.69-.65h.04a16 16 0 0 1 16 16z"/><path d="m493.84 306.29a16 16 0 0 1 -16-16 16 16 0 1 1 16 16z"/><path d="m467.76 255.91a16 16 0 0 1 -15.6 16.38h-.36-8.9l-62.56.18.18 62.6v7.65a16 16 0 0 1 -16 16.05 16 16 0 0 1 -9.56-3.17l-.67-.53a16 16 0 0 1 -5.77-12.26l-.1-33.48-.1-36.8v-16a16 16 0 0 1 15.95-16l41.43-.12 28.69-.09 17.31-.05h.1a16 16 0 0 1 15.96 15.64z"/><path d="m420.76 256.89a16 16 0 0 1 -16 15.52h-.68l-55.76.16-37 .11a67.79 67.79 0 0 0 -67.51 67.91l.54 188c0 17.59.91 35.45 2.55 53.09.21 2.23.42 4.47.6 6.72 3.47 41.88 1.23 86.64-6.67 133a686.94 686.94 0 0 1 -35.15 128.11s0 .07 0 .11-.07.21-.11.31l-.54 1.38v.09l-.07.18a16.06 16.06 0 0 1 -15 10.34 16 16 0 0 1 -15.27-20.7c0-.14.09-.28.14-.42l.06-.2v-.05l.08-.21c0-.1.07-.21.11-.31l.6-1.55a1.46 1.46 0 0 0 .07-.19l.05-.12c31.87-84.17 46.03-171.94 39.79-247.17-.17-2.13-.36-4.25-.57-6.39-1.73-18.61-2.64-37.44-2.69-56l-.54-188a99.82 99.82 0 0 1 99.42-100l93.51-.27q.45 0 .9 0a16 16 0 0 1 15.09 16.46z"/><path d="m561.58 316.62a42.21 42.21 0 0 1 -18 33.55l-83.12 58.74-28 19.76-11.2 7.91-3.4 2.41a47.44 47.44 0 0 1 -27.4 8.74h-1.16a47.85 47.85 0 0 1 -28.6-10.33l-100.95-80.11a16 16 0 0 1 19.9-25.06l100.94 80.1a15.74 15.74 0 0 0 9.77 3.4 15.55 15.55 0 0 0 7.22-1.78l.26-.14a16.45 16.45 0 0 0 1.54-1l23.48-16.59a5 5 0 0 1 .47-.33l101.78-71.89a10.13 10.13 0 0 0 4.47-7.93 4.88 4.88 0 0 0 -1.24-3.66c-2.39-2.8-4.8-5.83-7.15-9a10.08 10.08 0 0 0 -1-1.19c-.13-.11-.25-.22-.38-.35-2.19-1.88-5.06-2.34-9.16-1.57a10 10 0 0 0 -4 1.79l-1.46 1.05-.57.41-83.26 60.31a47.84 47.84 0 0 1 -57.84-1.43l-8.52-6.8-.67-.53-37.93-30.42a16 16 0 1 1 20-25l12 9.64 32.08 25.74 2.93 2.35a15.74 15.74 0 0 0 19 .47l59.44-43.05 18.59-13.46 7.26-5.26c.65-.47 1.31-.92 2-1.35.5-.33 1-.64 1.53-.94a41.93 41.93 0 0 1 13.34-5c11.69-2.19 22.58-.25 31.41 5.38a40.93 40.93 0 0 1 10.82 10.15c1.92 2.59 3.88 5.05 5.81 7.31a36.92 36.92 0 0 1 7.64 14.47 38.25 38.25 0 0 1 1.33 10.49z"/><path d="m654.24 280.22a16 16 0 0 0 -28.24 15.06 9.33 9.33 0 0 1 -.13 1.43 16.32 16.32 0 0 1 -5 9.26 17 17 0 0 1 -1.78 1.48l-138.24 100.55a18.5 18.5 0 0 1 -5.16 2.63 18.2 18.2 0 0 1 -5.71.92h-.05a18.47 18.47 0 0 1 -9.48-2.6c-.32-.18-.63-.37-.93-.58l-18.27-12.37a16 16 0 0 0 -17.88 0 5 5 0 0 0 -.47.33 16 16 0 0 0 .42 26.21l9.17 6.2 9.11 6.17a50.33 50.33 0 0 0 28.32 8.67h.15a50.61 50.61 0 0 0 29.59-9.66l138.25-100.6a48.88 48.88 0 0 0 19.61-31.71 40.12 40.12 0 0 0 .47-4.76 30.74 30.74 0 0 0 -3.75-16.63z"/><path d="m405.19 105.54a73.62 73.62 0 0 0 -52.19-21.54h-.22a74.08 74.08 0 0 0 .22 148.15h.22a74.08 74.08 0 0 0 52-126.61zm-52.1 94.61h-.09a42.08 42.08 0 0 1 -.12-84.15h.12a42.08 42.08 0 0 1 .12 84.15z"/><path d="m673 252.27a16 16 0 0 1 -.05-32l139.41-.4a16 16 0 0 1 0 32l-139.41.4z"/><path d="m787.26 251.94a16 16 0 0 1 -16-15.95l-.12-42.21a16 16 0 0 1 16-16 16 16 0 0 1 16 15.95l.12 42.21a16 16 0 0 1 -16 16z"/><path d="m463.3 851.49c0-.14 0-.28-.07-.42a.25.25 0 0 0 0-.08c0-.16 0-.33-.07-.48-.06-.35-.11-.71-.18-1 0-.14 0-.28-.07-.42v-.16a16 16 0 0 0 -31.53 5.38c0 .26.08.51.13.76s.07.39.1.62v.22s0 .07 0 .11a24.56 24.56 0 0 1 -6.5 20.64l-.11.11a23.56 23.56 0 0 1 -13.31 7l-.83.12h-.23a24.38 24.38 0 0 1 -26.54-19.89l-.15-.87s0 0 0-.07l-33.94-193.89a87.57 87.57 0 0 0 -13.27-34.49 16 16 0 0 0 -29.39 8.87v5.42a407.4 407.4 0 0 1 -20.79 123l-34.79 95.83-.32.88c-4 10.16-14.9 16.26-26.08 14.65l-.68-.12a22.2 22.2 0 0 1 -2.58-.58h-.13c-.52-.15-1.08-.33-1.54-.49l-.12-.05c-12.82-4.58-19.7-18.32-15.37-30.66v-.09l.09-.26.33-.85c.08-.19.16-.38.23-.58 0 0 0-.07 0-.11a16 16 0 0 0 -29.45-12.43c-.17.35-.33.71-.47 1.08l-.05.12c-.24.6-.46 1.18-.67 1.74 0 .1-.08.21-.11.31a1.8 1.8 0 0 0 -.08.21v.05l-.06.2c-.05.14-.1.28-.14.42-9.86 28.77 5.68 60.48 34.86 70.95 1.45.53 2.79.93 3.91 1.26l.51.13c1.74.47 3.39.84 5 1.13l.74.13c26.26 4.34 52.21-10.25 61.69-34.69l.12-.3 35.29-97.18c.06-.15.11-.3.16-.45a459.12 459.12 0 0 0 12.46-45.53l23 131.86c.07.47.15.92.23 1.31a.13.13 0 0 0 0 .06 56.11 56.11 0 0 0 62.06 45.68h.21l1.91-.27a55.33 55.33 0 0 0 31.4-16.53l.21-.21a56.33 56.33 0 0 0 14.98-47.1z"/></g></svg>