<svg height="512" viewBox="0 0 64 64" width="512" xmlns="http://www.w3.org/2000/svg"><g id="Bucket"><path d="m52.978 25-2.445-16.3a1.987 1.987 0 0 0 -1.977-1.7h-5.556v-4h5.556a5.963 5.963 0 0 1 5.932 5.11l2.534 16.89z" fill="#ffdf57"/><path d="m6.978 25 2.534-16.89a5.963 5.963 0 0 1 5.932-5.11h5.556v4h-5.556a1.987 1.987 0 0 0 -1.977 1.7l-2.445 16.3z" fill="#ffdf57"/><path d="m12.5 63a4.012 4.012 0 0 1 -3.965-3.471l-3.535-26.529h54l-3.537 26.529a4.012 4.012 0 0 1 -3.963 3.471z" fill="#ffdf57"/><g fill="#efc43a"><path d="m29 39h6v18h-6z"/><path d="m42 57 2-18h6l-2 18z"/><path d="m16 57-2-18h6l2 18z"/><path d="m21 1h22v8h-22z"/><path d="m1 25h62v8h-62z"/></g><path d="m63 24h-5.116l-2.406-16.039a6.958 6.958 0 0 0 -6.922-5.961h-4.556v-1a1 1 0 0 0 -1-1h-22a1 1 0 0 0 -1 1v1h-4.556a6.958 6.958 0 0 0 -6.922 5.961l-2.406 16.039h-5.116a1 1 0 0 0 -1 1v8a1 1 0 0 0 1 1h3.124l3.422 25.661a5.014 5.014 0 0 0 4.954 4.339h39a5.014 5.014 0 0 0 4.956-4.339l3.42-25.661h3.124a1 1 0 0 0 1-1v-8a1 1 0 0 0 -1-1zm-14.444-20a4.969 4.969 0 0 1 4.944 4.258l2.361 15.742h-2.022l-2.317-15.445a2.982 2.982 0 0 0 -2.966-2.555h-4.556v-2zm-27.556 6h22a1 1 0 0 0 1-1v-1h4.556a.993.993 0 0 1 .988.852l2.272 15.148h-39.632l2.272-15.148a.993.993 0 0 1 .988-.852h4.556v1a1 1 0 0 0 1 1zm1-8h20v6h-20zm-11.5 6.258a4.969 4.969 0 0 1 4.944-4.258h4.556v2h-4.556a2.982 2.982 0 0 0 -2.966 2.555l-2.317 15.445h-2.022zm43.972 51.142a3.009 3.009 0 0 1 -2.972 2.6h-39a3.009 3.009 0 0 1 -2.974-2.6l-3.383-25.4h51.714zm7.528-27.4h-60v-6h60z" fill="#352d34"/><path d="m29 58h6a1 1 0 0 0 1-1v-18a1 1 0 0 0 -1-1h-6a1 1 0 0 0 -1 1v18a1 1 0 0 0 1 1zm1-18h4v16h-4z" fill="#352d34"/><path d="m42 58h6a1 1 0 0 0 .994-.89l2-18a1 1 0 0 0 -.994-1.11h-6a1 1 0 0 0 -.994.89l-2 18a1 1 0 0 0 .994 1.11zm2.9-18h3.987l-1.787 16h-3.983z" fill="#352d34"/><path d="m16 58h6a1 1 0 0 0 .994-1.11l-2-18a1 1 0 0 0 -.994-.89h-6a1 1 0 0 0 -.994 1.11l2 18a1 1 0 0 0 .994.89zm3.1-18 1.779 16h-3.979l-1.783-16z" fill="#352d34"/></g></svg>