<svg id="Layer_2" enable-background="new 0 0 64 64" viewBox="0 0 64 64" xmlns="http://www.w3.org/2000/svg"><g><path d="m60.69 56.94-19.93 4.34 7.87-46.12 8.6-.65z" fill="#ffeba8"/><path d="m48.63 15.16-7.87 46.12h-37.45l9.48-46.28z" fill="#ffc68d"/><path d="m23.08 22.15c0 1.46-1.19 2.65-2.65 2.65s-2.65-1.19-2.65-2.65 1.19-2.65 2.65-2.65 2.65 1.19 2.65 2.65z" fill="#ffeba8"/><path d="m40.08 22.15c0 1.46-1.19 2.65-2.65 2.65s-2.65-1.19-2.65-2.65 1.19-2.65 2.65-2.65 2.65 1.19 2.65 2.65z" fill="#ffeba8"/><path d="m43.08 47.7h-36.98l-2.79 13.58 36.77.01z" fill="#fd6489"/><path d="m40.76 62.29h-37.45c-.3 0-.58-.14-.77-.37s-.27-.54-.2-.83l9.48-46.29c.1-.47.5-.8.98-.8l35.8.16 8.56-.65c.54-.05 1.03.37 1.07.92l3.46 42.44c.04.5-.29.95-.78 1.06l-19.93 4.34c-.01 0-.01 0-.02 0-.03.01-.06.01-.1.01-.05 0-.07.01-.1.01zm-36.22-2h35.38l7.53-44.13-33.84-.16zm49.23-25.88c.55 0 1 .45 1 1v13.98c0 .28-.12.55-.33.74l-10.27 9.39 15.45-3.36-3.31-40.57-6.83.52-7.25 42.48 10.54-9.63v-13.55c0-.55.45-1 1-1z"/><path d="m53.77 31.59c-.55 0-1-.45-1-1v-15.82c0-.55.45-1 1-1s1 .45 1 1v15.82c0 .55-.45 1-1 1z"/><path d="m60.69 57.95c-.27 0-.54-.11-.74-.32l-6.92-7.55c-.37-.41-.35-1.04.06-1.41s1.04-.34 1.41.06l6.92 7.55c.37.41.35 1.04-.06 1.41-.19.17-.43.26-.67.26z"/><path d="m20.43 25.8c-2.01 0-3.65-1.64-3.65-3.65s1.64-3.65 3.65-3.65 3.65 1.64 3.65 3.65c0 2.02-1.64 3.65-3.65 3.65zm0-5.3c-.91 0-1.65.74-1.65 1.65s.74 1.65 1.65 1.65 1.65-.74 1.65-1.65-.74-1.65-1.65-1.65z"/><path d="m37.43 25.8c-2.01 0-3.65-1.64-3.65-3.65s1.64-3.65 3.65-3.65 3.65 1.64 3.65 3.65c0 2.02-1.64 3.65-3.65 3.65zm0-5.3c-.91 0-1.65.74-1.65 1.65s.74 1.65 1.65 1.65 1.65-.74 1.65-1.65-.74-1.65-1.65-1.65z"/><path d="m20.43 20.5c-.09 0-.18-.01-.27-.04-.53-.15-.84-.7-.7-1.23l3.06-11.03c1.06-3.82 4.57-6.49 8.53-6.49 2.63 0 5.1 1.16 6.79 3.17s2.39 4.65 1.93 7.24l-1.35 7.55c-.1.54-.62.91-1.16.81s-.91-.62-.81-1.16l1.35-7.55c.36-2-.19-4.04-1.49-5.6-1.31-1.56-3.23-2.46-5.26-2.46-3.07 0-5.78 2.06-6.6 5.02l-3.06 11.03c-.12.45-.52.74-.96.74z"/><path d="m43.17 16.14c-.06 0-.12 0-.18-.02-.54-.1-.9-.62-.81-1.16l.9-4.97c.28-1.56-.14-3.15-1.15-4.36-1.02-1.22-2.51-1.91-4.09-1.91-2.4 0-4.52 1.62-5.14 3.94l-2.07 7.68c-.14.53-.69.85-1.23.71-.53-.14-.85-.69-.71-1.23l2.07-7.68c.86-3.19 3.77-5.42 7.08-5.42 2.18 0 4.23.96 5.62 2.63 1.4 1.67 1.97 3.86 1.59 6l-.9 4.97c-.08.48-.51.82-.98.82z"/><path d="m37.43 55.55c-.07 0-.13-.01-.2-.02-.06-.01-.12-.03-.18-.06-.06-.02-.12-.05-.18-.09-.05-.03-.1-.07-.15-.12-.19-.19-.29-.44-.29-.71 0-.13.02-.26.07-.38.06-.12.13-.23.22-.33l.15-.12c.06-.04.12-.07.18-.09.06-.03.12-.05.18-.06.2-.04.4-.02.58.06.12.05.23.12.33.21.09.1.16.21.21.33s.08.25.08.38c0 .27-.11.52-.29.71-.1.09-.21.16-.33.21-.12.06-.25.08-.38.08z"/><path d="m32 55.55h-27.31c-.55 0-1-.45-1-1s.45-1 1-1h27.31c.55 0 1 .45 1 1 0 .56-.45 1-1 1z"/><path d="m43.08 48.7h-36.98c-.55 0-1-.45-1-1s.45-1 1-1h36.98c.55 0 1 .45 1 1s-.45 1-1 1z"/></g></svg>