<svg viewBox="0 0 64 64" xmlns="http://www.w3.org/2000/svg"><g id="Pants-2" data-name="Pants"><path d="m4.12012 41.46973 7.18994-31.46973.59473.09668a125.36558 125.36558 0 0 0 20.0957 1.62891 125.3489 125.3489 0 0 0 20.09472-1.62891l.59473-.09668 7.18994 31.46973-21.46142 7.15966-4.875-14.62939h-3.08692l-4.87646 14.62988z" fill="#61bcd1"/><path d="m50.99756 25.99951-2.644-15.35693c1.29882-.167 2.53027-.34668 3.73925-.5459l.602-.10059 4.03223 17.66114z" fill="#4ba3c6"/><path d="m11.30518 10.00244.60009.09375c1.21045.19922 2.44287.3794 3.7417.54639l-2.64209 15.35791-5.73188 1.65722z" fill="#4ba3c6"/><g fill="#54aed1"><path d="m32 18.73c-2.9668 0-5.93018-.1001-8.80762-.29687l-.105-.00733-.104.01465c-4.05567-.29883-8.166-.77979-12.20361-1.43066l-1.03177-.17479 1.56206-6.835.59473.09668a125.36558 125.36558 0 0 0 20.0957 1.62891 125.3489 125.3489 0 0 0 20.09472-1.62891l.59473-.09668 1.56152 6.835-1.03125.17481c-4.02.64843-8.13427 1.13037-12.22021 1.43115l-.09863-.01319-.10254.00635c-2.87983.19625-5.83983.29588-8.79883.29588z"/><path d="m1.088 45.729 1.582-4.739 1.45.48 23.358 7.789-1.578 4.741z"/><path d="m36.639 44.997h26.153v4.996h-26.153z" transform="matrix(.949 -.316 .316 .949 -12.467 18.157)"/></g><path d="m41 22v-10.60107l.36377-.02247c1.13916-.07031 2.48486-.15283 3.63623-.24853v10.87207z" fill="#4ba3c6"/><path d="m19 22v-10.87207c1.15137.0957 2.49707.17822 3.63623.24853l.36377.02247v10.60107z" fill="#4ba3c6"/><g fill="#2c3638"><path d="m63.85889 45.41357-1.58008-4.73974a.998.998 0 0 0 -1.2627-.63281l-.40576.13525-6.94535-30.39893a.99513.99513 0 0 0 -1.13574-.76416l-.59473.09668a123.78271 123.78271 0 0 1 -39.86914 0l-.59473-.09668a1.00179 1.00179 0 0 0 -1.13574.76416l-6.94503 30.39789-.406-.13421a.99677.99677 0 0 0 -1.2627.63281l-1.58008 4.73974a1.0004 1.0004 0 0 0 .63089 1.26465l24.81348 8.271a.99808.99808 0 0 0 1.26318-.63281l1.58008-4.74024a1.00033 1.00033 0 0 0 -.63428-1.26562l-.9483-.31623 4.33109-12.99432h1.6455l4.33118 12.99445-.94836.3161a1.00033 1.00033 0 0 0 -.63428 1.26562l1.58008 4.74024a.99808.99808 0 0 0 1.26318.63281l24.81348-8.271a1.0004 1.0004 0 0 0 .63086-1.26465zm-10.37201-27.43487 1.88434 8.2475-3.49183-1.01233-1.17739-6.8255c.89654-.12714 1.79516-.24915 2.68475-.39276zm-.44623-1.95325c-2.326.37506-4.68823.68305-7.04065.94135v-5.03907c1.9776-.22161 3.95319-.47479 5.92383-.79052zm-11.04065-3.69885c.6673-.05328 1.33313-.13538 2-.1994v8.8728h-2zm-2 .1203v5.02368c-2.62646.16351-5.30878.25794-8 .25794v-5.00269c2.66791 0 5.33508-.10876 8-.27893zm-20-.31976c.66681.064 1.3327.14611 2 .1994v8.67346h-2zm4 .3197q2.99844.19143 6 .2392v5.00848c-2.0199-.03052-4.02576-.101-6-.22394zm-11.92383-1.30963c1.97071.31567 3.94629.56891 5.92383.79052v5.03907c-2.35474-.25843-4.71863-.56665-7.04071-.941zm-1.56311 6.84167.10755.01819c.88616.14294 1.783.26471 2.67742.39148l-1.17742 6.82532-3.49183 1.01233zm14.754 34.75794-22.9126-7.6377.94873-2.84619c26.91423 8.97561 23.26948 6.56513 21.9639 10.48389zm9.2251-19.05323a1 1 0 0 0 -.9487-.68359h-3.08692a1 1 0 0 0 -.94873.68359l-4.55914 13.678-19.65149-6.55324 2.82214-12.35223 5.159-1.49567a.99965.99965 0 0 0 .707-.79053l1.29474-7.50726c.907.11572 1.81378.219 2.71991.317v3.02034a1 1 0 0 0 1 1h4a1 1 0 0 0 1-1v-2.52686c1.9754.12128 3.9801.19214 6 .22254v8.30432a.99985.99985 0 0 0 .55273.89453l2 1a1.00012 1.00012 0 0 0 .89454-1.78906l-1.44724-.72363v-7.65184c2.69244 0 5.37189-.09552 8-.25684v2.52684a1 1 0 0 0 1 1h4a1 1 0 0 0 1-1v-3.02032c.90594-.098 1.81262-.2013 2.71991-.31708l1.29474 7.50732a.99965.99965 0 0 0 .707.79053l5.159 1.49567 2.82293 12.35565-19.65207 6.55023zm4.24072 19.05323-.94727-2.84327c.78359-.2614 22.12673-7.38169 22.91114-7.64062l.94873 2.84619z"/><circle cx="34.5" cy="15.5" r=".707"/></g></g></svg>