<svg id="Layer_1" viewBox="0 0 64 64" xmlns="http://www.w3.org/2000/svg" data-name="Layer 1"><path d="m39.26 26.21 19.01-23.21 3.09 2.54-19.01 23.2" fill="#884a39"/><path d="m40.47 32.37 4.23 3.46-6.06 7.4c-1.91 2.33-4.75 3.75-7.87 3.94l-6.28.4-.85-6.24c-.43-3.1.41-6.16 2.32-8.49l6.06-7.4 4.23 3.46" fill="#7895b2"/><path d="m35.27 26.57h6v8h-6z" fill="#567189" transform="matrix(.774 .634 -.634 .774 28.04 -17.33)"/><path d="m18 55.55-2.15-1.96c-.08-.11-.16-.22-.26-.31-.93-.98-2.41-.98-3.34.08l-1.93 2.19-1.08-.82c-1.05-.8-2.43-.64-3.32.37l-2.46 2.79c-.31.35-.47.81-.47 1.29 0 .27.06.56.17.82.27.61.82 1 1.43 1h33.47c.8 0 1.23-1.05.72-1.75l-3.46-4.73c-1.21-1.37-3-1.81-4.59-1.13l-3.77 1.61-5.23-5.38c-1.7-1.25-3.57-.59-5.01 1.79l-1.13 1.87" fill="#c38154"/><path d="m58.9 2.23c-.21-.17-.47-.25-.73-.22s-.51.16-.67.36l-18.38 22.43c-.21-.17-.47-.25-.73-.22s-.51.16-.67.36l-1.9 2.32-3.16-2.59c-.43-.35-1.06-.29-1.41.14l-6.06 7.4c-2.07 2.53-3 5.91-2.53 9.26l.85 6.24c.07.5.49.87.99.87h.06l6.28-.4c3.38-.21 6.51-1.77 8.58-4.31l6.06-7.4c.17-.21.25-.47.22-.73s-.16-.51-.36-.67l-3.33-2.73 1.9-2.32c.35-.43.29-1.06-.14-1.41s18.37-22.44 18.37-22.44c.35-.43.29-1.06-.14-1.41l-3.09-2.54zm-20.28 24.75 3.09 2.54-3.8 4.64-3.09-2.53 3.8-4.64zm4.66 8.99-5.43 6.63c-1.72 2.1-4.33 3.41-7.16 3.58l-5.35.34-.72-5.32c-.39-2.8.38-5.62 2.1-7.72l5.43-6.63 2.39 1.96-1.9 2.32c-.35.43-.29 1.06.14 1.41l4.64 3.8c.19.15.41.23.63.23.29 0 .58-.12.77-.37l1.9-2.32 2.56 2.1zm-1.08-8.64-1.55-1.27 17.76-21.65 1.55 1.27-17.75 21.66z"/><path d="m4.6 62h33.46c.71 0 1.36-.41 1.7-1.07.37-.72.3-1.61-.18-2.26l-3.52-4.8c-1.49-1.69-3.74-2.24-5.74-1.39l-3.14 1.34-4.75-4.88s-.08-.08-.12-.11c-.94-.69-1.97-.96-3-.75-1.29.26-2.49 1.23-3.45 2.83l-.58.95c-.43-.2-.9-.31-1.39-.29-.91.02-1.76.42-2.4 1.14l-1.31 1.5-.34-.26c-1.47-1.12-3.43-.91-4.68.51l-2.46 2.79c-.46.53-.72 1.22-.72 1.95 0 .42.09.84.26 1.22.43.97 1.35 1.6 2.34 1.6zm-.38-3.45 2.46-2.79c.31-.36.71-.54 1.1-.54.29 0 .59.1.86.31l1.08.82c.42.32 1.01.26 1.35-.14l1.93-2.19c.26-.29.59-.46.93-.46.37.02.67.14.98.47 0 0 .05.04.11.14.04.06.09.11.14.16l1.41 1.29c.41.37 1.04.34 1.41-.06.37-.41.34-1.04-.06-1.41l-1.09-1 .73-1.21c.66-1.08 1.41-1.76 2.13-1.9.46-.09.9.03 1.37.35l5.17 5.32c.29.3.73.39 1.11.22l3.77-1.61c1.2-.51 2.53-.18 3.4.8l3.46 4.73c.05.06.02.15.07.16h-33.44c-.2 0-.4-.16-.51-.41-.06-.13-.09-.28-.09-.42 0-.24.08-.46.22-.63z"/><path d="m19.55 57.34.21.11c.49.25 1.09.05 1.34-.45.25-.49.05-1.09-.45-1.34l-.21-.11c-.49-.25-1.09-.05-1.34.45-.25.49-.05 1.09.45 1.34z"/></svg>