<svg id="a" height="512" viewBox="0 0 512 512" width="512" xmlns="http://www.w3.org/2000/svg" data-name="Layer 1"><path d="m440.3704828 192.4752601c-5.8176496-5.0869279-13.3226933-7.4366783-20.0461024-8.4561936.186595-2.0831162.2187971-4.0481659.1395035-5.8791412 13.1174536-17.2696936 22.1433859-43.4278543 17.2302381-65.3218845-11.2928728-46.2526333-136.098493-43.1836803-173.611727-46.0486914-22.8994173-1.4654566-78.8600871-.7445472-76.1763786-22.3533317.5295212-7.7464328-11.1464208-8.7132655-11.8482055-.9119299-.6929756 19.4070757 12.9844476 25.8471097 33.5805744 30.3438204 44.697249 7.6927463 105.2208914 3.6084819 156.2245752 12.8099075 46.617462 7.720146 58.4527544 19.7377227 60.1725836 28.4594787 3.2038395 14.9410932-.7550149 32.5054941-9.5161363 47.3745834-10.5204235-13.8679831-27.0868262-2.4541067-49.0404254-3.0436062-23.7142349.958479-97.0422547-21.798883-112.3844916-2.3515484-26.7032485-7.5657706-55.0253738-9.3516068-82.4806791-5.3038636-149.2391961 21.8567006-142.8447584 248.2678286-12.0969916 260.095378 0 0-13.7996197 42.1606646 26.0631859 62.0944791 1.469415-38.1410925 24.5895464-74.2195925 65.9283916-83.248338-17.3698073-15.6151919-43.2145649-20.311156-65.1689396-12.5771288 0 0-4.8530783-51.9230467-33.9735052-66.3350653 0 0 29.6398079-34.3263068 22.4889639-60.3894927 18.2222784 7.7258376 52.3513765 11.3060671 72.5532604-6.0139146 3.9340378 3.226878 8.6079052 5.5914934 13.423051 7.5982946l-5.7627057 20.8959159-43.4321577 13.4888999c-3.1338084.9732394-4.8852571 4.3029632-3.912041 7.4367948.9652709 3.1623865 4.3876526 4.8847196 7.4368052 3.9119978-.0000103.0000199 46.5341032-14.4523329 46.5341032-14.4523329 1.933034-.6002823 3.4273553-2.1435126 3.9654937-4.0947447l6.4826624-23.5065452c6.9501518 1.7613983 14.5524775 2.8726266 22.5424399 3.2919062l-6.9163886 32.4538323-60.5168098 21.8736757c-3.0862509 1.1154458-4.6836328 4.5216205-3.568187 7.6076616.8744661 2.4193042 3.1561075 3.9236216 5.5883903 3.9236216.6703487 0 1.3525343-.1144549 2.0192713-.3554346l63.6205831-22.9954594c1.9303078-.6976808 3.3636269-2.3421776 3.7916443-4.3494022l8.1082852-38.0475819c39.6262483.3559081 96.8000668-25.6157442 109.9821056-64.4682064 10.8830897 1.1513237 20.9213036 7.2858976 20.3924805 20.0270979-4.5760926 34.1173357-72.5701131 58.8154432-101.0197492 56.9231292-3.2790218-.1941749-6.0888054 2.3059141-6.2813189 5.5819522-.1927232 3.2757818 2.3066901 6.0876159 5.5827049 6.2803624 15.9035623.733402 32.1436531-2.7712122 50.8309606-9.8654621 26.640279-10.8782098 61.2939983-30.3546463 62.7721087-58.9197113-.0007687-9.7551588-3.2645039-17.555334-9.7014262-23.1837789z" fill="#ffaa5a"/><g><path d="m222.5867864 375.8250453c18.7261197 3.912274 29.9215879 14.9093335 29.9215879 14.9093335-50.1083581 12.3667551-64.0021448 52.6876943-65.9284149 83.248338-39.8627824-19.9338145-26.0631859-62.0945024-26.0631859-62.0945024-12.0606455.5818255-101.9425612-22.2000855-98.5816922-121.6115765-1.4724874-134.3883248 127.4185716-160.580101 207.4302237-128.2780206 2.3997999 13.6202839 8.0039739 86.9051829-46.6840419 94.8594313-15.0719942 3.7618223-42.1236314-2.6871992-46.8264395-5.4253799 7.1509139 26.0631859-22.4889406 60.3894694-22.4889406 60.3894694 29.1204969 14.4120652 33.9735052 66.3350886 33.9735052 66.3350886 13.0796445-4.1918267 23.4738196-4.6341835 35.2473984-2.3321814z" fill="#ffaa5a"/><path d="m222.586297 375.8260473c18.7269818 3.912274 29.9232189 14.9080286 29.9232189 14.9080286-41.3291424 9.8144367-56.7498413 40.0359327-62.5051373 61.2259082-9.7468635-19.2863009-2.9452794-40.0708377-2.9452794-40.0708377-12.1641543.5581089-101.9164814-22.2214257-98.5799738-121.612838-.0823651-111.6033977 90.840077-156.6801696 166.6168331-133.1797715-17.9475606 21.9616221-28.7226191 68.8547374-6.6874555 88.3227066-1.4815086 1.1846573-3.0215831 2.2922787-4.6135665 3.3134364-11.6643601 7.7092617-27.2671332 10.1701117-40.6603782 8.9545803q.0022835-.0023301.0046602-.0023301c-3.0455109-.2437362-5.8148114-.6063522-8.7238997-1.1091312-6.0943889-1.0579229-13.0016111-2.8861843-18.561684-5.1425708 7.1511003 26.0622772-22.4877989 60.3894461-22.4877989 60.3894461 29.1215687 14.4116924 33.9729227 66.3334808 33.9729227 66.3334808 9.5394374-3.1758901 18.3029489-4.054364 26.0994657-3.5673948.3215316 2.260251.4450972 3.5673948.4450972 3.5673948 2.9779475-.9902957 5.8812383-1.7569012 8.7029753-2.3301076z" fill="#f79146"/><path d="m252.5083742 390.7343788c-41.3042446 8.949781-64.5282117 45.2818482-65.9284149 83.248338-39.8627824-19.9338145-26.0631859-62.0945024-26.0631859-62.0945024-14.0132478.1376574-101.3667142-22.5050337-98.5839646-121.6094126 27.729151 32.8719222 77.3316687 27.3821672 91.433074 21.5433363 29.1204969 14.4120652 33.9735052 66.3350886 33.9735052 66.3350886 21.4893883-7.9245804 48.8858817-2.5558181 65.1689862 12.5771521z" fill="#fcbc86"/><g fill="#d84d1d"><path d="m420.4638606 178.1399253c13.117454-17.2697407 22.1433988-43.4278258 17.2302381-65.3219078-11.2929138-46.2526235-136.0984748-43.1836688-173.611727-46.0486681-22.8994228-1.4655294-78.8600407-.7445306-76.1763786-22.3533317.5295107-7.7464807-11.1464029-8.7132735-11.8482055-.9119299-.692963 19.4070471 12.9844392 25.8470932 33.5805744 30.3438204 44.6972657 7.6927025 105.2209009 3.6084861 156.2245985 12.8098842 46.6174387 7.7201693 58.4527544 19.737746 60.1725603 28.4594787 3.2038493 14.941105-.7550347 32.5054847-9.516113 47.3746067.031005.0349746 3.5128789 5.9365484 3.9444528 15.6480475z"/><path d="m440.3704595 192.4752601c-5.8176496-5.0869279-13.32267-7.4367016-20.0460791-8.4561936-.3181296 3.551084-1.0879273 7.446558-2.5296814 11.6125807 10.8830644 1.1513374 20.9213137 7.2859216 20.3925039 20.0270979-4.5760904 34.1173293-72.5701306 58.8154664-101.0197725 56.9231292-3.2790218-.1941749-6.0888054 2.3059141-6.2812956 5.5819522-.1927465 3.2758051 2.3066668 6.0876392 5.5826816 6.2803624 15.9035578.7334475 32.1436556-2.771236 50.8309606-9.8654387 26.640283-10.8782212 61.2940257-30.354678 62.772132-58.9197346-.0007687-9.7551589-3.2645272-17.5553107-9.7014495-23.1837556z"/><path d="m295.6858046 259.9889638-6.9163653 32.4538323-60.5168098 21.8736524c-3.0862742 1.1154458-4.6836562 4.5216438-3.5682103 7.6076616.8744661 2.4193042 3.1561075 3.9236449 5.5883903 3.9236449.6703487 0 1.3525576-.1144549 2.0192713-.3554346l63.6205831-22.9954827c1.9303078-.6976575 3.3636502-2.3421543 3.7916676-4.3493789l8.1082619-38.0476052c-4.1160186.1374297-8.1678894.0968859-12.1267889-.1108898z"/><path d="m256.0684991 273.9129646-43.4321577 13.4889232c-3.1338084.9732161-4.8852571 4.3029632-3.9120177 7.4367715.9652428 3.1623898 4.3876294 4.8847489 7.4367819 3.9120211-.0000103.0000199 46.5341032-14.4523329 46.5341032-14.4523329 1.933034-.6002823 3.4273553-2.1435359 3.9654937-4.094768l6.4826624-23.5065219c-4.0038472-1.0146687-7.7931149-2.2423092-11.3121599-3.6799856l-5.7627057 20.8958926z"/></g><path d="m248.7195726 166.2115451c2.0233723-3.5473792 4.1787218-6.6405737 6.3761531-9.1144956-16.6674376-4.7918504-46.8264576-10.6140477-82.4819423-5.3041871-14.7342746 27.6337184-25.1568589 62.2528649 3.2409933 99.6398063 0 0 42.4142269 18.1157946 72.5533769-6.0139146-19.9034066-16.7486739-12.3985959-56.9241334.3114189-79.207209z" fill="#fcbc86"/><path d="m248.4085032 245.4192434c-1.4815086 1.1846573-3.0215831 2.2922787-4.6135665 3.3134364-14.4099713 9.418988-33.1014692 10.7837066-49.3796177 7.843119-6.0943125-1.0563322-13.0015961-2.8870009-18.561684-5.1425708-26.1321338-32.9616793-18.608193-67.6522984-7.722-90.9231067 35.0285314-4.8046586 64.2831026.9996162 80.5867958 5.7017734-12.708407 22.2828426-20.2136837 62.4585351-.3099276 79.2073488z" fill="#ffaa5a"/><path d="m420.4638606 178.1399253c-1.0900147-12.1469897-3.3197899-15.1760963-5.9831378-17.9861227-10.3556002-10.0390604-26.4432458-.2276995-47.0017855-.7053949-23.7045812.9594044-97.0475893-21.7994636-112.3832116-2.3513582 0 .0000233 0 .0000466-.0001165.0000699-17.9467559 21.962863-28.7224588 68.8539175-6.6874555 88.3216347 38.8583478 27.1912649 108.4159442 14.5949838 144.1096759-15.9623873 19.7251951-17.7341033 27.6521396-30.4226118 27.946031-51.3164414z" fill="#f79146"/><path d="m321.8958805 189.2494125c.6093973 19.7239072 29.2368847 19.7192784 29.8433495-.0003237-.6094162-19.7235748-29.2368904-19.7188983-29.8433495.0003237z" fill="#3b464c"/><path d="m252.5083742 390.7343788c-31.2516211 6.7657792-54.664803 30.4393738-62.5036227 61.2248596-9.7476791-19.2846465-2.9446269-40.0710241-2.9446269-40.0710241s-87.5403729-8.316993-97.5379327-101.9744577c31.7858837 13.3659867 63.8436909 1.9083815 63.8436909 1.9083815 29.1204969 14.4120652 33.9735052 66.3350886 33.9735052 66.3350886 8.388838-2.8059047 17.2776853-4.1287707 26.0999317-3.5693521.0490022.3478851.3478618.3307588.8157707.056342 2.7511115.2058184 5.3797059.5830861 7.8760434 1.0901875.1004509.097981.2498807.1322569.4556525.0906412 9.2771734 1.4123804 24.3456198 9.1649369 29.9215879 14.9093335z" fill="#ffaa5a"/></g></svg>