<svg height="512" viewBox="0 0 128 128" width="512" xmlns="http://www.w3.org/2000/svg"><g><g><path d="m64 6.5 17.054 40.446 40.446 17.054-40.446 17.054-17.054 40.446-17.054-40.446-40.446-17.054 40.446-17.054z" fill="#ededf9"/><path d="m51.526 76.474-29.583-12.474 29.583-12.474 12.474-29.583 12.474 29.583 29.583 12.474-29.583 12.474-12.474 29.583z" fill="#537980"/><circle cx="64" cy="64" fill="#f9d42f" r="6"/></g><g fill="#102a3f"><path d="m74.457 96.7a1.751 1.751 0 0 0 -2.292.933l-1.156 2.742a1.75 1.75 0 1 0 3.224 1.36l1.157-2.745a1.749 1.749 0 0 0 -.933-2.29z"/><path d="m122.18 62.388-39.79-16.778-1.59-3.773a1.75 1.75 0 1 0 -3.225 1.36l1.867 4.429a1.75 1.75 0 0 0 .933.933l36.625 15.441-36.626 15.441a1.75 1.75 0 0 0 -.933.933l-5.047 11.973a1.75 1.75 0 1 0 3.224 1.36l4.772-11.317 39.79-16.778a1.749 1.749 0 0 0 0-3.224z"/><path d="m71.191 104.444a1.751 1.751 0 0 0 -2.292.933l-4.899 11.623-15.441-36.626a1.75 1.75 0 0 0 -.933-.933l-36.626-15.441 36.626-15.441a1.75 1.75 0 0 0 .933-.933l15.441-36.626 10.135 24.041a1.749 1.749 0 1 0 3.224-1.359l-11.747-27.862a1.749 1.749 0 0 0 -3.224 0l-16.778 39.79-39.79 16.778a1.749 1.749 0 0 0 0 3.224l39.79 16.778 16.778 39.79a1.749 1.749 0 0 0 3.224 0l6.512-15.444a1.749 1.749 0 0 0 -.933-2.292z"/><path d="m33.81 59a1.746 1.746 0 0 0 -2.291-.933l-10.255 4.321a1.749 1.749 0 0 0 0 3.224l28.926 12.198 12.2 28.926a1.749 1.749 0 0 0 3.224 0l12.196-28.926 28.926-12.2a1.749 1.749 0 0 0 0-3.224l-28.926-12.196-12.2-28.926a1.749 1.749 0 0 0 -3.224 0l-12.196 28.926-11.173 4.71a1.75 1.75 0 1 0 1.359 3.225l11.83-4.988a1.75 1.75 0 0 0 .933-.933l10.861-25.756 10.861 25.758a1.75 1.75 0 0 0 .933.933l25.759 10.861-25.759 10.861a1.75 1.75 0 0 0 -.933.933l-10.861 25.758-10.861-25.758a1.75 1.75 0 0 0 -.933-.933l-25.759-10.861 6.431-2.711a1.749 1.749 0 0 0 .932-2.289z"/><path d="m80.9 69.846a1.754 1.754 0 0 0 .679-.138l4.636-1.955a1.75 1.75 0 0 0 -1.36-3.225l-4.635 1.955a1.75 1.75 0 0 0 .68 3.363z"/><path d="m71.75 64a7.75 7.75 0 1 0 -7.75 7.75 7.759 7.759 0 0 0 7.75-7.75zm-12 0a4.25 4.25 0 1 1 4.25 4.25 4.255 4.255 0 0 1 -4.25-4.25z"/></g></g></svg>