<?xml version="1.0" encoding="UTF-8"?>
<svg xmlns="http://www.w3.org/2000/svg" width="512" height="512" viewBox="0 0 128 128"><g><path d="M109.005,64.089,82.791,50.124V54.09a4.874,4.874,0,0,1-4.875,4.874h0a8.786,8.786,0,0,1-8.786-8.786h0A4.874,4.874,0,0,1,74,45.3H77.97L64.005,19.089,50.04,45.3h3.965a4.874,4.874,0,0,1,4.875,4.875h0a8.787,8.787,0,0,1-8.787,8.786h0a4.875,4.875,0,0,1-4.875-4.874V50.124L19.005,64.089,45.218,78.054V74.089a4.875,4.875,0,0,1,4.875-4.875h0A8.787,8.787,0,0,1,58.88,78h0a4.875,4.875,0,0,1-4.875,4.875H50.04l13.965,26.213L77.97,82.876H74A4.875,4.875,0,0,1,69.13,78h0a8.787,8.787,0,0,1,8.786-8.787h0a4.874,4.874,0,0,1,4.875,4.875v3.965Z" fill="#fd3a69"/><g><path d="M70.209,34.485A1.75,1.75,0,1,0,73.3,32.841l-.568-1.066a1.749,1.749,0,1,0-3.088,1.645Z" fill="#282d66"/><path d="M109.821,62.56,83.607,48.6a1.75,1.75,0,0,0-2.572,1.545v3.965a3.129,3.129,0,0,1-3.125,3.125,7.045,7.045,0,0,1-7.037-7.037A3.129,3.129,0,0,1,74,47.069h3.965A1.75,1.75,0,0,0,79.508,44.5l-1.791-3.361a1.75,1.75,0,1,0-3.089,1.646l.42.788H74a6.633,6.633,0,0,0-6.625,6.625A10.548,10.548,0,0,0,77.91,60.731a6.633,6.633,0,0,0,6.625-6.625v-1.05l20.741,11.049L84.535,75.156V74.105A6.633,6.633,0,0,0,77.91,67.48,10.549,10.549,0,0,0,67.373,78.018,6.633,6.633,0,0,0,74,84.643h1.05L64,105.384,52.948,84.643H54a6.633,6.633,0,0,0,6.625-6.625A10.549,10.549,0,0,0,50.086,67.48a6.632,6.632,0,0,0-6.624,6.625v1.051L22.72,64.105,43.462,53.056v1.05a6.632,6.632,0,0,0,6.625,6.625A10.548,10.548,0,0,0,60.623,50.194,6.633,6.633,0,0,0,54,43.569h-1.05L64,22.827l1.281,2.4a1.75,1.75,0,1,0,3.089-1.646l-2.826-5.3a1.749,1.749,0,0,0-3.088,0L48.489,44.5a1.75,1.75,0,0,0,1.544,2.573H54a3.129,3.129,0,0,1,3.125,3.125,7.045,7.045,0,0,1-7.037,7.037,3.128,3.128,0,0,1-3.124-3.125V50.141A1.751,1.751,0,0,0,44.389,48.6L18.175,62.56a1.751,1.751,0,0,0,0,3.09L44.389,79.616a1.751,1.751,0,0,0,2.573-1.545V74.105a3.129,3.129,0,0,1,3.125-3.125,7.045,7.045,0,0,1,7.036,7.038A3.129,3.129,0,0,1,54,81.143H50.033a1.75,1.75,0,0,0-1.544,2.573l13.965,26.213a1.75,1.75,0,0,0,3.088,0L79.508,83.716a1.75,1.75,0,0,0-1.545-2.573H74a3.129,3.129,0,0,1-3.125-3.125A7.046,7.046,0,0,1,77.91,70.98a3.129,3.129,0,0,1,3.125,3.125v3.966a1.75,1.75,0,0,0,2.572,1.545L109.821,65.65a1.751,1.751,0,0,0,0-3.09Z" fill="#282d66"/></g></g></svg>
