<svg id="Layer_1" viewBox="0 0 1000 1000" xmlns="http://www.w3.org/2000/svg" data-name="Layer 1"><path d="m461.45 116c-181.78 0-329.66 147.88-329.66 329.66s147.71 329.49 329.36 329.66a0 0 0 0 1 .05 0h.85c181.5-.32 329.05-148.09 329.05-329.66 0-181.78-147.88-329.66-329.65-329.66zm215.4 545.06a304.63 304.63 0 1 1 89.22-215.4 302.63 302.63 0 0 1 -89.22 215.4z" fill="#64b5f6"/><path d="m654.22 252.88a272.63 272.63 0 1 0 79.85 192.78 270.84 270.84 0 0 0 -79.85-192.78zm-79.22 14.25a45.91 45.91 0 1 1 0 64.95 46 46 0 0 1 0-64.95zm-113.55-73.95a45.93 45.93 0 1 1 -45.93 45.92 46 46 0 0 1 45.93-45.92zm-178.53 73.95a45.91 45.91 0 1 1 0 64.95 46 46 0 0 1 0-64.95zm-28 224.45a45.93 45.93 0 1 1 45.93-45.92 46 46 0 0 1 -45.96 45.92zm93 132.61a45.93 45.93 0 1 1 0-65 45.82 45.82 0 0 1 -.05 65zm113.58 73.95a45.93 45.93 0 1 1 45.92-45.93 46 46 0 0 1 -45.97 45.93zm0-120.56a131.93 131.93 0 1 1 93.28-38.64 131.06 131.06 0 0 1 -93.33 38.64zm178.5 46.61a45.93 45.93 0 1 1 0-65 45.82 45.82 0 0 1 0 65zm28-132.61a45.93 45.93 0 1 1 45.93-45.92 46 46 0 0 1 -45.93 45.92z" fill="#bdbdbd"/><path d="m532.1 375a99.91 99.91 0 1 0 29.27 70.66 99.26 99.26 0 0 0 -29.27-70.66zm-7.94 133.38a88.7 88.7 0 1 1 26-62.72 88.11 88.11 0 0 1 -26 62.72z" fill="#616161"/><g fill="#fff" opacity=".5"><path d="m451.45 126c-181.78 0-329.66 147.88-329.66 329.66s147.71 329.49 329.36 329.66a0 0 0 0 1 .05 0h.85c181.5-.32 329.05-148.09 329.05-329.66 0-181.78-147.88-329.66-329.65-329.66zm215.4 545.06a304.63 304.63 0 1 1 89.22-215.4 302.63 302.63 0 0 1 -89.22 215.4z"/><path d="m644.22 262.88a272.63 272.63 0 1 0 79.85 192.78 270.84 270.84 0 0 0 -79.85-192.78zm-79.22 14.25a45.91 45.91 0 1 1 0 64.95 46 46 0 0 1 0-64.95zm-113.55-73.95a45.93 45.93 0 1 1 -45.93 45.92 46 46 0 0 1 45.93-45.92zm-178.53 73.95a45.91 45.91 0 1 1 0 64.95 46 46 0 0 1 0-64.95zm-28 224.45a45.93 45.93 0 1 1 45.93-45.92 46 46 0 0 1 -45.96 45.92zm93 132.61a45.93 45.93 0 1 1 0-65 45.82 45.82 0 0 1 -.05 65zm113.58 73.95a45.93 45.93 0 1 1 45.92-45.93 46 46 0 0 1 -45.97 45.93zm0-120.56a131.93 131.93 0 1 1 93.28-38.64 131.06 131.06 0 0 1 -93.33 38.64zm178.5 46.61a45.93 45.93 0 1 1 0-65 45.82 45.82 0 0 1 0 65zm28-132.61a45.93 45.93 0 1 1 45.93-45.92 46 46 0 0 1 -45.93 45.92z"/><path d="m522.1 385a99.91 99.91 0 1 0 29.27 70.66 99.26 99.26 0 0 0 -29.27-70.66zm-7.94 133.38a88.7 88.7 0 1 1 26-62.72 88.11 88.11 0 0 1 -26 62.72z"/></g><g fill="#413b32"><path d="m794.68 304.88a361.86 361.86 0 1 0 -338.26 502.4h5a364.87 364.87 0 0 0 48.72-3.24 361.95 361.95 0 0 0 284.51-499.2zm-332.63 470.44h-.85a0 0 0 0 0 -.05 0c-181.65-.17-329.36-148-329.36-329.66s147.88-329.66 329.66-329.66 329.65 147.88 329.65 329.66c0 181.57-147.55 329.34-329.05 329.66z"/><path d="m676.85 230.26a304.63 304.63 0 1 0 89.22 215.4 302.64 302.64 0 0 0 -89.22-215.4zm-22.63 408.17a272.63 272.63 0 1 1 79.85-192.77 270.84 270.84 0 0 1 -79.85 192.77z"/><path d="m524.16 382.94a88.7 88.7 0 1 0 26 62.72 88.11 88.11 0 0 0 -26-62.72zm-22.62 102.81a56.71 56.71 0 1 1 16.6-40.09 56.33 56.33 0 0 1 -16.6 40.09z"/><path d="m554.73 352.38a131.91 131.91 0 1 0 38.64 93.28 131.06 131.06 0 0 0 -38.64-93.28zm-22.63 163.93a99.91 99.91 0 1 1 29.27-70.65 99.22 99.22 0 0 1 -29.27 70.65z"/><path d="m461.45 193.18a45.93 45.93 0 1 0 45.92 45.92 46 46 0 0 0 -45.92-45.92zm0 59.85a13.93 13.93 0 1 1 13.92-13.93 13.95 13.95 0 0 1 -13.92 13.9z"/><path d="m461.45 606.28a45.93 45.93 0 1 0 45.92 45.93 46 46 0 0 0 -45.92-45.93zm0 59.86a13.93 13.93 0 1 1 13.92-13.93 13.95 13.95 0 0 1 -13.92 13.93z"/><path d="m347.87 267.13a45.91 45.91 0 1 0 0 64.95 46 46 0 0 0 0-64.95zm-22.63 42.32a13.92 13.92 0 1 1 0-19.7 13.95 13.95 0 0 1 0 19.7z"/><path d="m640 559.24a45.91 45.91 0 1 0 0 65 46 46 0 0 0 0-65zm-22.63 42.32a13.92 13.92 0 1 1 0-19.7 13.95 13.95 0 0 1 -.02 19.7z"/><path d="m254.89 399.73a45.93 45.93 0 1 0 45.93 45.93 46 46 0 0 0 -45.93-45.93zm0 59.85a13.93 13.93 0 1 1 13.93-13.92 13.94 13.94 0 0 1 -13.93 13.92z"/><path d="m668 399.73a45.93 45.93 0 1 0 45.93 45.93 46 46 0 0 0 -45.93-45.93zm0 59.85a13.93 13.93 0 1 1 13.93-13.92 13.94 13.94 0 0 1 -13.93 13.92z"/><path d="m347.87 559.24a45.91 45.91 0 1 0 0 65 46 46 0 0 0 0-65zm-22.63 42.32a13.92 13.92 0 1 1 0-19.7 13.95 13.95 0 0 1 0 19.7z"/><path d="m640 267.13a45.91 45.91 0 1 0 0 64.95 46 46 0 0 0 0-64.95zm-22.63 42.32a13.92 13.92 0 1 1 0-19.7 13.95 13.95 0 0 1 -.02 19.7z"/><path d="m897.36 849.48c-5.24 17.2-17.4 31.16-36.15 41.51-18.57 10.24-43.21 16.89-75.21 20.32-5.08 1.38-20 4.74-43.94 4.74-53.28 0-151.31-16.63-285.6-108.77l-4.09-2.82a16 16 0 0 1 8.82-29.14 0 0 0 0 1 .05 0h.85a15.93 15.93 0 0 1 8.51 2.85q20.44 14.18 39.61 25.91c82.37 50.62 146.69 69.5 188.16 76.18 50.47 8.15 78.45.41 79.79 0a14.11 14.11 0 0 1 3.15-.65c34.6-3.58 77.52-13.33 85.48-39.47 13.36-43.87-65.42-121.86-94.07-145.73a16 16 0 1 1 20.48-24.59 514.61 514.61 0 0 1 58.92 59.44c39.75 47.8 54.98 88.24 45.24 120.22z"/></g></svg>