<svg id="Layer_1" viewBox="0 0 1000 1000" xmlns="http://www.w3.org/2000/svg" data-name="Layer 1"><path d="m500 456.53c-117.85 0-213.73 95.88-213.73 213.74s95.88 213.73 213.73 213.73 213.73-95.88 213.73-213.73-95.88-213.74-213.73-213.74zm0 382.89c-93.28 0-169.16-75.88-169.16-169.15s75.88-169.16 169.16-169.16 169.15 75.89 169.15 169.16-75.88 169.15-169.15 169.15z" fill="#bdbdbd"/><path d="m500 533.11c-75.63 0-137.16 61.53-137.16 137.16s61.53 137.15 137.16 137.15 137.15-61.53 137.15-137.15-61.53-137.16-137.15-137.16zm45.56 194a16 16 0 0 1 0 32h-85.09a16 16 0 0 1 -11.31-27.31l64-64 .13-.12c7.56-7.87 16.26-20.83 16.26-26 0-15.63-13.26-28.35-29.56-28.35s-29.56 12.72-29.56 28.35a16 16 0 0 1 -32 0c0-33.28 27.61-60.35 61.56-60.35s61.56 27.07 61.56 60.35c0 10-4.41 21.12-13.49 33.86-2.48 3.48-5.23 7-8.18 10.38-1.56 1.8-2.83 3.27-4.09 4.48l-36.71 36.72z" fill="#bdbdbd"/><path d="m482.02 255.99-51.43 100.43-123.11-240.42h102.86z" fill="#ff3d00"/><path d="m692.52 116-132.92 259.59h-102.87l57.51-112.31 75.42-147.28z" fill="#ff3d00"/><path d="m629.79 407.59v53.9a246.37 246.37 0 0 0 -259.58 0v-53.9z" fill="#ff3d00"/><g fill="#fff" opacity=".5"><path d="m490 466.53c-117.85 0-213.73 95.88-213.73 213.74s95.88 213.73 213.73 213.73 213.73-95.88 213.73-213.73-95.88-213.74-213.73-213.74zm0 382.89c-93.28 0-169.16-75.88-169.16-169.15s75.88-169.16 169.16-169.16 169.15 75.89 169.15 169.16-75.88 169.15-169.15 169.15z"/><path d="m490 543.11c-75.63 0-137.16 61.53-137.16 137.16s61.53 137.15 137.16 137.15 137.15-61.53 137.15-137.15-61.53-137.16-137.15-137.16zm45.56 194a16 16 0 0 1 0 32h-85.09a16 16 0 0 1 -11.31-27.31l64-64 .13-.12c7.56-7.87 16.26-20.83 16.26-26 0-15.63-13.26-28.35-29.56-28.35s-29.56 12.72-29.56 28.35a16 16 0 0 1 -32 0c0-33.28 27.61-60.35 61.56-60.35s61.56 27.07 61.56 60.35c0 10-4.41 21.12-13.49 33.86-2.48 3.48-5.23 7-8.18 10.38-1.56 1.8-2.83 3.27-4.09 4.48l-36.71 36.72z"/><path d="m472.02 265.99-51.43 100.43-123.11-240.42h102.86z"/><path d="m682.52 126-132.92 259.59h-102.87l57.51-112.31 75.42-147.28z"/><path d="m619.79 417.59v53.9a246.37 246.37 0 0 0 -259.58 0v-53.9z"/></g><g fill="#413b32"><path d="m545.56 727.16h-46.47l36.71-36.72c1.26-1.21 2.53-2.68 4.09-4.48 3-3.4 5.7-6.9 8.18-10.38 9.08-12.74 13.49-23.82 13.49-33.86 0-33.28-27.62-60.35-61.56-60.35s-61.56 27.07-61.56 60.35a16 16 0 0 0 32 0c0-15.63 13.26-28.35 29.56-28.35s29.56 12.72 29.56 28.35c0 5.15-8.7 18.11-16.26 26l-.13.12-64 64a16 16 0 0 0 11.31 27.31h85.09a16 16 0 0 0 0-32zm-30.77-60.75c-.29.21-.56.44-.83.67.25-.21.52-.44.83-.67z"/><path d="m673.76 496.5q-5.82-5.82-12-11.21a245.1 245.1 0 0 0 -323.58 0q-6.15 5.38-12 11.21a245.73 245.73 0 1 0 347.52 0zm-173.76 387.5c-117.85 0-213.73-95.88-213.73-213.73s95.88-213.74 213.73-213.74 213.73 95.88 213.73 213.74-95.88 213.73-213.73 213.73z"/><path d="m500 501.11c-93.28 0-169.16 75.88-169.16 169.16s75.88 169.15 169.16 169.15 169.15-75.88 169.15-169.15-75.88-169.16-169.15-169.16zm0 306.31c-75.63 0-137.16-61.53-137.16-137.15s61.53-137.16 137.16-137.16 137.15 61.53 137.15 137.16-61.53 137.15-137.15 137.15z"/><path d="m661.79 391.59v101.12a16 16 0 1 1 -32 0v-85.12h-259.58v85.12a16 16 0 0 1 -32 0v-101.12a16 16 0 0 1 16-16h291.58a16 16 0 0 1 16 16z"/><path d="m584.1 397.93-.07.15a15 15 0 0 1 -.95 1.82 16 16 0 0 1 -1 1.43c-.2.27-.42.53-.64.78s-.43.47-.65.69a15 15 0 0 1 -2.15 1.84c-.3.21-.6.41-.91.6a12.53 12.53 0 0 1 -1.92 1c-.33.15-.67.28-1 .41l-.77.26c-.4.11-.8.22-1.2.31s-.81.16-1.22.22a15.61 15.61 0 0 1 -2.17.15h-138.96-.65-.36l-.56-.05c-.37 0-.74-.09-1.11-.16a10 10 0 0 1 -1.09-.23 13.82 13.82 0 0 1 -1.66-.51l-.7-.28a16 16 0 0 1 -8.09-7.66l-.49-1-11.32-22.11-137.39-268.3a16 16 0 0 1 14.24-23.29h138.81a16 16 0 0 1 14.24 8.71l65.64 128.18 14.24 27.81a16 16 0 1 1 -28.48 14.59l-3.76-7.29-71.66-140h-102.86l123.11 240.42 9.82 19.17h128a15.28 15.28 0 0 1 2.14 0 16 16 0 0 1 13.59 22.34z"/><path d="m507.29 270.24a16 16 0 0 1 -21.53-6.95l-3.76-7.29-51.41 100.42 9.82 19.17h16.32l57.51-112.31a15.84 15.84 0 0 1 -6.95 6.96zm225.05-178.59a16 16 0 0 0 -13.65-7.65h-138.81a16 16 0 0 0 -14.24 8.71l-65.64 128.18-18 35.11-51.41 100.42-9.81 19.17-4.46 8.7a16 16 0 0 0 -.54 13.41 15.06 15.06 0 0 0 1.13 2.23 15.79 15.79 0 0 0 7.45 6.39l.7.28a13.82 13.82 0 0 0 1.66.51 10 10 0 0 0 1.09.23c.37.07.74.12 1.11.16l.56.05h.36.65 138.94a15.61 15.61 0 0 0 2.17-.15c.41-.06.82-.14 1.22-.22s.8-.2 1.2-.31l.77-.26c.34-.13.68-.26 1-.41a15.91 15.91 0 0 0 1.92-1c.31-.19.61-.39.91-.6a15 15 0 0 0 2.15-1.84c.22-.22.44-.45.65-.69s.44-.51.64-.78a16.64 16.64 0 0 0 1.55-2.45l.41-.8.07-.15 11.45-22.34 137.38-268.3a16 16 0 0 0 -.58-15.6zm-172.74 283.94h-102.87l57.51-112.31 75.42-147.28h102.86zm-52.31-105.35a16 16 0 0 1 -21.53-6.95l-3.76-7.29-51.41 100.42 9.82 19.17h16.32l57.51-112.31a15.84 15.84 0 0 1 -6.95 6.96z"/></g></svg>