<svg id="Layer_1" viewBox="0 0 1000 1000" xmlns="http://www.w3.org/2000/svg" data-name="Layer 1"><path d="m854.53 145.47c-70.53-70.47-185.25-70.47-255.77 0l-453.29 453.29c-70.47 70.52-70.47 185.24 0 255.77a181.05 181.05 0 0 0 255.77 0l453.29-453.29c70.47-70.52 70.47-185.24 0-255.77zm-10.61 245.16-453.29 453.29c-64.66 64.67-169.88 64.67-234.55 0s-64.67-169.89 0-234.55l453.29-453.29c64.66-64.67 169.89-64.67 234.55 0s64.67 169.92 0 234.55z"/><path d="m843.92 156.08c-64.66-64.67-169.89-64.67-234.55 0l-453.29 453.29c-64.67 64.66-64.67 169.88 0 234.55s169.89 64.67 234.55 0l453.29-453.29c64.67-64.63 64.67-169.88 0-234.55zm-34.62 230.3-55 55a25 25 0 0 1 -35.37 0 25 25 0 0 1 0-35.37l6.66-6.66-41.59-41.57-326.22 326.22 41.6 41.6 6.66-6.66a25 25 0 0 1 35.38 35.37l-55 55a25 25 0 1 1 -35.42-35.38l6.66-6.66-124.93-124.93-6.66 6.66a25 25 0 1 1 -35.37-35.38l55-55a25 25 0 1 1 35.41 35.38l-6.66 6.66 41.61 41.61 326.17-326.21-41.61-41.61-6.62 6.66a25 25 0 0 1 -35.37 0 25 25 0 0 1 0-35.37l55-55a25 25 0 0 1 35.37 35.33l-6.66 6.66 124.93 124.93 6.66-6.66a25 25 0 1 1 35.37 35.38z" fill="#ffccbc"/><g fill="#cfd8dc"><path d="m669.45 227.72h28.99v176.68h-28.99z" transform="matrix(.707 -.707 .707 .707 -23.16 576.19)"/><path d="m388.78 736.16-20.51 20.5-124.93-124.93 20.51-20.5 46.82 46.82.08.09.1.09 31 31z"/><path d="m269.37 485.51h461.27v28.99h-461.27z" transform="matrix(.707 -.707 .707 .707 -207.11 500)"/></g><path d="m741.46 404.68a7.5 7.5 0 0 1 -10.61 0l-5.3-5.3-41.55-41.6-31.11-31.11-10.61-10.61-41.61-41.61-5.3-5.3a7.5 7.5 0 0 1 10.61-10.61l135.48 135.53a7.5 7.5 0 0 1 0 10.61z"/><path d="m772.57 373.57a7.52 7.52 0 0 1 -10.61 0l-135.53-135.57a7.5 7.5 0 1 1 10.57-10.57l5.3 5.3 130.27 130.27a7.5 7.5 0 0 1 0 10.57z"/><path d="m809.3 351a25 25 0 0 0 -35.37 0l-6.66 6.66-10.61 10.61-20.5 20.5-10.61 10.61-6.66 6.62a25 25 0 0 0 0 35.37 25 25 0 0 0 35.37 0l55-55a25 25 0 0 0 0-35.38zm-10.6 24.77-55 55a10 10 0 1 1 -14.16-14.16l55-55a10 10 0 0 1 14.16 14.16z"/><path d="m801.63 368.69a10 10 0 0 1 -2.93 7.08l-55 55a10 10 0 1 1 -14.16-14.16l55-55a10 10 0 0 1 17.09 7.08z" fill="#757575"/><path d="m649 190.7a25 25 0 0 0 -35.38 0l-55 55a25 25 0 0 0 0 35.37 25 25 0 0 0 35.37 0l6.66-6.66 10.61-10.61 20.5-20.5 10.61-10.61 6.66-6.66a25 25 0 0 0 -.03-35.33zm-65.65 79.81a10 10 0 0 1 -10.91 2.17 10 10 0 0 1 -3.25-2.18 10 10 0 0 1 0-14.16l55-55a10 10 0 0 1 14.16 14.17z"/><path d="m638.39 215.47-55 55a10 10 0 0 1 -10.91 2.17 10 10 0 0 1 -3.25-2.18 10 10 0 0 1 0-14.16l55-55a10 10 0 0 1 14.16 14.17z" fill="#757575"/><path d="m373.57 772.57a7.52 7.52 0 0 1 -10.61 0l-135.53-135.57a7.5 7.5 0 1 1 10.57-10.57l5.3 5.3 130.27 130.27a7.5 7.5 0 0 1 0 10.57z"/><path d="m404.68 741.46a7.51 7.51 0 0 1 -10.6 0l-5.3-5.3-46.91-46.91-31-31-.1-.09-.08-.09-52.13-52.13a7.5 7.5 0 0 1 10.61-10.6l135.51 135.51a7.5 7.5 0 0 1 0 10.61z"/><path d="m441.41 718.89a25 25 0 0 0 -35.37 0l-6.66 6.66-10.6 10.61-20.51 20.5-10.61 10.61-6.66 6.66a25 25 0 1 0 35.38 35.37l55-55a25 25 0 0 0 0-35.37zm-10.6 24.77-55 55a10 10 0 0 1 -14.16-14.16l55-55a10 10 0 1 1 14.16 14.16z"/><path d="m430.81 743.66-55 55a10 10 0 0 1 -14.16-14.16l55-55a10 10 0 1 1 14.16 14.16z" fill="#757575"/><path d="m281.11 558.58a25 25 0 0 0 -35.37 0l-55 55a25 25 0 1 0 35.33 35.42l6.66-6.66 10.61-10.61 20.51-20.5 10.6-10.61 6.66-6.66a25.05 25.05 0 0 0 0-35.38zm-53.68 67.85-12 12a10 10 0 0 1 -14.16-14.16l55-55a10 10 0 1 1 14.16 14.16l-12 12z"/><path d="m270.5 583.35-12 12-31.11 31.11-12 12a10 10 0 0 1 -14.16-14.16l55-55a10 10 0 1 1 14.16 14.16z" fill="#757575"/><path d="m689.25 352.47-5.3 5.31-326.17 326.22-5.31 5.3a7.5 7.5 0 0 1 -10.6-10.61l5.3-5.3 326.17-326.22 5.31-5.31a7.5 7.5 0 1 1 10.6 10.61z"/><path d="m658.14 321.36-5.3 5.31-326.17 326.17-5.31 5.3a7.49 7.49 0 0 1 -10.51.09l-.1-.09-.08-.09a7.51 7.51 0 0 1 .08-10.52l5.31-5.3 331.48-331.48a7.5 7.5 0 0 1 10.6 10.61z"/></svg>