<svg enable-background="new 0 0 32 32" viewBox="0 0 32 32" xmlns="http://www.w3.org/2000/svg"><g id="Grid" display="none"/><g id="bow_tie"/><g id="balloon_1_"/><g id="placeholder"/><g id="mic"/><g id="speaker"/><g id="champagne"/><g id="gift"/><g id="theater"/><g id="_camera"/><g id="video_camera"/><g id="party_hat"/><g id="champagne_glass"/><g id="man"/><g id="woman"/><g id="skewer"><path d="m2.7 29.3c-.946-.946-.932-2.484.031-3.412l23.454-22.615c.322-.311.709-.546 1.132-.69l1.587-.538c.65-.22 1.27.4 1.05 1.05l-.538 1.587c-.144.424-.379.81-.69 1.132l-22.613 23.454c-.929.964-2.467.978-3.413.032z" fill="#efefef"/><path d="m14.73 20.33-7.23 7.5c-.6-.51-1.18-1.05-1.73-1.6-.56-.56-1.09-1.14-1.59-1.74l7.49-7.22c.55.46 1.09.95 1.6 1.46s1 1.04 1.46 1.6z" fill="#ddd"/><path d="m14.063 22.433c.544.704.518 1.683-.046 2.372-.304.371-.648.756-1.036 1.143-.329.329-.712.683-1.154 1.044-.686.561-1.672.57-2.373.028-.754-.584-1.561-1.277-2.38-2.096-.655-.655-1.378-1.45-2.109-2.397-.501-.649-.478-1.721.041-2.355.362-.442.716-.826 1.045-1.154.388-.388.773-.732 1.144-1.037.68-.558 1.656-.596 2.352-.059.952.735 1.752 1.461 2.41 2.119.824.823 1.521 1.635 2.106 2.392z" fill="#d39a62"/><path d="m12.981 25.949c-.325.325-.707.679-1.153 1.039-.686.559-1.676.573-2.376.028-.552-.424-1.124-.912-1.725-1.457.735.424 1.662.361 2.333-.184.467-.382.877-.764 1.23-1.117.417-.417.785-.827 1.11-1.223.544-.672.622-1.598.205-2.326.544.601 1.032 1.174 1.457 1.725.544.7.523 1.683-.05 2.369-.303.375-.642.757-1.031 1.146z" fill="#c68c58"/><path d="m21.311 15.186c.544.704.518 1.683-.046 2.372-.304.371-.648.756-1.036 1.143-.329.329-.712.683-1.154 1.044-.686.561-1.672.57-2.373.028-.754-.584-1.561-1.277-2.38-2.096-.655-.655-1.378-1.45-2.109-2.397-.501-.649-.478-1.721.041-2.355.362-.442.716-.826 1.045-1.154.388-.388.773-.732 1.144-1.037.68-.558 1.656-.596 2.352-.059.952.735 1.752 1.461 2.41 2.119.823.823 1.52 1.634 2.106 2.392z" fill="#d39a62"/><path d="m20.228 18.702c-.325.325-.707.679-1.153 1.039-.686.559-1.676.573-2.376.028-.552-.424-1.124-.912-1.725-1.457.735.424 1.662.361 2.333-.184.467-.382.877-.764 1.23-1.117.417-.417.785-.827 1.11-1.223.544-.672.622-1.598.205-2.326.544.601 1.032 1.174 1.457 1.725.544.7.523 1.683-.05 2.369-.303.375-.642.757-1.031 1.146z" fill="#c68c58"/><path d="m28.558 7.939c.544.704.518 1.683-.046 2.372-.304.371-.648.756-1.036 1.143-.329.329-.712.683-1.154 1.044-.686.561-1.672.57-2.373.028-.754-.584-1.561-1.277-2.38-2.096-.655-.655-1.378-1.45-2.109-2.397-.501-.649-.478-1.721.041-2.355.362-.442.716-.826 1.045-1.154.388-.388.773-.732 1.144-1.037.68-.558 1.656-.596 2.352-.059.952.735 1.752 1.461 2.41 2.119.824.823 1.52 1.634 2.106 2.392z" fill="#d39a62"/><path d="m27.475 11.454c-.325.325-.707.679-1.153 1.039-.686.559-1.676.573-2.376.028-.552-.424-1.124-.912-1.725-1.457.735.424 1.662.361 2.333-.184.467-.382.877-.764 1.23-1.117.417-.417.785-.827 1.11-1.223.544-.672.622-1.598.205-2.326.544.601 1.032 1.174 1.457 1.725.544.7.523 1.683-.05 2.369-.302.376-.642.758-1.031 1.146z" fill="#c68c58"/><ellipse cx="13.141" cy="18.859" fill="#72d98b" rx="1.672" ry="5.263" transform="matrix(.707 -.707 .707 .707 -9.487 14.816)"/><path d="m16.863 22.576c-.601.601-2.482-.29-4.37-2.022 1.28.7 2.312.898 2.779.431.46-.46.262-1.492-.438-2.772 1.732 1.888 2.623 3.769 2.029 4.363z" fill="#5fc174"/><ellipse cx="20.388" cy="11.612" fill="#ffd731" rx="1.672" ry="5.263" transform="matrix(.707 -.707 .707 .707 -2.24 17.818)"/><path d="m24.11 15.329c-.601.601-2.482-.29-4.37-2.022 1.28.7 2.312.898 2.779.431.46-.46.262-1.492-.438-2.772 1.732 1.888 2.623 3.769 2.029 4.363z" fill="#ffc933"/><path d="m30.052 1.948c-.34-.34-.838-.456-1.286-.301l-1.585.532c-.493.171-.926.436-1.285.785l-.807.776c-.261-.218-.518-.441-.787-.648-.85-.655-2.034-.628-2.882.067-.406.333-.802.691-1.175 1.064-.375.375-.736.774-1.073 1.186-.528.645-.631 1.624-.315 2.4-.023-.012-.047-.029-.07-.041-1.415-.731-2.097-.5-2.422-.177-.323.324-.556 1.007.177 2.422.008.016.021.034.029.05-.779-.339-1.702-.227-2.398.344-.407.334-.803.693-1.175 1.064-.375.375-.736.774-1.073 1.186-.528.645-.631 1.625-.315 2.4-.023-.012-.047-.029-.07-.041-1.416-.732-2.098-.5-2.422-.177-.323.324-.556 1.007.177 2.422.008.016.02.033.029.049-.779-.339-1.701-.225-2.398.344-.404.331-.799.689-1.176 1.064-.376.377-.737.775-1.072 1.186-.646.789-.668 2.082-.049 2.884.1.129.21.252.313.379l-2.508 2.417c-.549.532-.854 1.244-.861 2.005-.006.759.288 1.473.826 2.012.533.533 1.239.826 1.988.826h.023c.761-.007 1.473-.313 2.005-.862l2.417-2.507c.122.098.238.203.362.299.425.329.929.492 1.431.492.521 0 1.042-.176 1.472-.527.41-.337.81-.697 1.185-1.072.37-.37.728-.766 1.064-1.175.569-.695.679-1.618.338-2.403.018.01.037.023.055.032.689.356 1.205.484 1.59.484.405 0 .666-.142.832-.308.323-.324.556-1.007-.177-2.422-.01-.019-.024-.039-.034-.058.296.128.608.2.922.2.521 0 1.041-.176 1.471-.527.411-.338.811-.698 1.186-1.073.369-.37.727-.765 1.063-1.174.571-.697.68-1.623.336-2.409.617.325 1.191.519 1.662.519.33 0 .61-.095.819-.303.504-.505.337-1.43-.217-2.482.297.13.612.203.928.202.521 0 1.042-.176 1.472-.528.408-.334.807-.695 1.185-1.072.372-.372.729-.767 1.063-1.174.696-.849.719-2.042.054-2.901-.202-.261-.42-.513-.633-.768l.776-.805c.349-.36.612-.792.787-1.29l.529-1.579c.154-.455.039-.948-.301-1.288zm-24.247 27.026c-.372.385-.869.599-1.4.603-.504.024-1.027-.199-1.403-.577-.377-.376-.582-.875-.577-1.403.004-.531.218-1.028.602-1.4l2.459-2.371c.414.481.841.953 1.29 1.402.447.446.919.873 1.402 1.289zm7.923-6.281c.42.544.404 1.302-.038 1.842-.318.388-.658.762-1.009 1.112-.355.355-.732.697-1.122 1.016-.534.438-1.291.447-1.843.021-.823-.637-1.61-1.33-2.34-2.061-.74-.74-1.438-1.534-2.074-2.356-.378-.489-.361-1.342.035-1.826.317-.389.659-.766 1.015-1.122.357-.355.731-.695 1.114-1.01.281-.229.619-.346.954-.346.308 0 .613.098.869.296.832.642 1.629 1.342 2.368 2.083.735.734 1.431 1.525 2.071 2.351zm2.833-.414c-.109.107-.578.11-1.43-.33-.888-.46-1.908-1.244-2.872-2.208s-1.748-1.984-2.208-2.873c-.44-.851-.439-1.321-.33-1.43.036-.036.112-.06.229-.06.234 0 .633.097 1.201.391.888.46 1.908 1.244 2.872 2.208s1.748 1.984 2.208 2.872c.44.852.439 1.322.33 1.43zm4.414-6.833c.42.544.404 1.302-.038 1.842-.318.388-.657.762-1.008 1.111-.354.355-.732.697-1.123 1.017-.534.438-1.292.447-1.844.021-.818-.634-1.605-1.326-2.338-2.061-.735-.734-1.433-1.526-2.074-2.356-.378-.489-.362-1.342.034-1.826.318-.39.661-.768 1.017-1.123.353-.352.727-.692 1.112-1.008.281-.23.619-.346.955-.346.308 0 .612.098.868.295.829.64 1.627 1.341 2.369 2.083.737.736 1.432 1.527 2.07 2.351zm2.834-.413c-.312.307-2.182-.419-4.302-2.54-.965-.964-1.749-1.984-2.209-2.872-.44-.851-.439-1.321-.33-1.43.036-.036.112-.061.229-.061.234 0 .632.098 1.2.391.888.46 1.908 1.244 2.872 2.208 2.122 2.123 2.85 3.993 2.54 4.304zm4.374-4.992c-.315.386-.654.76-1.006 1.111-.358.357-.736.699-1.123 1.016-.534.439-1.294.447-1.844.021-.816-.631-1.602-1.322-2.334-2.055-.002-.002-.003-.004-.005-.005-.001-.001-.003-.002-.004-.004-.738-.738-1.434-1.529-2.07-2.352-.378-.49-.362-1.343.034-1.826.318-.39.661-.768 1.017-1.123.354-.354.728-.692 1.112-1.008.281-.23.619-.347.954-.347.309 0 .613.098.869.295.832.641 1.629 1.342 2.369 2.083.739.739 1.435 1.53 2.069 2.351.422.545.406 1.302-.038 1.843zm1.364-7.076-.528 1.575c-.131.376-.331.704-.594.976l-.719.747c-.31-.346-.625-.688-.952-1.015s-.669-.641-1.015-.952l.748-.72c.271-.263.599-.463.969-.592l1.581-.531c.152-.048.305-.014.414.097.111.11.147.265.096.415z"/><g fill="#edba8c"><path d="m15.269 11.92c-.134.192-.087.457.105.592.325.227.639.467.94.717.08.066.176.098.271.098.122 0 .243-.052.327-.154.149-.181.125-.449-.056-.598-.319-.265-.652-.52-.997-.76-.191-.134-.455-.087-.59.105z"/><path d="m25.445 6.555c-.324-.325-.66-.642-1.01-.946-.178-.154-.445-.136-.6.041s-.136.445.041.6c.334.292.656.595.967.906.171.171.34.345.506.521.083.089.196.134.31.134.104 0 .209-.038.291-.115.171-.161.18-.43.019-.601-.172-.182-.347-.363-.524-.54z"/><path d="m23.108 4.568c-.193-.134-.428-.069-.563.123-.135.191-.062.476.13.612.074.053.16.078.246.078.133 0 .264-.062.347-.179.136-.191.091-.457-.101-.593-.001 0-.059-.041-.059-.041z"/></g></g><g id="ticket"/><g id="cake"/><g id="lights"/><g id="photo"/><g id="invitation"/></svg>