<svg id="Layer_1" viewBox="0 0 1000 1000" xmlns="http://www.w3.org/2000/svg" data-name="Layer 1"><path d="m427.82 801-3.14-36.75c0-.19 0-.37-.05-.56l-5.87-68.81c0-.14 0-.28 0-.41l-5.85-68.58a1485 1485 0 0 1 0-251.82l5.85-68.58c0-.13 0-.27 0-.41l5.87-68.81a1.63 1.63 0 0 0 0-.31c0-.1 0-.2 0-.3a.34.34 0 0 0 0-.1l3.13-36.6c0-.07 0-.13 0-.2a100.45 100.45 0 1 0 -200.56 0 1.34 1.34 0 0 0 0 .2l5 58.49s0 .1 0 .14l9.94 116.48a1485 1485 0 0 1 0 251.82l-9.94 116.48-5 58.59a1.34 1.34 0 0 0 0 .2 100.45 100.45 0 1 0 200.56 0c.07-.01.06-.07.06-.16zm-38.12 64.69a85.36 85.36 0 0 1 -147.59-60.15c0-1.11 0-2.23.12-3.35l4.55-53.33 1.37-16 9-105.71q3.54-41.52 4.75-83.33.24-7.5.37-15 .56-28.86 0-57.72-.14-7.5-.37-15-1.2-41.77-4.75-83.33l-9-105.71-1.37-16-4.55-53.33c-.07-1.12-.11-2.24-.12-3.35a85.45 85.45 0 1 1 170.75 3.35l-2.38 27.84-1.29 15.21-4.62 54.22-1.3 15.2-5.34 62.64q-3.54 41.52-4.75 83.33-.24 7.5-.37 15-.56 28.86 0 57.72.13 7.5.37 15 1.2 41.77 4.75 83.33l5.34 62.64 1.3 15.2 4.62 54.1 1.29 15.21 2.38 27.84a84.63 84.63 0 0 1 -23.16 63.48z"/><path d="m412.86 197.81-2.38 27.84-167.31-46.46a85.47 85.47 0 0 1 169.69 18.62z" fill="#c62828"/><path d="m409.19 240.86-4.62 54.14-157.79-43.86-4.55-53.33c-.07-1.12-.11-2.24-.12-3.35z" fill="#ce93d8"/><path d="m403.27 310.16-5.34 62.64q-3.54 41.52-4.75 83.33h-131.26q-1.2-41.77-4.75-83.33l-9-105.71z" fill="#f48fb1"/><path d="m392.81 528.86h-130.52q.56-28.86 0-57.72h130.52q-.55 28.86 0 57.72z" fill="#c62828"/><path d="m403.27 689.83-155.12 43.07 9-105.71q3.54-41.52 4.75-83.33h131.28q1.2 41.77 4.75 83.33z" fill="#f48fb1"/><path d="m409.19 759.14-167.08 46.4c0-1.11 0-2.23.12-3.35l4.55-53.33 157.79-43.86z" fill="#ce93d8"/><path d="m389.7 865.69a85.51 85.51 0 0 1 -146.53-44.88l167.31-46.46 2.38 27.84a84.63 84.63 0 0 1 -23.16 63.5z" fill="#c62828"/><path d="m424.69 235.58a.34.34 0 0 1 0 .1v.3a1.63 1.63 0 0 1 0 .31 7.26 7.26 0 0 1 -.21 1 7.48 7.48 0 0 1 -9.24 5.22l-6-1.66-167.08-46.4-9.16-2.53a7.5 7.5 0 0 1 4-14.45l6.21 1.72 167.31 46.46 8.72 2.42a7.5 7.5 0 0 1 5.45 7.51z"/><path d="m418.76 305.1v.41a7.26 7.26 0 0 1 -.22 1.11 7.51 7.51 0 0 1 -7.22 5.49 7.33 7.33 0 0 1 -2-.28l-6-1.66-155.17-43.07-10.4-2.89a7.5 7.5 0 0 1 -5.47-6.6s0-.09 0-.14a7.67 7.67 0 0 1 .26-2.5 7.49 7.49 0 0 1 9.23-5.22l5 1.39 157.8 43.86 8.71 2.42a7.51 7.51 0 0 1 5.48 7.68z"/><path d="m419.2 771.93-8.72 2.42-167.31 46.46-6.17 1.72a7.72 7.72 0 0 1 -2 .27 7.5 7.5 0 0 1 -2-14.72l9.16-2.54 167.08-46.4 6-1.66a7.5 7.5 0 0 1 9.24 5.22 7.26 7.26 0 0 1 .21 1c0 .19 0 .37.05.56a7.49 7.49 0 0 1 -5.54 7.67z"/><path d="m413.28 702.62-8.71 2.38-157.79 43.86-5 1.39a7.72 7.72 0 0 1 -2 .27 7.5 7.5 0 0 1 -7.47-8.09 7.5 7.5 0 0 1 5.47-6.6l10.4-2.89 155.12-43.06 6-1.66a7.49 7.49 0 0 1 9.23 5.21 7.26 7.26 0 0 1 .22 1.11v.41a7.51 7.51 0 0 1 -5.47 7.67z"/><path d="m408 536.36a7.5 7.5 0 0 1 -7.5 7.5h-145.86a7.5 7.5 0 0 1 0-15h145.82a7.5 7.5 0 0 1 7.54 7.5z"/><path d="m408 463.64a7.5 7.5 0 0 1 -7.5 7.5h-145.86a7.5 7.5 0 0 1 0-15h145.82a7.5 7.5 0 0 1 7.54 7.5z"/><path d="m772.72 801-3.13-36.66a1.21 1.21 0 0 1 0-.19l-11.8-138.26a1485 1485 0 0 1 0-251.82l11.8-138.26v-.05l3.14-36.8a1.34 1.34 0 0 0 0-.2 100.45 100.45 0 1 0 -200.56 0v.2l5 58.5v.24l9.94 116.37a1485 1485 0 0 1 0 251.82l-9.94 116.37v.24l-5 58.5v.2a100.45 100.45 0 1 0 200.56 0 1.34 1.34 0 0 0 -.01-.2zm-38.12 64.69a85.35 85.35 0 0 1 -147.6-60.16c0-1.11.05-2.22.12-3.34l4.55-53.33 1.36-16 9-105.71q3.54-41.52 4.75-83.33.24-7.5.37-15 .55-28.86 0-57.72-.13-7.5-.37-15-1.2-41.77-4.75-83.33l-9-105.71-1.36-16-4.55-53.33c-.07-1.12-.11-2.23-.12-3.34a85.45 85.45 0 1 1 170.75 3.34l-2.38 27.84-1.29 15.21-4.6 54.22-1.3 15.21-5.35 62.64q-3.54 41.52-4.75 83.33-.24 7.5-.37 15-.56 28.86 0 57.72.13 7.5.37 15 1.2 41.77 4.75 83.33l5.35 62.64 1.3 15.21 4.62 54.1 1.29 15.21 2.38 27.84a84.64 84.64 0 0 1 -23.17 63.46z"/><path d="m734.6 865.69a85.5 85.5 0 0 1 -146.52-44.88l167.31-46.46 2.38 27.84a84.64 84.64 0 0 1 -23.17 63.5z" fill="#c62828"/><path d="m754.1 759.14-167.1 46.39c0-1.11.05-2.22.12-3.34l4.55-53.33 157.81-43.86z" fill="#ce93d8"/><path d="m748.18 689.83-155.13 43.07 9-105.71q3.54-41.52 4.75-83.33h131.28q1.2 41.77 4.75 83.33z" fill="#f48fb1"/><path d="m737.71 528.86h-130.52q.55-28.86 0-57.72h130.52q-.55 28.86 0 57.72z" fill="#c62828"/><path d="m748.18 310.17-5.35 62.64q-3.54 41.52-4.75 83.33h-131.26q-1.2-41.77-4.75-83.33l-9-105.71z" fill="#f48fb1"/><path d="m757.77 197.81-2.38 27.84-167.31-46.46a85.47 85.47 0 0 1 169.69 18.62z" fill="#c62828"/><path d="m754.1 240.86-4.62 54.14-157.79-43.86-4.55-53.33c-.07-1.12-.11-2.23-.12-3.34z" fill="#ce93d8"/><path d="m769.58 235.78v.05a7.54 7.54 0 0 1 -7.48 7 7.33 7.33 0 0 1 -2-.28l-6-1.66-167.1-46.42-9.17-2.55a7.5 7.5 0 1 1 4-14.45l6.21 1.72 167.31 46.46 8.71 2.42a7.51 7.51 0 0 1 5.52 7.71z"/><path d="m763.4 306.62a7.51 7.51 0 0 1 -7.22 5.49 7.33 7.33 0 0 1 -2-.28l-6-1.66-155.13-43.07-10.4-2.89a7.5 7.5 0 0 1 -5.46-6.49c0-.08 0-.16 0-.24a7.73 7.73 0 0 1 .26-2.51 7.5 7.5 0 0 1 9.24-5.22l5 1.39 157.79 43.86 8.7 2.42a7.5 7.5 0 0 1 5.22 9.2z"/><path d="m769.59 764.36a7.5 7.5 0 0 1 -5.49 7.57l-8.71 2.42-167.31 46.46-6.21 1.72a7.77 7.77 0 0 1 -2 .27 7.5 7.5 0 0 1 -2-14.72l9.17-2.55 167.06-46.39 6-1.66a7.53 7.53 0 0 1 9.49 6.69 1.21 1.21 0 0 0 0 .19z"/><path d="m758.18 702.62-8.7 2.42-157.79 43.82-5 1.39a7.85 7.85 0 0 1 -2 .27 7.5 7.5 0 0 1 -7.22-5.49 7.73 7.73 0 0 1 -.26-2.51c0-.08 0-.16 0-.24a7.5 7.5 0 0 1 5.46-6.49l10.4-2.89 155.13-43.07 6-1.66a7.5 7.5 0 1 1 4 14.45z"/><path d="m752.86 536.36a7.5 7.5 0 0 1 -7.5 7.5h-145.82a7.5 7.5 0 0 1 0-15h145.82a7.5 7.5 0 0 1 7.5 7.5z"/><path d="m752.86 463.64a7.5 7.5 0 0 1 -7.5 7.5h-145.82a7.5 7.5 0 0 1 0-15h145.82a7.5 7.5 0 0 1 7.5 7.5z"/><path d="m876.69 183.25h-56.33a7.5 7.5 0 0 0 -7.5 7.5v154.05a7.49 7.49 0 0 0 7.5 7.5h56.33a7.49 7.49 0 0 0 7.5-7.5v-154a7.5 7.5 0 0 0 -7.5-7.55zm-7.5 154.05h-41.33v-139h41.33z"/><path d="m827.86 198.25h41.33v139.05h-41.33z" fill="#26a69a"/><path d="m848.53 816.75a7.5 7.5 0 0 1 -7.5-7.5v-47a7.5 7.5 0 0 1 15 0v47a7.5 7.5 0 0 1 -7.5 7.5z"/><path d="m848.53 738.15a7.5 7.5 0 0 1 -7.5-7.5v-385.85a7.5 7.5 0 1 1 15 0v385.85a7.5 7.5 0 0 1 -7.5 7.5z"/><path d="m879.31 723.15h-61.57a7.5 7.5 0 0 0 -7.5 7.5v1.13a38.06 38.06 0 0 0 30.76 37.31 38.69 38.69 0 0 0 7.19.68h.61a38.8 38.8 0 0 0 7.2-.68 38.06 38.06 0 0 0 30.78-37.31v-1.13a7.5 7.5 0 0 0 -7.47-7.5zm-30.48 31.62h-.61a23 23 0 0 1 -22.09-16.62h44.79a23 23 0 0 1 -22.09 16.62z"/><path d="m870.92 738.15a23 23 0 0 1 -22.09 16.62h-.61a23 23 0 0 1 -22.09-16.62z" fill="#c5cae9"/><path d="m179.64 183.25h-56.33a7.5 7.5 0 0 0 -7.5 7.5v154.05a7.49 7.49 0 0 0 7.5 7.5h56.33a7.49 7.49 0 0 0 7.5-7.5v-154a7.5 7.5 0 0 0 -7.5-7.55zm-7.5 154.05h-41.33v-139h41.33z"/><path d="m130.81 198.25h41.33v139.05h-41.33z" fill="#26a69a"/><path d="m151.48 816.75a7.5 7.5 0 0 1 -7.5-7.5v-47a7.5 7.5 0 0 1 15 0v47a7.5 7.5 0 0 1 -7.5 7.5z"/><path d="m151.48 738.15a7.5 7.5 0 0 1 -7.5-7.5v-385.85a7.5 7.5 0 0 1 15 0v385.85a7.5 7.5 0 0 1 -7.5 7.5z"/><path d="m182.26 723.15h-61.57a7.5 7.5 0 0 0 -7.5 7.5v1.13a37.94 37.94 0 0 0 38 38h.61a38.8 38.8 0 0 0 7.2-.68 38.06 38.06 0 0 0 30.78-37.31v-1.13a7.5 7.5 0 0 0 -7.52-7.51zm-30.48 31.62h-.61a23 23 0 0 1 -22.09-16.62h44.79a23 23 0 0 1 -22.09 16.62z"/><path d="m173.87 738.15a23 23 0 0 1 -22.09 16.62h-.61a23 23 0 0 1 -22.09-16.62z" fill="#c5cae9"/></svg>