<svg enable-background="new 0 0 32 32" viewBox="0 0 32 32" xmlns="http://www.w3.org/2000/svg"><g id="Grid" display="none"/><g id="coin"/><g id="bomb"/><g id="gem"/><g id="ufo"/><g id="medal"/><g id="viking_helmet"/><g id="sword"/><g id="rocket"/><g id="torch"/><g id="spear"/><g id="money_bag"/><g id="crown"/><g id="heart"/><g id="skull"><path d="m30 14.523c0-6.918-6.268-12.526-14-12.526s-14 5.608-14 12.526c0 4.417 2.561 8.292 6.421 10.522.139 2.783 1.34 4.959 2.802 4.959 1.009 0 1.891-1.039 2.388-2.596.497 1.557 1.38 2.596 2.388 2.596 1.009 0 1.891-1.039 2.388-2.596.497 1.557 1.38 2.596 2.388 2.596 1.462 0 2.663-2.176 2.802-4.959 3.862-2.231 6.423-6.106 6.423-10.522z" fill="#efefef"/><path d="m30 14.52c0 4.42-2.56 8.29-6.42 10.52-.14 2.79-1.34 4.96-2.8 4.96-.65 0-1.25-.44-1.73-1.17 1.552-1.824 3.595-4.808 4.533-8.913.497-2.175 1.957-8.563-1.917-13.667-1.852-2.441-4.221-3.66-5.666-4.25 7.73 0 14 5.6 14 12.52z" fill="#ddd"/><g fill="#3a3a3a"><path d="m14.04 15.369c.235 1.622-1.661 3.978-3.593 3.929-2.016-.051-3.852-2.715-3.522-4.308.299-1.44 2.334-1.845 3.379-1.846 1.347-.001 3.511.666 3.736 2.225z"/><path d="m17.96 15.369c-.235 1.622 1.661 3.978 3.593 3.929 2.016-.051 3.852-2.715 3.522-4.308-.299-1.44-2.334-1.845-3.379-1.846-1.347-.001-3.511.666-3.736 2.225z"/><path d="m17.97 22.074c0 1.385-1.377-.087-2.869.613-.532.25-1.066-.008-1.071-.596-.009-1.096.876-1.987 1.97-1.987 1.088 0 1.97.882 1.97 1.97z"/></g><path d="m16 1.571c-7.954 0-14.425 5.81-14.425 12.951 0 4.348 2.4 8.359 6.435 10.774.209 2.987 1.541 5.132 3.213 5.132.935 0 1.788-.688 2.389-1.887.601 1.198 1.454 1.887 2.389 1.887s1.788-.688 2.389-1.887c.601 1.198 1.454 1.887 2.389 1.887 1.672 0 3.004-2.145 3.213-5.132 4.034-2.415 6.435-6.427 6.435-10.774-.002-7.141-6.473-12.951-14.427-12.951zm7.366 23.106c-.125.072-.204.203-.212.347-.125 2.512-1.191 4.556-2.377 4.556-.771 0-1.53-.882-1.983-2.301-.057-.177-.221-.296-.405-.296s-.349.119-.405.296c-.453 1.419-1.213 2.301-1.983 2.301s-1.53-.882-1.983-2.301c-.113-.354-.697-.354-.811 0-.453 1.419-1.213 2.301-1.983 2.301-1.186 0-2.252-2.044-2.377-4.556-.008-.144-.087-.274-.212-.347-3.888-2.247-6.209-6.043-6.209-10.154-.001-6.673 6.089-12.102 13.574-12.102s13.575 5.429 13.575 12.101c0 4.112-2.321 7.908-6.209 10.155z"/><path d="m8.479 6.568c.084 0 .169-.024.242-.076 1.347-.935 2.87-1.586 4.528-1.936.229-.049.376-.274.328-.504-.048-.229-.268-.373-.504-.328-1.77.374-3.397 1.07-4.837 2.07-.193.135-.241.399-.106.592.082.119.215.182.349.182z" fill="#fff"/><path d="m6.971 7.992.216-.222c.166-.166.166-.436 0-.602s-.436-.166-.602 0l-.231.238c-.162.171-.155.44.015.602.083.078.188.116.293.116.112 0 .225-.044.309-.132z" fill="#fff"/><path d="m10.308 12.72c-.001 0-.002 0-.003 0-1.156.001-3.437.459-3.795 2.184-.189.914.198 2.12 1.013 3.146.823 1.038 1.886 1.647 2.914 1.673.023.001.047.001.07.001.987 0 2.02-.526 2.842-1.453.817-.92 1.243-2.056 1.112-2.962-.259-1.787-2.583-2.589-4.153-2.589zm2.405 4.987c-.665.749-1.492 1.17-2.255 1.166-.765-.019-1.613-.524-2.27-1.352-.643-.81-.982-1.792-.847-2.445.228-1.096 1.938-1.506 2.963-1.507h.003c1.276 0 3.136.646 3.312 1.86.096.657-.261 1.55-.906 2.278z"/><path d="m21.695 12.72c-.001 0-.002 0-.003 0-1.57 0-3.895.803-4.153 2.589-.131.906.295 2.042 1.112 2.962.822.927 1.854 1.453 2.842 1.453.023 0 .047 0 .07-.001 1.028-.025 2.091-.635 2.914-1.673.814-1.026 1.202-2.232 1.013-3.146-.358-1.725-2.638-2.183-3.795-2.184zm2.117 4.801c-.656.827-1.505 1.333-2.27 1.352-.76-.011-1.59-.417-2.255-1.166-.646-.728-1.002-1.621-.906-2.277.176-1.214 2.035-1.86 3.312-1.86h.003c1.024.001 2.735.411 2.963 1.508.135.651-.205 1.634-.847 2.443z"/><path d="m16 19.68c-.644 0-1.247.251-1.7.708s-.699 1.063-.694 1.707c.003.404.185.749.497.945.176.11.381.166.595.166.192 0 .393-.045.584-.135.561-.263 1.111-.147 1.599-.045.445.094.866.182 1.192-.085.322-.263.322-.718.322-.867 0-1.32-1.075-2.394-2.395-2.394zm1.537 2.59c-.095.004-.317-.04-.482-.075-.558-.116-1.317-.275-2.135.107-.14.065-.278.073-.365.019-.081-.051-.099-.155-.1-.232-.003-.416.156-.807.448-1.102s.682-.457 1.097-.457c.852 0 1.545.693 1.545 1.545 0 .112-.012.174-.008.195z"/></g><g id="star"/><g id="shield"/><g id="crystal"/><g id="gift"/><g id="map"/><g id="poison"/><g id="axe"/><g id="fried_chicken"/><g id="witch_hat"/><g id="fire"/><g id="lightning"/></svg>