<svg id="Capa_1" enable-background="new 0 0 512 512" height="512" viewBox="0 0 512 512" width="512" xmlns="http://www.w3.org/2000/svg"><g><g><path d="m404.256 272.101h-296.51v114.274c0 10.666 3.758 20.99 10.613 29.161l61.94 73.824c8.052 9.597 19.938 15.14 32.466 15.14h86.471c12.528 0 24.414-5.543 32.466-15.14l61.94-73.824c6.855-8.171 10.613-18.495 10.613-29.161v-114.274z" fill="#e1dee2"/><path d="m382.454 272.101v114.274c0 10.666-3.758 20.99-10.613 29.161l-61.94 73.824c-8.052 9.597-19.938 15.14-32.466 15.14h21.802c12.528 0 24.414-5.543 32.466-15.14l61.94-73.824c6.855-8.171 10.613-18.495 10.613-29.161v-114.274z" fill="#cbc4cc"/><path d="m308.262 7.5h-104.522c-72.438 0-131.161 58.723-131.161 131.161v41.087c0 10.923.746 21.833 2.233 32.654l11.708 85.204c1.867 13.587 10.946 25.097 23.725 30.077l15.634 6.093c11.846 4.617 19.647 16.029 19.647 28.743v14.288c0 7.081 5.741 12.822 12.822 12.822h195.307c7.081 0 12.822-5.741 12.822-12.822v-14.288c0-12.714 7.801-24.126 19.647-28.743l15.634-6.093c12.779-4.98 21.858-16.49 23.725-30.077l11.708-85.204c1.487-10.821 2.233-21.731 2.233-32.654v-41.087c0-72.438-58.723-131.161-131.162-131.161z" fill="#efedf0"/><path d="m308.262 7.5h-21.802c72.438 0 131.161 58.723 131.161 131.161v41.087c0 10.923-.746 21.833-2.233 32.654l-11.708 85.203c-1.867 13.587-10.946 25.097-23.725 30.077l-15.634 6.093c-11.847 4.617-19.647 16.029-19.647 28.743v14.288c0 7.081-5.74 12.822-12.822 12.822h21.802c7.081 0 12.822-5.741 12.822-12.822v-14.288c0-12.714 7.801-24.126 19.647-28.743l15.634-6.093c12.779-4.98 21.858-16.49 23.725-30.077l11.708-85.203c1.487-10.821 2.233-21.731 2.233-32.654v-41.087c.001-72.438-58.722-131.161-131.161-131.161z" fill="#e1dee2"/><path d="m178.225 154.361-38.024 10.62c-14.691 4.103-23.904 18.647-21.337 33.683l4.671 27.353c2.442 14.301 14.837 24.759 29.345 24.759h23.465c11.332 0 21.681-6.433 26.696-16.595l15.842-32.101c5.679-11.507 3.345-25.357-5.79-34.368l-5.953-5.872c-7.6-7.497-18.633-10.351-28.915-7.479z" fill="#7a6d79"/><path d="m213.093 167.712-5.953-5.872c-7.6-7.497-18.632-10.35-28.914-7.479l-3.156.881c3.781 1.447 7.29 3.66 10.268 6.597l5.953 5.872c9.135 9.011 11.468 22.862 5.79 34.368l-15.842 32.101c-5.015 10.162-15.364 16.595-26.696 16.595h21.802c11.332 0 21.681-6.433 26.696-16.595l15.842-32.101c5.678-11.505 3.345-25.356-5.79-34.367z" fill="#685e68"/><path d="m333.777 154.361 38.024 10.62c14.691 4.103 23.904 18.647 21.337 33.683l-4.671 27.353c-2.442 14.301-14.837 24.759-29.345 24.759h-23.465c-11.332 0-21.681-6.433-26.696-16.595l-15.841-32.101c-5.679-11.507-3.345-25.357 5.79-34.368l5.953-5.872c7.6-7.497 18.632-10.351 28.914-7.479z" fill="#7a6d79"/><path d="m371.801 164.981-38.024-10.62c-6.253-1.746-12.779-1.364-18.646.881l34.868 9.739c14.691 4.103 23.904 18.647 21.337 33.683l-4.671 27.353c-2.442 14.301-14.837 24.759-29.345 24.759h21.802c14.508 0 26.903-10.458 29.345-24.759l4.671-27.353c2.568-15.035-6.645-29.579-21.337-33.683z" fill="#685e68"/><path d="m248.164 235.485-22.747 36.629c-2.65 4.267-4.054 9.19-4.054 14.212v1.36c0 4.93 3.996 8.926 8.926 8.926h9.968l10.39-11.859c2.836-3.237 7.873-3.237 10.708 0l10.39 11.859h9.968c4.93 0 8.926-3.996 8.926-8.926v-1.36c0-5.023-1.404-9.946-4.054-14.212l-22.747-36.629c-3.608-5.812-12.065-5.812-15.674 0z" fill="#7a6d79"/><g><path d="m286.585 272.114-22.747-36.629c-3.609-5.812-12.066-5.812-15.675 0l-5.304 8.541c1.745-1.146 4.091-.629 5.192 1.145l16.732 26.943c6.147 7.929 4.054 15.572 4.054 15.572 0 1.571-.409 3.044-1.121 4.327l4.03 4.599h9.968c4.93 0 8.926-3.996 8.926-8.926v-1.36c-.001-5.022-1.405-9.945-4.055-14.212z" fill="#685e68"/></g></g><g><path d="m308.263 0h-30.657c-2.825-.019-5.871 1.656-7.035 4.611l-12.522 28.805c-1.771 4.075-1.373 8.726 1.063 12.441s6.543 5.933 10.985 5.933h9.134l-17.261 39.977c-1.642 3.803.11 8.217 3.913 9.859 2.682 1.073 7.555.691 9.858-3.913l18.383-42.578c3.336-7.07-2.04-18.507-12.06-18.345h-9.127l9.473-21.79h25.853c68.187 0 123.661 55.474 123.661 123.661-.204 20.345.991 52.428-2.164 72.72l-11.708 85.204c-1.495 10.883-8.782 20.121-19.018 24.11l-15.635 6.093c-14.836 5.783-24.423 19.808-24.423 35.731v14.288c0 2.935-2.388 5.322-5.322 5.322h-24.369v-32.992c0-4.142-3.357-7.5-7.5-7.5s-7.5 3.358-7.5 7.5v32.992h-29.293v-32.992c0-4.142-3.357-7.5-7.5-7.5s-7.5 3.358-7.5 7.5v32.992h-29.293v-32.992c0-4.142-3.358-7.5-7.5-7.5s-7.5 3.358-7.5 7.5v32.992h-29.293v-32.992c0-4.142-3.358-7.5-7.5-7.5s-7.5 3.358-7.5 7.5v32.992h-23.058c-2.935 0-5.322-2.387-5.322-5.322v-14.289c0-15.924-9.587-29.949-24.423-35.731l-15.635-6.093c-10.235-3.989-17.522-13.227-19.018-24.11l-11.708-85.204c-3.105-18.923-1.982-53.383-2.163-72.72 0-68.186 55.474-123.66 123.661-123.66h37.354c4.142 0 7.5-3.358 7.5-7.5s-3.358-7.5-7.5-7.5h-37.354c-76.458 0-138.661 62.203-138.661 138.661.188 21.222-.989 53.624 2.303 74.762l11.708 85.204c1.862 13.547 9.739 25.371 21.152 32.398v55.345c0 12.404 4.394 24.475 12.374 33.991l61.938 73.818c9.498 11.326 23.423 17.821 38.207 17.821h86.48c14.784 0 28.71-6.496 38.205-17.819l61.94-73.821c7.979-9.514 12.374-21.585 12.374-33.989v-23.843c0-4.142-3.357-7.5-7.5-7.5s-7.5 3.358-7.5 7.5v23.843c0 8.885-3.149 17.533-8.865 24.349l-61.941 73.822c-6.64 7.918-16.376 12.459-26.713 12.459h-86.48c-10.337 0-20.073-4.541-26.714-12.461l-61.939-73.818c-5.717-6.818-8.866-15.466-8.866-24.351v-48.69l7.914 3.085c9.033 3.52 14.87 12.06 14.87 21.754v14.289c0 11.206 9.116 20.322 20.322 20.322h23.058v19.369c0 4.142 3.358 7.5 7.5 7.5s7.5-3.358 7.5-7.5v-19.37h29.293v19.37c0 4.142 3.358 7.5 7.5 7.5s7.5-3.358 7.5-7.5v-19.37h29.293v19.37c0 4.142 3.357 7.5 7.5 7.5s7.5-3.358 7.5-7.5v-19.37h29.293v19.37c0 4.142 3.357 7.5 7.5 7.5s7.5-3.358 7.5-7.5v-19.37h24.369c11.206 0 20.322-9.116 20.322-20.322v-14.288c0-9.695 5.837-18.234 14.87-21.755l15.635-6.093c15.301-5.963 26.195-19.775 28.431-36.044l11.708-85.203c3.251-19.938 2.135-54.441 2.304-74.763 0-76.459-62.203-138.662-138.661-138.662z"/><path d="m196.315 230.862c-2.98 6.038-8.452 10.359-15.014 11.856-4.039.921-6.565 4.942-5.644 8.98.921 4.039 4.944 6.563 8.98 5.644 10.982-2.506 20.141-9.738 25.128-19.842l15.842-32.101c7.123-14.433 4.21-31.724-7.249-43.027-9.856-11.92-26.159-19.967-42.152-15.235l-38.024 10.62c-18.454 5.154-29.937 23.284-26.712 42.17l4.671 27.353c2.63 15.399 14.715 27.615 30.074 30.398 3.173.585 7.4-1.32 8.717-6.042.738-4.076-1.967-7.979-6.042-8.717-9.173-1.662-16.392-8.962-17.963-18.164l-4.671-27.354c-1.927-11.285 4.935-22.118 15.961-25.197l38.024-10.62c9.882-3.391 21.038 3.493 27.583 11.467 6.847 6.754 8.587 17.086 4.331 25.71z"/><path d="m335.657 258.276h23.465c18.22 0 33.67-13.036 36.737-30.996l4.671-27.354c3.226-18.886-8.259-37.015-26.712-42.169l-38.023-10.62c-15.255-4.809-32.038 3.055-42.152 15.235-11.458 11.303-14.371 28.594-7.248 43.026l15.842 32.101c6.324 12.816 19.129 20.777 33.42 20.777zm-31.481-85.225c7.702-8.034 14.992-14.655 27.584-11.467l38.023 10.62c11.026 3.08 17.889 13.913 15.962 25.197l-4.671 27.353c-1.833 10.732-11.065 18.521-21.952 18.521h-23.465c-8.539 0-16.191-4.757-19.97-12.414l-15.842-32.102c-4.255-8.622-2.515-18.954 4.331-25.708z"/><path d="m256.001 223.626c-5.824 0-11.136 2.955-14.208 7.902l-22.746 36.628c-3.391 5.459-5.183 11.742-5.183 18.169-.766 8.769 6.851 17.808 16.426 17.786h9.967c2.161 0 4.217-.932 5.641-2.558l10.104-11.532 10.103 11.532c1.425 1.625 3.48 2.558 5.642 2.558h9.968c8.898.088 17.081-8.189 16.426-17.786 0-6.429-1.792-12.712-5.183-18.169l-22.746-36.629c-3.075-4.947-8.387-7.901-14.211-7.901zm27.138 62.7c-.35 1.323 1.035 1.117-1.426 2.786h-6.567l-8.149-9.302c-4.843-5.618-15.674-7.185-21.99 0l-8.15 9.302h-6.567c-.361.212-1.508-.905-1.426-2.786 0-3.628 1.012-7.174 2.926-10.256l22.747-36.629c.472-.118.531-1.67 2.933 0l22.746 36.63c1.911 3.081 2.923 6.626 2.923 10.255z"/></g></g></svg>