<svg height="512" viewBox="0 0 128 128" width="512" xmlns="http://www.w3.org/2000/svg"><g><g><path d="m97.8 58.772c0-16.672-15.134-30.191-33.8-30.191s-33.8 13.519-33.8 30.191c0 9.592 5.009 18.138 12.817 23.668a11.588 11.588 0 0 1 5 9.426v7.553h31.96v-7.553a11.588 11.588 0 0 1 5-9.426c7.812-5.53 12.823-14.076 12.823-23.668z" fill="#fff4f4"/><g fill="#09627d"><ellipse cx="49.759" cy="59.505" rx="7.021" ry="8.466" transform="matrix(.215 -.977 .977 .215 -19.039 95.334)"/><ellipse cx="78.241" cy="59.505" rx="8.466" ry="7.021" transform="matrix(.977 -.215 .215 .977 -10.948 18.178)"/></g><path d="m70.633 82.49c0 3.663-2.97.158-6.633.158s-6.633 3.505-6.633-.158 2.97-13.74 6.633-13.74 6.633 10.076 6.633 13.74z" fill="#09627d"/><g fill="#f6ebd8"><path d="m54.875 101.169a1.75 1.75 0 0 1 -1.75-1.75v-6a1.75 1.75 0 1 1 3.5 0v6a1.75 1.75 0 0 1 -1.75 1.75z"/><path d="m64 101.169a1.75 1.75 0 0 1 -1.75-1.75v-6a1.75 1.75 0 1 1 3.5 0v6a1.75 1.75 0 0 1 -1.75 1.75z"/><path d="m73.125 101.169a1.75 1.75 0 0 1 -1.75-1.75v-6a1.75 1.75 0 1 1 3.5 0v6a1.75 1.75 0 0 1 -1.75 1.75z"/></g></g><g fill="#002e49"><path d="m42.564 37.18a1.749 1.749 0 0 0 1.039-.342q.193-.144.393-.284a1.75 1.75 0 0 0 -2.017-2.86q-.23.162-.455.327a1.751 1.751 0 0 0 1.04 3.159z"/><path d="m64 26.831a38.916 38.916 0 0 0 -16.561 3.669 1.75 1.75 0 0 0 1.5 3.164 35.377 35.377 0 0 1 15.061-3.333c17.672 0 32.049 12.758 32.049 28.441a26.167 26.167 0 0 1 -6.427 17.079 1.75 1.75 0 0 0 2.67 2.264 29.625 29.625 0 0 0 7.257-19.343c0-17.612-15.949-31.941-35.549-31.941z"/><path d="m83.969 81.011a13.392 13.392 0 0 0 -5.741 10.855v5.8h-3.353v-4.25a1.75 1.75 0 1 0 -3.5 0v4.25h-5.625v-4.25a1.75 1.75 0 1 0 -3.5 0v4.25h-1.5a1.75 1.75 0 1 0 0 3.5h19.228a1.751 1.751 0 0 0 1.75-1.75v-7.55a9.882 9.882 0 0 1 4.264-8 1.75 1.75 0 0 0 -2.023-2.857z"/><path d="m47.876 68.071a11.948 11.948 0 0 0 2.557.28 10.716 10.716 0 0 0 4.909-1.157 8.147 8.147 0 0 0 4.394-5.5c1.038-4.723-2.593-9.55-8.094-10.758a11.112 11.112 0 0 0 -7.466.877 8.149 8.149 0 0 0 -4.4 5.5c-1.033 4.723 2.599 9.549 8.1 10.758zm-4.676-10.008a4.719 4.719 0 0 1 2.58-3.136 7.2 7.2 0 0 1 3.3-.769 8.449 8.449 0 0 1 1.808.2c3.617.8 6.051 3.751 5.428 6.589a4.719 4.719 0 0 1 -2.58 3.137 7.625 7.625 0 0 1 -5.11.57c-3.615-.796-6.05-3.754-5.426-6.591z"/><path d="m83.824 51.816a11.111 11.111 0 0 0 -7.466-.877c-5.5 1.208-9.132 6.035-8.094 10.758a8.147 8.147 0 0 0 4.394 5.5 10.716 10.716 0 0 0 4.909 1.157 11.948 11.948 0 0 0 2.557-.28 1.75 1.75 0 0 0 -.752-3.418 7.619 7.619 0 0 1 -5.11-.57 4.719 4.719 0 0 1 -2.58-3.137c-.623-2.838 1.811-5.794 5.428-6.589a7.619 7.619 0 0 1 5.111.57 4.719 4.719 0 0 1 2.58 3.137 4.517 4.517 0 0 1 -.614 3.325 1.75 1.75 0 0 0 3 1.8 8.059 8.059 0 0 0 1.028-5.872 8.149 8.149 0 0 0 -4.391-5.504z"/><path d="m64 84.4a8.9 8.9 0 0 1 3.163.833 7.172 7.172 0 0 0 2.539.683 2.5 2.5 0 0 0 1.443-.436 3.5 3.5 0 0 0 1.238-2.987c0-3.069-2.696-15.493-8.383-15.493a1.75 1.75 0 0 0 0 3.5c1.643 0 4.71 7.423 4.876 11.644-.143-.055-.284-.112-.413-.164a11.969 11.969 0 0 0 -4.463-1.08 11.969 11.969 0 0 0 -4.463 1.083c-.128.052-.269.108-.41.163a25.783 25.783 0 0 1 1.806-7.246 1.75 1.75 0 0 0 -3.246-1.308 27.666 27.666 0 0 0 -2.07 8.9 3.5 3.5 0 0 0 1.238 2.987c1.249.844 2.638.291 3.982-.247a8.894 8.894 0 0 1 3.163-.832z"/><path d="m54.875 91.669a1.75 1.75 0 0 0 -1.75 1.75v4.25h-3.353v-5.8a13.392 13.392 0 0 0 -5.741-10.855c-7.677-5.436-12.08-13.542-12.08-22.239a26.2 26.2 0 0 1 6.678-17.375 1.75 1.75 0 0 0 -2.639-2.3 29.645 29.645 0 0 0 -7.539 19.674c0 9.848 4.942 18.995 13.557 25.1a9.882 9.882 0 0 1 4.264 8v7.553a1.751 1.751 0 0 0 1.75 1.75h6.853a1.75 1.75 0 0 0 1.75-1.75v-6a1.75 1.75 0 0 0 -1.75-1.758z"/></g></g></svg>