<?xml version="1.0" encoding="UTF-8"?>
<svg xmlns="http://www.w3.org/2000/svg" width="512" height="512" viewBox="0 0 128 128"><g><path d="M96.452,121.693h0a21.511,21.511,0,0,1-21.478-20.341L71.25,32.918a25.239,25.239,0,0,1,25.2-26.611h0a25.24,25.24,0,0,1,25.2,26.612l-3.724,68.433A21.511,21.511,0,0,1,96.452,121.693Z" fill="#cce6ff"/><path d="M96.452,13.807a17.74,17.74,0,0,0-17.713,18.7l3.723,68.434a14.01,14.01,0,0,0,27.979,0l3.725-68.432a17.74,17.74,0,0,0-17.714-18.7Z" fill="#e6f2ff"/><path d="M119.963,64H72.941L71.49,37.344S81.016,32.1,96.452,32.1s24.962,5.245,24.962,5.245Z" fill="#9cf"/><path d="M31.548,121.693h0a21.511,21.511,0,0,1-21.479-20.341L6.345,32.918a25.24,25.24,0,0,1,25.2-26.611h0a25.24,25.24,0,0,1,25.2,26.612l-3.724,68.433A21.511,21.511,0,0,1,31.548,121.693Z" fill="#cce6ff"/><path d="M31.547,13.807a17.74,17.74,0,0,0-17.713,18.7l3.724,68.434a14.01,14.01,0,0,0,27.978,0l3.725-68.432a17.74,17.74,0,0,0-17.714-18.7Z" fill="#e6f2ff"/><path d="M8.037,64H55.059L56.51,37.344S46.984,32.1,31.548,32.1,6.586,37.344,6.586,37.344Z" fill="#9cf"/><g><path d="M121.571,21.65a1.75,1.75,0,0,0-3.256,1.285,23.287,23.287,0,0,1,1.593,9.889l-.1,1.85c-1.014-.423-2.331-.919-3.93-1.428l.035-.64a19.489,19.489,0,1,0-38.921,0l.035.642c-1.6.509-2.915,1-3.929,1.428L73,32.823A23.49,23.49,0,0,1,96.452,8.057a23.532,23.532,0,0,1,17.467,7.783,1.749,1.749,0,1,0,2.6-2.34A27.028,27.028,0,0,0,96.452,4.557,26.986,26.986,0,0,0,69.5,33.013l3.724,68.433a23.26,23.26,0,0,0,46.451,0L123.4,33.014A26.764,26.764,0,0,0,121.571,21.65Zm-36.728-1.1A15.984,15.984,0,0,1,112.42,32.27a67.352,67.352,0,0,0-31.934,0A15.834,15.834,0,0,1,84.843,20.552Zm11.609,13.3A57.192,57.192,0,0,1,119.6,38.409l-1.3,23.841H74.6L73.3,38.405A56.95,56.95,0,0,1,96.452,33.85Zm14.153,31.9-1.911,35.1a12.26,12.26,0,0,1-24.484,0L82.3,65.75ZM96.452,119.943a19.763,19.763,0,0,1-19.731-18.686L74.789,65.75H78.8l1.921,35.289a15.759,15.759,0,0,0,31.472,0l1.921-35.289h4.007l-1.932,35.507A19.764,19.764,0,0,1,96.452,119.943Z"/><path d="M31.548,4.557A26.989,26.989,0,0,0,4.6,33.013l3.724,68.433a23.26,23.26,0,0,0,46.451,0l.086-1.592a1.75,1.75,0,0,0-3.494-.189l-.086,1.592a19.761,19.761,0,0,1-39.463,0L9.884,65.75h4.007l1.919,35.289a15.76,15.76,0,0,0,31.473,0L49.2,65.75h4.007L52.637,76.3a1.75,1.75,0,1,0,3.494.189L58.5,33.014A26.988,26.988,0,0,0,31.548,4.557ZM43.789,100.85a12.26,12.26,0,0,1-24.484,0L17.4,65.75H45.7Zm-34.1-38.6L8.4,38.409A57.21,57.21,0,0,1,31.548,33.85,57.223,57.223,0,0,1,54.7,38.408L53.4,62.25Zm10.244-41.7A15.984,15.984,0,0,1,47.514,32.27a65.7,65.7,0,0,0-15.966-1.92A65.721,65.721,0,0,0,15.58,32.27,15.838,15.838,0,0,1,19.937,20.552ZM55,32.824l-.1,1.85c-1.014-.423-2.33-.919-3.929-1.428l.035-.64A19.489,19.489,0,0,0,17.4,18.146,19.306,19.306,0,0,0,12.087,32.6l.035.641c-1.6.509-2.916,1-3.93,1.428l-.1-1.851A23.491,23.491,0,0,1,31.548,8.057,23.492,23.492,0,0,1,55,32.824Z"/><path d="M53.954,84.3a1.748,1.748,0,0,0-1.842,1.652l-.244,4.493a1.749,1.749,0,0,0,1.652,1.841l.1,0a1.75,1.75,0,0,0,1.745-1.655l.244-4.492A1.749,1.749,0,0,0,53.954,84.3Z"/></g></g></svg>
