<svg id="Capa_1" enable-background="new 0 0 511.953 511.953" height="512" viewBox="0 0 511.953 511.953" width="512" xmlns="http://www.w3.org/2000/svg"><g><g><path d="m489.991 185.166c-14.16-18.57-60.87-68.75-151.95-68.75-37.99 0-71.81 18.95-80.13 23.98-1.21.74-2.72.77-3.97.09-8.94-4.88-46.08-23.97-80.85-23.97-90.44 0-120.718 19.625-134.768 38.215 0 0 47.962-79.961 110.5-101.01 7.168-2.413 21.488-7.015 21.488-7.015 25.774-6.176 54.379-9.15 85.65-9.15 121.96 0 202.82 44.76 234.03 147.61z" fill="#cf9875"/><path d="m504.461 296.446c0 4.4-.11 8.7-.34 12.91 0-49.78-58.78-95.56-121.66-95.56l-10.03-.01h-66.51c-3.02 0-5.78 1.19-7.81 3.13-2.04 1.94-3.35 4.64-3.49 7.66-1.96 42.21 25.36 72.3 66.02 83.81 32.84 9.3 58.32 26.88 58.32 62.46 0 34.175-15.383 66.879-58.596 86.002-25.928 11.474-69.529 17.548-104.404 17.548-38.274 0-80.804-6.974-107.426-20.271-38.76-19.361-53.574-50.863-53.574-83.279 0-35.36 25.99-52.9 58.3-62.23 40.55-11.72 68.85-43.62 66.9-85.78l-.01-.26c-.28-6.03-5.26-10.78-11.3-10.78h-79.03c-61.68 0-122.02 47.78-122.02 97.56-.23-4.21 13.85-80.807 13.85-80.807v-42.123c14.05-18.59 61-73.91 151.44-73.91 34.77 0 71.91 19.09 80.85 23.97 1.25.68 2.76.65 3.97-.09 8.32-5.03 42.14-23.98 80.13-23.98 79.666 0 126.641 38.169 146.324 60.986 2.82 3.269 3.851 9.437 5.626 11.764 9.57 31.52 14.47 68.48 14.47 111.28z" fill="#f0e9e6"/><path d="m255.961 474.396c-14.769 0-29.238-.471-43.299-1.484-44.397-3.196-81.491-15.04-114.424-31.213-50.451-24.776-81.779-64.095-85.447-132.343 0-17.887 15.939-51.351 15.939-51.351 23.122-27.686 62.321-48.077 101.71-48.208.127 0 6.559 2.685 6.686 2.685l5.09-2.685h67.635c5.24 0 9.683 3.575 10.95 8.46 0 0 .142 1.616.179 2.415l.01.26c1.95 42.16-28.075 76.453-68.625 88.173-22.685 6.551-40.141 15.987-49.787 33.957-3.134 5.838-4.438 17.128-5.244 24.637-.247 2.298-.373 4.679-.373 7.148 0 54.679 65 99.549 159 99.549z" fill="#cf9875"/><path d="m504.121 309.356c-6.82 126.91-115.32 165.04-248.16 165.04 6.871 0 13.596-.245 20.156-.721 82.236-5.963 138.844-48.189 138.844-98.829 0-2.804-.158-5.496-.466-8.081 0 0 .081-4.758-.3-6.534-5.711-26.644-28.871-43.607-57.232-51.638-27.373-7.749-47.993-23.907-58.364-48.894-5.034-12.129-8.462-25.323-7.821-39.116.038-.822.209-2.394.209-2.394.542-2.047 1.64-3.861 3.124-5.273 2.03-1.94 4.79-3.13 7.81-3.13h66.51l5.296 2.935 4.734-2.925c62.88 0 125.66 49.78 125.66 99.56z" fill="#cf9875"/><path d="m155.261 312.616c-29.78 8.6-54.207 24.18-57.837 54.25-.31-2.65-.463-5.32-.463-8.02 0-35.36 25.99-52.9 58.3-62.23 36.19-10.46 61.83-41.77 65.54-78.36.19.75.31 1.52.35 2.32l.01.26c1.95 42.16-25.35 80.06-65.9 91.78z" fill="#c7865b"/><path d="m414.961 358.846c0 2.66-.156 5.31-.466 7.919-3.59-30.22-27.604-45.81-57.854-54.38-40.66-11.51-67.98-49.6-66.02-91.81.04-.83.159-1.628.369-2.398 3.77 36.58 29.411 67.948 65.651 78.208 32.84 9.301 58.32 26.881 58.32 62.461z" fill="#c7865b"/><path d="m272.195 354.04-32-.255c-9.748 0-19.145-2.93-24.766-10.894l-11.676-12.446-1.09-7.499-8.182-7.5c-1.328-3.575-2.02-7.379-2.02-11.237 0-17.817 14.444-32.261 32.261-32.261h62.478c17.817 0 32.261 14.444 32.261 32.261 0 3.858-.692 7.662-2.02 11.237l-7.288 7.367-1.983 7.631-11.293 12.787c-5.622 7.964-14.934 10.809-24.682 10.809z" fill="#cf9875"/><path d="m308.211 330.306-.04.14-9.75 13.8c-5.62 7.97-14.76 12.7-24.5 12.7h-35.92c-9.74 0-18.88-4.73-24.5-12.7l-9.75-13.8-.02-.13c7.37 6.1 17.77 9.63 28.77 9.63h46.92c11.01 0 21.42-3.54 28.79-9.64z" fill="#c7865b"/><path d="m377.734 209.787h-8.805c-23.933 0-39.389 20.996-37.389 41.329.001.007.002.013.003.019-.004-.006-.008-.012-.011-.019.81 8.21 4.46 16.31 11.55 22.87 16.032 15.11 44.092 15.407 60.5 0 7.74-7.16 11.372-16.16 11.692-25.12.698-19.602-14.489-39.079-37.54-39.079z" fill="#faf8f8"/><path d="m140.399 209.787h-8.805c-23.933 0-39.389 20.996-37.389 41.329.001.007.002.013.003.019-.004-.006-.008-.012-.011-.019.81 8.21 4.46 16.31 11.55 22.87 16.032 15.11 44.092 15.407 60.5 0 7.74-7.16 11.372-16.16 11.692-25.12.698-19.602-14.489-39.079-37.54-39.079z" fill="#faf8f8"/><path d="m332.876 379.949-.723 2.818c-5.46 21.292-24.649 36.182-46.63 36.182h-59.124c-21.981 0-41.171-14.89-46.63-36.182l-.722-2.818 75.277 9.155z" fill="#cf9875"/><path d="m50.851 156.956c-3.43 8.23-6.51 16.9-9.2 26.02-6.59 22.3-10.93 47.27-12.92 75.03l-9.642 26.332-11.288 25.018c-.23-4.21-.34-8.51-.34-12.91 0-42.23 4.82-78.78 14.19-110.02 2.575-3.405 13.778-26.429 13.778-26.429z" fill="#e5dcd8"/><g fill="#c7865b"><path d="m476.901 151.216c-7.42-6.42-16.35-13.12-26.85-19.4-32.58-19.51-70.27-29.4-112.01-29.4-34.191 0-64.897 13.727-80.135 21.899-1.43.767-3.137.797-4.591.076-16.146-8.017-48.656-21.874-80.225-21.874-33.61 0-64.651 6.642-92.573 19.764-4.682 2.2-9.215-3.291-6.167-7.471 23.872-32.749 56.523-55.191 97.19-68.393-63.422 14.891-109.83 49.026-136.797 105.749-.004.003-.008.007-.012.01 0 0 .006-.001.007-.001-5.048 10.619-9.418 22.026-13.087 34.251 3.121-4.127 7.858-9.867 14.334-16.299 4.208-4.18 9.15-8.653 14.86-13.166.002-.002.004-.003.006-.005 25.078-19.83 64.926-40.44 122.24-40.44 34.77 0 71.91 19.09 80.85 23.97 1.25.68 2.76.65 3.97-.09 8.32-5.03 42.14-23.98 80.13-23.98 91.08 0 137.79 50.18 151.95 68.75-3.68-12.12-8.04-23.43-13.09-33.95z"/><path d="m235.271 474.076c-123.25-3.92-221.01-44.47-227.47-164.72 0-17.89 7.92-35.77 20.93-51.35-.85 11.73-1.27 23.95-1.27 36.69 0 4.47.11 8.83.34 13.11 6.11 115.43 93.79 158.53 207.47 166.27z"/></g></g><g><path d="m135.902 240.166h-.01c-4.142 0-7.495 3.358-7.495 7.5s3.363 7.5 7.505 7.5 7.5-3.358 7.5-7.5-3.358-7.5-7.5-7.5z"/><path d="m495.161 176.651c-11.048-33.428-27.842-61.49-49.915-83.407-21.566-21.414-48.791-37.573-80.916-48.029-30.899-10.057-67.36-15.156-108.369-15.156-21.938 0-42.715 1.47-61.754 4.37-4.095.624-6.909 4.449-6.285 8.544s4.45 6.909 8.544 6.285c18.293-2.787 38.311-4.199 59.495-4.199 80.39 0 138.849 19.243 178.716 58.829 14.784 14.68 26.946 32.415 36.489 53.091-11.804-10.455-27.683-21.734-48.165-30.775-3.79-1.672-8.218.043-9.89 3.833-1.673 3.789.043 8.217 3.833 9.89 42.734 18.862 63.959 48.858 67.851 54.795 5.631 20.563 9.307 43.273 11.026 68.064-23.542-34.313-70.144-60.493-117.36-60.493-5.396-.017-69.833-.002-76.544-.007-10.072 0-18.326 7.881-18.792 17.943-.706 15.283 2.21 30.547 8.34 44.451-1.402-.15-2.824-.232-4.265-.232h-62.479c-1.428 0-2.838.079-4.227.227 5.936-13.545 8.88-28.578 8.158-44.185l-.012-.256c-.466-10.061-8.72-17.942-18.792-17.942-7.063.019-75.64-.035-79.802.014-23.585.146-47.661 6.963-69.682 19.758-3.582 2.081-4.798 6.671-2.717 10.253 1.392 2.396 3.907 3.733 6.492 3.733 1.279 0 2.576-.328 3.761-1.017 8.096-4.704 16.643-8.523 25.35-11.409-1.419 2.305-2.655 4.76-3.672 7.355-6.804 17.351-2.606 35.938 10.956 48.507 18.834 17.716 51.081 18.283 70.692 0 13.562-12.569 17.76-31.157 10.956-48.508-2.018-5.146-4.879-9.749-8.381-13.688h36.046c2.041 0 3.713 1.597 3.808 3.634l.012.255c.98 21.197-6.019 41.143-18.661 56.648-9.709 12.083-25.154 22.911-41.823 27.576-42.283 12.216-63.723 35.58-63.723 69.442-.329 30.659 19.643 60.143 51.763 79.103-21.917-5.856-40.982-13.687-57.084-23.473-43.289-26.309-65.879-66.076-68.833-121.294.059-18.041 9.319-37.182 26.098-53.92 2.933-2.925 2.938-7.674.013-10.606-2.924-2.932-7.673-2.939-10.606-.013-5.648 5.634-10.564 11.547-14.708 17.634 1.651-23.92 5.102-45.808 10.385-65.68 2.907-4.674 46.991-72.577 147.585-72.577 36.83 0 77.669 23.815 78.074 24.054 2.474 1.461 5.572 1.376 7.968-.212.36-.239 36.552-23.946 76.958-23.946 16.692 0 32.846 1.809 48.012 5.377 4.035.948 8.07-1.552 9.019-5.583.949-4.032-1.551-8.07-5.583-9.019-16.291-3.833-33.6-5.776-51.448-5.776-37.303 0-70.185 17.402-81.31 24-11.812-6.37-47.427-23.896-81.69-23.896-58.484 0-98.949 21.651-122.597 39.814-4.188 3.216-8 6.431-11.462 9.565 23.784-52.159 64.63-85.896 123.116-102.095 3.992-1.106 6.332-5.238 5.226-9.23-1.105-3.991-5.236-6.331-9.23-5.226-52.098 14.434-91.898 42.644-118.293 83.851-29.046 44.275-43.294 112.845-40.485 184.482 6.283 113.955 92.187 171.715 255.613 171.715 163.507.015 249.873-58.027 255.66-172.536 1.9-46.29-4.466-97.233-16.46-132.707zm-334.129 91.836c-13.097 12.404-36.795 12.713-50.3 0-10.679-9.897-10.715-23.035-7.188-32.029 3.611-9.209 12.766-19.04 27.65-19.165h9.374c14.884.125 24.039 9.956 27.65 19.165 3.528 8.994 3.492 22.132-7.186 32.029zm179.962-32.03c3.634-9.268 12.881-19.17 27.935-19.17h8.805c15.053 0 24.3 9.903 27.935 19.17 3.527 8.995 3.492 22.133-7.187 32.03-13.097 12.404-36.798 12.714-50.3 0-10.68-9.897-10.715-23.036-7.188-32.03zm-136.162 53.024c.608-.703 1.199-1.42 1.787-2.14 4.523-4.851 10.963-7.893 18.103-7.893h62.479c13.653 0 24.761 11.107 24.761 24.761 0 3.948-.932 7.773-2.704 11.239h-19.796c-4.142 0-7.5 3.358-7.5 7.5s3.358 7.5 7.5 7.5h9.526l-6.689 9.476c-4.209 5.964-11.081 9.524-18.382 9.524h-10.455v-34.5c0-4.142-3.358-7.5-7.5-7.5s-7.5 3.358-7.5 7.5v34.5h-10.455c-7.301 0-14.172-3.561-18.382-9.524l-6.689-9.476h9.526c4.142 0 7.5-3.358 7.5-7.5s-3.358-7.5-7.5-7.5h-19.796c-1.772-3.466-2.704-7.291-2.704-11.239-.001-5.513 1.812-10.609 4.87-14.728zm116.976 99.631c-6.792 13.482-20.698 22.337-36.285 22.337h-59.124c-15.587 0-29.493-8.854-36.285-22.337 21.758 4.704 43.802 7.059 65.847 7.059 22.045-.001 44.089-2.356 65.847-7.059zm105.974 41.366c-16.265 9.885-35.555 17.774-57.752 23.649 31.183-18.074 51.66-47.089 52.378-76.438.156-4.139-3.072-7.622-7.211-7.778-4.162-.163-7.621 3.072-7.778 7.211-.897 23.742-15.951 45.933-42.39 62.487-28.1 17.594-66.834 27.284-109.067 27.284-43.298 0-82.607-9.97-110.686-28.072-26.319-16.968-40.814-39.688-40.814-63.973 0-27.121 16.805-44.607 52.886-55.031 10.079-2.912 19.375-7.307 27.712-12.878.493 7.268 2.947 14.203 7.18 20.199l15.131 21.436c7.017 9.94 18.469 15.874 30.637 15.874h10.455v16.61c-28.182-.716-56.305-5.459-83.708-14.252-3.945-1.263-8.168.906-9.433 4.85s.906 8.167 4.85 9.433c4.111 1.319 8.237 2.546 12.377 3.692 6.366 24.54 28.487 41.667 53.853 41.667h59.124c25.367 0 47.487-17.127 53.853-41.667 4.139-1.146 8.266-2.373 12.377-3.692 3.944-1.266 6.115-5.489 4.85-9.433-1.266-3.944-5.488-6.113-9.433-4.85-27.404 8.793-55.527 13.536-83.708 14.252v-16.61h10.455c12.167 0 23.62-5.934 30.637-15.874l15.13-21.436c4.268-6.045 6.725-13.043 7.19-20.374 8.487 5.666 17.838 10.039 27.728 12.839 22.592 6.397 37.509 15.672 45.604 28.355 1.431 2.241 3.854 3.466 6.33 3.466 1.38 0 2.778-.381 4.028-1.179 3.492-2.229 4.516-6.866 2.287-10.357-10.16-15.918-27.876-27.274-54.162-34.717-16.585-4.68-31.644-14.72-42.249-27.871-12.439-15.438-19.306-35.266-18.33-56.378.094-2.039 1.767-3.636 3.808-3.636h33.498c-3.504 3.941-6.367 8.546-8.386 13.694-6.804 17.351-2.606 35.938 10.956 48.507 18.835 17.716 51.082 18.283 70.693 0 13.562-12.57 17.76-31.157 10.956-48.508-1.07-2.729-2.376-5.307-3.889-7.715 44.038 13.937 80.736 50.155 80.873 85.893-2.954 55.233-25.544 95.008-68.84 121.321z"/><path d="m373.334 255.166c4.142 0 7.5-3.358 7.5-7.5s-3.358-7.5-7.5-7.5h-.01c-4.142 0-7.495 3.358-7.495 7.5s3.362 7.5 7.505 7.5z"/></g></g></svg>