<svg height="512" viewBox="0 0 128 128" width="512" xmlns="http://www.w3.org/2000/svg"><g><g><path d="m86.228 56.212c-.246 0-.486.025-.729.037a11.772 11.772 0 0 0 -15.634-15.719 7.181 7.181 0 0 0 -13.684-1.9 10.515 10.515 0 0 0 -16.918 11.361 11.4 11.4 0 1 0 -1.326 22.716c.322 0 .638-.022.953-.048a11.556 11.556 0 0 0 18.482 13.877 9.933 9.933 0 0 0 19.5-2.666c0-.148-.016-.291-.022-.437a15.227 15.227 0 1 0 9.375-27.221z" fill="#fff4f4"/><path d="m89.463 83.347a15.769 15.769 0 0 1 -6.416-6.415 2.123 2.123 0 0 0 -3.721 0 15.763 15.763 0 0 1 -6.416 6.415 2.124 2.124 0 0 0 0 3.722 15.763 15.763 0 0 1 6.416 6.415 2.122 2.122 0 0 0 3.721 0 15.769 15.769 0 0 1 6.416-6.415 2.124 2.124 0 0 0 0-3.722z" fill="#ffd322"/><path d="m75.2 38.059a9.739 9.739 0 0 1 -3.965-3.959 1.311 1.311 0 0 0 -2.3 0 9.745 9.745 0 0 1 -3.964 3.964 1.311 1.311 0 0 0 0 2.3 9.745 9.745 0 0 1 3.964 3.964 1.311 1.311 0 0 0 2.3 0 9.739 9.739 0 0 1 3.965-3.97 1.312 1.312 0 0 0 0-2.299z" fill="#ffd322"/><path d="m73.158 63.385a5.849 5.849 0 0 1 -2.382-2.385.788.788 0 0 0 -1.382 0 5.861 5.861 0 0 1 -2.381 2.382.788.788 0 0 0 0 1.381 5.855 5.855 0 0 1 2.381 2.382.788.788 0 0 0 1.382 0 5.851 5.851 0 0 1 2.382-2.382.788.788 0 0 0 0-1.378z" fill="#ff9f23"/><path d="m53.172 60.166a11.036 11.036 0 0 1 -4.489-4.49 1.486 1.486 0 0 0 -2.6 0 11.033 11.033 0 0 1 -4.49 4.49 1.486 1.486 0 0 0 0 2.6 11.033 11.033 0 0 1 4.49 4.49 1.486 1.486 0 0 0 2.6 0 11.036 11.036 0 0 1 4.489-4.49 1.486 1.486 0 0 0 0-2.6z" fill="#fff07e"/></g><g fill="#002e49"><path d="m51.029 88.965a9.808 9.808 0 0 1 -10.737-15.257 1.751 1.751 0 0 0 -1.547-2.793c-.267.023-.536.042-.807.042a9.661 9.661 0 0 1 -9.65-9.649 1.75 1.75 0 0 0 -3.5 0 13.17 13.17 0 0 0 11.134 12.992 13.175 13.175 0 0 0 -1.092 5.272 13.321 13.321 0 0 0 17.232 12.737 1.75 1.75 0 1 0 -1.033-3.344z"/><path d="m27.555 56.273a1.749 1.749 0 0 0 2.435-.441c.146-.211.3-.417.462-.615a1.75 1.75 0 0 0 -2.715-2.209q-.327.4-.624.83a1.751 1.751 0 0 0 .442 2.435z"/><path d="m33.48 52.563a1.749 1.749 0 0 0 .685-.14 9.575 9.575 0 0 1 3.773-.766 9.83 9.83 0 0 1 1.123.072 1.75 1.75 0 0 0 1.853-2.319 8.767 8.767 0 0 1 14.1-9.468 1.751 1.751 0 0 0 2.765-.6 5.44 5.44 0 0 1 4.976-3.242 1.75 1.75 0 0 0 0-3.5 8.943 8.943 0 0 0 -7.077 3.483 12.268 12.268 0 0 0 -18.771 10.417 11.991 11.991 0 0 0 .12 1.692 13.032 13.032 0 0 0 -4.233 1.008 1.75 1.75 0 0 0 .686 3.361z"/><path d="m87.97 54.551a13.333 13.333 0 0 0 .424-3.346 13.638 13.638 0 0 0 -11.067-13.315 3.025 3.025 0 0 0 -1.3-1.372 7.966 7.966 0 0 1 -3.251-3.251 3.062 3.062 0 0 0 -5.382 0 7.966 7.966 0 0 1 -3.251 3.251 3.062 3.062 0 0 0 0 5.382 7.958 7.958 0 0 1 3.25 3.251 3.062 3.062 0 0 0 5.382 0 7.978 7.978 0 0 1 3.252-3.251 2.991 2.991 0 0 0 .729-.553 10.112 10.112 0 0 1 8.138 9.859 9.95 9.95 0 0 1 -.977 4.294 1.75 1.75 0 0 0 1.666 2.5l.29-.018c.118-.007.235-.017.356-.017a13.485 13.485 0 0 1 8.9 23.617 1.75 1.75 0 1 0 2.311 2.629 16.985 16.985 0 0 0 -9.47-29.66zm-17.885-11.731a11.436 11.436 0 0 0 -3.611-3.612 11.423 11.423 0 0 0 3.611-3.608 11.416 11.416 0 0 0 3.615 3.608 11.429 11.429 0 0 0 -3.615 3.612z"/><path d="m90.292 81.807a13.968 13.968 0 0 1 -5.7-5.7 1.75 1.75 0 1 0 -3.083 1.656 17.451 17.451 0 0 0 7.129 7.13.373.373 0 0 1 0 .637 17.452 17.452 0 0 0 -7.128 7.129.374.374 0 0 1 -.638 0 17.453 17.453 0 0 0 -7.13-7.13.373.373 0 0 1 0-.637 17.672 17.672 0 0 0 2.807-1.88 1.75 1.75 0 0 0 -2.221-2.712 14.052 14.052 0 0 1 -2.245 1.5 3.872 3.872 0 0 0 0 6.8c.358.193.7.4 1.04.625a8.18 8.18 0 0 1 -14.063-3.167 1.75 1.75 0 0 0 -3.372.938 11.677 11.677 0 0 0 20.1 4.5 13.972 13.972 0 0 1 2 2.81 3.851 3.851 0 0 0 3.4 2.022 3.85 3.85 0 0 0 3.4-2.022 13.966 13.966 0 0 1 5.7-5.7 3.873 3.873 0 0 0 0-6.8z"/><path d="m67.853 67.979a2.538 2.538 0 0 0 4.464 0 4.084 4.084 0 0 1 1.669-1.669 2.538 2.538 0 0 0 0-4.464 4.077 4.077 0 0 1 -1.668-1.667 2.538 2.538 0 0 0 -4.465 0 4.087 4.087 0 0 1 -1.669 1.67 2.538 2.538 0 0 0 0 4.465 4.064 4.064 0 0 1 1.669 1.665zm2.232-4.879a7.585 7.585 0 0 0 .982.981 7.538 7.538 0 0 0 -.982.983 7.53 7.53 0 0 0 -.981-.983 7.577 7.577 0 0 0 .981-.981z"/><path d="m54 58.625a9.252 9.252 0 0 1 -3.777-3.776 3.234 3.234 0 0 0 -5.687 0 9.231 9.231 0 0 1 -3.777 3.775 3.237 3.237 0 0 0 0 5.689 9.225 9.225 0 0 1 3.777 3.775 1.75 1.75 0 0 0 3.083-1.656 12.73 12.73 0 0 0 -4.777-4.964 12.718 12.718 0 0 0 4.537-4.537 12.732 12.732 0 0 0 4.538 4.538 12.792 12.792 0 0 0 -1.623 1.131 1.75 1.75 0 0 0 2.219 2.707 9.255 9.255 0 0 1 1.487-1 3.237 3.237 0 0 0 0-5.688z"/></g></g></svg>