<svg id="Capa_1" enable-background="new 0 0 512 512" viewBox="0 0 512 512" xmlns="http://www.w3.org/2000/svg"><g><g><path d="m224.382 112.191 4.989-18.715c1.208-4.532 1.82-9.202 1.82-13.892v-25.284l-3.9-1h-154.853l-4.121 1v25.284c0 4.69.612 9.36 1.82 13.892l4.989 18.715c1.208 4.532 1.82 9.202 1.82 13.892v260.427c0 4.692-.612 9.363-1.821 13.896l-4.987 18.702c-1.209 4.533-1.821 9.205-1.821 13.896v24.696l3.826 1h154.852l4.196-1v-24.696c0-4.692-.612-9.363-1.821-13.896l-4.987-18.702c-1.209-4.533-1.821-9.205-1.821-13.896v-260.427c0-4.69.612-9.36 1.82-13.892z" fill="#ffe177"/><path d="m439.684 457.37h-154.876l-4 1v39.657c0 2.883 3.486 4.327 5.524 2.288l8.475-8.475c1.264-1.264 3.312-1.264 4.576 0l11.711 11.711c1.264 1.264 3.313 1.264 4.576 0l11.711-11.711c1.264-1.264 3.312-1.264 4.576 0l11.711 11.711c1.264 1.264 3.312 1.264 4.576 0l11.711-11.711c1.264-1.264 3.313-1.264 4.576 0l11.711 11.711c1.264 1.264 3.313 1.264 4.576 0l11.711-11.711c1.264-1.264 3.312-1.264 4.576 0l11.711 11.711c1.264 1.264 3.313 1.264 4.576 0l11.711-11.711c1.264-1.264 3.313-1.264 4.576 0l8.475 8.475c2.038 2.039 5.524.595 5.524-2.288v-39.657z" fill="#fd4755"/><path d="m439.684 457.37h-154.876l-4 1v39.657c0 2.883 3.486 4.327 5.524 2.288l8.475-8.475c1.264-1.264 3.312-1.264 4.576 0l11.711 11.711c1.264 1.264 3.313 1.264 4.576 0l11.711-11.711c1.264-1.264 3.312-1.264 4.576 0l11.711 11.711c1.264 1.264 3.312 1.264 4.576 0l11.711-11.711c1.264-1.264 3.313-1.264 4.576 0l11.711 11.711c1.264 1.264 3.313 1.264 4.576 0l11.711-11.711c1.264-1.264 3.312-1.264 4.576 0l11.711 11.711c1.264 1.264 3.313 1.264 4.576 0l11.711-11.711c1.264-1.264 3.313-1.264 4.576 0l8.475 8.475c2.038 2.039 5.524.595 5.524-2.288v-39.657z" fill="#fb2b3a"/><g><path d="m439.684 457.37h-37.809v39.237l6.946 6.946c1.264 1.264 3.313 1.264 4.576 0l11.711-11.711c1.264-1.264 3.313-1.264 4.576 0l8.475 8.475c2.038 2.039 5.524.595 5.524-2.288v-39.657z" fill="#e41f2d"/></g><g><g><path d="m73.841 499.646 8.475-8.475c1.264-1.264 3.313-1.264 4.576 0l11.711 11.711c1.264 1.264 3.313 1.264 4.576 0l11.711-11.711c1.264-1.264 3.313-1.264 4.576 0l11.711 11.711c1.264 1.264 3.313 1.264 4.576 0l11.711-11.711c1.264-1.264 3.313-1.264 4.576 0l11.711 11.711c1.264 1.264 3.313 1.264 4.576 0l11.711-11.711c1.264-1.264 3.313-1.264 4.576 0l11.711 11.711c1.264 1.264 3.313 1.264 4.576 0l11.711-11.711c1.264-1.264 3.313-1.264 4.576 0l8.475 8.475c2.038 2.039 5.524.595 5.524-2.288v-39.658h-162.87v39.658c0 2.883 3.486 4.327 5.524 2.288z" fill="#ffd15b"/><g><path d="m183.362 457.7v32.705c.457.154.89.401 1.255.766l11.711 11.711c1.264 1.264 3.313 1.264 4.576 0l11.711-11.711c1.264-1.264 3.312-1.264 4.576 0l8.475 8.475c2.039 2.039 5.524.595 5.524-2.288v-39.658z" fill="#ffc344"/></g><path d="m82.316 20.829-8.475-8.475c-2.038-2.039-5.524-.595-5.524 2.288v39.658h162.874v-39.658c0-2.883-3.486-4.327-5.524-2.288l-8.475 8.475c-1.264 1.264-3.313 1.264-4.576 0l-11.711-11.711c-1.264-1.264-3.313-1.264-4.576 0l-11.711 11.711c-1.264 1.264-3.313 1.264-4.576 0l-11.712-11.711c-1.264-1.264-3.313-1.264-4.576 0l-11.711 11.711c-1.264 1.264-3.313 1.264-4.576 0l-11.712-11.711c-1.264-1.264-3.313-1.264-4.576 0l-11.711 11.711c-1.264 1.264-3.313 1.264-4.576 0l-11.712-11.711c-1.264-1.264-3.313-1.264-4.576 0l-11.712 11.711c-1.263 1.264-3.312 1.264-4.576 0z" fill="#ffd15b"/><g><path d="m225.667 12.354-8.475 8.475c-1.264 1.264-3.312 1.264-4.576 0l-11.711-11.711c-1.264-1.264-3.312-1.264-4.576 0l-11.711 11.711c-.365.365-.797.611-1.255.766v32.705h47.829v-39.658c-.001-2.883-3.486-4.327-5.525-2.288z" fill="#ffc344"/></g><path d="m224.382 112.191 4.989-18.715c1.208-4.532 1.82-9.202 1.82-13.892v-25.284h-47.829v33.259c0 4.69-.612 9.36-1.82 13.892l-4.989 18.715c-1.208 4.532-1.82 9.202-1.82 13.892v13.758c1.948.925 3.226 2.887 3.226 5.083v159.358c5.936 6.669 9.547 15.453 9.547 25.083 0 11.269-4.943 21.378-12.773 28.296v28.849c0 4.692.612 9.363 1.821 13.896l4.987 18.702c1.209 4.533 1.821 9.205 1.821 13.896v16.721h47.829v-24.696c0-4.692-.612-9.363-1.821-13.896l-4.987-18.702c-1.209-4.533-1.821-9.205-1.821-13.896v-260.427c0-4.69.612-9.36 1.82-13.892z" fill="#ffd15b"/></g><g><path d="m149.754 300.589c11.32 0 21.458 5.147 28.205 13.221v-160.91c0-2.418-1.54-4.566-3.83-5.343l-45.128-15.298c-3.658-1.24-7.452 1.48-7.452 5.342v176.209c6.747-8.073 16.885-13.221 28.205-13.221z" fill="#fd8087"/><path d="m174.129 147.557-19.129-6.484v129.213c0 9.702-7.865 17.567-17.567 17.567h-15.884v25.957c6.747-8.074 16.885-13.222 28.205-13.222s21.458 5.147 28.205 13.221v-160.909c0-2.418-1.54-4.567-3.83-5.343z" fill="#fe646f"/><circle cx="149.754" cy="337.341" fill="#fd4755" r="37.752"/><path d="m167.254 303.892c1.455 4.014 2.25 8.344 2.25 12.861 0 20.85-16.902 37.752-37.752 37.752-6.318 0-12.268-1.56-17.5-4.303 5.26 14.518 19.169 24.892 35.502 24.892 20.85 0 37.752-16.902 37.752-37.752.001-14.533-8.216-27.14-20.252-33.45z" fill="#fb2b3a"/></g><g><path d="m425.903 208.048v-184.368c0-8.936-7.244-16.18-16.179-16.18h-94.956c-8.936 0-16.18 7.244-16.18 16.18v184.368z" fill="#bb5d4c"/><path d="m409.724 7.5h-17.34v168.117c0 5.523-4.477 10-10 10h-83.795v22.431h127.315v-184.368c-.001-8.936-7.245-16.18-16.18-16.18z" fill="#a44f3e"/><path d="m373.571 93.791h-75.505c-4.766 0-8.629-3.863-8.629-8.629v-25.887c0-4.766 3.863-8.629 8.629-8.629h75.505c4.766 0 8.629 3.863 8.629 8.629v25.887c.001 4.766-3.863 8.629-8.629 8.629z" fill="#d78878"/><path d="m373.571 50.646h-11.809v13.725c0 4.766-3.863 8.629-8.629 8.629h-63.696v12.162c0 4.766 3.864 8.629 8.629 8.629h75.505c4.766 0 8.629-3.863 8.629-8.629v-25.887c.001-4.766-3.863-8.629-8.629-8.629z" fill="#c96e59"/><path d="m373.571 171.453h-75.505c-4.766 0-8.629-3.863-8.629-8.629v-25.887c0-4.766 3.863-8.629 8.629-8.629h75.505c4.766 0 8.629 3.863 8.629 8.629v25.887c.001 4.766-3.863 8.629-8.629 8.629z" fill="#d78878"/><path d="m287.617 401.077-4.987 18.702c-1.209 4.533-1.821 9.205-1.821 13.896v24.696h162.874v-24.696c0-4.692-.612-9.363-1.821-13.896l-4.987-18.702c-1.209-4.533-1.821-9.205-1.821-13.896v-174.74c0-2.979-2.415-5.393-5.393-5.393h-134.83c-2.979 0-5.393 2.415-5.393 5.393v174.739c0 4.692-.612 9.364-1.821 13.897z" fill="#fe646f"/><path d="m287.617 401.077-4.987 18.702c-1.209 4.533-1.821 9.205-1.821 13.896v24.696h162.874v-24.696c0-4.692-.612-9.363-1.821-13.896l-4.987-18.702c-1.209-4.533-1.821-9.205-1.821-13.896v-174.74c0-2.979-2.415-5.393-5.393-5.393h-134.83c-2.979 0-5.393 2.415-5.393 5.393v174.739c0 4.692-.612 9.364-1.821 13.897z" fill="#fe646f"/><path d="m441.862 419.778-4.987-18.702c-1.209-4.533-1.821-9.205-1.821-13.896v-174.739c0-2.979-2.415-5.393-5.393-5.393h-36.415v180.132c0 4.692.612 9.363 1.821 13.896l4.987 18.702c1.209 4.533 1.821 9.205 1.821 13.896v24.696h41.809v-24.696c-.001-4.691-.613-9.363-1.822-13.896z" fill="#fd4755"/><path d="m329.887 207.048v106.571c0 17.871 14.488 32.359 32.359 32.359s32.359-14.488 32.359-32.359v-106.571z" fill="#fff"/><path d="m363 207.048v85.593c0 17.436-13.793 31.645-31.062 32.326 4.598 12.272 16.43 21.01 30.308 21.01 17.871 0 32.359-14.488 32.359-32.359v-106.57z" fill="#f2fbff"/><path d="m398.38 389.338v23.73c0 2.979-2.415 5.393-5.393 5.393h-61.482c-2.979 0-5.393-2.415-5.393-5.393v-23.73c0-2.979 2.415-5.393 5.393-5.393h61.482c2.979 0 5.393 2.414 5.393 5.393z" fill="#fff"/><path d="m392.987 383.945h-14.987v12.662c0 2.979-2.415 5.393-5.393 5.393h-46.496v11.068c0 2.979 2.415 5.393 5.393 5.393h61.482c2.979 0 5.393-2.415 5.393-5.393v-23.73c.001-2.979-2.413-5.393-5.392-5.393z" fill="#f2fbff"/></g></g><path d="m373.571 128.307h-11.809v13.725c0 4.766-3.863 8.629-8.629 8.629h-63.696v12.162c0 4.766 3.864 8.629 8.629 8.629h75.505c4.766 0 8.629-3.863 8.629-8.629v-25.887c.001-4.765-3.863-8.629-8.629-8.629z" fill="#c96e59"/></g><g><path d="m232.064 4.724c-4.027-1.669-8.619-.754-11.701 2.327l-5.459 5.46-8.696-8.696c-4.188-4.186-10.996-4.186-15.184 0l-8.695 8.696-8.695-8.696c-2.028-2.027-4.725-3.144-7.592-3.144s-5.563 1.116-7.591 3.144l-8.697 8.696-8.695-8.696c-4.188-4.186-10.996-4.186-15.184 0l-8.695 8.696-8.696-8.696c-4.188-4.186-10.996-4.186-15.184 0l-8.695 8.696-5.459-5.458c-3.082-3.084-7.674-3.997-11.699-2.33-4.027 1.668-6.629 5.562-6.629 9.92v64.941c0 5.342.697 10.665 2.072 15.823l4.989 18.716c1.04 3.901 1.567 7.925 1.567 11.96v196.917c0 4.143 3.357 7.5 7.5 7.5s7.5-3.357 7.5-7.5v-196.917c0-5.339-.697-10.663-2.073-15.823l-4.989-18.716c-1.039-3.898-1.566-7.923-1.566-11.96v-17.784h147.874v17.784c0 4.035-.527 8.059-1.567 11.96l-4.989 18.716c-1.375 5.158-2.072 10.481-2.072 15.823v260.427c0 5.344.697 10.67 2.073 15.829l4.987 18.702c1.041 3.9 1.568 7.926 1.568 11.963v17.196h-147.875v-17.196c0-4.04.527-8.064 1.567-11.963l4.987-18.702c1.376-5.161 2.074-10.487 2.074-15.829v-28.51c0-4.143-3.357-7.5-7.5-7.5s-7.5 3.357-7.5 7.5v28.51c0 4.037-.527 8.062-1.568 11.964l-4.986 18.702c-1.377 5.158-2.074 10.483-2.074 15.828v64.354c0 4.358 2.602 8.252 6.628 9.919 4.022 1.667 8.617.754 11.699-2.326l5.46-5.461 8.695 8.696c4.188 4.186 10.999 4.186 15.183 0l8.697-8.696 8.695 8.696c4.188 4.186 10.996 4.186 15.184 0l8.695-8.696 8.696 8.696c2.028 2.027 4.725 3.144 7.592 3.144s5.563-1.116 7.592-3.144l8.695-8.696 8.695 8.696c4.188 4.186 10.999 4.186 15.183 0l8.697-8.696 5.461 5.462c3.081 3.079 7.673 3.992 11.7 2.325 4.025-1.668 6.626-5.562 6.626-9.919v-64.354c0-5.342-.698-10.668-2.074-15.828l-4.987-18.702c-1.04-3.898-1.567-7.924-1.567-11.964v-260.427c0-4.037.527-8.062 1.566-11.96l4.989-18.716c1.376-5.16 2.073-10.484 2.073-15.823v-64.941c.001-4.359-2.6-8.252-6.626-9.919zm-8.373 482.339-1.195-1.196c-2.028-2.027-4.725-3.144-7.592-3.144s-5.563 1.116-7.591 3.144l-8.697 8.696-8.695-8.696c-4.188-4.186-10.996-4.186-15.184 0l-8.695 8.696-8.696-8.696c-2.094-2.093-4.843-3.139-7.592-3.139s-5.498 1.046-7.592 3.139l-8.695 8.696-8.695-8.696c-4.188-4.186-10.999-4.186-15.183 0l-8.697 8.696-8.695-8.696c-4.188-4.186-10.996-4.186-15.184 0l-1.195 1.196v-21.863h147.874v21.863zm0-440.263h-147.874v-21.863l1.196 1.196c4.186 4.186 10.995 4.186 15.183 0l8.695-8.696 8.696 8.696c4.188 4.186 10.996 4.186 15.184 0l8.695-8.696 8.695 8.696c4.188 4.186 10.999 4.186 15.183 0l8.697-8.696 8.695 8.696c4.188 4.186 10.996 4.186 15.184 0l8.695-8.696 8.696 8.696c2.028 2.027 4.725 3.144 7.592 3.144s5.563-1.116 7.592-3.144l1.195-1.196v21.863z"/><path d="m176.537 140.455-45.128-15.298c-4.002-1.356-8.44-.697-11.876 1.765-3.434 2.462-5.484 6.454-5.484 10.68v171.988c-5.975 7.67-9.547 17.298-9.547 27.751 0 24.952 20.3 45.253 45.252 45.253s45.253-20.301 45.253-45.253c0-10.453-3.573-20.082-9.548-27.752v-156.689c0-5.634-3.586-10.636-8.922-12.445zm-47.488-.26 41.41 14.037v142.892c-6.21-3.21-13.246-5.035-20.705-5.035s-14.496 1.825-20.705 5.035zm20.705 227.399c-16.681 0-30.252-13.571-30.252-30.253 0-16.681 13.571-30.252 30.252-30.252 16.682 0 30.253 13.571 30.253 30.252s-13.571 30.253-30.253 30.253z"/><path d="m449.108 417.846-4.986-18.702c-1.041-3.901-1.568-7.926-1.568-11.963v-174.74c0-5.808-3.861-10.727-9.15-12.335v-176.426c0-13.057-10.623-23.68-23.68-23.68h-94.956c-13.057 0-23.68 10.623-23.68 23.68v21.076c-5.404 2.608-9.15 8.127-9.15 14.519v25.888c0 6.392 3.747 11.91 9.15 14.519v22.737c-5.404 2.608-9.15 8.127-9.15 14.519v25.888c0 6.392 3.747 11.91 9.15 14.519v22.763c-5.289 1.608-9.15 6.528-9.15 12.335v48.557c0 4.143 3.357 7.5 7.5 7.5s7.5-3.357 7.5-7.5v-46.452h25.449v99.07c0 21.979 17.881 39.859 39.859 39.859s39.858-17.881 39.858-39.859v-99.07h25.449v172.633c0 5.341.698 10.667 2.074 15.828l4.986 18.702c1.041 3.901 1.568 7.927 1.568 11.964v17.195h-147.872v-17.195c0-4.037.527-8.062 1.568-11.964l4.986-18.702c1.376-5.161 2.074-10.487 2.074-15.828v-91.181c0-4.143-3.357-7.5-7.5-7.5s-7.5 3.357-7.5 7.5v91.181c0 4.037-.527 8.062-1.568 11.963l-4.986 18.702c-1.376 5.162-2.074 10.487-2.074 15.829v64.354c0 4.357 2.601 8.25 6.626 9.918 4.027 1.668 8.618.756 11.7-2.325.001-.001.001-.001.002-.002l5.459-5.46 8.694 8.693c2.028 2.03 4.725 3.147 7.594 3.147s5.565-1.117 7.592-3.145l8.695-8.696 8.695 8.696c2.028 2.027 4.724 3.144 7.591 3.145h.002c2.868 0 5.564-1.118 7.59-3.145l8.697-8.696 8.695 8.696c2.028 2.027 4.725 3.145 7.592 3.145s5.563-1.117 7.592-3.145l8.695-8.696 8.694 8.693c2.028 2.03 4.725 3.147 7.594 3.147s5.565-1.117 7.592-3.145l8.695-8.696 5.46 5.461c3.082 3.082 7.674 3.992 11.7 2.327 4.025-1.668 6.627-5.562 6.627-9.919v-64.354c.001-5.34-.698-10.665-2.074-15.827zm-152.17-255.022v-25.888c0-.622.507-1.129 1.129-1.129h75.505c.622 0 1.129.507 1.129 1.129v25.888c0 .622-.507 1.129-1.129 1.129h-75.505c-.623 0-1.129-.507-1.129-1.129zm90.166 150.794c0 13.707-11.151 24.859-24.858 24.859s-24.859-11.152-24.859-24.859v-99.07h17.359v87.42c0 4.143 3.357 7.5 7.5 7.5s7.5-3.357 7.5-7.5v-87.42h17.358zm31.299-114.07h-112.315v-20.595h67.483c8.894 0 16.129-7.235 16.129-16.129v-25.888c0-8.894-7.235-16.129-16.129-16.129h-67.483v-19.517h67.483c8.894 0 16.129-7.235 16.129-16.129v-25.887c0-8.894-7.235-16.129-16.129-16.129h-23.571c-4.143 0-7.5 3.357-7.5 7.5s3.357 7.5 7.5 7.5h23.571c.622 0 1.129.507 1.129 1.129v25.888c0 .622-.507 1.129-1.129 1.129h-75.505c-.622 0-1.129-.507-1.129-1.129v-25.888c0-.622.507-1.129 1.129-1.129h16.934c4.143 0 7.5-3.357 7.5-7.5s-3.357-7.5-7.5-7.5h-8.912v-19.465c0-4.786 3.894-8.68 8.68-8.68h94.956c4.786 0 8.68 3.894 8.68 8.68v175.868zm17.78 288.185-1.195-1.196c-2.028-2.027-4.725-3.145-7.592-3.145s-5.563 1.117-7.592 3.145l-8.695 8.696-8.696-8.696c-2.028-2.027-4.725-3.145-7.592-3.145s-5.563 1.117-7.592 3.145l-8.695 8.696-8.695-8.696c-4.188-4.186-10.999-4.186-15.183 0l-8.697 8.696-8.695-8.696c-2.094-2.093-4.843-3.139-7.592-3.139s-5.498 1.046-7.592 3.139l-8.695 8.696-8.696-8.696c-2.028-2.027-4.725-3.145-7.592-3.145s-5.563 1.117-7.592 3.146l-1.195 1.195v-21.862h147.874v21.862z"/><path d="m157.254 272.18v-97.077c0-4.143-3.357-7.5-7.5-7.5s-7.5 3.357-7.5 7.5v97.077c0 4.143 3.357 7.5 7.5 7.5s7.5-3.358 7.5-7.5z"/><path d="m96.412 411.324v12.943c0 4.143 3.357 7.5 7.5 7.5s7.5-3.357 7.5-7.5v-12.943c0-4.143-3.357-7.5-7.5-7.5s-7.5 3.358-7.5 7.5z"/><path d="m121.221 411.324v12.943c0 4.143 3.357 7.5 7.5 7.5s7.5-3.357 7.5-7.5v-12.943c0-4.143-3.357-7.5-7.5-7.5s-7.5 3.358-7.5 7.5z"/><path d="m392.987 425.961c7.109 0 12.893-5.784 12.893-12.894v-23.729c0-7.109-5.783-12.894-12.893-12.894h-61.482c-7.109 0-12.894 5.784-12.894 12.894v23.729c0 7.109 5.784 12.894 12.894 12.894zm-59.376-34.517h57.269v19.517h-57.269z"/></g></g><g/><g/><g/><g/><g/><g/><g/><g/><g/><g/><g/><g/><g/><g/><g/></svg>