<svg enable-background="new 0 0 512 512" height="512" viewBox="0 0 512 512" width="512" xmlns="http://www.w3.org/2000/svg"><g id="_x33_0_Snail"><g><g><path d="m508.744 174.154c1.216 15.192-3.941 29.16-13.089 39.532-13.518 15.327-20.793 35.153-20.793 55.589v76.763c0 65.328-52.959 118.288-118.288 118.288h-345.385c-6.948 0-10.363-8.459-5.361-13.282l4.503-4.342c46.054-44.382 107.546-69.21 171.514-69.21h83.264c75.986 0 137.584-61.598 137.584-137.584v-58.243c-.129-2.059-.129-4.177 0-6.239.193-3.28.675-6.497 1.447-9.584 5.928-24.183 28.391-41.877 54.747-40.368 26.16 1.497 47.767 22.56 49.857 48.68z" fill="#878787"/><g><path d="m454.021 333.357c-1.799 0-3.257-1.458-3.257-3.257v-32.594c0-1.799 1.458-3.257 3.257-3.257s3.257 1.458 3.257 3.257v32.594c0 1.799-1.458 3.257-3.257 3.257z" fill="#fff"/></g><g><path d="m454.021 284.295c-1.799 0-3.257-1.458-3.257-3.257v-8.626c0-1.799 1.458-3.257 3.257-3.257s3.257 1.458 3.257 3.257v8.626c0 1.799-1.458 3.257-3.257 3.257z" fill="#fff"/></g><path d="m200.741 304.886c-13.223 3.606-21.037-5.409-23.741-17.129-4.96-21.491 10.339-41.952 32.26-44.391 22.267-2.477 44.651 11.474 52.828 33.895.831 2.278 1.425 4.63 1.824 7.021 8.96 53.633-47.392 94.683-96.829 73.496-26.446-12.021-45.68-31.255-50.488-60.105-9.617-48.084 19.234-91.36 64.914-108.189 43.276-14.425 93.764 2.404 120.21 38.467 33.247 44.982 29.904 104.281-3.559 145.546-7.674 9.463-16.932 17.977-27.695 25.153-76.935 52.893-182.72 9.617-206.762-76.935-21.638-79.339 31.255-165.89 115.402-182.72 64.914-12.021 117.806 16.829 156.274 64.914 38.529 51.372 37.038 119.897 10.987 175.441-5.06 10.788-18.619 14.44-28.433 7.682l-5.449-3.751-13.845-10.275" fill="#b37f59"/><g fill="#eef0ee"><path d="m503.75 43.494c0 9.196-7.472 16.667-16.668 16.667s-16.667-7.472-16.667-16.667 7.472-16.667 16.667-16.667c9.197 0 16.668 7.471 16.668 16.667z"/><path d="m452.036 43.494c0 9.196-7.472 16.667-16.668 16.667s-16.667-7.472-16.667-16.667 7.472-16.667 16.667-16.667c9.196 0 16.668 7.471 16.668 16.667z"/></g></g><g><path d="m346.661 481.92h-49.296c-1.799 0-3.257 1.458-3.257 3.257s1.458 3.257 3.257 3.257h49.296c1.799 0 3.257-1.458 3.257-3.257s-1.458-3.257-3.257-3.257z"/><path d="m280.193 481.92h-9.04c-1.799 0-3.257 1.458-3.257 3.257s1.458 3.257 3.257 3.257h9.04c1.799 0 3.257-1.458 3.257-3.257s-1.458-3.257-3.257-3.257z"/><path d="m511.811 173.882c-1.985-24.851-20.339-45.172-44.123-50.404l17.031-60.19c.721.079 1.451.127 2.193.127 10.987 0 19.926-8.939 19.926-19.923 0-10.987-8.939-19.926-19.926-19.926-10.984 0-19.923 8.939-19.923 19.926 0 7.958 4.702 14.822 11.464 18.011l-17.247 60.956c-.768-.076-1.523-.195-2.298-.24-7.095-.411-13.998.547-20.457 2.614v-61.708c9.442-1.56 16.674-9.759 16.674-19.634 0-10.987-8.939-19.926-19.926-19.926s-19.926 8.939-19.926 19.926c0 9.871 7.226 18.068 16.664 19.632v64.267c-15.15 7.016-26.937 20.557-31.116 37.641-1.361 5.409-1.894 11.53-1.557 16.638v58.235c0 33.241-11.914 64.409-33.707 88.94 7.941-46.206-1.524-91.935-27.804-126.975-30.388-37.983-82.72-80.292-159.455-66.072-85.699 17.143-140.104 105.397-117.904 186.787 7.005 25.221 21.223 47.661 40.427 65.113-59.563 20.329-94.97 59.058-97.441 60.992-3.287 3.186-4.264 7.794-2.55 12.03 1.712 4.229 5.616 6.855 10.185 6.855h345.385c67.021 0 121.548-54.527 121.548-121.548v-76.758c0-19.854 7.094-38.826 19.976-53.421 10.205-11.569 15.136-26.472 13.887-41.965zm-38.309-130.39c0-7.394 6.015-13.412 13.409-13.412s13.412 6.018 13.412 13.412-6.018 13.409-13.412 13.409-13.409-6.015-13.409-13.409zm-51.716 0c0-7.394 6.018-13.412 13.412-13.412s13.412 6.018 13.412 13.412c0 7.387-6.006 13.395-13.39 13.407-.01 0-.017-.005-.027-.005-.008 0-.015.005-.024.005-7.381-.017-13.383-6.023-13.383-13.407zm-355.113 277.362c-21.323-78.182 31.374-162.365 112.854-178.658 61.97-11.479 113.984 14.806 153.074 63.665 34.673 46.23 38.752 112.177 10.643 172.104-2 4.267-5.761 7.422-10.318 8.656-4.565 1.232-9.427.41-13.32-2.272-.261-.189-17.68-12.816-16.572-12.012 32.706-43.151 33.347-102.74 1.14-146.313-27.63-37.678-79.71-54.349-123.965-39.597-49.001 18.053-76.544 64.061-66.998 111.78 4.633 27.811 22.249 48.851 52.418 62.565 24.755 10.605 53.474 6.71 74.964-10.162 25.42-19.962 32.424-52.428 24.383-74.468-8.582-23.536-32.236-38.665-56.247-36.014-23.453 2.608-40.564 24.569-35.073 48.36 1.893 8.201 5.959 14.526 11.453 17.809 4.707 2.814 10.196 3.394 16.32 1.73 1.735-.473 2.758-2.265 2.285-4s-2.272-2.758-4-2.285c-4.346 1.188-8.132.835-11.262-1.036-3.959-2.366-6.959-7.226-8.45-13.684-4.575-19.824 9.697-38.222 29.444-40.421 21.048-2.323 41.843 11.02 49.411 31.775 7.129 19.543.913 48.889-22.289 67.112-19.61 15.399-45.815 18.966-68.308 9.325-28.009-12.732-44.367-32.139-48.642-57.779-8.921-44.607 16.921-87.575 62.749-104.462 41.541-13.844 90.552 1.845 116.563 37.314 38.653 52.297 26.925 127.811-30.482 166.078-34.582 23.778-77.529 29.009-117.831 14.356-41.159-14.97-72.542-48.419-83.944-89.466zm426.368-109.317c-13.931 15.786-21.605 36.289-21.605 57.731v76.758c0 63.43-51.604 115.034-115.034 115.034h-345.386c-2.801 0-3.883-2.135-4.147-2.789-.267-.654-.977-2.946 1.033-4.893 3.25-2.524 37.108-40.813 98.664-60.724 12.318 10.049 26.401 18.176 41.825 23.784 41.704 15.166 86.886 10.233 123.708-15.081 10.122-6.745 19.149-14.791 26.864-23.933.261.189 18.086 13.112 16.949 12.287 5.478 3.771 12.302 4.936 18.719 3.196 6.407-1.735 11.694-6.175 14.511-12.175 6.14-13.091 10.775-26.467 13.956-39.876 27.518-26.727 42.678-62.526 42.678-100.951l-.008-58.441c-.322-5.146.265-10.469 1.371-14.862 3.445-14.082 12.716-25.434 24.796-31.945v29.401c0 1.799 1.458 3.257 3.257 3.257s3.257-1.458 3.257-3.257v-32.332c6.271-2.299 13.067-3.407 20.083-3.002 24.704 1.427 44.818 21.065 46.785 45.68 1.105 13.717-3.254 26.904-12.276 37.133z"/><path d="m74.238 186.467c9.682-13.061 21.147-24.62 34.075-34.358 1.438-1.081 1.725-3.122.641-4.56-1.081-1.438-3.125-1.725-4.56-.641-13.43 10.112-25.335 22.116-35.388 35.681-1.071 1.445-.768 3.483.677 4.555 1.438 1.067 3.48.775 4.555-.677z"/><path d="m55.554 210.802c1.602.809 3.563.183 4.382-1.425 1.445-2.842 2.99-5.608 4.59-8.221.939-1.532.455-3.537-1.079-4.478-1.532-.936-3.539-.458-4.478 1.079-1.687 2.756-3.315 5.672-4.84 8.664-.814 1.605-.178 3.564 1.425 4.381z"/></g></g></g></svg>