<svg clip-rule="evenodd" fill-rule="evenodd" stroke-linejoin="round" stroke-miterlimit="2" viewBox="0 0 96 96" xmlns="http://www.w3.org/2000/svg"><g><g><path d="m79.504 58.076s-13.298-26.401-1.16-47.849c.407-.721.154-1.637-.567-2.045-.721-.407-1.636-.153-2.044.567-12.853 22.712 1.089 50.671 1.089 50.671.37.74 1.272 1.04 2.013.669.74-.371 1.04-1.273.669-2.013z" fill="#f8987f"/><path d="m85.381 31.907c.729-1.609 1.793-2.099 1.723-2.774-.085-.823-.823-1.423-1.646-1.337s-1.442-.149-2.81 2.874c-1.337 2.954-3.075 10.16-3.075 27.76 0 .828.673 1.5 1.5 1.5.828 0 1.5-.672 1.5-1.5 0-16.806 1.531-23.702 2.808-26.523z" fill="#f8987f"/><path d="m2 91.556c6.421-.828 16.623-3.149 23.733-11.445 14.874-17.352 27.042-3.155 27.042-3.155s23.593-28.859 37.913-14.539c4.803 4.802-10.17 3.39-25.969 24.455-1.335 1.78-2.905 3.336-4.668 4.684h-58.051z" fill="#fac7a5"/><path d="m37.924 27.33c15.995 0 28.981 12.985 28.981 28.98s-12.986 28.98-28.981 28.98c-8.878 0-16.83-4.001-22.148-10.297-7.079-8.382 1.974-10.975-1.15-17.368-1.711-3.504-4.953-11.851-.51-18.857 5.14-8.107 13.508-11.438 23.808-11.438z" fill="#da9c20"/><path d="m14.766 59.698s8.487 5.349 17.487 6.42c6.317.752 12.847-.572 17.162-6.837 6.49-9.422 1.542-18.862-5.629-22.519-3.134-1.599-6.688-2.082-9.919-1.048-4.69 1.501-7.105 4.304-7.946 7.195-1.314 4.522 1.226 9.43 5.639 10.99.781.276 1.639-.134 1.915-.914.275-.781-.134-1.638-.915-1.914-2.941-1.04-4.634-4.311-3.758-7.325.62-2.133 2.52-4.067 5.98-5.175 2.49-.797 5.225-.369 7.641.863 5.777 2.946 9.75 10.555 4.522 18.145-3.592 5.215-9.079 6.186-14.337 5.56-8.361-.995-16.24-5.977-16.24-5.977-.7-.442-1.627-.233-2.069.467s-.233 1.627.467 2.069z" fill="#b6821b"/><g fill="#f8987f"><circle cx="76.543" cy="10.263" r="5.819"/><circle cx="88.181" cy="24.066" r="5.819"/></g></g><g><path d="m2.192 93.043c6.195-.798 15.76-2.969 23.017-10.167.588-.583.592-1.534.009-2.121-.583-.588-1.533-.592-2.121-.009-6.703 6.648-15.567 8.584-21.289 9.322-.821.106-1.401.858-1.296 1.679.106.822.859 1.402 1.68 1.296zm87.854-29.042c-.099.103-.285.289-.456.416-.531.396-1.258.813-2.145 1.304-4.889 2.707-14.253 7.353-23.926 20.251-1.253 1.67-2.726 3.128-4.379 4.392-.658.503-.784 1.445-.281 2.103.503.657 1.445.783 2.103.28 1.872-1.431 3.539-3.084 4.957-4.975 10.895-14.527 21.415-18.176 25.109-20.697 1.235-.843 1.86-1.705 2.023-2.531.178-.906-.087-1.973-1.302-3.188-7.955-7.955-18.6-3.866-27.009 2.279-.669.488-.815 1.428-.326 2.096.488.669 1.427.815 2.096.326 7.217-5.274 16.291-9.407 23.118-2.58.168.168.333.398.418.524z"/><path d="m18.784 35.384c4.822-4.63 11.417-6.554 19.14-6.554 15.167 0 27.481 12.313 27.481 27.48s-12.314 27.48-27.481 27.48c-8.419 0-15.959-3.795-21.002-9.765-1.464-1.733-2.165-3.159-2.365-4.432-.299-1.905.518-3.405 1.164-4.917.996-2.332 1.743-4.66.253-7.71-1.579-3.232-4.69-10.93-.591-17.395.443-.699.235-1.627-.464-2.07s-1.627-.236-2.07.464c-4.786 7.548-1.415 16.544.429 20.318.726 1.485.591 2.705.211 3.86-.318.968-.782 1.898-1.166 2.868-.583 1.473-.993 3.025-.762 4.822.224 1.737 1.05 3.737 3.069 6.128 5.593 6.622 13.956 10.829 23.294 10.829 16.823 0 30.481-13.657 30.481-30.48s-13.658-30.48-30.481-30.48c-8.577 0-15.863 2.248-21.218 7.391-.598.573-.617 1.523-.043 2.121.573.597 1.523.616 2.121.042z"/><path d="m20.569 62.708c3.846 1.704 9.117 3.495 14.305 3.595 5.461.105 10.822-1.623 14.541-7.022 6.49-9.422 1.542-18.862-5.629-22.519-3.134-1.599-6.688-2.082-9.919-1.048-4.69 1.501-7.105 4.304-7.946 7.195-1.314 4.522 1.226 9.43 5.639 10.99.781.276 1.639-.134 1.915-.914.275-.781-.134-1.638-.915-1.914-2.941-1.04-4.634-4.311-3.758-7.325.62-2.133 2.52-4.067 5.98-5.175 2.49-.797 5.225-.369 7.641.863 5.777 2.946 9.75 10.555 4.522 18.145-3.065 4.45-7.513 5.811-12.013 5.725-4.771-.092-9.61-1.772-13.148-3.339-.757-.336-1.643.007-1.979.763-.335.757.007 1.644.764 1.98z"/><path d="m79.504 58.076s-10.985-21.851-3.842-41.964c.277-.78-.131-1.638-.911-1.916-.78-.277-1.639.132-1.916.912-7.541 21.235 3.987 44.312 3.987 44.312.37.74 1.272 1.04 2.013.669.74-.371 1.04-1.273.669-2.013z"/><path d="m76.543 2.944c-4.039 0-7.319 3.28-7.319 7.319 0 4.04 3.28 7.319 7.319 7.319 4.04 0 7.319-3.279 7.319-7.319 0-4.039-3.279-7.319-7.319-7.319zm0 3c2.384 0 4.319 1.935 4.319 4.319s-1.935 4.319-4.319 4.319-4.319-1.935-4.319-4.319 1.935-4.319 4.319-4.319z"/><path d="m88.181 16.747c-4.039 0-7.319 3.279-7.319 7.319 0 4.039 3.28 7.319 7.319 7.319 4.04 0 7.319-3.28 7.319-7.319 0-4.04-3.279-7.319-7.319-7.319zm0 3c2.384 0 4.319 1.935 4.319 4.319 0 2.383-1.935 4.319-4.319 4.319s-4.319-1.936-4.319-4.319c0-2.384 1.935-4.319 4.319-4.319z"/><path d="m86.102 30.678c.682-.252 1.072-.87 1.002-1.545-.085-.823-.823-1.423-1.646-1.337s-1.442-.149-2.81 2.874c-1.337 2.954-3.075 10.16-3.075 27.76 0 .828.673 1.5 1.5 1.5.828 0 1.5-.672 1.5-1.5 0-16.806 1.531-23.702 2.808-26.523.341-.754.785-1.244.785-1.244z"/></g></g></svg>