<svg id="Layer_1" enable-background="new 0 0 512 512" height="512" viewBox="0 0 512 512" width="512" xmlns="http://www.w3.org/2000/svg"><g id="XMLID_1_"><g id="XMLID_3824_"><path id="XMLID_1277_" d="m371 255h-63v-98h63c11 0 20 9 20 20v58c0 11-9 20-20 20z" fill="#ffc96f"/><path id="XMLID_2529_" d="m88 255h-63c-11 0-20-9-20-20v-58c0-11 9-20 20-20h63z" fill="#ffc96f"/><g id="XMLID_1280_" fill="#3279af"><path id="XMLID_2067_" d="m278 265h-24.4c-2.7 0-5.2-1.5-6.3-4l-6.9-14.4c-7.8-16.1-24.4-26.6-42.4-26.6s-34.6 10.5-42.4 26.7l-6.9 14.4c-1.2 2.4-3.6 4-6.3 4h-24.4c-16.6 0-30-13.4-30-30v54.6c0 14.6 11.8 26.4 26.4 26.4h40.5c8.6 0 16.6-4.2 21.5-11.2 10.5-14.9 32.6-14.9 43.1 0 4.9 7 13 11.2 21.5 11.2h40.5c14.6 0 26.4-11.8 26.4-26.4v-54.7c.1 16.6-13.3 30-29.9 30z"/><path id="XMLID_2528_" d="m281.6 96h-167.2c-14.6 0-26.4 11.8-26.4 26.4v54.6c0-16.6 13.4-30 30-30h160c16.6 0 30 13.4 30 30v-54.6c0-14.6-11.8-26.4-26.4-26.4z"/></g><g id="XMLID_2517_" fill="#275e87"><path id="XMLID_2526_" d="m147 96h102v51h-102z"/><path id="XMLID_2527_" d="m247.3 261-6.9-14.4c-7.8-16.1-24.4-26.6-42.4-26.6s-34.6 10.5-42.4 26.7l-6.9 14.4c-.4.9-1 1.6-1.7 2.2v52.7h7.9c8.6 0 16.6-4.2 21.5-11.2 10.5-14.9 32.6-14.9 43.1 0 4.9 7 13 11.2 21.5 11.2h7.9v-52.7c-.6-.7-1.2-1.4-1.6-2.3z"/></g><path id="XMLID_2525_" d="m344 127h-292c-14.9 0-27 12.1-27 27v18.2c0 27.5 7.6 54.4 21.8 77.9l13.3 21.9c4.9 8.1 13.7 13 23.1 13h59.2c10.4 0 19.9-6 24.4-15.3l6.9-14.4c4.5-9.4 14-15.3 24.4-15.3s19.9 6 24.4 15.3l6.9 14.4c4.5 9.4 14 15.3 24.4 15.3h59.2c9.4 0 18.2-4.9 23.1-13l13.3-21.8c14.3-23.5 21.8-50.4 21.8-77.9v-18.3c-.2-14.9-12.3-27-27.2-27zm-36 108c0 16.6-13.4 30-30 30h-24.4c-2.7 0-5.2-1.5-6.3-4l-6.9-14.4c-7.8-16.1-24.4-26.6-42.4-26.6s-34.6 10.5-42.4 26.7l-6.9 14.4c-1.2 2.4-3.6 4-6.3 4h-24.4c-16.6 0-30-13.4-30-30v-58c0-16.6 13.4-30 30-30h160c16.6 0 30 13.4 30 30z" fill="#9cd3fc"/><g id="XMLID_2519_" fill="#275e87"><path id="XMLID_2521_" d="m88 235v-58c0-16.6 13.4-30 30-30h-66c-3.9 0-7 3.2-7 7v18.2c0 23.8 6.5 47.2 18.9 67.5l13.3 21.8c1.3 2.1 3.6 3.4 6 3.4h34.8c-16.6.1-30-13.3-30-29.9z"/><path id="XMLID_2522_" d=""/><path id="XMLID_2523_" d="m344 147h-66c16.6 0 30 13.4 30 30v58c0 16.6-13.4 30-30 30h34.8c2.4 0 4.7-1.3 6-3.4l13.3-21.8c12.4-20.4 18.9-43.7 18.9-67.5v-18.3c0-3.8-3.2-7-7-7z"/></g><path id="XMLID_1272_" d="m356 492h-20v-30h13.8l87.3-87.1c16.1-16.1 25-37.4 25-60.2v-170.5c0-21.5-8-42-22.6-57.7l-38.2-41.2 22-20.4 38.2 41.2c19.7 21.3 30.6 49.1 30.6 78.1v170.6c0 30.8-12 59.7-33.8 81.4l-91.6 91.5c-2.9 2.7-6.7 4.3-10.7 4.3z" fill="#69bdfb"/><path id="XMLID_1771_" d="m492 286h-30v28.7c0 22.7-8.9 44.1-25 60.2l21.2 21.2c21.8-21.7 33.8-50.6 33.8-81.4z" fill="#3279af"/><g id="XMLID_1269_"><path id="XMLID_1270_" d="m412.2 463.3-35 34.9c-5.6 5.6-13.2 8.8-21.2 8.8h-70c-16.6 0-30-13.4-30-30v-73h60v43h27.6l26.2-26.2z" fill="#3279af"/></g><path id="XMLID_1788_" d="m412.2 463.3-35 34.9c-5.6 5.6-13.2 8.8-21.2 8.8h-70c-16.6 0-30-13.4-30-30h100l35-34.9z" fill="#275e87"/><g id="XMLID_1267_"><path id="XMLID_1766_" d="m449.2 358.8h30v10h-30z" fill="#275e87" transform="matrix(.851 .525 -.525 .851 259.781 -189.432)"/></g><g id="XMLID_1266_"><path id="XMLID_1296_" d="m458.7 335.2h30v10h-30z" fill="#275e87" transform="matrix(.977 .215 -.215 .977 84.221 -93.891)"/></g><g id="XMLID_1265_"><path id="XMLID_1290_" d="m462 310h30v10h-30z" fill="#275e87"/></g><g id="XMLID_1263_"><path id="XMLID_1264_" d="m428.4 96.6-69.3-74.8c-5.9-6.4-1.4-16.8 7.3-16.8h45.8c8.4 0 16.3 3.5 22 9.6l38.2 41.2z" fill="#3279af"/></g><path id="XMLID_1274_" d="m447 226h60v60h-60z" fill="#cde9fe"/><path id="XMLID_1268_" d="m477 226h30v60h-30z" fill="#9cd3fc"/><g fill="#275e87"><path id="XMLID_1790_" d="m472.4 55.9-22 20.4-66-71.3h27.8c8.4 0 16.3 3.5 22 9.6z"/><path id="XMLID_1273_" d="m336 381-19.9 46h-60.2l-19.9-46h27l8.8 23h28.4l8.8-23z"/></g></g><g id="XMLID_3780_"><g id="XMLID_262_"><path id="XMLID_2721_" d="m312.8 290h-59.2c-12.2 0-23.6-7.1-28.9-18.2l-6.9-14.4c-3.6-7.6-11.4-12.5-19.9-12.5s-16.2 4.9-19.9 12.5l-6.9 14.4c-5.3 11-16.6 18.2-28.9 18.2h-59c-11.1 0-21.6-5.9-27.4-15.4l-8.9-14.6h-22c-13.8 0-25-11.2-25-25v-58c0-12.1 8.6-22.2 20-24.5.8-17 14.8-30.5 32-30.5h292c17.7 0 32 14.4 32 32v18.2c0 28.4-7.8 56.3-22.6 80.5l-13.3 21.8c-5.6 9.6-16.1 15.5-27.2 15.5zm-114.8-55c12.2 0 23.6 7.1 28.9 18.2l6.9 14.4c3.6 7.6 11.4 12.5 19.9 12.5h59.2c7.6 0 14.8-4.1 18.8-10.6l13.3-21.8c13.8-22.7 21.1-48.8 21.1-75.3v-18.4c0-12.1-9.9-22-22-22h-292.1c-12.1 0-22 9.9-22 22v18.2c0 20.8 4.6 41.8 13.3 60.7l-9.1 4.2c-9.3-20.2-14.2-42.6-14.2-64.8v-9.4c-5.8 2.1-10 7.6-10 14.1v58c0 8.3 6.7 15 15 15h24.8c1.7 0 3.4.9 4.3 2.4l10.3 17c4 6.5 11.2 10.6 18.8 10.6h59.2c8.4 0 16.2-4.9 19.9-12.5l6.9-14.4c5.2-11 16.6-18.1 28.8-18.1z" fill="#4d2419"/></g><g id="XMLID_261_"><path id="XMLID_2718_" d="m312.8 270h-59.2c-4.6 0-8.8-2.7-10.8-6.8l-6.9-14.4c-7-14.5-21.8-23.8-37.9-23.8s-30.9 9.4-37.9 23.8l-6.9 14.4c-2 4.1-6.2 6.8-10.8 6.8h-59.2c-4.2 0-8.1-2.2-10.3-5.8l-13.3-21.8c-12.8-21.1-19.6-45.4-19.6-70.1v-18.3c0-6.6 5.4-12 12-12h292c6.6 0 12 5.4 12 12v18.2c0 24.7-6.8 49-19.6 70.1l-13.3 21.8c-2.2 3.7-6.1 5.9-10.3 5.9zm-114.8-55c19.9 0 38.3 11.6 46.9 29.5l6.9 14.4c.3.7 1.1 1.1 1.8 1.1h59.2c.7 0 1.4-.4 1.7-1l13.3-21.8c11.9-19.6 18.2-42 18.2-64.9v-18.3c0-1.1-.9-2-2-2h-292c-1.1 0-2 .9-2 2v18.2c0 22.9 6.3 45.4 18.2 64.9l13.3 21.9c.4.6 1 1 1.7 1h59.2c.8 0 1.5-.5 1.8-1.1l6.9-14.4c8.6-17.9 27-29.5 46.9-29.5z" fill="#4d2419"/></g><g id="XMLID_264_"><path id="XMLID_2717_" d="m371 260h-24.8v-10h24.8c8.3 0 15-6.7 15-15v-58c0-8.3-6.7-15-15-15v-10c13.8 0 25 11.2 25 25v58c0 13.8-11.2 25-25 25z" fill="#4d2419"/></g><g id="XMLID_316_"><path id="XMLID_2716_" d="m281.6 321h-40.5c-10.2 0-19.8-5-25.6-13.3-4.1-5.7-10.4-9-17.5-9s-13.4 3.3-17.5 9c-5.9 8.3-15.5 13.3-25.6 13.3h-40.5c-17.3 0-31.4-14.1-31.4-31.4v-4.6h10v4.6c0 11.8 9.6 21.4 21.4 21.4h40.5c6.9 0 13.5-3.4 17.5-9 6-8.4 15.3-13.3 25.6-13.3s19.7 4.8 25.6 13.3c4 5.7 10.5 9 17.5 9h40.5c11.8 0 21.4-9.6 21.4-21.4v-4.6h10v4.6c0 17.3-14.1 31.4-31.4 31.4z" fill="#4d2419"/></g><g id="XMLID_252_"><path id="XMLID_2715_" d="m313 127h-10v-4.6c0-11.8-9.6-21.4-21.4-21.4h-167.2c-11.8 0-21.4 9.6-21.4 21.4v4.6h-10v-4.6c0-17.3 14.1-31.4 31.4-31.4h167.2c17.3 0 31.4 14.1 31.4 31.4z" fill="#4d2419"/></g><g id="XMLID_266_"><path id="XMLID_2711_" d="m278 270h-24.4c-4.6 0-8.8-2.7-10.8-6.8l-6.9-14.4c-7-14.5-21.8-23.8-37.9-23.8s-30.9 9.4-37.9 23.8l-6.9 14.4c-2 4.1-6.2 6.8-10.8 6.8h-24.4c-19.3 0-35-15.7-35-35v-58c0-19.3 15.7-35 35-35h160c19.3 0 35 15.7 35 35v58c0 19.3-15.7 35-35 35zm-80-55c19.9 0 38.3 11.6 46.9 29.5l6.9 14.4c.3.7 1.1 1.1 1.8 1.1h24.4c13.8 0 25-11.2 25-25v-58c0-13.8-11.2-25-25-25h-160c-13.8 0-25 11.2-25 25v58c0 13.8 11.2 25 25 25h24.4c.8 0 1.5-.5 1.8-1.1l6.9-14.4c8.6-17.9 27-29.5 46.9-29.5z" fill="#4d2419"/></g><g id="XMLID_263_"><path id="XMLID_2708_" d="m507 291h-60c-2.8 0-5-2.2-5-5v-60c0-2.8 2.2-5 5-5h60c2.8 0 5 2.2 5 5v60c0 2.8-2.2 5-5 5zm-55-10h50v-50h-50z" fill="#4d2419"/></g><g id="XMLID_483_"><path id="XMLID_2705_" d="m316.1 432h-60.1c-2 0-3.8-1.2-4.6-3l-19.9-46c-.7-1.5-.5-3.3.4-4.7s2.5-2.3 4.2-2.3h27c2.1 0 3.9 1.3 4.7 3.2l7.5 19.8h21.6l7.5-19.8c.7-1.9 2.6-3.2 4.7-3.2h27c1.7 0 3.3.8 4.2 2.3.9 1.4 1.1 3.2.4 4.7l-19.9 46c-.9 1.8-2.7 3-4.7 3zm-56.9-10h53.6l15.6-36h-15.9l-7.5 19.8c-.7 1.9-2.6 3.2-4.7 3.2h-28.5c-2.1 0-3.9-1.3-4.7-3.2l-7.5-19.8h-15.9z" fill="#4d2419"/></g><g id="XMLID_265_"><g id="XMLID_158_"><path id="XMLID_2704_" d="m383.9 435-7.1-7.1 56.6-56.5c15.1-15.1 23.5-35.2 23.5-56.6v-28.8h10v28.7c0 24.1-9.4 46.7-26.4 63.7z" fill="#4d2419"/></g><g id="XMLID_114_"><path id="XMLID_2703_" d="m405.1 456.2-7.1-7.1 56.6-56.5c20.8-20.8 32.3-48.4 32.3-77.9v-29.7h10v29.7c0 32.1-12.5 62.3-35.2 84.9z" fill="#4d2419"/></g><g id="XMLID_124_"><path id="XMLID_2702_" d="m497 226h-10v-81.8c0-27.8-10.4-54.3-29.3-74.7l7.3-6.8c20.6 22.2 31.9 51.2 31.9 81.5v81.8z" fill="#4d2419"/></g><g id="XMLID_95_"><path id="XMLID_2701_" d="m467 206h-10v-61.8c0-20.2-7.6-39.5-21.3-54.3l7.3-6.9c15.4 16.7 24 38.4 24 61.1z" fill="#4d2419"/></g></g><g id="XMLID_315_"><g id="XMLID_676_"><path id="XMLID_2689_" d="m356 512h-70c-19.3 0-35-15.7-35-35v-50c0-2.8 2.2-5 5-5h60c2.8 0 5 2.2 5 5v15h20.5l24.8-24.7c.9-.9 2.2-1.5 3.5-1.5 1.3 0 2.6.5 3.5 1.5l42.4 42.5c2 2 1.9 5.1 0 7.1l-35 34.9c-6.6 6.6-15.4 10.2-24.7 10.2zm-95-80v45c0 13.8 11.2 25 25 25h70c6.7 0 12.9-2.6 17.7-7.3l31.5-31.4-35.3-35.4-22.7 22.6c-.9.9-2.2 1.5-3.5 1.5h-27.7c-2.8 0-5-2.2-5-5v-15z" fill="#4d2419"/></g></g><g id="XMLID_319_"><path id="XMLID_2688_" d="m432.6 380.5h30v10h-30z" fill="#4d2419" transform="matrix(.707 .708 -.708 .707 404.259 -203.658)"/></g><g id="XMLID_627_"><g id="XMLID_628_"><path id="XMLID_2685_" d="m428.4 101.6c-1.3 0-2.7-.5-3.7-1.6l-69.3-74.8c-4.1-4.4-5.2-10.6-2.7-16.2s7.7-9 13.7-9h45.8c9.7 0 19.1 4.1 25.7 11.2l38.2 41.2c.9 1 1.4 2.3 1.3 3.6s-.6 2.6-1.6 3.5l-44 40.8c-1 .9-2.2 1.3-3.4 1.3zm-62-91.6c-3 0-4.3 2.3-4.6 3s-1.1 3.2.9 5.4l65.9 71.2 36.7-34-34.8-37.6c-4.7-5.1-11.4-8-18.3-8z" fill="#4d2419"/></g></g><g id="XMLID_519_"><path id="XMLID_2572_" d="m449.2 358.8h30v10h-30z" fill="#4d2419" transform="matrix(.851 .525 -.525 .851 259.781 -189.432)"/></g><g id="XMLID_518_"><path id="XMLID_2571_" d="m458.7 335.2h30v10h-30z" fill="#4d2419" transform="matrix(.977 .215 -.215 .977 84.221 -93.891)"/></g><g id="XMLID_516_"><path id="XMLID_2570_" d="m462 310h30v10h-30z" fill="#4d2419"/></g></g></g></svg>