<svg id="Layer_1" viewBox="0 0 1000 1000" xmlns="http://www.w3.org/2000/svg" data-name="Layer 1"><path d="m725.17 682.33a225.17 225.17 0 1 1 -409.58-129.24q3.53-5 7.29-9.82 4.65-5.94 9.68-11.52a224 224 0 0 1 71.22-53.06q7.94-3.75 16.21-6.9a7.5 7.5 0 1 1 5.33 14c-.88.33-1.75.67-2.62 1-79.59 31.5-132.86 109.7-132.86 195.49 0 115.89 94.28 210.17 210.17 210.17s210.17-94.28 210.17-210.17c0-85.8-53.28-164-132.87-195.49-.87-.36-1.74-.7-2.62-1l-.39-.16a7.47 7.47 0 0 1 -4.37-5.85 7.29 7.29 0 0 1 .41-3.67 7.51 7.51 0 0 1 9.68-4.34q8.26 3.15 16.22 6.91a223.76 223.76 0 0 1 71.22 53.06q5 5.58 9.68 11.52 3.76 4.79 7.28 9.8a223.77 223.77 0 0 1 40.75 129.27z"/><path d="m635.17 350.74a133.52 133.52 0 0 1 -19.84 70.54 135.12 135.12 0 0 1 -9.3 13.29 7.5 7.5 0 0 1 -11.76-9.31l.82-1.07a120.15 120.15 0 0 0 -30.09-174.52c-.73-.48-1.47-.94-2.21-1.4a7.5 7.5 0 0 1 2.53-13.76l.56-.08a7.41 7.41 0 0 1 4.76 1.06 135.08 135.08 0 0 1 64.52 115.25z"/><path d="m437.2 248.27c-.74.46-1.48.92-2.21 1.4a120.17 120.17 0 0 0 -30.11 174.5c.27.37.55.73.84 1.09a7.5 7.5 0 0 1 -11.72 9.31 136.24 136.24 0 0 1 -9.28-13.26 133.66 133.66 0 0 1 -19.85-70.57 135.49 135.49 0 0 1 64.52-115.25 7.41 7.41 0 0 1 4.76-1.06l.56.08a7.5 7.5 0 0 1 2.53 13.76z"/><path d="m629.12 432a24.1 24.1 0 0 0 -13.79-10.71 25 25 0 0 0 -7-1 24.32 24.32 0 0 0 -12.55 3.5l-.68.4c-32.39 19.47-63.5 28.94-95.09 28.94s-62.72-9.47-95.12-29l-.66-.39a24.28 24.28 0 0 0 -25.14 41.55q12.3 7.44 24.7 13.36 9.44 4.53 18.91 8.15c25.68 9.85 51.55 14.81 77.3 14.81a202.74 202.74 0 0 0 24.93-1.55q8.64-1.07 17.27-2.87 9.25-1.94 18.51-4.72 7.46-2.24 14.88-5l1.69-.65q9.48-3.61 18.92-8.14 12.39-5.93 24.7-13.37a24.31 24.31 0 0 0 8.22-33.31zm-16 20.51c-37.46 22.66-75.53 34.15-113.15 34.15s-75.69-11.49-113.15-34.15a9.28 9.28 0 0 1 4.82-17.22 9.2 9.2 0 0 1 4.78 1.34c34.58 20.9 69.43 31.5 103.58 31.5s69-10.6 103.55-31.51a9.28 9.28 0 0 1 12.74 3.13 9.3 9.3 0 0 1 -3.14 12.75z"/><path d="m613.15 452.5c-37.46 22.66-75.53 34.15-113.15 34.15s-75.69-11.49-113.15-34.15a9.28 9.28 0 0 1 4.82-17.22 9.2 9.2 0 0 1 4.78 1.34c34.55 20.91 69.4 31.51 103.55 31.51s69-10.6 103.55-31.51a9.28 9.28 0 0 1 12.74 3.13 9.3 9.3 0 0 1 -3.14 12.75z" fill="#f8bbd0"/><path d="m598.28 631.75a8.77 8.77 0 0 1 -8.66 7.61 7.94 7.94 0 0 1 -1.17-.08 8.77 8.77 0 0 1 -7.54-9.83c4.77-35.93-1.94-70.93-19.93-104a187.65 187.65 0 0 0 -18.77-28.19q9.25-1.94 18.51-4.72a208 208 0 0 1 15 23.39c20.02 36.22 27.81 76.27 22.56 115.82z" fill="#f8bbd0"/><path d="m613.15 633.72a23.81 23.81 0 0 1 -23.53 20.64 25.77 25.77 0 0 1 -3.12-.2 23.81 23.81 0 0 1 -20.5-26.68c4.34-32.72-1.79-64.64-18.23-94.9a171.09 171.09 0 0 0 -22.87-32.48c-1.06-1.18-1.92-2.08-2.51-2.69a7.5 7.5 0 0 1 10.74-10.48c1.94 2 5.17 5.47 9.05 10.3a187.65 187.65 0 0 1 18.82 28.19c18 33.1 24.7 68.1 19.93 104a8.77 8.77 0 0 0 7.54 9.83 7.94 7.94 0 0 0 1.17.08 8.77 8.77 0 0 0 8.66-7.61c5.25-39.55-2.54-79.6-22.52-115.85a208 208 0 0 0 -15-23.39q-1.53-2.07-3.11-4.1a7.5 7.5 0 1 1 11.82-9.23l.48.62q2.24 2.88 4.37 5.85c.45.61.89 1.22 1.32 1.84a222 222 0 0 1 13.29 21.17c21.49 39.1 29.87 82.37 24.2 125.09z"/><path d="m500 596.45a31.93 31.93 0 1 0 31.93 31.93 32 32 0 0 0 -31.93-31.93zm0 48.85a16.93 16.93 0 1 1 16.93-16.92 16.95 16.95 0 0 1 -16.93 16.92z"/><path d="m500 688.61a31.93 31.93 0 1 0 31.93 31.93 32 32 0 0 0 -31.93-31.93zm0 48.86a16.93 16.93 0 1 1 16.93-16.93 16.95 16.95 0 0 1 -16.93 16.93z"/><path d="m500 787.14a31.93 31.93 0 1 0 31.93 31.93 32 32 0 0 0 -31.93-31.93zm0 48.86a16.93 16.93 0 1 1 16.93-16.93 17 17 0 0 1 -16.93 16.93z"/><path d="m577.3 486.84-1.69.65a222 222 0 0 1 13.29 21.17c21.55 39.07 29.93 82.32 24.26 125.06a23.81 23.81 0 0 1 -23.53 20.64 25.77 25.77 0 0 1 -3.12-.2 23.81 23.81 0 0 1 -20.51-26.68c4.34-32.72-1.79-64.64-18.23-94.9a171.09 171.09 0 0 0 -22.87-32.48 202.74 202.74 0 0 1 -24.9 1.55c-25.75 0-51.62-5-77.3-14.81-79.59 31.5-132.86 109.7-132.86 195.49 0 115.89 94.28 210.17 210.17 210.17s210.17-94.28 210.17-210.17c-.01-85.8-53.29-163.99-132.88-195.49zm-77.3 364.16a31.93 31.93 0 1 1 31.93-31.93 32 32 0 0 1 -31.93 31.93zm0-98.53a31.93 31.93 0 1 1 31.93-31.93 32 32 0 0 1 -31.93 31.93zm0-92.17a31.93 31.93 0 1 1 31.93-31.92 32 32 0 0 1 -31.93 31.92z" fill="#c8e6c9"/><g fill="#f8bbd0"><circle cx="500" cy="819.07" r="16.93"/><path d="m516.93 720.54a16.93 16.93 0 1 1 -16.93-16.93 16.95 16.95 0 0 1 16.93 16.93z"/><path d="m516.93 628.38a16.93 16.93 0 1 1 -16.93-16.93 16.95 16.95 0 0 1 16.93 16.93z"/></g><path d="m452.63 283.15a26.23 26.23 0 1 0 26.23 26.23 26.26 26.26 0 0 0 -26.23-26.23zm0 37.45a11.23 11.23 0 1 1 11.23-11.22 11.23 11.23 0 0 1 -11.23 11.22z"/><path d="m547.37 283.15a26.23 26.23 0 1 0 26.22 26.23 26.26 26.26 0 0 0 -26.22-26.23zm0 37.45a11.23 11.23 0 1 1 11.22-11.22 11.24 11.24 0 0 1 -11.22 11.22z"/><path d="m544.87 421.88c-14.68 12.63-29.78 18.95-44.87 18.95s-30.19-6.31-44.87-18.95a7.5 7.5 0 0 1 9.79-11.37c23.93 20.61 46.23 20.61 70.16 0a7.5 7.5 0 1 1 9.79 11.37z"/><path d="m495.77 347.8a28.26 28.26 0 0 0 -25.55-4.13l-62.56 20.06a7.5 7.5 0 0 0 0 14.28l62.56 20.06a28.89 28.89 0 0 0 8.81 1.39 28.58 28.58 0 0 0 16.74-51.66zm-8.84 34a13.45 13.45 0 0 1 -12.13 2l-40.29-12.92 40.29-12.88a13.56 13.56 0 0 1 12.13 23.87z"/><path d="m565 249.67a509.75 509.75 0 0 1 -65 3.94 509.75 509.75 0 0 1 -65-3.94 120.17 120.17 0 0 0 -30.11 174.5c32.4 19.49 63.52 29 95.12 29s62.7-9.47 95.09-28.94a120.15 120.15 0 0 0 -30.1-174.56zm-112.37 33.48a26.23 26.23 0 1 1 -26.22 26.23 26.26 26.26 0 0 1 26.22-26.23zm-50.18 87.72a7.49 7.49 0 0 1 5.21-7.14l62.56-20.06a28.57 28.57 0 1 1 8.78 55.79 28.89 28.89 0 0 1 -8.81-1.39l-62.53-20.07a7.49 7.49 0 0 1 -5.21-7.13zm142.42 51c-14.68 12.63-29.78 18.95-44.87 18.95s-30.19-6.31-44.87-18.95a7.5 7.5 0 0 1 9.79-11.37c23.93 20.61 46.23 20.61 70.16 0a7.5 7.5 0 1 1 9.79 11.37zm2.5-86.28a26.23 26.23 0 1 1 26.22-26.22 26.26 26.26 0 0 1 -26.22 26.23z" fill="#c8e6c9"/><path d="m492.5 370.87a13.56 13.56 0 0 1 -17.7 12.92l-40.29-12.92 40.29-12.87a13.55 13.55 0 0 1 17.7 12.91z" fill="#e53935"/><path d="m558.59 309.38a11.23 11.23 0 1 1 -11.22-11.23 11.23 11.23 0 0 1 11.22 11.23z" fill="#b0bec5"/><path d="m463.86 309.38a11.23 11.23 0 1 1 -11.23-11.23 11.24 11.24 0 0 1 11.23 11.23z" fill="#b0bec5"/><path d="m642 213.91c0 13-14.76 22.79-45.14 30.06-3.52.84-7.2 1.64-11 2.37-6.56 1.27-13.53 2.39-20.83 3.33a509.75 509.75 0 0 1 -65 3.94 509.75 509.75 0 0 1 -65-3.94c-7.3-.94-14.27-2.06-20.83-3.33-3.81-.73-7.49-1.53-11-2.37-30.43-7.27-45.2-17.11-45.2-30.06 0-18.79 33.09-28.65 63.4-33.75 2.15-.36 4.29-.7 6.4-1a7.49 7.49 0 0 1 8.52 6.31 7.12 7.12 0 0 1 .08 1.12 7.49 7.49 0 0 1 -6.4 7.41c-2.95.44-5.83.91-8.61 1.41-14.58 2.58-26.75 5.85-35.56 9.56-10.66 4.51-12.84 8.21-12.84 9 0 1.47 6 8.85 33.64 15.48 8.3 2 17.53 3.68 27.46 5l.56.08a491.48 491.48 0 0 0 65.33 4.1 491.48 491.48 0 0 0 65.33-4.1l.56-.08c9.93-1.36 19.16-3.06 27.46-5 27.66-6.63 33.64-14 33.64-15.48 0-.75-2.18-4.45-12.84-9-8.81-3.71-21-7-35.56-9.56-2.78-.5-5.66-1-8.61-1.41a7.49 7.49 0 0 1 -6.39-7.4 7.12 7.12 0 0 1 .08-1.12 7.5 7.5 0 0 1 8.52-6.31c2.11.31 4.25.65 6.4 1 30.33 5.09 63.43 14.95 63.43 33.74z"/><path d="m541.71 92.5h-83.42a36.92 36.92 0 0 0 -36.88 36.88v77.22a7.5 7.5 0 0 0 7.5 7.5h142.18a7.5 7.5 0 0 0 7.5-7.5v-77.22a36.92 36.92 0 0 0 -36.88-36.88zm21.88 106.6h-127.18v-69.72a21.9 21.9 0 0 1 21.88-21.88h83.42a21.9 21.9 0 0 1 21.88 21.88z"/><path d="m627 213.91c0 1.47-6 8.85-33.64 15.48-8.3 2-17.53 3.68-27.46 5l-.56.08a491.48 491.48 0 0 1 -65.33 4.1 491.48 491.48 0 0 1 -65.33-4.1l-.56-.08c-9.93-1.36-19.16-3.06-27.46-5-27.66-6.63-33.66-14.01-33.66-15.48 0-.75 2.18-4.45 12.84-9 8.81-3.71 21-7 35.56-9.56v11.25a7.5 7.5 0 0 0 7.5 7.5h142.19a7.5 7.5 0 0 0 7.5-7.5v-11.21c14.58 2.58 26.75 5.85 35.56 9.56 10.66 4.51 12.85 8.21 12.85 8.96z" fill="#ef9a9a"/><path d="m563.59 129.38v69.72h-127.18v-69.72a21.9 21.9 0 0 1 21.88-21.88h83.42a21.9 21.9 0 0 1 21.88 21.88z" fill="#ffcdd2"/><path d="m667 550.26a7.5 7.5 0 0 1 -5.3-12.8l84.61-84.61a7.5 7.5 0 1 1 10.6 10.6l-84.61 84.61a7.44 7.44 0 0 1 -5.3 2.2z"/><path d="m845.7 475.28a6.62 6.62 0 0 1 -.77 0l-94-9.63a7.51 7.51 0 0 1 -6.5-5.6l-16.66-65a7.5 7.5 0 0 1 14.53-3.72l15.36 59.89 88.85 9.1a7.5 7.5 0 0 1 -.76 15z"/><path d="m333 550.26a7.44 7.44 0 0 1 -5.3-2.2l-84.62-84.61a7.5 7.5 0 1 1 10.6-10.6l84.62 84.61a7.5 7.5 0 0 1 -5.3 12.8z"/><path d="m154.3 475.28a7.5 7.5 0 0 1 -.76-15l88.85-9.1 15.36-59.89a7.5 7.5 0 0 1 14.53 3.72l-16.66 65a7.51 7.51 0 0 1 -6.5 5.6l-94.05 9.63a6.62 6.62 0 0 1 -.77.04z"/></svg>