<svg id="Layer_1" viewBox="0 0 1000 1000" xmlns="http://www.w3.org/2000/svg" data-name="Layer 1"><path d="m658.37 474.78a156.53 156.53 0 0 1 -24.21 84.22 161.57 161.57 0 0 1 -9.93 14 7.5 7.5 0 0 1 -11.76-9.31c.28-.35.56-.71.83-1.07a143.37 143.37 0 0 0 -36.13-208.68l-2.25-1.41a7.49 7.49 0 0 1 2.46-13.74h.07l.79-.11h.14a7.5 7.5 0 0 1 4.39 1.1 156.61 156.61 0 0 1 15.53 10.88 158.13 158.13 0 0 1 60.07 124.15z"/><path d="m425.08 352.53-2.25 1.41a143.39 143.39 0 0 0 -36.15 208.67l.84 1.08a7.5 7.5 0 0 1 -11.76 9.31 162.58 162.58 0 0 1 -9.91-14 156.52 156.52 0 0 1 -24.22-84.24 158.13 158.13 0 0 1 60.07-124.13 156.61 156.61 0 0 1 15.53-10.88 7.58 7.58 0 0 1 4.39-1.1h.12l.81.11h.07a7.49 7.49 0 0 1 2.46 13.74z"/><path d="m651.42 571.5a27.1 27.1 0 0 0 -17.26-12.5 27.78 27.78 0 0 0 -6.14-.68 27.25 27.25 0 0 0 -14.13 3.95l-.59.35c-38.58 23.23-75.64 34.52-113.3 34.52s-74.73-11.3-113.32-34.53l-.57-.34a27.23 27.23 0 0 0 -20.26-3.27 27.32 27.32 0 0 0 -8 50c46.85 28.35 94.69 42.72 142.18 42.72s95.29-14.34 142.15-42.72a27.35 27.35 0 0 0 9.24-37.5zm-17 24.7c-44.48 26.91-89.71 40.55-134.42 40.55s-89.94-13.64-134.42-40.55a12.33 12.33 0 1 1 12.76-21.1c40.63 24.58 81.56 37 121.66 37s81-12.46 121.66-37a12.33 12.33 0 1 1 12.76 21.1z"/><path d="m444 396.28a29.63 29.63 0 1 0 29.62 29.63 29.66 29.66 0 0 0 -29.62-29.63zm0 44.25a14.63 14.63 0 1 1 14.62-14.62 14.64 14.64 0 0 1 -14.62 14.62z"/><path d="m556 396.28a29.63 29.63 0 1 0 29.63 29.63 29.67 29.67 0 0 0 -29.63-29.63zm0 44.25a14.63 14.63 0 1 1 14.63-14.62 14.65 14.65 0 0 1 -14.63 14.62z"/><path d="m552.13 557.82c-17.07 14.7-34.61 22.18-52.13 22.18s-35.06-7.45-52.13-22.15a7.5 7.5 0 0 1 9.78-11.37c28.5 24.53 56.2 24.54 84.69 0a7.5 7.5 0 1 1 9.79 11.37z"/><path d="m495.77 470.25a28.28 28.28 0 0 0 -25.55-4.12l-78.93 25.3a7.5 7.5 0 0 0 0 14.28l78.93 25.29a28.89 28.89 0 0 0 8.81 1.39 28.63 28.63 0 0 0 28.47-28.59v-10.47a28.3 28.3 0 0 0 -11.73-23.08zm-3.27 33.57a13.55 13.55 0 0 1 -17.7 12.91l-56.65-18.16 56.65-18.16a13.56 13.56 0 0 1 17.7 12.92z"/><path d="m666.43 313.09c0 14.38-17.6 25.89-52.3 34.2-5 1.2-10.31 2.32-15.83 3.34-6.72 1.25-13.78 2.35-21.13 3.31a601 601 0 0 1 -77.17 4.71 601 601 0 0 1 -77.17-4.71c-7.35-1-14.41-2.06-21.13-3.31-5.52-1-10.81-2.14-15.83-3.34-34.71-8.31-52.3-19.82-52.3-34.2 0-21.5 39.34-32.86 74.93-38.72q3.22-.54 6.39-1a7.52 7.52 0 0 1 8.53 6.31 7 7 0 0 1 .08 1.11 7.5 7.5 0 0 1 -6.4 7.42q-4.47.66-8.6 1.38c-45.05 7.75-59.93 19-59.93 23.51 0 2.74 7.33 11.6 40.79 19.62 9.77 2.34 20.6 4.33 32.26 5.94h.12l.81.11h.07a583 583 0 0 0 77.38 4.88 583 583 0 0 0 77.38-4.86h.07l.79-.11h.14c11.66-1.61 22.49-3.6 32.25-5.94 33.47-8 40.8-16.88 40.8-19.62 0-4.5-14.87-15.76-59.93-23.51-2.76-.47-5.62-.93-8.61-1.38a7.5 7.5 0 0 1 -6.39-7.42 7 7 0 0 1 .08-1.11 7.52 7.52 0 0 1 8.53-6.31q3.17.47 6.39 1c35.59 5.84 74.93 17.2 74.93 38.7z"/><path d="m554.63 171h-109.26a36.92 36.92 0 0 0 -36.87 36.88v96.59a7.49 7.49 0 0 0 7.5 7.53h168a7.5 7.5 0 0 0 7.5-7.5v-96.64a36.92 36.92 0 0 0 -36.87-36.86zm21.87 126h-153v-89.14a21.9 21.9 0 0 1 21.87-21.86h109.26a21.9 21.9 0 0 1 21.87 21.88z"/><path d="m734 699a84.21 84.21 0 0 0 -37.81-9h-392.38a84.58 84.58 0 0 0 -84.55 84.21v7.5a7.5 7.5 0 0 0 7.5 7.5h546.48a7.5 7.5 0 0 0 7.5-7.5v-7.5a84.65 84.65 0 0 0 -46.74-75.21zm-499.74 75.25a69.63 69.63 0 0 1 69.55-69.25h392.38a69.63 69.63 0 0 1 69.55 69.21z"/><path d="m765.74 774.25h-531.48a69.63 69.63 0 0 1 69.55-69.25h392.38a69.63 69.63 0 0 1 69.55 69.25z" fill="#cfd8dc"/><path d="m500 107.5c-183.82 0-333.37 149.55-333.37 333.38a332.78 332.78 0 0 0 115.21 252.06 84.26 84.26 0 0 1 22-2.9h392.35a84.26 84.26 0 0 1 22 2.9 332.78 332.78 0 0 0 115.18-252.06c0-183.83-149.55-333.38-333.37-333.38zm114.13 239.79c-5 1.2-10.31 2.32-15.83 3.34a158.13 158.13 0 0 1 60.07 124.15 156.53 156.53 0 0 1 -24.21 84.22 27.34 27.34 0 0 1 8 50c-46.86 28.35-94.69 42.72-142.18 42.72s-95.31-14.34-142.16-42.72a27.32 27.32 0 0 1 8-50 156.52 156.52 0 0 1 -24.22-84.24 158.13 158.13 0 0 1 60.1-124.13c-5.52-1-10.81-2.14-15.83-3.34-34.71-8.31-52.3-19.82-52.3-34.2 0-21.5 39.34-32.86 74.93-38.72v-66.51a36.92 36.92 0 0 1 36.87-36.86h109.26a36.92 36.92 0 0 1 36.87 36.88v66.51c35.59 5.86 74.93 17.22 74.93 38.72 0 14.36-17.6 25.89-52.3 34.18z" fill="#bbdefb"/><path d="m651.43 313.09c0 2.74-7.33 11.6-40.8 19.62-9.76 2.34-20.59 4.33-32.25 5.94h-.14l-.79.11h-.07a583 583 0 0 1 -77.38 4.89 583 583 0 0 1 -77.38-4.86h-.07l-.81-.11h-.12c-11.66-1.61-22.49-3.6-32.26-5.94-33.46-8-40.79-16.88-40.79-19.62 0-4.5 14.88-15.76 59.93-23.51v14.87a7.49 7.49 0 0 0 7.5 7.52h168a7.5 7.5 0 0 0 7.5-7.5v-14.92c45.06 7.75 59.93 19.01 59.93 23.51z" fill="#ef9a9a"/><path d="m576.5 207.86v89.14h-153v-89.14a21.9 21.9 0 0 1 21.87-21.86h109.26a21.9 21.9 0 0 1 21.87 21.86z" fill="#ffcdd2"/><path d="m634.42 596.2c-44.48 26.91-89.71 40.55-134.42 40.55s-89.94-13.64-134.42-40.55a12.33 12.33 0 1 1 12.76-21.1c40.63 24.58 81.56 37 121.66 37s81-12.46 121.66-37a12.33 12.33 0 1 1 12.76 21.1z" fill="#f8bbd0"/><path d="m577.17 353.94a601 601 0 0 1 -77.17 4.71 601 601 0 0 1 -77.17-4.71 143.39 143.39 0 0 0 -36.15 208.67c38.59 23.23 75.66 34.53 113.32 34.53s74.72-11.29 113.3-34.52a143.37 143.37 0 0 0 -36.13-208.68zm-133.17 42.34a29.63 29.63 0 1 1 -29.63 29.63 29.66 29.66 0 0 1 29.63-29.63zm-57.92 102.29a7.51 7.51 0 0 1 5.21-7.14l78.93-25.3a28.56 28.56 0 0 1 37.28 27.2v10.49a28.63 28.63 0 0 1 -28.5 28.59 28.89 28.89 0 0 1 -8.81-1.39l-78.93-25.31a7.5 7.5 0 0 1 -5.18-7.14zm166.05 59.25c-17.07 14.7-34.61 22.18-52.13 22.18s-35.06-7.45-52.13-22.15a7.5 7.5 0 0 1 9.78-11.37c28.5 24.53 56.2 24.54 84.69 0a7.5 7.5 0 1 1 9.79 11.37zm3.87-102.29a29.63 29.63 0 1 1 29.63-29.62 29.67 29.67 0 0 1 -29.63 29.62z" fill="#c8e6c9"/><path d="m570.6 425.91a14.63 14.63 0 1 1 -14.6-14.63 14.64 14.64 0 0 1 14.6 14.63z" fill="#b0bec5"/><path d="m458.65 425.91a14.63 14.63 0 1 1 -14.65-14.63 14.64 14.64 0 0 1 14.65 14.63z" fill="#b0bec5"/><path d="m492.5 493.33v10.49a13.55 13.55 0 0 1 -17.7 12.91l-56.65-18.16 56.65-18.16a13.56 13.56 0 0 1 17.7 12.92z" fill="#e53935"/><path d="m848.37 440.88a347.69 347.69 0 0 1 -114.37 258.12q-4.51 4.11-9.18 8a7.5 7.5 0 1 1 -9.68-11.46c1-.86 2-1.74 3-2.61a332.78 332.78 0 0 0 115.23-252.05c0-183.83-149.55-333.38-333.37-333.38s-333.37 149.55-333.37 333.38a332.78 332.78 0 0 0 115.21 252.06c1 .87 2 1.75 3.05 2.61a7.5 7.5 0 0 1 -9.68 11.45q-4.66-3.94-9.18-8a348.45 348.45 0 1 1 582.34-258.12z"/><path d="m794.75 774.25h-589.5a55.92 55.92 0 0 0 -55.86 55.86v69.89a7.5 7.5 0 0 0 7.5 7.5h686.22a7.5 7.5 0 0 0 7.5-7.5v-69.89a55.92 55.92 0 0 0 -55.86-55.86zm40.86 118.25h-671.22v-62.39a40.91 40.91 0 0 1 40.86-40.86h589.5a40.91 40.91 0 0 1 40.86 40.86z"/><path d="m794.75 789.25h-589.5a40.91 40.91 0 0 0 -40.86 40.86v62.39h671.22v-62.39a40.91 40.91 0 0 0 -40.86-40.86zm-412.34 69.39a7.5 7.5 0 0 1 -7.5 7.5h-87.91a7.5 7.5 0 0 1 -7.5-7.5v-35.53a7.5 7.5 0 0 1 7.5-7.5h87.9a7.49 7.49 0 0 1 7.5 7.5zm169 0a7.5 7.5 0 0 1 -7.5 7.5h-87.9a7.5 7.5 0 0 1 -7.5-7.5v-35.53a7.5 7.5 0 0 1 7.5-7.5h87.99a7.5 7.5 0 0 1 7.5 7.5zm169 0a7.5 7.5 0 0 1 -7.5 7.5h-87.9a7.5 7.5 0 0 1 -7.5-7.5v-35.53a7.49 7.49 0 0 1 7.5-7.5h87.99a7.5 7.5 0 0 1 7.5 7.5z" fill="#bcaaa4"/><path d="m374.91 815.61h-87.91a7.5 7.5 0 0 0 -7.5 7.5v35.53a7.5 7.5 0 0 0 7.5 7.5h87.9a7.5 7.5 0 0 0 7.5-7.5v-35.53a7.49 7.49 0 0 0 -7.49-7.5zm-7.5 35.53h-72.9v-20.53h72.9z"/><path d="m294.51 830.61h72.9v20.53h-72.9z" fill="#ef5350"/><path d="m544 815.61h-87.9a7.5 7.5 0 0 0 -7.5 7.5v35.53a7.5 7.5 0 0 0 7.5 7.5h87.9a7.5 7.5 0 0 0 7.5-7.5v-35.53a7.5 7.5 0 0 0 -7.5-7.5zm-7.5 35.53h-72.9v-20.53h72.9z"/><path d="m544 815.61h-87.9a7.5 7.5 0 0 0 -7.5 7.5v35.53a7.5 7.5 0 0 0 7.5 7.5h87.9a7.5 7.5 0 0 0 7.5-7.5v-35.53a7.5 7.5 0 0 0 -7.5-7.5zm-7.5 35.53h-72.9v-20.53h72.9z"/><path d="m463.55 830.61h72.9v20.53h-72.9z" fill="#ef5350"/><path d="m713 815.61h-87.9a7.49 7.49 0 0 0 -7.5 7.5v35.53a7.5 7.5 0 0 0 7.5 7.5h87.9a7.5 7.5 0 0 0 7.5-7.5v-35.53a7.5 7.5 0 0 0 -7.5-7.5zm-7.5 35.53h-72.9v-20.53h72.9z"/><path d="m632.59 830.61h72.9v20.53h-72.9z" fill="#ef5350"/></svg>