<svg id="Layer_1" viewBox="0 0 1000 1000" xmlns="http://www.w3.org/2000/svg" data-name="Layer 1"><path d="m518.8 535a97.27 97.27 0 0 0 -26.15 3.56 115.44 115.44 0 0 0 -230.74 0 97.47 97.47 0 1 0 -26.15 191.38h283a97.47 97.47 0 1 0 0-194.94zm0 179.94h-283a82.47 82.47 0 1 1 31-158.92 7.5 7.5 0 0 0 10.2-7.42c-.13-2.14-.19-4.14-.19-6.12a100.44 100.44 0 0 1 200.87 0c0 2-.06 4-.19 6.12a7.5 7.5 0 0 0 10.3 7.4 82.48 82.48 0 1 1 31 158.92z"/><path d="m601.27 632.45a82.56 82.56 0 0 1 -82.47 82.47h-283a82.47 82.47 0 1 1 31-158.92 7.5 7.5 0 0 0 10.2-7.4c-.13-2.14-.19-4.14-.19-6.12a100.44 100.44 0 0 1 200.87 0c0 2-.06 4-.19 6.12a7.5 7.5 0 0 0 10.3 7.4 82.5 82.5 0 0 1 113.44 76.45z" fill="#bbdefb"/><path d="m819.24 220.34a88.47 88.47 0 0 0 -22.75 3 104.39 104.39 0 0 0 -208.59 0 88.27 88.27 0 1 0 -22.75 173.57h254.09a88.27 88.27 0 0 0 0-176.53zm0 161.53h-254.09a73.27 73.27 0 1 1 27.52-141.18 7.5 7.5 0 0 0 10.3-7.4c-.11-1.92-.17-3.7-.17-5.45a89.4 89.4 0 0 1 178.79 0c0 1.75-.06 3.53-.17 5.45a7.5 7.5 0 0 0 10.3 7.4 73.27 73.27 0 1 1 27.52 141.18z"/><path d="m892.5 308.6a73.35 73.35 0 0 1 -73.26 73.27h-254.09a73.27 73.27 0 1 1 27.52-141.18 7.5 7.5 0 0 0 10.3-7.4c-.11-1.92-.17-3.7-.17-5.45a89.4 89.4 0 0 1 178.79 0c0 1.75-.06 3.53-.17 5.45a7.5 7.5 0 0 0 10.3 7.4 73.29 73.29 0 0 1 100.78 67.91z" fill="#bbdefb"/><path d="m340.75 214.22a65.32 65.32 0 0 0 -14.4 1.59 77.17 77.17 0 0 0 -153.88 0 65.57 65.57 0 1 0 -14.4 129.55h182.68a65.57 65.57 0 0 0 0-131.14zm0 116.14h-182.68a50.57 50.57 0 1 1 19-97.45 7.49 7.49 0 0 0 10.3-7.4c-.08-1.33-.12-2.57-.12-3.79a62.17 62.17 0 0 1 124.34 0c0 1.22 0 2.46-.12 3.79a7.49 7.49 0 0 0 10.3 7.4 50.57 50.57 0 1 1 19 97.45z"/><path d="m391.32 279.79a50.63 50.63 0 0 1 -50.57 50.57h-182.68a50.57 50.57 0 1 1 19-97.45 7.49 7.49 0 0 0 10.3-7.4c-.08-1.33-.12-2.57-.12-3.79a62.17 62.17 0 0 1 124.34 0c0 1.22 0 2.46-.12 3.79a7.49 7.49 0 0 0 10.3 7.4 50.59 50.59 0 0 1 69.56 46.88z" fill="#bbdefb"/><path d="m588.73 418.37a7.5 7.5 0 0 0 -12.86 0c-3.94 6.55-23.57 39.93-23.57 53.73a30 30 0 1 0 60 0c-.01-13.8-19.64-47.18-23.57-53.73zm-6.43 68.73a15 15 0 0 1 -15-15c0-5.05 7-20.2 15-34.8 8 14.6 15 29.75 15 34.8a15 15 0 0 1 -15 15z"/><path d="m597.29 472.1a15 15 0 1 1 -30 0c0-5.05 7-20.2 15-34.8 8.03 14.6 15 29.75 15 34.8z" fill="#81d4fa"/><path d="m808.52 418.37a7.5 7.5 0 0 0 -12.86 0c-3.93 6.55-23.56 39.93-23.56 53.73a30 30 0 1 0 60 0c-.01-13.8-19.64-47.18-23.58-53.73zm-6.43 68.73a15 15 0 0 1 -15-15c0-5.05 7-20.2 15-34.81 8 14.61 15 29.75 15 34.81a15 15 0 0 1 -15 15z"/><path d="m817.09 472.1a15 15 0 1 1 -30 0c0-5.05 7-20.2 15-34.81 8.02 14.61 15 29.71 15 34.81z" fill="#81d4fa"/><path d="m159.68 366.19a7.5 7.5 0 0 0 -12.86 0c-3.94 6.55-23.57 39.93-23.57 53.74a30 30 0 0 0 60 0c-.01-13.81-19.64-47.19-23.57-53.74zm-6.43 68.73a15 15 0 0 1 -15-15c0-5.06 7-20.2 15-34.81 8 14.61 15 29.75 15 34.81a15 15 0 0 1 -15 15z"/><path d="m159.68 366.19a7.5 7.5 0 0 0 -12.86 0c-3.94 6.55-23.57 39.93-23.57 53.74a30 30 0 0 0 60 0c-.01-13.81-19.64-47.19-23.57-53.74zm-6.43 68.73a15 15 0 0 1 -15-15c0-5.06 7-20.2 15-34.81 8 14.61 15 29.75 15 34.81a15 15 0 0 1 -15 15z"/><path d="m168.24 419.93a15 15 0 0 1 -30 0c0-5.06 7-20.2 15-34.81 8.03 14.61 15 29.75 15 34.81z" fill="#81d4fa"/><path d="m269.57 366.19a7.5 7.5 0 0 0 -12.86 0c-3.93 6.55-23.56 39.93-23.56 53.74a30 30 0 0 0 60 0c-.01-13.81-19.64-47.19-23.58-53.74zm-6.43 68.73a15 15 0 0 1 -15-15c0-5.06 7-20.2 15-34.81 8 14.6 15 29.75 15 34.81a15 15 0 0 1 -15 15z"/><path d="m278.14 419.93a15 15 0 0 1 -30 0c0-5.06 7-20.2 15-34.81 8.02 14.6 15 29.75 15 34.81z" fill="#81d4fa"/><path d="m741.48 434.15a7.49 7.49 0 0 0 -6.32-3.46h-58.81a7.5 7.5 0 0 0 -7.21 5.45l-27.14 95.77a7.49 7.49 0 0 0 7.21 9.54h24l-12.35 72.55a7.5 7.5 0 0 0 13.75 5.24l63-100.36a7.5 7.5 0 0 0 -6.36-11.49h-19.79l30.54-66.06a7.52 7.52 0 0 0 -.52-7.18zm-48.55 77.63a7.49 7.49 0 0 0 6.81 10.64h17.92l-35.66 56.88 7.5-44.09a7.51 7.51 0 0 0 -7.4-8.76h-22.95l22.85-80.76h41.41z"/><path d="m699.74 522.42h17.92l-35.66 56.88 7.5-44.09a7.51 7.51 0 0 0 -7.4-8.76h-22.95l22.85-80.76h41.41l-30.51 66.09a7.49 7.49 0 0 0 6.81 10.64z" fill="#ff0"/><path d="m228.59 876.55a7.5 7.5 0 0 1 -7.5-7.5v-90.21a7.5 7.5 0 0 1 15 0v90.21a7.5 7.5 0 0 1 -7.5 7.5z"/><path d="m273.69 831.45h-90.2a7.5 7.5 0 0 1 0-15h90.2a7.5 7.5 0 1 1 0 15z"/><path d="m196.7 863.34a7.5 7.5 0 0 1 -5.31-12.8l63.79-63.79a7.5 7.5 0 0 1 10.61 10.61l-63.79 63.78a7.47 7.47 0 0 1 -5.3 2.2z"/><path d="m260.48 863.34a7.44 7.44 0 0 1 -5.3-2.2l-63.79-63.78a7.5 7.5 0 0 1 10.61-10.61l63.79 63.79a7.5 7.5 0 0 1 -5.31 12.8z"/><path d="m377.28 876.55a7.5 7.5 0 0 1 -7.5-7.5v-90.21a7.5 7.5 0 1 1 15 0v90.21a7.5 7.5 0 0 1 -7.5 7.5z"/><path d="m422.39 831.45h-90.21a7.5 7.5 0 0 1 0-15h90.21a7.5 7.5 0 1 1 0 15z"/><path d="m345.39 863.34a7.5 7.5 0 0 1 -5.3-12.8l63.78-63.79a7.5 7.5 0 0 1 10.61 10.61l-63.79 63.78a7.44 7.44 0 0 1 -5.3 2.2z"/><path d="m409.18 863.34a7.48 7.48 0 0 1 -5.31-2.2l-63.78-63.78a7.5 7.5 0 0 1 10.6-10.61l63.79 63.79a7.5 7.5 0 0 1 -5.3 12.8z"/><path d="m526 876.55a7.5 7.5 0 0 1 -7.5-7.5v-90.21a7.5 7.5 0 0 1 15 0v90.21a7.5 7.5 0 0 1 -7.5 7.5z"/><path d="m571.08 831.45h-90.21a7.5 7.5 0 0 1 0-15h90.21a7.5 7.5 0 1 1 0 15z"/><path d="m494.08 863.34a7.5 7.5 0 0 1 -5.3-12.8l63.79-63.79a7.5 7.5 0 0 1 10.61 10.61l-63.79 63.78a7.48 7.48 0 0 1 -5.31 2.2z"/><path d="m557.87 863.34a7.44 7.44 0 0 1 -5.3-2.2l-63.79-63.78a7.5 7.5 0 0 1 10.61-10.61l63.79 63.79a7.5 7.5 0 0 1 -5.31 12.8z"/></svg>