<svg id="Layer_1" viewBox="0 0 1000 1000" xmlns="http://www.w3.org/2000/svg" data-name="Layer 1"><path d="m864.65 229.37h-218.25a7.49 7.49 0 0 0 -7.5 7.53l.33 66.36v.22l.38 78.91v.18l1 212.24v.4l.26 53.75-101.39 67.25a7 7 0 0 0 -.6.4 104.19 104.19 0 0 0 111.31 176.1 4.83 4.83 0 0 0 .45-.26l112.12-67.45a5.43 5.43 0 0 0 .57-.35l63.21-38a94.62 94.62 0 0 0 45.61-80.65v-469.13a7.5 7.5 0 0 0 -7.5-7.5zm-7.5 476.63a79.55 79.55 0 0 1 -38.34 67.81l-57.37 34.51-12.86 7.68-95.87 57.7-10 6q-2 1.21-4.07 2.31a89.2 89.2 0 0 1 -95.31-150.2q2-1.5 4.11-2.9l9.15-6.07 96-63.64a7.51 7.51 0 0 0 3.36-6.29l-.24-47.77-.07-15.67-1-198.66-.07-15.13-.32-64.84-.08-15-.25-51.49h203.23z"/><g fill="#43a047"><path d="m638.63 882a89.2 89.2 0 0 1 -95.31-150.2c56.77 39.86 88.81 90.35 95.31 150.2z"/><path d="m857.15 657.42v48.58a79.55 79.55 0 0 1 -38.34 67.81l-57.37 34.51a100.31 100.31 0 0 1 86.37-151.32c3.11 0 6.24.13 9.34.42z"/><path d="m719.64 550.14c-2 14.86-3.86 28.91-12.2 36.66-9.65 9-28.8 9.92-51.81 2.69l-1-198.66c27.74 3.65 45.84 12.41 53.85 26.08 3.51 6 3.39 9.8 3.07 20a289.37 289.37 0 0 0 2 47.31c1.3 11.18 2.75 19.68 4 27.18 2.58 14.77 4.1 23.69 2.09 38.74z"/></g><path d="m857.15 310.86v331.51c-3.11-.25-6.23-.38-9.34-.38a115.32 115.32 0 0 0 -99.23 174l-95.87 57.71c-8.33-59.79-40.61-110.44-96.13-150.84l96-63.64a7.51 7.51 0 0 0 3.36-6.29l-.24-47.77a104.83 104.83 0 0 0 27.73 4.12c14.22 0 26-3.86 34.23-11.5 12.27-11.41 14.6-28.82 16.85-45.66 2.31-17.3.46-28.19-2.11-43.26-1.25-7.31-2.67-15.6-3.93-26.39a272.64 272.64 0 0 1 -1.91-45.1c.35-11 .58-18.32-5.12-28-10.67-18.2-33.14-29.5-66.86-33.63l-.32-64.84z" fill="#c5e1a5"/><path d="m857.15 244.37v51.49h-202.97l-.25-51.49z" fill="#43a047"/><path d="m872.15 303.36a7.5 7.5 0 0 1 -7.5 7.5h-217.93a7.49 7.49 0 0 1 -7.49-7.38.49.49 0 0 1 0-.12.34.34 0 0 1 0-.1 7.49 7.49 0 0 1 7.49-7.4h217.93a7.5 7.5 0 0 1 7.5 7.5z"/><path d="m872.15 650.78a7.68 7.68 0 0 1 -.09 1.17 7.5 7.5 0 0 1 -8.57 6.25q-3.15-.5-6.34-.78c-3.1-.29-6.23-.43-9.34-.43a100.31 100.31 0 0 0 -86.37 151.3c1.19 2 2.45 4 3.79 5.92a7.51 7.51 0 0 1 -1.9 10.44 5.43 5.43 0 0 1 -.57.35 7.42 7.42 0 0 1 -3.69 1 7.5 7.5 0 0 1 -6.18-3.24c-1.52-2.19-2.95-4.43-4.31-6.71a115.32 115.32 0 0 1 99.23-174c3.11 0 6.23.13 9.34.38q4.36.35 8.66 1a7.5 7.5 0 0 1 6.34 7.35z"/><path d="m650.64 892.45a4.83 4.83 0 0 1 -.45.26 7.31 7.31 0 0 1 -3 .91c-.22 0-.43 0-.65 0a7.5 7.5 0 0 1 -7.46-6.87c-.14-1.59-.29-3.17-.46-4.75-6.5-59.88-38.54-110.37-95.31-150.2q-2.1-1.49-4.25-2.94a7.52 7.52 0 0 1 -2-10.42 7.29 7.29 0 0 1 1.81-1.86 7 7 0 0 1 .6-.4 7.51 7.51 0 0 1 8 .26q4.65 3.15 9.09 6.39c55.52 40.4 87.8 91 96.13 150.84q.82 5.85 1.33 11.81a7.51 7.51 0 0 1 -3.38 6.97z"/><path d="m734.51 552.12c-2.25 16.84-4.58 34.25-16.85 45.66-8.22 7.64-20 11.5-34.23 11.5a104.83 104.83 0 0 1 -27.73-4.12q-4.94-1.36-10.06-3.19a7.47 7.47 0 0 1 -5-6.76c0-.13 0-.26 0-.4a7.43 7.43 0 0 1 .44-2.43 7.51 7.51 0 0 1 9.58-4.55c1.67.6 3.33 1.15 5 1.66 23 7.23 42.16 6.29 51.81-2.69 8.34-7.75 10.21-21.8 12.2-36.66 2-15 .49-24-2-38.75-1.28-7.5-2.73-16-4-27.18a289.37 289.37 0 0 1 -2-47.31c.32-10.19.44-14-3.07-20-8-13.67-26.11-22.43-53.85-26.08-2.65-.35-5.39-.66-8.22-.91a7.49 7.49 0 0 1 -6.82-7.35v-.18c0-.2 0-.42 0-.62a7.49 7.49 0 0 1 8.14-6.79q3.47.31 6.8.72c33.72 4.13 56.19 15.43 66.86 33.63 5.7 9.72 5.47 17 5.12 28a272.64 272.64 0 0 0 1.91 45.1c1.26 10.79 2.68 19.08 3.93 26.39 2.53 15.12 4.35 26.01 2.04 43.31z"/><path d="m500 92.5h-218.25a7.49 7.49 0 0 0 -7.5 7.54l.33 66.28a.11.11 0 0 0 0 .08v.22a.11.11 0 0 0 0 .08l.38 78.83v.17l1 212.24v.4l.26 53.75-101.73 67.47a104.2 104.2 0 0 0 111.29 176.15l.1-.06 112.23-67.51.2-.12 63.58-38.25a94.63 94.63 0 0 0 45.61-80.66v-469.11a7.5 7.5 0 0 0 -7.5-7.5zm-7.5 476.61a79.52 79.52 0 0 1 -38.34 67.8l-57.38 34.51-12.85 7.74-95.87 57.67-10 6q-2 1.21-4.07 2.31a89.2 89.2 0 0 1 -95.31-150.14q2-1.5 4.1-2.89l9.15-6.07 96-63.64a7.51 7.51 0 0 0 3.36-6.29l-.23-47.77-.06-15.71-1-198.63-.08-15.13-.3-64.87-.08-15-.25-51.5h203.21z"/><path d="m492.5 107.5v51.5h-202.96l-.25-51.5z" fill="#43a047"/><path d="m355 413.27c-2 14.87-3.86 28.91-12.2 36.66-9.65 9-28.79 9.92-51.81 2.7l-.99-198.63c27.73 3.64 45.83 12.41 53.84 26.08 3.51 6 3.39 9.8 3.07 20a289.51 289.51 0 0 0 2 47.32c1.3 11.18 2.75 19.67 4 27.17 2.57 14.73 4.09 23.66 2.09 38.7z" fill="#43a047"/><path d="m492.5 520.56v48.55a79.52 79.52 0 0 1 -38.34 67.8l-57.38 34.51a100.32 100.32 0 0 1 86.38-151.3c3.11 0 6.24.14 9.34.44z" fill="#43a047"/><path d="m492.5 174v331.5c-3.11-.25-6.23-.38-9.34-.38a115.32 115.32 0 0 0 -99.23 174l-95.87 57.67c-8.33-59.74-40.61-110.39-96.13-150.79l96-63.64a7.51 7.51 0 0 0 3.36-6.29l-.23-47.77a104.82 104.82 0 0 0 27.72 4.12c14.22 0 26-3.86 34.23-11.51 12.27-11.41 14.6-28.82 16.85-45.65 2.32-17.31.46-28.19-2.11-43.26-1.25-7.32-2.66-15.61-3.92-26.39a273 273 0 0 1 -1.92-45.1c.35-11 .58-18.32-5.12-28.05-10.67-18.2-33.14-29.49-66.86-33.63l-.31-64.83z" fill="#c5e1a5"/><path d="m274 745.16a89.2 89.2 0 0 1 -95.32-150.16c56.76 39.78 88.79 90.27 95.32 150.16z" fill="#43a047"/><path d="m507.5 166.5a7.5 7.5 0 0 1 -7.5 7.5h-217.93a7.49 7.49 0 0 1 -7.49-7.3.11.11 0 0 1 0-.08.49.49 0 0 1 0-.12.34.34 0 0 1 0-.1.11.11 0 0 1 0-.08 7.49 7.49 0 0 1 7.49-7.32h217.93a7.5 7.5 0 0 1 7.5 7.5z"/><path d="m507.5 513.91a7.68 7.68 0 0 1 -.09 1.17 7.51 7.51 0 0 1 -8.57 6.26c-2.1-.33-4.22-.59-6.34-.78-3.1-.3-6.23-.44-9.34-.44a100.32 100.32 0 0 0 -86.38 151.3q1.79 3 3.8 5.93a7.49 7.49 0 0 1 -1.9 10.43l-.37.24-.2.12a7.52 7.52 0 0 1 -9.87-2.26q-2.28-3.3-4.31-6.72a115.32 115.32 0 0 1 99.23-174c3.11 0 6.23.13 9.34.38q4.37.35 8.66 1a7.49 7.49 0 0 1 6.34 7.37z"/><path d="m285.88 755.65-.1.06a7.51 7.51 0 0 1 -3.23 1h-.64a7.5 7.5 0 0 1 -7.47-6.86c-.14-1.59-.29-3.18-.46-4.76-6.51-59.89-38.54-110.38-95.3-150.2q-2.1-1.49-4.25-2.94a7.5 7.5 0 0 1 8.41-12.41q4.65 3.15 9.09 6.39c55.52 40.4 87.8 91 96.13 150.83q.82 5.85 1.33 11.81a7.5 7.5 0 0 1 -3.51 7.08z"/><path d="m369.86 415.26c-2.25 16.83-4.58 34.24-16.85 45.65-8.22 7.65-20 11.51-34.23 11.51a104.82 104.82 0 0 1 -27.72-4.12q-4.94-1.38-10.07-3.2a7.47 7.47 0 0 1 -5-6.76c0-.13 0-.27 0-.4a7.32 7.32 0 0 1 .44-2.42 7.5 7.5 0 0 1 9.57-4.52c1.67.59 3.33 1.15 5 1.66 23 7.22 42.16 6.29 51.81-2.7 8.34-7.75 10.21-21.79 12.2-36.66 2-15 .49-24-2-38.75-1.28-7.5-2.73-16-4-27.17a289.51 289.51 0 0 1 -2-47.32c.32-10.18.44-14-3.07-20-8-13.67-26.11-22.44-53.84-26.08-2.65-.35-5.4-.65-8.23-.91a7.49 7.49 0 0 1 -6.87-7.37v-.17c0-.21 0-.41 0-.62a7.5 7.5 0 0 1 8.14-6.8c2.32.21 4.58.45 6.8.72 33.72 4.14 56.19 15.43 66.86 33.63 5.7 9.73 5.47 17 5.12 28.05a273 273 0 0 0 1.92 45.1c1.26 10.78 2.67 19.07 3.92 26.39 2.56 15.07 4.42 26 2.1 43.26z"/></svg>