<svg height="512" viewBox="0 0 64 64" width="512" xmlns="http://www.w3.org/2000/svg"><g id="Soda"><path d="m20 12v-5.5a5.5 5.5 0 0 1 11 0v5.5z" fill="#56d68c"/><circle cx="25.5" cy="6.5" fill="#3fba71" r="1.5"/><path d="m18 58a10.175 10.175 0 0 1 -3-7.243v-26.514a10.175 10.175 0 0 1 3-7.243h28a10.175 10.175 0 0 1 3 7.243v26.514a10.175 10.175 0 0 1 -3 7.243z" fill="#56d68c"/><g fill="#3fba71"><path d="m15 51q0-.123 0-.243v-26.514q0-.12 0-.243h34v.243 26.514.243z"/><path d="m16.5 17a2.5 2.5 0 0 1 0-5h31a2.5 2.5 0 0 1 0 5z"/><path d="m16.5 63a2.5 2.5 0 0 1 0-5h31a2.5 2.5 0 0 1 0 5z"/></g><ellipse cx="32" cy="37.5" fill="#2c9b59" rx="7" ry="8.5"/><path d="m48.068 57.057a11.161 11.161 0 0 0 1.932-6.3v-26.514a11.161 11.161 0 0 0 -1.932-6.3 3.494 3.494 0 0 0 -.568-6.943h-15.5v-4.5a6.5 6.5 0 0 0 -13 0v4.5h-2.5a3.494 3.494 0 0 0 -.568 6.943 11.153 11.153 0 0 0 -1.932 6.3v26.514a11.153 11.153 0 0 0 1.932 6.3 3.494 3.494 0 0 0 .568 6.943h31a3.494 3.494 0 0 0 .568-6.943zm-.079-33.057c0 .081.011.161.011.243v26.514c0 .082-.009.162-.011.243h-31.978c0-.081-.011-.161-.011-.243v-26.514c0-.082.009-.162.011-.243zm-31.707-2a9.163 9.163 0 0 1 2.144-4h27.147a9.155 9.155 0 0 1 2.145 4zm31.436 31a9.155 9.155 0 0 1 -2.145 4h-27.147a9.163 9.163 0 0 1 -2.144-4zm-26.718-46.5a4.5 4.5 0 0 1 9 0v4.5h-9zm-6 8a1.5 1.5 0 0 1 1.5-1.5h31a1.5 1.5 0 0 1 0 3h-31a1.5 1.5 0 0 1 -1.5-1.5zm32.5 47.5h-31a1.5 1.5 0 0 1 0-3h31a1.5 1.5 0 0 1 0 3z" fill="#352d34"/><path d="m32 47c4.411 0 8-4.262 8-9.5s-3.589-9.5-8-9.5-8 4.262-8 9.5 3.589 9.5 8 9.5zm0-17c3.309 0 6 3.364 6 7.5s-2.691 7.5-6 7.5-6-3.364-6-7.5 2.691-7.5 6-7.5z" fill="#352d34"/><path d="m25.5 4a2.5 2.5 0 1 0 2.5 2.5 2.5 2.5 0 0 0 -2.5-2.5zm0 3a.5.5 0 1 1 .5-.5.5.5 0 0 1 -.5.5z" fill="#352d34"/></g></svg>