<svg id="Capa_1" enable-background="new 0 0 512 512" height="512" viewBox="0 0 512 512" width="512" xmlns="http://www.w3.org/2000/svg"><g><g><path d="m488.485 34.728c-2.081-13.393-14.331-22.665-27.613-20.893l-53.384 7.124c-28.368 3.785-52.555 23.977-61.619 51.443l-116.67 353.521c-4.362 13.217 2.69 27.511 15.752 31.925 2.621.886 5.283 1.307 7.902 1.307 10.434 0 20.16-6.68 23.647-17.246l116.67-353.521c3.065-9.288 11.244-16.116 20.838-17.396l53.397-7.126c13.751-1.835 23.313-14.772 21.159-28.638-.028-.168-.053-.334-.079-.5z" fill="#fef2a8"/><path d="m230.882 175.364-24.338 28.41c-9.995 11.667-27.556 13.023-39.223 3.028l-28.41-24.338c-11.667-9.995-13.023-27.556-3.027-39.224l24.338-28.41c9.995-11.667 27.556-13.023 39.223-3.028l28.41 24.338c11.667 9.996 13.022 27.557 3.027 39.224z" fill="#fff"/><path d="m305.38 190.267-36.348 8.849c-14.927 3.634-29.974-5.521-33.608-20.449l-8.848-36.348c-3.634-14.927 5.521-29.974 20.449-33.608l36.348-8.849c14.927-3.634 29.974 5.521 33.608 20.449l8.849 36.348c3.632 14.927-5.523 29.974-20.45 33.608z" fill="#fff"/><path d="m348.126 501.975h-169.59c-21.581 0-39.424-14.843-40.701-33.857l-19.841-295.214h290.675l-19.841 295.214c-1.278 19.014-19.121 33.857-40.702 33.857z" fill="#ef8bbd"/><path d="m135.698 436.324 2.137 31.793c1.278 19.015 19.121 33.858 40.701 33.858h169.59c21.581 0 39.424-14.842 40.702-33.858l2.137-31.793z" fill="#fff"/><path d="m332.153 172.904-15.509 224.965c-.999 15.47-14.946 27.546-31.815 27.546h-119.512c-14.688 0-27.152-9.158-30.791-21.737l3.308 64.44c1.278 19.015 19.121 33.858 40.701 33.858h169.59c21.581 0 39.424-14.842 40.702-33.858l19.841-295.214z" fill="#e068bd"/><path d="m407.833 204.974h-289.003c-13.447 0-24.347-10.901-24.347-24.347 0-13.446 10.9-24.347 24.347-24.347h289.003c13.447 0 24.347 10.901 24.347 24.347 0 13.447-10.901 24.347-24.347 24.347z" fill="#fff"/></g><g><path d="m498.472 33.711-.08-.523c-2.943-18.938-20.007-31.803-38.846-29.291l-53.384 7.124c-32.15 4.289-59.554 27.15-69.813 58.238l-13.087 39.653c-3.149-5.859-7.807-10.803-13.64-14.352-8.636-5.253-18.803-6.833-28.621-4.439l-36.349 8.849c-9.821 2.391-18.123 8.463-23.378 17.099-.166.272-.317.55-.475.826l-14.832-12.707c-7.676-6.575-17.452-9.772-27.533-8.991-10.078.777-19.25 5.434-25.826 13.11l-24.338 28.41c-2.492 2.909-4.484 6.123-5.97 9.538h-3.47c-18.953 0-34.372 15.419-34.372 34.372 0 16.156 11.206 29.736 26.252 33.395l17.123 254.768c1.628 24.229 23.9 43.21 50.704 43.21h169.59c26.804 0 49.076-18.98 50.704-43.21l17.123-254.768c15.046-3.66 26.252-17.24 26.252-33.395 0-18.953-15.42-34.372-34.373-34.372h-23.205l18.061-54.727c1.87-5.664 6.833-9.826 12.643-10.601l53.397-7.125c9.294-1.239 17.52-6.08 23.163-13.628 5.708-7.636 8.044-17.043 6.58-26.463zm-260.068 92.78c2.471-4.06 6.374-6.915 10.992-8.04l36.348-8.849c1.408-.343 2.829-.511 4.241-.511 3.222 0 6.393.881 9.216 2.598 4.06 2.47 6.915 6.373 8.039 10.992l4.873 20.017-1.173 3.556h-73.087l-1.535-6.307c-1.126-4.617-.384-9.396 2.086-13.456zm-70.569-5.139c3.092-3.609 7.404-5.798 12.143-6.164.467-.036.934-.054 1.398-.054 4.238 0 8.294 1.494 11.547 4.28l22.981 19.689c.171 1.866.48 3.733.931 5.587l.381 1.564h-70.714zm210.99 346.093c-.923 13.741-14.408 24.504-30.699 24.504h-169.59c-16.291 0-29.775-10.764-30.699-24.504l-16.966-252.445h264.921zm43.33-286.818c0 7.897-6.425 14.322-14.322 14.322h-289.003c-7.897 0-14.322-6.425-14.322-14.322s6.425-14.321 14.322-14.321h289.003c7.897 0 14.322 6.424 14.322 14.321zm53.678-132.459c-2.387 3.194-5.852 5.239-9.755 5.76l-53.398 7.125c-13.374 1.786-24.77 11.281-29.031 24.192l-20.135 61.01h-29.901l-.663-2.722 22.438-67.99c7.868-23.841 28.838-41.366 53.425-44.647l53.384-7.124c.658-.088 1.311-.13 1.955-.13 7.129 0 13.277 5.229 14.425 12.625.002.011.004.022.006.033l.072.467c.633 4.072-.369 8.12-2.822 11.401z" fill="#440a29"/><g fill="#fff"><path d="m186.864 356.43c-5.236 0-9.643-4.064-9.993-9.364l-1.84-27.86c-.364-5.525 3.819-10.298 9.343-10.664 5.532-.363 10.299 3.819 10.664 9.344l1.839 27.858c.365 5.525-3.818 10.299-9.342 10.665-.225.014-.449.021-.671.021z"/><path d="m181.678 277.899c-5.235 0-9.643-4.064-9.993-9.365l-.345-5.221c-.365-5.525 3.817-10.299 9.342-10.665 5.529-.375 10.3 3.817 10.665 9.343l.345 5.221c.365 5.525-3.817 10.299-9.342 10.665-.226.015-.45.022-.672.022z"/></g></g><g><path d="m52.463 64.472 8.235 23.156c.353.991 1.05 1.777 1.931 2.174l20.573 9.269c2.907 1.31 2.907 5.941 0 7.25l-20.572 9.269c-.881.397-1.579 1.183-1.931 2.174l-8.235 23.156c-1.164 3.271-5.278 3.271-6.442 0l-8.235-23.156c-.353-.991-1.05-1.777-1.931-2.174l-20.573-9.269c-2.907-1.31-2.907-5.94 0-7.25l20.573-9.269c.881-.397 1.579-1.183 1.931-2.174l8.235-23.156c1.163-3.271 5.278-3.271 6.441 0z" fill="#f7c4db"/><path d="m170.751 1.82 6.109 17.177c.261.735.779 1.318 1.433 1.613l15.261 6.875c2.156.972 2.156 4.406 0 5.378l-15.261 6.875c-.653.295-1.171.877-1.433 1.613l-6.109 17.177c-.863 2.427-3.915 2.427-4.778 0l-6.109-17.177c-.262-.736-.779-1.318-1.433-1.613l-15.261-6.875c-2.156-.972-2.156-4.407 0-5.378l15.261-6.875c.653-.294 1.171-.877 1.433-1.613l6.109-17.177c.863-2.427 3.915-2.427 4.778 0z" fill="#f7c4db"/><g fill="#ef8bbd"><circle cx="271.598" cy="52.352" r="17.982"/><path d="m117.079 60.109c0 4.284-3.473 7.757-7.757 7.757s-7.757-3.473-7.757-7.757 3.473-7.757 7.757-7.757 7.757 3.473 7.757 7.757z"/></g></g></g></svg>