<svg id="Layer_1" enable-background="new 0 0 512 512" viewBox="0 0 512 512" xmlns="http://www.w3.org/2000/svg"><g><path d="m449.16 31.21v153.79c-34.24-3.83-36.32-2.9-74.21-7.28-39.92-4.61-39.86-5.1-79.78-9.72s-40.59.82-80.51-3.8c-39.92-4.61-40.55.52-80.47-4.1-37.88-4.37-37.39-24.23-71.35-30.2v-98.69z" fill="#4a2910"/></g><g><path d="m449.16 193c-.296 0-.593-.016-.89-.049-16.052-1.796-25.134-2.55-33.917-3.279-9.928-.825-20.193-1.677-40.322-4.004-20.106-2.322-30.288-3.626-40.134-4.887-9.751-1.249-19.834-2.54-39.647-4.833-19.42-2.247-29.015-2.054-39.174-1.849-10.245.207-20.837.421-41.335-1.951-19.441-2.245-29.038-2.123-39.2-1.994-10.223.13-20.792.264-41.271-2.106-22-2.538-32.779-10.189-42.289-16.939-8.178-5.805-15.24-10.817-29.526-13.329-3.825-.672-6.615-3.995-6.615-7.879v-98.691c0-4.418 3.582-8 8-8h303.7c4.418 0 8 3.582 8 8s-3.582 8-8 8h-295.7v84.227c13.737 3.505 21.999 9.369 29.402 14.624 9.09 6.452 16.941 12.024 34.865 14.092 19.464 2.252 29.067 2.13 39.231 2.001 10.218-.13 20.783-.264 41.24 2.099 19.422 2.248 29.018 2.055 39.175 1.849 10.244-.207 20.839-.421 41.337 1.952 19.91 2.304 30.042 3.602 39.84 4.856s19.93 2.553 39.938 4.863c19.874 2.297 30.009 3.139 39.81 3.953 7.134.592 14.463 1.201 25.482 2.358v-136.874h-34.62c-4.418 0-8-3.582-8-8s3.582-8 8-8h42.62c4.418 0 8 3.582 8 8v153.79c0 2.276-.97 4.445-2.667 5.963-1.473 1.318-3.376 2.037-5.333 2.037z"/></g><g><g><path d="m449.16 185v174.47c-34.2.71-36.51-7.529-74.29-5.819-39.79 1.79-39.07 16.859-78.86 18.649-39.79 1.8-40.92-21.66-80.71-19.859-39.79 1.79-39.49 8.18-79.28 9.979-37.78 1.7-39.09 14.08-73.18 16.86v-249.38c33.96 5.97 33.47 25.83 71.35 30.2 39.92 4.62 40.55-.51 80.47 4.1 39.92 4.62 40.59-.82 80.51 3.8s39.86 5.11 79.78 9.72c37.89 4.38 39.97 3.45 74.21 7.28z" fill="#7f421c"/></g><g><path d="m62.839 387.28c-2.001 0-3.938-.751-5.421-2.118-1.644-1.515-2.578-3.648-2.578-5.882v-249.38c0-2.364 1.045-4.607 2.856-6.127s4.201-2.161 6.529-1.752c17.837 3.136 27.496 9.992 36.017 16.04 9.09 6.452 16.941 12.025 34.865 14.092 15.685 1.816 25.09 2.06 32.223 2.06 2.415 0 4.711-.029 7.009-.059 2.364-.03 4.729-.06 7.214-.06 7.583 0 17.555.257 34.025 2.159 14.955 1.731 23.768 1.964 30.416 1.964 3.046 0 5.95-.059 8.759-.115 2.888-.058 5.875-.119 9.082-.119 6.689 0 16.4.235 32.255 2.07 19.91 2.304 30.042 3.602 39.84 4.856 9.799 1.255 19.93 2.553 39.939 4.863 19.874 2.297 30.009 3.139 39.81 3.953 8.895.739 18.093 1.502 34.372 3.324 4.049.453 7.11 3.876 7.11 7.95v174.47c0 4.354-3.482 7.908-7.834 7.998-17.033.365-26.633-1.424-35.903-3.136-8.119-1.5-15.788-2.916-28.745-2.916-2.955 0-6.133.076-9.446.227-18.433.829-27.267 4.642-36.622 8.678-10.266 4.43-20.881 9.011-42.24 9.972-1.563.07-3.119.106-4.62.106-19.135 0-30.134-5.821-39.838-10.958-9.224-4.882-17.19-9.099-32.348-9.099-1.262 0-2.574.03-3.901.091-19.267.866-28.555 2.792-38.39 4.83-10.012 2.075-20.366 4.221-40.891 5.149-18.564.835-27.464 4.345-36.885 8.061-9.188 3.622-18.687 7.369-36.006 8.781-.219.019-.436.027-.653.027zm8.001-247.209v230.215c9.722-1.547 16.109-4.065 22.786-6.698 10.229-4.034 20.805-8.204 42.034-9.16 19.248-.87 28.534-2.795 38.365-4.832 10.017-2.076 20.374-4.223 40.915-5.147 1.565-.07 3.121-.106 4.623-.106 19.131 0 30.129 5.821 39.833 10.957 9.225 4.883 17.191 9.1 32.352 9.1 1.262 0 2.574-.03 3.9-.091 18.433-.829 27.268-4.642 36.622-8.678 10.266-4.43 20.881-9.011 42.24-9.972 3.551-.16 6.972-.242 10.167-.242 14.422 0 23.181 1.618 31.65 3.182 7.267 1.343 14.173 2.618 24.832 2.87v-159.296c-11.803-1.256-19.411-1.888-26.807-2.502-9.928-.825-20.193-1.677-40.322-4.004-20.105-2.322-30.287-3.626-40.134-4.887-9.751-1.249-19.833-2.54-39.647-4.834-14.954-1.73-23.767-1.964-30.415-1.964-3.045 0-5.949.059-8.758.115-2.889.059-5.876.119-9.083.119-6.689 0-16.4-.235-32.254-2.07-15.662-1.809-25.06-2.053-32.188-2.053-2.415 0-4.713.029-7.011.059-2.364.03-4.727.06-7.212.06-7.589 0-17.569-.257-34.06-2.166-22.001-2.538-32.779-10.189-42.289-16.939-6.157-4.371-11.684-8.293-20.139-11.036z"/></g></g><g><path d="m449.16 359.47v121.32h-386.32v-101.51c34.09-2.78 35.4-15.16 73.18-16.86 39.79-1.8 39.49-8.189 79.28-9.979 39.79-1.801 40.92 21.659 80.71 19.859 39.79-1.79 39.07-16.859 78.86-18.649 37.78-1.711 40.09 6.529 74.29 5.819z" fill="#b25b27"/></g><g><path d="m449.16 488.79h-386.32c-4.418 0-8-3.582-8-8v-33.16c0-4.418 3.582-8 8-8s8 3.582 8 8v25.16h370.32v-105.317c-12.144-.261-20.047-1.721-27.735-3.141-9.882-1.824-19.214-3.553-38.193-2.689-18.433.829-27.268 4.642-36.622 8.678-10.266 4.43-20.881 9.011-42.24 9.972-22.076 1.002-33.964-5.297-44.457-10.852-9.944-5.264-18.531-9.809-36.251-9.008-19.267.866-28.555 2.792-38.389 4.83-10.013 2.075-20.366 4.221-40.891 5.149-18.564.835-27.464 4.345-36.886 8.061-7.797 3.074-15.82 6.238-28.656 7.988v21.169c0 4.418-3.582 8-8 8s-8-3.582-8-8v-28.35c0-4.166 3.197-7.635 7.35-7.974 14.956-1.22 22.961-4.377 31.437-7.719 10.229-4.033 20.805-8.204 42.034-9.16 19.249-.87 28.534-2.795 38.365-4.832 10.017-2.076 20.375-4.223 40.916-5.147 22.066-1.003 33.964 5.297 44.457 10.852 9.946 5.264 18.532 9.814 36.251 9.008 18.433-.829 27.268-4.642 36.622-8.678 10.266-4.43 20.881-9.011 42.24-9.972 20.805-.941 31.486 1.032 41.82 2.94 8.89 1.642 17.29 3.192 32.663 2.873 2.151-.044 4.228.777 5.764 2.283 1.536 1.504 2.402 3.564 2.402 5.715v121.32c-.001 4.419-3.583 8.001-8.001 8.001z"/></g><g><g><path d="m228.922 282.279c-12.105 6.854-20.175 4.594-27.03-7.511-6.855-12.106-4.689-20.268 7.416-27.124 12.105-6.855 16.396-1.404 26.88 7.738 11.242 9.803 4.839 20.042-7.266 26.897z" fill="#808080"/></g><g><path d="m216.985 294.107c-8.849 0-16.269-5.181-22.055-15.396-9.008-15.909-5.4-29.059 10.435-38.027 4.967-2.813 9.236-4.124 13.436-4.124 8.203 0 13.729 4.901 20.129 10.575.8.709 1.636 1.45 2.516 2.218 7.872 6.865 8.96 13.885 8.486 18.566-.819 8.088-6.721 15.461-17.068 21.32-5.783 3.277-10.977 4.868-15.879 4.868zm1.816-41.546c-.884 0-2.566.355-5.551 2.046-8.169 4.627-9.073 7.962-4.397 16.22 4.123 7.281 7.036 7.281 8.132 7.281 2.036 0 4.726-.938 7.995-2.789 6.359-3.602 8.841-7.104 9.034-9.011.179-1.764-1.855-3.824-3.083-4.895-.915-.798-1.784-1.568-2.615-2.306-4.716-4.181-7.483-6.546-9.515-6.546z"/></g></g><g><g><path d="m139.205 101.549c-3.315 0-6.414-2.076-7.56-5.385l-7.692-22.222c-1.445-4.175.768-8.731 4.943-10.177 4.171-1.443 8.731.768 10.177 4.943l7.692 22.222c1.445 4.175-.768 8.731-4.943 10.177-.866.3-1.75.442-2.617.442z"/></g></g><g><g><path d="m210.148 112.658c-2.176 0-4.343-.882-5.922-2.619-2.972-3.269-2.731-8.329.538-11.301l18.803-17.094c3.27-2.973 8.329-2.731 11.301.538s2.731 8.329-.538 11.301l-18.803 17.094c-1.533 1.394-3.459 2.081-5.379 2.081z"/></g></g><g><g><path d="m317.408 93.002c-3.407 0-6.564-2.193-7.634-5.616l-4.273-13.676c-1.318-4.217 1.032-8.704 5.25-10.022 4.216-1.318 8.704 1.033 10.021 5.25l4.273 13.676c1.318 4.217-1.032 8.704-5.25 10.022-.793.248-1.597.366-2.387.366z"/></g></g><g><g><path d="m263.144 145.137c-2.496 0-4.955-1.165-6.517-3.351-2.568-3.595-1.735-8.592 1.86-11.16l23.932-17.094c3.594-2.569 8.591-1.736 11.159 1.86 2.568 3.595 1.735 8.592-1.86 11.16l-23.932 17.094c-1.409 1.007-3.033 1.491-4.642 1.491z"/></g></g><g><g><path d="m387.931 151.121c-.566 0-1.142-.06-1.718-.186l-27.351-5.983c-4.315-.944-7.05-5.209-6.105-9.525.944-4.316 5.21-7.05 9.525-6.106l27.351 5.983c4.315.944 7.05 5.209 6.105 9.525-.818 3.74-4.13 6.292-7.807 6.292z"/></g></g><g><g><path d="m399.879 90.437c-3.918 0-7.34-2.879-7.91-6.87l-2.563-17.948c-.624-4.374 2.415-8.426 6.789-9.051 4.374-.63 8.426 2.415 9.051 6.788l2.564 17.948c.624 4.374-2.415 8.426-6.789 9.051-.384.055-.766.082-1.142.082z"/></g></g><g><g><path d="m121.254 248.558c-3.398 0-6.549-2.181-7.627-5.593l-5.128-16.24c-1.33-4.213 1.007-8.707 5.22-10.038 4.216-1.329 8.708 1.007 10.038 5.22l5.128 16.24c1.33 4.213-1.007 8.707-5.22 10.038-.801.253-1.613.373-2.411.373z"/></g></g><g><g><path d="m139.211 325.478c-.128 0-.257-.003-.387-.009l-17.949-.854c-4.414-.21-7.821-3.958-7.61-8.372.21-4.413 3.959-7.812 8.371-7.61l17.949.854c4.414.21 7.821 3.958 7.61 8.372-.203 4.284-3.74 7.619-7.984 7.619z"/></g></g><g><g><path d="m334.455 258.225c-5.355-3.092-6.832-4.995-6.832-11.179s1.479-8.084 6.834-11.176c5.354-3.092 7.098-2.31 12.453.782s6.736 4.21 6.736 10.394-1.98 6.524-6.225 11.022c-4.496 4.765-7.611 3.248-12.966.157z" fill="#808080"/></g><g><path d="m341.768 269.114c-4.451 0-8.255-2.196-11.312-3.961-7.025-4.057-10.832-8.143-10.832-18.107 0-9.961 3.808-14.047 10.834-18.104 2.6-1.501 5.77-3.036 9.562-3.036 4.277 0 7.64 1.941 10.892 3.818 6.485 3.744 10.736 6.973 10.736 17.322 0 7.729-2.638 10.873-6.363 14.471-.645.622-1.311 1.265-2.043 2.041-3.53 3.739-7.283 5.556-11.474 5.556zm-5.957-19.588c.186.191.789.7 2.644 1.771.655.378 1.97 1.137 2.876 1.559.082-.08.173-.172.272-.278.988-1.047 1.862-1.891 2.565-2.57.506-.489 1.12-1.082 1.383-1.39.036-.204.095-.673.095-1.571 0-.934-.041-1.502-.079-1.831-.692-.5-2.075-1.298-2.657-1.634-.737-.426-2.146-1.238-2.914-1.579-.288.122-.774.355-1.539.796-1.855 1.071-2.459 1.58-2.647 1.771-.057.209-.188.864-.188 2.477.001 1.615.132 2.27.189 2.479z"/></g></g><g><g><path d="m299.504 333.5c-2.273 0-4.531-.963-6.113-2.835-2.853-3.375-2.43-8.422.944-11.274l10.5-8.876c3.376-2.854 8.423-2.43 11.274.944 2.852 3.375 2.43 8.422-.944 11.274l-10.5 8.876c-1.503 1.27-3.337 1.891-5.161 1.891z"/></g></g><g><g><path d="m404.996 311.5c-1.826 0-3.661-.621-5.164-1.893l-6.5-5.5c-3.372-2.854-3.793-7.902-.939-11.275 2.855-3.373 7.903-3.792 11.275-.939l6.5 5.5c3.372 2.854 3.793 7.902.939 11.275-1.583 1.87-3.839 2.832-6.111 2.832z"/></g></g><g><g><g><path d="m100.743 460.344c-.768 0-1.548-.111-2.321-.345-4.229-1.28-6.619-5.746-5.339-9.976l16.715-55.216c1.28-4.227 5.746-6.618 9.975-5.339 4.229 1.28 6.619 5.746 5.339 9.975l-16.715 55.216c-1.046 3.457-4.221 5.685-7.654 5.685z"/></g></g><g><g><path d="m142.715 460.344c-.768 0-1.548-.111-2.321-.345-4.229-1.28-6.619-5.746-5.339-9.976l16.715-55.216c1.279-4.227 5.747-6.618 9.975-5.339 4.229 1.28 6.619 5.746 5.339 9.975l-16.715 55.216c-1.046 3.457-4.22 5.685-7.654 5.685z"/></g></g><g><g><path d="m184.686 460.344c-.768 0-1.548-.111-2.321-.345-4.229-1.28-6.619-5.746-5.339-9.976l16.716-55.216c1.28-4.228 5.747-6.618 9.975-5.339 4.229 1.28 6.619 5.746 5.339 9.975l-16.716 55.217c-1.046 3.456-4.22 5.684-7.654 5.684z"/></g></g><g><g><path d="m226.659 460.344c-.768 0-1.548-.111-2.321-.345-4.229-1.28-6.619-5.746-5.339-9.976l16.715-55.216c1.279-4.227 5.747-6.618 9.975-5.339 4.229 1.28 6.619 5.746 5.339 9.975l-16.715 55.216c-1.046 3.457-4.22 5.685-7.654 5.685z"/></g></g><g><g><path d="m268.632 460.344c-.768 0-1.548-.111-2.32-.345-4.229-1.28-6.619-5.746-5.34-9.975l16.715-55.216c1.28-4.229 5.746-6.619 9.975-5.34 4.229 1.28 6.619 5.746 5.34 9.975l-16.715 55.215c-1.048 3.457-4.222 5.686-7.655 5.686z"/></g></g><g><g><path d="m310.604 460.344c-.768 0-1.548-.111-2.32-.345-4.229-1.28-6.619-5.746-5.34-9.975l16.715-55.216c1.281-4.229 5.745-6.619 9.975-5.34 4.229 1.28 6.619 5.746 5.34 9.975l-16.715 55.215c-1.047 3.457-4.221 5.686-7.655 5.686z"/></g></g><g><g><path d="m352.575 460.344c-.768 0-1.548-.111-2.32-.345-4.229-1.28-6.619-5.746-5.34-9.975l16.715-55.216c1.28-4.229 5.746-6.619 9.975-5.34 4.23 1.28 6.619 5.746 5.34 9.975l-16.715 55.215c-1.047 3.457-4.221 5.686-7.655 5.686z"/></g></g><g><g><path d="m394.548 460.344c-.768 0-1.548-.111-2.32-.345-4.229-1.28-6.619-5.746-5.34-9.975l16.715-55.216c1.281-4.229 5.745-6.619 9.975-5.34 4.229 1.28 6.619 5.746 5.34 9.975l-16.715 55.215c-1.048 3.457-4.222 5.686-7.655 5.686z"/></g></g></g></svg>