<svg id="Capa_1" enable-background="new 0 0 512 512" height="512" viewBox="0 0 512 512" width="512" xmlns="http://www.w3.org/2000/svg"><g><g><path d="m209.249 375.353h-7.853l-15.731 18.754v23.5l12.231 11.75 11.353 4.542c10.765-5.343 18.167-16.441 18.167-29.273.001-12.833-7.402-23.931-18.167-29.273z" fill="#dd8858"/><path d="m432.349 38.205h-11.535l-12.048 20.319v24.333l12.381 11.667 11.202 2.228c10.765-5.343 18.167-16.441 18.167-29.273s-7.402-23.932-18.167-29.274z" fill="#5169cd"/><circle cx="256.012" cy="256" fill="#ffb640" r="52.847"/><path d="m239.164 256c0-22.865 14.523-42.335 34.847-49.698-5.618-2.035-11.679-3.149-18-3.149-29.187 0-52.847 23.661-52.847 52.847 0 29.187 23.661 52.847 52.847 52.847 6.321 0 12.382-1.114 18-3.149-20.323-7.362-34.847-26.832-34.847-49.698z" fill="#ffa90f"/><path d="m414.182 67.478c0-12.832 7.403-23.931 18.167-29.273-4.37-2.169-9.291-3.394-14.5-3.394-18.042 0-32.667 14.626-32.667 32.667 0 18.042 14.626 32.667 32.667 32.667 5.209 0 10.13-1.226 14.5-3.394-10.764-5.342-18.167-16.44-18.167-29.273z" fill="#3351c5"/><path d="m191.082 404.625c0-12.832 7.403-23.93 18.167-29.273-4.37-2.169-9.291-3.394-14.5-3.394-18.042 0-32.667 14.626-32.667 32.667 0 18.042 14.625 32.667 32.667 32.667 5.209 0 10.13-1.226 14.5-3.394-10.764-5.342-18.167-16.44-18.167-29.273z" fill="#cb6c35"/></g><g><path d="m263.5 176.498v-14.428c0-4.142-3.357-7.5-7.5-7.5s-7.5 3.358-7.5 7.5v14.428c0 4.142 3.357 7.5 7.5 7.5s7.5-3.358 7.5-7.5z"/><path d="m256 357.43c4.143 0 7.5-3.358 7.5-7.5v-14.428c0-4.142-3.357-7.5-7.5-7.5s-7.5 3.358-7.5 7.5v14.428c0 4.142 3.357 7.5 7.5 7.5z"/><path d="m205.088 205.087c2.929-2.929 2.929-7.678-.001-10.606l-10.202-10.202c-2.928-2.93-7.677-2.929-10.606 0s-2.929 7.678.001 10.606l10.202 10.202c2.925 2.928 7.675 2.93 10.606 0z"/><path d="m317.521 306.913c-2.93-2.929-7.678-2.929-10.607 0s-2.929 7.678 0 10.606l10.202 10.202c2.93 2.929 7.678 2.929 10.607 0s2.929-7.678 0-10.606z"/><path d="m176.498 248.5h-14.428c-4.143 0-7.5 3.358-7.5 7.5s3.357 7.5 7.5 7.5h14.428c4.143 0 7.5-3.358 7.5-7.5s-3.357-7.5-7.5-7.5z"/><path d="m335.502 263.5h14.428c4.143 0 7.5-3.358 7.5-7.5s-3.357-7.5-7.5-7.5h-14.428c-4.143 0-7.5 3.358-7.5 7.5s3.357 7.5 7.5 7.5z"/><path d="m184.278 327.722c2.93 2.929 7.678 2.929 10.607 0l10.202-10.202c2.929-2.929 2.929-7.678 0-10.606-2.93-2.929-7.678-2.929-10.607 0l-10.202 10.202c-2.928 2.928-2.928 7.677 0 10.606z"/><path d="m317.116 184.279-10.202 10.202c-2.93 2.929-2.93 7.677-.001 10.606s7.678 2.929 10.606 0l10.202-10.202c2.93-2.929 2.93-7.677.001-10.606s-7.677-2.929-10.606 0z"/><path d="m194.738 444.793c22.148 0 40.167-18.019 40.167-40.167s-18.019-40.167-40.167-40.167-40.168 18.019-40.168 40.167 18.02 40.167 40.168 40.167zm0-65.335c13.877 0 25.167 11.29 25.167 25.167s-11.29 25.167-25.167 25.167c-13.878 0-25.168-11.29-25.168-25.167 0-13.876 11.29-25.167 25.168-25.167z"/><path d="m256 512c141.493 0 256-114.497 256-256 0-52.69-15.897-103.308-45.974-146.383-2.371-3.396-7.048-4.228-10.443-1.855-3.396 2.372-4.227 7.047-1.855 10.443 28.309 40.543 43.272 88.192 43.272 137.795 0 132.888-108.112 241-241 241s-241-108.112-241-241 108.112-241 241-241c37.282 0 73.04 8.295 106.278 24.656 3.716 1.829 8.212.299 10.042-3.417 1.829-3.716.299-8.212-3.417-10.041-35.318-17.384-73.303-26.198-112.903-26.198-141.492 0-256 114.497-256 256 0 141.493 114.497 256 256 256z"/><path d="m256.368 423.408h.017c92.36-.208 167.028-75.011 167.028-167.408 0-92.312-75.102-167.413-167.413-167.413s-167.412 75.101-167.412 167.413c0 44.795 17.468 86.889 49.185 118.526 2.932 2.926 7.681 2.918 10.606-.014 2.926-2.933 2.92-7.681-.013-10.606-28.876-28.803-44.778-67.125-44.778-107.906 0-84.041 68.372-152.413 152.412-152.413 84.041 0 152.413 68.372 152.413 152.413 0 83.849-68.215 152.219-152.062 152.408-4.143.009-7.493 3.375-7.483 7.517.01 4.136 3.365 7.483 7.5 7.483z"/><path d="m316.348 256c0-25.587-16.221-48.472-40.364-56.944-3.903-1.372-8.188.685-9.561 4.593-1.371 3.908.686 8.188 4.594 9.56 18.142 6.367 30.331 23.563 30.331 42.791 0 25.004-20.343 45.347-45.348 45.347-25.004 0-45.347-20.343-45.347-45.347 0-19.228 12.188-36.423 30.33-42.791 3.908-1.372 5.965-5.652 4.594-9.56-1.373-3.909-5.651-5.966-9.561-4.593-24.143 8.473-40.363 31.356-40.363 56.944 0 33.275 27.071 60.347 60.347 60.347s60.348-27.072 60.348-60.347z"/><path d="m417.838 42.311c8.65 0 16.594 4.371 21.249 11.691 2.223 3.496 6.859 4.526 10.354 2.304 3.495-2.223 4.527-6.858 2.305-10.353-7.424-11.673-20.099-18.643-33.907-18.643-22.148 0-40.167 18.019-40.167 40.167s18.019 40.167 40.167 40.167c13.808 0 26.483-6.969 33.907-18.643 2.223-3.495 1.19-8.13-2.305-10.353-3.496-2.223-8.131-1.191-10.354 2.304-4.655 7.321-12.599 11.692-21.249 11.692-13.877 0-25.167-11.29-25.167-25.167 0-13.876 11.29-25.166 25.167-25.166z"/></g></g></svg>