<svg id="Capa_1" enable-background="new 0 0 512 512" height="512" viewBox="0 0 512 512" width="512" xmlns="http://www.w3.org/2000/svg"><g><path d="m54.091 7.502h403.809v496.996h-403.809z" fill="#544f56"/><path d="m54.091 7.502h31.063v496.996h-31.063z" fill="#444145"/><path d="m85.154 38.564h341.685v155.311h-341.685z" fill="#c8c3ca"/><path d="m85.154 38.564h20v155.311h-20z" fill="#b1abb4"/><path d="m85.154 193.875h341.685v279.56h-341.685z" fill="#f7f7f7"/><path d="m85.154 193.875h20v279.56h-20z" fill="#e8e8e8"/><path d="m116.216 69.626h31.062v31.062h-31.062z" fill="#f9b419"/><path d="m178.34 69.626h31.062v31.062h-31.062z" fill="#f9b419"/><path d="m240.465 69.626h31.062v31.062h-31.062z" fill="#f9b419"/><path d="m302.589 69.626h93.187v31.062h-93.187z" fill="#df646e"/><path d="m302.589 69.626h20v31.062h-20z" fill="#dc4955"/><g fill="#ffd527"><circle cx="131.747" cy="147.282" r="15.531"/><circle cx="193.871" cy="147.282" r="15.531"/><circle cx="255.996" cy="147.282" r="15.531"/><circle cx="318.12" cy="147.282" r="15.531"/><circle cx="380.245" cy="147.282" r="15.531"/></g><path d="m116.216 287.062h31.062v31.062h-31.062z" fill="#ffe17d"/><path d="m240.465 256h31.062v31.062h-31.062z" fill="#ffe17d"/><path d="m364.714 287.062h31.062v31.062h-31.062z" fill="#ffe17d"/><path d="m178.34 349.187h31.062v31.062h-31.062z" fill="#ffe17d"/><path d="m302.589 318.125h31.062v31.062h-31.062z" fill="#ffe17d"/><g><path d="m239.655 497h-178.06v-482h275.9c4.143 0 7.5-3.357 7.5-7.5s-3.357-7.5-7.5-7.5h-283.4c-4.143 0-7.5 3.357-7.5 7.5v497c0 4.143 3.357 7.5 7.5 7.5h185.561c4.143 0 7.5-3.357 7.5-7.5s-3.358-7.5-7.501-7.5z"/><path d="m457.905 0h-87.721c-4.143 0-7.5 3.357-7.5 7.5s3.357 7.5 7.5 7.5h80.221v482h-178.07c-4.143 0-7.5 3.357-7.5 7.5s3.357 7.5 7.5 7.5h185.57c4.143 0 7.5-3.357 7.5-7.5v-497c0-4.143-3.357-7.5-7.5-7.5z"/><path d="m426.835 31.06h-341.68c-4.143 0-7.5 3.357-7.5 7.5v309.81c0 4.143 3.357 7.5 7.5 7.5s7.5-3.357 7.5-7.5v-146.994h326.68v264.564h-326.68v-84.88c0-4.143-3.357-7.5-7.5-7.5s-7.5 3.357-7.5 7.5v92.381c0 4.143 3.357 7.5 7.5 7.5h341.68c4.143 0 7.5-3.357 7.5-7.5v-434.881c0-4.143-3.357-7.5-7.5-7.5zm-334.18 155.316v-140.316h326.68v140.316z"/><path d="m147.278 62.127h-31.063c-4.143 0-7.5 3.357-7.5 7.5v31.062c0 4.143 3.357 7.5 7.5 7.5h31.063c4.143 0 7.5-3.357 7.5-7.5v-31.062c0-4.143-3.357-7.5-7.5-7.5zm-7.5 31.061h-16.063v-16.061h16.063z"/><path d="m209.402 62.127h-31.062c-4.143 0-7.5 3.357-7.5 7.5v31.062c0 4.143 3.357 7.5 7.5 7.5h31.062c4.143 0 7.5-3.357 7.5-7.5v-31.062c0-4.143-3.357-7.5-7.5-7.5zm-7.5 31.061h-16.062v-16.061h16.062z"/><path d="m271.527 62.127h-31.063c-4.143 0-7.5 3.357-7.5 7.5v31.062c0 4.143 3.357 7.5 7.5 7.5h31.063c4.143 0 7.5-3.357 7.5-7.5v-31.062c0-4.143-3.357-7.5-7.5-7.5zm-7.5 31.061h-16.063v-16.061h16.063z"/><path d="m395.776 62.127h-93.188c-4.143 0-7.5 3.357-7.5 7.5v31.062c0 4.143 3.357 7.5 7.5 7.5h93.188c4.143 0 7.5-3.357 7.5-7.5v-31.062c0-4.143-3.357-7.5-7.5-7.5zm-7.5 31.061h-78.188v-16.061h78.188z"/><path d="m131.747 124.251c-12.699 0-23.031 10.332-23.031 23.031s10.332 23.031 23.031 23.031 23.031-10.332 23.031-23.031-10.332-23.031-23.031-23.031zm0 31.062c-4.429 0-8.031-3.603-8.031-8.031s3.603-8.031 8.031-8.031 8.031 3.603 8.031 8.031-3.602 8.031-8.031 8.031z"/><path d="m193.871 124.251c-12.699 0-23.03 10.332-23.03 23.031s10.331 23.031 23.03 23.031 23.031-10.332 23.031-23.031-10.332-23.031-23.031-23.031zm0 31.062c-4.428 0-8.03-3.603-8.03-8.031s3.603-8.031 8.03-8.031c4.429 0 8.031 3.603 8.031 8.031s-3.602 8.031-8.031 8.031z"/><path d="m255.996 124.251c-12.699 0-23.031 10.332-23.031 23.031s10.332 23.031 23.031 23.031 23.031-10.332 23.031-23.031-10.332-23.031-23.031-23.031zm0 31.062c-4.429 0-8.031-3.603-8.031-8.031s3.603-8.031 8.031-8.031 8.031 3.603 8.031 8.031-3.602 8.031-8.031 8.031z"/><path d="m318.12 124.251c-12.699 0-23.031 10.332-23.031 23.031s10.332 23.031 23.031 23.031 23.031-10.332 23.031-23.031-10.332-23.031-23.031-23.031zm0 31.062c-4.429 0-8.031-3.603-8.031-8.031s3.603-8.031 8.031-8.031 8.031 3.603 8.031 8.031-3.602 8.031-8.031 8.031z"/><path d="m380.245 124.251c-12.699 0-23.031 10.332-23.031 23.031s10.332 23.031 23.031 23.031 23.031-10.332 23.031-23.031-10.332-23.031-23.031-23.031zm0 31.062c-4.429 0-8.031-3.603-8.031-8.031s3.603-8.031 8.031-8.031 8.031 3.603 8.031 8.031-3.602 8.031-8.031 8.031z"/><path d="m131.745 217.44c-4.143 0-7.5 3.357-7.5 7.5v54.622h-8.029c-4.143 0-7.5 3.357-7.5 7.5v31.062c0 4.143 3.357 7.5 7.5 7.5h8.029v116.746c0 4.143 3.357 7.5 7.5 7.5s7.5-3.357 7.5-7.5v-116.746h8.033c4.143 0 7.5-3.357 7.5-7.5v-31.062c0-4.143-3.357-7.5-7.5-7.5h-8.033v-54.622c0-4.142-3.357-7.5-7.5-7.5zm8.033 93.184h-16.063v-16.062h16.063z"/><path d="m193.875 217.44c-4.143 0-7.5 3.357-7.5 7.5v116.746h-8.034c-4.143 0-7.5 3.357-7.5 7.5v31.063c0 4.143 3.357 7.5 7.5 7.5h8.034v54.621c0 4.143 3.357 7.5 7.5 7.5s7.5-3.357 7.5-7.5v-54.621h8.027c4.143 0 7.5-3.357 7.5-7.5v-31.063c0-4.143-3.357-7.5-7.5-7.5h-8.027v-116.746c0-4.142-3.357-7.5-7.5-7.5zm8.027 155.309h-16.062v-16.063h16.062z"/><path d="m255.995 217.44c-4.143 0-7.5 3.357-7.5 7.5v23.56h-8.03c-4.143 0-7.5 3.357-7.5 7.5v31.063c0 4.143 3.357 7.5 7.5 7.5h8.03v147.807c0 4.143 3.357 7.5 7.5 7.5s7.5-3.357 7.5-7.5v-147.807h8.032c4.143 0 7.5-3.357 7.5-7.5v-31.063c0-4.143-3.357-7.5-7.5-7.5h-8.032v-23.56c0-4.142-3.357-7.5-7.5-7.5zm8.032 62.123h-16.063v-16.063h16.063z"/><path d="m318.125 217.44c-4.143 0-7.5 3.357-7.5 7.5v85.684h-8.036c-4.143 0-7.5 3.357-7.5 7.5v31.063c0 4.143 3.357 7.5 7.5 7.5h8.036v85.684c0 4.143 3.357 7.5 7.5 7.5s7.5-3.357 7.5-7.5v-85.684h8.026c4.143 0 7.5-3.357 7.5-7.5v-31.063c0-4.143-3.357-7.5-7.5-7.5h-8.026v-85.684c0-4.142-3.357-7.5-7.5-7.5zm8.026 124.247h-16.063v-16.063h16.063z"/><path d="m380.245 217.44c-4.143 0-7.5 3.357-7.5 7.5v54.622h-8.031c-4.143 0-7.5 3.357-7.5 7.5v31.062c0 4.143 3.357 7.5 7.5 7.5h8.031v116.746c0 4.143 3.357 7.5 7.5 7.5s7.5-3.357 7.5-7.5v-116.746h8.031c4.143 0 7.5-3.357 7.5-7.5v-31.062c0-4.143-3.357-7.5-7.5-7.5h-8.031v-54.622c0-4.142-3.357-7.5-7.5-7.5zm8.031 93.184h-16.063v-16.062h16.063z"/></g></g></svg>