<svg id="Layer_1" viewBox="0 0 1000 1000" xmlns="http://www.w3.org/2000/svg" data-name="Layer 1"><path d="m684.55 798.36v80.33h-317.13v-80.53q3.57 1.58 7.18 3.06a399.55 399.55 0 0 0 303.21 0c2.26-.93 4.51-1.89 6.74-2.86z" fill="#bdbdbd"/><path d="m883.63 466.31a338.63 338.63 0 0 1 -10.63 70.09h-693.56a339.29 339.29 0 0 1 -10.66-70.09z" fill="#29b6f6"/><path d="m862.89 568.4c-49.75 134.38-181.89 230.7-336.69 230.7s-286.93-96.32-336.68-230.7h574.85c-8.2 72.24-71.29 128.6-147.66 128.6a16 16 0 0 0 0 32c94 0 171.54-70.7 179.83-160.61z" fill="#039be5"/><path d="m406.88 434.31h-106.13l-174.09-174.08a36.39 36.39 0 0 1 0-51.47l1.6-1.6a36.39 36.39 0 0 1 51.47 0z" fill="#616161"/><g fill="#fff" opacity=".5"><path d="m674.55 808.36v80.33h-317.13v-80.53q3.57 1.58 7.18 3.06a399.55 399.55 0 0 0 303.21 0c2.26-.93 4.51-1.89 6.74-2.86z"/><path d="m873.63 476.31a338.63 338.63 0 0 1 -10.63 70.09h-693.56a339.29 339.29 0 0 1 -10.66-70.09z"/><path d="m852.89 578.4c-49.75 134.38-181.89 230.7-336.69 230.7s-286.93-96.32-336.68-230.7h574.85c-8.2 72.24-71.29 128.6-147.66 128.6a16 16 0 0 0 0 32c94 0 171.54-70.7 179.83-160.61z"/><path d="m396.88 444.31h-106.13l-174.09-174.08a36.39 36.39 0 0 1 0-51.47l1.6-1.6a36.39 36.39 0 0 1 51.47 0z"/></g><g fill="#413b32"><path d="m653.54 344.67a16 16 0 0 1 -9.82-28.67c9.9-7.69 17-20.58 20-36.32 3.11-16.29 1.72-34.51-3.92-51.3-9.95-29.58-18.6-61.38-5.8-95.65 6-16.15 15.74-30.19 27.4-39.54l.59-.46.09-.07a16 16 0 0 1 19.56 25.34l-.29.23c-7.09 5.68-13.44 15.06-17.4 25.71-9.12 24.52-2.28 49.15 6.18 74.33 7.36 21.91 9.15 45.88 5 67.49-4.53 23.72-15.53 43-31.81 55.59a15.94 15.94 0 0 1 -9.78 3.32z"/><path d="m778.72 344.67a16 16 0 0 1 -9.82-28.67c9.9-7.69 17-20.58 20-36.32 3.11-16.29 1.71-34.51-3.92-51.3-10-29.61-18.6-61.39-5.84-95.68 6-16.15 15.73-30.19 27.4-39.54l.59-.46.08-.07a16 16 0 0 1 19.61 25.37l-.29.23c-7.09 5.68-13.44 15.06-17.4 25.71-9.12 24.52-2.28 49.15 6.18 74.33 7.36 21.91 9.15 45.88 5 67.49-4.52 23.72-15.52 43-31.81 55.59a15.89 15.89 0 0 1 -9.78 3.32z"/><path d="m528.37 344.67a16 16 0 0 1 -9.83-28.67c9.9-7.69 17-20.58 20-36.32 3.11-16.29 1.72-34.51-3.92-51.3-10-29.61-18.6-61.39-5.84-95.68 6-16.15 15.74-30.19 27.4-39.54.18-.15.39-.31.61-.47l.09-.07a16 16 0 0 1 19.57 25.38l-.28.21c-7.09 5.68-13.44 15.06-17.4 25.71-9.12 24.52-2.28 49.15 6.18 74.33 7.36 21.91 9.15 45.88 5 67.49-4.53 23.72-15.53 43-31.81 55.59a15.93 15.93 0 0 1 -9.77 3.34z"/><path d="m716.55 773.09v121.6a16 16 0 0 1 -16 16h-349.13a16 16 0 0 1 -16-16v-121.83a16 16 0 0 1 32 0v105.83h317.13v-105.6a16 16 0 1 1 32 0z"/><path d="m911.31 439a16 16 0 0 0 -11.31-4.69h-747.59a16 16 0 0 0 -16 16 371 371 0 0 0 30.69 148.35 379.2 379.2 0 0 0 83.62 121.05 387.64 387.64 0 0 0 84.7 62.75q15.57 8.56 32 15.7 3.57 1.58 7.18 3.06a399.55 399.55 0 0 0 303.21 0c2.26-.93 4.51-1.89 6.74-2.86q16.41-7.12 32-15.65a388.11 388.11 0 0 0 85.14-63 379.2 379.2 0 0 0 83.62-121.05 371 371 0 0 0 30.69-148.35 16 16 0 0 0 -4.69-11.31zm-385.11 360.1c-154.78 0-286.93-96.32-336.68-230.7q-5.81-15.67-10.08-32a339.29 339.29 0 0 1 -10.66-70.09h714.85a338.63 338.63 0 0 1 -10.63 70.09 334.82 334.82 0 0 1 -10.07 32c-49.79 134.38-181.93 230.7-336.73 230.7z"/><path d="m797.28 552.4q0 8.08-.74 16c-8.29 89.91-85.78 160.6-179.83 160.6a16 16 0 0 1 0-32c76.37 0 139.46-56.37 147.66-128.61a140.89 140.89 0 0 0 .91-16 16 16 0 1 1 32 0z"/><path d="m901.15 552.4a16 16 0 0 1 -16 16h-717.89a16 16 0 0 1 0-32h717.89a16 16 0 0 1 16 16z"/><path d="m456.81 461.62a16 16 0 0 1 -22.62 0l-254.46-254.46a36.39 36.39 0 0 0 -51.47 0l-1.6 1.6a36.39 36.39 0 0 0 0 51.47l174.09 174.08 4.68 4.68a16 16 0 1 1 -22.63 22.63l-178.8-178.76a68.38 68.38 0 0 1 0-96.73l1.59-1.59a68.38 68.38 0 0 1 96.73 0l254.49 254.46a16 16 0 0 1 0 22.62z"/></g></svg>