<svg id="Capa_1" enable-background="new 0 0 512 512" height="512" viewBox="0 0 512 512" width="512" xmlns="http://www.w3.org/2000/svg"><g><g><path d="m172.922 200.228-3.671-2.817h-24.567v49.789h33.192v-42.654z" fill="#f9f6f6"/><path d="m146.684 197.411h-20.308l-3.391 2.817v46.972h23.699z" fill="#e2d8ec"/><path d="m144.684 283.038v154.328l33.192-39.414v-114.914z" fill="#f9f6f6"/><path d="m146.684 283.038h-23.699v131.498 38.336h8.641l15.058-17.881z" fill="#e2d8ec"/><path d="m144.684 245.752h33.191v38.734h-33.191z" fill="#e2d8ec"/><path d="m122.985 245.752h23.699v38.734h-23.699z" fill="#d5c6e4"/><path d="m157.309 156.447-12.862 43.781h28.475l-13.119-46.275z" fill="#5169cd"/><path d="m157.4 145.475c-2.699-9.521-16.194-9.521-18.893 0l-15.522 54.753h23.699l13.119-46.275z" fill="#3351c5"/><path d="m385.647 197.411h-25.846v49.789h29.237v-46.972z" fill="#f9f6f6"/><path d="m362.801 197.411h-20.029l-3.671 2.817-4.954 4.318v42.654h28.654z" fill="#e2d8ec"/><path d="m359.801 283.038v145.377l20.596 24.457h8.641v-38.336-131.498z" fill="#f9f6f6"/><path d="m362.801 283.038h-28.654v114.914l28.654 34.025z" fill="#e2d8ec"/><path d="m359.801 245.752h29.237v38.734h-29.237z" fill="#e2d8ec"/><path d="m334.147 245.752h28.654v38.734h-28.654z" fill="#d5c6e4"/><path d="m335.013 112.153-5.116-5.617h-118.871l-2.545 15.75v275h125.666l4.563-4.329v-236.696c0-15.358-1.294-30.171-3.697-44.108z" fill="#ffb640"/><path d="m211.033 156.261c0-15.358 1.294-30.171 3.697-44.108l7.138-5.617h-37.72l-7.138 5.617c-2.402 13.937-3.697 28.751-3.697 44.108v236.695l6.584 4.329h37.72l-6.584-4.329z" fill="#ffa90f"/><path d="m274.871 11.391h-11.199l-29.192 32.562-20.667 45.333-3.696 22.867h124.895c-8.621-50.03-31.527-88.755-60.141-100.762z" fill="#ffd086"/><path d="m274.871 11.391c-6.058-2.542-12.371-3.891-18.86-3.891-37.136 0-68.554 44.031-79.002 104.653h37.72c8.623-50.03 31.529-88.755 60.142-100.762z" fill="#ffb640"/><path d="m375.919 153.953h-1.938l-12.25 46.275h27.307z" fill="#5169cd"/><path d="m373.516 145.475c-2.699-9.521-16.194-9.521-18.893 0l-15.522 54.753h23.699l13.118-46.275z" fill="#3351c5"/><path d="m347.18 400.321c-10.55-7.277-17.946-18.281-20.768-30.783l-7.833-34.705c-.561-2.485-1.489-4.887-2.712-7.182l-3.177 3.177v160.79l3.177 3.763h64.988c4.519 0 8.183-3.664 8.183-8.183v-34.322c0-20.181-24.706-40.724-41.858-52.555z" fill="#5169cd"/><path d="m217.814 343.619-11 38.333-19.667 18.571-36.717 38.429v53l3.45 3.43h68.411l6.023-4.346v-158.398z" fill="#5169cd"/><path d="m315.867 327.652c-5.282-9.907-16.078-17.832-26.702-21.987l-4.018 2.621v184.5l4.584 2.596h26.136z" fill="#3351c5"/><path d="m153.705 487.2v-34.322c0-20.182 24.706-40.726 41.858-52.556 10.549-7.277 17.946-18.281 20.768-30.783l7.833-34.705c.763-3.381 2.208-6.606 4.151-9.62v-14.928l-5.456-4.621c-13.086 5.118-26.432 15.953-29.415 29.169l-7.833 34.705c-2.822 12.502-10.218 23.506-20.768 30.783-17.152 11.831-41.858 32.374-41.858 52.556v34.322c0 4.519 3.663 8.183 8.183 8.183h30.72c-4.52-.001-8.183-3.664-8.183-8.183z" fill="#3351c5"/><path d="m280.764 249.878c-.347-1.407-.699-2.777-1.053-4.126l-5.438-4.733h-12.79l-2.501 7.267-6.333 36.201-2.333 30.299v144.297h34.833l4.584-3.328v-130.925c-.001-25.252-2.919-50.436-8.969-74.952z" fill="#f9f6f6"/><path d="m251.427 324.83c0-25.252 2.918-50.436 8.968-74.952.347-1.407.699-2.777 1.053-4.126l6.085-4.733h-29.136l-6.085 4.733c-.354 1.349-.706 2.719-1.053 4.126-6.05 24.516-8.968 49.7-8.968 74.952v130.925l4.981 3.328h29.136l-4.981-3.328z" fill="#e2d8ec"/><path d="m270.579 219.263-2.451 2.451-8.275 24.038h19.858c-2.84-10.816-5.901-19.739-9.132-26.489z" fill="#fb5fa7"/><path d="m256.011 204.546c-8.721 0-16.85 15.121-23.699 41.206h29.136c2.84-10.816 5.9-19.739 9.131-26.489-4.561-9.528-9.463-14.717-14.568-14.717z" fill="#fb4297"/><path d="m249.908 455.755h-27.617v41.835c0 3.817 3.094 6.91 6.91 6.91h20.707z" fill="#c6b4da"/><path d="m262.114 455.755v48.745h20.707c3.816 0 6.91-3.094 6.91-6.91v-41.835z" fill="#d5c6e4"/></g><g><path d="m256 276.986c-4.143 0-7.5 3.357-7.5 7.5v7.667c0 4.143 3.357 7.5 7.5 7.5s7.5-3.357 7.5-7.5v-7.667c0-4.143-3.357-7.5-7.5-7.5z"/><path d="m389.027 341.541c4.143 0 7.5-3.357 7.5-7.5v-49.555-38.734-45.523c0-.062-.008-.121-.009-.182-.002-.11-.009-.219-.017-.329-.012-.173-.029-.345-.052-.515-.013-.096-.027-.191-.044-.287-.035-.196-.078-.388-.128-.579-.013-.051-.02-.103-.034-.154l-15.523-54.753c-2.135-7.534-8.83-12.595-16.661-12.596h-.001c-7.83 0-14.526 5.062-16.662 12.595l-1.323 4.665c-2.055-70.523-34.895-148.094-90.073-148.094-59.205 0-88.249 85.499-90.074 148.095l-1.323-4.665c-2.135-7.534-8.83-12.595-16.661-12.596h-.001c-7.83 0-14.526 5.062-16.662 12.595l-15.521 54.752c-.014.051-.021.103-.034.154-.05.19-.093.383-.128.579-.017.096-.031.191-.044.287-.023.17-.041.341-.052.515-.008.11-.014.219-.017.329-.001.061-.009.121-.009.182v45.523 38.734 202.714c0 8.647 7.035 15.683 15.683 15.683h84.643c2.115 5.332 7.314 9.118 13.39 9.118h53.62c6.076 0 11.274-3.786 13.39-9.118h84.644c8.647 0 15.683-7.035 15.683-15.683 0-11.948 0-106.775 0-118.159 0-4.143-3.357-7.5-7.5-7.5s-7.5 3.357-7.5 7.5v51.041c-13.905-15.986-29.576-24.84-34.937-29.825v-98.271h34.937v42.055c0 4.144 3.357 7.502 7.5 7.502zm-243.316-194.02c.317-1.119 1.067-1.686 2.23-1.686h.001c1.162 0 1.912.567 2.229 1.686l12.816 45.208h-30.093zm-15.237 60.207h34.937v30.523h-34.937zm0 45.523h34.937v23.734h-34.937zm0 38.735h34.937v98.27c-1.529 1.423-3.32 2.845-4.837 3.892 0 0 0 0-.001 0-10.613 7.321-21.631 16.205-30.099 25.935zm84.306 32.844v163.053h-83.623c-.376 0-.683-.307-.683-.683v-34.322c0-17.031 24.61-36.722 38.616-46.382 11.687-8.063 20.441-20.485 23.791-35.169.01-.046.024-.091.034-.137l7.833-34.705c1.686-7.475 7.813-13.754 14.095-18.095-.02 1.001-.063 4.178-.063 6.44zm33.72 172.17h-18.72v-1.618-32.128h18.72zm33.72-1.618v1.618h-18.72v-33.746h18.72zm0-47.128h-18.72v-54.571c0-4.143-3.357-7.5-7.5-7.5s-7.5 3.357-7.5 7.5v54.571h-18.72v-123.424c0-24.373 2.787-48.346 8.384-71.577h35.676c5.669 23.465 8.381 47.533 8.381 71.577v123.424zm-39.906-210.002c7.884-25.395 13.684-26.206 13.684-26.206 5.256.883 12.12 20.918 13.762 26.206zm54.021 62.373c-2.09-27.305-12.975-103.579-40.335-103.579-27.412 0-38.251 76.473-40.336 103.578-13.385 6.459-26.277 18.064-29.549 32.558l-5.314 23.546v-200.467c0-12.539.893-24.813 2.596-36.608h55.103c4.143 0 7.5-3.358 7.5-7.5s-3.357-7.5-7.5-7.5h-52.423c8.084-37.982 31.774-89.653 69.923-89.653 32.73 0 59.495 40.656 69.923 89.653h-52.423c-4.143 0-7.5 3.358-7.5 7.5s3.357 7.5 7.5 7.5h55.103c1.703 11.796 2.596 24.069 2.596 36.608v200.467l-.604-2.675-4.71-20.871c-3.286-14.559-16.264-26.148-29.55-32.557zm85.192 152.252v34.323c0 .376-.307.683-.683.683h-83.624c0-7.177 0-156.055 0-163.053 0-1.95-.038-5.159-.063-6.44 6.286 4.341 12.411 10.629 14.096 18.095 8.459 37.483 8.387 38.232 10.824 44.139 4.443 10.818 11.861 19.681 20.833 25.872h.001c14.004 9.659 38.616 29.342 38.616 46.381zm-19.7-305.356c.317-1.119 1.067-1.686 2.23-1.686h.001c1.162 0 1.912.567 2.229 1.686l12.816 45.208h-30.093zm-15.237 60.207h34.937v30.523h-34.937zm0 69.258v-23.734h34.937v23.734z"/></g></g></svg>