<svg id="Capa_1" enable-background="new 0 0 512 512" height="512" viewBox="0 0 512 512" width="512" xmlns="http://www.w3.org/2000/svg"><g><g><path d="m156.634 378.898h61.013v20.773h-61.013z" fill="#e2d8ec"/><path d="m293.647 378.898h61.743v20.773h-61.743z" fill="#e2d8ec"/><path d="m156.634 398.065h61.013v19.167h-61.013z" fill="#d5c6e4"/><path d="m293.647 398.065h61.743v19.167h-61.743z" fill="#d5c6e4"/><g fill="#e2d8ec"><path d="m241.513 114.071h28.998v38.5h-28.998z"/><path d="m241.513 269.238h28.998v37.667h-28.998z"/><path d="m156.634 36.298h61.013v20.773h-61.013z"/><path d="m293.647 36.298h61.743v20.773h-61.743z"/></g><path d="m156.634 55.465h61.013v19.167h-61.013z" fill="#d5c6e4"/><path d="m293.647 55.465h61.743v19.167h-61.743z" fill="#d5c6e4"/><path d="m278.147 466.696h-23.5v27.375l4.125 7.75 3.795 2.679h5.276c7.008 0 12.742-5.734 12.742-12.742v-21.038z" fill="#e2d8ec"/><path d="m256.012 491.758v-21.038l4.458-4.024h-24.573l-4.458 4.024v21.038c0 7.008 5.734 12.742 12.742 12.742h23.663c.154 0 .303-.018.455-.023-6.798-.244-12.287-5.864-12.287-12.719z" fill="#d5c6e4"/><path d="m492.512 355.317h-125.122c-6.6 0-12 5.4-12 12v61.496c0 6.6 5.4 12 12 12h125.122c6.6 0 12-5.4 12-12v-61.496c0-6.6-5.4-12-12-12z" fill="#8dcafc"/><path d="m144.634 355.317h-125.122c-6.6 0-12 5.4-12 12v61.496c0 6.6 5.4 12 12 12h125.122c6.6 0 12-5.4 12-12v-61.496c0-6.6-5.4-12-12-12z" fill="#8dcafc"/><path d="m492.512 12.717h-125.122c-6.6 0-12 5.4-12 12v61.496c0 6.6 5.4 12 12 12h125.122c6.6 0 12-5.4 12-12v-61.496c0-6.6-5.4-12-12-12z" fill="#8dcafc"/><path d="m144.634 12.717h-125.122c-6.6 0-12 5.4-12 12v61.496c0 6.6 5.4 12 12 12h125.122c6.6 0 12-5.4 12-12v-61.496c0-6.6-5.4-12-12-12z" fill="#8dcafc"/><path d="m409.89 428.812v-61.496c0-6.6 5.4-12 12-12h-54.5c-6.6 0-12 5.4-12 12v61.496c0 6.6 5.4 12 12 12h54.5c-6.6 0-12-5.4-12-12z" fill="#31a7fb"/><path d="m62.012 428.812v-61.496c0-6.6 5.4-12 12-12h-54.5c-6.6 0-12 5.4-12 12v61.496c0 6.6 5.4 12 12 12h54.5c-6.6 0-12-5.4-12-12z" fill="#31a7fb"/><path d="m409.89 86.213v-61.496c0-6.6 5.4-12 12-12h-54.5c-6.6 0-12 5.4-12 12v61.496c0 6.6 5.4 12 12 12h54.5c-6.6 0-12-5.4-12-12z" fill="#31a7fb"/><path d="m62.012 86.213v-61.496c0-6.6 5.4-12 12-12h-54.5c-6.6 0-12 5.4-12 12v61.496c0 6.6 5.4 12 12 12h54.5c-6.6 0-12-5.4-12-12z" fill="#31a7fb"/><path d="m290.904 149.023h-45.411l-10.202 3.548-14.408 17.833-3.236 12.167v66.625l10.25 15.25 10.5 4.792 8.198 2.617h44.308c20.368 0 37.032-16.665 37.032-37.032v-48.767c.001-20.368-16.664-37.033-37.031-37.033z" fill="#5169cd"/><path d="m220.647 234.823v-48.767c0-20.368 16.665-37.032 37.032-37.032h-36.559c-20.368 0-37.032 16.665-37.032 37.032v48.767c0 20.368 16.665 37.032 37.032 37.032h36.559c-20.368 0-37.032-16.665-37.032-37.032z" fill="#3351c5"/><path d="m297.397 335.321h-51.625v127.417l2.875 5.5 5.423 2.482h34.942c6.6 0 12-5.4 12-12v-118.768z" fill="#5169cd"/><path d="m247.571 458.72v-118.768l3.135-4.631h-36.56l-3.135 4.631v118.768c0 6.6 5.4 12 12 12h36.56c-6.6 0-12-5.4-12-12z" fill="#3351c5"/><path d="m277.678 303.286h-15.51l-9.146 5.036-7.25 12.5v19.131h55.24v-13.333c0-12.834-10.5-23.334-23.334-23.334z" fill="#3351c5"/><path d="m270.904 303.286h-36.56c-12.833 0-23.333 10.5-23.333 23.333v13.333h36.56v-13.333c0-12.833 10.5-23.333 23.333-23.333z" fill="#213993"/><path d="m289.012 7.5h-35.855l-3.01 1.071-3.833 7.167v68.667h49.167l5.531-3.479v-61.426c0-6.6-5.4-12-12-12z" fill="#5169cd"/><path d="m247.571 19.5c0-6.6 5.4-12 12-12h-36.56c-6.6 0-12 5.4-12 12v61.426l2.969 3.479h36.559l-2.969-3.479v-61.426z" fill="#3351c5"/><path d="m246.314 80.926v23.646l7.667 8.833 8.816 4.188h14.882c12.833 0 23.333-10.5 23.333-23.333v-13.334z" fill="#3351c5"/><path d="m247.571 94.259v-13.333h-36.56v13.333c0 12.833 10.5 23.333 23.333 23.333h36.56c-12.833 0-23.333-10.5-23.333-23.333z" fill="#213993"/><path d="m267.345 186.321h-5.198l-11.25 13v18.618l5.115 12.882 11.333 3.736c9.04-4.281 15.333-13.498 15.333-24.118 0-10.62-6.293-19.837-15.333-24.118z" fill="#f9f6f6"/><path d="m252.012 210.439c0-10.62 6.293-19.838 15.333-24.118-3.445-1.631-7.286-2.549-11.333-2.549-14.667 0-26.666 12-26.666 26.667 0 14.667 12 26.667 26.666 26.667 4.047 0 7.889-.917 11.333-2.549-9.04-4.28-15.333-13.498-15.333-24.118z" fill="#e2d8ec"/></g><g><path d="m19.5 448.312h125.122c10.752 0 19.5-8.748 19.5-19.5v-4.081h39.378v33.989c0 10.752 8.748 19.5 19.5 19.5h.927v13.538c0 11.161 9.081 20.242 20.242 20.242h23.663c11.161 0 20.241-9.081 20.241-20.242v-13.538h.927c10.752 0 19.5-8.748 19.5-19.5v-33.989h39.378v4.081c0 10.752 8.748 19.5 19.5 19.5h125.122c10.752 0 19.5-8.748 19.5-19.5v-61.496c0-10.752-8.748-19.5-19.5-19.5h-125.122c-10.752 0-19.5 8.748-19.5 19.5v4.081h-39.378c0-14.905 0-29.779 0-44.779 0-16.89-13.653-30.646-30.501-30.825v-16.439h12.894c24.555 0 44.532-19.977 44.532-44.532v-48.767c0-24.555-19.978-44.533-44.532-44.533h-12.894v-16.439c16.94-.18 30.501-14.013 30.501-30.825v-12.126h39.378v4.081c0 10.752 8.748 19.5 19.5 19.5h125.122c10.752 0 19.5-8.748 19.5-19.5v-61.496c0-10.752-8.748-19.5-19.5-19.5h-125.122c-10.752 0-19.5 8.748-19.5 19.5v4.081h-39.378v-9.298c0-10.752-8.748-19.5-19.5-19.5h-15.5c-4.143 0-7.5 3.358-7.5 7.5s3.357 7.5 7.5 7.5h15.5c2.439 0 4.5 2.061 4.5 4.5v53.926h-75c0-11.86 0-44.109 0-53.926 0-2.439 2.061-4.5 4.5-4.5h15.5c4.143 0 7.5-3.358 7.5-7.5s-3.357-7.5-7.5-7.5h-15.5c-10.752 0-19.5 8.748-19.5 19.5v9.298h-39.378v-4.081c0-10.752-8.748-19.5-19.5-19.5h-125.122c-10.752 0-19.5 8.748-19.5 19.5v61.496c0 10.752 8.748 19.5 19.5 19.5h125.122c10.752 0 19.5-8.748 19.5-19.5v-4.081h39.378v12.127c0 16.9 13.666 30.645 30.501 30.825v16.439h-12.893c-24.555 0-44.532 19.978-44.532 44.533v48.767c0 24.555 19.978 44.532 44.532 44.532h12.893v16.439c-16.853.18-30.501 13.935-30.501 30.825v44.779h-39.378v-4.081c0-10.752-8.748-19.5-19.5-19.5h-125.122c-10.752 0-19.5 8.748-19.5 19.5v61.496c0 10.752 8.748 19.499 19.5 19.499zm455.22-85.495h17.78c2.439 0 4.5 2.061 4.5 4.5v23.248h-22.28zm0 42.747h22.28v23.248c0 2.439-2.061 4.5-4.5 4.5h-17.78zm-37.281-42.747h22.28v27.748h-22.28zm0 42.747h22.28v27.748h-22.28zm-36.963-42.747h21.964v27.748h-21.964zm0 42.747h21.964v27.748h-21.964zm-37.598-38.247c0-2.439 2.061-4.5 4.5-4.5h18.098v27.748h-22.598c0-8.446 0-14.873 0-23.248zm0 38.247h22.598v27.748h-18.098c-2.439 0-4.5-2.061-4.5-4.5 0-8.375 0-14.802 0-23.248zm-54.378-19.166h39.378v23.333h-39.378zm166.22-366.181h17.78c2.439 0 4.5 2.061 4.5 4.5v23.248h-22.28zm0 42.748h22.28v23.248c0 2.439-2.061 4.5-4.5 4.5h-17.78zm-37.281-42.748h22.28v27.748h-22.28zm0 42.748h22.28v27.748h-22.28zm-36.963-42.748h21.964v27.748h-21.964zm0 42.748h21.964v27.748h-21.964zm-37.598-26.667v-11.581c0-2.439 2.061-4.5 4.5-4.5h18.098v27.748h-22.598zm0 26.667h22.598v27.748h-18.098c-2.439 0-4.5-2.061-4.5-4.5 0-8.376 0-14.802 0-23.248zm-54.378-19.167h39.378v23.333h-39.378zm-270.902 46.915h-18.098c-2.439 0-4.5-2.061-4.5-4.5v-23.248h22.598zm0-42.748h-22.598v-23.248c0-2.439 2.061-4.5 4.5-4.5h18.098zm36.964 42.748h-21.964v-27.748h21.964zm0-42.748h-21.964v-27.748h21.964zm37.28 42.748h-22.28v-27.748h22.28zm0-42.748h-22.28v-27.748h22.28zm37.28 26.667v11.581c0 2.439-2.061 4.5-4.5 4.5h-17.78v-27.748h22.28zm0-38.334v11.667h-22.28v-27.748h17.78c2.439 0 4.5 2.061 4.5 4.5zm54.378 30.834h-39.378v-23.334h39.378zm69.573 424.626c0 2.89-2.352 5.242-5.241 5.242h-23.663c-2.842 0-5.242-2.4-5.242-5.242v-13.538h34.146zm-54.573-397.499v-5.833h75v5.833c0 8.73-7.102 15.833-15.833 15.833-9.172 0-34.11 0-43.333 0-8.791 0-15.834-7.195-15.834-15.833zm44.499 30.833v16.431h-13.998v-16.431zm-71.423 60.964c0-16.284 13.248-29.533 29.532-29.533h69.784c16.284 0 29.532 13.249 29.532 29.533v16.883h-31.097c-3.429-15.242-17.065-26.667-33.328-26.667-16.262 0-29.898 11.424-33.327 26.667h-31.097v-16.883zm83.591 24.383c0 10.568-8.599 19.167-19.167 19.167s-19.166-8.598-19.166-19.167 8.598-19.167 19.166-19.167 19.167 8.599 19.167 19.167zm-54.059 53.916c-16.284 0-29.532-13.248-29.532-29.532v-16.884h31.097c3.429 15.242 17.065 26.667 33.327 26.667 16.263 0 29.899-11.424 33.328-26.667h31.097v16.884c0 16.284-13.248 29.532-29.532 29.532-6.808 0-63.145 0-69.785 0zm41.891 15v16.431h-13.998v-16.431zm-44.499 68.097h20c4.143 0 7.5-3.358 7.5-7.5s-3.357-7.5-7.5-7.5h-20v-5.833c0-8.73 7.103-15.833 15.834-15.833h43.333c8.73 0 15.833 7.103 15.833 15.833v5.833h-20c-4.143 0-7.5 3.358-7.5 7.5s3.357 7.5 7.5 7.5h20v111.268c0 2.439-2.061 4.5-4.5 4.5-7.555 0-59.115 0-66 0-2.439 0-4.5-2.061-4.5-4.5 0-8.161 0-85.066 0-111.268zm-54.378 38.946h39.378v23.333h-39.378zm-37.28-23.581h17.78c2.439 0 4.5 2.061 4.5 4.5v23.248h-22.28zm0 42.747h22.28v23.248c0 2.439-2.061 4.5-4.5 4.5h-17.78zm-37.28-42.747h22.28v27.748h-22.28zm0 42.747h22.28v27.748h-22.28zm-36.964-42.747h21.964v27.748h-21.964zm0 42.747h21.964v27.748h-21.964zm-37.598-38.247c0-2.439 2.061-4.5 4.5-4.5h18.098v27.748h-22.598zm0 38.247h22.598v27.748h-18.098c-2.439 0-4.5-2.061-4.5-4.5z"/></g></g></svg>