<svg id="Layer_1" enable-background="new 0 0 64 64" viewBox="0 0 64 64" xmlns="http://www.w3.org/2000/svg"><g><g><path d="m7.81 42.1s1.68-12.29 16.97-12.29c15.3 0 16.55 12.29 16.55 12.29z" fill="#ffeba8"/></g><g><path d="m49.95 31.78s-2.51-7.9-13.69-8.4c-10.82-.49-14.77 6.65-14.77 6.65s10.22-1.45 14.66 3.19c-.01-.01 5.03-5.25 13.8-1.44z" fill="#ffeba8"/></g><g><path d="m47.86 50.79h-31.72c-4.74 0-3.7-.9-7.03-4.28l-6.35-4.41h58.47l-6.34 4.41c-3.33 3.38-2.29 4.28-7.03 4.28z" fill="#ff8f83"/></g><g><path d="m59.23 42.1c-7.47-17.97-23.58-9.27-23.58-9.27s6.49 4.04 5.98 9.27z" fill="#ffeba8"/></g><g><path d="m47.86 51.79h-31.72c-3.75 0-4.44-.62-5.88-2.43-.44-.55-.98-1.24-1.8-2.08l-6.27-4.35c-.36-.25-.51-.7-.38-1.12s.52-.7.95-.7h58.47c.44 0 .82.28.95.7s-.02.87-.38 1.12l-6.27 4.35c-.82.84-1.37 1.53-1.8 2.08-1.43 1.8-2.12 2.43-5.87 2.43zm-41.9-8.69 3.72 2.59c.05.04.1.08.14.12.94.95 1.53 1.7 2.01 2.3 1.15 1.45 1.33 1.68 4.31 1.68h31.72c2.98 0 3.16-.22 4.31-1.68.48-.6 1.08-1.35 2.01-2.3.04-.04.09-.08.14-.12l3.72-2.59z"/></g><g><path d="m36.36 43.1c-.46 0-.88-.32-.98-.79-.07-.31-1.74-7.57-10.66-7.57-9.14 0-10.89 7.27-10.96 7.58-.12.54-.66.87-1.19.76-.54-.12-.88-.65-.76-1.19.02-.09 2.13-9.15 12.91-9.15 10.58 0 12.6 9.07 12.62 9.16.11.54-.23 1.07-.77 1.18-.08.02-.14.02-.21.02z"/></g><g><path d="m30.84 43.1c-.44 0-.84-.29-.96-.74-.04-.14-1.05-3.57-5.22-3.57-4.57 0-5.34 3.37-5.37 3.52-.11.54-.65.89-1.19.77-.54-.11-.89-.65-.77-1.19.37-1.76 2.38-5.1 7.32-5.1 4.59 0 6.69 3.3 7.16 5.05.14.53-.17 1.08-.71 1.22-.09.03-.17.04-.26.04z"/></g><g><path d="m41.33 43.1c-.51 0-.94-.38-.99-.9-.05-.46-1.39-11.39-15.56-11.39-14.2 0-15.92 10.96-15.98 11.43-.08.55-.58.93-1.13.85s-.93-.58-.85-1.12c.02-.13 1.98-13.16 17.96-13.16 16.01 0 17.54 13.06 17.55 13.19.06.55-.34 1.04-.89 1.1-.04 0-.07 0-.11 0z"/></g><g><path d="m59.23 43.1c-.39 0-.76-.23-.92-.62-2.16-5.21-5.28-8.57-9.26-9.99-6.33-2.26-12.86 1.18-12.92 1.22-.49.26-1.09.08-1.35-.41s-.08-1.09.4-1.35c.3-.16 7.34-3.89 14.53-1.35 4.54 1.61 8.06 5.35 10.45 11.11.21.51-.03 1.1-.54 1.31-.13.06-.26.08-.39.08z"/></g><g><path d="m54.58 43.1c-.39 0-.75-.22-.92-.6-1.37-3.15-3.35-5.24-5.89-6.21-4.22-1.63-8.67.35-8.72.37-.5.23-1.1.01-1.32-.5-.23-.5-.01-1.09.49-1.32.21-.1 5.23-2.35 10.25-.42 3.07 1.17 5.43 3.62 7.03 7.29.22.51-.01 1.1-.52 1.32-.13.05-.27.07-.4.07z"/></g><g><path d="m44.31 31.73c-.22 0-.44-.07-.62-.22-8.04-6.4-14.78-.97-15.07-.74-.42.35-1.05.3-1.41-.13-.35-.42-.3-1.05.13-1.41.08-.07 8.25-6.73 17.59.71.43.34.5.97.16 1.41-.2.25-.49.38-.78.38z"/></g><g><path d="m49.95 32.78c-.42 0-.82-.27-.95-.7-.1-.29-2.49-7.24-12.79-7.71-10.05-.44-13.7 5.87-13.85 6.13-.27.48-.88.65-1.36.38s-.66-.87-.39-1.36c.17-.31 4.36-7.68 15.69-7.16 11.74.53 14.49 8.75 14.6 9.1.17.53-.12 1.09-.65 1.26-.1.04-.2.06-.3.06z"/></g><g><path d="m48.99 43.1c-.39 0-.77-.24-.93-.62-1.8-4.44-7.05-2.65-7.27-2.57-.52.18-1.09-.09-1.28-.61s.08-1.09.6-1.28c2.51-.9 7.77-1.28 9.8 3.7.21.51-.04 1.1-.55 1.3-.11.06-.24.08-.37.08z"/></g><g><path d="m18.99 31.5c-.55 0-1-.45-1-1v-17.29c0-.55.45-1 1-1s1 .45 1 1v17.29c0 .56-.45 1-1 1z"/></g><g><path d="m22.51 29.63c-.55 0-1-.45-1-1v-15.42c0-.55.45-1 1-1s1 .45 1 1v15.42c0 .55-.45 1-1 1z"/></g><g><path d="m25.98 26.73c-.55 0-1-.45-1-1v-12.52c0-.55.45-1 1-1s1 .45 1 1v12.52c0 .56-.45 1-1 1z"/></g></g></svg>