<svg id="Layer_1" enable-background="new 0 0 512 512" viewBox="0 0 512 512" xmlns="http://www.w3.org/2000/svg"><g><g><g><path clip-rule="evenodd" d="m126.49 388.264 4.251 53.881c.072.906-.227 1.715-.869 2.358l-44.352 44.352c-.796.796-1.074 1.885-.757 2.966.317 1.08 1.138 1.846 2.238 2.087 29.08 6.355 60.688-1.767 83.299-24.377 26.21-26.21 32.953-64.508 20.242-96.946-.445-1.135-.191-2.354.671-3.215 59.385-59.385 118.771-118.771 178.157-178.157.862-.862 2.08-1.116 3.215-.671 32.438 12.71 70.736 5.967 96.946-20.243 22.611-22.61 30.732-54.218 24.377-83.299-.24-1.1-1.006-1.921-2.087-2.238s-2.17-.039-2.966.757l-44.352 44.352c-.643.643-1.451.941-2.358.869l-53.881-4.251c-1.482-.117-2.638-1.273-2.755-2.755l-4.251-53.881c-.071-.906.227-1.715.869-2.358l44.352-44.352c.796-.796 1.074-1.885.757-2.966-.317-1.08-1.138-1.846-2.238-2.087-29.081-6.355-60.688 1.766-83.299 24.377-26.21 26.21-32.953 64.508-20.242 96.946.445 1.135.191 2.354-.671 3.215-59.385 59.385-118.771 118.771-178.157 178.157-.862.862-2.08 1.116-3.215.671-32.438-12.711-70.736-5.967-96.946 20.242-22.61 22.61-30.732 54.218-24.377 83.299.24 1.1 1.006 1.921 2.087 2.238s2.169.039 2.966-.757l44.352-44.352c.643-.643 1.451-.941 2.358-.869l53.881 4.251c1.482.119 2.638 1.275 2.755 2.756z" fill="#cad0d7" fill-rule="evenodd"/></g></g><path clip-rule="evenodd" d="m342.934 454.441c0 3.873-3.153 7.002-7.011 7.002h-21.786c-3.906 0-7.011-3.129-7.011-7.002 0-3.858 3.106-6.997 7.011-6.997h21.786c3.859 0 7.011 3.139 7.011 6.997zm-41.549-41.549v21.819c0 3.873-3.153 7.002-7.011 7.002s-7.011-3.129-7.011-7.002v-21.819c0-3.859 3.153-6.997 7.011-6.997s7.011 3.138 7.011 6.997zm0 61.294v21.819c0 3.858-3.153 6.997-7.011 6.997s-7.011-3.139-7.011-6.997v-21.819c0-3.873 3.153-7.002 7.011-7.002s7.011 3.129 7.011 7.002zm140.318-159.103c0 3.872-3.106 7.002-6.964 7.002h-21.834c-3.858 0-7.011-3.129-7.011-7.002 0-3.868 3.153-7.002 7.011-7.002h21.834c3.859 0 6.964 3.134 6.964 7.002zm19.764-41.555v21.819c0 3.868-3.153 7.007-7.011 7.007s-7.011-3.139-7.011-7.007v-21.819c0-3.863 3.153-6.997 7.011-6.997s7.011 3.134 7.011 6.997zm-179.845 180.913c0 3.873-3.106 7.002-6.964 7.002h-21.834c-3.859 0-7.011-3.129-7.011-7.002 0-3.858 3.153-6.997 7.011-6.997h21.834c3.858 0 6.964 3.139 6.964 6.997zm179.845-119.628v21.819c0 3.873-3.153 7.002-7.011 7.002s-7.011-3.129-7.011-7.002v-21.819c0-3.858 3.153-7.002 7.011-7.002s7.011 3.143 7.011 7.002zm41.549-19.73c0 3.872-3.153 7.002-7.011 7.002h-21.834c-3.858 0-6.964-3.129-6.964-7.002 0-3.868 3.106-7.002 6.964-7.002h21.834c3.859 0 7.011 3.134 7.011 7.002zm-494.032-118.165c0-3.868 3.153-7.002 7.011-7.002h21.834c3.859 0 7.011 3.134 7.011 7.002 0 3.863-3.153 6.997-7.011 6.997h-21.834c-3.859 0-7.011-3.134-7.011-6.997zm221.395-139.369c0-3.863 3.106-6.997 7.011-6.997h21.787c3.858 0 7.011 3.134 7.011 6.997 0 3.868-3.153 7.002-7.011 7.002h-21.787c-3.906 0-7.011-3.134-7.011-7.002zm-19.764 41.555v-21.819c0-3.863 3.153-7.002 7.011-7.002s7.011 3.139 7.011 7.002v21.819c0 3.868-3.153 7.002-7.011 7.002s-7.011-3.134-7.011-7.002zm0-61.289v-21.815c0-3.868 3.153-7.002 7.011-7.002s7.011 3.134 7.011 7.002v21.815c0 3.868-3.153 7.002-7.011 7.002s-7.011-3.134-7.011-7.002zm-160.081 139.367v-21.819c0-3.868 3.153-7.002 7.011-7.002s7.011 3.134 7.011 7.002v21.819c0 3.863-3.153 7.002-7.011 7.002s-7.011-3.138-7.011-7.002zm118.532-119.633c0-3.863 3.153-6.997 7.011-6.997h21.834c3.858 0 7.011 3.134 7.011 6.997 0 3.868-3.153 7.002-7.011 7.002h-21.834c-3.859 0-7.011-3.134-7.011-7.002zm-98.769 139.369c0-3.868 3.106-7.002 7.011-7.002h21.786c3.858 0 7.011 3.134 7.011 7.002 0 3.863-3.153 6.997-7.011 6.997h-21.786c-3.906 0-7.011-3.134-7.011-6.997zm-19.763 41.549v-21.815c0-3.868 3.153-7.002 7.011-7.002s7.011 3.134 7.011 7.002v21.815c0 3.868-3.153 7.002-7.011 7.002s-7.011-3.134-7.011-7.002zm290.048-67.03c2.729 2.734 2.729 7.166 0 9.9l-159.235 159.226c-1.365 1.36-3.153 2.051-4.941 2.051s-3.576-.692-4.941-2.051c-2.729-2.739-2.729-7.171 0-9.901l159.188-159.225c2.729-2.734 7.199-2.734 9.929 0zm25.222 13.42c2.023-2.005 5.035-2.602 7.67-1.511 31.339 13.072 67.101 6.009 91.099-17.999 18.352-18.347 26.963-44.081 23.763-69.42l-39.856 39.875c-1.459 1.445-3.435 2.178-5.505 2.023l-57.831-4.56c-3.388-.273-6.117-2.993-6.4-6.428l-4.564-57.812c-.141-2.042.565-4.051 2.023-5.501l39.856-39.875c-25.316-3.181-51.055 5.421-69.406 23.768-23.998 24.008-31.056 59.77-17.975 91.113 1.082 2.621.471 5.637-1.553 7.646l-180.928 180.967c-2.023 2-5.035 2.602-7.67 1.51-31.339-13.081-67.101-6.009-91.099 17.999-18.352 18.342-26.963 44.081-23.763 69.421l39.856-39.87c1.459-1.449 3.435-2.188 5.506-2.028l57.831 4.56c3.435.268 6.164 2.997 6.399 6.428l4.564 57.812c.188 2.038-.565 4.047-2.023 5.501l-39.856 39.87c25.316 3.176 51.055-5.421 69.406-23.763 23.998-24.008 31.056-59.769 18.022-91.118-1.082-2.612-.518-5.633 1.506-7.642zm108.697-9.608c24.892-24.897 34.397-61.445 24.845-95.376-.659-2.39-2.588-4.245-4.988-4.87-2.4-.631-4.941.061-6.682 1.821l-46.82 46.792-48.655-3.835-3.811-48.641 46.773-46.792c1.788-1.755 2.494-4.31 1.835-6.715-.612-2.405-2.494-4.296-4.847-4.974-33.974-9.566-70.489-.038-95.381 24.859-26.916 26.915-35.621 66.484-22.775 101.987l-174.48 174.509c-35.527-12.86-75.053-4.183-101.968 22.737-24.94 24.901-34.445 61.44-24.892 95.371.706 2.39 2.588 4.249 4.988 4.87 2.4.631 4.941-.061 6.729-1.821l46.773-46.787 48.655 3.84 3.812 48.627-46.773 46.801c-1.741 1.75-2.447 4.31-1.835 6.71.612 2.409 2.494 4.301 4.894 4.969 8.705 2.461 17.599 3.661 26.398 3.661 25.551 0 50.443-10.009 68.983-28.511 26.916-26.92 35.574-66.489 22.728-101.987l174.481-174.504c35.524 12.856 75.097 4.174 102.013-22.741z" fill-rule="evenodd"/></g></svg>