<svg height="512" viewBox="0 0 128 128" width="512" xmlns="http://www.w3.org/2000/svg"><g><path d="m77.257 6.307h-26.514a4 4 0 0 0 -4 4v24.919a10 10 0 0 0 4.768 8.521l8.863 5.443v27.364a6.632 6.632 0 0 1 7.241 0h.006v-27.364l8.863-5.443a10 10 0 0 0 4.768-8.521v-24.919a4 4 0 0 0 -3.995-4z" fill="#f3f5e6"/><path d="m64 121.693a6.652 6.652 0 0 1 -6.652-6.651v-32.913a6.652 6.652 0 0 1 6.652-6.651 6.651 6.651 0 0 1 6.651 6.651v32.913a6.651 6.651 0 0 1 -6.651 6.651z" fill="#fa7578"/><g><path d="m62.25 14.565v18a1.75 1.75 0 1 0 3.5 0v-18a1.75 1.75 0 1 0 -3.5 0z"/><path d="m53.622 14.565v18a1.75 1.75 0 0 0 3.5 0v-18a1.75 1.75 0 1 0 -3.5 0z"/><path d="m70.878 14.565v18a1.75 1.75 0 0 0 3.5 0v-18a1.75 1.75 0 1 0 -3.5 0z"/><path d="m57.349 98.053a1.75 1.75 0 0 0 1.751-1.753v-4.5a1.75 1.75 0 0 0 -3.5 0v4.5a1.749 1.749 0 0 0 1.749 1.753z"/><path d="m81.257 17.964a1.749 1.749 0 0 0 1.75-1.75v-5.907a5.756 5.756 0 0 0 -5.75-5.75h-26.514a5.757 5.757 0 0 0 -5.75 5.75v24.919a11.823 11.823 0 0 0 5.6 10.012l8.028 4.93v25.512a8.385 8.385 0 0 0 -3.021 6.449 1.75 1.75 0 0 0 3.5 0 4.9 4.9 0 1 1 9.8 0v32.913a4.9 4.9 0 1 1 -9.8 0v-9.5a1.75 1.75 0 0 0 -3.5 0v9.5a8.4 8.4 0 1 0 16.8 0v-32.913a8.385 8.385 0 0 0 -3.025-6.449v-25.511l8.029-4.931a11.825 11.825 0 0 0 5.6-10.012v-9.649a1.75 1.75 0 1 0 -3.5 0v9.649a8.3 8.3 0 0 1 -3.934 7.03l-8.86 5.444a1.75 1.75 0 0 0 -.834 1.492v24.754a8.181 8.181 0 0 0 -3.752 0v-24.756a1.752 1.752 0 0 0 -.834-1.49l-8.863-5.442a8.3 8.3 0 0 1 -3.934-7.03v-24.921a2.252 2.252 0 0 1 2.25-2.25h26.514a2.253 2.253 0 0 1 2.25 2.25v5.907a1.749 1.749 0 0 0 1.75 1.75z"/></g></g></svg>