<svg height="512" viewBox="0 0 128 128" width="512" xmlns="http://www.w3.org/2000/svg"><g><g><path d="m7.818 120.182a4.5 4.5 0 0 1 0-6.364l76.132-76.132 6.364 6.364-76.132 76.132a4.5 4.5 0 0 1 -6.364 0z" fill="#f2a66c"/><path d="m18.167 102.333h9v6h-9z" fill="#663325" transform="matrix(-.707 -.707 .707 -.707 -35.786 195.842)"/><path d="m88.233 27.764h6a3 3 0 0 1 3 3v15.007a0 0 0 0 1 0 0h-12a0 0 0 0 1 0 0v-15.007a3 3 0 0 1 3-3z" fill="#d58559" transform="matrix(-.707 -.707 .707 -.707 129.747 127.277)"/><path d="m13.925 106.575h9v6h-9z" fill="#4f2217" transform="matrix(-.707 -.707 .707 -.707 -46.029 200.085)"/><path d="m78.245 42.255h9v6h-9z" fill="#663325" transform="matrix(-.707 -.707 .707 -.707 109.255 135.764)"/><path d="m74.002 46.498h9v6h-9z" fill="#4f2217" transform="matrix(-.707 -.707 .707 -.707 99.012 140.007)"/><path d="m89.109 30.406 17.542-21.785 14.849-2.121-2.121 14.849-21.785 17.542z" fill="#f9d42f"/></g><g fill="#102a3f"><path d="m32.173 91.217a1.743 1.743 0 0 0 1.237-.517l2.912-2.912a1.749 1.749 0 0 0 -2.474-2.474l-2.913 2.916a1.75 1.75 0 0 0 1.238 2.987z"/><path d="m68.143 63.743-40.175 40.174-3.885-3.886 4.669-4.668a1.75 1.75 0 0 0 -2.475-2.474l-19.695 19.694a6.247 6.247 0 0 0 8.835 8.834l55.2-55.2a1.749 1.749 0 0 0 -2.474-2.474zm-50.777 43.006 3.885 3.885-1.768 1.766-3.883-3.884zm8.128-.357-1.768 1.767-3.885-3.885 1.767-1.768zm-12.551 12.55a2.747 2.747 0 1 1 -3.886-3.885l4.066-4.066 3.885 3.886z"/><path d="m122.737 5.263a1.74 1.74 0 0 0 -1.485-.5l-14.852 2.126a1.751 1.751 0 0 0 -1.115.635l-17.503 21.739-6.264 6.264a4.7 4.7 0 0 0 -1.4 3.363c0 .05.013.1.014.146l-42.12 42.117a1.75 1.75 0 1 0 2.475 2.475l32.713-32.714 3.887 3.886-2.662 2.66a1.75 1.75 0 1 0 2.475 2.475l12.064-12.064c.049 0 .1.014.146.014a4.694 4.694 0 0 0 3.357-1.4l6.267-6.267 8.235-6.631a1.75 1.75 0 1 0 -2.195-2.726l-7.053 5.679-6.263-6.263 16.123-20.023 11.856-1.693-1.693 11.856-5.842 4.7a1.75 1.75 0 1 0 2.195 2.726l6.38-5.137a1.745 1.745 0 0 0 .634-1.115l2.121-14.849a1.747 1.747 0 0 0 -.495-1.479zm-38.937 42.819-3.882-3.882 1.772-1.771 3.885 3.885zm-8.128.357 1.768-1.768 3.885 3.885-1.768 1.768zm19.441-9.551-5.13 5.13a1.258 1.258 0 0 1 -1.76-.005l-4.245-4.246a1.233 1.233 0 0 1 0-1.76l5.125-5.124z"/><path d="m109.182 15.046a1.751 1.751 0 0 0 -2.461.265l-4 4.967a1.75 1.75 0 1 0 2.726 2.2l4-4.967a1.749 1.749 0 0 0 -.265-2.465z"/></g></g></svg>