<svg enable-background="new 0 0 32 32" viewBox="0 0 32 32" xmlns="http://www.w3.org/2000/svg"><g id="Grid" display="none"/><g id="coin"/><g id="bomb"/><g id="gem"/><g id="ufo"/><g id="medal"/><g id="viking_helmet"/><g id="sword"/><g id="rocket"/><g id="torch"/><g id="spear"><path d="m2.836 29.164c-1.114-1.114-1.114-2.921 0-4.035l12.099-12.099 4.035 4.035-12.099 12.099c-1.114 1.115-2.921 1.115-4.035 0z" fill="#d39a62"/><path d="m18.97 17.061-12.099 12.098c-1.117 1.117-2.92 1.124-4.038.007-.226-.226-.41-.481-.537-.75 1.068.516 2.39.339 3.281-.552l12.099-12.099z" fill="#c68c58"/><path d="m19.188 17.284-4.472-4.472c-.748-.748-.748-1.962 0-2.71.748-.748 1.962-.748 2.71 0l4.472 4.472c.748.748.748 1.962 0 2.71-.749.748-1.962.748-2.71 0z" fill="#ffd731"/><path d="m21.898 17.287c-.375.375-.87.559-1.351.559-.495 0-.983-.191-1.358-.566l-1.697-1.697c.368.368.856.559 1.351.559.488.007.976-.184 1.351-.559.75-.75.75-1.966.007-2.708l1.697 1.697c.749.749.749 1.965 0 2.715z" fill="#ffc933"/><path d="m22.006 14.683 4.664-.473c.742-.075 1.345-.632 1.48-1.365l1.838-9.993c.091-.496-.343-.93-.839-.839l-9.993 1.837c-.734.135-1.29.738-1.365 1.48l-.473 4.664z" fill="#efefef"/><path d="m27.385 14.133-5.374.552-1.86-1.86c3.507-.356 6.357-2.985 6.996-6.452l.761-4.134 1.244-.226c.488-.092.926.346.834.834l-1.966 10.706c-.055.312-.31.552-.635.58z" fill="#ddd"/><path d="m30.09 1.911c-.268-.268-.647-.386-1.018-.317l-9.994 1.838c-.913.168-1.616.931-1.71 1.855l-.408 4.017c-.848-.332-1.88-.166-2.545.498-.884.885-.903 2.303-.073 3.22l-11.807 11.807c-.619.619-.96 1.442-.96 2.318s.341 1.699.96 2.318c.619.62 1.442.96 2.318.96s1.698-.341 2.317-.96l11.806-11.806c.431.391.979.612 1.566.612.625 0 1.213-.244 1.655-.686.687-.687.855-1.698.508-2.546l4.006-.406c.925-.094 1.688-.797 1.855-1.711l1.837-9.993c.071-.371-.047-.752-.313-1.018zm-23.52 26.953c-.916.917-2.517.917-3.433 0-.459-.459-.712-1.069-.712-1.717s.253-1.258.712-1.717l11.798-11.798 3.434 3.434zm15.027-11.88c-.564.564-1.548.562-2.108 0l-4.472-4.472c-.581-.582-.581-1.527 0-2.109.281-.282.656-.437 1.055-.437.398 0 .772.155 1.054.437l4.472 4.472c.58.581.58 1.527-.001 2.109zm6.136-4.216c-.1.544-.555.963-1.105 1.019l-4.463.453-1.901-1.901 5.548-5.548c.166-.166.166-.435 0-.601s-.436-.166-.602 0l-5.547 5.547-1.901-1.901.453-4.463c.056-.551.475-1.005 1.019-1.105l9.994-1.838c.137-.026.229.048.262.082.033.033.106.125.081.263z"/><g fill="#fff"><path d="m24.998 4.225-2.874.528c-.23.042-.383.264-.341.495.039.205.217.348.418.348.025 0 .051-.002.077-.007l2.874-.528c.23-.042.383-.264.341-.495-.043-.232-.259-.386-.495-.341z"/><path d="m20.403 5.069-.16.03c-.23.043-.383.265-.34.496.038.205.217.348.418.348.025 0 .052-.002.078-.007l.16-.03c.23-.043.383-.265.34-.496s-.262-.385-.496-.341z"/></g></g><g id="money_bag"/><g id="crown"/><g id="heart"/><g id="skull"/><g id="star"/><g id="shield"/><g id="crystal"/><g id="gift"/><g id="map"/><g id="poison"/><g id="axe"/><g id="fried_chicken"/><g id="witch_hat"/><g id="fire"/><g id="lightning"/></svg>