<svg enable-background="new 0 0 32 32" viewBox="0 0 32 32" xmlns="http://www.w3.org/2000/svg"><g id="Grid" display="none"/><g id="bow_tie"/><g id="balloon_1_"/><g id="placeholder"/><g id="mic"/><g id="speaker"><path d="m5.015 6.302c.569-2.226 2.486-3.831 4.775-4.031 1.888-.165 3.967-.271 6.21-.271 1.821 0 3.915.07 6.229.272 2.28.199 4.192 1.821 4.758 4.038.607 2.376 1.123 5.133 1.409 8.261.25 2.74.352 6.083.074 9.983-.185 2.601-2.171 4.742-4.763 5.025-2.842.313-5.441.421-7.707.421-2.795 0-5.367-.164-7.677-.415-2.607-.284-4.607-2.415-4.793-5.03-.278-3.899-.176-7.242.074-9.981.286-3.134.803-5.894 1.411-8.272z" fill="#9487d8"/><path d="m28.47 24.56c-.19 2.6-2.17 4.74-4.76 5.02-1.11.12-2.19.21-3.22.28 2.39-.51 4.17-2.58 4.35-5.08.29-4 .18-7.43-.08-10.25-.29-3.21-.82-6.04-1.44-8.48-.5-1.94-2.01-3.45-3.91-3.97.89.04 1.84.11 2.82.19 2.28.2 4.19 1.82 4.76 4.04.6 2.38 1.12 5.13 1.41 8.26.25 2.74.35 6.09.07 9.99z" fill="#7e76ce"/><path d="m23.11 8.301c-.446 0-.854-.301-.968-.754-.041-.161-.181-.279-.349-.293-3.83-.335-7.731-.337-11.569-.002-.176.016-.326.133-.365.287-.136.535-.681.855-1.215.722-.536-.136-.859-.681-.722-1.216.249-.979 1.105-1.696 2.129-1.785 3.953-.344 7.974-.344 11.917.002 1.013.088 1.862.808 2.112 1.793.137.535-.188 1.079-.723 1.215-.082.021-.165.031-.247.031z" fill="#ffd731"/><path d="m28.776 20.625h-25.552c-.59 0-1.068-.478-1.068-1.068v-2.365c0-.59.478-1.068 1.068-1.068h25.552c.59 0 1.068.478 1.068 1.068v2.365c0 .59-.478 1.068-1.068 1.068z" fill="#ffd731"/><path d="m29.84 17.19v2.37c0 .59-.47 1.06-1.06 1.06h-3.72c.59 0 1.06-.47 1.06-1.06v-2.37c0-.59-.47-1.07-1.06-1.07h3.72c.59 0 1.06.48 1.06 1.07z" fill="#ffc933"/><circle cx="16" cy="18.375" fill="#efefef" r="8"/><path d="m24 18.38c0 4.41-3.58 8-8 8-1.2 0-2.34-.27-3.36-.74 4.52-.31 8.08-4.06 8.08-8.66 0-2.51-1.07-4.77-2.77-6.36 3.48.87 6.05 4.01 6.05 7.76z" fill="#ddd"/><circle cx="16" cy="18.375" fill="#3a3a3a" r="5.656"/><path d="m21.66 18.38c0 3.12-2.54 5.65-5.66 5.65-.28 0-.56-.02-.83-.07 2.34-.99 3.99-3.31 3.99-6.01 0-2.13-1.02-4.02-2.6-5.2 2.86.28 5.1 2.69 5.1 5.63z" fill="#333"/><circle cx="16" cy="18.375" fill="#efefef" r="1.781"/><path d="m5.728 12.279c.021.003.042.005.063.005.207 0 .389-.152.42-.364.148-1.016.329-2.029.534-3.009.048-.23-.099-.455-.329-.503-.233-.048-.456.099-.504.328-.209.997-.392 2.027-.544 3.061-.033.232.127.448.36.482z" fill="#b6b5e2"/><path d="m5.469 14.523c.014.001.027.002.042.002.216 0 .4-.164.422-.383l.014-.142c.027-.233-.14-.444-.373-.472-.229-.023-.443.14-.471.373l-.017.158c-.023.233.148.441.383.464z" fill="#b6b5e2"/><path d="m8.541 8.674c.764.187 1.536-.273 1.721-.999 3.808-.332 7.678-.332 11.468-.024.16.633.727 1.075 1.379 1.075h.001c.12 0 .238-.015.352-.043.369-.094.68-.326.874-.653s.25-.711.156-1.079c-.295-1.16-1.294-2.009-2.487-2.112-3.97-.349-8.004-.349-11.991-.002-1.204.104-2.21.949-2.504 2.103-.195.761.267 1.539 1.031 1.734zm-.207-1.524c.204-.804.909-1.394 1.754-1.467 3.938-.343 7.923-.342 11.843.002.834.072 1.532.665 1.737 1.475.038.149.016.303-.063.435s-.204.226-.354.264c-.045.012-.093.018-.142.018-.001 0-.001 0-.001 0-.263 0-.49-.178-.555-.434-.086-.336-.377-.582-.724-.612-1.938-.169-3.887-.254-5.836-.254-1.941 0-3.882.084-5.809.252-.356.031-.653.275-.737.605-.079.305-.395.487-.698.416-.308-.079-.494-.393-.415-.7z"/><path d="m28.914 15.709c-.03-.399-.06-.795-.091-1.178-.261-2.817-.739-5.618-1.421-8.327-.614-2.391-2.678-4.142-5.136-4.357-2.087-.18-4.197-.272-6.266-.272-2.047 0-4.09.089-6.247.271-2.476.217-4.543 1.965-5.146 4.348-.685 2.677-1.166 5.481-1.432 8.342-.03.378-.06.774-.09 1.173-.755.069-1.35.703-1.35 1.481v2.37c0 .728.528 1.332 1.22 1.458.017 1.173.065 2.368.151 3.562.205 2.841 2.379 5.122 5.166 5.422 2.493.28 5.093.422 7.728.422 2.579 0 5.188-.142 7.756-.422 2.771-.3 4.931-2.576 5.138-5.412.087-1.204.135-2.401.151-3.573.692-.126 1.22-.73 1.22-1.458v-2.37c0-.777-.596-1.411-1.351-1.48zm-23.482-9.305c.514-2.034 2.28-3.525 4.395-3.71 2.131-.181 4.151-.269 6.173-.269 2.046 0 4.129.09 6.193.269 2.099.185 3.86 1.68 4.385 3.721.671 2.665 1.143 5.422 1.398 8.189.028.352.056.723.084 1.092h-4.08c-1.122-3.335-4.272-5.746-7.98-5.746s-6.858 2.411-7.98 5.745h-4.08c.028-.368.056-.739.083-1.086.26-2.81.734-5.57 1.409-8.205zm18.143 11.971c0 4.177-3.398 7.575-7.575 7.575s-7.575-3.398-7.575-7.575 3.398-7.575 7.575-7.575 7.575 3.398 7.575 7.575zm-20.99 1.185v-2.37c0-.355.285-.645.635-.645h4.562c-.131.59-.206 1.201-.206 1.83 0 .625.074 1.233.204 1.82h-4.56c-.356 0-.635-.279-.635-.635zm21.079 9.598c-5.129.559-10.423.547-15.298 0-2.381-.257-4.236-2.208-4.412-4.639-.085-1.165-.131-2.329-.149-3.474h4.211c1.12 3.339 4.272 5.755 7.984 5.755s6.864-2.416 7.984-5.755h4.211c-.017 1.143-.064 2.31-.149 3.484-.177 2.427-2.02 4.373-4.382 4.629zm5.751-9.598c0 .356-.279.635-.635.635h-4.559c.13-.587.204-1.195.204-1.82 0-.629-.075-1.24-.206-1.83h4.562c.35 0 .635.29.635.645v2.37z"/><path d="m16 12.294c-3.354 0-6.081 2.728-6.081 6.081s2.728 6.081 6.081 6.081 6.081-2.728 6.081-6.081-2.727-6.081-6.081-6.081zm0 11.312c-2.885 0-5.231-2.347-5.231-5.231s2.347-5.231 5.231-5.231 5.231 2.347 5.231 5.231-2.346 5.231-5.231 5.231z"/><path d="m14.792 14.74c-.1-.212-.351-.305-.564-.207-.793.367-1.445.961-1.887 1.719-.118.203-.05.463.153.581.067.039.141.058.214.058.146 0 .288-.076.367-.211.348-.597.884-1.085 1.51-1.375.213-.099.306-.351.207-.565z" fill="#515151"/><path d="m16 16.169c-1.217 0-2.206.99-2.206 2.206s.989 2.206 2.206 2.206 2.206-.99 2.206-2.206-.989-2.206-2.206-2.206zm0 3.562c-.748 0-1.356-.608-1.356-1.356s.608-1.356 1.356-1.356 1.356.608 1.356 1.356-.608 1.356-1.356 1.356z"/></g><g id="champagne"/><g id="gift"/><g id="theater"/><g id="_camera"/><g id="video_camera"/><g id="party_hat"/><g id="champagne_glass"/><g id="man"/><g id="woman"/><g id="skewer"/><g id="ticket"/><g id="cake"/><g id="lights"/><g id="photo"/><g id="invitation"/></svg>