<svg id="color_Line_copy" enable-background="new 0 0 512 512" height="512" viewBox="0 0 512 512" width="512" xmlns="http://www.w3.org/2000/svg"><path d="m155.454 474.358c-6.474-3.738 3.49-33.115 7.227-39.589l39.935-69.169 23.444 13.535-39.935 69.17c-3.737 6.474-24.197 29.791-30.671 26.053z" fill="#b22d28"/><path d="m392.643 41.561 19.015 10.979c5.311 3.066 7.13 9.857 4.064 15.168l-61.682 106.831-38.248-22.083 61.682-106.832c3.067-5.311 9.857-7.13 15.169-4.063z" fill="#b22d28"/><path d="m372.011 361.344c-44.327 76.776-163.916 90.718-193.742 73.498s-77.547-127.758-33.22-204.534z" fill="#2a8bbe"/><path d="m98.672 162.7c-34.583 8.641-55.614 43.681-46.972 78.265.177.708.366 1.412.566 2.113 7.228 25.256 23.986 46.716 46.737 59.851l233.141 134.604c22.751 13.135 49.714 16.918 75.201 10.549 34.583-8.641 55.614-43.681 46.972-78.265-.177-.708-.366-1.412-.566-2.113-7.228-25.256-23.986-46.716-46.737-59.851l-233.141-134.604c-22.751-13.135-49.715-16.917-75.201-10.549z" fill="#56cc56"/><g fill="#0e5f87"><path d="m432.201 329.773-28.163-42.198c-19.414-29.089-26.815-64.563-20.653-98.988l.643-3.59c2.01-11.228-3.233-22.511-13.112-28.214l-48.165-27.808c-9.878-5.703-22.271-4.603-30.99 2.752l-2.787 2.351c-26.732 22.55-61.154 33.877-96.053 31.609l-50.626-3.291 87.06 50.264-10.628 18.407 115.785 66.849 10.628-18.407z"/><path d="m266.406 282.182-1.628 24.966 19.644 15.496-24.248 6.166-8.666 23.468-13.358-21.154-24.998-.99 15.992-19.24-6.784-24.082 23.24 9.264z"/><path d="m148.608 214.172-1.628 24.966 19.642 15.494-24.246 6.166-8.666 23.47-13.358-21.156-24.998-.99 15.992-19.24-6.784-24.08 23.24 9.264z"/><path d="m384.206 350.194-1.63 24.966 19.644 15.494-24.248 6.166-8.666 23.47-13.356-21.156-25-.99 15.992-19.24-6.784-24.08 23.24 9.264z"/></g><path d="m381.416 218.618-117.465-67.818c-16.408 8.498-34.383 13.546-52.816 14.834l183.842 106.141c-8.101-16.607-12.716-34.698-13.561-53.157z" fill="#56cc56"/><path d="m399.562 267.476c-11.452-24.246-15.042-51.464-10.27-77.85l.643-3.59c2.408-13.612-3.883-27.29-15.785-34.321l46.78-81.025c4.722-8.181 1.92-18.64-6.26-23.364l-19.016-10.979c-8.181-4.722-18.64-1.92-23.364 6.26l-46.78 81.024c-12.039-6.792-27.029-5.402-37.613 3.489l-2.79 2.352c-20.464 17.327-45.831 27.827-72.554 30.032l-8.015.4c-3.725.077-7.468.02-11.225-.224l-44.215-2.871c-17.035-4.246-34.854-4.228-51.88.052-37.799 9.446-60.784 47.745-51.338 85.544.193.772.399 1.541.618 2.306 7.606 26.778 25.37 49.526 49.505 63.396l26.103 15.07c1.151 11.201 3.135 22.3 5.937 33.206 7.143 27.808 19.551 53.937 32.509 70.061l-3.064 5.307c-3.518 7.131-6.225 14.634-8.069 22.369-3.565 14.307-2.629 22.145 3.038 25.416 1.403.822 3.001 1.252 4.627 1.246 4.919 0 10.975-3.67 18.901-11.323 5.776-5.465 10.92-11.561 15.338-18.173l3.062-5.303c6.481.951 13.025 1.409 19.576 1.37 19.399-.204 38.685-2.978 57.355-8.25 10.845-3.027 21.45-6.858 31.726-11.462l26.102 15.07c24.082 13.959 52.662 17.968 79.655 11.174 37.799-9.445 60.784-47.744 51.339-85.542-.193-.773-.399-1.542-.618-2.308h.002c-4.807-16.884-13.701-32.324-25.894-44.953l-24.597-36.855c-2.09-3.131-4.011-6.344-5.807-9.608zm-16.882-218.866c1.409-2.441 4.53-3.277 6.972-1.868l19.016 10.979c2.441 1.409 3.277 4.531 1.868 6.972l-46.774 81.015-27.855-16.082zm-89.839 90.038 2.79-2.352c6.792-5.708 16.428-6.564 24.12-2.142l48.165 27.808c7.675 4.451 11.752 13.223 10.205 21.96l-.643 3.59c-1.22 6.818-1.942 13.717-2.16 20.64l-99.272-57.314c5.888-3.65 11.5-7.724 16.795-12.19zm-29.057 18.967 111.797 64.546c.83 12.127 3.234 24.095 7.153 35.601l-153.36-88.542c11.925-2.359 23.492-6.26 34.41-11.605zm-71.252 14.043c5.709.358 11.434.374 17.144.046l180.758 104.361c2.572 5.11 5.448 10.06 8.613 14.825l13.896 20.82-64.802-37.414c-2.87-1.657-6.539-.674-8.196 2.196l-7.628 13.212-105.393-60.849 7.628-13.212c1.657-2.87.674-6.539-2.196-8.196l-64.802-37.413zm-11.603 273.63c-3.264 5.652-15.511 18.754-21.68 22.48.142-7.206 5.365-24.362 8.63-30.016l1.269-2.198c3.762 3.415 8.211 5.986 13.049 7.538zm87.16-17.741c-39.597 11.047-74.287 9.318-86.82 2.083s-31.377-36.414-41.607-76.23c-1.921-7.484-3.441-15.065-4.553-22.712l154.925 89.446c-7.177 2.861-14.503 5.335-21.945 7.413zm-46.929-212.707-7.628 13.212c-1.657 2.87-.674 6.539 2.196 8.196l115.785 66.849c2.87 1.657 6.539.674 8.196-2.196l7.628-13.212 82.945 47.711c8.139 9.996 14.16 21.543 17.698 33.939 4.424 15.254 2.406 31.653-5.583 45.38-7.893 13.782-21.086 23.729-36.508 27.525-23.974 6.043-49.361 2.482-70.747-9.924l-233.141-134.604c-21.436-12.319-37.213-32.523-43.968-56.307-8.896-31.085 9.091-63.495 40.175-72.392.636-.182 1.275-.353 1.916-.514 12.488-3.129 25.48-3.69 38.191-1.65z"/><path d="m288.136 317.916-17.166-13.541 1.424-21.817c.216-3.307-2.29-6.162-5.597-6.378-1.317-.086-2.626.265-3.723.998l-18.183 12.142-20.311-8.096c-3.078-1.227-6.568.274-7.795 3.352-.489 1.226-.559 2.578-.202 3.848l5.928 21.045-13.975 16.814c-2.118 2.549-1.769 6.332.78 8.449 1.015.843 2.279 1.328 3.597 1.381l21.847.865 11.673 18.488c1.099 1.741 3.014 2.796 5.072 2.797.21 0 .419-.011.628-.033 2.272-.238 4.211-1.746 5.002-3.889l7.574-20.511 21.188-5.389c3.211-.817 5.153-4.082 4.336-7.294-.324-1.278-1.062-2.414-2.097-3.231zm-29.44 5.062c-1.914.486-3.466 1.884-4.15 3.736l-4.455 12.064-6.866-10.875c-1.054-1.67-2.863-2.714-4.836-2.792l-12.852-.509 8.22-9.892c1.262-1.519 1.697-3.561 1.161-5.462l-3.487-12.379 11.947 4.762c1.834.732 3.911.513 5.554-.583l10.695-7.142-.837 12.833c-.129 1.971.721 3.879 2.271 5.102l10.098 7.966z"/><path d="m170.338 249.905-17.166-13.541 1.423-21.818c.216-3.307-2.29-6.162-5.597-6.378-1.317-.086-2.626.265-3.723.998l-18.184 12.143-20.31-8.096c-3.078-1.227-6.568.274-7.795 3.352-.489 1.226-.559 2.578-.202 3.848l5.929 21.045-13.976 16.814c-2.118 2.549-1.769 6.332.78 8.449 1.015.843 2.279 1.328 3.597 1.381l21.847.865 11.673 18.487c1.099 1.741 3.014 2.796 5.072 2.797.21 0 .419-.011.628-.033 2.272-.238 4.211-1.746 5.002-3.889l7.575-20.51 21.189-5.389c3.211-.817 5.153-4.082 4.336-7.294-.324-1.277-1.062-2.413-2.098-3.231zm-29.441 5.063c-1.914.486-3.466 1.884-4.15 3.736l-4.455 12.064-6.866-10.875c-1.054-1.67-2.863-2.714-4.836-2.792l-12.852-.509 8.222-9.892c1.262-1.519 1.697-3.561 1.161-5.462l-3.487-12.379 11.947 4.762c1.834.732 3.911.514 5.554-.583l10.696-7.143-.837 12.834c-.129 1.971.721 3.879 2.271 5.102l10.098 7.966z"/><path d="m405.935 385.927-17.166-13.54 1.424-21.818c.216-3.307-2.29-6.162-5.597-6.378-1.317-.086-2.626.265-3.723.998l-18.183 12.141-20.31-8.097c-3.078-1.227-6.568.274-7.795 3.352-.489 1.226-.559 2.578-.202 3.848l5.928 21.046-13.976 16.814c-2.118 2.549-1.769 6.332.78 8.449 1.015.843 2.279 1.328 3.597 1.381l21.847.864 11.674 18.488c1.099 1.741 3.014 2.796 5.072 2.797.21 0 .419-.011.628-.033 2.272-.238 4.211-1.746 5.002-3.889l7.573-20.511 21.189-5.389c3.211-.817 5.153-4.082 4.336-7.294-.325-1.277-1.062-2.413-2.098-3.229zm-29.441 5.062c-1.914.487-3.466 1.884-4.15 3.736l-4.454 12.064-6.867-10.875c-1.054-1.67-2.863-2.714-4.836-2.792l-12.851-.509 8.22-9.891c1.262-1.519 1.697-3.561 1.161-5.462l-3.487-12.38 11.947 4.762c1.834.732 3.911.513 5.554-.583l10.696-7.142-.838 12.834c-.129 1.971.721 3.879 2.271 5.102l10.097 7.965z"/></svg>