<svg clip-rule="evenodd" fill-rule="evenodd" height="512" image-rendering="optimizeQuality" shape-rendering="geometricPrecision" text-rendering="geometricPrecision" viewBox="0 0 512 512" width="512" xmlns="http://www.w3.org/2000/svg"><g id="Layer_x0020_1"><g id="_611615544"><g><path d="m257 401c-1 0-2 0-2 0l-188-95c-10-5-18-14-21-24-4-12-3-24 2-34l46-91c10-19 32-28 52-23 2 1 4 4 3 7-1 2-4 4-6 3-15-4-33 3-40 18l-46 91c-4 7-5 17-2 25 3 9 9 15 16 19l184 93 75-152-118-59c-3-2-4-5-3-7 2-3 5-4 7-2l123 62c3 1 4 4 2 6l-80 160c0 2-1 2-3 3z"/></g><g><path d="m303 407c-1 0-2-1-2-1l-39-19c-3-2-4-5-2-7 1-3 4-4 6-2l39 19c3 1 4 4 2 7 0 2-2 3-4 3zm66-131c-1 0-1 0-2-1l-39-19c-3-2-4-5-2-7 1-3 4-4 6-2l40 19c2 2 3 5 2 7s-3 3-5 3z"/></g><g><path d="m386 508c-4 0-7-2-10-4l-76-60c-10-8-13-19-9-29h1l82-162c4-9 15-13 28-10v1l93 24c5 2 8 5 11 9 3 6 3 14 0 21 0 0-1 1-1 1l-100 197c-3 6-9 10-15 12-1 0-3 0-4 0zm-80-72 76 60c2 2 4 2 6 2 3-1 7-4 9-7l100-197c1-4 2-9 0-13-1-2-2-3-4-3l-93-25c-3-1-14-3-17 4l-82 162c-3 6-1 12 5 17z"/></g><g><path d="m52 255c-1 0-2 0-2 0l-36-19c-3-2-4-5-2-7l46-91c1-3 4-4 6-2l37 18c3 1 4 4 3 6-2 3-5 4-7 3l-33-16-41 82 31 17c3 1 4 4 2 7 0 1-2 2-4 2z"/></g><g><path d="m34 72c-19 0-34-15-34-34s15-34 34-34h444c19 0 34 16 34 34s-16 33-34 33zm0-58c-13 0-24 11-24 24s11 24 24 24l444-1c13 0 24-10 24-23s-11-24-24-24z"/></g><g><path d="m179 263c-22 0-40-18-40-40v-155c0-3 2-5 5-5s5 2 5 5v155c0 16 14 30 30 30s30-14 30-30v-155c0-3 2-5 5-5s5 2 5 5v155c0 22-18 40-40 40z"/></g><g><path d="m179 233c-12 0-21-9-21-21 0-11 9-20 21-20s21 9 21 20c0 12-9 21-21 21zm0-31c-6 0-11 5-11 10 0 6 5 11 11 11s11-5 11-11c0-5-5-10-11-10z"/></g><g><path d="m43 182c-1 0-2 0-3-1-20-15-23-32-22-44 2-28 26-51 48-61 19-9 38-14 39-14 2 0 5 1 6 4 0 3-1 5-4 6 0 0-19 4-37 13-19 9-40 30-42 53-2 14 4 25 18 35 2 2 3 5 1 7-1 1-2 2-4 2z"/></g><g><path d="m179 202c-3 0-5-2-5-5v-68c0-3 2-5 5-5s5 2 5 5v68c0 3-2 5-5 5z"/></g><g><path d="m240 367c-1 0-2 0-2 0l-60-30c-1-1-2-2-3-3 0-2 0-3 1-4l33-64c1-2 4-3 6-2l59 29c1 0 2 1 3 3 0 1 0 2-1 3l-32 65c0 2-1 3-2 3s-1 0-2 0zm-53-37 51 25 27-56-50-24z"/></g><g><path d="m382 328c-4 0-6-4-5-7l35-70c3-5 12-1 9 5l-35 69c0 2-2 3-4 3z"/></g><g><path d="m364 492c-1 0-2 0-2-1-3-1-4-4-3-6l34-67c1-3 4-4 6-2 3 1 4 4 2 6l-33 67c-1 2-2 3-4 3z"/></g></g><path d="m102 162-45 91c-4 7-5 17-2 25 3 9 9 15 16 19l184 93 75-152-111-56v41c0 22-18 40-40 40s-40-18-40-40v-80c-13-2-28 4-35 16v1c-1 1-1 2-2 2zm74 168 33-64c1-2 4-3 6-2l59 29c1 0 2 1 3 3 0 1 0 2-1 3l-32 65c0 2-1 3-2 3s-1 0-2 0-2 0-2 0l-60-30c-1-1-2-2-3-3 0-2 0-3 1-4z" fill="#8697a6"/><path d="m50 243 42-83-28-13-41 82z" fill="#a5b1bd"/><path d="m106 62 372-1c13 0 24-10 24-23s-11-24-24-24h-444c-13 0-24 11-24 24s11 24 24 24h71z" fill="#44505b"/><path d="m209 173v-101h-60v66 2 83c0 16 14 30 30 30s30-14 30-30v-48s0-1 0-2zm-30-49c3 0 5 2 5 5v64c9 2 16 10 16 19 0 12-9 21-21 21s-21-9-21-21c0-9 7-17 16-19v-64c0-3 2-5 5-5z" fill="#546370"/><path d="m190 212c0-5-5-10-11-10s-11 5-11 10c0 6 5 11 11 11s11-5 11-11z" fill="#4c5965"/><path d="m215 275-28 55 51 25 27-56z" fill="#f4e74d"/><path d="m383 257-82 162c-3 6-1 12 5 17l56 44 31-62c1-3 4-4 6-2 3 1 4 4 2 6l-31 64 12 10c2 2 4 2 6 2 3-1 7-4 9-7l100-197c1-4 2-9 0-13-1-2-2-3-4-3l-73-20-34 67c0 2-2 3-4 3-4 0-6-4-5-7l33-65-10-3c-3-1-14-3-17 4z" fill="#546370"/><path d="m302 395 61-122-31-15-61 122z" fill="#a5b1bd"/></g></svg>