<svg height="512" viewBox="0 0 64 64" width="512" xmlns="http://www.w3.org/2000/svg"><g id="_24-Sprayer" data-name="24-Sprayer"><path d="m46 47.62v11.38a2 2 0 0 1 -2 2h-24a2 2 0 0 1 -2-2v-11.38a7.89 7.89 0 0 1 .63-3.11l7.37-17.51h12l7.37 17.51a7.89 7.89 0 0 1 .63 3.11z" fill="#fcb860"/><path d="m25 3h19v8h-5l-3 4v6h-8v-3a4 4 0 0 0 -4-4h-8z" fill="#e7eaef"/><g fill="#fc6067"><path d="m44 5h4v4h-4z"/><path d="m28 21h8a2 2 0 0 1 2 2v4a0 0 0 0 1 0 0h-12a0 0 0 0 1 0 0v-4a2 2 0 0 1 2-2z"/><path d="m36 15 9 8v-4l-6-8z"/></g><path d="m44 11v-8h-3v5a1 1 0 0 1 -1 1h-4.5l-2.5 3.33v8.67h3v-6l3-4z" fill="#d8dbe0"/><path d="m38 27h-2.92l7.21 17.12a8.94 8.94 0 0 1 .71 3.5v11.38a3 3 0 0 1 -.78 2h1.78a2 2 0 0 0 2-2v-11.38a7.89 7.89 0 0 0 -.63-3.11z" fill="#fcaa52"/><path d="m36 21h-1.78a3 3 0 0 1 .78 2v3.8l.08.2h2.92v-4a2 2 0 0 0 -2-2z" fill="#fb4b5b"/><path d="m48 4h-3v-1a1 1 0 0 0 -1-1h-19a1 1 0 0 0 -.77.37l-2.45 3a1 1 0 0 0 1.54 1.26l2.15-2.63h17.53v6h-4a1 1 0 0 0 -.8.4l-3 4a1 1 0 0 0 -.2.6v5h-6v-2a5 5 0 0 0 -5-5h-5.89l1.89-2.37a1 1 0 0 0 -1.5-1.26l-3.27 4a1 1 0 0 0 .77 1.63h8a3 3 0 0 1 3 3v2.18a3 3 0 0 0 -2 2.82v3.8l-7.29 17.32a8.94 8.94 0 0 0 -.71 3.5v11.38a3 3 0 0 0 3 3h24a3 3 0 0 0 3-3v-4a1 1 0 0 0 -2 0v4a1 1 0 0 1 -1 1h-24a1 1 0 0 1 -1-1v-11.38a6.85 6.85 0 0 1 .55-2.72l7.11-16.9h10.68l7.11 16.9a6.85 6.85 0 0 1 .55 2.72v3.38a1 1 0 0 0 2 0v-3.38a8.94 8.94 0 0 0 -.71-3.5l-7.29-17.32v-3.8a3 3 0 0 0 -2-2.82v-2.95l7.34 6.52a1 1 0 0 0 .66.25 1 1 0 0 0 .41-.09 1 1 0 0 0 .59-.91v-4a1 1 0 0 0 -.2-.6l-4.8-6.4h3a1 1 0 0 0 1-1v-1h3a1 1 0 0 0 1-1v-4a1 1 0 0 0 -1-1zm-20 18h8a1 1 0 0 1 1 1v3h-10v-3a1 1 0 0 1 1-1zm16-1.23-6.65-5.91 1.65-2.19 5 6.66zm3-12.77h-2v-2h2z"/></g></svg>