<svg id="Layer_1" viewBox="0 0 64 64" xmlns="http://www.w3.org/2000/svg" data-name="Layer 1"><path d="m35 37 4-6h-14l4 6" fill="#f66"/><path d="m29 43h6v17h-6z" fill="#1b6b93"/><path d="m25 37h14v6h-14z" fill="#164b60"/><path d="m21.32 53.99c.81-.3 1.46-.9 1.76-1.65l.9-2.22c.08-.21-.13-.41-.36-.34l-2.4.73c-.67.2-1.25.62-1.63 1.17l-.11.16c-.38.54-.34 1.23.09 1.72l.05.05c.4.45 1.09.61 1.7.38z" fill="#379237"/><path d="m18.63 51.77c-.38-.78-1.04-1.36-1.82-1.58l-2.31-.66c-.22-.06-.39.17-.3.39l.97 2.31c.27.65.74 1.18 1.33 1.5l.17.09c.58.32 1.26.21 1.7-.27l.05-.05c.41-.45.49-1.15.21-1.73z" fill="#379237"/><g fill="#8eac50"><path d="m45.68 56.42c.65-.23 1.16-.69 1.4-1.26l.72-1.7c.07-.16-.1-.31-.28-.26l-1.91.56c-.54.16-1 .47-1.3.89l-.09.12c-.3.41-.27.94.07 1.31l.04.04c.32.34.87.46 1.35.29z"/><path d="m43.54 54.72c-.3-.59-.83-1.03-1.45-1.21l-1.84-.51c-.17-.05-.31.13-.24.3l.77 1.76c.22.49.59.9 1.06 1.15l.13.07c.46.24 1.01.16 1.35-.21l.04-.04c.32-.34.39-.87.16-1.32z"/><path d="m9 56.42c.65-.23 1.16-.69 1.4-1.26l.72-1.7c.07-.16-.1-.31-.28-.26l-1.91.56c-.54.16-1 .47-1.3.89l-.09.12c-.3.41-.27.94.07 1.31l.04.04c.32.34.87.46 1.35.29z"/><path d="m6.86 54.72c-.3-.59-.83-1.03-1.45-1.21l-1.84-.51c-.17-.05-.31.13-.24.3l.77 1.76c.22.49.59.9 1.06 1.15l.13.07c.46.24 1.01.16 1.35-.21l.04-.04c.32-.34.39-.87.16-1.32z"/></g><path d="m58.32 53.99c.81-.3 1.46-.9 1.76-1.65l.9-2.22c.08-.21-.13-.41-.36-.34l-2.4.73c-.67.2-1.25.62-1.63 1.17l-.11.16c-.38.54-.34 1.23.09 1.72l.05.05c.4.45 1.09.61 1.7.38z" fill="#379237"/><path d="m55.63 51.77c-.38-.78-1.04-1.36-1.82-1.58l-2.31-.66c-.22-.06-.39.17-.3.39l.97 2.31c.27.65.74 1.18 1.33 1.5l.17.09c.58.32 1.26.21 1.7-.27l.05-.05c.41-.45.49-1.15.21-1.73z" fill="#379237"/><path d="m61 59h-4s0-4.04 0-4.04c.25.07.5.13.76.13.3 0 .61-.05.91-.16 1.08-.39 1.94-1.2 2.34-2.21l.9-2.22c.18-.45.09-.95-.24-1.31-.33-.37-.86-.5-1.34-.36l-2.4.73c-.7.21-1.32.61-1.8 1.12-.52-.7-1.23-1.22-2.04-1.45l-2.3-.66c-.47-.14-.96 0-1.28.37-.33.37-.42.91-.22 1.37l.97 2.31c.36.85.99 1.56 1.77 1.99l.17.09c.37.2.76.3 1.16.3.22 0 .43-.04.65-.1v4.12h-10s0-1.54 0-1.54c.08 0 .16.02.24.02.26 0 .52-.04.77-.13.92-.32 1.64-.98 1.99-1.81l.72-1.7c.18-.42.1-.9-.21-1.24-.31-.35-.82-.49-1.28-.36l-1.91.56c-.52.15-.99.42-1.37.77-.43-.49-.97-.85-1.59-1.02l-1.84-.51c-.45-.12-.92.02-1.23.37-.3.35-.38.86-.19 1.29l.77 1.76c.31.7.84 1.28 1.5 1.63l.14.07c.32.17.67.26 1.01.26.16 0 .32-.02.47-.06v1.66h-7s0-15.02 0-15.02h3c.55 0 1-.45 1-1v-6c0-.55-.45-1-1-1h-2.13l2.96-4.45c.2-.31.22-.7.05-1.03s-.51-.53-.88-.53h-14c-.37 0-.71.2-.88.53s-.15.72.05 1.03l2.96 4.45h-2.13c-.55 0-1 .45-1 1v6c0 .55.45 1 1 1h3v15.04h-8s0-4.08 0-4.08c.25.07.5.13.76.13.3 0 .61-.05.91-.16 1.08-.39 1.94-1.2 2.34-2.21l.9-2.22c.18-.45.09-.95-.24-1.31-.33-.37-.86-.5-1.34-.36l-2.4.73c-.7.21-1.32.61-1.8 1.12-.52-.7-1.23-1.22-2.04-1.45l-2.3-.66c-.47-.14-.95 0-1.28.37s-.42.91-.22 1.37l.97 2.31c.36.85.99 1.56 1.77 1.99l.17.09c.37.2.76.3 1.16.3.22 0 .43-.04.65-.1v4.16h-10.01s0-1.64 0-1.64c.18.04.37.07.56.07.26 0 .52-.04.77-.13.92-.32 1.64-.98 1.99-1.81l.72-1.7c.18-.42.1-.9-.21-1.24-.31-.35-.81-.49-1.28-.36l-1.91.56c-.52.15-.99.42-1.37.77-.43-.49-.97-.85-1.59-1.02l-1.84-.51c-.45-.12-.92.02-1.23.37-.3.35-.38.86-.19 1.29l.77 1.76c.31.7.84 1.28 1.5 1.63l.14.07c.32.17.67.26 1.01.26.05 0 .1-.01.15-.02v1.66h-2.99c-.55 0-1 .45-1 1s.45 1 1 1l58-.07c.55 0 1-.45 1-1s-.45-1-1-1zm-3.69-6.59.11-.16c.25-.36.65-.64 1.1-.78l.95-.29-.32.79c-.2.49-.62.88-1.17 1.08-.22.08-.48.03-.66-.17-.12-.14-.13-.32-.02-.48zm-2.67.47c-.12.14-.3.16-.47.07l-.17-.09c-.39-.21-.71-.58-.89-1.02l-.39-.92.82.24c.51.15.94.53 1.2 1.06.1.21.08.47-.1.67zm-9.53 2.37c.18-.24.45-.42.77-.52l.34-.1-.06.15c-.13.31-.43.57-.81.7-.13.05-.26 0-.33-.11zm-2.5.15c-.05.06-.13.02-.15.01l-.14-.07c-.27-.14-.48-.38-.61-.67l-.11-.25.23.06c.35.1.65.35.82.69.04.08.02.15-.04.22zm-22.31-2.98.11-.16c.25-.36.65-.64 1.1-.78l.95-.29-.32.79c-.2.49-.62.88-1.17 1.08-.22.08-.48.03-.66-.17-.12-.14-.13-.32-.02-.48zm-2.67.47c-.12.14-.3.16-.47.07l-.17-.09c-.39-.21-.71-.58-.89-1.02l-.39-.92.82.24c.51.15.94.53 1.2 1.06.1.21.08.47-.1.67zm-9.21 2.37c.17-.24.45-.42.77-.52l.34-.1-.06.15c-.13.31-.43.57-.81.7-.13.05-.26 0-.33-.11zm-2.5.15c-.05.06-.13.03-.15 0l-.14-.07c-.27-.14-.48-.38-.61-.67l-.11-.25.23.06c.35.1.65.35.82.69.04.08.02.15-.04.22zm20.94-23.39h10.26l-2.67 4h-4.93l-2.67-4zm-.87 10v-4h12v4zm4 2h4v15.03h-4s0-15.03 0-15.03z"/><path d="m60.99 11.32s-.06 0-.09 0c-.54.03-.95.51-.91 1.05v.05c.05.53.51.92 1.04.9h.02c.53-.03.95-.46.94-.99v-.05c0-.54-.46-.99-1.01-.96z"/><path d="m56.01 12.99c.11.53.63.86 1.16.76h.02c.53-.1.9-.59.82-1.12v-.02c-.08-.55-.6-.93-1.14-.84-.03 0-.06.01-.09.02-.54.1-.89.64-.78 1.18v.02z"/><path d="m52.01 14.11c.18.51.74.78 1.26.61l.06-.02c.52-.17.82-.7.67-1.23-.15-.54-.72-.85-1.25-.69-.04.01-.09.03-.13.04-.53.17-.81.76-.62 1.28z"/><path d="m49.51 16.22c.49-.23.72-.81.5-1.31-.22-.51-.83-.75-1.33-.51-.08.04-.15.07-.23.11-.5.24-.7.86-.44 1.36.25.48.84.67 1.33.43.06-.03.11-.05.17-.08z"/><path d="m44.01 18.37c.32.44.93.53 1.38.22.1-.07.21-.14.31-.21.45-.3.59-.9.3-1.36-.3-.48-.93-.62-1.4-.31-.13.08-.25.17-.38.26-.46.32-.56.96-.23 1.41z"/><path d="m40.01 21.89c.39.38 1.01.36 1.4-.02.17-.17.34-.33.52-.5.4-.37.44-.98.08-1.39-.38-.43-1.03-.46-1.45-.07-.19.17-.37.35-.55.53-.41.4-.41 1.05 0 1.45z"/><path d="m36.02 27.05c.46.29 1.06.14 1.36-.31.26-.39.53-.78.81-1.16.32-.44.25-1.05-.18-1.39-.44-.35-1.09-.27-1.42.18-.31.42-.61.85-.9 1.29-.31.47-.16 1.1.32 1.39z"/><path d="m55.94 6.97c.52-.1.88-.58.8-1.11v-.05c-.09-.54-.6-.91-1.13-.81-.03 0-.06.01-.08.02-.53.1-.87.63-.76 1.17v.05c.12.52.63.84 1.16.75h.02z"/><path d="m52.82 6.71v-.02c-.16-.53-.72-.84-1.25-.67-.03 0-.05.02-.08.03-.53.17-.8.75-.61 1.27v.02c.19.51.74.77 1.26.6h.02c.51-.17.81-.7.66-1.22z"/><path d="m48.42 9.43s.04-.02.06-.03c.49-.24.72-.81.5-1.31-.22-.51-.83-.75-1.33-.51-.04.02-.08.04-.12.06-.5.24-.7.86-.44 1.36.25.48.84.67 1.33.43z"/><path d="m44.9 11.43c.46-.3.6-.9.32-1.36-.29-.48-.92-.63-1.39-.32-.07.05-.14.09-.21.14-.46.31-.57.95-.25 1.41.32.44.93.54 1.38.24.05-.03.1-.07.15-.1z"/><path d="m41.14 14.35c.09-.09.19-.17.28-.25.41-.36.46-.98.11-1.39-.36-.43-1.01-.49-1.43-.12-.11.1-.23.2-.34.31-.41.38-.42 1.03-.03 1.43.38.39.99.4 1.4.03z"/><path d="m37.65 18.14c.15-.19.3-.38.45-.56.34-.42.3-1.04-.11-1.39-.43-.37-1.08-.31-1.44.13-.16.2-.32.4-.47.6-.35.45-.26 1.1.2 1.44.44.32 1.05.22 1.38-.21z"/><path d="m34.6 20.9c-.48-.28-1.11-.12-1.38.37-.25.46-.49.93-.71 1.4-.24.5 0 1.11.51 1.34.5.22 1.07 0 1.31-.49.21-.43.42-.85.65-1.26.26-.48.1-1.08-.37-1.35z"/><path d="m59.04 22c.32 0 .64-.01.96-.01.54 0 .99-.42 1.01-.96.02-.56-.43-1.04-.99-1.04-.35 0-.7 0-1.05.01-.56.02-.99.51-.96 1.07.03.54.49.95 1.03.93z"/><path d="m52 22.03c.14.53.67.84 1.21.71.33-.07.65-.14.98-.21.54-.1.9-.6.81-1.14-.09-.55-.61-.93-1.16-.83-.37.07-.74.15-1.11.23-.54.13-.87.69-.73 1.23z"/><path d="m47.33 24.75c.36-.17.73-.33 1.1-.48.5-.21.76-.77.57-1.28-.2-.52-.79-.79-1.3-.58-.41.17-.83.35-1.23.54-.51.23-.71.85-.46 1.35.24.49.83.68 1.32.45z"/><path d="m41.66 28.17c.35-.27.71-.53 1.07-.78.45-.31.58-.91.28-1.37-.3-.47-.94-.61-1.4-.29-.4.28-.8.57-1.18.86-.44.34-.51.99-.15 1.42.34.42.96.48 1.39.15z"/><path d="m2.94 13.28h.02c.53.03.99-.37 1.03-.9v-.05c.05-.54-.36-1.02-.91-1.05-.03 0-.06 0-.08 0-.54-.02-1 .42-1.01.96v.05c0 .53.41.96.94.99z"/><path d="m6.82 13.71h.02c.53.1 1.05-.23 1.16-.76v-.02c.12-.54-.23-1.08-.77-1.18-.03 0-.06-.01-.08-.01-.54-.1-1.06.29-1.14.83v.02c-.08.53.29 1.02.82 1.12z"/><path d="m11.37 12.79s-.09-.03-.13-.04c-.53-.17-1.1.15-1.25.69-.15.52.15 1.06.67 1.23.02 0 .04.01.06.02.52.17 1.08-.1 1.26-.61.19-.53-.09-1.11-.62-1.28z"/><path d="m15.33 14.36c-.5-.24-1.11 0-1.33.51-.22.5 0 1.07.5 1.31.06.03.11.05.17.08.49.24 1.08.06 1.33-.43.26-.49.07-1.12-.43-1.36-.08-.04-.15-.07-.23-.11z"/><path d="m18.61 18.56c.45.31 1.06.22 1.38-.22.33-.45.24-1.09-.22-1.41-.13-.09-.25-.17-.38-.26-.47-.31-1.1-.16-1.4.31-.29.46-.15 1.06.3 1.37.11.07.21.14.31.21z"/><path d="m23.99 20.4c-.18-.18-.36-.35-.55-.53-.42-.39-1.07-.36-1.45.07-.36.41-.32 1.02.08 1.4.18.16.35.33.52.5.39.38 1 .39 1.4.02.41-.4.41-1.05 0-1.45z"/><path d="m25.81 25.54c.28.38.55.77.81 1.16.3.45.9.6 1.36.31.48-.29.63-.93.32-1.39-.29-.44-.59-.86-.9-1.29-.33-.45-.98-.53-1.42-.18-.43.34-.5.95-.18 1.39z"/><path d="m8.75 6.13s.01 0 .02 0c.52.12 1.04-.19 1.17-.7v-.05c.15-.53-.17-1.07-.7-1.19-.03 0-.06-.01-.08-.02-.53-.12-1.05.24-1.16.77v.05c-.11.52.23 1.02.75 1.14z"/><path d="m12.49 7.23s.01 0 .02 0c.51.19 1.07-.05 1.27-.55v-.02c.22-.51-.03-1.1-.55-1.3-.03-.01-.05-.02-.08-.03-.52-.19-1.09.1-1.27.63v.02c-.18.51.1 1.06.61 1.24z"/><path d="m16.18 8.87c.48.25 1.08.09 1.35-.38.28-.49.11-1.11-.39-1.37-.04-.02-.08-.04-.12-.06-.5-.26-1.11-.04-1.35.46-.24.49-.03 1.07.45 1.33l.06.03z"/><path d="m21.16 10.91c.34-.44.26-1.09-.19-1.41-.07-.05-.14-.1-.21-.15-.46-.32-1.09-.2-1.4.27-.3.45-.18 1.06.26 1.38.05.04.1.07.15.11.44.32 1.05.24 1.39-.19z"/><path d="m24.68 12.64c-.11-.11-.22-.21-.33-.32-.4-.39-1.05-.35-1.43.07-.36.41-.33 1.02.06 1.4.09.09.18.18.27.26.39.38 1 .4 1.4.02.41-.39.42-1.04.02-1.43z"/><path d="m26.61 17.97c.32.44.92.56 1.37.26.47-.32.58-.96.25-1.43-.15-.21-.3-.41-.45-.61-.34-.46-.99-.54-1.44-.19-.42.34-.49.95-.16 1.39.14.19.29.38.43.58z"/><path d="m29.55 20.84c-.48.26-.66.85-.42 1.34.21.42.41.85.6 1.29.22.5.78.74 1.29.54.52-.21.78-.8.55-1.32-.21-.48-.43-.95-.66-1.42-.25-.5-.87-.69-1.36-.43z"/><path d="m5.04 20c-.35-.01-.71-.02-1.06-.02-.56 0-1 .48-.99 1.04.02.54.47.96 1.01.96.32 0 .63 0 .95.01.54.02 1.01-.39 1.04-.93.04-.56-.39-1.05-.96-1.07z"/><path d="m9.81 22.54c.33.06.65.13.98.21.53.12 1.07-.19 1.21-.71.14-.54-.18-1.1-.73-1.23-.37-.08-.74-.16-1.11-.23-.55-.11-1.07.27-1.16.83-.09.54.28 1.04.81 1.14z"/><path d="m15.56 24.27c.37.15.74.31 1.1.48.5.23 1.08.03 1.32-.45.25-.5.05-1.12-.46-1.35-.41-.19-.82-.37-1.23-.54-.52-.21-1.11.06-1.3.58-.19.51.06 1.07.57 1.28z"/><path d="m22.34 28.17c.43.33 1.05.27 1.39-.15.35-.43.29-1.08-.15-1.42-.39-.3-.78-.59-1.18-.86-.46-.32-1.09-.18-1.4.29-.3.46-.17 1.06.28 1.37.36.25.72.51 1.07.78z"/></svg>