<svg height="512" viewBox="0 0 64 64" width="512" xmlns="http://www.w3.org/2000/svg"><g id="_28-Springkler" data-name="28-Springkler"><path d="m29 22h6v28h-6z" fill="#d8dbe0"/><path d="m32 22h3v28h-3z" fill="#cccfd4"/><g fill="#59e78b"><path d="m57 41h4a0 0 0 0 1 0 0v1a5 5 0 0 1 -5 5h-4a0 0 0 0 1 0 0v-1a5 5 0 0 1 5-5z"/><path d="m43 35h4a5 5 0 0 1 5 5v1a0 0 0 0 1 0 0h-4a5 5 0 0 1 -5-5v-1a0 0 0 0 1 0 0z" transform="matrix(-1 0 0 -1 95 76)"/><path d="m17 41h4a0 0 0 0 1 0 0v1a5 5 0 0 1 -5 5h-4a0 0 0 0 1 0 0v-1a5 5 0 0 1 5-5z"/><path d="m3 35h4a5 5 0 0 1 5 5v1a0 0 0 0 1 0 0h-4a5 5 0 0 1 -5-5v-1a0 0 0 0 1 0 0z" transform="matrix(-1 0 0 -1 15 76)"/></g><path d="m11 53a7.91 7.91 0 0 1 3.26.7 8 8 0 0 1 10.74-2.61 8 8 0 0 1 14 0 8 8 0 0 1 10.74 2.61 7.91 7.91 0 0 1 3.26-.7 8 8 0 0 1 8 8h-58a8 8 0 0 1 8-8z" fill="#b38051"/><path d="m26 28h12v13h-12z" fill="#e7eaef"/><path d="m26 18h12a2 2 0 0 1 2 2v2a0 0 0 0 1 0 0h-16a0 0 0 0 1 0 0v-2a2 2 0 0 1 2-2z" fill="#e7eaef"/><path d="m61 41h-3v1a6 6 0 0 1 -2.69 5h.69a5 5 0 0 0 5-5z" fill="#31e170"/><path d="m47 35h-.69a6 6 0 0 1 2.69 5v1h3v-1a5 5 0 0 0 -5-5z" fill="#31e170"/><path d="m21 41h-3v1a6 6 0 0 1 -2.69 5h.69a5 5 0 0 0 5-5z" fill="#31e170"/><path d="m7 35h-.69a6 6 0 0 1 2.69 5v1h3v-1a5 5 0 0 0 -5-5z" fill="#31e170"/><path d="m53.13 53a9 9 0 0 1 4.87 8h3a8 8 0 0 0 -7.87-8z" fill="#aa744c"/><path d="m35 28h3v13h-3z" fill="#d8dbe0"/><path d="m40 22v-2a2 2 0 0 0 -2-2h-1.78a3 3 0 0 1 .78 2v2z" fill="#d8dbe0"/><path d="m56 48a6 6 0 0 0 6-6v-1a1 1 0 0 0 -1-1h-4a6 6 0 0 0 -4 1.54v-9.54a1 1 0 0 0 -2 0v3.54a6 6 0 0 0 -4-1.54h-4a1 1 0 0 0 -1 1v1a6 6 0 0 0 6 6h3v10.23c-.3.07-.6.15-.9.25a9 9 0 0 0 -10.77-2.69 9 9 0 0 0 -3.33-2.79v-5h2a1 1 0 0 0 1-1v-13a1 1 0 0 0 -1-1h-2v-4h4a1 1 0 0 0 1-1v-2a3 3 0 0 0 -3-3h-12a3 3 0 0 0 -3 3v2a1 1 0 0 0 1 1h4v4h-2a1 1 0 0 0 -1 1v4a1 1 0 0 0 2 0v-3h10v11h-10v-4a1 1 0 0 0 -2 0v5a1 1 0 0 0 1 1h2v5a9 9 0 0 0 -3.33 2.84 9 9 0 0 0 -10.77 2.64c-.3-.1-.6-.18-.9-.25v-4.23h3a6 6 0 0 0 6-6v-1a1 1 0 0 0 -1-1h-4a6 6 0 0 0 -4 1.54v-9.54a1 1 0 0 0 -2 0v3.54a6 6 0 0 0 -4-1.54h-4a1 1 0 0 0 -1 1v1a6 6 0 0 0 6 6h3v10a9 9 0 0 0 -9 9 1 1 0 0 0 1 1h48a1 1 0 0 0 0-2h-46.93a7 7 0 0 1 9.78-5.39 1 1 0 0 0 1.25-.37 7 7 0 0 1 9.42-2.24 1 1 0 0 0 .77.1 1 1 0 0 0 .6-.48 7 7 0 0 1 12.22 0 1 1 0 0 0 .6.48 1 1 0 0 0 .77-.1 7 7 0 0 1 9.42 2.28 1 1 0 0 0 1.25.37 7 7 0 0 1 9.78 5.35h-4.93a1 1 0 0 0 0 2h6a1 1 0 0 0 1-1 9 9 0 0 0 -9-9v-4zm-31-28a1 1 0 0 1 1-1h12a1 1 0 0 1 1 1v1h-14zm5 3h4v4h-4zm-13 19h3a4 4 0 0 1 -4 4h-3a4 4 0 0 1 4-4zm-9-2a4 4 0 0 1 -4-4h3a4 4 0 0 1 4 4zm22 6.23v-4.23h4v4.23a8.81 8.81 0 0 0 -4 0zm27-4.23h3a4 4 0 0 1 -4 4h-3a4 4 0 0 1 4-4zm-9-2a4 4 0 0 1 -4-4h3a4 4 0 0 1 4 4zm-17-36v-1a1 1 0 0 1 2 0v1a1 1 0 0 1 -2 0zm0 5v-1a1 1 0 0 1 2 0v1a1 1 0 0 1 -2 0zm0 5v-1a1 1 0 0 1 2 0v1a1 1 0 0 1 -2 0zm16.36-6.36a1 1 0 0 1 0-1.42l.71-.71a1 1 0 1 1 1.42 1.42l-.71.71a1 1 0 0 1 -.71.29 1 1 0 0 1 -.71-.29zm-3.53 3.53a1 1 0 0 1 0-1.41l.71-.71a1 1 0 1 1 1.46 1.41l-.71.71a1 1 0 0 1 -1.41 0zm-3.54 3.54a1 1 0 0 1 0-1.42l.71-.7a1 1 0 0 1 1.41 1.41l-.7.71a1 1 0 0 1 -1.42 0zm12.71 5.29a1 1 0 0 1 1-1h1a1 1 0 0 1 0 2h-1a1 1 0 0 1 -1-1zm-4-1h1a1 1 0 0 1 0 2h-1a1 1 0 0 1 0-2zm-6 1a1 1 0 0 1 1-1h1a1 1 0 0 1 0 2h-1a1 1 0 0 1 -1-1zm-23-1a1 1 0 0 1 0 2h-1a1 1 0 0 1 0-2zm-7 1a1 1 0 0 1 1-1h1a1 1 0 0 1 0 2h-1a1 1 0 0 1 -1-1zm-5 0a1 1 0 0 1 1-1h1a1 1 0 0 1 0 2h-1a1 1 0 0 1 -1-1zm13.59-6a1 1 0 0 1 1.41-1.41l.71.7a1 1 0 0 1 0 1.42 1 1 0 0 1 -1.42 0zm-3.54-3.54a1 1 0 0 1 1.41-1.41l.71.71a1 1 0 0 1 0 1.41 1 1 0 0 1 -1.41 0zm-3.54-3.53a1 1 0 1 1 1.42-1.42l.71.71a1 1 0 0 1 0 1.42 1 1 0 0 1 -.71.29 1 1 0 0 1 -.71-.29zm31.08 21.9a1 1 0 0 1 1.41 0l.71.71a1 1 0 0 1 0 1.41 1 1 0 0 1 -1.42 0l-.7-.71a1 1 0 0 1 0-1.41zm-3.54-3.54a1 1 0 0 1 1.41 0l.71.71a1 1 0 0 1 0 1.41 1 1 0 0 1 -1.41 0l-.71-.7a1 1 0 0 1 0-1.42zm-21.51 0a1 1 0 0 1 1.41 0 1 1 0 0 1 0 1.42l-.71.7a1 1 0 0 1 -1.41 0 1 1 0 0 1 0-1.41zm-4.25 4.25.71-.71a1 1 0 0 1 1.41 1.41l-.7.71a1 1 0 0 1 -1.42 0 1 1 0 0 1 0-1.41z"/></g></svg>