<svg id="Layer_1" viewBox="0 0 1000 1000" xmlns="http://www.w3.org/2000/svg" data-name="Layer 1"><path d="m480.43 263.55-247 604.71a25.42 25.42 0 0 1 -32.56 14 25.31 25.31 0 0 1 -14.34-33l146.6-366.12a16 16 0 0 0 -7.06-19.92 142.64 142.64 0 0 1 -37.47-33.67c-22.36-28.66-30.3-61.58-23.58-97.87.15-.63.64-2.58 1.53-5.49 20-65.4 87.91-103.88 154.52-87.62q4.22 1 8.3 2.18h.07c.27.09.55.18.83.25 18.93 5.49 35.73 13 50.16 22.55z" fill="#546e7a"/><path d="m813.14 868.78a25.1 25.1 0 0 1 -14 13.5 25.41 25.41 0 0 1 -32.56-14l-247-604.71c14.35-9.47 31-17 49.79-22.41h.12c.38-.1.76-.21 1.13-.33q4.05-1.14 8.23-2.16c66.62-16.26 134.5 22.23 154.52 87.62.9 2.94 1.39 4.89 1.53 5.49 6.72 36.28-1.21 69.21-23.58 97.87a142.62 142.62 0 0 1 -37.42 33.64 16 16 0 0 0 -7.11 19.95l146.6 366.12a25.11 25.11 0 0 1 -.25 19.42z" fill="#546e7a"/><g fill="#fff" opacity=".5"><path d="m470.43 273.55-247 604.71a25.42 25.42 0 0 1 -32.56 14 25.31 25.31 0 0 1 -14.34-33l146.6-366.12a16 16 0 0 0 -7.06-19.92 142.64 142.64 0 0 1 -37.47-33.67c-22.36-28.66-30.3-61.58-23.58-97.87.15-.63.64-2.58 1.53-5.49 20-65.4 87.91-103.88 154.52-87.62q4.22 1 8.3 2.18h.07c.27.09.55.18.83.25 18.93 5.49 35.73 13 50.16 22.55z"/><path d="m803.14 878.78a25.1 25.1 0 0 1 -14 13.5 25.41 25.41 0 0 1 -32.56-14l-247-604.71c14.35-9.47 31-17 49.79-22.41h.12c.38-.1.76-.21 1.13-.33q4.05-1.14 8.23-2.16c66.62-16.26 134.5 22.23 154.52 87.62.9 2.94 1.39 4.89 1.53 5.49 6.72 36.28-1.21 69.21-23.58 97.87a142.62 142.62 0 0 1 -37.42 33.64 16 16 0 0 0 -7.11 19.95l146.6 366.12a25.11 25.11 0 0 1 -.25 19.42z"/></g><g fill="#413b32"><path d="m509.87 245.35q-4.77-3.75-9.87-7.2a200.77 200.77 0 0 0 -39.25-20.53 247.5 247.5 0 0 0 -32.05-10.11l-.45-.11c-82.95-20-167.33 28-192.26 109.45-1.47 4.8-2.14 7.78-2.21 8.1s-.08.35-.11.53c-8.57 45.68 2 88.86 30.6 124.88a180.68 180.68 0 0 0 34.35 33l-141.75 354a57.29 57.29 0 0 0 106.23 43l236.9-580.1 14.81-36.26a16 16 0 0 0 -4.94-18.65zm-276.4 622.91a25.42 25.42 0 0 1 -32.56 14 25.31 25.31 0 0 1 -14.34-33l146.6-366.12a16 16 0 0 0 -7.06-19.92 142.64 142.64 0 0 1 -37.47-33.67c-22.36-28.66-30.3-61.58-23.58-97.87.15-.63.64-2.58 1.53-5.49 20-65.4 87.91-103.88 154.52-87.62q4.22 1 8.3 2.18h.07l.83.25c18.89 5.44 35.68 13 50.12 22.5z"/><path d="m843.13 837.4-141.75-354a180.68 180.68 0 0 0 34.35-33c28.58-36 39.17-79.2 30.6-124.88 0-.18-.07-.35-.11-.53s-.74-3.3-2.21-8.1c-24.93-81.48-109.31-129.47-192.25-109.49l-.46.11a245.65 245.65 0 0 0 -32 10.1 200.44 200.44 0 0 0 -39.3 20.54q-5.1 3.45-9.87 7.2a16 16 0 0 0 -4.94 18.65l14.81 36.26 236.9 580.1a57.29 57.29 0 0 0 106.23-43zm-30 31.38a25.1 25.1 0 0 1 -14 13.5 25.41 25.41 0 0 1 -32.56-14l-247-604.71c14.35-9.47 31-17 49.79-22.41h.12c.38-.12.75-.23 1.13-.33q4.05-1.14 8.23-2.16c66.62-16.26 134.5 22.23 154.52 87.62.9 2.94 1.39 4.89 1.53 5.49 6.72 36.28-1.21 69.21-23.58 97.87a142.62 142.62 0 0 1 -37.42 33.64 16 16 0 0 0 -7.11 19.95l146.6 366.12a25.11 25.11 0 0 1 -.24 19.42z"/><path d="m575.28 238.3a15.88 15.88 0 0 1 -4.62 2.46c-.38.1-.75.21-1.13.33h-.12a15.74 15.74 0 0 1 -3.8.46 16 16 0 0 1 -12.71-6.27l-13.58-17.72-19.32-25.07-8.32-10.86a16 16 0 0 1 2.72-22.24l.35-.27a16 16 0 0 1 22.32 3l8.33 10.88 26.36 34.39 6.49 8.46a16 16 0 0 1 -2.97 22.45z"/><path d="m488.33 181.63-8.33 10.86-19.26 25.13-13.58 17.71a16 16 0 0 1 -16.86 5.72l-.83-.25h-.07a15.84 15.84 0 0 1 -4.67-2.48 16 16 0 0 1 -3-22.44l6.48-8.46 26.41-34.42 8.32-10.85a16 16 0 0 1 22.32-3l.35.27a16 16 0 0 1 2.72 22.21z"/><path d="m500 196.18a56.09 56.09 0 1 1 56.09-56.09 56.15 56.15 0 0 1 -56.09 56.09zm0-80.18a24.09 24.09 0 1 0 24.09 24.09 24.12 24.12 0 0 0 -24.09-24.09z"/></g></svg>