<svg id="Layer_1-2" viewBox="0 0 64 64" xmlns="http://www.w3.org/2000/svg"><g id="Squeegee"><path d="m-.87 21.757h53.74v8.485h-53.74z" fill="#dee9fc" transform="matrix(.707 -.707 .707 .707 -10.77 26)"/><path d="m22 52.34082031c-1.06982422 0-2.07421875-.41503906-2.82861328-1.16894531l-7.17138672-7.171875 32-32 7.17138672 7.171875c.75585938.75488281 1.171875 1.75976562 1.171875 2.828125s-.41601562 2.07226562-1.171875 2.828125l-26.34277344 26.34375c-.75390625.75390625-1.75830078 1.16894531-2.82861328 1.16894531z" fill="#b6d4ff"/><path d="m59.46435547 63c-.94433594 0-1.83251953-.3671875-2.5-1.03515625l-6.77197266-6.77246094c-4.63720703-4.63769531-10.80419922-7.19238281-17.36376953-7.19238281-.53369141 0-1.03613281-.20800781-1.41455078-.5859375l-2.70703125-2.70703125c-.18847656-.18847656-.29199219-.43945312-.29199219-.70703125s.10351562-.51855469.29199219-.70703125l14.5859375-14.5859375c.18798828-.1875.43896484-.29101562.70703125-.29101562s.51904297.10351562.70703125.29101562l2.70703125 2.70703125c.37792969.37792969.5859375.87988281.5859375 1.4140625 0 6.55859375 2.55419922 12.72558594 7.19238281 17.36425781l6.77197266 6.77246094c.66796875.66796875 1.03564453 1.55566406 1.03564453 2.5 0 1.94921875-1.5859375 3.53515625-3.53564453 3.53515625z" fill="#95bcf4"/><path d="m59.46435547 63c-.94433594 0-1.83251953-.3671875-2.5-1.03515625l-2.96435547-2.96484375 5-5 2.96435547 2.96484375c.66796875.66796875 1.03564453 1.55566406 1.03564453 2.5 0 1.94921875-1.5859375 3.53515625-3.53564453 3.53515625z" fill="#7fa5ea"/><g fill="#433d4c"><path d="m62.67138672 56.2578125-6.77197266-6.77246094c-4.44921875-4.45019531-6.89941406-10.36523438-6.89941406-16.65722656 0-.80078125-.31201172-1.5546875-.87890625-2.12109375l-.70703125-.70703125 4.46289062-4.46289062c1.94970703-1.95019531 1.94970703-5.12402344 0-7.07421875l-5.46289062-5.46289062 2.29296875-2.29296875c.390625-.390625.390625-1.0234375 0-1.4140625l-6-6c-.390625-.390625-1.0234375-.390625-1.4140625 0l-38 37.99999999c-.390625.390625-.390625 1.0234375 0 1.4140625l6 6c.1953125.1953125.45117188.29296875.70703125.29296875s.51171875-.09765625.70703125-.29296875l2.29296875-2.29296875 5.46289062 5.46289062c.94335938.94335938 2.19921875 1.46386719 3.53710938 1.46386719s2.59375-.52050781 3.53710938-1.46386719l4.46289062-4.46289062.70703125.70703125c.56689453.56640625 1.3203125.87890625 2.12158203.87890625 6.29248047 0 12.20800781 2.45019531 16.65673828 6.89941406l6.77197266 6.77246094c.85644531.85644531 1.99511719 1.328125 3.20703125 1.328125 2.50097656 0 4.53564453-2.03417969 4.53564453-4.53515625 0-1.2109375-.47167969-2.35058594-1.32861328-3.20703125zm-52.67138672-9.671875-4.5859375-4.5859375 36.5859375-36.5859375 4.5859375 4.5859375zm14.12304688 3.87695312c-1.13183594 1.13085938-3.11425781 1.13085938-4.24609375 0l-5.46289062-5.46289062 30.5859375-30.5859375 5.46289062 5.46289062c1.16992188 1.17089844 1.16992188 3.07519531 0 4.24609375l-4.46289062 4.46289062-.5859375-.5859375c-.77929688-.77929688-2.04882812-.77929688-2.828125 0l-14.5859375 14.5859375c-.77978516.77929688-.77978516 2.04882812 0 2.828125l.5859375.5859375-4.46289062 4.46289062zm8.70556641-3.46289062c-.26708984 0-.51855469-.10449219-.70751953-.29296875l-2.70703125-2.70703125 6.5859375-6.5859375 4.29296875 4.29296875c.1953125.1953125.45117188.29296875.70703125.29296875s.51171875-.09765625.70703125-.29296875c.390625-.390625.390625-1.0234375 0-1.4140625l-4.29296875-4.29296875 6.5859375-6.5859375 2.70703125 2.70703125c.18603516.18652344.29296875.44433594.29296875.70703125 0 6.82617188 2.65820312 13.24414062 7.48535156 18.07128906l3.10046387 3.10070801-3.5859375 3.5859375-3.10046387-3.10070801c-4.82617188-4.82714844-11.24414062-7.48535156-18.07080078-7.48535156zm26.63574219 15c-.67773438 0-1.31445312-.26367188-1.79296875-.7421875l-2.25750732-2.25762939 3.5859375-3.5859375 2.25750732 2.25762939c.47900391.47949219.74267578 1.11621094.74267578 1.79296875 0 1.39746094-1.13769531 2.53515625-2.53564453 2.53515625z"/><path d="m29.29296875 9.70703125c.1953125.1953125.45117188.29296875.70703125.29296875s.51171875-.09765625.70703125-.29296875c.390625-.390625.390625-1.0234375 0-1.4140625l-8-8c-.390625-.390625-1.0234375-.390625-1.4140625 0s-.390625 1.0234375 0 1.4140625z"/><path d="m21.29296875 15.70703125c.1953125.1953125.45117188.29296875.70703125.29296875s.51171875-.09765625.70703125-.29296875c.390625-.390625.390625-1.0234375 0-1.4140625l-12-12c-.390625-.390625-1.0234375-.390625-1.4140625 0s-.390625 1.0234375 0 1.4140625z"/><path d="m9 31c.25585938 0 .51171875-.09765625.70703125-.29296875.390625-.390625.390625-1.0234375 0-1.4140625l-8-8c-.390625-.390625-1.0234375-.390625-1.4140625 0s-.390625 1.0234375 0 1.4140625l8 8c.1953125.1953125.45117188.29296875.70703125.29296875z"/><path d="m14.29296875 22.70703125c.1953125.1953125.45117188.29296875.70703125.29296875s.51171875-.09765625.70703125-.29296875c.390625-.390625.390625-1.0234375 0-1.4140625l-12-12c-.390625-.390625-1.0234375-.390625-1.4140625 0s-.390625 1.0234375 0 1.4140625z"/></g></g></svg>