<svg id="Capa_1" enable-background="new 0 0 512 512" viewBox="0 0 512 512" xmlns="http://www.w3.org/2000/svg"><g><g><path d="m426.768 176.169c-22.573-73.363-67.862-121.205-100.396-143.602-35.504-24.439-65.838-31.383-67.112-31.667l-3.26-.726-20 140.05 20 111.477c131.489.001 169.336-72.667 170.768-75.532z" fill="#dcd2cd"/><path d="m256 .174-3.26.726c-1.274.284-31.608 7.228-67.11 31.668-32.535 22.397-77.824 70.239-100.397 143.602 1.432 2.865 39.278 75.532 170.768 75.532z" fill="#efe2dd"/></g><path d="m181.113 393.312v6.321c0 10.449-8.501 18.951-18.951 18.951-10.449 0-18.95-8.501-18.95-18.951v-42.041c0-26.542-21.594-48.136-48.136-48.136v30c10 0 18.136 8.136 18.136 18.136v42.041c0 26.992 21.959 48.951 48.95 48.951 26.992 0 48.951-21.959 48.951-48.951v-10.438z" fill="#efe2dd"/><path d="m368.789 357.592v42.041c0 10.449-8.502 18.951-18.951 18.951s-18.95-8.501-18.95-18.951v-6.321l-30-4.118v10.438c0 26.992 21.959 48.951 48.95 48.951 26.992 0 48.951-21.959 48.951-48.951v-42.041c0-10 8.136-18.136 18.136-18.136v-30c-26.542.001-48.136 21.595-48.136 48.137z" fill="#dcd2cd"/><path d="m271 512v-133.688h-15l-10 70.271 10 63.417z" fill="#dcd2cd"/><path d="m241 378.312h15v133.688h-15z" fill="#efe2dd"/><path d="m330.888 393.312v-137.018h-74.888l-10 78.478 10 58.54z" fill="#efe2dd"/><path d="m181.113 256.294h74.887v137.018h-74.887z" fill="#f5f0eb"/><g><path d="m327.854 71.461c-15.253-27.258-37.386-50.304-64.007-66.644l-7.847-4.817-20 183.783 20 149.724 9.991-8.921c33.025-29.491 72.248-36.409 72.6-36.469l12.577-2.059v-125.184c0-31.236-8.063-62.154-23.314-89.413z" fill="#f5f0eb"/><path d="m256 0-7.847 4.817c-26.621 16.34-48.754 39.386-64.006 66.644-15.253 27.259-23.314 58.177-23.314 89.413v125.185l12.577 2.059c.389.063 39.274 6.71 72.599 36.469l9.991 8.922z" fill="#fff7f7"/></g></g><g/><g/><g/><g/><g/><g/><g/><g/><g/><g/><g/><g/><g/><g/><g/></svg>