<svg id="_x30_1_Star" enable-background="new 0 0 48 48" height="512" viewBox="0 0 48 48" width="512" xmlns="http://www.w3.org/2000/svg"><path d="m24 5 5.8713 12.5088 13.1287 2.0059-9.5 9.7368 2.2427 13.7485-11.7427-6.4912-11.7427 6.4912 2.2427-13.7485-9.5001-9.7368 13.1288-2.0059z" fill="#f99f10"/><path d="m32.143 17.8559-2.2716-.347-5.8714-12.5089-5.8713 12.5089-13.1287 2.0058 9.5 9.7368-1.2177 7.4651z" fill="#f9c900"/><path d="m43.9483 19.1973c-.1191-.3555-.4268-.6147-.7974-.6714l-12.6011-1.9248-5.6445-12.0259c-.1645-.3511-.5175-.5752-.9052-.5752s-.7407.2241-.9053.5752l-5.645 12.0259-12.6006 1.9248c-.3706.0566-.6782.3159-.7974.6714-.1191.3555-.0293.7476.2324 1.0156l9.1475 9.3755-2.1611 13.2505c-.062.3779.0977.7583.4106.9785.3145.2207.7241.2422 1.0601.0576l11.2588-6.2236 11.2588 6.2236c.3359.1846.7456.1631 1.0601-.0576.313-.2202.4727-.6006.4106-.9785l-2.1611-13.2505 9.1475-9.3755c.2616-.2681.3515-.6602.2323-1.0156zm-11.164 9.3559c-.2217.2271-.3223.5459-.271.8594l1.9111 11.7158-9.9404-5.4946c-.1504-.0835-.3174-.125-.4839-.125s-.3335.0415-.4839.125l-9.9404 5.4946 1.9111-11.7158c.0513-.3135-.0493-.6323-.271-.8594l-8.1411-8.3438 11.2046-1.7119c.3296-.0508.6128-.2622.7544-.564l4.9663-10.5801 4.9658 10.5801c.1416.3018.4248.5132.7544.564l11.2051 1.7119z" fill="#474747"/></svg>