<svg id="Filled_Expand" height="512" viewBox="0 0 64 64" width="512" xmlns="http://www.w3.org/2000/svg" data-name="Filled Expand"><path d="m6 10h52v48h-52z" fill="#ebf5ff"/><path d="m13 32a12 12 0 0 0 12 12 9.656 9.656 0 0 0 6.828-2.828l.929-.929a14.485 14.485 0 0 1 10.243-4.243 8 8 0 0 0 8-8 8 8 0 0 0 -8-8h-18a12 12 0 0 0 -12 12z" fill="#e64678"/><path d="m58 10h-52l-2-8h56z" fill="#96e1ff"/><path d="m12 54h-4a4 4 0 0 0 -4 4 4 4 0 0 0 4 4h48a4 4 0 0 0 4-4 4 4 0 0 0 -4-4h-4" fill="#ebf5ff"/><path d="m13 40a12 12 0 0 0 12 12 9.656 9.656 0 0 0 6.828-2.828l.929-.929a14.485 14.485 0 0 1 10.243-4.243 8 8 0 0 0 8-8 8 8 0 0 0 -8-8h-18a12 12 0 0 0 -12 12z" fill="#f55a8c"/><circle cx="24" cy="40" fill="#ebf5ff" r="4"/><path d="m24 34.25a5.75 5.75 0 1 0 5.75 5.75 5.756 5.756 0 0 0 -5.75-5.75zm0 8a2.25 2.25 0 1 1 2.25-2.25 2.253 2.253 0 0 1 -2.25 2.25z"/><path d="m51.887 32a9.739 9.739 0 0 0 -8.887-13.75h-18a13.749 13.749 0 0 0 -13.155 17.75 13.749 13.749 0 0 0 13.155 17.75 11.331 11.331 0 0 0 8.065-3.341l.93-.93a12.653 12.653 0 0 1 9.005-3.729 9.744 9.744 0 0 0 8.887-13.75zm-8.887 10.25a16.123 16.123 0 0 0 -11.479 4.755l-.93.93a7.855 7.855 0 0 1 -5.591 2.315 10.25 10.25 0 0 1 0-20.5h18a6.25 6.25 0 0 1 0 12.5zm6.227-13.75a9.707 9.707 0 0 0 -6.227-2.25h-18a13.717 13.717 0 0 0 -10.172 4.508 10.262 10.262 0 0 1 10.172-9.008h18a6.257 6.257 0 0 1 6.25 6.25c0 .169-.009.337-.023.5z"/><path d="m59.75 53.65v-43.434l1.95-7.789a1.752 1.752 0 0 0 -1.7-2.177h-56a1.752 1.752 0 0 0 -1.7 2.177l1.95 7.789v43.434a5.744 5.744 0 0 0 3.75 10.1h48a5.744 5.744 0 0 0 3.75-10.1zm-1.991-49.9-1.125 4.5h-49.268l-1.125-4.5zm-1.759 56.5h-48a2.25 2.25 0 0 1 0-4.5h4a1.75 1.75 0 0 0 0-3.5h-4c-.084 0-.167.009-.25.013v-40.513h48.5v40.513c-.083 0-.166-.013-.25-.013h-4a1.75 1.75 0 0 0 0 3.5h4a2.25 2.25 0 0 1 0 4.5z"/></svg>