<svg id="Capa_1" enable-background="new 0 0 512 512" height="512" viewBox="0 0 512 512" width="512" xmlns="http://www.w3.org/2000/svg"><g><g><g><path d="m89.323 439.85 64.651 64.65h204.053l64.65-64.65v-367.7l-64.65-64.65h-204.053l-64.651 64.65z" fill="#dd4fb1"/></g><g><path d="m390.352 39.825v369.898c0 10.716-4.257 20.994-11.835 28.572l-22.045 22.045c-7.578 7.578-17.855 11.835-28.572 11.835h-206.251l32.325 32.325h204.053l64.65-64.65v-367.7z" fill="#da2ea2"/></g><g><path d="m180.753 439.85-26.779-26.78v-314.14l26.779-26.78h150.494l26.78 26.78v314.14l-26.78 26.78z" fill="#e490d0"/></g><g><path d="m331.247 72.15h-5.546v321.984c0 3.551-1.411 6.957-3.922 9.468-2.511 2.511-5.917 3.922-9.468 3.922h-158.337v5.546l26.779 26.779h150.494l26.779-26.779v-314.14z" fill="#df73c1"/></g><g><path d="m289.679 72.15-135.705 135.706v-45.72l89.985-89.986z" fill="#ffceec"/></g><g><path d="m355.42 96.324-201.446 201.436v-59.65l165.959-165.96h11.314z" fill="#ffceec"/></g></g><g><g><path d="m466.846 325.868 9.656-5.793c2.616-1.569 2.616-5.36 0-6.93l-9.656-5.793c-3.786-2.272-6.724-5.721-8.364-9.821l-12.861-32.151c-1.355-3.387-6.149-3.387-7.503 0l-12.861 32.151c-1.64 4.1-4.578 7.549-8.364 9.821l-9.656 5.793c-2.616 1.569-2.616 5.36 0 6.93l9.656 5.793c3.786 2.272 6.724 5.721 8.364 9.821l12.861 32.151c1.355 3.387 6.149 3.387 7.503 0l12.861-32.151c1.64-4.1 4.578-7.549 8.364-9.821z" fill="#f7e365"/></g></g><g><g><path d="m95.106 160.201 9.656-5.793c2.616-1.569 2.616-5.36 0-6.93l-9.656-5.793c-3.786-2.272-6.724-5.721-8.364-9.821l-12.86-32.152c-1.355-3.387-6.149-3.387-7.503 0l-12.861 32.152c-1.64 4.1-4.578 7.549-8.364 9.821l-9.656 5.793c-2.616 1.569-2.616 5.36 0 6.93l9.656 5.793c3.786 2.272 6.724 5.721 8.364 9.821l12.861 32.152c1.355 3.387 6.149 3.387 7.503 0l12.861-32.152c1.639-4.099 4.577-7.549 8.363-9.821z" fill="#f7e365"/></g></g><g><path d="m480.361 306.714-9.655-5.793c-2.367-1.42-4.234-3.613-5.259-6.175l-12.861-32.152c-1.763-4.407-5.969-7.254-10.715-7.254-4.747 0-8.953 2.847-10.716 7.254l-.975 2.437v-85.48c0-4.142-3.357-7.5-7.5-7.5s-7.5 3.358-7.5 7.5v119.735c-.656.616-1.37 1.171-2.145 1.636l-9.655 5.793c-3.509 2.105-5.604 5.805-5.604 9.896s2.095 7.792 5.604 9.896l9.655 5.793c.773.464 1.487 1.018 2.142 1.633v94.693l-49.646-20.564v-304.123l49.649-20.566v61.176c0 4.142 3.357 7.5 7.5 7.5s7.5-3.358 7.5-7.5v-72.4c0-1.989-.79-3.897-2.196-5.303l-64.649-64.65c-1.408-1.406-3.315-2.196-5.304-2.196h-42.471c-4.143 0-7.5 3.358-7.5 7.5s3.357 7.5 7.5 7.5h31.243l-20.566 49.65h-140.473l-20.565-49.65h115.361c4.143 0 7.5-3.358 7.5-7.5s-3.357-7.5-7.5-7.5h-126.59c-1.989 0-3.897.79-5.303 2.197l-64.65 64.65c-1.407 1.406-2.197 3.314-2.197 5.303v27.213l-.975-2.437c-1.763-4.407-5.969-7.254-10.716-7.254s-8.952 2.848-10.714 7.254l-12.861 32.152c-1.024 2.562-2.892 4.755-5.258 6.175l-9.658 5.794c-3.508 2.106-5.602 5.805-5.602 9.896s2.095 7.79 5.603 9.895l9.656 5.793c2.366 1.42 4.234 3.613 5.259 6.176l12.86 32.151c1.763 4.407 5.968 7.254 10.715 7.255 4.746 0 8.952-2.847 10.715-7.255l.978-2.445v237.337c0 1.989.79 3.897 2.197 5.303l64.65 64.65c1.406 1.407 3.314 2.197 5.303 2.197h204.053c1.989 0 3.896-.79 5.304-2.197l64.65-64.65c1.406-1.406 2.196-3.314 2.196-5.303v-71.668l.978 2.444c1.763 4.407 5.969 7.255 10.716 7.255 4.746 0 8.952-2.848 10.715-7.254l12.861-32.152c1.024-2.562 2.892-4.755 5.258-6.175l9.657-5.793c3.508-2.105 5.602-5.805 5.602-9.896s-2.093-7.792-5.601-9.897zm-119.701 184.546-20.565-49.648 19.694-19.694 49.648 20.565zm-258.096-48.777 49.649-20.565 19.693 19.693-20.566 49.649zm-5.741-274.217c.655-.615 1.368-1.169 2.142-1.633l9.655-5.793c3.508-2.104 5.603-5.804 5.604-9.895 0-4.091-2.094-7.791-5.603-9.897l-9.656-5.793c-.774-.465-1.489-1.02-2.145-1.636v-50.245l49.65 20.566v215.36c0 4.142 3.358 7.5 7.5 7.5s7.5-3.358 7.5-7.5v-217.263l22.386-22.387h144.287l22.387 22.387v307.927l-22.387 22.387h-144.286l-22.386-22.387v-55.664c0-4.142-3.358-7.5-7.5-7.5s-7.5 3.358-7.5 7.5v53.76l-49.647 20.565v-260.359zm54.516-147.528 20.566 49.651-19.693 19.693-49.651-20.566zm258.1 48.778-49.65 20.566-19.694-19.694 20.566-49.651zm-223.675 377.834h140.472l20.566 49.65h-181.603zm-105.985-280.113-9.649 24.122-9.648-24.122c-2.235-5.588-6.308-10.371-11.469-13.467l-4.712-2.827 4.712-2.827c5.161-3.096 9.233-7.878 11.468-13.466l9.649-24.122 9.649 24.122c2.236 5.588 6.309 10.371 11.468 13.466l4.712 2.827-4.712 2.827c-5.16 3.097-9.233 7.879-11.468 13.467zm383.209 152.2c-5.16 3.096-9.233 7.878-11.469 13.466l-9.648 24.122-9.648-24.121c-2.235-5.588-6.309-10.371-11.47-13.467l-4.711-2.827 4.712-2.827c5.161-3.097 9.234-7.88 11.469-13.467l9.648-24.122 9.648 24.122c2.235 5.587 6.308 10.37 11.469 13.467l4.712 2.827z"/><path d="m303.473 336.803v4.622h-4.622c-4.143 0-7.5 3.358-7.5 7.5s3.357 7.5 7.5 7.5h4.622v4.622c0 4.142 3.357 7.5 7.5 7.5s7.5-3.358 7.5-7.5v-4.622h4.622c4.143 0 7.5-3.358 7.5-7.5s-3.357-7.5-7.5-7.5h-4.622v-4.622c0-4.142-3.357-7.5-7.5-7.5s-7.5 3.358-7.5 7.5z"/><path d="m207.816 283.825h4.622v4.622c0 4.142 3.358 7.5 7.5 7.5s7.5-3.358 7.5-7.5v-4.622h4.622c4.142 0 7.5-3.358 7.5-7.5s-3.358-7.5-7.5-7.5h-4.622v-4.622c0-4.142-3.358-7.5-7.5-7.5s-7.5 3.358-7.5 7.5v4.622h-4.622c-4.142 0-7.5 3.358-7.5 7.5s3.358 7.5 7.5 7.5z"/><path d="m277.557 196.683h4.622v4.622c0 4.142 3.357 7.5 7.5 7.5s7.5-3.358 7.5-7.5v-4.622h4.622c4.143 0 7.5-3.358 7.5-7.5s-3.357-7.5-7.5-7.5h-4.622v-4.622c0-4.142-3.357-7.5-7.5-7.5s-7.5 3.358-7.5 7.5v4.622h-4.622c-4.143 0-7.5 3.358-7.5 7.5s3.357 7.5 7.5 7.5z"/></g></g></svg>