<svg id="Capa_1" enable-background="new 0 0 512.015 512.015" height="512" viewBox="0 0 512.015 512.015" width="512" xmlns="http://www.w3.org/2000/svg"><g><g><path d="m54.554 485.902-36.841-36.842c-13.613-13.613-13.613-35.685 0-49.298l352.927-352.928c13.613-13.613 35.685-13.613 49.298 0l36.842 36.842c13.613 13.613 13.613 35.685 0 49.298l-352.927 352.928c-13.614 13.613-35.685 13.613-49.299 0z" fill="#f6a96c"/><path d="m456.78 83.676-15.805-15.805c13.613 13.613 13.613 35.685 0 49.298l-352.928 352.928c-13.613 13.613-35.685 13.613-49.298 0l15.805 15.805c13.613 13.613 35.685 13.613 49.298 0l352.928-352.928c13.614-13.613 13.614-35.685 0-49.298z" fill="#ea9b58"/><path d="m498.494 296.819-24.429 24.429c-4.888 4.888-11.901 6.985-18.662 5.576l-123.157-38.093-110.377-110.378-37.991-90.81c-3.5-13.467.388-27.785 10.226-37.623l22.509-22.509c8.109-8.109 19.356-12.262 30.788-11.37l46.453 3.606c5.933.461 11.628 2.534 16.469 5.996l23.736 16.978 30.4 21.739 41.409 29.616c5.379 3.854 9.539 9.171 11.969 15.319l17.157 43.369 13.664 34.539 52.105 83.328c5.738 8.151 4.778 19.242-2.269 26.288z" fill="#7ebae6"/><path d="m500.761 270.532-52.105-83.328-13.664-34.539-17.157-43.37c-2.431-6.148-6.59-11.465-11.969-15.319l-5.42-3.876c.581 1.101 1.123 2.225 1.584 3.39l17.157 43.369 13.664 34.539 52.105 83.328c5.739 8.15 4.78 19.241-2.267 26.287l-24.429 24.428c-4.888 4.888-11.901 6.985-18.662 5.576l-123.157-38.093 15.805 15.805 123.157 38.093c6.761 1.409 13.773-.688 18.662-5.576l24.429-24.429c7.047-7.044 8.007-18.135 2.267-26.285z" fill="#4da6d1"/><path d="m462.764 173.417c2.32 5.863-1.549 12.331-7.812 13.062l-217.824 25.398c-2.542.297-5.081-.586-6.891-2.396l-16.259-16.259c-4.935-4.935-2.02-13.388 4.908-14.232l227.454-27.604c4.332-.526 8.474 1.938 10.079 5.996z" fill="#efedf0"/><path d="m462.764 173.417-6.344-16.036c-1.605-4.058-5.747-6.522-10.079-5.996l-1.761.214 2.379 6.012c2.32 5.863-1.549 12.331-7.812 13.062l-217.824 25.398c-2.542.296-5.081-.586-6.891-2.396l-.453-.453 16.258 16.259c1.81 1.81 4.348 2.693 6.891 2.396l217.824-25.398c6.263-.73 10.132-7.199 7.812-13.062z" fill="#e1dee2"/><path d="m314.69 293.934-12.708-12.708c-2.352-2.352-3.44-5.685-2.929-8.971l35.785-230.295c1.22-7.804 10.234-11.589 16.659-6.994l11.128 7.958c3.236 2.314 4.906 6.243 4.326 10.179l-34.577 234.977c-1.248 8.479-11.624 11.913-17.684 5.854z" fill="#efedf0"/><path d="m362.625 42.924-11.128-7.958c-.098-.07-.203-.121-.302-.187.077.83.076 1.673-.049 2.519l-34.578 234.977c-1.137 7.725-9.844 11.237-15.968 7.22.397.617.853 1.201 1.382 1.73l12.708 12.708c6.059 6.059 16.436 2.625 17.683-5.853l34.578-234.977c.58-3.935-1.09-7.865-4.326-10.179z" fill="#e1dee2"/></g><g><path d="m507.016 266.393-31.772-50.815c-2.196-3.512-6.823-4.581-10.335-2.383-3.512 2.196-4.579 6.823-2.383 10.335l31.874 50.978c.074.118.15.233.23.346 3.648 5.173 3.044 12.18-1.436 16.66l-24.434 24.434c-3.037 3.037-7.322 4.368-11.514 3.597l-116.613-36.075 11.396-77.444 103.793-12.097c10.19-.964 18.053-12.422 13.914-23.269l-6.342-16.05c-1.635-4.113-4.736-7.302-8.519-9.116l7.213-7.213c16.516-16.516 16.516-43.389 0-59.904l-36.846-36.846c-14.069-14.587-39.762-16.814-56.368-3.156.087-.25-12.453-9.083-13.015-9.51-6.907-4.653-17.336-4.816-24.198 2.823-10.471-7.226-23.305-18.968-37.224-19.518l-46.453-3.604c-13.647-1.06-27.017 3.875-36.674 13.544l-22.516 22.506c-11.466 11.326-16.638 29.869-11.833 45.822l34.81 83.213c-7.723 4.244-10.755 17.119-3.257 24.704l-196.107 196.108c-8 8-12.407 18.637-12.407 29.952 0 11.314 4.406 21.952 12.407 29.953l36.845 36.835c8.259 8.259 19.104 12.388 29.952 12.387 10.846-.001 21.695-4.13 29.952-12.387l196.104-196.093 4.127 4.127c6.88 6.846 19.066 7.431 26.679-1.478l117.121 36.232c7.623 2.14 19.369-.368 26.178-7.437l24.434-24.434c9.601-9.601 10.938-24.592 3.217-35.727zm-136.169-188.242 30.65 21.925c4.226 3.03 7.465 7.173 9.367 11.979l13.62 34.431-64.851 7.873zm84.793 99.876c-.197.33-.662.899-1.555 1.003l-99.795 11.631 3.078-20.918 89.891-10.912c.938-.117 1.841.428 2.191 1.308l6.338 16.04c.332.837.05 1.517-.148 1.848zm-60.349-133.902c7.308 0 14.178 2.846 19.345 8.013l36.846 36.846c10.667 10.667 10.667 28.024 0 38.691l-13.119 13.119-13.552-34.259c-2.964-7.49-8.003-13.938-14.581-18.655l-36.928-26.416c.074-.607 1.042-6.87 1.131-7.814 4.368-5.108 12.934-9.628 20.858-9.525zm-195.888 11.097 22.517-22.506c6.557-6.564 15.632-9.91 24.903-9.194l46.454 3.604c8.932-.436 26.183 14.836 33.271 19.345l-23.332 150.147-66.963 7.809c-.26.034-.527-.061-.713-.248l-16.256-16.256c.13.043-.793-1.071.505-1.485l60.997-7.404c4.112-.499 7.041-4.237 6.542-8.349s-4.237-7.038-8.349-6.542l-52.27 6.345-35.692-85.321c-2.603-10.705.587-22.138 8.386-29.945zm96.755 186.814-26.414-26.413 31.081-3.624zm-197.608 238.561c-5.167 5.167-12.038 8.013-19.346 8.013s-14.178-2.846-19.346-8.014l-36.845-36.835c-5.167-5.168-8.013-12.038-8.013-19.345 0-7.308 2.846-14.178 8.013-19.346l196.102-196.102 5.817 5.817c3.331 3.321 9.66 5.635 15.801 4.221l-54.367 54.367c-2.929 2.929-2.929 7.678 0 10.606 1.464 1.464 3.384 2.197 5.303 2.197s3.839-.732 5.303-2.197l59.959-59.959 15.548 15.548-75.126 75.126c-2.929 2.929-2.929 7.678 0 10.606 1.464 1.464 3.384 2.197 5.303 2.197s3.839-.732 5.303-2.197l75.126-75.126 10.221 10.221c-1.146 7.644-3.805 16.313 1.517 23.939zm224.429-191.259c-.638.212-1.876.4-2.986-.708l-12.708-12.708c-.657-.657-.964-1.598-.821-2.517l35.785-230.287c.874-1.184.562-3.715 4.886-2.051l11.128 7.958c.358.476.752.096 1.269 2.987l-34.578 234.977c-.229 1.552-1.335 2.138-1.975 2.349z"/><path d="m230.753 110.841c1.016 0 2.049-.208 3.037-.646 3.786-1.68 5.494-6.11 3.815-9.897l-6.958-15.688c-1.46-3.291-.73-7.213 1.815-9.759l13.68-13.68c2.929-2.929 2.929-7.677 0-10.606-2.929-2.93-7.678-2.929-10.606 0l-13.681 13.68c-6.899 6.9-8.876 17.528-4.92 26.447l6.958 15.688c1.241 2.798 3.984 4.461 6.86 4.461z"/><path d="m172.808 339.239-27.487 27.487c-2.929 2.929-2.929 7.678 0 10.606 1.464 1.464 3.384 2.197 5.303 2.197s3.839-.732 5.303-2.197l27.487-27.487c2.929-2.929 2.929-7.678 0-10.606-2.929-2.929-7.678-2.929-10.606 0z"/></g></g></svg>