<svg id="Filled_Expand" height="512" viewBox="0 0 64 64" width="512" xmlns="http://www.w3.org/2000/svg" data-name="Filled Expand"><path d="m27 8-9 54h28l-9-54z" fill="#dcedf7"/><path d="m2 23h60a0 0 0 0 1 0 0v4a16 16 0 0 1 -16 16h-28a16 16 0 0 1 -16-16v-4a0 0 0 0 1 0 0z" fill="#ebf5ff"/><path d="m32 50a5 5 0 0 1 5 5v7a0 0 0 0 1 0 0h-10a0 0 0 0 1 0 0v-7a5 5 0 0 1 5-5z" fill="#f55a8c"/><path d="m62 21.25h-21.018l-2.256-13.538a1.751 1.751 0 0 0 -1.726-1.462h-10a1.751 1.751 0 0 0 -1.726 1.462l-2.256 13.538h-21.018a1.751 1.751 0 0 0 -1.75 1.75v4a17.769 17.769 0 0 0 17.75 17.75h1.1l-2.583 15.5h-6.517a1.75 1.75 0 0 0 0 3.5h44a1.75 1.75 0 0 0 0-3.5h-6.518l-2.582-15.5h1.1a17.769 17.769 0 0 0 17.75-17.75v-4a1.751 1.751 0 0 0 -1.75-1.75zm-33.518-11.5h7.036l1.916 11.5h-10.868zm6.768 50.5h-6.5v-5.25a3.25 3.25 0 0 1 6.5 0zm3.5 0v-5.25a6.75 6.75 0 0 0 -13.5 0v5.25h-5.184l2.583-15.5h18.7l2.583 15.5zm21.5-33.25a14.267 14.267 0 0 1 -14.25 14.25h-28a14.267 14.267 0 0 1 -14.25-14.25v-2.25h56.5z"/><path d="m54.48 8.132a8.842 8.842 0 0 0 0 8.736 1.75 1.75 0 0 0 3.04-1.736 5.325 5.325 0 0 1 0-5.264 8.842 8.842 0 0 0 0-8.736 1.75 1.75 0 0 0 -3.04 1.736 5.325 5.325 0 0 1 0 5.264z"/><path d="m46.48 8.132a8.842 8.842 0 0 0 0 8.736 1.75 1.75 0 0 0 3.04-1.736 5.325 5.325 0 0 1 0-5.264 8.842 8.842 0 0 0 0-8.736 1.75 1.75 0 0 0 -3.04 1.736 5.325 5.325 0 0 1 0 5.264z"/><path d="m14.48 8.132a8.842 8.842 0 0 0 0 8.736 1.75 1.75 0 0 0 3.04-1.736 5.325 5.325 0 0 1 0-5.264 8.842 8.842 0 0 0 0-8.736 1.75 1.75 0 0 0 -3.04 1.736 5.325 5.325 0 0 1 0 5.264z"/><path d="m6.48 8.132a8.842 8.842 0 0 0 0 8.736 1.75 1.75 0 1 0 3.04-1.736 5.325 5.325 0 0 1 0-5.264 8.842 8.842 0 0 0 0-8.736 1.75 1.75 0 0 0 -3.04 1.736 5.325 5.325 0 0 1 0 5.264z"/></svg>