<svg id="Layer_1" enable-background="new 0 0 512 512" viewBox="0 0 512 512" xmlns="http://www.w3.org/2000/svg"><g><g><g clip-rule="evenodd" fill-rule="evenodd"><g><path d="m421.459 13.728h19.168c3.287 0 5.976 2.69 5.976 5.976v458.746c0 3.286-2.689 5.976-5.976 5.976h-19.168c-3.287 0-5.976-2.69-5.976-5.976v-458.745c0-3.286 2.689-5.977 5.976-5.977zm-349.64 0h23.152c2.191 0 3.984 1.794 3.984 3.984v462.729c0 2.191-1.793 3.984-3.984 3.984h-23.152c-2.191 0-3.984-1.793-3.984-3.984v-462.729c.001-2.19 1.793-3.984 3.984-3.984z" fill="#8d9ca8"/><path d="m427.678 13.728h12.949c3.287 0 5.976 2.69 5.976 5.976v458.746c0 3.286-2.689 5.976-5.976 5.976h-12.949c3.287 0 5.976-2.69 5.976-5.976v-458.745c0-3.286-2.689-5.977-5.976-5.977zm-345.656 0h12.949c2.191 0 3.984 1.794 3.984 3.984v462.729c0 2.191-1.793 3.984-3.984 3.984h-12.949c2.191 0 3.984-1.793 3.984-3.984v-462.729c0-2.19-1.793-3.984-3.984-3.984z" fill="#7a8c98"/><path d="m405.6 466.642h50.886c2.66 0 4.919 1.654 5.721 4.191l6.206 19.63c.595 1.882.286 3.762-.881 5.354-1.167 1.593-2.866 2.454-4.84 2.454h-63.299c-1.974 0-3.673-.861-4.84-2.454-1.167-1.592-1.476-3.472-.881-5.354l6.206-19.63c.803-2.537 3.062-4.191 5.722-4.191zm-347.648 0h50.886c2.66 0 4.919 1.654 5.721 4.191l6.206 19.63c.595 1.882.286 3.762-.881 5.354-1.167 1.593-2.866 2.454-4.84 2.454h-63.298c-1.974 0-3.673-.861-4.84-2.454-1.167-1.592-1.476-3.472-.881-5.354l6.206-19.63c.802-2.537 3.061-4.191 5.721-4.191z" fill="#596c76"/><path d="m444.034 466.642h12.453c2.66 0 4.919 1.654 5.721 4.191l6.206 19.63c.595 1.882.286 3.762-.881 5.354-1.167 1.593-2.866 2.454-4.84 2.454h-12.453c1.974 0 3.673-.861 4.84-2.454 1.167-1.592 1.476-3.472.881-5.354l-6.206-19.63c-.802-2.537-3.061-4.191-5.721-4.191zm-347.649 0h12.453c2.66 0 4.919 1.654 5.721 4.191l6.206 19.63c.595 1.882.286 3.762-.881 5.354-1.167 1.593-2.866 2.454-4.84 2.454h-12.452c1.974 0 3.673-.861 4.84-2.454 1.167-1.592 1.476-3.472.881-5.354l-6.206-19.63c-.803-2.537-3.061-4.191-5.722-4.191z" fill="#465a61"/><path d="m16.196 44.998h482.048c3.288 0 5.976 2.694 5.976 5.976v38.55c0 3.282-2.693 5.976-5.976 5.976h-482.048c-3.283 0-5.976-2.689-5.976-5.976v-38.55c-.001-3.288 2.688-5.976 5.976-5.976z" fill="#ffda2d"/><path d="m492.596 44.998h5.647c3.288 0 5.976 2.694 5.976 5.976v38.55c0 3.282-2.693 5.976-5.976 5.976h-482.047c-3.283 0-5.976-2.689-5.976-5.976v-5.184h476.4c3.283 0 5.976-2.694 5.976-5.976z" fill="#ffc700"/><path d="m16.196 116.162h482.048c3.288 0 5.976 2.694 5.976 5.976v38.55c0 3.282-2.693 5.976-5.976 5.976h-482.048c-3.283 0-5.976-2.689-5.976-5.976v-38.55c-.001-3.287 2.688-5.976 5.976-5.976z" fill="#ffda2d"/><path d="m492.596 116.162h5.647c3.288 0 5.976 2.694 5.976 5.976v38.55c0 3.282-2.693 5.976-5.976 5.976h-482.047c-3.283 0-5.976-2.689-5.976-5.976v-5.184h476.4c3.283 0 5.976-2.694 5.976-5.976z" fill="#ffc700"/><path d="m16.196 233.619h482.048c3.288 0 5.976 2.693 5.976 5.976v38.55c0 3.282-2.693 5.976-5.976 5.976h-482.048c-3.283 0-5.976-2.689-5.976-5.976v-38.55c-.001-3.287 2.688-5.976 5.976-5.976z" fill="#ffda2d"/><path d="m492.596 233.619h5.647c3.288 0 5.976 2.693 5.976 5.976v38.55c0 3.282-2.693 5.976-5.976 5.976h-482.047c-3.283 0-5.976-2.689-5.976-5.976v-5.184h476.4c3.283 0 5.976-2.694 5.976-5.976z" fill="#ffc700"/><path d="m16.196 304.784h482.048c3.288 0 5.976 2.694 5.976 5.976v38.55c0 3.282-2.693 5.976-5.976 5.976h-482.048c-3.283 0-5.976-2.689-5.976-5.976v-38.55c-.001-3.288 2.688-5.976 5.976-5.976z" fill="#ffda2d"/><path d="m492.596 304.784h5.647c3.288 0 5.976 2.694 5.976 5.976v38.55c0 3.282-2.693 5.976-5.976 5.976h-482.047c-3.283 0-5.976-2.689-5.976-5.976v-5.183h476.4c3.283 0 5.976-2.694 5.976-5.976z" fill="#ffc700"/></g><g><path d="m380.306 160.547c-93.253-56.226-152.922-56.227-246.174 0v104.092c0 35.972 15.582 66.366 44.792 87.36l78.295 56.272 78.292-56.271c29.211-20.995 44.796-51.387 44.796-87.361v-104.092z" fill="#72d561"/><path d="m380.306 160.547c-6.177-3.724-12.202-7.194-18.104-10.425v103.614c0 35.973-15.584 66.366-44.796 87.361l-76.825 55.217 16.637 11.957 78.293-56.271c29.211-20.995 44.796-51.387 44.796-87.361v-104.092z" fill="#3cbe52"/></g><g><path d="m213.134 330.226c.006-.468 83.996-2.069 84.007-2.525.809-31.191 14.897-34.349 40.819-79.602 13.613-23.765-5.169-45.841-20.044-26.861l-22.826 29.128v-75.734c0-7.016-5.74-12.756-12.755-12.756-7.004 0-12.738 5.721-12.755 12.724v-17.949c0-7.016-5.74-12.755-12.756-12.755s-12.756 5.741-12.756 12.755v15.207c-.029-6.992-5.757-12.703-12.755-12.703-7.016 0-12.756 5.741-12.756 12.756v21.626c0-7.016-5.74-12.756-12.755-12.756-7.016 0-12.756 5.741-12.756 12.756l.001 66.542c0 15.035 2.201 49.926 20.087 70.147z" fill="#ffd6bd"/><g fill="#f9c6aa"><path d="m205.026 193.537c0-4.854 2.749-9.098 6.766-11.252-1.789-.959-3.828-1.504-5.99-1.504-7.016 0-12.756 5.741-12.756 12.756v36.775c0 3.308 2.682 5.99 5.99 5.99s5.99-2.682 5.99-5.99c0-12.258 0-24.516 0-36.775z"/><path d="m230.537 171.911c0-4.854 2.749-9.097 6.766-11.252-1.789-.959-3.828-1.504-5.99-1.504-7.016 0-12.756 5.741-12.756 12.756v59.236c0 3.308 2.682 5.99 5.99 5.99s5.99-2.682 5.99-5.99c0-12.258 0-46.977 0-59.236z"/><path d="m256.047 156.651c0-4.854 2.749-9.097 6.766-11.251-1.789-.959-3.829-1.504-5.99-1.504-7.016 0-12.756 5.741-12.756 12.756v77.76c0 3.308 2.682 5.99 5.99 5.99s5.99-2.682 5.99-5.99c0-12.258.001-65.502 0-77.761z"/><path d="m281.558 174.632c0-4.854 2.749-9.097 6.766-11.252-1.789-.959-3.828-1.504-5.99-1.504-7.016 0-12.756 5.741-12.756 12.756v63.291c0 3.308 2.682 5.99 5.99 5.99s5.99-2.682 5.99-5.99c0-12.258.001-51.032 0-63.291z"/><path d="m317.917 221.238c-7.606 9.711-15.217 19.419-22.826 29.128-2.04 2.604-1.584 6.369 1.02 8.409s6.369 1.583 8.409-1.02l2.832-3.613 18.088-23.083c5.515-7.038 11.566-8.427 16.306-6.182-3.224-11.13-14.324-15.769-23.829-3.639z"/></g><path d="m209.681 322.948h85.433c1.1 0 2 .9 2 2v17.682c0 1.1-.9 2-2 2h-85.433c-1.1 0-2-.9-2-2v-17.682c0-1.1.9-2 2-2z" fill="#64b5f6"/><path d="m297.114 334.851v7.779c0 1.1-.9 2-2 2h-85.433c-1.1 0-2-.9-2-2v-7.779c0 1.1.9 2 2 2h85.433c1.1 0 2-.9 2-2z" fill="#42a5f5"/></g></g></g><path clip-rule="evenodd" d="m494.999 347.438h-23.687l9.281-34.661h14.406zm-57.617 111.202h-15.123v-95.202h15.123zm21.358 31.629h-57.839l4.947-15.633h47.95zm-202.74-91.849-73.627-52.92c-27.125-19.49-41.461-47.455-41.461-80.861v-99.549c87.6-51.892 142.571-51.892 230.176 0v99.549c0 33.397-14.336 61.371-41.465 80.861zm-166.268 60.22h-15.114v-95.352h15.114zm21.362 31.629h-57.838l4.942-15.633h47.954zm-94.093-177.491h26.328l-9.243 34.51h-17.085zm57.617-20.66h15.114v4.659h-15.114zm-57.617-50.501h26.328l-9.243 34.5h-17.085zm57.617-66.959h15.114v50.958h-15.114zm-57.617-50.501h26.328l-9.243 34.5h-17.085zm57.617-20.66h15.114v4.659h-15.114zm-57.617-50.501h26.328l-9.243 34.5h-17.085zm57.617-31.265h15.114v15.265h-15.114zm347.641 0h15.123v15.265h-15.123zm72.74 65.766h-23.649l9.243-34.5h14.406zm-57.617 20.66h-15.123v-4.659h15.123zm57.617 50.501h-23.649l9.243-34.5h14.406zm-57.617 66.958h-15.123v-50.958h15.123zm57.617 50.501h-23.649l9.243-34.5h14.406zm-57.617 20.66h-15.123v-4.659h15.123zm-60.234 16.001c-5.81 12.883-14.11 24.513-24.805 34.661h32.289l9.276-34.661zm16.759-188.621h-69.345c18.137 6.993 37.448 16.75 58.659 29.54.877.533 1.627 1.221 2.24 2.023zm-265.128 29.54c21.211-12.789 40.518-22.546 58.659-29.54h-57.428l-9.243 34.5h4.381c.495-2.051 1.782-3.847 3.631-4.96zm1.231 159.081-9.243 34.51h38.716c-10.615-10.12-18.858-21.697-24.63-34.51zm-2.085-20.66c.358 1.57.754 3.122 1.179 4.659h-23.371v-4.659zm-2.504-16.001h-4.654l4.145-15.467v3.989c0 3.891.174 7.72.509 11.478zm-.509-101.459v50.958h-19.179v-50.958zm262.177 50.958v-50.958h19.174v50.958zm0 16.001h6.819l-6.857 25.602c.019-.858.038-1.721.038-2.58zm-4.188 55.16c.419-1.537.806-3.089 1.17-4.659h22.192v4.659zm18.33-20.66 9.248-34.5h53.552l-9.248 34.5zm0-117.459 9.248-34.5h53.552l-9.248 34.5zm5.032-55.161v4.659h-300.53v-4.659zm-231.944-16h-53.552l9.243-34.5h53.552zm70.113 0h-53.547l9.243-34.5h53.552zm70.119 0h-53.552l9.248-34.5h53.552zm70.118 0h-53.547l9.238-34.5h53.547zm79.362-34.501-9.248 34.5h-53.552l9.248-34.5zm-350.583 0-9.248 34.5h-53.547l9.243-34.5zm0 71.161-9.248 34.5h-53.547l9.243-34.5zm0 117.46-9.248 34.5h-53.547l9.243-34.5zm-62.795 105.671 9.243-34.51h53.552l-9.248 34.51zm350.536.15 9.29-34.661h53.552l-9.29 34.661zm109.811-36.679c0-7.71-6.272-13.982-13.977-13.982h-43.644v-4.659h43.644c7.705 0 13.977-6.267 13.977-13.968v-38.551c0-7.71-6.272-13.982-13.977-13.982h-43.644v-50.958h43.644c7.705 0 13.977-6.267 13.977-13.968v-38.551c0-7.71-6.272-13.982-13.977-13.982h-43.644v-4.659h43.644c7.705 0 13.977-6.267 13.977-13.977v-38.553c0-7.701-6.272-13.973-13.977-13.973h-43.644v-17.288c0-7.71-6.267-13.978-13.968-13.978h-19.171c-7.71 0-13.978 6.267-13.978 13.978v17.288h-300.53v-19.288c0-6.612-5.371-11.978-11.983-11.978h-23.149c-6.612 0-11.983 5.366-11.983 11.978v19.287h-43.639c-7.71.001-13.978 6.273-13.978 13.974v38.551c0 7.71 6.267 13.977 13.978 13.977h43.639v4.659h-43.639c-7.71.001-13.978 6.273-13.978 13.983v38.551c0 7.701 6.267 13.968 13.978 13.968h43.639v50.958h-43.639c-7.71 0-13.978 6.272-13.978 13.983v38.551c0 7.701 6.267 13.968 13.978 13.968h43.639v4.659h-43.639c-7.71 0-13.978 6.272-13.978 13.982v38.551c0 7.71 6.267 13.978 13.978 13.978h43.639v95.352h-1.886c-6.135 0-11.502 3.928-13.346 9.781l-6.211 19.627c-1.358 4.301-.608 8.861 2.056 12.501 2.669 3.631 6.781 5.72 11.294 5.72h63.3c4.508 0 8.625-2.089 11.289-5.72 2.669-3.641 3.419-8.201 2.056-12.501l-6.206-19.627c-1.844-5.852-7.21-9.781-13.346-9.781h-1.886v-95.352h73.966l71.632 51.482c1.396 1 3.032 1.5 4.669 1.5s3.273-.5 4.669-1.5l71.41-51.331h74.184v95.202h-1.882c-6.14 0-11.502 3.928-13.35 9.781l-6.201 19.627c-1.358 4.301-.608 8.861 2.051 12.501 2.669 3.631 6.781 5.72 11.29 5.72h63.299c4.513 0 8.63-2.089 11.299-5.72 2.66-3.641 3.41-8.201 2.051-12.501l-6.201-19.627c-1.848-5.852-7.22-9.781-13.35-9.781h-1.891v-95.202h44.815c7.16-.597 12.806-6.618 12.806-13.933.003-12.916.003-25.831.003-38.747zm-181.198-66.643c6.267-10.945 3.159-19.599.189-21.598-2.443-1.641-5.711 2-6.998 3.65l-22.82 29.129c-2.113 2.683-5.682 3.739-8.913 2.622-3.225-1.108-5.39-4.15-5.39-7.559v-75.73c0-2.579-2.179-4.749-4.753-4.749-2.575 0-4.749 2.169-4.758 4.739v62.158c0 4.419-3.579 7.998-7.998 7.998s-8.002-3.579-8.002-7.998v-80.13c0-2.579-2.174-4.749-4.754-4.749s-4.753 2.169-4.753 4.749v77.39c0 4.419-3.584 7.998-8.002 7.998-4.419 0-7.998-3.579-7.998-7.998v-62.148c-.014-2.613-2.146-4.73-4.758-4.73-2.575 0-4.753 2.169-4.753 4.749v62.932c0 4.419-3.579 7.998-7.998 7.998s-8.003-3.579-8.003-7.998v-41.3c0-2.584-2.174-4.763-4.753-4.763-2.575 0-4.753 2.179-4.753 4.763v66.539c0 10.507 1.151 35.901 11.266 54.868h78.008c2.514-14.378 8.847-23.23 18.085-36.127 6.066-8.471 13.616-19.015 22.609-34.705zm-41.909 92.514v-5.683h-73.434v5.683zm51.024-127.391c-6.937-4.669-18.575-5.631-28.516 7.059l-8.531 10.879v-52.547c0-11.44-9.309-20.749-20.754-20.749-1.679 0-3.311.198-4.871.566-1.099-10.408-9.936-18.547-20.641-18.547-9.79 0-18.019 6.81-20.193 15.949-1.698-.448-3.48-.689-5.32-.689-11.44 0-20.754 9.309-20.754 20.749v1.42c-1.528-.359-3.117-.552-4.753-.552-11.445 0-20.754 9.314-20.754 20.764v66.539c0 12.228 1.457 42.489 14.633 65.049v19.5c0 4.419 3.579 8.003 7.998 8.003h89.43c4.419 0 7.998-3.584 7.998-8.003v-16.727h.033c.457-17.684 5.418-24.602 16.279-39.773 6.281-8.762 14.091-19.66 23.48-36.061 10.26-17.902 5.63-35.831-4.764-42.829z" fill-rule="evenodd"/></g></svg>