<svg height="512" viewBox="0 0 64 64" width="512" xmlns="http://www.w3.org/2000/svg"><g id="Sale"><path d="m50 16.59h4v28.41h-4z" fill="#efc43a"/><path d="m10 16.59h4v28.41h-4z" fill="#efc43a"/><path d="m7 9 5-8h40l5 8z" fill="#ffdf57"/><path d="m27 9v3a5 5 0 0 0 10 0v-3z" fill="#e2af30"/><path d="m37 9v3a5 5 0 0 0 10 0v-3z" fill="#efc43a"/><path d="m47 9v3a5 5 0 0 0 10 0v-3z" fill="#e2af30"/><path d="m7 9v3a5 5 0 0 0 10 0v-3z" fill="#e2af30"/><path d="m17 9v3a5 5 0 0 0 10 0v-3z" fill="#efc43a"/><path d="m8 57h48v6h-48z" fill="#ffdf57"/><path d="m8 51h48v6h-48z" fill="#efc43a"/><path d="m8 45h48v6h-48z" fill="#ffdf57"/><path d="m19 23h26v16h-26z" fill="#ffdf57"/><path d="m37 9h-10l1-8h8z" fill="#efc43a"/><path d="m20 1-3 8h-10l5-8z" fill="#efc43a"/><path d="m57 9h-10l-3-8h8z" fill="#efc43a"/><g fill="#352d34"><path d="m31.647 31.936a1.3 1.3 0 0 1 .814.638c.007.027.028.108-.122.285-.248.294-1.039-.257-1.051-.266a1 1 0 0 0 -1.223 1.582 3.954 3.954 0 0 0 .935.536v.289a1 1 0 0 0 2 0v-.216a2.21 2.21 0 0 0 .869-.636 2.278 2.278 0 0 0 .527-2.079 3.116 3.116 0 0 0 -2.043-2.005 1.3 1.3 0 0 1 -.814-.638c-.007-.027-.028-.108.122-.285.246-.293 1.043.26 1.046.262a1 1 0 1 0 1.228-1.578 3.927 3.927 0 0 0 -.935-.538v-.287a1 1 0 0 0 -2 0v.211a2.224 2.224 0 0 0 -.869.641 2.278 2.278 0 0 0 -.527 2.079 3.116 3.116 0 0 0 2.043 2.005z"/><path d="m58 12v-3a1.749 1.749 0 0 0 -.152-.53l-5-8a1 1 0 0 0 -.848-.47h-40a1 1 0 0 0 -.848.47l-5 8a1.749 1.749 0 0 0 -.152.53v3a6 6 0 0 0 3 5.188v26.812h-1a1 1 0 0 0 -1 1v18a1 1 0 0 0 1 1h48a1 1 0 0 0 1-1v-18a1 1 0 0 0 -1-1h-1v-26.812a6 6 0 0 0 3-5.188zm-2 0a4 4 0 0 1 -8 0v-2h8zm-41 32v-26.812a6.041 6.041 0 0 0 2-1.878 6.008 6.008 0 0 0 4 2.6v4.09h-2a1 1 0 0 0 -1 1v16a1 1 0 0 0 1 1h26a1 1 0 0 0 1-1v-16a1 1 0 0 0 -1-1h-2v-4.09a6.008 6.008 0 0 0 4-2.6 6.041 6.041 0 0 0 2 1.878v26.812zm11.867-42-.75 6h-7.674l2.25-6zm16.44 0 2.25 6h-7.674l-.75-6zm-25.307 8h8v2a4 4 0 0 1 -8 0zm18 2a4 4 0 0 1 -8 0v-2h8zm8 12v14h-24v-14zm-21-2v-4.09a6.008 6.008 0 0 0 4-2.6 5.992 5.992 0 0 0 10 0 6.008 6.008 0 0 0 4 2.6v4.09zm19-6a4 4 0 0 1 -4-4v-2h8v2a4 4 0 0 1 -4 4zm-6.133-8h-7.734l.75-6h6.234zm19.333 0h-7.5l-2.25-6h6zm-42.646-6h6l-2.25 6h-7.5zm-4.554 8h8v2a4 4 0 0 1 -8 0zm3 7.91a5.6 5.6 0 0 0 2 0v26.09h-2zm-2 28.09h46v4h-46zm0 6h46v4h-46zm46 10h-46v-4h46zm-2-18h-2v-26.09a5.6 5.6 0 0 0 2 0z"/><circle cx="12" cy="60" r="1"/><circle cx="52" cy="60" r="1"/><circle cx="12" cy="54" r="1"/><circle cx="52" cy="54" r="1"/><circle cx="12" cy="48" r="1"/><circle cx="52" cy="48" r="1"/><path d="m38 32h1a1 1 0 0 0 0-2h-1a1 1 0 0 0 0 2z"/><path d="m25 32h1a1 1 0 0 0 0-2h-1a1 1 0 0 0 0 2z"/></g></g></svg>