<svg id="Layer_1-2" viewBox="0 0 64 64" xmlns="http://www.w3.org/2000/svg"><g id="Gas_Stove"><path d="m14 1h-4c-1.65429688 0-3 1.34570312-3 3v6h4v-5h3c1.10253906 0 2-.89746094 2-2s-.89746094-2-2-2z" fill="#e2614b"/><path d="m26 1h-4c-1.10253906 0-2 .89746094-2 2s.89746094 2 2 2h3v5h4v-6c0-1.65429688-1.34570312-3-3-3z" fill="#e2614b"/><path d="m42 1h-4c-1.65429688 0-3 1.34570312-3 3v6h4v-5h3c1.10253906 0 2-.89746094 2-2s-.89746094-2-2-2z" fill="#e2614b"/><path d="m54 1h-4c-1.10253906 0-2 .89746094-2 2s.89746094 2 2 2h3v5h4v-6c0-1.65429688-1.34570312-3-3-3z" fill="#e2614b"/><path d="m6 63c-1.10253906 0-2-.89746094-2-2v-38h56v38c0 1.10253906-.89746094 2-2 2z" fill="#ffefde"/><rect fill="#f58569" height="14" rx="1" width="58" x="3" y="9"/><path d="m6 63c-1.10253906 0-2-.89746094-2-2v-6h56v6c0 1.10253906-.89746094 2-2 2z" fill="#f58569"/><circle cx="51" cy="16" fill="#e2614b" r="3"/><circle cx="41" cy="16" fill="#e2614b" r="3"/><circle cx="23" cy="16" fill="#e2614b" r="3"/><circle cx="13" cy="16" fill="#e2614b" r="3"/><path d="m12 34h40v24h-40z" fill="#b6d4ff"/><path d="m9 28h46v6h-46z" fill="#f58569"/><g fill="#433d4c"><path d="m60 8h-2v-4c0-2.20605469-1.79394531-4-4-4h-4c-1.65429688 0-3 1.34570312-3 3s1.34570312 3 3 3h2v2h-12v-2h2c1.65429688 0 3-1.34570312 3-3s-1.34570312-3-3-3h-4c-2.20605469 0-4 1.79394531-4 4v4h-4v-4c0-2.20605469-1.79394531-4-4-4h-4c-1.65429688 0-3 1.34570312-3 3s1.34570312 3 3 3h2v2h-12v-2h2c1.65429688 0 3-1.34570312 3-3s-1.34570312-3-3-3h-4c-2.20605469 0-4 1.79394531-4 4v4h-2c-1.10253906 0-2 .89746094-2 2v12c0 .73669434.4052124 1.37469482 1 1.72167969v37.27832031c0 1.65429688 1.34570312 3 3 3h52c1.65429688 0 3-1.34570312 3-3v-37.27832031c.5947876-.34698486 1-.98498535 1-1.72167969v-12c0-1.10253906-.89746094-2-2-2zm-7-4h-3c-.55175781 0-1-.44824219-1-1s.44824219-1 1-1h4c1.10253906 0 2 .89746094 2 2v4h-2v-3c0-.55273438-.44726562-1-1-1zm-17 0c0-1.10253906.89746094-2 2-2h4c.55175781 0 1 .44824219 1 1s-.44824219 1-1 1h-3c-.55273438 0-1 .44726562-1 1v3h-2zm-11 0h-3c-.55175781 0-1-.44824219-1-1s.44824219-1 1-1h4c1.10253906 0 2 .89746094 2 2v4h-2v-3c0-.55273438-.44726562-1-1-1zm-17 0c0-1.10253906.89746094-2 2-2h4c.55175781 0 1 .44824219 1 1s-.44824219 1-1 1h-3c-.55273438 0-1 .44726562-1 1v3h-2zm-4 6h56l.00195312 12h-56.00195312zm55 44h-6v-19h2c.55273438 0 1-.44726562 1-1v-6c0-.55273438-.44726562-1-1-1h-46c-.55273438 0-1 .44726562-1 1v6c0 .55273438.44726562 1 1 1h2v19h-6v-30h54zm-49-21v-4h44v4zm3 2h38v22h-38zm45 27h-52c-.55175781 0-1-.44824219-1-1v-5h6v2c0 .55273438.44726562 1 1 1h40c.55273438 0 1-.44726562 1-1v-2h6v5c0 .55175781-.44824219 1-1 1z"/><path d="m51 12c-2.20605469 0-4 1.79394531-4 4s1.79394531 4 4 4 4-1.79394531 4-4-1.79394531-4-4-4zm0 6c-1.10253906 0-2-.89746094-2-2s.89746094-2 2-2 2 .89746094 2 2-.89746094 2-2 2z"/><path d="m41 12c-2.20605469 0-4 1.79394531-4 4s1.79394531 4 4 4 4-1.79394531 4-4-1.79394531-4-4-4zm0 6c-1.10253906 0-2-.89746094-2-2s.89746094-2 2-2 2 .89746094 2 2-.89746094 2-2 2z"/><path d="m23 12c-2.20605469 0-4 1.79394531-4 4s1.79394531 4 4 4 4-1.79394531 4-4-1.79394531-4-4-4zm0 6c-1.10253906 0-2-.89746094-2-2s.89746094-2 2-2 2 .89746094 2 2-.89746094 2-2 2z"/><path d="m13 12c-2.20605469 0-4 1.79394531-4 4s1.79394531 4 4 4 4-1.79394531 4-4-1.79394531-4-4-4zm0 6c-1.10253906 0-2-.89746094-2-2s.89746094-2 2-2 2 .89746094 2 2-.89746094 2-2 2z"/><path d="m38 38h-12c-.55273438 0-1 .44726562-1 1s.44726562 1 1 1h12c.55273438 0 1-.44726562 1-1s-.44726562-1-1-1z"/></g></g></svg>