<svg clip-rule="evenodd" fill-rule="evenodd" height="512" stroke-linejoin="round" stroke-miterlimit="2" viewBox="0 0 512 512" width="512" xmlns="http://www.w3.org/2000/svg"><g><path d="m256 154.522c-20.051-14.373-33.5-39.86-33.5-62.261s13.449-47.888 33.5-62.261c20.051 14.373 33.5 39.86 33.5 62.261s-13.449 47.888-33.5 62.261z" fill="#b3ff89"/><path d="m245.589 39.039c3.214-3.337 6.7-6.378 10.411-9.039 20.051 14.373 33.5 39.86 33.5 62.261s-13.449 47.888-33.5 62.261c-3.711-2.661-7.197-5.702-10.411-9.039 14.159-14.664 23.089-34.967 23.089-53.222s-8.93-38.558-23.089-53.222z" fill="#a4ee7c"/><path d="m256 154.522c2.422-24.552 17.77-48.941 37.17-60.142s48.196-12.297 70.669-2.119c-2.422 24.551-17.77 48.941-37.17 60.142s-48.196 12.297-70.669 2.119z" fill="#b3ff89"/><path d="m350.806 87.765c4.497 1.114 8.873 2.612 13.033 4.496-2.422 24.551-17.77 48.941-37.17 60.142s-48.196 12.297-70.669 2.119c.448-4.545 1.34-9.083 2.623-13.535 19.778 4.929 41.827 2.512 57.636-6.616 15.809-9.127 28.927-27.013 34.547-46.606z" fill="#a4ee7c"/><path d="m256 154.522c-22.473 10.178-51.269 9.082-70.669-2.119s-34.748-35.591-37.17-60.142c22.473-10.178 51.269-9.082 70.669 2.119s34.748 35.59 37.17 60.142z" fill="#b3ff89"/><path d="m150.784 105.796c-1.284-4.452-2.175-8.991-2.623-13.535 22.473-10.178 51.269-9.082 70.669 2.119s34.748 35.59 37.17 60.142c-4.16 1.884-8.536 3.382-13.033 4.496-5.62-19.593-18.738-37.479-34.547-46.606-15.81-9.128-37.858-11.545-57.636-6.616z" fill="#a4ee7c"/><path d="m256 157.793c-117.242-4.097-144.16 64.555-145.03 66.388-4.468 9.411-7.125 15.572-8.691 25.475-3.258 20.601.455 41.522 9.203 60.368 11.993 25.838 33.3 46.5 49.974 69.192 11.104 15.111 16.409 32.244 25.068 48.633 10.01 18.95 24.111 34.492 41.414 45.794 17.049 11.143 39.075 11.143 56.124 0 17.303-11.302 31.404-26.844 41.414-45.794 8.659-16.389 13.964-33.522 25.068-48.633 16.674-22.692 37.981-43.354 49.974-69.192 8.748-18.846 12.461-39.767 9.203-60.368-1.566-9.903-4.223-16.064-8.691-25.475-.87-1.833-27.788-70.485-145.03-66.388z" fill="#fa8184"/><path d="m236.375 157.814c100.672 3.673 124.586 64.641 125.405 66.367 4.468 9.411 7.125 15.572 8.691 25.475 3.258 20.601-.455 41.522-9.203 60.368-11.993 25.838-33.3 46.5-49.974 69.192-11.104 15.111-16.409 32.244-25.068 48.633-10.01 18.95-24.111 34.492-41.414 45.794-2.697 1.763-5.519 3.247-8.437 4.42 15.456 6.444 33.335 4.96 47.687-4.42 17.303-11.302 31.404-26.844 41.414-45.794 8.659-16.389 13.964-33.522 25.068-48.633 16.674-22.692 37.981-43.354 49.974-69.192 8.748-18.846 12.461-39.767 9.203-60.368-1.566-9.903-4.223-16.064-8.691-25.475-.87-1.833-27.788-70.485-145.03-66.388-6.847-.239-13.386-.23-19.625.021z" fill="#f37578"/><path d="m198.485 196.69c10.057 6.092-8.158 30.126-23.433 55.34s-19.723 52.817-29.78 46.725c-10.057-6.093-19.246-35.511-3.971-60.726 15.275-25.214 47.127-47.432 57.184-41.339z" fill="#fea8aa"/><g fill="#8d4ba0"><path d="m213.846 258.474c.53-.341 1.209-.341 1.738-.001 3.703 2.478 6.119 6.709 6.119 11.5s-2.416 9.023-6.119 11.5c-.529.34-1.209.34-1.738 0-3.702-2.477-6.118-6.709-6.118-11.5s2.416-9.022 6.118-11.499z"/><path d="m185.967 320.064c.529-.341 1.209-.341 1.738-.001 3.702 2.478 6.118 6.709 6.118 11.5s-2.416 9.023-6.118 11.5c-.53.34-1.209.34-1.738 0-3.703-2.477-6.119-6.709-6.119-11.5s2.416-9.022 6.119-11.499z"/><path d="m255.131 190.043c.529-.34 1.209-.34 1.738 0 3.703 2.477 6.119 6.709 6.119 11.5s-2.416 9.022-6.119 11.499c-.529.341-1.209.341-1.738.001-3.703-2.478-6.119-6.709-6.119-11.5s2.416-9.023 6.119-11.5z"/><path d="m291.318 258.474c.529-.341 1.208-.341 1.738-.001 3.702 2.478 6.118 6.709 6.118 11.5s-2.416 9.023-6.119 11.5c-.529.34-1.208.34-1.738 0-3.702-2.477-6.118-6.709-6.118-11.5s2.416-9.022 6.119-11.499z"/><path d="m255.131 320.064c.529-.341 1.209-.341 1.738-.001 3.703 2.478 6.119 6.709 6.119 11.5s-2.416 9.023-6.119 11.5c-.529.34-1.209.34-1.738 0-3.703-2.477-6.119-6.709-6.119-11.5s2.416-9.022 6.119-11.499z"/><path d="m222.153 383.167c.53-.341 1.209-.341 1.738-.001 3.703 2.478 6.119 6.709 6.119 11.5s-2.416 9.023-6.119 11.5c-.529.34-1.209.34-1.738 0-3.702-2.477-6.118-6.709-6.118-11.5s2.416-9.022 6.118-11.499z"/><path d="m324.295 320.064c.53-.341 1.209-.341 1.738-.001 3.703 2.478 6.119 6.709 6.119 11.5s-2.416 9.023-6.119 11.5c-.529.34-1.209.34-1.738 0-3.702-2.477-6.118-6.709-6.118-11.5s2.416-9.022 6.118-11.499z"/><path d="m291.318 383.167c.529-.341 1.208-.341 1.738-.001 3.702 2.478 6.118 6.709 6.118 11.5s-2.416 9.023-6.119 11.5c-.529.34-1.208.34-1.738 0-3.702-2.477-6.118-6.709-6.118-11.5s2.416-9.022 6.119-11.499z"/><path d="m324.295 213.553c.53-.34 1.209-.341 1.738-.001 3.703 2.478 6.119 6.709 6.119 11.501 0 4.791-2.416 9.022-6.119 11.499-.529.34-1.209.341-1.738.001-3.702-2.478-6.118-6.709-6.118-11.5 0-4.792 2.416-9.023 6.118-11.5z"/><path d="m364.76 265.961c.529-.341 1.209-.341 1.738-.001 3.702 2.478 6.119 6.709 6.119 11.5s-2.417 9.022-6.119 11.499c-.53.341-1.209.341-1.738.001-3.703-2.478-6.119-6.709-6.119-11.5s2.416-9.022 6.119-11.499z"/><path d="m179.742 158.773c-19.333 6.217-34.009 14.77-45.044 23.436-23.288 18.289-30.785 37.405-31.257 38.398-4.861 10.242-7.688 16.97-9.393 27.747-3.517 22.239.432 44.833 9.875 65.179 12.225 26.337 33.822 47.486 50.818 70.617 10.855 14.773 15.95 31.569 24.414 47.591 10.687 20.231 25.753 36.812 44.225 48.878 19.818 12.952 45.422 12.952 65.241 0 18.471-12.066 33.537-28.647 44.224-48.878 8.464-16.022 13.559-32.818 24.414-47.591 16.996-23.131 38.593-44.28 50.818-70.617 9.443-20.346 13.392-42.94 9.875-65.179-1.705-10.777-4.532-17.505-9.393-27.747-.472-.993-7.969-20.109-31.257-38.398-11.036-8.666-25.713-17.219-45.044-23.436 20.82-12.756 37.251-39.103 39.874-65.694.351-3.554-1.602-6.936-4.855-8.409-21.891-9.915-49.194-10.058-70.076-1.511-3.038-22.357-16.814-45.931-36.346-59.932-2.902-2.08-6.808-2.08-9.71 0-19.532 14.001-33.308 37.575-36.346 59.932-20.882-8.547-48.185-8.404-70.076 1.511-3.253 1.473-5.206 4.855-4.855 8.409 2.623 26.591 19.054 52.938 39.874 65.694zm75.967 7.348c.194.007.388.007.582 0 55.836-1.951 90.244 13.118 110.717 29.196 19.699 15.471 26.095 31.597 26.494 32.437 4.073 8.58 6.56 14.176 7.988 23.203 2.999 18.963-.479 38.211-8.531 55.559-11.761 25.338-32.779 45.512-49.131 67.766-11.352 15.449-16.868 32.918-25.72 49.674-9.334 17.67-22.47 32.172-38.603 42.71-.001.001-.001.001-.002.001-14.279 9.333-32.727 9.333-47.006 0-.001 0-.001-.001-.002-.001-16.133-10.538-29.269-25.04-38.603-42.71-8.852-16.756-14.368-34.225-25.72-49.674-16.352-22.254-37.37-42.428-49.131-67.766-8.052-17.348-11.53-36.596-8.531-55.559 1.428-9.027 3.915-14.623 7.988-23.203.399-.84 6.795-16.966 26.494-32.437 20.473-16.078 54.881-31.147 110.717-29.196zm-9.099-16.837.2-.068c-3.831-19.759-16.451-38.558-32.146-47.619-15.696-9.062-38.286-10.592-57.313-4.03 3.831 19.758 16.451 38.557 32.146 47.619 5.654 3.264 12.202 5.551 19.154 6.834 11.432-1.771 24.047-2.765 37.959-2.736zm56.739 2.736c6.952-1.283 13.5-3.57 19.154-6.834 15.695-9.062 28.315-27.861 32.146-47.619-19.027-6.562-41.617-5.032-57.313 4.03-15.695 9.061-28.315 27.86-32.146 47.619l.2.068c13.914-.029 26.529.966 37.959 2.736zm-22.182-59.55-.001-.209c0-18.123-9.97-38.452-25.166-51.649-15.196 13.197-25.166 33.526-25.166 51.649 0 .071-.001.141-.001.209 10.28 8.033 19.109 19.356 25.167 32.097 6.059-12.741 14.887-24.062 25.167-32.097z"/></g></g></svg>