<svg id="Layer_1" viewBox="0 0 1000 1000" xmlns="http://www.w3.org/2000/svg" data-name="Layer 1"><path d="m210.11 470.23h-87.84a29.77 29.77 0 0 0 0 59.54h87.84a29.77 29.77 0 0 0 0-59.54zm0 44.54h-87.84a14.77 14.77 0 0 1 0-29.54h87.84a14.77 14.77 0 0 1 0 29.54z"/><path d="m224.88 500a14.79 14.79 0 0 1 -14.77 14.77h-87.84a14.77 14.77 0 0 1 0-29.54h87.84a14.79 14.79 0 0 1 14.77 14.77z" fill="#ffa726"/><path d="m658.87 341.13a224.67 224.67 0 1 0 65.81 158.87 223.19 223.19 0 0 0 -65.81-158.87zm-158.87 368.55c-115.62 0-209.68-94.06-209.68-209.68s94.06-209.68 209.68-209.68 209.68 94.06 209.68 209.68-94.06 209.68-209.68 209.68z"/><circle cx="500" cy="500" fill="#ff0" r="209.68"/><path d="m500 92.5a29.8 29.8 0 0 0 -29.77 29.77v87.84a29.77 29.77 0 0 0 59.54 0v-87.84a29.8 29.8 0 0 0 -29.77-29.77zm14.77 117.61a14.77 14.77 0 0 1 -29.54 0v-87.84a14.77 14.77 0 0 1 29.54 0z"/><path d="m514.77 122.27v87.84a14.77 14.77 0 0 1 -29.54 0v-87.84a14.77 14.77 0 0 1 29.54 0z" fill="#ffa726"/><path d="m316.07 274-62.07-62.15a29.77 29.77 0 1 0 -42.1 42.1l62.1 62.12a29.77 29.77 0 0 0 42.1-42.1zm-10.61 31.49a14.75 14.75 0 0 1 -20.88 0l-62.12-62.11a14.77 14.77 0 0 1 20.89-20.89l62.11 62.12a14.77 14.77 0 0 1 0 20.85z"/><path d="m305.46 305.46a14.75 14.75 0 0 1 -20.88 0l-62.12-62.11a14.77 14.77 0 0 1 20.89-20.89l62.11 62.12a14.77 14.77 0 0 1 0 20.88z" fill="#ffa726"/><path d="m316.07 683.93a29.77 29.77 0 0 0 -42.1 0l-62.12 62.12a29.77 29.77 0 0 0 42.15 42.1l62.07-62.15a29.8 29.8 0 0 0 0-42.07zm-10.61 31.49-62.11 62.12a14.77 14.77 0 1 1 -20.89-20.89l62.12-62.11a14.76 14.76 0 0 1 20.88 20.88z"/><path d="m305.46 715.42-62.11 62.12a14.77 14.77 0 1 1 -20.89-20.89l62.12-62.11a14.76 14.76 0 0 1 20.88 20.88z" fill="#ffa726"/><path d="m500 760.12a29.8 29.8 0 0 0 -29.77 29.77v87.84a29.77 29.77 0 0 0 59.54 0v-87.84a29.8 29.8 0 0 0 -29.77-29.77zm14.77 117.61a14.77 14.77 0 0 1 -29.54 0v-87.84a14.77 14.77 0 1 1 29.54 0z"/><path d="m514.77 789.89v87.84a14.77 14.77 0 0 1 -29.54 0v-87.84a14.77 14.77 0 1 1 29.54 0z" fill="#ffa726"/><path d="m788.15 746.05-62.15-62.12a29.77 29.77 0 0 0 -42.1 42.1l62.12 62.12a29.77 29.77 0 0 0 42.1-42.1zm-10.61 31.49a14.76 14.76 0 0 1 -20.89 0l-62.11-62.12a14.76 14.76 0 0 1 20.88-20.88l62.12 62.11a14.79 14.79 0 0 1 0 20.89z"/><path d="m777.54 777.54a14.76 14.76 0 0 1 -20.89 0l-62.11-62.12a14.76 14.76 0 0 1 20.88-20.88l62.12 62.11a14.79 14.79 0 0 1 0 20.89z" fill="#ffa726"/><path d="m877.73 470.23h-87.84a29.77 29.77 0 1 0 0 59.54h87.84a29.77 29.77 0 0 0 0-59.54zm0 44.54h-87.84a14.77 14.77 0 1 1 0-29.54h87.84a14.77 14.77 0 0 1 0 29.54z"/><path d="m892.5 500a14.79 14.79 0 0 1 -14.77 14.77h-87.84a14.77 14.77 0 1 1 0-29.54h87.84a14.79 14.79 0 0 1 14.77 14.77z" fill="#ffa726"/><path d="m788.15 211.85a29.83 29.83 0 0 0 -42.11 0l-62.11 62.15a29.77 29.77 0 1 0 42.1 42.1l62.12-62.1a29.82 29.82 0 0 0 0-42.15zm-10.61 31.5-62.12 62.11a14.76 14.76 0 0 1 -20.88-20.88l62.11-62.12a14.77 14.77 0 1 1 20.89 20.89z"/><path d="m777.54 243.35-62.12 62.11a14.76 14.76 0 0 1 -20.88-20.88l62.11-62.12a14.77 14.77 0 1 1 20.89 20.89z" fill="#ffa726"/></svg>