<?xml version="1.0" encoding="UTF-8"?>
<svg xmlns="http://www.w3.org/2000/svg" width="512" height="512" viewBox="0 0 128 128"><g><path d="M97.1,71.745A24.533,24.533,0,0,1,115.824,80.4h.008l3.68-4.675a5.02,5.02,0,0,0-.885-7.069A34.914,34.914,0,0,0,97.1,61.275H45.4L17.246,33.125a5,5,0,0,0-7.071,0L6.307,36.993,41.058,71.745Z" fill="#ffdd70"/><path d="M30.9,71.745A24.594,24.594,0,0,0,6.307,96.339h7.915A16.679,16.679,0,0,1,30.9,79.66H97.1a16.679,16.679,0,0,1,16.68,16.679h7.915A24.594,24.594,0,0,0,97.1,71.745Z" fill="#995c5c"/><g><path d="M85.543,77.91h-4.5a1.75,1.75,0,1,0,0,3.5h4.5a1.75,1.75,0,0,0,0-3.5Z"/><path d="M118.059,80.4l2.829-3.594a6.692,6.692,0,0,0,1.393-4.984,6.769,6.769,0,0,0-2.579-4.547,36.455,36.455,0,0,0-22.6-7.755H46.12L31.152,44.557a1.749,1.749,0,1,0-2.474,2.474l15.48,15.481a1.751,1.751,0,0,0,1.237.512H97.1a32.981,32.981,0,0,1,20.453,7.017,3.288,3.288,0,0,1,1.255,2.209,3.221,3.221,0,0,1-.669,2.4l-2.419,3.072A26.266,26.266,0,0,0,97.1,69.994H41.783l-33-33,2.631-2.631a3.257,3.257,0,0,1,4.6,0l6.049,6.049a1.75,1.75,0,1,0,2.474-2.475l-6.049-6.048a6.757,6.757,0,0,0-9.546,0L5.069,35.756a1.75,1.75,0,0,0,0,2.474L25.7,58.86,17.086,73.919A26.35,26.35,0,0,0,4.557,96.339a1.749,1.749,0,0,0,1.75,1.75h7.915a1.75,1.75,0,0,0,1.75-1.75A14.946,14.946,0,0,1,30.9,81.41H71.807a1.75,1.75,0,0,0,0-3.5H30.9A18.456,18.456,0,0,0,12.554,94.589H8.123A22.875,22.875,0,0,1,30.9,73.494H97.1a22.876,22.876,0,0,1,22.778,21.1h-4.431A18.456,18.456,0,0,0,97.1,77.91H95.2a1.75,1.75,0,1,0,0,3.5h1.9a14.946,14.946,0,0,1,14.929,14.929,1.749,1.749,0,0,0,1.75,1.75h7.915a1.749,1.749,0,0,0,1.75-1.75A26.2,26.2,0,0,0,118.059,80.4Zm-95.467-9.06,5.673-9.918,8.569,8.568H30.9A26.235,26.235,0,0,0,22.592,71.344Z"/></g></g></svg>
