<svg id="Layer_1" viewBox="0 0 1000 1000" xmlns="http://www.w3.org/2000/svg" data-name="Layer 1"><path d="m500 399.23a100.77 100.77 0 1 0 100.77 100.77 100.89 100.89 0 0 0 -100.77-100.77zm-43.25 104.83a16 16 0 0 1 -32 0v-8.12a16 16 0 0 1 32 0zm59.25 59.26a16 16 0 1 1 -32 0v-8.13a16 16 0 0 1 32 0zm0-59.26a16 16 0 1 1 -32 0v-8.12a16 16 0 0 1 32 0zm0-59.25a16 16 0 0 1 -32 0v-8.13a16 16 0 0 1 32 0zm43.25 75.25a16 16 0 0 1 -16-16v-8.12a16 16 0 0 1 32 0v8.12a16 16 0 0 1 -16 16z" fill="#6d4c41"/><path d="m408.57 596.19c-10.9 22.37-18.37 44.62-22.37 66.54a167.14 167.14 0 0 1 -16.79 11.08c-70.24 40.57-161.68 23.69-196.46 15 9.8-34.48 40.78-122 111.23-162.63a173.06 173.06 0 0 1 22.89-11h.09l.24-.1.33-.12.31-.12c17.84-6.95 37.69-11.45 59.2-13.45a132.42 132.42 0 0 0 41.33 94.8z" fill="#ffc400"/><path d="m408.57 403.81a132.81 132.81 0 0 0 -37.66 65.11c-24.73 1.76-47.78 6.41-68.74 13.9a171.43 171.43 0 0 1 -18-9c-70.23-40.55-101.34-128.13-111.17-162.63 34.82-8.71 126.22-25.56 196.45 15a171.11 171.11 0 0 1 16.78 11.08c3.96 21.91 11.44 44.16 22.34 66.54z" fill="#ffc400"/><path d="m585.25 300a172.27 172.27 0 0 1 -2 26c-2.89 19-8.93 38.6-18 58.36a132.59 132.59 0 0 0 -130.46 0c-13.3-28.9-20-57.22-20-84.38 0-81.13 60.32-151.87 85.26-177.65 24.95 25.75 85.2 96.32 85.2 177.67z" fill="#ffc400"/><path d="m827 688.83c-34.76 8.75-126 25.67-196.46-15a168.16 168.16 0 0 1 -16.78-11.08c-4-21.91-11.49-44.23-22.36-66.56a132.41 132.41 0 0 0 41.32-94.85c21.52 2 41.38 6.51 59.22 13.45l.57.22h.11a174.3 174.3 0 0 1 23.18 11.13c70.28 40.59 101.39 128.21 111.2 162.69z" fill="#ffc400"/><path d="m827.06 311.19c-9.81 34.48-40.78 122-111.23 162.64a172.25 172.25 0 0 1 -18 9c-21-7.49-44-12.14-68.76-13.9a132.84 132.84 0 0 0 -37.65-65.1c10.87-22.33 18.37-44.66 22.37-66.57a170.87 170.87 0 0 1 16.77-11.07c70.28-40.57 161.71-23.7 196.5-15z" fill="#ffc400"/><path d="m585.25 700c0 81.11-60.3 151.84-85.25 177.63-24.95-25.8-85.24-96.53-85.24-177.63 0-27.16 6.72-55.48 20-84.38a132.59 132.59 0 0 0 130.46 0c9.07 19.76 15.11 39.33 18 58.37a172 172 0 0 1 2.03 26.01z" fill="#ffc400"/><g fill="#fff" opacity=".5"><path d="m490 409.23a100.77 100.77 0 1 0 100.77 100.77 100.89 100.89 0 0 0 -100.77-100.77zm-43.25 104.83a16 16 0 0 1 -32 0v-8.12a16 16 0 0 1 32 0zm59.25 59.26a16 16 0 1 1 -32 0v-8.13a16 16 0 0 1 32 0zm0-59.26a16 16 0 0 1 -32 0v-8.12a16 16 0 0 1 32 0zm0-59.25a16 16 0 0 1 -32 0v-8.13a16 16 0 0 1 32 0zm43.25 75.25a16 16 0 0 1 -16-16v-8.12a16 16 0 0 1 32 0v8.12a16 16 0 0 1 -16 16z"/><path d="m398.57 606.19c-10.9 22.37-18.37 44.62-22.37 66.54a167.14 167.14 0 0 1 -16.79 11.08c-70.24 40.57-161.68 23.69-196.46 15 9.8-34.48 40.78-122 111.23-162.63a173.06 173.06 0 0 1 22.89-11h.09l.24-.1.33-.12.31-.12c17.84-6.95 37.69-11.45 59.2-13.45a132.42 132.42 0 0 0 41.33 94.8z"/><path d="m398.57 413.81a132.81 132.81 0 0 0 -37.66 65.11c-24.73 1.76-47.78 6.41-68.74 13.9a171.43 171.43 0 0 1 -18-9c-70.23-40.55-101.34-128.13-111.17-162.63 34.82-8.71 126.22-25.56 196.45 15a171.11 171.11 0 0 1 16.78 11.08c3.96 21.91 11.44 44.16 22.34 66.54z"/><path d="m575.25 310a172.27 172.27 0 0 1 -2 26c-2.89 19-8.93 38.6-18 58.36a132.59 132.59 0 0 0 -130.46 0c-13.3-28.9-20-57.22-20-84.38 0-81.13 60.32-151.87 85.26-177.65 24.95 25.75 85.2 96.32 85.2 177.67z"/><path d="m817 698.83c-34.76 8.75-126 25.67-196.46-15a168.16 168.16 0 0 1 -16.78-11.08c-4-21.91-11.49-44.23-22.36-66.56a132.41 132.41 0 0 0 41.32-94.85c21.52 2 41.38 6.51 59.22 13.45l.57.22h.11a174.3 174.3 0 0 1 23.18 11.13c70.28 40.59 101.39 128.21 111.2 162.69z"/><path d="m817.06 321.19c-9.81 34.48-40.78 122-111.23 162.64a172.25 172.25 0 0 1 -18 9c-21-7.49-44-12.14-68.76-13.9a132.84 132.84 0 0 0 -37.65-65.1c10.87-22.33 18.37-44.66 22.37-66.57a170.87 170.87 0 0 1 16.77-11.07c70.28-40.57 161.71-23.7 196.5-15z"/><path d="m575.25 710c0 81.11-60.3 151.84-85.25 177.63-24.95-25.8-85.24-96.53-85.24-177.63 0-27.16 6.72-55.48 20-84.38a132.59 132.59 0 0 0 130.46 0c9.07 19.76 15.11 39.33 18 58.37a172 172 0 0 1 2.03 26.01z"/></g><g fill="#413b32"><path d="m617.25 300a205.61 205.61 0 0 1 -2.37 30.84q-.48 3.2-1.07 6.41c-4 21.91-11.5 44.24-22.37 66.57q-2.78 5.71-5.86 11.44a16 16 0 0 1 -28.18-15.16q4.23-7.87 7.84-15.71c9.07-19.76 15.11-39.32 18-58.36a172.27 172.27 0 0 0 2-26c0-81.35-60.28-151.92-85.23-177.65-24.94 25.78-85.26 96.52-85.26 177.65 0 27.16 6.72 55.48 20 84.38q3.59 7.83 7.83 15.72a16 16 0 1 1 -28.18 15.16q-3.09-5.73-5.86-11.45c-10.9-22.38-18.38-44.63-22.37-66.55a207.24 207.24 0 0 1 -3.41-37.29c0-1 0-2 0-3 .76-47.6 19.21-98.55 53.49-147.57 26.1-37.32 52-60.43 53.13-61.39a16 16 0 0 1 21.2 0c1.09 1 27 24.08 53.14 61.4 34.28 49 52.73 100 53.49 147.57.03.99.04 1.99.04 2.99z"/><path d="m413.43 338.44a16 16 0 0 1 -22.49 2.48q-2.34-1.87-4.74-3.66a171.11 171.11 0 0 0 -16.78-11.08c-70.23-40.55-161.63-23.7-196.45-15 9.86 34.5 41 122.08 111.21 162.64a171.43 171.43 0 0 0 18 9c1.72.75 3.46 1.46 5.21 2.15a16 16 0 0 1 .66 29.81l-.31.12-.33.12-.24.1h-.09a15.92 15.92 0 0 1 -5.08.88h-.08a15.83 15.83 0 0 1 -5.12-.84c-.25-.08-.51-.18-.76-.28a205.82 205.82 0 0 1 -27.8-13.33l-2.68-1.55c-40.84-24.45-75.73-65.91-101-120.1-19.27-41.26-26.32-75.28-26.61-76.71a16 16 0 0 1 10.6-18.36c1.39-.46 34.37-11.37 79.74-15.32 59.59-5.18 112.94 4.32 154.53 27.47.89.49 1.77 1 2.64 1.49a203.91 203.91 0 0 1 25.54 17.53 16 16 0 0 1 2.43 22.44z"/><path d="m416.72 674.18s0 0 0 0a16 16 0 0 1 -5.77 9.84 203 203 0 0 1 -25.54 17.49l-2.63 1.49c-34.19 19-76.35 28.83-123.38 28.83q-15.25 0-31.14-1.37c-45.37-4-78.36-14.87-79.74-15.33a16 16 0 0 1 -10.6-18.36c.29-1.43 7.33-35.45 26.6-76.71 25.31-54.18 60.21-95.65 101-120.09.87-.53 1.74-1 2.62-1.55a205.11 205.11 0 0 1 27.9-13.36l.31-.12c1.91-.74 3.83-1.46 5.78-2.15 21-7.49 44-12.14 68.74-13.9q6.38-.45 12.9-.65a16 16 0 0 1 .95 32q-8.92.27-17.52 1.07c-21.51 2-41.36 6.5-59.2 13.45l-.31.12-.33.12-.24.1h-.09a173.06 173.06 0 0 0 -22.89 11c-70.41 40.74-101.39 128.22-111.14 162.7 34.78 8.71 126.22 25.59 196.46-15a167.14 167.14 0 0 0 16.79-11.08c1.59-1.17 3.17-2.39 4.73-3.64a16 16 0 0 1 25.79 15.09z"/><path d="m617.25 700v3c-.76 47.6-19.21 98.55-53.49 147.56-26.12 37.35-52.07 60.44-53.16 61.44a16 16 0 0 1 -21.2 0c-1.09-1-27-24.07-53.13-61.39-34.28-49-52.73-100-53.49-147.56 0-1 0-2 0-3a207.24 207.24 0 0 1 3.44-37.26c4-21.92 11.47-44.17 22.37-66.54q2.78-5.72 5.86-11.45a16 16 0 1 1 28.18 15.16q-4.25 7.89-7.83 15.72c-.65 1.41-1.29 2.83-1.9 4.24-.47 1.07-.93 2.13-1.38 3.19q-1.67 3.93-3.16 7.85c-.41 1.08-.82 2.17-1.21 3.25-.08.2-.15.4-.22.61-.28.76-.55 1.51-.81 2.26-.53 1.5-1 3-1.52 4.49l-.54 1.66c-.22.67-.43 1.35-.64 2-.37 1.21-.73 2.43-1.08 3.64s-.69 2.43-1 3.64l-.26.95c-.17.67-.35 1.33-.51 2q-1.39 5.49-2.45 10.93c-.18.88-.34 1.75-.49 2.63s-.32 1.74-.45 2.61-.28 1.73-.42 2.58 0 0 0 0c-.12.88-.25 1.74-.37 2.61s-.23 1.74-.33 2.6l-.15 1.3c-.11 1-.21 1.92-.3 2.87q-.07.63-.12 1.26c-.07.69-.13 1.39-.18 2.08s-.11 1.43-.15 2.15c0 .44-.05.88-.08 1.32a1.7 1.7 0 0 0 0 .22c0 .52-.06 1-.08 1.56v.74c0 .54-.05 1.07-.07 1.6-.06 1.83-.09 3.66-.09 5.48 0 81.1 60.29 151.83 85.24 177.63 25-25.79 85.25-96.52 85.25-177.63a172 172 0 0 0 -2-26c-2.89-19-8.93-38.61-18-58.37q-3.6-7.85-7.84-15.71a16 16 0 0 1 28.18-15.16q3.07 5.71 5.86 11.44c10.87 22.33 18.37 44.65 22.36 66.56q.6 3.22 1.08 6.43a205.38 205.38 0 0 1 2.28 30.81z"/><path d="m851.48 715.16c-1.38.46-34.36 11.38-79.73 15.33q-15.88 1.38-31.14 1.37c-47 0-89.18-9.8-123.38-28.83-.89-.49-1.77-1-2.64-1.49a203 203 0 0 1 -25.54-17.49 16 16 0 1 1 20-25q2.34 1.88 4.73 3.65a168.16 168.16 0 0 0 16.78 11.08c70.45 40.68 161.7 23.76 196.46 15-9.85-34.48-41-122.1-111.2-162.66a174.3 174.3 0 0 0 -23.16-11.12h-.11l-.57-.22c-17.84-6.94-37.7-11.45-59.22-13.45q-8.58-.81-17.52-1.07a16 16 0 0 1 1-32q6.52.19 12.9.65c24.75 1.76 47.8 6.41 68.76 13.9q2.91 1 5.76 2.15l.33.12a206.23 206.23 0 0 1 27.89 13.36c.88.51 1.75 1 2.62 1.55 40.84 24.45 75.73 65.91 101 120.09 19.27 41.26 26.31 75.29 26.6 76.71a16 16 0 0 1 -10.62 18.37z"/><path d="m862.09 303.19c-.29 1.43-7.33 35.45-26.6 76.71-25.31 54.19-60.2 95.65-101 120.1l-2.62 1.54a205.07 205.07 0 0 1 -27.87 13.36 16 16 0 0 1 -11.3.14h-.11l-.57-.22a16 16 0 0 1 .76-29.85c1.72-.68 3.43-1.38 5.11-2.11a172.25 172.25 0 0 0 18-9c70.45-40.68 101.42-128.16 111.23-162.64-34.79-8.7-126.22-25.57-196.48 15a170.87 170.87 0 0 0 -16.77 11.07c-1.6 1.19-3.19 2.42-4.75 3.67a16 16 0 0 1 -20-25 203.91 203.91 0 0 1 25.53-17.48c.88-.51 1.76-1 2.65-1.49 41.6-23.15 94.94-32.64 154.52-27.47 45.37 3.95 78.35 14.86 79.74 15.32a16 16 0 0 1 10.53 18.35z"/><path d="m629.09 468.92a132.77 132.77 0 0 0 -261.86 31.08v1.33a132.73 132.73 0 0 0 198 114.28 134 134 0 0 0 26.2-19.43 132.41 132.41 0 0 0 41.32-94.85c0-.44 0-.89 0-1.33a132.21 132.21 0 0 0 -3.66-31.08zm-129.09 131.85a100.77 100.77 0 1 1 100.77-100.77 100.89 100.89 0 0 1 -100.77 100.77z"/><path d="m575.25 495.94v8.12a16 16 0 0 1 -32 0v-8.12a16 16 0 0 1 32 0z"/><path d="m516 555.19v8.13a16 16 0 1 1 -32 0v-8.13a16 16 0 0 1 32 0z"/><path d="m456.75 495.94v8.12a16 16 0 0 1 -32 0v-8.12a16 16 0 0 1 32 0z"/><path d="m516 436.68v8.13a16 16 0 0 1 -32 0v-8.13a16 16 0 0 1 32 0z"/><path d="m516 495.94v8.12a16 16 0 1 1 -32 0v-8.12a16 16 0 0 1 32 0z"/></g></svg>