<svg height="512" viewBox="0 0 64 64" width="512" xmlns="http://www.w3.org/2000/svg"><g id="_02-Sunflower" data-name="02-Sunflower"><path d="m39 53h7a0 0 0 0 1 0 0v1a7 7 0 0 1 -7 7h-7a0 0 0 0 1 0 0v-1a7 7 0 0 1 7-7z" fill="#59e78b"/><path d="m18 53h7a7 7 0 0 1 7 7v1a0 0 0 0 1 0 0h-7a7 7 0 0 1 -7-7v-1a0 0 0 0 1 0 0z" fill="#59e78b" transform="matrix(-1 0 0 -1 50 114)"/><g fill="#fbcc3d"><path d="m23.58 4.67s-2.93 3.38.13 10.77l7.39-3.06c-3.1-7.38-7.52-7.71-7.52-7.71z"/><path d="m40.42 45.33s2.93-3.38-.13-10.77l-7.39 3.06c3.1 7.38 7.52 7.71 7.52 7.71z"/><path d="m52.33 16.58s-3.38-2.93-10.77.13l3.06 7.39c7.38-3.1 7.71-7.52 7.71-7.52z"/><path d="m11.67 33.42s3.38 2.93 10.77-.13l-3.06-7.39c-7.38 3.1-7.71 7.52-7.71 7.52z"/><path d="m40.42 4.67s-4.42.33-7.52 7.71l7.39 3.06c3.06-7.39.13-10.77.13-10.77z"/><path d="m23.58 45.33s4.42-.33 7.52-7.71l-7.39-3.06c-3.06 7.44-.13 10.77-.13 10.77z"/><path d="m52.33 33.42s-.33-4.42-7.71-7.52l-3.06 7.39c7.44 3.06 10.77.13 10.77.13z"/><path d="m11.67 16.58s.33 4.42 7.71 7.52l3.06-7.39c-7.39-3.06-10.77-.13-10.77-.13z"/></g><path d="m32 3s-4 2-4 10h8c0-8-4-10-4-10z" fill="#f7f065"/><path d="m32 47s4-2 4-10h-8c0 8 4 10 4 10z" fill="#f7f065"/><path d="m54 25s-2-4-10-4v8c8 0 10-4 10-4z" fill="#f7f065"/><path d="m10 25s2 4 10 4v-8c-8 0-10 4-10 4z" fill="#f7f065"/><path d="m47.56 9.44s-4.25-1.44-9.9 4.25l5.65 5.65c5.69-5.65 4.25-9.9 4.25-9.9z" fill="#f7f065"/><path d="m16.44 40.56s4.25 1.41 9.9-4.25l-5.65-5.65c-5.69 5.65-4.25 9.9-4.25 9.9z" fill="#f7f065"/><path d="m47.56 40.56s1.41-4.25-4.25-9.9l-5.65 5.65c5.65 5.69 9.9 4.25 9.9 4.25z" fill="#f7f065"/><path d="m16.44 9.44s-1.41 4.25 4.25 9.9l5.65-5.65c-5.65-5.69-9.9-4.25-9.9-4.25z" fill="#f7f065"/><path d="m25 53h-.14a8 8 0 0 1 4.14 7v1h3v-1a7 7 0 0 0 -7-7z" fill="#31e170"/><path d="m46 53h-3v1a8 8 0 0 1 -4.14 7h.14a7 7 0 0 0 7-7z" fill="#31e170"/><path d="m32 3a5.29 5.29 0 0 0 -1.37 1.18c1.17 1.62 2.37 4.35 2.37 8.82h3c0-8-4-10-4-10z" fill="#fcdf54"/><path d="m46.61 21.16a8.28 8.28 0 0 1 4.28 3.39 1 1 0 0 1 0 .9 8.28 8.28 0 0 1 -4.28 3.39c5.83-.74 7.39-3.84 7.39-3.84s-1.56-3.1-7.39-3.84z" fill="#fcdf54"/><path d="m32 47s4-2 4-10h-3c0 4.47-1.2 7.2-2.37 8.82a5.29 5.29 0 0 0 1.37 1.18z" fill="#fcdf54"/><path d="m41.89 32.08c3.2 4.18 2.91 7.42 2.71 8.44a6.19 6.19 0 0 0 3 0s1.41-4.25-4.25-9.9z" fill="#fcdf54"/><path d="m41.89 17.92 1.42 1.42c5.66-5.65 4.25-9.9 4.25-9.9a6.23 6.23 0 0 0 -3 0c.24 1.07.52 4.3-2.67 8.48z" fill="#fcdf54"/><circle cx="32" cy="25" fill="#fcb860" r="13"/><path d="m33.34 37.93a13 13 0 0 0 0-25.86 14 14 0 0 1 0 25.86z" fill="#fcaa52"/><path d="m54.89 24.55a8.16 8.16 0 0 0 -4-3.29 8 8 0 0 0 2.48-4.61 1 1 0 0 0 -.34-.82 8.09 8.09 0 0 0 -5-1.5 8.23 8.23 0 0 0 .55-5.2 1 1 0 0 0 -.64-.64 8.23 8.23 0 0 0 -5.2.55 8.09 8.09 0 0 0 -1.5-5 1 1 0 0 0 -.82-.34 8 8 0 0 0 -4.61 2.48 8.16 8.16 0 0 0 -3.29-4.05 1 1 0 0 0 -.9 0 8.16 8.16 0 0 0 -3.29 4.05 8 8 0 0 0 -4.61-2.48 1 1 0 0 0 -.82.34 8.09 8.09 0 0 0 -1.5 5 8.23 8.23 0 0 0 -5.2-.55 1 1 0 0 0 -.64.64 8.23 8.23 0 0 0 .55 5.2 8.09 8.09 0 0 0 -5 1.5 1 1 0 0 0 -.34.82 8 8 0 0 0 2.48 4.61 8.16 8.16 0 0 0 -4.05 3.29 1 1 0 0 0 0 .9 8.16 8.16 0 0 0 4.05 3.29 8 8 0 0 0 -2.48 4.61 1 1 0 0 0 .34.82 8.13 8.13 0 0 0 5 1.5 8.23 8.23 0 0 0 -.55 5.2 1 1 0 0 0 .64.64 5.57 5.57 0 0 0 1.6.2 9.83 9.83 0 0 0 3.6-.74 8.15 8.15 0 0 0 1.5 5 1 1 0 0 0 .75.35h.07a8 8 0 0 0 4.61-2.48 9 9 0 0 0 2.67 3.69v7.2a8 8 0 0 0 -6-2.73h-7a1 1 0 0 0 -1 1v1a8 8 0 0 0 8 8h14a8 8 0 0 0 8-8v-1a1 1 0 0 0 -1-1h-3a1 1 0 0 0 0 2h2a6 6 0 0 1 -6 6h-6a6 6 0 0 1 6-6 1 1 0 0 0 0-2 8 8 0 0 0 -6 2.73v-7.2a9 9 0 0 0 2.74-3.69 8 8 0 0 0 4.61 2.48h.07a1 1 0 0 0 .75-.35 8.15 8.15 0 0 0 1.5-5 9.83 9.83 0 0 0 3.6.74 5.57 5.57 0 0 0 1.6-.2 1 1 0 0 0 .64-.64 8.23 8.23 0 0 0 -.55-5.2 8.13 8.13 0 0 0 5-1.5 1 1 0 0 0 .34-.82 8 8 0 0 0 -2.48-4.61 8.16 8.16 0 0 0 4-3.29 1 1 0 0 0 .07-.9zm-3.69-7.55a7.75 7.75 0 0 1 -2.52 3.5 18.76 18.76 0 0 0 -3.6-.49c-.1-.27-.21-.54-.33-.8a18.16 18.16 0 0 0 2.25-2.85 7.93 7.93 0 0 1 4.2.64zm-4.5-6.7c.1 1.09-.08 3.7-3 7.09a14.26 14.26 0 0 0 -4.13-4.13c3.43-2.89 6.04-3.05 7.13-2.96zm-6.7-4.5a7.8 7.8 0 0 1 .69 4.25 18.16 18.16 0 0 0 -2.89 2.2c-.26-.12-.53-.23-.8-.33a18.76 18.76 0 0 0 -.49-3.6 7.89 7.89 0 0 1 3.49-2.52zm-8-1.59c.84.71 2.56 2.67 2.92 7.1a14 14 0 0 0 -2.92-.31 13.54 13.54 0 0 0 -2.92.32c.36-4.45 2.08-6.41 2.92-7.11zm-8 1.59a7.75 7.75 0 0 1 3.5 2.52 18.76 18.76 0 0 0 -.49 3.6c-.27.1-.53.21-.79.33a18.66 18.66 0 0 0 -2.9-2.2 7.93 7.93 0 0 1 .68-4.25zm-6.7 4.5c1.1-.1 3.7.08 7.1 3-.22.14-.44.28-.65.44a1 1 0 1 0 1.18 1.61 11.88 11.88 0 0 1 7.07-2.35 12 12 0 1 1 -12 12 11.88 11.88 0 0 1 2.32-7.07 1 1 0 1 0 -1.61-1.18c-.16.21-.3.43-.44.65-2.9-3.4-3.07-6.01-2.97-7.1zm-4.5 6.75a7.9 7.9 0 0 1 4.25-.69 18.66 18.66 0 0 0 2.2 2.9c-.12.26-.23.52-.33.79a18.76 18.76 0 0 0 -3.6.49 7.89 7.89 0 0 1 -2.52-3.49zm-1.59 8c.71-.84 2.67-2.56 7.11-2.92a13.54 13.54 0 0 0 -.32 2.87 14 14 0 0 0 .31 2.92c-4.44-.36-6.4-2.08-7.1-2.92zm1.59 8a7.75 7.75 0 0 1 2.52-3.5 18.76 18.76 0 0 0 3.6.49c.1.27.21.54.33.8a18.16 18.16 0 0 0 -2.2 2.89 7.91 7.91 0 0 1 -4.25-.73zm4.5 6.74c-.1-1.09.08-3.7 3-7.09a14.26 14.26 0 0 0 4.13 4.13c-3.43 2.8-6.04 2.97-7.13 2.87zm6.75 4.5a7.76 7.76 0 0 1 -.69-4.29 19.31 19.31 0 0 0 2.9-2.2l.79.32a18.76 18.76 0 0 0 .49 3.6 7.89 7.89 0 0 1 -3.49 2.48zm-5.05 9.71h6a6 6 0 0 1 6 6h-6a6 6 0 0 1 -6-6zm13-8.21c-.84-.71-2.56-2.67-2.92-7.1a13.91 13.91 0 0 0 5.84 0c-.36 4.44-2.08 6.4-2.92 7.1zm8-1.59a7.75 7.75 0 0 1 -3.5-2.52 18.76 18.76 0 0 0 .49-3.6l.79-.32a19.31 19.31 0 0 0 2.9 2.2 7.89 7.89 0 0 1 -.68 4.24zm6.74-4.5c-1.09.1-3.7-.08-7.09-3a14.26 14.26 0 0 0 4.13-4.13c2.85 3.43 3.02 6.04 2.92 7.13zm4.46-6.7a7.8 7.8 0 0 1 -4.25.69 18.16 18.16 0 0 0 -2.2-2.89c.12-.26.23-.53.33-.8a18.76 18.76 0 0 0 3.6-.49 7.89 7.89 0 0 1 2.52 3.49zm-5.51-5a13.91 13.91 0 0 0 0-5.84c4.44.36 6.4 2.08 7.1 2.92-.71.76-2.67 2.48-7.1 2.84zm-17.69-3a1 1 0 1 1 1 1 1 1 0 0 1 -1-1zm-5-1a1 1 0 1 1 -1 1 1 1 0 0 1 1-1zm8 5a1 1 0 1 1 1 1 1 1 0 0 1 -1-1zm-6 0a1 1 0 1 1 1 1 1 1 0 0 1 -1-1zm6-8a1 1 0 1 1 1 1 1 1 0 0 1 -1-1zm6 8a1 1 0 1 1 1 1 1 1 0 0 1 -1-1zm0-8a1 1 0 1 1 1 1 1 1 0 0 1 -1-1zm-12 0a1 1 0 1 1 1 1 1 1 0 0 1 -1-1zm9 4a1 1 0 1 1 1 1 1 1 0 0 1 -1-1zm-6 8a1 1 0 1 1 1 1 1 1 0 0 1 -1-1zm6 0a1 1 0 1 1 1 1 1 1 0 0 1 -1-1zm-6-16a1 1 0 1 1 1 1 1 1 0 0 1 -1-1zm6 0a1 1 0 1 1 1 1 1 1 0 0 1 -1-1zm6 8a1 1 0 1 1 1 1 1 1 0 0 1 -1-1z"/></g></svg>