<svg height="512" viewBox="0 0 512 512" width="512" xmlns="http://www.w3.org/2000/svg"><g id="_45.Sunny_side_up" data-name="45.Sunny side up"><path d="m484.3266 289.77a134.2734 134.2734 0 0 0 -47.5778-102.6659 134.59 134.59 0 1 0 -260.7356-52.9064c-84.7815 18.21-148.34 93.5755-148.34 183.7981.0002 103.8319 84.1725 188.0042 188.0042 188.0042a187.8161 187.8161 0 0 0 156.291-83.4894 134.6055 134.6055 0 0 0 112.3582-132.7406z" fill="#f2f2f8"/><circle cx="204.589" cy="340.677" fill="#f5d367" r="98.79"/><path d="m146.5005 339.5709q-.18 0-.3608-.0059a10.0807 10.0807 0 0 1 -9.72-10.4291 69.1109 69.1109 0 0 1 68.94-66.7774 68.0812 68.0812 0 0 1 42.8029 14.9428 10.08 10.08 0 1 1 -12.5516 15.7766 48.1206 48.1206 0 0 0 -30.251-10.5579 48.753 48.753 0 0 0 -48.7917 47.3249 10.0808 10.0808 0 0 1 -10.0678 9.726z" fill="#f2f2f8"/><path d="m47.67 318c0 100.45 78.79 182.5 177.93 187.74q-4.92.255-9.92.26c-103.83 0-188.01-84.17-188.01-188 0-90.23 63.56-165.59 148.34-183.8a134.5842 134.5842 0 0 1 134.43-128.2c3.36 0 6.7.12 10 .37a134.5832 134.5832 0 0 0 -124.43 127.83c-84.78 18.21-148.34 93.57-148.34 183.8z" fill="#dcdce2"/><path d="m215.68 511c-106.4261 0-193.01-86.5791-193.01-193a192.9137 192.9137 0 0 1 47.04-126.2734 5 5 0 0 1 7.56 6.5468 182.9108 182.9108 0 0 0 -44.6 119.7266c0 100.9063 82.0982 183 183.01 183a182.8579 182.8579 0 0 0 152.1362-81.2734 5.0028 5.0028 0 0 1 3.3345-2.15 129.5791 129.5791 0 0 0 62.3642-226.665 4.9989 4.9989 0 0 1 -1.457-5.54 129.2007 129.2007 0 0 0 7.9521-44.7916c0-71.4511-58.1252-129.58-129.57-129.58a129.3453 129.3453 0 0 0 -129.4356 123.4336 5 5 0 0 1 -3.9478 4.6562 180.9161 180.9161 0 0 0 -28.3545 8.5625 5 5 0 0 1 -3.664-9.3046 191.3559 191.3559 0 0 1 26.207-8.2012 139.3281 139.3281 0 0 1 139.1949-129.1465c76.959 0 139.57 62.6152 139.57 139.58a139.2428 139.2428 0 0 1 -7.4107 44.98 139.5873 139.5873 0 0 1 -67.6813 241.5113 192.83 192.83 0 0 1 -159.238 83.9287z"/><path d="m94.8125 179a5 5 0 0 1 -3.2178-8.8291c4.2505-3.5684 8.7417-7.02 13.3491-10.2607a5 5 0 1 1 5.752 8.18c-4.375 3.0772-8.6382 6.3536-12.67 9.7393a4.9785 4.9785 0 0 1 -3.2133 1.1705z"/><path d="m204.5889 444.4678a103.7906 103.7906 0 1 1 103.79-103.79 103.9075 103.9075 0 0 1 -103.79 103.79zm0-197.5811a93.7906 93.7906 0 1 0 93.79 93.791 93.8969 93.8969 0 0 0 -93.79-93.791z"/></g></svg>