<svg id="Layer_1" enable-background="new 0 0 512 512" height="512" viewBox="0 0 512 512" width="512" xmlns="http://www.w3.org/2000/svg"><g id="XMLID_1_"><g id="XMLID_4120_"><g id="XMLID_2108_"><circle id="XMLID_2117_" cx="256" cy="191" fill="#ffc96f" r="62.5"/><g id="XMLID_2116_"><path id="XMLID_2147_" d="m251 66h10v38h-10z" fill="#ffb234"/></g><g id="XMLID_2114_"><path id="XMLID_2145_" d="m162.1 110.9h37.5v10h-37.5z" fill="#ffb234" transform="matrix(.707 .707 -.707 .707 134.906 -93.956)"/></g><g id="XMLID_2109_"><path id="XMLID_2140_" d="m326.1 97.1h10v37.5h-10z" fill="#ffb234" transform="matrix(.707 .707 -.707 .707 178.94 -200.218)"/></g></g><path id="XMLID_1363_" d="m507 90c-46.8 0-52 56-52 56s-48.1-20-64 45l116 68z" fill="#ffdca4"/><path id="XMLID_1362_" d="m5 135s1.9-45 44.1-45 37.5 48.8 37.5 48.8 49.4-1.8 49.4 52.2l-131 68z" fill="#ffdca4"/><path id="XMLID_1374_" d="m5 190.5h502v251h-502z" fill="#f6c9aa"/><path id="XMLID_1972_" d="m507 191h-502v161c125.5 0 125.5 40 251 40s125-40 251-40z" fill="#cde9fe"/><g id="XMLID_1361_"><path id="XMLID_2174_" d="m97 173-9.1-4.1 4.6 2.1-4.6-2c.3-.6 6.8-15.8-4.6-26.4-10.4-9.6-25.9-1.4-26.1-1.3l-4.8-8.8c.9-.5 22-11.7 37.6 2.8 16.8 15.3 7.4 36.8 7 37.7z" fill="#ffc96f"/></g><path id="XMLID_1975_" d="m507 311.8c-94.1 0-156.9 30-251 30s-157-30-251-30v-120.8h502z" fill="#275e87"/><path id="XMLID_1974_" d="m507 271.5c-62.8 0-188.3 20-251 20s-188-20-251-20v-80.5h502z" fill="#3279af"/><path id="XMLID_547_" d="m507 231.3c-31.4 0-219.6 10-251 10s-220-10-251-10v-40.3h502z" fill="#4893cc"/><g id="XMLID_667_"><path id="XMLID_689_" d="m133 211h30v10h-30z" fill="#cde9fe"/></g><g id="XMLID_666_"><path id="XMLID_678_" d="m165 254h30v10h-30z" fill="#cde9fe"/></g><g id="XMLID_665_"><path id="XMLID_677_" d="m349 211h30v10h-30z" fill="#cde9fe"/></g><g id="XMLID_663_"><path id="XMLID_675_" d="m317 254h30v10h-30z" fill="#cde9fe"/></g><g id="XMLID_1394_"><g id="XMLID_1397_"><path id="XMLID_1404_" d="m109 407h12v10h-12z" fill="#f3ab7d"/></g><g id="XMLID_1396_"><path id="XMLID_1403_" d="m97 387h12v10h-12z" fill="#f3ab7d"/></g><g id="XMLID_1395_"><path id="XMLID_1402_" d="m85 407h12v10h-12z" fill="#f3ab7d"/></g></g><g id="XMLID_1341_"><g id="XMLID_1391_"><path id="XMLID_1401_" d="m431 377h12v10h-12z" fill="#f3ab7d"/></g><g id="XMLID_1389_"><path id="XMLID_1400_" d="m443 397h12v10h-12z" fill="#f3ab7d"/></g><g id="XMLID_1342_"><path id="XMLID_1399_" d="m455 377h12v10h-12z" fill="#f3ab7d"/></g></g></g><g id="XMLID_3470_"><g id="XMLID_155_"><path id="XMLID_2887_" d="m507 446.5h-502c-2.8 0-5-2.2-5-5v-251c0-2.8 2.2-5 5-5h502c2.8 0 5 2.2 5 5v251c0 2.8-2.2 5-5 5zm-497-10h492v-241h-492z" fill="#4d2419"/></g><g id="XMLID_160_"><g id="XMLID_1809_"><path id="XMLID_2886_" d="m256 397c-63.5 0-95.8-10.3-127-20.2-31.9-10.2-62-19.8-124-19.8v-10c63.5 0 95.8 10.3 127 20.2 31.9 10.2 62 19.8 124 19.8s92.1-9.6 124-19.8c31.2-9.9 63.5-20.2 127-20.2v10c-62 0-92.1 9.6-124 19.8-31.2 9.9-63.5 20.2-127 20.2z" fill="#4d2419"/></g><g id="XMLID_24_"><path id="XMLID_2885_" d="m256 346.8c-47.5 0-87.6-7.7-126.4-15.1-38.3-7.3-78-14.9-124.6-14.9v-10c47.5 0 87.6 7.7 126.4 15.1 38.3 7.3 78 14.9 124.6 14.9s86.2-7.6 124.6-14.9c33.2-6.3 67.4-12.9 106.2-14.6l.4 10c-38.1 1.7-72 8.2-104.8 14.5-38.8 7.3-78.9 15-126.4 15z" fill="#4d2419"/></g><g id="XMLID_3_"><path id="XMLID_2884_" d="m256 296.5c-31.6 0-79.6-5.1-126-10-37.2-4-75.6-8-105.2-9.4l.5-10c29.9 1.4 68.5 5.5 105.8 9.5 46.1 4.9 93.9 10 125 10s78.8-5.1 125-10c46.4-4.9 94.4-10 126-10v10c-31.1 0-78.8 5.1-125 10-46.5 4.8-94.5 9.9-126.1 9.9z" fill="#4d2419"/></g><g id="XMLID_14_"><path id="XMLID_2883_" d="m276.2 245.8-.3-10c24.8-.8 65.8-2.7 105.4-4.5 54-2.5 109.9-5 125.7-5v10c-15.6 0-71.3 2.5-125.3 5-39.7 1.8-80.7 3.6-105.5 4.5z" fill="#4d2419"/></g><g id="XMLID_4_"><path id="XMLID_2882_" d="m256 246.3c-15.8 0-71.7-2.5-125.7-5-53.9-2.5-109.7-5-125.3-5v-10c15.8 0 71.7 2.5 125.7 5 53.9 2.5 109.7 5 125.3 5z" fill="#4d2419"/></g><g id="XMLID_1797_"><path id="XMLID_2881_" d="m5 186h502v10h-502z" fill="#4d2419"/></g></g><g id="XMLID_207_"><path id="XMLID_2878_" d="m507 196h-116c-1.5 0-3-.7-3.9-1.9s-1.3-2.8-.9-4.3c5.7-23.5 16.2-39.2 31.2-46.8 13.1-6.6 26.2-5.2 33.6-3.4 1.1-5.7 3.4-14.7 8.1-23.8 10.2-20.2 26.8-30.8 47.9-30.8 2.8 0 5 2.2 5 5v101c0 2.8-2.2 5-5 5zm-109.5-10h104.5v-90.8c-14.9 1.5-26.4 9.9-34.1 25-6.6 13-7.9 26.1-7.9 26.2-.1 1.6-1 3-2.4 3.8s-3 .9-4.5.3c-.1-.1-16.1-6.4-31.3 1.4-11 5.6-19.1 17.1-24.3 34.1z" fill="#4d2419"/></g><g id="XMLID_216_"><path id="XMLID_2875_" d="m136 196h-131c-2.8 0-5-2.2-5-5v-56c0-.1 0-.1 0-.2 0-.5.6-12.5 6.8-24.6 5.9-11.5 18-25.2 42.3-25.2 12.8 0 23.1 4.1 30.4 12.2 10.6 11.6 12.2 28.4 12.2 36.8 7.7.7 22.2 3.5 33.6 14.5 10.4 10 15.7 24.3 15.7 42.5 0 2.8-2.2 5-5 5zm-126-10h120.8c-.8-12.9-5-23-12.4-30.2-12.8-12.4-31.5-12-31.7-12-1.4 0-2.8-.5-3.8-1.6-1-1-1.5-2.5-1.3-3.9 0-.2 1.9-21.9-9.5-34.4-5.4-5.9-13.1-8.9-23-8.9-15.5 0-26.7 6.7-33.4 19.8-4.9 9.7-5.6 19.3-5.7 20.3z" fill="#4d2419"/></g><g id="XMLID_206_"><path id="XMLID_2874_" d="m97 173-9.1-4.1 4.6 2.1-4.6-2c.3-.6 6.8-15.8-4.6-26.4-10.4-9.6-25.9-1.4-26.1-1.3l-4.8-8.8c.9-.5 22-11.7 37.6 2.8 16.8 15.3 7.4 36.8 7 37.7z" fill="#4d2419"/></g><g id="XMLID_623_"><g id="XMLID_634_"><path id="XMLID_2873_" d="m251 66h10v38h-10z" fill="#4d2419"/></g><g id="XMLID_632_"><path id="XMLID_2872_" d="m162.1 110.9h37.5v10h-37.5z" fill="#4d2419" transform="matrix(.707 .707 -.707 .707 134.906 -93.956)"/></g><g id="XMLID_624_"><path id="XMLID_2871_" d="m326.1 97.1h10v37.5h-10z" fill="#4d2419" transform="matrix(.707 .707 -.707 .707 178.94 -200.218)"/></g><g id="XMLID_530_"><path id="XMLID_2866_" d="m318.5 196h-125c-2.8 0-5-2.2-5-5 0-18.2 7-35.2 19.8-47.9 12.7-12.6 29.6-19.6 47.7-19.6s35 7 47.7 19.6c12.8 12.7 19.8 29.7 19.8 47.9 0 2.8-2.2 5-5 5zm-119.8-10h114.6c-2.5-29.8-26.7-52.5-57.3-52.5s-54.8 22.7-57.3 52.5z" fill="#4d2419"/></g></g><g id="XMLID_2188_"><path id="XMLID_2671_" d="m133 211h30v10h-30z" fill="#4d2419"/></g><g id="XMLID_2202_"><path id="XMLID_2670_" d="m165 254h30v10h-30z" fill="#4d2419"/></g><g id="XMLID_2203_"><path id="XMLID_2669_" d="m349 211h30v10h-30z" fill="#4d2419"/></g><g id="XMLID_2201_"><path id="XMLID_2668_" d="m317 254h30v10h-30z" fill="#4d2419"/></g><g id="XMLID_1370_"><g id="XMLID_1373_"><path id="XMLID_2613_" d="m109 407h12v10h-12z" fill="#4d2419"/></g><g id="XMLID_1372_"><path id="XMLID_2612_" d="m97 387h12v10h-12z" fill="#4d2419"/></g><g id="XMLID_1371_"><path id="XMLID_2611_" d="m85 407h12v10h-12z" fill="#4d2419"/></g></g><g id="XMLID_772_"><g id="XMLID_1343_"><path id="XMLID_2610_" d="m431 377h12v10h-12z" fill="#4d2419"/></g><g id="XMLID_1336_"><path id="XMLID_2609_" d="m443 397h12v10h-12z" fill="#4d2419"/></g><g id="XMLID_910_"><path id="XMLID_2608_" d="m455 377h12v10h-12z" fill="#4d2419"/></g></g></g></g></svg>