<svg id="Layer_1" viewBox="0 0 1000 1000" xmlns="http://www.w3.org/2000/svg" data-name="Layer 1"><path d="m210.11 533.14h-87.84a29.77 29.77 0 1 0 0 59.53h87.84a29.77 29.77 0 1 0 0-59.53zm0 44.53h-87.84a14.77 14.77 0 1 1 0-29.53h87.84a14.77 14.77 0 1 1 0 29.53z"/><path d="m224.88 562.91a14.78 14.78 0 0 1 -14.77 14.76h-87.84a14.77 14.77 0 1 1 0-29.53h87.84a14.78 14.78 0 0 1 14.77 14.77z" fill="#ffa726"/><path d="m724.68 562.91a222.83 222.83 0 0 1 -55 147.33q-5.76 6.62-12.1 12.85a7.42 7.42 0 0 1 -5 2.15h-.42a7.49 7.49 0 0 1 -5.16-12.84l2.16-2.16a208.13 208.13 0 0 0 60.49-147.33c0-115.62-94.06-209.68-209.68-209.68s-209.65 94.06-209.65 209.68a208.13 208.13 0 0 0 60.49 147.33q1.06 1.08 2.16 2.16a7.49 7.49 0 0 1 -5.08 12.84h-.42a7.42 7.42 0 0 1 -5-2.15q-6.33-6.23-12.1-12.85a224.69 224.69 0 1 1 394.31-147.33z"/><path d="m500 155.41a29.8 29.8 0 0 0 -29.77 29.76v87.83a29.77 29.77 0 1 0 59.54 0v-87.83a29.8 29.8 0 0 0 -29.77-29.76zm14.77 117.59a14.77 14.77 0 0 1 -29.54 0v-87.83a14.77 14.77 0 0 1 29.54 0z"/><path d="m514.77 185.17v87.83a14.77 14.77 0 0 1 -29.54 0v-87.83a14.77 14.77 0 0 1 29.54 0z" fill="#ffa726"/><path d="m316.07 336.88-62.07-62.12a29.77 29.77 0 1 0 -42.1 42.1l62.1 62.14a29.77 29.77 0 0 0 42.1-42.1zm-10.61 31.49a14.78 14.78 0 0 1 -20.88 0l-62.12-62.12a14.77 14.77 0 0 1 20.89-20.88l62.11 62.11a14.79 14.79 0 0 1 0 20.89z"/><path d="m305.46 368.37a14.78 14.78 0 0 1 -20.88 0l-62.12-62.12a14.77 14.77 0 0 1 20.89-20.88l62.11 62.11a14.79 14.79 0 0 1 0 20.89z" fill="#ffa726"/><path d="m877.73 533.14h-87.84a29.77 29.77 0 1 0 0 59.53h87.84a29.77 29.77 0 1 0 0-59.53zm0 44.53h-87.84a14.77 14.77 0 1 1 0-29.53h87.84a14.77 14.77 0 1 1 0 29.53z"/><path d="m892.5 562.91a14.78 14.78 0 0 1 -14.77 14.76h-87.84a14.77 14.77 0 1 1 0-29.53h87.84a14.79 14.79 0 0 1 14.77 14.77z" fill="#ffa726"/><path d="m788.15 274.76a29.81 29.81 0 0 0 -42.11 0l-62.11 62.12a29.77 29.77 0 0 0 42.07 42.12l62.12-62.12a29.82 29.82 0 0 0 .03-42.12zm-10.61 31.49-62.12 62.12a14.77 14.77 0 0 1 -20.88-20.89l62.11-62.11a14.77 14.77 0 1 1 20.89 20.88z"/><path d="m777.54 306.25-62.12 62.12a14.77 14.77 0 0 1 -20.88-20.89l62.11-62.11a14.77 14.77 0 1 1 20.89 20.88z" fill="#ffa726"/><path d="m709.68 562.91a208.13 208.13 0 0 1 -60.49 147.33h-298.38a208.13 208.13 0 0 1 -60.49-147.33c0-115.62 94.06-209.68 209.68-209.68s209.68 94.06 209.68 209.68z" fill="#ff0"/><path d="m862.68 717.74a7.5 7.5 0 0 1 -7.5 7.5h-710.36a7.5 7.5 0 1 1 0-15h710.36a7.5 7.5 0 0 1 7.5 7.5z"/><path d="m811 784.92h-622a7.5 7.5 0 0 1 0-15h622a7.5 7.5 0 0 1 0 15z"/><path d="m781.5 844.59h-563a7.5 7.5 0 0 1 0-15h563a7.5 7.5 0 0 1 0 15z"/></svg>