<svg id="Sunset" enable-background="new 0 0 64 64" viewBox="0 0 64 64" xmlns="http://www.w3.org/2000/svg"><g><g><path d="m57.95909 41.78663c.80001 1.22665.2666 2.87995-1.1022 3.39546l-3.11107 1.17338c-1.15558.42664-2.16891 1.17327-2.91554 2.11553h-37.6706c-.74663-.94226-1.74216-1.68889-2.89775-2.11553l-3.11107-1.17338c-1.36891-.51551-1.90221-2.16881-1.1022-3.39546l1.83114-2.77329c1.49325-2.29337 1.49325-5.26219 0-7.55545l-1.83114-2.79109c-.80001-1.20886-.26671-2.86216 1.1022-3.37778l3.11107-1.19106c2.55997-.95995 4.30213-3.35998 4.44438-6.09768l.14225-3.32439c.07107-1.47557 1.47556-2.4889 2.89775-2.09774l3.19993.87108c2.64884.72883 5.47551-.19563 7.18209-2.32885l2.08005-2.59556c.92436-1.13779 2.66663-1.13779 3.57319 0l2.08005 2.59556c1.72437 2.13322 4.53325 3.05768 7.18209 2.32885l3.21773-.87108c1.40438-.39116 2.80888.62217 2.87995 2.09774l.16005 3.32439c.12445 2.7377 1.86662 5.13774 4.44438 6.09768l3.11107 1.19106c1.36879.51562 1.90221 2.16891 1.1022 3.37778l-1.83114 2.79109c-1.51105 2.29326-1.51105 5.26208 0 7.55545z" fill="#ffdc6e"/><path d="m49.07032 35.22672c0 5.33326-2.45331 10.11543-6.29332 13.24429h-21.54636c-3.8399-3.12886-6.29321-7.91103-6.29321-13.24429 0-9.42207 7.64432-17.0665 17.06639-17.0665 9.42219 0 17.0665 7.64442 17.0665 17.0665z" fill="#f98143"/><path d="m49.05253 35.22672c0 5.33326-2.45331 10.11543-6.29321 13.24429h-18.47089c7.66212-1.19117 14.06199-6.08 16.58647-12.85323 2.31106-6.15096.69324-11.96425-.81781-15.4131 5.36886 2.86215 8.99544 8.5154 8.99544 15.02204z" opacity=".1"/><g fill="#101016"><path d="m50.83004 49.3598h-37.6705c-.2717 0-.52864-.125-.69704-.3368-.66405-.83853-1.5321-1.47394-2.50865-1.83504l-3.11628-1.1736c-.90277-.34027-1.59286-1.06075-1.8932-1.97914-.30208-.9236-.171-1.92011.35937-2.73434l1.83418-2.77774c1.29946-1.99477 1.29946-4.5798-.0026-6.57977l-1.82984-2.78903c-.52951-.80033-.66319-1.7873-.36545-2.70743.29861-.92273.99044-1.64841 1.89754-1.98956l3.10673-1.18922c2.23174-.83679 3.74995-2.92183 3.87408-5.31417l.14236-3.31593c.04688-.97829.52343-1.86195 1.30727-2.42965.78558-.56857 1.77341-.74652 2.71437-.48697l3.197.86978c2.31073.63367 4.76209-.16059 6.25426-2.02601l2.08157-2.59632c.61718-.76041 1.55467-1.11283 2.50084-1.18575.96526.00434 1.86282.43663 2.46003 1.18748l2.07983 2.59458c1.50345 1.86109 3.96696 2.65621 6.25165 2.02688l3.22044-.87152c.93054-.25868 1.90796-.0816 2.68746.48176.78819.56857 1.26561 1.45484 1.31248 2.43139l.16146 3.32287c.10764 2.39146 1.62672 4.4739 3.868 5.30809l3.11801 1.19443c.90277.34027 1.59373 1.06509 1.89234 1.98869.29687.91926.16319 1.90709-.36805 2.70917l-1.8281 2.78816c-1.31769 1.99997-1.31769 4.58153-.00174 6.57804l1.82984 2.77427.00347.00347c.53124.81422.66319 1.81074.36111 2.7326-.30034.91839-.99131 1.6406-1.89234 1.98088l-3.1128 1.17186c-.99825.36979-1.87324 1.00346-2.53295 1.83678-.16838.21181-.42532.33681-.69615.33681zm-37.25644-1.77775h36.84325c.82291-.9236 1.85935-1.63192 3.02253-2.06074l3.10586-1.17012c.39409-.1493.69617-.46527.82811-.86978.13368-.40625.07639-.84547-.15798-1.20658l-1.8281-2.77253c-1.71004-2.59198-1.71004-5.94176 0-8.53374l1.8281-2.78902c.23264-.35243.29166-.78298.16146-1.18488-.13194-.40538-.43402-.72395-.83332-.87412l-3.11454-1.19269c-2.90448-1.08071-4.87494-3.78554-5.01382-6.88793l-.16146-3.32027c-.02083-.43402-.23264-.82551-.57812-1.07551-.34027-.24566-.76735-.32291-1.17707-.21007l-3.22218.87238c-2.96697.82204-6.15443-.21093-8.10579-2.6267l-2.08331-2.59979c-.26215-.32899-.6545-.51735-1.07811-.51909-.00347 0-.00521 0-.00694 0-.43055 0-.83245.1901-1.10328.5243l-2.07723 2.59111c-1.93661 2.42097-5.11885 3.45481-8.11187 2.6293l-3.19701-.86978c-.42274-.11632-.85763-.03819-1.20137.2118-.34461.25-.55381.63975-.57465 1.07117l-.14236 3.3194c-.16146 3.10673-2.13192 5.80895-5.0199 6.89227l-3.10585 1.18836c-.40277.15191-.70572.47048-.83766.87586-.12934.40191-.07205.83245.15885 1.18141l1.83331 2.79423c1.68748 2.59198 1.68748 5.93829.00174 8.52679l-1.83418 2.77948c-.23264.3559-.29079.79686-.15712 1.20485.13194.40277.43489.72047.83072.86978l3.11107 1.17186c1.14321.42186 2.17271 1.13018 2.99822 2.05899z"/><path d="m42.77633 49.3598h-21.54571c-.20486 0-.40277-.07118-.56162-.19965-4.20741-3.42704-6.62057-8.50683-6.62057-13.93384 0-9.90004 8.05458-17.95462 17.95549-17.95462s17.95462 8.05458 17.95462 17.95462c0 5.42701-2.41316 10.5068-6.62144 13.93384-.158.12847-.35591.19965-.56077.19965zm-21.22454-1.77775h20.90336c3.64231-3.08503 5.72562-7.56934 5.72562-12.35574 0-8.92002-7.25685-16.17686-16.17686-16.17686s-16.17774 7.25685-16.17774 16.17686c0 4.7864 2.08244 9.27071 5.72562 12.35574z"/></g></g><g><path d="m63.11047 42.55148v14.6654h-62.22137v-14.6654c3.89148 0 3.89148 1.99863 7.76867 1.99863 3.89156 0 3.89156-1.99863 7.78304-1.99863 3.89157 0 3.89157 1.99863 7.76875 1.99863 3.89148 0 3.89148-1.99863 7.78304-1.99863s3.89156 1.99863 7.76867 1.99863c3.89156 0 3.89156-1.99863 7.78313-1.99863 3.89148 0 3.89148 1.99863 7.78304 1.99863s3.89156-1.99863 7.78303-1.99863z" fill="#79b6ef"/><path d="m55.32824 45.43972c-2.16143 0-3.29683-.58332-4.29855-1.09894-.94096-.48264-1.75518-.90103-3.48606-.90103s-2.54337.4184-3.48433.90103c-1.00172.51562-2.13713 1.09894-4.29855 1.09894-2.15101 0-3.28468-.58332-4.28293-1.09721-.94096-.48437-1.75345-.90277-3.48606-.90277-1.73001 0-2.54337.4184-3.48433.90103-1.00172.51562-2.13712 1.09894-4.29768 1.09894-2.15275 0-3.28468-.58332-4.2838-1.09721-.94096-.48437-1.75345-.90277-3.4852-.90277-1.73088 0-2.54337.4184-3.4852.90103-1.00172.51562-2.13712 1.09894-4.29768 1.09894-2.15275 0-3.28468-.58332-4.2838-1.09721-.94096-.48437-1.75345-.90277-3.4852-.90277-.49131.00002-.88887-.39754-.88887-.88885s.39756-.88887.88888-.88887c2.16317 0 3.2977.58506 4.29942 1.10068.93749.48263 1.74824.8993 3.46957.8993 1.73088 0 2.54337-.4184 3.4852-.90103 1.00172-.51562 2.13712-1.09894 4.29769-1.09894 2.16316 0 3.2977.58506 4.29942 1.10068.93749.48263 1.74824.8993 3.46957.8993 1.73088 0 2.54337-.4184 3.4852-.90103 1.00172-.51562 2.13626-1.09894 4.29682-1.09894 2.16316 0 3.29857.58506 4.30029 1.10068.93749.48263 1.74824.8993 3.4687.8993 1.73088 0 2.5451-.4184 3.48606-.90103 1.00172-.51562 2.13712-1.09894 4.29681-1.09894 2.16143 0 3.29683.58332 4.29855 1.09894.94096.48263 1.75518.90103 3.48606.90103s2.54337-.4184 3.48433-.90103c1.00172-.51562 2.13713-1.09894 4.29855-1.09894.49131 0 .88888.39756.88888.88887s-.39756.88888-.88888.88888c-1.73088 0-2.5451.4184-3.48606.90103-1.00172.51558-2.13713 1.09891-4.29682 1.09891z" fill="#101016"/></g></g></svg>