<svg id="Layer_1" enable-background="new 0 0 512 512" height="512" viewBox="0 0 512 512" width="512" xmlns="http://www.w3.org/2000/svg"><g><path d="m282.218 57.367c0-16.515-11.739-29.902-26.218-29.902s-26.218 13.388-26.218 29.902c0 .881.04 1.751.106 2.614h-.106l9.443 311.033h33.547l9.445-311.033h-.106c.066-.863.107-1.733.107-2.614z" fill="#7a5649"/><path d="m272.772 379.015h-33.547c-4.324 0-7.865-3.436-7.996-7.757l-9.443-311.034c-.011-.355.002-.709.038-1.059-.028-.613-.042-1.209-.042-1.798 0-20.899 15.35-37.902 34.218-37.902s34.218 17.003 34.218 37.902c0 .583-.014 1.177-.042 1.794.036.351.049.706.038 1.063l-9.445 311.034c-.131 4.321-3.673 7.757-7.997 7.757zm-25.786-16h18.025l9.17-301.973c-.073-.548-.09-1.105-.048-1.665.057-.742.084-1.399.084-2.01 0-12.077-8.173-21.902-18.218-21.902s-18.218 9.825-18.218 21.902c0 .622.027 1.276.083 2 .043.563.026 1.124-.047 1.674z"/></g><g><path d="m282.453 339.943h-52.906l-26.453 29.973v29.972h26.453 52.906 26.453v-29.972z" fill="#4e352e"/><path d="m308.906 407.888h-105.812c-4.418 0-8-3.582-8-8v-29.972c0-1.949.712-3.832 2.002-5.294l26.453-29.973c1.519-1.721 3.703-2.706 5.998-2.706h52.906c2.295 0 4.479.985 5.998 2.706l26.453 29.973c1.29 1.462 2.002 3.345 2.002 5.294v29.972c0 4.418-3.582 8-8 8zm-97.812-16h89.813v-18.946l-22.063-24.998h-45.688l-22.063 24.998v18.946z"/></g><g><path d="m399.61 484.54h-287.22l7.02-33.17h273.18z" fill="#e0e0e0"/><path d="m399.63 492.54c-.008 0-.015 0-.02 0h-287.22c-2.413 0-4.696-1.089-6.215-2.963s-2.111-4.333-1.612-6.693l7.02-33.17c.783-3.698 4.047-6.344 7.827-6.344h273.18c3.78 0 7.044 2.646 7.826 6.344l6.9 32.599c.204.707.313 1.454.313 2.228.001 4.417-3.58 7.999-7.999 7.999zm-277.37-16h267.48l-3.635-17.17h-260.211z"/></g><g><path d="m392.59 451.37h-273.18l10.88-51.48h251.42z" fill="#efeeee"/><path d="m392.609 459.37c-.006 0-.014 0-.02 0h-273.179c-2.412 0-4.695-1.088-6.214-2.962-1.519-1.873-2.111-4.332-1.613-6.692l10.88-51.48c.782-3.699 4.046-6.346 7.827-6.346h251.42c3.78 0 7.045 2.646 7.827 6.346l10.759 50.909c.204.707.313 1.453.313 2.226 0 4.417-3.581 7.999-8 7.999zm-263.331-16h253.445l-7.499-35.48h-238.448z"/></g></svg>