<svg id="Layer_1" viewBox="0 0 1000 1000" xmlns="http://www.w3.org/2000/svg" data-name="Layer 1"><path d="m461.3 690.72a169.63 169.63 0 0 1 -59.42 129.38q-2.67 2.29-5.46 4.5a7.5 7.5 0 0 1 -10.54-1.23l-.14-.18-.24-.35a7.5 7.5 0 0 1 1.62-10q3.15-2.49 6.15-5.13a154.68 154.68 0 0 0 53-117c0-77.87-58.86-144.26-135.31-154.26q-3.6-.48-7.25-.78a7.5 7.5 0 1 1 1.29-14.94q3.81.32 7.58.8a170.59 170.59 0 0 1 148.72 169.19z"/><path d="m735.78 95.6a7.49 7.49 0 0 0 -6.07-3.1h-79.71a7.49 7.49 0 0 0 -7.41 6.35l-10.48 67.37a133.68 133.68 0 0 1 -264.18 0l-10.5-67.37a7.49 7.49 0 0 0 -7.43-6.35h-79.71a7.51 7.51 0 0 0 -7.13 9.84c.38 1.15 37.47 116.45 11 212.44a84.68 84.68 0 0 0 5.61 60c15.76 31.93 36.38 107.73-2.5 256.64a97.47 97.47 0 0 0 24.37 92.17c23.78 24.38 57.55 61.3 83.88 99.21l.24.35c18.72 27 33.63 54.49 38.47 78.3a7.5 7.5 0 0 0 7.35 6h136.86a7.5 7.5 0 0 0 7.35-6c4.84-23.81 19.75-51.29 38.47-78.3l.24-.35c26.33-37.91 60.1-74.83 83.88-99.21a97.47 97.47 0 0 0 24.37-92.17c-38.88-148.91-18.26-224.71-2.5-256.64a84.68 84.68 0 0 0 5.61-60c-26.49-96 10.6-211.29 11-212.44a7.51 7.51 0 0 0 -1.08-6.74zm-29.32 74.4c-5.76 38.83-9.58 96.16 4.94 148.76a69.68 69.68 0 0 1 -4.6 49.41 176 176 0 0 0 -10.93 28.67 235.69 235.69 0 0 0 -5.53 23.69 302.22 302.22 0 0 0 -4.4 38.56 436.86 436.86 0 0 0 1.5 62.42q.66 7.37 1.57 14.93c3.64 30.7 10.06 63.71 19.22 98.79a82.34 82.34 0 0 1 -20.59 77.91c-26.64 27.33-56.64 60.68-80.91 94.56q-4.46 6.19-8.61 12.4c-16.74 24.93-29.81 49.79-35.64 72.4h-125c-5.83-22.61-18.9-47.47-35.64-72.4q-4.15-6.21-8.61-12.4c-24.23-33.88-54.23-67.23-80.87-94.54a82.34 82.34 0 0 1 -20.59-77.91c9.16-35.08 15.58-68.09 19.22-98.79q.9-7.56 1.57-14.93a436.86 436.86 0 0 0 1.5-62.42 302.22 302.22 0 0 0 -4.4-38.56 235.69 235.69 0 0 0 -5.53-23.69 176 176 0 0 0 -10.93-28.67 69.68 69.68 0 0 1 -4.6-49.41c14.52-52.6 10.7-109.93 4.94-148.76a519 519 0 0 0 -13.19-62.51h63.25l9.48 61a148.69 148.69 0 0 0 293.84 0l9.48-61h63.25a519 519 0 0 0 -13.19 62.49z"/><path d="m711.4 318.77a69.68 69.68 0 0 1 -4.6 49.41 176 176 0 0 0 -10.93 28.67c-18.44-30.22-54.73-49.92-95.32-49.92-45.62 0-84.73 24.86-100.55 59.89-15.82-35-54.93-59.89-100.55-59.89-40.59 0-76.88 19.7-95.32 49.92a176 176 0 0 0 -10.93-28.67 69.68 69.68 0 0 1 -4.6-49.41c14.52-52.6 10.7-109.93 4.94-148.76a519 519 0 0 0 -13.19-62.51h63.25l9.48 61a148.69 148.69 0 0 0 293.84 0l9.48-61h63.25a519 519 0 0 0 -13.19 62.5c-5.76 38.84-9.58 96.17 4.94 148.77z" fill="#26a69a"/><path d="m685.94 459.11a436.86 436.86 0 0 0 1.5 62.42 170.59 170.59 0 0 0 -89.32 298.57c-16.74 24.93-29.81 49.79-35.64 72.4h-125c-5.83-22.61-18.9-47.47-35.64-72.4a170.59 170.59 0 0 0 -89.32-298.57 436.86 436.86 0 0 0 1.5-62.42 302.22 302.22 0 0 0 -4.4-38.56c11-34.59 47.65-58.61 89.79-58.61 51.31 0 93.05 35.66 93.05 79.48a7.5 7.5 0 1 0 15 0c0-43.82 41.74-79.48 93-79.48 42.14 0 78.79 24 89.79 58.61a302.22 302.22 0 0 0 -4.31 38.56z" fill="#80cbc4"/><path d="m687.64 713.16c-26.64 27.31-56.64 60.66-80.91 94.54a154.68 154.68 0 0 1 -53-117c0-77.87 58.86-144.26 135.31-154.26 3.64 30.7 10.06 63.71 19.22 98.79a82.34 82.34 0 0 1 -20.62 77.93z" fill="#0097a7"/><path d="m446.3 690.72a154.68 154.68 0 0 1 -53 117c-24.3-33.9-54.3-67.25-80.94-94.56a82.34 82.34 0 0 1 -20.59-77.91c9.16-35.08 15.58-68.09 19.22-98.79 76.45 10 135.31 76.39 135.31 154.26z" fill="#0097a7"/><path d="m696.26 535.68q-3.64.3-7.25.78c-76.45 10-135.31 76.39-135.31 154.26a154.68 154.68 0 0 0 53 117q3 2.64 6.15 5.13a7.5 7.5 0 0 1 1.62 10l-.24.35-.14.18a7.5 7.5 0 0 1 -10.54 1.23q-2.79-2.21-5.46-4.5a170.59 170.59 0 0 1 89.32-298.57q3.76-.48 7.58-.8a7.5 7.5 0 1 1 1.24 14.95z"/><path d="m507.5 441.41a7.5 7.5 0 1 1 -15 0c0-43.82-41.74-79.48-93.05-79.48-42.14 0-78.79 24-89.79 58.61-.17.53-.33 1.06-.49 1.59a7.5 7.5 0 1 1 -14.4-4.2 87.47 87.47 0 0 1 9.36-21.09c18.44-30.22 54.73-49.92 95.32-49.92 45.62 0 84.73 24.86 100.55 59.89a83.73 83.73 0 0 1 7.5 34.6z"/><path d="m700.14 427.24a7.51 7.51 0 0 1 -9.31-5.1c-.16-.53-.32-1.06-.49-1.59-11-34.59-47.65-58.61-89.79-58.61-51.31 0-93 35.66-93 79.48a7.5 7.5 0 1 1 -15 0 83.73 83.73 0 0 1 7.5-34.59c15.82-35 54.93-59.89 100.55-59.89 40.59 0 76.88 19.7 95.32 49.92a87.47 87.47 0 0 1 9.36 21.09 7.5 7.5 0 0 1 -5.14 9.29z"/></svg>