<svg height="512" viewBox="0 0 128 128" width="512" xmlns="http://www.w3.org/2000/svg"><g><g><path d="m29.553 85.192 49.851-61.362 40.864-17.84-17.84 40.863-61.363 49.851z" fill="#ededf9"/><path d="m14.176 86.069h14a0 0 0 0 1 0 0v32.024a6 6 0 0 1 -6 6h-2a6 6 0 0 1 -6-6v-32.024a0 0 0 0 1 0 0z" fill="#537980" transform="matrix(.707 .707 -.707 .707 80.506 15.804)"/><path d="m28.52 83.278h20a0 0 0 0 1 0 0v5.922a3 3 0 0 1 -3 3h-14a3 3 0 0 1 -3-3v-5.922a0 0 0 0 1 0 0z" fill="#f9d42f" transform="matrix(-.707 -.707 .707 -.707 3.719 177.015)"/><path d="m32.309 74.668h6v32.56h-6z" fill="#fb9401" transform="matrix(.707 -.707 .707 .707 -53.968 51.606)"/><g><path d="m15.581 100.676h14v6h-14z" fill="#ededf9" transform="matrix(-.707 -.707 .707 -.707 -34.761 192.953)"/><path d="m11.339 104.919h14v6h-14z" fill="#dddde3" transform="matrix(-.707 -.707 .707 -.707 -45.004 197.196)"/></g></g><g fill="#102a3f"><path d="m57.493 81.1-9.326 7.576a4.851 4.851 0 0 0 -.31-.383l-9.9-9.9a4.514 4.514 0 0 0 -.375-.306l42.908-52.823 19.375-8.457a1.75 1.75 0 1 0 -1.4-3.208l-19.765 8.627a1.755 1.755 0 0 0 -.659.5l-44.141 54.346a4.693 4.693 0 0 0 -2.653 1.321l-.886.885-3.2-3.2a1.748 1.748 0 0 0 -2.474 0l-4.248 4.242a1.749 1.749 0 0 0 0 2.475l15.225 15.225-6.012 6.009-7.424-7.423 1.591-1.59a1.75 1.75 0 0 0 -2.475-2.475l-15.552 15.552a7.761 7.761 0 0 0 0 10.964l1.408 1.408a7.73 7.73 0 0 0 10.957 0l19.982-19.965 5.323 5.323a1.749 1.749 0 0 0 2.475 0l4.243-4.242a1.751 1.751 0 0 0 0-2.475l-3.2-3.2.886-.886a4.709 4.709 0 0 0 1.308-2.643l10.526-8.561a1.75 1.75 0 0 0 -2.207-2.716zm-41.982 22.224 7.422 7.421-1.768 1.767-7.422-7.421zm11.666 3.18-1.768 1.767-7.423-7.423 1.768-1.767zm-11.497 11.496a4.231 4.231 0 0 1 -6 0l-1.41-1.41a4.26 4.26 0 0 1 0-6.016l3-3 7.421 7.421zm29.02-15.894-20.549-20.548 1.768-1.768 20.548 20.548zm-11.869-20.353.886-.886a1.252 1.252 0 0 1 1.766 0l9.894 9.895a1.255 1.255 0 0 1 .006 1.78l-.881.881z"/><path d="m64.623 75.307-3.244 2.636a1.75 1.75 0 0 0 2.207 2.717l3.245-2.637a1.75 1.75 0 1 0 -2.208-2.716z"/><path d="m121.507 4.753a1.752 1.752 0 0 0 -1.937-.367l-12.779 5.578a1.75 1.75 0 0 0 1.4 3.208l8.689-3.793-15.88 36.381-32.293 26.229a1.751 1.751 0 0 0 2.208 2.717l32.619-26.5a1.752 1.752 0 0 0 .5-.658l17.84-40.86a1.748 1.748 0 0 0 -.367-1.935z"/><path d="m74.163 37.021-2.986 3.679a1.75 1.75 0 1 0 2.717 2.2l2.985-3.675a1.75 1.75 0 0 0 -2.716-2.208z"/></g></g></svg>