<svg clip-rule="evenodd" fill-rule="evenodd" height="512" image-rendering="optimizeQuality" shape-rendering="geometricPrecision" text-rendering="geometricPrecision" viewBox="0 0 512 512" width="512" xmlns="http://www.w3.org/2000/svg"><g id="Layer_x0020_1"><path d="m105 320h50c3 0 5 2 5 5s-2 5-5 5h-50c-3 0-5-2-5-5s2-5 5-5zm-25 25h101v-52c0-3-3-6-7-6h-88c-3 0-6 3-6 6zm80-38c0 3-2 5-5 5h-50c-3 0-5-2-5-5s2-5 5-5h50c3 0 5 2 5 5z" fill="#ccc"/><path d="m254 191h57 126l-35-22h-167l-35 22z" fill="#aab4c0"/><path d="m235 159h167l36-23h-239z" fill="#aab4c0"/><path d="m224 164-37-24v47z" fill="#9ea7b2"/><path d="m455 137-43 27 43 26 43-26z" fill="#9ea7b2"/><path d="m177 196v-65-12c-3 1-6 2-9 2s-6-1-9-2v29 31 30c3-1 6-2 9-2s6 1 9 1z" fill="#fdc931"/><path d="m168 111c4 0 7-1 10-3l2-2c4-3 6-8 6-13 0-10-8-18-18-18-9 0-17 8-17 18s8 18 17 18z" fill="#fda328"/><path d="m186 234c0-9-8-17-18-17-9 0-17 8-17 17 0 10 8 18 17 18 10 0 18-8 18-18z" fill="#fda328"/><path d="m140 188c5 0 9-4 9-9v-31c0-5-4-9-9-9-4 0-8 4-8 9v31c0 5 4 9 8 9z" fill="#a75e31"/><path d="m122 179v-31c0 3 2 5 5 5s5-2 5-5c0-5-2-9-5-13-4-4-9-6-14-6-6 0-11 2-14 6 3 3 5 8 5 13v31c0 5 4 9 9 9 4 0 9-4 9-9z" fill="#8d4e28"/><path d="m94 179v-31c0 3 2 5 5 5s5-2 5-5c0-5-2-10-5-13-3-4-8-6-14-6-8 0-14 4-17 11 5 6 8 15 8 24v15c0 5 4 9 9 9s9-4 9-9z" fill="#a75e31"/><path d="m43 192c11-3 20-12 23-23h-10c-2 6-7 12-13 13z" fill="#fdc931"/><path d="m43 145c7 2 12 7 13 14h10c-2-12-11-21-23-23z" fill="#fda328"/><path d="m20 159c1-7 6-12 13-14v-9c-12 2-21 11-23 23z" fill="#fdc931"/><path d="m33 182c-6-1-12-7-13-13h-10c3 11 12 20 23 23z" fill="#fda328"/><path d="m259 201v144h47v-144z" fill="#fdbd80"/><path d="m38 173c5 0 9-5 9-9 0-5-4-10-9-10s-9 5-9 10c0 4 4 9 9 9z" fill="#c92213"/><path d="m181 345h-101v-52c0-3 3-6 6-6h88c4 0 7 3 7 6zm-111-52v52 5c0 3 2 5 5 5h-36c-10 0-18 8-18 18v64h470v-64c0-10-8-18-18-18h-162-57c3 0 5-2 5-5v-5-144h-10v144 5c0 3 2 5 5 5h-68c3 0 5-2 5-5v-5-52c0-8-8-16-17-16h-88c-9 0-16 7-16 16z" fill="#6c4b42"/><g id="_611617776"><g><path d="m496 447h-480c-3 0-5-2-5-5v-69c0-16 12-28 28-28h434c16 0 28 12 28 28v69c0 3-2 5-5 5zm-475-10h470v-64c0-10-8-18-18-18h-434c-10 0-18 8-18 18z"/></g><g><path d="m186 355h-111c-3 0-5-2-5-5v-57c0-9 7-16 16-16h88c9 0 17 8 17 16v57c0 3-2 5-5 5zm-106-10h101v-52c0-3-3-6-7-6h-88c-3 0-6 3-6 6z"/></g><g><path d="m155 312h-50c-3 0-5-2-5-5s2-5 5-5h50c3 0 5 2 5 5s-2 5-5 5z"/></g><g><path d="m155 330h-50c-3 0-5-2-5-5s2-5 5-5h50c3 0 5 2 5 5s-2 5-5 5z"/></g><g><path d="m311 355c-3 0-5-2-5-5v-154c0-3 2-5 5-5s5 2 5 5v154c0 3-2 5-5 5zm-57 0c-3 0-5-2-5-5v-154c0-3 2-5 5-5s5 2 5 5v154c0 3-2 5-5 5z"/></g><g><path d="m455 201h-273c-3 0-5-2-5-5s2-5 5-5h272l44-27-44-28h-272c-3 0-5-2-5-5s2-5 5-5h273c1 0 2 0 3 1l52 33c1 1 2 2 2 4s-1 3-2 4l-52 32c-1 1-2 1-3 1z"/></g><g><path d="m182 201c-2 0-3-1-4-2-2-3-1-6 1-7l45-28-45-29c-2-1-3-4-1-7 1-2 4-3 7-1l52 33c1 1 2 2 2 4s-1 3-2 4l-52 32c-1 1-2 1-3 1z"/></g><g><path d="m455 201c-1 0-2 0-3-1l-52-32c-1-1-2-2-2-4s1-3 2-4l52-33c3-2 6-1 7 1 2 3 1 6-1 7l-46 29 46 28c2 1 3 4 1 7-1 1-2 2-4 2z"/></g><g><path d="m403 169h-169c-3 0-5-2-5-5s2-5 5-5h169c3 0 5 2 5 5s-2 5-5 5z"/></g><g><path d="m182 221c-3 0-5-2-5-5v-105c0-3 2-5 5-5s5 2 5 5v105c0 3-2 5-5 5zm-28 0c-3 0-5-2-5-5v-105c0-3 2-5 5-5s5 2 5 5v105c0 3-2 5-5 5z"/></g><g><path d="m168 121c-14 0-27-13-27-28s12-28 27-28c16 0 28 12 28 28 0 15-13 28-28 28zm0-46c-9 0-17 8-17 18s8 18 17 18c10 0 18-8 18-18s-8-18-18-18z"/></g><g><path d="m168 262c-15 0-27-13-27-28s12-27 27-27 28 12 28 27c0 16-12 28-28 28zm0-45c-9 0-17 8-17 17 0 10 8 18 17 18 10 0 18-8 18-18 0-9-8-17-18-17z"/></g><g><path d="m140 198c-10 0-18-8-18-19v-31c0-11 8-19 18-19 11 0 19 8 19 19 0 3-2 5-5 5s-5-2-5-5c0-5-4-9-9-9-4 0-8 4-8 9v31c0 5 4 9 8 9 5 0 9-4 9-9 0-3 2-5 5-5s5 2 5 5c0 11-8 19-19 19z"/></g><g><path d="m113 198c-11 0-19-8-19-19v-31c0-11 8-19 19-19 10 0 19 9 19 19 0 3-2 5-5 5s-5-2-5-5c0-5-5-9-9-9-5 0-9 4-9 9v31c0 5 4 9 9 9 4 0 9-4 9-9 0-3 2-5 5-5s5 2 5 5c0 10-9 19-19 19z"/></g><g><path d="m85 198c-11 0-19-8-19-19v-31c0-11 8-19 19-19s19 8 19 19c0 3-2 5-5 5s-5-2-5-5c0-5-4-9-9-9s-9 4-9 9v31c0 5 4 9 9 9s9-4 9-9c0-3 2-5 5-5s5 2 5 5c0 11-8 19-19 19z"/></g><g><path d="m38 202c-21 0-38-17-38-38s17-38 38-38 38 17 38 38-17 38-38 38zm0-66c-16 0-28 12-28 28 0 15 13 28 28 28s28-13 28-28c0-16-12-28-28-28z"/></g><g><path d="m38 183c-10 0-19-9-19-19 0-11 8-20 19-20 10 0 19 9 19 20 0 10-9 19-19 19zm0-29c-5 0-9 5-9 10 0 4 4 9 9 9s9-5 9-9c0-5-4-10-9-10z"/></g><g><path d="m71 169h-19c-3 0-5-2-5-5s2-5 5-5h19c3 0 5 2 5 5s-2 5-5 5z"/></g><g><path d="m38 202c-3 0-5-2-5-5v-19c0-3 2-5 5-5s5 2 5 5v19c0 3-2 5-5 5z"/></g><g><path d="m24 169h-19c-3 0-5-2-5-5s2-5 5-5h19c3 0 5 2 5 5s-2 5-5 5z"/></g><g><path d="m38 154c-3 0-5-2-5-5v-18c0-3 2-5 5-5s5 2 5 5v18c0 3-2 5-5 5z"/></g></g></g></svg>