<svg id="Capa_1" enable-background="new 0 0 511.994 511.994" viewBox="0 0 511.994 511.994" xmlns="http://www.w3.org/2000/svg"><g><g fill="#12b0ff"><path d="m280.391 331.869-38.246 93.959 14.899 5.201c1.6.559 14.148 4.746 30.489 4.746 2.965 0 6.055-.138 9.227-.46 29.13-2.961 50.96-20.427 61.479-49.186l20.641-54.26z"/><path d="m226.898 229.876-2.99-13.88c-5.598-25.977 3.278-43.677 10.411-57.9 4.999-9.969 9.316-18.579 9.316-29.753 0-14.455-3.591-31.499-3.628-31.669l-4.353-20.454 20.771 2.434c38.073 4.462 66.977 26.607 83.586 64.042 11.974 26.988 13.206 52.596 13.253 53.673l.578 13.367z"/><path d="m149.704 381.317c-14.402 0-25.271-2.588-25.865-2.732l-16.913-4.11 29.668-72.887 87.285 30.971c-8.479 26.784-29.631 43.762-59.558 47.808-5.084.687-10.03.95-14.617.95z"/></g><g><path d="m284.829 242.766-193.379 24.731 10 45.506c10.609-2.556 22.011-1.711 32.319 2.894 42.137 18.826 105.024 41.267 165.338 41.267 4.402 0 8.657-.077 12.77-.225l61.174-9.731c34.606-11.23 51.286-29.886 64.735-44.935 12.255-13.713 18.233-19.775 31.544-19.775h42.666v-15z" fill="#86ddff"/><path d="m469.328 252.497c-13.958 0-21.124-6.794-34.744-20.928-21.854-22.679-51.783-53.738-135.478-53.738-61.221 0-125.108 23.073-167.923 42.428-9.591 4.336-19.929 5.495-29.734 3.712l-10 43.527h420.545v-15h-42.666z" fill="#b6ebff"/></g><path d="m366.026 347.694c-28.229 0-51.196-22.967-51.196-51.197h-30c0 23.983 10.459 45.562 27.047 60.439 25.225-.91 45.126-4.52 61.174-9.729-2.321.31-4.667.487-7.025.487z" fill="#6cccff"/><g><path d="m340.671 267.497v15h30v-15l-15-10z" fill="#2b2b2b"/><path d="m340.671 252.497h30v15h-30z" fill="#404040"/></g><path d="m16.525 269.915c0 7.21-3.4 15.003-7 23.254-7.874 18.047-18.658 42.764 4.362 72.652l10.379 13.476 53.586-53.191c6.614-6.566 14.836-10.993 23.598-13.104v-45.506l-40.004-10-45.048 10c.079.813.127 1.62.127 2.419z" fill="#12b0ff"/><path d="m75.425 210.512-51.268-49.838-10.271 13.334c-23.021 29.889-12.236 54.605-4.362 72.652 3.201 7.337 6.238 14.312 6.873 20.836h85.052v-43.526c-9.582-1.742-18.656-6.294-26.024-13.458z" fill="#6cccff"/></g><g/><g/><g/><g/><g/><g/><g/><g/><g/><g/><g/><g/><g/><g/><g/></svg>