<svg clip-rule="evenodd" fill-rule="evenodd" height="512" image-rendering="optimizeQuality" shape-rendering="geometricPrecision" text-rendering="geometricPrecision" viewBox="0 0 512 512" width="512" xmlns="http://www.w3.org/2000/svg" xmlns:xodm="http://www.corel.com/coreldraw/odm/2003"><g id="Layer_x0020_1"><g id="_3035143683440"><path d="m269.24 484.59h-26.48c-2.76 0-5-2.24-5-5v-206.53c0-6.57 36.48-6.57 36.48 0v206.53c0 2.76-2.24 5-5 5z" fill="#ec854e"/><path d="m401.92 278.06h-291.84c-3.18 0-5.57-2.98-4.88-6.09l60.13-268.04c.51-2.28 2.53-3.91 4.87-3.91h171.59c2.34 0 4.37 1.63 4.88 3.91l60.13 268.04c.69 3.11-1.7 6.09-4.88 6.09z" fill="#ffe2cb"/><path d="m344.34 278.06h-10.07l-31.98-278.04h10.06zm-160.53 0h-10.05l29.62-278.04h10.05z" fill="#cfb7a5"/><path d="m380.92 511.98h-249.84c-2.76 0-5-2.24-5-5v-6.29c0-14.39 9.28-26.1 20.69-26.1h218.46c11.41 0 20.69 11.71 20.69 26.1v6.29c0 2.76-2.24 5-5 5z" fill="#d56723"/></g></g></svg>