<svg id="Layer_1" viewBox="0 0 1000 1000" xmlns="http://www.w3.org/2000/svg" data-name="Layer 1"><path d="m876.56 884h-469.62a98 98 0 0 1 96.52-81.83h276.54a98 98 0 0 1 96.56 81.83z" fill="#616161"/><path d="m770.05 371.41v398.76h-31.34v-399.17a64.91 64.91 0 0 0 31.34.39z" fill="#fbc02d"/><path d="m788.13 308.17a33 33 0 1 1 -65.92 0c0-.28 0-.57 0-.85a33 33 0 0 1 65.91.85z" fill="#bdbdbd"/><path d="m719.32 254a65.34 65.34 0 0 0 -21.2 23.09l-79-76.27a65.2 65.2 0 0 0 19.81-24.42z" fill="#fbc02d"/><path d="m613 149a32.94 32.94 0 1 1 -.17-3.36v.47c.17.89.17 1.89.17 2.89z" fill="#bdbdbd"/><path d="m515.09 149a65.49 65.49 0 0 0 .7 9.56h-102.43a65.49 65.49 0 0 0 .7-9.56 64.42 64.42 0 0 0 -3.76-21.77h108.55a64.42 64.42 0 0 0 -3.76 21.77z" fill="#fbc02d"/><path d="m382.06 149a33 33 0 1 1 -33-33 33 33 0 0 1 33 33z" fill="#bdbdbd"/><path d="m341.08 483.73-12.65 35.78-54.92-19.42h-.11-.13l-91.69-32.42-55-19.46 12.65-35.78a107.39 107.39 0 0 1 79.77-69.43 13.34 13.34 0 0 0 1.78-.35 107.41 107.41 0 0 1 100.65 35.65v.05a17.47 17.47 0 0 0 1.18 1.4 108.35 108.35 0 0 1 14.08 22.12 106.3 106.3 0 0 1 4.39 81.86z" fill="#546e7a"/><path d="m342.87 299.47-14.5 41a140.24 140.24 0 0 0 -89.23-31.57l14.49-41 16 5.64 59.72 21.11z" fill="#546e7a"/><path d="m341.07 213.43-16.18 45.74-29.54-10.45 16.47-46.58a64.5 64.5 0 0 0 29.25 11.29z" fill="#fbc02d"/><path d="m247.65 524.89-4 11.16a26.55 26.55 0 0 1 -33.84 16.16l-11.65-4.12a26.54 26.54 0 0 1 -16.16-33.83l4-11.17z" fill="#fbc02d"/><path d="m608.28 733.48v36.69h-84.48v-36.69a3.53 3.53 0 0 1 3.52-3.52h77.44a3.53 3.53 0 0 1 3.52 3.52z" fill="#e53935"/><g fill="#fff" opacity=".5"><path d="m866.56 894h-469.62a98 98 0 0 1 96.52-81.83h276.54a98 98 0 0 1 96.56 81.83z"/><path d="m760.05 381.41v398.76h-31.34v-399.17a64.91 64.91 0 0 0 31.34.39z"/><path d="m778.13 318.17a33 33 0 1 1 -65.92 0c0-.28 0-.57 0-.85a33 33 0 0 1 65.91.85z"/><path d="m709.32 264a65.34 65.34 0 0 0 -21.2 23.09l-79-76.27a65.2 65.2 0 0 0 19.81-24.42z"/><path d="m603 159a32.94 32.94 0 1 1 -.17-3.36v.47c.17.89.17 1.89.17 2.89z"/><path d="m505.09 159a65.49 65.49 0 0 0 .7 9.56h-102.43a65.49 65.49 0 0 0 .7-9.56 64.42 64.42 0 0 0 -3.76-21.77h108.55a64.42 64.42 0 0 0 -3.76 21.77z"/><path d="m372.06 159a33 33 0 1 1 -33-33 33 33 0 0 1 33 33z"/><path d="m331.08 493.73-12.65 35.78-54.92-19.42h-.11-.13l-91.69-32.42-55-19.46 12.65-35.78a107.39 107.39 0 0 1 79.77-69.43 13.34 13.34 0 0 0 1.78-.35 107.41 107.41 0 0 1 100.65 35.65v.05a17.47 17.47 0 0 0 1.18 1.4 108.35 108.35 0 0 1 14.08 22.12 106.3 106.3 0 0 1 4.39 81.86z"/><path d="m332.87 309.47-14.5 41a140.24 140.24 0 0 0 -89.23-31.57l14.49-41 16 5.64 59.72 21.11z"/><path d="m331.07 223.43-16.18 45.74-29.54-10.45 16.47-46.58a64.5 64.5 0 0 0 29.25 11.29z"/><path d="m237.65 534.89-4 11.16a26.55 26.55 0 0 1 -33.84 16.16l-11.65-4.12a26.54 26.54 0 0 1 -16.16-33.83l4-11.17z"/><path d="m598.28 743.48v36.69h-84.48v-36.69a3.53 3.53 0 0 1 3.52-3.52h77.44a3.53 3.53 0 0 1 3.52 3.52z"/></g><g fill="#413b32"><path d="m802.05 772a129.89 129.89 0 0 0 -22-1.87h-276.59q-5.9 0-11.66.52c-66.15 5.95-118.17 61.69-118.17 129.35a16 16 0 0 0 16 16h504.24a16 16 0 0 0 16-16c0-64.09-46.68-117.48-107.82-128zm-395.11 112a98 98 0 0 1 96.52-81.83h276.54a98 98 0 0 1 96.56 81.83z"/><path d="m564.9 111.19a16 16 0 0 1 -16 16h-168.65a16 16 0 0 1 0-32h168.65a16 16 0 0 1 16 16z"/><path d="m554.27 174.52a16 16 0 0 1 -16 16h-147.4a16 16 0 0 1 0-32h147.4a16 16 0 0 1 16 16z"/><path d="m759.75 270.81a16 16 0 0 1 -9.17 4.72 16.89 16.89 0 0 1 -2.35.17 16 16 0 0 1 -11.11-4.49l-17.8-17.21-80.42-77.6-21.2-20.4-.21-.2a15.92 15.92 0 0 1 -4.61-9.69c0-.16 0-.32 0-.47a16 16 0 0 1 27.12-12.64l3.87 3.73 110.32 106.49 5.15 5a16 16 0 0 1 .41 22.59z"/><path d="m722.22 307.32a16 16 0 0 1 -27.11 11.36l-4.61-4.45-104.26-100.6-5.76-5.56a16 16 0 1 1 22.22-23l16.39 15.81 79 76.27 19.21 18.53a16 16 0 0 1 4.92 11.64z"/><path d="m802.05 346.17v440a16 16 0 0 1 -16 16h-63.34a16 16 0 0 1 -16-16v-441.34a16 16 0 1 1 32 0v425.34h31.34v-424a16 16 0 0 1 32 0z"/><path d="m755.17 243.21h-1a64.55 64.55 0 0 0 -34.85 10.79 65.34 65.34 0 0 0 -21.2 23.09 64.6 64.6 0 0 0 -7.91 31.05c0 2 .09 4.07.29 6.06a65 65 0 1 0 64.67-71zm0 97.93a33 33 0 0 1 -33-33c0-.28 0-.57 0-.85a33 33 0 1 1 32.95 33.82z"/><path d="m643.85 136.74a64.93 64.93 0 1 0 -63.8 77.2q3.13 0 6.19-.3a64.49 64.49 0 0 0 32.85-12.78 65.2 65.2 0 0 0 19.81-24.42 64.85 64.85 0 0 0 5-39.69zm-63.8 45.19a33 33 0 1 1 32.79-36.33v.47c.09.95.13 1.91.13 2.88a33 33 0 0 1 -33 33z"/><path d="m410.3 127.19a65 65 0 1 0 -98.48 74.95 64.87 64.87 0 0 0 65.26 5.45 64.88 64.88 0 0 0 37-58.63 64.42 64.42 0 0 0 -3.78-21.77zm-94.17 21.81a33 33 0 1 1 33 33 33 33 0 0 1 -33-33z"/><path d="m379.47 200.82-2.39 6.77-22 62.25-5.33 15.08a16 16 0 0 1 -15.09 10.67 15.78 15.78 0 0 1 -5.33-.92 16 16 0 0 1 -9.75-20.42l5.33-15.08 16.18-45.74 8.23-23.28a16 16 0 0 1 30.17 10.67z"/><path d="m320.74 176.91-8.92 25.23-16.47 46.58-5.35 15.09a16 16 0 0 1 -30.17-10.67l5.33-15.09 23.27-65.8 2.12-6a16 16 0 1 1 30.17 10.67z"/><path d="m181.58 467.59a16 16 0 0 1 9.75 20.41l-5.33 15.09 61.65 21.8 5.35-15.09a16 16 0 0 1 20.27-9.8zm184-79.49a140.64 140.64 0 0 0 -12.58-21.35 136.93 136.93 0 0 0 -24.64-26.28l-6.32 17.88a16 16 0 0 0 -.62 19.95v.05c.41.46.8.93 1.18 1.4a108.35 108.35 0 0 1 14.08 22.12 106.3 106.3 0 0 1 4.33 81.83l-12.65 35.78-54.92-19.42h-.11-.13l-91.69-32.42-55-19.46 12.65-35.78a107.39 107.39 0 0 1 79.84-69.4l1.78-.35a16 16 0 0 0 12-15.9l6.33-17.89a137.82 137.82 0 0 0 -35.7 5 140.19 140.19 0 0 0 -23.23 8.69 138.15 138.15 0 0 0 -71.18 79.13l-18 50.87a16 16 0 0 0 9.8 20.45l55 19.45 30.2 10.64 61.65 21.8 30.17 10.66 55 19.46a16 16 0 0 0 20.42-9.75l18-50.86a138.09 138.09 0 0 0 -5.62-106.3z"/><path d="m319.15 363.39a16 16 0 0 0 2.28 14.91 107.41 107.41 0 0 0 -100.64-35.61 16 16 0 0 0 12-15.9l6.33-17.89a140.24 140.24 0 0 1 89.23 31.57l-6.32 17.88a15.9 15.9 0 0 0 -2.88 5.04z"/><path d="m378.37 295.05-25.37 71.7-2.7 7.65a16 16 0 0 1 -15.08 10.67 15.78 15.78 0 0 1 -5.33-.92l-1-.35a16 16 0 0 1 -6.24-4c-.38-.47-.77-.94-1.18-1.4v-.05a16 16 0 0 1 .62-19.95l6.32-17.88 14.5-41-13.56-4.8-59.72-21.11-16-5.64-14.49 41-6.33 17.89a16 16 0 0 1 -12 15.9 13.34 13.34 0 0 1 -1.81.24 15.75 15.75 0 0 1 -7.53-.76l-1-.35a16 16 0 0 1 -9.75-20.42l2.7-7.65 25.35-71.69a16 16 0 0 1 20.42-9.76l16 5.64 30.17 10.67 29.54 10.45 30.17 10.67 13.56 4.79a16 16 0 0 1 9.74 20.46z"/><path d="m283.15 520.47-5.33 15.08-3.95 11.17a58.5 58.5 0 0 1 -74.67 35.66l-11.66-4.12a58.57 58.57 0 0 1 -35.66-74.67l4-11.17 5.33-15.08a16 16 0 0 1 30.12 10.66l-5.33 15.09-3.95 11.17a26.54 26.54 0 0 0 16.16 33.83l11.65 4.12a26.55 26.55 0 0 0 33.84-16.16l4-11.16 5.3-15.09a16 16 0 0 1 20.27-9.8h.13.11a16 16 0 0 1 9.64 20.47z"/><path d="m604.76 698h-77.44a35.55 35.55 0 0 0 -35.52 35.52v52.69a16 16 0 0 0 16 16h116.48a16 16 0 0 0 16-16v-52.73a35.55 35.55 0 0 0 -35.52-35.48zm-81 72.21v-36.73a3.53 3.53 0 0 1 3.52-3.52h77.44a3.53 3.53 0 0 1 3.52 3.52v36.69z"/></g></svg>