<svg height="512" viewBox="0 0 48 48" width="512" xmlns="http://www.w3.org/2000/svg"><g id="Line"><path d="m37 5h-20c-1.654 0-3 1.346-3 3v9c0 .552.447 1 1 1h24c.553 0 1-.448 1-1v-9c0-1.654-1.346-3-3-3z" fill="#f8a358"/><path d="m45.825 26.027-1.201-6.008c-.466-2.329-2.528-4.019-4.903-4.019h-26.777c-3.432 0-6.517 1.906-8.05 4.975-.705 1.66-3.045 5.272-2.894 6.969v7.731c-.088.645.454 1.665.596 2.273.409 1.228 1.552 2.052 2.845 2.052h37.117c1.293 0 2.437-.824 2.846-2.051.182-.604.629-1.634.596-2.273-.048-1.349.152-8.468-.175-9.649z" fill="#ffd267"/><g fill="#7f6654"><path d="m10 35c-5.286.168-5.285 7.833 0 8 5.286-.168 5.285-7.833 0-8z"/><path d="m38 35c-5.286.168-5.285 7.833 0 8 5.286-.168 5.285-7.833 0-8z"/></g><path d="m30.5 9h-.5c0-.552-.447-1-1-1h-6c-.553 0-1 .448-1 1v3c0 1.654 1.346 3 3 3 1.371-.001 3.285.223 4.22-1h1.28c3.295-.086 3.297-4.914 0-5zm0 3h-.5v-1h.5c.654.003.654.997 0 1z" fill="#f2f2f2"/><path d="m41 21v9c0 .55-.45 1-1 1-.48 0-.86-.34-.96-.79-3.9.45-18.56.79-19.04.79-.55 0-1-.45-1-1v-9c.003-.546.452-1.004 1-1h20c.549.001.998.449 1 1z" fill="#7f6654"/><path d="m40.67 20.26-2.28 3.46c-1.067 1.686-3.714 1.686-4.78 0 0 0-.61-.92-.61-.92-.655 1.137-1.566 2.246-3 2.2-1.433.047-2.346-1.063-3-2.2 0 0-.61.92-.61.92-1.065 1.686-3.715 1.686-4.78 0 0 0-2.26-3.48-2.26-3.48.18-.15.4-.24.65-.24h20c.26 0 .49.1.67.26z" fill="#f8a358"/><path d="m16 20h-4.764c-1.144 0-2.172.635-2.684 1.658l-2.447 4.895c-.341.634.174 1.469.895 1.447h9c.553 0 1-.448 1-1v-6c0-.552-.447-1-1-1z" fill="#f2f2f2"/><g><path d="m42 31h-24c-1.3-.004-1.314-1.994 0-2h24c1.3.004 1.314 1.994 0 2z" fill="#f8a358"/></g><path d="m44.624 20.019c-.447-2.236-2.37-3.866-4.624-3.994v-8.025c0-1.654-1.346-3-3-3h-20c-1.654 0-3 1.346-3 3v8h-1.056c-3.432 0-6.517 1.906-8.05 4.975-.703 1.658-3.045 5.273-2.894 6.969v7.731c-.088.649.454 1.663.596 2.273.481 1.523 2.035 2.216 3.546 2.052 1.022 3.958 6.695 3.963 7.716 0h20.284c1.009 3.952 6.702 3.964 7.716 0 1.505.161 3.072-.526 3.546-2.051.185-.607.628-1.631.596-2.273v-7.883c.083-1.248-1.171-6.472-1.376-7.774zm-28.624-12.019c0-.551.448-1 1-1h20c.552 0 1 .449 1 1v8h-22zm-6 33c-2.628-.047-2.628-3.953 0-4 2.628.047 2.628 3.953 0 4zm28 0c-2.628-.047-2.628-3.953 0-4 2.628.047 2.628 3.953 0 4zm6-5.325c.05.23-.448 1.406-.492 1.641-.234.74-1.016.71-1.65.684-1.025-3.965-6.696-3.956-7.716 0h-20.284c-.447-1.72-1.999-3-3.858-3s-3.411 1.28-3.858 3h-.701c-.431 0-.813-.275-.949-.684-.066-.235-.515-1.408-.492-1.641v-7.731c0-.463.109-.927.316-1.342l2.367-4.733c1.193-2.387 3.592-3.869 6.261-3.869h26.776c1.426 0 2.663 1.014 2.942 2.412.178 1.051 1.4 6.417 1.337 7.38.001 0 .001 7.883.001 7.883z"/><path d="m30.5 9h-.5c0-.552-.447-1-1-1h-6c-.553 0-1 .448-1 1v3c0 1.654 1.346 3 3 3 1.371-.001 3.285.223 4.22-1h1.28c3.295-.086 3.297-4.914 0-5zm-3.5 4h-2c-.552 0-1-.449-1-1v-2h4v2c0 .551-.448 1-1 1zm3.5-1h-.5v-1h.5c.654.003.654.997 0 1z"/><path d="m42 29h-1v-8c0-.552-.447-1-1-1h-20c-.553 0-1 .448-1 1v8h-1c-1.306.018-1.321 1.978 0 2h24c1.3-.006 1.314-1.993 0-2zm-4.868-7-.409.613c-.322.484-1.123.484-1.445 0l-.41-.613zm-6 0-.409.613c-.322.484-1.123.484-1.445 0l-.41-.613zm-6 0-.409.613c-.322.484-1.123.484-1.445 0l-.41-.613zm-4.132.803c.662 1.137 1.557 2.244 3 2.197 1.442.048 2.34-1.063 3-2.197.66 1.136 1.559 2.245 3 2.197 1.44.048 2.342-1.063 3-2.197.658 1.134 1.561 2.246 3 2.197 1.437.049 2.343-1.063 3-2.197v6.197h-18z"/><path d="m17 21c0-.552-.447-1-1-1h-4.764c-1.144 0-2.172.635-2.684 1.658l-2.447 4.895c-.341.634.174 1.469.895 1.447h9c.553 0 1-.448 1-1zm-2 5h-6.382l1.724-3.447c.171-.341.513-.553.894-.553h3.764z"/></g></svg>