<svg height="512" viewBox="0 0 128 128" width="512" xmlns="http://www.w3.org/2000/svg"><g><g><path d="m44.52 34.631h47.694v66.832h-47.694z" fill="#b373f0"/><path d="m35.786 26.537h47.694v66.832h-47.694z" fill="#ff7ceb"/><g fill="#fff4f4"><path d="m44.075 32.082-.918-1.649-.918 1.649h-1.82l.91 1.635-.91 1.634h1.82l.918 1.649.918-1.649h1.819l-.91-1.634.91-1.635z"/><path d="m77.771 86.19.909-1.635h-1.819l-.918-1.648-.918 1.648h-1.819l.909 1.635-.909 1.634h1.819l.918 1.649.918-1.649h1.819z"/></g></g><g fill="#002e49"><path d="m92.213 84.44a1.751 1.751 0 0 0 -1.75 1.75v13.523h-44.193v-1.713a1.75 1.75 0 0 0 -3.5 0v3.463a1.75 1.75 0 0 0 1.75 1.75h47.693a1.749 1.749 0 0 0 1.75-1.75v-15.273a1.75 1.75 0 0 0 -1.75-1.75z"/><path d="m92.213 32.881h-6.983v-6.344a1.75 1.75 0 0 0 -1.75-1.75h-17.355a1.75 1.75 0 0 0 0 3.5h15.605v63.332h-44.193v-63.332h13.8a1.75 1.75 0 0 0 0-3.5h-15.55a1.749 1.749 0 0 0 -1.75 1.75v66.832a1.749 1.749 0 0 0 1.75 1.75h47.693a1.75 1.75 0 0 0 1.75-1.75v-56.988h5.233v42.819a1.75 1.75 0 0 0 3.5 0v-44.569a1.749 1.749 0 0 0 -1.75-1.75z"/><path d="m58.5 28.287h1.133a1.75 1.75 0 0 0 0-3.5h-1.133a1.75 1.75 0 0 0 0 3.5z"/><path d="m61.163 39.852a1.751 1.751 0 0 0 -3.059 0l-4.882 8.769h-9.639a1.751 1.751 0 0 0 -1.529 2.6l4.86 8.73-4.86 8.732a1.75 1.75 0 0 0 1.529 2.6h4.084a1.75 1.75 0 0 0 0-3.5h-1.106l2.356-4.234 9.187 16.5a1.752 1.752 0 0 0 3.059 0l4.881-8.769h9.639a1.75 1.75 0 0 0 1.529-2.6l-4.86-8.732 4.86-8.73a1.751 1.751 0 0 0 -1.529-2.6h-4.183a1.75 1.75 0 0 0 0 3.5h1.206l-2.357 4.234zm-1.53 4.448 2.4 4.32h-4.81zm-13.072 7.82h4.713l-2.357 4.234zm8.719 0h8.706l4.36 7.832-4.36 7.833h-8.7l-4.366-7.832zm4.353 23.484-2.4-4.319h4.809zm13.073-7.819h-4.714l2.357-4.234z"/><path d="m42.239 35.351.918 1.649.918-1.649h1.819l-.91-1.634.91-1.635h-1.819l-.918-1.649-.918 1.649h-1.82l.91 1.635-.91 1.634z"/><path d="m76.861 84.555-.918-1.648-.918 1.648h-1.819l.909 1.635-.909 1.634h1.819l.918 1.649.918-1.649h1.819l-.909-1.634.909-1.635z"/></g></g></svg>