<svg id="Layer_1" enable-background="new 0 0 64 64" viewBox="0 0 64 64" xmlns="http://www.w3.org/2000/svg"><g><g><path d="m41.09 39.95 1.3 15h-35.44l1.3-33.74h32.84v10.5z" fill="#ff8f83"/></g><g><path d="m8.25 21.21 5.79-7.68h22.45l4.61 7.68z" fill="#ffeba8"/></g><g><path d="m40.46 27.23h13.13v15.4h-13.13z" fill="#ffa669" transform="matrix(.744 .668 -.668 .744 35.386 -22.477)"/></g><g><path d="m6.95 54.95h35.44v4.38h-35.44z" fill="#ffeba8"/></g><g><path d="m42.39 55.95h-35.44c-.27 0-.53-.11-.72-.31s-.29-.46-.28-.73l1.29-33.74c.02-.54.46-.96 1-.96h32.85c.55 0 1 .45 1 1v10.5c0 .55-.45 1-1 1s-1-.45-1-1v-9.5h-30.88l-1.22 31.74h33.31l-1.2-13.91c-.05-.55.36-1.04.91-1.08.55-.05 1.04.36 1.08.91l1.29 14.99c.02.28-.07.56-.26.76-.18.21-.45.33-.73.33z"/></g><g><path d="m41.1 22.21c-.34 0-.67-.17-.86-.49l-4.32-7.19h-21.38l-5.49 7.28c-.33.44-.96.53-1.4.2s-.53-.96-.2-1.4l5.79-7.68c.19-.25.48-.4.8-.4h22.45c.35 0 .68.18.86.49l4.61 7.68c.28.47.13 1.09-.34 1.37-.17.09-.35.14-.52.14z"/></g><g><path d="m52.36 30.38c-.19 0-.38-.05-.54-.16-.46-.3-.59-.92-.29-1.38 3.56-5.45 3.67-12.2.29-17.19-3.32-4.9-9.13-6.92-15.96-5.55-10.28 2.06-10.2 10.87-10.19 11.25.01.55-.42 1.01-.98 1.02-.56-.03-1.01-.42-1.02-.98 0-.11-.11-10.87 11.78-13.26 7.54-1.51 14.27.87 18.01 6.39 3.83 5.66 3.73 13.28-.27 19.4-.18.3-.5.46-.83.46z"/></g><g><path d="m46.76 46.05c-.25 0-.48-.09-.67-.26l-9.77-8.77c-.41-.37-.45-1-.08-1.41l10.29-11.46c.18-.2.43-.32.69-.33.28-.01.52.08.72.25l9.77 8.77c.41.37.45 1 .08 1.41l-10.29 11.47c-.18.2-.43.32-.69.33-.02 0-.03 0-.05 0zm-8.36-9.85 8.28 7.44 8.95-9.97-8.28-7.44z"/></g><g><path d="m42.39 60.33h-35.44c-.55 0-1-.45-1-1v-4.38c0-.55.45-1 1-1s1 .45 1 1v3.38h33.44v-3.38c0-.55.45-1 1-1s1 .45 1 1v4.38c0 .55-.45 1-1 1z"/></g><g><path d="m17.66 52.24h-6.72c-.27 0-.53-.11-.72-.31s-.29-.46-.28-.73l.27-6.89c.02-.55.5-.98 1.04-.96.55.02.98.49.96 1.04l-.23 5.85h5.68c.55 0 1 .45 1 1s-.45 1-1 1z"/></g></g></svg>