<svg clip-rule="evenodd" fill-rule="evenodd" stroke-linejoin="round" stroke-miterlimit="2" viewBox="0 0 96 96" xmlns="http://www.w3.org/2000/svg"><g><g><path d="m94 9.578c0-.796-.316-1.559-.879-2.121-.562-.563-1.325-.879-2.121-.879-11.298 0-51.215 0-62.513 0-.796 0-1.559.316-2.122.879-.562.562-.878 1.325-.878 2.121v50.725h65.513c.796 0 1.559-.316 2.121-.879.563-.562.879-1.325.879-2.121 0-9.415 0-38.31 0-47.725z" fill="#72a962"/><path d="m94 51.593h-15.753c-1.657 0-3 1.343-3 3v5.71h15.753c1.657 0 3-1.343 3-3 0-2.519 0-5.71 0-5.71z" fill="#95bf89"/><circle cx="24.842" cy="39.123" fill="#fac7a5" r="12.224"/><path d="m44.357 58.869h-27.022c-5.871 0-10.885 4.237-11.864 10.026-1.506 8.908-3.471 20.527-3.471 20.527h34.184v-19.11h8.625c2.663 0 5.222-1.029 7.144-2.873 1.978-1.898 4.598-4.411 6.774-6.499 1.095-1.05 1.728-2.492 1.759-4.009.031-1.502-.529-2.954-1.559-4.045-.011-.012-.055-.058-.066-.069-1.047-1.074-2.475-1.694-3.977-1.726-1.517-.031-2.984.541-4.079 1.592-2.968 2.847-6.448 6.186-6.448 6.186z" fill="#4f4f4f"/><path d="m48.684 54.718 7.538 8.626s1.711-1.642 2.505-2.404c1.095-1.05 1.728-2.492 1.759-4.009.031-1.502-.529-2.954-1.559-4.045-.011-.012-.055-.058-.066-.069-1.047-1.074-2.475-1.694-3.977-1.726-1.517-.031-2.984.541-4.079 1.592-.696.668-2.121 2.035-2.121 2.035z" fill="#fac7a5"/><path d="m14.517 80.326h8.97c1.104 0 2 .896 2 2v7.096h-12.508z" fill="#f3ae24"/></g><g><path d="m26.575 22.046v-12.699c0-.403.16-.789.444-1.073.285-.285.671-.445 1.074-.445h62.889c.403 0 .789.16 1.073.445.285.284.445.67.445 1.073v48.012c0 .403-.16.789-.445 1.073-.284.285-.67.445-1.073.445h-31.381c-.828 0-1.5.672-1.5 1.5s.672 1.5 1.5 1.5h31.381c1.198 0 2.347-.476 3.195-1.323.847-.848 1.323-1.997 1.323-3.195v-48.012c0-1.198-.476-2.348-1.323-3.195-.848-.847-1.997-1.323-3.195-1.323-11.366 0-51.523 0-62.889 0-1.198 0-2.348.476-3.195 1.323s-1.323 1.997-1.323 3.195v12.699c0 .828.672 1.5 1.5 1.5s1.5-.672 1.5-1.5z"/><path d="m58.834 68.358v21.313c0 .828.673 1.5 1.5 1.5.828 0 1.5-.672 1.5-1.5v-21.313c0-.828-.672-1.5-1.5-1.5-.827 0-1.5.672-1.5 1.5z"/><path d="m94 50.115h-16.854c-1.94 0-3.512 1.572-3.512 3.512v6.75c0 .828.672 1.5 1.5 1.5s1.5-.672 1.5-1.5v-6.75c0-.283.229-.512.512-.512h16.854c.828 0 1.5-.672 1.5-1.5s-.672-1.5-1.5-1.5z"/><path d="m35.522 17.945h20.712c.827 0 1.5-.672 1.5-1.5s-.673-1.5-1.5-1.5h-20.712c-.828 0-1.5.672-1.5 1.5s.672 1.5 1.5 1.5z"/><path d="m35.522 25.696h49.625c.828 0 1.5-.672 1.5-1.5 0-.827-.672-1.5-1.5-1.5h-49.625c-.828 0-1.5.673-1.5 1.5 0 .828.672 1.5 1.5 1.5z"/><path d="m44.6 33.448h9.788c.828 0 1.5-.672 1.5-1.5s-.672-1.5-1.5-1.5h-9.788c-.827 0-1.5.672-1.5 1.5s.673 1.5 1.5 1.5z"/><path d="m68.635 44.037h15.482c.828 0 1.5-.672 1.5-1.5s-.672-1.5-1.5-1.5h-15.482c-.828 0-1.5.672-1.5 1.5s.672 1.5 1.5 1.5z"/><path d="m72.34 33.448h12.567c.828 0 1.5-.672 1.5-1.5s-.672-1.5-1.5-1.5h-12.567c-.827 0-1.5.672-1.5 1.5s.673 1.5 1.5 1.5z"/><path d="m24.427 25.273c-7.615 0-13.797 6.182-13.797 13.797s6.182 13.797 13.797 13.797c7.614 0 13.797-6.182 13.797-13.797s-6.183-13.797-13.797-13.797zm0 3c5.959 0 10.797 4.838 10.797 10.797s-4.838 10.797-10.797 10.797-10.797-4.838-10.797-10.797 4.838-10.797 10.797-10.797z"/><path d="m49.507 51.629-5.611 5.382c-.283.272-.659.423-1.051.423h-25.971c-6.638 0-12.307 4.791-13.414 11.337-.998 5.898-2.195 12.978-2.897 17.129-.221 1.311.146 2.653 1.004 3.669.859 1.016 2.121 1.602 3.451 1.602h27.8c2.496 0 4.519-2.023 4.519-4.518v-14.195c0-.136.053-.266.149-.362.097-.096.227-.15.363-.15h6.664c3.066 0 6.013-1.185 8.225-3.307 1.991-1.91 4.627-4.439 6.815-6.538 1.389-1.332 2.191-3.162 2.231-5.085.04-1.904-.671-3.747-1.977-5.131-.013-.014-.069-.072-.083-.086-1.328-1.363-3.14-2.149-5.044-2.189-1.924-.04-3.784.686-5.173 2.019zm-3.534 7.547c1.228-1.178 3.543-3.399 5.611-5.383.814-.781 1.906-1.207 3.034-1.183 1.117.023 2.179.484 2.958 1.283.008.009.041.043.049.051.766.812 1.183 1.893 1.16 3.009-.023 1.129-.494 2.202-1.309 2.983-2.188 2.1-4.824 4.628-6.815 6.538-1.653 1.586-3.856 2.472-6.148 2.472-2.235 0-4.886 0-6.664 0-.932 0-1.825.37-2.484 1.029-.658.658-1.028 1.552-1.028 2.483v14.195c-.001.838-.68 1.518-1.518 1.518-.001 0-27.801 0-27.801 0-.447 0-.871-.197-1.159-.538-.289-.342-.412-.793-.338-1.233l2.897-17.129c.863-5.102 5.282-8.837 10.456-8.837h25.971c1.166 0 2.286-.451 3.128-1.258z"/><path d="m13.971 89.921 2.623-15.515c.138-.816-.412-1.591-1.229-1.729-.816-.138-1.591.413-1.729 1.229l-2.623 15.515c-.138.816.412 1.591 1.229 1.729.816.138 1.591-.413 1.729-1.229z"/><path d="m14.039 82.021h9.024c.283 0 .512.229.512.512v7.138c0 .828.672 1.5 1.5 1.5s1.5-.672 1.5-1.5v-7.138c0-1.94-1.573-3.512-3.512-3.512-3.183 0-9.024 0-9.024 0-.828 0-1.5.672-1.5 1.5s.672 1.5 1.5 1.5z"/><path d="m57.662 51.824 6.213-19.419c.252-.789-.183-1.634-.972-1.886-.788-.252-1.633.183-1.886.972l-6.212 19.419c-.252.788.183 1.633.971 1.885.789.253 1.634-.183 1.886-.971z"/></g></g></svg>