<svg height="512" viewBox="0 0 128 128" width="512" xmlns="http://www.w3.org/2000/svg"><g><g><path d="m108.905 27.63v48.67a8.632 8.632 0 0 1 -8.63 8.63h-3.075v-12.02a12.936 12.936 0 0 0 -12.94-12.94h-17.655a9.8 9.8 0 0 0 -6.98 2.92l-9.725 9.87-12.595-12.59-6.69 6.69 12.59 12.59 2.35 2.35a6.132 6.132 0 0 0 8.68 0l2.35-2.35 5.92-5.92v11.4h-34.97a8.632 8.632 0 0 1 -8.63-8.63v-48.67a8.625 8.625 0 0 1 8.63-8.63h72.74a8.625 8.625 0 0 1 8.63 8.63z" fill="#009d8f"/><path d="m37.875 61.722a1.749 1.749 0 0 1 -1.75-1.75v-20.278a1.75 1.75 0 0 1 3.5 0v20.278a1.75 1.75 0 0 1 -1.75 1.75z" fill="#004452"/><circle cx="75.582" cy="44.081" fill="#f5c464" r="8.983"/><path d="m97.2 72.91v23.79h-9.46v12.3h-25.235v-35.47l-5.92 5.92-2.35 2.35a6.132 6.132 0 0 1 -8.68 0l-2.35-2.35-12.59-12.59 6.69-6.69 12.595 12.59 9.73-9.87a9.8 9.8 0 0 1 6.98-2.92h17.65a12.936 12.936 0 0 1 12.94 12.94z" fill="#f5c464"/><path d="m89.482 75.1a1.75 1.75 0 1 0 -3.5 0v21.6a1.749 1.749 0 0 0 1.75 1.75v-1.75h1.747z" fill="#f79f63"/></g><g fill="#250a66"><path d="m109 54.635a1.749 1.749 0 0 0 -1.75 1.75v1.585a1.75 1.75 0 0 0 3.5 0v-1.585a1.749 1.749 0 0 0 -1.75-1.75z"/><path d="m100.37 17.25h-72.74a10.391 10.391 0 0 0 -10.38 10.38v48.67a10.392 10.392 0 0 0 10.38 10.38h33.22v3.844a1.75 1.75 0 1 0 3.5 0v-16.994a1.75 1.75 0 0 0 -2.988-1.237l-8.269 8.27a4.381 4.381 0 0 1 -6.205 0l-13.7-13.7 4.212-4.218 11.353 11.355a1.75 1.75 0 0 0 1.237.513h.01a1.75 1.75 0 0 0 1.24-.522l9.731-9.871a8.092 8.092 0 0 1 5.733-2.4h17.646a11.2 11.2 0 0 1 11.19 11.19v22.04h-5.963v-19.85a1.75 1.75 0 0 0 -3.5 0v21.6.029 10.52h-21.727v-7.367a1.75 1.75 0 1 0 -3.5 0v9.118a1.749 1.749 0 0 0 1.75 1.75h25.23a1.749 1.749 0 0 0 1.75-1.75v-10.55h7.71a1.749 1.749 0 0 0 1.75-1.75v-10.02h1.33a10.392 10.392 0 0 0 10.38-10.38v-7.5a1.75 1.75 0 0 0 -3.5 0v7.5a6.887 6.887 0 0 1 -6.88 6.88h-1.33v-10.27a14.707 14.707 0 0 0 -14.69-14.69h-17.65a11.61 11.61 0 0 0 -8.226 3.441l-8.493 8.615-10.265-10.265c0-.014 0-.026 0-.039v-20.278a1.75 1.75 0 0 0 -3.5 0v19.192c-.019.017-.039.029-.057.047l-6.69 6.69a1.749 1.749 0 0 0 0 2.475l14.94 14.939c.05.05.106.094.157.143h-16.936a6.887 6.887 0 0 1 -6.88-6.88v-48.67a6.887 6.887 0 0 1 6.88-6.88h72.74a6.887 6.887 0 0 1 6.88 6.88v17.87a1.75 1.75 0 1 0 3.5 0v-17.87a10.391 10.391 0 0 0 -10.38-10.38zm-44.8 65.787 5.283-5.282v5.425h-5.443c.052-.049.107-.093.157-.143z"/><path d="m64.943 44.081a10.734 10.734 0 1 0 10.734-10.733 10.747 10.747 0 0 0 -10.734 10.733zm17.967 0a7.234 7.234 0 1 1 -7.233-7.233 7.242 7.242 0 0 1 7.233 7.233z"/></g></g></svg>