<svg id="Layer_1" enable-background="new 0 0 512 512" viewBox="0 0 512 512" xmlns="http://www.w3.org/2000/svg"><g clip-rule="evenodd" fill-rule="evenodd"><g><g><path d="m502.977 405.591c-4.363-58.156-53.312-104.39-112.535-104.39s-108.172 46.234-112.535 104.39c-.345 4.595 3.243 8.461 7.851 8.461h209.369c4.607 0 8.195-3.867 7.85-8.461z" fill="#72d561"/><path d="m502.977 405.591c-4.363-58.156-53.312-104.39-112.535-104.39-2.661 0-5.3.097-7.916.28 55.614 3.902 100.453 48.567 104.619 104.11.344 4.595-3.243 8.461-7.851 8.461h15.832c4.608 0 8.196-3.867 7.851-8.461z" fill="#3cbe52"/><circle cx="390.442" cy="240.208" fill="#ffd6bd" r="60.993"/><path d="m390.442 179.216c33.685 0 60.993 27.307 60.993 60.993 0 33.685-27.308 60.992-60.993 60.992-2.265 0-4.5-.127-6.701-.368 30.532-3.337 54.292-29.204 54.292-60.624s-23.76-57.287-54.292-60.624c2.201-.242 4.436-.369 6.701-.369z" fill="#f9c6aa"/></g><g><path d="m323.548 222.144v-10.528c0-36.791 30.102-66.894 66.895-66.894 36.792 0 66.895 30.102 66.895 66.894v10.528z" fill="#ffda2d"/><path d="m386.693 144.831c1.242-.07 2.491-.108 3.749-.108 36.792 0 66.895 30.102 66.895 66.894v10.528h-7.498v-10.528c0-35.534-28.08-64.825-63.146-66.786z" fill="#ffc700"/><path d="m402.343 224.385-23.803-1.369v-81.456c0-3.849 3.149-6.998 6.998-6.998h9.806c3.849 0 6.998 3.15 6.998 6.998v82.825z" fill="#ffc700"/><path d="m402.343 224.385-6.572-.378v-82.447c0-3.849-3.149-6.998-6.998-6.998h6.572c3.849 0 6.998 3.15 6.998 6.998z" fill="#fdb800"/><path d="m323.693 216.126h133.498c4.479 0 8.144 3.665 8.144 8.144v2.908c0 4.479-3.665 8.144-8.144 8.144h-133.498c-4.479 0-8.144-3.665-8.144-8.144v-2.908c0-4.479 3.665-8.144 8.144-8.144z" fill="#ffda2d"/><path d="m465.07 229.233c.172-.657.265-1.346.265-2.055v-2.908c0-4.479-3.665-8.144-8.144-8.144h-133.498c-4.479 0-8.144 3.665-8.144 8.144v2.908c0 .709.092 1.398.265 2.055.917-3.493 4.109-6.089 7.879-6.089h133.498c3.77.001 6.962 2.596 7.879 6.089z" fill="#ffc700"/></g><g><path d="m234.093 405.591c-4.363-58.156-53.312-104.39-112.535-104.39s-108.173 46.233-112.536 104.39c-.345 4.595 3.243 8.461 7.851 8.461h209.369c4.608 0 8.195-3.867 7.851-8.461z" fill="#64b5f6"/><path d="m234.093 405.591c-4.363-58.156-53.312-104.39-112.535-104.39-2.661 0-5.3.097-7.916.28 55.614 3.902 100.452 48.567 104.619 104.11.344 4.595-3.243 8.461-7.851 8.461h15.832c4.608 0 8.195-3.867 7.851-8.461z" fill="#42a5f5"/><circle cx="121.558" cy="240.208" fill="#ffd6bd" r="60.993"/><path d="m121.558 179.216c33.685 0 60.993 27.307 60.993 60.993 0 33.685-27.308 60.992-60.993 60.992-2.265 0-4.5-.127-6.701-.368 30.532-3.337 54.292-29.204 54.292-60.624s-23.76-57.287-54.292-60.624c2.201-.242 4.436-.369 6.701-.369z" fill="#f9c6aa"/></g><g><path d="m54.663 222.144v-10.528c0-36.791 30.102-66.894 66.895-66.894 36.792 0 66.895 30.102 66.895 66.894v10.528z" fill="#ffda2d"/><path d="m117.809 144.831c1.242-.07 2.491-.108 3.749-.108 36.792 0 66.895 30.102 66.895 66.894v10.528h-7.499v-10.528c0-35.534-28.08-64.825-63.145-66.786z" fill="#ffc700"/><path d="m133.459 224.385-23.803-1.369v-81.456c0-3.849 3.149-6.998 6.998-6.998h9.807c3.849 0 6.998 3.15 6.998 6.998z" fill="#ffc700"/><path d="m133.459 224.385-6.573-.378v-82.447c0-3.849-3.149-6.998-6.998-6.998h6.572c3.849 0 6.998 3.15 6.998 6.998v82.825z" fill="#fdb800"/><path d="m54.808 216.126h133.498c4.479 0 8.144 3.665 8.144 8.144v2.908c0 4.479-3.665 8.144-8.144 8.144h-133.498c-4.479 0-8.144-3.665-8.144-8.144v-2.908c.001-4.479 3.665-8.144 8.144-8.144z" fill="#ffda2d"/><path d="m196.185 229.233c.172-.657.265-1.346.265-2.055v-2.908c0-4.479-3.665-8.144-8.144-8.144h-133.498c-4.479 0-8.144 3.665-8.144 8.144v2.908c0 .709.092 1.398.265 2.055.917-3.493 4.109-6.089 7.879-6.089h133.498c3.77.001 6.963 2.596 7.879 6.089z" fill="#ffc700"/></g><g><path d="m368.535 494.54c-4.363-58.156-53.312-104.39-112.535-104.39s-108.172 46.234-112.535 104.39c-.345 4.595 3.243 8.461 7.85 8.461h209.369c4.608 0 8.195-3.866 7.851-8.461z" fill="#fc685b"/><path d="m368.535 494.54c-4.363-58.156-53.312-104.39-112.535-104.39-2.661 0-5.3.097-7.916.28 55.614 3.902 100.452 48.567 104.619 104.11.344 4.595-3.243 8.461-7.851 8.461h15.832c4.608 0 8.195-3.866 7.851-8.461z" fill="#f35244"/><circle cx="256" cy="329.157" fill="#ffd6bd" r="60.993"/><path d="m256 268.165c33.685 0 60.992 27.307 60.992 60.993 0 33.685-27.307 60.992-60.992 60.992-2.265 0-4.5-.127-6.701-.368 30.532-3.337 54.292-29.204 54.292-60.624s-23.76-57.287-54.292-60.624c2.201-.242 4.436-.369 6.701-.369z" fill="#f9c6aa"/></g><g><path d="m189.105 311.093v-10.528c0-36.791 30.102-66.894 66.895-66.894 36.792 0 66.895 30.102 66.895 66.894v10.528z" fill="#ffda2d"/><path d="m252.251 233.78c1.242-.07 2.491-.108 3.749-.108 36.792 0 66.895 30.102 66.895 66.894v10.528h-7.499v-10.528c0-35.534-28.08-64.824-63.145-66.786z" fill="#ffc700"/><path d="m267.901 313.334-23.803-1.369v-81.456c0-3.849 3.149-6.998 6.998-6.998h9.806c3.849 0 6.998 3.15 6.998 6.998v82.825z" fill="#ffc700"/><path d="m267.901 313.335-6.572-.378v-82.447c0-3.849-3.149-6.998-6.998-6.998h6.572c3.849 0 6.998 3.15 6.998 6.998z" fill="#fdb800"/><path d="m189.25 305.075h133.498c4.479 0 8.144 3.665 8.144 8.144v2.908c0 4.479-3.665 8.144-8.144 8.144h-133.498c-4.479 0-8.144-3.665-8.144-8.144v-2.908c.001-4.479 3.665-8.144 8.144-8.144z" fill="#ffda2d"/><path d="m330.628 318.182c.172-.657.265-1.346.265-2.055v-2.908c0-4.479-3.665-8.144-8.144-8.144h-133.499c-4.479 0-8.144 3.665-8.144 8.144v2.908c0 .709.092 1.398.265 2.055.917-3.493 4.109-6.089 7.879-6.089h133.498c3.77.001 6.963 2.597 7.88 6.089z" fill="#ffc700"/></g><g><path d="m241.354 8.999h29.292v14.697c9.698 1.933 18.716 5.749 26.66 11.05l10.397-10.397 20.712 20.712-10.398 10.397c5.302 7.943 9.116 16.962 11.05 26.66h14.697v29.292h-14.697c-1.933 9.698-5.749 18.717-11.049 26.66l10.397 10.397-20.713 20.712-10.397-10.397c-7.943 5.302-16.962 9.116-26.66 11.05v14.696h-29.292v-14.696c-9.699-1.933-18.717-5.749-26.661-11.05l-10.397 10.397-20.712-20.713 10.397-10.396c-5.302-7.943-9.116-16.963-11.05-26.661h-14.696v-29.291h14.697c1.933-9.698 5.749-18.717 11.05-26.66l-10.397-10.397 20.713-20.712 10.397 10.397c7.943-5.301 16.963-9.115 26.661-11.049v-14.698z" fill="#8d9ca8"/><path d="m260.694 23.688c12.114 2.414 23.168 7.766 32.391 15.28l4.221-4.221c-7.943-5.301-16.961-9.117-26.66-11.05v-14.698h-9.952zm47.379 31.764c5.303 7.944 9.118 16.966 11.052 26.666h9.943c-1.934-9.698-5.748-18.717-11.05-26.66l10.398-10.397-20.712-20.713-5.199 5.199 15.959 15.514zm11.052 55.958c-1.933 9.701-5.75 18.721-11.052 26.667l10.391 10.391-15.737 15.736 4.976 4.976 20.713-20.712-10.397-10.397c5.301-7.944 9.116-16.962 11.049-26.66h-9.943zm-26.041 43.151c-9.222 7.515-20.277 12.864-32.39 15.28v14.689h9.952v-14.696c9.698-1.934 18.717-5.748 26.66-11.05zm40.729-43.151h9.952v-29.291h-9.952z" fill="#7a8c98"/><ellipse cx="256" cy="96.764" fill="#eff4f7" rx="45.485" ry="45.486" transform="matrix(.031 -1 1 .031 151.295 349.62)"/><path d="m256 51.278c11.265 0 21.571 4.097 29.516 10.879-6.402-3.44-13.722-5.394-21.499-5.394-25.121 0-45.486 20.364-45.486 45.486 0 13.856 6.197 26.263 15.969 34.606-14.278-7.673-23.986-22.748-23.986-40.092 0-25.12 20.365-45.485 45.486-45.485z" fill="#e2e3e3"/></g></g><path d="m327.866 406.051c-10.681-7.941-22.669-14.162-35.552-18.259 18.811-11.7 31.615-32.18 32.614-55.679 5.07-.693 9.399-3.73 11.836-8.003 16.232-9.747 34.741-14.906 53.679-14.906 54.5 0 100.394 42.517 104.553 96.847zm-176.412 88.948h209.101c-4.159-54.325-50.048-96.847-104.548-96.847s-100.398 42.531-104.553 96.847zm-29.888-185.796c18.938 0 37.452 5.159 53.679 14.906 2.443 4.273 6.772 7.31 11.841 8.003 1 23.499 13.798 43.979 32.609 55.679-12.879 4.098-24.871 10.318-35.547 18.259h-167.131c4.15-54.32 50.039-96.847 104.549-96.847zm-52.902-65.884h105.788c-1.617 27.781-24.715 49.883-52.887 49.883-28.181 0-51.278-22.102-52.901-49.883zm11.7-73.773 1.283 19.221c.288 4.225 3.796 7.465 7.979 7.465.179 0 .359-.005.543-.019 4.409-.292 7.738-4.103 7.446-8.512l-1.938-28.978c1.938-.943 3.928-1.787 5.989-2.523v51.925h-38.882c.882-14.962 7.371-28.581 17.58-38.579zm45.102-26.983v65.563h-7.8v-65.563zm54.881 65.563h-38.881v-51.925c2.051.736 4.051 1.58 5.98 2.523l-1.929 28.978c-.302 4.409 3.037 8.22 7.446 8.512.184.014.363.019.542.019 4.169 0 7.691-3.24 7.97-7.465l1.292-19.221c10.2 9.997 16.699 23.616 17.58 38.579zm-125.533 19.198c-.057 0-.142-.085-.142-.146v-2.905c0-.061.085-.146.142-.146h133.503c.057 0 .137.085.137.146v2.905c0 .061-.08.146-.137.146zm159.991 31.171 1.292 19.221c.278 4.225 3.787 7.465 7.97 7.465.179 0 .359-.005.538-.019 4.409-.293 7.743-4.103 7.451-8.512l-1.938-28.978c1.938-.943 3.938-1.788 5.989-2.523v51.93h-38.881c.881-14.968 7.37-28.587 17.579-38.584zm45.102-26.984v65.568h-7.8v-65.568zm54.877 65.568h-38.877v-51.93c2.047.736 4.046 1.58 5.98 2.523l-1.934 28.978c-.288 4.409 3.042 8.219 7.451 8.512.179.014.363.019.542.019 4.169 0 7.687-3.24 7.97-7.465l1.292-19.221c10.205 9.997 16.699 23.616 17.576 38.584zm7.97 16.001h-133.498c-.061 0-.141.08-.141.141v2.909c0 .061.08.141.141.141h133.498c.061 0 .142-.08.142-.141v-2.909c-.001-.062-.081-.141-.142-.141zm-66.747 69.071c28.167 0 51.279-22.103 52.887-49.883h-105.779c1.613 27.78 24.72 49.883 52.892 49.883zm81.549-138.832h105.779c-1.608 27.781-24.72 49.883-52.892 49.883-28.167 0-51.264-22.102-52.887-49.883zm11.691-73.773 1.292 19.221c.278 4.225 3.796 7.465 7.965 7.465.184 0 .363-.005.542-.019 4.409-.292 7.753-4.103 7.451-8.512l-1.929-28.978c1.929-.943 3.928-1.787 5.975-2.523v51.925h-38.877c.882-14.962 7.38-28.581 17.581-38.579zm45.096-26.983v65.563h-7.8v-65.563zm54.882 65.563h-38.881v-51.925c2.061.736 4.051 1.58 5.994 2.523l-1.943 28.978c-.288 4.409 3.042 8.22 7.451 8.512.179.014.363.019.538.019 4.183 0 7.691-3.24 7.984-7.465l1.278-19.221c10.209 9.997 16.702 23.616 17.579 38.579zm-125.528 19.198c-.062 0-.141-.085-.141-.146v-2.905c0-.061.08-.146.141-.146h133.498c.061 0 .141.085.141.146v2.905c0 .061-.08.146-.141.146zm187.257 177.665c-3.759-50.119-38.349-91.547-84.2-106.147 18.821-11.7 31.614-32.185 32.609-55.684 7.88-1.066 13.973-7.814 13.973-15.982v-2.905c0-5.942-3.23-11.129-8.021-13.935-.571-33.482-23.22-62.262-55.141-70.967-1.071-7.234-7.3-12.808-14.817-12.808h-9.814c-7.517 0-13.76 5.574-14.817 12.808-31.93 8.705-54.58 37.486-55.141 70.967-4.801 2.806-8.031 7.993-8.031 13.935v2.905c0 8.168 6.102 14.916 13.973 15.982 1 23.494 13.789 43.975 32.6 55.669-5.852 1.863-11.563 4.155-17.09 6.89-1.41-2.679-3.551-4.909-6.173-6.428-.556-33.482-23.206-62.267-55.141-70.967-1.057-7.234-7.286-12.813-14.817-12.813h-9.799c-7.531 0-13.76 5.579-14.822 12.813-31.93 8.7-54.58 37.485-55.151 70.967-2.608 1.518-4.749 3.749-6.159 6.428-5.532-2.735-11.242-5.027-17.09-6.89 18.806-11.695 31.6-32.176 32.6-55.669 7.87-1.066 13.968-7.814 13.968-15.982v-2.905c0-5.942-3.23-11.129-8.031-13.935-.556-33.482-23.216-62.262-55.137-70.967-1.061-7.234-7.29-12.808-14.821-12.808h-9.809c-7.522 0-13.751 5.574-14.822 12.808-31.921 8.705-54.571 37.486-55.141 70.967-4.786 2.806-8.017 7.993-8.017 13.935v2.905c0 8.168 6.088 14.916 13.968 15.982.99 23.499 13.789 43.989 32.61 55.684-45.847 14.6-80.441 56.028-84.209 106.147-.33 4.4 1.198 8.772 4.187 11.992 2.98 3.221 7.234 5.069 11.643 5.069h149.64c-17.519 19.311-28.95 44.281-31.02 71.892-.33 4.4 1.188 8.776 4.178 11.987 2.99 3.221 7.234 5.069 11.652 5.069h209.36c4.419 0 8.658-1.848 11.648-5.069s4.508-7.588 4.178-11.987c-2.07-27.611-13.496-52.581-31.015-71.892h149.635c4.414 0 8.663-1.848 11.643-5.069 2.993-3.22 4.512-7.592 4.181-11.992zm-254.947-345.711c20.669 0 37.476 16.816 37.476 37.485s-16.807 37.486-37.476 37.486-37.481-16.816-37.481-37.486 16.812-37.485 37.481-37.485zm0 90.971c-29.492 0-53.481-23.994-53.481-53.486s23.989-53.486 53.481-53.486c29.488 0 53.476 23.994 53.476 53.486s-23.988 53.486-53.476 53.486zm-79.762-60.13v13.289h6.691c3.82 0 7.097 2.698 7.847 6.437 1.702 8.531 5.022 16.533 9.861 23.782 2.113 3.174 1.702 7.404-1 10.101l-4.739 4.74 9.403 9.398 4.739-4.739c2.688-2.697 6.918-3.117 10.087-1 7.262 4.843 15.26 8.163 23.791 9.861 3.74.745 6.442 4.028 6.442 7.842v6.696h13.289v-6.696c0-3.815 2.688-7.097 6.432-7.842 8.526-1.702 16.529-5.018 23.777-9.861 3.178-2.117 7.399-1.698 10.101 1l4.74 4.739 9.398-9.398-4.739-4.74c-2.698-2.697-3.108-6.927-1-10.101 4.838-7.253 8.158-15.256 9.861-23.782.75-3.74 4.032-6.437 7.852-6.437h6.687v-13.289h-6.687c-3.82 0-7.102-2.693-7.852-6.437-1.702-8.531-5.022-16.529-9.861-23.782-2.108-3.174-1.698-7.399 1-10.096l4.739-4.74-9.398-9.398-4.74 4.739c-2.702 2.697-6.922 3.117-10.101.995-7.248-4.843-15.251-8.158-23.777-9.856-3.745-.745-6.432-4.032-6.432-7.847v-6.696h-13.289v6.696c0 3.815-2.702 7.102-6.442 7.847-8.531 1.702-16.529 5.017-23.781 9.856-3.178 2.122-7.399 1.702-10.097-.995l-4.739-4.739-9.403 9.398 4.739 4.74c2.702 2.697 3.113 6.923 1 10.096-4.848 7.258-8.158 15.26-9.861 23.782-.75 3.739-4.027 6.437-7.847 6.437zm-7.998 29.289h8.399c1.731 6.088 4.15 11.921 7.229 17.453l-5.937 5.947c-3.131 3.127-3.131 8.191 0 11.318l20.707 20.712c1.499 1.5 3.542 2.344 5.664 2.344 2.118 0 4.15-.844 5.649-2.344l5.947-5.947c5.532 3.084 11.37 5.503 17.463 7.234v8.404c0 4.419 3.579 7.998 7.998 7.998h29.29c4.414 0 8.003-3.579 8.003-7.998v-8.404c6.079-1.731 11.921-4.15 17.448-7.234l5.942 5.942c3.127 3.127 8.187 3.127 11.318 0l20.712-20.707c3.131-3.127 3.131-8.191 0-11.318l-5.951-5.947c3.094-5.532 5.513-11.37 7.239-17.453h8.403c4.419 0 7.998-3.579 7.998-7.998v-29.294c0-4.419-3.579-7.998-7.998-7.998h-8.403c-1.726-6.084-4.145-11.922-7.239-17.453l5.951-5.947c3.131-3.122 3.131-8.191 0-11.313l-20.712-20.712c-1.5-1.499-3.537-2.344-5.659-2.344s-4.15.844-5.659 2.344l-5.942 5.947c-5.527-3.089-11.37-5.508-17.448-7.234v-8.408c0-4.414-3.589-7.998-8.003-7.998h-29.29c-4.419 0-7.998 3.584-7.998 7.998v8.408c-6.093 1.726-11.931 4.145-17.463 7.234l-5.947-5.947c-3.122-3.127-8.182-3.127-11.313 0l-20.707 20.712c-3.131 3.122-3.131 8.186 0 11.313l5.937 5.947c-3.08 5.536-5.499 11.37-7.229 17.453h-8.399c-4.419 0-8.003 3.579-8.003 7.998v29.294c0 4.419 3.584 7.998 8.003 7.998z"/></g></svg>