<svg id="Capa_1" enable-background="new 0 0 512 512" height="512" viewBox="0 0 512 512" width="512" xmlns="http://www.w3.org/2000/svg"><g><g><path d="m276.203 151.953v-20.203h-40.406v20.203h-32.325c-26.779 0-48.488 21.709-48.488 48.488v113.138h40.407v40.407h121.219v-40.407h40.407v-113.138c0-26.779-21.709-48.488-48.488-48.488z" fill="#91dafa"/></g><g><path d="m334.793 159.692v153.887h22.224v-113.138c-.001-17.097-8.857-32.115-22.224-40.749z" fill="#75cff9"/></g><g><path d="m256 192.36c22.316 0 40.406-18.091 40.406-40.407h-20.203v-20.203h-40.406v20.203h-20.203c-.001 22.316 18.09 40.407 40.406 40.407z" fill="#e6f7fe"/></g><g><path d="m195.39 333.783c0 11.158-9.045 20.203-20.203 20.203s-20.203-9.045-20.203-20.203v-20.203h40.407v20.203z" fill="#e6f7fe"/></g><g><path d="m195.39 281.254h121.22v32.325h-121.22z" fill="#e6f7fe"/></g><g><path d="m225.695 309.539v-24.244c0-5.579 4.523-10.102 10.102-10.102h40.406c5.579 0 10.102 4.523 10.102 10.102v24.244c0 5.579-4.523 10.102-10.102 10.102h-40.406c-5.579-.001-10.102-4.523-10.102-10.102z" fill="#f7e365"/></g><g><path d="m276.203 275.193h-20.203c5.579 0 10.102 4.523 10.102 10.102v24.244c0 5.579-4.523 10.102-10.102 10.102h20.203c5.579 0 10.102-4.523 10.102-10.102v-24.244c0-5.579-4.523-10.102-10.102-10.102z" fill="#f3d332"/></g><g><path d="m316.61 333.783c0 11.158 9.045 20.203 20.203 20.203s20.203-9.045 20.203-20.203v-20.203h-40.406z" fill="#e6f7fe"/></g><g><path d="m207.512 88.313c0 26.779 21.709 48.488 48.488 48.488 26.779 0 48.488-21.709 48.488-48.488v-32.325c0-26.779-21.709-48.488-48.488-48.488-26.779 0-48.488 21.709-48.488 48.488z" fill="#fed2a4"/></g><g><path d="m278.224 12.897v75.416c0 22.226-14.96 40.946-35.356 46.673 4.178 1.173 8.579 1.815 13.132 1.815 26.779 0 48.488-21.709 48.488-48.488v-32.325c0-18.767-10.668-35.031-26.264-43.091z" fill="#ffbd86"/></g><g><path d="m389.341 386.311h-266.682c-4.463 0-8.081-3.618-8.081-8.081v-16.163c0-4.463 3.618-8.081 8.081-8.081h266.683c4.463 0 8.081 3.618 8.081 8.081v16.163c0 4.463-3.618 8.081-8.082 8.081z" fill="#e69642"/></g><g><path d="m389.341 386.311h-18.183v-32.325h18.183c4.463 0 8.081 3.618 8.081 8.081v16.163c.001 4.463-3.617 8.081-8.081 8.081z" fill="#e38523"/></g><g><path d="m154.98 220.06c4.143 0 7.5-3.358 7.5-7.5v-12.12c0-22.602 18.388-40.99 40.989-40.99h5.215c3.609 22.867 23.45 40.41 47.315 40.41s43.706-17.543 47.315-40.41h5.215c22.602 0 40.989 18.388 40.989 40.99v32.63c0 4.142 3.357 7.5 7.5 7.5s7.5-3.358 7.5-7.5v-32.63c0-30.873-25.116-55.99-55.989-55.99h-24.829v-7.512c16.88-9.654 28.288-27.826 28.288-48.625v-32.325c0-30.872-25.116-55.988-55.988-55.988s-55.988 25.116-55.988 55.988v32.325c0 20.798 11.409 38.971 28.288 48.625v7.512h-24.83c-30.873 0-55.989 25.117-55.989 55.99v12.12c-.001 4.142 3.357 7.5 7.499 7.5zm60.032-131.747v-32.325c0-22.601 18.387-40.988 40.988-40.988s40.988 18.387 40.988 40.988v32.325c0 22.601-18.388 40.988-40.988 40.988s-40.988-18.387-40.988-40.988zm20.788 71.137c4.143 0 7.5-3.358 7.5-7.5v-9.12c4.084.951 8.331 1.471 12.7 1.471s8.617-.519 12.7-1.471v9.12c0 4.142 3.357 7.5 7.5 7.5h11.834c-3.403 14.543-16.469 25.41-32.034 25.41s-28.631-10.867-32.034-25.41z"/><path d="m389.34 346.49h-27.922c1.976-3.809 3.099-8.128 3.099-12.708l.003-65.713c0-4.142-3.357-7.5-7.5-7.5s-7.5 3.358-7.5 7.5v38.009h-25.41v-93.516c0-4.142-3.357-7.5-7.5-7.5s-7.5 3.358-7.5 7.5v61.191h-19.648c-3.229-3.705-7.969-6.061-13.258-6.061h-40.406c-5.289 0-10.029 2.356-13.258 6.061h-19.648v-61.191c0-4.142-3.357-7.5-7.5-7.5s-7.5 3.358-7.5 7.5v93.516h-25.41v-58.518c0-4.142-3.357-7.5-7.5-7.5s-7.5 3.358-7.5 7.5l.003 86.223c0 4.579 1.124 8.898 3.099 12.708h-27.924c-8.591 0-15.58 6.989-15.58 15.58v16.16c0 8.591 6.989 15.58 15.58 15.58h188.24c4.143 0 7.5-3.358 7.5-7.5s-3.357-7.5-7.5-7.5h-188.24c-.32 0-.58-.26-.58-.58v-16.16c0-.325.255-.58.58-.58h266.68c.325 0 .58.254.58.58v16.16c0 .32-.26.58-.58.58h-43.44c-4.143 0-7.5 3.358-7.5 7.5s3.357 7.5 7.5 7.5h43.439c8.591 0 15.58-6.989 15.58-15.58v-16.16c.001-8.592-6.988-15.581-15.579-15.581zm-226.857-25.41h25.406v12.722c-.011 6.995-5.705 12.684-12.703 12.684-7.005 0-12.703-5.699-12.703-12.703zm40.408-.001h19.648c3.229 3.705 7.969 6.061 13.258 6.061h40.406c5.289 0 10.029-2.356 13.258-6.061h19.648l.001 25.411h-106.22zm146.626.001v12.703c0 7.004-5.698 12.703-12.703 12.703-6.998 0-12.693-5.688-12.703-12.684v-12.722zm-40.408-15.001h-15.305v-17.325h15.305zm-32.906-23.386c1.066 0 1.981.646 2.383 1.565.005.012.011.023.017.035.129.309.202.647.202 1.003v24.244c0 .355-.072.693-.202 1.001-.006.013-.013.026-.019.039-.402.917-1.317 1.561-2.381 1.561h-40.406c-1.064 0-1.978-.643-2.381-1.56-.006-.014-.013-.027-.019-.04-.129-.308-.201-.646-.201-1.001v-24.244c0-.355.073-.693.202-1.002.005-.012.012-.024.017-.036.402-.919 1.317-1.564 2.383-1.564h40.405zm-58.008 6.061v17.325h-15.305v-17.325z"/><path d="m215.594 431.339c-4.143 0-7.5 3.358-7.5 7.5v10.102c0 4.142 3.357 7.5 7.5 7.5s7.5-3.358 7.5-7.5v-10.102c0-4.142-3.358-7.5-7.5-7.5z"/><path d="m256 411.136c-4.143 0-7.5 3.358-7.5 7.5v10.102c0 4.142 3.357 7.5 7.5 7.5s7.5-3.358 7.5-7.5v-10.102c0-4.142-3.357-7.5-7.5-7.5z"/><path d="m336.813 411.136c-4.143 0-7.5 3.358-7.5 7.5v10.102c0 4.142 3.357 7.5 7.5 7.5s7.5-3.358 7.5-7.5v-10.102c0-4.142-3.357-7.5-7.5-7.5z"/><path d="m175.187 411.136c-4.143 0-7.5 3.358-7.5 7.5v10.102c0 4.142 3.357 7.5 7.5 7.5s7.5-3.358 7.5-7.5v-10.102c0-4.142-3.358-7.5-7.5-7.5z"/><path d="m296.406 431.339c-4.143 0-7.5 3.358-7.5 7.5v10.102c0 4.142 3.357 7.5 7.5 7.5s7.5-3.358 7.5-7.5v-10.102c0-4.142-3.357-7.5-7.5-7.5z"/><path d="m381.26 456.441c4.143 0 7.5-3.358 7.5-7.5v-10.102c0-4.142-3.357-7.5-7.5-7.5s-7.5 3.358-7.5 7.5v10.102c0 4.142 3.357 7.5 7.5 7.5z"/><path d="m215.594 486.898c-4.143 0-7.5 3.358-7.5 7.5v10.102c0 4.142 3.357 7.5 7.5 7.5s7.5-3.358 7.5-7.5v-10.102c0-4.142-3.358-7.5-7.5-7.5z"/><path d="m130.74 486.898c-4.143 0-7.5 3.358-7.5 7.5v10.102c0 4.142 3.357 7.5 7.5 7.5s7.5-3.358 7.5-7.5v-10.102c0-4.142-3.357-7.5-7.5-7.5z"/><path d="m256 466.695c-4.143 0-7.5 3.358-7.5 7.5v10.102c0 4.142 3.357 7.5 7.5 7.5s7.5-3.358 7.5-7.5v-10.102c0-4.142-3.357-7.5-7.5-7.5z"/><path d="m336.813 466.695c-4.143 0-7.5 3.358-7.5 7.5v10.102c0 4.142 3.357 7.5 7.5 7.5s7.5-3.358 7.5-7.5v-10.102c0-4.142-3.357-7.5-7.5-7.5z"/><path d="m175.187 466.695c-4.143 0-7.5 3.358-7.5 7.5v10.102c0 4.142 3.357 7.5 7.5 7.5s7.5-3.358 7.5-7.5v-10.102c0-4.142-3.358-7.5-7.5-7.5z"/><path d="m296.406 486.898c-4.143 0-7.5 3.358-7.5 7.5v10.102c0 4.142 3.357 7.5 7.5 7.5s7.5-3.358 7.5-7.5v-10.102c0-4.142-3.357-7.5-7.5-7.5z"/><path d="m391.361 486.898h-2.602v-2.602c0-4.142-3.357-7.5-7.5-7.5s-7.5 3.358-7.5 7.5v2.602h-2.602c-4.143 0-7.5 3.358-7.5 7.5s3.357 7.5 7.5 7.5h2.602v2.602c0 4.142 3.357 7.5 7.5 7.5s7.5-3.358 7.5-7.5v-2.602h2.602c4.143 0 7.5-3.358 7.5-7.5s-3.357-7.5-7.5-7.5z"/><path d="m140.842 421.238h-2.602v-2.602c0-4.142-3.357-7.5-7.5-7.5s-7.5 3.358-7.5 7.5v2.602h-2.602c-4.143 0-7.5 3.358-7.5 7.5s3.357 7.5 7.5 7.5h2.602v2.602c0 4.142 3.357 7.5 7.5 7.5s7.5-3.358 7.5-7.5v-2.602h2.602c4.143 0 7.5-3.358 7.5-7.5s-3.358-7.5-7.5-7.5z"/><path d="m118.036 313.579v-4.622h4.622c4.143 0 7.5-3.358 7.5-7.5s-3.357-7.5-7.5-7.5h-4.622v-4.622c0-4.142-3.357-7.5-7.5-7.5s-7.5 3.358-7.5 7.5v4.622h-4.621c-4.143 0-7.5 3.358-7.5 7.5s3.357 7.5 7.5 7.5h4.621v4.622c0 4.142 3.357 7.5 7.5 7.5s7.5-3.358 7.5-7.5z"/><path d="m413.585 213.145h-4.621v-4.622c0-4.142-3.357-7.5-7.5-7.5s-7.5 3.358-7.5 7.5v4.622h-4.622c-4.143 0-7.5 3.358-7.5 7.5s3.357 7.5 7.5 7.5h4.622v4.622c0 4.142 3.357 7.5 7.5 7.5s7.5-3.358 7.5-7.5v-4.622h4.621c4.143 0 7.5-3.358 7.5-7.5s-3.357-7.5-7.5-7.5z"/></g></g></svg>