<svg id="Capa_1" enable-background="new 0 0 512 512" height="512" viewBox="0 0 512 512" width="512" xmlns="http://www.w3.org/2000/svg"><g><path d="m103.515 501.869 26.445-52.89 15.216-10.144 16.294 10.144-29.575 59.151c-1.186 2.371-3.61 3.869-6.261 3.869h-15.858c-5.204.001-8.588-5.475-6.261-10.13z" fill="#dff1f7"/><path d="m129.96 448.98-26.445 52.89c-2.327 4.654 1.057 10.13 6.261 10.13h3.89l31.51-63.02v-10.144z" fill="#c3e4ed"/><path d="m408.244 501.869-26.444-52.889-16.294-10.144-15.216 10.144 29.575 59.151c1.186 2.371 3.61 3.869 6.261 3.869h15.858c5.203 0 8.588-5.476 6.26-10.131z" fill="#dff1f7"/><path d="m350.289 448.98s29.575 59.151 29.575 59.151c1.186 2.371 3.61 3.87 6.261 3.87h10.89l-31.51-63.02v-10.144c.001-.001-15.216 10.143-15.216 10.143z" fill="#c3e4ed"/><g><g><g><path d="m240.242 172.838c-3.273 0-6.296-2.128-7.285-5.425l-47.265-157.618c-1.207-4.025 1.077-8.266 5.102-9.473 4.024-1.206 8.266 1.077 9.473 5.102l47.265 157.618c1.207 4.025-1.077 8.266-5.102 9.473-.728.219-1.464.323-2.188.323z" fill="#356487"/></g><g><path d="m271.758 172.838c-.724 0-1.459-.104-2.188-.322-4.025-1.207-6.309-5.448-5.102-9.473l47.264-157.619c1.207-4.024 5.449-6.306 9.473-5.102 4.025 1.207 6.309 5.448 5.102 9.473l-47.264 157.618c-.988 3.296-4.012 5.425-7.285 5.425z" fill="#356487"/></g></g></g><path d="m319.02 196.883-23.633 10.144h-82.119l-20.288-10.144c0-17.671 14.325-31.996 31.996-31.996h62.049c17.67 0 31.995 14.325 31.995 31.996z" fill="#dff1f7"/><path d="m245.264 164.887h-20.288c-17.671 0-31.996 14.325-31.996 31.996l20.288 10.144v-10.144c0-17.671 14.325-31.996 31.996-31.996z" fill="#c3e4ed"/><path d="m438.06 448.683h-364.12c-3.866 0-7-3.134-7-7v-238.005c0-3.866 3.134-7 7-7h364.12c3.866 0 7 3.134 7 7v238.005c0 3.866-3.134 7-7 7z" fill="#356487"/><path d="m98.45 196.704-24.503-.026c-3.869-.004-7.008 3.131-7.008 7v238.005c0 3.866 3.134 7 7 7h24.51v-251.979z" fill="#20526b"/><path d="m336.021 417.47h-222.571c-8.284 0-15-6.716-15-15v-159.29c0-8.284 6.716-15 15-15h222.571c8.284 0 15 6.716 15 15v159.29c0 8.284-6.716 15-15 15z" fill="#01d0fb"/><path d="m118.738 402.254v-158.858c0-8.404 6.813-15.216 15.216-15.216h-20.288c-8.404 0-15.216 6.813-15.216 15.216v158.858c0 8.404 6.813 15.216 15.216 15.216h20.288c-8.403 0-15.216-6.813-15.216-15.216z" fill="#08a9f1"/><circle cx="397.855" cy="244.12" fill="#ea4959" r="16.056"/><circle cx="397.855" cy="306.771" fill="#ffe04a" r="16.056"/><g><g><path d="m413.911 362.058h-31.871c-4.202 0-7.608-3.406-7.608-7.608s3.406-7.608 7.608-7.608h31.871c4.202 0 7.608 3.406 7.608 7.608 0 4.201-3.406 7.608-7.608 7.608z" fill="#f5fcff"/></g><g><path d="m413.911 393.568h-31.871c-4.202 0-7.608-3.406-7.608-7.608s3.406-7.608 7.608-7.608h31.871c4.202 0 7.608 3.406 7.608 7.608s-3.406 7.608-7.608 7.608z" fill="#f5fcff"/></g><g><path d="m413.911 425.078h-31.871c-4.202 0-7.608-3.406-7.608-7.608s3.406-7.608 7.608-7.608h31.871c4.202 0 7.608 3.406 7.608 7.608s-3.406 7.608-7.608 7.608z" fill="#f5fcff"/></g></g></g></svg>