<svg enable-background="new 0 0 32 32" viewBox="0 0 32 32" xmlns="http://www.w3.org/2000/svg"><g id="Grid" display="none"/><g id="bow_tie"/><g id="balloon_1_"/><g id="placeholder"/><g id="mic"/><g id="speaker"/><g id="champagne"/><g id="gift"/><g id="theater"><path d="m30 5.12v21.76c0 1.72-1.4 3.12-3.12 3.12h-21.76c-1.72 0-3.12-1.4-3.12-3.12v-21.76c0-1.72 1.4-3.12 3.12-3.12h21.76c1.72 0 3.12 1.4 3.12 3.12z" fill="#3a3a3a"/><path d="m30 5.12v21.76c0 1.72-1.4 3.12-3.12 3.12-3.439 0-6.878 0-10.318 0 1.215-2.02 2.667-5.079 3.188-9 1.304-9.83-4.289-17.264-5.67-19h12.8c1.72 0 3.12 1.4 3.12 3.12z" fill="#333"/><path d="m30 5.12v2.28c-.6-.03-1.28-.19-1.84-.01-.77.25-1.34 1.29-2.17 1.49-.79.19-1.77-.47-2.61-.32-.8.14-1.51 1.09-2.35 1.18-.81.09-1.71-.68-2.56-.64-.82.05-1.63.91-2.47.91s-1.65-.86-2.47-.91c-.85-.04-1.74.73-2.56.64-.84-.09-1.55-1.04-2.35-1.18-.84-.15-1.82.51-2.61.32-.83-.2-1.4-1.24-2.17-1.49-.56-.18-1.24-.02-1.84.01v-2.28c0-1.72 1.4-3.12 3.12-3.12h21.76c1.72 0 3.12 1.4 3.12 3.12z" fill="#e05353"/><g fill="#e96565"><path d="m8.82 29.23c0 .26 0 .51-.01.77h-3.69c-1.72 0-3.12-1.4-3.12-3.12v-11.62c3.94 1.79 6.82 7.37 6.82 13.97z"/><path d="m30 15.26v11.62c0 1.72-1.4 3.12-3.12 3.12h-3.69c-.01-.26-.01-.51-.01-.77 0-6.6 2.88-12.18 6.82-13.97z"/><path d="m11.66 5.06c0 7.85-4.16 14.4-9.66 15.82v-15.76c0-1.72 1.4-3.12 3.12-3.12h6.32c.15.99.22 2.01.22 3.06z"/><path d="m30 5.12v15.76c-5.5-1.42-9.66-7.97-9.66-15.82 0-1.05.07-2.07.22-3.06h6.32c1.72 0 3.12 1.4 3.12 3.12z"/></g><path d="m6.938 20.88h-4.938v-2.708h4.938c.748 0 1.354.606 1.354 1.354 0 .748-.607 1.354-1.354 1.354z" fill="#ffd731"/><path d="m25.062 20.88h4.938v-2.708h-4.938c-.748 0-1.354.606-1.354 1.354 0 .748.607 1.354 1.354 1.354z" fill="#ffd731"/><path d="m30 26.19v.69c0 1.72-1.4 3.12-3.12 3.12h-21.76c-1.72 0-3.12-1.4-3.12-3.12v-.69z" fill="#d39a62"/><path d="m30 26.19v.69c0 1.72-1.4 3.12-3.12 3.12h-8.71c1.72 0 3.12-1.4 3.12-3.12v-.69z" fill="#c68c58"/><path d="m26.875 1.575h-21.75c-1.957 0-3.55 1.592-3.55 3.55v21.75c0 1.958 1.593 3.55 3.55 3.55h21.75c1.957 0 3.55-1.592 3.55-3.55v-21.75c0-1.958-1.593-3.55-3.55-3.55zm-19.937 17.022c.513 0 .93.417.93.929s-.417.929-.93.929h-4.513v-1.858zm-4.513 2.708h1.597c.099.546.179 1.088.224 1.612.02.221.205.388.424.388.012 0 .024 0 .037-.001.233-.021.407-.227.387-.46-.044-.501-.119-1.018-.209-1.538h1.92c.596 1.354 1.03 2.852 1.299 4.46h-5.679zm6.542 4.46c-.266-1.66-.706-3.206-1.307-4.617.622-.278 1.057-.899 1.057-1.623 0-.774-.5-1.428-1.192-1.672 1.854-2.025 3.213-4.71 3.94-7.714.331-.06.651-.191.962-.319.392-.161.756-.322 1.078-.297.301.018.644.203 1.006.399.466.251.947.511 1.489.511s1.023-.26 1.489-.511c.362-.196.705-.381 1.002-.399.324-.009.696.137 1.091.299.31.127.627.256.953.317.727 3.004 2.086 5.69 3.94 7.715-.692.244-1.192.897-1.192 1.672 0 .724.436 1.345 1.057 1.623-.601 1.41-1.041 2.957-1.307 4.617h-14.066zm2.713-16.567c.26-1.34.404-2.726.404-4.138 0-.912-.065-1.79-.171-2.635h8.172c-.106.846-.171 1.724-.171 2.635 0 1.411.145 2.797.404 4.136-.135-.048-.271-.1-.415-.159-.465-.19-.944-.386-1.46-.361-.489.03-.932.269-1.359.5-.39.21-.758.409-1.085.409s-.695-.199-1.085-.409c-.428-.231-.87-.47-1.363-.5-.506-.025-.986.17-1.448.359-.145.06-.285.114-.423.163zm17.895 9.399v1.858h-4.513c-.513 0-.93-.417-.93-.929s.417-.929.93-.929zm-4.38 2.708h1.92c-.09.521-.165 1.037-.209 1.538-.021.234.153.44.387.46.013.001.025.001.037.001.219 0 .404-.167.424-.388.045-.524.125-1.066.224-1.612h1.597v4.46h-5.679c.269-1.608.703-3.105 1.299-4.459zm4.38-16.18v12.622h-1.634c-.029-.084-.06-.167-.088-.25-.349-1.056-.619-2.171-.804-3.314-.038-.232-.27-.393-.487-.352-.232.037-.39.255-.353.487.191 1.182.471 2.335.832 3.429h-1.514c-2.982-2.947-4.763-7.67-4.763-12.687 0-.914.065-1.793.175-2.635h5.935c1.49 0 2.701 1.211 2.701 2.7zm-24.45-2.7h5.935c.11.842.175 1.721.175 2.635 0 5.017-1.781 9.74-4.763 12.687h-1.514c.361-1.094.641-2.247.832-3.429.037-.232-.12-.45-.353-.487-.22-.041-.449.119-.487.351-.185 1.144-.455 2.258-.804 3.314-.028.083-.059.167-.088.25h-1.633v-12.621c0-1.489 1.211-2.7 2.7-2.7zm21.75 27.15h-21.75c-1.489 0-2.7-1.211-2.7-2.7v-.26h27.15v.26c0 1.489-1.211 2.7-2.7 2.7z"/><path d="m3.85 7.612c.234 0 .425-.19.425-.425v-2.067c0-.28.14-.542.374-.701.194-.131.245-.396.113-.59-.131-.194-.395-.244-.59-.114-.468.317-.747.842-.747 1.405v2.067c0 .235.19.425.425.425z" fill="#ff9292"/><path d="m3.85 9.455c.234 0 .425-.236.425-.471s-.191-.424-.425-.424-.425.19-.425.424v.092c0 .235.19.379.425.379z" fill="#ff9292"/><path d="m5.552 12.881c.02.003.04.004.06.004.208 0 .391-.154.42-.367.031-.223.053-.457.063-.689.01-.235-.172-.433-.406-.444-.228-.002-.433.172-.443.406-.009.207-.028.413-.056.61-.033.233.129.448.362.48z"/><path d="m25.969 12.519c.029.213.212.367.42.367.02 0 .04-.001.06-.004.232-.032.395-.247.362-.479-.027-.197-.047-.404-.056-.61-.012-.234-.205-.411-.443-.406-.234.011-.416.209-.406.444.01.231.032.465.063.688z"/></g><g id="_camera"/><g id="video_camera"/><g id="party_hat"/><g id="champagne_glass"/><g id="man"/><g id="woman"/><g id="skewer"/><g id="ticket"/><g id="cake"/><g id="lights"/><g id="photo"/><g id="invitation"/></svg>