<svg id="Layer_1" viewBox="0 0 1000 1000" xmlns="http://www.w3.org/2000/svg" data-name="Layer 1"><path d="m708.57 180.05a111.38 111.38 0 1 0 111.43 111.38 111.5 111.5 0 0 0 -111.43-111.38zm0 207.75a96.38 96.38 0 1 1 96.43-96.37 96.48 96.48 0 0 1 -96.43 96.37z"/><path d="m805 291.43a96.38 96.38 0 1 1 -96.38-96.38 96.49 96.49 0 0 1 96.38 96.38z" fill="#ff0"/><path d="m708.57 152a7.5 7.5 0 0 1 -7.5-7.5v-44.5a7.5 7.5 0 0 1 15 0v44.52a7.5 7.5 0 0 1 -7.5 7.48z"/><path d="m604.69 195.05a7.48 7.48 0 0 1 -5.3-2.2l-31.48-31.48a7.5 7.5 0 1 1 10.61-10.61l31.48 31.48a7.51 7.51 0 0 1 -5.31 12.81z"/><path d="m561.66 298.93h-44.51a7.5 7.5 0 0 1 0-15h44.51a7.5 7.5 0 0 1 0 15z"/><path d="m573.21 434.29a7.51 7.51 0 0 1 -5.3-12.81l31.48-31.48a7.5 7.5 0 0 1 10.61 10.61l-31.48 31.48a7.52 7.52 0 0 1 -5.31 2.2z"/><path d="m708.57 490.35a7.5 7.5 0 0 1 -7.5-7.5v-44.51a7.5 7.5 0 0 1 15 0v44.51a7.5 7.5 0 0 1 -7.5 7.5z"/><path d="m843.93 434.29a7.48 7.48 0 0 1 -5.3-2.2l-31.48-31.48a7.5 7.5 0 1 1 10.61-10.61l31.48 31.48a7.51 7.51 0 0 1 -5.31 12.81z"/><path d="m900 298.93h-44.52a7.5 7.5 0 0 1 0-15h44.52a7.5 7.5 0 0 1 0 15z"/><path d="m812.45 195.05a7.51 7.51 0 0 1 -5.3-12.81l31.48-31.48a7.5 7.5 0 0 1 10.61 10.61l-31.48 31.48a7.52 7.52 0 0 1 -5.31 2.2z"/><path d="m360.8 634.58a61.7 61.7 0 0 1 -19.14-44.21v-407.25a90.62 90.62 0 0 0 -181.24 0v407.25a61.68 61.68 0 0 1 -19.12 44.19 158.71 158.71 0 0 0 109.7 272.94c1.82 0 3.65 0 5.47-.09a158.53 158.53 0 0 0 104.33-272.83zm-104.8 257.84a143.54 143.54 0 0 1 -104.32-247 76.72 76.72 0 0 0 23.74-55v-407.3a75.62 75.62 0 0 1 151.24 0v407.25a76.75 76.75 0 0 0 23.75 55 143.54 143.54 0 0 1 -94.41 247z"/><path d="m350.41 645.4a76.75 76.75 0 0 1 -23.75-55v-407.28a75.62 75.62 0 0 0 -151.24 0v407.25a76.72 76.72 0 0 1 -23.74 55 143.54 143.54 0 1 0 198.73 0zm-26.76 173.87a100.51 100.51 0 0 1 -69.09 30.73c-1.16 0-2.28.06-3.43.06a101.07 101.07 0 0 1 -56-185.26 50.28 50.28 0 0 0 22.75-41.8v-364c0-18 14.43-33.16 32.16-33.68a33.17 33.17 0 0 1 34.15 33.14v364.67a50.08 50.08 0 0 0 22.71 41.6 101.07 101.07 0 0 1 16.75 154.54z" fill="#80deea"/><path d="m306.9 664.73a50.08 50.08 0 0 1 -22.71-41.6v-364.64a33.17 33.17 0 0 0 -34.19-33.14c-17.73.52-32.16 15.63-32.16 33.68v363.97a50.28 50.28 0 0 1 -22.77 41.75 101.2 101.2 0 0 0 56 185.26c1.15 0 2.27 0 3.43-.06a101.07 101.07 0 0 0 52.4-185.22zm6 144.1a85.51 85.51 0 0 1 -58.85 26.17c-1 0-2 0-2.92 0a86.07 86.07 0 0 1 -47.69-157.78 65.24 65.24 0 0 0 29.44-54.22v-364c0-10 7.9-18.4 17.6-18.69a18.19 18.19 0 0 1 18.71 18.15v364.67a65 65 0 0 0 29.4 54.09 86.06 86.06 0 0 1 14.28 131.61z"/><path d="m269.19 258.49v56.94h-36.31v-56.43c0-10 7.9-18.4 17.6-18.69a18.19 18.19 0 0 1 18.71 18.15z" fill="#e1f5fe"/><path d="m337.11 749a86.08 86.08 0 0 1 -83.06 86c-1 0-2 0-2.92 0a86.07 86.07 0 0 1 -47.69-157.78 65.24 65.24 0 0 0 29.44-54.22v-292.57h36.31v292.7a65 65 0 0 0 29.4 54.09 86 86 0 0 1 38.52 71.78z" fill="#e53935"/><path d="m391.72 597h-26.08a7.5 7.5 0 0 1 0-15h26.08a7.5 7.5 0 0 1 0 15z"/><path d="m410.56 543.66h-44.92a7.5 7.5 0 0 1 0-15h44.92a7.5 7.5 0 1 1 0 15z"/><path d="m410.56 543.66h-44.92a7.5 7.5 0 0 1 0-15h44.92a7.5 7.5 0 1 1 0 15z"/><path d="m391.72 490.35h-26.08a7.5 7.5 0 0 1 0-15h26.08a7.5 7.5 0 0 1 0 15z"/><path d="m391.72 490.35h-26.08a7.5 7.5 0 0 1 0-15h26.08a7.5 7.5 0 0 1 0 15z"/><path d="m410.56 437.05h-44.92a7.5 7.5 0 0 1 0-15h44.92a7.5 7.5 0 0 1 0 15z"/><path d="m410.56 437.05h-44.92a7.5 7.5 0 0 1 0-15h44.92a7.5 7.5 0 0 1 0 15z"/><path d="m391.72 383.74h-26.08a7.5 7.5 0 0 1 0-15h26.08a7.5 7.5 0 0 1 0 15z"/><path d="m391.72 383.74h-26.08a7.5 7.5 0 0 1 0-15h26.08a7.5 7.5 0 0 1 0 15z"/><path d="m410.56 330.43h-44.92a7.5 7.5 0 0 1 0-15h44.92a7.5 7.5 0 0 1 0 15z"/><path d="m410.56 330.43h-44.92a7.5 7.5 0 0 1 0-15h44.92a7.5 7.5 0 0 1 0 15z"/><path d="m391.72 277.12h-26.08a7.5 7.5 0 0 1 0-15h26.08a7.5 7.5 0 0 1 0 15z"/><path d="m391.72 277.12h-26.08a7.5 7.5 0 0 1 0-15h26.08a7.5 7.5 0 0 1 0 15z"/><path d="m410.56 223.81h-44.92a7.5 7.5 0 0 1 0-15h44.92a7.5 7.5 0 0 1 0 15z"/><path d="m284.19 322.93a7.5 7.5 0 0 1 -7.5 7.5h-51.31a7.5 7.5 0 1 1 0-15h51.31a7.5 7.5 0 0 1 7.5 7.5z"/></svg>