<svg clip-rule="evenodd" fill-rule="evenodd" height="512" image-rendering="optimizeQuality" shape-rendering="geometricPrecision" text-rendering="geometricPrecision" viewBox="0 0 512 512" width="512" xmlns="http://www.w3.org/2000/svg" xmlns:xodm="http://www.corel.com/coreldraw/odm/2003"><g id="Layer_x0020_1"><path d="m111.73 354.02c-2.76 0-5-2.24-5-5v-298.61c0-2.76 2.24-5 5-5 16.81 0 30.49-13.68 30.49-30.49 0-2.76 2.24-5 5-5h217.56c2.76 0 5 2.24 5 5 0 16.81 13.68 30.49 30.49 30.49 2.76 0 5 2.24 5 5v298.61h-10v-1.81l-278.95 3.79c-.77 1.78-2.53 3.02-4.59 3.02z" fill="#fcb54d"/><path d="m111.73 354.02c-2.76 0-5-2.24-5-5 0-28.43 23.13-51.55 51.55-51.55h195.44c28.39 0 51.5 23.07 51.55 51.45v.1h-10v-1.81l-278.95 3.79c-.77 1.78-2.53 3.02-4.59 3.02z" fill="#c67f4e"/><path d="m371.15 310.87c-1.81 0-3.39-.96-4.27-2.4h-221.69c-2.22 3.83-9.34 2.96-9.34-2.6v-233.27c0-1.88 1.06-3.6 2.74-4.46 11.29-5.71 20.65-15.07 26.36-26.36.86-1.68 2.58-2.74 4.47-2.74h173.16c1.89 0 3.61 1.06 4.47 2.74 5.71 11.29 15.07 20.65 26.36 26.36 1.68.85 2.74 2.58 2.74 4.46v233.27c0 2.77-2.24 5-5 5z" fill="#f47524"/><path d="m400.27 442.14h-288.54c-2.76 0-5-2.24-5-5v-88.12c0-28.43 23.13-51.55 51.55-51.55h195.44c28.42 0 51.55 23.12 51.55 51.55v88.12c0 2.76-2.24 5-5 5z" fill="#fcb54d"/><path d="m506.97 502.08h-106.7c-2.76 0-5-2.24-5-5v-201.19c0-32.18 26.17-58.35 58.35-58.35s58.35 26.17 58.35 58.35v201.19c0 2.76-2.23 5-5 5z" fill="#f68827"/><path d="m453.62 330.27c-14.3 0-25.93-11.63-25.93-25.93s11.63-25.93 25.93-25.93 25.93 11.63 25.93 25.93-11.63 25.93-25.93 25.93z" fill="#f8c52c"/><path d="m111.73 502.08h-106.71c-2.76 0-4.99-2.24-4.99-5v-201.19c0-32.18 26.17-58.35 58.34-58.35 32.19 0 58.36 26.17 58.36 58.35v201.19c0 2.76-2.24 5-5 5z" fill="#f68827"/><path d="m58.38 330.27c-14.3 0-25.93-11.63-25.93-25.93s11.63-25.93 25.93-25.93c14.29 0 25.93 11.63 25.93 25.93s-11.64 25.93-25.93 25.93z" fill="#f8c52c"/><path d="m135.85 302.61c-7.6 3.69-14.16 9.19-19.12 15.93v32.46 13.8h278.54v-15.78-1.81-28.67c-4.96-6.75-11.52-12.24-19.12-15.93-6.78-3.29-14.4-5.14-22.43-5.14h-195.44c-8.03 0-15.64 1.85-22.43 5.14z" fill="#da6120"/></g></svg>