<svg id="Layer_1" viewBox="0 0 1000 1000" xmlns="http://www.w3.org/2000/svg" data-name="Layer 1"><path d="m900.79 383.68a7.49 7.49 0 0 0 6.71-7.45v-100.18a7.5 7.5 0 0 0 -7.5-7.5h-800a7.5 7.5 0 0 0 -7.5 7.5v100.18a7.49 7.49 0 0 0 6.71 7.45 117 117 0 0 1 0 232.64 7.49 7.49 0 0 0 -6.71 7.45v100.23a7.5 7.5 0 0 0 7.5 7.5h800a7.5 7.5 0 0 0 7.5-7.5v-100.23a7.49 7.49 0 0 0 -6.71-7.45 117 117 0 0 1 0-232.64zm-119.44 116.32a132 132 0 0 0 111.15 130.34v86.11h-785v-86.11a132.33 132.33 0 0 0 72.49-37 132 132 0 0 0 -72.49-223.68v-86.11h785v86.11a132 132 0 0 0 -111.15 130.34z"/><path d="m892.5 369.66v-86.11h-148.42v6.27a7.49 7.49 0 0 1 -4.84 7 7.46 7.46 0 0 1 4.84 7v11.86a7.5 7.5 0 0 1 -15 0v-11.85a7.47 7.47 0 0 1 4.84-7 7.5 7.5 0 0 1 -4.84-7v-6.27h-458.16v6.27a7.5 7.5 0 0 1 -4.84 7 7.47 7.47 0 0 1 4.84 7v11.86a7.5 7.5 0 1 1 -15 0v-11.86a7.46 7.46 0 0 1 4.84-7 7.49 7.49 0 0 1 -4.84-7v-6.27h-148.42v86.11a132 132 0 0 1 0 260.68v86.11h148.42v-6.27a7.5 7.5 0 1 1 15 0v6.27h458.16v-6.27a7.5 7.5 0 0 1 15 0v6.27h148.42v-86.12a132 132 0 0 1 0-260.68zm-621.58 312.5a7.5 7.5 0 1 1 -15 0v-30.54a7.5 7.5 0 1 1 15 0zm0-61.08a7.5 7.5 0 1 1 -15 0v-30.54a7.5 7.5 0 1 1 15 0zm0-61.08a7.5 7.5 0 1 1 -15 0v-30.54a7.5 7.5 0 1 1 15 0zm0-61.08a7.5 7.5 0 1 1 -15 0v-30.53a7.5 7.5 0 1 1 15 0zm0-61.07a7.5 7.5 0 1 1 -15 0v-30.54a7.5 7.5 0 1 1 15 0zm0-61.08a7.5 7.5 0 1 1 -15 0v-30.54a7.5 7.5 0 1 1 15 0zm59.52 260.23a7.5 7.5 0 0 1 -15 0v-30a7.5 7.5 0 0 1 15 0zm0-60a7.5 7.5 0 0 1 -15 0v-30a7.5 7.5 0 0 1 15 0zm0-60a7.5 7.5 0 0 1 -15 0v-30a7.5 7.5 0 0 1 15 0zm0-60a7.5 7.5 0 0 1 -15 0v-30a7.5 7.5 0 0 1 15 0zm0-60a7.5 7.5 0 0 1 -15 0v-30a7.5 7.5 0 0 1 15 0zm5.17-39.84a7.5 7.5 0 0 1 7.5-7.5h30a7.5 7.5 0 0 1 0 15h-30a7.5 7.5 0 0 1 -7.5-7.52zm41.45 293.22h-30a7.5 7.5 0 0 1 0-15h30a7.5 7.5 0 1 1 0 15zm18.55-293.22a7.5 7.5 0 0 1 7.5-7.5h30a7.5 7.5 0 0 1 0 15h-30a7.5 7.5 0 0 1 -7.5-7.52zm41.45 293.22h-30a7.5 7.5 0 0 1 0-15h30a7.5 7.5 0 1 1 0 15zm18.55-293.22a7.5 7.5 0 0 1 7.5-7.5h30a7.5 7.5 0 0 1 0 15h-30a7.5 7.5 0 0 1 -7.5-7.52zm41.45 293.22h-30a7.5 7.5 0 0 1 0-15h30a7.5 7.5 0 1 1 0 15zm18.55-293.22a7.5 7.5 0 0 1 7.5-7.5h30a7.5 7.5 0 0 1 0 15h-30a7.5 7.5 0 0 1 -7.5-7.52zm41.45 293.22h-30a7.5 7.5 0 0 1 0-15h30a7.5 7.5 0 0 1 0 15zm18.55-293.22a7.5 7.5 0 0 1 7.5-7.5h30a7.5 7.5 0 0 1 0 15h-30a7.5 7.5 0 0 1 -7.5-7.52zm41.45 293.22h-30a7.5 7.5 0 0 1 0-15h30a7.5 7.5 0 0 1 0 15zm18.55-293.22a7.5 7.5 0 0 1 7.5-7.5h30a7.5 7.5 0 0 1 0 15h-30a7.5 7.5 0 0 1 -7.5-7.52zm48.95 285.72a7.5 7.5 0 0 1 -7.5 7.5h-30a7.5 7.5 0 0 1 0-15h22.5v-12.19a7.5 7.5 0 0 1 15 0zm0-49.67a7.5 7.5 0 0 1 -15 0v-30a7.5 7.5 0 0 1 15 0zm0-60a7.5 7.5 0 0 1 -15 0v-30a7.5 7.5 0 0 1 15 0zm0-60a7.5 7.5 0 1 1 -15 0v-30a7.5 7.5 0 0 1 15 0zm0-60a7.5 7.5 0 1 1 -15 0v-30a7.5 7.5 0 0 1 15 0zm59.52 269a7.5 7.5 0 0 1 -15 0v-30.59a7.5 7.5 0 0 1 15 0zm0-61.08a7.5 7.5 0 0 1 -15 0v-30.59a7.5 7.5 0 0 1 15 0zm0-61.08a7.5 7.5 0 0 1 -15 0v-30.59a7.5 7.5 0 0 1 15 0zm0-61.08a7.5 7.5 0 0 1 -15 0v-30.58a7.5 7.5 0 0 1 15 0zm0-61.07a7.5 7.5 0 0 1 -15 0v-30.59a7.5 7.5 0 0 1 15 0zm0-61.08a7.5 7.5 0 0 1 -15 0v-30.59a7.5 7.5 0 1 1 15 0z" fill="#81c784"/><path d="m744.08 710.18v13.82a7.5 7.5 0 0 1 -15 0v-13.82a7.5 7.5 0 0 1 15 0z"/><path d="m739.24 296.83a7.33 7.33 0 0 0 -5.32 0 7.47 7.47 0 0 0 -4.84 7v11.86a7.5 7.5 0 0 0 15 0v-11.86a7.46 7.46 0 0 0 -4.84-7zm-2.66 41.9a7.5 7.5 0 0 0 -7.5 7.5v30.54a7.5 7.5 0 0 0 15 0v-30.54a7.5 7.5 0 0 0 -7.5-7.5zm0 61.08a7.5 7.5 0 0 0 -7.5 7.5v30.54a7.5 7.5 0 0 0 15 0v-30.54a7.5 7.5 0 0 0 -7.5-7.5zm0 61.08a7.5 7.5 0 0 0 -7.5 7.5v30.53a7.5 7.5 0 0 0 15 0v-30.53a7.49 7.49 0 0 0 -7.5-7.5zm0 61.07a7.5 7.5 0 0 0 -7.5 7.5v30.54a7.5 7.5 0 0 0 15 0v-30.54a7.5 7.5 0 0 0 -7.5-7.46zm0 61.08a7.5 7.5 0 0 0 -7.5 7.5v30.54a7.5 7.5 0 0 0 15 0v-30.54a7.5 7.5 0 0 0 -7.5-7.54zm0 61.08a7.5 7.5 0 0 0 -7.5 7.5v30.54a7.5 7.5 0 0 0 15 0v-30.54a7.5 7.5 0 0 0 -7.5-7.5z"/><path d="m744.08 276.05v13.77a7.49 7.49 0 0 1 -4.84 7 7.47 7.47 0 0 1 -5.32 0 7.5 7.5 0 0 1 -4.84-7v-13.77a7.5 7.5 0 0 1 15 0z"/><path d="m270.92 710.18v13.82a7.5 7.5 0 1 1 -15 0v-13.82a7.5 7.5 0 1 1 15 0z"/><path d="m266.08 296.83a7.33 7.33 0 0 0 -5.32 0 7.46 7.46 0 0 0 -4.84 7v11.86a7.5 7.5 0 1 0 15 0v-11.86a7.47 7.47 0 0 0 -4.84-7zm-2.66 41.9a7.5 7.5 0 0 0 -7.5 7.5v30.54a7.5 7.5 0 1 0 15 0v-30.54a7.5 7.5 0 0 0 -7.5-7.5zm0 61.08a7.5 7.5 0 0 0 -7.5 7.5v30.54a7.5 7.5 0 1 0 15 0v-30.54a7.5 7.5 0 0 0 -7.5-7.5zm0 61.08a7.49 7.49 0 0 0 -7.5 7.5v30.53a7.5 7.5 0 1 0 15 0v-30.53a7.5 7.5 0 0 0 -7.5-7.5zm0 61.07a7.5 7.5 0 0 0 -7.5 7.5v30.54a7.5 7.5 0 1 0 15 0v-30.54a7.5 7.5 0 0 0 -7.5-7.46zm0 61.08a7.5 7.5 0 0 0 -7.5 7.5v30.54a7.5 7.5 0 1 0 15 0v-30.54a7.5 7.5 0 0 0 -7.5-7.54zm0 61.08a7.5 7.5 0 0 0 -7.5 7.5v30.54a7.5 7.5 0 1 0 15 0v-30.54a7.5 7.5 0 0 0 -7.5-7.5z"/><path d="m270.92 276.05v13.77a7.5 7.5 0 0 1 -4.84 7 7.46 7.46 0 0 1 -5.32 0 7.49 7.49 0 0 1 -4.84-7v-13.77a7.5 7.5 0 0 1 15 0z"/><path d="m373.11 349.64h-30a7.5 7.5 0 0 0 0 15h30a7.5 7.5 0 0 0 0-15zm60 0h-30a7.5 7.5 0 0 0 0 15h30a7.5 7.5 0 0 0 0-15zm60 0h-30a7.5 7.5 0 0 0 0 15h30a7.5 7.5 0 0 0 0-15zm60 0h-30a7.5 7.5 0 0 0 0 15h30a7.5 7.5 0 0 0 0-15zm60 0h-30a7.5 7.5 0 0 0 0 15h30a7.5 7.5 0 0 0 0-15zm60 0h-30a7.5 7.5 0 0 0 0 15h30a7.5 7.5 0 0 0 0-15zm-350.17 9.84a7.5 7.5 0 0 0 -7.5 7.5v30a7.5 7.5 0 0 0 15 0v-29.98a7.5 7.5 0 0 0 -7.5-7.52zm354.12 16.21a7.5 7.5 0 0 0 -7.5 7.5v30a7.5 7.5 0 1 0 15 0v-30a7.5 7.5 0 0 0 -7.5-7.5zm-354.12 43.79a7.5 7.5 0 0 0 -7.5 7.5v30a7.5 7.5 0 0 0 15 0v-29.98a7.5 7.5 0 0 0 -7.5-7.52zm354.12 16.21a7.5 7.5 0 0 0 -7.5 7.5v30a7.5 7.5 0 1 0 15 0v-30a7.5 7.5 0 0 0 -7.5-7.5zm-354.12 43.79a7.5 7.5 0 0 0 -7.5 7.5v30a7.5 7.5 0 0 0 15 0v-29.98a7.5 7.5 0 0 0 -7.5-7.52zm354.12 16.21a7.5 7.5 0 0 0 -7.5 7.5v30a7.5 7.5 0 0 0 15 0v-30a7.5 7.5 0 0 0 -7.5-7.5zm-354.12 43.79a7.5 7.5 0 0 0 -7.5 7.5v30a7.5 7.5 0 0 0 15 0v-29.98a7.5 7.5 0 0 0 -7.5-7.52zm354.12 16.21a7.5 7.5 0 0 0 -7.5 7.5v30a7.5 7.5 0 0 0 15 0v-30a7.5 7.5 0 0 0 -7.5-7.5zm-354.12 43.79a7.5 7.5 0 0 0 -7.5 7.5v30a7.5 7.5 0 0 0 15 0v-29.98a7.5 7.5 0 0 0 -7.5-7.52zm54.12 35.88h-30a7.5 7.5 0 0 0 0 15h30a7.5 7.5 0 1 0 0-15zm60 0h-30a7.5 7.5 0 0 0 0 15h30a7.5 7.5 0 1 0 0-15zm60 0h-30a7.5 7.5 0 0 0 0 15h30a7.5 7.5 0 1 0 0-15zm60 0h-30a7.5 7.5 0 0 0 0 15h30a7.5 7.5 0 0 0 0-15zm60 0h-30a7.5 7.5 0 0 0 0 15h30a7.5 7.5 0 0 0 0-15zm60-19.67a7.5 7.5 0 0 0 -7.5 7.5v12.17h-22.5a7.5 7.5 0 0 0 0 15h30a7.5 7.5 0 0 0 7.5-7.5v-19.67a7.5 7.5 0 0 0 -7.5-7.5z"/></svg>