<svg id="Layer_1" viewBox="0 0 1000 1000" xmlns="http://www.w3.org/2000/svg" data-name="Layer 1"><path d="m884 385.1v-119.1h-181.32v55.43a16 16 0 0 1 -32 0v-55.43h-554.68v119.1a116 116 0 0 1 0 229.8v119.1h554.68v-55.43a16 16 0 0 1 32 0v55.43h181.32v-119.1a116 116 0 0 1 0-229.8zm-308.47 255.9h-272.84a16 16 0 0 1 0-32h272.84a16 16 0 0 1 0 32zm0-125h-272.84a16 16 0 0 1 0-32h272.84a16 16 0 0 1 0 32zm0-125h-272.84a16 16 0 0 1 0-32h272.84a16 16 0 0 1 0 32zm127.15 216.14a16 16 0 0 1 -32 0v-71.43a16 16 0 0 1 32 0zm0-142.85a16 16 0 1 1 -32 0v-71.43a16 16 0 0 1 32 0z" fill="#33691e"/><g opacity=".5"><path d="m874 395.1v-119.1h-181.32v55.43a16 16 0 0 1 -32 0v-55.43h-554.68v119.1a116 116 0 0 1 0 229.8v119.1h554.68v-55.43a16 16 0 0 1 32 0v55.43h181.32v-119.1a116 116 0 0 1 0-229.8zm-308.47 255.9h-272.84a16 16 0 0 1 0-32h272.84a16 16 0 0 1 0 32zm0-125h-272.84a16 16 0 0 1 0-32h272.84a16 16 0 0 1 0 32zm0-125h-272.84a16 16 0 0 1 0-32h272.84a16 16 0 0 1 0 32zm127.15 216.14a16 16 0 0 1 -32 0v-71.43a16 16 0 0 1 32 0zm0-142.85a16 16 0 1 1 -32 0v-71.43a16 16 0 0 1 32 0z" fill="#fff"/></g><g fill="#413b32"><path d="m900 416a16 16 0 0 0 16-16v-150a16 16 0 0 0 -16-16h-800a16 16 0 0 0 -16 16v150a16 16 0 0 0 16 16 84 84 0 0 1 0 168 16 16 0 0 0 -16 16v150a16 16 0 0 0 16 16h800a16 16 0 0 0 16-16v-150a16 16 0 0 0 -16-16 84 84 0 0 1 0-168zm-116 84a116.18 116.18 0 0 0 100 114.9v119.1h-768v-119.1a116 116 0 0 0 0-229.8v-119.1h768v119.1a116.18 116.18 0 0 0 -100 114.9z"/><path d="m591.53 375a16 16 0 0 1 -16 16h-272.84a16 16 0 0 1 0-32h272.84a16 16 0 0 1 16 16z"/><path d="m591.53 500a16 16 0 0 1 -16 16h-272.84a16 16 0 0 1 0-32h272.84a16 16 0 0 1 16 16z"/><path d="m591.53 625a16 16 0 0 1 -16 16h-272.84a16 16 0 0 1 0-32h272.84a16 16 0 0 1 16 16z"/><path d="m702.68 250v71.43a16 16 0 0 1 -32 0v-71.43a16 16 0 0 1 32 0z"/><path d="m702.68 392.86v71.43a16 16 0 1 1 -32 0v-71.43a16 16 0 0 1 32 0z"/><path d="m702.68 535.71v71.43a16 16 0 0 1 -32 0v-71.43a16 16 0 0 1 32 0z"/><path d="m702.68 678.57v71.43a16 16 0 0 1 -32 0v-71.43a16 16 0 0 1 32 0z"/><path d="m900 416a16 16 0 0 0 16-16v-150a16 16 0 0 0 -16-16h-800a16 16 0 0 0 -16 16v150a16 16 0 0 0 16 16 84 84 0 0 1 0 168 16 16 0 0 0 -16 16v150a16 16 0 0 0 16 16h800a16 16 0 0 0 16-16v-150a16 16 0 0 0 -16-16 84 84 0 0 1 0-168zm-116 84a116.18 116.18 0 0 0 100 114.9v119.1h-768v-119.1a116 116 0 0 0 0-229.8v-119.1h768v119.1a116.18 116.18 0 0 0 -100 114.9z"/><path d="m591.53 375a16 16 0 0 1 -16 16h-272.84a16 16 0 0 1 0-32h272.84a16 16 0 0 1 16 16z"/><path d="m591.53 500a16 16 0 0 1 -16 16h-272.84a16 16 0 0 1 0-32h272.84a16 16 0 0 1 16 16z"/><path d="m591.53 625a16 16 0 0 1 -16 16h-272.84a16 16 0 0 1 0-32h272.84a16 16 0 0 1 16 16z"/></g></svg>