<svg enable-background="new 0 0 32 32" viewBox="0 0 32 32" xmlns="http://www.w3.org/2000/svg"><g id="Grid" display="none"/><g id="bow_tie"/><g id="balloon_1_"/><g id="placeholder"/><g id="mic"/><g id="speaker"/><g id="champagne"/><g id="gift"/><g id="theater"/><g id="_camera"/><g id="video_camera"/><g id="party_hat"/><g id="champagne_glass"/><g id="man"/><g id="woman"/><g id="skewer"/><g id="ticket"><path d="m24.443 2.475 5.083 5.083c.505.505.579 1.264.268 1.906-.719 1.482-.727 3.256-.033 4.842.27.616.163 1.33-.313 1.806l-13.338 13.336c-.476.476-1.189.583-1.806.313-1.586-.694-3.36-.686-4.842.033-.642.312-1.402.237-1.906-.268l-5.083-5.083c-.505-.505-.579-1.264-.268-1.906.719-1.482.727-3.256.033-4.842-.27-.616-.163-1.33.313-1.806l13.338-13.336c.476-.476 1.189-.583 1.806-.313 1.586.694 3.36.686 4.842-.033.642-.311 1.401-.237 1.906.268z" fill="#ffd731"/><path d="m24.443 2.48 5.077 5.077c.509.509.587 1.266.276 1.902-.721 1.485-.728 3.26-.035 4.844.269.622.163 1.336-.311 1.81l-4.603 4.603c.474-.474.58-1.188.311-1.81-.693-1.584-.686-3.359.028-4.837.318-.643.24-1.4-.269-1.909l-5.077-5.077c-.509-.509-1.266-.587-1.909-.269-1.478.714-3.253.721-4.837.028-.622-.269-1.336-.163-1.81.311l4.603-4.603c.474-.474 1.188-.58 1.81-.311 1.584.693 3.359.686 4.844-.035.636-.31 1.392-.233 1.902.276z" fill="#ffc933"/><path d="m14.542 26.309c-1.805-.54-3.703-.522-5.445.051l-3.456-3.456c.572-1.741.59-3.639.05-5.445l11.766-11.767c1.805.54 3.704.523 5.445-.05l3.456 3.456c-.572 1.742-.59 3.64-.051 5.445z" fill="#9487d8"/><path d="m22.908 5.641 3.451 3.451c-.573 1.747-.594 3.649-.05 5.452l-3.132 3.132c-.27-1.148-.336-2.316-.195-3.458.155-1.265-.277-2.53-1.178-3.431l-.588-.588c-.899-.899-2.161-1.333-3.424-1.179-1.146.14-2.317.074-3.467-.196l3.132-3.132c1.802.543 3.705.522 5.451-.051z" fill="#7e76ce"/><path d="m13.988 13.155 1.795.609c.057.019.12.009.168-.027l1.519-1.133c.436-.326 1.057-.01 1.05.535l-.024 1.895c-.001.06.028.117.077.152l1.547 1.094c.445.314.336 1.002-.184 1.164l-1.81.563c-.058.018-.103.063-.12.12l-.563 1.81c-.162.52-.849.629-1.164.184l-1.094-1.547c-.035-.049-.092-.078-.152-.077l-1.895.024c-.544.007-.86-.613-.535-1.05l1.133-1.519c.036-.048.046-.111.027-.168l-.609-1.795c-.174-.516.318-1.009.834-.834z" fill="#ffd731"/><path d="m30.175 9.649c.405-.836.268-1.775-.349-2.393l-5.083-5.083c-.617-.617-1.556-.754-2.392-.349-1.37.664-3.004.675-4.486.025-.791-.346-1.686-.188-2.276.401l-13.337 13.339c-.591.591-.749 1.484-.402 2.277.648 1.48.639 3.116-.026 4.485-.405.836-.268 1.774.35 2.393l5.083 5.083c.382.382.886.579 1.413.579.326 0 .66-.075.979-.23 1.37-.665 3.005-.675 4.486-.025.792.345 1.685.188 2.276-.401l13.337-13.338c.591-.591.749-1.484.401-2.275-.648-1.484-.638-3.118.026-4.488zm-.804 4.828c.206.469.118.992-.224 1.333l-13.337 13.337c-.342.341-.865.431-1.335.224-1.709-.747-3.604-.732-5.198.04-.504.247-1.063.172-1.42-.186l-5.083-5.083c-.357-.357-.43-.915-.186-1.42.774-1.594.788-3.488.04-5.197-.205-.47-.117-.994.224-1.335l13.337-13.336c.219-.219.513-.334.819-.334.171 0 .347.036.516.11 1.71.749 3.604.733 5.198-.04.504-.246 1.061-.174 1.42.186l5.083 5.083c.357.357.431.915.186 1.42-.774 1.593-.788 3.488-.04 5.198z"/><path d="m23.203 5.342c-.113-.113-.28-.153-.433-.103-1.667.548-3.461.563-5.19.046-.15-.043-.313-.004-.422.106l-11.767 11.766c-.111.11-.152.272-.107.423.518 1.729.501 3.524-.046 5.19-.05.152-.01.32.103.434l3.456 3.456c.081.081.19.124.301.124.044 0 .089-.007.133-.021 1.668-.548 3.462-.563 5.19-.047.151.044.313.005.422-.106l11.766-11.766c.111-.11.152-.272.107-.423-.517-1.729-.5-3.523.047-5.19.05-.152.01-.32-.104-.434zm2.628 9.077-11.413 11.412c-1.733-.471-3.52-.454-5.203.046l-3.092-3.092c.5-1.681.516-3.47.044-5.203l11.414-11.412c1.734.47 3.522.455 5.203-.045l3.092 3.091c-.501 1.682-.516 3.471-.045 5.203z"/><path d="m10.982 14.182-2.15 2.15c-.166.166-.166.436 0 .602.083.083.191.124.3.124s.218-.041.301-.124l2.15-2.15c.166-.166.166-.436 0-.602s-.435-.166-.601 0z" fill="#b6b5e2"/><path d="m7.572 17.593-.137.137c-.166.166-.166.436 0 .602.083.083.191.124.3.124s.218-.041.3-.124l.138-.138c.166-.166.166-.436 0-.602-.165-.165-.436-.165-.601.001z" fill="#b6b5e2"/><path d="m20.365 15.933-1.443-1.021.022-1.769c.005-.414-.221-.789-.59-.978-.367-.187-.805-.15-1.139.097l-1.416 1.058-1.675-.567c-.395-.135-.82-.033-1.113.26s-.393.72-.259 1.112l.568 1.674-1.058 1.417c-.248.332-.285.769-.097 1.138.188.37.578.618.978.591l1.768-.021 1.021 1.442c.206.291.532.458.88.458.057 0 .115-.005.173-.014.41-.065.74-.352.863-.748l.525-1.688 1.688-.525c.396-.123.683-.454.747-.864.066-.41-.104-.813-.443-1.052zm-.556 1.104-1.808.563c-.192.059-.342.208-.402.4l-.563 1.81c-.039.124-.142.153-.185.16-.042.009-.15.012-.226-.095l-1.093-1.545c-.113-.162-.299-.259-.496-.259-.003 0-.006 0-.01 0l-1.895.023c-.113.019-.189-.089-.209-.127s-.057-.14.021-.244l1.132-1.517c.122-.161.155-.371.09-.561l-.609-1.795c-.042-.123.025-.207.056-.238.031-.03.116-.099.239-.056l1.793.608c.188.063.399.031.561-.088l1.518-1.134c.104-.078.206-.04.245-.021s.128.079.126.21l-.024 1.893c-.003.2.092.389.257.506l1.547 1.094c.106.075.102.183.095.226s-.036.149-.16.187z"/></g><g id="cake"/><g id="lights"/><g id="photo"/><g id="invitation"/></svg>