<svg id="Layer_1" enable-background="new 0 0 512 512" height="512" viewBox="0 0 512 512" width="512" xmlns="http://www.w3.org/2000/svg"><g><path d="m205.854 367.396h100.291v118.453h-100.291z" fill="#efeeee"/><path d="m306.146 493.85h-100.292c-4.418 0-8-3.582-8-8v-118.454c0-4.418 3.582-8 8-8h100.291c4.418 0 8 3.582 8 8v118.454c.001 4.418-3.582 8-7.999 8zm-92.292-16h84.291v-102.454h-84.291z"/></g><g><path d="m124.236 26.15h263.527v38.317h-263.527z" fill="#e0e0e0"/><path d="m387.764 72.467h-263.528c-4.418 0-8-3.582-8-8v-38.317c0-4.418 3.582-8 8-8h263.527c4.418 0 8 3.582 8 8v38.317c.001 4.418-3.581 8-7.999 8zm-255.528-16h247.527v-22.317h-247.527z"/></g><g><path d="m124.236 228.684h263.527v38.318h-263.527z" fill="#e0e0e0"/><path d="m387.764 275.002h-263.528c-4.418 0-8-3.582-8-8v-38.318c0-4.418 3.582-8 8-8h263.527c4.418 0 8 3.582 8 8v38.318c.001 4.418-3.581 8-7.999 8zm-255.528-16h247.527v-22.318h-247.527z"/></g><g><path d="m132.446 64.467h247.108v127.464h-247.108z" fill="#fafafa"/><path d="m379.555 199.931h-247.109c-4.418 0-8-3.582-8-8v-127.464c0-4.418 3.582-8 8-8h247.108c4.418 0 8 3.582 8 8v127.464c.001 4.418-3.581 8-7.999 8zm-239.109-16h231.108v-111.464h-231.108z"/></g><g><path d="m153.56 191.931h204.879v36.753h-204.879z" fill="#efeeee"/><path d="m358.439 236.684h-204.879c-4.418 0-8-3.582-8-8v-36.753c0-4.418 3.582-8 8-8h204.879c4.418 0 8 3.582 8 8v36.753c0 4.419-3.582 8-8 8zm-196.879-16h188.879v-20.753h-188.879z"/></g><g><path d="m383.324 267.002c0 78.385-57.005 141.934-127.319 141.934-70.322 0-127.33-63.549-127.33-141.934z" fill="#fafafa"/><path d="m256.005 416.936c-74.621 0-135.33-67.26-135.33-149.934 0-4.418 3.582-8 8-8h254.649c4.418 0 8 3.582 8 8 0 82.674-60.704 149.934-135.319 149.934zm-119.12-141.934c3.7 70.141 55.714 125.934 119.12 125.934 63.399 0 115.409-55.793 119.109-125.934z"/></g></svg>