<svg id="Layer_1" enable-background="new 0 0 512 512" height="512" viewBox="0 0 512 512" width="512" xmlns="http://www.w3.org/2000/svg"><g><path d="m182.841 339.05-23.537 73.875c-9.047 28.394 6.637 58.747 35.032 67.794 28.396 9.047 58.748-6.639 67.794-35.032l23.538-73.875z" fill="#fcb64e"/><path d="m210.73 491.279c-.001 0 .001 0 0 0-6.371 0-12.704-.988-18.824-2.938-15.769-5.023-28.637-15.889-36.235-30.592s-9.015-31.484-3.991-47.253l23.537-73.875c.644-2.021 2.065-3.704 3.95-4.679 1.884-.973 4.078-1.16 6.101-.515l102.827 32.762c2.021.644 3.704 2.064 4.679 3.949.974 1.885 1.159 4.08.515 6.102l-23.538 73.875c-8.224 25.817-31.945 43.164-59.021 43.164zm-22.695-142.178-21.108 66.253c-3.727 11.696-2.676 24.145 2.96 35.051s15.181 18.965 26.878 22.692c4.547 1.448 9.246 2.183 13.965 2.183 20.083.001 37.675-12.868 43.778-32.021l21.11-66.253z"/></g><g><path d="m252.418 157.399h25.245v202.818h-25.245z" fill="#fafafa" transform="matrix(.953 .304 -.304 .953 91.081 -68.249)"/><path d="m246.281 367.263c-.817 0-1.636-.125-2.429-.378l-24.053-7.664c-4.21-1.341-6.535-5.841-5.194-10.051l61.572-193.246c1.342-4.209 5.84-6.537 10.051-5.194l24.052 7.663c2.021.644 3.704 2.065 4.679 3.95.974 1.885 1.159 4.08.515 6.102l-61.57 193.247c-.644 2.021-2.065 3.704-3.95 4.679-1.146.591-2.407.892-3.673.892zm-14.002-20.858 8.808 2.807 56.713-178.002-8.808-2.806z"/></g><g><path d="m337.974 29.897c-13.055-4.16-27.008 3.052-31.168 16.106l-34.617 108.649 47.274 15.063 34.617-108.65c4.159-13.054-3.052-27.008-16.106-31.168z" fill="#f58a67"/><path d="m319.463 177.715c-.817 0-1.636-.125-2.429-.377l-47.274-15.063c-4.21-1.341-6.535-5.841-5.193-10.051l34.617-108.649c4.356-13.67 16.916-22.855 31.253-22.855 3.374 0 6.728.523 9.966 1.555 8.35 2.66 15.164 8.413 19.187 16.198s4.774 16.671 2.113 25.021l-34.617 108.65c-.644 2.021-2.064 3.705-3.949 4.679-1.148.592-2.408.892-3.674.892zm-37.224-28.256 32.03 10.205 32.188-101.027c1.362-4.277.978-8.83-1.083-12.818-2.062-3.988-5.552-6.936-9.83-8.298-1.666-.531-3.385-.8-5.108-.8-7.343 0-13.776 4.707-16.009 11.713z"/></g><g><g><g><path d="m194.698 383.413c-.805 0-1.623-.122-2.431-.38l-21.28-6.78c-4.209-1.341-6.535-5.841-5.194-10.051s5.838-6.537 10.051-5.193l21.28 6.78c4.209 1.341 6.535 5.841 5.194 10.051-1.084 3.402-4.231 5.573-7.62 5.573z"/></g></g><g><g><path d="m276.245 409.395c-.805 0-1.623-.122-2.431-.38l-21.279-6.779c-4.21-1.341-6.536-5.841-5.194-10.051s5.841-6.538 10.051-5.193l21.28 6.779c4.21 1.341 6.535 5.841 5.193 10.051-1.083 3.402-4.23 5.573-7.62 5.573z"/></g></g></g><g><g><path d="m194.338 488.721c-.805 0-1.623-.122-2.431-.38-4.21-1.341-6.535-5.841-5.194-10.051l6.781-21.281c1.341-4.21 5.842-6.538 10.051-5.193 4.21 1.341 6.535 5.841 5.194 10.051l-6.781 21.281c-1.083 3.402-4.231 5.573-7.62 5.573z"/></g></g><g><g><g><path d="m237.938 483.512c-2.897 0-5.693-1.578-7.114-4.33l-10.252-19.843c-2.028-3.925-.49-8.751 3.435-10.779 3.926-2.026 8.752-.491 10.78 3.436l10.252 19.843c2.028 3.925.49 8.751-3.435 10.779-1.174.606-2.429.894-3.666.894z"/></g></g><g><g><path d="m161.795 459.251c-2.897 0-5.692-1.578-7.114-4.329-2.028-3.926-.49-8.752 3.435-10.78l19.843-10.254c3.925-2.027 8.751-.49 10.78 3.435 2.028 3.926.49 8.752-3.435 10.78l-19.843 10.254c-1.174.606-2.43.894-3.666.894z"/></g></g></g><g><g><g><path d="m182.542 421.565c-.805 0-1.623-.122-2.431-.38l-21.28-6.78c-4.21-1.341-6.535-5.841-5.194-10.051s5.842-6.538 10.051-5.193l21.28 6.78c4.21 1.341 6.535 5.841 5.194 10.051-1.083 3.403-4.231 5.573-7.62 5.573z"/></g></g><g><g><path d="m264.09 447.547c-.805 0-1.623-.122-2.431-.38l-21.28-6.779c-4.21-1.341-6.536-5.841-5.194-10.051 1.341-4.209 5.841-6.539 10.051-5.193l21.281 6.779c4.209 1.341 6.535 5.841 5.193 10.051-1.083 3.401-4.231 5.573-7.62 5.573z"/></g></g></g></svg>