<svg id="Capa_1" enable-background="new 0 0 512 512" height="512" viewBox="0 0 512 512" width="512" xmlns="http://www.w3.org/2000/svg"><g><g><ellipse cx="256.001" cy="309.811" fill="#fd7a6e" rx="248.501" ry="194.445"/></g><g><path d="m112.793 309.811c0-93.253 83.901-171.16 195.854-190.059-16.971-2.865-34.58-4.387-52.646-4.387-137.244 0-248.501 87.057-248.501 194.446 0 107.388 111.257 194.444 248.502 194.444 18.066 0 35.675-1.522 52.646-4.387-111.954-18.898-195.855-96.805-195.855-190.057z" fill="#fb695b"/></g><g><path d="m360.958 107.189c-3.551-1.708-7.117-3.269-10.676-4.687-2.059-.82-2.485-3.518-.822-4.984.013-.011.025-.022.038-.033 33.541-29.59 46.058-66.523 27.957-82.491-18.101-15.969-59.965-4.927-93.506 24.663-10.741 9.476-19.316 19.704-25.427 29.756-1.157 1.903-3.883 1.903-5.04 0-6.111-10.052-14.686-20.28-25.427-29.756-33.541-29.59-75.405-40.632-93.506-24.663-18.101 15.968-5.584 52.901 27.957 82.491.013.011.025.022.038.033 1.663 1.466 1.236 4.164-.822 4.984-3.56 1.418-7.126 2.979-10.676 4.687-41.645 20.033-65.471 52.347-53.216 72.174s55.95 19.66 97.595-.373c4.019-1.933 7.866-3.983 11.533-6.124 2.196-1.282 4.842.566 4.412 3.072-1.116 6.503-1.717 13.358-1.717 20.444 0 41.846 20.752 75.77 46.35 75.77 25.599 0 46.35-33.923 46.35-75.77 0-7.086-.601-13.941-1.716-20.444-.43-2.506 2.216-4.354 4.412-3.072 3.667 2.141 7.515 4.19 11.533 6.124 41.645 20.033 85.34 20.201 97.595.373s-11.574-52.14-53.219-72.174z" fill="#9cda82"/></g><g><path d="m361.295 72.147c3.572 0 7.122.073 10.658.19 15.609-22.944 18.689-45.709 5.501-57.343-18.101-15.969-59.965-4.927-93.506 24.663-10.741 9.476-19.316 19.704-25.427 29.756-1.157 1.903-3.883 1.903-5.04 0-6.111-10.052-14.686-20.28-25.427-29.756-33.541-29.59-75.405-40.632-93.506-24.663-18.101 15.968-5.584 52.901 27.957 82.491.013.011.025.022.038.033 1.663 1.465 1.236 4.164-.822 4.984-3.56 1.418-7.126 2.979-10.676 4.687-41.645 20.034-65.471 52.347-53.216 72.174 5.548 8.976 17.553 13.84 32.883 14.632 36.761-71.426 126.14-121.848 230.583-121.848z" fill="#8dd470"/></g><g><g><path d="m206.616 366.671c0 12.913-13.146 23.38-29.36 23.38-16.216 0-29.36-10.466-29.36-23.38 0-12.911 13.144-23.38 29.36-23.38 16.214 0 29.36 10.469 29.36 23.38" fill="#fff"/></g><g><path d="m307.033 366.671c0 12.913 13.145 23.38 29.36 23.38s29.36-10.466 29.36-23.38c0-12.911-13.145-23.38-29.36-23.38s-29.36 10.469-29.36 23.38" fill="#fff"/></g><g><path d="m280.495 348.708c0-14.629-10.598-16.004-23.671-16.004s-23.671 1.376-23.671 16.004c0 14.629 10.598 26.488 23.671 26.488s23.671-11.859 23.671-26.488" fill="#495560"/></g><g><path d="m182.163 346.258c-4.142 0-7.5-3.357-7.5-7.5v-11.988c0-4.143 3.358-7.5 7.5-7.5s7.5 3.357 7.5 7.5v11.988c0 4.143-3.358 7.5-7.5 7.5z"/></g><g><path d="m256.824 382.696c-17.188 0-31.171-15.247-31.171-33.988 0-23.504 21.844-23.504 31.171-23.504s31.171 0 31.171 23.504c0 18.741-13.983 33.988-31.171 33.988zm0-42.492c-15.518 0-16.171 2.607-16.171 8.504 0 10.47 7.254 18.988 16.171 18.988s16.171-8.519 16.171-18.988c0-5.897-.654-8.504-16.171-8.504z"/></g><g><path d="m331.485 346.258c-4.143 0-7.5-3.357-7.5-7.5v-11.988c0-4.143 3.357-7.5 7.5-7.5s7.5 3.357 7.5 7.5v11.988c0 4.143-3.357 7.5-7.5 7.5z"/></g></g><g><path d="m393.722 463.192c-40.526 21.958-88.149 33.563-137.72 33.563-132.889 0-241.002-83.863-241.002-186.944 0-31.234 10.153-62.155 29.361-89.419 2.385-3.386 1.574-8.064-1.812-10.45-3.387-2.388-8.065-1.575-10.451 1.812-20.998 29.805-32.098 63.712-32.098 98.057 0 54.295 26.871 105.222 75.663 143.399 48.249 37.753 112.294 58.545 180.339 58.545 52.059 0 102.153-12.232 144.867-35.374 3.642-1.974 4.994-6.525 3.021-10.168-1.974-3.641-6.525-4.997-10.168-3.021z"/><path d="m423.78 157.218c-.192-.132-.39-.25-.59-.362-6.129-20.26-28.675-41.847-58.983-56.426-1.504-.724-3.026-1.429-4.56-2.113 20.864-20.166 33.598-43.926 33.598-63.216 0-10.583-3.746-19.481-10.831-25.731-21.161-18.667-66.593-7.835-103.43 24.663-8.928 7.876-16.773 16.599-22.985 25.521-6.211-8.922-14.057-17.645-22.985-25.521-36.837-32.497-82.268-43.332-103.429-24.663-7.086 6.25-10.831 15.147-10.832 25.73 0 19.29 12.733 43.051 33.598 63.217-1.533.685-3.056 1.39-4.561 2.113-30.292 14.572-52.83 36.145-58.972 56.396-.083.052-.169.097-.251.153-12.638 8.62-24.253 18.255-34.522 28.637-2.913 2.945-2.887 7.693.058 10.606 1.462 1.446 3.368 2.168 5.274 2.168 1.933 0 3.866-.743 5.333-2.226 7.149-7.227 15.009-14.073 23.45-20.436.723 2.662 1.817 5.198 3.287 7.576 7.306 11.82 22.849 18.319 43.795 18.318.128 0 .26 0 .389-.001 19.527-.074 41.915-5.713 63.041-15.876 1.371-.659 2.736-1.338 4.091-2.034-.407 4.181-.613 8.417-.613 12.669 0 46.693 23.654 83.27 53.85 83.27s53.851-36.577 53.851-83.27c0-4.25-.205-8.486-.613-12.67 1.355.697 2.72 1.376 4.091 2.035 21.126 10.163 43.515 15.802 63.041 15.876.131.001.26.001.39.001 20.944 0 36.489-6.498 43.795-18.318 1.468-2.375 2.561-4.909 3.285-7.567 46.627 35.155 73.16 83.514 73.16 134.074 0 51.703-26.669 99.834-75.095 135.527-3.334 2.457-4.045 7.152-1.587 10.487 1.471 1.995 3.741 3.05 6.043 3.05 1.545 0 3.104-.476 4.444-1.463 25.274-18.63 45.191-40.67 59.196-65.51 14.598-25.889 21.999-53.508 21.999-82.091 0-58.598-32.155-114.216-88.22-152.593zm-15.986 18.202c-8.818 14.266-47.11 16.463-87.964-3.189-3.754-1.806-7.456-3.771-11.003-5.841-3.558-2.078-7.863-1.915-11.237.423-3.38 2.343-5.046 6.325-4.349 10.394 1.068 6.226 1.609 12.677 1.609 19.177 0 37.007-17.791 68.27-38.851 68.27-21.059 0-38.85-31.264-38.85-68.27 0-6.505.541-12.957 1.609-19.177.698-4.068-.969-8.051-4.348-10.394-1.799-1.247-3.863-1.875-5.937-1.875-1.816 0-3.64.482-5.3 1.451-3.547 2.071-7.249 4.036-11.003 5.842-40.853 19.654-79.147 17.456-87.964 3.189-2.345-3.793-2.722-8.491-1.123-13.964 4.727-16.169 24.828-34.816 51.21-47.508 3.336-1.604 6.768-3.111 10.199-4.478 3.394-1.352 5.792-4.306 6.417-7.903.628-3.622-.646-7.238-3.409-9.675-.015-.014-.031-.026-.046-.04-.001-.002-.003-.003-.005-.005-20.471-18.065-33.696-40.337-33.696-56.746 0-6.242 1.937-11.115 5.755-14.483 13.431-11.847 50.223-4.768 83.583 24.663 9.792 8.639 18.084 18.33 23.98 28.028 1.916 3.15 5.253 5.031 8.929 5.031 3.675 0 7.013-1.881 8.928-5.031 5.896-9.698 14.188-19.391 23.98-28.028 33.358-29.429 70.15-36.51 83.582-24.663 3.818 3.368 5.755 8.241 5.755 14.483 0 16.414-13.232 38.693-33.712 56.76-.019.017-.038.034-.057.051-2.748 2.436-4.015 6.043-3.388 9.655.625 3.599 3.024 6.553 6.416 7.902 3.434 1.368 6.866 2.875 10.2 4.479 26.383 12.691 46.483 31.339 51.211 47.508 1.602 5.472 1.224 10.171-1.121 13.964zm-53.35-72.299c-.009.008-.018.016-.026.024v-.001z"/></g></g></svg>