<svg id="Filled_Expand" height="512" viewBox="0 0 64 64" width="512" xmlns="http://www.w3.org/2000/svg" data-name="Filled Expand"><path d="m40 59a22 22 0 1 0 -8-42.493 22 22 0 1 0 -8 42.493z" fill="#f55a8c"/><path d="m47.3 23.561a13.532 13.532 0 0 0 -11.435-12.248 24.019 24.019 0 0 0 -7.73 0 13.532 13.532 0 0 0 -11.435 12.248c-.014.19-.018.3-.018.3s6.123.867 10.357-2.21c.361 5.216 4.961 9.349 4.961 9.349s4.6-4.133 4.964-9.354c4.234 3.077 10.357 2.21 10.357 2.21s-.004-.105-.021-.295z" fill="#82fa96"/><path d="m44.409 13.669a15.594 15.594 0 0 0 -8.263-4.083c-.107-.018-.215-.03-.323-.046a8.231 8.231 0 0 1 6.177-2.79 1.75 1.75 0 0 0 0-3.5 11.758 11.758 0 0 0 -10.245 6.007 25.746 25.746 0 0 0 -3.9.329 15.6 15.6 0 0 0 -8.262 4.083 23.747 23.747 0 0 0 4.407 47.081h16a23.747 23.747 0 0 0 4.409-47.081zm-15.993-.628c.676-.11 1.358-.186 2.042-.233a11.737 11.737 0 0 0 -.208 2.192 1.75 1.75 0 0 0 3.5 0 8.211 8.211 0 0 1 .287-2.152c.517.047 1.033.109 1.546.193a11.809 11.809 0 0 1 9.77 9.175h-.042a12.809 12.809 0 0 1 -7.317-1.986 1.752 1.752 0 0 0 -2.775 1.294 12.861 12.861 0 0 1 -3.219 6.925 12.858 12.858 0 0 1 -3.219-6.925 1.747 1.747 0 0 0 -1.007-1.463 1.73 1.73 0 0 0 -.739-.165 1.76 1.76 0 0 0 -1.029.334 12.807 12.807 0 0 1 -7.317 1.986h-.042a11.809 11.809 0 0 1 9.769-9.175zm11.584 44.209a20.115 20.115 0 0 1 -14.319-5.931 1.75 1.75 0 0 0 -2.475 2.475 23.962 23.962 0 0 0 4.376 3.456h-3.582a20.258 20.258 0 0 1 -7.7-38.99 14.933 14.933 0 0 0 -1.344 5.176c-.016.228-.021.354-.021.354a1.752 1.752 0 0 0 1.5 1.8 19.194 19.194 0 0 0 9.333-1.22 19.215 19.215 0 0 0 5.062 7.93 1.752 1.752 0 0 0 2.34 0 19.215 19.215 0 0 0 5.063-7.934 19.2 19.2 0 0 0 9.333 1.22 1.752 1.752 0 0 0 1.5-1.8s-.005-.126-.021-.354a14.922 14.922 0 0 0 -1.343-5.17 20.258 20.258 0 0 1 -7.702 38.988z"/></svg>