<svg id="Layer_1" enable-background="new 0 0 512 512" viewBox="0 0 512 512" xmlns="http://www.w3.org/2000/svg"><g clip-rule="evenodd" fill-rule="evenodd"><ellipse cx="256" cy="314.828" fill="#ff5a5a" rx="209.277" ry="166.172"/><path d="m129.253 182.587c22.84 4.994 38.529 3.806 54.903 2.286-14.115 10.068-28.691 19.23-43.728 39.981 32.41-2.498 56.565-6.872 72.465-13.119-6.884 18.817-13.131 34.852-18.741 48.102 26.774-3.101 53.846-14.555 63.72-29.361 19.608 25.708 35.197 35.499 44.98 37.796 6.149-20.209 1.776-35.827-3.122-50.29 25.045 16.11 42.743 24.44 53.099 24.989-1.131-18.909-3.632-34.318-7.497-46.228 15.55 2.163 33.211-2.074 52.992-3.744-31.276-29.737-70.643-43.503-120.999-48.839 3.384-41.369 10.876-88.31-11.874-113.16-8.6 3.093-15.97 9.065-21.635 17.061 20.658 18.63 15.329 74.331 10.705 95.787-46.319-2.008-93.668 12.929-125.268 38.739z" fill="#a5dc69"/><path d="m208.732 444.04c-.656 2.14-2.669 3.521-4.776 3.521-.515 0-.983-.07-1.498-.229-55.111-17.091-97.299-52.653-115.654-97.571-1.077-2.552.14-5.469 2.716-6.523 2.529-1.039 5.479.183 6.509 2.73 17.278 42.15 57.125 75.611 109.426 91.811 2.621.82 4.073 3.62 3.277 6.261zm47.245 31.962c112.657 0 204.291-72.3 204.291-161.171 0-43.911-23.084-86.333-63.446-116.67-5.479.515-10.816 1.199-16.014 1.873-10.02 1.302-19.572 2.543-28.656 2.276 2.809 11.111 4.729 24.648 5.666 40.367.094 1.419-.421 2.809-1.451 3.821-.983 1.011-2.388 1.55-3.793 1.47-9.646-.511-24.161-6.654-44.248-18.729 2.95 11.851 4.027 24.934-.702 40.493-.655 2.144-2.622 3.544-4.776 3.544-.375 0-.749-.042-1.124-.131-7.538-1.77-22.944-8.662-43.921-34.635-13.86 14.679-40.689 23.702-63.071 26.301-1.779.197-3.512-.548-4.589-1.971-1.077-1.424-1.264-3.31-.609-4.949 4.542-10.755 9.599-23.529 15.03-38.072-15.826 4.617-37.178 7.979-63.774 10.025-1.92.15-3.792-.843-4.729-2.543-.936-1.7-.843-3.797.328-5.375 10.442-14.408 20.603-23.384 30.529-30.833-11.144.375-22.569-.262-36.71-3.189-49.914 30.819-78.476 76.983-78.476 126.929.001 88.869 91.634 161.169 204.245 161.169zm-1.686-327.156c2.481.108 4.589-1.559 5.104-3.942 4.261-19.82 10.441-73.855-8.99-97.182 3.933-4.678 8.522-8.311 13.579-10.699 16.154 20.93 12.83 57.274 9.599 92.477-.422 4.696-.843 9.552-1.264 14.258-.187 2.706 1.779 5.09 4.495 5.375 47.994 5.09 82.362 17.573 109.707 40.09-2.388.295-4.729.595-7.023.894-12.08 1.574-23.505 3.062-33.479 1.676-1.686-.234-3.418.421-4.542 1.742-1.077 1.32-1.451 3.113-.889 4.753 3.278 10.123 5.572 23.117 6.789 38.69-8.007-2.144-21.679-8.222-44.95-23.196-1.779-1.152-4.12-1.044-5.759.262-1.685 1.306-2.341 3.531-1.685 5.544 4.401 12.989 8.007 26.043 4.401 42.235-7.305-3.198-20.274-11.711-37.552-34.378-.936-1.241-2.388-1.966-3.98-1.966-.047 0-.094 0-.141.005-1.592.052-3.09.88-4.027 2.224-7.632 11.5-28.141 21.633-51.506 25.889 4.729-11.584 9.88-25.041 15.405-40.142.702-1.845.234-3.919-1.217-5.291-1.405-1.376-3.465-1.798-5.291-1.077-13.485 5.286-33.479 9.243-59.56 11.79 10.629-12.371 21.117-19.759 31.325-26.947 1.405-.993 2.809-1.985 4.214-2.983 1.826-1.311 2.575-3.694 1.779-5.811-.796-2.121-2.903-3.451-5.151-3.235-14.562 1.348-26.736 2.135-42.282-.159 30.435-20.946 72.576-32.647 112.891-30.896zm197.314 95.951c-11.846-21.089-28.656-39.772-49.961-55.542-29.452-27.911-66.255-43.284-118.932-49.52.281-3.114.562-6.251.843-9.323 3.559-38.896 7.258-79.118-14.422-102.787-1.358-1.489-3.465-2.009-5.385-1.33-9.365 3.367-17.652 9.889-24.02 18.879-1.452 2.065-1.124 4.902.749 6.602 17.184 15.498 14.421 62.678 9.973 86.937-45.981-1.002-92.102 13.747-124.176 39.851-25.566 15.55-46.777 35.806-61.292 58.609-15.452 24.184-23.271 50.312-23.271 77.657 0 45.939 22.429 89.058 63.212 121.418 40.409 32.083 94.069 49.75 151.053 49.75 57.031 0 110.691-17.667 151.1-49.75 40.736-32.36 63.212-75.479 63.212-121.418 0-24.394-6.321-47.956-18.683-70.033z"/></g></svg>