<svg id="Layer_1" enable-background="new 0 0 512 512" height="512" viewBox="0 0 512 512" width="512" xmlns="http://www.w3.org/2000/svg"><g><path d="m382.1 90.46c-3.439-6.76-9.43-11.87-16.649-14.21l-152.6-49.32c-7.22-2.33-15.07-1.69-21.81 1.78s-11.83 9.48-14.13 16.71c-.56 1.76-13.71 43.53-17.14 89.2-2.15 28.57-.03 53.07 6.29 72.83 7.16 22.38 18.9 36.59 31.09 45.62l-70.351 217.64 48.69 15.74 70.34-217.641c15.18-.189 33.01-4.85 51.91-18.8 16.689-12.32 32.75-30.95 47.729-55.37 23.95-39.04 37.73-80.61 38.3-82.36 2.371-7.209 1.771-15.059-1.669-21.819zm-151.91 143.55c-71.97-23.27-23.71-175.02-23.71-175.02l145.38 46.99s-49.69 151.29-121.67 128.03z" fill="#66bc6a"/><path d="m175.49 494.45c-.828 0-1.658-.129-2.461-.388l-48.69-15.74c-4.204-1.359-6.51-5.869-5.151-10.073l68.646-212.368c-13.387-11.387-23.262-26.832-29.393-45.994-6.638-20.754-8.875-46.28-6.648-75.868 3.503-46.645 16.925-89.235 17.494-91.025 2.921-9.182 9.515-16.981 18.091-21.397 8.532-4.393 18.789-5.23 27.929-2.28l152.603 49.321c9.316 3.02 16.886 9.48 21.319 18.194 4.438 8.719 5.197 18.645 2.14 27.946-.133.41-14.374 43.773-39.08 84.045-15.52 25.3-32.273 44.687-49.798 57.623-16.19 11.95-33.237 18.694-50.752 20.095l-68.636 212.369c-.652 2.02-2.081 3.696-3.97 4.662-1.138.583-2.388.878-3.643.878zm-38.617-28.891 33.466 10.818 67.879-210.027c1.056-3.268 4.079-5.497 7.513-5.539 16.136-.202 32.035-6.001 47.259-17.237 15.86-11.708 31.223-29.579 45.661-53.116 23.727-38.676 37.376-80.237 37.512-80.652 1.725-5.248 1.299-10.821-1.192-15.716-2.492-4.898-6.749-8.531-11.986-10.228l-152.595-49.32c-5.128-1.655-10.897-1.186-15.688 1.28-4.821 2.482-8.527 6.864-10.168 12.022-.546 1.718-13.421 42.575-16.786 87.375-2.071 27.527-.076 51.009 5.932 69.794 5.764 18.015 15.262 32.021 28.232 41.628 2.76 2.044 3.907 5.621 2.851 8.889zm108.381-221.118c-5.839 0-11.735-.948-17.524-2.819-78.642-25.427-30.943-178.55-28.874-185.056.645-2.028 2.072-3.716 3.964-4.689s4.096-1.152 6.12-.499l145.381 46.99c2.024.655 3.705 2.089 4.67 3.986s1.134 4.101.47 6.123c-.448 1.363-11.185 33.768-30.055 66.71-26.322 45.954-54.635 69.254-84.152 69.254zm-33.392-175.304c-3.585 13.005-10.418 40.679-12.556 69.474-1.68 22.63-.177 41.435 4.467 55.893 5.44 16.937 14.886 27.37 28.877 31.894 4.196 1.355 8.437 2.043 12.603 2.043 29.101 0 54.275-33.285 70.27-61.207 12.787-22.324 21.814-44.819 26.037-56.176z"/></g></svg>