<svg id="Fill" viewBox="0 0 64 64" xmlns="http://www.w3.org/2000/svg"><g><path d="m57.464 14.61c.6.6.6 1.59 0 2.19l-10.55 10.55c-.23.22-.51.37-.82.43l-6.62 1.21c-.34.06-.64.23-.87.48l-12.96 14.28-3.48-3.47 14.37-13.65c.22-.21.5-.35.79-.4l7.26-1.33c.31-.05.6-.2.82-.43l.52-.52 2.34-2.33 2.33-2.34 2.34-2.34 2.33-2.33c.61-.61 1.59-.61 2.2 0z" fill="#51a3bf"/><path d="m50.764 10.1 4.5 4.51-2.33 2.33-4.13-4.13.05-.05.89-.88c.51-.51.85-1.13 1.02-1.78z" fill="#ffeabf"/><path d="m48.045 13.125h3.309v5.841h-3.309z" fill="#ffd37d" transform="matrix(.707 -.707 .707 .707 3.211 39.842)"/><path d="m49.744 6.28c1.03 1.04 1.37 2.51 1.02 3.82-.17.65-.51 1.27-1.02 1.78l-.89.88-.05.05-2.34 2.34-2.33 2.34-1.85 1.84c-.17.17-.37.31-.58.4-.73.34-1.62.21-2.22-.4-.77-.77-.77-2.02 0-2.79l6.57-6.57c.97-.97 1.33-2.38.96-3.69l-.45-1.59c-.17-.6.56-1.03.99-.59z" fill="#f37576"/><path d="m50.594 19.28-2.33 2.34-4.13-4.13 2.33-2.34z" fill="#ffeabf"/><path d="m48.264 21.62-2.34 2.33-4.22-4.22c.21-.09.41-.23.58-.4l1.85-1.84z" fill="#ffd37d"/><path d="m25.644 43.75-2.4 2.65-3.66-3.67 2.58-2.45z" fill="#3f7a94"/><path d="m19.584 42.73 3.66 3.67-7.52 8.29c-1.16 1.27-3.14 1.32-4.36.1-1.19-1.19-1.17-3.14.06-4.3z" fill="#51a3bf"/></g><path d="m58.172 13.904c-.72-.721-1.831-.904-2.751-.554l-3.574-3.582c.212-1.521-.295-3.084-1.396-4.197l-2.182-2.172c-.516-.527-1.293-.634-1.931-.263-.644.373-.939 1.107-.735 1.826l.45 1.589c.272.965.002 2.004-.705 2.711l-6.57 6.569c-.562.562-.871 1.309-.871 2.103s.31 1.541.865 2.097c.569.579 1.34.885 2.113.885.179 0 .357-.024.534-.057l3.034 3.034c-.02.005-.028.021-.05.025l-7.248 1.328c-.486.083-.952.318-1.31.66l-14.373 13.658c-.005.005-.012.006-.017.011-.004.004-.005.009-.009.013l-2.547 2.42c-.007.006-.016.008-.022.015-.005.005-.007.012-.012.018l-8.127 7.723c-.791.745-1.235 1.756-1.252 2.845-.017 1.092.399 2.118 1.17 2.89.762.762 1.766 1.178 2.836 1.178h.093c1.106-.025 2.129-.49 2.879-1.312l22.876-25.217c.085-.092.188-.149.313-.172l6.633-1.212c.494-.097.95-.336 1.334-.705l10.549-10.549c.48-.479.744-1.119.744-1.803s-.264-1.323-.742-1.801zm-5.237 1.622-2.711-2.712.228-.227c.234-.234.434-.496.615-.769l2.785 2.792-.917.917zm-7.01 7.01-2.716-2.715.922-.921 2.715 2.715zm2.335-2.335-2.714-2.714.921-.92 2.714 2.713zm2.335-2.335-2.713-2.713.927-.926 2.712 2.713zm-10.688.068c0-.26.102-.504.285-.688l6.57-6.57c1.219-1.219 1.685-3.008 1.215-4.669l-.03-.106 1.088 1.083c.742.749 1.035 1.844.765 2.857 0 .002 0 .003-.002.005-.131.501-.394.96-.756 1.322l-.918.917c-.008.007-.018.009-.026.017s-.01.018-.017.025l-2.308 2.305s-.011.006-.016.011-.006.011-.011.016l-4.169 4.163c-.083.083-.179.15-.295.201-.373.174-.798.097-1.091-.201-.184-.184-.285-.429-.285-.688zm-16.698 27.014-2.19-2.195 1.131-1.075 2.113 2.107-1.055 1.164zm-8.222 9.067c-.376.412-.89.646-1.445.658-.556.021-1.075-.196-1.47-.591-.385-.386-.593-.898-.584-1.445.008-.544.229-1.048.627-1.423l7.454-7.084 2.295 2.301zm41.77-37.922-10.536 10.536c-.093.09-.2.146-.306.168l-6.613 1.208c-.554.098-1.05.37-1.438.793l-12.256 13.504-2.008-2.002 13.625-12.947c.074-.07.172-.12.28-.139l7.24-1.326c.526-.087 1.018-.345 1.365-.71l.519-.519s.002-.001.003-.002 0-.002.002-.003l2.307-2.307c.009-.009.022-.011.031-.021s.012-.022.021-.031l2.308-2.308s0 0 .001 0 0 0 0-.001l2.338-2.338s0 0 0 0l2.329-2.328.002-.002c.105-.105.245-.164.392-.164s.286.059.394.166c.136.136.156.301.156.387s-.021.251-.157.388z"/></svg>