<svg height="512" viewBox="0 0 64 64" width="512" xmlns="http://www.w3.org/2000/svg"><g id="Tooth_brush" data-name="Tooth brush"><path d="m63 51v5h-16v-5a2 2 0 0 1 4 0 2 2 0 0 1 4 0 2 2 0 0 1 4 0 2 2 0 0 1 4 0z" fill="#ebeeff"/><path d="m49 49a2 2 0 0 1 2 2v5a0 0 0 0 1 0 0h-4a0 0 0 0 1 0 0v-5a2 2 0 0 1 2-2z" fill="#d7dfff"/><path d="m57 49a2 2 0 0 1 2 2v5a0 0 0 0 1 0 0h-4a0 0 0 0 1 0 0v-5a2 2 0 0 1 2-2z" fill="#d7dfff"/><path d="m6 4a4.34 4.34 0 0 0 3.988 4.307l35.012 2.693 7.02 8h4.98v8h-4.98l-7.02 8-35.012 2.693a4.34 4.34 0 0 0 -3.988 4.307z" fill="#4878d8"/><path d="m6 4a4.34 4.34 0 0 0 3.988 4.307l35.012 2.693v24l-35.012 2.693a4.34 4.34 0 0 0 -3.988 4.307z" fill="#609aef"/><path d="m1 4h5v38h-5z" fill="#4878d8"/><rect fill="#609aef" height="14" rx="1" width="6" x="57" y="16"/><ellipse cx="25" cy="23" fill="#4878d8" rx="9" ry="7"/><path d="m42.829 60a3.975 3.975 0 0 1 -2.829-1.172l-4.828-4.828h-11.172v-4h11.171a4.028 4.028 0 0 1 2.829 1.172l4.828 4.828h20.172v3a1 1 0 0 1 -1 1z" fill="#609aef"/><path d="m1 49h23v6h-23z" fill="#4878d8"/><g fill="#352d34"><path d="m61 48a2.981 2.981 0 0 0 -2 .78 2.954 2.954 0 0 0 -4 0 2.954 2.954 0 0 0 -4 0 2.987 2.987 0 0 0 -5 2.22v4h-2.758l-4.535-4.535a4.969 4.969 0 0 0 -3.536-1.465h-10.171a1 1 0 0 0 -1-1h-23a1 1 0 0 0 -1 1v6a1 1 0 0 0 1 1h23a1 1 0 0 0 1-1h9.758l4.535 4.535a4.969 4.969 0 0 0 3.536 1.465h19.171a2 2 0 0 0 2-2v-8a3 3 0 0 0 -3-3zm0 2a1 1 0 0 1 1 1v4h-2v-4a1 1 0 0 1 1-1zm-4 0a1 1 0 0 1 1 1v4h-2v-4a1 1 0 0 1 1-1zm-4 0a1 1 0 0 1 1 1v4h-2v-4a1 1 0 0 1 1-1zm-5 1a1 1 0 0 1 2 0v4h-2zm-46 3v-4h21v4zm40.829 5a2.98 2.98 0 0 1 -2.122-.879l-4.828-4.828a1 1 0 0 0 -.707-.293h-10.172v-2h10.171a2.984 2.984 0 0 1 2.122.879l4.828 4.828a1 1 0 0 0 .707.293h19.172v2z"/><path d="m62 15h-4a2 2 0 0 0 -2 2v1h-3.546l-6.7-7.658a1.3 1.3 0 0 0 -.677-.342l-35.013-2.69a3.335 3.335 0 0 1 -3.064-3.31 1 1 0 0 0 -1-1h-5a1 1 0 0 0 -1 1v38a1 1 0 0 0 1 1h5a1 1 0 0 0 1-1 3.335 3.335 0 0 1 3.065-3.31l35.012-2.69a1.1 1.1 0 0 0 .676-.339l6.701-7.661h3.546v1a2 2 0 0 0 2 2h4a2 2 0 0 0 2-2v-12a2 2 0 0 0 -2-2zm-60-10h3v36h-3zm7.912 31.7a5.277 5.277 0 0 0 -2.912 1.154v-29.708a5.276 5.276 0 0 0 2.911 1.154l34.089 2.626v22.148zm42.088-10.7a1 1 0 0 0 -.753.342l-5.247 6v-18.681l5.247 6a1 1 0 0 0 .753.339h4v6zm10 3h-4v-12h4z"/><path d="m25 15c-5.514 0-10 3.589-10 8s4.486 8 10 8 10-3.589 10-8-4.486-8-10-8zm0 14c-4.411 0-8-2.691-8-6s3.589-6 8-6 8 2.691 8 6-3.589 6-8 6z"/></g></g></svg>