<svg id="Layer_1" enable-background="new 0 0 512 512" height="512" viewBox="0 0 512 512" width="512" xmlns="http://www.w3.org/2000/svg"><g><path d="m275.173 147.926-55.324 23.067-49.16-117.909 54.982-22.924 1.34 6.986 10.783 15.736 3.589 18.736 10.784 15.735 3.592 18.745 10.784 15.735 3.592 18.745z" fill="#fff3e1"/><path d="m219.853 178.995c-3.133 0-6.106-1.852-7.387-4.923l-49.16-117.908c-1.7-4.078.227-8.762 4.305-10.462l54.982-22.924c2.222-.927 4.743-.803 6.866.337 2.121 1.14 3.616 3.175 4.069 5.541l1.025 5.344 9.84 14.359c.623.909 1.051 1.936 1.258 3.018l3.274 17.095 9.84 14.357c.622.908 1.051 1.935 1.258 3.017l3.278 17.105 9.84 14.358c.623.908 1.051 1.936 1.259 3.017l3.277 17.104 4.093 5.97c1.362 1.987 1.757 4.481 1.074 6.792s-2.37 4.189-4.593 5.116l-55.324 23.066c-1.005.422-2.049.621-3.074.621zm-38.702-121.605 43.003 103.141 38.904-16.221c-.368-.698-.632-1.448-.781-2.226l-3.277-17.106-9.84-14.358c-.623-.908-1.051-1.935-1.258-3.017l-3.279-17.105-9.84-14.358c-.623-.909-1.051-1.936-1.258-3.018l-3.274-17.095-9.84-14.359c-.115-.167-.222-.338-.324-.512z"/></g><g><path d="m379.216 455.853-76.721-184.012-21.63-51.879-17.962-12.647-39.517-27.839-16.74-40.15-39.276-94.201c-3.992-9.573-14.97-14.106-24.521-10.125-9.551 3.982-14.058 14.972-10.066 24.545l17.767 42.611 21.509 51.589 5.45 13.072 15.477 37.121 3.944 2.778 53.531 37.699 94.167 225.857c3.993 9.572 14.971 14.104 24.521 10.123 9.552-3.982 14.059-14.971 10.067-24.542z" fill="#95c8ec"/><path d="m361.964 489.84c-.001 0-.001 0-.002 0-10.837 0-20.538-6.472-24.716-16.487l-93.279-223.727-55.587-39.148c-1.233-.869-2.196-2.069-2.777-3.461l-60.203-144.393c-5.683-13.63.765-29.334 14.372-35.008 3.28-1.367 6.733-2.061 10.266-2.061 10.838 0 20.54 6.473 24.717 16.49l55.127 132.22 55.589 39.155c1.234.869 2.197 2.069 2.778 3.462l98.351 235.892c2.752 6.597 2.774 13.871.063 20.481-2.713 6.615-7.839 11.773-14.434 14.523-3.28 1.368-6.734 2.062-10.265 2.062zm-162.482-291.112 55.587 39.146c1.234.869 2.197 2.069 2.778 3.462l94.166 225.858c1.684 4.036 5.59 6.646 9.95 6.646 1.408 0 2.791-.278 4.109-.828 2.643-1.103 4.698-3.172 5.788-5.827 1.091-2.662 1.081-5.593-.028-8.252l-97.462-233.76-55.591-39.157c-1.233-.869-2.196-2.069-2.776-3.461l-56.016-134.352c-1.684-4.038-5.589-6.647-9.949-6.647-1.408 0-2.791.279-4.109.829-5.463 2.278-8.048 8.596-5.761 14.083z"/></g><g><path d="m219.207 88.867c-3.133 0-6.106-1.852-7.387-4.923-1.7-4.078.227-8.762 4.305-10.462l22.179-9.247c4.081-1.7 8.763.228 10.462 4.305 1.7 4.078-.227 8.762-4.305 10.462l-22.179 9.247c-1.006.419-2.049.618-3.075.618z"/></g><g><path d="m229.978 145.082c-3.133 0-6.106-1.852-7.387-4.923-1.7-4.078.227-8.762 4.305-10.462l36.569-15.247c4.076-1.698 8.763.227 10.462 4.305 1.7 4.078-.228 8.762-4.306 10.462l-36.568 15.247c-1.006.419-2.049.618-3.075.618z"/></g></svg>