<svg id="Layer_1" enable-background="new 0 0 512 512" viewBox="0 0 512 512" xmlns="http://www.w3.org/2000/svg"><g><path d="m446.141 162.068h33.779v187.863h-33.779z" fill="#fdb732"/></g><g><path d="m479.92 357.93h-33.78c-4.418 0-8-3.582-8-8v-187.86c0-4.418 3.582-8 8-8h33.78c4.418 0 8 3.582 8 8v27.19c0 4.418-3.582 8-8 8s-8-3.582-8-8v-19.19h-17.78v171.86h17.78v-112.67c0-4.418 3.582-8 8-8s8 3.582 8 8v120.67c0 4.418-3.582 8-8 8z"/></g><g><g><path d="m360.954 330.735 85.187 19.197v-187.864l-85.187 19.197z" fill="#faa41a"/></g><g><path d="m446.141 357.932c-.587 0-1.176-.064-1.759-.195l-85.186-19.196c-3.649-.822-6.241-4.064-6.241-7.805v-149.471c0-3.741 2.592-6.982 6.241-7.804l85.186-19.196c2.371-.535 4.858.038 6.755 1.557 1.898 1.518 3.004 3.817 3.004 6.248v187.863c0 2.431-1.105 4.729-3.004 6.248-1.432 1.143-3.198 1.751-4.996 1.751zm-77.187-33.594 69.186 15.591v-167.857l-69.186 15.591z"/></g></g><g><path d="m97.319 181.265c-36.031 0-65.239 33.46-65.239 74.735 0 41.276 29.208 74.735 65.239 74.735h263.635v-149.47z" fill="#fdb732"/></g><g><path d="m360.95 338.74h-204.36c-4.418 0-8-3.582-8-8s3.582-8 8-8h196.36v-133.48h-255.63c-31.562 0-57.24 29.939-57.24 66.74s25.678 66.74 57.24 66.74h19.27c4.418 0 8 3.582 8 8s-3.582 8-8 8h-19.27c-40.385 0-73.24-37.117-73.24-82.74s32.855-82.74 73.24-82.74h263.63c4.418 0 8 3.582 8 8v149.48c0 4.418-3.582 8-8 8z"/></g><g><g><path d="m283 256c0 9.39-7.609 17-17 17h-47c-.08 0-.17 0-.25-.01-9.27-.13-16.75-7.68-16.75-16.99 0-4.7 1.9-8.94 4.98-12.02 3.03-3.03 7.17-4.91 11.77-4.97.08-.01.17-.01.25-.01h47c9.391 0 17 7.61 17 17z" fill="#e6e6e6"/></g><g><path d="m266 281h-47c-.119 0-.335 0-.612-.016-13.471-.323-24.388-11.479-24.388-24.984 0-6.677 2.601-12.955 7.323-17.677 4.571-4.571 10.625-7.161 17.071-7.308.274-.015.488-.015.606-.015h47c13.785 0 25 11.215 25 25s-11.215 25-25 25zm-46.855-16h46.855c4.963 0 9-4.037 9-9 0-4.962-4.037-9-9-9h-46.855c-.097.005-.193.008-.291.009-2.346.03-4.554.964-6.218 2.627-1.7 1.701-2.637 3.96-2.637 6.363 0 4.89 3.976 8.923 8.862 8.991.095.002.19.005.284.01z"/></g></g><g><g><path d="m235.5 256c0 9.31-7.48 16.86-16.75 16.99-9.27-.13-16.75-7.68-16.75-16.99 0-4.7 1.9-8.94 4.98-12.02 3.03-3.03 7.17-4.91 11.77-4.97 9.27.13 16.75 7.68 16.75 16.99z" fill="#808080"/></g><g><path d="m218.75 280.99c-.038 0-.075 0-.112-.001-13.585-.19-24.638-11.4-24.638-24.989 0-6.677 2.601-12.955 7.323-17.677 4.63-4.63 10.782-7.227 17.322-7.313.071-.002.145-.001.217 0 13.586.192 24.638 11.402 24.638 24.99 0 13.589-11.053 24.799-24.638 24.989-.037.001-.074.001-.112.001zm-.004-33.979c-2.305.058-4.471.987-6.109 2.626-1.7 1.701-2.637 3.96-2.637 6.363 0 4.852 3.915 8.861 8.75 8.988 4.835-.127 8.75-4.137 8.75-8.988 0-4.853-3.918-8.863-8.754-8.989z"/></g></g></svg>