<svg id="Layer_1" viewBox="0 0 1000 1000" xmlns="http://www.w3.org/2000/svg" data-name="Layer 1"><path d="m611.64 582.17-123.93 17.15-51.34-51.23-47.04-47.04 16.49-124.26z" fill="#ff9100"/><path d="m695.53 562.62a2.19 2.19 0 0 1 -1.68 1.68l-43.5 11.29-238.17-237.65 11.06-43.74a2.22 2.22 0 0 1 1.66-1.71 2.62 2.62 0 0 1 .7-.1 2.2 2.2 0 0 1 1.6.72l267.69 267.11a2.29 2.29 0 0 1 .64 2.4z" fill="#bdbdbd"/><path d="m839.24 182.55c-7 38.76-7 83.64-5.84 114.46 1.54 39.68-13.06 77.91-40 104.87-1 1-1.93 1.92-2.9 2.84-33.22 31.61-81.08 45.26-128 36.52-33.2-6.19-60.87-19.93-82.5-40.94-.12-.11-.24-.22-.35-.34-.77-.75-1.54-1.52-2.29-2.29l-.13-.13q-4.65-4.76-8.9-10c-15.75-19.38-21.94-37.3-23-40.57-12.53-70.63 5.77-126.9 54.4-167.26a208.56 208.56 0 0 1 41.14-26.38c-2.84 13.91-3.17 31.33.72 53.13a278.08 278.08 0 0 0 17.55 58.12 16 16 0 0 0 14.61 9.48h.12a16 16 0 0 0 14.59-9.69c22-51.26 64.07-89.87 125.11-114.77a336.53 336.53 0 0 1 39.39-13.23q-8.79 18.94-13.72 46.18z" fill="#ef6c00"/><path d="m457.78 614.76-333.68 257a5 5 0 0 1 -7.1-7.06l257-333.62 39.53 39.44z" fill="#6d4c41"/><g fill="#fff" opacity=".5"><path d="m601.64 592.17-123.93 17.15-51.34-51.23-47.04-47.04 16.49-124.26z"/><path d="m685.53 572.62a2.19 2.19 0 0 1 -1.68 1.68l-43.5 11.29-238.17-237.65 11.06-43.74a2.22 2.22 0 0 1 1.66-1.71 2.62 2.62 0 0 1 .7-.1 2.2 2.2 0 0 1 1.6.72l267.69 267.11a2.29 2.29 0 0 1 .64 2.4z"/><path d="m829.24 192.55c-7 38.76-7 83.64-5.84 114.46 1.54 39.68-13.06 77.91-40 104.87-1 1-1.93 1.92-2.9 2.84-33.22 31.61-81.08 45.26-128 36.52-33.2-6.19-60.87-19.93-82.5-40.94-.12-.11-.24-.22-.35-.34-.77-.75-1.54-1.52-2.29-2.29l-.13-.13q-4.65-4.76-8.9-10c-15.75-19.38-21.94-37.3-23-40.57-12.53-70.63 5.77-126.9 54.4-167.26a208.56 208.56 0 0 1 41.14-26.38c-2.84 13.91-3.17 31.33.72 53.13a278.08 278.08 0 0 0 17.55 58.12 16 16 0 0 0 14.61 9.48h.12a16 16 0 0 0 14.59-9.69c22-51.26 64.07-89.87 125.11-114.77a336.53 336.53 0 0 1 39.39-13.23q-8.79 18.94-13.72 46.18z"/><path d="m447.78 624.76-333.68 257a5 5 0 0 1 -7.1-7.06l257-333.62 39.53 39.44z"/></g><g fill="#413b32"><path d="m657.05 582.28-6.7-6.69-238.17-237.65-6.67-6.66a16 16 0 0 0 -25.81 4.6 15.71 15.71 0 0 0 -1.34 4.61l-21.24 160.07-.56 4.22a16 16 0 0 0 4.56 13.43l12.88 12.87 39.53 39.44 57.19 57.07a16 16 0 0 0 11.3 4.67 16.26 16.26 0 0 0 2.2-.15l4.22-.58 159.49-22.08a15.75 15.75 0 0 0 4.61-1.37 16 16 0 0 0 4.49-25.8zm-169.34 17-51.34-51.23-47.05-46.94v-.1l16.49-124.26 205.83 205.42z"/><path d="m717.5 537.57-66-65.88-71.57-71.39c-.12-.11-.24-.22-.35-.34-.78-.75-1.54-1.51-2.29-2.29l-.13-.13-66.36-66.22-61-60.87a34.35 34.35 0 0 0 -57.58 15.9l-12.52 49.53-.76 3a16 16 0 0 0 4.21 15.25l22.68 22.63 205.81 205.41 22.58 22.53a16 16 0 0 0 11.3 4.67 15.77 15.77 0 0 0 4-.51l3-.78 49.33-12.81a34.43 34.43 0 0 0 15.61-57.7zm-22 25a2.19 2.19 0 0 1 -1.68 1.68l-43.5 11.29-238.14-237.6 11.06-43.74a2.22 2.22 0 0 1 1.66-1.71 2.62 2.62 0 0 1 .7-.1 2.2 2.2 0 0 1 1.6.72l267.69 267.11a2.29 2.29 0 0 1 .64 2.4z"/><path d="m915.79 108.65a16 16 0 0 0 -17-13.41c-1.82.14-45.28 3.68-96.39 24.35-30.24 12.23-56.94 28-79.38 46.79a232.74 232.74 0 0 0 -46.08 51.79c-1.5-5.61-2.88-11.64-4-17.84-3.89-22.17-4.78-51.37 13-64.55a16 16 0 0 0 -13-28.46c-2 .44-49.34 11.4-92.69 47-37.66 30.89-78.64 86.1-69.44 177q1.09 10.77 3.15 22.23a13.86 13.86 0 0 0 .32 1.42c.28 1 7.09 25.09 28.1 51.45 18.67 23.41 52.6 53.4 109.09 65.26q2.52.53 5.1 1a185.09 185.09 0 0 0 33.85 3.13c45.54 0 89.5-16.91 122.09-47.93 1.15-1.1 2.3-2.22 3.46-3.38 33.28-33.25 51.29-80.18 49.41-128.74-1.14-29.24-1.13-71.63 5.35-107.55s18.25-57.81 33.13-61.51a16 16 0 0 0 11.93-18.05zm-76.55 73.9c-7 38.76-7 83.64-5.84 114.46 1.54 39.68-13.06 77.91-40 104.87-1 1-1.93 1.92-2.9 2.84-33.22 31.61-81.08 45.26-128 36.52-33.2-6.19-60.87-19.93-82.5-40.94-.12-.11-.24-.22-.35-.34-.77-.75-1.54-1.52-2.29-2.29l-.13-.13q-4.65-4.76-8.9-10c-15.75-19.38-21.94-37.3-23-40.57-12.53-70.63 5.77-126.9 54.4-167.26a208.56 208.56 0 0 1 41.14-26.38c-2.84 13.91-3.17 31.33.72 53.13a278.08 278.08 0 0 0 17.55 58.12 16 16 0 0 0 14.61 9.48h.12a16 16 0 0 0 14.59-9.69c22-51.26 64.07-89.87 125.11-114.77a336.53 336.53 0 0 1 39.39-13.23q-8.79 18.94-13.72 46.18z"/><path d="m493.28 605-56.91-56.92-52.57-52.56a16 16 0 0 0 -24 1.55l-2.69 3.49-265.42 344.61a37 37 0 0 0 51.94 52l344.82-265.64 3.28-2.53a16 16 0 0 0 1.55-24zm-369.18 266.77a5 5 0 0 1 -7.1-7.07l257-333.62v-.05l83.73 83.73z"/></g></svg>