<svg enable-background="new 0 0 32 32" viewBox="0 0 32 32" xmlns="http://www.w3.org/2000/svg"><g id="Grid" display="none"/><g id="coin"/><g id="bomb"/><g id="gem"/><g id="ufo"/><g id="medal"/><g id="viking_helmet"/><g id="sword"/><g id="rocket"/><g id="torch"><path d="m29.645 4.055c.367.05.495.524.188.731-1.014.683-2.241 2.41-2.04 6.774.336 7.277-8.694 9.77-12.801 4.804-1.943-2.349-2.525-7.121-.22-10.447 1.646-2.376 4.146-3.217 5.73-3.518.385-.073.632.377.375.673-.306.353-.605.822-.788 1.428-.084.277-.132.546-.156.801-.073.79.862 1.248 1.496.771.653-.491 1.471-.988 2.468-1.381 2.204-.866 4.299-.834 5.748-.636z" fill="#e96565"/><path d="m14.996 16.364c-.205-.247-.396-.523-.566-.834 3.91 2.213 9.659.735 10.699-4.759 1.252-6.626 4.405-6.343 4.872-6.258-.014.099-.071.198-.17.269-1.011.686-2.242 2.411-2.036 6.774.332 7.276-8.698 9.772-12.799 4.808z" fill="#e05353"/><path d="m29.999 4.511c-.01.1-.07.2-.17.27-1.01.69-2.24 2.41-2.03 6.77.32 7.06-8.17 9.63-12.42 5.23 1.67 1.41 5.07.5 5.93-.94 1.85-.85 3.34-2.53 3.82-5.07 1.25-6.63 4.41-6.34 4.87-6.26z" fill="#e05353"/><path d="m21.412 15.652c-.704 1.633-4.705 2.722-6.319.859-1.213-1.401-.588-3.906.615-5.28 2.309-2.639 7.12-1.537 7.318-.654.098.438-.982.623-1.5 1.884-.566 1.385.302 2.227-.114 3.191z" fill="#ffd731"/><path d="m21.309 15.841c-.86 1.44-4.26 2.35-5.93.94-.01-.01-.03-.02-.04-.03-.12-.13-.23-.26-.34-.39-.05-.05-.09-.1-.13-.16-.11-.18-.2-.38-.27-.58 2.07 1.1 4.62 1.19 6.71.22z" fill="#ffc933"/><path d="m3.194 29.232-.821-.821c-.454-.454-.508-1.172-.126-1.688l9.196-12.459 5.898 5.898-12.459 9.196c-.517.381-1.235.328-1.688-.126z" fill="#d39a62"/><path d="m17.336 20.161-12.452 9.2c-.516.375-1.23.325-1.69-.134l-.82-.82c-.085-.085-.156-.184-.212-.283.438.24.983.219 1.393-.092l12.459-9.192z" fill="#c68c58"/><path d="m20.728 20.753c-2.729 2.729-7.153 2.729-9.882 0-2.724-2.724-2.724-7.148.005-9.877z" fill="#d7cfc5"/><path d="m20.73 20.755c-2.729 2.729-7.156 2.729-9.885 0-.361-.361-.679-.764-.947-1.174 2.708 1.732 6.343 1.421 8.712-.947z" fill="#c4bcb3"/><path d="m20.674 20.699-9.769-9.769c-.541-.541-.541-1.418 0-1.959.541-.541 1.418-.541 1.959 0l9.769 9.769c.541.541.541 1.418 0 1.959-.541.541-1.418.541-1.959 0z" fill="#f8972c"/><path d="m22.64 20.699c-.544.544-1.421.544-1.966 0l-1.739-1.739c.544.544 1.421.544 1.966 0 .537-.537.537-1.414-.007-1.959l1.739 1.739c.544.544.544 1.421.007 1.959z" fill="#ed8924"/><path d="m30.408 4.282c-.076-.348-.352-.604-.703-.653-2.13-.278-4.138-.055-5.96.666-.915.357-1.78.84-2.574 1.438-.199.154-.432.123-.58.041-.08-.044-.262-.174-.24-.423.028-.238.073-.476.146-.729.14-.474.376-.901.704-1.272.242-.279.279-.663.096-.977-.181-.309-.532-.458-.876-.389-1.807.343-4.313 1.263-6.002 3.697-.609.885-1.033 1.884-1.282 2.967-.688-.656-1.854-.652-2.531.023-.342.342-.53.796-.53 1.28 0 .317.088.618.24.886-1.245 1.367-1.934 3.119-1.935 4.98 0 .552.066 1.093.182 1.62l-6.655 9.035c-.501.685-.431 1.648.162 2.241l.824.823c.337.33.783.499 1.229.499.356 0 .713-.109 1.01-.331l9.031-6.662c.528.118 1.071.185 1.625.185 1.861 0 3.614-.689 4.981-1.935.268.152.569.24.885.24.484 0 .938-.188 1.28-.53.565-.565.67-1.41.33-2.089 3.176-1.101 5.111-3.919 4.95-7.37-.189-4.12.904-5.76 1.846-6.404.284-.186.421-.522.347-.857zm-25.783 24.738c-.34.254-.828.211-1.135-.09l-.82-.819c-.3-.3-.333-.79-.079-1.138l6.276-8.52c.366.964.929 1.85 1.68 2.6.751.751 1.637 1.314 2.6 1.681zm6.522-8.568c-1.238-1.237-1.919-2.883-1.919-4.635.001-1.61.583-3.127 1.637-4.325l9.246 9.247c-1.198 1.054-2.715 1.636-4.325 1.636-1.752 0-3.4-.683-4.639-1.923zm11.185-.053c-.361.362-.996.362-1.357 0l-9.769-9.77c-.182-.181-.281-.422-.281-.679 0-.256.1-.498.281-.679.361-.362.996-.363 1.357 0l9.769 9.769c.375.374.375.984 0 1.359zm5.032-8.818c.179 3.808-2.342 5.929-4.651 6.638l-8.854-8.854c.197-1.187.614-2.266 1.259-3.202 1.522-2.196 3.81-3.031 5.442-3.374-.408.462-.704.998-.88 1.595-.083.288-.14.572-.176.88-.045.519.214 1 .676 1.254.482.264 1.07.221 1.504-.108.729-.549 1.526-.995 2.371-1.324 1.688-.667 3.555-.875 5.533-.656-1.128.771-2.43 2.639-2.224 7.151z"/><path d="m17.855 4.909c-.769.484-1.411 1.096-1.911 1.817-.08.116-.157.234-.228.354-.119.202-.052.463.15.582.068.04.143.059.216.059.146 0 .287-.075.366-.21.061-.102.124-.202.193-.3.435-.628.995-1.161 1.666-1.584.198-.125.258-.388.133-.586-.125-.199-.389-.257-.585-.132z" fill="#ff9292"/><path d="m15.539 8.451c-.225-.065-.461.064-.526.29-.001.005-.028.101-.029.106-.057.225.09.408.313.469.03.008.062.012.092.012.195 0 .385-.157.44-.35.065-.225-.065-.461-.29-.527z" fill="#ff9292"/><path d="m11.076 13.737c-.221-.074-.464.041-.54.263-.201.582-.304 1.189-.305 1.807-.001.235.189.426.424.426h.001c.234 0 .425-.189.425-.424.001-.523.088-1.039.258-1.531.077-.223-.041-.465-.263-.541z" fill="#eae8e5"/></g><g id="spear"/><g id="money_bag"/><g id="crown"/><g id="heart"/><g id="skull"/><g id="star"/><g id="shield"/><g id="crystal"/><g id="gift"/><g id="map"/><g id="poison"/><g id="axe"/><g id="fried_chicken"/><g id="witch_hat"/><g id="fire"/><g id="lightning"/></svg>