<svg id="Layer_1" viewBox="0 0 1000 1000" xmlns="http://www.w3.org/2000/svg" data-name="Layer 1"><path d="m875.72 184.88v-.07c-.54-33.7-55.16-55.06-101-67.07-62.16-16.28-144.66-25.24-232.31-25.24s-170.15 9-232.3 25.24c-45.2 11.84-98.91 32.76-101 65.63 0 .64-.06 1.28-.06 1.93 0 11.69 6.49 21.9 16.89 30.76 19.84 16.91 53.89 28.9 84.13 36.82 62.15 16.28 144.64 25.24 232.3 25.24s170.15-9 232.29-25.24c31.45-8.24 67-20.87 86.45-38.88 9-8.37 14.58-17.91 14.58-28.71.04-.12.04-.29.03-.41zm-333.31 78.27c-187.6 0-318.33-41-318.33-77.83s130.73-77.82 318.33-77.82 318.3 41 318.32 77.81c0 36.82-130.73 77.84-318.32 77.84z"/><path d="m860.73 185.31c0 36.81-130.73 77.83-318.32 77.83s-318.33-41-318.33-77.83 130.73-77.81 318.33-77.81 318.3 41 318.32 77.81z" fill="#e3f2fd"/><path d="m831.62 315.65c-23.93 31.52-57.18 63.72-98.93 95.83q-6 4.63-12.25 9.25c-1 .71-1.92 1.42-2.88 2.11a966.9 966.9 0 0 1 -86.31 56.25c-14.66 8.48-29.13 17.49-43.25 26.91q-11.47 7.65-22.59 15.66l-1.71 1.24c-8.67 6.28-17.28 12.78-25.62 19.35-22.31 17.59-41 34.13-55.64 49.32q-5.38 5.56-10 10.88c-.85 1-1.68 1.93-2.49 2.89-21.85 25.66-30.95 47.26-26.49 62.55 4.43 15.06 21.53 22.86 35.09 26.74a227.73 227.73 0 0 1 32.63 12.08c.73.32 1.45.66 2.17 1a200.77 200.77 0 0 1 19.16 10.35c3.8 2.33 7.5 4.78 11.06 7.32 40.11 28.62 61.85 60.62 64.62 95.31 3.86 48.35-30.82 83.19-32.3 84.65a7.5 7.5 0 0 1 -12.75-4.79c-5.77-78.49-79.48-102-94.2-105.95-3.2-.86-6.08-1.64-9-2.48-52.51-15.37-99.48-37-139.69-64.44l-1.64-1.12c-7.34-5.06-14.5-10.33-21.28-15.68-.32-.25-.63-.5-1-.77a210.66 210.66 0 0 1 -66-90.68q-1.22-3.24-2.33-6.54c-.86-2.56-1.68-5.13-2.44-7.71a211.56 211.56 0 0 1 -5.17-98.8c.46-2.52 1-5 1.54-7.53s1.11-4.76 1.73-7.12a206.23 206.23 0 0 1 42.79-82.12 209.3 209.3 0 0 1 14.83-15.61l1.81-1.71c3.92-3.64 8.05-7.21 12.31-10.61s7.26-5.52 8.42-6.32c6.17-5.78 9.3-12.24 9.55-19.73.58-17.46-14.6-34.73-16.83-37.16-46.69-38.11-75.6-71.94-85.93-100.56-6.7-18.55-3.54-29.9-1.47-34.51a15.72 15.72 0 0 1 1.24-2.26l12.41 8.42a1 1 0 0 0 .13-.19c-.35.69-4.18 9.13 3.05 26.74 7.81 19 28.53 48.77 80.44 91.07a7.45 7.45 0 0 1 .66.6c.9.94 22.07 23.17 21.28 48.29-.37 11.75-5.35 22.09-14.8 30.72a7.5 7.5 0 0 1 -.9.7s-3.05 2-7.9 5.92c-4.58 3.66-9 7.51-13.13 11.46a191.47 191.47 0 0 0 -53.16 89.71c-.67 2.5-1.28 5-1.85 7.55q-.8 3.54-1.44 7.09a195.9 195.9 0 0 0 71.48 189.88c6 4.75 12.36 9.45 18.86 14l1.62 1.13q11.79 8.12 24.4 15.55c33.55 19.78 71.31 35.87 112.63 48 2.74.8 5.54 1.55 8.65 2.39 15.28 4.07 87.53 27.13 102.84 101.57 8.77-12.95 19.65-34.55 17.57-59.94-2.45-30-22.08-58.29-58.35-84.14a181.89 181.89 0 0 0 -25.87-15.41l-2-1a207.22 207.22 0 0 0 -26.5-10.35c-2-.65-4-1.26-6.09-1.85-24.63-7.06-40.31-19.82-45.34-36.93q-.18-.6-.33-1.2c-.1-.4-.2-.8-.29-1.2s-.17-.73-.24-1.1a2.7 2.7 0 0 1 -.08-.41c-.07-.34-.13-.69-.19-1-.1-.55-.18-1.1-.24-1.66a2.89 2.89 0 0 1 0-.29 43.79 43.79 0 0 1 -.29-7c0-.19 0-.39 0-.58 0-.41 0-.81.07-1.23s0-.58.07-.88c0-.39.07-.78.11-1.17.06-.61.14-1.23.23-1.85s.17-1.15.28-1.73c0-.2.07-.41.11-.61.16-.94.36-1.88.59-2.84 0-.23.1-.46.16-.69.13-.58.29-1.16.45-1.75s.25-.9.38-1.35q.38-1.28.81-2.58c.22-.66.45-1.33.7-2 .42-1.18.89-2.38 1.4-3.59.13-.32.26-.63.4-1 .21-.52.44-1 .68-1.56s.46-1 .71-1.55c.12-.27.25-.53.38-.8.21-.44.42-.88.65-1.32.13-.26.26-.53.4-.8.22-.45.45-.9.7-1.36s.41-.79.63-1.19a3.84 3.84 0 0 1 .21-.4c.21-.39.43-.77.65-1.17s.51-.93.79-1.39l.74-1.27c.35-.6.71-1.2 1.07-1.8s.76-1.25 1.16-1.87.86-1.36 1.31-2a1 1 0 0 1 .11-.17c.22-.34.44-.68.68-1a.44.44 0 0 1 .1-.15c.46-.7.93-1.39 1.41-2.09l1.15-1.65v-.06c.41-.59.84-1.18 1.27-1.77 1.7-2.37 3.52-4.75 5.45-7.17 1.08-1.37 2.21-2.76 3.37-4.15q.7-.85 1.44-1.71.39-.48.81-1c.45-.53.91-1.07 1.38-1.6q.19-.24.42-.48c.08-.11.18-.21.27-.32l.12-.13c16.41-18.71 39.14-39.56 67.56-62q3.83-3 7.72-6c6.61-5.09 13.35-10.11 20.13-15l1.77-1.27c21-15 42.92-29.17 65.31-42.12a950.64 950.64 0 0 0 87.78-57.44c66.2-49 141.81-120.32 149.63-194.64a115.68 115.68 0 0 0 -.35-27.7 7 7 0 0 1 -.07-1 7.5 7.5 0 0 1 14.93-1l.06.5v.07c5.42 41.12-9.42 85.12-44.08 130.77z"/><path d="m575.65 881.68c-15.31-74.44-87.56-97.5-102.84-101.57-3.11-.84-5.91-1.59-8.65-2.39-41.32-12.1-79.08-28.19-112.63-48 13.26.62 26.73.93 40.29.93 41.09 0 81.54-2.91 117.14-8.43a181.89 181.89 0 0 1 25.91 15.35c36.27 25.85 55.9 54.16 58.35 84.14 2.08 25.42-8.8 47.02-17.57 59.97z" fill="#90caf9"/><path d="m620.1 658.68c0 15.15-33.7 35.78-108.92 48a227.73 227.73 0 0 0 -32.63-12.08c-13.55-3.85-30.66-11.6-35.09-26.71-4.46-15.29 4.64-36.89 26.46-62.54 97.58 9.45 150.18 34.39 150.18 53.33z" fill="#e3f2fd"/><path d="m296.4 710.11c-35.61-4.38-67.13-11.22-90.59-19.76-26.47-9.63-42.27-21.47-42.27-31.67 0-10.68 17.72-26.38 66.83-39.25a210.66 210.66 0 0 0 66.03 90.68z" fill="#e3f2fd"/><path d="m635.1 658.68c0 33-61 51-102.59 59.38-8 1.62-15.22 2.88-21.2 3.83-.78.12-1.56.25-2.35.36-35.6 5.52-76 8.43-117.14 8.43-13.56 0-27-.31-40.29-.93q-14.83-.69-29.27-1.9l-2-.17c-47.78-4.11-89.1-12.13-119.59-23.23-34.6-12.59-52.14-28-52.14-45.77 0-26.88 40.22-43.72 77.06-53.5 2.61-.7 5.21-1.36 7.77-2a7.51 7.51 0 0 1 8.88 4.89 5.79 5.79 0 0 1 .18.63 7.5 7.5 0 0 1 -5.52 9.06c-2.24.54-4.42 1.1-6.54 1.65-49.11 12.87-66.83 28.57-66.83 39.25 0 10.2 15.8 22 42.27 31.67 23.46 8.54 55 15.38 90.59 19.76q13.22 1.64 27.11 2.8l2 .16c21.44 1.74 43.74 2.61 66.31 2.61a803.2 803.2 0 0 0 88.68-4.78q14.67-1.64 28.45-3.83l2.23-.36c75.22-12.25 108.92-32.88 108.92-48 0-18.94-52.6-43.88-150.18-53.33l-3.83-.36a7.5 7.5 0 0 1 -5.23-12.09c.08-.11.18-.21.27-.32l.12-.13a7.45 7.45 0 0 1 6.21-2.4c5 .46 10 1 15 1.53 76.37 8.64 152.65 30.22 152.65 67.09z"/><path d="m461.13 592.58c-27.55 31.45-38.34 58.21-32.06 79.54 5 17.11 20.71 29.87 45.34 36.93 2 .59 4.08 1.2 6.09 1.85a803.2 803.2 0 0 1 -88.68 4.78c-22.57 0-44.87-.87-66.31-2.61-6.5-4.52-12.84-9.22-18.86-14a195.9 195.9 0 0 1 -71.48-189.89c61 11.07 139.68 17.14 222.75 17.14 26.65 0 53-.63 78.61-1.87q-3.9 3-7.72 6c-28.42 22.41-51.15 43.26-67.56 62z" fill="#90caf9"/><path d="m861.15 214c-7.82 74.32-83.43 145.65-149.63 194.64a950.64 950.64 0 0 1 -87.78 57.44c-22.39 12.95-44.34 27.11-65.31 42.12-32.37 2.08-66.18 3.12-100.51 3.12-81.93 0-159.44-5.94-219.46-16.78a191.47 191.47 0 0 1 53.16-89.71c4.13-4 8.55-7.8 13.13-11.46 4.85-3.87 7.87-5.9 7.9-5.92a7.5 7.5 0 0 0 .9-.7c9.45-8.63 14.43-19 14.8-30.72.79-25.12-20.38-47.35-21.28-48.29a7.45 7.45 0 0 0 -.66-.6c-51.91-42.3-72.63-72-80.44-91.07 19.84 16.91 53.89 28.9 84.13 36.82 62.15 16.28 144.64 25.24 232.3 25.24s170.15-9 232.29-25.24c31.46-8.22 67.04-20.89 86.46-38.89z" fill="#90caf9"/><path d="m777.66 454.36c0 7.1-15.11 19.44-57.68 30.87-33.69 9-79.84 16.29-132 20.78 14.11-9.43 28.58-18.44 43.24-26.92a966.9 966.9 0 0 0 86.31-56.25c44.31 11.59 60.13 24.16 60.13 31.52z" fill="#e3f2fd"/><path d="m266.49 409.61a206.23 206.23 0 0 0 -42.79 82.12c-67.29-13.75-85.52-29.84-85.52-37.37 0-9.53 27.45-30.36 128.31-44.75z" fill="#e3f2fd"/><path d="m792.66 454.36c0 18.09-22.5 32.93-68.79 45.36-40.54 10.89-95.89 18.9-160.16 23.19l-2.18.15q-12.37.81-25 1.42c-25.62 1.24-52 1.87-78.61 1.87-83.07 0-161.77-6.07-222.75-17.14-2.46-.44-4.9-.9-7.3-1.36s-5-1-7.44-1.47c-64.54-13.19-97.25-30.68-97.25-52 0-15.13 15.66-27.89 47.89-39 27.19-9.38 65.93-17.38 112.02-23.1l2.46-.31a7.5 7.5 0 0 1 6.08 12.88 7.43 7.43 0 0 1 -4.26 2q-10.92 1.32-20.87 2.74c-100.87 14.41-128.32 35.24-128.32 44.77 0 7.53 18.23 23.62 85.52 37.37q3.42.7 7 1.39 3.82.74 7.75 1.45c60 10.84 137.53 16.78 219.46 16.78 34.33 0 68.14-1 100.51-3.12l2.12-.13q14-.92 27.46-2.09c52.13-4.49 98.28-11.73 132-20.78 42.57-11.43 57.68-23.77 57.68-30.87 0-7.36-15.82-19.93-60.1-31.52l-3.41-.87a7.5 7.5 0 1 1 3.67-14.54q7.86 2 14.87 4.05c40.29 11.88 59.95 25.96 59.95 42.88z"/></svg>