<svg clip-rule="evenodd" fill-rule="evenodd" height="512" image-rendering="optimizeQuality" shape-rendering="geometricPrecision" text-rendering="geometricPrecision" viewBox="0 0 512 512" width="512" xmlns="http://www.w3.org/2000/svg"><g id="Layer_x0020_1"><path d="m365 69c-3-33-30-59-64-59h-23c-33 0-61 26-64 59z" fill="#3ad0b2"/><path d="m370 79h-161-14c-4 0-9 4-9 9s5 10 9 10h189c5 0 9-4 9-10 0-5-4-9-9-9z" fill="#35bda1"/><path d="m367 108h-155c-6 13-11 28-14 42 4-1 7-1 10-1h5v-8c0-1 0-2 1-3 1-3 4-4 6-2 1 0 30 14 77 4 51-10 65-5 66-5 2 1 3 3 3 5v9h5c3 0 7 0 10 1-3-14-8-29-14-42z" fill="#8a3f12"/><g fill="#fdd2c1"><path d="m299 150c-13 3-25 4-35 4-19 0-33-4-41-7v9 1 24 25c0 19 8 36 21 48l3 3c11 10 27 16 43 16s31-6 43-16c0-1 1-2 2-3 13-12 21-29 21-48v-25-24c0-1 0-2 0-2v-11c-6-1-22-1-57 6zm-32 25c-1 0-3-1-4-2-2-3-5-4-9-4s-7 2-9 4-5 3-7 1-3-5-1-7c4-5 10-8 17-8 8 0 13 3 17 8 2 2 1 5-1 7-1 1-2 1-3 1zm3 49c6 4 13 6 20 6 6 0 13-2 19-6 3-2 6-1 7 1 2 3 1 6-1 7-8 5-17 8-25 8-9 0-18-3-26-8-2-1-3-4-1-7 1-2 5-3 7-1zm50-42c0-3 2-5 5-5s5 2 5 5v8c0 3-2 5-5 5s-5-2-5-5zm18-7c-1 0-3-1-4-2-2-2-5-4-9-4s-7 1-9 4c-2 2-5 3-7 1s-3-5-1-7c4-5 10-8 17-8s13 3 17 8c2 2 1 5-1 7-1 1-2 1-3 1zm-79 15c0 3-2 5-5 5s-5-2-5-5v-8c0-3 2-5 5-5s5 2 5 5z"/><path d="m213 186h-14c-3 0-5-2-5-5s2-5 5-5h14v-16c-1-1-3-1-5-1-4 0-9 1-12 3-1 1-1 1-2 2-7 4-11 12-11 21 0 8 4 15 10 20 2 0 3 1 3 2 4 2 8 3 12 3 2 0 4 0 5-1 0-1 0-2 0-3z"/><path d="m366 186v20 3c2 1 3 1 5 1 4 0 8-1 12-3 1-1 2-2 3-2 6-5 10-12 10-20 0-9-4-16-10-21-1 0-2-1-3-2-3-2-7-3-12-3-1 0-3 0-5 1v16h14c3 0 5 2 5 5s-2 5-5 5z"/></g><path d="m365 219c-3 16-10 30-21 41-1 1-1 1-2 2-1 10 0 31 6 39 1 0 1 1 1 1 2 3 6 11 7 22l30 10c-1-1-1-2-1-4 0-5 3-10 6-15 2-2 4-4 4-6-1-2-3-5-6-7-3-3-7-7-8-11 0-1 0-1 0-1 0-4 1-8 2-12 1-3 2-6 2-9 0-4-1-8-2-12 0-2-1-5-1-7 0-1 0-1 0-1v-31c-3 1-7 2-11 2-2 0-4 0-6-1z" fill="#8a3f12"/><path d="m332 270c-13 9-27 13-42 13s-30-4-42-13c0 10-1 24-6 33l48 37 47-37c-4-9-5-23-5-33z" fill="#fdc7ae"/><path d="m342 312-45 35 10 18c5 6 8 10 11 10s7-2 13-8c13-12 16-26 16-37-1-1-1-2-1-3 0-6-2-12-4-15z" fill="#35bda1"/><path d="m283 347-46-35c-2 3-3 9-4 15v3c-1 11 3 25 16 37h1c5 6 9 8 12 8s6-4 10-10z" fill="#35bda1"/><path d="m232 300c6-8 6-28 5-38 0-1-1-1-1-2-12-11-19-25-22-41-1 1-4 1-6 1-4 0-7-1-11-2v31c0 5-1 9-2 14 0 2 0 4-1 6 0 3 1 6 2 9 1 4 2 8 2 12v1c-1 4-4 8-8 11-2 3-5 5-6 7 1 2 3 5 4 6 3 5 7 10 6 15v4l30-10c1-13 7-22 7-23 0 0 0 0 1-1z" fill="#8a3f12"/><path d="m119 266v-105l-94 53z" fill="#f4922c"/><path d="m223 335-34 11c-1 1-2 1-2 1l-36 12c-9 2-16 6-22 9v134h11v-53c0-3 2-5 5-5s5 2 5 5v53h279v-53c0-3 2-5 5-5s5 2 5 5v53h23c10 0 19-5 25-12 3-3 6-9 4-16l-13-66c-4-24-19-39-49-49l-72-24c-1 12-5 26-19 40-6 5-13 10-20 10h-1c-6-1-12-5-18-14 0 0 0 0 0-1l-9-15-10 16c-5 9-11 13-17 14 0 0-1 0-2 0-7 0-13-6-18-10-15-14-19-28-20-40zm101 89c0-9 7-16 16-16h14v-10c0-8 7-17 17-17 9 0 17 8 17 17v10h14c9 0 16 7 16 16v28c0 9-7 16-16 16h-62c-9 0-16-7-16-16z" fill="#3ad0b2"/><path d="m371 391c-4 0-7 4-7 7v10h14v-10c0-3-4-7-7-7z" fill="#35bda1"/><path d="m392 440c3 0 5 2 5 5s-2 5-5 5h-42c-3 0-5-2-5-5s2-5 5-5zm0-6h-42c-3 0-5-2-5-5s2-5 5-5h42c3 0 5 2 5 5s-2 5-5 5zm-9-16h-24c3 0 5-2 5-5v-5-10c0-3 3-7 7-7 3 0 7 4 7 7v10 5c0 3 2 5 5 5zm-43-10c-9 0-16 7-16 16v28c0 9 7 16 16 16h62c9 0 16-7 16-16v-28c0-9-7-16-16-16h-14v-10c0-9-8-17-17-17-10 0-17 9-17 17v10z" fill="#fff"/><path d="m119 502v-126c-9 8-15 19-18 32l-13 66c-2 7 2 13 4 16 6 7 16 12 25 12z" fill="#3ad0b2"/><g id="_609730728"><g><path d="m462 512h-345c-12 0-25-6-32-15-6-8-9-17-7-25l13-66c6-28 24-46 57-57l79-26c2-1 5 1 6 3 1 3-1 6-3 7l-79 26c-30 9-45 24-50 49l-13 66c-2 7 2 13 4 16 6 7 16 12 25 12h345c10 0 19-5 25-12 3-3 6-9 4-16l-13-66c-4-24-19-39-49-49l-79-26c-3-1-4-4-4-6 1-3 4-4 7-4l79 26c33 11 51 29 56 57l13 66c2 9 0 17-6 25-8 9-20 15-33 15z"/></g><g><path d="m261 385c-7 0-13-6-18-10-19-17-21-36-20-49 2-14 8-24 8-25 1-1 2-2 3-2 2 0 3 0 4 1l55 42c2 2 3 4 1 7l-14 22c-5 9-11 13-17 14 0 0-1 0-2 0zm-24-73c-4 10-10 34 12 55h1c5 6 9 8 12 8s6-4 10-10l11-18z"/></g><g><path d="m318 385h-1c-6-1-12-5-18-14 0 0 0 0 0-1l-13-22c-1-2-1-4 1-6l54-42c1-1 3-1 4-1s3 1 3 2c1 1 7 11 8 25 2 13 0 32-18 49-6 5-13 10-20 10zm-11-20c5 6 8 10 11 10s7-2 13-8c22-21 16-45 11-55l-45 35z"/></g><g><path d="m290 283c-20 0-40-8-54-23-15-14-23-34-23-54v-66c0-3 2-5 5-5s5 2 5 5v66c0 37 30 67 67 67 36 0 66-31 66-67v-66c0-3 2-5 5-5s5 2 5 5v66c0 20-8 40-22 54-15 15-34 23-54 23z"/></g><g><path d="m235 309c-1 0-2 0-3-1-2-2-2-5-1-7 7-9 7-33 6-42 0-2 2-5 5-5s5 2 5 5 3 35-8 48c-1 1-2 2-4 2z"/></g><g><path d="m344 309c-1 0-3-1-4-2-11-13-8-45-8-49 0-2 3-4 6-4 2 0 4 3 4 5-1 9-1 33 6 42 2 2 2 5-1 7-1 1-2 1-3 1z"/></g><g><path d="m208 220c-19 0-35-16-35-35 0-20 16-36 35-36 5 0 9 1 12 2 2 1 4 4 3 7-1 2-4 4-6 3-3-1-6-2-9-2-14 0-25 12-25 26s11 25 25 25c3 0 6-1 9-2 2 0 5 1 6 4 1 2-1 5-3 6-3 1-7 2-12 2z"/></g><g><path d="m371 220c-5 0-8-1-11-2s-4-4-4-7c1-2 4-4 7-3 2 1 5 2 8 2 14 0 25-11 25-25 0-15-11-26-25-26-2 0-5 1-8 2s-6-1-7-4c-1-2 1-5 4-6 2-1 7-2 11-2 20 0 35 16 35 36 0 19-16 35-35 35z"/></g><g><path d="m145 512c-3 0-5-2-5-5v-58c0-3 2-5 5-5s5 2 5 5v58c0 3-2 5-5 5z"/></g><g><path d="m434 512c-3 0-5-2-5-5v-58c0-3 2-5 5-5s5 2 5 5v58c0 3-2 5-5 5z"/></g><g><path d="m380 186h-19c-3 0-5-2-5-5s2-5 5-5h19c3 0 5 2 5 5s-2 5-5 5z"/></g><g><path d="m218 186h-19c-3 0-5-2-5-5s2-5 5-5h19c3 0 5 2 5 5s-2 5-5 5z"/></g><g><path d="m254 195c-3 0-5-2-5-5v-8c0-3 2-5 5-5s5 2 5 5v8c0 3-2 5-5 5z"/></g><g><path d="m325 195c-3 0-5-2-5-5v-8c0-3 2-5 5-5s5 2 5 5v8c0 3-2 5-5 5z"/></g><g><path d="m290 240c-9 0-18-3-26-8-2-1-3-4-1-7 1-2 5-3 7-1 6 4 13 6 20 6 6 0 13-2 19-6 3-2 6-1 7 1 2 3 1 6-1 7-8 5-17 8-25 8z"/></g><g><path d="m338 175c-1 0-3-1-4-2-2-2-5-4-9-4s-7 1-9 4c-2 2-5 3-7 1s-3-5-1-7c4-5 10-8 17-8s13 3 17 8c2 2 1 5-1 7-1 1-2 1-3 1z"/></g><g><path d="m267 175c-1 0-3-1-4-2-2-3-5-4-9-4s-7 2-9 4-5 3-7 1-3-5-1-7c4-5 10-8 17-8 8 0 13 3 17 8 2 2 1 5-1 7-1 1-2 1-3 1z"/></g><g><path d="m186 347h-1c-3-1-4-4-4-6 1-2 1-3 2-5 0-2 1-4 1-6v-1c1-2-2-5-4-8-3-4-6-8-6-12v-1c1-5 5-9 9-13 2-2 5-4 5-6s-1-5-2-8c-1-4-2-8-2-12v-1c1-2 1-5 2-7 0-4 1-8 1-12v-39c0-3 2-5 5-5s5 2 5 5v39c0 5-1 9-2 14 0 2 0 4-1 6 0 3 1 6 2 9 1 4 2 8 2 12v1c-1 4-4 8-8 11-2 3-5 5-6 7 1 2 3 5 4 6 3 5 7 10 6 15 0 4-1 7-2 10 0 1-1 2-1 3-1 2-3 4-5 4zm208 0c-2 0-3-1-4-3-3-4-5-9-5-14s3-10 6-15c2-2 4-4 4-6-1-2-3-5-6-7-3-3-7-7-8-11 0-1 0-1 0-1 0-4 1-8 2-12 1-3 2-6 2-9 0-4-1-8-2-12 0-2-1-5-1-7 0-1 0-1 0-1v-39c0-3 2-5 5-5s5 2 5 5v38c0 3 1 5 1 7 1 4 2 9 2 14 0 4-1 8-2 12-1 3-2 6-2 8s3 4 5 6c4 4 8 8 9 13v1c0 4-3 8-6 12-2 3-4 6-4 8v1c0 3 2 6 3 10 2 2 1 5-2 6 0 1-1 1-2 1zm-7-183c-2 0-5-2-5-4-2-18-8-38-16-55-2-2-1-5 2-6 2-2 5-1 7 2 8 17 15 39 17 58 0 2-2 5-4 5zm-195 0c-3 0-5-3-5-5 2-19 9-41 18-58 1-3 4-4 6-2 3 1 4 4 3 6-9 17-15 37-17 55 0 2-2 4-5 4z"/></g><g><path d="m264 154c-30 0-47-9-48-10-3-1-4-4-2-6 1-3 4-4 6-2 1 0 30 14 77 4 51-10 65-5 66-5l-4 10s-12-4-60 5c-13 3-25 4-35 4z"/></g><g><path d="m124 512c-3 0-5-2-5-5v-354c0-3 2-5 5-5s5 2 5 5v354c0 3-2 5-5 5z"/></g><g><path d="m124 280c-1 0-2 0-2-1l-109-61c-2 0-3-2-3-4s1-3 3-4l109-61c2-2 5-1 7 2 1 2 0 5-2 6l-102 57 102 57c2 1 3 4 1 6 0 2-2 3-4 3z"/></g><g><path d="m402 468h-62c-9 0-16-7-16-16v-28c0-9 7-16 16-16h62c9 0 16 7 16 16v28c0 9-7 16-16 16zm-62-50c-3 0-6 3-6 6v28c0 3 3 6 6 6h62c3 0 6-3 6-6v-28c0-3-3-6-6-6z"/></g><g><path d="m392 434h-42c-3 0-5-2-5-5s2-5 5-5h42c3 0 5 2 5 5s-2 5-5 5z"/></g><g><path d="m392 450h-42c-3 0-5-2-5-5s2-5 5-5h42c3 0 5 2 5 5s-2 5-5 5z"/></g><g><path d="m383 418c-3 0-5-2-5-5v-15c0-3-4-7-7-7-4 0-7 4-7 7v15c0 3-2 5-5 5s-5-2-5-5v-15c0-8 7-17 17-17 9 0 17 8 17 17v15c0 3-2 5-5 5z"/></g><g><path d="m384 108h-189c-10 0-19-9-19-20 0-10 9-19 19-19h189c11 0 19 8 19 19s-8 20-19 20zm-189-29c-4 0-9 4-9 9s5 10 9 10h189c5 0 9-4 9-10 0-5-4-9-9-9z"/></g><g><path d="m370 79c-3 0-5-2-5-5 0-35-29-64-64-64h-23c-35 0-64 29-64 64 0 3-2 5-5 5s-5-2-5-5c0-41 33-74 74-74h23c41 0 74 33 74 74 0 3-2 5-5 5z"/></g></g></g></svg>