<svg id="Layer_1" enable-background="new 0 0 512 512" height="512" viewBox="0 0 512 512" width="512" xmlns="http://www.w3.org/2000/svg"><g><path d="m63.851 83.698h384.298v38.961h-384.298z" fill="#efeeee"/><path d="m448.148 130.659h-384.297c-4.418 0-8-3.582-8-8v-38.961c0-4.418 3.582-8 8-8h384.298c4.418 0 8 3.582 8 8v38.961c-.001 4.419-3.583 8-8.001 8zm-376.297-16h368.298v-22.961h-368.298z"/></g><g><path d="m26.086 54.035h37.765v98.287h-37.765z" fill="#e0e0e0"/><path d="m63.851 160.322h-37.765c-4.418 0-8-3.582-8-8v-98.287c0-4.418 3.582-8 8-8h37.765c4.418 0 8 3.582 8 8v98.287c0 4.419-3.582 8-8 8zm-29.765-16h21.765v-82.287h-21.765z"/></g><g><path d="m448.148 54.035h37.766v98.287h-37.766z" fill="#e0e0e0"/><path d="m485.914 160.322h-37.766c-4.418 0-8-3.582-8-8v-98.287c0-4.418 3.582-8 8-8h37.766c4.418 0 8 3.582 8 8v98.287c0 4.419-3.582 8-8 8zm-29.766-16h21.766v-82.287h-21.766z"/></g><g><path d="m407.71 291.41v66.67l-50.58 20-50.57-20-50.57 20-50.57-20-50.56 20-50.57-20v-66.67l50.57 20 50.56-20 50.57 20 50.57-20 50.57 20z" fill="#66bc6a"/><path d="m357.13 386.08c-.999 0-1.997-.187-2.942-.561l-47.628-18.837-47.627 18.837c-1.891.748-3.994.748-5.885 0l-47.627-18.836-47.618 18.836c-1.891.746-3.995.748-5.885 0l-50.57-20c-3.052-1.207-5.058-4.157-5.058-7.439v-66.67c0-2.649 1.312-5.126 3.502-6.616 2.191-1.488 4.976-1.799 7.44-.823l47.627 18.837 47.618-18.837c1.891-.746 3.995-.748 5.885 0l47.628 18.837 47.627-18.837c1.892-.749 3.995-.747 5.885 0l47.628 18.837 47.639-18.837c2.463-.975 5.25-.666 7.439.824 2.19 1.489 3.502 3.966 3.502 6.615v66.67c0 3.283-2.006 6.232-5.059 7.439l-50.58 20c-.944.375-1.943.561-2.941.561zm-50.57-36c.999 0 1.997.187 2.942.561l47.628 18.837 42.58-16.837v-49.465l-39.639 15.674c-1.89.748-3.994.748-5.884 0l-47.628-18.837-47.627 18.837c-1.891.748-3.994.748-5.885 0l-47.627-18.836-47.618 18.836c-1.891.748-3.995.748-5.885 0l-39.627-15.673v49.464l42.569 16.836 47.618-18.836c1.891-.748 3.995-.748 5.885 0l47.628 18.837 47.627-18.837c.946-.374 1.945-.561 2.943-.561z"/></g><g><path d="m407.71 63.95v227.46l-50.58 20-50.57-20-50.57 20-50.57-20-50.56 20-50.57-20v-227.46z" fill="#4caf4e"/><path d="m357.13 319.41c-.999 0-1.997-.187-2.942-.561l-47.628-18.837-47.627 18.837c-1.891.748-3.994.748-5.885 0l-47.627-18.836-47.618 18.836c-1.891.748-3.995.748-5.885 0l-50.57-20c-3.052-1.207-5.058-4.157-5.058-7.439v-227.46c0-4.418 3.582-8 8-8h303.42c4.418 0 8 3.582 8 8v227.46c0 3.283-2.006 6.232-5.059 7.439l-50.58 20c-.944.375-1.943.561-2.941.561zm-50.57-36c.999 0 1.997.187 2.942.561l47.628 18.837 42.58-16.837v-214.021h-287.42v214.021l42.569 16.836 47.618-18.837c1.891-.746 3.995-.748 5.885 0l47.628 18.837 47.627-18.837c.946-.373 1.945-.56 2.943-.56z"/></g><g><path d="m407.71 358.08v99.88h-303.42v-99.88l50.57 20 50.56-20 50.57 20 50.57-20 50.57 20z" fill="#4caf4e"/><path d="m407.71 465.96h-303.42c-4.418 0-8-3.582-8-8v-99.88c0-2.649 1.312-5.126 3.502-6.616 2.191-1.489 4.976-1.798 7.44-.823l47.627 18.836 47.618-18.836c1.891-.748 3.995-.748 5.885 0l47.628 18.837 47.627-18.837c1.892-.748 3.995-.748 5.885 0l47.628 18.837 47.639-18.837c2.463-.976 5.25-.666 7.439.824 2.19 1.489 3.502 3.966 3.502 6.615v99.88c0 4.418-3.582 8-8 8zm-295.42-16h287.42v-80.114l-39.639 15.674c-1.89.749-3.994.747-5.884 0l-47.628-18.837-47.627 18.837c-1.891.748-3.994.748-5.885 0l-47.627-18.836-47.618 18.836c-1.891.746-3.995.748-5.885 0l-39.627-15.673z"/></g></svg>