<svg clip-rule="evenodd" fill-rule="evenodd" height="512" image-rendering="optimizeQuality" shape-rendering="geometricPrecision" text-rendering="geometricPrecision" viewBox="0 0 512 512" width="512" xmlns="http://www.w3.org/2000/svg" xmlns:xodm="http://www.corel.com/coreldraw/odm/2003"><g id="Layer_x0020_1"><path d="m459.69 180.07h-66.69c-13.17 0-13.17-19.99 0-19.99h66.69c13.16 0 13.16 19.99 0 19.99zm-356.86 0h-32.32c-38.88 0-70.51-31.62-70.51-70.5s31.63-70.51 70.51-70.51h389.18c13.16 0 13.16 20 0 20h-389.18c-27.85 0-50.51 22.66-50.51 50.51 0 27.84 22.66 50.51 50.51 50.51h32.32c13.16 0 13.16 19.99 0 19.99z" fill="#94d2f0"/><path d="m359.25 494.07h-232.63c-18.62 0-33.77-15.15-33.77-33.77v-341.16c0-18.62 15.15-33.77 33.77-33.77h232.63c18.62 0 33.77 15.15 33.77 33.77v341.16c0 18.62-15.15 33.77-33.77 33.77z" fill="#ebfafa"/><path d="m92.85 421.3v-51.25h300.17v51.25z" fill="#bfcbcb"/><path d="m480.85 80.19c-17.17 0-31.13-13.97-31.13-31.13 0-17.17 13.96-31.13 31.13-31.13 17.16 0 31.12 13.96 31.12 31.13 0 17.16-13.96 31.13-31.12 31.13z" fill="#697878"/><path d="m480.85 201.2c-17.17 0-31.13-13.96-31.13-31.13 0-17.16 13.96-31.12 31.13-31.12 17.16 0 31.12 13.96 31.12 31.12 0 17.17-13.96 31.13-31.12 31.13z" fill="#697878"/><g fill="#bfcbcb"><path d="m163.93 278.97c-3.79 0-6.26-4.14-4.32-7.5l77.01-133.39c3.29-5.71 11.95-.7 8.66 5l-77.01 133.39c-.93 1.6-2.61 2.5-4.34 2.5z"/><path d="m189.3 328.54c-3.8 0-6.27-4.14-4.33-7.5l107.27-185.79c3.29-5.7 11.95-.7 8.66 5l-107.27 185.79c-.92 1.61-2.61 2.5-4.33 2.5z"/><path d="m244.92 325.72c-3.8 0-6.27-4.14-4.33-7.5l77.02-133.39c3.29-5.7 11.95-.7 8.66 5l-77.02 133.39c-.92 1.61-2.6 2.5-4.33 2.5z"/></g></g></svg>