<svg height="512" viewBox="0 0 128 128" width="512" xmlns="http://www.w3.org/2000/svg"><g><g><circle cx="64" cy="64" fill="#d63922" r="57.5"/><circle cx="64" cy="64" fill="#f5502f" r="51.5"/><path d="m48.2 87.8a6.036 6.036 0 0 0 -.909-.732l39.778-39.774a5.926 5.926 0 0 0 .732.909 6 6 0 1 0 1.637-9.641 6.046 6.046 0 1 0 -8.733 2.368l-39.775 39.776a5.994 5.994 0 1 0 -2.368 8.732 6 6 0 1 0 9.638-1.638z" fill="#ededf9"/><path d="m48.2 40.2a6.036 6.036 0 0 1 -.909.732l39.778 39.774a5.926 5.926 0 0 1 .731-.906 6 6 0 1 1 1.637 9.641 6.046 6.046 0 1 1 -8.733-2.368l-39.774-39.779a5.994 5.994 0 1 1 -2.368-8.732 6 6 0 1 1 9.638 1.638z" fill="#ededf9"/><g><path d="m72.51 86.631a3 3 0 0 0 3-3v-3.144a3.008 3.008 0 0 1 2.308-2.874c4.025-1.077 6.183-4.868 7.034-9.008 1.607-7.813 1.284-27.236-20.852-27.236s-22.459 19.423-20.852 27.236c.851 4.14 3.009 7.931 7.034 9.008a3.008 3.008 0 0 1 2.308 2.874v3.144a3 3 0 0 0 3 3z" fill="#dddde3"/><g fill="#ededf9"><path d="m76.55 56.99a5.271 5.271 0 0 1 -3 6.013c-2.43.963-4.956.189-5.643-1.728s.727-4.253 3.157-5.216 4.8-.986 5.486.931z"/><path d="m51.45 56.99a5.269 5.269 0 0 0 3 6.013c2.43.963 4.956.189 5.643-1.728s-.727-4.253-3.157-5.216-4.8-.986-5.486.931z"/></g></g></g><g fill="#102a3f"><path d="m64 4.75a59.251 59.251 0 0 0 -37.245 105.332 1.75 1.75 0 1 0 2.2-2.721 55.51 55.51 0 1 1 14.311 8.407 1.75 1.75 0 1 0 -1.3 3.248 59.257 59.257 0 1 0 22.034-114.266z"/><path d="m37.188 112.893c-1.22-.672-2.432-1.4-3.6-2.162a1.75 1.75 0 1 0 -1.912 2.932c1.242.811 2.53 1.583 3.828 2.3a1.749 1.749 0 1 0 1.685-3.066z"/><path d="m87.555 16.248a52.615 52.615 0 0 0 -23.555-5.498 53.3 53.3 0 1 0 32.452 11.057 1.75 1.75 0 1 0 -2.137 2.771 49.548 49.548 0 1 1 -8.315-5.193 1.75 1.75 0 0 0 1.553-3.137z"/><path d="m108.819 57.894a1.649 1.649 0 0 0 .3-.027 1.749 1.749 0 0 0 1.423-2.024 47.048 47.048 0 0 0 -1.29-5.445 1.75 1.75 0 0 0 -3.352 1.008 43.771 43.771 0 0 1 1.195 5.038 1.749 1.749 0 0 0 1.724 1.45z"/><path d="m92.033 51.712h.008a7.751 7.751 0 0 0 5.482-13.234 7.8 7.8 0 0 0 -5.743-2.258 7.786 7.786 0 0 0 -2.262-5.747 7.751 7.751 0 0 0 -11.359 10.532l-1.437 1.437a26.468 26.468 0 0 0 -12.722-2.823 26.492 26.492 0 0 0 -12.682 2.864l-1.477-1.478a7.751 7.751 0 0 0 -11.363-10.528 7.78 7.78 0 0 0 -2.258 5.743 7.748 7.748 0 1 0 -.261 15.492h.008a7.672 7.672 0 0 0 5.038-1.871l1.887 1.886a26.7 26.7 0 0 0 -2.025 9.236 1.75 1.75 0 0 0 3.5.18c.418-8.223 4.168-18.024 19.633-18.024 7.017 0 12.248 2.054 15.55 6.1 4.422 5.423 4.7 13.64 3.589 19.029-.5 2.421-1.911 6.637-5.774 7.67a4.728 4.728 0 0 0 -3.6 4.564v3.145a1.252 1.252 0 0 1 -1.25 1.25h-2.265v-4.25a1.75 1.75 0 0 0 -3.5 0v4.25h-5.5v-4.25a1.75 1.75 0 0 0 -3.5 0v4.25h-2.26a1.252 1.252 0 0 1 -1.25-1.25v-3.142a4.728 4.728 0 0 0 -3.606-4.563c-3.175-.85-4.69-3.839-5.4-6.2a1.75 1.75 0 0 0 -3.351 1.011 15.337 15.337 0 0 0 2.108 4.44l-2.985 2.984a7.673 7.673 0 0 0 -5.038-1.871h-.008a7.752 7.752 0 0 0 -5.482 13.234 7.8 7.8 0 0 0 5.742 2.26 7.747 7.747 0 0 0 13.217 5.747 7.746 7.746 0 0 0 .404-10.527l1.359-1.364a4.745 4.745 0 0 0 4.29 2.745h17.02a4.745 4.745 0 0 0 4.29-2.745l1.359 1.364a7.751 7.751 0 0 0 11.362 10.523 7.777 7.777 0 0 0 2.259-5.743 7.841 7.841 0 0 0 5.747-2.262 7.753 7.753 0 0 0 -5.486-13.23h-.008a7.672 7.672 0 0 0 -5.033 1.871l-2.976-2.975a16.521 16.521 0 0 0 2.547-6.227 30.4 30.4 0 0 0 -1.485-17.2l1.914-1.916a7.671 7.671 0 0 0 5.033 1.871zm-47.4-3.192-2.467-2.467a1.749 1.749 0 0 0 -2.7.278 3.961 3.961 0 0 1 -.506.635 4.212 4.212 0 0 1 -3 1.247 4.25 4.25 0 1 1 1.84-8.078 1.75 1.75 0 0 0 2.335-2.335 4.248 4.248 0 1 1 8.077-1.834 4.209 4.209 0 0 1 -1.249 3 3.955 3.955 0 0 1 -.632.5 1.749 1.749 0 0 0 -.278 2.7l2.293 2.293a18.244 18.244 0 0 0 -3.712 4.061zm1.419 37.313a1.749 1.749 0 0 0 .278 2.7 3.961 3.961 0 0 1 .635.506 4.247 4.247 0 0 1 0 6.013 4.247 4.247 0 0 1 -6.828-4.85 1.75 1.75 0 0 0 -2.337-2.337 4.248 4.248 0 1 1 -1.838-8.077 4.209 4.209 0 0 1 3 1.249 3.955 3.955 0 0 1 .5.632 1.749 1.749 0 0 0 2.7.278l4.268-4.268a9.7 9.7 0 0 0 3.298 1.621 1.279 1.279 0 0 1 1.012 1.183v.66zm41.2-3.382a1.754 1.754 0 0 0 1.284-.782 3.961 3.961 0 0 1 .506-.635 4.207 4.207 0 0 1 3-1.246 4.249 4.249 0 1 1 -1.842 8.077 1.75 1.75 0 0 0 -2.335 2.335 4.248 4.248 0 1 1 -8.077 1.834 4.209 4.209 0 0 1 1.249-3 3.955 3.955 0 0 1 .632-.5 1.749 1.749 0 0 0 .278-2.7l-4.687-4.688v-.659a1.28 1.28 0 0 1 1.01-1.187 9.794 9.794 0 0 0 3.315-1.6l4.248 4.248a1.758 1.758 0 0 0 1.417.503zm-3.892-33.926a17.575 17.575 0 0 0 -3.674-4.1l2.261-2.261a1.749 1.749 0 0 0 -.278-2.7 3.961 3.961 0 0 1 -.635-.506 4.247 4.247 0 0 1 0-6.013 4.247 4.247 0 0 1 6.828 4.85 1.75 1.75 0 0 0 2.338 2.34 4.249 4.249 0 1 1 1.838 8.078 4.214 4.214 0 0 1 -3-1.25 3.955 3.955 0 0 1 -.5-.632 1.749 1.749 0 0 0 -2.7-.278z"/><path d="m68.879 64.634a6.236 6.236 0 0 0 2.568.533 7.5 7.5 0 0 0 2.75-.537 6.993 6.993 0 0 0 4-8.23 3.925 3.925 0 0 0 -2.112-2.312c-1.852-.836-4.1-.274-5.663.345-3.35 1.327-5.176 4.591-4.159 7.432a4.841 4.841 0 0 0 2.616 2.769zm2.833-6.948a6.379 6.379 0 0 1 2.258-.519 1.71 1.71 0 0 1 .673.11.44.44 0 0 1 .259.3 3.6 3.6 0 0 1 -1.994 3.8 3.424 3.424 0 0 1 -2.587.069 1.342 1.342 0 0 1 -.763-.76c-.319-.886.488-2.339 2.154-3z"/><path d="m53.8 64.63a7.492 7.492 0 0 0 2.75.537 6.236 6.236 0 0 0 2.568-.533 4.841 4.841 0 0 0 2.616-2.769c1.017-2.841-.809-6.105-4.158-7.432-1.561-.619-3.811-1.182-5.664-.345a3.925 3.925 0 0 0 -2.112 2.312 6.993 6.993 0 0 0 4 8.23zm-.7-7.05a.44.44 0 0 1 .259-.3 1.706 1.706 0 0 1 .673-.11 6.387 6.387 0 0 1 2.259.519c1.665.661 2.472 2.111 2.153 3a1.342 1.342 0 0 1 -.763.76 3.415 3.415 0 0 1 -2.587-.069 3.6 3.6 0 0 1 -1.994-3.8z"/></g></g></svg>