<svg id="Capa_1" enable-background="new 0 0 512 512" height="512" viewBox="0 0 512 512" width="512" xmlns="http://www.w3.org/2000/svg"><g><g><path d="m103.349 305.381c0 12.914 11.148 23.383 24.9 23.383 13.752 0 24.9-10.469 24.9-23.383v-133.793c0-12.914-11.148-23.383-24.9-23.383-13.752 0-24.9 10.469-24.9 23.383z" fill="#c6c6c6"/></g><g><path d="m128.249 305.381v-133.793c0-8.65 5.014-16.185 12.45-20.229-3.665-1.994-7.909-3.154-12.45-3.154-13.752 0-24.9 10.469-24.9 23.383v133.794c0 12.914 11.148 23.383 24.9 23.383 4.541 0 8.785-1.16 12.45-3.154-7.435-4.046-12.45-11.58-12.45-20.23z" fill="#b7b7b7"/></g><g><path d="m67.5 217.898c-22.091 0-40 17.909-40 40v142.11h208.053v-182.11z" fill="#f9d171"/></g><g><path d="m484.5 85.84-219.926-13.942-49.021 146v182.111h268.947z" fill="#f9ee80"/></g><g><path d="m108.81 217.898h-41.31c-22.091 0-40 17.909-40 40v142.11h41.31v-142.11c0-22.091 17.908-40 40-40z" fill="#f6ca56"/></g><g><path d="m300.227 134.689-15.485 55.41c-2.793 9.993 4.955 19.831 15.616 19.831h104.248c8.936 0 16.18-7.036 16.18-15.715v-55.41c0-8.679-7.244-15.715-16.18-15.715h-88.763c-7.304 0-13.703 4.753-15.616 11.599z" fill="#c1cff2"/></g><g><path d="m329.155 190.098 15.485-55.41c1.913-6.846 8.312-11.598 15.616-11.598h-44.413c-7.304 0-13.702 4.752-15.615 11.598l-15.485 55.41c-2.793 9.993 4.955 19.831 15.616 19.831h44.413c-10.663.001-18.41-9.838-15.617-19.831z" fill="#adc0ed"/></g><g><path d="m484.5 420.748h-457c-11.046 0-20-8.954-20-20 0-11.046 8.954-20 20-20h457c11.046 0 20 8.954 20 20 0 11.046-8.954 20-20 20z" fill="#b7b7b7"/></g><g><ellipse cx="134.03" cy="400.748" fill="#9c9c9c" rx="65.22" ry="65.22" transform="matrix(.707 -.707 .707 .707 -244.115 212.15)"/></g><g><path d="m134.029 335.528c-36.02 0-65.219 29.2-65.219 65.221 0 36.02 29.2 65.22 65.219 65.22-11.915 0-21.574-9.66-21.574-21.576 0-11.915 9.66-21.574 21.574-21.574v-44.141c-11.915 0-21.574-9.66-21.574-21.576 0-11.915 9.659-21.574 21.574-21.574z" fill="#858586"/></g><g><path d="m156.1 400.749c0 12.188-9.881 22.07-22.07 22.07-12.19 0-22.071-9.881-22.071-22.07 0-12.19 9.881-22.071 22.071-22.071 12.189 0 22.07 9.881 22.07 22.071z" fill="#c6c6c6"/></g><g><path d="m149.874 410.703c-12.19 0-22.071-9.881-22.071-22.07 0-3.435.807-6.673 2.207-9.572-10.267 1.892-18.051 10.873-18.051 21.688 0 12.188 9.881 22.07 22.071 22.07 8.754 0 16.295-5.11 19.863-12.499-1.304.24-2.644.383-4.019.383z" fill="#b7b7b7"/></g><g><ellipse cx="367.045" cy="379.015" fill="#9c9c9c" rx="87.145" ry="87.145" transform="matrix(.707 -.707 .707 .707 -160.499 370.551)"/></g><g><path d="m367.044 466.16c-15.92 0-28.826-12.907-28.826-28.829 0-15.92 12.907-28.827 28.827-28.827v-58.979c-15.92 0-28.827-12.907-28.827-28.829 0-15.92 12.906-28.827 28.826-28.827-48.128.001-87.143 39.016-87.143 87.146-.001 48.129 39.015 87.144 87.143 87.145z" fill="#858586"/></g><g><path d="m396.535 379.016c0 16.285-13.203 29.489-29.489 29.489-16.287 0-29.491-13.203-29.491-29.489 0-16.288 13.203-29.491 29.491-29.491 16.286 0 29.489 13.204 29.489 29.491z" fill="#c6c6c6"/></g><g><path d="m388.216 392.316c-16.287 0-29.491-13.203-29.491-29.489 0-4.589 1.079-8.916 2.949-12.79-13.719 2.528-24.119 14.528-24.119 28.978 0 16.286 13.203 29.489 29.491 29.489 11.697 0 21.773-6.829 26.54-16.701-1.743.322-3.533.513-5.37.513z" fill="#b7b7b7"/></g><g><path d="m484.5 85.84h-240c-11.046 0-20-8.954-20-20 0-11.046 8.954-20 20-20h220c11.046 0 20 8.954 20 20z" fill="#f9d171"/></g><g><path d="m284.5 65.84c0-11.046 8.954-20 20-20h-60c-11.046 0-20 8.954-20 20 0 11.046 8.954 20 20 20h60c-11.046 0-20-8.954-20-20z" fill="#f6ca56"/></g><g><path d="m27.637 320.939h41.194c11.046 0 20-8.954 20-20 0-11.046-8.954-20-20-20h-41.194c-11.046 0-20 8.954-20 20 0 11.046 8.955 20 20 20z" fill="#f9ee80"/></g><g><path d="m47.637 300.939c0-11.046 8.954-20 20-20h-40c-11.046 0-20 8.954-20 20s8.954 20 20 20h40c-11.045 0-20-8.954-20-20z" fill="#f4e74d"/></g><g><path d="m300.357 217.43h104.248c13.058 0 23.681-10.414 23.681-23.215v-55.41c0-12.801-10.623-23.215-23.681-23.215h-88.763c-10.636 0-20.027 7.023-22.839 17.079 0 0-.001 0-.001.001l-15.482 55.41c-1.939 6.936-.541 14.221 3.836 19.989 4.514 5.949 11.44 9.361 19.001 9.361zm-8.391-25.313 15.484-55.41c1.007-3.602 4.458-6.117 8.393-6.117h88.763c4.786 0 8.681 3.685 8.681 8.215v55.41c0 4.53-3.895 8.215-8.681 8.215h-104.249c-2.829 0-5.399-1.25-7.053-3.428-.89-1.174-2.248-3.629-1.338-6.885z"/><path d="m492 374.296v-308.456c0-15.164-12.337-27.5-27.5-27.5h-220c-15.164 0-27.5 12.336-27.5 27.5s12.336 27.5 27.5 27.5h4.964l-14.04 41.816c-1.318 3.927.796 8.179 4.723 9.497.792.266 1.597.392 2.388.392 3.134 0 6.056-1.98 7.109-5.115l15.644-46.591h211.712v279.908h-15.499c-1.051-17.522-6.866-34.237-17.01-48.649-2.383-3.387-7.063-4.2-10.449-1.817-3.388 2.384-4.201 7.062-1.816 10.45 9.463 13.446 14.465 29.278 14.465 45.784 0 43.916-35.729 79.644-79.646 79.644-43.916 0-79.645-35.728-79.645-79.644 0-43.917 35.729-79.646 79.645-79.646 16.658 0 32.609 5.086 46.128 14.709 3.377 2.402 8.059 1.613 10.46-1.761 2.401-3.375 1.613-8.057-1.761-10.459-16.074-11.441-35.033-17.489-54.827-17.489-50.25 0-91.472 39.366-94.464 88.878h-49.528v-154.123l16.864-50.226c1.318-3.927-.796-8.179-4.723-9.497-3.928-1.319-8.178.796-9.497 4.723l-15.538 46.275h-49.511v-38.811c0-17.029-14.535-30.883-32.4-30.883s-32.4 13.854-32.4 30.883v38.811h-28.348c-26.191 0-47.5 21.309-47.5 47.5v16.628c-11.458 3.319-19.863 13.899-19.863 26.413s8.405 23.094 19.863 26.412v46.944c-11.528 3.274-20 13.889-20 26.452 0 15.164 12.336 27.5 27.5 27.5h39.226c10.868 26.501 36.935 45.22 67.304 45.22s56.436-18.72 67.305-45.22h84.908c16.642 27.212 46.636 45.412 80.802 45.412s64.161-18.199 80.803-45.412h36.652c15.163 0 27.5-12.336 27.5-27.5 0-12.563-8.472-23.178-20-26.452zm-381.151-202.709c0-8.758 7.806-15.883 17.4-15.883s17.4 7.125 17.4 15.883v38.811h-34.8zm-43.349 53.811h140.553v147.85h-6.719c-10.868-26.5-36.935-45.22-67.304-45.22s-56.436 18.72-67.304 45.22h-31.726v-44.809h33.831c15.164 0 27.5-12.336 27.5-27.5s-12.336-27.5-27.5-27.5h-33.831v-15.541c0-17.92 14.58-32.5 32.5-32.5zm-52.363 75.541c0-6.893 5.607-12.5 12.5-12.5h41.194c6.893 0 12.5 5.607 12.5 12.5s-5.607 12.5-12.5 12.5h-41.194c-6.892 0-12.5-5.607-12.5-12.5zm12.363 112.309c-6.893 0-12.5-5.607-12.5-12.5s5.607-12.5 12.5-12.5h34.907c-.708 4.065-1.097 8.237-1.097 12.5s.39 8.435 1.097 12.5zm106.53 45.22c-31.827 0-57.72-25.893-57.72-57.72s25.893-57.721 57.72-57.721 57.721 25.894 57.721 57.721c-.001 31.827-25.894 57.72-57.721 57.72zm71.623-45.22c.707-4.064 1.097-8.236 1.097-12.5s-.39-8.436-1.097-12.5h67.198c.849 8.732 2.89 17.12 5.958 25zm26.347-347.408c0-6.893 5.607-12.5 12.5-12.5h220c6.893 0 12.5 5.607 12.5 12.5v12.5h-232.5c-6.893 0-12.5-5.607-12.5-12.5zm252.5 347.408h-29.219c3.068-7.88 5.109-16.268 5.958-25h23.261c6.893 0 12.5 5.607 12.5 12.5s-5.607 12.5-12.5 12.5z"/><path d="m134.031 371.178c-16.306 0-29.571 13.266-29.571 29.571s13.266 29.569 29.571 29.569 29.569-13.265 29.569-29.569c0-16.306-13.265-29.571-29.569-29.571zm0 44.14c-8.035 0-14.571-6.536-14.571-14.569 0-8.035 6.537-14.571 14.571-14.571s14.569 6.537 14.569 14.571-6.536 14.569-14.569 14.569z"/><path d="m330.056 379.016c0 20.396 16.594 36.989 36.99 36.989s36.989-16.593 36.989-36.989c0-20.397-16.594-36.991-36.989-36.991-20.397 0-36.99 16.594-36.99 36.991zm58.979 0c0 12.125-9.864 21.989-21.989 21.989s-21.99-9.864-21.99-21.989 9.865-21.991 21.99-21.991 21.989 9.866 21.989 21.991z"/></g></g></svg>