<svg id="Layer_1" enable-background="new 0 0 512 512" viewBox="0 0 512 512" xmlns="http://www.w3.org/2000/svg"><g clip-rule="evenodd" fill-rule="evenodd"><g><g><path d="m266.797 105.362h67.768c4.446 0 8.219 2.774 9.545 7.017l103.32 330.614-146.749 26.504-146.749-26.504 103.32-330.614c1.327-4.243 5.1-7.017 9.545-7.017z" fill="#daa33b"/><path d="m131.866 442.993h337.631c14.577 0 26.503 11.927 26.503 26.503 0 14.577-11.926 26.504-26.503 26.504h-337.631c-14.577 0-26.503-11.927-26.503-26.503-.001-14.578 11.926-26.504 26.503-26.504z" fill="#c78e25"/></g><g><path d="m177.435 16h67.768c4.446 0 8.218 2.774 9.545 7.017l103.32 330.614-146.749 26.504-146.749-26.504 103.32-330.614c1.327-4.243 5.1-7.017 9.545-7.017z" fill="#fdcd56"/><path d="m275.702 90.07 18.434 58.988h-165.634l18.434-58.988zm40.784 130.502 18.435 58.989h-247.203l18.435-58.989z" fill="#f4f6f8"/><path d="m42.504 353.631h337.631c14.577 0 26.503 11.927 26.503 26.503 0 14.577-11.927 26.503-26.503 26.503h-337.631c-14.577.001-26.504-11.926-26.504-26.503 0-14.577 11.927-26.503 26.504-26.503z" fill="#f5b945"/></g></g><path d="m469.499 488.926h-337.63c-10.757 0-19.509-8.747-19.509-19.504 0-10.752 8.752-19.5 19.509-19.5h337.63c10.752 0 19.5 8.748 19.5 19.505 0 10.751-8.748 19.499-19.5 19.499zm-215.545-479.855h-85.273c-2.46.502-4.503 2.305-5.281 4.771l-103.969 332.718h-16.93c-18.469 0-33.503 15.03-33.503 33.503 0 18.474 15.034 33.504 33.503 33.504h113.271l-6.983 22.351h-16.921c-18.479 0-33.508 15.034-33.508 33.503 0 18.478 15.03 33.508 33.508 33.508h337.63c18.474 0 33.504-15.03 33.504-33.503 0-18.474-15.03-33.508-33.504-33.508h-16.921l-103.977-332.713c-.913-2.922-3.619-4.913-6.682-4.913h-56.288l-26.388-84.45c-.778-2.466-2.824-4.269-5.288-4.771zm-83.515 404.496h209.702c18.469 0 33.499-15.03 33.499-33.504s-15.029-33.503-33.499-33.503h-16.93l-73.208-234.269h46.768l101.14 323.627h-274.459zm-147.438-33.504c0-10.757 8.747-19.504 19.5-19.504h337.64c10.747 0 19.5 8.748 19.5 19.504 0 10.752-8.752 19.505-19.5 19.505h-337.64c-10.752 0-19.5-8.752-19.5-19.505zm69.859-93.574h236.909l18.78 60.071h-274.46zm82.37-263.561h72.183l18.77 60.071h-109.724zm-37.212 119.06 14.06-44.989h118.48l14.06 44.989zm-22.346 71.514 17.98-57.516h155.338l17.97 57.516zm209.73 58.988h-228.162l14.06-44.99h200.041z"/></g></svg>