<svg id="Layer_1" enable-background="new 0 0 512 512" viewBox="0 0 512 512" xmlns="http://www.w3.org/2000/svg"><g clip-rule="evenodd" fill-rule="evenodd"><g><path d="m420.24 13.728h19.168c3.287 0 5.976 2.69 5.976 5.976v458.745c0 3.286-2.689 5.976-5.976 5.976h-19.168c-3.287 0-5.976-2.69-5.976-5.976v-458.744c0-3.286 2.689-5.977 5.976-5.977zm-349.64 0h23.152c2.191 0 3.984 1.794 3.984 3.984v462.729c0 2.191-1.793 3.984-3.984 3.984h-23.152c-2.191 0-3.984-1.793-3.984-3.984v-462.729c0-2.19 1.793-3.984 3.984-3.984z" fill="#8d9ca8"/><path d="m426.459 13.728h12.949c3.287 0 5.976 2.69 5.976 5.976v458.745c0 3.286-2.689 5.976-5.976 5.976h-12.949c3.287 0 5.976-2.69 5.976-5.976v-458.744c0-3.286-2.689-5.977-5.976-5.977zm-345.656 0h12.949c2.191 0 3.984 1.794 3.984 3.984v462.729c0 2.191-1.793 3.984-3.984 3.984h-12.949c2.191 0 3.984-1.793 3.984-3.984v-462.729c-.001-2.19-1.793-3.984-3.984-3.984z" fill="#7a8c98"/><path d="m404.381 466.642h50.886c2.66 0 4.919 1.654 5.721 4.191l6.206 19.631c.595 1.882.286 3.762-.881 5.354-1.167 1.593-2.865 2.454-4.84 2.454h-63.299c-1.974 0-3.673-.861-4.84-2.454-1.167-1.592-1.476-3.472-.881-5.354l6.206-19.631c.803-2.537 3.061-4.191 5.722-4.191zm-347.648 0h50.886c2.66 0 4.919 1.654 5.721 4.191l6.206 19.631c.595 1.882.286 3.762-.881 5.354-1.167 1.593-2.866 2.454-4.84 2.454h-63.299c-1.974 0-3.673-.861-4.84-2.454-1.167-1.592-1.476-3.472-.881-5.354l6.206-19.631c.803-2.537 3.061-4.191 5.722-4.191z" fill="#596c76"/><path d="m442.814 466.642h12.453c2.66 0 4.919 1.654 5.721 4.191l6.206 19.631c.595 1.882.286 3.762-.881 5.354-1.167 1.593-2.865 2.454-4.84 2.454h-12.453c1.974 0 3.673-.861 4.84-2.454 1.167-1.592 1.476-3.472.881-5.354l-6.206-19.631c-.802-2.537-3.061-4.191-5.721-4.191zm-347.648 0h12.453c2.66 0 4.919 1.654 5.721 4.191l6.206 19.631c.595 1.882.286 3.762-.881 5.354-1.167 1.593-2.866 2.454-4.84 2.454h-12.453c1.974 0 3.673-.861 4.84-2.454 1.167-1.592 1.476-3.472.881-5.354l-6.206-19.631c-.802-2.537-3.061-4.191-5.721-4.191z" fill="#465a61"/><path d="m14.976 44.998h482.048c3.288 0 5.976 2.694 5.976 5.976v38.55c0 3.282-2.693 5.976-5.976 5.976h-482.048c-3.283-.001-5.976-2.69-5.976-5.976v-38.55c0-3.288 2.689-5.976 5.976-5.976z" fill="#64b5f6"/><path d="m491.377 44.998h5.647c3.288 0 5.976 2.694 5.976 5.976v38.55c0 3.282-2.693 5.976-5.976 5.976h-482.048c-3.283-.001-5.976-2.69-5.976-5.976v-5.184h476.401c3.283 0 5.976-2.694 5.976-5.976z" fill="#42a5f5"/><path d="m14.976 116.162h482.048c3.288 0 5.976 2.693 5.976 5.976v38.55c0 3.282-2.693 5.976-5.976 5.976h-482.048c-3.283 0-5.976-2.689-5.976-5.976v-38.55c0-3.287 2.689-5.976 5.976-5.976z" fill="#64b5f6"/><path d="m491.377 116.162h5.647c3.288 0 5.976 2.693 5.976 5.976v38.55c0 3.282-2.693 5.976-5.976 5.976h-482.048c-3.283 0-5.976-2.689-5.976-5.976v-5.183h476.401c3.283 0 5.976-2.694 5.976-5.976z" fill="#42a5f5"/><path d="m14.976 233.619h482.048c3.288 0 5.976 2.693 5.976 5.976v38.55c0 3.282-2.693 5.976-5.976 5.976h-482.048c-3.283 0-5.976-2.689-5.976-5.976v-38.55c0-3.287 2.689-5.976 5.976-5.976z" fill="#64b5f6"/><path d="m491.377 233.619h5.647c3.288 0 5.976 2.693 5.976 5.976v38.55c0 3.282-2.693 5.976-5.976 5.976h-482.048c-3.283 0-5.976-2.689-5.976-5.976v-5.184h476.401c3.283 0 5.976-2.694 5.976-5.976z" fill="#42a5f5"/><path d="m14.976 304.784h482.048c3.288 0 5.976 2.694 5.976 5.976v38.55c0 3.282-2.693 5.976-5.976 5.976h-482.048c-3.283 0-5.976-2.689-5.976-5.976v-38.55c0-3.288 2.689-5.976 5.976-5.976z" fill="#64b5f6"/><path d="m491.377 304.784h5.647c3.288 0 5.976 2.694 5.976 5.976v38.55c0 3.282-2.693 5.976-5.976 5.976h-482.048c-3.283 0-5.976-2.689-5.976-5.976v-5.183h476.401c3.283 0 5.976-2.694 5.976-5.976z" fill="#42a5f5"/></g><path d="m437.391 108.161h-15.137v-4.664h15.137zm57.58 50.501h-23.626l9.243-34.5h14.383zm-57.58 66.959h-15.137v-50.958h15.137zm57.58 50.501h-23.626l9.243-34.505h14.383zm-57.58 20.66h-15.137v-4.659h15.137zm57.58 50.51h-23.626l9.243-34.51h14.383zm-57.58 111.349h-15.137v-95.348h15.137zm21.316 31.633h-57.815l4.952-15.633h47.959zm-368.961-31.633h-15.137v-95.348h15.137zm21.315 31.633h-57.815l4.952-15.633h47.959zm-94.079-177.492h26.314l-9.196 34.51h-17.118zm57.627-20.659h15.137v4.659h-15.137zm-57.627-50.506h26.314l-9.196 34.505h-17.118zm57.627-66.954h15.137v50.958h-15.137zm-57.627-50.501h26.314l-9.196 34.5h-17.118zm57.627-20.664h15.137v4.664h-15.137zm-57.627-50.502h26.314l-9.196 34.506h-17.118zm57.627-31.265h15.137v15.265h-15.137zm347.645 0h15.137v15.265h-15.137zm72.717 65.771h-23.626l9.243-34.505h14.383zm-93.749 0 9.243-34.505h53.571l-9.243 34.505zm-226.922 0h-53.524l9.243-34.505h53.524zm70.123 0h-53.571l9.243-34.505h53.571zm70.123 0h-53.571l9.243-34.505h53.571zm16.553 0 9.243-34.505h53.571l-9.243 34.505zm-217.68-34.506-9.243 34.505h-53.523l9.243-34.505zm-7.686 55.165v-4.664h300.534v4.664zm68.567 50.501h-53.524l9.243-34.5h53.524zm70.123 0h-53.571l9.243-34.5h53.571zm70.123 0h-53.571l9.243-34.5h53.571zm16.553 0 9.243-34.5h53.571l-9.243 34.5zm-217.68-34.5-9.243 34.5h-53.523l9.243-34.5zm-7.686 101.459v-50.958h300.534v50.958zm68.567 50.501h-53.524l9.243-34.505h53.524zm70.123 0h-53.571l9.243-34.505h53.571zm70.123 0h-53.571l9.243-34.505h53.571zm16.553 0 9.243-34.505h53.571l-9.243 34.505zm-217.68-34.505-9.243 34.505h-53.523l9.243-34.505zm-7.686 55.165v-4.659h300.534v4.659zm234.608 16h53.571l-9.243 34.51h-53.571zm-70.123 0h53.571l-9.243 34.51h-53.571zm-70.123 0h53.571l-9.243 34.51h-53.571zm-70.076 0h53.524l-9.243 34.51h-53.524zm-79.366 34.51 9.243-34.51h53.523l-9.243 34.51zm350.569 0 9.243-34.51h53.571l-9.243 34.51zm0-71.17 9.243-34.505h53.571l-9.243 34.505zm0-117.46 9.243-34.5h53.571l-9.243 34.5zm95.776-55.164c7.734 0 14.006-6.267 14.006-13.973v-38.552c0-7.705-6.272-13.977-14.006-13.977h-43.621v-17.293c0-7.705-6.272-13.973-13.959-13.973h-19.193c-7.687 0-13.959 6.267-13.959 13.973v17.293h-300.533v-19.283c0-6.607-5.376-11.983-11.978-11.983h-23.154c-6.602 0-11.978 5.376-11.978 11.983v19.283h-43.669c-7.687 0-13.959 6.272-13.959 13.977v38.551c0 7.705 6.272 13.973 13.959 13.973h43.668v4.664h-43.668c-7.687 0-13.959 6.272-13.959 13.977v38.551c0 7.706 6.272 13.973 13.959 13.973h43.668v50.958h-43.668c-7.687 0-13.959 6.267-13.959 13.978v38.551c0 7.705 6.272 13.973 13.959 13.973h43.668v4.659h-43.668c-7.687 0-13.959 6.267-13.959 13.978v38.551c0 7.71 6.272 13.982 13.959 13.982h43.668v95.348h-1.886c-6.131 0-11.506 3.928-13.346 9.78l-6.225 19.627c-1.367 4.315-.613 8.861 2.075 12.502 2.641 3.641 6.744 5.72 11.271 5.72h63.285c4.527 0 8.63-2.079 11.318-5.72 2.641-3.641 3.395-8.187 2.028-12.502l-6.178-19.627c-1.839-5.852-7.215-9.78-13.345-9.78h-1.886v-95.348h300.534v95.348h-1.886c-6.13 0-11.506 3.928-13.345 9.78l-6.225 19.627c-1.367 4.315-.613 8.861 2.075 12.502 2.641 3.641 6.744 5.72 11.271 5.72h63.285c4.527 0 8.63-2.079 11.318-5.72 2.641-3.641 3.395-8.187 2.028-12.502l-6.177-19.627c-1.839-5.852-7.215-9.78-13.346-9.78h-1.887v-95.348h43.621c7.734 0 14.006-6.272 14.006-13.982v-38.551c0-7.71-6.272-13.978-14.006-13.978h-43.621v-4.659h43.621c7.734 0 14.006-6.267 14.006-13.973v-38.551c0-7.711-6.272-13.978-14.006-13.978h-43.621v-50.958h43.621c7.734 0 14.006-6.267 14.006-13.973v-38.551c0-7.705-6.272-13.977-14.006-13.977h-43.621v-4.664h43.62z"/></g></svg>