<svg id="Layer_1-2" viewBox="0 0 64 64" xmlns="http://www.w3.org/2000/svg"><g id="Train_Station"><path d="m59 13h4v34h-4z" fill="#4c8ff2"/><path d="m54 13-3-6h12v6z" fill="#66a8ff"/><path d="m9 18h18v4h-18z" fill="#66a8ff"/><path d="m8.30175781 57c-.94824219 0-1.87158203-.32910156-2.60009766-.92675781l-3.24023438-2.66015625c-1.07861328-.88574219-1.61132812-2.23144531-1.42578125-3.60058594l3.53027344-26.07714844c.13378906-.98925781.99902344-1.73535156 2.01269531-1.73535156h22.84277344c1.01367188 0 1.87890625.74609375 2.01269531 1.73535156l3.52978516 26.07617188c.18554688 1.37011719-.34667969 2.71582031-1.42480469 3.6015625l-3.24072266 2.65917969c-.72851562.59863281-1.65136719.92773438-2.60009766.92773438h-19.39648436z" fill="#7dc1ff"/><path d="m39 47h24v10h-24z" fill="#66a8ff"/><path d="m31 1h32v6h-32z" fill="#7dc1ff"/><path d="m39 17h12v6h-12z" fill="#7dc1ff"/><path d="m7 42 2-15h18l2 15z" fill="#657482"/><circle cx="10" cy="50" fill="#ffd278" r="3"/><circle cx="26" cy="50" fill="#ffd278" r="3"/><path d="m7 42 .53320312-4h20.93359376l.53320312 4z" fill="#536170"/><g fill="#292930"><path d="m32.42529297 23.6015625c-.20068359-1.48339844-1.4921875-2.6015625-3.00390625-2.6015625h-1.42138672v-3c0-.55273438-.44775391-1-1-1h-8v-4h8c.55224609 0 1-.44726562 1-1s-.44775391-1-1-1h-18c-.55224609 0-1 .44726562-1 1s.44775391 1 1 1h8v4h-8c-.55224609 0-1 .44726562-1 1v3h-1.42138672c-1.51171875 0-2.80322266 1.11816406-3.00341797 2.6015625l-3.53027343 26.07617188c-.23291016 1.71582031.43359375 3.40136719 1.78173828 4.5078125l3.24072266 2.66113281c.90722656.74414062 2.05566406 1.15332031 3.234375 1.15332031h.08007812l-2.27636719 4.55273438c-.24707031.49414062-.046875 1.09472656.44726562 1.34179688.14355469.07128906.29638672.10546875.44628906.10546875.3671875 0 .72021484-.20214844.89550781-.55273438l.72363281-1.44726562h18.76367188l.72363281 1.44726562c.17529297.35058594.52832031.55273438.89550781.55273438.14990234 0 .30273438-.03417969.44628906-.10546875.49414062-.24707031.69433594-.84765625.44726562-1.34179688l-2.27636719-4.55273438h.08007812c1.17871094 0 2.32714844-.40917969 3.234375-1.15429688l3.24121094-2.66015625c1.34765625-1.10644531 2.01366566-2.79199219 1.78125-4.5078125l-3.52978516-26.07617188zm-22.42529297-4.6015625h16v2h-16zm16.38183594 41h-16.76367188l1-2h14.76367188zm6.52246094-7.359375-3.24023438 2.65917969c-.55029297.45117188-1.24853516.70019531-1.96582031.70019531h-19.39648438c-.71728516 0-1.41552734-.24902344-1.96533203-.69921875l-3.24023438-2.66015625c-.80859375-.6640625-1.20849609-1.67089844-1.06982422-2.6953125l3.53076172-26.07617188c.06689453-.49511719.50585938-.86914062 1.02148438-.86914062h22.84277344c.515625 0 .95458984.37402344 1.02197266.86914062l3.52929688 26.07617188c.13867188 1.02441406-.26074219 2.03125-1.06835938 2.6953125z"/><path d="m63 0h-32c-.55224609 0-1 .44726562-1 1v6c0 .55273438.44775391 1 1 1h13v8h-5c-.55273438 0-1 .44726562-1 1v6c0 .55273438.44726562 1 1 1h12c.55273438 0 1-.44726562 1-1v-6c0-.55273438-.44726562-1-1-1h-5v-8h4.38183594l2.72363281 5.44726562c.16992188.33886719.515625.55273438.89453125.55273438h4v32h-19c-.55273438 0-1 .44726562-1 1v10c0 .55273438.44726562 1 1 1h24c.55273438 0 1-.44726562 1-1v-56c0-.55273438-.44726562-1-1-1zm-13 22h-10v-4h10zm-18-20h30v4h-30zm20.61816406 6h9.38183594v4h-7.38183594zm7.38183594 6h2v32h-2zm2 42h-22v-8h22z"/><path d="m7 43h22c.28808594 0 .56249395-.12402344.75244141-.34082031.18994141-.21777344.27685547-.50585938.23876953-.79101562l-2-15c-.06640625-.49707031-.49023438-.86816406-.99121094-.86816406h-18c-.50097656 0-.92480469.37109375-.99121094.86816406l-2 15c-.03808594.28515625.04882812.57324219.23876953.79101562.18993594.21679688.46435547.34082031.75244141.34082031zm1.14208984-2 .2666626-2h19.18249512l.2666626 2zm1.73339844-13h16.24902344l1.20007324 9h-18.64916992z"/><path d="m10 45c-2.20556641 0-4 1.79394531-4 4s1.79443359 4 4 4 4-1.79394531 4-4-1.79443359-4-4-4zm0 6c-1.10302734 0-2-.89746094-2-2s.89697266-2 2-2 2 .89746094 2 2-.89697266 2-2 2z"/><path d="m26 45c-2.20556641 0-4 1.79394531-4 4s1.79443359 4 4 4 4-1.79394531 4-4-1.79443359-4-4-4zm0 6c-1.10302734 0-2-.89746094-2-2s.89697266-2 2-2 2 .89746094 2 2-.89697266 2-2 2z"/><path d="m19 48h-2c-.55224609 0-1 .44726562-1 1s.44775391 1 1 1h2c.55224609 0 1-.44726562 1-1s-.44775391-1-1-1z"/></g></g></svg>