<svg id="_x30_1_Tree" enable-background="new 0 0 48 48" height="512" viewBox="0 0 48 48" width="512" xmlns="http://www.w3.org/2000/svg"><path d="m20 43 4-20.1092 4 20.1092z" fill="#bc9c73"/><path d="m26.5072 35.4953c-1.173-5.8969-2.5072-12.6045-2.5072-12.6045l-3.7523 18.864z" fill="#ccb9ae"/><path d="m41 19c0-2.3809-1.3903-4.4317-3.4001-5.4011.4606-1.956-.0537-4.0944-1.579-5.6197-1.8712-1.8712-4.6609-2.222-6.9062-1.1045-1.0546-1.722-2.9476-2.8747-5.1147-2.8747s-4.0601 1.1527-5.1146 2.8747c-2.2452-1.1175-5.035-.7667-6.9062 1.1045-1.5253 1.5253-2.0396 3.6637-1.579 5.6197-2.0099.9694-3.4002 3.0202-3.4002 5.4011s1.3903 4.4317 3.4001 5.4011c-.4606 1.956.0537 4.0944 1.579 5.6197 1.8712 1.8712 4.6609 2.222 6.9062 1.1045 1.0546 1.722 2.9476 2.8747 5.1147 2.8747s4.0601-1.1527 5.1146-2.8747c2.2452 1.1175 5.035.7667 6.9062-1.1045 1.5253-1.5253 2.0396-3.6637 1.579-5.6197 2.0099-.9694 3.4002-3.0202 3.4002-5.4011z" fill="#74cc5e"/><path d="m29.1146 6.8747c-1.0545-1.722-2.9475-2.8747-5.1146-2.8747s-4.0601 1.1527-5.1146 2.8747c-2.2452-1.1175-5.035-.7667-6.9062 1.1045-1.5253 1.5253-2.0396 3.6637-1.579 5.6197-2.0099.9694-3.4002 3.0202-3.4002 5.4011s1.3903 4.4317 3.4001 5.4011c-.4606 1.956.0537 4.0944 1.579 5.6197l.0002.0001 22.9082-22.9081c-1.7608-1.0668-3.9437-1.1485-5.7729-.2381z" fill="#a8ea92"/><path d="m6 43c0 .5523.4477 1 1 1h34c.5523 0 1-.4477 1-1s-.4477-1-1-1h-12.1791l-1.5546-7.8154c.8421-.446 1.5959-1.0579 2.204-1.8252 2.519.8896 5.3447.2813 7.2578-1.6318 1.5361-1.5361 2.25-3.6582 1.9814-5.7969 2.0473-1.2735 3.2905-3.4825 3.2905-5.9307s-1.2432-4.6572-3.2905-5.9307c.2686-2.1387-.4453-4.2607-1.9814-5.7969-1.9136-1.9131-4.7397-2.5225-7.2578-1.6318-1.3219-1.6679-3.3106-2.6406-5.4703-2.6406s-4.1484.9727-5.4702 2.6406c-2.5195-.8896-5.3447-.2813-7.2578 1.6318-1.5361 1.5361-2.25 3.6582-1.9814 5.7969-2.0474 1.2735-3.2906 3.4825-3.2906 5.9307s1.2432 4.6572 3.2905 5.9307c-.2686 2.1387.4453 4.2607 1.9814 5.7969 1.9126 1.9121 4.7383 2.5215 7.2578 1.6318.6081.7673 1.3619 1.3792 2.204 1.8252l-1.5546 7.8154h-12.1791c-.5523 0-1 .4477-1 1zm13.7383-12.3975c-.27-.4414-.835-.6016-1.2988-.373-1.9316.9629-4.2432.5938-5.7534-.916-1.2241-1.2246-1.7148-2.9756-1.3125-4.6826.1079-.457-.1162-.9268-.5386-1.1299-1.7486-.8438-2.835-2.5684-2.835-4.501s1.0864-3.6572 2.835-4.501c.4224-.2031.6465-.6729.5386-1.1299-.4023-1.707.0884-3.458 1.3125-4.6826 1.5103-1.5107 3.8232-1.8779 5.7534-.916.4619.2275 1.0273.0674 1.2988-.373.9189-1.501 2.5122-2.3975 4.2617-2.3975s3.3428.8965 4.2617 2.3975c.271.4414.8364.6016 1.2988.373 1.9321-.9619 4.2427-.5947 5.7534.916 1.2241 1.2246 1.7148 2.9756 1.3125 4.6826-.1079.457.1162.9268.5386 1.1299 1.7486.8438 2.835 2.5684 2.835 4.501s-1.0864 3.6572-2.835 4.501c-.4224.2031-.6465.6729-.5386 1.1299.4023 1.707-.0884 3.458-1.3125 4.6826-1.5107 1.5098-3.8228 1.8789-5.7534.916-.4639-.2285-1.0288-.0684-1.2988.373-.9189 1.501-2.5122 2.3975-4.2617 2.3975s-3.3428-.8965-4.2617-2.3975zm2.9009 4.2569c.4433.087.8968.1406 1.3608.1406s.9175-.0536 1.3608-.1406l1.4205 7.1406h-5.5625z" fill="#474747"/></svg>