<svg height="512" viewBox="0 0 128 128" width="512" xmlns="http://www.w3.org/2000/svg"><g><path d="m101.463 101.463h-74.926l37.463-74.926z" fill="#b373f0"/><g fill="#002e49"><path d="m79.219 67.675a1.751 1.751 0 0 0 -1.509-.863h-8.084l-4.1-7.36a1.751 1.751 0 0 0 -3.058 0l-4.1 7.36h-8.078a1.749 1.749 0 0 0 -1.529 2.6l4.082 7.335-4.082 7.334a1.75 1.75 0 0 0 1.529 2.6h8.084l4.1 7.359a1.751 1.751 0 0 0 3.058 0l7.625-13.7 1.579 2.838h-.736a1.75 1.75 0 0 0 0 3.5h3.71a1.75 1.75 0 0 0 1.529-2.6l-4.082-7.334 4.082-7.335a1.75 1.75 0 0 0 -.02-1.734zm-25.952 2.637h3.159l-1.58 2.837zm0 12.872 1.579-2.838 1.58 2.838zm10.733 6.41-1.62-2.91h3.24zm3.568-6.41h-7.136l-3.583-6.436 7.151-12.848 1.62 2.911h-1a1.75 1.75 0 0 0 0 3.5h2.943l3.583 6.436zm4.006-12.872h3.159l-1.579 2.837z"/><path d="m52.956 48.624a1.751 1.751 0 0 0 2.349-.782l.626-1.251a1.751 1.751 0 0 0 -3.131-1.567l-.626 1.251a1.752 1.752 0 0 0 .782 2.349z"/><path d="m101.463 99.713h-72.094l22.486-44.973a1.749 1.749 0 1 0 -3.13-1.564l-23.753 47.505a1.75 1.75 0 0 0 1.565 2.532h74.926a1.75 1.75 0 0 0 0-3.5z"/><path d="m56.633 41.273a1.751 1.751 0 0 0 2.347-.783l5.02-10.04 32.12 64.241a1.75 1.75 0 1 0 3.131-1.564l-33.686-67.372a1.749 1.749 0 0 0 -3.13 0l-6.585 13.171a1.749 1.749 0 0 0 .783 2.347z"/></g></g></svg>