<svg height="512" viewBox="0 0 128 128" width="512" xmlns="http://www.w3.org/2000/svg"><g><g><path d="m57 75.968h14v45.532h-14z" fill="#537980"/><path d="m57 88.22h14v6h-14z" fill="#ededf9"/><path d="m57 94.22h14v6h-14z" fill="#dddde3"/><path d="m101.04 37.89c-1.07-2.86-3.79-9.71-4.13-10.55l3.24-3.45-6.16-5.62-6.34-5.77v.01c-.54 6.61 1.74 12.87 4.75 19.68 3.98 9.02 3.92 18.18 1.63 21.44-3.782 5.4-10.264 7.271-23.03 7.7v-29.048a9.046 9.046 0 0 1 5-8.09l-12-17.692-12 17.692a9.046 9.046 0 0 1 5 8.09v29.049c-12.766-.43-19.248-2.3-23.03-7.7-2.29-3.26-2.35-12.42 1.63-21.44 3.01-6.81 5.29-13.07 4.75-19.68v-.011l-6.34 5.77-6.16 5.62 3.24 3.45c-.34.84-3.06 7.69-4.13 10.55-4.66 12.38-2.76 20.17.74 25.15 3.848 5.48 11.044 10.16 22.935 12.152a4.07 4.07 0 0 1 3.365 4.028 3 3 0 0 0 3 3h14a3 3 0 0 0 3-3 4.07 4.07 0 0 1 3.365-4.028c11.891-1.992 19.087-6.672 22.935-12.152 3.5-4.98 5.4-12.77.74-25.15z" fill="#b360e6"/></g><g fill="#102a3f"><path d="m81.477 72.553c-1.4.35-2.878.658-4.4.914a5.794 5.794 0 0 0 -4.827 5.753 1.252 1.252 0 0 1 -1.25 1.25h-14a1.251 1.251 0 0 1 -1.25-1.25 5.794 5.794 0 0 0 -4.826-5.753c-10.2-1.708-17.739-5.661-21.792-11.433s-4.238-13.69-.532-23.534c1.054-2.816 3.788-9.7 4.112-10.5a1.75 1.75 0 0 0 -.346-1.854l-2.025-2.156 8.259-7.53c-.385 4.622-2.087 9.341-4.6 15.024-4.28 9.7-4.105 19.389-1.462 23.15 4.555 6.5 12.714 8.052 24.4 8.446a1.767 1.767 0 0 0 1.275-.491 1.744 1.744 0 0 0 .534-1.258v-3.054a1.75 1.75 0 0 0 -3.5 0v1.233c-11.426-.539-16.707-2.41-19.847-6.886-1.734-2.468-2.09-10.913 1.8-19.727 3.416-7.729 5.427-13.856 4.9-20.485a1.75 1.75 0 0 0 -2.926-1.206l-12.504 11.394a1.753 1.753 0 0 0 -.1 2.491l2.477 2.638c-.892 2.243-2.853 7.206-3.729 9.547-4.136 10.987-3.817 19.995.946 26.773 4.6 6.556 12.93 11.007 24.078 12.872a2.306 2.306 0 0 1 1.9 2.3 4.749 4.749 0 0 0 3 4.406v20.957a1.75 1.75 0 0 0 3.5 0v-2.614h10.5v17.78h-10.492v-5.379a1.75 1.75 0 1 0 -3.5 0v7.129a1.75 1.75 0 0 0 1.75 1.75h14a1.75 1.75 0 0 0 1.75-1.75v-37.874a4.749 4.749 0 0 0 3-4.406 2.306 2.306 0 0 1 1.905-2.3c1.615-.271 3.188-.6 4.674-.971a1.75 1.75 0 1 0 -.852-3.394zm-12.227 11.417v2.5h-10.5v-2.5zm-10.5 6h10.5v2.5h-10.5zm0 8.5v-2.5h10.5v2.5z"/><path d="m57 54.027a1.75 1.75 0 0 0 1.75-1.75v-4.306a1.75 1.75 0 0 0 -3.5 0v4.306a1.75 1.75 0 0 0 1.75 1.75z"/><path d="m102.679 37.276c-.882-2.356-2.839-7.311-3.73-9.55l2.477-2.638a1.753 1.753 0 0 0 -.1-2.491l-12.5-11.391a1.752 1.752 0 0 0 -2.923 1.171c-.54 6.644 1.472 12.777 4.894 20.52 3.889 8.814 3.532 17.259 1.8 19.729-3.138 4.474-8.418 6.345-19.847 6.884v-27.228a7.252 7.252 0 0 1 4.033-6.524 1.751 1.751 0 0 0 .665-2.548l-12-17.692a1.749 1.749 0 0 0 -2.9 0l-12 17.692a1.751 1.751 0 0 0 .665 2.548 7.252 7.252 0 0 1 4.033 6.524v10.042a1.75 1.75 0 0 0 3.5 0v-10.042a10.728 10.728 0 0 0 -4.281-8.612l9.535-14.053 9.531 14.053a10.728 10.728 0 0 0 -4.281 8.612v29.049a1.751 1.751 0 0 0 1.809 1.749c11.689-.394 19.85-1.943 24.4-8.444 2.646-3.763 2.822-13.451-1.459-23.153-2.511-5.682-4.213-10.4-4.6-15.022l8.257 7.525-2.025 2.156a1.75 1.75 0 0 0 -.344 1.858c.322.8 3.052 7.671 4.114 10.51 3.7 9.838 3.524 17.754-.534 23.528a23.178 23.178 0 0 1 -7.531 6.662 1.75 1.75 0 1 0 1.747 3.033 26.64 26.64 0 0 0 8.647-7.69c4.769-6.775 5.082-15.783.948-26.767z"/><path d="m42.8 65.037a1.75 1.75 0 1 0 -1.343 3.233 39.658 39.658 0 0 0 4.83 1.634 1.75 1.75 0 1 0 .918-3.377 36.117 36.117 0 0 1 -4.405-1.49z"/></g></g></svg>