<svg height="512" viewBox="0 0 128 128" width="512" xmlns="http://www.w3.org/2000/svg"><g><g><path d="m108.905 97.74h-90v-67.48z" fill="#f5c464"/><path d="m18.905 82.078h15.661v15.662h-15.661z" fill="#f79f63"/><path d="m104.114 70.794a1.751 1.751 0 0 0 -2.462.255l-1.573 1.936-62.162-46.607 1.4-1.719a1.75 1.75 0 0 0 -2.717-2.207l-5.3 6.523a1.75 1.75 0 0 0 2.717 2.207l1.692-2.082 62.162 46.605-1.516 1.866a1.75 1.75 0 1 0 2.717 2.207l5.3-6.522a1.751 1.751 0 0 0 -.258-2.462z" fill="#f68f54"/></g><g fill="#250a66"><path d="m110.05 96.34-90-67.481a1.75 1.75 0 0 0 -2.8 1.4v67.481a1.749 1.749 0 0 0 1.75 1.75h38.529a1.75 1.75 0 1 0 0-3.5h-21.118v-13.912a1.749 1.749 0 0 0 -1.75-1.75h-13.911v-46.569l83 62.231h-14.714a1.75 1.75 0 0 0 0 3.5h19.964a1.75 1.75 0 0 0 1.05-3.15zm-77.139-12.512v12.162h-12.161v-12.162z"/><path d="m73.177 95.99h-2.537a1.75 1.75 0 0 0 0 3.5h2.537a1.75 1.75 0 0 0 0-3.5z"/><path d="m31.648 31.436a1.75 1.75 0 0 0 2.462-.254l1.69-2.082 62.166 46.605-1.516 1.866a1.75 1.75 0 1 0 2.717 2.207l5.3-6.522a1.75 1.75 0 0 0 -2.717-2.207l-1.573 1.936-62.165-46.607 1.4-1.719a1.75 1.75 0 1 0 -2.717-2.207l-5.3 6.523a1.749 1.749 0 0 0 .253 2.461z"/></g></g></svg>