<svg id="Tropical_Leaf" enable-background="new 0 0 64 64" viewBox="0 0 64 64" xmlns="http://www.w3.org/2000/svg"><g><g><path d="m45.24297 42.59583c4.23716 1.28838 7.35854.15939 9.21814-1.00949.36596-.23082.71045-.47839 1.03244-.73756.77265-.62188 1.21862-1.55158 1.23333-2.5433.04018-2.70849-.19685-5.32125-.56856-7.5295-.1529-.90839-1.17887-1.3702-1.96725-.89377-1.86225 1.12539-4.3742 2.06093-7.55344 2.06093-.93869 0-1.92723-.07469-2.97768-.26025-.91701-.16198-1.68604-.86876-1.75301-1.79756-.0977-1.35478 1.09434-2.37015 2.33984-2.13947 4.36995.77033 7.31874-.70402 9.03217-2.08538.20323-.16257.39635-.33028.57925-.50075.40079-.37354.56133-.94942.37059-1.46302-1.02086-2.7489-2.28776-5.21191-3.70339-7.41485-.39247-.61075-1.20911-.75967-1.81916-.36611-1.92533 1.24207-4.46854 2.20422-7.75352 2.35961-.02659.0133-.06639.0133-.09299.0133-1.10491 0-2.00885-.90483-1.99474-2.02742.01313-1.05043.93483-1.90403 1.9838-1.96167 2.11986-.11642 3.8076-.66959 5.13734-1.40729.74227-.4118.92138-1.41924.35067-2.0476-4.70304-5.17799-9.83743-8.21352-12.70265-9.58327-1.03668-.4956-2.2311-.4956-3.26778 0-2.86522 1.36975-7.99962 4.40528-12.70265 9.58327-.57072.62835-.39161 1.6358.35067 2.0476 1.32974.73771 3.01748 1.29087 5.13734 1.40729 1.04897.05764 1.97066.91123 1.9838 1.96167.01411 1.12259-.88983 2.02742-1.99474 2.02742-.02659 0-.0664 0-.09299-.0133-3.28498-.15539-5.82819-1.11754-7.75352-2.35961-.61005-.39356-1.42669-.24463-1.81917.36611-1.41563 2.20294-2.68253 4.66595-3.70339 7.41485-.19074.51361-.0302 1.08948.37059 1.46302.18291.17048.37603.33818.57926.50075 1.71343 1.38136 4.66221 2.85571 9.03217 2.08538 1.24542-.23071 2.43742.78457 2.33986 2.13933-.06689.92884-.83594 1.63569-1.75299 1.79769-1.05053.18559-2.03901.26025-2.97772.26025-3.17924 0-5.69119-.93554-7.55344-2.06093-.78839-.47643-1.81435-.01461-1.96725.89377-.37171 2.20825-.60875 4.82101-.56856 7.5295.01471.99172.46068 1.92142 1.23333 2.5433.32199.25916.66649.50674 1.03244.73756 1.8596 1.16888 4.98098 2.29787 9.21814 1.00949 1.0493-.33207 2.16507.26567 2.48384 1.31496.31877 1.0626-.27896 2.16508-1.32826 2.49714-1.76661.53133-3.38705.74382-4.8614.74382-1.7023 0-3.21359-.2911-4.52044-.72431-1.03831-.34419-2.0192.6782-1.63986 1.7042 1.17946 3.19004 3.09612 5.91388 6.04072 7.52102 7.13276 3.8918 17.06813-.15947 17.06813-.15947s9.93538 4.05126 17.06814.15947c2.9446-1.60714 4.86126-4.33098 6.04072-7.52102.37934-1.026-.60154-2.04839-1.63986-1.7042-1.30685.4332-2.81814.72431-4.52044.72431-1.47435 0-3.0948-.21249-4.8614-.74382-1.0493-.33207-1.64703-1.43455-1.32826-2.49714.31871-1.04928 1.43448-1.64701 2.48379-1.31495z" fill="#75d64c"/><path d="m40.46427 10.55816c-1.95251-3.61292-4.06448-6.57491-5.96389-8.87278 2.94878 1.52745 7.57111 4.47624 11.83486 9.16496.57114.62432.39846 1.63382-.34536 2.04558-1.00949.55785-2.21818 1.00941-3.67931 1.24857-.66413-1.38145-1.30167-2.59014-1.8463-3.58633z" opacity=".1"/><path d="m43.9709 17.8636c1.88619-.41176 3.45353-1.11577 4.74191-1.95259.59773-.38517 1.42125-.23908 1.80642.37195 1.42125 2.20488 2.68312 4.66221 3.70591 7.41173.19919.51796.0398 1.0891-.37195 1.46106-.17268.17268-.37187.34536-.57114.50475-1.36807 1.10248-3.54644 2.27128-6.60143 2.29787-.51805-3.83871-1.56743-7.22576-2.70972-10.09477z" opacity=".1"/><path d="m55.11504 48.13466c-1.18217 3.18786-3.10817 5.91078-6.04358 7.51801-3.12147 1.70013-6.77419 1.88611-9.89557 1.54075 1.87281-2.60342 3.99808-6.17645 5.57872-10.59951 1.51424.39846 2.9089.55785 4.19727.55785 1.70021 0 3.21445-.29226 4.51612-.73053 1.03601-.33206 2.01899.69064 1.64704 1.71343z" opacity=".1"/><path d="m56.72227 38.30557c-.0133.9962-.45164 1.92591-1.23528 2.53695-.31885.26567-.66413.51804-1.02279.74382-1.76661 1.10248-4.64891 2.17837-8.55401 1.18217.50475-2.01899.87662-4.18406 1.0493-6.48193.11958-1.50094.13287-2.962.06639-4.35674 2.98859-.0664 5.37953-.95631 7.15936-2.0455.797-.47815 1.81971-.01329 1.9791.88991.37195 2.20498.59773 4.82161.55793 7.53132z" opacity=".1"/><path d="m22.34722 58.23964c-2.59893 0-5.36279-.45486-7.84107-1.80727-2.90448-1.58505-5.07373-4.27426-6.44785-7.99124-.296-.80034-.11024-1.6788.48524-2.29512.59374-.61284 1.46439-.83159 2.26734-.5625 2.75258.91319 5.77946.89582 8.84626-.02604.58333-.18576.91058-.79687.73263-1.39061-.08507-.27951-.27604-.51041-.53732-.64756-.25868-.13541-.55208-.16319-.82638-.07639-4.57374 1.39061-7.93742.16666-9.95997-1.10242-.39583-.25174-.76822-.51909-1.11544-.7986-.97655-.78472-1.54686-1.96005-1.56596-3.22219-.03733-2.55032.16319-5.20828.58072-7.6909.12066-.7144.58593-1.32117 1.24565-1.62411.66319-.30382 1.43228-.26128 2.05814.11719 2.9123 1.75779 6.45045 2.29946 9.91657 1.68575.47829-.0842.98263-.45052 1.02169-.9861.03559-.49479-.21788-.79947-.37152-.93662-.25521-.22917-.59201-.32726-.92013-.26476-4.71263.83072-7.9027-.77603-9.75251-2.26821-.21788-.17448-.42881-.35677-.6276-.54166-.67533-.6302-.90971-1.58158-.59721-2.42358.98697-2.65622 2.26126-5.20915 3.78902-7.58586.31163-.48437.79513-.81944 1.3611-.94183.58246-.12326 1.18315-.01563 1.68748.30902 2.07897 1.342 4.53989 2.08852 7.31329 2.21959.03472.00174.06857.00521.10243.01042.27951-.01302.53732-.12847.7335-.32725.21094-.21354.32465-.49739.32118-.7986-.00694-.55468-.53038-1.0512-1.14322-1.08506-2.05206-.11285-3.90968-.62413-5.52078-1.51821-.59635-.33073-1.00346-.90884-1.11457-1.58505-.11024-.66926.08594-1.3394.53819-1.83766 5.19179-5.71609 10.80458-8.74904 12.97643-9.78723 1.28384-.61197 2.75605-.61197 4.03555 0 2.17185 1.03905 7.78638 4.07288 12.9773 9.78809.45139.49826.64756 1.16839.53645 1.83766-.11111.67621-.51736 1.25346-1.11457 1.58419-1.6111.89409-3.46698 1.40537-5.51904 1.51821-.61457.03385-1.13714.53038-1.14408 1.08419-.00347.30295.10938.5868.32118.79947.19618.19965.45486.3151.73263.32812.03299-.00608.06771-.00955.10243-.01129 2.77254-.13107 5.23432-.87759 7.31242-2.21873.49479-.31857 1.07638-.43055 1.64582-.31857.58506.11371 1.08332.45225 1.4045.95051 1.52602 2.37324 2.80032 4.92617 3.78815 7.58673.3125.84114.07813 1.79252-.59722 2.42272-.19791.18489-.40972.36718-.6302.54427-1.84721 1.4887-5.03814 3.09719-9.74122 2.26647-.33159-.05903-.67013.03385-.92707.26302-.15451.13802-.40798.44271-.37152.93836.0382.53472.5434.90103 1.02082.98523 3.46698.61024 7.0034.07292 9.91656-1.68661.625-.37673 1.39408-.42013 2.05901-.11632.65971.30295 1.12499.90971 1.24478 1.62411.4184 2.48782.61805 5.14752.57986 7.6909-.01736 1.26214-.58854 2.43574-1.56422 3.22219-.34722.27951-.72048.54687-1.11631.79686-2.02255 1.27082-5.39057 2.49651-9.94955 1.10763-.00347-.00174-.00521-.00174-.00868-.00347-.28125-.08507-.57465-.05902-.82985.07639-.26041.13715-.45138.36805-.53645.6493-.17708.59201.1493 1.20311.74478 1.39235 3.05032.91492 6.08327.93402 8.83498.02257.80034-.27083 1.6736-.05035 2.26734.5625.59548.61458.78124 1.49478.48611 2.29338-1.37672 3.72045-3.54684 6.40792-6.44959 7.99297-6.75167 3.68573-15.63699.70832-17.49374.01389-1.17622.43922-5.16836 1.79337-9.65269 1.79337zm-12.22905-10.9912c-.1493 0-.2526.0868-.296.13194-.05729.05902-.17969.21875-.09722.4427 1.22134 3.30378 3.11629 5.67529 5.63362 7.05027 6.68483 3.651 16.21077-.16493 16.30539-.20312.21441-.08681.45486-.08854.67187 0 .09549.03646 9.63358 3.84024 16.30713.20312 2.51386-1.37325 4.40968-3.74649 5.63363-7.05027.0816-.22222-.04167-.38368-.09722-.4427-.05729-.05903-.21701-.18403-.43055-.10938-3.09545 1.0295-6.4982 1.01908-9.91656-.01215-1.52082-.47916-2.37845-2.09546-1.92359-3.60239.22396-.74131.72395-1.34894 1.40797-1.71005.68228-.35764 1.45832-.42881 2.19095-.19965 3.91836 1.1927 6.77076.15972 8.48082-.91319.33507-.21007.65277-.43923.94791-.67707.5625-.45312.89062-1.13194.90103-1.86283.04688-3.08157-.27604-5.70827-.55555-7.36971-.03125-.18489-.15972-.26996-.23264-.30382-.06076-.02951-.22569-.08246-.39756.02257-3.28643 1.98609-7.25687 2.60761-11.14572 1.91491-1.36804-.24045-2.3906-1.31336-2.48608-2.60675-.06597-.91666.28472-1.78731.96006-2.39147.67013-.59808 1.56248-.84808 2.42879-.68749 4.04162.71353 6.74819-.64322 8.31241-1.90363.1875-.15017.36458-.30295.53125-.45833.14583-.13628.20312-.33941.14236-.50347-.9427-2.54077-2.1597-4.97825-3.61802-7.24385-.07118-.11284-.17535-.15364-.25-.1684-.11805-.02431-.23784.0026-.34027.06857-2.33505 1.50693-5.07808 2.3472-8.15269 2.49911-.06424.00955-.125.01563-.17361.01563-.77604 0-1.50346-.30469-2.05033-.85763-.54687-.55381-.84374-1.28905-.83332-2.07029.01736-1.48002 1.28471-2.75344 2.82462-2.83678 1.7795-.09896 3.38018-.53558 4.75516-1.29773.1684-.09375.2118-.25607.22222-.32118.01215-.07639.01736-.22482-.09896-.35243-4.97911-5.48172-10.35059-8.38446-12.42869-9.37838-.79513-.3802-1.70571-.3802-2.50084 0-2.0781.99305-7.44784 3.89493-12.42783 9.37838-.11632.12847-.11285.27604-.10069.35329.01128.06424.05469.22569.22309.31944 1.37499.76301 2.97566 1.19964 4.7569 1.2986 1.53731.08333 2.80466 1.35676 2.82289 2.83678.00955.78124-.28646 1.51648-.83332 2.07029-.54687.55294-1.27429.85763-2.05033.85763-.04861 0-.10937-.00608-.17361-.01563-3.07462-.15191-5.81852-.99218-8.15443-2.49998-.10417-.06684-.22916-.09028-.34722-.06597-.07205.01563-.17274.05729-.24305.16666-1.45745 2.26908-2.67532 4.70568-3.61715 7.24298-.06076.16493-.00347.36718.1441.50434.1658.15538.34201.30816.5269.45572 1.56596 1.26388 4.2786 2.61803 8.32283 1.90536.86544-.15798 1.75259.08941 2.42185.68836.67534.60416 1.02516 1.47481.95919 2.38886-.09288 1.29599-1.11544 2.3689-2.48609 2.61022-3.88972.68663-7.86016.06771-11.14398-1.91491-.17448-.1033-.33507-.05035-.39757-.02344-.07378.03386-.20225.11892-.2335.30382-.40017 2.37671-.59288 4.92529-.55642 7.36798.01042.73263.33941 1.41318.9019 1.86457.296.23784.61284.46701.94964.67881 1.70571 1.06944 4.56593 2.09894 8.48516.90971.72308-.2309 1.50172-.16146 2.18227.20139.68489.36111 1.18575.96701 1.41058 1.70658.45312 1.51214-.40451 3.12671-1.91057 3.60239-3.44615 1.03645-6.83587 1.04339-9.93045.01563-.04692-.0156-.09119-.02254-.13286-.02254z" fill="#101016"/></g><g><path d="m32.00023 63.1113c-1.69913 0-3.06395-1.40094-3.01958-3.09948l.94468-36.16467c.02938-1.12483.94968-2.0214 2.07489-2.0214 1.12521 0 2.04551.89657 2.07489 2.0214l.94468 36.16467c.04438 1.69855-1.32043 3.09948-3.01956 3.09948z" fill="#55a837"/><path d="m31.9999 64c-1.06336 0-2.05727-.42014-2.79945-1.18054-.74218-.76215-1.13627-1.76735-1.1085-2.82983l.94444-36.1663c.04254-1.61804 1.3446-2.88626 2.96351-2.88626s2.92098 1.26822 2.96438 2.88626l.94444 36.1663c.02778 1.06075-.36458 2.06595-1.10763 2.82809-.74132.76214-1.73783 1.18228-2.80119 1.18228zm0-41.28517c-.64843 0-1.16926.50781-1.18575 1.15537l-.94443 36.16457c-.01563.57985.19878 1.12846.60416 1.54338.80902.83159 2.2439.82985 3.05466-.00174.40451-.41492.61805-.9618.60242-1.53991l-.94444-36.1663c-.01736-.64756-.53819-1.15537-1.18662-1.15537z" fill="#101016"/></g></g></svg>