<svg id="Tropical_Fish" enable-background="new 0 0 64 64" viewBox="0 0 64 64" xmlns="http://www.w3.org/2000/svg"><g><g><path d="m47.82997 45.35905c.18677.94323.68134 4.05966-1.06975 7.16357-2.70204 4.78959-8.66867 5.85792-9.01096 5.28682-.18277-.30489 1.27374-1.01641 2.42406-2.81606 1.84812-2.89148 1.50215-6.39589.91652-8.91362 2.24675-.24023 4.49339-.48047 6.74013-.72071z" fill="#f0bd59"/><path d="m38.27431 58.83932c-.30209 0-.96701-.0382-1.28646-.57292-.45833-.76042.21875-1.36979.71181-1.81424.48438-.43576 1.14583-1.03125 1.72569-1.9375 1.31945-2.06597 1.58854-4.83681.79861-8.23438-.05729-.24826-.00521-.50868.14236-.71701.14757-.2066.37674-.34201.63021-.36806l6.73785-.72049c.48438-.04514.87847.25868.96701.71007.3125 1.57639.57813 4.68403-1.16667 7.77604-2.44965 4.34028-7.33333 5.85243-9.1875 5.87674-.02083.00002-.04514.00175-.07291.00175zm3.88541-11.9809c.63021 3.44618.21528 6.34028-1.23611 8.61458-.32813.50868-.67188.9375-1.00174 1.29514 1.83333-.56424 4.53993-1.97917 6.06424-4.68229 1.21007-2.1441 1.26389-4.3125 1.09722-5.75347z" fill="#101016"/></g><g><path d="m40.07247 16.83249c-1.21833-1.93697-3.30939-4.67246-6.67043-6.85831-7.53052-4.89739-18.33643-5.01972-20.19914-1.40927-1.05222 2.03949 1.47637 3.86097 3.00638 10.61629.84742 3.7415.93418 6.99024.84559 9.30101 7.67251-3.88326 15.34509-7.76647 23.0176-11.64972z" fill="#f0bd59"/><path d="m17.05469 29.37144c-.16753 0-.3342-.04688-.48003-.14063-.26476-.17014-.42014-.46788-.40799-.78212.11806-3.08246-.15972-6.13455-.82465-9.07118-.69271-3.05989-1.60417-5.09635-2.2691-6.58247-.82292-1.83941-1.41753-3.1684-.65972-4.63802.60069-1.16319 1.90017-2.03906 3.75781-2.53125 4.29427-1.14236 11.76302-.26823 17.71615 3.6033 2.75347 1.78993 5.0868 4.18837 6.9375 7.13021.13368.21094.17188.46962.10416.71007-.06597.24132-.2309.44358-.45486.55642l-23.01823 11.65019c-.12587.06336-.26389.09548-.40104.09548zm3.08767-22.42708c-1.32986 0-2.52864.13889-3.51563.40017-1.33941.35503-2.27517.93316-2.63368 1.62847-.35156.68142-.05729 1.39757.70226 3.09635.69618 1.55382 1.64844 3.68316 2.38108 6.9158.59114 2.61198.89063 5.30903.8941 8.03733l20.8125-10.53386c-1.61805-2.35069-3.58854-4.28906-5.86458-5.76996-4.05035-2.63281-8.95313-3.7743-12.77605-3.7743z" fill="#101016"/></g><g><path d="m35.24635 48.19164c-.94632 1.50452-2.57053 3.62928-5.18119 5.32712-5.84924 3.80399-14.24261 3.89901-15.68945 1.09464-.8173-1.58415 1.14675-2.99896 2.33517-8.24608.65823-2.90617.72561-5.42959.65681-7.22446 5.95953 3.01626 11.91913 6.0325 17.87866 9.04878z" fill="#f0bd59"/><path d="m19.7908 57.45391c-1.18316 0-2.25955-.12674-3.16059-.36632-1.49826-.39584-2.55122-1.11111-3.04427-2.06598-.63281-1.22743-.15451-2.29688.50781-3.77604.51302-1.14757 1.21615-2.71701 1.75-5.07465.51302-2.26389.72656-4.61806.63628-6.99306-.01215-.31597.14323-.61285.40799-.78299.26563-.17014.60069-.1875.88107-.04514l17.87847 9.04861c.22396.11285.38889.31424.45486.55556.06771.24132.02951.5-.10417.71007-1.44792 2.30556-3.28125 4.18924-5.44879 5.59896-3.4262 2.22917-7.49824 3.19098-10.75866 3.19098zm-1.51476-16.85591c-.02517 2.02431-.25868 4.02431-.69792 5.96528-.57292 2.52951-1.31771 4.19271-1.86198 5.40799-.59809 1.33681-.77257 1.80382-.55035 2.23438.2526.48958.93403.90278 1.92014 1.1632 2.92622.7743 8.30295.13021 12.49479-2.59549 1.68924-1.09896 3.15538-2.52257 4.37066-4.24132z" fill="#101016"/></g><g><path d="m58.69313 34.77529c-3.01832-3.11192-2.02206-4.96691-5.57293-10.7303-3.57905-5.80892-10.53713-9.20459-17.84311-9.20459-9.71079 0-15.93687 4.27387-18.47474 11.47553-.04193.11897-.08285.23875-.12276.35931-.62729 1.89491-2.70761 2.93527-4.54558 2.15677-.01146-.00485-.0229-.00971-.03434-.01458-3.44166-1.46483-5.86379-3.557-7.32867-3.88594-2.60539-.6104-3.88214 3.44191-3.88214 8.79206 0 5.35007 1.27675 9.40246 3.88214 8.79206 1.46467-.3289 3.88732-2.4194 7.32856-3.88384l.19008-.08076c1.67379-.71112 3.52909.20603 4.12622 1.92379.11807.33964.24698.66852.38634.98692 2.8947 6.61377 10.29243 8.70228 18.47489 8.70228 12.42619 0 16.74879-4.11264 21.81416-6.77319 3.50137-1.83899 6.01984-2.08915 6.01984-4.15849s-2.13421-2.10252-4.41796-4.45703z" fill="#ffdc6e"/><path d="m44.20013 49.26874c-2.45323.55111-5.35102.88889-8.92437.88889h-.2845c-4.07107-11.53776-3.18218-24.12446 2.70226-35.19998 3.09332.31999 6.06218 1.24447 8.65777 2.70226-5.75999 9.84884-6.47114 21.35102-2.15116 31.60883z" fill="#79b6ef"/><path d="m27.40022 49.33981c-4.78223-1.10221-8.67556-3.50217-10.59559-7.87554-.14225-.31999-.26671-.65777-.39106-.99555-.12446-.37326-.3201-.72884-.5689-1.01334-.37337-4.14215-.14225-8.30219.67556-12.39106.07107-.12446.12435-.24891.15994-.39117.03559-.12435.08887-.23101.12446-.35547 2.16895-6.11556 6.98665-10.13335 14.32888-11.18229-7.21777 10.40006-8.46224 23.04003-3.73329 34.20442z" fill="#79b6ef"/><path d="m36.46685 50.13983c-.39106.0178-.78223.0178-1.19108.0178-8.17784 0-15.57335-2.07997-18.47114-8.69336-.14225-.31999-.26671-.65777-.39106-.99555-.5867-1.7066-2.45334-2.63108-4.12446-1.91992l-.19564.08887c-3.4311 1.45779-5.86664 3.55556-7.32444 3.87554-2.59549.60439-3.87554-3.4311-3.87554-8.78223s1.28006-9.4044 3.87554-8.80002c1.47559.33778 3.89334 2.41775 7.32444 3.89334h.03559c1.84885.78223 3.92893-.24891 4.55111-2.15115.03559-.12435.08887-.23101.12446-.35547 1.31554-3.7334 3.62663-6.68446 6.87999-8.64008-2.41775 10.41785-.65777 25.93782 12.78223 32.46223z" opacity=".1"/><g fill="#101016"><circle cx="50.487" cy="30.48" r="1.503"/><path d="m7.51649 31.64054c-.125 0-.2526-.02691-.37413-.08333l-2.5599-1.19097c-.44531-.2066-.63802-.73524-.43056-1.18056.20573-.44444.73351-.63802 1.18056-.43056l2.5599 1.19097c.44531.2066.63802.73524.43056 1.18056-.15018.32379-.47136.51389-.80643.51389z"/><path d="m4.95833 38.76988c-.33507 0-.65625-.19097-.80642-.51389-.20747-.44444-.01476-.97396.43056-1.18055l2.5599-1.19097c.44878-.21181.97483-.01215 1.18056.43055.20747.44445.01476.97396-.43056 1.18056l-2.5599 1.19097c-.12153.05729-.24914.08333-.37414.08333z"/><path d="m7.51736 34.61016h-2.71962c-.49132 0-.88889-.39757-.88889-.88889s.39757-.88889.88889-.88889h2.71962c.49132 0 .88889.39757.88889.88889s-.39757.88889-.88889.88889z"/><path d="m35.27778 51.05286c-10.11806 0-16.60764-3.10764-19.28993-9.23611-.14844-.33854-.28646-.6875-.41146-1.05035-.21701-.62326-.67448-1.12847-1.25434-1.38542-.54167-.23958-1.13889-.24479-1.68403-.01215l-.19358.0816c-1.71181.72916-3.20313 1.64236-4.40104 2.37674-1.24306.76215-2.22483 1.36458-3.07726 1.55555-.89844.21181-1.75347.02084-2.47135-.54861-2.17101-1.72222-2.49479-6.44791-2.49479-9.11111 0-2.66319.32378-7.38889 2.49479-9.11024.71875-.56771 1.57639-.75955 2.47917-.54688.84549.19011 1.82726.79254 3.07118 1.55469 1.19792.73524 2.68837 1.64931 4.40278 2.37934.65538.27604 1.34288.26563 1.97049-.01823.66667-.30208 1.18403-.88021 1.41753-1.58594l.1276-.37413c2.74305-7.78386 9.60243-12.07031 19.31424-12.07031 7.81424 0 14.94097 3.68924 18.59896 9.6276 1.71181 2.77691 2.40104 4.68663 2.9566 6.22049.61806 1.71007 1.02604 2.83941 2.49826 4.35764.82986.85417 1.63889 1.37847 2.35417 1.84028 1.19097.77083 2.31423 1.49653 2.31423 3.23438 0 2.06076-1.68576 2.78646-3.82118 3.70486-.78819.33854-1.69097.72569-2.67361 1.24132-.875.46007-1.72743.96354-2.6059 1.48264-4.27952 2.52777-9.13195 5.39235-19.62153 5.39235zm-21.81077-13.63367c.53385 0 1.06771.11111 1.57465.33507 1.02865.4566 1.83594 1.34201 2.21354 2.42882.11111.31771.23177.625.36111.92188 2.37326 5.42188 8.3151 8.17014 17.66146 8.17014 10.00347 0 14.63368-2.73438 18.71875-5.14584.90278-.53299 1.78125-1.05208 2.68229-1.5243 1.03473-.54514 1.97049-.94792 2.79688-1.30209 2.07639-.89236 2.74653-1.25 2.74653-2.07118 0-.73438-.36111-1.00347-1.50174-1.74132-.75521-.48785-1.69444-1.09549-2.66493-2.09549l-.00174-.00174c-1.73611-1.78993-2.24652-3.20226-2.89236-4.98958-.55382-1.53299-1.18229-3.27083-2.79861-5.89236-3.3368-5.41667-9.88368-8.78212-17.08507-8.78212-9.02951 0-15.12847 3.76302-17.63715 10.88194l-.11719.34375c-.38889 1.17535-1.25347 2.13976-2.37153 2.6467-1.08507.49045-2.27951.50781-3.36458.04948-1.87066-.79688-3.42361-1.74913-4.67188-2.51476-1.05903-.64931-1.97396-1.21094-2.53906-1.33767-.38542-.08941-.68403-.02517-.97743.20747-.8802.69792-1.82117 3.09201-1.82117 7.71701s.94097 7.0191 1.82118 7.71875c.29427.23264.59375.29861.96962.20834.57205-.12848 1.48698-.68924 2.54514-1.33854 1.24826-.76389 2.80208-1.71701 4.63802-2.49826l.19358-.0816c.49131-.20834 1.00607-.3125 1.52169-.3125z"/><path d="m35.27604 51.04592h-.28473c-.37674 0-.71354-.23785-.83854-.59375-4.20139-11.90451-3.22309-24.65886 2.75521-35.91146.1684-.31944.5-.50174.87674-.46788 3.20313.33247 6.31597 1.30469 9.00174 2.81163.2066.11719.35938.3125.42188.54254.0625.23003.02951.47569-.09027.68142-5.56945 9.52517-6.33507 20.75694-2.09896 30.81424.10243.24306.09201.5191-.02951.75174-.11979.23438-.33854.40278-.59549.46181-2.72223.6111-5.70487.90971-9.11807.90971zm2.92014-35.13455c-5.39236 10.48785-6.30208 22.28559-2.57118 33.35504 2.71007-.01563 5.13021-.2309 7.35243-.65278-3.88715-10.03472-3.11285-21.07813 2.1493-30.59896-2.11631-1.06423-4.48437-1.78385-6.93055-2.1033z"/><path d="m27.40017 50.22821c-.06597 0-.13368-.00695-.19965-.02257-5.55816-1.28125-9.32986-4.10243-11.21007-8.38368-.13976-.31424-.26476-.65104-.38976-.98611-.12066-.35416-.26042-.6059-.42535-.79514-.12326-.14063-.19878-.31771-.21615-.50521-.37934-4.20833-.14757-8.46267.68924-12.64583.0191-.09375.05295-.18403.10069-.26736.03472-.06163.05556-.11111.06944-.1658.03212-.11545.0625-.19792.09462-.28038 2.40451-6.78299 7.6059-10.85156 15.09462-11.92101.35243-.05122.69705.11285.88194.41319.18576.30122.17535.68316-.02604.97396-7.01389 10.1059-8.34288 22.26129-3.64497 33.34982.13021.30729.07726.6632-.13802.9184-.17099.20487-.42099.31772-.68054.31772zm-10.6927-11.11632c.2309.31945.41927.68576.54948 1.07639.1224.32986.23264.63021.35938.91493 1.45226 3.30729 4.24219 5.62674 8.30642 6.91319-3.82118-10.42882-2.60156-21.99219 3.32465-31.62066-5.71354 1.36111-9.70486 4.86285-11.60504 10.21875-.00781.03472-.03819.11632-.06944.19705-.06424.22396-.1276.39496-.2066.55382-.76476 3.88716-.98698 7.83681-.65885 11.74653z"/></g></g></g></svg>