<svg id="Layer_1" viewBox="0 0 1000 1000" xmlns="http://www.w3.org/2000/svg" data-name="Layer 1"><path d="m263.44 880.83a10.79 10.79 0 0 1 -15.28 0l-51.74-51.73a10.81 10.81 0 0 1 7.64-18.45 10.66 10.66 0 0 1 7.64 3.16l2.42 2.42.19.2 46.52 46.57.29.28 2.32 2.32a10.82 10.82 0 0 1 0 15.23z" fill="#616161"/><path d="m667.87 623.63-206.87 206.88a66.11 66.11 0 0 1 -93.39 0l-25.86-25.86 23.89-23.89 25.85 25.86a32.28 32.28 0 0 0 45.62 0l206.89-206.88a32.29 32.29 0 0 0 0-45.62l-25.67-25.67a32.29 32.29 0 0 0 -45.62 0l-218.39 218.38-46.52 46.51-35.66 35.66-23.89-23.89 35.66-35.66 46.52-46.51 218.37-218.38a66.11 66.11 0 0 1 93.39 0l25.68 25.68a66.11 66.11 0 0 1 0 93.39z" fill="#fbc02d"/><path d="m806.58 288.41a2.47 2.47 0 0 1 -1.73 1.62c-106.09 29.69-190.85 73.97-231.98 97.65a278.73 278.73 0 0 0 -57.68 44.32l-226.38 226.33a32.3 32.3 0 0 0 0 45.61l7.68 7.68-23.89 23.89-7.67-7.67a66.12 66.12 0 0 1 0-93.4l1-1 88.27-88.26.12-.12.11-.12 88.27-88.27 48.62-48.61a279.06 279.06 0 0 0 44.28-57.7c23.77-41.19 68.1-126.16 97.78-232.45a2.49 2.49 0 0 1 1.62-1.74 2.6 2.6 0 0 1 2.45.32c63.21 43.45 120 100.45 168.79 169.39a2.67 2.67 0 0 1 .34 2.53z" fill="#fbc02d"/><g fill="#fff" opacity=".5"><path d="m253.44 890.83a10.79 10.79 0 0 1 -15.28 0l-51.74-51.73a10.81 10.81 0 0 1 7.64-18.45 10.66 10.66 0 0 1 7.64 3.16l2.42 2.42.19.2 46.52 46.57.29.28 2.32 2.32a10.82 10.82 0 0 1 0 15.23z"/><path d="m657.87 633.63-206.87 206.88a66.11 66.11 0 0 1 -93.39 0l-25.86-25.86 23.89-23.89 25.85 25.86a32.28 32.28 0 0 0 45.62 0l206.89-206.88a32.29 32.29 0 0 0 0-45.62l-25.67-25.67a32.29 32.29 0 0 0 -45.62 0l-218.39 218.38-46.52 46.51-35.66 35.66-23.89-23.89 35.66-35.66 46.52-46.51 218.37-218.38a66.11 66.11 0 0 1 93.39 0l25.68 25.68a66.11 66.11 0 0 1 0 93.39z"/><path d="m796.58 298.41a2.47 2.47 0 0 1 -1.73 1.62c-106.09 29.69-190.85 73.97-231.98 97.65a278.73 278.73 0 0 0 -57.68 44.32l-226.38 226.33a32.3 32.3 0 0 0 0 45.61l7.68 7.68-23.89 23.89-7.67-7.67a66.12 66.12 0 0 1 0-93.4l1-1 88.27-88.26.12-.12.11-.12 88.27-88.27 48.62-48.61a279.06 279.06 0 0 0 44.28-57.7c23.77-41.19 68.1-126.16 97.78-232.45a2.49 2.49 0 0 1 1.62-1.74 2.6 2.6 0 0 1 2.45.32c63.21 43.45 120 100.45 168.79 169.39a2.67 2.67 0 0 1 .34 2.53z"/></g><g fill="#413b32"><path d="m330.62 722.74-.19.19-46.52 46.51a16 16 0 1 1 -22.63-22.62l46.52-46.52a16 16 0 0 1 22.82 22.43z"/><path d="m376.94 769.45-11.31 11.31-23.89 23.89-11.31 11.35a16 16 0 0 1 -22.63-22.63l46.52-46.51a16 16 0 0 1 22.62 22.62z"/><path d="m293.5 852.9a42.43 42.43 0 0 0 -7.43-10l-13.93-13.9-37.81-37.81a42.8 42.8 0 1 0 -60.54 60.53l51.74 51.74a42.81 42.81 0 0 0 68-50.56zm-30.06 27.93a10.79 10.79 0 0 1 -15.28 0l-51.74-51.73a10.81 10.81 0 0 1 7.64-18.45 10.66 10.66 0 0 1 7.64 3.16l2.42 2.42.19.2 46.52 46.57.29.28 2.32 2.32a10.82 10.82 0 0 1 0 15.23z"/><path d="m644 554.12-25.67-25.67a32.29 32.29 0 0 0 -45.62 0l-218.39 218.38a16 16 0 0 0 0 22.62l11.31 11.31 25.85 25.86a32.28 32.28 0 0 0 45.62 0l206.9-206.88a32.29 32.29 0 0 0 0-45.62zm-22.63 23-206.9 206.88a.33.33 0 0 1 -.36 0l-25.85-25.85 207.06-207.07a.27.27 0 0 1 .36 0l25.67 25.67a.27.27 0 0 1 0 .36z"/><path d="m832.35 267.4c-51-72-110.45-131.68-176.77-177.28a34.66 34.66 0 0 0 -53 19.18c-28.74 102.91-71.65 185.18-94.68 225.07a246.45 246.45 0 0 1 -39.19 51.06l-59.93 59.93-65.78 65.76-22.63 22.62-78.08 78.08a98 98 0 0 0 0 138.65l7.67 7.67-35.65 35.66a16 16 0 0 0 -.19 22.43l.19.2 46.52 46.57.29.28a16 16 0 0 0 22.33-.29l10.05-10 25.62-25.62 25.88 25.77a98.16 98.16 0 0 0 138.64 0l206.86-206.89a98.15 98.15 0 0 0 0-138.64l-25.68-25.68a98.15 98.15 0 0 0 -138.64 0l-207.06 207.07-7.68-7.68a.24.24 0 0 1 0-.35l226.38-226.39a247 247 0 0 1 51-39.19c39.8-23 121.9-65.8 224.6-94.55a34.66 34.66 0 0 0 18.88-53.44zm-25.77 21a2.47 2.47 0 0 1 -1.73 1.62c-106.09 29.7-190.85 73.98-231.98 97.66a278.73 278.73 0 0 0 -57.68 44.32l-226.38 226.33a32.3 32.3 0 0 0 0 45.61l19 19a16 16 0 0 0 22.63 0l218.36-218.38a66.11 66.11 0 0 1 93.39 0l25.68 25.68a66.11 66.11 0 0 1 0 93.39l-206.87 206.88a66.11 66.11 0 0 1 -93.39 0l-25.86-25.86-11.31-11.31a16 16 0 0 0 -22.63 0l-35.67 35.66-23.89-23.89 35.66-35.66a16 16 0 0 0 0-22.63l-11.31-11.31-7.67-7.67a66.12 66.12 0 0 1 0-93.4l1-1 88.27-88.26.12-.12.11-.12 88.27-88.27 48.62-48.61a279.06 279.06 0 0 0 44.28-57.7c23.77-41.19 68.1-126.16 97.78-232.45a2.49 2.49 0 0 1 1.62-1.74 2.6 2.6 0 0 1 2.45.32c63.21 43.45 120 100.45 168.79 169.39a2.67 2.67 0 0 1 .34 2.53z"/><path d="m254.61 638.13a16 16 0 0 1 -11.31-4.69l-37.64-37.64a16 16 0 0 1 22.63-22.62l37.63 37.63a16 16 0 0 1 -11.31 27.32z"/><path d="m197.71 619.76a16 16 0 0 1 -11.31-27.32l38.53-38.53a16 16 0 1 1 22.63 22.63l-38.56 38.53a16 16 0 0 1 -11.29 4.69z"/><path d="m354.42 544.94-.11.12-.12.12a16 16 0 0 1 -22.51-.12l-11.31-11.32-15-15-11.31-11.32a16 16 0 1 1 22.62-22.63l37.64 37.64a16 16 0 0 1 .1 22.51z"/><path d="m286.1 531.37a16 16 0 0 1 -11.32-27.31l38.53-38.53a16 16 0 0 1 22.63 22.63l-38.53 38.53a16 16 0 0 1 -11.31 4.68z"/><path d="m431.38 461.36a15.94 15.94 0 0 1 -11.32-4.69l-37.63-37.67a16 16 0 0 1 22.63-22.63l37.63 37.63a16 16 0 0 1 -11.31 27.32z"/><path d="m374.48 443a16 16 0 0 1 -11.31-27.32l38.53-38.52a16 16 0 0 1 22.62 22.62l-38.53 38.52a15.92 15.92 0 0 1 -11.31 4.7z"/></g></svg>