<svg id="Capa_1" enable-background="new 0 0 512 512" height="512" viewBox="0 0 512 512" width="512" xmlns="http://www.w3.org/2000/svg"><g><g fill="#356487"><path d="m160 168.273h-32c-4.268 0-7.726 3.459-7.726 7.726s3.459 7.726 7.726 7.726h8.274v24.273c0 4.268 3.459 7.726 7.726 7.726s7.726-3.459 7.726-7.726v-24.273h8.274c4.268 0 7.726-3.459 7.726-7.726s-3.458-7.726-7.726-7.726z"/><path d="m223.257 168.273h-31.999c-4.268 0-7.726 3.459-7.726 7.726s3.459 7.726 7.726 7.726h8.274v24.273c0 4.268 3.459 7.726 7.726 7.726s7.726-3.459 7.726-7.726v-24.273h8.273c4.268 0 7.726-3.459 7.726-7.726s-3.458-7.726-7.726-7.726z"/><path d="m285.969 168.273h-32c-4.268 0-7.726 3.459-7.726 7.726s3.459 7.726 7.726 7.726h8.274v24.273c0 4.268 3.459 7.726 7.726 7.726s7.726-3.459 7.726-7.726v-24.273h8.274c4.268 0 7.726-3.459 7.726-7.726s-3.459-7.726-7.726-7.726z"/></g><path d="m135 207.999h18c3.866 0 7 3.134 7 7v145.936h-32v-145.936c0-3.866 3.134-7 7-7z" fill="#ffe04a"/><path d="m143.453 207.999h-8.453c-3.866 0-7 3.134-7 7v145.936h15.453z" fill="#ffcb39"/><path d="m199 207.999h18c3.866 0 7 3.134 7 7v145.936h-32v-145.936c0-3.866 3.134-7 7-7z" fill="#ffe04a"/><path d="m207.453 207.999h-8.453c-3.866 0-7 3.134-7 7v145.936h15.453z" fill="#ffcb39"/><path d="m261.515 207.999h18c3.866 0 7 3.134 7 7v145.936h-32v-145.936c0-3.866 3.135-7 7-7z" fill="#ffe04a"/><path d="m269.968 207.999h-8.453c-3.866 0-7 3.134-7 7v145.936h15.453z" fill="#ffcb39"/><path d="m480 367.996c-61.468-61.46-144.832-95.987-231.755-95.987h-216.245l-10.302-7.426v-16.826l10.302-7.769h216.245c86.923 0 170.287-34.527 231.755-95.987l10 13.499v196z" fill="#ffe04a"/><path d="m279.995 239.988h-143.99c-39.767 0-72.005 32.238-72.005 72.005 0 39.767 32.238 72.005 72.005 72.005h143.99c39.767 0 72.005-32.238 72.005-72.005 0-39.767-32.238-72.005-72.005-72.005zm40.005 72.011c0 22.091-17.909 40-40 40h-144c-22.091 0-40-17.909-40-40 0-22.091 17.909-40 40-40h144c22.091 0 40 17.908 40 40z" fill="#ffe04a"/><path d="m32 239.988-21.565-10.776c-4.795-2.395-10.435 1.091-10.435 6.451v40.67c0 5.36 5.64 8.847 10.435 6.451l21.565-10.775z" fill="#ffcb39"/><path d="m496 383.996c-8.837 0-16-7.163-16-16v-223.995c0-8.837 7.163-16 16-16 8.837 0 16 7.163 16 16v223.995c0 8.837-7.163 16-16 16z" fill="#ffe04a"/><path d="m495.453 367.996v-223.995c0-5.963 3.441-11.255 8.282-14.009-2.292-1.269-4.929-1.991-7.735-1.991-8.836 0-16 7.163-16 16v223.995c0 8.836 7.164 16 16 16 2.757 0 5.351-.697 7.615-1.925-4.838-2.756-8.162-8.112-8.162-14.075z" fill="#ffcb39"/></g></svg>