<svg id="Layer_1-2" viewBox="0 0 64 64" xmlns="http://www.w3.org/2000/svg"><g id="Tuktuk"><circle cx="54" cy="52" fill="#657482" r="7"/><circle cx="12" cy="52" fill="#657482" r="7"/><path d="m62 31v21h-58c-1.65997314 0-3-1.34002686-3-3v-36c0-4.42004395 3.58001709-8 8-8h49c1.65997314 0 3 1.33996582 3 3 0 1.65997314-1.34002686 3-3 3h-4z" fill="#7dc1ff"/><path d="m38 11h-20.28997803c-.99005127 0-1.82000732.7199707-1.9800415 1.69000244l-2.72998047 17.30999756h3.05999756c1.75 0 3.29998779 1.14001465 3.82000732 2.80999756l3.46002197 11.08001709c.38995361 1.25994873 1.54998779 2.10998535 2.86999512 2.10998535h14.78997803c1.65997314 0 3-1.34002686 3-3v-14z" fill="#657482"/><path d="m17.71002197 11c-.99005127 0-1.82000732.7199707-1.9800415 1.69000244l-2.72998047 17.30999756h3.05999756c1.75 0 3.29998779 1.14001465 3.82000732 2.80999756l3.46002197 11.08001709c.36999512 1.18994141 1.42999268 2.0199585 2.65997314 2.08996582v-34.97998047h-8.28997803z" fill="#4c8ff2"/><path d="m58 5h-49c-4.41827393 0-8 3.58172607-8 8v17h12l2.73345947-17.31195068c.15350342-.97210693.99139404-1.68804932 1.9755249-1.68804932h40.29101562c1.65686035 0 3-1.34313965 3-3s-1.34313965-3-3-3z" fill="#66a8ff"/><path d="m54 43c-4.97058105 0-9 4.02941895-9 9v1h18v-1c0-4.97058105-4.02941895-9-9-9z" fill="#66a8ff"/><path d="m55.59997559 15h-7.59997559l2 16h12z" fill="#536170"/><path d="m26 32v14h15c1.65686035 0 3-1.34313965 3-3v-11z" fill="#66a8ff"/><path d="m31 20h-5v12h6v-11c0-.55230713-.44769287-1-1-1z" fill="#536170"/><path d="m5 34h-4v10h4c1.10455322 0 2-.89544678 2-2v-6c0-1.10461426-.89544678-2-2-2z" fill="#ffd278"/><path d="m1 39v5h4c1.09997559 0 2-.90002441 2-2v-3z" fill="#f9bd5f"/><path d="m56 35h6v4h-6z" fill="#ffd278"/><g fill="#292930"><path d="m63 47.66998291v-16.66998291c0-.13276789-.0248776-.25545185-.07861328-.38934326-.00006104-.00006104 0-.00012207-.00006104-.00018311l-6.39971924-15.99932861c-.00012207-.00036621-.00030518-.00067139-.00042725-.0010376l-1.04400635-2.61010742h2.52282715c2.20556641 0 4-1.79394531 4-4s-1.79443359-4-4-4h-48.99999999c-4.96240234 0-9 4.03710938-9 9v36c0 2.20605469 1.79443359 4 4 4h.06945801c.49462891 3.93994141 3.85876465 7 7.93054199 7s7.43591309-3.06005859 7.93054199-7h24.06945801c0 .55273438.44775391 1 1 1h1.26605225c.8939209 3.47424316 4.07305908 6 7.73394775 6s6.84002686-2.52575684 7.73394775-6h1.26605225c.55224609 0 1-.44726562 1-1v-1c0-1.55249023-.36590576-3.01763916-1-4.33001709zm-2-9.66998291h-4v-2h4zm-.47698975-8h-9.64019775l-1.75-14h5.78997803l5.60021973 14zm-58.52301025-17c0-3.859375 3.14013672-7 7-7h49c1.10302734 0 2 .89746094 2 2s-.89697266 2-2 2h-40.29101562c-1.48583984 0-2.73193359 1.06542969-2.96337891 2.53222656l-2.60009766 16.46777344h-10.14550781zm29 18h-4v-10h4zm-6 13.59368896c-.32556152-.24584961-.57788086-.58917236-.70556641-1.00189209l-3.45996094-11.07910156c-.65380859-2.1015625-2.57275391-3.51269531-4.77441406-3.51269531h-1.88970947l2.55084229-16.15625c.07714844-.48828125.49267578-.84375.98779297-.84375h7.29101562zm2-11.59368896h16v10c0 1.10253906-.89697266 2-2 2h-14zm16-2h-10v-11c0-.55273438-.44775391-1-1-1h-5v-7h10.27911377l5.72088623 17.16210938zm-41 9h4v2c0 .55175781-.44873047 1-1 1h-3zm4-2h-4v-3h3c.55126953 0 1 .44824219 1 1zm6 20c-2.96722412 0-5.43133545-2.16687012-5.90966797-5h11.81933594c-.47833252 2.83312988-2.94244385 5-5.90966797 5zm-8-7c-1.10302734 0-2-.89746094-2-2v-4h3c1.65429688 0 3-1.34570312 3-3v-6c0-1.65429688-1.34570312-3-3-3h-3v-2h14.06005859c1.32128906 0 2.47265625.84667969 2.86523438 2.10742188l3.45947266 11.078125c.52099609 1.68359375 2.05810547 2.81445312 3.82519531 2.81445312h14.79003906c2.20556641 0 4-1.79394531 4-4v-14c0-.10742188-.01708984-.21386719-.05126953-.31640625l-5.56152344-16.68359375h13.93554688l.80004883 2h-6.12280273c-.28662109 0-.56005859.12304688-.74951172.33789062-.18994141.21582031-.27832031.50195312-.24267578.78613281l2 16c.0625.5.48779297.87597656.9921875.87597656h11v2h-5c-.55224609 0-1 .44726562-1 1v4c0 .55273438.44775391 1 1 1h5v4.87072754c-1.80529785-1.77288818-4.27581787-2.87072754-7-2.87072754-5.17657471 0-9.44592285 3.95410156-9.94934082 9h-40.05065919zm50 7c-2.56646729 0-4.81420898-1.65710449-5.64355469-4h11.28710938c-.8293457 2.34289551-3.0770874 4-5.64355469 4zm-8-6c0-4.41113281 3.58886719-8 8-8s8 3.58886719 8 8z"/><path d="m32 37h-2c-.55224609 0-1 .44726562-1 1s.44775391 1 1 1h2c.55224609 0 1-.44726562 1-1s-.44775391-1-1-1z"/></g></g></svg>