<svg enable-background="new 0 0 512 512" height="512" viewBox="0 0 512 512" width="512" xmlns="http://www.w3.org/2000/svg"><g id="_x33_8_Tulip"><g><g><g fill="#a1d51c"><path d="m401.43 343.701c-8.075 1.843-22.406 3.531-39.646 2.674-11.658-.052-25.808 0-38.088.104-21.394.156-38.556 18.564-36.089 39.802.167 1.512.411 2.905.755 4.213 1.372 5.221-1.471 10.735-6.587 12.457-7.931 2.67-15.293 6.87-21.663 12.409-1.642 1.423-3.578 2.242-5.575 2.605.195 4.202.461 8.401.748 12.613.314 4.612.406 9.251.766 13.861h3.68c2.212-6.84 6.233-13.031 11.857-17.707 8.357-6.921 19.172-11.384 31.409-11.185 4.419.072 8.205 3.107 9.562 7.313 1.345 4.169 3.24 8.054 5.581 11.323 7.322 10.126 17.24 11.554 27.885 8.334 7.166-2.207 13.527-6.413 18.668-11.839 7.997-8.464 21.004-21.913 29.391-39.412 7.763-14.15 12.177-31.26 13.812-41.515.595-3.74-2.78-6.881-6.466-6.05z"/><path d="m242.933 405.516c-.4-6.45-.825-12.862-1.018-19.303-7.054-9.755-15.431-18.506-24.614-25.613-4.737-3.667-5.328-10.665-1.267-15.07 1.913-2.074 3.573-4.281 4.899-6.555 6.231-10.723 3.505-20.251-3.713-28.612-4.855-5.608-11.242-9.658-18.226-12.125-10.879-3.842-28.326-10.178-47.539-10.697-15.942-1.324-33.207 1.584-43.151 4.232-3.635.961-5.089 5.27-2.856 8.282 4.933 6.569 12.229 18.875 18.408 34.817 4.648 10.567 10.411 23.367 15.448 34.453 8.75 19.265 32.35 27.391 50.576 16.591 3.123-1.808 5.624-4.071 7.486-6.677 3.554-4.975 10.648-5.873 15.235-1.83 9.951 8.773 18.583 19.801 24.844 31.847 1.508 2.922 2.596 6.026 3.311 9.217h2.926c-.32-4.307-.481-8.633-.749-12.957z"/><path d="m258.569 227.8v269.421c0 6.352-5.15 11.502-11.502 11.502-6.352 0-11.502-5.15-11.502-11.502v-269.421z"/></g><path d="m255.352 6.435c-2.494-3.437-7.276-4.18-10.779-1.78-47.906 32.819-52.567 136.482-10.22 151.188 14.725 5.113 30.938-.282 41.144-12.064 7.625-8.803 11.674-19.888 12.923-32.76.938-9.667-.074-19.443-2.508-28.846-9.193-35.511-19.416-60.381-30.56-75.738z" fill="#f8664f"/><path d="m190.891 32.536c1.373-4.019 5.724-6.136 9.778-4.873 55.442 17.271 90.397 114.974 54.25 141.489-12.569 9.219-29.652 8.834-42.872.576-9.877-6.17-17.009-15.573-21.99-27.507-3.741-8.963-5.65-18.605-6.09-28.307-1.661-36.645.792-63.422 6.924-81.378z" fill="#e84d3d"/><path d="m303.244 32.536c-1.372-4.019-5.724-6.136-9.778-4.873-55.442 17.271-90.397 114.974-54.25 141.489 12.569 9.219 29.652 8.834 42.872.576 9.877-6.17 17.009-15.573 21.99-27.507 3.741-8.963 5.65-18.605 6.09-28.307 1.661-36.645-.792-63.422-6.924-81.378z" fill="#e84d3d"/><path d="m327.474 53.771c-1.375-3.65-5.341-5.705-9.114-4.717-82.801 21.681-136.076 167.608-82.706 206.757 18.268 13.4 43.099 12.84 62.314.837 13.922-8.696 24.09-21.811 31.295-38.415 5.941-13.69 8.887-28.501 9.55-43.41 2.461-55.312-1.557-95.091-11.339-121.052z" fill="#f8664f"/><g><path d="m315.4 138.642c-.028-2.924-.104-5.771-.183-8.565-.048-1.799 1.366-3.298 3.165-3.346 1.796-.165 3.298 1.366 3.346 3.163.081 2.835.158 5.722.186 8.687.021 2.165-1.611 3.269-3.248 3.28-1.621.01-3.245-1.052-3.266-3.219z" fill="#fff"/></g><g><path d="m316.016 190.673c-1.771-.305-2.962-1.99-2.654-3.763 1.38-8.008 1.684-18.144 1.959-31.869.043-2.149 1.641-3.146 3.244-3.115 1.653.032 3.311 1.158 3.27 3.242-.2 10.107-.405 23.316-2.056 32.851-.309 1.796-2.02 2.961-3.763 2.654z" fill="#fff"/></g><path d="m166.661 53.771c1.375-3.65 5.341-5.705 9.114-4.717 82.801 21.681 136.076 167.608 82.706 206.757-18.268 13.4-43.099 12.84-62.314.837-13.922-8.696-24.09-21.811-31.295-38.415-5.941-13.69-8.887-28.501-9.55-43.41-2.461-55.312 1.557-95.091 11.339-121.052z" fill="#f8664f"/><path d="m258.468 255.807c-5.029 3.674-10.552 6.305-16.336 7.947 45.466-41.688-2.241-173.292-78.426-201.119.912-3.127 1.902-6.071 2.944-8.859 1.381-3.648 5.341-5.706 9.119-4.716 82.804 21.677 136.086 167.612 82.699 206.747z" opacity=".1"/></g><g><path d="m406.087 412.298c-1.511-.98-3.527-.555-4.506.954-1.634 2.514-3.346 4.969-5.091 7.305-1.076 1.443-.779 3.483.662 4.56 1.445 1.074 3.479.779 4.56-.662 1.827-2.448 3.621-5.023 5.331-7.651.978-1.509.55-3.527-.956-4.506z"/><path d="m385.798 433.579c-4.548 5.135-8.249 8.906-8.501 9.173-8.296 8.77-18.939 15.238-31.195 17.839-1.758.374-2.88 2.104-2.506 3.865.326 1.529 1.677 2.578 3.183 2.578 3.014 0 20.974-4.717 35.225-19.778.246-.261 4.154-4.257 8.669-9.356 1.193-1.349 1.069-3.404-.277-4.598-1.349-1.193-3.405-1.071-4.598.277z"/><path d="m400.53 340.519c-3.812.875-17.885 3.641-38.912 2.603-10.661-.041-24.554-.008-38.106.104-11.417.084-22.292 5.02-29.836 13.547-8.957 10.122-11.566 23.38-8.643 34.548.957 3.623-1 7.371-4.46 8.537-6.853 2.314-13.18 5.71-18.918 10.002v-141.061c13.451 1.118 26.683-2.386 37.866-9.394 13.905-8.697 24.857-22.111 32.554-39.871 5.784-13.341 9.089-28.332 9.829-44.558 2.41-54.443-1.473-95.605-11.544-122.352-1.987-5.242-7.56-8.137-12.992-6.71-2.351.616-4.692 1.373-7.027 2.193-1.101-6.075-2.49-11.669-4.176-16.615-1.954-5.715-8.053-8.761-13.844-6.929-6.461 2.008-12.791 5.136-18.871 9.194-4.905-11.862-10.15-21.697-15.622-29.237-3.496-4.809-10.346-5.944-15.259-2.544-9.988 6.833-18.709 17.097-25.42 29.764-5.117-3.104-10.367-5.528-15.668-7.174-5.839-1.832-11.911 1.216-13.827 6.916-1.695 4.907-3.09 10.498-4.201 16.602-2.316-.808-4.651-1.559-7.023-2.18-5.425-1.422-11.01 1.466-12.989 6.715v.003c-10.081 26.757-13.964 67.921-11.544 122.347.72 16.221 4.023 31.213 9.816 44.561 7.72 17.788 18.674 31.208 32.556 39.882 11.433 7.142 24.613 10.567 37.864 9.455v100.867c-4.111-4.25-8.453-8.188-13.012-11.702-3.215-2.491-3.644-7.278-.852-10.302 11.368-12.294 12.794-26.103 1.249-39.482-8.45-9.813-20.106-13.202-20.523-13.407-11.32-3.992-28.427-10.03-47.439-10.539-15.679-1.305-33.146 1.374-44.248 4.318-5.849 1.546-8.283 8.478-4.636 13.396 2.313 3.064 10.44 14.575 18.04 34.154 5.572 12.72 12.084 27.086 15.465 34.508 4.659 10.277 13.506 18.116 24.274 21.506 16.387 5.158 32.594-1.484 39.398-11.061 2.391-3.358 7.258-4.065 10.43-1.272 8.575 7.581 16.109 16.856 21.854 26.853v90.51c0 8.197 6.577 14.773 14.776 14.773 8.13 0 14.745-6.628 14.745-14.773v-51.919c6.764-11.82 9.131-13.799 11.852-16.056 5.873-4.883 15.712-10.651 29.279-10.425 2.926.033 5.537 2.058 6.504 5.043 5.782 17.832 18.4 27.535 37.538 21.778 12.581-3.888 20.331-13.098 20.712-13.417 8.331-8.783 20.923-22.06 29.228-39.378 7.659-13.956 12.341-31.149 14.17-42.581.961-6.013-4.462-11.082-10.407-9.74zm-81.511-288.306c2.16-.565 4.458.631 5.247 2.712 9.755 25.91 13.501 66.204 11.129 119.757-.702 15.43-3.829 29.648-9.295 42.261-7.163 16.526-17.269 28.956-30.037 36.94-12.357 7.745-26.924 10.347-40.292 7.469 1.522-.902 3.021-1.857 4.466-2.917 19.89-14.59 27.231-44.296 20.137-81.499-4.469-23.441-14.775-49.021-29.545-71.488 19.255-27.846 43.401-46.733 68.19-53.235zm-24.755-21.434c2.41-.756 4.936.476 5.735 2.817 1.697 4.974 3.078 10.682 4.151 16.927-20.912 9.002-40.782 26.014-57.253 49.187-2.801-3.948-5.732-7.788-8.809-11.472 12.788-28.679 34.161-50.617 56.176-57.459zm-47.998-23.437c2.069-1.44 4.834-.997 6.292 1.008 5.39 7.425 10.584 17.312 15.466 29.352-7.649 5.979-14.804 13.462-21.163 22.202-7.274-9.979-15.513-18.274-24.256-24.547 6.254-11.998 14.375-21.665 23.661-28.015zm-52.446 26.241c.784-2.331 3.295-3.562 5.717-2.801 15.703 4.876 31.038 17.221 43.387 34.836-3.489 5.368-6.679 11.138-9.538 17.234-12.708-13.986-27.453-25.404-43.738-32.369 1.08-6.266 2.467-11.961 4.172-16.9zm3.9 220.3c-12.921-8.071-22.745-20.16-30.032-36.95-5.476-12.615-8.598-26.831-9.282-42.256-2.382-53.54 1.364-93.834 11.132-119.762.784-2.086 3.086-3.275 5.242-2.712 50.923 13.336 89.362 74.372 99.195 125.952 6.605 34.638.193 61.983-17.59 75.028-16.699 12.247-39.727 12.529-58.665.7zm16.87 121.08c-6.074-5.344-15.411-4.13-20.05 2.384-5.191 7.311-18.466 12.92-32.131 8.623-9.005-2.837-16.404-9.392-20.3-17.989-3.376-7.412-9.872-21.745-15.379-34.299-7.847-20.231-16.417-32.358-18.842-35.569-.866-1.17-.348-2.821 1.084-3.198 10.585-2.804 27.198-5.361 42.225-4.112 18.17.491 34.696 6.32 45.632 10.178.81.395 9.969 2.475 17.755 11.516 8.393 9.726 9.072 19.793-1.099 30.811-5.36 5.808-4.601 15.03 1.654 19.877 6.089 4.691 11.792 10.147 16.994 16.192v15.255c-5.094-7.219-11.029-13.907-17.543-19.669zm32.319 130.507c-4.588 0-8.262-3.653-8.262-8.259v-229.301c2.828-.573 5.602-1.363 8.31-2.369 2.672.98 5.402 1.762 8.183 2.321v229.348c.001 4.555-3.691 8.26-8.231 8.26zm157.596-156.244c-1.743 10.895-6.191 27.251-13.529 40.635-7.946 16.554-20.111 29.383-28.164 37.874-.794.668-6.22 8.066-17.885 11.666-15.203 4.581-24.653-2.807-29.442-17.554-1.824-5.646-6.898-9.483-12.605-9.549-12.29-.267-23.895 3.916-33.533 11.928-2.48 2.055-4.551 3.991-7.692 8.61v-14.702c6.137-4.87 11.282-8.823 20.999-12.103 6.697-2.257 10.509-9.448 8.679-16.361-2.367-9.14-.264-20.118 7.221-28.582 6.32-7.142 15.435-11.28 25.009-11.348 13.534-.117 27.399-.148 37.877-.109 21.719 1.081 36.523-1.84 40.536-2.758 1.489-.33 2.757.932 2.529 2.353z"/><path d="m134.066 172.532c1.848 0 3.322-1.53 3.257-3.374-.697-19.526-.593-37.503.308-53.426.102-1.796-1.272-3.333-3.069-3.435-1.743-.056-3.331 1.275-3.435 3.069-.911 16.122-1.018 34.299-.313 54.026.061 1.759 1.506 3.14 3.252 3.14z"/><path d="m135.641 99.453c1.688.215 3.39-1.033 3.59-2.883.349-3.178.774-6.45 1.341-10.3.265-1.779-.967-3.435-2.745-3.697-1.748-.27-3.435.962-3.697 2.745-.58 3.934-1.018 7.285-1.371 10.544-.197 1.79 1.096 3.398 2.882 3.591z"/></g></g></g></svg>