<svg id="Capa_1" enable-background="new 0 0 512.118 512.118" height="512" viewBox="0 0 512.118 512.118" width="512" xmlns="http://www.w3.org/2000/svg"><g><path d="m240.449 271.651h31.062v201.905h-31.062z" fill="#b1abb4"/><path d="m240.449 271.651h15v201.905h-15z" fill="#9e97a1"/><g><path d="m255.98 293.373c-34.321 0-62.243-27.922-62.243-62.243v-223.627h31.3v223.626c0 17.062 13.881 30.943 30.943 30.943s30.943-13.881 30.943-30.943v-223.626h31.3v223.626c0 34.321-27.922 62.244-62.243 62.244z" fill="#c8c3ca"/></g><g fill="#b1abb4"><path d="m270.98 262.073c17.062 0 30.943-13.881 30.943-30.943v-223.627h-15v223.626c0 14.476-9.994 26.658-23.443 30.019 2.403.601 4.914.925 7.5.925z"/><path d="m208.737 231.129v-223.626h-15v223.626c0 34.321 27.922 62.243 62.243 62.243 2.54 0 5.039-.171 7.5-.468-30.795-3.717-54.743-29.994-54.743-61.775z"/></g><circle cx="255.98" cy="473.556" fill="#c8c3ca" r="31.062"/><path d="m244.918 473.556c0-13.655 8.815-25.244 21.062-29.408-3.139-1.067-6.5-1.655-10-1.655-17.155 0-31.062 13.907-31.062 31.062s13.907 31.062 31.062 31.062c3.5 0 6.861-.587 10-1.655-12.247-4.162-21.062-15.751-21.062-29.406z" fill="#b1abb4"/><g><path d="m318.22 0h-31.3c-4.143 0-7.5 3.358-7.5 7.5v223.63c0 12.925-10.516 23.44-23.44 23.44s-23.44-10.515-23.44-23.44v-82.92c0-4.142-3.358-7.5-7.5-7.5s-7.5 3.358-7.5 7.5v82.92c0 21.196 17.244 38.44 38.44 38.44s38.44-17.244 38.44-38.44v-216.13h16.3v100.53c0 4.142 3.357 7.5 7.5 7.5s7.5-3.358 7.5-7.5v-108.03c0-4.142-3.357-7.5-7.5-7.5z"/><path d="m318.22 140.71c-4.143 0-7.5 3.358-7.5 7.5v82.92c0 30.184-24.557 54.74-54.74 54.74-30.184 0-54.74-24.556-54.74-54.74v-216.13h16.3v100.53c0 4.142 3.358 7.5 7.5 7.5s7.5-3.358 7.5-7.5v-108.03c0-4.142-3.358-7.5-7.5-7.5h-31.3c-4.142 0-7.5 3.358-7.5 7.5v223.63c0 30.386 19.541 56.28 46.71 65.815v145.7c-9.421 7.037-15.532 18.274-15.532 30.911 0 21.264 17.299 38.563 38.562 38.563 21.264 0 38.562-17.299 38.562-38.563 0-12.637-6.111-23.874-15.532-30.911v-53.695c0-4.142-3.357-7.5-7.5-7.5s-7.5 3.358-7.5 7.5v46.89c-5.353-1.129-10.707-1.129-16.06 0v-135.447c5.353.636 10.707.635 16.06 0v55.867c0 4.142 3.357 7.5 7.5 7.5s7.5-3.358 7.5-7.5v-59.315c27.169-9.535 46.71-35.429 46.71-65.815v-82.92c0-4.142-3.357-7.5-7.5-7.5zm-38.678 332.846c0 12.992-10.57 23.563-23.562 23.563s-23.562-10.57-23.562-23.563 10.57-23.562 23.562-23.562 23.562 10.569 23.562 23.562z"/><path d="m447.657 95.506c-2.929-2.928-7.676-2.929-10.606 0-2.929 2.929-2.929 7.678 0 10.606 14.203 14.204 14.203 37.314 0 51.518-2.929 2.929-2.929 7.678.001 10.606 3.535 2.929 7.071 2.929 10.606 0 20.05-20.052 20.05-52.679-.001-72.73z"/><path d="m374.925 64.443c-2.929 2.929-2.929 7.678 0 10.606 30.716 30.716 30.786 82.857 0 113.643-2.929 2.929-2.929 7.678 0 10.606 3.536 2.929 7.072 2.929 10.607 0 37.18-37.18 37.18-97.676 0-134.855-2.929-2.928-7.677-2.928-10.607 0z"/><path d="m74.91 95.506c-2.928-2.929-7.677-2.929-10.606 0-19.841 19.84-19.841 52.89 0 72.73 3.535 2.929 7.071 2.929 10.606 0 2.929-2.929 2.929-7.678 0-10.606-14.054-14.054-14.054-37.464 0-51.518 2.929-2.928 2.929-7.677 0-10.606z"/><path d="m137.034 64.443c-2.929-2.929-7.678-2.929-10.606 0-37.18 37.18-37.18 97.676 0 134.855 3.535 2.929 7.071 2.929 10.606 0 2.929-2.929 2.929-7.678 0-10.606-30.716-30.717-30.785-82.856 0-113.643 2.929-2.928 2.929-7.677 0-10.606z"/></g></g></svg>