<svg id="Layer_1" viewBox="0 0 96 96" xmlns="http://www.w3.org/2000/svg" data-name="Layer 1"><path d="m88.39 15.43c3.14-4.28 4-8.36 2.04-10.26l-.15-.15c-1.91-1.97-6-1.12-10.27 2.03-.33-1.32-1.01-2.23-1.97-2.59-2.48-.93-5.76 2.15-7.62 7.14h-.01c-.44-.73-1.04-1.26-1.77-1.53-3.1-1.16-7.27 2.83-9.68 9.27-.29.75-.66 1.79-.96 2.9-2.28-.77-4.63-1.07-7.03-.9-6.8.5-14.15 4.78-21.86 12.74-16.53 17.06-25.31 55.62-24.54 57.29l.03.06c.12.23.38.52.92.59.06.01.14.02.23.02 2.06 0 11.17-2.22 21.88-6.27.09-.02.17-.05.25-.09 3.79-1.45 7.77-3.12 11.71-5 .06-.02.11-.05.17-.08 7.71-3.71 15.22-8.23 20.74-13.44.03-.03.07-.04.1-.07.02-.02.03-.05.05-.08.42-.4.83-.79 1.22-1.2 7.71-7.96 11.76-15.45 12.03-22.26.09-2.08-.18-4.12-.8-6.09 1.13-.3 2.21-.68 2.99-.98 6.45-2.42 10.44-6.58 9.28-9.68-.28-.74-.8-1.33-1.55-1.77h.01c5-1.88 8.07-5.16 7.15-7.63-.36-.97-1.27-1.65-2.59-1.97zm-20.86 40.22-16.11-16.11c-.39-.39-1.03-.39-1.42 0s-.39 1.02 0 1.41l16.39 16.39c-1.63 2.3-3.61 4.66-5.96 7.08-.17.18-.36.36-.55.54l-16.94-16.94c-.39-.39-1.03-.39-1.42 0s-.39 1.02 0 1.41l16.91 16.91c-2.38 2.16-5.1 4.19-8.05 6.1l-15.93-15.93c-.39-.39-1.03-.39-1.42 0s-.39 1.02 0 1.41l15.61 15.61c-2.92 1.79-6.02 3.46-9.16 4.99l-12.08-12.08c-.39-.39-1.03-.39-1.42 0s-.39 1.02 0 1.41l11.58 11.58c-3.34 1.57-6.69 2.98-9.91 4.22l-7.4-7.4c-.39-.39-1.03-.39-1.42 0s-.39 1.02 0 1.41l6.77 6.77c-8.89 3.31-16.41 5.27-19.02 5.58 1.02-5.85 8.91-38.99 23.97-54.54 7.35-7.59 14.27-11.68 20.57-12.13.39-.03.78-.04 1.17-.04 4.64 0 9.07 2.02 13.19 6.01 4.47 4.32 6.63 9.09 6.42 14.16-.15 3.8-1.62 7.88-4.37 12.18zm15.59-32.5c-1.12.43-2.2.75-2.97.89l-.55.07c-.52.07-.9.53-.87 1.06.03.52.47.93.99.94 2.02.01 3.46.54 3.77 1.39.63 1.68-2.7 5.08-8.11 7.11-1.04.4-2.07.73-2.98.97-1.17-2.7-3.02-5.28-5.53-7.71-2.24-2.17-4.57-3.8-6.99-4.89.23-.9.56-1.91.95-2.93 2.02-5.4 5.41-8.74 7.11-8.11.84.32 1.37 1.76 1.39 3.77 0 .53.42.96.94.99s.99-.34 1.05-.87l.06-.49c.16-.83.47-1.9.91-3.03 1.57-4.21 4.04-6.35 5.05-5.98.43.16.87 1.04.88 2.62 0 .39.23.74.58.91.35.16.77.1 1.07-.15 4.12-3.51 7.87-4.44 8.98-3.29l.18.17c1.14 1.11.2 4.85-3.3 8.98-.25.29-.31.71-.15 1.06.16.36.52.58.9.59 1.59 0 2.46.44 2.62.88.38 1-1.76 3.47-5.98 5.05z"/><path d="m89.1 18.1c.38 1-1.76 3.47-5.98 5.05-1.12.43-2.2.75-2.97.89l-.55.07c-.52.07-.9.53-.87 1.06.03.52.47.93.99.94 2.02.01 3.46.54 3.77 1.39.63 1.68-2.7 5.08-8.11 7.11-1.04.4-2.07.73-2.98.97-1.17-2.7-3.02-5.28-5.53-7.71-2.24-2.17-4.57-3.8-6.99-4.89.23-.9.56-1.91.95-2.93 2.02-5.4 5.41-8.74 7.11-8.11.84.32 1.37 1.76 1.39 3.77 0 .53.42.96.94.99s.99-.34 1.05-.87l.06-.49c.16-.83.47-1.9.91-3.03 1.57-4.21 4.04-6.35 5.05-5.98.43.16.87 1.04.88 2.62 0 .39.23.74.58.91.35.16.77.1 1.07-.15 4.12-3.51 7.87-4.44 8.98-3.29l.18.17c1.14 1.11.2 4.85-3.3 8.98-.25.29-.31.71-.15 1.06.16.36.52.58.9.59 1.59 0 2.46.44 2.62.88z" fill="#66bb6a"/><path d="m50 39.54c-.39.39-.39 1.02 0 1.41l16.39 16.39c-1.63 2.3-3.61 4.66-5.96 7.08-.17.18-.36.36-.55.54l-16.94-16.94c-.39-.39-1.03-.39-1.42 0s-.39 1.02 0 1.41l16.91 16.91c-2.38 2.16-5.1 4.19-8.05 6.1l-15.93-15.93c-.39-.39-1.03-.39-1.42 0s-.39 1.02 0 1.41l15.61 15.61c-2.92 1.79-6.02 3.46-9.16 4.99l-12.08-12.08c-.39-.39-1.03-.39-1.42 0s-.39 1.02 0 1.41l11.58 11.58c-3.34 1.57-6.69 2.98-9.91 4.22l-7.4-7.4c-.39-.39-1.03-.39-1.42 0s-.39 1.02 0 1.41l6.77 6.77c-8.89 3.31-16.41 5.27-19.02 5.58 1.02-5.85 8.91-38.99 23.97-54.54 7.35-7.59 14.27-11.68 20.57-12.13.39-.03.78-.04 1.17-.04 4.64 0 9.07 2.02 13.19 6.01 4.47 4.32 6.63 9.09 6.42 14.16-.15 3.8-1.62 7.88-4.37 12.18l-16.11-16.11c-.39-.39-1.03-.39-1.42 0z" fill="#ffe0b2"/></svg>