<svg id="Layer_1" viewBox="0 0 512 512" xmlns="http://www.w3.org/2000/svg" data-name="Layer 1"><rect fill="#8c8c8c" height="304.93" rx="33.72" width="416.7" x="47.65" y="88.29"/><path d="m21 362.73h470a5 5 0 0 1 5 5v25.49a30.58 30.58 0 0 1 -30.49 30.49h-419a30.58 30.58 0 0 1 -30.51-30.49v-25.49a5 5 0 0 1 5-5z" fill="#484e53" fill-rule="evenodd"/><path d="m79.6 121.55h352.8v206.55h-352.8z" fill="#c9defb"/><path d="m200 362.73h112.06l-27.06 25.09a10.17 10.17 0 0 1 -7.12 3h-43.75a10.17 10.17 0 0 1 -7.12-3z" fill="#e7e7e7" fill-rule="evenodd"/><circle cx="256" cy="224.83" fill="#ffe177" r="77.13" transform="matrix(.707 -.707 .707 .707 -84 246.87)"/><g fill-rule="evenodd"><path d="m285.86 227.43-44.62 25.76a3 3 0 0 1 -4.5-2.6v-51.52a3 3 0 0 1 4.5-2.6l44.62 25.76a3 3 0 0 1 0 5.2z" fill="#fe646f"/><path d="m244.72 207.73 29.62 17.1-29.62 17.1zm-12 55a8 8 0 0 0 8 0l53.61-30.95a8 8 0 0 0 0-13.86l-53.61-31a8 8 0 0 0 -12 6.93v61.92a8 8 0 0 0 4 6.92zm23.28-107.03a69.13 69.13 0 1 0 69.13 69.13 69.21 69.21 0 0 0 -69.13-69.13zm0 154.3a85.13 85.13 0 1 0 -85.13-85.12 85.23 85.23 0 0 0 85.13 85.12zm168.4 10.16v-190.61h-336.8v190.56zm8-206.56h-352.82a8 8 0 0 0 -8 8v206.51a8 8 0 0 0 8 8h352.8a8 8 0 0 0 8-8v-206.56a8 8 0 0 0 -8-8zm55.6 279.62a22.52 22.52 0 0 1 -22.52 22.49h-419a22.51 22.51 0 0 1 -22.48-22.49v-22.49h172.8l24.77 22.95a18.06 18.06 0 0 0 12.55 5.12h43.76a18.06 18.06 0 0 0 12.55-5.12l24.77-22.95h172.8zm-196.34-22.49h-71.32l12.11 11.27c.92.85 1.35.85 1.67.85h43.76c.32 0 .75 0 1.67-.85l12.11-11.22zm-236.02-248.73v232.73h400.72v-232.73a25.76 25.76 0 0 0 -25.73-25.72h-349.26a25.76 25.76 0 0 0 -25.73 25.72zm440.36 232.73h-23.64v-232.73a41.78 41.78 0 0 0 -41.73-41.72h-349.26a41.78 41.78 0 0 0 -41.73 41.72v232.73h-23.64a8 8 0 0 0 -8 8v30.49a38.54 38.54 0 0 0 38.48 38.49h419a38.54 38.54 0 0 0 38.52-38.49v-30.49a8 8 0 0 0 -8-8z" fill="#242222"/></g></svg>