<svg clip-rule="evenodd" fill-rule="evenodd" height="512" image-rendering="optimizeQuality" shape-rendering="geometricPrecision" text-rendering="geometricPrecision" viewBox="0 0 512 512" width="512" xmlns="http://www.w3.org/2000/svg" xmlns:xodm="http://www.corel.com/coreldraw/odm/2003"><g id="Layer_x0020_1"><path d="m189.23 381.45h-87.24c-2.76 0-5-2.23-5-5v-37.58c0-2.76 2.24-4.99 5-4.99h87.24c2.76 0 5 2.23 5 4.99v37.58c0 2.77-2.24 5-5 5z" fill="#a76e4c"/><path d="m410.01 381.45h-87.24c-2.76 0-5-2.23-5-5v-37.58c0-2.76 2.24-4.99 5-4.99h87.24c2.76 0 5 2.23 5 4.99v37.58c0 2.77-2.24 5-5 5z" fill="#a76e4c"/><path d="m462.68 343.87h-413.36c-2.77 0-5-2.23-5-5v-157.69c0-2.76 2.23-5 5-5h413.36c2.76 0 5 2.24 5 5v157.69c0 2.77-2.24 5-5 5z" fill="#e5ad74"/><g fill="#b98c5e"><path d="m261 343.87h-10v-162.69c0-6.58 10-6.58 10 0z"/><path d="m210.69 272.72c-2.76 0-5-2.24-5-5v-23.44c0-6.58 10-6.58 10 0v23.44c0 2.76-2.24 5-5 5z"/><path d="m301.31 272.72c-2.76 0-5-2.24-5-5v-23.44c0-6.58 10-6.58 10 0v23.44c0 2.76-2.24 5-5 5z"/></g><path d="m506.97 186.18h-501.94c-2.76 0-5-2.24-5-5v-45.63c0-2.77 2.24-5 5-5h501.94c2.77 0 5 2.23 5 5v45.63c0 2.76-2.24 5-5 5z" fill="#cd885d"/></g></svg>