<svg id="Fill" viewBox="0 0 64 64" xmlns="http://www.w3.org/2000/svg"><g><path d="m48.994 25.21c.07.45-.07.9-.36 1.24l-27.15 30.7c-.58.66-1.6.69-2.22.07-.96-.95-2.87-2.88-3.83-3.83-.47-.47-.57-1.17-.3-1.73l.15-.24c.06-.09.14-.18.22-.25l15.11-13.36 14.72-13.02c.25-.22.42-.51.49-.84l1.72-8.61z" fill="#b6bccf"/><path d="m39.864 15.28c.19.4.2.87.03 1.29l-9.28 21.24-15.11 13.36c-.08.07-.16.16-.22.25l20.96-35.42c.17-.28.24-.62.2-.95l-1-8.72z" fill="#8691b0"/></g><path d="m49.984 25.064-1.45-9.87c-.07-.481-.478-.842-.964-.854-.485-.042-.91.326-1.006.804l-1.717 8.598c-.025.119-.084.219-.175.299l-11.328 10.017 7.477-17.113c.275-.68.256-1.443-.061-2.108l-4.42-8.95c-.215-.436-.712-.653-1.179-.517-.467.138-.767.59-.711 1.073l1 8.727c.014.108-.01.225-.067.32l-20.948 35.402-.149.24c-.007.011-.007.024-.013.035-.012.02-.027.037-.038.058-.464.96-.266 2.114.497 2.876.483.478 1.207 1.205 1.93 1.93.713.715 1.423 1.428 1.896 1.897.473.472 1.119.738 1.786.738h.081c.693-.022 1.354-.334 1.809-.852l27.162-30.714c.486-.57.7-1.315.588-2.034zm-12.885-8.545c.286-.47.406-1.035.339-1.583l-.345-3.01 1.868 3.784c.07.146.072.323.018.46l-9.19 21.033-10.353 9.156 17.663-29.839zm10.787 9.269-27.152 30.702c-.129.146-.29.173-.374.176-.085-.002-.249-.014-.392-.156-.474-.469-1.181-1.179-1.891-1.891-.726-.729-1.454-1.459-1.936-1.936-.176-.176-.183-.41-.111-.572l.055-.092c.028-.032.057-.064.081-.1l15.125-13.376c.006-.005.012-.01.018-.016l14.686-12.987c.413-.364.691-.841.81-1.395l.589-2.949.612 4.167c.023.151-.024.311-.12.423z"/></svg>