<svg id="Capa_1" enable-background="new 0 0 512.002 512.002" height="512" viewBox="0 0 512.002 512.002" width="512" xmlns="http://www.w3.org/2000/svg"><g><g><path d="m411.537 495.171-79.222-245.464c-.951-2.948-3.695-4.945-6.792-4.945h-33.755l-8.303 8.412 46.581 243.755 13.673 7.572h61.026c4.843-.001 8.28-4.722 6.792-9.33z" fill="#ffeac8"/><path d="m168.305 504.5 12.928-7.572 47.326-243.755-8.302-8.412h-33.755c-3.097 0-5.841 1.998-6.792 4.945l-79.222 245.464c-1.487 4.609 1.949 9.329 6.792 9.329z" fill="#ffd086"/><path d="m291.768 244.762h-36.373l-3.942 3.941-29.305 251.559 3.314 4.238h118.257z" fill="#ffd086"/><path d="m168.305 504.5h57.157l29.933-259.738h-35.138z" fill="#ffb640"/><path d="m265.645 340.943c-6.068 3.831-10.115 10.571-10.115 18.278s4.047 14.447 10.115 18.278c6.559-3.464 11.034-10.344 11.034-18.278s-4.475-14.815-11.034-18.278z" fill="#938493"/><path d="m256.012 359.22c0-7.645 4.162-14.304 10.333-17.879-3.042-1.762-6.565-2.787-10.333-2.787-11.414 0-20.667 9.253-20.667 20.667s9.253 20.667 20.667 20.667c3.769 0 7.291-1.025 10.333-2.787-6.171-3.577-10.333-10.236-10.333-17.881z" fill="#7b6c79"/><g><path d="m256.012 32.632c-5.205 0-10.28.577-15.177 1.644-18.327 16.402-30.218 42.327-30.218 71.368v.834l1.172 1.61h112.234l3.656-3.123v-.667c0-39.416-32.25-71.666-71.667-71.666z" fill="#ffb640"/><path d="m212.575 103.625c0-29.067 12.643-54.822 31.771-70.021-33.917 5.615-60 35.25-60 70.695v.667l2.677 3.123h28.23l-2.677-3.678v-.786z" fill="#ffa90f"/><path d="m256.012 32.632c-15.942 0-28.985 32.25-28.985 71.667v.667l1.538 3.123h55.167l1.266-3.123v-.667c-.001-39.417-13.044-71.667-28.986-71.667z" fill="#ffd086"/><path d="m320.815 137.381h-80.727l-3.553 3.653v8.094c0 13.49 9.468 24.868 22.085 27.838h41.52c15.146 0 27.539-12.393 27.539-27.54v-7.794z" fill="#e2d8ec"/><path d="m237.596 149.426v-7.794l4.136-4.252h-53.25l-4.136 4.252v7.794c0 15.147 12.393 27.54 27.54 27.54h53.25c-15.148 0-27.54-12.393-27.54-27.54z" fill="#d5c6e4"/><path d="m348.25 104.966h-136.825c-7.837 2.411-13.577 9.733-13.577 18.333 0 8.601 5.74 15.922 13.577 18.333h136.825c10.083 0 18.333-8.25 18.333-18.333s-8.25-18.333-18.333-18.333z" fill="#f9f6f6"/><path d="m198.692 123.299c0-10.083 8.25-18.333 18.333-18.333h-53.25c-10.083 0-18.333 8.25-18.333 18.333s8.25 18.333 18.333 18.333h53.25c-10.083 0-18.333-8.25-18.333-18.333z" fill="#e2d8ec"/></g></g><g><path d="m256.001 0c-4.143 0-7.5 3.358-7.5 7.5v17.997c-37.898 3.579-68.087 33.982-71.353 71.968h-13.385c-14.245 0-25.834 11.589-25.834 25.833s11.589 25.833 25.834 25.833h13.07v.294c0 13.977 8.229 26.065 20.095 31.684l-12.404 10.869c-1.626 1.424-2.558 3.48-2.558 5.641v18.621c0 4.142 3.357 7.5 7.5 7.5s7.5-3.358 7.5-7.5v-15.221l18.692-16.38c.064-.056.119-.117.18-.175h32.661v31.776c0 4.142 3.357 7.5 7.5 7.5s7.5-3.358 7.5-7.5v-31.776h32.66c.061.057.117.119.18.175l18.692 16.38v15.221c0 4.142 3.357 7.5 7.5 7.5s7.5-3.358 7.5-7.5v-18.621c0-2.161-.932-4.217-2.558-5.641l-12.404-10.869c11.865-5.619 20.095-17.707 20.095-31.684v-.294h13.071c14.244 0 25.833-11.589 25.833-25.833 0-14.245-11.589-25.833-25.833-25.833h-13.383c-.705-8.177-2.659-16.144-5.872-23.758-1.611-3.816-6.012-5.605-9.826-3.993-3.816 1.611-5.604 6.01-3.994 9.826 2.431 5.757 3.983 11.762 4.642 17.925h-27.454c-.755-19.289-4.689-38.538-11.568-52.326 5.429 2.302 10.573 5.368 15.317 9.188 3.228 2.599 7.947 2.088 10.546-1.138 2.598-3.226 2.088-7.947-1.138-10.545-12.059-9.71-26.748-15.656-42.007-17.136v-18.008c.003-4.142-3.354-7.5-7.497-7.5zm-24.774 45.126c-6.883 13.788-10.82 33.045-11.575 52.34h-27.456c2.514-23.638 17.923-43.469 39.031-52.34zm117.011 67.34c5.974 0 10.833 4.86 10.833 10.833s-4.859 10.833-10.833 10.833h-74.737c-4.143 0-7.5 3.358-7.5 7.5s3.357 7.5 7.5 7.5h46.666v.294c0 11.05-8.989 20.04-20.039 20.04h-88.254c-11.05 0-20.04-8.99-20.04-20.04v-.294h46.667c4.143 0 7.5-3.358 7.5-7.5s-3.357-7.5-7.5-7.5h-74.737c-5.974 0-10.834-4.86-10.834-10.833 0-5.974 4.86-10.833 10.834-10.833zm-70.889-15h-42.695c1.406-34.734 13.31-57.333 21.348-57.333 8.037-.001 19.94 22.599 21.347 57.333z"/><path d="m166.823 511.854c4.064.812 8.013-1.823 8.825-5.883l51.952-259.738c.812-4.062-1.822-8.013-5.884-8.826-4.062-.809-8.013 1.822-8.825 5.883l-51.951 259.739c-.813 4.062 1.822 8.013 5.883 8.825z"/><path d="m345.179 511.854c4.062-.812 6.696-4.764 5.884-8.826l-51.953-259.737c-.812-4.061-4.766-6.692-8.825-5.883-4.062.812-6.696 4.764-5.884 8.826l51.952 259.738c.813 4.059 4.763 6.694 8.826 5.882z"/><path d="m95.161 511.638c3.941 1.272 8.169-.892 9.441-4.834l83.829-259.738c1.272-3.942-.893-8.169-4.834-9.441-3.942-1.273-8.169.892-9.441 4.834l-83.829 259.737c-1.272 3.942.893 8.169 4.834 9.442z"/><path d="m416.841 511.638c3.941-1.272 6.106-5.5 4.834-9.441l-83.829-259.738c-1.272-3.942-5.501-6.108-9.441-4.834-3.941 1.272-6.106 5.5-4.834 9.441l83.829 259.738c1.273 3.944 5.501 6.105 9.441 4.834z"/><path d="m263.951 393.678 17.498 22.592c2.539 3.278 7.25 3.872 10.522 1.337 3.274-2.537 3.873-7.248 1.337-10.522l-19.75-25.5c-.059-.076-.127-.143-.189-.217 6.567-5.161 10.797-13.168 10.797-22.149 0-15.531-12.635-28.167-28.166-28.167s-28.167 12.635-28.167 28.167c0 8.981 4.23 16.988 10.798 22.149-.062.074-.129.14-.188.216l-19.75 25.5c-2.536 3.274-1.938 7.985 1.337 10.522 3.277 2.536 7.985 1.938 10.522-1.337l17.498-22.592h.45v28h-1.128c-3.22 0-6.08 2.055-7.108 5.107l-16.75 49.75c-1.321 3.926.79 8.179 4.715 9.501 3.924 1.319 8.18-.789 9.502-4.715l15.03-44.643h6.479l15.03 44.643c1.321 3.923 5.572 6.037 9.502 4.715 3.925-1.322 6.036-5.575 4.715-9.501l-16.75-49.75c-1.028-3.052-3.889-5.107-7.108-5.107h-1.128v-28h.45zm-7.95-21.291c-7.261 0-13.167-5.906-13.167-13.167s5.906-13.167 13.167-13.167c7.26 0 13.166 5.906 13.166 13.167s-5.906 13.167-13.166 13.167z"/></g></g></svg>