<svg enable-background="new 0 0 512 512" height="512" viewBox="0 0 512 512" width="512" xmlns="http://www.w3.org/2000/svg"><g id="_x31_6_Umbrella"><g><g><path d="m272.403 19.493v448.461c0 21.973-17.393 40.571-39.364 40.775-11.11.103-21.189-4.371-28.478-11.636-5.029-5.045-7.911-10.371-9.551-15.251-2.956-8.795 3.621-17.888 12.899-17.889h.142c6.424 0 11.761 4.547 13.294 10.786.934 3.802 3.313 7.125 9.079 7.125 2.612 0 4.991-1.073 6.717-2.799s2.799-4.105 2.799-6.717v-452.855c0-8.965 7.267-16.232 16.232-16.232 8.963.001 16.231 7.268 16.231 16.232z" fill="#878787"/><path d="m473.06 236.966v64.904c0-33.723-24.278-61.056-54.222-61.056-29.945 0-54.222 27.333-54.222 61.056 0-33.723-24.278-61.056-54.222-61.056-29.945 0-54.222 27.333-54.222 61.056 0-33.723-24.278-61.056-54.222-61.056-29.945 0-54.222 27.333-54.222 61.056 0-33.723-24.278-61.056-54.222-61.056-29.945 0-54.222 27.333-54.222 61.056v-64.904c0-119.802 97.11-207.561 216.889-207.561 59.889 0 114.112 24.278 153.362 63.528 39.248 39.25 63.525 84.12 63.525 144.033z" fill="#65c5ef"/><path d="m364.616 236.966v64.904c0-33.723-24.278-61.056-54.222-61.056-29.945 0-54.222 27.333-54.222 61.056 0-33.723-24.278-61.056-54.222-61.056-29.945 0-54.222 27.333-54.222 61.056v-64.904c0-119.802 48.555-207.561 108.445-207.561 29.945 0 57.044 24.278 76.681 63.528 19.634 39.25 31.762 84.12 31.762 144.033z" fill="#eef0ee"/><path d="m364.616 236.966v64.904c0-33.723-24.278-61.056-54.222-61.056-29.945 0-54.222 27.333-54.222 61.056v-272.465c29.945 0 57.044 24.278 76.681 63.528 19.635 39.25 31.763 84.12 31.763 144.033z" fill="#f9e109"/><g><path d="m313.186 107.507c-.822-1.632-2.289-4.702-4.035-7.895-.863-1.578-.284-3.557 1.295-4.42 1.576-.863 3.556-.284 4.42 1.295 1.85 3.382 3.336 6.498 4.145 8.104.805 1.609.154 3.565-1.454 4.37-1.624.812-3.573.144-4.371-1.454z" fill="#fff"/></g><g><path d="m333.734 157.013c-1.447 0-2.767-.972-3.149-2.436-2.662-10.206-6.51-21.695-10.417-31.275-.678-1.665.121-3.566 1.787-4.245 1.663-.679 3.565.12 4.245 1.787 4.075 9.995 7.996 21.767 10.687 32.089.54 2.064-1.021 4.08-3.153 4.08z" fill="#fff"/></g><path d="m256.171 29.405c29.945 0 57.044 24.278 76.681 63.528s31.764 84.12 31.764 144.033v64.904c0-33.723 24.278-61.056 54.222-61.056 29.945 0 54.222 27.333 54.222 61.056v-64.904c0-59.913-24.278-104.783-63.528-144.033-39.249-39.251-93.472-63.528-153.361-63.528z" fill="#a1d51c"/><path d="m473.054 236.976v64.903c0-16.701-5.967-31.839-15.633-42.887v-9.51c0-59.927-24.283-104.794-63.522-144.033-24.857-24.883-55.732-43.747-90.281-54.221-14.33-13.992-30.432-21.834-47.446-21.834 59.901 0 114.121 24.283 153.36 63.548 39.238 39.24 63.522 84.107 63.522 144.034z" opacity=".1"/></g><g><path d="m293.076 357.322c-1.799 0-3.257 1.458-3.257 3.257v8.99c0 1.799 1.458 3.257 3.257 3.257s3.257-1.458 3.257-3.257v-8.99c0-1.799-1.458-3.257-3.257-3.257z"/><path d="m293.076 383.377c-1.799 0-3.257 1.458-3.257 3.257v49.036c0 1.799 1.458 3.257 3.257 3.257s3.257-1.458 3.257-3.257v-49.036c0-1.799-1.458-3.257-3.257-3.257z"/><path d="m88.549 77.455c1.454-1.51 5.154-4.877 6.387-5.979 1.341-1.2 1.455-3.258.257-4.599-1.204-1.341-3.262-1.454-4.598-.256-1.212 1.084-5.148 4.66-6.743 6.32-1.247 1.296-1.206 3.357.092 4.604 1.289 1.243 3.351 1.211 4.605-.09z"/><path d="m107.955 60.69c13.14-10.066 27.429-18.736 42.469-25.769 1.631-.762 2.333-2.701 1.572-4.329-.763-1.63-2.705-2.336-4.331-1.571-15.468 7.233-30.159 16.148-43.67 26.499-1.43 1.094-1.7 3.139-.606 4.566 1.099 1.433 3.146 1.694 4.566.604z"/><path d="m411.665 90.627c-36.952-36.952-84.734-59.106-136.179-63.591v-7.539c0-10.802-8.778-19.489-19.49-19.489-10.745 0-19.488 8.743-19.488 19.489v7.463c-113.782 9.044-200.654 96.212-200.654 210.003v64.904c0 1.799 1.458 3.257 3.257 3.257s3.257-1.458 3.257-3.257c0-31.87 22.862-57.798 50.965-57.798s50.968 25.928 50.968 57.798c0 1.799 1.458 3.257 3.257 3.257s3.257-1.458 3.257-3.257c0-31.87 22.862-57.798 50.965-57.798 13.41 0 25.62 5.914 34.729 15.55v212.715c0 3.56-2.956 6.28-6.254 6.28-3.356 0-5.119-1.388-5.903-4.661-1.929-7.81-8.705-13.264-16.608-13.264-11.545 0-19.659 11.292-15.984 22.196 5.542 16.46 21.479 29.107 40.716 29.107.137 0 .277 0 .415-.001 23.488-.223 42.597-19.976 42.597-44.033v-208.331c9.11-9.642 21.322-15.559 34.737-15.559 28.103 0 50.965 25.928 50.965 57.798 0 1.799 1.458 3.257 3.257 3.257s3.257-1.458 3.257-3.257c0-31.87 22.862-57.798 50.965-57.798s50.965 25.928 50.965 57.798c0 1.799 1.458 3.257 3.257 3.257s3.257-1.458 3.257-3.257v-64.904c-.002-55.844-20.492-102.344-64.483-146.335zm-168.643-71.13c0-7.155 5.819-12.975 12.974-12.975 7.122 0 12.977 5.794 12.977 12.975v7.062c-4.305-.248-8.624-.413-12.972-.413-4.352 0-8.675.149-12.979.375zm-149.69 218.058c-22.119 0-41.357 14.049-50.965 34.592v-35.183c0-103.781 77.01-187.191 180.562-201.971-59.053 32.702-78.629 133.147-78.629 201.97v35.24c-9.601-20.565-28.835-34.648-50.968-34.648zm108.447 0c-22.418 0-41.657 14.616-50.965 34.592v-35.183c0-112.439 44.517-200.906 101.93-204.149v239.389c-2.775-5.943-6.343-11.349-10.566-16.024-.061-.069-.109-.144-.176-.208-10.374-11.386-24.578-18.417-40.223-18.417zm67.194 230.403c0 20.499-16.213 37.33-36.144 37.519-.117.001-.234.001-.351.001-16.398 0-29.885-10.831-34.546-24.673-2.212-6.558 2.553-13.603 9.941-13.603 4.771 0 8.946 3.417 10.147 8.289 1.488 6.215 5.834 9.637 12.234 9.637 6.808 0 12.768-5.549 12.768-12.793v-204.366c6.107 9.53 9.722 21.241 9.722 33.898 0 1.799 1.458 3.257 3.257 3.257s3.257-1.458 3.257-3.257c0-11.671 3.149-23.632 9.715-33.886zm1.037-211.999c-.086.08-.147.175-.223.264-4.174 4.629-7.981 10.487-10.529 15.923v-239.325c32.278 2.041 55.996 32.556 70.509 61.566 21.437 42.846 31.421 88.151 31.421 142.577v35.183c-9.331-20.025-28.595-34.592-50.965-34.592-15.639 0-29.839 7.026-40.213 18.404zm199.623 16.187c-9.608-20.543-28.846-34.592-50.965-34.592-22.133 0-41.364 14.083-50.965 34.648v-35.24c0-55.477-10.203-101.706-32.108-145.49-13.512-27.008-29.988-46.187-48.038-56.511 45.083 6.635 86.689 27.457 119.504 60.27 42.691 42.691 62.573 87.726 62.573 141.731v35.184z"/></g></g></g></svg>