<svg viewBox="0 0 64 64" xmlns="http://www.w3.org/2000/svg"><g id="Rainy"><path d="m30 48v-38a2 2 0 0 1 4 0v38z" fill="#efd8b9"/><path d="m38 63a9.01016 9.01016 0 0 1 -9-9v-6h6v6a3 3 0 0 0 6 0v-2h6v2a9.01016 9.01016 0 0 1 -9 9z" fill="#f2b46b"/><path d="m22 9a3.00328 3.00328 0 0 1 -3-3c0-1.13916 1.55469-3.39014 3-5 1.44531 1.60986 3 3.86084 3 5a3.00328 3.00328 0 0 1 -3 3z" fill="#aed9ff"/><path d="m11 14a3.00328 3.00328 0 0 1 -3-3c0-1.13916 1.55469-3.39014 3-5 1.44531 1.60986 3 3.86084 3 5a3.00328 3.00328 0 0 1 -3 3z" fill="#aed9ff"/><path d="m42 9a3.00328 3.00328 0 0 1 -3-3c0-1.13916 1.55469-3.39014 3-5 1.44531 1.60986 3 3.86084 3 5a3.00328 3.00328 0 0 1 -3 3z" fill="#aed9ff"/><path d="m53 14a3.00328 3.00328 0 0 1 -3-3c0-1.13916 1.55469-3.39014 3-5 1.44531 1.60986 3 3.86084 3 5a3.00328 3.00328 0 0 1 -3 3z" fill="#aed9ff"/><path d="m58 37a14.46358 14.46358 0 0 0 -12.1658-.35751l-.8342.35751a14.46358 14.46358 0 0 0 -12.1658-.35751l-.8342.35751a14.46358 14.46358 0 0 0 -12.1658-.35751l-.8342.35751a14.46358 14.46358 0 0 0 -12.1658-.35751l-.8342.35751c0-13.25 11.64-25 26-25s26 11.75 26 25z" fill="#f2b46b"/><path d="m45 37a14.456 14.456 0 0 0 -12.17-.36l-.83.36v-25s13 9 13 25z" fill="#e29052"/><path d="m58 37a14.50509 14.50509 0 0 0 -12.17-.36l-.83.36c0-16-13-25-13-25 14.36 0 26 11.75 26 25z" fill="#d67e47"/><path d="m32 12s-13 9-13 25a14.456 14.456 0 0 0 -12.17-.36l-.83.36c0-13.25 11.64-25 26-25z" fill="#f4c990"/><g fill="#38342b"><path d="m22 10a4.00427 4.00427 0 0 0 4-4c0-1.94141-2.71191-5.062-3.25586-5.668a1.0316 1.0316 0 0 0 -1.48828 0c-.54395.606-3.25586 3.72659-3.25586 5.668a4.00427 4.00427 0 0 0 4 4zm0-7.45117c1.06249 1.33252 2 2.83154 2 3.45117a2 2 0 0 1 -4 0c0-.63721.93945-2.12549 2-3.45117z"/><path d="m11 15a4.00427 4.00427 0 0 0 4-4c0-1.94141-2.71191-5.062-3.25586-5.668a1.0316 1.0316 0 0 0 -1.48828 0c-.54395.606-3.25586 3.72659-3.25586 5.668a4.00427 4.00427 0 0 0 4 4zm0-7.45117c1.06249 1.33252 2 2.83154 2 3.45117a2 2 0 0 1 -4 0c0-.63721.93945-2.12549 2-3.45117z"/><path d="m42 10a4.00427 4.00427 0 0 0 4-4c0-1.94141-2.71191-5.062-3.25586-5.668a1.0316 1.0316 0 0 0 -1.48828 0c-.54395.606-3.25586 3.72659-3.25586 5.668a4.00427 4.00427 0 0 0 4 4zm0-7.45117c1.06249 1.33252 2 2.83154 2 3.45117a2 2 0 0 1 -4 0c0-.63721.93945-2.12549 2-3.45117z"/><path d="m53 15a4.00427 4.00427 0 0 0 4-4c0-1.94141-2.71191-5.062-3.25586-5.668a1.0316 1.0316 0 0 0 -1.48828 0c-.54395.606-3.25586 3.72659-3.25586 5.668a4.00427 4.00427 0 0 0 4 4zm0-7.45117c1.06249 1.33252 2 2.83154 2 3.45117a2 2 0 0 1 -4 0c0-.63721.93945-2.12549 2-3.45117z"/><path d="m35 11.17322v-1.17322a3.01415 3.01415 0 0 0 -3-3 3.00328 3.00328 0 0 0 -3 3v1.17322c-13.28583 1.49011-24 12.70849-24 25.82678a.99932.99932 0 0 0 1.39355.919l.834-.35743a13.44167 13.44167 0 0 1 11.32519.333.99183.99183 0 0 0 .84082.02442 13.67144 13.67144 0 0 1 9.60644-.98299v10.064a.99974.99974 0 0 0 -1 1v6a10 10 0 0 0 20 0v-2a.99974.99974 0 0 0 -1-1h-6a.99974.99974 0 0 0 -1 1v2a2 2 0 0 1 -4 0v-6a.99974.99974 0 0 0 -1-1v-10.04a13.42338 13.42338 0 0 1 9.55273.93451.99873.99873 0 0 0 .84082.02442l.834-.35743a13.44188 13.44188 0 0 1 11.32519.333 1.00038 1.00038 0 0 0 1.44726-.8945c0-13.11829-10.71417-24.33667-24-25.82678zm-4-1.17322a1.001 1.001 0 0 1 1-1 .9785.9785 0 0 1 .71289.30615.9613.9613 0 0 1 .28711.69385v1.02533c-.33252-.01239-.665-.02533-1-.02533s-.66748.01294-1 .02533zm-12.96332 25.50348a15.413 15.413 0 0 0 -10.98395-.02741c.78382-11.36407 10.25464-20.86322 21.92359-22.28546-3.72113 3.39966-10.38941 11.01392-10.93964 22.31287zm2.0055-.001c.59899-11.12348 7.72906-18.5836 10.95782-21.41154v21.40076a15.39688 15.39688 0 0 0 -10.95782.01074zm17.95782 22.49752a4.00427 4.00427 0 0 0 4-4v-1h4v1a8 8 0 0 1 -16 0v-5h4v5a4.00427 4.00427 0 0 0 4 4zm-7-11v-9.34521c.18372.08184.37189.14929.55273.23974a.99183.99183 0 0 0 .84082.02442l.60645-.25989v9.34094zm7.5332-12.52979a15.43229 15.43229 0 0 0 -4.90832.8155l-.02216.00817c-.20239.06824-.4024.14594-.60272.22284v-21.42578c3.2262 2.82569 10.34711 10.27667 10.95587 21.38544a15.41482 15.41482 0 0 0 -5.42267-1.00617zm7.4308 1.05817c-.54175-11.31256-7.21668-18.93573-10.94037-22.33783 11.66138 1.421 21.12714 10.90656 21.92169 22.26062a15.41656 15.41656 0 0 0 -10.98132.07721z"/></g></g></svg>