<svg enable-background="new 0 0 512 512" viewBox="0 0 512 512" xmlns="http://www.w3.org/2000/svg"><g id="Layer_1" display="none"><g display="inline" fill="none" stroke="#6d6e71" stroke-miterlimit="10" stroke-width=".284"><path d="m0 0h512v512h-512z"/><circle cx="256" cy="256" r="256"/><path d="m75 75h362v362h-362z"/><path d="m128 0h256v512h-256z"/><path d="m256 0v512"/><path d="m0 128h512v256h-512z"/><path d="m0 256h512"/><path d="m512 0-512 512"/><path d="m0 0 512 512"/><circle cx="256" cy="256" r="181.3"/><circle cx="256" cy="256" r="128"/><circle cx="256" cy="256" r="64"/></g></g><g id="Layer_2"><g><g><g><path d="m373.7 174.4c6.8-13.8 12.8-32 16.7-52.3 8.9-46.8-.4-100.8-12.7-90.2-35.4 30.4-50 57.6-47.9 96.8" fill="#f78c80"/><path d="m373.7 182.6c-1.2 0-2.5-.3-3.6-.9-4.1-2-5.7-7-3.7-11 6.7-13.6 12.4-31.4 16-50.2 6.7-35.3 2.1-69.2-2.4-79.7-31.9 28.3-43.7 53.1-42 87.4.2 4.5-3.3 8.4-7.8 8.6-4.6.2-8.4-3.3-8.6-7.8-2.1-40.6 12.6-70.6 50.8-103.4 4.4-3.8 9.8-4.4 14.5-1.7 7.4 4.3 12.2 17.4 14.3 38.9 1.9 19.5.9 41.7-2.7 60.8-3.9 20.5-9.9 39.3-17.4 54.4-1.5 2.9-4.4 4.6-7.4 4.6z" fill="#231f20"/></g><g><path d="m182.4 126.6c1.5-38.1-13.2-64.9-48-94.8-12.3-10.6-21.6 43.4-12.7 90.2 3.6 18.9 9 35.9 15.2 49.3" fill="#f78c80"/><path d="m136.9 179.6c-3.1 0-6.1-1.8-7.5-4.8-6.8-14.5-12.2-32.3-15.9-51.2-3.6-19.1-4.6-41.3-2.7-60.8 2.1-21.5 6.9-34.6 14.3-38.9 4.7-2.7 10.2-2.1 14.5 1.7 37.6 32.4 52.4 61.7 50.9 101.4-.2 4.5-4 8.1-8.5 7.9s-8.1-4-7.9-8.5c1.3-33.3-10.6-57.6-42-85.5-4.5 10.6-9.1 44.4-2.4 79.7 3.4 17.6 8.4 34 14.6 47.4 1.9 4.1.1 9-4 10.9-1.1.4-2.2.7-3.4.7z" fill="#231f20"/></g></g><g><path d="m280.4 111.7c18.2 1.4 37.8 10.1 46.1 14.9 26.3 15.2 46.5 39.8 57 68.9.7 2.1 1.4 4.3 2.1 6.7 4.7 17.4 4.8 35.8.7 53.3-4.7 20.2-12.1 47.8-16.4 65.1-1.9 7.8-3 15.8-3.2 23.8l-1.3 50.8c-.4 14-3.3 27.9-9 40.8-.4.8-.7 1.6-1.1 2.4-18.5 39-57.1 65.2-100.8 65.2-43.1 0-81.2-25.4-100-63.5-.4-.9-.9-1.8-1.3-2.7-6.1-13.3-9.2-27.7-9.6-42.3l-1.3-50.7c-.2-8-1.3-16-3.2-23.8-4.3-17.3-11.6-45-16.4-65.2-4.3-18.2-4-37.2 1.1-55.1.5-1.7 1-3.4 1.6-4.9 10.4-29.2 30.7-53.8 57-68.9 8.3-4.8 29.3-13 46.3-15.5" fill="#f9d6dc"/><path d="m254.4 512c-22.5 0-44.5-6.5-63.6-18.8-18.7-12-33.8-29.1-43.8-49.3-.5-.9-.9-1.9-1.4-2.9-6.5-14-10-29.4-10.4-45.6l-1.3-50.7c-.2-7.4-1.2-14.9-3-22.1-1.6-6.5-3.6-14.4-5.8-22.9-3.6-13.9-7.6-29.7-10.6-42.4-4.6-19.8-4.2-40.3 1.2-59.3.6-1.9 1.1-3.7 1.7-5.4 11.1-31.1 32.7-57.1 60.6-73.3 9-5.2 31.1-13.9 49.2-16.5 4.5-.6 8.7 2.5 9.3 7 .7 4.5-2.5 8.7-7 9.3-15.8 2.3-35.6 10-43.3 14.4-24.6 14.2-43.5 37.2-53.3 64.6-.5 1.3-.9 2.8-1.4 4.4-4.7 16.3-5 33.9-1 51 2.9 12.5 7 28.2 10.5 42.1 2.2 8.5 4.2 16.5 5.8 23 2.1 8.4 3.2 17 3.5 25.6l1.3 50.7c.4 14 3.3 27.1 8.9 39.1.4.8.8 1.7 1.2 2.5 17.9 36.3 53.4 58.9 92.6 58.9 39.3 0 76-23.7 93.3-60.4.4-.7.7-1.5 1-2.3 5.1-11.5 7.9-24.2 8.3-37.6l1.3-50.8c.2-8.6 1.4-17.2 3.5-25.6 1.6-6.6 3.7-14.8 6-23.4 3.5-13.7 7.5-29.2 10.4-41.6 3.9-16.4 3.6-33.5-.6-49.3-.6-2.2-1.2-4.3-1.9-6.1-9.8-27.4-28.8-50.4-53.4-64.6-8.4-4.9-26.8-12.6-42.6-13.9-4.5-.4-7.9-4.3-7.6-8.8.4-4.5 4.3-7.9 8.8-7.6 20 1.6 40.6 10.8 49.6 16 27.9 16.2 49.5 42.2 60.6 73.3.8 2.2 1.6 4.7 2.3 7.4 4.9 18.5 5.2 38.3.7 57.3-2.9 12.6-7 28.2-10.5 42-2.2 8.6-4.3 16.7-5.9 23.3-1.8 7.2-2.8 14.6-3 22.1l-1.3 50.8c-.4 15.6-3.7 30.4-9.7 43.9-.4.9-.8 1.7-1.2 2.6-9.8 20.7-25 38.2-43.9 50.6-19 12.6-41.3 19.3-64.1 19.3z" fill="#231f20"/></g><g><path d="m355.5 437.9c-27.9-20-62.3-31.8-99.5-31.8-38.2 0-73.5 12.5-101.8 33.5l.3.6c18.8 38.1 56.9 63.5 100 63.5 43.7 0 82.3-26.1 100.8-65.2 0-.1.1-.3.2-.6z" fill="#ffd1cc"/><path d="m254.4 512c-22.5 0-44.5-6.5-63.6-18.8-18.7-12-33.8-29.1-43.8-49.3 0 0 0-.1-.1-.1l-.1-.1c-.1-.3-.2-.5-.4-.8-1.5-3.5-.4-7.6 2.7-9.8 30.9-23 67.9-35.2 106.8-35.2 37.8 0 73.9 11.5 104.3 33.4 3.2 2.3 4.3 6.4 2.8 10-.1.3-.3.6-.4.9-9.8 20.7-25 38.2-43.9 50.6-19.2 12.5-41.5 19.2-64.3 19.2zm-89.7-69.8c18.7 33 52.5 53.3 89.7 53.3 37.3 0 72.2-21.3 90.5-54.9-26.4-17.2-57-26.3-88.9-26.3-33 .1-64.4 9.7-91.3 27.9z" fill="#231f20"/></g><g><g><circle cx="179" cy="280.7" fill="#ffd1cc" r="10.4"/><path d="m179 299.4c-10.3 0-18.6-8.4-18.6-18.6 0-10.3 8.4-18.6 18.6-18.6 10.3 0 18.6 8.4 18.6 18.6s-8.4 18.6-18.6 18.6zm0-20.8c-1.2 0-2.2 1-2.2 2.2s1 2.2 2.2 2.2 2.2-1 2.2-2.2c-.1-1.3-1-2.2-2.2-2.2z" fill="#231f20"/></g><g><circle cx="329.8" cy="280.7" fill="#ffd1cc" r="10.4"/><path d="m329.8 299.4c-10.3 0-18.6-8.4-18.6-18.6 0-10.3 8.4-18.6 18.6-18.6s18.6 8.4 18.6 18.6-8.3 18.6-18.6 18.6zm0-20.8c-1.2 0-2.2 1-2.2 2.2s1 2.2 2.2 2.2 2.2-1 2.2-2.2c0-1.3-1-2.2-2.2-2.2z" fill="#231f20"/></g></g><g><path d="m251 11-30.7 137.3c-4.9 21.8 11.7 42.6 34.1 42.6 22.4 0 39-20.7 34.1-42.6l-30.7-137.3c-.8-3.7-6-3.7-6.8 0z" fill="#ffd1cc"/><path d="m254.4 199.1c-13.2 0-25.5-5.9-33.7-16.2s-11.3-23.6-8.4-36.4l30.6-137.3c1.2-5.4 5.9-9.2 11.5-9.2 5.5 0 10.3 3.8 11.5 9.2l30.7 137.3c2.9 12.9-.2 26.1-8.4 36.4-8.3 10.3-20.6 16.2-33.8 16.2zm0-165.8-26.1 116.7c-1.8 8 .1 16.2 5.2 22.5 5.1 6.4 12.7 10 20.9 10s15.8-3.7 20.9-10c5.1-6.4 7-14.6 5.2-22.5z" fill="#231f20"/></g><g><g><circle cx="226.2" cy="451.4" fill="#ffd1cc" r="10.6"/><path d="m226.2 470.2c-10.4 0-18.8-8.4-18.8-18.8s8.4-18.8 18.8-18.8 18.8 8.4 18.8 18.8-8.5 18.8-18.8 18.8zm0-21.2c-1.3 0-2.4 1.1-2.4 2.4s1.1 2.4 2.4 2.4 2.4-1.1 2.4-2.4-1.1-2.4-2.4-2.4z" fill="#231f20"/></g><g><circle cx="285.8" cy="451.4" fill="#ffd1cc" r="10.6"/><path d="m285.8 470.2c-10.4 0-18.8-8.4-18.8-18.8s8.4-18.8 18.8-18.8 18.8 8.4 18.8 18.8c.1 10.4-8.4 18.8-18.8 18.8zm0-21.2c-1.3 0-2.4 1.1-2.4 2.4s1.1 2.4 2.4 2.4 2.4-1.1 2.4-2.4-1.1-2.4-2.4-2.4z" fill="#231f20"/></g></g></g></g></svg>