<svg id="Capa_1" enable-background="new 0 0 512 512" height="512" viewBox="0 0 512 512" width="512" xmlns="http://www.w3.org/2000/svg"><g><path d="m367.9 360.119h-93.243l65.933-65.933c3.018-3.018 3.018-7.911 0-10.929-3.019-3.018-7.911-3.018-10.93 0l-65.933 65.933v-93.243c0-4.268-3.46-7.728-7.728-7.728s-7.728 3.46-7.728 7.728v93.243l-65.933-65.933c-3.019-3.018-7.911-3.018-10.93 0-3.018 3.018-3.018 7.911 0 10.929l65.933 65.933h-93.241c-4.269 0-7.728 3.46-7.728 7.728s3.46 7.728 7.728 7.728h93.243l-65.933 65.933c-3.018 3.018-3.018 7.911 0 10.929 1.509 1.509 3.488 2.264 5.465 2.264s3.956-.755 5.465-2.264l65.933-65.933v93.243c0 4.268 3.46 7.728 7.728 7.728s7.728-3.46 7.728-7.728v-93.243l65.933 65.933c1.509 1.509 3.488 2.264 5.465 2.264s3.956-.755 5.465-2.264c3.018-3.018 3.018-7.911 0-10.929l-65.933-65.933h93.241c4.269 0 7.728-3.46 7.728-7.728s-3.459-7.728-7.728-7.728z" fill="#356487"/><path d="m256 223.94c-79.546 0-144.03 64.484-144.03 144.03s64.484 144.03 144.03 144.03 144.03-64.484 144.03-144.03-64.484-144.03-144.03-144.03zm0 255.808c-61.801 0-111.901-50.1-111.901-111.901s50.1-111.9 111.901-111.9 111.901 50.1 111.901 111.901-50.1 111.9-111.901 111.9z" fill="#356487"/><g><g><g><path d="m263.728 479.478c2.554.174 5.13.27 7.728.27 61.801 0 111.901-50.1 111.901-111.901s-50.1-111.901-111.901-111.901c-2.598 0-5.174.096-7.728.27 58.195 3.971 104.173 52.427 104.173 111.63s-45.978 107.661-104.173 111.632z" fill="#20526b"/></g><g><path d="m127.426 367.97c0-76.953 60.35-139.806 136.302-143.822-2.559-.135-5.135-.207-7.728-.207-79.546 0-144.03 64.484-144.03 144.03s64.484 144.029 144.03 144.029c2.593 0 5.169-.072 7.728-.207-75.952-4.017-136.302-66.87-136.302-143.823z" fill="#20526b"/></g></g></g><path d="m240.241 32.007h31.518v335.841h-31.518z" fill="#c3e4ed"/><path d="m240.241 32.007h15.456v335.841h-15.456z" fill="#add6e0"/><path d="m240.241 127.983h31.518v239.864h-31.518z" fill="#ea4959"/><path d="m240.241 127.983h15.456v239.864h-15.456z" fill="#d83a51"/><circle cx="256" cy="367.847" fill="#89b4c9" r="48.126"/><path d="m212.586 433.95h-11.736l-10.929-10.929.205-11.53 54.766-54.766c6.202-6.202 16.257-6.202 22.459 0 6.202 6.202 6.202 16.257 0 22.459z" fill="#618baa"/><path d="m196.147 466.236-38.307-38.306c-2.734-2.734-2.734-7.166 0-9.899l14.468-14.468c2.734-2.734 7.166-2.734 9.899 0l38.306 38.306c2.734 2.734 2.734 7.166 0 9.899l-14.468 14.468c-2.732 2.734-7.165 2.734-9.898 0z" fill="#ea4959"/><g><g><path d="m256.129 47.353c-24.211 0-48.424-5.5-70.519-16.505l-.574-.286c-7.972-3.972-11.214-13.654-7.242-21.625 3.973-7.973 13.654-11.214 21.625-7.243l.572.285c35.352 17.608 77.518 17.514 112.791-.253 7.956-4.006 17.651-.806 21.657 7.148s.805 17.65-7.148 21.656c-22.263 11.214-46.712 16.823-71.162 16.823z" fill="#356487"/></g></g><path d="m216.522 30.849-.574-.286c-7.972-3.972-11.214-13.654-7.242-21.625.434-.871.947-1.675 1.508-2.43-3.461-1.351-6.873-2.859-10.223-4.528l-.572-.285c-7.972-3.971-17.653-.73-21.625 7.243-3.972 7.971-.73 17.653 7.242 21.625l.574.286c22.095 11.005 46.308 16.505 70.519 16.505 5.16 0 10.318-.265 15.457-.765-18.978-1.845-37.677-7.08-55.064-15.74z" fill="#20526b"/><g><g><path d="m288.007 135.755h-64.014c-4.269 0-7.728-3.46-7.728-7.728s3.459-7.728 7.728-7.728h64.014c4.269 0 7.728 3.46 7.728 7.728s-3.46 7.728-7.728 7.728z" fill="#356487"/></g></g></g></svg>