<svg id="Layer_1" viewBox="0 0 1000 1000" xmlns="http://www.w3.org/2000/svg" data-name="Layer 1"><path d="m884 406.72v36.07a23.52 23.52 0 0 1 -23.48 23.49h-721a23.51 23.51 0 0 1 -23.52-23.49v-36.07z" fill="#ffc400"/><path d="m883.88 374.72h-767.76a132.07 132.07 0 0 1 131.81-126.44h504.13a132.08 132.08 0 0 1 131.82 126.44z" fill="#ffc400"/><path d="m360 166.08v50.2h-56.5v-50.2c0-17.84 12.68-32.36 28.26-32.36s28.24 14.52 28.24 32.36z" fill="#78909c"/><path d="m696.5 166.08v50.2h-56.5v-50.2c0-17.84 12.68-32.36 28.26-32.36s28.24 14.52 28.24 32.36z" fill="#78909c"/><path d="m876.91 866.28h-45.82l-56-149.43-.06-.18-29.94-79.82-.06-.18-51.9-138.39h45.82z" fill="#78909c"/><path d="m306.91 498.28-51.68 137.83c-.07.18-.15.37-.22.56l-.06.18-29.72 79.26c-.07.18-.15.37-.22.56l-.06.18-56 149.43h-45.86l138-368z" fill="#78909c"/><path d="m736.92 706.28h-473.84l18-48h437.84z" fill="#78909c"/><g fill="#fff" opacity=".5"><path d="m874 416.72v36.07a23.52 23.52 0 0 1 -23.48 23.49h-721a23.51 23.51 0 0 1 -23.52-23.49v-36.07z"/><path d="m873.88 384.72h-767.76a132.07 132.07 0 0 1 131.81-126.44h504.13a132.08 132.08 0 0 1 131.82 126.44z"/><path d="m350 176.08v50.2h-56.5v-50.2c0-17.84 12.68-32.36 28.26-32.36s28.24 14.52 28.24 32.36z"/><path d="m686.5 176.08v50.2h-56.5v-50.2c0-17.84 12.68-32.36 28.26-32.36s28.24 14.52 28.24 32.36z"/><path d="m866.91 876.28h-45.82l-56-149.43-.06-.18-29.94-79.82-.06-.18-51.9-138.39h45.82z"/><path d="m296.91 508.28-51.68 137.83c-.07.18-.15.37-.22.56l-.06.18-29.72 79.26c-.07.18-.15.37-.22.56l-.06.18-56 149.43h-45.86l138-368z"/><path d="m726.92 716.28h-473.84l18-48h437.84z"/></g><g fill="#413b32"><path d="m696.5 232.28v-16h-56.5v16a16 16 0 0 1 -16 16h88.5a16 16 0 0 1 -16-16zm-336.47 0v-16h-56.53v16a16 16 0 0 1 -16 16h88.5a16 16 0 0 1 -16-16zm392-16h-504.1c-90.39 0-163.93 73.54-163.93 163.93v62.58a55.55 55.55 0 0 0 55.48 55.49h721a55.55 55.55 0 0 0 55.52-55.49v-62.58c0-90.39-73.54-163.93-163.94-163.93zm131.97 226.51a23.52 23.52 0 0 1 -23.48 23.49h-721a23.51 23.51 0 0 1 -23.52-23.49v-62.58q0-2.76.12-5.49a132.07 132.07 0 0 1 131.81-126.44h504.13a132.08 132.08 0 0 1 131.82 126.44q.12 2.73.12 5.49zm-524-210.51v-16h-56.5v16a16 16 0 0 1 -16 16h88.5a16 16 0 0 1 -16-16zm336.47 0v-16h-56.47v16a16 16 0 0 1 -16 16h88.5a16 16 0 0 1 -16-16zm-336.47 0v-16h-56.5v16a16 16 0 0 1 -16 16h88.5a16 16 0 0 1 -16-16zm336.47 0v-16h-56.47v16a16 16 0 0 1 -16 16h88.5a16 16 0 0 1 -16-16z"/><path d="m392 166.08v66.2a16 16 0 0 1 -32 0v-66.2c0-17.84-12.68-32.36-28.27-32.36s-28.26 14.52-28.26 32.36v66.2a16 16 0 0 1 -32 0v-66.2c0-35.48 27-64.36 60.26-64.36s60.27 28.88 60.27 64.36z"/><path d="m728.5 166.08v66.2a16 16 0 0 1 -32 0v-66.2c0-17.84-12.68-32.36-28.27-32.36s-28.23 14.52-28.23 32.36v66.2a16 16 0 0 1 -32 0v-66.2c0-35.48 27-64.36 60.26-64.36s60.24 28.88 60.24 64.36z"/><path d="m915 876.66-141.91-378.38-8.09-21.62a16 16 0 0 0 -15-10.38h-80a16 16 0 0 0 -15 21.61l3.9 10.39 90 240 56.1 149.61a16 16 0 0 0 15 10.39h80a16 16 0 0 0 15-21.62zm-83.89-10.38-56-149.43-.06-.18-29.94-79.82-.06-.18-51.9-138.39h45.82l138 368z"/><path d="m270 658.28a16 16 0 0 1 -16-16 15.73 15.73 0 0 1 .95-5.43l-29.72 79.26a16 16 0 0 1 14.77-9.83h23.08l18-48zm73.15-185.12a16 16 0 0 0 -13.15-6.88h-80a16 16 0 0 0 -15 10.38l-8.11 21.62-141.89 378.38a16 16 0 0 0 15 21.62h80a16 16 0 0 0 15-10.39l56.1-149.61 90-240 3.9-10.39a16 16 0 0 0 -1.85-14.73zm-87.92 163c-.07.18-.15.37-.22.56l-.06.18-29.72 79.26c-.07.18-.15.37-.22.56l-.06.18-56 149.43h-45.86l138-368h45.82zm14.77 22.12a16 16 0 0 1 -16-16 15.73 15.73 0 0 1 .95-5.43l-29.72 79.26a16 16 0 0 1 14.77-9.83h23.08l18-48z"/><path d="m746 642.28a16 16 0 0 1 -16 16h-460a16 16 0 0 1 -16-16 15.73 15.73 0 0 1 .95-5.43l.06-.18c.07-.19.15-.38.22-.56a16 16 0 0 1 14.77-9.83h460a16 16 0 0 1 15 10.39l.06.18a15.73 15.73 0 0 1 .94 5.43z"/><path d="m776 722.28a16 16 0 0 1 -16 16h-520a16 16 0 0 1 -16-16 15.73 15.73 0 0 1 .95-5.43l.06-.18c.07-.19.15-.38.22-.56a16 16 0 0 1 14.77-9.83h520a16 16 0 0 1 15 10.39l.06.18a15.73 15.73 0 0 1 .94 5.43z"/><path d="m916 390.72a16 16 0 0 1 -16 16h-800a16 16 0 0 1 0-32h800a16 16 0 0 1 16 16z"/></g></svg>