<svg id="Layer_1" viewBox="0 0 1000 1000" xmlns="http://www.w3.org/2000/svg" data-name="Layer 1"><path d="m678 159.78-34 58.78a314.26 314.26 0 0 0 -141.91-34.56h-4.18a314.26 314.26 0 0 0 -141.91 34.56l-33.93-58.78a383.52 383.52 0 0 1 355.89 0z" fill="#80deea"/><path d="m328.3 234.6a320.53 320.53 0 0 0 -93.7 93.7l-58.77-33.93a387 387 0 0 1 118.54-118.55z" fill="#80deea"/><path d="m218.56 356a313.75 313.75 0 0 0 -34.17 128h-68.06a381.3 381.3 0 0 1 43.45-161.95z" fill="#80deea"/><path d="m218.56 644-58.78 34a381.3 381.3 0 0 1 -43.45-162q-.33-8-.33-16t.33-16h68.06q-.39 8-.39 16t.39 16a313.54 313.54 0 0 0 34.17 128z" fill="#80deea"/><path d="m328.3 765.4-33.93 58.77a386.83 386.83 0 0 1 -118.54-118.54l58.77-33.93a320.53 320.53 0 0 0 93.7 93.7z" fill="#80deea"/><path d="m678 840.22a383.52 383.52 0 0 1 -355.89 0l33.89-58.78a314.26 314.26 0 0 0 141.91 34.56h4.18a314.26 314.26 0 0 0 141.91-34.56z" fill="#80deea"/><path d="m824.17 705.63a386.79 386.79 0 0 1 -118.53 118.54l-33.93-58.77a320.53 320.53 0 0 0 93.7-93.7z" fill="#80deea"/><path d="m883.67 516a381.3 381.3 0 0 1 -43.45 162l-58.78-34a313.54 313.54 0 0 0 34.17-128z" fill="#80deea"/><path d="m883.67 484h-68.06a313.75 313.75 0 0 0 -34.17-128l58.78-33.93a381.3 381.3 0 0 1 43.45 161.93z" fill="#80deea"/><path d="m824.17 294.37-58.77 33.92a320.46 320.46 0 0 0 -93.69-93.69l33.93-58.77a386.79 386.79 0 0 1 118.53 118.54z" fill="#80deea"/><path d="m784 500c0 111.55-64.64 208.28-158.44 254.71a158.64 158.64 0 0 0 33.85-98.12v-313.18a158.64 158.64 0 0 0 -33.85-98.12c93.8 46.43 158.44 143.16 158.44 254.71z" fill="#80deea"/><path d="m340.59 656.59a158.64 158.64 0 0 0 33.85 98.12c-93.8-46.43-158.44-143.16-158.44-254.71s64.64-208.28 158.44-254.71a158.64 158.64 0 0 0 -33.85 98.12z" fill="#80deea"/><path d="m501.64 216h-3.28a127.56 127.56 0 0 0 -125.77 127.4v313.19a127.56 127.56 0 0 0 125.77 127.41h3.28a127.56 127.56 0 0 0 125.77-127.4v-313.19a127.56 127.56 0 0 0 -125.77-127.41zm102.77 440.59a104.41 104.41 0 1 1 -208.82 0v-313.18a104.41 104.41 0 1 1 208.82 0z" fill="#ffc400"/><path d="m572.41 343.41v313.18a72.41 72.41 0 1 1 -144.82 0v-313.18a72.41 72.41 0 1 1 144.82 0z" fill="#1b5e20"/><g fill="#fff" opacity=".5"><path d="m668 169.78-34 58.78a314.26 314.26 0 0 0 -141.91-34.56h-4.18a314.26 314.26 0 0 0 -141.91 34.56l-33.93-58.78a383.52 383.52 0 0 1 355.89 0z"/><path d="m318.3 244.6a320.53 320.53 0 0 0 -93.7 93.7l-58.77-33.93a387 387 0 0 1 118.54-118.55z"/><path d="m208.56 366a313.75 313.75 0 0 0 -34.17 128h-68.06a381.3 381.3 0 0 1 43.45-161.95z"/><path d="m208.56 654-58.78 34a381.3 381.3 0 0 1 -43.45-162q-.33-7.95-.33-16t.33-16h68.06q-.39 8-.39 16t.39 16a313.54 313.54 0 0 0 34.17 128z"/><path d="m318.3 775.4-33.93 58.77a386.83 386.83 0 0 1 -118.54-118.54l58.77-33.93a320.53 320.53 0 0 0 93.7 93.7z"/><path d="m668 850.22a383.52 383.52 0 0 1 -355.89 0l33.89-58.78a314.26 314.26 0 0 0 141.91 34.56h4.18a314.26 314.26 0 0 0 141.91-34.56z"/><path d="m814.17 715.63a386.79 386.79 0 0 1 -118.53 118.54l-33.93-58.77a320.53 320.53 0 0 0 93.7-93.7z"/><path d="m873.67 526a381.3 381.3 0 0 1 -43.45 162l-58.78-34a313.54 313.54 0 0 0 34.17-128z"/><path d="m873.67 494h-68.06a313.75 313.75 0 0 0 -34.17-128l58.78-33.93a381.3 381.3 0 0 1 43.45 161.93z"/><path d="m814.17 304.37-58.77 33.92a320.46 320.46 0 0 0 -93.69-93.69l33.93-58.77a386.79 386.79 0 0 1 118.53 118.54z"/><path d="m774 510c0 111.55-64.64 208.28-158.44 254.71a158.64 158.64 0 0 0 33.85-98.12v-313.18a158.64 158.64 0 0 0 -33.85-98.12c93.8 46.43 158.44 143.16 158.44 254.71z"/><path d="m330.59 666.59a158.64 158.64 0 0 0 33.85 98.12c-93.8-46.43-158.44-143.16-158.44-254.71s64.64-208.28 158.44-254.71a158.64 158.64 0 0 0 -33.85 98.12z"/><path d="m491.64 226h-3.28a127.56 127.56 0 0 0 -125.77 127.4v313.19a127.56 127.56 0 0 0 125.77 127.41h3.28a127.56 127.56 0 0 0 125.77-127.4v-313.19a127.56 127.56 0 0 0 -125.77-127.41zm102.77 440.59a104.41 104.41 0 1 1 -208.82 0v-313.18a104.41 104.41 0 1 1 208.82 0z"/><path d="m562.41 353.41v313.18a72.41 72.41 0 1 1 -144.82 0v-313.18a72.41 72.41 0 1 1 144.82 0z"/></g><g fill="#413b32"><path d="m883.3 338.07a417.29 417.29 0 1 0 32.7 161.93 414.53 414.53 0 0 0 -32.7-161.93zm-43.08 339.93q-7.46 14.2-16.05 27.68a386.79 386.79 0 0 1 -118.53 118.49q-13.47 8.58-27.69 16.05a383.52 383.52 0 0 1 -355.89 0q-14.21-7.44-27.69-16.05a386.83 386.83 0 0 1 -118.54-118.54q-8.6-13.47-16.05-27.68a381.3 381.3 0 0 1 -43.45-162q-.33-8-.33-16t.33-16a381.3 381.3 0 0 1 43.45-161.95q7.46-14.21 16.05-27.68a387 387 0 0 1 118.54-118.5q13.47-8.58 27.69-16a383.52 383.52 0 0 1 355.89 0q14.2 7.46 27.69 16.05a386.79 386.79 0 0 1 118.53 118.5q8.6 13.47 16.05 27.68a381.3 381.3 0 0 1 43.45 162q.33 8 .33 16t-.33 16a381.3 381.3 0 0 1 -43.45 161.95z"/><path d="m356 781.44a314.26 314.26 0 0 0 141.91 34.56 159.22 159.22 0 0 1 -123.46-61.28c-93.81-46.44-158.45-143.17-158.45-254.72a16 16 0 0 1 -16 16h-15.61a313.54 313.54 0 0 0 34.17 128l13.6-7.85a16 16 0 1 1 16 27.71l-13.56 7.84a320.53 320.53 0 0 0 93.7 93.7l7.82-13.55a16 16 0 0 1 27.72 16zm0 0a314.26 314.26 0 0 0 141.91 34.56 159.22 159.22 0 0 1 -123.46-61.28c-93.81-46.44-158.45-143.17-158.45-254.72a16 16 0 0 1 -16 16h-15.61a313.54 313.54 0 0 0 34.17 128l13.6-7.85a16 16 0 1 1 16 27.71l-13.56 7.84a320.53 320.53 0 0 0 93.7 93.7l7.82-13.55a16 16 0 0 1 27.72 16zm459.61-297.44a313.75 313.75 0 0 0 -34.17-128 309.49 309.49 0 0 0 -16-27.69 320.46 320.46 0 0 0 -93.69-93.69 307.25 307.25 0 0 0 -27.7-16 314.26 314.26 0 0 0 -141.96-34.62h-4.18a314.26 314.26 0 0 0 -141.91 34.56 307.09 307.09 0 0 0 -27.69 16 320.53 320.53 0 0 0 -93.7 93.7 313 313 0 0 0 -50.22 155.74q-.39 8-.39 16t.39 16a313.54 313.54 0 0 0 34.17 128 309.49 309.49 0 0 0 16 27.69 320.53 320.53 0 0 0 93.7 93.7 307.09 307.09 0 0 0 27.69 16 314.26 314.26 0 0 0 141.96 34.61h4.18a314.26 314.26 0 0 0 141.91-34.56 307.25 307.25 0 0 0 27.7-16 320.53 320.53 0 0 0 93.7-93.7 309.39 309.39 0 0 0 16-27.69 313.54 313.54 0 0 0 34.17-128q.39-8 .39-16t-.35-16.05zm-190.05 270.71a282.15 282.15 0 0 1 -123.92 29.29h-3.28a282.15 282.15 0 0 1 -123.91-29.28c-93.81-46.44-158.45-143.17-158.45-254.72s64.64-208.28 158.44-254.71a282.15 282.15 0 0 1 123.92-29.29h3.28a282.15 282.15 0 0 1 123.91 29.28c93.81 46.44 158.45 143.17 158.45 254.72s-64.64 208.28-158.44 254.71zm-269.56 26.73a314.26 314.26 0 0 0 141.91 34.56 159.22 159.22 0 0 1 -123.46-61.28c-93.81-46.44-158.45-143.17-158.45-254.72a16 16 0 0 1 -16 16h-15.61a313.54 313.54 0 0 0 34.17 128l13.6-7.85a16 16 0 1 1 16 27.71l-13.56 7.84a320.53 320.53 0 0 0 93.7 93.7l7.82-13.55a16 16 0 0 1 27.72 16z"/><path d="m625.56 245.29a159.22 159.22 0 0 0 -123.47-61.29h-4.18a159.22 159.22 0 0 0 -123.46 61.28 158.64 158.64 0 0 0 -33.85 98.12v313.19a158.64 158.64 0 0 0 33.85 98.12 159.22 159.22 0 0 0 123.46 61.29h4.18a159.22 159.22 0 0 0 123.46-61.28 158.64 158.64 0 0 0 33.85-98.12v-313.19a158.64 158.64 0 0 0 -33.84-98.12zm1.85 411.3a127.56 127.56 0 0 1 -125.77 127.41h-3.28a127.56 127.56 0 0 1 -125.77-127.4v-313.19a127.56 127.56 0 0 1 125.77-127.41h3.28a127.56 127.56 0 0 1 125.77 127.4z"/><path d="m500 239a104.53 104.53 0 0 0 -104.41 104.41v313.18a104.41 104.41 0 1 0 208.82 0v-313.18a104.53 104.53 0 0 0 -104.41-104.41zm72.41 417.59a72.41 72.41 0 1 1 -144.82 0v-313.18a72.41 72.41 0 1 1 144.82 0z"/><path d="m916 500a16 16 0 0 1 -16 16h-100a16 16 0 0 1 0-32h100a16 16 0 0 1 16 16z"/><path d="m116.33 484q-.33 8-.33 16t.33 16h-16.33a16 16 0 0 1 0-32z"/><path d="m216 500a16 16 0 0 1 -16 16h-15.61q-.39-8-.39-16t.39-16h15.61a16 16 0 0 1 16 16z"/><path d="m854.46 313.83-14.24 8.22-58.78 33.95-13.59 7.85a16 16 0 1 1 -15.59-27.95l13.14-7.59 58.77-33.92 14.29-8.25a16 16 0 1 1 16 27.71z"/><path d="m248.16 663.87-13.56 7.83-58.77 33.93-14.29 8.25a16 16 0 1 1 -16-27.71l14.24-8.17 58.78-34 13.6-7.85a16 16 0 1 1 16 27.71z"/><path d="m713.89 161.54-8.25 14.29-33.93 58.77-7.83 13.56a16 16 0 0 1 -27.72-16l7.85-13.6 33.99-58.78 8.22-14.24a16 16 0 0 1 27.72 16z"/><path d="m363.84 767.84-7.84 13.6-33.93 58.78-8.22 14.24a16 16 0 0 1 -27.72-16l8.25-14.29 33.92-58.77 7.82-13.55a16 16 0 0 1 27.72 16z"/><path d="m366 240.15a16 16 0 0 1 -30.1 7.58l-7.6-13.13-33.93-58.78-8.25-14.29a16 16 0 0 1 27.72-16l8.22 14.24 33.94 58.79 7.85 13.59a16 16 0 0 1 2.15 8z"/><path d="m708 860.31a16 16 0 0 1 -21.86-5.85l-8.14-14.24-34-58.78-7.85-13.6a16 16 0 1 1 27.72-16l7.83 13.56 33.93 58.77 8.25 14.29a16 16 0 0 1 -5.88 21.85z"/><path d="m254 358a16 16 0 0 1 -21.86 5.85l-13.58-7.85-58.78-33.93-14.24-8.22a16 16 0 1 1 16-27.71l14.29 8.25 58.77 33.91 13.55 7.82a16 16 0 0 1 5.85 21.88z"/><path d="m860.31 708a16 16 0 0 1 -21.85 5.85l-14.29-8.25-58.76-33.9-13.57-7.83a16 16 0 1 1 16-27.71l13.6 7.85 58.78 33.99 14.24 8.22a16 16 0 0 1 5.85 21.78z"/></g></svg>