<svg enable-background="new 0 0 32 32" viewBox="0 0 32 32" xmlns="http://www.w3.org/2000/svg"><g id="Grid" display="none"/><g id="bow_tie"/><g id="balloon_1_"/><g id="placeholder"/><g id="mic"/><g id="speaker"/><g id="champagne"/><g id="gift"/><g id="theater"/><g id="_camera"/><g id="video_camera"><path d="m4.425 13.94h5.217v3.294h-5.217z" fill="#333"/><path d="m3.492 18.168h-.559c-.515 0-.933-.418-.933-.933v-3.295c0-.515.418-.933.933-.933h.559c.515 0 .933.418.933.933v3.295c0 .515-.418.933-.933.933z" fill="#3a3a3a"/><path d="m4.43 15.589v1.65c0 .51-.42.93-.94.93h-.56c-.51 0-.93-.42-.93-.93v-1.65c0 .51.42.93.93.93h.56c.52 0 .94-.42.94-.93z" fill="#333"/><path d="m13.62 13.725c-.179 0-.36-.043-.527-.135-.532-.292-.727-.96-.435-1.492l1.849-3.373c.695-1.271 2.028-2.06 3.478-2.06h6.267c.607 0 1.099.492 1.099 1.099s-.492 1.099-1.099 1.099h-6.267c-.646 0-1.241.352-1.551.919l-1.85 3.374c-.199.363-.576.569-.964.569z" fill="#3a3a3a"/><path d="m27.22 23.389-8.019-2.281v-4.941l8.019-2.281z" fill="#333"/><path d="m29.122 24.862h-1.023c-.485 0-.878-.393-.878-.878v-10.693c0-.485.393-.878.878-.878h1.023c.485 0 .878.393.878.878v10.692c0 .486-.393.879-.878.879z" fill="#3a3a3a"/><path d="m30 19.169v4.81c0 .49-.39.88-.88.88h-1.02c-.49 0-.88-.39-.88-.88v-4.81c0 .49.39.88.88.88h1.02c.49 0 .88-.39.88-.88z" fill="#333"/><path d="m20.575 11.549c1.287.226 2.264 1.275 2.396 2.575.137 1.352.228 2.865.228 4.513 0 1.321-.058 2.852-.231 4.542-.132 1.287-1.117 2.323-2.391 2.546-1.67.293-3.562.493-5.637.493-1.639 0-3.555-.124-5.676-.5-1.257-.222-2.222-1.267-2.352-2.537-.173-1.691-.232-3.222-.232-4.544 0-1.65.091-3.164.229-4.516.13-1.283 1.088-2.341 2.357-2.566 2.12-.375 4.035-.499 5.673-.499 2.076.001 3.967.2 5.636.493z" fill="#3a3a3a"/><path d="m23.16 20.499c-.03.84-.09 1.73-.19 2.68-.13 1.29-1.12 2.32-2.39 2.55-1.67.29-3.56.49-5.64.49-1.64 0-3.55-.13-5.68-.5-1.25-.22-2.22-1.27-2.35-2.54-.1-.95-.16-1.86-.19-2.7.21 1.21 1.16 2.18 2.38 2.4 2.18.38 4.15.51 5.84.51 2.14 0 4.08-.21 5.8-.51 1.23-.22 2.19-1.16 2.42-2.38z" fill="#333"/><path d="m25.06 9.746h-2.969c-.849 0-1.537-.688-1.537-1.537v-.892c0-.849.688-1.537 1.537-1.537h2.969c.849 0 1.537.688 1.537 1.537v.893c0 .848-.688 1.536-1.537 1.536z" fill="#efefef"/><path d="m26.6 7.609v.6c0 .85-.69 1.54-1.54 1.54h-2.97c-.85 0-1.54-.69-1.54-1.54v-.6c.29.47.81.78 1.41.78h3.23c.6 0 1.12-.31 1.41-.78z" fill="#ddd"/><path d="m14.94 19.196c-1.378 0-2.766-.059-4.14-.176-.555-.047-.986-.497-1.042-1.051-.051-.508-.077-1.018-.077-1.525 0-.508.026-1.017.077-1.525.056-.554.487-1.004 1.042-1.051 1.375-.117 2.763-.176 4.14-.176 1.378 0 2.767.059 4.141.176.555.047.985.497 1.042 1.051.052.507.077 1.017.077 1.525 0 .507-.026 1.017-.078 1.525-.056.554-.487 1.004-1.042 1.051-1.373.117-2.762.176-4.14.176z" fill="#83dcff"/><path d="m20.19 16.689c0 .43-.03.85-.07 1.28-.05.55-.48 1-1.04 1.05-1.37.12-2.76.18-4.14.18s-2.77-.06-4.14-.18c-.55-.05-.98-.5-1.04-1.05-.04-.43-.07-.86-.07-1.29.18.36.52.61.94.65 1.43.12 2.88.18 4.31.18s2.88-.06 4.31-.18c.41-.04.76-.29.94-.64z" fill="#7acfea"/><circle cx="10.963" cy="22.186" fill="#e96565" r="1.125"/><circle cx="14.875" cy="22.457" fill="#72d98b" r="1.125"/><path d="m29.122 11.988h-1.023c-.719 0-1.304.584-1.304 1.303v.278l-3.367.953c-.013-.146-.019-.294-.033-.44-.15-1.48-1.279-2.693-2.746-2.951-1.396-.245-2.807-.399-4.223-.462l.376-.683c.236-.433.688-.7 1.179-.7h2.472c.351.533.953.887 1.638.887h2.969c1.082 0 1.962-.88 1.962-1.962v-.894c0-1.082-.88-1.961-1.962-1.961h-2.969c-.682 0-1.282.35-1.634.879h-2.477c-1.608 0-3.082.878-3.845 2.293l-1.187 2.173c-1.257.076-2.512.216-3.756.436-1.255.222-2.258 1.166-2.598 2.378h-1.819c-.179-.54-.683-.934-1.283-.934h-.56c-.749 0-1.357.609-1.357 1.358v3.295c0 .749.608 1.357 1.357 1.357h.56c.601 0 1.106-.395 1.284-.938h1.505c-.007.328-.025.655-.025.982 0 1.527.078 3.071.233 4.588.149 1.459 1.26 2.657 2.7 2.912 1.898.336 3.833.506 5.75.506 1.903 0 3.825-.168 5.711-.5 1.464-.257 2.59-1.458 2.74-2.921.016-.154.021-.311.036-.466l3.368.955v.273c0 .718.585 1.303 1.304 1.303h1.023c.719 0 1.303-.584 1.303-1.303v-10.691c.001-.719-.583-1.303-1.302-1.303zm-8.143-4.671c0-.613.499-1.112 1.112-1.112h2.969c.613 0 1.112.499 1.112 1.112v.892c0 .613-.499 1.112-1.112 1.112h-2.969c-.613 0-1.112-.499-1.112-1.112zm-6.096 1.617c.615-1.141 1.802-1.849 3.098-1.849h2.172c-.009.077-.023.153-.023.232v.892c0 .077.014.151.023.226h-2.173c-.803 0-1.54.437-1.924 1.141l-.588 1.069c-.509-.008-1.017-.005-1.526.01zm-10.883 8.301c0 .28-.228.508-.508.508h-.56c-.28 0-.508-.228-.508-.508v-3.295c0-.28.228-.508.508-.508h.56c.28 0 .508.228.508.508zm.85-.43v-2.44h1.616c-.077.808-.129 1.623-.162 2.44zm15.655 8.502c-3.688.647-7.479.646-11.166-.007-1.068-.189-1.893-1.078-2.003-2.162-.152-1.488-.229-3.002-.229-4.501 0-1.493.076-2.998.227-4.473.111-1.101.938-2.001 2.009-2.19 3.688-.651 7.475-.653 11.16-.007 1.093.192 1.935 1.097 2.047 2.2.15 1.474.227 2.978.227 4.47 0 1.498-.077 3.012-.229 4.498-.113 1.087-.952 1.98-2.043 2.172zm2.988-3.416c.078-1.083.132-2.171.132-3.254 0-1.084-.053-2.17-.131-3.251l3.301-.934v8.376zm6.082 2.093c0 .25-.203.453-.453.453h-1.023c-.25 0-.454-.204-.454-.453v-10.693c0-.25.204-.454.454-.454h1.023c.25 0 .453.204.453.454z"/><path d="m19.117 13.445c-2.771-.235-5.581-.235-8.353 0-.751.063-1.352.666-1.429 1.432-.053.516-.079 1.043-.079 1.567 0 .514.026 1.041.079 1.567.078.766.679 1.368 1.429 1.432 1.386.118 2.79.177 4.176.177 1.385 0 2.79-.06 4.177-.177.75-.064 1.351-.666 1.429-1.431.053-.528.079-1.055.079-1.568 0-.515-.026-1.042-.079-1.567-.078-.767-.68-1.369-1.429-1.432zm.583 4.482c-.037.358-.313.641-.655.67-2.725.231-5.485.231-8.208 0-.343-.029-.618-.312-.655-.671-.05-.497-.075-.996-.075-1.481 0-.496.025-.994.075-1.482.036-.359.312-.641.655-.67 1.361-.116 2.742-.174 4.104-.174s2.743.059 4.104.174c.343.029.618.311.655.67.05.497.075.996.075 1.482 0 .485-.025.984-.075 1.482z"/><path d="m15.315 15.12-.375-.001c-.521 0-1.043.008-1.566.026-.234.008-.418.205-.41.439.008.23.196.411.425.411h.015c.514-.018 1.026-.026 1.537-.026l.369.001h.003c.233 0 .423-.188.425-.421.001-.236-.187-.428-.423-.429z" fill="#c2f4ff"/><path d="m11.604 15.235c-.234.017-.45.224-.434.458.017.224.166.397.384.397.01 0 .021 0 .03-.001l.082-.006c.234-.017.41-.221.393-.455-.017-.233-.203-.419-.455-.393z" fill="#c2f4ff"/><path d="m10.963 20.636c-.854 0-1.55.695-1.55 1.549s.695 1.55 1.55 1.55 1.55-.695 1.55-1.55-.696-1.549-1.55-1.549zm0 2.25c-.386 0-.7-.314-.7-.7s.314-.7.7-.7.7.314.7.7-.314.7-.7.7z"/><path d="m14.875 20.908c-.854 0-1.549.695-1.549 1.549s.694 1.55 1.549 1.55 1.55-.695 1.55-1.55-.696-1.549-1.55-1.549zm0 2.249c-.386 0-.699-.314-.699-.7s.313-.7.699-.7.7.314.7.7-.314.7-.7.7z"/></g><g id="party_hat"/><g id="champagne_glass"/><g id="man"/><g id="woman"/><g id="skewer"/><g id="ticket"/><g id="cake"/><g id="lights"/><g id="photo"/><g id="invitation"/></svg>