<svg id="Layer_1" viewBox="0 0 512 512" xmlns="http://www.w3.org/2000/svg" data-name="Layer 1"><path d="m67.15 208.63h257.75v46.11h-257.75z" fill="#c4d2db"/><path d="m324.9 141.78h125.15l45.95 52.58h-171.1z" fill="#7a8189" fill-rule="evenodd"/><path d="m324.9 194.36h171.1v74.64h-171.1z" fill="#7f8e94"/><path d="m183.15 91.47c-43.22 3-49.85 57.96-49.85 83.92v97.28h99.71v-83.34h-33.21v-32.32h21.72v-65.67c-9.83 0-27.2-.64-38.36.14z" fill="#7f8e94" fill-rule="evenodd"/><path d="m183.15 91.47c-43.22 3-49.85 57.96-49.85 83.92v97.28h49.85z" fill="#a3b2b9" fill-rule="evenodd"/><path d="m328.13 269h121.77v74.64h-121.77z" fill="#7a8189"/><circle cx="53.05" cy="232.38" fill="#7a8189" r="37.05" transform="matrix(.042 -.999 .999 .042 -181.33 275.72)"/><path d="m53.05 269.42c-20.46 0-37.05-16.59-37.05-37.05s16.59-37.05 37.05-37.05v74.09z" fill="#a3b2b9" fill-rule="evenodd"/><path d="m325.06 312.29h127.9c11.88 0 21.6 9.72 21.6 21.6v40.47h-171.1v-40.47c0-11.88 9.72-21.6 21.6-21.6z" fill="#a3b2b9" fill-rule="evenodd"/><path d="m133.3 359.94h362.7v64.64h-362.7z" fill="#7f8e94"/><path d="m331.88 87.8c43.22 3 49.85 57.96 49.85 83.92v97.28h-99.71v-83.34h33.21v-32.32h-21.72v-65.68c9.83 0 27.2-.64 38.37.14z" fill="#7f8e94" fill-rule="evenodd"/><path d="m331.88 87.8c43.22 3 49.85 57.96 49.85 83.92v97.28h-49.85z" fill="#a3b2b9" fill-rule="evenodd"/><path d="m496.07 280.64c4.42 0 8-3.58 8-8v-74.64s0-.07 0-.11c0-.15-.01-.3-.02-.45 0-.12-.01-.23-.03-.35-.02-.14-.04-.28-.06-.42-.02-.12-.04-.24-.06-.36-.03-.13-.06-.26-.1-.38-.03-.13-.06-.25-.1-.37s-.09-.24-.13-.36c-.05-.12-.09-.25-.14-.37-.05-.11-.11-.23-.16-.34-.06-.12-.12-.24-.18-.36-.06-.1-.12-.21-.19-.31-.08-.12-.15-.24-.23-.36-.06-.09-.14-.18-.21-.28-.09-.12-.18-.24-.28-.36-.02-.03-.04-.06-.07-.09l-45.95-52.58c-1.52-1.74-3.72-2.74-6.02-2.74h-64.63c-1.4-5.76-3.24-11.61-5.66-17.25-10.34-24.12-28.19-36.87-51.63-36.87-.12 0-.24.01-.37.02-.12 0-.24-.02-.37-.02h-33.88c-4.42 0-8 3.58-8 8v65.68c0 4.42 3.58 8 8 8h13.72v16.32h-25.21c-4.42 0-8 3.58-8 8v14.97h-33.02v-11.29c0-4.42-3.58-8-8-8h-25.21v-16.32h13.72c4.42 0 8-3.58 8-8v-65.68c0-4.42-3.58-8-8-8h-33.88c-.12 0-.24.01-.37.02-.12 0-.24-.02-.37-.02-23.44 0-41.29 12.75-51.63 36.87-8.68 20.25-9.98 43.27-9.98 55.19v25.23h-40.33c-6.37-6.41-14.66-10.9-23.92-12.57v-46.86c0-4.42-3.58-8-8-8s-8 3.58-8 8v46.86c-21.03 3.79-37.05 22.21-37.05 44.32s16.01 40.53 37.05 44.32v46.86c0 4.42 3.58 8 8 8s8-3.58 8-8v-46.86c9.91-1.79 18.71-6.81 25.25-13.96h39.01v9.94c0 4.42 3.58 8 8 8h99.71c4.42 0 8-3.58 8-8v-9.94h33.02v6.27c0 4.42 3.58 8 8 8h38.1v27.71c-13.98 2.36-24.67 14.54-24.67 29.18v16.02h-162.17c-4.42 0-8 3.58-8 8v66.68c0 4.42 3.58 8 8 8h362.7c4.42 0 8-3.58 8-8v-66.68c0-4.42-3.58-8-8-8h-13.44v-16.02c0-14.64-10.69-26.82-24.67-29.18v-27.71h38.1zm-8-16h-98.26v-58.64h98.26zm-41.58-111.22 31.97 36.58h-88.65v-14.64c0-5.44-.27-13.2-1.39-21.94zm-144.9-54.12h17.88v49.68h-17.88zm-105.88 3.68h17.88v49.68h-17.88zm-142.59 162.08c-16.02 0-29.05-13.03-29.05-29.05s13.03-29.05 29.05-29.05 29.05 13.03 29.05 29.05-13.03 29.05-29.05 29.05zm42.69-14.69c1.52-4.51 2.36-9.34 2.36-14.36 0-5.54-1.01-10.84-2.85-15.75h30.05v30.11h-29.57zm129.28 17.94h-83.71v-89.28c0-16.76 2.91-69.15 38.34-75.43v57.06c0 4.42 3.58 8 8 8h4.16v24.32c0 4.42 3.58 8 8 8h25.21v67.34zm16-17.94v-30.11h33.02v30.11zm49.02-53.08h25.21c4.42 0 8-3.58 8-8v-24.32h4.16c4.42 0 8-3.58 8-8v-57.06c22.23 3.95 31.65 26.03 35.59 46.09.05.63.16 1.25.35 1.83 2.03 11.22 2.4 21.59 2.4 27.52v89.28h-83.71zm197.97 222.93h-346.71v-50.68h346.7v50.68zm-21.44-82.69v16.02h-155.1v-16.02c0-7.5 6.1-13.6 13.6-13.6h127.9c7.5 0 13.6 6.1 13.6 13.6zm-24.67-29.6h-105.77v-27.29h105.77z"/></svg>