<svg id="Capa_1" enable-background="new 0 0 512 512" height="512" viewBox="0 0 512 512" width="512" xmlns="http://www.w3.org/2000/svg"><g><g><path d="m219.539 297.602h72.922v105.313h-72.922z" fill="#ffdfcf"/><path d="m268.794 297.602h23.667v105.314h-23.667z" fill="#ffcebf"/><path d="m301.63 348.624h-93.486c-7.366 0-13.337 5.971-13.337 13.337v18.694h120.159v-18.694c0-7.366-5.971-13.337-13.336-13.337z" fill="#7a6d79"/><path d="m301.63 348.624h-23.667c7.366 0 13.337 5.971 13.337 13.337v18.694h23.667v-18.694c-.001-7.366-5.972-13.337-13.337-13.337z" fill="#685e68"/><path d="m462.456 307.938h-412.912c-8.028 0-14.537-6.508-14.537-14.537v-271.361c0-8.028 6.508-14.537 14.537-14.537h412.912c8.029 0 14.537 6.508 14.537 14.537v271.361c0 8.029-6.509 14.537-14.537 14.537z" fill="#bbe0ff"/><path d="m462.456 7.503h-17.669c8.029 0 14.537 6.509 14.537 14.537v271.361c0 8.028-6.508 14.537-14.537 14.537h17.669c8.029 0 14.537-6.508 14.537-14.537v-271.361c0-8.028-6.509-14.537-14.537-14.537z" fill="#9dc9eb"/><path d="m65.062 274.129v-232.816c0-2.074 1.681-3.755 3.755-3.755h374.366c2.074 0 3.755 1.681 3.755 3.755v232.816c0 2.074-1.681 3.755-3.755 3.755h-374.366c-2.074 0-3.755-1.681-3.755-3.755z" fill="#efedf0"/><path d="m443.183 37.558h-23.667c2.074 0 3.755 1.681 3.755 3.755v232.816c0 2.074-1.681 3.755-3.755 3.755h23.667c2.074 0 3.755-1.681 3.755-3.755v-232.816c0-2.074-1.681-3.755-3.755-3.755z" fill="#e1dee2"/><path d="m158.846 380.654h194.308v123.846h-194.308z" fill="#fe646f"/><path d="m330.489 380.654h22.666v123.846h-22.666z" fill="#fd4755"/><path d="m271.961 313.964h-31.921c-32.219 0-58.337-26.118-58.337-58.337v-90.258h148.595v90.258c0 32.218-26.119 58.337-58.337 58.337z" fill="#ffdfcf"/><path d="m306.63 165.369v90.258c0 32.219-26.118 58.337-58.337 58.337h23.667c32.219 0 58.337-26.118 58.337-58.337v-90.258z" fill="#ffcebf"/><path d="m158.846 380.654v123.846h-68.539l2.207-33.764 3.096-47.417c1.568-24 21.486-42.664 45.542-42.664h17.694z" fill="#ffdfcf"/><path d="m141.151 380.654c-2.024 0-4.016.143-5.973.399v123.447h23.667v-123.846z" fill="#ffcebf"/><path d="m421.693 504.5h-68.539v-123.846h17.695c24.056 0 43.974 18.665 45.542 42.664l3.096 47.417z" fill="#ffdfcf"/><path d="m419.487 470.736-3.096-47.417c-1.568-24-21.485-42.664-45.542-42.664h-17.694v.399c21.302 2.79 38.132 20.285 39.569 42.265l3.096 47.417 2.207 33.764h23.667z" fill="#ffcebf"/><path d="m141.151 380.654h17.694v90.081h-66.332l3.096-47.417c1.569-23.999 21.486-42.664 45.542-42.664z" fill="#8ce1a4"/><path d="m141.151 380.654c-2.024 0-4.016.143-5.973.399v89.682h23.667v-90.081z" fill="#78c2a4"/><path d="m419.487 470.736h-66.332v-90.081h17.695c24.056 0 43.974 18.665 45.542 42.664z" fill="#8ce1a4"/><path d="m416.39 423.319c-1.568-24-21.485-42.664-45.542-42.664h-17.694v.399c21.302 2.79 38.132 20.285 39.569 42.265l3.096 47.417h23.667z" fill="#78c2a4"/><path d="m180.811 265.063c-2.38-.748-4.55-2.052-6.324-3.808-9.969-9.869-15.642-23.356-15.642-37.496v-67.808c0-29.388 23.823-53.211 53.211-53.211h87.886c29.388 0 53.211 23.823 53.211 53.211v69.986c0 13.24-6.285 25.939-15.418 35.627-1.873 1.987-4.23 3.456-6.842 4.254l-55.476 16.954c-12.649 3.865-26.171 3.811-38.788-.157z" fill="#f6a96c"/><path d="m299.943 102.741h-23.667c29.388 0 53.211 23.824 53.211 53.211v69.986c0 13.24-6.285 25.939-15.418 35.627-1.874 1.987-4.23 3.456-6.842 4.254l-55.476 16.954c-2.402.734-4.835 1.325-7.287 1.776 10.274 1.884 20.891 1.299 30.955-1.776l55.476-16.954c2.612-.798 4.969-2.267 6.842-4.254 9.132-9.688 15.418-22.387 15.418-35.627v-69.986c-.001-29.387-23.824-53.211-53.212-53.211z" fill="#ea9b58"/></g><path d="m462.461 0h-412.922c-12.15 0-22.036 9.886-22.036 22.036v271.367c0 12.15 9.886 22.036 22.036 22.036h162.495v25.685c-12.336-1.582-24.72 7.715-24.727 20.837v11.193h-46.156c-27.914 0-51.206 21.82-53.026 49.676l-5.303 81.181c-.27 4.134 2.862 7.703 6.995 7.974.167.011.332.016.497.016 3.918 0 7.217-3.044 7.477-7.011l1.748-26.754h51.807v26.264c0 4.143 3.357 7.5 7.5 7.5s7.5-3.357 7.5-7.5v-116.346h179.309v116.346c0 4.143 3.357 7.5 7.5 7.5s7.5-3.357 7.5-7.5v-26.265h51.807l1.748 26.754c.26 3.967 3.558 7.011 7.477 7.011.165 0 .33-.005.497-.016 4.133-.271 7.265-3.84 6.995-7.974l-5.303-81.182c-1.82-27.854-25.112-49.675-53.026-49.675h-48.382v-11.193c.081-11.554-10.37-21.635-22.501-20.837v-25.905c13.198-6.202 24.076-16.685 30.731-29.834h112.489c6.207 0 11.257-5.05 11.257-11.257v-232.816c0-6.207-5.05-11.257-11.257-11.257h-306.293c-4.143 0-7.5 3.357-7.5 7.5s3.357 7.5 7.5 7.5h302.549v225.332h-100.712c13.014-9.563 22.218-29.435 21.923-44.447v-69.986c-.866-41.443-35.234-64.128-72.605-60.711-4.143 0-7.5 3.357-7.5 7.5s3.357 7.5 7.5 7.5c32.522-3.04 56.437 14.845 57.605 45.711v69.986c-.334 10.168-5.53 25.833-16.952 32.707l-55.475 16.954c-11.25 3.439-23.126 3.391-34.347-.138l-55.82-17.554c-10.424-5.813-16.619-21.791-16.714-34.148v-67.808c0-25.205 20.506-45.711 45.711-45.711h40.391c5.471.309 10.006-7.247 6.016-11.979l-18.111-24.322c-2.475-3.323-7.175-4.008-10.495-1.536-3.322 2.474-4.01 7.173-1.536 10.495l9.191 12.343h-25.455c-33.477 0-60.711 27.234-60.711 60.711v67.808c.234 17.196 7.831 36.436 22.964 46.626h-101.753v-225.333h28.817c4.143 0 7.5-3.357 7.5-7.5s-3.357-7.5-7.5-7.5h-32.561c-6.207 0-11.257 5.05-11.257 11.257v232.818c0 6.207 5.05 11.257 11.257 11.257h112.464c2.79 5.531 6.318 10.59 10.46 15.054h-142.199c-3.88 0-7.036-3.156-7.036-7.036v-271.368c0-3.88 3.156-7.036 7.036-7.036h412.922c3.88 0 7.036 3.156 7.036 7.036v271.367c0 3.88-3.156 7.036-7.036 7.036h-119.88c-4.143 0-7.5 3.357-7.5 7.5s3.357 7.5 7.5 7.5h119.88c12.15 0 22.036-9.886 22.036-22.036v-271.367c0-12.15-9.886-22.036-22.036-22.036zm-53.555 423.807 2.574 39.429h-50.826v-75.081c26.174-2.509 45.812 11.187 48.252 35.652zm-308.386 39.428 2.574-39.428c1.307-19.992 18.023-35.653 38.058-35.653h10.194v75.081zm206.947-101.274v11.193h-105.159v-11.193c0-3.219 2.618-5.837 5.836-5.837h93.486c3.219 0 5.837 2.618 5.837 5.837zm-22.501-20.837h-57.932v-20.959c4.215.841 8.562 1.295 13.007 1.295h31.918c4.441 0 8.789-.458 13.007-1.305zm-28.693-47.978c7.175-.001 14.353-1.067 21.337-3.201l40.184-12.281c-8.279 17.249-25.9 28.796-45.836 28.796h-31.918c-18.306.325-38.095-11.364-46.14-29.418l40.48 12.729c7.157 2.25 14.523 3.375 21.893 3.375z"/></g></svg>