<svg id="Capa_1" enable-background="new 0 0 511.998 511.998" height="512" viewBox="0 0 511.998 511.998" width="512" xmlns="http://www.w3.org/2000/svg"><g><path d="m380.246 287.062v-124.249c17.155 0 31.062 13.907 31.062 31.062v62.125c.001 17.155-13.906 31.062-31.062 31.062z" fill="#e8e8e8"/><path d="m349.184 7.502h31.062v434.872h-31.062z" fill="#df646e"/><path d="m193.873 131.751 155.311-108.718v403.809l-155.311-108.717z" fill="#f7f7f7"/><path d="m223.873 301.984v-154.093c0-10.116 4.936-19.595 13.223-25.396l112.089-78.462v-21l-155.312 108.718v186.374l155.311 108.718v-21l-112.089-78.463c-8.287-5.801-13.222-15.28-13.222-25.396z" fill="#e8e8e8"/><path d="m162.811 131.751h31.062v186.374h-31.062z" fill="#d82f3c"/><path d="m162.811 318.125h-62.187c-17.121 0-31-13.879-31-31v-124.374c0-17.121 13.879-31 31-31h62.187z" fill="#df646e"/><path d="m89.624 287.125v-124.374c0-17.121 13.879-31 31-31h-20c-17.121 0-31 13.879-31 31v124.374c0 17.121 13.879 31 31 31h20c-17.121 0-31-13.88-31-31z" fill="#dc4955"/><circle cx="364.715" cy="426.842" fill="#ed8945" r="77.656"/><path d="m307.06 426.842c0-39.497 29.495-72.083 67.656-76.993-3.276-.422-6.609-.663-10-.663-42.888 0-77.656 34.768-77.656 77.656s34.768 77.656 77.656 77.656c3.391 0 6.724-.241 10-.663-38.162-4.909-67.656-37.496-67.656-76.993z" fill="#d76f42"/><g><path d="m387.747 344.877v-51.056c17.684-3.501 31.06-19.126 31.06-37.822v-14.72c0-4.143-3.358-7.5-7.5-7.5s-7.5 3.357-7.5 7.5v14.721c0 10.37-6.734 19.197-16.06 22.336v-106.812c9.837 3.647 15.19 11.098 16.06 22.355v14.71c0 4.143 3.358 7.5 7.5 7.5s7.5-3.357 7.5-7.5v-14.71c0-17.62-13.46-34.389-31.06-37.843v-148.536c0-4.143-3.358-7.5-7.5-7.5h-31.06c-4.142 0-7.5 3.357-7.5 7.5v11.625l-150.176 105.126-90.884-.001c-21.229 0-38.5 17.271-38.5 38.5v14.79c0 4.143 3.358 7.5 7.5 7.5s7.5-3.357 7.5-7.5v-14.79c0-12.958 10.542-23.5 23.5-23.5h54.68v16.063h-54.621c-4.142 0-7.5 3.357-7.5 7.5s3.358 7.5 7.5 7.5h54.621v16.063h-54.621c-4.142 0-7.5 3.357-7.5 7.5s3.358 7.5 7.5 7.5h54.621v16.062h-54.621c-4.142 0-7.5 3.357-7.5 7.5s3.358 7.5 7.5 7.5h54.621v16.062h-54.621c-4.142 0-7.5 3.357-7.5 7.5s3.358 7.5 7.5 7.5h54.621v16.063h-54.621c-4.142 0-7.5 3.357-7.5 7.5s3.358 7.5 7.5 7.5h54.621v16.058h-54.68c-12.958 0-23.5-10.542-23.5-23.5v-76.9c0-4.143-3.358-7.5-7.5-7.5s-7.5 3.357-7.5 7.5v76.9c0 21.229 17.271 38.5 38.5 38.5l90.891.004 33.428 23.4c3.393 2.375 8.07 1.55 10.445-1.844s1.55-8.069-1.843-10.445l-32.171-22.521v-178.56l140.31-98.22v307.441c-19.59 5.512-36.349 17.85-47.502 34.3l-33.847-23.691c-3.393-2.374-8.069-1.549-10.445 1.844-2.375 3.394-1.55 8.07 1.844 10.445l35.14 24.596c-24.518 55.143 17.6 119.627 77.839 119.627 46.955 0 85.156-38.2 85.156-85.155-.001-38.972-26.328-71.891-62.125-81.965zm-201.374-34.253h-16.062v-171.373h16.062zm170.314-295.624h16.06v327.077c-5.353-.52-10.707-.52-16.06 0zm8.028 481.998c-38.684 0-70.156-31.472-70.156-70.155 0-38.112 32.32-70.156 70.156-70.156 37.835 0 70.156 32.045 70.156 70.156 0 38.683-31.472 70.155-70.156 70.155z"/><path d="m411.308 419.343h-93.187c-4.142 0-7.5 3.357-7.5 7.5s3.358 7.5 7.5 7.5h93.187c4.142 0 7.5-3.357 7.5-7.5s-3.358-7.5-7.5-7.5z"/></g></g></svg>