<svg height="512" viewBox="0 0 128 128" width="512" xmlns="http://www.w3.org/2000/svg"><g><rect fill="#e6a537" height="76.924" rx="3.335" width="76.924" x="44.769" y="44.769"/><path d="m53.114 75.973h14.515v14.515h-14.515z" fill="#fdca74"/><path d="m53.114 98.833h14.515v14.515h-14.515z" fill="#fdca74"/><path d="m75.973 53.114h14.515v14.515h-14.515z" fill="#fdca74"/><path d="m75.973 75.973h14.515v14.515h-14.515z" fill="#fdca74"/><path d="m75.973 98.833h14.515v14.515h-14.515z" fill="#fdca74"/><path d="m98.833 53.114h14.515v14.515h-14.515z" fill="#fdca74"/><path d="m98.833 75.973h14.515v14.515h-14.515z" fill="#fdca74"/><path d="m98.833 98.833h14.515v14.515h-14.515z" fill="#fdca74"/><rect fill="#fdca74" height="76.924" rx="3.335" width="76.924" x="6.307" y="6.307"/><g fill="#e6a537"><path d="m14.652 14.652h14.515v14.515h-14.515z"/><path d="m14.652 37.511h14.515v14.515h-14.515z"/><path d="m14.652 60.371h14.515v14.515h-14.515z"/><path d="m37.511 14.652h14.515v14.515h-14.515z"/><path d="m37.511 37.511h14.515v14.515h-14.515z"/><path d="m37.511 60.371h14.515v14.515h-14.515z"/><path d="m60.371 14.652h14.515v14.515h-14.515z"/><path d="m60.371 37.511h14.515v14.515h-14.515z"/><path d="m60.371 60.371h14.515v14.515h-14.515z"/></g><g><path d="m14.651 30.917h14.516a1.751 1.751 0 0 0 1.75-1.75v-14.516a1.751 1.751 0 0 0 -1.75-1.75h-14.516a1.751 1.751 0 0 0 -1.75 1.75v14.516a1.751 1.751 0 0 0 1.75 1.75zm1.749-14.517h11.017v11.017h-11.017z"/><path d="m12.9 52.026a1.75 1.75 0 0 0 1.75 1.75h14.517a1.75 1.75 0 0 0 1.75-1.75v-14.515a1.751 1.751 0 0 0 -1.75-1.75h-14.516a1.751 1.751 0 0 0 -1.75 1.75zm3.5-12.765h11.017v11.015h-11.017z"/><path d="m12.9 74.886a1.751 1.751 0 0 0 1.75 1.75h14.517a1.751 1.751 0 0 0 1.75-1.75v-14.515a1.751 1.751 0 0 0 -1.75-1.75h-14.516a1.751 1.751 0 0 0 -1.75 1.75zm3.5-12.765h11.017v11.015h-11.017z"/><path d="m37.511 30.917h14.515a1.75 1.75 0 0 0 1.75-1.75v-14.516a1.75 1.75 0 0 0 -1.75-1.75h-14.515a1.751 1.751 0 0 0 -1.75 1.75v14.516a1.751 1.751 0 0 0 1.75 1.75zm1.75-14.517h11.015v11.017h-11.015z"/><path d="m35.761 52.026a1.75 1.75 0 0 0 1.75 1.75h14.515a1.749 1.749 0 0 0 1.75-1.75v-14.515a1.75 1.75 0 0 0 -1.75-1.75h-14.515a1.751 1.751 0 0 0 -1.75 1.75zm3.5-12.765h11.015v11.015h-11.015z"/><path d="m35.761 74.886a1.751 1.751 0 0 0 1.75 1.75h14.515a1.75 1.75 0 0 0 1.75-1.75v-14.515a1.75 1.75 0 0 0 -1.75-1.75h-14.515a1.751 1.751 0 0 0 -1.75 1.75zm3.5-12.765h11.015v11.015h-11.015z"/><path d="m60.371 30.917h14.515a1.751 1.751 0 0 0 1.75-1.75v-14.516a1.751 1.751 0 0 0 -1.75-1.75h-14.515a1.751 1.751 0 0 0 -1.75 1.75v14.516a1.751 1.751 0 0 0 1.75 1.75zm1.75-14.517h11.015v11.017h-11.015z"/><path d="m58.621 52.026a1.75 1.75 0 0 0 1.75 1.75h14.515a1.75 1.75 0 0 0 1.75-1.75v-14.515a1.751 1.751 0 0 0 -1.75-1.75h-14.515a1.751 1.751 0 0 0 -1.75 1.75zm3.5-12.765h11.015v11.015h-11.015z"/><path d="m58.621 74.886a1.751 1.751 0 0 0 1.75 1.75h14.515a1.751 1.751 0 0 0 1.75-1.75v-14.515a1.751 1.751 0 0 0 -1.75-1.75h-14.515a1.751 1.751 0 0 0 -1.75 1.75zm3.5-12.765h11.015v11.015h-11.015z"/><path d="m121.693 89.821a1.751 1.751 0 0 0 -1.75 1.75v4.5a1.75 1.75 0 0 0 3.5 0v-4.5a1.751 1.751 0 0 0 -1.75-1.75z"/><path d="m118.358 43.019h-33.377v-33.377a5.091 5.091 0 0 0 -5.081-5.085h-70.258a5.091 5.091 0 0 0 -5.085 5.085v17.166a1.75 1.75 0 0 0 3.5 0v-17.166a1.587 1.587 0 0 1 1.585-1.585h70.258a1.587 1.587 0 0 1 1.585 1.585v70.258a1.587 1.587 0 0 1 -1.585 1.581h-70.258a1.587 1.587 0 0 1 -1.585-1.581v-43.729a1.75 1.75 0 0 0 -3.5 0v43.729a5.091 5.091 0 0 0 5.085 5.085h33.377v33.377a5.091 5.091 0 0 0 5.085 5.085h70.254a5.091 5.091 0 0 0 5.085-5.085v-13.05a1.75 1.75 0 0 0 -3.5 0v13.05a1.587 1.587 0 0 1 -1.585 1.585h-70.258a1.587 1.587 0 0 1 -1.585-1.585v-33.381h4.845v5.508a1.751 1.751 0 0 0 1.75 1.75h14.519a1.751 1.751 0 0 0 1.75-1.75v-5.508h4.845v5.508a1.75 1.75 0 0 0 1.75 1.75h14.515a1.751 1.751 0 0 0 1.75-1.75v-14.515a1.75 1.75 0 0 0 -1.75-1.75h-5.508v-4.845h5.508a1.751 1.751 0 0 0 1.75-1.75v-14.515a1.751 1.751 0 0 0 -1.75-1.75h-5.508v-4.845h33.377a1.587 1.587 0 0 1 1.585 1.585v33.811a1.75 1.75 0 0 0 3.5 0v-33.815a5.091 5.091 0 0 0 -5.085-5.081zm-52.479 45.72h-11.015v-3.758h11.015zm22.86-11.015v11.015h-11.015v-3.758h2.176a5.091 5.091 0 0 0 5.081-5.081v-2.176zm0-22.86v11.015h-3.758v-11.015z"/><path d="m67.629 97.083h-14.515a1.751 1.751 0 0 0 -1.75 1.75v14.516a1.751 1.751 0 0 0 1.75 1.75h14.515a1.751 1.751 0 0 0 1.75-1.75v-14.516a1.751 1.751 0 0 0 -1.75-1.75zm-1.75 14.517h-11.015v-11.017h11.015z"/><path d="m90.489 97.083h-14.515a1.75 1.75 0 0 0 -1.75 1.75v14.516a1.75 1.75 0 0 0 1.75 1.75h14.515a1.751 1.751 0 0 0 1.75-1.75v-14.516a1.751 1.751 0 0 0 -1.75-1.75zm-1.75 14.517h-11.015v-11.017h11.015z"/><path d="m115.1 53.114a1.751 1.751 0 0 0 -1.75-1.75h-14.517a1.751 1.751 0 0 0 -1.75 1.75v14.515a1.751 1.751 0 0 0 1.75 1.75h14.516a1.751 1.751 0 0 0 1.75-1.75zm-3.5 12.765h-11.017v-11.015h11.017z"/><path d="m115.1 75.974a1.75 1.75 0 0 0 -1.75-1.75h-14.517a1.75 1.75 0 0 0 -1.75 1.75v14.515a1.751 1.751 0 0 0 1.75 1.75h14.516a1.751 1.751 0 0 0 1.75-1.75zm-3.5 12.765h-11.017v-11.015h11.017z"/><path d="m113.349 97.083h-14.516a1.751 1.751 0 0 0 -1.75 1.75v14.516a1.751 1.751 0 0 0 1.75 1.75h14.516a1.751 1.751 0 0 0 1.75-1.75v-14.516a1.751 1.751 0 0 0 -1.75-1.75zm-1.749 14.517h-11.017v-11.017h11.017z"/></g></g></svg>