<svg clip-rule="evenodd" fill-rule="evenodd" height="512" image-rendering="optimizeQuality" shape-rendering="geometricPrecision" text-rendering="geometricPrecision" viewBox="0 0 512 512" width="512" xmlns="http://www.w3.org/2000/svg" xmlns:xodm="http://www.corel.com/coreldraw/odm/2003"><g id="Layer_x0020_1"><g id="_3035143680848"><path d="m186.17 511.97h-47.69c-10.1 0-18.32-8.21-18.32-18.31v-13.44c0-2.77 2.24-5 5-5h74.33c2.76 0 4.99 2.23 4.99 5v13.44c0 10.1-8.21 18.31-18.31 18.31z" fill="#b57f5f"/><path d="m373.46 511.97h-47.57c-10.13 0-18.37-8.24-18.37-18.37v-13.38c0-2.77 2.23-5 5-5h74.32c2.76 0 5 2.23 5 5v13.38c0 10.13-8.25 18.37-18.38 18.37z" fill="#b57f5f"/><path d="m415.26 331.16c-2.76 0-5-2.24-5-5h-308.53c0 6.58-9.99 6.58-9.99 0v-292.57c0-2.76 2.23-5 4.99-5h318.53c2.77 0 5 2.24 5 5v292.57c0 2.76-2.24 5-5 5z" fill="#e2a975"/><path d="m261 326.16h-10v-292.57c0-6.58 10-6.58 10 0z" fill="#b57f5f"/><path d="m415.26 485.21h-318.53c-2.76 0-4.99-2.23-4.99-4.99v-125.49c0-6.59 9.99-6.59 9.99 0h308.53c0-6.59 10-6.59 10 0v125.49c0 2.76-2.24 4.99-5 4.99z" fill="#e2a975"/><g fill="#b57f5f"><path d="m261 485.21h-10v-130.48h10z"/><path d="m91.74 422.47v-10h328.52v10z"/><path d="m431.94 38.59h-351.89c-10.63 0-19.28-8.65-19.28-19.28s8.65-19.28 19.28-19.28h351.89c10.64 0 19.29 8.65 19.29 19.28s-8.65 19.28-19.29 19.28z"/><path d="m431.94 359.72h-351.89c-10.63 0-19.28-8.65-19.28-19.28s8.65-19.28 19.28-19.28h351.89c10.64 0 19.29 8.65 19.29 19.28s-8.65 19.28-19.29 19.28z"/></g></g></g></svg>