<svg id="Layer_1" viewBox="0 0 1000 1000" xmlns="http://www.w3.org/2000/svg" data-name="Layer 1"><path d="m207.68 716.77v73.65a29.18 29.18 0 0 0 29.14 29.14h247.18v-102.79zm234.32 67.39h-25.26a16 16 0 0 1 0-32h25.26a16 16 0 1 1 0 32z" fill="#ffcc80"/><path d="m236.82 116a29.17 29.17 0 0 0 -29.14 29.14v539.63h276.32v-568.77zm200.36 325.28a16 16 0 0 1 -32 0v-90.22a16 16 0 0 1 32 0z" fill="#ffcc80"/><path d="m516 716.77v102.79h247.18a29.18 29.18 0 0 0 29.14-29.14v-73.65zm67.26 67.39h-25.26a16 16 0 0 1 0-32h25.29a16 16 0 0 1 0 32z" fill="#ffcc80"/><path d="m763.18 116h-247.18v568.77h276.32v-539.63a29.17 29.17 0 0 0 -29.14-29.14zm-168.36 325.28a16 16 0 0 1 -32 0v-90.22a16 16 0 0 1 32 0z" fill="#ffcc80"/><path d="m701.68 851.56h42.11v32.44h-42.11z" fill="#616161"/><path d="m256.21 851.56h42.11v32.44h-42.11z" fill="#616161"/><g fill="#fff" opacity=".5"><path d="m197.68 726.77v73.65a29.18 29.18 0 0 0 29.14 29.14h247.18v-102.79zm234.32 67.39h-25.26a16 16 0 0 1 0-32h25.26a16 16 0 1 1 0 32z"/><path d="m226.82 126a29.17 29.17 0 0 0 -29.14 29.14v539.63h276.32v-568.77zm200.36 325.28a16 16 0 0 1 -32 0v-90.22a16 16 0 0 1 32 0z"/><path d="m506 726.77v102.79h247.18a29.18 29.18 0 0 0 29.14-29.14v-73.65zm67.26 67.39h-25.26a16 16 0 0 1 0-32h25.29a16 16 0 0 1 0 32z"/><path d="m753.18 126h-247.18v568.77h276.32v-539.63a29.17 29.17 0 0 0 -29.14-29.14zm-168.36 325.28a16 16 0 0 1 -32 0v-90.22a16 16 0 0 1 32 0z"/><path d="m691.68 861.56h42.11v32.44h-42.11z"/><path d="m246.21 861.56h42.11v32.44h-42.11z"/></g><g fill="#413b32"><path d="m500 84h-263.18a61.21 61.21 0 0 0 -61.14 61.14v645.28a61.12 61.12 0 0 0 61.14 61.14h263.18a16 16 0 0 0 16-16v-735.56a16 16 0 0 0 -16-16zm-263.18 735.56a29.18 29.18 0 0 1 -29.14-29.14v-645.28a29.17 29.17 0 0 1 29.14-29.14h247.18v703.56z"/><path d="m763.18 84h-263.18a16 16 0 0 0 -16 16v735.56a16 16 0 0 0 16 16h263.18a61.12 61.12 0 0 0 61.14-61.14v-645.28a61.21 61.21 0 0 0 -61.14-61.14zm29.14 706.42a29.18 29.18 0 0 1 -29.14 29.14h-247.18v-703.56h247.18a29.17 29.17 0 0 1 29.14 29.14z"/><path d="m824.32 700.77a16 16 0 0 1 -16 16h-308.32a16 16 0 0 1 0-32h308.32a16 16 0 0 1 16 16z"/><path d="m516 700.77a16 16 0 0 1 -16 16h-308.32a16 16 0 0 1 0-32h308.32a16 16 0 0 1 16 16z"/><path d="m437.18 351.06v90.22a16 16 0 0 1 -32 0v-90.22a16 16 0 0 1 32 0z"/><path d="m594.82 351.06v90.22a16 16 0 0 1 -32 0v-90.22a16 16 0 0 1 32 0z"/><path d="m599.26 768.16a16 16 0 0 1 -16 16h-25.26a16 16 0 0 1 0-32h25.29a16 16 0 0 1 15.97 16z"/><path d="m458 768.16a16 16 0 0 1 -16 16h-25.26a16 16 0 0 1 0-32h25.26a16 16 0 0 1 16 16z"/><path d="m759.79 819.56h-74.11a16 16 0 0 0 -16 16v64.44a16 16 0 0 0 16 16h74.11a16 16 0 0 0 16-16v-64.44a16 16 0 0 0 -16-16zm-16 64.44h-42.11v-32.44h42.11z"/><path d="m314.32 819.56h-74.11a16 16 0 0 0 -16 16v64.44a16 16 0 0 0 16 16h74.11a16 16 0 0 0 16-16v-64.44a16 16 0 0 0 -16-16zm-16 64.44h-42.11v-32.44h42.11z"/></g></svg>