<svg id="Layer_1" enable-background="new 0 0 512 512" height="512" viewBox="0 0 512 512" width="512" xmlns="http://www.w3.org/2000/svg"><g><path d="m459.42 60.36v391.28c0 16.5-13.5 30-30 30h-346.84c-16.5 0-30-13.5-30-30v-391.28c0-16.5 13.5-30 30-30h346.84c16.5 0 30 13.5 30 30z" fill="#f5f6f6"/><path d="m429.42 489.64h-346.84c-20.953 0-38-17.047-38-38v-391.28c0-20.953 17.047-38 38-38h346.84c20.953 0 38 17.047 38 38v391.28c0 20.953-17.047 38-38 38zm-346.84-451.28c-12.131 0-22 9.869-22 22v391.28c0 12.131 9.869 22 22 22h346.84c12.131 0 22-9.869 22-22v-391.28c0-12.131-9.869-22-22-22z"/></g><g><path d="m459.42 60.36v51.14h-406.84v-51.14c0-16.5 13.5-30 30-30h346.84c16.5 0 30 13.5 30 30z" fill="#e0e0e0"/><path d="m459.42 119.5h-406.84c-4.418 0-8-3.582-8-8v-51.14c0-20.953 17.047-38 38-38h346.84c20.953 0 38 17.047 38 38v51.14c0 4.418-3.582 8-8 8zm-398.84-16h390.84v-43.14c0-12.131-9.869-22-22-22h-346.84c-12.131 0-22 9.869-22 22z"/></g><g><circle cx="256" cy="304.83" fill="#e0e0e0" r="141.453"/><path d="m255.999 454.283c-82.408 0-149.452-67.044-149.452-149.453 0-82.408 67.044-149.453 149.452-149.453 82.409 0 149.454 67.044 149.454 149.453s-67.045 149.453-149.454 149.453zm0-282.906c-73.586 0-133.452 59.867-133.452 133.453s59.866 133.453 133.452 133.453c73.587 0 133.454-59.867 133.454-133.453s-59.867-133.453-133.454-133.453z"/></g><g><path d="m337.026 56.824h85.47v28.206h-85.47z" fill="#84d2f6"/><path d="m422.496 93.03h-85.47c-4.418 0-8-3.582-8-8v-28.206c0-4.418 3.582-8 8-8h85.47c4.418 0 8 3.582 8 8v28.206c0 4.418-3.582 8-8 8zm-77.47-16h69.47v-12.206h-69.47z"/></g><g><circle cx="102.88" cy="70.927" fill="#ef5451" r="14.103"/><path d="m102.88 93.03c-12.188 0-22.103-9.916-22.103-22.103s9.915-22.103 22.103-22.103 22.103 9.915 22.103 22.103-9.916 22.103-22.103 22.103zm0-28.206c-3.365 0-6.103 2.738-6.103 6.103s2.738 6.103 6.103 6.103 6.103-2.738 6.103-6.103c-.001-3.365-2.738-6.103-6.103-6.103z"/></g><g><circle cx="165.75" cy="70.927" fill="#66bc6a" r="14.103"/><path d="m165.75 93.03c-12.188 0-22.103-9.916-22.103-22.103s9.915-22.103 22.103-22.103 22.103 9.915 22.103 22.103-9.915 22.103-22.103 22.103zm0-28.206c-3.365 0-6.103 2.738-6.103 6.103s2.738 6.103 6.103 6.103 6.103-2.738 6.103-6.103-2.738-6.103-6.103-6.103z"/></g><g><path d="m361.71 304.83c0 58.38-47.33 105.71-105.71 105.71s-105.71-47.33-105.71-105.71c0-8.45.99-16.67 2.87-24.55h.01c21.23 2.819 23.33 19.6 48.43 19.6 27.39 0 27.39-20 54.78-20 27.4 0 27.4 20 54.79 20 24.8 0 27.16-16.38 47.69-19.49 1.87 7.84 2.85 16.03 2.85 24.44z" fill="#84d2f6"/><path d="m256 418.54c-62.7 0-113.71-51.01-113.71-113.71 0-8.934 1.039-17.818 3.088-26.406.86-3.603 4.079-6.144 7.782-6.144.352 0 .714.023 1.063.069 11.66 1.549 18.586 6.606 24.697 11.068 6.474 4.728 11.588 8.462 22.68 8.462 11.085 0 16.199-3.733 22.672-8.461 7.407-5.409 15.803-11.539 32.107-11.539 16.312 0 24.709 6.131 32.118 11.54 6.475 4.727 11.588 8.46 22.672 8.46 11.094 0 16.211-3.734 22.689-8.462 5.943-4.337 12.68-9.253 23.803-10.938 4.105-.61 8.016 2.009 8.98 6.054 2.035 8.535 3.067 17.383 3.067 26.297.002 62.7-51.008 113.71-113.708 113.71zm-96.61-128.417c-.731 4.844-1.1 9.766-1.1 14.707 0 53.878 43.833 97.71 97.71 97.71 53.878 0 97.71-43.832 97.71-97.71 0-4.841-.354-9.654-1.053-14.389-3.331 1.497-6.143 3.549-9.366 5.9-7.41 5.408-15.811 11.538-32.121 11.538-16.303 0-24.699-6.129-32.106-11.537-6.477-4.729-11.592-8.463-22.684-8.463-11.085 0-16.198 3.733-22.672 8.461-7.407 5.408-15.803 11.539-32.108 11.539-16.312 0-24.708-6.131-32.115-11.54-3.446-2.516-6.434-4.697-10.095-6.216z"/></g><g><path d="m358.86 280.39c-20.53 3.11-22.891 19.49-47.69 19.49-27.39 0-27.39-20-54.79-20-27.39 0-27.39 20-54.78 20-25.1 0-27.2-16.78-48.43-19.6 11.06-46.54 52.9-81.16 102.83-81.16 49.97 0 91.84 34.67 102.86 81.27z" fill="#b4e4fa"/><path d="m311.17 307.88c-16.303 0-24.699-6.129-32.106-11.537-6.477-4.729-11.592-8.463-22.684-8.463-11.085 0-16.198 3.733-22.672 8.461-7.407 5.408-15.803 11.539-32.108 11.539-16.312 0-24.708-6.131-32.115-11.54-5.446-3.977-9.747-7.117-17.368-8.129-2.243-.298-4.254-1.531-5.537-3.396s-1.716-4.184-1.193-6.385c5.813-24.461 19.885-46.632 39.623-62.429 20.049-16.045 45.26-24.881 70.99-24.881 25.752 0 50.98 8.849 71.038 24.916 19.749 15.821 33.815 38.021 39.607 62.513.515 2.175.096 4.467-1.156 6.319-1.251 1.852-3.221 3.097-5.431 3.432-7.251 1.099-11.45 4.163-16.768 8.042-7.409 5.408-15.81 11.538-32.12 11.538zm-54.79-36c16.312 0 24.709 6.131 32.118 11.54 6.475 4.727 11.588 8.46 22.672 8.46 11.094 0 16.211-3.734 22.689-8.462 4.213-3.074 8.824-6.439 15.113-8.738-12.91-40.147-50.092-67.56-92.973-67.56-42.775 0-79.9 27.3-92.886 67.309 6.644 2.299 11.434 5.797 15.807 8.989 6.474 4.728 11.588 8.462 22.68 8.462 11.085 0 16.199-3.733 22.672-8.461 7.408-5.409 15.803-11.539 32.108-11.539z"/></g></svg>