<svg clip-rule="evenodd" fill-rule="evenodd" height="512" stroke-linejoin="round" stroke-miterlimit="2" viewBox="0 0 512 512" width="512" xmlns="http://www.w3.org/2000/svg"><g><path d="m488.25 167.875c0 128.182-104.068 232.25-232.25 232.25s-232.25-104.068-232.25-232.25z" fill="#ff817a"/><path d="m142.383 304.428c30.807 25.668 70.422 41.115 113.617 41.115 98.058 0 174.668-79.61 174.668-177.668h-23.18s-26.927 202.002-265.105 136.553z" fill="#e9766f"/><path d="m463.843 167.875h24.407c0 128.182-104.068 232.25-232.25 232.25-59.284 0-113.41-22.261-154.444-58.907 38.42 28.248 85.867 44.924 137.178 44.924 123.491 0 217.917-96.589 225.109-218.267z" fill="#8ccb6d"/><path d="m78.332 167.875c0 98.058 79.61 177.668 177.668 177.668s177.668-79.61 177.668-177.668h54.582c0 128.182-104.068 232.25-232.25 232.25s-232.25-104.068-232.25-232.25z" fill="#9cff82"/><path d="m463.843 167.875h24.407c0 128.182-104.068 232.25-232.25 232.25-59.284 0-113.41-22.261-154.444-58.907 38.42 28.248 85.867 44.924 137.178 44.924 123.491 0 217.917-96.589 225.109-218.267z" fill="#80ff5f"/><path d="m104.428 218.4c-5.577-16.162-3.421-31.868 1.117-33.434 4.539-1.567 9.752 11.284 15.33 27.447 5.577 16.163 9.421 29.557 4.883 31.123-4.539 1.566-15.752-8.973-21.33-25.136z" fill="#ff9f9f"/><path d="m59.908 243.702s1.253 19.124 17.97 44.549c12.042 18.316 31.064 34.493 40.458 40.579 1.838 1.471 4.524 1.172 5.994-.665 1.47-1.838 1.172-4.524-.666-5.994-4.87-4.833-9.055-9.877-13.087-14.895-4.276-5.322-15.093-21.098-16.818-23.597-2.82-4.085-25.667-42.379-25.667-42.379-.663-2.258-3.035-3.554-5.293-2.891s-3.553 3.034-2.891 5.293z" fill="#d5ffca"/><g fill="#8d4ba0"><path d="m256 206.588c3.549 2.009 5.919 5.827 5.919 10.195s-2.37 8.187-5.919 10.195c-3.549-2.008-5.919-5.827-5.919-10.195s2.37-8.186 5.919-10.195z"/><path d="m256 273.805c3.549 2.008 5.919 5.827 5.919 10.195s-2.37 8.187-5.919 10.195c-3.549-2.008-5.919-5.827-5.919-10.195s2.37-8.187 5.919-10.195z"/><path d="m332.754 263.7c3.948 1.022 7.226 4.097 8.356 8.316 1.131 4.219-.171 8.521-3.079 11.379-3.947-1.021-7.225-4.096-8.356-8.315-1.13-4.219.171-8.521 3.079-11.38z"/><path d="m371.201 212.475c3.947 1.021 7.226 4.096 8.356 8.315 1.131 4.22-.171 8.522-3.079 11.38-3.947-1.021-7.226-4.096-8.356-8.315-1.131-4.22.171-8.522 3.079-11.38z"/><path d="m179.246 263.7c2.908 2.859 4.209 7.161 3.079 11.38-1.131 4.219-4.409 7.294-8.356 8.315-2.908-2.858-4.21-7.16-3.079-11.379 1.13-4.219 4.408-7.294 8.356-8.316z"/><path d="m315.875 198.706c3.947 1.021 7.226 4.096 8.356 8.315 1.131 4.219-.171 8.521-3.079 11.379-3.948-1.021-7.226-4.096-8.356-8.315-1.131-4.219.171-8.521 3.079-11.379z"/><path d="m196.125 198.706c2.908 2.858 4.21 7.16 3.079 11.379-1.13 4.219-4.408 7.294-8.356 8.315-2.908-2.858-4.21-7.16-3.079-11.379 1.13-4.219 4.409-7.294 8.356-8.315z"/><path d="m138.898 207.628c2.909 2.858 4.21 7.16 3.08 11.379-1.131 4.219-4.409 7.294-8.357 8.316-2.908-2.859-4.209-7.161-3.079-11.38 1.131-4.219 4.409-7.294 8.356-8.315z"/><path d="m496.583 167.875c0-4.602-3.731-8.333-8.333-8.333h-464.5c-4.602 0-8.333 3.731-8.333 8.333 0 132.782 107.801 240.583 240.583 240.583s240.583-107.801 240.583-240.583zm-426.401 8.333h-37.946c4.389 119.729 102.971 215.584 223.764 215.584s219.375-95.855 223.764-215.584h-37.946c-4.365 98.797-85.953 177.669-185.818 177.669s-181.453-78.872-185.818-177.669zm354.951 0h-338.266c4.351 89.595 78.469 161.002 169.133 161.002s164.782-71.407 169.133-161.002z"/></g></g></svg>