<svg id="_x30_1_Droplet" enable-background="new 0 0 48 48" height="512" viewBox="0 0 48 48" width="512" xmlns="http://www.w3.org/2000/svg"><path d="m31.449 39.9146c7.7041-7.6322 1.7503-25.9149-7.4488-34.9146-9.1991 8.9997-15.1529 27.2824-7.4488 34.9146 4.1138 4.1139 10.7837 4.1139 14.8976 0z" fill="#5a99cc"/><path d="m29.3242 37.7959c-.3917.3886-1.0267.3842-1.4156-.0078-.3866-.3923-.3833-1.0235.0084-1.4121 1.7256-1.71 2.0801-4.4863 2.0732-6.5146-.002-.5518.4478-1.001 1-1.0029.5508 0 .998.4453 1 .9971.0078 2.41-.4482 5.744-2.666 7.9403z" fill="#fff"/><path d="m24.0002 5c-8.2858 8.1061-13.9333 23.7397-9.3445 32.3421l18.213-18.213c-1.9708-5.3482-5.1543-10.4954-8.8685-14.1291z" fill="#8bcbef"/><path d="m24 43.9941c-2.9541 0-5.9072-1.123-8.1558-3.3721-2.5215-2.498-3.8486-6.2266-3.8345-10.7793.0269-8.4336 4.7749-19.1826 11.291-25.5576.3887-.3809 1.0098-.3809 1.3984 0 6.5161 6.375 11.2646 17.123 11.2915 25.5576.0142 4.5508-1.312 8.2793-3.8354 10.7803-2.2485 2.2471-5.2021 3.3711-8.1552 3.3711zm0-37.5703c-5.8062 6.0986-9.9663 15.7803-9.9902 23.4248-.0122 4.0049 1.1099 7.2402 3.2451 9.3564 3.7217 3.7188 9.7705 3.7217 13.4873.0029.001-.001.002-.002.0034-.0029 2.1353-2.1162 3.2573-5.3516 3.2451-9.3564-.0244-7.6445-4.1841-17.3261-9.9907-23.4248z" fill="#474747"/></svg>