<svg id="Layer_1" viewBox="0 0 1000 1000" xmlns="http://www.w3.org/2000/svg" data-name="Layer 1"><path d="m884 746v138h-768v-138c17.32 3.22 27.91 11.81 40.58 22.09 17.69 14.34 37.74 30.6 76.74 30.6s59.06-16.26 76.75-30.6c16.17-13.09 28.93-23.46 56.59-23.46s40.43 10.35 56.59 23.46c17.69 14.34 37.74 30.6 76.75 30.6s59-16.26 76.74-30.6c16.16-13.11 28.93-23.46 56.59-23.46s40.43 10.35 56.59 23.46c17.69 14.34 37.74 30.6 76.74 30.6s59.06-16.26 76.75-30.6c12.68-10.28 23.27-18.87 40.59-22.09z" fill="#80deea"/><circle cx="483.93" cy="349.87" fill="#ffccbc" r="42.11" transform="matrix(.23 -.973 .973 .23 32.23 740.47)"/><path d="m884 628.69v84.93c-28.84 3.74-45.66 17.37-60.75 29.61-16.16 13.11-28.92 23.46-56.59 23.46s-40.43-10.35-56.59-23.46c-17.69-14.34-37.74-30.6-76.74-30.6s-59.06 16.26-76.75 30.6c-16.16 13.11-28.92 23.46-56.58 23.46s-40.43-10.35-56.59-23.46c-17.69-14.34-37.74-30.6-76.75-30.6s-59.05 16.26-76.74 30.6c-16.16 13.11-28.92 23.46-56.59 23.46s-40.42-10.35-56.58-23.46c-15.09-12.23-31.9-25.87-60.75-29.61v-84.93c17.32 3.22 27.91 11.81 40.58 22.09 17.69 14.34 37.74 30.6 76.74 30.6s59.06-16.26 76.75-30.6c12.1-9.82 22.3-18.09 38.27-21.62.53-.09 1.05-.19 1.56-.32a86.1 86.1 0 0 1 16.66-1.5c27.67 0 40.43 10.35 56.59 23.46 17.69 14.34 37.74 30.6 76.75 30.6s59-16.26 76.74-30.6c16.16-13.11 28.93-23.46 56.59-23.46s40.43 10.35 56.59 23.46c17.69 14.34 37.74 30.6 76.74 30.6s59.06-16.26 76.75-30.6c12.78-10.3 23.37-18.89 40.69-22.11z" fill="#80deea"/><path d="m371.09 166.69a50.69 50.69 0 1 1 -50.69-50.69 50.75 50.75 0 0 1 50.69 50.69z" fill="#ff9100"/><path d="m727.56 532.51a24.45 24.45 0 0 1 -22 13.4h-98.7c-28.69-.66-61.18-1.35-83.45 20.78-16.82 16.72-24.68 43.07-24.61 82.68-26.84-.29-39.46-10.53-55.39-23.45-17.69-14.34-37.74-30.6-76.75-30.6-1.6 0-3.17 0-4.7.09v-13.83a182.35 182.35 0 0 0 -68.96-142.79 61.69 61.69 0 0 1 -17.66-74.15 237.21 237.21 0 0 0 21.66-98.54v-20.1a82.88 82.88 0 0 0 46.72 0c-.61 35.46-4 67.66-10.23 98.11a93.88 93.88 0 0 0 49.91 102.77l.34.17a496.58 496.58 0 0 0 220.61 52h101.65c10.14 0 19.31 6.07 22.8 15.12 2.35 5.99 1.94 11.83-1.24 18.34z" fill="#ffccbc"/><g fill="#fff" opacity=".5"><path d="m874 756v138h-768v-138c17.32 3.22 27.91 11.81 40.58 22.09 17.69 14.34 37.74 30.6 76.74 30.6s59.06-16.26 76.75-30.6c16.17-13.09 28.93-23.46 56.59-23.46s40.43 10.35 56.59 23.46c17.69 14.34 37.74 30.6 76.75 30.6s59-16.26 76.74-30.6c16.16-13.11 28.93-23.46 56.59-23.46s40.43 10.35 56.59 23.46c17.69 14.34 37.74 30.6 76.74 30.6s59.06-16.26 76.75-30.6c12.68-10.28 23.27-18.87 40.59-22.09z"/><circle cx="473.93" cy="359.87" r="42.11" transform="matrix(.23 -.973 .973 .23 14.8 738.44)"/><path d="m874 638.69v84.93c-28.84 3.74-45.66 17.37-60.75 29.61-16.16 13.11-28.92 23.46-56.59 23.46s-40.43-10.35-56.59-23.46c-17.69-14.34-37.74-30.6-76.74-30.6s-59.06 16.26-76.75 30.6c-16.16 13.11-28.92 23.46-56.58 23.46s-40.43-10.35-56.59-23.46c-17.69-14.34-37.74-30.6-76.75-30.6s-59.05 16.26-76.74 30.6c-16.16 13.11-28.92 23.46-56.59 23.46s-40.42-10.35-56.58-23.46c-15.09-12.23-31.9-25.87-60.75-29.61v-84.93c17.32 3.22 27.91 11.81 40.58 22.09 17.69 14.34 37.74 30.6 76.74 30.6s59.06-16.26 76.75-30.6c12.1-9.82 22.3-18.09 38.27-21.62.53-.09 1.05-.19 1.56-.32a86.1 86.1 0 0 1 16.66-1.5c27.67 0 40.43 10.35 56.59 23.46 17.69 14.34 37.74 30.6 76.75 30.6s59-16.26 76.74-30.6c16.16-13.11 28.93-23.46 56.59-23.46s40.43 10.35 56.59 23.46c17.69 14.34 37.74 30.6 76.74 30.6s59.06-16.26 76.75-30.6c12.78-10.3 23.37-18.89 40.69-22.11z"/><path d="m361.09 176.69a50.69 50.69 0 1 1 -50.69-50.69 50.75 50.75 0 0 1 50.69 50.69z"/><path d="m717.56 542.51a24.45 24.45 0 0 1 -22 13.4h-98.7c-28.69-.66-61.18-1.35-83.45 20.78-16.82 16.72-24.68 43.07-24.61 82.68-26.84-.29-39.46-10.53-55.39-23.45-17.69-14.34-37.74-30.6-76.75-30.6-1.6 0-3.17 0-4.7.09v-13.83a182.35 182.35 0 0 0 -68.96-142.79 61.69 61.69 0 0 1 -17.66-74.15 237.21 237.21 0 0 0 21.66-98.54v-20.1a82.88 82.88 0 0 0 46.72 0c-.61 35.46-4 67.66-10.23 98.11a93.88 93.88 0 0 0 49.91 102.77l.34.17a496.58 496.58 0 0 0 220.61 52h101.65c10.14 0 19.31 6.07 22.8 15.12 2.35 5.99 1.94 11.83-1.24 18.34z"/></g><g fill="#413b32"><path d="m916 611.32a16 16 0 0 1 -16 16 86.85 86.85 0 0 0 -16 1.37c-17.32 3.22-27.91 11.81-40.59 22.09-17.69 14.34-37.74 30.6-76.75 30.6s-59-16.26-76.74-30.6c-16.16-13.11-28.93-23.46-56.59-23.46s-40.43 10.35-56.59 23.46c-17.69 14.34-37.74 30.6-76.74 30.6s-59.06-16.26-76.75-30.6c-16.16-13.11-28.92-23.46-56.59-23.46a86.1 86.1 0 0 0 -16.66 1.5c-.53.1-1 .2-1.56.32-16 3.53-26.17 11.8-38.27 21.62-17.69 14.34-37.74 30.6-76.75 30.6s-59.05-16.26-76.74-30.6c-12.67-10.28-23.26-18.87-40.58-22.09a86.77 86.77 0 0 0 -16-1.37 16 16 0 1 1 0-32c39 0 59.05 16.26 76.74 30.6 16.16 13.11 28.92 23.46 56.58 23.46s40.43-10.35 56.59-23.46c10.99-8.9 22.99-18.67 39.99-24.7a105 105 0 0 1 32-5.79c1.53-.06 3.1-.09 4.7-.09 39 0 59.06 16.26 76.75 30.6 15.93 12.92 28.55 23.16 55.39 23.45h1.16c12.91 0 22.58-2.26 30.86-6 9.46-4.27 17.1-10.47 25.72-17.46 17.69-14.34 37.74-30.6 76.75-30.6s59 16.26 76.74 30.6c16.16 13.09 28.93 23.47 56.59 23.47s40.43-10.35 56.59-23.46c17.69-14.34 37.74-30.6 76.75-30.6h.91.31c.27 0 .53 0 .8.08s.66.09 1 .16.65.13 1 .21l.86.25.29.1.45.16h.09l.37.14h.05l.28.12h.08a3.3 3.3 0 0 1 .43.19 16 16 0 0 1 2.66 1.61 13.62 13.62 0 0 1 1.18 1c.19.17.37.35.55.53a3.45 3.45 0 0 1 .26.28c.27.28.52.57.77.86s.63.8.92 1.22c.06.09.12.18.17.27s.25.39.36.59.1.15.14.23c.17.3.33.61.48.92s.28.6.4.9l.12.32c.13.32.24.64.34 1a16.14 16.14 0 0 1 .64 3.12c.09.64.09 1.19.09 1.74z"/><path d="m916 728.63a16 16 0 0 1 -16 16 86.85 86.85 0 0 0 -16 1.37c-17.32 3.22-27.91 11.81-40.59 22.09-17.69 14.34-37.74 30.6-76.75 30.6s-59-16.26-76.74-30.6c-16.16-13.09-28.92-23.46-56.59-23.46s-40.43 10.37-56.59 23.46c-17.69 14.34-37.74 30.6-76.74 30.6s-59.06-16.26-76.75-30.6c-16.16-13.11-28.92-23.46-56.59-23.46s-40.42 10.37-56.58 23.46c-17.69 14.34-37.74 30.6-76.75 30.6s-59.05-16.26-76.74-30.6c-12.67-10.28-23.26-18.87-40.59-22.09a86.77 86.77 0 0 0 -16-1.37 16 16 0 1 1 0-32 124.79 124.79 0 0 1 16 1c28.84 3.74 45.65 17.38 60.74 29.61 16.16 13.11 28.92 23.46 56.58 23.46s40.43-10.35 56.59-23.46c17.69-14.34 37.74-30.6 76.74-30.6s59.06 16.26 76.75 30.6c16.16 13.11 28.92 23.46 56.59 23.46s40.42-10.35 56.58-23.46c17.69-14.34 37.74-30.6 76.75-30.6s59 16.26 76.74 30.6c16.16 13.11 28.93 23.46 56.59 23.46s40.43-10.35 56.59-23.46c15.1-12.24 31.92-25.88 60.76-29.62a124.91 124.91 0 0 1 16-1 16 16 0 0 1 16 16.01z"/><path d="m916 611.32v288.68a16 16 0 0 1 -16 16h-800a16 16 0 0 1 -16-16v-288.68a16 16 0 0 1 32 0v272.68h768v-272.68a16 16 0 0 1 16-16h.91.31c.27 0 .53 0 .8.08s.66.09 1 .16.65.13 1 .21l.86.25.29.1.45.16h.09l.37.14h.05l.28.12h.08a3.3 3.3 0 0 1 .43.19 16 16 0 0 1 2.66 1.61c.41.31.8.63 1.18 1 .28.27.55.53.81.81s.52.57.77.86a15 15 0 0 1 .92 1.22c.06.09.12.18.17.27s.25.39.36.59.1.15.14.23c.17.3.33.61.48.92s.28.6.4.9l.12.32c.13.32.24.64.34 1a16.14 16.14 0 0 1 .64 3.12c.09.64.09 1.19.09 1.74z"/><path d="m483.93 275.76a74.11 74.11 0 1 0 74.07 74.11 74.19 74.19 0 0 0 -74.07-74.11zm0 116.22a42.11 42.11 0 1 1 42.07-42.11 42.16 42.16 0 0 1 -42.07 42.13z"/><path d="m362 581.58v31.75a16 16 0 0 1 -12 15.49c-.51.13-1 .23-1.56.32a17.13 17.13 0 0 1 -2.39.17 16 16 0 0 1 -16-16v-31.73a150.29 150.29 0 0 0 -56.83-117.73 93.71 93.71 0 0 1 -26.81-112.61 204.89 204.89 0 0 0 18.59-85.14v-43.37c0-1.15 0-2.23.11-3.28a16 16 0 0 1 31.89 2.21v1.07 43.37a237.21 237.21 0 0 1 -21.6 98.54 61.69 61.69 0 0 0 17.6 74.15 182.35 182.35 0 0 1 69 142.79z"/><path d="m756.33 546.52a56.62 56.62 0 0 1 -50.78 31.39h-99.24c-27.92-.64-48.59-.19-60.34 11.48-9.43 9.37-14.5 27.51-15.11 54q-.11 4.86 0 10.09v.71l-.29 10.69a16 16 0 0 1 -16 15.56h-.44a16 16 0 0 1 -15.57-16.44l.28-10.34c0-1.45 0-2.88 0-4.29-.07-39.61 7.79-66 24.61-82.68 22.27-22.13 54.76-21.44 83.45-20.78h98.69a24.45 24.45 0 0 0 22-13.4c3.18-6.53 3.59-12.35 1.28-18.3-3.49-9.05-12.66-15.12-22.8-15.12h-101.74a496.58 496.58 0 0 1 -220.61-52l-.34-.17a93.88 93.88 0 0 1 -49.91-102.77c6.26-30.45 9.62-62.65 10.23-98.11q.1-5.87.1-11.86v-11c0-.51 0-1-.05-1.56a16 16 0 0 1 31.93-2.16c.08 1.24.12 2.49.12 3.72v11c0 42.38-3.59 80.46-11 116.41a61.87 61.87 0 0 0 32.58 67.57l.3.14a464.36 464.36 0 0 0 206.63 48.78h101.69c23.26 0 44.42 14.3 52.65 35.57 5.54 14.23 4.73 29.35-2.32 43.87z"/><path d="m320.4 84a82.66 82.66 0 1 0 82.69 82.69 82.78 82.78 0 0 0 -82.69-82.69zm0 133.39a50.7 50.7 0 1 1 50.69-50.7 50.75 50.75 0 0 1 -50.69 50.7z"/></g></svg>