<svg id="Layer_1" viewBox="0 0 1000 1000" xmlns="http://www.w3.org/2000/svg" data-name="Layer 1"><path d="m643.16 311.5c-57.52-88.35-118.25-159.5-143.16-187.63-25 28.13-85.89 99.59-143.44 188.05-97 149.18-140.64 278.83-126.09 374.94 10 66.31 48.13 118.74 113.2 155.82 96.43 54.94 216.23 54.94 312.66 0 65.08-37.09 103.17-89.52 113.21-155.85 14.55-96.2-29.15-225.98-126.38-375.33zm-243.08 451.38a16 16 0 0 1 -22.62 0c-60-60-56.79-125.1-43.52-169.13 14-46.4 41.55-78.67 42.72-80a16 16 0 0 1 24.23 20.89c-.51.6-24.8 29.39-36.59 69.31-15.21 51.5-3.17 97.37 35.78 136.32a16 16 0 0 1 0 22.61z" fill="#42a5f5"/><g opacity=".5"><path d="m633.16 321.5c-57.52-88.35-118.25-159.5-143.16-187.63-25 28.13-85.89 99.59-143.44 188.05-97 149.18-140.64 278.83-126.09 374.94 10 66.31 48.13 118.74 113.2 155.82 96.43 54.94 216.23 54.94 312.66 0 65.08-37.09 103.17-89.52 113.21-155.85 14.55-96.2-29.15-225.98-126.38-375.33zm-243.08 451.38a16 16 0 0 1 -22.62 0c-60-60-56.79-125.1-43.52-169.13 14-46.4 41.55-78.67 42.72-80a16 16 0 0 1 24.23 20.89c-.51.6-24.8 29.39-36.59 69.31-15.21 51.5-3.17 97.37 35.78 136.32a16 16 0 0 1 0 22.61z" fill="#fff"/></g><g fill="#413b32"><path d="m771.38 488.22c-22.54-60.12-56.65-125.45-101.38-194.17-75.86-116.53-157.48-204.11-158.3-205a16 16 0 0 0 -23.36 0c-.82.88-82.44 88.46-158.3 205-44.75 68.72-78.86 134.05-101.4 194.17-28.64 76.38-38.64 144.78-29.81 203.4 11.57 76.5 55 136.68 129 178.86a348.36 348.36 0 0 0 344.34 0c74-42.18 117.43-102.36 129-178.86 8.83-58.62-1.17-127.02-29.79-203.4zm-1.84 198.61c-10 66.33-48.13 118.76-113.21 155.85-96.43 54.94-216.23 54.94-312.66 0-65.07-37.08-103.16-89.51-113.2-155.82-14.55-96.11 29-225.76 126.09-374.94 57.55-88.46 118.44-159.92 143.44-188.05 24.91 28.13 85.64 99.28 143.16 187.63 97.23 149.35 140.93 279.13 126.38 375.33z"/><path d="m400.08 762.88a16 16 0 0 1 -22.62 0c-60-60-56.79-125.1-43.52-169.13 14-46.4 41.55-78.67 42.72-80a16 16 0 0 1 24.23 20.89c-.51.6-24.8 29.39-36.59 69.31-15.21 51.5-3.17 97.37 35.78 136.32a16 16 0 0 1 0 22.61z"/></g></svg>