<svg id="Capa_1" enable-background="new 0 0 512 512" height="512" viewBox="0 0 512 512" width="512" xmlns="http://www.w3.org/2000/svg"><g><g><path d="m76.923 230.334c-8.242 0-14.923 6.42-14.923 14.34s6.681 14.34 14.923 14.34h331.899c18.218 0 32.987 14.769 32.987 32.987 0 7.916 6.678 14.333 14.915 14.333 8.239 0 14.917-6.418 14.917-14.333 0-34.057-27.609-61.666-61.666-61.666h-333.052z" fill="#f2c7ae"/></g><g><path d="m364.879 190.357h48v155.285h-48z" fill="#f9ee80"/></g><g><path d="m364.879 190.357h48v28.146h-48z" fill="#f4e74d"/></g><g><path d="m102.307 190.357h48v155.285h-48z" fill="#f9ee80"/></g><g><path d="m102.307 190.357h48v28.146h-48z" fill="#f4e74d"/></g><g><path d="m351.908 363.5h-289.908v111c0 16.569 13.431 30 30 30h328c16.569 0 30-13.431 30-30v-23.333z" fill="#eaaa83"/></g><g><path d="m351.908 385.056h98.092v66.111h-98.092z" fill="#f2c7ae"/></g><g><path d="m160.092 385.056h191.816v66.111h-191.816z" fill="#efb899"/></g><g><path d="m62 474.5c0 16.568 13.432 30 30 30h164v-53.333h-194z" fill="#e4996d"/></g><g><path d="m418.865 40.285c-8.043-18.032-28.123-32.785-44.623-32.785h-85.545c-16.5 0-30.29 0-30.644 0-.353 0-14.144 0-30.644 0h-85.545c-16.5 0-36.58 14.753-44.623 32.785l-53.565 120.098c-8.043 18.032-1.123 32.785 15.377 32.785h168.357 30.644 30.644 168.357c16.5 0 23.42-14.753 15.377-32.785z" fill="#fd7a6e"/></g><g><path d="m171.663 193.06c-18.811 0-26.701-16.82-17.531-37.378l61.069-136.921c1.749-3.921 3.999-7.703 6.622-11.261h-79.959c-16.5 0-36.58 14.753-44.623 32.785l-53.565 120.098c-8.043 18.032-1.123 32.785 15.377 32.785z" fill="#fb695b"/></g><g><g><path d="m207.852 123.835c0 12.91-13.143 23.377-29.354 23.377-16.213 0-29.355-10.467-29.355-23.377s13.143-23.377 29.355-23.377c16.211 0 29.354 10.466 29.354 23.377" fill="#fff"/></g><g><path d="m308.256 123.835c0 12.91 13.143 23.377 29.353 23.377 16.214 0 29.355-10.467 29.355-23.377s-13.142-23.377-29.355-23.377c-16.211 0-29.353 10.466-29.353 23.377" fill="#fff"/></g><g><path d="m195.605 108.831c-4.142 0-7.5-3.358-7.5-7.5v-12c0-4.142 3.358-7.5 7.5-7.5s7.5 3.358 7.5 7.5v12c0 4.142-3.357 7.5-7.5 7.5z"/></g><g><path d="m320.503 108.831c-4.143 0-7.5-3.358-7.5-7.5v-12c0-4.142 3.357-7.5 7.5-7.5s7.5 3.358 7.5 7.5v12c0 4.142-3.357 7.5-7.5 7.5z"/></g><g><path d="m258.054 115.973c-8.479 0-16.54-3.671-22.118-10.073-2.721-3.123-2.396-7.86.727-10.582s7.86-2.396 10.582.727c2.729 3.131 6.668 4.927 10.81 4.927 4.141 0 8.081-1.796 10.81-4.927 2.721-3.124 7.458-3.448 10.581-.727s3.449 7.458.728 10.582c-5.58 6.402-13.642 10.073-22.12 10.073z"/></g></g><g><path d="m328.387 246.914c0 13.46-11.809 24.372-26.375 24.372h-87.916c-14.566 0-26.375-10.912-26.375-24.372v-2.099c0-13.46 11.809-24.372 26.375-24.372h87.916c14.566 0 26.375 10.911 26.375 24.372z" fill="#ffbe73"/></g><g><path d="m226.298 246.914v-2.099c0-13.46 11.809-24.372 26.375-24.372h-38.578c-14.566 0-26.375 10.911-26.375 24.372v2.099c0 13.46 11.809 24.372 26.375 24.372h38.578c-14.566-.001-26.375-10.912-26.375-24.372z" fill="#ffb25a"/></g><g><path d="m476.5 362.5c0 18.225-14.775 33-33 33h-375c-18.225 0-33-14.775-33-33 0-18.225 14.775-33 33-33h375c18.225 0 33 14.775 33 33z" fill="#e4996d"/></g><g><path d="m100.003 362.5c0-18.225 14.775-33 33-33h-64.503c-18.225 0-33 14.775-33 33 0 18.225 14.775 33 33 33h64.503c-18.226 0-33-14.775-33-33z" fill="#df8a57"/></g><path d="m484 362.5c0-22.332-18.168-40.5-40.5-40.5h-23.121v-52.681c8.299 4.269 13.93 12.951 13.93 22.681 0 12.039 10.056 21.833 22.415 21.833 12.36 0 22.417-9.794 22.417-21.833 0-17.504-6.553-34.207-18.451-47.032-10.718-11.553-24.89-19.008-40.311-21.337v-22.963h36.676c9.611 0 17.451-3.923 22.074-11.047 5.482-8.448 5.538-20.219.152-32.293l-27.057-60.663c-1.688-3.783-6.121-5.481-9.904-3.794s-5.482 6.122-3.795 9.905l27.057 60.663c3.229 7.237 3.589 13.973.964 18.017-2.26 3.482-6.408 4.213-9.491 4.213h-398.002c-3.083 0-7.232-.731-9.491-4.213-2.625-4.044-2.264-10.78.964-18.017l53.565-120.099c6.852-15.361 24.151-28.34 37.774-28.34h232.377c13.623 0 30.921 12.979 37.773 28.34l13.099 29.368c1.688 3.783 6.121 5.48 9.904 3.794 3.783-1.688 5.482-6.122 3.795-9.905l-13.098-29.367c-9.312-20.876-31.922-37.23-51.473-37.23h-232.377c-19.551 0-42.161 16.354-51.473 37.23l-53.566 120.098c-5.385 12.074-5.33 23.845.152 32.293 4.623 7.124 12.462 11.047 22.074 11.047h35.754v22.166h-17.883c-12.364 0-22.423 9.797-22.423 21.84s10.059 21.84 22.423 21.84h17.884v55.486h-26.307c-22.332 0-40.5 18.168-40.5 40.5 0 17.413 11.047 32.292 26.5 38.003v73.997c0 20.678 16.822 37.5 37.5 37.5h328c20.678 0 37.5-16.822 37.5-37.5v-73.997c15.453-5.711 26.5-20.59 26.5-38.003zm-19.859-70.5c0 3.768-3.327 6.833-7.417 6.833-4.089 0-7.415-3.065-7.415-6.833 0-17.988-12.096-33.762-28.93-38.801v-14.349c24.974 4.897 43.762 27.156 43.762 53.15zm-58.762 30h-33v-121.332h33zm-48-99.167h-30.873c-6.173-6.087-14.868-9.891-24.495-9.891h-87.917c-9.627 0-18.321 3.804-24.495 9.891h-31.794v-22.166h199.572v22.166zm-199.572 15h23.242c-.536 2.248-.829 4.583-.829 6.981v2.099c0 1.562.126 3.097.357 4.6h-22.771v-13.68zm37.413 6.981c0-9.303 8.467-16.872 18.875-16.872h87.917c10.407 0 18.875 7.568 18.875 16.872v2.099c0 9.303-8.468 16.872-18.875 16.872h-87.917c-10.408 0-18.875-7.568-18.875-16.872zm139.838-6.981h22.321v13.68h-21.85c.232-1.503.357-3.037.357-4.6v-2.099c.001-2.398-.292-4.732-.828-6.981zm-258.135 13.68c-4.093 0-7.423-3.068-7.423-6.84s3.33-6.84 7.423-6.84h17.884v13.68zm32.884-50.845h33v121.332h-33zm249.601 202.332h83.092v40.667h-83.092zm-15 40.667h-176.816v-40.667h176.816zm-191.816 0h-83.092v-40.667h83.092zm-83.092 30.833v-15.833h179v38.333h-156.5c-12.407 0-22.5-10.093-22.5-22.5zm350.5 22.5h-156.5v-38.333h179v15.833c0 12.407-10.094 22.5-22.5 22.5zm23.5-109h-375c-14.061 0-25.5-11.439-25.5-25.5s11.439-25.5 25.5-25.5h168.324c4.142 0 7.5-3.358 7.5-7.5s-3.358-7.5-7.5-7.5h-79.017v-55.487h29.605c6.206 7.462 15.856 12.272 26.683 12.272h87.917c10.828 0 20.478-4.81 26.683-12.272h28.684v55.487h-90.556c-4.143 0-7.5 3.358-7.5 7.5s3.357 7.5 7.5 7.5h176.677c14.061 0 25.5 11.439 25.5 25.5s-11.439 25.5-25.5 25.5z"/></g></svg>