<svg id="Layer_1" viewBox="0 0 96 96" xmlns="http://www.w3.org/2000/svg" data-name="Layer 1"><path d="m72.3 4.19s-.07-.03-.11-.05c-.06-.04-.12-.07-.18-.09s-.12-.03-.19-.03c-.06-.01-.12-.02-.19-.01-.06 0-.12.02-.18.03-.06.02-.12.04-.18.07s-.11.07-.17.11c-.03.02-.07.04-.1.07l-66.71 66.71s-.05.07-.07.1c-.04.06-.08.11-.11.17s-.05.12-.07.18c0 .06-.03.12-.03.18-.01.07 0 .13.01.2 0 .06.01.12.03.18s.05.12.09.18c.02.04.03.08.05.11 9.15 12.33 23.77 19.69 39.11 19.69 26.85 0 48.69-21.84 48.69-48.69 0-15.34-7.36-29.96-19.69-39.11zm-7.65 9.27c9.63 6.89 15.36 17.98 15.36 29.84 0 20.24-16.47 36.71-36.71 36.71-11.86 0-22.95-5.73-29.84-15.35zm-21.35 76.53c-14.42 0-28.17-6.79-36.97-18.2l5.7-5.7c7.28 9.98 18.87 15.92 31.27 15.92 21.35 0 38.71-17.36 38.71-38.71 0-12.4-5.94-23.99-15.92-31.27l5.7-5.7c11.4 8.8 18.2 22.55 18.2 36.97 0 25.75-20.94 46.69-46.69 46.69z"/><path d="m89.99 43.3c0 25.75-20.94 46.69-46.69 46.69-14.42 0-28.17-6.79-36.97-18.2l5.7-5.7c7.28 9.98 18.87 15.92 31.27 15.92 21.35 0 38.71-17.36 38.71-38.71 0-12.4-5.94-23.99-15.92-31.27l5.7-5.7c11.4 8.8 18.2 22.55 18.2 36.97z" fill="#66bb6a"/><path d="m64.65 13.46-51.19 51.2c6.89 9.62 17.98 15.35 29.84 15.35 20.24 0 36.71-16.47 36.71-36.71 0-11.86-5.73-22.95-15.36-29.84zm-20.17 49.96c-.64 1.18-1.67 1.95-2.89 2.19-.25.05-.51.07-.76.07-.97 0-1.92-.35-2.74-1.02-.99-.8-1.67-1.98-1.93-3.32s.24-3.33 1.49-5.92c.34-.69.96-1.17 1.71-1.31.76-.15 1.51.06 2.08.58 2.12 1.93 3.33 3.59 3.59 4.93s.07 2.69-.55 3.8zm12.6-5.32c-.78.8-1.84 1.23-3.02 1.23-.13 0-.27-.01-.4-.02-1.27-.1-2.51-.69-3.48-1.64-.97-.96-1.69-2.88-2.13-5.72-.12-.76.12-1.51.66-2.05.54-.55 1.27-.8 2.04-.7 2.85.38 4.79 1.06 5.76 2.02.97.95 1.58 2.17 1.71 3.44.13 1.33-.27 2.55-1.14 3.44zm7.36-14.83c-.37 1.18-1.25 2.12-2.49 2.63-.64.27-1.34.4-2.06.4-.59 0-1.19-.09-1.78-.28-1.3-.4-2.82-1.79-4.5-4.12-.45-.62-.58-1.4-.35-2.13s.77-1.3 1.5-1.55c2.71-.96 4.74-1.23 6.05-.82 2.75.85 4.38 3.49 3.63 5.87z" fill="#ef5350"/><path d="m60.81 37.4c-1.31-.41-3.34-.14-6.05.82-.73.25-1.27.82-1.5 1.55s-.1 1.51.35 2.13c1.68 2.33 3.2 3.72 4.5 4.12.59.19 1.19.28 1.78.28.72 0 1.42-.13 2.06-.4 1.24-.51 2.12-1.45 2.49-2.63.75-2.38-.88-5.02-3.63-5.87zm1.73 5.27c-.19.61-.68 1.1-1.36 1.38-.74.31-1.62.33-2.47.06-.85-.26-2.12-1.49-3.48-3.38-.11-.15-.08-.29-.06-.36s.08-.2.25-.26c1.67-.59 3.08-.9 4.03-.9.3 0 .56.03.76.09 1.7.53 2.74 2.05 2.33 3.37z"/><path d="m62.54 42.67c-.19.61-.68 1.1-1.36 1.38-.74.31-1.62.33-2.47.06-.85-.26-2.12-1.49-3.48-3.38-.11-.15-.08-.29-.06-.36s.08-.2.25-.26c1.67-.59 3.08-.9 4.03-.9.3 0 .56.03.76.09 1.7.53 2.74 2.05 2.33 3.37z" fill="#795548"/><path d="m56.51 51.22c-.97-.96-2.91-1.64-5.76-2.02-.77-.1-1.5.15-2.04.7-.54.54-.78 1.29-.66 2.05.44 2.84 1.16 4.76 2.13 5.72.97.95 2.21 1.54 3.48 1.64.13.01.27.02.4.02 1.18 0 2.24-.43 3.02-1.23.87-.89 1.27-2.11 1.14-3.44-.13-1.27-.74-2.49-1.71-3.44zm-.86 5.48c-.45.46-1.09.67-1.83.62-.8-.07-1.6-.45-2.24-1.08-.63-.62-1.2-2.29-1.55-4.6-.03-.17.06-.29.11-.34s.14-.13.28-.13c.02 0 .04.01.06.01 2.31.31 4 .84 4.63 1.46.64.63 1.04 1.42 1.12 2.22.07.73-.13 1.39-.58 1.84z"/><path d="m55.65 56.7c-.45.46-1.09.67-1.83.62-.8-.07-1.6-.45-2.24-1.08-.63-.62-1.2-2.29-1.55-4.6-.03-.17.06-.29.11-.34s.14-.13.28-.13c.02 0 .04.01.06.01 2.31.31 4 .84 4.63 1.46.64.63 1.04 1.42 1.12 2.22.07.73-.13 1.39-.58 1.84z" fill="#795548"/><path d="m45.03 59.62c-.26-1.34-1.47-3-3.59-4.93-.57-.52-1.32-.73-2.08-.58-.75.14-1.37.62-1.71 1.31-1.25 2.59-1.75 4.58-1.49 5.92s.94 2.52 1.93 3.32c.82.67 1.77 1.02 2.74 1.02.25 0 .51-.02.76-.07 1.22-.24 2.25-1.01 2.89-2.19.62-1.11.81-2.46.55-3.8zm-2.3 2.84c-.35.64-.89 1.07-1.52 1.19s-1.29-.07-1.86-.54c-.62-.51-1.06-1.27-1.23-2.15-.17-.87.32-2.57 1.33-4.67.08-.16.22-.21.29-.22.02-.01.05-.01.08-.01.08 0 .18.02.27.11 1.72 1.56 2.81 2.96 2.98 3.83.17.88.05 1.75-.34 2.46z"/><path d="m42.73 62.46c-.35.64-.89 1.07-1.52 1.19s-1.29-.07-1.86-.54c-.62-.51-1.06-1.27-1.23-2.15-.17-.87.32-2.57 1.33-4.67.08-.16.22-.21.29-.22.02-.01.05-.01.08-.01.08 0 .18.02.27.11 1.72 1.56 2.81 2.96 2.98 3.83.17.88.05 1.75-.34 2.46z" fill="#795548"/></svg>