<svg id="Capa_1" enable-background="new 0 0 512.019 512.019" height="512" viewBox="0 0 512.019 512.019" width="512" xmlns="http://www.w3.org/2000/svg"><g><g><path d="m150.757 81.477c-32.772-32.772-85.906-32.772-118.678 0-32.772 32.772-32.772 85.906 0 118.678s85.906 32.772 118.678 0 32.772-85.906 0-118.678zm-86.358 86.359c-14.922-14.922-14.922-39.116 0-54.039 14.922-14.922 39.116-14.922 54.038 0s14.922 39.116 0 54.038c-14.922 14.923-39.116 14.923-54.038.001z" fill="#85a4e4"/></g><g><path d="m351.225 365.139h52.209v150.281h-52.209z" fill="#99b2e9" transform="matrix(0 1 -1 0 817.609 62.95)"/></g><g><ellipse cx="137.744" cy="374.188" fill="#99b2e9" rx="52.458" ry="142.003" transform="matrix(.707 -.707 .707 .707 -224.247 206.997)"/></g><g><path d="m92.487 328.931c16.953-16.953 62.037-.462 108.51 37.158-7.84-9.685-16.597-19.43-26.16-28.994-55.455-55.456-117.018-83.804-137.504-63.318s7.862 82.049 63.318 137.505c9.564 9.564 19.309 18.32 28.994 26.16-37.62-46.474-54.111-91.558-37.158-108.511z" fill="#85a4e4"/></g><g><path d="m460.522 51.41c-58.517-58.516-153.39-58.516-211.907 0-58.517 58.517-58.516 153.39 0 211.907s153.39 58.517 211.907 0 58.517-153.391 0-211.907zm-165.76 165.76c-34.606-34.606-34.606-90.714 0-125.32s90.714-34.606 125.32 0 34.606 90.714 0 125.32-90.714 34.606-125.32 0z" fill="#7293df"/></g><g><path d="m294.762 217.17c-34.606-34.606-34.606-90.714 0-125.32 33.616-33.616 87.519-34.574 122.296-2.881-8.494-11.358-7.584-27.523 2.738-37.845 10.017-10.017 25.535-11.167 36.823-3.465-58.758-54.727-150.769-53.484-208.003 3.751-58.517 58.517-58.517 153.39 0 211.907z" fill="#5c85da"/></g><g><path d="m439.285 339.413c24.104-27.971 23.05-69.257-2.419-94.726l-84.811-84.811-84.81-84.81c-25.469-25.469-66.754-26.523-94.726-2.42l-116.78 100.635c-31.147 26.841-33.525 73.949-5.164 102.31l92.884 92.884 92.884 92.884c28.361 28.361 75.469 25.983 102.309-5.164z" fill="#c1cff2"/></g><g><path d="m113.014 230.557 116.781-100.634c27.971-24.104 69.257-23.049 94.726 2.419l-57.276-57.276c-25.469-25.469-66.754-26.523-94.726-2.419l-116.78 100.634c-31.147 26.841-33.525 73.949-5.165 102.31l57.276 57.276c-28.361-28.361-25.983-75.469 5.164-102.31z" fill="#adc0ed"/></g><g><path d="m444.918 343.772-276.758-276.758c-13.208-13.208-13.208-34.821 0-48.03 13.208-13.208 34.821-13.208 48.03 0l279.56 279.56c11.667 11.667 11.667 30.759 0 42.426l-2.802 2.802c-13.208 13.208-34.821 13.208-48.03 0z" fill="#99b2e9"/></g><g><path d="m241.82 92.644c13.208-13.208 34.822-13.208 48.03 0l-73.802-73.802c-13.208-13.208-34.822-13.208-48.03 0-13.208 13.208-13.208 34.822 0 48.03l73.801 73.802c-13.207-13.209-13.207-34.822.001-48.03z" fill="#85a4e4"/></g><g><g><path d="m188.462 252.858c-8.972 9.198-25.606 7.523-37.156-3.739-11.549-11.264-13.644-27.853-4.673-37.05 8.968-9.2 25.605-7.525 37.156 3.738 11.55 11.266 13.642 27.852 4.673 37.051" fill="#fff"/></g><g><path d="m259.992 322.614c-8.969 9.2-6.878 25.788 4.674 37.051 11.549 11.264 28.184 12.939 37.156 3.739 8.97-9.196 6.877-25.786-4.672-37.049-11.551-11.263-28.187-12.938-37.158-3.741" fill="#fff"/></g><g><path d="m253.568 291.384c10.161-10.421 3.566-18.764-5.745-27.845-9.313-9.081-17.816-15.462-27.978-5.042-10.163 10.422-10.851 26.229-1.539 35.31 9.312 9.082 25.101 7.997 35.262-2.423" fill="#495560"/></g><g><path d="m233.857 307.47c-7.947 0-15.259-2.9-20.787-8.293-6.054-5.902-9.175-14.017-8.79-22.849.37-8.514 3.991-16.706 10.195-23.067 16.355-16.77 31.932-1.578 38.584 4.909 6.652 6.488 22.231 21.68 5.879 38.451h-.001c-6.203 6.361-14.302 10.186-22.805 10.771-.762.052-1.522.078-2.275.078zm-3.492-46.841c-1.952 0-3.381 1.29-5.151 3.105-3.626 3.717-5.738 8.422-5.948 13.247-.196 4.507 1.322 8.576 4.277 11.457 2.953 2.881 7.054 4.302 11.562 3.988 4.818-.331 9.469-2.561 13.094-6.278 4.079-4.183 5.417-6.485-5.611-17.24-6.242-6.085-9.677-8.279-12.223-8.279zm23.203 30.755h.01z"/></g><g><path d="m207.363 243.434c-1.888 0-3.777-.708-5.235-2.13-2.966-2.892-3.025-7.641-.133-10.606 1.194-1.225 1.84-2.841 1.818-4.552-.021-1.71-.707-3.31-1.932-4.504s-2.816-1.843-4.552-1.819c-1.71.021-3.31.708-4.504 1.933-2.891 2.965-7.64 3.027-10.605.135-2.966-2.891-3.026-7.64-.135-10.606 3.99-4.094 9.337-6.389 15.055-6.461 5.681-.08 11.118 2.086 15.214 6.078 4.093 3.992 6.387 9.338 6.458 15.056s-2.087 11.12-6.079 15.213c-1.469 1.506-3.419 2.263-5.37 2.263z"/></g><g><path d="m296.345 330.207c-1.888 0-3.777-.708-5.236-2.131-2.965-2.893-3.023-7.641-.131-10.606 1.194-1.224 1.84-2.84 1.818-4.551s-.707-3.31-1.932-4.504c-2.528-2.466-6.593-2.414-9.06.114-2.893 2.963-7.639 3.024-10.605.131-2.965-2.893-3.023-7.641-.131-10.606 8.24-8.449 21.818-8.618 30.269-.379 4.093 3.992 6.387 9.339 6.458 15.056.071 5.718-2.088 11.12-6.081 15.213-1.47 1.507-3.418 2.263-5.369 2.263z"/></g></g><g><path d="m459.27 504.496c-16.092 0-29.136-13.045-29.136-29.136v-70.161c0-16.092 13.045-29.136 29.136-29.136 16.092 0 29.136 13.045 29.136 29.136v70.161c0 16.092-13.045 29.136-29.136 29.136z" fill="#7293df"/></g><path d="m501.054 293.241-30.054-30.053c56.115-61.672 54.395-157.512-5.174-217.081-29.635-29.634-69.035-46-110.942-46.084h-.321c-39.493 0-76.794 14.476-105.817 40.911l-27.252-27.252c-7.805-7.805-18.217-12.103-29.318-12.103s-21.514 4.298-29.318 12.103-12.103 18.216-12.103 29.318c0 10.784 4.067 20.91 11.452 28.635l-5.761 4.965c-.124-.144-.248-.288-.384-.425-17.267-17.267-40.224-26.776-64.643-26.776s-47.376 9.509-64.643 26.776-26.776 40.223-26.776 64.642c0 24.292 9.417 47.133 26.515 64.368-1.863 6.256-2.965 12.751-3.21 19.345-.562 15.164 3.215 29.627 10.78 42.098-.715.583-1.404 1.195-2.055 1.845-12.29 12.29-11.696 35.047 1.672 64.079 12.321 26.757 34.214 56.6 61.646 84.032 27.433 27.433 57.276 49.326 84.033 61.646 15.157 6.979 28.602 10.477 39.742 10.477 10.197 0 18.463-2.932 24.337-8.805.646-.646 1.249-1.337 1.83-2.049 11.658 7.074 25.062 10.828 39.15 10.828.983 0 1.973-.018 2.963-.055 15.455-.573 30.372-5.807 42.879-14.744h92.352v1.476c0 20.201 16.435 36.636 36.636 36.636s36.637-16.435 36.637-36.636v-70.162c0-20.201-16.436-36.636-36.637-36.636s-36.636 16.435-36.636 36.636v1.477h-31.411l49.076-56.949c7.994 7.642 18.31 11.474 28.635 11.474 10.617 0 21.235-4.042 29.318-12.125l2.802-2.802c14.62-14.618 14.62-38.409 0-53.03zm-45.835-236.528c53.72 53.72 55.44 140.047 5.164 195.857l-32.609-32.609c35.046-37.638 34.265-96.76-2.388-133.414-36.655-36.653-95.774-37.434-133.415-2.388l-32.607-32.607c55.778-50.235 142.223-48.472 195.855 5.161zm-152.641 38.053c31.781-29.204 81.397-28.416 112.201 2.388 30.805 30.806 31.593 80.419 2.388 112.201zm-287.578 46.051c0-20.412 7.948-39.603 22.383-54.036 14.433-14.434 33.623-22.382 54.035-22.382 20.231 0 39.256 7.818 53.644 22.01l-23.389 20.155c-17.931-15.857-45.426-15.219-62.578 1.931-15.346 15.347-17.541 39.411-6.027 57.188l-2.225 1.918c-7.365 6.346-13.429 13.934-17.981 22.301-11.556-13.739-17.862-30.924-17.862-49.085zm49.588 14.938c-6.511-11.728-4.699-26.842 5.114-36.655 11.027-11.026 28.417-11.89 40.451-2.61zm373.046 249.443c0-11.93 9.706-21.636 21.636-21.636 11.931 0 21.637 9.706 21.637 21.636v70.162c0 11.93-9.706 21.636-21.637 21.636-11.93 0-21.636-9.706-21.636-21.636zm-15 16.477v37.209h-76.401l32.064-37.209zm67.812-86.008-2.802 2.802c-10.316 10.317-27.106 10.317-37.423 0l-184.783-184.783c-2.93-2.929-7.678-2.929-10.607 0s-2.929 7.678 0 10.606l174.816 174.816-96.678 112.19c-11.671 13.543-28.481 21.686-46.123 22.34-17.157.629-33.226-5.608-45.2-17.583l-39.539-39.539c-2.93-2.929-7.678-2.929-10.607 0s-2.929 7.678 0 10.606l39.539 39.539c.734.734 1.488 1.439 2.245 2.139-.146.163-.278.342-.432.496-7.306 7.308-24.951 5.555-47.198-4.69-25.186-11.598-53.49-32.418-79.699-58.628-26.21-26.209-47.03-54.514-58.628-79.7-10.244-22.247-11.997-39.891-4.689-47.199.156-.156.325-.296.488-.443.702.761 1.408 1.521 2.145 2.258l124.313 124.313c1.465 1.465 3.384 2.197 5.304 2.197 1.919 0 3.839-.732 5.304-2.197 2.929-2.929 2.929-7.678 0-10.606l-124.314-124.313c-11.976-11.976-18.221-28.028-17.584-45.202.654-17.641 8.797-34.452 22.34-46.123l112.19-96.678 60.663 60.664c2.929 2.929 7.677 2.93 10.607 0 2.929-2.929 2.929-7.678 0-10.606l-70.631-70.631c-10.317-10.317-10.317-27.105 0-37.423 4.971-4.972 11.616-7.709 18.711-7.709s13.74 2.738 18.711 7.709l244.33 244.329c.001.001.002.003.003.004s.003.002.004.003l35.224 35.224c8.773 8.771 8.774 23.046 0 31.818z"/></g></svg>