<svg id="Water_Gun" enable-background="new 0 0 64 64" viewBox="0 0 64 64" xmlns="http://www.w3.org/2000/svg"><g><g><path d="m50.41327 4.65527h-25.18066c-3.8102 0-6.89897 3.08878-6.89897 6.89897v.00001c0 3.8102 3.08878 6.89897 6.89897 6.89897h25.18066c3.8102 0 6.89897-3.08877 6.89897-6.89897v-.00001c0-3.8102-3.08877-6.89897-6.89897-6.89897z" fill="#79b6ef"/><path d="m56.89973 9.19867c.26816.73677.4191 1.5162.41939 2.35046-.01418 3.81671-3.09762 6.91109-6.90819 6.91377l-9.32924.00125c5.40634-1.25028 8.84932-8.78587 4.60577-13.81264l4.72402.00628c2.97628-.00248 5.52534 1.8953 6.48825 4.54088z" opacity=".1"/><path d="m27.57777 8.00416c0 .73417-.91609 1.32934-2.04614 1.32934s-2.04614-.59517-2.04614-1.32934.91609-1.32934 2.04614-1.32934 2.04614.59517 2.04614 1.32934zm2.07918-.88112c-.65267 0-1.18176.39449-1.18176.88112s.52909.88112 1.18176.88112 1.18176-.39449 1.18176-.88112-.52909-.88112-1.18176-.88112z" fill="#fff" opacity=".4"/><path d="m50.41348 19.3424h-25.18063c-4.29473 0-7.78815-3.49343-7.78815-7.78815s3.49343-7.78816 7.78815-7.78816h25.18063c4.29386 0 7.78729 3.49343 7.78729 7.78816s-3.49343 7.78815-7.78729 7.78815zm-25.18063-13.79834c-3.31372 0-6.01019 2.69647-6.01019 6.01019s2.69647 6.01019 6.01019 6.01019h25.18063c3.31285 0 6.00932-2.69647 6.00932-6.01019s-2.69647-6.01019-6.00932-6.01019z" fill="#101016"/></g><g><path d="m35.231 4.655h5.183v17.414h-5.183z" fill="#ffdc6e"/><path d="m40.41415 22.95824h-5.18284c-.49137 0-.88898-.39761-.88898-.88898v-17.41418c0-.49137.39761-.88898.88898-.88898h5.18284c.49137 0 .88898.39761.88898.88898v17.41418c.00001.49137-.3976.88898-.88898.88898zm-4.29385-1.77797h3.40488v-15.63621h-3.40488z" fill="#101016"/></g><g><path d="m2.0411 34.13355c-1.35686 1.12909-1.5415 3.14436-.4124 4.50122s3.14436 1.5415 4.50122.4124c.91921-.76491 1.92797-3.51264 2.48308-5.2056.21309-.64987-.32397-1.29527-1.00174-1.20382-1.76566.23823-4.65095.73089-5.57016 1.4958z" fill="#79b6ef"/><path d="m4.09258 40.67627c-.12588 0-.25263-.00521-.38025-.01736-1.08692-.1007-2.06966-.61639-2.76679-1.45675-.69799-.83689-1.02789-1.89777-.92805-2.98469.09897-1.08692.61639-2.06967 1.45502-2.76592.83863-.69973 2.86402-1.26923 6.01974-1.69462.62246-.08074 1.23537.15279 1.63646.63461.40195.48182.52523 1.12773.32903 1.72675-.99143 3.02463-1.91948 4.91372-2.75897 5.61171-.74054.61637-1.6547.94627-2.60619.94627zm3.67574-7.11013c-3.17134.37504-4.73748.8994-5.15854 1.25013v.00174c-.47401.39414-.76571.94802-.82214 1.56267-.05643.61291.13022 1.21193.52436 1.6842.39414.47575.94889.76744 1.56267.82301.60944.05383 1.2128-.12849 1.68681-.52436.42193-.35074 1.22323-1.79533 2.20684-4.79739zm-5.72717.56777h.01736z" fill="#101016"/></g><g><path d="m2.0411 28.8728c-1.35686-1.1291-1.5415-3.14436-.4124-4.50122s3.14436-1.5415 4.50122-.4124c.91921.76491 1.92797 3.51264 2.48308 5.2056.21309.64987-.32397 1.29527-1.00174 1.20382-1.76566-.23823-4.65095-.73089-5.57016-1.4958z" fill="#79b6ef"/><path d="m7.73967 31.26641c-.08247 0-.16408-.00521-.24655-.01649-3.15745-.42713-5.18284-.99663-6.02061-1.69376-.83863-.69799-1.35605-1.68073-1.45502-2.76766-.09984-1.08605.23006-2.14693.92805-2.98556.69712-.83863 1.68073-1.35518 2.76679-1.45502 1.0956-.09984 2.14867.23093 2.98643.92805.8395.69799 1.76755 2.58621 2.75897 5.61171.1962.59902.07292 1.24319-.32816 1.72588-.34812.41845-.85512.65285-1.3899.65285zm-5.12989-3.07671c.42018.34986 1.98632.87422 5.12034 1.29788-.94628-3.0498-1.74671-4.4944-2.16863-4.84513-.47314-.39414-1.07129-.57645-1.68681-.52436-.61378.05643-1.16853.34813-1.56267.82214-.81346.97753-.67976 2.43515.29777 3.24947z" fill="#101016"/></g><g><path d="m13.8212 37.277h1.57184v-11.54765h-1.57184c-1.27285 0-2.30471 1.03185-2.30471 2.30471v6.93824c0 1.27285 1.03185 2.3047 2.30471 2.3047z" fill="#ffdc6e"/><path d="m15.39326 38.16559h-1.57222c-1.76147 0-3.19392-1.43245-3.19392-3.19305v-6.93824c0-1.76147 1.43244-3.19392 3.19392-3.19392h1.57222c.49137 0 .88898.39761.88898.88898v11.54724c.00001.49137-.39761.88899-.88898.88899zm-1.57221-11.54724c-.78047 0-1.41595.63548-1.41595 1.41595v6.93824c0 .7796.63548 1.41508 1.41595 1.41508h.68323v-9.76927z" fill="#101016"/></g><g><path d="m40.01274 49.22065c-4.38369 0-7.95044-3.56616-7.95044-7.94985s3.56675-7.94985 7.95044-7.94985 7.94926 3.56616 7.94926 7.94985-3.56557 7.94985-7.94926 7.94985zm0-12.28352c-2.38961 0-4.33425 1.94405-4.33425 4.33366s1.94464 4.33366 4.33425 4.33366c2.3896 0 4.33307-1.94405 4.33307-4.33366s-1.94346-4.33366-4.33307-4.33366z" fill="#ffdc6e"/><path d="m40.01307 50.10957c-4.87378 0-8.83949-3.9657-8.83949-8.83948s3.9657-8.83775 8.83949-8.83775 8.83775 3.96396 8.83775 8.83775-3.96397 8.83948-8.83775 8.83948zm0-15.89927c-3.89451 0-7.06152 3.167-7.06152 7.05978 0 3.89451 3.167 7.06152 7.06152 7.06152 3.89277 0 7.05978-3.167 7.05978-7.06152 0-3.89277-3.167-7.05978-7.05978-7.05978zm0 12.28256c-2.88052 0-5.22278-2.34226-5.22278-5.22278s2.34226-5.22278 5.22278-5.22278c2.87878 0 5.22104 2.34226 5.22104 5.22278s-2.34226 5.22278-5.22104 5.22278zm0-8.66759c-1.89951 0-3.44481 1.5453-3.44481 3.44481s1.5453 3.44481 3.44481 3.44481c1.89777 0 3.44307-1.5453 3.44307-3.44481s-1.5453-3.44481-3.44307-3.44481z" fill="#101016"/></g><g><path d="m49.74074 22.06942h-31.1831c-1.74776 0-3.1646 1.41684-3.1646 3.1646v12.87217c0 1.74776 1.41684 3.1646 3.1646 3.1646h19.2112c1.33461 0 2.51417.8678 2.91143 2.14191l4.27472 13.71036c.41222 1.32213 1.63625 2.22264 3.02116 2.22264h7.5588c2.13411 0 3.65639-2.06918 3.02116-4.10656l-4.35516-13.96835h5.74609c1.74776 0 3.1646-1.41684 3.1646-3.1646v-2.66587c0-7.38454-5.98635-13.3709-13.3709-13.3709z" fill="#ea5385"/><path d="m58.14307 53.87782.42051 1.36395c.62479 2.02918-.89703 4.10008-3.02232 4.09608l-7.56477.00383c-1.38079.00951-2.60056-.89293-3.02563-2.21726l-1.01344-3.25311z" fill="#ffdc6e"/><path d="m45.56481 34.39009h7.70605c1.59439 0 2.88691-1.29251 2.88691-2.88691v-.00001c0-1.5944-1.29251-2.88691-2.88691-2.88691h-7.70605c-1.59439 0-2.88691 1.29251-2.88691 2.88691v.00001c0 1.59439 1.29252 2.88691 2.88691 2.88691z" fill="#ffdc6e"/><path d="m34.79197 34.39009c-.78686 0-1.42473-.63787-1.42473-1.42473v-2.92437c0-.78686.63787-1.42473 1.42473-1.42473.78685 0 1.42472.63787 1.42472 1.42473v2.92437c0 .78685-.63787 1.42473-1.42472 1.42473z" fill="#ffdc6e"/><path d="m29.24996 34.39009c-.78686 0-1.42473-.63787-1.42473-1.42473v-2.92437c0-.78686.63787-1.42473 1.42473-1.42473.78686 0 1.42473.63787 1.42473 1.42473v2.92437c0 .78685-.63787 1.42473-1.42473 1.42473z" fill="#ffdc6e"/><path d="m23.70796 34.39009c-.78686 0-1.42473-.63787-1.42473-1.42473v-2.92437c0-.78686.63787-1.42473 1.42473-1.42473.78686 0 1.42473.63787 1.42473 1.42473v2.92437c-.00001.78685-.63788 1.42473-1.42473 1.42473z" fill="#ffdc6e"/><path d="m63.11278 35.43853.00532 2.67177c-.00853 1.74777-1.43009 3.15638-3.1717 3.16446l-5.74405.0048 4.36123 13.9622c.62479 2.02918-.89703 4.10008-3.02232 4.09608l-7.56477.00383c-1.38079.00951-2.60056-.89293-3.02563-2.21726l-1.25418-4.01884c2.5235-2.34069 5.14862-5.70436 6.52044-10.37551 2.73001-9.22358-1.32797-17.03832-3.79987-20.65179l3.31427-.01163c7.39575.00087 13.38818 5.99279 13.38126 13.37189z" opacity=".1"/><g fill="#101016"><path d="m55.53556 60.23391h-7.55983c-1.78318 0-3.33716-1.14422-3.8702-2.84579l-4.27476-13.71153c-.28302-.90808-1.11123-1.51752-2.06272-1.51752h-19.21039c-2.23548 0-4.05338-1.8179-4.05338-4.05252v-12.8729c0-2.23461 1.8179-4.05338 4.05338-4.05338h31.18388c7.86195 0 14.25846 6.39652 14.25846 14.25933v2.66695c0 2.23462-1.8179 4.05252-4.05251 4.05252h-4.53868l3.99696 12.8156c.38719 1.24319.16668 2.5593-.60423 3.60802-.77266 1.04872-1.96202 1.65122-3.26598 1.65122zm-36.9779-37.27567c-1.25447 0-2.27542 1.02094-2.27542 2.27542v12.8729c0 1.2536 1.02094 2.27455 2.27542 2.27455h19.21038c1.73282 0 3.2434 1.11123 3.76082 2.76766l4.27476 13.70979c.29864.95496 1.172 1.59739 2.1721 1.59739h7.55983c.73098 0 1.39946-.33858 1.83353-.92718.43233-.5886.55735-1.32653.33858-2.02626l-4.35636-13.96851c-.08334-.26913-.03473-.56256.1337-.79001.16668-.22919.43233-.36289.71535-.36289h5.74714c1.2536 0 2.27455-1.02094 2.27455-2.27455v-2.66695c0-6.88181-5.59956-12.48136-12.4805-12.48136z"/><path d="m47.94621 60.23043c-1.75192 0-3.29549-1.13554-3.84069-2.83363l-1.01747-3.26077c-.08334-.26912-.03473-.56256.13369-.79001.16669-.22919.43234-.36289.71535-.36289l14.20638.00521c.39067 0 .73445.25523.84905.6268l.42018 1.36473c.38372 1.24319.158 2.55756-.61812 3.60455-.77092 1.04351-1.95507 1.64254-3.24861 1.64254-.00174 0-.00521 0-.00695 0l-7.5633.00347c-.01041 0-.02083 0-.02951 0zm-2.80065-5.46933.65458 2.09918c.30559.95149 1.17027 1.59218 2.15127 1.59218h.01736l7.57199-.00347h.00347c.72577 0 1.38904-.33511 1.82137-.92197.43581-.5886.56256-1.32653.349-2.02279l-.22746-.73793z"/><path d="m34.79203 35.27986c-1.27618 0-2.31448-1.0383-2.31448-2.31448v-2.92479c0-1.27531 1.0383-2.31361 2.31448-2.31361s2.31448 1.0383 2.31448 2.31361v2.92479c0 1.27618-1.0383 2.31448-2.31448 2.31448zm0-5.77492c-.29517 0-.53652.24048-.53652.53565v2.92479c0 .29517.24135.53651.53652.53651s.53651-.24134.53651-.53651v-2.92479c0-.29517-.24134-.53565-.53651-.53565z"/><path d="m23.70838 35.27986c-1.27618 0-2.31448-1.0383-2.31448-2.31448v-2.92479c0-1.27531 1.03831-2.31361 2.31448-2.31361 1.27531 0 2.31361 1.0383 2.31361 2.31361v2.92479c.00001 1.27618-1.0383 2.31448-2.31361 2.31448zm0-5.77492c-.29604 0-.53651.24048-.53651.53565v2.92479c0 .29517.24048.53651.53651.53651.29517 0 .53565-.24134.53565-.53651v-2.92479c0-.29517-.24048-.53565-.53565-.53565z"/><path d="m29.24977 35.27986c-1.27531 0-2.31361-1.0383-2.31361-2.31448v-2.92479c0-1.27531 1.0383-2.31361 2.31361-2.31361s2.31361 1.0383 2.31361 2.31361v2.92479c.00001 1.27618-1.0383 2.31448-2.31361 2.31448zm0-5.77492c-.29517 0-.53565.24048-.53565.53565v2.92479c0 .29517.24048.53651.53565.53651s.53565-.24134.53565-.53651v-2.92479c0-.29517-.24048-.53565-.53565-.53565z"/><path d="m53.27143 35.27986h-7.70742c-2.08182 0-3.77471-1.69462-3.77471-3.77644 0-2.08269 1.69289-3.77644 3.77471-3.77644h7.70742c2.08182 0 3.77471 1.69376 3.77471 3.77644-.00001 2.08182-1.6929 3.77644-3.77471 3.77644zm-7.70742-5.77492c-1.10081 0-1.99674.8968-1.99674 1.99848s.89593 1.99848 1.99674 1.99848h7.70742c1.10081 0 1.99674-.8968 1.99674-1.99848s-.89593-1.99848-1.99674-1.99848z"/></g></g></g></svg>