<svg id="a" height="512" viewBox="0 0 512 512" width="512" xmlns="http://www.w3.org/2000/svg" data-name="Layer 1"><path d="m370.9223182 162.8236443h-.4569108c-4.4377702-34.3356368-34.9842763-55.3621524-69.1902161-52.1244379v-20.3148337c4.8074281.3002298 8.9726957-3.4919853 8.9515415-8.3417355.000033.0000434.000033-32.9353756.000033-32.9353756 0-4.6070189-3.7347664-8.3417387-8.3417387-8.3417387h-82.1280921c-4.6070888 0-8.3417387 3.7347198-8.3417387 8.3417387v32.935419c-.017647 4.8481961 4.1402355 8.6435912 8.951458 8.3416921v20.3148337h-19.6891998c-30.3845802 0-55.4612219 22.7348602-59.1428619 52.1244379h-.4660215c.0062037 1.4098949-.0044708 85.4974927.0000136 89.7583735-.0000136-.0003206-.0000136 16.2382461-.0000136 16.2382461 0 9.1992649 7.4587444 16.6556094 16.6580094 16.6556094-9.1992649 0-16.6580094 7.4587211-16.6580094 16.6579861v59.5645181c0 9.1992649 7.4587444 16.6579861 16.6580094 16.6579861h5.0609239c-11.8189627-.0520849-21.7686057 9.6929937-21.7188751 21.7189667-.0000581-.0000334-.0000581 33.3391699-.0000581 33.3391699 0 20.8869916 16.9329854 37.819977 37.822377 37.819977 17.9097738-.0258077 133.5840427.0186017 154.2181876-.0000565 20.8894011.0000565 37.8222933-16.9329289 37.8222933-37.8199205v-33.3392033c.021564-11.8821546-9.6501604-21.7232958-21.7189333-21.7189333h5.0609239c9.2796931.0205982 16.7010402-7.6271346 16.6579803-16.6580058.0000291.0000197.0000291-59.5644984.0000291-59.5644984.0431557-9.0305357-7.3784775-16.6790759-16.6580094-16.6579861 6.447501 0 12.0397593-3.6628593 14.8079039-9.0221069 3.0395747-4.6057563 1.5094321-18.5434044 1.8503196-23.8721021.0014426-4.4341663-.0014083-88.1072885-.0002141-89.75802h-.0091107z" fill="#9cd7ff"/><g><path d="m301.8850271 40.7655229h-82.1282086c-4.6069723 0-8.3416222 3.7347198-8.3416222 8.3417387v32.935419c0 4.6069723 3.7346499 8.3416921 8.3416222 8.3416921.6744677.0342929 80.8267242-.0247203 81.5196481.0000751-.0012753-.0000751.6085605-.0000751.6085605-.0000751 4.6069723 0 8.3416222-3.7347198 8.3416222-8.3416921v-32.935419c0-4.6070189-3.7346499-8.3417387-8.3416222-8.3417387z" fill="#60b7ff"/><path d="m220.367 90.384h80.909v20.315h-80.909z" fill="#9cd7ff"/><path d="m370.8684927 170.3861251h.0629362c.2004408-32.3384456-26.5706469-59.8502889-59.6090016-59.6867538-3.8899355-.0279309-84.8912709.0198498-90.9552594-.0002257-.0005137.0000608-19.6897135.0000608-19.6897135.0000608-33.0344803-.1629997-59.8142189 27.346899-59.6088834 59.6869187h.0629129c-.1950818 1.6854912.008381 96.9572712-.0630719 98.6435304.000159 8.5561703 6.4402736 15.6040469 14.7316121 16.5606725-8.2913385.9557169-14.7314531 7.9963236-14.7314531 16.5435312v59.5645181c0 9.1992649 7.4587444 16.6579861 16.6580094 16.6579861h5.0609239c-11.8187156-.0523498-21.7687838 9.6931846-21.7188746 21.7189661-.0000586-.0000329-.0000586 33.3391705-.0000586 33.3391705 0 20.8869916 16.9328922 37.819977 37.822377 37.819977h154.2181038c20.8894848 0 37.822377-16.9329854 37.822377-37.819977v-33.3392033c.0215181-11.8821054-9.6501273-21.7233313-21.7189333-21.7189333h5.0609239c9.2796186.0206129 16.700892-7.6272222 16.6579803-16.6580058.0000291.0000197.0000291-59.5644984.0000291-59.5644984.0461184-8.3380863-6.3286306-15.5920397-14.7129054-16.5435312 8.3866474-.9540682 14.759568-8.2193141 14.7128724-16.5628915-.0680774-1.8136885.1245677-96.8599576-.0629031-98.6413115z" fill="#9cd7ff"/><g fill="#bbe7ff"><path d="m171.7490983 294.4980966c-1.183718 2.2881191-1.8501055 4.8839056-1.8501055 7.6357627.6868019 4.8766779-1.8159475 64.6019742 1.8501055 67.2002809h197.3321087c1.183718-2.2881191 1.850222-4.8838823 1.850222-7.6357627-.6868244-4.8767337 1.816029-64.6019398-1.850222-67.2002809z"/><path d="m370.8684927 170.3080199h.0629362c.1980187-32.3058594-26.5732345-59.7697201-59.6089976-59.6086502.0001142-.0001633-81.8145551-.0001633-81.8145551-.0001633-33.0350431-.1601229-59.8104351 27.300778-59.6088834 59.6088135h.0629129c.6899751 4.878933-2.1040511 104.1133392 1.7871926 106.1457464h197.3321087c3.8725997-1.7448714 1.1094195-101.50265 1.7872858-106.1457464z"/><path d="m141.069 162.824h229.863v89.758h-229.863z"/><path d="m366.8327929 387.3784937h-192.8350708c-2.5794991 3.5697948-4.0987292 7.9572943-4.0987292 12.6968031v33.3392033c0 20.8869916 16.9329854 37.819977 37.8200003 37.819977h125.3900588c20.8894848 0 37.822377-16.9329854 37.822377-37.819977v-33.3392033c-.0200649-6.724432-2.9843211-12.6982716-7.9773332-16.8190897 1.4646358 1.1986074 2.7698455 2.584835 3.8786972 4.1222866z"/></g><path d="m169.89 162.824h201.032v89.758h-201.032z" fill="#f5fbff"/><path d="m263.3241691 177.1216741c-.9944666-1.2983826-3.3893513-1.2983826-4.3838179 0-8.8802732 11.5943127-39.7557838 55.5782399 2.1867361 56.2818159v.0002563c.0034596-.0001419.0068861-.0001419.0103457 0v-.0002563c41.9425432-.703576 11.0670093-44.6875265 2.1867361-56.2818159z" fill="#60b7ff"/></g><g fill="#bbe7ff"><path d="m360.9161603 286.8552736c-2.0353062-.8862271-4.281346-1.3793552-6.6427407-1.3794004 2.3615175 0 4.6074383.4932139 6.6427407 1.3794004z"/><path d="m349.2124957 378.3563635c3.6334675.0154646 8.4449281.2676682 11.7036646-1.3794004-3.2494424 1.6457669-8.0793888 1.3958569-11.7036646 1.3794004z"/></g></svg>