<svg id="Fill" viewBox="0 0 64 64" xmlns="http://www.w3.org/2000/svg"><g><path d="m52.084 33.58h.06c-1.13 28.24-41.38 28.28-42.65.18h.04c.53 2.75 9.26 5.36 21.28 5.24 12.98.04 21.13-2.67 21.27-5.42z" fill="#38a4dd"/><path d="m27.284 28.24c1.38-.06 2.84-.09 4.27-.07v1.07c-.01 1.29 1.13 2.25 2.39 2.13 1.18 0 2.13-.95 2.13-2.13v-.91c11.29.91 16.11 3.09 16.01 5.25-.14 2.75-8.29 5.46-21.27 5.42-12.02.12-20.75-2.49-21.28-5.24-.37-1.98 3.49-4.04 13.43-5.22v4.78c.06 2.81 4.26 2.82 4.32 0z" fill="#488fcc"/><path d="m36.074 17.94c0-.67-.54-1.21-1.21-1.21s-1.21-.55-1.21-1.21v-1.94l16.8-4.28c4.24-.94 5.77 5.15 1.62 6.34l-16 4.08z" fill="#cfd9dc"/><path d="m31.554 25.84c-.07-2.81-4.19-2.81-4.27 0v7.48c-.06 2.82-4.26 2.81-4.32 0v-13.1c0-2.3 1.56-4.31 3.79-4.88l6.9-1.76v1.94c0 .66.54 1.21 1.21 1.21s1.21.54 1.21 1.21v11.3c0 1.18-.95 2.13-2.13 2.13-1.26.12-2.4-.84-2.39-2.13z" fill="#f1592b"/></g><path d="m52.35 16.601c2.658-.762 3.536-3.181 3.03-5.177-.506-1.993-2.429-3.7-5.173-3.093l-16.779 4.274c-.015.004-.028.007-.042.011l-6.88 1.755c-2.674.684-4.542 3.089-4.542 5.849v7.439c-7.146.918-11.493 2.358-12.91 4.285-.345.469-.527.978-.541 1.497-.007.048-.028.09-.028.14 0 .057.004.114.011.225.684 15.12 12.036 21.993 22.318 21.993h.06c10.3-.027 21.662-6.979 22.271-22.178.007-.169-.039-.322-.108-.465-.512-3.558-8.664-5.089-15.962-5.742v-6.917zm-17.695-2.243 16.017-4.081c1.641-.366 2.52.654 2.771 1.64.27 1.063-.134 2.33-1.614 2.755l-14.753 3.762v-.492c0-1.219-.991-2.21-2.21-2.21-.112 0-.21-.099-.21-.211v-1.162zm-10.69 5.862c0-1.846 1.249-3.453 3.037-3.911l5.653-1.441v.652c0 1.219.991 2.211 2.21 2.211.118 0 .21.092.21.21v11.3c0 .623-.507 1.13-1.225 1.135-.339.028-.686-.081-.938-.312-.232-.214-.359-.503-.356-.823v-3.426c-.051-2.02-1.611-3.079-3.126-3.082h-.006c-1.517 0-3.081 1.057-3.139 3.107v7.459c-.022 1.077-.968 1.132-1.156 1.132-.19 0-1.141-.054-1.164-1.11zm6.591 6.952c-.739 0-1.495.013-2.271.038v-1.341c.03-1.079.951-1.136 1.14-1.136.146-.02 1.104.051 1.131 1.107zm.313 26.626h-.055c-8.697 0-18.23-5.423-20.039-17.227 3.748 2.277 11.589 3.433 19.272 3.433.255 0 .511 0 .765-.004h.29c9.119 0 16.307-1.335 19.752-3.468-1.816 11.803-11.312 17.243-19.985 17.266zm20.217-20.269c-.082 1.615-6.828 4.472-19.999 4.471h-.281c-12.95.136-19.969-2.771-20.287-4.424-.012-.059-.037-.197.147-.448.385-.523 2.34-2.269 11.299-3.451v3.664c.044 2.028 1.624 3.09 3.163 3.089 1.536 0 3.113-1.062 3.156-3.11v-4.11c.777-.025 1.533-.037 2.271-.038v.059c-.008.887.35 1.705 1.005 2.307.668.611 1.567.912 2.385.832 1.665 0 3.017-1.31 3.112-2.952 11.58 1.052 14.067 3.31 14.029 4.111z"/></svg>