<svg id="Layer_1" viewBox="0 0 1000 1000" xmlns="http://www.w3.org/2000/svg" data-name="Layer 1"><path d="m275.12 866.07a55 55 0 0 1 -64.68-9.65l-66.86-66.86a55 55 0 0 1 -9.65-64.68z" fill="#37474f"/><path d="m872.51 249.27a54.57 54.57 0 0 1 -6.44 25.85l-141.19-141.19a55 55 0 0 1 64.68 9.65l66.86 66.86a54.56 54.56 0 0 1 16.09 38.83z" fill="#37474f"/><path d="m884 341.21a7 7 0 0 1 -2 4.94l-35.11 35.11-228.1-228.1 35.11-35.11a7 7 0 0 1 9.89 0l25.53 25.53 167.1 167.15 25.58 25.53a7 7 0 0 1 2 4.95z" fill="#37474f"/><path d="m840.16 429.73-35.11 35.11-109.68-109.68-.19-.2-.2-.19-49.75-49.77-.19-.2-.2-.19-109.68-109.61 35.11-35.11a7 7 0 0 1 9.89 0l260 260a7 7 0 0 1 0 9.84z" fill="#37474f"/><path d="m464.84 805.05-35.11 35.11a7 7 0 0 1 -9.89 0l-4.64-4.63-250.73-250.73-4.63-4.64a7 7 0 0 1 0-9.89l35.16-35.11 109.63 109.68.19.2.2.19 49.75 49.77.19.2.2.19z" fill="#37474f"/><path d="m381.26 846.84-35.11 35.16a7 7 0 0 1 -9.89 0l-25.53-25.53-167.15-167.2-25.53-25.53a7 7 0 0 1 0-9.89l35.11-35.11z" fill="#37474f"/><path d="m291.44 480.55h417.14v38.91h-417.14z" fill="#bdbdbd" transform="matrix(.707 -.707 .707 .707 -207.11 500.01)"/><g fill="#fff" opacity=".5"><path d="m265.12 876.07a55 55 0 0 1 -64.68-9.65l-66.86-66.86a55 55 0 0 1 -9.65-64.68z"/><path d="m862.51 259.27a54.57 54.57 0 0 1 -6.44 25.85l-141.19-141.19a55 55 0 0 1 64.68 9.65l66.86 66.86a54.56 54.56 0 0 1 16.09 38.83z"/><path d="m874 351.21a7 7 0 0 1 -2 4.94l-35.11 35.11-228.1-228.1 35.11-35.11a7 7 0 0 1 9.89 0l25.53 25.53 167.1 167.15 25.58 25.53a7 7 0 0 1 2 4.95z"/><path d="m830.16 439.73-35.11 35.11-109.68-109.68-.19-.2-.2-.19-49.75-49.77-.19-.2-.2-.19-109.68-109.61 35.11-35.11a7 7 0 0 1 9.89 0l260 260a7 7 0 0 1 0 9.84z"/><path d="m454.84 815.05-35.11 35.11a7 7 0 0 1 -9.89 0l-4.64-4.63-250.73-250.73-4.63-4.64a7 7 0 0 1 0-9.89l35.16-35.11 109.63 109.68.19.2.2.19 49.75 49.77.19.2.2.19z"/><path d="m371.26 856.84-35.11 35.16a7 7 0 0 1 -9.89 0l-25.53-25.53-167.15-167.2-25.53-25.53a7 7 0 0 1 0-9.89l35.11-35.11z"/><path d="m281.44 490.55h417.14v38.91h-417.14z" transform="matrix(.707 -.707 .707 .707 -217.11 495.86)"/></g><g fill="#413b32"><path d="m310.73 856.42-167.15-167.15a16 16 0 0 0 -22.63 0 87.7 87.7 0 0 0 -10.28 12.35 87 87 0 0 0 10.33 110.57l66.86 66.86a87 87 0 0 0 110.57 10.28 87.7 87.7 0 0 0 12.35-10.28 16 16 0 0 0 -.05-22.63zm-61.46 16.09a54.56 54.56 0 0 1 -38.83-16.09l-66.86-66.86a55 55 0 0 1 -9.65-64.68l141.19 141.19a54.57 54.57 0 0 1 -25.85 6.44z"/><path d="m879.05 187.81-66.86-66.81a87 87 0 0 0 -110.57-10.28 87.7 87.7 0 0 0 -12.35 10.28 16 16 0 0 0 0 22.63l167.15 167.1a16 16 0 0 0 22.63 0 87.7 87.7 0 0 0 10.28-12.35 87 87 0 0 0 -10.28-110.57zm-154.17-53.88a55 55 0 0 1 64.68 9.65l66.86 66.86a55 55 0 0 1 9.65 64.68z"/><path d="m904.58 313.63-218.21-218.21a39.05 39.05 0 0 0 -55.15 0l-35.92 35.92-10.5 10.51a16 16 0 0 0 0 22.62l250.73 250.73a16 16 0 0 0 22.62 0l10.51-10.5 35.92-35.92a39.05 39.05 0 0 0 0-55.15zm-22.58 32.52-35.11 35.11-228.1-228.1 35.11-35.11a7 7 0 0 1 9.89 0l25.53 25.53 167.1 167.15 25.58 25.53a7 7 0 0 1 0 9.89z"/><path d="m868.66 404.7a38.53 38.53 0 0 0 -5.87-7.49l-260-260a39 39 0 0 0 -55.14 0l-46.43 46.42a16 16 0 0 0 0 22.63l109.88 109.88 22.63 22.63 160 160a16 16 0 0 0 22.63 0l46.42-46.43a39 39 0 0 0 5.87-47.65zm-28.5 25-35.11 35.11-160.21-160.18-109.68-109.63 35.11-35.11a7 7 0 0 1 9.89 0l260 260a7 7 0 0 1 0 9.84z"/><path d="m415.2 835.53-250.73-250.73a16 16 0 0 0 -22.62 0l-10.51 10.5-35.92 35.92a39.05 39.05 0 0 0 0 55.15l179.7 179.7 23.26 23.26 15.25 15.25a39.05 39.05 0 0 0 55.15 0l35.92-35.92 10.5-10.51a16 16 0 0 0 0-22.62zm-69.05 46.47a7 7 0 0 1 -9.89 0l-25.53-25.53-167.15-167.2-25.53-25.53a7 7 0 0 1 0-9.89l35.11-35.11 228.1 228.1z"/><path d="m498.78 793.74-109.87-109.87-22.63-22.63-160-160a16 16 0 0 0 -22.63 0l-46.42 46.43a38.92 38.92 0 0 0 0 55.14l15.95 16 228.1 228.1 15.95 15.95a39 39 0 0 0 55.14 0l46.43-46.42a16 16 0 0 0 -.02-22.7zm-69 46.42a7 7 0 0 1 -9.89 0l-4.64-4.63-250.78-250.73-4.63-4.64a7 7 0 0 1 0-9.89l35.16-35.11 109.63 109.68.19.2.2.19 49.75 49.77.19.2.2.19 109.68 109.66z"/><path d="m695.18 377.59-11.31 11.32-295 295-11.32 11.31a16 16 0 0 1 -22.43.19l-.2-.19-.19-.2a16 16 0 0 1 .19-22.43l11.32-11.31 295-295 11.31-11.28a16 16 0 0 1 22.43-.19l.2.19.19.2a16 16 0 0 1 -.19 22.39z"/><path d="m645 327.45-11.31 11.32-295 295-11.24 11.23a16 16 0 0 1 -22.43.19l-.2-.19-.19-.2a16 16 0 0 1 .19-22.43l11.32-11.31 295-295 11.31-11.32a16 16 0 0 1 22.43-.19l.2.19.19.2a16 16 0 0 1 -.27 22.51z"/></g></svg>