<svg id="Layer_1-2" viewBox="0 0 64 64" xmlns="http://www.w3.org/2000/svg"><g id="Weight_Scale"><path d="m28 16h8v6h-8z" fill="#f7dac9"/><path d="m17 16c-5.51416016 0-10-4.48583984-10-10v-5h50v5c0 5.51416016-4.48632812 10-10 10z" fill="#f58569"/><path d="m8 58 4.640625-33.41259766c.20458984-1.47509766 1.48242188-2.58740234 2.97167969-2.58740234h32.77539062c1.48925781 0 2.76660156 1.11230469 2.97167969 2.58691406l4.640625 33.41308594z" fill="#ffefde"/><rect fill="#f58569" height="5" rx="1" width="56" x="4" y="58"/><path d="m7 1h50v5h-50z" fill="#db6342"/><circle cx="32" cy="40" fill="#b6d4ff" r="13"/><circle cx="32" cy="40" fill="#95bcf4" r="2"/><g fill="#433d4c"><path d="m59 57h-2.1295166l-4.52087402-32.55029297c-.27246094-1.96679688-1.9765625-3.44970703-3.96191406-3.44970703h-11.38769531v-4h10c6.06542969 0 11-4.93457031 11-11v-5c0-.55224609-.44726562-1-1-1h-50.00000001c-.55224609 0-1 .44775391-1 1v5c0 6.06542969 4.93457031 11 11 11h10v4h-11.38769531c-1.98583984 0-3.68896484 1.48291016-3.96240234 3.44970703l-4.52087402 32.55029297h-2.12902832c-1.10302734 0-2 .89697266-2 2v3c0 1.10302734.89697266 2 2 2h54c1.10253906 0 2-.89697266 2-2v-3c0-1.10302734-.89746094-2-2-2zm-51-55h48v3h-48zm.059021 5h47.88195801c-.49945068 4.49298096-4.31646729 8-8.940979 8h-30c-4.62402344 0-8.44146729-3.50701904-8.940979-8zm20.940979 10h6v4h-6zm-15.36865234 7.72509766c.13623047-.98339844.98828125-1.72509766 1.98095703-1.72509766h32.77539062c.99316406 0 1.84472656.74169922 1.98144531 1.72509766l4.48242188 32.27490234h-45.703125zm-8.63134766 37.27490234v-3h54l.00097656 3z"/><path d="m32 26c-7.71811209 0-14 6.28188791-14 14s6.28188791 14 14 14 14-6.28188791 14-14c0-7.76899637-6.3267039-14-14-14zm11 15h.94934082c-.21252441 2.55761719-1.22613525 4.8883667-2.79467773 6.74060059l-.66931152-.66931152c-.390625-.390625-1.0234375-.390625-1.4140625 0s-.390625 1.0234375 0 1.4140625l.66937256.66937256c-1.85217285 1.56854248-4.18292236 2.58209229-6.74066162 2.7946167v-.94934082c0-.55224609-.44775391-1-1-1s-1 .44775391-1 1v.94934082c-2.55761719-.21252441-4.88830566-1.22613525-6.74053955-2.79473877l.66925049-.66925049c.390625-.390625.390625-1.0234375 0-1.4140625s-1.0234375-.390625-1.4140625 0l-.66925049.66925049c-1.56860352-1.85223389-2.58221436-4.18292236-2.79473877-6.74053955h.94934082c.55224609 0 1-.44775391 1-1s-.44775391-1-1-1h-.94934082c.21252441-2.55761719 1.22613525-4.88830566 2.79473877-6.74053955l.66925049.66925049c.39062532.39062532 1.02343718.39062532 1.4140625 0 .390625-.390625.390625-1.0234375 0-1.4140625l-.66925049-.66925049c1.85223389-1.56860352 4.18292236-2.58221436 6.74053955-2.79473877v.94934082c0 .55224609.44775391 1 1 1s1-.44775391 1-1v-.94934082c2.55773926.21252441 4.88848877 1.22607422 6.74066162 2.7946167l-.66937256.66937256c-.390625.390625-.390625 1.0234375 0 1.4140625.39062532.39062532 1.02343718.39062532 1.4140625 0l.66931152-.66931152c1.56854248 1.85223389 2.58215332 4.1829834 2.79467773 6.74060059h-.94934082c-.55273438 0-1 .44775391-1 1s.44726562 1 1 1z"/><path d="m33 37.18426514v-4.18426514c0-.55224609-.44775391-1-1-1s-1 .44775391-1 1v4.18426514c-1.16149902.41412354-2 1.51379395-2 2.81573486 0 1.65429688 1.34570312 3 3 3s3-1.34570312 3-3c0-1.30194092-.83850098-2.40161133-2-2.81573486zm-1 3.81573486c-.55126953 0-1-.44873047-1-1s.44873047-1 1-1 1 .44873047 1 1-.44873047 1-1 1z"/></g></g></svg>