<svg height="512" viewBox="0 0 64 64" width="512" xmlns="http://www.w3.org/2000/svg"><g id="Weight_Scal" data-name="Weight Scal"><path d="m41 1a3 3 0 0 0 -3 3v5h-12v-5a3 3 0 0 1 3-3h-8a3 3 0 0 0 -3 3v23h28v-23a3 3 0 0 1 3-3z" fill="#ebeeff"/><path d="m29 1a3 3 0 0 0 -3 3v5h6v-5a3 3 0 0 0 -3-3z" fill="#d7dfff"/><path d="m49 1a3 3 0 0 0 -3 3v12h6v-12a3 3 0 0 0 -3-3z" fill="#d7dfff"/><g fill="#d63e3e"><path d="m40 32h5v6h-5z"/><path d="m19 32h5v6h-5z"/><path d="m14 63v-5h11l-3 5z"/><path d="m42 63-3-5h11v5z"/></g><path d="m10.562 58a2 2 0 0 1 -1.941-2.485l4-16a2 2 0 0 1 1.941-1.515h34.876a2 2 0 0 1 1.941 1.515l4 16a2 2 0 0 1 -1.941 2.485z" fill="#f25353"/><path d="m13.123 54 3-12h31.754l3 12z" fill="#d63e3e"/><path d="m13 32a2 2 0 0 1 -2-2v-3h42v3a2 2 0 0 1 -2 2z" fill="#f25353"/><path d="m56.349 55.272-4-16a3 3 0 0 0 -2.91-2.272h-3.439v-4h5a3 3 0 0 0 3-3v-3a1 1 0 0 0 -1-1h-6v-9h5a1 1 0 0 0 1-1v-12a4 4 0 0 0 -4-4h-8a4 4 0 0 0 -4 4v4h-4v-4a4 4 0 0 0 -4-4h-8a4 4 0 0 0 -4 4v22h-6a1 1 0 0 0 -1 1v3a3 3 0 0 0 3 3h5v4h-3.438a3 3 0 0 0 -2.911 2.272l-4 16a3 3 0 0 0 2.911 3.728h2.438v4a1 1 0 0 0 1 1h8a1 1 0 0 0 .857-.485l2.709-4.515h12.868l2.709 4.515a1 1 0 0 0 .857.485h8a1 1 0 0 0 1-1v-4h2.439a3 3 0 0 0 2.91-3.728zm-12.349-18.272h-3v-4h3zm-19 0v-4h14v4zm24-35a2 2 0 0 1 2 2v11h-4v-11a2 2 0 0 1 2-2zm-22 2a2 2 0 0 1 4 0v4h-4zm-8 0a2 2 0 0 1 2-2h4.537a3.97 3.97 0 0 0 -.537 2v5a1 1 0 0 0 1 1h12a1 1 0 0 0 1-1v-5a2 2 0 0 1 2-2h4.537a3.97 3.97 0 0 0 -.537 2v22h-26zm-7 26v-2h40v2a1 1 0 0 1 -1 1h-38a1 1 0 0 1 -1-1zm8 3h3v4h-3zm1.434 29h-6.434v-3h8.234zm27.566 0h-6.434l-1.8-3h8.234zm4.439-5h-42.877a1 1 0 0 1 -.971-1.242l4-16a1 1 0 0 1 .971-.758h34.877a1 1 0 0 1 .97.758l4 16a1 1 0 0 1 -.97 1.242z" fill="#352d34"/><path d="m48.847 41.757a1 1 0 0 0 -.97-.757h-31.754a1 1 0 0 0 -.97.757l-3 12a1 1 0 0 0 .97 1.243h37.754a1 1 0 0 0 .97-1.243zm-34.447 11.243 2.5-10h30.2l2.5 10z" fill="#352d34"/></g></svg>