<svg height="512" viewBox="0 0 128 128" width="512" xmlns="http://www.w3.org/2000/svg"><g><path d="m94.887 47.334 10.952-16.734h-83.678l-10.953 16.734a30 30 0 0 0 -4.9 16.433v57.926h83.678v-57.926a30 30 0 0 1 4.901-16.433z" fill="#fa7578"/><g fill="#feea61"><path d="m48.146 99.548a13.577 13.577 0 0 0 -13.576-13.577 13.577 13.577 0 0 0 13.576 13.577z"/><path d="m48.146 99.548a13.577 13.577 0 0 1 13.577-13.577 13.577 13.577 0 0 1 -13.577 13.577z"/><path d="m48.146 89.6a13.576 13.576 0 0 0 -13.576-13.572 13.576 13.576 0 0 0 13.576 13.572z"/><path d="m48.146 89.6a13.577 13.577 0 0 1 13.577-13.572 13.577 13.577 0 0 1 -13.577 13.572z"/><path d="m48.146 79.66a13.576 13.576 0 0 0 -13.576-13.576 13.576 13.576 0 0 0 13.576 13.576z"/><path d="m48.146 75.1a13.575 13.575 0 0 0 0-19.2 13.577 13.577 0 0 0 0 19.2z"/><path d="m48.146 79.66a13.577 13.577 0 0 1 13.577-13.576 13.577 13.577 0 0 1 -13.577 13.576z"/></g><path d="m71.047 6.307a7.048 7.048 0 0 1 -14.095 0h-34.791v24.293h83.678v-24.293z" fill="#f9545b"/><path d="m121.693 121.693h-31.707v-57.926a30 30 0 0 1 4.9-16.433l10.953-16.734 10.953 16.73a30 30 0 0 1 4.9 16.433z" fill="#f9545b"/><g><path d="m61.723 64.334a15.214 15.214 0 0 0 -7.907 2.222 15.282 15.282 0 0 0 -4.432-11.889 1.749 1.749 0 0 0 -2.475 0 15.282 15.282 0 0 0 -4.432 11.889 15.214 15.214 0 0 0 -7.907-2.222 1.75 1.75 0 0 0 -1.75 1.75 15.219 15.219 0 0 0 2.417 8.227c-.223-.01-.442-.034-.667-.034a1.75 1.75 0 0 0 -1.75 1.75 15.212 15.212 0 0 0 2.418 8.228c-.223-.009-.442-.033-.668-.033a1.75 1.75 0 0 0 -1.75 1.75 15.327 15.327 0 0 0 30.653 0 1.75 1.75 0 0 0 -1.75-1.75c-.226 0-.445.024-.668.033a15.212 15.212 0 0 0 2.418-8.228 1.75 1.75 0 0 0 -1.75-1.75c-.225 0-.444.024-.667.034a15.219 15.219 0 0 0 2.417-8.227 1.75 1.75 0 0 0 -1.75-1.75zm-13.577-5.734a11.853 11.853 0 0 1 0 13.817 11.856 11.856 0 0 1 0-13.817zm.667 22.78c-.237.371-.461.749-.667 1.14-.2-.391-.429-.769-.666-1.14.222.01.441.034.666.034s.444-.028.667-.038zm-12.34 6.5a11.855 11.855 0 0 1 9.771 9.77 11.856 11.856 0 0 1 -9.771-9.775zm0-9.944a11.854 11.854 0 0 1 9.771 9.764 11.854 11.854 0 0 1 -9.771-9.769zm0-9.944a11.856 11.856 0 0 1 9.771 9.77 11.856 11.856 0 0 1 -9.771-9.775zm11.673 24.469c-.2-.392-.43-.77-.667-1.141.223.009.442.033.667.033s.445-.024.668-.033c-.237.371-.462.749-.668 1.141zm1.9 5.184a11.855 11.855 0 0 1 9.771-9.77 11.856 11.856 0 0 1 -9.768 9.77zm0-9.945a11.854 11.854 0 0 1 9.771-9.769 11.854 11.854 0 0 1 -9.768 9.769zm0-9.943a11.856 11.856 0 0 1 9.771-9.77 11.856 11.856 0 0 1 -9.768 9.77z"/><path d="m121.693 86.109a1.751 1.751 0 0 0 -1.75 1.75v4.5a1.75 1.75 0 0 0 3.5 0v-4.5a1.75 1.75 0 0 0 -1.75-1.75z"/><path d="m118.256 46.375-10.666-16.292v-23.776a1.749 1.749 0 0 0 -1.75-1.75h-34.792a1.749 1.749 0 0 0 -1.75 1.75 5.3 5.3 0 0 1 -10.595 0 1.75 1.75 0 0 0 -1.75-1.75h-14.991a1.75 1.75 0 0 0 0 3.5h13.415a8.8 8.8 0 0 0 17.246 0h31.467v20.8h-80.179v-20.8h8.689a1.75 1.75 0 0 0 0-3.5h-10.439a1.749 1.749 0 0 0 -1.75 1.75v23.775l-10.668 16.293a31.681 31.681 0 0 0 -5.186 17.392v57.926a1.75 1.75 0 0 0 1.75 1.75h115.386a1.749 1.749 0 0 0 1.75-1.75v-20.093a1.75 1.75 0 0 0 -3.5 0v18.347h-12.353v-83.474l7.738 11.82a28.164 28.164 0 0 1 4.615 15.474v14.433a1.75 1.75 0 0 0 3.5 0v-14.433a31.671 31.671 0 0 0 -5.187-17.392zm-30.021 17.392v56.176h-80.178v-56.176a28.182 28.182 0 0 1 4.614-15.474l10.436-15.939h79.5l-9.184 14.021a31.671 31.671 0 0 0 -5.188 17.392zm15.855 56.176h-12.355v-56.176a28.173 28.173 0 0 1 4.616-15.474l7.739-11.82z"/></g></g></svg>