<?xml version="1.0" encoding="UTF-8"?>
<svg xmlns="http://www.w3.org/2000/svg" width="512" height="512" viewBox="0 0 128 128"><g><g><g><path d="M88.364,110.746a1.749,1.749,0,0,1-1.75-1.75V19a1.75,1.75,0,0,1,3.5,0V109A1.749,1.749,0,0,1,88.364,110.746Z" fill="#0e49b5"/><path d="M101.952,29.451A13.588,13.588,0,0,0,88.364,43.038v3.015h3.015a13.587,13.587,0,0,0,13.588-13.587V29.451Z" fill="#fc852d"/><path d="M88.364,43.038A13.587,13.587,0,0,0,74.777,29.451H71.762v3.015A13.587,13.587,0,0,0,85.349,46.053h3.015Z" fill="#fecd1a"/><path d="M101.952,46.053A13.589,13.589,0,0,0,88.364,59.641v3.015h3.015a13.587,13.587,0,0,0,13.588-13.587V46.053Z" fill="#fc852d"/><path d="M88.364,59.641A13.588,13.588,0,0,0,74.777,46.053H71.762v3.016A13.587,13.587,0,0,0,85.349,62.656h3.015Z" fill="#fecd1a"/><path d="M101.952,62.656A13.588,13.588,0,0,0,88.364,76.243v3.016h3.015a13.588,13.588,0,0,0,13.588-13.588V62.656Z" fill="#fc852d"/><path d="M88.364,76.243A13.587,13.587,0,0,0,74.777,62.656H71.762v3.015A13.588,13.588,0,0,0,85.349,79.259h3.015Z" fill="#fecd1a"/><path d="M101.952,79.259A13.588,13.588,0,0,0,88.364,92.846v3.015h3.015a13.587,13.587,0,0,0,13.588-13.587V79.259Z" fill="#fc852d"/><path d="M88.364,92.846A13.587,13.587,0,0,0,74.777,79.259H71.762v3.015A13.587,13.587,0,0,0,85.349,95.861h3.015Z" fill="#fecd1a"/><path d="M71.762,31.2a1.751,1.751,0,0,1-1.75-1.75V21.5a1.75,1.75,0,0,1,3.5,0v7.954A1.751,1.751,0,0,1,71.762,31.2Z" fill="#0e49b5"/><path d="M104.967,31.2a1.75,1.75,0,0,1-1.75-1.75V21.5a1.75,1.75,0,0,1,3.5,0v7.954A1.751,1.751,0,0,1,104.967,31.2Z" fill="#0e49b5"/></g><path d="M38.484,110.743a1.751,1.751,0,0,1-1.75-1.75V19a1.75,1.75,0,0,1,3.5,0v89.993A1.75,1.75,0,0,1,38.484,110.743Z" fill="#0e49b5"/><path d="M52.072,29.447A13.589,13.589,0,0,0,38.484,43.035V46.05H41.5A13.587,13.587,0,0,0,55.087,32.462V29.447Z" fill="#fc852d"/><path d="M38.484,43.035A13.588,13.588,0,0,0,24.9,29.447H21.882v3.016A13.587,13.587,0,0,0,35.469,46.05h3.015Z" fill="#fecd1a"/><path d="M52.072,46.05A13.588,13.588,0,0,0,38.484,59.637v3.016H41.5A13.588,13.588,0,0,0,55.087,49.065V46.05Z" fill="#fc852d"/><path d="M38.484,59.637A13.587,13.587,0,0,0,24.9,46.05H21.882v3.015A13.588,13.588,0,0,0,35.469,62.653h3.015Z" fill="#fecd1a"/><path d="M52.072,62.653A13.588,13.588,0,0,0,38.484,76.24v3.015H41.5A13.587,13.587,0,0,0,55.087,65.668V62.653Z" fill="#fc852d"/><path d="M38.484,76.24A13.587,13.587,0,0,0,24.9,62.653H21.882v3.015A13.587,13.587,0,0,0,35.469,79.255h3.015Z" fill="#fecd1a"/><path d="M52.072,79.255A13.588,13.588,0,0,0,38.484,92.842v3.016H41.5A13.588,13.588,0,0,0,55.087,82.27V79.255Z" fill="#fc852d"/><path d="M38.484,92.842A13.587,13.587,0,0,0,24.9,79.255H21.882V82.27A13.588,13.588,0,0,0,35.469,95.858h3.015Z" fill="#fecd1a"/><path d="M21.882,31.2a1.75,1.75,0,0,1-1.75-1.75V21.493a1.75,1.75,0,0,1,3.5,0v7.954A1.75,1.75,0,0,1,21.882,31.2Z" fill="#0e49b5"/><path d="M55.087,31.2a1.75,1.75,0,0,1-1.75-1.75V21.493a1.75,1.75,0,1,1,3.5,0v7.954A1.75,1.75,0,0,1,55.087,31.2Z" fill="#0e49b5"/></g><g><path d="M99.668,90.723c-.24.234-.488.459-.747.672a1.75,1.75,0,1,0,2.23,2.7c.333-.276.656-.566.964-.868a1.749,1.749,0,1,0-2.447-2.5Z" fill="#212f68"/><path d="M104.967,19.743a1.75,1.75,0,0,0-1.75,1.75v6.2h-1.265a15.315,15.315,0,0,0-11.838,5.6V19a1.75,1.75,0,0,0-3.5,0V33.293a15.312,15.312,0,0,0-11.837-5.6H73.512v-6.2a1.75,1.75,0,1,0-3.5,0V32.462a15.311,15.311,0,0,0,5.656,11.883c-.3-.017-.59-.045-.891-.045H71.762a1.749,1.749,0,0,0-1.75,1.75v3.015a15.313,15.313,0,0,0,5.656,11.883c-.3-.018-.59-.046-.891-.046H71.762a1.75,1.75,0,0,0-1.75,1.75v3.015A15.311,15.311,0,0,0,75.668,77.55c-.3-.017-.59-.045-.891-.045H71.762a1.75,1.75,0,0,0-1.75,1.75V82.27A15.355,15.355,0,0,0,85.35,97.607h1.264v11.386a1.75,1.75,0,0,0,3.5,0V97.607H91.38q.624,0,1.236-.048a1.75,1.75,0,0,0-.277-3.49c-.317.026-.637.038-.959.038H90.114V92.842a11.851,11.851,0,0,1,11.838-11.837h1.265V82.27a11.965,11.965,0,0,1-.336,2.815,1.75,1.75,0,0,0,3.4.828,15.406,15.406,0,0,0,.436-3.643V79.255a1.75,1.75,0,0,0-1.75-1.75h-3.015c-.3,0-.595.028-.891.045a15.311,15.311,0,0,0,5.656-11.883V62.652a1.75,1.75,0,0,0-1.75-1.75h-3.015c-.3,0-.595.028-.891.046a15.313,15.313,0,0,0,5.656-11.883V46.05a1.749,1.749,0,0,0-1.75-1.75h-3.015c-.3,0-.595.028-.891.045a15.311,15.311,0,0,0,5.656-11.883V21.493A1.75,1.75,0,0,0,104.967,19.743ZM73.512,32.462V31.2h1.265A11.85,11.85,0,0,1,86.614,43.035V44.3H85.35A11.851,11.851,0,0,1,73.512,32.462ZM85.35,47.8h1.264v2.1a15.416,15.416,0,0,0-2.156-2.141C84.755,47.772,85.049,47.8,85.35,47.8ZM73.512,49.065V47.8h1.265A11.85,11.85,0,0,1,86.614,59.637V60.9H85.35A11.851,11.851,0,0,1,73.512,49.065ZM85.35,64.4h1.264v2.1a15.47,15.47,0,0,0-2.156-2.141C84.755,64.374,85.049,64.4,85.35,64.4ZM73.512,65.667V64.4h1.265A11.85,11.85,0,0,1,86.614,76.24v1.265H85.35A11.851,11.851,0,0,1,73.512,65.667ZM85.35,81.005h1.264v2.1a15.416,15.416,0,0,0-2.156-2.141C84.755,80.977,85.049,81.005,85.35,81.005ZM73.512,82.27V81.005h1.265A11.85,11.85,0,0,1,86.614,92.842v1.265H85.35A11.851,11.851,0,0,1,73.512,82.27Zm16.6.831v-2.1H91.38c.3,0,.594-.028.891-.045A15.478,15.478,0,0,0,90.114,83.1Zm13.1-18.7v1.265A11.851,11.851,0,0,1,91.38,77.505H90.114V76.24A11.851,11.851,0,0,1,101.952,64.4Zm-13.1,2.1V64.4H91.38c.3,0,.594-.028.891-.045A15.43,15.43,0,0,0,90.114,66.5Zm13.1-18.7v1.265A11.85,11.85,0,0,1,91.38,60.9H90.114V59.637A11.851,11.851,0,0,1,101.952,47.8Zm-13.1,2.1V47.8H91.38c.3,0,.594-.028.891-.045A15.478,15.478,0,0,0,90.114,49.9Zm13.1-17.434A11.851,11.851,0,0,1,91.38,44.3H90.114V43.035A11.851,11.851,0,0,1,101.952,31.2h1.265Z" fill="#212f68"/><path d="M55.035,19.743a1.75,1.75,0,0,0-1.75,1.75v6.2H52.019a15.312,15.312,0,0,0-11.837,5.6V19a1.75,1.75,0,0,0-3.5,0V33.294a15.367,15.367,0,0,0-1.213-1.32A1.75,1.75,0,0,0,33.044,34.5a11.741,11.741,0,0,1,3.638,8.538V44.3H35.417A11.851,11.851,0,0,1,23.58,32.462V31.2h1.265a11.957,11.957,0,0,1,1.574.1,1.75,1.75,0,1,0,.462-3.469,15.518,15.518,0,0,0-2.036-.135H23.58v-6.2a1.75,1.75,0,1,0-3.5,0V32.462a15.308,15.308,0,0,0,5.656,11.883c-.3-.017-.59-.045-.891-.045H21.83a1.749,1.749,0,0,0-1.75,1.75v3.015a15.31,15.31,0,0,0,5.656,11.883c-.3-.018-.59-.046-.891-.046H21.83a1.75,1.75,0,0,0-1.75,1.75v3.015A15.308,15.308,0,0,0,25.736,77.55c-.3-.017-.59-.045-.891-.045H21.83a1.75,1.75,0,0,0-1.75,1.75V82.27A15.354,15.354,0,0,0,35.417,97.607h1.265v11.386a1.75,1.75,0,0,0,3.5,0V97.607h1.265A15.355,15.355,0,0,0,56.785,82.27V79.255a1.751,1.751,0,0,0-1.75-1.75H52.019c-.3,0-.594.028-.891.045a15.309,15.309,0,0,0,5.657-11.883V62.652a1.751,1.751,0,0,0-1.75-1.75H52.019c-.3,0-.594.028-.891.046a15.311,15.311,0,0,0,5.657-11.883V46.05a1.75,1.75,0,0,0-1.75-1.75H52.019c-.3,0-.594.028-.891.045a15.309,15.309,0,0,0,5.657-11.883V21.493A1.751,1.751,0,0,0,55.035,19.743ZM35.417,47.8h1.265v2.1a15.47,15.47,0,0,0-2.156-2.141C34.822,47.772,35.116,47.8,35.417,47.8ZM23.58,49.065V47.8h1.265A11.85,11.85,0,0,1,36.682,59.637V60.9H35.417A11.85,11.85,0,0,1,23.58,49.065ZM35.417,64.4h1.265v2.1a15.525,15.525,0,0,0-2.156-2.141C34.822,64.374,35.116,64.4,35.417,64.4ZM23.58,65.667V64.4h1.265A11.851,11.851,0,0,1,36.682,76.24v1.265H35.417A11.851,11.851,0,0,1,23.58,65.667ZM35.417,81.005h1.265v2.1a15.525,15.525,0,0,0-2.156-2.141C34.822,80.977,35.116,81.005,35.417,81.005ZM23.58,82.27V81.005h1.265A11.85,11.85,0,0,1,36.682,92.842v1.265H35.417A11.85,11.85,0,0,1,23.58,82.27Zm29.705-1.265V82.27A11.851,11.851,0,0,1,41.447,94.107H40.182V92.842A11.85,11.85,0,0,1,52.019,81.005Zm-13.1,2.1v-2.1h1.265c.3,0,.595-.028.891-.045A15.525,15.525,0,0,0,40.182,83.1Zm13.1-18.7v1.265A11.851,11.851,0,0,1,41.447,77.505H40.182V76.24A11.851,11.851,0,0,1,52.019,64.4Zm-13.1,2.1V64.4h1.265c.3,0,.595-.028.891-.045A15.525,15.525,0,0,0,40.182,66.5Zm13.1-18.7v1.265A11.851,11.851,0,0,1,41.447,60.9H40.182V59.637A11.85,11.85,0,0,1,52.019,47.8Zm-13.1,2.1V47.8h1.265c.3,0,.595-.028.891-.045A15.47,15.47,0,0,0,40.182,49.9Zm13.1-17.434A11.851,11.851,0,0,1,41.447,44.3H40.182V43.035A11.851,11.851,0,0,1,52.019,31.2h1.266Z" fill="#212f68"/></g></g></svg>
