<svg id="Capa_1" enable-background="new 0 0 512.312 512.312" height="512" viewBox="0 0 512.312 512.312" width="512" xmlns="http://www.w3.org/2000/svg"><g><g><path d="m143.562 135.803-56.462 24.806-59.08-97.663 38.572-23.334z" fill="#df8a57"/></g><g><path d="m118.21 50.593c0 13.807-11.193 25-25 25h-60.71c-13.807 0-25-11.193-25-25 0-13.808 11.193-25 25-25h60.71c13.808 0 25 11.192 25 25z" fill="#c1cff2"/></g><g><path d="m81.64 447.168c-7.969-7.969-8.637-20.668-1.547-29.428l48.577-60.028 42.426 42.426-60.028 48.577c-8.76 7.09-21.459 6.422-29.428-1.547z" fill="#d97c41"/></g><g><path d="m52.5 50.593c0-13.808 11.193-25 25-25h-45c-13.807 0-25 11.192-25 25 0 13.807 11.193 25 25 25h45c-13.807 0-25-11.193-25-25z" fill="#adc0ed"/></g><g><path d="m91.221 133.417s46.67-61.41 46.806-61.588c11.826-15.505 29.595-22.55 48.05-20.16 14.504 1.878 27.069 10.479 40.873 14.898 19.46 6.229 38.437-2.696 55.421-12.337 18.128-10.291 36.262-20.303 56.873-23.434 23.168-3.519 42.838 10.638 60.69 24.376 19.363 14.902 38.343 30.792 54.069 50.101 3.781 4.642 7.3 9.533 10.39 14.732 2.4 4.037 6.666 10.204 8.973 13.413.044.001.052 0 .023-.002-3.655 0-7.309 0-10.964 0-8.929 0-17.857 0-26.785 0-13.997 0-27.993 0-41.989 0-16.689 0-33.376 0-50.065 0-18.253 0-36.506 0-54.76 0-18.46 0-36.918 0-55.378 0-17.124 0-34.248 0-51.373 0-14.797 0-29.593 0-44.39 0-10.315 0-20.629 0-30.944 0-4.575 0-9.15 0-13.725 0-.598.001-1.196.001-1.795.001z" fill="#fff1cf"/></g><g><g><path d="m227.435 66.711c-.162-.05-.323-.092-.484-.144-13.804-4.419-26.37-13.021-40.873-14.898-18.455-2.39-36.224 4.655-48.05 20.16-.136.178-46.806 61.588-46.806 61.588h1.796 13.725 30.944 38.516s46.67-61.41 46.806-61.588c1.393-1.828 2.876-3.527 4.426-5.118z" fill="#ffeab7"/></g><g><path d="m473.366 133.419c.044.001.052 0 .023-.002-.009 0-.017 0-.024 0 0 .001 0 .001.001.002z" fill="#ffeab7"/></g></g><g><path d="m470.299 202.481h-390.306c-19.061 0-34.514-15.452-34.514-34.514 0-19.061 15.452-34.514 34.514-34.514h390.306c19.061 0 34.514 15.452 34.514 34.514-.001 19.062-15.453 34.514-34.514 34.514z" fill="#df8a57"/></g><g><path d="m124.452 167.967c0-19.061 15.452-34.513 34.514-34.513h-78.973c-19.061 0-34.514 15.452-34.514 34.513 0 19.061 15.452 34.514 34.514 34.514h78.973c-19.061 0-34.514-15.453-34.514-34.514z" fill="#d97c41"/></g><g><path d="m74.406 196.092 49.632 183.808c3.9 14.447 16.021 23.646 28.972 23.186.252.009.503.021.756.021h242.759c.253 0 .504-.013.756-.021 12.951.46 25.072-8.738 28.972-23.186l49.632-183.808z" fill="#e4996d"/></g><g><path d="m184.038 379.9-49.632-183.808h-60l49.632 183.808c3.9 14.447 16.021 23.646 28.972 23.186.252.009.503.021.756.021h60c-.253 0-.504-.013-.756-.021-12.951.46-25.072-8.738-28.972-23.186z" fill="#df8a57"/></g><g><g><path d="m219.327 293.208c0 14.357-14.612 25.991-32.64 25.991-18.026 0-32.64-11.634-32.64-25.991 0-14.354 14.614-25.991 32.64-25.991 18.029 0 32.64 11.637 32.64 25.991" fill="#fff"/></g><g><path d="m330.966 293.208c0 14.357 14.611 25.991 32.638 25.991 18.026 0 32.64-11.634 32.64-25.991 0-14.354-14.613-25.991-32.64-25.991s-32.638 11.637-32.638 25.991" fill="#fff"/></g><g><path d="m292.474 273.236c0-10.706-7.76-19.386-17.328-19.386s-17.326 8.68-17.326 19.386c0 10.708 7.758 19.392 17.326 19.392s17.328-8.684 17.328-19.392" fill="#495560"/></g><g><path d="m275.146 300.128c-13.689 0-24.826-12.063-24.826-26.892 0-14.825 11.137-26.886 24.826-26.886 13.69 0 24.828 12.061 24.828 26.886 0 14.828-11.138 26.892-24.828 26.892zm0-38.777c-5.418 0-9.826 5.332-9.826 11.886 0 6.557 4.408 11.892 9.826 11.892 5.419 0 9.828-5.335 9.828-11.892 0-6.554-4.41-11.886-9.828-11.886z"/></g><g><path d="m224.137 269.14c-4.142 0-7.5-3.357-7.5-7.5 0-3.873-3.15-7.023-7.022-7.023-3.873 0-7.023 3.15-7.023 7.023 0 4.143-3.358 7.5-7.5 7.5s-7.5-3.357-7.5-7.5c0-12.144 9.88-22.023 22.023-22.023s22.022 9.88 22.022 22.023c0 4.142-3.358 7.5-7.5 7.5z"/></g><g><path d="m353.948 269.14c-4.143 0-7.5-3.357-7.5-7.5 0-3.873-3.15-7.023-7.022-7.023s-7.021 3.15-7.021 7.023c0 4.143-3.357 7.5-7.5 7.5s-7.5-3.357-7.5-7.5c0-12.144 9.879-22.023 22.021-22.023 12.144 0 22.022 9.88 22.022 22.023 0 4.142-3.357 7.5-7.5 7.5z"/></g></g><g><ellipse cx="371.82" cy="413.999" fill="#9c9c9c" rx="72.72" ry="72.72" transform="matrix(.707 -.707 .707 .707 -183.838 384.174)"/></g><g><path d="m371.819 341.279c-40.162 0-72.719 32.558-72.719 72.721 0 40.162 32.558 72.72 72.719 72.72-13.386 0-24.239-10.853-24.239-24.241 0-13.386 10.853-24.239 24.239-24.239v-48.48c-13.387 0-24.239-10.853-24.239-24.241 0-13.387 10.852-24.24 24.239-24.24z" fill="#858586"/></g><g><path d="m396.06 414c0 13.386-10.853 24.239-24.239 24.239-13.388 0-24.241-10.853-24.241-24.239 0-13.388 10.853-24.241 24.241-24.241 13.386 0 24.239 10.853 24.239 24.241z" fill="#c6c6c6"/></g><g><path d="m389.222 424.932c-13.388 0-24.241-10.853-24.241-24.239 0-3.772.887-7.329 2.424-10.513-11.277 2.078-19.825 11.942-19.825 23.82 0 13.386 10.853 24.239 24.241 24.239 9.615 0 17.897-5.613 21.816-13.728-1.434.265-2.905.421-4.415.421z" fill="#b7b7b7"/></g><g><path d="m371.82 382.259c-17.502 0-31.74 14.239-31.74 31.741 0 17.501 14.238 31.739 31.74 31.739 17.501 0 31.739-14.238 31.739-31.739.001-17.502-14.238-31.741-31.739-31.741zm0 48.48c-9.23 0-16.74-7.509-16.74-16.739 0-9.231 7.51-16.741 16.74-16.741s16.739 7.51 16.739 16.741c.001 9.23-7.508 16.739-16.739 16.739z"/><circle cx="171.562" cy="92.315" r="7.5"/><circle cx="303.062" cy="100.111" r="7.5"/><circle cx="350.963" cy="70.538" r="7.5"/><path d="m512.312 167.967c0-20.623-14.941-37.81-34.564-41.338-2.26-3.231-5.169-7.53-6.908-10.455-3.116-5.242-6.721-10.357-11.021-15.637-16.811-20.639-37.394-37.519-55.311-51.308-16.457-12.665-39.006-30.007-66.39-25.848-22.662 3.442-42.206 14.537-59.449 24.326-15.01 8.52-32.448 17.15-49.433 11.717-4.894-1.567-9.677-3.729-14.741-6.02-8.562-3.871-17.417-7.874-27.456-9.174-21.626-2.803-41.667 5.601-54.966 23.035-.06.079-7.459 9.814-16.44 21.631l-7.543-9.427c10.453-5.409 17.619-16.319 17.619-28.878 0-17.921-14.58-32.5-32.5-32.5h-60.709c-17.92 0-32.5 14.579-32.5 32.5 0 17.561 14.001 31.903 31.425 32.473l28.908 47.787c-13.285 7.065-22.355 21.048-22.355 37.115 0 19.746 13.697 36.344 32.086 40.818l42.401 157.029-38.203 47.208c-9.531 11.777-8.639 28.736 2.074 39.448 5.749 5.749 13.295 8.67 20.875 8.67 6.545 0 13.117-2.179 18.574-6.595l54.296-43.938h121.604c-.047 1.126-.086 2.255-.086 3.393 0 44.233 35.986 80.22 80.22 80.22s80.221-35.986 80.221-80.219c0-17.216-5.469-33.169-14.737-46.251l42.922-158.964c18.39-4.473 32.087-21.072 32.087-40.818zm-368.321-91.589c9.968-13.069 24.955-19.359 41.124-17.271 7.822 1.014 15.292 4.391 23.202 7.967 5.228 2.363 10.633 4.808 16.348 6.637 21.679 6.941 42.328-2.125 61.41-12.957 16.113-9.147 34.377-19.516 54.297-22.541 19.489-2.961 36.431 8.622 54.989 22.904 17.234 13.264 36.988 29.445 52.829 48.895 3.83 4.701 7.021 9.225 9.758 13.828.395.664.835 1.377 1.3 2.115h-352.935c13.529-17.803 37.372-49.176 37.678-49.577zm-128.991-25.785c0-9.649 7.851-17.5 17.5-17.5h60.71c9.649 0 17.5 7.851 17.5 17.5s-7.851 17.5-17.5 17.5h-60.71c-9.649 0-17.5-7.851-17.5-17.5zm33.972 32.5h42.807l14.498 18.118c-7.441 9.791-14.66 19.291-18.804 24.743h-7.48c-1.663 0-3.3.108-4.912.297zm4.007 84.874c0-14.895 12.118-27.013 27.014-27.013h390.306c14.896 0 27.014 12.118 27.014 27.013 0 14.896-12.118 27.014-27.014 27.014h-390.306c-14.896-.001-27.014-12.119-27.014-27.014zm53.372 274.919c-5.793 4.688-14.137 4.249-19.407-1.021s-5.709-13.612-1.021-19.406l31.404-38.807c4.523 14.26 15.969 24.407 29.431 26.535zm47.415-47.279c-.097 0-.193-.006-.289-.01l-.206-.007c-.175-.006-.351-.006-.527 0-9.771.333-18.567-6.91-21.465-17.646l-45.354-167.964h378.442l-38.98 144.365c-14.214-12.777-32.996-20.567-53.567-20.567-37.904 0-69.729 26.434-78.068 61.829zm218.053 83.613c-35.962 0-65.22-29.258-65.22-65.22 0-35.963 29.258-65.222 65.22-65.222 35.963 0 65.221 29.259 65.221 65.222 0 35.962-29.258 65.22-65.221 65.22z"/></g></g></svg>