<svg height="512" viewBox="0 0 128 128" width="512" xmlns="http://www.w3.org/2000/svg"><g><path d="m71.3 54.8h-14.6v-41.193a7.3 7.3 0 0 1 7.3-7.3 7.3 7.3 0 0 1 7.3 7.3z" fill="#80e2ff"/><path d="m56.7 45.795h14.599v9.001h-14.599z" fill="#55c2e3"/><g><path d="m71.3 21.56a1.75 1.75 0 0 0 -1.75 1.75v4.5a1.75 1.75 0 0 0 3.5 0v-4.5a1.751 1.751 0 0 0 -1.75-1.75z"/><path d="m85.7 96.881c-2.131-16.865-16.351-27.749-19.95-30.255v-10.08h5.55a1.75 1.75 0 0 0 1.75-1.75v-17.749a1.75 1.75 0 0 0 -3.5 0v7h-11.1v-30.441a5.55 5.55 0 0 1 11.1 0 1.75 1.75 0 0 0 3.5 0 9.05 9.05 0 0 0 -18.1 0v41.194a1.75 1.75 0 0 0 1.75 1.75h5.55v10.078a55.768 55.768 0 0 0 -12.05 11.712 1.75 1.75 0 0 0 2.8 2.1 51.832 51.832 0 0 1 6.786-7.351 84.033 84.033 0 0 0 -4.433 23.932c-.434 9.942.651 17.608 3.072 22.118a17.987 17.987 0 0 1 -8.551-5.237c-3.545-4.021-4.963-9.757-4.1-16.586a32.333 32.333 0 0 1 2.787-9.53 1.75 1.75 0 0 0 -3.175-1.471 35.85 35.85 0 0 0 -3.086 10.566c-.992 7.854.719 14.541 4.948 19.339a23.038 23.038 0 0 0 33.5 0c4.233-4.798 5.944-11.485 4.952-19.339zm-27.25-49.336h11.1v5.5h-11.1zm4.231 71.633c-1.076-1.123-4.529-6.029-3.832-22a79.088 79.088 0 0 1 5.151-25.326 79.1 79.1 0 0 1 5.151 25.325c.7 15.972-2.757 20.878-3.832 22a1.52 1.52 0 0 1 -2.638 0zm15.446-5.273a17.987 17.987 0 0 1 -8.551 5.237c2.421-4.51 3.506-12.176 3.072-22.118a84.057 84.057 0 0 0 -4.43-23.924c5.182 4.663 12.606 13.115 14.009 24.22.863 6.828-.555 12.564-4.1 16.585z"/></g></g></svg>