<svg clip-rule="evenodd" fill-rule="evenodd" height="1.707in" image-rendering="optimizeQuality" shape-rendering="geometricPrecision" text-rendering="geometricPrecision" viewBox="0 0 1.70666 1.70666" width="1.707in" xmlns="http://www.w3.org/2000/svg"><g id="Layer_x0020_1"><path d="m1.08146 1.14256h-.0457205v.0457205c0 .0110276-.00896063.02-.02.02-.0110394 0-.02-.00897244-.02-.02v-.0457205h-.0457362c-.0110394 0-.02-.00897244-.02-.02 0-.0110276.00897244-.02.02-.02h.0457362v-.0457205c0-.0110394.00897244-.02.02-.02.0110315 0 .02.00897244.02.02v.0457205h.0457205c.0110394 0 .02.00897244.02.02 0 .0110276-.00896063.02-.02.02zm.340661.564091h-1.13757c-.130134 0-.236012-.105886-.236012-.236024v-.72274c0-.13015.10587-.23602.236012-.23602h.148992v-.0847835c0-.0110394.00896063-.02.02-.02h.167039l.15215-.214799c-.0200709-.0204173-.0324724-.0483898-.0324724-.0792126 0-.0623425.0507244-.113067.113067-.113067.0623465 0 .113083.0507244.113083.113067 0 .0308189-.0123937.0587913-.0324567.0792047l.152161.214807h.167012c.0110394 0 .02.00896063.02.02v.0847756h.148984c.130134 0 .236024.10589.236024.236024v.72274c.00001575.130142-.105874.236028-.236008.236028zm-1.13757-1.15479c-.108083 0-.196016.0879409-.196016.196024v.72274c0 .108083.0879331.196012.196016.196012h1.13756c.108083 0 .196016-.0879291.196016-.196012v-.722736c0-.108098-.0879331-.196024-.196016-.196024l-1.13756-.00000394zm1.17194 1.07072h-1.2063c-.0648189 0-.117567-.052748-.117567-.117583v-.0519409-.739531c0-.0648346.0527323-.117571.117567-.117571h1.2063c.0648346 0 .117583.0527362.117583.117571v.791472c-.00000394.0648346-.052752.117583-.117583.117583zm-1.2063-.986642c-.0427756 0-.0775709.0348031-.0775709.0775709v.719547h.0641378v-.0643465c0-.0110394.00896063-.02.02-.02l.310957-.00000394c.0110354 0 .0199961.0089685.0199961.02v.0643504h.94635v-.719531c0-.0427795-.0347953-.0775709-.0775709-.0775709h-1.2063v-.00001575zm-.0775709.837118v.0319252c0 .0427756.0347953.0775669.0775709.0775669h1.2063c.0427756 0 .0775709-.0347913.0775709-.0775669v-.0319252h-.966346-.310957-.0841378zm.300925-.961201h.759583v-.0647756h-.157079c-.00005512 0-.00016535.00001575-.00027559 0h-.444854-.157374v.0647756zm.322874-.353008.0406063-.0573307c.00751181-.0105827.0251535-.0105827.0326417 0l.0405945.0573071c.0100906-.0125315.0161378-.0284449.0161378-.045748 0-.0402953-.0327598-.0730709-.0730709-.0730709-.0402913 0-.0730669.0327756-.0730669.0730709 0 .017315.00605512.0332362.0161575.0457717zm-.126819.248232h.367492l-.135752-.19165c-.0145827.00686614-.0308543.0107087-.0480118.0107087-.0171457 0-.0334094-.00384252-.0479843-.0107047l-.135744.191646zm.208047-.225102-.0243031-.034311-.0243071.0343189c.0076063.00268898.0157795.00415748.0242913.00415748.00852362 0 .0167087-.00147244.0243189-.00416535zm-.60089 1.25106h.270957v-.0443346h-.270957zm.190984-.136303c-.00640551 0-.0125-.00308268-.0162953-.00840551l-.131677-.185051c-.00640551-.00900394-.00430315-.0214843.00469291-.0278898.00901181-.00642913.0214843-.00430315.0278898.00469291l.107012.15037.120732-.453563c.00233465-.00874803.0102598-.0148425.0193307-.0148425h.718909c.0110394 0 .02.00896063.02.02 0 .0110394-.00897244.02-.02.02h-.703543l-.12772.479823c-.002.0075-.00813386.0131535-.0157638.0145394-.00119685.00021654-.00238583.00032677-.00356693.00032677zm.227122-.239921c.00097244-.00248819.0024685-.0048189.00448425-.00683071l.112579-.112583-.0984409.00000787c-.0110394 0-.02-.00897244-.02-.02 0-.0110315.00896063-.02.02-.02h.146736c.00808268 0 .015374.00488583.0184724.0123622.00311417.0074685.00138976.0160669-.00433465.0217874l-.112594.112583h.0250827c.0514843 0 .093374.0418898.093374.093374v.00892913c0 .0514724-.0418898.0933465-.093374.0933465h-.073374c-.0110394 0-.02-.0089685-.02-.02 0-.0110276.00896063-.02.02-.02h.073374c.0294331 0 .0533583-.0239409.0533583-.0533583v-.00892913c0-.0294173-.0239331-.0533583-.0533583-.0533583l-.073122-.00000394h-.00024016-.00001181-.00022835l-.00024016-.00000394-.00004724-.00000394-.00019291-.00000394-.00024016-.00001181-.00007874-.00000394-.00016142-.00000787-.00024016-.00001575-.00011024-.00000787-.00012992-.00001181-.00023622-.00001968-.00024016-.00002756-.00024016-.00002362-.00016142-.00001968-.0000748-.00001181-.00024016-.0000315-.0001811-.00002756-.00005512-.00001181-.00024016-.00003543-.00047244-.00008661-.00021654-.00003937-.00001968-.00000787-.00023622-.00005118c-.00087402-.00018898-.00172441-.00043701-.00255118-.00074016l-.00003937-.00001181-.00018898-.0000748-.00022835-.00008661-.00003937-.00001181-.00018504-.00007874c-.00045669-.00018504-.00090158-.00038583-.00133858-.00060236l-.00021654-.00011024c-.00036614-.00018504-.00072441-.00038583-.00107874-.00059449l-.0002126-.00012598h-.00000394l-.00020866-.00012992c-.00565748-.0035315-.0094252-.0098189-.0094252-.0169685 0-.00181496.00024803-.0035748.00070079-.00524409l.00005906-.00022441.00007087-.00024409.00007087-.00022835.0000748-.00023228.0000748-.00023622.00007874-.00022441.00008268-.00023622.00008268-.00022047.00009449-.00023622zm.623461.182976h-.155122c-.00766929 0-.0146654-.00437008-.018-.0112913-.00333071-.00691732-.00244488-.0150945.00230709-.021122l.00870866-.0108858c.122622-.152386.134484-.213358.122843-.237693-.00847244-.0176969-.037248-.0214016-.0599016-.0214016-.0332717 0-.0613898.0384882-.0613898.0840551 0 .0110394-.0089685.02-.02.02-.0110276 0-.0199961-.0089685-.0199961-.02 0-.0684016.0454843-.124067.101398-.124067.0496535 0 .0819409.0148465.0959724.0441378.0298307.0623346-.0394016.16765-.110429.25826l.113622-.00000787c.0110394 0 .02.00897244.02.02 0 .0110315-.00897244.0200157-.0200118.0200157z" fill="#000002"/><path d="m.473535.511862h.759583v-.0647756h-.157079c-.00005512 0-.00016535.00001575-.00027559 0h-.444854-.157374v.0647756z" fill="#a85724"/><g fill="#d77f4a"><path d="m.796409.158854.0406063-.0573307c.00751181-.0105827.0251535-.0105827.0326417 0l.0405945.0573071c.0100906-.0125315.0161378-.0284449.0161378-.045748 0-.0402953-.0327598-.0730709-.0730709-.0730709-.0402913 0-.0730669.0327756-.0730669.0730709 0 .017315.00605512.0332362.0161575.0457717z"/><path d="m.853335.147673-.0243071.0343189c.0076063.00268898.0157795.00415748.0242913.00415748.00852362 0 .0167087-.00147244.0243189-.00416535l-.0243031-.034311z"/><path d="m1.4221.551866-1.13756-.00000394c-.108083 0-.196016.0879409-.196016.196024v.72274c0 .108083.0879331.196012.196016.196012h1.13756c.108083 0 .196016-.0879291.196016-.196012v-.722736c0-.108098-.0879331-.196024-.196016-.196024zm-1.17192.0440945h1.2063c.0648346 0 .117583.0527362.117583.117571v.791472c-.00000394.0648346-.052752.117583-.117583.117583h-1.2063c-.0648189 0-.117567-.052748-.117567-.117583v-.0519409-.739531c0-.0648346.0527323-.117571.117567-.117571z"/></g><path d="m.567705 1.47306h-.310957-.0841378v.0319252c0 .0427756.0347953.0775669.0775709.0775669h1.2063c.0427756 0 .0775709-.0347913.0775709-.0775669v-.0319252h-.966346z" fill="#fff"/><path d="m.587701 1.368713v.0643504h.94635v-.719531c0-.0427795-.0347953-.0775709-.0775709-.0775709l-1.2063-.00001575c-.0427756 0-.0775709.0348031-.0775709.0775709v.719547h.0641378v-.0643465c0-.0110394.00896063-.02.02-.02l.310957-.00000394c.0110354 0 .0199961.0089685.0199961.02zm.428035-.160429c-.0110394 0-.02-.00897244-.02-.02v-.0457205h-.0457362c-.0110394 0-.02-.00897244-.02-.02 0-.0110276.00897244-.02.02-.02h.0457362v-.0457205c0-.0110394.00897244-.02.02-.02.0110315 0 .02.00897244.02.02v.0457205h.0457205c.0110394 0 .02.00897244.02.02 0 .0110276-.00896063.02-.02.02h-.0457205v.0457205c0 .0110276-.00896063.02-.02.02zm-.548004.0884606c-.00640551 0-.0125-.00308268-.0162953-.00840551l-.131677-.185051c-.00640551-.00900394-.00430315-.0214843.00469291-.0278898.00901181-.00642913.0214843-.00430315.0278898.00469291l.107012.15037.120732-.453563c.00233465-.00874803.0102598-.0148425.0193307-.0148425h.718909c.0110394 0 .02.00896063.02.02 0 .0110394-.00897244.02-.02.02h-.703543l-.12772.479823c-.002.0075-.00813386.0131535-.0157638.0145394-.00119685.00021654-.00238583.00032677-.00356693.00032677zm.31910631-.05694457h-.073374c-.0110394 0-.02-.0089685-.02-.02 0-.0110276.00896063-.02.02-.02h.073374c.0294331 0 .0533583-.0239409.0533583-.0533583v-.00892913c0-.0294173-.0239331-.0533583-.0533583-.0533583l-.073122-.00000394h-.00025197-.00022835l-.00024016-.00000394-.00004724-.00000394-.00019291-.00000394-.00024016-.00001181-.00007874-.00000394-.00016142-.00000787-.00024016-.00001575-.00011024-.00000787-.00012992-.00001181-.00023622-.00001968-.00024016-.00002756-.00024016-.00002362-.00016142-.00001968-.0000748-.00001181-.00024016-.0000315-.0001811-.00002756-.00005512-.00001181-.00024016-.00003543-.00047244-.00008661-.00023622-.00004724-.00023622-.00005118c-.00087402-.00018898-.00172441-.00043701-.00259055-.00075197l-.00018898-.0000748-.00026772-.00009843-.00018504-.00007874-.00133858-.00060236-.00021654-.00011024-.00107874-.00059449-.00021654-.00012598-.00020866-.00012992c-.00565748-.0035315-.0094252-.0098189-.0094252-.0169685 0-.00181496.00024803-.0035748.00070079-.00524409l.00005906-.00022441.00007087-.00024409.00007087-.00022835.0000748-.00023228.0000748-.00023622.00007874-.00022441.00008268-.00023622.00008268-.00022047.00009449-.00023622c.00097244-.00248819.0024685-.0048189.00448425-.00683071l.112579-.112583-.0984409.00000787c-.0110394 0-.02-.00897244-.02-.02 0-.0110315.00896063-.02.02-.02h.146736c.00808268 0 .015374.00488583.0184724.0123622.00311417.0074685.00138976.0160669-.00433465.0217874l-.112594.112583h.0250827c.0514843 0 .093374.0418898.093374.093374v.00892913c0 .0514724-.0418898.0933465-.093374.0933465zm.531476 0h-.155122c-.00766929 0-.0146654-.00437008-.018-.0112913-.00333071-.00691732-.00244488-.0150945.00230709-.021122l.00870866-.0108858c.122622-.152386.134484-.213358.122843-.237693-.00847244-.0176969-.037248-.0214016-.0599016-.0214016-.0332717 0-.0613898.0384882-.0613898.0840551 0 .0110394-.0089685.02-.02.02-.0110276 0-.0199961-.0089685-.0199961-.02 0-.0684016.0454843-.124067.101398-.124067.0496535 0 .0819409.0148465.0959724.0441378.0298307.0623346-.0394016.16765-.110429.25826l.113622-.00000787c.0110394 0 .02.00897244.02.02 0 .0110315-.00897244.0200157-.0200118.0200157z" fill="#fff"/><path d="m.547705 1.43305v-.04434h-.270957v.04434z" fill="#54b582"/></g></svg>