<svg id="Fill" viewBox="0 0 64 64" xmlns="http://www.w3.org/2000/svg"><g><path d="m43.794 53.31c-1.67 1.86-3.3 1.68-3.3 1.68s-1.12-4.18-.39-8.21c.15-.83.38-1.66.72-2.44 1.96-4.58 2.94-15.93 2.94-15.93-10.54-.77-15.8-6.99-15.8-6.99.16-.78.3-1.61.5-2.49.9-4 3.59-9.48 3.59-9.48 11.77-3.1 16.01 10.9 16.47 15.69s4.53 14.54 4.53 14.54c1.71 13.45-9.23 13.66-9.23 13.66z" fill="#ffe09f"/><path d="m43.764 28.41s-.98 11.35-2.94 15.93c-.34.78-.57 1.61-.72 2.44-4.34-1.74-10.72-1.88-15.22-.35-.09-1.27-.3-2.43-.67-3.32-1.31-3.1-2.89-14.78-2.89-14.78 5.13-1.91 6.06-4.13 6.64-6.91 0 0 5.26 6.22 15.8 6.99z" fill="#9a959d"/><path d="m21.324 54.13c-9.32-.3-12.8-11.26-9.12-20.25 1.51-3.69 3.68-13.89 3.68-13.89 3.02-14.21 16.17-10.54 16.17-10.54s-2.69 5.48-3.59 9.48c-.2.88-.34 1.71-.5 2.49-.58 2.78-1.51 5-6.64 6.91 0 0 1.58 11.68 2.89 14.78.37.89.58 2.05.67 3.32.23 3.19-.26 7.01-.67 8.53 0 0-1.37.26-2.89-.83z" fill="#ffe09f"/></g><path d="m54.047 39.554c-.012-.089-.035-.177-.069-.259-.04-.097-4.018-9.667-4.458-14.251-.273-2.854-2.212-11.115-7.815-15.021-2.795-1.948-6.034-2.477-9.632-1.598-1.173-.279-6.333-1.276-10.87 1.473-3.194 1.936-5.313 5.261-6.296 9.885-.021.101-2.169 10.154-3.628 13.719-2.301 5.623-1.95 12.091.894 16.479 2.02 3.115 5.146 4.931 8.825 5.136 1.141.734 2.193.872 2.821.872.315 0 .523-.035.582-.046.376-.071.679-.352.779-.722.393-1.455.855-4.879.739-8.043 3.989-1.151 9.215-1.035 13.073.282-.484 3.906.492 7.622.537 7.79.106.398.446.69.856.735.035.004.117.011.238.011.58 0 2.054-.184 3.573-1.677 1.129-.094 4.748-.627 7.345-3.633 2.268-2.625 3.111-6.37 2.506-11.132zm-30.629 14.401c-.39-.061-.928-.223-1.502-.631-.007-.006-.015-.012-.022-.017-1.617-1.161-3.539-4.249-3.539-12.367 0-.553-.447-1-1-1s-1 .447-1 1c0 5.268.787 9.201 2.344 11.748-2.416-.769-3.938-2.392-4.848-3.796-2.499-3.855-2.781-9.6-.721-14.634 1.525-3.729 3.644-13.641 3.733-14.061.861-4.055 2.665-6.942 5.36-8.581 3.057-1.857 6.582-1.688 8.379-1.431-.852 1.857-2.444 5.548-3.114 8.522-.127.563-.231 1.107-.332 1.632-.058.299-.113.592-.171.875-.521 2.501-1.257 4.407-6.01 6.177-.438.163-.705.608-.643 1.071.065.482 1.613 11.849 2.958 15.03.301.726.508 1.765.597 3.007.186 2.588-.121 5.683-.47 7.454zm2.333-8.805c-.134-.943-.338-1.761-.616-2.429-1.053-2.493-2.334-11.104-2.711-13.748 3.946-1.627 5.366-3.573 6.067-5.638 2.107 1.861 6.802 5.185 14.182 5.979-.287 2.839-1.224 11.021-2.766 14.625-.208.479-.376 1.002-.523 1.544-4.07-1.316-9.422-1.444-13.633-.334zm24.292 4.21c-1.257 1.464-2.855 2.207-4.121 2.586 1.345-2.55 2.138-6.216 2.352-10.961.024-.552-.402-1.02-.954-1.044-.533-.033-1.019.402-1.044.954-.32 7.125-1.929 10.318-3.226 11.746-.677.754-1.32 1.089-1.777 1.238-.268-1.377-.676-4.211-.184-6.923.146-.814.366-1.561.654-2.224 2.001-4.674 2.978-15.768 3.018-16.237.023-.267-.062-.531-.235-.734-.173-.204-.421-.329-.688-.349-8.583-.628-13.551-5.056-14.793-6.306.025-.13.051-.257.077-.39.096-.503.195-1.025.318-1.567.723-3.211 2.673-7.484 3.306-8.827 2.934-.668 5.563-.228 7.815 1.34 4.423 3.084 6.622 9.961 6.969 13.572.445 4.64 4.046 13.483 4.55 14.702.498 4.1-.187 7.269-2.036 9.423z"/></svg>