<svg id="Layer_1" viewBox="0 0 1000 1000" xmlns="http://www.w3.org/2000/svg" data-name="Layer 1"><g fill="#546e7a"><path d="m845.52 196.05c0 10.21-19.8 32.74-94 52.45-67 17.8-156.3 27.6-251.52 27.6s-184.54-9.8-251.52-27.6c-74.2-19.71-94-42.24-94-52.45s19.8-32.74 94-52.45c67-17.8 156.3-27.6 251.52-27.6s184.54 9.8 251.52 27.6c74.2 19.71 94 42.24 94 52.45z"/><path d="m812.17 292.09c0 8.19-14.33 22.83-54.71 37.15-60.11 21.32-156.36 34.05-257.46 34.05s-197.36-12.73-257.47-34.05c-40.37-14.32-54.69-29-54.69-37.15 0-4.88 5.68-13 21.13-22.09q14.5 5 31.29 9.43c69.58 18.49 161.83 28.67 259.74 28.67s190.16-10.18 259.74-28.67q16.77-4.43 31.26-9.43c15.49 9.08 21.17 17.21 21.17 22.09z"/><path d="m770.81 379.29c0 8.56-11.78 22.63-44.84 36.44-52 21.75-136.48 34.74-226 34.74s-173.94-13-226-34.73c-33-13.82-44.83-27.89-44.83-36.45 0-5.08 3.82-11 10.91-17.07 64.25 21.06 158.23 33.07 259.9 33.07s195.64-12 259.89-33.07c7.16 6.06 10.97 11.99 10.97 17.07z"/><path d="m684.1 715.26c0 6.48-9.46 17.91-36.09 28.89-.3.11-.6.23-.89.36-36.31 14.75-89.91 23.22-147.12 23.22-57.38 0-111.13-8.51-147.46-23.35-27.05-11.06-36.64-22.6-36.64-29.12 0-3.79 3-8.37 8.4-13 43.44 18.53 106.68 29 175.7 29s132.26-10.52 175.7-29c5.42 4.64 8.4 9.21 8.4 13z"/><path d="m653.42 783.73c0 6-13.8 19.26-50.85 29.57-28.7 8-65.13 12.41-102.57 12.41s-73.87-4.41-102.58-12.41c-37-10.31-50.83-23.61-50.83-29.57 0-1.71 1.12-3.85 3.17-6.16 39.47 14.14 93.48 22.16 150.24 22.16s110.79-8 150.25-22.17c2.05 2.32 3.17 4.44 3.17 6.17z"/><path d="m597.39 850.16c0 11.48-34.39 33.84-97.39 33.84s-97.39-22.36-97.39-33.84c0-.62.05-1.48.13-2.52 28.89 6.6 62.18 10.07 97.26 10.07s68.37-3.47 97.26-10.07c.08 1.04.13 1.9.13 2.52z"/><path d="m738.8 466.48c0 11.14-13.47 24.1-37 35.58l-.39.19c-45.66 22.17-121 35.41-201.42 35.41s-155.76-13.24-201.42-35.43c-23.75-11.51-37.37-24.54-37.37-35.75 0-6.39 4.42-12.53 9.63-17.57 56.54 21.4 139.24 33.57 229.16 33.57s172.63-12.18 229.16-33.58c5.22 5.03 9.65 11.19 9.65 17.58z"/><path d="m718.78 553.66c0 10.53-14.43 23.27-38.62 34.11l-.28.12c-42.24 18.86-109.49 30.11-179.88 30.11s-137.61-11.25-179.88-30.1c-24.36-10.86-38.91-23.66-38.91-34.24 0-5.65 4.28-12.11 12.23-18.59 50.18 21.75 126.35 34.59 206.56 34.59s156.39-12.84 206.58-34.58c7.93 6.48 12.2 12.92 12.2 18.58z"/><path d="m701.45 640.85c0 8.48-11.34 19-30.37 28.32l-.37.18c-38.71 18.73-102.49 29.91-170.71 29.91s-132-11.18-170.71-29.93c-19.24-9.3-30.73-19.94-30.73-28.48 0-6.07 5.89-13.32 16.41-20.38 46.66 18.82 113.41 29.53 185.03 29.53s138.41-10.71 185-29.54c10.56 7.08 16.45 14.33 16.45 20.39z"/></g><g fill="#fff" opacity=".5"><path d="m835.52 206.05c0 10.21-19.8 32.74-94 52.45-67 17.8-156.3 27.6-251.52 27.6s-184.54-9.8-251.52-27.6c-74.2-19.71-94-42.24-94-52.45s19.8-32.74 94-52.45c67-17.8 156.3-27.6 251.52-27.6s184.54 9.8 251.52 27.6c74.2 19.71 94 42.24 94 52.45z"/><path d="m802.17 302.09c0 8.19-14.33 22.83-54.71 37.15-60.11 21.32-156.36 34.05-257.46 34.05s-197.36-12.73-257.47-34.05c-40.37-14.32-54.69-29-54.69-37.15 0-4.88 5.68-13 21.13-22.09q14.5 5 31.29 9.43c69.58 18.49 161.83 28.67 259.74 28.67s190.16-10.18 259.74-28.67q16.77-4.43 31.26-9.43c15.49 9.08 21.17 17.21 21.17 22.09z"/><path d="m760.81 389.29c0 8.56-11.78 22.63-44.84 36.44-52 21.75-136.48 34.74-226 34.74s-173.94-13-226-34.73c-33-13.82-44.83-27.89-44.83-36.45 0-5.08 3.82-11 10.91-17.07 64.25 21.06 158.23 33.07 259.9 33.07s195.64-12 259.89-33.07c7.16 6.06 10.97 11.99 10.97 17.07z"/><path d="m674.1 725.26c0 6.48-9.46 17.91-36.09 28.89-.3.11-.6.23-.89.36-36.31 14.75-89.91 23.22-147.12 23.22-57.38 0-111.13-8.51-147.46-23.35-27.05-11.06-36.64-22.6-36.64-29.12 0-3.79 3-8.37 8.4-13 43.44 18.53 106.68 29 175.7 29s132.26-10.52 175.7-29c5.42 4.64 8.4 9.21 8.4 13z"/><path d="m643.42 793.73c0 6-13.8 19.26-50.85 29.57-28.7 8-65.13 12.41-102.57 12.41s-73.87-4.41-102.58-12.41c-37-10.31-50.83-23.61-50.83-29.57 0-1.71 1.12-3.85 3.17-6.16 39.47 14.14 93.48 22.16 150.24 22.16s110.79-8 150.25-22.17c2.05 2.32 3.17 4.44 3.17 6.17z"/><path d="m587.39 860.16c0 11.48-34.39 33.84-97.39 33.84s-97.39-22.36-97.39-33.84c0-.62.05-1.48.13-2.52 28.89 6.6 62.18 10.07 97.26 10.07s68.37-3.47 97.26-10.07c.08 1.04.13 1.9.13 2.52z"/><path d="m728.8 476.48c0 11.14-13.47 24.1-37 35.58l-.39.19c-45.66 22.17-121 35.41-201.42 35.41s-155.76-13.24-201.42-35.43c-23.75-11.51-37.37-24.54-37.37-35.75 0-6.39 4.42-12.53 9.63-17.57 56.54 21.4 139.24 33.57 229.16 33.57s172.63-12.18 229.16-33.58c5.22 5.03 9.65 11.19 9.65 17.58z"/><path d="m708.78 563.66c0 10.53-14.43 23.27-38.62 34.11l-.28.12c-42.24 18.86-109.49 30.11-179.88 30.11s-137.61-11.25-179.88-30.1c-24.36-10.86-38.91-23.66-38.91-34.24 0-5.65 4.28-12.11 12.23-18.59 50.18 21.75 126.35 34.59 206.56 34.59s156.39-12.84 206.58-34.58c7.93 6.48 12.2 12.92 12.2 18.58z"/><path d="m691.45 650.85c0 8.48-11.34 19-30.37 28.32l-.37.18c-38.71 18.73-102.49 29.91-170.71 29.91s-132-11.18-170.71-29.93c-19.24-9.3-30.73-19.94-30.73-28.48 0-6.07 5.89-13.32 16.41-20.38 46.66 18.82 113.41 29.53 185.03 29.53s138.41-10.71 185-29.54c10.56 7.08 16.45 14.33 16.45 20.39z"/></g><path d="m841.62 145.11c-19.57-12.29-47.12-23.21-81.88-32.44-69.58-18.49-161.83-28.67-259.74-28.67s-190.16 10.18-259.74 28.67c-34.76 9.23-62.31 20.15-81.88 32.44-23.82 15-35.9 32.1-35.9 50.94s12.08 36 35.9 50.93a176.4 176.4 0 0 0 15.82 8.79 290 290 0 0 0 34.8 14.23q14.5 5 31.29 9.43c69.55 18.49 161.8 28.67 259.71 28.67s190.16-10.18 259.74-28.67q16.77-4.43 31.26-9.43a290 290 0 0 0 34.77-14.23 176.4 176.4 0 0 0 15.85-8.77c23.82-15 35.9-32.1 35.9-50.93s-12.08-35.99-35.9-50.96zm-90.1 103.39c-67 17.8-156.3 27.6-251.52 27.6s-184.54-9.8-251.52-27.6c-74.2-19.71-94-42.24-94-52.45s19.8-32.74 94-52.45c67-17.8 156.3-27.6 251.52-27.6s184.54 9.8 251.52 27.6c74.2 19.71 94 42.24 94 52.45s-19.8 32.74-94 52.45z" fill="#413b32"/><path d="m844.17 292.09c0 22.15-17.49 41.47-52.09 57.61q-10.85 5.07-23.92 9.7c-2.7 1-5.45 1.9-8.27 2.82-64.25 21.06-158.23 33.07-259.89 33.07s-195.65-12-259.9-33.07q-4.22-1.38-8.27-2.82-13.08-4.63-23.92-9.7c-34.58-16.14-52.07-35.46-52.07-57.61 0-13.1 6.16-25.25 18.36-36.32q10.17-9.24 25.94-17.44a16 16 0 1 1 14.77 28.39c-2.12 1.1-4.1 2.2-5.94 3.28-15.45 9.08-21.13 17.21-21.13 22.09 0 8.19 14.32 22.83 54.69 37.15 60.11 21.32 156.36 34.05 257.47 34.05s197.35-12.73 257.46-34.05c40.38-14.32 54.71-29 54.71-37.15 0-4.88-5.68-13-21.14-22.09-1.84-1.08-3.82-2.18-5.94-3.28a16 16 0 1 1 14.76-28.39q15.76 8.21 25.95 17.44c12.2 11.07 18.37 23.23 18.37 36.32z" fill="#413b32"/><path d="m802.81 379.29c0 14-6.6 27.21-19.61 39.17a123.55 123.55 0 0 1 -23.69 16.62 212.18 212.18 0 0 1 -21.2 10.18q-4.45 1.86-9.16 3.64c-56.53 21.4-139.24 33.58-229.15 33.58s-172.62-12.17-229.16-33.57q-4.71-1.77-9.16-3.64a215.57 215.57 0 0 1 -21.2-10.18 124 124 0 0 1 -23.69-16.63c-13-12-19.6-25.15-19.6-39.17 0-10.42 3.6-20.31 10.72-29.59a89.65 89.65 0 0 1 20.15-18.52 16 16 0 1 1 18.24 26.29 77.72 77.72 0 0 0 -6.2 4.75c-7.09 6.06-10.91 12-10.91 17.07 0 8.56 11.78 22.63 44.83 36.45 52 21.75 136.49 34.73 226 34.73s174-13 226-34.74c33.06-13.81 44.84-27.88 44.84-36.44 0-5.08-3.82-11-10.92-17.07a77.72 77.72 0 0 0 -6.2-4.75 16 16 0 0 1 18.24-26.29 89.22 89.22 0 0 1 20.15 18.52c7.08 9.3 10.68 19.17 10.68 29.59z" fill="#413b32"/><path d="m770.8 466.48c0 14.18-6.55 33.8-34.61 52.72a168.76 168.76 0 0 1 -20.79 11.8q-4.26 2.07-8.82 4c-50.19 21.82-126.36 34.66-206.58 34.66s-156.38-12.84-206.56-34.59q-4.57-2-8.84-4.05a169.53 169.53 0 0 1 -20.79-11.83c-28-18.9-34.59-38.52-34.59-52.71 0-8.32 2.31-19.46 11.27-31.39a87.9 87.9 0 0 1 17.74-17.36 16 16 0 0 1 15.8-2 16 16 0 0 1 3.44 27.54 70.8 70.8 0 0 0 -6.64 5.62c-5.21 5-9.63 11.18-9.63 17.57 0 11.21 13.62 24.24 37.37 35.75 45.66 22.19 121 35.43 201.42 35.43s155.76-13.24 201.42-35.41l.39-.19c23.52-11.48 37-24.44 37-35.58 0-6.39-4.43-12.55-9.65-17.58a72.18 72.18 0 0 0 -6.63-5.63 16 16 0 0 1 3.48-27.51 16 16 0 0 1 15.8 2 88.16 88.16 0 0 1 17.74 17.36c8.94 11.9 11.26 23.06 11.26 31.38z" fill="#413b32"/><path d="m733.45 640.85c0 12.36-5.47 29.27-28.57 45.57a142.85 142.85 0 0 1 -20.23 11.73q-4.32 2.08-8.95 4.07c-43.44 18.52-106.69 29-175.7 29s-132.26-10.52-175.7-29q-4.64-2-9-4.07a142.85 142.85 0 0 1 -20.23-11.73c-23.08-16.29-28.55-33.2-28.55-45.56 0-9.77 3.45-22.83 17.18-36.19a107.06 107.06 0 0 1 22-16 16 16 0 1 1 15.8 27.82c-2.34 1.33-4.53 2.68-6.54 4-10.52 7.06-16.41 14.31-16.41 20.38 0 8.54 11.49 19.18 30.73 28.48 38.72 18.73 102.49 29.91 170.72 29.91s132-11.18 170.71-29.91l.37-.18c19-9.27 30.37-19.84 30.37-28.32 0-6.06-5.89-13.31-16.4-20.39q-2.91-2-6.28-3.89a16 16 0 0 1 1.11-28.68l.28-.12a16 16 0 0 1 6.23-1.26 16 16 0 0 1 7.91 2.09 106.88 106.88 0 0 1 22 16.06c13.7 13.34 17.15 26.43 17.15 36.19z" fill="#413b32"/><path d="m716.1 715.26c0 13.56-6.83 32.07-36.2 48.92a169.15 169.15 0 0 1 -20.32 9.82q-4.51 1.85-9.33 3.57c-39.46 14.15-93.48 22.17-150.25 22.17s-110.77-8-150.24-22.16q-4.81-1.73-9.33-3.57a169.7 169.7 0 0 1 -20.31-9.81c-29.4-16.85-36.22-35.37-36.22-48.93 0-7.76 2.31-18 11.21-28.85a81.93 81.93 0 0 1 18.42-16 16 16 0 0 1 17.59 26.74 65.05 65.05 0 0 0 -6.82 5.1c-5.42 4.68-8.4 9.26-8.4 13 0 6.52 9.59 18.06 36.64 29.12 36.33 14.84 90.08 23.35 147.46 23.35 57.21 0 110.81-8.47 147.12-23.22.29-.13.59-.25.89-.36 26.63-11 36.09-22.41 36.09-28.89 0-3.79-3-8.36-8.4-13a65.94 65.94 0 0 0 -6.81-5.11 16 16 0 0 1 1.82-27.76l.37-.18a16 16 0 0 1 15.4 1.22 81.76 81.76 0 0 1 18.4 16c8.91 10.78 11.22 21.07 11.22 28.83z" fill="#413b32"/><path d="m685.42 783.73c0 9.89-4.12 24.58-23.75 38.4-8.81 6.19-19.95 11.73-33.25 16.53q-8.1 2.93-17.26 5.47c-4.51 1.25-9.14 2.43-13.9 3.51-28.89 6.6-62.19 10.07-97.26 10.07s-68.37-3.47-97.26-10.07q-7.14-1.62-13.9-3.51-9.15-2.55-17.25-5.48c-36.92-13.39-57-32.57-57-54.92a38.18 38.18 0 0 1 5.53-19.54c3.39-5.81 8.73-11.94 16.93-17.92a16 16 0 1 1 18.87 25.84 38.62 38.62 0 0 0 -6.16 5.46c-2.05 2.31-3.17 4.45-3.17 6.16 0 6 13.8 19.26 50.83 29.57 28.71 8 65.14 12.41 102.58 12.41s73.87-4.41 102.57-12.41c37-10.31 50.85-23.61 50.85-29.57 0-1.71-1.12-3.85-3.17-6.17a39.08 39.08 0 0 0 -6-5.32 16 16 0 0 1 2.84-27.73c.29-.13.59-.25.89-.36a15.91 15.91 0 0 1 5.5-1 16 16 0 0 1 9.45 3.08c8.19 6 13.52 12.12 16.93 17.92a38.36 38.36 0 0 1 5.56 19.58z" fill="#413b32"/><path d="m629.39 850.16c0 20.05-15.19 37.76-42.77 49.89-23.4 10.28-54.17 16-86.62 16s-63.21-5.67-86.62-16c-27.58-12.13-42.77-29.85-42.77-49.89a91.2 91.2 0 0 1 1-11.51 100 100 0 0 1 3.34-15.58 16 16 0 0 1 30.52 9.63 79.64 79.64 0 0 0 -2.71 14.94c-.08 1-.13 1.9-.13 2.52-.02 11.48 34.37 33.84 97.37 33.84s97.39-22.36 97.39-33.84c0-.62 0-1.48-.13-2.52a79.11 79.11 0 0 0 -2.7-14.92 16 16 0 1 1 30.5-9.67 98.76 98.76 0 0 1 3.36 15.61 90.43 90.43 0 0 1 .97 11.5z" fill="#413b32"/><path d="m750.78 553.66c0 13.92-6.59 32.94-34.52 51a171.82 171.82 0 0 1 -23.34 12.46c-2.55 1.14-5.18 2.25-7.87 3.34-46.64 18.83-113.41 29.54-185.05 29.54s-138.37-10.71-185-29.53c-2.7-1.09-5.32-2.2-7.88-3.34a171.44 171.44 0 0 1 -23.35-12.47c-27.93-18.06-34.53-37.08-34.53-51 0-9.17 2.94-21.53 14.59-34.47a97.39 97.39 0 0 1 19-15.93 16 16 0 0 1 17.56 26.74 80.87 80.87 0 0 0 -6.95 5.07c-7.95 6.48-12.23 12.94-12.23 18.59 0 10.58 14.55 23.38 38.91 34.24 42.27 18.85 109.51 30.1 179.88 30.1s137.64-11.25 179.88-30.11l.28-.12c24.19-10.84 38.62-23.58 38.62-34.11 0-5.65-4.27-12.1-12.2-18.58a83.29 83.29 0 0 0 -7-5.07 16 16 0 0 1 1.8-27.76l.39-.19a16 16 0 0 1 15.39 1.21 97.39 97.39 0 0 1 19 15.93c11.68 12.93 14.62 25.29 14.62 34.46z" fill="#413b32"/></svg>