<svg id="Layer_1" viewBox="0 0 64 64" xmlns="http://www.w3.org/2000/svg" data-name="Layer 1"><path d="m12 61 15.46-45.4c.32-.95 1.22-1.6 2.23-1.6h4.63c1.01 0 1.9.64 2.23 1.6l15.46 45.4z" fill="#f66"/><path d="m52 61h-40l5.45-16h29.1z" fill="#d3dedc"/><path d="m28 61v-9c0-2.21 1.79-4 4-4 2.21 0 4 1.79 4 4v9" fill="#f66"/><circle cx="32" cy="22.2" fill="#9db2bf" r="3"/><g fill="#567189"><path d="m34.12 20.08 5.73-9.71c.38-.56.81-1.08 1.29-1.56l6.41-6.41 4.24 4.24-6.41 6.41c-.48.48-1 .91-1.56 1.29l-9.71 5.73z"/><path d="m29.88 24.32-5.73 9.71c-.38.56-.81 1.08-1.29 1.56l-6.41 6.41-4.24-4.24 6.41-6.41c.48-.48 1-.91 1.56-1.29l9.71-5.73z"/><path d="m29.88 20.08-9.71-5.73c-.56-.38-1.08-.81-1.56-1.29l-6.41-6.41 4.24-4.24 6.41 6.41c.48.48.91 1 1.29 1.56l5.73 9.71z"/><path d="m34.12 24.32 9.71 5.73c.56.38 1.08.81 1.56 1.29l6.41 6.41-4.24 4.24-6.41-6.41c-.48-.48-.91-1-1.29-1.56l-5.73-9.71z"/></g><path d="m46.81 42.67.04.04c.2.2.45.29.71.29s.51-.1.71-.29l4.24-4.24c.19-.19.29-.44.29-.71s-.11-.52-.29-.71l-6.41-6.41c-.52-.52-1.09-1-1.76-1.44l-2.64-1.56-3.09-9.05 5.78-3.42c.61-.41 1.18-.89 1.71-1.41l6.41-6.41c.19-.19.29-.44.29-.71s-.11-.52-.29-.71l-4.24-4.24c-.39-.39-1.02-.39-1.41 0l-6.41 6.41c-.52.52-.99 1.09-1.44 1.76l-2.39 4.05c-.61-.57-1.42-.91-2.29-.91h-4.62c-.88 0-1.69.34-2.3.91l-2.42-4.1c-.41-.61-.89-1.19-1.41-1.71l-6.43-6.4c-.39-.39-1.02-.39-1.41 0l-4.24 4.24c-.19.19-.29.44-.29.71s.11.52.29.71l6.41 6.41c.52.52 1.09 1 1.76 1.44l5.73 3.38-3.09 9.05-2.69 1.59c-.61.41-1.18.89-1.71 1.41l-6.41 6.41c-.19.19-.29.44-.29.71s.11.52.29.71l4.24 4.24c.2.2.45.29.71.29s.51-.1.71-.29l.04-.04-5.91 17.33h-8.29c-.55 0-1 .45-1 1 0 .55.45 1 1 1h58c.55 0 1-.45 1-1 0-.55-.45-1-1-1h-8.28zm-1.66 1.33h-26.3l.68-2h10.47c.55 0 1-.45 1-1s-.45-1-1-1h-9.79l.18-.54 3.17-3.17c.52-.52.99-1.09 1.44-1.76l5.19-8.78c.55.28 1.16.45 1.8.45s1.25-.17 1.8-.45l5.22 8.84c.42.61.89 1.19 1.41 1.7l3.17 3.17 1.55 4.54zm-13.15-23.8c.53 0 1.04.21 1.41.59s.59.88.59 1.41-.21 1.04-.59 1.41c-.76.76-2.07.76-2.83 0-.38-.38-.59-.88-.59-1.41s.21-1.04.59-1.41.88-.59 1.41-.59zm12.68 11.85 5.71 5.71-2.83 2.83-5.71-5.71c-.43-.43-.82-.9-1.13-1.36l-3.76-6.36 6.31 3.73c.51.34.98.73 1.41 1.17zm-5.63-5.98-3.5-2.07c.28-.55.45-1.16.45-1.8s-.17-1.25-.45-1.8l1.3-.77zm1.63-15.14c.34-.51.74-.98 1.17-1.41l5.71-5.71 2.83 2.83-5.71 5.71c-.43.43-.91.82-1.36 1.13l-6.36 3.76 3.73-6.31zm-10.99 4.07h4.62c.53 0 .98.31 1.2.76l-1.72 2.9c-1.12-.54-2.47-.54-3.59 0l-1.72-2.9c.22-.46.68-.76 1.2-.76zm-10.37-2.65-5.71-5.71 2.83-2.83 5.71 5.71c.43.43.82.9 1.13 1.36l3.76 6.36-6.31-3.73c-.51-.34-.98-.73-1.41-1.17zm7.83 7.28 1.3.77c-.28.55-.45 1.16-.45 1.8s.17 1.25.45 1.8l-3.5 2.07 2.2-6.45zm-10.7 20.96-2.83-2.83 5.71-5.71c.43-.43.91-.82 1.36-1.13l6.36-3.76-3.73 6.31c-.35.51-.74.99-1.17 1.41l-5.71 5.71zm1.72 5.41h27.66l4.77 14h-13.6v-8c0-2.76-2.24-5-5-5s-5 2.24-5 5v8h-13.6zm16.83 14h-6v-8c0-1.65 1.35-3 3-3s3 1.35 3 3z"/><path d="m39 40h-2c-.55 0-1 .45-1 1s.45 1 1 1h2c.55 0 1-.45 1-1s-.45-1-1-1z"/></svg>