<svg id="Capa_1" enable-background="new 0 0 511.982 511.982" height="512" viewBox="0 0 511.982 511.982" width="512" xmlns="http://www.w3.org/2000/svg"><g><g><path d="m403.057 464.483c0 22.091-17.909 40-40 40h-216.643c-22.091 0-40-17.909-40-40v-218.65c0-22.091 17.909-40 40-40h216.643c22.091 0 40 17.909 40 40z" fill="#f9ee80"/></g><g><path d="m191.816 464.483v-218.65c0-22.091 17.909-40 40-40h-85.402c-22.091 0-40 17.909-40 40v218.649c0 22.091 17.909 40 40 40h85.402c-22.092.001-40-17.908-40-39.999z" fill="#f4e74d"/></g><g><path d="m285.931 336.88c0 16.385-13.282 29.667-29.668 29.667-16.384 0-29.666-13.282-29.666-29.667 0-16.384 13.282-29.666 29.666-29.666 16.386 0 29.668 13.282 29.668 29.666z" fill="#df8a57"/></g><g><path d="m249.815 336.88c0-12.264 7.443-22.789 18.058-27.307-3.566-1.518-7.489-2.359-11.609-2.359-16.384 0-29.666 13.282-29.666 29.666 0 16.385 13.282 29.667 29.666 29.667 4.12 0 8.043-.841 11.609-2.359-10.615-4.518-18.058-15.043-18.058-27.308z" fill="#d97c41"/></g><g><path d="m423.126 265.945c20.966 0 36.788-21.06 32.587-43.589-19.004-101.9-101.196-178.558-199.722-178.558-98.525 0-180.718 76.657-199.722 178.558-4.201 22.528 11.621 43.589 32.587 43.589z" fill="#e4996d"/></g><g><path d="m163.453 222.357c15.426-82.718 72.491-148.8 146.13-170.749-17.077-5.09-35.045-7.809-53.592-7.809-98.526 0-180.718 76.657-199.722 178.558-4.202 22.528 11.621 43.589 32.587 43.589h107.184c-20.966-.001-36.788-21.061-32.587-43.589z" fill="#df8a57"/></g><g><path d="m200.87 105.534c10.876 10.876 10.876 28.508 0 39.384-10.876 10.875-28.508 10.875-39.384 0l-89.877-89.878c-10.876-10.875-10.876-28.508 0-39.383 10.875-10.876 28.509-10.876 39.384 0z" fill="#fff8e6"/></g><g><path d="m439.525 343.899c10.875 10.876 10.875 28.508 0 39.384-10.876 10.876-28.509 10.876-39.385 0l-89.877-89.877c-10.876-10.876-10.876-28.508 0-39.384 10.876-10.876 28.508-10.876 39.384 0z" fill="#fff8e6"/></g><g><path d="m181.103 125.15-89.877-89.876c-7.26-7.26-9.645-17.523-7.214-26.784-4.542 1.228-8.838 3.601-12.403 7.167-10.876 10.875-10.876 28.508 0 39.383l89.878 89.878c10.876 10.875 28.508 10.875 39.384 0 3.616-3.617 6.003-7.987 7.215-12.601-9.313 2.516-19.672.145-26.983-7.167z" fill="#fff1cf"/></g><g><path d="m419.757 363.515-89.877-89.877c-7.259-7.258-9.646-17.522-7.215-26.783-4.541 1.226-8.838 3.6-12.402 7.166-10.876 10.876-10.876 28.508 0 39.384l89.877 89.877c10.875 10.876 28.509 10.876 39.385 0 3.616-3.617 6.003-7.986 7.214-12.601-9.312 2.519-19.671.146-26.982-7.166z" fill="#fff1cf"/></g><g><path d="m350.647 144.918c-10.876 10.875-28.508 10.875-39.384 0-10.876-10.876-10.876-28.508 0-39.384l89.877-89.877c10.875-10.876 28.509-10.876 39.385 0 10.875 10.875 10.875 28.508 0 39.383z" fill="#fff8e6"/></g><g><path d="m111.993 383.283c-10.876 10.876-28.509 10.876-39.384 0-10.876-10.876-10.876-28.508 0-39.384l89.878-89.877c10.876-10.876 28.508-10.876 39.384 0 10.876 10.876 10.876 28.508 0 39.384z" fill="#fff8e6"/></g><g><path d="m329.342 123.613 89.878-89.877c7.614-7.614 18.534-9.876 28.136-6.83-1.305-4.113-3.568-7.987-6.83-11.248-10.876-10.876-28.509-10.876-39.385 0l-89.877 89.877c-10.876 10.876-10.876 28.508 0 39.384 3.262 3.262 7.137 5.525 11.25 6.831-3.049-9.602-.786-20.524 6.828-28.137z" fill="#fff1cf"/></g><g><path d="m90.688 361.978 89.877-89.877c7.614-7.614 18.535-9.877 28.136-6.83-1.305-4.112-3.569-7.987-6.831-11.249-10.876-10.876-28.508-10.876-39.384 0l-89.878 89.877c-10.876 10.876-10.876 28.508 0 39.384 3.262 3.261 7.136 5.525 11.249 6.831-3.046-9.602-.783-20.522 6.831-28.136z" fill="#fff1cf"/></g><g><path d="m271.264 184.477c8.436 8.436 8.436 22.113 0 30.548-8.435 8.435-22.111 8.435-30.547 0-8.435-8.436-8.435-22.113 0-30.548 8.437-8.436 22.113-8.436 30.547 0z" fill="#fff8e6"/></g><g><path d="m258.317 215.025c-8.435-8.436-8.435-22.113 0-30.548 1.924-1.924 4.129-3.387 6.474-4.433-7.935-3.541-17.562-2.078-24.074 4.433-8.435 8.436-8.435 22.113 0 30.548 6.512 6.511 16.139 7.973 24.074 4.433-2.345-1.047-4.549-2.509-6.474-4.433z" fill="#fff1cf"/></g><g><g><path d="m204.062 435.971c0 12.91-13.143 23.377-29.354 23.377-16.213 0-29.355-10.467-29.355-23.377s13.143-23.377 29.355-23.377c16.211 0 29.354 10.467 29.354 23.377" fill="#ffa1ac"/></g><g><path d="m304.466 435.971c0 12.91 13.143 23.377 29.354 23.377 16.214 0 29.355-10.467 29.355-23.377s-13.142-23.377-29.355-23.377c-16.211 0-29.354 10.467-29.354 23.377" fill="#ffa1ac"/></g><g><path d="m191.815 420.967c-4.142 0-7.5-3.358-7.5-7.5v-12c0-4.142 3.358-7.5 7.5-7.5s7.5 3.358 7.5 7.5v12c0 4.142-3.357 7.5-7.5 7.5z"/></g><g><path d="m316.713 420.967c-4.142 0-7.5-3.358-7.5-7.5v-12c0-4.142 3.358-7.5 7.5-7.5s7.5 3.358 7.5 7.5v12c0 4.142-3.358 7.5-7.5 7.5z"/></g><g><path d="m254.264 428.11c-8.478 0-16.54-3.671-22.118-10.072-2.721-3.123-2.396-7.86.727-10.582 3.124-2.721 7.86-2.396 10.582.727 2.729 3.132 6.669 4.928 10.81 4.928s8.081-1.796 10.81-4.928c2.722-3.123 7.459-3.448 10.582-.727 3.123 2.722 3.448 7.459.727 10.582-5.581 6.4-13.642 10.072-22.12 10.072z"/></g></g><g><path d="m219.097 336.88c0 20.494 16.672 37.167 37.166 37.167 20.495 0 37.168-16.673 37.168-37.167 0-20.493-16.673-37.166-37.168-37.166-20.493 0-37.166 16.673-37.166 37.166zm59.334 0c0 12.223-9.944 22.167-22.168 22.167-12.222 0-22.166-9.944-22.166-22.167 0-12.222 9.944-22.166 22.166-22.166 12.224 0 22.168 9.944 22.168 22.166z"/><path d="m444.828 338.595-34.271-34.27v-30.879h12.57c11.581 0 22.65-5.33 30.371-14.623 8.639-10.399 12.134-24.192 9.589-37.841-8.451-45.309-28.889-86.256-59.201-118.695l41.943-41.943c13.782-13.783 13.782-36.208 0-49.99-6.678-6.677-15.555-10.354-24.997-10.354s-18.319 3.677-24.995 10.354l-48.914 48.914c-28.763-15.227-59.67-22.968-91.931-22.968-31.724 0-62.153 7.489-90.523 22.227l-48.173-48.172c-6.676-6.678-15.553-10.355-24.996-10.355s-18.319 3.677-24.995 10.354c-6.676 6.676-10.354 15.553-10.354 24.995s3.677 18.319 10.354 24.995l41.876 41.876c-9.916 10.612-18.891 22.275-26.72 34.781-2.198 3.511-1.134 8.139 2.377 10.337 1.237.774 2.613 1.144 3.973 1.144 2.499 0 4.941-1.248 6.364-3.521 7.228-11.546 15.498-22.315 24.621-32.126l37.387 37.387c6.892 6.892 15.942 10.336 24.995 10.336 6.728 0 13.456-1.908 19.298-5.716l30.331 30.331c-5.197 8.984-5.197 20.17 0 29.155l-29.596 29.596c-5.632-3.614-12.181-5.559-19.033-5.559-9.442 0-18.319 3.677-24.995 10.354l-9.727 9.727h-58.6c-7.212 0-13.9-3.27-18.833-9.208-5.78-6.958-8.105-16.254-6.38-25.506 3.317-17.79 8.688-35.082 15.964-51.396 1.687-3.783-.012-8.217-3.795-9.904s-8.218.012-9.904 3.795c-7.754 17.388-13.478 35.81-17.011 54.755-2.545 13.649.949 27.442 9.588 37.841 7.72 9.293 18.79 14.623 30.371 14.623h10.058v33.542l-31.608 31.608c-13.782 13.783-13.782 36.208 0 49.99 6.676 6.677 15.553 10.354 24.996 10.354 2.244 0 4.455-.214 6.613-.621v66.163c0 26.191 21.309 47.5 47.5 47.5h216.643c26.191 0 47.5-21.309 47.5-47.5v-8.649c0-4.142-3.358-7.5-7.5-7.5s-7.5 3.358-7.5 7.5v8.649c0 17.92-14.58 32.5-32.5 32.5h-216.644c-17.92 0-32.5-14.58-32.5-32.5v-72.926c1.178-.914 2.311-1.899 3.382-2.97l89.877-89.876c6.96-6.959 10.4-16.123 10.331-25.264h77.108c-.001.09-.007.179-.007.269 0 9.441 3.677 18.318 10.354 24.995l89.877 89.876c.235.235.479.458.72.686v33.061c0 4.142 3.358 7.5 7.5 7.5s7.5-3.358 7.5-7.5v-24.626c2.987.807 6.098 1.233 9.275 1.233 9.442 0 18.319-3.677 24.996-10.354 13.782-13.783 13.782-36.208.001-49.991zm-49.271-49.27-15.88-15.88h15.88zm52.783-65.594c1.726 9.251-.6 18.548-6.381 25.506-4.933 5.938-11.621 9.208-18.833 9.208h-58.45l-9.727-9.727c-6.676-6.677-15.553-10.354-24.995-10.354-6.889 0-13.473 1.966-19.125 5.617l-29.649-29.649c2.547-4.384 3.911-9.377 3.911-14.582s-1.364-10.199-3.912-14.583l30.384-30.384c5.863 3.848 12.626 5.773 19.391 5.773 9.052 0 18.104-3.445 24.995-10.336l37.32-37.32c28.168 30.293 47.178 68.513 55.071 110.831zm-202.319-14.009c-5.498-5.498-5.498-14.444 0-19.941 2.664-2.664 6.205-4.13 9.971-4.13s7.306 1.467 9.969 4.13c2.664 2.664 4.13 6.205 4.13 9.971 0 3.767-1.467 7.308-4.13 9.971-5.497 5.496-14.442 5.496-19.94-.001zm160.423-188.762c3.843-3.844 8.953-5.96 14.388-5.96s10.545 2.117 14.389 5.96c7.934 7.934 7.934 20.843 0 28.777l-89.878 89.878c-7.933 7.933-20.843 7.934-28.778 0-3.843-3.844-5.96-8.954-5.96-14.389 0-5.436 2.117-10.545 5.96-14.389zm-151.453 30.339c28.252 0 55.391 6.435 80.796 19.104l-29.828 29.827c-6.677 6.677-10.354 15.554-10.354 24.996 0 6.781 1.905 13.264 5.447 18.857l-30.479 30.479c-4.384-2.548-9.377-3.911-14.582-3.911-5.206 0-10.199 1.364-14.583 3.912l-30.393-30.393c8.677-13.664 7.069-32.027-4.843-43.938l-30.536-30.535c24.996-12.2 51.645-18.398 79.355-18.398zm-88.201 88.316-41.586-41.586c-.298-.48-.648-.936-1.064-1.353-.419-.42-.879-.773-1.362-1.073l-45.866-45.866c-3.843-3.843-5.96-8.953-5.96-14.389 0-5.435 2.117-10.545 5.96-14.388 3.843-3.844 8.953-5.96 14.388-5.96s10.546 2.117 14.389 5.96l89.877 89.877c3.843 3.844 5.96 8.954 5.96 14.389s-2.117 10.545-5.96 14.389c-7.933 7.933-20.843 7.933-28.776 0zm-52.876 133.83h18.543l-18.543 18.542zm82.653 14.658-89.877 89.876c-3.843 3.844-8.953 5.96-14.389 5.96s-10.545-2.117-14.389-5.96c-7.934-7.934-7.934-20.844 0-28.778l89.878-89.876c3.843-3.844 8.953-5.96 14.388-5.96s10.545 2.117 14.389 5.96c3.843 3.844 5.96 8.954 5.96 14.389s-2.117 10.545-5.96 14.389zm17.486-29.658c-.645-1.351-1.38-2.669-2.206-3.944l29.567-29.567c4.492 2.599 9.534 3.902 14.578 3.902s10.085-1.304 14.577-3.903l29.654 29.654c-.803 1.243-1.529 2.529-2.166 3.857h-84.004zm220.168 119.534c-3.844 3.844-8.954 5.96-14.389 5.96-5.436 0-10.545-2.117-14.389-5.96l-89.878-89.876c-5.383-5.383-7.102-13.055-5.181-19.911.034-.11.058-.223.088-.335.934-3.125 2.629-6.069 5.093-8.532 3.844-3.844 8.954-5.96 14.389-5.96s10.545 2.117 14.389 5.96l89.877 89.876c7.934 7.935 7.934 20.844.001 28.778z"/></g></g></svg>