<svg id="windows" viewBox="0 0 64 64" xmlns="http://www.w3.org/2000/svg"><rect fill="#8d4705" height="58" rx="4" width="58" x="3" y="3"/><path d="m7 7h50v50h-50z" fill="#ffa63b"/><path d="m49 18s-9-4-11 2-4 7-4 7 18 5 15-9z" fill="#7f813c"/><path d="m49 18s-.40765-.18048-1.06476-.4068c-1.23199 6.78839-7.87054 7.91547-12.46472 7.84686-.86981 1.25378-1.47052 1.55994-1.47052 1.55994s18 5 15-9z" fill="#707335"/><path d="m7 33.09869v23.90131h50v-31.92236c-12.75732 9.53845-36.56213 9.13715-50 8.02106z" fill="#fe9000"/><path d="m33 37c-10.4328 0-19.76312 3.0434-26 7.82965v12.17035h50v-13.58203c-6.14954-3.96576-14.63184-6.41797-24-6.41797z" fill="#f9793a"/><path d="m47.36365 39.05945c.448 13.18396-25.13989 12.74005-40.36365 11.31586v6.62469h50v-13.58203c-2.77905-1.79218-6.03796-3.27118-9.63635-4.35852z" fill="#f36a1c"/><path d="m37 44s9-5 14 4c0 0-3 3-9 3-6.08276 0-5-7-5-7z" fill="#7f813c"/><path d="m46.87518 43.67542c-.62543 5.01514-5.9621 4.55609-9.71332 3.57599.43958 1.82916 1.65198 3.7486 4.83813 3.7486 6 0 9-3 9-3-1.20343-2.1662-2.63916-3.5155-4.12482-4.32458z" fill="#707335"/><path d="m29 50-22 7v-50l22 7z" fill="#cf721b"/><path d="m18 14.62073v15.37927h7v-13.0752z" fill="#75eae2"/><path d="m7 34v19l7-2.30408v-16.69592z" fill="#75eae2"/><path d="m18 49.37927 7-2.30407v-13.0752h-7z" fill="#75eae2"/><path d="m18 44.46008v4.91919l7-2.30408v-11.99506c-.51166 6.15802-4.24237 8.49622-7 9.37994z" fill="#4ccdc7"/><path d="m24.25983 16.68115c.03479 7.57318-3.80298 9.15497-6.25983 9.3905v3.92834h7v-13.0752l-.74017-.24365z" fill="#4ccdc7"/><path d="m14 13.30408-7-2.30408v19h7z" fill="#75eae2"/><path d="m7 47.8772v5.1228l7-2.30408v-9.33276c-1.185 3.9928-4.08618 5.77869-7 6.51404z" fill="#4ccdc7"/><path d="m7 25.85339v4.14661h7v-13.0589c-1.21399 5.16565-4.14319 7.69812-7 8.91229z" fill="#4ccdc7"/><g fill="#490b2b"><path d="m57 62h-50c-2.75684 0-5-2.24316-5-5v-50c0-2.75684 2.24316-5 5-5h50c2.75684 0 5 2.24316 5 5v50c0 2.75684-2.24316 5-5 5zm-50-58c-1.6543 0-3 1.3457-3 3v50c0 1.6543 1.3457 3 3 3h50c1.6543 0 3-1.3457 3-3v-50c0-1.6543-1.3457-3-3-3z"/><path d="m25 31h-7c-.55273 0-1-.44775-1-1v-15.37939c0-.3208.1543-.62207.41406-.81006.25977-.18848.5957-.23926.89844-.13965l7 2.3042c.41016.13477.6875.51807.6875.94971v13.0752c0 .55225-.44727 1-1 1zm-6-2h5v-11.35156l-5-1.646z"/><path d="m57 6h-50c-.55273 0-1 .44775-1 1v50c0 .55225.44727 1 1 1h50c.55273 0 1-.44775 1-1v-50c0-.55225-.44727-1-1-1zm-49 29h5v14.97217l-5 1.64606zm0-22.61816 5 1.646v14.97217h-5zm0 41.34155 6.3125-2.07788c.41016-.13477.6875-.51807.6875-.94971v-16.6958c0-.55225-.44727-1-1-1h-6v-2h6c.55273 0 1-.44775 1-1v-16.6958c0-.43164-.27734-.81494-.6875-.94971l-6.3125-2.07788v-1.909l20 6.36383v34.53711l-20 6.36383v-1.909zm48 2.27661h-42.55896l15.86169-5.04688c.41504-.13232.69727-.51758.69727-.95312v-36c0-.43555-.28223-.8208-.69727-.95312l-15.86151-5.04688h42.55878z"/><path d="m18 50.37939c-.20801 0-.41309-.06494-.58594-.18994-.25977-.18799-.41406-.48926-.41406-.81006v-15.37939c0-.55225.44727-1 1-1h7c.55273 0 1 .44775 1 1v13.0752c0 .43164-.27734.81494-.6875.94971l-7 2.3042c-.10156.03369-.20801.05029-.3125.05029zm1-15.37939v12.99756l5-1.646v-11.35156z"/><path d="m52.99023 13.1416c.07812-.54688-.30176-1.05322-.84863-1.13135-.54395-.07715-1.05371.30225-1.13184.84814-.22388 1.56787-.9726 2.92352-1.97107 4.07581-1.29749-.51587-5.74579-2.07599-8.97327-.65295-1.46289.64502-2.47656 1.79004-3.01367 3.40234-1.77734 5.33008-3.50293 6.42188-3.49902 6.42188-.37012.18506-.58789.5791-.54785.99072s.3291.75684.72754.86719c.22656.06299 3.32324.90381 6.78711.90381 2.7334 0 5.69531-.52393 7.65332-2.36816 1.86255-1.75354 2.51056-4.37933 1.96313-7.79364 1.42108-1.49561 2.53601-3.3363 2.85425-5.56378zm-6.18652 11.8999c-2.63184 2.48193-8.02051 1.8916-10.79785 1.37744.83594-1.09668 1.89551-2.96143 2.94238-6.10254.35645-1.06885.98535-1.79004 1.9209-2.20361 2.03735-.90051 4.95233-.16797 6.55536.36615-2.96143 2.40228-6.65369 3.54578-6.71259 3.56354-.52832.15918-.82812.7168-.66895 1.24561.12988.43262.52734.7124.95703.7124.09473 0 .19141-.01416.28711-.04248.25427-.07642 3.86292-1.18982 7.02264-3.61743.1109 2.0625-.3855 3.64453-1.50604 4.70093z"/><path d="m51.87402 47.51416c-4.56659-8.22064-12.26569-5.74585-14.6402-4.72754-.90399-1.06555-1.25311-2.01007-1.28656-2.10645-.17578-.52148-.73633-.80566-1.26367-.62891-.52344.1748-.80664.74121-.63184 1.26514.04175.12537.54706 1.547 1.9054 3.04651-.08716 1.13202-.10303 3.88123 1.51843 5.77234 1.06055 1.2373 2.58301 1.86475 4.52441 1.86475 6.34082 0 9.57227-3.1582 9.70703-3.29297.31543-.31543.38379-.80225.16699-1.19287zm-9.87402 2.48584c-1.34766 0-2.3291-.37988-3.00195-1.16113-.6712-.77985-.93597-1.84216-1.02814-2.75885 1.64746 1.08044 3.91766 1.91998 7.03009 1.91998.55273 0 1-.44775 1-1s-.44727-1-1-1c-2.77283 0-4.73834-.77252-6.11938-1.72736 2.41748-.85876 7.42938-1.78424 10.81665 3.49493-1.09277.77783-3.67285 2.23242-7.69727 2.23242z"/></g></svg>