<svg viewBox="0 0 64 64" xmlns="http://www.w3.org/2000/svg"><g id="Windy"><path d="m16 15a8.00917 8.00917 0 0 1 -8-8v-6h6a8.00917 8.00917 0 0 1 8 8v6z" fill="#f2b46b"/><path d="m19 63a7.00818 7.00818 0 0 1 -7-7v-5h5a7.00818 7.00818 0 0 1 7 7v5z" fill="#f2b46b"/><path d="m53.15039 34.71191a10.42826 10.42826 0 0 1 -7.727-3.3374l-.1582-.17822-.22168-.08789a10.60774 10.60774 0 0 1 -2.90869-17.64014 9.53363 9.53363 0 0 1 3.166 1.97656l.73389.68116.68017-.73438a12.90426 12.90426 0 0 1 9.75489-4.06006 17.08974 17.08974 0 0 1 2.55615.19727c2.39551 4.3833 2.605 8.96094.59033 12.88916l-.457.89062.89111.45606a9.51978 9.51978 0 0 1 2.94141 2.29687 10.4759 10.4759 0 0 1 -7.99219 6.48926 10.69127 10.69127 0 0 1 -1.84919.16113z" fill="#f2b46b"/><path d="m35.87 33.64a6.52588 6.52588 0 0 0 -4.35-1.39 6.67564 6.67564 0 0 0 -3.88 1.07c-.81.6-1.98 2.00995-.64 4.68a10.98808 10.98808 0 0 0 1.85 2.63l1.08 1.14.1-.04.08.06 1.43-.78a12.18784 12.18784 0 0 0 4.46-4.01 2.43447 2.43447 0 0 0 -.13-3.36z" fill="#aed9ff"/><g fill="#38342b"><path d="m16.004 16h5.586l.707.707a.99989.99989 0 0 0 1.414-1.414l-.707-.707v-5.586a9.01047 9.01047 0 0 0 -9-9h-6a1 1 0 0 0 -1 1v6a9.01047 9.01047 0 0 0 9 9zm-7-14h5a7.00787 7.00787 0 0 1 7 7v3.58594l-2-2v-2.58594a1 1 0 0 0 -2 0v.58594l-2.293-2.29294a.99989.99989 0 0 0 -1.414 1.414l3.99969 3.9997.00061.00061 2.2927 2.29269h-3.586a7.00787 7.00787 0 0 1 -7-7z"/><path d="m17.004 50h-4.58593l-1.707-1.707a.99989.99989 0 0 0 -1.41407 1.414l1.707 1.707v4.586a8.00917 8.00917 0 0 0 8 8h5a.99974.99974 0 0 0 1-1v-5a8.00917 8.00917 0 0 0 -8-8zm6 12h-4a6.00657 6.00657 0 0 1 -6-6v-2.58594l5.293 5.293a.99989.99989 0 1 0 1.414-1.41406l-5.29293-5.293h2.58593a6.00657 6.00657 0 0 1 6 6z"/><path d="m28.41026 23.91357c6.50488-2.89062 7.939-7.709 6.519-10.9624-1.17526-2.69433-4.40962-4.54492-8.31926-2.87012a.99987.99987 0 1 0 .78808 1.8379c2.83545-1.21485 4.94141.09863 5.69825 1.832 1.07226 2.456-.21241 5.98584-5.49854 8.33545-8.5127 3.78418-26.05518-2.9502-26.23145-3.01856a1.00006 1.00006 0 0 0 -.7246 1.86426c.57714.22461 11.1997 4.30273 20.29492 4.30273a18.61122 18.61122 0 0 0 7.4736-1.32126z"/><path d="m10.0045 32.95654a1.00033 1.00033 0 0 0 .27148-1.96289c-3.4541-.97607-5.88574-1.9165-5.90967-1.92578a1.00006 1.00006 0 0 0 -.7246 1.86426c.10205.03955 2.53808.98242 6.09033 1.98633a1.01321 1.01321 0 0 0 .27246.03808z"/><path d="m51.68712 51.00488c-6.9209-3.10937-20.06153 1.99024-20.61719 2.209a.99994.99994 0 0 0 .73144 1.86133c.12842-.04981 12.91455-5.01075 19.06641-2.2461 3.72217 1.67188 4.63037 4.21778 3.89893 5.876a2.73047 2.73047 0 0 1 -3.82666 1.206 1.00032 1.00032 0 0 0 -.79493 1.83594 5.68026 5.68026 0 0 0 2.2627.49707 4.54882 4.54882 0 0 0 4.189-2.73144c1.11764-2.53416.05758-6.27733-4.9097-8.5078z"/><path d="m63.76133 27.418a10.45391 10.45391 0 0 0 -3.25146-2.54346c2.14746-4.1875 1.9458-9.16211-.60254-13.82519a1.00094 1.00094 0 0 0 -.72754-.50928c-5.2583-.79834-9.99707.71875-13.19482 4.17187a10.4568 10.4568 0 0 0 -3.50391-2.1831 1.003 1.003 0 0 0 -.98584.17432 11.49309 11.49309 0 0 0 -3.69873 10.67138 11.61142 11.61142 0 0 0 5.96918 8.22632l-1.60687 2.2966a1 1 0 1 0 1.63867 1.14654l1.59979-2.2865a11.62213 11.62213 0 0 0 18.53839-4.35364.99928.99928 0 0 0 -.17432-.98586zm-8.93212 6.14844a9.80964 9.80964 0 0 1 -7.39686-1.73926l6.36854-1.125a1.00009 1.00009 0 0 0 -.34766-1.96973l-5.97876 1.05622 7.21509-10.31208a1 1 0 1 0 -1.63867-1.14648l-7.21521 10.31222-1.05628-5.97827a1.00009 1.00009 0 0 0 -1.96973.34766l1.12549 6.36871a9.80907 9.80907 0 0 1 -4.16894-6.35357 9.68545 9.68545 0 0 1 2.57763-8.394 9.03087 9.03087 0 0 1 2.9458 2.22461.97257.97257 0 0 0 .77832.33447.999.999 0 0 0 .75538-.38281c2.67138-3.41015 6.76757-4.94531 11.562-4.35937 2.19726 4.30664 2.15527 8.67773-.13281 12.35547a.99995.99995 0 0 0 .48 1.45752 9.03969 9.03969 0 0 1 3.09961 2.00537 9.68681 9.68681 0 0 1 -7.00294 5.29829z"/><path d="m39.91221 45.97266a15.28354 15.28354 0 0 0 9.73194-3.20411 1.00022 1.00022 0 0 0 -1.28028-1.5371c-2.83593 2.36425-7.48587 3.30175-11.84619 2.38964a14.41589 14.41589 0 0 1 -4.4956-1.73242 13.26929 13.26929 0 0 0 4.814-4.334c1.13623-1.7041 1.03711-3.39649-.272-4.64307-2.13379-2.0332-7.02246-2.2373-9.51074-.397-.8584.63476-2.66846 2.4834-.94385 5.93262a11.93545 11.93545 0 0 0 2.01851 2.86723c-9.07812 2.71-21.65478-1.21386-21.82031-1.26757a1 1 0 0 0 -.60791 1.90527c.73877.23633 14.45264 4.51367 24.17627.90527a15.95174 15.95174 0 0 0 6.23195 2.72071 18.58108 18.58108 0 0 0 3.80421.39453zm-12.01367-8.41993c-1.15918-2.31835-.02783-3.15527.34375-3.42968a5.56 5.56 0 0 1 3.22412-.86621 5.78943 5.78943 0 0 1 3.71826 1.10254c.39258.374.74561.94824-.01269 2.08593a11.54221 11.54221 0 0 1 -4.97022 4.09961 10.13408 10.13408 0 0 1 -2.30322-2.99219z"/><path d="m35.004 5h2a1 1 0 0 0 0-2h-2a1 1 0 0 0 0 2z"/><path d="m58.004 45h-2a1 1 0 1 0 0 2h2a1 1 0 0 0 0-2z"/></g></g></svg>