<svg enable-background="new 0 0 32 32" viewBox="0 0 32 32" xmlns="http://www.w3.org/2000/svg"><g id="Grid" display="none"/><g id="coin"/><g id="bomb"/><g id="gem"/><g id="ufo"/><g id="medal"/><g id="viking_helmet"/><g id="sword"/><g id="rocket"/><g id="torch"/><g id="spear"/><g id="money_bag"/><g id="crown"/><g id="heart"/><g id="skull"/><g id="star"/><g id="shield"/><g id="crystal"/><g id="gift"/><g id="map"/><g id="poison"/><g id="axe"/><g id="fried_chicken"/><g id="witch_hat"><path d="m16 25.6c4.865 0 8.744-1.532 11.163-2.772-.022-1.115-.166-2.827-.837-4.762-.938-2.707-2.101-3.533-2.582-5.163-.42-1.427-.352-3.585 1.795-6.828.51-.769-.088-1.795-1.007-1.711-3.906.357-11.6 1.928-16.277 8.638-2.595 3.723-3.243 7.568-3.418 9.826 2.419 1.24 6.298 2.772 11.163 2.772z" fill="#9487d8"/><path d="m26.33 18.061c.04.11.08.23.11.34-.96.16-1.93.3-2.89.41-.02-.06-.05-.13-.07-.2-.97-2.82-2.18-3.67-2.68-5.37-.5-1.72-.33-4.47 3.12-8.82.21-.02.42-.04.61-.06.92-.08 1.52.94 1.01 1.71-2.15 3.25-2.22 5.4-1.8 6.83.49 1.63 1.65 2.46 2.59 5.16z" fill="#7e76ce"/><path d="m27.16 22.831c-.7.36-1.52.74-2.45 1.1-2.91.41-5.81.61-8.71.61s-5.8-.2-8.71-.61c-.93-.36-1.75-.74-2.45-1.1.09-1.14.29-2.69.81-4.42 3.45.58 6.9.86 10.35.86 3.48 0 6.96-.29 10.44-.87.58 1.8.7 3.38.72 4.43z" fill="#3a3a3a"/><path d="m27.16 22.831c-.7.36-1.52.74-2.45 1.1-.51.07-1.01.14-1.52.19.42-.19.8-.38 1.16-.56-.02-1.12-.16-2.82-.8-4.75.96-.11 1.93-.25 2.89-.41.423 1.439.72 2.923.72 4.43z" fill="#333"/><path d="m20.265 19.42v4.86c0 .773-.602 1.424-1.374 1.461-.966.046-1.931.066-2.891.066s-1.925-.02-2.891-.066c-.773-.037-1.374-.687-1.374-1.461v-4.86c0-.826.684-1.496 1.51-1.461.918.039 1.834.057 2.755.057.915 0 1.834-.018 2.755-.057.826-.035 1.51.635 1.51 1.461z" fill="#ffd731"/><path d="m16 23.643c-.725 0-1.407-.013-2.072-.038v-3.463c.683.022 1.377.034 2.072.034.688 0 1.379-.011 2.072-.034v3.463c-.664.025-1.347.038-2.072.038z" fill="#3a3a3a"/><path d="m30 24.066c0 1.015-.69 1.92-1.678 2.152-4.096.963-8.216 1.425-12.322 1.425s-8.225-.462-12.322-1.425c-.988-.232-1.678-1.136-1.678-2.152 0-1.39 1.275-2.449 2.634-2.156 3.781.816 7.579 1.21 11.366 1.21s7.585-.393 11.366-1.21c1.359-.293 2.634.766 2.634 2.156z" fill="#9487d8"/><path d="m14.405 10.017c.08 0 .161-.022.232-.069 1.091-.712 2.301-1.326 3.599-1.827.219-.085.328-.33.243-.55-.085-.218-.328-.328-.55-.243-1.353.522-2.616 1.164-3.757 1.909-.196.128-.252.392-.123.588.082.124.218.192.356.192z" fill="#b6b5e2"/><path d="m12.522 11.433c.1 0 .199-.034.279-.104l.226-.192c.182-.149.207-.417.057-.598-.15-.182-.418-.206-.598-.057l-.243.206c-.177.154-.195.423-.041.6.084.096.202.145.32.145z" fill="#b6b5e2"/><path d="m29.444 22.014c-.555-.448-1.255-.63-1.946-.542-.116-1.195-.367-2.384-.767-3.542-.527-1.521-1.112-2.452-1.629-3.273-.401-.64-.748-1.191-.955-1.877-.52-1.759.067-3.938 1.746-6.474.328-.49.345-1.113.042-1.625-.302-.51-.849-.795-1.444-.744-4.167.384-11.861 2.04-16.58 8.819-1.782 2.549-2.902 5.484-3.348 8.722-.714-.107-1.435.075-2.007.535-.623.504-.98 1.252-.98 2.053 0 1.214.844 2.293 2.006 2.566 4.058.952 8.236 1.436 12.419 1.436s8.361-.483 12.419-1.436c1.162-.273 2.006-1.353 2.006-2.566-.001-.8-.359-1.548-.982-2.052zm-11.798.632c-1.097.033-2.194.033-3.291 0v-2.069c1.081.031 2.188.031 3.291 0zm.72-2.811c-.082-.08-.201-.124-.309-.12-1.383.042-2.771.04-4.115 0-.114.001-.227.041-.309.12-.083.08-.129.189-.129.305v2.484c-.451-.021-.9-.056-1.35-.088v-3.116c0-.289.115-.558.324-.757.202-.193.465-.299.742-.278 1.843.08 3.673.081 5.559 0 .274-.012.538.085.74.278.209.199.324.468.324.757v3.115c-.45.032-.899.068-1.35.088v-2.483c.002-.116-.044-.225-.127-.305zm-12.401-.951c1.807.29 3.598.499 5.341.623v2.961c-1.986-.173-3.959-.453-5.906-.846.129-.941.317-1.854.565-2.738zm14.729.63c1.754-.132 3.577-.346 5.439-.642.264.901.439 1.818.525 2.738-1.966.399-3.958.683-5.964.857zm-12.086-6.271c4.522-6.498 11.941-8.089 15.959-8.459.256-.026.501.1.637.33.137.23.13.5-.019.722-1.824 2.757-2.447 5.174-1.853 7.187.24.798.615 1.396 1.05 2.087.472.752 1.004 1.613 1.485 2.943-1.824.286-3.611.497-5.326.623-.1-.235-.247-.449-.435-.627-.372-.354-.857-.522-1.365-.513-1.856.08-3.666.079-5.48 0-.503-.018-.994.157-1.367.513-.185.176-.33.388-.431.619-1.712-.119-3.472-.325-5.248-.606.568-1.73 1.362-3.344 2.393-4.819zm19.616 12.562c-7.986 1.877-16.461 1.877-24.447 0-.783-.184-1.352-.915-1.352-1.738 0-.543.242-1.05.665-1.391.315-.255.699-.389 1.091-.389.121 0 .243.013.364.038 7.494 1.619 15.416 1.619 22.91 0 .509-.106 1.041.016 1.455.351.423.341.665.848.665 1.391 0 .823-.568 1.554-1.351 1.738z"/></g><g id="fire"/><g id="lightning"/></svg>