<svg id="Layer_1" enable-background="new 0 0 512.002 512.002" viewBox="0 0 512.002 512.002" xmlns="http://www.w3.org/2000/svg"><g><g><path d="m405.61 227.841s28.714-.838 39.163 26.109 9.899 59.394 29.147 58.844 19.798-21.998 17.598-34.097c0 0 28.606 37.797.888 69.885l6.811 12.099s-29.147 15.399-47.846-4.95-21.099-66.228-24.949-83.276-20.814-27.855-20.814-27.855v-16.759z" fill="#a8d3d8"/><path d="m491.519 278.698c2.2 12.099 1.65 33.547-17.598 34.097s-18.698-31.897-29.147-58.844c-10.449-26.948-39.163-26.109-39.163-26.109v16.76s16.964 10.807 20.814 27.855c1.8 7.971 3.284 22.245 6.264 37.265 4.795 2.1 9.586 3.204 14.146 3.073.401-.011.794-.032 1.179-.061 18.598-1.417 30.373 19.524 18.75 34.112-.463.581-.943 1.16-1.442 1.738l6.811 12.099s-3.404 1.796-8.627 3.351c17.042 6.496 35.714-3.351 35.714-3.351l-6.811-12.099c27.716-32.089-.89-69.886-.89-69.886z" fill="#8ebac5"/><path d="m283.638 277.048s5.29 50.279 56.242 78.764l7.002 40.575-12.185 31.339c-1.282 3.296 1.15 6.85 4.686 6.85h24.92l10.444-34.409-4.916-55.301-11.951-67.819h-74.242z" fill="#a8d3d8"/><path d="m208.382 309.124-10.063 57.278 8.77 56.858c.918 5.949-3.685 11.316-9.705 11.316h-18.462c-2.924 0-4.935-2.938-3.877-5.664l5.923-15.256-18.459-86.386 9.6-25.791z" fill="#a8d3d8"/><path d="m410.452 345.865c-7.863-10.296-21.734-33.078-13.584-57.528 11.06-33.18 24.578-85.409-34.409-110.601-58.987-25.193-94.011 10.446-147.468-3.072s-53.457-13.518-53.457-13.518l20.891-9.831s-24.578-11.675-37.481-10.446l14.132-12.289s-22.874-11.435-47.651-16.198c-4.376-9.442-12.265-23.485-24.457-34.959 0 0-10.421 15.089-14.006 35.336-22.373 5.687-27.661 19.196-32.476 33.641l-28.326 15.406c-4.323 2.351-5.925 7.759-3.582 12.086l7.752 14.312c1.622 2.995 4.808 4.805 8.21 4.665l39.295-1.615 7.988 20.891 28.265 19.03s2.458 41.186 7.373 52.246l11.06-9.438s6.453 3.622 16.334 8.849c.177 24.358 3.596 50.86 3.596 50.86l-2.75 75.343-14.722 18.819c-2.136 2.73-.191 6.721 3.276 6.721h21.541c4.682 0 8.713-3.306 9.629-7.897l13.822-69.255 22.674-47.173c11.911 4.925 22.973 8.744 31.056 10.037l3.687-16.59s48.542 4.916 83.565-23.349c0 0 30.108 52.228 59.602 64.517l4.916 55.301-15.469 25.479c-2.379 3.918.442 8.93 5.026 8.93h22.077c2.214 0 4.168-1.448 4.811-3.567l21.726-71.537c1.419-4.67.497-9.726-2.466-13.606z" fill="#eef5f6"/><g fill="#deecf1"><path d="m81.75 112.382c24.777 4.763 22.627 26.983 22.627 26.983 24.762-2.329 57.156 21.781 57.156 21.781l20.891-9.831s-24.578-11.675-37.481-10.446l14.132-12.289s-22.874-11.435-47.651-16.198c-4.376-9.442-12.265-23.485-24.457-34.959 0 0-6.612 9.582-11.114 23.715 2.411 4.102 4.372 7.955 5.897 11.244z"/><path d="m410.452 345.865c-7.863-10.296-21.734-33.078-13.584-57.528 11.06-33.18 24.578-85.409-34.409-110.601-20.791-8.879-38.603-10.198-55.296-8.779 8.428 2.222 16.952 5.077 25.621 8.779 58.987 25.192 45.469 77.421 34.409 110.601-8.15 24.45 5.721 47.233 13.584 57.528 2.963 3.879 3.885 8.936 2.466 13.607l-10.494 18.215 1.998 22.48-15.469 25.479c-2.379 3.918.442 8.93 5.026 8.93h22.077c2.214 0 4.168-1.448 4.811-3.567l21.726-71.537c1.419-4.671.497-9.727-2.466-13.607z"/><path d="m172.612 309.805c-6.33.186-12.023 3.896-14.766 9.604l-18.272 38.015-2.154 4.534-1.718 47.077-14.722 18.819c-2.136 2.73-.191 6.721 3.276 6.721h21.541c4.682 0 8.713-3.306 9.629-7.897l13.822-69.255 22.674-47.173c-4.348-.695-12.607-.642-19.31-.445z"/></g></g><g><path d="m501.412 349.284c10.356-14.293 13.19-31.35 8.177-49.656-4.021-14.684-11.761-25.021-12.088-25.455-2.096-2.77-5.819-3.738-8.997-2.342-3.18 1.396-4.984 4.792-4.363 8.209 1.277 7.023 1.334 16.993-2.708 21.979-1.022 1.351-3.381 3.264-7.928 3.285-6.443 0-9.379-9-14.058-27.928-2.02-8.17-4.309-17.431-7.685-26.139-9.081-23.417-29.475-29.114-39.944-30.478-5.48-22.316-21.051-39.087-46.413-49.917-34.76-14.849-61.564-9.866-87.486-5.046-12.172 2.263-23.669 4.4-35.936 4.531-4.143.044-7.465 3.437-7.421 7.579.044 4.115 3.394 7.42 7.498 7.42h.081c13.569-.144 26.253-2.502 38.52-4.783 24.819-4.614 48.264-8.974 78.853 4.094 48.561 19.984 43.891 61.795 30.239 101.331-3.911 11.734-7.197 35.711 14.732 64.45 1.498 1.964 1.969 4.532 1.258 6.872l-21.199 69.79h-17.359l13.976-23.017c.83-1.367 1.201-2.964 1.06-4.557l-4.921-55.3c-.247-2.776-2.013-5.186-4.586-6.258-24.857-10.36-51.54-53.879-55.486-60.495-4.078-16.09-3.021-38.152-3.003-38.51.215-4.137-2.964-7.665-7.1-7.88-4.151-.221-7.665 2.963-7.881 7.1-.049.946-1.059 21.489 2.571 39.162-31.793 22.789-73.963 18.956-74.391 18.914-3.786-.384-7.251 2.124-8.076 5.833l-2.063 9.278c-4.291-1.172-9.352-2.879-15.121-5.092l9.041-18.811c1.794-3.733.223-8.214-3.511-10.009-3.731-1.793-8.213-.223-10.009 3.511l-35.196 73.227c-.272.566-.472 1.165-.595 1.781l-13.822 69.254c-.216 1.081-1.173 1.866-2.275 1.866h-14.686l10.498-13.42c.975-1.246 1.53-2.767 1.588-4.348l2.749-75.343c-1.516-4.558-6.697-77.921.189-83.024 1.983-3.636.644-8.192-2.992-10.175-3.638-1.984-8.192-.644-10.176 2.993-2.986 5.474-4.772 14.282-5.384 26.651-3.382-1.846-5.363-2.954-5.398-2.974-2.739-1.534-6.145-1.201-8.535.838l-1.93 1.647c-1.966-11.4-3.489-28.248-4.145-39.19-.14-2.333-1.359-4.469-3.298-5.774l-16.77-11.289c4.903-3.281 8.719-7.262 11.32-10.465l10.909 5.252c1.838.885 3.957.983 5.867.272 1.912-.71 3.451-2.169 4.265-4.04 7.333-16.866.346-34.031.045-34.754-1.588-3.811-5.947-5.603-9.765-4.035-3.817 1.568-5.644 5.944-4.096 9.77.037.092 2.828 7.142 2.015 15.334l-8.413-4.051c-3.538-1.704-7.789-.391-9.75 3.009-.061.106-5.301 8.833-13.595 12.922l-5.464-14.311c-1.15-3.011-4.122-4.953-7.315-4.818l-39.3 1.62c-.535.025-1.048-.268-1.308-.748l-7.756-14.322c-.369-.679-.111-1.534.575-1.908l28.33-15.41c1.669-.908 2.931-2.416 3.531-4.218 3.805-11.42 7.234-19.579 16.787-24.813.454 3.561 3.413 6.383 7.12 6.538 4.129.164 7.633-3.043 7.805-7.182.564-13.549 5.379-25.755 9.169-33.393 13.916 16.423 20.022 35.143 20.091 35.357 1.016 3.189 3.966 5.226 7.145 5.226.751 0 1.515-.114 2.269-.353 3.219-1.02 5.265-4.011 5.234-7.22 8.518 2.44 16.26 5.337 22.047 7.715l-5.25 4.563c-2.461 2.139-3.258 5.622-1.973 8.618 1.285 2.995 4.351 4.811 7.604 4.509 4.267-.409 11.155 1.261 17.978 3.538l-5.292 2.49c-2.866 1.349-4.576 4.353-4.272 7.506.305 3.153 2.557 5.775 5.628 6.552l45.64 11.534c.617.156 1.235.23 1.844.23 3.353 0 6.406-2.265 7.266-5.665 1.015-4.016-1.418-8.094-5.434-9.109l-25.321-6.399 1.928-.907c2.624-1.234 4.301-3.872 4.307-6.771s-1.661-5.543-4.28-6.788c-1.73-.823-12.24-5.721-23.396-8.78l1.756-1.526c1.89-1.643 2.835-4.119 2.521-6.603s-1.848-4.647-4.086-5.766c-.925-.462-21.875-10.851-45.851-16.092-4.891-9.834-12.821-22.85-24.474-33.818-1.591-1.498-3.751-2.226-5.93-1.997-2.173.23-4.138 1.396-5.38 3.193-.497.719-9.878 14.487-14.284 33.671-21.616 7.146-28.041 22.219-32.197 34.389l-25.746 14.006c-7.951 4.326-10.905 14.308-6.591 22.24l7.745 14.302c2.961 5.48 8.915 8.862 15.119 8.6l33.909-1.397 6.055 15.859c.565 1.434 1.552 2.671 2.818 3.546l25.215 16.973c.762 10.986 3.201 40.851 7.76 51.119.96 2.164 2.886 3.747 5.194 4.271.55.125 1.106.186 1.66.186 1.767 0 3.498-.625 4.869-1.795l7.11-6.069c2.066 1.13 4.774 2.601 7.98 4.318.074 3.276.199 6.715.379 10.328.874 17.551 2.725 33.026 3.135 36.327l-2.638 72.303-13.223 16.903c-2.77 3.541-3.267 8.25-1.298 12.292 1.97 4.041 5.985 6.551 10.48 6.551h21.541c8.229 0 15.373-5.858 16.984-13.93l6.576-32.946 3.81 17.834-5.108 13.159c-1.396 3.592-.93 7.634 1.246 10.813 2.174 3.176 5.769 5.073 9.615 5.073h18.46c5.063 0 9.857-2.206 13.154-6.05 3.295-3.843 4.74-8.915 3.968-13.913l-8.582-55.637 7.153-40.733c3.205.882 6.109 1.533 8.724 1.95 3.91.627 7.643-1.906 8.504-5.778l2.313-10.402c14.035.302 47.259-1.272 75.482-20.282 9.138 14.383 31.258 46.303 54.643 58.576l4.322 48.572-14.188 23.368c-1.005 1.65-1.614 3.47-1.841 5.329h-8.033l10.871-27.973c.494-1.27.632-2.649.4-3.992l-7-40.58c-.385-2.23-1.756-4.167-3.731-5.271-13.19-7.374-24.33-17.002-33.111-28.617-2.497-3.304-7.2-3.957-10.505-1.46-3.305 2.498-3.958 7.202-1.46 10.506 9.333 12.347 20.97 22.714 34.623 30.854l6.049 35.066-11.426 29.398c-1.499 3.856-.999 8.198 1.339 11.614 2.336 3.415 6.198 5.454 10.332 5.454h47c5.564 0 10.383-3.578 11.985-8.89l21.73-71.538c2.11-6.94.733-14.541-3.685-20.332-7.614-9.979-19.354-29.824-12.427-50.608 3.121-9.363 6.179-19.565 8.092-30.115 7.057 8.099 7.767 16.446 9.485 28.085 3.268 21.751 8.205 54.623 24.286 72.124 12.961 16.843 43.526 14.578 56.876 6.506 1.79-.945 3.121-2.574 3.692-4.515s.333-4.031-.659-5.795zm-310.504 18.259 8.771 56.862c.142.914-.272 1.558-.532 1.86-.26.304-.836.813-1.766.813h-13.574l4.155-10.706c.529-1.363.648-2.851.344-4.281l-11.388-53.308 18.727-38.962c1.03.401 2.046.79 3.036 1.162l-7.747 44.119c-.143.807-.151 1.631-.026 2.441zm294.965-15.285 2.58 4.583c-10.825 3.619-24.537 2.286-31.562-6.186-12.975-14.12-17.502-44.259-20.498-64.203-.933-6.212-1.738-11.577-2.658-15.646-3.187-14.108-13.595-24.333-19.699-29.288.026-1.717 0-3.434-.07-5.152 7.621 1.802 18.557 6.745 23.81 20.294 3.031 7.815 5.104 16.204 7.109 24.315 4.78 19.341 9.72 39.333 28.477 39.331 10.179-.108 18.092-4.552 22.585-13.3 2.903 13.9-.189 26.221-9.214 36.669-2.067 2.394-2.41 5.827-.86 8.583z"/><path d="m59.834 149.13v4.744c0 4.142 3.357 7.5 7.5 7.5s7.5-3.358 7.5-7.5v-4.744c0-4.142-3.357-7.5-7.5-7.5s-7.5 3.358-7.5 7.5z"/></g></g><g/><g/><g/><g/><g/><g/><g/><g/><g/><g/><g/><g/><g/><g/><g/></svg>