<svg height="512" viewBox="0 0 54 60" width="512" xmlns="http://www.w3.org/2000/svg"><g id="Page-1" fill="none" fill-rule="evenodd"><g id="038---Scruffy-Woman"><g id="Icons_copy"><path id="Path" d="m52 59h-50l4.72-7.87c.82626598-1.3776879 2.10071583-2.4297268 3.61-2.98l.6-.22 8.07-2.93s0 7 8 10c8-3 8-10 8-10l8.08 2.94.59.21c1.5092842.5502732 2.783734 1.6023121 3.61 2.98z" fill="#ff9801"/><path id="Path" d="m24 55c.511463-.1922139 1.0121899-.4118661 1.5-.658-3.713001-1.6898507-6.2061888-5.2731369-6.5-9.342l-2.889 1.049c.345 2.064 1.789 6.665 7.889 8.951z" fill="#f57c00"/><path id="Path" d="m47.28 51.13c-.826266-1.3776879-2.1007158-2.4297268-3.61-2.98l-.59-.21-8.08-2.94c-.011904.3525311-.0489985.7037599-.111 1.051l5.191 1.889.59.21c1.5092842.5502732 2.783734 1.6023121 3.61 2.98l4.72 7.87h3z" fill="#f57c00"/><path id="Path" d="m35 45s0 7-8 10c-8-3-8-10-8-10 3.39-2.5 3.26-5.38 2.68-7.2.33.24.68.47 1.03.69 1.2766172.8633539 2.7540636 1.3833875 4.29 1.51 1.9461575-.2136907 3.7913359-.9767344 5.32-2.2-.58 1.82-.71 4.7 2.68 7.2z" fill="#dfc49c"/><path id="Path" d="m42 24.01c-.0055131 2.2052328-1.7947604 3.9900069-4 3.99l-1.47 4.42c-.387539 1.1769297-.9949564 2.2696023-1.79 3.22-.7154295.8161263-1.5281501 1.5415298-2.42 2.16-1.5286641 1.2232656-3.3738425 1.9863093-5.32 2.2-1.5359364-.1266125-3.0133828-.6466461-4.29-1.51-.35-.22-.7-.45-1.03-.69-.8918499-.6184702-1.7045705-1.3438737-2.42-2.16-.7950436-.9503977-1.402461-2.0430703-1.79-3.22l-1.47-4.42c-2.2036162 0-3.99-1.7863838-3.99-3.99s1.7863838-3.99 3.99-3.99c-.4587723-3.244153 1.1325726-6.4347995 4-8.02 0 0 2 5 9 5 0 0-.97-4.42 2-4 7 1 7 7.02 7 7.02 2.2052396-.0000069 3.9944869 1.7847672 4 3.99z" fill="#ffe0b2"/><path id="Path" d="m35 28-1.47 4.42c-.387539 1.1769297-.9949564 2.2696023-1.79 3.22-.7154295.8161263-1.5281501 1.5415298-2.42 2.16-1.1602749.8604526-2.4546923 1.5233728-3.831 1.962.4902272.1488694.9987469.2289671 1.511.238 1.9461575-.2136907 3.7913359-.9767344 5.32-2.2.8918499-.6184702 1.7045705-1.3438737 2.42-2.16.7950436-.9503977 1.402461-2.0430703 1.79-3.22l1.47-4.42c2.2036162 0 3.99-1.7863838 3.99-3.99s-1.7863838-3.99-3.99-3.99c0 0 0-6.02-7-7.02-.5096965-.1109362-1.0421547.016839-1.446.347 3.0790588.794385 5.2848941 3.4972016 5.446 6.673z" fill="#dfc49c"/><path id="Path" d="m50 18.02c3.1156902 5.0995561 3.8463291 11.3063334 2 16.99 0 0 0-1-2-2 0 0 0 9.91-6.92 14.93l-8.08-2.94c-3.39-2.5-3.26-5.38-2.68-7.2.8918499-.6184702 1.7045705-1.3438737 2.42-2.16.7950436-.9503977 1.402461-2.0430703 1.79-3.22l1.47-4.42c2.2036162 0 3.99-1.7863838 3.99-3.99s-1.7863838-3.99-3.99-3.99c0 0 0-6.02-7-7.02-2.97-.42-2 4-2 4-7 0-9-5-9-5-2.8674274 1.5852005-4.4587723 4.775847-4 8.02-1.4254897 0-2.7426966.7604897-3.4554415 1.995-.7127448 1.2345103-.7127448 2.7554897 0 3.99.7127449 1.2345103 2.0299518 1.995 3.4554415 1.995l1.47 4.42c.387539 1.1769297.9949564 2.2696023 1.79 3.22.7154295.8161263 1.5281501 1.5415298 2.42 2.16.58 1.82.71 4.7-2.68 7.2l-8.07 2.93c-6.93-5-6.93-14.92-6.93-14.92-2 1-2 2-2 2-1.8463291-5.6836666-1.11569021-11.8904439 2-16.99-1.08963707-.0518834-2.15942037.3047111-3 1 2-10 10-11.99 10-11.99-.8633451-.65317643-1.91741803-1.00453406-3-1 6-6 14-2 14-2s13-8 24 2c-1.082582-.00453406-2.1366549.34682357-3 1 0 0 8 1.99 10 11.99-.8405796-.6952889-1.9103629-1.0518834-3-1z" fill="#ffdf00"/><g fill="#fec108"><path id="Path" d="m19 4.03s.449-.276 1.248-.66c-1.8420136-.57303245-3.7818993-.76259672-5.7-.557 1.5390059.1677572 3.0416695.57852576 4.452 1.217z"/><path id="Path" d="m19.26 35.64c-.7950436-.9503977-1.402461-2.0430703-1.79-3.22l-1.47-4.42c-2.2036162 0-3.99-1.7863838-3.99-3.99s1.7863838-3.99 3.99-3.99c-.3234891-2.3341112.4167577-4.690276 2.017-6.42-.4121978-.483118-.754538-1.0217062-1.017-1.6-2.8674274 1.5852005-4.4587723 4.775847-4 8.02-1.4254897 0-2.7426966.7604897-3.45544146 1.995-.71274488 1.2345103-.71274488 2.7554897 0 3.99.71274486 1.2345103 2.02995176 1.995 3.45544146 1.995l1.47 4.42c.387539 1.1769297.9949564 2.2696023 1.79 3.22.7154295.8161263 1.5281501 1.5415298 2.42 2.16.58 1.82.71 4.7-2.68 7.2l-6.008 2.181c.3.259.608.511.938.749l8.07-2.93c3.39-2.5 3.26-5.38 2.68-7.2-.8918499-.6184702-1.7045705-1.3438737-2.42-2.16z"/><path id="Path" d="m53 19.02c-2-10-10-11.99-10-11.99.8633451-.65317643 1.917418-1.00453406 3-1-3.82905-3.60852102-9.0134637-5.41593796-14.256-4.97 4.2097822.32140146 8.1823651 2.07546482 11.256 4.97-1.082582-.00453406-2.1366549.34682357-3 1 0 0 8 1.99 10 11.99-.8405796-.6952889-1.9103629-1.0518834-3-1 3.1156902 5.0995561 3.8463291 11.3063334 2 16.99 0 0 0-1-2-2 0 0-.005 8.987-5.984 14.179l2.064.751c6.92-5.02 6.92-14.93 6.92-14.93 2 1 2 2 2 2 1.8463291-5.6836666 1.1156902-11.8904439-2-16.99 1.0896371-.0518834 2.1594204.3047111 3 1z"/><path id="Path" d="m29.554 13.347c-.5086714-.1540692-1.0281068-.2700564-1.554-.347-2.44-.345-2.221 2.571-2.065 3.626 1.0019726.2525318 2.0317024.3781824 3.065.374 0 0-.577-2.66.554-3.653z"/></g></g><g id="Icons" fill="#000"><path id="Path" d="m29 32h-4c-.5522847 0-1 .4477153-1 1s.4477153 1 1 1h4c.5522847 0 1-.4477153 1-1s-.4477153-1-1-1z"/><path id="Path" d="m28 35h-2c-.5522847 0-1 .4477153-1 1s.4477153 1 1 1h2c.5522847 0 1-.4477153 1-1s-.4477153-1-1-1z"/><path id="Path" d="m23 23h-2c-.5522847 0-1 .4477153-1 1s.4477153 1 1 1c0 .5522847.4477153 1 1 1s1-.4477153 1-1c.5522847 0 1-.4477153 1-1s-.4477153-1-1-1z"/><path id="Path" d="m33 23h-2c-.5522847 0-1 .4477153-1 1s.4477153 1 1 1c0 .5522847.4477153 1 1 1s1-.4477153 1-1c.5522847 0 1-.4477153 1-1s-.4477153-1-1-1z"/><path id="Path" d="m26 30h2c.5522847 0 1-.4477153 1-1s-.4477153-1-1-1h-2c-.5522847 0-1 .4477153-1 1s.4477153 1 1 1z"/><path id="Path" d="m20 22h4c.5522847 0 1-.4477153 1-1s-.4477153-1-1-1h-4c-.5522847 0-1 .4477153-1 1s.4477153 1 1 1z"/><path id="Path" d="m30 22h4c.5522847 0 1-.4477153 1-1s-.4477153-1-1-1h-4c-.5522847 0-1 .4477153-1 1s.4477153 1 1 1z"/><path id="Shape" d="m53.472 19.9c.3883317-.2081774.5946485-.6459915.508-1.078-1.408-7.042-5.6-10.34-8.313-11.775.138-.013.253-.019.333-.019.4132264.00016249.7839936-.25385883.9330602-.63926147.1490667-.38540264.0457274-.82279965-.2600602-1.10073853-10.228-9.3-22.23-3.707-24.729-2.374-1.944-.786-9.111-3.131-14.651 2.409-.28590792.28599425-.37142191.71603662-.21667798 1.08965456s.51928208.61725909.92367798.61734544c.081 0 .2.006.335.019-2.714 1.435-6.9 4.733-8.312 11.775-.08142062.425532.12044108.8550937.5 1.064.38301541.2087072.85670083.1482367 1.175-.15.102237-.0885747.21312916-.1666347.331-.233-2.27885503 4.9597957-2.63068174 10.5900923-.987 15.795.13387048.4648685.58130816.7672526 1.06256432.7180947s.85831726-.4357606.89543568-.9180947c.03155381-.0798743.07468182-.1546745.128-.222.328 2.965 1.536 8.785 5.906 12.775-1.30684232.6775291-2.40238935 1.7011236-3.167 2.959l-4.719 7.87c-.18668977.3082788-.19305391.6931661-.01665824 1.0074485s.5082593.5093344.86865824.5105515h50c.3600273-.0002844.6921104-.1940786.8694622-.5073933.1773518-.3133146.172592-.6977788-.0124622-1.0066067l-4.72-7.872c-.7627044-1.253979-1.8541544-2.2752248-3.156-2.953 4.363-4 5.568-9.816 5.9-12.779.0533182.0673255.0964462.1421257.128.222.0455387.4758142.4214366.852874.897108.8998809.4756715.047007.9181015-.2491837 1.055892-.7068809 1.6437882-5.2056534 1.2916009-10.8367292-.988-15.797.1131846.0640171.2200021.1386889.319.223.311022.3124303.7899478.3843301 1.179.177zm-7.049 31.744 3.811 6.356h-8.234v-2c0-.5522847-.4477153-1-1-1s-1 .4477153-1 1v2h-26v-2c0-.5522847-.4477153-1-1-1s-1 .4477153-1 1v2h-8.234l3.273-5.459.961.24v1.219c0 .5522847.44771525 1 1 1 .10737463-.0000947.21404726-.0173109.316-.051l3-1c.5246705-.174522.8085219-.7413295.634-1.266-.174522-.5246705-.7413295-.808522-1.266-.634l-1.684.564v-.613c-.00012679-.4589705-.31267183-.8589292-.758-.97l-1.022-.256c.66377099-.7574116 1.50678726-1.3363836 2.452-1.684l7.474-2.716c.423 2.357 2.069 7.128 8.46 9.544h.01l.032.015c.2259513.0830053.4740487.0830053.7 0l.032-.015h.01c6.391-2.416 8.037-7.187 8.46-9.544l2.1.762-.808 1.351c-.1753062.2927313-.1892549.6546439-.037.96l.678 1.356-1.49 1.49c-.2599566.2510745-.3642126.6228779-.2726972.9725073.0915155.3496295.3645604.6226744.7141899.7141899.3496294.0915154.7214328-.0127406.9725073-.2726972l2-2c.3044429-.3041447.3801654-.7689521.188-1.154l-.755-1.51.724-1.212 3.463 1.258c1.2927781.4743686 2.384967 1.3757066 3.096 2.555zm-26.768-38.2c1.071 1.635 3.762 4.556 9.345 4.556.3025632.000221.588958-.1365573.7789612-.3720214s.2631823-.5442927.1990388-.8399786c-.174-.806-.232-2.21.2-2.667.052-.056.191-.2.685-.131 6.01.859 6.139 5.8 6.142 6.032 0 .5522847.4477153 1 1 1 1.0939723-.0390997 2.1219124.5225472 2.6799732 1.4642861.5580608.941739.5570811 2.1131088-.0025543 3.0539129-.5596353.9408041-1.5885136 1.5007306-2.6824189 1.459801-.4302393.0003267-.8120445.2758064-.948.684l-1.475 4.424c-.3454302 1.0572247-.8895006 2.0387915-1.603 2.892-1.374 1.63-4.774 4-6.974 4s-5.6-2.37-6.974-4c-.7125321-.8533833-1.2555869-1.8349548-1.6-2.892l-1.475-4.423c-.1359563-.4096376-.5193909-.6858234-.951-.685-1.0814373.0197764-2.0892983-.5458448-2.6358065-1.47924-.5465083-.9333952-.5465083-2.0891248 0-3.02252.5465082-.9333952 1.5543692-1.4990164 2.6358065-1.47924.298577-.0001762.5814562-.1337605.7712841-.3642244s.2667442-.5336954.2097159-.8267756c-.339726-2.456713.6849933-4.9035464 2.674-6.385zm7.345 27.556c1.4127347-.0810293 2.7863569-.4945893 4.009-1.207.0466434 2.2457016 1.1411132 4.3402905 2.958 5.661-.4572374 3.5288399-2.7177064 6.5655283-5.967 8.016v-1.47c0-.5522847-.4477153-1-1-1s-1 .4477153-1 1v1.47c-3.2491766-1.4508314-5.509818-4.4872425-5.968-8.016 1.817627-1.3201862 2.9125857-3.4150024 2.959-5.661 1.2226431.7124107 2.5962653 1.1259707 4.009 1.207zm24.533-8.229c-.3429715-.2487221-.7062515-.4681619-1.086-.656-.3100616-.1549383-.6782442-.1382634-.9730309.0440684-.2947868.1823318-.4741307.5043136-.4739691.8509316 0 .092-.088 9.034-6.107 13.794l-7.413-2.693c-2.108-1.6-2.864-3.526-2.277-5.718.8412186-.6155919 1.6124838-1.3214672 2.3-2.105.8764068-1.0467306 1.5453359-2.2508709 1.971-3.548l1.265-3.794c2.41659-.3575606 4.2190196-2.4121018 4.2589601-4.8546746s-1.6943524-4.5549458-4.0979601-4.9913254c-.325-1.915-1.727-6.228-7.76-7.09-.8868113-.1892669-1.8083599.0945776-2.435.75-.6902014.9110431-.9963766 2.0560597-.853 3.19-5.271-.476-6.858-4.159-6.925-4.322-.1090083-.2721885-.3319804-.4828226-.609927-.5761773-.2779465-.0933546-.5828601-.0600227-.834073.0911773-2.8724984 1.6304859-4.6275303 4.6973831-4.578 8-2.3482174.5227991-3.9891277 2.6466059-3.9023461 5.0507508s1.8765465 4.4041158 4.2563461 4.7562492l1.265 3.794c.427633 1.2960977 1.0982526 2.498869 1.976 3.544.6875162.7835328 1.4587814 1.4894081 2.3 2.105.587 2.192-.169 4.116-2.277 5.718l-7.4 2.688c-6.017-4.728-6.123-13.699-6.123-13.79-.00018496-.3464401-.17966784-.6681037-.47439433-.8501945-.29472648-.1820909-.66270321-.1986643-.97260567-.0438055-.37984878.1870759-.74285987.4065554-1.085.656-1.05494957-4.8498481-.21602648-9.9195193 2.345-14.171.21693433-.3046857.24570455-.7049619.07457414-1.03754-.17113041-.3325782-.51355077-.5418557-.88757414-.54246-.50491109-.0018845-1.00831676.0551682-1.5.17 2.393-7.481 8.466-9.119 8.741-9.19.34965-.08705103.6254315-.3554761.7219019-.70264533s-.0012894-.7193929-.2559019-.97435467c-.4110504-.39376658-.9012605-.69546054-1.438-.885 5.123-3.487 11.012-.648 11.286-.513.3085274.15338759.6742884.13713994.968-.043.48-.294 11.3-6.75 21.192.563-.5310489.18820336-1.0158377.48753147-1.422.878-.2546234.25454008-.3527618.62630512-.2569457.97335411.0958162.34704899.3707938.61580108.7199457.70364589.278.071 6.351 1.709 8.742 9.19-.4916832-.1148318-.9950889-.1718845-1.5-.17-.374722.0000707-.7179578.2096317-.8892362.5429188-.1712784.333287-.141852.7343615.0762362 1.0390812 2.5754 4.2454049 3.4162951 9.3197842 2.348 14.169z" fill-rule="nonzero"/></g></g></g></svg>