<svg enable-background="new 0 0 32 32" viewBox="0 0 32 32" xmlns="http://www.w3.org/2000/svg"><g id="Grid" display="none"/><g id="bow_tie"/><g id="balloon_1_"/><g id="placeholder"/><g id="mic"/><g id="speaker"/><g id="champagne"/><g id="gift"/><g id="theater"/><g id="_camera"/><g id="video_camera"/><g id="party_hat"/><g id="champagne_glass"/><g id="man"/><g id="woman"><circle cx="16" cy="5.136" fill="#d39a62" r="3.134"/><path d="m19.13 5.132c0 1.73-1.4 3.14-3.13 3.14-.29 0-.57-.04-.83-.11 1.33-.37 2.31-1.59 2.31-3.03s-.98-2.65-2.31-3.02c.26-.07.54-.11.83-.11 1.73 0 3.13 1.4 3.13 3.13z" fill="#c68c58"/><path d="m16 19.507c4.88 0 9.302 2.937 9.766 6.689.107.866-.399 1.686-1.193 2.048-5.12 2.338-12.028 2.338-17.147 0-.793-.362-1.3-1.182-1.193-2.048.465-3.751 4.887-6.689 9.767-6.689z" fill="#ffb2c1"/><path d="m25.77 26.198c.1.86-.4 1.68-1.2 2.05-2 .91-4.28 1.47-6.61 1.66-.32.03-.65.05-.98.06-.65.03-1.31.03-1.96 0-.33-.01-.66-.03-.98-.06-2.33-.19-4.61-.75-6.61-1.66-.8-.37-1.3-1.19-1.2-2.05.09-.7.31-1.38.66-2.01-.01.04-.01.09-.02.13-.1.8.37 1.57 1.12 1.91 1.97.9 4.24 1.43 6.55 1.58.97.08 1.95.08 2.92 0 2.31-.15 4.58-.68 6.55-1.58.75-.34 1.22-1.11 1.12-1.91-.01-.04-.01-.09-.02-.13.35.63.57 1.31.66 2.01z" fill="#f99bb2"/><path d="m21.55 20.852-2.5 8.94c-2.01.27-4.09.27-6.1 0l-2.5-8.94c1.61-.84 3.54-1.34 5.55-1.34s3.94.5 5.55 1.34z" fill="#efefef"/><path d="m19.68 27.542-.63 2.25c-.7.09-1.41.16-2.12.18-.3.01-.62.02-.93.02s-.63-.01-.93-.02c-.71-.02-1.42-.09-2.12-.18l-.63-2.25c.73.13 1.47.22 2.22.27.97.08 1.95.08 2.92 0 .75-.05 1.49-.14 2.22-.27z" fill="#ddd"/><g fill="#f9bc93"><path d="m16 24.67c-1.741 0-3.153-1.412-3.153-3.153v-1.105c0-1.741 1.412-3.153 3.153-3.153 1.741 0 3.153 1.412 3.153 3.153v1.105c0 1.741-1.412 3.153-3.153 3.153z"/><ellipse cx="8.21" cy="15.607" rx="2.184" ry="2.454"/><ellipse cx="23.79" cy="15.607" rx="2.184" ry="2.454"/></g><path d="m16 22.569c-4.406 0-7.977-3.572-7.977-7.977v.204c0-4.406 3.572-7.977 7.977-7.977 4.406 0 7.977 3.572 7.977 7.977v-.204c0 4.406-3.571 7.977-7.977 7.977z" fill="#ffcaa6"/><path d="m16 5.723c2.765-.515 5.582.547 7.259 2.742 1.822 2.384 1.99 5.701.409 8.33-.617-2.439-1.65-3.467-2.521-3.947-.799-.44-1.507-.55-3.125-1.227-.684-.286-1.593-.613-2.022-1.176-.429.562-1.338.889-2.022 1.176-1.617.677-2.325.787-3.125 1.227-.871.479-1.905 1.508-2.521 3.947-1.581-2.629-1.413-5.946.409-8.33 1.677-2.195 4.494-3.258 7.259-2.742z" fill="#d39a62"/><path d="m23.67 16.792c-.3-1.17-.69-2.02-1.11-2.63.25-1.97-.26-3.99-1.49-5.6-1.19-1.55-2.92-2.56-4.82-2.88 2.68-.41 5.38.66 7.01 2.78 1.82 2.39 1.99 5.7.41 8.33z" fill="#c68c58"/><circle cx="24.087" cy="18.361" fill="#ffd731" r=".887"/><circle cx="7.913" cy="18.361" fill="#ffd731" r=".887"/><circle cx="12.504" cy="16.35" r=".63"/><circle cx="19.496" cy="16.35" r=".63"/><path d="m21.893 20.57c.439-.431.83-.909 1.167-1.43.24.315.601.533 1.027.533.723 0 1.311-.588 1.311-1.312 0-.161-.039-.312-.092-.455.67-.526 1.088-1.357 1.088-2.296 0-1.017-.484-1.916-1.254-2.439.057-1.765-.45-3.532-1.544-4.964-1.023-1.34-2.473-2.272-4.074-2.723.01-.114.032-.226.032-.344 0-1.966-1.595-3.564-3.555-3.564s-3.555 1.599-3.555 3.564c0 .119.022.23.032.344-1.602.451-3.052 1.383-4.074 2.723-1.095 1.432-1.601 3.199-1.544 4.964-.77.523-1.254 1.422-1.254 2.439 0 .939.418 1.771 1.088 2.296-.052.143-.09.294-.09.455 0 .724.588 1.312 1.311 1.312.426 0 .787-.217 1.027-.533.337.521.729 1 1.167 1.43-2.427 1.333-4.025 3.378-4.298 5.58-.122 1.037.46 2.033 1.444 2.477 2.616 1.195 5.682 1.793 8.748 1.793 3.064 0 6.129-.598 8.744-1.792.986-.444 1.568-1.44 1.446-2.48-.272-2.2-1.871-4.245-4.298-5.578zm2.195-1.747c-.255 0-.462-.207-.462-.462s.207-.462.462-.462c.254 0 .461.207.461.462s-.207.462-.461.462zm1.457-3.213c0 .677-.309 1.289-.786 1.652-.199-.123-.421-.212-.672-.212-.021 0-.038.011-.058.012.013-.043.03-.084.042-.127.501-.856.813-1.784.968-2.733.314.372.506.864.506 1.408zm-2.624-6.887c1.503 1.967 1.803 4.645.847 6.936-.548-1.531-1.358-2.6-2.416-3.182-.467-.258-.902-.409-1.453-.601-.447-.155-.987-.343-1.712-.646l-.233-.097c-.539-.222-1.186-.498-1.528-.863v-4.17c2.478-.335 4.997.661 6.495 2.623zm-9.626-3.583c0-1.497 1.214-2.715 2.705-2.715s2.705 1.218 2.705 2.715c0 .055-.012.106-.015.16-.88-.149-1.787-.169-2.69-.009-.903-.16-1.81-.14-2.69.009-.003-.054-.015-.105-.015-.16zm-4.216 3.583c1.308-1.712 3.395-2.701 5.554-2.701.313 0 .628.028.942.071v4.178c-.342.365-.989.641-1.528.863l-.232.096c-.726.304-1.266.491-1.713.646-.551.191-.986.343-1.453.601-1.058.582-1.868 1.65-2.416 3.182-.957-2.292-.657-4.97.846-6.936zm-1.167 10.1c-.254 0-.461-.207-.461-.462s.207-.462.461-.462c.255 0 .462.207.462.462s-.207.462-.462.462zm0-1.773c-.251 0-.472.09-.672.212-.477-.363-.786-.975-.786-1.652 0-.545.192-1.037.505-1.409.155.948.466 1.877.968 2.733.012.043.029.084.042.127-.019 0-.036-.011-.057-.011zm.865-.266c.472-1.787 1.238-2.989 2.281-3.563.404-.223.789-.356 1.322-.542.46-.159 1.016-.353 1.763-.665l.228-.094c.53-.219 1.163-.479 1.629-.868.466.389 1.099.649 1.629.868l.229.095c.746.312 1.302.505 1.762.664.533.186.918.319 1.322.542 1.043.574 1.81 1.776 2.281 3.563-.951 3.16-3.902 5.362-7.223 5.362s-6.272-2.202-7.223-5.362zm9.706 5.827c-.425.966-1.383 1.634-2.483 1.634s-2.058-.668-2.483-1.634c.791.246 1.625.384 2.483.384s1.691-.137 2.483-.384zm-11.831 3.642c.227-1.833 1.529-3.565 3.536-4.763l2.17 7.762c-1.672-.279-3.29-.729-4.754-1.399-.647-.291-1.03-.936-.952-1.6zm6.627 3.136-2.245-8.028c.461.338.957.627 1.479.866.333 1.648 1.782 2.867 3.487 2.867s3.155-1.219 3.487-2.867c.522-.239 1.018-.529 1.479-.866l-2.245 8.028c-1.8.221-3.642.221-5.442 0zm11.115-1.535c-1.463.669-3.081 1.119-4.752 1.398l2.171-7.762c2.006 1.198 3.309 2.93 3.536 4.76.077.667-.306 1.312-.955 1.604z"/><path d="m10.863 9.304c.102 0 .204-.036.285-.109.62-.561 1.384-.966 2.209-1.171.228-.057.366-.287.31-.515s-.284-.369-.515-.31c-.961.238-1.851.71-2.574 1.364-.174.157-.188.427-.03.601.084.093.199.14.315.14z" fill="#edba8c"/><path d="m9.559 10.663c.063.034.133.05.2.05.151 0 .299-.081.375-.225l.066-.118c.117-.203.048-.464-.155-.581-.203-.115-.463-.048-.581.155l-.08.144c-.111.207-.032.465.175.575z" fill="#edba8c"/><path d="m13.593 19.57c.041.035 1.009.853 2.407.853s2.366-.817 2.407-.853c.178-.153.198-.421.045-.6-.154-.179-.421-.198-.6-.045-.007.007-.766.647-1.853.647-1.074 0-1.847-.643-1.854-.648-.181-.151-.447-.129-.599.048-.15.179-.13.446.047.598z"/><path d="m11.987 15.146c.002-.002.214-.172.497-.172.28 0 .489.166.497.172.079.067.177.1.273.1.119 0 .238-.05.322-.147.153-.178.133-.446-.045-.6-.045-.038-.452-.374-1.048-.374s-1.003.336-1.048.374c-.176.152-.195.415-.046.594.15.177.419.2.598.053z"/><path d="m19.019 15.146c.002-.002.214-.172.497-.172.28 0 .489.166.497.172.079.067.177.1.273.1.119 0 .238-.05.322-.147.153-.178.133-.446-.045-.6-.045-.038-.452-.374-1.048-.374s-1.003.336-1.048.374c-.176.152-.195.415-.046.594.149.177.418.2.598.053z"/><ellipse cx="11.651" cy="18.244" fill="#fc779d" rx=".714" ry=".305"/><ellipse cx="20.349" cy="18.244" fill="#fc779d" rx=".714" ry=".305"/><circle cx="12.304" cy="16.149" fill="#efefef" r=".161"/><circle cx="19.295" cy="16.149" fill="#efefef" r=".161"/></g><g id="skewer"/><g id="ticket"/><g id="cake"/><g id="lights"/><g id="photo"/><g id="invitation"/></svg>