<svg viewBox="0 0 64 64" xmlns="http://www.w3.org/2000/svg"><g id="Trunk"><path d="m7 13a6.63226 6.63226 0 0 1 -4-6 6.63226 6.63226 0 0 1 4-6 6.63226 6.63226 0 0 1 4 6 6.63226 6.63226 0 0 1 -4 6z" fill="#f2b46b"/><path d="m1 41 2-4 7 4v8z" fill="#a56862"/><path d="m50 32 10-5 2 5-12 13z" fill="#a56862"/><path d="m53.146 63a16.03526 16.03526 0 0 1 -7.77051-2.01367l-5.37549-2.98633-6.3042 3.93994a7.10079 7.10079 0 0 1 -7.3916 0l-6.3042-3.93994-5.37549 2.98633a16.03526 16.03526 0 0 1 -7.77051 2.01367h-4.854l5.93262-9.64062a13.92689 13.92689 0 0 0 2.06738-7.30372v-25.05566h40v25.05566a13.92689 13.92689 0 0 0 2.06738 7.30372l5.93262 9.64062z" fill="#b78577"/><ellipse cx="36" cy="44" fill="#a56862" rx="2" ry="4"/><ellipse cx="30" cy="21" fill="#c69f91" rx="20" ry="10"/><g fill="#38342b"><path d="m14.37165 50.31055a.99821.99821 0 0 0 -1.29981.55664 12.95862 12.95862 0 0 1 -.99072 1.96826l-1.93262 3.14062a.99983.99983 0 1 0 1.70313 1.04786l1.93261-3.14014a14.9402 14.9402 0 0 0 1.14405-2.27344.99944.99944 0 0 0 -.55664-1.2998z"/><path d="m30.00006 28c8.55127 0 15-3.00928 15-7s-6.44873-7-15-7c-1.04052 0-2.08154.04785-3.09326.14258a1 1 0 1 0 .18653 1.99121c.94967-.08887 1.92773-.13379 2.90673-.13379 7.66114 0 13 2.63525 13 5s-5.33886 5-13 5-13-2.63525-13-5c0-.9585.87989-1.96484 2.47754-2.8335a.99983.99983 0 1 0 -.95507-1.75683c-2.91114 1.58252-3.52247 3.36963-3.52247 4.59033 0 3.99072 6.44874 7 15 7z"/><path d="m30.00006 24c.70508 0 1.39161-.01758 2.05079-.05127a.99983.99983 0 1 0 -.10157-1.99707c-.62695.03174-1.27928.04834-1.94922.04834a22.48056 22.48056 0 0 1 -7.61621-1 22.48056 22.48056 0 0 1 7.61621-1 22.55524 22.55524 0 0 1 7.60889.99658 6.66167 6.66167 0 0 1 -.874.29639 1.00014 1.00014 0 1 0 .53027 1.92871c.67627-.186 2.73486-.75147 2.73486-2.22168 0-2.78369-7.65429-3-10-3s-10 .21631-10 3 7.65428 3 9.99998 3z"/><path d="m20.00006 44a2.002 2.002 0 0 1 -2-2v-1a1 1 0 0 0 -2 0v1a4.00768 4.00768 0 0 0 3 3.87354v3.12646a1 1 0 0 0 2 0v-4a1 1 0 0 0 -1-1z"/><path d="m33.00006 44c0 2.85059 1.28956 5 3 5s3-2.14941 3-5-1.28955-5-3-5-3 2.14941-3 5zm3-3c.249 0 1 1.064 1 3s-.751 3-1 3-1-1.064-1-3 .75094-3 1-3z"/><path d="m23.00006 34a1 1 0 0 0 0 2c.40772 0 1 .7793 1 2s-.59228 2-1 2-1-.7793-1-2a1 1 0 0 0 -2 0c0 2.24316 1.31788 4 3 4s3-1.75684 3-4-1.31787-4-3-4z"/><path d="m63.7071 37.293-2.72059-2.72058 1.74842-1.89417a1.0009 1.0009 0 0 0 .19385-1.0498l-2-5a1.00086 1.00086 0 0 0 -1.376-.52295l-3.55274 1.77637v-2.88187a1 1 0 1 0 -2 0v3.88184l-3 1.5v-9.38184c0-6.16846-9.22412-11-21-11-7.55773 0-14.04858 1.99609-17.74023 5.05249a.96663.96663 0 0 0 -.25975-.05249 3.99515 3.99515 0 0 1 -3.342-1.81305 7.49348 7.49348 0 0 0 3.342-6.18695 7.6214 7.6214 0 0 0 -4.58056-6.90771.99928.99928 0 0 0 -.83887 0 7.62141 7.62141 0 0 0 -4.58057 6.90771 7.62141 7.62141 0 0 0 4.58057 6.90771.97064.97064 0 0 0 .20215.0445 6.01528 6.01528 0 0 0 3.75171 2.85919 6.84656 6.84656 0 0 0 -1.53443 4.1886v18.27692l-5.5039-3.14508a1.00032 1.00032 0 0 0 -1.39063.42089l-2 4a1.00047 1.00047 0 0 0 .23 1.19483l8.2884 7.36725a13.02625 13.02625 0 0 1 -1.54523 3.72113l-5.9302 9.64013a.99977.99977 0 0 0 .85156 1.52393h4.8501a17.00685 17.00685 0 0 0 8.25584-2.13574l4.86426-2.70362 5.80174 3.62891a8.00047 8.00047 0 0 0 4.06512 1.17755.42042.42042 0 0 0 .32636-.00012 8.00389 8.00389 0 0 0 4.067-1.17938l5.79932-3.627 4.86377 2.70313a17.00519 17.00519 0 0 0 8.25643 2.13627h4.85009a.99977.99977 0 0 0 .85157-1.52393l-5.9292-9.63916a12.95544 12.95544 0 0 1 -1.92237-6.77685v-.66906l8.62891-9.348 2.664 2.664a.99989.99989 0 0 0 1.4141-1.414zm-59.70704-30.293a5.58926 5.58926 0 0 1 3-4.87988 5.58924 5.58924 0 0 1 3 4.87988 5.4576 5.4576 0 0 1 -1.98333 4.16461c-.00232-.05578-.01667-.10821-.01667-.16461v-3a1 1 0 0 0 -2 0v3c0 .06287.00745.12384.0094.18622a5.46043 5.46043 0 0 1 -2.0094-4.18622zm45 14c0 4.87842-8.70117 9-19 9s-19-4.12158-19-9 8.70118-9 19-9 19 4.12158 19 9zm-46.76269 19.76172 1.18457-2.36914 5.57812 3.18762v4.47986c0 .231-.01165.46124-.024.69128zm48.981 13.12207 4.99263 8.11621h-3.061a15.00417 15.00417 0 0 1 -7.28418-1.88379l-2.86573-1.59283v-16.52338a7.00786 7.00786 0 0 0 -7-7 1 1 0 1 0 0 2 5.00588 5.00588 0 0 1 5 5v15.41174l-.51419-.28574a.99728.99728 0 0 0 -1.01611.02636l-6.29736 3.938a5.92769 5.92769 0 0 1 -2.17237.80121v-3.89157a1 1 0 0 0 -2 0v3.89178a5.92368 5.92368 0 0 1 -2.16992-.79949l-5.83008-3.64618v-4.44611a1 1 0 0 0 -2 0v4.4118l-4.86621 2.7049a15.00583 15.00583 0 0 1 -7.28369 1.8833h-3.061l4.99365-8.11719a14.95521 14.95521 0 0 0 2.21728-7.82275v-20.32562a13.29677 13.29677 0 0 0 3 2.45269v7.81287a1 1 0 1 0 2 0v-6.75171a33.2426 33.2426 0 0 0 13 2.72608v15.02563a7.00787 7.00787 0 0 0 7 7 1 1 0 0 0 0-2 5.00589 5.00589 0 0 1 -5-5v-15.02563a33.24252 33.24252 0 0 0 13-2.72608v5.75171a1 1 0 0 0 2 0v-6.81287a13.29632 13.29632 0 0 0 3-2.45269v20.32562a14.95313 14.95313 0 0 0 2.21824 7.82373zm-.21827-21.26563 8.4751-4.23779 1.3618 3.40527-9.83694 10.65668z"/></g></g></svg>