<svg clip-rule="evenodd" fill-rule="evenodd" height="512" image-rendering="optimizeQuality" shape-rendering="geometricPrecision" text-rendering="geometricPrecision" viewBox="0 0 512 512" width="512" xmlns="http://www.w3.org/2000/svg"><g id="Layer_x0020_1"><path d="m39 116v104c0 3-2 5-5 5s-5-2-5-5v-104c0-3 2-5 5-5s5 2 5 5zm-29-9v244c10-14 27-24 45-24 19 0 35 9 45 24v-78l-20-13c-1-1-2-2-2-4s1-3 2-4l20-13v-132c0-25-20-45-45-45s-45 20-45 45z" fill="#fdc479"/><path d="m146 203v25s0 0 1 1l6 4c1 0 2 2 2 4v14l8 12c1 1 1 2 1 3v12c14 13 16 27 19 40 1 8 3 15 7 21h7 5c5 0 11 1 15 6 0 0 1 1 1 2l9 36 21-41v-2l-4-29v-1l-18-9c-1 0-1 0-1-1l-19-3c-1-1-2-1-3-2l-12-15c0-1-1-2-1-3v-7c0-3 2-5 5-5h7c1 0 3 0 4 1l7 7h8v-6c0-2 1-3 2-4l12-11s0-1 1-2l3-11v-1l-3-12c-1 0-1-1-1-1l-11-7c-2-1-3-2-3-4v-16l-8-21-13 11c0 1-1 1-1 2l-11 3-2 2-1 1-16 13c-1 2-3 2-5 1z" fill="#fba62e"/><path d="m240 172 4 12 17 13 18-34v-1-12-1l-13-3c-1 0-1-1-2-1h-11s0 0-1 0l-17 9v1z" fill="#fba62e"/><path d="m206 169c2-1 4-3 8-3 1 0 2 0 3 1 0 0 1 1 1 1 1 1 3 2 4 5l8 22c1 1 1 1 1 2v14l9 6h1c1 1 2 3 2 3 1 1 1 2 2 2l4 13v2 3 1l-4 13c-1 1-1 2-1 2-1 1-1 2-2 3l-11 10v5c0 5-4 9-9 9h-9c-1 0-4 0-6-2l-7-6 10 12 18 4c2 0 3 1 4 2l16 8c3 1 4 4 5 5 1 0 1 1 1 2l4 31v1 3 2l-23 43c-1 4-4 7-9 7s-7-4-8-7c-1 0-1-1-1-1l-9-36c-2-2-6-2-11-2-5 1-12 1-15-4-6-8-7-16-9-25-2-12-5-24-16-35h-1c-2-3-2-6-2-7v-10l-7-11c-1-1-2-3-2-5v-12l-3-2c-3-1-6-5-6-9v-26c0-4 2-6 3-8 3-2 6-2 8-2h2l16 7 13-12 3-3c1 0 1-1 2-1l11-3zm24 5-5-18s0 0 0-1c0-4 2-8 6-9l16-9c2-2 4-2 5-2h14c2 0 3 1 4 2l12 3c1 0 2 1 3 2 1 1 4 3 4 7v14c0 1 0 3-2 5l-17 34c-1 2-2 4-6 6 0 0-1 0-2 0h-1c-3 0-4-1-5-2l-17-13c-1-1-2-2-3-3 0 0 0 0-1 0 0-1-1-2-1-2l-4-13zm41 104c0-3 2-5 3-7l9-8c-2-3-4-7-2-11 1-2 4-10 8-12l14-10h-4c-4 0-7-2-9-5-1-3-1-7 1-9l8-16c1-4 2-5 4-6l12-8h1c4-2 8-2 10 0l12 8 8 3 66-46c1-1 2-1 3-1h4 2l53 27c4 2 6 6 6 10 0 1 0 1-1 2l-4 13c-1 3-3 5-6 6 0 0-1 1-1 1l-11 2 3 5c2 2 2 5 2 7v1l-4 22c-1 1-1 2-2 2v1s-1 1-2 3l-32 29 5 5c0 1 1 2 1 3 0 1 1 4-1 6l-3 17s-1 1-1 1c-1 3-3 5-5 6-3 1-6 0-9-2l-12-8c-3-1-5-3-5-6l-4-9-6 11c-1 3-4 5-7 5-3 1-6 0-8-2l-12-14c-2 1-3 2-4 2l1 1c1 0 1 0 1 1 5 4 4 8 3 11l-8 43v20c0 4-2 8-6 9l-17 9c-1 0-3 1-5 1s-4-1-6-2l-9-10c-2-2-2-4-2-6l-4-27c-6-11-12-22-17-33-3-6-6-11-9-17 0 0 0 0-1 0 0-1-1-4-1-18zm112 172h117l2-344h-95l3 32c0 2-1 4-3 5s-4 1-5 0l-43-37h-153l-1 33c0 2-1 4-3 5-2 0-5 0-6-2l-29-36h-57v1 135c0 2-1 3-2 4l-16 10 16 10c1 1 2 2 2 4v113c0 3-2 5-5 5s-5-2-5-5c0-25-20-46-45-46-24 0-45 21-45 46 0-3-2-5-5-5s-5 2-5 5c0 20 8 40 23 54 15 15 34 23 55 23h28 1c3-1 4-3 4-5 0-3-2-5-5-5h-2 2 64l36-54c1-2 3-3 5-2 3 1 4 3 4 5l-3 51h137l-2-40c0-2 1-4 3-5s5 0 6 2zm12-92 13-14c3-2 6-2 8-2h1l20 4 5-3h1c2-2 4-2 7-1 1 1 3 2 4 4l14 17v1c2 3 2 6 0 9l-9 22c-1 3-3 5-6 6 0 0-1 0-2 0-2 0-4-1-5-2l-10-7-24 4c-3 1-5 0-6-1-2-1-3-2-3-3l-9-13c-3-3-2-8-2-12 0-1 0-2 0-2 0-4 2-6 3-7z" fill="#fedfb4"/><path d="m316 225c1 0 2 2 2 4 0 1 0 3-2 4l-21 15c-1 1-3 5-4 8l1 3c0 1 1 2 2 3 1 2 0 4-1 6l-11 11h-1c0 10 1 12 1 13 3 5 6 11 9 16 6 11 12 23 18 35v1l4 28v1l8 8s0 0 0-1l17-8v-21-1l9-44s0 0 0-1l-11-7c-1-1-2-2-2-4v-5c0-2 1-3 2-4s3-1 5-1c1 1 2 1 3 2 2 0 3 1 4 1l2-1c1-1 2-2 4-2 2-1 4-1 6 1l14 15 9-16v-1l3-4c1-1 3-2 5-2s3 2 4 3l7 20 13 9 3-17s0 0 0-1l-6-8c-1-2-1-5 1-7l35-31c0-1 0-1 0-1s0 0 1-1l3-20v-1l-7-10c-1-2-1-5 1-6l1-1c0-1 1-2 2-2l17-4 4-12s0 0 0-1l-52-26h-1l-67 46c-1 1-3 1-4 1l-11-3c-1 0-1-1-2-1l-12-9-12 8v1l-9 17h6c1 0 2 0 3 1z" fill="#fba62e"/><path d="m437 356-21-4h-1l-13 13v3 5l9 13 25-4h1c1 0 2 0 3 1l11 7 8-21h1l-14-17-5 3c-1 1-3 1-4 1z" fill="#fba62e"/><g id="_439492760"><g><g><g><path d="m226 395c-5 0-7-4-8-7-1 0-1-1-1-1l-9-36c-2-2-6-2-11-2-5 1-12 1-15-4-6-8-7-16-9-25-2-12-5-24-16-35h-1c-2-3-2-6-2-7v-10l-7-11c-1-1-2-3-2-5v-12l-3-2c-3-1-6-5-6-9v-26c0-4 2-6 3-8 3-2 6-2 8-2h2l16 7 13-12 3-3c1 0 1-1 2-1l11-3 12-12c2-1 4-3 8-3 1 0 2 0 3 1 0 0 1 1 1 1 1 1 3 2 4 5l8 22c1 1 1 1 1 2v14l9 6h1c1 1 2 3 2 3 1 1 1 2 2 2l4 13v2 3 1l-4 13c-1 1-1 2-1 2-1 1-1 2-2 3l-11 10v5c0 5-4 9-9 9h-9c-1 0-4 0-6-2l-7-6 10 12 18 4c2 0 3 1 4 2l16 8c3 1 4 4 5 5 1 0 1 1 1 2l4 31v1 3 2l-23 43c-1 4-4 7-9 7zm-24-56c5 0 11 1 15 6 0 0 1 1 1 2l9 36 21-41v-2l-4-29v-1l-18-9c-1 0-1 0-1-1l-19-3c-1-1-2-1-3-2l-12-15c0-1-1-2-1-3v-7c0-3 2-5 5-5h7c1 0 3 0 4 1l7 7h8v-6c0-2 1-3 2-4l12-11s0-1 1-2l3-11v-1l-3-12c-1 0-1-1-1-1l-11-7c-2-1-3-2-3-4v-16l-8-21-13 11c0 1-1 1-1 2l-11 3-2 2c-1 0-1 1-1 1l-16 13c-1 2-3 2-5 1l-18-7v25s0 0 1 1l6 4c1 0 2 2 2 4v14l8 12c1 1 1 2 1 3v12c14 13 16 27 19 40 1 8 3 15 7 21h7z"/></g><g><path d="m262 208h-1c-3 0-4-1-5-2l-17-13c-1-1-2-2-3-3 0 0 0 0-1 0 0-1-1-2-1-2l-4-13v-1l-5-18s0 0 0-1c0-4 2-8 6-9l16-9c2-2 4-2 5-2h14c2 0 3 1 4 2l12 3c1 0 2 1 3 2 1 1 4 3 4 7v14c0 1 0 3-2 5l-17 34c-1 2-2 4-6 6 0 0-1 0-2 0zm-18-24 17 13 18-34v-1-12-1l-13-3c-1 0-1-1-2-1h-11s0 0-1 0l-17 9v1l5 17z"/></g><g><path d="m320 391c-2 0-4-1-6-2l-9-10c-2-2-2-4-2-6l-4-27c-6-11-12-22-17-33-3-6-6-11-9-17 0 0 0 0-1 0 0-1-1-4-1-18 0-3 2-5 3-7l9-8c-2-3-4-7-2-11 1-2 4-10 8-12l14-10h-4c-4 0-7-2-9-5-1-3-1-7 1-9l8-16c1-4 2-5 4-6l12-8h1c4-2 8-2 10 0l12 8 8 3 66-46c1-1 2-1 3-1h4 2l53 27c4 2 6 6 6 10 0 1 0 1-1 2l-4 13c-1 3-3 5-6 6 0 0-1 1-1 1l-11 2 3 5c2 2 2 5 2 7v1l-4 22c-1 1-1 2-2 2v1s-1 1-2 3l-32 29 5 5c0 1 1 2 1 3 0 1 1 4-1 6l-3 17s-1 1-1 1c-1 3-3 5-5 6-3 1-6 0-9-2l-12-8c-3-1-5-3-5-6l-4-9-6 11c-1 3-4 5-7 5-3 1-6 0-8-2l-12-14c-2 1-3 2-4 2l1 1c1 0 1 0 1 1 5 4 4 8 3 11l-8 43v20c0 4-2 8-6 9l-17 9c-1 0-3 1-5 1zm-7-18 8 8s0 0 0-1l17-8v-21-1l9-44s0 0 0-1l-11-7c-1-1-2-2-2-4v-5c0-2 1-3 2-4s3-1 5-1c1 1 2 1 3 2 2 0 3 1 4 1 0 0 1-1 2-1 1-1 2-2 4-2 2-1 4-1 6 1l14 15 9-16v-1l3-4c1-1 3-2 5-2s3 2 4 3l7 20 13 9 3-17s0 0 0-1l-6-8c-1-2-1-5 1-7l35-31c0-1 0-1 0-1s0 0 1-1l3-20c0-1 0-1 0-1l-7-10c-1-2-1-5 1-6l1-1c0-1 1-2 2-2l17-4 4-12s0 0 0-1l-52-26h-1l-67 46c-1 1-3 1-4 1l-11-3c-1 0-1-1-2-1l-12-9-12 8v1l-9 17h6c1 0 2 0 3 1l7 4c1 0 2 2 2 4 0 1 0 3-2 4l-21 15c-1 1-3 5-4 8 0 1 1 2 1 3s1 2 2 3c1 2 0 4-1 6l-11 11h-1c0 10 1 12 1 13 3 5 6 11 9 16 6 11 12 23 18 35v1l4 28z"/></g><g><path d="m451 401c-2 0-4-1-5-2l-10-7-24 4c-3 1-5 0-6-1-2-1-3-2-3-3l-9-13c-3-3-2-8-2-12 0-1 0-2 0-2 0-4 2-6 3-7l13-14c3-2 6-2 8-2h1l20 4 5-3h1c2-2 4-2 7-1 1 1 3 2 4 4l14 17v1c2 3 2 6 0 9l-9 22c-1 3-3 5-6 6 0 0-1 0-2 0zm-14-19c1 0 2 0 3 1l11 7 8-21h1l-14-17-5 3c-1 1-3 1-4 1l-21-4h-1l-13 13v3 5l9 13 25-4z"/></g></g><g><path d="m505 460h-124c-2 0-3-1-4-2l-19-30 1 27c0 1 0 2-1 3s-3 2-4 2h-147c-1 0-3-1-4-2 0-1-1-2-1-3l2-38-27 41c-1 1-2 2-4 2h-67c-3 0-5-2-5-5s2-5 5-5h64l36-54c1-2 3-3 5-2 3 1 4 3 4 5l-3 51h137l-2-40c0-2 1-4 3-5s5 0 6 2l27 43h117l2-344h-95l3 32c0 2-1 4-3 5s-4 1-5 0l-43-37h-153l-1 33c0 2-1 4-3 5-2 0-5 0-6-2l-29-36h-57v1c0 3-2 5-5 5s-5-2-5-5v-6c0-3 2-5 5-5h64c2 0 3 1 4 2l22 27 1-24c0-3 2-5 5-5h160c1 0 2 0 3 1l35 30-3-25c0-2 0-3 1-4s3-2 4-2h106c1 0 3 0 3 1 1 1 2 3 2 4l-2 354c0 3-2 5-5 5z"/></g><g><path d="m105 388c-3 0-5-2-5-5 0-25-20-46-45-46-24 0-45 21-45 46 0 3-2 5-5 5s-5-2-5-5v-276c0-30 25-55 55-55 31 0 55 24 55 55v135c0 2-1 3-2 4l-16 10 16 10c1 1 2 2 2 4v113c0 3-2 5-5 5zm-50-326c-25 0-45 20-45 45v244c10-14 27-24 45-24 19 0 35 9 45 24v-78l-20-13c-1-1-2-2-2-4s1-3 2-4l20-13v-132c0-25-20-45-45-45z"/></g><g><path d="m106 460h-28c-21 0-40-8-55-23-15-14-23-34-23-54 0-3 2-5 5-5s5 2 5 5c0 36 31 67 68 67h28c3 0 5 2 5 5s-2 5-5 5z"/></g><g><path d="m34 225c-3 0-5-2-5-5v-104c0-3 2-5 5-5s5 2 5 5v104c0 3-2 5-5 5z"/></g></g></g></g></svg>