<svg id="Layer_1" viewBox="0 0 64 64" xmlns="http://www.w3.org/2000/svg" data-name="Layer 1"><path d="m44.01 54.04c-4.72-1.13-12.65-3.04-18.32-4.4-3.8-.91-6.28-4.56-5.72-8.43l.03-.18c.58-4.05 2.01-7.04 8.08-7.04 9.92 0 16.92-5 18.46-15.72l1.98-12.3c.27-1.65-.85-3.2-2.49-3.47-1.67-.28-3.24.86-3.49 2.53l-1.83 11.91c-1.7 9.06-5.7 11.06-12.89 11.06-9.81 0-13.47 5.46-14.34 12.72-.84 7.01 3.69 13.54 10.55 15.2 6.73 1.63 14.53 3.52 18.45 4.47 1.48.36 3.01-.35 3.69-1.71.94-1.88-.11-4.14-2.15-4.63z" fill="#e96479"/><path d="m20.98 41.18c.57-4.01 1.87-6.18 7.09-6.18 11.01 0 17.92-5.89 19.45-16.56l1.98-12.3c.35-2.18-1.14-4.25-3.32-4.62-1.07-.18-2.14.07-3.03.71-.88.64-1.46 1.58-1.62 2.65l-1.83 11.88c-1.63 8.66-5.29 10.24-11.91 10.24-9.09 0-14.25 4.58-15.33 13.6-.9 7.51 3.96 14.51 11.31 16.29 6.73 1.63 14.53 3.52 18.45 4.47.34.08.68.12 1.02.12 1.58 0 3.06-.88 3.8-2.36.58-1.17.6-2.52.05-3.71-.55-1.18-1.6-2.04-2.87-2.34l-18.32-4.4c-3.31-.79-5.45-3.94-4.97-7.31l.03-.18zm.28-5.89-2.8-3.41c1.44-1.28 3.28-2.11 5.51-2.54l.92 3.99c-1.62.38-2.79 1.07-3.64 1.96zm20.8-20.6 3.94.65-.45 2.8c-.1.72-.23 1.4-.38 2.05l-3.93-1.07c.17-.64.32-1.3.46-2.02l.37-2.4zm1.46-9.51c.08-.54.37-1.02.82-1.34.35-.25.76-.39 1.18-.39.11 0 .23 0 .34.03 1.1.18 1.85 1.23 1.67 2.33l-1.22 7.55-3.95-.65zm-2.88 15.84 3.99 1.09c-.7 2.16-1.68 3.91-2.84 5.32l-3.29-2.39c.84-1.05 1.55-2.38 2.14-4.01zm-3.56 5.45 3.32 2.42c-1.7 1.55-3.67 2.56-5.72 3.18l-2.22-3.49c1.76-.37 3.3-1.02 4.62-2.11zm-6.79 2.42 2.35 3.69c-1.54.29-3.09.41-4.56.41-.42 0-.81.02-1.19.04l-.92-3.96c.59-.05 1.2-.08 1.84-.08.86 0 1.69-.03 2.48-.1zm-13.19 4.48 2.98 3.63c-.54 1.11-.85 2.37-1.04 3.67l-4.25-1.77c.46-2.23 1.23-4.07 2.31-5.53zm-2.64 7.56 4.45 1.85c.08 1.37.48 2.68 1.15 3.82l-4.58.98c-.9-2.03-1.28-4.31-1.02-6.65zm8.89 13.74 2.82-3.89 5.07 1.22-2.54 4.02c-1.49-.36-2.99-.72-4.43-1.07-.31-.08-.61-.17-.91-.27zm9.94-2.18 4.63 1.11-2.34 4.08c-1.54-.37-3.18-.77-4.84-1.17zm12 3.76c.29.63.28 1.35-.03 1.97-.48.95-1.52 1.44-2.56 1.19-1.32-.32-3.09-.75-5.1-1.24l2.34-4.08 3.82.92c.67.16 1.23.61 1.52 1.24zm-21.16-6.08-2.69 3.72c-2.05-1.04-3.76-2.6-4.98-4.48l4.94-1.05c.77.76 1.69 1.38 2.73 1.81z"/></svg>