<svg id="Layer_1" enable-background="new 0 0 512 512" height="512" viewBox="0 0 512 512" width="512" xmlns="http://www.w3.org/2000/svg"><g id="_x32_0_Worm"><g><g><path d="m492.7 308.4c-7.5 10.7-22.2 13.2-32.8 5.8l-23.5-16.5-10.8-7.5c-7.9-5.5-17.8-6.8-26.6-3.7-2.5.8-5 2.1-7.3 3.7l-33.3 23.3c-5.7 4-12.1 6.9-18.6 8.7-2.1.6-4.2 1-6.3 1.3-11.1 1.7-22.5.3-32.9-4.3-3.4-1.5-6.8-3.4-10-5.6l-33.2-23.3c-.4-.3-.7-.5-1.1-.7-.1-.1-.2-.1-.3-.2-10-6.2-22.8-5.9-32.5.9l-8.7 6.1-24.6 17.3c-4.1 2.9-8.5 5.1-13 6.9-6.4 2.4-13.1 3.7-19.8 3.8-12.2.2-24.5-3.3-34.9-10.6l-2.2-1.5-21.5-15.1-5.5-3.8c-6.7-4.7-14.9-6.8-23-5.6-23.2 3.5-45.8-14.3-45.8-39.6 0-22.1 17.9-40 40-40 17 0 31.6 10.6 37.3 25.7.8 2.2 1.9 4.3 3.1 6.3 2.4 4.1 5.6 7.6 9.5 10.4l17.2 12.1 7.8 5.5c9 6.3 20.7 7 30.3 2.1 1.2-.6 2.4-1.3 3.6-2.1l8.7-6.1 24.5-17.2c6.8-4.8 14.4-7.9 22.2-9.5 12.8-2.6 26.4-.9 38.3 5.2.1.1.2.1.4.2 2.4 1.2 4.7 2.6 6.9 4.2l33.2 23.3c1.3.9 2.7 1.7 4.1 2.4 9.5 4.6 20.9 3.8 29.7-2.4l2.5-1.7 10.3-7.2 20.6-14.4c10.8-7.6 23.5-11.1 36.2-10.6 11.1.4 22.1 4 31.6 10.6l5.1 3.6 39.4 27.6c10.6 6.9 13.2 21.6 5.7 32.2z" fill="#878787"/><path d="m492.7 308.4c-.4.6-.8 1.1-1.2 1.6 1.7-8.8-1.8-18.2-9.6-23.7l-39.4-27.6-5.1-3.6c-9.5-6.7-20.5-10.2-31.6-10.6-12.6-.5-25.4 3.1-36.2 10.6l-20.6 14.4-10.3 7.2-2.5 1.7c-8.8 6.2-20.2 7-29.7 2.4-1.4-.7-2.8-1.5-4.1-2.4l-33.2-23.3c-2.2-1.6-4.5-2.9-6.9-4.2-.1-.1-.2-.1-.4-.2-11.9-6-25.5-7.8-38.3-5.2-7.8 1.6-15.4 4.7-22.2 9.5l-24.5 17.2-8.7 6.1c-1.2.8-2.4 1.5-3.6 2.1-9.6 4.9-21.3 4.2-30.3-2.1l-7.8-5.5-17.2-12.1c-3.9-2.8-7.1-6.3-9.5-10.4-1.2-2-2.3-4.1-3.1-6.3-5.8-15-20.3-25.7-37.3-25.7-13.8 0-26 7-33.2 17.6 5-16.4 20.2-28.3 38.2-28.3 17 0 31.5 10.6 37.3 25.7.8 2.2 1.9 4.3 3.1 6.3 2.4 4.1 5.6 7.6 9.5 10.4l17.2 12.1 7.8 5.5c9 6.3 20.7 7 30.3 2.1 1.2-.6 2.4-1.3 3.6-2.1l8.7-6.1 24.5-17.2c6.8-4.8 14.4-7.9 22.2-9.5 12.8-2.6 26.4-.9 38.3 5.2.1.1.2.1.4.2 2.4 1.2 4.7 2.6 6.9 4.2l33.2 23.3c1.3.9 2.7 1.7 4.1 2.4 9.5 4.6 20.9 3.8 29.7-2.4l2.5-1.7 10.3-7.2 20.6-14.4c10.8-7.6 23.5-11.1 36.2-10.6 11.1.4 22.1 4 31.6 10.6l5.1 3.6 39.4 27.6c10.7 7.5 13.3 22.2 5.8 32.8z" opacity=".1"/><path d="m68.4 235.4c0 4.3-3.5 7.9-7.9 7.9s-7.9-3.5-7.9-7.9c0-4.3 3.5-7.9 7.9-7.9s7.9 3.6 7.9 7.9z" fill="#eef0ee"/><g fill="#565656"><path d="m169.9 269.9-12.3 54.2c-12.2.2-24.5-3.3-34.9-10.6l-2.2-1.5 11.3-49.7 7.8 5.5c9 6.3 20.7 7 30.3 2.1z"/><path d="m267.5 240.3-11.2 49.2c-.1-.1-.2-.1-.3-.2-10-6.2-22.8-5.9-32.5.9l-8.7 6.1 13.9-61.3c12.8-2.6 26.4-.9 38.3 5.2.3-.1.4 0 .5.1z"/><path d="m354.2 258.9-14.4 63.3c-2.1.6-4.2 1-6.3 1.3-11.1 1.7-22.5.3-32.9-4.3l11.1-48.9c9.5 4.6 20.9 3.8 29.7-2.4l2.5-1.7z"/><path d="m447.6 248-11.3 49.7-10.8-7.5c-7.9-5.5-17.8-6.8-26.6-3.7l11.9-52.7c11.1.4 22.1 4 31.5 10.6z"/></g></g><g><path d="m5.1 232.4c-1.8-.4-3.5.8-3.9 2.6-.8 3.8-1.2 7.6-1.2 11.3 0 1.8 1.5 3.3 3.3 3.3 1.8 0 3.3-1.5 3.3-3.3 0-3.2.4-6.6 1.1-10 .4-1.8-.8-3.6-2.6-3.9z"/><path d="m13.6 220.1c8.3-15.2 22.7-25.8 39.6-29.1 1.8-.4 3-2.1 2.6-3.9s-2.1-3-3.9-2.6c-18.8 3.7-34.9 15.5-44.1 32.4-.9 1.6-.3 3.6 1.3 4.5s3.7.4 4.5-1.3z"/><path d="m445.5 225.3c4 2.2 6.7 4.2 7.5 4.7 1.5 1 3.6.6 4.6-.9s.6-3.6-.9-4.6c-1-.7-3.8-2.7-8-5-1.6-.9-3.6-.3-4.5 1.3-.9 1.7-.3 3.7 1.3 4.5z"/><path d="m511.3 265.5c-2.9-3.8-6.5-7.2-10.5-10l-29.9-21c-1.5-1-3.6-.7-4.6.8-1.1 1.5-.7 3.6.8 4.6l29.9 21c3.4 2.4 6.5 5.3 9 8.6 1.1 1.5 3.2 1.7 4.6.6 1.6-1 1.8-3.1.7-4.6z"/><path d="m507 320.9h-26.9c5.9-1.6 11.4-5.1 15.2-10.5 8.5-12.1 5.6-28.9-6.6-37.4l-44.4-31.2c-21-14.8-49.8-15.2-71.5 0l-33.3 23.3c-7 4.9-15.9 6-23.9 3.2-6.1-2.2-4.4-2.4-39.4-26.5-21.1-14.8-49.8-15.2-71.5 0l-33.3 23.3c-8.8 6.2-20.9 6.4-30.1 0-.4-.3-24.1-16.9-25-17.6-5.3-3.7-9.1-9.1-11.4-15.2-6.4-16.6-22.6-27.8-40.4-27.8-23.9 0-43.3 19.4-43.3 43.3 0 12.8 5.3 24.4 15 32.7 9.6 8.3 22.3 12 34.7 10.1 7.1-1.1 14.4.7 20.6 5l26.9 18.9c3.1 2.3 6.7 4.5 10.1 6.2h-114.2c-1.8 0-3.3 1.5-3.3 3.3s1.5 3.3 3.3 3.3h492.7c1.8 0 3.3-1.5 3.3-3.3s-1.5-3.1-3.3-3.1zm-281.7-28c9.2-6.4 21.3-6.2 30.1 0l33.2 23.3c2.5 1.8 5.2 3.3 8 4.7h-112.4c2.8-1.4 5.4-2.9 7.9-4.7zm181.5-4.7c5.9-.4 11.8 1.2 16.7 4.6 46 32.3-11.4-8 34.3 24.1 2.7 1.9 5.6 3.2 8.6 4h-114.2c2.7-1.4 5.4-2.9 7.9-4.7l33.3-23.3c4-2.8 8.6-4.3 13.4-4.7zm83 18.3c-6.4 9.2-19.1 11.4-28.2 5l-21.7-15.2 9.7-42.7 35.3 24.8c9.1 6.3 11.4 19 4.9 28.1zm-46.1-57.1-9.7 42.7-6.7-4.7c-5.8-4.1-12.8-6.1-19.7-5.9-1.1 0-3.3.2-4.4.4l10.1-44.7c10.2.9 19.3 4.4 27 9.8.4.3 3.7 2.6 3.4 2.4zm-67.1-2.3c8.8-6.2 19.4-9.6 30.1-10l-10.7 46.9c-2.2.9-4.3 2-6.4 3.4l-33.3 23.3c-3.8 2.6-7.9 4.8-12.1 6.4l12.8-56.4zm-33.4 23.4c.3-.2 6-4.2 5.7-4l-12 52.9c-10.7 2.5-21.8 1.8-32.6-2.3l9.6-42.4c.1 0 1.3.4 1.5.4 9.5 2.7 19.7 1.1 27.8-4.6zm-35.4 1.4-9.6 42.3c-2-1.1-3.9-2.2-5.8-3.5l-32.5-22.8 9.7-42.6c.9.6 1.9 1.2 2.7 1.8 35.2 24.7 33.4 23.6 35.5 24.8zm-44.3-29.7-9.6 42.3c-.1 0-.2-.1-.2-.1-10.4-4.7-22.6-3.6-32.2 3.1-.3.2-1.9 1.3-1.6 1.1l11.5-50.7c10.7-1.8 21.8-.5 32.1 4.3zm-55.1 4.9c4.9-3.4 10.2-6 15.9-7.7l-12.4 54.8-23.5 16.5c-3.7 2.6-7.9 4.8-12.2 6.5-4.7 1.8-9.5 2.9-14.5 3.3l11-48.5c.9-.5 1.7-1 2.6-1.6zm-43.3 28.1-10.3 45.5c-17.2-.4-26.4-8-30.8-10.2l9.7-42.7 3.8 2.7c8.4 5.9 18.7 7.2 27.6 4.7zm-95.3 8.9c-10.5 1.6-21.2-1.5-29.4-8.6-3.1-2.7-5.7-5.8-7.7-9.3 4.1-.8 7.8-2.7 11-5.4 1.4-1.2 1.5-3.3.3-4.7s-3.3-1.5-4.7-.3c-2.6 2.3-5.9 3.7-9.4 4.1-1.3-3.8-2-7.9-2-12.1 0-20.2 16.4-36.7 36.7-36.7 15.1 0 28.8 9.5 34.2 23.5 2.8 7.3 7.4 13.7 13.8 18.2l15.4 10.8-9.7 42.7-23-16.1c-7.7-5.2-16.7-7.4-25.5-6.1z"/><path d="m60.4 224.2c-6.2 0-11.2 5-11.2 11.2s5 11.2 11.2 11.2 11.2-5 11.2-11.2c-.1-6.2-5.1-11.2-11.2-11.2zm0 15.8c-2.5 0-4.6-2-4.6-4.6 0-2.5 2-4.6 4.6-4.6 2.5 0 4.6 2 4.6 4.6-.1 2.5-2.1 4.6-4.6 4.6z"/></g></g></g></svg>