<svg id="Layer_1" enable-background="new 0 0 100 100" viewBox="0 0 100 100" xmlns="http://www.w3.org/2000/svg"><g><path d="m83.122 45.253c.236-.079.446-.144.616-.197.459-.157.957-.288 1.456-.42 1.39-.38 2.82-.761 3.961-1.81.852-.787.905-1.561.8-2.085-.249-1.141-1.456-1.941-2.426-2.282-1.862-.643-4.039-1.207-8.459-.511-1.154.184-2.334.407-3.502.682-.59.144-.918-.262-.997-.394-.092-.118-.341-.577.013-1.075 5.849-8.249 8.223-15.344 5.902-17.665s-9.429.066-17.679 5.928c-.498.354-.957.105-1.089.026-.118-.092-.525-.42-.38-1.023.774-3.134 1.639-7.777.184-11.961-.328-.97-1.128-2.19-2.282-2.426-.511-.105-1.298-.052-2.072.787-1.049 1.141-1.43 2.584-1.81 3.974-.131.498-.262.984-.42 1.456-.066.157-.131.367-.197.616-.302.984-.918 3.029-1.77 3.475-.157.079-.315.092-.498.026-.761-.236-.97-1.626-1.154-2.846-.105-.695-.21-1.364-.407-1.889-.944-2.347-2.492-3.475-4.262-3.082-2.911.643-3.685 4.236-4.197 6.623l-.144.656c-.787 3.423-1.285 6.466-1.548 9.298l-29.337 36.892c-.498.669-.866 1.364-1.089 2.072v.026c-.013.013-.026.026-.026.053-.734 2.348-.118 4.892 1.639 6.636l13.233 13.233c1.273 1.272 2.951 1.954 4.656 1.954.682 0 1.364-.105 2.02-.315.761-.223 1.482-.603 2.125-1.115l36.918-29.338c3.37-.183 6.19-.826 8.262-1.325l1.652-.367c2.374-.511 5.98-1.298 6.623-4.21.393-1.77-.735-3.318-3.095-4.249-.511-.21-1.18-.302-1.889-.42-1.22-.184-2.597-.393-2.846-1.141-.052-.184-.039-.341.039-.511.447-.838 2.492-1.455 3.476-1.756zm-41.941-14.531c1.915 4.433 4.577 12.472 4.446 22.374-3.843.131-7.698.682-11.475 1.679-8.643 2.243-15.318 6.269-20.066 10.019zm2.4 2.504c3.069-1.666 6.964-1.154 9.456 1.351 3.121 3.121 3.121 8.197 0 11.318-1.639 1.639-3.948 2.479-6.243 2.295-.472-6.045-1.862-11.186-3.213-14.964zm-10.426 54.322c-.498.407-1.062.695-1.692.879-1.875.617-3.934.118-5.351-1.298l-13.232-13.234c-1.364-1.364-1.875-3.331-1.351-5.167 4.564-4.275 12.223-9.901 22.951-12.695 3.895-1.01 7.869-1.574 11.816-1.666 10.151-.249 18.465 2.505 23.003 4.459zm31.266-38.453-5.18 5.18c-1.692-.354-3.502-.656-5.403-.879l9.102-9.102 4.708 1.574zm.642 1.207 4.708 1.574-4.144 4.144c-1.469-.485-3.095-.97-4.879-1.403zm13.298-2.387c.485 1.534 2.374 1.823 3.895 2.046.629.105 1.22.184 1.613.341.997.393 2.61 1.272 2.282 2.754-.459 2.085-3.449 2.728-5.626 3.2l-1.666.38c-2.203.525-4.944 1.167-8.315 1.311-.984-.446-2.177-.931-3.554-1.443l4.459-4.446c.157-.17.223-.393.17-.616-.052-.223-.21-.407-.433-.472l-5.089-1.705 3.226-3.226c.157-.157.223-.393.17-.616-.052-.21-.21-.394-.433-.459l-6.098-2.033c-.236-.079-.498-.026-.669.157l-10.148 10.138c-1.666-.131-3.41-.197-5.206-.17.026-1.207 0-2.4-.066-3.554.17.013.341.039.511.039 2.452 0 4.839-.97 6.584-2.728 3.633-3.633 3.633-9.534 0-13.167-2.872-2.859-7.305-3.488-10.846-1.652-.38-.971-.734-1.823-1.075-2.557.249-2.82.761-5.862 1.534-9.311l.157-.669c.459-2.177 1.115-5.154 3.2-5.626 1.482-.328 2.361 1.298 2.754 2.295.144.38.236.97.328 1.6.236 1.521.525 3.41 2.046 3.908.525.157 1.049.118 1.521-.131 1.325-.695 2.007-2.925 2.4-4.249.079-.223.131-.42.184-.564.17-.498.315-1.023.459-1.548.341-1.298.669-2.518 1.495-3.423.446-.472.748-.407.852-.393.485.105 1.036.761 1.311 1.561 1.338 3.856.511 8.249-.223 11.226-.236.931.131 1.875.918 2.413s1.797.525 2.584-.026c8.065-5.744 14.465-7.593 15.987-6.072 1.521 1.521-.315 7.908-6.046 15.987-.551.774-.564 1.77-.026 2.557.525.787 1.469 1.154 2.387.931 1.141-.262 2.282-.485 3.41-.656 4.118-.656 6.046-.157 7.83.459.8.275 1.456.826 1.561 1.311.013.092.079.407-.407.839-.892.826-2.125 1.154-3.41 1.508-.525.144-1.049.275-1.548.459-.144.053-.341.105-.564.17-1.338.407-3.554 1.075-4.249 2.413-.249.473-.301.998-.131 1.509z"/><path d="m69.771 51.876-4.144 4.144c-1.469-.485-3.095-.97-4.879-1.403l4.315-4.315z" fill="#fe860a"/><path d="m67.647 45.869-3.226 3.226-5.18 5.18c-1.692-.354-3.502-.656-5.403-.879l9.102-9.102z" fill="#fe860a"/><path d="m53.037 45.895c-1.639 1.639-3.948 2.479-6.243 2.295-.472-6.046-1.862-11.187-3.213-14.964 3.069-1.666 6.964-1.154 9.456 1.351 3.121 3.122 3.121 8.197 0 11.318z" fill="#eb5569"/><path d="m82.742 43.994c.223-.066.42-.118.564-.17.498-.184 1.023-.315 1.548-.459 1.285-.354 2.518-.682 3.41-1.508.485-.433.42-.748.407-.839-.105-.485-.761-1.036-1.561-1.311-1.784-.616-3.711-1.115-7.83-.459-1.128.17-2.269.393-3.41.656-.918.223-1.862-.144-2.387-.931-.538-.787-.525-1.784.026-2.557 5.731-8.079 7.567-14.466 6.046-15.987s-7.921.328-15.987 6.072c-.787.551-1.797.564-2.584.026s-1.154-1.482-.918-2.413c.734-2.977 1.561-7.37.223-11.226-.275-.8-.826-1.456-1.311-1.561-.105-.013-.407-.079-.852.393-.826.905-1.154 2.125-1.495 3.423-.144.525-.288 1.049-.459 1.548-.052.144-.105.341-.184.564-.393 1.325-1.075 3.554-2.4 4.249-.472.249-.997.288-1.521.131-1.521-.498-1.81-2.387-2.046-3.908-.092-.63-.184-1.22-.328-1.6-.393-.997-1.272-2.623-2.754-2.295-2.085.472-2.741 3.449-3.2 5.626l-.157.669c-.774 3.449-1.285 6.492-1.534 9.311.341.734.695 1.587 1.075 2.557 3.541-1.836 7.974-1.207 10.846 1.652 3.633 3.633 3.633 9.534 0 13.167-1.744 1.757-4.131 2.728-6.584 2.728-.17 0-.341-.026-.511-.039.066 1.154.092 2.347.066 3.554 1.797-.026 3.541.039 5.206.17l10.151-10.138c.17-.184.433-.236.669-.157l6.098 2.033c.223.066.38.249.433.459.053.223-.013.459-.17.616l-3.226 3.226 5.089 1.705c.223.066.38.249.433.472s-.013.446-.17.616l-4.459 4.446c1.377.511 2.571.997 3.554 1.443 3.37-.144 6.111-.787 8.315-1.311l1.666-.38c2.177-.472 5.167-1.115 5.626-3.2.328-1.482-1.285-2.361-2.282-2.754-.393-.157-.984-.236-1.613-.341-1.521-.223-3.41-.511-3.895-2.046-.17-.511-.118-1.036.131-1.508.692-1.339 2.908-2.008 4.246-2.414zm-35.03-18.99c0 .354-.302.643-.656.643 0 0 0 0-.013 0-.354-.013-.643-.315-.643-.669l.105-5.731c.013-.354.315-.629.669-.643.367.013.656.302.643.669zm18.571 9.626c-.131.131-.289.197-.459.197-.171 0-.341-.066-.459-.197-.262-.249-.262-.669 0-.918l7.659-7.672c.262-.262.669-.262.931 0 .262.249.262.669 0 .931zm14.452 17.547c.393.026.656.289.656.656.013.354-.275.656-.643.656l-5.731.105c-.367 0-.656-.275-.656-.643-.013-.354.275-.656.643-.669z" fill="#87d147"/><path d="m45.627 53.095c-3.843.131-7.698.682-11.475 1.679-8.643 2.243-15.318 6.269-20.066 10.019l27.095-34.072c1.915 4.433 4.577 12.473 4.446 22.374z" fill="#fed690"/><path d="m69.299 58.826-36.144 28.722c-.498.407-1.062.695-1.692.879-1.875.617-3.934.118-5.351-1.298l-13.232-13.234c-1.364-1.364-1.875-3.331-1.351-5.167 4.564-4.275 12.223-9.901 22.951-12.695 3.895-1.01 7.869-1.574 11.816-1.666 10.151-.249 18.466 2.505 23.003 4.459z" fill="#fed690"/><path d="m73.955 26.971-7.672 7.659c-.131.131-.289.197-.459.197-.171 0-.341-.066-.459-.197-.262-.249-.262-.669 0-.918l7.659-7.672c.262-.262.669-.262.931 0 .262.249.262.669 0 .931z"/><path d="m81.391 52.833c.013.354-.275.656-.643.656l-5.731.105c-.367 0-.656-.275-.656-.643-.013-.354.275-.656.643-.669l5.731-.105c.394.026.656.289.656.656z"/><path d="m47.817 19.273-.105 5.731c0 .354-.302.643-.656.643 0 0 0 0-.013 0-.354-.013-.643-.315-.643-.669l.105-5.731c.013-.354.315-.629.669-.643.368.013.657.301.643.669z"/></g></svg>