<svg viewBox="0 0 64 64" xmlns="http://www.w3.org/2000/svg"><g id="Watch"><path d="m26 51v11a1 1 0 0 0 1 1h10a1 1 0 0 0 1-1v-11z" fill="#f7b692"/><g fill="#ffcda4"><path d="m45.49 44.68a16.61441 16.61441 0 0 0 -2.49 8.31v1.01l-5 2v-10h5a3.02764 3.02764 0 0 0 2.49-1.32z"/><path d="m18.51 44.68a16.61441 16.61441 0 0 1 2.49 8.31v1.01l5 2v-10h-5a3.02764 3.02764 0 0 1 -2.49-1.32z"/><path d="m45.49 19.32a16.61441 16.61441 0 0 1 -2.49-8.31v-1.01l-5-2v10h5a3.02764 3.02764 0 0 1 2.49 1.32z"/><path d="m18.51 19.32a16.61441 16.61441 0 0 0 2.49-8.31v-1.01l5-2v10h-5a3.02764 3.02764 0 0 0 -2.49 1.32z"/></g><path d="m37 1h-10a1 1 0 0 0 -1 1v11h12v-11a1 1 0 0 0 -1-1z" fill="#f7b692"/><rect fill="#54aed1" height="28" rx="3" width="28" x="18" y="18"/><path d="m21 21h22v22h-22z" fill="#3f92bc"/><g fill="#2c3638"><path d="m44 43v-22a.99943.99943 0 0 0 -1-1h-22a.99943.99943 0 0 0 -1 1v22a.99943.99943 0 0 0 1 1h22a.99943.99943 0 0 0 1-1zm-2-1h-20v-20h20z"/><path d="m32 26a.99943.99943 0 0 0 1-1v-1a1 1 0 0 0 -2 0v1a.99943.99943 0 0 0 1 1z"/><path d="m27.63379 26.4375a1.00016 1.00016 0 1 0 1.73242-1l-.5-.86523a1.00016 1.00016 0 1 0 -1.73242 1z"/><path d="m24.57227 28.86621.86522.5a1.00016 1.00016 0 1 0 1-1.73242l-.86522-.5a1.00016 1.00016 0 1 0 -1 1.73242z"/><path d="m24 33h1a1 1 0 0 0 0-2h-1a1 1 0 0 0 0 2z"/><path d="m25.43749 34.63379-.86522.5a1.00016 1.00016 0 0 0 1 1.73242l.86522-.5a1.00016 1.00016 0 1 0 -1-1.73242z"/><path d="m27.5 39.794a1.00062 1.00062 0 0 0 1.36621-.36622l.5-.86523a1.00016 1.00016 0 1 0 -1.73242-1l-.5.86523a1.00012 1.00012 0 0 0 .36621 1.36622z"/><path d="m32 41a.99943.99943 0 0 0 1-1v-1a1 1 0 0 0 -2 0v1a.99943.99943 0 0 0 1 1z"/><path d="m36.36621 37.5625a1.00016 1.00016 0 0 0 -1.73242 1l.5.86523a1.00016 1.00016 0 1 0 1.73242-1z"/><path d="m37.56249 36.36621.86524.5a1.00016 1.00016 0 1 0 1-1.73242l-.86524-.5a1.00016 1.00016 0 0 0 -1 1.73242z"/><path d="m38 32a.99943.99943 0 0 0 1 1h1a1 1 0 0 0 0-2h-1a.99943.99943 0 0 0 -1 1z"/><path d="m38.06348 29.5a.99439.99439 0 0 0 .499-.13379l.86524-.5a1.00016 1.00016 0 1 0 -1-1.73242l-.86524.5a1 1 0 0 0 .501 1.86621z"/><path d="m35 26.80371a1.0006 1.0006 0 0 0 1.36621-.36621l.5-.86523a1.00016 1.00016 0 1 0 -1.73242-1l-.5.86523a1.0001 1.0001 0 0 0 .36621 1.36621z"/><path d="m47 43v-22a4.21616 4.21616 0 0 0 -.5459-2.02051 15.716 15.716 0 0 1 -2.4541-7.96777v-1.01172a1.00045 1.00045 0 0 0 -.62891-.92871l-4.37109-1.74841v-5.32288a2.0026 2.0026 0 0 0 -2-2h-10a2.0026 2.0026 0 0 0 -2 2v5.32288l-4.37109 1.74841a1.00045 1.00045 0 0 0 -.62891.92871v1.01172a15.71773 15.71773 0 0 1 -2.45312 7.9668 4.20124 4.20124 0 0 0 -.54688 2.02148v22a4.21616 4.21616 0 0 0 .5459 2.02051 15.716 15.716 0 0 1 2.4541 7.96777v1.01172a1.00045 1.00045 0 0 0 .62891.92871l4.37109 1.74841v5.32288a2.0026 2.0026 0 0 0 2 2h10a2.0026 2.0026 0 0 0 2-2v-5.32288l4.37109-1.74841a1.00045 1.00045 0 0 0 .62891-.92871v-1.01172a15.71765 15.71765 0 0 1 2.45313-7.9668 4.2 4.2 0 0 0 .54687-2.02148zm-10 7h-10v-3h10zm-16-5a1.99469 1.99469 0 0 1 -1.76892-1.08691 2.05743 2.05743 0 0 1 -.23108-.91309v-22a2.07788 2.07788 0 0 1 .23309-.91681 1.99476 1.99476 0 0 1 1.76691-1.08319h22a1.99469 1.99469 0 0 1 1.76892 1.08691 2.095 2.095 0 0 1 .23108.91309v22a2.07788 2.07788 0 0 1 -.23309.91681 1.99476 1.99476 0 0 1 -1.76691 1.08319zm6-31h10v3h-10zm15-3.32324v.335a15.79466 15.79466 0 0 0 1.26141 6.01471c-.08807-.00584-.17187-.02647-.26141-.02647h-4v-7.52344zm-15-8.67676h10v10h-10zm-5 8.67676 3-1.2002v7.52344h-4c-.08948 0-.17322.02063-.26123.02643a15.798 15.798 0 0 0 1.26123-6.01471zm0 42.64648v-.335a15.79466 15.79466 0 0 0 -1.26141-6.01471c.08807.00584.17187.02647.26141.02647h4v7.52344zm15 8.67676h-10v-10h10zm5-8.67676-3 1.2002v-7.52344h4c.08948 0 .17322-.02063.26123-.02643a15.798 15.798 0 0 0 -1.26123 6.01471z"/><path d="m31.5 32.86621 2.41113 1.3916a1.00016 1.00016 0 1 0 1-1.73242l-1.91113-1.10254v-3.42285a1 1 0 0 0 -2 0v4a.99985.99985 0 0 0 .5.86621z"/></g></g></svg>