<svg enable-background="new 0 0 512 512" viewBox="0 0 512 512" xmlns="http://www.w3.org/2000/svg"><g id="Layer_1" display="none"><g display="inline" fill="none" stroke="#6d6e71" stroke-miterlimit="10" stroke-width=".284"><path d="m0 0h512v512h-512z"/><circle cx="256" cy="256" r="256"/><path d="m75 75h362v362h-362z"/><path d="m128 0h256v512h-256z"/><path d="m256 0v512"/><path d="m0 128h512v256h-512z"/><path d="m0 256h512"/><path d="m512 0-512 512"/><path d="m0 0 512 512"/><circle cx="256" cy="256" r="181.3"/><circle cx="256" cy="256" r="128"/><circle cx="256" cy="256" r="64"/></g></g><g id="Layer_2"><g><g><g><path d="m96.8 153.3c-25.4-38.1-23.3-106.4-21.2-133.9.5-7 6.3-12 12.6-11 32.9 5.3 60.3 32.6 78.8 66.5" fill="#afb0b4"/><path d="m96.8 161.5c-2.7 0-5.3-1.3-6.9-3.7-26.8-40.2-24.6-110.6-22.5-139 .4-5.8 3.2-11.2 7.7-14.7 4.2-3.3 9.3-4.7 14.5-3.8 32.5 5.2 62.6 30.3 84.7 70.7 2.2 4 .7 9-3.3 11.2s-9 .7-11.2-3.3c-19.5-35.9-45.4-58-72.8-62.4-.6-.1-1.1.1-1.7.5-.8.7-1.4 1.8-1.5 3-2 26.7-4.2 92.7 19.8 128.7 2.5 3.8 1.5 8.9-2.3 11.4-1.3 1-2.9 1.4-4.5 1.4z" fill="#231f20"/></g><g><path d="m344.9 74.9c18.6-33.9 45.9-61.2 78.8-66.5 6.3-1 12.1 4 12.6 11 2.1 27.5 4.2 95.7-21.2 133.9" fill="#afb0b4"/><path d="m415.2 161.5c-1.6 0-3.1-.4-4.6-1.4-3.8-2.5-4.8-7.6-2.3-11.4 24-36 21.8-102 19.8-128.7-.1-1.3-.6-2.4-1.5-3-.5-.4-1.1-.6-1.6-.5-27.4 4.4-53.3 26.5-72.9 62.3-2.2 4-7.2 5.4-11.2 3.3-4-2.2-5.4-7.2-3.3-11.2 22.1-40.4 52.2-65.5 84.8-70.7 5.1-.8 10.3.5 14.4 3.8 4.4 3.5 7.2 8.9 7.7 14.7 2.2 28.4 4.3 98.8-22.5 139.1-1.5 2.5-4.1 3.7-6.8 3.7z" fill="#231f20"/></g></g><g><path d="m312 61.9c11.6 3.1 22.6 7.5 32.9 13 32.4 17.3 57.4 45.2 70.3 78.4 4.5 11.6 7.5 23.8 8.8 36.4 1.4 13.3 1 27-1.6 40.9l-30.1 163.6c-2.3 12.6-6.4 24.5-12.1 35.5-22.8 44.4-70.4 74.1-124.3 74.1-53.1 0-100.2-28.9-123.3-72.2-6.2-11.5-10.6-24-13.1-37.3l-30-163.6c-2.6-13.9-3-27.6-1.6-40.9 1.3-12.6 4.3-24.8 8.9-36.4 12.9-33.2 37.9-61.1 70.3-78.4 10.3-5.5 21.3-9.9 32.9-13.1" fill="#edebe8"/><path d="m256 512c-27.3 0-54-7.3-77.1-21-22.8-13.5-41.3-32.7-53.5-55.6-6.7-12.5-11.3-25.8-13.9-39.7l-30.1-163.5c-2.6-14.4-3.2-29-1.7-43.3 1.4-13.2 4.5-26.1 9.4-38.5 13.6-35.1 39.9-64.5 74.1-82.7 10.9-5.8 22.6-10.5 34.7-13.7 4.4-1.2 8.9 1.4 10.1 5.8s-1.4 8.9-5.8 10.1c-10.9 2.9-21.4 7.1-31.2 12.4-30.7 16.3-54.3 42.7-66.5 74.1-4.3 11.1-7.1 22.6-8.3 34.3-1.4 12.8-.9 25.7 1.5 38.6l30.1 163.6c2.3 12.2 6.4 24 12.2 35 22.3 41.9 66.8 67.9 116.1 67.9 49.4 0 95.3-27.3 117-69.6 5.4-10.5 9.2-21.6 11.3-33.2l30.1-163.6c2.4-12.8 2.9-25.8 1.5-38.6-1.2-11.7-4-23.3-8.3-34.3-12.2-31.5-35.8-57.8-66.5-74.1-9.8-5.2-20.3-9.4-31.2-12.3-4.4-1.2-7-5.7-5.8-10.1s5.7-7 10.1-5.8c12.1 3.3 23.7 7.9 34.6 13.7 34.1 18.2 60.5 47.6 74.1 82.7 4.8 12.4 8 25.4 9.4 38.5 1.5 14.4 1 28.9-1.7 43.3l-30.1 163.6c-2.4 13.1-6.7 25.8-12.8 37.7-12 23.4-30.5 43.1-53.6 57-23.5 13.9-50.5 21.3-78.2 21.3z" fill="#231f20"/></g><g><path d="m380.3 429.7c-34.2-23.2-76.6-36.9-122.5-36.9-47.1 0-90.5 14.5-125.2 38.8 23.1 43.4 70.2 72.2 123.3 72.2 54 0 101.6-29.7 124.4-74.1" fill="#ffb8b0"/><path d="m256 512c-27.3 0-54-7.3-77.1-21-22.8-13.5-41.3-32.7-53.5-55.6-2-3.7-.9-8.2 2.5-10.6 37.6-26.4 82.5-40.3 129.9-40.3 46.1 0 90.1 13.3 127.1 38.4 2 1.4 3.3 3.5 3.6 5.8.1.8.1 1.6-.1 2.5-.1.8-.4 1.6-.8 2.4-12 23.3-30.5 43-53.5 56.9-23.4 14.1-50.4 21.5-78.1 21.5zm-112.4-77.9c23.3 38.1 65.7 61.4 112.4 61.4 46.8 0 90.5-24.6 113.4-63.1-32.9-20.6-71.3-31.4-111.6-31.4-41.4 0-80.7 11.4-114.2 33.1z" fill="#231f20"/></g><g><g><circle cx="179.2" cy="268.2" fill="#afb0b4" r="15.4"/><path d="m179.2 291.8c-13 0-23.6-10.6-23.6-23.6s10.6-23.6 23.6-23.6 23.6 10.6 23.6 23.6c.1 13-10.5 23.6-23.6 23.6zm0-30.8c-4 0-7.2 3.2-7.2 7.2s3.2 7.2 7.2 7.2 7.2-3.2 7.2-7.2-3.2-7.2-7.2-7.2z" fill="#231f20"/></g><g><circle cx="332.8" cy="268.2" fill="#afb0b4" r="15.4"/><path d="m332.8 291.8c-13 0-23.6-10.6-23.6-23.6s10.6-23.6 23.6-23.6 23.6 10.6 23.6 23.6-10.6 23.6-23.6 23.6zm0-30.8c-4 0-7.2 3.2-7.2 7.2s3.2 7.2 7.2 7.2 7.2-3.2 7.2-7.2c-.1-4-3.3-7.2-7.2-7.2z" fill="#231f20"/></g></g><g><g><path d="m167.9 212c-.5 0-1 0-1.4-.1l-80-14c-4.5-.8-7.5-5.1-6.7-9.5.8-4.5 5.1-7.5 9.5-6.7l80 14c4.5.8 7.5 5.1 6.7 9.5-.7 4-4.2 6.8-8.1 6.8z" fill="#231f20"/></g><g><path d="m344.1 212c-3.9 0-7.4-2.8-8.1-6.8-.8-4.5 2.2-8.7 6.7-9.5l80-14c4.5-.8 8.7 2.2 9.5 6.7s-2.2 8.7-6.7 9.5l-80 14c-.5.1-.9.1-1.4.1z" fill="#231f20"/></g></g><g><g><path d="m114.9 376.8c-3.1 0-6.1-1.7-7.5-4.7-1.9-4.1-.2-9 4-11l80.3-37.7c4.1-1.9 9-.2 11 4 1.9 4.1.2 9-4 11l-80.3 37.6c-1.1.5-2.3.8-3.5.8z" fill="#231f20"/></g><g><path d="m397.1 376.8c-1.2 0-2.4-.3-3.5-.8l-80.3-37.7c-4.1-1.9-5.9-6.8-4-11s6.8-5.9 11-4l80.3 37.7c4.1 1.9 5.9 6.8 4 11-1.5 3-4.4 4.8-7.5 4.8z" fill="#231f20"/></g></g><g><path d="m269.1 189.2 43.4-81.8c15.7-35.1-13.7-73.2-56.5-73.2-42.8 0-72.2 38-56.5 73.2l43.4 81.8c5 10.1 21.2 10.1 26.2 0z" fill="#afb0b4"/><path d="m256 205c-8.9 0-16.7-4.6-20.4-12.1l-43.4-81.7c-.1-.2-.2-.3-.2-.5-7.9-17.8-6.3-37.5 4.4-54 12.4-19.2 34.7-30.7 59.6-30.7s47.2 11.5 59.7 30.8c10.7 16.5 12.3 36.2 4.4 54-.1.2-.2.3-.2.5l-43.4 81.7c-3.8 7.4-11.6 12-20.5 12zm-49.1-101.2 43.3 81.5c0 .1.1.2.1.2 1.1 2.2 3.7 3 5.7 3 2.1 0 4.6-.8 5.7-3 0-.1.1-.2.1-.2l43.3-81.5c5.6-12.7 4.4-26.2-3.3-38.1-9.5-14.6-26.6-23.3-45.9-23.3s-36.4 8.7-45.9 23.3c-7.5 11.8-8.7 25.4-3.1 38.1z" fill="#231f20"/></g></g></g></svg>