<svg id="Capa_1" enable-background="new 0 0 511.558 511.558" viewBox="0 0 511.558 511.558" xmlns="http://www.w3.org/2000/svg"><g><g fill="#fdae02"><path d="m125.524 310.536-51.201 52.348 7.197 10.206c12.149 17.229 33.352 42.069 65.368 62.569 37.68 24.127 80.875 36.361 128.385 36.361 51.152 0 95.597-16.29 125.146-45.868 21.956-21.979 34.032-50.027 34.003-78.978z"/><path d="m434.408 177.17.013-12.785c.029-28.951-12.047-57-34.003-78.978-29.549-29.578-73.993-45.868-125.146-45.868-47.51 0-90.705 12.233-128.385 36.361-32.016 20.5-53.219 45.34-65.368 62.569l-7.197 10.206 55.075 56.307z"/></g><g><path d="m83.778 255.779 10 46.685c1.132-.091 2.284-.063 3.442.118 4.051.634 7.526 2.863 9.787 6.277 19.293 29.13 42.752 52.972 69.725 70.863 36.992 24.537 79.5 36.978 126.341 36.978 93.991 0 135.332-38.485 166.006-80.073 4.533-6.146 9.719-10.62 15.208-15.356 14.405-12.427 30.687-26.507 26.645-65.491l-223.943-20z" fill="#fdcb02"/><path d="m509.914 246.879-29.682-18.556c-6.725-8.366-13.016-19.501-19.65-31.245-24.374-43.139-57.752-102.219-157.509-102.219-46.841 0-89.349 12.441-126.341 36.978-26.973 17.891-50.432 41.732-69.725 70.863-2.261 3.414-5.736 5.643-9.787 6.277-1.159.181-2.31.209-3.442.118l-10 46.685h427.154c-.06-.583-1.018-8.901-1.018-8.901z" fill="#fddf02"/></g><path d="m381.667 255.779v15h30v-15l-15-10z" fill="#2b2b2b"/><path d="m381.667 240.779h30v15h-30z" fill="#404040"/><path d="m263.078 245.779-54.775 10c0 26.036 21.106 47.143 47.143 47.143h62.408v-47.143z" fill="#fdae02"/><path d="m208.302 213.473h109.551v42.307h-109.551z" fill="#fdcb02"/><g><path d="m16.544 316.285c8.66 12.374 17.696 17.296 19.419 18.157l8.589 4.291 41.379-33.146c2.298-1.841 5.005-2.896 7.847-3.124v-46.685l-41.662-10-52.116 10.001c0 24.462 5.566 44.819 16.544 60.506z" fill="#fdae02"/><path d="m85.931 205.971-41.379-33.146-8.589 4.291c-1.723.861-10.759 5.784-19.419 18.157-10.978 15.687-16.544 36.044-16.544 60.506h93.778v-46.685c-2.841-.227-5.549-1.282-7.847-3.123z" fill="#fdcb02"/></g></g><g/><g/><g/><g/><g/><g/><g/><g/><g/><g/><g/><g/><g/><g/><g/></svg>